<?xml version="1.0" encoding="utf-8" standalone="no"?>
<!DOCTYPE svg PUBLIC "-//W3C//DTD SVG 1.1//EN"
  "http://www.w3.org/Graphics/SVG/1.1/DTD/svg11.dtd">
<svg height="675.079375pt" version="1.1" viewBox="0 0 674.774375 675.079375" width="674.774375pt" xmlns="http://www.w3.org/2000/svg" xmlns:xlink="http://www.w3.org/1999/xlink">
 <metadata>
  <rdf:RDF xmlns:cc="http://creativecommons.org/ns#" xmlns:dc="http://purl.org/dc/elements/1.1/" xmlns:rdf="http://www.w3.org/1999/02/22-rdf-syntax-ns#">
   <cc:Work>
    <dc:type rdf:resource="http://purl.org/dc/dcmitype/StillImage"/>
    <dc:date>2021-07-16T21:44:02.446966</dc:date>
    <dc:format>image/svg+xml</dc:format>
    <dc:creator>
     <cc:Agent>
      <dc:title>Matplotlib v3.4.2, https://matplotlib.org/</dc:title>
     </cc:Agent>
    </dc:creator>
   </cc:Work>
  </rdf:RDF>
 </metadata>
 <defs>
  <style type="text/css">*{stroke-linecap:butt;stroke-linejoin:round;}</style>
 </defs>
 <g id="figure_1">
  <g id="patch_1">
   <path d="M 0 675.079375 
L 674.774375 675.079375 
L 674.774375 0 
L 0 0 
z
" style="fill:#ffffff;"/>
  </g>
  <g id="axes_1">
   <g id="patch_2">
    <path d="M 84.914375 603.86 
L 567.689804 603.86 
L 567.689804 109.484571 
L 84.914375 109.484571 
z
" style="fill:none;"/>
   </g>
   <g id="matplotlib.axis_1">
    <g id="xtick_1">
     <g id="text_1">
      <!-- 0 -->
      <g style="fill:#262626;" transform="translate(99.64041 636.076563)scale(0.22 -0.22)">
       <defs>
        <path d="M 2034 4250 
Q 1547 4250 1301 3770 
Q 1056 3291 1056 2328 
Q 1056 1369 1301 889 
Q 1547 409 2034 409 
Q 2525 409 2770 889 
Q 3016 1369 3016 2328 
Q 3016 3291 2770 3770 
Q 2525 4250 2034 4250 
z
M 2034 4750 
Q 2819 4750 3233 4129 
Q 3647 3509 3647 2328 
Q 3647 1150 3233 529 
Q 2819 -91 2034 -91 
Q 1250 -91 836 529 
Q 422 1150 422 2328 
Q 422 3509 836 4129 
Q 1250 4750 2034 4750 
z
" id="DejaVuSans-30" transform="scale(0.015625)"/>
       </defs>
       <use xlink:href="#DejaVuSans-30"/>
      </g>
     </g>
    </g>
    <g id="xtick_2">
     <g id="text_2">
      <!-- 20000 -->
      <g style="fill:#262626;" transform="translate(159.466671 636.076563)scale(0.22 -0.22)">
       <defs>
        <path d="M 1228 531 
L 3431 531 
L 3431 0 
L 469 0 
L 469 531 
Q 828 903 1448 1529 
Q 2069 2156 2228 2338 
Q 2531 2678 2651 2914 
Q 2772 3150 2772 3378 
Q 2772 3750 2511 3984 
Q 2250 4219 1831 4219 
Q 1534 4219 1204 4116 
Q 875 4013 500 3803 
L 500 4441 
Q 881 4594 1212 4672 
Q 1544 4750 1819 4750 
Q 2544 4750 2975 4387 
Q 3406 4025 3406 3419 
Q 3406 3131 3298 2873 
Q 3191 2616 2906 2266 
Q 2828 2175 2409 1742 
Q 1991 1309 1228 531 
z
" id="DejaVuSans-32" transform="scale(0.015625)"/>
       </defs>
       <use xlink:href="#DejaVuSans-32"/>
       <use x="63.623047" xlink:href="#DejaVuSans-30"/>
       <use x="127.246094" xlink:href="#DejaVuSans-30"/>
       <use x="190.869141" xlink:href="#DejaVuSans-30"/>
       <use x="254.492188" xlink:href="#DejaVuSans-30"/>
      </g>
     </g>
    </g>
    <g id="xtick_3">
     <g id="text_3">
      <!-- 40000 -->
      <g style="fill:#262626;" transform="translate(247.287932 636.076563)scale(0.22 -0.22)">
       <defs>
        <path d="M 2419 4116 
L 825 1625 
L 2419 1625 
L 2419 4116 
z
M 2253 4666 
L 3047 4666 
L 3047 1625 
L 3713 1625 
L 3713 1100 
L 3047 1100 
L 3047 0 
L 2419 0 
L 2419 1100 
L 313 1100 
L 313 1709 
L 2253 4666 
z
" id="DejaVuSans-34" transform="scale(0.015625)"/>
       </defs>
       <use xlink:href="#DejaVuSans-34"/>
       <use x="63.623047" xlink:href="#DejaVuSans-30"/>
       <use x="127.246094" xlink:href="#DejaVuSans-30"/>
       <use x="190.869141" xlink:href="#DejaVuSans-30"/>
       <use x="254.492188" xlink:href="#DejaVuSans-30"/>
      </g>
     </g>
    </g>
    <g id="xtick_4">
     <g id="text_4">
      <!-- 60000 -->
      <g style="fill:#262626;" transform="translate(335.109193 636.076563)scale(0.22 -0.22)">
       <defs>
        <path d="M 2113 2584 
Q 1688 2584 1439 2293 
Q 1191 2003 1191 1497 
Q 1191 994 1439 701 
Q 1688 409 2113 409 
Q 2538 409 2786 701 
Q 3034 994 3034 1497 
Q 3034 2003 2786 2293 
Q 2538 2584 2113 2584 
z
M 3366 4563 
L 3366 3988 
Q 3128 4100 2886 4159 
Q 2644 4219 2406 4219 
Q 1781 4219 1451 3797 
Q 1122 3375 1075 2522 
Q 1259 2794 1537 2939 
Q 1816 3084 2150 3084 
Q 2853 3084 3261 2657 
Q 3669 2231 3669 1497 
Q 3669 778 3244 343 
Q 2819 -91 2113 -91 
Q 1303 -91 875 529 
Q 447 1150 447 2328 
Q 447 3434 972 4092 
Q 1497 4750 2381 4750 
Q 2619 4750 2861 4703 
Q 3103 4656 3366 4563 
z
" id="DejaVuSans-36" transform="scale(0.015625)"/>
       </defs>
       <use xlink:href="#DejaVuSans-36"/>
       <use x="63.623047" xlink:href="#DejaVuSans-30"/>
       <use x="127.246094" xlink:href="#DejaVuSans-30"/>
       <use x="190.869141" xlink:href="#DejaVuSans-30"/>
       <use x="254.492188" xlink:href="#DejaVuSans-30"/>
      </g>
     </g>
    </g>
    <g id="xtick_5">
     <g id="text_5">
      <!-- 80000 -->
      <g style="fill:#262626;" transform="translate(422.930455 636.076563)scale(0.22 -0.22)">
       <defs>
        <path d="M 2034 2216 
Q 1584 2216 1326 1975 
Q 1069 1734 1069 1313 
Q 1069 891 1326 650 
Q 1584 409 2034 409 
Q 2484 409 2743 651 
Q 3003 894 3003 1313 
Q 3003 1734 2745 1975 
Q 2488 2216 2034 2216 
z
M 1403 2484 
Q 997 2584 770 2862 
Q 544 3141 544 3541 
Q 544 4100 942 4425 
Q 1341 4750 2034 4750 
Q 2731 4750 3128 4425 
Q 3525 4100 3525 3541 
Q 3525 3141 3298 2862 
Q 3072 2584 2669 2484 
Q 3125 2378 3379 2068 
Q 3634 1759 3634 1313 
Q 3634 634 3220 271 
Q 2806 -91 2034 -91 
Q 1263 -91 848 271 
Q 434 634 434 1313 
Q 434 1759 690 2068 
Q 947 2378 1403 2484 
z
M 1172 3481 
Q 1172 3119 1398 2916 
Q 1625 2713 2034 2713 
Q 2441 2713 2670 2916 
Q 2900 3119 2900 3481 
Q 2900 3844 2670 4047 
Q 2441 4250 2034 4250 
Q 1625 4250 1398 4047 
Q 1172 3844 1172 3481 
z
" id="DejaVuSans-38" transform="scale(0.015625)"/>
       </defs>
       <use xlink:href="#DejaVuSans-38"/>
       <use x="63.623047" xlink:href="#DejaVuSans-30"/>
       <use x="127.246094" xlink:href="#DejaVuSans-30"/>
       <use x="190.869141" xlink:href="#DejaVuSans-30"/>
       <use x="254.492188" xlink:href="#DejaVuSans-30"/>
      </g>
     </g>
    </g>
    <g id="xtick_6">
     <g id="text_6">
      <!-- 100000 -->
      <g style="fill:#262626;" transform="translate(503.752966 636.076563)scale(0.22 -0.22)">
       <defs>
        <path d="M 794 531 
L 1825 531 
L 1825 4091 
L 703 3866 
L 703 4441 
L 1819 4666 
L 2450 4666 
L 2450 531 
L 3481 531 
L 3481 0 
L 794 0 
L 794 531 
z
" id="DejaVuSans-31" transform="scale(0.015625)"/>
       </defs>
       <use xlink:href="#DejaVuSans-31"/>
       <use x="63.623047" xlink:href="#DejaVuSans-30"/>
       <use x="127.246094" xlink:href="#DejaVuSans-30"/>
       <use x="190.869141" xlink:href="#DejaVuSans-30"/>
       <use x="254.492188" xlink:href="#DejaVuSans-30"/>
       <use x="318.115234" xlink:href="#DejaVuSans-30"/>
      </g>
     </g>
    </g>
    <g id="text_7">
     <!-- MDTU -->
     <g style="fill:#262626;" transform="translate(290.596464 662.888125)scale(0.24 -0.24)">
      <defs>
       <path d="M 628 4666 
L 1569 4666 
L 2759 1491 
L 3956 4666 
L 4897 4666 
L 4897 0 
L 4281 0 
L 4281 4097 
L 3078 897 
L 2444 897 
L 1241 4097 
L 1241 0 
L 628 0 
L 628 4666 
z
" id="DejaVuSans-4d" transform="scale(0.015625)"/>
       <path d="M 1259 4147 
L 1259 519 
L 2022 519 
Q 2988 519 3436 956 
Q 3884 1394 3884 2338 
Q 3884 3275 3436 3711 
Q 2988 4147 2022 4147 
L 1259 4147 
z
M 628 4666 
L 1925 4666 
Q 3281 4666 3915 4102 
Q 4550 3538 4550 2338 
Q 4550 1131 3912 565 
Q 3275 0 1925 0 
L 628 0 
L 628 4666 
z
" id="DejaVuSans-44" transform="scale(0.015625)"/>
       <path d="M -19 4666 
L 3928 4666 
L 3928 4134 
L 2272 4134 
L 2272 0 
L 1638 0 
L 1638 4134 
L -19 4134 
L -19 4666 
z
" id="DejaVuSans-54" transform="scale(0.015625)"/>
       <path d="M 556 4666 
L 1191 4666 
L 1191 1831 
Q 1191 1081 1462 751 
Q 1734 422 2344 422 
Q 2950 422 3222 751 
Q 3494 1081 3494 1831 
L 3494 4666 
L 4128 4666 
L 4128 1753 
Q 4128 841 3676 375 
Q 3225 -91 2344 -91 
Q 1459 -91 1007 375 
Q 556 841 556 1753 
L 556 4666 
z
" id="DejaVuSans-55" transform="scale(0.015625)"/>
      </defs>
      <use xlink:href="#DejaVuSans-4d"/>
      <use x="86.279297" xlink:href="#DejaVuSans-44"/>
      <use x="163.28125" xlink:href="#DejaVuSans-54"/>
      <use x="224.365234" xlink:href="#DejaVuSans-55"/>
     </g>
    </g>
   </g>
   <g id="matplotlib.axis_2">
    <g id="ytick_1">
     <g id="text_8">
      <!-- 0.4 -->
      <g style="fill:#262626;" transform="translate(34.4275 602.027037)scale(0.22 -0.22)">
       <defs>
        <path d="M 684 794 
L 1344 794 
L 1344 0 
L 684 0 
L 684 794 
z
" id="DejaVuSans-2e" transform="scale(0.015625)"/>
       </defs>
       <use xlink:href="#DejaVuSans-30"/>
       <use x="63.623047" xlink:href="#DejaVuSans-2e"/>
       <use x="95.410156" xlink:href="#DejaVuSans-34"/>
      </g>
     </g>
    </g>
    <g id="ytick_2">
     <g id="text_9">
      <!-- 0.5 -->
      <g style="fill:#262626;" transform="translate(34.4275 541.107707)scale(0.22 -0.22)">
       <defs>
        <path d="M 691 4666 
L 3169 4666 
L 3169 4134 
L 1269 4134 
L 1269 2991 
Q 1406 3038 1543 3061 
Q 1681 3084 1819 3084 
Q 2600 3084 3056 2656 
Q 3513 2228 3513 1497 
Q 3513 744 3044 326 
Q 2575 -91 1722 -91 
Q 1428 -91 1123 -41 
Q 819 9 494 109 
L 494 744 
Q 775 591 1075 516 
Q 1375 441 1709 441 
Q 2250 441 2565 725 
Q 2881 1009 2881 1497 
Q 2881 1984 2565 2268 
Q 2250 2553 1709 2553 
Q 1456 2553 1204 2497 
Q 953 2441 691 2322 
L 691 4666 
z
" id="DejaVuSans-35" transform="scale(0.015625)"/>
       </defs>
       <use xlink:href="#DejaVuSans-30"/>
       <use x="63.623047" xlink:href="#DejaVuSans-2e"/>
       <use x="95.410156" xlink:href="#DejaVuSans-35"/>
      </g>
     </g>
    </g>
    <g id="ytick_3">
     <g id="text_10">
      <!-- 0.6 -->
      <g style="fill:#262626;" transform="translate(34.4275 480.188377)scale(0.22 -0.22)">
       <use xlink:href="#DejaVuSans-30"/>
       <use x="63.623047" xlink:href="#DejaVuSans-2e"/>
       <use x="95.410156" xlink:href="#DejaVuSans-36"/>
      </g>
     </g>
    </g>
    <g id="ytick_4">
     <g id="text_11">
      <!-- 0.7 -->
      <g style="fill:#262626;" transform="translate(34.4275 419.269047)scale(0.22 -0.22)">
       <defs>
        <path d="M 525 4666 
L 3525 4666 
L 3525 4397 
L 1831 0 
L 1172 0 
L 2766 4134 
L 525 4134 
L 525 4666 
z
" id="DejaVuSans-37" transform="scale(0.015625)"/>
       </defs>
       <use xlink:href="#DejaVuSans-30"/>
       <use x="63.623047" xlink:href="#DejaVuSans-2e"/>
       <use x="95.410156" xlink:href="#DejaVuSans-37"/>
      </g>
     </g>
    </g>
    <g id="ytick_5">
     <g id="text_12">
      <!-- 0.8 -->
      <g style="fill:#262626;" transform="translate(34.4275 358.349717)scale(0.22 -0.22)">
       <use xlink:href="#DejaVuSans-30"/>
       <use x="63.623047" xlink:href="#DejaVuSans-2e"/>
       <use x="95.410156" xlink:href="#DejaVuSans-38"/>
      </g>
     </g>
    </g>
    <g id="ytick_6">
     <g id="text_13">
      <!-- 0.9 -->
      <g style="fill:#262626;" transform="translate(34.4275 297.430387)scale(0.22 -0.22)">
       <defs>
        <path d="M 703 97 
L 703 672 
Q 941 559 1184 500 
Q 1428 441 1663 441 
Q 2288 441 2617 861 
Q 2947 1281 2994 2138 
Q 2813 1869 2534 1725 
Q 2256 1581 1919 1581 
Q 1219 1581 811 2004 
Q 403 2428 403 3163 
Q 403 3881 828 4315 
Q 1253 4750 1959 4750 
Q 2769 4750 3195 4129 
Q 3622 3509 3622 2328 
Q 3622 1225 3098 567 
Q 2575 -91 1691 -91 
Q 1453 -91 1209 -44 
Q 966 3 703 97 
z
M 1959 2075 
Q 2384 2075 2632 2365 
Q 2881 2656 2881 3163 
Q 2881 3666 2632 3958 
Q 2384 4250 1959 4250 
Q 1534 4250 1286 3958 
Q 1038 3666 1038 3163 
Q 1038 2656 1286 2365 
Q 1534 2075 1959 2075 
z
" id="DejaVuSans-39" transform="scale(0.015625)"/>
       </defs>
       <use xlink:href="#DejaVuSans-30"/>
       <use x="63.623047" xlink:href="#DejaVuSans-2e"/>
       <use x="95.410156" xlink:href="#DejaVuSans-39"/>
      </g>
     </g>
    </g>
    <g id="ytick_7">
     <g id="text_14">
      <!-- 1.0 -->
      <g style="fill:#262626;" transform="translate(34.4275 236.511057)scale(0.22 -0.22)">
       <use xlink:href="#DejaVuSans-31"/>
       <use x="63.623047" xlink:href="#DejaVuSans-2e"/>
       <use x="95.410156" xlink:href="#DejaVuSans-30"/>
      </g>
     </g>
    </g>
    <g id="ytick_8">
     <g id="text_15">
      <!-- 1.1 -->
      <g style="fill:#262626;" transform="translate(34.4275 175.591727)scale(0.22 -0.22)">
       <use xlink:href="#DejaVuSans-31"/>
       <use x="63.623047" xlink:href="#DejaVuSans-2e"/>
       <use x="95.410156" xlink:href="#DejaVuSans-31"/>
      </g>
     </g>
    </g>
    <g id="text_16">
     <!-- $E$ -->
     <g style="fill:#262626;" transform="translate(25.43625 364.352286)rotate(-90)scale(0.24 -0.24)">
      <defs>
       <path d="M 1081 4666 
L 4031 4666 
L 3928 4134 
L 1606 4134 
L 1338 2753 
L 3566 2753 
L 3463 2222 
L 1234 2222 
L 909 531 
L 3284 531 
L 3181 0 
L 172 0 
L 1081 4666 
z
" id="DejaVuSans-Oblique-45" transform="scale(0.015625)"/>
      </defs>
      <use transform="translate(0 0.09375)" xlink:href="#DejaVuSans-Oblique-45"/>
     </g>
    </g>
   </g>
   <g id="line2d_1">
    <path clip-path="url(#pf132172ba5)" d="M 106.858713 399.38271 
L 107.078266 483.997611 
L 107.297819 318.526717 
L 107.517372 360.110781 
L 107.736925 358.276839 
L 107.956478 430.224316 
L 108.176032 245.466785 
L 108.395585 249.792555 
L 108.615138 413.429346 
L 109.054244 485.975074 
L 109.493351 433.346662 
L 109.712904 469.618964 
L 109.932457 477.43919 
L 110.371563 351.732669 
L 110.591116 401.815233 
L 110.810669 345.187894 
L 111.030223 452.480339 
L 111.249776 437.780936 
L 111.469329 485.440029 
L 111.688882 339.357119 
L 111.908435 422.449212 
L 112.127988 311.88961 
L 112.567095 482.653146 
L 112.786648 492.295005 
L 113.225754 344.983104 
L 113.445307 471.641096 
L 113.66486 523.544007 
L 114.103967 432.797634 
L 114.32352 402.630833 
L 114.543073 437.813497 
L 114.762626 413.334236 
L 114.982179 475.710705 
L 115.201732 424.921504 
L 115.421286 491.459356 
L 115.640839 492.06652 
L 116.079945 310.595902 
L 116.299498 475.118147 
L 116.519051 272.185107 
L 116.958158 504.637855 
L 117.177711 446.327522 
L 117.397264 353.531012 
L 117.616817 487.94537 
L 117.83637 418.156085 
L 118.055923 396.922715 
L 118.275477 470.493365 
L 118.49503 468.657422 
L 118.714583 305.331033 
L 118.934136 320.275383 
L 119.153689 429.1028 
L 119.373242 358.104016 
L 119.592796 468.941615 
L 119.812349 400.799601 
L 120.031902 441.952972 
L 120.251455 433.391204 
L 120.471008 429.457751 
L 120.690561 382.421562 
L 121.129668 406.419003 
L 121.349221 457.479052 
L 121.568774 382.140269 
L 121.788327 429.494452 
L 122.00788 424.314211 
L 122.227433 430.134569 
L 122.446987 439.53936 
L 122.66654 415.11822 
L 122.886093 350.502377 
L 123.105646 389.612912 
L 123.325199 372.17758 
L 123.544752 453.926029 
L 123.764305 463.98375 
L 123.983859 283.442539 
L 124.422965 477.469613 
L 124.642518 470.86997 
L 124.862071 299.878261 
L 125.081624 411.592227 
L 125.301178 415.480498 
L 125.520731 490.416139 
L 125.740284 456.122091 
L 125.959837 455.32333 
L 126.17939 416.369193 
L 126.398943 420.262947 
L 126.618496 444.954339 
L 126.83805 315.756 
L 127.057603 372.425075 
L 127.277156 535.385362 
L 127.935815 318.796953 
L 128.155369 414.81997 
L 128.374922 327.728373 
L 128.594475 317.04208 
L 128.814028 420.094974 
L 129.033581 439.125743 
L 129.253134 539.02728 
L 130.131347 371.756414 
L 130.3509 337.177367 
L 130.570453 420.214375 
L 130.790006 401.416341 
L 131.00956 281.145797 
L 131.229113 419.147863 
L 131.448666 422.399984 
L 131.668219 400.349655 
L 131.887772 413.153169 
L 132.107325 284.388931 
L 132.326878 440.311608 
L 132.546432 401.534099 
L 132.765985 406.834506 
L 132.985538 431.713314 
L 133.205091 310.936016 
L 133.424644 270.809072 
L 133.644197 274.591298 
L 134.302857 498.304051 
L 134.52241 253.814728 
L 134.961516 464.470197 
L 135.181069 314.300313 
L 135.400623 478.965213 
L 135.620176 485.843938 
L 135.839729 476.37707 
L 136.059282 441.583813 
L 136.498388 346.223798 
L 136.937495 558.930169 
L 137.157048 367.539757 
L 137.376601 447.709763 
L 137.596154 430.724139 
L 138.03526 472.573894 
L 138.254814 428.53408 
L 138.474367 472.5538 
L 138.69392 426.433468 
L 138.913473 410.421767 
L 139.133026 438.525098 
L 139.352579 395.44775 
L 139.572132 514.515222 
L 139.791686 406.559577 
L 140.011239 413.553895 
L 140.230792 344.339027 
L 140.450345 480.532581 
L 140.669898 327.584185 
L 140.889451 343.594562 
L 141.109005 508.68282 
L 141.328558 511.4691 
L 141.548111 483.629502 
L 141.767664 377.042687 
L 141.987217 512.125337 
L 142.20677 451.504115 
L 142.426323 493.817322 
L 142.645877 377.05027 
L 142.86543 508.143608 
L 143.084983 524.810057 
L 143.304536 393.630999 
L 143.524089 336.355974 
L 143.743642 425.046248 
L 143.963196 369.82905 
L 144.182749 398.131829 
L 144.402302 503.629385 
L 144.621855 262.338528 
L 144.841408 396.774054 
L 145.060961 290.813424 
L 145.280514 461.582027 
L 145.500068 410.477017 
L 145.719621 330.313478 
L 146.158727 433.442879 
L 146.37828 291.464122 
L 146.597833 481.229335 
L 147.03694 346.386648 
L 147.256493 482.516812 
L 147.695599 410.387312 
L 147.915152 517.34449 
L 148.134705 363.457238 
L 148.354259 410.841806 
L 148.573812 428.368822 
L 148.793365 379.690849 
L 149.012918 407.926888 
L 149.232471 458.532657 
L 149.452024 407.301698 
L 149.671578 508.402051 
L 149.891131 517.669619 
L 150.330237 330.567525 
L 150.54979 389.160398 
L 150.769343 360.992394 
L 150.988896 413.137657 
L 151.20845 399.54266 
L 151.428003 261.494075 
L 151.647556 508.341255 
L 151.867109 436.810708 
L 152.086662 419.667747 
L 152.306215 444.013087 
L 152.525769 393.611089 
L 152.964875 443.202397 
L 153.184428 309.36127 
L 153.403981 418.236188 
L 153.623534 410.067582 
L 153.843087 412.302312 
L 154.062641 357.400805 
L 154.282194 398.993552 
L 154.501747 349.646643 
L 154.7213 422.120803 
L 154.940853 376.157891 
L 155.160406 379.287431 
L 155.37996 484.703649 
L 155.599513 382.93363 
L 155.819066 392.660728 
L 156.038619 255.397305 
L 156.258172 413.167071 
L 156.477725 379.410657 
L 156.697278 425.268684 
L 156.916832 442.149953 
L 157.136385 346.139173 
L 157.355938 375.655227 
L 157.575491 369.977258 
L 157.795044 377.584067 
L 158.014597 453.90843 
L 158.453704 372.718373 
L 158.673257 432.735127 
L 158.89281 384.264649 
L 159.112363 283.154533 
L 159.331916 442.008309 
L 159.551469 470.017907 
L 159.771023 436.256084 
L 159.990576 330.747459 
L 160.210129 428.533318 
L 160.429682 403.66636 
L 160.649235 347.387602 
L 160.868788 451.590906 
L 161.088342 363.545178 
L 161.527448 450.037788 
L 161.747001 356.130486 
L 161.966554 514.111836 
L 162.186107 253.234981 
L 162.40566 448.165911 
L 162.625214 391.011055 
L 162.844767 414.723509 
L 163.06432 392.656666 
L 163.283873 411.477849 
L 163.503426 533.069348 
L 163.722979 301.423689 
L 164.162086 423.114343 
L 164.381639 458.541722 
L 164.601192 381.136344 
L 164.820745 260.89818 
L 165.259851 492.933116 
L 165.479405 518.566585 
L 165.698958 490.164829 
L 165.918511 363.678806 
L 166.138064 392.654326 
L 166.357617 295.730702 
L 166.57717 422.088925 
L 166.796723 304.876495 
L 167.016277 356.920588 
L 167.23583 443.190242 
L 167.455383 418.539823 
L 167.674936 233.126626 
L 167.894489 309.861412 
L 168.114042 446.299489 
L 168.333596 298.240757 
L 168.553149 300.63615 
L 168.772702 361.851273 
L 168.992255 283.753505 
L 169.211808 481.542585 
L 169.431361 517.517841 
L 169.650914 342.213389 
L 169.870468 417.130141 
L 170.090021 167.258717 
L 170.309574 337.053026 
L 170.529127 402.946574 
L 170.74868 266.066309 
L 170.968233 313.775048 
L 171.187787 389.602906 
L 171.40734 325.022278 
L 171.626893 320.920693 
L 172.065999 399.977757 
L 172.285552 390.143026 
L 172.505105 395.72827 
L 172.724659 371.139519 
L 173.163765 502.409273 
L 173.602871 443.083275 
L 174.041978 352.039118 
L 174.481084 469.753769 
L 174.700637 500.627485 
L 174.92019 479.917323 
L 175.139743 383.76179 
L 175.359296 443.673433 
L 175.57885 415.940803 
L 175.798403 446.659953 
L 176.017956 257.85675 
L 176.237509 331.049237 
L 176.457062 455.694179 
L 176.676615 484.645565 
L 176.896169 413.488567 
L 177.115722 471.363341 
L 177.335275 473.022474 
L 177.554828 396.752819 
L 177.774381 461.242076 
L 177.993934 481.085573 
L 178.213487 389.452814 
L 178.433041 476.448815 
L 178.652594 452.78422 
L 178.872147 504.643497 
L 179.530806 330.350031 
L 179.75036 541.772224 
L 179.969913 439.309794 
L 180.189466 421.900064 
L 180.409019 465.604615 
L 180.628572 455.696843 
L 180.848125 400.173552 
L 181.067678 511.342914 
L 181.287232 387.010128 
L 181.506785 378.256202 
L 181.945891 529.55164 
L 182.165444 374.07992 
L 182.604551 487.614512 
L 182.824104 480.964976 
L 183.043657 330.34378 
L 183.26321 502.523922 
L 183.482763 312.184704 
L 183.702316 313.371616 
L 183.921869 438.860511 
L 184.141423 312.497877 
L 184.360976 383.358923 
L 184.580529 505.661424 
L 184.800082 505.703664 
L 185.019635 509.547645 
L 185.239188 303.510716 
L 185.458742 419.617098 
L 185.678295 409.927243 
L 185.897848 448.611612 
L 186.117401 446.917522 
L 186.556507 408.472584 
L 186.77606 327.431772 
L 186.995614 558.095713 
L 187.215167 329.90535 
L 187.43472 347.457874 
L 187.654273 402.312432 
L 187.873826 416.88547 
L 188.093379 409.394891 
L 188.312932 504.01745 
L 188.532486 328.349093 
L 188.752039 267.742325 
L 188.971592 402.935912 
L 189.410698 351.069907 
L 189.630251 482.702694 
L 189.849805 426.86485 
L 190.069358 521.825266 
L 190.288911 421.893106 
L 190.508464 491.470331 
L 190.728017 372.932471 
L 190.94757 384.20036 
L 191.167123 416.837848 
L 191.386677 419.017339 
L 191.60623 381.294853 
L 191.825783 365.691352 
L 192.045336 451.237201 
L 192.264889 390.55576 
L 192.484442 458.212177 
L 192.703996 432.66479 
L 192.923549 438.189493 
L 193.143102 401.081469 
L 193.362655 401.114544 
L 193.582208 307.12534 
L 193.801761 424.419048 
L 194.021314 458.656112 
L 194.460421 350.06178 
L 194.679974 374.859496 
L 194.899527 314.131267 
L 195.11908 457.20243 
L 195.338633 376.128198 
L 195.558187 385.775143 
L 195.77774 466.582336 
L 195.997293 433.38107 
L 196.216846 438.893001 
L 196.436399 496.136244 
L 196.655952 287.991678 
L 196.875505 337.569415 
L 197.095059 313.347517 
L 197.534165 425.921141 
L 197.753718 423.871109 
L 197.973271 463.861561 
L 198.192824 476.50455 
L 198.412378 388.896755 
L 198.631931 460.534074 
L 198.851484 491.236351 
L 199.071037 397.121034 
L 199.29059 383.366011 
L 199.510143 444.777248 
L 199.729696 441.006874 
L 199.94925 515.813533 
L 200.168803 409.561405 
L 200.388356 381.02016 
L 200.607909 461.646724 
L 200.827462 450.415171 
L 201.047015 475.659405 
L 201.266569 370.461316 
L 201.486122 404.597615 
L 201.705675 289.91889 
L 202.144781 493.717217 
L 202.364334 408.297824 
L 202.583887 513.804865 
L 202.803441 447.759221 
L 203.022994 499.548551 
L 203.242547 387.973781 
L 203.4621 385.516598 
L 203.681653 291.112603 
L 203.901206 444.457418 
L 204.12076 224.153072 
L 204.559866 539.90509 
L 204.779419 482.675048 
L 204.998972 487.177714 
L 205.438078 329.026455 
L 205.657632 484.089097 
L 205.877185 488.10207 
L 206.096738 430.920371 
L 206.316291 482.022852 
L 206.535844 442.627415 
L 206.755397 379.442916 
L 206.974951 413.555066 
L 207.194504 387.235944 
L 207.414057 330.254723 
L 207.63361 444.986748 
L 207.853163 398.482256 
L 208.072716 381.882375 
L 208.292269 385.121723 
L 208.511823 341.911312 
L 208.731376 322.685412 
L 209.170482 461.293184 
L 209.390035 501.867024 
L 209.609588 384.467071 
L 209.829142 442.96101 
L 210.048695 363.537104 
L 210.268248 411.79877 
L 210.487801 424.115826 
L 210.707354 413.054697 
L 210.926907 501.552565 
L 211.14646 362.107595 
L 211.366014 485.703511 
L 211.80512 347.288415 
L 212.024673 396.840207 
L 212.244226 349.152451 
L 212.463779 402.16545 
L 212.683333 403.676342 
L 212.902886 338.325511 
L 213.122439 340.91319 
L 213.341992 441.614726 
L 213.561545 357.607076 
L 213.781098 388.82432 
L 214.000651 464.592097 
L 214.220205 330.773212 
L 214.439758 272.712149 
L 214.659311 336.305184 
L 214.878864 441.99903 
L 215.098417 407.175095 
L 215.31797 439.682585 
L 215.537523 405.822331 
L 215.97663 504.093153 
L 216.196183 472.796025 
L 216.415736 377.737413 
L 216.635289 445.890451 
L 216.854842 452.351161 
L 217.074396 452.980111 
L 217.293949 389.918317 
L 217.513502 523.443022 
L 217.733055 518.959372 
L 218.172161 416.938456 
L 218.391714 418.669865 
L 218.611268 425.267451 
L 219.050374 491.341892 
L 219.269927 451.093171 
L 219.48948 388.29955 
L 219.709033 501.549032 
L 219.928587 500.72842 
L 220.14814 491.005201 
L 220.367693 442.950467 
L 220.587246 314.029258 
L 220.806799 435.875372 
L 221.026352 363.047364 
L 221.245905 420.388903 
L 221.465459 359.33263 
L 221.685012 369.957348 
L 221.904565 368.286156 
L 222.124118 469.262124 
L 222.343671 395.113053 
L 222.563224 398.691559 
L 222.782778 427.157791 
L 223.002331 483.762874 
L 223.221884 503.974958 
L 223.66099 337.305547 
L 223.880543 326.928994 
L 224.100096 456.839677 
L 224.31965 449.115034 
L 224.539203 449.988542 
L 224.758756 339.96607 
L 224.978309 367.973284 
L 225.197862 416.908602 
L 225.636969 339.268396 
L 225.856522 336.577188 
L 226.076075 461.795815 
L 226.295628 372.805142 
L 226.954287 487.982427 
L 227.173841 449.202587 
L 227.612947 489.587038 
L 227.8325 251.886743 
L 228.052053 492.398355 
L 228.271606 364.060467 
L 228.49116 390.491539 
L 228.710713 517.624488 
L 228.930266 485.939903 
L 229.149819 415.482904 
L 229.369372 180.854461 
L 229.808478 391.149705 
L 230.028032 368.028912 
L 230.247585 272.389299 
L 230.467138 491.117233 
L 230.686691 392.324854 
L 230.906244 467.007256 
L 231.125797 392.778544 
L 231.345351 431.880235 
L 231.564904 356.891872 
L 232.00401 485.806149 
L 232.223563 389.188731 
L 232.443116 371.794651 
L 232.662669 390.895702 
L 232.882223 531.175339 
L 233.101776 321.58117 
L 233.321329 416.168117 
L 233.540882 293.21445 
L 233.760435 362.440726 
L 233.979988 364.820746 
L 234.199542 495.495701 
L 234.638648 377.228528 
L 234.858201 384.341366 
L 235.077754 369.330825 
L 235.51686 557.548736 
L 235.736414 350.309766 
L 236.17552 422.254269 
L 236.395073 441.611899 
L 236.614626 476.298524 
L 236.834179 435.803377 
L 237.053733 442.727012 
L 237.273286 431.739798 
L 237.492839 539.958709 
L 237.712392 281.302987 
L 237.931945 460.790175 
L 238.151498 461.70644 
L 238.371051 453.032886 
L 238.590605 331.147233 
L 239.029711 452.390508 
L 239.249264 437.780802 
L 239.468817 409.505517 
L 239.68837 399.194788 
L 239.907924 460.977787 
L 240.127477 255.184647 
L 240.34703 441.293449 
L 240.566583 437.473249 
L 240.786136 518.425143 
L 241.005689 431.529118 
L 241.225242 409.110833 
L 241.664349 317.124014 
L 241.883902 422.170901 
L 242.103455 441.459618 
L 242.542561 325.148804 
L 242.762114 365.126949 
L 242.981668 324.951027 
L 243.201221 471.727758 
L 243.420774 373.827684 
L 243.640327 404.852179 
L 243.85988 401.039585 
L 244.079433 399.672002 
L 244.298987 363.879182 
L 244.51854 490.364012 
L 244.738093 523.99161 
L 244.957646 394.537375 
L 245.177199 407.233984 
L 245.396752 336.468837 
L 245.616305 427.122106 
L 245.835859 424.745151 
L 246.055412 317.438621 
L 246.274965 448.128934 
L 246.494518 455.136683 
L 246.714071 351.307077 
L 246.933624 423.452794 
L 247.153178 309.316619 
L 247.372731 311.149297 
L 247.592284 486.568072 
L 247.811837 299.310306 
L 248.03139 452.106544 
L 248.250943 373.7529 
L 248.470496 384.723117 
L 248.69005 464.796039 
L 248.909603 484.798856 
L 249.129156 361.346404 
L 249.348709 471.619146 
L 249.568262 476.623334 
L 249.787815 379.318935 
L 250.007369 390.448694 
L 250.226922 366.447393 
L 250.446475 489.513173 
L 250.666028 413.601751 
L 250.885581 469.521876 
L 251.105134 442.148065 
L 251.324687 439.766713 
L 251.544241 465.943796 
L 251.763794 468.040018 
L 251.983347 302.395141 
L 252.422453 451.043437 
L 252.642006 482.729147 
L 252.86156 393.406339 
L 253.081113 406.443565 
L 253.300666 480.258374 
L 253.520219 394.369569 
L 253.739772 499.760492 
L 253.959325 518.655497 
L 254.398432 422.260191 
L 254.617985 283.620307 
L 254.837538 500.791782 
L 255.057091 555.596384 
L 255.276644 513.952536 
L 255.715751 403.039542 
L 255.935304 420.449205 
L 256.154857 418.623552 
L 256.37441 301.042081 
L 256.593963 426.692668 
L 256.813516 378.685631 
L 257.033069 444.707373 
L 257.252623 447.061587 
L 257.472176 439.577243 
L 257.691729 522.939164 
L 257.911282 398.239269 
L 258.130835 413.758801 
L 258.350388 503.316452 
L 258.569942 402.93214 
L 258.789495 498.615704 
L 259.009048 337.500271 
L 259.228601 402.469064 
L 259.448154 293.957576 
L 259.667707 337.554532 
L 259.88726 300.561742 
L 260.106814 427.664803 
L 260.326367 481.755597 
L 260.54592 472.300565 
L 260.765473 449.632263 
L 261.204579 343.14449 
L 261.424133 397.324132 
L 261.643686 319.397016 
L 261.863239 363.357265 
L 262.082792 535.201219 
L 262.521898 269.583058 
L 262.741451 529.462768 
L 262.961005 368.913698 
L 263.180558 504.971029 
L 263.400111 487.878676 
L 263.619664 357.81365 
L 263.839217 568.403791 
L 264.05877 443.73641 
L 264.278324 524.744636 
L 264.71743 280.154054 
L 264.936983 406.049689 
L 265.156536 433.231606 
L 265.376089 350.582132 
L 265.595642 376.706656 
L 265.815196 382.404093 
L 266.034749 501.941749 
L 266.254302 387.796013 
L 266.473855 434.330301 
L 266.693408 405.956183 
L 266.912961 466.761144 
L 267.132514 318.249018 
L 267.352068 255.035271 
L 267.571621 439.320535 
L 267.791174 389.33196 
L 268.010727 307.966238 
L 268.23028 464.453947 
L 268.669387 301.218676 
L 268.88894 391.665066 
L 269.108493 297.718245 
L 269.328046 402.235257 
L 269.547599 315.953462 
L 269.767152 391.522955 
L 269.986705 411.136081 
L 270.206259 417.285672 
L 270.425812 412.409836 
L 270.645365 404.593772 
L 270.864918 454.489235 
L 271.084471 383.743635 
L 271.304024 377.906869 
L 271.523578 397.993963 
L 271.743131 458.250555 
L 271.962684 349.412355 
L 272.182237 489.229214 
L 272.40179 360.294598 
L 272.621343 411.790472 
L 272.840896 363.27589 
L 273.06045 342.652385 
L 273.280003 392.365669 
L 273.499556 384.580978 
L 273.719109 434.914373 
L 273.938662 349.192531 
L 274.158215 418.424018 
L 274.377769 356.844441 
L 274.597322 364.73884 
L 274.816875 427.670897 
L 275.036428 387.147215 
L 275.695087 474.053853 
L 275.914641 471.702146 
L 276.134194 375.239965 
L 276.353747 330.330184 
L 276.5733 472.152695 
L 276.792853 453.824067 
L 277.012406 387.841936 
L 277.23196 441.551117 
L 277.451513 396.563382 
L 277.671066 461.63975 
L 278.110172 382.217837 
L 278.549278 581.38839 
L 278.768832 369.964593 
L 278.988385 513.687101 
L 279.207938 480.076704 
L 279.427491 425.257809 
L 279.647044 494.221407 
L 280.086151 375.639572 
L 280.305704 488.66837 
L 280.525257 502.990286 
L 280.74481 392.989677 
L 280.964363 370.919788 
L 281.183916 498.373207 
L 281.403469 371.576088 
L 281.842576 486.110301 
L 282.062129 527.916871 
L 282.940342 359.373829 
L 283.159895 368.075931 
L 283.379448 433.959042 
L 283.599001 363.374393 
L 283.818554 348.482631 
L 284.038107 239.590611 
L 284.25766 231.482558 
L 284.477214 355.046795 
L 284.696767 306.340942 
L 284.91632 505.119585 
L 285.135873 329.271253 
L 285.574979 497.991804 
L 285.794533 397.357236 
L 286.014086 473.899746 
L 286.233639 494.67591 
L 286.453192 362.279063 
L 286.672745 375.098899 
L 286.892298 378.597427 
L 287.111851 311.945053 
L 287.331405 515.396901 
L 287.550958 510.373692 
L 287.770511 341.153468 
L 287.990064 511.731554 
L 288.209617 392.270536 
L 288.42917 350.143963 
L 288.868277 434.97083 
L 289.307383 377.67399 
L 289.526936 515.389771 
L 289.746489 355.640359 
L 289.966042 346.145097 
L 290.185596 496.399513 
L 290.405149 326.163679 
L 290.624702 545.604468 
L 290.844255 317.83137 
L 291.063808 338.934578 
L 291.502915 517.16484 
L 291.942021 367.344013 
L 292.161574 484.94066 
L 292.381127 433.107854 
L 292.60068 477.056279 
L 292.820233 354.985166 
L 293.25934 459.935173 
L 293.478893 320.939856 
L 293.698446 460.174076 
L 293.917999 253.615356 
L 294.137552 460.485221 
L 294.357105 466.954742 
L 294.576659 399.380287 
L 294.796212 473.333977 
L 295.015765 456.926339 
L 295.235318 494.910745 
L 295.454871 369.961293 
L 295.674424 452.060826 
L 295.893978 383.013314 
L 296.113531 525.051169 
L 296.333084 437.669878 
L 296.552637 474.820861 
L 296.77219 400.32404 
L 296.991743 456.4205 
L 297.211296 276.070741 
L 297.43085 377.156813 
L 297.650403 352.137466 
L 297.869956 255.263894 
L 298.309062 444.395058 
L 298.528615 415.109003 
L 298.748169 460.0084 
L 298.967722 362.933341 
L 299.187275 468.596918 
L 299.406828 363.418021 
L 299.626381 488.68845 
L 300.065487 369.310586 
L 300.285041 347.551696 
L 300.504594 422.483045 
L 300.724147 439.953118 
L 300.9437 326.576921 
L 301.163253 420.407093 
L 301.382806 423.129372 
L 301.60236 336.319199 
L 301.821913 458.372569 
L 302.041466 398.75276 
L 302.261019 409.771754 
L 302.480572 484.534162 
L 302.700125 475.821016 
L 302.919678 503.849552 
L 303.139232 364.145838 
L 303.358785 314.542645 
L 303.578338 457.5659 
L 303.797891 466.275052 
L 304.017444 393.852559 
L 304.236997 446.586385 
L 304.456551 396.39626 
L 304.676104 437.38659 
L 304.895657 403.395276 
L 305.11521 390.866322 
L 305.334763 442.419875 
L 305.554316 442.029833 
L 305.773869 526.356894 
L 305.993423 236.191494 
L 306.212976 332.269959 
L 306.432529 342.795404 
L 306.652082 409.213741 
L 306.871635 230.010881 
L 307.310742 383.54103 
L 307.530295 283.238741 
L 307.969401 432.060338 
L 308.188954 361.981363 
L 308.408507 489.014159 
L 308.62806 529.186999 
L 308.847614 401.188402 
L 309.067167 463.426145 
L 309.28672 440.675049 
L 309.506273 526.041498 
L 309.725826 328.295228 
L 309.945379 418.492932 
L 310.164933 437.44594 
L 310.384486 442.270237 
L 310.604039 402.72314 
L 310.823592 402.707147 
L 311.043145 412.737733 
L 311.262698 388.634043 
L 311.482251 399.284151 
L 311.701805 309.815361 
L 311.921358 460.220348 
L 312.140911 330.414253 
L 312.79957 501.658517 
L 313.019124 355.788815 
L 313.45823 486.577871 
L 313.677783 367.451053 
L 313.897336 515.779961 
L 314.116889 346.029653 
L 314.336442 374.525881 
L 314.555996 377.531583 
L 314.775549 326.282483 
L 314.995102 424.37752 
L 315.214655 348.89596 
L 315.434208 410.23182 
L 315.653761 271.303492 
L 315.873315 417.107257 
L 316.092868 222.384752 
L 316.312421 482.089946 
L 316.531974 486.498581 
L 316.751527 514.296872 
L 316.97108 446.999642 
L 317.190633 426.51083 
L 317.410187 423.66534 
L 317.62974 342.436815 
L 317.849293 393.097218 
L 318.068846 550.868226 
L 318.727506 409.349445 
L 319.166612 376.23927 
L 319.386165 470.704109 
L 319.605718 486.258525 
L 319.825271 336.431552 
L 320.044824 501.242148 
L 320.264378 406.501373 
L 320.483931 394.945253 
L 320.703484 254.029523 
L 320.923037 461.04321 
L 321.362143 497.073844 
L 321.581696 393.96952 
L 321.80125 431.117036 
L 322.020803 449.228639 
L 322.240356 482.910968 
L 322.459909 387.922708 
L 322.679462 418.138828 
L 322.899015 326.945387 
L 323.118569 288.72815 
L 323.557675 445.55636 
L 323.777228 389.994164 
L 323.996781 472.938508 
L 324.435887 393.102052 
L 324.655441 489.652146 
L 324.874994 371.782671 
L 325.094547 402.481311 
L 325.3141 370.461986 
L 325.533653 478.336751 
L 325.753206 369.193339 
L 325.97276 329.725483 
L 326.192313 348.285505 
L 326.411866 351.452156 
L 326.631419 460.488092 
L 326.850972 479.015806 
L 327.070525 452.556517 
L 327.290078 458.393393 
L 327.729185 363.43133 
L 327.948738 370.558863 
L 328.168291 230.336033 
L 328.387844 433.640442 
L 328.607397 453.5131 
L 328.826951 404.266882 
L 329.046504 313.800239 
L 329.266057 453.057579 
L 329.48561 511.763122 
L 329.705163 246.582864 
L 329.924716 493.786828 
L 330.583376 295.61531 
L 330.802929 482.924196 
L 331.022482 320.042806 
L 331.242035 411.45056 
L 331.461588 409.867829 
L 331.681142 514.213617 
L 331.900695 488.905416 
L 332.339801 366.620908 
L 332.559354 498.790731 
L 332.778907 378.435559 
L 332.99846 361.056603 
L 333.218014 471.236828 
L 333.437567 274.670561 
L 333.65712 425.637482 
L 333.876673 472.718883 
L 334.096226 341.39318 
L 334.535333 446.828563 
L 334.754886 131.956182 
L 335.193992 453.290968 
L 335.413545 468.524989 
L 335.633098 368.424259 
L 335.852651 462.492237 
L 336.072205 296.290223 
L 336.291758 396.168216 
L 336.511311 421.099448 
L 336.730864 412.692389 
L 337.16997 515.571667 
L 337.389524 356.48114 
L 337.609077 469.871915 
L 337.82863 473.878434 
L 338.048183 464.359541 
L 338.267736 394.826662 
L 338.487289 412.928687 
L 338.706842 346.911606 
L 338.926396 496.075687 
L 339.145949 332.342849 
L 339.365502 528.473142 
L 339.585055 379.332029 
L 339.804608 508.51915 
L 340.024161 440.086428 
L 340.243715 489.209067 
L 340.463268 357.885224 
L 340.682821 435.331012 
L 340.902374 366.790347 
L 341.121927 447.636777 
L 341.34148 384.13398 
L 341.561033 419.535473 
L 341.780587 281.057964 
L 342.00014 421.976688 
L 342.219693 444.248551 
L 342.439246 437.166692 
L 342.658799 387.379841 
L 342.878352 470.652307 
L 343.097906 421.62411 
L 343.317459 486.711074 
L 343.537012 383.88326 
L 343.756565 495.42383 
L 344.195671 314.417705 
L 344.415224 486.36833 
L 344.634778 314.257389 
L 344.854331 403.486021 
L 345.073884 409.418271 
L 345.293437 435.729293 
L 345.51299 384.467999 
L 345.732543 496.472939 
L 345.952096 462.914954 
L 346.17165 398.410325 
L 346.391203 453.139356 
L 346.830309 465.819232 
L 347.049862 397.959492 
L 347.269415 439.62729 
L 347.488969 375.559017 
L 347.708522 440.895767 
L 347.928075 386.95642 
L 348.147628 488.301888 
L 348.367181 371.155678 
L 348.586734 459.278406 
L 348.806287 454.234098 
L 349.025841 356.17477 
L 349.245394 415.722292 
L 349.464947 396.787736 
L 349.6845 483.972241 
L 350.123606 396.452045 
L 350.34316 416.242505 
L 350.562713 408.485334 
L 350.782266 454.339895 
L 351.001819 458.017973 
L 351.221372 395.651381 
L 351.440925 433.195057 
L 351.660478 376.165028 
L 351.880032 260.039559 
L 352.099585 424.925177 
L 352.319138 417.088525 
L 352.538691 415.997301 
L 352.758244 453.150905 
L 352.977797 395.335059 
L 353.197351 391.884768 
L 353.416904 422.670151 
L 353.636457 479.761733 
L 353.85601 439.604578 
L 354.075563 464.795773 
L 354.295116 436.837551 
L 354.514669 468.243457 
L 354.734223 524.322063 
L 354.953776 365.19182 
L 355.173329 393.429326 
L 355.392882 391.651961 
L 355.612435 417.358608 
L 355.831988 412.277684 
L 356.051542 396.11493 
L 356.271095 363.83447 
L 356.490648 312.385443 
L 356.710201 393.412509 
L 357.149307 469.714412 
L 357.36886 442.087121 
L 357.588414 399.052858 
L 357.807967 505.810274 
L 358.02752 374.349158 
L 358.247073 450.573744 
L 358.466626 402.495752 
L 358.686179 428.168169 
L 358.905733 305.918273 
L 359.125286 507.94904 
L 359.564392 321.950176 
L 359.783945 443.246357 
L 360.003498 367.436065 
L 360.223051 370.331895 
L 360.442605 437.536646 
L 360.662158 389.085684 
L 360.881711 454.10041 
L 361.101264 399.218047 
L 361.320817 388.42973 
L 361.54037 419.792857 
L 361.759924 363.007966 
L 361.979477 412.137768 
L 362.19903 356.108917 
L 362.418583 370.877659 
L 362.638136 452.331289 
L 362.857689 388.540651 
L 363.077242 505.169312 
L 363.296796 371.254402 
L 363.516349 393.151447 
L 363.735902 433.619837 
L 363.955455 350.898009 
L 364.175008 520.020738 
L 364.394561 318.623787 
L 364.614115 302.751831 
L 364.833668 506.244878 
L 365.053221 280.912199 
L 365.272774 425.072282 
L 365.492327 479.061487 
L 365.71188 375.995375 
L 366.150987 485.175303 
L 366.37054 315.816209 
L 366.590093 411.730945 
L 366.809646 434.407458 
L 367.029199 387.282648 
L 367.248752 396.676221 
L 367.468306 471.710647 
L 367.687859 412.181149 
L 367.907412 306.884333 
L 368.126965 329.40977 
L 368.346518 503.680504 
L 368.785624 433.629856 
L 369.005178 337.093438 
L 369.224731 436.596102 
L 369.444284 431.46112 
L 369.663837 322.258571 
L 369.88339 268.857623 
L 370.102943 427.871979 
L 370.322497 409.929314 
L 370.761603 441.050156 
L 370.981156 526.991937 
L 371.200709 453.795872 
L 371.420262 323.682969 
L 371.859369 436.874609 
L 372.078922 475.477259 
L 372.298475 378.066132 
L 372.518028 410.513987 
L 372.737581 374.396371 
L 372.957134 428.231328 
L 373.176687 395.284733 
L 373.396241 458.461423 
L 373.615794 447.089432 
L 373.835347 395.920135 
L 374.0549 444.090651 
L 374.274453 421.279375 
L 374.494006 532.016591 
L 374.71356 468.809152 
L 374.933113 352.432795 
L 375.152666 454.939676 
L 375.372219 498.111881 
L 375.811325 442.750299 
L 376.030878 380.094736 
L 376.250432 365.709373 
L 376.469985 451.739035 
L 376.689538 439.746348 
L 376.909091 495.78719 
L 377.128644 447.244199 
L 377.348197 364.812952 
L 377.567751 498.232833 
L 377.787304 431.306482 
L 378.006857 435.995993 
L 378.22641 250.838403 
L 378.445963 424.884021 
L 378.665516 262.050279 
L 379.104623 476.263981 
L 379.324176 426.520283 
L 379.543729 421.874986 
L 379.763282 523.054305 
L 379.982835 317.718891 
L 380.202388 452.149321 
L 380.421942 258.128699 
L 380.861048 509.45521 
L 381.080601 313.333883 
L 381.519707 433.056899 
L 381.958814 348.592574 
L 382.39792 477.977861 
L 382.617473 310.403003 
L 382.837026 373.663623 
L 383.056579 345.603748 
L 383.276133 395.664239 
L 383.495686 359.432883 
L 383.715239 255.266407 
L 384.154345 448.134305 
L 384.373898 420.779021 
L 384.593451 511.44608 
L 384.813005 478.187601 
L 385.032558 360.620678 
L 385.252111 369.998273 
L 385.471664 315.521746 
L 385.691217 443.538076 
L 385.91077 362.491266 
L 386.130324 470.358214 
L 386.349877 484.148232 
L 386.56943 442.826041 
L 386.788983 349.063621 
L 387.447642 529.535446 
L 387.886749 342.113644 
L 388.106302 461.458335 
L 388.325855 372.875138 
L 388.545408 479.960103 
L 388.764961 328.195258 
L 388.984515 351.333157 
L 389.204068 398.948822 
L 389.643174 544.69058 
L 389.862727 358.265594 
L 390.08228 488.674007 
L 390.301833 393.801852 
L 390.521387 429.329554 
L 390.74094 501.472434 
L 390.960493 460.081688 
L 391.180046 387.782349 
L 391.399599 506.595312 
L 391.619152 342.340938 
L 391.838706 364.678273 
L 392.058259 426.565845 
L 392.277812 391.099287 
L 392.497365 469.548084 
L 392.716918 455.630784 
L 392.936471 386.452589 
L 393.156024 438.850261 
L 393.375578 421.460173 
L 393.814684 354.370454 
L 394.034237 487.640632 
L 394.25379 410.992422 
L 394.473343 384.756577 
L 394.692897 482.333583 
L 394.91245 486.426543 
L 395.132003 482.352985 
L 395.351556 420.693578 
L 395.571109 394.814672 
L 395.790662 435.188782 
L 396.010215 415.597903 
L 396.229769 419.225475 
L 396.449322 341.789343 
L 396.668875 377.726479 
L 396.888428 434.517245 
L 397.107981 339.155702 
L 397.327534 439.242839 
L 397.547087 339.584557 
L 397.766641 476.366176 
L 397.986194 385.603294 
L 398.205747 427.070503 
L 398.644853 545.530698 
L 398.864406 255.550847 
L 399.08396 331.097217 
L 399.303513 491.246828 
L 399.523066 454.575265 
L 399.742619 477.290727 
L 399.962172 339.526818 
L 400.181725 431.841113 
L 400.401278 331.49351 
L 400.620832 412.900973 
L 400.840385 397.885147 
L 401.059938 426.373526 
L 401.279491 438.182694 
L 401.499044 383.035939 
L 401.718597 488.228016 
L 401.938151 528.287996 
L 402.157704 501.876697 
L 402.377257 504.408042 
L 402.59681 385.955924 
L 402.816363 430.551642 
L 403.035916 351.103995 
L 403.255469 393.035671 
L 403.475023 511.3697 
L 403.694576 486.24678 
L 403.914129 316.783743 
L 404.133682 445.263773 
L 404.353235 304.494941 
L 404.572788 433.289329 
L 404.792342 340.768697 
L 405.011895 385.056221 
L 405.231448 477.127769 
L 405.451001 344.690856 
L 405.670554 449.745706 
L 405.890107 432.997261 
L 406.10966 400.391366 
L 406.329214 442.126272 
L 406.548767 340.280312 
L 406.76832 315.582227 
L 407.207426 473.628364 
L 407.426979 419.200111 
L 407.646533 402.902545 
L 407.866086 361.251043 
L 408.085639 470.337608 
L 408.305192 468.305112 
L 408.524745 281.075038 
L 408.744298 477.588164 
L 408.963851 457.018363 
L 409.183405 519.184219 
L 409.402958 522.774221 
L 409.622511 393.516219 
L 409.842064 452.040846 
L 410.061617 303.783236 
L 410.28117 444.236789 
L 410.500724 455.046999 
L 410.720277 377.64856 
L 410.93983 376.715708 
L 411.159383 486.543492 
L 411.378936 496.255493 
L 411.598489 441.809904 
L 411.818042 466.525401 
L 412.037596 452.057773 
L 412.257149 463.650463 
L 412.476702 356.081481 
L 412.696255 489.186845 
L 413.135361 377.104333 
L 413.354915 327.982604 
L 413.794021 495.602296 
L 414.013574 461.028336 
L 414.233127 382.428379 
L 414.45268 385.765411 
L 414.672233 498.777997 
L 415.11134 406.419919 
L 415.550446 438.190608 
L 415.769999 346.414798 
L 415.989552 346.643949 
L 416.428659 519.418124 
L 416.648212 431.684671 
L 416.867765 389.912115 
L 417.087318 488.356707 
L 417.306871 482.859397 
L 417.526424 452.447763 
L 417.745978 365.873146 
L 417.965531 563.250426 
L 418.185084 432.562376 
L 418.62419 392.787019 
L 418.843743 487.639661 
L 419.063297 348.068643 
L 419.28285 366.467531 
L 419.721956 335.577028 
L 419.941509 404.329038 
L 420.380615 304.64082 
L 420.600169 341.033087 
L 420.819722 409.86594 
L 421.039275 343.821224 
L 421.258828 378.659967 
L 421.478381 272.067663 
L 421.917488 427.295571 
L 422.137041 408.333777 
L 422.576147 253.156908 
L 422.7957 462.80724 
L 423.015253 503.513119 
L 423.234806 495.077822 
L 423.45436 475.620909 
L 423.673913 472.456782 
L 423.893466 353.267557 
L 424.113019 354.502795 
L 424.332572 467.537393 
L 424.552125 220.158854 
L 424.771678 415.944468 
L 424.991232 474.860821 
L 425.210785 467.390026 
L 425.430338 278.923165 
L 425.649891 471.598173 
L 425.869444 407.377834 
L 426.088997 541.293654 
L 426.308551 503.83347 
L 426.528104 419.118743 
L 426.747657 482.296327 
L 426.96721 241.07549 
L 427.186763 406.09505 
L 427.406316 435.12333 
L 427.625869 420.024435 
L 427.845423 448.220846 
L 428.064976 416.78923 
L 428.284529 463.441832 
L 428.504082 403.558992 
L 428.723635 404.987842 
L 428.943188 345.606874 
L 429.162742 462.356342 
L 429.821401 245.701996 
L 430.040954 487.363874 
L 430.260507 347.40975 
L 430.48006 439.592932 
L 430.699614 457.161711 
L 430.919167 323.96267 
L 431.13872 418.775794 
L 431.358273 386.438528 
L 431.577826 463.189309 
L 431.797379 393.674956 
L 432.016933 469.70225 
L 432.236486 445.222656 
L 432.456039 465.891052 
L 432.675592 400.708156 
L 433.114698 324.822642 
L 433.334251 448.079444 
L 433.553805 303.997629 
L 433.773358 460.162199 
L 434.212464 484.406581 
L 434.432017 302.933272 
L 434.65157 351.985996 
L 434.871124 517.543126 
L 435.090677 501.618171 
L 435.31023 446.164919 
L 435.529783 481.281459 
L 435.749336 467.536067 
L 435.968889 473.751381 
L 436.188442 282.273013 
L 436.407996 302.697308 
L 436.627549 302.855403 
L 436.847102 377.692625 
L 437.066655 510.086786 
L 437.286208 391.816233 
L 437.505761 431.831579 
L 437.725315 440.467983 
L 437.944868 366.528356 
L 438.164421 411.910016 
L 438.383974 419.476794 
L 438.603527 327.598378 
L 438.82308 363.315766 
L 439.262187 528.926841 
L 439.48174 360.891276 
L 439.701293 461.729506 
L 439.920846 439.040785 
L 440.140399 454.489973 
L 440.359952 279.056208 
L 440.579506 458.45174 
L 440.799059 409.036924 
L 441.018612 491.982683 
L 441.238165 233.26854 
L 441.457718 454.805807 
L 441.677271 424.304085 
L 442.116378 513.115977 
L 442.335931 398.581552 
L 442.555484 448.847183 
L 442.775037 459.240616 
L 442.99459 413.841413 
L 443.214143 498.799081 
L 443.433697 449.25545 
L 443.65325 352.867621 
L 443.872803 446.928343 
L 444.092356 404.673215 
L 444.311909 498.368072 
L 444.531462 444.975685 
L 444.751015 249.994403 
L 444.970569 289.731649 
L 445.190122 410.674045 
L 445.409675 460.545677 
L 445.629228 444.045503 
L 445.848781 367.177154 
L 446.068334 437.90413 
L 446.287888 367.284685 
L 446.507441 455.659625 
L 446.726994 474.712604 
L 446.946547 408.906689 
L 447.1661 440.591978 
L 447.605206 468.082339 
L 447.82476 469.803115 
L 448.044313 303.169035 
L 448.483419 502.966865 
L 448.922525 320.869931 
L 449.142079 444.552839 
L 449.361632 444.14351 
L 449.581185 580.47773 
L 449.800738 441.48414 
L 450.020291 384.919456 
L 450.239844 430.697576 
L 450.459397 439.331958 
L 450.678951 426.727645 
L 450.898504 405.055179 
L 451.118057 356.901841 
L 451.33761 364.299492 
L 451.557163 366.26921 
L 451.776716 519.342937 
L 451.996269 431.162656 
L 452.215823 425.015447 
L 452.435376 377.61446 
L 452.654929 415.037169 
L 452.874482 379.849932 
L 453.094035 479.117035 
L 453.313588 444.242279 
L 453.533142 427.673875 
L 453.752695 481.487426 
L 453.972248 428.47664 
L 454.191801 451.397588 
L 454.411354 445.908093 
L 454.630907 378.481497 
L 455.070014 503.608378 
L 455.289567 467.810403 
L 455.50912 356.407342 
L 455.728673 413.007188 
L 455.948226 385.97846 
L 456.167779 413.698025 
L 456.387333 400.209095 
L 456.606886 451.399793 
L 456.826439 357.788757 
L 457.045992 363.433987 
L 457.265545 236.337192 
L 457.485098 412.890454 
L 457.704651 339.033251 
L 457.924205 514.201723 
L 458.143758 494.008425 
L 458.582864 422.191007 
L 458.802417 414.200509 
L 459.02197 464.675441 
L 459.241524 379.445868 
L 459.461077 373.781395 
L 459.68063 403.03491 
L 459.900183 284.440531 
L 460.119736 409.271999 
L 460.339289 320.469432 
L 460.558842 325.751442 
L 460.997949 434.021635 
L 461.217502 397.172995 
L 461.437055 393.729722 
L 461.656608 396.716746 
L 462.095715 250.3236 
L 462.315268 251.298402 
L 462.534821 468.579465 
L 462.754374 476.797912 
L 462.973927 331.898064 
L 463.19348 315.379802 
L 463.413033 345.004801 
L 463.632587 425.815159 
L 464.071693 394.208444 
L 464.291246 478.720596 
L 464.510799 359.844333 
L 464.730352 425.881442 
L 464.949906 378.297914 
L 465.169459 396.464624 
L 465.608565 217.214975 
L 466.267224 408.18904 
L 466.486778 349.929054 
L 466.706331 475.087113 
L 467.145437 380.250893 
L 467.36499 500.480672 
L 467.584543 526.376635 
L 467.804097 387.746558 
L 468.02365 546.729599 
L 468.243203 513.525328 
L 468.462756 368.277625 
L 468.682309 438.478814 
L 468.901862 313.142525 
L 469.121415 462.394549 
L 469.560522 369.554714 
L 469.780075 440.167798 
L 469.999628 379.981316 
L 470.219181 508.35149 
L 470.658288 293.124026 
L 470.877841 434.058979 
L 471.097394 478.239139 
L 471.316947 458.881293 
L 471.5365 353.034295 
L 471.756053 469.619344 
L 471.975606 250.164659 
L 472.19516 492.738708 
L 472.414713 537.68557 
L 472.634266 387.944874 
L 473.073372 436.77181 
L 473.292925 402.359001 
L 473.512479 412.052777 
L 473.732032 312.506779 
L 473.951585 300.999546 
L 474.171138 337.900808 
L 474.610244 440.174665 
L 474.829797 371.030244 
L 475.049351 471.113273 
L 475.268904 444.613359 
L 475.488457 483.159737 
L 475.927563 365.325318 
L 476.147116 464.657965 
L 476.366669 324.966455 
L 476.805776 439.087533 
L 477.025329 406.492695 
L 477.683988 383.954781 
L 477.903542 481.132284 
L 478.123095 387.785152 
L 478.562201 451.900315 
L 478.781754 464.287958 
L 479.001307 341.431115 
L 479.22086 474.611114 
L 479.440414 348.206243 
L 479.659967 397.295956 
L 479.87952 498.079309 
L 480.099073 320.317576 
L 480.318626 447.438137 
L 480.538179 418.956939 
L 480.757733 430.552987 
L 480.977286 305.773294 
L 481.196839 486.780703 
L 481.416392 339.458605 
L 481.635945 468.186416 
L 481.855498 383.395785 
L 482.075051 462.444217 
L 482.294605 433.531306 
L 482.514158 343.444552 
L 482.733711 518.117025 
L 482.953264 496.006966 
L 483.172817 373.733306 
L 483.39237 442.339895 
L 483.611924 418.761762 
L 483.831477 324.614384 
L 484.270583 466.216071 
L 484.490136 466.518944 
L 484.709689 316.787385 
L 484.929242 469.280793 
L 485.148796 460.116523 
L 485.368349 435.259146 
L 485.587902 397.693945 
L 485.807455 462.131664 
L 486.027008 479.122589 
L 486.246561 448.952604 
L 486.466115 469.971879 
L 486.685668 448.767392 
L 486.905221 314.037223 
L 487.124774 446.971099 
L 487.344327 350.52769 
L 487.56388 504.453347 
L 487.783433 406.624306 
L 488.002987 423.704282 
L 488.22254 473.92988 
L 488.442093 303.748459 
L 488.881199 549.38641 
L 489.100752 319.158135 
L 489.320306 453.232918 
L 489.539859 370.198341 
L 489.759412 412.351467 
L 489.978965 320.026519 
L 490.198518 373.152945 
L 490.418071 395.591648 
L 490.637624 400.627917 
L 490.857178 377.7284 
L 491.296284 437.223507 
L 491.515837 517.97238 
L 491.73539 479.957886 
L 491.954943 346.552905 
L 492.174497 454.261361 
L 492.39405 439.507597 
L 492.613603 357.416484 
L 492.833156 474.007535 
L 493.052709 254.129097 
L 493.272262 481.637545 
L 493.491815 343.828688 
L 493.711369 535.524967 
L 493.930922 335.0665 
L 494.150475 373.521912 
L 494.370028 370.621889 
L 494.589581 357.330962 
L 494.809134 399.19996 
L 495.248241 408.028926 
L 495.467794 420.966021 
L 495.687347 443.855521 
L 495.9069 314.331836 
L 496.126453 500.722524 
L 496.346006 438.010541 
L 496.56556 428.210823 
L 496.785113 361.836871 
L 497.004666 366.193883 
L 497.443772 512.551831 
L 497.663325 541.449946 
L 497.882879 497.609956 
L 498.102432 494.269799 
L 498.541538 387.71345 
L 498.761091 394.240483 
L 498.980644 504.576391 
L 499.200197 544.780543 
L 499.639304 371.624945 
L 499.858857 391.168678 
L 500.07841 392.39639 
L 500.297963 323.196306 
L 500.517516 330.22108 
L 500.73707 447.532057 
L 501.176176 441.113454 
L 501.395729 447.794261 
L 501.615282 445.164839 
L 501.834835 378.612447 
L 502.054388 377.000902 
L 502.273942 287.417568 
L 502.493495 392.058455 
L 502.713048 373.805586 
L 502.932601 445.344549 
L 503.59126 301.240034 
L 503.810814 428.231867 
L 504.030367 325.687568 
L 504.24992 493.969375 
L 504.689026 447.05706 
L 504.908579 336.846581 
L 505.128133 331.666797 
L 505.347686 437.700541 
L 505.567239 387.461777 
L 505.786792 309.265247 
L 506.006345 314.818291 
L 506.225898 401.980575 
L 506.445451 307.193284 
L 506.665005 454.797153 
L 506.884558 369.174772 
L 507.104111 407.420368 
L 507.323664 487.50192 
L 507.543217 451.898361 
L 507.76277 207.129627 
L 507.982324 408.772602 
L 508.201877 319.077531 
L 508.42143 444.008638 
L 508.640983 493.84481 
L 508.860536 498.845591 
L 509.080089 389.743892 
L 509.299642 424.937882 
L 509.519196 416.592701 
L 509.738749 428.035733 
L 509.958302 281.156703 
L 510.177855 509.147964 
L 510.397408 400.488974 
L 510.616961 394.103858 
L 510.836515 410.649724 
L 511.056068 490.846913 
L 511.275621 322.474804 
L 511.714727 471.21871 
L 511.93428 421.417844 
L 512.153833 287.127922 
L 512.373387 479.502596 
L 512.59294 286.921521 
L 512.812493 280.10016 
L 513.032046 372.367274 
L 513.251599 327.963719 
L 513.471152 411.217725 
L 513.690706 416.946134 
L 513.910259 349.458317 
L 514.129812 492.653815 
L 514.349365 308.300398 
L 514.568918 489.389986 
L 514.788471 373.469888 
L 515.008024 429.770734 
L 515.227578 312.959 
L 515.447131 377.844596 
L 515.666684 300.541929 
L 515.886237 510.751043 
L 516.10579 468.075603 
L 516.325343 373.625596 
L 516.544897 448.372477 
L 516.76445 430.659892 
L 516.984003 462.64217 
L 517.203556 391.612607 
L 517.423109 418.365366 
L 517.862215 403.928388 
L 518.081769 434.558597 
L 518.301322 429.462392 
L 518.740428 525.465599 
L 518.959981 408.633602 
L 519.179534 481.6919 
L 519.399088 393.536592 
L 519.618641 410.530229 
L 519.838194 364.874653 
L 520.2773 384.827448 
L 520.496853 219.281449 
L 520.716406 457.527106 
L 520.93596 432.584474 
L 521.155513 479.526806 
L 521.375066 377.041934 
L 521.814172 501.329091 
L 522.033725 331.358458 
L 522.253279 450.865542 
L 522.472832 439.076228 
L 522.692385 498.883484 
L 522.911938 351.857701 
L 523.131491 471.469474 
L 523.351044 436.423907 
L 523.570597 375.781115 
L 523.790151 466.798777 
L 524.009704 370.958522 
L 524.229257 356.482479 
L 524.44881 290.480659 
L 524.668363 464.275545 
L 524.887916 344.573143 
L 525.10747 525.895654 
L 525.546576 417.700258 
L 525.766129 404.771405 
L 525.985682 402.691742 
L 526.205235 301.928584 
L 526.424788 518.847015 
L 526.644342 255.318602 
L 527.083448 398.936338 
L 527.303001 411.059771 
L 527.522554 463.906853 
L 527.742107 463.639898 
L 528.181214 416.857498 
L 528.400767 464.171213 
L 528.839873 312.126953 
L 529.059426 452.055755 
L 529.278979 447.552291 
L 529.498533 447.970835 
L 529.718086 284.756979 
L 529.937639 480.665095 
L 530.157192 499.048427 
L 530.376745 362.842828 
L 530.815851 509.439944 
L 531.035405 332.230131 
L 531.254958 495.151419 
L 531.474511 502.745343 
L 531.694064 398.856288 
L 531.913617 414.806645 
L 532.13317 370.876981 
L 532.352724 270.177075 
L 532.79183 450.897918 
L 533.011383 345.434255 
L 533.230936 398.423113 
L 533.450489 383.487439 
L 533.889596 520.178729 
L 534.109149 439.288889 
L 534.328702 452.510243 
L 534.548255 385.489477 
L 534.767808 474.864698 
L 534.987361 313.338356 
L 535.426468 437.941484 
L 535.646021 379.194892 
L 535.865574 399.141419 
L 536.085127 435.481533 
L 536.30468 434.927452 
L 536.524233 320.119232 
L 536.743787 415.814715 
L 536.96334 387.60235 
L 537.182893 341.26821 
L 537.402446 452.697992 
L 537.621999 450.309542 
L 537.841552 397.112192 
L 538.061106 486.823118 
L 538.280659 371.996183 
L 538.500212 318.93762 
L 538.719765 415.071849 
L 538.939318 375.224829 
L 539.158871 530.043807 
L 539.378424 338.882976 
L 539.597978 271.998877 
L 539.817531 462.993366 
L 540.037084 373.65167 
L 540.256637 389.880292 
L 540.47619 380.371369 
L 540.695743 396.941162 
L 540.915297 396.422512 
L 541.13485 415.977057 
L 541.573956 352.553475 
L 541.793509 392.01156 
L 542.013062 243.494832 
L 542.232615 389.108737 
L 542.452169 353.673313 
L 542.671722 482.073927 
L 542.891275 435.824038 
L 543.110828 437.63968 
L 543.549934 337.695718 
L 543.769488 433.689022 
L 543.989041 374.250116 
L 544.208594 442.530767 
L 544.428147 339.962009 
L 544.6477 377.097258 
L 544.867253 449.090362 
L 545.086806 326.104844 
L 545.30636 563.115193 
L 545.525913 391.987454 
L 545.745466 439.191836 
L 545.745466 439.191836 
" style="fill:none;stroke:#96c69a;stroke-linecap:round;stroke-width:3;"/>
   </g>
   <g id="line2d_2"/>
   <g id="patch_3">
    <path d="M 84.914375 603.86 
L 84.914375 109.484571 
" style="fill:none;stroke:#262626;stroke-linecap:square;stroke-linejoin:miter;stroke-width:2.5;"/>
   </g>
   <g id="patch_4">
    <path d="M 84.914375 603.86 
L 567.689804 603.86 
" style="fill:none;stroke:#262626;stroke-linecap:square;stroke-linejoin:miter;stroke-width:2.5;"/>
   </g>
   <g id="legend_1">
    <g id="patch_5">
     <path d="M 514.774179 598.86 
L 560.689804 598.86 
Q 562.689804 598.86 562.689804 596.86 
L 562.689804 554.954375 
Q 562.689804 552.954375 560.689804 552.954375 
L 514.774179 552.954375 
Q 512.774179 552.954375 512.774179 554.954375 
L 512.774179 596.86 
Q 512.774179 598.86 514.774179 598.86 
z
" style="fill:#ffffff;opacity:0.8;stroke:#cccccc;stroke-linejoin:miter;stroke-width:2;"/>
    </g>
    <g id="text_17">
     <!-- $n_\tau$ -->
     <g style="fill:#262626;" transform="translate(524.651991 575.190625)scale(0.24 -0.24)">
      <defs>
       <path d="M 3566 2113 
L 3156 0 
L 2578 0 
L 2988 2091 
Q 3016 2238 3031 2350 
Q 3047 2463 3047 2528 
Q 3047 2791 2881 2937 
Q 2716 3084 2419 3084 
Q 1956 3084 1622 2776 
Q 1288 2469 1184 1941 
L 800 0 
L 225 0 
L 903 3500 
L 1478 3500 
L 1363 2950 
Q 1603 3253 1940 3418 
Q 2278 3584 2650 3584 
Q 3113 3584 3367 3334 
Q 3622 3084 3622 2631 
Q 3622 2519 3608 2391 
Q 3594 2263 3566 2113 
z
" id="DejaVuSans-Oblique-6e" transform="scale(0.015625)"/>
       <path d="M 2103 638 
Q 2188 488 2525 488 
L 2800 488 
L 2706 0 
L 2363 0 
Q 1800 0 1600 300 
Q 1403 606 1534 1269 
L 1856 2925 
L 541 2925 
L 653 3500 
L 3881 3500 
L 3769 2925 
L 2444 2925 
L 2113 1234 
Q 2025 781 2103 638 
z
" id="DejaVuSans-Oblique-3c4" transform="scale(0.015625)"/>
      </defs>
      <use xlink:href="#DejaVuSans-Oblique-6e"/>
      <use transform="translate(63.378906 -16.40625)scale(0.7)" xlink:href="#DejaVuSans-Oblique-3c4"/>
     </g>
    </g>
    <g id="line2d_3">
     <path d="M 516.774179 589.280313 
L 536.774179 589.280313 
" style="fill:none;stroke:#96c69a;stroke-linecap:round;stroke-width:3;"/>
    </g>
    <g id="line2d_4"/>
    <g id="text_18">
     <!-- 40 -->
     <g style="fill:#262626;" transform="translate(544.774179 592.780313)scale(0.1 -0.1)">
      <defs>
       <path d="M 2356 3675 
L 1038 1722 
L 2356 1722 
L 2356 3675 
z
M 2156 4666 
L 3494 4666 
L 3494 1722 
L 4159 1722 
L 4159 850 
L 3494 850 
L 3494 0 
L 2356 0 
L 2356 850 
L 288 850 
L 288 1881 
L 2156 4666 
z
" id="DejaVuSans-Bold-34" transform="scale(0.015625)"/>
       <path d="M 2944 2338 
Q 2944 3213 2780 3570 
Q 2616 3928 2228 3928 
Q 1841 3928 1675 3570 
Q 1509 3213 1509 2338 
Q 1509 1453 1675 1090 
Q 1841 728 2228 728 
Q 2613 728 2778 1090 
Q 2944 1453 2944 2338 
z
M 4147 2328 
Q 4147 1169 3647 539 
Q 3147 -91 2228 -91 
Q 1306 -91 806 539 
Q 306 1169 306 2328 
Q 306 3491 806 4120 
Q 1306 4750 2228 4750 
Q 3147 4750 3647 4120 
Q 4147 3491 4147 2328 
z
" id="DejaVuSans-Bold-30" transform="scale(0.015625)"/>
      </defs>
      <use xlink:href="#DejaVuSans-Bold-34"/>
      <use x="69.580078" xlink:href="#DejaVuSans-Bold-30"/>
     </g>
    </g>
   </g>
  </g>
  <g id="axes_2">
   <g id="patch_6">
    <path d="M 84.914375 92.437143 
L 567.689804 92.437143 
L 567.689804 7.2 
L 84.914375 7.2 
z
" style="fill:none;"/>
   </g>
   <g id="matplotlib.axis_3">
    <g id="xtick_7"/>
    <g id="xtick_8"/>
    <g id="xtick_9"/>
    <g id="xtick_10"/>
    <g id="xtick_11"/>
    <g id="xtick_12"/>
   </g>
   <g id="matplotlib.axis_4">
    <g id="ytick_9">
     <g id="text_19">
      <!-- 0 -->
      <g style="fill:#262626;" transform="translate(55.416875 100.795424)scale(0.22 -0.22)">
       <use xlink:href="#DejaVuSans-30"/>
      </g>
     </g>
    </g>
    <g id="ytick_10">
     <g id="text_20">
      <!-- 100 -->
      <g style="fill:#262626;" transform="translate(27.421875 48.082287)scale(0.22 -0.22)">
       <use xlink:href="#DejaVuSans-31"/>
       <use x="63.623047" xlink:href="#DejaVuSans-30"/>
       <use x="127.246094" xlink:href="#DejaVuSans-30"/>
      </g>
     </g>
    </g>
   </g>
   <g id="patch_7">
    <path clip-path="url(#pc327ee41db)" d="M 106.858713 92.437143 
L 140.619232 92.437143 
L 140.619232 11.258912 
L 106.858713 11.258912 
z
" style="fill:#96c69a;fill-opacity:0.5;stroke:#ffffff;stroke-linejoin:miter;stroke-width:2;"/>
   </g>
   <g id="patch_8">
    <path clip-path="url(#pc327ee41db)" d="M 140.619232 92.437143 
L 174.379752 92.437143 
L 174.379752 11.258912 
L 140.619232 11.258912 
z
" style="fill:#96c69a;fill-opacity:0.5;stroke:#ffffff;stroke-linejoin:miter;stroke-width:2;"/>
   </g>
   <g id="patch_9">
    <path clip-path="url(#pc327ee41db)" d="M 174.379752 92.437143 
L 208.140271 92.437143 
L 208.140271 11.258912 
L 174.379752 11.258912 
z
" style="fill:#96c69a;fill-opacity:0.5;stroke:#ffffff;stroke-linejoin:miter;stroke-width:2;"/>
   </g>
   <g id="patch_10">
    <path clip-path="url(#pc327ee41db)" d="M 208.140271 92.437143 
L 241.900791 92.437143 
L 241.900791 11.258912 
L 208.140271 11.258912 
z
" style="fill:#96c69a;fill-opacity:0.5;stroke:#ffffff;stroke-linejoin:miter;stroke-width:2;"/>
   </g>
   <g id="patch_11">
    <path clip-path="url(#pc327ee41db)" d="M 241.900791 92.437143 
L 275.66131 92.437143 
L 275.66131 11.786043 
L 241.900791 11.786043 
z
" style="fill:#96c69a;fill-opacity:0.5;stroke:#ffffff;stroke-linejoin:miter;stroke-width:2;"/>
   </g>
   <g id="patch_12">
    <path clip-path="url(#pc327ee41db)" d="M 275.66131 92.437143 
L 309.42183 92.437143 
L 309.42183 11.258912 
L 275.66131 11.258912 
z
" style="fill:#96c69a;fill-opacity:0.5;stroke:#ffffff;stroke-linejoin:miter;stroke-width:2;"/>
   </g>
   <g id="patch_13">
    <path clip-path="url(#pc327ee41db)" d="M 309.42183 92.437143 
L 343.182349 92.437143 
L 343.182349 11.258912 
L 309.42183 11.258912 
z
" style="fill:#96c69a;fill-opacity:0.5;stroke:#ffffff;stroke-linejoin:miter;stroke-width:2;"/>
   </g>
   <g id="patch_14">
    <path clip-path="url(#pc327ee41db)" d="M 343.182349 92.437143 
L 376.942869 92.437143 
L 376.942869 11.258912 
L 343.182349 11.258912 
z
" style="fill:#96c69a;fill-opacity:0.5;stroke:#ffffff;stroke-linejoin:miter;stroke-width:2;"/>
   </g>
   <g id="patch_15">
    <path clip-path="url(#pc327ee41db)" d="M 376.942869 92.437143 
L 410.703388 92.437143 
L 410.703388 11.786043 
L 376.942869 11.786043 
z
" style="fill:#96c69a;fill-opacity:0.5;stroke:#ffffff;stroke-linejoin:miter;stroke-width:2;"/>
   </g>
   <g id="patch_16">
    <path clip-path="url(#pc327ee41db)" d="M 410.703388 92.437143 
L 444.463907 92.437143 
L 444.463907 11.258912 
L 410.703388 11.258912 
z
" style="fill:#96c69a;fill-opacity:0.5;stroke:#ffffff;stroke-linejoin:miter;stroke-width:2;"/>
   </g>
   <g id="patch_17">
    <path clip-path="url(#pc327ee41db)" d="M 444.463907 92.437143 
L 478.224427 92.437143 
L 478.224427 11.258912 
L 444.463907 11.258912 
z
" style="fill:#96c69a;fill-opacity:0.5;stroke:#ffffff;stroke-linejoin:miter;stroke-width:2;"/>
   </g>
   <g id="patch_18">
    <path clip-path="url(#pc327ee41db)" d="M 478.224427 92.437143 
L 511.984946 92.437143 
L 511.984946 11.258912 
L 478.224427 11.258912 
z
" style="fill:#96c69a;fill-opacity:0.5;stroke:#ffffff;stroke-linejoin:miter;stroke-width:2;"/>
   </g>
   <g id="patch_19">
    <path clip-path="url(#pc327ee41db)" d="M 511.984946 92.437143 
L 545.745466 92.437143 
L 545.745466 11.258912 
L 511.984946 11.258912 
z
" style="fill:#96c69a;fill-opacity:0.5;stroke:#ffffff;stroke-linejoin:miter;stroke-width:2;"/>
   </g>
   <g id="patch_20">
    <path d="M 84.914375 92.437143 
L 84.914375 7.2 
" style="fill:none;stroke:#262626;stroke-linecap:square;stroke-linejoin:miter;stroke-width:2.5;"/>
   </g>
   <g id="patch_21">
    <path d="M 84.914375 92.437143 
L 567.689804 92.437143 
" style="fill:none;stroke:#262626;stroke-linecap:square;stroke-linejoin:miter;stroke-width:2.5;"/>
   </g>
  </g>
  <g id="axes_3">
   <g id="patch_22">
    <path d="M 584.337232 603.86 
L 667.574375 603.86 
L 667.574375 109.484571 
L 584.337232 109.484571 
z
" style="fill:none;"/>
   </g>
   <g id="matplotlib.axis_5">
    <g id="xtick_13">
     <g id="text_21">
      <!-- 0 -->
      <g style="fill:#262626;" transform="translate(577.338482 636.076563)scale(0.22 -0.22)">
       <use xlink:href="#DejaVuSans-30"/>
      </g>
     </g>
    </g>
    <g id="xtick_14">
     <g id="text_22">
      <!-- 100 -->
      <g style="fill:#262626;" transform="translate(608.382726 636.076563)scale(0.22 -0.22)">
       <use xlink:href="#DejaVuSans-31"/>
       <use x="63.623047" xlink:href="#DejaVuSans-30"/>
       <use x="127.246094" xlink:href="#DejaVuSans-30"/>
      </g>
     </g>
    </g>
   </g>
   <g id="matplotlib.axis_6">
    <g id="ytick_11"/>
    <g id="ytick_12"/>
    <g id="ytick_13"/>
    <g id="ytick_14"/>
    <g id="ytick_15"/>
    <g id="ytick_16"/>
    <g id="ytick_17"/>
    <g id="ytick_18"/>
   </g>
   <g id="patch_23">
    <path clip-path="url(#pc1a6911538)" d="M 584.337232 581.38839 
L 585.688484 581.38839 
L 585.688484 567.769232 
L 584.337232 567.769232 
z
" style="fill:#96c69a;fill-opacity:0.5;stroke:#ffffff;stroke-linejoin:miter;stroke-width:1.361916;"/>
   </g>
   <g id="patch_24">
    <path clip-path="url(#pc1a6911538)" d="M 584.337232 567.769232 
L 587.039737 567.769232 
L 587.039737 554.150074 
L 584.337232 554.150074 
z
" style="fill:#96c69a;fill-opacity:0.5;stroke:#ffffff;stroke-linejoin:miter;stroke-width:1.361916;"/>
   </g>
   <g id="patch_25">
    <path clip-path="url(#pc1a6911538)" d="M 584.337232 554.150074 
L 588.841407 554.150074 
L 588.841407 540.530916 
L 584.337232 540.530916 
z
" style="fill:#96c69a;fill-opacity:0.5;stroke:#ffffff;stroke-linejoin:miter;stroke-width:1.361916;"/>
   </g>
   <g id="patch_26">
    <path clip-path="url(#pc1a6911538)" d="M 584.337232 540.530916 
L 593.345581 540.530916 
L 593.345581 526.911758 
L 584.337232 526.911758 
z
" style="fill:#96c69a;fill-opacity:0.5;stroke:#ffffff;stroke-linejoin:miter;stroke-width:1.361916;"/>
   </g>
   <g id="patch_27">
    <path clip-path="url(#pc1a6911538)" d="M 584.337232 526.911758 
L 605.957269 526.911758 
L 605.957269 513.292601 
L 584.337232 513.292601 
z
" style="fill:#96c69a;fill-opacity:0.5;stroke:#ffffff;stroke-linejoin:miter;stroke-width:1.361916;"/>
   </g>
   <g id="patch_28">
    <path clip-path="url(#pc1a6911538)" d="M 584.337232 513.292601 
L 615.416035 513.292601 
L 615.416035 499.673443 
L 584.337232 499.673443 
z
" style="fill:#96c69a;fill-opacity:0.5;stroke:#ffffff;stroke-linejoin:miter;stroke-width:1.361916;"/>
   </g>
   <g id="patch_29">
    <path clip-path="url(#pc1a6911538)" d="M 584.337232 499.673443 
L 628.928559 499.673443 
L 628.928559 486.054285 
L 584.337232 486.054285 
z
" style="fill:#96c69a;fill-opacity:0.5;stroke:#ffffff;stroke-linejoin:miter;stroke-width:1.361916;"/>
   </g>
   <g id="patch_30">
    <path clip-path="url(#pc1a6911538)" d="M 584.337232 486.054285 
L 636.585655 486.054285 
L 636.585655 472.435127 
L 584.337232 472.435127 
z
" style="fill:#96c69a;fill-opacity:0.5;stroke:#ffffff;stroke-linejoin:miter;stroke-width:1.361916;"/>
   </g>
   <g id="patch_31">
    <path clip-path="url(#pc1a6911538)" d="M 584.337232 472.435127 
L 641.08983 472.435127 
L 641.08983 458.815969 
L 584.337232 458.815969 
z
" style="fill:#96c69a;fill-opacity:0.5;stroke:#ffffff;stroke-linejoin:miter;stroke-width:1.361916;"/>
   </g>
   <g id="patch_32">
    <path clip-path="url(#pc1a6911538)" d="M 584.337232 458.815969 
L 650.999013 458.815969 
L 650.999013 445.196811 
L 584.337232 445.196811 
z
" style="fill:#96c69a;fill-opacity:0.5;stroke:#ffffff;stroke-linejoin:miter;stroke-width:1.361916;"/>
   </g>
   <g id="patch_33">
    <path clip-path="url(#pc1a6911538)" d="M 584.337232 445.196811 
L 663.610702 445.196811 
L 663.610702 431.577654 
L 584.337232 431.577654 
z
" style="fill:#96c69a;fill-opacity:0.5;stroke:#ffffff;stroke-linejoin:miter;stroke-width:1.361916;"/>
   </g>
   <g id="patch_34">
    <path clip-path="url(#pc1a6911538)" d="M 584.337232 431.577654 
L 650.548596 431.577654 
L 650.548596 417.958496 
L 584.337232 417.958496 
z
" style="fill:#96c69a;fill-opacity:0.5;stroke:#ffffff;stroke-linejoin:miter;stroke-width:1.361916;"/>
   </g>
   <g id="patch_35">
    <path clip-path="url(#pc1a6911538)" d="M 584.337232 417.958496 
L 654.602353 417.958496 
L 654.602353 404.339338 
L 584.337232 404.339338 
z
" style="fill:#96c69a;fill-opacity:0.5;stroke:#ffffff;stroke-linejoin:miter;stroke-width:1.361916;"/>
   </g>
   <g id="patch_36">
    <path clip-path="url(#pc1a6911538)" d="M 584.337232 404.339338 
L 661.809032 404.339338 
L 661.809032 390.72018 
L 584.337232 390.72018 
z
" style="fill:#96c69a;fill-opacity:0.5;stroke:#ffffff;stroke-linejoin:miter;stroke-width:1.361916;"/>
   </g>
   <g id="patch_37">
    <path clip-path="url(#pc1a6911538)" d="M 584.337232 390.72018 
L 645.143587 390.72018 
L 645.143587 377.101022 
L 584.337232 377.101022 
z
" style="fill:#96c69a;fill-opacity:0.5;stroke:#ffffff;stroke-linejoin:miter;stroke-width:1.361916;"/>
   </g>
   <g id="patch_38">
    <path clip-path="url(#pc1a6911538)" d="M 584.337232 377.101022 
L 642.441082 377.101022 
L 642.441082 363.481865 
L 584.337232 363.481865 
z
" style="fill:#96c69a;fill-opacity:0.5;stroke:#ffffff;stroke-linejoin:miter;stroke-width:1.361916;"/>
   </g>
   <g id="patch_39">
    <path clip-path="url(#pc1a6911538)" d="M 584.337232 363.481865 
L 623.973967 363.481865 
L 623.973967 349.862707 
L 584.337232 349.862707 
z
" style="fill:#96c69a;fill-opacity:0.5;stroke:#ffffff;stroke-linejoin:miter;stroke-width:1.361916;"/>
   </g>
   <g id="patch_40">
    <path clip-path="url(#pc1a6911538)" d="M 584.337232 349.862707 
L 623.523549 349.862707 
L 623.523549 336.243549 
L 584.337232 336.243549 
z
" style="fill:#96c69a;fill-opacity:0.5;stroke:#ffffff;stroke-linejoin:miter;stroke-width:1.361916;"/>
   </g>
   <g id="patch_41">
    <path clip-path="url(#pc1a6911538)" d="M 584.337232 336.243549 
L 610.011026 336.243549 
L 610.011026 322.624391 
L 584.337232 322.624391 
z
" style="fill:#96c69a;fill-opacity:0.5;stroke:#ffffff;stroke-linejoin:miter;stroke-width:1.361916;"/>
   </g>
   <g id="patch_42">
    <path clip-path="url(#pc1a6911538)" d="M 584.337232 322.624391 
L 615.866453 322.624391 
L 615.866453 309.005233 
L 584.337232 309.005233 
z
" style="fill:#96c69a;fill-opacity:0.5;stroke:#ffffff;stroke-linejoin:miter;stroke-width:1.361916;"/>
   </g>
   <g id="patch_43">
    <path clip-path="url(#pc1a6911538)" d="M 584.337232 309.005233 
L 601.903512 309.005233 
L 601.903512 295.386076 
L 584.337232 295.386076 
z
" style="fill:#96c69a;fill-opacity:0.5;stroke:#ffffff;stroke-linejoin:miter;stroke-width:1.361916;"/>
   </g>
   <g id="patch_44">
    <path clip-path="url(#pc1a6911538)" d="M 584.337232 295.386076 
L 595.147251 295.386076 
L 595.147251 281.766918 
L 584.337232 281.766918 
z
" style="fill:#96c69a;fill-opacity:0.5;stroke:#ffffff;stroke-linejoin:miter;stroke-width:1.361916;"/>
   </g>
   <g id="patch_45">
    <path clip-path="url(#pc1a6911538)" d="M 584.337232 281.766918 
L 595.147251 281.766918 
L 595.147251 268.14776 
L 584.337232 268.14776 
z
" style="fill:#96c69a;fill-opacity:0.5;stroke:#ffffff;stroke-linejoin:miter;stroke-width:1.361916;"/>
   </g>
   <g id="patch_46">
    <path clip-path="url(#pc1a6911538)" d="M 584.337232 268.14776 
L 591.543911 268.14776 
L 591.543911 254.528602 
L 584.337232 254.528602 
z
" style="fill:#96c69a;fill-opacity:0.5;stroke:#ffffff;stroke-linejoin:miter;stroke-width:1.361916;"/>
   </g>
   <g id="patch_47">
    <path clip-path="url(#pc1a6911538)" d="M 584.337232 254.528602 
L 592.444746 254.528602 
L 592.444746 240.909444 
L 584.337232 240.909444 
z
" style="fill:#96c69a;fill-opacity:0.5;stroke:#ffffff;stroke-linejoin:miter;stroke-width:1.361916;"/>
   </g>
   <g id="patch_48">
    <path clip-path="url(#pc1a6911538)" d="M 584.337232 240.909444 
L 587.940572 240.909444 
L 587.940572 227.290287 
L 584.337232 227.290287 
z
" style="fill:#96c69a;fill-opacity:0.5;stroke:#ffffff;stroke-linejoin:miter;stroke-width:1.361916;"/>
   </g>
   <g id="patch_49">
    <path clip-path="url(#pc1a6911538)" d="M 584.337232 227.290287 
L 586.589319 227.290287 
L 586.589319 213.671129 
L 584.337232 213.671129 
z
" style="fill:#96c69a;fill-opacity:0.5;stroke:#ffffff;stroke-linejoin:miter;stroke-width:1.361916;"/>
   </g>
   <g id="patch_50">
    <path clip-path="url(#pc1a6911538)" d="M 584.337232 213.671129 
L 584.78765 213.671129 
L 584.78765 200.051971 
L 584.337232 200.051971 
z
" style="fill:#96c69a;fill-opacity:0.5;stroke:#ffffff;stroke-linejoin:miter;stroke-width:1.361916;"/>
   </g>
   <g id="patch_51">
    <path clip-path="url(#pc1a6911538)" d="M 584.337232 200.051971 
L 584.337232 200.051971 
L 584.337232 186.432813 
L 584.337232 186.432813 
z
" style="fill:#96c69a;fill-opacity:0.5;stroke:#ffffff;stroke-linejoin:miter;stroke-width:1.361916;"/>
   </g>
   <g id="patch_52">
    <path clip-path="url(#pc1a6911538)" d="M 584.337232 186.432813 
L 584.78765 186.432813 
L 584.78765 172.813655 
L 584.337232 172.813655 
z
" style="fill:#96c69a;fill-opacity:0.5;stroke:#ffffff;stroke-linejoin:miter;stroke-width:1.361916;"/>
   </g>
   <g id="patch_53">
    <path clip-path="url(#pc1a6911538)" d="M 584.337232 172.813655 
L 584.78765 172.813655 
L 584.78765 159.194497 
L 584.337232 159.194497 
z
" style="fill:#96c69a;fill-opacity:0.5;stroke:#ffffff;stroke-linejoin:miter;stroke-width:1.361916;"/>
   </g>
   <g id="patch_54">
    <path clip-path="url(#pc1a6911538)" d="M 584.337232 159.194497 
L 584.337232 159.194497 
L 584.337232 145.57534 
L 584.337232 145.57534 
z
" style="fill:#96c69a;fill-opacity:0.5;stroke:#ffffff;stroke-linejoin:miter;stroke-width:1.361916;"/>
   </g>
   <g id="patch_55">
    <path clip-path="url(#pc1a6911538)" d="M 584.337232 145.57534 
L 584.78765 145.57534 
L 584.78765 131.956182 
L 584.337232 131.956182 
z
" style="fill:#96c69a;fill-opacity:0.5;stroke:#ffffff;stroke-linejoin:miter;stroke-width:1.361916;"/>
   </g>
   <g id="patch_56">
    <path d="M 584.337232 603.86 
L 584.337232 109.484571 
" style="fill:none;stroke:#262626;stroke-linecap:square;stroke-linejoin:miter;stroke-width:2.5;"/>
   </g>
   <g id="patch_57">
    <path d="M 584.337232 603.86 
L 667.574375 603.86 
" style="fill:none;stroke:#262626;stroke-linecap:square;stroke-linejoin:miter;stroke-width:2.5;"/>
   </g>
  </g>
 </g>
 <defs>
  <clipPath id="pf132172ba5">
   <rect height="494.375429" width="482.775429" x="84.914375" y="109.484571"/>
  </clipPath>
  <clipPath id="pc327ee41db">
   <rect height="85.237143" width="482.775429" x="84.914375" y="7.2"/>
  </clipPath>
  <clipPath id="pc1a6911538">
   <rect height="494.375429" width="83.237143" x="584.337232" y="109.484571"/>
  </clipPath>
 </defs>
</svg>
