<?xml version="1.0" encoding="utf-8" standalone="no"?>
<!DOCTYPE svg PUBLIC "-//W3C//DTD SVG 1.1//EN"
  "http://www.w3.org/Graphics/SVG/1.1/DTD/svg11.dtd">
<svg height="675.079375pt" version="1.1" viewBox="0 0 707.837105 675.079375" width="707.837105pt" xmlns="http://www.w3.org/2000/svg" xmlns:xlink="http://www.w3.org/1999/xlink">
 <metadata>
  <rdf:RDF xmlns:cc="http://creativecommons.org/ns#" xmlns:dc="http://purl.org/dc/elements/1.1/" xmlns:rdf="http://www.w3.org/1999/02/22-rdf-syntax-ns#">
   <cc:Work>
    <dc:type rdf:resource="http://purl.org/dc/dcmitype/StillImage"/>
    <dc:date>2021-07-16T21:44:00.953275</dc:date>
    <dc:format>image/svg+xml</dc:format>
    <dc:creator>
     <cc:Agent>
      <dc:title>Matplotlib v3.4.2, https://matplotlib.org/</dc:title>
     </cc:Agent>
    </dc:creator>
   </cc:Work>
  </rdf:RDF>
 </metadata>
 <defs>
  <style type="text/css">*{stroke-linecap:butt;stroke-linejoin:round;}</style>
 </defs>
 <g id="figure_1">
  <g id="patch_1">
   <path d="M 0 675.079375 
L 707.837105 675.079375 
L 707.837105 0 
L 0 0 
z
" style="fill:#ffffff;"/>
  </g>
  <g id="axes_1">
   <g id="patch_2">
    <path d="M 98.911875 603.86 
L 581.687304 603.86 
L 581.687304 109.484571 
L 98.911875 109.484571 
z
" style="fill:none;"/>
   </g>
   <g id="matplotlib.axis_1">
    <g id="xtick_1">
     <g id="text_1">
      <!-- 0 -->
      <g style="fill:#262626;" transform="translate(113.63791 636.076563)scale(0.22 -0.22)">
       <defs>
        <path d="M 2034 4250 
Q 1547 4250 1301 3770 
Q 1056 3291 1056 2328 
Q 1056 1369 1301 889 
Q 1547 409 2034 409 
Q 2525 409 2770 889 
Q 3016 1369 3016 2328 
Q 3016 3291 2770 3770 
Q 2525 4250 2034 4250 
z
M 2034 4750 
Q 2819 4750 3233 4129 
Q 3647 3509 3647 2328 
Q 3647 1150 3233 529 
Q 2819 -91 2034 -91 
Q 1250 -91 836 529 
Q 422 1150 422 2328 
Q 422 3509 836 4129 
Q 1250 4750 2034 4750 
z
" id="DejaVuSans-30" transform="scale(0.015625)"/>
       </defs>
       <use xlink:href="#DejaVuSans-30"/>
      </g>
     </g>
    </g>
    <g id="xtick_2">
     <g id="text_2">
      <!-- 20000 -->
      <g style="fill:#262626;" transform="translate(173.464171 636.076563)scale(0.22 -0.22)">
       <defs>
        <path d="M 1228 531 
L 3431 531 
L 3431 0 
L 469 0 
L 469 531 
Q 828 903 1448 1529 
Q 2069 2156 2228 2338 
Q 2531 2678 2651 2914 
Q 2772 3150 2772 3378 
Q 2772 3750 2511 3984 
Q 2250 4219 1831 4219 
Q 1534 4219 1204 4116 
Q 875 4013 500 3803 
L 500 4441 
Q 881 4594 1212 4672 
Q 1544 4750 1819 4750 
Q 2544 4750 2975 4387 
Q 3406 4025 3406 3419 
Q 3406 3131 3298 2873 
Q 3191 2616 2906 2266 
Q 2828 2175 2409 1742 
Q 1991 1309 1228 531 
z
" id="DejaVuSans-32" transform="scale(0.015625)"/>
       </defs>
       <use xlink:href="#DejaVuSans-32"/>
       <use x="63.623047" xlink:href="#DejaVuSans-30"/>
       <use x="127.246094" xlink:href="#DejaVuSans-30"/>
       <use x="190.869141" xlink:href="#DejaVuSans-30"/>
       <use x="254.492188" xlink:href="#DejaVuSans-30"/>
      </g>
     </g>
    </g>
    <g id="xtick_3">
     <g id="text_3">
      <!-- 40000 -->
      <g style="fill:#262626;" transform="translate(261.285432 636.076563)scale(0.22 -0.22)">
       <defs>
        <path d="M 2419 4116 
L 825 1625 
L 2419 1625 
L 2419 4116 
z
M 2253 4666 
L 3047 4666 
L 3047 1625 
L 3713 1625 
L 3713 1100 
L 3047 1100 
L 3047 0 
L 2419 0 
L 2419 1100 
L 313 1100 
L 313 1709 
L 2253 4666 
z
" id="DejaVuSans-34" transform="scale(0.015625)"/>
       </defs>
       <use xlink:href="#DejaVuSans-34"/>
       <use x="63.623047" xlink:href="#DejaVuSans-30"/>
       <use x="127.246094" xlink:href="#DejaVuSans-30"/>
       <use x="190.869141" xlink:href="#DejaVuSans-30"/>
       <use x="254.492188" xlink:href="#DejaVuSans-30"/>
      </g>
     </g>
    </g>
    <g id="xtick_4">
     <g id="text_4">
      <!-- 60000 -->
      <g style="fill:#262626;" transform="translate(349.106693 636.076563)scale(0.22 -0.22)">
       <defs>
        <path d="M 2113 2584 
Q 1688 2584 1439 2293 
Q 1191 2003 1191 1497 
Q 1191 994 1439 701 
Q 1688 409 2113 409 
Q 2538 409 2786 701 
Q 3034 994 3034 1497 
Q 3034 2003 2786 2293 
Q 2538 2584 2113 2584 
z
M 3366 4563 
L 3366 3988 
Q 3128 4100 2886 4159 
Q 2644 4219 2406 4219 
Q 1781 4219 1451 3797 
Q 1122 3375 1075 2522 
Q 1259 2794 1537 2939 
Q 1816 3084 2150 3084 
Q 2853 3084 3261 2657 
Q 3669 2231 3669 1497 
Q 3669 778 3244 343 
Q 2819 -91 2113 -91 
Q 1303 -91 875 529 
Q 447 1150 447 2328 
Q 447 3434 972 4092 
Q 1497 4750 2381 4750 
Q 2619 4750 2861 4703 
Q 3103 4656 3366 4563 
z
" id="DejaVuSans-36" transform="scale(0.015625)"/>
       </defs>
       <use xlink:href="#DejaVuSans-36"/>
       <use x="63.623047" xlink:href="#DejaVuSans-30"/>
       <use x="127.246094" xlink:href="#DejaVuSans-30"/>
       <use x="190.869141" xlink:href="#DejaVuSans-30"/>
       <use x="254.492188" xlink:href="#DejaVuSans-30"/>
      </g>
     </g>
    </g>
    <g id="xtick_5">
     <g id="text_5">
      <!-- 80000 -->
      <g style="fill:#262626;" transform="translate(436.927955 636.076563)scale(0.22 -0.22)">
       <defs>
        <path d="M 2034 2216 
Q 1584 2216 1326 1975 
Q 1069 1734 1069 1313 
Q 1069 891 1326 650 
Q 1584 409 2034 409 
Q 2484 409 2743 651 
Q 3003 894 3003 1313 
Q 3003 1734 2745 1975 
Q 2488 2216 2034 2216 
z
M 1403 2484 
Q 997 2584 770 2862 
Q 544 3141 544 3541 
Q 544 4100 942 4425 
Q 1341 4750 2034 4750 
Q 2731 4750 3128 4425 
Q 3525 4100 3525 3541 
Q 3525 3141 3298 2862 
Q 3072 2584 2669 2484 
Q 3125 2378 3379 2068 
Q 3634 1759 3634 1313 
Q 3634 634 3220 271 
Q 2806 -91 2034 -91 
Q 1263 -91 848 271 
Q 434 634 434 1313 
Q 434 1759 690 2068 
Q 947 2378 1403 2484 
z
M 1172 3481 
Q 1172 3119 1398 2916 
Q 1625 2713 2034 2713 
Q 2441 2713 2670 2916 
Q 2900 3119 2900 3481 
Q 2900 3844 2670 4047 
Q 2441 4250 2034 4250 
Q 1625 4250 1398 4047 
Q 1172 3844 1172 3481 
z
" id="DejaVuSans-38" transform="scale(0.015625)"/>
       </defs>
       <use xlink:href="#DejaVuSans-38"/>
       <use x="63.623047" xlink:href="#DejaVuSans-30"/>
       <use x="127.246094" xlink:href="#DejaVuSans-30"/>
       <use x="190.869141" xlink:href="#DejaVuSans-30"/>
       <use x="254.492188" xlink:href="#DejaVuSans-30"/>
      </g>
     </g>
    </g>
    <g id="xtick_6">
     <g id="text_6">
      <!-- 100000 -->
      <g style="fill:#262626;" transform="translate(517.750466 636.076563)scale(0.22 -0.22)">
       <defs>
        <path d="M 794 531 
L 1825 531 
L 1825 4091 
L 703 3866 
L 703 4441 
L 1819 4666 
L 2450 4666 
L 2450 531 
L 3481 531 
L 3481 0 
L 794 0 
L 794 531 
z
" id="DejaVuSans-31" transform="scale(0.015625)"/>
       </defs>
       <use xlink:href="#DejaVuSans-31"/>
       <use x="63.623047" xlink:href="#DejaVuSans-30"/>
       <use x="127.246094" xlink:href="#DejaVuSans-30"/>
       <use x="190.869141" xlink:href="#DejaVuSans-30"/>
       <use x="254.492188" xlink:href="#DejaVuSans-30"/>
       <use x="318.115234" xlink:href="#DejaVuSans-30"/>
      </g>
     </g>
    </g>
    <g id="text_7">
     <!-- MDTU -->
     <g style="fill:#262626;" transform="translate(304.593964 662.888125)scale(0.24 -0.24)">
      <defs>
       <path d="M 628 4666 
L 1569 4666 
L 2759 1491 
L 3956 4666 
L 4897 4666 
L 4897 0 
L 4281 0 
L 4281 4097 
L 3078 897 
L 2444 897 
L 1241 4097 
L 1241 0 
L 628 0 
L 628 4666 
z
" id="DejaVuSans-4d" transform="scale(0.015625)"/>
       <path d="M 1259 4147 
L 1259 519 
L 2022 519 
Q 2988 519 3436 956 
Q 3884 1394 3884 2338 
Q 3884 3275 3436 3711 
Q 2988 4147 2022 4147 
L 1259 4147 
z
M 628 4666 
L 1925 4666 
Q 3281 4666 3915 4102 
Q 4550 3538 4550 2338 
Q 4550 1131 3912 565 
Q 3275 0 1925 0 
L 628 0 
L 628 4666 
z
" id="DejaVuSans-44" transform="scale(0.015625)"/>
       <path d="M -19 4666 
L 3928 4666 
L 3928 4134 
L 2272 4134 
L 2272 0 
L 1638 0 
L 1638 4134 
L -19 4134 
L -19 4666 
z
" id="DejaVuSans-54" transform="scale(0.015625)"/>
       <path d="M 556 4666 
L 1191 4666 
L 1191 1831 
Q 1191 1081 1462 751 
Q 1734 422 2344 422 
Q 2950 422 3222 751 
Q 3494 1081 3494 1831 
L 3494 4666 
L 4128 4666 
L 4128 1753 
Q 4128 841 3676 375 
Q 3225 -91 2344 -91 
Q 1459 -91 1007 375 
Q 556 841 556 1753 
L 556 4666 
z
" id="DejaVuSans-55" transform="scale(0.015625)"/>
      </defs>
      <use xlink:href="#DejaVuSans-4d"/>
      <use x="86.279297" xlink:href="#DejaVuSans-44"/>
      <use x="163.28125" xlink:href="#DejaVuSans-54"/>
      <use x="224.365234" xlink:href="#DejaVuSans-55"/>
     </g>
    </g>
   </g>
   <g id="matplotlib.axis_2">
    <g id="ytick_1">
     <g id="text_8">
      <!-- 0.25 -->
      <g style="fill:#262626;" transform="translate(34.4275 577.34937)scale(0.22 -0.22)">
       <defs>
        <path d="M 684 794 
L 1344 794 
L 1344 0 
L 684 0 
L 684 794 
z
" id="DejaVuSans-2e" transform="scale(0.015625)"/>
        <path d="M 691 4666 
L 3169 4666 
L 3169 4134 
L 1269 4134 
L 1269 2991 
Q 1406 3038 1543 3061 
Q 1681 3084 1819 3084 
Q 2600 3084 3056 2656 
Q 3513 2228 3513 1497 
Q 3513 744 3044 326 
Q 2575 -91 1722 -91 
Q 1428 -91 1123 -41 
Q 819 9 494 109 
L 494 744 
Q 775 591 1075 516 
Q 1375 441 1709 441 
Q 2250 441 2565 725 
Q 2881 1009 2881 1497 
Q 2881 1984 2565 2268 
Q 2250 2553 1709 2553 
Q 1456 2553 1204 2497 
Q 953 2441 691 2322 
L 691 4666 
z
" id="DejaVuSans-35" transform="scale(0.015625)"/>
       </defs>
       <use xlink:href="#DejaVuSans-30"/>
       <use x="63.623047" xlink:href="#DejaVuSans-2e"/>
       <use x="95.410156" xlink:href="#DejaVuSans-32"/>
       <use x="159.033203" xlink:href="#DejaVuSans-35"/>
      </g>
     </g>
    </g>
    <g id="ytick_2">
     <g id="text_9">
      <!-- 0.50 -->
      <g style="fill:#262626;" transform="translate(34.4275 516.896153)scale(0.22 -0.22)">
       <use xlink:href="#DejaVuSans-30"/>
       <use x="63.623047" xlink:href="#DejaVuSans-2e"/>
       <use x="95.410156" xlink:href="#DejaVuSans-35"/>
       <use x="159.033203" xlink:href="#DejaVuSans-30"/>
      </g>
     </g>
    </g>
    <g id="ytick_3">
     <g id="text_10">
      <!-- 0.75 -->
      <g style="fill:#262626;" transform="translate(34.4275 456.442936)scale(0.22 -0.22)">
       <defs>
        <path d="M 525 4666 
L 3525 4666 
L 3525 4397 
L 1831 0 
L 1172 0 
L 2766 4134 
L 525 4134 
L 525 4666 
z
" id="DejaVuSans-37" transform="scale(0.015625)"/>
       </defs>
       <use xlink:href="#DejaVuSans-30"/>
       <use x="63.623047" xlink:href="#DejaVuSans-2e"/>
       <use x="95.410156" xlink:href="#DejaVuSans-37"/>
       <use x="159.033203" xlink:href="#DejaVuSans-35"/>
      </g>
     </g>
    </g>
    <g id="ytick_4">
     <g id="text_11">
      <!-- 1.00 -->
      <g style="fill:#262626;" transform="translate(34.4275 395.989719)scale(0.22 -0.22)">
       <use xlink:href="#DejaVuSans-31"/>
       <use x="63.623047" xlink:href="#DejaVuSans-2e"/>
       <use x="95.410156" xlink:href="#DejaVuSans-30"/>
       <use x="159.033203" xlink:href="#DejaVuSans-30"/>
      </g>
     </g>
    </g>
    <g id="ytick_5">
     <g id="text_12">
      <!-- 1.25 -->
      <g style="fill:#262626;" transform="translate(34.4275 335.536502)scale(0.22 -0.22)">
       <use xlink:href="#DejaVuSans-31"/>
       <use x="63.623047" xlink:href="#DejaVuSans-2e"/>
       <use x="95.410156" xlink:href="#DejaVuSans-32"/>
       <use x="159.033203" xlink:href="#DejaVuSans-35"/>
      </g>
     </g>
    </g>
    <g id="ytick_6">
     <g id="text_13">
      <!-- 1.50 -->
      <g style="fill:#262626;" transform="translate(34.4275 275.083285)scale(0.22 -0.22)">
       <use xlink:href="#DejaVuSans-31"/>
       <use x="63.623047" xlink:href="#DejaVuSans-2e"/>
       <use x="95.410156" xlink:href="#DejaVuSans-35"/>
       <use x="159.033203" xlink:href="#DejaVuSans-30"/>
      </g>
     </g>
    </g>
    <g id="ytick_7">
     <g id="text_14">
      <!-- 1.75 -->
      <g style="fill:#262626;" transform="translate(34.4275 214.630068)scale(0.22 -0.22)">
       <use xlink:href="#DejaVuSans-31"/>
       <use x="63.623047" xlink:href="#DejaVuSans-2e"/>
       <use x="95.410156" xlink:href="#DejaVuSans-37"/>
       <use x="159.033203" xlink:href="#DejaVuSans-35"/>
      </g>
     </g>
    </g>
    <g id="ytick_8">
     <g id="text_15">
      <!-- 2.00 -->
      <g style="fill:#262626;" transform="translate(34.4275 154.176851)scale(0.22 -0.22)">
       <use xlink:href="#DejaVuSans-32"/>
       <use x="63.623047" xlink:href="#DejaVuSans-2e"/>
       <use x="95.410156" xlink:href="#DejaVuSans-30"/>
       <use x="159.033203" xlink:href="#DejaVuSans-30"/>
      </g>
     </g>
    </g>
    <g id="text_16">
     <!-- $E$ -->
     <g style="fill:#262626;" transform="translate(25.43625 364.352286)rotate(-90)scale(0.24 -0.24)">
      <defs>
       <path d="M 1081 4666 
L 4031 4666 
L 3928 4134 
L 1606 4134 
L 1338 2753 
L 3566 2753 
L 3463 2222 
L 1234 2222 
L 909 531 
L 3284 531 
L 3181 0 
L 172 0 
L 1081 4666 
z
" id="DejaVuSans-Oblique-45" transform="scale(0.015625)"/>
      </defs>
      <use transform="translate(0 0.09375)" xlink:href="#DejaVuSans-Oblique-45"/>
     </g>
    </g>
   </g>
   <g id="line2d_1">
    <path clip-path="url(#pac25535259)" d="M 120.856213 530.614846 
L 121.295319 436.959302 
L 121.514872 543.447458 
L 121.734425 435.428905 
L 121.953978 461.452003 
L 122.173532 551.105982 
L 122.612638 481.994714 
L 122.832191 507.526949 
L 123.051744 396.287256 
L 123.271297 546.252965 
L 123.490851 449.153042 
L 123.710404 521.259835 
L 123.929957 427.859599 
L 124.14951 485.324302 
L 124.369063 467.399865 
L 124.588616 518.591356 
L 124.808169 511.164509 
L 125.027723 424.596521 
L 125.247276 477.71044 
L 125.466829 307.367009 
L 125.686382 434.705054 
L 125.905935 477.009255 
L 126.125488 450.667153 
L 126.345041 438.770807 
L 126.564595 481.811917 
L 126.784148 483.583983 
L 127.003701 429.851944 
L 127.223254 473.211532 
L 127.442807 390.522014 
L 127.881914 516.711989 
L 128.101467 363.261511 
L 128.32102 350.042762 
L 128.540573 485.847926 
L 128.760126 432.406776 
L 128.979679 477.407231 
L 129.199232 458.642574 
L 129.418786 521.549148 
L 129.638339 503.008452 
L 129.857892 457.67504 
L 130.077445 456.382026 
L 130.296998 525.60986 
L 130.516551 408.318573 
L 130.736105 505.452569 
L 130.955658 455.475554 
L 131.175211 547.751406 
L 131.394764 488.747484 
L 131.614317 518.182245 
L 131.83387 496.117974 
L 132.053423 432.702005 
L 132.272977 449.413686 
L 132.49253 475.735712 
L 132.712083 467.55313 
L 132.931636 419.104058 
L 133.151189 413.97911 
L 133.590296 456.9599 
L 133.809849 450.459537 
L 134.029402 376.90854 
L 134.248955 427.024692 
L 134.468508 433.091459 
L 134.688061 362.356474 
L 134.907614 441.414137 
L 135.127168 245.809166 
L 135.346721 501.398887 
L 135.566274 450.348395 
L 135.785827 450.397002 
L 136.00538 374.56639 
L 136.444487 466.710352 
L 136.66404 491.129798 
L 136.883593 475.904956 
L 137.103146 438.721619 
L 137.322699 463.914965 
L 137.542252 540.373858 
L 137.761805 458.995652 
L 137.981359 564.206965 
L 138.200912 520.892346 
L 138.420465 445.091201 
L 138.859571 497.912872 
L 139.079124 376.763344 
L 139.518231 477.645567 
L 139.737784 487.284476 
L 139.957337 478.187233 
L 140.17689 557.982053 
L 140.615996 425.529525 
L 140.83555 495.642057 
L 141.055103 499.695085 
L 141.274656 489.102869 
L 141.494209 544.194542 
L 141.713762 522.861228 
L 141.933315 438.619052 
L 142.152869 407.08001 
L 142.372422 394.632644 
L 142.591975 535.277911 
L 142.811528 493.784851 
L 143.031081 411.013158 
L 143.250634 512.131477 
L 143.470187 491.652021 
L 143.689741 515.307366 
L 143.909294 502.821451 
L 144.128847 518.641915 
L 144.3484 461.510631 
L 144.567953 454.861837 
L 144.787506 474.919171 
L 145.00706 482.462271 
L 145.226613 386.560867 
L 145.446166 423.650117 
L 145.665719 495.228318 
L 145.885272 409.76925 
L 146.104825 474.34482 
L 146.324378 460.905748 
L 146.543932 403.31983 
L 146.763485 277.372872 
L 146.983038 439.13741 
L 147.202591 454.061899 
L 147.422144 484.682617 
L 147.641697 459.825856 
L 148.080804 358.368745 
L 148.300357 336.696885 
L 148.51991 361.091345 
L 148.739463 275.67857 
L 148.959016 435.996794 
L 149.398123 509.9318 
L 149.617676 523.783191 
L 149.837229 350.986854 
L 150.276335 473.442679 
L 150.495888 459.72012 
L 150.715441 479.985911 
L 150.934995 447.898734 
L 151.154548 519.588025 
L 151.374101 418.37446 
L 151.593654 516.720871 
L 151.813207 472.335769 
L 152.03276 476.45953 
L 152.252314 551.465471 
L 152.471867 491.837212 
L 152.69142 390.995052 
L 152.910973 496.888808 
L 153.130526 489.09037 
L 153.350079 443.642059 
L 153.569632 529.439595 
L 154.008739 424.436656 
L 154.228292 437.918721 
L 154.667398 481.431721 
L 154.886951 491.043205 
L 155.106505 494.560977 
L 155.326058 462.914915 
L 155.765164 338.211179 
L 155.984717 438.881609 
L 156.20427 457.540208 
L 156.423823 458.530871 
L 156.643377 466.370377 
L 156.86293 450.655547 
L 157.082483 526.418523 
L 157.302036 543.165163 
L 157.741142 445.458998 
L 157.960696 384.935567 
L 158.180249 498.563844 
L 158.399802 414.059644 
L 158.619355 438.842364 
L 159.058461 529.867316 
L 159.278014 549.275021 
L 159.497568 401.886058 
L 159.717121 489.114446 
L 159.936674 404.819745 
L 160.156227 491.175023 
L 160.37578 493.798488 
L 160.595333 514.00106 
L 160.814887 462.528666 
L 161.03444 474.959766 
L 161.253993 529.629385 
L 161.473546 447.199543 
L 161.693099 430.945085 
L 161.912652 346.434177 
L 162.132205 479.867571 
L 162.351759 406.484464 
L 162.571312 560.493278 
L 162.790865 430.019229 
L 163.010418 527.652699 
L 163.229971 454.036134 
L 163.449524 513.518656 
L 163.669078 364.460588 
L 163.888631 317.396773 
L 164.108184 445.638057 
L 164.327737 495.040901 
L 164.54729 414.441249 
L 164.766843 481.174876 
L 164.986396 427.713964 
L 165.425503 385.365966 
L 165.645056 572.532871 
L 166.084162 368.063569 
L 166.303715 518.015334 
L 166.523269 488.978099 
L 166.742822 537.717021 
L 166.962375 328.048331 
L 167.181928 481.490952 
L 167.401481 494.521802 
L 167.621034 272.796327 
L 167.840587 397.447785 
L 168.060141 452.614089 
L 168.279694 346.298525 
L 168.499247 504.013505 
L 168.7188 486.903113 
L 168.938353 513.88169 
L 169.157906 481.475456 
L 169.37746 523.605673 
L 169.597013 431.670615 
L 169.816566 405.060479 
L 170.036119 458.924637 
L 170.255672 313.92064 
L 170.475225 490.865713 
L 170.694778 418.257891 
L 170.914332 489.460745 
L 171.133885 431.469359 
L 171.353438 519.886413 
L 171.572991 521.016161 
L 171.792544 514.601015 
L 172.012097 449.794378 
L 172.231651 450.933845 
L 172.451204 429.221396 
L 172.670757 552.841224 
L 172.89031 526.37263 
L 173.329416 422.122522 
L 173.548969 441.610176 
L 173.768523 507.171907 
L 173.988076 425.625138 
L 174.207629 499.171634 
L 174.427182 500.885689 
L 174.646735 477.372632 
L 174.866288 524.086053 
L 175.085842 512.207471 
L 175.305395 431.909207 
L 175.524948 425.384436 
L 175.744501 318.688152 
L 175.964054 525.011463 
L 176.40316 365.096932 
L 176.622714 570.61832 
L 176.842267 417.003026 
L 177.06182 459.061033 
L 177.281373 428.56094 
L 177.500926 501.102512 
L 177.720479 471.532741 
L 177.940032 426.405847 
L 178.159586 474.589787 
L 178.379139 448.182051 
L 178.598692 497.87269 
L 178.818245 485.712293 
L 179.037798 402.528468 
L 179.257351 442.466206 
L 179.476905 512.232835 
L 179.696458 526.716674 
L 179.916011 492.30487 
L 180.135564 498.373451 
L 180.355117 292.677922 
L 180.57467 457.729549 
L 180.794223 389.09632 
L 181.013777 390.941973 
L 181.23333 524.41574 
L 181.452883 401.327255 
L 181.672436 484.027661 
L 181.891989 427.491752 
L 182.111542 429.978096 
L 182.331096 392.937915 
L 182.550649 547.226588 
L 182.770202 454.961557 
L 182.989755 486.02207 
L 183.209308 403.340352 
L 183.428861 466.730646 
L 183.648414 444.509704 
L 183.867968 350.857065 
L 184.087521 462.947067 
L 184.307074 492.920778 
L 184.526627 421.663675 
L 184.74618 429.102156 
L 184.965733 531.32031 
L 185.40484 392.153912 
L 185.624393 563.234376 
L 185.843946 369.181027 
L 186.063499 464.727177 
L 186.283052 389.120785 
L 186.502605 458.700087 
L 186.722159 455.592964 
L 186.941712 476.710194 
L 187.161265 400.787837 
L 187.380818 410.604098 
L 187.600371 443.341168 
L 187.819924 362.70195 
L 188.039478 530.604253 
L 188.259031 395.52701 
L 188.478584 469.740981 
L 188.698137 348.709489 
L 188.91769 423.697523 
L 189.137243 334.608431 
L 189.356796 503.985306 
L 189.57635 366.993257 
L 190.015456 513.815208 
L 190.235009 502.864771 
L 190.454562 282.921926 
L 190.674115 532.103074 
L 190.893669 436.153652 
L 191.113222 450.272104 
L 191.332775 474.63311 
L 191.552328 473.838487 
L 191.771881 509.259181 
L 192.210987 380.241241 
L 192.430541 459.038003 
L 192.869647 493.89837 
L 193.308753 445.179327 
L 193.528306 484.334834 
L 193.74786 437.32063 
L 193.967413 507.08051 
L 194.186966 466.461923 
L 194.406519 402.914826 
L 194.626072 391.597209 
L 194.845625 504.45916 
L 195.065178 473.711392 
L 195.284732 471.594524 
L 195.504285 462.273881 
L 195.723838 460.957663 
L 195.943391 507.338507 
L 196.162944 484.560601 
L 196.382497 431.403913 
L 196.602051 498.057899 
L 196.821604 380.595977 
L 197.26071 466.410125 
L 197.480263 461.933063 
L 197.699816 379.331881 
L 197.919369 491.051932 
L 198.358476 443.72154 
L 198.578029 377.232089 
L 198.797582 520.803453 
L 199.017135 508.84419 
L 199.236688 219.087144 
L 199.456242 496.693891 
L 199.675795 472.152505 
L 199.895348 384.441987 
L 200.114901 513.69262 
L 200.334454 367.663893 
L 200.554007 356.327221 
L 200.77356 451.543981 
L 200.993114 463.139528 
L 201.43222 541.683845 
L 201.651773 452.607762 
L 201.871326 450.604836 
L 202.090879 505.347689 
L 202.310432 458.550015 
L 202.529986 480.529892 
L 202.749539 464.023873 
L 202.969092 479.452551 
L 203.188645 435.134438 
L 203.627751 446.732457 
L 203.847305 554.553241 
L 204.066858 367.812109 
L 204.286411 479.408437 
L 204.505964 473.857479 
L 204.94507 498.325563 
L 205.164623 477.71436 
L 205.384177 385.273108 
L 205.60373 482.392735 
L 205.823283 514.12009 
L 206.042836 475.923338 
L 206.262389 370.789546 
L 206.481942 426.294703 
L 206.701496 517.372398 
L 206.921049 505.907762 
L 207.140602 426.640143 
L 207.360155 511.272264 
L 207.579708 404.964788 
L 208.018814 508.805639 
L 208.238368 425.002279 
L 208.457921 505.140286 
L 208.677474 474.354612 
L 208.897027 393.520989 
L 209.11658 505.043262 
L 209.336133 442.28946 
L 209.77524 486.088194 
L 209.994793 419.980806 
L 210.214346 474.238146 
L 210.433899 287.589194 
L 210.653452 516.661155 
L 210.873005 380.610834 
L 211.092559 415.925419 
L 211.312112 418.939386 
L 211.531665 521.942923 
L 211.751218 491.297202 
L 211.970771 492.648188 
L 212.190324 368.336826 
L 212.409878 392.780674 
L 212.629431 517.336099 
L 212.848984 364.278839 
L 213.068537 407.004735 
L 213.28809 483.106022 
L 213.507643 446.920566 
L 213.727196 510.43253 
L 213.94675 518.076385 
L 214.166303 538.528274 
L 214.385856 479.520747 
L 214.605409 490.355565 
L 214.824962 521.909768 
L 215.483622 401.54903 
L 215.922728 493.977029 
L 216.361834 319.549566 
L 216.581387 413.052021 
L 216.800941 405.8969 
L 217.240047 496.53927 
L 217.679153 411.270283 
L 217.898706 441.848974 
L 218.11826 515.856409 
L 218.337813 437.991527 
L 218.557366 457.90872 
L 218.776919 412.612707 
L 218.996472 536.333894 
L 219.216025 534.069968 
L 219.435578 451.478249 
L 219.655132 453.673131 
L 219.874685 492.321718 
L 220.094238 505.090443 
L 220.313791 478.049035 
L 220.533344 466.111028 
L 221.192004 402.900759 
L 221.411557 434.046059 
L 221.63111 510.149355 
L 222.070216 519.264059 
L 222.509323 362.941562 
L 222.728876 495.171369 
L 222.948429 465.483588 
L 223.167982 479.028445 
L 223.387535 509.764067 
L 223.607088 419.771327 
L 223.826642 484.20398 
L 224.046195 431.423973 
L 224.265748 442.794453 
L 224.485301 418.348384 
L 224.704854 433.865829 
L 224.924407 491.113398 
L 225.14396 407.930774 
L 225.363514 489.790287 
L 225.583067 438.406354 
L 225.80262 489.759535 
L 226.022173 468.114493 
L 226.241726 505.103825 
L 226.461279 427.951091 
L 227.119939 486.16373 
L 227.339492 433.914358 
L 227.778598 518.245754 
L 227.998151 488.199098 
L 228.217705 526.187121 
L 228.437258 323.73444 
L 228.876364 443.079124 
L 229.095917 449.270583 
L 229.31547 406.582934 
L 229.535023 479.017454 
L 229.754577 427.554339 
L 229.97413 439.026283 
L 230.193683 505.369826 
L 230.413236 405.311506 
L 230.632789 404.285253 
L 230.852342 404.138486 
L 231.071896 299.068124 
L 231.291449 285.273782 
L 231.730555 525.952153 
L 231.950108 434.495256 
L 232.169661 461.764212 
L 232.389214 535.870667 
L 232.608768 360.955891 
L 232.828321 507.749723 
L 233.047874 523.776346 
L 233.267427 464.055178 
L 233.48698 477.217377 
L 233.706533 335.32703 
L 234.14564 522.726382 
L 234.365193 444.130948 
L 234.584746 528.869476 
L 234.804299 493.799983 
L 235.023852 479.93918 
L 235.243405 435.724369 
L 235.462959 511.364795 
L 235.682512 536.977226 
L 235.902065 441.70129 
L 236.341171 400.874916 
L 236.560724 536.798787 
L 236.780278 500.112827 
L 236.999831 418.455939 
L 237.438937 530.422921 
L 237.65849 501.975095 
L 237.878043 449.843501 
L 238.536703 557.789648 
L 238.756256 496.262871 
L 238.975809 516.459883 
L 239.195362 440.048834 
L 239.414915 475.680828 
L 239.634469 439.332005 
L 239.854022 423.836768 
L 240.073575 489.55901 
L 240.293128 428.685825 
L 240.512681 506.498746 
L 240.732234 524.789097 
L 240.951787 509.467705 
L 241.171341 434.615224 
L 241.390894 513.993065 
L 241.610447 416.618955 
L 241.83 542.388075 
L 242.049553 471.954294 
L 242.269106 523.460494 
L 242.48866 433.025239 
L 242.708213 415.001278 
L 242.927766 457.929684 
L 243.147319 290.794844 
L 243.366872 453.913237 
L 243.805978 423.180666 
L 244.025532 358.976046 
L 244.245085 463.84783 
L 244.464638 359.094545 
L 244.903744 526.680447 
L 245.123297 411.414194 
L 245.342851 402.244972 
L 245.781957 504.604926 
L 246.00151 362.667772 
L 246.221063 339.078986 
L 246.440616 506.700037 
L 246.660169 489.518884 
L 246.879723 511.19997 
L 247.099276 415.21029 
L 247.318829 380.74166 
L 247.538382 420.041274 
L 247.757935 487.889857 
L 247.977488 434.317771 
L 248.197042 420.740985 
L 248.416595 473.664632 
L 248.855701 514.169073 
L 249.075254 441.897827 
L 249.294807 505.959942 
L 249.51436 489.690309 
L 249.733914 442.867861 
L 249.953467 423.815893 
L 250.17302 504.207102 
L 250.392573 504.142306 
L 250.612126 538.90911 
L 250.831679 429.448049 
L 251.051233 475.958601 
L 251.270786 482.078546 
L 251.490339 549.748078 
L 251.709892 442.352551 
L 251.929445 474.812436 
L 252.148998 403.956056 
L 252.368551 462.966372 
L 252.588105 357.672405 
L 252.807658 455.412684 
L 253.027211 486.50632 
L 253.246764 307.862751 
L 253.466317 466.515952 
L 253.68587 393.697455 
L 253.905424 526.16304 
L 254.124977 471.027982 
L 254.34453 490.004659 
L 254.564083 536.901662 
L 254.783636 435.400966 
L 255.003189 457.738365 
L 255.222742 432.404753 
L 255.442296 450.251223 
L 255.661849 423.805467 
L 255.881402 541.718166 
L 256.100955 393.944219 
L 256.320508 380.633844 
L 256.540061 332.770978 
L 257.198721 525.980256 
L 257.418274 455.740196 
L 257.637827 445.171483 
L 257.85738 350.364024 
L 258.076933 500.476305 
L 258.296487 519.109829 
L 258.51604 483.325517 
L 258.735593 533.795643 
L 258.955146 502.654516 
L 259.394252 312.699573 
L 259.613805 418.220831 
L 259.833359 465.652203 
L 260.052912 420.510318 
L 260.272465 536.315301 
L 260.492018 405.799329 
L 260.711571 383.608748 
L 260.931124 495.580199 
L 261.150678 400.037626 
L 261.589784 482.48331 
L 261.809337 481.530532 
L 262.02889 441.49148 
L 262.248443 515.795043 
L 262.68755 421.807182 
L 262.907103 327.374437 
L 263.126656 489.31502 
L 263.565762 310.446522 
L 263.785315 445.568233 
L 264.004869 430.346285 
L 264.224422 500.281299 
L 264.443975 441.442097 
L 264.663528 352.812207 
L 265.102634 442.232956 
L 265.761294 554.288041 
L 265.980847 518.365758 
L 266.419953 389.49827 
L 266.639506 131.956182 
L 267.078613 477.332189 
L 267.298166 357.046019 
L 267.517719 427.839113 
L 267.737272 412.652467 
L 267.956825 493.259977 
L 268.176378 436.640253 
L 268.395932 527.75762 
L 268.615485 495.267753 
L 268.835038 572.747908 
L 269.274144 427.245543 
L 269.493697 522.850383 
L 269.713251 461.297045 
L 269.932804 478.105501 
L 270.152357 529.552744 
L 270.591463 475.214353 
L 271.250123 521.141695 
L 271.469676 488.811622 
L 271.689229 437.787512 
L 272.347888 554.034414 
L 272.567442 517.467657 
L 273.006548 411.022174 
L 273.226101 499.447704 
L 273.445654 436.069574 
L 273.665207 406.553844 
L 273.88476 434.728378 
L 274.104314 447.899719 
L 274.323867 515.276942 
L 274.54342 430.449735 
L 274.982526 396.509371 
L 275.421633 539.629123 
L 275.641186 475.081876 
L 275.860739 509.373234 
L 276.299845 432.703506 
L 276.519398 420.523159 
L 276.738951 299.30232 
L 276.958505 527.136422 
L 277.178058 525.333731 
L 277.397611 510.182809 
L 277.617164 401.824456 
L 277.836717 414.832881 
L 278.05627 541.584243 
L 278.275824 503.061611 
L 278.495377 486.817898 
L 278.71493 523.986441 
L 278.934483 300.478656 
L 279.373589 440.426861 
L 279.593142 409.482555 
L 279.812696 435.953948 
L 280.032249 515.131047 
L 280.251802 513.220986 
L 280.471355 519.542178 
L 280.690908 489.030821 
L 280.910461 399.107505 
L 281.130014 540.659224 
L 281.349568 503.319631 
L 281.569121 388.560126 
L 281.788674 486.638802 
L 282.008227 412.335802 
L 282.22778 482.421731 
L 282.447333 474.498425 
L 282.666887 500.579431 
L 282.88644 490.734437 
L 283.105993 519.606149 
L 284.203759 374.891287 
L 284.642865 493.242964 
L 284.862418 473.381714 
L 285.081971 467.823228 
L 285.301524 395.060169 
L 285.521078 543.028749 
L 285.740631 415.327511 
L 285.960184 533.993763 
L 286.39929 498.380772 
L 286.618843 448.791914 
L 286.838396 471.034351 
L 287.277503 445.20883 
L 287.497056 489.54324 
L 287.716609 432.703134 
L 287.936162 482.649887 
L 288.155715 485.885636 
L 288.375269 532.588893 
L 288.594822 457.428252 
L 288.814375 422.459735 
L 289.033928 506.257465 
L 289.253481 508.787455 
L 289.473034 451.049845 
L 289.912141 521.403002 
L 290.131694 379.20028 
L 290.351247 468.535886 
L 290.790353 537.514308 
L 291.009906 450.663913 
L 291.22946 520.318534 
L 291.668566 413.736796 
L 291.888119 464.310817 
L 292.107672 472.098574 
L 292.327225 298.909481 
L 292.546778 460.430777 
L 292.766332 505.713002 
L 292.985885 424.869902 
L 293.205438 406.765527 
L 293.424991 553.407546 
L 293.644544 499.879802 
L 293.864097 484.908611 
L 294.083651 412.233716 
L 294.522757 432.019125 
L 294.74231 494.767145 
L 294.961863 470.282565 
L 295.181416 511.314533 
L 295.400969 415.200123 
L 295.840076 477.50078 
L 296.059629 444.10505 
L 296.279182 502.16484 
L 296.498735 355.734363 
L 296.718288 363.161025 
L 296.937842 486.664069 
L 297.157395 325.517761 
L 297.376948 448.082267 
L 297.596501 270.206547 
L 297.816054 485.092682 
L 298.25516 436.038662 
L 298.474714 454.180666 
L 298.694267 516.189097 
L 298.91382 467.006331 
L 299.133373 262.230616 
L 299.352926 500.589896 
L 299.572479 500.80678 
L 299.792033 462.876467 
L 300.231139 545.361627 
L 300.450692 456.89235 
L 300.670245 320.231009 
L 300.889798 456.507087 
L 301.109351 328.939862 
L 301.328905 413.861987 
L 301.548458 383.480577 
L 301.768011 464.216411 
L 301.987564 423.786514 
L 302.207117 445.718453 
L 302.42667 437.900466 
L 302.646224 401.254803 
L 303.08533 507.013699 
L 303.304883 370.954956 
L 303.524436 398.051737 
L 303.743989 494.112727 
L 303.963542 400.372214 
L 304.183096 367.096574 
L 304.622202 516.528933 
L 305.061308 410.864281 
L 305.280861 489.560711 
L 305.500415 296.798483 
L 305.719968 525.008082 
L 305.939521 507.217398 
L 306.159074 391.070554 
L 306.378627 454.781897 
L 306.59818 387.519556 
L 306.817733 492.802631 
L 307.037287 523.454262 
L 307.25684 408.680586 
L 307.476393 480.726645 
L 307.695946 439.537174 
L 307.915499 371.414648 
L 308.135052 506.088565 
L 308.354605 427.878255 
L 308.574159 439.868048 
L 308.793712 462.717586 
L 309.013265 461.62557 
L 309.232818 496.536232 
L 309.452371 445.690685 
L 309.671924 528.938414 
L 309.891478 444.764352 
L 310.111031 403.427899 
L 310.330584 552.98629 
L 310.550137 367.102336 
L 310.76969 524.103466 
L 310.989243 404.169181 
L 311.208796 541.064952 
L 311.42835 534.507418 
L 311.647903 472.071242 
L 311.867456 470.387088 
L 312.087009 477.058613 
L 312.306562 540.02641 
L 312.526115 443.08028 
L 313.184775 501.162961 
L 313.404328 406.66094 
L 313.623881 466.757134 
L 313.843434 495.303881 
L 314.062987 507.723387 
L 314.282541 427.750741 
L 314.502094 532.339953 
L 314.721647 369.459137 
L 314.9412 484.396888 
L 315.160753 415.877936 
L 315.380306 414.959726 
L 315.59986 418.887172 
L 315.819413 470.787533 
L 316.038966 560.949322 
L 316.258519 490.56731 
L 316.478072 370.894752 
L 316.697625 336.304045 
L 316.917178 447.984525 
L 317.136732 451.988811 
L 317.356285 465.769386 
L 317.575838 358.833336 
L 317.795391 516.318426 
L 318.014944 542.947106 
L 318.234497 363.278507 
L 318.454051 385.667075 
L 318.673604 530.071075 
L 318.893157 385.062435 
L 319.11271 532.27756 
L 319.332263 532.554324 
L 319.551816 532.050976 
L 319.771369 341.351676 
L 319.990923 534.890952 
L 320.430029 467.890782 
L 320.869135 503.765494 
L 321.088688 395.452956 
L 321.308242 418.075385 
L 321.527795 504.740231 
L 321.747348 493.765778 
L 321.966901 532.113163 
L 322.186454 478.032715 
L 322.406007 500.926672 
L 322.62556 432.778623 
L 322.845114 479.570742 
L 323.064667 449.940323 
L 323.28422 473.991201 
L 323.503773 332.448237 
L 323.723326 331.22078 
L 323.942879 521.370396 
L 324.162433 500.393464 
L 324.381986 503.322377 
L 324.601539 490.621941 
L 324.821092 493.42249 
L 325.040645 372.787853 
L 325.260198 493.732364 
L 325.479751 502.942565 
L 325.699305 440.562924 
L 325.918858 442.988277 
L 326.138411 481.55819 
L 326.357964 492.851895 
L 326.577517 529.84557 
L 326.79707 408.141492 
L 327.016624 443.249582 
L 327.236177 419.961323 
L 327.45573 428.176298 
L 327.675283 457.625515 
L 327.894836 424.027468 
L 328.114389 494.9253 
L 328.333942 513.862125 
L 328.553496 543.697344 
L 328.992602 438.440734 
L 329.212155 334.569959 
L 329.431708 498.434041 
L 329.651261 456.926789 
L 329.870815 467.592433 
L 330.090368 391.929519 
L 330.309921 509.291072 
L 330.529474 359.960583 
L 330.749027 449.821363 
L 330.96858 446.669699 
L 331.188133 486.178321 
L 331.407687 446.853691 
L 331.62724 530.387863 
L 331.846793 483.057641 
L 332.066346 515.154769 
L 332.285899 500.28569 
L 332.505452 470.346387 
L 332.725006 501.630896 
L 332.944559 482.703531 
L 333.164112 475.582843 
L 333.383665 436.175087 
L 333.603218 419.305671 
L 334.042324 509.057118 
L 334.261878 380.933984 
L 334.700984 370.643799 
L 334.920537 481.048267 
L 335.14009 445.931177 
L 335.359643 448.129478 
L 335.579196 464.135475 
L 335.79875 434.714375 
L 336.018303 526.120763 
L 336.237856 419.106871 
L 336.676962 451.345843 
L 336.896515 372.241499 
L 337.116069 521.753034 
L 337.335622 397.590911 
L 337.774728 501.112509 
L 337.994281 383.270343 
L 338.652941 483.826403 
L 338.872494 301.402256 
L 339.092047 447.410133 
L 339.3116 496.019686 
L 339.531153 344.614364 
L 339.750706 445.91788 
L 339.97026 484.936654 
L 340.189813 356.929202 
L 340.409366 408.854831 
L 340.628919 494.263793 
L 341.068025 459.219553 
L 341.287578 505.677292 
L 341.946238 469.412854 
L 342.165791 502.140905 
L 342.385344 481.622155 
L 342.604897 501.453101 
L 342.824451 345.364294 
L 343.044004 471.934037 
L 343.263557 434.205582 
L 343.48311 501.858819 
L 343.702663 487.711407 
L 343.922216 521.203334 
L 344.141769 512.020467 
L 344.361323 433.329775 
L 344.580876 512.288623 
L 344.800429 372.063087 
L 345.019982 348.813445 
L 345.239535 487.122515 
L 345.678642 476.449336 
L 345.898195 430.560206 
L 346.117748 413.670413 
L 346.337301 355.153242 
L 346.556854 534.587202 
L 346.776407 397.35186 
L 346.99596 533.483223 
L 347.215514 547.759729 
L 347.435067 317.935836 
L 347.65462 495.602174 
L 347.874173 485.715347 
L 348.093726 299.286468 
L 348.313279 521.141213 
L 348.532833 462.073611 
L 348.752386 498.214246 
L 348.971939 501.276006 
L 349.191492 420.482356 
L 349.411045 497.660574 
L 349.630598 514.245833 
L 349.850151 448.944164 
L 350.069705 488.517972 
L 350.289258 478.756855 
L 350.508811 538.465416 
L 350.728364 426.670683 
L 350.947917 534.242209 
L 351.16747 337.962702 
L 351.387024 513.828737 
L 351.606577 419.645116 
L 351.82613 406.30612 
L 352.265236 539.655585 
L 352.484789 398.000334 
L 352.923896 522.526071 
L 353.143449 497.505428 
L 353.363002 501.477293 
L 353.582555 428.819739 
L 353.802108 495.046418 
L 354.021661 506.602922 
L 354.241215 332.537239 
L 354.460768 364.139814 
L 354.680321 441.205246 
L 355.119427 476.996885 
L 355.33898 486.519562 
L 355.558533 484.350824 
L 355.778087 508.739372 
L 356.217193 414.468361 
L 356.436746 419.575234 
L 356.656299 475.05747 
L 356.875852 456.017046 
L 357.095406 487.689824 
L 357.314959 485.073358 
L 357.534512 421.348784 
L 357.754065 475.887171 
L 357.973618 486.544569 
L 358.193171 581.38839 
L 358.412724 501.054837 
L 358.632278 271.481175 
L 358.851831 431.215845 
L 359.071384 422.556192 
L 359.290937 392.727371 
L 359.730043 505.404648 
L 359.949596 423.774347 
L 360.16915 459.550314 
L 360.388703 430.401968 
L 360.608256 506.482549 
L 360.827809 513.508043 
L 361.047362 473.823709 
L 361.266915 491.060346 
L 361.486469 493.879273 
L 361.706022 475.384597 
L 361.925575 404.887472 
L 362.145128 414.551942 
L 362.364681 458.040823 
L 362.584234 464.028729 
L 362.803787 549.198081 
L 363.023341 461.765681 
L 363.242894 451.840039 
L 363.462447 321.888536 
L 363.682 485.162715 
L 363.901553 484.921258 
L 364.121106 397.564395 
L 364.34066 476.960725 
L 364.560213 430.923798 
L 364.779766 508.834435 
L 364.999319 450.403766 
L 365.218872 438.683475 
L 365.438425 509.110509 
L 365.657978 503.450539 
L 365.877532 489.510643 
L 366.097085 465.292002 
L 366.316638 489.453658 
L 366.536191 488.095839 
L 366.755744 528.200964 
L 366.975297 437.905199 
L 367.194851 426.972222 
L 367.633957 482.627425 
L 367.85351 487.199829 
L 368.073063 379.189479 
L 368.292616 396.883352 
L 368.512169 450.811337 
L 368.731723 458.889759 
L 368.951276 494.353419 
L 369.390382 454.534712 
L 369.609935 489.852647 
L 369.829488 484.006596 
L 370.049042 441.522537 
L 370.268595 548.240722 
L 370.488148 345.009953 
L 370.707701 482.070277 
L 370.927254 477.610036 
L 371.146807 506.929759 
L 371.36636 495.606888 
L 371.585914 517.623249 
L 371.805467 502.18 
L 372.244573 382.065305 
L 372.903233 491.156741 
L 373.122786 446.1538 
L 373.561892 486.340999 
L 373.781445 554.956522 
L 374.000998 544.689767 
L 374.220551 542.757437 
L 374.440105 396.904213 
L 374.659658 474.542607 
L 374.879211 472.755471 
L 375.098764 412.902443 
L 375.318317 500.169287 
L 375.53787 439.932845 
L 375.757424 506.648459 
L 376.19653 326.687354 
L 376.416083 387.132607 
L 376.635636 508.57022 
L 376.855189 495.154441 
L 377.074742 541.995218 
L 377.294296 493.939056 
L 377.513849 362.530066 
L 377.733402 454.545043 
L 377.952955 402.041594 
L 378.172508 410.758289 
L 378.611615 530.173467 
L 378.831168 511.841811 
L 379.050721 410.107364 
L 379.270274 466.873522 
L 379.489827 393.452195 
L 379.70938 513.885833 
L 380.148487 423.463085 
L 380.36804 528.68505 
L 380.807146 462.026976 
L 381.026699 531.529067 
L 381.246252 413.13117 
L 381.465806 474.68667 
L 381.685359 436.05489 
L 381.904912 434.077775 
L 382.124465 417.639691 
L 382.563571 433.300601 
L 382.783124 348.942804 
L 383.002678 335.745204 
L 383.222231 488.317553 
L 383.441784 486.261382 
L 383.88089 393.032548 
L 384.100443 402.155292 
L 384.53955 493.467041 
L 384.759103 509.494543 
L 385.417762 404.513921 
L 385.637315 419.821376 
L 385.856869 404.729228 
L 386.076422 537.123609 
L 386.295975 254.13374 
L 386.515528 521.054234 
L 386.735081 446.968655 
L 386.954634 463.630642 
L 387.174187 534.258713 
L 387.393741 428.281695 
L 387.613294 517.319289 
L 387.832847 443.385442 
L 388.0524 507.851577 
L 388.271953 461.364363 
L 388.491506 216.136832 
L 388.71106 545.442937 
L 388.930613 405.087951 
L 389.150166 457.491394 
L 389.369719 471.945353 
L 389.589272 366.735493 
L 389.808825 453.570727 
L 390.028378 342.094961 
L 390.247932 491.564317 
L 390.467485 374.726767 
L 390.687038 476.908463 
L 390.906591 442.605666 
L 391.126144 545.375834 
L 391.345697 439.614497 
L 391.565251 449.148446 
L 391.784804 327.647848 
L 392.004357 379.706919 
L 392.22391 491.598206 
L 392.443463 419.756042 
L 392.663016 412.322009 
L 392.882569 517.639449 
L 393.102123 383.616051 
L 393.321676 487.201196 
L 393.541229 501.184169 
L 393.760782 473.361187 
L 393.980335 415.465164 
L 394.199888 419.052764 
L 394.419442 505.820117 
L 394.638995 492.259906 
L 394.858548 454.420986 
L 395.078101 495.458211 
L 395.297654 484.223526 
L 395.517207 388.991652 
L 395.73676 421.950239 
L 395.956314 509.432628 
L 396.175867 331.774241 
L 396.39542 339.165316 
L 396.614973 467.519059 
L 396.834526 508.183295 
L 397.054079 384.913939 
L 397.273633 478.005991 
L 397.493186 440.231693 
L 397.712739 219.101206 
L 397.932292 452.561468 
L 398.151845 445.041501 
L 398.590951 538.058601 
L 399.030058 324.727777 
L 399.249611 417.462332 
L 399.469164 414.423428 
L 399.90827 522.234586 
L 400.127824 340.885231 
L 400.347377 286.838931 
L 400.786483 546.592583 
L 401.006036 391.969921 
L 401.225589 482.516668 
L 401.445142 483.535698 
L 401.664696 531.733117 
L 402.103802 435.271135 
L 402.323355 439.892664 
L 402.542908 328.910865 
L 402.762461 461.975802 
L 403.201568 363.857426 
L 403.421121 467.007123 
L 403.640674 495.877796 
L 403.860227 349.661007 
L 404.07978 471.606668 
L 404.299333 475.47842 
L 404.518887 497.427772 
L 404.73844 482.099737 
L 404.957993 369.031461 
L 405.177546 485.105356 
L 405.397099 457.489692 
L 405.616652 450.503785 
L 405.836206 543.784801 
L 406.055759 472.258046 
L 406.275312 521.805285 
L 406.494865 375.338483 
L 406.933971 514.814275 
L 407.373078 411.697006 
L 407.592631 540.610143 
L 407.812184 501.70358 
L 408.031737 489.453894 
L 408.25129 516.821573 
L 408.470843 439.889472 
L 408.690397 482.676046 
L 408.90995 381.887474 
L 409.129503 521.81243 
L 409.349056 481.55659 
L 409.568609 280.597376 
L 409.788162 384.760006 
L 410.007715 427.376488 
L 410.227269 495.422996 
L 410.446822 485.760734 
L 410.666375 322.15979 
L 410.885928 484.658854 
L 411.105481 386.447043 
L 411.325034 499.032597 
L 411.544587 374.507864 
L 411.764141 505.076652 
L 411.983694 429.154634 
L 412.203247 455.474994 
L 412.4228 337.128021 
L 412.642353 378.031511 
L 412.861906 473.421462 
L 413.08146 437.526573 
L 413.301013 537.385471 
L 413.520566 373.741046 
L 413.740119 505.016023 
L 413.959672 519.533291 
L 414.179225 468.800919 
L 414.398778 386.17229 
L 414.618332 411.221254 
L 414.837885 527.100942 
L 415.057438 466.845439 
L 415.276991 449.286643 
L 415.496544 511.83901 
L 415.716097 528.899372 
L 415.935651 430.821023 
L 416.155204 490.07895 
L 416.374757 417.992221 
L 416.59431 411.570032 
L 416.813863 382.224933 
L 417.252969 476.95853 
L 417.472523 423.288249 
L 417.692076 495.335637 
L 417.911629 450.182591 
L 418.131182 333.734499 
L 418.350735 473.618488 
L 418.570288 427.752255 
L 418.789842 339.399254 
L 419.009395 502.746772 
L 419.228948 522.989732 
L 419.448501 513.694019 
L 419.668054 472.997165 
L 419.887607 479.259807 
L 420.10716 426.280964 
L 420.326714 499.676944 
L 420.546267 523.833402 
L 420.985373 406.571104 
L 421.204926 470.766017 
L 421.424479 460.012542 
L 421.644033 574.707743 
L 421.863586 491.395007 
L 422.302692 458.892508 
L 422.522245 497.291824 
L 422.741798 491.998374 
L 422.961351 415.221169 
L 423.180905 485.775428 
L 423.400458 510.979745 
L 423.620011 380.519604 
L 423.839564 513.768991 
L 424.059117 414.174368 
L 424.27867 448.480265 
L 424.717777 390.477839 
L 424.93733 501.468515 
L 425.156883 409.313782 
L 425.376436 492.078023 
L 425.595989 280.125191 
L 425.815542 394.517494 
L 426.035096 450.846616 
L 426.254649 418.633797 
L 426.474202 458.935112 
L 426.693755 423.161811 
L 426.913308 527.29336 
L 427.352415 436.599957 
L 427.571968 524.072801 
L 427.791521 425.513973 
L 428.011074 477.233932 
L 428.230627 428.845392 
L 428.45018 538.923815 
L 428.669733 435.56966 
L 429.10884 540.922335 
L 429.328393 474.537869 
L 429.547946 317.917633 
L 429.987052 466.449194 
L 430.206606 464.575114 
L 430.645712 374.983662 
L 430.865265 412.146024 
L 431.084818 527.969478 
L 431.304371 317.786665 
L 431.523924 427.722198 
L 431.743478 419.221323 
L 432.182584 494.759619 
L 432.402137 522.072347 
L 432.62169 439.849686 
L 432.841243 445.180532 
L 433.060797 462.931512 
L 433.499903 528.158432 
L 433.719456 445.111903 
L 433.939009 412.931473 
L 434.158562 479.676602 
L 434.378115 512.351392 
L 434.597669 468.509208 
L 434.817222 470.437838 
L 435.036775 526.203857 
L 435.256328 321.433358 
L 435.475881 459.971737 
L 435.695434 422.764523 
L 435.914988 424.153707 
L 436.134541 405.98625 
L 436.354094 492.038232 
L 436.573647 385.056562 
L 436.7932 500.475 
L 437.012753 553.256593 
L 437.232306 362.336906 
L 437.45186 520.459158 
L 437.671413 347.374923 
L 437.890966 444.692912 
L 438.110519 392.608601 
L 438.330072 519.466463 
L 438.769178 488.488565 
L 438.988732 479.009081 
L 439.208285 485.25105 
L 439.427838 521.262387 
L 439.647391 480.769089 
L 439.866944 511.48496 
L 440.086497 505.578954 
L 440.306051 526.116355 
L 440.525604 470.05291 
L 440.745157 374.506223 
L 440.96471 413.184862 
L 441.184263 543.088463 
L 441.403816 477.778323 
L 441.842923 520.715535 
L 442.062476 348.072277 
L 442.282029 448.824302 
L 442.501582 391.950498 
L 442.721135 410.36007 
L 442.940688 438.888779 
L 443.160242 368.249298 
L 443.599348 490.721773 
L 443.818901 443.024064 
L 444.038454 487.072975 
L 444.258007 452.358754 
L 444.47756 463.259451 
L 444.697114 530.978936 
L 444.916667 498.106946 
L 445.13622 505.612552 
L 445.355773 417.039881 
L 445.575326 508.650037 
L 445.794879 531.215558 
L 446.014433 531.884143 
L 446.233986 526.348159 
L 446.453539 436.443374 
L 446.673092 498.983144 
L 446.892645 412.705628 
L 447.112198 452.289083 
L 447.551305 300.287854 
L 447.770858 476.542883 
L 447.990411 485.748907 
L 448.429517 339.123137 
L 448.64907 500.630692 
L 448.868624 506.481898 
L 449.088177 413.072842 
L 449.30773 369.382793 
L 449.527283 356.006725 
L 449.746836 474.107154 
L 449.966389 468.64618 
L 450.185942 483.451455 
L 450.405496 428.561624 
L 450.625049 454.516844 
L 450.844602 435.090216 
L 451.064155 461.358112 
L 451.283708 424.270914 
L 451.503261 506.863966 
L 451.722815 466.759908 
L 451.942368 499.043816 
L 452.381474 440.414554 
L 452.601027 559.500182 
L 453.040133 462.048015 
L 453.259687 505.98418 
L 453.47924 371.534001 
L 453.918346 516.941432 
L 454.137899 478.203307 
L 454.357452 259.306318 
L 454.577006 466.545798 
L 454.796559 463.318055 
L 455.016112 423.921395 
L 455.235665 455.263388 
L 455.455218 427.912261 
L 455.674771 492.213711 
L 455.894324 475.340835 
L 456.113878 447.055855 
L 456.333431 441.51535 
L 456.552984 449.320002 
L 456.772537 511.78356 
L 457.211643 412.088977 
L 457.431197 457.544347 
L 457.65075 368.291805 
L 457.870303 484.502813 
L 458.089856 496.328733 
L 458.309409 481.424581 
L 458.528962 439.056996 
L 458.748515 488.827237 
L 458.968069 406.422992 
L 459.187622 427.349661 
L 459.407175 418.257489 
L 459.626728 492.826267 
L 460.065834 570.392359 
L 460.285388 462.852634 
L 460.504941 529.444108 
L 460.724494 480.420228 
L 460.944047 484.622692 
L 461.1636 493.369049 
L 461.383153 378.300023 
L 461.602706 473.437256 
L 461.82226 464.154843 
L 462.041813 380.32605 
L 462.261366 366.110376 
L 462.480919 493.897111 
L 462.700472 370.112557 
L 462.920025 550.657236 
L 463.139579 454.125224 
L 463.359132 502.397039 
L 463.578685 418.712593 
L 463.798238 510.723879 
L 464.017791 442.913171 
L 464.456897 535.158287 
L 464.896004 422.926014 
L 465.115557 430.108098 
L 465.33511 527.673492 
L 465.554663 488.838303 
L 465.774216 304.827081 
L 465.993769 510.124675 
L 466.213323 467.321213 
L 466.432876 320.752877 
L 466.652429 379.733938 
L 466.871982 576.463704 
L 467.091535 399.935782 
L 467.530642 472.436168 
L 467.750195 456.65902 
L 468.189301 403.778815 
L 468.408854 425.364943 
L 468.628407 494.796989 
L 468.84796 503.597668 
L 469.067514 496.693935 
L 469.287067 542.03369 
L 469.50662 444.316501 
L 469.726173 463.482784 
L 469.945726 464.399973 
L 470.165279 370.225377 
L 470.604386 516.475831 
L 470.823939 478.804379 
L 471.043492 501.000428 
L 471.263045 412.293653 
L 471.482598 469.988886 
L 471.702151 471.500354 
L 471.921705 529.388602 
L 472.141258 529.882113 
L 472.360811 404.72537 
L 472.580364 486.361133 
L 472.799917 417.918433 
L 473.01947 401.738025 
L 473.239024 446.408541 
L 473.458577 529.861711 
L 473.897683 355.533387 
L 474.117236 466.892735 
L 474.336789 383.478845 
L 474.556342 453.929984 
L 474.775896 404.021612 
L 475.215002 429.471447 
L 475.434555 408.008925 
L 475.654108 398.36092 
L 475.873661 472.770578 
L 476.093215 401.513002 
L 476.312768 493.455619 
L 476.532321 460.862493 
L 476.751874 509.12309 
L 476.971427 410.161146 
L 477.410533 507.607528 
L 477.630087 329.030027 
L 477.84964 402.340525 
L 478.069193 542.000946 
L 478.288746 486.752896 
L 478.508299 470.627291 
L 478.727852 426.02985 
L 479.166959 516.088791 
L 479.386512 320.692145 
L 479.606065 500.010586 
L 479.825618 471.964709 
L 480.045171 421.407225 
L 480.264724 490.759749 
L 480.484278 433.522655 
L 480.703831 405.452637 
L 480.923384 499.616993 
L 481.142937 529.890423 
L 481.582043 476.319446 
L 481.801597 349.312636 
L 482.460256 454.153688 
L 482.899362 494.747748 
L 483.118915 408.825526 
L 483.338469 469.491668 
L 483.558022 380.544811 
L 483.777575 448.416793 
L 483.997128 351.819215 
L 484.216681 506.530449 
L 484.436234 505.816084 
L 484.655788 545.56186 
L 484.875341 527.958637 
L 485.094894 470.319339 
L 485.534 423.568287 
L 485.753553 439.26899 
L 485.973106 531.645688 
L 486.19266 473.806497 
L 486.412213 385.336693 
L 486.631766 499.571828 
L 486.851319 496.769095 
L 487.070872 470.809268 
L 487.290425 482.393122 
L 487.509979 501.619075 
L 487.729532 486.782734 
L 487.949085 533.215222 
L 488.168638 382.167012 
L 488.388191 517.369588 
L 488.607744 503.744082 
L 488.827297 498.534619 
L 489.046851 464.435203 
L 489.266404 461.181242 
L 489.485957 495.529517 
L 489.70551 389.380694 
L 489.925063 521.770819 
L 490.144616 460.864051 
L 490.364169 467.901204 
L 490.583723 273.275842 
L 490.803276 462.261531 
L 491.022829 449.365914 
L 491.242382 472.594743 
L 491.461935 389.495271 
L 491.681488 521.425131 
L 491.901042 514.67606 
L 492.120595 403.133896 
L 492.340148 576.691224 
L 492.559701 360.412343 
L 492.779254 410.139993 
L 492.998807 501.041677 
L 493.21836 492.223365 
L 493.437914 510.385525 
L 493.657467 468.048406 
L 493.87702 449.181471 
L 494.316126 391.287945 
L 494.535679 500.950373 
L 494.755233 503.498756 
L 495.194339 417.749221 
L 495.413892 506.682056 
L 495.633445 505.213125 
L 495.852998 495.900382 
L 496.072551 433.580056 
L 496.292105 504.963436 
L 496.511658 345.442429 
L 496.731211 417.493325 
L 496.950764 554.188412 
L 497.38987 421.655904 
L 497.609424 417.159051 
L 497.828977 508.116267 
L 498.04853 490.703833 
L 498.268083 462.780235 
L 498.487636 463.84475 
L 498.707189 507.124156 
L 498.926742 367.121563 
L 499.146296 497.628786 
L 499.365849 485.367922 
L 499.804955 344.333273 
L 500.024508 382.557535 
L 500.244061 391.747975 
L 500.683168 454.993699 
L 500.902721 525.076563 
L 501.122274 402.19346 
L 501.341827 482.218116 
L 501.780933 531.95426 
L 502.000487 542.573025 
L 502.22004 517.958796 
L 502.439593 526.544312 
L 502.659146 440.024107 
L 502.878699 517.258317 
L 503.098252 499.298569 
L 503.317806 390.887706 
L 503.537359 453.088476 
L 503.756912 481.780688 
L 503.976465 403.815409 
L 504.196018 535.057365 
L 504.415571 487.337037 
L 504.635124 503.606786 
L 504.854678 504.304394 
L 505.074231 446.78679 
L 505.293784 475.672888 
L 505.513337 427.795838 
L 505.73289 442.671614 
L 505.952443 434.979725 
L 506.171997 456.689854 
L 506.39155 509.88985 
L 506.611103 533.834385 
L 506.830656 459.356398 
L 507.269762 529.010284 
L 507.708869 414.413481 
L 507.928422 415.679009 
L 508.147975 438.146852 
L 508.367528 557.704323 
L 508.587081 412.324751 
L 508.806634 393.722866 
L 509.026188 448.512448 
L 509.245741 417.731447 
L 509.465294 540.41096 
L 509.684847 302.430419 
L 509.9044 521.085576 
L 510.123953 532.320671 
L 510.56306 329.054368 
L 510.782613 519.711628 
L 511.221719 410.55057 
L 511.441272 443.280204 
L 511.660825 523.677006 
L 512.099932 463.565378 
L 512.539038 497.123339 
L 512.758591 442.449254 
L 512.978144 541.476503 
L 513.197697 449.537051 
L 513.417251 516.099955 
L 513.636804 375.997053 
L 513.856357 512.668965 
L 514.07591 504.539159 
L 514.295463 453.81755 
L 514.515016 488.223924 
L 514.73457 545.826132 
L 514.954123 273.276192 
L 515.173676 456.146279 
L 515.393229 438.462127 
L 515.612782 473.109607 
L 516.271442 526.138159 
L 516.490995 485.7735 
L 516.710548 471.449809 
L 516.930101 522.360614 
L 517.149654 498.707769 
L 517.369207 370.506781 
L 517.808314 400.152596 
L 518.027867 340.829807 
L 518.466973 534.624467 
L 518.686526 408.491756 
L 518.906079 503.23166 
L 519.125633 537.721608 
L 519.345186 349.464485 
L 519.564739 484.574694 
L 519.784292 474.192122 
L 520.003845 368.039508 
L 520.223398 516.99322 
L 520.442951 452.627815 
L 520.662505 464.062235 
L 520.882058 427.302597 
L 521.101611 299.656727 
L 521.321164 474.206306 
L 521.540717 487.80871 
L 521.76027 483.995337 
L 521.979824 502.103342 
L 522.199377 405.952169 
L 522.41893 406.339858 
L 522.638483 438.417436 
L 522.858036 510.263279 
L 523.077589 364.864007 
L 523.297142 564.900188 
L 523.516696 447.959186 
L 523.736249 526.033936 
L 523.955802 386.092814 
L 524.175355 420.418111 
L 524.394908 528.090358 
L 524.834015 317.914144 
L 525.053568 518.391644 
L 525.273121 463.72529 
L 525.492674 373.676076 
L 525.712227 514.544171 
L 525.93178 460.647621 
L 526.151333 439.034854 
L 526.370887 528.758347 
L 526.59044 461.066421 
L 526.809993 441.638436 
L 527.029546 464.746562 
L 527.249099 446.235685 
L 527.468652 478.766878 
L 527.907759 371.356405 
L 528.346865 501.645105 
L 528.566418 322.000799 
L 528.785971 529.712226 
L 529.005524 454.959647 
L 529.225078 473.447019 
L 529.444631 349.311648 
L 529.664184 503.310349 
L 529.883737 427.610875 
L 530.10329 403.754337 
L 530.322843 414.460377 
L 530.542397 446.501334 
L 530.76195 459.85114 
L 530.981503 457.644584 
L 531.201056 509.090845 
L 531.640162 424.550144 
L 531.859715 460.405155 
L 532.079269 468.055576 
L 532.298822 448.970255 
L 532.518375 463.773439 
L 532.737928 431.897911 
L 532.957481 477.517987 
L 533.177034 487.386782 
L 533.396588 419.672124 
L 533.616141 504.060914 
L 533.835694 399.748854 
L 534.055247 492.501771 
L 534.2748 434.558443 
L 534.494353 468.709454 
L 534.713906 529.913139 
L 534.93346 235.357215 
L 535.153013 425.218765 
L 535.372566 420.354599 
L 535.592119 476.844814 
L 535.811672 489.911001 
L 536.031225 478.053775 
L 536.250779 386.197973 
L 536.470332 523.37869 
L 536.689885 431.698312 
L 536.909438 467.235767 
L 537.128991 401.893359 
L 537.348544 507.175419 
L 537.568097 526.901724 
L 537.787651 502.607637 
L 538.007204 391.307684 
L 538.226757 465.299373 
L 538.44631 472.602071 
L 538.665863 374.202851 
L 538.885416 516.49215 
L 539.10497 406.240149 
L 539.324523 467.833292 
L 539.544076 476.371157 
L 539.983182 440.001389 
L 540.202735 488.536605 
L 540.422288 388.159015 
L 540.861395 512.544377 
L 541.080948 529.307848 
L 541.300501 504.075526 
L 541.520054 510.623423 
L 541.739607 453.163623 
L 541.95916 481.114175 
L 542.178714 539.100246 
L 542.398267 378.047235 
L 542.61782 494.806525 
L 542.837373 427.519667 
L 543.056926 285.398315 
L 543.276479 479.047906 
L 543.496033 472.087807 
L 543.715586 534.729678 
L 543.935139 458.871416 
L 544.154692 454.693744 
L 544.374245 471.556031 
L 544.593798 454.113709 
L 544.813351 457.110476 
L 545.032905 492.361765 
L 545.252458 347.97902 
L 545.691564 521.270387 
L 545.911117 479.940077 
L 546.13067 500.867432 
L 546.350224 440.78093 
L 546.569777 488.406431 
L 546.78933 411.675146 
L 547.008883 513.345882 
L 547.228436 403.810023 
L 547.447989 534.491334 
L 547.667542 391.523896 
L 548.106649 440.497248 
L 548.326202 499.882019 
L 548.545755 386.357058 
L 548.765308 427.932306 
L 548.984861 364.62869 
L 549.204415 375.506478 
L 549.423968 546.923319 
L 549.643521 420.042752 
L 549.863074 528.335791 
L 550.082627 567.540796 
L 550.30218 525.056758 
L 550.521733 389.517054 
L 550.741287 459.679021 
L 550.96084 484.809843 
L 551.180393 444.582597 
L 551.399946 514.235997 
L 551.839052 450.84066 
L 552.058606 451.066093 
L 552.278159 528.427739 
L 552.497712 372.561041 
L 552.717265 491.143294 
L 552.936818 452.042493 
L 553.156371 510.277697 
L 553.375924 393.650728 
L 553.595478 355.594223 
L 553.815031 481.187821 
L 554.034584 419.727996 
L 554.47369 528.539185 
L 554.912797 473.419933 
L 555.13235 510.583316 
L 555.351903 522.009317 
L 555.571456 467.039101 
L 555.791009 538.08936 
L 556.010562 499.152104 
L 556.230115 498.258791 
L 556.449669 387.227976 
L 556.669222 457.598013 
L 556.888775 385.674506 
L 557.108328 521.526794 
L 557.327881 453.73823 
L 557.766988 486.138469 
L 557.986541 409.261674 
L 558.206094 535.069117 
L 558.425647 422.466744 
L 558.6452 489.694432 
L 558.864753 473.2008 
L 559.084306 522.297788 
L 559.30386 175.343166 
L 559.523413 548.318452 
L 559.742966 469.532225 
L 559.742966 469.532225 
" style="fill:none;stroke:#96c69a;stroke-linecap:round;stroke-width:3;"/>
   </g>
   <g id="line2d_2"/>
   <g id="patch_3">
    <path d="M 98.911875 603.86 
L 98.911875 109.484571 
" style="fill:none;stroke:#262626;stroke-linecap:square;stroke-linejoin:miter;stroke-width:2.5;"/>
   </g>
   <g id="patch_4">
    <path d="M 98.911875 603.86 
L 581.687304 603.86 
" style="fill:none;stroke:#262626;stroke-linecap:square;stroke-linejoin:miter;stroke-width:2.5;"/>
   </g>
   <g id="legend_1">
    <g id="patch_5">
     <path d="M 528.771679 598.86 
L 574.687304 598.86 
Q 576.687304 598.86 576.687304 596.86 
L 576.687304 554.954375 
Q 576.687304 552.954375 574.687304 552.954375 
L 528.771679 552.954375 
Q 526.771679 552.954375 526.771679 554.954375 
L 526.771679 596.86 
Q 526.771679 598.86 528.771679 598.86 
z
" style="fill:#ffffff;opacity:0.8;stroke:#cccccc;stroke-linejoin:miter;stroke-width:2;"/>
    </g>
    <g id="text_17">
     <!-- $n_\tau$ -->
     <g style="fill:#262626;" transform="translate(538.649491 575.190625)scale(0.24 -0.24)">
      <defs>
       <path d="M 3566 2113 
L 3156 0 
L 2578 0 
L 2988 2091 
Q 3016 2238 3031 2350 
Q 3047 2463 3047 2528 
Q 3047 2791 2881 2937 
Q 2716 3084 2419 3084 
Q 1956 3084 1622 2776 
Q 1288 2469 1184 1941 
L 800 0 
L 225 0 
L 903 3500 
L 1478 3500 
L 1363 2950 
Q 1603 3253 1940 3418 
Q 2278 3584 2650 3584 
Q 3113 3584 3367 3334 
Q 3622 3084 3622 2631 
Q 3622 2519 3608 2391 
Q 3594 2263 3566 2113 
z
" id="DejaVuSans-Oblique-6e" transform="scale(0.015625)"/>
       <path d="M 2103 638 
Q 2188 488 2525 488 
L 2800 488 
L 2706 0 
L 2363 0 
Q 1800 0 1600 300 
Q 1403 606 1534 1269 
L 1856 2925 
L 541 2925 
L 653 3500 
L 3881 3500 
L 3769 2925 
L 2444 2925 
L 2113 1234 
Q 2025 781 2103 638 
z
" id="DejaVuSans-Oblique-3c4" transform="scale(0.015625)"/>
      </defs>
      <use xlink:href="#DejaVuSans-Oblique-6e"/>
      <use transform="translate(63.378906 -16.40625)scale(0.7)" xlink:href="#DejaVuSans-Oblique-3c4"/>
     </g>
    </g>
    <g id="line2d_3">
     <path d="M 530.771679 589.280313 
L 550.771679 589.280313 
" style="fill:none;stroke:#96c69a;stroke-linecap:round;stroke-width:3;"/>
    </g>
    <g id="line2d_4"/>
    <g id="text_18">
     <!-- 25 -->
     <g style="fill:#262626;" transform="translate(558.771679 592.780313)scale(0.1 -0.1)">
      <defs>
       <path d="M 1844 884 
L 3897 884 
L 3897 0 
L 506 0 
L 506 884 
L 2209 2388 
Q 2438 2594 2547 2791 
Q 2656 2988 2656 3200 
Q 2656 3528 2436 3728 
Q 2216 3928 1850 3928 
Q 1569 3928 1234 3808 
Q 900 3688 519 3450 
L 519 4475 
Q 925 4609 1322 4679 
Q 1719 4750 2100 4750 
Q 2938 4750 3402 4381 
Q 3866 4013 3866 3353 
Q 3866 2972 3669 2642 
Q 3472 2313 2841 1759 
L 1844 884 
z
" id="DejaVuSans-Bold-32" transform="scale(0.015625)"/>
       <path d="M 678 4666 
L 3669 4666 
L 3669 3781 
L 1638 3781 
L 1638 3059 
Q 1775 3097 1914 3117 
Q 2053 3138 2203 3138 
Q 3056 3138 3531 2711 
Q 4006 2284 4006 1522 
Q 4006 766 3489 337 
Q 2972 -91 2053 -91 
Q 1656 -91 1267 -14 
Q 878 63 494 219 
L 494 1166 
Q 875 947 1217 837 
Q 1559 728 1863 728 
Q 2300 728 2551 942 
Q 2803 1156 2803 1522 
Q 2803 1891 2551 2103 
Q 2300 2316 1863 2316 
Q 1603 2316 1309 2248 
Q 1016 2181 678 2041 
L 678 4666 
z
" id="DejaVuSans-Bold-35" transform="scale(0.015625)"/>
      </defs>
      <use xlink:href="#DejaVuSans-Bold-32"/>
      <use x="69.580078" xlink:href="#DejaVuSans-Bold-35"/>
     </g>
    </g>
   </g>
  </g>
  <g id="axes_2">
   <g id="patch_6">
    <path d="M 98.911875 92.437143 
L 581.687304 92.437143 
L 581.687304 7.2 
L 98.911875 7.2 
z
" style="fill:none;"/>
   </g>
   <g id="matplotlib.axis_3">
    <g id="xtick_7"/>
    <g id="xtick_8"/>
    <g id="xtick_9"/>
    <g id="xtick_10"/>
    <g id="xtick_11"/>
    <g id="xtick_12"/>
   </g>
   <g id="matplotlib.axis_4">
    <g id="ytick_9">
     <g id="text_19">
      <!-- 0 -->
      <g style="fill:#262626;" transform="translate(69.414375 100.795424)scale(0.22 -0.22)">
       <use xlink:href="#DejaVuSans-30"/>
      </g>
     </g>
    </g>
    <g id="ytick_10">
     <g id="text_20">
      <!-- 100 -->
      <g style="fill:#262626;" transform="translate(41.419375 48.082287)scale(0.22 -0.22)">
       <use xlink:href="#DejaVuSans-31"/>
       <use x="63.623047" xlink:href="#DejaVuSans-30"/>
       <use x="127.246094" xlink:href="#DejaVuSans-30"/>
      </g>
     </g>
    </g>
   </g>
   <g id="patch_7">
    <path clip-path="url(#pf506381b23)" d="M 120.856213 92.437143 
L 154.616732 92.437143 
L 154.616732 11.258912 
L 120.856213 11.258912 
z
" style="fill:#96c69a;fill-opacity:0.5;stroke:#ffffff;stroke-linejoin:miter;stroke-width:2;"/>
   </g>
   <g id="patch_8">
    <path clip-path="url(#pf506381b23)" d="M 154.616732 92.437143 
L 188.377252 92.437143 
L 188.377252 11.258912 
L 154.616732 11.258912 
z
" style="fill:#96c69a;fill-opacity:0.5;stroke:#ffffff;stroke-linejoin:miter;stroke-width:2;"/>
   </g>
   <g id="patch_9">
    <path clip-path="url(#pf506381b23)" d="M 188.377252 92.437143 
L 222.137771 92.437143 
L 222.137771 11.258912 
L 188.377252 11.258912 
z
" style="fill:#96c69a;fill-opacity:0.5;stroke:#ffffff;stroke-linejoin:miter;stroke-width:2;"/>
   </g>
   <g id="patch_10">
    <path clip-path="url(#pf506381b23)" d="M 222.137771 92.437143 
L 255.898291 92.437143 
L 255.898291 11.258912 
L 222.137771 11.258912 
z
" style="fill:#96c69a;fill-opacity:0.5;stroke:#ffffff;stroke-linejoin:miter;stroke-width:2;"/>
   </g>
   <g id="patch_11">
    <path clip-path="url(#pf506381b23)" d="M 255.898291 92.437143 
L 289.65881 92.437143 
L 289.65881 11.786043 
L 255.898291 11.786043 
z
" style="fill:#96c69a;fill-opacity:0.5;stroke:#ffffff;stroke-linejoin:miter;stroke-width:2;"/>
   </g>
   <g id="patch_12">
    <path clip-path="url(#pf506381b23)" d="M 289.65881 92.437143 
L 323.41933 92.437143 
L 323.41933 11.258912 
L 289.65881 11.258912 
z
" style="fill:#96c69a;fill-opacity:0.5;stroke:#ffffff;stroke-linejoin:miter;stroke-width:2;"/>
   </g>
   <g id="patch_13">
    <path clip-path="url(#pf506381b23)" d="M 323.41933 92.437143 
L 357.179849 92.437143 
L 357.179849 11.258912 
L 323.41933 11.258912 
z
" style="fill:#96c69a;fill-opacity:0.5;stroke:#ffffff;stroke-linejoin:miter;stroke-width:2;"/>
   </g>
   <g id="patch_14">
    <path clip-path="url(#pf506381b23)" d="M 357.179849 92.437143 
L 390.940369 92.437143 
L 390.940369 11.258912 
L 357.179849 11.258912 
z
" style="fill:#96c69a;fill-opacity:0.5;stroke:#ffffff;stroke-linejoin:miter;stroke-width:2;"/>
   </g>
   <g id="patch_15">
    <path clip-path="url(#pf506381b23)" d="M 390.940369 92.437143 
L 424.700888 92.437143 
L 424.700888 11.786043 
L 390.940369 11.786043 
z
" style="fill:#96c69a;fill-opacity:0.5;stroke:#ffffff;stroke-linejoin:miter;stroke-width:2;"/>
   </g>
   <g id="patch_16">
    <path clip-path="url(#pf506381b23)" d="M 424.700888 92.437143 
L 458.461407 92.437143 
L 458.461407 11.258912 
L 424.700888 11.258912 
z
" style="fill:#96c69a;fill-opacity:0.5;stroke:#ffffff;stroke-linejoin:miter;stroke-width:2;"/>
   </g>
   <g id="patch_17">
    <path clip-path="url(#pf506381b23)" d="M 458.461407 92.437143 
L 492.221927 92.437143 
L 492.221927 11.258912 
L 458.461407 11.258912 
z
" style="fill:#96c69a;fill-opacity:0.5;stroke:#ffffff;stroke-linejoin:miter;stroke-width:2;"/>
   </g>
   <g id="patch_18">
    <path clip-path="url(#pf506381b23)" d="M 492.221927 92.437143 
L 525.982446 92.437143 
L 525.982446 11.258912 
L 492.221927 11.258912 
z
" style="fill:#96c69a;fill-opacity:0.5;stroke:#ffffff;stroke-linejoin:miter;stroke-width:2;"/>
   </g>
   <g id="patch_19">
    <path clip-path="url(#pf506381b23)" d="M 525.982446 92.437143 
L 559.742966 92.437143 
L 559.742966 11.258912 
L 525.982446 11.258912 
z
" style="fill:#96c69a;fill-opacity:0.5;stroke:#ffffff;stroke-linejoin:miter;stroke-width:2;"/>
   </g>
   <g id="patch_20">
    <path d="M 98.911875 92.437143 
L 98.911875 7.2 
" style="fill:none;stroke:#262626;stroke-linecap:square;stroke-linejoin:miter;stroke-width:2.5;"/>
   </g>
   <g id="patch_21">
    <path d="M 98.911875 92.437143 
L 581.687304 92.437143 
" style="fill:none;stroke:#262626;stroke-linecap:square;stroke-linejoin:miter;stroke-width:2.5;"/>
   </g>
  </g>
  <g id="axes_3">
   <g id="patch_22">
    <path d="M 598.334732 603.86 
L 681.571875 603.86 
L 681.571875 109.484571 
L 598.334732 109.484571 
z
" style="fill:none;"/>
   </g>
   <g id="matplotlib.axis_5">
    <g id="xtick_13">
     <g id="text_21">
      <!-- 0 -->
      <g style="fill:#262626;" transform="translate(591.335982 636.076563)scale(0.22 -0.22)">
       <use xlink:href="#DejaVuSans-30"/>
      </g>
     </g>
    </g>
    <g id="xtick_14">
     <g id="text_22">
      <!-- 200 -->
      <g style="fill:#262626;" transform="translate(658.644605 636.076563)scale(0.22 -0.22)">
       <use xlink:href="#DejaVuSans-32"/>
       <use x="63.623047" xlink:href="#DejaVuSans-30"/>
       <use x="127.246094" xlink:href="#DejaVuSans-30"/>
      </g>
     </g>
    </g>
   </g>
   <g id="matplotlib.axis_6">
    <g id="ytick_11"/>
    <g id="ytick_12"/>
    <g id="ytick_13"/>
    <g id="ytick_14"/>
    <g id="ytick_15"/>
    <g id="ytick_16"/>
    <g id="ytick_17"/>
    <g id="ytick_18"/>
   </g>
   <g id="patch_23">
    <path clip-path="url(#p5dd3296453)" d="M 598.334732 581.38839 
L 601.586977 581.38839 
L 601.586977 569.241573 
L 598.334732 569.241573 
z
" style="fill:#96c69a;fill-opacity:0.5;stroke:#ffffff;stroke-linejoin:miter;stroke-width:1.214682;"/>
   </g>
   <g id="patch_24">
    <path clip-path="url(#p5dd3296453)" d="M 598.334732 569.241573 
L 602.400038 569.241573 
L 602.400038 557.094757 
L 598.334732 557.094757 
z
" style="fill:#96c69a;fill-opacity:0.5;stroke:#ffffff;stroke-linejoin:miter;stroke-width:1.214682;"/>
   </g>
   <g id="patch_25">
    <path clip-path="url(#p5dd3296453)" d="M 598.334732 557.094757 
L 609.717589 557.094757 
L 609.717589 544.94794 
L 598.334732 544.94794 
z
" style="fill:#96c69a;fill-opacity:0.5;stroke:#ffffff;stroke-linejoin:miter;stroke-width:1.214682;"/>
   </g>
   <g id="patch_26">
    <path clip-path="url(#p5dd3296453)" d="M 598.334732 544.94794 
L 624.352691 544.94794 
L 624.352691 532.801124 
L 598.334732 532.801124 
z
" style="fill:#96c69a;fill-opacity:0.5;stroke:#ffffff;stroke-linejoin:miter;stroke-width:1.214682;"/>
   </g>
   <g id="patch_27">
    <path clip-path="url(#p5dd3296453)" d="M 598.334732 532.801124 
L 649.557589 532.801124 
L 649.557589 520.654307 
L 598.334732 520.654307 
z
" style="fill:#96c69a;fill-opacity:0.5;stroke:#ffffff;stroke-linejoin:miter;stroke-width:1.214682;"/>
   </g>
   <g id="patch_28">
    <path clip-path="url(#p5dd3296453)" d="M 598.334732 520.654307 
L 648.337997 520.654307 
L 648.337997 508.507491 
L 598.334732 508.507491 
z
" style="fill:#96c69a;fill-opacity:0.5;stroke:#ffffff;stroke-linejoin:miter;stroke-width:1.214682;"/>
   </g>
   <g id="patch_29">
    <path clip-path="url(#p5dd3296453)" d="M 598.334732 508.507491 
L 666.225344 508.507491 
L 666.225344 496.360675 
L 598.334732 496.360675 
z
" style="fill:#96c69a;fill-opacity:0.5;stroke:#ffffff;stroke-linejoin:miter;stroke-width:1.214682;"/>
   </g>
   <g id="patch_30">
    <path clip-path="url(#p5dd3296453)" d="M 598.334732 496.360675 
L 677.608202 496.360675 
L 677.608202 484.213858 
L 598.334732 484.213858 
z
" style="fill:#96c69a;fill-opacity:0.5;stroke:#ffffff;stroke-linejoin:miter;stroke-width:1.214682;"/>
   </g>
   <g id="patch_31">
    <path clip-path="url(#p5dd3296453)" d="M 598.334732 484.213858 
L 671.510242 484.213858 
L 671.510242 472.067042 
L 598.334732 472.067042 
z
" style="fill:#96c69a;fill-opacity:0.5;stroke:#ffffff;stroke-linejoin:miter;stroke-width:1.214682;"/>
   </g>
   <g id="patch_32">
    <path clip-path="url(#p5dd3296453)" d="M 598.334732 472.067042 
L 661.753508 472.067042 
L 661.753508 459.920225 
L 598.334732 459.920225 
z
" style="fill:#96c69a;fill-opacity:0.5;stroke:#ffffff;stroke-linejoin:miter;stroke-width:1.214682;"/>
   </g>
   <g id="patch_33">
    <path clip-path="url(#p5dd3296453)" d="M 598.334732 459.920225 
L 660.533916 459.920225 
L 660.533916 447.773409 
L 598.334732 447.773409 
z
" style="fill:#96c69a;fill-opacity:0.5;stroke:#ffffff;stroke-linejoin:miter;stroke-width:1.214682;"/>
   </g>
   <g id="patch_34">
    <path clip-path="url(#p5dd3296453)" d="M 598.334732 447.773409 
L 656.062079 447.773409 
L 656.062079 435.626592 
L 598.334732 435.626592 
z
" style="fill:#96c69a;fill-opacity:0.5;stroke:#ffffff;stroke-linejoin:miter;stroke-width:1.214682;"/>
   </g>
   <g id="patch_35">
    <path clip-path="url(#p5dd3296453)" d="M 598.334732 435.626592 
L 651.590242 435.626592 
L 651.590242 423.479776 
L 598.334732 423.479776 
z
" style="fill:#96c69a;fill-opacity:0.5;stroke:#ffffff;stroke-linejoin:miter;stroke-width:1.214682;"/>
   </g>
   <g id="patch_36">
    <path clip-path="url(#p5dd3296453)" d="M 598.334732 423.479776 
L 646.305344 423.479776 
L 646.305344 411.33296 
L 598.334732 411.33296 
z
" style="fill:#96c69a;fill-opacity:0.5;stroke:#ffffff;stroke-linejoin:miter;stroke-width:1.214682;"/>
   </g>
   <g id="patch_37">
    <path clip-path="url(#p5dd3296453)" d="M 598.334732 411.33296 
L 637.361671 411.33296 
L 637.361671 399.186143 
L 598.334732 399.186143 
z
" style="fill:#96c69a;fill-opacity:0.5;stroke:#ffffff;stroke-linejoin:miter;stroke-width:1.214682;"/>
   </g>
   <g id="patch_38">
    <path clip-path="url(#p5dd3296453)" d="M 598.334732 399.186143 
L 623.946161 399.186143 
L 623.946161 387.039327 
L 598.334732 387.039327 
z
" style="fill:#96c69a;fill-opacity:0.5;stroke:#ffffff;stroke-linejoin:miter;stroke-width:1.214682;"/>
   </g>
   <g id="patch_39">
    <path clip-path="url(#p5dd3296453)" d="M 598.334732 387.039327 
L 620.287385 387.039327 
L 620.287385 374.89251 
L 598.334732 374.89251 
z
" style="fill:#96c69a;fill-opacity:0.5;stroke:#ffffff;stroke-linejoin:miter;stroke-width:1.214682;"/>
   </g>
   <g id="patch_40">
    <path clip-path="url(#p5dd3296453)" d="M 598.334732 374.89251 
L 618.661263 374.89251 
L 618.661263 362.745694 
L 598.334732 362.745694 
z
" style="fill:#96c69a;fill-opacity:0.5;stroke:#ffffff;stroke-linejoin:miter;stroke-width:1.214682;"/>
   </g>
   <g id="patch_41">
    <path clip-path="url(#p5dd3296453)" d="M 598.334732 362.745694 
L 608.904528 362.745694 
L 608.904528 350.598878 
L 598.334732 350.598878 
z
" style="fill:#96c69a;fill-opacity:0.5;stroke:#ffffff;stroke-linejoin:miter;stroke-width:1.214682;"/>
   </g>
   <g id="patch_42">
    <path clip-path="url(#p5dd3296453)" d="M 598.334732 350.598878 
L 609.311059 350.598878 
L 609.311059 338.452061 
L 598.334732 338.452061 
z
" style="fill:#96c69a;fill-opacity:0.5;stroke:#ffffff;stroke-linejoin:miter;stroke-width:1.214682;"/>
   </g>
   <g id="patch_43">
    <path clip-path="url(#p5dd3296453)" d="M 598.334732 338.452061 
L 608.091467 338.452061 
L 608.091467 326.305245 
L 598.334732 326.305245 
z
" style="fill:#96c69a;fill-opacity:0.5;stroke:#ffffff;stroke-linejoin:miter;stroke-width:1.214682;"/>
   </g>
   <g id="patch_44">
    <path clip-path="url(#p5dd3296453)" d="M 598.334732 326.305245 
L 605.245753 326.305245 
L 605.245753 314.158428 
L 598.334732 314.158428 
z
" style="fill:#96c69a;fill-opacity:0.5;stroke:#ffffff;stroke-linejoin:miter;stroke-width:1.214682;"/>
   </g>
   <g id="patch_45">
    <path clip-path="url(#p5dd3296453)" d="M 598.334732 314.158428 
L 601.180446 314.158428 
L 601.180446 302.011612 
L 598.334732 302.011612 
z
" style="fill:#96c69a;fill-opacity:0.5;stroke:#ffffff;stroke-linejoin:miter;stroke-width:1.214682;"/>
   </g>
   <g id="patch_46">
    <path clip-path="url(#p5dd3296453)" d="M 598.334732 302.011612 
L 602.806569 302.011612 
L 602.806569 289.864795 
L 598.334732 289.864795 
z
" style="fill:#96c69a;fill-opacity:0.5;stroke:#ffffff;stroke-linejoin:miter;stroke-width:1.214682;"/>
   </g>
   <g id="patch_47">
    <path clip-path="url(#p5dd3296453)" d="M 598.334732 289.864795 
L 601.180446 289.864795 
L 601.180446 277.717979 
L 598.334732 277.717979 
z
" style="fill:#96c69a;fill-opacity:0.5;stroke:#ffffff;stroke-linejoin:miter;stroke-width:1.214682;"/>
   </g>
   <g id="patch_48">
    <path clip-path="url(#p5dd3296453)" d="M 598.334732 277.717979 
L 601.180446 277.717979 
L 601.180446 265.571163 
L 598.334732 265.571163 
z
" style="fill:#96c69a;fill-opacity:0.5;stroke:#ffffff;stroke-linejoin:miter;stroke-width:1.214682;"/>
   </g>
   <g id="patch_49">
    <path clip-path="url(#p5dd3296453)" d="M 598.334732 265.571163 
L 599.554324 265.571163 
L 599.554324 253.424346 
L 598.334732 253.424346 
z
" style="fill:#96c69a;fill-opacity:0.5;stroke:#ffffff;stroke-linejoin:miter;stroke-width:1.214682;"/>
   </g>
   <g id="patch_50">
    <path clip-path="url(#p5dd3296453)" d="M 598.334732 253.424346 
L 598.741263 253.424346 
L 598.741263 241.27753 
L 598.334732 241.27753 
z
" style="fill:#96c69a;fill-opacity:0.5;stroke:#ffffff;stroke-linejoin:miter;stroke-width:1.214682;"/>
   </g>
   <g id="patch_51">
    <path clip-path="url(#p5dd3296453)" d="M 598.334732 241.27753 
L 598.741263 241.27753 
L 598.741263 229.130713 
L 598.334732 229.130713 
z
" style="fill:#96c69a;fill-opacity:0.5;stroke:#ffffff;stroke-linejoin:miter;stroke-width:1.214682;"/>
   </g>
   <g id="patch_52">
    <path clip-path="url(#p5dd3296453)" d="M 598.334732 229.130713 
L 599.147793 229.130713 
L 599.147793 216.983897 
L 598.334732 216.983897 
z
" style="fill:#96c69a;fill-opacity:0.5;stroke:#ffffff;stroke-linejoin:miter;stroke-width:1.214682;"/>
   </g>
   <g id="patch_53">
    <path clip-path="url(#p5dd3296453)" d="M 598.334732 216.983897 
L 598.741263 216.983897 
L 598.741263 204.83708 
L 598.334732 204.83708 
z
" style="fill:#96c69a;fill-opacity:0.5;stroke:#ffffff;stroke-linejoin:miter;stroke-width:1.214682;"/>
   </g>
   <g id="patch_54">
    <path clip-path="url(#p5dd3296453)" d="M 598.334732 204.83708 
L 598.334732 204.83708 
L 598.334732 192.690264 
L 598.334732 192.690264 
z
" style="fill:#96c69a;fill-opacity:0.5;stroke:#ffffff;stroke-linejoin:miter;stroke-width:1.214682;"/>
   </g>
   <g id="patch_55">
    <path clip-path="url(#p5dd3296453)" d="M 598.334732 192.690264 
L 598.334732 192.690264 
L 598.334732 180.543448 
L 598.334732 180.543448 
z
" style="fill:#96c69a;fill-opacity:0.5;stroke:#ffffff;stroke-linejoin:miter;stroke-width:1.214682;"/>
   </g>
   <g id="patch_56">
    <path clip-path="url(#p5dd3296453)" d="M 598.334732 180.543448 
L 598.741263 180.543448 
L 598.741263 168.396631 
L 598.334732 168.396631 
z
" style="fill:#96c69a;fill-opacity:0.5;stroke:#ffffff;stroke-linejoin:miter;stroke-width:1.214682;"/>
   </g>
   <g id="patch_57">
    <path clip-path="url(#p5dd3296453)" d="M 598.334732 168.396631 
L 598.334732 168.396631 
L 598.334732 156.249815 
L 598.334732 156.249815 
z
" style="fill:#96c69a;fill-opacity:0.5;stroke:#ffffff;stroke-linejoin:miter;stroke-width:1.214682;"/>
   </g>
   <g id="patch_58">
    <path clip-path="url(#p5dd3296453)" d="M 598.334732 156.249815 
L 598.334732 156.249815 
L 598.334732 144.102998 
L 598.334732 144.102998 
z
" style="fill:#96c69a;fill-opacity:0.5;stroke:#ffffff;stroke-linejoin:miter;stroke-width:1.214682;"/>
   </g>
   <g id="patch_59">
    <path clip-path="url(#p5dd3296453)" d="M 598.334732 144.102998 
L 598.741263 144.102998 
L 598.741263 131.956182 
L 598.334732 131.956182 
z
" style="fill:#96c69a;fill-opacity:0.5;stroke:#ffffff;stroke-linejoin:miter;stroke-width:1.214682;"/>
   </g>
   <g id="patch_60">
    <path d="M 598.334732 603.86 
L 598.334732 109.484571 
" style="fill:none;stroke:#262626;stroke-linecap:square;stroke-linejoin:miter;stroke-width:2.5;"/>
   </g>
   <g id="patch_61">
    <path d="M 598.334732 603.86 
L 681.571875 603.86 
" style="fill:none;stroke:#262626;stroke-linecap:square;stroke-linejoin:miter;stroke-width:2.5;"/>
   </g>
  </g>
 </g>
 <defs>
  <clipPath id="pac25535259">
   <rect height="494.375429" width="482.775429" x="98.911875" y="109.484571"/>
  </clipPath>
  <clipPath id="pf506381b23">
   <rect height="85.237143" width="482.775429" x="98.911875" y="7.2"/>
  </clipPath>
  <clipPath id="p5dd3296453">
   <rect height="494.375429" width="83.237143" x="598.334732" y="109.484571"/>
  </clipPath>
 </defs>
</svg>
