<?xml version="1.0" encoding="utf-8" standalone="no"?>
<!DOCTYPE svg PUBLIC "-//W3C//DTD SVG 1.1//EN"
  "http://www.w3.org/Graphics/SVG/1.1/DTD/svg11.dtd">
<svg height="675.079375pt" version="1.1" viewBox="0 0 674.774375 675.079375" width="674.774375pt" xmlns="http://www.w3.org/2000/svg" xmlns:xlink="http://www.w3.org/1999/xlink">
 <metadata>
  <rdf:RDF xmlns:cc="http://creativecommons.org/ns#" xmlns:dc="http://purl.org/dc/elements/1.1/" xmlns:rdf="http://www.w3.org/1999/02/22-rdf-syntax-ns#">
   <cc:Work>
    <dc:type rdf:resource="http://purl.org/dc/dcmitype/StillImage"/>
    <dc:date>2021-07-16T21:44:00.650266</dc:date>
    <dc:format>image/svg+xml</dc:format>
    <dc:creator>
     <cc:Agent>
      <dc:title>Matplotlib v3.4.2, https://matplotlib.org/</dc:title>
     </cc:Agent>
    </dc:creator>
   </cc:Work>
  </rdf:RDF>
 </metadata>
 <defs>
  <style type="text/css">*{stroke-linecap:butt;stroke-linejoin:round;}</style>
 </defs>
 <g id="figure_1">
  <g id="patch_1">
   <path d="M 0 675.079375 
L 674.774375 675.079375 
L 674.774375 0 
L 0 0 
z
" style="fill:#ffffff;"/>
  </g>
  <g id="axes_1">
   <g id="patch_2">
    <path d="M 84.914375 603.86 
L 567.689804 603.86 
L 567.689804 109.484571 
L 84.914375 109.484571 
z
" style="fill:none;"/>
   </g>
   <g id="matplotlib.axis_1">
    <g id="xtick_1">
     <g id="text_1">
      <!-- 0 -->
      <g style="fill:#262626;" transform="translate(99.64041 636.076563)scale(0.22 -0.22)">
       <defs>
        <path d="M 2034 4250 
Q 1547 4250 1301 3770 
Q 1056 3291 1056 2328 
Q 1056 1369 1301 889 
Q 1547 409 2034 409 
Q 2525 409 2770 889 
Q 3016 1369 3016 2328 
Q 3016 3291 2770 3770 
Q 2525 4250 2034 4250 
z
M 2034 4750 
Q 2819 4750 3233 4129 
Q 3647 3509 3647 2328 
Q 3647 1150 3233 529 
Q 2819 -91 2034 -91 
Q 1250 -91 836 529 
Q 422 1150 422 2328 
Q 422 3509 836 4129 
Q 1250 4750 2034 4750 
z
" id="DejaVuSans-30" transform="scale(0.015625)"/>
       </defs>
       <use xlink:href="#DejaVuSans-30"/>
      </g>
     </g>
    </g>
    <g id="xtick_2">
     <g id="text_2">
      <!-- 20000 -->
      <g style="fill:#262626;" transform="translate(159.466671 636.076563)scale(0.22 -0.22)">
       <defs>
        <path d="M 1228 531 
L 3431 531 
L 3431 0 
L 469 0 
L 469 531 
Q 828 903 1448 1529 
Q 2069 2156 2228 2338 
Q 2531 2678 2651 2914 
Q 2772 3150 2772 3378 
Q 2772 3750 2511 3984 
Q 2250 4219 1831 4219 
Q 1534 4219 1204 4116 
Q 875 4013 500 3803 
L 500 4441 
Q 881 4594 1212 4672 
Q 1544 4750 1819 4750 
Q 2544 4750 2975 4387 
Q 3406 4025 3406 3419 
Q 3406 3131 3298 2873 
Q 3191 2616 2906 2266 
Q 2828 2175 2409 1742 
Q 1991 1309 1228 531 
z
" id="DejaVuSans-32" transform="scale(0.015625)"/>
       </defs>
       <use xlink:href="#DejaVuSans-32"/>
       <use x="63.623047" xlink:href="#DejaVuSans-30"/>
       <use x="127.246094" xlink:href="#DejaVuSans-30"/>
       <use x="190.869141" xlink:href="#DejaVuSans-30"/>
       <use x="254.492188" xlink:href="#DejaVuSans-30"/>
      </g>
     </g>
    </g>
    <g id="xtick_3">
     <g id="text_3">
      <!-- 40000 -->
      <g style="fill:#262626;" transform="translate(247.287932 636.076563)scale(0.22 -0.22)">
       <defs>
        <path d="M 2419 4116 
L 825 1625 
L 2419 1625 
L 2419 4116 
z
M 2253 4666 
L 3047 4666 
L 3047 1625 
L 3713 1625 
L 3713 1100 
L 3047 1100 
L 3047 0 
L 2419 0 
L 2419 1100 
L 313 1100 
L 313 1709 
L 2253 4666 
z
" id="DejaVuSans-34" transform="scale(0.015625)"/>
       </defs>
       <use xlink:href="#DejaVuSans-34"/>
       <use x="63.623047" xlink:href="#DejaVuSans-30"/>
       <use x="127.246094" xlink:href="#DejaVuSans-30"/>
       <use x="190.869141" xlink:href="#DejaVuSans-30"/>
       <use x="254.492188" xlink:href="#DejaVuSans-30"/>
      </g>
     </g>
    </g>
    <g id="xtick_4">
     <g id="text_4">
      <!-- 60000 -->
      <g style="fill:#262626;" transform="translate(335.109193 636.076563)scale(0.22 -0.22)">
       <defs>
        <path d="M 2113 2584 
Q 1688 2584 1439 2293 
Q 1191 2003 1191 1497 
Q 1191 994 1439 701 
Q 1688 409 2113 409 
Q 2538 409 2786 701 
Q 3034 994 3034 1497 
Q 3034 2003 2786 2293 
Q 2538 2584 2113 2584 
z
M 3366 4563 
L 3366 3988 
Q 3128 4100 2886 4159 
Q 2644 4219 2406 4219 
Q 1781 4219 1451 3797 
Q 1122 3375 1075 2522 
Q 1259 2794 1537 2939 
Q 1816 3084 2150 3084 
Q 2853 3084 3261 2657 
Q 3669 2231 3669 1497 
Q 3669 778 3244 343 
Q 2819 -91 2113 -91 
Q 1303 -91 875 529 
Q 447 1150 447 2328 
Q 447 3434 972 4092 
Q 1497 4750 2381 4750 
Q 2619 4750 2861 4703 
Q 3103 4656 3366 4563 
z
" id="DejaVuSans-36" transform="scale(0.015625)"/>
       </defs>
       <use xlink:href="#DejaVuSans-36"/>
       <use x="63.623047" xlink:href="#DejaVuSans-30"/>
       <use x="127.246094" xlink:href="#DejaVuSans-30"/>
       <use x="190.869141" xlink:href="#DejaVuSans-30"/>
       <use x="254.492188" xlink:href="#DejaVuSans-30"/>
      </g>
     </g>
    </g>
    <g id="xtick_5">
     <g id="text_5">
      <!-- 80000 -->
      <g style="fill:#262626;" transform="translate(422.930455 636.076563)scale(0.22 -0.22)">
       <defs>
        <path d="M 2034 2216 
Q 1584 2216 1326 1975 
Q 1069 1734 1069 1313 
Q 1069 891 1326 650 
Q 1584 409 2034 409 
Q 2484 409 2743 651 
Q 3003 894 3003 1313 
Q 3003 1734 2745 1975 
Q 2488 2216 2034 2216 
z
M 1403 2484 
Q 997 2584 770 2862 
Q 544 3141 544 3541 
Q 544 4100 942 4425 
Q 1341 4750 2034 4750 
Q 2731 4750 3128 4425 
Q 3525 4100 3525 3541 
Q 3525 3141 3298 2862 
Q 3072 2584 2669 2484 
Q 3125 2378 3379 2068 
Q 3634 1759 3634 1313 
Q 3634 634 3220 271 
Q 2806 -91 2034 -91 
Q 1263 -91 848 271 
Q 434 634 434 1313 
Q 434 1759 690 2068 
Q 947 2378 1403 2484 
z
M 1172 3481 
Q 1172 3119 1398 2916 
Q 1625 2713 2034 2713 
Q 2441 2713 2670 2916 
Q 2900 3119 2900 3481 
Q 2900 3844 2670 4047 
Q 2441 4250 2034 4250 
Q 1625 4250 1398 4047 
Q 1172 3844 1172 3481 
z
" id="DejaVuSans-38" transform="scale(0.015625)"/>
       </defs>
       <use xlink:href="#DejaVuSans-38"/>
       <use x="63.623047" xlink:href="#DejaVuSans-30"/>
       <use x="127.246094" xlink:href="#DejaVuSans-30"/>
       <use x="190.869141" xlink:href="#DejaVuSans-30"/>
       <use x="254.492188" xlink:href="#DejaVuSans-30"/>
      </g>
     </g>
    </g>
    <g id="xtick_6">
     <g id="text_6">
      <!-- 100000 -->
      <g style="fill:#262626;" transform="translate(503.752966 636.076563)scale(0.22 -0.22)">
       <defs>
        <path d="M 794 531 
L 1825 531 
L 1825 4091 
L 703 3866 
L 703 4441 
L 1819 4666 
L 2450 4666 
L 2450 531 
L 3481 531 
L 3481 0 
L 794 0 
L 794 531 
z
" id="DejaVuSans-31" transform="scale(0.015625)"/>
       </defs>
       <use xlink:href="#DejaVuSans-31"/>
       <use x="63.623047" xlink:href="#DejaVuSans-30"/>
       <use x="127.246094" xlink:href="#DejaVuSans-30"/>
       <use x="190.869141" xlink:href="#DejaVuSans-30"/>
       <use x="254.492188" xlink:href="#DejaVuSans-30"/>
       <use x="318.115234" xlink:href="#DejaVuSans-30"/>
      </g>
     </g>
    </g>
    <g id="text_7">
     <!-- MDTU -->
     <g style="fill:#262626;" transform="translate(290.596464 662.888125)scale(0.24 -0.24)">
      <defs>
       <path d="M 628 4666 
L 1569 4666 
L 2759 1491 
L 3956 4666 
L 4897 4666 
L 4897 0 
L 4281 0 
L 4281 4097 
L 3078 897 
L 2444 897 
L 1241 4097 
L 1241 0 
L 628 0 
L 628 4666 
z
" id="DejaVuSans-4d" transform="scale(0.015625)"/>
       <path d="M 1259 4147 
L 1259 519 
L 2022 519 
Q 2988 519 3436 956 
Q 3884 1394 3884 2338 
Q 3884 3275 3436 3711 
Q 2988 4147 2022 4147 
L 1259 4147 
z
M 628 4666 
L 1925 4666 
Q 3281 4666 3915 4102 
Q 4550 3538 4550 2338 
Q 4550 1131 3912 565 
Q 3275 0 1925 0 
L 628 0 
L 628 4666 
z
" id="DejaVuSans-44" transform="scale(0.015625)"/>
       <path d="M -19 4666 
L 3928 4666 
L 3928 4134 
L 2272 4134 
L 2272 0 
L 1638 0 
L 1638 4134 
L -19 4134 
L -19 4666 
z
" id="DejaVuSans-54" transform="scale(0.015625)"/>
       <path d="M 556 4666 
L 1191 4666 
L 1191 1831 
Q 1191 1081 1462 751 
Q 1734 422 2344 422 
Q 2950 422 3222 751 
Q 3494 1081 3494 1831 
L 3494 4666 
L 4128 4666 
L 4128 1753 
Q 4128 841 3676 375 
Q 3225 -91 2344 -91 
Q 1459 -91 1007 375 
Q 556 841 556 1753 
L 556 4666 
z
" id="DejaVuSans-55" transform="scale(0.015625)"/>
      </defs>
      <use xlink:href="#DejaVuSans-4d"/>
      <use x="86.279297" xlink:href="#DejaVuSans-44"/>
      <use x="163.28125" xlink:href="#DejaVuSans-54"/>
      <use x="224.365234" xlink:href="#DejaVuSans-55"/>
     </g>
    </g>
   </g>
   <g id="matplotlib.axis_2">
    <g id="ytick_1">
     <g id="text_8">
      <!-- 0.4 -->
      <g style="fill:#262626;" transform="translate(34.4275 545.86058)scale(0.22 -0.22)">
       <defs>
        <path d="M 684 794 
L 1344 794 
L 1344 0 
L 684 0 
L 684 794 
z
" id="DejaVuSans-2e" transform="scale(0.015625)"/>
       </defs>
       <use xlink:href="#DejaVuSans-30"/>
       <use x="63.623047" xlink:href="#DejaVuSans-2e"/>
       <use x="95.410156" xlink:href="#DejaVuSans-34"/>
      </g>
     </g>
    </g>
    <g id="ytick_2">
     <g id="text_9">
      <!-- 0.6 -->
      <g style="fill:#262626;" transform="translate(34.4275 474.271392)scale(0.22 -0.22)">
       <use xlink:href="#DejaVuSans-30"/>
       <use x="63.623047" xlink:href="#DejaVuSans-2e"/>
       <use x="95.410156" xlink:href="#DejaVuSans-36"/>
      </g>
     </g>
    </g>
    <g id="ytick_3">
     <g id="text_10">
      <!-- 0.8 -->
      <g style="fill:#262626;" transform="translate(34.4275 402.682204)scale(0.22 -0.22)">
       <use xlink:href="#DejaVuSans-30"/>
       <use x="63.623047" xlink:href="#DejaVuSans-2e"/>
       <use x="95.410156" xlink:href="#DejaVuSans-38"/>
      </g>
     </g>
    </g>
    <g id="ytick_4">
     <g id="text_11">
      <!-- 1.0 -->
      <g style="fill:#262626;" transform="translate(34.4275 331.093015)scale(0.22 -0.22)">
       <use xlink:href="#DejaVuSans-31"/>
       <use x="63.623047" xlink:href="#DejaVuSans-2e"/>
       <use x="95.410156" xlink:href="#DejaVuSans-30"/>
      </g>
     </g>
    </g>
    <g id="ytick_5">
     <g id="text_12">
      <!-- 1.2 -->
      <g style="fill:#262626;" transform="translate(34.4275 259.503827)scale(0.22 -0.22)">
       <use xlink:href="#DejaVuSans-31"/>
       <use x="63.623047" xlink:href="#DejaVuSans-2e"/>
       <use x="95.410156" xlink:href="#DejaVuSans-32"/>
      </g>
     </g>
    </g>
    <g id="ytick_6">
     <g id="text_13">
      <!-- 1.4 -->
      <g style="fill:#262626;" transform="translate(34.4275 187.914638)scale(0.22 -0.22)">
       <use xlink:href="#DejaVuSans-31"/>
       <use x="63.623047" xlink:href="#DejaVuSans-2e"/>
       <use x="95.410156" xlink:href="#DejaVuSans-34"/>
      </g>
     </g>
    </g>
    <g id="text_14">
     <!-- $E$ -->
     <g style="fill:#262626;" transform="translate(25.43625 364.352286)rotate(-90)scale(0.24 -0.24)">
      <defs>
       <path d="M 1081 4666 
L 4031 4666 
L 3928 4134 
L 1606 4134 
L 1338 2753 
L 3566 2753 
L 3463 2222 
L 1234 2222 
L 909 531 
L 3284 531 
L 3181 0 
L 172 0 
L 1081 4666 
z
" id="DejaVuSans-Oblique-45" transform="scale(0.015625)"/>
      </defs>
      <use transform="translate(0 0.09375)" xlink:href="#DejaVuSans-Oblique-45"/>
     </g>
    </g>
   </g>
   <g id="line2d_1">
    <path clip-path="url(#pf5bbffe205)" d="M 106.858713 572.740937 
L 107.078266 482.489225 
L 107.297819 494.712909 
L 107.517372 514.755528 
L 107.736925 399.173639 
L 107.956478 516.064503 
L 108.176032 445.204512 
L 108.395585 420.922527 
L 108.834691 477.780188 
L 109.054244 532.411387 
L 109.273797 409.585943 
L 109.493351 484.68676 
L 109.712904 473.76748 
L 109.932457 487.270496 
L 110.15201 448.544873 
L 110.371563 435.448039 
L 110.591116 474.494431 
L 110.810669 483.53547 
L 111.030223 475.921081 
L 111.249776 430.956118 
L 111.688882 492.903654 
L 111.908435 463.953545 
L 112.127988 527.928233 
L 112.786648 454.99646 
L 113.006201 426.124221 
L 113.445307 480.070775 
L 113.66486 456.915294 
L 113.884414 466.216016 
L 114.103967 553.061671 
L 114.32352 420.825779 
L 114.543073 400.224015 
L 114.982179 536.714277 
L 115.421286 484.646649 
L 115.640839 417.829416 
L 115.860392 440.36681 
L 116.079945 396.131772 
L 116.299498 473.929743 
L 116.519051 420.492796 
L 116.738605 505.292148 
L 116.958158 497.830365 
L 117.177711 356.255752 
L 117.397264 432.03044 
L 117.616817 440.928977 
L 117.83637 534.60354 
L 118.055923 462.761188 
L 118.275477 470.639828 
L 118.714583 520.799993 
L 118.934136 474.183617 
L 119.153689 542.270697 
L 119.373242 492.927967 
L 119.592796 414.963784 
L 119.812349 515.963623 
L 120.471008 293.100523 
L 120.690561 530.188448 
L 120.910114 525.865776 
L 121.129668 357.403051 
L 121.349221 467.269374 
L 121.568774 383.513664 
L 122.00788 485.032205 
L 122.227433 456.234846 
L 122.446987 445.058807 
L 122.66654 469.157304 
L 122.886093 524.125493 
L 123.105646 479.524947 
L 123.325199 509.934598 
L 123.764305 467.847195 
L 124.203412 508.445963 
L 124.422965 418.215029 
L 124.862071 484.741676 
L 125.081624 426.977318 
L 125.301178 535.190473 
L 125.520731 279.152205 
L 125.740284 464.671139 
L 125.959837 274.339771 
L 126.17939 479.219226 
L 126.398943 406.35583 
L 126.618496 446.400116 
L 126.83805 418.537525 
L 127.057603 450.387293 
L 127.277156 514.659491 
L 127.496709 481.093176 
L 127.716262 397.428296 
L 127.935815 561.317551 
L 128.155369 472.526688 
L 128.594475 391.090134 
L 128.814028 374.505261 
L 129.033581 369.226704 
L 129.253134 476.415453 
L 129.472687 507.22192 
L 129.692241 419.043201 
L 129.911794 537.647126 
L 130.131347 504.357845 
L 130.3509 510.622817 
L 130.570453 373.219995 
L 130.790006 507.954991 
L 131.00956 471.361769 
L 131.229113 381.889233 
L 131.448666 431.016063 
L 131.668219 505.46196 
L 132.107325 402.796701 
L 132.326878 432.98148 
L 132.546432 483.042093 
L 132.765985 499.904019 
L 132.985538 427.420343 
L 133.424644 470.223084 
L 133.644197 454.592498 
L 133.863751 481.259392 
L 134.083304 444.301302 
L 134.302857 333.587712 
L 134.52241 436.834327 
L 134.741963 352.743665 
L 134.961516 434.431572 
L 135.181069 393.023809 
L 135.400623 393.048336 
L 135.620176 471.119373 
L 135.839729 426.183066 
L 136.059282 491.306026 
L 136.498388 474.951651 
L 136.717941 457.998638 
L 136.937495 473.26953 
L 137.157048 413.628814 
L 137.376601 429.882881 
L 137.596154 517.412531 
L 137.815707 496.298677 
L 138.03526 548.546205 
L 138.474367 408.671931 
L 138.69392 517.323098 
L 138.913473 495.717363 
L 139.133026 463.105029 
L 139.352579 447.882153 
L 139.572132 523.947409 
L 139.791686 470.713957 
L 140.011239 489.580924 
L 140.450345 403.269886 
L 140.889451 492.82974 
L 141.109005 405.31007 
L 141.328558 504.477733 
L 141.987217 364.258423 
L 142.20677 422.390786 
L 142.426323 442.880509 
L 142.645877 551.926058 
L 142.86543 392.730558 
L 143.084983 474.783001 
L 143.304536 480.880194 
L 143.524089 515.278673 
L 143.743642 408.647112 
L 143.963196 455.826254 
L 144.182749 463.597433 
L 144.402302 411.370825 
L 144.621855 468.756098 
L 144.841408 495.406489 
L 145.060961 444.385015 
L 145.280514 456.827402 
L 145.500068 397.294201 
L 145.939174 538.981018 
L 146.158727 371.243689 
L 146.37828 478.580597 
L 146.597833 427.567748 
L 146.817387 453.100431 
L 147.03694 530.965838 
L 147.256493 301.094536 
L 147.476046 466.06176 
L 147.695599 492.801109 
L 147.915152 478.281473 
L 148.134705 446.575775 
L 148.354259 468.96244 
L 148.573812 415.943107 
L 148.793365 461.454634 
L 149.012918 483.511314 
L 149.232471 479.920922 
L 149.452024 407.669297 
L 149.671578 410.879501 
L 149.891131 416.908685 
L 150.110684 462.258072 
L 150.54979 384.069126 
L 150.769343 377.484812 
L 150.988896 359.257716 
L 151.428003 524.831064 
L 151.647556 445.645466 
L 151.867109 536.983487 
L 152.086662 536.642441 
L 152.306215 511.96851 
L 152.525769 440.255207 
L 152.745322 479.320187 
L 152.964875 546.279108 
L 153.184428 536.744406 
L 153.403981 305.922654 
L 153.623534 498.056377 
L 153.843087 476.36355 
L 154.282194 552.245537 
L 154.7213 423.477362 
L 154.940853 476.802397 
L 155.160406 487.574971 
L 155.599513 517.020507 
L 155.819066 499.064626 
L 156.038619 443.632771 
L 156.258172 504.663504 
L 156.477725 494.225557 
L 156.697278 402.579782 
L 156.916832 479.756539 
L 157.136385 508.813826 
L 157.355938 515.889001 
L 157.575491 382.440319 
L 157.795044 507.755659 
L 158.014597 411.487865 
L 158.234151 547.285552 
L 158.673257 482.732196 
L 158.89281 471.160748 
L 159.112363 497.704643 
L 159.331916 494.227749 
L 159.551469 363.043389 
L 159.771023 472.4103 
L 159.990576 465.316847 
L 160.210129 398.006305 
L 160.429682 377.836659 
L 160.649235 509.713379 
L 160.868788 403.002406 
L 161.307895 465.820696 
L 161.527448 524.494744 
L 161.747001 419.290436 
L 161.966554 411.557943 
L 162.186107 522.736729 
L 162.40566 479.974066 
L 162.625214 462.143803 
L 162.844767 485.196122 
L 163.06432 450.849644 
L 163.283873 481.030581 
L 163.503426 428.825192 
L 163.722979 452.337641 
L 163.942532 498.580297 
L 164.162086 484.25351 
L 164.381639 418.300101 
L 164.601192 498.875643 
L 164.820745 408.119632 
L 165.040298 531.983273 
L 165.259851 444.585424 
L 165.479405 491.48373 
L 165.698958 497.227826 
L 166.138064 393.827459 
L 166.357617 472.945673 
L 166.57717 348.826203 
L 166.796723 483.255311 
L 167.016277 450.183703 
L 167.23583 365.806114 
L 167.455383 407.775808 
L 167.674936 407.369167 
L 167.894489 501.616137 
L 168.114042 505.512719 
L 168.553149 317.685907 
L 168.772702 498.65821 
L 168.992255 517.064723 
L 169.211808 360.022082 
L 169.431361 499.23316 
L 169.650914 437.58735 
L 169.870468 444.62295 
L 170.090021 427.108001 
L 170.309574 378.037857 
L 170.529127 417.267069 
L 170.74868 536.928717 
L 170.968233 473.194014 
L 171.187787 342.054706 
L 171.40734 486.235141 
L 171.626893 447.118616 
L 171.846446 505.24241 
L 172.065999 443.534654 
L 172.285552 453.800355 
L 172.505105 500.379854 
L 172.724659 487.69074 
L 172.944212 518.164705 
L 173.163765 458.313336 
L 173.383318 441.033173 
L 173.602871 516.248504 
L 173.822424 521.872204 
L 174.041978 373.548723 
L 174.261531 474.149881 
L 174.481084 523.275881 
L 174.700637 488.814253 
L 174.92019 388.1846 
L 175.139743 488.126797 
L 175.359296 503.65158 
L 175.57885 421.467976 
L 175.798403 509.922174 
L 176.017956 473.327566 
L 176.237509 561.810569 
L 176.457062 507.197815 
L 176.676615 486.17291 
L 176.896169 405.222671 
L 177.115722 466.940886 
L 177.335275 412.490245 
L 177.554828 425.900556 
L 177.774381 504.959863 
L 177.993934 420.957411 
L 178.213487 408.911487 
L 178.433041 491.557275 
L 178.652594 383.61074 
L 178.872147 496.514417 
L 179.0917 391.306659 
L 179.530806 498.524456 
L 179.75036 483.742761 
L 180.189466 511.549121 
L 180.409019 498.079608 
L 180.628572 552.697789 
L 180.848125 478.430604 
L 181.067678 525.408492 
L 181.287232 366.618304 
L 181.506785 469.147906 
L 181.726338 495.848416 
L 181.945891 398.959584 
L 182.165444 385.774898 
L 182.384997 296.727085 
L 182.824104 552.1355 
L 183.043657 379.586559 
L 183.26321 495.535947 
L 183.482763 526.248196 
L 183.702316 443.076111 
L 183.921869 478.280964 
L 184.141423 426.323501 
L 184.360976 512.900189 
L 184.580529 461.757356 
L 184.800082 456.703879 
L 185.019635 462.052157 
L 185.239188 455.268583 
L 185.458742 468.316567 
L 185.678295 508.213255 
L 185.897848 508.286111 
L 186.117401 394.89778 
L 186.336954 391.254388 
L 186.556507 463.847509 
L 186.77606 474.232594 
L 186.995614 504.242377 
L 187.215167 443.609218 
L 187.43472 512.613093 
L 187.654273 474.881648 
L 187.873826 475.550097 
L 188.093379 391.577163 
L 188.312932 427.496113 
L 188.532486 505.92861 
L 188.752039 382.772843 
L 188.971592 528.248273 
L 189.191145 375.617495 
L 189.410698 437.254086 
L 189.630251 443.40851 
L 189.849805 453.948208 
L 190.069358 475.27869 
L 190.288911 440.61106 
L 190.728017 549.793189 
L 190.94757 426.772382 
L 191.167123 380.126931 
L 191.386677 402.849332 
L 192.045336 520.817239 
L 192.264889 527.781432 
L 192.484442 487.256247 
L 192.703996 499.168048 
L 192.923549 402.466458 
L 193.143102 481.878275 
L 193.362655 465.065579 
L 193.582208 485.693406 
L 194.021314 468.327405 
L 194.460421 502.344231 
L 194.679974 498.20419 
L 194.899527 359.482961 
L 195.11908 461.159272 
L 195.338633 454.143185 
L 195.558187 383.16432 
L 195.77774 517.505167 
L 195.997293 414.199756 
L 196.216846 467.51675 
L 196.436399 487.906933 
L 196.655952 399.660273 
L 197.095059 521.077816 
L 197.314612 370.267692 
L 197.753718 581.38839 
L 197.973271 332.081582 
L 198.192824 346.500655 
L 198.412378 491.022209 
L 198.631931 400.567982 
L 199.071037 521.309373 
L 199.29059 533.895782 
L 199.510143 471.31469 
L 199.729696 490.798827 
L 199.94925 380.621163 
L 200.168803 501.259581 
L 200.388356 442.792491 
L 200.607909 540.581839 
L 200.827462 406.417239 
L 201.047015 496.155211 
L 201.266569 449.0901 
L 201.486122 341.150363 
L 201.705675 532.305277 
L 202.144781 436.680605 
L 202.583887 497.381455 
L 202.803441 381.74917 
L 203.022994 512.867374 
L 203.242547 478.380835 
L 203.4621 496.879358 
L 203.681653 402.886802 
L 203.901206 482.319581 
L 204.12076 349.089749 
L 204.340313 452.313886 
L 204.559866 420.978805 
L 204.779419 485.774705 
L 204.998972 448.109399 
L 205.218525 450.972341 
L 205.438078 499.631901 
L 205.657632 439.417656 
L 205.877185 420.474727 
L 206.096738 498.112346 
L 206.316291 412.704289 
L 206.535844 409.72753 
L 206.755397 435.753464 
L 206.974951 486.161836 
L 207.194504 402.462734 
L 207.414057 418.16752 
L 207.853163 528.225027 
L 208.072716 532.10422 
L 208.292269 515.961639 
L 208.511823 458.450047 
L 208.731376 518.448269 
L 209.170482 368.044202 
L 209.390035 432.832313 
L 209.609588 410.205528 
L 209.829142 467.879484 
L 210.048695 472.639384 
L 210.268248 437.565917 
L 210.487801 511.747368 
L 210.707354 438.910596 
L 211.14646 484.142756 
L 211.366014 428.974948 
L 211.585567 500.448442 
L 211.80512 480.830547 
L 212.024673 545.835206 
L 212.244226 523.717446 
L 212.463779 462.577596 
L 212.683333 496.624616 
L 213.122439 368.854427 
L 213.341992 382.588011 
L 213.781098 440.438785 
L 214.000651 479.138977 
L 214.220205 481.000713 
L 214.659311 443.904121 
L 214.878864 437.291642 
L 215.098417 460.271846 
L 215.31797 469.776062 
L 215.757077 418.197856 
L 215.97663 558.804442 
L 216.415736 439.269431 
L 216.635289 505.120275 
L 216.854842 399.253711 
L 217.074396 434.450378 
L 217.293949 393.768394 
L 217.733055 467.267254 
L 217.952608 389.489233 
L 218.172161 461.672064 
L 218.391714 405.714019 
L 218.830821 538.317685 
L 219.050374 411.397046 
L 219.269927 461.376157 
L 219.48948 453.676312 
L 219.709033 533.436384 
L 220.14814 465.122177 
L 220.367693 465.276907 
L 220.587246 440.683584 
L 220.806799 531.776692 
L 221.026352 471.782829 
L 221.245905 539.721682 
L 221.465459 456.969176 
L 221.904565 512.888817 
L 222.124118 382.620518 
L 222.343671 547.120331 
L 222.563224 420.308574 
L 222.782778 491.603165 
L 223.002331 434.82435 
L 223.221884 341.169211 
L 223.441437 446.572598 
L 223.66099 413.176684 
L 223.880543 438.117016 
L 224.100096 481.383081 
L 224.31965 456.842141 
L 224.539203 371.984422 
L 224.758756 460.295563 
L 224.978309 469.239126 
L 225.197862 509.525584 
L 225.417415 444.106512 
L 225.636969 467.474348 
L 225.856522 469.249026 
L 226.295628 438.394232 
L 226.515181 439.655575 
L 226.734734 335.185387 
L 226.954287 490.094315 
L 227.393394 481.936922 
L 227.612947 366.626168 
L 227.8325 507.309027 
L 228.052053 503.617219 
L 228.271606 386.869226 
L 228.49116 490.129828 
L 228.710713 442.897721 
L 228.930266 469.709856 
L 229.149819 350.397948 
L 229.369372 493.320066 
L 229.588925 503.26687 
L 230.028032 478.561096 
L 230.247585 436.725004 
L 230.467138 463.876128 
L 230.686691 546.313735 
L 230.906244 480.643682 
L 231.125797 454.010932 
L 231.345351 368.082864 
L 231.564904 372.090545 
L 231.784457 524.064338 
L 232.00401 328.102598 
L 232.443116 457.645557 
L 232.662669 488.704275 
L 232.882223 457.071717 
L 233.101776 265.273556 
L 233.321329 460.404241 
L 233.540882 485.519745 
L 233.760435 352.142469 
L 233.979988 472.863897 
L 234.199542 481.575138 
L 234.419095 413.589695 
L 234.858201 378.539712 
L 235.077754 425.676681 
L 235.297307 503.827699 
L 235.51686 513.030715 
L 235.736414 362.206196 
L 236.17552 489.559968 
L 236.395073 514.619734 
L 236.614626 422.277577 
L 236.834179 523.372313 
L 237.053733 407.057168 
L 237.273286 456.053904 
L 237.492839 432.33721 
L 237.712392 435.128147 
L 237.931945 485.475212 
L 238.151498 435.009521 
L 238.371051 483.825767 
L 238.590605 426.824929 
L 238.810158 435.038193 
L 239.029711 487.295551 
L 239.249264 462.578938 
L 239.468817 461.936667 
L 239.68837 401.098479 
L 239.907924 401.747406 
L 240.127477 485.026425 
L 240.34703 346.19483 
L 240.786136 502.856056 
L 241.005689 494.030414 
L 241.225242 539.7906 
L 241.444796 461.512741 
L 241.664349 517.782167 
L 241.883902 536.987302 
L 242.103455 500.598799 
L 242.323008 508.510058 
L 242.542561 451.824494 
L 242.762114 475.433793 
L 242.981668 473.913182 
L 243.201221 447.680796 
L 243.420774 477.674584 
L 243.640327 407.935386 
L 243.85988 443.961116 
L 244.079433 540.537992 
L 244.51854 402.509219 
L 244.738093 461.984581 
L 244.957646 371.690307 
L 245.177199 511.127665 
L 245.396752 412.551122 
L 245.616305 527.160987 
L 245.835859 466.080575 
L 246.055412 326.520181 
L 246.274965 474.632101 
L 246.494518 447.847792 
L 246.714071 385.181494 
L 246.933624 437.561354 
L 247.153178 372.93699 
L 247.592284 498.080506 
L 247.811837 501.419616 
L 248.03139 491.172438 
L 248.250943 462.071488 
L 248.470496 485.902267 
L 248.69005 493.011301 
L 249.129156 406.117511 
L 249.348709 541.288579 
L 249.568262 494.26588 
L 249.787815 342.05905 
L 250.007369 479.390355 
L 250.226922 473.137491 
L 250.446475 449.234775 
L 250.666028 481.313252 
L 251.105134 368.422401 
L 251.324687 390.876405 
L 251.763794 480.179609 
L 251.983347 452.17388 
L 252.2029 398.005688 
L 252.422453 461.612226 
L 252.642006 419.869912 
L 252.86156 465.611153 
L 253.081113 391.429358 
L 253.300666 440.095443 
L 253.520219 355.838316 
L 253.739772 503.941541 
L 253.959325 434.070685 
L 254.398432 478.106661 
L 254.617985 435.272386 
L 254.837538 494.18215 
L 255.057091 512.483106 
L 255.276644 498.229539 
L 255.715751 440.856746 
L 255.935304 498.766423 
L 256.154857 447.473731 
L 256.37441 517.65004 
L 256.593963 489.163507 
L 256.813516 488.940842 
L 257.033069 467.832107 
L 257.252623 346.855977 
L 257.472176 512.697314 
L 257.691729 496.11284 
L 257.911282 378.954097 
L 258.130835 457.070033 
L 258.350388 350.335456 
L 258.569942 377.532252 
L 259.009048 498.527449 
L 259.228601 455.471116 
L 259.448154 462.989484 
L 259.667707 499.474223 
L 259.88726 450.131051 
L 260.106814 350.454669 
L 260.326367 528.624222 
L 260.54592 408.36219 
L 260.985026 373.08839 
L 261.204579 437.861813 
L 261.424133 437.902721 
L 261.643686 245.756769 
L 261.863239 480.972036 
L 262.082792 467.433434 
L 262.302345 474.280029 
L 262.521898 529.233693 
L 262.741451 495.026348 
L 262.961005 429.859074 
L 263.180558 420.754577 
L 263.400111 431.763601 
L 263.619664 472.500287 
L 263.839217 387.671647 
L 264.278324 454.752278 
L 264.497877 531.407644 
L 264.71743 325.413786 
L 265.156536 530.632655 
L 265.376089 418.182391 
L 265.815196 475.460016 
L 266.034749 461.160232 
L 266.254302 459.639879 
L 266.473855 426.47638 
L 266.693408 461.970371 
L 266.912961 443.471541 
L 267.132514 354.299934 
L 267.352068 476.937097 
L 267.571621 473.55638 
L 268.010727 331.859053 
L 268.23028 474.10064 
L 268.449833 493.490385 
L 268.669387 362.913154 
L 268.88894 476.477753 
L 269.328046 372.245928 
L 269.547599 507.976215 
L 269.767152 401.516982 
L 270.206259 503.373965 
L 270.425812 487.358594 
L 270.645365 491.718417 
L 270.864918 468.085642 
L 271.084471 511.382659 
L 271.304024 352.291642 
L 271.523578 460.781432 
L 271.743131 414.938189 
L 271.962684 498.662126 
L 272.182237 364.049218 
L 272.40179 460.011735 
L 272.840896 499.577963 
L 273.06045 458.841909 
L 273.280003 469.434651 
L 273.499556 423.979536 
L 273.719109 425.949828 
L 273.938662 484.995628 
L 274.158215 481.649145 
L 274.377769 536.486621 
L 274.597322 497.340771 
L 274.816875 373.487533 
L 275.036428 374.841641 
L 275.255981 366.066128 
L 275.475534 513.022157 
L 275.695087 399.848854 
L 275.914641 477.591692 
L 276.134194 478.806701 
L 276.353747 502.321371 
L 276.5733 503.798798 
L 276.792853 443.872335 
L 277.012406 458.005319 
L 277.23196 460.464957 
L 277.451513 427.689266 
L 277.671066 346.573918 
L 278.110172 519.41341 
L 278.329725 403.987817 
L 278.549278 384.536338 
L 278.988385 543.068311 
L 279.207938 440.434185 
L 279.427491 480.541281 
L 279.647044 476.280852 
L 279.866597 466.670581 
L 280.086151 438.232229 
L 280.305704 469.806891 
L 280.525257 399.463016 
L 280.74481 490.101715 
L 280.964363 430.02247 
L 281.183916 478.536992 
L 281.403469 494.771663 
L 281.623023 374.588262 
L 281.842576 521.379491 
L 282.062129 424.244867 
L 282.281682 428.881946 
L 282.720788 394.519814 
L 282.940342 431.378196 
L 283.159895 436.450196 
L 283.379448 455.069877 
L 283.599001 441.765954 
L 283.818554 418.161702 
L 284.038107 431.151622 
L 284.25766 497.518859 
L 284.477214 519.765931 
L 284.696767 421.419716 
L 284.91632 451.270461 
L 285.355426 544.148357 
L 285.574979 524.743355 
L 285.794533 488.599854 
L 286.014086 366.651672 
L 286.233639 466.208282 
L 286.453192 495.485694 
L 286.892298 385.231656 
L 287.111851 438.445055 
L 287.331405 535.94543 
L 287.550958 448.347046 
L 287.770511 507.112067 
L 288.209617 439.336804 
L 288.42917 460.577159 
L 288.648724 428.67494 
L 288.868277 422.32595 
L 289.08783 399.45174 
L 289.307383 421.935611 
L 289.526936 494.871331 
L 289.746489 500.662287 
L 289.966042 418.287002 
L 290.185596 451.304122 
L 290.405149 430.715198 
L 290.624702 500.127644 
L 290.844255 408.897641 
L 291.063808 511.534238 
L 291.502915 455.076741 
L 291.722468 483.374704 
L 291.942021 444.379131 
L 292.161574 536.844454 
L 292.381127 479.465197 
L 292.60068 454.935066 
L 292.820233 519.585059 
L 293.039787 486.603799 
L 293.25934 487.671072 
L 293.478893 400.144835 
L 293.698446 461.931822 
L 293.917999 438.368594 
L 294.137552 431.572241 
L 294.357105 509.944174 
L 294.576659 484.504615 
L 294.796212 408.309586 
L 295.015765 480.91318 
L 295.235318 463.418886 
L 295.454871 368.674566 
L 296.113531 506.786083 
L 296.333084 499.893891 
L 296.552637 468.73622 
L 296.77219 531.311539 
L 296.991743 414.271226 
L 297.211296 507.140007 
L 297.43085 543.883448 
L 297.869956 442.386734 
L 298.089509 512.783584 
L 298.309062 476.324238 
L 298.528615 488.78317 
L 298.748169 492.457853 
L 298.967722 131.956182 
L 299.187275 487.45938 
L 299.406828 419.501347 
L 299.626381 415.719307 
L 299.845934 516.56578 
L 300.065487 401.59941 
L 300.285041 499.385747 
L 300.504594 451.991389 
L 300.724147 565.996547 
L 300.9437 365.976953 
L 301.382806 486.751615 
L 301.60236 440.273296 
L 301.821913 424.417466 
L 302.041466 560.764775 
L 302.261019 423.512942 
L 302.480572 433.00225 
L 302.700125 520.486363 
L 302.919678 459.922442 
L 303.139232 487.119676 
L 303.358785 494.435781 
L 303.578338 369.041446 
L 303.797891 379.465243 
L 304.017444 482.714185 
L 304.236997 496.8536 
L 304.456551 387.263701 
L 304.676104 485.495791 
L 304.895657 470.810835 
L 305.11521 435.027274 
L 305.334763 510.398717 
L 305.554316 385.973504 
L 305.773869 480.538339 
L 305.993423 524.998439 
L 306.212976 405.333215 
L 306.432529 390.935658 
L 306.652082 393.487834 
L 306.871635 451.110524 
L 307.091188 453.366995 
L 307.310742 536.802973 
L 307.530295 524.592951 
L 307.969401 434.314377 
L 308.188954 491.092774 
L 308.408507 461.31998 
L 308.62806 408.213481 
L 308.847614 443.099939 
L 309.067167 432.108515 
L 309.28672 428.429473 
L 309.506273 492.068523 
L 309.945379 445.561199 
L 310.164933 371.567868 
L 310.604039 533.184998 
L 310.823592 436.131192 
L 311.043145 490.4729 
L 311.262698 494.055346 
L 311.482251 432.140259 
L 311.701805 481.771319 
L 311.921358 449.673739 
L 312.140911 491.847758 
L 312.360464 372.319419 
L 312.580017 382.366033 
L 312.79957 560.81053 
L 313.019124 402.373414 
L 313.238677 443.337729 
L 313.45823 458.600444 
L 313.677783 540.168662 
L 313.897336 411.253163 
L 314.116889 486.224809 
L 314.555996 412.50319 
L 314.995102 535.675222 
L 315.214655 420.871095 
L 315.434208 404.028748 
L 315.653761 469.669794 
L 315.873315 487.995111 
L 316.312421 319.044353 
L 316.751527 435.733034 
L 316.97108 412.801992 
L 317.190633 418.465843 
L 317.410187 400.664448 
L 317.62974 452.07088 
L 317.849293 443.196496 
L 318.288399 500.479932 
L 318.507952 425.798493 
L 318.947059 507.248825 
L 319.166612 452.965637 
L 319.386165 483.241695 
L 319.605718 397.161557 
L 319.825271 517.127991 
L 320.044824 474.324233 
L 320.264378 521.514206 
L 320.483931 468.789131 
L 320.703484 551.559727 
L 320.923037 441.242483 
L 321.14259 410.932475 
L 321.362143 479.463037 
L 321.581696 457.055209 
L 321.80125 508.230947 
L 322.020803 391.162843 
L 322.240356 525.244585 
L 322.459909 471.474289 
L 322.679462 489.58643 
L 323.118569 469.753037 
L 323.338122 476.540154 
L 323.557675 511.894201 
L 323.996781 442.384855 
L 324.216334 516.074737 
L 324.435887 359.028956 
L 324.655441 459.833964 
L 324.874994 420.906373 
L 325.094547 506.129706 
L 325.3141 401.799349 
L 325.533653 438.096062 
L 325.753206 385.414983 
L 325.97276 515.870996 
L 326.192313 477.813109 
L 326.411866 483.401794 
L 326.631419 534.918923 
L 326.850972 442.044051 
L 327.070525 410.987455 
L 327.290078 503.22785 
L 327.509632 406.89802 
L 327.948738 504.925603 
L 328.387844 418.521697 
L 328.607397 457.588797 
L 328.826951 530.266394 
L 329.046504 412.739602 
L 329.266057 500.668917 
L 329.48561 387.862082 
L 329.705163 431.99001 
L 329.924716 521.953392 
L 330.144269 502.648107 
L 330.363823 498.365963 
L 330.583376 471.988659 
L 330.802929 367.782426 
L 331.022482 506.018337 
L 331.242035 452.387879 
L 331.461588 482.903098 
L 331.681142 366.137559 
L 331.900695 448.722518 
L 332.120248 481.07072 
L 332.339801 433.945316 
L 332.559354 476.269451 
L 332.778907 488.520423 
L 332.99846 390.406621 
L 333.218014 465.757224 
L 333.437567 488.698801 
L 333.65712 476.390609 
L 333.876673 405.849917 
L 334.096226 372.27805 
L 334.315779 427.046925 
L 334.535333 432.573542 
L 334.754886 373.715725 
L 334.974439 441.500832 
L 335.193992 372.324815 
L 335.633098 504.142232 
L 335.852651 469.232061 
L 336.072205 516.520845 
L 336.291758 535.336271 
L 336.511311 451.709107 
L 336.730864 444.384155 
L 336.950417 361.875235 
L 337.16997 324.72288 
L 337.389524 483.873649 
L 337.609077 437.556087 
L 337.82863 478.815384 
L 338.048183 328.96269 
L 338.267736 369.686659 
L 338.487289 383.181129 
L 338.706842 475.679745 
L 338.926396 446.1077 
L 339.145949 388.220688 
L 339.365502 421.547273 
L 339.585055 513.276992 
L 339.804608 453.768429 
L 340.024161 510.671175 
L 340.243715 501.306231 
L 340.463268 442.216482 
L 340.682821 532.090928 
L 340.902374 473.499973 
L 341.121927 490.315467 
L 341.561033 409.63208 
L 342.00014 499.220762 
L 342.219693 502.702553 
L 342.439246 420.673834 
L 342.658799 429.808606 
L 342.878352 466.18897 
L 343.097906 483.945104 
L 343.317459 475.143893 
L 343.537012 423.659929 
L 343.976118 513.131608 
L 344.195671 402.031925 
L 344.415224 462.588578 
L 344.634778 485.673059 
L 345.073884 387.203038 
L 345.293437 425.01583 
L 345.51299 501.989364 
L 345.732543 475.149173 
L 345.952096 267.285163 
L 346.17165 438.242309 
L 346.391203 511.027004 
L 346.610756 445.813414 
L 346.830309 305.82836 
L 347.049862 509.253239 
L 347.269415 511.370922 
L 347.708522 355.944458 
L 347.928075 537.249388 
L 348.147628 452.934947 
L 348.367181 440.572946 
L 348.586734 416.206021 
L 349.025841 458.51223 
L 349.245394 455.478297 
L 349.464947 472.467261 
L 349.6845 471.929497 
L 349.904053 433.547971 
L 350.123606 462.118663 
L 350.34316 421.890102 
L 350.562713 462.415697 
L 350.782266 411.487572 
L 351.001819 454.349241 
L 351.221372 393.893914 
L 351.660478 488.173848 
L 351.880032 457.121887 
L 352.099585 377.773509 
L 352.319138 498.40726 
L 352.538691 478.074061 
L 352.758244 387.542257 
L 352.977797 454.214383 
L 353.197351 471.531989 
L 353.416904 479.410657 
L 353.636457 390.483397 
L 353.85601 459.412738 
L 354.075563 387.155598 
L 354.295116 512.748147 
L 354.514669 475.093316 
L 354.734223 219.17281 
L 354.953776 434.048729 
L 355.173329 456.831519 
L 355.392882 459.134283 
L 355.612435 524.847066 
L 355.831988 437.207222 
L 356.271095 502.999631 
L 356.490648 492.323212 
L 356.710201 515.080286 
L 356.929754 447.186884 
L 357.149307 555.105761 
L 357.588414 391.814646 
L 357.807967 424.54979 
L 358.02752 416.607089 
L 358.247073 389.363811 
L 358.466626 449.556937 
L 358.686179 459.737858 
L 359.125286 355.481648 
L 359.344839 437.526926 
L 359.564392 439.636351 
L 359.783945 491.038063 
L 360.003498 412.802069 
L 360.223051 386.57777 
L 360.442605 425.527097 
L 360.881711 449.128828 
L 361.101264 470.555922 
L 361.320817 466.246198 
L 361.759924 438.635321 
L 361.979477 408.505116 
L 362.19903 503.655986 
L 362.418583 469.994327 
L 362.638136 463.236402 
L 363.077242 548.807006 
L 363.516349 435.153217 
L 363.735902 484.306385 
L 363.955455 501.595246 
L 364.175008 492.739444 
L 364.394561 454.295494 
L 364.614115 490.976401 
L 364.833668 472.885131 
L 365.053221 545.529673 
L 365.272774 420.243097 
L 365.492327 462.418403 
L 365.71188 368.926852 
L 365.931433 492.937599 
L 366.150987 392.915962 
L 366.37054 474.384392 
L 366.590093 474.291533 
L 366.809646 530.242601 
L 367.029199 487.108766 
L 367.248752 467.464256 
L 367.468306 301.772773 
L 367.687859 516.613435 
L 367.907412 474.519573 
L 368.126965 477.074678 
L 368.346518 485.735825 
L 368.566071 468.114424 
L 368.785624 400.536176 
L 369.005178 492.994104 
L 369.224731 345.732258 
L 369.444284 496.190737 
L 369.663837 494.470882 
L 369.88339 488.396028 
L 370.102943 487.032138 
L 370.322497 488.615083 
L 370.54205 436.606073 
L 370.761603 496.100828 
L 370.981156 494.951636 
L 371.200709 440.395911 
L 371.639815 484.45239 
L 371.859369 478.59111 
L 372.078922 303.072086 
L 372.518028 517.475478 
L 372.737581 505.897315 
L 372.957134 419.942282 
L 373.176687 504.344931 
L 373.396241 500.83792 
L 373.615794 479.758129 
L 374.0549 252.278993 
L 374.274453 446.336617 
L 374.494006 508.431629 
L 374.71356 423.485066 
L 374.933113 454.187193 
L 375.152666 467.351337 
L 375.372219 505.438033 
L 375.591772 411.188893 
L 375.811325 418.676899 
L 376.030878 465.727214 
L 376.250432 444.760876 
L 376.469985 344.518589 
L 376.909091 484.048489 
L 377.128644 387.220116 
L 377.348197 485.0558 
L 377.567751 468.585637 
L 377.787304 423.608397 
L 378.006857 484.361053 
L 378.22641 456.059349 
L 378.445963 493.469423 
L 378.665516 436.698678 
L 378.885069 410.861627 
L 379.104623 435.206143 
L 379.324176 388.706585 
L 379.543729 510.447137 
L 379.763282 441.015941 
L 379.982835 482.550528 
L 380.202388 451.346721 
L 380.641495 516.802654 
L 380.861048 534.674262 
L 381.080601 428.12331 
L 381.519707 557.75796 
L 381.73926 491.767026 
L 381.958814 490.157868 
L 382.178367 530.530113 
L 382.39792 474.735373 
L 382.617473 388.525929 
L 382.837026 526.172467 
L 383.056579 319.060699 
L 383.276133 519.945378 
L 383.495686 458.960568 
L 383.715239 531.645738 
L 383.934792 472.794976 
L 384.154345 532.877602 
L 384.373898 430.983152 
L 384.593451 420.800096 
L 384.813005 401.280409 
L 385.032558 413.254804 
L 385.252111 517.771389 
L 385.471664 486.826104 
L 385.691217 403.145709 
L 385.91077 443.892183 
L 386.130324 460.096545 
L 386.349877 496.363572 
L 386.56943 482.539738 
L 386.788983 460.384331 
L 387.008536 386.274549 
L 387.228089 269.694581 
L 387.447642 448.741975 
L 387.667196 341.808289 
L 387.886749 467.186131 
L 388.106302 420.834835 
L 388.325855 444.698925 
L 388.545408 489.815351 
L 388.764961 457.557523 
L 388.984515 384.450401 
L 389.204068 428.565656 
L 389.423621 503.027529 
L 389.643174 408.711602 
L 389.862727 443.313558 
L 390.08228 447.132907 
L 390.301833 353.283085 
L 390.521387 484.649845 
L 390.74094 466.284748 
L 390.960493 417.965545 
L 391.180046 405.25803 
L 391.399599 516.217659 
L 391.619152 560.934548 
L 391.838706 495.405184 
L 392.058259 478.251704 
L 392.277812 403.780079 
L 392.716918 502.503862 
L 392.936471 485.139578 
L 393.156024 327.476428 
L 393.375578 480.795817 
L 393.595131 327.73702 
L 393.814684 492.999813 
L 394.034237 476.898503 
L 394.25379 329.651315 
L 394.692897 458.526213 
L 395.132003 371.495836 
L 395.571109 467.461674 
L 395.790662 446.815533 
L 396.010215 493.910854 
L 396.229769 376.87671 
L 396.449322 502.407032 
L 396.668875 470.563218 
L 396.888428 467.873528 
L 397.107981 450.17018 
L 397.327534 507.74533 
L 397.547087 455.950139 
L 397.766641 516.057552 
L 397.986194 523.954887 
L 398.205747 522.161934 
L 398.4253 454.874568 
L 398.644853 468.936051 
L 398.864406 549.340533 
L 399.08396 322.452805 
L 399.303513 482.776252 
L 399.523066 510.516574 
L 399.742619 442.521358 
L 399.962172 447.713747 
L 400.181725 436.291417 
L 400.401278 379.484875 
L 400.620832 416.589754 
L 400.840385 392.609189 
L 401.059938 540.520446 
L 401.279491 440.340692 
L 401.499044 424.693466 
L 401.718597 420.900627 
L 401.938151 334.665972 
L 402.157704 436.737888 
L 402.377257 465.658295 
L 402.59681 471.070456 
L 402.816363 461.897543 
L 403.035916 543.025308 
L 403.255469 373.603362 
L 403.694576 534.720972 
L 403.914129 539.17455 
L 404.133682 535.278842 
L 404.353235 475.954504 
L 404.572788 302.307314 
L 404.792342 491.65009 
L 405.011895 487.831203 
L 405.231448 503.030101 
L 405.451001 530.614477 
L 405.670554 500.896131 
L 405.890107 407.724722 
L 406.329214 455.747565 
L 406.548767 369.214974 
L 406.76832 489.747504 
L 407.207426 297.95293 
L 407.426979 471.278957 
L 407.646533 518.602879 
L 407.866086 379.643141 
L 408.085639 440.978797 
L 408.305192 465.544424 
L 408.524745 545.47134 
L 408.744298 361.309827 
L 409.183405 417.635353 
L 409.402958 388.362165 
L 409.622511 414.061458 
L 409.842064 352.690435 
L 410.061617 474.832528 
L 410.500724 355.702022 
L 410.720277 472.776058 
L 410.93983 501.275068 
L 411.159383 495.845689 
L 411.378936 516.316468 
L 411.598489 386.462621 
L 411.818042 505.206904 
L 412.037596 484.583759 
L 412.257149 482.24717 
L 412.476702 459.182559 
L 412.696255 514.95353 
L 412.915808 409.934896 
L 413.135361 378.012483 
L 413.574468 482.819668 
L 413.794021 412.950289 
L 414.233127 472.346557 
L 414.672233 446.914979 
L 414.891787 445.783767 
L 415.11134 511.906499 
L 415.330893 490.680241 
L 415.550446 449.661347 
L 415.769999 513.606753 
L 416.209106 356.803913 
L 416.428659 514.055898 
L 416.648212 448.007604 
L 416.867765 459.582756 
L 417.087318 412.691312 
L 417.306871 510.407635 
L 417.745978 338.425698 
L 417.965531 470.391778 
L 418.185084 435.445931 
L 418.404637 420.689982 
L 418.62419 500.254807 
L 418.843743 385.222442 
L 419.063297 456.888885 
L 419.28285 446.964593 
L 419.502403 377.85274 
L 419.721956 400.15863 
L 419.941509 442.058356 
L 420.161062 458.698958 
L 420.380615 453.827407 
L 420.600169 512.970997 
L 421.039275 407.394771 
L 421.258828 389.063303 
L 421.478381 518.133579 
L 421.697934 511.491995 
L 421.917488 388.580974 
L 422.356594 497.772903 
L 422.7957 418.263601 
L 423.015253 461.12959 
L 423.234806 435.749167 
L 423.45436 483.084036 
L 423.673913 559.029902 
L 423.893466 553.320729 
L 424.113019 435.184075 
L 424.332572 553.466351 
L 424.991232 435.921823 
L 425.430338 500.394201 
L 425.649891 418.985452 
L 426.088997 511.79535 
L 426.308551 467.141408 
L 426.528104 490.673137 
L 426.747657 478.459805 
L 426.96721 415.566654 
L 427.186763 465.157746 
L 427.406316 543.401133 
L 427.625869 442.652356 
L 427.845423 463.767342 
L 428.064976 296.663822 
L 428.284529 449.535949 
L 428.504082 412.366965 
L 428.723635 502.640776 
L 428.943188 414.850105 
L 429.162742 410.554095 
L 429.382295 449.395439 
L 429.601848 526.178044 
L 429.821401 485.443186 
L 430.040954 508.484526 
L 430.260507 459.122409 
L 430.48006 505.657788 
L 430.699614 429.7457 
L 431.358273 530.793222 
L 431.577826 405.359052 
L 431.797379 394.152908 
L 432.016933 453.375562 
L 432.236486 428.833871 
L 432.895145 531.423614 
L 433.114698 469.906935 
L 433.334251 459.623866 
L 433.553805 489.41165 
L 433.773358 468.981404 
L 433.992911 494.501354 
L 434.432017 387.158256 
L 434.65157 404.394829 
L 434.871124 380.923055 
L 435.090677 477.364465 
L 435.31023 493.50758 
L 435.529783 537.134033 
L 435.749336 433.352743 
L 435.968889 528.368831 
L 436.188442 378.614327 
L 436.407996 394.721445 
L 436.847102 500.963429 
L 437.066655 393.961306 
L 437.286208 401.938212 
L 437.725315 451.872807 
L 437.944868 404.361339 
L 438.164421 460.937732 
L 438.603527 507.170053 
L 438.82308 460.31537 
L 439.042633 458.329612 
L 439.262187 417.046971 
L 439.48174 469.026482 
L 439.701293 437.560218 
L 440.140399 545.288539 
L 440.359952 486.540888 
L 440.579506 486.741747 
L 440.799059 454.362369 
L 441.018612 497.929161 
L 441.238165 445.405117 
L 441.457718 520.81398 
L 441.677271 510.545481 
L 441.896824 444.979417 
L 442.116378 537.208354 
L 442.335931 526.176252 
L 442.555484 447.694265 
L 442.775037 555.80162 
L 443.214143 421.243085 
L 443.65325 537.382761 
L 444.092356 422.030562 
L 444.311909 497.458855 
L 444.531462 474.013797 
L 444.751015 491.959213 
L 444.970569 474.854335 
L 445.190122 434.90471 
L 445.409675 452.249466 
L 445.848781 561.295303 
L 446.068334 327.027534 
L 446.287888 451.708659 
L 446.507441 398.400605 
L 446.726994 447.211016 
L 446.946547 400.20198 
L 447.1661 533.413125 
L 447.385653 449.12786 
L 447.605206 499.698834 
L 447.82476 442.694437 
L 448.044313 494.860766 
L 448.263866 503.191365 
L 448.483419 493.548937 
L 448.702972 384.063603 
L 448.922525 427.725896 
L 449.142079 555.103377 
L 449.361632 530.068392 
L 449.581185 382.498023 
L 449.800738 438.206329 
L 450.020291 195.553201 
L 450.239844 405.325846 
L 450.459397 428.921865 
L 450.678951 540.454815 
L 450.898504 433.06058 
L 451.118057 492.749399 
L 451.33761 323.017876 
L 451.557163 253.117324 
L 451.996269 493.03037 
L 452.215823 424.631748 
L 452.435376 448.252625 
L 452.654929 400.178534 
L 452.874482 469.787611 
L 453.094035 486.741064 
L 453.313588 488.947592 
L 453.533142 433.856101 
L 453.752695 524.158071 
L 453.972248 280.700421 
L 454.191801 496.843461 
L 454.411354 517.816496 
L 454.630907 489.375921 
L 454.85046 542.775904 
L 455.070014 421.722061 
L 455.289567 526.570418 
L 455.50912 500.275278 
L 455.728673 516.645139 
L 455.948226 506.894533 
L 456.167779 395.153686 
L 456.387333 376.698606 
L 456.606886 461.563343 
L 456.826439 380.049069 
L 457.045992 514.566838 
L 457.265545 390.047657 
L 457.485098 384.621593 
L 457.704651 432.464823 
L 457.924205 437.421082 
L 458.143758 414.06729 
L 458.363311 427.833355 
L 458.582864 484.900966 
L 458.802417 480.375291 
L 459.02197 480.090476 
L 459.241524 413.558172 
L 459.461077 384.001939 
L 459.900183 485.831393 
L 460.119736 403.567933 
L 460.339289 416.751262 
L 460.778396 485.021424 
L 460.997949 486.765321 
L 461.217502 341.073078 
L 461.656608 505.000489 
L 461.876161 418.61156 
L 462.095715 448.046188 
L 462.315268 406.557992 
L 462.534821 500.212092 
L 462.754374 397.982931 
L 462.973927 466.585069 
L 463.19348 436.897841 
L 463.413033 480.871396 
L 463.632587 490.256769 
L 463.85214 462.772875 
L 464.071693 454.793351 
L 464.291246 457.666139 
L 464.510799 405.608484 
L 464.730352 510.738691 
L 464.949906 428.728627 
L 465.169459 490.142768 
L 465.389012 460.840041 
L 465.608565 411.338393 
L 465.828118 532.375091 
L 466.047671 496.344279 
L 466.267224 501.617566 
L 466.486778 480.505627 
L 466.706331 527.398316 
L 467.145437 475.237521 
L 467.36499 528.43893 
L 467.584543 495.588027 
L 467.804097 392.32397 
L 468.02365 470.176877 
L 468.243203 485.655806 
L 468.462756 556.22264 
L 468.682309 455.522205 
L 468.901862 429.1862 
L 469.340969 515.040085 
L 469.560522 397.390668 
L 469.780075 406.897276 
L 470.219181 505.21583 
L 470.438734 357.293562 
L 470.658288 330.384715 
L 470.877841 414.282099 
L 471.097394 310.082794 
L 471.316947 485.161618 
L 471.5365 415.558228 
L 471.756053 462.654962 
L 471.975606 433.963521 
L 472.19516 507.227088 
L 472.414713 443.981279 
L 472.634266 337.273466 
L 472.853819 432.01861 
L 473.073372 403.623622 
L 473.292925 524.692913 
L 473.512479 531.806256 
L 473.732032 487.519522 
L 473.951585 508.805754 
L 474.390691 410.29483 
L 474.829797 509.940207 
L 475.049351 494.486517 
L 475.268904 518.985581 
L 475.488457 497.768459 
L 475.70801 326.432341 
L 475.927563 487.110479 
L 476.147116 473.176379 
L 476.366669 534.593675 
L 476.586223 447.274374 
L 476.805776 438.147063 
L 477.244882 498.064438 
L 477.464435 421.529237 
L 477.683988 415.948139 
L 477.903542 493.277964 
L 478.123095 439.735937 
L 478.342648 514.546043 
L 478.781754 435.554297 
L 479.001307 486.12762 
L 479.22086 487.882959 
L 479.440414 479.4914 
L 479.659967 419.801834 
L 479.87952 411.39133 
L 480.099073 513.031789 
L 480.318626 481.68897 
L 480.538179 472.602679 
L 480.757733 455.000427 
L 480.977286 522.346378 
L 481.196839 418.355328 
L 481.416392 459.265309 
L 481.635945 421.760532 
L 481.855498 509.755906 
L 482.294605 421.471266 
L 482.514158 393.376477 
L 482.953264 509.858123 
L 483.172817 466.059477 
L 483.39237 488.080549 
L 483.611924 341.189061 
L 484.05103 477.679426 
L 484.490136 347.19074 
L 484.709689 429.873526 
L 484.929242 470.629678 
L 485.148796 438.941851 
L 485.368349 441.645886 
L 485.587902 487.489428 
L 485.807455 472.38735 
L 486.027008 518.221095 
L 486.246561 434.215181 
L 486.466115 404.301335 
L 486.685668 415.503209 
L 486.905221 401.696886 
L 487.124774 361.947232 
L 487.344327 408.1378 
L 487.56388 430.900492 
L 487.783433 420.446683 
L 488.002987 459.385067 
L 488.22254 429.673622 
L 488.442093 497.892459 
L 488.661646 409.46203 
L 488.881199 417.232786 
L 489.100752 549.563867 
L 489.320306 474.002795 
L 489.539859 337.217692 
L 489.759412 514.998486 
L 489.978965 517.569197 
L 490.198518 372.920753 
L 490.418071 462.730999 
L 490.637624 461.117133 
L 490.857178 460.558424 
L 491.076731 396.454941 
L 491.296284 499.659733 
L 491.515837 401.299378 
L 491.73539 501.182019 
L 492.174497 411.522388 
L 492.39405 538.077855 
L 492.613603 353.063792 
L 492.833156 462.082792 
L 493.052709 489.006569 
L 493.272262 426.167488 
L 493.491815 493.962408 
L 493.711369 501.142914 
L 493.930922 419.285043 
L 494.150475 447.221052 
L 494.370028 428.867928 
L 494.589581 481.870093 
L 494.809134 495.03209 
L 495.028688 413.363858 
L 495.248241 495.259466 
L 495.467794 440.463359 
L 495.687347 522.415521 
L 496.126453 419.09613 
L 496.56556 521.166357 
L 496.785113 443.250614 
L 497.004666 554.188207 
L 497.224219 371.119774 
L 497.443772 514.503408 
L 497.663325 409.089605 
L 497.882879 521.741589 
L 498.102432 512.88832 
L 498.321985 464.771549 
L 498.541538 446.062856 
L 498.761091 498.449256 
L 498.980644 445.391473 
L 499.200197 464.244647 
L 499.419751 506.946841 
L 499.639304 507.104037 
L 499.858857 509.113586 
L 500.07841 532.872841 
L 500.297963 432.241217 
L 500.517516 451.711009 
L 500.73707 430.986798 
L 500.956623 447.339882 
L 501.176176 449.556956 
L 501.395729 546.421855 
L 501.615282 502.994416 
L 501.834835 434.13673 
L 502.054388 415.409175 
L 502.273942 519.903848 
L 502.493495 425.43561 
L 502.713048 410.137462 
L 502.932601 341.201076 
L 503.152154 486.492656 
L 503.371707 323.164443 
L 503.59126 419.603117 
L 503.810814 430.753595 
L 504.030367 479.321563 
L 504.24992 466.950417 
L 504.469473 538.044591 
L 504.689026 429.739441 
L 504.908579 522.041942 
L 505.128133 486.074957 
L 505.347686 482.028237 
L 505.567239 490.879855 
L 505.786792 321.407804 
L 506.225898 478.465653 
L 506.445451 429.499016 
L 506.665005 488.173353 
L 506.884558 412.099469 
L 507.104111 485.862975 
L 507.323664 518.193857 
L 507.76277 466.694568 
L 507.982324 474.084446 
L 508.201877 420.340919 
L 508.42143 402.979518 
L 508.640983 432.814288 
L 508.860536 446.010836 
L 509.080089 542.704958 
L 509.299642 519.044777 
L 509.738749 383.209387 
L 509.958302 459.27827 
L 510.397408 520.411411 
L 510.616961 408.099676 
L 510.836515 491.361837 
L 511.056068 487.904594 
L 511.495174 418.839661 
L 511.714727 492.113456 
L 511.93428 421.187544 
L 512.153833 537.58652 
L 512.373387 357.743138 
L 512.59294 385.144545 
L 512.812493 468.657071 
L 513.032046 333.50515 
L 513.251599 442.386499 
L 513.471152 447.774163 
L 513.690706 341.162473 
L 513.910259 467.079832 
L 514.129812 517.49999 
L 514.349365 464.642318 
L 514.568918 484.437174 
L 514.788471 486.135627 
L 515.008024 459.330368 
L 515.227578 409.04519 
L 515.447131 472.231398 
L 515.666684 474.765841 
L 515.886237 418.945185 
L 516.10579 537.745379 
L 516.325343 443.641021 
L 516.544897 525.873284 
L 516.76445 252.492848 
L 516.984003 549.600463 
L 517.203556 510.899122 
L 517.423109 307.95597 
L 517.642662 483.605426 
L 517.862215 527.249427 
L 518.081769 433.248745 
L 518.301322 497.607243 
L 518.520875 506.201068 
L 518.740428 387.089823 
L 518.959981 460.226838 
L 519.179534 376.486708 
L 519.399088 515.440272 
L 519.838194 450.086397 
L 520.057747 344.848462 
L 520.2773 433.939785 
L 520.496853 475.101268 
L 520.716406 426.420161 
L 520.93596 324.665276 
L 521.155513 472.930155 
L 521.375066 499.508496 
L 521.594619 496.142037 
L 521.814172 432.421002 
L 522.033725 492.13669 
L 522.253279 430.142408 
L 522.472832 430.982089 
L 522.692385 496.061203 
L 522.911938 407.665786 
L 523.131491 472.912066 
L 523.351044 423.678299 
L 523.570597 487.659824 
L 523.790151 463.004621 
L 524.009704 505.225709 
L 524.44881 439.306215 
L 524.668363 456.917671 
L 524.887916 512.304144 
L 525.10747 421.390024 
L 525.327023 422.238654 
L 525.546576 513.214894 
L 525.766129 447.282394 
L 525.985682 484.649411 
L 526.205235 355.709732 
L 526.424788 496.870422 
L 526.863895 461.925819 
L 527.083448 474.567046 
L 527.303001 358.171966 
L 527.522554 501.935425 
L 527.742107 464.867039 
L 527.96166 480.124761 
L 528.181214 382.542626 
L 528.400767 426.001657 
L 528.62032 432.404817 
L 529.059426 533.97543 
L 529.278979 477.239555 
L 529.718086 413.777586 
L 530.157192 531.595158 
L 530.376745 267.453532 
L 530.596298 503.671027 
L 530.815851 384.718631 
L 531.035405 382.468356 
L 531.254958 429.408768 
L 531.474511 434.172952 
L 531.694064 487.161904 
L 531.913617 465.821748 
L 532.13317 430.23452 
L 532.352724 544.590471 
L 532.572277 473.589388 
L 532.79183 523.151691 
L 533.011383 494.669315 
L 533.230936 410.170383 
L 533.450489 480.283831 
L 533.670042 406.129418 
L 533.889596 471.074868 
L 534.109149 499.549677 
L 534.328702 408.203902 
L 534.548255 402.786785 
L 534.767808 462.776974 
L 534.987361 408.94176 
L 535.206915 456.537504 
L 535.426468 451.618119 
L 535.646021 417.321367 
L 535.865574 464.321875 
L 536.085127 415.49487 
L 536.524233 504.78738 
L 536.743787 510.416541 
L 537.182893 428.887513 
L 537.402446 415.323528 
L 537.621999 430.245692 
L 537.841552 426.74536 
L 538.061106 281.610031 
L 538.280659 432.928498 
L 538.500212 437.207867 
L 538.719765 421.409718 
L 538.939318 454.044414 
L 539.158871 397.431377 
L 539.378424 454.723498 
L 539.597978 544.376777 
L 540.037084 365.806874 
L 540.256637 522.614899 
L 540.695743 419.07687 
L 540.915297 446.131604 
L 541.354403 384.202833 
L 541.573956 483.351341 
L 541.793509 432.7857 
L 542.013062 486.881587 
L 542.232615 396.439505 
L 542.452169 477.926909 
L 542.671722 482.227067 
L 542.891275 429.287204 
L 543.110828 439.134786 
L 543.330381 427.458236 
L 543.549934 519.049814 
L 543.989041 437.331683 
L 544.208594 411.790536 
L 544.428147 436.034683 
L 544.6477 562.563422 
L 544.867253 453.813219 
L 545.086806 518.040344 
L 545.30636 395.647915 
L 545.525913 359.127166 
L 545.745466 466.877021 
L 545.745466 466.877021 
" style="fill:none;stroke:#96c69a;stroke-linecap:round;stroke-width:3;"/>
   </g>
   <g id="line2d_2"/>
   <g id="patch_3">
    <path d="M 84.914375 603.86 
L 84.914375 109.484571 
" style="fill:none;stroke:#262626;stroke-linecap:square;stroke-linejoin:miter;stroke-width:2.5;"/>
   </g>
   <g id="patch_4">
    <path d="M 84.914375 603.86 
L 567.689804 603.86 
" style="fill:none;stroke:#262626;stroke-linecap:square;stroke-linejoin:miter;stroke-width:2.5;"/>
   </g>
   <g id="legend_1">
    <g id="patch_5">
     <path d="M 514.774179 598.86 
L 560.689804 598.86 
Q 562.689804 598.86 562.689804 596.86 
L 562.689804 554.954375 
Q 562.689804 552.954375 560.689804 552.954375 
L 514.774179 552.954375 
Q 512.774179 552.954375 512.774179 554.954375 
L 512.774179 596.86 
Q 512.774179 598.86 514.774179 598.86 
z
" style="fill:#ffffff;opacity:0.8;stroke:#cccccc;stroke-linejoin:miter;stroke-width:2;"/>
    </g>
    <g id="text_15">
     <!-- $n_\tau$ -->
     <g style="fill:#262626;" transform="translate(524.651991 575.190625)scale(0.24 -0.24)">
      <defs>
       <path d="M 3566 2113 
L 3156 0 
L 2578 0 
L 2988 2091 
Q 3016 2238 3031 2350 
Q 3047 2463 3047 2528 
Q 3047 2791 2881 2937 
Q 2716 3084 2419 3084 
Q 1956 3084 1622 2776 
Q 1288 2469 1184 1941 
L 800 0 
L 225 0 
L 903 3500 
L 1478 3500 
L 1363 2950 
Q 1603 3253 1940 3418 
Q 2278 3584 2650 3584 
Q 3113 3584 3367 3334 
Q 3622 3084 3622 2631 
Q 3622 2519 3608 2391 
Q 3594 2263 3566 2113 
z
" id="DejaVuSans-Oblique-6e" transform="scale(0.015625)"/>
       <path d="M 2103 638 
Q 2188 488 2525 488 
L 2800 488 
L 2706 0 
L 2363 0 
Q 1800 0 1600 300 
Q 1403 606 1534 1269 
L 1856 2925 
L 541 2925 
L 653 3500 
L 3881 3500 
L 3769 2925 
L 2444 2925 
L 2113 1234 
Q 2025 781 2103 638 
z
" id="DejaVuSans-Oblique-3c4" transform="scale(0.015625)"/>
      </defs>
      <use xlink:href="#DejaVuSans-Oblique-6e"/>
      <use transform="translate(63.378906 -16.40625)scale(0.7)" xlink:href="#DejaVuSans-Oblique-3c4"/>
     </g>
    </g>
    <g id="line2d_3">
     <path d="M 516.774179 589.280313 
L 536.774179 589.280313 
" style="fill:none;stroke:#96c69a;stroke-linecap:round;stroke-width:3;"/>
    </g>
    <g id="line2d_4"/>
    <g id="text_16">
     <!-- 20 -->
     <g style="fill:#262626;" transform="translate(544.774179 592.780313)scale(0.1 -0.1)">
      <defs>
       <path d="M 1844 884 
L 3897 884 
L 3897 0 
L 506 0 
L 506 884 
L 2209 2388 
Q 2438 2594 2547 2791 
Q 2656 2988 2656 3200 
Q 2656 3528 2436 3728 
Q 2216 3928 1850 3928 
Q 1569 3928 1234 3808 
Q 900 3688 519 3450 
L 519 4475 
Q 925 4609 1322 4679 
Q 1719 4750 2100 4750 
Q 2938 4750 3402 4381 
Q 3866 4013 3866 3353 
Q 3866 2972 3669 2642 
Q 3472 2313 2841 1759 
L 1844 884 
z
" id="DejaVuSans-Bold-32" transform="scale(0.015625)"/>
       <path d="M 2944 2338 
Q 2944 3213 2780 3570 
Q 2616 3928 2228 3928 
Q 1841 3928 1675 3570 
Q 1509 3213 1509 2338 
Q 1509 1453 1675 1090 
Q 1841 728 2228 728 
Q 2613 728 2778 1090 
Q 2944 1453 2944 2338 
z
M 4147 2328 
Q 4147 1169 3647 539 
Q 3147 -91 2228 -91 
Q 1306 -91 806 539 
Q 306 1169 306 2328 
Q 306 3491 806 4120 
Q 1306 4750 2228 4750 
Q 3147 4750 3647 4120 
Q 4147 3491 4147 2328 
z
" id="DejaVuSans-Bold-30" transform="scale(0.015625)"/>
      </defs>
      <use xlink:href="#DejaVuSans-Bold-32"/>
      <use x="69.580078" xlink:href="#DejaVuSans-Bold-30"/>
     </g>
    </g>
   </g>
  </g>
  <g id="axes_2">
   <g id="patch_6">
    <path d="M 84.914375 92.437143 
L 567.689804 92.437143 
L 567.689804 7.2 
L 84.914375 7.2 
z
" style="fill:none;"/>
   </g>
   <g id="matplotlib.axis_3">
    <g id="xtick_7"/>
    <g id="xtick_8"/>
    <g id="xtick_9"/>
    <g id="xtick_10"/>
    <g id="xtick_11"/>
    <g id="xtick_12"/>
   </g>
   <g id="matplotlib.axis_4">
    <g id="ytick_7">
     <g id="text_17">
      <!-- 0 -->
      <g style="fill:#262626;" transform="translate(55.416875 100.795424)scale(0.22 -0.22)">
       <use xlink:href="#DejaVuSans-30"/>
      </g>
     </g>
    </g>
    <g id="ytick_8">
     <g id="text_18">
      <!-- 100 -->
      <g style="fill:#262626;" transform="translate(27.421875 48.082287)scale(0.22 -0.22)">
       <use xlink:href="#DejaVuSans-31"/>
       <use x="63.623047" xlink:href="#DejaVuSans-30"/>
       <use x="127.246094" xlink:href="#DejaVuSans-30"/>
      </g>
     </g>
    </g>
   </g>
   <g id="patch_7">
    <path clip-path="url(#p07dc648019)" d="M 106.858713 92.437143 
L 140.619232 92.437143 
L 140.619232 11.258912 
L 106.858713 11.258912 
z
" style="fill:#96c69a;fill-opacity:0.5;stroke:#ffffff;stroke-linejoin:miter;stroke-width:2;"/>
   </g>
   <g id="patch_8">
    <path clip-path="url(#p07dc648019)" d="M 140.619232 92.437143 
L 174.379752 92.437143 
L 174.379752 11.258912 
L 140.619232 11.258912 
z
" style="fill:#96c69a;fill-opacity:0.5;stroke:#ffffff;stroke-linejoin:miter;stroke-width:2;"/>
   </g>
   <g id="patch_9">
    <path clip-path="url(#p07dc648019)" d="M 174.379752 92.437143 
L 208.140271 92.437143 
L 208.140271 11.258912 
L 174.379752 11.258912 
z
" style="fill:#96c69a;fill-opacity:0.5;stroke:#ffffff;stroke-linejoin:miter;stroke-width:2;"/>
   </g>
   <g id="patch_10">
    <path clip-path="url(#p07dc648019)" d="M 208.140271 92.437143 
L 241.900791 92.437143 
L 241.900791 11.258912 
L 208.140271 11.258912 
z
" style="fill:#96c69a;fill-opacity:0.5;stroke:#ffffff;stroke-linejoin:miter;stroke-width:2;"/>
   </g>
   <g id="patch_11">
    <path clip-path="url(#p07dc648019)" d="M 241.900791 92.437143 
L 275.66131 92.437143 
L 275.66131 11.786043 
L 241.900791 11.786043 
z
" style="fill:#96c69a;fill-opacity:0.5;stroke:#ffffff;stroke-linejoin:miter;stroke-width:2;"/>
   </g>
   <g id="patch_12">
    <path clip-path="url(#p07dc648019)" d="M 275.66131 92.437143 
L 309.42183 92.437143 
L 309.42183 11.258912 
L 275.66131 11.258912 
z
" style="fill:#96c69a;fill-opacity:0.5;stroke:#ffffff;stroke-linejoin:miter;stroke-width:2;"/>
   </g>
   <g id="patch_13">
    <path clip-path="url(#p07dc648019)" d="M 309.42183 92.437143 
L 343.182349 92.437143 
L 343.182349 11.258912 
L 309.42183 11.258912 
z
" style="fill:#96c69a;fill-opacity:0.5;stroke:#ffffff;stroke-linejoin:miter;stroke-width:2;"/>
   </g>
   <g id="patch_14">
    <path clip-path="url(#p07dc648019)" d="M 343.182349 92.437143 
L 376.942869 92.437143 
L 376.942869 11.258912 
L 343.182349 11.258912 
z
" style="fill:#96c69a;fill-opacity:0.5;stroke:#ffffff;stroke-linejoin:miter;stroke-width:2;"/>
   </g>
   <g id="patch_15">
    <path clip-path="url(#p07dc648019)" d="M 376.942869 92.437143 
L 410.703388 92.437143 
L 410.703388 11.786043 
L 376.942869 11.786043 
z
" style="fill:#96c69a;fill-opacity:0.5;stroke:#ffffff;stroke-linejoin:miter;stroke-width:2;"/>
   </g>
   <g id="patch_16">
    <path clip-path="url(#p07dc648019)" d="M 410.703388 92.437143 
L 444.463907 92.437143 
L 444.463907 11.258912 
L 410.703388 11.258912 
z
" style="fill:#96c69a;fill-opacity:0.5;stroke:#ffffff;stroke-linejoin:miter;stroke-width:2;"/>
   </g>
   <g id="patch_17">
    <path clip-path="url(#p07dc648019)" d="M 444.463907 92.437143 
L 478.224427 92.437143 
L 478.224427 11.258912 
L 444.463907 11.258912 
z
" style="fill:#96c69a;fill-opacity:0.5;stroke:#ffffff;stroke-linejoin:miter;stroke-width:2;"/>
   </g>
   <g id="patch_18">
    <path clip-path="url(#p07dc648019)" d="M 478.224427 92.437143 
L 511.984946 92.437143 
L 511.984946 11.258912 
L 478.224427 11.258912 
z
" style="fill:#96c69a;fill-opacity:0.5;stroke:#ffffff;stroke-linejoin:miter;stroke-width:2;"/>
   </g>
   <g id="patch_19">
    <path clip-path="url(#p07dc648019)" d="M 511.984946 92.437143 
L 545.745466 92.437143 
L 545.745466 11.258912 
L 511.984946 11.258912 
z
" style="fill:#96c69a;fill-opacity:0.5;stroke:#ffffff;stroke-linejoin:miter;stroke-width:2;"/>
   </g>
   <g id="patch_20">
    <path d="M 84.914375 92.437143 
L 84.914375 7.2 
" style="fill:none;stroke:#262626;stroke-linecap:square;stroke-linejoin:miter;stroke-width:2.5;"/>
   </g>
   <g id="patch_21">
    <path d="M 84.914375 92.437143 
L 567.689804 92.437143 
" style="fill:none;stroke:#262626;stroke-linecap:square;stroke-linejoin:miter;stroke-width:2.5;"/>
   </g>
  </g>
  <g id="axes_3">
   <g id="patch_22">
    <path d="M 584.337232 603.86 
L 667.574375 603.86 
L 667.574375 109.484571 
L 584.337232 109.484571 
z
" style="fill:none;"/>
   </g>
   <g id="matplotlib.axis_5">
    <g id="xtick_13">
     <g id="text_19">
      <!-- 0 -->
      <g style="fill:#262626;" transform="translate(577.338482 636.076563)scale(0.22 -0.22)">
       <use xlink:href="#DejaVuSans-30"/>
      </g>
     </g>
    </g>
    <g id="xtick_14">
     <g id="text_20">
      <!-- 100 -->
      <g style="fill:#262626;" transform="translate(605.507721 636.076563)scale(0.22 -0.22)">
       <use xlink:href="#DejaVuSans-31"/>
       <use x="63.623047" xlink:href="#DejaVuSans-30"/>
       <use x="127.246094" xlink:href="#DejaVuSans-30"/>
      </g>
     </g>
    </g>
   </g>
   <g id="matplotlib.axis_6">
    <g id="ytick_9"/>
    <g id="ytick_10"/>
    <g id="ytick_11"/>
    <g id="ytick_12"/>
    <g id="ytick_13"/>
    <g id="ytick_14"/>
   </g>
   <g id="patch_23">
    <path clip-path="url(#p8ac53eb9dd)" d="M 584.337232 581.38839 
L 585.180567 581.38839 
L 585.180567 570.152584 
L 584.337232 570.152584 
z
" style="fill:#96c69a;fill-opacity:0.5;stroke:#ffffff;stroke-linejoin:miter;stroke-width:1.123581;"/>
   </g>
   <g id="patch_24">
    <path clip-path="url(#p8ac53eb9dd)" d="M 584.337232 570.152584 
L 588.132239 570.152584 
L 588.132239 558.916779 
L 584.337232 558.916779 
z
" style="fill:#96c69a;fill-opacity:0.5;stroke:#ffffff;stroke-linejoin:miter;stroke-width:1.123581;"/>
   </g>
   <g id="patch_25">
    <path clip-path="url(#p8ac53eb9dd)" d="M 584.337232 558.916779 
L 593.192247 558.916779 
L 593.192247 547.680974 
L 584.337232 547.680974 
z
" style="fill:#96c69a;fill-opacity:0.5;stroke:#ffffff;stroke-linejoin:miter;stroke-width:1.123581;"/>
   </g>
   <g id="patch_26">
    <path clip-path="url(#p8ac53eb9dd)" d="M 584.337232 547.680974 
L 604.577267 547.680974 
L 604.577267 536.445169 
L 584.337232 536.445169 
z
" style="fill:#96c69a;fill-opacity:0.5;stroke:#ffffff;stroke-linejoin:miter;stroke-width:1.123581;"/>
   </g>
   <g id="patch_27">
    <path clip-path="url(#p8ac53eb9dd)" d="M 584.337232 536.445169 
L 609.215608 536.445169 
L 609.215608 525.209364 
L 584.337232 525.209364 
z
" style="fill:#96c69a;fill-opacity:0.5;stroke:#ffffff;stroke-linejoin:miter;stroke-width:1.123581;"/>
   </g>
   <g id="patch_28">
    <path clip-path="url(#p8ac53eb9dd)" d="M 584.337232 525.209364 
L 623.552299 525.209364 
L 623.552299 513.973558 
L 584.337232 513.973558 
z
" style="fill:#96c69a;fill-opacity:0.5;stroke:#ffffff;stroke-linejoin:miter;stroke-width:1.123581;"/>
   </g>
   <g id="patch_29">
    <path clip-path="url(#p8ac53eb9dd)" d="M 584.337232 513.973558 
L 635.780654 513.973558 
L 635.780654 502.737753 
L 584.337232 502.737753 
z
" style="fill:#96c69a;fill-opacity:0.5;stroke:#ffffff;stroke-linejoin:miter;stroke-width:1.123581;"/>
   </g>
   <g id="patch_30">
    <path clip-path="url(#p8ac53eb9dd)" d="M 584.337232 502.737753 
L 653.069017 502.737753 
L 653.069017 491.501948 
L 584.337232 491.501948 
z
" style="fill:#96c69a;fill-opacity:0.5;stroke:#ffffff;stroke-linejoin:miter;stroke-width:1.123581;"/>
   </g>
   <g id="patch_31">
    <path clip-path="url(#p8ac53eb9dd)" d="M 584.337232 491.501948 
L 663.610702 491.501948 
L 663.610702 480.266143 
L 584.337232 480.266143 
z
" style="fill:#96c69a;fill-opacity:0.5;stroke:#ffffff;stroke-linejoin:miter;stroke-width:1.123581;"/>
   </g>
   <g id="patch_32">
    <path clip-path="url(#p8ac53eb9dd)" d="M 584.337232 480.266143 
L 657.285691 480.266143 
L 657.285691 469.030338 
L 584.337232 469.030338 
z
" style="fill:#96c69a;fill-opacity:0.5;stroke:#ffffff;stroke-linejoin:miter;stroke-width:1.123581;"/>
   </g>
   <g id="patch_33">
    <path clip-path="url(#p8ac53eb9dd)" d="M 584.337232 469.030338 
L 657.707358 469.030338 
L 657.707358 457.794532 
L 584.337232 457.794532 
z
" style="fill:#96c69a;fill-opacity:0.5;stroke:#ffffff;stroke-linejoin:miter;stroke-width:1.123581;"/>
   </g>
   <g id="patch_34">
    <path clip-path="url(#p8ac53eb9dd)" d="M 584.337232 457.794532 
L 647.165673 457.794532 
L 647.165673 446.558727 
L 584.337232 446.558727 
z
" style="fill:#96c69a;fill-opacity:0.5;stroke:#ffffff;stroke-linejoin:miter;stroke-width:1.123581;"/>
   </g>
   <g id="patch_35">
    <path clip-path="url(#p8ac53eb9dd)" d="M 584.337232 446.558727 
L 645.057336 446.558727 
L 645.057336 435.322922 
L 584.337232 435.322922 
z
" style="fill:#96c69a;fill-opacity:0.5;stroke:#ffffff;stroke-linejoin:miter;stroke-width:1.123581;"/>
   </g>
   <g id="patch_36">
    <path clip-path="url(#p8ac53eb9dd)" d="M 584.337232 435.322922 
L 640.418995 435.322922 
L 640.418995 424.087117 
L 584.337232 424.087117 
z
" style="fill:#96c69a;fill-opacity:0.5;stroke:#ffffff;stroke-linejoin:miter;stroke-width:1.123581;"/>
   </g>
   <g id="patch_37">
    <path clip-path="url(#p8ac53eb9dd)" d="M 584.337232 424.087117 
L 634.093984 424.087117 
L 634.093984 412.851312 
L 584.337232 412.851312 
z
" style="fill:#96c69a;fill-opacity:0.5;stroke:#ffffff;stroke-linejoin:miter;stroke-width:1.123581;"/>
   </g>
   <g id="patch_38">
    <path clip-path="url(#p8ac53eb9dd)" d="M 584.337232 412.851312 
L 629.455643 412.851312 
L 629.455643 401.615506 
L 584.337232 401.615506 
z
" style="fill:#96c69a;fill-opacity:0.5;stroke:#ffffff;stroke-linejoin:miter;stroke-width:1.123581;"/>
   </g>
   <g id="patch_39">
    <path clip-path="url(#p8ac53eb9dd)" d="M 584.337232 401.615506 
L 612.16728 401.615506 
L 612.16728 390.379701 
L 584.337232 390.379701 
z
" style="fill:#96c69a;fill-opacity:0.5;stroke:#ffffff;stroke-linejoin:miter;stroke-width:1.123581;"/>
   </g>
   <g id="patch_40">
    <path clip-path="url(#p8ac53eb9dd)" d="M 584.337232 390.379701 
L 611.745613 390.379701 
L 611.745613 379.143896 
L 584.337232 379.143896 
z
" style="fill:#96c69a;fill-opacity:0.5;stroke:#ffffff;stroke-linejoin:miter;stroke-width:1.123581;"/>
   </g>
   <g id="patch_41">
    <path clip-path="url(#p8ac53eb9dd)" d="M 584.337232 379.143896 
L 604.155599 379.143896 
L 604.155599 367.908091 
L 584.337232 367.908091 
z
" style="fill:#96c69a;fill-opacity:0.5;stroke:#ffffff;stroke-linejoin:miter;stroke-width:1.123581;"/>
   </g>
   <g id="patch_42">
    <path clip-path="url(#p8ac53eb9dd)" d="M 584.337232 367.908091 
L 596.565586 367.908091 
L 596.565586 356.672286 
L 584.337232 356.672286 
z
" style="fill:#96c69a;fill-opacity:0.5;stroke:#ffffff;stroke-linejoin:miter;stroke-width:1.123581;"/>
   </g>
   <g id="patch_43">
    <path clip-path="url(#p8ac53eb9dd)" d="M 584.337232 356.672286 
L 594.45725 356.672286 
L 594.45725 345.436481 
L 584.337232 345.436481 
z
" style="fill:#96c69a;fill-opacity:0.5;stroke:#ffffff;stroke-linejoin:miter;stroke-width:1.123581;"/>
   </g>
   <g id="patch_44">
    <path clip-path="url(#p8ac53eb9dd)" d="M 584.337232 345.436481 
L 591.08391 345.436481 
L 591.08391 334.200675 
L 584.337232 334.200675 
z
" style="fill:#96c69a;fill-opacity:0.5;stroke:#ffffff;stroke-linejoin:miter;stroke-width:1.123581;"/>
   </g>
   <g id="patch_45">
    <path clip-path="url(#p8ac53eb9dd)" d="M 584.337232 334.200675 
L 591.927245 334.200675 
L 591.927245 322.96487 
L 584.337232 322.96487 
z
" style="fill:#96c69a;fill-opacity:0.5;stroke:#ffffff;stroke-linejoin:miter;stroke-width:1.123581;"/>
   </g>
   <g id="patch_46">
    <path clip-path="url(#p8ac53eb9dd)" d="M 584.337232 322.96487 
L 586.445569 322.96487 
L 586.445569 311.729065 
L 584.337232 311.729065 
z
" style="fill:#96c69a;fill-opacity:0.5;stroke:#ffffff;stroke-linejoin:miter;stroke-width:1.123581;"/>
   </g>
   <g id="patch_47">
    <path clip-path="url(#p8ac53eb9dd)" d="M 584.337232 311.729065 
L 587.710571 311.729065 
L 587.710571 300.49326 
L 584.337232 300.49326 
z
" style="fill:#96c69a;fill-opacity:0.5;stroke:#ffffff;stroke-linejoin:miter;stroke-width:1.123581;"/>
   </g>
   <g id="patch_48">
    <path clip-path="url(#p8ac53eb9dd)" d="M 584.337232 300.49326 
L 586.023902 300.49326 
L 586.023902 289.257455 
L 584.337232 289.257455 
z
" style="fill:#96c69a;fill-opacity:0.5;stroke:#ffffff;stroke-linejoin:miter;stroke-width:1.123581;"/>
   </g>
   <g id="patch_49">
    <path clip-path="url(#p8ac53eb9dd)" d="M 584.337232 289.257455 
L 585.602234 289.257455 
L 585.602234 278.021649 
L 584.337232 278.021649 
z
" style="fill:#96c69a;fill-opacity:0.5;stroke:#ffffff;stroke-linejoin:miter;stroke-width:1.123581;"/>
   </g>
   <g id="patch_50">
    <path clip-path="url(#p8ac53eb9dd)" d="M 584.337232 278.021649 
L 586.023902 278.021649 
L 586.023902 266.785844 
L 584.337232 266.785844 
z
" style="fill:#96c69a;fill-opacity:0.5;stroke:#ffffff;stroke-linejoin:miter;stroke-width:1.123581;"/>
   </g>
   <g id="patch_51">
    <path clip-path="url(#p8ac53eb9dd)" d="M 584.337232 266.785844 
L 584.7589 266.785844 
L 584.7589 255.550039 
L 584.337232 255.550039 
z
" style="fill:#96c69a;fill-opacity:0.5;stroke:#ffffff;stroke-linejoin:miter;stroke-width:1.123581;"/>
   </g>
   <g id="patch_52">
    <path clip-path="url(#p8ac53eb9dd)" d="M 584.337232 255.550039 
L 586.023902 255.550039 
L 586.023902 244.314234 
L 584.337232 244.314234 
z
" style="fill:#96c69a;fill-opacity:0.5;stroke:#ffffff;stroke-linejoin:miter;stroke-width:1.123581;"/>
   </g>
   <g id="patch_53">
    <path clip-path="url(#p8ac53eb9dd)" d="M 584.337232 244.314234 
L 584.337232 244.314234 
L 584.337232 233.078429 
L 584.337232 233.078429 
z
" style="fill:#96c69a;fill-opacity:0.5;stroke:#ffffff;stroke-linejoin:miter;stroke-width:1.123581;"/>
   </g>
   <g id="patch_54">
    <path clip-path="url(#p8ac53eb9dd)" d="M 584.337232 233.078429 
L 584.337232 233.078429 
L 584.337232 221.842623 
L 584.337232 221.842623 
z
" style="fill:#96c69a;fill-opacity:0.5;stroke:#ffffff;stroke-linejoin:miter;stroke-width:1.123581;"/>
   </g>
   <g id="patch_55">
    <path clip-path="url(#p8ac53eb9dd)" d="M 584.337232 221.842623 
L 584.7589 221.842623 
L 584.7589 210.606818 
L 584.337232 210.606818 
z
" style="fill:#96c69a;fill-opacity:0.5;stroke:#ffffff;stroke-linejoin:miter;stroke-width:1.123581;"/>
   </g>
   <g id="patch_56">
    <path clip-path="url(#p8ac53eb9dd)" d="M 584.337232 210.606818 
L 584.337232 210.606818 
L 584.337232 199.371013 
L 584.337232 199.371013 
z
" style="fill:#96c69a;fill-opacity:0.5;stroke:#ffffff;stroke-linejoin:miter;stroke-width:1.123581;"/>
   </g>
   <g id="patch_57">
    <path clip-path="url(#p8ac53eb9dd)" d="M 584.337232 199.371013 
L 584.7589 199.371013 
L 584.7589 188.135208 
L 584.337232 188.135208 
z
" style="fill:#96c69a;fill-opacity:0.5;stroke:#ffffff;stroke-linejoin:miter;stroke-width:1.123581;"/>
   </g>
   <g id="patch_58">
    <path clip-path="url(#p8ac53eb9dd)" d="M 584.337232 188.135208 
L 584.337232 188.135208 
L 584.337232 176.899403 
L 584.337232 176.899403 
z
" style="fill:#96c69a;fill-opacity:0.5;stroke:#ffffff;stroke-linejoin:miter;stroke-width:1.123581;"/>
   </g>
   <g id="patch_59">
    <path clip-path="url(#p8ac53eb9dd)" d="M 584.337232 176.899403 
L 584.337232 176.899403 
L 584.337232 165.663597 
L 584.337232 165.663597 
z
" style="fill:#96c69a;fill-opacity:0.5;stroke:#ffffff;stroke-linejoin:miter;stroke-width:1.123581;"/>
   </g>
   <g id="patch_60">
    <path clip-path="url(#p8ac53eb9dd)" d="M 584.337232 165.663597 
L 584.337232 165.663597 
L 584.337232 154.427792 
L 584.337232 154.427792 
z
" style="fill:#96c69a;fill-opacity:0.5;stroke:#ffffff;stroke-linejoin:miter;stroke-width:1.123581;"/>
   </g>
   <g id="patch_61">
    <path clip-path="url(#p8ac53eb9dd)" d="M 584.337232 154.427792 
L 584.337232 154.427792 
L 584.337232 143.191987 
L 584.337232 143.191987 
z
" style="fill:#96c69a;fill-opacity:0.5;stroke:#ffffff;stroke-linejoin:miter;stroke-width:1.123581;"/>
   </g>
   <g id="patch_62">
    <path clip-path="url(#p8ac53eb9dd)" d="M 584.337232 143.191987 
L 584.7589 143.191987 
L 584.7589 131.956182 
L 584.337232 131.956182 
z
" style="fill:#96c69a;fill-opacity:0.5;stroke:#ffffff;stroke-linejoin:miter;stroke-width:1.123581;"/>
   </g>
   <g id="patch_63">
    <path d="M 584.337232 603.86 
L 584.337232 109.484571 
" style="fill:none;stroke:#262626;stroke-linecap:square;stroke-linejoin:miter;stroke-width:2.5;"/>
   </g>
   <g id="patch_64">
    <path d="M 584.337232 603.86 
L 667.574375 603.86 
" style="fill:none;stroke:#262626;stroke-linecap:square;stroke-linejoin:miter;stroke-width:2.5;"/>
   </g>
  </g>
 </g>
 <defs>
  <clipPath id="pf5bbffe205">
   <rect height="494.375429" width="482.775429" x="84.914375" y="109.484571"/>
  </clipPath>
  <clipPath id="p07dc648019">
   <rect height="85.237143" width="482.775429" x="84.914375" y="7.2"/>
  </clipPath>
  <clipPath id="p8ac53eb9dd">
   <rect height="494.375429" width="83.237143" x="584.337232" y="109.484571"/>
  </clipPath>
 </defs>
</svg>
