<?xml version="1.0" encoding="utf-8" standalone="no"?>
<!DOCTYPE svg PUBLIC "-//W3C//DTD SVG 1.1//EN"
  "http://www.w3.org/Graphics/SVG/1.1/DTD/svg11.dtd">
<svg height="675.079375pt" version="1.1" viewBox="0 0 695.542351 675.079375" width="695.542351pt" xmlns="http://www.w3.org/2000/svg" xmlns:xlink="http://www.w3.org/1999/xlink">
 <metadata>
  <rdf:RDF xmlns:cc="http://creativecommons.org/ns#" xmlns:dc="http://purl.org/dc/elements/1.1/" xmlns:rdf="http://www.w3.org/1999/02/22-rdf-syntax-ns#">
   <cc:Work>
    <dc:type rdf:resource="http://purl.org/dc/dcmitype/StillImage"/>
    <dc:date>2021-07-16T21:44:08.374212</dc:date>
    <dc:format>image/svg+xml</dc:format>
    <dc:creator>
     <cc:Agent>
      <dc:title>Matplotlib v3.4.2, https://matplotlib.org/</dc:title>
     </cc:Agent>
    </dc:creator>
   </cc:Work>
  </rdf:RDF>
 </metadata>
 <defs>
  <style type="text/css">*{stroke-linecap:butt;stroke-linejoin:round;}</style>
 </defs>
 <g id="figure_1">
  <g id="patch_1">
   <path d="M 0 675.079375 
L 695.542351 675.079375 
L 695.542351 0 
L 0 0 
z
" style="fill:#ffffff;"/>
  </g>
  <g id="axes_1">
   <g id="patch_2">
    <path d="M 84.914375 603.86 
L 567.689804 603.86 
L 567.689804 109.484571 
L 84.914375 109.484571 
z
" style="fill:none;"/>
   </g>
   <g id="matplotlib.axis_1">
    <g id="xtick_1">
     <g id="text_1">
      <!-- 0 -->
      <g style="fill:#262626;" transform="translate(99.64041 636.076563)scale(0.22 -0.22)">
       <defs>
        <path d="M 2034 4250 
Q 1547 4250 1301 3770 
Q 1056 3291 1056 2328 
Q 1056 1369 1301 889 
Q 1547 409 2034 409 
Q 2525 409 2770 889 
Q 3016 1369 3016 2328 
Q 3016 3291 2770 3770 
Q 2525 4250 2034 4250 
z
M 2034 4750 
Q 2819 4750 3233 4129 
Q 3647 3509 3647 2328 
Q 3647 1150 3233 529 
Q 2819 -91 2034 -91 
Q 1250 -91 836 529 
Q 422 1150 422 2328 
Q 422 3509 836 4129 
Q 1250 4750 2034 4750 
z
" id="DejaVuSans-30" transform="scale(0.015625)"/>
       </defs>
       <use xlink:href="#DejaVuSans-30"/>
      </g>
     </g>
    </g>
    <g id="xtick_2">
     <g id="text_2">
      <!-- 20000 -->
      <g style="fill:#262626;" transform="translate(159.466671 636.076563)scale(0.22 -0.22)">
       <defs>
        <path d="M 1228 531 
L 3431 531 
L 3431 0 
L 469 0 
L 469 531 
Q 828 903 1448 1529 
Q 2069 2156 2228 2338 
Q 2531 2678 2651 2914 
Q 2772 3150 2772 3378 
Q 2772 3750 2511 3984 
Q 2250 4219 1831 4219 
Q 1534 4219 1204 4116 
Q 875 4013 500 3803 
L 500 4441 
Q 881 4594 1212 4672 
Q 1544 4750 1819 4750 
Q 2544 4750 2975 4387 
Q 3406 4025 3406 3419 
Q 3406 3131 3298 2873 
Q 3191 2616 2906 2266 
Q 2828 2175 2409 1742 
Q 1991 1309 1228 531 
z
" id="DejaVuSans-32" transform="scale(0.015625)"/>
       </defs>
       <use xlink:href="#DejaVuSans-32"/>
       <use x="63.623047" xlink:href="#DejaVuSans-30"/>
       <use x="127.246094" xlink:href="#DejaVuSans-30"/>
       <use x="190.869141" xlink:href="#DejaVuSans-30"/>
       <use x="254.492188" xlink:href="#DejaVuSans-30"/>
      </g>
     </g>
    </g>
    <g id="xtick_3">
     <g id="text_3">
      <!-- 40000 -->
      <g style="fill:#262626;" transform="translate(247.287932 636.076563)scale(0.22 -0.22)">
       <defs>
        <path d="M 2419 4116 
L 825 1625 
L 2419 1625 
L 2419 4116 
z
M 2253 4666 
L 3047 4666 
L 3047 1625 
L 3713 1625 
L 3713 1100 
L 3047 1100 
L 3047 0 
L 2419 0 
L 2419 1100 
L 313 1100 
L 313 1709 
L 2253 4666 
z
" id="DejaVuSans-34" transform="scale(0.015625)"/>
       </defs>
       <use xlink:href="#DejaVuSans-34"/>
       <use x="63.623047" xlink:href="#DejaVuSans-30"/>
       <use x="127.246094" xlink:href="#DejaVuSans-30"/>
       <use x="190.869141" xlink:href="#DejaVuSans-30"/>
       <use x="254.492188" xlink:href="#DejaVuSans-30"/>
      </g>
     </g>
    </g>
    <g id="xtick_4">
     <g id="text_4">
      <!-- 60000 -->
      <g style="fill:#262626;" transform="translate(335.109193 636.076563)scale(0.22 -0.22)">
       <defs>
        <path d="M 2113 2584 
Q 1688 2584 1439 2293 
Q 1191 2003 1191 1497 
Q 1191 994 1439 701 
Q 1688 409 2113 409 
Q 2538 409 2786 701 
Q 3034 994 3034 1497 
Q 3034 2003 2786 2293 
Q 2538 2584 2113 2584 
z
M 3366 4563 
L 3366 3988 
Q 3128 4100 2886 4159 
Q 2644 4219 2406 4219 
Q 1781 4219 1451 3797 
Q 1122 3375 1075 2522 
Q 1259 2794 1537 2939 
Q 1816 3084 2150 3084 
Q 2853 3084 3261 2657 
Q 3669 2231 3669 1497 
Q 3669 778 3244 343 
Q 2819 -91 2113 -91 
Q 1303 -91 875 529 
Q 447 1150 447 2328 
Q 447 3434 972 4092 
Q 1497 4750 2381 4750 
Q 2619 4750 2861 4703 
Q 3103 4656 3366 4563 
z
" id="DejaVuSans-36" transform="scale(0.015625)"/>
       </defs>
       <use xlink:href="#DejaVuSans-36"/>
       <use x="63.623047" xlink:href="#DejaVuSans-30"/>
       <use x="127.246094" xlink:href="#DejaVuSans-30"/>
       <use x="190.869141" xlink:href="#DejaVuSans-30"/>
       <use x="254.492188" xlink:href="#DejaVuSans-30"/>
      </g>
     </g>
    </g>
    <g id="xtick_5">
     <g id="text_5">
      <!-- 80000 -->
      <g style="fill:#262626;" transform="translate(422.930455 636.076563)scale(0.22 -0.22)">
       <defs>
        <path d="M 2034 2216 
Q 1584 2216 1326 1975 
Q 1069 1734 1069 1313 
Q 1069 891 1326 650 
Q 1584 409 2034 409 
Q 2484 409 2743 651 
Q 3003 894 3003 1313 
Q 3003 1734 2745 1975 
Q 2488 2216 2034 2216 
z
M 1403 2484 
Q 997 2584 770 2862 
Q 544 3141 544 3541 
Q 544 4100 942 4425 
Q 1341 4750 2034 4750 
Q 2731 4750 3128 4425 
Q 3525 4100 3525 3541 
Q 3525 3141 3298 2862 
Q 3072 2584 2669 2484 
Q 3125 2378 3379 2068 
Q 3634 1759 3634 1313 
Q 3634 634 3220 271 
Q 2806 -91 2034 -91 
Q 1263 -91 848 271 
Q 434 634 434 1313 
Q 434 1759 690 2068 
Q 947 2378 1403 2484 
z
M 1172 3481 
Q 1172 3119 1398 2916 
Q 1625 2713 2034 2713 
Q 2441 2713 2670 2916 
Q 2900 3119 2900 3481 
Q 2900 3844 2670 4047 
Q 2441 4250 2034 4250 
Q 1625 4250 1398 4047 
Q 1172 3844 1172 3481 
z
" id="DejaVuSans-38" transform="scale(0.015625)"/>
       </defs>
       <use xlink:href="#DejaVuSans-38"/>
       <use x="63.623047" xlink:href="#DejaVuSans-30"/>
       <use x="127.246094" xlink:href="#DejaVuSans-30"/>
       <use x="190.869141" xlink:href="#DejaVuSans-30"/>
       <use x="254.492188" xlink:href="#DejaVuSans-30"/>
      </g>
     </g>
    </g>
    <g id="xtick_6">
     <g id="text_6">
      <!-- 100000 -->
      <g style="fill:#262626;" transform="translate(503.752966 636.076563)scale(0.22 -0.22)">
       <defs>
        <path d="M 794 531 
L 1825 531 
L 1825 4091 
L 703 3866 
L 703 4441 
L 1819 4666 
L 2450 4666 
L 2450 531 
L 3481 531 
L 3481 0 
L 794 0 
L 794 531 
z
" id="DejaVuSans-31" transform="scale(0.015625)"/>
       </defs>
       <use xlink:href="#DejaVuSans-31"/>
       <use x="63.623047" xlink:href="#DejaVuSans-30"/>
       <use x="127.246094" xlink:href="#DejaVuSans-30"/>
       <use x="190.869141" xlink:href="#DejaVuSans-30"/>
       <use x="254.492188" xlink:href="#DejaVuSans-30"/>
       <use x="318.115234" xlink:href="#DejaVuSans-30"/>
      </g>
     </g>
    </g>
    <g id="text_7">
     <!-- MDTU -->
     <g style="fill:#262626;" transform="translate(290.596464 662.888125)scale(0.24 -0.24)">
      <defs>
       <path d="M 628 4666 
L 1569 4666 
L 2759 1491 
L 3956 4666 
L 4897 4666 
L 4897 0 
L 4281 0 
L 4281 4097 
L 3078 897 
L 2444 897 
L 1241 4097 
L 1241 0 
L 628 0 
L 628 4666 
z
" id="DejaVuSans-4d" transform="scale(0.015625)"/>
       <path d="M 1259 4147 
L 1259 519 
L 2022 519 
Q 2988 519 3436 956 
Q 3884 1394 3884 2338 
Q 3884 3275 3436 3711 
Q 2988 4147 2022 4147 
L 1259 4147 
z
M 628 4666 
L 1925 4666 
Q 3281 4666 3915 4102 
Q 4550 3538 4550 2338 
Q 4550 1131 3912 565 
Q 3275 0 1925 0 
L 628 0 
L 628 4666 
z
" id="DejaVuSans-44" transform="scale(0.015625)"/>
       <path d="M -19 4666 
L 3928 4666 
L 3928 4134 
L 2272 4134 
L 2272 0 
L 1638 0 
L 1638 4134 
L -19 4134 
L -19 4666 
z
" id="DejaVuSans-54" transform="scale(0.015625)"/>
       <path d="M 556 4666 
L 1191 4666 
L 1191 1831 
Q 1191 1081 1462 751 
Q 1734 422 2344 422 
Q 2950 422 3222 751 
Q 3494 1081 3494 1831 
L 3494 4666 
L 4128 4666 
L 4128 1753 
Q 4128 841 3676 375 
Q 3225 -91 2344 -91 
Q 1459 -91 1007 375 
Q 556 841 556 1753 
L 556 4666 
z
" id="DejaVuSans-55" transform="scale(0.015625)"/>
      </defs>
      <use xlink:href="#DejaVuSans-4d"/>
      <use x="86.279297" xlink:href="#DejaVuSans-44"/>
      <use x="163.28125" xlink:href="#DejaVuSans-54"/>
      <use x="224.365234" xlink:href="#DejaVuSans-55"/>
     </g>
    </g>
   </g>
   <g id="matplotlib.axis_2">
    <g id="ytick_1">
     <g id="text_8">
      <!-- 0.5 -->
      <g style="fill:#262626;" transform="translate(34.4275 540.350468)scale(0.22 -0.22)">
       <defs>
        <path d="M 684 794 
L 1344 794 
L 1344 0 
L 684 0 
L 684 794 
z
" id="DejaVuSans-2e" transform="scale(0.015625)"/>
        <path d="M 691 4666 
L 3169 4666 
L 3169 4134 
L 1269 4134 
L 1269 2991 
Q 1406 3038 1543 3061 
Q 1681 3084 1819 3084 
Q 2600 3084 3056 2656 
Q 3513 2228 3513 1497 
Q 3513 744 3044 326 
Q 2575 -91 1722 -91 
Q 1428 -91 1123 -41 
Q 819 9 494 109 
L 494 744 
Q 775 591 1075 516 
Q 1375 441 1709 441 
Q 2250 441 2565 725 
Q 2881 1009 2881 1497 
Q 2881 1984 2565 2268 
Q 2250 2553 1709 2553 
Q 1456 2553 1204 2497 
Q 953 2441 691 2322 
L 691 4666 
z
" id="DejaVuSans-35" transform="scale(0.015625)"/>
       </defs>
       <use xlink:href="#DejaVuSans-30"/>
       <use x="63.623047" xlink:href="#DejaVuSans-2e"/>
       <use x="95.410156" xlink:href="#DejaVuSans-35"/>
      </g>
     </g>
    </g>
    <g id="ytick_2">
     <g id="text_9">
      <!-- 1.0 -->
      <g style="fill:#262626;" transform="translate(34.4275 462.140165)scale(0.22 -0.22)">
       <use xlink:href="#DejaVuSans-31"/>
       <use x="63.623047" xlink:href="#DejaVuSans-2e"/>
       <use x="95.410156" xlink:href="#DejaVuSans-30"/>
      </g>
     </g>
    </g>
    <g id="ytick_3">
     <g id="text_10">
      <!-- 1.5 -->
      <g style="fill:#262626;" transform="translate(34.4275 383.929862)scale(0.22 -0.22)">
       <use xlink:href="#DejaVuSans-31"/>
       <use x="63.623047" xlink:href="#DejaVuSans-2e"/>
       <use x="95.410156" xlink:href="#DejaVuSans-35"/>
      </g>
     </g>
    </g>
    <g id="ytick_4">
     <g id="text_11">
      <!-- 2.0 -->
      <g style="fill:#262626;" transform="translate(34.4275 305.719558)scale(0.22 -0.22)">
       <use xlink:href="#DejaVuSans-32"/>
       <use x="63.623047" xlink:href="#DejaVuSans-2e"/>
       <use x="95.410156" xlink:href="#DejaVuSans-30"/>
      </g>
     </g>
    </g>
    <g id="ytick_5">
     <g id="text_12">
      <!-- 2.5 -->
      <g style="fill:#262626;" transform="translate(34.4275 227.509255)scale(0.22 -0.22)">
       <use xlink:href="#DejaVuSans-32"/>
       <use x="63.623047" xlink:href="#DejaVuSans-2e"/>
       <use x="95.410156" xlink:href="#DejaVuSans-35"/>
      </g>
     </g>
    </g>
    <g id="ytick_6">
     <g id="text_13">
      <!-- 3.0 -->
      <g style="fill:#262626;" transform="translate(34.4275 149.298952)scale(0.22 -0.22)">
       <defs>
        <path d="M 2597 2516 
Q 3050 2419 3304 2112 
Q 3559 1806 3559 1356 
Q 3559 666 3084 287 
Q 2609 -91 1734 -91 
Q 1441 -91 1130 -33 
Q 819 25 488 141 
L 488 750 
Q 750 597 1062 519 
Q 1375 441 1716 441 
Q 2309 441 2620 675 
Q 2931 909 2931 1356 
Q 2931 1769 2642 2001 
Q 2353 2234 1838 2234 
L 1294 2234 
L 1294 2753 
L 1863 2753 
Q 2328 2753 2575 2939 
Q 2822 3125 2822 3475 
Q 2822 3834 2567 4026 
Q 2313 4219 1838 4219 
Q 1578 4219 1281 4162 
Q 984 4106 628 3988 
L 628 4550 
Q 988 4650 1302 4700 
Q 1616 4750 1894 4750 
Q 2613 4750 3031 4423 
Q 3450 4097 3450 3541 
Q 3450 3153 3228 2886 
Q 3006 2619 2597 2516 
z
" id="DejaVuSans-33" transform="scale(0.015625)"/>
       </defs>
       <use xlink:href="#DejaVuSans-33"/>
       <use x="63.623047" xlink:href="#DejaVuSans-2e"/>
       <use x="95.410156" xlink:href="#DejaVuSans-30"/>
      </g>
     </g>
    </g>
    <g id="text_14">
     <!-- $E$ -->
     <g style="fill:#262626;" transform="translate(25.43625 364.352286)rotate(-90)scale(0.24 -0.24)">
      <defs>
       <path d="M 1081 4666 
L 4031 4666 
L 3928 4134 
L 1606 4134 
L 1338 2753 
L 3566 2753 
L 3463 2222 
L 1234 2222 
L 909 531 
L 3284 531 
L 3181 0 
L 172 0 
L 1081 4666 
z
" id="DejaVuSans-Oblique-45" transform="scale(0.015625)"/>
      </defs>
      <use transform="translate(0 0.09375)" xlink:href="#DejaVuSans-Oblique-45"/>
     </g>
    </g>
   </g>
   <g id="line2d_1">
    <path clip-path="url(#p1d5532ff21)" d="M 106.858713 505.725394 
L 107.078266 424.784649 
L 107.297819 521.107891 
L 107.517372 383.753413 
L 107.736925 534.7225 
L 107.956478 492.806904 
L 108.395585 533.569215 
L 108.615138 452.622816 
L 108.834691 479.85667 
L 109.054244 463.940977 
L 109.273797 428.031667 
L 109.493351 541.507865 
L 109.712904 549.510673 
L 109.932457 444.047005 
L 110.591116 496.805171 
L 111.030223 419.850827 
L 111.249776 517.069484 
L 111.469329 449.252683 
L 111.688882 513.338105 
L 111.908435 484.62381 
L 112.127988 284.278027 
L 112.347541 530.489473 
L 112.567095 524.330806 
L 112.786648 491.122787 
L 113.225754 552.909588 
L 113.445307 555.043712 
L 113.66486 373.865763 
L 113.884414 382.537176 
L 114.103967 508.865107 
L 114.32352 529.218989 
L 114.543073 510.076068 
L 114.762626 464.721967 
L 114.982179 334.745889 
L 115.201732 462.89702 
L 115.640839 520.176331 
L 115.860392 494.411491 
L 116.079945 440.519326 
L 116.299498 498.903487 
L 116.519051 439.944116 
L 116.738605 464.276022 
L 116.958158 509.724673 
L 117.177711 507.211214 
L 117.397264 517.804358 
L 117.616817 504.389336 
L 117.83637 505.824645 
L 118.055923 475.891667 
L 118.275477 501.826256 
L 118.49503 485.51831 
L 118.714583 512.869251 
L 118.934136 511.988111 
L 119.153689 440.794704 
L 119.592796 527.143815 
L 119.812349 460.034249 
L 120.031902 535.326621 
L 120.251455 534.001571 
L 120.471008 473.577183 
L 120.690561 467.447762 
L 120.910114 341.452681 
L 121.129668 419.394446 
L 121.349221 565.982551 
L 121.568774 526.219513 
L 121.788327 523.539488 
L 122.00788 497.697609 
L 122.227433 517.971691 
L 122.446987 499.513756 
L 122.66654 510.814475 
L 122.886093 447.266135 
L 123.325199 558.510986 
L 123.544752 506.807538 
L 123.764305 360.488196 
L 123.983859 353.658477 
L 124.203412 399.211993 
L 124.422965 521.187329 
L 124.642518 528.137951 
L 124.862071 490.160096 
L 125.081624 369.325101 
L 125.301178 462.539291 
L 125.520731 403.940447 
L 125.959837 531.666002 
L 126.17939 542.496328 
L 126.398943 394.684931 
L 126.618496 497.743087 
L 126.83805 402.514047 
L 127.057603 360.029665 
L 127.277156 504.070855 
L 127.496709 492.199407 
L 127.716262 465.736613 
L 127.935815 515.111424 
L 128.155369 506.657452 
L 128.374922 535.428522 
L 128.594475 496.691607 
L 128.814028 514.391938 
L 129.033581 368.238576 
L 129.253134 486.518098 
L 129.472687 537.629186 
L 129.692241 543.018569 
L 129.911794 540.489984 
L 130.131347 531.897752 
L 130.3509 513.023099 
L 130.570453 406.80862 
L 130.790006 542.775752 
L 131.00956 453.920188 
L 131.229113 492.839016 
L 131.448666 475.75588 
L 131.668219 423.100769 
L 131.887772 489.199247 
L 132.107325 500.681224 
L 132.326878 341.777546 
L 132.546432 428.579722 
L 132.765985 419.586155 
L 132.985538 495.860374 
L 133.205091 514.469735 
L 133.424644 447.312175 
L 133.644197 453.44106 
L 133.863751 464.041731 
L 134.083304 450.208294 
L 134.302857 467.947223 
L 134.52241 448.157581 
L 134.741963 446.256764 
L 134.961516 508.235982 
L 135.181069 501.187 
L 135.400623 475.122114 
L 135.620176 525.972318 
L 135.839729 525.660413 
L 136.059282 530.51421 
L 136.278835 491.39979 
L 136.498388 526.664216 
L 136.717941 436.415585 
L 136.937495 528.774645 
L 137.376601 540.562159 
L 137.596154 357.825956 
L 137.815707 558.880683 
L 138.254814 502.630537 
L 138.474367 482.264578 
L 138.69392 540.477293 
L 138.913473 460.517903 
L 139.133026 462.979477 
L 139.352579 413.526793 
L 139.572132 540.587802 
L 139.791686 542.627747 
L 140.230792 421.441842 
L 140.450345 510.480426 
L 140.669898 350.693446 
L 140.889451 388.023645 
L 141.109005 551.53841 
L 141.328558 494.025539 
L 141.767664 523.879554 
L 141.987217 537.683382 
L 142.20677 455.723169 
L 142.645877 524.87645 
L 142.86543 420.525691 
L 143.084983 463.466764 
L 143.304536 414.655229 
L 143.524089 514.456016 
L 143.743642 490.884908 
L 143.963196 538.058727 
L 144.182749 485.347018 
L 144.402302 519.23586 
L 144.621855 385.017329 
L 145.060961 513.392917 
L 145.500068 445.546346 
L 145.719621 557.120311 
L 145.939174 523.933603 
L 146.158727 454.531255 
L 146.597833 482.943739 
L 146.817387 524.781278 
L 147.03694 275.904029 
L 147.256493 506.565887 
L 147.476046 414.285646 
L 147.695599 498.821851 
L 147.915152 442.25988 
L 148.134705 458.461983 
L 148.354259 544.851107 
L 148.573812 505.248203 
L 148.793365 443.860918 
L 149.012918 502.815963 
L 149.232471 414.375534 
L 149.452024 386.151455 
L 149.891131 514.744311 
L 150.110684 470.067779 
L 150.330237 527.154671 
L 150.54979 515.028559 
L 150.769343 546.313135 
L 150.988896 558.264843 
L 151.428003 493.647125 
L 151.647556 438.556841 
L 151.867109 534.663278 
L 152.086662 492.744565 
L 152.306215 473.185057 
L 152.525769 421.852985 
L 152.745322 490.494164 
L 152.964875 464.973592 
L 153.184428 512.706896 
L 153.403981 522.337629 
L 153.623534 442.689258 
L 153.843087 452.388654 
L 154.062641 429.711992 
L 154.282194 449.078412 
L 154.501747 481.485226 
L 154.7213 442.209059 
L 154.940853 510.50514 
L 155.160406 508.420648 
L 155.37996 465.013534 
L 155.599513 484.890708 
L 155.819066 521.970525 
L 156.038619 505.816965 
L 156.258172 453.512995 
L 156.697278 549.002233 
L 156.916832 505.178031 
L 157.136385 534.989346 
L 157.355938 504.699272 
L 157.575491 503.832989 
L 157.795044 503.747655 
L 158.014597 309.140089 
L 158.234151 499.700012 
L 158.453704 461.951946 
L 158.673257 508.177698 
L 158.89281 527.902519 
L 159.112363 431.327477 
L 159.331916 452.836294 
L 159.551469 543.876684 
L 159.990576 513.320316 
L 160.210129 513.401753 
L 160.429682 539.493558 
L 160.649235 480.581771 
L 160.868788 455.38902 
L 161.088342 466.651134 
L 161.307895 403.02381 
L 161.747001 552.126169 
L 161.966554 541.376078 
L 162.186107 425.982017 
L 162.40566 522.163685 
L 162.625214 425.688969 
L 163.06432 524.61301 
L 163.283873 435.020124 
L 163.503426 446.89907 
L 163.722979 489.870786 
L 163.942532 481.621655 
L 164.162086 437.017056 
L 164.381639 457.832629 
L 164.601192 507.350977 
L 164.820745 480.450701 
L 165.040298 468.690248 
L 165.259851 471.611594 
L 165.479405 544.185785 
L 165.918511 465.222319 
L 166.138064 514.21967 
L 166.357617 450.373449 
L 166.796723 526.343243 
L 167.016277 468.418722 
L 167.23583 462.064734 
L 167.455383 526.216467 
L 167.674936 529.893741 
L 167.894489 368.942194 
L 168.333596 510.051777 
L 168.553149 500.605896 
L 168.772702 530.769055 
L 168.992255 515.006256 
L 169.211808 548.130357 
L 169.431361 464.448349 
L 169.650914 522.553599 
L 169.870468 520.664601 
L 170.090021 489.578839 
L 170.309574 500.537252 
L 170.529127 384.834497 
L 170.74868 447.502636 
L 170.968233 390.570771 
L 171.187787 547.62743 
L 171.846446 461.475169 
L 172.065999 284.774272 
L 172.285552 479.259468 
L 172.505105 533.968689 
L 172.724659 535.041789 
L 172.944212 449.869156 
L 173.163765 449.789264 
L 173.602871 434.355205 
L 173.822424 530.273698 
L 174.041978 549.554668 
L 174.261531 431.330211 
L 174.481084 508.848791 
L 174.700637 434.829416 
L 174.92019 441.853596 
L 175.139743 560.797722 
L 175.359296 480.712656 
L 175.57885 526.209543 
L 175.798403 528.587542 
L 176.017956 541.502772 
L 176.237509 475.581412 
L 176.457062 508.62129 
L 176.676615 510.489868 
L 176.896169 487.693241 
L 177.115722 440.195845 
L 177.335275 528.955899 
L 177.554828 433.031099 
L 177.774381 498.98134 
L 177.993934 520.390527 
L 178.213487 490.790021 
L 178.433041 437.87018 
L 178.652594 513.741342 
L 179.0917 474.990409 
L 179.311253 397.06249 
L 179.530806 537.768011 
L 179.75036 530.133052 
L 179.969913 450.99298 
L 180.189466 493.129368 
L 180.409019 496.04041 
L 180.628572 473.342325 
L 180.848125 543.560511 
L 181.287232 506.546066 
L 181.506785 533.05466 
L 182.165444 455.176783 
L 182.384997 503.516888 
L 182.604551 517.585224 
L 182.824104 411.24855 
L 183.043657 411.622839 
L 183.26321 429.044362 
L 183.482763 549.218394 
L 183.702316 553.547583 
L 183.921869 538.516879 
L 184.141423 450.552297 
L 184.360976 440.656781 
L 184.580529 465.970003 
L 184.800082 387.999559 
L 185.458742 525.30913 
L 185.678295 404.846434 
L 186.117401 540.49202 
L 186.336954 477.514391 
L 186.556507 531.372349 
L 186.77606 405.862251 
L 186.995614 465.473708 
L 187.215167 485.17469 
L 187.43472 517.205335 
L 187.654273 470.423902 
L 187.873826 520.393833 
L 188.093379 459.87239 
L 188.312932 507.982472 
L 188.532486 442.810686 
L 188.752039 504.957687 
L 188.971592 523.037847 
L 189.191145 528.076581 
L 189.410698 514.568254 
L 189.630251 475.749828 
L 189.849805 525.671217 
L 190.069358 376.153794 
L 190.288911 431.056721 
L 190.508464 525.993462 
L 190.728017 563.942563 
L 190.94757 533.973102 
L 191.167123 478.234501 
L 191.386677 464.095554 
L 191.60623 480.310828 
L 191.825783 512.095921 
L 192.045336 494.432055 
L 192.264889 525.878072 
L 192.484442 477.884172 
L 192.703996 466.908115 
L 192.923549 365.635556 
L 193.143102 493.173657 
L 193.362655 532.185662 
L 193.801761 469.706224 
L 194.021314 523.703159 
L 194.240868 503.04061 
L 194.460421 459.65556 
L 194.679974 500.879319 
L 194.899527 471.003322 
L 195.11908 459.953148 
L 195.338633 396.260733 
L 195.77774 530.843258 
L 195.997293 504.526602 
L 196.216846 462.662343 
L 196.436399 540.077445 
L 196.655952 490.689838 
L 196.875505 525.598397 
L 197.095059 465.844309 
L 197.314612 475.947278 
L 197.534165 462.907388 
L 197.753718 479.280307 
L 197.973271 313.921093 
L 198.192824 547.667138 
L 198.412378 384.67562 
L 198.631931 507.895865 
L 198.851484 463.782205 
L 199.071037 522.828071 
L 199.29059 534.203906 
L 199.510143 533.206453 
L 199.729696 443.330796 
L 200.168803 534.204662 
L 200.607909 438.442746 
L 200.827462 527.247385 
L 201.047015 427.344771 
L 201.266569 503.28677 
L 201.486122 468.387317 
L 201.705675 474.823517 
L 201.925228 502.702624 
L 202.144781 492.490436 
L 202.364334 500.015771 
L 202.583887 519.609342 
L 202.803441 486.738932 
L 203.022994 415.789962 
L 203.242547 515.614779 
L 203.4621 478.131411 
L 203.681653 508.592665 
L 203.901206 451.201083 
L 204.12076 544.715147 
L 204.340313 453.024325 
L 204.559866 541.216751 
L 204.779419 542.639923 
L 204.998972 450.889059 
L 205.218525 507.679087 
L 205.438078 471.872127 
L 205.657632 493.211455 
L 205.877185 471.018159 
L 206.096738 544.545862 
L 206.316291 520.341702 
L 206.535844 514.025599 
L 206.755397 495.881827 
L 206.974951 499.127555 
L 207.194504 559.81634 
L 207.414057 494.871871 
L 207.63361 523.270561 
L 207.853163 489.191844 
L 208.072716 388.183958 
L 208.292269 517.567423 
L 208.511823 461.606541 
L 208.731376 517.037329 
L 208.950929 360.041876 
L 209.170482 531.153172 
L 209.390035 494.757424 
L 209.609588 533.787395 
L 209.829142 527.737784 
L 210.048695 340.417898 
L 210.268248 446.194205 
L 210.487801 441.451727 
L 210.707354 452.202477 
L 210.926907 527.687086 
L 211.14646 476.016659 
L 211.366014 526.210629 
L 211.80512 469.680561 
L 212.024673 467.220947 
L 212.244226 485.655647 
L 212.463779 528.934435 
L 212.683333 489.552449 
L 212.902886 495.339111 
L 213.122439 506.074804 
L 213.341992 494.411722 
L 213.561545 466.307259 
L 213.781098 461.912367 
L 214.000651 523.004971 
L 214.220205 457.657583 
L 214.439758 350.710316 
L 214.659311 472.752757 
L 214.878864 523.226438 
L 215.098417 478.768943 
L 215.31797 517.158007 
L 215.537523 463.452397 
L 215.757077 490.832646 
L 215.97663 485.812858 
L 216.196183 496.528941 
L 216.635289 489.036852 
L 216.854842 460.837415 
L 217.074396 495.634811 
L 217.293949 428.142293 
L 217.513502 526.048912 
L 217.733055 483.4878 
L 217.952608 387.618392 
L 218.172161 515.666538 
L 218.391714 471.425003 
L 218.611268 513.123222 
L 218.830821 493.936538 
L 219.050374 529.946028 
L 219.269927 460.38443 
L 219.48948 484.250344 
L 219.709033 476.884085 
L 220.14814 543.92693 
L 220.367693 514.127101 
L 220.587246 427.840651 
L 220.806799 531.356187 
L 221.026352 506.238095 
L 221.245905 131.956182 
L 221.465459 469.187461 
L 221.685012 509.127276 
L 221.904565 522.587681 
L 222.124118 501.204269 
L 222.343671 501.976369 
L 222.563224 395.980416 
L 222.782778 434.928529 
L 223.002331 451.233726 
L 223.221884 556.040583 
L 223.441437 472.238153 
L 223.880543 489.847549 
L 224.100096 543.134945 
L 224.31965 558.656063 
L 224.539203 537.925289 
L 224.758756 531.759255 
L 224.978309 521.501545 
L 225.417415 420.48822 
L 225.636969 496.037156 
L 225.856522 494.763235 
L 226.076075 532.20133 
L 226.515181 453.195381 
L 226.734734 477.349274 
L 226.954287 475.926095 
L 227.173841 467.804161 
L 227.393394 543.902677 
L 227.612947 522.63695 
L 227.8325 485.260181 
L 228.052053 522.430088 
L 228.271606 533.073672 
L 228.49116 520.727591 
L 228.710713 463.776855 
L 228.930266 532.750529 
L 229.149819 484.318337 
L 229.369372 500.270785 
L 229.588925 531.831715 
L 229.808478 426.723757 
L 230.028032 458.77617 
L 230.247585 517.056624 
L 230.467138 473.596056 
L 230.686691 488.08633 
L 230.906244 511.300383 
L 231.125797 488.113249 
L 231.564904 568.425128 
L 232.00401 427.436894 
L 232.223563 506.229163 
L 232.443116 461.7407 
L 232.662669 544.77427 
L 232.882223 563.432566 
L 233.321329 455.573133 
L 233.540882 471.370779 
L 233.760435 498.707297 
L 233.979988 399.941388 
L 234.199542 497.766299 
L 234.419095 428.053008 
L 234.858201 457.811298 
L 235.077754 391.710225 
L 235.51686 514.403369 
L 235.736414 522.871083 
L 235.955967 442.95415 
L 236.17552 411.307864 
L 236.395073 496.705763 
L 236.614626 482.872882 
L 236.834179 460.929453 
L 237.053733 511.387496 
L 237.273286 464.080177 
L 237.492839 537.550506 
L 237.931945 404.570953 
L 238.371051 484.980094 
L 238.590605 497.205093 
L 238.810158 530.7201 
L 239.029711 452.666266 
L 239.249264 562.411716 
L 239.468817 438.929283 
L 239.68837 445.321517 
L 239.907924 518.890511 
L 240.127477 483.770232 
L 240.34703 488.107176 
L 240.566583 485.517525 
L 240.786136 495.13521 
L 241.005689 524.244474 
L 241.225242 529.117493 
L 241.444796 506.068265 
L 241.664349 367.540911 
L 241.883902 560.983889 
L 242.103455 509.681699 
L 242.323008 531.820902 
L 242.542561 393.36 
L 242.981668 508.078869 
L 243.201221 516.340726 
L 243.420774 492.985925 
L 243.640327 535.485979 
L 243.85988 402.3681 
L 244.298987 517.283283 
L 244.51854 357.506661 
L 244.738093 492.462636 
L 244.957646 492.220815 
L 245.177199 503.065083 
L 245.396752 427.18672 
L 245.835859 550.190295 
L 246.274965 424.795061 
L 246.494518 514.964222 
L 246.714071 510.063748 
L 246.933624 465.806895 
L 247.153178 548.739141 
L 247.372731 426.924562 
L 247.592284 544.96993 
L 247.811837 511.341381 
L 248.03139 401.463554 
L 248.250943 553.75417 
L 248.69005 459.340692 
L 248.909603 445.734911 
L 249.129156 496.193533 
L 249.348709 359.749667 
L 249.787815 469.052853 
L 250.007369 499.329329 
L 250.226922 362.898192 
L 250.446475 541.425903 
L 250.666028 531.122687 
L 250.885581 547.500077 
L 251.105134 431.600492 
L 251.324687 555.937895 
L 251.763794 498.875656 
L 251.983347 536.694006 
L 252.2029 535.717954 
L 252.422453 453.183514 
L 252.642006 495.374227 
L 252.86156 497.385484 
L 253.081113 538.068227 
L 253.300666 511.527295 
L 253.520219 552.842626 
L 253.739772 432.620024 
L 253.959325 520.71272 
L 254.178878 494.151689 
L 254.398432 404.116834 
L 254.617985 435.724211 
L 254.837538 529.027206 
L 255.057091 544.46057 
L 255.496197 417.869277 
L 255.935304 516.475111 
L 256.154857 474.012265 
L 256.37441 348.263866 
L 256.593963 539.792834 
L 256.813516 444.744821 
L 257.252623 547.68714 
L 257.472176 484.254408 
L 257.691729 495.014266 
L 257.911282 346.985759 
L 258.350388 504.870829 
L 258.569942 541.317875 
L 259.009048 455.229501 
L 259.228601 538.32984 
L 259.448154 526.110067 
L 259.667707 319.467307 
L 259.88726 484.703726 
L 260.106814 471.80188 
L 260.326367 549.711594 
L 260.54592 545.929455 
L 260.765473 544.547024 
L 261.204579 504.804737 
L 261.643686 534.892869 
L 261.863239 419.290052 
L 262.082792 493.795868 
L 262.302345 499.135073 
L 262.521898 545.334179 
L 262.741451 522.754573 
L 262.961005 434.909089 
L 263.180558 432.982264 
L 263.400111 475.75299 
L 263.619664 550.147693 
L 263.839217 538.547856 
L 264.05877 547.608154 
L 264.278324 497.959638 
L 264.497877 372.773161 
L 264.71743 460.710426 
L 264.936983 475.621965 
L 265.156536 392.631825 
L 265.376089 539.11522 
L 265.595642 458.641548 
L 265.815196 507.302464 
L 266.034749 434.764659 
L 266.254302 517.509461 
L 266.473855 480.567676 
L 266.693408 505.760792 
L 266.912961 426.033545 
L 267.352068 530.306261 
L 267.571621 439.222865 
L 267.791174 521.542441 
L 268.010727 523.785561 
L 268.23028 504.549577 
L 268.449833 557.53306 
L 268.669387 396.754676 
L 268.88894 535.821078 
L 269.108493 494.052575 
L 269.328046 479.179763 
L 269.547599 489.790905 
L 269.767152 489.479298 
L 269.986705 380.273561 
L 270.206259 479.673525 
L 270.425812 440.227028 
L 270.645365 455.593643 
L 270.864918 499.629869 
L 271.084471 460.461286 
L 271.304024 526.088848 
L 271.523578 505.898084 
L 271.743131 509.452854 
L 271.962684 546.234053 
L 272.182237 500.246189 
L 272.40179 532.253295 
L 272.621343 542.70133 
L 272.840896 497.156325 
L 273.06045 519.203022 
L 273.280003 520.86787 
L 273.499556 479.592998 
L 273.719109 542.627276 
L 273.938662 518.797221 
L 274.158215 343.979412 
L 274.377769 454.621887 
L 274.597322 480.653166 
L 274.816875 451.119954 
L 275.036428 402.243657 
L 275.255981 302.635038 
L 275.475534 536.59456 
L 275.695087 518.70706 
L 275.914641 490.987304 
L 276.134194 485.743268 
L 276.353747 498.273835 
L 276.5733 431.214805 
L 276.792853 530.173597 
L 277.012406 540.537638 
L 277.23196 497.764565 
L 277.451513 498.700031 
L 277.671066 447.091303 
L 278.110172 571.102828 
L 278.329725 528.031091 
L 278.549278 511.60014 
L 278.768832 516.59484 
L 278.988385 508.947478 
L 279.427491 526.462773 
L 279.647044 519.522109 
L 279.866597 536.705079 
L 280.086151 486.073394 
L 280.305704 349.949201 
L 280.74481 553.283716 
L 280.964363 473.847277 
L 281.183916 543.402777 
L 281.623023 421.036452 
L 281.842576 568.30234 
L 282.062129 542.374512 
L 282.281682 465.583309 
L 282.720788 533.384812 
L 282.940342 544.799421 
L 283.159895 447.900281 
L 283.379448 483.673522 
L 283.599001 427.039668 
L 283.818554 438.268298 
L 284.038107 286.518367 
L 284.25766 538.397668 
L 284.696767 410.644484 
L 284.91632 520.69538 
L 285.135873 517.646596 
L 285.355426 501.105755 
L 285.574979 457.961218 
L 285.794533 516.540023 
L 286.014086 459.623053 
L 286.233639 456.707087 
L 286.453192 415.586588 
L 286.892298 532.793488 
L 287.111851 500.704023 
L 287.331405 513.330759 
L 287.550958 415.447643 
L 287.770511 562.917676 
L 287.990064 403.633241 
L 288.42917 537.563968 
L 288.648724 541.688687 
L 288.868277 491.17686 
L 289.08783 530.36865 
L 289.307383 427.879933 
L 289.526936 466.461144 
L 289.746489 547.773803 
L 289.966042 493.99799 
L 290.185596 470.692838 
L 290.405149 528.741952 
L 290.624702 412.198842 
L 290.844255 525.834211 
L 291.063808 481.756643 
L 291.283361 352.765564 
L 291.502915 494.664806 
L 291.722468 531.941881 
L 291.942021 486.746099 
L 292.161574 409.961433 
L 292.381127 383.46765 
L 292.60068 570.043641 
L 292.820233 465.815649 
L 293.039787 476.70786 
L 293.25934 440.648135 
L 293.478893 507.863793 
L 293.698446 475.009376 
L 293.917999 505.241362 
L 294.137552 479.394091 
L 294.357105 472.457446 
L 294.576659 439.079203 
L 294.796212 562.222164 
L 295.015765 510.969486 
L 295.235318 497.804874 
L 295.454871 467.994249 
L 295.674424 536.019761 
L 295.893978 466.336131 
L 296.113531 479.503317 
L 296.333084 523.648781 
L 296.552637 469.920226 
L 296.77219 525.211285 
L 296.991743 497.067442 
L 297.211296 552.284451 
L 297.43085 467.407124 
L 297.650403 455.831126 
L 297.869956 523.205809 
L 298.309062 360.215475 
L 298.528615 551.876511 
L 298.748169 418.101794 
L 299.406828 555.797549 
L 299.626381 486.611566 
L 299.845934 489.337926 
L 300.065487 500.788481 
L 300.285041 524.938971 
L 300.504594 530.574949 
L 300.724147 459.806009 
L 300.9437 533.19175 
L 301.163253 469.567515 
L 301.382806 471.642166 
L 301.60236 544.982243 
L 301.821913 526.691794 
L 302.041466 471.418638 
L 302.261019 473.258178 
L 302.480572 494.039356 
L 302.919678 393.520651 
L 303.139232 500.512629 
L 303.358785 501.800555 
L 303.578338 499.360245 
L 303.797891 476.789587 
L 304.017444 425.601539 
L 304.236997 476.862321 
L 304.456551 486.289276 
L 304.676104 403.01771 
L 304.895657 462.447962 
L 305.334763 494.069847 
L 305.554316 503.769013 
L 305.773869 476.376573 
L 305.993423 486.871717 
L 306.212976 459.213087 
L 306.432529 539.948528 
L 306.652082 475.839062 
L 306.871635 523.722284 
L 307.091188 433.936271 
L 307.310742 539.862021 
L 307.530295 466.943681 
L 307.749848 495.610611 
L 307.969401 464.917387 
L 308.188954 523.798134 
L 308.62806 475.169034 
L 308.847614 581.38839 
L 309.28672 484.233307 
L 309.506273 489.934307 
L 309.725826 491.749921 
L 309.945379 418.803041 
L 310.164933 489.965306 
L 310.384486 508.173317 
L 310.604039 458.563174 
L 310.823592 518.896574 
L 311.262698 401.810898 
L 311.482251 506.947446 
L 311.701805 532.900095 
L 312.140911 454.784825 
L 312.580017 519.357285 
L 312.79957 494.884945 
L 313.019124 455.435159 
L 313.238677 386.770797 
L 313.45823 540.98469 
L 313.897336 383.989409 
L 314.116889 518.095804 
L 314.336442 515.265279 
L 314.555996 492.592051 
L 314.775549 505.803487 
L 314.995102 529.874549 
L 315.214655 514.348528 
L 315.434208 515.134781 
L 315.653761 444.327186 
L 315.873315 542.520019 
L 316.092868 478.900911 
L 316.312421 482.831016 
L 316.531974 498.024292 
L 316.751527 427.680211 
L 316.97108 467.413705 
L 317.190633 560.553424 
L 317.410187 460.887662 
L 317.62974 517.077341 
L 317.849293 411.878936 
L 318.068846 443.000565 
L 318.288399 496.123242 
L 318.507952 484.821175 
L 318.727506 554.469757 
L 318.947059 528.795612 
L 319.166612 377.050454 
L 319.386165 502.947996 
L 319.605718 518.251835 
L 319.825271 471.320732 
L 320.044824 543.034592 
L 320.264378 503.484806 
L 320.483931 526.752858 
L 320.703484 532.130332 
L 320.923037 491.095056 
L 321.14259 471.534446 
L 321.362143 419.721326 
L 321.581696 544.592907 
L 321.80125 506.788255 
L 322.020803 519.119339 
L 322.240356 543.482593 
L 322.459909 424.32996 
L 322.679462 532.260711 
L 322.899015 534.897054 
L 323.118569 492.748538 
L 323.338122 536.018255 
L 323.557675 427.503805 
L 323.777228 468.928294 
L 323.996781 549.384022 
L 324.216334 474.040655 
L 324.435887 480.353194 
L 324.655441 557.540328 
L 324.874994 475.262112 
L 325.094547 547.123843 
L 325.3141 523.957805 
L 325.533653 399.518141 
L 325.753206 539.742377 
L 325.97276 469.064844 
L 326.192313 509.517598 
L 326.411866 483.077653 
L 326.631419 396.734521 
L 326.850972 447.946486 
L 327.290078 494.016598 
L 327.509632 537.189084 
L 327.948738 438.562442 
L 328.387844 533.173167 
L 328.607397 447.74149 
L 329.046504 496.343365 
L 329.266057 523.919461 
L 329.48561 447.662719 
L 329.705163 459.375316 
L 329.924716 547.421428 
L 330.144269 493.855845 
L 330.363823 515.649244 
L 330.583376 517.864699 
L 330.802929 527.280333 
L 331.022482 466.093769 
L 331.461588 489.453136 
L 331.681142 406.390674 
L 331.900695 435.592478 
L 332.120248 538.203141 
L 332.339801 384.231651 
L 332.778907 540.892912 
L 332.99846 455.782923 
L 333.218014 503.26509 
L 333.437567 507.880847 
L 333.65712 474.3113 
L 333.876673 364.981508 
L 334.315779 487.287785 
L 334.535333 527.452195 
L 334.754886 529.822294 
L 334.974439 529.97331 
L 335.193992 500.597617 
L 335.413545 535.873445 
L 335.633098 542.788992 
L 335.852651 447.607466 
L 336.072205 477.597913 
L 336.291758 314.898019 
L 336.511311 480.602732 
L 336.730864 525.558679 
L 336.950417 537.078084 
L 337.16997 396.755179 
L 337.389524 498.211617 
L 337.609077 536.450225 
L 337.82863 479.296244 
L 338.048183 390.465313 
L 338.267736 497.383796 
L 338.487289 447.94853 
L 338.706842 455.404596 
L 338.926396 316.012774 
L 339.145949 545.943099 
L 339.365502 481.14071 
L 339.585055 531.779329 
L 339.804608 401.838619 
L 340.024161 395.69526 
L 340.243715 509.419854 
L 340.463268 531.113302 
L 340.682821 486.013164 
L 340.902374 372.060424 
L 341.121927 411.14798 
L 341.561033 514.663472 
L 341.780587 387.440975 
L 342.00014 508.799911 
L 342.219693 513.91652 
L 342.439246 526.918677 
L 342.658799 434.587412 
L 342.878352 554.084788 
L 343.097906 479.332417 
L 343.317459 543.788379 
L 343.537012 548.423115 
L 343.976118 514.222857 
L 344.195671 515.990401 
L 344.415224 494.228059 
L 344.634778 495.157483 
L 344.854331 341.723074 
L 345.073884 488.03849 
L 345.293437 432.198507 
L 345.51299 527.444161 
L 345.732543 491.968795 
L 345.952096 510.347015 
L 346.17165 490.561227 
L 346.391203 487.547502 
L 346.610756 505.497243 
L 346.830309 396.769627 
L 347.049862 407.305087 
L 347.269415 557.535637 
L 347.928075 441.959867 
L 348.147628 483.767911 
L 348.367181 355.705235 
L 348.806287 504.594151 
L 349.025841 404.024836 
L 349.245394 567.18314 
L 349.464947 512.749182 
L 349.6845 496.045153 
L 349.904053 518.380355 
L 350.123606 514.480378 
L 350.34316 525.660689 
L 350.562713 462.917238 
L 351.001819 489.743376 
L 351.221372 512.984537 
L 351.440925 493.356722 
L 351.660478 545.713172 
L 351.880032 473.124414 
L 352.099585 487.627067 
L 352.319138 528.800067 
L 352.758244 490.468768 
L 352.977797 421.041601 
L 353.197351 536.16312 
L 353.416904 544.906088 
L 353.636457 397.067885 
L 353.85601 358.274974 
L 354.075563 475.045069 
L 354.295116 518.96607 
L 354.514669 498.195461 
L 354.734223 520.723778 
L 354.953776 523.473304 
L 355.173329 524.799718 
L 355.392882 497.146362 
L 355.831988 421.679407 
L 356.051542 427.66451 
L 356.271095 545.64971 
L 356.490648 531.028146 
L 356.710201 508.968245 
L 356.929754 525.053072 
L 357.149307 476.476066 
L 357.36886 372.927453 
L 357.588414 507.517962 
L 357.807967 448.333798 
L 358.02752 445.798637 
L 358.247073 514.356651 
L 358.466626 387.960478 
L 358.686179 517.708233 
L 358.905733 467.955902 
L 359.125286 525.650185 
L 359.344839 529.301438 
L 359.564392 428.925115 
L 359.783945 520.07883 
L 360.003498 490.18861 
L 360.223051 494.635274 
L 360.442605 456.654967 
L 360.662158 467.755254 
L 360.881711 428.987855 
L 361.101264 511.069511 
L 361.320817 447.787582 
L 361.54037 513.805776 
L 361.759924 530.349005 
L 361.979477 468.437684 
L 362.19903 524.789357 
L 362.418583 413.704254 
L 362.638136 379.39279 
L 362.857689 428.929733 
L 363.077242 543.128974 
L 363.296796 390.508988 
L 363.735902 538.318092 
L 363.955455 447.248892 
L 364.175008 515.567894 
L 364.394561 534.174427 
L 364.614115 499.772117 
L 364.833668 515.509669 
L 365.053221 431.086338 
L 365.272774 559.069134 
L 365.71188 496.531172 
L 365.931433 513.77515 
L 366.150987 543.180356 
L 366.37054 472.625315 
L 366.590093 494.199012 
L 366.809646 494.558557 
L 367.029199 525.637007 
L 367.248752 503.504898 
L 367.468306 442.210163 
L 367.687859 478.98023 
L 367.907412 487.217258 
L 368.126965 523.117511 
L 368.566071 425.721557 
L 368.785624 510.151443 
L 369.005178 427.140417 
L 369.224731 502.754673 
L 369.444284 412.841534 
L 369.663837 430.433597 
L 369.88339 410.473438 
L 370.102943 513.800929 
L 370.322497 500.298571 
L 370.54205 436.79542 
L 370.981156 505.752833 
L 371.200709 510.495982 
L 371.420262 535.403213 
L 371.639815 510.334702 
L 371.859369 505.572042 
L 372.078922 566.071193 
L 372.298475 477.052773 
L 372.518028 528.452205 
L 372.737581 513.484376 
L 372.957134 484.326669 
L 373.176687 514.464546 
L 373.396241 461.064881 
L 373.615794 461.073893 
L 373.835347 518.297161 
L 374.0549 488.601621 
L 374.274453 519.320651 
L 374.494006 466.896972 
L 374.71356 527.860772 
L 374.933113 540.01609 
L 375.152666 468.498154 
L 375.372219 467.02325 
L 375.591772 438.378487 
L 376.030878 535.026523 
L 376.469985 519.844425 
L 376.909091 469.698119 
L 377.128644 482.335753 
L 377.348197 429.939439 
L 377.567751 421.888894 
L 377.787304 549.857183 
L 378.006857 454.883912 
L 378.22641 479.912748 
L 378.445963 467.726818 
L 378.665516 519.216039 
L 378.885069 436.439924 
L 379.104623 518.25014 
L 379.324176 456.782166 
L 379.543729 450.591615 
L 379.763282 462.803308 
L 379.982835 489.866921 
L 380.202388 465.871569 
L 380.421942 521.877214 
L 380.641495 475.379698 
L 380.861048 502.480712 
L 381.080601 451.337721 
L 381.300154 531.722362 
L 381.519707 490.56637 
L 381.73926 488.599353 
L 381.958814 495.002189 
L 382.39792 399.032046 
L 382.617473 534.71229 
L 382.837026 462.075822 
L 383.056579 438.305163 
L 383.276133 462.657195 
L 383.495686 523.344016 
L 383.715239 478.796951 
L 384.154345 535.163066 
L 384.593451 452.958901 
L 385.032558 482.229648 
L 385.252111 527.676666 
L 385.471664 497.577516 
L 385.691217 425.861212 
L 385.91077 407.545039 
L 386.130324 447.314895 
L 386.349877 448.561471 
L 386.56943 531.98551 
L 387.008536 498.809013 
L 387.228089 482.728971 
L 387.667196 417.108021 
L 387.886749 457.068509 
L 388.106302 465.491045 
L 388.325855 371.013611 
L 388.545408 510.549028 
L 388.764961 547.435894 
L 388.984515 442.30119 
L 389.204068 546.249999 
L 389.423621 531.679993 
L 389.643174 500.313326 
L 389.862727 494.244239 
L 390.08228 480.601102 
L 390.301833 534.860349 
L 390.521387 530.695155 
L 390.74094 476.136844 
L 390.960493 528.625435 
L 391.180046 502.586874 
L 391.838706 371.884494 
L 392.058259 478.994348 
L 392.277812 493.835095 
L 392.497365 572.814304 
L 392.936471 384.078158 
L 393.375578 507.253199 
L 393.595131 424.521493 
L 394.034237 524.980318 
L 394.25379 450.3326 
L 394.692897 551.746477 
L 394.91245 548.511369 
L 395.132003 404.461484 
L 395.351556 517.337273 
L 395.571109 545.79269 
L 395.790662 521.037378 
L 396.010215 461.899016 
L 396.229769 504.603407 
L 396.449322 505.447928 
L 396.888428 448.920293 
L 397.107981 442.886213 
L 397.327534 496.1356 
L 397.547087 477.892872 
L 397.766641 447.647709 
L 397.986194 338.302787 
L 398.205747 526.113676 
L 398.4253 552.692093 
L 398.644853 545.734837 
L 399.303513 425.106455 
L 399.523066 547.986094 
L 399.742619 518.026406 
L 399.962172 446.923753 
L 400.181725 521.204405 
L 400.401278 518.447788 
L 400.620832 535.488475 
L 400.840385 483.086719 
L 401.059938 533.407082 
L 401.499044 557.397057 
L 401.718597 433.990797 
L 401.938151 449.267699 
L 402.157704 474.105137 
L 402.377257 529.100614 
L 402.59681 517.569461 
L 402.816363 520.19473 
L 403.035916 436.776502 
L 403.255469 524.072565 
L 403.475023 408.975183 
L 403.694576 547.735939 
L 403.914129 500.046278 
L 404.133682 425.561037 
L 404.353235 503.53066 
L 404.572788 529.042675 
L 405.011895 382.262986 
L 405.231448 488.141333 
L 405.451001 482.66259 
L 405.890107 551.828439 
L 406.10966 390.181043 
L 406.329214 424.037297 
L 406.548767 524.1203 
L 406.76832 538.353197 
L 406.987873 316.586474 
L 407.207426 483.957309 
L 407.426979 502.260488 
L 407.646533 492.30801 
L 407.866086 457.838718 
L 408.085639 524.859849 
L 408.305192 538.027913 
L 408.524745 365.977908 
L 408.963851 487.131758 
L 409.183405 453.270277 
L 409.622511 496.935578 
L 409.842064 479.13143 
L 410.061617 449.030834 
L 410.28117 461.090466 
L 410.500724 515.520483 
L 410.720277 441.034679 
L 411.159383 562.685878 
L 411.378936 502.309254 
L 411.598489 518.385273 
L 411.818042 378.357118 
L 412.037596 513.148292 
L 412.257149 410.277393 
L 412.476702 511.528222 
L 412.696255 511.159972 
L 412.915808 493.120612 
L 413.135361 406.881059 
L 413.354915 385.378681 
L 413.794021 549.496021 
L 414.013574 459.129223 
L 414.233127 501.788205 
L 414.45268 511.725658 
L 414.672233 495.859383 
L 414.891787 540.55254 
L 415.11134 544.330255 
L 415.330893 435.644623 
L 415.550446 424.284567 
L 415.769999 386.49628 
L 415.989552 522.272087 
L 416.209106 514.685881 
L 416.648212 389.653475 
L 416.867765 471.808491 
L 417.087318 448.210101 
L 417.526424 513.162113 
L 417.745978 402.106537 
L 418.185084 548.425356 
L 418.404637 351.29434 
L 418.62419 525.650122 
L 418.843743 491.630504 
L 419.063297 423.328146 
L 419.28285 506.579327 
L 419.502403 526.121254 
L 419.721956 451.490396 
L 419.941509 500.760671 
L 420.161062 459.998247 
L 420.380615 394.379345 
L 420.819722 542.899175 
L 421.039275 409.242525 
L 421.258828 501.878825 
L 421.478381 453.813482 
L 421.697934 433.979524 
L 421.917488 537.26444 
L 422.137041 455.024888 
L 422.356594 534.969845 
L 422.576147 475.99544 
L 422.7957 498.938811 
L 423.015253 546.839282 
L 423.234806 525.204974 
L 423.45436 420.923308 
L 423.893466 558.892638 
L 424.113019 438.545792 
L 424.332572 469.321211 
L 424.552125 519.070031 
L 424.771678 516.034128 
L 425.210785 458.778015 
L 425.430338 538.296657 
L 425.649891 539.390473 
L 426.088997 468.752734 
L 426.308551 505.479832 
L 426.528104 418.648333 
L 426.747657 522.351221 
L 426.96721 524.418568 
L 427.186763 501.211171 
L 427.406316 551.281013 
L 427.625869 454.92685 
L 427.845423 306.124655 
L 428.064976 504.289777 
L 428.284529 546.929814 
L 428.723635 486.53646 
L 428.943188 390.441559 
L 429.162742 536.840273 
L 429.382295 494.938808 
L 429.601848 496.348384 
L 429.821401 494.704735 
L 430.040954 553.545364 
L 430.260507 545.364129 
L 430.48006 478.770515 
L 430.919167 456.815215 
L 431.13872 530.890819 
L 431.577826 416.743624 
L 431.797379 492.457703 
L 432.016933 424.852198 
L 432.236486 484.844529 
L 432.456039 435.727237 
L 432.675592 413.491826 
L 432.895145 509.844258 
L 433.114698 457.77379 
L 433.334251 523.142431 
L 433.553805 446.596272 
L 433.773358 492.050961 
L 433.992911 487.006653 
L 434.212464 473.797862 
L 434.432017 525.736626 
L 434.65157 503.90453 
L 434.871124 502.040397 
L 435.090677 519.980059 
L 435.31023 480.588158 
L 435.749336 539.358803 
L 436.188442 418.589956 
L 436.627549 488.107434 
L 436.847102 479.88249 
L 437.066655 557.145266 
L 437.286208 485.650073 
L 437.505761 506.783912 
L 437.725315 481.391032 
L 437.944868 535.235788 
L 438.164421 466.181821 
L 438.383974 508.239001 
L 438.82308 479.888294 
L 439.042633 510.948488 
L 439.262187 458.839629 
L 439.48174 527.923373 
L 439.701293 486.004606 
L 439.920846 501.531644 
L 440.140399 555.251712 
L 440.359952 436.625241 
L 440.799059 471.082852 
L 441.018612 378.761803 
L 441.238165 554.139316 
L 441.457718 521.370664 
L 441.677271 445.343933 
L 441.896824 525.401233 
L 442.116378 534.198171 
L 442.335931 464.513966 
L 442.555484 465.73709 
L 442.775037 547.774346 
L 442.99459 539.303524 
L 443.214143 498.545334 
L 443.433697 537.884422 
L 443.872803 471.695884 
L 444.092356 490.778172 
L 444.311909 479.900253 
L 444.531462 378.122161 
L 444.970569 476.877822 
L 445.190122 517.196133 
L 445.409675 520.719887 
L 445.629228 439.462911 
L 445.848781 513.497725 
L 446.068334 470.551487 
L 446.287888 524.214239 
L 446.507441 369.925129 
L 446.726994 479.570996 
L 446.946547 483.65836 
L 447.1661 502.741807 
L 447.385653 443.671421 
L 447.605206 514.644672 
L 447.82476 508.424302 
L 448.044313 545.486349 
L 448.263866 420.74357 
L 448.483419 551.281871 
L 448.702972 528.128479 
L 448.922525 526.569533 
L 449.142079 535.774013 
L 449.361632 389.012608 
L 449.581185 522.148063 
L 449.800738 473.431263 
L 450.239844 535.762282 
L 450.678951 428.458784 
L 450.898504 420.745632 
L 451.118057 421.050223 
L 451.33761 462.673745 
L 451.557163 467.755662 
L 451.776716 512.015706 
L 451.996269 482.305688 
L 452.215823 386.942867 
L 452.435376 516.195005 
L 452.654929 573.332461 
L 452.874482 480.909876 
L 453.094035 517.32723 
L 453.313588 499.148953 
L 453.533142 421.16558 
L 453.752695 294.649358 
L 453.972248 463.005952 
L 454.191801 449.914186 
L 454.411354 414.857213 
L 454.630907 502.002283 
L 454.85046 529.344859 
L 455.070014 415.864952 
L 455.289567 522.157825 
L 455.50912 539.247946 
L 455.728673 504.931641 
L 455.948226 447.987244 
L 456.387333 526.241179 
L 456.606886 432.105627 
L 456.826439 512.50767 
L 457.265545 251.273806 
L 457.485098 517.628927 
L 457.704651 514.996379 
L 457.924205 484.953197 
L 458.143758 501.737057 
L 458.363311 493.340031 
L 458.582864 540.004431 
L 459.02197 410.404606 
L 459.241524 527.207249 
L 459.461077 513.191378 
L 459.68063 415.643538 
L 459.900183 511.634237 
L 460.119736 420.539105 
L 460.339289 482.528606 
L 460.558842 508.919836 
L 460.778396 465.849349 
L 460.997949 524.903015 
L 461.217502 520.446283 
L 461.437055 478.632634 
L 461.656608 545.598354 
L 461.876161 535.335348 
L 462.095715 477.499299 
L 462.315268 467.487153 
L 462.534821 523.194648 
L 462.754374 458.097372 
L 462.973927 521.837927 
L 463.19348 524.593397 
L 463.413033 469.288049 
L 463.632587 530.920734 
L 463.85214 506.88709 
L 464.071693 403.653582 
L 464.291246 397.463217 
L 464.510799 535.308957 
L 464.730352 420.828197 
L 465.169459 527.741472 
L 465.608565 557.431744 
L 465.828118 559.222094 
L 466.047671 539.96454 
L 466.267224 425.732139 
L 466.486778 500.607393 
L 466.706331 459.859691 
L 466.925884 492.133882 
L 467.145437 476.537479 
L 467.36499 499.204045 
L 467.584543 501.988907 
L 467.804097 523.555659 
L 468.02365 491.038387 
L 468.243203 482.026048 
L 468.462756 388.186591 
L 468.901862 515.028329 
L 469.121415 478.969625 
L 469.340969 504.335383 
L 469.560522 397.293226 
L 469.780075 519.526256 
L 469.999628 503.448985 
L 470.219181 448.461006 
L 470.438734 490.677115 
L 470.877841 444.818169 
L 471.097394 500.705022 
L 471.316947 484.155305 
L 471.5365 491.018531 
L 471.756053 458.533891 
L 471.975606 541.663539 
L 472.19516 498.392613 
L 472.634266 550.064661 
L 473.073372 439.381589 
L 473.292925 536.83525 
L 473.512479 527.042431 
L 473.732032 452.755219 
L 473.951585 495.870253 
L 474.171138 416.54262 
L 474.610244 536.073961 
L 474.829797 469.633088 
L 475.049351 451.451734 
L 475.268904 492.436522 
L 475.488457 478.664515 
L 475.927563 410.848148 
L 476.147116 465.566024 
L 476.366669 467.122974 
L 476.586223 525.940802 
L 476.805776 466.055416 
L 477.025329 477.466239 
L 477.244882 431.47942 
L 477.464435 539.039129 
L 477.683988 533.554618 
L 477.903542 461.721212 
L 478.123095 529.111291 
L 478.342648 521.45184 
L 478.562201 563.911162 
L 478.781754 529.802668 
L 479.001307 520.623931 
L 479.22086 531.893883 
L 479.440414 550.930145 
L 479.659967 444.716086 
L 479.87952 548.405777 
L 480.099073 526.650876 
L 480.318626 528.462717 
L 480.538179 497.100801 
L 480.757733 414.74488 
L 480.977286 444.113951 
L 481.196839 531.533209 
L 481.416392 503.430931 
L 481.635945 493.826385 
L 482.075051 448.134063 
L 482.294605 533.800377 
L 482.514158 482.532411 
L 482.733711 484.342403 
L 482.953264 531.237096 
L 483.172817 389.063916 
L 483.39237 543.529222 
L 483.611924 541.863258 
L 483.831477 472.743954 
L 484.05103 464.909435 
L 484.270583 428.75366 
L 484.490136 440.045388 
L 484.929242 507.884514 
L 485.148796 540.981014 
L 485.368349 468.613621 
L 485.807455 531.277782 
L 486.027008 474.123478 
L 486.246561 541.461791 
L 486.466115 440.418459 
L 486.685668 426.401242 
L 486.905221 464.93284 
L 487.344327 399.583796 
L 487.783433 491.529609 
L 488.002987 482.540585 
L 488.442093 475.608538 
L 488.661646 480.775533 
L 488.881199 465.754892 
L 489.100752 491.261259 
L 489.320306 483.610912 
L 489.539859 453.066058 
L 489.759412 480.999196 
L 489.978965 434.878457 
L 490.198518 505.324024 
L 490.418071 527.08553 
L 490.637624 455.591571 
L 490.857178 524.084318 
L 491.296284 475.715458 
L 491.515837 361.953242 
L 491.73539 551.753435 
L 491.954943 477.786482 
L 492.174497 533.907737 
L 492.39405 412.505043 
L 492.613603 524.896741 
L 492.833156 475.919299 
L 493.272262 525.585586 
L 493.491815 490.552827 
L 493.930922 515.611432 
L 494.150475 362.136261 
L 494.370028 557.279044 
L 494.589581 462.472845 
L 494.809134 546.379814 
L 495.028688 516.442824 
L 495.248241 395.277772 
L 495.467794 447.107077 
L 495.687347 545.386348 
L 495.9069 385.076075 
L 496.346006 538.864955 
L 496.785113 403.991627 
L 497.004666 545.430764 
L 497.224219 529.795281 
L 497.443772 496.041613 
L 497.663325 518.465708 
L 497.882879 465.05275 
L 498.102432 491.939909 
L 498.321985 289.63855 
L 498.541538 507.658394 
L 498.761091 497.546356 
L 498.980644 437.719513 
L 499.200197 531.438015 
L 499.419751 545.702123 
L 499.858857 435.780548 
L 500.07841 525.119903 
L 500.297963 557.99656 
L 500.517516 471.139357 
L 500.73707 498.356742 
L 500.956623 340.371861 
L 501.176176 294.566611 
L 501.395729 435.428662 
L 501.615282 449.765234 
L 501.834835 511.635627 
L 502.054388 432.38457 
L 502.273942 417.113437 
L 502.713048 543.87806 
L 502.932601 513.968028 
L 503.152154 406.504481 
L 503.371707 535.834342 
L 503.59126 548.023862 
L 504.030367 504.24289 
L 504.24992 434.455889 
L 504.469473 520.209638 
L 504.689026 364.612616 
L 504.908579 495.201052 
L 505.128133 553.994716 
L 505.347686 462.726863 
L 505.567239 542.355979 
L 505.786792 484.223071 
L 506.006345 455.858102 
L 506.225898 395.460623 
L 506.445451 484.467556 
L 506.665005 464.230618 
L 506.884558 390.850733 
L 507.104111 489.778909 
L 507.323664 520.661982 
L 507.76277 468.417231 
L 507.982324 469.515993 
L 508.201877 492.420316 
L 508.640983 405.269358 
L 508.860536 503.772498 
L 509.080089 498.969313 
L 509.299642 528.659191 
L 509.519196 476.249836 
L 509.738749 515.08242 
L 509.958302 485.752671 
L 510.177855 518.293971 
L 510.397408 422.765147 
L 510.616961 413.698366 
L 510.836515 555.707386 
L 511.056068 482.148656 
L 511.275621 484.726038 
L 511.714727 343.027196 
L 511.93428 479.113539 
L 512.153833 536.387345 
L 512.373387 452.781884 
L 512.59294 469.133201 
L 512.812493 440.557364 
L 513.032046 500.027671 
L 513.251599 524.513025 
L 513.471152 368.042039 
L 513.690706 537.908871 
L 513.910259 482.092653 
L 514.129812 531.6404 
L 514.568918 429.202267 
L 514.788471 448.896648 
L 515.227578 545.83539 
L 515.447131 515.866229 
L 515.666684 249.64649 
L 515.886237 491.007119 
L 516.10579 522.999233 
L 516.325343 357.663181 
L 516.544897 550.630894 
L 516.76445 483.203116 
L 516.984003 555.879444 
L 517.203556 487.714077 
L 517.423109 525.367083 
L 517.642662 438.989775 
L 517.862215 516.725392 
L 518.081769 549.309866 
L 518.301322 495.603183 
L 518.520875 475.39595 
L 518.740428 512.633638 
L 518.959981 453.220221 
L 519.179534 505.552688 
L 519.399088 455.428684 
L 519.618641 470.459983 
L 519.838194 512.264931 
L 520.057747 480.502417 
L 520.2773 482.595063 
L 520.496853 528.046999 
L 520.716406 548.180193 
L 520.93596 454.282528 
L 521.155513 414.2662 
L 521.375066 497.339959 
L 521.594619 350.816683 
L 521.814172 506.750461 
L 522.033725 442.041929 
L 522.472832 527.517875 
L 522.692385 507.072694 
L 523.131491 435.28215 
L 523.351044 483.843961 
L 523.570597 472.527323 
L 523.790151 554.740147 
L 524.009704 555.099521 
L 524.229257 484.860036 
L 524.44881 525.283291 
L 524.668363 440.784504 
L 524.887916 423.88322 
L 525.10747 275.858992 
L 525.327023 514.925562 
L 525.546576 576.367408 
L 525.985682 406.087995 
L 526.205235 457.03436 
L 526.424788 481.066765 
L 526.644342 466.474423 
L 526.863895 508.539634 
L 527.083448 410.538957 
L 527.303001 523.571305 
L 527.522554 468.535034 
L 527.742107 493.603066 
L 527.96166 557.460115 
L 528.181214 482.52698 
L 528.400767 511.441773 
L 528.62032 488.694111 
L 528.839873 478.093695 
L 529.059426 539.841223 
L 529.278979 390.107635 
L 529.498533 552.086048 
L 529.718086 477.85132 
L 529.937639 534.605651 
L 530.157192 495.312702 
L 530.376745 494.225593 
L 530.596298 527.843979 
L 530.815851 487.502811 
L 531.035405 537.628061 
L 531.474511 449.397738 
L 531.694064 430.132198 
L 531.913617 485.653964 
L 532.352724 518.394892 
L 532.572277 509.880315 
L 532.79183 539.761453 
L 533.011383 391.027471 
L 533.230936 481.335404 
L 533.450489 495.695455 
L 533.670042 453.003138 
L 533.889596 513.1459 
L 534.328702 552.751551 
L 534.548255 503.512652 
L 534.987361 504.736873 
L 535.206915 533.50241 
L 535.426468 511.950463 
L 535.646021 563.068851 
L 535.865574 520.3247 
L 536.085127 440.234836 
L 536.30468 562.556942 
L 536.524233 520.94603 
L 536.743787 537.59203 
L 536.96334 478.111886 
L 537.182893 539.491381 
L 537.402446 463.600807 
L 537.621999 543.583883 
L 537.841552 489.925876 
L 538.061106 485.519533 
L 538.280659 548.566808 
L 538.500212 429.185615 
L 538.719765 511.118708 
L 538.939318 524.118788 
L 539.158871 459.542928 
L 539.378424 555.418095 
L 539.597978 453.90315 
L 539.817531 530.60981 
L 540.037084 458.471306 
L 540.256637 436.723197 
L 540.695743 499.977119 
L 540.915297 441.792378 
L 541.354403 483.516491 
L 541.573956 450.283256 
L 541.793509 486.22038 
L 542.013062 386.063574 
L 542.452169 557.501197 
L 542.671722 513.403328 
L 542.891275 494.832271 
L 543.110828 486.939032 
L 543.330381 559.106374 
L 543.549934 466.490288 
L 543.769488 533.117531 
L 543.989041 535.532876 
L 544.428147 493.076476 
L 544.6477 521.029676 
L 544.867253 516.177253 
L 545.086806 532.534773 
L 545.30636 560.134201 
L 545.525913 263.981758 
L 545.745466 513.187595 
L 545.745466 513.187595 
" style="fill:none;stroke:#96c69a;stroke-linecap:round;stroke-width:3;"/>
   </g>
   <g id="line2d_2"/>
   <g id="patch_3">
    <path d="M 84.914375 603.86 
L 84.914375 109.484571 
" style="fill:none;stroke:#262626;stroke-linecap:square;stroke-linejoin:miter;stroke-width:2.5;"/>
   </g>
   <g id="patch_4">
    <path d="M 84.914375 603.86 
L 567.689804 603.86 
" style="fill:none;stroke:#262626;stroke-linecap:square;stroke-linejoin:miter;stroke-width:2.5;"/>
   </g>
   <g id="legend_1">
    <g id="patch_5">
     <path d="M 514.774179 598.86 
L 560.689804 598.86 
Q 562.689804 598.86 562.689804 596.86 
L 562.689804 554.954375 
Q 562.689804 552.954375 560.689804 552.954375 
L 514.774179 552.954375 
Q 512.774179 552.954375 512.774179 554.954375 
L 512.774179 596.86 
Q 512.774179 598.86 514.774179 598.86 
z
" style="fill:#ffffff;opacity:0.8;stroke:#cccccc;stroke-linejoin:miter;stroke-width:2;"/>
    </g>
    <g id="text_15">
     <!-- $n_\tau$ -->
     <g style="fill:#262626;" transform="translate(524.651991 575.190625)scale(0.24 -0.24)">
      <defs>
       <path d="M 3566 2113 
L 3156 0 
L 2578 0 
L 2988 2091 
Q 3016 2238 3031 2350 
Q 3047 2463 3047 2528 
Q 3047 2791 2881 2937 
Q 2716 3084 2419 3084 
Q 1956 3084 1622 2776 
Q 1288 2469 1184 1941 
L 800 0 
L 225 0 
L 903 3500 
L 1478 3500 
L 1363 2950 
Q 1603 3253 1940 3418 
Q 2278 3584 2650 3584 
Q 3113 3584 3367 3334 
Q 3622 3084 3622 2631 
Q 3622 2519 3608 2391 
Q 3594 2263 3566 2113 
z
" id="DejaVuSans-Oblique-6e" transform="scale(0.015625)"/>
       <path d="M 2103 638 
Q 2188 488 2525 488 
L 2800 488 
L 2706 0 
L 2363 0 
Q 1800 0 1600 300 
Q 1403 606 1534 1269 
L 1856 2925 
L 541 2925 
L 653 3500 
L 3881 3500 
L 3769 2925 
L 2444 2925 
L 2113 1234 
Q 2025 781 2103 638 
z
" id="DejaVuSans-Oblique-3c4" transform="scale(0.015625)"/>
      </defs>
      <use xlink:href="#DejaVuSans-Oblique-6e"/>
      <use transform="translate(63.378906 -16.40625)scale(0.7)" xlink:href="#DejaVuSans-Oblique-3c4"/>
     </g>
    </g>
    <g id="line2d_3">
     <path d="M 516.774179 589.280313 
L 536.774179 589.280313 
" style="fill:none;stroke:#96c69a;stroke-linecap:round;stroke-width:3;"/>
    </g>
    <g id="line2d_4"/>
    <g id="text_16">
     <!-- 80 -->
     <g style="fill:#262626;" transform="translate(544.774179 592.780313)scale(0.1 -0.1)">
      <defs>
       <path d="M 2228 2088 
Q 1891 2088 1709 1903 
Q 1528 1719 1528 1375 
Q 1528 1031 1709 848 
Q 1891 666 2228 666 
Q 2563 666 2741 848 
Q 2919 1031 2919 1375 
Q 2919 1722 2741 1905 
Q 2563 2088 2228 2088 
z
M 1350 2484 
Q 925 2613 709 2878 
Q 494 3144 494 3541 
Q 494 4131 934 4440 
Q 1375 4750 2228 4750 
Q 3075 4750 3515 4442 
Q 3956 4134 3956 3541 
Q 3956 3144 3739 2878 
Q 3522 2613 3097 2484 
Q 3572 2353 3814 2058 
Q 4056 1763 4056 1313 
Q 4056 619 3595 264 
Q 3134 -91 2228 -91 
Q 1319 -91 855 264 
Q 391 619 391 1313 
Q 391 1763 633 2058 
Q 875 2353 1350 2484 
z
M 1631 3419 
Q 1631 3141 1786 2991 
Q 1941 2841 2228 2841 
Q 2509 2841 2662 2991 
Q 2816 3141 2816 3419 
Q 2816 3697 2662 3845 
Q 2509 3994 2228 3994 
Q 1941 3994 1786 3844 
Q 1631 3694 1631 3419 
z
" id="DejaVuSans-Bold-38" transform="scale(0.015625)"/>
       <path d="M 2944 2338 
Q 2944 3213 2780 3570 
Q 2616 3928 2228 3928 
Q 1841 3928 1675 3570 
Q 1509 3213 1509 2338 
Q 1509 1453 1675 1090 
Q 1841 728 2228 728 
Q 2613 728 2778 1090 
Q 2944 1453 2944 2338 
z
M 4147 2328 
Q 4147 1169 3647 539 
Q 3147 -91 2228 -91 
Q 1306 -91 806 539 
Q 306 1169 306 2328 
Q 306 3491 806 4120 
Q 1306 4750 2228 4750 
Q 3147 4750 3647 4120 
Q 4147 3491 4147 2328 
z
" id="DejaVuSans-Bold-30" transform="scale(0.015625)"/>
      </defs>
      <use xlink:href="#DejaVuSans-Bold-38"/>
      <use x="69.580078" xlink:href="#DejaVuSans-Bold-30"/>
     </g>
    </g>
   </g>
  </g>
  <g id="axes_2">
   <g id="patch_6">
    <path d="M 84.914375 92.437143 
L 567.689804 92.437143 
L 567.689804 7.2 
L 84.914375 7.2 
z
" style="fill:none;"/>
   </g>
   <g id="matplotlib.axis_3">
    <g id="xtick_7"/>
    <g id="xtick_8"/>
    <g id="xtick_9"/>
    <g id="xtick_10"/>
    <g id="xtick_11"/>
    <g id="xtick_12"/>
   </g>
   <g id="matplotlib.axis_4">
    <g id="ytick_7">
     <g id="text_17">
      <!-- 0 -->
      <g style="fill:#262626;" transform="translate(55.416875 100.795424)scale(0.22 -0.22)">
       <use xlink:href="#DejaVuSans-30"/>
      </g>
     </g>
    </g>
    <g id="ytick_8">
     <g id="text_18">
      <!-- 100 -->
      <g style="fill:#262626;" transform="translate(27.421875 48.082287)scale(0.22 -0.22)">
       <use xlink:href="#DejaVuSans-31"/>
       <use x="63.623047" xlink:href="#DejaVuSans-30"/>
       <use x="127.246094" xlink:href="#DejaVuSans-30"/>
      </g>
     </g>
    </g>
   </g>
   <g id="patch_7">
    <path clip-path="url(#p1c1bddf3ef)" d="M 106.858713 92.437143 
L 140.619232 92.437143 
L 140.619232 11.258912 
L 106.858713 11.258912 
z
" style="fill:#96c69a;fill-opacity:0.5;stroke:#ffffff;stroke-linejoin:miter;stroke-width:2;"/>
   </g>
   <g id="patch_8">
    <path clip-path="url(#p1c1bddf3ef)" d="M 140.619232 92.437143 
L 174.379752 92.437143 
L 174.379752 11.258912 
L 140.619232 11.258912 
z
" style="fill:#96c69a;fill-opacity:0.5;stroke:#ffffff;stroke-linejoin:miter;stroke-width:2;"/>
   </g>
   <g id="patch_9">
    <path clip-path="url(#p1c1bddf3ef)" d="M 174.379752 92.437143 
L 208.140271 92.437143 
L 208.140271 11.258912 
L 174.379752 11.258912 
z
" style="fill:#96c69a;fill-opacity:0.5;stroke:#ffffff;stroke-linejoin:miter;stroke-width:2;"/>
   </g>
   <g id="patch_10">
    <path clip-path="url(#p1c1bddf3ef)" d="M 208.140271 92.437143 
L 241.900791 92.437143 
L 241.900791 11.258912 
L 208.140271 11.258912 
z
" style="fill:#96c69a;fill-opacity:0.5;stroke:#ffffff;stroke-linejoin:miter;stroke-width:2;"/>
   </g>
   <g id="patch_11">
    <path clip-path="url(#p1c1bddf3ef)" d="M 241.900791 92.437143 
L 275.66131 92.437143 
L 275.66131 11.786043 
L 241.900791 11.786043 
z
" style="fill:#96c69a;fill-opacity:0.5;stroke:#ffffff;stroke-linejoin:miter;stroke-width:2;"/>
   </g>
   <g id="patch_12">
    <path clip-path="url(#p1c1bddf3ef)" d="M 275.66131 92.437143 
L 309.42183 92.437143 
L 309.42183 11.258912 
L 275.66131 11.258912 
z
" style="fill:#96c69a;fill-opacity:0.5;stroke:#ffffff;stroke-linejoin:miter;stroke-width:2;"/>
   </g>
   <g id="patch_13">
    <path clip-path="url(#p1c1bddf3ef)" d="M 309.42183 92.437143 
L 343.182349 92.437143 
L 343.182349 11.258912 
L 309.42183 11.258912 
z
" style="fill:#96c69a;fill-opacity:0.5;stroke:#ffffff;stroke-linejoin:miter;stroke-width:2;"/>
   </g>
   <g id="patch_14">
    <path clip-path="url(#p1c1bddf3ef)" d="M 343.182349 92.437143 
L 376.942869 92.437143 
L 376.942869 11.258912 
L 343.182349 11.258912 
z
" style="fill:#96c69a;fill-opacity:0.5;stroke:#ffffff;stroke-linejoin:miter;stroke-width:2;"/>
   </g>
   <g id="patch_15">
    <path clip-path="url(#p1c1bddf3ef)" d="M 376.942869 92.437143 
L 410.703388 92.437143 
L 410.703388 11.786043 
L 376.942869 11.786043 
z
" style="fill:#96c69a;fill-opacity:0.5;stroke:#ffffff;stroke-linejoin:miter;stroke-width:2;"/>
   </g>
   <g id="patch_16">
    <path clip-path="url(#p1c1bddf3ef)" d="M 410.703388 92.437143 
L 444.463907 92.437143 
L 444.463907 11.258912 
L 410.703388 11.258912 
z
" style="fill:#96c69a;fill-opacity:0.5;stroke:#ffffff;stroke-linejoin:miter;stroke-width:2;"/>
   </g>
   <g id="patch_17">
    <path clip-path="url(#p1c1bddf3ef)" d="M 444.463907 92.437143 
L 478.224427 92.437143 
L 478.224427 11.258912 
L 444.463907 11.258912 
z
" style="fill:#96c69a;fill-opacity:0.5;stroke:#ffffff;stroke-linejoin:miter;stroke-width:2;"/>
   </g>
   <g id="patch_18">
    <path clip-path="url(#p1c1bddf3ef)" d="M 478.224427 92.437143 
L 511.984946 92.437143 
L 511.984946 11.258912 
L 478.224427 11.258912 
z
" style="fill:#96c69a;fill-opacity:0.5;stroke:#ffffff;stroke-linejoin:miter;stroke-width:2;"/>
   </g>
   <g id="patch_19">
    <path clip-path="url(#p1c1bddf3ef)" d="M 511.984946 92.437143 
L 545.745466 92.437143 
L 545.745466 11.258912 
L 511.984946 11.258912 
z
" style="fill:#96c69a;fill-opacity:0.5;stroke:#ffffff;stroke-linejoin:miter;stroke-width:2;"/>
   </g>
   <g id="patch_20">
    <path d="M 84.914375 92.437143 
L 84.914375 7.2 
" style="fill:none;stroke:#262626;stroke-linecap:square;stroke-linejoin:miter;stroke-width:2.5;"/>
   </g>
   <g id="patch_21">
    <path d="M 84.914375 92.437143 
L 567.689804 92.437143 
" style="fill:none;stroke:#262626;stroke-linecap:square;stroke-linejoin:miter;stroke-width:2.5;"/>
   </g>
  </g>
  <g id="axes_3">
   <g id="patch_22">
    <path d="M 584.337232 603.86 
L 667.574375 603.86 
L 667.574375 109.484571 
L 584.337232 109.484571 
z
" style="fill:none;"/>
   </g>
   <g id="matplotlib.axis_5">
    <g id="xtick_13">
     <g id="text_19">
      <!-- 0 -->
      <g style="fill:#262626;" transform="translate(577.338482 636.076563)scale(0.22 -0.22)">
       <use xlink:href="#DejaVuSans-30"/>
      </g>
     </g>
    </g>
    <g id="xtick_14">
     <g id="text_20">
      <!-- 200 -->
      <g style="fill:#262626;" transform="translate(646.349851 636.076563)scale(0.22 -0.22)">
       <use xlink:href="#DejaVuSans-32"/>
       <use x="63.623047" xlink:href="#DejaVuSans-30"/>
       <use x="127.246094" xlink:href="#DejaVuSans-30"/>
      </g>
     </g>
    </g>
   </g>
   <g id="matplotlib.axis_6">
    <g id="ytick_9"/>
    <g id="ytick_10"/>
    <g id="ytick_11"/>
    <g id="ytick_12"/>
    <g id="ytick_13"/>
    <g id="ytick_14"/>
   </g>
   <g id="patch_23">
    <path clip-path="url(#p9466e4d543)" d="M 584.337232 581.38839 
L 585.99741 581.38839 
L 585.99741 571.401007 
L 584.337232 571.401007 
z
" style="fill:#96c69a;fill-opacity:0.5;stroke:#ffffff;stroke-linejoin:miter;stroke-width:0.998738;"/>
   </g>
   <g id="patch_24">
    <path clip-path="url(#p9466e4d543)" d="M 584.337232 571.401007 
L 590.977942 571.401007 
L 590.977942 561.413625 
L 584.337232 561.413625 
z
" style="fill:#96c69a;fill-opacity:0.5;stroke:#ffffff;stroke-linejoin:miter;stroke-width:0.998738;"/>
   </g>
   <g id="patch_25">
    <path clip-path="url(#p9466e4d543)" d="M 584.337232 561.413625 
L 606.749627 561.413625 
L 606.749627 551.426242 
L 584.337232 551.426242 
z
" style="fill:#96c69a;fill-opacity:0.5;stroke:#ffffff;stroke-linejoin:miter;stroke-width:0.998738;"/>
   </g>
   <g id="patch_26">
    <path clip-path="url(#p9466e4d543)" d="M 584.337232 551.426242 
L 627.501844 551.426242 
L 627.501844 541.43886 
L 584.337232 541.43886 
z
" style="fill:#96c69a;fill-opacity:0.5;stroke:#ffffff;stroke-linejoin:miter;stroke-width:0.998738;"/>
   </g>
   <g id="patch_27">
    <path clip-path="url(#p9466e4d543)" d="M 584.337232 541.43886 
L 642.858484 541.43886 
L 642.858484 531.451478 
L 584.337232 531.451478 
z
" style="fill:#96c69a;fill-opacity:0.5;stroke:#ffffff;stroke-linejoin:miter;stroke-width:0.998738;"/>
   </g>
   <g id="patch_28">
    <path clip-path="url(#p9466e4d543)" d="M 584.337232 531.451478 
L 663.610702 531.451478 
L 663.610702 521.464095 
L 584.337232 521.464095 
z
" style="fill:#96c69a;fill-opacity:0.5;stroke:#ffffff;stroke-linejoin:miter;stroke-width:0.998738;"/>
   </g>
   <g id="patch_29">
    <path clip-path="url(#p9466e4d543)" d="M 584.337232 521.464095 
L 653.649637 521.464095 
L 653.649637 511.476713 
L 584.337232 511.476713 
z
" style="fill:#96c69a;fill-opacity:0.5;stroke:#ffffff;stroke-linejoin:miter;stroke-width:0.998738;"/>
   </g>
   <g id="patch_30">
    <path clip-path="url(#p9466e4d543)" d="M 584.337232 511.476713 
L 650.329283 511.476713 
L 650.329283 501.48933 
L 584.337232 501.48933 
z
" style="fill:#96c69a;fill-opacity:0.5;stroke:#ffffff;stroke-linejoin:miter;stroke-width:0.998738;"/>
   </g>
   <g id="patch_31">
    <path clip-path="url(#p9466e4d543)" d="M 584.337232 501.48933 
L 660.290347 501.48933 
L 660.290347 491.501948 
L 584.337232 491.501948 
z
" style="fill:#96c69a;fill-opacity:0.5;stroke:#ffffff;stroke-linejoin:miter;stroke-width:0.998738;"/>
   </g>
   <g id="patch_32">
    <path clip-path="url(#p9466e4d543)" d="M 584.337232 491.501948 
L 647.839017 491.501948 
L 647.839017 481.514566 
L 584.337232 481.514566 
z
" style="fill:#96c69a;fill-opacity:0.5;stroke:#ffffff;stroke-linejoin:miter;stroke-width:0.998738;"/>
   </g>
   <g id="patch_33">
    <path clip-path="url(#p9466e4d543)" d="M 584.337232 481.514566 
L 647.008928 481.514566 
L 647.008928 471.527183 
L 584.337232 471.527183 
z
" style="fill:#96c69a;fill-opacity:0.5;stroke:#ffffff;stroke-linejoin:miter;stroke-width:0.998738;"/>
   </g>
   <g id="patch_34">
    <path clip-path="url(#p9466e4d543)" d="M 584.337232 471.527183 
L 642.028396 471.527183 
L 642.028396 461.539801 
L 584.337232 461.539801 
z
" style="fill:#96c69a;fill-opacity:0.5;stroke:#ffffff;stroke-linejoin:miter;stroke-width:0.998738;"/>
   </g>
   <g id="patch_35">
    <path clip-path="url(#p9466e4d543)" d="M 584.337232 461.539801 
L 624.596533 461.539801 
L 624.596533 451.552418 
L 584.337232 451.552418 
z
" style="fill:#96c69a;fill-opacity:0.5;stroke:#ffffff;stroke-linejoin:miter;stroke-width:0.998738;"/>
   </g>
   <g id="patch_36">
    <path clip-path="url(#p9466e4d543)" d="M 584.337232 451.552418 
L 622.106267 451.552418 
L 622.106267 441.565036 
L 584.337232 441.565036 
z
" style="fill:#96c69a;fill-opacity:0.5;stroke:#ffffff;stroke-linejoin:miter;stroke-width:0.998738;"/>
   </g>
   <g id="patch_37">
    <path clip-path="url(#p9466e4d543)" d="M 584.337232 441.565036 
L 612.145203 441.565036 
L 612.145203 431.577654 
L 584.337232 431.577654 
z
" style="fill:#96c69a;fill-opacity:0.5;stroke:#ffffff;stroke-linejoin:miter;stroke-width:0.998738;"/>
   </g>
   <g id="patch_38">
    <path clip-path="url(#p9466e4d543)" d="M 584.337232 431.577654 
L 609.654937 431.577654 
L 609.654937 421.590271 
L 584.337232 421.590271 
z
" style="fill:#96c69a;fill-opacity:0.5;stroke:#ffffff;stroke-linejoin:miter;stroke-width:0.998738;"/>
   </g>
   <g id="patch_39">
    <path clip-path="url(#p9466e4d543)" d="M 584.337232 421.590271 
L 604.259361 421.590271 
L 604.259361 411.602889 
L 584.337232 411.602889 
z
" style="fill:#96c69a;fill-opacity:0.5;stroke:#ffffff;stroke-linejoin:miter;stroke-width:0.998738;"/>
   </g>
   <g id="patch_40">
    <path clip-path="url(#p9466e4d543)" d="M 584.337232 411.602889 
L 600.108917 411.602889 
L 600.108917 401.615506 
L 584.337232 401.615506 
z
" style="fill:#96c69a;fill-opacity:0.5;stroke:#ffffff;stroke-linejoin:miter;stroke-width:0.998738;"/>
   </g>
   <g id="patch_41">
    <path clip-path="url(#p9466e4d543)" d="M 584.337232 401.615506 
L 595.128385 401.615506 
L 595.128385 391.628124 
L 584.337232 391.628124 
z
" style="fill:#96c69a;fill-opacity:0.5;stroke:#ffffff;stroke-linejoin:miter;stroke-width:0.998738;"/>
   </g>
   <g id="patch_42">
    <path clip-path="url(#p9466e4d543)" d="M 584.337232 391.628124 
L 598.863784 391.628124 
L 598.863784 381.640742 
L 584.337232 381.640742 
z
" style="fill:#96c69a;fill-opacity:0.5;stroke:#ffffff;stroke-linejoin:miter;stroke-width:0.998738;"/>
   </g>
   <g id="patch_43">
    <path clip-path="url(#p9466e4d543)" d="M 584.337232 381.640742 
L 589.317764 381.640742 
L 589.317764 371.653359 
L 584.337232 371.653359 
z
" style="fill:#96c69a;fill-opacity:0.5;stroke:#ffffff;stroke-linejoin:miter;stroke-width:0.998738;"/>
   </g>
   <g id="patch_44">
    <path clip-path="url(#p9466e4d543)" d="M 584.337232 371.653359 
L 590.147853 371.653359 
L 590.147853 361.665977 
L 584.337232 361.665977 
z
" style="fill:#96c69a;fill-opacity:0.5;stroke:#ffffff;stroke-linejoin:miter;stroke-width:0.998738;"/>
   </g>
   <g id="patch_45">
    <path clip-path="url(#p9466e4d543)" d="M 584.337232 361.665977 
L 589.317764 361.665977 
L 589.317764 351.678595 
L 584.337232 351.678595 
z
" style="fill:#96c69a;fill-opacity:0.5;stroke:#ffffff;stroke-linejoin:miter;stroke-width:0.998738;"/>
   </g>
   <g id="patch_46">
    <path clip-path="url(#p9466e4d543)" d="M 584.337232 351.678595 
L 589.317764 351.678595 
L 589.317764 341.691212 
L 584.337232 341.691212 
z
" style="fill:#96c69a;fill-opacity:0.5;stroke:#ffffff;stroke-linejoin:miter;stroke-width:0.998738;"/>
   </g>
   <g id="patch_47">
    <path clip-path="url(#p9466e4d543)" d="M 584.337232 341.691212 
L 586.412454 341.691212 
L 586.412454 331.70383 
L 584.337232 331.70383 
z
" style="fill:#96c69a;fill-opacity:0.5;stroke:#ffffff;stroke-linejoin:miter;stroke-width:0.998738;"/>
   </g>
   <g id="patch_48">
    <path clip-path="url(#p9466e4d543)" d="M 584.337232 331.70383 
L 584.337232 331.70383 
L 584.337232 321.716447 
L 584.337232 321.716447 
z
" style="fill:#96c69a;fill-opacity:0.5;stroke:#ffffff;stroke-linejoin:miter;stroke-width:0.998738;"/>
   </g>
   <g id="patch_49">
    <path clip-path="url(#p9466e4d543)" d="M 584.337232 321.716447 
L 586.412454 321.716447 
L 586.412454 311.729065 
L 584.337232 311.729065 
z
" style="fill:#96c69a;fill-opacity:0.5;stroke:#ffffff;stroke-linejoin:miter;stroke-width:0.998738;"/>
   </g>
   <g id="patch_50">
    <path clip-path="url(#p9466e4d543)" d="M 584.337232 311.729065 
L 585.582365 311.729065 
L 585.582365 301.741683 
L 584.337232 301.741683 
z
" style="fill:#96c69a;fill-opacity:0.5;stroke:#ffffff;stroke-linejoin:miter;stroke-width:0.998738;"/>
   </g>
   <g id="patch_51">
    <path clip-path="url(#p9466e4d543)" d="M 584.337232 301.741683 
L 585.167321 301.741683 
L 585.167321 291.7543 
L 584.337232 291.7543 
z
" style="fill:#96c69a;fill-opacity:0.5;stroke:#ffffff;stroke-linejoin:miter;stroke-width:0.998738;"/>
   </g>
   <g id="patch_52">
    <path clip-path="url(#p9466e4d543)" d="M 584.337232 291.7543 
L 585.99741 291.7543 
L 585.99741 281.766918 
L 584.337232 281.766918 
z
" style="fill:#96c69a;fill-opacity:0.5;stroke:#ffffff;stroke-linejoin:miter;stroke-width:0.998738;"/>
   </g>
   <g id="patch_53">
    <path clip-path="url(#p9466e4d543)" d="M 584.337232 281.766918 
L 585.167321 281.766918 
L 585.167321 271.779535 
L 584.337232 271.779535 
z
" style="fill:#96c69a;fill-opacity:0.5;stroke:#ffffff;stroke-linejoin:miter;stroke-width:0.998738;"/>
   </g>
   <g id="patch_54">
    <path clip-path="url(#p9466e4d543)" d="M 584.337232 271.779535 
L 584.752276 271.779535 
L 584.752276 261.792153 
L 584.337232 261.792153 
z
" style="fill:#96c69a;fill-opacity:0.5;stroke:#ffffff;stroke-linejoin:miter;stroke-width:0.998738;"/>
   </g>
   <g id="patch_55">
    <path clip-path="url(#p9466e4d543)" d="M 584.337232 261.792153 
L 584.337232 261.792153 
L 584.337232 251.804771 
L 584.337232 251.804771 
z
" style="fill:#96c69a;fill-opacity:0.5;stroke:#ffffff;stroke-linejoin:miter;stroke-width:0.998738;"/>
   </g>
   <g id="patch_56">
    <path clip-path="url(#p9466e4d543)" d="M 584.337232 251.804771 
L 585.167321 251.804771 
L 585.167321 241.817388 
L 584.337232 241.817388 
z
" style="fill:#96c69a;fill-opacity:0.5;stroke:#ffffff;stroke-linejoin:miter;stroke-width:0.998738;"/>
   </g>
   <g id="patch_57">
    <path clip-path="url(#p9466e4d543)" d="M 584.337232 241.817388 
L 584.337232 241.817388 
L 584.337232 231.830006 
L 584.337232 231.830006 
z
" style="fill:#96c69a;fill-opacity:0.5;stroke:#ffffff;stroke-linejoin:miter;stroke-width:0.998738;"/>
   </g>
   <g id="patch_58">
    <path clip-path="url(#p9466e4d543)" d="M 584.337232 231.830006 
L 584.337232 231.830006 
L 584.337232 221.842623 
L 584.337232 221.842623 
z
" style="fill:#96c69a;fill-opacity:0.5;stroke:#ffffff;stroke-linejoin:miter;stroke-width:0.998738;"/>
   </g>
   <g id="patch_59">
    <path clip-path="url(#p9466e4d543)" d="M 584.337232 221.842623 
L 584.337232 221.842623 
L 584.337232 211.855241 
L 584.337232 211.855241 
z
" style="fill:#96c69a;fill-opacity:0.5;stroke:#ffffff;stroke-linejoin:miter;stroke-width:0.998738;"/>
   </g>
   <g id="patch_60">
    <path clip-path="url(#p9466e4d543)" d="M 584.337232 211.855241 
L 584.337232 211.855241 
L 584.337232 201.867859 
L 584.337232 201.867859 
z
" style="fill:#96c69a;fill-opacity:0.5;stroke:#ffffff;stroke-linejoin:miter;stroke-width:0.998738;"/>
   </g>
   <g id="patch_61">
    <path clip-path="url(#p9466e4d543)" d="M 584.337232 201.867859 
L 584.337232 201.867859 
L 584.337232 191.880476 
L 584.337232 191.880476 
z
" style="fill:#96c69a;fill-opacity:0.5;stroke:#ffffff;stroke-linejoin:miter;stroke-width:0.998738;"/>
   </g>
   <g id="patch_62">
    <path clip-path="url(#p9466e4d543)" d="M 584.337232 191.880476 
L 584.337232 191.880476 
L 584.337232 181.893094 
L 584.337232 181.893094 
z
" style="fill:#96c69a;fill-opacity:0.5;stroke:#ffffff;stroke-linejoin:miter;stroke-width:0.998738;"/>
   </g>
   <g id="patch_63">
    <path clip-path="url(#p9466e4d543)" d="M 584.337232 181.893094 
L 584.337232 181.893094 
L 584.337232 171.905711 
L 584.337232 171.905711 
z
" style="fill:#96c69a;fill-opacity:0.5;stroke:#ffffff;stroke-linejoin:miter;stroke-width:0.998738;"/>
   </g>
   <g id="patch_64">
    <path clip-path="url(#p9466e4d543)" d="M 584.337232 171.905711 
L 584.337232 171.905711 
L 584.337232 161.918329 
L 584.337232 161.918329 
z
" style="fill:#96c69a;fill-opacity:0.5;stroke:#ffffff;stroke-linejoin:miter;stroke-width:0.998738;"/>
   </g>
   <g id="patch_65">
    <path clip-path="url(#p9466e4d543)" d="M 584.337232 161.918329 
L 584.337232 161.918329 
L 584.337232 151.930947 
L 584.337232 151.930947 
z
" style="fill:#96c69a;fill-opacity:0.5;stroke:#ffffff;stroke-linejoin:miter;stroke-width:0.998738;"/>
   </g>
   <g id="patch_66">
    <path clip-path="url(#p9466e4d543)" d="M 584.337232 151.930947 
L 584.337232 151.930947 
L 584.337232 141.943564 
L 584.337232 141.943564 
z
" style="fill:#96c69a;fill-opacity:0.5;stroke:#ffffff;stroke-linejoin:miter;stroke-width:0.998738;"/>
   </g>
   <g id="patch_67">
    <path clip-path="url(#p9466e4d543)" d="M 584.337232 141.943564 
L 584.752276 141.943564 
L 584.752276 131.956182 
L 584.337232 131.956182 
z
" style="fill:#96c69a;fill-opacity:0.5;stroke:#ffffff;stroke-linejoin:miter;stroke-width:0.998738;"/>
   </g>
   <g id="patch_68">
    <path d="M 584.337232 603.86 
L 584.337232 109.484571 
" style="fill:none;stroke:#262626;stroke-linecap:square;stroke-linejoin:miter;stroke-width:2.5;"/>
   </g>
   <g id="patch_69">
    <path d="M 584.337232 603.86 
L 667.574375 603.86 
" style="fill:none;stroke:#262626;stroke-linecap:square;stroke-linejoin:miter;stroke-width:2.5;"/>
   </g>
  </g>
 </g>
 <defs>
  <clipPath id="p1d5532ff21">
   <rect height="494.375429" width="482.775429" x="84.914375" y="109.484571"/>
  </clipPath>
  <clipPath id="p1c1bddf3ef">
   <rect height="85.237143" width="482.775429" x="84.914375" y="7.2"/>
  </clipPath>
  <clipPath id="p9466e4d543">
   <rect height="494.375429" width="83.237143" x="584.337232" y="109.484571"/>
  </clipPath>
 </defs>
</svg>
