<?xml version="1.0" encoding="utf-8" standalone="no"?>
<!DOCTYPE svg PUBLIC "-//W3C//DTD SVG 1.1//EN"
  "http://www.w3.org/Graphics/SVG/1.1/DTD/svg11.dtd">
<svg height="675.079375pt" version="1.1" viewBox="0 0 688.771875 675.079375" width="688.771875pt" xmlns="http://www.w3.org/2000/svg" xmlns:xlink="http://www.w3.org/1999/xlink">
 <metadata>
  <rdf:RDF xmlns:cc="http://creativecommons.org/ns#" xmlns:dc="http://purl.org/dc/elements/1.1/" xmlns:rdf="http://www.w3.org/1999/02/22-rdf-syntax-ns#">
   <cc:Work>
    <dc:type rdf:resource="http://purl.org/dc/dcmitype/StillImage"/>
    <dc:date>2021-07-16T21:44:05.171134</dc:date>
    <dc:format>image/svg+xml</dc:format>
    <dc:creator>
     <cc:Agent>
      <dc:title>Matplotlib v3.4.2, https://matplotlib.org/</dc:title>
     </cc:Agent>
    </dc:creator>
   </cc:Work>
  </rdf:RDF>
 </metadata>
 <defs>
  <style type="text/css">*{stroke-linecap:butt;stroke-linejoin:round;}</style>
 </defs>
 <g id="figure_1">
  <g id="patch_1">
   <path d="M 0 675.079375 
L 688.771875 675.079375 
L 688.771875 0 
L 0 0 
z
" style="fill:#ffffff;"/>
  </g>
  <g id="axes_1">
   <g id="patch_2">
    <path d="M 98.911875 603.86 
L 581.687304 603.86 
L 581.687304 109.484571 
L 98.911875 109.484571 
z
" style="fill:none;"/>
   </g>
   <g id="matplotlib.axis_1">
    <g id="xtick_1">
     <g id="text_1">
      <!-- 0 -->
      <g style="fill:#262626;" transform="translate(113.63791 636.076563)scale(0.22 -0.22)">
       <defs>
        <path d="M 2034 4250 
Q 1547 4250 1301 3770 
Q 1056 3291 1056 2328 
Q 1056 1369 1301 889 
Q 1547 409 2034 409 
Q 2525 409 2770 889 
Q 3016 1369 3016 2328 
Q 3016 3291 2770 3770 
Q 2525 4250 2034 4250 
z
M 2034 4750 
Q 2819 4750 3233 4129 
Q 3647 3509 3647 2328 
Q 3647 1150 3233 529 
Q 2819 -91 2034 -91 
Q 1250 -91 836 529 
Q 422 1150 422 2328 
Q 422 3509 836 4129 
Q 1250 4750 2034 4750 
z
" id="DejaVuSans-30" transform="scale(0.015625)"/>
       </defs>
       <use xlink:href="#DejaVuSans-30"/>
      </g>
     </g>
    </g>
    <g id="xtick_2">
     <g id="text_2">
      <!-- 20000 -->
      <g style="fill:#262626;" transform="translate(173.464172 636.076563)scale(0.22 -0.22)">
       <defs>
        <path d="M 1228 531 
L 3431 531 
L 3431 0 
L 469 0 
L 469 531 
Q 828 903 1448 1529 
Q 2069 2156 2228 2338 
Q 2531 2678 2651 2914 
Q 2772 3150 2772 3378 
Q 2772 3750 2511 3984 
Q 2250 4219 1831 4219 
Q 1534 4219 1204 4116 
Q 875 4013 500 3803 
L 500 4441 
Q 881 4594 1212 4672 
Q 1544 4750 1819 4750 
Q 2544 4750 2975 4387 
Q 3406 4025 3406 3419 
Q 3406 3131 3298 2873 
Q 3191 2616 2906 2266 
Q 2828 2175 2409 1742 
Q 1991 1309 1228 531 
z
" id="DejaVuSans-32" transform="scale(0.015625)"/>
       </defs>
       <use xlink:href="#DejaVuSans-32"/>
       <use x="63.623047" xlink:href="#DejaVuSans-30"/>
       <use x="127.246094" xlink:href="#DejaVuSans-30"/>
       <use x="190.869141" xlink:href="#DejaVuSans-30"/>
       <use x="254.492188" xlink:href="#DejaVuSans-30"/>
      </g>
     </g>
    </g>
    <g id="xtick_3">
     <g id="text_3">
      <!-- 40000 -->
      <g style="fill:#262626;" transform="translate(261.285434 636.076563)scale(0.22 -0.22)">
       <defs>
        <path d="M 2419 4116 
L 825 1625 
L 2419 1625 
L 2419 4116 
z
M 2253 4666 
L 3047 4666 
L 3047 1625 
L 3713 1625 
L 3713 1100 
L 3047 1100 
L 3047 0 
L 2419 0 
L 2419 1100 
L 313 1100 
L 313 1709 
L 2253 4666 
z
" id="DejaVuSans-34" transform="scale(0.015625)"/>
       </defs>
       <use xlink:href="#DejaVuSans-34"/>
       <use x="63.623047" xlink:href="#DejaVuSans-30"/>
       <use x="127.246094" xlink:href="#DejaVuSans-30"/>
       <use x="190.869141" xlink:href="#DejaVuSans-30"/>
       <use x="254.492188" xlink:href="#DejaVuSans-30"/>
      </g>
     </g>
    </g>
    <g id="xtick_4">
     <g id="text_4">
      <!-- 60000 -->
      <g style="fill:#262626;" transform="translate(349.106696 636.076563)scale(0.22 -0.22)">
       <defs>
        <path d="M 2113 2584 
Q 1688 2584 1439 2293 
Q 1191 2003 1191 1497 
Q 1191 994 1439 701 
Q 1688 409 2113 409 
Q 2538 409 2786 701 
Q 3034 994 3034 1497 
Q 3034 2003 2786 2293 
Q 2538 2584 2113 2584 
z
M 3366 4563 
L 3366 3988 
Q 3128 4100 2886 4159 
Q 2644 4219 2406 4219 
Q 1781 4219 1451 3797 
Q 1122 3375 1075 2522 
Q 1259 2794 1537 2939 
Q 1816 3084 2150 3084 
Q 2853 3084 3261 2657 
Q 3669 2231 3669 1497 
Q 3669 778 3244 343 
Q 2819 -91 2113 -91 
Q 1303 -91 875 529 
Q 447 1150 447 2328 
Q 447 3434 972 4092 
Q 1497 4750 2381 4750 
Q 2619 4750 2861 4703 
Q 3103 4656 3366 4563 
z
" id="DejaVuSans-36" transform="scale(0.015625)"/>
       </defs>
       <use xlink:href="#DejaVuSans-36"/>
       <use x="63.623047" xlink:href="#DejaVuSans-30"/>
       <use x="127.246094" xlink:href="#DejaVuSans-30"/>
       <use x="190.869141" xlink:href="#DejaVuSans-30"/>
       <use x="254.492188" xlink:href="#DejaVuSans-30"/>
      </g>
     </g>
    </g>
    <g id="xtick_5">
     <g id="text_5">
      <!-- 80000 -->
      <g style="fill:#262626;" transform="translate(436.927958 636.076563)scale(0.22 -0.22)">
       <defs>
        <path d="M 2034 2216 
Q 1584 2216 1326 1975 
Q 1069 1734 1069 1313 
Q 1069 891 1326 650 
Q 1584 409 2034 409 
Q 2484 409 2743 651 
Q 3003 894 3003 1313 
Q 3003 1734 2745 1975 
Q 2488 2216 2034 2216 
z
M 1403 2484 
Q 997 2584 770 2862 
Q 544 3141 544 3541 
Q 544 4100 942 4425 
Q 1341 4750 2034 4750 
Q 2731 4750 3128 4425 
Q 3525 4100 3525 3541 
Q 3525 3141 3298 2862 
Q 3072 2584 2669 2484 
Q 3125 2378 3379 2068 
Q 3634 1759 3634 1313 
Q 3634 634 3220 271 
Q 2806 -91 2034 -91 
Q 1263 -91 848 271 
Q 434 634 434 1313 
Q 434 1759 690 2068 
Q 947 2378 1403 2484 
z
M 1172 3481 
Q 1172 3119 1398 2916 
Q 1625 2713 2034 2713 
Q 2441 2713 2670 2916 
Q 2900 3119 2900 3481 
Q 2900 3844 2670 4047 
Q 2441 4250 2034 4250 
Q 1625 4250 1398 4047 
Q 1172 3844 1172 3481 
z
" id="DejaVuSans-38" transform="scale(0.015625)"/>
       </defs>
       <use xlink:href="#DejaVuSans-38"/>
       <use x="63.623047" xlink:href="#DejaVuSans-30"/>
       <use x="127.246094" xlink:href="#DejaVuSans-30"/>
       <use x="190.869141" xlink:href="#DejaVuSans-30"/>
       <use x="254.492188" xlink:href="#DejaVuSans-30"/>
      </g>
     </g>
    </g>
    <g id="xtick_6">
     <g id="text_6">
      <!-- 100000 -->
      <g style="fill:#262626;" transform="translate(517.75047 636.076563)scale(0.22 -0.22)">
       <defs>
        <path d="M 794 531 
L 1825 531 
L 1825 4091 
L 703 3866 
L 703 4441 
L 1819 4666 
L 2450 4666 
L 2450 531 
L 3481 531 
L 3481 0 
L 794 0 
L 794 531 
z
" id="DejaVuSans-31" transform="scale(0.015625)"/>
       </defs>
       <use xlink:href="#DejaVuSans-31"/>
       <use x="63.623047" xlink:href="#DejaVuSans-30"/>
       <use x="127.246094" xlink:href="#DejaVuSans-30"/>
       <use x="190.869141" xlink:href="#DejaVuSans-30"/>
       <use x="254.492188" xlink:href="#DejaVuSans-30"/>
       <use x="318.115234" xlink:href="#DejaVuSans-30"/>
      </g>
     </g>
    </g>
    <g id="text_7">
     <!-- MDTU -->
     <g style="fill:#262626;" transform="translate(304.593964 662.888125)scale(0.24 -0.24)">
      <defs>
       <path d="M 628 4666 
L 1569 4666 
L 2759 1491 
L 3956 4666 
L 4897 4666 
L 4897 0 
L 4281 0 
L 4281 4097 
L 3078 897 
L 2444 897 
L 1241 4097 
L 1241 0 
L 628 0 
L 628 4666 
z
" id="DejaVuSans-4d" transform="scale(0.015625)"/>
       <path d="M 1259 4147 
L 1259 519 
L 2022 519 
Q 2988 519 3436 956 
Q 3884 1394 3884 2338 
Q 3884 3275 3436 3711 
Q 2988 4147 2022 4147 
L 1259 4147 
z
M 628 4666 
L 1925 4666 
Q 3281 4666 3915 4102 
Q 4550 3538 4550 2338 
Q 4550 1131 3912 565 
Q 3275 0 1925 0 
L 628 0 
L 628 4666 
z
" id="DejaVuSans-44" transform="scale(0.015625)"/>
       <path d="M -19 4666 
L 3928 4666 
L 3928 4134 
L 2272 4134 
L 2272 0 
L 1638 0 
L 1638 4134 
L -19 4134 
L -19 4666 
z
" id="DejaVuSans-54" transform="scale(0.015625)"/>
       <path d="M 556 4666 
L 1191 4666 
L 1191 1831 
Q 1191 1081 1462 751 
Q 1734 422 2344 422 
Q 2950 422 3222 751 
Q 3494 1081 3494 1831 
L 3494 4666 
L 4128 4666 
L 4128 1753 
Q 4128 841 3676 375 
Q 3225 -91 2344 -91 
Q 1459 -91 1007 375 
Q 556 841 556 1753 
L 556 4666 
z
" id="DejaVuSans-55" transform="scale(0.015625)"/>
      </defs>
      <use xlink:href="#DejaVuSans-4d"/>
      <use x="86.279297" xlink:href="#DejaVuSans-44"/>
      <use x="163.28125" xlink:href="#DejaVuSans-54"/>
      <use x="224.365234" xlink:href="#DejaVuSans-55"/>
     </g>
    </g>
   </g>
   <g id="matplotlib.axis_2">
    <g id="ytick_1">
     <g id="text_8">
      <!-- 0.25 -->
      <g style="fill:#262626;" transform="translate(34.4275 592.709416)scale(0.22 -0.22)">
       <defs>
        <path d="M 684 794 
L 1344 794 
L 1344 0 
L 684 0 
L 684 794 
z
" id="DejaVuSans-2e" transform="scale(0.015625)"/>
        <path d="M 691 4666 
L 3169 4666 
L 3169 4134 
L 1269 4134 
L 1269 2991 
Q 1406 3038 1543 3061 
Q 1681 3084 1819 3084 
Q 2600 3084 3056 2656 
Q 3513 2228 3513 1497 
Q 3513 744 3044 326 
Q 2575 -91 1722 -91 
Q 1428 -91 1123 -41 
Q 819 9 494 109 
L 494 744 
Q 775 591 1075 516 
Q 1375 441 1709 441 
Q 2250 441 2565 725 
Q 2881 1009 2881 1497 
Q 2881 1984 2565 2268 
Q 2250 2553 1709 2553 
Q 1456 2553 1204 2497 
Q 953 2441 691 2322 
L 691 4666 
z
" id="DejaVuSans-35" transform="scale(0.015625)"/>
       </defs>
       <use xlink:href="#DejaVuSans-30"/>
       <use x="63.623047" xlink:href="#DejaVuSans-2e"/>
       <use x="95.410156" xlink:href="#DejaVuSans-32"/>
       <use x="159.033203" xlink:href="#DejaVuSans-35"/>
      </g>
     </g>
    </g>
    <g id="ytick_2">
     <g id="text_9">
      <!-- 0.50 -->
      <g style="fill:#262626;" transform="translate(34.4275 527.619091)scale(0.22 -0.22)">
       <use xlink:href="#DejaVuSans-30"/>
       <use x="63.623047" xlink:href="#DejaVuSans-2e"/>
       <use x="95.410156" xlink:href="#DejaVuSans-35"/>
       <use x="159.033203" xlink:href="#DejaVuSans-30"/>
      </g>
     </g>
    </g>
    <g id="ytick_3">
     <g id="text_10">
      <!-- 0.75 -->
      <g style="fill:#262626;" transform="translate(34.4275 462.528765)scale(0.22 -0.22)">
       <defs>
        <path d="M 525 4666 
L 3525 4666 
L 3525 4397 
L 1831 0 
L 1172 0 
L 2766 4134 
L 525 4134 
L 525 4666 
z
" id="DejaVuSans-37" transform="scale(0.015625)"/>
       </defs>
       <use xlink:href="#DejaVuSans-30"/>
       <use x="63.623047" xlink:href="#DejaVuSans-2e"/>
       <use x="95.410156" xlink:href="#DejaVuSans-37"/>
       <use x="159.033203" xlink:href="#DejaVuSans-35"/>
      </g>
     </g>
    </g>
    <g id="ytick_4">
     <g id="text_11">
      <!-- 1.00 -->
      <g style="fill:#262626;" transform="translate(34.4275 397.43844)scale(0.22 -0.22)">
       <use xlink:href="#DejaVuSans-31"/>
       <use x="63.623047" xlink:href="#DejaVuSans-2e"/>
       <use x="95.410156" xlink:href="#DejaVuSans-30"/>
       <use x="159.033203" xlink:href="#DejaVuSans-30"/>
      </g>
     </g>
    </g>
    <g id="ytick_5">
     <g id="text_12">
      <!-- 1.25 -->
      <g style="fill:#262626;" transform="translate(34.4275 332.348115)scale(0.22 -0.22)">
       <use xlink:href="#DejaVuSans-31"/>
       <use x="63.623047" xlink:href="#DejaVuSans-2e"/>
       <use x="95.410156" xlink:href="#DejaVuSans-32"/>
       <use x="159.033203" xlink:href="#DejaVuSans-35"/>
      </g>
     </g>
    </g>
    <g id="ytick_6">
     <g id="text_13">
      <!-- 1.50 -->
      <g style="fill:#262626;" transform="translate(34.4275 267.257789)scale(0.22 -0.22)">
       <use xlink:href="#DejaVuSans-31"/>
       <use x="63.623047" xlink:href="#DejaVuSans-2e"/>
       <use x="95.410156" xlink:href="#DejaVuSans-35"/>
       <use x="159.033203" xlink:href="#DejaVuSans-30"/>
      </g>
     </g>
    </g>
    <g id="ytick_7">
     <g id="text_14">
      <!-- 1.75 -->
      <g style="fill:#262626;" transform="translate(34.4275 202.167464)scale(0.22 -0.22)">
       <use xlink:href="#DejaVuSans-31"/>
       <use x="63.623047" xlink:href="#DejaVuSans-2e"/>
       <use x="95.410156" xlink:href="#DejaVuSans-37"/>
       <use x="159.033203" xlink:href="#DejaVuSans-35"/>
      </g>
     </g>
    </g>
    <g id="ytick_8">
     <g id="text_15">
      <!-- 2.00 -->
      <g style="fill:#262626;" transform="translate(34.4275 137.077138)scale(0.22 -0.22)">
       <use xlink:href="#DejaVuSans-32"/>
       <use x="63.623047" xlink:href="#DejaVuSans-2e"/>
       <use x="95.410156" xlink:href="#DejaVuSans-30"/>
       <use x="159.033203" xlink:href="#DejaVuSans-30"/>
      </g>
     </g>
    </g>
    <g id="text_16">
     <!-- $E$ -->
     <g style="fill:#262626;" transform="translate(25.43625 364.352286)rotate(-90)scale(0.24 -0.24)">
      <defs>
       <path d="M 1081 4666 
L 4031 4666 
L 3928 4134 
L 1606 4134 
L 1338 2753 
L 3566 2753 
L 3463 2222 
L 1234 2222 
L 909 531 
L 3284 531 
L 3181 0 
L 172 0 
L 1081 4666 
z
" id="DejaVuSans-Oblique-45" transform="scale(0.015625)"/>
      </defs>
      <use transform="translate(0 0.09375)" xlink:href="#DejaVuSans-Oblique-45"/>
     </g>
    </g>
   </g>
   <g id="line2d_1">
    <path clip-path="url(#p89b5da8e79)" d="M 120.856213 418.82051 
L 121.075766 476.479042 
L 121.295319 451.248203 
L 121.514872 477.149802 
L 121.734425 519.126674 
L 121.953978 453.463928 
L 122.173532 473.075638 
L 122.393085 434.421227 
L 122.612638 362.83424 
L 122.832191 498.288551 
L 123.051744 467.48775 
L 123.271297 398.215844 
L 123.490851 522.082753 
L 123.710404 468.668887 
L 124.14951 422.439557 
L 124.369063 515.936052 
L 124.588616 441.408091 
L 125.027723 527.428761 
L 125.247276 419.231314 
L 125.466829 522.57116 
L 125.686382 529.79634 
L 125.905935 489.477125 
L 126.125488 526.665066 
L 126.564595 342.186569 
L 126.784148 338.068286 
L 127.003701 519.589007 
L 127.223254 431.308976 
L 127.442807 442.807845 
L 127.66236 488.638584 
L 127.881914 428.866452 
L 128.101467 432.96404 
L 128.32102 527.615459 
L 128.540573 417.879316 
L 128.760126 492.996651 
L 128.979679 518.904706 
L 129.199232 470.966898 
L 129.418786 461.421958 
L 129.638339 295.681018 
L 129.857892 459.782649 
L 130.296998 409.421446 
L 130.516551 526.402739 
L 130.736105 486.599751 
L 131.175211 539.775601 
L 131.394764 425.095543 
L 131.614317 421.819504 
L 131.83387 453.23217 
L 132.053423 507.580452 
L 132.272977 331.243331 
L 132.49253 438.467396 
L 132.712083 490.951353 
L 132.931636 438.287896 
L 133.151189 447.319952 
L 133.370742 519.341534 
L 133.590296 332.784324 
L 134.248955 511.066533 
L 134.468508 419.07791 
L 134.688061 461.774784 
L 134.907614 415.812694 
L 135.346721 503.544544 
L 135.785827 381.888247 
L 136.00538 525.927824 
L 136.444487 418.563055 
L 136.66404 477.522979 
L 136.883593 350.544805 
L 137.103146 491.303814 
L 137.322699 355.864572 
L 137.542252 462.931254 
L 137.761805 464.530853 
L 137.981359 430.138047 
L 138.200912 440.638298 
L 138.420465 525.621301 
L 138.859571 376.463273 
L 139.079124 544.365723 
L 139.298678 539.660064 
L 139.518231 483.234853 
L 139.737784 534.387605 
L 139.957337 403.857164 
L 140.17689 484.469156 
L 140.396443 496.865114 
L 140.615996 394.109452 
L 140.83555 389.365641 
L 141.055103 487.950486 
L 141.274656 418.838786 
L 141.494209 502.312985 
L 141.713762 358.566045 
L 141.933315 507.589504 
L 142.152869 398.949879 
L 142.591975 525.729832 
L 142.811528 430.581407 
L 143.031081 570.388822 
L 143.470187 450.729681 
L 143.689741 502.690251 
L 143.909294 484.696935 
L 144.128847 532.542839 
L 144.3484 442.361354 
L 144.567953 443.348323 
L 145.00706 515.62191 
L 145.226613 521.313744 
L 145.665719 402.702762 
L 146.104825 527.848703 
L 146.324378 442.312303 
L 146.543932 417.414729 
L 146.763485 451.147382 
L 146.983038 293.952871 
L 147.202591 369.734897 
L 147.422144 332.406195 
L 147.641697 521.022826 
L 147.861251 558.450953 
L 148.080804 488.398594 
L 148.300357 455.312457 
L 148.51991 318.281021 
L 148.739463 510.690303 
L 149.178569 388.295812 
L 149.398123 522.467622 
L 149.617676 493.990387 
L 149.837229 367.325427 
L 150.056782 477.697481 
L 150.276335 472.730021 
L 150.495888 429.341571 
L 150.715441 459.640253 
L 150.934995 468.942749 
L 151.154548 448.103921 
L 151.374101 342.527575 
L 151.593654 513.523222 
L 151.813207 512.176349 
L 152.03276 468.45492 
L 152.252314 346.732381 
L 152.471867 500.254373 
L 152.69142 459.393254 
L 152.910973 498.652956 
L 153.130526 349.556957 
L 153.350079 403.100065 
L 153.569632 487.349912 
L 153.789186 348.487205 
L 154.008739 529.538423 
L 154.228292 488.470385 
L 154.447845 479.292041 
L 154.667398 189.671286 
L 154.886951 417.782274 
L 155.106505 423.129774 
L 155.326058 463.708915 
L 155.545611 475.028601 
L 155.765164 453.176414 
L 155.984717 448.485725 
L 156.20427 499.996063 
L 156.423823 203.589168 
L 156.643377 514.62991 
L 156.86293 524.949495 
L 157.302036 265.411328 
L 157.521589 422.989161 
L 157.741142 387.704166 
L 157.960696 420.563298 
L 158.180249 402.678621 
L 158.399802 520.587172 
L 158.619355 466.205615 
L 159.058461 416.956419 
L 159.278014 525.665802 
L 159.497568 331.127553 
L 159.717121 382.973436 
L 159.936674 515.661515 
L 160.37578 398.79427 
L 160.595333 524.921073 
L 160.814887 343.927758 
L 161.03444 494.022621 
L 161.473546 403.183054 
L 161.693099 386.602948 
L 161.912652 454.593989 
L 162.132205 368.959658 
L 162.571312 445.258479 
L 162.790865 369.68271 
L 163.010418 475.27758 
L 163.449524 531.834643 
L 163.669078 419.2627 
L 163.888631 364.571534 
L 164.108184 492.295973 
L 164.327737 517.703461 
L 164.54729 477.660523 
L 164.766843 476.410834 
L 164.986396 442.150223 
L 165.20595 448.712454 
L 165.425503 434.367462 
L 165.645056 451.942858 
L 165.864609 455.838563 
L 166.084162 440.992305 
L 166.303715 478.193916 
L 166.523269 484.943324 
L 166.742822 466.795494 
L 166.962375 506.272705 
L 167.181928 465.216042 
L 167.401481 466.017392 
L 167.621034 338.932549 
L 167.840587 417.197519 
L 168.060141 412.830189 
L 168.279694 399.979815 
L 168.499247 417.790051 
L 168.7188 276.558299 
L 168.938353 463.674211 
L 169.157906 496.729477 
L 169.37746 422.939 
L 169.597013 433.829622 
L 169.816566 539.514509 
L 170.036119 331.934525 
L 170.255672 383.402699 
L 170.475225 408.010546 
L 170.694778 493.581264 
L 170.914332 427.935409 
L 171.572991 546.417994 
L 171.792544 394.007612 
L 172.012097 379.924503 
L 172.231651 505.539461 
L 172.451204 417.837034 
L 172.670757 429.533413 
L 172.89031 497.496858 
L 173.109863 501.887526 
L 173.329416 388.205796 
L 173.548969 427.864038 
L 173.768523 423.088197 
L 173.988076 403.179807 
L 174.207629 436.010783 
L 174.427182 324.560317 
L 174.646735 429.879466 
L 174.866288 354.168729 
L 175.085842 507.060729 
L 175.524948 438.399493 
L 175.744501 448.926183 
L 175.964054 489.207292 
L 176.183607 487.384877 
L 176.40316 461.850722 
L 176.622714 359.728456 
L 176.842267 438.590356 
L 177.06182 465.815315 
L 177.281373 558.357488 
L 177.500926 535.695616 
L 177.720479 415.590398 
L 177.940032 468.409948 
L 178.159586 466.997807 
L 178.379139 515.958853 
L 178.598692 500.97738 
L 178.818245 316.384876 
L 179.037798 536.764932 
L 179.257351 524.877526 
L 179.476905 427.694083 
L 179.696458 381.394804 
L 179.916011 375.82892 
L 180.135564 382.873203 
L 180.57467 453.597958 
L 180.794223 477.644984 
L 181.013777 518.529525 
L 181.452883 409.773813 
L 181.672436 440.225839 
L 181.891989 428.411353 
L 182.111542 433.231075 
L 182.331096 510.116867 
L 182.550649 498.663268 
L 182.770202 360.147774 
L 182.989755 380.671973 
L 183.428861 539.397078 
L 183.648414 460.977969 
L 183.867968 454.486914 
L 184.087521 517.435907 
L 184.307074 525.821691 
L 184.526627 429.130206 
L 184.74618 461.467789 
L 184.965733 534.954233 
L 185.185287 546.301612 
L 185.40484 487.751881 
L 185.624393 483.496395 
L 185.843946 433.192523 
L 186.063499 481.089713 
L 186.283052 342.424072 
L 186.502605 480.951885 
L 186.722159 458.797867 
L 186.941712 463.407164 
L 187.161265 457.859823 
L 187.380818 543.332834 
L 187.600371 493.370085 
L 187.819924 312.757382 
L 188.039478 541.048996 
L 188.259031 394.544722 
L 188.478584 455.383075 
L 188.698137 300.518773 
L 188.91769 336.624005 
L 189.137243 416.371666 
L 189.356796 449.295377 
L 189.57635 442.062346 
L 189.795903 364.459879 
L 190.015456 518.461704 
L 190.235009 412.732334 
L 190.454562 491.197626 
L 190.674115 479.130995 
L 190.893669 452.240162 
L 191.113222 369.682867 
L 191.332775 453.138804 
L 191.552328 402.949702 
L 191.771881 379.08906 
L 191.991434 492.761227 
L 192.210987 458.731417 
L 192.650094 510.417779 
L 193.0892 447.577759 
L 193.308753 523.593778 
L 193.528306 394.834982 
L 193.74786 369.735599 
L 194.406519 501.068714 
L 195.065178 316.798463 
L 195.504285 487.36569 
L 195.723838 500.733147 
L 195.943391 490.310377 
L 196.162944 449.597077 
L 196.382497 449.383743 
L 196.602051 255.23133 
L 196.821604 478.085883 
L 197.041157 496.152083 
L 197.26071 407.341098 
L 197.480263 479.636944 
L 197.699816 357.217854 
L 197.919369 466.177599 
L 198.138923 477.410135 
L 198.358476 362.180603 
L 198.578029 468.106503 
L 198.797582 402.039249 
L 199.017135 428.156751 
L 199.236688 430.875403 
L 199.456242 465.840402 
L 199.675795 459.276017 
L 199.895348 481.913291 
L 200.114901 435.751601 
L 200.334454 346.398288 
L 200.554007 467.040323 
L 200.77356 369.76208 
L 200.993114 496.037545 
L 201.212667 376.782128 
L 201.43222 386.458104 
L 201.651773 490.205704 
L 201.871326 385.930946 
L 202.090879 383.708844 
L 202.310432 482.302616 
L 202.529986 328.122593 
L 202.749539 495.110352 
L 202.969092 450.43302 
L 203.188645 528.630916 
L 203.627751 448.425917 
L 203.847305 482.621124 
L 204.066858 411.998384 
L 204.505964 473.449736 
L 204.725517 446.358025 
L 204.94507 456.550364 
L 205.164623 314.206246 
L 205.384177 445.26223 
L 205.60373 482.398923 
L 205.823283 454.227485 
L 206.042836 403.66284 
L 206.262389 420.065342 
L 206.481942 421.993537 
L 206.701496 289.834136 
L 207.140602 524.409431 
L 207.360155 473.107779 
L 207.579708 492.788596 
L 207.799261 284.202692 
L 208.018814 351.034466 
L 208.238368 504.999461 
L 208.677474 363.106943 
L 209.11658 495.164431 
L 209.336133 476.56244 
L 209.555687 433.159794 
L 209.77524 456.91257 
L 210.214346 313.518016 
L 210.433899 454.570917 
L 210.653452 411.940777 
L 210.873005 395.890463 
L 211.092559 423.764231 
L 211.312112 486.84227 
L 211.531665 505.155868 
L 211.751218 411.499318 
L 211.970771 541.983741 
L 212.190324 369.507504 
L 212.409878 410.04001 
L 212.629431 423.889353 
L 212.848984 512.869989 
L 213.068537 507.655898 
L 213.28809 495.292985 
L 213.507643 296.456009 
L 213.727196 350.001136 
L 213.94675 453.512363 
L 214.166303 494.346599 
L 214.385856 310.358258 
L 214.605409 442.88507 
L 214.824962 500.961254 
L 215.044515 495.37477 
L 215.264069 444.01543 
L 215.483622 361.522739 
L 215.703175 538.00438 
L 215.922728 396.40386 
L 216.142281 529.438212 
L 216.361834 517.379318 
L 216.581387 490.978241 
L 216.800941 350.363834 
L 217.240047 451.169594 
L 217.4596 463.299959 
L 217.898706 391.32999 
L 218.11826 514.817954 
L 218.337813 543.271916 
L 218.557366 480.175599 
L 218.776919 528.625218 
L 218.996472 363.916296 
L 219.216025 503.297187 
L 219.435578 506.57014 
L 219.655132 352.45766 
L 219.874685 384.412685 
L 220.094238 434.885161 
L 220.313791 526.553413 
L 220.533344 516.239808 
L 220.972451 450.938714 
L 221.192004 275.855987 
L 221.63111 548.051037 
L 222.070216 454.300346 
L 222.289769 442.410957 
L 222.509323 514.252943 
L 222.728876 413.595447 
L 223.167982 488.766262 
L 223.387535 374.153284 
L 223.607088 462.921973 
L 223.826642 450.541447 
L 224.046195 483.331291 
L 224.704854 319.310461 
L 224.924407 461.407798 
L 225.363514 549.983676 
L 225.583067 409.977698 
L 225.80262 442.416797 
L 226.022173 539.723266 
L 226.241726 449.288065 
L 226.461279 455.005184 
L 226.680833 527.620793 
L 226.900386 387.512848 
L 227.119939 446.41937 
L 227.339492 459.108699 
L 227.559045 419.915512 
L 227.778598 451.360017 
L 227.998151 432.090538 
L 228.217705 477.365925 
L 228.437258 461.522324 
L 228.656811 433.790447 
L 228.876364 389.920495 
L 229.095917 467.358341 
L 229.31547 334.595542 
L 229.754577 486.205715 
L 229.97413 411.852238 
L 230.193683 438.018418 
L 230.413236 450.105792 
L 230.632789 446.133957 
L 230.852342 467.655977 
L 231.071896 330.411119 
L 231.291449 534.964906 
L 231.730555 441.052673 
L 231.950108 441.085901 
L 232.169661 499.811278 
L 232.389214 328.746061 
L 232.608768 389.52446 
L 232.828321 357.365436 
L 233.047874 430.827841 
L 233.267427 257.108285 
L 233.48698 500.360441 
L 233.706533 415.010247 
L 233.926087 373.069582 
L 234.14564 483.805104 
L 234.365193 524.552934 
L 234.804299 414.409121 
L 235.023852 451.151114 
L 235.243405 427.047236 
L 235.462959 507.764476 
L 235.682512 389.717458 
L 235.902065 520.849131 
L 236.121618 513.106139 
L 236.341171 521.833092 
L 236.560724 519.744408 
L 236.780278 527.342174 
L 236.999831 457.987937 
L 237.219384 515.508725 
L 237.438937 507.122431 
L 237.878043 447.887981 
L 238.097596 527.89083 
L 238.536703 487.269902 
L 238.756256 420.013931 
L 238.975809 507.711941 
L 239.195362 412.098848 
L 239.634469 512.558363 
L 239.854022 431.665603 
L 240.073575 489.684485 
L 240.293128 427.292088 
L 240.512681 413.01201 
L 240.732234 530.397141 
L 240.951787 274.221402 
L 241.171341 419.478241 
L 241.390894 388.553464 
L 241.610447 476.503261 
L 241.83 435.14044 
L 242.049553 254.314052 
L 242.269106 480.048124 
L 242.48866 517.795226 
L 242.708213 519.159088 
L 242.927766 531.757676 
L 243.147319 324.132767 
L 243.366872 530.259242 
L 243.805978 443.592418 
L 244.025532 526.479689 
L 244.245085 490.18444 
L 244.464638 415.57311 
L 244.684191 403.963022 
L 244.903744 421.192858 
L 245.123297 481.142704 
L 245.342851 389.676771 
L 245.562404 541.862216 
L 245.781957 483.872614 
L 246.00151 513.585603 
L 246.221063 568.717733 
L 246.440616 516.753686 
L 246.660169 498.338692 
L 246.879723 418.133556 
L 247.099276 231.920173 
L 247.318829 498.1163 
L 247.538382 407.529896 
L 247.757935 467.865111 
L 247.977488 462.408402 
L 248.197042 406.928422 
L 248.416595 411.172473 
L 248.636148 400.542626 
L 248.855701 454.916022 
L 249.075254 432.65245 
L 249.51436 488.007953 
L 249.733914 444.67146 
L 250.17302 461.175629 
L 250.392573 515.992238 
L 250.612126 433.928722 
L 250.831679 428.510306 
L 251.051233 403.766242 
L 251.270786 469.882867 
L 251.490339 460.197693 
L 251.709892 422.449157 
L 251.929445 270.002677 
L 252.148998 531.611802 
L 252.368551 435.831128 
L 252.588105 409.747299 
L 253.027211 444.133627 
L 253.246764 392.880383 
L 253.466317 505.674922 
L 253.68587 424.917687 
L 253.905424 461.368055 
L 254.124977 423.704359 
L 254.34453 497.194748 
L 254.564083 442.724108 
L 254.783636 485.362514 
L 255.003189 265.052363 
L 255.222742 457.959941 
L 255.442296 419.113736 
L 255.661849 467.535247 
L 256.100955 367.553255 
L 256.320508 448.024729 
L 256.540061 442.343271 
L 256.759614 456.50455 
L 256.979168 462.709772 
L 257.198721 342.073532 
L 257.418274 421.991028 
L 257.637827 392.250647 
L 257.85738 470.236066 
L 258.076933 267.288508 
L 258.296487 438.174472 
L 258.51604 417.380252 
L 258.735593 491.127668 
L 259.174699 408.397075 
L 259.613805 501.534079 
L 259.833359 364.370663 
L 260.052912 481.7006 
L 260.272465 534.669236 
L 260.711571 383.287221 
L 260.931124 474.237617 
L 261.150678 333.173252 
L 261.370231 335.053984 
L 261.589784 478.9378 
L 261.809337 509.137494 
L 262.248443 476.897908 
L 262.467996 481.852601 
L 262.68755 478.550099 
L 262.907103 471.559786 
L 263.126656 395.567185 
L 263.346209 542.194061 
L 263.565762 431.010903 
L 263.785315 504.533706 
L 264.224422 326.532001 
L 264.443975 324.091937 
L 264.883081 519.447643 
L 265.102634 424.389565 
L 265.322187 467.429339 
L 265.541741 442.822462 
L 265.761294 405.304948 
L 266.2004 460.776757 
L 266.419953 534.562318 
L 266.639506 540.704637 
L 266.85906 494.312483 
L 267.078613 484.241845 
L 267.298166 370.532337 
L 267.517719 412.878587 
L 267.737272 495.600372 
L 267.956825 520.245595 
L 268.176378 402.382595 
L 268.395932 371.451655 
L 268.615485 460.166255 
L 268.835038 320.508554 
L 269.054591 485.45237 
L 269.274144 469.453473 
L 269.493697 339.748458 
L 269.713251 486.945969 
L 269.932804 451.521011 
L 270.152357 482.647887 
L 270.37191 470.177564 
L 270.591463 404.247789 
L 270.811016 491.077373 
L 271.030569 314.256878 
L 271.250123 515.221322 
L 271.469676 511.593808 
L 271.689229 396.638392 
L 271.908782 461.553079 
L 272.128335 459.326186 
L 272.347888 459.516622 
L 272.567442 457.801738 
L 272.786995 430.11373 
L 273.006548 432.06914 
L 273.445654 495.661001 
L 273.665207 416.570842 
L 273.88476 404.299813 
L 274.104314 496.966943 
L 274.323867 519.131403 
L 274.54342 469.547302 
L 274.762973 478.599508 
L 275.202079 401.723444 
L 275.421633 400.303866 
L 275.641186 452.935751 
L 275.860739 385.135285 
L 276.080292 523.680895 
L 276.299845 477.097428 
L 276.519398 360.997059 
L 276.738951 471.504829 
L 276.958505 375.608123 
L 277.178058 537.412459 
L 277.397611 432.129115 
L 277.617164 417.062881 
L 277.836717 431.369539 
L 278.05627 419.356649 
L 278.275824 482.687975 
L 278.495377 415.499414 
L 278.71493 433.97164 
L 278.934483 484.077272 
L 279.154036 368.293208 
L 279.373589 484.641896 
L 279.593142 452.327474 
L 279.812696 380.344145 
L 280.032249 505.241896 
L 280.251802 442.592818 
L 280.471355 466.537861 
L 280.690908 446.330641 
L 280.910461 369.139525 
L 281.130014 447.121868 
L 281.349568 401.434788 
L 281.569121 507.921906 
L 281.788674 476.373873 
L 282.008227 493.411212 
L 282.22778 345.348875 
L 282.447333 365.311139 
L 282.666887 301.780349 
L 282.88644 484.802065 
L 283.325546 437.160168 
L 283.764652 488.213056 
L 283.984205 339.816036 
L 284.423312 530.523913 
L 284.642865 514.322461 
L 284.862418 314.636342 
L 285.081971 511.656844 
L 285.301524 414.273802 
L 285.521078 439.658773 
L 285.740631 503.491978 
L 285.960184 414.567903 
L 286.179737 404.50996 
L 286.39929 493.266995 
L 286.618843 413.866724 
L 286.838396 464.106992 
L 287.05795 452.299984 
L 287.277503 450.527018 
L 287.497056 541.435001 
L 287.716609 343.653159 
L 287.936162 352.984551 
L 288.155715 440.11018 
L 288.375269 385.923026 
L 288.594822 510.104505 
L 288.814375 451.255967 
L 289.033928 459.876737 
L 289.253481 457.705219 
L 289.473034 447.113469 
L 289.692587 423.663857 
L 289.912141 369.299953 
L 290.131694 466.886854 
L 290.351247 387.32075 
L 290.5708 420.408061 
L 290.790353 486.119249 
L 291.009906 287.177651 
L 291.22946 475.864559 
L 291.449013 402.621477 
L 291.668566 374.007552 
L 291.888119 457.130553 
L 292.107672 380.11678 
L 292.546778 478.235119 
L 292.766332 489.705126 
L 293.205438 540.442194 
L 293.864097 351.266722 
L 294.083651 423.26748 
L 294.303204 374.189441 
L 294.522757 404.236805 
L 294.74231 499.937201 
L 294.961863 470.442553 
L 295.181416 271.593955 
L 295.400969 365.960487 
L 295.620523 529.862724 
L 296.059629 389.720266 
L 296.279182 438.155389 
L 296.498735 435.488491 
L 296.718288 348.479222 
L 296.937842 476.209533 
L 297.157395 451.791463 
L 297.376948 496.036294 
L 297.596501 355.347263 
L 297.816054 498.527386 
L 298.035607 380.943119 
L 298.25516 369.764589 
L 298.694267 482.418862 
L 298.91382 505.493005 
L 299.133373 540.401121 
L 299.352926 482.280272 
L 299.572479 568.486452 
L 299.792033 316.316876 
L 300.011586 458.763164 
L 300.231139 356.551605 
L 300.670245 541.563273 
L 300.889798 533.13236 
L 301.109351 423.171906 
L 301.328905 505.06818 
L 301.548458 484.881032 
L 301.768011 376.244444 
L 301.987564 413.749791 
L 302.207117 488.890081 
L 302.42667 427.103393 
L 302.646224 429.560029 
L 303.08533 510.534803 
L 303.304883 513.899948 
L 303.524436 510.205024 
L 303.743989 376.828674 
L 303.963542 487.142052 
L 304.402649 343.103885 
L 304.622202 433.727084 
L 304.841755 469.582658 
L 305.061308 481.330753 
L 305.280861 460.06415 
L 305.500415 492.734607 
L 305.719968 489.486581 
L 305.939521 468.956258 
L 306.159074 366.227011 
L 306.378627 460.919406 
L 306.59818 488.079558 
L 306.817733 467.432481 
L 307.037287 581.38839 
L 307.476393 423.665277 
L 307.695946 474.064917 
L 307.915499 373.044732 
L 308.135052 517.069997 
L 308.354605 560.096667 
L 308.574159 342.564715 
L 308.793712 503.650533 
L 309.232818 393.633245 
L 309.452371 420.398075 
L 309.671924 504.911613 
L 309.891478 424.339862 
L 310.330584 493.788954 
L 310.550137 437.646498 
L 310.76969 513.267481 
L 310.989243 432.438006 
L 311.208796 473.672483 
L 311.42835 368.144401 
L 311.647903 497.647546 
L 311.867456 467.283692 
L 312.087009 405.810167 
L 312.306562 390.580367 
L 312.526115 468.702347 
L 312.965222 284.612382 
L 313.184775 509.531262 
L 313.404328 261.921471 
L 313.623881 459.280453 
L 313.843434 406.252993 
L 314.062987 534.884572 
L 314.502094 451.918278 
L 314.721647 478.088237 
L 314.9412 356.459343 
L 315.160753 526.144314 
L 315.380306 559.537871 
L 315.819413 421.28989 
L 316.258519 464.988913 
L 316.478072 522.849864 
L 316.697625 435.198389 
L 316.917178 442.887766 
L 317.136732 474.502599 
L 317.575838 503.948151 
L 317.795391 449.176958 
L 318.014944 442.765845 
L 318.234497 468.325812 
L 318.454051 510.676097 
L 318.673604 503.481424 
L 318.893157 445.453863 
L 319.11271 456.078613 
L 319.332263 449.063628 
L 319.551816 405.565584 
L 319.771369 301.420152 
L 320.210476 480.752455 
L 320.430029 380.402281 
L 320.649582 483.531454 
L 320.869135 388.915791 
L 321.088688 396.04762 
L 321.308242 418.995042 
L 321.527795 368.997424 
L 321.747348 528.655961 
L 321.966901 423.456336 
L 322.186454 497.756644 
L 322.406007 509.994906 
L 322.62556 403.904561 
L 322.845114 469.028095 
L 323.064667 394.157727 
L 323.28422 455.520528 
L 323.503773 403.968172 
L 323.723326 482.662533 
L 323.942879 436.756639 
L 324.162433 431.551178 
L 324.381986 353.761436 
L 324.601539 486.745732 
L 324.821092 504.541643 
L 325.040645 364.85024 
L 325.260198 440.736558 
L 325.479751 325.715412 
L 325.699305 507.325811 
L 325.918858 522.561932 
L 326.138411 494.675579 
L 326.357964 564.165254 
L 326.577517 374.125392 
L 327.016624 451.683237 
L 327.236177 482.563786 
L 327.45573 548.256649 
L 327.675283 454.274253 
L 327.894836 485.733036 
L 328.114389 467.721355 
L 328.333942 525.390449 
L 328.553496 506.282395 
L 328.773049 418.225556 
L 328.992602 467.104634 
L 329.212155 481.27304 
L 329.431708 457.915651 
L 329.651261 509.107207 
L 329.870815 387.409889 
L 330.090368 467.563804 
L 330.309921 476.491131 
L 330.529474 410.631382 
L 330.749027 431.199647 
L 331.188133 559.196051 
L 331.407687 462.423231 
L 331.62724 302.234332 
L 332.066346 498.509152 
L 332.285899 532.38847 
L 332.505452 466.876593 
L 332.725006 461.443851 
L 332.944559 494.374451 
L 333.164112 376.924025 
L 333.383665 535.665088 
L 333.603218 411.984559 
L 333.822771 469.46541 
L 334.042324 351.411141 
L 334.261878 459.921782 
L 334.481431 421.68334 
L 334.700984 496.606804 
L 334.920537 481.021849 
L 335.14009 413.099079 
L 335.359643 415.042802 
L 335.579196 409.33081 
L 335.79875 489.98328 
L 336.018303 482.082797 
L 336.237856 545.473807 
L 336.457409 528.390693 
L 336.676962 455.176823 
L 337.116069 417.418863 
L 337.335622 439.445484 
L 337.555175 447.45969 
L 337.774728 541.627645 
L 337.994281 298.293092 
L 338.213834 432.806713 
L 338.433387 376.261266 
L 339.092047 547.372377 
L 339.3116 350.453137 
L 339.531153 521.768778 
L 339.97026 453.406028 
L 340.189813 438.043506 
L 340.409366 543.049703 
L 340.628919 384.16532 
L 340.848472 536.266234 
L 341.068025 420.466701 
L 341.287578 502.492854 
L 341.507132 505.236731 
L 341.726685 475.421333 
L 342.165791 497.230705 
L 342.385344 438.860534 
L 342.604897 449.996035 
L 342.824451 422.163112 
L 343.044004 430.077852 
L 343.263557 499.163571 
L 343.48311 447.454178 
L 343.702663 494.274882 
L 343.922216 460.422086 
L 344.141769 498.665174 
L 344.361323 469.584041 
L 344.580876 310.02707 
L 344.800429 331.685746 
L 345.019982 325.411984 
L 345.239535 537.249147 
L 345.459088 274.759948 
L 345.678642 514.353853 
L 345.898195 423.380746 
L 346.117748 478.488973 
L 346.337301 414.787035 
L 346.556854 455.256573 
L 346.776407 405.691608 
L 347.215514 443.635159 
L 347.435067 426.263377 
L 347.65462 342.64585 
L 347.874173 457.069107 
L 348.093726 499.397894 
L 348.313279 485.989927 
L 348.532833 537.734936 
L 348.752386 493.224175 
L 348.971939 359.051457 
L 349.191492 400.658643 
L 349.411045 505.586641 
L 349.630598 490.4292 
L 349.850151 510.76658 
L 350.069705 548.065404 
L 350.289258 484.981055 
L 350.508811 464.609604 
L 350.728364 424.969049 
L 351.16747 515.428473 
L 351.387024 326.274658 
L 351.606577 485.026695 
L 351.82613 445.717926 
L 352.045683 426.894297 
L 352.265236 502.900882 
L 352.484789 417.355067 
L 352.704342 443.161058 
L 352.923896 426.488179 
L 353.143449 445.974626 
L 353.363002 516.832618 
L 353.582555 371.817118 
L 353.802108 485.170213 
L 354.021661 485.166045 
L 354.241215 421.244273 
L 354.460768 301.963084 
L 354.680321 429.900166 
L 354.899874 468.766738 
L 355.119427 442.24006 
L 355.33898 433.934475 
L 355.778087 390.399103 
L 355.99764 518.801756 
L 356.217193 391.34452 
L 356.436746 478.090229 
L 356.656299 482.948595 
L 356.875852 481.677377 
L 357.095406 487.29222 
L 357.534512 246.940644 
L 357.754065 435.147806 
L 357.973618 398.138051 
L 358.193171 470.829188 
L 358.412724 451.216578 
L 358.632278 404.737703 
L 358.851831 447.085069 
L 359.071384 458.621393 
L 359.290937 404.498192 
L 359.730043 489.923649 
L 359.949596 380.258483 
L 360.16915 460.865595 
L 360.388703 337.621882 
L 360.827809 541.41371 
L 361.047362 453.105952 
L 361.486469 381.810061 
L 361.925575 541.976404 
L 362.145128 553.340305 
L 362.364681 451.180808 
L 362.584234 405.101915 
L 362.803787 482.593923 
L 363.023341 458.176259 
L 363.242894 526.214546 
L 363.462447 457.888203 
L 363.682 326.388207 
L 363.901553 541.750844 
L 364.34066 474.731894 
L 364.560213 193.088141 
L 364.779766 521.65264 
L 364.999319 411.665453 
L 365.218872 484.506555 
L 365.438425 462.041719 
L 365.657978 533.644952 
L 366.536191 381.698442 
L 366.975297 522.061556 
L 367.194851 455.450783 
L 367.414404 509.03952 
L 367.633957 425.820957 
L 368.073063 525.978767 
L 368.292616 478.659815 
L 368.512169 532.54969 
L 368.731723 486.336115 
L 368.951276 355.228587 
L 369.390382 470.748842 
L 369.609935 412.244225 
L 369.829488 509.344285 
L 370.268595 411.019706 
L 370.707701 529.784942 
L 370.927254 438.116499 
L 371.146807 494.363586 
L 371.36636 485.615064 
L 371.585914 517.844163 
L 371.805467 293.628972 
L 372.02502 472.231513 
L 372.244573 332.107486 
L 372.464126 331.141628 
L 372.683679 483.705749 
L 372.903233 483.563244 
L 373.122786 450.537759 
L 373.342339 451.662476 
L 373.561892 455.839738 
L 373.781445 549.04778 
L 374.000998 512.207093 
L 374.220551 431.032018 
L 374.440105 440.861353 
L 374.659658 402.864179 
L 374.879211 467.805694 
L 375.098764 395.263353 
L 375.318317 461.471503 
L 375.53787 415.609764 
L 375.757424 506.801807 
L 375.976977 463.11065 
L 376.19653 496.18733 
L 376.416083 445.078096 
L 376.635636 515.968713 
L 376.855189 286.206408 
L 377.074742 518.948237 
L 377.294296 564.067732 
L 377.513849 527.361284 
L 377.952955 350.45969 
L 378.172508 456.32674 
L 378.392061 496.469885 
L 378.611615 467.712846 
L 378.831168 475.936105 
L 379.050721 383.559342 
L 379.270274 493.965641 
L 379.489827 476.158064 
L 379.70938 480.521691 
L 379.928933 406.840506 
L 380.148487 479.82816 
L 380.36804 473.307617 
L 380.587593 348.189003 
L 380.807146 452.950593 
L 381.026699 303.697533 
L 381.246252 371.745672 
L 381.465806 499.179214 
L 381.685359 303.983874 
L 381.904912 441.354651 
L 382.124465 451.956682 
L 382.344018 264.131902 
L 382.563571 441.85718 
L 382.783124 499.47146 
L 383.222231 338.756466 
L 383.661337 487.39837 
L 384.100443 459.068694 
L 384.319997 363.265906 
L 384.53955 482.561033 
L 384.759103 398.472815 
L 385.198209 494.414071 
L 385.417762 470.284513 
L 385.637315 498.743863 
L 385.856869 463.650926 
L 386.076422 262.642662 
L 386.295975 417.735057 
L 386.735081 540.442617 
L 387.174187 254.964973 
L 387.613294 519.759465 
L 387.832847 499.13203 
L 388.0524 432.306229 
L 388.491506 512.091309 
L 388.71106 377.09941 
L 388.930613 472.412224 
L 389.150166 463.955962 
L 389.369719 490.082138 
L 389.589272 482.884728 
L 389.808825 334.78092 
L 390.028378 469.439612 
L 390.247932 464.598999 
L 390.467485 404.449637 
L 390.687038 492.971391 
L 390.906591 391.878483 
L 391.345697 446.967293 
L 391.565251 513.992179 
L 391.784804 506.843598 
L 392.004357 529.701828 
L 392.22391 445.943415 
L 392.443463 500.211128 
L 392.882569 393.433166 
L 393.102123 456.112736 
L 393.321676 442.579868 
L 393.541229 507.497847 
L 393.760782 345.57521 
L 393.980335 450.005663 
L 394.199888 484.720118 
L 394.419442 325.450257 
L 395.078101 530.069348 
L 395.297654 414.450463 
L 395.517207 412.410305 
L 395.73676 383.962313 
L 395.956314 389.105505 
L 396.175867 434.607935 
L 396.39542 277.543598 
L 396.614973 220.344428 
L 396.834526 397.528765 
L 397.054079 435.490888 
L 397.273633 413.528062 
L 397.493186 464.014118 
L 397.712739 385.959607 
L 397.932292 404.958727 
L 398.151845 375.134691 
L 398.371398 403.720922 
L 398.590951 458.646173 
L 398.810505 378.221455 
L 399.030058 186.750693 
L 399.249611 413.971463 
L 399.469164 367.046431 
L 399.688717 444.883814 
L 399.90827 413.043894 
L 400.127824 520.172551 
L 400.347377 359.3835 
L 400.56693 333.161894 
L 401.006036 468.365799 
L 401.225589 451.339003 
L 401.445142 453.985066 
L 401.664696 448.430412 
L 401.884249 393.6143 
L 402.323355 454.00438 
L 402.542908 382.824908 
L 402.762461 420.252479 
L 402.982015 514.553457 
L 403.201568 379.191318 
L 403.421121 417.564341 
L 403.860227 422.447056 
L 404.07978 473.45916 
L 404.299333 465.07881 
L 404.518887 433.010257 
L 404.73844 491.204291 
L 404.957993 344.868955 
L 405.177546 468.482492 
L 405.397099 454.493957 
L 405.616652 473.544514 
L 405.836206 402.531537 
L 406.055759 490.986739 
L 406.275312 436.815931 
L 406.494865 451.898459 
L 406.933971 446.296062 
L 407.153524 424.042648 
L 407.373078 445.340857 
L 407.592631 289.081619 
L 407.812184 440.077209 
L 408.031737 439.466547 
L 408.25129 398.2433 
L 408.690397 529.359842 
L 408.90995 462.290675 
L 409.129503 457.056235 
L 409.349056 497.927335 
L 409.568609 366.695112 
L 409.788162 414.032832 
L 410.007715 426.896657 
L 410.227269 361.075185 
L 410.446822 460.064466 
L 410.666375 475.875798 
L 410.885928 409.681982 
L 411.105481 457.487156 
L 411.325034 465.648503 
L 411.544587 509.711426 
L 411.764141 431.990043 
L 411.983694 451.432332 
L 412.203247 417.953061 
L 412.4228 457.328158 
L 412.861906 362.499644 
L 413.08146 447.201759 
L 413.301013 415.08187 
L 413.520566 521.093135 
L 413.959672 420.171077 
L 414.179225 460.643623 
L 414.398778 472.130783 
L 414.618332 347.222816 
L 414.837885 497.903341 
L 415.057438 466.295211 
L 415.276991 417.02895 
L 415.716097 527.189187 
L 415.935651 474.067758 
L 416.155204 348.345153 
L 416.374757 555.827573 
L 416.59431 520.8304 
L 416.813863 461.966704 
L 417.033416 352.272487 
L 417.252969 486.649591 
L 417.472523 407.521361 
L 417.692076 507.446001 
L 417.911629 468.312778 
L 418.131182 389.961741 
L 418.350735 434.916296 
L 418.570288 412.737256 
L 418.789842 518.039503 
L 419.009395 511.487133 
L 419.228948 427.791621 
L 419.448501 501.797118 
L 419.668054 487.106426 
L 419.887607 359.585069 
L 420.10716 469.312643 
L 420.326714 483.182265 
L 420.546267 358.88099 
L 420.76582 408.930979 
L 420.985373 497.399658 
L 421.204926 498.177186 
L 421.424479 508.454532 
L 421.644033 375.072925 
L 421.863586 518.471166 
L 422.083139 445.702305 
L 422.302692 504.245013 
L 422.522245 418.894739 
L 422.741798 496.888395 
L 422.961351 502.158972 
L 423.180905 559.560272 
L 423.400458 486.180818 
L 423.620011 508.210079 
L 423.839564 486.523037 
L 424.059117 445.536826 
L 424.27867 433.972715 
L 424.498224 403.540354 
L 424.717777 499.87194 
L 425.156883 401.470448 
L 425.376436 411.122622 
L 425.595989 502.894772 
L 425.815542 406.340392 
L 426.035096 518.324109 
L 426.254649 494.063653 
L 426.474202 511.82624 
L 426.693755 385.074105 
L 426.913308 387.867102 
L 427.132861 470.892165 
L 427.352415 494.097253 
L 427.571968 466.830576 
L 427.791521 514.559671 
L 428.011074 502.811855 
L 428.230627 523.044578 
L 428.45018 529.04204 
L 428.669733 384.563996 
L 429.10884 501.222457 
L 429.328393 418.773804 
L 429.547946 426.436082 
L 429.767499 520.862941 
L 429.987052 389.859776 
L 430.206606 521.714779 
L 430.426159 498.204085 
L 430.645712 388.026252 
L 430.865265 465.428619 
L 431.084818 388.911667 
L 431.304371 521.072308 
L 431.523924 457.633188 
L 431.743478 471.596678 
L 431.963031 469.792398 
L 432.182584 460.989156 
L 432.402137 395.476014 
L 432.62169 381.982366 
L 432.841243 471.051235 
L 433.060797 455.611716 
L 433.28035 537.025221 
L 433.499903 483.410063 
L 433.719456 463.386567 
L 433.939009 478.140451 
L 434.158562 420.38076 
L 434.378115 566.414583 
L 434.597669 489.036054 
L 434.817222 319.89367 
L 435.036775 483.97322 
L 435.256328 424.407998 
L 435.475881 505.066299 
L 435.695434 476.91514 
L 435.914988 341.825777 
L 436.134541 464.661774 
L 436.354094 316.330547 
L 436.573647 345.266493 
L 436.7932 517.005509 
L 437.012753 346.291775 
L 437.232306 351.960575 
L 437.45186 472.730679 
L 437.671413 419.955551 
L 437.890966 271.105736 
L 438.110519 513.62982 
L 438.549625 421.265732 
L 438.769178 463.701553 
L 438.988732 529.516556 
L 439.208285 469.758575 
L 439.427838 485.396801 
L 439.647391 480.174621 
L 439.866944 242.732014 
L 440.086497 497.967856 
L 440.525604 324.146677 
L 440.745157 477.734734 
L 440.96471 493.613843 
L 441.184263 439.88542 
L 441.403816 444.195996 
L 441.623369 441.775001 
L 441.842923 415.672619 
L 442.062476 331.439176 
L 442.282029 398.49291 
L 442.501582 367.197417 
L 442.721135 274.062932 
L 443.160242 539.909666 
L 443.379795 463.323608 
L 443.599348 504.592894 
L 444.038454 348.061087 
L 444.258007 540.198289 
L 444.697114 443.434315 
L 444.916667 514.593862 
L 445.13622 426.132198 
L 445.575326 487.268033 
L 445.794879 496.262361 
L 446.014433 513.851583 
L 446.233986 131.956182 
L 446.453539 429.925227 
L 446.673092 439.160979 
L 446.892645 509.962938 
L 447.112198 501.642886 
L 447.331751 484.121129 
L 447.551305 510.40208 
L 447.770858 512.481041 
L 447.990411 428.625689 
L 448.209964 518.903207 
L 448.429517 369.589091 
L 448.64907 445.801183 
L 448.868624 470.06837 
L 449.088177 419.813331 
L 449.30773 503.585143 
L 449.527283 491.73582 
L 449.966389 442.923914 
L 450.185942 539.786286 
L 450.405496 439.530711 
L 450.625049 451.685819 
L 450.844602 503.820482 
L 451.064155 375.861901 
L 451.283708 333.793337 
L 451.503261 542.404668 
L 451.722815 490.976557 
L 451.942368 391.15741 
L 452.161921 409.36233 
L 452.381474 353.002171 
L 452.601027 440.573277 
L 452.82058 437.451595 
L 453.040133 467.737125 
L 453.47924 345.93561 
L 453.698793 475.243346 
L 453.918346 397.304741 
L 454.137899 401.650127 
L 454.357452 510.794836 
L 454.577006 504.939789 
L 454.796559 420.821266 
L 455.016112 433.622655 
L 455.235665 470.237424 
L 455.455218 449.334603 
L 455.674771 477.514814 
L 455.894324 358.775106 
L 456.113878 489.070905 
L 456.552984 416.522893 
L 456.772537 493.78072 
L 456.99209 355.508815 
L 457.211643 441.939776 
L 457.431197 357.747545 
L 457.65075 457.612583 
L 457.870303 444.563483 
L 458.309409 486.537879 
L 458.528962 300.113182 
L 458.748515 308.48696 
L 458.968069 460.840678 
L 459.187622 462.631355 
L 459.407175 525.253172 
L 460.065834 426.025333 
L 460.504941 504.732442 
L 460.724494 289.745101 
L 461.1636 483.344916 
L 461.383153 553.76396 
L 461.82226 423.061317 
L 462.261366 531.325599 
L 462.480919 396.391009 
L 462.700472 469.426232 
L 462.920025 485.281633 
L 463.139579 452.750192 
L 463.359132 557.690736 
L 463.578685 423.294838 
L 463.798238 508.806596 
L 464.017791 399.958592 
L 464.237344 359.840201 
L 464.456897 480.353409 
L 464.676451 318.158776 
L 464.896004 452.319132 
L 465.115557 473.285936 
L 465.33511 477.907029 
L 465.554663 510.734378 
L 465.774216 392.235672 
L 465.993769 429.311587 
L 466.213323 380.759754 
L 466.652429 535.617635 
L 466.871982 492.415942 
L 467.091535 506.293609 
L 467.311088 417.312572 
L 467.530642 512.578121 
L 467.750195 485.965192 
L 467.969748 475.648868 
L 468.189301 432.335274 
L 468.628407 497.155136 
L 468.84796 469.687579 
L 469.50662 427.182466 
L 469.726173 461.155303 
L 469.945726 467.631842 
L 470.384833 399.374788 
L 470.604386 465.348925 
L 470.823939 427.511337 
L 471.043492 474.897754 
L 471.482598 316.39818 
L 471.702151 441.870671 
L 471.921705 395.824844 
L 472.141258 381.107325 
L 472.580364 491.722059 
L 472.799917 341.778942 
L 473.01947 437.206849 
L 473.239024 422.688197 
L 473.458577 333.993637 
L 473.67813 377.464192 
L 473.897683 479.319451 
L 474.117236 400.66074 
L 474.336789 425.029813 
L 474.556342 420.815134 
L 474.775896 507.391199 
L 475.434555 356.672303 
L 475.654108 479.620529 
L 476.093215 500.136164 
L 476.312768 442.454746 
L 476.532321 504.457943 
L 476.751874 474.098459 
L 476.971427 293.606297 
L 477.19098 511.756048 
L 477.630087 432.367159 
L 477.84964 402.877894 
L 478.288746 559.379812 
L 478.508299 415.451381 
L 478.727852 502.173859 
L 478.947406 356.285626 
L 479.166959 314.0023 
L 479.386512 417.355219 
L 479.606065 417.589622 
L 479.825618 453.43065 
L 480.045171 466.319798 
L 480.264724 515.871533 
L 480.484278 388.79271 
L 480.703831 449.129504 
L 480.923384 452.484764 
L 481.142937 405.41317 
L 481.36249 394.990811 
L 481.582043 225.305938 
L 481.801597 471.655425 
L 482.02115 363.304775 
L 482.460256 514.344643 
L 482.679809 472.460591 
L 482.899362 482.11428 
L 483.118915 376.296652 
L 483.558022 542.930703 
L 483.777575 401.296867 
L 483.997128 496.252869 
L 484.216681 487.964075 
L 484.436234 365.600216 
L 484.655788 535.650749 
L 484.875341 473.181226 
L 485.094894 470.88926 
L 485.314447 475.895024 
L 485.534 378.179446 
L 485.753553 461.382954 
L 485.973106 339.549906 
L 486.19266 460.271908 
L 486.412213 447.976142 
L 486.631766 524.421558 
L 486.851319 398.764138 
L 487.070872 398.019422 
L 487.290425 478.736088 
L 487.509979 502.649746 
L 487.729532 387.204131 
L 487.949085 530.198717 
L 488.168638 457.820075 
L 488.388191 505.413791 
L 488.607744 452.416278 
L 488.827297 525.980438 
L 489.046851 476.260234 
L 489.266404 470.175522 
L 489.485957 495.962473 
L 489.70551 471.632266 
L 489.925063 420.798205 
L 490.364169 488.822532 
L 490.803276 382.38901 
L 491.242382 495.336562 
L 491.461935 457.802788 
L 491.681488 561.767399 
L 492.120595 397.242727 
L 492.340148 480.390339 
L 492.559701 488.186378 
L 492.779254 404.926173 
L 492.998807 406.289887 
L 493.21836 362.881042 
L 493.437914 485.715669 
L 493.657467 433.333182 
L 493.87702 493.294824 
L 494.096573 382.258318 
L 494.316126 407.556879 
L 494.755233 493.548815 
L 494.974786 457.395537 
L 495.194339 515.823337 
L 495.413892 388.542013 
L 495.633445 498.578972 
L 495.852998 536.146171 
L 496.072551 472.283779 
L 496.292105 450.386694 
L 496.511658 509.52069 
L 496.731211 349.291811 
L 496.950764 519.030566 
L 497.170317 512.277485 
L 497.38987 283.13124 
L 497.609424 492.206457 
L 497.828977 437.479274 
L 498.04853 512.503343 
L 498.268083 493.235853 
L 498.707189 395.52682 
L 498.926742 411.756458 
L 499.146296 477.564974 
L 499.365849 435.633697 
L 499.585402 372.350191 
L 499.804955 244.801211 
L 500.024508 471.575861 
L 500.244061 396.208487 
L 500.463615 499.180103 
L 500.683168 327.125067 
L 500.902721 445.099646 
L 501.122274 463.604437 
L 501.341827 439.182796 
L 501.56138 497.688926 
L 501.780933 452.5123 
L 502.000487 511.640803 
L 502.439593 367.895026 
L 502.659146 435.633569 
L 502.878699 463.265721 
L 503.098252 513.78712 
L 503.537359 410.442796 
L 503.756912 424.388804 
L 503.976465 452.595959 
L 504.415571 359.816794 
L 504.635124 460.328485 
L 504.854678 487.282896 
L 505.074231 528.250234 
L 505.293784 168.093038 
L 505.513337 454.229741 
L 505.73289 386.661664 
L 505.952443 430.660652 
L 506.171997 438.770321 
L 506.39155 398.470761 
L 506.611103 308.863729 
L 506.830656 509.29756 
L 507.050209 543.796766 
L 507.269762 443.715129 
L 507.489315 532.539517 
L 507.708869 449.808219 
L 507.928422 477.455429 
L 508.147975 457.813809 
L 508.367528 452.312901 
L 508.806634 367.308102 
L 509.026188 434.0687 
L 509.245741 315.954194 
L 509.465294 519.96447 
L 509.684847 470.777029 
L 509.9044 452.489567 
L 510.123953 492.578222 
L 510.343506 500.952392 
L 510.782613 346.540938 
L 511.002166 471.23988 
L 511.221719 433.368135 
L 511.441272 496.184683 
L 511.660825 507.688168 
L 511.880379 282.947036 
L 512.099932 373.513377 
L 512.319485 539.406205 
L 512.539038 479.297533 
L 512.758591 475.467025 
L 512.978144 336.999394 
L 513.197697 510.214481 
L 513.417251 533.207082 
L 513.636804 374.658898 
L 514.295463 552.619542 
L 514.515016 443.815824 
L 514.954123 460.480494 
L 515.173676 509.046512 
L 515.393229 478.196106 
L 515.612782 471.732027 
L 515.832335 332.51637 
L 516.051888 398.95917 
L 516.271442 505.431563 
L 516.490995 445.030137 
L 516.710548 463.890234 
L 516.930101 454.753468 
L 517.149654 416.399586 
L 517.369207 513.485098 
L 517.58876 470.807814 
L 517.808314 375.834944 
L 518.027867 509.782881 
L 518.24742 255.24874 
L 518.466973 189.60218 
L 518.686526 472.570906 
L 518.906079 318.164614 
L 519.125633 431.697713 
L 519.345186 365.932626 
L 519.564739 445.264335 
L 520.003845 524.541231 
L 520.223398 408.453461 
L 520.442951 481.602833 
L 520.662505 325.045668 
L 520.882058 515.682529 
L 521.321164 407.690504 
L 521.540717 457.790456 
L 521.76027 535.518467 
L 521.979824 322.628726 
L 522.199377 510.625604 
L 522.41893 435.404256 
L 522.638483 480.495431 
L 522.858036 338.358976 
L 523.077589 495.215101 
L 523.297142 502.441338 
L 523.516696 391.564116 
L 523.736249 482.053214 
L 523.955802 364.602724 
L 524.175355 491.962517 
L 524.394908 434.482462 
L 524.614461 496.034828 
L 524.834015 463.200136 
L 525.053568 385.318417 
L 525.273121 492.715344 
L 525.492674 432.142727 
L 525.712227 502.689603 
L 525.93178 444.72342 
L 526.151333 461.883981 
L 526.370887 431.280269 
L 526.59044 225.713005 
L 527.029546 505.526806 
L 527.249099 420.432087 
L 527.468652 442.112284 
L 527.688206 363.457787 
L 527.907759 402.877565 
L 528.127312 398.74717 
L 528.346865 400.796636 
L 528.566418 476.298109 
L 529.005524 324.864591 
L 529.225078 462.349057 
L 529.444631 466.729788 
L 529.664184 437.151941 
L 529.883737 483.821864 
L 530.10329 464.276644 
L 530.322843 388.036974 
L 530.542397 510.44774 
L 530.76195 446.717927 
L 530.981503 463.525574 
L 531.201056 340.897132 
L 531.420609 502.172673 
L 531.640162 352.311536 
L 531.859715 427.518736 
L 532.079269 377.127927 
L 532.298822 484.791105 
L 532.518375 477.280981 
L 532.737928 417.358483 
L 532.957481 518.454567 
L 533.177034 413.349841 
L 533.616141 477.678243 
L 533.835694 463.646172 
L 534.055247 505.490439 
L 534.2748 407.19848 
L 534.494353 368.562603 
L 534.713906 382.659067 
L 534.93346 495.844864 
L 535.153013 523.040394 
L 535.372566 413.161428 
L 535.592119 490.752386 
L 535.811672 423.04598 
L 536.031225 412.251828 
L 536.470332 509.807854 
L 536.689885 488.900218 
L 536.909438 492.932982 
L 537.128991 450.455717 
L 537.348544 430.216015 
L 537.568097 511.582117 
L 537.787651 432.298845 
L 538.007204 434.177094 
L 538.226757 471.033988 
L 538.44631 456.74815 
L 538.665863 486.178898 
L 538.885416 471.814696 
L 539.10497 502.793761 
L 539.324523 514.06334 
L 539.544076 498.933483 
L 539.763629 464.975436 
L 539.983182 509.656119 
L 540.202735 481.558509 
L 540.422288 521.306053 
L 540.641842 310.177945 
L 540.861395 221.190515 
L 541.080948 515.738366 
L 541.300501 557.256672 
L 541.520054 332.883037 
L 541.739607 511.551373 
L 541.95916 320.951596 
L 542.178714 447.592313 
L 542.398267 449.457421 
L 542.61782 480.748782 
L 542.837373 470.354076 
L 543.276479 429.160518 
L 543.496033 276.278792 
L 543.715586 496.198448 
L 543.935139 496.144776 
L 544.154692 500.505472 
L 544.374245 283.482372 
L 544.593798 459.660917 
L 544.813351 386.310232 
L 545.032905 400.520333 
L 545.252458 319.551967 
L 545.472011 480.075243 
L 545.691564 533.449735 
L 545.911117 469.886784 
L 546.13067 364.786051 
L 546.350224 480.143361 
L 546.569777 336.007944 
L 546.78933 499.953026 
L 547.008883 451.210184 
L 547.228436 452.260693 
L 547.447989 370.691998 
L 547.667542 470.466703 
L 547.887096 488.087267 
L 548.106649 298.878248 
L 548.326202 572.036681 
L 548.545755 482.846777 
L 548.765308 511.336463 
L 548.984861 361.224102 
L 549.204415 465.223988 
L 549.423968 344.27333 
L 549.863074 558.120194 
L 550.082627 472.458582 
L 550.30218 477.27248 
L 550.521733 542.621159 
L 550.741287 500.761256 
L 550.96084 338.597169 
L 551.180393 470.268359 
L 551.399946 500.889589 
L 551.619499 431.701457 
L 551.839052 483.873814 
L 552.058606 497.181936 
L 552.278159 442.459685 
L 552.497712 454.616435 
L 552.717265 413.426672 
L 552.936818 443.033643 
L 553.156371 504.674968 
L 553.375924 483.079179 
L 553.595478 396.20126 
L 553.815031 500.613251 
L 554.034584 352.094767 
L 554.254137 547.98255 
L 554.47369 452.828559 
L 554.693243 451.73068 
L 554.912797 473.171816 
L 555.13235 523.396727 
L 555.571456 353.96042 
L 556.010562 487.439716 
L 556.230115 434.491855 
L 556.449669 455.670176 
L 556.669222 416.099244 
L 556.888775 548.788649 
L 557.327881 410.218202 
L 557.547434 442.822551 
L 557.986541 321.886656 
L 558.206094 484.251754 
L 558.425647 485.852755 
L 558.6452 505.466725 
L 558.864753 312.009972 
L 559.084306 476.931112 
L 559.30386 428.271853 
L 559.523413 483.760153 
L 559.742966 510.52862 
L 559.742966 510.52862 
" style="fill:none;stroke:#96c69a;stroke-linecap:round;stroke-width:3;"/>
   </g>
   <g id="line2d_2"/>
   <g id="patch_3">
    <path d="M 98.911875 603.86 
L 98.911875 109.484571 
" style="fill:none;stroke:#262626;stroke-linecap:square;stroke-linejoin:miter;stroke-width:2.5;"/>
   </g>
   <g id="patch_4">
    <path d="M 98.911875 603.86 
L 581.687304 603.86 
" style="fill:none;stroke:#262626;stroke-linecap:square;stroke-linejoin:miter;stroke-width:2.5;"/>
   </g>
   <g id="legend_1">
    <g id="patch_5">
     <path d="M 528.771679 598.86 
L 574.687304 598.86 
Q 576.687304 598.86 576.687304 596.86 
L 576.687304 554.954375 
Q 576.687304 552.954375 574.687304 552.954375 
L 528.771679 552.954375 
Q 526.771679 552.954375 526.771679 554.954375 
L 526.771679 596.86 
Q 526.771679 598.86 528.771679 598.86 
z
" style="fill:#ffffff;opacity:0.8;stroke:#cccccc;stroke-linejoin:miter;stroke-width:2;"/>
    </g>
    <g id="text_17">
     <!-- $n_\tau$ -->
     <g style="fill:#262626;" transform="translate(538.649491 575.190625)scale(0.24 -0.24)">
      <defs>
       <path d="M 3566 2113 
L 3156 0 
L 2578 0 
L 2988 2091 
Q 3016 2238 3031 2350 
Q 3047 2463 3047 2528 
Q 3047 2791 2881 2937 
Q 2716 3084 2419 3084 
Q 1956 3084 1622 2776 
Q 1288 2469 1184 1941 
L 800 0 
L 225 0 
L 903 3500 
L 1478 3500 
L 1363 2950 
Q 1603 3253 1940 3418 
Q 2278 3584 2650 3584 
Q 3113 3584 3367 3334 
Q 3622 3084 3622 2631 
Q 3622 2519 3608 2391 
Q 3594 2263 3566 2113 
z
" id="DejaVuSans-Oblique-6e" transform="scale(0.015625)"/>
       <path d="M 2103 638 
Q 2188 488 2525 488 
L 2800 488 
L 2706 0 
L 2363 0 
Q 1800 0 1600 300 
Q 1403 606 1534 1269 
L 1856 2925 
L 541 2925 
L 653 3500 
L 3881 3500 
L 3769 2925 
L 2444 2925 
L 2113 1234 
Q 2025 781 2103 638 
z
" id="DejaVuSans-Oblique-3c4" transform="scale(0.015625)"/>
      </defs>
      <use xlink:href="#DejaVuSans-Oblique-6e"/>
      <use transform="translate(63.378906 -16.40625)scale(0.7)" xlink:href="#DejaVuSans-Oblique-3c4"/>
     </g>
    </g>
    <g id="line2d_3">
     <path d="M 530.771679 589.280313 
L 550.771679 589.280313 
" style="fill:none;stroke:#96c69a;stroke-linecap:round;stroke-width:3;"/>
    </g>
    <g id="line2d_4"/>
    <g id="text_18">
     <!-- 90 -->
     <g style="fill:#262626;" transform="translate(558.771679 592.780313)scale(0.1 -0.1)">
      <defs>
       <path d="M 641 103 
L 641 966 
Q 928 831 1190 764 
Q 1453 697 1709 697 
Q 2247 697 2547 995 
Q 2847 1294 2900 1881 
Q 2688 1725 2447 1647 
Q 2206 1569 1925 1569 
Q 1209 1569 770 1986 
Q 331 2403 331 3084 
Q 331 3838 820 4291 
Q 1309 4744 2131 4744 
Q 3044 4744 3544 4128 
Q 4044 3513 4044 2388 
Q 4044 1231 3459 570 
Q 2875 -91 1856 -91 
Q 1528 -91 1228 -42 
Q 928 6 641 103 
z
M 2125 2350 
Q 2441 2350 2600 2554 
Q 2759 2759 2759 3169 
Q 2759 3575 2600 3781 
Q 2441 3988 2125 3988 
Q 1809 3988 1650 3781 
Q 1491 3575 1491 3169 
Q 1491 2759 1650 2554 
Q 1809 2350 2125 2350 
z
" id="DejaVuSans-Bold-39" transform="scale(0.015625)"/>
       <path d="M 2944 2338 
Q 2944 3213 2780 3570 
Q 2616 3928 2228 3928 
Q 1841 3928 1675 3570 
Q 1509 3213 1509 2338 
Q 1509 1453 1675 1090 
Q 1841 728 2228 728 
Q 2613 728 2778 1090 
Q 2944 1453 2944 2338 
z
M 4147 2328 
Q 4147 1169 3647 539 
Q 3147 -91 2228 -91 
Q 1306 -91 806 539 
Q 306 1169 306 2328 
Q 306 3491 806 4120 
Q 1306 4750 2228 4750 
Q 3147 4750 3647 4120 
Q 4147 3491 4147 2328 
z
" id="DejaVuSans-Bold-30" transform="scale(0.015625)"/>
      </defs>
      <use xlink:href="#DejaVuSans-Bold-39"/>
      <use x="69.580078" xlink:href="#DejaVuSans-Bold-30"/>
     </g>
    </g>
   </g>
  </g>
  <g id="axes_2">
   <g id="patch_6">
    <path d="M 98.911875 92.437143 
L 581.687304 92.437143 
L 581.687304 7.2 
L 98.911875 7.2 
z
" style="fill:none;"/>
   </g>
   <g id="matplotlib.axis_3">
    <g id="xtick_7"/>
    <g id="xtick_8"/>
    <g id="xtick_9"/>
    <g id="xtick_10"/>
    <g id="xtick_11"/>
    <g id="xtick_12"/>
   </g>
   <g id="matplotlib.axis_4">
    <g id="ytick_9">
     <g id="text_19">
      <!-- 0 -->
      <g style="fill:#262626;" transform="translate(69.414375 100.795424)scale(0.22 -0.22)">
       <use xlink:href="#DejaVuSans-30"/>
      </g>
     </g>
    </g>
    <g id="ytick_10">
     <g id="text_20">
      <!-- 100 -->
      <g style="fill:#262626;" transform="translate(41.419375 48.082287)scale(0.22 -0.22)">
       <use xlink:href="#DejaVuSans-31"/>
       <use x="63.623047" xlink:href="#DejaVuSans-30"/>
       <use x="127.246094" xlink:href="#DejaVuSans-30"/>
      </g>
     </g>
    </g>
   </g>
   <g id="patch_7">
    <path clip-path="url(#pb5d33a0956)" d="M 120.856213 92.437143 
L 154.616732 92.437143 
L 154.616732 11.258912 
L 120.856213 11.258912 
z
" style="fill:#96c69a;fill-opacity:0.5;stroke:#ffffff;stroke-linejoin:miter;stroke-width:2;"/>
   </g>
   <g id="patch_8">
    <path clip-path="url(#pb5d33a0956)" d="M 154.616732 92.437143 
L 188.377252 92.437143 
L 188.377252 11.258912 
L 154.616732 11.258912 
z
" style="fill:#96c69a;fill-opacity:0.5;stroke:#ffffff;stroke-linejoin:miter;stroke-width:2;"/>
   </g>
   <g id="patch_9">
    <path clip-path="url(#pb5d33a0956)" d="M 188.377252 92.437143 
L 222.137771 92.437143 
L 222.137771 11.258912 
L 188.377252 11.258912 
z
" style="fill:#96c69a;fill-opacity:0.5;stroke:#ffffff;stroke-linejoin:miter;stroke-width:2;"/>
   </g>
   <g id="patch_10">
    <path clip-path="url(#pb5d33a0956)" d="M 222.137771 92.437143 
L 255.898291 92.437143 
L 255.898291 11.258912 
L 222.137771 11.258912 
z
" style="fill:#96c69a;fill-opacity:0.5;stroke:#ffffff;stroke-linejoin:miter;stroke-width:2;"/>
   </g>
   <g id="patch_11">
    <path clip-path="url(#pb5d33a0956)" d="M 255.898291 92.437143 
L 289.65881 92.437143 
L 289.65881 11.786043 
L 255.898291 11.786043 
z
" style="fill:#96c69a;fill-opacity:0.5;stroke:#ffffff;stroke-linejoin:miter;stroke-width:2;"/>
   </g>
   <g id="patch_12">
    <path clip-path="url(#pb5d33a0956)" d="M 289.65881 92.437143 
L 323.41933 92.437143 
L 323.41933 11.258912 
L 289.65881 11.258912 
z
" style="fill:#96c69a;fill-opacity:0.5;stroke:#ffffff;stroke-linejoin:miter;stroke-width:2;"/>
   </g>
   <g id="patch_13">
    <path clip-path="url(#pb5d33a0956)" d="M 323.41933 92.437143 
L 357.179849 92.437143 
L 357.179849 11.258912 
L 323.41933 11.258912 
z
" style="fill:#96c69a;fill-opacity:0.5;stroke:#ffffff;stroke-linejoin:miter;stroke-width:2;"/>
   </g>
   <g id="patch_14">
    <path clip-path="url(#pb5d33a0956)" d="M 357.179849 92.437143 
L 390.940369 92.437143 
L 390.940369 11.258912 
L 357.179849 11.258912 
z
" style="fill:#96c69a;fill-opacity:0.5;stroke:#ffffff;stroke-linejoin:miter;stroke-width:2;"/>
   </g>
   <g id="patch_15">
    <path clip-path="url(#pb5d33a0956)" d="M 390.940369 92.437143 
L 424.700888 92.437143 
L 424.700888 11.786043 
L 390.940369 11.786043 
z
" style="fill:#96c69a;fill-opacity:0.5;stroke:#ffffff;stroke-linejoin:miter;stroke-width:2;"/>
   </g>
   <g id="patch_16">
    <path clip-path="url(#pb5d33a0956)" d="M 424.700888 92.437143 
L 458.461407 92.437143 
L 458.461407 11.258912 
L 424.700888 11.258912 
z
" style="fill:#96c69a;fill-opacity:0.5;stroke:#ffffff;stroke-linejoin:miter;stroke-width:2;"/>
   </g>
   <g id="patch_17">
    <path clip-path="url(#pb5d33a0956)" d="M 458.461407 92.437143 
L 492.221927 92.437143 
L 492.221927 11.258912 
L 458.461407 11.258912 
z
" style="fill:#96c69a;fill-opacity:0.5;stroke:#ffffff;stroke-linejoin:miter;stroke-width:2;"/>
   </g>
   <g id="patch_18">
    <path clip-path="url(#pb5d33a0956)" d="M 492.221927 92.437143 
L 525.982446 92.437143 
L 525.982446 11.258912 
L 492.221927 11.258912 
z
" style="fill:#96c69a;fill-opacity:0.5;stroke:#ffffff;stroke-linejoin:miter;stroke-width:2;"/>
   </g>
   <g id="patch_19">
    <path clip-path="url(#pb5d33a0956)" d="M 525.982446 92.437143 
L 559.742966 92.437143 
L 559.742966 11.258912 
L 525.982446 11.258912 
z
" style="fill:#96c69a;fill-opacity:0.5;stroke:#ffffff;stroke-linejoin:miter;stroke-width:2;"/>
   </g>
   <g id="patch_20">
    <path d="M 98.911875 92.437143 
L 98.911875 7.2 
" style="fill:none;stroke:#262626;stroke-linecap:square;stroke-linejoin:miter;stroke-width:2.5;"/>
   </g>
   <g id="patch_21">
    <path d="M 98.911875 92.437143 
L 581.687304 92.437143 
" style="fill:none;stroke:#262626;stroke-linecap:square;stroke-linejoin:miter;stroke-width:2.5;"/>
   </g>
  </g>
  <g id="axes_3">
   <g id="patch_22">
    <path d="M 598.334732 603.86 
L 681.571875 603.86 
L 681.571875 109.484571 
L 598.334732 109.484571 
z
" style="fill:none;"/>
   </g>
   <g id="matplotlib.axis_5">
    <g id="xtick_13">
     <g id="text_21">
      <!-- 0 -->
      <g style="fill:#262626;" transform="translate(591.335982 636.076563)scale(0.22 -0.22)">
       <use xlink:href="#DejaVuSans-30"/>
      </g>
     </g>
    </g>
    <g id="xtick_14">
     <g id="text_22">
      <!-- 100 -->
      <g style="fill:#262626;" transform="translate(620.895333 636.076563)scale(0.22 -0.22)">
       <use xlink:href="#DejaVuSans-31"/>
       <use x="63.623047" xlink:href="#DejaVuSans-30"/>
       <use x="127.246094" xlink:href="#DejaVuSans-30"/>
      </g>
     </g>
    </g>
   </g>
   <g id="matplotlib.axis_6">
    <g id="ytick_11"/>
    <g id="ytick_12"/>
    <g id="ytick_13"/>
    <g id="ytick_14"/>
    <g id="ytick_15"/>
    <g id="ytick_16"/>
    <g id="ytick_17"/>
    <g id="ytick_18"/>
   </g>
   <g id="patch_23">
    <path clip-path="url(#pbb9f721e4a)" d="M 598.334732 581.38839 
L 599.641438 581.38839 
L 599.641438 569.241573 
L 598.334732 569.241573 
z
" style="fill:#96c69a;fill-opacity:0.5;stroke:#ffffff;stroke-linejoin:miter;stroke-width:1.214682;"/>
   </g>
   <g id="patch_24">
    <path clip-path="url(#pbb9f721e4a)" d="M 598.334732 569.241573 
L 605.303828 569.241573 
L 605.303828 557.094757 
L 598.334732 557.094757 
z
" style="fill:#96c69a;fill-opacity:0.5;stroke:#ffffff;stroke-linejoin:miter;stroke-width:1.214682;"/>
   </g>
   <g id="patch_25">
    <path clip-path="url(#pbb9f721e4a)" d="M 598.334732 557.094757 
L 604.86826 557.094757 
L 604.86826 544.94794 
L 598.334732 544.94794 
z
" style="fill:#96c69a;fill-opacity:0.5;stroke:#ffffff;stroke-linejoin:miter;stroke-width:1.214682;"/>
   </g>
   <g id="patch_26">
    <path clip-path="url(#pbb9f721e4a)" d="M 598.334732 544.94794 
L 621.855432 544.94794 
L 621.855432 532.801124 
L 598.334732 532.801124 
z
" style="fill:#96c69a;fill-opacity:0.5;stroke:#ffffff;stroke-linejoin:miter;stroke-width:1.214682;"/>
   </g>
   <g id="patch_27">
    <path clip-path="url(#pbb9f721e4a)" d="M 598.334732 532.801124 
L 633.615782 532.801124 
L 633.615782 520.654307 
L 598.334732 520.654307 
z
" style="fill:#96c69a;fill-opacity:0.5;stroke:#ffffff;stroke-linejoin:miter;stroke-width:1.214682;"/>
   </g>
   <g id="patch_28">
    <path clip-path="url(#pbb9f721e4a)" d="M 598.334732 520.654307 
L 651.474091 520.654307 
L 651.474091 508.507491 
L 598.334732 508.507491 
z
" style="fill:#96c69a;fill-opacity:0.5;stroke:#ffffff;stroke-linejoin:miter;stroke-width:1.214682;"/>
   </g>
   <g id="patch_29">
    <path clip-path="url(#pbb9f721e4a)" d="M 598.334732 508.507491 
L 656.265344 508.507491 
L 656.265344 496.360675 
L 598.334732 496.360675 
z
" style="fill:#96c69a;fill-opacity:0.5;stroke:#ffffff;stroke-linejoin:miter;stroke-width:1.214682;"/>
   </g>
   <g id="patch_30">
    <path clip-path="url(#pbb9f721e4a)" d="M 598.334732 496.360675 
L 667.590126 496.360675 
L 667.590126 484.213858 
L 598.334732 484.213858 
z
" style="fill:#96c69a;fill-opacity:0.5;stroke:#ffffff;stroke-linejoin:miter;stroke-width:1.214682;"/>
   </g>
   <g id="patch_31">
    <path clip-path="url(#pbb9f721e4a)" d="M 598.334732 484.213858 
L 667.590126 484.213858 
L 667.590126 472.067042 
L 598.334732 472.067042 
z
" style="fill:#96c69a;fill-opacity:0.5;stroke:#ffffff;stroke-linejoin:miter;stroke-width:1.214682;"/>
   </g>
   <g id="patch_32">
    <path clip-path="url(#pbb9f721e4a)" d="M 598.334732 472.067042 
L 677.608202 472.067042 
L 677.608202 459.920225 
L 598.334732 459.920225 
z
" style="fill:#96c69a;fill-opacity:0.5;stroke:#ffffff;stroke-linejoin:miter;stroke-width:1.214682;"/>
   </g>
   <g id="patch_33">
    <path clip-path="url(#pbb9f721e4a)" d="M 598.334732 459.920225 
L 673.252516 459.920225 
L 673.252516 447.773409 
L 598.334732 447.773409 
z
" style="fill:#96c69a;fill-opacity:0.5;stroke:#ffffff;stroke-linejoin:miter;stroke-width:1.214682;"/>
   </g>
   <g id="patch_34">
    <path clip-path="url(#pbb9f721e4a)" d="M 598.334732 447.773409 
L 658.878755 447.773409 
L 658.878755 435.626592 
L 598.334732 435.626592 
z
" style="fill:#96c69a;fill-opacity:0.5;stroke:#ffffff;stroke-linejoin:miter;stroke-width:1.214682;"/>
   </g>
   <g id="patch_35">
    <path clip-path="url(#pbb9f721e4a)" d="M 598.334732 435.626592 
L 657.136481 435.626592 
L 657.136481 423.479776 
L 598.334732 423.479776 
z
" style="fill:#96c69a;fill-opacity:0.5;stroke:#ffffff;stroke-linejoin:miter;stroke-width:1.214682;"/>
   </g>
   <g id="patch_36">
    <path clip-path="url(#pbb9f721e4a)" d="M 598.334732 423.479776 
L 655.829776 423.479776 
L 655.829776 411.33296 
L 598.334732 411.33296 
z
" style="fill:#96c69a;fill-opacity:0.5;stroke:#ffffff;stroke-linejoin:miter;stroke-width:1.214682;"/>
   </g>
   <g id="patch_37">
    <path clip-path="url(#pbb9f721e4a)" d="M 598.334732 411.33296 
L 638.407035 411.33296 
L 638.407035 399.186143 
L 598.334732 399.186143 
z
" style="fill:#96c69a;fill-opacity:0.5;stroke:#ffffff;stroke-linejoin:miter;stroke-width:1.214682;"/>
   </g>
   <g id="patch_38">
    <path clip-path="url(#pbb9f721e4a)" d="M 598.334732 399.186143 
L 631.002371 399.186143 
L 631.002371 387.039327 
L 598.334732 387.039327 
z
" style="fill:#96c69a;fill-opacity:0.5;stroke:#ffffff;stroke-linejoin:miter;stroke-width:1.214682;"/>
   </g>
   <g id="patch_39">
    <path clip-path="url(#pbb9f721e4a)" d="M 598.334732 387.039327 
L 626.211117 387.039327 
L 626.211117 374.89251 
L 598.334732 374.89251 
z
" style="fill:#96c69a;fill-opacity:0.5;stroke:#ffffff;stroke-linejoin:miter;stroke-width:1.214682;"/>
   </g>
   <g id="patch_40">
    <path clip-path="url(#pbb9f721e4a)" d="M 598.334732 374.89251 
L 622.726569 374.89251 
L 622.726569 362.745694 
L 598.334732 362.745694 
z
" style="fill:#96c69a;fill-opacity:0.5;stroke:#ffffff;stroke-linejoin:miter;stroke-width:1.214682;"/>
   </g>
   <g id="patch_41">
    <path clip-path="url(#pbb9f721e4a)" d="M 598.334732 362.745694 
L 616.193041 362.745694 
L 616.193041 350.598878 
L 598.334732 350.598878 
z
" style="fill:#96c69a;fill-opacity:0.5;stroke:#ffffff;stroke-linejoin:miter;stroke-width:1.214682;"/>
   </g>
   <g id="patch_42">
    <path clip-path="url(#pbb9f721e4a)" d="M 598.334732 350.598878 
L 616.193041 350.598878 
L 616.193041 338.452061 
L 598.334732 338.452061 
z
" style="fill:#96c69a;fill-opacity:0.5;stroke:#ffffff;stroke-linejoin:miter;stroke-width:1.214682;"/>
   </g>
   <g id="patch_43">
    <path clip-path="url(#pbb9f721e4a)" d="M 598.334732 338.452061 
L 611.401788 338.452061 
L 611.401788 326.305245 
L 598.334732 326.305245 
z
" style="fill:#96c69a;fill-opacity:0.5;stroke:#ffffff;stroke-linejoin:miter;stroke-width:1.214682;"/>
   </g>
   <g id="patch_44">
    <path clip-path="url(#pbb9f721e4a)" d="M 598.334732 326.305245 
L 610.966219 326.305245 
L 610.966219 314.158428 
L 598.334732 314.158428 
z
" style="fill:#96c69a;fill-opacity:0.5;stroke:#ffffff;stroke-linejoin:miter;stroke-width:1.214682;"/>
   </g>
   <g id="patch_45">
    <path clip-path="url(#pbb9f721e4a)" d="M 598.334732 314.158428 
L 603.561554 314.158428 
L 603.561554 302.011612 
L 598.334732 302.011612 
z
" style="fill:#96c69a;fill-opacity:0.5;stroke:#ffffff;stroke-linejoin:miter;stroke-width:1.214682;"/>
   </g>
   <g id="patch_46">
    <path clip-path="url(#pbb9f721e4a)" d="M 598.334732 302.011612 
L 603.561554 302.011612 
L 603.561554 289.864795 
L 598.334732 289.864795 
z
" style="fill:#96c69a;fill-opacity:0.5;stroke:#ffffff;stroke-linejoin:miter;stroke-width:1.214682;"/>
   </g>
   <g id="patch_47">
    <path clip-path="url(#pbb9f721e4a)" d="M 598.334732 289.864795 
L 602.690417 289.864795 
L 602.690417 277.717979 
L 598.334732 277.717979 
z
" style="fill:#96c69a;fill-opacity:0.5;stroke:#ffffff;stroke-linejoin:miter;stroke-width:1.214682;"/>
   </g>
   <g id="patch_48">
    <path clip-path="url(#pbb9f721e4a)" d="M 598.334732 277.717979 
L 603.125986 277.717979 
L 603.125986 265.571163 
L 598.334732 265.571163 
z
" style="fill:#96c69a;fill-opacity:0.5;stroke:#ffffff;stroke-linejoin:miter;stroke-width:1.214682;"/>
   </g>
   <g id="patch_49">
    <path clip-path="url(#pbb9f721e4a)" d="M 598.334732 265.571163 
L 602.690417 265.571163 
L 602.690417 253.424346 
L 598.334732 253.424346 
z
" style="fill:#96c69a;fill-opacity:0.5;stroke:#ffffff;stroke-linejoin:miter;stroke-width:1.214682;"/>
   </g>
   <g id="patch_50">
    <path clip-path="url(#pbb9f721e4a)" d="M 598.334732 253.424346 
L 599.641438 253.424346 
L 599.641438 241.27753 
L 598.334732 241.27753 
z
" style="fill:#96c69a;fill-opacity:0.5;stroke:#ffffff;stroke-linejoin:miter;stroke-width:1.214682;"/>
   </g>
   <g id="patch_51">
    <path clip-path="url(#pbb9f721e4a)" d="M 598.334732 241.27753 
L 598.770301 241.27753 
L 598.770301 229.130713 
L 598.334732 229.130713 
z
" style="fill:#96c69a;fill-opacity:0.5;stroke:#ffffff;stroke-linejoin:miter;stroke-width:1.214682;"/>
   </g>
   <g id="patch_52">
    <path clip-path="url(#pbb9f721e4a)" d="M 598.334732 229.130713 
L 600.077006 229.130713 
L 600.077006 216.983897 
L 598.334732 216.983897 
z
" style="fill:#96c69a;fill-opacity:0.5;stroke:#ffffff;stroke-linejoin:miter;stroke-width:1.214682;"/>
   </g>
   <g id="patch_53">
    <path clip-path="url(#pbb9f721e4a)" d="M 598.334732 216.983897 
L 598.334732 216.983897 
L 598.334732 204.83708 
L 598.334732 204.83708 
z
" style="fill:#96c69a;fill-opacity:0.5;stroke:#ffffff;stroke-linejoin:miter;stroke-width:1.214682;"/>
   </g>
   <g id="patch_54">
    <path clip-path="url(#pbb9f721e4a)" d="M 598.334732 204.83708 
L 599.205869 204.83708 
L 599.205869 192.690264 
L 598.334732 192.690264 
z
" style="fill:#96c69a;fill-opacity:0.5;stroke:#ffffff;stroke-linejoin:miter;stroke-width:1.214682;"/>
   </g>
   <g id="patch_55">
    <path clip-path="url(#pbb9f721e4a)" d="M 598.334732 192.690264 
L 599.641438 192.690264 
L 599.641438 180.543448 
L 598.334732 180.543448 
z
" style="fill:#96c69a;fill-opacity:0.5;stroke:#ffffff;stroke-linejoin:miter;stroke-width:1.214682;"/>
   </g>
   <g id="patch_56">
    <path clip-path="url(#pbb9f721e4a)" d="M 598.334732 180.543448 
L 598.334732 180.543448 
L 598.334732 168.396631 
L 598.334732 168.396631 
z
" style="fill:#96c69a;fill-opacity:0.5;stroke:#ffffff;stroke-linejoin:miter;stroke-width:1.214682;"/>
   </g>
   <g id="patch_57">
    <path clip-path="url(#pbb9f721e4a)" d="M 598.334732 168.396631 
L 598.770301 168.396631 
L 598.770301 156.249815 
L 598.334732 156.249815 
z
" style="fill:#96c69a;fill-opacity:0.5;stroke:#ffffff;stroke-linejoin:miter;stroke-width:1.214682;"/>
   </g>
   <g id="patch_58">
    <path clip-path="url(#pbb9f721e4a)" d="M 598.334732 156.249815 
L 598.334732 156.249815 
L 598.334732 144.102998 
L 598.334732 144.102998 
z
" style="fill:#96c69a;fill-opacity:0.5;stroke:#ffffff;stroke-linejoin:miter;stroke-width:1.214682;"/>
   </g>
   <g id="patch_59">
    <path clip-path="url(#pbb9f721e4a)" d="M 598.334732 144.102998 
L 598.770301 144.102998 
L 598.770301 131.956182 
L 598.334732 131.956182 
z
" style="fill:#96c69a;fill-opacity:0.5;stroke:#ffffff;stroke-linejoin:miter;stroke-width:1.214682;"/>
   </g>
   <g id="patch_60">
    <path d="M 598.334732 603.86 
L 598.334732 109.484571 
" style="fill:none;stroke:#262626;stroke-linecap:square;stroke-linejoin:miter;stroke-width:2.5;"/>
   </g>
   <g id="patch_61">
    <path d="M 598.334732 603.86 
L 681.571875 603.86 
" style="fill:none;stroke:#262626;stroke-linecap:square;stroke-linejoin:miter;stroke-width:2.5;"/>
   </g>
  </g>
 </g>
 <defs>
  <clipPath id="p89b5da8e79">
   <rect height="494.375429" width="482.775429" x="98.911875" y="109.484571"/>
  </clipPath>
  <clipPath id="pb5d33a0956">
   <rect height="85.237143" width="482.775429" x="98.911875" y="7.2"/>
  </clipPath>
  <clipPath id="pbb9f721e4a">
   <rect height="494.375429" width="83.237143" x="598.334732" y="109.484571"/>
  </clipPath>
 </defs>
</svg>
