<?xml version="1.0" encoding="utf-8" standalone="no"?>
<!DOCTYPE svg PUBLIC "-//W3C//DTD SVG 1.1//EN"
  "http://www.w3.org/Graphics/SVG/1.1/DTD/svg11.dtd">
<svg height="675.079375pt" version="1.1" viewBox="0 0 674.774375 675.079375" width="674.774375pt" xmlns="http://www.w3.org/2000/svg" xmlns:xlink="http://www.w3.org/1999/xlink">
 <metadata>
  <rdf:RDF xmlns:cc="http://creativecommons.org/ns#" xmlns:dc="http://purl.org/dc/elements/1.1/" xmlns:rdf="http://www.w3.org/1999/02/22-rdf-syntax-ns#">
   <cc:Work>
    <dc:type rdf:resource="http://purl.org/dc/dcmitype/StillImage"/>
    <dc:date>2021-07-16T21:44:06.667644</dc:date>
    <dc:format>image/svg+xml</dc:format>
    <dc:creator>
     <cc:Agent>
      <dc:title>Matplotlib v3.4.2, https://matplotlib.org/</dc:title>
     </cc:Agent>
    </dc:creator>
   </cc:Work>
  </rdf:RDF>
 </metadata>
 <defs>
  <style type="text/css">*{stroke-linecap:butt;stroke-linejoin:round;}</style>
 </defs>
 <g id="figure_1">
  <g id="patch_1">
   <path d="M 0 675.079375 
L 674.774375 675.079375 
L 674.774375 0 
L 0 0 
z
" style="fill:#ffffff;"/>
  </g>
  <g id="axes_1">
   <g id="patch_2">
    <path d="M 84.914375 603.86 
L 567.689804 603.86 
L 567.689804 109.484571 
L 84.914375 109.484571 
z
" style="fill:none;"/>
   </g>
   <g id="matplotlib.axis_1">
    <g id="xtick_1">
     <g id="text_1">
      <!-- 0 -->
      <g style="fill:#262626;" transform="translate(99.64041 636.076563)scale(0.22 -0.22)">
       <defs>
        <path d="M 2034 4250 
Q 1547 4250 1301 3770 
Q 1056 3291 1056 2328 
Q 1056 1369 1301 889 
Q 1547 409 2034 409 
Q 2525 409 2770 889 
Q 3016 1369 3016 2328 
Q 3016 3291 2770 3770 
Q 2525 4250 2034 4250 
z
M 2034 4750 
Q 2819 4750 3233 4129 
Q 3647 3509 3647 2328 
Q 3647 1150 3233 529 
Q 2819 -91 2034 -91 
Q 1250 -91 836 529 
Q 422 1150 422 2328 
Q 422 3509 836 4129 
Q 1250 4750 2034 4750 
z
" id="DejaVuSans-30" transform="scale(0.015625)"/>
       </defs>
       <use xlink:href="#DejaVuSans-30"/>
      </g>
     </g>
    </g>
    <g id="xtick_2">
     <g id="text_2">
      <!-- 20000 -->
      <g style="fill:#262626;" transform="translate(159.466671 636.076563)scale(0.22 -0.22)">
       <defs>
        <path d="M 1228 531 
L 3431 531 
L 3431 0 
L 469 0 
L 469 531 
Q 828 903 1448 1529 
Q 2069 2156 2228 2338 
Q 2531 2678 2651 2914 
Q 2772 3150 2772 3378 
Q 2772 3750 2511 3984 
Q 2250 4219 1831 4219 
Q 1534 4219 1204 4116 
Q 875 4013 500 3803 
L 500 4441 
Q 881 4594 1212 4672 
Q 1544 4750 1819 4750 
Q 2544 4750 2975 4387 
Q 3406 4025 3406 3419 
Q 3406 3131 3298 2873 
Q 3191 2616 2906 2266 
Q 2828 2175 2409 1742 
Q 1991 1309 1228 531 
z
" id="DejaVuSans-32" transform="scale(0.015625)"/>
       </defs>
       <use xlink:href="#DejaVuSans-32"/>
       <use x="63.623047" xlink:href="#DejaVuSans-30"/>
       <use x="127.246094" xlink:href="#DejaVuSans-30"/>
       <use x="190.869141" xlink:href="#DejaVuSans-30"/>
       <use x="254.492188" xlink:href="#DejaVuSans-30"/>
      </g>
     </g>
    </g>
    <g id="xtick_3">
     <g id="text_3">
      <!-- 40000 -->
      <g style="fill:#262626;" transform="translate(247.287932 636.076563)scale(0.22 -0.22)">
       <defs>
        <path d="M 2419 4116 
L 825 1625 
L 2419 1625 
L 2419 4116 
z
M 2253 4666 
L 3047 4666 
L 3047 1625 
L 3713 1625 
L 3713 1100 
L 3047 1100 
L 3047 0 
L 2419 0 
L 2419 1100 
L 313 1100 
L 313 1709 
L 2253 4666 
z
" id="DejaVuSans-34" transform="scale(0.015625)"/>
       </defs>
       <use xlink:href="#DejaVuSans-34"/>
       <use x="63.623047" xlink:href="#DejaVuSans-30"/>
       <use x="127.246094" xlink:href="#DejaVuSans-30"/>
       <use x="190.869141" xlink:href="#DejaVuSans-30"/>
       <use x="254.492188" xlink:href="#DejaVuSans-30"/>
      </g>
     </g>
    </g>
    <g id="xtick_4">
     <g id="text_4">
      <!-- 60000 -->
      <g style="fill:#262626;" transform="translate(335.109193 636.076563)scale(0.22 -0.22)">
       <defs>
        <path d="M 2113 2584 
Q 1688 2584 1439 2293 
Q 1191 2003 1191 1497 
Q 1191 994 1439 701 
Q 1688 409 2113 409 
Q 2538 409 2786 701 
Q 3034 994 3034 1497 
Q 3034 2003 2786 2293 
Q 2538 2584 2113 2584 
z
M 3366 4563 
L 3366 3988 
Q 3128 4100 2886 4159 
Q 2644 4219 2406 4219 
Q 1781 4219 1451 3797 
Q 1122 3375 1075 2522 
Q 1259 2794 1537 2939 
Q 1816 3084 2150 3084 
Q 2853 3084 3261 2657 
Q 3669 2231 3669 1497 
Q 3669 778 3244 343 
Q 2819 -91 2113 -91 
Q 1303 -91 875 529 
Q 447 1150 447 2328 
Q 447 3434 972 4092 
Q 1497 4750 2381 4750 
Q 2619 4750 2861 4703 
Q 3103 4656 3366 4563 
z
" id="DejaVuSans-36" transform="scale(0.015625)"/>
       </defs>
       <use xlink:href="#DejaVuSans-36"/>
       <use x="63.623047" xlink:href="#DejaVuSans-30"/>
       <use x="127.246094" xlink:href="#DejaVuSans-30"/>
       <use x="190.869141" xlink:href="#DejaVuSans-30"/>
       <use x="254.492188" xlink:href="#DejaVuSans-30"/>
      </g>
     </g>
    </g>
    <g id="xtick_5">
     <g id="text_5">
      <!-- 80000 -->
      <g style="fill:#262626;" transform="translate(422.930455 636.076563)scale(0.22 -0.22)">
       <defs>
        <path d="M 2034 2216 
Q 1584 2216 1326 1975 
Q 1069 1734 1069 1313 
Q 1069 891 1326 650 
Q 1584 409 2034 409 
Q 2484 409 2743 651 
Q 3003 894 3003 1313 
Q 3003 1734 2745 1975 
Q 2488 2216 2034 2216 
z
M 1403 2484 
Q 997 2584 770 2862 
Q 544 3141 544 3541 
Q 544 4100 942 4425 
Q 1341 4750 2034 4750 
Q 2731 4750 3128 4425 
Q 3525 4100 3525 3541 
Q 3525 3141 3298 2862 
Q 3072 2584 2669 2484 
Q 3125 2378 3379 2068 
Q 3634 1759 3634 1313 
Q 3634 634 3220 271 
Q 2806 -91 2034 -91 
Q 1263 -91 848 271 
Q 434 634 434 1313 
Q 434 1759 690 2068 
Q 947 2378 1403 2484 
z
M 1172 3481 
Q 1172 3119 1398 2916 
Q 1625 2713 2034 2713 
Q 2441 2713 2670 2916 
Q 2900 3119 2900 3481 
Q 2900 3844 2670 4047 
Q 2441 4250 2034 4250 
Q 1625 4250 1398 4047 
Q 1172 3844 1172 3481 
z
" id="DejaVuSans-38" transform="scale(0.015625)"/>
       </defs>
       <use xlink:href="#DejaVuSans-38"/>
       <use x="63.623047" xlink:href="#DejaVuSans-30"/>
       <use x="127.246094" xlink:href="#DejaVuSans-30"/>
       <use x="190.869141" xlink:href="#DejaVuSans-30"/>
       <use x="254.492188" xlink:href="#DejaVuSans-30"/>
      </g>
     </g>
    </g>
    <g id="xtick_6">
     <g id="text_6">
      <!-- 100000 -->
      <g style="fill:#262626;" transform="translate(503.752966 636.076563)scale(0.22 -0.22)">
       <defs>
        <path d="M 794 531 
L 1825 531 
L 1825 4091 
L 703 3866 
L 703 4441 
L 1819 4666 
L 2450 4666 
L 2450 531 
L 3481 531 
L 3481 0 
L 794 0 
L 794 531 
z
" id="DejaVuSans-31" transform="scale(0.015625)"/>
       </defs>
       <use xlink:href="#DejaVuSans-31"/>
       <use x="63.623047" xlink:href="#DejaVuSans-30"/>
       <use x="127.246094" xlink:href="#DejaVuSans-30"/>
       <use x="190.869141" xlink:href="#DejaVuSans-30"/>
       <use x="254.492188" xlink:href="#DejaVuSans-30"/>
       <use x="318.115234" xlink:href="#DejaVuSans-30"/>
      </g>
     </g>
    </g>
    <g id="text_7">
     <!-- MDTU -->
     <g style="fill:#262626;" transform="translate(290.596464 662.888125)scale(0.24 -0.24)">
      <defs>
       <path d="M 628 4666 
L 1569 4666 
L 2759 1491 
L 3956 4666 
L 4897 4666 
L 4897 0 
L 4281 0 
L 4281 4097 
L 3078 897 
L 2444 897 
L 1241 4097 
L 1241 0 
L 628 0 
L 628 4666 
z
" id="DejaVuSans-4d" transform="scale(0.015625)"/>
       <path d="M 1259 4147 
L 1259 519 
L 2022 519 
Q 2988 519 3436 956 
Q 3884 1394 3884 2338 
Q 3884 3275 3436 3711 
Q 2988 4147 2022 4147 
L 1259 4147 
z
M 628 4666 
L 1925 4666 
Q 3281 4666 3915 4102 
Q 4550 3538 4550 2338 
Q 4550 1131 3912 565 
Q 3275 0 1925 0 
L 628 0 
L 628 4666 
z
" id="DejaVuSans-44" transform="scale(0.015625)"/>
       <path d="M -19 4666 
L 3928 4666 
L 3928 4134 
L 2272 4134 
L 2272 0 
L 1638 0 
L 1638 4134 
L -19 4134 
L -19 4666 
z
" id="DejaVuSans-54" transform="scale(0.015625)"/>
       <path d="M 556 4666 
L 1191 4666 
L 1191 1831 
Q 1191 1081 1462 751 
Q 1734 422 2344 422 
Q 2950 422 3222 751 
Q 3494 1081 3494 1831 
L 3494 4666 
L 4128 4666 
L 4128 1753 
Q 4128 841 3676 375 
Q 3225 -91 2344 -91 
Q 1459 -91 1007 375 
Q 556 841 556 1753 
L 556 4666 
z
" id="DejaVuSans-55" transform="scale(0.015625)"/>
      </defs>
      <use xlink:href="#DejaVuSans-4d"/>
      <use x="86.279297" xlink:href="#DejaVuSans-44"/>
      <use x="163.28125" xlink:href="#DejaVuSans-54"/>
      <use x="224.365234" xlink:href="#DejaVuSans-55"/>
     </g>
    </g>
   </g>
   <g id="matplotlib.axis_2">
    <g id="ytick_1">
     <g id="text_8">
      <!-- 0.4 -->
      <g style="fill:#262626;" transform="translate(34.4275 569.08205)scale(0.22 -0.22)">
       <defs>
        <path d="M 684 794 
L 1344 794 
L 1344 0 
L 684 0 
L 684 794 
z
" id="DejaVuSans-2e" transform="scale(0.015625)"/>
       </defs>
       <use xlink:href="#DejaVuSans-30"/>
       <use x="63.623047" xlink:href="#DejaVuSans-2e"/>
       <use x="95.410156" xlink:href="#DejaVuSans-34"/>
      </g>
     </g>
    </g>
    <g id="ytick_2">
     <g id="text_9">
      <!-- 0.5 -->
      <g style="fill:#262626;" transform="translate(34.4275 502.813204)scale(0.22 -0.22)">
       <defs>
        <path d="M 691 4666 
L 3169 4666 
L 3169 4134 
L 1269 4134 
L 1269 2991 
Q 1406 3038 1543 3061 
Q 1681 3084 1819 3084 
Q 2600 3084 3056 2656 
Q 3513 2228 3513 1497 
Q 3513 744 3044 326 
Q 2575 -91 1722 -91 
Q 1428 -91 1123 -41 
Q 819 9 494 109 
L 494 744 
Q 775 591 1075 516 
Q 1375 441 1709 441 
Q 2250 441 2565 725 
Q 2881 1009 2881 1497 
Q 2881 1984 2565 2268 
Q 2250 2553 1709 2553 
Q 1456 2553 1204 2497 
Q 953 2441 691 2322 
L 691 4666 
z
" id="DejaVuSans-35" transform="scale(0.015625)"/>
       </defs>
       <use xlink:href="#DejaVuSans-30"/>
       <use x="63.623047" xlink:href="#DejaVuSans-2e"/>
       <use x="95.410156" xlink:href="#DejaVuSans-35"/>
      </g>
     </g>
    </g>
    <g id="ytick_3">
     <g id="text_10">
      <!-- 0.6 -->
      <g style="fill:#262626;" transform="translate(34.4275 436.544358)scale(0.22 -0.22)">
       <use xlink:href="#DejaVuSans-30"/>
       <use x="63.623047" xlink:href="#DejaVuSans-2e"/>
       <use x="95.410156" xlink:href="#DejaVuSans-36"/>
      </g>
     </g>
    </g>
    <g id="ytick_4">
     <g id="text_11">
      <!-- 0.7 -->
      <g style="fill:#262626;" transform="translate(34.4275 370.275513)scale(0.22 -0.22)">
       <defs>
        <path d="M 525 4666 
L 3525 4666 
L 3525 4397 
L 1831 0 
L 1172 0 
L 2766 4134 
L 525 4134 
L 525 4666 
z
" id="DejaVuSans-37" transform="scale(0.015625)"/>
       </defs>
       <use xlink:href="#DejaVuSans-30"/>
       <use x="63.623047" xlink:href="#DejaVuSans-2e"/>
       <use x="95.410156" xlink:href="#DejaVuSans-37"/>
      </g>
     </g>
    </g>
    <g id="ytick_5">
     <g id="text_12">
      <!-- 0.8 -->
      <g style="fill:#262626;" transform="translate(34.4275 304.006667)scale(0.22 -0.22)">
       <use xlink:href="#DejaVuSans-30"/>
       <use x="63.623047" xlink:href="#DejaVuSans-2e"/>
       <use x="95.410156" xlink:href="#DejaVuSans-38"/>
      </g>
     </g>
    </g>
    <g id="ytick_6">
     <g id="text_13">
      <!-- 0.9 -->
      <g style="fill:#262626;" transform="translate(34.4275 237.737821)scale(0.22 -0.22)">
       <defs>
        <path d="M 703 97 
L 703 672 
Q 941 559 1184 500 
Q 1428 441 1663 441 
Q 2288 441 2617 861 
Q 2947 1281 2994 2138 
Q 2813 1869 2534 1725 
Q 2256 1581 1919 1581 
Q 1219 1581 811 2004 
Q 403 2428 403 3163 
Q 403 3881 828 4315 
Q 1253 4750 1959 4750 
Q 2769 4750 3195 4129 
Q 3622 3509 3622 2328 
Q 3622 1225 3098 567 
Q 2575 -91 1691 -91 
Q 1453 -91 1209 -44 
Q 966 3 703 97 
z
M 1959 2075 
Q 2384 2075 2632 2365 
Q 2881 2656 2881 3163 
Q 2881 3666 2632 3958 
Q 2384 4250 1959 4250 
Q 1534 4250 1286 3958 
Q 1038 3666 1038 3163 
Q 1038 2656 1286 2365 
Q 1534 2075 1959 2075 
z
" id="DejaVuSans-39" transform="scale(0.015625)"/>
       </defs>
       <use xlink:href="#DejaVuSans-30"/>
       <use x="63.623047" xlink:href="#DejaVuSans-2e"/>
       <use x="95.410156" xlink:href="#DejaVuSans-39"/>
      </g>
     </g>
    </g>
    <g id="ytick_7">
     <g id="text_14">
      <!-- 1.0 -->
      <g style="fill:#262626;" transform="translate(34.4275 171.468975)scale(0.22 -0.22)">
       <use xlink:href="#DejaVuSans-31"/>
       <use x="63.623047" xlink:href="#DejaVuSans-2e"/>
       <use x="95.410156" xlink:href="#DejaVuSans-30"/>
      </g>
     </g>
    </g>
    <g id="text_15">
     <!-- $E$ -->
     <g style="fill:#262626;" transform="translate(25.43625 364.352286)rotate(-90)scale(0.24 -0.24)">
      <defs>
       <path d="M 1081 4666 
L 4031 4666 
L 3928 4134 
L 1606 4134 
L 1338 2753 
L 3566 2753 
L 3463 2222 
L 1234 2222 
L 909 531 
L 3284 531 
L 3181 0 
L 172 0 
L 1081 4666 
z
" id="DejaVuSans-Oblique-45" transform="scale(0.015625)"/>
      </defs>
      <use transform="translate(0 0.09375)" xlink:href="#DejaVuSans-Oblique-45"/>
     </g>
    </g>
   </g>
   <g id="line2d_1">
    <path clip-path="url(#p5f17a6a81b)" d="M 106.858713 400.313465 
L 107.078266 354.903569 
L 107.297819 416.298085 
L 107.517372 318.539807 
L 107.736925 432.261086 
L 108.176032 369.03692 
L 108.395585 498.379936 
L 108.615138 340.688686 
L 108.834691 405.018085 
L 109.054244 369.30026 
L 109.273797 261.403885 
L 109.712904 497.101516 
L 109.932457 365.208063 
L 110.15201 356.857252 
L 110.371563 252.875761 
L 110.591116 390.699903 
L 110.810669 283.266877 
L 111.249776 410.275648 
L 111.469329 410.625357 
L 111.688882 361.774381 
L 111.908435 455.549545 
L 112.127988 425.296759 
L 112.347541 463.516072 
L 112.567095 321.59662 
L 112.786648 351.001622 
L 113.006201 429.854413 
L 113.225754 361.625012 
L 113.445307 434.128057 
L 113.884414 380.507838 
L 114.103967 447.570801 
L 114.32352 358.670163 
L 114.543073 407.410567 
L 114.762626 519.148425 
L 114.982179 320.492414 
L 115.201732 425.531008 
L 115.421286 374.796216 
L 115.640839 410.545267 
L 115.860392 370.21861 
L 116.079945 357.948797 
L 116.299498 445.688003 
L 116.519051 386.936237 
L 116.738605 506.376349 
L 117.177711 271.253284 
L 117.397264 407.548056 
L 117.616817 271.75764 
L 117.83637 306.793637 
L 118.275477 472.747164 
L 118.49503 360.142803 
L 118.714583 446.173487 
L 118.934136 459.983666 
L 119.153689 386.599321 
L 119.373242 441.015194 
L 119.592796 425.883982 
L 120.031902 356.646332 
L 120.251455 361.051699 
L 120.471008 475.587483 
L 120.690561 224.196716 
L 120.910114 455.424646 
L 121.129668 319.606667 
L 121.349221 440.380696 
L 121.568774 390.665466 
L 121.788327 278.026685 
L 122.00788 387.157997 
L 122.227433 307.545102 
L 122.446987 339.573988 
L 122.66654 455.735292 
L 122.886093 433.554003 
L 123.105646 378.817865 
L 123.325199 433.109703 
L 123.544752 424.042794 
L 123.764305 359.984909 
L 123.983859 414.869127 
L 124.203412 271.226534 
L 124.422965 478.508155 
L 124.642518 411.323115 
L 124.862071 416.645446 
L 125.081624 476.296199 
L 125.301178 368.418322 
L 125.520731 349.465438 
L 125.740284 433.263895 
L 125.959837 388.028465 
L 126.17939 449.890848 
L 126.398943 262.461375 
L 126.618496 429.320249 
L 126.83805 452.392753 
L 127.057603 360.041857 
L 127.277156 379.006326 
L 127.496709 444.386162 
L 127.716262 436.889964 
L 128.155369 307.40604 
L 128.374922 263.03526 
L 128.594475 382.298676 
L 128.814028 436.247651 
L 129.033581 271.399662 
L 129.253134 425.089778 
L 129.472687 384.451188 
L 129.911794 493.128718 
L 130.131347 315.871192 
L 130.3509 467.419175 
L 130.570453 495.591953 
L 130.790006 312.226984 
L 131.448666 470.310019 
L 131.668219 328.504457 
L 131.887772 413.415912 
L 132.107325 373.854484 
L 132.326878 460.556194 
L 132.546432 383.939885 
L 132.765985 416.192022 
L 133.205091 294.979847 
L 133.424644 403.581567 
L 133.644197 423.229552 
L 133.863751 351.202392 
L 134.083304 370.198194 
L 134.302857 319.043957 
L 134.52241 379.039475 
L 134.741963 504.59275 
L 134.961516 351.598421 
L 135.400623 445.0193 
L 135.620176 452.617084 
L 135.839729 483.597102 
L 136.059282 435.804546 
L 136.278835 422.337139 
L 136.498388 508.824003 
L 136.937495 267.902696 
L 137.157048 321.485851 
L 137.376601 462.405208 
L 137.596154 318.331912 
L 137.815707 400.686567 
L 138.03526 365.254586 
L 138.254814 455.252193 
L 138.474367 419.274747 
L 138.69392 403.965063 
L 138.913473 447.391008 
L 139.133026 396.649337 
L 139.352579 405.264955 
L 139.572132 439.484895 
L 139.791686 348.708312 
L 140.011239 385.673284 
L 140.230792 396.13867 
L 140.450345 316.456996 
L 140.669898 340.671692 
L 140.889451 282.723844 
L 141.328558 364.086255 
L 141.548111 389.795675 
L 141.767664 367.271024 
L 141.987217 373.926498 
L 142.20677 437.783914 
L 142.426323 336.584899 
L 142.645877 451.524723 
L 142.86543 401.678473 
L 143.304536 475.055186 
L 143.524089 325.248985 
L 143.743642 426.837321 
L 143.963196 354.784542 
L 144.182749 358.259529 
L 144.402302 407.334185 
L 144.621855 344.709417 
L 144.841408 498.891883 
L 145.060961 421.576629 
L 145.280514 424.143464 
L 145.500068 382.207969 
L 145.719621 454.359341 
L 145.939174 377.538999 
L 146.37828 494.175803 
L 146.597833 226.06846 
L 146.817387 321.869098 
L 147.03694 263.593822 
L 147.476046 413.994871 
L 147.695599 309.400312 
L 147.915152 347.700328 
L 148.134705 457.592226 
L 148.354259 405.155348 
L 148.573812 398.146979 
L 148.793365 369.467393 
L 149.012918 438.462576 
L 149.232471 319.679642 
L 149.452024 444.286493 
L 149.671578 443.069859 
L 149.891131 371.8766 
L 150.110684 410.208696 
L 150.330237 379.625035 
L 150.54979 377.315854 
L 150.769343 409.858907 
L 150.988896 410.57798 
L 151.20845 434.823935 
L 151.428003 404.928947 
L 151.647556 494.246677 
L 151.867109 268.012089 
L 152.086662 273.734944 
L 152.306215 359.140131 
L 152.525769 316.612383 
L 152.745322 457.814067 
L 152.964875 474.156695 
L 153.403981 365.001839 
L 153.623534 354.716481 
L 153.843087 530.400911 
L 154.501747 321.346503 
L 154.7213 396.741968 
L 155.160406 381.353337 
L 155.37996 491.999862 
L 155.599513 373.160732 
L 155.819066 381.207344 
L 156.038619 496.764333 
L 156.258172 266.031027 
L 156.477725 426.090008 
L 156.697278 328.632486 
L 156.916832 374.147788 
L 157.136385 479.419674 
L 157.355938 449.260535 
L 157.575491 379.115218 
L 157.795044 248.541586 
L 158.014597 317.817026 
L 158.234151 222.048825 
L 158.453704 362.736332 
L 158.673257 163.114745 
L 158.89281 490.817884 
L 159.112363 471.059997 
L 159.331916 481.673604 
L 159.551469 395.580839 
L 159.771023 385.033609 
L 159.990576 386.97995 
L 160.210129 476.697867 
L 160.429682 337.2287 
L 160.649235 325.073219 
L 160.868788 393.651527 
L 161.088342 498.944756 
L 161.307895 312.292472 
L 161.527448 416.43802 
L 161.747001 344.744362 
L 161.966554 335.005717 
L 162.186107 273.476671 
L 162.40566 425.0155 
L 162.844767 371.086387 
L 163.503426 515.520285 
L 163.722979 291.210443 
L 163.942532 289.798085 
L 164.162086 310.046377 
L 164.601192 450.301926 
L 164.820745 234.959443 
L 165.040298 425.146434 
L 165.259851 459.210804 
L 165.479405 267.780404 
L 165.698958 408.93251 
L 165.918511 417.375262 
L 166.357617 353.894527 
L 166.57717 356.509699 
L 166.796723 344.155925 
L 167.016277 425.363216 
L 167.23583 417.600737 
L 167.455383 463.698099 
L 167.674936 159.938412 
L 167.894489 337.268371 
L 168.114042 421.702479 
L 168.333596 301.428856 
L 168.553149 333.607882 
L 168.772702 418.737617 
L 168.992255 325.794637 
L 169.211808 443.424202 
L 169.650914 297.806466 
L 169.870468 331.147386 
L 170.090021 253.484108 
L 170.309574 385.419867 
L 170.529127 371.212478 
L 170.74868 441.754958 
L 170.968233 366.02352 
L 171.187787 466.314706 
L 171.40734 245.46927 
L 171.626893 434.186369 
L 171.846446 448.356567 
L 172.065999 255.481391 
L 172.285552 323.390419 
L 172.505105 492.549154 
L 172.944212 270.963885 
L 173.163765 201.239051 
L 173.383318 466.96807 
L 173.602871 425.369739 
L 173.822424 514.23041 
L 174.261531 271.536451 
L 174.481084 312.710354 
L 174.92019 218.861097 
L 175.139743 422.287656 
L 175.359296 419.840207 
L 175.57885 312.833669 
L 175.798403 334.747378 
L 176.017956 534.529554 
L 176.237509 448.827262 
L 176.457062 186.989899 
L 176.676615 389.987324 
L 176.896169 466.64551 
L 177.115722 331.57245 
L 177.335275 388.07423 
L 177.554828 308.724805 
L 177.774381 497.770065 
L 177.993934 352.234492 
L 178.213487 441.882351 
L 178.433041 369.429654 
L 178.652594 347.248505 
L 178.872147 365.845557 
L 179.0917 442.102445 
L 179.311253 455.453137 
L 179.530806 458.758034 
L 179.75036 302.375426 
L 180.189466 481.673918 
L 180.409019 305.691252 
L 180.628572 319.160612 
L 180.848125 300.875078 
L 181.067678 439.96013 
L 181.287232 353.390546 
L 181.506785 373.374108 
L 181.726338 238.351891 
L 181.945891 303.116728 
L 182.165444 501.38412 
L 182.604551 286.957898 
L 182.824104 488.736078 
L 183.043657 415.744027 
L 183.26321 457.346312 
L 183.482763 457.534106 
L 183.702316 476.838745 
L 183.921869 298.658563 
L 184.141423 470.194726 
L 184.360976 427.602631 
L 184.580529 451.648244 
L 185.019635 310.76012 
L 185.239188 405.449525 
L 185.458742 356.174859 
L 185.678295 395.393859 
L 185.897848 332.401899 
L 186.117401 361.290081 
L 186.336954 461.760783 
L 186.556507 422.625196 
L 186.77606 324.305828 
L 186.995614 367.530605 
L 187.215167 306.366356 
L 187.43472 454.504606 
L 187.654273 388.588559 
L 188.093379 371.466181 
L 188.312932 310.301497 
L 188.532486 396.814904 
L 188.752039 316.098596 
L 188.971592 369.487537 
L 189.191145 383.272858 
L 189.410698 468.597444 
L 189.630251 176.399791 
L 189.849805 361.5782 
L 190.069358 358.134777 
L 190.288911 400.576271 
L 190.508464 336.560192 
L 190.728017 497.855918 
L 191.167123 284.360972 
L 191.60623 500.578406 
L 191.825783 422.847175 
L 192.045336 245.253109 
L 192.484442 465.692379 
L 192.703996 452.570887 
L 192.923549 359.069139 
L 193.143102 469.421502 
L 193.362655 274.180869 
L 193.582208 435.84298 
L 193.801761 191.080033 
L 194.240868 445.827173 
L 194.679974 399.939097 
L 194.899527 401.39997 
L 195.11908 454.892583 
L 195.338633 326.687224 
L 195.558187 265.182348 
L 195.77774 441.760287 
L 195.997293 465.165547 
L 196.216846 410.200785 
L 196.436399 409.518566 
L 196.655952 465.441074 
L 196.875505 461.493173 
L 197.095059 381.645492 
L 197.314612 458.860539 
L 197.534165 367.630855 
L 197.753718 415.890938 
L 197.973271 366.390341 
L 198.192824 371.672913 
L 198.412378 366.763147 
L 198.631931 422.061684 
L 198.851484 417.352989 
L 199.071037 393.603715 
L 199.29059 466.513524 
L 199.510143 290.3338 
L 199.729696 375.603665 
L 199.94925 404.374994 
L 200.168803 291.953039 
L 200.607909 346.093512 
L 200.827462 433.614042 
L 201.047015 294.337678 
L 201.266569 307.92946 
L 201.486122 388.764494 
L 201.705675 266.082374 
L 202.144781 401.568448 
L 202.364334 262.773747 
L 202.583887 277.073154 
L 202.803441 458.009111 
L 203.242547 149.464043 
L 203.4621 504.353619 
L 203.901206 438.503361 
L 204.12076 283.379583 
L 204.340313 319.644867 
L 204.559866 438.397433 
L 204.779419 440.565109 
L 204.998972 462.743172 
L 205.218525 413.844004 
L 205.438078 395.001458 
L 205.657632 398.658987 
L 205.877185 305.371381 
L 206.096738 323.744487 
L 206.316291 294.64633 
L 206.535844 406.681897 
L 206.755397 429.124324 
L 206.974951 290.844386 
L 207.194504 402.57664 
L 207.414057 387.662001 
L 207.63361 251.392116 
L 207.853163 527.651185 
L 208.072716 320.473746 
L 208.292269 472.486024 
L 208.511823 438.096948 
L 208.731376 320.177543 
L 208.950929 416.689392 
L 209.170482 457.246799 
L 209.390035 450.116123 
L 209.609588 399.559549 
L 210.048695 419.352015 
L 210.268248 467.937566 
L 210.487801 363.042669 
L 210.707354 445.012867 
L 210.926907 476.287538 
L 211.14646 268.958218 
L 211.366014 438.822829 
L 211.585567 354.322864 
L 211.80512 435.444486 
L 212.024673 427.195596 
L 212.244226 374.844974 
L 212.463779 410.25593 
L 212.683333 366.778258 
L 212.902886 484.081451 
L 213.341992 366.147533 
L 213.561545 447.471312 
L 213.781098 465.468318 
L 214.000651 254.072628 
L 214.220205 467.613687 
L 214.439758 487.242735 
L 214.659311 391.495587 
L 214.878864 497.598988 
L 215.098417 322.898493 
L 215.31797 449.192753 
L 215.537523 347.302221 
L 215.757077 338.297467 
L 216.196183 400.198706 
L 216.415736 203.77335 
L 216.635289 388.092238 
L 216.854842 349.01488 
L 217.074396 465.039645 
L 217.293949 371.20613 
L 217.733055 419.116253 
L 217.952608 355.400864 
L 218.172161 360.094267 
L 218.611268 254.454437 
L 218.830821 409.889722 
L 219.050374 327.393411 
L 219.269927 399.122286 
L 219.48948 322.658515 
L 219.709033 380.697878 
L 219.928587 396.147301 
L 220.14814 333.064022 
L 220.367693 323.79398 
L 220.587246 506.999954 
L 220.806799 321.162432 
L 221.026352 437.4043 
L 221.245905 401.900723 
L 221.465459 320.174893 
L 221.685012 287.344931 
L 221.904565 390.270007 
L 222.124118 401.86768 
L 222.343671 454.558554 
L 222.563224 377.720679 
L 222.782778 384.684506 
L 223.221884 443.377778 
L 223.441437 364.221295 
L 223.66099 444.844266 
L 223.880543 429.863666 
L 224.31965 336.771972 
L 224.539203 391.94149 
L 224.758756 386.922987 
L 224.978309 350.370066 
L 225.197862 421.464432 
L 225.417415 414.205898 
L 225.636969 426.997772 
L 225.856522 336.719995 
L 226.076075 384.525175 
L 226.295628 389.251858 
L 226.515181 420.065657 
L 226.734734 293.91803 
L 226.954287 347.955106 
L 227.173841 314.726721 
L 227.393394 328.513899 
L 227.8325 458.813638 
L 228.052053 347.369151 
L 228.271606 384.691471 
L 228.49116 302.512595 
L 228.930266 414.2442 
L 229.149819 424.517846 
L 229.369372 306.17583 
L 229.588925 482.508885 
L 230.028032 404.081492 
L 230.247585 390.622219 
L 230.467138 458.496643 
L 230.906244 387.304818 
L 231.125797 285.224624 
L 231.345351 329.009436 
L 231.564904 509.732788 
L 231.784457 381.816663 
L 232.00401 382.367387 
L 232.223563 372.554737 
L 232.443116 456.873657 
L 232.662669 406.505664 
L 232.882223 241.58939 
L 233.101776 427.996772 
L 233.321329 451.632905 
L 233.540882 380.362468 
L 233.760435 403.007571 
L 234.199542 282.263584 
L 234.419095 422.357184 
L 234.638648 331.442529 
L 234.858201 454.597446 
L 235.297307 236.089134 
L 235.51686 516.107592 
L 235.736414 420.008835 
L 235.955967 490.374803 
L 236.17552 302.552079 
L 236.395073 394.127436 
L 236.614626 318.108145 
L 236.834179 467.202809 
L 237.273286 292.908939 
L 237.492839 365.047294 
L 237.712392 321.347744 
L 237.931945 380.93669 
L 238.151498 365.465214 
L 238.590605 453.68205 
L 238.810158 392.908235 
L 239.249264 367.140985 
L 239.468817 483.780266 
L 239.68837 416.273811 
L 239.907924 440.230073 
L 240.127477 482.957787 
L 240.566583 357.654768 
L 240.786136 386.993536 
L 241.005689 452.159658 
L 241.225242 301.963478 
L 241.444796 351.885906 
L 241.664349 360.595944 
L 241.883902 539.042914 
L 242.103455 370.823081 
L 242.323008 395.952784 
L 242.542561 389.478958 
L 242.981668 439.42847 
L 243.201221 441.260749 
L 243.420774 352.899667 
L 243.640327 480.10373 
L 243.85988 445.149913 
L 244.079433 370.622608 
L 244.298987 437.873856 
L 244.51854 306.436064 
L 244.738093 455.903323 
L 244.957646 441.900695 
L 245.177199 361.008619 
L 245.396752 384.892321 
L 245.616305 424.202741 
L 245.835859 417.169833 
L 246.055412 380.768763 
L 246.494518 467.233854 
L 246.714071 409.620837 
L 246.933624 411.603371 
L 247.153178 381.238091 
L 247.372731 390.759626 
L 247.592284 423.977207 
L 248.03139 237.651966 
L 248.250943 468.029602 
L 248.470496 480.064549 
L 249.129156 329.767878 
L 249.348709 445.504228 
L 249.787815 259.174484 
L 250.007369 461.855842 
L 250.226922 377.707721 
L 250.666028 443.081211 
L 251.105134 379.875758 
L 251.324687 381.364694 
L 251.544241 437.921627 
L 251.763794 526.093855 
L 251.983347 374.680565 
L 252.2029 366.227436 
L 252.422453 387.208479 
L 252.642006 385.652916 
L 252.86156 433.160778 
L 253.081113 412.972781 
L 253.300666 330.790512 
L 253.739772 506.400112 
L 253.959325 335.516689 
L 254.178878 359.356163 
L 254.398432 309.223815 
L 254.617985 370.635868 
L 254.837538 361.95074 
L 255.057091 426.046997 
L 255.276644 319.533006 
L 255.715751 460.956266 
L 255.935304 386.821139 
L 256.154857 375.080732 
L 256.37441 379.55499 
L 256.593963 425.86214 
L 256.813516 322.353743 
L 257.033069 444.108106 
L 257.252623 465.745621 
L 257.472176 354.94222 
L 257.691729 451.917893 
L 257.911282 379.810729 
L 258.130835 352.992693 
L 258.350388 372.961053 
L 258.569942 497.908642 
L 258.789495 479.605204 
L 259.009048 511.948151 
L 259.228601 403.136891 
L 259.448154 429.147445 
L 259.667707 418.584807 
L 259.88726 501.757853 
L 260.106814 423.224535 
L 260.326367 421.253872 
L 260.54592 433.748777 
L 260.765473 294.809983 
L 260.985026 411.309248 
L 261.204579 232.223285 
L 261.424133 366.4321 
L 261.643686 370.378524 
L 261.863239 415.269021 
L 262.082792 297.391138 
L 262.302345 492.750643 
L 262.521898 462.731756 
L 262.741451 457.595364 
L 262.961005 318.089517 
L 263.180558 416.704424 
L 263.400111 305.997003 
L 263.619664 351.437163 
L 263.839217 368.627058 
L 264.05877 424.684078 
L 264.278324 443.22538 
L 264.497877 554.952401 
L 264.71743 401.826607 
L 264.936983 438.919342 
L 265.376089 339.450247 
L 265.815196 456.069208 
L 266.034749 415.170015 
L 266.254302 300.544585 
L 266.473855 470.746439 
L 266.693408 413.523871 
L 266.912961 458.714329 
L 267.352068 293.233629 
L 267.571621 413.722885 
L 267.791174 447.257974 
L 268.010727 328.990001 
L 268.23028 348.600772 
L 268.449833 354.559956 
L 268.669387 341.911159 
L 268.88894 399.911017 
L 269.108493 300.109344 
L 269.328046 449.973298 
L 269.547599 267.619215 
L 269.767152 282.635414 
L 269.986705 454.466895 
L 270.206259 420.553357 
L 270.425812 308.188859 
L 270.645365 429.566142 
L 270.864918 429.653211 
L 271.084471 418.600623 
L 271.304024 315.781265 
L 271.523578 352.707457 
L 271.743131 411.679876 
L 271.962684 385.250109 
L 272.182237 411.439467 
L 272.40179 410.962493 
L 272.621343 434.366252 
L 272.840896 266.392522 
L 273.06045 355.077834 
L 273.280003 326.193634 
L 273.499556 373.768685 
L 273.719109 483.123573 
L 273.938662 312.477542 
L 274.158215 451.357808 
L 274.377769 297.823182 
L 274.597322 419.744875 
L 274.816875 389.673816 
L 275.036428 457.260519 
L 275.255981 443.778138 
L 275.475534 374.449061 
L 275.695087 484.147218 
L 276.134194 400.364763 
L 276.353747 375.130099 
L 276.5733 273.089245 
L 276.792853 368.063803 
L 277.012406 283.240784 
L 277.23196 359.280334 
L 277.451513 375.53516 
L 277.671066 409.786333 
L 277.890619 581.38839 
L 278.329725 302.095127 
L 278.549278 487.605966 
L 278.768832 334.341801 
L 278.988385 341.241229 
L 279.207938 411.056762 
L 279.427491 409.622045 
L 279.647044 436.104249 
L 279.866597 481.254014 
L 280.086151 468.385458 
L 280.305704 378.930952 
L 280.525257 376.802173 
L 280.74481 442.608224 
L 280.964363 344.038252 
L 281.183916 391.74624 
L 281.403469 361.510098 
L 281.623023 386.917177 
L 281.842576 349.443716 
L 282.062129 356.712988 
L 282.720788 477.785284 
L 282.940342 459.767629 
L 283.159895 429.807573 
L 283.599001 412.189108 
L 283.818554 414.932829 
L 284.038107 474.640093 
L 284.477214 396.507759 
L 284.696767 495.942862 
L 284.91632 289.674506 
L 285.355426 397.848048 
L 285.574979 397.187164 
L 285.794533 351.333075 
L 286.014086 470.295859 
L 286.233639 303.190216 
L 286.672745 461.531813 
L 286.892298 449.109834 
L 287.111851 418.664137 
L 287.331405 503.37659 
L 287.550958 405.384121 
L 287.770511 364.919775 
L 287.990064 244.201801 
L 288.209617 413.492693 
L 288.42917 438.564407 
L 288.648724 395.9737 
L 288.868277 320.992942 
L 289.08783 438.894972 
L 289.307383 366.426886 
L 289.526936 414.998913 
L 289.746489 327.984644 
L 289.966042 298.264232 
L 290.405149 473.493349 
L 290.624702 483.150542 
L 290.844255 443.966157 
L 291.063808 481.552604 
L 291.283361 461.740533 
L 291.502915 302.617812 
L 291.722468 451.597641 
L 291.942021 398.205439 
L 292.161574 150.80693 
L 292.381127 444.64226 
L 292.820233 319.175911 
L 293.039787 359.155361 
L 293.25934 350.86849 
L 293.478893 421.055781 
L 293.698446 395.647523 
L 293.917999 457.196589 
L 294.137552 415.095872 
L 294.357105 434.932415 
L 294.576659 382.917177 
L 294.796212 404.624584 
L 295.015765 466.249029 
L 295.235318 433.128727 
L 295.454871 335.325516 
L 295.674424 424.216599 
L 295.893978 249.305448 
L 296.113531 468.04506 
L 296.333084 513.233756 
L 296.552637 478.137076 
L 296.77219 319.430037 
L 297.211296 403.699265 
L 297.43085 405.956325 
L 297.650403 289.274591 
L 298.089509 402.914253 
L 298.309062 393.84799 
L 298.528615 438.78527 
L 298.748169 294.023889 
L 298.967722 324.678876 
L 299.187275 440.323352 
L 299.406828 132.505597 
L 299.626381 429.146364 
L 299.845934 295.238677 
L 300.065487 363.712869 
L 300.285041 370.742148 
L 300.504594 279.366622 
L 300.724147 307.423172 
L 300.9437 488.640357 
L 301.163253 425.971368 
L 301.382806 446.2378 
L 301.60236 390.941993 
L 301.821913 482.264689 
L 302.261019 307.355771 
L 302.480572 348.951538 
L 302.700125 310.058698 
L 302.919678 476.582216 
L 303.139232 328.058807 
L 303.358785 523.974295 
L 303.578338 231.571692 
L 303.797891 302.674228 
L 304.017444 322.731645 
L 304.236997 426.989122 
L 304.456551 443.814564 
L 304.676104 352.812351 
L 305.11521 452.326572 
L 305.334763 453.373661 
L 305.554316 378.980779 
L 305.773869 264.838598 
L 305.993423 380.112513 
L 306.212976 334.898164 
L 306.432529 342.113085 
L 306.652082 394.462104 
L 306.871635 404.159404 
L 307.091188 335.129389 
L 307.310742 398.032517 
L 307.530295 321.411005 
L 307.749848 335.957816 
L 307.969401 387.487128 
L 308.188954 399.609409 
L 308.408507 419.035355 
L 308.62806 427.895808 
L 308.847614 482.502881 
L 309.28672 347.03507 
L 309.506273 448.367485 
L 309.725826 267.688623 
L 310.164933 414.559361 
L 310.384486 431.631026 
L 310.604039 323.946432 
L 310.823592 307.592122 
L 311.043145 422.997612 
L 311.262698 429.447601 
L 311.482251 493.834435 
L 311.701805 401.211069 
L 311.921358 417.434947 
L 312.140911 478.60345 
L 312.360464 446.594721 
L 312.580017 380.713661 
L 312.79957 351.072625 
L 313.019124 467.033063 
L 313.238677 422.223107 
L 313.45823 443.857627 
L 313.677783 496.834779 
L 313.897336 450.242701 
L 314.116889 322.042129 
L 314.336442 361.417597 
L 314.555996 201.957609 
L 314.995102 502.242922 
L 315.214655 329.430161 
L 315.653761 459.67891 
L 315.873315 305.347523 
L 316.092868 467.21309 
L 316.312421 537.377798 
L 316.531974 317.247454 
L 316.751527 362.818395 
L 317.190633 274.011642 
L 317.410187 341.711179 
L 317.62974 444.767579 
L 317.849293 344.8132 
L 318.068846 433.483224 
L 318.288399 229.605091 
L 318.727506 431.083016 
L 318.947059 472.740329 
L 319.386165 297.884591 
L 319.605718 397.698062 
L 319.825271 430.024508 
L 320.044824 314.831713 
L 320.483931 499.76872 
L 320.923037 311.829647 
L 321.14259 398.201383 
L 321.362143 414.162315 
L 321.581696 335.503152 
L 322.240356 483.309723 
L 322.459909 355.793023 
L 322.679462 426.929567 
L 322.899015 222.245266 
L 323.118569 296.284237 
L 323.338122 253.940244 
L 323.557675 392.013446 
L 323.777228 435.507414 
L 324.216334 270.665472 
L 324.435887 250.78361 
L 324.655441 418.30086 
L 325.094547 327.048586 
L 325.3141 322.553173 
L 325.533653 444.941536 
L 325.753206 401.301288 
L 325.97276 391.558256 
L 326.192313 404.693158 
L 326.411866 506.797556 
L 326.631419 427.561903 
L 326.850972 433.118327 
L 327.070525 387.112344 
L 327.509632 490.34393 
L 327.729185 295.016883 
L 327.948738 391.829015 
L 328.168291 409.093786 
L 328.387844 490.023467 
L 328.607397 323.093478 
L 328.826951 393.60148 
L 329.046504 347.279295 
L 329.266057 400.488562 
L 329.48561 320.139843 
L 329.924716 383.836099 
L 330.144269 297.332788 
L 330.363823 332.186296 
L 330.583376 449.593981 
L 330.802929 201.454487 
L 331.022482 363.507581 
L 331.242035 239.913146 
L 331.461588 429.433969 
L 331.681142 473.207406 
L 332.120248 448.479099 
L 332.339801 321.391442 
L 332.778907 470.673534 
L 332.99846 301.751232 
L 333.218014 445.380481 
L 333.437567 447.744744 
L 333.876673 353.82876 
L 334.096226 454.298436 
L 334.315779 345.904997 
L 334.754886 437.951278 
L 334.974439 341.080884 
L 335.193992 348.401538 
L 335.413545 446.111592 
L 335.633098 338.558484 
L 335.852651 303.959148 
L 336.511311 473.831007 
L 336.730864 298.806179 
L 336.950417 406.678782 
L 337.16997 243.046671 
L 337.389524 505.389478 
L 337.609077 376.765321 
L 337.82863 457.26916 
L 338.048183 382.475741 
L 338.267736 384.349959 
L 338.487289 404.50061 
L 338.926396 378.732473 
L 339.365502 310.79605 
L 339.804608 389.105544 
L 340.024161 322.017404 
L 340.243715 421.188046 
L 340.463268 356.90201 
L 340.682821 400.63237 
L 340.902374 379.436474 
L 341.121927 484.444856 
L 341.34148 450.192376 
L 341.561033 445.643481 
L 342.00014 369.851367 
L 342.439246 520.028348 
L 342.658799 332.069689 
L 342.878352 485.488299 
L 343.097906 321.976653 
L 343.317459 390.48864 
L 343.537012 422.755201 
L 343.756565 398.146081 
L 343.976118 477.854743 
L 344.195671 405.964372 
L 344.415224 486.643914 
L 344.634778 246.692264 
L 344.854331 397.032687 
L 345.073884 329.099259 
L 345.293437 316.819061 
L 345.51299 277.289838 
L 345.732543 441.293762 
L 345.952096 404.890849 
L 346.17165 482.115647 
L 346.391203 299.573129 
L 346.610756 421.614082 
L 346.830309 351.541016 
L 347.049862 475.80052 
L 347.269415 363.835275 
L 347.708522 486.694203 
L 347.928075 394.406673 
L 348.147628 469.576184 
L 348.586734 375.629686 
L 348.806287 428.165305 
L 349.025841 423.321315 
L 349.245394 423.61491 
L 349.464947 316.261361 
L 349.6845 349.46666 
L 349.904053 348.461124 
L 350.123606 400.470021 
L 350.34316 392.950344 
L 350.562713 349.964188 
L 350.782266 505.66399 
L 351.001819 360.53238 
L 351.221372 507.349612 
L 351.660478 331.957372 
L 351.880032 427.505658 
L 352.319138 352.570417 
L 352.538691 479.159402 
L 352.758244 227.010773 
L 352.977797 561.756875 
L 353.197351 397.515695 
L 353.416904 416.188018 
L 353.636457 319.452356 
L 353.85601 406.200522 
L 354.075563 399.649351 
L 354.514669 353.285429 
L 354.734223 244.091711 
L 354.953776 428.792978 
L 355.392882 515.228585 
L 355.612435 378.705608 
L 355.831988 386.967416 
L 356.051542 366.59661 
L 356.271095 404.263008 
L 356.490648 380.191507 
L 356.710201 290.604759 
L 356.929754 359.183432 
L 357.149307 365.136894 
L 357.36886 483.793652 
L 357.588414 491.617614 
L 357.807967 386.26833 
L 358.02752 470.47598 
L 358.247073 376.829148 
L 358.466626 395.259558 
L 358.686179 380.981043 
L 358.905733 353.524723 
L 359.125286 410.661355 
L 359.344839 402.897035 
L 359.564392 374.554494 
L 359.783945 400.66564 
L 360.003498 454.666612 
L 360.223051 403.832823 
L 360.442605 382.81844 
L 360.662158 381.460566 
L 360.881711 335.353136 
L 361.101264 390.192887 
L 361.320817 317.857083 
L 361.54037 435.907837 
L 361.759924 365.606458 
L 361.979477 386.506529 
L 362.19903 441.293531 
L 362.418583 289.32146 
L 362.638136 230.096667 
L 363.077242 521.924195 
L 363.296796 464.192584 
L 363.735902 235.51624 
L 363.955455 389.824799 
L 364.175008 371.592754 
L 364.394561 427.421898 
L 364.614115 397.52869 
L 364.833668 313.818896 
L 365.053221 384.57501 
L 365.272774 336.379285 
L 365.492327 344.93173 
L 365.71188 339.538554 
L 365.931433 415.587881 
L 366.150987 270.867089 
L 366.37054 380.508737 
L 366.590093 429.444502 
L 366.809646 360.869614 
L 367.029199 436.344043 
L 367.248752 397.23083 
L 367.468306 441.69017 
L 367.687859 418.394722 
L 367.907412 452.349621 
L 368.346518 346.102385 
L 368.566071 323.400707 
L 368.785624 387.156869 
L 369.005178 338.448303 
L 369.224731 492.145792 
L 369.444284 423.021691 
L 369.663837 398.178845 
L 369.88339 517.867525 
L 370.102943 430.582234 
L 370.54205 399.514582 
L 370.761603 434.120446 
L 370.981156 403.417598 
L 371.200709 460.053779 
L 371.420262 333.35041 
L 371.639815 341.207162 
L 371.859369 179.059024 
L 372.298475 470.374966 
L 372.518028 462.462446 
L 372.737581 278.245448 
L 372.957134 386.627465 
L 373.176687 398.079064 
L 373.396241 508.889203 
L 373.615794 527.6992 
L 373.835347 406.213276 
L 374.274453 468.27157 
L 374.71356 355.074103 
L 374.933113 382.733916 
L 375.152666 214.748258 
L 375.372219 395.626044 
L 375.591772 343.312164 
L 375.811325 423.238865 
L 376.030878 317.982249 
L 376.250432 465.926925 
L 376.689538 321.988969 
L 376.909091 315.492318 
L 377.128644 154.871289 
L 377.348197 441.866476 
L 377.567751 378.595007 
L 377.787304 445.410077 
L 378.006857 212.276731 
L 378.22641 394.087317 
L 378.445963 208.752299 
L 378.665516 381.495879 
L 378.885069 416.538685 
L 379.104623 471.919834 
L 379.324176 336.22429 
L 379.543729 343.565682 
L 379.763282 528.105224 
L 380.202388 268.699351 
L 380.421942 405.287629 
L 380.641495 261.735956 
L 380.861048 404.675626 
L 381.080601 351.698381 
L 381.300154 455.674596 
L 381.519707 343.0272 
L 381.73926 431.2976 
L 381.958814 465.178769 
L 382.178367 358.864276 
L 382.39792 316.020768 
L 382.617473 311.888632 
L 382.837026 393.098519 
L 383.056579 364.056026 
L 383.276133 376.108219 
L 383.495686 443.925275 
L 383.715239 333.406971 
L 383.934792 294.559813 
L 384.373898 404.265602 
L 384.593451 239.022276 
L 384.813005 411.792109 
L 385.032558 354.651969 
L 385.252111 348.526982 
L 385.691217 520.72931 
L 385.91077 356.13988 
L 386.349877 288.361105 
L 386.56943 431.753519 
L 386.788983 348.954977 
L 387.008536 402.168291 
L 387.228089 400.251825 
L 387.667196 347.5658 
L 387.886749 347.032731 
L 388.106302 356.104907 
L 388.325855 556.522812 
L 388.545408 335.530937 
L 388.764961 313.249192 
L 388.984515 339.706423 
L 389.204068 414.149718 
L 389.643174 418.518857 
L 389.862727 165.397623 
L 390.08228 384.998268 
L 390.301833 480.744534 
L 390.521387 398.838472 
L 390.74094 360.365898 
L 390.960493 295.987251 
L 391.180046 492.894947 
L 391.399599 354.937365 
L 391.619152 430.923138 
L 392.058259 377.663906 
L 392.277812 384.771771 
L 392.716918 445.647834 
L 392.936471 199.544887 
L 393.156024 415.700958 
L 393.375578 351.961069 
L 393.814684 403.309774 
L 394.034237 177.079095 
L 394.25379 392.6112 
L 394.473343 445.644547 
L 394.692897 338.389585 
L 394.91245 306.49323 
L 395.132003 455.577206 
L 395.351556 427.64469 
L 395.571109 425.831303 
L 395.790662 365.98698 
L 396.010215 417.754687 
L 396.449322 268.008938 
L 396.668875 220.96383 
L 396.888428 422.622926 
L 397.107981 200.953244 
L 397.327534 422.674512 
L 397.547087 464.764313 
L 397.766641 256.027307 
L 397.986194 384.077725 
L 398.205747 384.544012 
L 398.4253 393.525738 
L 398.644853 309.703705 
L 398.864406 366.913486 
L 399.08396 481.720735 
L 399.303513 294.806134 
L 399.742619 386.649189 
L 399.962172 348.835392 
L 400.181725 520.170739 
L 400.401278 359.70046 
L 401.059938 499.439929 
L 401.279491 418.964091 
L 401.499044 398.663198 
L 401.718597 421.013175 
L 401.938151 431.527833 
L 402.157704 363.101561 
L 402.377257 371.025165 
L 402.59681 172.12584 
L 402.816363 404.515302 
L 403.035916 421.500925 
L 403.255469 365.605919 
L 403.694576 412.240632 
L 403.914129 326.250407 
L 404.133682 451.159094 
L 404.353235 447.59558 
L 404.572788 503.096848 
L 404.792342 391.936112 
L 405.011895 376.087803 
L 405.231448 444.257774 
L 405.670554 344.133491 
L 405.890107 302.652359 
L 406.10966 434.445556 
L 406.329214 146.139962 
L 406.548767 395.309239 
L 406.76832 466.787503 
L 406.987873 367.226172 
L 407.207426 395.530145 
L 407.426979 391.371591 
L 407.866086 269.787005 
L 408.085639 392.901122 
L 408.305192 342.805621 
L 408.524745 422.695101 
L 408.744298 333.00129 
L 409.183405 519.258348 
L 409.402958 377.118912 
L 409.622511 394.280004 
L 409.842064 492.908811 
L 410.061617 393.232133 
L 410.28117 372.796805 
L 410.500724 425.25291 
L 411.159383 357.745151 
L 411.378936 388.536373 
L 411.598489 439.416064 
L 411.818042 180.487952 
L 412.037596 329.014238 
L 412.257149 343.408101 
L 412.476702 370.012383 
L 412.696255 376.35613 
L 412.915808 447.403159 
L 413.135361 461.151021 
L 413.354915 260.527872 
L 413.574468 360.769554 
L 413.794021 275.584665 
L 414.013574 285.223031 
L 414.233127 420.249212 
L 414.45268 308.761199 
L 414.672233 335.649765 
L 414.891787 495.92015 
L 415.11134 315.03304 
L 415.330893 390.114108 
L 415.550446 328.920449 
L 415.769999 395.085387 
L 415.989552 345.276489 
L 416.209106 389.362877 
L 416.428659 310.131337 
L 416.648212 469.142431 
L 416.867765 326.774052 
L 417.087318 463.704889 
L 417.306871 360.010353 
L 417.526424 397.10738 
L 417.745978 369.903953 
L 417.965531 403.924214 
L 418.185084 389.664622 
L 418.404637 490.029536 
L 418.62419 361.434845 
L 418.843743 461.78225 
L 419.063297 339.148468 
L 419.28285 455.803396 
L 419.502403 429.605459 
L 419.721956 331.708107 
L 419.941509 285.984245 
L 420.161062 390.653855 
L 420.380615 366.176116 
L 420.600169 317.995782 
L 420.819722 421.265023 
L 421.039275 232.446078 
L 421.258828 406.175075 
L 421.478381 276.466726 
L 421.697934 484.573296 
L 421.917488 325.442168 
L 422.137041 320.860748 
L 422.356594 404.51414 
L 422.576147 426.804152 
L 422.7957 374.001136 
L 423.015253 355.955403 
L 423.234806 378.334767 
L 423.45436 478.228617 
L 423.673913 413.318862 
L 423.893466 441.644106 
L 424.113019 396.283169 
L 424.332572 402.606225 
L 424.552125 417.621484 
L 424.771678 251.572056 
L 424.991232 517.337395 
L 425.210785 396.880094 
L 425.430338 397.144717 
L 425.649891 450.187876 
L 425.869444 306.445999 
L 426.088997 255.987419 
L 426.308551 352.817251 
L 426.528104 346.99243 
L 426.747657 370.716764 
L 426.96721 341.377202 
L 427.186763 432.779199 
L 427.406316 400.769912 
L 427.625869 438.008448 
L 427.845423 438.846065 
L 428.504082 336.49897 
L 428.723635 341.539888 
L 428.943188 422.33793 
L 429.162742 349.470172 
L 429.382295 384.201917 
L 429.601848 346.945938 
L 429.821401 426.67084 
L 430.040954 337.376118 
L 430.260507 368.708844 
L 430.48006 462.418758 
L 430.699614 344.507927 
L 430.919167 455.43193 
L 431.13872 425.320496 
L 431.358273 344.476667 
L 431.577826 430.186406 
L 431.797379 398.466155 
L 432.016933 386.08574 
L 432.236486 482.68189 
L 432.456039 433.570262 
L 432.675592 352.66525 
L 432.895145 374.992706 
L 433.114698 410.258955 
L 433.334251 408.963256 
L 433.992911 324.244536 
L 434.432017 375.246499 
L 434.65157 396.645828 
L 434.871124 312.198454 
L 435.31023 463.151699 
L 435.749336 323.243964 
L 435.968889 495.154396 
L 436.188442 463.423967 
L 436.407996 354.26227 
L 436.627549 506.650937 
L 436.847102 469.728365 
L 437.066655 317.828181 
L 437.286208 461.458445 
L 437.505761 415.072701 
L 437.725315 225.036195 
L 437.944868 306.398078 
L 438.164421 265.371839 
L 438.383974 545.376684 
L 438.82308 222.980732 
L 439.042633 274.982307 
L 439.48174 449.35949 
L 439.701293 428.648241 
L 439.920846 423.746061 
L 440.140399 338.62491 
L 440.359952 468.390988 
L 440.579506 386.75823 
L 440.799059 446.836116 
L 441.018612 182.943097 
L 441.457718 412.480664 
L 441.677271 434.602623 
L 441.896824 434.925461 
L 442.116378 382.350784 
L 442.335931 435.808825 
L 442.555484 420.56925 
L 442.775037 255.758081 
L 442.99459 407.418365 
L 443.214143 316.537727 
L 443.433697 309.109488 
L 443.65325 417.087213 
L 443.872803 264.620172 
L 444.311909 421.78886 
L 444.531462 353.369609 
L 445.190122 485.058553 
L 445.409675 386.948623 
L 445.629228 404.729596 
L 445.848781 438.909783 
L 446.068334 423.740631 
L 446.287888 499.861224 
L 446.507441 427.119434 
L 446.726994 280.475998 
L 446.946547 387.438342 
L 447.1661 319.322486 
L 447.385653 436.482002 
L 447.605206 394.262851 
L 447.82476 424.309279 
L 448.044313 353.713782 
L 448.263866 520.858688 
L 448.483419 442.556022 
L 448.702972 478.810492 
L 448.922525 385.881636 
L 449.142079 411.174789 
L 449.361632 409.441718 
L 449.581185 418.406992 
L 449.800738 490.675948 
L 450.239844 270.185716 
L 450.459397 469.217638 
L 451.118057 352.754831 
L 451.33761 349.123674 
L 451.557163 337.075465 
L 451.776716 484.257381 
L 452.215823 344.164229 
L 452.435376 334.9293 
L 452.654929 349.887544 
L 452.874482 340.0203 
L 453.094035 306.298357 
L 453.313588 241.809395 
L 453.533142 316.611909 
L 453.752695 268.911636 
L 454.191801 474.819349 
L 454.411354 247.152649 
L 454.630907 364.9302 
L 454.85046 414.307321 
L 455.070014 367.277043 
L 455.289567 387.785671 
L 455.50912 471.750029 
L 455.728673 459.888156 
L 455.948226 498.295475 
L 456.387333 318.715274 
L 456.826439 438.457686 
L 457.045992 286.911111 
L 457.265545 409.650769 
L 457.485098 321.553357 
L 457.704651 280.284855 
L 457.924205 275.316512 
L 458.143758 340.494602 
L 458.363311 501.878642 
L 458.802417 333.840319 
L 459.02197 394.275548 
L 459.241524 486.30384 
L 459.461077 443.172031 
L 459.68063 514.647103 
L 459.900183 267.196598 
L 460.119736 450.696508 
L 460.339289 513.382677 
L 460.778396 363.339126 
L 460.997949 475.567755 
L 461.217502 385.27951 
L 461.437055 456.952553 
L 461.656608 356.535409 
L 461.876161 380.231111 
L 462.315268 541.455924 
L 462.534821 383.238962 
L 462.754374 309.590167 
L 462.973927 464.802673 
L 463.19348 407.171815 
L 463.413033 397.085 
L 463.632587 368.75501 
L 463.85214 433.884489 
L 464.071693 387.362465 
L 464.291246 238.862202 
L 464.510799 373.490695 
L 464.730352 244.685079 
L 464.949906 480.847967 
L 465.169459 388.347873 
L 465.389012 348.895908 
L 465.608565 478.098048 
L 465.828118 336.543799 
L 466.047671 340.500541 
L 466.267224 131.956182 
L 466.486778 407.127409 
L 466.706331 403.806601 
L 466.925884 275.294798 
L 467.145437 300.317066 
L 467.36499 349.681327 
L 467.804097 378.542389 
L 468.02365 460.870581 
L 468.243203 398.715239 
L 468.462756 410.978779 
L 468.682309 379.58936 
L 468.901862 398.483163 
L 469.121415 375.264814 
L 469.340969 402.727212 
L 469.560522 410.644495 
L 469.780075 474.224973 
L 469.999628 373.728166 
L 470.219181 419.957826 
L 470.438734 430.501979 
L 470.658288 396.840924 
L 470.877841 445.946532 
L 471.097394 437.731061 
L 471.756053 338.17206 
L 471.975606 243.753153 
L 472.19516 370.25122 
L 472.414713 251.670808 
L 472.634266 357.199725 
L 472.853819 263.87163 
L 473.073372 379.105677 
L 473.292925 406.164272 
L 473.512479 496.965956 
L 473.732032 384.472419 
L 473.951585 344.284824 
L 474.171138 404.086572 
L 474.390691 331.208839 
L 474.610244 350.053097 
L 474.829797 481.906573 
L 475.049351 430.907065 
L 475.268904 429.838839 
L 475.70801 269.035877 
L 475.927563 290.631662 
L 476.147116 371.915809 
L 476.366669 357.986684 
L 476.586223 474.410296 
L 476.805776 446.686204 
L 477.025329 355.518615 
L 477.244882 401.9556 
L 477.464435 387.667992 
L 477.683988 320.381621 
L 477.903542 303.301398 
L 478.123095 349.133593 
L 478.342648 318.325671 
L 478.562201 447.009945 
L 479.001307 352.945084 
L 479.22086 291.219693 
L 479.440414 337.607608 
L 479.659967 473.078604 
L 479.87952 399.054529 
L 480.099073 377.309646 
L 480.318626 437.033551 
L 480.538179 318.071413 
L 480.757733 489.665064 
L 480.977286 439.736347 
L 481.196839 490.261967 
L 481.416392 287.518405 
L 481.635945 458.410411 
L 482.075051 485.292759 
L 482.294605 507.410098 
L 482.514158 397.665429 
L 482.733711 418.747949 
L 482.953264 378.518253 
L 483.172817 361.888767 
L 483.39237 380.423609 
L 483.611924 296.825445 
L 483.831477 391.053057 
L 484.05103 278.306736 
L 484.270583 415.4682 
L 484.490136 420.343831 
L 484.929242 333.575152 
L 485.148796 358.072757 
L 485.368349 411.755752 
L 485.587902 415.340761 
L 485.807455 431.592373 
L 486.027008 252.3878 
L 486.466115 412.806023 
L 486.685668 405.241627 
L 486.905221 372.905703 
L 487.124774 282.654686 
L 487.344327 299.320486 
L 487.56388 342.282009 
L 487.783433 411.909477 
L 488.002987 279.812671 
L 488.22254 485.024273 
L 488.442093 452.50305 
L 488.661646 363.83488 
L 488.881199 463.373342 
L 489.100752 333.748508 
L 489.320306 337.724118 
L 489.539859 322.650574 
L 489.759412 334.044984 
L 490.198518 435.25567 
L 490.418071 343.683889 
L 490.637624 196.756135 
L 491.076731 451.912642 
L 491.296284 418.130917 
L 491.515837 337.601292 
L 491.954943 438.056918 
L 492.174497 362.081758 
L 492.39405 357.890813 
L 492.833156 487.765519 
L 493.052709 462.743372 
L 493.272262 344.89427 
L 493.491815 419.548295 
L 493.711369 385.80693 
L 493.930922 468.612379 
L 494.150475 378.253807 
L 494.370028 406.0231 
L 494.589581 343.402988 
L 494.809134 340.045688 
L 495.028688 506.337402 
L 495.248241 370.626089 
L 495.467794 352.12763 
L 495.687347 279.911432 
L 495.9069 389.970944 
L 496.126453 324.713325 
L 496.346006 363.509478 
L 496.56556 345.878609 
L 496.785113 317.741248 
L 497.004666 445.21724 
L 497.224219 334.835116 
L 497.443772 336.812932 
L 497.882879 486.86694 
L 498.321985 320.77827 
L 498.541538 484.588745 
L 498.761091 260.744258 
L 498.980644 429.061968 
L 499.200197 329.115613 
L 499.419751 447.261025 
L 499.639304 423.068161 
L 499.858857 344.361212 
L 500.07841 351.422631 
L 500.297963 435.38274 
L 500.517516 360.79193 
L 500.73707 452.082161 
L 500.956623 434.428698 
L 501.176176 445.131698 
L 501.395729 417.326427 
L 501.615282 473.824343 
L 501.834835 477.905234 
L 502.054388 420.872894 
L 502.493495 206.485311 
L 502.713048 440.948553 
L 502.932601 422.897668 
L 503.152154 378.586878 
L 503.371707 401.329398 
L 503.59126 347.017887 
L 503.810814 374.007197 
L 504.030367 512.217535 
L 504.24992 369.648433 
L 504.469473 355.870813 
L 504.689026 369.860723 
L 504.908579 453.032657 
L 505.128133 347.832062 
L 505.347686 440.546227 
L 505.567239 403.144544 
L 505.786792 471.652301 
L 506.006345 444.839215 
L 506.225898 311.817955 
L 506.445451 411.442278 
L 506.665005 430.046388 
L 506.884558 325.160246 
L 507.323664 450.873856 
L 507.543217 381.107785 
L 507.76277 262.160935 
L 507.982324 306.805434 
L 508.201877 466.591927 
L 508.42143 373.516666 
L 508.640983 373.334605 
L 508.860536 301.632925 
L 509.080089 335.141008 
L 509.299642 259.136711 
L 509.519196 455.720359 
L 509.738749 423.221382 
L 509.958302 522.565503 
L 510.177855 427.170113 
L 510.397408 430.250724 
L 510.616961 407.830217 
L 510.836515 420.634952 
L 511.056068 387.049655 
L 511.275621 372.15574 
L 511.495174 485.452999 
L 511.714727 369.917699 
L 511.93428 386.357029 
L 512.153833 432.489407 
L 512.373387 426.247056 
L 512.59294 428.669729 
L 512.812493 358.145807 
L 513.032046 364.436182 
L 513.251599 502.850182 
L 513.471152 476.785858 
L 513.910259 324.188874 
L 514.129812 491.447314 
L 514.349365 293.086434 
L 514.568918 459.732272 
L 514.788471 391.960911 
L 515.227578 346.760576 
L 515.447131 346.2289 
L 515.886237 506.053025 
L 516.10579 361.865956 
L 516.325343 384.975269 
L 516.544897 333.535593 
L 516.76445 416.823793 
L 516.984003 257.798972 
L 517.203556 506.420836 
L 517.423109 344.496673 
L 517.642662 456.857815 
L 517.862215 371.48627 
L 518.081769 376.412282 
L 518.301322 323.33294 
L 518.520875 325.207829 
L 518.740428 374.48817 
L 518.959981 334.99904 
L 519.179534 415.854425 
L 519.618641 391.983962 
L 519.838194 292.596759 
L 520.057747 448.541151 
L 520.2773 355.142396 
L 520.496853 399.599759 
L 520.716406 397.052271 
L 520.93596 429.388313 
L 521.155513 377.231349 
L 521.375066 360.588348 
L 521.594619 454.260235 
L 521.814172 232.764182 
L 522.033725 508.644793 
L 522.253279 425.478445 
L 522.472832 385.285522 
L 522.692385 445.288296 
L 522.911938 391.029104 
L 523.131491 430.127028 
L 523.351044 144.859311 
L 523.570597 510.226001 
L 524.229257 359.869464 
L 524.668363 447.835662 
L 524.887916 356.523688 
L 525.10747 314.019747 
L 525.327023 459.523503 
L 525.546576 447.59596 
L 525.766129 361.461593 
L 525.985682 383.522632 
L 526.205235 254.620081 
L 526.424788 314.892855 
L 526.863895 546.473859 
L 527.083448 462.676244 
L 527.303001 312.062584 
L 527.522554 370.365785 
L 527.742107 389.187709 
L 527.96166 433.117967 
L 528.181214 421.769541 
L 528.400767 458.625991 
L 528.62032 471.53419 
L 529.059426 313.390091 
L 529.278979 406.607821 
L 529.498533 321.051906 
L 529.718086 324.846397 
L 529.937639 290.470675 
L 530.157192 385.965947 
L 530.376745 354.545264 
L 530.596298 378.372891 
L 530.815851 369.991557 
L 531.035405 414.552705 
L 531.254958 516.218377 
L 531.694064 327.13644 
L 531.913617 346.938755 
L 532.13317 492.569181 
L 532.352724 300.224908 
L 532.572277 365.173799 
L 532.79183 352.968412 
L 533.011383 216.563764 
L 533.230936 291.140911 
L 533.450489 420.47442 
L 533.670042 463.546336 
L 533.889596 406.993466 
L 534.109149 509.191934 
L 534.328702 483.32743 
L 534.987361 307.619608 
L 535.426468 448.772182 
L 535.646021 455.492064 
L 535.865574 352.215964 
L 536.085127 431.83723 
L 536.30468 293.136834 
L 536.524233 275.407351 
L 536.743787 319.230224 
L 536.96334 338.609286 
L 537.182893 463.668921 
L 537.402446 387.288277 
L 537.621999 404.814786 
L 537.841552 393.374158 
L 538.061106 519.230714 
L 538.280659 488.914749 
L 538.719765 400.480162 
L 538.939318 415.123073 
L 539.158871 359.602923 
L 539.378424 336.039493 
L 539.597978 430.180344 
L 539.817531 371.029449 
L 540.037084 381.499961 
L 540.256637 468.853254 
L 540.695743 365.78366 
L 540.915297 462.125088 
L 541.13485 401.478273 
L 541.354403 510.100061 
L 541.793509 344.442508 
L 542.013062 323.494199 
L 542.452169 401.300297 
L 542.671722 315.503707 
L 542.891275 418.027031 
L 543.110828 455.983742 
L 543.330381 292.609519 
L 543.549934 394.130897 
L 543.769488 358.797203 
L 543.989041 381.441252 
L 544.208594 387.22418 
L 544.428147 439.714307 
L 544.6477 273.811086 
L 544.867253 416.158275 
L 545.086806 445.536687 
L 545.30636 343.94218 
L 545.525913 366.353625 
L 545.745466 403.825443 
L 545.745466 403.825443 
" style="fill:none;stroke:#96c69a;stroke-linecap:round;stroke-width:3;"/>
   </g>
   <g id="line2d_2"/>
   <g id="patch_3">
    <path d="M 84.914375 603.86 
L 84.914375 109.484571 
" style="fill:none;stroke:#262626;stroke-linecap:square;stroke-linejoin:miter;stroke-width:2.5;"/>
   </g>
   <g id="patch_4">
    <path d="M 84.914375 603.86 
L 567.689804 603.86 
" style="fill:none;stroke:#262626;stroke-linecap:square;stroke-linejoin:miter;stroke-width:2.5;"/>
   </g>
   <g id="legend_1">
    <g id="patch_5">
     <path d="M 514.774179 598.86 
L 560.689804 598.86 
Q 562.689804 598.86 562.689804 596.86 
L 562.689804 554.954375 
Q 562.689804 552.954375 560.689804 552.954375 
L 514.774179 552.954375 
Q 512.774179 552.954375 512.774179 554.954375 
L 512.774179 596.86 
Q 512.774179 598.86 514.774179 598.86 
z
" style="fill:#ffffff;opacity:0.8;stroke:#cccccc;stroke-linejoin:miter;stroke-width:2;"/>
    </g>
    <g id="text_16">
     <!-- $n_\tau$ -->
     <g style="fill:#262626;" transform="translate(524.651991 575.190625)scale(0.24 -0.24)">
      <defs>
       <path d="M 3566 2113 
L 3156 0 
L 2578 0 
L 2988 2091 
Q 3016 2238 3031 2350 
Q 3047 2463 3047 2528 
Q 3047 2791 2881 2937 
Q 2716 3084 2419 3084 
Q 1956 3084 1622 2776 
Q 1288 2469 1184 1941 
L 800 0 
L 225 0 
L 903 3500 
L 1478 3500 
L 1363 2950 
Q 1603 3253 1940 3418 
Q 2278 3584 2650 3584 
Q 3113 3584 3367 3334 
Q 3622 3084 3622 2631 
Q 3622 2519 3608 2391 
Q 3594 2263 3566 2113 
z
" id="DejaVuSans-Oblique-6e" transform="scale(0.015625)"/>
       <path d="M 2103 638 
Q 2188 488 2525 488 
L 2800 488 
L 2706 0 
L 2363 0 
Q 1800 0 1600 300 
Q 1403 606 1534 1269 
L 1856 2925 
L 541 2925 
L 653 3500 
L 3881 3500 
L 3769 2925 
L 2444 2925 
L 2113 1234 
Q 2025 781 2103 638 
z
" id="DejaVuSans-Oblique-3c4" transform="scale(0.015625)"/>
      </defs>
      <use xlink:href="#DejaVuSans-Oblique-6e"/>
      <use transform="translate(63.378906 -16.40625)scale(0.7)" xlink:href="#DejaVuSans-Oblique-3c4"/>
     </g>
    </g>
    <g id="line2d_3">
     <path d="M 516.774179 589.280313 
L 536.774179 589.280313 
" style="fill:none;stroke:#96c69a;stroke-linecap:round;stroke-width:3;"/>
    </g>
    <g id="line2d_4"/>
    <g id="text_17">
     <!-- 25 -->
     <g style="fill:#262626;" transform="translate(544.774179 592.780313)scale(0.1 -0.1)">
      <defs>
       <path d="M 1844 884 
L 3897 884 
L 3897 0 
L 506 0 
L 506 884 
L 2209 2388 
Q 2438 2594 2547 2791 
Q 2656 2988 2656 3200 
Q 2656 3528 2436 3728 
Q 2216 3928 1850 3928 
Q 1569 3928 1234 3808 
Q 900 3688 519 3450 
L 519 4475 
Q 925 4609 1322 4679 
Q 1719 4750 2100 4750 
Q 2938 4750 3402 4381 
Q 3866 4013 3866 3353 
Q 3866 2972 3669 2642 
Q 3472 2313 2841 1759 
L 1844 884 
z
" id="DejaVuSans-Bold-32" transform="scale(0.015625)"/>
       <path d="M 678 4666 
L 3669 4666 
L 3669 3781 
L 1638 3781 
L 1638 3059 
Q 1775 3097 1914 3117 
Q 2053 3138 2203 3138 
Q 3056 3138 3531 2711 
Q 4006 2284 4006 1522 
Q 4006 766 3489 337 
Q 2972 -91 2053 -91 
Q 1656 -91 1267 -14 
Q 878 63 494 219 
L 494 1166 
Q 875 947 1217 837 
Q 1559 728 1863 728 
Q 2300 728 2551 942 
Q 2803 1156 2803 1522 
Q 2803 1891 2551 2103 
Q 2300 2316 1863 2316 
Q 1603 2316 1309 2248 
Q 1016 2181 678 2041 
L 678 4666 
z
" id="DejaVuSans-Bold-35" transform="scale(0.015625)"/>
      </defs>
      <use xlink:href="#DejaVuSans-Bold-32"/>
      <use x="69.580078" xlink:href="#DejaVuSans-Bold-35"/>
     </g>
    </g>
   </g>
  </g>
  <g id="axes_2">
   <g id="patch_6">
    <path d="M 84.914375 92.437143 
L 567.689804 92.437143 
L 567.689804 7.2 
L 84.914375 7.2 
z
" style="fill:none;"/>
   </g>
   <g id="matplotlib.axis_3">
    <g id="xtick_7"/>
    <g id="xtick_8"/>
    <g id="xtick_9"/>
    <g id="xtick_10"/>
    <g id="xtick_11"/>
    <g id="xtick_12"/>
   </g>
   <g id="matplotlib.axis_4">
    <g id="ytick_8">
     <g id="text_18">
      <!-- 0 -->
      <g style="fill:#262626;" transform="translate(55.416875 100.795424)scale(0.22 -0.22)">
       <use xlink:href="#DejaVuSans-30"/>
      </g>
     </g>
    </g>
    <g id="ytick_9">
     <g id="text_19">
      <!-- 100 -->
      <g style="fill:#262626;" transform="translate(27.421875 48.082287)scale(0.22 -0.22)">
       <use xlink:href="#DejaVuSans-31"/>
       <use x="63.623047" xlink:href="#DejaVuSans-30"/>
       <use x="127.246094" xlink:href="#DejaVuSans-30"/>
      </g>
     </g>
    </g>
   </g>
   <g id="patch_7">
    <path clip-path="url(#p239f41c588)" d="M 106.858713 92.437143 
L 140.619232 92.437143 
L 140.619232 11.258912 
L 106.858713 11.258912 
z
" style="fill:#96c69a;fill-opacity:0.5;stroke:#ffffff;stroke-linejoin:miter;stroke-width:2;"/>
   </g>
   <g id="patch_8">
    <path clip-path="url(#p239f41c588)" d="M 140.619232 92.437143 
L 174.379752 92.437143 
L 174.379752 11.258912 
L 140.619232 11.258912 
z
" style="fill:#96c69a;fill-opacity:0.5;stroke:#ffffff;stroke-linejoin:miter;stroke-width:2;"/>
   </g>
   <g id="patch_9">
    <path clip-path="url(#p239f41c588)" d="M 174.379752 92.437143 
L 208.140271 92.437143 
L 208.140271 11.258912 
L 174.379752 11.258912 
z
" style="fill:#96c69a;fill-opacity:0.5;stroke:#ffffff;stroke-linejoin:miter;stroke-width:2;"/>
   </g>
   <g id="patch_10">
    <path clip-path="url(#p239f41c588)" d="M 208.140271 92.437143 
L 241.900791 92.437143 
L 241.900791 11.258912 
L 208.140271 11.258912 
z
" style="fill:#96c69a;fill-opacity:0.5;stroke:#ffffff;stroke-linejoin:miter;stroke-width:2;"/>
   </g>
   <g id="patch_11">
    <path clip-path="url(#p239f41c588)" d="M 241.900791 92.437143 
L 275.66131 92.437143 
L 275.66131 11.786043 
L 241.900791 11.786043 
z
" style="fill:#96c69a;fill-opacity:0.5;stroke:#ffffff;stroke-linejoin:miter;stroke-width:2;"/>
   </g>
   <g id="patch_12">
    <path clip-path="url(#p239f41c588)" d="M 275.66131 92.437143 
L 309.42183 92.437143 
L 309.42183 11.258912 
L 275.66131 11.258912 
z
" style="fill:#96c69a;fill-opacity:0.5;stroke:#ffffff;stroke-linejoin:miter;stroke-width:2;"/>
   </g>
   <g id="patch_13">
    <path clip-path="url(#p239f41c588)" d="M 309.42183 92.437143 
L 343.182349 92.437143 
L 343.182349 11.258912 
L 309.42183 11.258912 
z
" style="fill:#96c69a;fill-opacity:0.5;stroke:#ffffff;stroke-linejoin:miter;stroke-width:2;"/>
   </g>
   <g id="patch_14">
    <path clip-path="url(#p239f41c588)" d="M 343.182349 92.437143 
L 376.942869 92.437143 
L 376.942869 11.258912 
L 343.182349 11.258912 
z
" style="fill:#96c69a;fill-opacity:0.5;stroke:#ffffff;stroke-linejoin:miter;stroke-width:2;"/>
   </g>
   <g id="patch_15">
    <path clip-path="url(#p239f41c588)" d="M 376.942869 92.437143 
L 410.703388 92.437143 
L 410.703388 11.786043 
L 376.942869 11.786043 
z
" style="fill:#96c69a;fill-opacity:0.5;stroke:#ffffff;stroke-linejoin:miter;stroke-width:2;"/>
   </g>
   <g id="patch_16">
    <path clip-path="url(#p239f41c588)" d="M 410.703388 92.437143 
L 444.463907 92.437143 
L 444.463907 11.258912 
L 410.703388 11.258912 
z
" style="fill:#96c69a;fill-opacity:0.5;stroke:#ffffff;stroke-linejoin:miter;stroke-width:2;"/>
   </g>
   <g id="patch_17">
    <path clip-path="url(#p239f41c588)" d="M 444.463907 92.437143 
L 478.224427 92.437143 
L 478.224427 11.258912 
L 444.463907 11.258912 
z
" style="fill:#96c69a;fill-opacity:0.5;stroke:#ffffff;stroke-linejoin:miter;stroke-width:2;"/>
   </g>
   <g id="patch_18">
    <path clip-path="url(#p239f41c588)" d="M 478.224427 92.437143 
L 511.984946 92.437143 
L 511.984946 11.258912 
L 478.224427 11.258912 
z
" style="fill:#96c69a;fill-opacity:0.5;stroke:#ffffff;stroke-linejoin:miter;stroke-width:2;"/>
   </g>
   <g id="patch_19">
    <path clip-path="url(#p239f41c588)" d="M 511.984946 92.437143 
L 545.745466 92.437143 
L 545.745466 11.258912 
L 511.984946 11.258912 
z
" style="fill:#96c69a;fill-opacity:0.5;stroke:#ffffff;stroke-linejoin:miter;stroke-width:2;"/>
   </g>
   <g id="patch_20">
    <path d="M 84.914375 92.437143 
L 84.914375 7.2 
" style="fill:none;stroke:#262626;stroke-linecap:square;stroke-linejoin:miter;stroke-width:2.5;"/>
   </g>
   <g id="patch_21">
    <path d="M 84.914375 92.437143 
L 567.689804 92.437143 
" style="fill:none;stroke:#262626;stroke-linecap:square;stroke-linejoin:miter;stroke-width:2.5;"/>
   </g>
  </g>
  <g id="axes_3">
   <g id="patch_22">
    <path d="M 584.337232 603.86 
L 667.574375 603.86 
L 667.574375 109.484571 
L 584.337232 109.484571 
z
" style="fill:none;"/>
   </g>
   <g id="matplotlib.axis_5">
    <g id="xtick_13">
     <g id="text_20">
      <!-- 0 -->
      <g style="fill:#262626;" transform="translate(577.338482 636.076563)scale(0.22 -0.22)">
       <use xlink:href="#DejaVuSans-30"/>
      </g>
     </g>
    </g>
    <g id="xtick_14">
     <g id="text_21">
      <!-- 100 -->
      <g style="fill:#262626;" transform="translate(607.627837 636.076563)scale(0.22 -0.22)">
       <use xlink:href="#DejaVuSans-31"/>
       <use x="63.623047" xlink:href="#DejaVuSans-30"/>
       <use x="127.246094" xlink:href="#DejaVuSans-30"/>
      </g>
     </g>
    </g>
   </g>
   <g id="matplotlib.axis_6">
    <g id="ytick_10"/>
    <g id="ytick_11"/>
    <g id="ytick_12"/>
    <g id="ytick_13"/>
    <g id="ytick_14"/>
    <g id="ytick_15"/>
    <g id="ytick_16"/>
   </g>
   <g id="patch_23">
    <path clip-path="url(#p3d74018558)" d="M 584.337232 581.38839 
L 584.780101 581.38839 
L 584.780101 567.343633 
L 584.337232 567.343633 
z
" style="fill:#96c69a;fill-opacity:0.5;stroke:#ffffff;stroke-linejoin:miter;stroke-width:1.404476;"/>
   </g>
   <g id="patch_24">
    <path clip-path="url(#p3d74018558)" d="M 584.337232 567.343633 
L 585.665838 567.343633 
L 585.665838 553.298877 
L 584.337232 553.298877 
z
" style="fill:#96c69a;fill-opacity:0.5;stroke:#ffffff;stroke-linejoin:miter;stroke-width:1.404476;"/>
   </g>
   <g id="patch_25">
    <path clip-path="url(#p3d74018558)" d="M 584.337232 553.298877 
L 585.665838 553.298877 
L 585.665838 539.25412 
L 584.337232 539.25412 
z
" style="fill:#96c69a;fill-opacity:0.5;stroke:#ffffff;stroke-linejoin:miter;stroke-width:1.404476;"/>
   </g>
   <g id="patch_26">
    <path clip-path="url(#p3d74018558)" d="M 584.337232 539.25412 
L 587.88018 539.25412 
L 587.88018 525.209364 
L 584.337232 525.209364 
z
" style="fill:#96c69a;fill-opacity:0.5;stroke:#ffffff;stroke-linejoin:miter;stroke-width:1.404476;"/>
   </g>
   <g id="patch_27">
    <path clip-path="url(#p3d74018558)" d="M 584.337232 525.209364 
L 594.08034 525.209364 
L 594.08034 511.164607 
L 584.337232 511.164607 
z
" style="fill:#96c69a;fill-opacity:0.5;stroke:#ffffff;stroke-linejoin:miter;stroke-width:1.404476;"/>
   </g>
   <g id="patch_28">
    <path clip-path="url(#p3d74018558)" d="M 584.337232 511.164607 
L 602.051974 511.164607 
L 602.051974 497.119851 
L 584.337232 497.119851 
z
" style="fill:#96c69a;fill-opacity:0.5;stroke:#ffffff;stroke-linejoin:miter;stroke-width:1.404476;"/>
   </g>
   <g id="patch_29">
    <path clip-path="url(#p3d74018558)" d="M 584.337232 497.119851 
L 609.580739 497.119851 
L 609.580739 483.075094 
L 584.337232 483.075094 
z
" style="fill:#96c69a;fill-opacity:0.5;stroke:#ffffff;stroke-linejoin:miter;stroke-width:1.404476;"/>
   </g>
   <g id="patch_30">
    <path clip-path="url(#p3d74018558)" d="M 584.337232 483.075094 
L 616.223767 483.075094 
L 616.223767 469.030338 
L 584.337232 469.030338 
z
" style="fill:#96c69a;fill-opacity:0.5;stroke:#ffffff;stroke-linejoin:miter;stroke-width:1.404476;"/>
   </g>
   <g id="patch_31">
    <path clip-path="url(#p3d74018558)" d="M 584.337232 469.030338 
L 632.609903 469.030338 
L 632.609903 454.985581 
L 584.337232 454.985581 
z
" style="fill:#96c69a;fill-opacity:0.5;stroke:#ffffff;stroke-linejoin:miter;stroke-width:1.404476;"/>
   </g>
   <g id="patch_32">
    <path clip-path="url(#p3d74018558)" d="M 584.337232 454.985581 
L 636.59572 454.985581 
L 636.59572 440.940825 
L 584.337232 440.940825 
z
" style="fill:#96c69a;fill-opacity:0.5;stroke:#ffffff;stroke-linejoin:miter;stroke-width:1.404476;"/>
   </g>
   <g id="patch_33">
    <path clip-path="url(#p3d74018558)" d="M 584.337232 440.940825 
L 645.89596 440.940825 
L 645.89596 426.896068 
L 584.337232 426.896068 
z
" style="fill:#96c69a;fill-opacity:0.5;stroke:#ffffff;stroke-linejoin:miter;stroke-width:1.404476;"/>
   </g>
   <g id="patch_34">
    <path clip-path="url(#p3d74018558)" d="M 584.337232 426.896068 
L 659.624885 426.896068 
L 659.624885 412.851312 
L 584.337232 412.851312 
z
" style="fill:#96c69a;fill-opacity:0.5;stroke:#ffffff;stroke-linejoin:miter;stroke-width:1.404476;"/>
   </g>
   <g id="patch_35">
    <path clip-path="url(#p3d74018558)" d="M 584.337232 412.851312 
L 653.867594 412.851312 
L 653.867594 398.806555 
L 584.337232 398.806555 
z
" style="fill:#96c69a;fill-opacity:0.5;stroke:#ffffff;stroke-linejoin:miter;stroke-width:1.404476;"/>
   </g>
   <g id="patch_36">
    <path clip-path="url(#p3d74018558)" d="M 584.337232 398.806555 
L 663.610702 398.806555 
L 663.610702 384.761799 
L 584.337232 384.761799 
z
" style="fill:#96c69a;fill-opacity:0.5;stroke:#ffffff;stroke-linejoin:miter;stroke-width:1.404476;"/>
   </g>
   <g id="patch_37">
    <path clip-path="url(#p3d74018558)" d="M 584.337232 384.761799 
L 655.639068 384.761799 
L 655.639068 370.717042 
L 584.337232 370.717042 
z
" style="fill:#96c69a;fill-opacity:0.5;stroke:#ffffff;stroke-linejoin:miter;stroke-width:1.404476;"/>
   </g>
   <g id="patch_38">
    <path clip-path="url(#p3d74018558)" d="M 584.337232 370.717042 
L 645.89596 370.717042 
L 645.89596 356.672286 
L 584.337232 356.672286 
z
" style="fill:#96c69a;fill-opacity:0.5;stroke:#ffffff;stroke-linejoin:miter;stroke-width:1.404476;"/>
   </g>
   <g id="patch_39">
    <path clip-path="url(#p3d74018558)" d="M 584.337232 356.672286 
L 644.567354 356.672286 
L 644.567354 342.627529 
L 584.337232 342.627529 
z
" style="fill:#96c69a;fill-opacity:0.5;stroke:#ffffff;stroke-linejoin:miter;stroke-width:1.404476;"/>
   </g>
   <g id="patch_40">
    <path clip-path="url(#p3d74018558)" d="M 584.337232 342.627529 
L 629.952692 342.627529 
L 629.952692 328.582773 
L 584.337232 328.582773 
z
" style="fill:#96c69a;fill-opacity:0.5;stroke:#ffffff;stroke-linejoin:miter;stroke-width:1.404476;"/>
   </g>
   <g id="patch_41">
    <path clip-path="url(#p3d74018558)" d="M 584.337232 328.582773 
L 631.724166 328.582773 
L 631.724166 314.538016 
L 584.337232 314.538016 
z
" style="fill:#96c69a;fill-opacity:0.5;stroke:#ffffff;stroke-linejoin:miter;stroke-width:1.404476;"/>
   </g>
   <g id="patch_42">
    <path clip-path="url(#p3d74018558)" d="M 584.337232 314.538016 
L 614.009425 314.538016 
L 614.009425 300.49326 
L 584.337232 300.49326 
z
" style="fill:#96c69a;fill-opacity:0.5;stroke:#ffffff;stroke-linejoin:miter;stroke-width:1.404476;"/>
   </g>
   <g id="patch_43">
    <path clip-path="url(#p3d74018558)" d="M 584.337232 300.49326 
L 607.809265 300.49326 
L 607.809265 286.448503 
L 584.337232 286.448503 
z
" style="fill:#96c69a;fill-opacity:0.5;stroke:#ffffff;stroke-linejoin:miter;stroke-width:1.404476;"/>
   </g>
   <g id="patch_44">
    <path clip-path="url(#p3d74018558)" d="M 584.337232 286.448503 
L 598.951894 286.448503 
L 598.951894 272.403747 
L 584.337232 272.403747 
z
" style="fill:#96c69a;fill-opacity:0.5;stroke:#ffffff;stroke-linejoin:miter;stroke-width:1.404476;"/>
   </g>
   <g id="patch_45">
    <path clip-path="url(#p3d74018558)" d="M 584.337232 272.403747 
L 602.051974 272.403747 
L 602.051974 258.35899 
L 584.337232 258.35899 
z
" style="fill:#96c69a;fill-opacity:0.5;stroke:#ffffff;stroke-linejoin:miter;stroke-width:1.404476;"/>
   </g>
   <g id="patch_46">
    <path clip-path="url(#p3d74018558)" d="M 584.337232 258.35899 
L 594.966077 258.35899 
L 594.966077 244.314234 
L 584.337232 244.314234 
z
" style="fill:#96c69a;fill-opacity:0.5;stroke:#ffffff;stroke-linejoin:miter;stroke-width:1.404476;"/>
   </g>
   <g id="patch_47">
    <path clip-path="url(#p3d74018558)" d="M 584.337232 244.314234 
L 592.308866 244.314234 
L 592.308866 230.269477 
L 584.337232 230.269477 
z
" style="fill:#96c69a;fill-opacity:0.5;stroke:#ffffff;stroke-linejoin:miter;stroke-width:1.404476;"/>
   </g>
   <g id="patch_48">
    <path clip-path="url(#p3d74018558)" d="M 584.337232 230.269477 
L 589.651655 230.269477 
L 589.651655 216.224721 
L 584.337232 216.224721 
z
" style="fill:#96c69a;fill-opacity:0.5;stroke:#ffffff;stroke-linejoin:miter;stroke-width:1.404476;"/>
   </g>
   <g id="patch_49">
    <path clip-path="url(#p3d74018558)" d="M 584.337232 216.224721 
L 586.551575 216.224721 
L 586.551575 202.179964 
L 584.337232 202.179964 
z
" style="fill:#96c69a;fill-opacity:0.5;stroke:#ffffff;stroke-linejoin:miter;stroke-width:1.404476;"/>
   </g>
   <g id="patch_50">
    <path clip-path="url(#p3d74018558)" d="M 584.337232 202.179964 
L 587.437312 202.179964 
L 587.437312 188.135208 
L 584.337232 188.135208 
z
" style="fill:#96c69a;fill-opacity:0.5;stroke:#ffffff;stroke-linejoin:miter;stroke-width:1.404476;"/>
   </g>
   <g id="patch_51">
    <path clip-path="url(#p3d74018558)" d="M 584.337232 188.135208 
L 586.994443 188.135208 
L 586.994443 174.090451 
L 584.337232 174.090451 
z
" style="fill:#96c69a;fill-opacity:0.5;stroke:#ffffff;stroke-linejoin:miter;stroke-width:1.404476;"/>
   </g>
   <g id="patch_52">
    <path clip-path="url(#p3d74018558)" d="M 584.337232 174.090451 
L 585.665838 174.090451 
L 585.665838 160.045695 
L 584.337232 160.045695 
z
" style="fill:#96c69a;fill-opacity:0.5;stroke:#ffffff;stroke-linejoin:miter;stroke-width:1.404476;"/>
   </g>
   <g id="patch_53">
    <path clip-path="url(#p3d74018558)" d="M 584.337232 160.045695 
L 586.551575 160.045695 
L 586.551575 146.000938 
L 584.337232 146.000938 
z
" style="fill:#96c69a;fill-opacity:0.5;stroke:#ffffff;stroke-linejoin:miter;stroke-width:1.404476;"/>
   </g>
   <g id="patch_54">
    <path clip-path="url(#p3d74018558)" d="M 584.337232 146.000938 
L 585.665838 146.000938 
L 585.665838 131.956182 
L 584.337232 131.956182 
z
" style="fill:#96c69a;fill-opacity:0.5;stroke:#ffffff;stroke-linejoin:miter;stroke-width:1.404476;"/>
   </g>
   <g id="patch_55">
    <path d="M 584.337232 603.86 
L 584.337232 109.484571 
" style="fill:none;stroke:#262626;stroke-linecap:square;stroke-linejoin:miter;stroke-width:2.5;"/>
   </g>
   <g id="patch_56">
    <path d="M 584.337232 603.86 
L 667.574375 603.86 
" style="fill:none;stroke:#262626;stroke-linecap:square;stroke-linejoin:miter;stroke-width:2.5;"/>
   </g>
  </g>
 </g>
 <defs>
  <clipPath id="p5f17a6a81b">
   <rect height="494.375429" width="482.775429" x="84.914375" y="109.484571"/>
  </clipPath>
  <clipPath id="p239f41c588">
   <rect height="85.237143" width="482.775429" x="84.914375" y="7.2"/>
  </clipPath>
  <clipPath id="p3d74018558">
   <rect height="494.375429" width="83.237143" x="584.337232" y="109.484571"/>
  </clipPath>
 </defs>
</svg>
