<?xml version="1.0" encoding="utf-8" standalone="no"?>
<!DOCTYPE svg PUBLIC "-//W3C//DTD SVG 1.1//EN"
  "http://www.w3.org/Graphics/SVG/1.1/DTD/svg11.dtd">
<svg height="675.079375pt" version="1.1" viewBox="0 0 688.771875 675.079375" width="688.771875pt" xmlns="http://www.w3.org/2000/svg" xmlns:xlink="http://www.w3.org/1999/xlink">
 <metadata>
  <rdf:RDF xmlns:cc="http://creativecommons.org/ns#" xmlns:dc="http://purl.org/dc/elements/1.1/" xmlns:rdf="http://www.w3.org/1999/02/22-rdf-syntax-ns#">
   <cc:Work>
    <dc:type rdf:resource="http://purl.org/dc/dcmitype/StillImage"/>
    <dc:date>2021-07-16T21:44:07.571983</dc:date>
    <dc:format>image/svg+xml</dc:format>
    <dc:creator>
     <cc:Agent>
      <dc:title>Matplotlib v3.4.2, https://matplotlib.org/</dc:title>
     </cc:Agent>
    </dc:creator>
   </cc:Work>
  </rdf:RDF>
 </metadata>
 <defs>
  <style type="text/css">*{stroke-linecap:butt;stroke-linejoin:round;}</style>
 </defs>
 <g id="figure_1">
  <g id="patch_1">
   <path d="M 0 675.079375 
L 688.771875 675.079375 
L 688.771875 0 
L 0 0 
z
" style="fill:#ffffff;"/>
  </g>
  <g id="axes_1">
   <g id="patch_2">
    <path d="M 98.911875 603.86 
L 581.687304 603.86 
L 581.687304 109.484571 
L 98.911875 109.484571 
z
" style="fill:none;"/>
   </g>
   <g id="matplotlib.axis_1">
    <g id="xtick_1">
     <g id="text_1">
      <!-- 0 -->
      <g style="fill:#262626;" transform="translate(113.63791 636.076563)scale(0.22 -0.22)">
       <defs>
        <path d="M 2034 4250 
Q 1547 4250 1301 3770 
Q 1056 3291 1056 2328 
Q 1056 1369 1301 889 
Q 1547 409 2034 409 
Q 2525 409 2770 889 
Q 3016 1369 3016 2328 
Q 3016 3291 2770 3770 
Q 2525 4250 2034 4250 
z
M 2034 4750 
Q 2819 4750 3233 4129 
Q 3647 3509 3647 2328 
Q 3647 1150 3233 529 
Q 2819 -91 2034 -91 
Q 1250 -91 836 529 
Q 422 1150 422 2328 
Q 422 3509 836 4129 
Q 1250 4750 2034 4750 
z
" id="DejaVuSans-30" transform="scale(0.015625)"/>
       </defs>
       <use xlink:href="#DejaVuSans-30"/>
      </g>
     </g>
    </g>
    <g id="xtick_2">
     <g id="text_2">
      <!-- 20000 -->
      <g style="fill:#262626;" transform="translate(173.464171 636.076563)scale(0.22 -0.22)">
       <defs>
        <path d="M 1228 531 
L 3431 531 
L 3431 0 
L 469 0 
L 469 531 
Q 828 903 1448 1529 
Q 2069 2156 2228 2338 
Q 2531 2678 2651 2914 
Q 2772 3150 2772 3378 
Q 2772 3750 2511 3984 
Q 2250 4219 1831 4219 
Q 1534 4219 1204 4116 
Q 875 4013 500 3803 
L 500 4441 
Q 881 4594 1212 4672 
Q 1544 4750 1819 4750 
Q 2544 4750 2975 4387 
Q 3406 4025 3406 3419 
Q 3406 3131 3298 2873 
Q 3191 2616 2906 2266 
Q 2828 2175 2409 1742 
Q 1991 1309 1228 531 
z
" id="DejaVuSans-32" transform="scale(0.015625)"/>
       </defs>
       <use xlink:href="#DejaVuSans-32"/>
       <use x="63.623047" xlink:href="#DejaVuSans-30"/>
       <use x="127.246094" xlink:href="#DejaVuSans-30"/>
       <use x="190.869141" xlink:href="#DejaVuSans-30"/>
       <use x="254.492188" xlink:href="#DejaVuSans-30"/>
      </g>
     </g>
    </g>
    <g id="xtick_3">
     <g id="text_3">
      <!-- 40000 -->
      <g style="fill:#262626;" transform="translate(261.285432 636.076563)scale(0.22 -0.22)">
       <defs>
        <path d="M 2419 4116 
L 825 1625 
L 2419 1625 
L 2419 4116 
z
M 2253 4666 
L 3047 4666 
L 3047 1625 
L 3713 1625 
L 3713 1100 
L 3047 1100 
L 3047 0 
L 2419 0 
L 2419 1100 
L 313 1100 
L 313 1709 
L 2253 4666 
z
" id="DejaVuSans-34" transform="scale(0.015625)"/>
       </defs>
       <use xlink:href="#DejaVuSans-34"/>
       <use x="63.623047" xlink:href="#DejaVuSans-30"/>
       <use x="127.246094" xlink:href="#DejaVuSans-30"/>
       <use x="190.869141" xlink:href="#DejaVuSans-30"/>
       <use x="254.492188" xlink:href="#DejaVuSans-30"/>
      </g>
     </g>
    </g>
    <g id="xtick_4">
     <g id="text_4">
      <!-- 60000 -->
      <g style="fill:#262626;" transform="translate(349.106693 636.076563)scale(0.22 -0.22)">
       <defs>
        <path d="M 2113 2584 
Q 1688 2584 1439 2293 
Q 1191 2003 1191 1497 
Q 1191 994 1439 701 
Q 1688 409 2113 409 
Q 2538 409 2786 701 
Q 3034 994 3034 1497 
Q 3034 2003 2786 2293 
Q 2538 2584 2113 2584 
z
M 3366 4563 
L 3366 3988 
Q 3128 4100 2886 4159 
Q 2644 4219 2406 4219 
Q 1781 4219 1451 3797 
Q 1122 3375 1075 2522 
Q 1259 2794 1537 2939 
Q 1816 3084 2150 3084 
Q 2853 3084 3261 2657 
Q 3669 2231 3669 1497 
Q 3669 778 3244 343 
Q 2819 -91 2113 -91 
Q 1303 -91 875 529 
Q 447 1150 447 2328 
Q 447 3434 972 4092 
Q 1497 4750 2381 4750 
Q 2619 4750 2861 4703 
Q 3103 4656 3366 4563 
z
" id="DejaVuSans-36" transform="scale(0.015625)"/>
       </defs>
       <use xlink:href="#DejaVuSans-36"/>
       <use x="63.623047" xlink:href="#DejaVuSans-30"/>
       <use x="127.246094" xlink:href="#DejaVuSans-30"/>
       <use x="190.869141" xlink:href="#DejaVuSans-30"/>
       <use x="254.492188" xlink:href="#DejaVuSans-30"/>
      </g>
     </g>
    </g>
    <g id="xtick_5">
     <g id="text_5">
      <!-- 80000 -->
      <g style="fill:#262626;" transform="translate(436.927955 636.076563)scale(0.22 -0.22)">
       <defs>
        <path d="M 2034 2216 
Q 1584 2216 1326 1975 
Q 1069 1734 1069 1313 
Q 1069 891 1326 650 
Q 1584 409 2034 409 
Q 2484 409 2743 651 
Q 3003 894 3003 1313 
Q 3003 1734 2745 1975 
Q 2488 2216 2034 2216 
z
M 1403 2484 
Q 997 2584 770 2862 
Q 544 3141 544 3541 
Q 544 4100 942 4425 
Q 1341 4750 2034 4750 
Q 2731 4750 3128 4425 
Q 3525 4100 3525 3541 
Q 3525 3141 3298 2862 
Q 3072 2584 2669 2484 
Q 3125 2378 3379 2068 
Q 3634 1759 3634 1313 
Q 3634 634 3220 271 
Q 2806 -91 2034 -91 
Q 1263 -91 848 271 
Q 434 634 434 1313 
Q 434 1759 690 2068 
Q 947 2378 1403 2484 
z
M 1172 3481 
Q 1172 3119 1398 2916 
Q 1625 2713 2034 2713 
Q 2441 2713 2670 2916 
Q 2900 3119 2900 3481 
Q 2900 3844 2670 4047 
Q 2441 4250 2034 4250 
Q 1625 4250 1398 4047 
Q 1172 3844 1172 3481 
z
" id="DejaVuSans-38" transform="scale(0.015625)"/>
       </defs>
       <use xlink:href="#DejaVuSans-38"/>
       <use x="63.623047" xlink:href="#DejaVuSans-30"/>
       <use x="127.246094" xlink:href="#DejaVuSans-30"/>
       <use x="190.869141" xlink:href="#DejaVuSans-30"/>
       <use x="254.492188" xlink:href="#DejaVuSans-30"/>
      </g>
     </g>
    </g>
    <g id="xtick_6">
     <g id="text_6">
      <!-- 100000 -->
      <g style="fill:#262626;" transform="translate(517.750466 636.076563)scale(0.22 -0.22)">
       <defs>
        <path d="M 794 531 
L 1825 531 
L 1825 4091 
L 703 3866 
L 703 4441 
L 1819 4666 
L 2450 4666 
L 2450 531 
L 3481 531 
L 3481 0 
L 794 0 
L 794 531 
z
" id="DejaVuSans-31" transform="scale(0.015625)"/>
       </defs>
       <use xlink:href="#DejaVuSans-31"/>
       <use x="63.623047" xlink:href="#DejaVuSans-30"/>
       <use x="127.246094" xlink:href="#DejaVuSans-30"/>
       <use x="190.869141" xlink:href="#DejaVuSans-30"/>
       <use x="254.492188" xlink:href="#DejaVuSans-30"/>
       <use x="318.115234" xlink:href="#DejaVuSans-30"/>
      </g>
     </g>
    </g>
    <g id="text_7">
     <!-- MDTU -->
     <g style="fill:#262626;" transform="translate(304.593964 662.888125)scale(0.24 -0.24)">
      <defs>
       <path d="M 628 4666 
L 1569 4666 
L 2759 1491 
L 3956 4666 
L 4897 4666 
L 4897 0 
L 4281 0 
L 4281 4097 
L 3078 897 
L 2444 897 
L 1241 4097 
L 1241 0 
L 628 0 
L 628 4666 
z
" id="DejaVuSans-4d" transform="scale(0.015625)"/>
       <path d="M 1259 4147 
L 1259 519 
L 2022 519 
Q 2988 519 3436 956 
Q 3884 1394 3884 2338 
Q 3884 3275 3436 3711 
Q 2988 4147 2022 4147 
L 1259 4147 
z
M 628 4666 
L 1925 4666 
Q 3281 4666 3915 4102 
Q 4550 3538 4550 2338 
Q 4550 1131 3912 565 
Q 3275 0 1925 0 
L 628 0 
L 628 4666 
z
" id="DejaVuSans-44" transform="scale(0.015625)"/>
       <path d="M -19 4666 
L 3928 4666 
L 3928 4134 
L 2272 4134 
L 2272 0 
L 1638 0 
L 1638 4134 
L -19 4134 
L -19 4666 
z
" id="DejaVuSans-54" transform="scale(0.015625)"/>
       <path d="M 556 4666 
L 1191 4666 
L 1191 1831 
Q 1191 1081 1462 751 
Q 1734 422 2344 422 
Q 2950 422 3222 751 
Q 3494 1081 3494 1831 
L 3494 4666 
L 4128 4666 
L 4128 1753 
Q 4128 841 3676 375 
Q 3225 -91 2344 -91 
Q 1459 -91 1007 375 
Q 556 841 556 1753 
L 556 4666 
z
" id="DejaVuSans-55" transform="scale(0.015625)"/>
      </defs>
      <use xlink:href="#DejaVuSans-4d"/>
      <use x="86.279297" xlink:href="#DejaVuSans-44"/>
      <use x="163.28125" xlink:href="#DejaVuSans-54"/>
      <use x="224.365234" xlink:href="#DejaVuSans-55"/>
     </g>
    </g>
   </g>
   <g id="matplotlib.axis_2">
    <g id="ytick_1">
     <g id="text_8">
      <!-- 0.25 -->
      <g style="fill:#262626;" transform="translate(34.4275 595.356395)scale(0.22 -0.22)">
       <defs>
        <path d="M 684 794 
L 1344 794 
L 1344 0 
L 684 0 
L 684 794 
z
" id="DejaVuSans-2e" transform="scale(0.015625)"/>
        <path d="M 691 4666 
L 3169 4666 
L 3169 4134 
L 1269 4134 
L 1269 2991 
Q 1406 3038 1543 3061 
Q 1681 3084 1819 3084 
Q 2600 3084 3056 2656 
Q 3513 2228 3513 1497 
Q 3513 744 3044 326 
Q 2575 -91 1722 -91 
Q 1428 -91 1123 -41 
Q 819 9 494 109 
L 494 744 
Q 775 591 1075 516 
Q 1375 441 1709 441 
Q 2250 441 2565 725 
Q 2881 1009 2881 1497 
Q 2881 1984 2565 2268 
Q 2250 2553 1709 2553 
Q 1456 2553 1204 2497 
Q 953 2441 691 2322 
L 691 4666 
z
" id="DejaVuSans-35" transform="scale(0.015625)"/>
       </defs>
       <use xlink:href="#DejaVuSans-30"/>
       <use x="63.623047" xlink:href="#DejaVuSans-2e"/>
       <use x="95.410156" xlink:href="#DejaVuSans-32"/>
       <use x="159.033203" xlink:href="#DejaVuSans-35"/>
      </g>
     </g>
    </g>
    <g id="ytick_2">
     <g id="text_9">
      <!-- 0.50 -->
      <g style="fill:#262626;" transform="translate(34.4275 535.513394)scale(0.22 -0.22)">
       <use xlink:href="#DejaVuSans-30"/>
       <use x="63.623047" xlink:href="#DejaVuSans-2e"/>
       <use x="95.410156" xlink:href="#DejaVuSans-35"/>
       <use x="159.033203" xlink:href="#DejaVuSans-30"/>
      </g>
     </g>
    </g>
    <g id="ytick_3">
     <g id="text_10">
      <!-- 0.75 -->
      <g style="fill:#262626;" transform="translate(34.4275 475.670392)scale(0.22 -0.22)">
       <defs>
        <path d="M 525 4666 
L 3525 4666 
L 3525 4397 
L 1831 0 
L 1172 0 
L 2766 4134 
L 525 4134 
L 525 4666 
z
" id="DejaVuSans-37" transform="scale(0.015625)"/>
       </defs>
       <use xlink:href="#DejaVuSans-30"/>
       <use x="63.623047" xlink:href="#DejaVuSans-2e"/>
       <use x="95.410156" xlink:href="#DejaVuSans-37"/>
       <use x="159.033203" xlink:href="#DejaVuSans-35"/>
      </g>
     </g>
    </g>
    <g id="ytick_4">
     <g id="text_11">
      <!-- 1.00 -->
      <g style="fill:#262626;" transform="translate(34.4275 415.827391)scale(0.22 -0.22)">
       <use xlink:href="#DejaVuSans-31"/>
       <use x="63.623047" xlink:href="#DejaVuSans-2e"/>
       <use x="95.410156" xlink:href="#DejaVuSans-30"/>
       <use x="159.033203" xlink:href="#DejaVuSans-30"/>
      </g>
     </g>
    </g>
    <g id="ytick_5">
     <g id="text_12">
      <!-- 1.25 -->
      <g style="fill:#262626;" transform="translate(34.4275 355.984389)scale(0.22 -0.22)">
       <use xlink:href="#DejaVuSans-31"/>
       <use x="63.623047" xlink:href="#DejaVuSans-2e"/>
       <use x="95.410156" xlink:href="#DejaVuSans-32"/>
       <use x="159.033203" xlink:href="#DejaVuSans-35"/>
      </g>
     </g>
    </g>
    <g id="ytick_6">
     <g id="text_13">
      <!-- 1.50 -->
      <g style="fill:#262626;" transform="translate(34.4275 296.141387)scale(0.22 -0.22)">
       <use xlink:href="#DejaVuSans-31"/>
       <use x="63.623047" xlink:href="#DejaVuSans-2e"/>
       <use x="95.410156" xlink:href="#DejaVuSans-35"/>
       <use x="159.033203" xlink:href="#DejaVuSans-30"/>
      </g>
     </g>
    </g>
    <g id="ytick_7">
     <g id="text_14">
      <!-- 1.75 -->
      <g style="fill:#262626;" transform="translate(34.4275 236.298386)scale(0.22 -0.22)">
       <use xlink:href="#DejaVuSans-31"/>
       <use x="63.623047" xlink:href="#DejaVuSans-2e"/>
       <use x="95.410156" xlink:href="#DejaVuSans-37"/>
       <use x="159.033203" xlink:href="#DejaVuSans-35"/>
      </g>
     </g>
    </g>
    <g id="ytick_8">
     <g id="text_15">
      <!-- 2.00 -->
      <g style="fill:#262626;" transform="translate(34.4275 176.455384)scale(0.22 -0.22)">
       <use xlink:href="#DejaVuSans-32"/>
       <use x="63.623047" xlink:href="#DejaVuSans-2e"/>
       <use x="95.410156" xlink:href="#DejaVuSans-30"/>
       <use x="159.033203" xlink:href="#DejaVuSans-30"/>
      </g>
     </g>
    </g>
    <g id="text_16">
     <!-- $E$ -->
     <g style="fill:#262626;" transform="translate(25.43625 364.352286)rotate(-90)scale(0.24 -0.24)">
      <defs>
       <path d="M 1081 4666 
L 4031 4666 
L 3928 4134 
L 1606 4134 
L 1338 2753 
L 3566 2753 
L 3463 2222 
L 1234 2222 
L 909 531 
L 3284 531 
L 3181 0 
L 172 0 
L 1081 4666 
z
" id="DejaVuSans-Oblique-45" transform="scale(0.015625)"/>
      </defs>
      <use transform="translate(0 0.09375)" xlink:href="#DejaVuSans-Oblique-45"/>
     </g>
    </g>
   </g>
   <g id="line2d_1">
    <path clip-path="url(#p10a14c0feb)" d="M 120.856213 465.048107 
L 121.075766 451.984503 
L 121.295319 318.262801 
L 121.514872 384.800524 
L 121.734425 415.241892 
L 121.953978 491.862963 
L 122.173532 425.973609 
L 122.393085 447.941702 
L 122.612638 436.537622 
L 122.832191 504.104674 
L 123.051744 457.041655 
L 123.271297 504.920225 
L 123.490851 507.494816 
L 123.710404 489.977629 
L 123.929957 456.302156 
L 124.14951 442.133428 
L 124.369063 503.279159 
L 124.588616 458.076548 
L 124.808169 437.506061 
L 125.027723 494.468828 
L 125.247276 518.091991 
L 125.466829 407.818253 
L 125.905935 399.666107 
L 126.125488 489.177143 
L 126.345041 530.837727 
L 126.564595 410.451584 
L 126.784148 433.617658 
L 127.003701 517.254317 
L 127.223254 517.818698 
L 127.66236 342.23238 
L 128.101467 546.141681 
L 128.32102 410.054448 
L 128.540573 569.928831 
L 128.979679 428.517025 
L 129.199232 457.873299 
L 129.418786 463.513211 
L 129.638339 237.98329 
L 129.857892 443.810796 
L 130.077445 341.376267 
L 130.296998 511.000752 
L 130.516551 502.086345 
L 130.736105 406.23941 
L 130.955658 379.678633 
L 131.175211 449.463265 
L 131.394764 427.92431 
L 131.83387 505.177628 
L 132.053423 472.828188 
L 132.272977 308.360297 
L 132.49253 425.615741 
L 132.712083 446.76044 
L 132.931636 498.881043 
L 133.151189 499.013301 
L 133.370742 377.077074 
L 133.590296 445.165172 
L 133.809849 405.703101 
L 134.029402 521.321052 
L 134.248955 345.293718 
L 134.468508 482.382044 
L 134.688061 477.343145 
L 134.907614 439.567105 
L 135.127168 448.213362 
L 135.346721 339.063123 
L 135.566274 538.923032 
L 135.785827 479.549643 
L 136.00538 492.362389 
L 136.224933 541.205936 
L 136.444487 548.604705 
L 136.66404 412.758694 
L 136.883593 483.539013 
L 137.103146 495.441946 
L 137.322699 466.314589 
L 137.542252 400.003713 
L 137.761805 476.389924 
L 137.981359 420.791163 
L 138.420465 443.833957 
L 138.640018 401.453066 
L 138.859571 569.57802 
L 139.079124 542.802325 
L 139.298678 491.56814 
L 139.518231 486.662318 
L 139.737784 428.93134 
L 139.957337 526.960248 
L 140.17689 458.732368 
L 140.396443 437.441485 
L 140.615996 521.422207 
L 140.83555 467.466622 
L 141.055103 534.927208 
L 141.274656 503.571017 
L 141.494209 456.066245 
L 141.713762 487.64068 
L 141.933315 446.136155 
L 142.152869 478.61644 
L 142.372422 440.464338 
L 142.591975 530.09848 
L 142.811528 468.862685 
L 143.031081 351.640219 
L 143.250634 467.111106 
L 143.470187 467.300226 
L 143.689741 438.013543 
L 144.128847 511.533715 
L 144.3484 491.143537 
L 144.787506 506.85255 
L 145.00706 498.75587 
L 145.446166 431.891245 
L 145.665719 472.589837 
L 145.885272 421.520454 
L 146.324378 561.146022 
L 146.543932 478.147458 
L 146.763485 481.470224 
L 146.983038 525.696459 
L 147.202591 504.092477 
L 147.422144 436.992064 
L 147.641697 412.021765 
L 148.080804 518.742187 
L 148.51991 491.194972 
L 148.739463 372.949609 
L 149.398123 486.011525 
L 149.617676 383.942906 
L 149.837229 376.22206 
L 150.056782 481.611997 
L 150.276335 425.345331 
L 150.495888 514.542162 
L 150.715441 450.087075 
L 150.934995 339.05056 
L 151.154548 473.365326 
L 151.374101 446.733903 
L 151.593654 539.300496 
L 151.813207 507.022658 
L 152.03276 369.024153 
L 152.252314 378.700101 
L 152.471867 456.086432 
L 152.69142 476.097121 
L 152.910973 464.670127 
L 153.130526 380.724216 
L 153.350079 503.787895 
L 153.569632 388.568021 
L 153.789186 383.125491 
L 154.008739 453.005129 
L 154.228292 383.581773 
L 154.447845 509.143404 
L 154.667398 483.790092 
L 155.106505 514.858929 
L 155.326058 484.517032 
L 155.545611 477.159784 
L 155.765164 411.79698 
L 155.984717 508.948895 
L 156.20427 390.7544 
L 156.643377 503.419179 
L 156.86293 525.617022 
L 157.082483 453.920446 
L 157.302036 460.364619 
L 157.521589 497.949985 
L 157.741142 398.198744 
L 157.960696 526.373344 
L 158.180249 402.329851 
L 158.399802 448.664137 
L 158.619355 438.338388 
L 158.838908 452.346315 
L 159.058461 479.535897 
L 159.278014 541.697401 
L 159.497568 408.600146 
L 159.717121 428.910378 
L 159.936674 501.071313 
L 160.156227 478.092242 
L 160.37578 394.972597 
L 161.03444 452.402681 
L 161.253993 427.251862 
L 161.473546 467.585991 
L 161.693099 421.120636 
L 161.912652 485.603193 
L 162.132205 511.569287 
L 162.351759 501.823517 
L 162.571312 271.470008 
L 162.790865 457.088534 
L 163.010418 455.448088 
L 163.229971 488.687892 
L 163.449524 483.207455 
L 163.669078 488.30581 
L 163.888631 387.836349 
L 164.108184 532.030722 
L 164.327737 500.786909 
L 164.54729 508.736384 
L 164.766843 407.177636 
L 165.20595 512.074501 
L 165.425503 451.835011 
L 165.645056 443.428579 
L 165.864609 388.795038 
L 166.084162 508.733211 
L 166.303715 363.26155 
L 166.742822 541.528014 
L 166.962375 446.831543 
L 167.181928 457.979818 
L 167.401481 524.20617 
L 167.621034 428.931333 
L 167.840587 399.885208 
L 168.060141 540.122247 
L 168.279694 313.338387 
L 168.7188 545.738468 
L 168.938353 512.697095 
L 169.157906 504.309247 
L 169.37746 513.560627 
L 169.816566 443.265271 
L 170.036119 490.295025 
L 170.255672 390.685198 
L 170.475225 508.623735 
L 170.694778 554.896645 
L 171.133885 322.064022 
L 171.572991 516.262744 
L 171.792544 427.806164 
L 172.231651 512.566415 
L 172.451204 494.1763 
L 172.670757 377.5263 
L 172.89031 412.587858 
L 173.109863 399.179899 
L 173.548969 472.489848 
L 173.768523 523.7568 
L 173.988076 342.865476 
L 174.207629 504.435998 
L 174.427182 444.951305 
L 174.646735 417.03005 
L 174.866288 416.058935 
L 175.085842 477.408591 
L 175.305395 459.578273 
L 175.524948 508.678715 
L 175.744501 357.283765 
L 176.183607 509.019548 
L 176.40316 500.099702 
L 176.622714 412.694011 
L 176.842267 546.993644 
L 177.06182 440.914021 
L 177.281373 451.229299 
L 177.720479 496.120647 
L 177.940032 489.198808 
L 178.159586 445.978246 
L 178.379139 519.994728 
L 178.598692 440.034659 
L 178.818245 430.046869 
L 179.037798 460.785272 
L 179.257351 432.336349 
L 179.476905 314.852626 
L 179.916011 520.57622 
L 180.355117 344.935674 
L 180.57467 402.770268 
L 180.794223 490.556828 
L 181.013777 499.211634 
L 181.23333 486.45902 
L 181.452883 433.261389 
L 181.672436 497.465918 
L 181.891989 493.907359 
L 182.111542 504.909423 
L 182.331096 457.367381 
L 182.550649 451.463127 
L 182.770202 399.398242 
L 182.989755 442.414078 
L 183.209308 513.188822 
L 183.428861 454.567731 
L 183.648414 484.516303 
L 184.087521 472.822421 
L 184.526627 419.281483 
L 184.74618 498.448035 
L 184.965733 508.391956 
L 185.185287 355.749186 
L 185.40484 511.579295 
L 185.624393 497.252959 
L 186.063499 450.572853 
L 186.283052 510.468531 
L 186.502605 386.264238 
L 186.941712 507.906403 
L 187.161265 461.444638 
L 187.380818 509.144787 
L 187.819924 447.873788 
L 188.039478 519.151986 
L 188.259031 436.563192 
L 188.478584 424.228955 
L 188.698137 495.297969 
L 188.91769 431.139065 
L 189.137243 540.248212 
L 189.57635 475.871302 
L 189.795903 548.85483 
L 190.235009 449.738685 
L 190.454562 464.663607 
L 190.674115 425.363924 
L 190.893669 483.828799 
L 191.113222 354.145317 
L 191.332775 478.7985 
L 191.552328 448.611347 
L 191.771881 562.770164 
L 191.991434 357.555174 
L 192.430541 497.067139 
L 192.650094 468.955175 
L 192.869647 391.045788 
L 193.0892 472.268703 
L 193.308753 441.175114 
L 193.528306 546.412889 
L 193.74786 440.391376 
L 193.967413 457.875374 
L 194.186966 441.320538 
L 194.406519 403.643527 
L 194.626072 493.564462 
L 195.065178 450.694529 
L 195.284732 409.264091 
L 195.723838 369.415492 
L 196.162944 543.561818 
L 196.382497 413.925465 
L 196.602051 508.221275 
L 196.821604 466.462497 
L 197.041157 476.482858 
L 197.26071 506.508282 
L 197.480263 438.510646 
L 197.699816 548.323837 
L 197.919369 509.775905 
L 198.138923 496.772295 
L 198.358476 394.008934 
L 198.578029 418.043441 
L 198.797582 462.248969 
L 199.017135 547.886099 
L 199.236688 515.130262 
L 199.456242 504.227146 
L 199.675795 391.79322 
L 199.895348 513.440401 
L 200.334454 530.360178 
L 200.554007 415.644817 
L 200.77356 455.510086 
L 200.993114 518.048801 
L 201.212667 438.457657 
L 201.43222 462.147153 
L 201.651773 499.264479 
L 201.871326 513.379622 
L 202.090879 455.219469 
L 202.310432 512.024648 
L 202.529986 520.353524 
L 202.749539 487.104674 
L 202.969092 358.638599 
L 203.188645 480.064526 
L 203.408198 379.889962 
L 203.847305 467.832834 
L 204.066858 448.305315 
L 204.286411 503.91798 
L 204.505964 526.628808 
L 204.725517 453.471647 
L 204.94507 421.673766 
L 205.164623 513.724237 
L 205.384177 510.943258 
L 205.60373 459.106746 
L 205.823283 552.064873 
L 206.042836 482.332838 
L 206.262389 459.500235 
L 206.481942 390.436387 
L 206.701496 432.268116 
L 206.921049 386.232993 
L 207.140602 399.592635 
L 207.360155 517.055895 
L 207.579708 515.750205 
L 207.799261 465.345282 
L 208.018814 512.928385 
L 208.238368 280.303565 
L 208.457921 439.303575 
L 208.677474 466.447286 
L 208.897027 462.715825 
L 209.11658 477.865383 
L 209.336133 553.093363 
L 209.555687 505.964935 
L 209.77524 483.522456 
L 209.994793 505.397172 
L 210.214346 458.432618 
L 210.433899 458.583608 
L 210.653452 489.29207 
L 210.873005 432.342781 
L 211.092559 501.568837 
L 211.312112 522.734044 
L 211.531665 467.848284 
L 211.751218 501.579429 
L 211.970771 358.14403 
L 212.409878 540.978608 
L 212.848984 369.119275 
L 213.068537 466.300966 
L 213.28809 388.068281 
L 213.507643 420.256071 
L 213.727196 422.203402 
L 213.94675 500.163972 
L 214.166303 478.947513 
L 214.385856 481.948111 
L 214.605409 523.096813 
L 214.824962 534.256673 
L 215.044515 451.394634 
L 215.264069 458.549611 
L 215.483622 541.083769 
L 215.703175 390.420818 
L 215.922728 491.069733 
L 216.142281 489.889093 
L 216.581387 405.266395 
L 216.800941 516.287417 
L 217.020494 531.84262 
L 217.240047 494.423373 
L 217.4596 533.754528 
L 217.679153 518.288946 
L 217.898706 398.789292 
L 218.11826 432.170038 
L 218.337813 333.110325 
L 218.557366 388.413074 
L 218.776919 473.468337 
L 218.996472 448.083534 
L 219.216025 370.833933 
L 219.655132 471.810514 
L 219.874685 491.488974 
L 220.094238 328.840916 
L 220.313791 491.729101 
L 220.533344 342.416079 
L 220.752897 491.040973 
L 221.192004 412.090763 
L 221.411557 444.507766 
L 221.63111 438.610475 
L 221.850663 371.747007 
L 222.070216 408.942992 
L 222.289769 412.917177 
L 222.728876 503.656248 
L 222.948429 500.493443 
L 223.167982 431.592025 
L 223.387535 503.094062 
L 223.607088 380.428823 
L 223.826642 423.340311 
L 224.046195 379.361192 
L 224.265748 540.007401 
L 224.485301 344.719507 
L 224.704854 412.661867 
L 224.924407 523.065333 
L 225.14396 546.913869 
L 225.363514 459.036197 
L 225.583067 459.179695 
L 225.80262 486.883835 
L 226.022173 440.653163 
L 226.241726 464.818232 
L 226.461279 472.226442 
L 226.680833 401.272894 
L 226.900386 441.370207 
L 227.119939 521.315342 
L 227.339492 480.581117 
L 227.559045 502.433422 
L 227.778598 487.713583 
L 228.217705 427.746854 
L 228.437258 465.055692 
L 228.656811 306.653922 
L 228.876364 522.892068 
L 229.31547 371.995764 
L 229.535023 374.876631 
L 229.754577 512.896711 
L 229.97413 419.421816 
L 230.193683 457.150089 
L 230.413236 449.408118 
L 230.632789 560.336697 
L 231.071896 408.717609 
L 231.291449 455.055031 
L 231.511002 442.149454 
L 231.730555 367.98432 
L 231.950108 506.604988 
L 232.169661 489.527029 
L 232.389214 456.002211 
L 232.608768 472.847391 
L 233.047874 429.903387 
L 233.267427 503.433617 
L 233.48698 475.577171 
L 233.706533 500.250319 
L 233.926087 419.821934 
L 234.14564 445.939806 
L 234.365193 413.96084 
L 234.584746 434.530685 
L 234.804299 465.546901 
L 235.023852 427.692935 
L 235.243405 448.008518 
L 235.462959 484.765266 
L 235.682512 447.906116 
L 235.902065 459.501555 
L 236.121618 478.901015 
L 236.341171 460.634051 
L 236.560724 386.187633 
L 236.780278 541.390214 
L 236.999831 472.347438 
L 237.438937 416.521302 
L 237.65849 538.301511 
L 238.097596 386.048205 
L 238.31715 526.017374 
L 238.536703 428.365226 
L 238.975809 540.730724 
L 239.195362 468.210687 
L 239.634469 498.501825 
L 239.854022 478.676683 
L 240.073575 422.556558 
L 240.293128 523.789952 
L 240.512681 503.106973 
L 240.732234 520.010925 
L 240.951787 419.189027 
L 241.171341 492.945465 
L 241.390894 523.812856 
L 241.610447 501.74845 
L 241.83 466.726452 
L 242.049553 534.751475 
L 242.48866 376.188125 
L 242.708213 464.837523 
L 242.927766 452.274247 
L 243.147319 492.646977 
L 243.366872 398.609233 
L 243.586425 493.384774 
L 243.805978 479.330719 
L 244.025532 392.473949 
L 244.245085 451.008653 
L 244.464638 422.737815 
L 244.684191 493.955281 
L 244.903744 403.193829 
L 245.123297 496.634062 
L 245.342851 469.339203 
L 245.562404 411.876772 
L 245.781957 514.96882 
L 246.00151 397.222355 
L 246.221063 435.599041 
L 246.440616 419.635806 
L 246.660169 489.424571 
L 246.879723 469.324428 
L 247.099276 476.247368 
L 247.318829 438.381762 
L 247.538382 518.608837 
L 247.757935 449.670474 
L 247.977488 422.409788 
L 248.197042 365.925737 
L 248.416595 440.419594 
L 248.855701 494.362863 
L 249.075254 500.211557 
L 249.294807 460.668636 
L 249.51436 478.330951 
L 249.733914 457.544523 
L 249.953467 509.841039 
L 250.17302 479.951571 
L 250.392573 474.016916 
L 250.612126 456.993997 
L 250.831679 504.225347 
L 251.051233 455.557113 
L 251.270786 496.289952 
L 251.490339 387.38846 
L 251.929445 502.725374 
L 252.368551 400.21068 
L 252.588105 525.760959 
L 252.807658 457.690247 
L 253.027211 554.270695 
L 253.466317 452.309775 
L 253.68587 403.431444 
L 253.905424 442.642864 
L 254.34453 428.167504 
L 254.564083 438.968517 
L 254.783636 464.982903 
L 255.003189 358.812326 
L 255.222742 470.822371 
L 255.661849 499.849227 
L 255.881402 535.184438 
L 256.100955 462.692558 
L 256.320508 439.661927 
L 256.540061 444.482409 
L 256.759614 481.301879 
L 256.979168 471.514318 
L 257.198721 410.411249 
L 257.637827 475.343353 
L 258.076933 371.427015 
L 258.296487 457.81007 
L 258.51604 430.515075 
L 258.735593 495.643974 
L 258.955146 464.934647 
L 259.174699 521.895372 
L 259.394252 458.305031 
L 259.613805 454.432429 
L 259.833359 374.931533 
L 260.052912 374.129584 
L 260.272465 468.768515 
L 260.492018 506.345694 
L 260.711571 332.388234 
L 260.931124 465.165416 
L 261.150678 507.055668 
L 261.370231 394.970826 
L 261.589784 470.348984 
L 261.809337 465.094211 
L 262.02889 228.774133 
L 262.248443 456.038286 
L 262.467996 421.673798 
L 262.68755 416.472279 
L 262.907103 437.022627 
L 263.126656 480.779313 
L 263.346209 463.935289 
L 263.565762 499.626363 
L 263.785315 491.725147 
L 264.004869 343.565497 
L 264.224422 448.007769 
L 264.443975 462.727023 
L 264.663528 524.33772 
L 264.883081 530.20426 
L 265.102634 525.816963 
L 265.322187 518.206868 
L 265.541741 322.719342 
L 265.761294 466.192977 
L 265.980847 461.309693 
L 266.2004 451.869282 
L 266.419953 435.881745 
L 266.639506 455.764027 
L 266.85906 385.830283 
L 267.078613 490.177357 
L 267.517719 397.815404 
L 267.737272 356.384599 
L 267.956825 377.270726 
L 268.176378 511.136106 
L 268.395932 502.054879 
L 268.615485 357.825851 
L 268.835038 515.8078 
L 269.054591 426.660988 
L 269.274144 484.453726 
L 269.493697 404.970976 
L 269.932804 486.778412 
L 270.152357 389.796536 
L 270.37191 438.12565 
L 270.591463 455.098184 
L 270.811016 397.263167 
L 271.250123 562.191978 
L 271.689229 422.628449 
L 271.908782 483.131645 
L 272.128335 500.216511 
L 272.347888 394.171056 
L 272.786995 494.699333 
L 273.226101 551.838453 
L 273.445654 481.827969 
L 273.665207 314.414591 
L 274.104314 475.292553 
L 274.323867 407.950816 
L 274.54342 404.678734 
L 274.762973 131.956182 
L 274.982526 487.84225 
L 275.202079 518.524134 
L 275.421633 508.158704 
L 275.641186 469.083713 
L 275.860739 534.555022 
L 276.080292 534.758113 
L 276.299845 521.551885 
L 276.738951 362.971367 
L 276.958505 494.565345 
L 277.178058 467.873074 
L 277.397611 528.154407 
L 277.836717 405.218664 
L 278.05627 408.116807 
L 278.275824 479.072621 
L 278.495377 426.497388 
L 278.71493 426.928659 
L 278.934483 505.133183 
L 279.154036 431.411821 
L 279.373589 452.328168 
L 279.593142 486.13841 
L 279.812696 487.80448 
L 280.032249 519.018916 
L 280.251802 489.41903 
L 280.471355 496.807493 
L 280.910461 455.777993 
L 281.130014 468.268766 
L 281.349568 452.256001 
L 281.569121 499.352164 
L 281.788674 410.685487 
L 282.008227 438.35578 
L 282.22778 417.364856 
L 282.447333 467.350263 
L 283.105993 514.830015 
L 283.325546 479.438424 
L 283.545099 535.713472 
L 283.984205 347.866427 
L 284.203759 478.344351 
L 284.423312 495.115278 
L 284.642865 436.512581 
L 284.862418 456.379603 
L 285.081971 493.234119 
L 285.301524 395.012172 
L 285.521078 473.906477 
L 285.740631 454.492484 
L 285.960184 466.201396 
L 286.179737 369.846041 
L 286.39929 492.453337 
L 286.618843 489.877995 
L 286.838396 461.427278 
L 287.05795 547.680935 
L 287.277503 507.789112 
L 287.497056 316.600724 
L 287.716609 497.778221 
L 288.155715 403.868958 
L 288.594822 495.692559 
L 288.814375 451.302983 
L 289.033928 511.018644 
L 289.253481 437.86781 
L 289.473034 514.123346 
L 289.692587 481.706157 
L 289.912141 416.28013 
L 290.131694 508.866683 
L 290.351247 406.897658 
L 290.790353 486.460575 
L 291.009906 500.585716 
L 291.22946 561.315817 
L 291.449013 506.289479 
L 291.668566 391.789763 
L 291.888119 433.803974 
L 292.107672 531.716164 
L 292.327225 522.634286 
L 292.546778 436.93461 
L 292.766332 451.302869 
L 292.985885 513.184096 
L 293.205438 526.797392 
L 293.424991 397.326398 
L 293.644544 461.850642 
L 293.864097 403.665092 
L 294.083651 438.481909 
L 294.303204 452.738174 
L 294.522757 452.90269 
L 294.74231 513.007095 
L 294.961863 475.719036 
L 295.181416 481.498876 
L 295.620523 384.90623 
L 295.840076 460.982894 
L 296.059629 482.107608 
L 296.498735 534.097054 
L 296.718288 454.190414 
L 296.937842 433.953506 
L 297.157395 488.014866 
L 297.376948 345.275736 
L 297.596501 472.112877 
L 297.816054 396.36086 
L 298.035607 497.284927 
L 298.474714 476.167873 
L 298.694267 429.142338 
L 298.91382 487.050763 
L 299.133373 441.268594 
L 299.352926 458.563929 
L 299.572479 457.54089 
L 299.792033 465.203565 
L 300.011586 359.696872 
L 300.231139 446.569888 
L 300.450692 430.585149 
L 300.670245 438.896472 
L 300.889798 476.128486 
L 301.109351 444.457625 
L 301.328905 432.864116 
L 301.548458 444.575747 
L 301.768011 507.142623 
L 302.207117 389.606362 
L 302.42667 503.999483 
L 302.646224 377.903019 
L 302.865777 425.217741 
L 303.08533 420.210303 
L 303.524436 520.167029 
L 303.743989 282.736067 
L 303.963542 463.986071 
L 304.183096 505.619714 
L 304.402649 420.675919 
L 304.622202 146.525108 
L 304.841755 529.642699 
L 305.280861 457.669378 
L 305.500415 526.684601 
L 305.719968 440.592 
L 305.939521 493.076372 
L 306.378627 388.641307 
L 306.817733 554.241152 
L 307.037287 466.159782 
L 307.25684 516.791093 
L 307.476393 528.892408 
L 307.915499 401.788749 
L 308.135052 541.849281 
L 308.354605 453.866377 
L 308.574159 442.023875 
L 308.793712 470.947202 
L 309.013265 462.890095 
L 309.232818 494.447941 
L 309.452371 497.466372 
L 309.671924 491.473945 
L 309.891478 481.241868 
L 310.550137 397.211494 
L 310.76969 426.740237 
L 311.208796 499.332428 
L 311.42835 346.826028 
L 311.647903 389.591244 
L 311.867456 490.100721 
L 312.087009 496.182593 
L 312.306562 439.526525 
L 312.526115 265.197869 
L 312.745669 503.276326 
L 312.965222 515.484802 
L 313.184775 487.898253 
L 313.404328 259.26933 
L 313.623881 442.995406 
L 313.843434 386.94233 
L 314.282541 477.094132 
L 314.502094 386.172819 
L 314.721647 473.536207 
L 314.9412 460.744251 
L 315.160753 417.258602 
L 315.380306 443.688094 
L 315.59986 452.341336 
L 315.819413 494.820217 
L 316.038966 416.46187 
L 316.258519 398.543357 
L 316.697625 543.438089 
L 317.136732 467.586474 
L 317.356285 436.585002 
L 317.575838 472.637802 
L 317.795391 429.231474 
L 318.014944 424.659694 
L 318.234497 406.550146 
L 318.454051 361.179684 
L 318.673604 454.625327 
L 318.893157 464.063756 
L 319.11271 438.273091 
L 319.332263 475.626013 
L 319.771369 447.82629 
L 319.990923 447.854801 
L 320.210476 440.563876 
L 320.430029 487.287926 
L 320.649582 287.648249 
L 320.869135 465.07714 
L 321.088688 527.805259 
L 321.308242 497.380581 
L 321.527795 488.555384 
L 321.747348 448.291145 
L 321.966901 473.023587 
L 322.186454 468.141645 
L 322.406007 443.085965 
L 322.62556 381.043291 
L 322.845114 504.04026 
L 323.064667 398.57346 
L 323.503773 529.563419 
L 323.723326 339.336444 
L 323.942879 441.620003 
L 324.162433 469.86329 
L 324.381986 456.276381 
L 324.601539 407.113242 
L 324.821092 507.895318 
L 325.040645 443.309064 
L 325.260198 424.749555 
L 325.479751 534.76818 
L 325.699305 360.870537 
L 325.918858 530.197517 
L 326.138411 504.427266 
L 326.357964 551.295411 
L 326.577517 538.113311 
L 326.79707 533.243235 
L 327.016624 384.624562 
L 327.236177 405.888434 
L 327.45573 387.089409 
L 327.675283 512.860519 
L 327.894836 485.161083 
L 328.114389 394.546433 
L 328.553496 533.106427 
L 328.773049 386.57842 
L 328.992602 443.246144 
L 329.212155 535.657528 
L 329.431708 477.740526 
L 329.651261 359.894171 
L 329.870815 409.57871 
L 330.090368 369.759683 
L 330.309921 478.729226 
L 330.529474 496.731204 
L 330.749027 501.247411 
L 330.96858 496.511503 
L 331.188133 421.733293 
L 331.407687 474.59124 
L 331.62724 439.985439 
L 331.846793 368.073632 
L 332.066346 364.429315 
L 332.285899 495.759055 
L 332.505452 538.765806 
L 332.725006 504.412782 
L 332.944559 404.992104 
L 333.164112 506.453871 
L 333.383665 447.3895 
L 333.603218 294.716407 
L 333.822771 418.816875 
L 334.042324 477.711377 
L 334.261878 264.652865 
L 334.481431 500.441937 
L 334.700984 366.210079 
L 334.920537 479.612819 
L 335.14009 509.146931 
L 335.579196 394.431204 
L 335.79875 540.232917 
L 336.018303 526.882389 
L 336.237856 444.901899 
L 336.457409 461.206405 
L 336.676962 399.5224 
L 336.896515 438.961074 
L 337.116069 390.843392 
L 337.335622 428.958696 
L 337.555175 380.319731 
L 337.774728 466.958926 
L 337.994281 492.252958 
L 338.213834 439.45185 
L 338.433387 483.77684 
L 338.652941 472.349302 
L 339.092047 501.702079 
L 339.3116 485.801746 
L 339.531153 489.49656 
L 339.97026 520.540342 
L 340.189813 500.874447 
L 340.409366 499.862012 
L 340.628919 460.360502 
L 340.848472 475.383279 
L 341.068025 511.344438 
L 341.287578 472.424963 
L 341.507132 457.562707 
L 341.726685 514.129345 
L 341.946238 476.188924 
L 342.165791 479.07961 
L 342.385344 406.65594 
L 342.604897 509.275637 
L 342.824451 461.207235 
L 343.044004 438.122548 
L 343.263557 456.527284 
L 343.48311 516.70313 
L 343.702663 533.803434 
L 343.922216 478.763576 
L 344.141769 462.36894 
L 344.361323 361.73835 
L 344.580876 485.691661 
L 344.800429 451.100592 
L 345.019982 515.155051 
L 345.239535 443.590458 
L 345.459088 531.205609 
L 345.678642 467.900238 
L 345.898195 535.052104 
L 346.117748 500.331972 
L 346.337301 397.968506 
L 346.556854 478.103999 
L 346.776407 505.140439 
L 346.99596 428.11501 
L 347.215514 505.918894 
L 347.435067 538.62469 
L 347.65462 394.409796 
L 347.874173 479.477602 
L 348.093726 407.191704 
L 348.313279 458.310573 
L 348.532833 456.402597 
L 348.752386 462.993336 
L 348.971939 515.795182 
L 349.191492 480.413752 
L 349.411045 543.551749 
L 349.630598 457.333322 
L 349.850151 439.896987 
L 350.069705 492.470321 
L 350.289258 490.665551 
L 350.508811 495.712109 
L 350.728364 528.44288 
L 350.947917 447.568407 
L 351.16747 461.411162 
L 351.387024 370.308897 
L 351.606577 488.870146 
L 351.82613 493.854729 
L 352.045683 546.62055 
L 352.265236 565.280853 
L 352.484789 446.15575 
L 352.704342 476.082643 
L 352.923896 291.235047 
L 353.363002 471.338539 
L 353.582555 460.665886 
L 353.802108 521.150161 
L 354.021661 335.164075 
L 354.241215 488.050306 
L 354.460768 458.753819 
L 354.680321 472.468253 
L 354.899874 412.073521 
L 355.119427 511.096321 
L 355.33898 535.038917 
L 355.558533 462.905128 
L 355.778087 510.106943 
L 355.99764 417.944195 
L 356.217193 495.005456 
L 356.436746 440.957402 
L 356.656299 493.486081 
L 356.875852 517.858109 
L 357.095406 458.301552 
L 357.314959 449.575012 
L 357.534512 479.686253 
L 357.754065 293.166176 
L 358.193171 489.796014 
L 358.412724 298.282828 
L 358.851831 533.661128 
L 359.071384 342.140419 
L 359.290937 516.522054 
L 359.51049 411.466688 
L 359.730043 516.949608 
L 359.949596 477.032302 
L 360.16915 360.484957 
L 360.388703 449.973236 
L 360.608256 439.411317 
L 360.827809 527.997465 
L 361.047362 482.852339 
L 361.266915 398.311078 
L 361.706022 491.381591 
L 361.925575 501.872383 
L 362.145128 463.809964 
L 362.364681 389.497735 
L 362.584234 521.852118 
L 362.803787 405.047183 
L 363.023341 443.902461 
L 363.242894 390.37593 
L 363.462447 427.803026 
L 363.682 435.72404 
L 363.901553 425.177187 
L 364.121106 511.055957 
L 364.34066 411.340561 
L 364.560213 400.104007 
L 364.779766 490.606221 
L 364.999319 369.432975 
L 365.218872 426.202722 
L 365.438425 438.289429 
L 365.657978 519.240986 
L 365.877532 413.002107 
L 366.097085 552.49834 
L 366.316638 471.444713 
L 366.536191 471.167206 
L 366.755744 464.08809 
L 366.975297 520.249385 
L 367.194851 466.214859 
L 367.633957 495.261522 
L 367.85351 412.092914 
L 368.073063 424.126299 
L 368.292616 489.521503 
L 368.512169 300.099358 
L 368.731723 549.131538 
L 368.951276 469.423464 
L 369.170829 505.162449 
L 369.390382 491.963766 
L 369.609935 434.285373 
L 369.829488 435.329159 
L 370.049042 283.621846 
L 370.268595 450.787871 
L 370.488148 412.642804 
L 370.707701 484.11222 
L 370.927254 496.592756 
L 371.146807 485.475699 
L 371.36636 441.733329 
L 371.585914 500.525109 
L 371.805467 464.918369 
L 372.244573 495.07881 
L 372.464126 461.470983 
L 372.683679 516.33872 
L 372.903233 514.908869 
L 373.122786 401.087112 
L 373.342339 492.573768 
L 373.561892 437.360242 
L 373.781445 463.979184 
L 374.000998 474.97869 
L 374.220551 460.030471 
L 374.440105 501.490988 
L 374.659658 493.18331 
L 374.879211 478.68381 
L 375.098764 370.760824 
L 375.318317 471.368645 
L 375.53787 358.471557 
L 375.757424 505.193387 
L 375.976977 406.838668 
L 376.19653 434.785228 
L 376.416083 342.747751 
L 376.635636 371.947655 
L 376.855189 430.220088 
L 377.074742 420.486135 
L 377.294296 511.07138 
L 377.513849 434.582412 
L 377.733402 409.448255 
L 377.952955 351.926129 
L 378.172508 507.063637 
L 378.392061 428.704049 
L 378.611615 488.299152 
L 378.831168 466.496651 
L 379.050721 512.774601 
L 379.270274 432.546267 
L 379.489827 484.065668 
L 379.70938 444.129341 
L 379.928933 464.671734 
L 380.148487 424.062644 
L 380.36804 465.459044 
L 380.587593 414.220499 
L 381.026699 533.978314 
L 381.246252 431.579181 
L 381.465806 481.312384 
L 381.685359 490.34854 
L 381.904912 368.271742 
L 382.124465 489.281769 
L 382.344018 466.705578 
L 382.563571 494.843461 
L 382.783124 401.597551 
L 383.002678 393.215177 
L 383.222231 499.149069 
L 383.441784 441.833878 
L 383.661337 328.015441 
L 383.88089 456.903104 
L 384.100443 443.825791 
L 384.319997 472.355677 
L 384.53955 471.951719 
L 384.978656 450.313819 
L 385.198209 462.014155 
L 385.417762 416.246168 
L 385.637315 539.904891 
L 385.856869 579.909186 
L 386.295975 371.304534 
L 386.515528 412.065195 
L 386.735081 523.042353 
L 386.954634 498.596611 
L 387.174187 506.135878 
L 387.613294 476.556067 
L 387.832847 515.750532 
L 388.0524 442.113863 
L 388.271953 434.39171 
L 388.71106 489.548569 
L 388.930613 394.305971 
L 389.150166 501.382311 
L 389.369719 498.938682 
L 389.589272 419.809284 
L 389.808825 528.672157 
L 390.028378 417.707089 
L 390.467485 529.58164 
L 390.687038 504.934188 
L 390.906591 421.079484 
L 391.126144 504.084628 
L 391.345697 381.758755 
L 391.565251 514.542257 
L 391.784804 500.949235 
L 392.22391 450.711891 
L 392.443463 520.909389 
L 392.663016 540.413534 
L 392.882569 504.155689 
L 393.102123 581.38839 
L 393.321676 303.294167 
L 393.541229 466.135016 
L 393.760782 536.84971 
L 393.980335 506.975918 
L 394.199888 418.703693 
L 394.638995 542.670939 
L 394.858548 478.384272 
L 395.078101 525.406934 
L 395.297654 442.636253 
L 395.73676 506.547151 
L 395.956314 457.695096 
L 396.175867 483.462307 
L 396.39542 528.51394 
L 396.614973 405.636275 
L 396.834526 443.363252 
L 397.054079 333.527181 
L 397.273633 495.014517 
L 397.493186 484.165422 
L 397.712739 456.801318 
L 397.932292 463.34292 
L 398.151845 363.441437 
L 398.371398 520.434218 
L 398.590951 437.220121 
L 399.030058 534.841828 
L 399.249611 382.947015 
L 399.469164 337.866403 
L 399.688717 411.13222 
L 400.127824 458.769334 
L 400.347377 403.369518 
L 400.56693 406.248801 
L 400.786483 429.922001 
L 401.006036 487.791236 
L 401.225589 461.586686 
L 401.445142 483.100673 
L 401.884249 360.506654 
L 402.103802 446.914673 
L 402.323355 440.830123 
L 402.542908 406.925714 
L 402.762461 459.979513 
L 402.982015 478.5253 
L 403.421121 388.92998 
L 403.640674 461.783535 
L 403.860227 448.229277 
L 404.07978 492.840954 
L 404.299333 349.880483 
L 404.518887 471.391704 
L 404.957993 525.487439 
L 405.397099 416.927553 
L 405.616652 532.786848 
L 405.836206 497.665188 
L 406.055759 361.562478 
L 406.275312 513.378217 
L 406.494865 483.53334 
L 406.714418 481.501344 
L 406.933971 532.379709 
L 407.153524 532.489089 
L 407.373078 419.153819 
L 407.592631 420.035956 
L 407.812184 426.79868 
L 408.031737 514.076036 
L 408.25129 546.66674 
L 408.470843 423.051979 
L 408.690397 517.148077 
L 408.90995 498.14739 
L 409.129503 437.125032 
L 409.349056 525.824701 
L 409.568609 374.91396 
L 409.788162 475.852919 
L 410.007715 404.691834 
L 410.227269 526.061628 
L 410.446822 347.310081 
L 410.666375 421.748557 
L 411.105481 467.719443 
L 411.325034 509.110436 
L 411.544587 497.594921 
L 411.764141 463.978379 
L 411.983694 500.903117 
L 412.203247 434.836197 
L 412.4228 407.837628 
L 412.642353 470.396788 
L 412.861906 486.47887 
L 413.08146 254.326016 
L 413.301013 510.218434 
L 413.520566 355.366408 
L 413.740119 401.552693 
L 413.959672 485.08486 
L 414.179225 454.457987 
L 414.398778 466.683837 
L 414.618332 357.075254 
L 414.837885 541.333262 
L 415.057438 437.663557 
L 415.276991 464.874663 
L 415.496544 443.761512 
L 415.716097 526.192019 
L 415.935651 496.445358 
L 416.155204 345.975714 
L 416.374757 459.533965 
L 416.59431 484.057738 
L 416.813863 400.716235 
L 417.252969 536.692932 
L 417.472523 524.202745 
L 417.692076 427.199334 
L 417.911629 431.500726 
L 418.131182 428.72464 
L 418.350735 496.179822 
L 418.570288 498.384459 
L 418.789842 557.51647 
L 419.009395 440.721344 
L 419.228948 492.58584 
L 419.448501 491.846778 
L 419.668054 484.371576 
L 419.887607 509.633728 
L 420.10716 479.759594 
L 420.326714 505.393975 
L 420.546267 441.683644 
L 420.76582 452.884858 
L 420.985373 380.897301 
L 421.204926 546.547639 
L 421.424479 547.835809 
L 421.644033 457.91298 
L 421.863586 428.573102 
L 422.083139 535.993029 
L 422.302692 478.00972 
L 422.741798 545.423188 
L 422.961351 509.623917 
L 423.400458 386.274794 
L 423.620011 444.468404 
L 423.839564 448.737375 
L 424.059117 448.624079 
L 424.27867 388.387427 
L 424.498224 455.346482 
L 424.717777 458.046353 
L 424.93733 458.945531 
L 425.156883 449.439932 
L 425.376436 345.266311 
L 425.595989 407.756743 
L 425.815542 525.951031 
L 426.035096 529.738527 
L 426.254649 460.417663 
L 426.474202 495.808088 
L 426.693755 493.579134 
L 427.132861 384.558472 
L 427.352415 496.283262 
L 427.571968 442.722984 
L 427.791521 500.539028 
L 428.011074 511.735256 
L 428.230627 514.57222 
L 428.45018 476.337203 
L 428.669733 476.275619 
L 428.889287 393.851512 
L 429.10884 503.128375 
L 429.328393 510.086994 
L 429.547946 548.380041 
L 429.767499 465.626615 
L 429.987052 472.742176 
L 430.206606 551.724037 
L 430.426159 468.57762 
L 430.645712 451.693332 
L 430.865265 392.430017 
L 431.084818 475.651875 
L 431.304371 440.707391 
L 431.523924 476.130864 
L 431.743478 438.564447 
L 431.963031 453.070762 
L 432.402137 352.558589 
L 432.62169 512.401034 
L 432.841243 325.778518 
L 433.060797 466.4316 
L 433.28035 381.948681 
L 433.499903 492.54939 
L 433.719456 403.67758 
L 433.939009 470.379691 
L 434.158562 444.523363 
L 434.378115 502.652505 
L 434.597669 369.187028 
L 434.817222 474.176095 
L 435.036775 467.651585 
L 435.256328 488.834684 
L 435.475881 481.239863 
L 435.695434 506.775268 
L 435.914988 431.681006 
L 436.134541 522.205716 
L 436.354094 429.170733 
L 436.573647 537.168528 
L 436.7932 470.302732 
L 437.012753 312.41868 
L 437.232306 534.178448 
L 437.45186 514.21245 
L 437.890966 407.576965 
L 438.110519 468.465226 
L 438.330072 491.099533 
L 438.549625 402.364122 
L 438.769178 491.652825 
L 438.988732 452.623685 
L 439.208285 347.667376 
L 439.427838 522.163674 
L 439.647391 452.319125 
L 439.866944 451.195413 
L 440.525604 504.774162 
L 440.745157 490.529462 
L 440.96471 410.391942 
L 441.184263 492.32687 
L 441.403816 356.263066 
L 441.623369 339.547171 
L 441.842923 363.294509 
L 442.062476 516.040331 
L 442.282029 478.222432 
L 442.501582 474.508055 
L 442.721135 357.684186 
L 442.940688 506.168872 
L 443.160242 506.971347 
L 443.379795 436.333072 
L 443.599348 460.849275 
L 443.818901 199.696438 
L 444.038454 436.297352 
L 444.258007 448.864715 
L 444.47756 515.205226 
L 444.697114 436.252714 
L 444.916667 538.038029 
L 445.13622 442.306121 
L 445.575326 415.758998 
L 445.794879 430.331348 
L 446.233986 486.681096 
L 446.453539 441.047299 
L 446.673092 267.916829 
L 446.892645 493.509417 
L 447.112198 507.660749 
L 447.331751 466.453466 
L 447.551305 352.316847 
L 447.770858 442.945319 
L 447.990411 452.003029 
L 448.209964 354.32388 
L 448.429517 408.874338 
L 448.64907 516.316274 
L 448.868624 474.85312 
L 449.088177 480.194579 
L 449.30773 469.278939 
L 449.527283 486.801934 
L 449.746836 457.860746 
L 449.966389 410.52907 
L 450.185942 446.386001 
L 450.405496 400.329066 
L 450.625049 456.141917 
L 450.844602 474.63068 
L 451.064155 429.083705 
L 451.283708 525.233256 
L 451.503261 464.148929 
L 451.722815 439.770578 
L 451.942368 432.291604 
L 452.161921 555.579195 
L 452.381474 439.788109 
L 452.601027 449.207109 
L 452.82058 524.107264 
L 453.259687 404.974105 
L 453.47924 405.075773 
L 453.698793 527.275249 
L 453.918346 530.693858 
L 454.137899 453.987143 
L 454.357452 427.602378 
L 454.577006 499.49628 
L 454.796559 410.766127 
L 455.016112 547.804182 
L 455.235665 429.048101 
L 455.455218 434.837941 
L 455.674771 491.069502 
L 455.894324 499.329427 
L 456.113878 499.958179 
L 456.333431 444.991984 
L 456.552984 343.331617 
L 456.772537 432.567518 
L 456.99209 468.875164 
L 457.211643 377.721822 
L 457.431197 509.389399 
L 457.65075 534.115761 
L 457.870303 475.167799 
L 458.089856 370.512464 
L 458.309409 505.490592 
L 458.528962 499.190021 
L 458.748515 499.381087 
L 458.968069 515.318946 
L 459.187622 482.227511 
L 459.407175 409.286161 
L 459.846281 453.555553 
L 460.065834 488.047441 
L 460.285388 419.127437 
L 460.504941 481.885344 
L 460.724494 432.476787 
L 460.944047 486.233552 
L 461.1636 483.174668 
L 461.383153 421.216589 
L 461.602706 490.774529 
L 461.82226 431.412287 
L 462.041813 404.451288 
L 462.480919 484.390921 
L 462.700472 460.73993 
L 462.920025 481.015407 
L 463.139579 470.50443 
L 463.359132 436.594782 
L 463.578685 459.815351 
L 463.798238 412.360407 
L 464.237344 471.899203 
L 464.456897 448.67906 
L 464.676451 408.712871 
L 465.115557 533.973002 
L 465.33511 494.29367 
L 465.554663 501.178067 
L 465.774216 467.130286 
L 465.993769 567.928133 
L 466.432876 424.820614 
L 466.871982 549.301952 
L 467.091535 419.276859 
L 467.311088 452.389196 
L 467.530642 516.409236 
L 467.750195 502.620387 
L 467.969748 511.424497 
L 468.189301 497.009456 
L 468.408854 528.043803 
L 468.628407 375.598513 
L 468.84796 527.017293 
L 469.067514 466.476355 
L 469.287067 455.22617 
L 469.50662 489.370966 
L 469.726173 435.090818 
L 469.945726 494.816662 
L 470.165279 481.559762 
L 470.384833 551.176471 
L 470.604386 501.75549 
L 470.823939 478.653121 
L 471.043492 526.654152 
L 471.263045 456.003772 
L 471.482598 480.3474 
L 471.702151 542.957679 
L 471.921705 529.600501 
L 472.141258 445.995364 
L 472.360811 521.25869 
L 472.580364 468.320367 
L 472.799917 449.578735 
L 473.01947 452.820633 
L 473.239024 477.551385 
L 473.458577 456.653755 
L 473.67813 452.449927 
L 473.897683 492.488665 
L 474.117236 482.822912 
L 474.336789 421.457409 
L 474.556342 501.600619 
L 474.775896 484.210003 
L 474.995449 455.383255 
L 475.215002 535.665121 
L 475.434555 440.618682 
L 475.654108 397.34542 
L 475.873661 503.870822 
L 476.093215 500.092823 
L 476.312768 475.224323 
L 476.532321 399.129832 
L 476.751874 511.687053 
L 476.971427 392.743119 
L 477.19098 518.558833 
L 477.410533 522.356231 
L 477.630087 441.054091 
L 477.84964 472.462245 
L 478.288746 414.497481 
L 478.508299 280.520019 
L 478.727852 442.005189 
L 478.947406 489.784952 
L 479.386512 320.689893 
L 479.606065 522.194311 
L 479.825618 436.589381 
L 480.045171 497.709661 
L 480.264724 503.967254 
L 480.703831 393.887019 
L 481.142937 497.956901 
L 481.36249 480.156591 
L 481.582043 354.022333 
L 481.801597 503.849073 
L 482.02115 556.967194 
L 482.240703 467.108694 
L 482.460256 511.961548 
L 482.679809 498.445013 
L 482.899362 381.583858 
L 483.338469 433.824906 
L 483.777575 480.816618 
L 483.997128 477.910089 
L 484.216681 485.480069 
L 484.436234 488.829197 
L 484.655788 402.270322 
L 484.875341 504.674759 
L 485.094894 519.363229 
L 485.314447 329.748278 
L 485.534 478.338792 
L 485.753553 498.052416 
L 485.973106 396.495686 
L 486.19266 439.638951 
L 486.412213 402.885264 
L 486.631766 484.105822 
L 486.851319 471.180228 
L 487.070872 375.315356 
L 487.290425 446.845887 
L 487.509979 458.856174 
L 487.729532 480.741177 
L 487.949085 524.010963 
L 488.168638 427.597672 
L 488.388191 395.673397 
L 488.607744 433.533067 
L 488.827297 505.440847 
L 489.046851 452.99941 
L 489.266404 436.668057 
L 489.485957 395.037672 
L 489.70551 454.636345 
L 489.925063 354.472055 
L 490.144616 480.036694 
L 490.364169 482.083887 
L 490.583723 495.76661 
L 490.803276 378.591507 
L 491.022829 511.036226 
L 491.242382 426.748252 
L 491.461935 431.558803 
L 491.681488 416.205694 
L 491.901042 388.83568 
L 492.120595 492.62111 
L 492.340148 393.471947 
L 492.779254 442.044718 
L 492.998807 493.6003 
L 493.21836 506.808707 
L 493.437914 411.98983 
L 493.657467 528.987221 
L 493.87702 520.705037 
L 494.316126 408.784806 
L 494.755233 517.620785 
L 494.974786 440.041066 
L 495.194339 498.700766 
L 495.633445 503.404965 
L 495.852998 409.124716 
L 496.072551 542.545459 
L 496.511658 444.890566 
L 496.731211 409.227609 
L 496.950764 522.651602 
L 497.170317 514.058115 
L 497.38987 400.224261 
L 497.828977 476.864442 
L 498.04853 395.557811 
L 498.268083 514.891165 
L 498.487636 557.355348 
L 498.707189 546.122426 
L 498.926742 485.427628 
L 499.146296 493.062954 
L 499.365849 237.358383 
L 499.585402 502.49175 
L 499.804955 403.668015 
L 500.024508 515.747096 
L 500.244061 526.729395 
L 500.463615 377.685304 
L 500.683168 492.715126 
L 500.902721 499.009206 
L 501.122274 378.169021 
L 501.341827 486.345457 
L 501.780933 298.382425 
L 502.000487 501.338506 
L 502.439593 439.976062 
L 502.659146 426.224156 
L 502.878699 376.819992 
L 503.098252 374.970421 
L 503.317806 370.766092 
L 503.537359 505.478331 
L 503.756912 442.189044 
L 504.196018 503.369871 
L 504.415571 485.558858 
L 504.635124 505.851258 
L 505.074231 388.007837 
L 505.293784 463.589192 
L 505.513337 461.269177 
L 505.73289 510.227758 
L 505.952443 407.193269 
L 506.171997 458.391294 
L 506.39155 421.868448 
L 506.611103 445.57034 
L 506.830656 456.249578 
L 507.050209 440.364636 
L 507.269762 439.898295 
L 507.489315 510.194489 
L 507.708869 496.349449 
L 507.928422 398.074697 
L 508.147975 484.127153 
L 508.367528 437.375321 
L 508.587081 362.001563 
L 509.026188 489.483965 
L 509.245741 394.088477 
L 509.465294 418.885466 
L 509.684847 518.313014 
L 510.123953 427.463706 
L 510.343506 559.510457 
L 510.56306 471.791355 
L 510.782613 516.754356 
L 511.221719 480.532449 
L 511.441272 512.580737 
L 511.660825 456.158709 
L 511.880379 474.722833 
L 512.099932 541.139611 
L 512.319485 504.046189 
L 512.539038 423.099014 
L 512.758591 428.155786 
L 512.978144 507.668252 
L 513.197697 489.229372 
L 513.417251 447.15708 
L 513.636804 460.622456 
L 513.856357 493.572855 
L 514.07591 425.338721 
L 514.295463 536.31652 
L 514.515016 437.039181 
L 514.73457 459.614596 
L 514.954123 297.101584 
L 515.173676 344.945974 
L 515.393229 492.919769 
L 515.612782 473.906128 
L 515.832335 537.366126 
L 516.051888 440.166294 
L 516.271442 414.381072 
L 516.490995 456.376152 
L 516.710548 523.18007 
L 516.930101 353.085757 
L 517.149654 494.705676 
L 517.369207 561.438171 
L 517.58876 400.661151 
L 517.808314 384.68518 
L 518.027867 458.606869 
L 518.24742 467.834446 
L 518.466973 538.10485 
L 518.686526 422.396147 
L 518.906079 516.086986 
L 519.125633 482.249442 
L 519.345186 505.955388 
L 519.784292 347.38751 
L 520.003845 492.110482 
L 520.223398 446.1806 
L 520.442951 524.768827 
L 520.662505 431.393451 
L 520.882058 396.072068 
L 521.101611 421.90594 
L 521.321164 363.701632 
L 521.540717 422.283173 
L 521.76027 434.766567 
L 521.979824 466.710561 
L 522.199377 448.002704 
L 522.41893 372.033558 
L 522.638483 490.572741 
L 522.858036 527.831314 
L 523.077589 516.668105 
L 523.297142 473.638986 
L 523.516696 517.954215 
L 523.955802 375.493145 
L 524.175355 467.78024 
L 524.394908 447.214369 
L 524.614461 513.834998 
L 524.834015 517.990504 
L 525.053568 460.910205 
L 525.273121 537.268895 
L 525.492674 472.072027 
L 525.712227 459.6287 
L 525.93178 462.21625 
L 526.151333 441.75463 
L 526.370887 464.641391 
L 526.59044 460.176034 
L 526.809993 480.767301 
L 527.029546 478.339457 
L 527.249099 454.177847 
L 527.468652 482.749859 
L 527.688206 437.787436 
L 527.907759 512.903588 
L 528.127312 472.56044 
L 528.346865 542.129908 
L 528.566418 535.331652 
L 528.785971 413.35769 
L 529.005524 461.272555 
L 529.225078 402.784294 
L 529.444631 485.372122 
L 529.664184 450.214006 
L 529.883737 471.905884 
L 530.322843 550.978572 
L 530.542397 464.622965 
L 530.76195 449.987109 
L 530.981503 567.127517 
L 531.201056 445.724309 
L 531.420609 508.250731 
L 531.640162 363.765784 
L 531.859715 543.288105 
L 532.079269 347.769103 
L 532.298822 516.88914 
L 532.518375 462.970818 
L 532.737928 471.545293 
L 532.957481 382.409799 
L 533.177034 501.820974 
L 533.396588 477.310454 
L 533.616141 501.019233 
L 533.835694 485.170304 
L 534.055247 517.916609 
L 534.2748 428.021582 
L 534.494353 493.973716 
L 534.713906 496.09075 
L 534.93346 519.359008 
L 535.153013 463.600178 
L 535.372566 369.494314 
L 535.592119 461.413688 
L 536.031225 482.758456 
L 536.250779 536.381102 
L 536.689885 366.562298 
L 536.909438 505.368692 
L 537.128991 513.449072 
L 537.348544 251.651108 
L 537.568097 418.101348 
L 537.787651 490.084218 
L 538.007204 476.841447 
L 538.226757 509.226415 
L 538.44631 432.661353 
L 538.665863 479.847941 
L 538.885416 421.266836 
L 539.10497 479.056635 
L 539.324523 485.5746 
L 539.544076 524.080825 
L 539.763629 400.962299 
L 540.202735 523.991478 
L 540.422288 420.946049 
L 540.641842 462.903566 
L 540.861395 453.312554 
L 541.080948 356.807308 
L 541.300501 468.860633 
L 541.520054 409.953956 
L 541.739607 466.03107 
L 541.95916 486.358966 
L 542.178714 320.733961 
L 542.398267 451.852268 
L 542.61782 367.639582 
L 542.837373 502.915234 
L 543.276479 417.428261 
L 543.496033 496.413763 
L 543.715586 454.550052 
L 543.935139 379.978774 
L 544.154692 509.531563 
L 544.374245 548.606111 
L 544.593798 453.613222 
L 544.813351 464.534862 
L 545.032905 464.733313 
L 545.252458 431.938752 
L 545.472011 507.282128 
L 545.911117 449.598206 
L 546.350224 513.473153 
L 546.569777 478.409649 
L 546.78933 480.544123 
L 547.228436 415.573843 
L 547.447989 441.016692 
L 547.667542 480.78168 
L 547.887096 428.016686 
L 548.106649 475.664922 
L 548.326202 476.093798 
L 548.545755 456.832955 
L 548.765308 477.63468 
L 548.984861 464.373516 
L 549.204415 483.191116 
L 549.423968 512.656232 
L 549.643521 452.344035 
L 549.863074 469.993177 
L 550.082627 460.331616 
L 550.521733 487.415539 
L 550.741287 345.812575 
L 550.96084 543.913966 
L 551.180393 493.3066 
L 551.399946 547.222598 
L 551.619499 535.659342 
L 551.839052 438.300689 
L 552.058606 548.149033 
L 552.278159 538.498257 
L 552.497712 331.297153 
L 552.717265 480.985596 
L 552.936818 467.235174 
L 553.156371 467.305538 
L 553.375924 469.650863 
L 553.595478 459.873962 
L 554.034584 393.608725 
L 554.254137 518.755846 
L 554.47369 489.745653 
L 554.693243 510.490227 
L 554.912797 460.714152 
L 555.13235 504.742231 
L 555.351903 476.601872 
L 555.571456 511.305946 
L 555.791009 512.678952 
L 556.010562 529.253293 
L 556.230115 407.411507 
L 556.449669 423.978241 
L 556.669222 517.798032 
L 556.888775 415.809656 
L 557.108328 396.353368 
L 557.327881 531.283807 
L 557.547434 413.601814 
L 557.986541 509.69617 
L 558.206094 442.326491 
L 558.425647 507.506748 
L 558.864753 405.546708 
L 559.30386 484.109468 
L 559.523413 497.547738 
L 559.742966 466.929827 
L 559.742966 466.929827 
" style="fill:none;stroke:#96c69a;stroke-linecap:round;stroke-width:3;"/>
   </g>
   <g id="line2d_2"/>
   <g id="patch_3">
    <path d="M 98.911875 603.86 
L 98.911875 109.484571 
" style="fill:none;stroke:#262626;stroke-linecap:square;stroke-linejoin:miter;stroke-width:2.5;"/>
   </g>
   <g id="patch_4">
    <path d="M 98.911875 603.86 
L 581.687304 603.86 
" style="fill:none;stroke:#262626;stroke-linecap:square;stroke-linejoin:miter;stroke-width:2.5;"/>
   </g>
   <g id="legend_1">
    <g id="patch_5">
     <path d="M 528.771679 598.86 
L 574.687304 598.86 
Q 576.687304 598.86 576.687304 596.86 
L 576.687304 554.954375 
Q 576.687304 552.954375 574.687304 552.954375 
L 528.771679 552.954375 
Q 526.771679 552.954375 526.771679 554.954375 
L 526.771679 596.86 
Q 526.771679 598.86 528.771679 598.86 
z
" style="fill:#ffffff;opacity:0.8;stroke:#cccccc;stroke-linejoin:miter;stroke-width:2;"/>
    </g>
    <g id="text_17">
     <!-- $n_\tau$ -->
     <g style="fill:#262626;" transform="translate(538.649491 575.190625)scale(0.24 -0.24)">
      <defs>
       <path d="M 3566 2113 
L 3156 0 
L 2578 0 
L 2988 2091 
Q 3016 2238 3031 2350 
Q 3047 2463 3047 2528 
Q 3047 2791 2881 2937 
Q 2716 3084 2419 3084 
Q 1956 3084 1622 2776 
Q 1288 2469 1184 1941 
L 800 0 
L 225 0 
L 903 3500 
L 1478 3500 
L 1363 2950 
Q 1603 3253 1940 3418 
Q 2278 3584 2650 3584 
Q 3113 3584 3367 3334 
Q 3622 3084 3622 2631 
Q 3622 2519 3608 2391 
Q 3594 2263 3566 2113 
z
" id="DejaVuSans-Oblique-6e" transform="scale(0.015625)"/>
       <path d="M 2103 638 
Q 2188 488 2525 488 
L 2800 488 
L 2706 0 
L 2363 0 
Q 1800 0 1600 300 
Q 1403 606 1534 1269 
L 1856 2925 
L 541 2925 
L 653 3500 
L 3881 3500 
L 3769 2925 
L 2444 2925 
L 2113 1234 
Q 2025 781 2103 638 
z
" id="DejaVuSans-Oblique-3c4" transform="scale(0.015625)"/>
      </defs>
      <use xlink:href="#DejaVuSans-Oblique-6e"/>
      <use transform="translate(63.378906 -16.40625)scale(0.7)" xlink:href="#DejaVuSans-Oblique-3c4"/>
     </g>
    </g>
    <g id="line2d_3">
     <path d="M 530.771679 589.280313 
L 550.771679 589.280313 
" style="fill:none;stroke:#96c69a;stroke-linecap:round;stroke-width:3;"/>
    </g>
    <g id="line2d_4"/>
    <g id="text_18">
     <!-- 50 -->
     <g style="fill:#262626;" transform="translate(558.771679 592.780313)scale(0.1 -0.1)">
      <defs>
       <path d="M 678 4666 
L 3669 4666 
L 3669 3781 
L 1638 3781 
L 1638 3059 
Q 1775 3097 1914 3117 
Q 2053 3138 2203 3138 
Q 3056 3138 3531 2711 
Q 4006 2284 4006 1522 
Q 4006 766 3489 337 
Q 2972 -91 2053 -91 
Q 1656 -91 1267 -14 
Q 878 63 494 219 
L 494 1166 
Q 875 947 1217 837 
Q 1559 728 1863 728 
Q 2300 728 2551 942 
Q 2803 1156 2803 1522 
Q 2803 1891 2551 2103 
Q 2300 2316 1863 2316 
Q 1603 2316 1309 2248 
Q 1016 2181 678 2041 
L 678 4666 
z
" id="DejaVuSans-Bold-35" transform="scale(0.015625)"/>
       <path d="M 2944 2338 
Q 2944 3213 2780 3570 
Q 2616 3928 2228 3928 
Q 1841 3928 1675 3570 
Q 1509 3213 1509 2338 
Q 1509 1453 1675 1090 
Q 1841 728 2228 728 
Q 2613 728 2778 1090 
Q 2944 1453 2944 2338 
z
M 4147 2328 
Q 4147 1169 3647 539 
Q 3147 -91 2228 -91 
Q 1306 -91 806 539 
Q 306 1169 306 2328 
Q 306 3491 806 4120 
Q 1306 4750 2228 4750 
Q 3147 4750 3647 4120 
Q 4147 3491 4147 2328 
z
" id="DejaVuSans-Bold-30" transform="scale(0.015625)"/>
      </defs>
      <use xlink:href="#DejaVuSans-Bold-35"/>
      <use x="69.580078" xlink:href="#DejaVuSans-Bold-30"/>
     </g>
    </g>
   </g>
  </g>
  <g id="axes_2">
   <g id="patch_6">
    <path d="M 98.911875 92.437143 
L 581.687304 92.437143 
L 581.687304 7.2 
L 98.911875 7.2 
z
" style="fill:none;"/>
   </g>
   <g id="matplotlib.axis_3">
    <g id="xtick_7"/>
    <g id="xtick_8"/>
    <g id="xtick_9"/>
    <g id="xtick_10"/>
    <g id="xtick_11"/>
    <g id="xtick_12"/>
   </g>
   <g id="matplotlib.axis_4">
    <g id="ytick_9">
     <g id="text_19">
      <!-- 0 -->
      <g style="fill:#262626;" transform="translate(69.414375 100.795424)scale(0.22 -0.22)">
       <use xlink:href="#DejaVuSans-30"/>
      </g>
     </g>
    </g>
    <g id="ytick_10">
     <g id="text_20">
      <!-- 100 -->
      <g style="fill:#262626;" transform="translate(41.419375 48.082287)scale(0.22 -0.22)">
       <use xlink:href="#DejaVuSans-31"/>
       <use x="63.623047" xlink:href="#DejaVuSans-30"/>
       <use x="127.246094" xlink:href="#DejaVuSans-30"/>
      </g>
     </g>
    </g>
   </g>
   <g id="patch_7">
    <path clip-path="url(#p1dc58a94da)" d="M 120.856213 92.437143 
L 154.616732 92.437143 
L 154.616732 11.258912 
L 120.856213 11.258912 
z
" style="fill:#96c69a;fill-opacity:0.5;stroke:#ffffff;stroke-linejoin:miter;stroke-width:2;"/>
   </g>
   <g id="patch_8">
    <path clip-path="url(#p1dc58a94da)" d="M 154.616732 92.437143 
L 188.377252 92.437143 
L 188.377252 11.258912 
L 154.616732 11.258912 
z
" style="fill:#96c69a;fill-opacity:0.5;stroke:#ffffff;stroke-linejoin:miter;stroke-width:2;"/>
   </g>
   <g id="patch_9">
    <path clip-path="url(#p1dc58a94da)" d="M 188.377252 92.437143 
L 222.137771 92.437143 
L 222.137771 11.258912 
L 188.377252 11.258912 
z
" style="fill:#96c69a;fill-opacity:0.5;stroke:#ffffff;stroke-linejoin:miter;stroke-width:2;"/>
   </g>
   <g id="patch_10">
    <path clip-path="url(#p1dc58a94da)" d="M 222.137771 92.437143 
L 255.898291 92.437143 
L 255.898291 11.258912 
L 222.137771 11.258912 
z
" style="fill:#96c69a;fill-opacity:0.5;stroke:#ffffff;stroke-linejoin:miter;stroke-width:2;"/>
   </g>
   <g id="patch_11">
    <path clip-path="url(#p1dc58a94da)" d="M 255.898291 92.437143 
L 289.65881 92.437143 
L 289.65881 11.786043 
L 255.898291 11.786043 
z
" style="fill:#96c69a;fill-opacity:0.5;stroke:#ffffff;stroke-linejoin:miter;stroke-width:2;"/>
   </g>
   <g id="patch_12">
    <path clip-path="url(#p1dc58a94da)" d="M 289.65881 92.437143 
L 323.41933 92.437143 
L 323.41933 11.258912 
L 289.65881 11.258912 
z
" style="fill:#96c69a;fill-opacity:0.5;stroke:#ffffff;stroke-linejoin:miter;stroke-width:2;"/>
   </g>
   <g id="patch_13">
    <path clip-path="url(#p1dc58a94da)" d="M 323.41933 92.437143 
L 357.179849 92.437143 
L 357.179849 11.258912 
L 323.41933 11.258912 
z
" style="fill:#96c69a;fill-opacity:0.5;stroke:#ffffff;stroke-linejoin:miter;stroke-width:2;"/>
   </g>
   <g id="patch_14">
    <path clip-path="url(#p1dc58a94da)" d="M 357.179849 92.437143 
L 390.940369 92.437143 
L 390.940369 11.258912 
L 357.179849 11.258912 
z
" style="fill:#96c69a;fill-opacity:0.5;stroke:#ffffff;stroke-linejoin:miter;stroke-width:2;"/>
   </g>
   <g id="patch_15">
    <path clip-path="url(#p1dc58a94da)" d="M 390.940369 92.437143 
L 424.700888 92.437143 
L 424.700888 11.786043 
L 390.940369 11.786043 
z
" style="fill:#96c69a;fill-opacity:0.5;stroke:#ffffff;stroke-linejoin:miter;stroke-width:2;"/>
   </g>
   <g id="patch_16">
    <path clip-path="url(#p1dc58a94da)" d="M 424.700888 92.437143 
L 458.461407 92.437143 
L 458.461407 11.258912 
L 424.700888 11.258912 
z
" style="fill:#96c69a;fill-opacity:0.5;stroke:#ffffff;stroke-linejoin:miter;stroke-width:2;"/>
   </g>
   <g id="patch_17">
    <path clip-path="url(#p1dc58a94da)" d="M 458.461407 92.437143 
L 492.221927 92.437143 
L 492.221927 11.258912 
L 458.461407 11.258912 
z
" style="fill:#96c69a;fill-opacity:0.5;stroke:#ffffff;stroke-linejoin:miter;stroke-width:2;"/>
   </g>
   <g id="patch_18">
    <path clip-path="url(#p1dc58a94da)" d="M 492.221927 92.437143 
L 525.982446 92.437143 
L 525.982446 11.258912 
L 492.221927 11.258912 
z
" style="fill:#96c69a;fill-opacity:0.5;stroke:#ffffff;stroke-linejoin:miter;stroke-width:2;"/>
   </g>
   <g id="patch_19">
    <path clip-path="url(#p1dc58a94da)" d="M 525.982446 92.437143 
L 559.742966 92.437143 
L 559.742966 11.258912 
L 525.982446 11.258912 
z
" style="fill:#96c69a;fill-opacity:0.5;stroke:#ffffff;stroke-linejoin:miter;stroke-width:2;"/>
   </g>
   <g id="patch_20">
    <path d="M 98.911875 92.437143 
L 98.911875 7.2 
" style="fill:none;stroke:#262626;stroke-linecap:square;stroke-linejoin:miter;stroke-width:2.5;"/>
   </g>
   <g id="patch_21">
    <path d="M 98.911875 92.437143 
L 581.687304 92.437143 
" style="fill:none;stroke:#262626;stroke-linecap:square;stroke-linejoin:miter;stroke-width:2.5;"/>
   </g>
  </g>
  <g id="axes_3">
   <g id="patch_22">
    <path d="M 598.334732 603.86 
L 681.571875 603.86 
L 681.571875 109.484571 
L 598.334732 109.484571 
z
" style="fill:none;"/>
   </g>
   <g id="matplotlib.axis_5">
    <g id="xtick_13">
     <g id="text_21">
      <!-- 0 -->
      <g style="fill:#262626;" transform="translate(591.335982 636.076563)scale(0.22 -0.22)">
       <use xlink:href="#DejaVuSans-30"/>
      </g>
     </g>
    </g>
    <g id="xtick_14">
     <g id="text_22">
      <!-- 100 -->
      <g style="fill:#262626;" transform="translate(621.379298 636.076563)scale(0.22 -0.22)">
       <use xlink:href="#DejaVuSans-31"/>
       <use x="63.623047" xlink:href="#DejaVuSans-30"/>
       <use x="127.246094" xlink:href="#DejaVuSans-30"/>
      </g>
     </g>
    </g>
   </g>
   <g id="matplotlib.axis_6">
    <g id="ytick_11"/>
    <g id="ytick_12"/>
    <g id="ytick_13"/>
    <g id="ytick_14"/>
    <g id="ytick_15"/>
    <g id="ytick_16"/>
    <g id="ytick_17"/>
    <g id="ytick_18"/>
   </g>
   <g id="patch_23">
    <path clip-path="url(#p14473385ed)" d="M 598.334732 581.38839 
L 599.215548 581.38839 
L 599.215548 570.426628 
L 598.334732 570.426628 
z
" style="fill:#96c69a;fill-opacity:0.5;stroke:#ffffff;stroke-linejoin:miter;stroke-width:1.096176;"/>
   </g>
   <g id="patch_24">
    <path clip-path="url(#p14473385ed)" d="M 598.334732 570.426628 
L 603.61963 570.426628 
L 603.61963 559.464867 
L 598.334732 559.464867 
z
" style="fill:#96c69a;fill-opacity:0.5;stroke:#ffffff;stroke-linejoin:miter;stroke-width:1.096176;"/>
   </g>
   <g id="patch_25">
    <path clip-path="url(#p14473385ed)" d="M 598.334732 559.464867 
L 607.142895 559.464867 
L 607.142895 548.503106 
L 598.334732 548.503106 
z
" style="fill:#96c69a;fill-opacity:0.5;stroke:#ffffff;stroke-linejoin:miter;stroke-width:1.096176;"/>
   </g>
   <g id="patch_26">
    <path clip-path="url(#p14473385ed)" d="M 598.334732 548.503106 
L 621.676365 548.503106 
L 621.676365 537.541345 
L 598.334732 537.541345 
z
" style="fill:#96c69a;fill-opacity:0.5;stroke:#ffffff;stroke-linejoin:miter;stroke-width:1.096176;"/>
   </g>
   <g id="patch_27">
    <path clip-path="url(#p14473385ed)" d="M 598.334732 537.541345 
L 630.484528 537.541345 
L 630.484528 526.579584 
L 598.334732 526.579584 
z
" style="fill:#96c69a;fill-opacity:0.5;stroke:#ffffff;stroke-linejoin:miter;stroke-width:1.096176;"/>
   </g>
   <g id="patch_28">
    <path clip-path="url(#p14473385ed)" d="M 598.334732 526.579584 
L 642.375548 526.579584 
L 642.375548 515.617823 
L 598.334732 515.617823 
z
" style="fill:#96c69a;fill-opacity:0.5;stroke:#ffffff;stroke-linejoin:miter;stroke-width:1.096176;"/>
   </g>
   <g id="patch_29">
    <path clip-path="url(#p14473385ed)" d="M 598.334732 515.617823 
L 660.432283 515.617823 
L 660.432283 504.656061 
L 598.334732 504.656061 
z
" style="fill:#96c69a;fill-opacity:0.5;stroke:#ffffff;stroke-linejoin:miter;stroke-width:1.096176;"/>
   </g>
   <g id="patch_30">
    <path clip-path="url(#p14473385ed)" d="M 598.334732 504.656061 
L 671.442487 504.656061 
L 671.442487 493.6943 
L 598.334732 493.6943 
z
" style="fill:#96c69a;fill-opacity:0.5;stroke:#ffffff;stroke-linejoin:miter;stroke-width:1.096176;"/>
   </g>
   <g id="patch_31">
    <path clip-path="url(#p14473385ed)" d="M 598.334732 493.6943 
L 669.680855 493.6943 
L 669.680855 482.732539 
L 598.334732 482.732539 
z
" style="fill:#96c69a;fill-opacity:0.5;stroke:#ffffff;stroke-linejoin:miter;stroke-width:1.096176;"/>
   </g>
   <g id="patch_32">
    <path clip-path="url(#p14473385ed)" d="M 598.334732 482.732539 
L 677.608202 482.732539 
L 677.608202 471.770778 
L 598.334732 471.770778 
z
" style="fill:#96c69a;fill-opacity:0.5;stroke:#ffffff;stroke-linejoin:miter;stroke-width:1.096176;"/>
   </g>
   <g id="patch_33">
    <path clip-path="url(#p14473385ed)" d="M 598.334732 471.770778 
L 667.478814 471.770778 
L 667.478814 460.809017 
L 598.334732 460.809017 
z
" style="fill:#96c69a;fill-opacity:0.5;stroke:#ffffff;stroke-linejoin:miter;stroke-width:1.096176;"/>
   </g>
   <g id="patch_34">
    <path clip-path="url(#p14473385ed)" d="M 598.334732 460.809017 
L 674.525344 460.809017 
L 674.525344 449.847256 
L 598.334732 449.847256 
z
" style="fill:#96c69a;fill-opacity:0.5;stroke:#ffffff;stroke-linejoin:miter;stroke-width:1.096176;"/>
   </g>
   <g id="patch_35">
    <path clip-path="url(#p14473385ed)" d="M 598.334732 449.847256 
L 665.717181 449.847256 
L 665.717181 438.885494 
L 598.334732 438.885494 
z
" style="fill:#96c69a;fill-opacity:0.5;stroke:#ffffff;stroke-linejoin:miter;stroke-width:1.096176;"/>
   </g>
   <g id="patch_36">
    <path clip-path="url(#p14473385ed)" d="M 598.334732 438.885494 
L 654.266569 438.885494 
L 654.266569 427.923733 
L 598.334732 427.923733 
z
" style="fill:#96c69a;fill-opacity:0.5;stroke:#ffffff;stroke-linejoin:miter;stroke-width:1.096176;"/>
   </g>
   <g id="patch_37">
    <path clip-path="url(#p14473385ed)" d="M 598.334732 427.923733 
L 636.209834 427.923733 
L 636.209834 416.961972 
L 598.334732 416.961972 
z
" style="fill:#96c69a;fill-opacity:0.5;stroke:#ffffff;stroke-linejoin:miter;stroke-width:1.096176;"/>
   </g>
   <g id="patch_38">
    <path clip-path="url(#p14473385ed)" d="M 598.334732 416.961972 
L 634.88861 416.961972 
L 634.88861 406.000211 
L 598.334732 406.000211 
z
" style="fill:#96c69a;fill-opacity:0.5;stroke:#ffffff;stroke-linejoin:miter;stroke-width:1.096176;"/>
   </g>
   <g id="patch_39">
    <path clip-path="url(#p14473385ed)" d="M 598.334732 406.000211 
L 630.484528 406.000211 
L 630.484528 395.03845 
L 598.334732 395.03845 
z
" style="fill:#96c69a;fill-opacity:0.5;stroke:#ffffff;stroke-linejoin:miter;stroke-width:1.096176;"/>
   </g>
   <g id="patch_40">
    <path clip-path="url(#p14473385ed)" d="M 598.334732 395.03845 
L 625.19963 395.03845 
L 625.19963 384.076689 
L 598.334732 384.076689 
z
" style="fill:#96c69a;fill-opacity:0.5;stroke:#ffffff;stroke-linejoin:miter;stroke-width:1.096176;"/>
   </g>
   <g id="patch_41">
    <path clip-path="url(#p14473385ed)" d="M 598.334732 384.076689 
L 614.629834 384.076689 
L 614.629834 373.114927 
L 598.334732 373.114927 
z
" style="fill:#96c69a;fill-opacity:0.5;stroke:#ffffff;stroke-linejoin:miter;stroke-width:1.096176;"/>
   </g>
   <g id="patch_42">
    <path clip-path="url(#p14473385ed)" d="M 598.334732 373.114927 
L 613.30861 373.114927 
L 613.30861 362.153166 
L 598.334732 362.153166 
z
" style="fill:#96c69a;fill-opacity:0.5;stroke:#ffffff;stroke-linejoin:miter;stroke-width:1.096176;"/>
   </g>
   <g id="patch_43">
    <path clip-path="url(#p14473385ed)" d="M 598.334732 362.153166 
L 612.427793 362.153166 
L 612.427793 351.191405 
L 598.334732 351.191405 
z
" style="fill:#96c69a;fill-opacity:0.5;stroke:#ffffff;stroke-linejoin:miter;stroke-width:1.096176;"/>
   </g>
   <g id="patch_44">
    <path clip-path="url(#p14473385ed)" d="M 598.334732 351.191405 
L 608.46412 351.191405 
L 608.46412 340.229644 
L 598.334732 340.229644 
z
" style="fill:#96c69a;fill-opacity:0.5;stroke:#ffffff;stroke-linejoin:miter;stroke-width:1.096176;"/>
   </g>
   <g id="patch_45">
    <path clip-path="url(#p14473385ed)" d="M 598.334732 340.229644 
L 603.179222 340.229644 
L 603.179222 329.267883 
L 598.334732 329.267883 
z
" style="fill:#96c69a;fill-opacity:0.5;stroke:#ffffff;stroke-linejoin:miter;stroke-width:1.096176;"/>
   </g>
   <g id="patch_46">
    <path clip-path="url(#p14473385ed)" d="M 598.334732 329.267883 
L 601.417589 329.267883 
L 601.417589 318.306122 
L 598.334732 318.306122 
z
" style="fill:#96c69a;fill-opacity:0.5;stroke:#ffffff;stroke-linejoin:miter;stroke-width:1.096176;"/>
   </g>
   <g id="patch_47">
    <path clip-path="url(#p14473385ed)" d="M 598.334732 318.306122 
L 601.417589 318.306122 
L 601.417589 307.34436 
L 598.334732 307.34436 
z
" style="fill:#96c69a;fill-opacity:0.5;stroke:#ffffff;stroke-linejoin:miter;stroke-width:1.096176;"/>
   </g>
   <g id="patch_48">
    <path clip-path="url(#p14473385ed)" d="M 598.334732 307.34436 
L 600.977181 307.34436 
L 600.977181 296.382599 
L 598.334732 296.382599 
z
" style="fill:#96c69a;fill-opacity:0.5;stroke:#ffffff;stroke-linejoin:miter;stroke-width:1.096176;"/>
   </g>
   <g id="patch_49">
    <path clip-path="url(#p14473385ed)" d="M 598.334732 296.382599 
L 600.096365 296.382599 
L 600.096365 285.420838 
L 598.334732 285.420838 
z
" style="fill:#96c69a;fill-opacity:0.5;stroke:#ffffff;stroke-linejoin:miter;stroke-width:1.096176;"/>
   </g>
   <g id="patch_50">
    <path clip-path="url(#p14473385ed)" d="M 598.334732 285.420838 
L 600.096365 285.420838 
L 600.096365 274.459077 
L 598.334732 274.459077 
z
" style="fill:#96c69a;fill-opacity:0.5;stroke:#ffffff;stroke-linejoin:miter;stroke-width:1.096176;"/>
   </g>
   <g id="patch_51">
    <path clip-path="url(#p14473385ed)" d="M 598.334732 274.459077 
L 600.096365 274.459077 
L 600.096365 263.497316 
L 598.334732 263.497316 
z
" style="fill:#96c69a;fill-opacity:0.5;stroke:#ffffff;stroke-linejoin:miter;stroke-width:1.096176;"/>
   </g>
   <g id="patch_52">
    <path clip-path="url(#p14473385ed)" d="M 598.334732 263.497316 
L 599.215548 263.497316 
L 599.215548 252.535555 
L 598.334732 252.535555 
z
" style="fill:#96c69a;fill-opacity:0.5;stroke:#ffffff;stroke-linejoin:miter;stroke-width:1.096176;"/>
   </g>
   <g id="patch_53">
    <path clip-path="url(#p14473385ed)" d="M 598.334732 252.535555 
L 598.77514 252.535555 
L 598.77514 241.573793 
L 598.334732 241.573793 
z
" style="fill:#96c69a;fill-opacity:0.5;stroke:#ffffff;stroke-linejoin:miter;stroke-width:1.096176;"/>
   </g>
   <g id="patch_54">
    <path clip-path="url(#p14473385ed)" d="M 598.334732 241.573793 
L 599.215548 241.573793 
L 599.215548 230.612032 
L 598.334732 230.612032 
z
" style="fill:#96c69a;fill-opacity:0.5;stroke:#ffffff;stroke-linejoin:miter;stroke-width:1.096176;"/>
   </g>
   <g id="patch_55">
    <path clip-path="url(#p14473385ed)" d="M 598.334732 230.612032 
L 598.77514 230.612032 
L 598.77514 219.650271 
L 598.334732 219.650271 
z
" style="fill:#96c69a;fill-opacity:0.5;stroke:#ffffff;stroke-linejoin:miter;stroke-width:1.096176;"/>
   </g>
   <g id="patch_56">
    <path clip-path="url(#p14473385ed)" d="M 598.334732 219.650271 
L 598.334732 219.650271 
L 598.334732 208.68851 
L 598.334732 208.68851 
z
" style="fill:#96c69a;fill-opacity:0.5;stroke:#ffffff;stroke-linejoin:miter;stroke-width:1.096176;"/>
   </g>
   <g id="patch_57">
    <path clip-path="url(#p14473385ed)" d="M 598.334732 208.68851 
L 598.77514 208.68851 
L 598.77514 197.726749 
L 598.334732 197.726749 
z
" style="fill:#96c69a;fill-opacity:0.5;stroke:#ffffff;stroke-linejoin:miter;stroke-width:1.096176;"/>
   </g>
   <g id="patch_58">
    <path clip-path="url(#p14473385ed)" d="M 598.334732 197.726749 
L 598.334732 197.726749 
L 598.334732 186.764988 
L 598.334732 186.764988 
z
" style="fill:#96c69a;fill-opacity:0.5;stroke:#ffffff;stroke-linejoin:miter;stroke-width:1.096176;"/>
   </g>
   <g id="patch_59">
    <path clip-path="url(#p14473385ed)" d="M 598.334732 186.764988 
L 598.334732 186.764988 
L 598.334732 175.803226 
L 598.334732 175.803226 
z
" style="fill:#96c69a;fill-opacity:0.5;stroke:#ffffff;stroke-linejoin:miter;stroke-width:1.096176;"/>
   </g>
   <g id="patch_60">
    <path clip-path="url(#p14473385ed)" d="M 598.334732 175.803226 
L 598.334732 175.803226 
L 598.334732 164.841465 
L 598.334732 164.841465 
z
" style="fill:#96c69a;fill-opacity:0.5;stroke:#ffffff;stroke-linejoin:miter;stroke-width:1.096176;"/>
   </g>
   <g id="patch_61">
    <path clip-path="url(#p14473385ed)" d="M 598.334732 164.841465 
L 598.334732 164.841465 
L 598.334732 153.879704 
L 598.334732 153.879704 
z
" style="fill:#96c69a;fill-opacity:0.5;stroke:#ffffff;stroke-linejoin:miter;stroke-width:1.096176;"/>
   </g>
   <g id="patch_62">
    <path clip-path="url(#p14473385ed)" d="M 598.334732 153.879704 
L 598.77514 153.879704 
L 598.77514 142.917943 
L 598.334732 142.917943 
z
" style="fill:#96c69a;fill-opacity:0.5;stroke:#ffffff;stroke-linejoin:miter;stroke-width:1.096176;"/>
   </g>
   <g id="patch_63">
    <path clip-path="url(#p14473385ed)" d="M 598.334732 142.917943 
L 598.77514 142.917943 
L 598.77514 131.956182 
L 598.334732 131.956182 
z
" style="fill:#96c69a;fill-opacity:0.5;stroke:#ffffff;stroke-linejoin:miter;stroke-width:1.096176;"/>
   </g>
   <g id="patch_64">
    <path d="M 598.334732 603.86 
L 598.334732 109.484571 
" style="fill:none;stroke:#262626;stroke-linecap:square;stroke-linejoin:miter;stroke-width:2.5;"/>
   </g>
   <g id="patch_65">
    <path d="M 598.334732 603.86 
L 681.571875 603.86 
" style="fill:none;stroke:#262626;stroke-linecap:square;stroke-linejoin:miter;stroke-width:2.5;"/>
   </g>
  </g>
 </g>
 <defs>
  <clipPath id="p10a14c0feb">
   <rect height="494.375429" width="482.775429" x="98.911875" y="109.484571"/>
  </clipPath>
  <clipPath id="p1dc58a94da">
   <rect height="85.237143" width="482.775429" x="98.911875" y="7.2"/>
  </clipPath>
  <clipPath id="p14473385ed">
   <rect height="494.375429" width="83.237143" x="598.334732" y="109.484571"/>
  </clipPath>
 </defs>
</svg>
