<?xml version="1.0" encoding="utf-8" standalone="no"?>
<!DOCTYPE svg PUBLIC "-//W3C//DTD SVG 1.1//EN"
  "http://www.w3.org/Graphics/SVG/1.1/DTD/svg11.dtd">
<svg height="675.079375pt" version="1.1" viewBox="0 0 674.774375 675.079375" width="674.774375pt" xmlns="http://www.w3.org/2000/svg" xmlns:xlink="http://www.w3.org/1999/xlink">
 <metadata>
  <rdf:RDF xmlns:cc="http://creativecommons.org/ns#" xmlns:dc="http://purl.org/dc/elements/1.1/" xmlns:rdf="http://www.w3.org/1999/02/22-rdf-syntax-ns#">
   <cc:Work>
    <dc:type rdf:resource="http://purl.org/dc/dcmitype/StillImage"/>
    <dc:date>2021-07-16T21:44:04.564200</dc:date>
    <dc:format>image/svg+xml</dc:format>
    <dc:creator>
     <cc:Agent>
      <dc:title>Matplotlib v3.4.2, https://matplotlib.org/</dc:title>
     </cc:Agent>
    </dc:creator>
   </cc:Work>
  </rdf:RDF>
 </metadata>
 <defs>
  <style type="text/css">*{stroke-linecap:butt;stroke-linejoin:round;}</style>
 </defs>
 <g id="figure_1">
  <g id="patch_1">
   <path d="M 0 675.079375 
L 674.774375 675.079375 
L 674.774375 0 
L 0 0 
z
" style="fill:#ffffff;"/>
  </g>
  <g id="axes_1">
   <g id="patch_2">
    <path d="M 84.914375 603.86 
L 567.689804 603.86 
L 567.689804 109.484571 
L 84.914375 109.484571 
z
" style="fill:none;"/>
   </g>
   <g id="matplotlib.axis_1">
    <g id="xtick_1">
     <g id="text_1">
      <!-- 0 -->
      <g style="fill:#262626;" transform="translate(99.64041 636.076563)scale(0.22 -0.22)">
       <defs>
        <path d="M 2034 4250 
Q 1547 4250 1301 3770 
Q 1056 3291 1056 2328 
Q 1056 1369 1301 889 
Q 1547 409 2034 409 
Q 2525 409 2770 889 
Q 3016 1369 3016 2328 
Q 3016 3291 2770 3770 
Q 2525 4250 2034 4250 
z
M 2034 4750 
Q 2819 4750 3233 4129 
Q 3647 3509 3647 2328 
Q 3647 1150 3233 529 
Q 2819 -91 2034 -91 
Q 1250 -91 836 529 
Q 422 1150 422 2328 
Q 422 3509 836 4129 
Q 1250 4750 2034 4750 
z
" id="DejaVuSans-30" transform="scale(0.015625)"/>
       </defs>
       <use xlink:href="#DejaVuSans-30"/>
      </g>
     </g>
    </g>
    <g id="xtick_2">
     <g id="text_2">
      <!-- 20000 -->
      <g style="fill:#262626;" transform="translate(159.466671 636.076563)scale(0.22 -0.22)">
       <defs>
        <path d="M 1228 531 
L 3431 531 
L 3431 0 
L 469 0 
L 469 531 
Q 828 903 1448 1529 
Q 2069 2156 2228 2338 
Q 2531 2678 2651 2914 
Q 2772 3150 2772 3378 
Q 2772 3750 2511 3984 
Q 2250 4219 1831 4219 
Q 1534 4219 1204 4116 
Q 875 4013 500 3803 
L 500 4441 
Q 881 4594 1212 4672 
Q 1544 4750 1819 4750 
Q 2544 4750 2975 4387 
Q 3406 4025 3406 3419 
Q 3406 3131 3298 2873 
Q 3191 2616 2906 2266 
Q 2828 2175 2409 1742 
Q 1991 1309 1228 531 
z
" id="DejaVuSans-32" transform="scale(0.015625)"/>
       </defs>
       <use xlink:href="#DejaVuSans-32"/>
       <use x="63.623047" xlink:href="#DejaVuSans-30"/>
       <use x="127.246094" xlink:href="#DejaVuSans-30"/>
       <use x="190.869141" xlink:href="#DejaVuSans-30"/>
       <use x="254.492188" xlink:href="#DejaVuSans-30"/>
      </g>
     </g>
    </g>
    <g id="xtick_3">
     <g id="text_3">
      <!-- 40000 -->
      <g style="fill:#262626;" transform="translate(247.287932 636.076563)scale(0.22 -0.22)">
       <defs>
        <path d="M 2419 4116 
L 825 1625 
L 2419 1625 
L 2419 4116 
z
M 2253 4666 
L 3047 4666 
L 3047 1625 
L 3713 1625 
L 3713 1100 
L 3047 1100 
L 3047 0 
L 2419 0 
L 2419 1100 
L 313 1100 
L 313 1709 
L 2253 4666 
z
" id="DejaVuSans-34" transform="scale(0.015625)"/>
       </defs>
       <use xlink:href="#DejaVuSans-34"/>
       <use x="63.623047" xlink:href="#DejaVuSans-30"/>
       <use x="127.246094" xlink:href="#DejaVuSans-30"/>
       <use x="190.869141" xlink:href="#DejaVuSans-30"/>
       <use x="254.492188" xlink:href="#DejaVuSans-30"/>
      </g>
     </g>
    </g>
    <g id="xtick_4">
     <g id="text_4">
      <!-- 60000 -->
      <g style="fill:#262626;" transform="translate(335.109193 636.076563)scale(0.22 -0.22)">
       <defs>
        <path d="M 2113 2584 
Q 1688 2584 1439 2293 
Q 1191 2003 1191 1497 
Q 1191 994 1439 701 
Q 1688 409 2113 409 
Q 2538 409 2786 701 
Q 3034 994 3034 1497 
Q 3034 2003 2786 2293 
Q 2538 2584 2113 2584 
z
M 3366 4563 
L 3366 3988 
Q 3128 4100 2886 4159 
Q 2644 4219 2406 4219 
Q 1781 4219 1451 3797 
Q 1122 3375 1075 2522 
Q 1259 2794 1537 2939 
Q 1816 3084 2150 3084 
Q 2853 3084 3261 2657 
Q 3669 2231 3669 1497 
Q 3669 778 3244 343 
Q 2819 -91 2113 -91 
Q 1303 -91 875 529 
Q 447 1150 447 2328 
Q 447 3434 972 4092 
Q 1497 4750 2381 4750 
Q 2619 4750 2861 4703 
Q 3103 4656 3366 4563 
z
" id="DejaVuSans-36" transform="scale(0.015625)"/>
       </defs>
       <use xlink:href="#DejaVuSans-36"/>
       <use x="63.623047" xlink:href="#DejaVuSans-30"/>
       <use x="127.246094" xlink:href="#DejaVuSans-30"/>
       <use x="190.869141" xlink:href="#DejaVuSans-30"/>
       <use x="254.492188" xlink:href="#DejaVuSans-30"/>
      </g>
     </g>
    </g>
    <g id="xtick_5">
     <g id="text_5">
      <!-- 80000 -->
      <g style="fill:#262626;" transform="translate(422.930455 636.076563)scale(0.22 -0.22)">
       <defs>
        <path d="M 2034 2216 
Q 1584 2216 1326 1975 
Q 1069 1734 1069 1313 
Q 1069 891 1326 650 
Q 1584 409 2034 409 
Q 2484 409 2743 651 
Q 3003 894 3003 1313 
Q 3003 1734 2745 1975 
Q 2488 2216 2034 2216 
z
M 1403 2484 
Q 997 2584 770 2862 
Q 544 3141 544 3541 
Q 544 4100 942 4425 
Q 1341 4750 2034 4750 
Q 2731 4750 3128 4425 
Q 3525 4100 3525 3541 
Q 3525 3141 3298 2862 
Q 3072 2584 2669 2484 
Q 3125 2378 3379 2068 
Q 3634 1759 3634 1313 
Q 3634 634 3220 271 
Q 2806 -91 2034 -91 
Q 1263 -91 848 271 
Q 434 634 434 1313 
Q 434 1759 690 2068 
Q 947 2378 1403 2484 
z
M 1172 3481 
Q 1172 3119 1398 2916 
Q 1625 2713 2034 2713 
Q 2441 2713 2670 2916 
Q 2900 3119 2900 3481 
Q 2900 3844 2670 4047 
Q 2441 4250 2034 4250 
Q 1625 4250 1398 4047 
Q 1172 3844 1172 3481 
z
" id="DejaVuSans-38" transform="scale(0.015625)"/>
       </defs>
       <use xlink:href="#DejaVuSans-38"/>
       <use x="63.623047" xlink:href="#DejaVuSans-30"/>
       <use x="127.246094" xlink:href="#DejaVuSans-30"/>
       <use x="190.869141" xlink:href="#DejaVuSans-30"/>
       <use x="254.492188" xlink:href="#DejaVuSans-30"/>
      </g>
     </g>
    </g>
    <g id="xtick_6">
     <g id="text_6">
      <!-- 100000 -->
      <g style="fill:#262626;" transform="translate(503.752966 636.076563)scale(0.22 -0.22)">
       <defs>
        <path d="M 794 531 
L 1825 531 
L 1825 4091 
L 703 3866 
L 703 4441 
L 1819 4666 
L 2450 4666 
L 2450 531 
L 3481 531 
L 3481 0 
L 794 0 
L 794 531 
z
" id="DejaVuSans-31" transform="scale(0.015625)"/>
       </defs>
       <use xlink:href="#DejaVuSans-31"/>
       <use x="63.623047" xlink:href="#DejaVuSans-30"/>
       <use x="127.246094" xlink:href="#DejaVuSans-30"/>
       <use x="190.869141" xlink:href="#DejaVuSans-30"/>
       <use x="254.492188" xlink:href="#DejaVuSans-30"/>
       <use x="318.115234" xlink:href="#DejaVuSans-30"/>
      </g>
     </g>
    </g>
    <g id="text_7">
     <!-- MDTU -->
     <g style="fill:#262626;" transform="translate(290.596464 662.888125)scale(0.24 -0.24)">
      <defs>
       <path d="M 628 4666 
L 1569 4666 
L 2759 1491 
L 3956 4666 
L 4897 4666 
L 4897 0 
L 4281 0 
L 4281 4097 
L 3078 897 
L 2444 897 
L 1241 4097 
L 1241 0 
L 628 0 
L 628 4666 
z
" id="DejaVuSans-4d" transform="scale(0.015625)"/>
       <path d="M 1259 4147 
L 1259 519 
L 2022 519 
Q 2988 519 3436 956 
Q 3884 1394 3884 2338 
Q 3884 3275 3436 3711 
Q 2988 4147 2022 4147 
L 1259 4147 
z
M 628 4666 
L 1925 4666 
Q 3281 4666 3915 4102 
Q 4550 3538 4550 2338 
Q 4550 1131 3912 565 
Q 3275 0 1925 0 
L 628 0 
L 628 4666 
z
" id="DejaVuSans-44" transform="scale(0.015625)"/>
       <path d="M -19 4666 
L 3928 4666 
L 3928 4134 
L 2272 4134 
L 2272 0 
L 1638 0 
L 1638 4134 
L -19 4134 
L -19 4666 
z
" id="DejaVuSans-54" transform="scale(0.015625)"/>
       <path d="M 556 4666 
L 1191 4666 
L 1191 1831 
Q 1191 1081 1462 751 
Q 1734 422 2344 422 
Q 2950 422 3222 751 
Q 3494 1081 3494 1831 
L 3494 4666 
L 4128 4666 
L 4128 1753 
Q 4128 841 3676 375 
Q 3225 -91 2344 -91 
Q 1459 -91 1007 375 
Q 556 841 556 1753 
L 556 4666 
z
" id="DejaVuSans-55" transform="scale(0.015625)"/>
      </defs>
      <use xlink:href="#DejaVuSans-4d"/>
      <use x="86.279297" xlink:href="#DejaVuSans-44"/>
      <use x="163.28125" xlink:href="#DejaVuSans-54"/>
      <use x="224.365234" xlink:href="#DejaVuSans-55"/>
     </g>
    </g>
   </g>
   <g id="matplotlib.axis_2">
    <g id="ytick_1">
     <g id="text_8">
      <!-- 0.4 -->
      <g style="fill:#262626;" transform="translate(34.4275 580.040067)scale(0.22 -0.22)">
       <defs>
        <path d="M 684 794 
L 1344 794 
L 1344 0 
L 684 0 
L 684 794 
z
" id="DejaVuSans-2e" transform="scale(0.015625)"/>
       </defs>
       <use xlink:href="#DejaVuSans-30"/>
       <use x="63.623047" xlink:href="#DejaVuSans-2e"/>
       <use x="95.410156" xlink:href="#DejaVuSans-34"/>
      </g>
     </g>
    </g>
    <g id="ytick_2">
     <g id="text_9">
      <!-- 0.5 -->
      <g style="fill:#262626;" transform="translate(34.4275 522.864656)scale(0.22 -0.22)">
       <defs>
        <path d="M 691 4666 
L 3169 4666 
L 3169 4134 
L 1269 4134 
L 1269 2991 
Q 1406 3038 1543 3061 
Q 1681 3084 1819 3084 
Q 2600 3084 3056 2656 
Q 3513 2228 3513 1497 
Q 3513 744 3044 326 
Q 2575 -91 1722 -91 
Q 1428 -91 1123 -41 
Q 819 9 494 109 
L 494 744 
Q 775 591 1075 516 
Q 1375 441 1709 441 
Q 2250 441 2565 725 
Q 2881 1009 2881 1497 
Q 2881 1984 2565 2268 
Q 2250 2553 1709 2553 
Q 1456 2553 1204 2497 
Q 953 2441 691 2322 
L 691 4666 
z
" id="DejaVuSans-35" transform="scale(0.015625)"/>
       </defs>
       <use xlink:href="#DejaVuSans-30"/>
       <use x="63.623047" xlink:href="#DejaVuSans-2e"/>
       <use x="95.410156" xlink:href="#DejaVuSans-35"/>
      </g>
     </g>
    </g>
    <g id="ytick_3">
     <g id="text_10">
      <!-- 0.6 -->
      <g style="fill:#262626;" transform="translate(34.4275 465.689245)scale(0.22 -0.22)">
       <use xlink:href="#DejaVuSans-30"/>
       <use x="63.623047" xlink:href="#DejaVuSans-2e"/>
       <use x="95.410156" xlink:href="#DejaVuSans-36"/>
      </g>
     </g>
    </g>
    <g id="ytick_4">
     <g id="text_11">
      <!-- 0.7 -->
      <g style="fill:#262626;" transform="translate(34.4275 408.513834)scale(0.22 -0.22)">
       <defs>
        <path d="M 525 4666 
L 3525 4666 
L 3525 4397 
L 1831 0 
L 1172 0 
L 2766 4134 
L 525 4134 
L 525 4666 
z
" id="DejaVuSans-37" transform="scale(0.015625)"/>
       </defs>
       <use xlink:href="#DejaVuSans-30"/>
       <use x="63.623047" xlink:href="#DejaVuSans-2e"/>
       <use x="95.410156" xlink:href="#DejaVuSans-37"/>
      </g>
     </g>
    </g>
    <g id="ytick_5">
     <g id="text_12">
      <!-- 0.8 -->
      <g style="fill:#262626;" transform="translate(34.4275 351.338424)scale(0.22 -0.22)">
       <use xlink:href="#DejaVuSans-30"/>
       <use x="63.623047" xlink:href="#DejaVuSans-2e"/>
       <use x="95.410156" xlink:href="#DejaVuSans-38"/>
      </g>
     </g>
    </g>
    <g id="ytick_6">
     <g id="text_13">
      <!-- 0.9 -->
      <g style="fill:#262626;" transform="translate(34.4275 294.163013)scale(0.22 -0.22)">
       <defs>
        <path d="M 703 97 
L 703 672 
Q 941 559 1184 500 
Q 1428 441 1663 441 
Q 2288 441 2617 861 
Q 2947 1281 2994 2138 
Q 2813 1869 2534 1725 
Q 2256 1581 1919 1581 
Q 1219 1581 811 2004 
Q 403 2428 403 3163 
Q 403 3881 828 4315 
Q 1253 4750 1959 4750 
Q 2769 4750 3195 4129 
Q 3622 3509 3622 2328 
Q 3622 1225 3098 567 
Q 2575 -91 1691 -91 
Q 1453 -91 1209 -44 
Q 966 3 703 97 
z
M 1959 2075 
Q 2384 2075 2632 2365 
Q 2881 2656 2881 3163 
Q 2881 3666 2632 3958 
Q 2384 4250 1959 4250 
Q 1534 4250 1286 3958 
Q 1038 3666 1038 3163 
Q 1038 2656 1286 2365 
Q 1534 2075 1959 2075 
z
" id="DejaVuSans-39" transform="scale(0.015625)"/>
       </defs>
       <use xlink:href="#DejaVuSans-30"/>
       <use x="63.623047" xlink:href="#DejaVuSans-2e"/>
       <use x="95.410156" xlink:href="#DejaVuSans-39"/>
      </g>
     </g>
    </g>
    <g id="ytick_7">
     <g id="text_14">
      <!-- 1.0 -->
      <g style="fill:#262626;" transform="translate(34.4275 236.987602)scale(0.22 -0.22)">
       <use xlink:href="#DejaVuSans-31"/>
       <use x="63.623047" xlink:href="#DejaVuSans-2e"/>
       <use x="95.410156" xlink:href="#DejaVuSans-30"/>
      </g>
     </g>
    </g>
    <g id="ytick_8">
     <g id="text_15">
      <!-- 1.1 -->
      <g style="fill:#262626;" transform="translate(34.4275 179.812192)scale(0.22 -0.22)">
       <use xlink:href="#DejaVuSans-31"/>
       <use x="63.623047" xlink:href="#DejaVuSans-2e"/>
       <use x="95.410156" xlink:href="#DejaVuSans-31"/>
      </g>
     </g>
    </g>
    <g id="ytick_9">
     <g id="text_16">
      <!-- 1.2 -->
      <g style="fill:#262626;" transform="translate(34.4275 122.636781)scale(0.22 -0.22)">
       <use xlink:href="#DejaVuSans-31"/>
       <use x="63.623047" xlink:href="#DejaVuSans-2e"/>
       <use x="95.410156" xlink:href="#DejaVuSans-32"/>
      </g>
     </g>
    </g>
    <g id="text_17">
     <!-- $E$ -->
     <g style="fill:#262626;" transform="translate(25.43625 364.352286)rotate(-90)scale(0.24 -0.24)">
      <defs>
       <path d="M 1081 4666 
L 4031 4666 
L 3928 4134 
L 1606 4134 
L 1338 2753 
L 3566 2753 
L 3463 2222 
L 1234 2222 
L 909 531 
L 3284 531 
L 3181 0 
L 172 0 
L 1081 4666 
z
" id="DejaVuSans-Oblique-45" transform="scale(0.015625)"/>
      </defs>
      <use transform="translate(0 0.09375)" xlink:href="#DejaVuSans-Oblique-45"/>
     </g>
    </g>
   </g>
   <g id="line2d_1">
    <path clip-path="url(#p630307935f)" d="M 106.858713 406.777618 
L 107.078266 339.810229 
L 107.297819 449.412296 
L 107.517372 385.45565 
L 107.736925 449.469013 
L 108.176032 358.919232 
L 108.395585 436.989208 
L 108.615138 284.109287 
L 108.834691 323.392833 
L 109.054244 304.010167 
L 109.273797 409.641152 
L 109.493351 379.531329 
L 109.712904 477.757788 
L 109.932457 419.280061 
L 110.15201 458.784069 
L 110.371563 274.777183 
L 110.591116 299.886422 
L 110.810669 383.983599 
L 111.030223 299.490002 
L 111.249776 428.351593 
L 111.469329 322.505759 
L 111.688882 473.839984 
L 111.908435 459.549949 
L 112.127988 473.347666 
L 112.347541 289.853498 
L 112.567095 351.134451 
L 112.786648 373.588892 
L 113.006201 270.213891 
L 113.225754 348.839615 
L 113.445307 351.460404 
L 113.66486 430.689751 
L 113.884414 322.083071 
L 114.32352 489.714337 
L 114.543073 473.80797 
L 114.982179 395.098345 
L 115.201732 448.262792 
L 115.421286 358.488026 
L 115.640839 343.975508 
L 115.860392 524.668454 
L 116.079945 225.65741 
L 116.519051 460.214714 
L 116.738605 325.856636 
L 116.958158 370.651553 
L 117.177711 302.827458 
L 117.397264 461.054413 
L 117.616817 376.481675 
L 117.83637 363.480248 
L 118.055923 431.084455 
L 118.275477 321.182568 
L 118.49503 450.673568 
L 119.153689 345.170791 
L 119.373242 416.050626 
L 119.592796 443.712579 
L 119.812349 384.804136 
L 120.031902 447.191917 
L 120.251455 367.921607 
L 120.471008 430.41039 
L 120.690561 371.60169 
L 120.910114 465.997145 
L 121.129668 400.641942 
L 121.349221 403.431588 
L 121.568774 419.579825 
L 121.788327 310.736695 
L 122.00788 413.727748 
L 122.227433 386.695951 
L 122.446987 418.76443 
L 122.66654 336.501443 
L 122.886093 408.720386 
L 123.105646 423.696556 
L 123.325199 361.40121 
L 123.544752 381.969083 
L 123.764305 521.608469 
L 123.983859 553.527052 
L 124.422965 358.806776 
L 124.642518 403.429113 
L 124.862071 241.599723 
L 125.081624 335.108287 
L 125.520731 267.023307 
L 125.740284 388.246876 
L 125.959837 371.911337 
L 126.17939 334.45443 
L 126.398943 421.177505 
L 126.618496 354.617523 
L 127.057603 471.524663 
L 127.496709 424.629696 
L 127.716262 513.217149 
L 128.155369 341.588519 
L 128.374922 465.77439 
L 128.594475 353.129161 
L 128.814028 407.562101 
L 129.033581 350.381928 
L 129.253134 405.708531 
L 129.472687 412.736967 
L 129.692241 387.912731 
L 129.911794 412.572813 
L 130.131347 358.7094 
L 130.3509 510.787187 
L 130.570453 213.315815 
L 130.790006 440.919348 
L 131.00956 484.511303 
L 131.229113 372.383027 
L 131.448666 361.936361 
L 131.668219 427.993974 
L 131.887772 283.382702 
L 132.107325 423.522648 
L 132.326878 409.839866 
L 132.546432 231.440986 
L 132.765985 377.261242 
L 132.985538 324.317432 
L 133.205091 320.875474 
L 133.424644 394.013098 
L 133.644197 514.621191 
L 134.083304 282.218899 
L 134.302857 395.470217 
L 134.52241 365.008278 
L 134.741963 371.776991 
L 134.961516 302.681626 
L 135.181069 396.776956 
L 135.400623 342.452138 
L 135.620176 335.582072 
L 135.839729 451.812418 
L 136.059282 356.519614 
L 136.278835 442.040807 
L 136.498388 384.566868 
L 136.717941 411.156905 
L 136.937495 406.769896 
L 137.157048 458.892814 
L 137.376601 343.09475 
L 137.596154 459.691207 
L 137.815707 486.306536 
L 138.254814 326.582569 
L 138.474367 319.659129 
L 138.69392 322.738558 
L 138.913473 316.334063 
L 139.133026 333.419462 
L 139.352579 275.331353 
L 139.572132 441.043038 
L 139.791686 282.013168 
L 140.011239 438.457487 
L 140.230792 480.671478 
L 140.450345 364.394704 
L 140.669898 394.372762 
L 140.889451 268.087641 
L 141.109005 424.349742 
L 141.328558 426.286467 
L 141.548111 503.370326 
L 141.987217 305.141236 
L 142.20677 467.191761 
L 142.426323 425.670767 
L 142.645877 318.496261 
L 142.86543 356.561544 
L 143.304536 283.327362 
L 143.524089 440.271481 
L 143.963196 361.637385 
L 144.182749 391.192664 
L 144.402302 447.478993 
L 144.621855 401.572448 
L 145.060961 368.33574 
L 145.280514 453.935364 
L 145.719621 488.872198 
L 145.939174 322.469897 
L 146.158727 303.286337 
L 146.37828 471.316395 
L 146.597833 387.956864 
L 146.817387 397.22674 
L 147.03694 342.33383 
L 147.476046 523.605172 
L 147.695599 347.028044 
L 147.915152 464.381661 
L 148.134705 413.740053 
L 148.354259 452.657224 
L 148.573812 295.230253 
L 148.793365 321.261814 
L 149.012918 377.679905 
L 149.232471 492.459078 
L 149.452024 347.62951 
L 149.671578 396.943452 
L 149.891131 386.923087 
L 150.110684 341.721512 
L 150.330237 459.651364 
L 150.769343 311.804982 
L 150.988896 406.880931 
L 151.20845 334.588998 
L 151.428003 410.026896 
L 151.647556 443.801317 
L 151.867109 443.023384 
L 152.306215 426.288927 
L 152.525769 363.946167 
L 152.745322 377.285924 
L 152.964875 535.594173 
L 153.184428 428.872334 
L 153.403981 230.862569 
L 153.623534 443.482528 
L 154.062641 407.517749 
L 154.282194 444.507248 
L 154.501747 452.018431 
L 154.7213 421.318379 
L 154.940853 284.982659 
L 155.160406 419.573561 
L 155.37996 398.762405 
L 155.599513 426.39493 
L 155.819066 254.189286 
L 156.038619 437.070014 
L 156.477725 356.505145 
L 156.697278 346.661068 
L 156.916832 300.292654 
L 157.136385 471.14539 
L 157.355938 307.813699 
L 157.575491 235.662953 
L 157.795044 347.804682 
L 158.014597 376.534876 
L 158.234151 434.865272 
L 158.453704 445.416051 
L 158.673257 376.088918 
L 158.89281 393.308 
L 159.112363 295.975931 
L 159.331916 432.964221 
L 159.551469 337.174479 
L 159.771023 365.734308 
L 159.990576 239.504345 
L 160.210129 450.924163 
L 160.429682 281.537097 
L 160.649235 383.92123 
L 160.868788 424.839497 
L 161.088342 396.930128 
L 161.307895 181.495149 
L 161.527448 460.215569 
L 161.747001 381.0442 
L 161.966554 421.94949 
L 162.186107 317.869437 
L 162.40566 442.729949 
L 162.844767 355.505303 
L 163.06432 393.028334 
L 163.283873 469.118675 
L 163.503426 426.157537 
L 163.722979 271.67567 
L 163.942532 429.168177 
L 164.162086 360.72666 
L 164.381639 421.978691 
L 164.601192 446.095812 
L 164.820745 358.545645 
L 165.040298 454.929891 
L 165.259851 416.245649 
L 165.479405 412.50438 
L 165.698958 327.127363 
L 165.918511 475.463724 
L 166.357617 325.116039 
L 166.57717 412.563255 
L 166.796723 383.118596 
L 167.016277 397.388923 
L 167.455383 337.431422 
L 167.674936 329.444304 
L 167.894489 514.498046 
L 168.333596 289.926397 
L 168.553149 304.442401 
L 168.772702 280.550644 
L 168.992255 508.651516 
L 169.211808 358.13491 
L 169.431361 441.39958 
L 169.650914 320.166868 
L 169.870468 406.91975 
L 170.090021 335.821926 
L 170.309574 313.218763 
L 170.529127 357.501547 
L 170.74868 455.007068 
L 170.968233 417.609225 
L 171.187787 357.184914 
L 171.40734 380.557758 
L 171.626893 475.541199 
L 171.846446 492.963023 
L 172.065999 204.481142 
L 172.505105 422.296129 
L 172.724659 263.429986 
L 172.944212 440.800357 
L 173.163765 480.019057 
L 173.383318 355.73772 
L 173.602871 423.449019 
L 173.822424 291.906904 
L 174.041978 423.681523 
L 174.261531 143.538556 
L 174.481084 462.422361 
L 174.700637 375.192846 
L 174.92019 420.742681 
L 175.139743 425.382915 
L 175.359296 345.319935 
L 175.57885 423.245043 
L 175.798403 445.007927 
L 176.017956 392.54265 
L 176.237509 425.820146 
L 176.457062 297.026606 
L 176.676615 517.914512 
L 176.896169 349.064085 
L 177.115722 395.299505 
L 177.335275 469.786305 
L 177.554828 397.074554 
L 177.774381 412.212875 
L 177.993934 463.536788 
L 178.213487 423.361049 
L 178.652594 393.362145 
L 178.872147 281.980765 
L 179.311253 374.514238 
L 179.530806 455.295033 
L 179.75036 281.073319 
L 179.969913 351.765417 
L 180.189466 464.440833 
L 180.409019 414.050339 
L 180.628572 390.528631 
L 180.848125 428.857388 
L 181.067678 371.402018 
L 181.287232 436.310245 
L 181.506785 246.632103 
L 181.726338 364.753112 
L 182.165444 426.203395 
L 182.384997 380.432087 
L 182.824104 414.85505 
L 183.043657 413.813812 
L 183.26321 374.15498 
L 183.482763 424.573078 
L 183.702316 437.356952 
L 184.141423 398.413065 
L 184.360976 325.08056 
L 184.580529 345.312466 
L 185.019635 258.559924 
L 185.239188 432.781399 
L 185.458742 453.349396 
L 186.117401 346.285173 
L 186.336954 417.951887 
L 186.556507 392.984515 
L 186.77606 236.989798 
L 187.215167 351.37255 
L 187.43472 283.095537 
L 187.654273 443.654887 
L 187.873826 427.393291 
L 188.093379 331.875095 
L 188.312932 430.114925 
L 188.532486 407.40626 
L 188.752039 413.40026 
L 188.971592 323.556171 
L 189.410698 434.103669 
L 189.849805 401.378358 
L 190.069358 286.49759 
L 190.288911 393.487346 
L 190.508464 441.973103 
L 190.728017 357.666474 
L 190.94757 427.9125 
L 191.167123 400.979811 
L 191.386677 270.996674 
L 191.60623 426.329249 
L 191.825783 365.9155 
L 192.045336 435.388183 
L 192.264889 398.585625 
L 192.484442 397.452892 
L 192.923549 255.082541 
L 193.143102 497.137308 
L 193.362655 265.012434 
L 193.582208 286.080194 
L 193.801761 469.773219 
L 194.021314 237.43774 
L 194.240868 389.402365 
L 194.460421 321.961513 
L 194.899527 462.928766 
L 195.11908 459.626983 
L 195.338633 471.171659 
L 195.558187 391.873994 
L 195.77774 414.158255 
L 195.997293 394.417082 
L 196.216846 467.98776 
L 196.436399 417.563006 
L 196.655952 441.506602 
L 197.095059 323.217321 
L 197.314612 428.682643 
L 197.534165 409.57183 
L 197.753718 368.34448 
L 197.973271 460.80197 
L 198.192824 474.475248 
L 198.412378 447.546956 
L 198.631931 308.463158 
L 199.071037 385.819079 
L 199.29059 354.655595 
L 199.510143 374.611262 
L 199.729696 367.127216 
L 199.94925 285.401104 
L 200.168803 326.164115 
L 200.388356 408.680193 
L 200.607909 381.823206 
L 201.047015 369.733755 
L 201.266569 397.077069 
L 201.486122 451.962688 
L 201.705675 432.179168 
L 201.925228 428.264295 
L 202.144781 383.660927 
L 202.364334 429.180871 
L 202.583887 295.902089 
L 202.803441 414.875397 
L 203.022994 329.782544 
L 203.242547 418.45853 
L 203.681653 332.553153 
L 204.12076 492.544497 
L 204.340313 490.138922 
L 204.559866 394.164297 
L 204.779419 500.878855 
L 204.998972 434.247764 
L 205.218525 424.942866 
L 205.438078 332.566168 
L 205.657632 340.587785 
L 205.877185 434.047191 
L 206.096738 318.354732 
L 206.316291 442.795821 
L 206.535844 347.652419 
L 206.755397 330.646522 
L 206.974951 409.581062 
L 207.194504 339.445081 
L 207.414057 515.939918 
L 207.63361 384.125858 
L 208.072716 300.361322 
L 208.292269 304.916453 
L 208.511823 463.582577 
L 208.950929 364.961531 
L 209.170482 399.267684 
L 209.609588 341.827329 
L 209.829142 376.720789 
L 210.048695 326.211565 
L 210.268248 445.102882 
L 210.487801 344.539382 
L 210.707354 337.405751 
L 210.926907 303.744914 
L 211.14646 397.150425 
L 211.366014 381.342978 
L 211.585567 395.109284 
L 211.80512 350.313635 
L 212.024673 448.944036 
L 212.244226 349.019243 
L 212.463779 358.977752 
L 212.683333 456.516211 
L 213.122439 182.772679 
L 213.341992 451.983725 
L 213.561545 288.875811 
L 213.781098 261.012635 
L 214.000651 342.221226 
L 214.220205 472.480966 
L 214.439758 463.672166 
L 214.659311 282.884345 
L 214.878864 525.914136 
L 215.098417 315.603743 
L 215.31797 452.61847 
L 215.537523 340.890647 
L 215.757077 348.445506 
L 215.97663 427.349561 
L 216.196183 386.215187 
L 216.415736 370.387778 
L 216.635289 318.661968 
L 217.074396 503.482223 
L 217.293949 448.203459 
L 217.513502 453.09798 
L 217.733055 368.241028 
L 217.952608 362.505441 
L 218.172161 297.523443 
L 218.391714 403.787125 
L 218.611268 332.702443 
L 218.830821 340.069155 
L 219.050374 415.073623 
L 219.269927 400.749781 
L 219.48948 421.525105 
L 219.928587 335.141212 
L 220.14814 334.270183 
L 220.367693 358.669097 
L 220.587246 406.678104 
L 220.806799 327.649318 
L 221.026352 291.602173 
L 221.245905 385.195302 
L 221.465459 416.246997 
L 221.685012 385.508818 
L 221.904565 486.507121 
L 222.124118 442.664936 
L 222.343671 323.000559 
L 222.563224 404.782593 
L 222.782778 325.028799 
L 223.002331 386.915956 
L 223.441437 301.322436 
L 223.66099 443.655763 
L 223.880543 318.653805 
L 224.539203 417.375188 
L 224.758756 358.775942 
L 224.978309 363.748507 
L 225.197862 349.235596 
L 225.417415 390.280068 
L 225.636969 383.584082 
L 225.856522 248.947683 
L 226.076075 307.312315 
L 226.295628 323.1481 
L 226.515181 148.533542 
L 226.734734 431.085116 
L 226.954287 415.819673 
L 227.173841 450.487576 
L 227.393394 442.968068 
L 227.612947 377.491969 
L 227.8325 421.862628 
L 228.052053 420.032226 
L 228.271606 420.290321 
L 228.710713 374.724437 
L 228.930266 449.979482 
L 229.149819 437.267304 
L 229.369372 324.91498 
L 229.588925 478.448785 
L 229.808478 362.623036 
L 230.028032 445.38379 
L 230.247585 354.181659 
L 230.467138 442.367252 
L 230.686691 363.359445 
L 230.906244 396.311946 
L 231.345351 232.198264 
L 231.784457 481.285283 
L 232.00401 350.932766 
L 232.443116 446.119629 
L 232.662669 436.355131 
L 232.882223 441.792751 
L 233.321329 403.017946 
L 233.540882 422.750588 
L 233.760435 507.748234 
L 233.979988 321.92762 
L 234.199542 423.732289 
L 234.419095 393.680794 
L 234.638648 493.561743 
L 234.858201 458.792664 
L 235.077754 536.453567 
L 235.297307 419.693285 
L 235.51686 380.751009 
L 235.736414 480.800313 
L 235.955967 275.102538 
L 236.17552 328.36167 
L 236.395073 273.416944 
L 236.614626 463.593383 
L 236.834179 428.652675 
L 237.053733 358.52551 
L 237.492839 321.712227 
L 237.712392 416.801555 
L 237.931945 365.285679 
L 238.151498 379.95878 
L 238.371051 471.245455 
L 238.590605 432.174873 
L 238.810158 435.864884 
L 239.029711 378.318103 
L 239.249264 388.407956 
L 239.468817 374.356587 
L 239.68837 224.534087 
L 240.127477 388.05824 
L 240.34703 336.810715 
L 240.566583 411.158426 
L 240.786136 209.745219 
L 241.005689 335.105119 
L 241.225242 279.075267 
L 241.664349 432.884017 
L 241.883902 394.865979 
L 242.103455 265.34103 
L 242.323008 373.551459 
L 242.542561 404.543534 
L 242.762114 318.863901 
L 242.981668 398.497171 
L 243.201221 422.566635 
L 243.640327 264.623361 
L 243.85988 476.918827 
L 244.079433 384.138066 
L 244.298987 401.472524 
L 244.51854 371.229809 
L 244.738093 284.852458 
L 244.957646 480.594324 
L 245.177199 282.488058 
L 245.396752 334.728421 
L 245.616305 430.103289 
L 245.835859 452.10226 
L 246.055412 454.454992 
L 246.274965 373.262786 
L 246.494518 403.804736 
L 246.933624 323.074433 
L 247.153178 426.169182 
L 247.372731 429.400783 
L 247.592284 457.750794 
L 247.811837 385.020181 
L 248.03139 429.867969 
L 248.250943 390.210394 
L 248.470496 501.420936 
L 248.69005 415.790574 
L 248.909603 408.13396 
L 249.129156 491.572384 
L 249.348709 342.570993 
L 249.568262 302.901161 
L 249.787815 318.497821 
L 250.007369 449.252056 
L 250.226922 368.378561 
L 250.446475 360.330208 
L 250.666028 378.36349 
L 250.885581 341.09059 
L 251.105134 432.544454 
L 251.324687 399.386572 
L 251.544241 435.673417 
L 251.763794 295.328456 
L 251.983347 375.689077 
L 252.2029 373.875402 
L 252.422453 254.004561 
L 252.642006 375.825339 
L 252.86156 391.110111 
L 253.081113 385.541135 
L 253.300666 367.833062 
L 253.520219 327.573358 
L 253.739772 390.169648 
L 253.959325 312.582607 
L 254.178878 340.88322 
L 254.398432 389.182946 
L 254.617985 392.893077 
L 254.837538 432.927907 
L 255.057091 258.692242 
L 255.276644 380.550081 
L 255.496197 374.703503 
L 255.715751 462.106722 
L 255.935304 355.402771 
L 256.154857 456.152707 
L 256.593963 417.657574 
L 256.813516 413.188676 
L 257.033069 414.350679 
L 257.252623 433.263385 
L 257.472176 390.480757 
L 257.691729 379.428032 
L 257.911282 392.867556 
L 258.130835 427.927121 
L 258.350388 438.281349 
L 258.569942 475.641052 
L 258.789495 487.576144 
L 259.009048 374.91409 
L 259.228601 329.234343 
L 259.448154 437.421499 
L 259.667707 387.678294 
L 259.88726 389.656833 
L 260.106814 365.923557 
L 260.326367 314.561355 
L 260.54592 354.451465 
L 260.765473 342.507464 
L 260.985026 358.244103 
L 261.204579 398.548751 
L 261.424133 358.366174 
L 261.643686 387.450496 
L 261.863239 205.204893 
L 262.082792 433.443711 
L 262.302345 347.691041 
L 262.521898 457.993508 
L 262.741451 396.697078 
L 262.961005 406.176201 
L 263.180558 336.10534 
L 263.400111 442.104327 
L 263.619664 262.436695 
L 263.839217 272.697159 
L 264.05877 398.711182 
L 264.278324 406.928294 
L 264.497877 474.076403 
L 264.71743 388.028111 
L 264.936983 502.539872 
L 265.156536 343.46006 
L 265.376089 432.604889 
L 265.595642 389.586659 
L 265.815196 408.901124 
L 266.034749 416.035094 
L 266.254302 333.22146 
L 266.473855 412.817166 
L 266.693408 384.531119 
L 266.912961 457.077394 
L 267.132514 284.87229 
L 267.352068 337.225375 
L 267.571621 425.404121 
L 267.791174 441.888834 
L 268.010727 396.292984 
L 268.23028 404.367389 
L 268.449833 269.463883 
L 268.669387 323.895209 
L 268.88894 303.291451 
L 269.108493 303.129544 
L 269.328046 299.865267 
L 269.547599 447.346965 
L 269.767152 364.859643 
L 269.986705 436.369688 
L 270.206259 437.581041 
L 270.645365 393.613054 
L 270.864918 425.590089 
L 271.084471 340.639183 
L 271.304024 372.028387 
L 271.523578 338.132493 
L 271.743131 473.723193 
L 271.962684 392.274718 
L 272.182237 453.413603 
L 272.621343 337.622852 
L 272.840896 366.110049 
L 273.06045 313.997399 
L 273.280003 454.244328 
L 273.499556 523.31325 
L 273.719109 309.714073 
L 273.938662 397.449105 
L 274.158215 389.706323 
L 274.377769 361.739331 
L 274.597322 409.687979 
L 274.816875 341.977658 
L 275.036428 397.097403 
L 275.255981 334.11155 
L 275.475534 346.076592 
L 275.695087 338.943353 
L 275.914641 383.933117 
L 276.134194 359.526685 
L 276.353747 379.982985 
L 276.792853 444.278022 
L 277.012406 411.077654 
L 277.23196 294.958584 
L 277.451513 273.874627 
L 277.671066 443.164078 
L 277.890619 388.657511 
L 278.110172 412.652218 
L 278.329725 381.840126 
L 278.549278 525.643078 
L 278.768832 285.010367 
L 278.988385 390.360401 
L 279.207938 393.2632 
L 279.427491 517.451061 
L 279.647044 457.794581 
L 279.866597 353.847477 
L 280.086151 432.820916 
L 280.305704 432.668451 
L 280.525257 488.997098 
L 280.964363 391.329506 
L 281.183916 417.643855 
L 281.403469 388.73153 
L 281.623023 386.993269 
L 281.842576 383.805099 
L 282.062129 362.419728 
L 282.501235 411.27438 
L 282.720788 386.615608 
L 282.940342 466.214737 
L 283.159895 485.230882 
L 283.379448 339.287118 
L 283.599001 330.446341 
L 283.818554 358.368194 
L 284.038107 357.098495 
L 284.25766 377.147925 
L 284.477214 426.861817 
L 284.696767 343.590931 
L 284.91632 350.429279 
L 285.135873 394.363792 
L 285.355426 340.829766 
L 285.574979 476.045375 
L 286.014086 424.908849 
L 286.233639 478.362494 
L 286.453192 374.804497 
L 286.672745 342.214265 
L 286.892298 381.898982 
L 287.111851 248.113549 
L 287.331405 442.683042 
L 287.550958 437.386866 
L 287.770511 258.674969 
L 287.990064 426.376528 
L 288.209617 392.281006 
L 288.42917 327.664997 
L 288.648724 377.928636 
L 288.868277 496.889375 
L 289.08783 212.551975 
L 289.307383 405.797586 
L 289.746489 366.084377 
L 289.966042 347.993432 
L 290.405149 454.241507 
L 290.624702 375.207665 
L 290.844255 373.10135 
L 291.063808 250.885795 
L 291.722468 502.234154 
L 291.942021 417.416166 
L 292.161574 272.043678 
L 292.381127 265.879266 
L 292.820233 409.446169 
L 293.039787 374.056743 
L 293.25934 427.85857 
L 293.478893 311.786112 
L 293.698446 402.929094 
L 293.917999 366.88511 
L 294.137552 447.126317 
L 294.357105 344.836086 
L 294.796212 501.982615 
L 295.015765 328.122372 
L 295.235318 364.779963 
L 295.674424 323.633217 
L 295.893978 271.654682 
L 296.113531 388.141768 
L 296.333084 430.669316 
L 296.552637 515.429491 
L 296.77219 304.385158 
L 296.991743 454.99022 
L 297.211296 457.31397 
L 297.650403 344.891186 
L 297.869956 322.21512 
L 298.089509 481.196981 
L 298.309062 290.216085 
L 298.528615 415.326133 
L 298.748169 382.930803 
L 298.967722 442.300588 
L 299.187275 435.420438 
L 299.406828 442.450647 
L 299.626381 338.480829 
L 299.845934 406.098439 
L 300.065487 414.909579 
L 300.285041 338.384503 
L 300.724147 498.182036 
L 300.9437 340.236073 
L 301.163253 410.706339 
L 301.382806 379.513341 
L 301.60236 307.611904 
L 301.821913 412.460411 
L 302.041466 256.785612 
L 302.261019 372.818684 
L 302.480572 407.940086 
L 302.919678 360.918378 
L 303.139232 392.399257 
L 303.358785 316.741153 
L 303.578338 288.0206 
L 303.797891 435.89171 
L 304.017444 423.520267 
L 304.236997 421.87077 
L 304.456551 372.92556 
L 304.676104 418.755636 
L 304.895657 383.015066 
L 305.11521 395.405665 
L 305.334763 279.682123 
L 305.554316 414.248014 
L 305.773869 310.351215 
L 305.993423 385.874256 
L 306.212976 410.047783 
L 306.432529 380.7457 
L 306.652082 382.149879 
L 306.871635 431.58966 
L 307.091188 425.298547 
L 307.310742 457.732698 
L 307.530295 431.95739 
L 307.749848 362.965461 
L 307.969401 445.263187 
L 308.188954 406.023014 
L 308.408507 318.063816 
L 308.62806 464.363842 
L 309.28672 244.735604 
L 309.506273 406.23711 
L 309.725826 402.820257 
L 309.945379 411.164954 
L 310.164933 494.475059 
L 310.384486 323.999357 
L 310.604039 473.451123 
L 310.823592 353.512574 
L 311.043145 494.528655 
L 311.262698 376.518195 
L 311.482251 425.268837 
L 311.701805 422.571129 
L 311.921358 310.884997 
L 312.140911 487.414048 
L 312.360464 362.695068 
L 312.580017 336.726134 
L 313.019124 405.946489 
L 313.238677 319.755531 
L 313.677783 470.507158 
L 313.897336 336.690489 
L 314.116889 365.499155 
L 314.336442 289.188118 
L 314.775549 424.946742 
L 314.995102 439.859908 
L 315.214655 278.316139 
L 315.434208 314.839947 
L 315.653761 281.152373 
L 315.873315 411.90758 
L 316.092868 430.68038 
L 316.312421 346.205674 
L 316.531974 380.444804 
L 316.751527 351.983796 
L 316.97108 484.881021 
L 317.190633 417.242824 
L 317.410187 427.519928 
L 317.62974 391.961451 
L 317.849293 383.8768 
L 318.068846 431.059983 
L 318.507952 381.99207 
L 318.727506 459.657992 
L 318.947059 450.052682 
L 319.166612 350.662158 
L 319.386165 451.039933 
L 319.605718 405.191108 
L 319.825271 383.22132 
L 320.044824 375.260814 
L 320.264378 455.201275 
L 320.483931 324.593121 
L 320.703484 391.680378 
L 320.923037 523.251158 
L 321.362143 347.602504 
L 321.581696 386.52052 
L 321.80125 341.276999 
L 322.240356 416.753728 
L 322.459909 421.00688 
L 322.679462 436.543599 
L 323.118569 338.62944 
L 323.338122 417.893937 
L 323.557675 254.891945 
L 323.777228 317.726029 
L 323.996781 438.263208 
L 324.216334 425.372197 
L 324.435887 362.129999 
L 324.655441 430.782314 
L 325.094547 302.831461 
L 325.3141 443.009171 
L 325.533653 493.316044 
L 325.97276 337.932265 
L 326.192313 375.888798 
L 326.411866 387.246067 
L 326.631419 485.518465 
L 326.850972 392.088841 
L 327.070525 499.499098 
L 327.509632 318.323144 
L 327.729185 428.750898 
L 327.948738 352.985618 
L 328.168291 438.16528 
L 328.387844 331.490996 
L 328.607397 423.054132 
L 329.046504 359.245709 
L 329.266057 427.737399 
L 329.48561 450.903566 
L 329.924716 313.358801 
L 330.144269 361.651554 
L 330.583376 258.440741 
L 330.802929 337.037449 
L 331.022482 275.064694 
L 331.242035 501.409965 
L 331.461588 399.65236 
L 331.681142 408.057317 
L 331.900695 373.373073 
L 332.120248 304.172202 
L 332.339801 477.72372 
L 332.559354 376.077738 
L 332.778907 373.400429 
L 332.99846 274.517591 
L 333.218014 390.614687 
L 333.437567 373.684378 
L 333.65712 429.908388 
L 333.876673 327.807122 
L 334.096226 329.396703 
L 334.315779 326.319258 
L 334.535333 387.886291 
L 334.754886 368.792961 
L 334.974439 372.554444 
L 335.193992 499.057009 
L 335.413545 425.401877 
L 335.633098 438.206811 
L 336.072205 290.267104 
L 336.291758 376.528682 
L 336.511311 311.596758 
L 336.730864 384.715747 
L 336.950417 310.014348 
L 337.16997 381.054165 
L 337.389524 394.576704 
L 337.609077 432.329944 
L 337.82863 337.493506 
L 338.048183 493.500733 
L 338.267736 317.704047 
L 338.487289 433.440329 
L 338.706842 415.694551 
L 338.926396 474.324855 
L 339.145949 402.800287 
L 339.365502 284.662412 
L 339.585055 511.093643 
L 339.804608 472.362049 
L 340.024161 497.94345 
L 340.243715 496.530638 
L 340.463268 417.710635 
L 340.682821 412.740862 
L 340.902374 349.710613 
L 341.121927 354.26801 
L 341.34148 380.777765 
L 341.561033 361.700137 
L 341.780587 359.364423 
L 342.00014 366.416636 
L 342.219693 381.653454 
L 342.439246 336.242118 
L 342.658799 381.865643 
L 342.878352 389.299201 
L 343.097906 436.356645 
L 343.317459 412.660849 
L 343.537012 305.761062 
L 343.976118 431.833868 
L 344.195671 290.690184 
L 344.415224 310.025859 
L 344.634778 376.780876 
L 344.854331 364.036564 
L 345.073884 458.941387 
L 345.293437 457.070591 
L 345.51299 210.955805 
L 345.732543 431.133952 
L 345.952096 335.955693 
L 346.391203 355.454307 
L 346.610756 440.796107 
L 346.830309 307.611839 
L 347.049862 476.397986 
L 347.269415 331.789247 
L 347.708522 445.999724 
L 347.928075 328.918053 
L 348.147628 406.561839 
L 348.367181 324.832623 
L 348.586734 426.544027 
L 348.806287 321.131169 
L 349.025841 359.763294 
L 349.245394 295.146523 
L 349.464947 400.888297 
L 349.6845 377.928611 
L 349.904053 422.492917 
L 350.123606 324.480737 
L 350.34316 380.87481 
L 350.562713 383.256623 
L 350.782266 447.866881 
L 351.001819 432.09458 
L 351.221372 391.793204 
L 351.440925 426.930626 
L 351.660478 335.560972 
L 351.880032 487.491436 
L 352.099585 342.77082 
L 352.319138 316.721843 
L 352.538691 460.443393 
L 352.758244 381.378352 
L 353.197351 375.067068 
L 353.416904 410.02912 
L 353.636457 344.052679 
L 353.85601 543.789277 
L 354.075563 439.719593 
L 354.295116 403.169309 
L 354.734223 450.973555 
L 354.953776 420.191868 
L 355.173329 291.898262 
L 355.392882 427.492947 
L 355.612435 448.898835 
L 356.051542 286.471032 
L 356.271095 331.29633 
L 356.490648 335.444007 
L 356.710201 416.515037 
L 356.929754 403.534724 
L 357.149307 334.871203 
L 357.36886 368.435137 
L 357.588414 233.43473 
L 358.02752 455.378704 
L 358.247073 414.954028 
L 358.466626 312.2739 
L 358.686179 319.966242 
L 358.905733 401.2732 
L 359.125286 275.679513 
L 359.344839 344.212363 
L 359.564392 366.189562 
L 359.783945 318.8439 
L 360.003498 446.369387 
L 360.223051 307.200138 
L 360.442605 405.415184 
L 360.662158 409.912093 
L 360.881711 483.955196 
L 361.101264 388.323395 
L 361.320817 407.268662 
L 361.54037 203.190721 
L 361.759924 304.247423 
L 361.979477 328.824726 
L 362.19903 393.884265 
L 362.418583 411.997793 
L 362.638136 385.083971 
L 362.857689 391.436189 
L 363.077242 415.227958 
L 363.296796 323.337512 
L 363.516349 461.865778 
L 363.735902 472.883743 
L 363.955455 512.607105 
L 364.175008 328.406756 
L 364.394561 487.851025 
L 364.614115 378.56434 
L 364.833668 394.85315 
L 365.053221 454.202276 
L 365.272774 365.319911 
L 365.492327 514.50271 
L 365.71188 362.632167 
L 365.931433 341.252435 
L 366.150987 455.270165 
L 366.37054 380.172867 
L 366.590093 454.729757 
L 366.809646 380.312039 
L 367.029199 418.847965 
L 367.248752 436.276349 
L 367.468306 302.17175 
L 367.687859 439.466716 
L 368.126965 327.234503 
L 368.566071 428.172591 
L 368.785624 409.424448 
L 369.005178 446.360214 
L 369.224731 378.214609 
L 369.444284 404.734776 
L 369.663837 261.937712 
L 369.88339 377.715976 
L 370.102943 320.951045 
L 370.322497 437.422557 
L 370.54205 291.938768 
L 370.761603 545.879832 
L 370.981156 526.978847 
L 371.200709 549.307836 
L 371.420262 218.933755 
L 371.639815 207.144514 
L 371.859369 378.898744 
L 372.078922 261.746922 
L 372.298475 232.569984 
L 372.518028 443.46577 
L 372.737581 323.493665 
L 372.957134 415.683637 
L 373.176687 456.014543 
L 373.615794 333.17302 
L 373.835347 469.336086 
L 374.0549 422.000212 
L 374.274453 407.996785 
L 374.494006 184.484271 
L 374.71356 395.671541 
L 374.933113 318.073807 
L 375.152666 392.212765 
L 375.372219 374.117866 
L 375.591772 478.386728 
L 375.811325 403.771615 
L 376.030878 473.657726 
L 376.250432 285.871938 
L 376.469985 321.099989 
L 376.689538 397.444042 
L 376.909091 426.638001 
L 377.128644 284.239263 
L 377.348197 301.385378 
L 377.567751 347.39849 
L 377.787304 440.508507 
L 378.006857 245.312264 
L 378.445963 335.054539 
L 378.665516 302.450958 
L 378.885069 356.671729 
L 379.104623 343.023417 
L 379.324176 380.889489 
L 379.543729 312.594337 
L 379.763282 387.60211 
L 379.982835 279.060212 
L 380.202388 463.731087 
L 380.421942 209.279139 
L 380.641495 457.69677 
L 380.861048 505.468838 
L 381.080601 373.013503 
L 381.300154 343.761249 
L 381.519707 385.906107 
L 381.73926 191.730846 
L 381.958814 407.394718 
L 382.39792 356.651359 
L 382.617473 375.450679 
L 382.837026 407.250633 
L 383.056579 306.917081 
L 383.276133 454.403366 
L 383.495686 454.558943 
L 383.715239 432.824584 
L 383.934792 355.426532 
L 384.154345 414.087352 
L 384.373898 424.595613 
L 384.593451 419.538533 
L 384.813005 456.886974 
L 385.032558 422.580809 
L 385.252111 419.954935 
L 385.471664 329.102758 
L 385.691217 298.65634 
L 385.91077 444.15395 
L 386.130324 384.986654 
L 386.349877 284.477121 
L 386.56943 506.914213 
L 386.788983 384.840571 
L 387.008536 412.635864 
L 387.228089 229.730265 
L 387.447642 479.962309 
L 387.667196 466.099039 
L 387.886749 438.533361 
L 388.106302 270.162431 
L 388.545408 349.211059 
L 388.764961 251.96044 
L 388.984515 461.206738 
L 389.204068 375.124494 
L 389.423621 435.708231 
L 389.643174 377.891161 
L 389.862727 388.803234 
L 390.08228 382.87583 
L 390.301833 453.257036 
L 390.521387 313.83455 
L 390.960493 412.264571 
L 391.180046 353.538385 
L 391.399599 428.934669 
L 391.619152 390.37209 
L 391.838706 521.020543 
L 392.058259 311.360298 
L 392.277812 492.046857 
L 392.497365 399.819539 
L 392.716918 433.046402 
L 392.936471 343.875516 
L 393.156024 450.440491 
L 393.375578 492.190932 
L 393.595131 375.056442 
L 393.814684 422.0167 
L 394.034237 354.736319 
L 394.25379 348.745976 
L 394.692897 483.455477 
L 394.91245 365.328634 
L 395.132003 444.056993 
L 395.351556 399.214019 
L 395.571109 320.855163 
L 395.790662 372.249386 
L 396.010215 341.726267 
L 396.229769 409.631776 
L 396.449322 333.911526 
L 396.668875 336.945514 
L 396.888428 282.267021 
L 397.107981 380.996489 
L 397.327534 350.953859 
L 397.547087 249.785091 
L 397.766641 418.957064 
L 397.986194 329.193895 
L 398.4253 398.513533 
L 398.644853 360.682773 
L 398.864406 401.10217 
L 399.08396 408.525812 
L 399.303513 458.35466 
L 399.523066 396.285103 
L 399.742619 391.339826 
L 399.962172 323.184667 
L 400.181725 392.927761 
L 400.401278 350.133794 
L 400.620832 424.236114 
L 400.840385 408.489662 
L 401.059938 343.368913 
L 401.279491 419.936286 
L 401.499044 314.849867 
L 401.938151 468.060465 
L 402.157704 342.048009 
L 402.377257 471.508489 
L 402.59681 190.490035 
L 402.816363 368.757603 
L 403.035916 289.137998 
L 403.255469 285.765824 
L 403.475023 398.258212 
L 403.694576 333.31782 
L 403.914129 431.614144 
L 404.133682 276.035521 
L 404.353235 423.547344 
L 404.572788 374.136669 
L 404.792342 519.365048 
L 405.011895 467.150034 
L 405.231448 387.465796 
L 405.451001 376.513206 
L 405.670554 336.546998 
L 405.890107 332.419352 
L 406.10966 359.59943 
L 406.329214 409.96381 
L 406.548767 360.058876 
L 406.76832 405.545111 
L 406.987873 246.798002 
L 407.207426 470.722939 
L 407.426979 447.79983 
L 407.866086 323.161384 
L 408.085639 525.78273 
L 408.305192 368.603447 
L 408.524745 312.686872 
L 408.744298 426.210892 
L 408.963851 346.468029 
L 409.183405 449.129595 
L 409.402958 352.121647 
L 409.622511 469.522365 
L 409.842064 385.981973 
L 410.061617 425.733004 
L 410.28117 445.257075 
L 410.500724 363.008865 
L 410.720277 429.686238 
L 410.93983 324.96098 
L 411.378936 413.19518 
L 411.598489 320.632707 
L 411.818042 422.630457 
L 412.037596 445.523233 
L 412.257149 198.189273 
L 412.476702 400.887646 
L 412.696255 401.734662 
L 412.915808 360.714351 
L 413.135361 469.30937 
L 413.354915 332.916091 
L 413.574468 402.844819 
L 413.794021 401.992646 
L 414.233127 447.758996 
L 414.45268 452.106854 
L 414.891787 363.239522 
L 415.11134 382.977483 
L 415.330893 387.654317 
L 415.550446 411.415626 
L 415.769999 415.978675 
L 415.989552 368.930695 
L 416.428659 581.38839 
L 416.867765 318.562443 
L 417.087318 278.134182 
L 417.306871 410.595735 
L 417.526424 398.537828 
L 417.745978 373.954906 
L 417.965531 309.700239 
L 418.404637 408.864356 
L 418.62419 313.508468 
L 418.843743 403.819968 
L 419.063297 398.736239 
L 419.28285 339.870242 
L 419.502403 407.607459 
L 419.721956 405.116918 
L 419.941509 456.207774 
L 420.161062 350.476924 
L 420.600169 252.628157 
L 420.819722 460.461268 
L 421.039275 403.2072 
L 421.258828 311.105291 
L 421.478381 454.152545 
L 421.917488 389.612982 
L 422.137041 309.678321 
L 422.356594 411.258615 
L 422.576147 366.664869 
L 422.7957 417.277328 
L 423.015253 411.507438 
L 423.234806 429.934098 
L 423.45436 295.545156 
L 423.673913 428.448882 
L 423.893466 314.242904 
L 424.113019 356.263869 
L 424.332572 442.920362 
L 424.552125 396.042959 
L 424.771678 239.661291 
L 424.991232 393.679399 
L 425.210785 367.652635 
L 425.430338 434.88406 
L 425.649891 454.857191 
L 425.869444 446.159662 
L 426.088997 497.086325 
L 426.308551 435.626493 
L 426.528104 420.142619 
L 426.747657 423.713327 
L 426.96721 335.499549 
L 427.186763 401.415239 
L 427.406316 314.164736 
L 427.625869 450.842861 
L 427.845423 388.812477 
L 428.064976 368.130745 
L 428.284529 316.438446 
L 428.504082 410.613354 
L 428.723635 397.428788 
L 428.943188 469.403145 
L 429.162742 391.467292 
L 429.382295 372.896062 
L 429.601848 272.18773 
L 430.040954 393.200394 
L 430.260507 491.263318 
L 430.699614 383.359431 
L 430.919167 397.206114 
L 431.358273 305.192869 
L 431.577826 378.724405 
L 432.016933 426.924912 
L 432.236486 376.317538 
L 432.456039 271.41927 
L 432.675592 474.436049 
L 432.895145 438.373534 
L 433.114698 443.669592 
L 433.334251 387.659594 
L 433.553805 438.629696 
L 433.773358 314.393169 
L 433.992911 446.178784 
L 434.212464 375.27397 
L 434.432017 443.298869 
L 434.65157 370.949443 
L 434.871124 437.19971 
L 435.090677 409.675387 
L 435.31023 419.45097 
L 435.529783 321.496143 
L 435.968889 396.779009 
L 436.188442 315.465053 
L 436.407996 298.520498 
L 436.627549 510.767315 
L 436.847102 264.273813 
L 437.066655 391.497063 
L 437.286208 341.939569 
L 437.505761 416.525948 
L 437.725315 394.286715 
L 438.164421 493.051197 
L 438.383974 381.36024 
L 438.603527 385.312204 
L 438.82308 306.908388 
L 439.262187 465.76181 
L 439.48174 490.53321 
L 439.701293 356.003698 
L 439.920846 345.363553 
L 440.140399 387.561867 
L 440.359952 175.959862 
L 440.579506 305.436232 
L 440.799059 356.077818 
L 441.018612 356.675312 
L 441.238165 262.644745 
L 441.457718 334.874141 
L 441.677271 358.447412 
L 441.896824 338.087281 
L 442.116378 294.38644 
L 442.335931 391.237677 
L 442.555484 434.149172 
L 442.775037 399.002351 
L 442.99459 448.104953 
L 443.214143 420.859211 
L 443.433697 454.415494 
L 443.65325 519.032355 
L 444.092356 347.458032 
L 444.311909 392.911413 
L 444.531462 358.449192 
L 444.751015 345.147911 
L 444.970569 464.695248 
L 445.190122 417.191511 
L 445.409675 339.942325 
L 445.629228 390.461679 
L 445.848781 352.113486 
L 446.287888 409.711761 
L 446.507441 409.963452 
L 446.726994 417.987288 
L 446.946547 433.374148 
L 447.1661 339.40245 
L 447.385653 365.509059 
L 447.605206 429.406439 
L 447.82476 294.041099 
L 448.044313 425.038424 
L 448.263866 404.162564 
L 448.483419 453.831052 
L 448.702972 408.670285 
L 448.922525 397.216436 
L 449.142079 437.221725 
L 449.361632 404.147427 
L 449.581185 343.31726 
L 449.800738 419.782839 
L 450.020291 355.420264 
L 450.239844 220.008603 
L 450.678951 489.307981 
L 450.898504 441.162144 
L 451.118057 365.184913 
L 451.33761 349.585801 
L 451.776716 251.533738 
L 451.996269 436.591174 
L 452.215823 433.834581 
L 452.435376 529.247738 
L 452.654929 372.636932 
L 452.874482 422.93547 
L 453.094035 421.311964 
L 453.313588 325.950285 
L 453.752695 381.116564 
L 453.972248 350.19005 
L 454.191801 431.065209 
L 454.411354 458.77418 
L 454.630907 501.509384 
L 454.85046 364.666022 
L 455.070014 346.664761 
L 455.289567 379.132161 
L 455.50912 383.929143 
L 455.728673 448.642582 
L 455.948226 435.927334 
L 456.387333 291.537067 
L 456.606886 442.984801 
L 456.826439 381.595719 
L 457.045992 510.293128 
L 457.265545 408.278494 
L 457.704651 363.319659 
L 457.924205 424.739666 
L 458.143758 422.699516 
L 458.363311 351.516908 
L 458.582864 482.323602 
L 458.802417 366.101574 
L 459.02197 346.834357 
L 459.241524 406.72183 
L 459.461077 401.99696 
L 459.68063 404.073393 
L 459.900183 385.470045 
L 460.119736 389.651734 
L 460.339289 399.754106 
L 460.558842 395.783567 
L 460.778396 386.365442 
L 460.997949 486.89833 
L 461.217502 470.681469 
L 461.437055 391.634291 
L 461.656608 515.619333 
L 461.876161 384.315199 
L 462.095715 465.043462 
L 462.315268 267.028642 
L 462.534821 407.508967 
L 462.754374 448.70086 
L 462.973927 375.211584 
L 463.19348 394.079945 
L 463.413033 387.476507 
L 463.632587 542.035934 
L 463.85214 288.295722 
L 464.071693 362.144834 
L 464.291246 343.375387 
L 464.949906 496.122102 
L 465.169459 328.967996 
L 465.389012 446.687152 
L 465.608565 338.224624 
L 465.828118 326.484243 
L 466.047671 392.034242 
L 466.267224 396.714588 
L 466.486778 229.079356 
L 466.925884 452.791525 
L 467.145437 504.541994 
L 467.36499 410.187721 
L 467.584543 394.956396 
L 467.804097 350.224438 
L 468.02365 355.625365 
L 468.243203 290.49656 
L 468.462756 429.153831 
L 468.682309 302.103867 
L 468.901862 397.175122 
L 469.340969 273.001515 
L 469.780075 398.657133 
L 469.999628 394.156651 
L 470.219181 321.832182 
L 470.438734 403.163816 
L 470.658288 359.103595 
L 470.877841 190.334023 
L 471.097394 408.761466 
L 471.316947 452.774211 
L 471.5365 376.918146 
L 471.756053 391.906531 
L 471.975606 430.567352 
L 472.19516 421.098271 
L 472.414713 317.696044 
L 472.634266 285.211442 
L 472.853819 398.993854 
L 473.073372 353.701445 
L 473.292925 385.284536 
L 473.512479 379.437333 
L 473.951585 389.770229 
L 474.171138 449.497551 
L 474.390691 474.830182 
L 474.610244 452.930603 
L 474.829797 462.425666 
L 475.268904 435.976036 
L 475.488457 373.36574 
L 475.70801 222.594947 
L 475.927563 391.491643 
L 476.147116 301.129664 
L 476.366669 393.314401 
L 476.805776 438.873532 
L 477.025329 377.628549 
L 477.244882 416.888296 
L 477.464435 529.537965 
L 477.683988 439.201496 
L 477.903542 254.248389 
L 478.123095 410.782135 
L 478.342648 394.425123 
L 478.562201 457.292748 
L 478.781754 370.991046 
L 479.001307 347.098322 
L 479.440414 228.628299 
L 479.659967 461.51766 
L 479.87952 395.838072 
L 480.099073 396.632603 
L 480.318626 421.869815 
L 480.538179 394.542298 
L 480.757733 426.325977 
L 480.977286 340.192238 
L 481.416392 304.341048 
L 481.635945 436.143855 
L 481.855498 424.574201 
L 482.075051 367.958934 
L 482.294605 352.566972 
L 482.514158 268.057598 
L 482.733711 379.343033 
L 482.953264 420.897182 
L 483.172817 275.410148 
L 483.39237 429.902379 
L 483.611924 347.937913 
L 483.831477 496.443446 
L 484.05103 441.692284 
L 484.270583 461.528621 
L 484.929242 310.837982 
L 485.148796 435.540579 
L 485.368349 421.3012 
L 485.587902 287.545969 
L 485.807455 435.933739 
L 486.027008 326.996228 
L 486.246561 434.755962 
L 486.466115 286.567012 
L 486.685668 396.13213 
L 486.905221 436.772083 
L 487.124774 380.204379 
L 487.344327 364.950853 
L 487.56388 341.608586 
L 487.783433 440.329053 
L 488.002987 353.052181 
L 488.22254 510.26051 
L 488.661646 322.443737 
L 488.881199 459.616997 
L 489.100752 411.421942 
L 489.320306 330.435706 
L 489.759412 401.708161 
L 489.978965 398.185197 
L 490.198518 400.288435 
L 490.418071 317.350015 
L 490.637624 342.643846 
L 490.857178 428.356591 
L 491.076731 461.700199 
L 491.296284 417.766342 
L 491.515837 413.577571 
L 491.73539 389.185189 
L 491.954943 267.709035 
L 492.174497 416.947673 
L 492.39405 428.414964 
L 492.613603 492.517017 
L 492.833156 407.781488 
L 493.052709 380.503028 
L 493.272262 394.260363 
L 493.491815 346.219319 
L 493.711369 422.348505 
L 493.930922 355.991414 
L 494.150475 361.037275 
L 494.370028 350.60621 
L 494.809134 551.473391 
L 495.028688 391.74036 
L 495.248241 394.229663 
L 495.467794 363.568353 
L 495.687347 276.182124 
L 495.9069 390.508759 
L 496.126453 310.691437 
L 496.346006 305.67811 
L 496.56556 444.723534 
L 496.785113 388.414652 
L 497.004666 477.514697 
L 497.224219 263.36626 
L 497.443772 405.017469 
L 497.663325 410.771393 
L 497.882879 346.458332 
L 498.321985 399.541303 
L 498.541538 462.058749 
L 498.761091 365.71607 
L 498.980644 323.36631 
L 499.200197 436.666904 
L 499.419751 415.434953 
L 499.639304 451.947164 
L 499.858857 311.136995 
L 500.07841 489.363358 
L 500.73707 362.942944 
L 500.956623 398.018432 
L 501.176176 461.778596 
L 501.395729 440.32983 
L 501.834835 493.376533 
L 502.054388 427.81844 
L 502.273942 449.290904 
L 502.493495 341.433273 
L 502.932601 425.842975 
L 503.152154 410.089722 
L 503.371707 443.762426 
L 503.59126 342.861063 
L 503.810814 443.343728 
L 504.030367 402.916685 
L 504.24992 337.566018 
L 504.469473 473.071993 
L 504.689026 378.804303 
L 504.908579 335.109149 
L 505.347686 480.126757 
L 505.786792 261.886583 
L 506.225898 512.177992 
L 506.445451 335.744921 
L 506.665005 355.103993 
L 506.884558 245.934161 
L 507.104111 358.472741 
L 507.323664 403.418629 
L 507.543217 365.333284 
L 507.76277 349.59088 
L 508.201877 394.636161 
L 508.42143 482.533551 
L 508.640983 466.643184 
L 508.860536 460.213015 
L 509.080089 318.733501 
L 509.299642 432.963631 
L 509.519196 382.23524 
L 509.738749 401.3497 
L 509.958302 372.128284 
L 510.177855 478.816548 
L 510.397408 364.871018 
L 510.616961 421.671894 
L 510.836515 269.811373 
L 511.056068 412.777035 
L 511.275621 436.599688 
L 511.495174 344.708074 
L 511.714727 399.26736 
L 511.93428 421.649007 
L 512.153833 301.461183 
L 512.373387 350.561067 
L 512.59294 443.192226 
L 512.812493 368.379247 
L 513.032046 463.565142 
L 513.251599 287.690729 
L 513.471152 517.523539 
L 513.690706 440.540776 
L 513.910259 454.717699 
L 514.129812 285.508872 
L 514.349365 388.274933 
L 514.568918 392.585059 
L 515.008024 463.01807 
L 515.227578 131.956182 
L 515.447131 392.844837 
L 515.666684 240.159397 
L 515.886237 375.986046 
L 516.10579 280.752534 
L 516.325343 303.672413 
L 516.76445 442.197006 
L 516.984003 329.727481 
L 517.203556 334.648379 
L 517.423109 484.045433 
L 517.642662 345.796353 
L 517.862215 302.799153 
L 518.081769 291.835534 
L 518.301322 232.719649 
L 518.740428 408.556416 
L 519.179534 308.037789 
L 519.399088 498.048643 
L 519.618641 305.884893 
L 519.838194 423.643233 
L 520.057747 448.875992 
L 520.2773 431.070918 
L 520.496853 312.614493 
L 520.716406 450.154455 
L 520.93596 477.979481 
L 521.155513 418.408894 
L 521.375066 392.43486 
L 521.594619 434.247188 
L 521.814172 440.685672 
L 522.033725 382.530216 
L 522.253279 360.737722 
L 522.692385 468.033296 
L 522.911938 486.698401 
L 523.131491 376.638405 
L 523.351044 380.32205 
L 523.570597 397.912799 
L 523.790151 331.817481 
L 524.229257 431.579281 
L 524.887916 347.913154 
L 525.10747 279.451236 
L 525.327023 339.709095 
L 525.546576 236.567013 
L 525.766129 374.597537 
L 525.985682 276.917647 
L 526.205235 406.614267 
L 526.424788 442.421089 
L 526.644342 406.136107 
L 526.863895 411.500332 
L 527.083448 303.196967 
L 527.303001 451.912887 
L 527.522554 331.396732 
L 527.742107 411.74386 
L 527.96166 439.412595 
L 528.181214 303.524343 
L 528.62032 411.319744 
L 528.839873 455.796214 
L 529.059426 326.296479 
L 529.498533 501.640038 
L 529.718086 353.239225 
L 529.937639 377.384205 
L 530.157192 321.326829 
L 530.376745 295.028234 
L 530.596298 468.667512 
L 530.815851 322.715986 
L 531.035405 255.683886 
L 531.254958 355.432183 
L 531.474511 287.348791 
L 531.694064 384.396293 
L 531.913617 327.475124 
L 532.13317 398.64336 
L 532.352724 374.821065 
L 532.572277 310.103258 
L 532.79183 413.708994 
L 533.011383 286.011637 
L 533.230936 498.641951 
L 533.670042 362.890476 
L 533.889596 453.635139 
L 534.109149 372.914941 
L 534.328702 347.86153 
L 534.548255 431.598634 
L 534.987361 406.701746 
L 535.426468 284.721601 
L 535.646021 352.957086 
L 535.865574 383.78155 
L 536.085127 264.721678 
L 536.30468 443.440429 
L 536.743787 468.415275 
L 536.96334 444.224331 
L 537.182893 445.346341 
L 537.621999 393.3337 
L 537.841552 249.484714 
L 538.280659 424.882116 
L 538.719765 262.119763 
L 538.939318 377.673135 
L 539.378424 356.404351 
L 539.597978 440.456416 
L 539.817531 440.592496 
L 540.037084 456.273889 
L 540.256637 336.443859 
L 540.47619 501.772726 
L 540.695743 430.505214 
L 540.915297 434.416463 
L 541.13485 358.550225 
L 541.354403 337.084611 
L 541.573956 441.726882 
L 541.793509 288.678385 
L 542.013062 386.767066 
L 542.232615 361.01787 
L 542.452169 455.505419 
L 542.891275 437.414236 
L 543.110828 440.367934 
L 543.549934 396.526815 
L 543.769488 439.104962 
L 543.989041 327.71482 
L 544.208594 399.02353 
L 544.428147 276.356466 
L 544.6477 392.14182 
L 544.867253 335.689055 
L 545.086806 414.490867 
L 545.30636 330.497598 
L 545.745466 368.923392 
L 545.745466 368.923392 
" style="fill:none;stroke:#96c69a;stroke-linecap:round;stroke-width:3;"/>
   </g>
   <g id="line2d_2"/>
   <g id="patch_3">
    <path d="M 84.914375 603.86 
L 84.914375 109.484571 
" style="fill:none;stroke:#262626;stroke-linecap:square;stroke-linejoin:miter;stroke-width:2.5;"/>
   </g>
   <g id="patch_4">
    <path d="M 84.914375 603.86 
L 567.689804 603.86 
" style="fill:none;stroke:#262626;stroke-linecap:square;stroke-linejoin:miter;stroke-width:2.5;"/>
   </g>
   <g id="legend_1">
    <g id="patch_5">
     <path d="M 514.774179 598.86 
L 560.689804 598.86 
Q 562.689804 598.86 562.689804 596.86 
L 562.689804 554.954375 
Q 562.689804 552.954375 560.689804 552.954375 
L 514.774179 552.954375 
Q 512.774179 552.954375 512.774179 554.954375 
L 512.774179 596.86 
Q 512.774179 598.86 514.774179 598.86 
z
" style="fill:#ffffff;opacity:0.8;stroke:#cccccc;stroke-linejoin:miter;stroke-width:2;"/>
    </g>
    <g id="text_18">
     <!-- $n_\tau$ -->
     <g style="fill:#262626;" transform="translate(524.651991 575.190625)scale(0.24 -0.24)">
      <defs>
       <path d="M 3566 2113 
L 3156 0 
L 2578 0 
L 2988 2091 
Q 3016 2238 3031 2350 
Q 3047 2463 3047 2528 
Q 3047 2791 2881 2937 
Q 2716 3084 2419 3084 
Q 1956 3084 1622 2776 
Q 1288 2469 1184 1941 
L 800 0 
L 225 0 
L 903 3500 
L 1478 3500 
L 1363 2950 
Q 1603 3253 1940 3418 
Q 2278 3584 2650 3584 
Q 3113 3584 3367 3334 
Q 3622 3084 3622 2631 
Q 3622 2519 3608 2391 
Q 3594 2263 3566 2113 
z
" id="DejaVuSans-Oblique-6e" transform="scale(0.015625)"/>
       <path d="M 2103 638 
Q 2188 488 2525 488 
L 2800 488 
L 2706 0 
L 2363 0 
Q 1800 0 1600 300 
Q 1403 606 1534 1269 
L 1856 2925 
L 541 2925 
L 653 3500 
L 3881 3500 
L 3769 2925 
L 2444 2925 
L 2113 1234 
Q 2025 781 2103 638 
z
" id="DejaVuSans-Oblique-3c4" transform="scale(0.015625)"/>
      </defs>
      <use xlink:href="#DejaVuSans-Oblique-6e"/>
      <use transform="translate(63.378906 -16.40625)scale(0.7)" xlink:href="#DejaVuSans-Oblique-3c4"/>
     </g>
    </g>
    <g id="line2d_3">
     <path d="M 516.774179 589.280313 
L 536.774179 589.280313 
" style="fill:none;stroke:#96c69a;stroke-linecap:round;stroke-width:3;"/>
    </g>
    <g id="line2d_4"/>
    <g id="text_19">
     <!-- 40 -->
     <g style="fill:#262626;" transform="translate(544.774179 592.780313)scale(0.1 -0.1)">
      <defs>
       <path d="M 2356 3675 
L 1038 1722 
L 2356 1722 
L 2356 3675 
z
M 2156 4666 
L 3494 4666 
L 3494 1722 
L 4159 1722 
L 4159 850 
L 3494 850 
L 3494 0 
L 2356 0 
L 2356 850 
L 288 850 
L 288 1881 
L 2156 4666 
z
" id="DejaVuSans-Bold-34" transform="scale(0.015625)"/>
       <path d="M 2944 2338 
Q 2944 3213 2780 3570 
Q 2616 3928 2228 3928 
Q 1841 3928 1675 3570 
Q 1509 3213 1509 2338 
Q 1509 1453 1675 1090 
Q 1841 728 2228 728 
Q 2613 728 2778 1090 
Q 2944 1453 2944 2338 
z
M 4147 2328 
Q 4147 1169 3647 539 
Q 3147 -91 2228 -91 
Q 1306 -91 806 539 
Q 306 1169 306 2328 
Q 306 3491 806 4120 
Q 1306 4750 2228 4750 
Q 3147 4750 3647 4120 
Q 4147 3491 4147 2328 
z
" id="DejaVuSans-Bold-30" transform="scale(0.015625)"/>
      </defs>
      <use xlink:href="#DejaVuSans-Bold-34"/>
      <use x="69.580078" xlink:href="#DejaVuSans-Bold-30"/>
     </g>
    </g>
   </g>
  </g>
  <g id="axes_2">
   <g id="patch_6">
    <path d="M 84.914375 92.437143 
L 567.689804 92.437143 
L 567.689804 7.2 
L 84.914375 7.2 
z
" style="fill:none;"/>
   </g>
   <g id="matplotlib.axis_3">
    <g id="xtick_7"/>
    <g id="xtick_8"/>
    <g id="xtick_9"/>
    <g id="xtick_10"/>
    <g id="xtick_11"/>
    <g id="xtick_12"/>
   </g>
   <g id="matplotlib.axis_4">
    <g id="ytick_10">
     <g id="text_20">
      <!-- 0 -->
      <g style="fill:#262626;" transform="translate(55.416875 100.795424)scale(0.22 -0.22)">
       <use xlink:href="#DejaVuSans-30"/>
      </g>
     </g>
    </g>
    <g id="ytick_11">
     <g id="text_21">
      <!-- 100 -->
      <g style="fill:#262626;" transform="translate(27.421875 48.082287)scale(0.22 -0.22)">
       <use xlink:href="#DejaVuSans-31"/>
       <use x="63.623047" xlink:href="#DejaVuSans-30"/>
       <use x="127.246094" xlink:href="#DejaVuSans-30"/>
      </g>
     </g>
    </g>
   </g>
   <g id="patch_7">
    <path clip-path="url(#p88e019c86a)" d="M 106.858713 92.437143 
L 140.619232 92.437143 
L 140.619232 11.258912 
L 106.858713 11.258912 
z
" style="fill:#96c69a;fill-opacity:0.5;stroke:#ffffff;stroke-linejoin:miter;stroke-width:2;"/>
   </g>
   <g id="patch_8">
    <path clip-path="url(#p88e019c86a)" d="M 140.619232 92.437143 
L 174.379752 92.437143 
L 174.379752 11.258912 
L 140.619232 11.258912 
z
" style="fill:#96c69a;fill-opacity:0.5;stroke:#ffffff;stroke-linejoin:miter;stroke-width:2;"/>
   </g>
   <g id="patch_9">
    <path clip-path="url(#p88e019c86a)" d="M 174.379752 92.437143 
L 208.140271 92.437143 
L 208.140271 11.258912 
L 174.379752 11.258912 
z
" style="fill:#96c69a;fill-opacity:0.5;stroke:#ffffff;stroke-linejoin:miter;stroke-width:2;"/>
   </g>
   <g id="patch_10">
    <path clip-path="url(#p88e019c86a)" d="M 208.140271 92.437143 
L 241.900791 92.437143 
L 241.900791 11.258912 
L 208.140271 11.258912 
z
" style="fill:#96c69a;fill-opacity:0.5;stroke:#ffffff;stroke-linejoin:miter;stroke-width:2;"/>
   </g>
   <g id="patch_11">
    <path clip-path="url(#p88e019c86a)" d="M 241.900791 92.437143 
L 275.66131 92.437143 
L 275.66131 11.786043 
L 241.900791 11.786043 
z
" style="fill:#96c69a;fill-opacity:0.5;stroke:#ffffff;stroke-linejoin:miter;stroke-width:2;"/>
   </g>
   <g id="patch_12">
    <path clip-path="url(#p88e019c86a)" d="M 275.66131 92.437143 
L 309.42183 92.437143 
L 309.42183 11.258912 
L 275.66131 11.258912 
z
" style="fill:#96c69a;fill-opacity:0.5;stroke:#ffffff;stroke-linejoin:miter;stroke-width:2;"/>
   </g>
   <g id="patch_13">
    <path clip-path="url(#p88e019c86a)" d="M 309.42183 92.437143 
L 343.182349 92.437143 
L 343.182349 11.258912 
L 309.42183 11.258912 
z
" style="fill:#96c69a;fill-opacity:0.5;stroke:#ffffff;stroke-linejoin:miter;stroke-width:2;"/>
   </g>
   <g id="patch_14">
    <path clip-path="url(#p88e019c86a)" d="M 343.182349 92.437143 
L 376.942869 92.437143 
L 376.942869 11.258912 
L 343.182349 11.258912 
z
" style="fill:#96c69a;fill-opacity:0.5;stroke:#ffffff;stroke-linejoin:miter;stroke-width:2;"/>
   </g>
   <g id="patch_15">
    <path clip-path="url(#p88e019c86a)" d="M 376.942869 92.437143 
L 410.703388 92.437143 
L 410.703388 11.786043 
L 376.942869 11.786043 
z
" style="fill:#96c69a;fill-opacity:0.5;stroke:#ffffff;stroke-linejoin:miter;stroke-width:2;"/>
   </g>
   <g id="patch_16">
    <path clip-path="url(#p88e019c86a)" d="M 410.703388 92.437143 
L 444.463907 92.437143 
L 444.463907 11.258912 
L 410.703388 11.258912 
z
" style="fill:#96c69a;fill-opacity:0.5;stroke:#ffffff;stroke-linejoin:miter;stroke-width:2;"/>
   </g>
   <g id="patch_17">
    <path clip-path="url(#p88e019c86a)" d="M 444.463907 92.437143 
L 478.224427 92.437143 
L 478.224427 11.258912 
L 444.463907 11.258912 
z
" style="fill:#96c69a;fill-opacity:0.5;stroke:#ffffff;stroke-linejoin:miter;stroke-width:2;"/>
   </g>
   <g id="patch_18">
    <path clip-path="url(#p88e019c86a)" d="M 478.224427 92.437143 
L 511.984946 92.437143 
L 511.984946 11.258912 
L 478.224427 11.258912 
z
" style="fill:#96c69a;fill-opacity:0.5;stroke:#ffffff;stroke-linejoin:miter;stroke-width:2;"/>
   </g>
   <g id="patch_19">
    <path clip-path="url(#p88e019c86a)" d="M 511.984946 92.437143 
L 545.745466 92.437143 
L 545.745466 11.258912 
L 511.984946 11.258912 
z
" style="fill:#96c69a;fill-opacity:0.5;stroke:#ffffff;stroke-linejoin:miter;stroke-width:2;"/>
   </g>
   <g id="patch_20">
    <path d="M 84.914375 92.437143 
L 84.914375 7.2 
" style="fill:none;stroke:#262626;stroke-linecap:square;stroke-linejoin:miter;stroke-width:2.5;"/>
   </g>
   <g id="patch_21">
    <path d="M 84.914375 92.437143 
L 567.689804 92.437143 
" style="fill:none;stroke:#262626;stroke-linecap:square;stroke-linejoin:miter;stroke-width:2.5;"/>
   </g>
  </g>
  <g id="axes_3">
   <g id="patch_22">
    <path d="M 584.337232 603.86 
L 667.574375 603.86 
L 667.574375 109.484571 
L 584.337232 109.484571 
z
" style="fill:none;"/>
   </g>
   <g id="matplotlib.axis_5">
    <g id="xtick_13">
     <g id="text_22">
      <!-- 0 -->
      <g style="fill:#262626;" transform="translate(577.338482 636.076563)scale(0.22 -0.22)">
       <use xlink:href="#DejaVuSans-30"/>
      </g>
     </g>
    </g>
    <g id="xtick_14">
     <g id="text_23">
      <!-- 100 -->
      <g style="fill:#262626;" transform="translate(607.138479 636.076563)scale(0.22 -0.22)">
       <use xlink:href="#DejaVuSans-31"/>
       <use x="63.623047" xlink:href="#DejaVuSans-30"/>
       <use x="127.246094" xlink:href="#DejaVuSans-30"/>
      </g>
     </g>
    </g>
   </g>
   <g id="matplotlib.axis_6">
    <g id="ytick_12"/>
    <g id="ytick_13"/>
    <g id="ytick_14"/>
    <g id="ytick_15"/>
    <g id="ytick_16"/>
    <g id="ytick_17"/>
    <g id="ytick_18"/>
    <g id="ytick_19"/>
    <g id="ytick_20"/>
   </g>
   <g id="patch_23">
    <path clip-path="url(#pb994b3916e)" d="M 584.337232 581.38839 
L 584.775207 581.38839 
L 584.775207 567.769232 
L 584.337232 567.769232 
z
" style="fill:#96c69a;fill-opacity:0.5;stroke:#ffffff;stroke-linejoin:miter;stroke-width:1.361916;"/>
   </g>
   <g id="patch_24">
    <path clip-path="url(#pb994b3916e)" d="M 584.337232 567.769232 
L 584.337232 567.769232 
L 584.337232 554.150074 
L 584.337232 554.150074 
z
" style="fill:#96c69a;fill-opacity:0.5;stroke:#ffffff;stroke-linejoin:miter;stroke-width:1.361916;"/>
   </g>
   <g id="patch_25">
    <path clip-path="url(#pb994b3916e)" d="M 584.337232 554.150074 
L 586.965082 554.150074 
L 586.965082 540.530916 
L 584.337232 540.530916 
z
" style="fill:#96c69a;fill-opacity:0.5;stroke:#ffffff;stroke-linejoin:miter;stroke-width:1.361916;"/>
   </g>
   <g id="patch_26">
    <path clip-path="url(#pb994b3916e)" d="M 584.337232 540.530916 
L 586.527107 540.530916 
L 586.527107 526.911758 
L 584.337232 526.911758 
z
" style="fill:#96c69a;fill-opacity:0.5;stroke:#ffffff;stroke-linejoin:miter;stroke-width:1.361916;"/>
   </g>
   <g id="patch_27">
    <path clip-path="url(#pb994b3916e)" d="M 584.337232 526.911758 
L 593.096732 526.911758 
L 593.096732 513.292601 
L 584.337232 513.292601 
z
" style="fill:#96c69a;fill-opacity:0.5;stroke:#ffffff;stroke-linejoin:miter;stroke-width:1.361916;"/>
   </g>
   <g id="patch_28">
    <path clip-path="url(#pb994b3916e)" d="M 584.337232 513.292601 
L 594.848631 513.292601 
L 594.848631 499.673443 
L 584.337232 499.673443 
z
" style="fill:#96c69a;fill-opacity:0.5;stroke:#ffffff;stroke-linejoin:miter;stroke-width:1.361916;"/>
   </g>
   <g id="patch_29">
    <path clip-path="url(#pb994b3916e)" d="M 584.337232 499.673443 
L 602.732181 499.673443 
L 602.732181 486.054285 
L 584.337232 486.054285 
z
" style="fill:#96c69a;fill-opacity:0.5;stroke:#ffffff;stroke-linejoin:miter;stroke-width:1.361916;"/>
   </g>
   <g id="patch_30">
    <path clip-path="url(#pb994b3916e)" d="M 584.337232 486.054285 
L 604.484081 486.054285 
L 604.484081 472.435127 
L 584.337232 472.435127 
z
" style="fill:#96c69a;fill-opacity:0.5;stroke:#ffffff;stroke-linejoin:miter;stroke-width:1.361916;"/>
   </g>
   <g id="patch_31">
    <path clip-path="url(#pb994b3916e)" d="M 584.337232 472.435127 
L 615.433455 472.435127 
L 615.433455 458.815969 
L 584.337232 458.815969 
z
" style="fill:#96c69a;fill-opacity:0.5;stroke:#ffffff;stroke-linejoin:miter;stroke-width:1.361916;"/>
   </g>
   <g id="patch_32">
    <path clip-path="url(#pb994b3916e)" d="M 584.337232 458.815969 
L 634.266379 458.815969 
L 634.266379 445.196811 
L 584.337232 445.196811 
z
" style="fill:#96c69a;fill-opacity:0.5;stroke:#ffffff;stroke-linejoin:miter;stroke-width:1.361916;"/>
   </g>
   <g id="patch_33">
    <path clip-path="url(#pb994b3916e)" d="M 584.337232 445.196811 
L 651.347402 445.196811 
L 651.347402 431.577654 
L 584.337232 431.577654 
z
" style="fill:#96c69a;fill-opacity:0.5;stroke:#ffffff;stroke-linejoin:miter;stroke-width:1.361916;"/>
   </g>
   <g id="patch_34">
    <path clip-path="url(#pb994b3916e)" d="M 584.337232 431.577654 
L 657.041077 431.577654 
L 657.041077 417.958496 
L 584.337232 417.958496 
z
" style="fill:#96c69a;fill-opacity:0.5;stroke:#ffffff;stroke-linejoin:miter;stroke-width:1.361916;"/>
   </g>
   <g id="patch_35">
    <path clip-path="url(#pb994b3916e)" d="M 584.337232 417.958496 
L 657.917027 417.958496 
L 657.917027 404.339338 
L 584.337232 404.339338 
z
" style="fill:#96c69a;fill-opacity:0.5;stroke:#ffffff;stroke-linejoin:miter;stroke-width:1.361916;"/>
   </g>
   <g id="patch_36">
    <path clip-path="url(#pb994b3916e)" d="M 584.337232 404.339338 
L 661.420827 404.339338 
L 661.420827 390.72018 
L 584.337232 390.72018 
z
" style="fill:#96c69a;fill-opacity:0.5;stroke:#ffffff;stroke-linejoin:miter;stroke-width:1.361916;"/>
   </g>
   <g id="patch_37">
    <path clip-path="url(#pb994b3916e)" d="M 584.337232 390.72018 
L 663.610702 390.72018 
L 663.610702 377.101022 
L 584.337232 377.101022 
z
" style="fill:#96c69a;fill-opacity:0.5;stroke:#ffffff;stroke-linejoin:miter;stroke-width:1.361916;"/>
   </g>
   <g id="patch_38">
    <path clip-path="url(#pb994b3916e)" d="M 584.337232 377.101022 
L 646.967653 377.101022 
L 646.967653 363.481865 
L 584.337232 363.481865 
z
" style="fill:#96c69a;fill-opacity:0.5;stroke:#ffffff;stroke-linejoin:miter;stroke-width:1.361916;"/>
   </g>
   <g id="patch_39">
    <path clip-path="url(#pb994b3916e)" d="M 584.337232 363.481865 
L 639.084103 363.481865 
L 639.084103 349.862707 
L 584.337232 349.862707 
z
" style="fill:#96c69a;fill-opacity:0.5;stroke:#ffffff;stroke-linejoin:miter;stroke-width:1.361916;"/>
   </g>
   <g id="patch_40">
    <path clip-path="url(#pb994b3916e)" d="M 584.337232 349.862707 
L 640.398028 349.862707 
L 640.398028 336.243549 
L 584.337232 336.243549 
z
" style="fill:#96c69a;fill-opacity:0.5;stroke:#ffffff;stroke-linejoin:miter;stroke-width:1.361916;"/>
   </g>
   <g id="patch_41">
    <path clip-path="url(#pb994b3916e)" d="M 584.337232 336.243549 
L 630.762579 336.243549 
L 630.762579 322.624391 
L 584.337232 322.624391 
z
" style="fill:#96c69a;fill-opacity:0.5;stroke:#ffffff;stroke-linejoin:miter;stroke-width:1.361916;"/>
   </g>
   <g id="patch_42">
    <path clip-path="url(#pb994b3916e)" d="M 584.337232 322.624391 
L 622.441054 322.624391 
L 622.441054 309.005233 
L 584.337232 309.005233 
z
" style="fill:#96c69a;fill-opacity:0.5;stroke:#ffffff;stroke-linejoin:miter;stroke-width:1.361916;"/>
   </g>
   <g id="patch_43">
    <path clip-path="url(#pb994b3916e)" d="M 584.337232 309.005233 
L 609.73978 309.005233 
L 609.73978 295.386076 
L 584.337232 295.386076 
z
" style="fill:#96c69a;fill-opacity:0.5;stroke:#ffffff;stroke-linejoin:miter;stroke-width:1.361916;"/>
   </g>
   <g id="patch_44">
    <path clip-path="url(#pb994b3916e)" d="M 584.337232 295.386076 
L 609.73978 295.386076 
L 609.73978 281.766918 
L 584.337232 281.766918 
z
" style="fill:#96c69a;fill-opacity:0.5;stroke:#ffffff;stroke-linejoin:miter;stroke-width:1.361916;"/>
   </g>
   <g id="patch_45">
    <path clip-path="url(#pb994b3916e)" d="M 584.337232 281.766918 
L 600.104331 281.766918 
L 600.104331 268.14776 
L 584.337232 268.14776 
z
" style="fill:#96c69a;fill-opacity:0.5;stroke:#ffffff;stroke-linejoin:miter;stroke-width:1.361916;"/>
   </g>
   <g id="patch_46">
    <path clip-path="url(#pb994b3916e)" d="M 584.337232 268.14776 
L 596.600531 268.14776 
L 596.600531 254.528602 
L 584.337232 254.528602 
z
" style="fill:#96c69a;fill-opacity:0.5;stroke:#ffffff;stroke-linejoin:miter;stroke-width:1.361916;"/>
   </g>
   <g id="patch_47">
    <path clip-path="url(#pb994b3916e)" d="M 584.337232 254.528602 
L 591.782807 254.528602 
L 591.782807 240.909444 
L 584.337232 240.909444 
z
" style="fill:#96c69a;fill-opacity:0.5;stroke:#ffffff;stroke-linejoin:miter;stroke-width:1.361916;"/>
   </g>
   <g id="patch_48">
    <path clip-path="url(#pb994b3916e)" d="M 584.337232 240.909444 
L 591.344832 240.909444 
L 591.344832 227.290287 
L 584.337232 227.290287 
z
" style="fill:#96c69a;fill-opacity:0.5;stroke:#ffffff;stroke-linejoin:miter;stroke-width:1.361916;"/>
   </g>
   <g id="patch_49">
    <path clip-path="url(#pb994b3916e)" d="M 584.337232 227.290287 
L 586.527107 227.290287 
L 586.527107 213.671129 
L 584.337232 213.671129 
z
" style="fill:#96c69a;fill-opacity:0.5;stroke:#ffffff;stroke-linejoin:miter;stroke-width:1.361916;"/>
   </g>
   <g id="patch_50">
    <path clip-path="url(#pb994b3916e)" d="M 584.337232 213.671129 
L 588.279007 213.671129 
L 588.279007 200.051971 
L 584.337232 200.051971 
z
" style="fill:#96c69a;fill-opacity:0.5;stroke:#ffffff;stroke-linejoin:miter;stroke-width:1.361916;"/>
   </g>
   <g id="patch_51">
    <path clip-path="url(#pb994b3916e)" d="M 584.337232 200.051971 
L 586.089132 200.051971 
L 586.089132 186.432813 
L 584.337232 186.432813 
z
" style="fill:#96c69a;fill-opacity:0.5;stroke:#ffffff;stroke-linejoin:miter;stroke-width:1.361916;"/>
   </g>
   <g id="patch_52">
    <path clip-path="url(#pb994b3916e)" d="M 584.337232 186.432813 
L 586.089132 186.432813 
L 586.089132 172.813655 
L 584.337232 172.813655 
z
" style="fill:#96c69a;fill-opacity:0.5;stroke:#ffffff;stroke-linejoin:miter;stroke-width:1.361916;"/>
   </g>
   <g id="patch_53">
    <path clip-path="url(#pb994b3916e)" d="M 584.337232 172.813655 
L 584.337232 172.813655 
L 584.337232 159.194497 
L 584.337232 159.194497 
z
" style="fill:#96c69a;fill-opacity:0.5;stroke:#ffffff;stroke-linejoin:miter;stroke-width:1.361916;"/>
   </g>
   <g id="patch_54">
    <path clip-path="url(#pb994b3916e)" d="M 584.337232 159.194497 
L 584.775207 159.194497 
L 584.775207 145.57534 
L 584.337232 145.57534 
z
" style="fill:#96c69a;fill-opacity:0.5;stroke:#ffffff;stroke-linejoin:miter;stroke-width:1.361916;"/>
   </g>
   <g id="patch_55">
    <path clip-path="url(#pb994b3916e)" d="M 584.337232 145.57534 
L 585.213182 145.57534 
L 585.213182 131.956182 
L 584.337232 131.956182 
z
" style="fill:#96c69a;fill-opacity:0.5;stroke:#ffffff;stroke-linejoin:miter;stroke-width:1.361916;"/>
   </g>
   <g id="patch_56">
    <path d="M 584.337232 603.86 
L 584.337232 109.484571 
" style="fill:none;stroke:#262626;stroke-linecap:square;stroke-linejoin:miter;stroke-width:2.5;"/>
   </g>
   <g id="patch_57">
    <path d="M 584.337232 603.86 
L 667.574375 603.86 
" style="fill:none;stroke:#262626;stroke-linecap:square;stroke-linejoin:miter;stroke-width:2.5;"/>
   </g>
  </g>
 </g>
 <defs>
  <clipPath id="p630307935f">
   <rect height="494.375429" width="482.775429" x="84.914375" y="109.484571"/>
  </clipPath>
  <clipPath id="p88e019c86a">
   <rect height="85.237143" width="482.775429" x="84.914375" y="7.2"/>
  </clipPath>
  <clipPath id="pb994b3916e">
   <rect height="494.375429" width="83.237143" x="584.337232" y="109.484571"/>
  </clipPath>
 </defs>
</svg>
