<?xml version="1.0" encoding="utf-8" standalone="no"?>
<!DOCTYPE svg PUBLIC "-//W3C//DTD SVG 1.1//EN"
  "http://www.w3.org/Graphics/SVG/1.1/DTD/svg11.dtd">
<svg height="675.079375pt" version="1.1" viewBox="0 0 674.774375 675.079375" width="674.774375pt" xmlns="http://www.w3.org/2000/svg" xmlns:xlink="http://www.w3.org/1999/xlink">
 <metadata>
  <rdf:RDF xmlns:cc="http://creativecommons.org/ns#" xmlns:dc="http://purl.org/dc/elements/1.1/" xmlns:rdf="http://www.w3.org/1999/02/22-rdf-syntax-ns#">
   <cc:Work>
    <dc:type rdf:resource="http://purl.org/dc/dcmitype/StillImage"/>
    <dc:date>2021-07-16T21:43:52.789754</dc:date>
    <dc:format>image/svg+xml</dc:format>
    <dc:creator>
     <cc:Agent>
      <dc:title>Matplotlib v3.4.2, https://matplotlib.org/</dc:title>
     </cc:Agent>
    </dc:creator>
   </cc:Work>
  </rdf:RDF>
 </metadata>
 <defs>
  <style type="text/css">*{stroke-linecap:butt;stroke-linejoin:round;}</style>
 </defs>
 <g id="figure_1">
  <g id="patch_1">
   <path d="M 0 675.079375 
L 674.774375 675.079375 
L 674.774375 0 
L 0 0 
z
" style="fill:#ffffff;"/>
  </g>
  <g id="axes_1">
   <g id="patch_2">
    <path d="M 84.914375 603.86 
L 567.689804 603.86 
L 567.689804 109.484571 
L 84.914375 109.484571 
z
" style="fill:none;"/>
   </g>
   <g id="matplotlib.axis_1">
    <g id="xtick_1">
     <g id="text_1">
      <!-- 0 -->
      <g style="fill:#262626;" transform="translate(99.64041 636.076563)scale(0.22 -0.22)">
       <defs>
        <path d="M 2034 4250 
Q 1547 4250 1301 3770 
Q 1056 3291 1056 2328 
Q 1056 1369 1301 889 
Q 1547 409 2034 409 
Q 2525 409 2770 889 
Q 3016 1369 3016 2328 
Q 3016 3291 2770 3770 
Q 2525 4250 2034 4250 
z
M 2034 4750 
Q 2819 4750 3233 4129 
Q 3647 3509 3647 2328 
Q 3647 1150 3233 529 
Q 2819 -91 2034 -91 
Q 1250 -91 836 529 
Q 422 1150 422 2328 
Q 422 3509 836 4129 
Q 1250 4750 2034 4750 
z
" id="DejaVuSans-30" transform="scale(0.015625)"/>
       </defs>
       <use xlink:href="#DejaVuSans-30"/>
      </g>
     </g>
    </g>
    <g id="xtick_2">
     <g id="text_2">
      <!-- 20000 -->
      <g style="fill:#262626;" transform="translate(159.466671 636.076563)scale(0.22 -0.22)">
       <defs>
        <path d="M 1228 531 
L 3431 531 
L 3431 0 
L 469 0 
L 469 531 
Q 828 903 1448 1529 
Q 2069 2156 2228 2338 
Q 2531 2678 2651 2914 
Q 2772 3150 2772 3378 
Q 2772 3750 2511 3984 
Q 2250 4219 1831 4219 
Q 1534 4219 1204 4116 
Q 875 4013 500 3803 
L 500 4441 
Q 881 4594 1212 4672 
Q 1544 4750 1819 4750 
Q 2544 4750 2975 4387 
Q 3406 4025 3406 3419 
Q 3406 3131 3298 2873 
Q 3191 2616 2906 2266 
Q 2828 2175 2409 1742 
Q 1991 1309 1228 531 
z
" id="DejaVuSans-32" transform="scale(0.015625)"/>
       </defs>
       <use xlink:href="#DejaVuSans-32"/>
       <use x="63.623047" xlink:href="#DejaVuSans-30"/>
       <use x="127.246094" xlink:href="#DejaVuSans-30"/>
       <use x="190.869141" xlink:href="#DejaVuSans-30"/>
       <use x="254.492188" xlink:href="#DejaVuSans-30"/>
      </g>
     </g>
    </g>
    <g id="xtick_3">
     <g id="text_3">
      <!-- 40000 -->
      <g style="fill:#262626;" transform="translate(247.287932 636.076563)scale(0.22 -0.22)">
       <defs>
        <path d="M 2419 4116 
L 825 1625 
L 2419 1625 
L 2419 4116 
z
M 2253 4666 
L 3047 4666 
L 3047 1625 
L 3713 1625 
L 3713 1100 
L 3047 1100 
L 3047 0 
L 2419 0 
L 2419 1100 
L 313 1100 
L 313 1709 
L 2253 4666 
z
" id="DejaVuSans-34" transform="scale(0.015625)"/>
       </defs>
       <use xlink:href="#DejaVuSans-34"/>
       <use x="63.623047" xlink:href="#DejaVuSans-30"/>
       <use x="127.246094" xlink:href="#DejaVuSans-30"/>
       <use x="190.869141" xlink:href="#DejaVuSans-30"/>
       <use x="254.492188" xlink:href="#DejaVuSans-30"/>
      </g>
     </g>
    </g>
    <g id="xtick_4">
     <g id="text_4">
      <!-- 60000 -->
      <g style="fill:#262626;" transform="translate(335.109193 636.076563)scale(0.22 -0.22)">
       <defs>
        <path d="M 2113 2584 
Q 1688 2584 1439 2293 
Q 1191 2003 1191 1497 
Q 1191 994 1439 701 
Q 1688 409 2113 409 
Q 2538 409 2786 701 
Q 3034 994 3034 1497 
Q 3034 2003 2786 2293 
Q 2538 2584 2113 2584 
z
M 3366 4563 
L 3366 3988 
Q 3128 4100 2886 4159 
Q 2644 4219 2406 4219 
Q 1781 4219 1451 3797 
Q 1122 3375 1075 2522 
Q 1259 2794 1537 2939 
Q 1816 3084 2150 3084 
Q 2853 3084 3261 2657 
Q 3669 2231 3669 1497 
Q 3669 778 3244 343 
Q 2819 -91 2113 -91 
Q 1303 -91 875 529 
Q 447 1150 447 2328 
Q 447 3434 972 4092 
Q 1497 4750 2381 4750 
Q 2619 4750 2861 4703 
Q 3103 4656 3366 4563 
z
" id="DejaVuSans-36" transform="scale(0.015625)"/>
       </defs>
       <use xlink:href="#DejaVuSans-36"/>
       <use x="63.623047" xlink:href="#DejaVuSans-30"/>
       <use x="127.246094" xlink:href="#DejaVuSans-30"/>
       <use x="190.869141" xlink:href="#DejaVuSans-30"/>
       <use x="254.492188" xlink:href="#DejaVuSans-30"/>
      </g>
     </g>
    </g>
    <g id="xtick_5">
     <g id="text_5">
      <!-- 80000 -->
      <g style="fill:#262626;" transform="translate(422.930455 636.076563)scale(0.22 -0.22)">
       <defs>
        <path d="M 2034 2216 
Q 1584 2216 1326 1975 
Q 1069 1734 1069 1313 
Q 1069 891 1326 650 
Q 1584 409 2034 409 
Q 2484 409 2743 651 
Q 3003 894 3003 1313 
Q 3003 1734 2745 1975 
Q 2488 2216 2034 2216 
z
M 1403 2484 
Q 997 2584 770 2862 
Q 544 3141 544 3541 
Q 544 4100 942 4425 
Q 1341 4750 2034 4750 
Q 2731 4750 3128 4425 
Q 3525 4100 3525 3541 
Q 3525 3141 3298 2862 
Q 3072 2584 2669 2484 
Q 3125 2378 3379 2068 
Q 3634 1759 3634 1313 
Q 3634 634 3220 271 
Q 2806 -91 2034 -91 
Q 1263 -91 848 271 
Q 434 634 434 1313 
Q 434 1759 690 2068 
Q 947 2378 1403 2484 
z
M 1172 3481 
Q 1172 3119 1398 2916 
Q 1625 2713 2034 2713 
Q 2441 2713 2670 2916 
Q 2900 3119 2900 3481 
Q 2900 3844 2670 4047 
Q 2441 4250 2034 4250 
Q 1625 4250 1398 4047 
Q 1172 3844 1172 3481 
z
" id="DejaVuSans-38" transform="scale(0.015625)"/>
       </defs>
       <use xlink:href="#DejaVuSans-38"/>
       <use x="63.623047" xlink:href="#DejaVuSans-30"/>
       <use x="127.246094" xlink:href="#DejaVuSans-30"/>
       <use x="190.869141" xlink:href="#DejaVuSans-30"/>
       <use x="254.492188" xlink:href="#DejaVuSans-30"/>
      </g>
     </g>
    </g>
    <g id="xtick_6">
     <g id="text_6">
      <!-- 100000 -->
      <g style="fill:#262626;" transform="translate(503.752966 636.076563)scale(0.22 -0.22)">
       <defs>
        <path d="M 794 531 
L 1825 531 
L 1825 4091 
L 703 3866 
L 703 4441 
L 1819 4666 
L 2450 4666 
L 2450 531 
L 3481 531 
L 3481 0 
L 794 0 
L 794 531 
z
" id="DejaVuSans-31" transform="scale(0.015625)"/>
       </defs>
       <use xlink:href="#DejaVuSans-31"/>
       <use x="63.623047" xlink:href="#DejaVuSans-30"/>
       <use x="127.246094" xlink:href="#DejaVuSans-30"/>
       <use x="190.869141" xlink:href="#DejaVuSans-30"/>
       <use x="254.492188" xlink:href="#DejaVuSans-30"/>
       <use x="318.115234" xlink:href="#DejaVuSans-30"/>
      </g>
     </g>
    </g>
    <g id="text_7">
     <!-- MDTU -->
     <g style="fill:#262626;" transform="translate(290.596464 662.888125)scale(0.24 -0.24)">
      <defs>
       <path d="M 628 4666 
L 1569 4666 
L 2759 1491 
L 3956 4666 
L 4897 4666 
L 4897 0 
L 4281 0 
L 4281 4097 
L 3078 897 
L 2444 897 
L 1241 4097 
L 1241 0 
L 628 0 
L 628 4666 
z
" id="DejaVuSans-4d" transform="scale(0.015625)"/>
       <path d="M 1259 4147 
L 1259 519 
L 2022 519 
Q 2988 519 3436 956 
Q 3884 1394 3884 2338 
Q 3884 3275 3436 3711 
Q 2988 4147 2022 4147 
L 1259 4147 
z
M 628 4666 
L 1925 4666 
Q 3281 4666 3915 4102 
Q 4550 3538 4550 2338 
Q 4550 1131 3912 565 
Q 3275 0 1925 0 
L 628 0 
L 628 4666 
z
" id="DejaVuSans-44" transform="scale(0.015625)"/>
       <path d="M -19 4666 
L 3928 4666 
L 3928 4134 
L 2272 4134 
L 2272 0 
L 1638 0 
L 1638 4134 
L -19 4134 
L -19 4666 
z
" id="DejaVuSans-54" transform="scale(0.015625)"/>
       <path d="M 556 4666 
L 1191 4666 
L 1191 1831 
Q 1191 1081 1462 751 
Q 1734 422 2344 422 
Q 2950 422 3222 751 
Q 3494 1081 3494 1831 
L 3494 4666 
L 4128 4666 
L 4128 1753 
Q 4128 841 3676 375 
Q 3225 -91 2344 -91 
Q 1459 -91 1007 375 
Q 556 841 556 1753 
L 556 4666 
z
" id="DejaVuSans-55" transform="scale(0.015625)"/>
      </defs>
      <use xlink:href="#DejaVuSans-4d"/>
      <use x="86.279297" xlink:href="#DejaVuSans-44"/>
      <use x="163.28125" xlink:href="#DejaVuSans-54"/>
      <use x="224.365234" xlink:href="#DejaVuSans-55"/>
     </g>
    </g>
   </g>
   <g id="matplotlib.axis_2">
    <g id="ytick_1">
     <g id="text_8">
      <!-- 0.2 -->
      <g style="fill:#262626;" transform="translate(34.4275 603.368782)scale(0.22 -0.22)">
       <defs>
        <path d="M 684 794 
L 1344 794 
L 1344 0 
L 684 0 
L 684 794 
z
" id="DejaVuSans-2e" transform="scale(0.015625)"/>
       </defs>
       <use xlink:href="#DejaVuSans-30"/>
       <use x="63.623047" xlink:href="#DejaVuSans-2e"/>
       <use x="95.410156" xlink:href="#DejaVuSans-32"/>
      </g>
     </g>
    </g>
    <g id="ytick_2">
     <g id="text_9">
      <!-- 0.4 -->
      <g style="fill:#262626;" transform="translate(34.4275 534.718213)scale(0.22 -0.22)">
       <use xlink:href="#DejaVuSans-30"/>
       <use x="63.623047" xlink:href="#DejaVuSans-2e"/>
       <use x="95.410156" xlink:href="#DejaVuSans-34"/>
      </g>
     </g>
    </g>
    <g id="ytick_3">
     <g id="text_10">
      <!-- 0.6 -->
      <g style="fill:#262626;" transform="translate(34.4275 466.067645)scale(0.22 -0.22)">
       <use xlink:href="#DejaVuSans-30"/>
       <use x="63.623047" xlink:href="#DejaVuSans-2e"/>
       <use x="95.410156" xlink:href="#DejaVuSans-36"/>
      </g>
     </g>
    </g>
    <g id="ytick_4">
     <g id="text_11">
      <!-- 0.8 -->
      <g style="fill:#262626;" transform="translate(34.4275 397.417076)scale(0.22 -0.22)">
       <use xlink:href="#DejaVuSans-30"/>
       <use x="63.623047" xlink:href="#DejaVuSans-2e"/>
       <use x="95.410156" xlink:href="#DejaVuSans-38"/>
      </g>
     </g>
    </g>
    <g id="ytick_5">
     <g id="text_12">
      <!-- 1.0 -->
      <g style="fill:#262626;" transform="translate(34.4275 328.766507)scale(0.22 -0.22)">
       <use xlink:href="#DejaVuSans-31"/>
       <use x="63.623047" xlink:href="#DejaVuSans-2e"/>
       <use x="95.410156" xlink:href="#DejaVuSans-30"/>
      </g>
     </g>
    </g>
    <g id="ytick_6">
     <g id="text_13">
      <!-- 1.2 -->
      <g style="fill:#262626;" transform="translate(34.4275 260.115938)scale(0.22 -0.22)">
       <use xlink:href="#DejaVuSans-31"/>
       <use x="63.623047" xlink:href="#DejaVuSans-2e"/>
       <use x="95.410156" xlink:href="#DejaVuSans-32"/>
      </g>
     </g>
    </g>
    <g id="ytick_7">
     <g id="text_14">
      <!-- 1.4 -->
      <g style="fill:#262626;" transform="translate(34.4275 191.465369)scale(0.22 -0.22)">
       <use xlink:href="#DejaVuSans-31"/>
       <use x="63.623047" xlink:href="#DejaVuSans-2e"/>
       <use x="95.410156" xlink:href="#DejaVuSans-34"/>
      </g>
     </g>
    </g>
    <g id="ytick_8">
     <g id="text_15">
      <!-- 1.6 -->
      <g style="fill:#262626;" transform="translate(34.4275 122.814801)scale(0.22 -0.22)">
       <use xlink:href="#DejaVuSans-31"/>
       <use x="63.623047" xlink:href="#DejaVuSans-2e"/>
       <use x="95.410156" xlink:href="#DejaVuSans-36"/>
      </g>
     </g>
    </g>
    <g id="text_16">
     <!-- $E$ -->
     <g style="fill:#262626;" transform="translate(25.43625 364.352286)rotate(-90)scale(0.24 -0.24)">
      <defs>
       <path d="M 1081 4666 
L 4031 4666 
L 3928 4134 
L 1606 4134 
L 1338 2753 
L 3566 2753 
L 3463 2222 
L 1234 2222 
L 909 531 
L 3284 531 
L 3181 0 
L 172 0 
L 1081 4666 
z
" id="DejaVuSans-Oblique-45" transform="scale(0.015625)"/>
      </defs>
      <use transform="translate(0 0.09375)" xlink:href="#DejaVuSans-Oblique-45"/>
     </g>
    </g>
   </g>
   <g id="line2d_1">
    <path clip-path="url(#p3454e45fa5)" d="M 106.858713 497.744484 
L 107.078266 489.272976 
L 107.297819 488.286546 
L 107.736925 337.908376 
L 107.956478 477.73908 
L 108.176032 380.378227 
L 108.395585 456.27699 
L 108.615138 468.414894 
L 108.834691 489.323718 
L 109.054244 449.49839 
L 109.273797 337.990731 
L 109.493351 420.029405 
L 109.712904 426.535735 
L 109.932457 425.500263 
L 110.15201 377.280896 
L 110.371563 497.802412 
L 110.591116 379.021431 
L 110.810669 477.438039 
L 111.030223 444.639877 
L 111.469329 535.305199 
L 111.688882 420.836655 
L 111.908435 482.902942 
L 112.127988 418.157105 
L 112.347541 521.291162 
L 112.567095 498.610446 
L 112.786648 418.375068 
L 113.006201 496.0539 
L 113.225754 451.329239 
L 113.445307 494.967493 
L 113.66486 390.105151 
L 113.884414 472.412506 
L 114.103967 461.84944 
L 114.32352 415.322814 
L 114.543073 528.064221 
L 114.762626 468.994362 
L 114.982179 360.111301 
L 115.421286 441.299115 
L 115.640839 392.02243 
L 115.860392 475.97204 
L 116.079945 435.603099 
L 116.519051 489.528829 
L 116.958158 416.525823 
L 117.177711 324.020806 
L 117.397264 414.545208 
L 117.616817 396.626018 
L 117.83637 512.667508 
L 118.055923 531.607828 
L 118.275477 487.719163 
L 118.49503 494.57068 
L 118.714583 397.121335 
L 118.934136 434.606869 
L 119.153689 349.58894 
L 119.373242 491.479027 
L 119.592796 441.168101 
L 119.812349 521.571341 
L 120.251455 475.679637 
L 120.471008 507.690681 
L 120.690561 487.92878 
L 120.910114 431.290186 
L 121.129668 477.872629 
L 121.349221 399.271055 
L 121.568774 516.32609 
L 121.788327 382.175202 
L 122.00788 399.527843 
L 122.227433 499.430575 
L 122.446987 415.091502 
L 122.66654 523.00271 
L 122.886093 440.310426 
L 123.105646 419.337387 
L 123.325199 433.68642 
L 123.544752 425.002322 
L 123.764305 507.848898 
L 123.983859 493.592635 
L 124.422965 381.170323 
L 124.642518 494.820551 
L 125.081624 426.279836 
L 125.301178 431.29564 
L 125.520731 408.553589 
L 125.740284 422.782077 
L 125.959837 498.589032 
L 126.17939 484.685787 
L 126.398943 451.210116 
L 126.618496 496.79526 
L 126.83805 462.983242 
L 127.057603 448.907792 
L 127.277156 406.435178 
L 127.496709 406.040303 
L 127.716262 445.170895 
L 127.935815 440.029305 
L 128.155369 530.661932 
L 128.374922 407.788644 
L 128.594475 468.479023 
L 129.033581 397.374458 
L 129.253134 384.326983 
L 129.472687 392.422638 
L 129.911794 498.277785 
L 130.131347 503.5747 
L 130.3509 442.272662 
L 130.570453 492.776596 
L 130.790006 465.018218 
L 131.00956 322.549174 
L 131.229113 483.951796 
L 131.448666 539.940756 
L 131.668219 401.218499 
L 131.887772 480.532489 
L 132.107325 445.982079 
L 132.326878 365.843732 
L 132.546432 391.171944 
L 132.765985 471.616028 
L 132.985538 439.721076 
L 133.205091 486.791604 
L 133.424644 472.595086 
L 133.644197 508.48848 
L 133.863751 448.216151 
L 134.083304 514.318592 
L 134.302857 414.899605 
L 134.52241 453.840212 
L 134.741963 375.194195 
L 134.961516 441.399304 
L 135.181069 433.131105 
L 135.400623 481.459787 
L 135.620176 474.206161 
L 135.839729 425.347155 
L 136.059282 443.864608 
L 136.278835 381.128194 
L 136.498388 419.070645 
L 136.717941 523.986907 
L 137.157048 445.29575 
L 137.376601 443.852313 
L 137.596154 423.677814 
L 137.815707 499.719491 
L 138.03526 455.159797 
L 138.254814 442.559873 
L 138.474367 437.520215 
L 138.69392 533.813432 
L 138.913473 235.261824 
L 139.133026 492.725228 
L 139.352579 494.092939 
L 139.572132 434.552573 
L 139.791686 412.366813 
L 140.011239 491.296346 
L 140.230792 380.355446 
L 140.450345 443.190111 
L 140.669898 370.252411 
L 140.889451 371.543986 
L 141.109005 442.52825 
L 141.328558 256.501277 
L 141.548111 406.618148 
L 141.767664 428.553439 
L 141.987217 422.124758 
L 142.20677 478.641548 
L 142.426323 492.004755 
L 142.645877 490.120295 
L 142.86543 518.43989 
L 143.084983 335.925682 
L 143.304536 457.59411 
L 143.524089 450.978921 
L 143.743642 378.382908 
L 143.963196 409.185339 
L 144.182749 518.7233 
L 144.402302 381.624915 
L 144.621855 402.638291 
L 144.841408 468.597516 
L 145.060961 423.424033 
L 145.280514 480.222171 
L 145.500068 360.642381 
L 145.719621 437.927336 
L 145.939174 356.000329 
L 146.158727 435.60078 
L 146.37828 419.953158 
L 146.597833 323.57217 
L 146.817387 527.737708 
L 147.03694 363.945114 
L 147.256493 435.896204 
L 147.476046 426.142749 
L 147.695599 528.330586 
L 147.915152 489.142744 
L 148.134705 380.808846 
L 148.354259 474.578811 
L 148.573812 498.130285 
L 148.793365 535.239199 
L 149.012918 478.997027 
L 149.232471 558.085529 
L 149.452024 480.855149 
L 149.671578 451.955503 
L 149.891131 369.119819 
L 150.110684 467.641842 
L 150.330237 469.637866 
L 150.54979 355.858782 
L 150.769343 445.369337 
L 151.20845 490.882146 
L 151.428003 503.208493 
L 151.647556 391.986395 
L 151.867109 437.522956 
L 152.086662 529.346587 
L 152.306215 408.913919 
L 152.525769 533.248444 
L 152.745322 505.174464 
L 152.964875 341.453067 
L 153.184428 398.776273 
L 153.403981 512.460159 
L 153.623534 521.825771 
L 153.843087 472.780629 
L 154.062641 451.777589 
L 154.282194 402.277468 
L 154.501747 402.878231 
L 154.7213 505.179727 
L 154.940853 479.123039 
L 155.160406 384.213847 
L 155.37996 427.990261 
L 155.599513 423.465591 
L 155.819066 521.606357 
L 156.038619 333.521013 
L 156.258172 492.814079 
L 156.477725 470.787465 
L 156.697278 389.776694 
L 156.916832 459.226895 
L 157.136385 287.425938 
L 157.355938 445.975618 
L 157.575491 453.495391 
L 157.795044 435.828982 
L 158.014597 340.530568 
L 158.234151 519.161074 
L 158.453704 430.971141 
L 158.673257 433.566725 
L 158.89281 434.439359 
L 159.112363 328.630173 
L 159.331916 484.594122 
L 159.551469 430.539219 
L 159.771023 489.49603 
L 159.990576 470.688184 
L 160.210129 505.200631 
L 160.429682 485.108325 
L 160.649235 340.145869 
L 161.088342 466.737465 
L 161.307895 454.160802 
L 161.527448 462.358548 
L 161.747001 476.266665 
L 161.966554 519.081512 
L 162.186107 504.969477 
L 162.40566 539.150358 
L 162.625214 453.963722 
L 162.844767 458.48805 
L 163.06432 326.801263 
L 163.283873 470.896036 
L 163.503426 513.208393 
L 163.722979 485.13123 
L 163.942532 279.329561 
L 164.381639 452.147085 
L 164.601192 470.681266 
L 164.820745 444.011727 
L 165.040298 513.150294 
L 165.259851 443.962989 
L 165.479405 466.966451 
L 165.698958 371.485844 
L 165.918511 430.918296 
L 166.138064 522.667106 
L 166.357617 454.807046 
L 166.57717 512.155394 
L 166.796723 378.413935 
L 167.016277 376.630123 
L 167.23583 415.145568 
L 167.455383 483.506139 
L 167.674936 441.040182 
L 167.894489 481.061354 
L 168.114042 390.438895 
L 168.333596 428.203037 
L 168.553149 422.305592 
L 168.772702 395.726413 
L 168.992255 471.782524 
L 169.211808 315.939008 
L 169.431361 458.513517 
L 169.650914 367.663848 
L 169.870468 510.991247 
L 170.090021 444.286987 
L 170.309574 452.216026 
L 170.529127 382.151824 
L 170.74868 503.576826 
L 170.968233 491.071189 
L 171.187787 449.464795 
L 171.40734 430.84515 
L 171.626893 531.94498 
L 172.065999 350.229218 
L 172.285552 463.500046 
L 172.505105 447.305032 
L 172.724659 461.412749 
L 172.944212 371.265307 
L 173.383318 500.695975 
L 173.602871 386.62778 
L 173.822424 486.959455 
L 174.041978 477.780025 
L 174.261531 522.615935 
L 174.481084 520.683175 
L 174.700637 438.452545 
L 174.92019 478.89518 
L 175.139743 423.88061 
L 175.359296 472.827736 
L 175.57885 446.119157 
L 175.798403 486.544356 
L 176.017956 492.873224 
L 176.237509 551.079166 
L 176.457062 497.536231 
L 176.676615 481.414476 
L 176.896169 340.660756 
L 177.115722 543.43499 
L 177.554828 392.629474 
L 177.774381 359.48988 
L 177.993934 495.458658 
L 178.213487 493.767554 
L 178.433041 331.651366 
L 178.652594 436.335414 
L 179.0917 477.291603 
L 179.311253 497.182713 
L 179.530806 375.187132 
L 179.75036 478.01072 
L 179.969913 468.554946 
L 180.409019 487.424287 
L 180.628572 377.633676 
L 181.067678 504.794935 
L 181.287232 417.589899 
L 181.506785 480.426525 
L 181.726338 487.628128 
L 181.945891 432.815911 
L 182.165444 473.219346 
L 182.384997 357.316062 
L 182.824104 514.128106 
L 183.043657 357.481457 
L 183.26321 441.664616 
L 183.482763 421.510073 
L 183.702316 436.034235 
L 183.921869 401.685419 
L 184.360976 581.38839 
L 184.580529 397.763988 
L 184.800082 362.12284 
L 185.019635 369.983334 
L 185.239188 386.472638 
L 185.458742 478.061327 
L 185.678295 392.525908 
L 185.897848 518.928778 
L 186.117401 479.340447 
L 186.336954 412.147426 
L 186.556507 541.775485 
L 186.77606 446.169643 
L 186.995614 467.986454 
L 187.215167 466.434334 
L 187.43472 517.736381 
L 187.654273 430.453142 
L 187.873826 446.172731 
L 188.093379 393.462652 
L 188.312932 438.943786 
L 188.532486 408.137274 
L 188.752039 555.85514 
L 188.971592 447.203189 
L 189.191145 467.189301 
L 189.410698 373.61329 
L 189.630251 486.511511 
L 189.849805 436.690507 
L 190.069358 497.413718 
L 190.288911 471.910318 
L 190.508464 355.583864 
L 190.728017 450.800214 
L 190.94757 440.266481 
L 191.167123 417.392604 
L 191.386677 430.732332 
L 191.60623 491.324601 
L 191.825783 374.020212 
L 192.045336 323.54401 
L 192.264889 450.272777 
L 192.484442 401.443997 
L 192.703996 465.541335 
L 193.143102 496.845815 
L 193.582208 405.96008 
L 193.801761 524.437215 
L 194.021314 486.953842 
L 194.240868 480.547612 
L 194.460421 424.928976 
L 194.679974 421.359295 
L 195.11908 512.717988 
L 195.338633 434.372006 
L 195.558187 420.989708 
L 195.77774 437.864669 
L 195.997293 518.209961 
L 196.436399 449.270912 
L 196.655952 449.923455 
L 196.875505 447.396765 
L 197.095059 416.318535 
L 197.314612 456.68568 
L 197.534165 521.29056 
L 197.753718 358.959624 
L 197.973271 467.824928 
L 198.192824 488.861694 
L 198.412378 299.322652 
L 198.851484 366.699447 
L 199.071037 461.334761 
L 199.29059 446.481254 
L 199.510143 379.185608 
L 199.729696 488.854268 
L 200.168803 339.343697 
L 200.388356 462.237955 
L 200.827462 540.304715 
L 201.047015 438.142716 
L 201.266569 457.184534 
L 201.486122 408.255103 
L 201.705675 452.779655 
L 201.925228 405.349827 
L 202.144781 392.533307 
L 202.364334 496.51153 
L 202.583887 379.208065 
L 202.803441 532.090465 
L 203.022994 435.028973 
L 203.242547 496.655111 
L 203.4621 415.73483 
L 203.681653 182.53871 
L 203.901206 461.781902 
L 204.12076 445.051215 
L 204.340313 512.631193 
L 204.559866 467.138978 
L 204.779419 451.098979 
L 204.998972 494.92436 
L 205.218525 452.524747 
L 205.438078 473.508872 
L 205.657632 327.12033 
L 205.877185 397.588318 
L 206.535844 474.65749 
L 206.755397 413.406968 
L 206.974951 504.043478 
L 207.194504 532.856417 
L 207.414057 511.081411 
L 207.63361 467.609244 
L 207.853163 520.347113 
L 208.072716 382.1921 
L 208.292269 390.397265 
L 208.511823 498.02041 
L 208.731376 368.634403 
L 209.170482 540.987377 
L 209.609588 397.078767 
L 210.048695 459.130251 
L 210.268248 461.543838 
L 210.487801 469.306103 
L 210.707354 392.421936 
L 210.926907 521.746499 
L 211.14646 530.404557 
L 211.366014 446.221041 
L 211.585567 419.574767 
L 211.80512 361.353724 
L 212.024673 481.514008 
L 212.244226 436.578803 
L 212.463779 475.265763 
L 212.683333 434.315406 
L 212.902886 352.118157 
L 213.122439 511.765122 
L 213.341992 483.856361 
L 213.561545 499.745334 
L 214.000651 333.152111 
L 214.220205 446.846659 
L 214.659311 535.223123 
L 214.878864 486.107515 
L 215.098417 497.977133 
L 215.31797 388.379885 
L 215.537523 526.98166 
L 215.757077 524.663602 
L 215.97663 435.526934 
L 216.196183 524.671177 
L 216.415736 524.478831 
L 216.635289 469.683393 
L 216.854842 252.562105 
L 217.074396 479.604304 
L 217.513502 329.18844 
L 217.733055 438.977113 
L 217.952608 325.212183 
L 218.172161 485.991872 
L 218.391714 448.141401 
L 218.611268 312.14233 
L 218.830821 427.826431 
L 219.050374 422.094794 
L 219.269927 548.659285 
L 219.48948 364.476577 
L 219.709033 467.92019 
L 219.928587 506.298731 
L 220.367693 423.0356 
L 220.587246 506.820559 
L 220.806799 361.408733 
L 221.026352 512.015512 
L 221.245905 330.945332 
L 221.465459 468.766199 
L 221.685012 415.007055 
L 221.904565 475.231193 
L 222.124118 362.118563 
L 222.343671 348.27909 
L 222.563224 510.582868 
L 222.782778 403.17952 
L 223.002331 399.634671 
L 223.221884 389.629195 
L 223.441437 491.229751 
L 223.66099 498.942876 
L 223.880543 451.693254 
L 224.100096 456.603669 
L 224.31965 383.637009 
L 224.539203 487.192474 
L 224.758756 462.720651 
L 224.978309 514.16391 
L 225.197862 379.677032 
L 225.417415 488.224103 
L 226.076075 509.466998 
L 226.515181 378.17351 
L 226.734734 442.331612 
L 226.954287 448.283136 
L 227.173841 396.613158 
L 227.393394 455.141086 
L 227.612947 451.391029 
L 227.8325 424.88292 
L 228.052053 502.528013 
L 228.271606 350.955928 
L 228.49116 358.392092 
L 228.710713 476.088066 
L 228.930266 486.379773 
L 229.149819 502.803983 
L 229.369372 573.572441 
L 229.588925 393.432361 
L 230.028032 537.774458 
L 230.247585 487.041161 
L 230.467138 495.859145 
L 230.686691 442.029935 
L 230.906244 462.754083 
L 231.125797 464.251489 
L 231.345351 439.808553 
L 231.564904 502.392674 
L 231.784457 472.156464 
L 232.00401 418.444511 
L 232.223563 472.55922 
L 232.443116 499.041653 
L 232.662669 388.248751 
L 232.882223 518.928231 
L 233.101776 422.917444 
L 233.321329 475.014417 
L 233.540882 450.727133 
L 233.760435 468.761402 
L 233.979988 431.617822 
L 234.199542 455.262238 
L 234.419095 409.16456 
L 234.638648 332.364225 
L 234.858201 371.476105 
L 235.077754 462.921784 
L 235.297307 420.192177 
L 235.51686 461.882281 
L 235.736414 341.904439 
L 235.955967 450.601159 
L 236.17552 449.307653 
L 236.395073 408.851454 
L 236.614626 509.035737 
L 236.834179 454.184537 
L 237.053733 452.944282 
L 237.273286 481.353083 
L 237.492839 340.769992 
L 237.712392 516.250193 
L 237.931945 489.312178 
L 238.151498 482.905649 
L 238.371051 271.716304 
L 238.590605 446.90435 
L 238.810158 405.586477 
L 239.249264 480.469556 
L 239.468817 395.593371 
L 239.68837 545.07275 
L 240.127477 394.268534 
L 240.34703 486.595599 
L 240.566583 484.996885 
L 241.005689 300.971576 
L 241.225242 384.25104 
L 241.444796 523.687807 
L 241.664349 444.276608 
L 241.883902 454.868214 
L 242.103455 363.690571 
L 242.323008 495.816181 
L 242.542561 410.072244 
L 242.762114 499.083347 
L 242.981668 386.561382 
L 243.201221 573.044509 
L 243.420774 431.575591 
L 243.640327 546.069773 
L 243.85988 481.700015 
L 244.079433 543.712779 
L 244.298987 449.122376 
L 244.51854 507.523466 
L 244.738093 456.726369 
L 244.957646 483.032487 
L 245.177199 475.442008 
L 245.396752 460.571032 
L 245.616305 420.299759 
L 245.835859 478.60258 
L 246.055412 453.033792 
L 246.274965 466.690113 
L 246.494518 468.104163 
L 246.714071 470.870525 
L 246.933624 420.324649 
L 247.153178 487.90328 
L 247.372731 274.342086 
L 247.592284 453.853384 
L 247.811837 465.693955 
L 248.03139 491.120549 
L 248.250943 406.966264 
L 248.470496 263.357642 
L 248.69005 230.387818 
L 248.909603 481.669461 
L 249.129156 441.729758 
L 249.348709 513.56809 
L 249.568262 472.562959 
L 250.007369 512.837831 
L 250.226922 401.71412 
L 250.666028 543.822071 
L 251.105134 456.562127 
L 251.324687 446.144608 
L 251.544241 391.68752 
L 251.763794 424.200762 
L 251.983347 381.746381 
L 252.2029 474.420849 
L 252.422453 436.331045 
L 252.642006 474.649722 
L 252.86156 368.580842 
L 253.081113 399.897484 
L 253.300666 309.037238 
L 253.520219 520.061573 
L 253.739772 515.8801 
L 253.959325 433.420594 
L 254.178878 518.952596 
L 254.398432 318.897714 
L 254.617985 477.864399 
L 254.837538 426.403419 
L 255.057091 520.821012 
L 255.276644 385.616345 
L 255.496197 489.150183 
L 255.715751 475.868754 
L 255.935304 292.532041 
L 256.154857 320.90752 
L 256.37441 519.242225 
L 256.593963 463.787886 
L 256.813516 501.678724 
L 257.033069 467.262823 
L 257.252623 459.521754 
L 257.472176 499.5489 
L 257.691729 449.229505 
L 257.911282 445.508194 
L 258.130835 516.54506 
L 258.350388 503.479175 
L 258.569942 443.345988 
L 258.789495 480.603951 
L 259.009048 436.362378 
L 259.228601 480.76399 
L 259.448154 473.076399 
L 259.667707 508.500563 
L 259.88726 437.999721 
L 260.326367 417.295383 
L 260.54592 510.297952 
L 260.985026 444.638789 
L 261.204579 484.432881 
L 261.424133 459.643083 
L 261.863239 546.937712 
L 262.082792 433.156754 
L 262.302345 388.753477 
L 262.521898 387.386274 
L 262.741451 530.119019 
L 262.961005 489.354261 
L 263.180558 401.152612 
L 263.400111 397.154072 
L 263.839217 480.389724 
L 264.05877 437.618382 
L 264.278324 490.405945 
L 264.497877 335.002956 
L 264.936983 465.483071 
L 265.156536 446.403399 
L 265.595642 503.593244 
L 265.815196 349.230204 
L 266.034749 507.623293 
L 266.254302 416.319709 
L 266.473855 378.947524 
L 266.693408 371.840452 
L 266.912961 421.379602 
L 267.132514 393.944863 
L 267.352068 489.919363 
L 267.571621 427.244044 
L 267.791174 492.29415 
L 268.010727 449.510667 
L 268.23028 493.711226 
L 268.449833 509.068751 
L 268.669387 444.186517 
L 268.88894 518.060664 
L 269.328046 433.080886 
L 269.547599 502.776108 
L 269.767152 462.512984 
L 269.986705 230.852578 
L 270.206259 461.552289 
L 270.425812 432.779341 
L 270.645365 389.079717 
L 270.864918 456.877713 
L 271.304024 481.199724 
L 271.523578 471.465794 
L 271.743131 394.065437 
L 271.962684 571.175686 
L 272.182237 474.100915 
L 272.40179 520.624792 
L 272.621343 369.991375 
L 272.840896 483.141832 
L 273.06045 440.481508 
L 273.280003 482.812774 
L 273.499556 409.097897 
L 273.719109 516.194275 
L 274.158215 305.081481 
L 274.377769 438.131856 
L 274.597322 382.854912 
L 274.816875 433.033314 
L 275.036428 298.703829 
L 275.255981 405.168353 
L 275.475534 348.050962 
L 275.695087 500.318093 
L 275.914641 445.466902 
L 276.134194 460.595615 
L 276.353747 249.173091 
L 276.5733 453.626538 
L 276.792853 301.694063 
L 277.012406 462.393691 
L 277.23196 375.765415 
L 277.890619 553.703765 
L 278.329725 408.33327 
L 278.549278 413.909643 
L 278.768832 522.025809 
L 278.988385 427.233582 
L 279.207938 459.650581 
L 279.427491 526.653346 
L 279.647044 431.980095 
L 279.866597 472.432749 
L 280.086151 382.895926 
L 280.305704 541.294903 
L 280.525257 485.533956 
L 280.964363 448.381974 
L 281.183916 467.828893 
L 281.403469 439.408723 
L 281.623023 519.262404 
L 281.842576 460.42977 
L 282.062129 533.910074 
L 282.281682 348.550325 
L 282.501235 513.340713 
L 282.720788 469.919435 
L 282.940342 461.024773 
L 283.159895 495.429607 
L 283.379448 371.026047 
L 283.599001 389.508193 
L 283.818554 441.652341 
L 284.038107 527.363762 
L 284.25766 394.778174 
L 284.477214 516.541524 
L 284.696767 424.170023 
L 284.91632 488.807965 
L 285.135873 358.565436 
L 285.355426 380.222605 
L 285.574979 542.19243 
L 285.794533 471.450424 
L 286.014086 484.79924 
L 286.453192 463.110986 
L 286.672745 473.497794 
L 286.892298 446.791012 
L 287.111851 396.385961 
L 287.331405 296.487022 
L 287.550958 454.548208 
L 287.770511 415.84141 
L 287.990064 473.888298 
L 288.209617 493.536466 
L 288.42917 524.383178 
L 288.648724 529.24719 
L 288.868277 481.778652 
L 289.08783 502.036934 
L 289.307383 355.389076 
L 289.526936 498.774992 
L 289.746489 500.374501 
L 289.966042 539.046097 
L 290.185596 421.568365 
L 290.405149 494.615386 
L 290.844255 348.034106 
L 291.063808 546.650327 
L 291.502915 459.292405 
L 291.722468 491.965567 
L 291.942021 375.302761 
L 292.381127 510.772526 
L 292.60068 493.342158 
L 292.820233 499.867731 
L 293.039787 555.941057 
L 293.25934 440.211343 
L 293.478893 423.969183 
L 293.698446 364.158861 
L 293.917999 508.942104 
L 294.137552 414.959671 
L 294.357105 392.571888 
L 294.576659 538.183247 
L 294.796212 443.978849 
L 295.015765 416.429577 
L 295.235318 474.279274 
L 295.454871 416.894491 
L 295.674424 531.67529 
L 295.893978 451.458174 
L 296.113531 521.437838 
L 296.333084 530.099936 
L 296.552637 464.618063 
L 296.77219 448.406362 
L 296.991743 253.079397 
L 297.211296 549.40416 
L 297.43085 526.272864 
L 297.650403 423.358374 
L 297.869956 437.908232 
L 298.309062 391.340482 
L 298.528615 493.374769 
L 298.748169 442.180897 
L 298.967722 507.697603 
L 299.187275 476.920502 
L 299.406828 486.999213 
L 299.626381 393.941975 
L 299.845934 488.876868 
L 300.065487 428.864264 
L 300.285041 492.517833 
L 300.504594 475.866456 
L 300.9437 502.749119 
L 301.163253 428.373985 
L 301.382806 392.942684 
L 301.60236 486.754972 
L 301.821913 436.00303 
L 302.041466 531.327125 
L 302.261019 436.354117 
L 302.480572 546.611103 
L 302.919678 284.619525 
L 303.139232 493.079619 
L 303.358785 416.297213 
L 303.578338 407.328718 
L 303.797891 413.969115 
L 304.017444 513.75581 
L 304.456551 467.490419 
L 304.676104 423.973484 
L 304.895657 461.008617 
L 305.11521 530.352333 
L 305.334763 428.082928 
L 305.554316 533.608016 
L 305.773869 442.073047 
L 305.993423 453.285135 
L 306.212976 457.002566 
L 306.432529 427.800548 
L 306.652082 503.404531 
L 306.871635 313.576883 
L 307.091188 439.947571 
L 307.310742 392.233351 
L 307.530295 473.118874 
L 307.969401 325.492353 
L 308.62806 522.417675 
L 308.847614 424.007606 
L 309.28672 421.739906 
L 309.506273 415.213143 
L 309.725826 430.115448 
L 310.164933 555.753412 
L 310.384486 375.87719 
L 310.604039 490.406944 
L 310.823592 513.025697 
L 311.043145 393.024724 
L 311.262698 400.973496 
L 311.482251 427.002306 
L 311.701805 423.244297 
L 311.921358 442.341794 
L 312.140911 511.726168 
L 312.580017 405.283356 
L 313.019124 451.823711 
L 313.238677 394.865321 
L 313.45823 501.10301 
L 313.677783 536.229492 
L 313.897336 362.909926 
L 314.116889 454.353069 
L 314.336442 361.18074 
L 314.555996 429.397271 
L 314.775549 453.872707 
L 314.995102 497.457715 
L 315.214655 352.101981 
L 315.434208 472.630807 
L 315.653761 516.214629 
L 315.873315 447.534545 
L 316.092868 446.484996 
L 316.312421 242.444328 
L 316.751527 494.834527 
L 316.97108 507.6749 
L 317.190633 343.512748 
L 317.410187 400.731812 
L 317.62974 415.761826 
L 317.849293 422.32745 
L 318.288399 404.378894 
L 318.507952 502.185359 
L 318.727506 402.691149 
L 319.166612 485.161596 
L 319.386165 465.401477 
L 319.605718 465.2818 
L 319.825271 488.867941 
L 320.044824 482.90092 
L 320.264378 517.85637 
L 320.703484 419.500733 
L 320.923037 484.014089 
L 321.14259 394.309897 
L 321.362143 364.296474 
L 321.581696 507.423138 
L 322.020803 452.215656 
L 322.240356 444.484632 
L 322.459909 372.208679 
L 322.679462 513.063203 
L 322.899015 425.189187 
L 323.118569 442.402125 
L 323.338122 372.176617 
L 323.557675 394.2264 
L 323.777228 520.897202 
L 323.996781 470.091064 
L 324.216334 504.027477 
L 324.435887 453.443491 
L 324.655441 457.047977 
L 324.874994 414.534898 
L 325.3141 391.593691 
L 325.533653 504.621747 
L 325.753206 332.871806 
L 325.97276 557.540918 
L 326.192313 467.898685 
L 326.411866 327.28468 
L 326.631419 464.82674 
L 326.850972 378.901661 
L 327.070525 439.171556 
L 327.290078 538.6874 
L 327.509632 373.413973 
L 327.729185 466.588229 
L 327.948738 502.918759 
L 328.168291 418.096265 
L 328.387844 456.86389 
L 328.607397 571.454494 
L 328.826951 249.84488 
L 329.046504 461.586755 
L 329.266057 467.895307 
L 329.48561 485.87184 
L 329.705163 418.522608 
L 329.924716 439.859625 
L 330.144269 380.926315 
L 330.363823 450.140964 
L 330.583376 428.970008 
L 330.802929 441.742233 
L 331.022482 414.51129 
L 331.461588 458.54627 
L 331.681142 522.717543 
L 331.900695 486.019467 
L 332.120248 355.410048 
L 332.339801 367.456632 
L 332.559354 131.956182 
L 332.778907 508.04981 
L 332.99846 413.337412 
L 333.218014 473.954366 
L 333.437567 474.98995 
L 333.65712 477.162499 
L 333.876673 424.369777 
L 334.096226 336.444571 
L 334.315779 320.458235 
L 334.535333 469.099471 
L 334.754886 429.443335 
L 334.974439 578.584218 
L 335.193992 418.445156 
L 335.413545 419.14446 
L 335.633098 501.127755 
L 335.852651 486.036963 
L 336.291758 500.932849 
L 336.511311 501.089443 
L 336.730864 463.792295 
L 336.950417 453.823803 
L 337.16997 454.096588 
L 337.389524 459.715439 
L 337.609077 509.195481 
L 337.82863 409.466871 
L 338.048183 522.811384 
L 338.267736 411.718842 
L 338.487289 480.411159 
L 338.706842 512.019562 
L 338.926396 463.66481 
L 339.145949 510.301479 
L 339.365502 405.346588 
L 339.585055 416.934126 
L 339.804608 549.468648 
L 340.024161 531.111019 
L 340.243715 485.089837 
L 340.463268 394.545597 
L 340.902374 506.77729 
L 341.121927 241.959824 
L 341.561033 508.00252 
L 341.780587 567.272378 
L 342.00014 454.724446 
L 342.219693 402.857854 
L 342.439246 278.895768 
L 342.878352 481.181062 
L 343.097906 361.387088 
L 343.317459 470.446631 
L 343.537012 494.140976 
L 343.756565 370.618407 
L 343.976118 390.100635 
L 344.195671 461.952038 
L 344.415224 484.699774 
L 344.634778 303.370738 
L 344.854331 514.98614 
L 345.293437 406.980307 
L 345.51299 431.062491 
L 345.732543 512.219343 
L 345.952096 434.648703 
L 346.17165 453.56017 
L 346.391203 515.351113 
L 346.610756 430.934629 
L 346.830309 547.33163 
L 347.049862 551.605184 
L 347.269415 449.864574 
L 347.488969 444.181473 
L 347.708522 394.886821 
L 347.928075 491.926207 
L 348.147628 456.925728 
L 348.806287 523.170938 
L 349.025841 504.990687 
L 349.245394 349.296897 
L 349.464947 490.865463 
L 349.6845 530.793257 
L 349.904053 410.075302 
L 350.123606 412.55588 
L 350.34316 442.132266 
L 350.562713 454.624401 
L 350.782266 477.225464 
L 351.001819 406.104784 
L 351.221372 432.029047 
L 351.440925 486.174577 
L 351.660478 453.964744 
L 351.880032 526.296152 
L 352.099585 439.067468 
L 352.319138 538.3564 
L 352.758244 448.999269 
L 353.197351 540.204072 
L 353.416904 207.394364 
L 353.636457 361.037596 
L 354.734223 522.091886 
L 354.953776 336.599266 
L 355.173329 471.823331 
L 355.392882 374.529831 
L 355.612435 463.833469 
L 356.051542 515.73906 
L 356.490648 437.29184 
L 356.710201 428.290914 
L 356.929754 505.18429 
L 357.149307 518.327148 
L 357.36886 482.741222 
L 357.588414 469.927709 
L 357.807967 406.870735 
L 358.02752 494.291347 
L 358.247073 304.714143 
L 358.466626 453.187277 
L 358.686179 455.670168 
L 359.125286 492.396809 
L 359.344839 434.51537 
L 359.564392 422.513615 
L 359.783945 386.104429 
L 360.003498 476.371452 
L 360.223051 356.944445 
L 360.442605 376.068729 
L 360.662158 475.142951 
L 360.881711 486.389689 
L 361.101264 414.805082 
L 361.320817 409.968906 
L 361.54037 553.695667 
L 361.759924 412.628487 
L 361.979477 469.559674 
L 362.19903 435.691654 
L 362.418583 493.766252 
L 362.638136 335.404847 
L 362.857689 426.589722 
L 363.077242 284.547006 
L 363.516349 502.768241 
L 364.175008 361.941575 
L 364.394561 252.428768 
L 364.614115 558.043277 
L 364.833668 544.791193 
L 365.272774 393.379057 
L 365.492327 401.474639 
L 365.71188 420.43608 
L 365.931433 522.80156 
L 366.150987 466.344151 
L 366.37054 514.518384 
L 366.590093 424.59699 
L 366.809646 563.537335 
L 367.029199 474.349067 
L 367.248752 477.436664 
L 367.468306 345.465539 
L 367.687859 465.88914 
L 367.907412 321.044069 
L 368.346518 471.961045 
L 368.566071 432.7036 
L 368.785624 438.442158 
L 369.005178 487.191837 
L 369.224731 490.6484 
L 369.444284 525.773326 
L 369.663837 462.238362 
L 369.88339 292.865388 
L 370.102943 479.53879 
L 370.322497 333.126736 
L 370.761603 500.200519 
L 370.981156 369.234777 
L 371.200709 455.21176 
L 371.420262 339.065929 
L 371.639815 473.466424 
L 371.859369 370.461855 
L 372.078922 322.446933 
L 372.518028 482.2332 
L 372.737581 420.999034 
L 372.957134 476.862045 
L 373.176687 445.731308 
L 373.396241 390.972099 
L 373.615794 485.414961 
L 373.835347 509.776264 
L 374.0549 413.93653 
L 374.274453 434.538934 
L 374.494006 485.834821 
L 374.71356 479.024445 
L 374.933113 524.737991 
L 375.152666 443.014836 
L 375.372219 517.342674 
L 375.591772 534.340369 
L 375.811325 571.057079 
L 376.030878 418.048578 
L 376.250432 357.966684 
L 376.469985 380.006803 
L 376.689538 523.103623 
L 376.909091 379.470589 
L 377.128644 425.622872 
L 377.348197 358.281482 
L 377.567751 361.393233 
L 377.787304 461.371347 
L 378.006857 313.411432 
L 378.22641 494.113369 
L 378.445963 529.141112 
L 378.665516 528.82532 
L 379.104623 444.350004 
L 379.324176 448.564434 
L 379.543729 460.617713 
L 379.763282 419.079153 
L 379.982835 468.028296 
L 380.202388 408.205471 
L 380.641495 520.779073 
L 380.861048 490.104212 
L 381.080601 300.626896 
L 381.300154 441.595901 
L 381.519707 396.647459 
L 381.73926 487.217138 
L 381.958814 478.579453 
L 382.178367 459.063262 
L 382.39792 537.716504 
L 382.617473 466.782071 
L 382.837026 337.722376 
L 383.056579 392.642878 
L 383.276133 483.921679 
L 383.495686 447.364835 
L 383.934792 531.101556 
L 384.154345 473.312865 
L 384.373898 495.832283 
L 384.593451 486.905706 
L 384.813005 501.341584 
L 385.032558 436.839139 
L 385.252111 456.40648 
L 385.471664 452.240141 
L 385.691217 326.000474 
L 385.91077 516.001958 
L 386.130324 474.614526 
L 386.349877 211.11892 
L 386.56943 516.716851 
L 386.788983 313.524823 
L 387.008536 438.339414 
L 387.228089 474.13358 
L 387.667196 281.594511 
L 387.886749 405.920597 
L 388.106302 453.604735 
L 388.325855 374.902095 
L 388.984515 554.042219 
L 389.204068 363.363295 
L 389.423621 433.39469 
L 389.643174 376.597198 
L 390.08228 450.957101 
L 390.301833 418.759519 
L 390.521387 365.980097 
L 390.74094 528.816943 
L 390.960493 540.12902 
L 391.180046 436.484841 
L 391.399599 458.869589 
L 391.619152 501.731612 
L 391.838706 518.328108 
L 392.058259 491.785112 
L 392.277812 530.551252 
L 392.497365 407.813866 
L 392.716918 473.990749 
L 392.936471 427.651323 
L 393.156024 336.769738 
L 393.375578 435.792883 
L 393.595131 479.418035 
L 393.814684 473.702663 
L 394.034237 461.604957 
L 394.25379 364.070932 
L 394.473343 447.429245 
L 394.692897 355.36111 
L 394.91245 511.837938 
L 395.132003 534.731716 
L 395.351556 371.53811 
L 395.571109 461.39968 
L 395.790662 409.670292 
L 396.010215 265.857622 
L 396.229769 481.438742 
L 396.449322 469.002818 
L 396.668875 342.862845 
L 396.888428 504.317388 
L 397.107981 449.429089 
L 397.327534 512.661806 
L 397.547087 491.671513 
L 397.766641 409.580202 
L 397.986194 437.740911 
L 398.205747 510.579173 
L 398.4253 483.633771 
L 398.644853 486.171237 
L 398.864406 462.694573 
L 399.08396 397.453762 
L 399.523066 437.547791 
L 399.742619 472.261078 
L 399.962172 331.168976 
L 400.401278 555.570263 
L 400.620832 521.75321 
L 400.840385 528.527787 
L 401.059938 500.743006 
L 401.279491 542.039068 
L 401.718597 397.943566 
L 401.938151 504.681134 
L 402.157704 520.97221 
L 402.59681 401.538168 
L 402.816363 364.677188 
L 403.035916 466.469183 
L 403.255469 420.870384 
L 403.475023 430.093316 
L 403.694576 365.501091 
L 403.914129 508.935717 
L 404.133682 470.931678 
L 404.353235 400.965513 
L 404.792342 369.968074 
L 405.011895 455.602229 
L 405.231448 434.836225 
L 405.451001 518.885341 
L 405.670554 449.0386 
L 405.890107 525.942365 
L 406.10966 395.243968 
L 406.329214 502.451523 
L 406.548767 357.724671 
L 406.76832 422.661582 
L 406.987873 450.044019 
L 407.207426 530.221436 
L 407.646533 454.503322 
L 407.866086 538.308333 
L 408.085639 407.135458 
L 408.305192 444.466007 
L 408.963851 405.162828 
L 409.183405 424.956737 
L 409.402958 456.881268 
L 409.622511 510.049308 
L 409.842064 445.497977 
L 410.061617 485.7592 
L 410.28117 461.924167 
L 410.500724 501.03121 
L 410.720277 420.290161 
L 410.93983 462.575448 
L 411.159383 336.38639 
L 411.378936 374.701278 
L 411.598489 495.159771 
L 411.818042 426.292051 
L 412.037596 221.800128 
L 412.257149 477.762076 
L 412.476702 404.563204 
L 412.696255 372.818034 
L 412.915808 448.033684 
L 413.135361 343.890089 
L 413.354915 481.659734 
L 413.574468 503.159526 
L 414.013574 337.184836 
L 414.672233 559.130561 
L 414.891787 444.727985 
L 415.11134 425.903054 
L 415.330893 535.185579 
L 415.769999 435.395664 
L 415.989552 459.974117 
L 416.209106 386.949988 
L 416.428659 442.7842 
L 416.648212 461.78617 
L 416.867765 280.443516 
L 417.087318 451.654581 
L 417.306871 371.139929 
L 417.526424 401.215578 
L 417.745978 485.781617 
L 417.965531 450.331565 
L 418.185084 462.806765 
L 418.404637 525.562266 
L 418.62419 276.257198 
L 418.843743 489.78608 
L 419.063297 472.471273 
L 419.28285 494.543223 
L 419.502403 503.453461 
L 419.721956 386.510253 
L 419.941509 460.379353 
L 420.161062 469.430752 
L 420.380615 426.153021 
L 420.600169 490.521285 
L 420.819722 457.347469 
L 421.039275 385.7317 
L 421.258828 485.26097 
L 421.478381 383.497715 
L 421.697934 486.431794 
L 421.917488 517.499086 
L 422.137041 490.199145 
L 422.356594 365.954813 
L 422.576147 522.361751 
L 423.015253 440.122053 
L 423.234806 338.686642 
L 423.45436 478.868856 
L 423.673913 464.677346 
L 423.893466 548.984526 
L 424.113019 506.847251 
L 424.332572 387.394433 
L 424.771678 500.64782 
L 424.991232 475.150425 
L 425.210785 497.913896 
L 425.430338 431.316624 
L 425.649891 562.687737 
L 425.869444 476.573405 
L 426.088997 447.352492 
L 426.308551 479.863497 
L 426.528104 416.045898 
L 426.747657 409.059718 
L 426.96721 481.248974 
L 427.186763 392.36714 
L 427.625869 493.503878 
L 427.845423 353.611696 
L 428.064976 459.059951 
L 428.284529 431.870155 
L 428.504082 429.422345 
L 428.943188 502.867972 
L 429.162742 407.331187 
L 429.601848 533.814122 
L 429.821401 455.276787 
L 430.040954 570.863486 
L 430.260507 424.680282 
L 430.48006 461.131088 
L 430.699614 384.641498 
L 430.919167 398.628061 
L 431.13872 499.497472 
L 431.358273 340.168047 
L 431.577826 366.705295 
L 431.797379 332.442225 
L 432.016933 439.824068 
L 432.236486 356.03087 
L 432.456039 440.63377 
L 432.675592 338.479941 
L 432.895145 467.015868 
L 433.114698 479.653631 
L 433.334251 337.152518 
L 433.773358 442.854885 
L 433.992911 493.127192 
L 434.212464 387.66433 
L 434.432017 431.41392 
L 434.65157 420.152506 
L 434.871124 503.759935 
L 435.090677 397.846083 
L 435.31023 423.012128 
L 435.529783 468.704692 
L 435.749336 435.894437 
L 435.968889 463.352469 
L 436.188442 442.005885 
L 436.407996 486.459948 
L 436.847102 383.136522 
L 437.066655 473.347168 
L 437.286208 492.440791 
L 437.505761 397.598362 
L 437.725315 477.105317 
L 437.944868 454.238246 
L 438.164421 480.497067 
L 438.603527 436.337079 
L 438.82308 433.695455 
L 439.042633 373.162741 
L 439.262187 501.512941 
L 439.48174 436.351647 
L 439.701293 510.284512 
L 439.920846 477.953677 
L 440.359952 332.207325 
L 440.579506 357.281736 
L 440.799059 350.146679 
L 441.018612 536.149262 
L 441.238165 430.644711 
L 441.457718 433.548039 
L 441.677271 519.224792 
L 441.896824 459.791561 
L 442.116378 453.497621 
L 442.335931 501.799527 
L 442.555484 520.680036 
L 443.214143 403.138952 
L 443.433697 399.778139 
L 443.65325 489.824293 
L 443.872803 433.746267 
L 444.092356 475.254852 
L 444.311909 422.022982 
L 444.531462 440.556337 
L 444.751015 336.647323 
L 444.970569 483.531033 
L 445.190122 484.749437 
L 445.409675 482.262249 
L 445.848781 469.496577 
L 446.068334 473.300251 
L 446.287888 490.487955 
L 446.507441 546.038135 
L 446.726994 359.414083 
L 446.946547 402.189683 
L 447.1661 366.571219 
L 447.385653 421.031096 
L 447.605206 446.367794 
L 447.82476 427.798439 
L 448.044313 476.820874 
L 448.263866 475.972141 
L 448.702972 342.482172 
L 448.922525 539.770235 
L 449.142079 388.20821 
L 449.361632 481.437133 
L 449.581185 406.467028 
L 449.800738 462.504927 
L 450.020291 418.148669 
L 450.239844 315.530286 
L 450.459397 392.628857 
L 450.678951 418.579718 
L 450.898504 403.578444 
L 451.118057 413.75971 
L 451.33761 432.120886 
L 451.557163 341.752229 
L 451.776716 435.617753 
L 451.996269 395.241335 
L 452.215823 457.448252 
L 452.435376 433.205485 
L 452.654929 514.641143 
L 452.874482 397.632214 
L 453.094035 515.265136 
L 453.313588 455.290099 
L 453.533142 455.145409 
L 453.752695 530.803361 
L 454.191801 430.52629 
L 454.411354 429.519877 
L 454.630907 461.894678 
L 454.85046 404.589652 
L 455.070014 446.309271 
L 455.289567 537.615151 
L 455.728673 284.13716 
L 455.948226 520.203704 
L 456.167779 475.481019 
L 456.387333 458.445253 
L 456.606886 454.798325 
L 456.826439 483.232684 
L 457.265545 386.027336 
L 457.485098 511.540139 
L 457.924205 448.59483 
L 458.143758 446.966883 
L 458.363311 531.572884 
L 458.582864 469.383086 
L 458.802417 457.689857 
L 459.241524 535.111806 
L 459.461077 313.226081 
L 459.68063 464.220155 
L 459.900183 469.288118 
L 460.119736 451.151052 
L 460.558842 482.685675 
L 460.778396 248.127833 
L 460.997949 443.680731 
L 461.217502 513.928962 
L 461.437055 255.557723 
L 461.656608 482.413152 
L 461.876161 437.978584 
L 462.095715 359.831192 
L 462.315268 454.157063 
L 462.534821 431.677369 
L 462.754374 452.471045 
L 462.973927 385.004233 
L 463.19348 477.722034 
L 463.413033 347.269819 
L 463.632587 483.81521 
L 464.071693 429.019963 
L 464.291246 503.248415 
L 464.510799 419.686611 
L 464.730352 430.983008 
L 464.949906 499.436873 
L 465.169459 421.406846 
L 465.389012 522.380151 
L 465.608565 440.327308 
L 465.828118 403.016271 
L 466.047671 468.673435 
L 466.267224 421.059565 
L 466.486778 401.513871 
L 466.706331 511.683451 
L 466.925884 491.658873 
L 467.145437 429.567942 
L 467.36499 538.2399 
L 467.584543 421.276361 
L 467.804097 478.814259 
L 468.02365 444.203233 
L 468.243203 439.809119 
L 468.462756 398.315524 
L 468.682309 384.517862 
L 468.901862 465.578987 
L 469.340969 390.193252 
L 469.560522 509.886608 
L 469.780075 481.305643 
L 469.999628 485.969681 
L 470.219181 361.348818 
L 470.438734 502.830756 
L 470.658288 430.453535 
L 470.877841 471.226265 
L 471.097394 302.014079 
L 471.316947 526.59519 
L 471.5365 504.930288 
L 471.756053 453.470545 
L 471.975606 450.296134 
L 472.19516 420.089378 
L 472.414713 419.942229 
L 472.634266 485.652539 
L 472.853819 407.321867 
L 473.073372 513.569651 
L 473.292925 558.361081 
L 473.512479 533.760654 
L 473.732032 351.682121 
L 473.951585 456.469071 
L 474.390691 501.886647 
L 474.610244 422.795576 
L 474.829797 446.262385 
L 475.049351 423.678173 
L 475.268904 461.031188 
L 475.488457 398.086049 
L 475.70801 491.715156 
L 475.927563 488.89611 
L 476.147116 464.333883 
L 476.366669 472.234327 
L 476.586223 508.945548 
L 476.805776 510.687098 
L 477.025329 483.348001 
L 477.244882 502.9599 
L 477.464435 491.289765 
L 477.683988 510.016068 
L 478.342648 431.379133 
L 478.562201 506.41564 
L 478.781754 424.2007 
L 479.001307 403.996704 
L 479.22086 484.739191 
L 479.440414 398.650876 
L 480.099073 552.903941 
L 480.318626 501.912955 
L 480.538179 512.193382 
L 480.757733 462.915737 
L 480.977286 452.520779 
L 481.196839 457.84249 
L 481.416392 466.596895 
L 481.855498 523.425967 
L 482.075051 523.909562 
L 482.294605 473.4742 
L 482.514158 453.36229 
L 482.733711 512.483529 
L 482.953264 391.498167 
L 483.172817 407.326365 
L 483.831477 511.226757 
L 484.05103 469.523612 
L 484.270583 488.204005 
L 484.490136 464.518825 
L 484.709689 482.274444 
L 484.929242 461.344675 
L 485.148796 478.486726 
L 485.368349 336.249661 
L 485.587902 463.923374 
L 485.807455 376.657538 
L 486.027008 384.356275 
L 486.246561 501.932657 
L 486.466115 429.053113 
L 486.685668 519.945226 
L 486.905221 450.34881 
L 487.124774 446.344051 
L 487.344327 499.611897 
L 487.783433 463.876568 
L 488.002987 439.765042 
L 488.22254 448.759737 
L 488.442093 495.533694 
L 488.661646 497.75374 
L 488.881199 442.435138 
L 489.100752 520.260135 
L 489.320306 514.131936 
L 489.539859 433.374786 
L 490.198518 570.680855 
L 490.418071 409.268437 
L 490.637624 405.814698 
L 490.857178 486.122043 
L 491.076731 243.635989 
L 491.515837 465.293824 
L 491.73539 463.729637 
L 491.954943 529.43191 
L 492.174497 511.567067 
L 492.39405 422.52993 
L 492.613603 483.002416 
L 492.833156 403.811787 
L 493.052709 496.1369 
L 493.272262 443.794343 
L 493.491815 520.007444 
L 493.711369 415.260885 
L 493.930922 489.003153 
L 494.150475 515.128735 
L 494.370028 560.093287 
L 494.589581 379.967401 
L 494.809134 406.251451 
L 495.028688 489.333535 
L 495.248241 502.769508 
L 495.467794 452.703891 
L 495.687347 465.146693 
L 495.9069 459.867492 
L 496.346006 532.669258 
L 496.56556 473.776057 
L 496.785113 502.850179 
L 497.004666 395.6546 
L 497.224219 447.246256 
L 497.443772 434.513548 
L 497.663325 514.611462 
L 497.882879 336.118914 
L 498.102432 518.338601 
L 498.321985 386.306875 
L 498.541538 517.482584 
L 498.761091 402.657176 
L 499.200197 527.515189 
L 499.419751 400.463918 
L 499.639304 539.591403 
L 499.858857 549.894278 
L 500.07841 521.949887 
L 500.297963 405.759498 
L 500.517516 467.15046 
L 500.73707 461.797747 
L 500.956623 486.969616 
L 501.176176 481.197111 
L 501.395729 531.170404 
L 501.615282 530.518318 
L 501.834835 337.801805 
L 502.054388 342.023615 
L 502.273942 507.47618 
L 502.493495 207.456165 
L 502.932601 495.057562 
L 503.152154 423.58685 
L 503.371707 459.537712 
L 503.59126 365.793229 
L 503.810814 388.79038 
L 504.030367 518.290401 
L 504.689026 286.117638 
L 504.908579 489.369878 
L 505.128133 470.410906 
L 505.347686 500.282736 
L 505.567239 477.332255 
L 505.786792 334.822771 
L 506.006345 439.88679 
L 506.225898 454.565079 
L 506.445451 389.284 
L 506.884558 540.811769 
L 507.104111 427.18203 
L 507.323664 438.457456 
L 507.543217 427.577623 
L 507.76277 404.488476 
L 507.982324 423.069382 
L 508.201877 525.145314 
L 508.42143 398.763426 
L 508.640983 511.17976 
L 508.860536 379.428262 
L 509.080089 483.531198 
L 509.299642 462.379339 
L 509.519196 287.605675 
L 509.738749 378.388805 
L 509.958302 318.802622 
L 510.177855 458.757279 
L 510.397408 514.210897 
L 510.616961 485.275904 
L 510.836515 286.52016 
L 511.056068 519.610875 
L 511.275621 493.859292 
L 511.495174 400.015864 
L 511.714727 461.133028 
L 511.93428 274.156309 
L 512.153833 232.248681 
L 512.59294 518.697475 
L 513.032046 431.902326 
L 513.251599 473.953388 
L 513.471152 298.470465 
L 513.690706 218.239865 
L 513.910259 504.90293 
L 514.129812 495.29477 
L 514.349365 396.330467 
L 514.788471 537.667667 
L 515.008024 467.11638 
L 515.227578 537.284749 
L 515.447131 526.187975 
L 515.666684 508.624939 
L 516.325343 258.91335 
L 516.544897 481.084834 
L 516.76445 392.160731 
L 516.984003 479.417311 
L 517.203556 457.898121 
L 517.642662 477.08393 
L 517.862215 371.66351 
L 518.081769 504.461937 
L 518.301322 431.295537 
L 518.520875 512.99717 
L 518.740428 481.234011 
L 518.959981 485.088682 
L 519.179534 449.941774 
L 519.399088 381.836912 
L 519.838194 462.418837 
L 520.057747 493.106675 
L 520.2773 448.283592 
L 520.496853 470.859543 
L 520.716406 408.635752 
L 520.93596 403.312578 
L 521.155513 452.991641 
L 521.375066 423.01416 
L 521.594619 505.420256 
L 521.814172 510.751338 
L 522.033725 420.062163 
L 522.253279 477.628032 
L 522.472832 363.351721 
L 522.692385 559.415631 
L 523.131491 417.347492 
L 523.351044 498.491513 
L 523.570597 439.137426 
L 523.790151 469.463435 
L 524.009704 442.045628 
L 524.229257 434.216385 
L 524.44881 445.788504 
L 524.668363 347.032927 
L 524.887916 496.145822 
L 525.10747 456.412059 
L 525.327023 327.531297 
L 525.546576 341.179651 
L 525.766129 509.095248 
L 525.985682 489.624084 
L 526.205235 458.848314 
L 526.424788 411.391063 
L 526.644342 466.136643 
L 526.863895 328.241466 
L 527.083448 300.558045 
L 527.303001 492.298936 
L 527.522554 447.285822 
L 527.742107 367.366209 
L 528.181214 549.932988 
L 528.400767 546.698193 
L 528.839873 412.415856 
L 529.059426 494.059223 
L 529.278979 451.356398 
L 529.498533 457.402444 
L 529.718086 459.873175 
L 529.937639 146.900986 
L 530.157192 449.688243 
L 530.376745 456.993094 
L 530.596298 442.222899 
L 531.035405 556.779841 
L 531.254958 493.40437 
L 531.474511 463.761906 
L 531.694064 532.714943 
L 532.13317 363.036827 
L 532.352724 477.642214 
L 532.572277 477.480547 
L 532.79183 439.286828 
L 533.011383 473.478031 
L 533.230936 440.436975 
L 533.450489 516.590554 
L 533.889596 425.272587 
L 534.109149 331.296501 
L 534.328702 404.953033 
L 534.548255 416.72771 
L 534.987361 313.175647 
L 535.206915 438.325414 
L 535.426468 433.547541 
L 535.646021 440.454208 
L 535.865574 391.768666 
L 536.085127 507.004136 
L 536.30468 463.845119 
L 536.524233 518.421856 
L 536.743787 465.436805 
L 537.182893 528.213492 
L 537.402446 510.878367 
L 537.621999 524.099997 
L 537.841552 488.134378 
L 538.061106 479.465525 
L 538.280659 502.179386 
L 538.500212 396.897528 
L 538.939318 457.625301 
L 539.158871 334.41634 
L 539.597978 467.035569 
L 539.817531 544.871303 
L 540.037084 323.522664 
L 540.47619 518.254491 
L 540.915297 363.055403 
L 541.13485 524.41602 
L 541.354403 521.349333 
L 541.573956 507.772137 
L 541.793509 380.014351 
L 542.013062 504.736062 
L 542.232615 379.556611 
L 542.452169 481.353506 
L 542.671722 411.090473 
L 542.891275 470.002836 
L 543.110828 384.503571 
L 543.330381 414.297973 
L 543.549934 524.732477 
L 543.769488 523.605256 
L 543.989041 505.525627 
L 544.208594 440.188152 
L 544.428147 503.948365 
L 544.6477 522.484718 
L 544.867253 406.451101 
L 545.086806 422.61713 
L 545.30636 410.42592 
L 545.525913 371.745762 
L 545.745466 401.162898 
L 545.745466 401.162898 
" style="fill:none;stroke:#96c69a;stroke-linecap:round;stroke-width:3;"/>
   </g>
   <g id="line2d_2"/>
   <g id="patch_3">
    <path d="M 84.914375 603.86 
L 84.914375 109.484571 
" style="fill:none;stroke:#262626;stroke-linecap:square;stroke-linejoin:miter;stroke-width:2.5;"/>
   </g>
   <g id="patch_4">
    <path d="M 84.914375 603.86 
L 567.689804 603.86 
" style="fill:none;stroke:#262626;stroke-linecap:square;stroke-linejoin:miter;stroke-width:2.5;"/>
   </g>
   <g id="legend_1">
    <g id="patch_5">
     <path d="M 514.774179 598.86 
L 560.689804 598.86 
Q 562.689804 598.86 562.689804 596.86 
L 562.689804 554.954375 
Q 562.689804 552.954375 560.689804 552.954375 
L 514.774179 552.954375 
Q 512.774179 552.954375 512.774179 554.954375 
L 512.774179 596.86 
Q 512.774179 598.86 514.774179 598.86 
z
" style="fill:#ffffff;opacity:0.8;stroke:#cccccc;stroke-linejoin:miter;stroke-width:2;"/>
    </g>
    <g id="text_17">
     <!-- $n_\tau$ -->
     <g style="fill:#262626;" transform="translate(524.651991 575.190625)scale(0.24 -0.24)">
      <defs>
       <path d="M 3566 2113 
L 3156 0 
L 2578 0 
L 2988 2091 
Q 3016 2238 3031 2350 
Q 3047 2463 3047 2528 
Q 3047 2791 2881 2937 
Q 2716 3084 2419 3084 
Q 1956 3084 1622 2776 
Q 1288 2469 1184 1941 
L 800 0 
L 225 0 
L 903 3500 
L 1478 3500 
L 1363 2950 
Q 1603 3253 1940 3418 
Q 2278 3584 2650 3584 
Q 3113 3584 3367 3334 
Q 3622 3084 3622 2631 
Q 3622 2519 3608 2391 
Q 3594 2263 3566 2113 
z
" id="DejaVuSans-Oblique-6e" transform="scale(0.015625)"/>
       <path d="M 2103 638 
Q 2188 488 2525 488 
L 2800 488 
L 2706 0 
L 2363 0 
Q 1800 0 1600 300 
Q 1403 606 1534 1269 
L 1856 2925 
L 541 2925 
L 653 3500 
L 3881 3500 
L 3769 2925 
L 2444 2925 
L 2113 1234 
Q 2025 781 2103 638 
z
" id="DejaVuSans-Oblique-3c4" transform="scale(0.015625)"/>
      </defs>
      <use xlink:href="#DejaVuSans-Oblique-6e"/>
      <use transform="translate(63.378906 -16.40625)scale(0.7)" xlink:href="#DejaVuSans-Oblique-3c4"/>
     </g>
    </g>
    <g id="line2d_3">
     <path d="M 516.774179 589.280313 
L 536.774179 589.280313 
" style="fill:none;stroke:#96c69a;stroke-linecap:round;stroke-width:3;"/>
    </g>
    <g id="line2d_4"/>
    <g id="text_18">
     <!-- 16 -->
     <g style="fill:#262626;" transform="translate(544.774179 592.780313)scale(0.1 -0.1)">
      <defs>
       <path d="M 750 831 
L 1813 831 
L 1813 3847 
L 722 3622 
L 722 4441 
L 1806 4666 
L 2950 4666 
L 2950 831 
L 4013 831 
L 4013 0 
L 750 0 
L 750 831 
z
" id="DejaVuSans-Bold-31" transform="scale(0.015625)"/>
       <path d="M 2316 2303 
Q 2000 2303 1842 2098 
Q 1684 1894 1684 1484 
Q 1684 1075 1842 870 
Q 2000 666 2316 666 
Q 2634 666 2792 870 
Q 2950 1075 2950 1484 
Q 2950 1894 2792 2098 
Q 2634 2303 2316 2303 
z
M 3803 4544 
L 3803 3681 
Q 3506 3822 3243 3889 
Q 2981 3956 2731 3956 
Q 2194 3956 1894 3657 
Q 1594 3359 1544 2772 
Q 1750 2925 1990 3001 
Q 2231 3078 2516 3078 
Q 3231 3078 3670 2659 
Q 4109 2241 4109 1563 
Q 4109 813 3618 361 
Q 3128 -91 2303 -91 
Q 1394 -91 895 523 
Q 397 1138 397 2266 
Q 397 3422 980 4083 
Q 1563 4744 2578 4744 
Q 2900 4744 3203 4694 
Q 3506 4644 3803 4544 
z
" id="DejaVuSans-Bold-36" transform="scale(0.015625)"/>
      </defs>
      <use xlink:href="#DejaVuSans-Bold-31"/>
      <use x="69.580078" xlink:href="#DejaVuSans-Bold-36"/>
     </g>
    </g>
   </g>
  </g>
  <g id="axes_2">
   <g id="patch_6">
    <path d="M 84.914375 92.437143 
L 567.689804 92.437143 
L 567.689804 7.2 
L 84.914375 7.2 
z
" style="fill:none;"/>
   </g>
   <g id="matplotlib.axis_3">
    <g id="xtick_7"/>
    <g id="xtick_8"/>
    <g id="xtick_9"/>
    <g id="xtick_10"/>
    <g id="xtick_11"/>
    <g id="xtick_12"/>
   </g>
   <g id="matplotlib.axis_4">
    <g id="ytick_9">
     <g id="text_19">
      <!-- 0 -->
      <g style="fill:#262626;" transform="translate(55.416875 100.795424)scale(0.22 -0.22)">
       <use xlink:href="#DejaVuSans-30"/>
      </g>
     </g>
    </g>
    <g id="ytick_10">
     <g id="text_20">
      <!-- 100 -->
      <g style="fill:#262626;" transform="translate(27.421875 48.082287)scale(0.22 -0.22)">
       <use xlink:href="#DejaVuSans-31"/>
       <use x="63.623047" xlink:href="#DejaVuSans-30"/>
       <use x="127.246094" xlink:href="#DejaVuSans-30"/>
      </g>
     </g>
    </g>
   </g>
   <g id="patch_7">
    <path clip-path="url(#p7bac69a339)" d="M 106.858713 92.437143 
L 140.619232 92.437143 
L 140.619232 11.258912 
L 106.858713 11.258912 
z
" style="fill:#96c69a;fill-opacity:0.5;stroke:#ffffff;stroke-linejoin:miter;stroke-width:2;"/>
   </g>
   <g id="patch_8">
    <path clip-path="url(#p7bac69a339)" d="M 140.619232 92.437143 
L 174.379752 92.437143 
L 174.379752 11.258912 
L 140.619232 11.258912 
z
" style="fill:#96c69a;fill-opacity:0.5;stroke:#ffffff;stroke-linejoin:miter;stroke-width:2;"/>
   </g>
   <g id="patch_9">
    <path clip-path="url(#p7bac69a339)" d="M 174.379752 92.437143 
L 208.140271 92.437143 
L 208.140271 11.258912 
L 174.379752 11.258912 
z
" style="fill:#96c69a;fill-opacity:0.5;stroke:#ffffff;stroke-linejoin:miter;stroke-width:2;"/>
   </g>
   <g id="patch_10">
    <path clip-path="url(#p7bac69a339)" d="M 208.140271 92.437143 
L 241.900791 92.437143 
L 241.900791 11.258912 
L 208.140271 11.258912 
z
" style="fill:#96c69a;fill-opacity:0.5;stroke:#ffffff;stroke-linejoin:miter;stroke-width:2;"/>
   </g>
   <g id="patch_11">
    <path clip-path="url(#p7bac69a339)" d="M 241.900791 92.437143 
L 275.66131 92.437143 
L 275.66131 11.786043 
L 241.900791 11.786043 
z
" style="fill:#96c69a;fill-opacity:0.5;stroke:#ffffff;stroke-linejoin:miter;stroke-width:2;"/>
   </g>
   <g id="patch_12">
    <path clip-path="url(#p7bac69a339)" d="M 275.66131 92.437143 
L 309.42183 92.437143 
L 309.42183 11.258912 
L 275.66131 11.258912 
z
" style="fill:#96c69a;fill-opacity:0.5;stroke:#ffffff;stroke-linejoin:miter;stroke-width:2;"/>
   </g>
   <g id="patch_13">
    <path clip-path="url(#p7bac69a339)" d="M 309.42183 92.437143 
L 343.182349 92.437143 
L 343.182349 11.258912 
L 309.42183 11.258912 
z
" style="fill:#96c69a;fill-opacity:0.5;stroke:#ffffff;stroke-linejoin:miter;stroke-width:2;"/>
   </g>
   <g id="patch_14">
    <path clip-path="url(#p7bac69a339)" d="M 343.182349 92.437143 
L 376.942869 92.437143 
L 376.942869 11.258912 
L 343.182349 11.258912 
z
" style="fill:#96c69a;fill-opacity:0.5;stroke:#ffffff;stroke-linejoin:miter;stroke-width:2;"/>
   </g>
   <g id="patch_15">
    <path clip-path="url(#p7bac69a339)" d="M 376.942869 92.437143 
L 410.703388 92.437143 
L 410.703388 11.786043 
L 376.942869 11.786043 
z
" style="fill:#96c69a;fill-opacity:0.5;stroke:#ffffff;stroke-linejoin:miter;stroke-width:2;"/>
   </g>
   <g id="patch_16">
    <path clip-path="url(#p7bac69a339)" d="M 410.703388 92.437143 
L 444.463907 92.437143 
L 444.463907 11.258912 
L 410.703388 11.258912 
z
" style="fill:#96c69a;fill-opacity:0.5;stroke:#ffffff;stroke-linejoin:miter;stroke-width:2;"/>
   </g>
   <g id="patch_17">
    <path clip-path="url(#p7bac69a339)" d="M 444.463907 92.437143 
L 478.224427 92.437143 
L 478.224427 11.258912 
L 444.463907 11.258912 
z
" style="fill:#96c69a;fill-opacity:0.5;stroke:#ffffff;stroke-linejoin:miter;stroke-width:2;"/>
   </g>
   <g id="patch_18">
    <path clip-path="url(#p7bac69a339)" d="M 478.224427 92.437143 
L 511.984946 92.437143 
L 511.984946 11.258912 
L 478.224427 11.258912 
z
" style="fill:#96c69a;fill-opacity:0.5;stroke:#ffffff;stroke-linejoin:miter;stroke-width:2;"/>
   </g>
   <g id="patch_19">
    <path clip-path="url(#p7bac69a339)" d="M 511.984946 92.437143 
L 545.745466 92.437143 
L 545.745466 11.258912 
L 511.984946 11.258912 
z
" style="fill:#96c69a;fill-opacity:0.5;stroke:#ffffff;stroke-linejoin:miter;stroke-width:2;"/>
   </g>
   <g id="patch_20">
    <path d="M 84.914375 92.437143 
L 84.914375 7.2 
" style="fill:none;stroke:#262626;stroke-linecap:square;stroke-linejoin:miter;stroke-width:2.5;"/>
   </g>
   <g id="patch_21">
    <path d="M 84.914375 92.437143 
L 567.689804 92.437143 
" style="fill:none;stroke:#262626;stroke-linecap:square;stroke-linejoin:miter;stroke-width:2.5;"/>
   </g>
  </g>
  <g id="axes_3">
   <g id="patch_22">
    <path d="M 584.337232 603.86 
L 667.574375 603.86 
L 667.574375 109.484571 
L 584.337232 109.484571 
z
" style="fill:none;"/>
   </g>
   <g id="matplotlib.axis_5">
    <g id="xtick_13">
     <g id="text_21">
      <!-- 0 -->
      <g style="fill:#262626;" transform="translate(577.338482 636.076563)scale(0.22 -0.22)">
       <use xlink:href="#DejaVuSans-30"/>
      </g>
     </g>
    </g>
    <g id="xtick_14">
     <g id="text_22">
      <!-- 100 -->
      <g style="fill:#262626;" transform="translate(606.424389 636.076563)scale(0.22 -0.22)">
       <use xlink:href="#DejaVuSans-31"/>
       <use x="63.623047" xlink:href="#DejaVuSans-30"/>
       <use x="127.246094" xlink:href="#DejaVuSans-30"/>
      </g>
     </g>
    </g>
   </g>
   <g id="matplotlib.axis_6">
    <g id="ytick_11"/>
    <g id="ytick_12"/>
    <g id="ytick_13"/>
    <g id="ytick_14"/>
    <g id="ytick_15"/>
    <g id="ytick_16"/>
    <g id="ytick_17"/>
    <g id="ytick_18"/>
   </g>
   <g id="patch_23">
    <path clip-path="url(#p9e829430ef)" d="M 584.337232 581.38839 
L 588.214739 581.38839 
L 588.214739 569.241573 
L 584.337232 569.241573 
z
" style="fill:#96c69a;fill-opacity:0.5;stroke:#ffffff;stroke-linejoin:miter;stroke-width:1.214682;"/>
   </g>
   <g id="patch_24">
    <path clip-path="url(#p9e829430ef)" d="M 584.337232 569.241573 
L 588.645573 569.241573 
L 588.645573 557.094757 
L 584.337232 557.094757 
z
" style="fill:#96c69a;fill-opacity:0.5;stroke:#ffffff;stroke-linejoin:miter;stroke-width:1.214682;"/>
   </g>
   <g id="patch_25">
    <path clip-path="url(#p9e829430ef)" d="M 584.337232 557.094757 
L 595.108084 557.094757 
L 595.108084 544.94794 
L 584.337232 544.94794 
z
" style="fill:#96c69a;fill-opacity:0.5;stroke:#ffffff;stroke-linejoin:miter;stroke-width:1.214682;"/>
   </g>
   <g id="patch_26">
    <path clip-path="url(#p9e829430ef)" d="M 584.337232 544.94794 
L 603.724765 544.94794 
L 603.724765 532.801124 
L 584.337232 532.801124 
z
" style="fill:#96c69a;fill-opacity:0.5;stroke:#ffffff;stroke-linejoin:miter;stroke-width:1.214682;"/>
   </g>
   <g id="patch_27">
    <path clip-path="url(#p9e829430ef)" d="M 584.337232 532.801124 
L 622.681465 532.801124 
L 622.681465 520.654307 
L 584.337232 520.654307 
z
" style="fill:#96c69a;fill-opacity:0.5;stroke:#ffffff;stroke-linejoin:miter;stroke-width:1.214682;"/>
   </g>
   <g id="patch_28">
    <path clip-path="url(#p9e829430ef)" d="M 584.337232 520.654307 
L 632.590648 520.654307 
L 632.590648 508.507491 
L 584.337232 508.507491 
z
" style="fill:#96c69a;fill-opacity:0.5;stroke:#ffffff;stroke-linejoin:miter;stroke-width:1.214682;"/>
   </g>
   <g id="patch_29">
    <path clip-path="url(#p9e829430ef)" d="M 584.337232 508.507491 
L 639.483993 508.507491 
L 639.483993 496.360675 
L 584.337232 496.360675 
z
" style="fill:#96c69a;fill-opacity:0.5;stroke:#ffffff;stroke-linejoin:miter;stroke-width:1.214682;"/>
   </g>
   <g id="patch_30">
    <path clip-path="url(#p9e829430ef)" d="M 584.337232 496.360675 
L 654.99402 496.360675 
L 654.99402 484.213858 
L 584.337232 484.213858 
z
" style="fill:#96c69a;fill-opacity:0.5;stroke:#ffffff;stroke-linejoin:miter;stroke-width:1.214682;"/>
   </g>
   <g id="patch_31">
    <path clip-path="url(#p9e829430ef)" d="M 584.337232 484.213858 
L 663.610702 484.213858 
L 663.610702 472.067042 
L 584.337232 472.067042 
z
" style="fill:#96c69a;fill-opacity:0.5;stroke:#ffffff;stroke-linejoin:miter;stroke-width:1.214682;"/>
   </g>
   <g id="patch_32">
    <path clip-path="url(#p9e829430ef)" d="M 584.337232 472.067042 
L 653.701518 472.067042 
L 653.701518 459.920225 
L 584.337232 459.920225 
z
" style="fill:#96c69a;fill-opacity:0.5;stroke:#ffffff;stroke-linejoin:miter;stroke-width:1.214682;"/>
   </g>
   <g id="patch_33">
    <path clip-path="url(#p9e829430ef)" d="M 584.337232 459.920225 
L 656.286522 459.920225 
L 656.286522 447.773409 
L 584.337232 447.773409 
z
" style="fill:#96c69a;fill-opacity:0.5;stroke:#ffffff;stroke-linejoin:miter;stroke-width:1.214682;"/>
   </g>
   <g id="patch_34">
    <path clip-path="url(#p9e829430ef)" d="M 584.337232 447.773409 
L 652.409016 447.773409 
L 652.409016 435.626592 
L 584.337232 435.626592 
z
" style="fill:#96c69a;fill-opacity:0.5;stroke:#ffffff;stroke-linejoin:miter;stroke-width:1.214682;"/>
   </g>
   <g id="patch_35">
    <path clip-path="url(#p9e829430ef)" d="M 584.337232 435.626592 
L 642.068998 435.626592 
L 642.068998 423.479776 
L 584.337232 423.479776 
z
" style="fill:#96c69a;fill-opacity:0.5;stroke:#ffffff;stroke-linejoin:miter;stroke-width:1.214682;"/>
   </g>
   <g id="patch_36">
    <path clip-path="url(#p9e829430ef)" d="M 584.337232 423.479776 
L 635.175653 423.479776 
L 635.175653 411.33296 
L 584.337232 411.33296 
z
" style="fill:#96c69a;fill-opacity:0.5;stroke:#ffffff;stroke-linejoin:miter;stroke-width:1.214682;"/>
   </g>
   <g id="patch_37">
    <path clip-path="url(#p9e829430ef)" d="M 584.337232 411.33296 
L 626.128137 411.33296 
L 626.128137 399.186143 
L 584.337232 399.186143 
z
" style="fill:#96c69a;fill-opacity:0.5;stroke:#ffffff;stroke-linejoin:miter;stroke-width:1.214682;"/>
   </g>
   <g id="patch_38">
    <path clip-path="url(#p9e829430ef)" d="M 584.337232 399.186143 
L 623.112299 399.186143 
L 623.112299 387.039327 
L 584.337232 387.039327 
z
" style="fill:#96c69a;fill-opacity:0.5;stroke:#ffffff;stroke-linejoin:miter;stroke-width:1.214682;"/>
   </g>
   <g id="patch_39">
    <path clip-path="url(#p9e829430ef)" d="M 584.337232 387.039327 
L 614.064783 387.039327 
L 614.064783 374.89251 
L 584.337232 374.89251 
z
" style="fill:#96c69a;fill-opacity:0.5;stroke:#ffffff;stroke-linejoin:miter;stroke-width:1.214682;"/>
   </g>
   <g id="patch_40">
    <path clip-path="url(#p9e829430ef)" d="M 584.337232 374.89251 
L 608.033106 374.89251 
L 608.033106 362.745694 
L 584.337232 362.745694 
z
" style="fill:#96c69a;fill-opacity:0.5;stroke:#ffffff;stroke-linejoin:miter;stroke-width:1.214682;"/>
   </g>
   <g id="patch_41">
    <path clip-path="url(#p9e829430ef)" d="M 584.337232 362.745694 
L 601.139761 362.745694 
L 601.139761 350.598878 
L 584.337232 350.598878 
z
" style="fill:#96c69a;fill-opacity:0.5;stroke:#ffffff;stroke-linejoin:miter;stroke-width:1.214682;"/>
   </g>
   <g id="patch_42">
    <path clip-path="url(#p9e829430ef)" d="M 584.337232 350.598878 
L 597.693088 350.598878 
L 597.693088 338.452061 
L 584.337232 338.452061 
z
" style="fill:#96c69a;fill-opacity:0.5;stroke:#ffffff;stroke-linejoin:miter;stroke-width:1.214682;"/>
   </g>
   <g id="patch_43">
    <path clip-path="url(#p9e829430ef)" d="M 584.337232 338.452061 
L 600.278093 338.452061 
L 600.278093 326.305245 
L 584.337232 326.305245 
z
" style="fill:#96c69a;fill-opacity:0.5;stroke:#ffffff;stroke-linejoin:miter;stroke-width:1.214682;"/>
   </g>
   <g id="patch_44">
    <path clip-path="url(#p9e829430ef)" d="M 584.337232 326.305245 
L 591.230577 326.305245 
L 591.230577 314.158428 
L 584.337232 314.158428 
z
" style="fill:#96c69a;fill-opacity:0.5;stroke:#ffffff;stroke-linejoin:miter;stroke-width:1.214682;"/>
   </g>
   <g id="patch_45">
    <path clip-path="url(#p9e829430ef)" d="M 584.337232 314.158428 
L 589.076407 314.158428 
L 589.076407 302.011612 
L 584.337232 302.011612 
z
" style="fill:#96c69a;fill-opacity:0.5;stroke:#ffffff;stroke-linejoin:miter;stroke-width:1.214682;"/>
   </g>
   <g id="patch_46">
    <path clip-path="url(#p9e829430ef)" d="M 584.337232 302.011612 
L 588.645573 302.011612 
L 588.645573 289.864795 
L 584.337232 289.864795 
z
" style="fill:#96c69a;fill-opacity:0.5;stroke:#ffffff;stroke-linejoin:miter;stroke-width:1.214682;"/>
   </g>
   <g id="patch_47">
    <path clip-path="url(#p9e829430ef)" d="M 584.337232 289.864795 
L 589.076407 289.864795 
L 589.076407 277.717979 
L 584.337232 277.717979 
z
" style="fill:#96c69a;fill-opacity:0.5;stroke:#ffffff;stroke-linejoin:miter;stroke-width:1.214682;"/>
   </g>
   <g id="patch_48">
    <path clip-path="url(#p9e829430ef)" d="M 584.337232 277.717979 
L 586.491403 277.717979 
L 586.491403 265.571163 
L 584.337232 265.571163 
z
" style="fill:#96c69a;fill-opacity:0.5;stroke:#ffffff;stroke-linejoin:miter;stroke-width:1.214682;"/>
   </g>
   <g id="patch_49">
    <path clip-path="url(#p9e829430ef)" d="M 584.337232 265.571163 
L 586.060568 265.571163 
L 586.060568 253.424346 
L 584.337232 253.424346 
z
" style="fill:#96c69a;fill-opacity:0.5;stroke:#ffffff;stroke-linejoin:miter;stroke-width:1.214682;"/>
   </g>
   <g id="patch_50">
    <path clip-path="url(#p9e829430ef)" d="M 584.337232 253.424346 
L 588.214739 253.424346 
L 588.214739 241.27753 
L 584.337232 241.27753 
z
" style="fill:#96c69a;fill-opacity:0.5;stroke:#ffffff;stroke-linejoin:miter;stroke-width:1.214682;"/>
   </g>
   <g id="patch_51">
    <path clip-path="url(#p9e829430ef)" d="M 584.337232 241.27753 
L 586.060568 241.27753 
L 586.060568 229.130713 
L 584.337232 229.130713 
z
" style="fill:#96c69a;fill-opacity:0.5;stroke:#ffffff;stroke-linejoin:miter;stroke-width:1.214682;"/>
   </g>
   <g id="patch_52">
    <path clip-path="url(#p9e829430ef)" d="M 584.337232 229.130713 
L 585.1989 229.130713 
L 585.1989 216.983897 
L 584.337232 216.983897 
z
" style="fill:#96c69a;fill-opacity:0.5;stroke:#ffffff;stroke-linejoin:miter;stroke-width:1.214682;"/>
   </g>
   <g id="patch_53">
    <path clip-path="url(#p9e829430ef)" d="M 584.337232 216.983897 
L 585.629734 216.983897 
L 585.629734 204.83708 
L 584.337232 204.83708 
z
" style="fill:#96c69a;fill-opacity:0.5;stroke:#ffffff;stroke-linejoin:miter;stroke-width:1.214682;"/>
   </g>
   <g id="patch_54">
    <path clip-path="url(#p9e829430ef)" d="M 584.337232 204.83708 
L 584.337232 204.83708 
L 584.337232 192.690264 
L 584.337232 192.690264 
z
" style="fill:#96c69a;fill-opacity:0.5;stroke:#ffffff;stroke-linejoin:miter;stroke-width:1.214682;"/>
   </g>
   <g id="patch_55">
    <path clip-path="url(#p9e829430ef)" d="M 584.337232 192.690264 
L 584.768066 192.690264 
L 584.768066 180.543448 
L 584.337232 180.543448 
z
" style="fill:#96c69a;fill-opacity:0.5;stroke:#ffffff;stroke-linejoin:miter;stroke-width:1.214682;"/>
   </g>
   <g id="patch_56">
    <path clip-path="url(#p9e829430ef)" d="M 584.337232 180.543448 
L 584.337232 180.543448 
L 584.337232 168.396631 
L 584.337232 168.396631 
z
" style="fill:#96c69a;fill-opacity:0.5;stroke:#ffffff;stroke-linejoin:miter;stroke-width:1.214682;"/>
   </g>
   <g id="patch_57">
    <path clip-path="url(#p9e829430ef)" d="M 584.337232 168.396631 
L 584.337232 168.396631 
L 584.337232 156.249815 
L 584.337232 156.249815 
z
" style="fill:#96c69a;fill-opacity:0.5;stroke:#ffffff;stroke-linejoin:miter;stroke-width:1.214682;"/>
   </g>
   <g id="patch_58">
    <path clip-path="url(#p9e829430ef)" d="M 584.337232 156.249815 
L 584.768066 156.249815 
L 584.768066 144.102998 
L 584.337232 144.102998 
z
" style="fill:#96c69a;fill-opacity:0.5;stroke:#ffffff;stroke-linejoin:miter;stroke-width:1.214682;"/>
   </g>
   <g id="patch_59">
    <path clip-path="url(#p9e829430ef)" d="M 584.337232 144.102998 
L 584.768066 144.102998 
L 584.768066 131.956182 
L 584.337232 131.956182 
z
" style="fill:#96c69a;fill-opacity:0.5;stroke:#ffffff;stroke-linejoin:miter;stroke-width:1.214682;"/>
   </g>
   <g id="patch_60">
    <path d="M 584.337232 603.86 
L 584.337232 109.484571 
" style="fill:none;stroke:#262626;stroke-linecap:square;stroke-linejoin:miter;stroke-width:2.5;"/>
   </g>
   <g id="patch_61">
    <path d="M 584.337232 603.86 
L 667.574375 603.86 
" style="fill:none;stroke:#262626;stroke-linecap:square;stroke-linejoin:miter;stroke-width:2.5;"/>
   </g>
  </g>
 </g>
 <defs>
  <clipPath id="p3454e45fa5">
   <rect height="494.375429" width="482.775429" x="84.914375" y="109.484571"/>
  </clipPath>
  <clipPath id="p7bac69a339">
   <rect height="85.237143" width="482.775429" x="84.914375" y="7.2"/>
  </clipPath>
  <clipPath id="p9e829430ef">
   <rect height="494.375429" width="83.237143" x="584.337232" y="109.484571"/>
  </clipPath>
 </defs>
</svg>
