<?xml version="1.0" encoding="utf-8" standalone="no"?>
<!DOCTYPE svg PUBLIC "-//W3C//DTD SVG 1.1//EN"
  "http://www.w3.org/Graphics/SVG/1.1/DTD/svg11.dtd">
<svg height="675.079375pt" version="1.1" viewBox="0 0 688.771875 675.079375" width="688.771875pt" xmlns="http://www.w3.org/2000/svg" xmlns:xlink="http://www.w3.org/1999/xlink">
 <metadata>
  <rdf:RDF xmlns:cc="http://creativecommons.org/ns#" xmlns:dc="http://purl.org/dc/elements/1.1/" xmlns:rdf="http://www.w3.org/1999/02/22-rdf-syntax-ns#">
   <cc:Work>
    <dc:type rdf:resource="http://purl.org/dc/dcmitype/StillImage"/>
    <dc:date>2021-07-16T21:43:57.575729</dc:date>
    <dc:format>image/svg+xml</dc:format>
    <dc:creator>
     <cc:Agent>
      <dc:title>Matplotlib v3.4.2, https://matplotlib.org/</dc:title>
     </cc:Agent>
    </dc:creator>
   </cc:Work>
  </rdf:RDF>
 </metadata>
 <defs>
  <style type="text/css">*{stroke-linecap:butt;stroke-linejoin:round;}</style>
 </defs>
 <g id="figure_1">
  <g id="patch_1">
   <path d="M 0 675.079375 
L 688.771875 675.079375 
L 688.771875 0 
L 0 0 
z
" style="fill:#ffffff;"/>
  </g>
  <g id="axes_1">
   <g id="patch_2">
    <path d="M 98.911875 603.86 
L 581.687304 603.86 
L 581.687304 109.484571 
L 98.911875 109.484571 
z
" style="fill:none;"/>
   </g>
   <g id="matplotlib.axis_1">
    <g id="xtick_1">
     <g id="text_1">
      <!-- 0 -->
      <g style="fill:#262626;" transform="translate(113.63791 636.076563)scale(0.22 -0.22)">
       <defs>
        <path d="M 2034 4250 
Q 1547 4250 1301 3770 
Q 1056 3291 1056 2328 
Q 1056 1369 1301 889 
Q 1547 409 2034 409 
Q 2525 409 2770 889 
Q 3016 1369 3016 2328 
Q 3016 3291 2770 3770 
Q 2525 4250 2034 4250 
z
M 2034 4750 
Q 2819 4750 3233 4129 
Q 3647 3509 3647 2328 
Q 3647 1150 3233 529 
Q 2819 -91 2034 -91 
Q 1250 -91 836 529 
Q 422 1150 422 2328 
Q 422 3509 836 4129 
Q 1250 4750 2034 4750 
z
" id="DejaVuSans-30" transform="scale(0.015625)"/>
       </defs>
       <use xlink:href="#DejaVuSans-30"/>
      </g>
     </g>
    </g>
    <g id="xtick_2">
     <g id="text_2">
      <!-- 20000 -->
      <g style="fill:#262626;" transform="translate(173.464171 636.076563)scale(0.22 -0.22)">
       <defs>
        <path d="M 1228 531 
L 3431 531 
L 3431 0 
L 469 0 
L 469 531 
Q 828 903 1448 1529 
Q 2069 2156 2228 2338 
Q 2531 2678 2651 2914 
Q 2772 3150 2772 3378 
Q 2772 3750 2511 3984 
Q 2250 4219 1831 4219 
Q 1534 4219 1204 4116 
Q 875 4013 500 3803 
L 500 4441 
Q 881 4594 1212 4672 
Q 1544 4750 1819 4750 
Q 2544 4750 2975 4387 
Q 3406 4025 3406 3419 
Q 3406 3131 3298 2873 
Q 3191 2616 2906 2266 
Q 2828 2175 2409 1742 
Q 1991 1309 1228 531 
z
" id="DejaVuSans-32" transform="scale(0.015625)"/>
       </defs>
       <use xlink:href="#DejaVuSans-32"/>
       <use x="63.623047" xlink:href="#DejaVuSans-30"/>
       <use x="127.246094" xlink:href="#DejaVuSans-30"/>
       <use x="190.869141" xlink:href="#DejaVuSans-30"/>
       <use x="254.492188" xlink:href="#DejaVuSans-30"/>
      </g>
     </g>
    </g>
    <g id="xtick_3">
     <g id="text_3">
      <!-- 40000 -->
      <g style="fill:#262626;" transform="translate(261.285432 636.076563)scale(0.22 -0.22)">
       <defs>
        <path d="M 2419 4116 
L 825 1625 
L 2419 1625 
L 2419 4116 
z
M 2253 4666 
L 3047 4666 
L 3047 1625 
L 3713 1625 
L 3713 1100 
L 3047 1100 
L 3047 0 
L 2419 0 
L 2419 1100 
L 313 1100 
L 313 1709 
L 2253 4666 
z
" id="DejaVuSans-34" transform="scale(0.015625)"/>
       </defs>
       <use xlink:href="#DejaVuSans-34"/>
       <use x="63.623047" xlink:href="#DejaVuSans-30"/>
       <use x="127.246094" xlink:href="#DejaVuSans-30"/>
       <use x="190.869141" xlink:href="#DejaVuSans-30"/>
       <use x="254.492188" xlink:href="#DejaVuSans-30"/>
      </g>
     </g>
    </g>
    <g id="xtick_4">
     <g id="text_4">
      <!-- 60000 -->
      <g style="fill:#262626;" transform="translate(349.106693 636.076563)scale(0.22 -0.22)">
       <defs>
        <path d="M 2113 2584 
Q 1688 2584 1439 2293 
Q 1191 2003 1191 1497 
Q 1191 994 1439 701 
Q 1688 409 2113 409 
Q 2538 409 2786 701 
Q 3034 994 3034 1497 
Q 3034 2003 2786 2293 
Q 2538 2584 2113 2584 
z
M 3366 4563 
L 3366 3988 
Q 3128 4100 2886 4159 
Q 2644 4219 2406 4219 
Q 1781 4219 1451 3797 
Q 1122 3375 1075 2522 
Q 1259 2794 1537 2939 
Q 1816 3084 2150 3084 
Q 2853 3084 3261 2657 
Q 3669 2231 3669 1497 
Q 3669 778 3244 343 
Q 2819 -91 2113 -91 
Q 1303 -91 875 529 
Q 447 1150 447 2328 
Q 447 3434 972 4092 
Q 1497 4750 2381 4750 
Q 2619 4750 2861 4703 
Q 3103 4656 3366 4563 
z
" id="DejaVuSans-36" transform="scale(0.015625)"/>
       </defs>
       <use xlink:href="#DejaVuSans-36"/>
       <use x="63.623047" xlink:href="#DejaVuSans-30"/>
       <use x="127.246094" xlink:href="#DejaVuSans-30"/>
       <use x="190.869141" xlink:href="#DejaVuSans-30"/>
       <use x="254.492188" xlink:href="#DejaVuSans-30"/>
      </g>
     </g>
    </g>
    <g id="xtick_5">
     <g id="text_5">
      <!-- 80000 -->
      <g style="fill:#262626;" transform="translate(436.927955 636.076563)scale(0.22 -0.22)">
       <defs>
        <path d="M 2034 2216 
Q 1584 2216 1326 1975 
Q 1069 1734 1069 1313 
Q 1069 891 1326 650 
Q 1584 409 2034 409 
Q 2484 409 2743 651 
Q 3003 894 3003 1313 
Q 3003 1734 2745 1975 
Q 2488 2216 2034 2216 
z
M 1403 2484 
Q 997 2584 770 2862 
Q 544 3141 544 3541 
Q 544 4100 942 4425 
Q 1341 4750 2034 4750 
Q 2731 4750 3128 4425 
Q 3525 4100 3525 3541 
Q 3525 3141 3298 2862 
Q 3072 2584 2669 2484 
Q 3125 2378 3379 2068 
Q 3634 1759 3634 1313 
Q 3634 634 3220 271 
Q 2806 -91 2034 -91 
Q 1263 -91 848 271 
Q 434 634 434 1313 
Q 434 1759 690 2068 
Q 947 2378 1403 2484 
z
M 1172 3481 
Q 1172 3119 1398 2916 
Q 1625 2713 2034 2713 
Q 2441 2713 2670 2916 
Q 2900 3119 2900 3481 
Q 2900 3844 2670 4047 
Q 2441 4250 2034 4250 
Q 1625 4250 1398 4047 
Q 1172 3844 1172 3481 
z
" id="DejaVuSans-38" transform="scale(0.015625)"/>
       </defs>
       <use xlink:href="#DejaVuSans-38"/>
       <use x="63.623047" xlink:href="#DejaVuSans-30"/>
       <use x="127.246094" xlink:href="#DejaVuSans-30"/>
       <use x="190.869141" xlink:href="#DejaVuSans-30"/>
       <use x="254.492188" xlink:href="#DejaVuSans-30"/>
      </g>
     </g>
    </g>
    <g id="xtick_6">
     <g id="text_6">
      <!-- 100000 -->
      <g style="fill:#262626;" transform="translate(517.750466 636.076563)scale(0.22 -0.22)">
       <defs>
        <path d="M 794 531 
L 1825 531 
L 1825 4091 
L 703 3866 
L 703 4441 
L 1819 4666 
L 2450 4666 
L 2450 531 
L 3481 531 
L 3481 0 
L 794 0 
L 794 531 
z
" id="DejaVuSans-31" transform="scale(0.015625)"/>
       </defs>
       <use xlink:href="#DejaVuSans-31"/>
       <use x="63.623047" xlink:href="#DejaVuSans-30"/>
       <use x="127.246094" xlink:href="#DejaVuSans-30"/>
       <use x="190.869141" xlink:href="#DejaVuSans-30"/>
       <use x="254.492188" xlink:href="#DejaVuSans-30"/>
       <use x="318.115234" xlink:href="#DejaVuSans-30"/>
      </g>
     </g>
    </g>
    <g id="text_7">
     <!-- MDTU -->
     <g style="fill:#262626;" transform="translate(304.593964 662.888125)scale(0.24 -0.24)">
      <defs>
       <path d="M 628 4666 
L 1569 4666 
L 2759 1491 
L 3956 4666 
L 4897 4666 
L 4897 0 
L 4281 0 
L 4281 4097 
L 3078 897 
L 2444 897 
L 1241 4097 
L 1241 0 
L 628 0 
L 628 4666 
z
" id="DejaVuSans-4d" transform="scale(0.015625)"/>
       <path d="M 1259 4147 
L 1259 519 
L 2022 519 
Q 2988 519 3436 956 
Q 3884 1394 3884 2338 
Q 3884 3275 3436 3711 
Q 2988 4147 2022 4147 
L 1259 4147 
z
M 628 4666 
L 1925 4666 
Q 3281 4666 3915 4102 
Q 4550 3538 4550 2338 
Q 4550 1131 3912 565 
Q 3275 0 1925 0 
L 628 0 
L 628 4666 
z
" id="DejaVuSans-44" transform="scale(0.015625)"/>
       <path d="M -19 4666 
L 3928 4666 
L 3928 4134 
L 2272 4134 
L 2272 0 
L 1638 0 
L 1638 4134 
L -19 4134 
L -19 4666 
z
" id="DejaVuSans-54" transform="scale(0.015625)"/>
       <path d="M 556 4666 
L 1191 4666 
L 1191 1831 
Q 1191 1081 1462 751 
Q 1734 422 2344 422 
Q 2950 422 3222 751 
Q 3494 1081 3494 1831 
L 3494 4666 
L 4128 4666 
L 4128 1753 
Q 4128 841 3676 375 
Q 3225 -91 2344 -91 
Q 1459 -91 1007 375 
Q 556 841 556 1753 
L 556 4666 
z
" id="DejaVuSans-55" transform="scale(0.015625)"/>
      </defs>
      <use xlink:href="#DejaVuSans-4d"/>
      <use x="86.279297" xlink:href="#DejaVuSans-44"/>
      <use x="163.28125" xlink:href="#DejaVuSans-54"/>
      <use x="224.365234" xlink:href="#DejaVuSans-55"/>
     </g>
    </g>
   </g>
   <g id="matplotlib.axis_2">
    <g id="ytick_1">
     <g id="text_8">
      <!-- 0.25 -->
      <g style="fill:#262626;" transform="translate(34.4275 588.786126)scale(0.22 -0.22)">
       <defs>
        <path d="M 684 794 
L 1344 794 
L 1344 0 
L 684 0 
L 684 794 
z
" id="DejaVuSans-2e" transform="scale(0.015625)"/>
        <path d="M 691 4666 
L 3169 4666 
L 3169 4134 
L 1269 4134 
L 1269 2991 
Q 1406 3038 1543 3061 
Q 1681 3084 1819 3084 
Q 2600 3084 3056 2656 
Q 3513 2228 3513 1497 
Q 3513 744 3044 326 
Q 2575 -91 1722 -91 
Q 1428 -91 1123 -41 
Q 819 9 494 109 
L 494 744 
Q 775 591 1075 516 
Q 1375 441 1709 441 
Q 2250 441 2565 725 
Q 2881 1009 2881 1497 
Q 2881 1984 2565 2268 
Q 2250 2553 1709 2553 
Q 1456 2553 1204 2497 
Q 953 2441 691 2322 
L 691 4666 
z
" id="DejaVuSans-35" transform="scale(0.015625)"/>
       </defs>
       <use xlink:href="#DejaVuSans-30"/>
       <use x="63.623047" xlink:href="#DejaVuSans-2e"/>
       <use x="95.410156" xlink:href="#DejaVuSans-32"/>
       <use x="159.033203" xlink:href="#DejaVuSans-35"/>
      </g>
     </g>
    </g>
    <g id="ytick_2">
     <g id="text_9">
      <!-- 0.50 -->
      <g style="fill:#262626;" transform="translate(34.4275 528.95158)scale(0.22 -0.22)">
       <use xlink:href="#DejaVuSans-30"/>
       <use x="63.623047" xlink:href="#DejaVuSans-2e"/>
       <use x="95.410156" xlink:href="#DejaVuSans-35"/>
       <use x="159.033203" xlink:href="#DejaVuSans-30"/>
      </g>
     </g>
    </g>
    <g id="ytick_3">
     <g id="text_10">
      <!-- 0.75 -->
      <g style="fill:#262626;" transform="translate(34.4275 469.117034)scale(0.22 -0.22)">
       <defs>
        <path d="M 525 4666 
L 3525 4666 
L 3525 4397 
L 1831 0 
L 1172 0 
L 2766 4134 
L 525 4134 
L 525 4666 
z
" id="DejaVuSans-37" transform="scale(0.015625)"/>
       </defs>
       <use xlink:href="#DejaVuSans-30"/>
       <use x="63.623047" xlink:href="#DejaVuSans-2e"/>
       <use x="95.410156" xlink:href="#DejaVuSans-37"/>
       <use x="159.033203" xlink:href="#DejaVuSans-35"/>
      </g>
     </g>
    </g>
    <g id="ytick_4">
     <g id="text_11">
      <!-- 1.00 -->
      <g style="fill:#262626;" transform="translate(34.4275 409.282489)scale(0.22 -0.22)">
       <use xlink:href="#DejaVuSans-31"/>
       <use x="63.623047" xlink:href="#DejaVuSans-2e"/>
       <use x="95.410156" xlink:href="#DejaVuSans-30"/>
       <use x="159.033203" xlink:href="#DejaVuSans-30"/>
      </g>
     </g>
    </g>
    <g id="ytick_5">
     <g id="text_12">
      <!-- 1.25 -->
      <g style="fill:#262626;" transform="translate(34.4275 349.447943)scale(0.22 -0.22)">
       <use xlink:href="#DejaVuSans-31"/>
       <use x="63.623047" xlink:href="#DejaVuSans-2e"/>
       <use x="95.410156" xlink:href="#DejaVuSans-32"/>
       <use x="159.033203" xlink:href="#DejaVuSans-35"/>
      </g>
     </g>
    </g>
    <g id="ytick_6">
     <g id="text_13">
      <!-- 1.50 -->
      <g style="fill:#262626;" transform="translate(34.4275 289.613397)scale(0.22 -0.22)">
       <use xlink:href="#DejaVuSans-31"/>
       <use x="63.623047" xlink:href="#DejaVuSans-2e"/>
       <use x="95.410156" xlink:href="#DejaVuSans-35"/>
       <use x="159.033203" xlink:href="#DejaVuSans-30"/>
      </g>
     </g>
    </g>
    <g id="ytick_7">
     <g id="text_14">
      <!-- 1.75 -->
      <g style="fill:#262626;" transform="translate(34.4275 229.778852)scale(0.22 -0.22)">
       <use xlink:href="#DejaVuSans-31"/>
       <use x="63.623047" xlink:href="#DejaVuSans-2e"/>
       <use x="95.410156" xlink:href="#DejaVuSans-37"/>
       <use x="159.033203" xlink:href="#DejaVuSans-35"/>
      </g>
     </g>
    </g>
    <g id="ytick_8">
     <g id="text_15">
      <!-- 2.00 -->
      <g style="fill:#262626;" transform="translate(34.4275 169.944306)scale(0.22 -0.22)">
       <use xlink:href="#DejaVuSans-32"/>
       <use x="63.623047" xlink:href="#DejaVuSans-2e"/>
       <use x="95.410156" xlink:href="#DejaVuSans-30"/>
       <use x="159.033203" xlink:href="#DejaVuSans-30"/>
      </g>
     </g>
    </g>
    <g id="text_16">
     <!-- $E$ -->
     <g style="fill:#262626;" transform="translate(25.43625 364.352286)rotate(-90)scale(0.24 -0.24)">
      <defs>
       <path d="M 1081 4666 
L 4031 4666 
L 3928 4134 
L 1606 4134 
L 1338 2753 
L 3566 2753 
L 3463 2222 
L 1234 2222 
L 909 531 
L 3284 531 
L 3181 0 
L 172 0 
L 1081 4666 
z
" id="DejaVuSans-Oblique-45" transform="scale(0.015625)"/>
      </defs>
      <use transform="translate(0 0.09375)" xlink:href="#DejaVuSans-Oblique-45"/>
     </g>
    </g>
   </g>
   <g id="line2d_1">
    <path clip-path="url(#pfe60c446d6)" d="M 120.856213 456.076497 
L 121.075766 466.093001 
L 121.295319 390.92639 
L 121.514872 467.975638 
L 121.734425 463.942639 
L 121.953978 486.965858 
L 122.173532 448.565331 
L 122.612638 424.017447 
L 122.832191 421.965795 
L 123.051744 386.300185 
L 123.271297 478.573631 
L 123.490851 441.335143 
L 123.710404 477.311754 
L 123.929957 459.38828 
L 124.14951 503.196746 
L 124.369063 416.946039 
L 124.808169 539.172352 
L 125.027723 474.543529 
L 125.247276 516.519032 
L 125.466829 513.59366 
L 125.686382 341.679908 
L 125.905935 421.376101 
L 126.345041 473.32944 
L 126.564595 476.164093 
L 126.784148 552.488821 
L 127.003701 444.80544 
L 127.223254 498.780668 
L 127.442807 358.574222 
L 127.881914 548.936736 
L 128.101467 522.479479 
L 128.32102 510.810944 
L 128.760126 435.650368 
L 128.979679 516.234202 
L 129.199232 447.916524 
L 129.418786 524.497019 
L 129.638339 483.222392 
L 129.857892 526.182256 
L 130.077445 369.591256 
L 130.296998 528.705796 
L 130.516551 489.024426 
L 130.736105 488.607684 
L 130.955658 528.737139 
L 131.175211 404.791952 
L 131.614317 530.182624 
L 131.83387 432.216517 
L 132.053423 479.7952 
L 132.272977 486.98928 
L 132.49253 403.33335 
L 132.712083 459.460725 
L 132.931636 410.859679 
L 133.151189 492.653568 
L 133.370742 496.84937 
L 133.590296 535.888772 
L 133.809849 510.333786 
L 134.248955 442.537982 
L 134.468508 454.886004 
L 134.688061 486.949742 
L 134.907614 441.799815 
L 135.127168 425.371844 
L 135.346721 434.315607 
L 135.566274 347.571827 
L 135.785827 497.767018 
L 136.00538 451.939711 
L 136.224933 462.612117 
L 136.444487 516.301964 
L 136.66404 516.195511 
L 136.883593 482.44662 
L 137.103146 561.405153 
L 137.322699 428.607254 
L 137.542252 390.085095 
L 137.761805 518.986084 
L 137.981359 530.850624 
L 138.200912 511.801373 
L 138.420465 466.91815 
L 138.640018 479.24364 
L 138.859571 458.460647 
L 139.079124 508.598345 
L 139.298678 460.394786 
L 139.518231 483.079066 
L 139.737784 341.804421 
L 139.957337 456.27942 
L 140.17689 452.980475 
L 140.396443 509.459332 
L 140.615996 399.062609 
L 140.83555 439.434377 
L 141.055103 512.020577 
L 141.494209 539.017161 
L 141.713762 411.788324 
L 141.933315 456.974076 
L 142.152869 471.029035 
L 142.372422 543.205011 
L 142.591975 543.679978 
L 142.811528 518.605557 
L 143.031081 532.84604 
L 143.250634 528.801882 
L 143.470187 286.735502 
L 143.689741 295.642648 
L 143.909294 511.286061 
L 144.128847 488.068991 
L 144.3484 537.859996 
L 144.567953 497.732623 
L 144.787506 392.203519 
L 145.00706 398.205787 
L 145.226613 443.248257 
L 145.446166 455.935368 
L 145.665719 492.404632 
L 145.885272 461.945996 
L 146.104825 534.453835 
L 146.324378 549.021831 
L 146.543932 471.528774 
L 146.763485 470.704582 
L 146.983038 416.399033 
L 147.202591 520.433965 
L 147.422144 421.313073 
L 147.641697 470.363683 
L 147.861251 386.86294 
L 148.080804 469.417515 
L 148.300357 446.644377 
L 148.51991 509.766661 
L 148.739463 371.144779 
L 148.959016 518.70568 
L 149.178569 422.976139 
L 149.398123 526.332854 
L 149.617676 485.717121 
L 149.837229 373.084618 
L 150.056782 517.156994 
L 150.276335 221.57936 
L 150.495888 468.878622 
L 150.715441 477.589776 
L 150.934995 459.26517 
L 151.154548 540.108773 
L 151.374101 495.134834 
L 151.593654 530.480507 
L 151.813207 455.85144 
L 152.03276 432.374209 
L 152.252314 446.250386 
L 152.471867 529.224421 
L 152.69142 542.264842 
L 152.910973 499.751106 
L 153.130526 410.234037 
L 153.350079 518.508573 
L 153.569632 414.494924 
L 153.789186 477.966335 
L 154.008739 505.259351 
L 154.447845 261.818164 
L 154.667398 411.252688 
L 154.886951 420.192231 
L 155.106505 389.027476 
L 155.545611 474.029872 
L 155.765164 460.129244 
L 155.984717 563.477365 
L 156.20427 409.86176 
L 156.423823 394.115157 
L 156.643377 530.044586 
L 156.86293 418.793495 
L 157.082483 492.56709 
L 157.302036 398.909216 
L 157.521589 528.174361 
L 157.741142 210.042108 
L 157.960696 482.364488 
L 158.180249 298.32503 
L 158.399802 375.832337 
L 158.619355 287.594882 
L 159.058461 460.28727 
L 159.278014 359.37162 
L 159.497568 530.726267 
L 159.717121 511.64885 
L 159.936674 437.935923 
L 160.156227 536.709486 
L 160.37578 334.06847 
L 160.595333 478.58322 
L 160.814887 390.029943 
L 161.03444 552.851661 
L 161.253993 530.646223 
L 161.473546 391.389229 
L 161.693099 389.415831 
L 161.912652 409.228971 
L 162.132205 417.229476 
L 162.351759 492.891566 
L 162.571312 439.304955 
L 162.790865 485.447081 
L 163.010418 455.587692 
L 163.229971 408.796316 
L 163.449524 491.222046 
L 163.669078 397.717529 
L 163.888631 353.692595 
L 164.327737 510.563707 
L 164.54729 303.642863 
L 164.766843 448.343601 
L 164.986396 448.49756 
L 165.425503 483.899656 
L 165.645056 407.008714 
L 165.864609 512.096981 
L 166.084162 390.440905 
L 166.303715 457.047755 
L 166.523269 416.802911 
L 166.742822 481.288216 
L 166.962375 509.631284 
L 167.401481 417.554158 
L 167.621034 546.86024 
L 167.840587 420.470922 
L 168.060141 421.722924 
L 168.279694 461.377606 
L 168.499247 350.790295 
L 168.7188 512.988763 
L 168.938353 392.325263 
L 169.157906 570.198641 
L 170.036119 408.206014 
L 170.255672 504.301634 
L 170.475225 385.724069 
L 170.694778 481.771485 
L 170.914332 520.811699 
L 171.353438 443.40252 
L 171.572991 188.286818 
L 171.792544 498.716526 
L 172.012097 458.439456 
L 172.231651 498.486865 
L 172.451204 482.820912 
L 172.670757 390.61882 
L 172.89031 550.143315 
L 173.109863 502.484157 
L 173.329416 536.000037 
L 173.548969 505.991146 
L 173.768523 449.474685 
L 173.988076 512.102444 
L 174.207629 471.46046 
L 174.646735 294.005308 
L 174.866288 498.380952 
L 175.085842 406.95932 
L 175.305395 467.427591 
L 175.524948 469.370405 
L 175.744501 520.491501 
L 175.964054 413.121152 
L 176.183607 435.978097 
L 176.40316 316.202469 
L 176.622714 509.013364 
L 176.842267 285.742507 
L 177.06182 500.654738 
L 177.281373 479.554107 
L 177.500926 444.014099 
L 177.940032 506.505714 
L 178.379139 365.96381 
L 178.598692 246.857213 
L 178.818245 456.455404 
L 179.037798 541.191831 
L 179.257351 446.798823 
L 179.476905 540.761783 
L 179.696458 193.041759 
L 179.916011 437.47928 
L 180.135564 438.760741 
L 180.355117 406.456466 
L 180.57467 425.794481 
L 180.794223 404.285962 
L 181.013777 329.781798 
L 181.23333 496.916925 
L 181.452883 504.086269 
L 181.672436 408.309134 
L 181.891989 536.776724 
L 182.111542 488.147887 
L 182.331096 522.945916 
L 182.550649 512.343695 
L 182.770202 442.80126 
L 182.989755 500.406999 
L 183.209308 398.322859 
L 183.428861 462.776199 
L 183.648414 440.214143 
L 183.867968 471.233375 
L 184.087521 470.228616 
L 184.307074 553.662752 
L 184.526627 418.796778 
L 184.965733 371.422562 
L 185.185287 447.926276 
L 185.40484 377.951303 
L 185.624393 366.421275 
L 185.843946 556.071327 
L 186.063499 525.181283 
L 186.283052 402.165878 
L 186.502605 541.32232 
L 186.722159 505.265376 
L 186.941712 447.40023 
L 187.380818 511.229012 
L 187.600371 432.033482 
L 187.819924 449.816812 
L 188.039478 453.379726 
L 188.259031 453.810723 
L 188.478584 331.347851 
L 188.91769 510.247696 
L 189.137243 541.673956 
L 189.356796 401.796469 
L 189.57635 493.815601 
L 189.795903 419.584705 
L 190.015456 391.631555 
L 190.235009 510.363883 
L 190.454562 539.358321 
L 190.893669 349.71547 
L 191.332775 523.396652 
L 191.552328 515.701538 
L 191.771881 494.513566 
L 191.991434 557.577609 
L 192.430541 276.906333 
L 192.869647 446.712798 
L 193.0892 448.099658 
L 193.308753 461.221515 
L 193.528306 465.05379 
L 193.74786 483.990787 
L 193.967413 470.103798 
L 194.186966 347.272733 
L 194.626072 515.947056 
L 194.845625 490.277626 
L 195.065178 528.43937 
L 195.284732 463.140912 
L 195.723838 509.942369 
L 195.943391 421.971966 
L 196.162944 475.598059 
L 196.382497 306.200271 
L 196.602051 521.795618 
L 196.821604 502.23046 
L 197.041157 493.547949 
L 197.26071 536.608174 
L 197.480263 365.841924 
L 197.699816 363.288262 
L 197.919369 474.173975 
L 198.138923 160.965099 
L 198.358476 147.100101 
L 198.578029 436.869129 
L 198.797582 532.366904 
L 199.017135 507.986253 
L 199.236688 459.28029 
L 199.456242 486.852337 
L 199.675795 295.081911 
L 199.895348 555.56468 
L 200.114901 441.28156 
L 200.334454 462.858046 
L 200.554007 448.358132 
L 200.77356 464.279712 
L 200.993114 503.731107 
L 201.212667 350.894593 
L 201.43222 497.292345 
L 201.651773 411.455937 
L 201.871326 400.980136 
L 202.310432 512.288426 
L 202.529986 314.945207 
L 203.408198 510.542217 
L 203.627751 506.316963 
L 203.847305 308.281793 
L 204.066858 387.319218 
L 204.286411 377.430294 
L 204.505964 499.024378 
L 204.725517 473.429259 
L 204.94507 523.274388 
L 205.164623 491.608252 
L 205.384177 547.935204 
L 205.60373 500.696131 
L 205.823283 393.621789 
L 206.042836 494.450957 
L 206.262389 417.603188 
L 206.481942 442.509699 
L 206.701496 444.745498 
L 206.921049 549.708431 
L 207.360155 378.584889 
L 207.799261 532.860411 
L 208.018814 373.729524 
L 208.238368 465.137973 
L 208.457921 477.038064 
L 208.897027 581.38839 
L 209.11658 460.948422 
L 209.336133 472.114088 
L 209.555687 533.987312 
L 209.77524 463.615299 
L 210.214346 516.235713 
L 210.873005 395.38452 
L 211.312112 515.032963 
L 211.531665 466.660049 
L 211.751218 473.036473 
L 211.970771 517.930477 
L 212.190324 475.897145 
L 212.409878 471.144555 
L 212.629431 482.712778 
L 212.848984 509.66176 
L 213.068537 364.669147 
L 213.28809 468.098408 
L 213.507643 411.526738 
L 213.727196 426.894129 
L 213.94675 348.105258 
L 214.385856 534.270691 
L 214.824962 428.338108 
L 215.044515 407.204843 
L 215.264069 541.544697 
L 215.483622 378.004721 
L 215.703175 373.831108 
L 215.922728 548.195043 
L 216.142281 486.206186 
L 216.361834 360.67424 
L 216.581387 490.779369 
L 216.800941 426.867019 
L 217.020494 481.475035 
L 217.240047 465.194616 
L 217.4596 536.753657 
L 217.679153 361.088564 
L 217.898706 460.821406 
L 218.11826 389.210417 
L 218.557366 504.848919 
L 218.776919 432.820925 
L 218.996472 510.682514 
L 219.435578 407.355349 
L 219.655132 502.998627 
L 219.874685 506.397507 
L 220.094238 485.179904 
L 220.313791 376.302254 
L 220.533344 396.507427 
L 220.972451 471.977429 
L 221.192004 481.211657 
L 221.411557 485.022055 
L 221.63111 411.186206 
L 221.850663 464.859045 
L 222.070216 236.103518 
L 222.289769 414.50781 
L 222.728876 517.859319 
L 222.948429 496.65711 
L 223.167982 459.058278 
L 223.607088 540.547207 
L 223.826642 449.535402 
L 224.265748 424.135711 
L 224.485301 458.076387 
L 224.704854 537.387401 
L 224.924407 547.814737 
L 225.14396 443.804398 
L 225.363514 228.548753 
L 225.583067 370.358471 
L 225.80262 284.596136 
L 226.022173 545.571638 
L 226.241726 544.973339 
L 226.680833 385.748562 
L 226.900386 512.689022 
L 227.119939 507.287648 
L 227.339492 528.701155 
L 227.559045 451.95237 
L 227.778598 497.179215 
L 227.998151 510.036537 
L 228.217705 372.607199 
L 228.656811 564.633354 
L 228.876364 554.303808 
L 229.095917 370.283726 
L 229.31547 543.213662 
L 229.535023 459.162396 
L 229.754577 525.623486 
L 229.97413 471.666014 
L 230.193683 382.191663 
L 230.413236 533.400037 
L 230.632789 339.484932 
L 230.852342 497.754208 
L 231.071896 527.043721 
L 231.511002 425.078479 
L 231.730555 297.309802 
L 231.950108 535.345258 
L 232.169661 406.635471 
L 232.608768 493.779486 
L 232.828321 487.267311 
L 233.047874 545.432317 
L 233.48698 379.405089 
L 233.706533 493.15581 
L 233.926087 494.689148 
L 234.365193 521.057049 
L 234.584746 517.546732 
L 234.804299 467.598602 
L 235.023852 532.300404 
L 235.243405 499.214145 
L 235.462959 530.970386 
L 235.682512 391.070289 
L 235.902065 553.826639 
L 236.121618 409.827353 
L 236.341171 476.120014 
L 236.560724 354.952049 
L 236.780278 496.433059 
L 236.999831 473.736298 
L 237.219384 477.674194 
L 237.438937 329.12912 
L 237.65849 407.676576 
L 237.878043 431.104414 
L 238.097596 541.058696 
L 238.31715 389.156459 
L 238.536703 485.221914 
L 238.756256 529.453337 
L 238.975809 380.527578 
L 239.195362 385.669068 
L 239.634469 571.042549 
L 240.073575 466.841192 
L 240.293128 520.435375 
L 240.512681 484.787138 
L 240.732234 511.06854 
L 240.951787 476.282528 
L 241.171341 373.121705 
L 241.390894 409.219692 
L 241.610447 481.872459 
L 241.83 489.395896 
L 242.049553 383.188186 
L 242.269106 435.868096 
L 242.48866 429.469373 
L 242.708213 558.081658 
L 243.147319 342.910163 
L 243.366872 486.105012 
L 243.586425 345.506761 
L 243.805978 285.675859 
L 244.025532 487.783451 
L 244.245085 467.033309 
L 244.464638 465.476404 
L 244.684191 382.723365 
L 244.903744 394.538731 
L 245.562404 511.523337 
L 245.781957 519.112246 
L 246.00151 372.652931 
L 246.221063 482.378864 
L 246.440616 469.20564 
L 246.660169 500.555863 
L 246.879723 404.671023 
L 247.099276 532.048492 
L 247.538382 479.010653 
L 247.757935 515.623267 
L 247.977488 444.566382 
L 248.197042 513.448591 
L 248.416595 347.54847 
L 248.636148 537.542993 
L 248.855701 495.7033 
L 249.075254 525.120806 
L 249.294807 312.904851 
L 249.51436 569.124264 
L 249.953467 446.841728 
L 250.17302 484.150049 
L 250.392573 435.510166 
L 250.612126 357.52493 
L 250.831679 359.548364 
L 251.051233 434.899687 
L 251.270786 458.060898 
L 251.490339 528.49205 
L 251.709892 437.292371 
L 251.929445 496.549305 
L 252.148998 445.891904 
L 252.588105 519.381398 
L 252.807658 492.268656 
L 253.027211 516.553081 
L 253.466317 445.573315 
L 253.68587 469.635559 
L 253.905424 523.928226 
L 254.34453 327.647363 
L 254.564083 457.514165 
L 254.783636 491.435274 
L 255.003189 499.076197 
L 255.222742 555.071709 
L 255.442296 473.856241 
L 255.661849 471.634431 
L 255.881402 490.792103 
L 256.100955 485.196488 
L 256.320508 446.222342 
L 256.540061 460.004338 
L 256.759614 509.741194 
L 256.979168 513.577979 
L 257.198721 495.39732 
L 257.418274 495.571012 
L 257.85738 533.141067 
L 258.076933 479.623952 
L 258.296487 454.982147 
L 258.51604 484.676529 
L 258.735593 534.747166 
L 258.955146 466.757319 
L 259.174699 522.499527 
L 259.394252 354.786686 
L 259.613805 471.63392 
L 259.833359 484.634976 
L 260.052912 371.166557 
L 260.272465 464.661483 
L 260.492018 464.465953 
L 260.711571 455.988541 
L 260.931124 337.254699 
L 261.150678 471.07659 
L 261.370231 369.040563 
L 261.589784 367.457684 
L 261.809337 461.771193 
L 262.02889 502.103211 
L 262.248443 499.560063 
L 262.467996 511.969221 
L 262.68755 549.509911 
L 262.907103 505.749759 
L 263.126656 364.565101 
L 263.346209 511.482488 
L 263.565762 415.003471 
L 263.785315 529.455523 
L 264.004869 394.816498 
L 264.224422 527.162963 
L 264.443975 365.19025 
L 264.663528 521.949744 
L 264.883081 483.613504 
L 265.102634 399.752359 
L 265.761294 506.875198 
L 265.980847 493.435622 
L 266.2004 444.793931 
L 266.419953 422.021124 
L 266.639506 337.203317 
L 266.85906 534.277805 
L 267.078613 363.235661 
L 267.298166 522.006599 
L 267.517719 504.588884 
L 267.737272 516.636476 
L 267.956825 433.27833 
L 268.176378 428.873967 
L 268.395932 343.672384 
L 268.615485 440.79466 
L 268.835038 422.316736 
L 269.054591 497.911565 
L 269.274144 529.284692 
L 269.493697 521.293771 
L 269.713251 454.310368 
L 269.932804 489.819394 
L 270.152357 477.32183 
L 270.37191 444.91902 
L 270.591463 461.533479 
L 270.811016 518.661081 
L 271.030569 517.871914 
L 271.250123 525.822756 
L 271.469676 385.11861 
L 271.908782 522.867918 
L 272.128335 460.596602 
L 272.347888 452.101873 
L 272.567442 540.287417 
L 272.786995 403.849392 
L 273.006548 521.871993 
L 273.226101 469.758637 
L 273.445654 449.329609 
L 273.665207 403.261757 
L 273.88476 320.365198 
L 274.104314 460.861706 
L 274.323867 465.667738 
L 274.54342 325.535481 
L 274.762973 498.750827 
L 274.982526 478.903506 
L 275.202079 496.063708 
L 275.421633 496.648406 
L 275.641186 471.330661 
L 275.860739 557.810571 
L 276.080292 465.103536 
L 276.299845 453.42082 
L 276.519398 450.812866 
L 276.738951 417.710768 
L 276.958505 454.231916 
L 277.178058 442.432424 
L 277.397611 445.275554 
L 277.617164 441.254987 
L 277.836717 563.85681 
L 278.05627 461.784875 
L 278.275824 529.341857 
L 278.495377 507.953992 
L 278.71493 507.297753 
L 278.934483 472.178487 
L 279.154036 543.953623 
L 279.373589 542.826508 
L 279.593142 517.708998 
L 279.812696 443.843554 
L 280.032249 443.271691 
L 280.251802 416.118246 
L 280.471355 497.366161 
L 280.690908 517.471311 
L 280.910461 408.607226 
L 281.130014 514.505714 
L 281.349568 454.023398 
L 281.569121 511.221622 
L 281.788674 461.892903 
L 282.008227 458.245954 
L 282.22778 549.777983 
L 282.447333 402.130732 
L 282.666887 491.08544 
L 282.88644 506.736231 
L 283.325546 399.230226 
L 283.764652 527.873226 
L 283.984205 514.070392 
L 284.203759 434.923696 
L 284.423312 506.116606 
L 284.642865 368.274734 
L 284.862418 469.225936 
L 285.081971 459.6047 
L 285.301524 477.8599 
L 285.521078 420.04914 
L 285.740631 487.722538 
L 285.960184 489.460261 
L 286.179737 483.318515 
L 286.39929 360.366315 
L 286.618843 480.676706 
L 286.838396 526.481247 
L 287.05795 521.572945 
L 287.277503 364.434967 
L 287.497056 471.627438 
L 287.936162 414.606582 
L 288.375269 529.870934 
L 288.594822 537.644434 
L 289.033928 416.96553 
L 289.473034 490.0205 
L 289.692587 501.195113 
L 289.912141 478.093184 
L 290.131694 425.606902 
L 290.351247 495.454651 
L 290.5708 503.264129 
L 290.790353 360.054676 
L 291.22946 510.503834 
L 291.449013 423.16861 
L 291.668566 446.430002 
L 291.888119 521.0884 
L 292.107672 293.332469 
L 292.327225 379.517943 
L 292.546778 391.167233 
L 292.766332 529.577049 
L 292.985885 447.769421 
L 293.205438 566.235719 
L 293.424991 429.168833 
L 293.644544 431.254494 
L 293.864097 409.278826 
L 294.083651 188.295164 
L 294.74231 513.69246 
L 294.961863 446.016035 
L 295.181416 205.859245 
L 295.400969 385.009821 
L 295.840076 536.741586 
L 296.059629 424.95381 
L 296.279182 508.683826 
L 296.498735 530.565578 
L 296.718288 443.077031 
L 296.937842 553.711059 
L 297.157395 500.98593 
L 297.376948 513.92223 
L 297.596501 465.708667 
L 297.816054 518.438654 
L 298.035607 517.692387 
L 298.474714 407.098641 
L 298.694267 403.77149 
L 298.91382 522.71042 
L 299.133373 497.130496 
L 299.572479 430.984997 
L 299.792033 284.08478 
L 300.011586 462.632748 
L 300.450692 515.368513 
L 300.670245 432.522158 
L 301.109351 560.114219 
L 301.328905 513.908385 
L 301.548458 432.619792 
L 301.768011 471.566452 
L 301.987564 486.712724 
L 302.42667 355.816986 
L 302.646224 521.259502 
L 302.865777 424.862307 
L 303.08533 445.184536 
L 303.304883 535.657404 
L 303.524436 483.740568 
L 303.743989 380.005368 
L 304.183096 498.155259 
L 304.402649 518.803325 
L 304.622202 361.408651 
L 304.841755 488.848354 
L 305.061308 410.959834 
L 305.280861 491.080187 
L 305.500415 443.369606 
L 305.719968 429.451052 
L 305.939521 486.178921 
L 306.159074 428.469297 
L 306.378627 427.061157 
L 306.59818 390.820734 
L 306.817733 529.436412 
L 307.25684 473.989146 
L 307.476393 502.848385 
L 307.695946 376.970837 
L 307.915499 416.955543 
L 308.135052 480.088124 
L 308.354605 446.417609 
L 308.574159 540.088396 
L 308.793712 512.706747 
L 309.013265 383.848001 
L 309.232818 471.248631 
L 309.452371 472.849098 
L 309.671924 510.681832 
L 309.891478 469.900449 
L 310.111031 456.084005 
L 310.330584 551.41921 
L 310.76969 444.078094 
L 310.989243 527.973543 
L 311.208796 406.865091 
L 311.42835 424.553432 
L 311.647903 530.667595 
L 311.867456 491.581336 
L 312.087009 504.417547 
L 312.306562 469.594845 
L 312.526115 507.205122 
L 312.965222 353.638223 
L 313.404328 405.570911 
L 313.623881 493.555637 
L 313.843434 443.738048 
L 314.062987 531.070068 
L 314.282541 452.287994 
L 314.502094 515.814244 
L 314.721647 442.333945 
L 314.9412 464.761907 
L 315.160753 429.015437 
L 315.380306 494.202341 
L 315.59986 499.996406 
L 315.819413 376.489799 
L 316.038966 392.539329 
L 316.258519 350.720805 
L 316.697625 492.450512 
L 316.917178 329.866245 
L 317.136732 369.554343 
L 317.356285 502.325536 
L 317.575838 526.07219 
L 317.795391 372.628504 
L 318.014944 381.231302 
L 318.234497 521.210252 
L 318.454051 368.418121 
L 318.673604 416.893089 
L 318.893157 309.779594 
L 319.11271 503.15014 
L 319.332263 406.972052 
L 319.551816 413.08724 
L 319.771369 359.227394 
L 319.990923 514.623323 
L 320.210476 423.84422 
L 320.430029 465.664594 
L 320.649582 393.57049 
L 320.869135 437.173371 
L 321.308242 431.899342 
L 321.747348 553.628341 
L 321.966901 397.626272 
L 322.186454 418.163895 
L 322.406007 328.30083 
L 322.62556 517.171918 
L 322.845114 364.141521 
L 323.28422 410.985547 
L 323.503773 498.396937 
L 323.723326 465.528503 
L 323.942879 277.250143 
L 324.162433 186.402686 
L 324.381986 434.550788 
L 324.601539 398.680058 
L 324.821092 537.14242 
L 325.040645 471.403765 
L 325.260198 332.441828 
L 325.479751 526.926204 
L 325.699305 526.486637 
L 325.918858 365.947614 
L 326.138411 510.368427 
L 326.357964 506.803684 
L 326.577517 463.554669 
L 326.79707 539.96563 
L 327.016624 386.095898 
L 327.236177 506.780885 
L 327.45573 477.963127 
L 327.675283 400.975073 
L 327.894836 526.512852 
L 328.114389 377.819574 
L 328.333942 361.268418 
L 328.773049 459.608583 
L 328.992602 438.566952 
L 329.212155 497.420208 
L 329.651261 335.965734 
L 330.090368 533.842278 
L 330.309921 485.930852 
L 330.529474 383.58882 
L 330.749027 436.785299 
L 330.96858 293.608171 
L 331.188133 482.271796 
L 331.407687 298.183664 
L 331.846793 457.37752 
L 332.066346 517.849676 
L 332.285899 351.422002 
L 332.505452 454.073018 
L 332.725006 402.888482 
L 332.944559 511.473252 
L 333.164112 500.88353 
L 333.383665 388.633631 
L 333.603218 479.713406 
L 333.822771 385.777433 
L 334.261878 465.721753 
L 334.481431 472.707059 
L 334.700984 518.436721 
L 334.920537 429.184063 
L 335.14009 493.013069 
L 335.359643 468.869653 
L 335.579196 426.350307 
L 335.79875 470.064651 
L 336.018303 423.953807 
L 336.237856 438.434371 
L 336.457409 534.209528 
L 336.896515 372.182665 
L 337.116069 516.197249 
L 337.335622 432.453056 
L 337.555175 481.727526 
L 337.774728 467.283161 
L 337.994281 422.587368 
L 338.213834 318.014863 
L 338.433387 488.658377 
L 338.652941 451.243989 
L 338.872494 368.461822 
L 339.092047 453.665906 
L 339.3116 490.82543 
L 339.531153 413.321161 
L 339.750706 474.706106 
L 340.189813 527.050581 
L 340.409366 399.232672 
L 340.628919 516.561923 
L 341.068025 448.298917 
L 341.287578 434.021097 
L 341.507132 493.014879 
L 341.726685 468.132329 
L 341.946238 525.770088 
L 342.165791 544.61616 
L 342.604897 470.908622 
L 343.044004 408.738625 
L 343.263557 460.911168 
L 343.48311 381.547283 
L 343.702663 503.550915 
L 343.922216 382.536417 
L 344.141769 448.720115 
L 344.361323 433.151365 
L 344.580876 492.25332 
L 344.800429 339.091616 
L 345.019982 465.894893 
L 345.239535 430.098462 
L 345.459088 354.925927 
L 345.678642 331.100465 
L 345.898195 329.353161 
L 346.117748 507.640845 
L 346.337301 397.009056 
L 346.556854 541.33082 
L 346.776407 376.027871 
L 346.99596 492.487215 
L 347.215514 472.347643 
L 347.435067 435.710564 
L 347.65462 446.632168 
L 347.874173 511.370783 
L 348.093726 443.063138 
L 348.313279 519.339726 
L 348.532833 464.119426 
L 348.752386 524.827137 
L 348.971939 402.332892 
L 349.191492 474.914139 
L 349.411045 417.91442 
L 349.630598 492.788734 
L 349.850151 504.646561 
L 350.069705 396.930926 
L 350.289258 414.956012 
L 350.508811 270.910162 
L 350.728364 540.461571 
L 350.947917 449.918018 
L 351.16747 430.46997 
L 351.387024 424.085791 
L 351.606577 290.039495 
L 351.82613 403.260109 
L 352.045683 428.516402 
L 352.265236 413.377238 
L 352.484789 353.662867 
L 352.704342 445.798008 
L 352.923896 306.306134 
L 353.143449 488.378613 
L 353.363002 478.57183 
L 353.582555 496.740422 
L 353.802108 364.70121 
L 354.021661 515.262962 
L 354.241215 473.641692 
L 354.460768 482.511471 
L 354.680321 224.420199 
L 355.119427 330.653871 
L 355.33898 481.090344 
L 355.778087 414.705535 
L 355.99764 407.878162 
L 356.436746 464.335087 
L 356.656299 389.743111 
L 356.875852 517.070032 
L 357.095406 531.110181 
L 357.534512 401.8665 
L 357.754065 455.336823 
L 357.973618 382.395737 
L 358.412724 463.557787 
L 358.632278 419.740474 
L 358.851831 205.818564 
L 359.071384 229.434637 
L 359.290937 504.440433 
L 359.51049 358.727901 
L 359.730043 497.62927 
L 359.949596 332.584789 
L 360.16915 478.656577 
L 360.388703 280.561948 
L 360.608256 519.045587 
L 360.827809 492.254629 
L 361.047362 402.153867 
L 361.266915 465.479737 
L 361.486469 418.320894 
L 361.706022 284.969432 
L 361.925575 507.369846 
L 362.145128 518.846656 
L 362.364681 485.252347 
L 362.584234 499.205941 
L 362.803787 506.064921 
L 363.023341 529.708345 
L 363.242894 361.27549 
L 363.462447 544.627517 
L 363.682 519.611017 
L 363.901553 532.243004 
L 364.121106 458.611938 
L 364.560213 538.890136 
L 364.779766 432.389937 
L 364.999319 436.79508 
L 365.218872 411.642065 
L 365.438425 429.152983 
L 365.657978 492.543871 
L 365.877532 466.814321 
L 366.097085 278.072697 
L 366.316638 507.499013 
L 366.536191 348.367066 
L 366.755744 467.677453 
L 366.975297 525.055095 
L 367.194851 467.621239 
L 367.414404 461.65936 
L 367.633957 476.92652 
L 367.85351 535.847138 
L 368.073063 378.070959 
L 368.292616 496.193885 
L 368.512169 474.73687 
L 368.731723 399.783874 
L 368.951276 546.860018 
L 369.170829 491.142884 
L 369.390382 313.566046 
L 369.829488 499.566679 
L 370.268595 404.112303 
L 370.488148 497.547517 
L 370.707701 434.713663 
L 370.927254 491.566315 
L 371.146807 408.438648 
L 371.585914 458.378441 
L 371.805467 407.764828 
L 372.02502 388.55988 
L 372.244573 411.786231 
L 372.903233 573.514791 
L 373.781445 402.338772 
L 374.220551 488.80294 
L 374.440105 383.904549 
L 374.659658 423.776282 
L 374.879211 511.538763 
L 375.098764 503.079639 
L 375.318317 364.877431 
L 375.53787 522.270868 
L 375.757424 419.703224 
L 375.976977 466.112795 
L 376.19653 401.485372 
L 376.416083 487.334923 
L 376.635636 444.67042 
L 376.855189 447.744047 
L 377.074742 467.304961 
L 377.294296 432.920058 
L 377.513849 466.966763 
L 377.733402 457.743492 
L 377.952955 535.80345 
L 378.172508 439.740422 
L 378.392061 452.959129 
L 378.611615 515.701233 
L 378.831168 349.301642 
L 379.050721 425.649546 
L 379.270274 450.800731 
L 379.489827 459.542467 
L 379.70938 444.50112 
L 379.928933 518.35126 
L 380.148487 446.064521 
L 380.36804 495.929708 
L 380.587593 407.44978 
L 380.807146 467.855498 
L 381.026699 439.877905 
L 381.465806 511.207805 
L 381.904912 486.812796 
L 382.124465 485.078905 
L 382.344018 471.322297 
L 382.563571 521.525081 
L 382.783124 440.863247 
L 383.002678 427.101045 
L 383.222231 542.230373 
L 383.441784 466.861003 
L 383.661337 435.974146 
L 383.88089 446.716673 
L 384.100443 477.954275 
L 384.319997 383.604814 
L 384.53955 434.08829 
L 384.759103 442.418557 
L 385.198209 484.051598 
L 385.417762 361.633752 
L 385.637315 527.487283 
L 385.856869 486.631204 
L 386.076422 343.892244 
L 386.295975 527.364732 
L 386.515528 482.422322 
L 386.735081 565.944711 
L 387.174187 349.53714 
L 387.393741 480.706866 
L 387.613294 439.032778 
L 387.832847 485.027205 
L 388.0524 472.250297 
L 388.271953 448.967461 
L 388.491506 371.338493 
L 388.930613 499.222653 
L 389.150166 454.208738 
L 389.369719 342.083228 
L 389.589272 487.975167 
L 389.808825 476.160616 
L 390.028378 547.990045 
L 390.247932 491.445764 
L 390.467485 502.681877 
L 390.687038 543.160864 
L 390.906591 310.989798 
L 391.126144 477.60136 
L 391.345697 518.99237 
L 391.565251 432.414771 
L 391.784804 478.075735 
L 392.004357 493.469862 
L 392.443463 393.390607 
L 392.663016 440.493505 
L 392.882569 387.418641 
L 393.102123 525.746203 
L 393.541229 302.980354 
L 393.760782 479.956647 
L 393.980335 346.356028 
L 394.419442 488.016138 
L 394.638995 502.668689 
L 395.078101 420.363824 
L 395.297654 475.330004 
L 395.73676 412.902196 
L 395.956314 523.035082 
L 396.175867 444.469208 
L 396.39542 555.056613 
L 396.834526 360.856587 
L 397.054079 539.788564 
L 397.273633 547.048014 
L 397.712739 476.29952 
L 397.932292 289.795494 
L 398.151845 535.938778 
L 398.371398 429.92518 
L 398.590951 396.566474 
L 398.810505 541.636858 
L 399.030058 456.478096 
L 399.249611 457.996647 
L 399.469164 540.122396 
L 399.688717 435.982544 
L 399.90827 443.714578 
L 400.127824 421.709895 
L 400.347377 426.622745 
L 400.56693 481.312707 
L 400.786483 493.099204 
L 401.006036 418.903635 
L 401.225589 481.15474 
L 401.445142 423.824084 
L 401.664696 492.991044 
L 401.884249 513.005012 
L 402.103802 374.996967 
L 402.323355 500.65645 
L 402.542908 401.483759 
L 402.762461 490.442741 
L 402.982015 476.988171 
L 403.201568 337.275526 
L 403.421121 489.680925 
L 403.640674 518.052194 
L 403.860227 500.968916 
L 404.07978 310.017696 
L 404.299333 560.822704 
L 404.518887 489.639352 
L 404.73844 488.826756 
L 404.957993 525.128675 
L 405.177546 506.254321 
L 405.397099 499.995836 
L 405.616652 508.829317 
L 405.836206 565.461421 
L 406.055759 440.856975 
L 406.275312 444.713148 
L 406.494865 461.38796 
L 406.714418 293.491786 
L 406.933971 474.679477 
L 407.153524 541.074442 
L 407.373078 477.582284 
L 407.592631 467.382687 
L 408.25129 531.939459 
L 408.470843 365.66744 
L 408.690397 552.178422 
L 408.90995 439.673101 
L 409.129503 513.448377 
L 409.349056 402.14872 
L 409.568609 455.362503 
L 409.788162 422.252603 
L 410.007715 515.370077 
L 410.227269 503.639111 
L 410.446822 532.359119 
L 410.885928 403.924574 
L 411.105481 271.785482 
L 411.325034 453.025495 
L 411.544587 343.684711 
L 411.764141 456.91133 
L 411.983694 498.745818 
L 412.203247 460.539968 
L 412.4228 516.605769 
L 412.642353 537.024316 
L 412.861906 453.3772 
L 413.08146 525.514885 
L 413.301013 438.351769 
L 413.520566 425.706264 
L 413.959672 529.603764 
L 414.179225 491.445079 
L 414.398778 511.940487 
L 414.618332 484.095656 
L 414.837885 546.607666 
L 415.057438 532.820713 
L 415.496544 371.153362 
L 415.716097 509.618766 
L 415.935651 451.931724 
L 416.155204 509.978437 
L 416.374757 465.982987 
L 416.59431 505.270674 
L 416.813863 400.058696 
L 417.033416 442.231839 
L 417.252969 563.313659 
L 417.472523 459.561823 
L 417.692076 414.584563 
L 417.911629 546.851049 
L 418.131182 386.770839 
L 418.350735 389.924737 
L 418.570288 417.999975 
L 418.789842 516.424653 
L 419.009395 500.604235 
L 419.228948 528.073462 
L 420.10716 362.021426 
L 420.326714 525.410105 
L 420.546267 471.331991 
L 420.76582 507.909288 
L 420.985373 483.224618 
L 421.204926 364.405452 
L 421.424479 410.710993 
L 421.644033 496.540685 
L 421.863586 525.748947 
L 422.083139 521.011894 
L 422.302692 492.608551 
L 422.522245 387.42749 
L 422.741798 577.89769 
L 422.961351 455.046152 
L 423.180905 481.686605 
L 423.400458 481.532003 
L 423.620011 517.221617 
L 424.059117 391.873423 
L 424.27867 473.143982 
L 424.498224 508.666208 
L 424.717777 319.499862 
L 424.93733 470.174459 
L 425.156883 512.53326 
L 425.376436 483.036934 
L 425.595989 431.25206 
L 425.815542 485.853068 
L 426.035096 400.615545 
L 426.254649 567.832532 
L 426.474202 484.875056 
L 426.913308 432.829173 
L 427.132861 499.762881 
L 427.352415 458.669549 
L 427.571968 462.210161 
L 427.791521 441.072693 
L 428.011074 352.681769 
L 428.230627 427.64575 
L 428.45018 270.586943 
L 428.669733 423.21399 
L 429.10884 393.305141 
L 429.328393 519.653295 
L 429.547946 287.82996 
L 429.767499 518.287281 
L 429.987052 196.945778 
L 430.206606 489.250915 
L 430.426159 335.8541 
L 430.645712 506.975608 
L 430.865265 577.099023 
L 431.084818 525.808983 
L 431.304371 366.548827 
L 431.963031 459.974599 
L 432.402137 289.958873 
L 432.62169 474.804743 
L 432.841243 332.316999 
L 433.060797 507.170571 
L 433.28035 448.132583 
L 433.499903 474.128652 
L 433.719456 471.401781 
L 433.939009 513.670284 
L 434.158562 533.106162 
L 434.378115 417.400487 
L 434.597669 543.863555 
L 434.817222 430.830294 
L 435.256328 498.365396 
L 435.475881 472.99351 
L 435.695434 367.293094 
L 435.914988 523.112578 
L 436.134541 469.504494 
L 436.354094 266.31637 
L 436.573647 484.824795 
L 436.7932 365.727161 
L 437.012753 463.491956 
L 437.232306 490.589763 
L 437.45186 461.005532 
L 437.671413 404.191325 
L 437.890966 525.466411 
L 438.110519 392.329433 
L 438.330072 547.121146 
L 438.769178 449.191555 
L 438.988732 141.951518 
L 439.427838 547.123487 
L 439.647391 435.340019 
L 439.866944 477.29413 
L 440.086497 396.870849 
L 440.306051 377.374212 
L 440.525604 491.713046 
L 440.745157 440.047204 
L 440.96471 532.923092 
L 441.184263 473.674797 
L 441.403816 516.550514 
L 441.623369 532.000333 
L 441.842923 355.772026 
L 442.062476 521.122511 
L 442.282029 490.480818 
L 442.501582 519.899638 
L 442.721135 466.535984 
L 442.940688 530.712801 
L 443.379795 391.200975 
L 443.599348 362.87076 
L 443.818901 378.801612 
L 444.038454 430.487644 
L 444.258007 454.028009 
L 444.47756 457.467319 
L 444.916667 530.912163 
L 445.13622 244.549315 
L 445.355773 512.128309 
L 445.575326 525.456261 
L 445.794879 506.267884 
L 446.014433 547.676229 
L 446.233986 427.883689 
L 446.453539 497.369493 
L 446.673092 359.13645 
L 446.892645 528.704471 
L 447.112198 488.544261 
L 447.331751 508.787017 
L 447.551305 480.047212 
L 447.770858 425.195151 
L 447.990411 420.140894 
L 448.209964 410.725198 
L 448.429517 456.441939 
L 448.64907 452.754664 
L 448.868624 504.638939 
L 449.088177 469.947758 
L 449.30773 515.589973 
L 449.527283 486.849218 
L 449.746836 539.454116 
L 449.966389 470.772545 
L 450.185942 477.820913 
L 450.405496 341.735732 
L 450.625049 317.617212 
L 450.844602 505.531018 
L 451.064155 475.482447 
L 451.283708 485.821458 
L 451.503261 530.787469 
L 451.942368 369.562064 
L 452.161921 508.748862 
L 452.381474 513.530888 
L 452.601027 464.263098 
L 452.82058 536.84862 
L 453.040133 496.583759 
L 453.259687 554.811346 
L 453.47924 519.214949 
L 453.698793 502.750627 
L 453.918346 439.282851 
L 454.137899 415.840862 
L 454.577006 462.932349 
L 454.796559 365.357879 
L 455.016112 465.046864 
L 455.455218 363.47117 
L 455.674771 380.079265 
L 455.894324 456.474499 
L 456.113878 363.291251 
L 456.333431 414.425922 
L 456.552984 372.671375 
L 456.772537 552.971983 
L 456.99209 363.767338 
L 457.211643 513.86529 
L 457.431197 474.941988 
L 457.65075 488.446974 
L 457.870303 267.197393 
L 458.089856 450.674195 
L 458.309409 531.921666 
L 458.528962 448.202924 
L 458.748515 481.806947 
L 458.968069 483.971794 
L 459.187622 535.846333 
L 459.407175 383.238251 
L 459.626728 403.927268 
L 460.065834 533.357379 
L 460.285388 459.992251 
L 460.504941 463.257916 
L 460.724494 470.209441 
L 460.944047 530.343303 
L 461.1636 400.245299 
L 461.602706 478.161572 
L 461.82226 282.560458 
L 462.261366 477.429216 
L 462.480919 435.215909 
L 462.700472 444.441603 
L 462.920025 519.716726 
L 463.139579 547.844723 
L 463.359132 440.451317 
L 463.578685 528.626728 
L 463.798238 502.285885 
L 464.017791 400.57925 
L 464.237344 433.056999 
L 464.456897 415.966925 
L 464.676451 434.102963 
L 464.896004 505.790752 
L 465.115557 465.652883 
L 465.33511 451.780481 
L 465.554663 457.837324 
L 465.774216 468.978359 
L 465.993769 407.577404 
L 466.213323 513.902901 
L 466.432876 522.803564 
L 466.652429 402.154296 
L 466.871982 421.500338 
L 467.091535 460.34369 
L 467.311088 431.839537 
L 467.530642 347.165432 
L 467.969748 517.125166 
L 468.189301 499.84012 
L 468.628407 430.371145 
L 468.84796 404.099776 
L 469.067514 514.902071 
L 469.50662 369.558936 
L 469.726173 461.090271 
L 469.945726 405.374655 
L 470.165279 550.396177 
L 470.384833 464.453522 
L 470.604386 495.824973 
L 470.823939 508.366687 
L 471.043492 362.083016 
L 471.702151 479.474847 
L 472.141258 529.883407 
L 472.360811 511.765594 
L 472.580364 547.135264 
L 473.01947 438.187847 
L 473.458577 521.850011 
L 473.67813 425.296504 
L 473.897683 441.292367 
L 474.117236 494.854072 
L 474.336789 465.866482 
L 474.556342 464.891306 
L 474.775896 403.916199 
L 475.215002 431.563012 
L 475.434555 557.071686 
L 475.654108 483.760245 
L 475.873661 475.929446 
L 476.093215 505.558204 
L 476.312768 359.040756 
L 476.532321 491.579738 
L 476.751874 522.711387 
L 476.971427 512.403119 
L 477.19098 531.23872 
L 477.410533 476.10946 
L 477.630087 488.324404 
L 477.84964 257.341959 
L 478.069193 511.906119 
L 478.288746 535.217609 
L 478.508299 418.604653 
L 478.727852 568.294271 
L 478.947406 451.460715 
L 479.166959 456.282423 
L 479.386512 486.793881 
L 479.606065 469.397056 
L 479.825618 465.351003 
L 480.045171 522.103966 
L 480.264724 537.27786 
L 480.484278 406.414879 
L 480.703831 529.549167 
L 480.923384 407.369133 
L 481.142937 450.237568 
L 481.36249 526.589586 
L 481.582043 497.615542 
L 482.02115 182.873357 
L 482.240703 445.721057 
L 482.460256 487.322628 
L 482.679809 470.275991 
L 482.899362 400.796891 
L 483.118915 428.337078 
L 483.338469 508.441246 
L 483.558022 528.326952 
L 483.777575 479.007542 
L 483.997128 516.024075 
L 484.216681 305.382424 
L 484.436234 437.225896 
L 484.655788 460.200468 
L 484.875341 500.9468 
L 485.094894 425.239213 
L 485.314447 534.153621 
L 485.753553 508.119992 
L 485.973106 472.15957 
L 486.19266 462.517772 
L 486.412213 529.631175 
L 486.631766 519.377934 
L 486.851319 556.658654 
L 487.070872 460.018542 
L 487.290425 311.029922 
L 487.509979 451.613067 
L 487.729532 435.533598 
L 487.949085 380.47474 
L 488.388191 517.762856 
L 488.607744 470.849363 
L 488.827297 511.079759 
L 489.046851 486.100933 
L 489.266404 516.457582 
L 489.485957 461.991569 
L 489.70551 338.657596 
L 490.144616 518.317884 
L 490.364169 520.122228 
L 490.803276 424.841199 
L 491.022829 461.350217 
L 491.242382 475.239673 
L 491.461935 314.845133 
L 491.681488 415.585271 
L 491.901042 452.704703 
L 492.120595 459.279534 
L 492.340148 500.550429 
L 492.779254 493.393751 
L 492.998807 551.321464 
L 493.21836 451.739948 
L 493.437914 517.622193 
L 493.657467 336.505293 
L 493.87702 457.705291 
L 494.316126 543.124395 
L 494.535679 455.416549 
L 494.755233 515.805647 
L 494.974786 527.55378 
L 495.194339 552.501692 
L 495.413892 516.098807 
L 495.633445 328.474418 
L 495.852998 501.259294 
L 496.072551 508.155333 
L 496.292105 443.039932 
L 496.511658 429.532557 
L 496.731211 485.223415 
L 496.950764 467.122318 
L 497.170317 370.912728 
L 497.828977 557.215399 
L 498.04853 471.202955 
L 498.487636 535.433732 
L 498.707189 389.255377 
L 498.926742 493.949323 
L 499.146296 402.54872 
L 499.365849 382.426747 
L 499.585402 475.729656 
L 499.804955 387.911681 
L 500.024508 450.040742 
L 500.244061 341.458807 
L 500.463615 348.398682 
L 500.683168 453.434414 
L 500.902721 394.654328 
L 501.122274 394.227862 
L 501.56138 537.557842 
L 501.780933 487.533119 
L 502.000487 469.449057 
L 502.22004 522.857885 
L 502.439593 440.448275 
L 502.659146 502.81332 
L 502.878699 408.954594 
L 503.098252 553.829637 
L 503.317806 479.738437 
L 503.537359 538.965729 
L 503.756912 540.841284 
L 503.976465 543.688333 
L 504.196018 370.098873 
L 504.415571 471.807034 
L 504.635124 440.657427 
L 505.074231 286.39298 
L 505.293784 534.943433 
L 505.513337 497.138481 
L 505.73289 523.204686 
L 505.952443 402.724965 
L 506.171997 409.008341 
L 506.39155 474.060364 
L 506.611103 418.480365 
L 506.830656 463.177104 
L 507.269762 434.537863 
L 507.489315 506.376231 
L 507.708869 446.49036 
L 507.928422 518.650839 
L 508.147975 494.175599 
L 508.367528 401.089204 
L 508.587081 546.587982 
L 508.806634 432.080752 
L 509.245741 502.84734 
L 509.465294 384.77623 
L 509.684847 489.707079 
L 509.9044 411.960199 
L 510.123953 513.212665 
L 510.343506 383.69298 
L 510.56306 551.532813 
L 510.782613 389.324814 
L 511.002166 489.72399 
L 511.221719 403.593696 
L 511.660825 529.068195 
L 511.880379 518.583308 
L 512.539038 365.576419 
L 512.758591 449.97117 
L 512.978144 290.897219 
L 513.197697 542.091984 
L 513.636804 427.192075 
L 513.856357 440.649106 
L 514.07591 540.395104 
L 514.295463 422.65777 
L 514.515016 489.992274 
L 514.73457 519.726282 
L 515.173676 361.067589 
L 515.612782 519.904989 
L 515.832335 547.436712 
L 516.051888 377.934418 
L 516.271442 539.605462 
L 516.710548 423.235163 
L 516.930101 488.492459 
L 517.149654 500.895054 
L 517.369207 458.44328 
L 517.58876 373.614565 
L 517.808314 472.327862 
L 518.027867 478.139846 
L 518.24742 488.578888 
L 518.466973 505.154047 
L 518.686526 460.613665 
L 518.906079 360.055048 
L 519.125633 489.823075 
L 519.345186 433.765763 
L 519.564739 547.998088 
L 519.784292 489.124599 
L 520.003845 476.521264 
L 520.223398 504.537734 
L 520.442951 467.459976 
L 520.662505 329.572563 
L 520.882058 356.574453 
L 521.101611 506.657877 
L 521.540717 380.870634 
L 522.199377 532.646188 
L 522.41893 491.607381 
L 522.638483 512.655959 
L 522.858036 458.542555 
L 523.077589 494.395545 
L 523.297142 485.227147 
L 523.516696 455.614459 
L 523.736249 531.522674 
L 523.955802 439.437884 
L 524.175355 492.410047 
L 524.394908 466.142841 
L 524.614461 510.129229 
L 525.053568 470.666008 
L 525.273121 480.701198 
L 525.492674 482.386071 
L 525.712227 455.994499 
L 525.93178 462.064662 
L 526.151333 385.709718 
L 526.370887 465.695281 
L 526.59044 500.451569 
L 526.809993 367.030154 
L 527.029546 476.131912 
L 527.249099 373.698215 
L 527.468652 526.287487 
L 527.688206 480.623085 
L 527.907759 492.243791 
L 528.127312 200.269692 
L 528.346865 481.253028 
L 528.566418 480.90765 
L 528.785971 475.01755 
L 529.005524 412.910882 
L 529.225078 269.451554 
L 529.444631 462.875777 
L 529.664184 468.90785 
L 529.883737 435.648693 
L 530.10329 482.005557 
L 530.322843 475.849555 
L 530.542397 392.327808 
L 530.76195 533.955738 
L 530.981503 526.473128 
L 531.201056 530.689181 
L 531.420609 336.999193 
L 531.640162 497.985056 
L 531.859715 531.246391 
L 532.079269 478.546131 
L 532.298822 331.40479 
L 532.518375 405.233774 
L 532.737928 370.275797 
L 533.177034 492.295178 
L 533.396588 466.205426 
L 533.616141 424.361406 
L 533.835694 464.188644 
L 534.055247 331.985472 
L 534.713906 505.059194 
L 534.93346 540.89052 
L 535.153013 425.602187 
L 535.372566 543.218539 
L 535.592119 385.27692 
L 535.811672 411.64412 
L 536.031225 461.418974 
L 536.250779 465.217195 
L 536.470332 412.903152 
L 536.689885 455.449965 
L 536.909438 476.443092 
L 537.128991 519.173927 
L 537.348544 519.070835 
L 537.568097 521.751784 
L 537.787651 439.153148 
L 538.007204 502.255993 
L 538.226757 479.057284 
L 538.44631 479.638383 
L 538.665863 475.473982 
L 538.885416 475.148025 
L 539.10497 462.802662 
L 539.324523 540.987439 
L 539.544076 374.745285 
L 539.763629 353.488534 
L 539.983182 376.23249 
L 540.202735 506.238867 
L 540.422288 358.426017 
L 540.641842 530.414117 
L 540.861395 465.62654 
L 541.080948 131.956182 
L 541.300501 527.275544 
L 541.520054 387.384186 
L 541.739607 371.988465 
L 541.95916 565.961215 
L 542.178714 552.266546 
L 542.398267 494.058615 
L 542.61782 523.56893 
L 542.837373 481.935469 
L 543.056926 382.279788 
L 543.496033 513.986154 
L 543.715586 363.310296 
L 543.935139 439.464176 
L 544.154692 323.944677 
L 544.374245 502.746224 
L 544.593798 510.635256 
L 544.813351 555.119435 
L 545.252458 385.963223 
L 545.472011 519.430615 
L 545.691564 474.122161 
L 545.911117 464.825338 
L 546.13067 263.189636 
L 546.350224 461.317838 
L 546.78933 538.139393 
L 547.008883 532.57929 
L 547.228436 457.41115 
L 547.447989 525.688962 
L 547.667542 490.235493 
L 547.887096 519.016084 
L 548.106649 479.443654 
L 548.326202 519.211574 
L 548.545755 465.089346 
L 548.765308 510.062772 
L 548.984861 397.246434 
L 549.204415 474.092881 
L 549.423968 381.510158 
L 549.643521 493.967627 
L 549.863074 439.247213 
L 550.082627 502.86418 
L 550.30218 460.291199 
L 550.521733 537.350104 
L 550.741287 438.442563 
L 550.96084 470.181961 
L 551.180393 391.678436 
L 551.399946 541.433115 
L 551.619499 333.338128 
L 551.839052 445.764637 
L 552.058606 374.466555 
L 552.278159 344.862348 
L 552.497712 381.433515 
L 552.717265 483.478925 
L 552.936818 310.496504 
L 553.375924 402.751542 
L 553.595478 548.526785 
L 553.815031 468.599801 
L 554.034584 330.749216 
L 554.47369 534.944037 
L 554.912797 343.275179 
L 555.13235 468.096201 
L 555.351903 376.126504 
L 555.571456 572.910774 
L 555.791009 510.233684 
L 556.010562 511.811098 
L 556.230115 495.483075 
L 556.449669 511.659827 
L 556.669222 421.107829 
L 556.888775 421.208642 
L 557.108328 389.154838 
L 557.327881 499.792369 
L 557.547434 480.484371 
L 557.766988 502.095455 
L 557.986541 492.840556 
L 558.206094 327.407857 
L 558.425647 327.305434 
L 558.6452 517.353479 
L 558.864753 515.449128 
L 559.084306 545.360352 
L 559.30386 402.656545 
L 559.523413 508.154136 
L 559.742966 394.906543 
L 559.742966 394.906543 
" style="fill:none;stroke:#96c69a;stroke-linecap:round;stroke-width:3;"/>
   </g>
   <g id="line2d_2"/>
   <g id="patch_3">
    <path d="M 98.911875 603.86 
L 98.911875 109.484571 
" style="fill:none;stroke:#262626;stroke-linecap:square;stroke-linejoin:miter;stroke-width:2.5;"/>
   </g>
   <g id="patch_4">
    <path d="M 98.911875 603.86 
L 581.687304 603.86 
" style="fill:none;stroke:#262626;stroke-linecap:square;stroke-linejoin:miter;stroke-width:2.5;"/>
   </g>
   <g id="legend_1">
    <g id="patch_5">
     <path d="M 528.771679 598.86 
L 574.687304 598.86 
Q 576.687304 598.86 576.687304 596.86 
L 576.687304 554.954375 
Q 576.687304 552.954375 574.687304 552.954375 
L 528.771679 552.954375 
Q 526.771679 552.954375 526.771679 554.954375 
L 526.771679 596.86 
Q 526.771679 598.86 528.771679 598.86 
z
" style="fill:#ffffff;opacity:0.8;stroke:#cccccc;stroke-linejoin:miter;stroke-width:2;"/>
    </g>
    <g id="text_17">
     <!-- $n_\tau$ -->
     <g style="fill:#262626;" transform="translate(538.649491 575.190625)scale(0.24 -0.24)">
      <defs>
       <path d="M 3566 2113 
L 3156 0 
L 2578 0 
L 2988 2091 
Q 3016 2238 3031 2350 
Q 3047 2463 3047 2528 
Q 3047 2791 2881 2937 
Q 2716 3084 2419 3084 
Q 1956 3084 1622 2776 
Q 1288 2469 1184 1941 
L 800 0 
L 225 0 
L 903 3500 
L 1478 3500 
L 1363 2950 
Q 1603 3253 1940 3418 
Q 2278 3584 2650 3584 
Q 3113 3584 3367 3334 
Q 3622 3084 3622 2631 
Q 3622 2519 3608 2391 
Q 3594 2263 3566 2113 
z
" id="DejaVuSans-Oblique-6e" transform="scale(0.015625)"/>
       <path d="M 2103 638 
Q 2188 488 2525 488 
L 2800 488 
L 2706 0 
L 2363 0 
Q 1800 0 1600 300 
Q 1403 606 1534 1269 
L 1856 2925 
L 541 2925 
L 653 3500 
L 3881 3500 
L 3769 2925 
L 2444 2925 
L 2113 1234 
Q 2025 781 2103 638 
z
" id="DejaVuSans-Oblique-3c4" transform="scale(0.015625)"/>
      </defs>
      <use xlink:href="#DejaVuSans-Oblique-6e"/>
      <use transform="translate(63.378906 -16.40625)scale(0.7)" xlink:href="#DejaVuSans-Oblique-3c4"/>
     </g>
    </g>
    <g id="line2d_3">
     <path d="M 530.771679 589.280313 
L 550.771679 589.280313 
" style="fill:none;stroke:#96c69a;stroke-linecap:round;stroke-width:3;"/>
    </g>
    <g id="line2d_4"/>
    <g id="text_18">
     <!-- 50 -->
     <g style="fill:#262626;" transform="translate(558.771679 592.780313)scale(0.1 -0.1)">
      <defs>
       <path d="M 678 4666 
L 3669 4666 
L 3669 3781 
L 1638 3781 
L 1638 3059 
Q 1775 3097 1914 3117 
Q 2053 3138 2203 3138 
Q 3056 3138 3531 2711 
Q 4006 2284 4006 1522 
Q 4006 766 3489 337 
Q 2972 -91 2053 -91 
Q 1656 -91 1267 -14 
Q 878 63 494 219 
L 494 1166 
Q 875 947 1217 837 
Q 1559 728 1863 728 
Q 2300 728 2551 942 
Q 2803 1156 2803 1522 
Q 2803 1891 2551 2103 
Q 2300 2316 1863 2316 
Q 1603 2316 1309 2248 
Q 1016 2181 678 2041 
L 678 4666 
z
" id="DejaVuSans-Bold-35" transform="scale(0.015625)"/>
       <path d="M 2944 2338 
Q 2944 3213 2780 3570 
Q 2616 3928 2228 3928 
Q 1841 3928 1675 3570 
Q 1509 3213 1509 2338 
Q 1509 1453 1675 1090 
Q 1841 728 2228 728 
Q 2613 728 2778 1090 
Q 2944 1453 2944 2338 
z
M 4147 2328 
Q 4147 1169 3647 539 
Q 3147 -91 2228 -91 
Q 1306 -91 806 539 
Q 306 1169 306 2328 
Q 306 3491 806 4120 
Q 1306 4750 2228 4750 
Q 3147 4750 3647 4120 
Q 4147 3491 4147 2328 
z
" id="DejaVuSans-Bold-30" transform="scale(0.015625)"/>
      </defs>
      <use xlink:href="#DejaVuSans-Bold-35"/>
      <use x="69.580078" xlink:href="#DejaVuSans-Bold-30"/>
     </g>
    </g>
   </g>
  </g>
  <g id="axes_2">
   <g id="patch_6">
    <path d="M 98.911875 92.437143 
L 581.687304 92.437143 
L 581.687304 7.2 
L 98.911875 7.2 
z
" style="fill:none;"/>
   </g>
   <g id="matplotlib.axis_3">
    <g id="xtick_7"/>
    <g id="xtick_8"/>
    <g id="xtick_9"/>
    <g id="xtick_10"/>
    <g id="xtick_11"/>
    <g id="xtick_12"/>
   </g>
   <g id="matplotlib.axis_4">
    <g id="ytick_9">
     <g id="text_19">
      <!-- 0 -->
      <g style="fill:#262626;" transform="translate(69.414375 100.795424)scale(0.22 -0.22)">
       <use xlink:href="#DejaVuSans-30"/>
      </g>
     </g>
    </g>
    <g id="ytick_10">
     <g id="text_20">
      <!-- 100 -->
      <g style="fill:#262626;" transform="translate(41.419375 48.082287)scale(0.22 -0.22)">
       <use xlink:href="#DejaVuSans-31"/>
       <use x="63.623047" xlink:href="#DejaVuSans-30"/>
       <use x="127.246094" xlink:href="#DejaVuSans-30"/>
      </g>
     </g>
    </g>
   </g>
   <g id="patch_7">
    <path clip-path="url(#p0fd87fd963)" d="M 120.856213 92.437143 
L 154.616732 92.437143 
L 154.616732 11.258912 
L 120.856213 11.258912 
z
" style="fill:#96c69a;fill-opacity:0.5;stroke:#ffffff;stroke-linejoin:miter;stroke-width:2;"/>
   </g>
   <g id="patch_8">
    <path clip-path="url(#p0fd87fd963)" d="M 154.616732 92.437143 
L 188.377252 92.437143 
L 188.377252 11.258912 
L 154.616732 11.258912 
z
" style="fill:#96c69a;fill-opacity:0.5;stroke:#ffffff;stroke-linejoin:miter;stroke-width:2;"/>
   </g>
   <g id="patch_9">
    <path clip-path="url(#p0fd87fd963)" d="M 188.377252 92.437143 
L 222.137771 92.437143 
L 222.137771 11.258912 
L 188.377252 11.258912 
z
" style="fill:#96c69a;fill-opacity:0.5;stroke:#ffffff;stroke-linejoin:miter;stroke-width:2;"/>
   </g>
   <g id="patch_10">
    <path clip-path="url(#p0fd87fd963)" d="M 222.137771 92.437143 
L 255.898291 92.437143 
L 255.898291 11.258912 
L 222.137771 11.258912 
z
" style="fill:#96c69a;fill-opacity:0.5;stroke:#ffffff;stroke-linejoin:miter;stroke-width:2;"/>
   </g>
   <g id="patch_11">
    <path clip-path="url(#p0fd87fd963)" d="M 255.898291 92.437143 
L 289.65881 92.437143 
L 289.65881 11.786043 
L 255.898291 11.786043 
z
" style="fill:#96c69a;fill-opacity:0.5;stroke:#ffffff;stroke-linejoin:miter;stroke-width:2;"/>
   </g>
   <g id="patch_12">
    <path clip-path="url(#p0fd87fd963)" d="M 289.65881 92.437143 
L 323.41933 92.437143 
L 323.41933 11.258912 
L 289.65881 11.258912 
z
" style="fill:#96c69a;fill-opacity:0.5;stroke:#ffffff;stroke-linejoin:miter;stroke-width:2;"/>
   </g>
   <g id="patch_13">
    <path clip-path="url(#p0fd87fd963)" d="M 323.41933 92.437143 
L 357.179849 92.437143 
L 357.179849 11.258912 
L 323.41933 11.258912 
z
" style="fill:#96c69a;fill-opacity:0.5;stroke:#ffffff;stroke-linejoin:miter;stroke-width:2;"/>
   </g>
   <g id="patch_14">
    <path clip-path="url(#p0fd87fd963)" d="M 357.179849 92.437143 
L 390.940369 92.437143 
L 390.940369 11.258912 
L 357.179849 11.258912 
z
" style="fill:#96c69a;fill-opacity:0.5;stroke:#ffffff;stroke-linejoin:miter;stroke-width:2;"/>
   </g>
   <g id="patch_15">
    <path clip-path="url(#p0fd87fd963)" d="M 390.940369 92.437143 
L 424.700888 92.437143 
L 424.700888 11.786043 
L 390.940369 11.786043 
z
" style="fill:#96c69a;fill-opacity:0.5;stroke:#ffffff;stroke-linejoin:miter;stroke-width:2;"/>
   </g>
   <g id="patch_16">
    <path clip-path="url(#p0fd87fd963)" d="M 424.700888 92.437143 
L 458.461407 92.437143 
L 458.461407 11.258912 
L 424.700888 11.258912 
z
" style="fill:#96c69a;fill-opacity:0.5;stroke:#ffffff;stroke-linejoin:miter;stroke-width:2;"/>
   </g>
   <g id="patch_17">
    <path clip-path="url(#p0fd87fd963)" d="M 458.461407 92.437143 
L 492.221927 92.437143 
L 492.221927 11.258912 
L 458.461407 11.258912 
z
" style="fill:#96c69a;fill-opacity:0.5;stroke:#ffffff;stroke-linejoin:miter;stroke-width:2;"/>
   </g>
   <g id="patch_18">
    <path clip-path="url(#p0fd87fd963)" d="M 492.221927 92.437143 
L 525.982446 92.437143 
L 525.982446 11.258912 
L 492.221927 11.258912 
z
" style="fill:#96c69a;fill-opacity:0.5;stroke:#ffffff;stroke-linejoin:miter;stroke-width:2;"/>
   </g>
   <g id="patch_19">
    <path clip-path="url(#p0fd87fd963)" d="M 525.982446 92.437143 
L 559.742966 92.437143 
L 559.742966 11.258912 
L 525.982446 11.258912 
z
" style="fill:#96c69a;fill-opacity:0.5;stroke:#ffffff;stroke-linejoin:miter;stroke-width:2;"/>
   </g>
   <g id="patch_20">
    <path d="M 98.911875 92.437143 
L 98.911875 7.2 
" style="fill:none;stroke:#262626;stroke-linecap:square;stroke-linejoin:miter;stroke-width:2.5;"/>
   </g>
   <g id="patch_21">
    <path d="M 98.911875 92.437143 
L 581.687304 92.437143 
" style="fill:none;stroke:#262626;stroke-linecap:square;stroke-linejoin:miter;stroke-width:2.5;"/>
   </g>
  </g>
  <g id="axes_3">
   <g id="patch_22">
    <path d="M 598.334732 603.86 
L 681.571875 603.86 
L 681.571875 109.484571 
L 598.334732 109.484571 
z
" style="fill:none;"/>
   </g>
   <g id="matplotlib.axis_5">
    <g id="xtick_13">
     <g id="text_21">
      <!-- 0 -->
      <g style="fill:#262626;" transform="translate(591.335982 636.076563)scale(0.22 -0.22)">
       <use xlink:href="#DejaVuSans-30"/>
      </g>
     </g>
    </g>
    <g id="xtick_14">
     <g id="text_22">
      <!-- 100 -->
      <g style="fill:#262626;" transform="translate(619.505221 636.076563)scale(0.22 -0.22)">
       <use xlink:href="#DejaVuSans-31"/>
       <use x="63.623047" xlink:href="#DejaVuSans-30"/>
       <use x="127.246094" xlink:href="#DejaVuSans-30"/>
      </g>
     </g>
    </g>
   </g>
   <g id="matplotlib.axis_6">
    <g id="ytick_11"/>
    <g id="ytick_12"/>
    <g id="ytick_13"/>
    <g id="ytick_14"/>
    <g id="ytick_15"/>
    <g id="ytick_16"/>
    <g id="ytick_17"/>
    <g id="ytick_18"/>
   </g>
   <g id="patch_23">
    <path clip-path="url(#p7dac8396fe)" d="M 598.334732 581.38839 
L 602.129739 581.38839 
L 602.129739 568.169795 
L 598.334732 568.169795 
z
" style="fill:#96c69a;fill-opacity:0.5;stroke:#ffffff;stroke-linejoin:miter;stroke-width:1.321859;"/>
   </g>
   <g id="patch_24">
    <path clip-path="url(#p7dac8396fe)" d="M 598.334732 568.169795 
L 608.033082 568.169795 
L 608.033082 554.951201 
L 598.334732 554.951201 
z
" style="fill:#96c69a;fill-opacity:0.5;stroke:#ffffff;stroke-linejoin:miter;stroke-width:1.321859;"/>
   </g>
   <g id="patch_25">
    <path clip-path="url(#p7dac8396fe)" d="M 598.334732 554.951201 
L 623.634776 554.951201 
L 623.634776 541.732607 
L 598.334732 541.732607 
z
" style="fill:#96c69a;fill-opacity:0.5;stroke:#ffffff;stroke-linejoin:miter;stroke-width:1.321859;"/>
   </g>
   <g id="patch_26">
    <path clip-path="url(#p7dac8396fe)" d="M 598.334732 541.732607 
L 650.621489 541.732607 
L 650.621489 528.514012 
L 598.334732 528.514012 
z
" style="fill:#96c69a;fill-opacity:0.5;stroke:#ffffff;stroke-linejoin:miter;stroke-width:1.321859;"/>
   </g>
   <g id="patch_27">
    <path clip-path="url(#p7dac8396fe)" d="M 598.334732 528.514012 
L 665.801515 528.514012 
L 665.801515 515.295418 
L 598.334732 515.295418 
z
" style="fill:#96c69a;fill-opacity:0.5;stroke:#ffffff;stroke-linejoin:miter;stroke-width:1.321859;"/>
   </g>
   <g id="patch_28">
    <path clip-path="url(#p7dac8396fe)" d="M 598.334732 515.295418 
L 667.066517 515.295418 
L 667.066517 502.076824 
L 598.334732 502.076824 
z
" style="fill:#96c69a;fill-opacity:0.5;stroke:#ffffff;stroke-linejoin:miter;stroke-width:1.321859;"/>
   </g>
   <g id="patch_29">
    <path clip-path="url(#p7dac8396fe)" d="M 598.334732 502.076824 
L 664.114845 502.076824 
L 664.114845 488.858229 
L 598.334732 488.858229 
z
" style="fill:#96c69a;fill-opacity:0.5;stroke:#ffffff;stroke-linejoin:miter;stroke-width:1.321859;"/>
   </g>
   <g id="patch_30">
    <path clip-path="url(#p7dac8396fe)" d="M 598.334732 488.858229 
L 672.96986 488.858229 
L 672.96986 475.639635 
L 598.334732 475.639635 
z
" style="fill:#96c69a;fill-opacity:0.5;stroke:#ffffff;stroke-linejoin:miter;stroke-width:1.321859;"/>
   </g>
   <g id="patch_31">
    <path clip-path="url(#p7dac8396fe)" d="M 598.334732 475.639635 
L 677.608202 475.639635 
L 677.608202 462.42104 
L 598.334732 462.42104 
z
" style="fill:#96c69a;fill-opacity:0.5;stroke:#ffffff;stroke-linejoin:miter;stroke-width:1.321859;"/>
   </g>
   <g id="patch_32">
    <path clip-path="url(#p7dac8396fe)" d="M 598.334732 462.42104 
L 662.849843 462.42104 
L 662.849843 449.202446 
L 598.334732 449.202446 
z
" style="fill:#96c69a;fill-opacity:0.5;stroke:#ffffff;stroke-linejoin:miter;stroke-width:1.321859;"/>
   </g>
   <g id="patch_33">
    <path clip-path="url(#p7dac8396fe)" d="M 598.334732 449.202446 
L 658.633169 449.202446 
L 658.633169 435.983852 
L 598.334732 435.983852 
z
" style="fill:#96c69a;fill-opacity:0.5;stroke:#ffffff;stroke-linejoin:miter;stroke-width:1.321859;"/>
   </g>
   <g id="patch_34">
    <path clip-path="url(#p7dac8396fe)" d="M 598.334732 435.983852 
L 648.513152 435.983852 
L 648.513152 422.765257 
L 598.334732 422.765257 
z
" style="fill:#96c69a;fill-opacity:0.5;stroke:#ffffff;stroke-linejoin:miter;stroke-width:1.321859;"/>
   </g>
   <g id="patch_35">
    <path clip-path="url(#p7dac8396fe)" d="M 598.334732 422.765257 
L 634.17646 422.765257 
L 634.17646 409.546663 
L 598.334732 409.546663 
z
" style="fill:#96c69a;fill-opacity:0.5;stroke:#ffffff;stroke-linejoin:miter;stroke-width:1.321859;"/>
   </g>
   <g id="patch_36">
    <path clip-path="url(#p7dac8396fe)" d="M 598.334732 409.546663 
L 637.549799 409.546663 
L 637.549799 396.328069 
L 598.334732 396.328069 
z
" style="fill:#96c69a;fill-opacity:0.5;stroke:#ffffff;stroke-linejoin:miter;stroke-width:1.321859;"/>
   </g>
   <g id="patch_37">
    <path clip-path="url(#p7dac8396fe)" d="M 598.334732 396.328069 
L 628.694784 396.328069 
L 628.694784 383.109474 
L 598.334732 383.109474 
z
" style="fill:#96c69a;fill-opacity:0.5;stroke:#ffffff;stroke-linejoin:miter;stroke-width:1.321859;"/>
   </g>
   <g id="patch_38">
    <path clip-path="url(#p7dac8396fe)" d="M 598.334732 383.109474 
L 624.899778 383.109474 
L 624.899778 369.89088 
L 598.334732 369.89088 
z
" style="fill:#96c69a;fill-opacity:0.5;stroke:#ffffff;stroke-linejoin:miter;stroke-width:1.321859;"/>
   </g>
   <g id="patch_39">
    <path clip-path="url(#p7dac8396fe)" d="M 598.334732 369.89088 
L 623.213108 369.89088 
L 623.213108 356.672286 
L 598.334732 356.672286 
z
" style="fill:#96c69a;fill-opacity:0.5;stroke:#ffffff;stroke-linejoin:miter;stroke-width:1.321859;"/>
   </g>
   <g id="patch_40">
    <path clip-path="url(#p7dac8396fe)" d="M 598.334732 356.672286 
L 611.828089 356.672286 
L 611.828089 343.453691 
L 598.334732 343.453691 
z
" style="fill:#96c69a;fill-opacity:0.5;stroke:#ffffff;stroke-linejoin:miter;stroke-width:1.321859;"/>
   </g>
   <g id="patch_41">
    <path clip-path="url(#p7dac8396fe)" d="M 598.334732 343.453691 
L 610.984754 343.453691 
L 610.984754 330.235097 
L 598.334732 330.235097 
z
" style="fill:#96c69a;fill-opacity:0.5;stroke:#ffffff;stroke-linejoin:miter;stroke-width:1.321859;"/>
   </g>
   <g id="patch_42">
    <path clip-path="url(#p7dac8396fe)" d="M 598.334732 330.235097 
L 605.08141 330.235097 
L 605.08141 317.016503 
L 598.334732 317.016503 
z
" style="fill:#96c69a;fill-opacity:0.5;stroke:#ffffff;stroke-linejoin:miter;stroke-width:1.321859;"/>
   </g>
   <g id="patch_43">
    <path clip-path="url(#p7dac8396fe)" d="M 598.334732 317.016503 
L 604.659743 317.016503 
L 604.659743 303.797908 
L 598.334732 303.797908 
z
" style="fill:#96c69a;fill-opacity:0.5;stroke:#ffffff;stroke-linejoin:miter;stroke-width:1.321859;"/>
   </g>
   <g id="patch_44">
    <path clip-path="url(#p7dac8396fe)" d="M 598.334732 303.797908 
L 603.394741 303.797908 
L 603.394741 290.579314 
L 598.334732 290.579314 
z
" style="fill:#96c69a;fill-opacity:0.5;stroke:#ffffff;stroke-linejoin:miter;stroke-width:1.321859;"/>
   </g>
   <g id="patch_45">
    <path clip-path="url(#p7dac8396fe)" d="M 598.334732 290.579314 
L 604.659743 290.579314 
L 604.659743 277.36072 
L 598.334732 277.36072 
z
" style="fill:#96c69a;fill-opacity:0.5;stroke:#ffffff;stroke-linejoin:miter;stroke-width:1.321859;"/>
   </g>
   <g id="patch_46">
    <path clip-path="url(#p7dac8396fe)" d="M 598.334732 277.36072 
L 602.129739 277.36072 
L 602.129739 264.142125 
L 598.334732 264.142125 
z
" style="fill:#96c69a;fill-opacity:0.5;stroke:#ffffff;stroke-linejoin:miter;stroke-width:1.321859;"/>
   </g>
   <g id="patch_47">
    <path clip-path="url(#p7dac8396fe)" d="M 598.334732 264.142125 
L 599.599734 264.142125 
L 599.599734 250.923531 
L 598.334732 250.923531 
z
" style="fill:#96c69a;fill-opacity:0.5;stroke:#ffffff;stroke-linejoin:miter;stroke-width:1.321859;"/>
   </g>
   <g id="patch_48">
    <path clip-path="url(#p7dac8396fe)" d="M 598.334732 250.923531 
L 599.178067 250.923531 
L 599.178067 237.704937 
L 598.334732 237.704937 
z
" style="fill:#96c69a;fill-opacity:0.5;stroke:#ffffff;stroke-linejoin:miter;stroke-width:1.321859;"/>
   </g>
   <g id="patch_49">
    <path clip-path="url(#p7dac8396fe)" d="M 598.334732 237.704937 
L 599.599734 237.704937 
L 599.599734 224.486342 
L 598.334732 224.486342 
z
" style="fill:#96c69a;fill-opacity:0.5;stroke:#ffffff;stroke-linejoin:miter;stroke-width:1.321859;"/>
   </g>
   <g id="patch_50">
    <path clip-path="url(#p7dac8396fe)" d="M 598.334732 224.486342 
L 599.178067 224.486342 
L 599.178067 211.267748 
L 598.334732 211.267748 
z
" style="fill:#96c69a;fill-opacity:0.5;stroke:#ffffff;stroke-linejoin:miter;stroke-width:1.321859;"/>
   </g>
   <g id="patch_51">
    <path clip-path="url(#p7dac8396fe)" d="M 598.334732 211.267748 
L 600.021402 211.267748 
L 600.021402 198.049154 
L 598.334732 198.049154 
z
" style="fill:#96c69a;fill-opacity:0.5;stroke:#ffffff;stroke-linejoin:miter;stroke-width:1.321859;"/>
   </g>
   <g id="patch_52">
    <path clip-path="url(#p7dac8396fe)" d="M 598.334732 198.049154 
L 600.443069 198.049154 
L 600.443069 184.830559 
L 598.334732 184.830559 
z
" style="fill:#96c69a;fill-opacity:0.5;stroke:#ffffff;stroke-linejoin:miter;stroke-width:1.321859;"/>
   </g>
   <g id="patch_53">
    <path clip-path="url(#p7dac8396fe)" d="M 598.334732 184.830559 
L 598.7564 184.830559 
L 598.7564 171.611965 
L 598.334732 171.611965 
z
" style="fill:#96c69a;fill-opacity:0.5;stroke:#ffffff;stroke-linejoin:miter;stroke-width:1.321859;"/>
   </g>
   <g id="patch_54">
    <path clip-path="url(#p7dac8396fe)" d="M 598.334732 171.611965 
L 598.7564 171.611965 
L 598.7564 158.393371 
L 598.334732 158.393371 
z
" style="fill:#96c69a;fill-opacity:0.5;stroke:#ffffff;stroke-linejoin:miter;stroke-width:1.321859;"/>
   </g>
   <g id="patch_55">
    <path clip-path="url(#p7dac8396fe)" d="M 598.334732 158.393371 
L 598.7564 158.393371 
L 598.7564 145.174776 
L 598.334732 145.174776 
z
" style="fill:#96c69a;fill-opacity:0.5;stroke:#ffffff;stroke-linejoin:miter;stroke-width:1.321859;"/>
   </g>
   <g id="patch_56">
    <path clip-path="url(#p7dac8396fe)" d="M 598.334732 145.174776 
L 599.178067 145.174776 
L 599.178067 131.956182 
L 598.334732 131.956182 
z
" style="fill:#96c69a;fill-opacity:0.5;stroke:#ffffff;stroke-linejoin:miter;stroke-width:1.321859;"/>
   </g>
   <g id="patch_57">
    <path d="M 598.334732 603.86 
L 598.334732 109.484571 
" style="fill:none;stroke:#262626;stroke-linecap:square;stroke-linejoin:miter;stroke-width:2.5;"/>
   </g>
   <g id="patch_58">
    <path d="M 598.334732 603.86 
L 681.571875 603.86 
" style="fill:none;stroke:#262626;stroke-linecap:square;stroke-linejoin:miter;stroke-width:2.5;"/>
   </g>
  </g>
 </g>
 <defs>
  <clipPath id="pfe60c446d6">
   <rect height="494.375429" width="482.775429" x="98.911875" y="109.484571"/>
  </clipPath>
  <clipPath id="p0fd87fd963">
   <rect height="85.237143" width="482.775429" x="98.911875" y="7.2"/>
  </clipPath>
  <clipPath id="p7dac8396fe">
   <rect height="494.375429" width="83.237143" x="598.334732" y="109.484571"/>
  </clipPath>
 </defs>
</svg>
