<?xml version="1.0" encoding="utf-8" standalone="no"?>
<!DOCTYPE svg PUBLIC "-//W3C//DTD SVG 1.1//EN"
  "http://www.w3.org/Graphics/SVG/1.1/DTD/svg11.dtd">
<svg height="675.079375pt" version="1.1" viewBox="0 0 692.205311 675.079375" width="692.205311pt" xmlns="http://www.w3.org/2000/svg" xmlns:xlink="http://www.w3.org/1999/xlink">
 <metadata>
  <rdf:RDF xmlns:cc="http://creativecommons.org/ns#" xmlns:dc="http://purl.org/dc/elements/1.1/" xmlns:rdf="http://www.w3.org/1999/02/22-rdf-syntax-ns#">
   <cc:Work>
    <dc:type rdf:resource="http://purl.org/dc/dcmitype/StillImage"/>
    <dc:date>2021-07-16T21:44:02.148961</dc:date>
    <dc:format>image/svg+xml</dc:format>
    <dc:creator>
     <cc:Agent>
      <dc:title>Matplotlib v3.4.2, https://matplotlib.org/</dc:title>
     </cc:Agent>
    </dc:creator>
   </cc:Work>
  </rdf:RDF>
 </metadata>
 <defs>
  <style type="text/css">*{stroke-linecap:butt;stroke-linejoin:round;}</style>
 </defs>
 <g id="figure_1">
  <g id="patch_1">
   <path d="M 0 675.079375 
L 692.205311 675.079375 
L 692.205311 0 
L 0 0 
z
" style="fill:#ffffff;"/>
  </g>
  <g id="axes_1">
   <g id="patch_2">
    <path d="M 84.914375 603.86 
L 567.689804 603.86 
L 567.689804 109.484571 
L 84.914375 109.484571 
z
" style="fill:none;"/>
   </g>
   <g id="matplotlib.axis_1">
    <g id="xtick_1">
     <g id="text_1">
      <!-- 0 -->
      <g style="fill:#262626;" transform="translate(99.64041 636.076563)scale(0.22 -0.22)">
       <defs>
        <path d="M 2034 4250 
Q 1547 4250 1301 3770 
Q 1056 3291 1056 2328 
Q 1056 1369 1301 889 
Q 1547 409 2034 409 
Q 2525 409 2770 889 
Q 3016 1369 3016 2328 
Q 3016 3291 2770 3770 
Q 2525 4250 2034 4250 
z
M 2034 4750 
Q 2819 4750 3233 4129 
Q 3647 3509 3647 2328 
Q 3647 1150 3233 529 
Q 2819 -91 2034 -91 
Q 1250 -91 836 529 
Q 422 1150 422 2328 
Q 422 3509 836 4129 
Q 1250 4750 2034 4750 
z
" id="DejaVuSans-30" transform="scale(0.015625)"/>
       </defs>
       <use xlink:href="#DejaVuSans-30"/>
      </g>
     </g>
    </g>
    <g id="xtick_2">
     <g id="text_2">
      <!-- 20000 -->
      <g style="fill:#262626;" transform="translate(159.466671 636.076563)scale(0.22 -0.22)">
       <defs>
        <path d="M 1228 531 
L 3431 531 
L 3431 0 
L 469 0 
L 469 531 
Q 828 903 1448 1529 
Q 2069 2156 2228 2338 
Q 2531 2678 2651 2914 
Q 2772 3150 2772 3378 
Q 2772 3750 2511 3984 
Q 2250 4219 1831 4219 
Q 1534 4219 1204 4116 
Q 875 4013 500 3803 
L 500 4441 
Q 881 4594 1212 4672 
Q 1544 4750 1819 4750 
Q 2544 4750 2975 4387 
Q 3406 4025 3406 3419 
Q 3406 3131 3298 2873 
Q 3191 2616 2906 2266 
Q 2828 2175 2409 1742 
Q 1991 1309 1228 531 
z
" id="DejaVuSans-32" transform="scale(0.015625)"/>
       </defs>
       <use xlink:href="#DejaVuSans-32"/>
       <use x="63.623047" xlink:href="#DejaVuSans-30"/>
       <use x="127.246094" xlink:href="#DejaVuSans-30"/>
       <use x="190.869141" xlink:href="#DejaVuSans-30"/>
       <use x="254.492188" xlink:href="#DejaVuSans-30"/>
      </g>
     </g>
    </g>
    <g id="xtick_3">
     <g id="text_3">
      <!-- 40000 -->
      <g style="fill:#262626;" transform="translate(247.287932 636.076563)scale(0.22 -0.22)">
       <defs>
        <path d="M 2419 4116 
L 825 1625 
L 2419 1625 
L 2419 4116 
z
M 2253 4666 
L 3047 4666 
L 3047 1625 
L 3713 1625 
L 3713 1100 
L 3047 1100 
L 3047 0 
L 2419 0 
L 2419 1100 
L 313 1100 
L 313 1709 
L 2253 4666 
z
" id="DejaVuSans-34" transform="scale(0.015625)"/>
       </defs>
       <use xlink:href="#DejaVuSans-34"/>
       <use x="63.623047" xlink:href="#DejaVuSans-30"/>
       <use x="127.246094" xlink:href="#DejaVuSans-30"/>
       <use x="190.869141" xlink:href="#DejaVuSans-30"/>
       <use x="254.492188" xlink:href="#DejaVuSans-30"/>
      </g>
     </g>
    </g>
    <g id="xtick_4">
     <g id="text_4">
      <!-- 60000 -->
      <g style="fill:#262626;" transform="translate(335.109193 636.076563)scale(0.22 -0.22)">
       <defs>
        <path d="M 2113 2584 
Q 1688 2584 1439 2293 
Q 1191 2003 1191 1497 
Q 1191 994 1439 701 
Q 1688 409 2113 409 
Q 2538 409 2786 701 
Q 3034 994 3034 1497 
Q 3034 2003 2786 2293 
Q 2538 2584 2113 2584 
z
M 3366 4563 
L 3366 3988 
Q 3128 4100 2886 4159 
Q 2644 4219 2406 4219 
Q 1781 4219 1451 3797 
Q 1122 3375 1075 2522 
Q 1259 2794 1537 2939 
Q 1816 3084 2150 3084 
Q 2853 3084 3261 2657 
Q 3669 2231 3669 1497 
Q 3669 778 3244 343 
Q 2819 -91 2113 -91 
Q 1303 -91 875 529 
Q 447 1150 447 2328 
Q 447 3434 972 4092 
Q 1497 4750 2381 4750 
Q 2619 4750 2861 4703 
Q 3103 4656 3366 4563 
z
" id="DejaVuSans-36" transform="scale(0.015625)"/>
       </defs>
       <use xlink:href="#DejaVuSans-36"/>
       <use x="63.623047" xlink:href="#DejaVuSans-30"/>
       <use x="127.246094" xlink:href="#DejaVuSans-30"/>
       <use x="190.869141" xlink:href="#DejaVuSans-30"/>
       <use x="254.492188" xlink:href="#DejaVuSans-30"/>
      </g>
     </g>
    </g>
    <g id="xtick_5">
     <g id="text_5">
      <!-- 80000 -->
      <g style="fill:#262626;" transform="translate(422.930455 636.076563)scale(0.22 -0.22)">
       <defs>
        <path d="M 2034 2216 
Q 1584 2216 1326 1975 
Q 1069 1734 1069 1313 
Q 1069 891 1326 650 
Q 1584 409 2034 409 
Q 2484 409 2743 651 
Q 3003 894 3003 1313 
Q 3003 1734 2745 1975 
Q 2488 2216 2034 2216 
z
M 1403 2484 
Q 997 2584 770 2862 
Q 544 3141 544 3541 
Q 544 4100 942 4425 
Q 1341 4750 2034 4750 
Q 2731 4750 3128 4425 
Q 3525 4100 3525 3541 
Q 3525 3141 3298 2862 
Q 3072 2584 2669 2484 
Q 3125 2378 3379 2068 
Q 3634 1759 3634 1313 
Q 3634 634 3220 271 
Q 2806 -91 2034 -91 
Q 1263 -91 848 271 
Q 434 634 434 1313 
Q 434 1759 690 2068 
Q 947 2378 1403 2484 
z
M 1172 3481 
Q 1172 3119 1398 2916 
Q 1625 2713 2034 2713 
Q 2441 2713 2670 2916 
Q 2900 3119 2900 3481 
Q 2900 3844 2670 4047 
Q 2441 4250 2034 4250 
Q 1625 4250 1398 4047 
Q 1172 3844 1172 3481 
z
" id="DejaVuSans-38" transform="scale(0.015625)"/>
       </defs>
       <use xlink:href="#DejaVuSans-38"/>
       <use x="63.623047" xlink:href="#DejaVuSans-30"/>
       <use x="127.246094" xlink:href="#DejaVuSans-30"/>
       <use x="190.869141" xlink:href="#DejaVuSans-30"/>
       <use x="254.492188" xlink:href="#DejaVuSans-30"/>
      </g>
     </g>
    </g>
    <g id="xtick_6">
     <g id="text_6">
      <!-- 100000 -->
      <g style="fill:#262626;" transform="translate(503.752966 636.076563)scale(0.22 -0.22)">
       <defs>
        <path d="M 794 531 
L 1825 531 
L 1825 4091 
L 703 3866 
L 703 4441 
L 1819 4666 
L 2450 4666 
L 2450 531 
L 3481 531 
L 3481 0 
L 794 0 
L 794 531 
z
" id="DejaVuSans-31" transform="scale(0.015625)"/>
       </defs>
       <use xlink:href="#DejaVuSans-31"/>
       <use x="63.623047" xlink:href="#DejaVuSans-30"/>
       <use x="127.246094" xlink:href="#DejaVuSans-30"/>
       <use x="190.869141" xlink:href="#DejaVuSans-30"/>
       <use x="254.492188" xlink:href="#DejaVuSans-30"/>
       <use x="318.115234" xlink:href="#DejaVuSans-30"/>
      </g>
     </g>
    </g>
    <g id="text_7">
     <!-- MDTU -->
     <g style="fill:#262626;" transform="translate(290.596464 662.888125)scale(0.24 -0.24)">
      <defs>
       <path d="M 628 4666 
L 1569 4666 
L 2759 1491 
L 3956 4666 
L 4897 4666 
L 4897 0 
L 4281 0 
L 4281 4097 
L 3078 897 
L 2444 897 
L 1241 4097 
L 1241 0 
L 628 0 
L 628 4666 
z
" id="DejaVuSans-4d" transform="scale(0.015625)"/>
       <path d="M 1259 4147 
L 1259 519 
L 2022 519 
Q 2988 519 3436 956 
Q 3884 1394 3884 2338 
Q 3884 3275 3436 3711 
Q 2988 4147 2022 4147 
L 1259 4147 
z
M 628 4666 
L 1925 4666 
Q 3281 4666 3915 4102 
Q 4550 3538 4550 2338 
Q 4550 1131 3912 565 
Q 3275 0 1925 0 
L 628 0 
L 628 4666 
z
" id="DejaVuSans-44" transform="scale(0.015625)"/>
       <path d="M -19 4666 
L 3928 4666 
L 3928 4134 
L 2272 4134 
L 2272 0 
L 1638 0 
L 1638 4134 
L -19 4134 
L -19 4666 
z
" id="DejaVuSans-54" transform="scale(0.015625)"/>
       <path d="M 556 4666 
L 1191 4666 
L 1191 1831 
Q 1191 1081 1462 751 
Q 1734 422 2344 422 
Q 2950 422 3222 751 
Q 3494 1081 3494 1831 
L 3494 4666 
L 4128 4666 
L 4128 1753 
Q 4128 841 3676 375 
Q 3225 -91 2344 -91 
Q 1459 -91 1007 375 
Q 556 841 556 1753 
L 556 4666 
z
" id="DejaVuSans-55" transform="scale(0.015625)"/>
      </defs>
      <use xlink:href="#DejaVuSans-4d"/>
      <use x="86.279297" xlink:href="#DejaVuSans-44"/>
      <use x="163.28125" xlink:href="#DejaVuSans-54"/>
      <use x="224.365234" xlink:href="#DejaVuSans-55"/>
     </g>
    </g>
   </g>
   <g id="matplotlib.axis_2">
    <g id="ytick_1">
     <g id="text_8">
      <!-- 0.5 -->
      <g style="fill:#262626;" transform="translate(34.4275 531.813925)scale(0.22 -0.22)">
       <defs>
        <path d="M 684 794 
L 1344 794 
L 1344 0 
L 684 0 
L 684 794 
z
" id="DejaVuSans-2e" transform="scale(0.015625)"/>
        <path d="M 691 4666 
L 3169 4666 
L 3169 4134 
L 1269 4134 
L 1269 2991 
Q 1406 3038 1543 3061 
Q 1681 3084 1819 3084 
Q 2600 3084 3056 2656 
Q 3513 2228 3513 1497 
Q 3513 744 3044 326 
Q 2575 -91 1722 -91 
Q 1428 -91 1123 -41 
Q 819 9 494 109 
L 494 744 
Q 775 591 1075 516 
Q 1375 441 1709 441 
Q 2250 441 2565 725 
Q 2881 1009 2881 1497 
Q 2881 1984 2565 2268 
Q 2250 2553 1709 2553 
Q 1456 2553 1204 2497 
Q 953 2441 691 2322 
L 691 4666 
z
" id="DejaVuSans-35" transform="scale(0.015625)"/>
       </defs>
       <use xlink:href="#DejaVuSans-30"/>
       <use x="63.623047" xlink:href="#DejaVuSans-2e"/>
       <use x="95.410156" xlink:href="#DejaVuSans-35"/>
      </g>
     </g>
    </g>
    <g id="ytick_2">
     <g id="text_9">
      <!-- 1.0 -->
      <g style="fill:#262626;" transform="translate(34.4275 425.440546)scale(0.22 -0.22)">
       <use xlink:href="#DejaVuSans-31"/>
       <use x="63.623047" xlink:href="#DejaVuSans-2e"/>
       <use x="95.410156" xlink:href="#DejaVuSans-30"/>
      </g>
     </g>
    </g>
    <g id="ytick_3">
     <g id="text_10">
      <!-- 1.5 -->
      <g style="fill:#262626;" transform="translate(34.4275 319.067167)scale(0.22 -0.22)">
       <use xlink:href="#DejaVuSans-31"/>
       <use x="63.623047" xlink:href="#DejaVuSans-2e"/>
       <use x="95.410156" xlink:href="#DejaVuSans-35"/>
      </g>
     </g>
    </g>
    <g id="ytick_4">
     <g id="text_11">
      <!-- 2.0 -->
      <g style="fill:#262626;" transform="translate(34.4275 212.693788)scale(0.22 -0.22)">
       <use xlink:href="#DejaVuSans-32"/>
       <use x="63.623047" xlink:href="#DejaVuSans-2e"/>
       <use x="95.410156" xlink:href="#DejaVuSans-30"/>
      </g>
     </g>
    </g>
    <g id="text_12">
     <!-- $E$ -->
     <g style="fill:#262626;" transform="translate(25.43625 364.352286)rotate(-90)scale(0.24 -0.24)">
      <defs>
       <path d="M 1081 4666 
L 4031 4666 
L 3928 4134 
L 1606 4134 
L 1338 2753 
L 3566 2753 
L 3463 2222 
L 1234 2222 
L 909 531 
L 3284 531 
L 3181 0 
L 172 0 
L 1081 4666 
z
" id="DejaVuSans-Oblique-45" transform="scale(0.015625)"/>
      </defs>
      <use transform="translate(0 0.09375)" xlink:href="#DejaVuSans-Oblique-45"/>
     </g>
    </g>
   </g>
   <g id="line2d_1">
    <path clip-path="url(#p2286373727)" d="M 106.858713 402.389881 
L 107.078266 517.061683 
L 107.517372 551.114759 
L 107.736925 581.38839 
L 107.956478 388.953871 
L 108.176032 504.953173 
L 108.395585 480.408207 
L 108.615138 533.548761 
L 108.834691 380.347508 
L 109.054244 449.306222 
L 109.273797 413.004263 
L 109.493351 534.926943 
L 109.712904 533.186597 
L 109.932457 474.643365 
L 110.15201 559.584737 
L 110.591116 530.564955 
L 110.810669 533.112672 
L 111.030223 454.540068 
L 111.249776 491.871494 
L 111.469329 461.654829 
L 111.688882 401.266732 
L 112.127988 484.667414 
L 112.567095 516.196732 
L 112.786648 449.625037 
L 113.006201 436.081007 
L 113.225754 514.673583 
L 113.445307 438.551442 
L 113.66486 462.148082 
L 113.884414 551.308022 
L 114.103967 490.440998 
L 114.32352 470.400404 
L 114.543073 488.617851 
L 114.762626 448.057719 
L 114.982179 506.238536 
L 115.201732 472.99762 
L 115.421286 364.233158 
L 115.640839 510.65478 
L 115.860392 458.827133 
L 116.079945 490.072142 
L 116.299498 476.208926 
L 116.519051 548.872472 
L 116.738605 418.243286 
L 117.177711 557.969099 
L 117.397264 529.4697 
L 117.83637 337.828869 
L 118.055923 503.503633 
L 118.275477 417.657249 
L 118.49503 513.575926 
L 118.714583 334.528559 
L 119.153689 547.583066 
L 119.373242 340.619333 
L 119.592796 414.839801 
L 119.812349 450.71605 
L 120.031902 515.029562 
L 120.251455 519.4452 
L 120.471008 444.042246 
L 120.690561 426.534973 
L 120.910114 368.403874 
L 121.129668 487.090246 
L 121.349221 472.85811 
L 121.568774 467.247088 
L 121.788327 457.104839 
L 122.00788 475.437692 
L 122.227433 474.921745 
L 122.446987 387.070036 
L 122.66654 494.664691 
L 122.886093 503.852541 
L 123.105646 416.295595 
L 123.325199 420.30357 
L 123.544752 541.232524 
L 123.983859 460.138323 
L 124.203412 457.599954 
L 124.422965 502.990981 
L 124.642518 317.842257 
L 124.862071 414.013403 
L 125.081624 413.489689 
L 125.301178 555.887578 
L 125.520731 436.566826 
L 125.740284 531.98983 
L 125.959837 407.268698 
L 126.398943 464.97912 
L 126.618496 423.143789 
L 126.83805 462.077685 
L 127.057603 539.589894 
L 127.277156 471.647488 
L 127.496709 476.831644 
L 127.935815 525.1892 
L 128.155369 410.272476 
L 128.594475 533.87925 
L 128.814028 521.646866 
L 129.033581 465.26078 
L 129.253134 525.954117 
L 129.472687 483.0042 
L 129.692241 477.783058 
L 129.911794 396.270686 
L 130.131347 390.244834 
L 130.3509 427.323734 
L 130.790006 561.197019 
L 131.00956 481.483521 
L 131.229113 454.793409 
L 131.448666 544.407848 
L 131.668219 530.992343 
L 131.887772 497.554059 
L 132.107325 433.994928 
L 132.326878 404.103307 
L 132.546432 430.65623 
L 132.985538 528.387416 
L 133.205091 448.256161 
L 133.644197 530.284105 
L 133.863751 528.634104 
L 134.083304 518.401031 
L 134.302857 488.417542 
L 134.52241 400.498544 
L 134.741963 504.695493 
L 134.961516 531.199982 
L 135.400623 390.16708 
L 135.839729 547.202817 
L 136.059282 503.912155 
L 136.278835 529.943048 
L 136.498388 504.133171 
L 136.717941 501.395239 
L 137.157048 446.363921 
L 137.376601 296.357781 
L 137.596154 545.332199 
L 137.815707 451.812054 
L 138.03526 484.223782 
L 138.254814 540.993443 
L 138.474367 526.096026 
L 138.69392 392.710879 
L 138.913473 491.901325 
L 139.133026 432.062542 
L 139.352579 536.691319 
L 139.572132 535.373446 
L 139.791686 515.615472 
L 140.011239 466.137664 
L 140.230792 441.912929 
L 140.669898 564.558237 
L 140.889451 547.061117 
L 141.109005 432.025854 
L 141.328558 502.853155 
L 141.548111 517.697917 
L 141.767664 349.182233 
L 141.987217 518.08245 
L 142.20677 370.25917 
L 142.426323 482.269791 
L 142.645877 484.496394 
L 142.86543 355.084986 
L 143.084983 487.34437 
L 143.304536 533.756764 
L 143.524089 427.875268 
L 143.743642 524.66537 
L 143.963196 498.374915 
L 144.182749 549.590754 
L 144.402302 376.378493 
L 144.621855 414.8117 
L 144.841408 404.181045 
L 145.280514 488.559059 
L 145.500068 322.393912 
L 145.719621 525.865298 
L 145.939174 436.792021 
L 146.158727 512.573918 
L 146.37828 535.625033 
L 146.597833 486.64999 
L 146.817387 511.479774 
L 147.03694 373.541575 
L 147.256493 537.858416 
L 147.476046 471.458472 
L 147.695599 464.958846 
L 147.915152 394.990656 
L 148.134705 415.732795 
L 148.354259 510.167251 
L 148.573812 534.129524 
L 148.793365 498.310381 
L 149.012918 490.649822 
L 149.232471 500.541965 
L 149.452024 503.342768 
L 149.671578 376.80972 
L 149.891131 488.626156 
L 150.110684 476.645317 
L 150.330237 505.249392 
L 150.54979 409.05488 
L 150.769343 515.732975 
L 150.988896 341.342419 
L 151.20845 450.582591 
L 151.647556 548.411161 
L 151.867109 537.435556 
L 152.086662 416.69606 
L 152.306215 412.04761 
L 152.525769 510.755786 
L 152.745322 417.977519 
L 152.964875 543.030942 
L 153.184428 523.220779 
L 153.403981 465.381265 
L 153.623534 439.284123 
L 153.843087 550.187575 
L 154.062641 473.821672 
L 154.282194 501.590746 
L 154.501747 419.106048 
L 154.7213 460.875277 
L 154.940853 436.740014 
L 155.160406 512.289888 
L 155.37996 545.281797 
L 155.819066 447.50107 
L 156.038619 455.620883 
L 156.477725 536.548036 
L 156.697278 343.640991 
L 156.916832 469.544097 
L 157.136385 508.319369 
L 157.575491 450.506693 
L 157.795044 494.697403 
L 158.014597 490.92836 
L 158.234151 484.007995 
L 158.453704 496.509433 
L 158.673257 481.303196 
L 158.89281 522.912371 
L 159.112363 493.000055 
L 159.331916 529.739111 
L 159.551469 450.284672 
L 159.771023 513.968601 
L 159.990576 531.23834 
L 160.210129 417.111708 
L 160.429682 464.649715 
L 160.649235 399.598855 
L 160.868788 544.585202 
L 161.088342 447.20741 
L 161.307895 560.487856 
L 161.527448 503.777589 
L 161.747001 486.250184 
L 161.966554 492.515682 
L 162.186107 485.624217 
L 162.40566 482.292267 
L 162.625214 488.957281 
L 162.844767 408.707498 
L 163.06432 517.88853 
L 163.722979 410.660001 
L 163.942532 546.672372 
L 164.162086 534.738036 
L 164.381639 437.711907 
L 164.601192 465.2371 
L 164.820745 454.279644 
L 165.040298 499.439132 
L 165.259851 493.919353 
L 165.479405 496.563195 
L 165.698958 446.438498 
L 166.357617 507.986495 
L 166.57717 489.189275 
L 166.796723 459.130338 
L 167.016277 473.453851 
L 167.455383 527.951253 
L 167.674936 497.949742 
L 167.894489 525.797873 
L 168.114042 447.142319 
L 168.333596 517.450468 
L 168.553149 515.82363 
L 168.772702 550.769848 
L 168.992255 443.380088 
L 169.211808 496.608939 
L 169.431361 476.479271 
L 169.650914 479.349377 
L 169.870468 561.157167 
L 170.090021 429.100335 
L 170.309574 533.78927 
L 170.529127 544.212685 
L 170.74868 503.586415 
L 170.968233 489.518011 
L 171.187787 395.589702 
L 171.40734 434.81644 
L 171.626893 443.412103 
L 171.846446 436.623969 
L 172.065999 461.255071 
L 172.285552 516.136561 
L 172.505105 513.199958 
L 172.724659 401.276802 
L 172.944212 536.493116 
L 173.163765 495.998808 
L 173.383318 431.848045 
L 173.602871 408.574457 
L 173.822424 500.822572 
L 174.041978 363.887669 
L 174.261531 401.70876 
L 174.481084 472.331537 
L 174.92019 508.520337 
L 175.139743 425.348921 
L 175.359296 438.875851 
L 175.57885 530.279626 
L 175.798403 357.674583 
L 176.237509 544.734907 
L 176.676615 464.695872 
L 176.896169 401.380684 
L 177.115722 553.644455 
L 177.554828 422.230261 
L 177.774381 489.642875 
L 177.993934 503.134978 
L 178.213487 551.722582 
L 178.652594 437.235341 
L 178.872147 496.375168 
L 179.0917 497.574766 
L 179.311253 513.834885 
L 179.530806 504.854418 
L 179.75036 544.813212 
L 179.969913 535.275579 
L 180.189466 535.212417 
L 180.409019 352.174253 
L 180.628572 544.659516 
L 180.848125 513.34447 
L 181.067678 388.920096 
L 181.287232 473.238602 
L 181.506785 485.778285 
L 181.726338 533.456453 
L 181.945891 488.41998 
L 182.165444 469.458528 
L 182.384997 514.999723 
L 182.604551 495.121051 
L 182.824104 573.247196 
L 183.043657 473.446628 
L 183.26321 473.030094 
L 183.482763 513.470867 
L 183.702316 388.618565 
L 183.921869 500.42575 
L 184.141423 369.10287 
L 184.360976 529.014956 
L 184.580529 365.03491 
L 184.800082 485.269989 
L 185.239188 432.461066 
L 185.458742 509.879637 
L 185.678295 481.083094 
L 185.897848 543.20712 
L 186.117401 513.090655 
L 186.336954 403.523808 
L 186.556507 504.002759 
L 186.77606 399.709434 
L 186.995614 499.433477 
L 187.215167 456.354294 
L 187.43472 531.72446 
L 187.654273 358.894942 
L 187.873826 539.921195 
L 188.093379 470.819136 
L 188.312932 466.685465 
L 188.532486 536.132783 
L 188.971592 475.500313 
L 189.191145 557.172653 
L 189.410698 461.788235 
L 189.630251 548.688505 
L 189.849805 565.717855 
L 190.069358 533.053224 
L 190.288911 455.281192 
L 190.508464 486.009084 
L 190.728017 427.892252 
L 190.94757 500.889018 
L 191.167123 419.018639 
L 191.386677 445.985085 
L 191.60623 538.989484 
L 191.825783 470.823607 
L 192.045336 437.442275 
L 192.264889 507.714971 
L 192.484442 480.194338 
L 192.703996 410.659473 
L 192.923549 546.696176 
L 193.143102 428.385723 
L 193.362655 445.083331 
L 193.582208 418.934467 
L 193.801761 531.780668 
L 194.021314 528.184613 
L 194.240868 510.877293 
L 194.460421 502.924326 
L 194.679974 257.20581 
L 194.899527 426.24258 
L 195.11908 464.398985 
L 195.338633 548.552414 
L 195.77774 442.572991 
L 195.997293 525.813836 
L 196.436399 444.209364 
L 196.655952 539.932047 
L 197.314612 486.330331 
L 197.534165 497.136681 
L 197.753718 557.471534 
L 197.973271 496.077103 
L 198.192824 377.218915 
L 198.412378 409.760268 
L 198.631931 507.490835 
L 198.851484 495.218937 
L 199.071037 492.858358 
L 199.29059 562.154841 
L 199.510143 369.056426 
L 199.729696 509.175934 
L 199.94925 544.052709 
L 200.168803 518.268819 
L 200.388356 433.839606 
L 200.607909 570.544657 
L 201.266569 416.064516 
L 201.486122 480.00533 
L 201.705675 342.165809 
L 201.925228 559.711073 
L 202.144781 458.297671 
L 202.364334 459.760325 
L 202.583887 549.512672 
L 202.803441 498.909834 
L 203.022994 551.92164 
L 203.242547 498.653842 
L 203.4621 494.354732 
L 203.681653 365.132876 
L 203.901206 529.81777 
L 204.12076 537.193725 
L 204.340313 416.132667 
L 204.559866 463.21225 
L 204.779419 559.044 
L 204.998972 323.473189 
L 205.438078 498.483679 
L 205.657632 503.635177 
L 205.877185 337.978069 
L 206.096738 547.214501 
L 206.316291 510.355434 
L 206.535844 508.434932 
L 206.974951 380.827181 
L 207.194504 493.32844 
L 207.414057 493.96289 
L 207.63361 470.604933 
L 207.853163 529.757862 
L 208.072716 428.441834 
L 208.292269 560.168819 
L 208.511823 433.60697 
L 208.731376 536.572611 
L 208.950929 472.843298 
L 209.170482 448.511473 
L 209.390035 445.413755 
L 209.609588 506.072536 
L 209.829142 384.876339 
L 210.048695 493.61575 
L 210.268248 528.171848 
L 210.487801 522.60726 
L 210.707354 563.886865 
L 210.926907 485.810519 
L 211.14646 561.313351 
L 211.366014 504.472601 
L 211.585567 504.419053 
L 211.80512 498.509197 
L 212.024673 527.206109 
L 212.244226 520.694065 
L 212.463779 480.17809 
L 212.683333 505.601152 
L 212.902886 492.346192 
L 213.122439 441.63714 
L 213.341992 467.679127 
L 213.561545 477.037099 
L 213.781098 426.342903 
L 214.000651 520.272697 
L 214.220205 483.978377 
L 214.439758 503.29442 
L 214.878864 358.498672 
L 215.098417 488.182902 
L 215.31797 518.674439 
L 215.537523 456.310817 
L 215.757077 513.227881 
L 215.97663 461.752448 
L 216.196183 481.322666 
L 216.415736 545.318579 
L 216.635289 505.762795 
L 216.854842 493.814603 
L 217.074396 502.611262 
L 217.293949 485.17303 
L 217.513502 495.876478 
L 217.733055 562.119356 
L 218.172161 471.786025 
L 218.391714 463.817444 
L 218.611268 432.364161 
L 218.830821 479.522893 
L 219.050374 384.512511 
L 219.269927 436.538885 
L 219.48948 527.403425 
L 220.14814 372.093974 
L 220.367693 443.610559 
L 220.587246 555.569648 
L 220.806799 443.274091 
L 221.026352 519.558286 
L 221.245905 491.073467 
L 221.465459 507.583567 
L 221.685012 503.795134 
L 221.904565 532.112203 
L 222.124118 400.60502 
L 222.563224 511.350565 
L 222.782778 553.356034 
L 223.002331 336.969716 
L 223.221884 499.859873 
L 223.441437 458.711663 
L 223.66099 552.623506 
L 223.880543 507.493338 
L 224.100096 538.516861 
L 224.31965 465.409544 
L 224.539203 531.253787 
L 224.978309 451.789009 
L 225.197862 478.169606 
L 225.417415 533.624278 
L 225.856522 474.264847 
L 226.076075 426.764668 
L 226.295628 413.558225 
L 226.515181 533.803952 
L 226.734734 527.498169 
L 226.954287 501.284196 
L 227.173841 363.349196 
L 227.393394 414.103517 
L 227.612947 511.857388 
L 227.8325 422.242509 
L 228.052053 490.52609 
L 228.271606 472.597933 
L 228.49116 433.404241 
L 228.710713 444.786175 
L 228.930266 532.173893 
L 229.149819 463.810872 
L 229.369372 319.588186 
L 229.588925 484.494762 
L 229.808478 537.412948 
L 230.028032 393.039489 
L 230.247585 519.384991 
L 230.467138 466.258246 
L 230.686691 484.086401 
L 230.906244 540.710173 
L 231.345351 299.799736 
L 231.564904 331.677191 
L 231.784457 506.545654 
L 232.00401 508.241992 
L 232.223563 529.235736 
L 232.443116 515.589247 
L 232.662669 558.193972 
L 233.101776 311.673023 
L 233.321329 457.968547 
L 233.540882 474.659191 
L 233.760435 501.889823 
L 233.979988 449.99353 
L 234.199542 514.330755 
L 234.419095 363.658428 
L 234.638648 543.656466 
L 234.858201 551.067437 
L 235.077754 512.430414 
L 235.297307 424.707644 
L 235.736414 537.225341 
L 235.955967 522.356882 
L 236.17552 468.93374 
L 236.395073 478.812425 
L 236.614626 469.359672 
L 236.834179 403.586091 
L 237.053733 503.854063 
L 237.492839 554.296579 
L 237.931945 450.157793 
L 238.151498 549.286287 
L 238.371051 490.49317 
L 238.590605 539.920075 
L 238.810158 420.896998 
L 239.029711 421.245996 
L 239.249264 557.117059 
L 239.468817 383.967299 
L 239.907924 489.319008 
L 240.127477 438.733136 
L 240.34703 487.428076 
L 240.566583 458.884002 
L 240.786136 458.221298 
L 241.005689 481.460582 
L 241.225242 457.782528 
L 241.444796 362.47817 
L 241.664349 525.852259 
L 241.883902 552.241583 
L 242.103455 559.788857 
L 242.323008 454.511999 
L 242.981668 549.209019 
L 243.201221 488.384618 
L 243.420774 370.682921 
L 243.640327 342.828615 
L 243.85988 377.662871 
L 244.079433 437.220822 
L 244.298987 354.503143 
L 244.51854 490.197752 
L 244.738093 433.971971 
L 244.957646 510.654427 
L 245.177199 498.539205 
L 245.396752 515.872148 
L 245.616305 510.40412 
L 245.835859 532.726932 
L 246.055412 438.46975 
L 246.274965 517.324282 
L 246.494518 461.36356 
L 246.714071 475.343308 
L 246.933624 514.053245 
L 247.372731 419.071566 
L 247.592284 272.349763 
L 248.03139 510.874471 
L 248.250943 450.275327 
L 248.470496 515.377142 
L 248.69005 449.170437 
L 248.909603 514.401778 
L 249.129156 469.712326 
L 249.348709 533.077093 
L 249.568262 548.970444 
L 249.787815 353.311163 
L 250.007369 467.9808 
L 250.226922 434.176619 
L 250.446475 466.780798 
L 250.666028 443.422963 
L 250.885581 503.104848 
L 251.105134 457.006041 
L 251.324687 525.693402 
L 251.544241 517.627454 
L 251.763794 505.363916 
L 251.983347 526.300515 
L 252.422453 434.47733 
L 252.642006 488.335408 
L 253.081113 432.878995 
L 253.300666 418.22309 
L 253.520219 530.948574 
L 253.739772 533.358691 
L 253.959325 492.936894 
L 254.178878 485.534335 
L 254.398432 427.026136 
L 254.617985 553.939101 
L 254.837538 493.093874 
L 255.057091 327.259784 
L 255.276644 521.095191 
L 255.496197 516.872784 
L 255.715751 531.29568 
L 255.935304 416.215246 
L 256.37441 485.04538 
L 256.593963 479.052792 
L 256.813516 407.076781 
L 257.033069 507.984554 
L 257.252623 421.435205 
L 257.472176 503.10914 
L 257.691729 466.045316 
L 257.911282 459.145928 
L 258.130835 533.693689 
L 258.350388 508.512739 
L 258.789495 498.557701 
L 259.009048 470.263231 
L 259.228601 526.281627 
L 259.448154 504.647003 
L 259.667707 437.841722 
L 259.88726 264.071369 
L 260.106814 434.970143 
L 260.326367 515.540095 
L 260.54592 515.242877 
L 260.765473 460.274365 
L 260.985026 472.41073 
L 261.204579 394.165133 
L 261.424133 515.349252 
L 261.863239 418.093645 
L 262.082792 411.433103 
L 262.302345 490.174823 
L 262.521898 465.259748 
L 262.741451 510.16922 
L 263.180558 374.985243 
L 263.400111 467.170998 
L 263.619664 475.146456 
L 263.839217 401.554335 
L 264.05877 513.277777 
L 264.278324 467.259227 
L 264.71743 539.335197 
L 264.936983 286.67424 
L 265.156536 476.449466 
L 265.376089 536.644966 
L 265.595642 469.106177 
L 265.815196 475.030254 
L 266.034749 473.596694 
L 266.254302 551.624823 
L 266.473855 468.291374 
L 266.693408 564.530496 
L 267.132514 457.445186 
L 267.352068 298.554316 
L 267.571621 469.537147 
L 267.791174 429.699754 
L 268.010727 526.942624 
L 268.23028 552.485399 
L 268.449833 458.185995 
L 268.669387 497.377196 
L 268.88894 482.022667 
L 269.108493 520.981848 
L 269.328046 365.518331 
L 269.547599 463.705136 
L 269.767152 393.117616 
L 269.986705 428.771039 
L 270.206259 386.871197 
L 270.425812 518.84496 
L 270.645365 443.790552 
L 270.864918 520.056679 
L 271.084471 349.402035 
L 271.304024 505.527741 
L 271.523578 413.165662 
L 271.743131 535.604673 
L 271.962684 513.792797 
L 272.182237 510.916307 
L 272.40179 504.789778 
L 272.621343 525.314411 
L 272.840896 459.581724 
L 273.06045 554.309893 
L 273.499556 445.784885 
L 273.719109 383.491109 
L 273.938662 497.751617 
L 274.158215 423.023985 
L 274.377769 565.395791 
L 274.816875 404.066185 
L 275.036428 492.710416 
L 275.255981 499.578644 
L 275.475534 499.869402 
L 275.695087 467.989311 
L 276.134194 356.949147 
L 276.353747 558.082444 
L 276.5733 424.261737 
L 276.792853 472.367191 
L 277.012406 453.550706 
L 277.23196 516.015193 
L 277.671066 413.58538 
L 278.110172 504.579081 
L 278.329725 500.861213 
L 278.549278 383.516376 
L 278.768832 527.753634 
L 278.988385 419.591902 
L 279.207938 433.061571 
L 279.427491 532.055983 
L 279.647044 536.735596 
L 279.866597 439.577704 
L 280.086151 522.287399 
L 280.305704 469.329858 
L 280.525257 512.537008 
L 280.74481 339.05639 
L 280.964363 514.457461 
L 281.183916 490.157793 
L 281.403469 554.245008 
L 281.842576 476.36153 
L 282.062129 425.264979 
L 282.281682 502.671167 
L 282.501235 471.333331 
L 282.720788 514.142325 
L 282.940342 485.409997 
L 283.159895 514.564282 
L 283.379448 519.292573 
L 283.599001 393.660038 
L 283.818554 424.730779 
L 284.038107 481.695882 
L 284.25766 463.264185 
L 284.477214 406.673432 
L 284.696767 442.135585 
L 284.91632 504.07223 
L 285.135873 392.479265 
L 285.355426 549.935579 
L 285.574979 503.85781 
L 285.794533 490.913727 
L 286.014086 536.341746 
L 286.233639 409.629993 
L 286.453192 445.784124 
L 286.672745 416.090072 
L 287.111851 477.037683 
L 287.331405 500.464527 
L 287.550958 357.136103 
L 287.770511 522.216271 
L 287.990064 548.514074 
L 288.209617 465.385954 
L 288.42917 428.2369 
L 288.648724 523.750446 
L 288.868277 511.538421 
L 289.08783 545.468895 
L 289.307383 535.331461 
L 289.526936 403.68483 
L 289.966042 509.199666 
L 290.185596 451.092244 
L 290.405149 539.002436 
L 290.624702 370.57984 
L 290.844255 550.221237 
L 291.063808 466.039826 
L 291.283361 470.209976 
L 291.502915 545.953744 
L 291.722468 517.975566 
L 291.942021 548.815419 
L 292.161574 392.84874 
L 292.381127 545.376894 
L 292.60068 545.017318 
L 292.820233 505.567436 
L 293.039787 521.436618 
L 293.478893 459.216932 
L 293.698446 463.322825 
L 293.917999 478.621778 
L 294.137552 526.859093 
L 294.357105 506.601573 
L 294.576659 456.029162 
L 294.796212 486.879106 
L 295.015765 411.633914 
L 295.235318 471.875658 
L 295.454871 490.527704 
L 295.674424 493.773338 
L 295.893978 520.176084 
L 296.113531 392.003671 
L 296.333084 481.743683 
L 296.552637 522.070373 
L 296.77219 455.830025 
L 296.991743 550.103859 
L 297.211296 532.451615 
L 297.43085 502.543332 
L 297.650403 380.954323 
L 297.869956 369.06402 
L 298.089509 541.958978 
L 298.309062 457.277228 
L 298.528615 483.448332 
L 298.748169 428.304427 
L 298.967722 485.1048 
L 299.187275 421.51601 
L 299.406828 455.508052 
L 299.626381 449.299063 
L 299.845934 370.566757 
L 300.065487 525.130072 
L 300.285041 537.080928 
L 300.504594 511.931481 
L 300.724147 450.842309 
L 300.9437 431.574686 
L 301.382806 525.098442 
L 301.60236 493.309694 
L 301.821913 494.873323 
L 302.041466 401.749023 
L 302.261019 416.569409 
L 302.700125 460.08781 
L 302.919678 515.986643 
L 303.139232 404.523207 
L 303.578338 516.658933 
L 304.017444 455.332317 
L 304.236997 540.580762 
L 304.456551 264.190569 
L 304.676104 442.097323 
L 304.895657 521.296501 
L 305.334763 444.228466 
L 305.554316 472.523817 
L 305.773869 485.667855 
L 305.993423 447.095157 
L 306.212976 505.110272 
L 306.432529 347.769274 
L 306.652082 522.549338 
L 306.871635 521.615185 
L 307.091188 484.431022 
L 307.310742 539.953817 
L 307.530295 440.525898 
L 307.749848 505.586525 
L 308.188954 525.373176 
L 308.408507 514.146307 
L 308.62806 518.272038 
L 308.847614 313.288494 
L 309.067167 477.023233 
L 309.28672 536.85537 
L 309.506273 546.3332 
L 309.725826 444.244642 
L 309.945379 425.983767 
L 310.164933 492.041064 
L 310.604039 409.46085 
L 311.043145 498.629128 
L 311.262698 500.795871 
L 311.482251 428.169567 
L 311.701805 551.285484 
L 311.921358 427.526837 
L 312.140911 518.123148 
L 312.360464 547.164594 
L 312.580017 462.344952 
L 313.019124 518.085319 
L 313.238677 503.30511 
L 313.45823 503.96637 
L 313.677783 523.594936 
L 314.116889 481.042092 
L 314.336442 524.755182 
L 314.555996 427.73326 
L 314.775549 511.850493 
L 314.995102 443.544117 
L 315.214655 524.852099 
L 315.434208 514.974911 
L 315.653761 430.710031 
L 315.873315 463.067499 
L 316.092868 461.342183 
L 316.312421 515.489192 
L 316.531974 380.66548 
L 316.751527 518.481847 
L 316.97108 434.398355 
L 317.190633 485.808788 
L 317.410187 379.115196 
L 317.62974 363.420334 
L 317.849293 536.411735 
L 318.068846 558.562595 
L 318.288399 352.395527 
L 318.507952 523.825685 
L 318.727506 514.617179 
L 318.947059 338.253995 
L 319.166612 481.163498 
L 319.386165 490.598301 
L 319.605718 480.590091 
L 319.825271 513.954099 
L 320.483931 444.699131 
L 320.703484 474.606044 
L 320.923037 561.307975 
L 321.14259 506.494798 
L 321.362143 532.098713 
L 321.581696 405.290648 
L 321.80125 516.027828 
L 322.020803 564.06949 
L 322.240356 279.10359 
L 322.459909 497.746011 
L 322.899015 462.144133 
L 323.118569 483.373729 
L 323.557675 546.499283 
L 323.777228 517.848396 
L 323.996781 451.47772 
L 324.216334 510.283489 
L 324.435887 429.411749 
L 324.655441 492.951945 
L 324.874994 356.171594 
L 325.094547 562.584 
L 325.3141 531.304134 
L 325.533653 453.201742 
L 325.753206 498.693146 
L 325.97276 451.177023 
L 326.192313 443.06821 
L 326.411866 534.956103 
L 326.631419 561.587538 
L 326.850972 479.186411 
L 327.070525 487.080681 
L 327.290078 400.646174 
L 327.509632 412.279045 
L 327.729185 550.511377 
L 327.948738 400.740455 
L 328.168291 479.488838 
L 328.387844 427.472155 
L 328.607397 466.233909 
L 328.826951 477.1717 
L 329.046504 524.0075 
L 329.266057 484.665827 
L 329.48561 494.317161 
L 329.705163 426.813306 
L 329.924716 495.145239 
L 330.144269 463.653051 
L 330.363823 453.493902 
L 330.583376 548.597799 
L 330.802929 516.120508 
L 331.022482 426.744484 
L 331.242035 445.151574 
L 331.461588 520.276099 
L 331.681142 482.245669 
L 331.900695 403.374658 
L 332.120248 460.577116 
L 332.339801 472.106418 
L 332.559354 549.001861 
L 332.778907 514.835057 
L 332.99846 452.410532 
L 333.218014 463.770029 
L 333.437567 544.973191 
L 333.65712 501.911003 
L 333.876673 380.148031 
L 334.096226 479.917021 
L 334.315779 521.531616 
L 334.535333 490.085442 
L 334.754886 542.413712 
L 334.974439 372.384706 
L 335.193992 533.984484 
L 335.413545 309.322794 
L 335.633098 502.15426 
L 335.852651 387.790042 
L 336.072205 548.953633 
L 336.291758 453.441124 
L 336.511311 438.152686 
L 336.730864 515.743464 
L 336.950417 486.832867 
L 337.389524 468.688015 
L 337.609077 512.422098 
L 337.82863 390.148928 
L 338.267736 543.704999 
L 338.487289 437.431862 
L 338.706842 386.070387 
L 339.145949 550.525173 
L 339.365502 450.884019 
L 339.585055 459.110387 
L 339.804608 424.190859 
L 340.024161 540.619614 
L 340.243715 390.421192 
L 340.463268 437.586011 
L 340.682821 395.341817 
L 340.902374 458.66297 
L 341.121927 448.33398 
L 341.34148 504.490059 
L 341.561033 511.647029 
L 341.780587 460.746293 
L 342.00014 485.673032 
L 342.219693 491.158969 
L 342.439246 490.426114 
L 342.658799 454.047309 
L 342.878352 468.508869 
L 343.097906 470.887502 
L 343.317459 510.703588 
L 343.537012 518.937207 
L 343.976118 547.384665 
L 344.195671 443.459095 
L 344.415224 541.742825 
L 344.634778 503.945026 
L 344.854331 387.252936 
L 345.073884 479.589286 
L 345.293437 471.06088 
L 345.732543 374.433948 
L 345.952096 545.069625 
L 346.391203 438.42148 
L 346.610756 510.459395 
L 346.830309 526.84366 
L 347.049862 436.955044 
L 347.269415 423.41445 
L 347.488969 559.20007 
L 347.708522 527.015002 
L 347.928075 371.907022 
L 348.147628 530.3685 
L 348.367181 464.984475 
L 348.586734 459.860443 
L 349.025841 545.972723 
L 349.245394 472.018525 
L 349.464947 437.286568 
L 349.6845 523.28587 
L 349.904053 414.093122 
L 350.34316 496.882751 
L 350.562713 446.311044 
L 350.782266 514.024485 
L 351.221372 488.227677 
L 351.440925 489.373741 
L 351.660478 482.680728 
L 351.880032 415.89729 
L 352.099585 437.716593 
L 352.319138 541.623847 
L 352.538691 553.123699 
L 352.758244 452.746285 
L 352.977797 554.548388 
L 353.197351 502.93971 
L 353.416904 496.78415 
L 353.636457 467.392588 
L 353.85601 551.15092 
L 354.075563 307.765076 
L 354.514669 534.956565 
L 354.734223 252.509148 
L 354.953776 526.207754 
L 355.173329 558.82347 
L 355.392882 566.325449 
L 355.612435 430.49693 
L 355.831988 444.392222 
L 356.051542 387.665771 
L 356.271095 493.721449 
L 356.490648 511.730969 
L 356.710201 389.817349 
L 356.929754 410.73623 
L 357.36886 517.713053 
L 357.588414 404.453704 
L 357.807967 516.506549 
L 358.02752 515.79957 
L 358.247073 507.706658 
L 358.466626 455.22149 
L 358.686179 466.678709 
L 359.125286 471.838435 
L 359.344839 321.973449 
L 359.564392 527.085701 
L 359.783945 455.858192 
L 360.003498 486.858779 
L 360.223051 550.827377 
L 360.442605 383.784054 
L 360.662158 458.573946 
L 360.881711 482.590606 
L 361.101264 472.275563 
L 361.320817 391.653169 
L 361.54037 495.031153 
L 361.759924 477.73748 
L 361.979477 474.155536 
L 362.19903 555.291307 
L 362.418583 409.221569 
L 362.638136 537.557029 
L 362.857689 514.754081 
L 363.077242 369.278527 
L 363.296796 500.750652 
L 363.516349 494.71409 
L 363.735902 507.462223 
L 363.955455 579.659269 
L 364.175008 570.219339 
L 364.394561 350.474883 
L 364.833668 498.535046 
L 365.053221 472.492296 
L 365.272774 488.560206 
L 365.71188 425.53824 
L 365.931433 321.704084 
L 366.150987 531.64177 
L 366.37054 475.928564 
L 366.590093 497.398338 
L 366.809646 466.999947 
L 367.029199 538.424772 
L 367.248752 453.70249 
L 367.468306 487.216985 
L 367.687859 543.231602 
L 367.907412 444.844074 
L 368.126965 407.511836 
L 368.346518 558.15498 
L 368.785624 456.051123 
L 369.005178 354.79241 
L 369.224731 525.906269 
L 369.444284 490.649101 
L 369.88339 511.549465 
L 370.102943 482.337109 
L 370.322497 489.053348 
L 370.54205 519.586949 
L 370.761603 487.18395 
L 370.981156 438.166685 
L 371.200709 575.993767 
L 371.420262 419.319 
L 371.639815 520.017857 
L 371.859369 514.252352 
L 372.078922 395.878084 
L 372.298475 537.729675 
L 372.737581 518.089967 
L 372.957134 573.114762 
L 373.176687 417.881334 
L 373.396241 420.405329 
L 373.615794 543.209157 
L 373.835347 505.413783 
L 374.0549 500.560712 
L 374.274453 502.258372 
L 374.494006 528.756014 
L 374.71356 478.717694 
L 374.933113 522.721466 
L 375.152666 485.620227 
L 375.372219 368.481135 
L 375.591772 423.196081 
L 375.811325 524.152224 
L 376.030878 532.510541 
L 376.250432 497.821162 
L 376.469985 491.947984 
L 376.689538 454.362472 
L 376.909091 479.383025 
L 377.128644 438.875143 
L 377.348197 503.117806 
L 377.567751 470.38265 
L 378.006857 376.625265 
L 378.22641 473.335574 
L 378.445963 496.945946 
L 378.665516 459.742593 
L 378.885069 533.241213 
L 379.104623 413.118234 
L 379.543729 565.7523 
L 379.763282 413.516525 
L 379.982835 509.1198 
L 380.202388 512.099833 
L 380.641495 422.731181 
L 380.861048 509.543579 
L 381.080601 481.131562 
L 381.300154 507.513789 
L 381.519707 428.399133 
L 381.958814 553.821188 
L 382.178367 532.721336 
L 382.39792 377.782777 
L 382.617473 528.169595 
L 382.837026 562.554881 
L 383.056579 562.385278 
L 383.276133 505.195926 
L 383.495686 478.201356 
L 383.715239 490.9752 
L 383.934792 402.668203 
L 384.154345 446.921308 
L 384.373898 434.936279 
L 384.593451 528.554439 
L 384.813005 437.23056 
L 385.252111 514.815367 
L 385.471664 500.971881 
L 385.691217 510.314143 
L 385.91077 512.747292 
L 386.130324 385.304873 
L 386.349877 525.823414 
L 386.56943 525.900589 
L 386.788983 498.491031 
L 387.228089 556.110296 
L 387.447642 473.036206 
L 387.667196 335.982177 
L 387.886749 531.894785 
L 388.106302 491.183903 
L 388.325855 569.279084 
L 388.764961 494.015802 
L 388.984515 525.43922 
L 389.204068 506.971688 
L 389.423621 436.669767 
L 389.643174 496.779188 
L 389.862727 507.317254 
L 390.08228 505.242949 
L 390.301833 519.633103 
L 390.521387 466.687371 
L 390.74094 527.612381 
L 390.960493 346.693204 
L 391.399599 519.190141 
L 391.619152 500.244708 
L 391.838706 448.4914 
L 392.058259 472.867906 
L 392.277812 519.384232 
L 392.497365 375.279476 
L 392.716918 544.890187 
L 392.936471 522.713991 
L 393.156024 531.954282 
L 393.375578 506.806644 
L 393.595131 501.786578 
L 393.814684 486.358375 
L 394.034237 511.184581 
L 394.25379 434.111581 
L 394.473343 554.350926 
L 394.692897 534.474525 
L 394.91245 380.934581 
L 395.132003 515.67313 
L 395.351556 493.170392 
L 395.571109 408.694089 
L 396.229769 520.620946 
L 396.449322 518.068444 
L 396.888428 530.66662 
L 397.107981 508.534986 
L 397.327534 346.995008 
L 397.547087 463.694718 
L 397.766641 261.691004 
L 397.986194 376.767198 
L 398.205747 559.466214 
L 398.4253 517.140769 
L 398.644853 513.047438 
L 398.864406 506.826583 
L 399.08396 392.524449 
L 399.303513 555.149909 
L 399.523066 385.413878 
L 399.742619 490.241974 
L 399.962172 481.692411 
L 400.181725 517.379926 
L 400.401278 393.968983 
L 400.620832 517.176117 
L 400.840385 446.932671 
L 401.059938 550.771054 
L 401.499044 426.851196 
L 401.938151 458.139235 
L 402.157704 458.162806 
L 402.59681 508.642913 
L 402.816363 372.00774 
L 403.035916 515.636305 
L 403.255469 477.328366 
L 403.475023 572.025803 
L 403.694576 281.60274 
L 403.914129 542.480434 
L 404.133682 554.1275 
L 404.353235 539.449158 
L 404.572788 549.21936 
L 404.792342 542.288966 
L 405.231448 464.282553 
L 405.670554 562.620704 
L 405.890107 447.749253 
L 406.329214 535.296445 
L 406.548767 344.35102 
L 406.76832 376.156809 
L 406.987873 435.836587 
L 407.207426 539.856512 
L 407.426979 456.789518 
L 407.646533 451.110992 
L 407.866086 499.400239 
L 408.085639 488.323047 
L 408.305192 500.003667 
L 408.524745 518.425127 
L 408.744298 492.52218 
L 408.963851 488.112119 
L 409.183405 544.553575 
L 409.402958 481.893432 
L 409.622511 492.408755 
L 409.842064 535.004734 
L 410.061617 438.921518 
L 410.28117 454.556081 
L 410.720277 559.798565 
L 410.93983 523.31057 
L 411.159383 505.630933 
L 411.378936 326.148762 
L 411.598489 431.59603 
L 411.818042 460.260805 
L 412.037596 426.975076 
L 412.257149 536.89416 
L 412.476702 480.514719 
L 412.696255 498.606115 
L 412.915808 543.798673 
L 413.354915 510.487459 
L 413.574468 437.044094 
L 413.794021 316.428602 
L 414.013574 476.322939 
L 414.233127 465.418672 
L 414.45268 501.924542 
L 414.672233 376.795549 
L 414.891787 493.989265 
L 415.11134 525.895728 
L 415.330893 459.36105 
L 415.769999 515.704782 
L 415.989552 446.367926 
L 416.209106 518.318997 
L 416.428659 286.443972 
L 416.648212 503.499114 
L 417.087318 537.997042 
L 417.306871 466.523848 
L 417.526424 502.618991 
L 417.745978 480.508721 
L 417.965531 480.28894 
L 418.185084 450.081755 
L 418.404637 511.160983 
L 418.62419 480.374988 
L 418.843743 386.740742 
L 419.063297 562.715645 
L 419.28285 534.619727 
L 419.502403 472.591074 
L 419.721956 367.368267 
L 419.941509 526.685682 
L 420.161062 471.424869 
L 420.600169 531.926248 
L 420.819722 514.568865 
L 421.039275 405.317898 
L 421.258828 426.636523 
L 421.478381 520.51165 
L 421.697934 534.547127 
L 421.917488 349.18305 
L 422.576147 539.860126 
L 422.7957 526.272213 
L 423.015253 435.106389 
L 423.234806 469.76664 
L 423.45436 472.71117 
L 423.673913 554.62671 
L 423.893466 517.067251 
L 424.113019 371.120192 
L 424.332572 372.848111 
L 424.552125 490.844401 
L 424.771678 538.381647 
L 424.991232 463.209719 
L 425.210785 481.235765 
L 425.430338 433.062877 
L 425.649891 437.147515 
L 425.869444 418.58834 
L 426.088997 131.956182 
L 426.308551 562.004744 
L 426.528104 536.421525 
L 426.747657 419.120492 
L 426.96721 417.916137 
L 427.186763 436.282497 
L 427.406316 559.180493 
L 427.625869 349.965093 
L 427.845423 537.982003 
L 428.064976 492.424156 
L 428.284529 532.295653 
L 428.504082 481.088939 
L 428.723635 380.044377 
L 428.943188 524.518745 
L 429.162742 513.004949 
L 429.382295 527.675106 
L 429.601848 491.512202 
L 429.821401 486.175845 
L 430.040954 458.648825 
L 430.260507 516.209152 
L 430.48006 503.684997 
L 430.699614 403.223148 
L 430.919167 419.197839 
L 431.13872 466.271103 
L 431.358273 474.647213 
L 431.797379 507.097062 
L 432.236486 445.862913 
L 432.456039 481.17802 
L 432.675592 433.662287 
L 432.895145 478.394573 
L 433.114698 404.850569 
L 433.553805 484.757233 
L 433.773358 373.416239 
L 433.992911 542.780288 
L 434.212464 441.224325 
L 434.65157 549.699731 
L 434.871124 435.226289 
L 435.090677 443.915808 
L 435.31023 399.01085 
L 435.529783 513.482018 
L 435.749336 507.747866 
L 435.968889 522.92762 
L 436.188442 502.43838 
L 436.627549 379.121604 
L 436.847102 542.967651 
L 437.066655 439.708159 
L 437.286208 481.486471 
L 437.725315 372.459721 
L 437.944868 482.91194 
L 438.164421 508.374353 
L 438.383974 425.337014 
L 439.042633 508.648366 
L 439.262187 403.652804 
L 439.48174 501.735098 
L 439.920846 283.253984 
L 440.140399 340.520662 
L 440.359952 502.096001 
L 440.579506 534.052605 
L 440.799059 494.767737 
L 441.018612 502.888119 
L 441.238165 404.06678 
L 441.457718 463.379801 
L 441.677271 405.118675 
L 441.896824 505.886598 
L 442.116378 491.183763 
L 442.335931 387.174158 
L 442.555484 428.807041 
L 442.775037 350.203321 
L 442.99459 516.805109 
L 443.214143 522.081124 
L 443.65325 429.690386 
L 444.092356 552.172292 
L 444.311909 371.546398 
L 444.751015 489.655233 
L 444.970569 484.919615 
L 445.190122 488.004166 
L 445.409675 503.16733 
L 445.629228 436.970083 
L 445.848781 439.482338 
L 446.068334 437.933542 
L 446.287888 479.837539 
L 446.507441 480.20139 
L 446.726994 440.937471 
L 447.1661 539.084464 
L 447.82476 396.04633 
L 448.044313 495.703537 
L 448.483419 550.448404 
L 448.702972 420.986757 
L 448.922525 428.379602 
L 449.142079 468.322182 
L 449.361632 480.436996 
L 449.581185 510.676287 
L 449.800738 491.314505 
L 450.020291 419.627794 
L 450.239844 437.624665 
L 450.459397 429.061405 
L 450.678951 509.389946 
L 450.898504 474.921713 
L 451.118057 539.669566 
L 451.33761 518.031897 
L 451.557163 426.242568 
L 451.776716 501.712599 
L 451.996269 469.83355 
L 452.215823 458.524196 
L 452.435376 547.5337 
L 452.874482 432.955849 
L 453.094035 459.039034 
L 453.313588 532.985477 
L 453.533142 535.819183 
L 453.752695 535.027391 
L 454.191801 399.548653 
L 454.411354 471.886797 
L 454.630907 456.205181 
L 454.85046 557.379886 
L 455.070014 446.082615 
L 455.289567 531.956981 
L 455.50912 544.74632 
L 455.728673 480.91797 
L 455.948226 459.552669 
L 456.167779 413.249321 
L 456.387333 311.429487 
L 456.826439 494.938058 
L 457.045992 481.057453 
L 457.265545 446.90293 
L 457.485098 447.206578 
L 457.704651 463.765115 
L 458.143758 538.716913 
L 458.363311 516.277068 
L 458.582864 523.347812 
L 458.802417 394.190929 
L 459.02197 424.0385 
L 459.241524 482.081522 
L 459.68063 540.460058 
L 459.900183 539.805237 
L 460.119736 407.641799 
L 460.339289 454.596681 
L 460.558842 459.868085 
L 460.778396 546.485304 
L 460.997949 429.412521 
L 461.217502 417.866163 
L 461.437055 538.901938 
L 461.656608 480.311276 
L 461.876161 467.944617 
L 462.095715 443.080076 
L 462.315268 562.182834 
L 462.534821 559.692812 
L 462.754374 512.693006 
L 462.973927 505.793179 
L 463.19348 515.043453 
L 463.413033 462.300595 
L 463.632587 515.743377 
L 463.85214 494.966291 
L 464.071693 424.463193 
L 464.291246 505.88341 
L 464.510799 486.060164 
L 464.730352 423.603229 
L 464.949906 506.466696 
L 465.169459 456.971008 
L 465.389012 545.947759 
L 465.608565 457.114065 
L 465.828118 532.856613 
L 466.047671 407.127914 
L 466.267224 437.31549 
L 466.486778 538.383002 
L 466.706331 458.719037 
L 466.925884 519.854509 
L 467.145437 529.361188 
L 467.36499 474.793872 
L 467.584543 496.677137 
L 467.804097 459.199334 
L 468.02365 526.013862 
L 468.243203 483.704069 
L 468.462756 382.85902 
L 468.682309 506.424642 
L 468.901862 488.673198 
L 469.340969 569.983657 
L 469.999628 372.670887 
L 470.219181 504.778403 
L 470.438734 444.679337 
L 470.658288 537.360228 
L 470.877841 528.345573 
L 471.097394 480.102187 
L 471.316947 561.357183 
L 471.5365 479.031505 
L 471.756053 336.79811 
L 471.975606 379.32845 
L 472.19516 537.817882 
L 472.414713 432.057674 
L 472.634266 526.833487 
L 472.853819 530.693833 
L 473.073372 441.753955 
L 473.292925 521.328847 
L 473.512479 432.161958 
L 473.732032 445.318501 
L 473.951585 421.40382 
L 474.171138 413.513894 
L 474.390691 489.26199 
L 474.610244 483.029333 
L 474.829797 444.397249 
L 475.049351 499.312652 
L 475.268904 470.541301 
L 475.488457 520.503449 
L 475.70801 402.095647 
L 475.927563 528.059963 
L 476.147116 403.034247 
L 476.366669 457.336637 
L 476.586223 463.478049 
L 476.805776 413.579959 
L 477.025329 538.884087 
L 477.244882 402.965988 
L 477.464435 371.387146 
L 477.683988 509.023844 
L 478.123095 404.994916 
L 478.342648 502.753494 
L 478.562201 507.585265 
L 478.781754 545.74669 
L 479.001307 469.043585 
L 479.22086 495.934819 
L 479.440414 502.384403 
L 479.659967 420.660592 
L 479.87952 536.527715 
L 480.099073 423.429739 
L 480.318626 473.602874 
L 480.538179 479.41233 
L 480.757733 551.113154 
L 480.977286 542.308329 
L 481.196839 392.287564 
L 481.416392 495.854931 
L 481.635945 487.964402 
L 481.855498 484.88117 
L 482.075051 329.625806 
L 482.294605 509.380373 
L 482.514158 411.357727 
L 482.953264 543.945576 
L 483.172817 481.003307 
L 483.39237 460.766955 
L 483.611924 421.598064 
L 483.831477 516.457974 
L 484.05103 415.582492 
L 484.270583 432.274914 
L 484.490136 382.49349 
L 484.709689 549.183911 
L 484.929242 454.281524 
L 485.148796 574.374692 
L 485.368349 457.718052 
L 485.587902 442.673739 
L 486.027008 502.860183 
L 486.246561 311.87119 
L 486.466115 478.51218 
L 486.905221 374.755339 
L 487.124774 499.532136 
L 487.344327 532.520284 
L 487.56388 432.365318 
L 487.783433 473.962355 
L 488.002987 558.592745 
L 488.22254 463.748788 
L 488.442093 521.337778 
L 488.661646 505.068958 
L 488.881199 530.523434 
L 489.100752 483.188034 
L 489.320306 527.894077 
L 489.539859 528.044297 
L 489.759412 510.616461 
L 489.978965 467.957831 
L 490.198518 511.535586 
L 490.418071 530.822278 
L 490.637624 409.313567 
L 491.076731 480.06947 
L 491.296284 408.182514 
L 491.515837 488.673642 
L 491.73539 434.885398 
L 491.954943 411.791144 
L 492.39405 530.804799 
L 492.613603 458.854694 
L 492.833156 459.858023 
L 493.052709 495.021398 
L 493.272262 413.773199 
L 493.491815 538.367575 
L 493.930922 414.366968 
L 494.150475 490.882953 
L 494.370028 495.418198 
L 494.809134 451.663199 
L 495.028688 521.621823 
L 495.248241 554.810628 
L 495.467794 508.054311 
L 495.687347 508.201813 
L 495.9069 544.829672 
L 496.126453 526.823299 
L 496.346006 335.936252 
L 496.56556 502.409219 
L 496.785113 458.073739 
L 497.004666 550.582125 
L 497.224219 462.331388 
L 497.443772 422.039808 
L 497.663325 476.000587 
L 497.882879 446.822702 
L 498.102432 549.182917 
L 498.541538 479.262522 
L 498.761091 474.727868 
L 499.200197 521.277174 
L 499.419751 366.113636 
L 499.639304 550.223939 
L 500.07841 403.488109 
L 500.297963 421.6063 
L 500.517516 450.046188 
L 500.73707 412.531201 
L 500.956623 479.884435 
L 501.176176 475.086121 
L 501.395729 517.655673 
L 501.615282 483.752753 
L 501.834835 516.257725 
L 502.054388 491.77261 
L 502.273942 413.189464 
L 502.493495 511.490415 
L 502.713048 553.511313 
L 502.932601 480.732848 
L 503.152154 365.258118 
L 503.371707 525.732176 
L 503.59126 504.850257 
L 503.810814 419.507295 
L 504.030367 426.212792 
L 504.24992 518.967071 
L 504.689026 452.048893 
L 504.908579 377.387496 
L 505.128133 422.267897 
L 505.347686 403.109365 
L 505.567239 472.162627 
L 506.006345 387.87764 
L 506.225898 499.059199 
L 506.445451 491.481637 
L 506.884558 530.050395 
L 507.323664 469.759182 
L 507.543217 319.549648 
L 507.76277 410.259805 
L 508.201877 483.513575 
L 508.42143 445.616003 
L 508.640983 499.151297 
L 508.860536 461.18311 
L 509.080089 486.666057 
L 509.299642 479.011784 
L 509.519196 515.657888 
L 509.738749 466.064039 
L 509.958302 463.213997 
L 510.177855 558.742398 
L 510.397408 549.458259 
L 510.616961 547.536303 
L 510.836515 525.756781 
L 511.056068 520.109159 
L 511.275621 448.298556 
L 511.495174 540.448106 
L 511.714727 511.0227 
L 511.93428 510.997388 
L 512.153833 407.200244 
L 512.373387 488.958732 
L 512.59294 477.900673 
L 512.812493 344.494206 
L 513.032046 413.385144 
L 513.251599 377.939352 
L 513.471152 360.714596 
L 513.690706 545.470113 
L 513.910259 499.70458 
L 514.129812 520.766952 
L 514.349365 530.366478 
L 514.788471 505.396212 
L 515.008024 365.447263 
L 515.227578 432.379814 
L 515.447131 551.895558 
L 515.886237 459.238511 
L 516.10579 362.694664 
L 516.325343 473.318545 
L 516.76445 511.55002 
L 516.984003 397.114727 
L 517.203556 481.045749 
L 517.423109 505.964213 
L 517.642662 552.547949 
L 517.862215 294.501803 
L 518.081769 485.622513 
L 518.301322 490.712915 
L 518.520875 486.457357 
L 518.740428 375.2728 
L 518.959981 431.301801 
L 519.179534 530.616586 
L 519.399088 513.515191 
L 519.618641 443.189672 
L 519.838194 486.630446 
L 520.057747 477.977847 
L 520.2773 429.871317 
L 520.716406 565.440609 
L 520.93596 522.692197 
L 521.155513 505.997185 
L 521.375066 432.02326 
L 521.594619 528.205384 
L 522.033725 434.110657 
L 522.472832 561.780174 
L 522.692385 542.156834 
L 522.911938 556.908932 
L 523.131491 541.725509 
L 523.570597 395.513397 
L 523.790151 481.621427 
L 524.009704 418.0654 
L 524.229257 527.488796 
L 524.44881 439.033784 
L 524.668363 528.250722 
L 524.887916 370.683989 
L 525.10747 459.793936 
L 525.327023 436.616988 
L 525.546576 503.609144 
L 525.766129 470.702127 
L 525.985682 577.165994 
L 526.205235 506.488519 
L 526.424788 520.794468 
L 526.644342 449.724582 
L 526.863895 460.829151 
L 527.083448 514.762986 
L 527.303001 457.304141 
L 527.522554 527.932373 
L 528.181214 485.817578 
L 528.400767 564.349329 
L 528.62032 515.306543 
L 528.839873 353.949859 
L 529.278979 499.24164 
L 529.498533 480.094701 
L 529.718086 409.183585 
L 529.937639 553.908045 
L 530.157192 450.433897 
L 530.376745 496.644345 
L 530.596298 369.366966 
L 531.035405 437.466114 
L 531.254958 411.903288 
L 531.474511 371.909796 
L 531.694064 511.554067 
L 531.913617 469.060699 
L 532.13317 516.973484 
L 532.572277 408.908787 
L 532.79183 482.260674 
L 533.011383 423.194313 
L 533.230936 434.952629 
L 533.450489 490.881636 
L 533.889596 528.905329 
L 534.109149 188.952831 
L 534.328702 436.49125 
L 534.548255 510.209386 
L 534.767808 447.484629 
L 534.987361 314.88175 
L 535.206915 433.350449 
L 535.426468 475.990916 
L 535.646021 561.425732 
L 535.865574 534.33188 
L 536.085127 540.109755 
L 536.30468 446.774836 
L 536.524233 471.046215 
L 536.743787 575.310569 
L 537.182893 483.415774 
L 537.402446 419.472399 
L 537.621999 494.402635 
L 537.841552 441.191277 
L 538.280659 237.145892 
L 538.500212 412.766576 
L 539.158871 491.196654 
L 539.378424 502.340054 
L 539.597978 301.179554 
L 539.817531 502.341084 
L 540.037084 450.37347 
L 540.256637 435.988365 
L 540.47619 514.294984 
L 540.695743 304.499859 
L 541.13485 538.453045 
L 541.354403 557.540063 
L 541.573956 508.625251 
L 541.793509 399.909438 
L 542.013062 436.123472 
L 542.232615 524.372235 
L 542.452169 530.036565 
L 542.671722 498.006358 
L 542.891275 513.593333 
L 543.110828 511.153255 
L 543.549934 330.955597 
L 543.769488 479.47953 
L 543.989041 529.744901 
L 544.428147 413.999711 
L 544.6477 505.859724 
L 544.867253 522.622154 
L 545.086806 449.422017 
L 545.30636 446.333491 
L 545.525913 482.091219 
L 545.745466 468.851144 
L 545.745466 468.851144 
" style="fill:none;stroke:#96c69a;stroke-linecap:round;stroke-width:3;"/>
   </g>
   <g id="line2d_2"/>
   <g id="patch_3">
    <path d="M 84.914375 603.86 
L 84.914375 109.484571 
" style="fill:none;stroke:#262626;stroke-linecap:square;stroke-linejoin:miter;stroke-width:2.5;"/>
   </g>
   <g id="patch_4">
    <path d="M 84.914375 603.86 
L 567.689804 603.86 
" style="fill:none;stroke:#262626;stroke-linecap:square;stroke-linejoin:miter;stroke-width:2.5;"/>
   </g>
   <g id="legend_1">
    <g id="patch_5">
     <path d="M 514.774179 598.86 
L 560.689804 598.86 
Q 562.689804 598.86 562.689804 596.86 
L 562.689804 554.954375 
Q 562.689804 552.954375 560.689804 552.954375 
L 514.774179 552.954375 
Q 512.774179 552.954375 512.774179 554.954375 
L 512.774179 596.86 
Q 512.774179 598.86 514.774179 598.86 
z
" style="fill:#ffffff;opacity:0.8;stroke:#cccccc;stroke-linejoin:miter;stroke-width:2;"/>
    </g>
    <g id="text_13">
     <!-- $n_\tau$ -->
     <g style="fill:#262626;" transform="translate(524.651991 575.190625)scale(0.24 -0.24)">
      <defs>
       <path d="M 3566 2113 
L 3156 0 
L 2578 0 
L 2988 2091 
Q 3016 2238 3031 2350 
Q 3047 2463 3047 2528 
Q 3047 2791 2881 2937 
Q 2716 3084 2419 3084 
Q 1956 3084 1622 2776 
Q 1288 2469 1184 1941 
L 800 0 
L 225 0 
L 903 3500 
L 1478 3500 
L 1363 2950 
Q 1603 3253 1940 3418 
Q 2278 3584 2650 3584 
Q 3113 3584 3367 3334 
Q 3622 3084 3622 2631 
Q 3622 2519 3608 2391 
Q 3594 2263 3566 2113 
z
" id="DejaVuSans-Oblique-6e" transform="scale(0.015625)"/>
       <path d="M 2103 638 
Q 2188 488 2525 488 
L 2800 488 
L 2706 0 
L 2363 0 
Q 1800 0 1600 300 
Q 1403 606 1534 1269 
L 1856 2925 
L 541 2925 
L 653 3500 
L 3881 3500 
L 3769 2925 
L 2444 2925 
L 2113 1234 
Q 2025 781 2103 638 
z
" id="DejaVuSans-Oblique-3c4" transform="scale(0.015625)"/>
      </defs>
      <use xlink:href="#DejaVuSans-Oblique-6e"/>
      <use transform="translate(63.378906 -16.40625)scale(0.7)" xlink:href="#DejaVuSans-Oblique-3c4"/>
     </g>
    </g>
    <g id="line2d_3">
     <path d="M 516.774179 589.280313 
L 536.774179 589.280313 
" style="fill:none;stroke:#96c69a;stroke-linecap:round;stroke-width:3;"/>
    </g>
    <g id="line2d_4"/>
    <g id="text_14">
     <!-- 32 -->
     <g style="fill:#262626;" transform="translate(544.774179 592.780313)scale(0.1 -0.1)">
      <defs>
       <path d="M 2981 2516 
Q 3453 2394 3698 2092 
Q 3944 1791 3944 1325 
Q 3944 631 3412 270 
Q 2881 -91 1863 -91 
Q 1503 -91 1142 -33 
Q 781 25 428 141 
L 428 1069 
Q 766 900 1098 814 
Q 1431 728 1753 728 
Q 2231 728 2486 893 
Q 2741 1059 2741 1369 
Q 2741 1688 2480 1852 
Q 2219 2016 1709 2016 
L 1228 2016 
L 1228 2791 
L 1734 2791 
Q 2188 2791 2409 2933 
Q 2631 3075 2631 3366 
Q 2631 3634 2415 3781 
Q 2200 3928 1806 3928 
Q 1516 3928 1219 3862 
Q 922 3797 628 3669 
L 628 4550 
Q 984 4650 1334 4700 
Q 1684 4750 2022 4750 
Q 2931 4750 3382 4451 
Q 3834 4153 3834 3553 
Q 3834 3144 3618 2883 
Q 3403 2622 2981 2516 
z
" id="DejaVuSans-Bold-33" transform="scale(0.015625)"/>
       <path d="M 1844 884 
L 3897 884 
L 3897 0 
L 506 0 
L 506 884 
L 2209 2388 
Q 2438 2594 2547 2791 
Q 2656 2988 2656 3200 
Q 2656 3528 2436 3728 
Q 2216 3928 1850 3928 
Q 1569 3928 1234 3808 
Q 900 3688 519 3450 
L 519 4475 
Q 925 4609 1322 4679 
Q 1719 4750 2100 4750 
Q 2938 4750 3402 4381 
Q 3866 4013 3866 3353 
Q 3866 2972 3669 2642 
Q 3472 2313 2841 1759 
L 1844 884 
z
" id="DejaVuSans-Bold-32" transform="scale(0.015625)"/>
      </defs>
      <use xlink:href="#DejaVuSans-Bold-33"/>
      <use x="69.580078" xlink:href="#DejaVuSans-Bold-32"/>
     </g>
    </g>
   </g>
  </g>
  <g id="axes_2">
   <g id="patch_6">
    <path d="M 84.914375 92.437143 
L 567.689804 92.437143 
L 567.689804 7.2 
L 84.914375 7.2 
z
" style="fill:none;"/>
   </g>
   <g id="matplotlib.axis_3">
    <g id="xtick_7"/>
    <g id="xtick_8"/>
    <g id="xtick_9"/>
    <g id="xtick_10"/>
    <g id="xtick_11"/>
    <g id="xtick_12"/>
   </g>
   <g id="matplotlib.axis_4">
    <g id="ytick_5">
     <g id="text_15">
      <!-- 0 -->
      <g style="fill:#262626;" transform="translate(55.416875 100.795424)scale(0.22 -0.22)">
       <use xlink:href="#DejaVuSans-30"/>
      </g>
     </g>
    </g>
    <g id="ytick_6">
     <g id="text_16">
      <!-- 100 -->
      <g style="fill:#262626;" transform="translate(27.421875 48.082287)scale(0.22 -0.22)">
       <use xlink:href="#DejaVuSans-31"/>
       <use x="63.623047" xlink:href="#DejaVuSans-30"/>
       <use x="127.246094" xlink:href="#DejaVuSans-30"/>
      </g>
     </g>
    </g>
   </g>
   <g id="patch_7">
    <path clip-path="url(#pc1c891e98b)" d="M 106.858713 92.437143 
L 140.619232 92.437143 
L 140.619232 11.258912 
L 106.858713 11.258912 
z
" style="fill:#96c69a;fill-opacity:0.5;stroke:#ffffff;stroke-linejoin:miter;stroke-width:2;"/>
   </g>
   <g id="patch_8">
    <path clip-path="url(#pc1c891e98b)" d="M 140.619232 92.437143 
L 174.379752 92.437143 
L 174.379752 11.258912 
L 140.619232 11.258912 
z
" style="fill:#96c69a;fill-opacity:0.5;stroke:#ffffff;stroke-linejoin:miter;stroke-width:2;"/>
   </g>
   <g id="patch_9">
    <path clip-path="url(#pc1c891e98b)" d="M 174.379752 92.437143 
L 208.140271 92.437143 
L 208.140271 11.258912 
L 174.379752 11.258912 
z
" style="fill:#96c69a;fill-opacity:0.5;stroke:#ffffff;stroke-linejoin:miter;stroke-width:2;"/>
   </g>
   <g id="patch_10">
    <path clip-path="url(#pc1c891e98b)" d="M 208.140271 92.437143 
L 241.900791 92.437143 
L 241.900791 11.258912 
L 208.140271 11.258912 
z
" style="fill:#96c69a;fill-opacity:0.5;stroke:#ffffff;stroke-linejoin:miter;stroke-width:2;"/>
   </g>
   <g id="patch_11">
    <path clip-path="url(#pc1c891e98b)" d="M 241.900791 92.437143 
L 275.66131 92.437143 
L 275.66131 11.786043 
L 241.900791 11.786043 
z
" style="fill:#96c69a;fill-opacity:0.5;stroke:#ffffff;stroke-linejoin:miter;stroke-width:2;"/>
   </g>
   <g id="patch_12">
    <path clip-path="url(#pc1c891e98b)" d="M 275.66131 92.437143 
L 309.42183 92.437143 
L 309.42183 11.258912 
L 275.66131 11.258912 
z
" style="fill:#96c69a;fill-opacity:0.5;stroke:#ffffff;stroke-linejoin:miter;stroke-width:2;"/>
   </g>
   <g id="patch_13">
    <path clip-path="url(#pc1c891e98b)" d="M 309.42183 92.437143 
L 343.182349 92.437143 
L 343.182349 11.258912 
L 309.42183 11.258912 
z
" style="fill:#96c69a;fill-opacity:0.5;stroke:#ffffff;stroke-linejoin:miter;stroke-width:2;"/>
   </g>
   <g id="patch_14">
    <path clip-path="url(#pc1c891e98b)" d="M 343.182349 92.437143 
L 376.942869 92.437143 
L 376.942869 11.258912 
L 343.182349 11.258912 
z
" style="fill:#96c69a;fill-opacity:0.5;stroke:#ffffff;stroke-linejoin:miter;stroke-width:2;"/>
   </g>
   <g id="patch_15">
    <path clip-path="url(#pc1c891e98b)" d="M 376.942869 92.437143 
L 410.703388 92.437143 
L 410.703388 11.786043 
L 376.942869 11.786043 
z
" style="fill:#96c69a;fill-opacity:0.5;stroke:#ffffff;stroke-linejoin:miter;stroke-width:2;"/>
   </g>
   <g id="patch_16">
    <path clip-path="url(#pc1c891e98b)" d="M 410.703388 92.437143 
L 444.463907 92.437143 
L 444.463907 11.258912 
L 410.703388 11.258912 
z
" style="fill:#96c69a;fill-opacity:0.5;stroke:#ffffff;stroke-linejoin:miter;stroke-width:2;"/>
   </g>
   <g id="patch_17">
    <path clip-path="url(#pc1c891e98b)" d="M 444.463907 92.437143 
L 478.224427 92.437143 
L 478.224427 11.258912 
L 444.463907 11.258912 
z
" style="fill:#96c69a;fill-opacity:0.5;stroke:#ffffff;stroke-linejoin:miter;stroke-width:2;"/>
   </g>
   <g id="patch_18">
    <path clip-path="url(#pc1c891e98b)" d="M 478.224427 92.437143 
L 511.984946 92.437143 
L 511.984946 11.258912 
L 478.224427 11.258912 
z
" style="fill:#96c69a;fill-opacity:0.5;stroke:#ffffff;stroke-linejoin:miter;stroke-width:2;"/>
   </g>
   <g id="patch_19">
    <path clip-path="url(#pc1c891e98b)" d="M 511.984946 92.437143 
L 545.745466 92.437143 
L 545.745466 11.258912 
L 511.984946 11.258912 
z
" style="fill:#96c69a;fill-opacity:0.5;stroke:#ffffff;stroke-linejoin:miter;stroke-width:2;"/>
   </g>
   <g id="patch_20">
    <path d="M 84.914375 92.437143 
L 84.914375 7.2 
" style="fill:none;stroke:#262626;stroke-linecap:square;stroke-linejoin:miter;stroke-width:2.5;"/>
   </g>
   <g id="patch_21">
    <path d="M 84.914375 92.437143 
L 567.689804 92.437143 
" style="fill:none;stroke:#262626;stroke-linecap:square;stroke-linejoin:miter;stroke-width:2.5;"/>
   </g>
  </g>
  <g id="axes_3">
   <g id="patch_22">
    <path d="M 584.337232 603.86 
L 667.574375 603.86 
L 667.574375 109.484571 
L 584.337232 109.484571 
z
" style="fill:none;"/>
   </g>
   <g id="matplotlib.axis_5">
    <g id="xtick_13">
     <g id="text_17">
      <!-- 0 -->
      <g style="fill:#262626;" transform="translate(577.338482 636.076563)scale(0.22 -0.22)">
       <use xlink:href="#DejaVuSans-30"/>
      </g>
     </g>
    </g>
    <g id="xtick_14">
     <g id="text_18">
      <!-- 200 -->
      <g style="fill:#262626;" transform="translate(643.012811 636.076563)scale(0.22 -0.22)">
       <use xlink:href="#DejaVuSans-32"/>
       <use x="63.623047" xlink:href="#DejaVuSans-30"/>
       <use x="127.246094" xlink:href="#DejaVuSans-30"/>
      </g>
     </g>
    </g>
   </g>
   <g id="matplotlib.axis_6">
    <g id="ytick_7"/>
    <g id="ytick_8"/>
    <g id="ytick_9"/>
    <g id="ytick_10"/>
   </g>
   <g id="patch_23">
    <path clip-path="url(#pfec6254496)" d="M 584.337232 581.38839 
L 589.117542 581.38839 
L 589.117542 569.864487 
L 584.337232 569.864487 
z
" style="fill:#96c69a;fill-opacity:0.5;stroke:#ffffff;stroke-linejoin:miter;stroke-width:1.15239;"/>
   </g>
   <g id="patch_24">
    <path clip-path="url(#pfec6254496)" d="M 584.337232 569.864487 
L 601.466675 569.864487 
L 601.466675 558.340584 
L 584.337232 558.340584 
z
" style="fill:#96c69a;fill-opacity:0.5;stroke:#ffffff;stroke-linejoin:miter;stroke-width:1.15239;"/>
   </g>
   <g id="patch_25">
    <path clip-path="url(#pfec6254496)" d="M 584.337232 558.340584 
L 617.7994 558.340584 
L 617.7994 546.816681 
L 584.337232 546.816681 
z
" style="fill:#96c69a;fill-opacity:0.5;stroke:#ffffff;stroke-linejoin:miter;stroke-width:1.15239;"/>
   </g>
   <g id="patch_26">
    <path clip-path="url(#pfec6254496)" d="M 584.337232 546.816681 
L 629.351815 546.816681 
L 629.351815 535.292779 
L 584.337232 535.292779 
z
" style="fill:#96c69a;fill-opacity:0.5;stroke:#ffffff;stroke-linejoin:miter;stroke-width:1.15239;"/>
   </g>
   <g id="patch_27">
    <path clip-path="url(#pfec6254496)" d="M 584.337232 535.292779 
L 643.692744 535.292779 
L 643.692744 523.768876 
L 584.337232 523.768876 
z
" style="fill:#96c69a;fill-opacity:0.5;stroke:#ffffff;stroke-linejoin:miter;stroke-width:1.15239;"/>
   </g>
   <g id="patch_28">
    <path clip-path="url(#pfec6254496)" d="M 584.337232 523.768876 
L 653.253364 523.768876 
L 653.253364 512.244973 
L 584.337232 512.244973 
z
" style="fill:#96c69a;fill-opacity:0.5;stroke:#ffffff;stroke-linejoin:miter;stroke-width:1.15239;"/>
   </g>
   <g id="patch_29">
    <path clip-path="url(#pfec6254496)" d="M 584.337232 512.244973 
L 663.610702 512.244973 
L 663.610702 500.72107 
L 584.337232 500.72107 
z
" style="fill:#96c69a;fill-opacity:0.5;stroke:#ffffff;stroke-linejoin:miter;stroke-width:1.15239;"/>
   </g>
   <g id="patch_30">
    <path clip-path="url(#pfec6254496)" d="M 584.337232 500.72107 
L 648.074695 500.72107 
L 648.074695 489.197167 
L 584.337232 489.197167 
z
" style="fill:#96c69a;fill-opacity:0.5;stroke:#ffffff;stroke-linejoin:miter;stroke-width:1.15239;"/>
   </g>
   <g id="patch_31">
    <path clip-path="url(#pfec6254496)" d="M 584.337232 489.197167 
L 654.050082 489.197167 
L 654.050082 477.673265 
L 584.337232 477.673265 
z
" style="fill:#96c69a;fill-opacity:0.5;stroke:#ffffff;stroke-linejoin:miter;stroke-width:1.15239;"/>
   </g>
   <g id="patch_32">
    <path clip-path="url(#pfec6254496)" d="M 584.337232 477.673265 
L 638.912435 477.673265 
L 638.912435 466.149362 
L 584.337232 466.149362 
z
" style="fill:#96c69a;fill-opacity:0.5;stroke:#ffffff;stroke-linejoin:miter;stroke-width:1.15239;"/>
   </g>
   <g id="patch_33">
    <path clip-path="url(#pfec6254496)" d="M 584.337232 466.149362 
L 637.717357 466.149362 
L 637.717357 454.625459 
L 584.337232 454.625459 
z
" style="fill:#96c69a;fill-opacity:0.5;stroke:#ffffff;stroke-linejoin:miter;stroke-width:1.15239;"/>
   </g>
   <g id="patch_34">
    <path clip-path="url(#pfec6254496)" d="M 584.337232 454.625459 
L 628.953456 454.625459 
L 628.953456 443.101556 
L 584.337232 443.101556 
z
" style="fill:#96c69a;fill-opacity:0.5;stroke:#ffffff;stroke-linejoin:miter;stroke-width:1.15239;"/>
   </g>
   <g id="patch_35">
    <path clip-path="url(#pfec6254496)" d="M 584.337232 443.101556 
L 624.571506 443.101556 
L 624.571506 431.577654 
L 584.337232 431.577654 
z
" style="fill:#96c69a;fill-opacity:0.5;stroke:#ffffff;stroke-linejoin:miter;stroke-width:1.15239;"/>
   </g>
   <g id="patch_36">
    <path clip-path="url(#pfec6254496)" d="M 584.337232 431.577654 
L 615.010886 431.577654 
L 615.010886 420.053751 
L 584.337232 420.053751 
z
" style="fill:#96c69a;fill-opacity:0.5;stroke:#ffffff;stroke-linejoin:miter;stroke-width:1.15239;"/>
   </g>
   <g id="patch_37">
    <path clip-path="url(#pfec6254496)" d="M 584.337232 420.053751 
L 617.7994 420.053751 
L 617.7994 408.529848 
L 584.337232 408.529848 
z
" style="fill:#96c69a;fill-opacity:0.5;stroke:#ffffff;stroke-linejoin:miter;stroke-width:1.15239;"/>
   </g>
   <g id="patch_38">
    <path clip-path="url(#pfec6254496)" d="M 584.337232 408.529848 
L 605.051908 408.529848 
L 605.051908 397.005945 
L 584.337232 397.005945 
z
" style="fill:#96c69a;fill-opacity:0.5;stroke:#ffffff;stroke-linejoin:miter;stroke-width:1.15239;"/>
   </g>
   <g id="patch_39">
    <path clip-path="url(#pfec6254496)" d="M 584.337232 397.005945 
L 599.873239 397.005945 
L 599.873239 385.482043 
L 584.337232 385.482043 
z
" style="fill:#96c69a;fill-opacity:0.5;stroke:#ffffff;stroke-linejoin:miter;stroke-width:1.15239;"/>
   </g>
   <g id="patch_40">
    <path clip-path="url(#pfec6254496)" d="M 584.337232 385.482043 
L 598.678161 385.482043 
L 598.678161 373.95814 
L 584.337232 373.95814 
z
" style="fill:#96c69a;fill-opacity:0.5;stroke:#ffffff;stroke-linejoin:miter;stroke-width:1.15239;"/>
   </g>
   <g id="patch_41">
    <path clip-path="url(#pfec6254496)" d="M 584.337232 373.95814 
L 599.873239 373.95814 
L 599.873239 362.434237 
L 584.337232 362.434237 
z
" style="fill:#96c69a;fill-opacity:0.5;stroke:#ffffff;stroke-linejoin:miter;stroke-width:1.15239;"/>
   </g>
   <g id="patch_42">
    <path clip-path="url(#pfec6254496)" d="M 584.337232 362.434237 
L 590.312619 362.434237 
L 590.312619 350.910334 
L 584.337232 350.910334 
z
" style="fill:#96c69a;fill-opacity:0.5;stroke:#ffffff;stroke-linejoin:miter;stroke-width:1.15239;"/>
   </g>
   <g id="patch_43">
    <path clip-path="url(#pfec6254496)" d="M 584.337232 350.910334 
L 591.109338 350.910334 
L 591.109338 339.386432 
L 584.337232 339.386432 
z
" style="fill:#96c69a;fill-opacity:0.5;stroke:#ffffff;stroke-linejoin:miter;stroke-width:1.15239;"/>
   </g>
   <g id="patch_44">
    <path clip-path="url(#pfec6254496)" d="M 584.337232 339.386432 
L 589.117542 339.386432 
L 589.117542 327.862529 
L 584.337232 327.862529 
z
" style="fill:#96c69a;fill-opacity:0.5;stroke:#ffffff;stroke-linejoin:miter;stroke-width:1.15239;"/>
   </g>
   <g id="patch_45">
    <path clip-path="url(#pfec6254496)" d="M 584.337232 327.862529 
L 588.320824 327.862529 
L 588.320824 316.338626 
L 584.337232 316.338626 
z
" style="fill:#96c69a;fill-opacity:0.5;stroke:#ffffff;stroke-linejoin:miter;stroke-width:1.15239;"/>
   </g>
   <g id="patch_46">
    <path clip-path="url(#pfec6254496)" d="M 584.337232 316.338626 
L 587.125746 316.338626 
L 587.125746 304.814723 
L 584.337232 304.814723 
z
" style="fill:#96c69a;fill-opacity:0.5;stroke:#ffffff;stroke-linejoin:miter;stroke-width:1.15239;"/>
   </g>
   <g id="patch_47">
    <path clip-path="url(#pfec6254496)" d="M 584.337232 304.814723 
L 586.727387 304.814723 
L 586.727387 293.290821 
L 584.337232 293.290821 
z
" style="fill:#96c69a;fill-opacity:0.5;stroke:#ffffff;stroke-linejoin:miter;stroke-width:1.15239;"/>
   </g>
   <g id="patch_48">
    <path clip-path="url(#pfec6254496)" d="M 584.337232 293.290821 
L 585.53231 293.290821 
L 585.53231 281.766918 
L 584.337232 281.766918 
z
" style="fill:#96c69a;fill-opacity:0.5;stroke:#ffffff;stroke-linejoin:miter;stroke-width:1.15239;"/>
   </g>
   <g id="patch_49">
    <path clip-path="url(#pfec6254496)" d="M 584.337232 281.766918 
L 585.53231 281.766918 
L 585.53231 270.243015 
L 584.337232 270.243015 
z
" style="fill:#96c69a;fill-opacity:0.5;stroke:#ffffff;stroke-linejoin:miter;stroke-width:1.15239;"/>
   </g>
   <g id="patch_50">
    <path clip-path="url(#pfec6254496)" d="M 584.337232 270.243015 
L 585.53231 270.243015 
L 585.53231 258.719112 
L 584.337232 258.719112 
z
" style="fill:#96c69a;fill-opacity:0.5;stroke:#ffffff;stroke-linejoin:miter;stroke-width:1.15239;"/>
   </g>
   <g id="patch_51">
    <path clip-path="url(#pfec6254496)" d="M 584.337232 258.719112 
L 585.13395 258.719112 
L 585.13395 247.195209 
L 584.337232 247.195209 
z
" style="fill:#96c69a;fill-opacity:0.5;stroke:#ffffff;stroke-linejoin:miter;stroke-width:1.15239;"/>
   </g>
   <g id="patch_52">
    <path clip-path="url(#pfec6254496)" d="M 584.337232 247.195209 
L 584.735591 247.195209 
L 584.735591 235.671307 
L 584.337232 235.671307 
z
" style="fill:#96c69a;fill-opacity:0.5;stroke:#ffffff;stroke-linejoin:miter;stroke-width:1.15239;"/>
   </g>
   <g id="patch_53">
    <path clip-path="url(#pfec6254496)" d="M 584.337232 235.671307 
L 584.337232 235.671307 
L 584.337232 224.147404 
L 584.337232 224.147404 
z
" style="fill:#96c69a;fill-opacity:0.5;stroke:#ffffff;stroke-linejoin:miter;stroke-width:1.15239;"/>
   </g>
   <g id="patch_54">
    <path clip-path="url(#pfec6254496)" d="M 584.337232 224.147404 
L 584.337232 224.147404 
L 584.337232 212.623501 
L 584.337232 212.623501 
z
" style="fill:#96c69a;fill-opacity:0.5;stroke:#ffffff;stroke-linejoin:miter;stroke-width:1.15239;"/>
   </g>
   <g id="patch_55">
    <path clip-path="url(#pfec6254496)" d="M 584.337232 212.623501 
L 584.337232 212.623501 
L 584.337232 201.099598 
L 584.337232 201.099598 
z
" style="fill:#96c69a;fill-opacity:0.5;stroke:#ffffff;stroke-linejoin:miter;stroke-width:1.15239;"/>
   </g>
   <g id="patch_56">
    <path clip-path="url(#pfec6254496)" d="M 584.337232 201.099598 
L 584.337232 201.099598 
L 584.337232 189.575696 
L 584.337232 189.575696 
z
" style="fill:#96c69a;fill-opacity:0.5;stroke:#ffffff;stroke-linejoin:miter;stroke-width:1.15239;"/>
   </g>
   <g id="patch_57">
    <path clip-path="url(#pfec6254496)" d="M 584.337232 189.575696 
L 584.735591 189.575696 
L 584.735591 178.051793 
L 584.337232 178.051793 
z
" style="fill:#96c69a;fill-opacity:0.5;stroke:#ffffff;stroke-linejoin:miter;stroke-width:1.15239;"/>
   </g>
   <g id="patch_58">
    <path clip-path="url(#pfec6254496)" d="M 584.337232 178.051793 
L 584.337232 178.051793 
L 584.337232 166.52789 
L 584.337232 166.52789 
z
" style="fill:#96c69a;fill-opacity:0.5;stroke:#ffffff;stroke-linejoin:miter;stroke-width:1.15239;"/>
   </g>
   <g id="patch_59">
    <path clip-path="url(#pfec6254496)" d="M 584.337232 166.52789 
L 584.337232 166.52789 
L 584.337232 155.003987 
L 584.337232 155.003987 
z
" style="fill:#96c69a;fill-opacity:0.5;stroke:#ffffff;stroke-linejoin:miter;stroke-width:1.15239;"/>
   </g>
   <g id="patch_60">
    <path clip-path="url(#pfec6254496)" d="M 584.337232 155.003987 
L 584.337232 155.003987 
L 584.337232 143.480085 
L 584.337232 143.480085 
z
" style="fill:#96c69a;fill-opacity:0.5;stroke:#ffffff;stroke-linejoin:miter;stroke-width:1.15239;"/>
   </g>
   <g id="patch_61">
    <path clip-path="url(#pfec6254496)" d="M 584.337232 143.480085 
L 584.735591 143.480085 
L 584.735591 131.956182 
L 584.337232 131.956182 
z
" style="fill:#96c69a;fill-opacity:0.5;stroke:#ffffff;stroke-linejoin:miter;stroke-width:1.15239;"/>
   </g>
   <g id="patch_62">
    <path d="M 584.337232 603.86 
L 584.337232 109.484571 
" style="fill:none;stroke:#262626;stroke-linecap:square;stroke-linejoin:miter;stroke-width:2.5;"/>
   </g>
   <g id="patch_63">
    <path d="M 584.337232 603.86 
L 667.574375 603.86 
" style="fill:none;stroke:#262626;stroke-linecap:square;stroke-linejoin:miter;stroke-width:2.5;"/>
   </g>
  </g>
 </g>
 <defs>
  <clipPath id="p2286373727">
   <rect height="494.375429" width="482.775429" x="84.914375" y="109.484571"/>
  </clipPath>
  <clipPath id="pc1c891e98b">
   <rect height="85.237143" width="482.775429" x="84.914375" y="7.2"/>
  </clipPath>
  <clipPath id="pfec6254496">
   <rect height="494.375429" width="83.237143" x="584.337232" y="109.484571"/>
  </clipPath>
 </defs>
</svg>
