<?xml version="1.0" encoding="utf-8" standalone="no"?>
<!DOCTYPE svg PUBLIC "-//W3C//DTD SVG 1.1//EN"
  "http://www.w3.org/Graphics/SVG/1.1/DTD/svg11.dtd">
<svg height="675.079375pt" version="1.1" viewBox="0 0 674.774375 675.079375" width="674.774375pt" xmlns="http://www.w3.org/2000/svg" xmlns:xlink="http://www.w3.org/1999/xlink">
 <metadata>
  <rdf:RDF xmlns:cc="http://creativecommons.org/ns#" xmlns:dc="http://purl.org/dc/elements/1.1/" xmlns:rdf="http://www.w3.org/1999/02/22-rdf-syntax-ns#">
   <cc:Work>
    <dc:type rdf:resource="http://purl.org/dc/dcmitype/StillImage"/>
    <dc:date>2021-07-16T21:43:56.088362</dc:date>
    <dc:format>image/svg+xml</dc:format>
    <dc:creator>
     <cc:Agent>
      <dc:title>Matplotlib v3.4.2, https://matplotlib.org/</dc:title>
     </cc:Agent>
    </dc:creator>
   </cc:Work>
  </rdf:RDF>
 </metadata>
 <defs>
  <style type="text/css">*{stroke-linecap:butt;stroke-linejoin:round;}</style>
 </defs>
 <g id="figure_1">
  <g id="patch_1">
   <path d="M 0 675.079375 
L 674.774375 675.079375 
L 674.774375 0 
L 0 0 
z
" style="fill:#ffffff;"/>
  </g>
  <g id="axes_1">
   <g id="patch_2">
    <path d="M 84.914375 603.86 
L 567.689804 603.86 
L 567.689804 109.484571 
L 84.914375 109.484571 
z
" style="fill:none;"/>
   </g>
   <g id="matplotlib.axis_1">
    <g id="xtick_1">
     <g id="text_1">
      <!-- 0 -->
      <g style="fill:#262626;" transform="translate(99.64041 636.076563)scale(0.22 -0.22)">
       <defs>
        <path d="M 2034 4250 
Q 1547 4250 1301 3770 
Q 1056 3291 1056 2328 
Q 1056 1369 1301 889 
Q 1547 409 2034 409 
Q 2525 409 2770 889 
Q 3016 1369 3016 2328 
Q 3016 3291 2770 3770 
Q 2525 4250 2034 4250 
z
M 2034 4750 
Q 2819 4750 3233 4129 
Q 3647 3509 3647 2328 
Q 3647 1150 3233 529 
Q 2819 -91 2034 -91 
Q 1250 -91 836 529 
Q 422 1150 422 2328 
Q 422 3509 836 4129 
Q 1250 4750 2034 4750 
z
" id="DejaVuSans-30" transform="scale(0.015625)"/>
       </defs>
       <use xlink:href="#DejaVuSans-30"/>
      </g>
     </g>
    </g>
    <g id="xtick_2">
     <g id="text_2">
      <!-- 20000 -->
      <g style="fill:#262626;" transform="translate(159.466671 636.076563)scale(0.22 -0.22)">
       <defs>
        <path d="M 1228 531 
L 3431 531 
L 3431 0 
L 469 0 
L 469 531 
Q 828 903 1448 1529 
Q 2069 2156 2228 2338 
Q 2531 2678 2651 2914 
Q 2772 3150 2772 3378 
Q 2772 3750 2511 3984 
Q 2250 4219 1831 4219 
Q 1534 4219 1204 4116 
Q 875 4013 500 3803 
L 500 4441 
Q 881 4594 1212 4672 
Q 1544 4750 1819 4750 
Q 2544 4750 2975 4387 
Q 3406 4025 3406 3419 
Q 3406 3131 3298 2873 
Q 3191 2616 2906 2266 
Q 2828 2175 2409 1742 
Q 1991 1309 1228 531 
z
" id="DejaVuSans-32" transform="scale(0.015625)"/>
       </defs>
       <use xlink:href="#DejaVuSans-32"/>
       <use x="63.623047" xlink:href="#DejaVuSans-30"/>
       <use x="127.246094" xlink:href="#DejaVuSans-30"/>
       <use x="190.869141" xlink:href="#DejaVuSans-30"/>
       <use x="254.492188" xlink:href="#DejaVuSans-30"/>
      </g>
     </g>
    </g>
    <g id="xtick_3">
     <g id="text_3">
      <!-- 40000 -->
      <g style="fill:#262626;" transform="translate(247.287932 636.076563)scale(0.22 -0.22)">
       <defs>
        <path d="M 2419 4116 
L 825 1625 
L 2419 1625 
L 2419 4116 
z
M 2253 4666 
L 3047 4666 
L 3047 1625 
L 3713 1625 
L 3713 1100 
L 3047 1100 
L 3047 0 
L 2419 0 
L 2419 1100 
L 313 1100 
L 313 1709 
L 2253 4666 
z
" id="DejaVuSans-34" transform="scale(0.015625)"/>
       </defs>
       <use xlink:href="#DejaVuSans-34"/>
       <use x="63.623047" xlink:href="#DejaVuSans-30"/>
       <use x="127.246094" xlink:href="#DejaVuSans-30"/>
       <use x="190.869141" xlink:href="#DejaVuSans-30"/>
       <use x="254.492188" xlink:href="#DejaVuSans-30"/>
      </g>
     </g>
    </g>
    <g id="xtick_4">
     <g id="text_4">
      <!-- 60000 -->
      <g style="fill:#262626;" transform="translate(335.109193 636.076563)scale(0.22 -0.22)">
       <defs>
        <path d="M 2113 2584 
Q 1688 2584 1439 2293 
Q 1191 2003 1191 1497 
Q 1191 994 1439 701 
Q 1688 409 2113 409 
Q 2538 409 2786 701 
Q 3034 994 3034 1497 
Q 3034 2003 2786 2293 
Q 2538 2584 2113 2584 
z
M 3366 4563 
L 3366 3988 
Q 3128 4100 2886 4159 
Q 2644 4219 2406 4219 
Q 1781 4219 1451 3797 
Q 1122 3375 1075 2522 
Q 1259 2794 1537 2939 
Q 1816 3084 2150 3084 
Q 2853 3084 3261 2657 
Q 3669 2231 3669 1497 
Q 3669 778 3244 343 
Q 2819 -91 2113 -91 
Q 1303 -91 875 529 
Q 447 1150 447 2328 
Q 447 3434 972 4092 
Q 1497 4750 2381 4750 
Q 2619 4750 2861 4703 
Q 3103 4656 3366 4563 
z
" id="DejaVuSans-36" transform="scale(0.015625)"/>
       </defs>
       <use xlink:href="#DejaVuSans-36"/>
       <use x="63.623047" xlink:href="#DejaVuSans-30"/>
       <use x="127.246094" xlink:href="#DejaVuSans-30"/>
       <use x="190.869141" xlink:href="#DejaVuSans-30"/>
       <use x="254.492188" xlink:href="#DejaVuSans-30"/>
      </g>
     </g>
    </g>
    <g id="xtick_5">
     <g id="text_5">
      <!-- 80000 -->
      <g style="fill:#262626;" transform="translate(422.930455 636.076563)scale(0.22 -0.22)">
       <defs>
        <path d="M 2034 2216 
Q 1584 2216 1326 1975 
Q 1069 1734 1069 1313 
Q 1069 891 1326 650 
Q 1584 409 2034 409 
Q 2484 409 2743 651 
Q 3003 894 3003 1313 
Q 3003 1734 2745 1975 
Q 2488 2216 2034 2216 
z
M 1403 2484 
Q 997 2584 770 2862 
Q 544 3141 544 3541 
Q 544 4100 942 4425 
Q 1341 4750 2034 4750 
Q 2731 4750 3128 4425 
Q 3525 4100 3525 3541 
Q 3525 3141 3298 2862 
Q 3072 2584 2669 2484 
Q 3125 2378 3379 2068 
Q 3634 1759 3634 1313 
Q 3634 634 3220 271 
Q 2806 -91 2034 -91 
Q 1263 -91 848 271 
Q 434 634 434 1313 
Q 434 1759 690 2068 
Q 947 2378 1403 2484 
z
M 1172 3481 
Q 1172 3119 1398 2916 
Q 1625 2713 2034 2713 
Q 2441 2713 2670 2916 
Q 2900 3119 2900 3481 
Q 2900 3844 2670 4047 
Q 2441 4250 2034 4250 
Q 1625 4250 1398 4047 
Q 1172 3844 1172 3481 
z
" id="DejaVuSans-38" transform="scale(0.015625)"/>
       </defs>
       <use xlink:href="#DejaVuSans-38"/>
       <use x="63.623047" xlink:href="#DejaVuSans-30"/>
       <use x="127.246094" xlink:href="#DejaVuSans-30"/>
       <use x="190.869141" xlink:href="#DejaVuSans-30"/>
       <use x="254.492188" xlink:href="#DejaVuSans-30"/>
      </g>
     </g>
    </g>
    <g id="xtick_6">
     <g id="text_6">
      <!-- 100000 -->
      <g style="fill:#262626;" transform="translate(503.752966 636.076563)scale(0.22 -0.22)">
       <defs>
        <path d="M 794 531 
L 1825 531 
L 1825 4091 
L 703 3866 
L 703 4441 
L 1819 4666 
L 2450 4666 
L 2450 531 
L 3481 531 
L 3481 0 
L 794 0 
L 794 531 
z
" id="DejaVuSans-31" transform="scale(0.015625)"/>
       </defs>
       <use xlink:href="#DejaVuSans-31"/>
       <use x="63.623047" xlink:href="#DejaVuSans-30"/>
       <use x="127.246094" xlink:href="#DejaVuSans-30"/>
       <use x="190.869141" xlink:href="#DejaVuSans-30"/>
       <use x="254.492188" xlink:href="#DejaVuSans-30"/>
       <use x="318.115234" xlink:href="#DejaVuSans-30"/>
      </g>
     </g>
    </g>
    <g id="text_7">
     <!-- MDTU -->
     <g style="fill:#262626;" transform="translate(290.596464 662.888125)scale(0.24 -0.24)">
      <defs>
       <path d="M 628 4666 
L 1569 4666 
L 2759 1491 
L 3956 4666 
L 4897 4666 
L 4897 0 
L 4281 0 
L 4281 4097 
L 3078 897 
L 2444 897 
L 1241 4097 
L 1241 0 
L 628 0 
L 628 4666 
z
" id="DejaVuSans-4d" transform="scale(0.015625)"/>
       <path d="M 1259 4147 
L 1259 519 
L 2022 519 
Q 2988 519 3436 956 
Q 3884 1394 3884 2338 
Q 3884 3275 3436 3711 
Q 2988 4147 2022 4147 
L 1259 4147 
z
M 628 4666 
L 1925 4666 
Q 3281 4666 3915 4102 
Q 4550 3538 4550 2338 
Q 4550 1131 3912 565 
Q 3275 0 1925 0 
L 628 0 
L 628 4666 
z
" id="DejaVuSans-44" transform="scale(0.015625)"/>
       <path d="M -19 4666 
L 3928 4666 
L 3928 4134 
L 2272 4134 
L 2272 0 
L 1638 0 
L 1638 4134 
L -19 4134 
L -19 4666 
z
" id="DejaVuSans-54" transform="scale(0.015625)"/>
       <path d="M 556 4666 
L 1191 4666 
L 1191 1831 
Q 1191 1081 1462 751 
Q 1734 422 2344 422 
Q 2950 422 3222 751 
Q 3494 1081 3494 1831 
L 3494 4666 
L 4128 4666 
L 4128 1753 
Q 4128 841 3676 375 
Q 3225 -91 2344 -91 
Q 1459 -91 1007 375 
Q 556 841 556 1753 
L 556 4666 
z
" id="DejaVuSans-55" transform="scale(0.015625)"/>
      </defs>
      <use xlink:href="#DejaVuSans-4d"/>
      <use x="86.279297" xlink:href="#DejaVuSans-44"/>
      <use x="163.28125" xlink:href="#DejaVuSans-54"/>
      <use x="224.365234" xlink:href="#DejaVuSans-55"/>
     </g>
    </g>
   </g>
   <g id="matplotlib.axis_2">
    <g id="ytick_1">
     <g id="text_8">
      <!-- 0.4 -->
      <g style="fill:#262626;" transform="translate(34.4275 548.488765)scale(0.22 -0.22)">
       <defs>
        <path d="M 684 794 
L 1344 794 
L 1344 0 
L 684 0 
L 684 794 
z
" id="DejaVuSans-2e" transform="scale(0.015625)"/>
       </defs>
       <use xlink:href="#DejaVuSans-30"/>
       <use x="63.623047" xlink:href="#DejaVuSans-2e"/>
       <use x="95.410156" xlink:href="#DejaVuSans-34"/>
      </g>
     </g>
    </g>
    <g id="ytick_2">
     <g id="text_9">
      <!-- 0.6 -->
      <g style="fill:#262626;" transform="translate(34.4275 471.840995)scale(0.22 -0.22)">
       <use xlink:href="#DejaVuSans-30"/>
       <use x="63.623047" xlink:href="#DejaVuSans-2e"/>
       <use x="95.410156" xlink:href="#DejaVuSans-36"/>
      </g>
     </g>
    </g>
    <g id="ytick_3">
     <g id="text_10">
      <!-- 0.8 -->
      <g style="fill:#262626;" transform="translate(34.4275 395.193225)scale(0.22 -0.22)">
       <use xlink:href="#DejaVuSans-30"/>
       <use x="63.623047" xlink:href="#DejaVuSans-2e"/>
       <use x="95.410156" xlink:href="#DejaVuSans-38"/>
      </g>
     </g>
    </g>
    <g id="ytick_4">
     <g id="text_11">
      <!-- 1.0 -->
      <g style="fill:#262626;" transform="translate(34.4275 318.545455)scale(0.22 -0.22)">
       <use xlink:href="#DejaVuSans-31"/>
       <use x="63.623047" xlink:href="#DejaVuSans-2e"/>
       <use x="95.410156" xlink:href="#DejaVuSans-30"/>
      </g>
     </g>
    </g>
    <g id="ytick_5">
     <g id="text_12">
      <!-- 1.2 -->
      <g style="fill:#262626;" transform="translate(34.4275 241.897685)scale(0.22 -0.22)">
       <use xlink:href="#DejaVuSans-31"/>
       <use x="63.623047" xlink:href="#DejaVuSans-2e"/>
       <use x="95.410156" xlink:href="#DejaVuSans-32"/>
      </g>
     </g>
    </g>
    <g id="ytick_6">
     <g id="text_13">
      <!-- 1.4 -->
      <g style="fill:#262626;" transform="translate(34.4275 165.249915)scale(0.22 -0.22)">
       <use xlink:href="#DejaVuSans-31"/>
       <use x="63.623047" xlink:href="#DejaVuSans-2e"/>
       <use x="95.410156" xlink:href="#DejaVuSans-34"/>
      </g>
     </g>
    </g>
    <g id="text_14">
     <!-- $E$ -->
     <g style="fill:#262626;" transform="translate(25.43625 364.352286)rotate(-90)scale(0.24 -0.24)">
      <defs>
       <path d="M 1081 4666 
L 4031 4666 
L 3928 4134 
L 1606 4134 
L 1338 2753 
L 3566 2753 
L 3463 2222 
L 1234 2222 
L 909 531 
L 3284 531 
L 3181 0 
L 172 0 
L 1081 4666 
z
" id="DejaVuSans-Oblique-45" transform="scale(0.015625)"/>
      </defs>
      <use transform="translate(0 0.09375)" xlink:href="#DejaVuSans-Oblique-45"/>
     </g>
    </g>
   </g>
   <g id="line2d_1">
    <path clip-path="url(#p053cb4673e)" d="M 106.858713 389.235544 
L 107.078266 296.293619 
L 107.297819 324.622543 
L 107.517372 433.048698 
L 107.736925 455.859561 
L 107.956478 390.526235 
L 108.395585 451.21771 
L 108.615138 503.962902 
L 109.054244 451.741362 
L 109.273797 367.270424 
L 109.493351 439.107811 
L 109.712904 455.247511 
L 109.932457 433.58886 
L 110.15201 495.189198 
L 110.371563 417.463854 
L 110.591116 393.721041 
L 110.810669 347.398931 
L 111.030223 449.371741 
L 111.249776 447.229326 
L 111.469329 498.97825 
L 111.688882 429.103201 
L 111.908435 446.523399 
L 112.347541 433.207325 
L 112.567095 489.629663 
L 112.786648 392.381645 
L 113.006201 441.52006 
L 113.225754 364.117754 
L 113.445307 482.32445 
L 113.66486 531.15701 
L 114.103967 372.97446 
L 114.32352 378.965471 
L 114.543073 459.268329 
L 114.762626 422.155199 
L 114.982179 463.06815 
L 115.201732 394.964157 
L 115.421286 429.859208 
L 115.640839 441.804868 
L 115.860392 361.391976 
L 116.299498 499.260355 
L 116.738605 408.971282 
L 116.958158 492.603021 
L 117.177711 469.509828 
L 117.397264 420.709558 
L 117.616817 337.432819 
L 117.83637 423.19134 
L 118.055923 421.280416 
L 118.275477 485.371639 
L 118.49503 461.62313 
L 118.934136 346.556806 
L 119.153689 429.127997 
L 119.592796 471.569993 
L 119.812349 453.23598 
L 120.031902 388.488825 
L 120.471008 536.524649 
L 120.690561 419.810889 
L 120.910114 401.628912 
L 121.129668 393.475144 
L 121.349221 458.018247 
L 121.568774 452.800728 
L 121.788327 478.535304 
L 122.00788 330.609318 
L 122.227433 486.614494 
L 122.446987 456.693446 
L 122.886093 336.000148 
L 123.105646 454.306651 
L 123.325199 391.750379 
L 123.764305 442.984744 
L 123.983859 508.532747 
L 124.203412 319.73639 
L 124.422965 493.034886 
L 124.642518 344.856666 
L 124.862071 415.444998 
L 125.081624 406.963466 
L 125.301178 408.412887 
L 125.520731 365.142774 
L 125.740284 437.196567 
L 125.959837 408.418672 
L 126.17939 499.970419 
L 126.398943 462.141715 
L 126.618496 400.08314 
L 127.057603 511.34701 
L 127.496709 373.385871 
L 127.716262 471.205956 
L 127.935815 326.043694 
L 128.155369 374.760132 
L 128.374922 322.449032 
L 128.594475 413.680234 
L 128.814028 439.77206 
L 129.033581 412.32566 
L 129.253134 343.804624 
L 129.472687 528.586943 
L 129.692241 430.474798 
L 129.911794 412.238706 
L 130.131347 410.500957 
L 130.3509 410.223954 
L 130.570453 357.936349 
L 130.790006 494.739039 
L 131.00956 407.118099 
L 131.229113 373.432269 
L 131.448666 502.94499 
L 131.668219 421.041686 
L 131.887772 444.89636 
L 132.107325 366.574062 
L 132.326878 432.287891 
L 132.546432 435.232373 
L 132.765985 403.288902 
L 132.985538 414.073388 
L 133.205091 371.047712 
L 133.424644 474.75875 
L 133.644197 515.881936 
L 133.863751 417.751857 
L 134.083304 442.42698 
L 134.302857 401.049103 
L 134.52241 333.049708 
L 134.741963 404.579679 
L 134.961516 352.217141 
L 135.181069 376.833868 
L 135.400623 273.782122 
L 135.620176 464.526391 
L 136.059282 437.28039 
L 136.278835 386.986828 
L 136.498388 419.479696 
L 136.717941 380.232588 
L 136.937495 440.927416 
L 137.157048 433.438313 
L 137.376601 354.171166 
L 137.596154 463.030398 
L 137.815707 462.826688 
L 138.03526 350.557306 
L 138.254814 394.995398 
L 138.474367 367.180379 
L 138.69392 523.19799 
L 138.913473 389.968 
L 139.133026 443.009776 
L 139.352579 457.683253 
L 139.572132 515.421971 
L 139.791686 436.605854 
L 140.011239 455.858757 
L 140.230792 364.233706 
L 140.450345 427.313656 
L 140.669898 322.122584 
L 141.109005 448.959109 
L 141.548111 373.879137 
L 141.767664 465.693545 
L 142.20677 380.969817 
L 142.426323 475.213054 
L 142.645877 369.859077 
L 142.86543 411.188182 
L 143.084983 488.943315 
L 143.304536 496.193547 
L 143.524089 408.25838 
L 143.743642 407.489672 
L 143.963196 374.289089 
L 144.402302 461.527025 
L 144.621855 428.580526 
L 144.841408 435.240993 
L 145.060961 341.380615 
L 145.280514 460.107443 
L 145.500068 367.199206 
L 145.719621 484.080753 
L 145.939174 407.804245 
L 146.158727 416.451196 
L 146.37828 440.151274 
L 146.597833 486.322766 
L 146.817387 437.142995 
L 147.03694 461.003412 
L 147.256493 441.095703 
L 147.476046 475.348695 
L 147.695599 479.899574 
L 147.915152 363.356485 
L 148.134705 539.655779 
L 148.354259 380.365768 
L 148.573812 475.397422 
L 148.793365 280.757219 
L 149.012918 483.157358 
L 149.232471 423.98346 
L 149.452024 301.179009 
L 149.671578 455.215259 
L 149.891131 457.979852 
L 150.110684 485.52911 
L 150.330237 477.928407 
L 150.54979 449.734874 
L 150.769343 405.972821 
L 150.988896 509.744283 
L 151.20845 399.374532 
L 151.867109 455.075094 
L 152.086662 396.716643 
L 152.306215 397.855668 
L 152.525769 493.199807 
L 152.745322 465.147165 
L 152.964875 476.901004 
L 153.403981 395.181231 
L 153.623534 489.016676 
L 153.843087 339.052385 
L 154.062641 490.313888 
L 154.282194 449.98126 
L 154.501747 456.683692 
L 154.7213 481.248331 
L 154.940853 398.608944 
L 155.160406 469.395457 
L 155.37996 378.871919 
L 155.599513 439.125911 
L 155.819066 289.349497 
L 156.038619 403.635639 
L 156.258172 393.304752 
L 156.477725 498.461886 
L 156.916832 393.426154 
L 157.136385 365.639554 
L 157.355938 515.491027 
L 157.575491 396.04941 
L 157.795044 415.679514 
L 158.234151 499.085801 
L 158.453704 471.401124 
L 158.673257 517.674092 
L 158.89281 379.480116 
L 159.112363 445.938327 
L 159.331916 388.206454 
L 159.771023 444.849838 
L 159.990576 402.846359 
L 160.210129 420.024239 
L 160.429682 424.194609 
L 160.649235 481.91434 
L 160.868788 295.457087 
L 161.088342 504.528633 
L 161.307895 343.116876 
L 161.527448 469.792494 
L 161.747001 427.132319 
L 161.966554 470.669554 
L 162.186107 471.694633 
L 162.40566 372.126835 
L 162.625214 490.594583 
L 162.844767 289.166783 
L 163.06432 502.570729 
L 163.283873 300.842134 
L 163.503426 512.925791 
L 163.722979 397.075019 
L 163.942532 468.17184 
L 164.162086 386.628295 
L 164.381639 432.08984 
L 164.601192 441.563033 
L 164.820745 415.651433 
L 165.040298 435.429478 
L 165.259851 357.168447 
L 165.479405 414.264148 
L 165.698958 343.151348 
L 165.918511 499.623477 
L 166.138064 451.809149 
L 166.357617 467.052131 
L 166.57717 345.478644 
L 166.796723 398.463652 
L 167.016277 374.504839 
L 167.23583 367.530771 
L 167.455383 386.319742 
L 167.674936 424.688576 
L 167.894489 516.197516 
L 168.333596 375.426529 
L 168.553149 453.11739 
L 168.772702 434.260311 
L 168.992255 301.249434 
L 169.431361 485.640637 
L 169.870468 417.378721 
L 170.090021 419.760556 
L 170.309574 159.275115 
L 170.529127 490.081588 
L 170.968233 335.116637 
L 171.187787 520.765223 
L 171.40734 343.70623 
L 171.846446 448.636354 
L 172.065999 434.275914 
L 172.285552 400.040129 
L 172.505105 426.7142 
L 172.724659 331.951226 
L 172.944212 406.822631 
L 173.163765 402.316954 
L 173.383318 361.152931 
L 173.602871 450.684063 
L 173.822424 394.232975 
L 174.041978 394.563521 
L 174.261531 163.333905 
L 174.481084 349.713372 
L 174.700637 432.228594 
L 174.92019 376.53982 
L 175.139743 358.242882 
L 175.359296 462.684153 
L 175.57885 485.498505 
L 175.798403 292.390266 
L 176.017956 333.94735 
L 176.237509 468.162968 
L 176.676615 370.046969 
L 176.896169 448.049781 
L 177.115722 369.767046 
L 177.335275 411.923335 
L 177.554828 323.420374 
L 177.774381 328.983862 
L 177.993934 492.016693 
L 178.213487 392.118101 
L 178.433041 462.9329 
L 178.652594 463.157056 
L 178.872147 479.497968 
L 179.0917 476.949501 
L 179.311253 405.026656 
L 179.530806 411.243298 
L 179.75036 505.51207 
L 179.969913 423.414278 
L 180.189466 458.514791 
L 180.409019 457.517715 
L 180.628572 401.426088 
L 180.848125 458.433584 
L 181.067678 335.370856 
L 181.287232 426.73741 
L 181.506785 398.985239 
L 181.726338 344.555412 
L 181.945891 472.925136 
L 182.165444 503.734347 
L 182.384997 465.121751 
L 182.604551 503.947094 
L 182.824104 496.057605 
L 183.043657 426.93246 
L 183.26321 478.599833 
L 183.482763 352.931708 
L 183.702316 402.326085 
L 183.921869 390.957519 
L 184.141423 441.973462 
L 184.360976 339.137868 
L 184.580529 422.906803 
L 184.800082 386.365307 
L 185.019635 494.923996 
L 185.239188 402.058085 
L 185.458742 393.96012 
L 185.678295 504.436327 
L 185.897848 430.327142 
L 186.117401 447.899304 
L 186.336954 420.858751 
L 186.556507 474.221906 
L 186.77606 499.172639 
L 186.995614 485.647328 
L 187.215167 411.384524 
L 187.43472 405.098614 
L 187.654273 466.052251 
L 187.873826 354.910948 
L 188.093379 448.092731 
L 188.312932 461.47936 
L 188.532486 520.864496 
L 188.752039 376.920761 
L 189.191145 504.52977 
L 189.410698 451.306108 
L 189.630251 369.138995 
L 190.069358 460.595089 
L 190.288911 371.631064 
L 190.508464 429.540533 
L 190.728017 369.689046 
L 190.94757 473.643905 
L 191.167123 406.440145 
L 191.386677 477.715008 
L 191.825783 369.365023 
L 192.045336 404.166689 
L 192.264889 493.162924 
L 192.484442 518.642144 
L 192.703996 294.032932 
L 192.923549 274.728293 
L 193.143102 505.351361 
L 193.362655 441.439478 
L 193.582208 440.441406 
L 193.801761 449.552926 
L 194.021314 303.820779 
L 194.240868 277.455002 
L 194.460421 496.482959 
L 194.679974 513.973557 
L 194.899527 329.399727 
L 195.11908 446.618005 
L 195.338633 359.184973 
L 195.558187 449.674366 
L 195.77774 382.472134 
L 195.997293 394.779683 
L 196.216846 472.871865 
L 196.436399 439.441091 
L 196.655952 451.364372 
L 196.875505 376.696726 
L 197.095059 380.748197 
L 197.314612 453.271929 
L 197.534165 389.293022 
L 197.753718 472.758344 
L 197.973271 317.263954 
L 198.192824 440.982168 
L 198.412378 376.864987 
L 198.631931 434.949219 
L 198.851484 366.191655 
L 199.29059 479.431261 
L 199.510143 468.711159 
L 199.729696 470.019298 
L 199.94925 447.587064 
L 200.168803 338.353469 
L 200.388356 400.348961 
L 200.607909 538.891066 
L 200.827462 271.872281 
L 201.047015 397.962452 
L 201.266569 381.241829 
L 201.486122 387.548741 
L 201.705675 494.752866 
L 201.925228 514.491628 
L 202.144781 509.768091 
L 202.583887 328.881902 
L 202.803441 458.589524 
L 203.022994 483.741091 
L 203.242547 397.304711 
L 203.4621 423.094223 
L 203.681653 419.634431 
L 203.901206 360.595318 
L 204.12076 485.224089 
L 204.340313 520.356128 
L 204.559866 474.875173 
L 204.779419 490.051087 
L 204.998972 461.572589 
L 205.218525 402.230133 
L 205.438078 487.199922 
L 205.877185 291.087374 
L 206.096738 422.67031 
L 206.316291 435.803456 
L 206.535844 353.13898 
L 206.755397 466.750685 
L 206.974951 382.05791 
L 207.194504 371.690978 
L 207.414057 346.392821 
L 207.63361 362.692689 
L 207.853163 415.363158 
L 208.072716 392.815389 
L 208.292269 432.523166 
L 208.511823 279.138068 
L 208.731376 466.514018 
L 208.950929 376.658527 
L 209.170482 462.604904 
L 209.390035 367.775916 
L 209.609588 448.501768 
L 209.829142 465.00883 
L 210.048695 398.673233 
L 210.268248 486.267769 
L 210.487801 316.837422 
L 210.707354 443.385455 
L 210.926907 500.386479 
L 211.366014 341.793533 
L 212.024673 493.847178 
L 212.244226 371.145286 
L 212.463779 405.864699 
L 212.683333 469.322587 
L 212.902886 437.833197 
L 213.122439 444.312134 
L 213.341992 460.772445 
L 213.561545 504.950995 
L 213.781098 469.74239 
L 214.000651 455.772285 
L 214.220205 483.96049 
L 214.439758 395.636178 
L 214.659311 396.456124 
L 214.878864 263.265817 
L 215.098417 382.459336 
L 215.31797 252.133008 
L 215.537523 482.598609 
L 216.196183 306.9131 
L 216.635289 496.279137 
L 216.854842 354.851447 
L 217.074396 296.300495 
L 217.293949 437.502642 
L 217.513502 379.026972 
L 217.733055 374.935998 
L 217.952608 435.750108 
L 218.172161 424.17603 
L 218.391714 381.792704 
L 218.611268 474.194576 
L 218.830821 457.106815 
L 219.050374 393.561858 
L 219.269927 463.255197 
L 219.48948 352.316982 
L 219.709033 379.955477 
L 219.928587 288.717425 
L 220.14814 525.549529 
L 220.367693 424.381397 
L 220.587246 440.311442 
L 220.806799 379.994693 
L 221.026352 366.013075 
L 221.245905 415.646619 
L 221.465459 525.480151 
L 221.685012 421.880508 
L 221.904565 455.259704 
L 222.124118 523.443713 
L 222.343671 376.395704 
L 222.782778 487.762047 
L 223.002331 420.113853 
L 223.221884 483.518675 
L 223.441437 469.563001 
L 223.66099 475.828296 
L 223.880543 476.540476 
L 224.100096 457.341429 
L 224.31965 468.687738 
L 224.539203 502.264353 
L 224.758756 476.486172 
L 224.978309 400.976521 
L 225.197862 373.145264 
L 225.417415 449.687043 
L 225.636969 329.191756 
L 225.856522 437.187692 
L 226.076075 390.765036 
L 226.295628 449.01421 
L 226.515181 435.328555 
L 226.734734 433.166088 
L 226.954287 381.110434 
L 227.173841 413.307006 
L 227.393394 387.896744 
L 227.612947 516.61329 
L 228.271606 355.637856 
L 228.49116 414.052145 
L 228.710713 411.46614 
L 228.930266 508.637941 
L 229.149819 402.743435 
L 229.369372 480.077319 
L 229.588925 469.775923 
L 230.028032 500.066346 
L 230.247585 341.609466 
L 230.467138 473.673093 
L 231.125797 419.958161 
L 231.345351 414.755262 
L 231.564904 423.485285 
L 231.784457 424.379636 
L 232.00401 468.216261 
L 232.223563 456.272314 
L 232.443116 490.037064 
L 232.662669 453.993847 
L 232.882223 456.235301 
L 233.101776 485.669362 
L 233.321329 402.17849 
L 233.540882 440.082348 
L 233.760435 527.867787 
L 233.979988 436.783159 
L 234.199542 427.386414 
L 234.419095 364.708656 
L 234.638648 457.261718 
L 234.858201 426.403001 
L 235.077754 435.957816 
L 235.297307 194.836437 
L 235.51686 361.909801 
L 235.736414 401.34724 
L 235.955967 461.887064 
L 236.17552 320.712851 
L 236.614626 445.318942 
L 236.834179 361.603491 
L 237.053733 356.370828 
L 237.273286 437.445021 
L 237.492839 285.574372 
L 237.712392 364.112639 
L 237.931945 229.656459 
L 238.151498 408.189011 
L 238.371051 341.882091 
L 238.590605 342.955147 
L 239.029711 506.577627 
L 239.468817 391.711143 
L 239.68837 342.302076 
L 239.907924 487.461617 
L 240.127477 430.288435 
L 240.34703 458.535916 
L 240.566583 410.678345 
L 240.786136 436.323685 
L 241.005689 265.714922 
L 241.444796 456.742114 
L 241.664349 466.111986 
L 242.103455 503.027212 
L 242.323008 481.662438 
L 242.542561 474.816559 
L 242.762114 432.803651 
L 242.981668 434.232882 
L 243.201221 381.6028 
L 243.640327 490.786343 
L 243.85988 408.418762 
L 244.079433 499.003524 
L 244.51854 434.155067 
L 244.738093 440.32962 
L 244.957646 418.253833 
L 245.177199 427.700597 
L 245.396752 442.332101 
L 245.616305 375.053362 
L 245.835859 542.26702 
L 246.055412 493.472656 
L 246.274965 390.385728 
L 246.494518 397.269466 
L 246.714071 396.766341 
L 247.153178 523.523854 
L 247.372731 485.778687 
L 247.811837 374.434112 
L 248.03139 444.990815 
L 248.250943 349.234507 
L 248.470496 339.295382 
L 248.69005 535.815083 
L 249.348709 374.514657 
L 249.787815 459.139792 
L 250.007369 359.801699 
L 250.226922 495.718129 
L 250.446475 495.779313 
L 251.105134 393.316368 
L 251.324687 502.09819 
L 251.544241 393.022142 
L 251.763794 438.719157 
L 251.983347 513.126608 
L 252.2029 385.941199 
L 252.422453 429.04514 
L 252.86156 459.513219 
L 253.081113 381.347068 
L 253.300666 454.017459 
L 253.520219 404.25686 
L 253.739772 407.816124 
L 253.959325 419.741882 
L 254.178878 405.041422 
L 254.398432 415.313068 
L 254.617985 475.753366 
L 254.837538 462.312647 
L 255.057091 402.33863 
L 255.276644 476.758806 
L 255.496197 403.193911 
L 255.715751 520.818449 
L 255.935304 359.138015 
L 256.154857 474.362879 
L 256.593963 333.039236 
L 256.813516 468.397395 
L 257.033069 452.024892 
L 257.472176 438.127843 
L 257.911282 507.865416 
L 258.130835 486.431809 
L 258.350388 319.578249 
L 258.569942 283.739489 
L 259.009048 428.075258 
L 259.228601 424.719258 
L 259.448154 467.158526 
L 259.667707 388.706448 
L 259.88726 463.52832 
L 260.106814 458.969823 
L 260.326367 497.897327 
L 260.54592 498.700222 
L 260.765473 436.222252 
L 261.204579 424.814478 
L 261.424133 406.154833 
L 261.643686 419.031854 
L 261.863239 385.864636 
L 262.082792 296.518551 
L 262.302345 346.509642 
L 262.521898 466.155331 
L 262.741451 449.789054 
L 262.961005 363.851343 
L 263.180558 401.486083 
L 263.400111 398.936933 
L 263.619664 481.12003 
L 263.839217 337.770467 
L 264.05877 482.881818 
L 264.278324 440.121857 
L 264.497877 421.746264 
L 264.71743 437.26245 
L 264.936983 362.165277 
L 265.156536 449.255794 
L 265.376089 324.679093 
L 265.595642 419.323919 
L 266.254302 532.91897 
L 266.473855 340.657135 
L 266.693408 435.99627 
L 266.912961 417.85871 
L 267.132514 441.255097 
L 267.352068 477.671907 
L 267.571621 411.177956 
L 267.791174 532.454419 
L 268.010727 427.14193 
L 268.23028 411.427968 
L 268.449833 370.756007 
L 268.669387 381.704168 
L 268.88894 327.59118 
L 269.108493 432.224688 
L 269.328046 433.844109 
L 269.767152 390.105247 
L 269.986705 427.318604 
L 270.206259 430.709338 
L 270.425812 519.106491 
L 270.645365 297.659613 
L 270.864918 509.249875 
L 271.084471 377.24305 
L 271.304024 517.997827 
L 271.523578 285.997707 
L 271.743131 423.317012 
L 271.962684 401.543312 
L 272.182237 458.137962 
L 272.40179 322.722848 
L 273.06045 461.170106 
L 273.280003 378.198667 
L 273.499556 424.302995 
L 273.719109 438.440347 
L 273.938662 471.447393 
L 274.158215 407.70402 
L 274.377769 483.980629 
L 274.597322 369.669129 
L 274.816875 403.832289 
L 275.036428 410.542256 
L 275.475534 483.350429 
L 275.695087 408.394892 
L 275.914641 385.130209 
L 276.134194 304.573357 
L 276.353747 376.53163 
L 276.5733 411.286594 
L 276.792853 476.64247 
L 277.012406 501.537107 
L 277.23196 435.514299 
L 277.451513 459.398925 
L 277.671066 348.311357 
L 278.110172 531.178491 
L 278.329725 446.730665 
L 278.549278 523.578257 
L 278.768832 431.195285 
L 278.988385 478.036175 
L 279.207938 402.925431 
L 279.427491 487.02346 
L 279.647044 473.8294 
L 279.866597 412.306255 
L 280.086151 479.41507 
L 280.305704 420.571216 
L 280.525257 518.114599 
L 280.74481 478.084741 
L 280.964363 405.8675 
L 281.183916 421.635735 
L 281.403469 477.824833 
L 281.623023 365.38921 
L 281.842576 481.351035 
L 282.062129 420.5854 
L 282.281682 504.138775 
L 282.501235 442.139005 
L 282.720788 456.724246 
L 282.940342 393.51967 
L 283.159895 387.792479 
L 283.379448 476.075649 
L 283.599001 291.040132 
L 283.818554 492.64878 
L 284.038107 396.883199 
L 284.25766 428.091971 
L 284.477214 361.784168 
L 284.696767 506.31576 
L 284.91632 416.694981 
L 285.135873 476.401115 
L 285.355426 355.892053 
L 285.574979 438.359942 
L 285.794533 460.666873 
L 286.014086 399.130353 
L 286.233639 377.305751 
L 286.453192 511.223289 
L 286.672745 418.087363 
L 286.892298 395.480771 
L 287.111851 489.245928 
L 287.331405 436.95852 
L 287.550958 326.200596 
L 287.770511 503.715856 
L 287.990064 428.529785 
L 288.209617 475.04285 
L 288.42917 414.387769 
L 288.648724 461.45712 
L 288.868277 409.447882 
L 289.08783 496.170287 
L 289.307383 488.552843 
L 289.526936 467.705111 
L 289.746489 387.722402 
L 289.966042 485.59978 
L 290.185596 464.545676 
L 290.405149 432.307501 
L 290.624702 463.518109 
L 290.844255 338.263547 
L 291.063808 488.697071 
L 291.283361 377.224603 
L 291.502915 385.180575 
L 291.722468 411.128222 
L 291.942021 533.386523 
L 292.161574 468.243336 
L 292.381127 352.16614 
L 292.60068 388.021926 
L 292.820233 296.439167 
L 293.039787 437.945409 
L 293.25934 487.387814 
L 293.478893 276.697447 
L 293.698446 331.765314 
L 293.917999 320.845904 
L 294.137552 476.572381 
L 294.357105 369.649091 
L 294.576659 439.273108 
L 295.015765 517.394998 
L 295.235318 459.151211 
L 295.454871 437.525758 
L 295.674424 478.036164 
L 295.893978 452.621783 
L 296.113531 486.394464 
L 296.333084 314.94621 
L 296.552637 483.564756 
L 296.77219 506.81395 
L 296.991743 438.606052 
L 297.211296 503.170672 
L 297.43085 322.76754 
L 297.869956 417.227003 
L 298.089509 356.964347 
L 298.309062 365.208667 
L 298.748169 474.240751 
L 298.967722 473.44569 
L 299.187275 508.224085 
L 299.406828 477.432964 
L 299.626381 581.38839 
L 299.845934 408.310978 
L 300.065487 484.966742 
L 300.504594 386.910421 
L 300.724147 477.075226 
L 300.9437 489.87428 
L 301.163253 482.733619 
L 301.382806 400.185049 
L 301.60236 419.059351 
L 301.821913 413.359553 
L 302.041466 464.482308 
L 302.261019 464.79419 
L 302.480572 474.201098 
L 302.700125 522.099229 
L 302.919678 420.363216 
L 303.139232 496.574361 
L 303.358785 433.931617 
L 303.578338 490.736427 
L 303.797891 427.420438 
L 304.017444 424.417449 
L 304.236997 439.805806 
L 304.456551 422.908504 
L 304.676104 387.484214 
L 304.895657 384.033414 
L 305.11521 418.885803 
L 305.334763 400.483141 
L 305.554316 351.046454 
L 305.773869 367.70025 
L 305.993423 348.249182 
L 306.212976 462.011637 
L 306.432529 364.690061 
L 306.652082 443.154534 
L 306.871635 448.153076 
L 307.091188 536.140885 
L 307.310742 389.95724 
L 307.530295 346.309587 
L 307.749848 131.956182 
L 308.188954 515.097556 
L 308.408507 497.858281 
L 308.62806 291.134237 
L 308.847614 464.420075 
L 309.067167 426.157861 
L 309.28672 431.438329 
L 309.506273 470.587103 
L 309.945379 316.525648 
L 310.164933 410.988176 
L 310.384486 351.175396 
L 310.604039 509.564136 
L 310.823592 448.696333 
L 311.043145 461.311189 
L 311.262698 296.864323 
L 311.482251 408.406983 
L 311.701805 426.662003 
L 311.921358 421.237928 
L 312.140911 316.200608 
L 312.580017 546.78957 
L 312.79957 422.458032 
L 313.019124 470.057703 
L 313.238677 493.390816 
L 313.45823 485.21762 
L 313.677783 351.503457 
L 313.897336 409.95825 
L 314.116889 283.931044 
L 314.775549 529.414703 
L 314.995102 357.900155 
L 315.214655 512.927115 
L 315.434208 461.303006 
L 315.653761 470.687558 
L 315.873315 435.518578 
L 316.092868 434.636609 
L 316.312421 454.751695 
L 316.531974 396.485293 
L 316.97108 477.088247 
L 317.190633 381.657698 
L 317.410187 376.270337 
L 317.62974 366.210015 
L 317.849293 437.769577 
L 318.068846 339.177275 
L 318.288399 435.396339 
L 318.507952 412.034658 
L 318.727506 439.354957 
L 318.947059 415.148178 
L 319.386165 338.19745 
L 319.605718 344.095466 
L 319.825271 447.615545 
L 320.044824 384.64213 
L 320.264378 478.645858 
L 320.703484 289.427713 
L 320.923037 389.044908 
L 321.14259 404.920163 
L 321.362143 463.662125 
L 321.80125 381.180635 
L 322.020803 444.849273 
L 322.240356 436.689534 
L 322.459909 462.044623 
L 322.679462 471.298378 
L 322.899015 329.669181 
L 323.118569 311.330055 
L 323.338122 457.386947 
L 323.557675 365.38054 
L 323.777228 444.334414 
L 323.996781 442.290893 
L 324.216334 478.74023 
L 324.435887 465.758473 
L 324.655441 510.777812 
L 325.094547 386.860172 
L 325.3141 448.898753 
L 325.533653 465.11731 
L 325.753206 292.39037 
L 325.97276 264.05486 
L 326.411866 358.398369 
L 326.631419 435.435575 
L 326.850972 419.019433 
L 327.070525 428.713335 
L 327.290078 443.394535 
L 327.729185 342.209753 
L 327.948738 345.032457 
L 328.168291 437.365232 
L 328.387844 453.845936 
L 328.607397 459.665017 
L 328.826951 441.172541 
L 329.046504 479.961209 
L 329.266057 462.22102 
L 329.48561 403.28958 
L 329.705163 496.291373 
L 329.924716 384.512349 
L 330.144269 433.339343 
L 330.363823 426.632254 
L 330.583376 429.212732 
L 330.802929 377.090635 
L 331.022482 445.44986 
L 331.242035 448.584637 
L 331.461588 485.123785 
L 331.681142 372.909859 
L 331.900695 441.584216 
L 332.120248 327.512969 
L 332.339801 456.757448 
L 332.559354 387.610762 
L 332.778907 474.901811 
L 332.99846 434.348377 
L 333.218014 462.153321 
L 333.437567 329.016027 
L 333.65712 447.984289 
L 334.315779 406.701037 
L 334.535333 349.392445 
L 334.754886 397.849462 
L 335.193992 369.066159 
L 335.413545 499.15853 
L 335.633098 423.498805 
L 335.852651 439.136632 
L 336.072205 434.433266 
L 336.291758 374.416933 
L 336.511311 462.045077 
L 336.730864 367.206243 
L 336.950417 489.548024 
L 337.16997 428.891081 
L 337.389524 470.00522 
L 337.609077 463.785472 
L 337.82863 433.981636 
L 338.048183 493.361916 
L 338.267736 371.444112 
L 338.487289 456.113398 
L 338.706842 496.348529 
L 338.926396 428.206131 
L 339.145949 431.393378 
L 339.365502 468.37088 
L 339.804608 379.950665 
L 340.243715 464.224884 
L 340.463268 407.341834 
L 340.682821 500.654899 
L 340.902374 318.218106 
L 341.121927 417.147096 
L 341.34148 398.98909 
L 341.561033 369.281064 
L 341.780587 364.44615 
L 342.00014 336.554608 
L 342.219693 487.380337 
L 342.439246 442.188585 
L 342.658799 372.957259 
L 342.878352 211.149177 
L 343.097906 464.689505 
L 343.537012 362.328436 
L 343.756565 435.216348 
L 344.195671 408.099929 
L 344.415224 423.592527 
L 344.634778 415.62193 
L 344.854331 363.877344 
L 345.073884 450.601955 
L 345.293437 481.557794 
L 345.51299 372.371839 
L 345.732543 479.115585 
L 345.952096 362.84364 
L 346.391203 422.507933 
L 346.610756 376.266984 
L 346.830309 491.625376 
L 347.049862 296.021668 
L 347.269415 465.473873 
L 347.488969 481.54844 
L 347.708522 474.581907 
L 348.147628 365.775911 
L 348.586734 537.189093 
L 348.806287 443.213633 
L 349.025841 474.205411 
L 349.245394 427.007918 
L 349.464947 418.722253 
L 349.6845 421.398893 
L 349.904053 425.822331 
L 350.123606 398.206752 
L 350.34316 496.290924 
L 350.562713 466.777305 
L 350.782266 453.231537 
L 351.001819 423.246393 
L 351.221372 432.844268 
L 351.440925 452.761922 
L 351.660478 344.652571 
L 351.880032 333.17035 
L 352.319138 461.565065 
L 352.758244 425.416215 
L 352.977797 429.672924 
L 353.197351 350.444978 
L 353.416904 507.605742 
L 353.636457 366.469963 
L 353.85601 448.923051 
L 354.075563 384.548881 
L 354.295116 417.493838 
L 354.514669 407.421018 
L 354.734223 481.429026 
L 354.953776 460.354246 
L 355.392882 357.830948 
L 355.612435 467.90003 
L 355.831988 464.625737 
L 356.051542 421.687196 
L 356.271095 433.988131 
L 356.490648 495.413993 
L 356.710201 428.980667 
L 356.929754 443.073292 
L 357.149307 353.32555 
L 357.36886 490.649448 
L 357.588414 438.662406 
L 357.807967 487.05609 
L 358.02752 386.396868 
L 358.247073 532.679651 
L 358.466626 376.565459 
L 358.686179 422.23201 
L 358.905733 493.350248 
L 359.125286 501.325939 
L 359.344839 448.879885 
L 359.564392 358.472941 
L 359.783945 459.285157 
L 360.003498 446.383572 
L 360.223051 463.752216 
L 360.442605 448.695816 
L 360.662158 275.679656 
L 360.881711 447.887726 
L 361.101264 419.725581 
L 361.320817 441.041091 
L 361.54037 412.801562 
L 361.759924 534.516556 
L 362.19903 455.55636 
L 362.418583 536.452858 
L 362.857689 437.436631 
L 363.077242 409.691181 
L 363.296796 402.433069 
L 363.516349 378.460386 
L 363.735902 459.050995 
L 363.955455 426.208575 
L 364.175008 456.817527 
L 364.394561 447.904754 
L 364.833668 377.413026 
L 365.053221 486.91882 
L 365.272774 420.745477 
L 365.492327 282.935104 
L 365.71188 335.878521 
L 365.931433 452.973682 
L 366.150987 343.806042 
L 366.37054 532.397998 
L 366.590093 447.62415 
L 366.809646 521.337956 
L 367.029199 448.840659 
L 367.248752 305.074666 
L 367.687859 375.133133 
L 367.907412 464.226417 
L 368.126965 453.578854 
L 368.346518 415.689003 
L 368.566071 483.501098 
L 368.785624 506.193689 
L 369.005178 426.114445 
L 369.224731 475.210262 
L 369.444284 482.95955 
L 369.663837 437.566684 
L 369.88339 457.400187 
L 370.102943 370.37635 
L 370.322497 387.97019 
L 370.54205 334.228688 
L 370.761603 350.340355 
L 370.981156 445.755129 
L 371.420262 365.985103 
L 371.639815 351.191108 
L 372.078922 486.77942 
L 372.298475 383.657829 
L 372.518028 395.754599 
L 372.737581 419.170025 
L 372.957134 348.140661 
L 373.176687 355.161053 
L 374.0549 513.42375 
L 374.274453 430.92272 
L 374.494006 469.019115 
L 374.71356 292.989511 
L 374.933113 445.365224 
L 375.152666 464.333454 
L 375.372219 281.414966 
L 375.591772 448.066464 
L 375.811325 505.282597 
L 376.030878 420.193376 
L 376.250432 428.423493 
L 376.469985 356.108898 
L 376.909091 485.41874 
L 377.128644 317.208571 
L 377.348197 466.916141 
L 377.567751 442.961568 
L 377.787304 486.687685 
L 378.006857 360.231218 
L 378.22641 485.429134 
L 378.445963 513.72231 
L 378.665516 337.061701 
L 378.885069 411.534832 
L 379.104623 447.831871 
L 379.324176 407.437044 
L 379.763282 479.430153 
L 379.982835 455.995692 
L 380.202388 478.141724 
L 380.421942 479.041251 
L 380.861048 338.11672 
L 381.080601 310.30957 
L 381.300154 401.029605 
L 381.519707 349.429431 
L 381.73926 460.436315 
L 381.958814 462.165987 
L 382.178367 460.666624 
L 382.617473 357.973691 
L 382.837026 520.353365 
L 383.276133 379.492817 
L 383.495686 372.636909 
L 383.715239 376.126783 
L 383.934792 482.598182 
L 384.154345 477.619759 
L 384.373898 433.366665 
L 384.593451 461.691592 
L 385.032558 362.171494 
L 385.252111 366.385742 
L 385.471664 251.992848 
L 385.691217 422.758075 
L 385.91077 404.964367 
L 386.130324 439.906454 
L 386.349877 386.661528 
L 386.56943 389.695778 
L 386.788983 456.993541 
L 387.008536 370.339814 
L 387.228089 484.674136 
L 387.447642 445.665439 
L 387.667196 447.157448 
L 387.886749 316.571092 
L 388.106302 444.433016 
L 388.325855 378.81687 
L 388.545408 480.733789 
L 388.764961 447.044746 
L 388.984515 457.464101 
L 389.204068 410.897076 
L 389.423621 456.768098 
L 389.643174 467.370213 
L 389.862727 484.871708 
L 390.301833 367.812921 
L 390.521387 479.398897 
L 390.74094 439.422329 
L 390.960493 342.864436 
L 391.180046 420.152507 
L 391.399599 274.311365 
L 391.619152 499.095753 
L 391.838706 491.254939 
L 392.497365 419.486419 
L 392.716918 489.391434 
L 392.936471 491.661574 
L 393.156024 456.745553 
L 393.375578 445.40109 
L 393.595131 463.702939 
L 393.814684 301.058857 
L 394.034237 259.878545 
L 394.473343 533.973565 
L 394.692897 343.068499 
L 394.91245 319.609275 
L 395.132003 421.446102 
L 395.571109 389.671313 
L 395.790662 503.404889 
L 396.010215 342.06846 
L 396.229769 454.655201 
L 396.449322 494.722455 
L 396.668875 440.54255 
L 396.888428 529.616537 
L 397.107981 376.053285 
L 397.327534 440.349158 
L 397.547087 393.609977 
L 397.766641 440.315323 
L 397.986194 388.032189 
L 398.205747 422.412893 
L 398.4253 481.979158 
L 398.644853 486.910281 
L 399.08396 396.068702 
L 399.303513 503.462817 
L 399.742619 432.206917 
L 399.962172 437.77055 
L 400.181725 483.017448 
L 400.401278 468.08156 
L 400.620832 384.053594 
L 400.840385 434.778932 
L 401.059938 452.348177 
L 401.279491 410.047162 
L 401.499044 419.400715 
L 401.718597 373.506651 
L 401.938151 353.517568 
L 402.377257 436.043998 
L 402.59681 398.979187 
L 402.816363 397.204768 
L 403.035916 418.764665 
L 403.255469 420.831293 
L 403.475023 403.935194 
L 403.694576 446.987798 
L 404.133682 416.562764 
L 404.353235 481.349794 
L 404.572788 465.09511 
L 404.792342 418.520304 
L 405.011895 253.245375 
L 405.231448 371.627501 
L 405.451001 385.11617 
L 405.670554 356.190649 
L 405.890107 498.946331 
L 406.10966 392.425093 
L 406.329214 458.37673 
L 406.548767 406.363703 
L 406.76832 420.76716 
L 406.987873 402.658732 
L 407.207426 548.280882 
L 407.426979 477.322334 
L 407.646533 447.302213 
L 407.866086 525.635875 
L 408.085639 457.545118 
L 408.305192 469.721568 
L 408.524745 339.760582 
L 408.744298 438.551449 
L 408.963851 485.402146 
L 409.183405 379.640367 
L 409.402958 491.277231 
L 409.622511 439.913976 
L 409.842064 478.388703 
L 410.061617 400.561797 
L 410.28117 398.369394 
L 410.720277 504.289301 
L 410.93983 432.398516 
L 411.159383 528.331871 
L 411.378936 380.19038 
L 411.598489 383.056083 
L 411.818042 482.695619 
L 412.037596 405.075251 
L 412.476702 495.25779 
L 412.696255 498.027394 
L 412.915808 475.240068 
L 413.135361 405.595606 
L 413.354915 473.319137 
L 413.574468 500.124218 
L 413.794021 482.985441 
L 414.013574 407.44745 
L 414.233127 422.449156 
L 414.45268 393.216216 
L 414.672233 541.089851 
L 414.891787 407.18099 
L 415.11134 475.05139 
L 415.330893 338.265658 
L 415.550446 433.696852 
L 415.769999 450.414495 
L 415.989552 388.433024 
L 416.209106 433.951874 
L 416.428659 398.237415 
L 416.648212 493.191343 
L 416.867765 502.155796 
L 417.087318 418.009502 
L 417.306871 395.420729 
L 417.745978 543.262591 
L 417.965531 469.790153 
L 418.185084 487.710824 
L 418.62419 459.703769 
L 418.843743 337.339163 
L 419.063297 375.315417 
L 419.28285 447.813487 
L 419.502403 465.735406 
L 419.721956 411.36772 
L 419.941509 305.163515 
L 420.161062 364.72125 
L 420.600169 416.761227 
L 420.819722 290.719877 
L 421.258828 430.659099 
L 421.478381 378.177386 
L 421.697934 392.67927 
L 421.917488 446.989516 
L 422.137041 441.869472 
L 422.356594 416.313023 
L 422.576147 405.897078 
L 422.7957 387.826124 
L 423.015253 481.502185 
L 423.45436 363.726214 
L 423.673913 385.548794 
L 424.113019 506.935679 
L 424.332572 330.545381 
L 424.552125 487.14728 
L 424.771678 355.410981 
L 424.991232 494.243939 
L 425.210785 489.572715 
L 425.430338 352.947202 
L 425.649891 433.747609 
L 425.869444 414.060071 
L 426.308551 472.224051 
L 426.528104 254.33425 
L 426.747657 408.020788 
L 426.96721 464.319347 
L 427.186763 472.34725 
L 427.406316 442.580716 
L 427.625869 457.785014 
L 427.845423 418.467501 
L 428.064976 494.267673 
L 428.284529 351.16564 
L 428.504082 455.259842 
L 428.723635 345.014172 
L 428.943188 472.448589 
L 429.162742 320.266089 
L 429.382295 477.21035 
L 429.601848 417.824455 
L 429.821401 279.851585 
L 430.040954 496.745142 
L 430.260507 421.738177 
L 430.48006 454.428777 
L 430.699614 439.855246 
L 430.919167 474.297449 
L 431.13872 477.509461 
L 431.358273 314.88487 
L 431.577826 471.627087 
L 432.016933 371.843436 
L 432.236486 375.051622 
L 432.456039 508.076538 
L 432.675592 500.745615 
L 432.895145 395.174611 
L 433.114698 454.666087 
L 433.334251 281.728696 
L 433.553805 458.835199 
L 433.773358 488.726985 
L 433.992911 481.372704 
L 434.212464 461.914629 
L 434.432017 333.589425 
L 434.65157 447.943895 
L 434.871124 426.419489 
L 435.090677 479.50141 
L 435.31023 418.070212 
L 435.529783 435.952679 
L 435.749336 493.929088 
L 435.968889 400.328525 
L 436.407996 527.601835 
L 437.066655 338.637209 
L 437.286208 440.578931 
L 437.505761 416.429654 
L 437.725315 490.978912 
L 437.944868 365.02432 
L 438.164421 352.862906 
L 438.383974 471.263928 
L 438.603527 418.965451 
L 438.82308 433.295752 
L 439.042633 417.006972 
L 439.262187 352.823425 
L 439.48174 422.82864 
L 439.701293 367.334491 
L 439.920846 431.74673 
L 440.140399 434.683894 
L 440.359952 414.620555 
L 440.579506 436.433058 
L 440.799059 335.286051 
L 441.018612 453.847512 
L 441.238165 420.249519 
L 441.457718 426.118028 
L 441.677271 300.500391 
L 441.896824 518.18169 
L 442.116378 433.912074 
L 442.335931 448.41498 
L 442.555484 487.934283 
L 442.775037 398.957017 
L 442.99459 379.326081 
L 443.433697 504.282103 
L 443.65325 372.162795 
L 443.872803 424.040464 
L 444.092356 360.907579 
L 444.531462 488.739483 
L 444.751015 463.654486 
L 444.970569 421.536888 
L 445.190122 400.947304 
L 445.409675 404.985303 
L 446.068334 351.799806 
L 446.287888 347.174047 
L 446.507441 500.615998 
L 446.726994 510.394723 
L 446.946547 412.434276 
L 447.1661 445.74811 
L 447.385653 396.255089 
L 447.605206 392.422968 
L 447.82476 436.874457 
L 448.044313 428.624212 
L 448.263866 378.798209 
L 448.483419 459.38525 
L 448.702972 446.357264 
L 448.922525 417.033535 
L 449.142079 453.872719 
L 449.361632 398.938981 
L 449.581185 270.20284 
L 449.800738 490.587919 
L 450.020291 388.513828 
L 450.239844 365.391533 
L 450.459397 505.070911 
L 450.678951 444.700285 
L 450.898504 445.372802 
L 451.118057 475.887024 
L 451.33761 417.88837 
L 451.557163 470.40822 
L 451.776716 481.209526 
L 451.996269 415.105154 
L 452.215823 395.868994 
L 452.654929 441.575228 
L 452.874482 453.867251 
L 453.094035 443.928603 
L 453.313588 402.329424 
L 453.533142 417.243145 
L 453.752695 504.239945 
L 453.972248 327.518914 
L 454.191801 487.690313 
L 454.411354 461.859735 
L 454.630907 380.868993 
L 454.85046 526.53049 
L 455.070014 411.691455 
L 455.289567 484.357268 
L 455.50912 360.954435 
L 455.728673 492.391555 
L 455.948226 317.417793 
L 456.167779 497.463478 
L 456.387333 367.814115 
L 456.606886 458.483909 
L 456.826439 378.781046 
L 457.045992 480.373735 
L 457.265545 434.517033 
L 457.485098 359.482833 
L 457.704651 523.589777 
L 458.143758 383.938155 
L 458.363311 395.18154 
L 458.582864 359.038351 
L 459.02197 481.22939 
L 459.241524 472.515541 
L 459.461077 452.354861 
L 459.68063 459.327866 
L 459.900183 446.358621 
L 460.119736 406.670993 
L 460.339289 414.348884 
L 460.778396 478.507944 
L 460.997949 417.765962 
L 461.437055 481.683205 
L 461.656608 435.152238 
L 461.876161 465.631237 
L 462.095715 335.307168 
L 462.315268 524.506812 
L 462.534821 478.389865 
L 462.754374 380.625055 
L 462.973927 368.450522 
L 463.19348 499.312167 
L 463.413033 437.444345 
L 463.632587 431.179726 
L 463.85214 492.244893 
L 464.071693 372.244153 
L 464.291246 389.872705 
L 464.510799 377.544058 
L 464.730352 385.009585 
L 464.949906 388.242657 
L 465.169459 478.812265 
L 465.389012 421.98187 
L 465.608565 438.492448 
L 465.828118 419.833828 
L 466.047671 426.021663 
L 466.267224 312.731147 
L 466.486778 441.94759 
L 466.706331 470.997454 
L 466.925884 362.575868 
L 467.145437 336.753962 
L 467.36499 424.693573 
L 467.804097 398.063021 
L 468.02365 355.171793 
L 468.243203 469.460765 
L 468.682309 363.425602 
L 468.901862 416.119721 
L 469.121415 322.388754 
L 469.340969 475.59537 
L 469.560522 311.499146 
L 469.780075 520.395081 
L 470.219181 415.530325 
L 470.438734 473.155502 
L 470.658288 389.03467 
L 470.877841 351.691801 
L 471.097394 352.957 
L 471.316947 483.885469 
L 471.5365 423.873308 
L 471.756053 446.449731 
L 471.975606 376.143399 
L 472.19516 394.597776 
L 472.414713 424.630372 
L 472.634266 409.305293 
L 472.853819 501.260013 
L 473.073372 361.999554 
L 473.292925 358.714647 
L 473.512479 425.102056 
L 473.951585 478.000396 
L 474.171138 478.022959 
L 474.610244 459.290499 
L 474.829797 353.668865 
L 475.049351 460.025949 
L 475.268904 434.695892 
L 475.488457 422.387892 
L 475.70801 518.044989 
L 476.147116 370.619258 
L 476.366669 410.148834 
L 476.586223 414.85196 
L 476.805776 389.486589 
L 477.025329 410.074088 
L 477.244882 487.777435 
L 477.464435 503.272796 
L 477.683988 445.377609 
L 477.903542 441.30418 
L 478.123095 440.963646 
L 478.342648 438.067909 
L 478.562201 438.655208 
L 478.781754 408.848986 
L 479.001307 453.688201 
L 479.22086 457.435339 
L 479.440414 525.111148 
L 479.659967 463.475 
L 479.87952 308.14409 
L 480.099073 419.660657 
L 480.318626 443.966308 
L 480.538179 443.984152 
L 480.757733 361.555695 
L 480.977286 426.527798 
L 481.196839 444.265666 
L 481.416392 415.01914 
L 481.635945 439.312683 
L 481.855498 476.873322 
L 482.075051 418.31967 
L 482.294605 467.060059 
L 482.514158 475.903543 
L 482.733711 255.985569 
L 482.953264 414.061321 
L 483.172817 221.127588 
L 483.611924 475.32483 
L 483.831477 380.536968 
L 484.05103 488.076772 
L 484.270583 388.189332 
L 484.490136 524.764441 
L 484.929242 385.395106 
L 485.148796 465.655821 
L 485.368349 358.070013 
L 485.587902 365.115344 
L 485.807455 465.088831 
L 486.027008 498.311732 
L 486.246561 412.190315 
L 486.466115 553.539274 
L 486.685668 407.370726 
L 486.905221 336.810845 
L 487.124774 502.534507 
L 487.344327 476.84771 
L 487.56388 363.037319 
L 487.783433 417.329844 
L 488.002987 432.391233 
L 488.22254 502.266187 
L 488.442093 407.001564 
L 488.661646 504.014775 
L 488.881199 424.678485 
L 489.100752 492.278653 
L 489.320306 348.742222 
L 489.539859 483.961692 
L 489.759412 463.324557 
L 490.198518 399.034799 
L 490.418071 400.793575 
L 490.637624 470.166249 
L 490.857178 314.323315 
L 491.076731 468.876776 
L 491.296284 390.095427 
L 491.515837 442.173787 
L 491.954943 483.920162 
L 492.174497 500.808339 
L 492.39405 359.740823 
L 492.613603 360.715425 
L 492.833156 346.646106 
L 493.052709 501.941085 
L 493.272262 412.190108 
L 493.491815 435.944526 
L 493.711369 410.650356 
L 493.930922 482.814124 
L 494.150475 480.240219 
L 494.370028 364.569219 
L 494.589581 378.112826 
L 494.809134 476.836882 
L 495.028688 386.464228 
L 495.248241 346.145741 
L 495.467794 265.509427 
L 495.687347 501.349881 
L 495.9069 400.489312 
L 496.126453 404.238596 
L 496.346006 363.260064 
L 496.56556 499.352672 
L 496.785113 501.298489 
L 497.004666 435.966331 
L 497.224219 542.584069 
L 497.443772 404.584145 
L 497.663325 378.290467 
L 497.882879 388.386961 
L 498.102432 351.821537 
L 498.321985 398.399674 
L 498.541538 502.052351 
L 498.980644 392.855281 
L 499.200197 510.226698 
L 499.419751 513.499644 
L 499.639304 504.297968 
L 499.858857 360.708804 
L 500.07841 351.040548 
L 500.297963 509.785069 
L 500.517516 375.018619 
L 500.73707 433.238546 
L 501.176176 316.905565 
L 501.395729 404.499133 
L 501.615282 415.130611 
L 501.834835 462.90481 
L 502.054388 405.236591 
L 502.273942 476.923396 
L 502.493495 475.44965 
L 502.713048 372.844084 
L 502.932601 466.615011 
L 503.152154 487.878037 
L 503.371707 464.327669 
L 503.59126 408.966051 
L 503.810814 504.794739 
L 504.030367 415.989531 
L 504.24992 385.211835 
L 504.469473 411.399868 
L 504.689026 422.565259 
L 504.908579 445.919968 
L 505.128133 344.336927 
L 505.347686 326.122123 
L 505.567239 410.051968 
L 505.786792 413.650305 
L 506.006345 332.537671 
L 506.225898 482.382631 
L 506.445451 451.372726 
L 506.665005 438.114792 
L 506.884558 352.390842 
L 507.104111 428.22768 
L 507.323664 418.557596 
L 507.543217 458.778839 
L 507.76277 448.452576 
L 507.982324 330.531174 
L 508.42143 448.909933 
L 508.640983 389.380934 
L 508.860536 502.297692 
L 509.299642 368.462474 
L 509.738749 442.382228 
L 510.177855 410.935083 
L 510.397408 459.190982 
L 510.616961 435.298422 
L 510.836515 350.919891 
L 511.056068 351.962031 
L 511.275621 500.615095 
L 511.495174 343.896124 
L 511.714727 476.07714 
L 511.93428 423.614164 
L 512.153833 446.692205 
L 512.373387 512.268186 
L 512.59294 428.699907 
L 512.812493 450.440866 
L 513.032046 367.345679 
L 513.251599 436.199066 
L 513.471152 435.798126 
L 513.910259 371.258618 
L 514.129812 452.351635 
L 514.349365 442.434726 
L 514.788471 326.415124 
L 515.008024 462.373408 
L 515.227578 444.930706 
L 515.447131 447.21613 
L 515.666684 330.894796 
L 515.886237 476.73687 
L 516.10579 343.514141 
L 516.325343 442.822247 
L 516.544897 473.508007 
L 516.76445 425.643641 
L 516.984003 511.194049 
L 517.203556 418.441168 
L 517.423109 425.730015 
L 517.642662 440.012322 
L 518.081769 361.067109 
L 518.301322 474.217448 
L 518.520875 371.669001 
L 518.740428 381.615514 
L 518.959981 452.297674 
L 519.179534 351.682544 
L 519.399088 413.611384 
L 519.618641 524.060111 
L 519.838194 529.558605 
L 520.057747 396.906807 
L 520.2773 444.977505 
L 520.496853 364.618334 
L 520.716406 426.247491 
L 520.93596 358.830047 
L 521.155513 475.258442 
L 521.375066 328.55655 
L 521.814172 514.219128 
L 522.253279 401.58693 
L 522.472832 461.466169 
L 522.692385 411.396579 
L 522.911938 533.602728 
L 523.351044 389.748757 
L 523.570597 496.929148 
L 523.790151 495.756312 
L 524.009704 424.85429 
L 524.229257 437.287352 
L 524.44881 409.695749 
L 524.668363 523.810569 
L 525.327023 441.196896 
L 525.546576 336.713634 
L 525.766129 434.064223 
L 525.985682 379.612669 
L 526.205235 451.686243 
L 526.424788 287.415934 
L 526.863895 378.975774 
L 527.083448 409.665135 
L 527.303001 468.485876 
L 527.522554 447.601331 
L 527.742107 304.434393 
L 527.96166 498.231617 
L 528.400767 324.450639 
L 528.62032 513.205089 
L 528.839873 526.596251 
L 529.059426 435.723463 
L 529.498533 501.351794 
L 529.718086 307.03287 
L 529.937639 414.705009 
L 530.157192 356.620156 
L 530.376745 470.804873 
L 530.596298 412.093533 
L 530.815851 435.646243 
L 531.035405 243.556964 
L 531.254958 450.940444 
L 531.474511 450.272282 
L 531.694064 306.662788 
L 531.913617 418.659769 
L 532.352724 358.734979 
L 532.572277 387.624935 
L 533.011383 500.939695 
L 533.230936 347.986174 
L 533.450489 486.121047 
L 533.670042 380.861404 
L 533.889596 341.546853 
L 534.109149 517.094583 
L 534.328702 374.727245 
L 534.767808 461.293132 
L 534.987361 436.342538 
L 535.206915 322.503853 
L 535.426468 486.119355 
L 535.646021 438.430512 
L 535.865574 445.217649 
L 536.085127 446.90513 
L 536.30468 461.199312 
L 536.524233 420.306459 
L 536.743787 433.022781 
L 537.182893 367.385578 
L 537.402446 495.757069 
L 537.621999 383.045658 
L 537.841552 471.262395 
L 538.061106 354.277444 
L 538.280659 444.416257 
L 538.500212 468.415682 
L 538.719765 368.480977 
L 539.158871 496.384523 
L 539.597978 388.823075 
L 539.817531 476.413632 
L 540.037084 447.528528 
L 540.256637 383.995548 
L 540.47619 461.236026 
L 540.695743 432.394935 
L 540.915297 356.222418 
L 541.13485 374.001643 
L 541.354403 448.342727 
L 541.793509 398.185054 
L 542.013062 479.841713 
L 542.232615 317.995944 
L 542.452169 497.476456 
L 542.671722 400.312966 
L 542.891275 383.464141 
L 543.110828 451.348318 
L 543.330381 283.303195 
L 543.549934 451.045433 
L 543.769488 520.896777 
L 543.989041 398.974785 
L 544.208594 397.503329 
L 544.428147 347.34286 
L 544.6477 467.253228 
L 544.867253 459.552488 
L 545.086806 474.314583 
L 545.30636 360.954424 
L 545.525913 414.126359 
L 545.745466 422.633072 
L 545.745466 422.633072 
" style="fill:none;stroke:#96c69a;stroke-linecap:round;stroke-width:3;"/>
   </g>
   <g id="line2d_2"/>
   <g id="patch_3">
    <path d="M 84.914375 603.86 
L 84.914375 109.484571 
" style="fill:none;stroke:#262626;stroke-linecap:square;stroke-linejoin:miter;stroke-width:2.5;"/>
   </g>
   <g id="patch_4">
    <path d="M 84.914375 603.86 
L 567.689804 603.86 
" style="fill:none;stroke:#262626;stroke-linecap:square;stroke-linejoin:miter;stroke-width:2.5;"/>
   </g>
   <g id="legend_1">
    <g id="patch_5">
     <path d="M 514.774179 598.86 
L 560.689804 598.86 
Q 562.689804 598.86 562.689804 596.86 
L 562.689804 554.954375 
Q 562.689804 552.954375 560.689804 552.954375 
L 514.774179 552.954375 
Q 512.774179 552.954375 512.774179 554.954375 
L 512.774179 596.86 
Q 512.774179 598.86 514.774179 598.86 
z
" style="fill:#ffffff;opacity:0.8;stroke:#cccccc;stroke-linejoin:miter;stroke-width:2;"/>
    </g>
    <g id="text_15">
     <!-- $n_\tau$ -->
     <g style="fill:#262626;" transform="translate(524.651991 575.190625)scale(0.24 -0.24)">
      <defs>
       <path d="M 3566 2113 
L 3156 0 
L 2578 0 
L 2988 2091 
Q 3016 2238 3031 2350 
Q 3047 2463 3047 2528 
Q 3047 2791 2881 2937 
Q 2716 3084 2419 3084 
Q 1956 3084 1622 2776 
Q 1288 2469 1184 1941 
L 800 0 
L 225 0 
L 903 3500 
L 1478 3500 
L 1363 2950 
Q 1603 3253 1940 3418 
Q 2278 3584 2650 3584 
Q 3113 3584 3367 3334 
Q 3622 3084 3622 2631 
Q 3622 2519 3608 2391 
Q 3594 2263 3566 2113 
z
" id="DejaVuSans-Oblique-6e" transform="scale(0.015625)"/>
       <path d="M 2103 638 
Q 2188 488 2525 488 
L 2800 488 
L 2706 0 
L 2363 0 
Q 1800 0 1600 300 
Q 1403 606 1534 1269 
L 1856 2925 
L 541 2925 
L 653 3500 
L 3881 3500 
L 3769 2925 
L 2444 2925 
L 2113 1234 
Q 2025 781 2103 638 
z
" id="DejaVuSans-Oblique-3c4" transform="scale(0.015625)"/>
      </defs>
      <use xlink:href="#DejaVuSans-Oblique-6e"/>
      <use transform="translate(63.378906 -16.40625)scale(0.7)" xlink:href="#DejaVuSans-Oblique-3c4"/>
     </g>
    </g>
    <g id="line2d_3">
     <path d="M 516.774179 589.280313 
L 536.774179 589.280313 
" style="fill:none;stroke:#96c69a;stroke-linecap:round;stroke-width:3;"/>
    </g>
    <g id="line2d_4"/>
    <g id="text_16">
     <!-- 32 -->
     <g style="fill:#262626;" transform="translate(544.774179 592.780313)scale(0.1 -0.1)">
      <defs>
       <path d="M 2981 2516 
Q 3453 2394 3698 2092 
Q 3944 1791 3944 1325 
Q 3944 631 3412 270 
Q 2881 -91 1863 -91 
Q 1503 -91 1142 -33 
Q 781 25 428 141 
L 428 1069 
Q 766 900 1098 814 
Q 1431 728 1753 728 
Q 2231 728 2486 893 
Q 2741 1059 2741 1369 
Q 2741 1688 2480 1852 
Q 2219 2016 1709 2016 
L 1228 2016 
L 1228 2791 
L 1734 2791 
Q 2188 2791 2409 2933 
Q 2631 3075 2631 3366 
Q 2631 3634 2415 3781 
Q 2200 3928 1806 3928 
Q 1516 3928 1219 3862 
Q 922 3797 628 3669 
L 628 4550 
Q 984 4650 1334 4700 
Q 1684 4750 2022 4750 
Q 2931 4750 3382 4451 
Q 3834 4153 3834 3553 
Q 3834 3144 3618 2883 
Q 3403 2622 2981 2516 
z
" id="DejaVuSans-Bold-33" transform="scale(0.015625)"/>
       <path d="M 1844 884 
L 3897 884 
L 3897 0 
L 506 0 
L 506 884 
L 2209 2388 
Q 2438 2594 2547 2791 
Q 2656 2988 2656 3200 
Q 2656 3528 2436 3728 
Q 2216 3928 1850 3928 
Q 1569 3928 1234 3808 
Q 900 3688 519 3450 
L 519 4475 
Q 925 4609 1322 4679 
Q 1719 4750 2100 4750 
Q 2938 4750 3402 4381 
Q 3866 4013 3866 3353 
Q 3866 2972 3669 2642 
Q 3472 2313 2841 1759 
L 1844 884 
z
" id="DejaVuSans-Bold-32" transform="scale(0.015625)"/>
      </defs>
      <use xlink:href="#DejaVuSans-Bold-33"/>
      <use x="69.580078" xlink:href="#DejaVuSans-Bold-32"/>
     </g>
    </g>
   </g>
  </g>
  <g id="axes_2">
   <g id="patch_6">
    <path d="M 84.914375 92.437143 
L 567.689804 92.437143 
L 567.689804 7.2 
L 84.914375 7.2 
z
" style="fill:none;"/>
   </g>
   <g id="matplotlib.axis_3">
    <g id="xtick_7"/>
    <g id="xtick_8"/>
    <g id="xtick_9"/>
    <g id="xtick_10"/>
    <g id="xtick_11"/>
    <g id="xtick_12"/>
   </g>
   <g id="matplotlib.axis_4">
    <g id="ytick_7">
     <g id="text_17">
      <!-- 0 -->
      <g style="fill:#262626;" transform="translate(55.416875 100.795424)scale(0.22 -0.22)">
       <use xlink:href="#DejaVuSans-30"/>
      </g>
     </g>
    </g>
    <g id="ytick_8">
     <g id="text_18">
      <!-- 100 -->
      <g style="fill:#262626;" transform="translate(27.421875 48.082287)scale(0.22 -0.22)">
       <use xlink:href="#DejaVuSans-31"/>
       <use x="63.623047" xlink:href="#DejaVuSans-30"/>
       <use x="127.246094" xlink:href="#DejaVuSans-30"/>
      </g>
     </g>
    </g>
   </g>
   <g id="patch_7">
    <path clip-path="url(#pd7323ccda1)" d="M 106.858713 92.437143 
L 140.619232 92.437143 
L 140.619232 11.258912 
L 106.858713 11.258912 
z
" style="fill:#96c69a;fill-opacity:0.5;stroke:#ffffff;stroke-linejoin:miter;stroke-width:2;"/>
   </g>
   <g id="patch_8">
    <path clip-path="url(#pd7323ccda1)" d="M 140.619232 92.437143 
L 174.379752 92.437143 
L 174.379752 11.258912 
L 140.619232 11.258912 
z
" style="fill:#96c69a;fill-opacity:0.5;stroke:#ffffff;stroke-linejoin:miter;stroke-width:2;"/>
   </g>
   <g id="patch_9">
    <path clip-path="url(#pd7323ccda1)" d="M 174.379752 92.437143 
L 208.140271 92.437143 
L 208.140271 11.258912 
L 174.379752 11.258912 
z
" style="fill:#96c69a;fill-opacity:0.5;stroke:#ffffff;stroke-linejoin:miter;stroke-width:2;"/>
   </g>
   <g id="patch_10">
    <path clip-path="url(#pd7323ccda1)" d="M 208.140271 92.437143 
L 241.900791 92.437143 
L 241.900791 11.258912 
L 208.140271 11.258912 
z
" style="fill:#96c69a;fill-opacity:0.5;stroke:#ffffff;stroke-linejoin:miter;stroke-width:2;"/>
   </g>
   <g id="patch_11">
    <path clip-path="url(#pd7323ccda1)" d="M 241.900791 92.437143 
L 275.66131 92.437143 
L 275.66131 11.786043 
L 241.900791 11.786043 
z
" style="fill:#96c69a;fill-opacity:0.5;stroke:#ffffff;stroke-linejoin:miter;stroke-width:2;"/>
   </g>
   <g id="patch_12">
    <path clip-path="url(#pd7323ccda1)" d="M 275.66131 92.437143 
L 309.42183 92.437143 
L 309.42183 11.258912 
L 275.66131 11.258912 
z
" style="fill:#96c69a;fill-opacity:0.5;stroke:#ffffff;stroke-linejoin:miter;stroke-width:2;"/>
   </g>
   <g id="patch_13">
    <path clip-path="url(#pd7323ccda1)" d="M 309.42183 92.437143 
L 343.182349 92.437143 
L 343.182349 11.258912 
L 309.42183 11.258912 
z
" style="fill:#96c69a;fill-opacity:0.5;stroke:#ffffff;stroke-linejoin:miter;stroke-width:2;"/>
   </g>
   <g id="patch_14">
    <path clip-path="url(#pd7323ccda1)" d="M 343.182349 92.437143 
L 376.942869 92.437143 
L 376.942869 11.258912 
L 343.182349 11.258912 
z
" style="fill:#96c69a;fill-opacity:0.5;stroke:#ffffff;stroke-linejoin:miter;stroke-width:2;"/>
   </g>
   <g id="patch_15">
    <path clip-path="url(#pd7323ccda1)" d="M 376.942869 92.437143 
L 410.703388 92.437143 
L 410.703388 11.786043 
L 376.942869 11.786043 
z
" style="fill:#96c69a;fill-opacity:0.5;stroke:#ffffff;stroke-linejoin:miter;stroke-width:2;"/>
   </g>
   <g id="patch_16">
    <path clip-path="url(#pd7323ccda1)" d="M 410.703388 92.437143 
L 444.463907 92.437143 
L 444.463907 11.258912 
L 410.703388 11.258912 
z
" style="fill:#96c69a;fill-opacity:0.5;stroke:#ffffff;stroke-linejoin:miter;stroke-width:2;"/>
   </g>
   <g id="patch_17">
    <path clip-path="url(#pd7323ccda1)" d="M 444.463907 92.437143 
L 478.224427 92.437143 
L 478.224427 11.258912 
L 444.463907 11.258912 
z
" style="fill:#96c69a;fill-opacity:0.5;stroke:#ffffff;stroke-linejoin:miter;stroke-width:2;"/>
   </g>
   <g id="patch_18">
    <path clip-path="url(#pd7323ccda1)" d="M 478.224427 92.437143 
L 511.984946 92.437143 
L 511.984946 11.258912 
L 478.224427 11.258912 
z
" style="fill:#96c69a;fill-opacity:0.5;stroke:#ffffff;stroke-linejoin:miter;stroke-width:2;"/>
   </g>
   <g id="patch_19">
    <path clip-path="url(#pd7323ccda1)" d="M 511.984946 92.437143 
L 545.745466 92.437143 
L 545.745466 11.258912 
L 511.984946 11.258912 
z
" style="fill:#96c69a;fill-opacity:0.5;stroke:#ffffff;stroke-linejoin:miter;stroke-width:2;"/>
   </g>
   <g id="patch_20">
    <path d="M 84.914375 92.437143 
L 84.914375 7.2 
" style="fill:none;stroke:#262626;stroke-linecap:square;stroke-linejoin:miter;stroke-width:2.5;"/>
   </g>
   <g id="patch_21">
    <path d="M 84.914375 92.437143 
L 567.689804 92.437143 
" style="fill:none;stroke:#262626;stroke-linecap:square;stroke-linejoin:miter;stroke-width:2.5;"/>
   </g>
  </g>
  <g id="axes_3">
   <g id="patch_22">
    <path d="M 584.337232 603.86 
L 667.574375 603.86 
L 667.574375 109.484571 
L 584.337232 109.484571 
z
" style="fill:none;"/>
   </g>
   <g id="matplotlib.axis_5">
    <g id="xtick_13">
     <g id="text_19">
      <!-- 0 -->
      <g style="fill:#262626;" transform="translate(577.338482 636.076563)scale(0.22 -0.22)">
       <use xlink:href="#DejaVuSans-30"/>
      </g>
     </g>
    </g>
    <g id="xtick_14">
     <g id="text_20">
      <!-- 100 -->
      <g style="fill:#262626;" transform="translate(607.138479 636.076563)scale(0.22 -0.22)">
       <use xlink:href="#DejaVuSans-31"/>
       <use x="63.623047" xlink:href="#DejaVuSans-30"/>
       <use x="127.246094" xlink:href="#DejaVuSans-30"/>
      </g>
     </g>
    </g>
   </g>
   <g id="matplotlib.axis_6">
    <g id="ytick_9"/>
    <g id="ytick_10"/>
    <g id="ytick_11"/>
    <g id="ytick_12"/>
    <g id="ytick_13"/>
    <g id="ytick_14"/>
   </g>
   <g id="patch_23">
    <path clip-path="url(#pb9f4d347ad)" d="M 584.337232 581.38839 
L 584.775207 581.38839 
L 584.775207 569.241573 
L 584.337232 569.241573 
z
" style="fill:#96c69a;fill-opacity:0.5;stroke:#ffffff;stroke-linejoin:miter;stroke-width:1.214682;"/>
   </g>
   <g id="patch_24">
    <path clip-path="url(#pb9f4d347ad)" d="M 584.337232 569.241573 
L 584.337232 569.241573 
L 584.337232 557.094757 
L 584.337232 557.094757 
z
" style="fill:#96c69a;fill-opacity:0.5;stroke:#ffffff;stroke-linejoin:miter;stroke-width:1.214682;"/>
   </g>
   <g id="patch_25">
    <path clip-path="url(#pb9f4d347ad)" d="M 584.337232 557.094757 
L 585.651157 557.094757 
L 585.651157 544.94794 
L 584.337232 544.94794 
z
" style="fill:#96c69a;fill-opacity:0.5;stroke:#ffffff;stroke-linejoin:miter;stroke-width:1.214682;"/>
   </g>
   <g id="patch_26">
    <path clip-path="url(#pb9f4d347ad)" d="M 584.337232 544.94794 
L 591.344832 544.94794 
L 591.344832 532.801124 
L 584.337232 532.801124 
z
" style="fill:#96c69a;fill-opacity:0.5;stroke:#ffffff;stroke-linejoin:miter;stroke-width:1.214682;"/>
   </g>
   <g id="patch_27">
    <path clip-path="url(#pb9f4d347ad)" d="M 584.337232 532.801124 
L 598.790406 532.801124 
L 598.790406 520.654307 
L 584.337232 520.654307 
z
" style="fill:#96c69a;fill-opacity:0.5;stroke:#ffffff;stroke-linejoin:miter;stroke-width:1.214682;"/>
   </g>
   <g id="patch_28">
    <path clip-path="url(#pb9f4d347ad)" d="M 584.337232 520.654307 
L 602.732181 520.654307 
L 602.732181 508.507491 
L 584.337232 508.507491 
z
" style="fill:#96c69a;fill-opacity:0.5;stroke:#ffffff;stroke-linejoin:miter;stroke-width:1.214682;"/>
   </g>
   <g id="patch_29">
    <path clip-path="url(#pb9f4d347ad)" d="M 584.337232 508.507491 
L 621.12713 508.507491 
L 621.12713 496.360675 
L 584.337232 496.360675 
z
" style="fill:#96c69a;fill-opacity:0.5;stroke:#ffffff;stroke-linejoin:miter;stroke-width:1.214682;"/>
   </g>
   <g id="patch_30">
    <path clip-path="url(#pb9f4d347ad)" d="M 584.337232 496.360675 
L 632.076504 496.360675 
L 632.076504 484.213858 
L 584.337232 484.213858 
z
" style="fill:#96c69a;fill-opacity:0.5;stroke:#ffffff;stroke-linejoin:miter;stroke-width:1.214682;"/>
   </g>
   <g id="patch_31">
    <path clip-path="url(#pb9f4d347ad)" d="M 584.337232 484.213858 
L 648.281578 484.213858 
L 648.281578 472.067042 
L 584.337232 472.067042 
z
" style="fill:#96c69a;fill-opacity:0.5;stroke:#ffffff;stroke-linejoin:miter;stroke-width:1.214682;"/>
   </g>
   <g id="patch_32">
    <path clip-path="url(#pb9f4d347ad)" d="M 584.337232 472.067042 
L 649.595503 472.067042 
L 649.595503 459.920225 
L 584.337232 459.920225 
z
" style="fill:#96c69a;fill-opacity:0.5;stroke:#ffffff;stroke-linejoin:miter;stroke-width:1.214682;"/>
   </g>
   <g id="patch_33">
    <path clip-path="url(#pb9f4d347ad)" d="M 584.337232 459.920225 
L 654.413227 459.920225 
L 654.413227 447.773409 
L 584.337232 447.773409 
z
" style="fill:#96c69a;fill-opacity:0.5;stroke:#ffffff;stroke-linejoin:miter;stroke-width:1.214682;"/>
   </g>
   <g id="patch_34">
    <path clip-path="url(#pb9f4d347ad)" d="M 584.337232 447.773409 
L 663.610702 447.773409 
L 663.610702 435.626592 
L 584.337232 435.626592 
z
" style="fill:#96c69a;fill-opacity:0.5;stroke:#ffffff;stroke-linejoin:miter;stroke-width:1.214682;"/>
   </g>
   <g id="patch_35">
    <path clip-path="url(#pb9f4d347ad)" d="M 584.337232 435.626592 
L 654.851202 435.626592 
L 654.851202 423.479776 
L 584.337232 423.479776 
z
" style="fill:#96c69a;fill-opacity:0.5;stroke:#ffffff;stroke-linejoin:miter;stroke-width:1.214682;"/>
   </g>
   <g id="patch_36">
    <path clip-path="url(#pb9f4d347ad)" d="M 584.337232 423.479776 
L 658.355002 423.479776 
L 658.355002 411.33296 
L 584.337232 411.33296 
z
" style="fill:#96c69a;fill-opacity:0.5;stroke:#ffffff;stroke-linejoin:miter;stroke-width:1.214682;"/>
   </g>
   <g id="patch_37">
    <path clip-path="url(#pb9f4d347ad)" d="M 584.337232 411.33296 
L 643.025878 411.33296 
L 643.025878 399.186143 
L 584.337232 399.186143 
z
" style="fill:#96c69a;fill-opacity:0.5;stroke:#ffffff;stroke-linejoin:miter;stroke-width:1.214682;"/>
   </g>
   <g id="patch_38">
    <path clip-path="url(#pb9f4d347ad)" d="M 584.337232 399.186143 
L 635.142329 399.186143 
L 635.142329 387.039327 
L 584.337232 387.039327 
z
" style="fill:#96c69a;fill-opacity:0.5;stroke:#ffffff;stroke-linejoin:miter;stroke-width:1.214682;"/>
   </g>
   <g id="patch_39">
    <path clip-path="url(#pb9f4d347ad)" d="M 584.337232 387.039327 
L 632.952454 387.039327 
L 632.952454 374.89251 
L 584.337232 374.89251 
z
" style="fill:#96c69a;fill-opacity:0.5;stroke:#ffffff;stroke-linejoin:miter;stroke-width:1.214682;"/>
   </g>
   <g id="patch_40">
    <path clip-path="url(#pb9f4d347ad)" d="M 584.337232 374.89251 
L 625.944854 374.89251 
L 625.944854 362.745694 
L 584.337232 362.745694 
z
" style="fill:#96c69a;fill-opacity:0.5;stroke:#ffffff;stroke-linejoin:miter;stroke-width:1.214682;"/>
   </g>
   <g id="patch_41">
    <path clip-path="url(#pb9f4d347ad)" d="M 584.337232 362.745694 
L 619.813205 362.745694 
L 619.813205 350.598878 
L 584.337232 350.598878 
z
" style="fill:#96c69a;fill-opacity:0.5;stroke:#ffffff;stroke-linejoin:miter;stroke-width:1.214682;"/>
   </g>
   <g id="patch_42">
    <path clip-path="url(#pb9f4d347ad)" d="M 584.337232 350.598878 
L 608.86383 350.598878 
L 608.86383 338.452061 
L 584.337232 338.452061 
z
" style="fill:#96c69a;fill-opacity:0.5;stroke:#ffffff;stroke-linejoin:miter;stroke-width:1.214682;"/>
   </g>
   <g id="patch_43">
    <path clip-path="url(#pb9f4d347ad)" d="M 584.337232 338.452061 
L 603.608131 338.452061 
L 603.608131 326.305245 
L 584.337232 326.305245 
z
" style="fill:#96c69a;fill-opacity:0.5;stroke:#ffffff;stroke-linejoin:miter;stroke-width:1.214682;"/>
   </g>
   <g id="patch_44">
    <path clip-path="url(#pb9f4d347ad)" d="M 584.337232 326.305245 
L 598.352431 326.305245 
L 598.352431 314.158428 
L 584.337232 314.158428 
z
" style="fill:#96c69a;fill-opacity:0.5;stroke:#ffffff;stroke-linejoin:miter;stroke-width:1.214682;"/>
   </g>
   <g id="patch_45">
    <path clip-path="url(#pb9f4d347ad)" d="M 584.337232 314.158428 
L 590.468882 314.158428 
L 590.468882 302.011612 
L 584.337232 302.011612 
z
" style="fill:#96c69a;fill-opacity:0.5;stroke:#ffffff;stroke-linejoin:miter;stroke-width:1.214682;"/>
   </g>
   <g id="patch_46">
    <path clip-path="url(#pb9f4d347ad)" d="M 584.337232 302.011612 
L 593.534706 302.011612 
L 593.534706 289.864795 
L 584.337232 289.864795 
z
" style="fill:#96c69a;fill-opacity:0.5;stroke:#ffffff;stroke-linejoin:miter;stroke-width:1.214682;"/>
   </g>
   <g id="patch_47">
    <path clip-path="url(#pb9f4d347ad)" d="M 584.337232 289.864795 
L 591.344832 289.864795 
L 591.344832 277.717979 
L 584.337232 277.717979 
z
" style="fill:#96c69a;fill-opacity:0.5;stroke:#ffffff;stroke-linejoin:miter;stroke-width:1.214682;"/>
   </g>
   <g id="patch_48">
    <path clip-path="url(#pb9f4d347ad)" d="M 584.337232 277.717979 
L 588.279007 277.717979 
L 588.279007 265.571163 
L 584.337232 265.571163 
z
" style="fill:#96c69a;fill-opacity:0.5;stroke:#ffffff;stroke-linejoin:miter;stroke-width:1.214682;"/>
   </g>
   <g id="patch_49">
    <path clip-path="url(#pb9f4d347ad)" d="M 584.337232 265.571163 
L 586.965082 265.571163 
L 586.965082 253.424346 
L 584.337232 253.424346 
z
" style="fill:#96c69a;fill-opacity:0.5;stroke:#ffffff;stroke-linejoin:miter;stroke-width:1.214682;"/>
   </g>
   <g id="patch_50">
    <path clip-path="url(#pb9f4d347ad)" d="M 584.337232 253.424346 
L 586.089132 253.424346 
L 586.089132 241.27753 
L 584.337232 241.27753 
z
" style="fill:#96c69a;fill-opacity:0.5;stroke:#ffffff;stroke-linejoin:miter;stroke-width:1.214682;"/>
   </g>
   <g id="patch_51">
    <path clip-path="url(#pb9f4d347ad)" d="M 584.337232 241.27753 
L 584.775207 241.27753 
L 584.775207 229.130713 
L 584.337232 229.130713 
z
" style="fill:#96c69a;fill-opacity:0.5;stroke:#ffffff;stroke-linejoin:miter;stroke-width:1.214682;"/>
   </g>
   <g id="patch_52">
    <path clip-path="url(#pb9f4d347ad)" d="M 584.337232 229.130713 
L 584.775207 229.130713 
L 584.775207 216.983897 
L 584.337232 216.983897 
z
" style="fill:#96c69a;fill-opacity:0.5;stroke:#ffffff;stroke-linejoin:miter;stroke-width:1.214682;"/>
   </g>
   <g id="patch_53">
    <path clip-path="url(#pb9f4d347ad)" d="M 584.337232 216.983897 
L 584.775207 216.983897 
L 584.775207 204.83708 
L 584.337232 204.83708 
z
" style="fill:#96c69a;fill-opacity:0.5;stroke:#ffffff;stroke-linejoin:miter;stroke-width:1.214682;"/>
   </g>
   <g id="patch_54">
    <path clip-path="url(#pb9f4d347ad)" d="M 584.337232 204.83708 
L 584.775207 204.83708 
L 584.775207 192.690264 
L 584.337232 192.690264 
z
" style="fill:#96c69a;fill-opacity:0.5;stroke:#ffffff;stroke-linejoin:miter;stroke-width:1.214682;"/>
   </g>
   <g id="patch_55">
    <path clip-path="url(#pb9f4d347ad)" d="M 584.337232 192.690264 
L 584.337232 192.690264 
L 584.337232 180.543448 
L 584.337232 180.543448 
z
" style="fill:#96c69a;fill-opacity:0.5;stroke:#ffffff;stroke-linejoin:miter;stroke-width:1.214682;"/>
   </g>
   <g id="patch_56">
    <path clip-path="url(#pb9f4d347ad)" d="M 584.337232 180.543448 
L 584.337232 180.543448 
L 584.337232 168.396631 
L 584.337232 168.396631 
z
" style="fill:#96c69a;fill-opacity:0.5;stroke:#ffffff;stroke-linejoin:miter;stroke-width:1.214682;"/>
   </g>
   <g id="patch_57">
    <path clip-path="url(#pb9f4d347ad)" d="M 584.337232 168.396631 
L 585.213182 168.396631 
L 585.213182 156.249815 
L 584.337232 156.249815 
z
" style="fill:#96c69a;fill-opacity:0.5;stroke:#ffffff;stroke-linejoin:miter;stroke-width:1.214682;"/>
   </g>
   <g id="patch_58">
    <path clip-path="url(#pb9f4d347ad)" d="M 584.337232 156.249815 
L 584.337232 156.249815 
L 584.337232 144.102998 
L 584.337232 144.102998 
z
" style="fill:#96c69a;fill-opacity:0.5;stroke:#ffffff;stroke-linejoin:miter;stroke-width:1.214682;"/>
   </g>
   <g id="patch_59">
    <path clip-path="url(#pb9f4d347ad)" d="M 584.337232 144.102998 
L 584.775207 144.102998 
L 584.775207 131.956182 
L 584.337232 131.956182 
z
" style="fill:#96c69a;fill-opacity:0.5;stroke:#ffffff;stroke-linejoin:miter;stroke-width:1.214682;"/>
   </g>
   <g id="patch_60">
    <path d="M 584.337232 603.86 
L 584.337232 109.484571 
" style="fill:none;stroke:#262626;stroke-linecap:square;stroke-linejoin:miter;stroke-width:2.5;"/>
   </g>
   <g id="patch_61">
    <path d="M 584.337232 603.86 
L 667.574375 603.86 
" style="fill:none;stroke:#262626;stroke-linecap:square;stroke-linejoin:miter;stroke-width:2.5;"/>
   </g>
  </g>
 </g>
 <defs>
  <clipPath id="p053cb4673e">
   <rect height="494.375429" width="482.775429" x="84.914375" y="109.484571"/>
  </clipPath>
  <clipPath id="pd7323ccda1">
   <rect height="85.237143" width="482.775429" x="84.914375" y="7.2"/>
  </clipPath>
  <clipPath id="pb9f4d347ad">
   <rect height="494.375429" width="83.237143" x="584.337232" y="109.484571"/>
  </clipPath>
 </defs>
</svg>
