<?xml version="1.0" encoding="utf-8" standalone="no"?>
<!DOCTYPE svg PUBLIC "-//W3C//DTD SVG 1.1//EN"
  "http://www.w3.org/Graphics/SVG/1.1/DTD/svg11.dtd">
<svg height="675.079375pt" version="1.1" viewBox="0 0 674.774375 675.079375" width="674.774375pt" xmlns="http://www.w3.org/2000/svg" xmlns:xlink="http://www.w3.org/1999/xlink">
 <metadata>
  <rdf:RDF xmlns:cc="http://creativecommons.org/ns#" xmlns:dc="http://purl.org/dc/elements/1.1/" xmlns:rdf="http://www.w3.org/1999/02/22-rdf-syntax-ns#">
   <cc:Work>
    <dc:type rdf:resource="http://purl.org/dc/dcmitype/StillImage"/>
    <dc:date>2021-07-16T21:43:55.794926</dc:date>
    <dc:format>image/svg+xml</dc:format>
    <dc:creator>
     <cc:Agent>
      <dc:title>Matplotlib v3.4.2, https://matplotlib.org/</dc:title>
     </cc:Agent>
    </dc:creator>
   </cc:Work>
  </rdf:RDF>
 </metadata>
 <defs>
  <style type="text/css">*{stroke-linecap:butt;stroke-linejoin:round;}</style>
 </defs>
 <g id="figure_1">
  <g id="patch_1">
   <path d="M 0 675.079375 
L 674.774375 675.079375 
L 674.774375 0 
L 0 0 
z
" style="fill:#ffffff;"/>
  </g>
  <g id="axes_1">
   <g id="patch_2">
    <path d="M 84.914375 603.86 
L 567.689804 603.86 
L 567.689804 109.484571 
L 84.914375 109.484571 
z
" style="fill:none;"/>
   </g>
   <g id="matplotlib.axis_1">
    <g id="xtick_1">
     <g id="text_1">
      <!-- 0 -->
      <g style="fill:#262626;" transform="translate(99.64041 636.076563)scale(0.22 -0.22)">
       <defs>
        <path d="M 2034 4250 
Q 1547 4250 1301 3770 
Q 1056 3291 1056 2328 
Q 1056 1369 1301 889 
Q 1547 409 2034 409 
Q 2525 409 2770 889 
Q 3016 1369 3016 2328 
Q 3016 3291 2770 3770 
Q 2525 4250 2034 4250 
z
M 2034 4750 
Q 2819 4750 3233 4129 
Q 3647 3509 3647 2328 
Q 3647 1150 3233 529 
Q 2819 -91 2034 -91 
Q 1250 -91 836 529 
Q 422 1150 422 2328 
Q 422 3509 836 4129 
Q 1250 4750 2034 4750 
z
" id="DejaVuSans-30" transform="scale(0.015625)"/>
       </defs>
       <use xlink:href="#DejaVuSans-30"/>
      </g>
     </g>
    </g>
    <g id="xtick_2">
     <g id="text_2">
      <!-- 20000 -->
      <g style="fill:#262626;" transform="translate(159.466671 636.076563)scale(0.22 -0.22)">
       <defs>
        <path d="M 1228 531 
L 3431 531 
L 3431 0 
L 469 0 
L 469 531 
Q 828 903 1448 1529 
Q 2069 2156 2228 2338 
Q 2531 2678 2651 2914 
Q 2772 3150 2772 3378 
Q 2772 3750 2511 3984 
Q 2250 4219 1831 4219 
Q 1534 4219 1204 4116 
Q 875 4013 500 3803 
L 500 4441 
Q 881 4594 1212 4672 
Q 1544 4750 1819 4750 
Q 2544 4750 2975 4387 
Q 3406 4025 3406 3419 
Q 3406 3131 3298 2873 
Q 3191 2616 2906 2266 
Q 2828 2175 2409 1742 
Q 1991 1309 1228 531 
z
" id="DejaVuSans-32" transform="scale(0.015625)"/>
       </defs>
       <use xlink:href="#DejaVuSans-32"/>
       <use x="63.623047" xlink:href="#DejaVuSans-30"/>
       <use x="127.246094" xlink:href="#DejaVuSans-30"/>
       <use x="190.869141" xlink:href="#DejaVuSans-30"/>
       <use x="254.492188" xlink:href="#DejaVuSans-30"/>
      </g>
     </g>
    </g>
    <g id="xtick_3">
     <g id="text_3">
      <!-- 40000 -->
      <g style="fill:#262626;" transform="translate(247.287932 636.076563)scale(0.22 -0.22)">
       <defs>
        <path d="M 2419 4116 
L 825 1625 
L 2419 1625 
L 2419 4116 
z
M 2253 4666 
L 3047 4666 
L 3047 1625 
L 3713 1625 
L 3713 1100 
L 3047 1100 
L 3047 0 
L 2419 0 
L 2419 1100 
L 313 1100 
L 313 1709 
L 2253 4666 
z
" id="DejaVuSans-34" transform="scale(0.015625)"/>
       </defs>
       <use xlink:href="#DejaVuSans-34"/>
       <use x="63.623047" xlink:href="#DejaVuSans-30"/>
       <use x="127.246094" xlink:href="#DejaVuSans-30"/>
       <use x="190.869141" xlink:href="#DejaVuSans-30"/>
       <use x="254.492188" xlink:href="#DejaVuSans-30"/>
      </g>
     </g>
    </g>
    <g id="xtick_4">
     <g id="text_4">
      <!-- 60000 -->
      <g style="fill:#262626;" transform="translate(335.109193 636.076563)scale(0.22 -0.22)">
       <defs>
        <path d="M 2113 2584 
Q 1688 2584 1439 2293 
Q 1191 2003 1191 1497 
Q 1191 994 1439 701 
Q 1688 409 2113 409 
Q 2538 409 2786 701 
Q 3034 994 3034 1497 
Q 3034 2003 2786 2293 
Q 2538 2584 2113 2584 
z
M 3366 4563 
L 3366 3988 
Q 3128 4100 2886 4159 
Q 2644 4219 2406 4219 
Q 1781 4219 1451 3797 
Q 1122 3375 1075 2522 
Q 1259 2794 1537 2939 
Q 1816 3084 2150 3084 
Q 2853 3084 3261 2657 
Q 3669 2231 3669 1497 
Q 3669 778 3244 343 
Q 2819 -91 2113 -91 
Q 1303 -91 875 529 
Q 447 1150 447 2328 
Q 447 3434 972 4092 
Q 1497 4750 2381 4750 
Q 2619 4750 2861 4703 
Q 3103 4656 3366 4563 
z
" id="DejaVuSans-36" transform="scale(0.015625)"/>
       </defs>
       <use xlink:href="#DejaVuSans-36"/>
       <use x="63.623047" xlink:href="#DejaVuSans-30"/>
       <use x="127.246094" xlink:href="#DejaVuSans-30"/>
       <use x="190.869141" xlink:href="#DejaVuSans-30"/>
       <use x="254.492188" xlink:href="#DejaVuSans-30"/>
      </g>
     </g>
    </g>
    <g id="xtick_5">
     <g id="text_5">
      <!-- 80000 -->
      <g style="fill:#262626;" transform="translate(422.930455 636.076563)scale(0.22 -0.22)">
       <defs>
        <path d="M 2034 2216 
Q 1584 2216 1326 1975 
Q 1069 1734 1069 1313 
Q 1069 891 1326 650 
Q 1584 409 2034 409 
Q 2484 409 2743 651 
Q 3003 894 3003 1313 
Q 3003 1734 2745 1975 
Q 2488 2216 2034 2216 
z
M 1403 2484 
Q 997 2584 770 2862 
Q 544 3141 544 3541 
Q 544 4100 942 4425 
Q 1341 4750 2034 4750 
Q 2731 4750 3128 4425 
Q 3525 4100 3525 3541 
Q 3525 3141 3298 2862 
Q 3072 2584 2669 2484 
Q 3125 2378 3379 2068 
Q 3634 1759 3634 1313 
Q 3634 634 3220 271 
Q 2806 -91 2034 -91 
Q 1263 -91 848 271 
Q 434 634 434 1313 
Q 434 1759 690 2068 
Q 947 2378 1403 2484 
z
M 1172 3481 
Q 1172 3119 1398 2916 
Q 1625 2713 2034 2713 
Q 2441 2713 2670 2916 
Q 2900 3119 2900 3481 
Q 2900 3844 2670 4047 
Q 2441 4250 2034 4250 
Q 1625 4250 1398 4047 
Q 1172 3844 1172 3481 
z
" id="DejaVuSans-38" transform="scale(0.015625)"/>
       </defs>
       <use xlink:href="#DejaVuSans-38"/>
       <use x="63.623047" xlink:href="#DejaVuSans-30"/>
       <use x="127.246094" xlink:href="#DejaVuSans-30"/>
       <use x="190.869141" xlink:href="#DejaVuSans-30"/>
       <use x="254.492188" xlink:href="#DejaVuSans-30"/>
      </g>
     </g>
    </g>
    <g id="xtick_6">
     <g id="text_6">
      <!-- 100000 -->
      <g style="fill:#262626;" transform="translate(503.752966 636.076563)scale(0.22 -0.22)">
       <defs>
        <path d="M 794 531 
L 1825 531 
L 1825 4091 
L 703 3866 
L 703 4441 
L 1819 4666 
L 2450 4666 
L 2450 531 
L 3481 531 
L 3481 0 
L 794 0 
L 794 531 
z
" id="DejaVuSans-31" transform="scale(0.015625)"/>
       </defs>
       <use xlink:href="#DejaVuSans-31"/>
       <use x="63.623047" xlink:href="#DejaVuSans-30"/>
       <use x="127.246094" xlink:href="#DejaVuSans-30"/>
       <use x="190.869141" xlink:href="#DejaVuSans-30"/>
       <use x="254.492188" xlink:href="#DejaVuSans-30"/>
       <use x="318.115234" xlink:href="#DejaVuSans-30"/>
      </g>
     </g>
    </g>
    <g id="text_7">
     <!-- MDTU -->
     <g style="fill:#262626;" transform="translate(290.596464 662.888125)scale(0.24 -0.24)">
      <defs>
       <path d="M 628 4666 
L 1569 4666 
L 2759 1491 
L 3956 4666 
L 4897 4666 
L 4897 0 
L 4281 0 
L 4281 4097 
L 3078 897 
L 2444 897 
L 1241 4097 
L 1241 0 
L 628 0 
L 628 4666 
z
" id="DejaVuSans-4d" transform="scale(0.015625)"/>
       <path d="M 1259 4147 
L 1259 519 
L 2022 519 
Q 2988 519 3436 956 
Q 3884 1394 3884 2338 
Q 3884 3275 3436 3711 
Q 2988 4147 2022 4147 
L 1259 4147 
z
M 628 4666 
L 1925 4666 
Q 3281 4666 3915 4102 
Q 4550 3538 4550 2338 
Q 4550 1131 3912 565 
Q 3275 0 1925 0 
L 628 0 
L 628 4666 
z
" id="DejaVuSans-44" transform="scale(0.015625)"/>
       <path d="M -19 4666 
L 3928 4666 
L 3928 4134 
L 2272 4134 
L 2272 0 
L 1638 0 
L 1638 4134 
L -19 4134 
L -19 4666 
z
" id="DejaVuSans-54" transform="scale(0.015625)"/>
       <path d="M 556 4666 
L 1191 4666 
L 1191 1831 
Q 1191 1081 1462 751 
Q 1734 422 2344 422 
Q 2950 422 3222 751 
Q 3494 1081 3494 1831 
L 3494 4666 
L 4128 4666 
L 4128 1753 
Q 4128 841 3676 375 
Q 3225 -91 2344 -91 
Q 1459 -91 1007 375 
Q 556 841 556 1753 
L 556 4666 
z
" id="DejaVuSans-55" transform="scale(0.015625)"/>
      </defs>
      <use xlink:href="#DejaVuSans-4d"/>
      <use x="86.279297" xlink:href="#DejaVuSans-44"/>
      <use x="163.28125" xlink:href="#DejaVuSans-54"/>
      <use x="224.365234" xlink:href="#DejaVuSans-55"/>
     </g>
    </g>
   </g>
   <g id="matplotlib.axis_2">
    <g id="ytick_1">
     <g id="text_8">
      <!-- 0.4 -->
      <g style="fill:#262626;" transform="translate(34.4275 558.607519)scale(0.22 -0.22)">
       <defs>
        <path d="M 684 794 
L 1344 794 
L 1344 0 
L 684 0 
L 684 794 
z
" id="DejaVuSans-2e" transform="scale(0.015625)"/>
       </defs>
       <use xlink:href="#DejaVuSans-30"/>
       <use x="63.623047" xlink:href="#DejaVuSans-2e"/>
       <use x="95.410156" xlink:href="#DejaVuSans-34"/>
      </g>
     </g>
    </g>
    <g id="ytick_2">
     <g id="text_9">
      <!-- 0.5 -->
      <g style="fill:#262626;" transform="translate(34.4275 501.684692)scale(0.22 -0.22)">
       <defs>
        <path d="M 691 4666 
L 3169 4666 
L 3169 4134 
L 1269 4134 
L 1269 2991 
Q 1406 3038 1543 3061 
Q 1681 3084 1819 3084 
Q 2600 3084 3056 2656 
Q 3513 2228 3513 1497 
Q 3513 744 3044 326 
Q 2575 -91 1722 -91 
Q 1428 -91 1123 -41 
Q 819 9 494 109 
L 494 744 
Q 775 591 1075 516 
Q 1375 441 1709 441 
Q 2250 441 2565 725 
Q 2881 1009 2881 1497 
Q 2881 1984 2565 2268 
Q 2250 2553 1709 2553 
Q 1456 2553 1204 2497 
Q 953 2441 691 2322 
L 691 4666 
z
" id="DejaVuSans-35" transform="scale(0.015625)"/>
       </defs>
       <use xlink:href="#DejaVuSans-30"/>
       <use x="63.623047" xlink:href="#DejaVuSans-2e"/>
       <use x="95.410156" xlink:href="#DejaVuSans-35"/>
      </g>
     </g>
    </g>
    <g id="ytick_3">
     <g id="text_10">
      <!-- 0.6 -->
      <g style="fill:#262626;" transform="translate(34.4275 444.761865)scale(0.22 -0.22)">
       <use xlink:href="#DejaVuSans-30"/>
       <use x="63.623047" xlink:href="#DejaVuSans-2e"/>
       <use x="95.410156" xlink:href="#DejaVuSans-36"/>
      </g>
     </g>
    </g>
    <g id="ytick_4">
     <g id="text_11">
      <!-- 0.7 -->
      <g style="fill:#262626;" transform="translate(34.4275 387.839039)scale(0.22 -0.22)">
       <defs>
        <path d="M 525 4666 
L 3525 4666 
L 3525 4397 
L 1831 0 
L 1172 0 
L 2766 4134 
L 525 4134 
L 525 4666 
z
" id="DejaVuSans-37" transform="scale(0.015625)"/>
       </defs>
       <use xlink:href="#DejaVuSans-30"/>
       <use x="63.623047" xlink:href="#DejaVuSans-2e"/>
       <use x="95.410156" xlink:href="#DejaVuSans-37"/>
      </g>
     </g>
    </g>
    <g id="ytick_5">
     <g id="text_12">
      <!-- 0.8 -->
      <g style="fill:#262626;" transform="translate(34.4275 330.916212)scale(0.22 -0.22)">
       <use xlink:href="#DejaVuSans-30"/>
       <use x="63.623047" xlink:href="#DejaVuSans-2e"/>
       <use x="95.410156" xlink:href="#DejaVuSans-38"/>
      </g>
     </g>
    </g>
    <g id="ytick_6">
     <g id="text_13">
      <!-- 0.9 -->
      <g style="fill:#262626;" transform="translate(34.4275 273.993386)scale(0.22 -0.22)">
       <defs>
        <path d="M 703 97 
L 703 672 
Q 941 559 1184 500 
Q 1428 441 1663 441 
Q 2288 441 2617 861 
Q 2947 1281 2994 2138 
Q 2813 1869 2534 1725 
Q 2256 1581 1919 1581 
Q 1219 1581 811 2004 
Q 403 2428 403 3163 
Q 403 3881 828 4315 
Q 1253 4750 1959 4750 
Q 2769 4750 3195 4129 
Q 3622 3509 3622 2328 
Q 3622 1225 3098 567 
Q 2575 -91 1691 -91 
Q 1453 -91 1209 -44 
Q 966 3 703 97 
z
M 1959 2075 
Q 2384 2075 2632 2365 
Q 2881 2656 2881 3163 
Q 2881 3666 2632 3958 
Q 2384 4250 1959 4250 
Q 1534 4250 1286 3958 
Q 1038 3666 1038 3163 
Q 1038 2656 1286 2365 
Q 1534 2075 1959 2075 
z
" id="DejaVuSans-39" transform="scale(0.015625)"/>
       </defs>
       <use xlink:href="#DejaVuSans-30"/>
       <use x="63.623047" xlink:href="#DejaVuSans-2e"/>
       <use x="95.410156" xlink:href="#DejaVuSans-39"/>
      </g>
     </g>
    </g>
    <g id="ytick_7">
     <g id="text_14">
      <!-- 1.0 -->
      <g style="fill:#262626;" transform="translate(34.4275 217.070559)scale(0.22 -0.22)">
       <use xlink:href="#DejaVuSans-31"/>
       <use x="63.623047" xlink:href="#DejaVuSans-2e"/>
       <use x="95.410156" xlink:href="#DejaVuSans-30"/>
      </g>
     </g>
    </g>
    <g id="ytick_8">
     <g id="text_15">
      <!-- 1.1 -->
      <g style="fill:#262626;" transform="translate(34.4275 160.147732)scale(0.22 -0.22)">
       <use xlink:href="#DejaVuSans-31"/>
       <use x="63.623047" xlink:href="#DejaVuSans-2e"/>
       <use x="95.410156" xlink:href="#DejaVuSans-31"/>
      </g>
     </g>
    </g>
    <g id="text_16">
     <!-- $E$ -->
     <g style="fill:#262626;" transform="translate(25.43625 364.352286)rotate(-90)scale(0.24 -0.24)">
      <defs>
       <path d="M 1081 4666 
L 4031 4666 
L 3928 4134 
L 1606 4134 
L 1338 2753 
L 3566 2753 
L 3463 2222 
L 1234 2222 
L 909 531 
L 3284 531 
L 3181 0 
L 172 0 
L 1081 4666 
z
" id="DejaVuSans-Oblique-45" transform="scale(0.015625)"/>
      </defs>
      <use transform="translate(0 0.09375)" xlink:href="#DejaVuSans-Oblique-45"/>
     </g>
    </g>
   </g>
   <g id="line2d_1">
    <path clip-path="url(#p8ca2dd441a)" d="M 106.858713 535.221236 
L 107.078266 447.413057 
L 107.297819 422.478053 
L 107.517372 560.115643 
L 107.956478 399.063056 
L 108.176032 355.817303 
L 108.395585 458.42112 
L 108.615138 449.870039 
L 109.054244 234.310434 
L 109.273797 541.997449 
L 109.493351 411.703777 
L 109.712904 423.764707 
L 109.932457 417.400965 
L 110.15201 485.506705 
L 110.371563 486.212805 
L 110.591116 448.529308 
L 110.810669 448.972673 
L 111.030223 471.293861 
L 111.469329 447.45574 
L 111.908435 358.566322 
L 112.347541 468.612993 
L 112.567095 433.830379 
L 112.786648 430.163029 
L 113.006201 403.3922 
L 113.445307 475.897641 
L 113.66486 460.972757 
L 113.884414 358.285635 
L 114.103967 416.181559 
L 114.32352 328.344838 
L 114.543073 478.193428 
L 114.762626 442.483338 
L 114.982179 499.237473 
L 115.201732 494.77173 
L 115.421286 430.112487 
L 115.860392 574.879501 
L 116.079945 415.120621 
L 116.299498 506.417284 
L 116.519051 463.023388 
L 116.738605 528.935113 
L 116.958158 376.026822 
L 117.397264 494.434964 
L 117.616817 347.916603 
L 117.83637 500.078711 
L 118.055923 357.340668 
L 118.275477 400.719824 
L 118.49503 470.419757 
L 118.714583 349.161572 
L 118.934136 497.255172 
L 119.153689 418.731569 
L 119.373242 460.481355 
L 119.592796 356.693869 
L 119.812349 402.298303 
L 120.031902 517.036034 
L 120.251455 388.849748 
L 120.690561 495.694773 
L 120.910114 366.102089 
L 121.129668 535.483656 
L 121.349221 431.809874 
L 121.568774 443.457372 
L 121.788327 417.931204 
L 122.00788 429.959368 
L 122.227433 392.687118 
L 122.446987 419.191404 
L 122.66654 358.258768 
L 122.886093 443.088861 
L 123.105646 343.470637 
L 123.325199 349.486546 
L 123.544752 416.497466 
L 123.764305 315.001842 
L 123.983859 392.886817 
L 124.203412 413.241813 
L 124.422965 358.804703 
L 124.642518 487.275028 
L 124.862071 467.25199 
L 125.081624 508.944799 
L 125.301178 432.758202 
L 125.520731 423.721267 
L 125.740284 449.181969 
L 125.959837 447.440784 
L 126.398943 372.58385 
L 126.618496 442.47017 
L 126.83805 433.456689 
L 127.057603 310.791067 
L 127.277156 454.279074 
L 127.496709 357.371702 
L 127.716262 497.463031 
L 127.935815 439.441241 
L 128.155369 435.049257 
L 128.374922 241.938024 
L 128.814028 489.094632 
L 129.033581 397.889444 
L 129.253134 462.37621 
L 129.472687 434.165376 
L 129.692241 444.121894 
L 129.911794 442.215178 
L 130.131347 449.920543 
L 130.3509 364.958355 
L 130.570453 431.030161 
L 130.790006 400.452199 
L 131.00956 516.578866 
L 131.448666 293.028958 
L 131.887772 436.305614 
L 132.107325 477.407291 
L 132.326878 364.789763 
L 132.765985 430.835248 
L 132.985538 393.419532 
L 133.205091 318.125129 
L 133.424644 321.243641 
L 133.644197 370.03024 
L 133.863751 484.36179 
L 134.302857 378.922692 
L 134.52241 428.651978 
L 134.741963 451.713387 
L 134.961516 416.630686 
L 135.181069 450.349383 
L 135.400623 439.051947 
L 135.839729 499.326229 
L 136.059282 502.879043 
L 136.278835 421.070258 
L 136.498388 478.122042 
L 136.717941 341.629377 
L 137.376601 543.35192 
L 137.596154 339.03825 
L 137.815707 436.857377 
L 138.03526 404.419984 
L 138.254814 441.078143 
L 138.474367 364.460914 
L 138.69392 497.75968 
L 138.913473 463.167279 
L 139.352579 334.343316 
L 139.572132 506.199454 
L 139.791686 489.552799 
L 140.230792 416.582355 
L 140.450345 465.527486 
L 140.669898 372.915869 
L 140.889451 379.034781 
L 141.109005 506.808682 
L 141.328558 463.592642 
L 141.548111 524.068443 
L 141.767664 412.205001 
L 141.987217 464.22213 
L 142.20677 428.192835 
L 142.426323 359.777572 
L 142.645877 335.212992 
L 143.084983 454.339153 
L 143.304536 464.072179 
L 143.524089 451.916038 
L 143.743642 360.96022 
L 143.963196 407.262225 
L 144.402302 277.543497 
L 144.621855 463.373565 
L 145.060961 496.714649 
L 145.280514 397.798998 
L 145.500068 438.652474 
L 145.719621 374.919167 
L 145.939174 489.279611 
L 146.158727 381.355139 
L 146.37828 470.780165 
L 146.597833 308.239089 
L 146.817387 456.627761 
L 147.03694 355.493534 
L 147.256493 408.212077 
L 147.476046 415.902089 
L 147.695599 487.514734 
L 147.915152 369.076984 
L 148.134705 404.085758 
L 148.354259 416.361208 
L 148.573812 357.922421 
L 149.012918 420.752746 
L 149.232471 380.49462 
L 149.452024 502.671549 
L 149.671578 489.932113 
L 149.891131 342.851283 
L 150.110684 350.915922 
L 150.330237 432.270834 
L 150.54979 390.948231 
L 150.769343 466.43794 
L 150.988896 448.775141 
L 151.20845 442.281658 
L 151.428003 422.512907 
L 151.647556 456.580292 
L 152.086662 385.03836 
L 152.306215 381.317088 
L 152.525769 461.341864 
L 152.745322 424.215174 
L 152.964875 349.024841 
L 153.184428 468.516938 
L 153.403981 455.355827 
L 153.623534 396.934871 
L 153.843087 451.862151 
L 154.062641 441.047044 
L 154.282194 464.040108 
L 154.501747 331.863935 
L 154.7213 445.510723 
L 154.940853 270.132162 
L 155.160406 481.635184 
L 155.37996 449.394127 
L 155.599513 274.790507 
L 155.819066 438.615755 
L 156.038619 314.58771 
L 156.258172 389.532035 
L 156.477725 407.483968 
L 156.916832 484.382898 
L 157.136385 455.469936 
L 157.355938 347.587328 
L 157.575491 412.443097 
L 157.795044 397.97491 
L 158.234151 468.995349 
L 158.453704 324.956757 
L 158.673257 439.924829 
L 159.331916 387.224082 
L 159.551469 420.046874 
L 159.771023 304.210764 
L 159.990576 435.198123 
L 160.210129 357.394548 
L 160.429682 436.099478 
L 160.649235 343.248987 
L 160.868788 525.110975 
L 161.088342 303.599216 
L 161.307895 371.309892 
L 161.527448 369.596328 
L 161.747001 455.198003 
L 162.186107 377.668397 
L 162.40566 509.884872 
L 162.844767 344.797559 
L 163.06432 388.481403 
L 163.283873 460.884782 
L 163.503426 415.422199 
L 163.722979 514.511631 
L 163.942532 446.797664 
L 164.162086 448.407413 
L 164.381639 406.524378 
L 164.601192 433.161189 
L 164.820745 497.340347 
L 165.040298 390.785941 
L 165.259851 440.143248 
L 165.479405 410.571365 
L 165.698958 480.263611 
L 165.918511 400.77223 
L 166.357617 512.705731 
L 166.57717 487.049418 
L 166.796723 482.153867 
L 167.016277 485.357856 
L 167.23583 493.443298 
L 167.455383 375.753768 
L 167.674936 489.850677 
L 167.894489 421.150419 
L 168.333596 371.745848 
L 168.772702 488.636427 
L 168.992255 281.21033 
L 169.211808 466.648774 
L 169.431361 432.200648 
L 169.650914 371.490466 
L 169.870468 428.453191 
L 170.090021 404.877182 
L 170.309574 248.413562 
L 170.529127 503.990479 
L 170.74868 510.698399 
L 170.968233 464.855006 
L 171.187787 481.36603 
L 171.40734 346.389857 
L 171.626893 441.319464 
L 171.846446 418.433746 
L 172.065999 541.338844 
L 172.285552 314.117473 
L 172.505105 379.992102 
L 172.724659 395.762056 
L 172.944212 376.947504 
L 173.163765 445.360598 
L 173.383318 459.77325 
L 173.602871 437.774024 
L 174.041978 335.195544 
L 174.261531 418.251319 
L 174.481084 388.226424 
L 174.700637 487.971623 
L 175.139743 366.44898 
L 175.359296 451.456132 
L 175.57885 451.270938 
L 175.798403 465.405529 
L 176.017956 374.885079 
L 176.237509 480.155621 
L 176.457062 368.04875 
L 176.676615 366.044685 
L 176.896169 434.709906 
L 177.115722 370.615758 
L 177.335275 359.505937 
L 177.554828 333.49835 
L 177.774381 387.20618 
L 177.993934 369.40659 
L 178.213487 442.331361 
L 178.433041 422.307727 
L 178.652594 416.152108 
L 178.872147 299.81317 
L 179.0917 472.29282 
L 179.530806 517.129103 
L 179.75036 433.356447 
L 179.969913 487.086769 
L 180.189466 451.103431 
L 180.409019 440.006757 
L 180.628572 435.309976 
L 181.067678 492.336342 
L 181.287232 351.962797 
L 181.506785 541.026499 
L 181.726338 465.712554 
L 181.945891 441.554183 
L 182.165444 334.426617 
L 182.384997 428.333568 
L 182.604551 454.056911 
L 182.824104 403.809629 
L 183.043657 388.640864 
L 183.482763 505.716226 
L 183.702316 367.317655 
L 183.921869 366.825537 
L 184.141423 437.57431 
L 184.360976 469.194752 
L 184.580529 384.706515 
L 184.800082 454.605638 
L 185.019635 436.718507 
L 185.239188 429.872284 
L 185.458742 522.39413 
L 185.678295 381.728295 
L 185.897848 496.96382 
L 186.117401 442.539123 
L 186.556507 439.116282 
L 186.77606 472.130562 
L 187.215167 435.419046 
L 187.43472 489.302638 
L 187.654273 494.023224 
L 187.873826 351.379488 
L 188.093379 512.472665 
L 188.312932 463.074081 
L 188.532486 363.221953 
L 188.971592 430.385389 
L 189.191145 328.524189 
L 189.630251 405.332417 
L 189.849805 526.691426 
L 190.069358 519.68473 
L 190.288911 482.226757 
L 190.508464 378.661076 
L 190.94757 451.319802 
L 191.167123 395.531943 
L 191.386677 479.30125 
L 191.60623 398.849609 
L 191.825783 451.297321 
L 192.045336 399.351007 
L 192.264889 435.243227 
L 192.484442 367.810497 
L 192.923549 416.80003 
L 193.143102 499.360604 
L 193.362655 419.454171 
L 193.582208 427.631723 
L 193.801761 444.404382 
L 194.021314 530.536914 
L 194.679974 344.443427 
L 195.11908 477.665347 
L 195.338633 357.77554 
L 195.558187 442.719164 
L 195.77774 464.58784 
L 195.997293 455.258744 
L 196.216846 378.778346 
L 196.436399 550.959773 
L 196.655952 360.127449 
L 196.875505 429.644642 
L 197.095059 332.256214 
L 197.753718 516.118736 
L 197.973271 473.852979 
L 198.192824 524.433365 
L 198.412378 407.435785 
L 198.631931 455.260798 
L 198.851484 455.562642 
L 199.071037 491.156353 
L 199.29059 454.49493 
L 199.729696 356.290623 
L 199.94925 548.451191 
L 200.168803 446.175908 
L 200.607909 381.325864 
L 201.047015 526.746758 
L 201.266569 371.047025 
L 201.705675 549.773426 
L 201.925228 351.500034 
L 202.144781 462.387273 
L 202.364334 408.293072 
L 202.583887 411.18732 
L 202.803441 409.317056 
L 203.022994 329.13353 
L 203.242547 452.826709 
L 203.4621 315.296147 
L 203.681653 379.936197 
L 203.901206 297.135527 
L 204.12076 495.730346 
L 204.340313 491.41939 
L 204.559866 508.941834 
L 204.779419 415.052156 
L 204.998972 495.807554 
L 205.218525 433.158527 
L 205.438078 452.874442 
L 205.657632 433.41638 
L 205.877185 367.477702 
L 206.096738 437.429229 
L 206.316291 454.070882 
L 206.535844 461.270945 
L 206.755397 311.735184 
L 206.974951 408.597374 
L 207.194504 282.761314 
L 207.414057 500.497418 
L 207.63361 463.441438 
L 208.072716 344.437039 
L 208.292269 451.841239 
L 208.511823 458.041126 
L 208.731376 470.476496 
L 208.950929 464.129014 
L 209.170482 361.988952 
L 209.390035 462.475317 
L 209.609588 468.213475 
L 209.829142 401.922002 
L 210.048695 445.150637 
L 210.268248 394.858846 
L 210.487801 444.410323 
L 210.707354 462.557837 
L 210.926907 502.930906 
L 211.14646 481.885812 
L 211.366014 423.582154 
L 211.585567 412.357527 
L 211.80512 359.364404 
L 212.024673 451.990305 
L 212.244226 485.354365 
L 212.463779 401.116398 
L 212.683333 422.745569 
L 212.902886 476.928287 
L 213.122439 485.581767 
L 213.341992 524.304876 
L 213.561545 389.327715 
L 213.781098 474.575887 
L 214.000651 436.526876 
L 214.220205 446.940046 
L 214.439758 444.575137 
L 214.659311 380.225804 
L 215.098417 475.452925 
L 215.537523 387.011965 
L 215.757077 398.950581 
L 215.97663 341.079527 
L 216.196183 455.286888 
L 216.415736 418.293821 
L 216.635289 480.739012 
L 216.854842 452.962017 
L 217.074396 465.064464 
L 217.293949 373.506469 
L 217.513502 375.235848 
L 217.733055 468.340982 
L 217.952608 302.196726 
L 218.172161 465.211016 
L 218.391714 459.369126 
L 218.611268 337.116432 
L 218.830821 388.809397 
L 219.050374 379.620479 
L 219.269927 510.349878 
L 219.48948 472.528979 
L 219.709033 406.384541 
L 219.928587 445.368556 
L 220.14814 324.386824 
L 220.367693 454.701755 
L 220.587246 442.796383 
L 220.806799 334.795382 
L 221.026352 450.048039 
L 221.245905 368.849821 
L 221.685012 480.65196 
L 221.904565 444.521036 
L 222.124118 490.818516 
L 222.343671 348.239487 
L 222.563224 319.427258 
L 222.782778 414.499287 
L 223.002331 436.843091 
L 223.221884 358.490969 
L 223.441437 379.890739 
L 223.66099 473.967388 
L 223.880543 450.013628 
L 224.100096 504.487942 
L 224.31965 353.874928 
L 224.539203 415.023865 
L 224.758756 541.542902 
L 225.197862 418.362639 
L 225.417415 413.848693 
L 225.636969 416.49863 
L 225.856522 481.111908 
L 226.076075 407.780558 
L 226.295628 432.195703 
L 226.515181 333.490871 
L 226.734734 399.054114 
L 226.954287 503.867284 
L 227.173841 486.620072 
L 227.393394 410.82534 
L 227.612947 420.369659 
L 227.8325 447.949254 
L 228.271606 392.832152 
L 228.49116 417.853136 
L 228.710713 491.129364 
L 228.930266 488.085281 
L 229.149819 433.415096 
L 229.369372 478.975313 
L 229.588925 422.509623 
L 229.808478 438.750126 
L 230.028032 464.176755 
L 230.247585 266.633885 
L 230.467138 343.866869 
L 230.686691 287.344034 
L 230.906244 412.083186 
L 231.125797 357.111931 
L 231.345351 446.91828 
L 231.784457 351.521101 
L 232.223563 447.269273 
L 232.443116 392.786951 
L 232.662669 399.689261 
L 232.882223 450.195419 
L 233.101776 416.821799 
L 233.321329 414.361828 
L 233.540882 426.577792 
L 233.760435 349.599162 
L 233.979988 397.022457 
L 234.199542 374.979701 
L 234.419095 505.940513 
L 234.638648 349.66815 
L 234.858201 528.014547 
L 235.077754 394.063337 
L 235.297307 357.567205 
L 235.51686 489.495187 
L 235.736414 416.165229 
L 235.955967 476.502587 
L 236.17552 503.311035 
L 236.395073 492.530874 
L 236.614626 415.257181 
L 236.834179 470.971792 
L 237.053733 463.031728 
L 237.273286 370.090962 
L 237.931945 502.011541 
L 238.151498 316.239992 
L 238.590605 466.785943 
L 238.810158 512.146827 
L 239.029711 315.610192 
L 239.249264 431.049597 
L 239.468817 457.702276 
L 239.68837 405.3794 
L 239.907924 423.527681 
L 240.127477 356.089528 
L 240.34703 374.646737 
L 240.566583 443.230142 
L 240.786136 463.503379 
L 241.005689 408.882893 
L 241.225242 389.855097 
L 241.444796 432.076064 
L 241.664349 414.233358 
L 241.883902 297.447273 
L 242.323008 472.225653 
L 242.762114 441.884386 
L 242.981668 461.633239 
L 243.201221 442.437882 
L 243.420774 520.168844 
L 243.640327 329.096581 
L 243.85988 503.209914 
L 244.079433 388.367957 
L 244.298987 334.446463 
L 244.51854 461.685241 
L 244.738093 439.998989 
L 244.957646 437.746348 
L 245.177199 324.942574 
L 245.616305 441.892633 
L 245.835859 365.286691 
L 246.055412 441.974539 
L 246.274965 446.163861 
L 246.494518 463.511017 
L 246.714071 455.96746 
L 246.933624 434.245457 
L 247.153178 372.530815 
L 247.372731 379.055819 
L 247.592284 396.523209 
L 247.811837 404.449999 
L 248.03139 390.538017 
L 248.250943 278.494585 
L 248.470496 438.383346 
L 248.69005 427.672337 
L 248.909603 447.754401 
L 249.129156 443.841516 
L 249.348709 315.117878 
L 249.568262 311.33624 
L 250.007369 522.538642 
L 250.226922 457.388547 
L 250.446475 481.000317 
L 250.666028 465.206732 
L 250.885581 408.026461 
L 251.105134 406.24763 
L 251.324687 383.908129 
L 251.544241 443.905204 
L 251.763794 328.873618 
L 252.2029 493.862433 
L 252.422453 388.218567 
L 252.642006 384.807106 
L 252.86156 374.322493 
L 253.081113 493.174366 
L 253.300666 378.279425 
L 253.520219 494.103032 
L 253.959325 312.050709 
L 254.178878 452.309444 
L 254.398432 360.487484 
L 254.617985 377.558884 
L 254.837538 363.876094 
L 255.057091 428.692834 
L 255.276644 417.905159 
L 255.496197 424.375601 
L 255.715751 517.468451 
L 255.935304 424.427639 
L 256.154857 465.038378 
L 256.593963 359.074002 
L 256.813516 475.404284 
L 257.033069 459.501355 
L 257.252623 454.663631 
L 257.472176 456.638726 
L 257.691729 314.316318 
L 257.911282 290.324362 
L 258.130835 483.644101 
L 258.350388 460.164927 
L 258.569942 366.580618 
L 258.789495 403.363099 
L 259.009048 385.314807 
L 259.228601 438.982338 
L 259.448154 465.313648 
L 259.667707 323.393461 
L 259.88726 496.899821 
L 260.106814 387.569108 
L 260.326367 416.166339 
L 260.54592 470.109705 
L 260.765473 487.686748 
L 260.985026 476.70472 
L 261.204579 456.266675 
L 261.424133 400.551811 
L 261.643686 485.119095 
L 261.863239 423.317578 
L 262.082792 467.400231 
L 262.302345 464.269908 
L 262.521898 465.880236 
L 262.741451 436.402344 
L 262.961005 537.756039 
L 263.180558 498.41598 
L 263.400111 332.205257 
L 263.619664 369.26136 
L 263.839217 531.140028 
L 264.05877 444.500122 
L 264.278324 467.884631 
L 264.497877 392.927943 
L 264.936983 451.283447 
L 265.156536 379.677941 
L 265.376089 471.09163 
L 265.595642 448.168129 
L 265.815196 478.476104 
L 266.034749 416.716143 
L 266.254302 477.657778 
L 266.473855 376.932222 
L 266.693408 403.25128 
L 266.912961 412.650085 
L 267.132514 473.323582 
L 267.352068 477.443197 
L 267.571621 446.675601 
L 267.791174 433.55081 
L 268.010727 439.578489 
L 268.23028 438.804375 
L 268.449833 477.281091 
L 269.108493 348.093332 
L 269.328046 469.440052 
L 269.547599 375.972275 
L 269.767152 472.356375 
L 269.986705 510.740974 
L 270.206259 498.632054 
L 270.425812 432.085199 
L 270.645365 417.498602 
L 270.864918 417.199749 
L 271.084471 512.705601 
L 271.304024 478.868052 
L 271.523578 510.544041 
L 271.743131 392.705985 
L 271.962684 386.592434 
L 272.182237 494.112333 
L 272.621343 319.737613 
L 272.840896 493.899024 
L 273.280003 402.064821 
L 273.499556 444.738394 
L 273.719109 441.556059 
L 273.938662 401.57239 
L 274.158215 408.168918 
L 274.377769 400.302184 
L 274.597322 539.648491 
L 274.816875 327.092129 
L 275.255981 437.234619 
L 275.475534 415.667186 
L 275.695087 437.079549 
L 275.914641 389.855613 
L 276.134194 444.021185 
L 276.353747 399.819364 
L 276.5733 532.178113 
L 276.792853 295.795536 
L 277.012406 538.35645 
L 277.451513 314.569894 
L 277.671066 443.544173 
L 277.890619 438.739274 
L 278.110172 468.14248 
L 278.329725 481.879895 
L 278.549278 438.062929 
L 278.768832 370.166289 
L 278.988385 338.17087 
L 279.207938 539.571275 
L 279.427491 491.121381 
L 279.647044 537.523823 
L 279.866597 369.577626 
L 280.086151 481.454318 
L 280.305704 367.526354 
L 280.525257 429.722937 
L 280.74481 379.237787 
L 280.964363 523.202251 
L 281.183916 377.012526 
L 281.403469 403.385907 
L 281.623023 467.676316 
L 281.842576 412.775813 
L 282.281682 442.639906 
L 282.501235 364.811495 
L 282.720788 495.74708 
L 282.940342 486.44838 
L 283.159895 424.356352 
L 283.379448 407.785295 
L 283.599001 407.904487 
L 283.818554 375.676466 
L 284.038107 454.755254 
L 284.25766 443.183164 
L 284.696767 376.373177 
L 284.91632 532.55751 
L 285.135873 453.952008 
L 285.355426 469.404704 
L 285.574979 455.79256 
L 285.794533 431.342305 
L 286.014086 426.969761 
L 286.233639 464.442616 
L 286.672745 326.943568 
L 286.892298 472.169018 
L 287.111851 398.180044 
L 287.331405 408.840275 
L 287.550958 543.76563 
L 287.770511 365.432454 
L 287.990064 343.331608 
L 288.209617 404.065405 
L 288.42917 393.585619 
L 288.648724 465.870681 
L 288.868277 370.162837 
L 289.08783 417.383425 
L 289.307383 420.108102 
L 289.526936 427.903681 
L 289.746489 389.274903 
L 289.966042 483.463711 
L 290.185596 439.283224 
L 290.405149 305.579258 
L 290.844255 446.409212 
L 291.063808 380.532271 
L 291.283361 470.884775 
L 291.502915 454.021832 
L 291.722468 392.023475 
L 291.942021 510.830548 
L 292.381127 358.50467 
L 292.60068 355.807067 
L 292.820233 327.354727 
L 293.039787 405.731825 
L 293.478893 326.867894 
L 293.698446 427.290941 
L 293.917999 434.637831 
L 294.137552 406.827094 
L 294.357105 527.995939 
L 294.576659 381.240573 
L 294.796212 395.63841 
L 295.235318 463.722235 
L 295.454871 383.53224 
L 295.674424 399.731476 
L 295.893978 310.606124 
L 296.113531 408.027576 
L 296.333084 349.806441 
L 296.552637 456.902537 
L 296.991743 362.600625 
L 297.211296 365.598938 
L 297.43085 514.59603 
L 297.650403 446.93109 
L 297.869956 446.975684 
L 298.089509 500.80048 
L 298.309062 503.528029 
L 298.528615 410.98736 
L 298.748169 463.636544 
L 298.967722 390.972246 
L 299.187275 366.78549 
L 299.406828 392.212328 
L 299.626381 447.990509 
L 299.845934 545.123943 
L 300.065487 344.209195 
L 300.285041 448.513851 
L 300.504594 450.560064 
L 300.724147 517.606113 
L 300.9437 378.841474 
L 301.163253 408.181842 
L 301.382806 502.70737 
L 301.60236 354.309223 
L 301.821913 496.622601 
L 302.041466 380.43724 
L 302.261019 445.860857 
L 302.480572 293.122702 
L 302.919678 517.697383 
L 303.139232 482.393658 
L 303.358785 512.576998 
L 303.578338 422.824749 
L 303.797891 425.47646 
L 304.017444 445.031786 
L 304.236997 450.381706 
L 304.456551 446.897537 
L 304.676104 322.549999 
L 304.895657 424.074237 
L 305.11521 449.53201 
L 305.334763 456.089275 
L 305.554316 492.082491 
L 305.773869 468.189005 
L 305.993423 407.296222 
L 306.212976 466.205525 
L 306.432529 367.859617 
L 306.652082 422.233388 
L 306.871635 405.188477 
L 307.091188 416.615268 
L 307.310742 330.617211 
L 307.530295 345.139088 
L 307.749848 439.933235 
L 307.969401 325.702888 
L 308.408507 514.363864 
L 308.62806 392.088636 
L 308.847614 445.993611 
L 309.067167 410.674057 
L 309.28672 409.8497 
L 309.506273 434.76935 
L 309.725826 379.907367 
L 309.945379 464.453569 
L 310.164933 403.725288 
L 310.384486 413.845248 
L 310.604039 369.034454 
L 310.823592 467.817614 
L 311.043145 452.46524 
L 311.262698 416.465181 
L 311.482251 471.236248 
L 311.921358 203.680141 
L 312.140911 391.252845 
L 312.360464 332.369889 
L 312.580017 435.281814 
L 313.019124 404.12025 
L 313.238677 409.694405 
L 313.45823 358.632592 
L 313.677783 470.973817 
L 314.116889 434.403014 
L 314.336442 432.098478 
L 314.555996 451.943335 
L 314.775549 378.865749 
L 314.995102 456.300922 
L 315.434208 359.11682 
L 315.653761 297.101677 
L 315.873315 461.035504 
L 316.092868 347.524944 
L 316.312421 378.91505 
L 316.531974 471.242124 
L 316.751527 360.81311 
L 316.97108 406.484778 
L 317.190633 330.918848 
L 317.410187 459.270534 
L 317.62974 512.054439 
L 317.849293 518.630532 
L 318.068846 436.817189 
L 318.507952 376.286204 
L 318.727506 392.609021 
L 318.947059 523.110213 
L 319.166612 526.075207 
L 319.605718 427.031631 
L 319.825271 454.449748 
L 320.044824 373.348263 
L 320.264378 393.987773 
L 320.483931 513.157866 
L 320.703484 413.576331 
L 320.923037 397.171633 
L 321.14259 333.8246 
L 321.362143 537.292913 
L 321.581696 491.51785 
L 321.80125 500.144934 
L 322.020803 536.035555 
L 322.240356 519.381777 
L 322.459909 377.42581 
L 322.679462 395.393475 
L 322.899015 372.340709 
L 323.118569 475.792929 
L 323.338122 514.166443 
L 323.557675 424.426008 
L 323.996781 457.766821 
L 324.216334 410.323274 
L 324.435887 458.261036 
L 324.655441 474.345089 
L 324.874994 473.012433 
L 325.094547 293.408956 
L 325.3141 355.958471 
L 325.533653 367.134228 
L 325.753206 458.194923 
L 325.97276 386.605303 
L 326.192313 452.747291 
L 326.411866 475.076691 
L 326.631419 390.817073 
L 326.850972 450.613916 
L 327.070525 463.286742 
L 327.290078 441.118643 
L 327.509632 493.962543 
L 327.729185 449.93164 
L 327.948738 455.691426 
L 328.168291 428.865662 
L 328.387844 377.165694 
L 328.607397 530.820285 
L 328.826951 474.712954 
L 329.046504 501.554298 
L 329.266057 476.058449 
L 329.48561 428.641225 
L 329.705163 434.470727 
L 329.924716 291.196753 
L 330.144269 436.289766 
L 330.363823 472.48467 
L 330.583376 441.667416 
L 330.802929 355.051219 
L 331.022482 413.657006 
L 331.242035 503.754268 
L 331.461588 317.153392 
L 331.681142 386.834734 
L 331.900695 415.290068 
L 332.120248 459.655359 
L 332.339801 405.098648 
L 332.559354 494.503213 
L 332.99846 386.384585 
L 333.437567 380.193633 
L 333.65712 352.945637 
L 333.876673 425.707514 
L 334.096226 405.650261 
L 334.315779 413.530461 
L 334.535333 396.528828 
L 334.754886 409.402654 
L 334.974439 444.462946 
L 335.193992 366.098908 
L 335.413545 422.994755 
L 335.633098 321.157221 
L 335.852651 375.570473 
L 336.072205 460.034029 
L 336.291758 433.105918 
L 336.511311 332.856037 
L 336.730864 453.677042 
L 336.950417 466.159069 
L 337.16997 423.755874 
L 337.389524 427.541135 
L 337.609077 510.005263 
L 337.82863 387.346288 
L 338.048183 476.369361 
L 338.267736 287.22956 
L 338.487289 503.686891 
L 338.706842 505.038375 
L 339.365502 399.726974 
L 339.804608 439.538839 
L 340.024161 417.60908 
L 340.243715 417.178635 
L 340.463268 355.76514 
L 340.682821 461.597586 
L 340.902374 448.327517 
L 341.121927 456.656683 
L 341.34148 472.983999 
L 341.561033 381.823537 
L 341.780587 452.142259 
L 342.00014 474.921437 
L 342.219693 385.301941 
L 342.439246 411.945974 
L 342.658799 490.311319 
L 342.878352 425.049486 
L 343.097906 476.788735 
L 343.537012 384.063379 
L 343.756565 405.271588 
L 343.976118 403.692941 
L 344.195671 483.162483 
L 344.415224 488.850947 
L 344.634778 279.699866 
L 344.854331 232.834231 
L 345.293437 406.265065 
L 345.732543 466.086135 
L 345.952096 453.241199 
L 346.17165 414.093591 
L 346.391203 443.834775 
L 346.610756 392.630268 
L 346.830309 410.83593 
L 347.049862 452.559789 
L 347.269415 406.456591 
L 347.488969 458.11897 
L 347.708522 421.096061 
L 347.928075 406.461827 
L 348.147628 494.276513 
L 348.367181 387.097814 
L 348.586734 478.756716 
L 348.806287 432.261025 
L 349.025841 439.806951 
L 349.245394 359.103478 
L 349.464947 473.276128 
L 349.6845 438.921826 
L 349.904053 469.858681 
L 350.123606 355.204801 
L 350.34316 430.190192 
L 350.562713 425.251964 
L 350.782266 414.830697 
L 351.001819 487.457057 
L 351.221372 478.626544 
L 351.440925 456.649235 
L 351.660478 364.36152 
L 351.880032 354.598716 
L 352.099585 467.65335 
L 352.319138 396.063328 
L 352.538691 439.892359 
L 352.758244 426.617654 
L 352.977797 351.948332 
L 353.197351 481.796152 
L 353.416904 465.356069 
L 353.636457 436.468022 
L 353.85601 514.926597 
L 354.075563 424.471618 
L 354.295116 526.396715 
L 354.514669 445.563298 
L 354.734223 430.926967 
L 354.953776 456.38117 
L 355.173329 297.822899 
L 355.392882 408.806873 
L 355.612435 406.335932 
L 355.831988 456.256973 
L 356.051542 457.830544 
L 356.271095 364.073705 
L 356.490648 458.158904 
L 356.710201 377.93637 
L 356.929754 481.081307 
L 357.149307 518.532078 
L 357.36886 347.792388 
L 357.588414 490.888829 
L 357.807967 359.049824 
L 358.02752 464.903718 
L 358.247073 444.303953 
L 358.466626 488.119927 
L 358.686179 405.383402 
L 358.905733 391.581553 
L 359.344839 447.132583 
L 359.564392 404.64651 
L 359.783945 438.875349 
L 360.003498 377.164646 
L 360.223051 528.745384 
L 360.442605 296.020882 
L 360.662158 417.033128 
L 360.881711 444.273315 
L 361.101264 446.357639 
L 361.320817 368.780773 
L 361.54037 514.204508 
L 361.759924 414.255806 
L 362.19903 411.796609 
L 362.418583 487.643046 
L 362.638136 435.875924 
L 362.857689 423.157099 
L 363.077242 505.379221 
L 363.296796 484.344692 
L 363.516349 431.692194 
L 363.735902 478.60087 
L 363.955455 363.619348 
L 364.175008 411.439117 
L 364.394561 494.950385 
L 364.614115 478.998879 
L 364.833668 452.10416 
L 365.053221 373.343347 
L 365.492327 403.786716 
L 365.71188 340.804993 
L 365.931433 492.755354 
L 366.590093 378.643099 
L 366.809646 473.451597 
L 367.029199 481.425133 
L 367.248752 394.191391 
L 367.468306 449.628916 
L 367.907412 494.027721 
L 368.126965 494.108359 
L 368.346518 373.533253 
L 368.566071 336.574974 
L 368.785624 394.147856 
L 369.005178 314.789207 
L 369.224731 435.059613 
L 369.444284 391.192653 
L 369.663837 372.33163 
L 369.88339 444.183639 
L 370.102943 436.072349 
L 370.322497 364.934794 
L 370.54205 485.800638 
L 370.761603 468.909166 
L 370.981156 477.018821 
L 371.200709 411.46442 
L 371.420262 407.276452 
L 371.639815 395.82426 
L 371.859369 498.624671 
L 372.078922 395.809975 
L 372.298475 433.627451 
L 372.737581 370.812572 
L 372.957134 484.076523 
L 373.176687 468.619806 
L 373.396241 374.759849 
L 373.835347 479.973212 
L 374.274453 378.420212 
L 374.494006 385.759308 
L 374.71356 409.281207 
L 374.933113 387.750586 
L 375.152666 381.014726 
L 375.372219 430.916032 
L 375.591772 401.433413 
L 375.811325 512.548733 
L 376.030878 343.274073 
L 376.250432 361.976122 
L 376.469985 407.27353 
L 376.689538 427.323476 
L 376.909091 368.250873 
L 377.128644 472.593126 
L 377.348197 481.050316 
L 377.787304 388.917835 
L 378.006857 389.11593 
L 378.22641 505.14643 
L 378.445963 354.965432 
L 378.665516 344.956903 
L 379.104623 497.236867 
L 379.324176 485.339702 
L 379.763282 487.375802 
L 379.982835 499.641378 
L 380.202388 527.176639 
L 380.421942 409.411029 
L 380.641495 547.027662 
L 381.300154 370.403186 
L 381.519707 445.362478 
L 381.73926 441.991814 
L 381.958814 493.408646 
L 382.178367 407.978132 
L 382.39792 415.241578 
L 382.617473 333.865085 
L 382.837026 467.93193 
L 383.056579 510.467865 
L 383.276133 425.019611 
L 383.495686 392.412753 
L 383.715239 442.116193 
L 383.934792 423.114973 
L 384.154345 297.414727 
L 384.373898 475.120153 
L 384.593451 450.471544 
L 384.813005 314.399204 
L 385.032558 494.212882 
L 385.252111 493.538982 
L 385.471664 446.973838 
L 385.691217 425.869219 
L 385.91077 392.992316 
L 386.130324 463.716691 
L 386.349877 409.147842 
L 386.56943 419.671586 
L 386.788983 359.005336 
L 387.008536 462.303582 
L 387.228089 401.027666 
L 387.447642 280.56484 
L 387.667196 419.406665 
L 387.886749 473.868852 
L 388.106302 362.596888 
L 388.325855 461.965396 
L 388.545408 425.391889 
L 388.764961 468.560727 
L 388.984515 476.012991 
L 389.204068 383.674618 
L 389.423621 456.37931 
L 389.643174 425.808675 
L 389.862727 448.305324 
L 390.08228 456.523151 
L 390.301833 362.660292 
L 390.521387 416.716975 
L 390.74094 393.204782 
L 390.960493 483.914668 
L 391.180046 392.694383 
L 391.399599 414.388703 
L 391.838706 521.717012 
L 392.058259 388.727299 
L 392.277812 413.752894 
L 392.497365 373.490853 
L 392.716918 468.030895 
L 392.936471 365.520489 
L 393.156024 503.842178 
L 393.375578 398.819556 
L 393.595131 376.457994 
L 393.814684 382.701115 
L 394.034237 400.355083 
L 394.25379 439.245095 
L 394.473343 443.872707 
L 394.692897 517.815788 
L 394.91245 458.236801 
L 395.351556 511.190796 
L 395.571109 346.738855 
L 395.790662 484.997844 
L 396.229769 323.719925 
L 396.449322 350.739054 
L 396.668875 420.754297 
L 396.888428 309.124166 
L 397.327534 422.026741 
L 397.547087 464.559855 
L 397.766641 483.080627 
L 397.986194 406.37852 
L 398.4253 441.674178 
L 398.864406 394.82321 
L 399.303513 430.18057 
L 399.523066 369.580479 
L 399.742619 400.030534 
L 399.962172 409.915376 
L 400.181725 467.883385 
L 400.401278 438.257951 
L 400.620832 438.720036 
L 400.840385 431.743567 
L 401.059938 470.154151 
L 401.279491 231.776274 
L 401.499044 287.519145 
L 401.718597 438.928122 
L 401.938151 405.514098 
L 402.157704 426.385276 
L 402.377257 460.727007 
L 402.816363 254.017322 
L 403.035916 465.032625 
L 403.255469 456.496334 
L 403.475023 456.507734 
L 403.694576 455.458486 
L 403.914129 404.282303 
L 404.353235 466.28735 
L 404.572788 407.572533 
L 404.792342 387.898715 
L 405.011895 379.595992 
L 405.231448 442.787168 
L 405.451001 378.988302 
L 405.670554 490.175109 
L 405.890107 392.673097 
L 406.10966 445.460166 
L 406.329214 375.527288 
L 406.548767 536.883923 
L 406.987873 347.749809 
L 407.207426 393.767681 
L 407.426979 482.089007 
L 407.646533 513.714935 
L 407.866086 369.115292 
L 408.085639 434.12423 
L 408.305192 390.506846 
L 408.524745 491.093748 
L 408.744298 378.690993 
L 408.963851 512.947549 
L 409.402958 382.306784 
L 409.622511 384.318045 
L 409.842064 506.542816 
L 410.061617 441.686036 
L 410.28117 271.561854 
L 410.500724 397.771432 
L 410.720277 186.227861 
L 410.93983 457.407729 
L 411.159383 449.060032 
L 411.378936 373.465931 
L 411.818042 453.309231 
L 412.037596 398.011456 
L 412.257149 440.421518 
L 412.476702 312.904132 
L 412.696255 460.589767 
L 413.135361 364.614927 
L 413.354915 410.177788 
L 413.574468 390.121112 
L 413.794021 299.565199 
L 414.013574 430.577792 
L 414.672233 495.098782 
L 414.891787 451.295986 
L 415.11134 450.025878 
L 415.330893 482.578773 
L 415.550446 434.851113 
L 415.769999 450.060731 
L 415.989552 401.688579 
L 416.209106 434.465164 
L 416.428659 415.501142 
L 416.648212 460.832981 
L 416.867765 403.212013 
L 417.087318 494.520674 
L 417.306871 468.110948 
L 417.526424 463.145148 
L 417.745978 438.695189 
L 417.965531 473.975021 
L 418.185084 238.344267 
L 418.404637 315.231058 
L 418.62419 469.882081 
L 418.843743 458.141846 
L 419.063297 495.812006 
L 419.28285 324.836253 
L 419.502403 501.527107 
L 419.721956 392.362607 
L 419.941509 453.854834 
L 420.161062 395.80679 
L 420.380615 410.669688 
L 420.819722 473.482867 
L 421.039275 407.091004 
L 421.258828 409.147974 
L 421.478381 440.928892 
L 421.697934 355.458998 
L 421.917488 389.026804 
L 422.137041 518.675415 
L 422.356594 438.882189 
L 422.576147 432.393238 
L 422.7957 486.291889 
L 423.015253 472.221037 
L 423.234806 484.821611 
L 423.673913 372.564793 
L 423.893466 421.832509 
L 424.113019 362.792588 
L 424.332572 453.417221 
L 424.552125 420.416483 
L 424.771678 364.868719 
L 424.991232 385.169116 
L 425.210785 343.214161 
L 425.430338 424.622201 
L 425.649891 409.556766 
L 425.869444 459.367839 
L 426.088997 344.365446 
L 426.308551 507.977636 
L 426.528104 482.0683 
L 426.747657 301.463604 
L 426.96721 416.179238 
L 427.406316 476.872413 
L 427.625869 371.887412 
L 427.845423 405.058828 
L 428.064976 459.375124 
L 428.284529 480.815821 
L 428.504082 326.469404 
L 428.723635 499.756903 
L 428.943188 367.242263 
L 429.162742 336.355322 
L 429.601848 454.285302 
L 429.821401 406.647752 
L 430.040954 475.065128 
L 430.260507 458.409456 
L 430.48006 361.661057 
L 430.699614 454.910302 
L 430.919167 452.598621 
L 431.13872 487.381285 
L 431.577826 365.801913 
L 431.797379 429.604857 
L 432.016933 311.639351 
L 432.236486 499.5349 
L 432.456039 437.283892 
L 432.675592 521.025672 
L 432.895145 502.617944 
L 433.114698 504.544464 
L 433.334251 446.698899 
L 433.553805 351.331454 
L 433.773358 371.21589 
L 433.992911 131.956182 
L 434.212464 469.464896 
L 434.432017 445.685333 
L 434.65157 382.722982 
L 434.871124 428.821708 
L 435.090677 394.345872 
L 435.31023 471.819971 
L 435.529783 419.808212 
L 435.749336 419.866595 
L 435.968889 450.098245 
L 436.188442 497.815538 
L 436.407996 440.049232 
L 436.847102 475.988113 
L 437.066655 404.81347 
L 437.286208 495.995568 
L 437.505761 489.939476 
L 437.725315 302.051827 
L 437.944868 485.829419 
L 438.164421 472.52961 
L 438.383974 419.899725 
L 438.603527 432.460005 
L 438.82308 311.822937 
L 439.042633 407.347257 
L 439.262187 382.380215 
L 439.48174 493.300717 
L 439.701293 389.621831 
L 439.920846 389.312128 
L 440.140399 485.463278 
L 440.359952 440.602504 
L 440.579506 347.914061 
L 440.799059 433.734517 
L 441.018612 396.233427 
L 441.238165 451.920949 
L 441.457718 427.265864 
L 441.677271 388.745143 
L 441.896824 500.611297 
L 442.116378 404.451046 
L 442.335931 393.638921 
L 442.555484 469.749894 
L 442.775037 504.948834 
L 442.99459 395.452472 
L 443.214143 383.127528 
L 443.433697 462.544542 
L 443.65325 364.901941 
L 443.872803 353.941088 
L 444.092356 516.879636 
L 444.311909 402.16955 
L 444.531462 444.411635 
L 444.751015 424.296825 
L 444.970569 439.424181 
L 445.190122 348.023224 
L 445.409675 381.25243 
L 445.629228 388.413396 
L 445.848781 434.018242 
L 446.068334 446.317324 
L 446.287888 329.120496 
L 446.507441 404.443633 
L 446.726994 437.134476 
L 446.946547 374.347005 
L 447.385653 425.28332 
L 447.605206 416.402552 
L 447.82476 501.110758 
L 448.263866 352.159361 
L 448.483419 348.016354 
L 448.702972 436.709827 
L 448.922525 427.203529 
L 449.142079 398.836205 
L 449.361632 485.167025 
L 449.581185 499.784919 
L 449.800738 472.871007 
L 450.020291 382.114062 
L 450.239844 399.040328 
L 450.459397 379.342598 
L 450.678951 454.044503 
L 450.898504 439.804313 
L 451.118057 464.669426 
L 451.557163 285.942406 
L 451.776716 498.313702 
L 451.996269 507.45881 
L 452.215823 310.918177 
L 452.435376 358.619175 
L 452.654929 481.962155 
L 452.874482 387.939398 
L 453.094035 401.686328 
L 453.313588 536.553983 
L 453.752695 324.564718 
L 453.972248 504.572134 
L 454.191801 372.946982 
L 454.85046 431.923234 
L 455.070014 437.539509 
L 455.289567 434.475949 
L 455.50912 306.808566 
L 455.728673 315.50016 
L 455.948226 440.171305 
L 456.167779 421.90636 
L 456.387333 364.840835 
L 456.606886 499.616072 
L 456.826439 484.59521 
L 457.045992 321.838556 
L 457.265545 458.167368 
L 457.485098 454.485593 
L 457.704651 477.801229 
L 457.924205 469.556226 
L 458.143758 381.119867 
L 458.363311 398.365789 
L 458.802417 495.489122 
L 459.02197 424.409249 
L 459.241524 428.012813 
L 459.461077 439.822488 
L 459.68063 362.708126 
L 460.119736 460.443462 
L 460.339289 427.753262 
L 460.778396 247.627832 
L 460.997949 325.37958 
L 461.217502 515.85015 
L 461.437055 463.845546 
L 461.656608 449.464582 
L 461.876161 324.334909 
L 462.095715 267.043575 
L 462.315268 474.718634 
L 462.534821 397.450042 
L 462.754374 425.672072 
L 462.973927 392.078803 
L 463.19348 410.818802 
L 463.413033 352.972695 
L 463.632587 446.46931 
L 463.85214 444.279549 
L 464.071693 460.924312 
L 464.291246 389.34621 
L 464.510799 427.660815 
L 464.730352 395.608775 
L 464.949906 446.477809 
L 465.169459 448.800509 
L 465.389012 522.829346 
L 465.608565 253.608427 
L 465.828118 468.312946 
L 466.047671 429.844467 
L 466.267224 427.431958 
L 466.486778 400.130843 
L 466.706331 411.999766 
L 466.925884 491.259215 
L 467.145437 427.815108 
L 467.36499 193.989708 
L 467.584543 414.968128 
L 467.804097 472.01338 
L 468.02365 369.083664 
L 468.243203 478.602054 
L 468.682309 459.52216 
L 468.901862 423.456779 
L 469.121415 450.085134 
L 469.340969 445.92869 
L 469.560522 437.993766 
L 469.780075 413.76758 
L 469.999628 470.935392 
L 470.438734 392.633081 
L 470.658288 427.760991 
L 470.877841 510.798065 
L 471.097394 401.917015 
L 471.316947 434.855017 
L 471.5365 392.213856 
L 471.756053 473.164533 
L 472.19516 302.313032 
L 472.414713 404.693435 
L 472.634266 447.442693 
L 472.853819 383.984628 
L 473.073372 376.830314 
L 473.292925 530.916474 
L 473.512479 436.25855 
L 473.732032 438.145452 
L 473.951585 393.455875 
L 474.171138 432.316452 
L 474.610244 386.26897 
L 474.829797 418.401158 
L 475.268904 405.135418 
L 475.488457 242.332159 
L 475.927563 513.993059 
L 476.147116 389.715588 
L 476.366669 479.147856 
L 476.586223 460.720114 
L 476.805776 463.705406 
L 477.025329 506.530108 
L 477.244882 366.133022 
L 477.464435 396.962401 
L 477.683988 470.746925 
L 478.123095 443.068846 
L 478.342648 332.806058 
L 478.562201 488.586477 
L 478.781754 383.647469 
L 479.001307 425.577174 
L 479.22086 354.70515 
L 479.440414 474.235623 
L 479.659967 469.681225 
L 479.87952 389.957217 
L 480.099073 516.295481 
L 480.318626 333.039773 
L 480.538179 397.228169 
L 480.757733 310.306848 
L 480.977286 350.513798 
L 481.196839 165.157875 
L 481.416392 371.649333 
L 481.635945 351.509463 
L 481.855498 440.195813 
L 482.075051 322.073014 
L 482.294605 440.598328 
L 482.514158 380.260594 
L 482.733711 410.314456 
L 482.953264 501.644795 
L 483.172817 439.985725 
L 483.39237 413.856927 
L 483.611924 355.79748 
L 483.831477 462.810128 
L 484.05103 319.31101 
L 484.270583 436.47309 
L 484.490136 477.35132 
L 484.709689 468.227144 
L 484.929242 402.972296 
L 485.148796 395.040112 
L 485.368349 331.083398 
L 485.587902 423.911989 
L 485.807455 437.229655 
L 486.027008 481.110765 
L 486.246561 483.572681 
L 486.466115 439.618388 
L 486.685668 500.491083 
L 486.905221 451.275731 
L 487.344327 471.614228 
L 487.56388 500.614401 
L 488.002987 286.655398 
L 488.22254 428.163406 
L 488.442093 419.540116 
L 488.661646 377.813933 
L 488.881199 408.145509 
L 489.100752 410.404063 
L 489.320306 487.356947 
L 489.539859 434.799442 
L 489.759412 315.358231 
L 489.978965 484.314103 
L 490.198518 424.377948 
L 490.418071 424.935024 
L 490.637624 403.799043 
L 490.857178 425.985804 
L 491.076731 432.722711 
L 491.296284 488.833025 
L 491.515837 364.953471 
L 491.73539 490.150669 
L 491.954943 297.669504 
L 492.174497 484.999831 
L 492.39405 316.456393 
L 492.613603 435.098408 
L 492.833156 422.351227 
L 493.052709 420.182171 
L 493.491815 531.05711 
L 494.150475 414.662132 
L 494.370028 473.5547 
L 494.809134 371.836885 
L 495.028688 461.439112 
L 495.248241 377.296519 
L 495.467794 423.371517 
L 495.687347 321.061719 
L 495.9069 471.117414 
L 496.126453 434.762767 
L 496.346006 464.391998 
L 496.56556 514.88489 
L 496.785113 456.063068 
L 497.004666 451.851525 
L 497.663325 506.60628 
L 498.102432 393.103112 
L 498.321985 468.352352 
L 498.541538 381.097519 
L 498.761091 394.571969 
L 499.200197 508.307604 
L 499.419751 331.14106 
L 499.639304 299.335224 
L 499.858857 460.196322 
L 500.07841 452.358028 
L 500.297963 391.105835 
L 500.517516 420.140513 
L 500.73707 495.594938 
L 500.956623 346.189998 
L 501.176176 442.006352 
L 501.395729 459.432737 
L 501.615282 298.322084 
L 501.834835 307.600843 
L 502.054388 449.713586 
L 502.273942 466.465835 
L 502.493495 463.964896 
L 502.713048 469.218884 
L 502.932601 456.574799 
L 503.371707 397.953546 
L 503.59126 457.23339 
L 503.810814 415.092934 
L 504.030367 431.95095 
L 504.24992 418.240671 
L 504.469473 516.242341 
L 504.908579 385.813806 
L 505.128133 469.828151 
L 505.347686 450.149435 
L 505.567239 363.857533 
L 505.786792 412.398135 
L 506.006345 415.657268 
L 506.225898 346.491858 
L 506.445451 457.060127 
L 506.665005 406.006306 
L 506.884558 417.584723 
L 507.104111 414.483521 
L 507.323664 470.797319 
L 507.543217 335.872815 
L 507.76277 350.828546 
L 507.982324 358.084297 
L 508.201877 515.550933 
L 508.640983 369.323878 
L 508.860536 442.623486 
L 509.080089 403.816518 
L 509.299642 465.596837 
L 509.519196 442.568752 
L 509.738749 312.677698 
L 509.958302 535.275363 
L 510.177855 466.379118 
L 510.397408 320.342084 
L 510.616961 334.073868 
L 510.836515 454.095728 
L 511.056068 406.708083 
L 511.275621 499.859536 
L 511.495174 396.803934 
L 511.714727 451.136678 
L 511.93428 465.417905 
L 512.153833 381.753931 
L 512.373387 483.864744 
L 512.59294 494.86849 
L 512.812493 354.683023 
L 513.251599 467.780587 
L 513.690706 353.510641 
L 514.129812 442.913258 
L 514.568918 396.355154 
L 514.788471 464.03481 
L 515.008024 455.56852 
L 515.227578 271.994091 
L 515.447131 536.351297 
L 515.666684 504.768231 
L 515.886237 436.372408 
L 516.10579 277.941797 
L 516.325343 429.638094 
L 516.544897 499.887582 
L 516.76445 400.845029 
L 516.984003 375.183556 
L 517.203556 450.717969 
L 517.423109 412.96534 
L 517.642662 318.223753 
L 517.862215 458.684135 
L 518.081769 359.960503 
L 518.301322 463.898919 
L 518.520875 473.986736 
L 518.740428 336.444873 
L 518.959981 466.8413 
L 519.179534 477.84318 
L 519.399088 383.005475 
L 519.618641 340.216789 
L 519.838194 345.914326 
L 520.057747 389.223038 
L 520.2773 359.977119 
L 520.496853 468.863995 
L 520.93596 393.746707 
L 521.155513 405.916677 
L 521.375066 498.735013 
L 521.594619 481.694601 
L 521.814172 495.197534 
L 522.033725 480.377857 
L 522.253279 441.285591 
L 522.472832 470.706553 
L 522.692385 446.989801 
L 522.911938 384.465903 
L 523.131491 397.577263 
L 523.570597 465.880824 
L 523.790151 322.340055 
L 524.009704 357.483486 
L 524.229257 432.152546 
L 524.44881 398.377813 
L 524.668363 397.453994 
L 524.887916 409.523159 
L 525.10747 461.524491 
L 525.327023 444.668315 
L 525.546576 375.200562 
L 525.766129 489.167261 
L 525.985682 475.714883 
L 526.205235 348.350425 
L 526.424788 443.74982 
L 526.644342 397.706337 
L 526.863895 453.604581 
L 527.083448 469.323476 
L 527.522554 432.182656 
L 527.742107 328.879625 
L 527.96166 349.246528 
L 528.181214 437.482802 
L 528.400767 441.916028 
L 528.62032 457.699371 
L 528.839873 349.484852 
L 529.278979 469.304046 
L 529.498533 323.041707 
L 529.718086 381.321711 
L 529.937639 337.590552 
L 530.157192 349.993 
L 530.376745 420.846582 
L 530.815851 461.300664 
L 531.035405 434.578274 
L 531.254958 438.982571 
L 531.474511 504.510625 
L 531.694064 378.836949 
L 531.913617 356.245398 
L 532.13317 346.151003 
L 532.352724 346.859068 
L 532.572277 517.196518 
L 532.79183 378.667787 
L 533.011383 503.893004 
L 533.230936 439.030783 
L 533.450489 446.909888 
L 533.670042 328.534199 
L 533.889596 461.710889 
L 534.109149 360.756403 
L 534.328702 392.71918 
L 534.548255 358.814472 
L 534.767808 376.932961 
L 534.987361 378.362591 
L 535.206915 527.510408 
L 535.426468 359.382679 
L 535.646021 390.592895 
L 535.865574 265.919472 
L 536.085127 428.114609 
L 536.30468 460.915476 
L 536.524233 434.958693 
L 536.743787 376.482641 
L 537.182893 490.471534 
L 537.402446 482.849953 
L 537.621999 399.593527 
L 537.841552 373.528923 
L 538.061106 437.09391 
L 538.280659 431.364036 
L 538.500212 408.913998 
L 538.719765 550.396254 
L 539.158871 429.011882 
L 539.378424 408.722569 
L 539.597978 459.055768 
L 539.817531 395.131967 
L 540.037084 414.119198 
L 540.256637 349.80436 
L 540.47619 482.514438 
L 540.695743 430.400179 
L 540.915297 480.617555 
L 541.13485 407.083951 
L 541.354403 457.62928 
L 541.573956 368.947512 
L 541.793509 527.974232 
L 542.013062 431.741109 
L 542.232615 444.979628 
L 542.452169 412.615985 
L 542.671722 399.458186 
L 542.891275 467.580267 
L 543.110828 406.623022 
L 543.330381 416.078979 
L 543.549934 470.45462 
L 543.769488 370.253722 
L 543.989041 420.939051 
L 544.428147 442.755817 
L 544.6477 505.12274 
L 544.867253 404.047298 
L 545.086806 514.841936 
L 545.30636 321.014159 
L 545.525913 581.38839 
L 545.745466 373.209996 
L 545.745466 373.209996 
" style="fill:none;stroke:#96c69a;stroke-linecap:round;stroke-width:3;"/>
   </g>
   <g id="line2d_2"/>
   <g id="patch_3">
    <path d="M 84.914375 603.86 
L 84.914375 109.484571 
" style="fill:none;stroke:#262626;stroke-linecap:square;stroke-linejoin:miter;stroke-width:2.5;"/>
   </g>
   <g id="patch_4">
    <path d="M 84.914375 603.86 
L 567.689804 603.86 
" style="fill:none;stroke:#262626;stroke-linecap:square;stroke-linejoin:miter;stroke-width:2.5;"/>
   </g>
   <g id="legend_1">
    <g id="patch_5">
     <path d="M 514.774179 598.86 
L 560.689804 598.86 
Q 562.689804 598.86 562.689804 596.86 
L 562.689804 554.954375 
Q 562.689804 552.954375 560.689804 552.954375 
L 514.774179 552.954375 
Q 512.774179 552.954375 512.774179 554.954375 
L 512.774179 596.86 
Q 512.774179 598.86 514.774179 598.86 
z
" style="fill:#ffffff;opacity:0.8;stroke:#cccccc;stroke-linejoin:miter;stroke-width:2;"/>
    </g>
    <g id="text_17">
     <!-- $n_\tau$ -->
     <g style="fill:#262626;" transform="translate(524.651991 575.190625)scale(0.24 -0.24)">
      <defs>
       <path d="M 3566 2113 
L 3156 0 
L 2578 0 
L 2988 2091 
Q 3016 2238 3031 2350 
Q 3047 2463 3047 2528 
Q 3047 2791 2881 2937 
Q 2716 3084 2419 3084 
Q 1956 3084 1622 2776 
Q 1288 2469 1184 1941 
L 800 0 
L 225 0 
L 903 3500 
L 1478 3500 
L 1363 2950 
Q 1603 3253 1940 3418 
Q 2278 3584 2650 3584 
Q 3113 3584 3367 3334 
Q 3622 3084 3622 2631 
Q 3622 2519 3608 2391 
Q 3594 2263 3566 2113 
z
" id="DejaVuSans-Oblique-6e" transform="scale(0.015625)"/>
       <path d="M 2103 638 
Q 2188 488 2525 488 
L 2800 488 
L 2706 0 
L 2363 0 
Q 1800 0 1600 300 
Q 1403 606 1534 1269 
L 1856 2925 
L 541 2925 
L 653 3500 
L 3881 3500 
L 3769 2925 
L 2444 2925 
L 2113 1234 
Q 2025 781 2103 638 
z
" id="DejaVuSans-Oblique-3c4" transform="scale(0.015625)"/>
      </defs>
      <use xlink:href="#DejaVuSans-Oblique-6e"/>
      <use transform="translate(63.378906 -16.40625)scale(0.7)" xlink:href="#DejaVuSans-Oblique-3c4"/>
     </g>
    </g>
    <g id="line2d_3">
     <path d="M 516.774179 589.280313 
L 536.774179 589.280313 
" style="fill:none;stroke:#96c69a;stroke-linecap:round;stroke-width:3;"/>
    </g>
    <g id="line2d_4"/>
    <g id="text_18">
     <!-- 20 -->
     <g style="fill:#262626;" transform="translate(544.774179 592.780313)scale(0.1 -0.1)">
      <defs>
       <path d="M 1844 884 
L 3897 884 
L 3897 0 
L 506 0 
L 506 884 
L 2209 2388 
Q 2438 2594 2547 2791 
Q 2656 2988 2656 3200 
Q 2656 3528 2436 3728 
Q 2216 3928 1850 3928 
Q 1569 3928 1234 3808 
Q 900 3688 519 3450 
L 519 4475 
Q 925 4609 1322 4679 
Q 1719 4750 2100 4750 
Q 2938 4750 3402 4381 
Q 3866 4013 3866 3353 
Q 3866 2972 3669 2642 
Q 3472 2313 2841 1759 
L 1844 884 
z
" id="DejaVuSans-Bold-32" transform="scale(0.015625)"/>
       <path d="M 2944 2338 
Q 2944 3213 2780 3570 
Q 2616 3928 2228 3928 
Q 1841 3928 1675 3570 
Q 1509 3213 1509 2338 
Q 1509 1453 1675 1090 
Q 1841 728 2228 728 
Q 2613 728 2778 1090 
Q 2944 1453 2944 2338 
z
M 4147 2328 
Q 4147 1169 3647 539 
Q 3147 -91 2228 -91 
Q 1306 -91 806 539 
Q 306 1169 306 2328 
Q 306 3491 806 4120 
Q 1306 4750 2228 4750 
Q 3147 4750 3647 4120 
Q 4147 3491 4147 2328 
z
" id="DejaVuSans-Bold-30" transform="scale(0.015625)"/>
      </defs>
      <use xlink:href="#DejaVuSans-Bold-32"/>
      <use x="69.580078" xlink:href="#DejaVuSans-Bold-30"/>
     </g>
    </g>
   </g>
  </g>
  <g id="axes_2">
   <g id="patch_6">
    <path d="M 84.914375 92.437143 
L 567.689804 92.437143 
L 567.689804 7.2 
L 84.914375 7.2 
z
" style="fill:none;"/>
   </g>
   <g id="matplotlib.axis_3">
    <g id="xtick_7"/>
    <g id="xtick_8"/>
    <g id="xtick_9"/>
    <g id="xtick_10"/>
    <g id="xtick_11"/>
    <g id="xtick_12"/>
   </g>
   <g id="matplotlib.axis_4">
    <g id="ytick_9">
     <g id="text_19">
      <!-- 0 -->
      <g style="fill:#262626;" transform="translate(55.416875 100.795424)scale(0.22 -0.22)">
       <use xlink:href="#DejaVuSans-30"/>
      </g>
     </g>
    </g>
    <g id="ytick_10">
     <g id="text_20">
      <!-- 100 -->
      <g style="fill:#262626;" transform="translate(27.421875 48.082287)scale(0.22 -0.22)">
       <use xlink:href="#DejaVuSans-31"/>
       <use x="63.623047" xlink:href="#DejaVuSans-30"/>
       <use x="127.246094" xlink:href="#DejaVuSans-30"/>
      </g>
     </g>
    </g>
   </g>
   <g id="patch_7">
    <path clip-path="url(#pbb69a32bbd)" d="M 106.858713 92.437143 
L 140.619232 92.437143 
L 140.619232 11.258912 
L 106.858713 11.258912 
z
" style="fill:#96c69a;fill-opacity:0.5;stroke:#ffffff;stroke-linejoin:miter;stroke-width:2;"/>
   </g>
   <g id="patch_8">
    <path clip-path="url(#pbb69a32bbd)" d="M 140.619232 92.437143 
L 174.379752 92.437143 
L 174.379752 11.258912 
L 140.619232 11.258912 
z
" style="fill:#96c69a;fill-opacity:0.5;stroke:#ffffff;stroke-linejoin:miter;stroke-width:2;"/>
   </g>
   <g id="patch_9">
    <path clip-path="url(#pbb69a32bbd)" d="M 174.379752 92.437143 
L 208.140271 92.437143 
L 208.140271 11.258912 
L 174.379752 11.258912 
z
" style="fill:#96c69a;fill-opacity:0.5;stroke:#ffffff;stroke-linejoin:miter;stroke-width:2;"/>
   </g>
   <g id="patch_10">
    <path clip-path="url(#pbb69a32bbd)" d="M 208.140271 92.437143 
L 241.900791 92.437143 
L 241.900791 11.258912 
L 208.140271 11.258912 
z
" style="fill:#96c69a;fill-opacity:0.5;stroke:#ffffff;stroke-linejoin:miter;stroke-width:2;"/>
   </g>
   <g id="patch_11">
    <path clip-path="url(#pbb69a32bbd)" d="M 241.900791 92.437143 
L 275.66131 92.437143 
L 275.66131 11.786043 
L 241.900791 11.786043 
z
" style="fill:#96c69a;fill-opacity:0.5;stroke:#ffffff;stroke-linejoin:miter;stroke-width:2;"/>
   </g>
   <g id="patch_12">
    <path clip-path="url(#pbb69a32bbd)" d="M 275.66131 92.437143 
L 309.42183 92.437143 
L 309.42183 11.258912 
L 275.66131 11.258912 
z
" style="fill:#96c69a;fill-opacity:0.5;stroke:#ffffff;stroke-linejoin:miter;stroke-width:2;"/>
   </g>
   <g id="patch_13">
    <path clip-path="url(#pbb69a32bbd)" d="M 309.42183 92.437143 
L 343.182349 92.437143 
L 343.182349 11.258912 
L 309.42183 11.258912 
z
" style="fill:#96c69a;fill-opacity:0.5;stroke:#ffffff;stroke-linejoin:miter;stroke-width:2;"/>
   </g>
   <g id="patch_14">
    <path clip-path="url(#pbb69a32bbd)" d="M 343.182349 92.437143 
L 376.942869 92.437143 
L 376.942869 11.258912 
L 343.182349 11.258912 
z
" style="fill:#96c69a;fill-opacity:0.5;stroke:#ffffff;stroke-linejoin:miter;stroke-width:2;"/>
   </g>
   <g id="patch_15">
    <path clip-path="url(#pbb69a32bbd)" d="M 376.942869 92.437143 
L 410.703388 92.437143 
L 410.703388 11.786043 
L 376.942869 11.786043 
z
" style="fill:#96c69a;fill-opacity:0.5;stroke:#ffffff;stroke-linejoin:miter;stroke-width:2;"/>
   </g>
   <g id="patch_16">
    <path clip-path="url(#pbb69a32bbd)" d="M 410.703388 92.437143 
L 444.463907 92.437143 
L 444.463907 11.258912 
L 410.703388 11.258912 
z
" style="fill:#96c69a;fill-opacity:0.5;stroke:#ffffff;stroke-linejoin:miter;stroke-width:2;"/>
   </g>
   <g id="patch_17">
    <path clip-path="url(#pbb69a32bbd)" d="M 444.463907 92.437143 
L 478.224427 92.437143 
L 478.224427 11.258912 
L 444.463907 11.258912 
z
" style="fill:#96c69a;fill-opacity:0.5;stroke:#ffffff;stroke-linejoin:miter;stroke-width:2;"/>
   </g>
   <g id="patch_18">
    <path clip-path="url(#pbb69a32bbd)" d="M 478.224427 92.437143 
L 511.984946 92.437143 
L 511.984946 11.258912 
L 478.224427 11.258912 
z
" style="fill:#96c69a;fill-opacity:0.5;stroke:#ffffff;stroke-linejoin:miter;stroke-width:2;"/>
   </g>
   <g id="patch_19">
    <path clip-path="url(#pbb69a32bbd)" d="M 511.984946 92.437143 
L 545.745466 92.437143 
L 545.745466 11.258912 
L 511.984946 11.258912 
z
" style="fill:#96c69a;fill-opacity:0.5;stroke:#ffffff;stroke-linejoin:miter;stroke-width:2;"/>
   </g>
   <g id="patch_20">
    <path d="M 84.914375 92.437143 
L 84.914375 7.2 
" style="fill:none;stroke:#262626;stroke-linecap:square;stroke-linejoin:miter;stroke-width:2.5;"/>
   </g>
   <g id="patch_21">
    <path d="M 84.914375 92.437143 
L 567.689804 92.437143 
" style="fill:none;stroke:#262626;stroke-linecap:square;stroke-linejoin:miter;stroke-width:2.5;"/>
   </g>
  </g>
  <g id="axes_3">
   <g id="patch_22">
    <path d="M 584.337232 603.86 
L 667.574375 603.86 
L 667.574375 109.484571 
L 584.337232 109.484571 
z
" style="fill:none;"/>
   </g>
   <g id="matplotlib.axis_5">
    <g id="xtick_13">
     <g id="text_21">
      <!-- 0 -->
      <g style="fill:#262626;" transform="translate(577.338482 636.076563)scale(0.22 -0.22)">
       <use xlink:href="#DejaVuSans-30"/>
      </g>
     </g>
    </g>
    <g id="xtick_14">
     <g id="text_22">
      <!-- 100 -->
      <g style="fill:#262626;" transform="translate(607.876639 636.076563)scale(0.22 -0.22)">
       <use xlink:href="#DejaVuSans-31"/>
       <use x="63.623047" xlink:href="#DejaVuSans-30"/>
       <use x="127.246094" xlink:href="#DejaVuSans-30"/>
      </g>
     </g>
    </g>
   </g>
   <g id="matplotlib.axis_6">
    <g id="ytick_11"/>
    <g id="ytick_12"/>
    <g id="ytick_13"/>
    <g id="ytick_14"/>
    <g id="ytick_15"/>
    <g id="ytick_16"/>
    <g id="ytick_17"/>
    <g id="ytick_18"/>
   </g>
   <g id="patch_23">
    <path clip-path="url(#paca34c9bef)" d="M 584.337232 581.38839 
L 585.227945 581.38839 
L 585.227945 569.561226 
L 584.337232 569.561226 
z
" style="fill:#96c69a;fill-opacity:0.5;stroke:#ffffff;stroke-linejoin:miter;stroke-width:1.182716;"/>
   </g>
   <g id="patch_24">
    <path clip-path="url(#paca34c9bef)" d="M 584.337232 569.561226 
L 584.782589 569.561226 
L 584.782589 557.734063 
L 584.337232 557.734063 
z
" style="fill:#96c69a;fill-opacity:0.5;stroke:#ffffff;stroke-linejoin:miter;stroke-width:1.182716;"/>
   </g>
   <g id="patch_25">
    <path clip-path="url(#paca34c9bef)" d="M 584.337232 557.734063 
L 586.564015 557.734063 
L 586.564015 545.9069 
L 584.337232 545.9069 
z
" style="fill:#96c69a;fill-opacity:0.5;stroke:#ffffff;stroke-linejoin:miter;stroke-width:1.182716;"/>
   </g>
   <g id="patch_26">
    <path clip-path="url(#paca34c9bef)" d="M 584.337232 545.9069 
L 593.244364 545.9069 
L 593.244364 534.079736 
L 584.337232 534.079736 
z
" style="fill:#96c69a;fill-opacity:0.5;stroke:#ffffff;stroke-linejoin:miter;stroke-width:1.182716;"/>
   </g>
   <g id="patch_27">
    <path clip-path="url(#paca34c9bef)" d="M 584.337232 534.079736 
L 596.36186 534.079736 
L 596.36186 522.252573 
L 584.337232 522.252573 
z
" style="fill:#96c69a;fill-opacity:0.5;stroke:#ffffff;stroke-linejoin:miter;stroke-width:1.182716;"/>
   </g>
   <g id="patch_28">
    <path clip-path="url(#paca34c9bef)" d="M 584.337232 522.252573 
L 605.714347 522.252573 
L 605.714347 510.425409 
L 584.337232 510.425409 
z
" style="fill:#96c69a;fill-opacity:0.5;stroke:#ffffff;stroke-linejoin:miter;stroke-width:1.182716;"/>
   </g>
   <g id="patch_29">
    <path clip-path="url(#paca34c9bef)" d="M 584.337232 510.425409 
L 614.176122 510.425409 
L 614.176122 498.598246 
L 584.337232 498.598246 
z
" style="fill:#96c69a;fill-opacity:0.5;stroke:#ffffff;stroke-linejoin:miter;stroke-width:1.182716;"/>
   </g>
   <g id="patch_30">
    <path clip-path="url(#paca34c9bef)" d="M 584.337232 498.598246 
L 623.973967 498.598246 
L 623.973967 486.771083 
L 584.337232 486.771083 
z
" style="fill:#96c69a;fill-opacity:0.5;stroke:#ffffff;stroke-linejoin:miter;stroke-width:1.182716;"/>
   </g>
   <g id="patch_31">
    <path clip-path="url(#paca34c9bef)" d="M 584.337232 486.771083 
L 631.545029 486.771083 
L 631.545029 474.943919 
L 584.337232 474.943919 
z
" style="fill:#96c69a;fill-opacity:0.5;stroke:#ffffff;stroke-linejoin:miter;stroke-width:1.182716;"/>
   </g>
   <g id="patch_32">
    <path clip-path="url(#paca34c9bef)" d="M 584.337232 474.943919 
L 654.258214 474.943919 
L 654.258214 463.116756 
L 584.337232 463.116756 
z
" style="fill:#96c69a;fill-opacity:0.5;stroke:#ffffff;stroke-linejoin:miter;stroke-width:1.182716;"/>
   </g>
   <g id="patch_33">
    <path clip-path="url(#paca34c9bef)" d="M 584.337232 463.116756 
L 652.476787 463.116756 
L 652.476787 451.289593 
L 584.337232 451.289593 
z
" style="fill:#96c69a;fill-opacity:0.5;stroke:#ffffff;stroke-linejoin:miter;stroke-width:1.182716;"/>
   </g>
   <g id="patch_34">
    <path clip-path="url(#paca34c9bef)" d="M 584.337232 451.289593 
L 663.610702 451.289593 
L 663.610702 439.462429 
L 584.337232 439.462429 
z
" style="fill:#96c69a;fill-opacity:0.5;stroke:#ffffff;stroke-linejoin:miter;stroke-width:1.182716;"/>
   </g>
   <g id="patch_35">
    <path clip-path="url(#paca34c9bef)" d="M 584.337232 439.462429 
L 659.602492 439.462429 
L 659.602492 427.635266 
L 584.337232 427.635266 
z
" style="fill:#96c69a;fill-opacity:0.5;stroke:#ffffff;stroke-linejoin:miter;stroke-width:1.182716;"/>
   </g>
   <g id="patch_36">
    <path clip-path="url(#paca34c9bef)" d="M 584.337232 427.635266 
L 648.023222 427.635266 
L 648.023222 415.808103 
L 584.337232 415.808103 
z
" style="fill:#96c69a;fill-opacity:0.5;stroke:#ffffff;stroke-linejoin:miter;stroke-width:1.182716;"/>
   </g>
   <g id="patch_37">
    <path clip-path="url(#paca34c9bef)" d="M 584.337232 415.808103 
L 656.484996 415.808103 
L 656.484996 403.980939 
L 584.337232 403.980939 
z
" style="fill:#96c69a;fill-opacity:0.5;stroke:#ffffff;stroke-linejoin:miter;stroke-width:1.182716;"/>
   </g>
   <g id="patch_38">
    <path clip-path="url(#paca34c9bef)" d="M 584.337232 403.980939 
L 644.460369 403.980939 
L 644.460369 392.153776 
L 584.337232 392.153776 
z
" style="fill:#96c69a;fill-opacity:0.5;stroke:#ffffff;stroke-linejoin:miter;stroke-width:1.182716;"/>
   </g>
   <g id="patch_39">
    <path clip-path="url(#paca34c9bef)" d="M 584.337232 392.153776 
L 628.872889 392.153776 
L 628.872889 380.326612 
L 584.337232 380.326612 
z
" style="fill:#96c69a;fill-opacity:0.5;stroke:#ffffff;stroke-linejoin:miter;stroke-width:1.182716;"/>
   </g>
   <g id="patch_40">
    <path clip-path="url(#paca34c9bef)" d="M 584.337232 380.326612 
L 632.881098 380.326612 
L 632.881098 368.499449 
L 584.337232 368.499449 
z
" style="fill:#96c69a;fill-opacity:0.5;stroke:#ffffff;stroke-linejoin:miter;stroke-width:1.182716;"/>
   </g>
   <g id="patch_41">
    <path clip-path="url(#paca34c9bef)" d="M 584.337232 368.499449 
L 622.637897 368.499449 
L 622.637897 356.672286 
L 584.337232 356.672286 
z
" style="fill:#96c69a;fill-opacity:0.5;stroke:#ffffff;stroke-linejoin:miter;stroke-width:1.182716;"/>
   </g>
   <g id="patch_42">
    <path clip-path="url(#paca34c9bef)" d="M 584.337232 356.672286 
L 613.285409 356.672286 
L 613.285409 344.845122 
L 584.337232 344.845122 
z
" style="fill:#96c69a;fill-opacity:0.5;stroke:#ffffff;stroke-linejoin:miter;stroke-width:1.182716;"/>
   </g>
   <g id="patch_43">
    <path clip-path="url(#paca34c9bef)" d="M 584.337232 344.845122 
L 602.151495 344.845122 
L 602.151495 333.017959 
L 584.337232 333.017959 
z
" style="fill:#96c69a;fill-opacity:0.5;stroke:#ffffff;stroke-linejoin:miter;stroke-width:1.182716;"/>
   </g>
   <g id="patch_44">
    <path clip-path="url(#paca34c9bef)" d="M 584.337232 333.017959 
L 602.151495 333.017959 
L 602.151495 321.190796 
L 584.337232 321.190796 
z
" style="fill:#96c69a;fill-opacity:0.5;stroke:#ffffff;stroke-linejoin:miter;stroke-width:1.182716;"/>
   </g>
   <g id="patch_45">
    <path clip-path="url(#paca34c9bef)" d="M 584.337232 321.190796 
L 600.370069 321.190796 
L 600.370069 309.363632 
L 584.337232 309.363632 
z
" style="fill:#96c69a;fill-opacity:0.5;stroke:#ffffff;stroke-linejoin:miter;stroke-width:1.182716;"/>
   </g>
   <g id="patch_46">
    <path clip-path="url(#paca34c9bef)" d="M 584.337232 309.363632 
L 591.908294 309.363632 
L 591.908294 297.536469 
L 584.337232 297.536469 
z
" style="fill:#96c69a;fill-opacity:0.5;stroke:#ffffff;stroke-linejoin:miter;stroke-width:1.182716;"/>
   </g>
   <g id="patch_47">
    <path clip-path="url(#paca34c9bef)" d="M 584.337232 297.536469 
L 591.462937 297.536469 
L 591.462937 285.709306 
L 584.337232 285.709306 
z
" style="fill:#96c69a;fill-opacity:0.5;stroke:#ffffff;stroke-linejoin:miter;stroke-width:1.182716;"/>
   </g>
   <g id="patch_48">
    <path clip-path="url(#paca34c9bef)" d="M 584.337232 285.709306 
L 587.900085 285.709306 
L 587.900085 273.882142 
L 584.337232 273.882142 
z
" style="fill:#96c69a;fill-opacity:0.5;stroke:#ffffff;stroke-linejoin:miter;stroke-width:1.182716;"/>
   </g>
   <g id="patch_49">
    <path clip-path="url(#paca34c9bef)" d="M 584.337232 273.882142 
L 587.009372 273.882142 
L 587.009372 262.054979 
L 584.337232 262.054979 
z
" style="fill:#96c69a;fill-opacity:0.5;stroke:#ffffff;stroke-linejoin:miter;stroke-width:1.182716;"/>
   </g>
   <g id="patch_50">
    <path clip-path="url(#paca34c9bef)" d="M 584.337232 262.054979 
L 585.227945 262.054979 
L 585.227945 250.227815 
L 584.337232 250.227815 
z
" style="fill:#96c69a;fill-opacity:0.5;stroke:#ffffff;stroke-linejoin:miter;stroke-width:1.182716;"/>
   </g>
   <g id="patch_51">
    <path clip-path="url(#paca34c9bef)" d="M 584.337232 250.227815 
L 586.118658 250.227815 
L 586.118658 238.400652 
L 584.337232 238.400652 
z
" style="fill:#96c69a;fill-opacity:0.5;stroke:#ffffff;stroke-linejoin:miter;stroke-width:1.182716;"/>
   </g>
   <g id="patch_52">
    <path clip-path="url(#paca34c9bef)" d="M 584.337232 238.400652 
L 586.118658 238.400652 
L 586.118658 226.573489 
L 584.337232 226.573489 
z
" style="fill:#96c69a;fill-opacity:0.5;stroke:#ffffff;stroke-linejoin:miter;stroke-width:1.182716;"/>
   </g>
   <g id="patch_53">
    <path clip-path="url(#paca34c9bef)" d="M 584.337232 226.573489 
L 584.337232 226.573489 
L 584.337232 214.746325 
L 584.337232 214.746325 
z
" style="fill:#96c69a;fill-opacity:0.5;stroke:#ffffff;stroke-linejoin:miter;stroke-width:1.182716;"/>
   </g>
   <g id="patch_54">
    <path clip-path="url(#paca34c9bef)" d="M 584.337232 214.746325 
L 584.782589 214.746325 
L 584.782589 202.919162 
L 584.337232 202.919162 
z
" style="fill:#96c69a;fill-opacity:0.5;stroke:#ffffff;stroke-linejoin:miter;stroke-width:1.182716;"/>
   </g>
   <g id="patch_55">
    <path clip-path="url(#paca34c9bef)" d="M 584.337232 202.919162 
L 584.782589 202.919162 
L 584.782589 191.091999 
L 584.337232 191.091999 
z
" style="fill:#96c69a;fill-opacity:0.5;stroke:#ffffff;stroke-linejoin:miter;stroke-width:1.182716;"/>
   </g>
   <g id="patch_56">
    <path clip-path="url(#paca34c9bef)" d="M 584.337232 191.091999 
L 584.782589 191.091999 
L 584.782589 179.264835 
L 584.337232 179.264835 
z
" style="fill:#96c69a;fill-opacity:0.5;stroke:#ffffff;stroke-linejoin:miter;stroke-width:1.182716;"/>
   </g>
   <g id="patch_57">
    <path clip-path="url(#paca34c9bef)" d="M 584.337232 179.264835 
L 584.337232 179.264835 
L 584.337232 167.437672 
L 584.337232 167.437672 
z
" style="fill:#96c69a;fill-opacity:0.5;stroke:#ffffff;stroke-linejoin:miter;stroke-width:1.182716;"/>
   </g>
   <g id="patch_58">
    <path clip-path="url(#paca34c9bef)" d="M 584.337232 167.437672 
L 584.782589 167.437672 
L 584.782589 155.610509 
L 584.337232 155.610509 
z
" style="fill:#96c69a;fill-opacity:0.5;stroke:#ffffff;stroke-linejoin:miter;stroke-width:1.182716;"/>
   </g>
   <g id="patch_59">
    <path clip-path="url(#paca34c9bef)" d="M 584.337232 155.610509 
L 584.337232 155.610509 
L 584.337232 143.783345 
L 584.337232 143.783345 
z
" style="fill:#96c69a;fill-opacity:0.5;stroke:#ffffff;stroke-linejoin:miter;stroke-width:1.182716;"/>
   </g>
   <g id="patch_60">
    <path clip-path="url(#paca34c9bef)" d="M 584.337232 143.783345 
L 584.782589 143.783345 
L 584.782589 131.956182 
L 584.337232 131.956182 
z
" style="fill:#96c69a;fill-opacity:0.5;stroke:#ffffff;stroke-linejoin:miter;stroke-width:1.182716;"/>
   </g>
   <g id="patch_61">
    <path d="M 584.337232 603.86 
L 584.337232 109.484571 
" style="fill:none;stroke:#262626;stroke-linecap:square;stroke-linejoin:miter;stroke-width:2.5;"/>
   </g>
   <g id="patch_62">
    <path d="M 584.337232 603.86 
L 667.574375 603.86 
" style="fill:none;stroke:#262626;stroke-linecap:square;stroke-linejoin:miter;stroke-width:2.5;"/>
   </g>
  </g>
 </g>
 <defs>
  <clipPath id="p8ca2dd441a">
   <rect height="494.375429" width="482.775429" x="84.914375" y="109.484571"/>
  </clipPath>
  <clipPath id="pbb69a32bbd">
   <rect height="85.237143" width="482.775429" x="84.914375" y="7.2"/>
  </clipPath>
  <clipPath id="paca34c9bef">
   <rect height="494.375429" width="83.237143" x="584.337232" y="109.484571"/>
  </clipPath>
 </defs>
</svg>
