<?xml version="1.0" encoding="utf-8" standalone="no"?>
<!DOCTYPE svg PUBLIC "-//W3C//DTD SVG 1.1//EN"
  "http://www.w3.org/Graphics/SVG/1.1/DTD/svg11.dtd">
<svg height="675.079375pt" version="1.1" viewBox="0 0 708.679655 675.079375" width="708.679655pt" xmlns="http://www.w3.org/2000/svg" xmlns:xlink="http://www.w3.org/1999/xlink">
 <metadata>
  <rdf:RDF xmlns:cc="http://creativecommons.org/ns#" xmlns:dc="http://purl.org/dc/elements/1.1/" xmlns:rdf="http://www.w3.org/1999/02/22-rdf-syntax-ns#">
   <cc:Work>
    <dc:type rdf:resource="http://purl.org/dc/dcmitype/StillImage"/>
    <dc:date>2021-07-16T21:43:56.388006</dc:date>
    <dc:format>image/svg+xml</dc:format>
    <dc:creator>
     <cc:Agent>
      <dc:title>Matplotlib v3.4.2, https://matplotlib.org/</dc:title>
     </cc:Agent>
    </dc:creator>
   </cc:Work>
  </rdf:RDF>
 </metadata>
 <defs>
  <style type="text/css">*{stroke-linecap:butt;stroke-linejoin:round;}</style>
 </defs>
 <g id="figure_1">
  <g id="patch_1">
   <path d="M 0 675.079375 
L 708.679655 675.079375 
L 708.679655 0 
L 0 0 
z
" style="fill:#ffffff;"/>
  </g>
  <g id="axes_1">
   <g id="patch_2">
    <path d="M 98.911875 603.86 
L 581.687304 603.86 
L 581.687304 109.484571 
L 98.911875 109.484571 
z
" style="fill:none;"/>
   </g>
   <g id="matplotlib.axis_1">
    <g id="xtick_1">
     <g id="text_1">
      <!-- 0 -->
      <g style="fill:#262626;" transform="translate(113.63791 636.076563)scale(0.22 -0.22)">
       <defs>
        <path d="M 2034 4250 
Q 1547 4250 1301 3770 
Q 1056 3291 1056 2328 
Q 1056 1369 1301 889 
Q 1547 409 2034 409 
Q 2525 409 2770 889 
Q 3016 1369 3016 2328 
Q 3016 3291 2770 3770 
Q 2525 4250 2034 4250 
z
M 2034 4750 
Q 2819 4750 3233 4129 
Q 3647 3509 3647 2328 
Q 3647 1150 3233 529 
Q 2819 -91 2034 -91 
Q 1250 -91 836 529 
Q 422 1150 422 2328 
Q 422 3509 836 4129 
Q 1250 4750 2034 4750 
z
" id="DejaVuSans-30" transform="scale(0.015625)"/>
       </defs>
       <use xlink:href="#DejaVuSans-30"/>
      </g>
     </g>
    </g>
    <g id="xtick_2">
     <g id="text_2">
      <!-- 20000 -->
      <g style="fill:#262626;" transform="translate(173.464171 636.076563)scale(0.22 -0.22)">
       <defs>
        <path d="M 1228 531 
L 3431 531 
L 3431 0 
L 469 0 
L 469 531 
Q 828 903 1448 1529 
Q 2069 2156 2228 2338 
Q 2531 2678 2651 2914 
Q 2772 3150 2772 3378 
Q 2772 3750 2511 3984 
Q 2250 4219 1831 4219 
Q 1534 4219 1204 4116 
Q 875 4013 500 3803 
L 500 4441 
Q 881 4594 1212 4672 
Q 1544 4750 1819 4750 
Q 2544 4750 2975 4387 
Q 3406 4025 3406 3419 
Q 3406 3131 3298 2873 
Q 3191 2616 2906 2266 
Q 2828 2175 2409 1742 
Q 1991 1309 1228 531 
z
" id="DejaVuSans-32" transform="scale(0.015625)"/>
       </defs>
       <use xlink:href="#DejaVuSans-32"/>
       <use x="63.623047" xlink:href="#DejaVuSans-30"/>
       <use x="127.246094" xlink:href="#DejaVuSans-30"/>
       <use x="190.869141" xlink:href="#DejaVuSans-30"/>
       <use x="254.492188" xlink:href="#DejaVuSans-30"/>
      </g>
     </g>
    </g>
    <g id="xtick_3">
     <g id="text_3">
      <!-- 40000 -->
      <g style="fill:#262626;" transform="translate(261.285432 636.076563)scale(0.22 -0.22)">
       <defs>
        <path d="M 2419 4116 
L 825 1625 
L 2419 1625 
L 2419 4116 
z
M 2253 4666 
L 3047 4666 
L 3047 1625 
L 3713 1625 
L 3713 1100 
L 3047 1100 
L 3047 0 
L 2419 0 
L 2419 1100 
L 313 1100 
L 313 1709 
L 2253 4666 
z
" id="DejaVuSans-34" transform="scale(0.015625)"/>
       </defs>
       <use xlink:href="#DejaVuSans-34"/>
       <use x="63.623047" xlink:href="#DejaVuSans-30"/>
       <use x="127.246094" xlink:href="#DejaVuSans-30"/>
       <use x="190.869141" xlink:href="#DejaVuSans-30"/>
       <use x="254.492188" xlink:href="#DejaVuSans-30"/>
      </g>
     </g>
    </g>
    <g id="xtick_4">
     <g id="text_4">
      <!-- 60000 -->
      <g style="fill:#262626;" transform="translate(349.106693 636.076563)scale(0.22 -0.22)">
       <defs>
        <path d="M 2113 2584 
Q 1688 2584 1439 2293 
Q 1191 2003 1191 1497 
Q 1191 994 1439 701 
Q 1688 409 2113 409 
Q 2538 409 2786 701 
Q 3034 994 3034 1497 
Q 3034 2003 2786 2293 
Q 2538 2584 2113 2584 
z
M 3366 4563 
L 3366 3988 
Q 3128 4100 2886 4159 
Q 2644 4219 2406 4219 
Q 1781 4219 1451 3797 
Q 1122 3375 1075 2522 
Q 1259 2794 1537 2939 
Q 1816 3084 2150 3084 
Q 2853 3084 3261 2657 
Q 3669 2231 3669 1497 
Q 3669 778 3244 343 
Q 2819 -91 2113 -91 
Q 1303 -91 875 529 
Q 447 1150 447 2328 
Q 447 3434 972 4092 
Q 1497 4750 2381 4750 
Q 2619 4750 2861 4703 
Q 3103 4656 3366 4563 
z
" id="DejaVuSans-36" transform="scale(0.015625)"/>
       </defs>
       <use xlink:href="#DejaVuSans-36"/>
       <use x="63.623047" xlink:href="#DejaVuSans-30"/>
       <use x="127.246094" xlink:href="#DejaVuSans-30"/>
       <use x="190.869141" xlink:href="#DejaVuSans-30"/>
       <use x="254.492188" xlink:href="#DejaVuSans-30"/>
      </g>
     </g>
    </g>
    <g id="xtick_5">
     <g id="text_5">
      <!-- 80000 -->
      <g style="fill:#262626;" transform="translate(436.927955 636.076563)scale(0.22 -0.22)">
       <defs>
        <path d="M 2034 2216 
Q 1584 2216 1326 1975 
Q 1069 1734 1069 1313 
Q 1069 891 1326 650 
Q 1584 409 2034 409 
Q 2484 409 2743 651 
Q 3003 894 3003 1313 
Q 3003 1734 2745 1975 
Q 2488 2216 2034 2216 
z
M 1403 2484 
Q 997 2584 770 2862 
Q 544 3141 544 3541 
Q 544 4100 942 4425 
Q 1341 4750 2034 4750 
Q 2731 4750 3128 4425 
Q 3525 4100 3525 3541 
Q 3525 3141 3298 2862 
Q 3072 2584 2669 2484 
Q 3125 2378 3379 2068 
Q 3634 1759 3634 1313 
Q 3634 634 3220 271 
Q 2806 -91 2034 -91 
Q 1263 -91 848 271 
Q 434 634 434 1313 
Q 434 1759 690 2068 
Q 947 2378 1403 2484 
z
M 1172 3481 
Q 1172 3119 1398 2916 
Q 1625 2713 2034 2713 
Q 2441 2713 2670 2916 
Q 2900 3119 2900 3481 
Q 2900 3844 2670 4047 
Q 2441 4250 2034 4250 
Q 1625 4250 1398 4047 
Q 1172 3844 1172 3481 
z
" id="DejaVuSans-38" transform="scale(0.015625)"/>
       </defs>
       <use xlink:href="#DejaVuSans-38"/>
       <use x="63.623047" xlink:href="#DejaVuSans-30"/>
       <use x="127.246094" xlink:href="#DejaVuSans-30"/>
       <use x="190.869141" xlink:href="#DejaVuSans-30"/>
       <use x="254.492188" xlink:href="#DejaVuSans-30"/>
      </g>
     </g>
    </g>
    <g id="xtick_6">
     <g id="text_6">
      <!-- 100000 -->
      <g style="fill:#262626;" transform="translate(517.750466 636.076563)scale(0.22 -0.22)">
       <defs>
        <path d="M 794 531 
L 1825 531 
L 1825 4091 
L 703 3866 
L 703 4441 
L 1819 4666 
L 2450 4666 
L 2450 531 
L 3481 531 
L 3481 0 
L 794 0 
L 794 531 
z
" id="DejaVuSans-31" transform="scale(0.015625)"/>
       </defs>
       <use xlink:href="#DejaVuSans-31"/>
       <use x="63.623047" xlink:href="#DejaVuSans-30"/>
       <use x="127.246094" xlink:href="#DejaVuSans-30"/>
       <use x="190.869141" xlink:href="#DejaVuSans-30"/>
       <use x="254.492188" xlink:href="#DejaVuSans-30"/>
       <use x="318.115234" xlink:href="#DejaVuSans-30"/>
      </g>
     </g>
    </g>
    <g id="text_7">
     <!-- MDTU -->
     <g style="fill:#262626;" transform="translate(304.593964 662.888125)scale(0.24 -0.24)">
      <defs>
       <path d="M 628 4666 
L 1569 4666 
L 2759 1491 
L 3956 4666 
L 4897 4666 
L 4897 0 
L 4281 0 
L 4281 4097 
L 3078 897 
L 2444 897 
L 1241 4097 
L 1241 0 
L 628 0 
L 628 4666 
z
" id="DejaVuSans-4d" transform="scale(0.015625)"/>
       <path d="M 1259 4147 
L 1259 519 
L 2022 519 
Q 2988 519 3436 956 
Q 3884 1394 3884 2338 
Q 3884 3275 3436 3711 
Q 2988 4147 2022 4147 
L 1259 4147 
z
M 628 4666 
L 1925 4666 
Q 3281 4666 3915 4102 
Q 4550 3538 4550 2338 
Q 4550 1131 3912 565 
Q 3275 0 1925 0 
L 628 0 
L 628 4666 
z
" id="DejaVuSans-44" transform="scale(0.015625)"/>
       <path d="M -19 4666 
L 3928 4666 
L 3928 4134 
L 2272 4134 
L 2272 0 
L 1638 0 
L 1638 4134 
L -19 4134 
L -19 4666 
z
" id="DejaVuSans-54" transform="scale(0.015625)"/>
       <path d="M 556 4666 
L 1191 4666 
L 1191 1831 
Q 1191 1081 1462 751 
Q 1734 422 2344 422 
Q 2950 422 3222 751 
Q 3494 1081 3494 1831 
L 3494 4666 
L 4128 4666 
L 4128 1753 
Q 4128 841 3676 375 
Q 3225 -91 2344 -91 
Q 1459 -91 1007 375 
Q 556 841 556 1753 
L 556 4666 
z
" id="DejaVuSans-55" transform="scale(0.015625)"/>
      </defs>
      <use xlink:href="#DejaVuSans-4d"/>
      <use x="86.279297" xlink:href="#DejaVuSans-44"/>
      <use x="163.28125" xlink:href="#DejaVuSans-54"/>
      <use x="224.365234" xlink:href="#DejaVuSans-55"/>
     </g>
    </g>
   </g>
   <g id="matplotlib.axis_2">
    <g id="ytick_1">
     <g id="text_8">
      <!-- 0.25 -->
      <g style="fill:#262626;" transform="translate(34.4275 590.037885)scale(0.22 -0.22)">
       <defs>
        <path d="M 684 794 
L 1344 794 
L 1344 0 
L 684 0 
L 684 794 
z
" id="DejaVuSans-2e" transform="scale(0.015625)"/>
        <path d="M 691 4666 
L 3169 4666 
L 3169 4134 
L 1269 4134 
L 1269 2991 
Q 1406 3038 1543 3061 
Q 1681 3084 1819 3084 
Q 2600 3084 3056 2656 
Q 3513 2228 3513 1497 
Q 3513 744 3044 326 
Q 2575 -91 1722 -91 
Q 1428 -91 1123 -41 
Q 819 9 494 109 
L 494 744 
Q 775 591 1075 516 
Q 1375 441 1709 441 
Q 2250 441 2565 725 
Q 2881 1009 2881 1497 
Q 2881 1984 2565 2268 
Q 2250 2553 1709 2553 
Q 1456 2553 1204 2497 
Q 953 2441 691 2322 
L 691 4666 
z
" id="DejaVuSans-35" transform="scale(0.015625)"/>
       </defs>
       <use xlink:href="#DejaVuSans-30"/>
       <use x="63.623047" xlink:href="#DejaVuSans-2e"/>
       <use x="95.410156" xlink:href="#DejaVuSans-32"/>
       <use x="159.033203" xlink:href="#DejaVuSans-35"/>
      </g>
     </g>
    </g>
    <g id="ytick_2">
     <g id="text_9">
      <!-- 0.50 -->
      <g style="fill:#262626;" transform="translate(34.4275 531.964555)scale(0.22 -0.22)">
       <use xlink:href="#DejaVuSans-30"/>
       <use x="63.623047" xlink:href="#DejaVuSans-2e"/>
       <use x="95.410156" xlink:href="#DejaVuSans-35"/>
       <use x="159.033203" xlink:href="#DejaVuSans-30"/>
      </g>
     </g>
    </g>
    <g id="ytick_3">
     <g id="text_10">
      <!-- 0.75 -->
      <g style="fill:#262626;" transform="translate(34.4275 473.891224)scale(0.22 -0.22)">
       <defs>
        <path d="M 525 4666 
L 3525 4666 
L 3525 4397 
L 1831 0 
L 1172 0 
L 2766 4134 
L 525 4134 
L 525 4666 
z
" id="DejaVuSans-37" transform="scale(0.015625)"/>
       </defs>
       <use xlink:href="#DejaVuSans-30"/>
       <use x="63.623047" xlink:href="#DejaVuSans-2e"/>
       <use x="95.410156" xlink:href="#DejaVuSans-37"/>
       <use x="159.033203" xlink:href="#DejaVuSans-35"/>
      </g>
     </g>
    </g>
    <g id="ytick_4">
     <g id="text_11">
      <!-- 1.00 -->
      <g style="fill:#262626;" transform="translate(34.4275 415.817894)scale(0.22 -0.22)">
       <use xlink:href="#DejaVuSans-31"/>
       <use x="63.623047" xlink:href="#DejaVuSans-2e"/>
       <use x="95.410156" xlink:href="#DejaVuSans-30"/>
       <use x="159.033203" xlink:href="#DejaVuSans-30"/>
      </g>
     </g>
    </g>
    <g id="ytick_5">
     <g id="text_12">
      <!-- 1.25 -->
      <g style="fill:#262626;" transform="translate(34.4275 357.744563)scale(0.22 -0.22)">
       <use xlink:href="#DejaVuSans-31"/>
       <use x="63.623047" xlink:href="#DejaVuSans-2e"/>
       <use x="95.410156" xlink:href="#DejaVuSans-32"/>
       <use x="159.033203" xlink:href="#DejaVuSans-35"/>
      </g>
     </g>
    </g>
    <g id="ytick_6">
     <g id="text_13">
      <!-- 1.50 -->
      <g style="fill:#262626;" transform="translate(34.4275 299.671232)scale(0.22 -0.22)">
       <use xlink:href="#DejaVuSans-31"/>
       <use x="63.623047" xlink:href="#DejaVuSans-2e"/>
       <use x="95.410156" xlink:href="#DejaVuSans-35"/>
       <use x="159.033203" xlink:href="#DejaVuSans-30"/>
      </g>
     </g>
    </g>
    <g id="ytick_7">
     <g id="text_14">
      <!-- 1.75 -->
      <g style="fill:#262626;" transform="translate(34.4275 241.597902)scale(0.22 -0.22)">
       <use xlink:href="#DejaVuSans-31"/>
       <use x="63.623047" xlink:href="#DejaVuSans-2e"/>
       <use x="95.410156" xlink:href="#DejaVuSans-37"/>
       <use x="159.033203" xlink:href="#DejaVuSans-35"/>
      </g>
     </g>
    </g>
    <g id="ytick_8">
     <g id="text_15">
      <!-- 2.00 -->
      <g style="fill:#262626;" transform="translate(34.4275 183.524571)scale(0.22 -0.22)">
       <use xlink:href="#DejaVuSans-32"/>
       <use x="63.623047" xlink:href="#DejaVuSans-2e"/>
       <use x="95.410156" xlink:href="#DejaVuSans-30"/>
       <use x="159.033203" xlink:href="#DejaVuSans-30"/>
      </g>
     </g>
    </g>
    <g id="ytick_9">
     <g id="text_16">
      <!-- 2.25 -->
      <g style="fill:#262626;" transform="translate(34.4275 125.45124)scale(0.22 -0.22)">
       <use xlink:href="#DejaVuSans-32"/>
       <use x="63.623047" xlink:href="#DejaVuSans-2e"/>
       <use x="95.410156" xlink:href="#DejaVuSans-32"/>
       <use x="159.033203" xlink:href="#DejaVuSans-35"/>
      </g>
     </g>
    </g>
    <g id="text_17">
     <!-- $E$ -->
     <g style="fill:#262626;" transform="translate(25.43625 364.352286)rotate(-90)scale(0.24 -0.24)">
      <defs>
       <path d="M 1081 4666 
L 4031 4666 
L 3928 4134 
L 1606 4134 
L 1338 2753 
L 3566 2753 
L 3463 2222 
L 1234 2222 
L 909 531 
L 3284 531 
L 3181 0 
L 172 0 
L 1081 4666 
z
" id="DejaVuSans-Oblique-45" transform="scale(0.015625)"/>
      </defs>
      <use transform="translate(0 0.09375)" xlink:href="#DejaVuSans-Oblique-45"/>
     </g>
    </g>
   </g>
   <g id="line2d_1">
    <path clip-path="url(#pe123672b86)" d="M 120.856213 533.848051 
L 121.295319 370.261356 
L 121.734425 493.221717 
L 121.953978 407.125563 
L 122.173532 423.17419 
L 122.393085 510.318215 
L 122.612638 457.93055 
L 122.832191 552.241378 
L 123.051744 501.875475 
L 123.271297 490.489203 
L 123.490851 492.413326 
L 123.710404 378.591557 
L 123.929957 384.527121 
L 124.14951 491.919247 
L 124.369063 451.254692 
L 124.588616 443.417715 
L 124.808169 443.03278 
L 125.027723 525.656058 
L 125.466829 379.310624 
L 125.686382 501.857242 
L 125.905935 494.108699 
L 126.125488 527.197887 
L 126.345041 470.133606 
L 126.564595 469.761598 
L 126.784148 499.529613 
L 127.003701 504.445582 
L 127.442807 427.402738 
L 127.66236 448.499927 
L 127.881914 420.702194 
L 128.101467 507.03028 
L 128.32102 501.046502 
L 128.540573 477.92049 
L 128.760126 511.168427 
L 128.979679 477.893807 
L 129.199232 347.775362 
L 129.418786 525.934369 
L 129.638339 358.055913 
L 129.857892 434.674162 
L 130.077445 334.240917 
L 130.736105 477.861919 
L 130.955658 468.773245 
L 131.175211 429.130695 
L 131.394764 343.624025 
L 131.614317 522.936163 
L 131.83387 470.185727 
L 132.053423 450.668739 
L 132.272977 460.481691 
L 132.49253 309.577743 
L 132.712083 464.649543 
L 132.931636 382.25528 
L 133.151189 545.928664 
L 133.370742 372.056116 
L 133.590296 525.632575 
L 133.809849 433.930841 
L 134.029402 438.417447 
L 134.248955 396.023855 
L 134.468508 411.472092 
L 134.907614 514.549147 
L 135.346721 446.909629 
L 135.566274 512.929455 
L 135.785827 538.355046 
L 136.00538 396.743104 
L 136.224933 562.351973 
L 136.444487 470.779789 
L 136.66404 321.989382 
L 136.883593 492.344704 
L 137.103146 436.32381 
L 137.322699 519.768191 
L 137.542252 437.369804 
L 137.761805 495.494316 
L 137.981359 485.860047 
L 138.200912 463.155793 
L 138.420465 502.386452 
L 138.640018 475.653129 
L 138.859571 258.267397 
L 139.079124 493.940759 
L 139.298678 251.071298 
L 139.518231 427.776008 
L 139.737784 475.770556 
L 139.957337 493.17488 
L 140.17689 397.773483 
L 140.396443 521.77839 
L 140.615996 441.250658 
L 140.83555 523.368972 
L 141.055103 517.831988 
L 141.494209 421.750835 
L 141.713762 428.559384 
L 141.933315 499.354892 
L 142.152869 427.547044 
L 142.372422 489.124578 
L 142.811528 371.940904 
L 143.031081 423.313203 
L 143.250634 527.947863 
L 143.470187 474.574668 
L 143.689741 519.49074 
L 144.128847 447.233251 
L 144.3484 427.172224 
L 144.567953 490.87255 
L 144.787506 450.712796 
L 145.00706 511.028135 
L 145.226613 483.199323 
L 145.446166 348.222027 
L 145.665719 504.678124 
L 145.885272 507.38154 
L 146.324378 393.755332 
L 146.543932 383.699234 
L 146.763485 203.548093 
L 146.983038 520.57891 
L 147.202591 408.117705 
L 147.422144 539.695183 
L 147.641697 459.770432 
L 147.861251 423.772268 
L 148.080804 506.300473 
L 148.300357 517.153351 
L 148.51991 372.97975 
L 148.739463 473.457984 
L 148.959016 426.56518 
L 149.178569 334.250792 
L 149.398123 513.246641 
L 149.617676 477.737639 
L 149.837229 468.062369 
L 150.056782 402.127242 
L 150.276335 411.440749 
L 150.495888 502.714075 
L 150.715441 533.196863 
L 151.154548 437.632268 
L 151.374101 423.587601 
L 151.593654 329.506715 
L 151.813207 414.907795 
L 152.03276 402.185913 
L 152.252314 407.458237 
L 152.471867 478.527297 
L 152.69142 488.837287 
L 152.910973 453.482993 
L 153.130526 501.553267 
L 153.350079 463.843225 
L 153.569632 467.741919 
L 153.789186 511.065349 
L 154.008739 480.352113 
L 154.228292 374.954316 
L 154.447845 416.860833 
L 154.667398 502.264075 
L 154.886951 523.73736 
L 155.326058 485.744075 
L 155.545611 472.441475 
L 155.765164 384.205499 
L 156.20427 522.662737 
L 156.423823 313.516586 
L 156.643377 520.423647 
L 156.86293 543.769063 
L 157.082483 529.820205 
L 157.302036 501.856568 
L 157.741142 390.131318 
L 157.960696 499.462864 
L 158.180249 503.790595 
L 158.399802 377.861452 
L 158.838908 491.417334 
L 159.058461 492.503793 
L 159.278014 469.598614 
L 159.497568 463.269745 
L 159.717121 469.34882 
L 159.936674 450.824094 
L 160.156227 462.419558 
L 160.37578 410.825078 
L 160.595333 405.47716 
L 161.03444 363.318924 
L 161.253993 480.081469 
L 161.473546 519.284344 
L 161.693099 419.50966 
L 161.912652 512.560998 
L 162.132205 494.686556 
L 162.351759 431.38883 
L 162.571312 493.22245 
L 162.790865 464.261703 
L 163.010418 315.288754 
L 163.229971 523.660918 
L 163.449524 429.132697 
L 163.888631 470.336934 
L 164.108184 531.36563 
L 164.327737 393.461939 
L 164.54729 362.747045 
L 164.766843 371.538572 
L 164.986396 436.994151 
L 165.20595 450.010634 
L 165.425503 422.041773 
L 165.645056 472.579058 
L 165.864609 549.848716 
L 166.303715 415.179238 
L 166.523269 376.822409 
L 166.742822 524.05765 
L 167.181928 357.673253 
L 167.401481 452.806172 
L 167.621034 443.332206 
L 167.840587 323.209775 
L 168.060141 495.928524 
L 168.279694 336.223103 
L 168.499247 497.757882 
L 168.7188 525.751182 
L 168.938353 419.354195 
L 169.157906 490.17426 
L 169.37746 499.884409 
L 169.597013 475.751845 
L 169.816566 535.563187 
L 170.036119 389.629422 
L 170.255672 490.258919 
L 170.694778 326.507463 
L 170.914332 456.738875 
L 171.133885 344.793288 
L 171.353438 484.030158 
L 171.572991 316.985776 
L 171.792544 442.205156 
L 172.012097 498.988488 
L 172.231651 251.104511 
L 172.451204 461.640359 
L 172.670757 366.448878 
L 173.109863 539.083922 
L 173.329416 482.592935 
L 173.548969 505.917481 
L 173.768523 437.744846 
L 173.988076 522.536 
L 174.207629 326.144603 
L 174.427182 486.524302 
L 174.646735 491.084171 
L 174.866288 518.315695 
L 175.085842 483.956401 
L 175.305395 422.52867 
L 175.744501 506.641798 
L 175.964054 469.103051 
L 176.183607 494.177903 
L 176.40316 424.508807 
L 176.622714 424.881237 
L 176.842267 385.953706 
L 177.06182 471.284645 
L 177.281373 506.806708 
L 177.500926 492.388484 
L 177.720479 524.029735 
L 177.940032 420.955939 
L 178.159586 523.715575 
L 178.379139 465.93269 
L 178.598692 454.654518 
L 178.818245 533.392764 
L 179.037798 421.721332 
L 179.257351 388.589537 
L 179.476905 437.855057 
L 179.696458 420.975481 
L 179.916011 509.007662 
L 180.135564 389.575439 
L 180.355117 393.404876 
L 180.794223 509.151277 
L 181.013777 470.458551 
L 181.23333 344.190731 
L 181.452883 499.306901 
L 181.672436 401.94917 
L 181.891989 386.25349 
L 182.111542 423.166917 
L 182.331096 496.186367 
L 182.550649 464.721258 
L 182.770202 491.308764 
L 182.989755 543.112532 
L 183.209308 489.803995 
L 183.428861 469.899266 
L 183.867968 397.951538 
L 184.087521 505.578055 
L 184.307074 497.649457 
L 184.526627 516.310524 
L 184.74618 416.578301 
L 185.185287 494.118201 
L 185.40484 503.499551 
L 185.624393 430.584594 
L 185.843946 424.791393 
L 186.063499 540.586123 
L 186.283052 381.647542 
L 186.502605 534.466091 
L 186.722159 493.341401 
L 186.941712 486.589827 
L 187.161265 427.501135 
L 187.380818 513.320167 
L 187.600371 535.358792 
L 187.819924 500.342716 
L 188.039478 487.269896 
L 188.259031 366.338402 
L 188.478584 432.800149 
L 188.698137 437.637536 
L 188.91769 550.267296 
L 189.137243 448.912403 
L 189.356796 520.092272 
L 189.57635 469.075999 
L 189.795903 471.643853 
L 190.015456 462.963652 
L 190.235009 419.557508 
L 190.454562 450.937336 
L 190.674115 512.71922 
L 191.113222 424.265693 
L 191.332775 327.095959 
L 191.552328 462.211603 
L 191.771881 414.239489 
L 191.991434 411.954813 
L 192.210987 533.234315 
L 192.430541 411.989696 
L 192.650094 525.25954 
L 192.869647 513.820385 
L 193.0892 534.64047 
L 193.528306 354.515631 
L 193.74786 304.167511 
L 193.967413 456.776531 
L 194.186966 418.628347 
L 194.406519 534.66442 
L 194.626072 496.022328 
L 194.845625 551.597799 
L 195.065178 434.082922 
L 195.284732 421.361446 
L 195.504285 493.512647 
L 195.723838 376.51761 
L 195.943391 411.453222 
L 196.162944 515.127001 
L 196.382497 416.332232 
L 196.821604 478.907648 
L 197.041157 435.267548 
L 197.26071 461.54199 
L 197.480263 386.30348 
L 197.699816 471.136525 
L 197.919369 445.575329 
L 198.138923 485.569734 
L 198.358476 485.020741 
L 198.578029 491.62171 
L 199.017135 449.617521 
L 199.456242 495.008763 
L 199.675795 442.7538 
L 199.895348 462.683548 
L 200.114901 533.691898 
L 200.334454 473.860022 
L 200.554007 459.117848 
L 200.77356 470.275623 
L 200.993114 518.391686 
L 201.212667 496.487869 
L 201.43222 371.551746 
L 201.651773 466.565129 
L 201.871326 466.052296 
L 202.090879 473.282899 
L 202.310432 500.605235 
L 202.529986 509.519676 
L 202.749539 502.774655 
L 202.969092 430.423708 
L 203.188645 502.007003 
L 203.408198 504.915751 
L 203.627751 491.989683 
L 203.847305 359.068328 
L 204.286411 501.184503 
L 204.505964 469.855344 
L 204.725517 382.050851 
L 204.94507 471.936576 
L 205.164623 475.79721 
L 205.384177 395.431632 
L 205.60373 518.263871 
L 205.823283 477.584701 
L 206.042836 507.900667 
L 206.262389 432.394451 
L 206.481942 439.26359 
L 206.701496 533.271472 
L 206.921049 520.060311 
L 207.140602 435.029207 
L 207.360155 457.195993 
L 207.579708 446.860311 
L 207.799261 471.698745 
L 208.018814 476.195388 
L 208.238368 321.160255 
L 208.677474 470.281699 
L 208.897027 459.079382 
L 209.11658 349.549633 
L 209.336133 446.977413 
L 209.555687 426.000148 
L 209.77524 416.835572 
L 209.994793 508.375417 
L 210.214346 435.994258 
L 210.433899 488.866949 
L 210.653452 490.785984 
L 210.873005 520.160349 
L 211.092559 508.892686 
L 211.531665 385.412301 
L 211.751218 350.283699 
L 211.970771 526.395641 
L 212.190324 482.651221 
L 212.409878 509.534863 
L 212.629431 416.810649 
L 212.848984 498.520899 
L 213.068537 501.204054 
L 213.28809 501.933079 
L 213.507643 479.680527 
L 213.727196 412.061144 
L 213.94675 500.464398 
L 214.166303 501.597798 
L 214.385856 503.767112 
L 214.605409 501.871433 
L 214.824962 562.845344 
L 215.044515 437.305549 
L 215.264069 541.602424 
L 215.483622 509.083507 
L 215.703175 422.824685 
L 215.922728 491.077038 
L 216.142281 478.526535 
L 216.361834 453.777632 
L 216.800941 519.013807 
L 217.020494 524.372917 
L 217.240047 456.437621 
L 217.4596 509.284549 
L 217.679153 489.281685 
L 217.898706 395.476348 
L 218.11826 447.971272 
L 218.337813 363.396698 
L 218.557366 463.643907 
L 218.776919 461.402283 
L 218.996472 403.666839 
L 219.216025 453.246932 
L 219.435578 468.820903 
L 219.655132 466.656813 
L 219.874685 514.612338 
L 220.094238 518.122358 
L 220.313791 517.560201 
L 220.533344 493.368708 
L 220.752897 496.873866 
L 221.192004 417.558939 
L 221.63111 554.807949 
L 221.850663 459.396834 
L 222.070216 493.535374 
L 222.289769 484.949875 
L 222.509323 464.176036 
L 222.728876 513.658596 
L 222.948429 518.904924 
L 223.167982 435.651237 
L 223.387535 453.410957 
L 223.607088 410.152243 
L 223.826642 482.899795 
L 224.046195 476.47759 
L 224.265748 465.234448 
L 224.485301 488.561384 
L 224.704854 486.616471 
L 224.924407 487.521191 
L 225.14396 457.847234 
L 225.363514 504.719349 
L 225.583067 515.318315 
L 225.80262 347.047243 
L 226.022173 401.916748 
L 226.241726 499.608297 
L 226.461279 385.722032 
L 226.680833 462.329897 
L 227.119939 437.220883 
L 227.339492 483.775403 
L 227.559045 581.38839 
L 227.778598 417.6912 
L 227.998151 461.080237 
L 228.217705 359.185627 
L 228.437258 507.323256 
L 228.656811 446.631051 
L 228.876364 548.816459 
L 229.095917 503.794914 
L 229.31547 306.307832 
L 229.535023 469.380751 
L 229.754577 546.111112 
L 229.97413 451.045296 
L 230.193683 437.13165 
L 230.413236 446.832687 
L 230.632789 379.284212 
L 230.852342 485.924936 
L 231.071896 529.127182 
L 231.291449 423.150278 
L 231.511002 421.660675 
L 231.730555 461.738927 
L 231.950108 444.509062 
L 232.169661 544.594152 
L 232.389214 447.239773 
L 232.608768 448.733713 
L 232.828321 520.653637 
L 233.047874 514.785062 
L 233.267427 483.845055 
L 233.48698 535.399149 
L 233.926087 487.495616 
L 234.14564 482.031907 
L 234.365193 539.764567 
L 234.804299 279.474276 
L 235.023852 457.209607 
L 235.243405 478.937558 
L 235.462959 475.681162 
L 235.682512 424.388908 
L 235.902065 337.467641 
L 236.121618 409.889955 
L 236.341171 397.515885 
L 236.560724 502.690441 
L 236.780278 388.036634 
L 236.999831 399.510861 
L 237.219384 504.934829 
L 237.438937 461.088323 
L 237.65849 506.878274 
L 237.878043 444.102847 
L 238.097596 463.348091 
L 238.31715 446.406182 
L 238.536703 493.469117 
L 238.756256 427.793744 
L 238.975809 411.707873 
L 239.195362 343.203397 
L 239.414915 435.175008 
L 239.634469 438.729928 
L 240.073575 472.958998 
L 240.293128 457.390004 
L 240.512681 385.850844 
L 240.732234 419.149753 
L 240.951787 538.593057 
L 241.171341 504.67337 
L 241.390894 528.769583 
L 241.610447 451.323436 
L 241.83 499.909803 
L 242.049553 519.508971 
L 242.269106 384.362603 
L 242.708213 534.922212 
L 242.927766 310.080377 
L 243.147319 476.215013 
L 243.586425 517.111178 
L 243.805978 462.349429 
L 244.025532 464.468729 
L 244.245085 526.068727 
L 244.464638 415.279509 
L 244.684191 449.20958 
L 244.903744 375.556194 
L 245.123297 513.227008 
L 245.342851 352.375927 
L 245.562404 411.619179 
L 246.00151 454.253753 
L 246.221063 512.374866 
L 246.440616 522.654607 
L 246.660169 466.725612 
L 246.879723 546.203641 
L 247.099276 558.69017 
L 247.318829 504.102982 
L 247.538382 353.9962 
L 247.757935 468.49367 
L 247.977488 493.166744 
L 248.416595 403.764762 
L 248.636148 378.378659 
L 248.855701 504.119098 
L 249.075254 406.50278 
L 249.294807 515.961796 
L 249.51436 527.035022 
L 249.953467 429.982007 
L 250.17302 436.557239 
L 250.392573 492.603329 
L 250.612126 491.426932 
L 250.831679 396.013253 
L 251.051233 462.585124 
L 251.270786 437.120865 
L 251.490339 532.94581 
L 251.709892 509.74286 
L 251.929445 471.564739 
L 252.148998 574.284287 
L 252.368551 553.013366 
L 252.588105 446.131868 
L 252.807658 486.557869 
L 253.027211 491.622051 
L 253.246764 439.3929 
L 253.466317 440.538268 
L 253.68587 473.791166 
L 254.124977 446.719636 
L 254.34453 418.053599 
L 254.564083 444.005504 
L 254.783636 532.695948 
L 255.003189 436.878206 
L 255.222742 402.882859 
L 255.442296 505.642893 
L 255.661849 486.224241 
L 255.881402 246.879137 
L 256.100955 462.586831 
L 256.320508 453.58439 
L 256.540061 532.707172 
L 256.759614 426.459909 
L 256.979168 534.662103 
L 257.198721 304.644906 
L 257.418274 527.688782 
L 257.637827 437.222624 
L 257.85738 505.817848 
L 258.076933 456.314351 
L 258.296487 493.090294 
L 258.735593 434.288901 
L 258.955146 478.912122 
L 259.174699 466.489515 
L 259.394252 501.362503 
L 259.613805 500.518803 
L 259.833359 545.757821 
L 260.052912 493.994848 
L 260.272465 409.733826 
L 260.492018 495.934282 
L 260.711571 482.518353 
L 260.931124 502.725501 
L 261.150678 476.619849 
L 261.370231 539.802647 
L 261.589784 268.117859 
L 261.809337 444.688696 
L 262.02889 435.946702 
L 262.248443 479.086176 
L 262.467996 367.730071 
L 262.68755 465.198009 
L 262.907103 383.756688 
L 263.126656 513.769936 
L 263.346209 520.681911 
L 263.565762 444.013146 
L 263.785315 433.370418 
L 264.004869 523.918846 
L 264.224422 399.461903 
L 264.443975 445.59635 
L 264.663528 442.045502 
L 264.883081 369.328539 
L 265.102634 389.048854 
L 265.322187 492.248032 
L 265.541741 357.812609 
L 265.761294 537.052856 
L 265.980847 490.197927 
L 266.2004 519.890178 
L 266.419953 437.471676 
L 266.639506 435.967031 
L 266.85906 400.077225 
L 267.078613 547.864408 
L 267.298166 456.999348 
L 267.737272 521.763068 
L 267.956825 418.737082 
L 268.176378 459.368986 
L 268.615485 387.584722 
L 268.835038 532.286651 
L 269.054591 475.456452 
L 269.274144 499.632544 
L 269.493697 450.812137 
L 269.713251 492.777496 
L 269.932804 428.099764 
L 270.152357 399.268612 
L 270.37191 468.87809 
L 270.591463 416.152022 
L 270.811016 562.97731 
L 271.030569 515.308814 
L 271.250123 345.225736 
L 271.469676 514.673749 
L 271.689229 480.023319 
L 271.908782 498.14683 
L 272.128335 505.57148 
L 272.347888 471.828978 
L 272.567442 358.555511 
L 272.786995 526.457137 
L 273.006548 493.095297 
L 273.226101 477.96415 
L 273.445654 454.690919 
L 273.665207 402.16057 
L 273.88476 454.621001 
L 274.104314 478.87675 
L 274.323867 473.403512 
L 274.54342 485.006248 
L 274.762973 504.771573 
L 274.982526 555.008662 
L 275.202079 514.110843 
L 275.421633 512.539378 
L 275.641186 456.613688 
L 275.860739 443.789161 
L 276.080292 500.608556 
L 276.299845 409.829199 
L 276.519398 473.247866 
L 276.738951 466.411661 
L 276.958505 517.252815 
L 277.178058 523.919623 
L 277.397611 535.709082 
L 277.617164 427.081535 
L 277.836717 447.041037 
L 278.05627 513.896304 
L 278.275824 391.874303 
L 278.495377 445.744554 
L 278.71493 443.25672 
L 278.934483 510.968577 
L 279.154036 508.076206 
L 279.373589 465.671478 
L 279.593142 501.402592 
L 279.812696 452.868984 
L 280.032249 518.917502 
L 280.251802 483.651692 
L 280.471355 493.601522 
L 280.910461 421.467715 
L 281.130014 475.186606 
L 281.349568 448.540673 
L 281.569121 500.818869 
L 281.788674 398.930215 
L 282.008227 429.459268 
L 282.22778 422.2779 
L 282.447333 524.941091 
L 282.666887 446.325057 
L 282.88644 445.879174 
L 283.105993 318.775945 
L 283.325546 477.299412 
L 283.545099 516.565424 
L 283.764652 514.762586 
L 283.984205 324.697942 
L 284.203759 462.45289 
L 284.423312 423.462444 
L 284.642865 456.78193 
L 284.862418 429.239035 
L 285.081971 377.236694 
L 285.521078 493.537184 
L 285.740631 481.833763 
L 285.960184 520.029707 
L 286.179737 509.922996 
L 286.39929 363.858352 
L 286.838396 450.129491 
L 287.05795 427.556833 
L 287.277503 502.60584 
L 287.497056 440.693647 
L 287.716609 460.593337 
L 287.936162 436.537858 
L 288.155715 493.974934 
L 288.375269 502.843073 
L 288.594822 435.741564 
L 288.814375 436.883913 
L 289.033928 443.802958 
L 289.253481 521.327178 
L 289.473034 477.227563 
L 289.692587 521.873503 
L 289.912141 524.942367 
L 290.131694 457.52336 
L 290.351247 478.532151 
L 290.790353 428.750322 
L 291.009906 391.444842 
L 291.22946 513.895104 
L 291.449013 461.319824 
L 291.668566 532.367577 
L 292.107672 442.749114 
L 292.546778 539.861819 
L 292.985885 478.385857 
L 293.205438 537.419351 
L 293.424991 464.795913 
L 293.644544 452.550817 
L 293.864097 507.387491 
L 294.083651 496.063064 
L 294.303204 476.814009 
L 294.74231 548.922987 
L 294.961863 434.380715 
L 295.181416 497.729024 
L 295.400969 460.178567 
L 295.620523 503.1752 
L 295.840076 498.066843 
L 296.059629 419.752684 
L 296.279182 490.394779 
L 296.498735 433.566941 
L 296.718288 478.681622 
L 296.937842 416.145534 
L 297.157395 487.048497 
L 297.376948 481.668029 
L 297.816054 383.129671 
L 298.035607 390.818371 
L 298.25516 487.713149 
L 298.474714 359.396975 
L 298.694267 444.11319 
L 298.91382 452.61899 
L 299.133373 550.300341 
L 299.352926 510.43744 
L 299.572479 427.933714 
L 299.792033 441.777568 
L 300.011586 416.767664 
L 300.231139 374.198161 
L 300.450692 502.571664 
L 300.670245 483.597918 
L 300.889798 418.793408 
L 301.109351 453.643155 
L 301.328905 547.84612 
L 301.768011 435.751535 
L 302.207117 455.495656 
L 302.42667 414.040438 
L 302.646224 433.133926 
L 302.865777 493.722874 
L 303.304883 344.115788 
L 303.524436 529.713602 
L 303.743989 438.771751 
L 303.963542 455.265127 
L 304.183096 541.653691 
L 305.061308 405.32439 
L 305.500415 475.692637 
L 305.719968 454.696037 
L 305.939521 368.85126 
L 306.159074 540.337147 
L 306.59818 413.580585 
L 306.817733 499.791749 
L 307.037287 457.030953 
L 307.25684 534.498871 
L 307.476393 549.066276 
L 307.695946 552.236921 
L 307.915499 415.777596 
L 308.135052 503.752184 
L 308.354605 379.953394 
L 308.574159 543.45068 
L 308.793712 486.192415 
L 309.013265 466.295761 
L 309.232818 419.038758 
L 309.452371 494.112023 
L 309.671924 359.700681 
L 310.111031 508.887983 
L 310.330584 450.590585 
L 310.550137 496.666547 
L 310.76969 472.396855 
L 310.989243 419.78718 
L 311.42835 510.115864 
L 311.647903 478.076516 
L 311.867456 475.027907 
L 312.087009 497.084997 
L 312.306562 490.937953 
L 312.526115 385.881012 
L 312.965222 489.196859 
L 313.184775 402.836141 
L 313.404328 492.562639 
L 313.623881 462.181036 
L 313.843434 395.914657 
L 314.282541 334.265525 
L 314.502094 442.099991 
L 314.721647 484.92462 
L 314.9412 398.831607 
L 315.160753 561.408049 
L 315.380306 511.261378 
L 315.59986 544.442959 
L 315.819413 328.02028 
L 316.038966 465.967703 
L 316.258519 365.525373 
L 316.478072 434.285195 
L 316.697625 293.227377 
L 316.917178 437.046344 
L 317.136732 466.721794 
L 317.356285 417.521946 
L 317.575838 529.341938 
L 317.795391 518.035024 
L 318.014944 412.527672 
L 318.234497 509.368485 
L 318.454051 494.585642 
L 318.673604 381.834186 
L 318.893157 495.316687 
L 319.11271 448.479705 
L 319.332263 456.56181 
L 319.551816 420.983047 
L 319.771369 536.933784 
L 319.990923 487.389489 
L 320.210476 485.006024 
L 320.430029 495.972654 
L 320.869135 545.531358 
L 321.308242 463.48186 
L 321.527795 527.430096 
L 321.747348 497.851034 
L 321.966901 380.701817 
L 322.186454 529.937782 
L 322.62556 413.503901 
L 322.845114 391.832087 
L 323.503773 524.60709 
L 323.723326 492.827076 
L 323.942879 515.647494 
L 324.381986 379.187898 
L 324.601539 449.170154 
L 324.821092 452.428622 
L 325.040645 401.861129 
L 325.260198 435.667174 
L 325.479751 535.339128 
L 325.699305 527.539516 
L 325.918858 506.135191 
L 326.138411 419.868134 
L 326.357964 511.452761 
L 326.577517 472.894778 
L 326.79707 472.726655 
L 327.016624 344.320266 
L 327.236177 515.653434 
L 327.45573 491.241166 
L 327.675283 403.015911 
L 327.894836 399.002525 
L 328.114389 484.085689 
L 328.333942 477.75953 
L 328.553496 477.630036 
L 328.992602 432.192618 
L 329.212155 395.729228 
L 329.431708 451.529285 
L 329.651261 397.504108 
L 329.870815 433.165535 
L 330.090368 494.720237 
L 330.309921 489.777639 
L 330.529474 499.799802 
L 330.749027 454.562856 
L 330.96858 474.68878 
L 331.188133 513.757305 
L 331.407687 489.434137 
L 331.62724 558.215095 
L 331.846793 455.225697 
L 332.066346 445.322595 
L 332.285899 401.054944 
L 332.505452 484.263872 
L 332.725006 457.242638 
L 332.944559 511.952214 
L 333.164112 489.531541 
L 333.383665 451.603398 
L 333.603218 487.330296 
L 333.822771 439.499741 
L 334.042324 468.598625 
L 334.261878 532.716253 
L 334.481431 543.010322 
L 334.700984 451.763586 
L 334.920537 493.902436 
L 335.14009 454.0342 
L 335.359643 435.026794 
L 335.579196 431.293169 
L 335.79875 508.891684 
L 336.237856 381.955585 
L 336.457409 453.680362 
L 336.896515 503.676417 
L 337.116069 494.501903 
L 337.335622 503.150184 
L 337.555175 403.619329 
L 337.774728 533.879919 
L 337.994281 455.036717 
L 338.213834 530.298908 
L 338.433387 541.07063 
L 338.652941 450.201746 
L 338.872494 462.65227 
L 339.092047 492.605476 
L 339.3116 481.936671 
L 339.531153 197.945899 
L 339.750706 537.137049 
L 339.97026 499.881372 
L 340.189813 419.7784 
L 340.409366 551.118416 
L 340.848472 482.659162 
L 341.068025 435.139637 
L 341.287578 467.18654 
L 341.507132 396.089428 
L 341.726685 501.040841 
L 341.946238 462.159833 
L 342.165791 514.868784 
L 342.385344 505.714375 
L 342.604897 456.562243 
L 342.824451 449.519948 
L 343.044004 438.337287 
L 343.263557 368.628944 
L 343.702663 483.88209 
L 343.922216 466.40484 
L 344.141769 497.17024 
L 344.361323 482.427772 
L 344.580876 516.552622 
L 344.800429 480.076787 
L 345.019982 548.227745 
L 345.239535 508.526397 
L 345.459088 511.156362 
L 345.678642 421.736343 
L 346.117748 510.863787 
L 346.337301 423.538228 
L 346.556854 448.158604 
L 346.99596 377.505522 
L 347.435067 496.311781 
L 347.65462 471.635179 
L 347.874173 407.502412 
L 348.093726 498.35372 
L 348.313279 464.456264 
L 348.532833 503.883834 
L 348.752386 421.275629 
L 348.971939 444.066825 
L 349.191492 380.182608 
L 349.411045 501.738738 
L 349.630598 457.192406 
L 349.850151 540.821071 
L 350.069705 512.591356 
L 350.289258 499.082023 
L 350.508811 473.859607 
L 350.728364 469.258281 
L 350.947917 545.83888 
L 351.16747 471.273267 
L 351.387024 487.179011 
L 351.606577 489.183798 
L 351.82613 336.289398 
L 352.045683 497.690103 
L 352.265236 446.902413 
L 352.484789 467.849245 
L 352.704342 557.336458 
L 352.923896 457.196548 
L 353.143449 533.185278 
L 353.363002 327.641997 
L 353.582555 507.206213 
L 353.802108 496.156816 
L 354.021661 450.226932 
L 354.241215 484.350826 
L 354.460768 476.343234 
L 354.680321 508.272503 
L 354.899874 446.06609 
L 355.119427 322.343314 
L 355.33898 540.362999 
L 355.558533 411.850647 
L 355.778087 487.679759 
L 355.99764 512.001923 
L 356.217193 455.680053 
L 356.436746 450.393377 
L 356.656299 538.455944 
L 356.875852 450.613892 
L 357.095406 519.755003 
L 357.314959 371.173502 
L 357.534512 531.232567 
L 357.754065 463.642603 
L 357.973618 480.916035 
L 358.193171 479.024427 
L 358.632278 383.593314 
L 359.071384 549.039927 
L 359.290937 489.089886 
L 359.51049 551.372739 
L 359.949596 299.532169 
L 360.388703 510.735744 
L 360.608256 380.677246 
L 360.827809 421.071046 
L 361.047362 553.110738 
L 361.266915 359.070217 
L 361.486469 503.435758 
L 361.925575 420.905436 
L 362.145128 498.144609 
L 362.364681 502.649502 
L 362.584234 448.240771 
L 362.803787 475.815197 
L 363.023341 422.976455 
L 363.242894 487.222891 
L 363.462447 193.869783 
L 363.901553 524.286247 
L 364.121106 449.327773 
L 364.34066 277.422388 
L 364.560213 493.603278 
L 364.779766 384.955154 
L 364.999319 495.652184 
L 365.218872 411.588357 
L 365.438425 432.759417 
L 365.657978 467.707868 
L 365.877532 453.042544 
L 366.097085 552.897162 
L 366.316638 300.710163 
L 366.536191 423.633092 
L 366.975297 537.535129 
L 367.194851 501.288093 
L 367.414404 529.851718 
L 367.633957 423.286658 
L 367.85351 490.319402 
L 368.073063 500.312478 
L 368.292616 543.337126 
L 368.512169 502.978763 
L 368.951276 376.914716 
L 369.170829 540.824869 
L 369.390382 472.764402 
L 369.609935 535.893316 
L 369.829488 510.035988 
L 370.049042 446.357233 
L 370.268595 491.840369 
L 370.488148 478.323773 
L 370.707701 505.101619 
L 370.927254 506.052021 
L 371.146807 501.986054 
L 371.36636 465.303964 
L 371.585914 473.502306 
L 371.805467 471.615921 
L 372.02502 447.693427 
L 372.244573 448.810726 
L 372.464126 448.137294 
L 372.683679 425.88595 
L 373.122786 493.667095 
L 373.561892 395.965854 
L 373.781445 489.881466 
L 374.000998 492.882626 
L 374.220551 356.292608 
L 374.440105 450.119895 
L 374.879211 492.594359 
L 375.098764 434.065432 
L 375.53787 544.332672 
L 375.976977 486.184356 
L 376.19653 483.217151 
L 376.416083 447.99094 
L 376.635636 446.402109 
L 376.855189 445.909271 
L 377.074742 484.970352 
L 377.294296 391.649081 
L 377.513849 491.60973 
L 377.733402 511.027735 
L 377.952955 482.533939 
L 378.172508 523.283159 
L 378.611615 375.31094 
L 378.831168 517.953757 
L 379.489827 300.932889 
L 379.70938 518.891884 
L 379.928933 470.157174 
L 380.148487 392.591702 
L 380.36804 396.45866 
L 380.587593 496.88015 
L 380.807146 452.089458 
L 381.026699 495.201632 
L 381.246252 494.790052 
L 381.465806 397.834214 
L 381.685359 477.170277 
L 381.904912 325.261088 
L 382.124465 429.373148 
L 382.344018 305.374803 
L 382.783124 544.219066 
L 383.002678 450.513215 
L 383.222231 426.116284 
L 383.441784 543.240707 
L 383.661337 433.759805 
L 383.88089 394.230696 
L 384.100443 425.202256 
L 384.319997 479.999313 
L 384.53955 434.678577 
L 384.759103 518.652297 
L 384.978656 498.461515 
L 385.198209 322.875238 
L 385.417762 536.193001 
L 385.637315 473.423171 
L 385.856869 464.778613 
L 386.076422 480.277392 
L 386.295975 471.183888 
L 386.515528 496.736726 
L 386.735081 477.663571 
L 386.954634 409.495978 
L 387.174187 507.167295 
L 387.393741 427.849706 
L 387.613294 508.368789 
L 387.832847 475.163042 
L 388.0524 501.392297 
L 388.271953 479.906987 
L 388.71106 297.290881 
L 388.930613 506.877517 
L 389.150166 456.747114 
L 389.369719 510.000707 
L 389.589272 501.427556 
L 389.808825 480.197468 
L 390.028378 267.503498 
L 390.247932 535.04579 
L 390.467485 488.136562 
L 390.687038 515.443258 
L 390.906591 468.956341 
L 391.126144 348.43955 
L 391.345697 362.656157 
L 391.784804 430.956617 
L 392.004357 525.597415 
L 392.22391 497.145944 
L 392.443463 502.301646 
L 392.663016 427.345462 
L 392.882569 540.519263 
L 393.102123 361.305632 
L 393.321676 399.003368 
L 393.541229 476.63806 
L 393.760782 428.711974 
L 394.199888 504.486976 
L 394.419442 449.464436 
L 394.638995 322.457142 
L 394.858548 469.820992 
L 395.078101 514.390338 
L 395.297654 511.688187 
L 395.517207 512.359842 
L 395.73676 385.366973 
L 395.956314 435.857577 
L 396.175867 534.931581 
L 396.39542 444.922876 
L 396.614973 439.2027 
L 396.834526 508.436564 
L 397.054079 530.184239 
L 397.273633 353.642182 
L 397.493186 506.604765 
L 397.712739 354.533786 
L 397.932292 517.351997 
L 398.151845 220.44228 
L 398.371398 503.838209 
L 398.590951 514.253579 
L 398.810505 246.370243 
L 399.030058 487.343878 
L 399.249611 497.936327 
L 399.469164 523.654253 
L 399.90827 436.697139 
L 400.347377 525.972465 
L 400.56693 490.402566 
L 400.786483 546.817162 
L 401.225589 466.45555 
L 401.445142 498.557427 
L 401.664696 508.04144 
L 401.884249 355.156697 
L 402.103802 494.215814 
L 402.323355 440.037217 
L 402.542908 461.281864 
L 402.762461 535.814686 
L 402.982015 545.412794 
L 403.201568 562.121443 
L 403.421121 404.118305 
L 403.640674 477.454694 
L 404.07978 476.602195 
L 404.299333 461.110694 
L 404.518887 459.291395 
L 404.73844 536.390268 
L 405.397099 418.762642 
L 405.616652 510.840402 
L 405.836206 456.603927 
L 406.055759 464.184101 
L 406.275312 466.579961 
L 406.494865 486.8847 
L 406.714418 377.208274 
L 406.933971 463.175673 
L 407.153524 471.573643 
L 407.592631 380.81922 
L 407.812184 483.037143 
L 408.031737 491.770445 
L 408.25129 352.468962 
L 408.470843 486.982229 
L 408.690397 524.176244 
L 408.90995 517.039824 
L 409.129503 425.748552 
L 409.349056 540.035322 
L 410.007715 416.102329 
L 410.227269 400.123655 
L 410.446822 505.642554 
L 410.666375 510.135126 
L 410.885928 488.032316 
L 411.105481 505.758133 
L 411.325034 491.768499 
L 411.544587 341.929817 
L 411.764141 509.229704 
L 411.983694 459.142984 
L 412.203247 441.245766 
L 412.4228 516.94456 
L 412.642353 516.499362 
L 412.861906 363.049814 
L 413.08146 398.756757 
L 413.520566 528.185527 
L 413.740119 447.96717 
L 413.959672 508.586017 
L 414.179225 408.411135 
L 414.618332 512.073233 
L 414.837885 528.047702 
L 415.057438 517.257464 
L 415.276991 393.102608 
L 415.716097 428.150897 
L 415.935651 505.709041 
L 416.155204 423.173925 
L 416.374757 489.173261 
L 416.59431 474.283956 
L 416.813863 350.114409 
L 417.033416 357.4134 
L 417.252969 524.5219 
L 417.472523 521.885654 
L 417.911629 426.938206 
L 418.131182 507.011242 
L 418.350735 372.10046 
L 418.570288 382.76096 
L 419.009395 486.73657 
L 419.448501 446.56448 
L 419.668054 300.313936 
L 419.887607 433.027967 
L 420.10716 414.340597 
L 420.326714 350.110456 
L 420.546267 521.444683 
L 420.76582 419.63646 
L 420.985373 490.917091 
L 421.204926 509.609032 
L 421.424479 514.785117 
L 421.644033 463.611202 
L 421.863586 487.045204 
L 422.083139 480.143021 
L 422.302692 371.407877 
L 422.522245 468.462982 
L 422.741798 436.306687 
L 422.961351 363.207111 
L 423.180905 403.984258 
L 423.400458 478.901944 
L 423.620011 507.133832 
L 424.059117 445.588991 
L 424.27867 463.589909 
L 424.498224 459.36683 
L 424.717777 436.537218 
L 424.93733 356.932416 
L 425.156883 422.974241 
L 425.376436 450.789497 
L 425.595989 296.063595 
L 425.815542 512.038227 
L 426.035096 537.401257 
L 426.254649 451.237461 
L 426.474202 527.24659 
L 426.693755 464.193179 
L 426.913308 512.590851 
L 427.132861 384.406206 
L 427.352415 495.91995 
L 427.571968 486.949417 
L 427.791521 499.122404 
L 428.011074 435.370065 
L 428.230627 415.401166 
L 428.45018 454.956973 
L 428.669733 403.949234 
L 428.889287 547.196134 
L 429.10884 525.088099 
L 429.328393 440.837085 
L 429.547946 571.429497 
L 429.987052 441.188833 
L 430.206606 425.434172 
L 430.645712 508.118468 
L 430.865265 395.499534 
L 431.084818 473.562099 
L 431.304371 426.223292 
L 431.523924 478.035277 
L 431.743478 479.939512 
L 431.963031 323.374252 
L 432.402137 521.685371 
L 432.62169 485.0867 
L 432.841243 416.679711 
L 433.060797 393.929724 
L 433.28035 460.796543 
L 433.719456 478.222478 
L 433.939009 580.436062 
L 434.158562 493.301329 
L 434.378115 453.286398 
L 434.597669 438.954486 
L 434.817222 435.903439 
L 435.036775 468.501219 
L 435.256328 522.150345 
L 435.475881 512.732136 
L 435.695434 482.296728 
L 435.914988 530.321651 
L 436.134541 475.106531 
L 436.354094 467.060278 
L 436.573647 530.659243 
L 436.7932 433.572931 
L 437.232306 525.500189 
L 437.45186 474.595031 
L 437.671413 485.836897 
L 437.890966 475.229868 
L 438.330072 368.384623 
L 438.549625 466.121642 
L 438.988732 413.479635 
L 439.208285 411.014054 
L 439.427838 420.804004 
L 439.647391 490.759896 
L 439.866944 405.296418 
L 440.086497 456.360843 
L 440.306051 431.770119 
L 440.525604 434.349179 
L 440.745157 462.589729 
L 440.96471 466.084306 
L 441.184263 526.947134 
L 441.403816 489.113285 
L 441.623369 524.51578 
L 441.842923 408.763633 
L 442.282029 499.01137 
L 442.501582 473.634399 
L 442.721135 462.729311 
L 442.940688 380.727019 
L 443.160242 455.8855 
L 443.379795 271.305515 
L 443.599348 492.824908 
L 444.038454 481.35183 
L 444.258007 494.880516 
L 444.47756 541.937377 
L 444.697114 363.135297 
L 444.916667 555.664647 
L 445.13622 449.676331 
L 445.355773 524.293096 
L 445.575326 371.097329 
L 446.014433 551.203839 
L 446.453539 482.528169 
L 446.673092 510.471237 
L 446.892645 400.340051 
L 447.112198 463.065791 
L 447.551305 413.034773 
L 447.990411 526.908983 
L 448.209964 530.134407 
L 448.429517 433.737307 
L 448.64907 420.276121 
L 448.868624 432.72447 
L 449.088177 506.194319 
L 449.30773 438.463319 
L 449.527283 412.63471 
L 449.746836 469.73722 
L 449.966389 492.497306 
L 450.185942 431.590505 
L 450.405496 516.278155 
L 450.625049 482.493693 
L 450.844602 518.494278 
L 451.064155 471.861075 
L 451.283708 490.256377 
L 451.503261 473.067248 
L 451.722815 436.208006 
L 451.942368 529.861928 
L 452.161921 514.792433 
L 452.381474 456.150164 
L 452.601027 472.127821 
L 452.82058 397.490971 
L 453.259687 340.322731 
L 453.47924 548.586252 
L 453.698793 524.880493 
L 453.918346 417.106419 
L 454.137899 520.470381 
L 454.357452 418.091381 
L 454.577006 482.129211 
L 454.796559 440.820863 
L 455.235665 483.431183 
L 455.455218 341.338163 
L 455.674771 483.556621 
L 455.894324 423.108306 
L 456.113878 452.264697 
L 456.333431 427.836052 
L 456.552984 482.397602 
L 456.99209 371.356469 
L 457.211643 402.045528 
L 457.431197 413.573988 
L 457.65075 529.41236 
L 458.089856 464.883022 
L 458.309409 413.906528 
L 458.528962 446.366705 
L 458.748515 440.436287 
L 458.968069 303.938377 
L 459.187622 549.56583 
L 459.407175 530.400762 
L 459.626728 536.784959 
L 459.846281 276.442197 
L 460.065834 500.953694 
L 460.285388 468.739125 
L 460.724494 511.796024 
L 460.944047 520.642736 
L 461.1636 518.159542 
L 461.383153 427.563289 
L 461.602706 397.749263 
L 461.82226 507.948828 
L 462.041813 535.758375 
L 462.261366 508.573406 
L 462.480919 393.734834 
L 462.700472 524.405094 
L 462.920025 473.938262 
L 463.139579 458.667281 
L 463.359132 472.451272 
L 463.578685 303.093964 
L 463.798238 289.754177 
L 464.017791 497.550805 
L 464.237344 539.45001 
L 464.456897 439.925098 
L 464.676451 456.263857 
L 464.896004 448.13871 
L 465.115557 474.059391 
L 465.33511 364.177922 
L 465.554663 335.264247 
L 465.774216 406.593085 
L 465.993769 429.049031 
L 466.213323 426.509987 
L 466.432876 428.994949 
L 466.652429 436.877611 
L 466.871982 494.69392 
L 467.091535 442.433611 
L 467.311088 494.001271 
L 467.750195 489.172652 
L 467.969748 479.672797 
L 468.189301 435.159314 
L 468.408854 315.38719 
L 468.628407 466.400457 
L 468.84796 525.173542 
L 469.067514 475.547645 
L 469.287067 499.613285 
L 469.50662 388.806718 
L 469.726173 380.255248 
L 469.945726 420.991791 
L 470.165279 309.135827 
L 470.384833 494.985183 
L 470.604386 362.17297 
L 470.823939 528.523154 
L 471.043492 280.375403 
L 471.263045 488.632909 
L 471.482598 507.592819 
L 471.702151 470.088839 
L 472.141258 503.834931 
L 472.360811 402.713866 
L 472.580364 389.601313 
L 473.01947 487.941901 
L 473.239024 475.068787 
L 473.458577 484.75621 
L 473.67813 500.975245 
L 473.897683 397.181086 
L 474.117236 459.729198 
L 474.336789 409.74525 
L 474.556342 391.638983 
L 474.775896 485.407178 
L 474.995449 388.057144 
L 475.215002 557.754111 
L 475.654108 411.274285 
L 475.873661 480.037372 
L 476.093215 404.844095 
L 476.312768 506.415181 
L 476.532321 434.612927 
L 476.751874 509.199756 
L 476.971427 427.18828 
L 477.19098 531.543637 
L 477.410533 404.605999 
L 477.630087 467.189674 
L 477.84964 466.69402 
L 478.069193 439.302782 
L 478.288746 440.436124 
L 478.508299 439.216067 
L 478.727852 508.301452 
L 479.166959 394.099582 
L 479.386512 507.876433 
L 479.606065 544.993399 
L 479.825618 549.606912 
L 480.045171 535.109112 
L 480.264724 421.527594 
L 480.484278 561.535147 
L 480.703831 484.029557 
L 480.923384 496.686403 
L 481.142937 420.074343 
L 481.36249 517.626835 
L 481.582043 415.97936 
L 481.801597 490.087619 
L 482.02115 518.530649 
L 482.240703 465.565197 
L 482.460256 472.418969 
L 482.679809 444.753448 
L 482.899362 471.658007 
L 483.118915 354.032274 
L 483.338469 487.642864 
L 483.558022 441.521422 
L 483.777575 491.843036 
L 483.997128 273.697934 
L 484.216681 495.787111 
L 484.436234 546.945036 
L 484.655788 362.953095 
L 484.875341 504.230711 
L 485.094894 489.952511 
L 485.314447 403.780288 
L 485.534 420.816543 
L 485.973106 548.138338 
L 486.19266 447.48868 
L 486.412213 521.170611 
L 486.631766 484.921607 
L 486.851319 403.755509 
L 487.070872 489.913263 
L 487.290425 519.302646 
L 487.509979 504.257145 
L 487.729532 466.002225 
L 487.949085 314.634389 
L 488.168638 431.87383 
L 488.388191 454.461272 
L 488.607744 507.967036 
L 488.827297 460.980805 
L 489.046851 513.138458 
L 489.266404 514.896724 
L 489.70551 446.224235 
L 489.925063 500.089306 
L 490.144616 487.587885 
L 490.364169 434.564504 
L 490.583723 490.305644 
L 490.803276 440.985843 
L 491.022829 514.553096 
L 491.242382 394.108761 
L 491.461935 493.020923 
L 491.681488 456.916432 
L 491.901042 317.280755 
L 492.120595 491.491319 
L 492.340148 514.229556 
L 492.559701 392.917467 
L 492.779254 495.206571 
L 492.998807 425.164652 
L 493.21836 491.195386 
L 493.437914 368.220349 
L 493.657467 405.955934 
L 493.87702 478.887735 
L 494.096573 371.16116 
L 494.316126 365.443257 
L 494.535679 425.168309 
L 494.755233 377.646327 
L 494.974786 495.466622 
L 495.194339 536.755086 
L 495.413892 444.158574 
L 495.633445 499.449529 
L 495.852998 459.149273 
L 496.072551 299.124894 
L 496.292105 490.586391 
L 496.511658 362.371583 
L 496.731211 500.134129 
L 496.950764 467.150916 
L 497.170317 505.289077 
L 497.38987 442.115276 
L 497.609424 501.539866 
L 497.828977 518.228561 
L 498.04853 472.710822 
L 498.268083 451.434995 
L 498.487636 448.86603 
L 498.707189 373.967651 
L 498.926742 426.720124 
L 499.146296 447.544747 
L 499.365849 284.894273 
L 499.585402 492.280732 
L 499.804955 488.093991 
L 500.024508 381.10542 
L 500.244061 457.651728 
L 500.463615 468.900899 
L 500.683168 464.695282 
L 500.902721 441.558959 
L 501.122274 507.347622 
L 501.341827 517.419967 
L 501.56138 477.729242 
L 501.780933 519.536816 
L 502.000487 453.955046 
L 502.22004 468.340139 
L 502.439593 523.84948 
L 502.659146 394.992401 
L 502.878699 541.574692 
L 503.098252 485.878793 
L 503.317806 480.68348 
L 503.537359 406.087591 
L 503.756912 484.552472 
L 503.976465 491.302603 
L 504.415571 331.062487 
L 504.635124 517.119013 
L 504.854678 545.297784 
L 505.074231 460.512418 
L 505.293784 456.293386 
L 505.513337 461.023617 
L 505.73289 454.085236 
L 505.952443 476.347383 
L 506.171997 482.060674 
L 506.39155 472.922998 
L 506.611103 485.656363 
L 506.830656 471.174921 
L 507.050209 475.240955 
L 507.269762 500.378507 
L 507.489315 366.209478 
L 507.928422 539.064125 
L 508.147975 490.844266 
L 508.367528 484.404091 
L 508.587081 534.829428 
L 508.806634 520.549367 
L 509.026188 428.383886 
L 509.245741 411.572404 
L 509.465294 516.35378 
L 509.684847 559.927221 
L 509.9044 442.403506 
L 510.123953 488.690379 
L 510.343506 433.577412 
L 510.782613 452.664813 
L 511.221719 498.447981 
L 511.441272 445.328419 
L 511.660825 437.378912 
L 511.880379 321.375451 
L 512.099932 356.017324 
L 512.319485 470.579074 
L 512.539038 462.259206 
L 512.758591 347.006222 
L 512.978144 483.683117 
L 513.417251 496.362944 
L 513.636804 488.150234 
L 513.856357 440.329308 
L 514.07591 474.671821 
L 514.295463 442.576009 
L 514.515016 427.680958 
L 514.73457 521.497368 
L 514.954123 487.723091 
L 515.173676 494.626648 
L 515.393229 484.551096 
L 515.612782 527.738889 
L 515.832335 511.543547 
L 516.051888 432.124155 
L 516.271442 523.292022 
L 516.490995 516.055507 
L 516.710548 518.027332 
L 516.930101 529.230419 
L 517.369207 482.48925 
L 517.58876 478.598562 
L 517.808314 387.33104 
L 518.027867 419.706908 
L 518.24742 496.608242 
L 518.466973 422.646062 
L 518.686526 487.278284 
L 518.906079 254.09481 
L 519.125633 528.007163 
L 519.345186 430.898068 
L 519.784292 507.614913 
L 520.003845 423.624383 
L 520.223398 492.230188 
L 520.442951 481.703688 
L 520.662505 461.475228 
L 521.101611 551.717039 
L 521.321164 504.066209 
L 521.540717 349.28831 
L 521.76027 452.284008 
L 521.979824 484.724134 
L 522.199377 303.595894 
L 522.858036 549.033231 
L 523.077589 483.947027 
L 523.297142 463.804874 
L 523.516696 457.034294 
L 523.736249 417.082407 
L 523.955802 429.054958 
L 524.175355 493.760581 
L 524.394908 457.072709 
L 524.614461 497.998373 
L 524.834015 484.236476 
L 525.053568 480.381701 
L 525.273121 527.721935 
L 525.492674 522.937906 
L 525.93178 340.82206 
L 526.151333 497.353188 
L 526.370887 359.724035 
L 526.809993 506.534089 
L 527.029546 499.064551 
L 527.249099 312.124347 
L 527.468652 474.082698 
L 527.688206 440.133188 
L 527.907759 530.164758 
L 528.127312 284.499874 
L 528.346865 504.909755 
L 528.785971 423.59317 
L 529.005524 532.683869 
L 529.225078 543.779407 
L 529.444631 507.609953 
L 529.883737 491.890921 
L 530.10329 355.488055 
L 530.322843 519.168356 
L 530.542397 529.656849 
L 530.76195 424.465075 
L 530.981503 179.6431 
L 531.201056 432.952947 
L 531.420609 325.528064 
L 532.079269 495.328441 
L 532.298822 484.488204 
L 532.518375 529.327901 
L 532.737928 392.508965 
L 532.957481 514.667395 
L 533.177034 438.19173 
L 533.396588 474.815981 
L 533.616141 531.744546 
L 534.055247 463.545044 
L 534.2748 517.967008 
L 534.494353 376.455214 
L 534.713906 521.482699 
L 534.93346 445.179164 
L 535.153013 458.228866 
L 535.372566 488.720743 
L 535.592119 478.047496 
L 535.811672 439.126452 
L 536.031225 335.754828 
L 536.470332 546.213118 
L 536.689885 456.191778 
L 536.909438 550.658673 
L 537.128991 423.659653 
L 537.348544 452.213693 
L 537.568097 394.93953 
L 537.787651 391.270795 
L 538.007204 450.424521 
L 538.226757 369.491847 
L 538.44631 392.461298 
L 538.665863 373.133529 
L 538.885416 478.537445 
L 539.10497 414.986477 
L 539.324523 404.262584 
L 539.544076 515.245803 
L 539.763629 449.766784 
L 539.983182 469.23899 
L 540.202735 373.989086 
L 540.422288 472.653741 
L 540.641842 409.393956 
L 540.861395 420.508243 
L 541.300501 381.300918 
L 541.520054 131.956182 
L 541.739607 465.803887 
L 541.95916 477.049971 
L 542.178714 495.355867 
L 542.398267 465.874603 
L 542.61782 480.844382 
L 542.837373 463.092123 
L 543.276479 376.632867 
L 543.496033 422.745631 
L 543.715586 434.160915 
L 543.935139 428.406569 
L 544.154692 402.903543 
L 544.813351 522.575064 
L 545.032905 437.217754 
L 545.252458 457.151266 
L 545.472011 521.623619 
L 545.691564 485.75169 
L 545.911117 387.553419 
L 546.13067 419.917115 
L 546.350224 550.616072 
L 546.569777 488.362797 
L 546.78933 500.144769 
L 547.008883 523.39141 
L 547.228436 509.400628 
L 547.447989 319.859335 
L 547.667542 459.518046 
L 547.887096 429.491678 
L 548.106649 525.119924 
L 548.326202 430.419742 
L 548.545755 547.474305 
L 548.765308 528.446864 
L 549.204415 465.26962 
L 549.423968 480.125724 
L 549.643521 397.481268 
L 550.082627 514.983563 
L 550.30218 495.282654 
L 550.521733 517.282502 
L 550.741287 472.753489 
L 550.96084 487.052475 
L 551.180393 483.371309 
L 551.399946 379.965318 
L 551.619499 563.107665 
L 552.058606 345.955532 
L 552.278159 514.040419 
L 552.497712 492.642083 
L 552.717265 404.759905 
L 552.936818 498.904778 
L 553.156371 322.288762 
L 553.375924 484.248881 
L 553.595478 444.767221 
L 553.815031 531.541677 
L 554.254137 315.559334 
L 554.47369 527.838264 
L 554.912797 362.929148 
L 555.13235 377.479888 
L 555.571456 501.196505 
L 555.791009 435.924129 
L 556.010562 502.057702 
L 556.230115 412.812971 
L 556.449669 497.363943 
L 556.669222 501.86206 
L 556.888775 452.78001 
L 557.108328 467.74296 
L 557.327881 512.323418 
L 557.547434 464.360189 
L 557.766988 464.763258 
L 557.986541 513.228675 
L 558.206094 494.530745 
L 558.425647 419.218708 
L 558.6452 399.448863 
L 558.864753 545.096696 
L 559.084306 514.788877 
L 559.30386 506.687022 
L 559.523413 511.936542 
L 559.742966 423.499077 
L 559.742966 423.499077 
" style="fill:none;stroke:#96c69a;stroke-linecap:round;stroke-width:3;"/>
   </g>
   <g id="line2d_2"/>
   <g id="patch_3">
    <path d="M 98.911875 603.86 
L 98.911875 109.484571 
" style="fill:none;stroke:#262626;stroke-linecap:square;stroke-linejoin:miter;stroke-width:2.5;"/>
   </g>
   <g id="patch_4">
    <path d="M 98.911875 603.86 
L 581.687304 603.86 
" style="fill:none;stroke:#262626;stroke-linecap:square;stroke-linejoin:miter;stroke-width:2.5;"/>
   </g>
   <g id="legend_1">
    <g id="patch_5">
     <path d="M 528.771679 598.86 
L 574.687304 598.86 
Q 576.687304 598.86 576.687304 596.86 
L 576.687304 554.954375 
Q 576.687304 552.954375 574.687304 552.954375 
L 528.771679 552.954375 
Q 526.771679 552.954375 526.771679 554.954375 
L 526.771679 596.86 
Q 526.771679 598.86 528.771679 598.86 
z
" style="fill:#ffffff;opacity:0.8;stroke:#cccccc;stroke-linejoin:miter;stroke-width:2;"/>
    </g>
    <g id="text_18">
     <!-- $n_\tau$ -->
     <g style="fill:#262626;" transform="translate(538.649491 575.190625)scale(0.24 -0.24)">
      <defs>
       <path d="M 3566 2113 
L 3156 0 
L 2578 0 
L 2988 2091 
Q 3016 2238 3031 2350 
Q 3047 2463 3047 2528 
Q 3047 2791 2881 2937 
Q 2716 3084 2419 3084 
Q 1956 3084 1622 2776 
Q 1288 2469 1184 1941 
L 800 0 
L 225 0 
L 903 3500 
L 1478 3500 
L 1363 2950 
Q 1603 3253 1940 3418 
Q 2278 3584 2650 3584 
Q 3113 3584 3367 3334 
Q 3622 3084 3622 2631 
Q 3622 2519 3608 2391 
Q 3594 2263 3566 2113 
z
" id="DejaVuSans-Oblique-6e" transform="scale(0.015625)"/>
       <path d="M 2103 638 
Q 2188 488 2525 488 
L 2800 488 
L 2706 0 
L 2363 0 
Q 1800 0 1600 300 
Q 1403 606 1534 1269 
L 1856 2925 
L 541 2925 
L 653 3500 
L 3881 3500 
L 3769 2925 
L 2444 2925 
L 2113 1234 
Q 2025 781 2103 638 
z
" id="DejaVuSans-Oblique-3c4" transform="scale(0.015625)"/>
      </defs>
      <use xlink:href="#DejaVuSans-Oblique-6e"/>
      <use transform="translate(63.378906 -16.40625)scale(0.7)" xlink:href="#DejaVuSans-Oblique-3c4"/>
     </g>
    </g>
    <g id="line2d_3">
     <path d="M 530.771679 589.280313 
L 550.771679 589.280313 
" style="fill:none;stroke:#96c69a;stroke-linecap:round;stroke-width:3;"/>
    </g>
    <g id="line2d_4"/>
    <g id="text_19">
     <!-- 40 -->
     <g style="fill:#262626;" transform="translate(558.771679 592.780313)scale(0.1 -0.1)">
      <defs>
       <path d="M 2356 3675 
L 1038 1722 
L 2356 1722 
L 2356 3675 
z
M 2156 4666 
L 3494 4666 
L 3494 1722 
L 4159 1722 
L 4159 850 
L 3494 850 
L 3494 0 
L 2356 0 
L 2356 850 
L 288 850 
L 288 1881 
L 2156 4666 
z
" id="DejaVuSans-Bold-34" transform="scale(0.015625)"/>
       <path d="M 2944 2338 
Q 2944 3213 2780 3570 
Q 2616 3928 2228 3928 
Q 1841 3928 1675 3570 
Q 1509 3213 1509 2338 
Q 1509 1453 1675 1090 
Q 1841 728 2228 728 
Q 2613 728 2778 1090 
Q 2944 1453 2944 2338 
z
M 4147 2328 
Q 4147 1169 3647 539 
Q 3147 -91 2228 -91 
Q 1306 -91 806 539 
Q 306 1169 306 2328 
Q 306 3491 806 4120 
Q 1306 4750 2228 4750 
Q 3147 4750 3647 4120 
Q 4147 3491 4147 2328 
z
" id="DejaVuSans-Bold-30" transform="scale(0.015625)"/>
      </defs>
      <use xlink:href="#DejaVuSans-Bold-34"/>
      <use x="69.580078" xlink:href="#DejaVuSans-Bold-30"/>
     </g>
    </g>
   </g>
  </g>
  <g id="axes_2">
   <g id="patch_6">
    <path d="M 98.911875 92.437143 
L 581.687304 92.437143 
L 581.687304 7.2 
L 98.911875 7.2 
z
" style="fill:none;"/>
   </g>
   <g id="matplotlib.axis_3">
    <g id="xtick_7"/>
    <g id="xtick_8"/>
    <g id="xtick_9"/>
    <g id="xtick_10"/>
    <g id="xtick_11"/>
    <g id="xtick_12"/>
   </g>
   <g id="matplotlib.axis_4">
    <g id="ytick_10">
     <g id="text_20">
      <!-- 0 -->
      <g style="fill:#262626;" transform="translate(69.414375 100.795424)scale(0.22 -0.22)">
       <use xlink:href="#DejaVuSans-30"/>
      </g>
     </g>
    </g>
    <g id="ytick_11">
     <g id="text_21">
      <!-- 100 -->
      <g style="fill:#262626;" transform="translate(41.419375 48.082287)scale(0.22 -0.22)">
       <use xlink:href="#DejaVuSans-31"/>
       <use x="63.623047" xlink:href="#DejaVuSans-30"/>
       <use x="127.246094" xlink:href="#DejaVuSans-30"/>
      </g>
     </g>
    </g>
   </g>
   <g id="patch_7">
    <path clip-path="url(#pa577b5b86b)" d="M 120.856213 92.437143 
L 154.616732 92.437143 
L 154.616732 11.258912 
L 120.856213 11.258912 
z
" style="fill:#96c69a;fill-opacity:0.5;stroke:#ffffff;stroke-linejoin:miter;stroke-width:2;"/>
   </g>
   <g id="patch_8">
    <path clip-path="url(#pa577b5b86b)" d="M 154.616732 92.437143 
L 188.377252 92.437143 
L 188.377252 11.258912 
L 154.616732 11.258912 
z
" style="fill:#96c69a;fill-opacity:0.5;stroke:#ffffff;stroke-linejoin:miter;stroke-width:2;"/>
   </g>
   <g id="patch_9">
    <path clip-path="url(#pa577b5b86b)" d="M 188.377252 92.437143 
L 222.137771 92.437143 
L 222.137771 11.258912 
L 188.377252 11.258912 
z
" style="fill:#96c69a;fill-opacity:0.5;stroke:#ffffff;stroke-linejoin:miter;stroke-width:2;"/>
   </g>
   <g id="patch_10">
    <path clip-path="url(#pa577b5b86b)" d="M 222.137771 92.437143 
L 255.898291 92.437143 
L 255.898291 11.258912 
L 222.137771 11.258912 
z
" style="fill:#96c69a;fill-opacity:0.5;stroke:#ffffff;stroke-linejoin:miter;stroke-width:2;"/>
   </g>
   <g id="patch_11">
    <path clip-path="url(#pa577b5b86b)" d="M 255.898291 92.437143 
L 289.65881 92.437143 
L 289.65881 11.786043 
L 255.898291 11.786043 
z
" style="fill:#96c69a;fill-opacity:0.5;stroke:#ffffff;stroke-linejoin:miter;stroke-width:2;"/>
   </g>
   <g id="patch_12">
    <path clip-path="url(#pa577b5b86b)" d="M 289.65881 92.437143 
L 323.41933 92.437143 
L 323.41933 11.258912 
L 289.65881 11.258912 
z
" style="fill:#96c69a;fill-opacity:0.5;stroke:#ffffff;stroke-linejoin:miter;stroke-width:2;"/>
   </g>
   <g id="patch_13">
    <path clip-path="url(#pa577b5b86b)" d="M 323.41933 92.437143 
L 357.179849 92.437143 
L 357.179849 11.258912 
L 323.41933 11.258912 
z
" style="fill:#96c69a;fill-opacity:0.5;stroke:#ffffff;stroke-linejoin:miter;stroke-width:2;"/>
   </g>
   <g id="patch_14">
    <path clip-path="url(#pa577b5b86b)" d="M 357.179849 92.437143 
L 390.940369 92.437143 
L 390.940369 11.258912 
L 357.179849 11.258912 
z
" style="fill:#96c69a;fill-opacity:0.5;stroke:#ffffff;stroke-linejoin:miter;stroke-width:2;"/>
   </g>
   <g id="patch_15">
    <path clip-path="url(#pa577b5b86b)" d="M 390.940369 92.437143 
L 424.700888 92.437143 
L 424.700888 11.786043 
L 390.940369 11.786043 
z
" style="fill:#96c69a;fill-opacity:0.5;stroke:#ffffff;stroke-linejoin:miter;stroke-width:2;"/>
   </g>
   <g id="patch_16">
    <path clip-path="url(#pa577b5b86b)" d="M 424.700888 92.437143 
L 458.461407 92.437143 
L 458.461407 11.258912 
L 424.700888 11.258912 
z
" style="fill:#96c69a;fill-opacity:0.5;stroke:#ffffff;stroke-linejoin:miter;stroke-width:2;"/>
   </g>
   <g id="patch_17">
    <path clip-path="url(#pa577b5b86b)" d="M 458.461407 92.437143 
L 492.221927 92.437143 
L 492.221927 11.258912 
L 458.461407 11.258912 
z
" style="fill:#96c69a;fill-opacity:0.5;stroke:#ffffff;stroke-linejoin:miter;stroke-width:2;"/>
   </g>
   <g id="patch_18">
    <path clip-path="url(#pa577b5b86b)" d="M 492.221927 92.437143 
L 525.982446 92.437143 
L 525.982446 11.258912 
L 492.221927 11.258912 
z
" style="fill:#96c69a;fill-opacity:0.5;stroke:#ffffff;stroke-linejoin:miter;stroke-width:2;"/>
   </g>
   <g id="patch_19">
    <path clip-path="url(#pa577b5b86b)" d="M 525.982446 92.437143 
L 559.742966 92.437143 
L 559.742966 11.258912 
L 525.982446 11.258912 
z
" style="fill:#96c69a;fill-opacity:0.5;stroke:#ffffff;stroke-linejoin:miter;stroke-width:2;"/>
   </g>
   <g id="patch_20">
    <path d="M 98.911875 92.437143 
L 98.911875 7.2 
" style="fill:none;stroke:#262626;stroke-linecap:square;stroke-linejoin:miter;stroke-width:2.5;"/>
   </g>
   <g id="patch_21">
    <path d="M 98.911875 92.437143 
L 581.687304 92.437143 
" style="fill:none;stroke:#262626;stroke-linecap:square;stroke-linejoin:miter;stroke-width:2.5;"/>
   </g>
  </g>
  <g id="axes_3">
   <g id="patch_22">
    <path d="M 598.334732 603.86 
L 681.571875 603.86 
L 681.571875 109.484571 
L 598.334732 109.484571 
z
" style="fill:none;"/>
   </g>
   <g id="matplotlib.axis_5">
    <g id="xtick_13">
     <g id="text_22">
      <!-- 0 -->
      <g style="fill:#262626;" transform="translate(591.335982 636.076563)scale(0.22 -0.22)">
       <use xlink:href="#DejaVuSans-30"/>
      </g>
     </g>
    </g>
    <g id="xtick_14">
     <g id="text_23">
      <!-- 200 -->
      <g style="fill:#262626;" transform="translate(659.487155 636.076563)scale(0.22 -0.22)">
       <use xlink:href="#DejaVuSans-32"/>
       <use x="63.623047" xlink:href="#DejaVuSans-30"/>
       <use x="127.246094" xlink:href="#DejaVuSans-30"/>
      </g>
     </g>
    </g>
   </g>
   <g id="matplotlib.axis_6">
    <g id="ytick_12"/>
    <g id="ytick_13"/>
    <g id="ytick_14"/>
    <g id="ytick_15"/>
    <g id="ytick_16"/>
    <g id="ytick_17"/>
    <g id="ytick_18"/>
    <g id="ytick_19"/>
    <g id="ytick_20"/>
   </g>
   <g id="patch_23">
    <path clip-path="url(#p8de7fac754)" d="M 598.334732 581.38839 
L 599.977706 581.38839 
L 599.977706 569.864487 
L 598.334732 569.864487 
z
" style="fill:#96c69a;fill-opacity:0.5;stroke:#ffffff;stroke-linejoin:miter;stroke-width:1.15239;"/>
   </g>
   <g id="patch_24">
    <path clip-path="url(#p8de7fac754)" d="M 598.334732 569.864487 
L 602.031422 569.864487 
L 602.031422 558.340584 
L 598.334732 558.340584 
z
" style="fill:#96c69a;fill-opacity:0.5;stroke:#ffffff;stroke-linejoin:miter;stroke-width:1.15239;"/>
   </g>
   <g id="patch_25">
    <path clip-path="url(#p8de7fac754)" d="M 598.334732 558.340584 
L 613.532237 558.340584 
L 613.532237 546.816681 
L 598.334732 546.816681 
z
" style="fill:#96c69a;fill-opacity:0.5;stroke:#ffffff;stroke-linejoin:miter;stroke-width:1.15239;"/>
   </g>
   <g id="patch_26">
    <path clip-path="url(#p8de7fac754)" d="M 598.334732 546.816681 
L 623.800821 546.816681 
L 623.800821 535.292779 
L 598.334732 535.292779 
z
" style="fill:#96c69a;fill-opacity:0.5;stroke:#ffffff;stroke-linejoin:miter;stroke-width:1.15239;"/>
   </g>
   <g id="patch_27">
    <path clip-path="url(#p8de7fac754)" d="M 598.334732 535.292779 
L 637.766095 535.292779 
L 637.766095 523.768876 
L 598.334732 523.768876 
z
" style="fill:#96c69a;fill-opacity:0.5;stroke:#ffffff;stroke-linejoin:miter;stroke-width:1.15239;"/>
   </g>
   <g id="patch_28">
    <path clip-path="url(#p8de7fac754)" d="M 598.334732 523.768876 
L 653.374343 523.768876 
L 653.374343 512.244973 
L 598.334732 512.244973 
z
" style="fill:#96c69a;fill-opacity:0.5;stroke:#ffffff;stroke-linejoin:miter;stroke-width:1.15239;"/>
   </g>
   <g id="patch_29">
    <path clip-path="url(#p8de7fac754)" d="M 598.334732 512.244973 
L 666.107387 512.244973 
L 666.107387 500.72107 
L 598.334732 500.72107 
z
" style="fill:#96c69a;fill-opacity:0.5;stroke:#ffffff;stroke-linejoin:miter;stroke-width:1.15239;"/>
   </g>
   <g id="patch_30">
    <path clip-path="url(#p8de7fac754)" d="M 598.334732 500.72107 
L 677.608202 500.72107 
L 677.608202 489.197167 
L 598.334732 489.197167 
z
" style="fill:#96c69a;fill-opacity:0.5;stroke:#ffffff;stroke-linejoin:miter;stroke-width:1.15239;"/>
   </g>
   <g id="patch_31">
    <path clip-path="url(#p8de7fac754)" d="M 598.334732 489.197167 
L 670.214821 489.197167 
L 670.214821 477.673265 
L 598.334732 477.673265 
z
" style="fill:#96c69a;fill-opacity:0.5;stroke:#ffffff;stroke-linejoin:miter;stroke-width:1.15239;"/>
   </g>
   <g id="patch_32">
    <path clip-path="url(#p8de7fac754)" d="M 598.334732 477.673265 
L 666.107387 477.673265 
L 666.107387 466.149362 
L 598.334732 466.149362 
z
" style="fill:#96c69a;fill-opacity:0.5;stroke:#ffffff;stroke-linejoin:miter;stroke-width:1.15239;"/>
   </g>
   <g id="patch_33">
    <path clip-path="url(#p8de7fac754)" d="M 598.334732 466.149362 
L 661.178467 466.149362 
L 661.178467 454.625459 
L 598.334732 454.625459 
z
" style="fill:#96c69a;fill-opacity:0.5;stroke:#ffffff;stroke-linejoin:miter;stroke-width:1.15239;"/>
   </g>
   <g id="patch_34">
    <path clip-path="url(#p8de7fac754)" d="M 598.334732 454.625459 
L 657.071033 454.625459 
L 657.071033 443.101556 
L 598.334732 443.101556 
z
" style="fill:#96c69a;fill-opacity:0.5;stroke:#ffffff;stroke-linejoin:miter;stroke-width:1.15239;"/>
   </g>
   <g id="patch_35">
    <path clip-path="url(#p8de7fac754)" d="M 598.334732 443.101556 
L 652.9636 443.101556 
L 652.9636 431.577654 
L 598.334732 431.577654 
z
" style="fill:#96c69a;fill-opacity:0.5;stroke:#ffffff;stroke-linejoin:miter;stroke-width:1.15239;"/>
   </g>
   <g id="patch_36">
    <path clip-path="url(#p8de7fac754)" d="M 598.334732 431.577654 
L 643.516502 431.577654 
L 643.516502 420.053751 
L 598.334732 420.053751 
z
" style="fill:#96c69a;fill-opacity:0.5;stroke:#ffffff;stroke-linejoin:miter;stroke-width:1.15239;"/>
   </g>
   <g id="patch_37">
    <path clip-path="url(#p8de7fac754)" d="M 598.334732 420.053751 
L 632.837175 420.053751 
L 632.837175 408.529848 
L 598.334732 408.529848 
z
" style="fill:#96c69a;fill-opacity:0.5;stroke:#ffffff;stroke-linejoin:miter;stroke-width:1.15239;"/>
   </g>
   <g id="patch_38">
    <path clip-path="url(#p8de7fac754)" d="M 598.334732 408.529848 
L 625.854538 408.529848 
L 625.854538 397.005945 
L 598.334732 397.005945 
z
" style="fill:#96c69a;fill-opacity:0.5;stroke:#ffffff;stroke-linejoin:miter;stroke-width:1.15239;"/>
   </g>
   <g id="patch_39">
    <path clip-path="url(#p8de7fac754)" d="M 598.334732 397.005945 
L 620.514874 397.005945 
L 620.514874 385.482043 
L 598.334732 385.482043 
z
" style="fill:#96c69a;fill-opacity:0.5;stroke:#ffffff;stroke-linejoin:miter;stroke-width:1.15239;"/>
   </g>
   <g id="patch_40">
    <path clip-path="url(#p8de7fac754)" d="M 598.334732 385.482043 
L 619.282644 385.482043 
L 619.282644 373.95814 
L 598.334732 373.95814 
z
" style="fill:#96c69a;fill-opacity:0.5;stroke:#ffffff;stroke-linejoin:miter;stroke-width:1.15239;"/>
   </g>
   <g id="patch_41">
    <path clip-path="url(#p8de7fac754)" d="M 598.334732 373.95814 
L 613.532237 373.95814 
L 613.532237 362.434237 
L 598.334732 362.434237 
z
" style="fill:#96c69a;fill-opacity:0.5;stroke:#ffffff;stroke-linejoin:miter;stroke-width:1.15239;"/>
   </g>
   <g id="patch_42">
    <path clip-path="url(#p8de7fac754)" d="M 598.334732 362.434237 
L 609.424803 362.434237 
L 609.424803 350.910334 
L 598.334732 350.910334 
z
" style="fill:#96c69a;fill-opacity:0.5;stroke:#ffffff;stroke-linejoin:miter;stroke-width:1.15239;"/>
   </g>
   <g id="patch_43">
    <path clip-path="url(#p8de7fac754)" d="M 598.334732 350.910334 
L 607.371086 350.910334 
L 607.371086 339.386432 
L 598.334732 339.386432 
z
" style="fill:#96c69a;fill-opacity:0.5;stroke:#ffffff;stroke-linejoin:miter;stroke-width:1.15239;"/>
   </g>
   <g id="patch_44">
    <path clip-path="url(#p8de7fac754)" d="M 598.334732 339.386432 
L 603.263653 339.386432 
L 603.263653 327.862529 
L 598.334732 327.862529 
z
" style="fill:#96c69a;fill-opacity:0.5;stroke:#ffffff;stroke-linejoin:miter;stroke-width:1.15239;"/>
   </g>
   <g id="patch_45">
    <path clip-path="url(#p8de7fac754)" d="M 598.334732 327.862529 
L 606.549599 327.862529 
L 606.549599 316.338626 
L 598.334732 316.338626 
z
" style="fill:#96c69a;fill-opacity:0.5;stroke:#ffffff;stroke-linejoin:miter;stroke-width:1.15239;"/>
   </g>
   <g id="patch_46">
    <path clip-path="url(#p8de7fac754)" d="M 598.334732 316.338626 
L 602.852909 316.338626 
L 602.852909 304.814723 
L 598.334732 304.814723 
z
" style="fill:#96c69a;fill-opacity:0.5;stroke:#ffffff;stroke-linejoin:miter;stroke-width:1.15239;"/>
   </g>
   <g id="patch_47">
    <path clip-path="url(#p8de7fac754)" d="M 598.334732 304.814723 
L 603.263653 304.814723 
L 603.263653 293.290821 
L 598.334732 293.290821 
z
" style="fill:#96c69a;fill-opacity:0.5;stroke:#ffffff;stroke-linejoin:miter;stroke-width:1.15239;"/>
   </g>
   <g id="patch_48">
    <path clip-path="url(#p8de7fac754)" d="M 598.334732 293.290821 
L 599.977706 293.290821 
L 599.977706 281.766918 
L 598.334732 281.766918 
z
" style="fill:#96c69a;fill-opacity:0.5;stroke:#ffffff;stroke-linejoin:miter;stroke-width:1.15239;"/>
   </g>
   <g id="patch_49">
    <path clip-path="url(#p8de7fac754)" d="M 598.334732 281.766918 
L 600.799192 281.766918 
L 600.799192 270.243015 
L 598.334732 270.243015 
z
" style="fill:#96c69a;fill-opacity:0.5;stroke:#ffffff;stroke-linejoin:miter;stroke-width:1.15239;"/>
   </g>
   <g id="patch_50">
    <path clip-path="url(#p8de7fac754)" d="M 598.334732 270.243015 
L 599.156219 270.243015 
L 599.156219 258.719112 
L 598.334732 258.719112 
z
" style="fill:#96c69a;fill-opacity:0.5;stroke:#ffffff;stroke-linejoin:miter;stroke-width:1.15239;"/>
   </g>
   <g id="patch_51">
    <path clip-path="url(#p8de7fac754)" d="M 598.334732 258.719112 
L 599.977706 258.719112 
L 599.977706 247.195209 
L 598.334732 247.195209 
z
" style="fill:#96c69a;fill-opacity:0.5;stroke:#ffffff;stroke-linejoin:miter;stroke-width:1.15239;"/>
   </g>
   <g id="patch_52">
    <path clip-path="url(#p8de7fac754)" d="M 598.334732 247.195209 
L 599.156219 247.195209 
L 599.156219 235.671307 
L 598.334732 235.671307 
z
" style="fill:#96c69a;fill-opacity:0.5;stroke:#ffffff;stroke-linejoin:miter;stroke-width:1.15239;"/>
   </g>
   <g id="patch_53">
    <path clip-path="url(#p8de7fac754)" d="M 598.334732 235.671307 
L 598.334732 235.671307 
L 598.334732 224.147404 
L 598.334732 224.147404 
z
" style="fill:#96c69a;fill-opacity:0.5;stroke:#ffffff;stroke-linejoin:miter;stroke-width:1.15239;"/>
   </g>
   <g id="patch_54">
    <path clip-path="url(#p8de7fac754)" d="M 598.334732 224.147404 
L 598.745476 224.147404 
L 598.745476 212.623501 
L 598.334732 212.623501 
z
" style="fill:#96c69a;fill-opacity:0.5;stroke:#ffffff;stroke-linejoin:miter;stroke-width:1.15239;"/>
   </g>
   <g id="patch_55">
    <path clip-path="url(#p8de7fac754)" d="M 598.334732 212.623501 
L 598.745476 212.623501 
L 598.745476 201.099598 
L 598.334732 201.099598 
z
" style="fill:#96c69a;fill-opacity:0.5;stroke:#ffffff;stroke-linejoin:miter;stroke-width:1.15239;"/>
   </g>
   <g id="patch_56">
    <path clip-path="url(#p8de7fac754)" d="M 598.334732 201.099598 
L 599.156219 201.099598 
L 599.156219 189.575696 
L 598.334732 189.575696 
z
" style="fill:#96c69a;fill-opacity:0.5;stroke:#ffffff;stroke-linejoin:miter;stroke-width:1.15239;"/>
   </g>
   <g id="patch_57">
    <path clip-path="url(#p8de7fac754)" d="M 598.334732 189.575696 
L 598.745476 189.575696 
L 598.745476 178.051793 
L 598.334732 178.051793 
z
" style="fill:#96c69a;fill-opacity:0.5;stroke:#ffffff;stroke-linejoin:miter;stroke-width:1.15239;"/>
   </g>
   <g id="patch_58">
    <path clip-path="url(#p8de7fac754)" d="M 598.334732 178.051793 
L 598.334732 178.051793 
L 598.334732 166.52789 
L 598.334732 166.52789 
z
" style="fill:#96c69a;fill-opacity:0.5;stroke:#ffffff;stroke-linejoin:miter;stroke-width:1.15239;"/>
   </g>
   <g id="patch_59">
    <path clip-path="url(#p8de7fac754)" d="M 598.334732 166.52789 
L 598.334732 166.52789 
L 598.334732 155.003987 
L 598.334732 155.003987 
z
" style="fill:#96c69a;fill-opacity:0.5;stroke:#ffffff;stroke-linejoin:miter;stroke-width:1.15239;"/>
   </g>
   <g id="patch_60">
    <path clip-path="url(#p8de7fac754)" d="M 598.334732 155.003987 
L 598.334732 155.003987 
L 598.334732 143.480085 
L 598.334732 143.480085 
z
" style="fill:#96c69a;fill-opacity:0.5;stroke:#ffffff;stroke-linejoin:miter;stroke-width:1.15239;"/>
   </g>
   <g id="patch_61">
    <path clip-path="url(#p8de7fac754)" d="M 598.334732 143.480085 
L 598.745476 143.480085 
L 598.745476 131.956182 
L 598.334732 131.956182 
z
" style="fill:#96c69a;fill-opacity:0.5;stroke:#ffffff;stroke-linejoin:miter;stroke-width:1.15239;"/>
   </g>
   <g id="patch_62">
    <path d="M 598.334732 603.86 
L 598.334732 109.484571 
" style="fill:none;stroke:#262626;stroke-linecap:square;stroke-linejoin:miter;stroke-width:2.5;"/>
   </g>
   <g id="patch_63">
    <path d="M 598.334732 603.86 
L 681.571875 603.86 
" style="fill:none;stroke:#262626;stroke-linecap:square;stroke-linejoin:miter;stroke-width:2.5;"/>
   </g>
  </g>
 </g>
 <defs>
  <clipPath id="pe123672b86">
   <rect height="494.375429" width="482.775429" x="98.911875" y="109.484571"/>
  </clipPath>
  <clipPath id="pa577b5b86b">
   <rect height="85.237143" width="482.775429" x="98.911875" y="7.2"/>
  </clipPath>
  <clipPath id="p8de7fac754">
   <rect height="494.375429" width="83.237143" x="598.334732" y="109.484571"/>
  </clipPath>
 </defs>
</svg>
