<?xml version="1.0" encoding="utf-8" standalone="no"?>
<!DOCTYPE svg PUBLIC "-//W3C//DTD SVG 1.1//EN"
  "http://www.w3.org/Graphics/SVG/1.1/DTD/svg11.dtd">
<svg height="675.079375pt" version="1.1" viewBox="0 0 674.774375 675.079375" width="674.774375pt" xmlns="http://www.w3.org/2000/svg" xmlns:xlink="http://www.w3.org/1999/xlink">
 <metadata>
  <rdf:RDF xmlns:cc="http://creativecommons.org/ns#" xmlns:dc="http://purl.org/dc/elements/1.1/" xmlns:rdf="http://www.w3.org/1999/02/22-rdf-syntax-ns#">
   <cc:Work>
    <dc:type rdf:resource="http://purl.org/dc/dcmitype/StillImage"/>
    <dc:date>2021-07-16T21:43:54.909347</dc:date>
    <dc:format>image/svg+xml</dc:format>
    <dc:creator>
     <cc:Agent>
      <dc:title>Matplotlib v3.4.2, https://matplotlib.org/</dc:title>
     </cc:Agent>
    </dc:creator>
   </cc:Work>
  </rdf:RDF>
 </metadata>
 <defs>
  <style type="text/css">*{stroke-linecap:butt;stroke-linejoin:round;}</style>
 </defs>
 <g id="figure_1">
  <g id="patch_1">
   <path d="M 0 675.079375 
L 674.774375 675.079375 
L 674.774375 0 
L 0 0 
z
" style="fill:#ffffff;"/>
  </g>
  <g id="axes_1">
   <g id="patch_2">
    <path d="M 84.914375 603.86 
L 567.689804 603.86 
L 567.689804 109.484571 
L 84.914375 109.484571 
z
" style="fill:none;"/>
   </g>
   <g id="matplotlib.axis_1">
    <g id="xtick_1">
     <g id="text_1">
      <!-- 0 -->
      <g style="fill:#262626;" transform="translate(99.64041 636.076563)scale(0.22 -0.22)">
       <defs>
        <path d="M 2034 4250 
Q 1547 4250 1301 3770 
Q 1056 3291 1056 2328 
Q 1056 1369 1301 889 
Q 1547 409 2034 409 
Q 2525 409 2770 889 
Q 3016 1369 3016 2328 
Q 3016 3291 2770 3770 
Q 2525 4250 2034 4250 
z
M 2034 4750 
Q 2819 4750 3233 4129 
Q 3647 3509 3647 2328 
Q 3647 1150 3233 529 
Q 2819 -91 2034 -91 
Q 1250 -91 836 529 
Q 422 1150 422 2328 
Q 422 3509 836 4129 
Q 1250 4750 2034 4750 
z
" id="DejaVuSans-30" transform="scale(0.015625)"/>
       </defs>
       <use xlink:href="#DejaVuSans-30"/>
      </g>
     </g>
    </g>
    <g id="xtick_2">
     <g id="text_2">
      <!-- 20000 -->
      <g style="fill:#262626;" transform="translate(159.466671 636.076563)scale(0.22 -0.22)">
       <defs>
        <path d="M 1228 531 
L 3431 531 
L 3431 0 
L 469 0 
L 469 531 
Q 828 903 1448 1529 
Q 2069 2156 2228 2338 
Q 2531 2678 2651 2914 
Q 2772 3150 2772 3378 
Q 2772 3750 2511 3984 
Q 2250 4219 1831 4219 
Q 1534 4219 1204 4116 
Q 875 4013 500 3803 
L 500 4441 
Q 881 4594 1212 4672 
Q 1544 4750 1819 4750 
Q 2544 4750 2975 4387 
Q 3406 4025 3406 3419 
Q 3406 3131 3298 2873 
Q 3191 2616 2906 2266 
Q 2828 2175 2409 1742 
Q 1991 1309 1228 531 
z
" id="DejaVuSans-32" transform="scale(0.015625)"/>
       </defs>
       <use xlink:href="#DejaVuSans-32"/>
       <use x="63.623047" xlink:href="#DejaVuSans-30"/>
       <use x="127.246094" xlink:href="#DejaVuSans-30"/>
       <use x="190.869141" xlink:href="#DejaVuSans-30"/>
       <use x="254.492188" xlink:href="#DejaVuSans-30"/>
      </g>
     </g>
    </g>
    <g id="xtick_3">
     <g id="text_3">
      <!-- 40000 -->
      <g style="fill:#262626;" transform="translate(247.287932 636.076563)scale(0.22 -0.22)">
       <defs>
        <path d="M 2419 4116 
L 825 1625 
L 2419 1625 
L 2419 4116 
z
M 2253 4666 
L 3047 4666 
L 3047 1625 
L 3713 1625 
L 3713 1100 
L 3047 1100 
L 3047 0 
L 2419 0 
L 2419 1100 
L 313 1100 
L 313 1709 
L 2253 4666 
z
" id="DejaVuSans-34" transform="scale(0.015625)"/>
       </defs>
       <use xlink:href="#DejaVuSans-34"/>
       <use x="63.623047" xlink:href="#DejaVuSans-30"/>
       <use x="127.246094" xlink:href="#DejaVuSans-30"/>
       <use x="190.869141" xlink:href="#DejaVuSans-30"/>
       <use x="254.492188" xlink:href="#DejaVuSans-30"/>
      </g>
     </g>
    </g>
    <g id="xtick_4">
     <g id="text_4">
      <!-- 60000 -->
      <g style="fill:#262626;" transform="translate(335.109193 636.076563)scale(0.22 -0.22)">
       <defs>
        <path d="M 2113 2584 
Q 1688 2584 1439 2293 
Q 1191 2003 1191 1497 
Q 1191 994 1439 701 
Q 1688 409 2113 409 
Q 2538 409 2786 701 
Q 3034 994 3034 1497 
Q 3034 2003 2786 2293 
Q 2538 2584 2113 2584 
z
M 3366 4563 
L 3366 3988 
Q 3128 4100 2886 4159 
Q 2644 4219 2406 4219 
Q 1781 4219 1451 3797 
Q 1122 3375 1075 2522 
Q 1259 2794 1537 2939 
Q 1816 3084 2150 3084 
Q 2853 3084 3261 2657 
Q 3669 2231 3669 1497 
Q 3669 778 3244 343 
Q 2819 -91 2113 -91 
Q 1303 -91 875 529 
Q 447 1150 447 2328 
Q 447 3434 972 4092 
Q 1497 4750 2381 4750 
Q 2619 4750 2861 4703 
Q 3103 4656 3366 4563 
z
" id="DejaVuSans-36" transform="scale(0.015625)"/>
       </defs>
       <use xlink:href="#DejaVuSans-36"/>
       <use x="63.623047" xlink:href="#DejaVuSans-30"/>
       <use x="127.246094" xlink:href="#DejaVuSans-30"/>
       <use x="190.869141" xlink:href="#DejaVuSans-30"/>
       <use x="254.492188" xlink:href="#DejaVuSans-30"/>
      </g>
     </g>
    </g>
    <g id="xtick_5">
     <g id="text_5">
      <!-- 80000 -->
      <g style="fill:#262626;" transform="translate(422.930455 636.076563)scale(0.22 -0.22)">
       <defs>
        <path d="M 2034 2216 
Q 1584 2216 1326 1975 
Q 1069 1734 1069 1313 
Q 1069 891 1326 650 
Q 1584 409 2034 409 
Q 2484 409 2743 651 
Q 3003 894 3003 1313 
Q 3003 1734 2745 1975 
Q 2488 2216 2034 2216 
z
M 1403 2484 
Q 997 2584 770 2862 
Q 544 3141 544 3541 
Q 544 4100 942 4425 
Q 1341 4750 2034 4750 
Q 2731 4750 3128 4425 
Q 3525 4100 3525 3541 
Q 3525 3141 3298 2862 
Q 3072 2584 2669 2484 
Q 3125 2378 3379 2068 
Q 3634 1759 3634 1313 
Q 3634 634 3220 271 
Q 2806 -91 2034 -91 
Q 1263 -91 848 271 
Q 434 634 434 1313 
Q 434 1759 690 2068 
Q 947 2378 1403 2484 
z
M 1172 3481 
Q 1172 3119 1398 2916 
Q 1625 2713 2034 2713 
Q 2441 2713 2670 2916 
Q 2900 3119 2900 3481 
Q 2900 3844 2670 4047 
Q 2441 4250 2034 4250 
Q 1625 4250 1398 4047 
Q 1172 3844 1172 3481 
z
" id="DejaVuSans-38" transform="scale(0.015625)"/>
       </defs>
       <use xlink:href="#DejaVuSans-38"/>
       <use x="63.623047" xlink:href="#DejaVuSans-30"/>
       <use x="127.246094" xlink:href="#DejaVuSans-30"/>
       <use x="190.869141" xlink:href="#DejaVuSans-30"/>
       <use x="254.492188" xlink:href="#DejaVuSans-30"/>
      </g>
     </g>
    </g>
    <g id="xtick_6">
     <g id="text_6">
      <!-- 100000 -->
      <g style="fill:#262626;" transform="translate(503.752966 636.076563)scale(0.22 -0.22)">
       <defs>
        <path d="M 794 531 
L 1825 531 
L 1825 4091 
L 703 3866 
L 703 4441 
L 1819 4666 
L 2450 4666 
L 2450 531 
L 3481 531 
L 3481 0 
L 794 0 
L 794 531 
z
" id="DejaVuSans-31" transform="scale(0.015625)"/>
       </defs>
       <use xlink:href="#DejaVuSans-31"/>
       <use x="63.623047" xlink:href="#DejaVuSans-30"/>
       <use x="127.246094" xlink:href="#DejaVuSans-30"/>
       <use x="190.869141" xlink:href="#DejaVuSans-30"/>
       <use x="254.492188" xlink:href="#DejaVuSans-30"/>
       <use x="318.115234" xlink:href="#DejaVuSans-30"/>
      </g>
     </g>
    </g>
    <g id="text_7">
     <!-- MDTU -->
     <g style="fill:#262626;" transform="translate(290.596464 662.888125)scale(0.24 -0.24)">
      <defs>
       <path d="M 628 4666 
L 1569 4666 
L 2759 1491 
L 3956 4666 
L 4897 4666 
L 4897 0 
L 4281 0 
L 4281 4097 
L 3078 897 
L 2444 897 
L 1241 4097 
L 1241 0 
L 628 0 
L 628 4666 
z
" id="DejaVuSans-4d" transform="scale(0.015625)"/>
       <path d="M 1259 4147 
L 1259 519 
L 2022 519 
Q 2988 519 3436 956 
Q 3884 1394 3884 2338 
Q 3884 3275 3436 3711 
Q 2988 4147 2022 4147 
L 1259 4147 
z
M 628 4666 
L 1925 4666 
Q 3281 4666 3915 4102 
Q 4550 3538 4550 2338 
Q 4550 1131 3912 565 
Q 3275 0 1925 0 
L 628 0 
L 628 4666 
z
" id="DejaVuSans-44" transform="scale(0.015625)"/>
       <path d="M -19 4666 
L 3928 4666 
L 3928 4134 
L 2272 4134 
L 2272 0 
L 1638 0 
L 1638 4134 
L -19 4134 
L -19 4666 
z
" id="DejaVuSans-54" transform="scale(0.015625)"/>
       <path d="M 556 4666 
L 1191 4666 
L 1191 1831 
Q 1191 1081 1462 751 
Q 1734 422 2344 422 
Q 2950 422 3222 751 
Q 3494 1081 3494 1831 
L 3494 4666 
L 4128 4666 
L 4128 1753 
Q 4128 841 3676 375 
Q 3225 -91 2344 -91 
Q 1459 -91 1007 375 
Q 556 841 556 1753 
L 556 4666 
z
" id="DejaVuSans-55" transform="scale(0.015625)"/>
      </defs>
      <use xlink:href="#DejaVuSans-4d"/>
      <use x="86.279297" xlink:href="#DejaVuSans-44"/>
      <use x="163.28125" xlink:href="#DejaVuSans-54"/>
      <use x="224.365234" xlink:href="#DejaVuSans-55"/>
     </g>
    </g>
   </g>
   <g id="matplotlib.axis_2">
    <g id="ytick_1">
     <g id="text_8">
      <!-- 0.5 -->
      <g style="fill:#262626;" transform="translate(34.4275 524.665792)scale(0.22 -0.22)">
       <defs>
        <path d="M 684 794 
L 1344 794 
L 1344 0 
L 684 0 
L 684 794 
z
" id="DejaVuSans-2e" transform="scale(0.015625)"/>
        <path d="M 691 4666 
L 3169 4666 
L 3169 4134 
L 1269 4134 
L 1269 2991 
Q 1406 3038 1543 3061 
Q 1681 3084 1819 3084 
Q 2600 3084 3056 2656 
Q 3513 2228 3513 1497 
Q 3513 744 3044 326 
Q 2575 -91 1722 -91 
Q 1428 -91 1123 -41 
Q 819 9 494 109 
L 494 744 
Q 775 591 1075 516 
Q 1375 441 1709 441 
Q 2250 441 2565 725 
Q 2881 1009 2881 1497 
Q 2881 1984 2565 2268 
Q 2250 2553 1709 2553 
Q 1456 2553 1204 2497 
Q 953 2441 691 2322 
L 691 4666 
z
" id="DejaVuSans-35" transform="scale(0.015625)"/>
       </defs>
       <use xlink:href="#DejaVuSans-30"/>
       <use x="63.623047" xlink:href="#DejaVuSans-2e"/>
       <use x="95.410156" xlink:href="#DejaVuSans-35"/>
      </g>
     </g>
    </g>
    <g id="ytick_2">
     <g id="text_9">
      <!-- 1.0 -->
      <g style="fill:#262626;" transform="translate(34.4275 427.269825)scale(0.22 -0.22)">
       <use xlink:href="#DejaVuSans-31"/>
       <use x="63.623047" xlink:href="#DejaVuSans-2e"/>
       <use x="95.410156" xlink:href="#DejaVuSans-30"/>
      </g>
     </g>
    </g>
    <g id="ytick_3">
     <g id="text_10">
      <!-- 1.5 -->
      <g style="fill:#262626;" transform="translate(34.4275 329.873858)scale(0.22 -0.22)">
       <use xlink:href="#DejaVuSans-31"/>
       <use x="63.623047" xlink:href="#DejaVuSans-2e"/>
       <use x="95.410156" xlink:href="#DejaVuSans-35"/>
      </g>
     </g>
    </g>
    <g id="ytick_4">
     <g id="text_11">
      <!-- 2.0 -->
      <g style="fill:#262626;" transform="translate(34.4275 232.477891)scale(0.22 -0.22)">
       <use xlink:href="#DejaVuSans-32"/>
       <use x="63.623047" xlink:href="#DejaVuSans-2e"/>
       <use x="95.410156" xlink:href="#DejaVuSans-30"/>
      </g>
     </g>
    </g>
    <g id="ytick_5">
     <g id="text_12">
      <!-- 2.5 -->
      <g style="fill:#262626;" transform="translate(34.4275 135.081924)scale(0.22 -0.22)">
       <use xlink:href="#DejaVuSans-32"/>
       <use x="63.623047" xlink:href="#DejaVuSans-2e"/>
       <use x="95.410156" xlink:href="#DejaVuSans-35"/>
      </g>
     </g>
    </g>
    <g id="text_13">
     <!-- $E$ -->
     <g style="fill:#262626;" transform="translate(25.43625 364.352286)rotate(-90)scale(0.24 -0.24)">
      <defs>
       <path d="M 1081 4666 
L 4031 4666 
L 3928 4134 
L 1606 4134 
L 1338 2753 
L 3566 2753 
L 3463 2222 
L 1234 2222 
L 909 531 
L 3284 531 
L 3181 0 
L 172 0 
L 1081 4666 
z
" id="DejaVuSans-Oblique-45" transform="scale(0.015625)"/>
      </defs>
      <use transform="translate(0 0.09375)" xlink:href="#DejaVuSans-Oblique-45"/>
     </g>
    </g>
   </g>
   <g id="line2d_1">
    <path clip-path="url(#p5de1719ed5)" d="M 106.858713 498.169251 
L 107.078266 372.956731 
L 107.297819 479.500229 
L 107.517372 511.051464 
L 107.736925 413.804959 
L 107.956478 430.235132 
L 108.176032 366.057129 
L 108.395585 468.619516 
L 108.615138 316.758642 
L 108.834691 493.043137 
L 109.054244 490.845496 
L 109.273797 526.56999 
L 109.493351 476.061023 
L 109.712904 514.70062 
L 109.932457 528.768411 
L 110.15201 519.571301 
L 110.371563 477.039909 
L 110.591116 538.604718 
L 111.030223 434.445532 
L 111.249776 537.311578 
L 111.469329 452.520849 
L 111.688882 536.423731 
L 111.908435 481.135455 
L 112.127988 528.046929 
L 112.347541 495.474163 
L 112.567095 405.467821 
L 112.786648 480.418081 
L 113.006201 447.938669 
L 113.225754 500.295051 
L 113.445307 508.450871 
L 113.66486 529.611798 
L 113.884414 479.939245 
L 114.103967 529.649317 
L 114.543073 435.283707 
L 114.762626 505.911465 
L 114.982179 470.601982 
L 115.201732 488.579776 
L 115.421286 401.938848 
L 115.640839 462.396686 
L 115.860392 393.414101 
L 116.079945 515.809864 
L 116.299498 507.689525 
L 116.519051 470.390696 
L 116.738605 454.502839 
L 116.958158 376.513292 
L 117.177711 540.317269 
L 117.397264 379.090025 
L 117.616817 522.094173 
L 117.83637 457.486517 
L 118.055923 473.110284 
L 118.275477 470.089429 
L 118.49503 418.331834 
L 118.714583 436.290453 
L 118.934136 480.92116 
L 119.153689 459.242104 
L 119.373242 411.478647 
L 119.592796 476.276522 
L 119.812349 502.552776 
L 120.031902 547.193512 
L 120.251455 475.940432 
L 120.471008 498.80426 
L 120.690561 422.522753 
L 120.910114 443.928008 
L 121.129668 386.977549 
L 121.349221 522.16151 
L 121.568774 460.462527 
L 121.788327 508.613892 
L 122.00788 463.960683 
L 122.227433 381.832741 
L 122.446987 518.359402 
L 122.886093 366.978721 
L 123.105646 558.969931 
L 123.325199 523.279894 
L 123.544752 386.427186 
L 123.764305 559.467769 
L 123.983859 374.221058 
L 124.422965 494.538265 
L 124.642518 465.933038 
L 125.301178 518.983335 
L 125.520731 508.106238 
L 125.740284 458.58684 
L 125.959837 438.491478 
L 126.17939 525.874231 
L 126.398943 482.851503 
L 126.618496 494.487154 
L 126.83805 401.964079 
L 127.057603 518.639285 
L 127.277156 483.533035 
L 127.496709 535.984304 
L 127.716262 330.238241 
L 127.935815 548.033754 
L 128.155369 499.845758 
L 128.374922 526.761894 
L 128.594475 503.146564 
L 128.814028 516.956049 
L 129.253134 438.643643 
L 129.472687 544.274738 
L 129.692241 327.925999 
L 129.911794 451.766743 
L 130.3509 542.070756 
L 130.570453 446.056715 
L 130.790006 454.625301 
L 131.00956 442.583904 
L 131.229113 215.013093 
L 131.448666 428.180277 
L 131.668219 400.759659 
L 131.887772 354.196476 
L 132.107325 519.240801 
L 132.326878 520.398726 
L 132.765985 393.4092 
L 132.985538 493.978663 
L 133.205091 432.175609 
L 133.424644 524.065025 
L 133.644197 512.223642 
L 133.863751 163.466034 
L 134.083304 519.546901 
L 134.302857 470.302937 
L 134.52241 482.328765 
L 134.741963 525.788388 
L 134.961516 425.779132 
L 135.181069 493.509016 
L 135.400623 416.967036 
L 135.620176 523.986756 
L 135.839729 483.307412 
L 136.059282 326.929667 
L 136.278835 427.670896 
L 136.498388 453.927893 
L 136.717941 408.907382 
L 136.937495 480.711007 
L 137.157048 383.628912 
L 137.376601 484.096169 
L 137.596154 475.867963 
L 137.815707 194.03454 
L 138.03526 528.997266 
L 138.254814 538.884852 
L 138.474367 406.182542 
L 138.69392 516.172566 
L 138.913473 486.856573 
L 139.133026 489.294326 
L 139.352579 498.384374 
L 139.572132 491.774444 
L 139.791686 381.114577 
L 140.011239 504.932054 
L 140.450345 369.049741 
L 140.669898 419.606875 
L 140.889451 541.987125 
L 141.109005 399.880104 
L 141.328558 466.832833 
L 141.548111 455.456814 
L 141.767664 530.044594 
L 141.987217 505.138233 
L 142.20677 385.124415 
L 142.426323 513.220679 
L 142.645877 542.873022 
L 143.304536 389.683254 
L 143.743642 474.894618 
L 143.963196 442.519317 
L 144.182749 501.130462 
L 144.402302 447.836395 
L 144.841408 525.439072 
L 145.060961 422.101056 
L 145.500068 493.687779 
L 145.719621 499.515168 
L 145.939174 388.951886 
L 146.158727 500.701179 
L 146.37828 506.170576 
L 146.597833 402.66313 
L 146.817387 479.307726 
L 147.03694 493.933204 
L 147.256493 400.510499 
L 147.476046 466.276635 
L 147.695599 419.010465 
L 147.915152 530.625951 
L 148.354259 463.373875 
L 148.573812 291.77644 
L 148.793365 511.009397 
L 149.012918 204.241579 
L 149.232471 425.172442 
L 149.452024 443.168788 
L 149.671578 221.472074 
L 149.891131 507.176746 
L 150.110684 453.955676 
L 150.330237 526.844833 
L 150.54979 484.57759 
L 150.769343 526.21283 
L 150.988896 463.600204 
L 151.20845 461.986539 
L 151.428003 438.510919 
L 151.647556 355.657508 
L 151.867109 438.719165 
L 152.086662 469.477178 
L 152.306215 475.387574 
L 152.525769 388.861425 
L 152.745322 485.117452 
L 152.964875 448.769827 
L 153.184428 497.456104 
L 153.623534 382.403457 
L 153.843087 492.59207 
L 154.062641 531.764102 
L 154.282194 290.002042 
L 154.501747 532.630257 
L 154.7213 334.692529 
L 154.940853 456.407687 
L 155.160406 481.567913 
L 155.37996 397.40787 
L 155.599513 517.972042 
L 155.819066 472.97831 
L 156.038619 478.418361 
L 156.258172 451.041076 
L 156.477725 517.61569 
L 156.916832 455.496098 
L 157.136385 477.97659 
L 157.575491 252.916357 
L 157.795044 473.385971 
L 158.014597 465.874681 
L 158.234151 484.774829 
L 158.453704 541.40013 
L 158.89281 393.983 
L 159.112363 427.123345 
L 159.331916 503.78049 
L 159.551469 524.367318 
L 159.771023 416.780896 
L 159.990576 493.590212 
L 160.210129 444.377226 
L 160.429682 467.681199 
L 160.649235 319.578085 
L 160.868788 425.934572 
L 161.088342 421.067562 
L 161.307895 376.337097 
L 161.747001 527.443581 
L 161.966554 439.85373 
L 162.186107 422.800509 
L 162.40566 151.780459 
L 162.625214 528.116097 
L 162.844767 524.009106 
L 163.06432 422.373693 
L 163.283873 533.577447 
L 163.503426 536.052061 
L 163.722979 541.730247 
L 163.942532 398.380609 
L 164.381639 529.210173 
L 164.601192 365.798818 
L 164.820745 552.474587 
L 165.040298 455.53944 
L 165.259851 521.612185 
L 165.479405 523.88229 
L 165.698958 380.629816 
L 165.918511 517.85475 
L 166.57717 391.324841 
L 166.796723 466.140179 
L 167.016277 379.855249 
L 167.23583 483.52459 
L 167.455383 391.03242 
L 167.674936 518.610697 
L 167.894489 465.002824 
L 168.114042 463.427953 
L 168.333596 353.999634 
L 168.553149 518.25343 
L 168.772702 479.106081 
L 168.992255 368.646011 
L 169.211808 404.202728 
L 169.431361 547.202087 
L 169.650914 547.112026 
L 169.870468 468.777434 
L 170.090021 486.888608 
L 170.309574 514.853972 
L 170.529127 518.047871 
L 170.74868 448.212379 
L 170.968233 191.99294 
L 171.187787 400.986576 
L 171.40734 379.484764 
L 171.626893 550.749306 
L 171.846446 454.107822 
L 172.065999 523.538048 
L 172.285552 401.312697 
L 172.505105 481.694661 
L 172.724659 398.947855 
L 172.944212 491.865093 
L 173.163765 419.458795 
L 173.383318 562.845522 
L 173.602871 498.990829 
L 173.822424 505.68534 
L 174.041978 319.326181 
L 174.261531 490.982046 
L 174.481084 511.070557 
L 174.700637 518.915131 
L 174.92019 521.835892 
L 175.139743 519.060572 
L 175.359296 302.983426 
L 175.57885 387.561277 
L 175.798403 528.949179 
L 176.017956 438.893283 
L 176.237509 448.744084 
L 176.457062 503.381759 
L 176.676615 433.105996 
L 176.896169 495.611571 
L 177.115722 475.523429 
L 177.335275 434.900425 
L 177.554828 478.881749 
L 177.774381 468.241187 
L 177.993934 480.505935 
L 178.213487 515.480891 
L 178.652594 451.879456 
L 178.872147 506.082258 
L 179.0917 501.092674 
L 179.311253 522.356239 
L 179.530806 445.094179 
L 179.75036 453.954251 
L 179.969913 420.196462 
L 180.189466 468.902716 
L 180.628572 485.96729 
L 181.067678 446.375102 
L 181.287232 362.567548 
L 181.506785 536.973848 
L 181.726338 454.618996 
L 181.945891 438.35233 
L 182.165444 448.222998 
L 182.384997 396.416538 
L 182.604551 537.453196 
L 183.043657 404.896708 
L 183.26321 494.425245 
L 183.482763 459.021749 
L 183.702316 365.532727 
L 183.921869 412.907798 
L 184.141423 497.699154 
L 184.360976 432.962015 
L 184.580529 427.871748 
L 184.800082 529.113962 
L 185.019635 444.159498 
L 185.239188 446.532796 
L 185.458742 339.345119 
L 185.678295 462.64625 
L 185.897848 453.046314 
L 186.117401 516.726372 
L 186.336954 410.353817 
L 186.556507 556.763719 
L 186.77606 540.909799 
L 186.995614 536.64969 
L 187.215167 553.789618 
L 187.654273 402.797844 
L 187.873826 356.693936 
L 188.093379 513.481493 
L 188.312932 451.179246 
L 188.532486 534.509891 
L 188.752039 470.71725 
L 188.971592 511.525312 
L 189.191145 520.399806 
L 189.410698 375.661194 
L 189.630251 464.492884 
L 189.849805 449.607811 
L 190.069358 409.066105 
L 190.288911 342.238829 
L 190.508464 504.003604 
L 190.728017 434.154909 
L 190.94757 497.538285 
L 191.167123 484.927373 
L 191.386677 391.097765 
L 191.60623 414.608757 
L 191.825783 422.560223 
L 192.045336 453.136246 
L 192.264889 359.334557 
L 192.484442 432.915661 
L 192.703996 451.354296 
L 192.923549 391.721867 
L 193.582208 535.566322 
L 193.801761 468.314013 
L 194.021314 466.179597 
L 194.240868 471.48727 
L 194.460421 432.534675 
L 194.679974 536.350627 
L 194.899527 522.783181 
L 195.338633 406.210202 
L 195.77774 514.834912 
L 195.997293 535.918655 
L 196.216846 401.675119 
L 196.875505 532.523555 
L 197.095059 525.232456 
L 197.314612 343.681477 
L 197.534165 452.261255 
L 197.753718 474.630011 
L 197.973271 482.535485 
L 198.192824 405.022265 
L 198.412378 393.556086 
L 198.631931 463.082875 
L 198.851484 445.579701 
L 199.071037 494.760962 
L 199.29059 444.446382 
L 199.510143 479.066571 
L 199.729696 538.40951 
L 199.94925 381.933781 
L 200.168803 485.586019 
L 200.388356 406.974715 
L 200.607909 489.019332 
L 200.827462 432.528299 
L 201.047015 460.627826 
L 201.266569 455.911324 
L 201.486122 482.461508 
L 201.705675 536.493951 
L 201.925228 548.688849 
L 202.144781 521.575864 
L 202.364334 542.706571 
L 202.583887 474.025417 
L 202.803441 483.318751 
L 203.022994 449.668881 
L 203.242547 519.666756 
L 203.4621 461.208704 
L 203.681653 488.353627 
L 203.901206 384.447369 
L 204.12076 480.733782 
L 204.340313 371.619887 
L 204.559866 508.101676 
L 204.998972 552.316246 
L 205.218525 284.317444 
L 205.438078 494.819018 
L 205.657632 427.727808 
L 205.877185 509.706399 
L 206.096738 503.109871 
L 206.316291 462.908161 
L 206.535844 462.503555 
L 206.755397 479.878975 
L 206.974951 516.835976 
L 207.194504 449.97465 
L 207.414057 486.683502 
L 207.63361 498.667624 
L 207.853163 483.558463 
L 208.072716 516.409523 
L 208.292269 403.612173 
L 208.731376 539.026094 
L 208.950929 480.31483 
L 209.170482 466.381681 
L 209.390035 490.668591 
L 209.609588 534.095534 
L 209.829142 522.821533 
L 210.048695 521.587753 
L 210.268248 462.437501 
L 210.487801 539.307361 
L 210.707354 366.06827 
L 210.926907 473.865707 
L 211.14646 504.700713 
L 211.366014 488.950123 
L 211.585567 553.336718 
L 211.80512 526.105383 
L 212.024673 471.547155 
L 212.244226 318.065443 
L 212.463779 528.173175 
L 212.683333 500.24437 
L 212.902886 526.991006 
L 213.122439 450.727379 
L 213.341992 463.254239 
L 213.561545 461.196617 
L 213.781098 534.163219 
L 214.000651 371.355278 
L 214.220205 511.964691 
L 214.439758 441.710335 
L 214.659311 518.899136 
L 214.878864 516.96336 
L 215.098417 466.069446 
L 215.31797 534.174418 
L 215.537523 487.832179 
L 215.757077 494.19278 
L 215.97663 490.141546 
L 216.196183 528.507199 
L 216.415736 444.609975 
L 216.635289 520.74774 
L 216.854842 435.410871 
L 217.074396 483.388646 
L 217.293949 467.886397 
L 217.513502 501.684908 
L 217.733055 476.438322 
L 217.952608 312.754859 
L 218.172161 498.696632 
L 219.050374 387.497212 
L 219.269927 509.455252 
L 219.928587 426.244294 
L 220.367693 547.312228 
L 220.587246 490.655157 
L 220.806799 529.082506 
L 221.026352 474.3395 
L 221.245905 459.615875 
L 221.465459 468.65341 
L 221.685012 541.799778 
L 221.904565 439.279917 
L 222.124118 423.175679 
L 222.343671 371.184752 
L 222.563224 475.517311 
L 223.221884 543.497807 
L 223.441437 357.601242 
L 223.66099 552.903872 
L 223.880543 432.394004 
L 224.100096 538.29583 
L 224.31965 439.136988 
L 224.539203 527.088772 
L 224.758756 365.680901 
L 224.978309 474.3085 
L 225.197862 368.040996 
L 225.636969 530.754844 
L 226.076075 466.297039 
L 226.295628 517.799818 
L 226.515181 368.197911 
L 226.734734 531.938028 
L 226.954287 389.058067 
L 227.173841 356.812898 
L 227.393394 461.332837 
L 227.612947 416.910988 
L 227.8325 440.472545 
L 228.052053 409.339545 
L 228.271606 397.83945 
L 228.49116 366.315236 
L 228.710713 486.769496 
L 228.930266 538.939765 
L 229.149819 503.384545 
L 229.369372 521.585183 
L 229.588925 514.443666 
L 229.808478 451.189666 
L 230.028032 500.521622 
L 230.247585 448.030929 
L 230.686691 515.899001 
L 230.906244 455.70434 
L 231.125797 464.123379 
L 231.345351 419.320167 
L 231.564904 452.600032 
L 231.784457 442.547429 
L 232.00401 538.741405 
L 232.223563 494.849706 
L 232.443116 502.72019 
L 232.882223 547.759443 
L 233.101776 513.106151 
L 233.321329 524.565423 
L 233.760435 481.123044 
L 233.979988 425.23154 
L 234.199542 487.058166 
L 234.419095 511.407755 
L 234.638648 316.881231 
L 234.858201 468.456972 
L 235.077754 536.683671 
L 235.51686 449.445073 
L 235.736414 469.718957 
L 235.955967 417.361343 
L 236.17552 500.252523 
L 236.395073 514.791169 
L 236.614626 425.306978 
L 236.834179 432.119428 
L 237.053733 386.726091 
L 237.273286 509.378025 
L 237.492839 484.89684 
L 237.712392 538.403754 
L 237.931945 513.578644 
L 238.151498 424.636468 
L 238.371051 533.85599 
L 238.810158 391.901677 
L 239.029711 495.345085 
L 239.249264 476.420353 
L 239.468817 344.948876 
L 239.907924 482.280442 
L 240.127477 510.714453 
L 240.786136 430.723291 
L 241.005689 504.179997 
L 241.225242 504.105782 
L 241.444796 480.930231 
L 241.664349 443.317285 
L 241.883902 505.282736 
L 242.323008 518.457646 
L 242.542561 506.760472 
L 242.762114 386.981356 
L 242.981668 551.835647 
L 243.201221 505.431285 
L 243.420774 501.405477 
L 243.640327 464.95901 
L 243.85988 522.130356 
L 244.51854 433.227335 
L 244.738093 510.403634 
L 244.957646 329.481651 
L 245.396752 502.084683 
L 245.616305 342.023534 
L 245.835859 473.16562 
L 246.055412 517.723924 
L 246.274965 380.968931 
L 246.714071 518.198957 
L 246.933624 474.89418 
L 247.153178 511.744825 
L 247.372731 468.593633 
L 247.592284 551.500431 
L 247.811837 378.873939 
L 248.03139 461.004437 
L 248.250943 254.744287 
L 248.470496 320.782563 
L 248.69005 445.597383 
L 248.909603 467.254455 
L 249.129156 444.482826 
L 249.348709 310.011899 
L 249.568262 488.88116 
L 249.787815 493.936257 
L 250.007369 547.080351 
L 250.446475 502.749599 
L 250.666028 539.671173 
L 251.105134 502.707084 
L 251.324687 513.550428 
L 251.544241 540.223504 
L 251.763794 408.134359 
L 251.983347 524.032123 
L 252.2029 535.455339 
L 252.422453 471.670577 
L 252.642006 477.598527 
L 252.86156 452.02024 
L 253.081113 461.090691 
L 253.520219 524.95585 
L 253.739772 532.9134 
L 254.178878 366.680736 
L 254.398432 221.447681 
L 254.617985 495.69502 
L 255.057091 348.925306 
L 255.276644 430.066203 
L 255.496197 407.554552 
L 255.715751 516.359776 
L 255.935304 461.564815 
L 256.154857 516.315048 
L 256.593963 501.11033 
L 256.813516 499.246606 
L 257.033069 481.847604 
L 257.252623 499.931091 
L 257.472176 342.704209 
L 257.691729 507.29398 
L 257.911282 486.176624 
L 258.130835 482.982412 
L 258.350388 364.070446 
L 258.569942 438.185849 
L 258.789495 467.743433 
L 259.009048 476.489544 
L 259.228601 509.825215 
L 259.448154 488.067962 
L 259.667707 484.727524 
L 259.88726 334.873766 
L 260.106814 548.26198 
L 260.326367 461.695132 
L 260.54592 470.99532 
L 260.765473 353.223275 
L 260.985026 481.280515 
L 261.204579 462.155288 
L 261.424133 351.868903 
L 261.643686 494.978237 
L 261.863239 503.807053 
L 262.082792 560.915282 
L 262.302345 397.775072 
L 262.521898 395.813616 
L 262.741451 346.467719 
L 262.961005 444.344726 
L 263.180558 478.513955 
L 263.400111 406.659369 
L 263.619664 468.473979 
L 263.839217 390.710211 
L 264.05877 471.273614 
L 264.278324 484.981336 
L 264.497877 410.893538 
L 264.71743 554.332838 
L 264.936983 442.454838 
L 265.376089 532.572572 
L 265.595642 447.488995 
L 265.815196 424.998468 
L 266.034749 433.298477 
L 266.254302 509.585818 
L 266.473855 453.585048 
L 266.693408 508.997494 
L 266.912961 522.580545 
L 267.132514 450.452023 
L 267.352068 534.036774 
L 267.571621 244.150236 
L 267.791174 428.544823 
L 268.010727 403.172739 
L 268.23028 439.412127 
L 268.669387 379.566464 
L 268.88894 518.970553 
L 269.108493 451.665792 
L 269.328046 460.392023 
L 269.547599 430.309171 
L 269.767152 496.601108 
L 269.986705 511.93537 
L 270.425812 385.180548 
L 270.864918 557.07663 
L 271.084471 481.000901 
L 271.304024 516.839237 
L 271.523578 466.434005 
L 271.743131 443.365399 
L 271.962684 452.493708 
L 272.182237 367.936394 
L 272.40179 367.276631 
L 272.621343 534.241242 
L 272.840896 399.563764 
L 273.06045 501.227273 
L 273.280003 406.174876 
L 273.499556 388.043015 
L 273.719109 521.093186 
L 273.938662 403.46615 
L 274.158215 537.474058 
L 274.377769 493.412094 
L 274.597322 500.225945 
L 274.816875 441.556321 
L 275.036428 549.527429 
L 275.255981 454.879507 
L 275.475534 481.744025 
L 275.695087 418.278288 
L 275.914641 516.681634 
L 276.134194 510.240316 
L 276.353747 429.080349 
L 276.5733 572.530021 
L 276.792853 469.555716 
L 277.012406 452.853296 
L 277.23196 354.733262 
L 277.451513 448.502499 
L 277.671066 472.492325 
L 277.890619 303.886611 
L 278.110172 420.99751 
L 278.329725 472.832456 
L 278.549278 463.395344 
L 278.768832 486.326446 
L 278.988385 431.728839 
L 279.207938 443.07146 
L 279.427491 478.206641 
L 279.647044 469.136279 
L 279.866597 482.615349 
L 280.086151 364.9376 
L 280.305704 526.874214 
L 280.525257 279.614778 
L 280.74481 475.838349 
L 280.964363 463.110396 
L 281.183916 502.954662 
L 281.403469 333.173996 
L 281.623023 499.890746 
L 281.842576 459.300035 
L 282.062129 496.907026 
L 282.281682 475.109522 
L 282.501235 473.126029 
L 282.720788 344.631387 
L 282.940342 429.527166 
L 283.159895 418.528786 
L 283.379448 376.002411 
L 283.599001 492.770043 
L 283.818554 414.742885 
L 284.038107 530.705671 
L 284.25766 565.053286 
L 284.477214 448.279481 
L 284.696767 469.698702 
L 284.91632 508.250494 
L 285.135873 504.938545 
L 285.355426 509.620524 
L 285.574979 517.390727 
L 285.794533 580.486153 
L 286.014086 455.240501 
L 286.233639 433.240514 
L 286.453192 364.025704 
L 286.672745 488.162888 
L 286.892298 452.123046 
L 287.111851 519.98073 
L 287.331405 473.109257 
L 287.550958 353.670806 
L 287.990064 492.742447 
L 288.209617 386.561967 
L 288.42917 506.290281 
L 288.648724 519.993457 
L 288.868277 511.009542 
L 289.08783 509.211029 
L 289.526936 485.123229 
L 289.746489 488.525171 
L 289.966042 313.148319 
L 290.185596 518.344458 
L 290.405149 536.999297 
L 290.844255 483.933293 
L 291.063808 347.17306 
L 291.283361 399.532935 
L 291.502915 496.041256 
L 291.722468 463.262093 
L 291.942021 461.714637 
L 292.161574 520.119942 
L 292.381127 463.265526 
L 292.60068 444.74723 
L 292.820233 499.100817 
L 293.039787 448.257453 
L 293.25934 467.173642 
L 293.478893 445.967212 
L 293.698446 512.457306 
L 293.917999 446.086336 
L 294.137552 416.308 
L 294.357105 325.050286 
L 294.576659 486.318875 
L 294.796212 508.568491 
L 295.235318 368.662101 
L 295.454871 499.965818 
L 295.674424 315.048956 
L 295.893978 514.073299 
L 296.113531 448.422497 
L 296.333084 538.2585 
L 296.991743 408.758852 
L 297.211296 477.613591 
L 297.43085 444.645914 
L 297.650403 441.227414 
L 297.869956 475.084327 
L 298.089509 462.457038 
L 298.309062 466.6004 
L 298.528615 575.309666 
L 298.748169 553.533206 
L 298.967722 384.578702 
L 299.187275 507.601374 
L 299.406828 464.454452 
L 299.626381 469.162634 
L 300.065487 515.340868 
L 300.285041 514.039612 
L 300.504594 434.103533 
L 300.724147 543.469828 
L 300.9437 474.61155 
L 301.163253 473.034958 
L 301.382806 496.027904 
L 301.60236 404.465918 
L 301.821913 480.022837 
L 302.041466 463.016262 
L 302.261019 534.682916 
L 302.480572 413.73843 
L 302.700125 416.278409 
L 302.919678 470.799135 
L 303.358785 516.827594 
L 303.578338 443.51909 
L 303.797891 422.636595 
L 304.017444 480.987581 
L 304.236997 496.729929 
L 304.456551 420.005097 
L 304.676104 428.467843 
L 304.895657 421.235051 
L 305.11521 521.321592 
L 305.334763 513.551479 
L 305.554316 501.349757 
L 305.773869 524.690812 
L 305.993423 436.558918 
L 306.212976 466.004223 
L 306.432529 461.722985 
L 306.652082 524.216765 
L 306.871635 282.399232 
L 307.091188 479.252375 
L 307.310742 506.599681 
L 307.530295 422.098557 
L 307.749848 398.817152 
L 307.969401 440.08862 
L 308.188954 527.381785 
L 308.408507 445.886628 
L 308.62806 502.435492 
L 308.847614 440.116361 
L 309.067167 464.389232 
L 309.28672 469.709217 
L 309.506273 484.37976 
L 309.725826 546.898565 
L 309.945379 490.76639 
L 310.164933 380.014479 
L 310.384486 420.628568 
L 310.604039 538.687647 
L 310.823592 456.806835 
L 311.043145 491.0461 
L 311.262698 439.889939 
L 311.482251 421.703263 
L 311.701805 554.831676 
L 311.921358 514.092143 
L 312.140911 379.95448 
L 312.360464 500.901101 
L 312.580017 458.409097 
L 312.79957 469.866165 
L 313.019124 404.795437 
L 313.238677 508.124025 
L 313.45823 509.709237 
L 313.677783 469.094298 
L 313.897336 394.890316 
L 314.116889 482.005547 
L 314.336442 450.708999 
L 314.775549 369.58839 
L 314.995102 522.048015 
L 315.214655 459.404644 
L 315.434208 495.335453 
L 315.653761 131.956182 
L 315.873315 538.58371 
L 316.092868 429.057678 
L 316.312421 423.183536 
L 316.531974 401.095449 
L 316.751527 511.026048 
L 316.97108 470.2953 
L 317.190633 297.760513 
L 317.410187 479.969038 
L 317.62974 504.25764 
L 317.849293 415.449774 
L 318.068846 564.415419 
L 318.288399 503.537837 
L 318.507952 538.534463 
L 318.947059 506.520102 
L 319.166612 449.938159 
L 319.386165 506.978122 
L 319.605718 504.592036 
L 319.825271 556.942237 
L 320.044824 490.232641 
L 320.264378 341.207462 
L 320.483931 504.610421 
L 320.703484 294.451913 
L 320.923037 485.426424 
L 321.14259 439.468041 
L 321.362143 540.480853 
L 321.581696 472.317262 
L 321.80125 525.158972 
L 322.020803 483.533365 
L 322.240356 536.199946 
L 322.459909 528.638564 
L 322.679462 432.707755 
L 322.899015 508.987419 
L 323.118569 503.288528 
L 323.557675 364.209615 
L 323.777228 493.145281 
L 323.996781 420.712436 
L 324.216334 499.615968 
L 324.435887 504.347511 
L 324.655441 515.949431 
L 324.874994 511.673556 
L 325.094547 446.784512 
L 325.3141 444.405065 
L 325.753206 502.48608 
L 325.97276 320.574389 
L 326.192313 478.435233 
L 326.411866 535.892927 
L 326.631419 541.459845 
L 326.850972 482.919053 
L 327.070525 519.855879 
L 327.290078 534.204172 
L 327.948738 410.87479 
L 328.168291 447.692777 
L 328.607397 541.798039 
L 328.826951 458.486523 
L 329.046504 445.533194 
L 329.266057 495.001337 
L 329.48561 481.104323 
L 329.705163 493.546765 
L 329.924716 459.718973 
L 330.144269 538.344733 
L 330.363823 411.087275 
L 330.583376 433.61887 
L 330.802929 549.352131 
L 331.022482 527.270237 
L 331.242035 488.652745 
L 331.461588 484.739108 
L 331.681142 478.692537 
L 331.900695 543.704801 
L 332.120248 478.26641 
L 332.339801 478.25228 
L 332.559354 561.298289 
L 333.218014 440.063514 
L 333.437567 426.985494 
L 333.65712 393.650129 
L 333.876673 547.727635 
L 334.096226 533.835051 
L 334.315779 391.842513 
L 334.974439 538.405672 
L 335.193992 430.399822 
L 335.413545 532.209376 
L 335.633098 527.605113 
L 335.852651 436.411539 
L 336.291758 536.499175 
L 336.730864 372.386 
L 336.950417 402.77944 
L 337.389524 532.503693 
L 337.609077 463.00614 
L 338.048183 396.24163 
L 338.267736 500.036094 
L 338.487289 510.217297 
L 338.706842 568.018803 
L 338.926396 411.715671 
L 339.145949 501.451871 
L 339.585055 434.143161 
L 339.804608 528.811427 
L 340.024161 539.096346 
L 340.243715 535.335935 
L 340.463268 466.571615 
L 340.682821 468.835763 
L 340.902374 491.215767 
L 341.34148 332.979337 
L 341.561033 470.807143 
L 341.780587 497.190097 
L 342.00014 482.87276 
L 342.219693 484.760384 
L 342.439246 513.865062 
L 342.658799 525.114278 
L 342.878352 419.103026 
L 343.097906 461.047454 
L 343.317459 356.511285 
L 343.537012 464.46042 
L 343.756565 347.996846 
L 343.976118 464.590346 
L 344.195671 511.201306 
L 344.415224 518.289084 
L 344.634778 509.66442 
L 344.854331 495.510594 
L 345.073884 457.259223 
L 345.293437 548.266094 
L 345.732543 448.706172 
L 346.17165 560.160148 
L 346.391203 484.34447 
L 346.610756 494.294774 
L 346.830309 453.501633 
L 347.049862 539.656552 
L 347.269415 476.14814 
L 347.488969 546.650916 
L 347.708522 477.776319 
L 347.928075 452.668276 
L 348.147628 508.044642 
L 348.367181 465.646441 
L 348.586734 548.35982 
L 348.806287 545.269549 
L 349.025841 472.507479 
L 349.245394 505.628643 
L 349.464947 333.341032 
L 349.6845 478.646143 
L 349.904053 391.760534 
L 350.123606 519.738559 
L 350.34316 359.410316 
L 350.562713 493.231383 
L 350.782266 445.802206 
L 351.001819 503.766663 
L 351.221372 517.301618 
L 351.440925 513.275062 
L 351.660478 488.341722 
L 351.880032 479.416487 
L 352.099585 561.853867 
L 352.319138 406.474772 
L 352.538691 501.318564 
L 352.758244 416.871573 
L 352.977797 476.829156 
L 353.197351 492.140789 
L 353.416904 538.521082 
L 353.636457 538.352535 
L 353.85601 418.290956 
L 354.075563 491.000914 
L 354.295116 420.672908 
L 354.514669 446.438525 
L 354.734223 261.771378 
L 354.953776 465.352439 
L 355.173329 538.930062 
L 355.392882 429.658685 
L 355.612435 461.268711 
L 355.831988 418.437582 
L 356.051542 423.179469 
L 356.271095 462.161887 
L 356.490648 533.931582 
L 356.710201 428.174321 
L 356.929754 527.115206 
L 357.149307 529.879641 
L 357.36886 464.882427 
L 357.588414 530.011946 
L 357.807967 415.434872 
L 358.02752 427.301387 
L 358.247073 510.064149 
L 358.466626 494.257137 
L 358.686179 528.46992 
L 358.905733 464.491539 
L 359.125286 460.663418 
L 359.344839 343.114263 
L 359.564392 535.626721 
L 359.783945 519.705643 
L 360.003498 558.101489 
L 360.223051 490.871205 
L 360.442605 464.746677 
L 360.662158 457.865358 
L 360.881711 462.104912 
L 361.101264 448.940669 
L 361.320817 509.526446 
L 361.54037 528.111968 
L 361.979477 404.620012 
L 362.418583 523.487072 
L 362.638136 527.921355 
L 362.857689 528.839472 
L 363.077242 513.893742 
L 363.296796 408.886112 
L 363.516349 508.483932 
L 363.955455 431.073639 
L 364.175008 502.830534 
L 364.394561 407.671351 
L 364.614115 377.683168 
L 365.053221 486.229967 
L 365.272774 433.397539 
L 365.492327 492.352098 
L 365.71188 488.413441 
L 365.931433 346.01625 
L 366.150987 404.147033 
L 366.37054 356.427327 
L 366.590093 544.512512 
L 366.809646 458.895295 
L 367.029199 516.377454 
L 367.687859 415.417742 
L 367.907412 482.680034 
L 368.126965 442.693404 
L 368.346518 515.444141 
L 368.785624 421.491991 
L 369.005178 466.761216 
L 369.224731 409.25295 
L 369.444284 404.91615 
L 369.663837 484.895976 
L 369.88339 484.497416 
L 370.102943 522.064457 
L 370.322497 532.774837 
L 370.761603 512.218966 
L 370.981156 349.590893 
L 371.200709 485.470313 
L 371.639815 513.018386 
L 371.859369 492.860441 
L 372.078922 446.996809 
L 372.298475 430.203301 
L 372.518028 503.552618 
L 372.737581 422.18603 
L 372.957134 480.054388 
L 373.176687 416.598821 
L 373.396241 493.080796 
L 373.615794 411.610609 
L 374.0549 535.515979 
L 374.274453 492.137092 
L 374.71356 457.395051 
L 374.933113 479.488798 
L 375.152666 379.697303 
L 375.372219 471.003036 
L 375.591772 500.923189 
L 375.811325 366.327514 
L 376.030878 467.584519 
L 376.250432 463.939555 
L 376.469985 445.963767 
L 376.689538 486.015402 
L 376.909091 380.889532 
L 377.128644 470.743469 
L 377.348197 500.107957 
L 377.787304 513.338601 
L 378.006857 426.393723 
L 378.22641 493.45362 
L 378.445963 447.245299 
L 378.665516 524.040105 
L 378.885069 533.479012 
L 379.104623 547.711439 
L 379.324176 454.772218 
L 379.543729 511.922266 
L 379.763282 448.702311 
L 379.982835 421.560245 
L 380.421942 536.993205 
L 380.641495 358.142262 
L 380.861048 457.964659 
L 381.080601 370.497489 
L 381.300154 555.663562 
L 381.519707 408.302013 
L 381.73926 468.90586 
L 381.958814 426.607901 
L 382.178367 482.252066 
L 382.39792 441.106643 
L 382.617473 520.799123 
L 382.837026 482.187463 
L 383.056579 532.079456 
L 383.276133 440.84455 
L 383.495686 528.956138 
L 383.715239 463.047775 
L 383.934792 461.831689 
L 384.373898 357.391799 
L 384.593451 525.21332 
L 384.813005 452.606442 
L 385.032558 532.531659 
L 385.252111 437.645338 
L 385.471664 466.620844 
L 385.691217 440.685836 
L 385.91077 353.223165 
L 386.130324 535.769898 
L 386.349877 417.052415 
L 386.56943 380.330104 
L 386.788983 429.875037 
L 387.008536 447.725932 
L 387.228089 538.720503 
L 387.447642 401.524128 
L 387.667196 459.052279 
L 388.106302 298.771434 
L 388.325855 491.91527 
L 388.545408 399.613243 
L 388.764961 506.795918 
L 388.984515 435.347968 
L 389.204068 449.084713 
L 389.423621 494.490218 
L 389.643174 413.957129 
L 389.862727 490.051713 
L 390.08228 367.593685 
L 390.301833 479.665611 
L 390.521387 493.900034 
L 390.74094 430.484167 
L 390.960493 514.201991 
L 391.180046 262.640478 
L 391.399599 521.533924 
L 391.619152 452.91026 
L 391.838706 502.21858 
L 392.058259 400.756026 
L 392.277812 507.426229 
L 392.497365 512.750652 
L 392.716918 384.225154 
L 392.936471 366.266166 
L 393.156024 566.224747 
L 393.595131 473.266937 
L 393.814684 542.99963 
L 394.034237 482.656344 
L 394.25379 533.919543 
L 394.692897 358.448506 
L 394.91245 476.776312 
L 395.132003 492.171905 
L 395.351556 480.192908 
L 395.571109 505.53453 
L 395.790662 422.884104 
L 396.010215 501.268398 
L 396.229769 483.88728 
L 396.449322 448.925963 
L 396.668875 480.703293 
L 396.888428 477.335403 
L 397.107981 478.972083 
L 397.327534 498.559927 
L 397.547087 472.87577 
L 397.766641 504.672118 
L 397.986194 417.271295 
L 398.4253 481.079864 
L 398.864406 547.741221 
L 399.08396 499.609956 
L 399.303513 503.823936 
L 399.523066 346.110522 
L 399.742619 534.473278 
L 399.962172 433.606441 
L 400.181725 426.897812 
L 400.401278 403.211182 
L 400.620832 450.15142 
L 401.059938 492.704556 
L 401.279491 449.045896 
L 401.499044 513.254353 
L 401.718597 496.594769 
L 401.938151 512.466043 
L 402.157704 444.366347 
L 402.377257 525.769561 
L 402.59681 514.865259 
L 403.035916 475.725854 
L 403.255469 378.491641 
L 403.475023 481.894737 
L 403.694576 505.700241 
L 403.914129 405.993301 
L 404.133682 478.994361 
L 404.353235 497.699251 
L 404.572788 454.746436 
L 404.792342 387.520204 
L 405.011895 489.490279 
L 405.231448 459.129028 
L 405.451001 411.118876 
L 405.670554 413.974147 
L 405.890107 405.52118 
L 406.10966 391.767952 
L 406.329214 433.752014 
L 406.548767 282.706016 
L 406.76832 507.309166 
L 407.207426 378.523718 
L 407.426979 410.180806 
L 407.646533 477.58554 
L 408.085639 346.851671 
L 408.524745 448.740915 
L 408.744298 437.391885 
L 408.963851 507.657358 
L 409.183405 377.915783 
L 409.402958 494.066243 
L 409.622511 509.43643 
L 409.842064 452.803729 
L 410.061617 441.336685 
L 410.28117 441.436707 
L 410.500724 303.248311 
L 410.720277 288.883965 
L 410.93983 446.066513 
L 411.159383 511.030606 
L 411.378936 435.708211 
L 411.818042 495.64385 
L 412.037596 426.491887 
L 412.257149 488.869914 
L 412.476702 515.893924 
L 412.696255 450.349702 
L 412.915808 501.230079 
L 413.135361 459.156966 
L 413.354915 466.243034 
L 413.574468 374.325611 
L 413.794021 389.822104 
L 414.013574 394.008148 
L 414.233127 515.640617 
L 414.45268 477.776388 
L 414.672233 548.152163 
L 414.891787 434.136543 
L 415.330893 524.204306 
L 415.550446 491.094509 
L 415.769999 517.065142 
L 415.989552 497.465839 
L 416.209106 510.997804 
L 416.648212 490.267741 
L 416.867765 488.090488 
L 417.087318 533.797959 
L 417.306871 501.7548 
L 417.526424 436.137153 
L 417.745978 417.639325 
L 417.965531 497.094463 
L 418.185084 508.991443 
L 418.404637 331.652094 
L 418.62419 448.225046 
L 418.843743 485.886962 
L 419.063297 456.77369 
L 419.28285 381.793929 
L 419.502403 543.835204 
L 419.721956 502.73465 
L 419.941509 402.129558 
L 420.161062 497.776689 
L 420.380615 422.051344 
L 420.600169 466.226144 
L 420.819722 538.971092 
L 421.039275 464.214181 
L 421.258828 485.285418 
L 421.478381 426.752409 
L 421.697934 401.071293 
L 421.917488 336.161425 
L 422.137041 363.55892 
L 422.356594 249.732333 
L 422.576147 378.288068 
L 422.7957 368.716877 
L 423.015253 453.072784 
L 423.234806 494.489695 
L 423.45436 566.698028 
L 423.673913 458.738381 
L 424.113019 496.015337 
L 424.332572 546.754678 
L 424.771678 503.763326 
L 425.210785 371.814929 
L 425.430338 508.578024 
L 425.649891 455.514642 
L 425.869444 516.261014 
L 426.088997 407.12334 
L 426.308551 410.598261 
L 426.528104 427.337898 
L 426.747657 380.350539 
L 427.186763 552.203792 
L 427.406316 548.622538 
L 427.625869 478.097371 
L 427.845423 471.058606 
L 428.064976 411.541491 
L 428.284529 405.868453 
L 428.504082 491.562001 
L 428.723635 464.422251 
L 428.943188 557.938478 
L 429.162742 431.190236 
L 429.382295 502.148127 
L 429.601848 516.794932 
L 429.821401 485.463966 
L 430.040954 535.558694 
L 430.260507 478.276708 
L 430.699614 503.26424 
L 430.919167 422.193864 
L 431.13872 442.576995 
L 431.358273 509.501296 
L 431.577826 475.115199 
L 431.797379 379.23414 
L 432.016933 547.686723 
L 432.236486 402.587639 
L 432.456039 487.391547 
L 432.895145 400.527773 
L 433.114698 514.978609 
L 433.334251 473.1035 
L 433.553805 513.566839 
L 433.773358 511.956957 
L 433.992911 464.659165 
L 434.212464 531.245682 
L 434.432017 391.868069 
L 434.65157 497.917938 
L 434.871124 451.972257 
L 435.090677 527.663483 
L 435.529783 394.519007 
L 435.749336 397.758491 
L 435.968889 471.873084 
L 436.188442 506.146503 
L 436.407996 453.449071 
L 436.627549 488.418185 
L 436.847102 490.130545 
L 437.066655 509.314843 
L 437.286208 437.741461 
L 437.505761 505.545959 
L 437.725315 518.014286 
L 437.944868 416.314462 
L 438.164421 434.859531 
L 438.603527 546.003673 
L 438.82308 387.821858 
L 439.042633 519.711935 
L 439.262187 469.752664 
L 439.48174 532.303732 
L 439.701293 427.431079 
L 439.920846 517.206425 
L 440.140399 456.349863 
L 440.359952 470.558716 
L 440.579506 464.462363 
L 440.799059 440.593429 
L 441.018612 496.656246 
L 441.238165 408.52286 
L 441.457718 419.415106 
L 441.677271 518.311004 
L 441.896824 503.895821 
L 442.116378 552.63602 
L 442.335931 470.975139 
L 442.775037 407.418892 
L 442.99459 532.405192 
L 443.214143 490.643603 
L 443.433697 500.022843 
L 443.65325 494.442823 
L 443.872803 380.65071 
L 444.092356 494.981581 
L 444.311909 520.76126 
L 444.531462 391.403963 
L 444.751015 383.738211 
L 444.970569 521.325467 
L 445.190122 517.266959 
L 445.409675 488.446155 
L 445.629228 443.723114 
L 445.848781 444.310728 
L 446.287888 536.269008 
L 446.507441 466.294736 
L 446.726994 490.764275 
L 446.946547 477.677409 
L 447.385653 365.039377 
L 447.605206 497.285425 
L 447.82476 325.584334 
L 448.044313 513.727741 
L 448.263866 445.47044 
L 448.483419 428.667831 
L 448.702972 477.755106 
L 448.922525 356.007825 
L 449.142079 526.935207 
L 449.361632 469.911266 
L 449.581185 521.45273 
L 449.800738 533.623846 
L 450.020291 563.727769 
L 450.239844 510.455691 
L 450.459397 495.46487 
L 450.678951 581.38839 
L 451.118057 459.892378 
L 451.33761 463.758388 
L 451.557163 478.905156 
L 451.776716 284.908346 
L 451.996269 489.906749 
L 452.215823 497.579694 
L 452.435376 450.238719 
L 452.654929 440.62214 
L 452.874482 504.668391 
L 453.094035 480.510122 
L 453.313588 530.259953 
L 453.533142 443.576898 
L 453.752695 497.102284 
L 453.972248 372.264695 
L 454.191801 520.865175 
L 454.411354 412.597664 
L 454.630907 462.441152 
L 454.85046 475.272322 
L 455.070014 478.850764 
L 455.289567 398.513174 
L 455.50912 441.676655 
L 455.728673 453.880369 
L 455.948226 453.992239 
L 456.167779 329.315851 
L 456.387333 522.838304 
L 456.606886 485.634985 
L 456.826439 364.423175 
L 457.045992 444.849703 
L 457.265545 378.833203 
L 457.485098 383.522842 
L 457.704651 467.791353 
L 457.924205 442.700004 
L 458.143758 536.872991 
L 458.363311 520.66892 
L 458.582864 527.814187 
L 459.02197 289.471553 
L 459.241524 546.484989 
L 459.461077 542.968111 
L 459.68063 268.787083 
L 459.900183 468.319779 
L 460.119736 419.686866 
L 460.339289 515.59986 
L 460.558842 314.01263 
L 460.997949 524.997785 
L 461.217502 558.977096 
L 461.656608 416.080255 
L 461.876161 424.011608 
L 462.095715 458.042084 
L 462.315268 513.575673 
L 462.534821 436.24911 
L 462.754374 463.142749 
L 462.973927 394.309492 
L 463.19348 475.254537 
L 463.413033 472.878038 
L 463.632587 455.139672 
L 463.85214 542.850436 
L 464.071693 455.02341 
L 464.291246 469.408495 
L 464.510799 422.253254 
L 464.730352 560.806598 
L 464.949906 450.74886 
L 465.169459 501.173658 
L 465.389012 517.112915 
L 465.608565 425.938261 
L 465.828118 513.431033 
L 466.047671 507.540956 
L 466.267224 484.220497 
L 466.486778 536.357721 
L 466.706331 398.71573 
L 466.925884 541.721423 
L 467.145437 468.699841 
L 467.584543 503.73145 
L 467.804097 415.958201 
L 468.243203 520.762741 
L 468.462756 425.588471 
L 468.682309 383.802315 
L 468.901862 440.032068 
L 469.121415 466.20474 
L 469.340969 433.755077 
L 469.560522 476.331965 
L 469.780075 389.029264 
L 469.999628 393.008135 
L 470.438734 477.560249 
L 470.658288 357.314441 
L 470.877841 493.791118 
L 471.097394 555.082197 
L 471.316947 457.546586 
L 471.756053 404.541904 
L 471.975606 503.653378 
L 472.19516 428.559431 
L 472.414713 402.324753 
L 472.634266 449.123563 
L 472.853819 528.059107 
L 473.073372 389.823486 
L 473.292925 498.907223 
L 473.512479 434.917614 
L 473.732032 499.319454 
L 473.951585 375.799319 
L 474.171138 373.969965 
L 475.049351 547.695895 
L 475.268904 418.858732 
L 475.488457 470.7476 
L 475.70801 438.313609 
L 475.927563 526.455411 
L 476.366669 418.445654 
L 476.586223 421.232665 
L 476.805776 436.802584 
L 477.025329 469.528363 
L 477.244882 476.492508 
L 477.464435 425.021377 
L 477.683988 507.180837 
L 477.903542 522.987345 
L 478.123095 470.129725 
L 478.342648 467.628252 
L 478.562201 476.927083 
L 478.781754 495.121485 
L 479.001307 526.736025 
L 479.440414 417.85523 
L 479.659967 499.169703 
L 479.87952 465.204885 
L 480.099073 378.007056 
L 480.318626 492.480133 
L 480.538179 454.677673 
L 480.757733 447.925175 
L 480.977286 394.509976 
L 481.196839 516.581618 
L 481.416392 537.09805 
L 481.635945 468.700739 
L 481.855498 327.44418 
L 482.075051 470.735348 
L 482.294605 489.349749 
L 482.514158 403.72238 
L 482.733711 473.860008 
L 482.953264 474.232335 
L 483.172817 481.075593 
L 483.39237 498.380631 
L 483.831477 373.737855 
L 484.05103 451.351171 
L 484.270583 426.335873 
L 484.490136 462.045012 
L 484.709689 470.649965 
L 484.929242 442.739058 
L 485.148796 341.005693 
L 485.368349 420.191942 
L 485.587902 380.360187 
L 485.807455 521.222028 
L 486.027008 537.084072 
L 486.246561 456.534551 
L 486.466115 462.279821 
L 486.685668 502.934893 
L 486.905221 506.863421 
L 487.124774 457.027396 
L 487.344327 525.943943 
L 487.56388 317.039799 
L 487.783433 493.899126 
L 488.002987 476.4407 
L 488.442093 537.564052 
L 488.661646 522.486704 
L 488.881199 475.615828 
L 489.100752 529.589553 
L 489.320306 418.315644 
L 489.539859 513.827556 
L 489.759412 525.8123 
L 489.978965 551.863191 
L 490.198518 528.936485 
L 490.418071 488.45789 
L 490.857178 528.454482 
L 491.076731 348.623634 
L 491.296284 504.352332 
L 491.515837 517.463613 
L 491.954943 469.554742 
L 492.174497 398.665822 
L 492.39405 436.733559 
L 492.613603 366.829221 
L 492.833156 542.482848 
L 493.052709 471.765351 
L 493.272262 460.30919 
L 493.711369 511.579065 
L 493.930922 450.689692 
L 494.150475 493.182453 
L 494.370028 469.496642 
L 494.589581 475.441238 
L 494.809134 405.128002 
L 495.028688 419.672692 
L 495.248241 492.942111 
L 495.467794 446.429944 
L 495.687347 524.260651 
L 495.9069 496.181723 
L 496.126453 564.403104 
L 496.346006 444.199995 
L 496.56556 510.211189 
L 496.785113 462.282818 
L 497.004666 526.634263 
L 497.224219 393.245502 
L 497.443772 332.486972 
L 497.882879 518.027279 
L 498.102432 413.04946 
L 498.321985 389.456267 
L 498.761091 542.133288 
L 498.980644 553.715732 
L 499.200197 384.745657 
L 499.858857 523.391114 
L 500.07841 299.92268 
L 500.297963 412.07188 
L 500.73707 508.359046 
L 500.956623 470.712782 
L 501.176176 493.364391 
L 501.395729 494.640991 
L 501.615282 491.827791 
L 501.834835 532.086194 
L 502.054388 500.735896 
L 502.273942 524.298545 
L 502.493495 442.492767 
L 502.713048 501.957823 
L 502.932601 524.622931 
L 503.152154 399.440506 
L 503.371707 460.903959 
L 503.59126 319.614255 
L 503.810814 512.557197 
L 504.030367 527.237784 
L 504.24992 265.687665 
L 504.689026 476.869785 
L 504.908579 470.369096 
L 505.128133 380.011662 
L 505.347686 479.490226 
L 505.567239 463.233487 
L 505.786792 492.344934 
L 506.006345 351.929935 
L 506.225898 458.399764 
L 506.445451 480.550283 
L 506.665005 439.790524 
L 506.884558 453.800955 
L 507.104111 543.098768 
L 507.323664 539.327504 
L 507.543217 462.45071 
L 507.76277 438.997216 
L 507.982324 442.228001 
L 508.42143 496.762572 
L 508.640983 487.545091 
L 508.860536 438.05043 
L 509.080089 521.848103 
L 509.299642 386.617673 
L 509.519196 504.278485 
L 509.958302 340.281146 
L 510.397408 486.812763 
L 510.616961 509.702463 
L 510.836515 488.290034 
L 511.056068 485.033827 
L 511.275621 500.237845 
L 511.495174 498.566135 
L 511.714727 447.712369 
L 511.93428 489.401781 
L 512.153833 565.331413 
L 512.373387 454.490012 
L 512.59294 536.952913 
L 512.812493 445.871905 
L 513.032046 445.76947 
L 513.251599 505.878427 
L 513.471152 326.178345 
L 513.690706 375.447646 
L 513.910259 384.311616 
L 514.129812 370.054189 
L 514.349365 495.272488 
L 514.788471 479.440245 
L 515.008024 459.77313 
L 515.227578 518.116007 
L 515.447131 515.396612 
L 515.666684 491.868056 
L 515.886237 419.983169 
L 516.10579 484.978942 
L 516.325343 464.082169 
L 516.544897 382.759165 
L 516.76445 480.532503 
L 516.984003 466.257946 
L 517.203556 522.628674 
L 517.423109 478.488376 
L 517.642662 490.268179 
L 517.862215 449.754538 
L 518.081769 537.460804 
L 518.301322 423.793343 
L 518.520875 532.499651 
L 518.740428 559.736882 
L 518.959981 511.835658 
L 519.179534 416.541255 
L 519.399088 555.049148 
L 519.618641 526.700504 
L 520.2773 545.796171 
L 520.716406 477.915802 
L 520.93596 481.980003 
L 521.155513 514.797882 
L 521.375066 479.443521 
L 521.594619 469.690416 
L 521.814172 481.147916 
L 522.033725 414.89069 
L 522.253279 432.807182 
L 522.472832 467.741095 
L 522.692385 483.518883 
L 522.911938 557.372595 
L 523.131491 508.364534 
L 523.351044 493.554024 
L 523.790151 533.734792 
L 524.009704 499.457227 
L 524.229257 484.634467 
L 524.44881 498.80715 
L 524.668363 436.656397 
L 524.887916 505.337676 
L 525.10747 508.292081 
L 525.327023 453.221653 
L 525.546576 483.920563 
L 525.766129 473.037497 
L 526.424788 379.815225 
L 526.644342 401.342575 
L 526.863895 488.518927 
L 527.083448 438.90577 
L 527.303001 512.700971 
L 527.522554 476.047168 
L 527.742107 462.58107 
L 527.96166 396.79344 
L 528.181214 435.163256 
L 528.400767 510.444981 
L 528.62032 511.420653 
L 528.839873 536.954402 
L 529.059426 471.004032 
L 529.278979 489.050362 
L 529.498533 483.783783 
L 529.718086 517.376396 
L 530.157192 442.794197 
L 530.376745 516.090188 
L 530.596298 520.505766 
L 530.815851 438.066181 
L 531.035405 478.698332 
L 531.254958 451.737771 
L 531.474511 446.384948 
L 531.694064 496.206463 
L 531.913617 370.955853 
L 532.352724 411.030817 
L 532.572277 492.779636 
L 532.79183 478.10548 
L 533.011383 532.378228 
L 533.230936 410.927256 
L 533.450489 403.444967 
L 533.670042 536.110614 
L 533.889596 362.509515 
L 534.109149 523.664758 
L 534.328702 550.779629 
L 534.548255 475.938003 
L 534.767808 499.342637 
L 534.987361 436.446118 
L 535.206915 451.542616 
L 535.426468 446.26888 
L 535.646021 501.63222 
L 535.865574 494.849946 
L 536.085127 384.780904 
L 536.30468 391.210847 
L 536.524233 513.543849 
L 536.743787 519.545141 
L 536.96334 459.729402 
L 537.182893 517.854634 
L 537.402446 507.653891 
L 537.621999 383.168954 
L 537.841552 465.113588 
L 538.061106 474.952432 
L 538.280659 507.88104 
L 538.500212 388.315526 
L 538.719765 523.433534 
L 538.939318 347.381597 
L 539.158871 527.966634 
L 539.378424 435.938581 
L 539.597978 510.455136 
L 540.037084 452.146504 
L 540.256637 503.262417 
L 540.47619 448.891636 
L 540.695743 456.124496 
L 540.915297 472.090936 
L 541.13485 450.365566 
L 541.354403 506.683969 
L 541.573956 431.174553 
L 541.793509 487.158972 
L 542.013062 463.835836 
L 542.232615 536.251606 
L 542.452169 478.935224 
L 542.671722 490.694193 
L 542.891275 410.280732 
L 543.110828 533.310084 
L 543.330381 507.270909 
L 543.549934 510.906401 
L 543.769488 471.199283 
L 543.989041 532.830046 
L 544.208594 462.280882 
L 544.428147 508.150633 
L 544.6477 430.670516 
L 544.867253 439.634725 
L 545.086806 431.884908 
L 545.30636 439.97868 
L 545.525913 541.422231 
L 545.745466 473.723497 
L 545.745466 473.723497 
" style="fill:none;stroke:#96c69a;stroke-linecap:round;stroke-width:3;"/>
   </g>
   <g id="line2d_2"/>
   <g id="patch_3">
    <path d="M 84.914375 603.86 
L 84.914375 109.484571 
" style="fill:none;stroke:#262626;stroke-linecap:square;stroke-linejoin:miter;stroke-width:2.5;"/>
   </g>
   <g id="patch_4">
    <path d="M 84.914375 603.86 
L 567.689804 603.86 
" style="fill:none;stroke:#262626;stroke-linecap:square;stroke-linejoin:miter;stroke-width:2.5;"/>
   </g>
   <g id="legend_1">
    <g id="patch_5">
     <path d="M 514.774179 598.86 
L 560.689804 598.86 
Q 562.689804 598.86 562.689804 596.86 
L 562.689804 554.954375 
Q 562.689804 552.954375 560.689804 552.954375 
L 514.774179 552.954375 
Q 512.774179 552.954375 512.774179 554.954375 
L 512.774179 596.86 
Q 512.774179 598.86 514.774179 598.86 
z
" style="fill:#ffffff;opacity:0.8;stroke:#cccccc;stroke-linejoin:miter;stroke-width:2;"/>
    </g>
    <g id="text_14">
     <!-- $n_\tau$ -->
     <g style="fill:#262626;" transform="translate(524.651991 575.190625)scale(0.24 -0.24)">
      <defs>
       <path d="M 3566 2113 
L 3156 0 
L 2578 0 
L 2988 2091 
Q 3016 2238 3031 2350 
Q 3047 2463 3047 2528 
Q 3047 2791 2881 2937 
Q 2716 3084 2419 3084 
Q 1956 3084 1622 2776 
Q 1288 2469 1184 1941 
L 800 0 
L 225 0 
L 903 3500 
L 1478 3500 
L 1363 2950 
Q 1603 3253 1940 3418 
Q 2278 3584 2650 3584 
Q 3113 3584 3367 3334 
Q 3622 3084 3622 2631 
Q 3622 2519 3608 2391 
Q 3594 2263 3566 2113 
z
" id="DejaVuSans-Oblique-6e" transform="scale(0.015625)"/>
       <path d="M 2103 638 
Q 2188 488 2525 488 
L 2800 488 
L 2706 0 
L 2363 0 
Q 1800 0 1600 300 
Q 1403 606 1534 1269 
L 1856 2925 
L 541 2925 
L 653 3500 
L 3881 3500 
L 3769 2925 
L 2444 2925 
L 2113 1234 
Q 2025 781 2103 638 
z
" id="DejaVuSans-Oblique-3c4" transform="scale(0.015625)"/>
      </defs>
      <use xlink:href="#DejaVuSans-Oblique-6e"/>
      <use transform="translate(63.378906 -16.40625)scale(0.7)" xlink:href="#DejaVuSans-Oblique-3c4"/>
     </g>
    </g>
    <g id="line2d_3">
     <path d="M 516.774179 589.280313 
L 536.774179 589.280313 
" style="fill:none;stroke:#96c69a;stroke-linecap:round;stroke-width:3;"/>
    </g>
    <g id="line2d_4"/>
    <g id="text_15">
     <!-- 50 -->
     <g style="fill:#262626;" transform="translate(544.774179 592.780313)scale(0.1 -0.1)">
      <defs>
       <path d="M 678 4666 
L 3669 4666 
L 3669 3781 
L 1638 3781 
L 1638 3059 
Q 1775 3097 1914 3117 
Q 2053 3138 2203 3138 
Q 3056 3138 3531 2711 
Q 4006 2284 4006 1522 
Q 4006 766 3489 337 
Q 2972 -91 2053 -91 
Q 1656 -91 1267 -14 
Q 878 63 494 219 
L 494 1166 
Q 875 947 1217 837 
Q 1559 728 1863 728 
Q 2300 728 2551 942 
Q 2803 1156 2803 1522 
Q 2803 1891 2551 2103 
Q 2300 2316 1863 2316 
Q 1603 2316 1309 2248 
Q 1016 2181 678 2041 
L 678 4666 
z
" id="DejaVuSans-Bold-35" transform="scale(0.015625)"/>
       <path d="M 2944 2338 
Q 2944 3213 2780 3570 
Q 2616 3928 2228 3928 
Q 1841 3928 1675 3570 
Q 1509 3213 1509 2338 
Q 1509 1453 1675 1090 
Q 1841 728 2228 728 
Q 2613 728 2778 1090 
Q 2944 1453 2944 2338 
z
M 4147 2328 
Q 4147 1169 3647 539 
Q 3147 -91 2228 -91 
Q 1306 -91 806 539 
Q 306 1169 306 2328 
Q 306 3491 806 4120 
Q 1306 4750 2228 4750 
Q 3147 4750 3647 4120 
Q 4147 3491 4147 2328 
z
" id="DejaVuSans-Bold-30" transform="scale(0.015625)"/>
      </defs>
      <use xlink:href="#DejaVuSans-Bold-35"/>
      <use x="69.580078" xlink:href="#DejaVuSans-Bold-30"/>
     </g>
    </g>
   </g>
  </g>
  <g id="axes_2">
   <g id="patch_6">
    <path d="M 84.914375 92.437143 
L 567.689804 92.437143 
L 567.689804 7.2 
L 84.914375 7.2 
z
" style="fill:none;"/>
   </g>
   <g id="matplotlib.axis_3">
    <g id="xtick_7"/>
    <g id="xtick_8"/>
    <g id="xtick_9"/>
    <g id="xtick_10"/>
    <g id="xtick_11"/>
    <g id="xtick_12"/>
   </g>
   <g id="matplotlib.axis_4">
    <g id="ytick_6">
     <g id="text_16">
      <!-- 0 -->
      <g style="fill:#262626;" transform="translate(55.416875 100.795424)scale(0.22 -0.22)">
       <use xlink:href="#DejaVuSans-30"/>
      </g>
     </g>
    </g>
    <g id="ytick_7">
     <g id="text_17">
      <!-- 100 -->
      <g style="fill:#262626;" transform="translate(27.421875 48.082287)scale(0.22 -0.22)">
       <use xlink:href="#DejaVuSans-31"/>
       <use x="63.623047" xlink:href="#DejaVuSans-30"/>
       <use x="127.246094" xlink:href="#DejaVuSans-30"/>
      </g>
     </g>
    </g>
   </g>
   <g id="patch_7">
    <path clip-path="url(#p3f3f2f1836)" d="M 106.858713 92.437143 
L 140.619232 92.437143 
L 140.619232 11.258912 
L 106.858713 11.258912 
z
" style="fill:#96c69a;fill-opacity:0.5;stroke:#ffffff;stroke-linejoin:miter;stroke-width:2;"/>
   </g>
   <g id="patch_8">
    <path clip-path="url(#p3f3f2f1836)" d="M 140.619232 92.437143 
L 174.379752 92.437143 
L 174.379752 11.258912 
L 140.619232 11.258912 
z
" style="fill:#96c69a;fill-opacity:0.5;stroke:#ffffff;stroke-linejoin:miter;stroke-width:2;"/>
   </g>
   <g id="patch_9">
    <path clip-path="url(#p3f3f2f1836)" d="M 174.379752 92.437143 
L 208.140271 92.437143 
L 208.140271 11.258912 
L 174.379752 11.258912 
z
" style="fill:#96c69a;fill-opacity:0.5;stroke:#ffffff;stroke-linejoin:miter;stroke-width:2;"/>
   </g>
   <g id="patch_10">
    <path clip-path="url(#p3f3f2f1836)" d="M 208.140271 92.437143 
L 241.900791 92.437143 
L 241.900791 11.258912 
L 208.140271 11.258912 
z
" style="fill:#96c69a;fill-opacity:0.5;stroke:#ffffff;stroke-linejoin:miter;stroke-width:2;"/>
   </g>
   <g id="patch_11">
    <path clip-path="url(#p3f3f2f1836)" d="M 241.900791 92.437143 
L 275.66131 92.437143 
L 275.66131 11.786043 
L 241.900791 11.786043 
z
" style="fill:#96c69a;fill-opacity:0.5;stroke:#ffffff;stroke-linejoin:miter;stroke-width:2;"/>
   </g>
   <g id="patch_12">
    <path clip-path="url(#p3f3f2f1836)" d="M 275.66131 92.437143 
L 309.42183 92.437143 
L 309.42183 11.258912 
L 275.66131 11.258912 
z
" style="fill:#96c69a;fill-opacity:0.5;stroke:#ffffff;stroke-linejoin:miter;stroke-width:2;"/>
   </g>
   <g id="patch_13">
    <path clip-path="url(#p3f3f2f1836)" d="M 309.42183 92.437143 
L 343.182349 92.437143 
L 343.182349 11.258912 
L 309.42183 11.258912 
z
" style="fill:#96c69a;fill-opacity:0.5;stroke:#ffffff;stroke-linejoin:miter;stroke-width:2;"/>
   </g>
   <g id="patch_14">
    <path clip-path="url(#p3f3f2f1836)" d="M 343.182349 92.437143 
L 376.942869 92.437143 
L 376.942869 11.258912 
L 343.182349 11.258912 
z
" style="fill:#96c69a;fill-opacity:0.5;stroke:#ffffff;stroke-linejoin:miter;stroke-width:2;"/>
   </g>
   <g id="patch_15">
    <path clip-path="url(#p3f3f2f1836)" d="M 376.942869 92.437143 
L 410.703388 92.437143 
L 410.703388 11.786043 
L 376.942869 11.786043 
z
" style="fill:#96c69a;fill-opacity:0.5;stroke:#ffffff;stroke-linejoin:miter;stroke-width:2;"/>
   </g>
   <g id="patch_16">
    <path clip-path="url(#p3f3f2f1836)" d="M 410.703388 92.437143 
L 444.463907 92.437143 
L 444.463907 11.258912 
L 410.703388 11.258912 
z
" style="fill:#96c69a;fill-opacity:0.5;stroke:#ffffff;stroke-linejoin:miter;stroke-width:2;"/>
   </g>
   <g id="patch_17">
    <path clip-path="url(#p3f3f2f1836)" d="M 444.463907 92.437143 
L 478.224427 92.437143 
L 478.224427 11.258912 
L 444.463907 11.258912 
z
" style="fill:#96c69a;fill-opacity:0.5;stroke:#ffffff;stroke-linejoin:miter;stroke-width:2;"/>
   </g>
   <g id="patch_18">
    <path clip-path="url(#p3f3f2f1836)" d="M 478.224427 92.437143 
L 511.984946 92.437143 
L 511.984946 11.258912 
L 478.224427 11.258912 
z
" style="fill:#96c69a;fill-opacity:0.5;stroke:#ffffff;stroke-linejoin:miter;stroke-width:2;"/>
   </g>
   <g id="patch_19">
    <path clip-path="url(#p3f3f2f1836)" d="M 511.984946 92.437143 
L 545.745466 92.437143 
L 545.745466 11.258912 
L 511.984946 11.258912 
z
" style="fill:#96c69a;fill-opacity:0.5;stroke:#ffffff;stroke-linejoin:miter;stroke-width:2;"/>
   </g>
   <g id="patch_20">
    <path d="M 84.914375 92.437143 
L 84.914375 7.2 
" style="fill:none;stroke:#262626;stroke-linecap:square;stroke-linejoin:miter;stroke-width:2.5;"/>
   </g>
   <g id="patch_21">
    <path d="M 84.914375 92.437143 
L 567.689804 92.437143 
" style="fill:none;stroke:#262626;stroke-linecap:square;stroke-linejoin:miter;stroke-width:2.5;"/>
   </g>
  </g>
  <g id="axes_3">
   <g id="patch_22">
    <path d="M 584.337232 603.86 
L 667.574375 603.86 
L 667.574375 109.484571 
L 584.337232 109.484571 
z
" style="fill:none;"/>
   </g>
   <g id="matplotlib.axis_5">
    <g id="xtick_13">
     <g id="text_18">
      <!-- 0 -->
      <g style="fill:#262626;" transform="translate(577.338482 636.076563)scale(0.22 -0.22)">
       <use xlink:href="#DejaVuSans-30"/>
      </g>
     </g>
    </g>
    <g id="xtick_14">
     <g id="text_19">
      <!-- 100 -->
      <g style="fill:#262626;" transform="translate(605.733212 636.076563)scale(0.22 -0.22)">
       <use xlink:href="#DejaVuSans-31"/>
       <use x="63.623047" xlink:href="#DejaVuSans-30"/>
       <use x="127.246094" xlink:href="#DejaVuSans-30"/>
      </g>
     </g>
    </g>
   </g>
   <g id="matplotlib.axis_6">
    <g id="ytick_8"/>
    <g id="ytick_9"/>
    <g id="ytick_10"/>
    <g id="ytick_11"/>
    <g id="ytick_12"/>
   </g>
   <g id="patch_23">
    <path clip-path="url(#p083a4985f2)" d="M 584.337232 581.38839 
L 586.032921 581.38839 
L 586.032921 569.561226 
L 584.337232 569.561226 
z
" style="fill:#96c69a;fill-opacity:0.5;stroke:#ffffff;stroke-linejoin:miter;stroke-width:1.182716;"/>
   </g>
   <g id="patch_24">
    <path clip-path="url(#p083a4985f2)" d="M 584.337232 569.561226 
L 592.815678 569.561226 
L 592.815678 557.734063 
L 584.337232 557.734063 
z
" style="fill:#96c69a;fill-opacity:0.5;stroke:#ffffff;stroke-linejoin:miter;stroke-width:1.182716;"/>
   </g>
   <g id="patch_25">
    <path clip-path="url(#p083a4985f2)" d="M 584.337232 557.734063 
L 604.685502 557.734063 
L 604.685502 545.9069 
L 584.337232 545.9069 
z
" style="fill:#96c69a;fill-opacity:0.5;stroke:#ffffff;stroke-linejoin:miter;stroke-width:1.182716;"/>
   </g>
   <g id="patch_26">
    <path clip-path="url(#p083a4985f2)" d="M 584.337232 545.9069 
L 626.305539 545.9069 
L 626.305539 534.079736 
L 584.337232 534.079736 
z
" style="fill:#96c69a;fill-opacity:0.5;stroke:#ffffff;stroke-linejoin:miter;stroke-width:1.182716;"/>
   </g>
   <g id="patch_27">
    <path clip-path="url(#p083a4985f2)" d="M 584.337232 534.079736 
L 638.599286 534.079736 
L 638.599286 522.252573 
L 584.337232 522.252573 
z
" style="fill:#96c69a;fill-opacity:0.5;stroke:#ffffff;stroke-linejoin:miter;stroke-width:1.182716;"/>
   </g>
   <g id="patch_28">
    <path clip-path="url(#p083a4985f2)" d="M 584.337232 522.252573 
L 654.284411 522.252573 
L 654.284411 510.425409 
L 584.337232 510.425409 
z
" style="fill:#96c69a;fill-opacity:0.5;stroke:#ffffff;stroke-linejoin:miter;stroke-width:1.182716;"/>
   </g>
   <g id="patch_29">
    <path clip-path="url(#p083a4985f2)" d="M 584.337232 510.425409 
L 659.795401 510.425409 
L 659.795401 498.598246 
L 584.337232 498.598246 
z
" style="fill:#96c69a;fill-opacity:0.5;stroke:#ffffff;stroke-linejoin:miter;stroke-width:1.182716;"/>
   </g>
   <g id="patch_30">
    <path clip-path="url(#p083a4985f2)" d="M 584.337232 498.598246 
L 656.827945 498.598246 
L 656.827945 486.771083 
L 584.337232 486.771083 
z
" style="fill:#96c69a;fill-opacity:0.5;stroke:#ffffff;stroke-linejoin:miter;stroke-width:1.182716;"/>
   </g>
   <g id="patch_31">
    <path clip-path="url(#p083a4985f2)" d="M 584.337232 486.771083 
L 663.610702 486.771083 
L 663.610702 474.943919 
L 584.337232 474.943919 
z
" style="fill:#96c69a;fill-opacity:0.5;stroke:#ffffff;stroke-linejoin:miter;stroke-width:1.182716;"/>
   </g>
   <g id="patch_32">
    <path clip-path="url(#p083a4985f2)" d="M 584.337232 474.943919 
L 653.012644 474.943919 
L 653.012644 463.116756 
L 584.337232 463.116756 
z
" style="fill:#96c69a;fill-opacity:0.5;stroke:#ffffff;stroke-linejoin:miter;stroke-width:1.182716;"/>
   </g>
   <g id="patch_33">
    <path clip-path="url(#p083a4985f2)" d="M 584.337232 463.116756 
L 644.95812 463.116756 
L 644.95812 451.289593 
L 584.337232 451.289593 
z
" style="fill:#96c69a;fill-opacity:0.5;stroke:#ffffff;stroke-linejoin:miter;stroke-width:1.182716;"/>
   </g>
   <g id="patch_34">
    <path clip-path="url(#p083a4985f2)" d="M 584.337232 451.289593 
L 640.718898 451.289593 
L 640.718898 439.462429 
L 584.337232 439.462429 
z
" style="fill:#96c69a;fill-opacity:0.5;stroke:#ffffff;stroke-linejoin:miter;stroke-width:1.182716;"/>
   </g>
   <g id="patch_35">
    <path clip-path="url(#p083a4985f2)" d="M 584.337232 439.462429 
L 628.425151 439.462429 
L 628.425151 427.635266 
L 584.337232 427.635266 
z
" style="fill:#96c69a;fill-opacity:0.5;stroke:#ffffff;stroke-linejoin:miter;stroke-width:1.182716;"/>
   </g>
   <g id="patch_36">
    <path clip-path="url(#p083a4985f2)" d="M 584.337232 427.635266 
L 624.60985 427.635266 
L 624.60985 415.808103 
L 584.337232 415.808103 
z
" style="fill:#96c69a;fill-opacity:0.5;stroke:#ffffff;stroke-linejoin:miter;stroke-width:1.182716;"/>
   </g>
   <g id="patch_37">
    <path clip-path="url(#p083a4985f2)" d="M 584.337232 415.808103 
L 613.587871 415.808103 
L 613.587871 403.980939 
L 584.337232 403.980939 
z
" style="fill:#96c69a;fill-opacity:0.5;stroke:#ffffff;stroke-linejoin:miter;stroke-width:1.182716;"/>
   </g>
   <g id="patch_38">
    <path clip-path="url(#p083a4985f2)" d="M 584.337232 403.980939 
L 609.348648 403.980939 
L 609.348648 392.153776 
L 584.337232 392.153776 
z
" style="fill:#96c69a;fill-opacity:0.5;stroke:#ffffff;stroke-linejoin:miter;stroke-width:1.182716;"/>
   </g>
   <g id="patch_39">
    <path clip-path="url(#p083a4985f2)" d="M 584.337232 392.153776 
L 609.77257 392.153776 
L 609.77257 380.326612 
L 584.337232 380.326612 
z
" style="fill:#96c69a;fill-opacity:0.5;stroke:#ffffff;stroke-linejoin:miter;stroke-width:1.182716;"/>
   </g>
   <g id="patch_40">
    <path clip-path="url(#p083a4985f2)" d="M 584.337232 380.326612 
L 602.565891 380.326612 
L 602.565891 368.499449 
L 584.337232 368.499449 
z
" style="fill:#96c69a;fill-opacity:0.5;stroke:#ffffff;stroke-linejoin:miter;stroke-width:1.182716;"/>
   </g>
   <g id="patch_41">
    <path clip-path="url(#p083a4985f2)" d="M 584.337232 368.499449 
L 598.75059 368.499449 
L 598.75059 356.672286 
L 584.337232 356.672286 
z
" style="fill:#96c69a;fill-opacity:0.5;stroke:#ffffff;stroke-linejoin:miter;stroke-width:1.182716;"/>
   </g>
   <g id="patch_42">
    <path clip-path="url(#p083a4985f2)" d="M 584.337232 356.672286 
L 594.511367 356.672286 
L 594.511367 344.845122 
L 584.337232 344.845122 
z
" style="fill:#96c69a;fill-opacity:0.5;stroke:#ffffff;stroke-linejoin:miter;stroke-width:1.182716;"/>
   </g>
   <g id="patch_43">
    <path clip-path="url(#p083a4985f2)" d="M 584.337232 344.845122 
L 590.696067 344.845122 
L 590.696067 333.017959 
L 584.337232 333.017959 
z
" style="fill:#96c69a;fill-opacity:0.5;stroke:#ffffff;stroke-linejoin:miter;stroke-width:1.182716;"/>
   </g>
   <g id="patch_44">
    <path clip-path="url(#p083a4985f2)" d="M 584.337232 333.017959 
L 589.4243 333.017959 
L 589.4243 321.190796 
L 584.337232 321.190796 
z
" style="fill:#96c69a;fill-opacity:0.5;stroke:#ffffff;stroke-linejoin:miter;stroke-width:1.182716;"/>
   </g>
   <g id="patch_45">
    <path clip-path="url(#p083a4985f2)" d="M 584.337232 321.190796 
L 590.272144 321.190796 
L 590.272144 309.363632 
L 584.337232 309.363632 
z
" style="fill:#96c69a;fill-opacity:0.5;stroke:#ffffff;stroke-linejoin:miter;stroke-width:1.182716;"/>
   </g>
   <g id="patch_46">
    <path clip-path="url(#p083a4985f2)" d="M 584.337232 309.363632 
L 586.880766 309.363632 
L 586.880766 297.536469 
L 584.337232 297.536469 
z
" style="fill:#96c69a;fill-opacity:0.5;stroke:#ffffff;stroke-linejoin:miter;stroke-width:1.182716;"/>
   </g>
   <g id="patch_47">
    <path clip-path="url(#p083a4985f2)" d="M 584.337232 297.536469 
L 586.456844 297.536469 
L 586.456844 285.709306 
L 584.337232 285.709306 
z
" style="fill:#96c69a;fill-opacity:0.5;stroke:#ffffff;stroke-linejoin:miter;stroke-width:1.182716;"/>
   </g>
   <g id="patch_48">
    <path clip-path="url(#p083a4985f2)" d="M 584.337232 285.709306 
L 586.456844 285.709306 
L 586.456844 273.882142 
L 584.337232 273.882142 
z
" style="fill:#96c69a;fill-opacity:0.5;stroke:#ffffff;stroke-linejoin:miter;stroke-width:1.182716;"/>
   </g>
   <g id="patch_49">
    <path clip-path="url(#p083a4985f2)" d="M 584.337232 273.882142 
L 585.608999 273.882142 
L 585.608999 262.054979 
L 584.337232 262.054979 
z
" style="fill:#96c69a;fill-opacity:0.5;stroke:#ffffff;stroke-linejoin:miter;stroke-width:1.182716;"/>
   </g>
   <g id="patch_50">
    <path clip-path="url(#p083a4985f2)" d="M 584.337232 262.054979 
L 585.608999 262.054979 
L 585.608999 250.227815 
L 584.337232 250.227815 
z
" style="fill:#96c69a;fill-opacity:0.5;stroke:#ffffff;stroke-linejoin:miter;stroke-width:1.182716;"/>
   </g>
   <g id="patch_51">
    <path clip-path="url(#p083a4985f2)" d="M 584.337232 250.227815 
L 585.185077 250.227815 
L 585.185077 238.400652 
L 584.337232 238.400652 
z
" style="fill:#96c69a;fill-opacity:0.5;stroke:#ffffff;stroke-linejoin:miter;stroke-width:1.182716;"/>
   </g>
   <g id="patch_52">
    <path clip-path="url(#p083a4985f2)" d="M 584.337232 238.400652 
L 584.337232 238.400652 
L 584.337232 226.573489 
L 584.337232 226.573489 
z
" style="fill:#96c69a;fill-opacity:0.5;stroke:#ffffff;stroke-linejoin:miter;stroke-width:1.182716;"/>
   </g>
   <g id="patch_53">
    <path clip-path="url(#p083a4985f2)" d="M 584.337232 226.573489 
L 585.608999 226.573489 
L 585.608999 214.746325 
L 584.337232 214.746325 
z
" style="fill:#96c69a;fill-opacity:0.5;stroke:#ffffff;stroke-linejoin:miter;stroke-width:1.182716;"/>
   </g>
   <g id="patch_54">
    <path clip-path="url(#p083a4985f2)" d="M 584.337232 214.746325 
L 584.761154 214.746325 
L 584.761154 202.919162 
L 584.337232 202.919162 
z
" style="fill:#96c69a;fill-opacity:0.5;stroke:#ffffff;stroke-linejoin:miter;stroke-width:1.182716;"/>
   </g>
   <g id="patch_55">
    <path clip-path="url(#p083a4985f2)" d="M 584.337232 202.919162 
L 585.185077 202.919162 
L 585.185077 191.091999 
L 584.337232 191.091999 
z
" style="fill:#96c69a;fill-opacity:0.5;stroke:#ffffff;stroke-linejoin:miter;stroke-width:1.182716;"/>
   </g>
   <g id="patch_56">
    <path clip-path="url(#p083a4985f2)" d="M 584.337232 191.091999 
L 584.337232 191.091999 
L 584.337232 179.264835 
L 584.337232 179.264835 
z
" style="fill:#96c69a;fill-opacity:0.5;stroke:#ffffff;stroke-linejoin:miter;stroke-width:1.182716;"/>
   </g>
   <g id="patch_57">
    <path clip-path="url(#p083a4985f2)" d="M 584.337232 179.264835 
L 584.337232 179.264835 
L 584.337232 167.437672 
L 584.337232 167.437672 
z
" style="fill:#96c69a;fill-opacity:0.5;stroke:#ffffff;stroke-linejoin:miter;stroke-width:1.182716;"/>
   </g>
   <g id="patch_58">
    <path clip-path="url(#p083a4985f2)" d="M 584.337232 167.437672 
L 584.761154 167.437672 
L 584.761154 155.610509 
L 584.337232 155.610509 
z
" style="fill:#96c69a;fill-opacity:0.5;stroke:#ffffff;stroke-linejoin:miter;stroke-width:1.182716;"/>
   </g>
   <g id="patch_59">
    <path clip-path="url(#p083a4985f2)" d="M 584.337232 155.610509 
L 584.761154 155.610509 
L 584.761154 143.783345 
L 584.337232 143.783345 
z
" style="fill:#96c69a;fill-opacity:0.5;stroke:#ffffff;stroke-linejoin:miter;stroke-width:1.182716;"/>
   </g>
   <g id="patch_60">
    <path clip-path="url(#p083a4985f2)" d="M 584.337232 143.783345 
L 584.761154 143.783345 
L 584.761154 131.956182 
L 584.337232 131.956182 
z
" style="fill:#96c69a;fill-opacity:0.5;stroke:#ffffff;stroke-linejoin:miter;stroke-width:1.182716;"/>
   </g>
   <g id="patch_61">
    <path d="M 584.337232 603.86 
L 584.337232 109.484571 
" style="fill:none;stroke:#262626;stroke-linecap:square;stroke-linejoin:miter;stroke-width:2.5;"/>
   </g>
   <g id="patch_62">
    <path d="M 584.337232 603.86 
L 667.574375 603.86 
" style="fill:none;stroke:#262626;stroke-linecap:square;stroke-linejoin:miter;stroke-width:2.5;"/>
   </g>
  </g>
 </g>
 <defs>
  <clipPath id="p5de1719ed5">
   <rect height="494.375429" width="482.775429" x="84.914375" y="109.484571"/>
  </clipPath>
  <clipPath id="p3f3f2f1836">
   <rect height="85.237143" width="482.775429" x="84.914375" y="7.2"/>
  </clipPath>
  <clipPath id="p083a4985f2">
   <rect height="494.375429" width="83.237143" x="584.337232" y="109.484571"/>
  </clipPath>
 </defs>
</svg>
