<?xml version="1.0" encoding="utf-8" standalone="no"?>
<!DOCTYPE svg PUBLIC "-//W3C//DTD SVG 1.1//EN"
  "http://www.w3.org/Graphics/SVG/1.1/DTD/svg11.dtd">
<svg height="675.079375pt" version="1.1" viewBox="0 0 674.774375 675.079375" width="674.774375pt" xmlns="http://www.w3.org/2000/svg" xmlns:xlink="http://www.w3.org/1999/xlink">
 <metadata>
  <rdf:RDF xmlns:cc="http://creativecommons.org/ns#" xmlns:dc="http://purl.org/dc/elements/1.1/" xmlns:rdf="http://www.w3.org/1999/02/22-rdf-syntax-ns#">
   <cc:Work>
    <dc:type rdf:resource="http://purl.org/dc/dcmitype/StillImage"/>
    <dc:date>2021-07-16T21:44:00.349150</dc:date>
    <dc:format>image/svg+xml</dc:format>
    <dc:creator>
     <cc:Agent>
      <dc:title>Matplotlib v3.4.2, https://matplotlib.org/</dc:title>
     </cc:Agent>
    </dc:creator>
   </cc:Work>
  </rdf:RDF>
 </metadata>
 <defs>
  <style type="text/css">*{stroke-linecap:butt;stroke-linejoin:round;}</style>
 </defs>
 <g id="figure_1">
  <g id="patch_1">
   <path d="M 0 675.079375 
L 674.774375 675.079375 
L 674.774375 0 
L 0 0 
z
" style="fill:#ffffff;"/>
  </g>
  <g id="axes_1">
   <g id="patch_2">
    <path d="M 84.914375 603.86 
L 567.689804 603.86 
L 567.689804 109.484571 
L 84.914375 109.484571 
z
" style="fill:none;"/>
   </g>
   <g id="matplotlib.axis_1">
    <g id="xtick_1">
     <g id="text_1">
      <!-- 0 -->
      <g style="fill:#262626;" transform="translate(99.64041 636.076563)scale(0.22 -0.22)">
       <defs>
        <path d="M 2034 4250 
Q 1547 4250 1301 3770 
Q 1056 3291 1056 2328 
Q 1056 1369 1301 889 
Q 1547 409 2034 409 
Q 2525 409 2770 889 
Q 3016 1369 3016 2328 
Q 3016 3291 2770 3770 
Q 2525 4250 2034 4250 
z
M 2034 4750 
Q 2819 4750 3233 4129 
Q 3647 3509 3647 2328 
Q 3647 1150 3233 529 
Q 2819 -91 2034 -91 
Q 1250 -91 836 529 
Q 422 1150 422 2328 
Q 422 3509 836 4129 
Q 1250 4750 2034 4750 
z
" id="DejaVuSans-30" transform="scale(0.015625)"/>
       </defs>
       <use xlink:href="#DejaVuSans-30"/>
      </g>
     </g>
    </g>
    <g id="xtick_2">
     <g id="text_2">
      <!-- 20000 -->
      <g style="fill:#262626;" transform="translate(159.466671 636.076563)scale(0.22 -0.22)">
       <defs>
        <path d="M 1228 531 
L 3431 531 
L 3431 0 
L 469 0 
L 469 531 
Q 828 903 1448 1529 
Q 2069 2156 2228 2338 
Q 2531 2678 2651 2914 
Q 2772 3150 2772 3378 
Q 2772 3750 2511 3984 
Q 2250 4219 1831 4219 
Q 1534 4219 1204 4116 
Q 875 4013 500 3803 
L 500 4441 
Q 881 4594 1212 4672 
Q 1544 4750 1819 4750 
Q 2544 4750 2975 4387 
Q 3406 4025 3406 3419 
Q 3406 3131 3298 2873 
Q 3191 2616 2906 2266 
Q 2828 2175 2409 1742 
Q 1991 1309 1228 531 
z
" id="DejaVuSans-32" transform="scale(0.015625)"/>
       </defs>
       <use xlink:href="#DejaVuSans-32"/>
       <use x="63.623047" xlink:href="#DejaVuSans-30"/>
       <use x="127.246094" xlink:href="#DejaVuSans-30"/>
       <use x="190.869141" xlink:href="#DejaVuSans-30"/>
       <use x="254.492188" xlink:href="#DejaVuSans-30"/>
      </g>
     </g>
    </g>
    <g id="xtick_3">
     <g id="text_3">
      <!-- 40000 -->
      <g style="fill:#262626;" transform="translate(247.287932 636.076563)scale(0.22 -0.22)">
       <defs>
        <path d="M 2419 4116 
L 825 1625 
L 2419 1625 
L 2419 4116 
z
M 2253 4666 
L 3047 4666 
L 3047 1625 
L 3713 1625 
L 3713 1100 
L 3047 1100 
L 3047 0 
L 2419 0 
L 2419 1100 
L 313 1100 
L 313 1709 
L 2253 4666 
z
" id="DejaVuSans-34" transform="scale(0.015625)"/>
       </defs>
       <use xlink:href="#DejaVuSans-34"/>
       <use x="63.623047" xlink:href="#DejaVuSans-30"/>
       <use x="127.246094" xlink:href="#DejaVuSans-30"/>
       <use x="190.869141" xlink:href="#DejaVuSans-30"/>
       <use x="254.492188" xlink:href="#DejaVuSans-30"/>
      </g>
     </g>
    </g>
    <g id="xtick_4">
     <g id="text_4">
      <!-- 60000 -->
      <g style="fill:#262626;" transform="translate(335.109193 636.076563)scale(0.22 -0.22)">
       <defs>
        <path d="M 2113 2584 
Q 1688 2584 1439 2293 
Q 1191 2003 1191 1497 
Q 1191 994 1439 701 
Q 1688 409 2113 409 
Q 2538 409 2786 701 
Q 3034 994 3034 1497 
Q 3034 2003 2786 2293 
Q 2538 2584 2113 2584 
z
M 3366 4563 
L 3366 3988 
Q 3128 4100 2886 4159 
Q 2644 4219 2406 4219 
Q 1781 4219 1451 3797 
Q 1122 3375 1075 2522 
Q 1259 2794 1537 2939 
Q 1816 3084 2150 3084 
Q 2853 3084 3261 2657 
Q 3669 2231 3669 1497 
Q 3669 778 3244 343 
Q 2819 -91 2113 -91 
Q 1303 -91 875 529 
Q 447 1150 447 2328 
Q 447 3434 972 4092 
Q 1497 4750 2381 4750 
Q 2619 4750 2861 4703 
Q 3103 4656 3366 4563 
z
" id="DejaVuSans-36" transform="scale(0.015625)"/>
       </defs>
       <use xlink:href="#DejaVuSans-36"/>
       <use x="63.623047" xlink:href="#DejaVuSans-30"/>
       <use x="127.246094" xlink:href="#DejaVuSans-30"/>
       <use x="190.869141" xlink:href="#DejaVuSans-30"/>
       <use x="254.492188" xlink:href="#DejaVuSans-30"/>
      </g>
     </g>
    </g>
    <g id="xtick_5">
     <g id="text_5">
      <!-- 80000 -->
      <g style="fill:#262626;" transform="translate(422.930455 636.076563)scale(0.22 -0.22)">
       <defs>
        <path d="M 2034 2216 
Q 1584 2216 1326 1975 
Q 1069 1734 1069 1313 
Q 1069 891 1326 650 
Q 1584 409 2034 409 
Q 2484 409 2743 651 
Q 3003 894 3003 1313 
Q 3003 1734 2745 1975 
Q 2488 2216 2034 2216 
z
M 1403 2484 
Q 997 2584 770 2862 
Q 544 3141 544 3541 
Q 544 4100 942 4425 
Q 1341 4750 2034 4750 
Q 2731 4750 3128 4425 
Q 3525 4100 3525 3541 
Q 3525 3141 3298 2862 
Q 3072 2584 2669 2484 
Q 3125 2378 3379 2068 
Q 3634 1759 3634 1313 
Q 3634 634 3220 271 
Q 2806 -91 2034 -91 
Q 1263 -91 848 271 
Q 434 634 434 1313 
Q 434 1759 690 2068 
Q 947 2378 1403 2484 
z
M 1172 3481 
Q 1172 3119 1398 2916 
Q 1625 2713 2034 2713 
Q 2441 2713 2670 2916 
Q 2900 3119 2900 3481 
Q 2900 3844 2670 4047 
Q 2441 4250 2034 4250 
Q 1625 4250 1398 4047 
Q 1172 3844 1172 3481 
z
" id="DejaVuSans-38" transform="scale(0.015625)"/>
       </defs>
       <use xlink:href="#DejaVuSans-38"/>
       <use x="63.623047" xlink:href="#DejaVuSans-30"/>
       <use x="127.246094" xlink:href="#DejaVuSans-30"/>
       <use x="190.869141" xlink:href="#DejaVuSans-30"/>
       <use x="254.492188" xlink:href="#DejaVuSans-30"/>
      </g>
     </g>
    </g>
    <g id="xtick_6">
     <g id="text_6">
      <!-- 100000 -->
      <g style="fill:#262626;" transform="translate(503.752966 636.076563)scale(0.22 -0.22)">
       <defs>
        <path d="M 794 531 
L 1825 531 
L 1825 4091 
L 703 3866 
L 703 4441 
L 1819 4666 
L 2450 4666 
L 2450 531 
L 3481 531 
L 3481 0 
L 794 0 
L 794 531 
z
" id="DejaVuSans-31" transform="scale(0.015625)"/>
       </defs>
       <use xlink:href="#DejaVuSans-31"/>
       <use x="63.623047" xlink:href="#DejaVuSans-30"/>
       <use x="127.246094" xlink:href="#DejaVuSans-30"/>
       <use x="190.869141" xlink:href="#DejaVuSans-30"/>
       <use x="254.492188" xlink:href="#DejaVuSans-30"/>
       <use x="318.115234" xlink:href="#DejaVuSans-30"/>
      </g>
     </g>
    </g>
    <g id="text_7">
     <!-- MDTU -->
     <g style="fill:#262626;" transform="translate(290.596464 662.888125)scale(0.24 -0.24)">
      <defs>
       <path d="M 628 4666 
L 1569 4666 
L 2759 1491 
L 3956 4666 
L 4897 4666 
L 4897 0 
L 4281 0 
L 4281 4097 
L 3078 897 
L 2444 897 
L 1241 4097 
L 1241 0 
L 628 0 
L 628 4666 
z
" id="DejaVuSans-4d" transform="scale(0.015625)"/>
       <path d="M 1259 4147 
L 1259 519 
L 2022 519 
Q 2988 519 3436 956 
Q 3884 1394 3884 2338 
Q 3884 3275 3436 3711 
Q 2988 4147 2022 4147 
L 1259 4147 
z
M 628 4666 
L 1925 4666 
Q 3281 4666 3915 4102 
Q 4550 3538 4550 2338 
Q 4550 1131 3912 565 
Q 3275 0 1925 0 
L 628 0 
L 628 4666 
z
" id="DejaVuSans-44" transform="scale(0.015625)"/>
       <path d="M -19 4666 
L 3928 4666 
L 3928 4134 
L 2272 4134 
L 2272 0 
L 1638 0 
L 1638 4134 
L -19 4134 
L -19 4666 
z
" id="DejaVuSans-54" transform="scale(0.015625)"/>
       <path d="M 556 4666 
L 1191 4666 
L 1191 1831 
Q 1191 1081 1462 751 
Q 1734 422 2344 422 
Q 2950 422 3222 751 
Q 3494 1081 3494 1831 
L 3494 4666 
L 4128 4666 
L 4128 1753 
Q 4128 841 3676 375 
Q 3225 -91 2344 -91 
Q 1459 -91 1007 375 
Q 556 841 556 1753 
L 556 4666 
z
" id="DejaVuSans-55" transform="scale(0.015625)"/>
      </defs>
      <use xlink:href="#DejaVuSans-4d"/>
      <use x="86.279297" xlink:href="#DejaVuSans-44"/>
      <use x="163.28125" xlink:href="#DejaVuSans-54"/>
      <use x="224.365234" xlink:href="#DejaVuSans-55"/>
     </g>
    </g>
   </g>
   <g id="matplotlib.axis_2">
    <g id="ytick_1">
     <g id="text_8">
      <!-- 0.3 -->
      <g style="fill:#262626;" transform="translate(34.4275 589.737499)scale(0.22 -0.22)">
       <defs>
        <path d="M 684 794 
L 1344 794 
L 1344 0 
L 684 0 
L 684 794 
z
" id="DejaVuSans-2e" transform="scale(0.015625)"/>
        <path d="M 2597 2516 
Q 3050 2419 3304 2112 
Q 3559 1806 3559 1356 
Q 3559 666 3084 287 
Q 2609 -91 1734 -91 
Q 1441 -91 1130 -33 
Q 819 25 488 141 
L 488 750 
Q 750 597 1062 519 
Q 1375 441 1716 441 
Q 2309 441 2620 675 
Q 2931 909 2931 1356 
Q 2931 1769 2642 2001 
Q 2353 2234 1838 2234 
L 1294 2234 
L 1294 2753 
L 1863 2753 
Q 2328 2753 2575 2939 
Q 2822 3125 2822 3475 
Q 2822 3834 2567 4026 
Q 2313 4219 1838 4219 
Q 1578 4219 1281 4162 
Q 984 4106 628 3988 
L 628 4550 
Q 988 4650 1302 4700 
Q 1616 4750 1894 4750 
Q 2613 4750 3031 4423 
Q 3450 4097 3450 3541 
Q 3450 3153 3228 2886 
Q 3006 2619 2597 2516 
z
" id="DejaVuSans-33" transform="scale(0.015625)"/>
       </defs>
       <use xlink:href="#DejaVuSans-30"/>
       <use x="63.623047" xlink:href="#DejaVuSans-2e"/>
       <use x="95.410156" xlink:href="#DejaVuSans-33"/>
      </g>
     </g>
    </g>
    <g id="ytick_2">
     <g id="text_9">
      <!-- 0.4 -->
      <g style="fill:#262626;" transform="translate(34.4275 529.635385)scale(0.22 -0.22)">
       <use xlink:href="#DejaVuSans-30"/>
       <use x="63.623047" xlink:href="#DejaVuSans-2e"/>
       <use x="95.410156" xlink:href="#DejaVuSans-34"/>
      </g>
     </g>
    </g>
    <g id="ytick_3">
     <g id="text_10">
      <!-- 0.5 -->
      <g style="fill:#262626;" transform="translate(34.4275 469.533271)scale(0.22 -0.22)">
       <defs>
        <path d="M 691 4666 
L 3169 4666 
L 3169 4134 
L 1269 4134 
L 1269 2991 
Q 1406 3038 1543 3061 
Q 1681 3084 1819 3084 
Q 2600 3084 3056 2656 
Q 3513 2228 3513 1497 
Q 3513 744 3044 326 
Q 2575 -91 1722 -91 
Q 1428 -91 1123 -41 
Q 819 9 494 109 
L 494 744 
Q 775 591 1075 516 
Q 1375 441 1709 441 
Q 2250 441 2565 725 
Q 2881 1009 2881 1497 
Q 2881 1984 2565 2268 
Q 2250 2553 1709 2553 
Q 1456 2553 1204 2497 
Q 953 2441 691 2322 
L 691 4666 
z
" id="DejaVuSans-35" transform="scale(0.015625)"/>
       </defs>
       <use xlink:href="#DejaVuSans-30"/>
       <use x="63.623047" xlink:href="#DejaVuSans-2e"/>
       <use x="95.410156" xlink:href="#DejaVuSans-35"/>
      </g>
     </g>
    </g>
    <g id="ytick_4">
     <g id="text_11">
      <!-- 0.6 -->
      <g style="fill:#262626;" transform="translate(34.4275 409.431157)scale(0.22 -0.22)">
       <use xlink:href="#DejaVuSans-30"/>
       <use x="63.623047" xlink:href="#DejaVuSans-2e"/>
       <use x="95.410156" xlink:href="#DejaVuSans-36"/>
      </g>
     </g>
    </g>
    <g id="ytick_5">
     <g id="text_12">
      <!-- 0.7 -->
      <g style="fill:#262626;" transform="translate(34.4275 349.329043)scale(0.22 -0.22)">
       <defs>
        <path d="M 525 4666 
L 3525 4666 
L 3525 4397 
L 1831 0 
L 1172 0 
L 2766 4134 
L 525 4134 
L 525 4666 
z
" id="DejaVuSans-37" transform="scale(0.015625)"/>
       </defs>
       <use xlink:href="#DejaVuSans-30"/>
       <use x="63.623047" xlink:href="#DejaVuSans-2e"/>
       <use x="95.410156" xlink:href="#DejaVuSans-37"/>
      </g>
     </g>
    </g>
    <g id="ytick_6">
     <g id="text_13">
      <!-- 0.8 -->
      <g style="fill:#262626;" transform="translate(34.4275 289.226928)scale(0.22 -0.22)">
       <use xlink:href="#DejaVuSans-30"/>
       <use x="63.623047" xlink:href="#DejaVuSans-2e"/>
       <use x="95.410156" xlink:href="#DejaVuSans-38"/>
      </g>
     </g>
    </g>
    <g id="ytick_7">
     <g id="text_14">
      <!-- 0.9 -->
      <g style="fill:#262626;" transform="translate(34.4275 229.124814)scale(0.22 -0.22)">
       <defs>
        <path d="M 703 97 
L 703 672 
Q 941 559 1184 500 
Q 1428 441 1663 441 
Q 2288 441 2617 861 
Q 2947 1281 2994 2138 
Q 2813 1869 2534 1725 
Q 2256 1581 1919 1581 
Q 1219 1581 811 2004 
Q 403 2428 403 3163 
Q 403 3881 828 4315 
Q 1253 4750 1959 4750 
Q 2769 4750 3195 4129 
Q 3622 3509 3622 2328 
Q 3622 1225 3098 567 
Q 2575 -91 1691 -91 
Q 1453 -91 1209 -44 
Q 966 3 703 97 
z
M 1959 2075 
Q 2384 2075 2632 2365 
Q 2881 2656 2881 3163 
Q 2881 3666 2632 3958 
Q 2384 4250 1959 4250 
Q 1534 4250 1286 3958 
Q 1038 3666 1038 3163 
Q 1038 2656 1286 2365 
Q 1534 2075 1959 2075 
z
" id="DejaVuSans-39" transform="scale(0.015625)"/>
       </defs>
       <use xlink:href="#DejaVuSans-30"/>
       <use x="63.623047" xlink:href="#DejaVuSans-2e"/>
       <use x="95.410156" xlink:href="#DejaVuSans-39"/>
      </g>
     </g>
    </g>
    <g id="ytick_8">
     <g id="text_15">
      <!-- 1.0 -->
      <g style="fill:#262626;" transform="translate(34.4275 169.0227)scale(0.22 -0.22)">
       <use xlink:href="#DejaVuSans-31"/>
       <use x="63.623047" xlink:href="#DejaVuSans-2e"/>
       <use x="95.410156" xlink:href="#DejaVuSans-30"/>
      </g>
     </g>
    </g>
    <g id="text_16">
     <!-- $E$ -->
     <g style="fill:#262626;" transform="translate(25.43625 364.352286)rotate(-90)scale(0.24 -0.24)">
      <defs>
       <path d="M 1081 4666 
L 4031 4666 
L 3928 4134 
L 1606 4134 
L 1338 2753 
L 3566 2753 
L 3463 2222 
L 1234 2222 
L 909 531 
L 3284 531 
L 3181 0 
L 172 0 
L 1081 4666 
z
" id="DejaVuSans-Oblique-45" transform="scale(0.015625)"/>
      </defs>
      <use transform="translate(0 0.09375)" xlink:href="#DejaVuSans-Oblique-45"/>
     </g>
    </g>
   </g>
   <g id="line2d_1">
    <path clip-path="url(#p873b959153)" d="M 106.858713 361.692231 
L 107.078266 397.361388 
L 107.297819 492.02607 
L 107.517372 482.972726 
L 107.736925 394.331305 
L 107.956478 437.446981 
L 108.176032 440.277812 
L 108.395585 450.187257 
L 108.615138 453.348707 
L 108.834691 516.403753 
L 109.054244 395.248399 
L 109.273797 479.962095 
L 109.493351 316.918377 
L 109.932457 436.853273 
L 110.15201 547.191509 
L 110.371563 453.791258 
L 110.591116 490.093173 
L 110.810669 367.210223 
L 111.030223 482.88971 
L 111.249776 497.273169 
L 111.469329 485.734941 
L 111.688882 415.960039 
L 112.127988 462.579155 
L 112.347541 534.260221 
L 112.786648 388.005255 
L 113.006201 428.305634 
L 113.445307 345.757531 
L 113.66486 299.102499 
L 113.884414 473.677271 
L 114.103967 478.223011 
L 114.32352 465.261142 
L 114.543073 435.860802 
L 114.762626 473.198818 
L 114.982179 442.318727 
L 115.201732 499.667321 
L 115.640839 384.780201 
L 115.860392 444.982425 
L 116.079945 306.313526 
L 116.299498 412.18697 
L 116.519051 408.092107 
L 116.738605 514.466888 
L 116.958158 471.695528 
L 117.177711 499.417168 
L 117.397264 437.283073 
L 117.616817 509.272312 
L 117.83637 359.352895 
L 118.055923 398.888753 
L 118.275477 498.303975 
L 118.49503 478.94621 
L 118.714583 503.342025 
L 118.934136 426.962687 
L 119.153689 429.265575 
L 119.592796 419.703985 
L 119.812349 491.402942 
L 120.031902 417.849699 
L 120.251455 478.681896 
L 120.471008 432.574985 
L 120.690561 349.967058 
L 120.910114 459.181712 
L 121.129668 402.38767 
L 121.349221 488.094233 
L 121.568774 391.14616 
L 122.00788 513.682956 
L 122.446987 394.469252 
L 122.66654 508.221047 
L 123.105646 362.94558 
L 123.325199 387.671355 
L 123.544752 329.580725 
L 123.764305 513.956257 
L 123.983859 373.05479 
L 124.203412 455.324618 
L 124.422965 393.769039 
L 124.642518 494.122637 
L 124.862071 383.860886 
L 125.081624 492.790558 
L 125.301178 525.290874 
L 125.520731 390.664742 
L 125.740284 407.252862 
L 126.17939 484.811277 
L 126.398943 380.064993 
L 126.618496 450.487443 
L 126.83805 417.94917 
L 127.057603 464.927244 
L 127.277156 360.720794 
L 127.496709 431.50009 
L 127.716262 390.088957 
L 127.935815 389.921868 
L 128.155369 418.656001 
L 128.374922 496.82143 
L 128.594475 447.387046 
L 128.814028 457.660494 
L 129.033581 495.262428 
L 129.472687 405.009088 
L 129.692241 474.199649 
L 129.911794 408.802048 
L 130.131347 395.862608 
L 130.3509 435.308982 
L 130.570453 551.467346 
L 130.790006 444.509252 
L 131.00956 461.189857 
L 131.229113 458.127616 
L 131.448666 466.086235 
L 131.887772 396.32957 
L 132.107325 530.11488 
L 132.326878 449.945304 
L 132.546432 525.780572 
L 132.765985 461.987974 
L 132.985538 492.452988 
L 133.424644 472.059845 
L 133.644197 434.030876 
L 134.083304 459.199566 
L 134.302857 378.539042 
L 134.52241 514.375078 
L 134.741963 529.993783 
L 134.961516 389.565404 
L 135.181069 490.130185 
L 135.400623 533.854618 
L 135.620176 406.139443 
L 135.839729 517.051416 
L 136.059282 399.817982 
L 136.278835 498.369362 
L 136.498388 384.881976 
L 136.717941 492.071537 
L 136.937495 497.248953 
L 137.157048 375.25775 
L 137.376601 452.721842 
L 137.815707 522.832688 
L 138.03526 429.214246 
L 138.254814 426.603125 
L 138.474367 329.074863 
L 138.69392 504.300185 
L 138.913473 407.235541 
L 139.791686 480.810798 
L 140.011239 414.769244 
L 140.230792 440.297377 
L 140.450345 440.404402 
L 140.669898 391.566631 
L 140.889451 488.230562 
L 141.548111 392.529737 
L 141.767664 375.91583 
L 141.987217 405.504257 
L 142.20677 550.453819 
L 142.426323 496.750052 
L 142.645877 383.438043 
L 142.86543 455.832252 
L 143.084983 398.1241 
L 143.304536 394.899909 
L 143.524089 492.018158 
L 143.743642 441.566143 
L 143.963196 458.324644 
L 144.182749 432.497537 
L 144.402302 484.018226 
L 144.841408 378.162422 
L 145.060961 496.092761 
L 145.280514 454.385291 
L 145.719621 487.395418 
L 145.939174 452.236057 
L 146.158727 456.243371 
L 146.37828 441.82485 
L 146.597833 535.199907 
L 146.817387 396.48035 
L 147.03694 364.935039 
L 147.256493 471.845364 
L 147.695599 395.822052 
L 147.915152 406.335959 
L 148.134705 514.501813 
L 148.354259 479.214893 
L 148.573812 468.429311 
L 148.793365 497.968472 
L 149.012918 375.178198 
L 149.232471 477.879822 
L 149.452024 409.1873 
L 149.671578 487.029491 
L 149.891131 442.858248 
L 150.110684 366.734879 
L 150.330237 376.129909 
L 150.54979 444.535518 
L 150.769343 462.599884 
L 150.988896 464.057427 
L 151.428003 372.476075 
L 151.647556 422.319097 
L 151.867109 334.92053 
L 152.086662 337.705607 
L 152.306215 494.167337 
L 152.525769 373.273139 
L 152.964875 526.227856 
L 153.184428 495.199388 
L 153.403981 503.669385 
L 153.623534 394.309107 
L 153.843087 434.979485 
L 154.062641 356.840587 
L 154.282194 408.786775 
L 154.501747 507.23866 
L 154.7213 487.947448 
L 154.940853 516.473922 
L 155.37996 367.641789 
L 155.599513 512.627222 
L 155.819066 384.852355 
L 156.038619 449.384393 
L 156.258172 388.176201 
L 156.697278 558.75507 
L 157.136385 403.338792 
L 157.355938 442.15656 
L 157.575491 373.355948 
L 157.795044 529.855692 
L 158.014597 452.108962 
L 158.453704 398.340011 
L 158.673257 380.257583 
L 158.89281 490.482055 
L 159.112363 253.992508 
L 159.331916 513.193399 
L 159.771023 453.790035 
L 159.990576 456.930297 
L 160.210129 474.798301 
L 160.429682 400.730242 
L 160.649235 458.096651 
L 160.868788 386.629456 
L 161.088342 449.305524 
L 161.307895 447.892005 
L 161.527448 454.596926 
L 161.747001 390.882324 
L 161.966554 459.994402 
L 162.186107 461.094654 
L 162.40566 457.232554 
L 162.625214 461.88629 
L 162.844767 552.561279 
L 163.283873 339.130276 
L 163.503426 480.234055 
L 163.722979 393.550889 
L 163.942532 413.911611 
L 164.162086 375.477396 
L 164.381639 542.652614 
L 164.601192 426.53528 
L 164.820745 501.224647 
L 165.040298 469.632184 
L 165.259851 486.41698 
L 165.479405 484.449904 
L 165.698958 416.12983 
L 165.918511 433.110536 
L 166.138064 428.133033 
L 166.357617 377.887878 
L 166.57717 453.643406 
L 167.016277 409.215209 
L 167.23583 405.599784 
L 167.455383 483.676224 
L 167.674936 415.039902 
L 168.114042 446.232798 
L 168.333596 345.001102 
L 168.553149 515.803641 
L 168.772702 392.523299 
L 168.992255 444.398448 
L 169.211808 380.061935 
L 169.431361 507.146998 
L 169.650914 487.561327 
L 169.870468 387.849875 
L 170.090021 462.768305 
L 170.309574 455.098686 
L 170.529127 376.263759 
L 170.74868 456.007731 
L 170.968233 350.613737 
L 171.187787 414.934039 
L 171.40734 413.788408 
L 171.626893 385.371799 
L 171.846446 520.134162 
L 172.065999 476.923488 
L 172.285552 485.562233 
L 172.505105 452.116025 
L 172.724659 549.932677 
L 172.944212 411.270126 
L 173.163765 456.462808 
L 173.383318 451.538079 
L 173.822424 412.773458 
L 174.041978 503.976039 
L 174.261531 476.380313 
L 174.481084 475.59858 
L 174.700637 533.764606 
L 174.92019 453.627052 
L 175.139743 496.62748 
L 175.359296 491.120519 
L 175.57885 462.816032 
L 175.798403 366.910906 
L 176.017956 475.106728 
L 176.237509 461.322355 
L 176.457062 434.477085 
L 176.676615 293.248548 
L 176.896169 467.275273 
L 177.115722 531.65292 
L 177.554828 411.019928 
L 177.774381 573.024119 
L 178.213487 307.985397 
L 178.433041 328.88318 
L 178.652594 322.896437 
L 178.872147 490.576759 
L 179.0917 401.419761 
L 179.311253 388.593331 
L 179.75036 472.010225 
L 179.969913 509.457532 
L 180.189466 446.297175 
L 180.409019 341.15409 
L 180.628572 430.264219 
L 180.848125 439.79276 
L 181.067678 429.255041 
L 181.287232 348.064129 
L 181.506785 354.178963 
L 181.726338 450.629012 
L 181.945891 463.201752 
L 182.165444 404.682732 
L 182.604551 414.361448 
L 182.824104 502.393138 
L 183.043657 494.921381 
L 183.26321 452.422845 
L 183.482763 366.956909 
L 183.702316 368.960715 
L 183.921869 471.472962 
L 184.141423 440.071427 
L 184.360976 511.00093 
L 184.580529 439.837027 
L 185.239188 374.199927 
L 185.678295 406.089889 
L 185.897848 489.803781 
L 186.117401 403.362937 
L 186.336954 365.033514 
L 186.556507 499.445127 
L 186.77606 449.553335 
L 186.995614 451.136142 
L 187.215167 479.211615 
L 187.43472 439.68234 
L 187.654273 376.302853 
L 187.873826 467.31789 
L 188.093379 412.5615 
L 188.312932 403.731086 
L 188.532486 408.640056 
L 188.752039 423.491722 
L 188.971592 448.774185 
L 189.191145 489.380522 
L 189.410698 444.437973 
L 189.630251 353.737454 
L 189.849805 373.403793 
L 190.069358 487.201682 
L 190.288911 537.112607 
L 190.508464 425.171718 
L 190.728017 484.707835 
L 190.94757 509.11532 
L 191.386677 374.729009 
L 191.60623 403.334307 
L 192.045336 512.960689 
L 192.484442 349.983534 
L 192.923549 440.978364 
L 193.143102 450.064991 
L 193.362655 350.552981 
L 193.582208 496.578073 
L 193.801761 421.638335 
L 194.021314 442.333561 
L 194.240868 340.939751 
L 194.460421 469.06584 
L 194.679974 445.604161 
L 194.899527 459.083414 
L 195.11908 429.508283 
L 195.338633 489.974096 
L 195.558187 471.441809 
L 195.77774 320.224011 
L 195.997293 457.081142 
L 196.216846 474.403143 
L 196.436399 512.882184 
L 196.655952 455.571457 
L 196.875505 456.374049 
L 197.314612 265.136694 
L 197.534165 481.337499 
L 197.753718 490.750684 
L 197.973271 445.521929 
L 198.192824 440.547736 
L 198.412378 555.651422 
L 198.851484 339.068615 
L 199.29059 436.937587 
L 199.510143 381.881526 
L 199.729696 476.315042 
L 199.94925 432.71301 
L 200.168803 451.747474 
L 200.388356 518.452341 
L 200.607909 451.419354 
L 200.827462 474.794489 
L 201.047015 525.1824 
L 201.266569 330.164636 
L 201.705675 448.886743 
L 201.925228 452.533282 
L 202.144781 437.830162 
L 202.364334 475.732327 
L 202.583887 453.86859 
L 202.803441 409.049188 
L 203.022994 471.104548 
L 203.4621 331.101766 
L 203.681653 559.547706 
L 203.901206 454.799234 
L 204.340313 426.35162 
L 204.559866 552.351245 
L 204.779419 419.43836 
L 204.998972 435.185257 
L 205.218525 416.776245 
L 205.877185 510.021936 
L 206.096738 366.656721 
L 206.316291 479.229366 
L 206.535844 389.074015 
L 206.755397 499.884963 
L 206.974951 426.96981 
L 207.194504 482.98994 
L 207.63361 326.694544 
L 207.853163 418.01012 
L 208.072716 381.624466 
L 208.292269 448.932968 
L 208.511823 383.39939 
L 208.731376 489.205258 
L 208.950929 521.915423 
L 209.390035 414.038947 
L 209.609588 419.228101 
L 209.829142 449.475398 
L 210.048695 446.201852 
L 210.268248 400.318752 
L 210.707354 483.719598 
L 210.926907 386.734707 
L 211.14646 504.885992 
L 211.366014 456.072916 
L 211.585567 323.323679 
L 211.80512 390.482971 
L 212.244226 403.358164 
L 212.463779 360.982952 
L 212.683333 450.035245 
L 212.902886 475.939137 
L 213.341992 390.853584 
L 213.561545 415.640225 
L 213.781098 474.429625 
L 214.000651 325.284949 
L 214.220205 445.30967 
L 214.439758 392.651233 
L 214.659311 481.798945 
L 214.878864 429.401019 
L 215.098417 538.08209 
L 215.537523 380.434758 
L 215.757077 474.399993 
L 215.97663 463.586719 
L 216.196183 336.974708 
L 216.415736 464.762615 
L 216.635289 503.109276 
L 216.854842 505.23605 
L 217.074396 362.389122 
L 217.513502 519.823866 
L 217.733055 381.924396 
L 217.952608 463.534644 
L 218.172161 492.540879 
L 218.391714 427.81405 
L 218.611268 490.572023 
L 218.830821 478.31237 
L 219.050374 441.990568 
L 219.269927 447.390539 
L 219.48948 488.176944 
L 219.709033 428.913481 
L 219.928587 436.025901 
L 220.14814 499.354959 
L 220.367693 451.204059 
L 220.587246 255.132115 
L 220.806799 313.183018 
L 221.026352 447.938524 
L 221.245905 438.419793 
L 221.685012 332.323432 
L 221.904565 389.827854 
L 222.343671 542.691896 
L 222.563224 390.962104 
L 222.782778 323.192416 
L 223.002331 309.739799 
L 223.221884 456.067708 
L 223.441437 368.300925 
L 223.66099 390.568668 
L 223.880543 541.234123 
L 224.100096 379.601672 
L 224.539203 460.299655 
L 224.758756 503.945962 
L 224.978309 398.076636 
L 225.197862 352.816917 
L 225.417415 468.705215 
L 225.636969 462.988005 
L 225.856522 505.421461 
L 226.295628 464.920009 
L 226.515181 549.405597 
L 226.734734 436.47495 
L 226.954287 389.931483 
L 227.173841 389.831489 
L 227.393394 402.747298 
L 227.612947 371.666279 
L 227.8325 556.280691 
L 228.052053 364.415222 
L 228.271606 350.418878 
L 228.49116 440.899526 
L 228.710713 378.107579 
L 228.930266 433.598399 
L 229.369372 409.551259 
L 229.588925 482.811519 
L 229.808478 456.485805 
L 230.028032 352.058826 
L 230.247585 430.173502 
L 230.467138 425.365687 
L 230.686691 430.717599 
L 230.906244 303.030541 
L 231.125797 505.887479 
L 231.345351 383.961321 
L 231.564904 446.352127 
L 231.784457 468.408484 
L 232.00401 460.611384 
L 232.223563 487.918452 
L 232.443116 409.186392 
L 232.882223 478.429356 
L 233.101776 442.620133 
L 233.321329 504.952633 
L 233.760435 377.360034 
L 233.979988 357.287745 
L 234.199542 315.802621 
L 234.419095 352.336047 
L 234.858201 484.340318 
L 235.077754 397.358018 
L 235.297307 432.161627 
L 235.51686 388.178775 
L 235.736414 414.740728 
L 235.955967 406.411267 
L 236.17552 385.582622 
L 236.395073 502.603061 
L 236.614626 461.63695 
L 236.834179 481.133845 
L 237.053733 515.564776 
L 237.273286 473.373787 
L 237.492839 534.758504 
L 237.712392 391.571332 
L 237.931945 351.337576 
L 238.151498 561.287181 
L 238.371051 482.433238 
L 238.590605 496.915773 
L 238.810158 555.195508 
L 239.029711 409.595472 
L 239.249264 439.196709 
L 239.468817 533.707734 
L 239.68837 463.157056 
L 239.907924 557.691649 
L 240.786136 381.869389 
L 241.005689 309.240444 
L 241.225242 391.343913 
L 241.444796 314.692809 
L 241.664349 543.979934 
L 241.883902 387.850926 
L 242.103455 472.51145 
L 242.323008 454.921365 
L 242.542561 388.675805 
L 242.762114 362.743518 
L 242.981668 490.596059 
L 243.201221 520.931712 
L 243.420774 434.866619 
L 243.640327 469.70786 
L 243.85988 464.606434 
L 244.298987 397.092516 
L 244.51854 533.570509 
L 244.738093 491.900594 
L 244.957646 377.703306 
L 245.177199 439.984518 
L 245.396752 415.929547 
L 245.616305 499.067892 
L 245.835859 363.567445 
L 246.055412 474.573579 
L 246.494518 428.430463 
L 246.933624 379.893543 
L 247.153178 454.647315 
L 247.372731 448.331171 
L 247.592284 400.200558 
L 247.811837 491.448879 
L 248.03139 497.182397 
L 248.250943 441.087191 
L 248.470496 439.291043 
L 248.69005 277.331326 
L 249.129156 554.731023 
L 249.348709 480.23691 
L 249.568262 345.719772 
L 249.787815 429.760948 
L 250.226922 521.687325 
L 250.446475 445.085356 
L 250.666028 464.660216 
L 250.885581 500.893134 
L 251.105134 417.84856 
L 251.544241 543.449673 
L 252.2029 399.645577 
L 252.422453 395.663985 
L 252.642006 411.502133 
L 252.86156 363.802537 
L 253.081113 499.696766 
L 253.300666 369.555764 
L 253.739772 501.78784 
L 254.178878 447.95662 
L 254.398432 266.181309 
L 254.837538 500.407662 
L 255.057091 514.140633 
L 255.276644 462.519094 
L 255.496197 446.595059 
L 255.715751 390.213185 
L 255.935304 404.033548 
L 256.154857 404.627455 
L 256.37441 440.433024 
L 256.593963 281.248422 
L 257.033069 414.459225 
L 257.252623 350.273219 
L 257.472176 421.883146 
L 257.691729 340.553104 
L 257.911282 456.188418 
L 258.130835 370.759329 
L 258.350388 426.033385 
L 258.569942 383.228151 
L 259.009048 485.828996 
L 259.228601 365.757735 
L 259.448154 453.983855 
L 259.667707 456.891603 
L 259.88726 353.961276 
L 260.106814 371.863958 
L 260.326367 450.599447 
L 260.54592 443.091557 
L 260.985026 502.419974 
L 261.204579 467.475321 
L 261.424133 536.550783 
L 261.643686 534.551087 
L 261.863239 397.045151 
L 262.082792 526.438852 
L 262.302345 446.965419 
L 262.741451 521.879125 
L 262.961005 511.212453 
L 263.400111 369.946511 
L 263.619664 407.398596 
L 263.839217 466.877388 
L 264.05877 403.064479 
L 264.278324 439.825768 
L 264.497877 313.696581 
L 264.71743 396.366755 
L 264.936983 429.388307 
L 265.156536 388.77881 
L 265.376089 428.727508 
L 265.595642 335.320638 
L 265.815196 444.257221 
L 266.034749 445.484533 
L 266.254302 476.724237 
L 266.473855 465.880269 
L 266.693408 410.525749 
L 266.912961 402.817777 
L 267.132514 407.244512 
L 267.352068 476.106359 
L 267.571621 426.005011 
L 267.791174 440.168462 
L 268.010727 444.030805 
L 268.23028 487.65994 
L 268.449833 475.431154 
L 268.669387 470.97263 
L 268.88894 479.837903 
L 269.108493 415.56787 
L 269.328046 502.694484 
L 269.547599 325.321683 
L 269.767152 506.346761 
L 269.986705 422.933986 
L 270.206259 459.373944 
L 270.425812 412.203997 
L 270.645365 492.308411 
L 270.864918 397.726906 
L 271.084471 370.834147 
L 271.304024 462.094971 
L 271.523578 479.97949 
L 271.962684 409.343683 
L 272.182237 329.324277 
L 272.40179 349.08693 
L 272.621343 405.478243 
L 272.840896 215.954822 
L 273.06045 447.13886 
L 273.280003 408.258756 
L 273.719109 532.937818 
L 273.938662 411.353137 
L 274.158215 386.920946 
L 274.377769 433.11484 
L 274.597322 372.860999 
L 274.816875 391.724709 
L 275.036428 420.561585 
L 275.255981 349.146994 
L 275.475534 383.105478 
L 275.695087 561.622998 
L 275.914641 372.638058 
L 276.134194 534.894338 
L 276.353747 528.047 
L 276.5733 463.019369 
L 276.792853 464.513898 
L 277.012406 505.386489 
L 277.23196 438.21135 
L 277.451513 504.910159 
L 277.671066 361.943693 
L 277.890619 474.33806 
L 278.110172 509.766269 
L 278.329725 494.768119 
L 278.549278 333.240726 
L 278.768832 342.073573 
L 278.988385 380.908256 
L 279.207938 462.685595 
L 279.427491 396.526529 
L 279.647044 245.003932 
L 279.866597 411.034314 
L 280.086151 442.888021 
L 280.305704 424.131804 
L 280.525257 467.079708 
L 280.74481 392.495291 
L 280.964363 512.923855 
L 281.183916 491.899728 
L 281.403469 377.054086 
L 281.623023 487.649072 
L 281.842576 436.365503 
L 282.062129 520.02872 
L 282.281682 484.342805 
L 282.501235 427.202315 
L 282.720788 488.976072 
L 282.940342 502.488101 
L 283.159895 463.599773 
L 283.379448 501.363302 
L 283.599001 420.418875 
L 283.818554 403.543571 
L 284.038107 266.805354 
L 284.25766 419.464141 
L 284.477214 475.067437 
L 284.696767 470.018248 
L 284.91632 480.331479 
L 285.135873 404.554304 
L 285.355426 487.266082 
L 285.574979 502.680695 
L 285.794533 483.320892 
L 286.014086 385.387829 
L 286.233639 467.963526 
L 286.453192 492.119181 
L 286.672745 458.785124 
L 286.892298 521.007844 
L 287.111851 416.37387 
L 287.331405 446.655747 
L 287.550958 391.336079 
L 287.770511 539.520547 
L 287.990064 460.584912 
L 288.42917 503.153487 
L 288.648724 574.615297 
L 289.08783 407.445702 
L 289.307383 469.980058 
L 289.526936 426.379208 
L 289.746489 487.031292 
L 289.966042 413.067338 
L 290.185596 417.790932 
L 290.405149 431.661174 
L 290.624702 472.906104 
L 290.844255 349.37751 
L 291.063808 512.887959 
L 291.283361 456.960081 
L 291.502915 429.402668 
L 291.722468 454.394853 
L 291.942021 547.777315 
L 292.161574 423.484225 
L 292.381127 369.404748 
L 292.60068 416.450512 
L 292.820233 520.933838 
L 293.25934 388.588597 
L 293.478893 530.940777 
L 293.917999 390.996062 
L 294.357105 443.726022 
L 294.576659 511.416382 
L 294.796212 459.413595 
L 295.015765 481.869614 
L 295.235318 450.975588 
L 295.454871 285.835915 
L 296.113531 497.343748 
L 296.333084 408.817947 
L 296.552637 404.358124 
L 296.991743 513.973325 
L 297.211296 346.811915 
L 297.43085 447.597809 
L 297.650403 457.880495 
L 297.869956 420.901869 
L 298.089509 476.907535 
L 298.309062 474.619842 
L 298.528615 300.209308 
L 298.748169 389.53576 
L 298.967722 414.917201 
L 299.187275 394.934142 
L 299.406828 414.370718 
L 299.626381 418.160325 
L 299.845934 483.30614 
L 300.065487 504.761414 
L 300.285041 414.167566 
L 300.504594 476.091602 
L 300.9437 420.096478 
L 301.382806 510.324284 
L 301.60236 513.67768 
L 301.821913 411.99758 
L 302.261019 505.134691 
L 302.700125 367.297552 
L 302.919678 488.754535 
L 303.139232 301.460983 
L 303.358785 427.817483 
L 303.578338 478.464178 
L 303.797891 381.442398 
L 304.017444 481.402396 
L 304.236997 506.273696 
L 304.895657 278.005119 
L 305.11521 454.384931 
L 305.334763 456.141842 
L 305.554316 364.658436 
L 305.993423 498.132023 
L 306.212976 448.43884 
L 306.432529 506.709665 
L 306.652082 365.072346 
L 306.871635 448.113132 
L 307.310742 355.979142 
L 307.530295 363.551491 
L 307.749848 421.382157 
L 307.969401 420.614822 
L 308.188954 407.707895 
L 308.408507 433.528341 
L 308.62806 400.727219 
L 308.847614 480.953819 
L 309.067167 352.4117 
L 309.28672 465.087588 
L 309.506273 515.319082 
L 309.725826 460.067994 
L 309.945379 439.715148 
L 310.164933 403.661684 
L 310.384486 515.049291 
L 310.604039 481.596402 
L 310.823592 473.857613 
L 311.043145 473.387235 
L 311.262698 439.988213 
L 311.482251 460.719602 
L 311.701805 372.499716 
L 312.140911 522.672974 
L 312.360464 348.142184 
L 312.580017 468.210327 
L 312.79957 410.32225 
L 313.019124 289.892171 
L 313.238677 329.499064 
L 313.45823 452.690872 
L 313.677783 375.262664 
L 313.897336 491.814351 
L 314.116889 475.340977 
L 314.555996 401.944467 
L 314.775549 492.139909 
L 314.995102 418.292066 
L 315.214655 424.769992 
L 315.434208 350.825396 
L 315.653761 429.598868 
L 315.873315 387.682275 
L 316.092868 425.381048 
L 316.312421 501.433725 
L 316.531974 462.227092 
L 316.751527 498.451233 
L 316.97108 450.597935 
L 317.190633 552.341422 
L 317.410187 498.108249 
L 317.62974 400.857776 
L 317.849293 444.505556 
L 318.068846 420.353873 
L 318.288399 422.798982 
L 318.507952 444.33983 
L 318.727506 493.239591 
L 318.947059 440.303009 
L 319.166612 304.489338 
L 319.386165 474.927006 
L 319.605718 381.444863 
L 319.825271 483.933922 
L 320.044824 409.806027 
L 320.264378 463.52334 
L 320.483931 442.477704 
L 320.703484 379.466676 
L 320.923037 474.031824 
L 321.362143 402.923889 
L 321.581696 476.513951 
L 321.80125 482.54599 
L 322.020803 481.736191 
L 322.240356 414.857666 
L 322.459909 433.694348 
L 322.679462 338.808816 
L 322.899015 433.259238 
L 323.118569 456.782671 
L 323.338122 458.445439 
L 323.557675 461.591432 
L 323.777228 395.59306 
L 323.996781 401.847628 
L 324.216334 457.919262 
L 324.435887 468.17855 
L 324.655441 445.592082 
L 324.874994 474.687428 
L 325.094547 327.370349 
L 325.3141 458.135104 
L 325.533653 490.395389 
L 325.753206 407.207756 
L 325.97276 408.690958 
L 326.192313 376.284688 
L 326.411866 389.660062 
L 326.850972 456.89905 
L 327.070525 401.77753 
L 327.290078 532.9117 
L 327.509632 453.069703 
L 327.948738 390.499484 
L 328.168291 496.83606 
L 328.387844 451.942801 
L 328.607397 534.77323 
L 328.826951 344.668467 
L 329.266057 524.34945 
L 329.48561 424.847031 
L 329.705163 437.666436 
L 329.924716 346.192814 
L 330.144269 464.08166 
L 330.363823 309.71498 
L 330.583376 352.595391 
L 330.802929 478.330781 
L 331.022482 325.993192 
L 331.242035 452.370551 
L 331.461588 324.197222 
L 331.681142 425.075677 
L 332.120248 495.910904 
L 332.339801 402.156513 
L 332.559354 483.043192 
L 332.778907 407.350905 
L 333.218014 467.164326 
L 333.65712 424.888029 
L 333.876673 360.945056 
L 334.096226 393.580102 
L 334.315779 376.79595 
L 334.754886 470.276072 
L 334.974439 454.654576 
L 335.193992 415.413123 
L 335.633098 384.450539 
L 335.852651 375.337882 
L 336.072205 507.882538 
L 336.291758 365.435865 
L 336.511311 483.849804 
L 336.730864 354.538159 
L 336.950417 509.962477 
L 337.16997 536.304652 
L 337.389524 398.263611 
L 337.609077 360.946776 
L 337.82863 454.090105 
L 338.048183 470.095576 
L 338.267736 447.410298 
L 338.487289 131.956182 
L 338.706842 405.691991 
L 338.926396 445.450124 
L 339.145949 369.986951 
L 339.365502 455.195318 
L 339.585055 432.517592 
L 339.804608 475.587891 
L 340.024161 471.145005 
L 340.243715 471.823268 
L 340.463268 361.546263 
L 340.682821 462.412736 
L 340.902374 457.629247 
L 341.121927 511.763878 
L 341.34148 396.891212 
L 341.561033 514.594821 
L 341.780587 471.227439 
L 342.00014 513.896846 
L 342.219693 338.872395 
L 342.439246 416.690988 
L 342.658799 448.444756 
L 342.878352 448.788212 
L 343.097906 531.195636 
L 343.317459 539.241724 
L 343.537012 491.467907 
L 343.756565 484.19846 
L 343.976118 427.205871 
L 344.195671 403.248367 
L 344.415224 509.484563 
L 344.854331 391.311525 
L 345.073884 547.049582 
L 345.293437 442.187471 
L 345.51299 457.624959 
L 345.732543 524.141442 
L 345.952096 421.112628 
L 346.17165 459.672123 
L 346.391203 455.633576 
L 346.830309 456.969038 
L 347.049862 367.795159 
L 347.269415 378.246771 
L 347.488969 311.756181 
L 347.708522 537.284429 
L 348.147628 322.524148 
L 348.367181 539.699808 
L 348.586734 404.075438 
L 348.806287 358.577719 
L 349.025841 453.078062 
L 349.464947 393.887352 
L 349.6845 468.900946 
L 349.904053 423.235737 
L 350.123606 522.87567 
L 350.34316 417.025741 
L 350.562713 434.465173 
L 350.782266 419.017914 
L 351.001819 445.621344 
L 351.221372 415.254987 
L 351.440925 469.992964 
L 351.660478 473.859547 
L 351.880032 402.662146 
L 352.099585 456.60652 
L 352.319138 443.172743 
L 352.538691 507.045416 
L 352.758244 419.004781 
L 352.977797 507.856615 
L 353.197351 323.35291 
L 353.416904 423.646362 
L 353.636457 450.140629 
L 353.85601 515.212731 
L 354.075563 420.949789 
L 354.295116 507.966476 
L 354.514669 472.580889 
L 354.734223 482.115307 
L 354.953776 471.5377 
L 355.173329 422.172015 
L 355.392882 470.016025 
L 355.612435 428.34332 
L 355.831988 488.071393 
L 356.271095 382.81328 
L 356.490648 483.411704 
L 356.710201 334.446498 
L 356.929754 389.032952 
L 357.149307 487.319879 
L 357.36886 459.131306 
L 357.588414 366.291868 
L 357.807967 448.266496 
L 358.02752 453.834776 
L 358.247073 537.204643 
L 358.466626 452.900517 
L 358.686179 531.821458 
L 358.905733 380.57161 
L 359.125286 431.721224 
L 359.344839 368.121255 
L 359.564392 338.488709 
L 359.783945 505.549436 
L 360.003498 392.999954 
L 360.223051 504.434846 
L 360.442605 540.629973 
L 360.662158 432.311828 
L 360.881711 483.099789 
L 361.101264 467.835939 
L 361.320817 487.834063 
L 361.54037 448.972133 
L 361.759924 360.415383 
L 361.979477 540.829982 
L 362.19903 353.869161 
L 362.418583 373.423187 
L 362.638136 424.747572 
L 362.857689 397.519297 
L 363.077242 463.803923 
L 363.296796 488.099355 
L 363.516349 295.330765 
L 363.735902 451.677359 
L 363.955455 385.303395 
L 364.175008 480.087817 
L 364.394561 283.973474 
L 364.614115 286.088644 
L 364.833668 419.728892 
L 365.053221 428.227781 
L 365.272774 475.304387 
L 365.492327 441.422083 
L 365.71188 487.822418 
L 365.931433 379.723174 
L 366.150987 378.589711 
L 366.37054 476.535974 
L 366.590093 437.129776 
L 366.809646 439.123515 
L 367.029199 458.587356 
L 367.248752 335.871089 
L 367.687859 506.137357 
L 367.907412 424.601924 
L 368.126965 532.553907 
L 368.346518 372.654328 
L 368.566071 439.89393 
L 368.785624 418.399357 
L 369.005178 364.624174 
L 369.224731 419.463504 
L 369.444284 422.408589 
L 369.88339 513.938221 
L 370.102943 471.476842 
L 370.322497 455.91407 
L 370.54205 421.699658 
L 370.761603 418.327876 
L 370.981156 406.193809 
L 371.420262 491.904842 
L 371.639815 353.6774 
L 371.859369 414.251545 
L 372.078922 407.99581 
L 372.298475 546.83124 
L 372.518028 453.413152 
L 372.737581 443.888335 
L 372.957134 511.75333 
L 373.176687 325.218751 
L 373.396241 411.010354 
L 373.615794 431.664569 
L 373.835347 479.307765 
L 374.0549 499.268601 
L 374.274453 460.674646 
L 374.71356 488.730506 
L 374.933113 431.865477 
L 375.152666 434.44199 
L 375.372219 555.551145 
L 375.591772 435.734505 
L 375.811325 427.454079 
L 376.030878 471.907321 
L 376.250432 574.863462 
L 376.469985 354.372305 
L 376.909091 500.87931 
L 377.128644 336.734402 
L 377.348197 467.130357 
L 377.787304 519.83795 
L 378.006857 436.398835 
L 378.22641 457.671432 
L 378.445963 427.445831 
L 378.665516 506.45861 
L 378.885069 501.509495 
L 379.104623 325.354795 
L 379.324176 470.649641 
L 379.543729 351.722314 
L 379.763282 460.304971 
L 379.982835 419.282131 
L 380.202388 446.526732 
L 380.421942 443.232251 
L 380.641495 376.441689 
L 380.861048 460.054884 
L 381.080601 452.620747 
L 381.300154 479.218723 
L 381.519707 468.172428 
L 381.73926 447.094233 
L 381.958814 486.400035 
L 382.178367 477.429309 
L 382.39792 478.168224 
L 382.617473 421.783846 
L 382.837026 534.144892 
L 383.056579 514.935382 
L 383.276133 441.390563 
L 383.495686 457.32965 
L 383.715239 532.052981 
L 383.934792 440.704764 
L 384.154345 548.349554 
L 384.373898 479.256116 
L 384.593451 466.446686 
L 384.813005 433.426368 
L 385.032558 538.381976 
L 385.252111 444.829954 
L 385.471664 485.452869 
L 385.691217 471.032586 
L 385.91077 429.205203 
L 386.130324 409.984919 
L 386.349877 451.188733 
L 386.56943 468.763353 
L 386.788983 394.701983 
L 387.008536 450.475155 
L 387.228089 347.002108 
L 387.447642 483.801836 
L 387.886749 512.816915 
L 388.106302 401.432328 
L 388.325855 517.395292 
L 388.545408 435.783438 
L 388.764961 415.288906 
L 388.984515 246.373136 
L 389.204068 425.385519 
L 389.423621 468.368812 
L 389.643174 427.022733 
L 389.862727 424.527788 
L 390.08228 379.806284 
L 390.301833 423.219309 
L 390.521387 407.886894 
L 390.74094 369.452511 
L 390.960493 574.714315 
L 391.180046 476.094491 
L 391.399599 474.548474 
L 391.619152 217.991953 
L 392.058259 495.067074 
L 392.277812 490.652633 
L 392.497365 418.847333 
L 392.716918 432.478945 
L 392.936471 477.734843 
L 393.156024 432.864468 
L 393.375578 452.647983 
L 393.595131 529.613055 
L 393.814684 442.320829 
L 394.034237 460.205346 
L 394.25379 551.716447 
L 394.473343 534.875018 
L 394.692897 441.959032 
L 394.91245 433.400819 
L 395.132003 521.874701 
L 395.351556 473.289856 
L 395.571109 512.629352 
L 395.790662 394.300526 
L 396.010215 406.939665 
L 396.229769 476.42602 
L 396.449322 408.125638 
L 396.668875 442.970526 
L 396.888428 429.591945 
L 397.107981 389.523348 
L 397.327534 466.100414 
L 397.547087 422.575331 
L 397.766641 324.131809 
L 397.986194 460.849645 
L 398.205747 462.369362 
L 398.4253 459.079613 
L 398.644853 488.696728 
L 398.864406 383.796983 
L 399.08396 461.32486 
L 399.523066 403.633523 
L 399.742619 417.29189 
L 399.962172 407.898067 
L 400.181725 412.24819 
L 400.401278 474.451593 
L 400.620832 454.739915 
L 400.840385 478.601765 
L 401.059938 382.119947 
L 401.279491 376.322718 
L 401.718597 557.929185 
L 401.938151 411.326408 
L 402.157704 402.192095 
L 402.377257 446.701887 
L 402.816363 410.039284 
L 403.035916 426.371632 
L 403.255469 535.941499 
L 403.475023 469.961891 
L 403.694576 365.30696 
L 403.914129 373.37975 
L 404.133682 517.366263 
L 404.353235 522.156198 
L 404.572788 390.655365 
L 404.792342 380.921992 
L 405.011895 390.914436 
L 405.231448 412.303008 
L 405.451001 420.335744 
L 405.670554 418.114059 
L 405.890107 398.098056 
L 406.10966 424.265945 
L 406.329214 432.753682 
L 406.548767 458.861154 
L 406.76832 470.128323 
L 406.987873 390.655082 
L 407.426979 539.454769 
L 407.646533 486.554314 
L 408.085639 546.334263 
L 408.305192 468.009518 
L 408.524745 333.144548 
L 408.744298 487.378227 
L 408.963851 413.58028 
L 409.183405 419.883276 
L 409.402958 356.039758 
L 409.622511 468.614904 
L 409.842064 433.117929 
L 410.061617 499.995115 
L 410.28117 398.507106 
L 410.500724 433.711579 
L 410.720277 535.978913 
L 410.93983 474.719966 
L 411.159383 494.086367 
L 411.378936 394.452289 
L 411.598489 455.238623 
L 411.818042 414.544363 
L 412.037596 496.590199 
L 412.257149 321.381147 
L 412.476702 431.528409 
L 412.696255 474.567645 
L 412.915808 484.001376 
L 413.135361 516.015753 
L 413.354915 424.047141 
L 413.574468 436.786777 
L 413.794021 387.649072 
L 414.013574 447.940713 
L 414.45268 393.151949 
L 414.672233 476.889034 
L 414.891787 435.337356 
L 415.11134 372.018817 
L 415.330893 406.196396 
L 415.550446 463.221846 
L 415.769999 446.496925 
L 415.989552 377.014435 
L 416.209106 509.909338 
L 416.428659 290.303589 
L 416.648212 339.885159 
L 416.867765 521.012036 
L 417.087318 478.166676 
L 417.306871 465.438576 
L 417.526424 425.8658 
L 417.745978 535.730561 
L 417.965531 412.28891 
L 418.185084 441.309341 
L 418.62419 401.012332 
L 418.843743 233.860232 
L 419.063297 452.947587 
L 419.28285 356.383082 
L 419.502403 535.509769 
L 419.941509 339.144563 
L 420.161062 396.096706 
L 420.380615 511.596112 
L 420.600169 305.891325 
L 420.819722 507.005321 
L 421.258828 305.959466 
L 421.697934 477.558969 
L 422.137041 355.435002 
L 422.356594 415.775084 
L 422.576147 436.890458 
L 422.7957 435.210575 
L 423.234806 396.795855 
L 423.45436 497.627952 
L 423.893466 319.355861 
L 424.113019 494.030803 
L 424.332572 384.687566 
L 424.552125 474.821988 
L 424.771678 469.494521 
L 424.991232 437.967303 
L 425.210785 501.912065 
L 425.430338 283.009026 
L 425.649891 439.725386 
L 425.869444 324.932357 
L 426.088997 458.050657 
L 426.308551 452.84027 
L 426.528104 232.230554 
L 426.747657 455.871262 
L 426.96721 450.722272 
L 427.186763 406.597967 
L 427.406316 539.713685 
L 427.625869 395.979665 
L 427.845423 460.534359 
L 428.064976 425.826975 
L 428.284529 292.802624 
L 428.723635 517.772801 
L 428.943188 300.59979 
L 429.162742 502.357993 
L 429.382295 388.276319 
L 429.601848 444.177618 
L 430.040954 386.033177 
L 430.260507 330.634519 
L 430.48006 441.952855 
L 430.699614 287.488679 
L 431.13872 372.972952 
L 431.358273 364.130561 
L 431.797379 461.139619 
L 432.016933 379.269788 
L 432.236486 368.065076 
L 432.456039 386.755108 
L 432.675592 295.328372 
L 432.895145 392.121358 
L 433.114698 416.165981 
L 433.334251 481.174804 
L 433.553805 282.371146 
L 433.773358 476.63409 
L 433.992911 406.659341 
L 434.432017 443.139939 
L 434.65157 350.046201 
L 434.871124 475.936388 
L 435.090677 455.618374 
L 435.31023 371.591978 
L 435.529783 375.16693 
L 435.749336 391.929978 
L 435.968889 286.393854 
L 436.188442 410.000596 
L 436.627549 493.656056 
L 436.847102 343.893787 
L 437.066655 482.36474 
L 437.286208 422.218029 
L 437.505761 458.473505 
L 437.725315 524.71382 
L 437.944868 313.815727 
L 438.164421 470.713886 
L 438.383974 530.288631 
L 438.603527 439.466534 
L 438.82308 292.329575 
L 439.042633 241.101833 
L 439.262187 425.016173 
L 439.48174 506.837247 
L 439.701293 403.91815 
L 439.920846 494.242658 
L 440.140399 419.357613 
L 440.359952 431.81145 
L 440.579506 501.433957 
L 440.799059 342.758146 
L 441.018612 380.996372 
L 441.238165 518.569912 
L 441.457718 490.931532 
L 441.896824 471.624783 
L 442.116378 371.267303 
L 442.335931 392.486376 
L 442.555484 332.780734 
L 442.775037 488.288922 
L 442.99459 491.903989 
L 443.214143 460.379141 
L 443.433697 511.274303 
L 443.65325 394.667105 
L 443.872803 401.062971 
L 444.092356 364.34012 
L 444.531462 502.424317 
L 444.751015 302.278151 
L 444.970569 423.175601 
L 445.190122 382.111447 
L 445.409675 535.942452 
L 445.629228 370.31286 
L 445.848781 377.833936 
L 446.068334 493.291574 
L 446.287888 449.17714 
L 446.507441 335.548449 
L 446.726994 418.164135 
L 446.946547 451.858269 
L 447.1661 424.79274 
L 447.605206 523.927613 
L 447.82476 350.8352 
L 448.044313 517.952583 
L 448.483419 411.335963 
L 448.702972 391.559176 
L 449.142079 537.003811 
L 449.581185 267.575772 
L 450.020291 461.358651 
L 450.459397 488.836173 
L 450.678951 539.859177 
L 450.898504 516.429049 
L 451.118057 421.529097 
L 451.33761 460.956912 
L 451.557163 453.920065 
L 451.776716 581.38839 
L 452.654929 333.290162 
L 452.874482 473.124311 
L 453.094035 343.134176 
L 453.313588 515.13546 
L 453.752695 465.685184 
L 453.972248 360.17006 
L 454.191801 434.131604 
L 454.411354 452.857197 
L 454.85046 522.297291 
L 455.070014 498.995561 
L 455.289567 333.307564 
L 455.50912 476.282231 
L 455.728673 381.028133 
L 455.948226 497.979105 
L 456.167779 376.031065 
L 456.387333 545.795462 
L 456.606886 464.968493 
L 456.826439 444.384315 
L 457.045992 522.237025 
L 457.485098 424.4213 
L 457.924205 406.586486 
L 458.143758 318.705718 
L 458.363311 445.020191 
L 458.582864 378.869722 
L 458.802417 508.70594 
L 459.02197 443.71505 
L 459.241524 510.758049 
L 459.461077 392.238014 
L 459.68063 469.858176 
L 459.900183 456.944501 
L 460.119736 399.293571 
L 460.339289 512.526423 
L 460.558842 434.480419 
L 460.778396 446.868568 
L 461.217502 507.387201 
L 461.437055 404.477578 
L 461.656608 393.557994 
L 461.876161 421.121056 
L 462.095715 400.319176 
L 462.315268 488.98096 
L 462.534821 529.094118 
L 462.754374 358.190432 
L 462.973927 469.686338 
L 463.19348 484.256684 
L 463.413033 416.294365 
L 463.632587 467.67198 
L 463.85214 399.253254 
L 464.071693 508.21715 
L 464.291246 454.535373 
L 464.510799 308.157455 
L 464.949906 452.408027 
L 465.169459 448.591129 
L 465.389012 428.592035 
L 465.608565 501.883732 
L 465.828118 441.446131 
L 466.047671 495.443973 
L 466.486778 285.026997 
L 466.706331 396.158622 
L 466.925884 329.353367 
L 467.145437 515.503737 
L 467.584543 343.851695 
L 467.804097 467.056163 
L 468.02365 431.040473 
L 468.243203 475.036118 
L 468.682309 490.347038 
L 468.901862 511.013517 
L 469.121415 375.895888 
L 469.340969 530.633485 
L 469.560522 393.239125 
L 469.999628 508.064258 
L 470.219181 494.874235 
L 470.438734 421.295366 
L 470.658288 459.02386 
L 471.097394 354.455987 
L 471.316947 357.520332 
L 471.756053 452.383319 
L 471.975606 478.611691 
L 472.19516 466.012635 
L 472.414713 472.892185 
L 472.634266 464.334182 
L 472.853819 519.962433 
L 473.073372 483.215629 
L 473.292925 348.527632 
L 473.512479 376.275037 
L 473.732032 436.858658 
L 473.951585 430.640809 
L 474.171138 488.844725 
L 474.390691 494.516598 
L 474.610244 527.797947 
L 474.829797 536.312689 
L 475.049351 265.642031 
L 475.268904 528.46647 
L 475.488457 379.690803 
L 475.70801 507.035211 
L 475.927563 465.033351 
L 476.147116 300.374408 
L 476.366669 393.272805 
L 476.586223 438.480322 
L 476.805776 445.663214 
L 477.244882 400.705803 
L 477.464435 438.012679 
L 477.683988 401.295084 
L 477.903542 456.854277 
L 478.123095 429.545539 
L 478.342648 305.813911 
L 478.562201 434.592294 
L 478.781754 439.629896 
L 479.001307 348.699371 
L 479.22086 426.659261 
L 479.440414 357.767054 
L 479.659967 403.0621 
L 479.87952 519.48569 
L 480.099073 425.421564 
L 480.318626 503.689345 
L 480.538179 495.198466 
L 480.757733 365.210887 
L 481.196839 498.093773 
L 481.416392 444.469074 
L 481.635945 439.142696 
L 481.855498 366.721754 
L 482.075051 471.248632 
L 482.294605 367.287565 
L 482.733711 481.865215 
L 482.953264 450.828529 
L 483.172817 448.670868 
L 483.39237 447.757996 
L 483.611924 352.559557 
L 483.831477 402.968631 
L 484.05103 489.624221 
L 484.270583 525.712425 
L 484.490136 505.487856 
L 484.709689 364.842563 
L 484.929242 363.39361 
L 485.148796 520.516388 
L 485.587902 436.460891 
L 485.807455 380.066222 
L 486.027008 514.516674 
L 486.246561 462.347576 
L 486.466115 473.57376 
L 486.685668 535.699575 
L 486.905221 422.183487 
L 487.124774 510.614457 
L 487.344327 410.258962 
L 487.56388 442.097649 
L 487.783433 513.687076 
L 488.002987 443.49697 
L 488.22254 417.88112 
L 488.442093 524.241073 
L 488.661646 388.20754 
L 488.881199 392.554441 
L 489.100752 526.155301 
L 489.320306 489.974945 
L 489.539859 409.694883 
L 489.759412 391.691184 
L 489.978965 456.872113 
L 490.198518 349.796175 
L 490.418071 304.206113 
L 490.637624 462.819636 
L 490.857178 509.481548 
L 491.076731 452.541006 
L 491.296284 297.085672 
L 491.515837 536.434593 
L 491.73539 406.559373 
L 491.954943 418.830374 
L 492.174497 438.438073 
L 492.39405 362.471349 
L 492.833156 373.174636 
L 493.052709 397.156864 
L 493.272262 471.326111 
L 493.711369 405.32802 
L 493.930922 479.896437 
L 494.150475 476.626178 
L 494.370028 526.364071 
L 494.589581 521.518863 
L 494.809134 424.826609 
L 495.248241 541.857549 
L 495.467794 460.421956 
L 495.687347 456.04395 
L 495.9069 361.709922 
L 496.126453 411.237134 
L 496.346006 366.068704 
L 496.56556 263.03604 
L 496.785113 478.920396 
L 497.004666 497.785135 
L 497.224219 382.229294 
L 497.443772 472.760595 
L 497.663325 366.327521 
L 497.882879 502.1462 
L 498.102432 407.896944 
L 498.321985 399.468527 
L 498.541538 461.258677 
L 498.761091 361.446841 
L 498.980644 457.380251 
L 499.200197 402.970959 
L 499.419751 300.927613 
L 499.639304 455.190572 
L 499.858857 434.991817 
L 500.07841 454.245472 
L 500.297963 505.270187 
L 500.517516 410.31173 
L 500.73707 401.52272 
L 500.956623 491.94735 
L 501.176176 460.253757 
L 501.395729 388.661553 
L 501.615282 356.32378 
L 501.834835 470.02672 
L 502.054388 456.402124 
L 502.273942 411.28147 
L 502.493495 420.79292 
L 502.713048 455.774103 
L 502.932601 402.632771 
L 503.152154 438.508711 
L 503.371707 425.495609 
L 503.810814 453.36219 
L 504.030367 432.104588 
L 504.24992 502.805333 
L 504.469473 491.663935 
L 504.908579 434.817951 
L 505.128133 475.529573 
L 505.347686 376.701718 
L 505.567239 537.575883 
L 505.786792 489.943439 
L 506.006345 322.467429 
L 506.225898 450.321003 
L 506.445451 466.40441 
L 506.665005 373.77224 
L 506.884558 201.428909 
L 507.323664 486.901827 
L 507.543217 373.40003 
L 508.201877 524.822844 
L 508.42143 515.063008 
L 508.640983 446.413651 
L 509.080089 485.853223 
L 509.299642 556.3214 
L 509.519196 549.384034 
L 509.738749 363.519532 
L 509.958302 369.446779 
L 510.177855 465.55994 
L 510.397408 457.666531 
L 510.616961 461.043792 
L 510.836515 492.04899 
L 511.056068 391.338292 
L 511.275621 538.622841 
L 511.495174 332.455359 
L 511.714727 521.831742 
L 511.93428 426.172333 
L 512.153833 264.022405 
L 512.373387 428.439641 
L 512.59294 423.444967 
L 512.812493 515.080246 
L 513.251599 415.562965 
L 513.471152 453.842091 
L 513.910259 475.478398 
L 514.129812 422.127534 
L 514.349365 485.046131 
L 514.568918 446.050855 
L 514.788471 347.279814 
L 515.008024 441.302535 
L 515.227578 462.816001 
L 515.447131 468.464289 
L 515.666684 393.631318 
L 515.886237 370.119063 
L 516.10579 513.327578 
L 516.325343 328.565054 
L 516.544897 439.720828 
L 516.76445 445.861229 
L 516.984003 467.891229 
L 517.203556 419.625771 
L 517.423109 429.77995 
L 517.642662 445.086058 
L 517.862215 353.903634 
L 518.081769 482.879742 
L 518.301322 423.708541 
L 518.520875 504.613213 
L 518.740428 506.22459 
L 519.179534 447.062749 
L 519.399088 442.662944 
L 519.618641 473.92805 
L 519.838194 437.851146 
L 520.057747 453.518883 
L 520.496853 555.297957 
L 520.716406 307.95588 
L 520.93596 458.68565 
L 521.155513 443.411847 
L 521.375066 475.131394 
L 521.594619 408.414644 
L 521.814172 384.039989 
L 522.033725 373.876821 
L 522.253279 441.347532 
L 522.472832 393.705204 
L 522.692385 477.314814 
L 522.911938 376.887342 
L 523.131491 360.731423 
L 523.351044 224.640691 
L 523.570597 374.266204 
L 523.790151 422.729298 
L 524.009704 502.080922 
L 524.229257 451.161773 
L 524.44881 482.589847 
L 524.668363 474.328733 
L 524.887916 363.669068 
L 525.10747 461.753862 
L 525.327023 332.398201 
L 525.546576 441.823686 
L 525.766129 397.191697 
L 525.985682 380.183226 
L 526.205235 521.831603 
L 526.424788 495.730308 
L 526.863895 371.950389 
L 527.083448 509.360522 
L 527.522554 418.605712 
L 527.742107 506.624945 
L 527.96166 408.287298 
L 528.181214 497.211487 
L 528.400767 316.863421 
L 528.62032 492.255377 
L 528.839873 408.282662 
L 529.059426 484.881313 
L 529.278979 453.493175 
L 529.498533 450.765339 
L 529.718086 531.502467 
L 529.937639 487.864417 
L 530.157192 471.288891 
L 530.376745 393.5347 
L 530.596298 468.106541 
L 530.815851 500.880319 
L 531.035405 464.828035 
L 531.254958 471.108972 
L 531.694064 437.485392 
L 531.913617 445.982188 
L 532.13317 438.957333 
L 532.352724 427.614782 
L 532.572277 484.476767 
L 532.79183 411.96699 
L 533.230936 501.308783 
L 533.450489 492.834862 
L 533.670042 388.885265 
L 533.889596 404.021064 
L 534.109149 448.666255 
L 534.328702 549.819291 
L 534.548255 429.591659 
L 534.767808 461.002208 
L 534.987361 413.958539 
L 535.206915 416.776368 
L 535.426468 452.906052 
L 535.646021 426.93827 
L 535.865574 474.407488 
L 536.085127 457.950567 
L 536.30468 421.873324 
L 536.524233 516.352299 
L 536.96334 445.836263 
L 537.182893 447.723228 
L 537.621999 414.724217 
L 537.841552 426.898888 
L 538.061106 466.013383 
L 538.280659 370.355702 
L 538.500212 475.276033 
L 538.939318 422.096766 
L 539.158871 461.812272 
L 539.378424 370.375692 
L 539.597978 481.204306 
L 539.817531 441.678438 
L 540.037084 464.815044 
L 540.256637 513.817294 
L 540.47619 464.935874 
L 540.695743 369.079146 
L 541.13485 487.898863 
L 541.354403 468.600865 
L 541.573956 358.351815 
L 541.793509 481.428684 
L 542.013062 412.784291 
L 542.232615 302.004437 
L 542.671722 475.0373 
L 542.891275 458.479997 
L 543.110828 416.363805 
L 543.330381 397.248683 
L 543.769488 487.676899 
L 544.208594 364.175598 
L 544.428147 454.93157 
L 544.6477 470.006903 
L 544.867253 446.537668 
L 545.30636 331.301156 
L 545.525913 428.523628 
L 545.745466 468.924913 
L 545.745466 468.924913 
" style="fill:none;stroke:#96c69a;stroke-linecap:round;stroke-width:3;"/>
   </g>
   <g id="line2d_2"/>
   <g id="patch_3">
    <path d="M 84.914375 603.86 
L 84.914375 109.484571 
" style="fill:none;stroke:#262626;stroke-linecap:square;stroke-linejoin:miter;stroke-width:2.5;"/>
   </g>
   <g id="patch_4">
    <path d="M 84.914375 603.86 
L 567.689804 603.86 
" style="fill:none;stroke:#262626;stroke-linecap:square;stroke-linejoin:miter;stroke-width:2.5;"/>
   </g>
   <g id="legend_1">
    <g id="patch_5">
     <path d="M 514.774179 598.86 
L 560.689804 598.86 
Q 562.689804 598.86 562.689804 596.86 
L 562.689804 554.954375 
Q 562.689804 552.954375 560.689804 552.954375 
L 514.774179 552.954375 
Q 512.774179 552.954375 512.774179 554.954375 
L 512.774179 596.86 
Q 512.774179 598.86 514.774179 598.86 
z
" style="fill:#ffffff;opacity:0.8;stroke:#cccccc;stroke-linejoin:miter;stroke-width:2;"/>
    </g>
    <g id="text_17">
     <!-- $n_\tau$ -->
     <g style="fill:#262626;" transform="translate(524.651991 575.190625)scale(0.24 -0.24)">
      <defs>
       <path d="M 3566 2113 
L 3156 0 
L 2578 0 
L 2988 2091 
Q 3016 2238 3031 2350 
Q 3047 2463 3047 2528 
Q 3047 2791 2881 2937 
Q 2716 3084 2419 3084 
Q 1956 3084 1622 2776 
Q 1288 2469 1184 1941 
L 800 0 
L 225 0 
L 903 3500 
L 1478 3500 
L 1363 2950 
Q 1603 3253 1940 3418 
Q 2278 3584 2650 3584 
Q 3113 3584 3367 3334 
Q 3622 3084 3622 2631 
Q 3622 2519 3608 2391 
Q 3594 2263 3566 2113 
z
" id="DejaVuSans-Oblique-6e" transform="scale(0.015625)"/>
       <path d="M 2103 638 
Q 2188 488 2525 488 
L 2800 488 
L 2706 0 
L 2363 0 
Q 1800 0 1600 300 
Q 1403 606 1534 1269 
L 1856 2925 
L 541 2925 
L 653 3500 
L 3881 3500 
L 3769 2925 
L 2444 2925 
L 2113 1234 
Q 2025 781 2103 638 
z
" id="DejaVuSans-Oblique-3c4" transform="scale(0.015625)"/>
      </defs>
      <use xlink:href="#DejaVuSans-Oblique-6e"/>
      <use transform="translate(63.378906 -16.40625)scale(0.7)" xlink:href="#DejaVuSans-Oblique-3c4"/>
     </g>
    </g>
    <g id="line2d_3">
     <path d="M 516.774179 589.280313 
L 536.774179 589.280313 
" style="fill:none;stroke:#96c69a;stroke-linecap:round;stroke-width:3;"/>
    </g>
    <g id="line2d_4"/>
    <g id="text_18">
     <!-- 10 -->
     <g style="fill:#262626;" transform="translate(544.774179 592.780313)scale(0.1 -0.1)">
      <defs>
       <path d="M 750 831 
L 1813 831 
L 1813 3847 
L 722 3622 
L 722 4441 
L 1806 4666 
L 2950 4666 
L 2950 831 
L 4013 831 
L 4013 0 
L 750 0 
L 750 831 
z
" id="DejaVuSans-Bold-31" transform="scale(0.015625)"/>
       <path d="M 2944 2338 
Q 2944 3213 2780 3570 
Q 2616 3928 2228 3928 
Q 1841 3928 1675 3570 
Q 1509 3213 1509 2338 
Q 1509 1453 1675 1090 
Q 1841 728 2228 728 
Q 2613 728 2778 1090 
Q 2944 1453 2944 2338 
z
M 4147 2328 
Q 4147 1169 3647 539 
Q 3147 -91 2228 -91 
Q 1306 -91 806 539 
Q 306 1169 306 2328 
Q 306 3491 806 4120 
Q 1306 4750 2228 4750 
Q 3147 4750 3647 4120 
Q 4147 3491 4147 2328 
z
" id="DejaVuSans-Bold-30" transform="scale(0.015625)"/>
      </defs>
      <use xlink:href="#DejaVuSans-Bold-31"/>
      <use x="69.580078" xlink:href="#DejaVuSans-Bold-30"/>
     </g>
    </g>
   </g>
  </g>
  <g id="axes_2">
   <g id="patch_6">
    <path d="M 84.914375 92.437143 
L 567.689804 92.437143 
L 567.689804 7.2 
L 84.914375 7.2 
z
" style="fill:none;"/>
   </g>
   <g id="matplotlib.axis_3">
    <g id="xtick_7"/>
    <g id="xtick_8"/>
    <g id="xtick_9"/>
    <g id="xtick_10"/>
    <g id="xtick_11"/>
    <g id="xtick_12"/>
   </g>
   <g id="matplotlib.axis_4">
    <g id="ytick_9">
     <g id="text_19">
      <!-- 0 -->
      <g style="fill:#262626;" transform="translate(55.416875 100.795424)scale(0.22 -0.22)">
       <use xlink:href="#DejaVuSans-30"/>
      </g>
     </g>
    </g>
    <g id="ytick_10">
     <g id="text_20">
      <!-- 100 -->
      <g style="fill:#262626;" transform="translate(27.421875 48.082287)scale(0.22 -0.22)">
       <use xlink:href="#DejaVuSans-31"/>
       <use x="63.623047" xlink:href="#DejaVuSans-30"/>
       <use x="127.246094" xlink:href="#DejaVuSans-30"/>
      </g>
     </g>
    </g>
   </g>
   <g id="patch_7">
    <path clip-path="url(#p5a94127107)" d="M 106.858713 92.437143 
L 140.619232 92.437143 
L 140.619232 11.258912 
L 106.858713 11.258912 
z
" style="fill:#96c69a;fill-opacity:0.5;stroke:#ffffff;stroke-linejoin:miter;stroke-width:2;"/>
   </g>
   <g id="patch_8">
    <path clip-path="url(#p5a94127107)" d="M 140.619232 92.437143 
L 174.379752 92.437143 
L 174.379752 11.258912 
L 140.619232 11.258912 
z
" style="fill:#96c69a;fill-opacity:0.5;stroke:#ffffff;stroke-linejoin:miter;stroke-width:2;"/>
   </g>
   <g id="patch_9">
    <path clip-path="url(#p5a94127107)" d="M 174.379752 92.437143 
L 208.140271 92.437143 
L 208.140271 11.258912 
L 174.379752 11.258912 
z
" style="fill:#96c69a;fill-opacity:0.5;stroke:#ffffff;stroke-linejoin:miter;stroke-width:2;"/>
   </g>
   <g id="patch_10">
    <path clip-path="url(#p5a94127107)" d="M 208.140271 92.437143 
L 241.900791 92.437143 
L 241.900791 11.258912 
L 208.140271 11.258912 
z
" style="fill:#96c69a;fill-opacity:0.5;stroke:#ffffff;stroke-linejoin:miter;stroke-width:2;"/>
   </g>
   <g id="patch_11">
    <path clip-path="url(#p5a94127107)" d="M 241.900791 92.437143 
L 275.66131 92.437143 
L 275.66131 11.786043 
L 241.900791 11.786043 
z
" style="fill:#96c69a;fill-opacity:0.5;stroke:#ffffff;stroke-linejoin:miter;stroke-width:2;"/>
   </g>
   <g id="patch_12">
    <path clip-path="url(#p5a94127107)" d="M 275.66131 92.437143 
L 309.42183 92.437143 
L 309.42183 11.258912 
L 275.66131 11.258912 
z
" style="fill:#96c69a;fill-opacity:0.5;stroke:#ffffff;stroke-linejoin:miter;stroke-width:2;"/>
   </g>
   <g id="patch_13">
    <path clip-path="url(#p5a94127107)" d="M 309.42183 92.437143 
L 343.182349 92.437143 
L 343.182349 11.258912 
L 309.42183 11.258912 
z
" style="fill:#96c69a;fill-opacity:0.5;stroke:#ffffff;stroke-linejoin:miter;stroke-width:2;"/>
   </g>
   <g id="patch_14">
    <path clip-path="url(#p5a94127107)" d="M 343.182349 92.437143 
L 376.942869 92.437143 
L 376.942869 11.258912 
L 343.182349 11.258912 
z
" style="fill:#96c69a;fill-opacity:0.5;stroke:#ffffff;stroke-linejoin:miter;stroke-width:2;"/>
   </g>
   <g id="patch_15">
    <path clip-path="url(#p5a94127107)" d="M 376.942869 92.437143 
L 410.703388 92.437143 
L 410.703388 11.786043 
L 376.942869 11.786043 
z
" style="fill:#96c69a;fill-opacity:0.5;stroke:#ffffff;stroke-linejoin:miter;stroke-width:2;"/>
   </g>
   <g id="patch_16">
    <path clip-path="url(#p5a94127107)" d="M 410.703388 92.437143 
L 444.463907 92.437143 
L 444.463907 11.258912 
L 410.703388 11.258912 
z
" style="fill:#96c69a;fill-opacity:0.5;stroke:#ffffff;stroke-linejoin:miter;stroke-width:2;"/>
   </g>
   <g id="patch_17">
    <path clip-path="url(#p5a94127107)" d="M 444.463907 92.437143 
L 478.224427 92.437143 
L 478.224427 11.258912 
L 444.463907 11.258912 
z
" style="fill:#96c69a;fill-opacity:0.5;stroke:#ffffff;stroke-linejoin:miter;stroke-width:2;"/>
   </g>
   <g id="patch_18">
    <path clip-path="url(#p5a94127107)" d="M 478.224427 92.437143 
L 511.984946 92.437143 
L 511.984946 11.258912 
L 478.224427 11.258912 
z
" style="fill:#96c69a;fill-opacity:0.5;stroke:#ffffff;stroke-linejoin:miter;stroke-width:2;"/>
   </g>
   <g id="patch_19">
    <path clip-path="url(#p5a94127107)" d="M 511.984946 92.437143 
L 545.745466 92.437143 
L 545.745466 11.258912 
L 511.984946 11.258912 
z
" style="fill:#96c69a;fill-opacity:0.5;stroke:#ffffff;stroke-linejoin:miter;stroke-width:2;"/>
   </g>
   <g id="patch_20">
    <path d="M 84.914375 92.437143 
L 84.914375 7.2 
" style="fill:none;stroke:#262626;stroke-linecap:square;stroke-linejoin:miter;stroke-width:2.5;"/>
   </g>
   <g id="patch_21">
    <path d="M 84.914375 92.437143 
L 567.689804 92.437143 
" style="fill:none;stroke:#262626;stroke-linecap:square;stroke-linejoin:miter;stroke-width:2.5;"/>
   </g>
  </g>
  <g id="axes_3">
   <g id="patch_22">
    <path d="M 584.337232 603.86 
L 667.574375 603.86 
L 667.574375 109.484571 
L 584.337232 109.484571 
z
" style="fill:none;"/>
   </g>
   <g id="matplotlib.axis_5">
    <g id="xtick_13">
     <g id="text_21">
      <!-- 0 -->
      <g style="fill:#262626;" transform="translate(577.338482 636.076563)scale(0.22 -0.22)">
       <use xlink:href="#DejaVuSans-30"/>
      </g>
     </g>
    </g>
    <g id="xtick_14">
     <g id="text_22">
      <!-- 100 -->
      <g style="fill:#262626;" transform="translate(606.659818 636.076563)scale(0.22 -0.22)">
       <use xlink:href="#DejaVuSans-31"/>
       <use x="63.623047" xlink:href="#DejaVuSans-30"/>
       <use x="127.246094" xlink:href="#DejaVuSans-30"/>
      </g>
     </g>
    </g>
   </g>
   <g id="matplotlib.axis_6">
    <g id="ytick_11"/>
    <g id="ytick_12"/>
    <g id="ytick_13"/>
    <g id="ytick_14"/>
    <g id="ytick_15"/>
    <g id="ytick_16"/>
    <g id="ytick_17"/>
    <g id="ytick_18"/>
   </g>
   <g id="patch_23">
    <path clip-path="url(#p237b6eb8c1)" d="M 584.337232 581.38839 
L 586.503174 581.38839 
L 586.503174 569.241573 
L 584.337232 569.241573 
z
" style="fill:#96c69a;fill-opacity:0.5;stroke:#ffffff;stroke-linejoin:miter;stroke-width:1.214682;"/>
   </g>
   <g id="patch_24">
    <path clip-path="url(#p237b6eb8c1)" d="M 584.337232 569.241573 
L 586.936362 569.241573 
L 586.936362 557.094757 
L 584.337232 557.094757 
z
" style="fill:#96c69a;fill-opacity:0.5;stroke:#ffffff;stroke-linejoin:miter;stroke-width:1.214682;"/>
   </g>
   <g id="patch_25">
    <path clip-path="url(#p237b6eb8c1)" d="M 584.337232 557.094757 
L 594.733753 557.094757 
L 594.733753 544.94794 
L 584.337232 544.94794 
z
" style="fill:#96c69a;fill-opacity:0.5;stroke:#ffffff;stroke-linejoin:miter;stroke-width:1.214682;"/>
   </g>
   <g id="patch_26">
    <path clip-path="url(#p237b6eb8c1)" d="M 584.337232 544.94794 
L 604.263897 544.94794 
L 604.263897 532.801124 
L 584.337232 532.801124 
z
" style="fill:#96c69a;fill-opacity:0.5;stroke:#ffffff;stroke-linejoin:miter;stroke-width:1.214682;"/>
   </g>
   <g id="patch_27">
    <path clip-path="url(#p237b6eb8c1)" d="M 584.337232 532.801124 
L 605.130273 532.801124 
L 605.130273 520.654307 
L 584.337232 520.654307 
z
" style="fill:#96c69a;fill-opacity:0.5;stroke:#ffffff;stroke-linejoin:miter;stroke-width:1.214682;"/>
   </g>
   <g id="patch_28">
    <path clip-path="url(#p237b6eb8c1)" d="M 584.337232 520.654307 
L 618.559112 520.654307 
L 618.559112 508.507491 
L 584.337232 508.507491 
z
" style="fill:#96c69a;fill-opacity:0.5;stroke:#ffffff;stroke-linejoin:miter;stroke-width:1.214682;"/>
   </g>
   <g id="patch_29">
    <path clip-path="url(#p237b6eb8c1)" d="M 584.337232 508.507491 
L 627.656068 508.507491 
L 627.656068 496.360675 
L 584.337232 496.360675 
z
" style="fill:#96c69a;fill-opacity:0.5;stroke:#ffffff;stroke-linejoin:miter;stroke-width:1.214682;"/>
   </g>
   <g id="patch_30">
    <path clip-path="url(#p237b6eb8c1)" d="M 584.337232 496.360675 
L 636.319835 496.360675 
L 636.319835 484.213858 
L 584.337232 484.213858 
z
" style="fill:#96c69a;fill-opacity:0.5;stroke:#ffffff;stroke-linejoin:miter;stroke-width:1.214682;"/>
   </g>
   <g id="patch_31">
    <path clip-path="url(#p237b6eb8c1)" d="M 584.337232 484.213858 
L 650.181862 484.213858 
L 650.181862 472.067042 
L 584.337232 472.067042 
z
" style="fill:#96c69a;fill-opacity:0.5;stroke:#ffffff;stroke-linejoin:miter;stroke-width:1.214682;"/>
   </g>
   <g id="patch_32">
    <path clip-path="url(#p237b6eb8c1)" d="M 584.337232 472.067042 
L 655.813311 472.067042 
L 655.813311 459.920225 
L 584.337232 459.920225 
z
" style="fill:#96c69a;fill-opacity:0.5;stroke:#ffffff;stroke-linejoin:miter;stroke-width:1.214682;"/>
   </g>
   <g id="patch_33">
    <path clip-path="url(#p237b6eb8c1)" d="M 584.337232 459.920225 
L 663.610702 459.920225 
L 663.610702 447.773409 
L 584.337232 447.773409 
z
" style="fill:#96c69a;fill-opacity:0.5;stroke:#ffffff;stroke-linejoin:miter;stroke-width:1.214682;"/>
   </g>
   <g id="patch_34">
    <path clip-path="url(#p237b6eb8c1)" d="M 584.337232 447.773409 
L 657.546065 447.773409 
L 657.546065 435.626592 
L 584.337232 435.626592 
z
" style="fill:#96c69a;fill-opacity:0.5;stroke:#ffffff;stroke-linejoin:miter;stroke-width:1.214682;"/>
   </g>
   <g id="patch_35">
    <path clip-path="url(#p237b6eb8c1)" d="M 584.337232 435.626592 
L 649.315486 435.626592 
L 649.315486 423.479776 
L 584.337232 423.479776 
z
" style="fill:#96c69a;fill-opacity:0.5;stroke:#ffffff;stroke-linejoin:miter;stroke-width:1.214682;"/>
   </g>
   <g id="patch_36">
    <path clip-path="url(#p237b6eb8c1)" d="M 584.337232 423.479776 
L 644.117225 423.479776 
L 644.117225 411.33296 
L 584.337232 411.33296 
z
" style="fill:#96c69a;fill-opacity:0.5;stroke:#ffffff;stroke-linejoin:miter;stroke-width:1.214682;"/>
   </g>
   <g id="patch_37">
    <path clip-path="url(#p237b6eb8c1)" d="M 584.337232 411.33296 
L 636.753023 411.33296 
L 636.753023 399.186143 
L 584.337232 399.186143 
z
" style="fill:#96c69a;fill-opacity:0.5;stroke:#ffffff;stroke-linejoin:miter;stroke-width:1.214682;"/>
   </g>
   <g id="patch_38">
    <path clip-path="url(#p237b6eb8c1)" d="M 584.337232 399.186143 
L 637.186212 399.186143 
L 637.186212 387.039327 
L 584.337232 387.039327 
z
" style="fill:#96c69a;fill-opacity:0.5;stroke:#ffffff;stroke-linejoin:miter;stroke-width:1.214682;"/>
   </g>
   <g id="patch_39">
    <path clip-path="url(#p237b6eb8c1)" d="M 584.337232 387.039327 
L 622.890996 387.039327 
L 622.890996 374.89251 
L 584.337232 374.89251 
z
" style="fill:#96c69a;fill-opacity:0.5;stroke:#ffffff;stroke-linejoin:miter;stroke-width:1.214682;"/>
   </g>
   <g id="patch_40">
    <path clip-path="url(#p237b6eb8c1)" d="M 584.337232 374.89251 
L 619.425489 374.89251 
L 619.425489 362.745694 
L 584.337232 362.745694 
z
" style="fill:#96c69a;fill-opacity:0.5;stroke:#ffffff;stroke-linejoin:miter;stroke-width:1.214682;"/>
   </g>
   <g id="patch_41">
    <path clip-path="url(#p237b6eb8c1)" d="M 584.337232 362.745694 
L 605.99665 362.745694 
L 605.99665 350.598878 
L 584.337232 350.598878 
z
" style="fill:#96c69a;fill-opacity:0.5;stroke:#ffffff;stroke-linejoin:miter;stroke-width:1.214682;"/>
   </g>
   <g id="patch_42">
    <path clip-path="url(#p237b6eb8c1)" d="M 584.337232 350.598878 
L 600.365201 350.598878 
L 600.365201 338.452061 
L 584.337232 338.452061 
z
" style="fill:#96c69a;fill-opacity:0.5;stroke:#ffffff;stroke-linejoin:miter;stroke-width:1.214682;"/>
   </g>
   <g id="patch_43">
    <path clip-path="url(#p237b6eb8c1)" d="M 584.337232 338.452061 
L 597.332883 338.452061 
L 597.332883 326.305245 
L 584.337232 326.305245 
z
" style="fill:#96c69a;fill-opacity:0.5;stroke:#ffffff;stroke-linejoin:miter;stroke-width:1.214682;"/>
   </g>
   <g id="patch_44">
    <path clip-path="url(#p237b6eb8c1)" d="M 584.337232 326.305245 
L 593.867376 326.305245 
L 593.867376 314.158428 
L 584.337232 314.158428 
z
" style="fill:#96c69a;fill-opacity:0.5;stroke:#ffffff;stroke-linejoin:miter;stroke-width:1.214682;"/>
   </g>
   <g id="patch_45">
    <path clip-path="url(#p237b6eb8c1)" d="M 584.337232 314.158428 
L 592.134623 314.158428 
L 592.134623 302.011612 
L 584.337232 302.011612 
z
" style="fill:#96c69a;fill-opacity:0.5;stroke:#ffffff;stroke-linejoin:miter;stroke-width:1.214682;"/>
   </g>
   <g id="patch_46">
    <path clip-path="url(#p237b6eb8c1)" d="M 584.337232 302.011612 
L 590.835058 302.011612 
L 590.835058 289.864795 
L 584.337232 289.864795 
z
" style="fill:#96c69a;fill-opacity:0.5;stroke:#ffffff;stroke-linejoin:miter;stroke-width:1.214682;"/>
   </g>
   <g id="patch_47">
    <path clip-path="url(#p237b6eb8c1)" d="M 584.337232 289.864795 
L 588.669116 289.864795 
L 588.669116 277.717979 
L 584.337232 277.717979 
z
" style="fill:#96c69a;fill-opacity:0.5;stroke:#ffffff;stroke-linejoin:miter;stroke-width:1.214682;"/>
   </g>
   <g id="patch_48">
    <path clip-path="url(#p237b6eb8c1)" d="M 584.337232 277.717979 
L 586.503174 277.717979 
L 586.503174 265.571163 
L 584.337232 265.571163 
z
" style="fill:#96c69a;fill-opacity:0.5;stroke:#ffffff;stroke-linejoin:miter;stroke-width:1.214682;"/>
   </g>
   <g id="patch_49">
    <path clip-path="url(#p237b6eb8c1)" d="M 584.337232 265.571163 
L 586.503174 265.571163 
L 586.503174 253.424346 
L 584.337232 253.424346 
z
" style="fill:#96c69a;fill-opacity:0.5;stroke:#ffffff;stroke-linejoin:miter;stroke-width:1.214682;"/>
   </g>
   <g id="patch_50">
    <path clip-path="url(#p237b6eb8c1)" d="M 584.337232 253.424346 
L 585.203609 253.424346 
L 585.203609 241.27753 
L 584.337232 241.27753 
z
" style="fill:#96c69a;fill-opacity:0.5;stroke:#ffffff;stroke-linejoin:miter;stroke-width:1.214682;"/>
   </g>
   <g id="patch_51">
    <path clip-path="url(#p237b6eb8c1)" d="M 584.337232 241.27753 
L 585.636797 241.27753 
L 585.636797 229.130713 
L 584.337232 229.130713 
z
" style="fill:#96c69a;fill-opacity:0.5;stroke:#ffffff;stroke-linejoin:miter;stroke-width:1.214682;"/>
   </g>
   <g id="patch_52">
    <path clip-path="url(#p237b6eb8c1)" d="M 584.337232 229.130713 
L 585.203609 229.130713 
L 585.203609 216.983897 
L 584.337232 216.983897 
z
" style="fill:#96c69a;fill-opacity:0.5;stroke:#ffffff;stroke-linejoin:miter;stroke-width:1.214682;"/>
   </g>
   <g id="patch_53">
    <path clip-path="url(#p237b6eb8c1)" d="M 584.337232 216.983897 
L 584.770421 216.983897 
L 584.770421 204.83708 
L 584.337232 204.83708 
z
" style="fill:#96c69a;fill-opacity:0.5;stroke:#ffffff;stroke-linejoin:miter;stroke-width:1.214682;"/>
   </g>
   <g id="patch_54">
    <path clip-path="url(#p237b6eb8c1)" d="M 584.337232 204.83708 
L 584.770421 204.83708 
L 584.770421 192.690264 
L 584.337232 192.690264 
z
" style="fill:#96c69a;fill-opacity:0.5;stroke:#ffffff;stroke-linejoin:miter;stroke-width:1.214682;"/>
   </g>
   <g id="patch_55">
    <path clip-path="url(#p237b6eb8c1)" d="M 584.337232 192.690264 
L 584.337232 192.690264 
L 584.337232 180.543448 
L 584.337232 180.543448 
z
" style="fill:#96c69a;fill-opacity:0.5;stroke:#ffffff;stroke-linejoin:miter;stroke-width:1.214682;"/>
   </g>
   <g id="patch_56">
    <path clip-path="url(#p237b6eb8c1)" d="M 584.337232 180.543448 
L 584.337232 180.543448 
L 584.337232 168.396631 
L 584.337232 168.396631 
z
" style="fill:#96c69a;fill-opacity:0.5;stroke:#ffffff;stroke-linejoin:miter;stroke-width:1.214682;"/>
   </g>
   <g id="patch_57">
    <path clip-path="url(#p237b6eb8c1)" d="M 584.337232 168.396631 
L 584.337232 168.396631 
L 584.337232 156.249815 
L 584.337232 156.249815 
z
" style="fill:#96c69a;fill-opacity:0.5;stroke:#ffffff;stroke-linejoin:miter;stroke-width:1.214682;"/>
   </g>
   <g id="patch_58">
    <path clip-path="url(#p237b6eb8c1)" d="M 584.337232 156.249815 
L 584.337232 156.249815 
L 584.337232 144.102998 
L 584.337232 144.102998 
z
" style="fill:#96c69a;fill-opacity:0.5;stroke:#ffffff;stroke-linejoin:miter;stroke-width:1.214682;"/>
   </g>
   <g id="patch_59">
    <path clip-path="url(#p237b6eb8c1)" d="M 584.337232 144.102998 
L 584.770421 144.102998 
L 584.770421 131.956182 
L 584.337232 131.956182 
z
" style="fill:#96c69a;fill-opacity:0.5;stroke:#ffffff;stroke-linejoin:miter;stroke-width:1.214682;"/>
   </g>
   <g id="patch_60">
    <path d="M 584.337232 603.86 
L 584.337232 109.484571 
" style="fill:none;stroke:#262626;stroke-linecap:square;stroke-linejoin:miter;stroke-width:2.5;"/>
   </g>
   <g id="patch_61">
    <path d="M 584.337232 603.86 
L 667.574375 603.86 
" style="fill:none;stroke:#262626;stroke-linecap:square;stroke-linejoin:miter;stroke-width:2.5;"/>
   </g>
  </g>
 </g>
 <defs>
  <clipPath id="p873b959153">
   <rect height="494.375429" width="482.775429" x="84.914375" y="109.484571"/>
  </clipPath>
  <clipPath id="p5a94127107">
   <rect height="85.237143" width="482.775429" x="84.914375" y="7.2"/>
  </clipPath>
  <clipPath id="p237b6eb8c1">
   <rect height="494.375429" width="83.237143" x="584.337232" y="109.484571"/>
  </clipPath>
 </defs>
</svg>
