<?xml version="1.0" encoding="utf-8" standalone="no"?>
<!DOCTYPE svg PUBLIC "-//W3C//DTD SVG 1.1//EN"
  "http://www.w3.org/Graphics/SVG/1.1/DTD/svg11.dtd">
<svg height="675.079375pt" version="1.1" viewBox="0 0 674.774375 675.079375" width="674.774375pt" xmlns="http://www.w3.org/2000/svg" xmlns:xlink="http://www.w3.org/1999/xlink">
 <metadata>
  <rdf:RDF xmlns:cc="http://creativecommons.org/ns#" xmlns:dc="http://purl.org/dc/elements/1.1/" xmlns:rdf="http://www.w3.org/1999/02/22-rdf-syntax-ns#">
   <cc:Work>
    <dc:type rdf:resource="http://purl.org/dc/dcmitype/StillImage"/>
    <dc:date>2021-07-16T21:43:54.616044</dc:date>
    <dc:format>image/svg+xml</dc:format>
    <dc:creator>
     <cc:Agent>
      <dc:title>Matplotlib v3.4.2, https://matplotlib.org/</dc:title>
     </cc:Agent>
    </dc:creator>
   </cc:Work>
  </rdf:RDF>
 </metadata>
 <defs>
  <style type="text/css">*{stroke-linecap:butt;stroke-linejoin:round;}</style>
 </defs>
 <g id="figure_1">
  <g id="patch_1">
   <path d="M 0 675.079375 
L 674.774375 675.079375 
L 674.774375 0 
L 0 0 
z
" style="fill:#ffffff;"/>
  </g>
  <g id="axes_1">
   <g id="patch_2">
    <path d="M 84.914375 603.86 
L 567.689804 603.86 
L 567.689804 109.484571 
L 84.914375 109.484571 
z
" style="fill:none;"/>
   </g>
   <g id="matplotlib.axis_1">
    <g id="xtick_1">
     <g id="text_1">
      <!-- 0 -->
      <g style="fill:#262626;" transform="translate(99.64041 636.076563)scale(0.22 -0.22)">
       <defs>
        <path d="M 2034 4250 
Q 1547 4250 1301 3770 
Q 1056 3291 1056 2328 
Q 1056 1369 1301 889 
Q 1547 409 2034 409 
Q 2525 409 2770 889 
Q 3016 1369 3016 2328 
Q 3016 3291 2770 3770 
Q 2525 4250 2034 4250 
z
M 2034 4750 
Q 2819 4750 3233 4129 
Q 3647 3509 3647 2328 
Q 3647 1150 3233 529 
Q 2819 -91 2034 -91 
Q 1250 -91 836 529 
Q 422 1150 422 2328 
Q 422 3509 836 4129 
Q 1250 4750 2034 4750 
z
" id="DejaVuSans-30" transform="scale(0.015625)"/>
       </defs>
       <use xlink:href="#DejaVuSans-30"/>
      </g>
     </g>
    </g>
    <g id="xtick_2">
     <g id="text_2">
      <!-- 20000 -->
      <g style="fill:#262626;" transform="translate(159.466671 636.076563)scale(0.22 -0.22)">
       <defs>
        <path d="M 1228 531 
L 3431 531 
L 3431 0 
L 469 0 
L 469 531 
Q 828 903 1448 1529 
Q 2069 2156 2228 2338 
Q 2531 2678 2651 2914 
Q 2772 3150 2772 3378 
Q 2772 3750 2511 3984 
Q 2250 4219 1831 4219 
Q 1534 4219 1204 4116 
Q 875 4013 500 3803 
L 500 4441 
Q 881 4594 1212 4672 
Q 1544 4750 1819 4750 
Q 2544 4750 2975 4387 
Q 3406 4025 3406 3419 
Q 3406 3131 3298 2873 
Q 3191 2616 2906 2266 
Q 2828 2175 2409 1742 
Q 1991 1309 1228 531 
z
" id="DejaVuSans-32" transform="scale(0.015625)"/>
       </defs>
       <use xlink:href="#DejaVuSans-32"/>
       <use x="63.623047" xlink:href="#DejaVuSans-30"/>
       <use x="127.246094" xlink:href="#DejaVuSans-30"/>
       <use x="190.869141" xlink:href="#DejaVuSans-30"/>
       <use x="254.492188" xlink:href="#DejaVuSans-30"/>
      </g>
     </g>
    </g>
    <g id="xtick_3">
     <g id="text_3">
      <!-- 40000 -->
      <g style="fill:#262626;" transform="translate(247.287932 636.076563)scale(0.22 -0.22)">
       <defs>
        <path d="M 2419 4116 
L 825 1625 
L 2419 1625 
L 2419 4116 
z
M 2253 4666 
L 3047 4666 
L 3047 1625 
L 3713 1625 
L 3713 1100 
L 3047 1100 
L 3047 0 
L 2419 0 
L 2419 1100 
L 313 1100 
L 313 1709 
L 2253 4666 
z
" id="DejaVuSans-34" transform="scale(0.015625)"/>
       </defs>
       <use xlink:href="#DejaVuSans-34"/>
       <use x="63.623047" xlink:href="#DejaVuSans-30"/>
       <use x="127.246094" xlink:href="#DejaVuSans-30"/>
       <use x="190.869141" xlink:href="#DejaVuSans-30"/>
       <use x="254.492188" xlink:href="#DejaVuSans-30"/>
      </g>
     </g>
    </g>
    <g id="xtick_4">
     <g id="text_4">
      <!-- 60000 -->
      <g style="fill:#262626;" transform="translate(335.109193 636.076563)scale(0.22 -0.22)">
       <defs>
        <path d="M 2113 2584 
Q 1688 2584 1439 2293 
Q 1191 2003 1191 1497 
Q 1191 994 1439 701 
Q 1688 409 2113 409 
Q 2538 409 2786 701 
Q 3034 994 3034 1497 
Q 3034 2003 2786 2293 
Q 2538 2584 2113 2584 
z
M 3366 4563 
L 3366 3988 
Q 3128 4100 2886 4159 
Q 2644 4219 2406 4219 
Q 1781 4219 1451 3797 
Q 1122 3375 1075 2522 
Q 1259 2794 1537 2939 
Q 1816 3084 2150 3084 
Q 2853 3084 3261 2657 
Q 3669 2231 3669 1497 
Q 3669 778 3244 343 
Q 2819 -91 2113 -91 
Q 1303 -91 875 529 
Q 447 1150 447 2328 
Q 447 3434 972 4092 
Q 1497 4750 2381 4750 
Q 2619 4750 2861 4703 
Q 3103 4656 3366 4563 
z
" id="DejaVuSans-36" transform="scale(0.015625)"/>
       </defs>
       <use xlink:href="#DejaVuSans-36"/>
       <use x="63.623047" xlink:href="#DejaVuSans-30"/>
       <use x="127.246094" xlink:href="#DejaVuSans-30"/>
       <use x="190.869141" xlink:href="#DejaVuSans-30"/>
       <use x="254.492188" xlink:href="#DejaVuSans-30"/>
      </g>
     </g>
    </g>
    <g id="xtick_5">
     <g id="text_5">
      <!-- 80000 -->
      <g style="fill:#262626;" transform="translate(422.930455 636.076563)scale(0.22 -0.22)">
       <defs>
        <path d="M 2034 2216 
Q 1584 2216 1326 1975 
Q 1069 1734 1069 1313 
Q 1069 891 1326 650 
Q 1584 409 2034 409 
Q 2484 409 2743 651 
Q 3003 894 3003 1313 
Q 3003 1734 2745 1975 
Q 2488 2216 2034 2216 
z
M 1403 2484 
Q 997 2584 770 2862 
Q 544 3141 544 3541 
Q 544 4100 942 4425 
Q 1341 4750 2034 4750 
Q 2731 4750 3128 4425 
Q 3525 4100 3525 3541 
Q 3525 3141 3298 2862 
Q 3072 2584 2669 2484 
Q 3125 2378 3379 2068 
Q 3634 1759 3634 1313 
Q 3634 634 3220 271 
Q 2806 -91 2034 -91 
Q 1263 -91 848 271 
Q 434 634 434 1313 
Q 434 1759 690 2068 
Q 947 2378 1403 2484 
z
M 1172 3481 
Q 1172 3119 1398 2916 
Q 1625 2713 2034 2713 
Q 2441 2713 2670 2916 
Q 2900 3119 2900 3481 
Q 2900 3844 2670 4047 
Q 2441 4250 2034 4250 
Q 1625 4250 1398 4047 
Q 1172 3844 1172 3481 
z
" id="DejaVuSans-38" transform="scale(0.015625)"/>
       </defs>
       <use xlink:href="#DejaVuSans-38"/>
       <use x="63.623047" xlink:href="#DejaVuSans-30"/>
       <use x="127.246094" xlink:href="#DejaVuSans-30"/>
       <use x="190.869141" xlink:href="#DejaVuSans-30"/>
       <use x="254.492188" xlink:href="#DejaVuSans-30"/>
      </g>
     </g>
    </g>
    <g id="xtick_6">
     <g id="text_6">
      <!-- 100000 -->
      <g style="fill:#262626;" transform="translate(503.752966 636.076563)scale(0.22 -0.22)">
       <defs>
        <path d="M 794 531 
L 1825 531 
L 1825 4091 
L 703 3866 
L 703 4441 
L 1819 4666 
L 2450 4666 
L 2450 531 
L 3481 531 
L 3481 0 
L 794 0 
L 794 531 
z
" id="DejaVuSans-31" transform="scale(0.015625)"/>
       </defs>
       <use xlink:href="#DejaVuSans-31"/>
       <use x="63.623047" xlink:href="#DejaVuSans-30"/>
       <use x="127.246094" xlink:href="#DejaVuSans-30"/>
       <use x="190.869141" xlink:href="#DejaVuSans-30"/>
       <use x="254.492188" xlink:href="#DejaVuSans-30"/>
       <use x="318.115234" xlink:href="#DejaVuSans-30"/>
      </g>
     </g>
    </g>
    <g id="text_7">
     <!-- MDTU -->
     <g style="fill:#262626;" transform="translate(290.596464 662.888125)scale(0.24 -0.24)">
      <defs>
       <path d="M 628 4666 
L 1569 4666 
L 2759 1491 
L 3956 4666 
L 4897 4666 
L 4897 0 
L 4281 0 
L 4281 4097 
L 3078 897 
L 2444 897 
L 1241 4097 
L 1241 0 
L 628 0 
L 628 4666 
z
" id="DejaVuSans-4d" transform="scale(0.015625)"/>
       <path d="M 1259 4147 
L 1259 519 
L 2022 519 
Q 2988 519 3436 956 
Q 3884 1394 3884 2338 
Q 3884 3275 3436 3711 
Q 2988 4147 2022 4147 
L 1259 4147 
z
M 628 4666 
L 1925 4666 
Q 3281 4666 3915 4102 
Q 4550 3538 4550 2338 
Q 4550 1131 3912 565 
Q 3275 0 1925 0 
L 628 0 
L 628 4666 
z
" id="DejaVuSans-44" transform="scale(0.015625)"/>
       <path d="M -19 4666 
L 3928 4666 
L 3928 4134 
L 2272 4134 
L 2272 0 
L 1638 0 
L 1638 4134 
L -19 4134 
L -19 4666 
z
" id="DejaVuSans-54" transform="scale(0.015625)"/>
       <path d="M 556 4666 
L 1191 4666 
L 1191 1831 
Q 1191 1081 1462 751 
Q 1734 422 2344 422 
Q 2950 422 3222 751 
Q 3494 1081 3494 1831 
L 3494 4666 
L 4128 4666 
L 4128 1753 
Q 4128 841 3676 375 
Q 3225 -91 2344 -91 
Q 1459 -91 1007 375 
Q 556 841 556 1753 
L 556 4666 
z
" id="DejaVuSans-55" transform="scale(0.015625)"/>
      </defs>
      <use xlink:href="#DejaVuSans-4d"/>
      <use x="86.279297" xlink:href="#DejaVuSans-44"/>
      <use x="163.28125" xlink:href="#DejaVuSans-54"/>
      <use x="224.365234" xlink:href="#DejaVuSans-55"/>
     </g>
    </g>
   </g>
   <g id="matplotlib.axis_2">
    <g id="ytick_1">
     <g id="text_8">
      <!-- 0.2 -->
      <g style="fill:#262626;" transform="translate(34.4275 595.529926)scale(0.22 -0.22)">
       <defs>
        <path d="M 684 794 
L 1344 794 
L 1344 0 
L 684 0 
L 684 794 
z
" id="DejaVuSans-2e" transform="scale(0.015625)"/>
       </defs>
       <use xlink:href="#DejaVuSans-30"/>
       <use x="63.623047" xlink:href="#DejaVuSans-2e"/>
       <use x="95.410156" xlink:href="#DejaVuSans-32"/>
      </g>
     </g>
    </g>
    <g id="ytick_2">
     <g id="text_9">
      <!-- 0.4 -->
      <g style="fill:#262626;" transform="translate(34.4275 538.659933)scale(0.22 -0.22)">
       <use xlink:href="#DejaVuSans-30"/>
       <use x="63.623047" xlink:href="#DejaVuSans-2e"/>
       <use x="95.410156" xlink:href="#DejaVuSans-34"/>
      </g>
     </g>
    </g>
    <g id="ytick_3">
     <g id="text_10">
      <!-- 0.6 -->
      <g style="fill:#262626;" transform="translate(34.4275 481.78994)scale(0.22 -0.22)">
       <use xlink:href="#DejaVuSans-30"/>
       <use x="63.623047" xlink:href="#DejaVuSans-2e"/>
       <use x="95.410156" xlink:href="#DejaVuSans-36"/>
      </g>
     </g>
    </g>
    <g id="ytick_4">
     <g id="text_11">
      <!-- 0.8 -->
      <g style="fill:#262626;" transform="translate(34.4275 424.919947)scale(0.22 -0.22)">
       <use xlink:href="#DejaVuSans-30"/>
       <use x="63.623047" xlink:href="#DejaVuSans-2e"/>
       <use x="95.410156" xlink:href="#DejaVuSans-38"/>
      </g>
     </g>
    </g>
    <g id="ytick_5">
     <g id="text_12">
      <!-- 1.0 -->
      <g style="fill:#262626;" transform="translate(34.4275 368.049954)scale(0.22 -0.22)">
       <use xlink:href="#DejaVuSans-31"/>
       <use x="63.623047" xlink:href="#DejaVuSans-2e"/>
       <use x="95.410156" xlink:href="#DejaVuSans-30"/>
      </g>
     </g>
    </g>
    <g id="ytick_6">
     <g id="text_13">
      <!-- 1.2 -->
      <g style="fill:#262626;" transform="translate(34.4275 311.179961)scale(0.22 -0.22)">
       <use xlink:href="#DejaVuSans-31"/>
       <use x="63.623047" xlink:href="#DejaVuSans-2e"/>
       <use x="95.410156" xlink:href="#DejaVuSans-32"/>
      </g>
     </g>
    </g>
    <g id="ytick_7">
     <g id="text_14">
      <!-- 1.4 -->
      <g style="fill:#262626;" transform="translate(34.4275 254.309968)scale(0.22 -0.22)">
       <use xlink:href="#DejaVuSans-31"/>
       <use x="63.623047" xlink:href="#DejaVuSans-2e"/>
       <use x="95.410156" xlink:href="#DejaVuSans-34"/>
      </g>
     </g>
    </g>
    <g id="ytick_8">
     <g id="text_15">
      <!-- 1.6 -->
      <g style="fill:#262626;" transform="translate(34.4275 197.439975)scale(0.22 -0.22)">
       <use xlink:href="#DejaVuSans-31"/>
       <use x="63.623047" xlink:href="#DejaVuSans-2e"/>
       <use x="95.410156" xlink:href="#DejaVuSans-36"/>
      </g>
     </g>
    </g>
    <g id="ytick_9">
     <g id="text_16">
      <!-- 1.8 -->
      <g style="fill:#262626;" transform="translate(34.4275 140.569982)scale(0.22 -0.22)">
       <use xlink:href="#DejaVuSans-31"/>
       <use x="63.623047" xlink:href="#DejaVuSans-2e"/>
       <use x="95.410156" xlink:href="#DejaVuSans-38"/>
      </g>
     </g>
    </g>
    <g id="text_17">
     <!-- $E$ -->
     <g style="fill:#262626;" transform="translate(25.43625 364.352286)rotate(-90)scale(0.24 -0.24)">
      <defs>
       <path d="M 1081 4666 
L 4031 4666 
L 3928 4134 
L 1606 4134 
L 1338 2753 
L 3566 2753 
L 3463 2222 
L 1234 2222 
L 909 531 
L 3284 531 
L 3181 0 
L 172 0 
L 1081 4666 
z
" id="DejaVuSans-Oblique-45" transform="scale(0.015625)"/>
      </defs>
      <use transform="translate(0 0.09375)" xlink:href="#DejaVuSans-Oblique-45"/>
     </g>
    </g>
   </g>
   <g id="line2d_1">
    <path clip-path="url(#p219f8bb831)" d="M 106.858713 441.19655 
L 107.078266 410.786834 
L 107.297819 537.354233 
L 107.736925 400.318636 
L 107.956478 365.945725 
L 108.176032 505.320671 
L 108.395585 511.103161 
L 108.615138 522.468529 
L 108.834691 360.815781 
L 109.054244 429.361922 
L 109.712904 378.998094 
L 109.932457 475.399755 
L 110.15201 465.312637 
L 110.371563 513.994092 
L 110.591116 226.46229 
L 110.810669 435.863653 
L 111.030223 482.630195 
L 111.249776 431.392049 
L 111.469329 417.646853 
L 111.688882 498.654931 
L 111.908435 387.965097 
L 112.127988 509.851619 
L 112.347541 474.97657 
L 112.786648 480.75565 
L 113.006201 445.179056 
L 113.225754 386.186905 
L 113.445307 475.350248 
L 113.66486 495.919727 
L 113.884414 467.216625 
L 114.103967 366.607381 
L 114.32352 483.563246 
L 114.543073 484.989105 
L 114.982179 388.363774 
L 115.201732 290.000864 
L 115.421286 411.238507 
L 115.640839 399.229846 
L 115.860392 526.753266 
L 116.079945 310.287595 
L 116.519051 372.10654 
L 116.738605 371.751645 
L 117.177711 498.087647 
L 117.397264 391.235091 
L 117.616817 525.445532 
L 117.83637 498.895333 
L 118.055923 370.297056 
L 118.275477 511.912862 
L 118.49503 434.122554 
L 118.714583 507.839392 
L 118.934136 411.888115 
L 119.153689 468.474763 
L 119.373242 376.45565 
L 119.592796 402.329669 
L 119.812349 371.418686 
L 120.031902 517.056201 
L 120.471008 190.303426 
L 120.690561 412.32054 
L 120.910114 483.343802 
L 121.129668 460.637614 
L 121.349221 529.194623 
L 121.568774 471.378049 
L 121.788327 466.312526 
L 122.00788 236.035979 
L 122.227433 310.407398 
L 122.446987 492.306276 
L 122.886093 290.964125 
L 123.105646 323.720645 
L 123.325199 462.790683 
L 123.544752 363.637599 
L 123.764305 423.418088 
L 123.983859 423.122373 
L 124.203412 512.379207 
L 124.422965 509.196609 
L 124.642518 539.125683 
L 124.862071 407.673731 
L 125.081624 352.192095 
L 125.301178 381.971572 
L 125.520731 453.51157 
L 125.740284 461.999478 
L 126.17939 377.865963 
L 126.398943 448.953755 
L 126.618496 418.322247 
L 126.83805 473.435809 
L 127.057603 416.137181 
L 127.496709 550.300368 
L 127.935815 317.827854 
L 128.155369 434.430481 
L 128.374922 435.741519 
L 128.594475 435.239503 
L 129.033581 523.980903 
L 129.253134 475.231984 
L 129.472687 492.249608 
L 129.692241 490.615094 
L 129.911794 469.331089 
L 130.3509 388.520555 
L 130.790006 449.147271 
L 131.00956 437.374466 
L 131.229113 433.09584 
L 131.448666 395.569854 
L 131.668219 319.468696 
L 131.887772 392.755749 
L 132.107325 354.195517 
L 132.326878 403.660107 
L 132.546432 510.902584 
L 132.765985 416.325457 
L 132.985538 529.161593 
L 133.205091 470.14564 
L 133.424644 457.708437 
L 133.644197 478.182901 
L 133.863751 336.715363 
L 134.083304 460.928556 
L 134.302857 499.166829 
L 134.52241 397.597526 
L 134.741963 456.754017 
L 134.961516 388.786108 
L 135.181069 436.842456 
L 135.400623 388.676752 
L 135.620176 442.417633 
L 135.839729 366.104924 
L 136.059282 482.058085 
L 136.278835 461.129997 
L 136.498388 454.983937 
L 136.717941 497.254911 
L 136.937495 487.349055 
L 137.157048 420.203762 
L 137.376601 468.677537 
L 137.596154 404.167422 
L 137.815707 273.087142 
L 138.474367 512.200262 
L 138.69392 415.68994 
L 138.913473 432.376213 
L 139.133026 322.869262 
L 139.352579 486.950256 
L 139.791686 282.991937 
L 140.230792 475.641071 
L 140.450345 522.518656 
L 140.669898 400.245109 
L 140.889451 492.747892 
L 141.109005 326.40173 
L 141.328558 463.928115 
L 141.548111 371.581406 
L 141.987217 480.651635 
L 142.20677 483.00325 
L 142.426323 439.773321 
L 142.645877 484.778491 
L 142.86543 421.784946 
L 143.084983 418.570583 
L 143.304536 466.469925 
L 143.524089 424.781726 
L 143.743642 421.765733 
L 143.963196 428.262164 
L 144.182749 419.64686 
L 144.402302 489.45382 
L 144.621855 456.092378 
L 144.841408 459.610355 
L 145.060961 362.448733 
L 145.280514 449.140824 
L 145.500068 464.762958 
L 145.719621 321.760673 
L 145.939174 471.277755 
L 146.158727 415.203715 
L 146.37828 520.550714 
L 146.597833 399.635296 
L 146.817387 410.881583 
L 147.03694 529.12124 
L 147.256493 468.563039 
L 147.476046 438.895544 
L 147.695599 538.68272 
L 148.134705 422.299657 
L 148.354259 476.424233 
L 148.573812 321.742666 
L 148.793365 468.030937 
L 149.012918 308.851674 
L 149.232471 356.245559 
L 149.452024 197.532633 
L 149.671578 443.511545 
L 149.891131 557.112361 
L 150.110684 504.272402 
L 150.330237 421.595728 
L 150.54979 415.179151 
L 150.769343 487.609336 
L 150.988896 471.944582 
L 151.20845 394.907759 
L 151.428003 386.147095 
L 151.647556 501.588693 
L 151.867109 449.76387 
L 152.086662 453.352276 
L 152.306215 420.870433 
L 152.525769 476.590553 
L 152.745322 411.010263 
L 153.184428 514.259701 
L 153.403981 243.084676 
L 153.623534 488.42676 
L 153.843087 318.624089 
L 154.282194 430.249356 
L 154.501747 500.618509 
L 154.7213 421.432692 
L 154.940853 511.551671 
L 155.160406 471.075603 
L 155.37996 505.101475 
L 155.599513 439.146999 
L 155.819066 444.976089 
L 156.038619 509.907207 
L 156.258172 503.634615 
L 156.477725 456.219465 
L 156.697278 445.364114 
L 156.916832 511.727112 
L 157.136385 487.757219 
L 157.355938 276.121978 
L 157.575491 504.916174 
L 157.795044 487.270405 
L 158.014597 408.031595 
L 158.234151 408.377021 
L 158.453704 467.85513 
L 158.673257 324.728485 
L 159.112363 439.199294 
L 159.331916 411.913464 
L 159.551469 550.358155 
L 159.771023 377.823333 
L 159.990576 334.118417 
L 160.210129 421.899214 
L 160.429682 437.128509 
L 160.649235 417.765846 
L 160.868788 476.702767 
L 161.088342 448.2663 
L 161.527448 531.789695 
L 162.186107 345.161942 
L 162.40566 450.717821 
L 162.625214 312.701609 
L 162.844767 365.493246 
L 163.06432 496.726183 
L 163.283873 493.460088 
L 163.722979 427.122833 
L 163.942532 425.121276 
L 164.162086 390.753637 
L 164.381639 421.10974 
L 164.601192 478.762481 
L 164.820745 400.296966 
L 165.040298 492.754978 
L 165.259851 389.230106 
L 165.479405 475.168683 
L 165.698958 469.933383 
L 165.918511 519.545107 
L 166.138064 463.756031 
L 166.357617 511.452159 
L 166.57717 418.015857 
L 166.796723 422.756493 
L 167.016277 502.167438 
L 167.455383 438.959714 
L 167.674936 345.832435 
L 167.894489 307.497022 
L 168.114042 444.556051 
L 168.333596 476.016104 
L 168.553149 428.852314 
L 168.772702 455.99413 
L 168.992255 538.457094 
L 169.211808 529.62939 
L 169.431361 458.857499 
L 169.650914 455.519209 
L 169.870468 454.532044 
L 170.090021 528.376708 
L 170.309574 407.8031 
L 170.529127 467.645629 
L 170.74868 397.814406 
L 171.187787 498.236781 
L 171.40734 445.59604 
L 171.626893 364.34819 
L 172.065999 415.948999 
L 172.285552 392.350285 
L 172.505105 390.58247 
L 172.724659 420.986908 
L 172.944212 383.057363 
L 173.163765 380.669348 
L 173.383318 486.533248 
L 174.261531 325.100895 
L 174.481084 476.658269 
L 174.700637 375.931613 
L 174.92019 457.288751 
L 175.139743 286.512865 
L 175.359296 290.879454 
L 175.57885 433.852147 
L 175.798403 292.241266 
L 176.017956 431.497067 
L 176.457062 332.050077 
L 176.676615 449.941851 
L 176.896169 501.421713 
L 177.335275 331.150656 
L 177.554828 490.816045 
L 177.774381 439.278285 
L 177.993934 460.549014 
L 178.213487 337.026893 
L 178.652594 477.417303 
L 179.0917 422.686473 
L 179.311253 429.164284 
L 179.530806 390.298716 
L 179.75036 503.510852 
L 179.969913 475.681961 
L 180.189466 388.471612 
L 180.409019 406.006383 
L 180.628572 365.970643 
L 180.848125 368.105169 
L 181.067678 317.106226 
L 181.506785 479.780087 
L 181.726338 491.286772 
L 181.945891 520.075554 
L 182.165444 430.517893 
L 182.384997 462.077211 
L 182.604551 426.054895 
L 182.824104 308.652748 
L 183.26321 504.445531 
L 183.482763 495.907046 
L 183.702316 441.002561 
L 183.921869 423.281195 
L 184.141423 340.202685 
L 184.360976 493.66887 
L 184.580529 423.736908 
L 185.019635 486.694879 
L 185.239188 404.637442 
L 185.458742 492.830453 
L 185.678295 424.137392 
L 185.897848 453.308203 
L 186.117401 443.428123 
L 186.336954 450.403542 
L 186.556507 503.223858 
L 186.77606 501.681788 
L 186.995614 409.923475 
L 187.215167 503.52248 
L 187.43472 410.888032 
L 187.654273 368.780669 
L 188.093379 510.447281 
L 188.312932 358.80822 
L 188.532486 479.39378 
L 188.752039 447.67593 
L 188.971592 449.571549 
L 189.410698 381.18355 
L 189.849805 524.733803 
L 190.069358 439.423399 
L 190.288911 446.328668 
L 190.508464 402.488843 
L 190.728017 425.284581 
L 190.94757 467.994122 
L 191.167123 416.523345 
L 191.386677 417.161919 
L 191.60623 532.100936 
L 191.825783 467.755672 
L 192.045336 451.966515 
L 192.264889 457.846532 
L 192.484442 309.484452 
L 192.923549 453.218258 
L 193.362655 263.287004 
L 193.582208 432.249722 
L 193.801761 480.300352 
L 194.240868 407.51591 
L 194.460421 455.122343 
L 194.679974 463.646358 
L 194.899527 401.209489 
L 195.11908 376.526631 
L 195.338633 508.130977 
L 195.558187 470.828366 
L 195.77774 519.766212 
L 195.997293 281.492852 
L 196.216846 485.920878 
L 196.436399 415.192986 
L 196.655952 508.830358 
L 196.875505 423.039451 
L 197.095059 437.790043 
L 197.314612 379.617476 
L 197.534165 489.408155 
L 197.753718 270.626549 
L 197.973271 558.100997 
L 198.192824 346.475426 
L 198.412378 363.199294 
L 198.631931 456.450608 
L 198.851484 466.00159 
L 199.071037 428.983837 
L 199.29059 302.312463 
L 199.510143 348.956102 
L 199.729696 427.564198 
L 199.94925 341.062865 
L 200.168803 431.915145 
L 200.388356 465.050634 
L 200.607909 416.773053 
L 200.827462 478.173255 
L 201.047015 498.506081 
L 201.266569 445.228056 
L 201.705675 488.321323 
L 201.925228 407.869168 
L 202.144781 520.777298 
L 202.364334 448.345732 
L 202.583887 476.581636 
L 202.803441 363.817591 
L 203.022994 339.159453 
L 203.242547 478.750492 
L 203.4621 442.221638 
L 203.681653 464.995386 
L 203.901206 460.971229 
L 204.12076 447.177316 
L 204.340313 483.329122 
L 204.559866 428.144126 
L 204.779419 318.255544 
L 204.998972 361.731774 
L 205.438078 550.176742 
L 205.877185 321.109702 
L 206.096738 350.433402 
L 206.316291 474.562779 
L 206.535844 384.113798 
L 206.755397 456.596783 
L 206.974951 447.752346 
L 207.194504 376.609799 
L 207.63361 507.158334 
L 207.853163 385.112628 
L 208.072716 494.190334 
L 208.292269 375.238013 
L 208.511823 448.502775 
L 208.731376 478.010679 
L 208.950929 400.481865 
L 209.170482 484.348348 
L 209.390035 478.336245 
L 209.609588 468.453266 
L 209.829142 449.697522 
L 210.048695 420.872931 
L 210.268248 243.06036 
L 210.487801 446.928305 
L 210.707354 406.689318 
L 210.926907 489.338471 
L 211.14646 381.089962 
L 211.366014 391.815832 
L 211.585567 484.182133 
L 211.80512 471.334328 
L 212.024673 514.087046 
L 212.463779 448.204361 
L 212.683333 498.349044 
L 213.122439 299.549668 
L 213.341992 488.112986 
L 213.561545 485.959998 
L 213.781098 392.142398 
L 214.000651 435.242923 
L 214.220205 420.210953 
L 214.439758 483.906845 
L 214.659311 453.766513 
L 214.878864 447.45574 
L 215.098417 374.663073 
L 215.31797 432.513612 
L 215.537523 452.177535 
L 215.757077 402.453288 
L 215.97663 399.927038 
L 216.196183 517.826838 
L 216.415736 332.709518 
L 216.635289 524.239576 
L 217.074396 401.373686 
L 217.293949 504.909498 
L 217.513502 520.556174 
L 217.952608 381.384329 
L 218.172161 500.61769 
L 218.391714 442.551476 
L 218.611268 425.31168 
L 218.830821 466.493933 
L 219.050374 458.275207 
L 219.269927 429.115119 
L 219.48948 443.370298 
L 219.709033 376.340946 
L 220.14814 449.781491 
L 220.367693 472.567245 
L 220.587246 275.223843 
L 220.806799 443.077523 
L 221.026352 363.295088 
L 221.465459 526.317354 
L 221.685012 503.948997 
L 221.904565 411.499544 
L 222.124118 417.661325 
L 222.343671 507.94947 
L 222.563224 399.669435 
L 222.782778 407.862979 
L 223.002331 367.71685 
L 223.441437 531.888596 
L 223.66099 545.034913 
L 223.880543 519.83306 
L 224.31965 391.821157 
L 224.539203 526.006016 
L 224.758756 500.665966 
L 224.978309 401.180595 
L 225.417415 457.598286 
L 225.636969 381.552434 
L 225.856522 462.538181 
L 226.076075 398.754076 
L 226.295628 446.262467 
L 226.515181 436.722917 
L 226.734734 493.37416 
L 226.954287 496.787834 
L 227.173841 467.845389 
L 227.393394 375.997296 
L 227.612947 487.396629 
L 227.8325 526.743521 
L 228.052053 512.875386 
L 228.271606 381.209328 
L 228.49116 380.661552 
L 228.710713 427.546614 
L 228.930266 341.915373 
L 229.149819 500.232832 
L 229.369372 432.938471 
L 229.588925 294.134941 
L 229.808478 413.502967 
L 230.028032 383.836067 
L 230.247585 409.511773 
L 230.467138 346.197633 
L 230.686691 495.521707 
L 230.906244 403.847409 
L 231.125797 554.822775 
L 231.345351 409.494111 
L 231.564904 456.417885 
L 231.784457 401.443867 
L 232.00401 443.45559 
L 232.223563 376.765182 
L 232.662669 414.016263 
L 232.882223 415.900761 
L 233.101776 471.211177 
L 233.321329 463.969769 
L 233.540882 425.28253 
L 233.760435 463.207591 
L 233.979988 336.329088 
L 234.419095 495.013686 
L 234.858201 408.192151 
L 235.077754 294.533185 
L 235.297307 404.532719 
L 235.51686 372.732114 
L 235.736414 444.838084 
L 235.955967 460.13545 
L 236.17552 521.257318 
L 236.614626 369.089604 
L 236.834179 442.517464 
L 237.273286 497.991117 
L 237.492839 420.591819 
L 237.712392 408.301816 
L 237.931945 478.705665 
L 238.151498 474.474824 
L 238.371051 422.476786 
L 238.590605 472.935075 
L 238.810158 458.805598 
L 239.029711 385.269363 
L 239.249264 442.340312 
L 239.468817 366.664844 
L 239.68837 386.681706 
L 239.907924 376.758027 
L 240.127477 492.912309 
L 240.34703 334.22151 
L 240.566583 420.004013 
L 240.786136 405.475962 
L 241.005689 469.28392 
L 241.225242 435.920077 
L 241.444796 473.241663 
L 241.664349 422.219711 
L 241.883902 411.339231 
L 242.103455 441.862297 
L 242.323008 431.813636 
L 242.542561 484.721326 
L 242.762114 505.199804 
L 243.201221 423.72607 
L 243.420774 433.138094 
L 243.640327 434.682011 
L 243.85988 456.612472 
L 244.079433 442.504127 
L 244.298987 288.140812 
L 244.738093 455.541652 
L 244.957646 400.60082 
L 245.177199 450.951712 
L 245.396752 467.659763 
L 245.616305 418.869271 
L 245.835859 396.744138 
L 246.055412 470.483373 
L 246.274965 465.878287 
L 246.494518 473.547416 
L 246.714071 384.401495 
L 246.933624 426.283901 
L 247.153178 533.252131 
L 247.372731 528.870203 
L 247.592284 463.263685 
L 247.811837 434.507077 
L 248.03139 426.98369 
L 248.250943 393.637237 
L 248.470496 408.465405 
L 248.69005 386.502267 
L 248.909603 563.031824 
L 249.129156 406.093833 
L 249.348709 536.662739 
L 249.787815 489.359233 
L 250.226922 431.81605 
L 250.446475 523.093679 
L 250.666028 261.072598 
L 250.885581 519.041969 
L 251.105134 406.20902 
L 251.324687 463.005347 
L 251.544241 485.773638 
L 251.763794 403.010249 
L 251.983347 390.283169 
L 252.2029 440.245792 
L 252.422453 457.23921 
L 252.642006 488.23483 
L 252.86156 473.133942 
L 253.081113 518.273359 
L 253.520219 461.054121 
L 253.739772 500.35909 
L 253.959325 477.859552 
L 254.178878 371.123374 
L 254.398432 479.436561 
L 254.617985 397.371582 
L 254.837538 471.063646 
L 255.057091 445.428912 
L 255.276644 469.46271 
L 255.496197 428.644882 
L 255.715751 227.517161 
L 255.935304 413.855265 
L 256.154857 310.109749 
L 256.37441 456.080888 
L 256.593963 329.009852 
L 256.813516 495.31348 
L 257.033069 465.435992 
L 257.252623 467.06594 
L 257.472176 382.917532 
L 257.691729 451.583826 
L 257.911282 430.694991 
L 258.130835 422.161687 
L 258.350388 435.465586 
L 258.569942 499.881879 
L 258.789495 376.064135 
L 259.009048 487.456975 
L 259.228601 423.196027 
L 259.448154 506.815583 
L 259.88726 393.064278 
L 260.106814 505.731584 
L 260.765473 376.154576 
L 260.985026 295.631632 
L 261.204579 461.265232 
L 261.424133 474.296447 
L 261.643686 480.315514 
L 261.863239 459.441477 
L 262.082792 517.013126 
L 262.302345 439.541536 
L 262.521898 541.573502 
L 262.961005 365.316866 
L 263.180558 453.859292 
L 263.619664 362.867663 
L 263.839217 469.737806 
L 264.05877 462.909835 
L 264.497877 337.756108 
L 264.71743 461.263882 
L 264.936983 420.976359 
L 265.156536 411.188129 
L 265.595642 506.891775 
L 265.815196 484.515508 
L 266.034749 492.757128 
L 266.254302 360.408377 
L 266.473855 452.917506 
L 266.693408 357.063752 
L 266.912961 510.891146 
L 267.132514 485.520934 
L 267.352068 444.485467 
L 267.571621 488.844325 
L 267.791174 395.403074 
L 268.010727 381.264544 
L 268.23028 397.250222 
L 268.449833 357.444188 
L 268.88894 500.529616 
L 269.108493 441.778729 
L 269.328046 511.761677 
L 269.547599 401.4778 
L 269.767152 404.60718 
L 269.986705 487.87827 
L 270.206259 318.560432 
L 270.645365 503.227051 
L 270.864918 504.545724 
L 271.084471 421.862987 
L 271.304024 554.813437 
L 271.743131 421.577757 
L 271.962684 418.471519 
L 272.182237 373.654417 
L 272.40179 451.80771 
L 272.621343 317.705425 
L 272.840896 518.189388 
L 273.06045 480.515969 
L 273.280003 396.016636 
L 273.499556 450.370912 
L 273.719109 426.325625 
L 274.158215 531.169711 
L 274.377769 420.229335 
L 274.597322 436.757527 
L 274.816875 423.205101 
L 275.036428 457.799325 
L 275.255981 553.101539 
L 275.475534 355.060375 
L 275.695087 474.004346 
L 275.914641 417.815874 
L 276.134194 507.02988 
L 276.353747 497.48269 
L 276.5733 441.993461 
L 276.792853 521.765221 
L 277.012406 520.287678 
L 277.23196 311.59345 
L 277.451513 431.828884 
L 277.671066 405.704323 
L 277.890619 480.672728 
L 278.110172 287.844222 
L 278.329725 481.114911 
L 278.549278 398.808984 
L 278.768832 477.317826 
L 278.988385 475.574355 
L 279.207938 477.672473 
L 279.427491 413.637151 
L 279.647044 475.964115 
L 279.866597 476.594273 
L 280.086151 448.721135 
L 280.305704 381.366639 
L 280.525257 405.433258 
L 280.74481 387.200116 
L 280.964363 492.997845 
L 281.183916 525.324593 
L 281.403469 536.957276 
L 281.623023 340.452992 
L 281.842576 449.290209 
L 282.062129 386.428097 
L 282.281682 481.764882 
L 282.501235 433.09325 
L 282.720788 314.589505 
L 282.940342 516.356482 
L 283.159895 333.245405 
L 283.379448 389.367972 
L 283.599001 531.365189 
L 283.818554 413.267615 
L 284.038107 382.60692 
L 284.25766 534.567117 
L 284.477214 320.998478 
L 284.91632 540.704849 
L 285.135873 473.283102 
L 285.355426 500.318972 
L 285.574979 450.105039 
L 285.794533 443.225173 
L 286.014086 416.060599 
L 286.233639 332.774663 
L 286.453192 410.519393 
L 286.672745 409.004333 
L 286.892298 469.010723 
L 287.111851 471.637587 
L 287.331405 373.548641 
L 287.550958 431.901963 
L 287.770511 408.548608 
L 287.990064 348.29143 
L 288.209617 491.670042 
L 288.42917 508.296545 
L 288.868277 414.062253 
L 289.08783 485.487298 
L 289.307383 426.379603 
L 289.526936 491.148801 
L 289.966042 328.912389 
L 290.185596 131.956182 
L 290.405149 487.018704 
L 290.624702 379.352936 
L 290.844255 455.458367 
L 291.063808 450.540413 
L 291.283361 526.254656 
L 291.502915 442.678191 
L 291.722468 519.806005 
L 291.942021 355.265274 
L 292.161574 496.811351 
L 292.60068 347.203591 
L 292.820233 412.958486 
L 293.039787 302.173123 
L 293.25934 370.771746 
L 293.478893 551.381029 
L 293.917999 354.759455 
L 294.137552 528.853416 
L 294.357105 377.377909 
L 294.576659 470.221015 
L 294.796212 476.657686 
L 295.015765 417.968235 
L 295.235318 511.236877 
L 295.454871 475.804289 
L 295.674424 519.973296 
L 296.113531 413.149604 
L 296.333084 413.799654 
L 296.552637 499.255311 
L 296.77219 486.582206 
L 296.991743 491.644102 
L 297.211296 449.241844 
L 297.43085 455.975098 
L 297.650403 436.380222 
L 297.869956 453.35956 
L 298.089509 418.358737 
L 298.309062 475.040487 
L 298.528615 426.256688 
L 298.748169 497.026066 
L 298.967722 331.452319 
L 299.187275 340.106931 
L 299.406828 464.549313 
L 299.626381 438.557621 
L 299.845934 521.248613 
L 300.285041 456.118582 
L 300.724147 355.429656 
L 300.9437 476.105648 
L 301.163253 462.648743 
L 301.60236 329.160669 
L 301.821913 519.658547 
L 302.041466 553.479855 
L 302.261019 488.364639 
L 302.480572 515.640746 
L 302.700125 459.894876 
L 302.919678 494.427976 
L 303.139232 444.677498 
L 303.358785 477.324461 
L 303.578338 472.600972 
L 303.797891 516.251747 
L 304.017444 518.165395 
L 304.236997 293.867482 
L 304.456551 429.620462 
L 304.895657 343.635014 
L 305.11521 450.18045 
L 305.334763 362.424778 
L 305.554316 416.360558 
L 305.773869 396.550298 
L 305.993423 443.942539 
L 306.212976 445.508196 
L 306.432529 406.05678 
L 306.652082 444.718583 
L 306.871635 458.27757 
L 307.091188 375.117687 
L 307.310742 437.194251 
L 307.530295 359.978552 
L 307.749848 512.467635 
L 307.969401 369.030848 
L 308.188954 351.486183 
L 308.408507 469.719833 
L 308.62806 299.806263 
L 309.067167 499.916995 
L 309.28672 451.354546 
L 309.506273 543.871886 
L 309.725826 449.335735 
L 309.945379 493.365655 
L 310.164933 482.437666 
L 310.384486 397.174419 
L 310.604039 437.348669 
L 310.823592 448.556708 
L 311.043145 435.362598 
L 311.262698 399.840818 
L 311.482251 403.45733 
L 311.921358 490.442711 
L 312.140911 457.305136 
L 312.360464 504.356971 
L 312.79957 359.44556 
L 313.019124 312.909767 
L 313.238677 300.31002 
L 313.45823 372.187444 
L 313.897336 547.529889 
L 314.116889 407.817524 
L 314.336442 471.812688 
L 314.555996 435.172819 
L 314.775549 442.907844 
L 314.995102 435.080955 
L 315.214655 398.929126 
L 315.434208 471.696648 
L 315.653761 266.087575 
L 315.873315 481.500891 
L 316.092868 491.741817 
L 316.312421 341.054238 
L 316.531974 464.046263 
L 316.751527 343.622142 
L 316.97108 369.512819 
L 317.410187 500.584205 
L 317.62974 469.509919 
L 317.849293 519.644579 
L 318.068846 461.42165 
L 318.288399 437.388088 
L 318.507952 326.128597 
L 318.727506 522.177993 
L 318.947059 292.983604 
L 319.166612 429.965039 
L 319.605718 408.50071 
L 319.825271 502.217813 
L 320.044824 356.47933 
L 320.264378 434.275706 
L 320.483931 432.128593 
L 320.703484 479.674504 
L 320.923037 261.677525 
L 321.14259 429.984281 
L 321.362143 487.97264 
L 321.581696 443.990132 
L 321.80125 509.556952 
L 322.020803 410.937632 
L 322.240356 446.275839 
L 322.459909 361.513601 
L 322.679462 388.59167 
L 322.899015 450.709246 
L 323.118569 362.763313 
L 323.338122 421.560995 
L 323.557675 395.152307 
L 323.777228 427.223237 
L 323.996781 484.942875 
L 324.216334 446.193353 
L 324.435887 365.824349 
L 324.655441 513.896611 
L 325.094547 346.809289 
L 325.3141 430.873889 
L 325.533653 429.228421 
L 325.753206 450.668239 
L 325.97276 408.900214 
L 326.192313 482.279731 
L 326.411866 454.043618 
L 326.631419 474.010031 
L 326.850972 405.52283 
L 327.070525 412.271437 
L 327.290078 493.069388 
L 327.509632 492.344018 
L 327.729185 526.646404 
L 327.948738 450.957908 
L 328.387844 528.538148 
L 328.607397 410.271539 
L 329.046504 527.336787 
L 329.266057 417.77484 
L 329.48561 495.048239 
L 329.705163 313.585507 
L 329.924716 406.830827 
L 330.363823 377.239635 
L 330.583376 464.742537 
L 330.802929 432.538499 
L 331.022482 466.100334 
L 331.242035 557.241641 
L 331.681142 379.811832 
L 331.900695 530.910624 
L 332.120248 263.738514 
L 332.339801 480.006592 
L 332.778907 472.873068 
L 332.99846 414.093975 
L 333.218014 457.797429 
L 333.437567 419.64396 
L 333.65712 524.400283 
L 333.876673 511.036042 
L 334.096226 408.584959 
L 334.315779 388.475032 
L 334.535333 462.331914 
L 334.754886 467.754177 
L 334.974439 377.745085 
L 335.193992 477.809017 
L 335.413545 391.287678 
L 335.633098 465.706767 
L 335.852651 401.055056 
L 336.072205 435.064896 
L 336.291758 494.43362 
L 336.730864 328.162498 
L 336.950417 383.994026 
L 337.16997 404.41924 
L 337.389524 373.91375 
L 337.609077 489.728122 
L 337.82863 411.044016 
L 338.267736 441.489226 
L 338.487289 401.165317 
L 338.706842 390.50576 
L 338.926396 398.859709 
L 339.145949 504.242935 
L 339.365502 429.271596 
L 339.585055 430.270339 
L 339.804608 445.885855 
L 340.024161 402.024518 
L 340.243715 433.172331 
L 340.463268 406.191722 
L 340.682821 496.339496 
L 341.121927 334.52358 
L 341.561033 473.436006 
L 341.780587 367.86601 
L 342.00014 535.553794 
L 342.439246 404.420814 
L 342.658799 431.467062 
L 342.878352 507.077699 
L 343.097906 497.990864 
L 343.317459 472.122736 
L 343.537012 476.205841 
L 343.976118 505.514612 
L 344.195671 431.971515 
L 344.415224 291.627231 
L 345.073884 535.107198 
L 345.293437 375.953668 
L 345.51299 534.771599 
L 345.732543 338.63786 
L 345.952096 437.321576 
L 346.17165 365.38134 
L 346.391203 461.864063 
L 346.610756 475.292323 
L 346.830309 424.912595 
L 347.049862 543.530518 
L 347.488969 412.114567 
L 347.708522 500.829933 
L 348.147628 396.315737 
L 348.367181 477.295422 
L 348.586734 403.603079 
L 348.806287 508.109292 
L 349.025841 362.746008 
L 349.245394 295.431124 
L 349.464947 467.197815 
L 349.6845 444.871648 
L 350.123606 370.378953 
L 350.34316 417.21502 
L 350.562713 502.149814 
L 350.782266 490.292074 
L 351.001819 382.965751 
L 351.221372 375.881568 
L 351.660478 433.030681 
L 351.880032 409.622131 
L 352.319138 469.062024 
L 352.538691 443.087449 
L 352.758244 449.024903 
L 352.977797 406.54397 
L 353.197351 509.268989 
L 353.416904 498.21574 
L 353.636457 404.445329 
L 353.85601 419.785321 
L 354.075563 490.341145 
L 354.295116 500.461672 
L 354.514669 380.645182 
L 354.734223 481.902803 
L 354.953776 424.27569 
L 355.173329 492.310354 
L 355.392882 329.156784 
L 355.831988 479.276342 
L 356.051542 400.969098 
L 356.271095 492.201235 
L 356.490648 495.189613 
L 356.929754 433.08198 
L 357.149307 317.772575 
L 357.36886 470.670464 
L 357.588414 472.837722 
L 357.807967 378.80287 
L 358.02752 460.850165 
L 358.247073 419.831233 
L 358.466626 329.750828 
L 358.905733 442.996903 
L 359.125286 503.332558 
L 359.344839 436.224842 
L 359.564392 488.761689 
L 359.783945 486.694525 
L 360.003498 460.04926 
L 360.223051 308.923597 
L 360.442605 483.597894 
L 360.662158 314.212717 
L 360.881711 288.284275 
L 361.101264 387.665863 
L 361.320817 413.20045 
L 361.54037 404.444959 
L 361.759924 546.136338 
L 361.979477 481.457075 
L 362.19903 463.145446 
L 362.418583 533.416886 
L 362.638136 453.151014 
L 362.857689 482.744746 
L 363.077242 469.450816 
L 363.296796 413.835173 
L 363.516349 463.334918 
L 363.735902 420.949976 
L 363.955455 427.303355 
L 364.175008 466.164708 
L 364.394561 359.610271 
L 364.614115 464.756092 
L 364.833668 510.106143 
L 365.053221 461.424674 
L 365.272774 492.014776 
L 365.492327 484.204886 
L 365.931433 272.005448 
L 366.590093 469.606724 
L 367.029199 518.511168 
L 367.248752 303.05651 
L 367.687859 520.159568 
L 367.907412 417.253857 
L 368.126965 458.406605 
L 368.346518 381.25857 
L 368.566071 487.268439 
L 368.785624 418.074637 
L 369.005178 498.981603 
L 369.224731 454.106948 
L 369.444284 457.376233 
L 369.663837 465.221663 
L 369.88339 461.65329 
L 370.102943 377.947504 
L 370.322497 419.494636 
L 370.54205 310.240816 
L 370.761603 421.443675 
L 370.981156 437.425209 
L 371.200709 462.073354 
L 371.420262 456.886542 
L 371.639815 489.530613 
L 371.859369 480.689086 
L 372.078922 505.28616 
L 372.298475 433.593011 
L 372.518028 477.21071 
L 372.737581 457.594996 
L 372.957134 499.250508 
L 373.176687 505.795972 
L 373.396241 384.367286 
L 373.615794 509.199876 
L 373.835347 452.538733 
L 374.0549 450.992798 
L 374.274453 489.388216 
L 374.494006 340.229591 
L 374.71356 308.147926 
L 374.933113 209.228317 
L 375.152666 404.940042 
L 375.372219 462.112581 
L 375.591772 369.481264 
L 375.811325 470.562643 
L 376.030878 457.146844 
L 376.250432 417.993029 
L 376.689538 500.069921 
L 377.128644 390.744621 
L 377.348197 463.36214 
L 377.567751 366.775569 
L 377.787304 464.219921 
L 378.006857 468.892836 
L 378.22641 403.689431 
L 378.445963 515.411904 
L 378.665516 231.799123 
L 378.885069 371.489252 
L 379.104623 415.92596 
L 379.324176 301.507235 
L 379.543729 434.203712 
L 379.982835 490.270846 
L 380.202388 394.164188 
L 380.421942 404.459536 
L 380.641495 497.273932 
L 380.861048 385.158109 
L 381.080601 425.856525 
L 381.300154 494.619815 
L 381.73926 408.881695 
L 381.958814 497.514445 
L 382.39792 420.371503 
L 382.617473 516.708693 
L 382.837026 504.504072 
L 383.056579 424.147716 
L 383.276133 495.062608 
L 383.495686 424.961855 
L 383.715239 540.306105 
L 383.934792 407.713369 
L 384.154345 462.809329 
L 384.373898 429.981795 
L 384.593451 425.070045 
L 384.813005 394.69157 
L 385.032558 409.875632 
L 385.252111 540.596703 
L 385.471664 408.767518 
L 385.691217 462.818298 
L 385.91077 473.055363 
L 386.130324 435.671472 
L 386.349877 477.110561 
L 386.56943 328.241891 
L 387.228089 494.279855 
L 387.447642 466.203414 
L 387.667196 528.176531 
L 387.886749 493.359406 
L 388.106302 340.191985 
L 388.325855 477.345544 
L 388.545408 504.391237 
L 388.764961 443.675587 
L 388.984515 415.981007 
L 389.204068 465.079566 
L 389.423621 451.536978 
L 389.643174 504.347119 
L 389.862727 431.355069 
L 390.08228 462.931051 
L 390.301833 516.986762 
L 390.521387 495.874229 
L 390.74094 447.084803 
L 390.960493 425.753791 
L 391.180046 361.513159 
L 391.399599 492.569177 
L 391.619152 438.715232 
L 391.838706 446.623799 
L 392.058259 388.202735 
L 392.277812 464.98126 
L 392.497365 351.163513 
L 392.716918 440.65979 
L 392.936471 384.61078 
L 393.156024 416.668031 
L 393.375578 373.352424 
L 393.595131 480.760598 
L 393.814684 405.796541 
L 394.034237 390.619836 
L 394.25379 426.879333 
L 394.473343 436.765916 
L 394.692897 416.797649 
L 394.91245 511.891345 
L 395.132003 339.140048 
L 395.351556 495.094039 
L 395.571109 347.157648 
L 395.790662 454.435377 
L 396.010215 441.716783 
L 396.229769 467.746402 
L 396.449322 382.720426 
L 396.668875 485.951533 
L 396.888428 428.04029 
L 397.107981 530.7262 
L 397.547087 390.661136 
L 397.766641 372.088559 
L 397.986194 469.274986 
L 398.205747 494.489675 
L 398.4253 379.585829 
L 398.644853 466.167876 
L 398.864406 467.709382 
L 399.08396 530.955911 
L 399.303513 343.546289 
L 399.523066 405.54536 
L 399.742619 405.755281 
L 399.962172 422.400564 
L 400.181725 417.449484 
L 400.401278 531.823507 
L 400.620832 467.677778 
L 401.059938 517.623149 
L 401.279491 329.087472 
L 401.499044 423.05597 
L 401.718597 419.35185 
L 401.938151 471.959329 
L 402.157704 381.927073 
L 402.377257 477.665315 
L 402.59681 514.28332 
L 402.816363 413.919451 
L 403.035916 484.789386 
L 403.255469 387.298161 
L 403.475023 423.342412 
L 403.694576 499.797966 
L 403.914129 435.838948 
L 404.353235 390.47631 
L 404.572788 328.704189 
L 404.792342 440.134442 
L 405.011895 449.54289 
L 405.231448 401.682781 
L 405.451001 507.984686 
L 405.670554 446.357127 
L 405.890107 490.58678 
L 406.10966 481.004098 
L 406.329214 399.775689 
L 406.548767 270.976643 
L 406.987873 531.169506 
L 407.207426 427.066171 
L 407.426979 479.26101 
L 407.646533 448.795964 
L 407.866086 383.209825 
L 408.085639 551.828367 
L 408.305192 424.488134 
L 408.524745 435.516992 
L 408.744298 432.830548 
L 408.963851 464.828827 
L 409.183405 477.589136 
L 409.622511 341.442572 
L 409.842064 368.796692 
L 410.061617 458.280477 
L 410.28117 463.845891 
L 410.500724 430.612575 
L 410.720277 507.267391 
L 410.93983 396.727364 
L 411.159383 485.794923 
L 411.378936 497.658357 
L 411.598489 445.876995 
L 411.818042 464.172369 
L 412.037596 233.651206 
L 412.257149 485.340101 
L 412.476702 409.941796 
L 412.696255 494.946651 
L 412.915808 459.465959 
L 413.135361 460.7771 
L 413.354915 480.99797 
L 413.574468 482.391954 
L 413.794021 263.900212 
L 414.013574 454.060663 
L 414.233127 476.889208 
L 414.45268 374.869996 
L 414.672233 423.455041 
L 414.891787 415.21377 
L 415.330893 518.452626 
L 415.550446 383.078404 
L 415.769999 461.415733 
L 415.989552 355.46103 
L 416.209106 472.95729 
L 416.428659 444.960327 
L 416.648212 401.549342 
L 416.867765 508.890788 
L 417.087318 463.094258 
L 417.306871 506.957187 
L 417.526424 477.26524 
L 417.745978 423.785458 
L 417.965531 487.658148 
L 418.185084 506.201478 
L 418.404637 390.370093 
L 418.62419 421.86218 
L 418.843743 395.029961 
L 419.063297 305.725519 
L 419.28285 456.486686 
L 419.721956 314.115979 
L 419.941509 414.954692 
L 420.161062 374.059437 
L 420.380615 469.634557 
L 420.600169 480.695613 
L 420.819722 511.013519 
L 421.039275 502.233409 
L 421.258828 516.556663 
L 421.697934 398.528471 
L 421.917488 344.77207 
L 422.356594 428.252126 
L 422.576147 411.570337 
L 422.7957 423.686306 
L 423.015253 450.286092 
L 423.234806 292.927378 
L 423.45436 344.919765 
L 423.673913 491.624726 
L 423.893466 323.63787 
L 424.113019 345.05833 
L 424.332572 419.300896 
L 424.552125 424.533263 
L 424.771678 478.882694 
L 424.991232 482.590595 
L 425.210785 361.954969 
L 425.430338 444.095716 
L 425.649891 431.513532 
L 425.869444 461.977454 
L 426.088997 444.957787 
L 426.308551 511.315447 
L 426.747657 345.35294 
L 426.96721 456.329979 
L 427.186763 489.701369 
L 427.406316 494.329267 
L 427.625869 455.059113 
L 427.845423 538.125215 
L 428.064976 393.261514 
L 428.284529 391.397881 
L 428.504082 462.772537 
L 428.943188 366.421635 
L 429.162742 381.808946 
L 429.382295 380.669403 
L 429.601848 313.437335 
L 429.821401 398.651643 
L 430.040954 420.423298 
L 430.260507 419.873143 
L 430.48006 410.450456 
L 430.699614 520.577783 
L 430.919167 468.631356 
L 431.13872 364.270855 
L 431.358273 497.97575 
L 431.577826 485.806414 
L 432.016933 326.302205 
L 432.236486 530.966538 
L 432.456039 500.786939 
L 432.675592 492.008926 
L 432.895145 391.945427 
L 433.114698 461.111174 
L 433.553805 502.460443 
L 433.773358 504.197849 
L 433.992911 436.63431 
L 434.212464 485.060376 
L 434.432017 386.738239 
L 434.871124 549.630021 
L 435.31023 478.790373 
L 435.529783 458.867248 
L 435.749336 476.455272 
L 435.968889 432.429224 
L 436.188442 302.021828 
L 436.407996 480.105829 
L 436.627549 396.350985 
L 436.847102 435.053686 
L 437.066655 423.674537 
L 437.505761 530.338923 
L 437.725315 466.892543 
L 437.944868 458.957462 
L 438.164421 531.746321 
L 438.383974 400.079967 
L 438.603527 351.720253 
L 438.82308 380.366201 
L 439.042633 518.089927 
L 439.48174 350.744334 
L 439.920846 452.718038 
L 440.140399 444.248354 
L 440.359952 428.810426 
L 440.579506 519.951666 
L 440.799059 324.816419 
L 441.018612 430.149756 
L 441.238165 471.161952 
L 441.457718 568.743898 
L 441.677271 433.554799 
L 441.896824 367.115421 
L 442.116378 491.557759 
L 442.335931 332.483141 
L 442.555484 431.612549 
L 442.775037 398.159139 
L 442.99459 283.86407 
L 443.214143 468.160545 
L 443.433697 466.409623 
L 443.65325 472.079845 
L 443.872803 500.792335 
L 444.092356 438.410031 
L 444.311909 339.897257 
L 444.531462 458.885354 
L 444.751015 467.745989 
L 444.970569 464.098106 
L 445.190122 445.331663 
L 445.848781 365.50749 
L 446.068334 476.157025 
L 446.287888 403.528039 
L 446.507441 476.91866 
L 446.726994 393.324748 
L 446.946547 450.230176 
L 447.1661 323.049673 
L 447.385653 581.38839 
L 447.605206 405.185544 
L 447.82476 388.401516 
L 448.044313 425.389488 
L 448.263866 490.647677 
L 448.702972 503.899819 
L 448.922525 526.65791 
L 449.142079 397.52999 
L 449.361632 482.918548 
L 449.581185 522.816011 
L 449.800738 470.300442 
L 450.020291 541.613343 
L 450.239844 351.68038 
L 450.459397 381.651733 
L 450.678951 503.301486 
L 450.898504 331.556576 
L 451.118057 433.0151 
L 451.33761 381.19319 
L 451.557163 419.488144 
L 451.776716 435.280672 
L 451.996269 275.912421 
L 452.215823 430.728708 
L 452.435376 468.30525 
L 452.654929 451.795558 
L 452.874482 456.856956 
L 453.094035 506.102454 
L 453.313588 495.373766 
L 453.533142 476.760045 
L 453.752695 361.308033 
L 453.972248 475.781053 
L 454.191801 405.43486 
L 454.411354 488.580354 
L 454.630907 511.906691 
L 454.85046 415.65452 
L 455.070014 502.268134 
L 455.50912 394.054368 
L 455.728673 372.103796 
L 455.948226 420.799041 
L 456.167779 365.987321 
L 456.387333 475.651722 
L 456.606886 449.27639 
L 456.826439 482.725015 
L 457.045992 468.755512 
L 457.265545 463.425587 
L 457.485098 355.532744 
L 457.704651 489.094035 
L 458.143758 370.881965 
L 458.363311 429.782265 
L 458.582864 398.614351 
L 458.802417 458.77529 
L 459.02197 340.333069 
L 459.241524 355.657437 
L 459.461077 408.607464 
L 459.68063 533.567524 
L 459.900183 375.156536 
L 460.119736 332.898641 
L 460.339289 444.525014 
L 460.558842 452.828488 
L 460.778396 489.692016 
L 460.997949 456.415111 
L 461.217502 449.100151 
L 461.437055 426.001768 
L 461.656608 523.581149 
L 461.876161 553.312578 
L 462.095715 538.34875 
L 462.315268 427.058189 
L 462.534821 506.37967 
L 462.754374 355.344186 
L 462.973927 476.471753 
L 463.19348 274.597621 
L 463.413033 427.669215 
L 463.632587 490.354634 
L 463.85214 416.018276 
L 464.071693 490.393339 
L 464.291246 515.377249 
L 464.510799 457.038057 
L 464.730352 492.424104 
L 464.949906 424.253271 
L 465.169459 509.701057 
L 465.389012 446.640508 
L 465.608565 434.585653 
L 465.828118 434.711836 
L 466.047671 384.464441 
L 466.267224 471.284521 
L 466.486778 508.300175 
L 466.706331 403.277017 
L 466.925884 494.098361 
L 467.145437 478.879351 
L 467.584543 412.316889 
L 467.804097 443.693815 
L 468.02365 437.134951 
L 468.243203 516.980719 
L 468.462756 406.981473 
L 468.682309 505.326119 
L 468.901862 387.968301 
L 469.121415 501.320001 
L 469.340969 503.372643 
L 469.560522 393.034217 
L 469.780075 349.486028 
L 469.999628 493.691735 
L 470.219181 529.504695 
L 470.438734 498.127394 
L 470.658288 374.21653 
L 470.877841 324.598589 
L 471.097394 523.221961 
L 471.316947 462.120066 
L 471.756053 514.160235 
L 471.975606 397.479528 
L 472.19516 380.882304 
L 472.414713 404.181295 
L 472.634266 324.623511 
L 473.292925 540.893807 
L 473.512479 434.196868 
L 473.732032 510.050338 
L 473.951585 310.745796 
L 474.390691 497.823141 
L 474.829797 396.874851 
L 475.049351 502.1442 
L 475.268904 390.232337 
L 475.488457 451.311698 
L 475.70801 459.786775 
L 475.927563 502.513032 
L 476.147116 436.882507 
L 476.366669 446.614533 
L 476.586223 434.166809 
L 476.805776 444.126232 
L 477.244882 512.41568 
L 477.464435 447.341178 
L 477.683988 426.461739 
L 477.903542 464.247699 
L 478.123095 475.352958 
L 478.342648 440.090658 
L 478.562201 434.329105 
L 479.001307 464.548724 
L 479.22086 471.42751 
L 479.440414 458.949826 
L 479.659967 466.548801 
L 479.87952 391.167196 
L 480.099073 380.341464 
L 480.318626 403.32938 
L 480.538179 483.597584 
L 480.757733 422.291136 
L 480.977286 442.283355 
L 481.196839 424.46037 
L 481.416392 434.060879 
L 481.855498 486.430936 
L 482.075051 395.471647 
L 482.294605 443.389544 
L 482.514158 410.302458 
L 482.733711 504.274277 
L 482.953264 408.245559 
L 483.39237 560.709117 
L 483.611924 473.900398 
L 483.831477 435.379399 
L 484.05103 455.751558 
L 484.270583 362.453404 
L 484.490136 353.639683 
L 484.709689 378.613415 
L 485.148796 504.698891 
L 485.368349 293.989132 
L 485.587902 490.861726 
L 485.807455 426.705835 
L 486.027008 437.455913 
L 486.246561 458.340788 
L 486.466115 383.866954 
L 486.685668 440.161105 
L 486.905221 396.330703 
L 487.124774 478.003972 
L 487.56388 334.185833 
L 487.783433 470.258353 
L 488.002987 341.384306 
L 488.22254 423.939895 
L 488.442093 454.951633 
L 488.661646 411.532273 
L 488.881199 487.88713 
L 489.100752 499.833597 
L 489.320306 350.22254 
L 489.539859 435.869642 
L 489.759412 460.833729 
L 489.978965 444.604014 
L 490.198518 335.115299 
L 490.418071 407.136952 
L 490.637624 542.650289 
L 490.857178 515.845354 
L 491.076731 410.159526 
L 491.296284 475.208698 
L 491.515837 494.82045 
L 491.73539 449.296986 
L 491.954943 520.147354 
L 492.174497 504.839052 
L 492.39405 428.00725 
L 492.613603 460.896007 
L 492.833156 289.913094 
L 493.052709 426.412274 
L 493.272262 372.163592 
L 493.491815 446.947824 
L 493.711369 369.723782 
L 494.150475 506.307315 
L 494.370028 450.748872 
L 494.589581 470.681084 
L 494.809134 286.488645 
L 495.248241 528.048808 
L 495.467794 472.280269 
L 495.687347 480.929384 
L 495.9069 329.830499 
L 496.126453 396.734406 
L 496.346006 521.211135 
L 496.56556 388.839364 
L 497.004666 515.477331 
L 497.224219 427.374032 
L 497.443772 469.080807 
L 497.663325 436.610795 
L 497.882879 487.995412 
L 498.102432 322.566315 
L 498.321985 275.5552 
L 498.541538 335.496243 
L 498.761091 501.413604 
L 498.980644 453.917308 
L 499.200197 448.004733 
L 499.419751 469.077272 
L 499.639304 468.881845 
L 499.858857 431.055263 
L 500.07841 448.907691 
L 500.297963 403.155297 
L 500.517516 473.784494 
L 500.73707 489.951849 
L 500.956623 443.255505 
L 501.176176 492.975523 
L 501.395729 392.235942 
L 501.615282 463.885703 
L 501.834835 359.460727 
L 502.054388 363.427937 
L 502.273942 514.553394 
L 502.493495 355.843871 
L 502.713048 551.568576 
L 502.932601 348.844317 
L 503.371707 502.618593 
L 503.59126 331.005924 
L 503.810814 466.291239 
L 504.030367 407.64234 
L 504.24992 427.480045 
L 504.469473 380.743475 
L 504.689026 275.305698 
L 504.908579 511.775294 
L 505.128133 372.436389 
L 505.347686 500.521777 
L 505.567239 400.724847 
L 505.786792 460.821139 
L 506.006345 426.47547 
L 506.225898 453.78866 
L 506.445451 334.606897 
L 506.665005 506.039634 
L 506.884558 441.20166 
L 507.104111 462.43124 
L 507.323664 417.722134 
L 507.543217 502.981471 
L 507.76277 386.257541 
L 507.982324 475.139383 
L 508.201877 185.406794 
L 508.42143 420.850317 
L 508.640983 515.88515 
L 509.080089 380.882697 
L 509.299642 381.374534 
L 509.519196 511.81292 
L 509.738749 354.611623 
L 509.958302 434.539249 
L 510.177855 378.606456 
L 510.397408 392.882009 
L 510.616961 462.328716 
L 510.836515 478.771517 
L 511.056068 400.92978 
L 511.275621 401.728108 
L 511.495174 496.123847 
L 511.714727 507.845866 
L 511.93428 459.183767 
L 512.153833 459.127886 
L 512.373387 475.445497 
L 512.59294 399.364515 
L 512.812493 433.616653 
L 513.032046 520.742378 
L 513.251599 445.697128 
L 513.471152 487.463691 
L 513.690706 451.634738 
L 513.910259 505.555507 
L 514.129812 421.739324 
L 514.349365 477.773708 
L 514.568918 442.915825 
L 514.788471 495.650728 
L 515.008024 450.792069 
L 515.227578 459.42858 
L 515.447131 477.280504 
L 515.666684 460.299877 
L 515.886237 363.880442 
L 516.10579 541.118547 
L 516.325343 528.623861 
L 516.544897 309.965632 
L 516.76445 515.640383 
L 516.984003 344.062178 
L 517.203556 452.969112 
L 517.423109 477.010606 
L 517.642662 442.687433 
L 517.862215 487.063821 
L 518.081769 477.307007 
L 518.301322 453.307218 
L 518.520875 486.94189 
L 518.959981 407.600095 
L 519.179534 322.309312 
L 519.399088 472.71202 
L 519.618641 234.690904 
L 519.838194 535.436746 
L 520.057747 400.001174 
L 520.2773 479.210598 
L 520.496853 514.506493 
L 520.93596 441.042465 
L 521.155513 345.151841 
L 521.375066 336.399434 
L 521.594619 240.552133 
L 521.814172 507.947443 
L 522.033725 391.248174 
L 522.253279 504.917303 
L 522.472832 543.937395 
L 522.692385 373.327759 
L 522.911938 452.796785 
L 523.131491 472.597445 
L 523.351044 452.630373 
L 523.790151 463.631619 
L 524.009704 516.803557 
L 524.229257 513.840158 
L 524.44881 481.581117 
L 524.668363 509.410631 
L 524.887916 396.533823 
L 525.546576 491.910273 
L 525.985682 392.26003 
L 526.205235 494.435447 
L 526.424788 340.084306 
L 526.644342 407.044102 
L 526.863895 402.533477 
L 527.083448 443.73761 
L 527.303001 387.4258 
L 527.522554 515.948272 
L 527.742107 383.40773 
L 527.96166 502.923612 
L 528.181214 493.609165 
L 528.400767 532.062637 
L 528.839873 259.889724 
L 529.059426 344.183694 
L 529.278979 377.760841 
L 529.498533 550.765832 
L 529.718086 408.492965 
L 529.937639 499.01982 
L 530.157192 478.040338 
L 530.376745 444.834924 
L 530.596298 392.575806 
L 530.815851 541.735272 
L 531.035405 424.2188 
L 531.254958 421.959636 
L 531.474511 455.056019 
L 531.913617 403.126746 
L 532.13317 506.172949 
L 532.352724 445.603779 
L 532.572277 279.087674 
L 533.011383 435.791796 
L 533.450489 371.402522 
L 533.670042 430.793723 
L 534.328702 480.747933 
L 534.548255 366.850897 
L 534.767808 493.893084 
L 534.987361 403.702478 
L 535.206915 500.056686 
L 535.426468 501.721847 
L 535.646021 232.088305 
L 535.865574 521.377955 
L 536.30468 344.470597 
L 536.524233 514.5739 
L 536.743787 482.878987 
L 536.96334 492.8334 
L 537.182893 432.310466 
L 537.402446 433.255402 
L 537.621999 362.675294 
L 537.841552 397.43359 
L 538.280659 531.612781 
L 538.719765 348.919332 
L 538.939318 454.721257 
L 539.158871 419.433087 
L 539.378424 459.28865 
L 539.597978 399.701498 
L 539.817531 394.908139 
L 540.037084 528.247714 
L 540.256637 536.689431 
L 540.47619 439.047587 
L 540.695743 442.745211 
L 540.915297 337.909983 
L 541.354403 429.671072 
L 541.573956 412.529129 
L 541.793509 429.081981 
L 542.013062 499.256633 
L 542.452169 376.896348 
L 542.671722 433.771093 
L 542.891275 342.989511 
L 543.110828 511.808776 
L 543.549934 308.910079 
L 543.769488 405.865225 
L 543.989041 347.30918 
L 544.208594 475.319582 
L 544.428147 355.353843 
L 544.6477 459.724904 
L 545.086806 382.188696 
L 545.525913 495.438199 
L 545.745466 358.383151 
L 545.745466 358.383151 
" style="fill:none;stroke:#96c69a;stroke-linecap:round;stroke-width:3;"/>
   </g>
   <g id="line2d_2"/>
   <g id="patch_3">
    <path d="M 84.914375 603.86 
L 84.914375 109.484571 
" style="fill:none;stroke:#262626;stroke-linecap:square;stroke-linejoin:miter;stroke-width:2.5;"/>
   </g>
   <g id="patch_4">
    <path d="M 84.914375 603.86 
L 567.689804 603.86 
" style="fill:none;stroke:#262626;stroke-linecap:square;stroke-linejoin:miter;stroke-width:2.5;"/>
   </g>
   <g id="legend_1">
    <g id="patch_5">
     <path d="M 514.774179 598.86 
L 560.689804 598.86 
Q 562.689804 598.86 562.689804 596.86 
L 562.689804 554.954375 
Q 562.689804 552.954375 560.689804 552.954375 
L 514.774179 552.954375 
Q 512.774179 552.954375 512.774179 554.954375 
L 512.774179 596.86 
Q 512.774179 598.86 514.774179 598.86 
z
" style="fill:#ffffff;opacity:0.8;stroke:#cccccc;stroke-linejoin:miter;stroke-width:2;"/>
    </g>
    <g id="text_18">
     <!-- $n_\tau$ -->
     <g style="fill:#262626;" transform="translate(524.651991 575.190625)scale(0.24 -0.24)">
      <defs>
       <path d="M 3566 2113 
L 3156 0 
L 2578 0 
L 2988 2091 
Q 3016 2238 3031 2350 
Q 3047 2463 3047 2528 
Q 3047 2791 2881 2937 
Q 2716 3084 2419 3084 
Q 1956 3084 1622 2776 
Q 1288 2469 1184 1941 
L 800 0 
L 225 0 
L 903 3500 
L 1478 3500 
L 1363 2950 
Q 1603 3253 1940 3418 
Q 2278 3584 2650 3584 
Q 3113 3584 3367 3334 
Q 3622 3084 3622 2631 
Q 3622 2519 3608 2391 
Q 3594 2263 3566 2113 
z
" id="DejaVuSans-Oblique-6e" transform="scale(0.015625)"/>
       <path d="M 2103 638 
Q 2188 488 2525 488 
L 2800 488 
L 2706 0 
L 2363 0 
Q 1800 0 1600 300 
Q 1403 606 1534 1269 
L 1856 2925 
L 541 2925 
L 653 3500 
L 3881 3500 
L 3769 2925 
L 2444 2925 
L 2113 1234 
Q 2025 781 2103 638 
z
" id="DejaVuSans-Oblique-3c4" transform="scale(0.015625)"/>
      </defs>
      <use xlink:href="#DejaVuSans-Oblique-6e"/>
      <use transform="translate(63.378906 -16.40625)scale(0.7)" xlink:href="#DejaVuSans-Oblique-3c4"/>
     </g>
    </g>
    <g id="line2d_3">
     <path d="M 516.774179 589.280313 
L 536.774179 589.280313 
" style="fill:none;stroke:#96c69a;stroke-linecap:round;stroke-width:3;"/>
    </g>
    <g id="line2d_4"/>
    <g id="text_19">
     <!-- 32 -->
     <g style="fill:#262626;" transform="translate(544.774179 592.780313)scale(0.1 -0.1)">
      <defs>
       <path d="M 2981 2516 
Q 3453 2394 3698 2092 
Q 3944 1791 3944 1325 
Q 3944 631 3412 270 
Q 2881 -91 1863 -91 
Q 1503 -91 1142 -33 
Q 781 25 428 141 
L 428 1069 
Q 766 900 1098 814 
Q 1431 728 1753 728 
Q 2231 728 2486 893 
Q 2741 1059 2741 1369 
Q 2741 1688 2480 1852 
Q 2219 2016 1709 2016 
L 1228 2016 
L 1228 2791 
L 1734 2791 
Q 2188 2791 2409 2933 
Q 2631 3075 2631 3366 
Q 2631 3634 2415 3781 
Q 2200 3928 1806 3928 
Q 1516 3928 1219 3862 
Q 922 3797 628 3669 
L 628 4550 
Q 984 4650 1334 4700 
Q 1684 4750 2022 4750 
Q 2931 4750 3382 4451 
Q 3834 4153 3834 3553 
Q 3834 3144 3618 2883 
Q 3403 2622 2981 2516 
z
" id="DejaVuSans-Bold-33" transform="scale(0.015625)"/>
       <path d="M 1844 884 
L 3897 884 
L 3897 0 
L 506 0 
L 506 884 
L 2209 2388 
Q 2438 2594 2547 2791 
Q 2656 2988 2656 3200 
Q 2656 3528 2436 3728 
Q 2216 3928 1850 3928 
Q 1569 3928 1234 3808 
Q 900 3688 519 3450 
L 519 4475 
Q 925 4609 1322 4679 
Q 1719 4750 2100 4750 
Q 2938 4750 3402 4381 
Q 3866 4013 3866 3353 
Q 3866 2972 3669 2642 
Q 3472 2313 2841 1759 
L 1844 884 
z
" id="DejaVuSans-Bold-32" transform="scale(0.015625)"/>
      </defs>
      <use xlink:href="#DejaVuSans-Bold-33"/>
      <use x="69.580078" xlink:href="#DejaVuSans-Bold-32"/>
     </g>
    </g>
   </g>
  </g>
  <g id="axes_2">
   <g id="patch_6">
    <path d="M 84.914375 92.437143 
L 567.689804 92.437143 
L 567.689804 7.2 
L 84.914375 7.2 
z
" style="fill:none;"/>
   </g>
   <g id="matplotlib.axis_3">
    <g id="xtick_7"/>
    <g id="xtick_8"/>
    <g id="xtick_9"/>
    <g id="xtick_10"/>
    <g id="xtick_11"/>
    <g id="xtick_12"/>
   </g>
   <g id="matplotlib.axis_4">
    <g id="ytick_10">
     <g id="text_20">
      <!-- 0 -->
      <g style="fill:#262626;" transform="translate(55.416875 100.795424)scale(0.22 -0.22)">
       <use xlink:href="#DejaVuSans-30"/>
      </g>
     </g>
    </g>
    <g id="ytick_11">
     <g id="text_21">
      <!-- 100 -->
      <g style="fill:#262626;" transform="translate(27.421875 48.082287)scale(0.22 -0.22)">
       <use xlink:href="#DejaVuSans-31"/>
       <use x="63.623047" xlink:href="#DejaVuSans-30"/>
       <use x="127.246094" xlink:href="#DejaVuSans-30"/>
      </g>
     </g>
    </g>
   </g>
   <g id="patch_7">
    <path clip-path="url(#p7d73af6701)" d="M 106.858713 92.437143 
L 140.619232 92.437143 
L 140.619232 11.258912 
L 106.858713 11.258912 
z
" style="fill:#96c69a;fill-opacity:0.5;stroke:#ffffff;stroke-linejoin:miter;stroke-width:2;"/>
   </g>
   <g id="patch_8">
    <path clip-path="url(#p7d73af6701)" d="M 140.619232 92.437143 
L 174.379752 92.437143 
L 174.379752 11.258912 
L 140.619232 11.258912 
z
" style="fill:#96c69a;fill-opacity:0.5;stroke:#ffffff;stroke-linejoin:miter;stroke-width:2;"/>
   </g>
   <g id="patch_9">
    <path clip-path="url(#p7d73af6701)" d="M 174.379752 92.437143 
L 208.140271 92.437143 
L 208.140271 11.258912 
L 174.379752 11.258912 
z
" style="fill:#96c69a;fill-opacity:0.5;stroke:#ffffff;stroke-linejoin:miter;stroke-width:2;"/>
   </g>
   <g id="patch_10">
    <path clip-path="url(#p7d73af6701)" d="M 208.140271 92.437143 
L 241.900791 92.437143 
L 241.900791 11.258912 
L 208.140271 11.258912 
z
" style="fill:#96c69a;fill-opacity:0.5;stroke:#ffffff;stroke-linejoin:miter;stroke-width:2;"/>
   </g>
   <g id="patch_11">
    <path clip-path="url(#p7d73af6701)" d="M 241.900791 92.437143 
L 275.66131 92.437143 
L 275.66131 11.786043 
L 241.900791 11.786043 
z
" style="fill:#96c69a;fill-opacity:0.5;stroke:#ffffff;stroke-linejoin:miter;stroke-width:2;"/>
   </g>
   <g id="patch_12">
    <path clip-path="url(#p7d73af6701)" d="M 275.66131 92.437143 
L 309.42183 92.437143 
L 309.42183 11.258912 
L 275.66131 11.258912 
z
" style="fill:#96c69a;fill-opacity:0.5;stroke:#ffffff;stroke-linejoin:miter;stroke-width:2;"/>
   </g>
   <g id="patch_13">
    <path clip-path="url(#p7d73af6701)" d="M 309.42183 92.437143 
L 343.182349 92.437143 
L 343.182349 11.258912 
L 309.42183 11.258912 
z
" style="fill:#96c69a;fill-opacity:0.5;stroke:#ffffff;stroke-linejoin:miter;stroke-width:2;"/>
   </g>
   <g id="patch_14">
    <path clip-path="url(#p7d73af6701)" d="M 343.182349 92.437143 
L 376.942869 92.437143 
L 376.942869 11.258912 
L 343.182349 11.258912 
z
" style="fill:#96c69a;fill-opacity:0.5;stroke:#ffffff;stroke-linejoin:miter;stroke-width:2;"/>
   </g>
   <g id="patch_15">
    <path clip-path="url(#p7d73af6701)" d="M 376.942869 92.437143 
L 410.703388 92.437143 
L 410.703388 11.786043 
L 376.942869 11.786043 
z
" style="fill:#96c69a;fill-opacity:0.5;stroke:#ffffff;stroke-linejoin:miter;stroke-width:2;"/>
   </g>
   <g id="patch_16">
    <path clip-path="url(#p7d73af6701)" d="M 410.703388 92.437143 
L 444.463907 92.437143 
L 444.463907 11.258912 
L 410.703388 11.258912 
z
" style="fill:#96c69a;fill-opacity:0.5;stroke:#ffffff;stroke-linejoin:miter;stroke-width:2;"/>
   </g>
   <g id="patch_17">
    <path clip-path="url(#p7d73af6701)" d="M 444.463907 92.437143 
L 478.224427 92.437143 
L 478.224427 11.258912 
L 444.463907 11.258912 
z
" style="fill:#96c69a;fill-opacity:0.5;stroke:#ffffff;stroke-linejoin:miter;stroke-width:2;"/>
   </g>
   <g id="patch_18">
    <path clip-path="url(#p7d73af6701)" d="M 478.224427 92.437143 
L 511.984946 92.437143 
L 511.984946 11.258912 
L 478.224427 11.258912 
z
" style="fill:#96c69a;fill-opacity:0.5;stroke:#ffffff;stroke-linejoin:miter;stroke-width:2;"/>
   </g>
   <g id="patch_19">
    <path clip-path="url(#p7d73af6701)" d="M 511.984946 92.437143 
L 545.745466 92.437143 
L 545.745466 11.258912 
L 511.984946 11.258912 
z
" style="fill:#96c69a;fill-opacity:0.5;stroke:#ffffff;stroke-linejoin:miter;stroke-width:2;"/>
   </g>
   <g id="patch_20">
    <path d="M 84.914375 92.437143 
L 84.914375 7.2 
" style="fill:none;stroke:#262626;stroke-linecap:square;stroke-linejoin:miter;stroke-width:2.5;"/>
   </g>
   <g id="patch_21">
    <path d="M 84.914375 92.437143 
L 567.689804 92.437143 
" style="fill:none;stroke:#262626;stroke-linecap:square;stroke-linejoin:miter;stroke-width:2.5;"/>
   </g>
  </g>
  <g id="axes_3">
   <g id="patch_22">
    <path d="M 584.337232 603.86 
L 667.574375 603.86 
L 667.574375 109.484571 
L 584.337232 109.484571 
z
" style="fill:none;"/>
   </g>
   <g id="matplotlib.axis_5">
    <g id="xtick_13">
     <g id="text_22">
      <!-- 0 -->
      <g style="fill:#262626;" transform="translate(577.338482 636.076563)scale(0.22 -0.22)">
       <use xlink:href="#DejaVuSans-30"/>
      </g>
     </g>
    </g>
    <g id="xtick_14">
     <g id="text_23">
      <!-- 100 -->
      <g style="fill:#262626;" transform="translate(609.699736 636.076563)scale(0.22 -0.22)">
       <use xlink:href="#DejaVuSans-31"/>
       <use x="63.623047" xlink:href="#DejaVuSans-30"/>
       <use x="127.246094" xlink:href="#DejaVuSans-30"/>
      </g>
     </g>
    </g>
   </g>
   <g id="matplotlib.axis_6">
    <g id="ytick_12"/>
    <g id="ytick_13"/>
    <g id="ytick_14"/>
    <g id="ytick_15"/>
    <g id="ytick_16"/>
    <g id="ytick_17"/>
    <g id="ytick_18"/>
    <g id="ytick_19"/>
    <g id="ytick_20"/>
   </g>
   <g id="patch_23">
    <path clip-path="url(#p31b6c4f69a)" d="M 584.337232 581.38839 
L 584.80082 581.38839 
L 584.80082 568.904162 
L 584.337232 568.904162 
z
" style="fill:#96c69a;fill-opacity:0.5;stroke:#ffffff;stroke-linejoin:miter;stroke-width:1.248423;"/>
   </g>
   <g id="patch_24">
    <path clip-path="url(#p31b6c4f69a)" d="M 584.337232 568.904162 
L 587.118757 568.904162 
L 587.118757 556.419934 
L 584.337232 556.419934 
z
" style="fill:#96c69a;fill-opacity:0.5;stroke:#ffffff;stroke-linejoin:miter;stroke-width:1.248423;"/>
   </g>
   <g id="patch_25">
    <path clip-path="url(#p31b6c4f69a)" d="M 584.337232 556.419934 
L 592.21822 556.419934 
L 592.21822 543.935706 
L 584.337232 543.935706 
z
" style="fill:#96c69a;fill-opacity:0.5;stroke:#ffffff;stroke-linejoin:miter;stroke-width:1.248423;"/>
   </g>
   <g id="patch_26">
    <path clip-path="url(#p31b6c4f69a)" d="M 584.337232 543.935706 
L 600.562796 543.935706 
L 600.562796 531.451478 
L 584.337232 531.451478 
z
" style="fill:#96c69a;fill-opacity:0.5;stroke:#ffffff;stroke-linejoin:miter;stroke-width:1.248423;"/>
   </g>
   <g id="patch_27">
    <path clip-path="url(#p31b6c4f69a)" d="M 584.337232 531.451478 
L 614.470422 531.451478 
L 614.470422 518.96725 
L 584.337232 518.96725 
z
" style="fill:#96c69a;fill-opacity:0.5;stroke:#ffffff;stroke-linejoin:miter;stroke-width:1.248423;"/>
   </g>
   <g id="patch_28">
    <path clip-path="url(#p31b6c4f69a)" d="M 584.337232 518.96725 
L 624.669348 518.96725 
L 624.669348 506.483022 
L 584.337232 506.483022 
z
" style="fill:#96c69a;fill-opacity:0.5;stroke:#ffffff;stroke-linejoin:miter;stroke-width:1.248423;"/>
   </g>
   <g id="patch_29">
    <path clip-path="url(#p31b6c4f69a)" d="M 584.337232 506.483022 
L 646.92155 506.483022 
L 646.92155 493.998794 
L 584.337232 493.998794 
z
" style="fill:#96c69a;fill-opacity:0.5;stroke:#ffffff;stroke-linejoin:miter;stroke-width:1.248423;"/>
   </g>
   <g id="patch_30">
    <path clip-path="url(#p31b6c4f69a)" d="M 584.337232 493.998794 
L 647.848725 493.998794 
L 647.848725 481.514566 
L 584.337232 481.514566 
z
" style="fill:#96c69a;fill-opacity:0.5;stroke:#ffffff;stroke-linejoin:miter;stroke-width:1.248423;"/>
   </g>
   <g id="patch_31">
    <path clip-path="url(#p31b6c4f69a)" d="M 584.337232 481.514566 
L 660.365589 481.514566 
L 660.365589 469.030338 
L 584.337232 469.030338 
z
" style="fill:#96c69a;fill-opacity:0.5;stroke:#ffffff;stroke-linejoin:miter;stroke-width:1.248423;"/>
   </g>
   <g id="patch_32">
    <path clip-path="url(#p31b6c4f69a)" d="M 584.337232 469.030338 
L 663.610702 469.030338 
L 663.610702 456.54611 
L 584.337232 456.54611 
z
" style="fill:#96c69a;fill-opacity:0.5;stroke:#ffffff;stroke-linejoin:miter;stroke-width:1.248423;"/>
   </g>
   <g id="patch_33">
    <path clip-path="url(#p31b6c4f69a)" d="M 584.337232 456.54611 
L 663.147114 456.54611 
L 663.147114 444.061882 
L 584.337232 444.061882 
z
" style="fill:#96c69a;fill-opacity:0.5;stroke:#ffffff;stroke-linejoin:miter;stroke-width:1.248423;"/>
   </g>
   <g id="patch_34">
    <path clip-path="url(#p31b6c4f69a)" d="M 584.337232 444.061882 
L 656.656888 444.061882 
L 656.656888 431.577654 
L 584.337232 431.577654 
z
" style="fill:#96c69a;fill-opacity:0.5;stroke:#ffffff;stroke-linejoin:miter;stroke-width:1.248423;"/>
   </g>
   <g id="patch_35">
    <path clip-path="url(#p31b6c4f69a)" d="M 584.337232 431.577654 
L 657.120476 431.577654 
L 657.120476 419.093426 
L 584.337232 419.093426 
z
" style="fill:#96c69a;fill-opacity:0.5;stroke:#ffffff;stroke-linejoin:miter;stroke-width:1.248423;"/>
   </g>
   <g id="patch_36">
    <path clip-path="url(#p31b6c4f69a)" d="M 584.337232 419.093426 
L 644.603612 419.093426 
L 644.603612 406.609198 
L 584.337232 406.609198 
z
" style="fill:#96c69a;fill-opacity:0.5;stroke:#ffffff;stroke-linejoin:miter;stroke-width:1.248423;"/>
   </g>
   <g id="patch_37">
    <path clip-path="url(#p31b6c4f69a)" d="M 584.337232 406.609198 
L 642.749262 406.609198 
L 642.749262 394.12497 
L 584.337232 394.12497 
z
" style="fill:#96c69a;fill-opacity:0.5;stroke:#ffffff;stroke-linejoin:miter;stroke-width:1.248423;"/>
   </g>
   <g id="patch_38">
    <path clip-path="url(#p31b6c4f69a)" d="M 584.337232 394.12497 
L 625.596523 394.12497 
L 625.596523 381.640742 
L 584.337232 381.640742 
z
" style="fill:#96c69a;fill-opacity:0.5;stroke:#ffffff;stroke-linejoin:miter;stroke-width:1.248423;"/>
   </g>
   <g id="patch_39">
    <path clip-path="url(#p31b6c4f69a)" d="M 584.337232 381.640742 
L 624.205761 381.640742 
L 624.205761 369.156514 
L 584.337232 369.156514 
z
" style="fill:#96c69a;fill-opacity:0.5;stroke:#ffffff;stroke-linejoin:miter;stroke-width:1.248423;"/>
   </g>
   <g id="patch_40">
    <path clip-path="url(#p31b6c4f69a)" d="M 584.337232 369.156514 
L 609.370959 369.156514 
L 609.370959 356.672286 
L 584.337232 356.672286 
z
" style="fill:#96c69a;fill-opacity:0.5;stroke:#ffffff;stroke-linejoin:miter;stroke-width:1.248423;"/>
   </g>
   <g id="patch_41">
    <path clip-path="url(#p31b6c4f69a)" d="M 584.337232 356.672286 
L 604.735084 356.672286 
L 604.735084 344.188058 
L 584.337232 344.188058 
z
" style="fill:#96c69a;fill-opacity:0.5;stroke:#ffffff;stroke-linejoin:miter;stroke-width:1.248423;"/>
   </g>
   <g id="patch_42">
    <path clip-path="url(#p31b6c4f69a)" d="M 584.337232 344.188058 
L 604.735084 344.188058 
L 604.735084 331.70383 
L 584.337232 331.70383 
z
" style="fill:#96c69a;fill-opacity:0.5;stroke:#ffffff;stroke-linejoin:miter;stroke-width:1.248423;"/>
   </g>
   <g id="patch_43">
    <path clip-path="url(#p31b6c4f69a)" d="M 584.337232 331.70383 
L 600.099209 331.70383 
L 600.099209 319.219602 
L 584.337232 319.219602 
z
" style="fill:#96c69a;fill-opacity:0.5;stroke:#ffffff;stroke-linejoin:miter;stroke-width:1.248423;"/>
   </g>
   <g id="patch_44">
    <path clip-path="url(#p31b6c4f69a)" d="M 584.337232 319.219602 
L 597.317683 319.219602 
L 597.317683 306.735374 
L 584.337232 306.735374 
z
" style="fill:#96c69a;fill-opacity:0.5;stroke:#ffffff;stroke-linejoin:miter;stroke-width:1.248423;"/>
   </g>
   <g id="patch_45">
    <path clip-path="url(#p31b6c4f69a)" d="M 584.337232 306.735374 
L 589.900283 306.735374 
L 589.900283 294.251146 
L 584.337232 294.251146 
z
" style="fill:#96c69a;fill-opacity:0.5;stroke:#ffffff;stroke-linejoin:miter;stroke-width:1.248423;"/>
   </g>
   <g id="patch_46">
    <path clip-path="url(#p31b6c4f69a)" d="M 584.337232 294.251146 
L 592.681808 294.251146 
L 592.681808 281.766918 
L 584.337232 281.766918 
z
" style="fill:#96c69a;fill-opacity:0.5;stroke:#ffffff;stroke-linejoin:miter;stroke-width:1.248423;"/>
   </g>
   <g id="patch_47">
    <path clip-path="url(#p31b6c4f69a)" d="M 584.337232 281.766918 
L 589.900283 281.766918 
L 589.900283 269.28269 
L 584.337232 269.28269 
z
" style="fill:#96c69a;fill-opacity:0.5;stroke:#ffffff;stroke-linejoin:miter;stroke-width:1.248423;"/>
   </g>
   <g id="patch_48">
    <path clip-path="url(#p31b6c4f69a)" d="M 584.337232 269.28269 
L 587.582345 269.28269 
L 587.582345 256.798462 
L 584.337232 256.798462 
z
" style="fill:#96c69a;fill-opacity:0.5;stroke:#ffffff;stroke-linejoin:miter;stroke-width:1.248423;"/>
   </g>
   <g id="patch_49">
    <path clip-path="url(#p31b6c4f69a)" d="M 584.337232 256.798462 
L 584.337232 256.798462 
L 584.337232 244.314234 
L 584.337232 244.314234 
z
" style="fill:#96c69a;fill-opacity:0.5;stroke:#ffffff;stroke-linejoin:miter;stroke-width:1.248423;"/>
   </g>
   <g id="patch_50">
    <path clip-path="url(#p31b6c4f69a)" d="M 584.337232 244.314234 
L 587.582345 244.314234 
L 587.582345 231.830006 
L 584.337232 231.830006 
z
" style="fill:#96c69a;fill-opacity:0.5;stroke:#ffffff;stroke-linejoin:miter;stroke-width:1.248423;"/>
   </g>
   <g id="patch_51">
    <path clip-path="url(#p31b6c4f69a)" d="M 584.337232 231.830006 
L 585.727995 231.830006 
L 585.727995 219.345778 
L 584.337232 219.345778 
z
" style="fill:#96c69a;fill-opacity:0.5;stroke:#ffffff;stroke-linejoin:miter;stroke-width:1.248423;"/>
   </g>
   <g id="patch_52">
    <path clip-path="url(#p31b6c4f69a)" d="M 584.337232 219.345778 
L 584.80082 219.345778 
L 584.80082 206.86155 
L 584.337232 206.86155 
z
" style="fill:#96c69a;fill-opacity:0.5;stroke:#ffffff;stroke-linejoin:miter;stroke-width:1.248423;"/>
   </g>
   <g id="patch_53">
    <path clip-path="url(#p31b6c4f69a)" d="M 584.337232 206.86155 
L 584.80082 206.86155 
L 584.80082 194.377322 
L 584.337232 194.377322 
z
" style="fill:#96c69a;fill-opacity:0.5;stroke:#ffffff;stroke-linejoin:miter;stroke-width:1.248423;"/>
   </g>
   <g id="patch_54">
    <path clip-path="url(#p31b6c4f69a)" d="M 584.337232 194.377322 
L 585.264407 194.377322 
L 585.264407 181.893094 
L 584.337232 181.893094 
z
" style="fill:#96c69a;fill-opacity:0.5;stroke:#ffffff;stroke-linejoin:miter;stroke-width:1.248423;"/>
   </g>
   <g id="patch_55">
    <path clip-path="url(#p31b6c4f69a)" d="M 584.337232 181.893094 
L 584.337232 181.893094 
L 584.337232 169.408866 
L 584.337232 169.408866 
z
" style="fill:#96c69a;fill-opacity:0.5;stroke:#ffffff;stroke-linejoin:miter;stroke-width:1.248423;"/>
   </g>
   <g id="patch_56">
    <path clip-path="url(#p31b6c4f69a)" d="M 584.337232 169.408866 
L 584.337232 169.408866 
L 584.337232 156.924638 
L 584.337232 156.924638 
z
" style="fill:#96c69a;fill-opacity:0.5;stroke:#ffffff;stroke-linejoin:miter;stroke-width:1.248423;"/>
   </g>
   <g id="patch_57">
    <path clip-path="url(#p31b6c4f69a)" d="M 584.337232 156.924638 
L 584.337232 156.924638 
L 584.337232 144.44041 
L 584.337232 144.44041 
z
" style="fill:#96c69a;fill-opacity:0.5;stroke:#ffffff;stroke-linejoin:miter;stroke-width:1.248423;"/>
   </g>
   <g id="patch_58">
    <path clip-path="url(#p31b6c4f69a)" d="M 584.337232 144.44041 
L 584.80082 144.44041 
L 584.80082 131.956182 
L 584.337232 131.956182 
z
" style="fill:#96c69a;fill-opacity:0.5;stroke:#ffffff;stroke-linejoin:miter;stroke-width:1.248423;"/>
   </g>
   <g id="patch_59">
    <path d="M 584.337232 603.86 
L 584.337232 109.484571 
" style="fill:none;stroke:#262626;stroke-linecap:square;stroke-linejoin:miter;stroke-width:2.5;"/>
   </g>
   <g id="patch_60">
    <path d="M 584.337232 603.86 
L 667.574375 603.86 
" style="fill:none;stroke:#262626;stroke-linecap:square;stroke-linejoin:miter;stroke-width:2.5;"/>
   </g>
  </g>
 </g>
 <defs>
  <clipPath id="p219f8bb831">
   <rect height="494.375429" width="482.775429" x="84.914375" y="109.484571"/>
  </clipPath>
  <clipPath id="p7d73af6701">
   <rect height="85.237143" width="482.775429" x="84.914375" y="7.2"/>
  </clipPath>
  <clipPath id="p31b6c4f69a">
   <rect height="494.375429" width="83.237143" x="584.337232" y="109.484571"/>
  </clipPath>
 </defs>
</svg>
