<?xml version="1.0" encoding="utf-8" standalone="no"?>
<!DOCTYPE svg PUBLIC "-//W3C//DTD SVG 1.1//EN"
  "http://www.w3.org/Graphics/SVG/1.1/DTD/svg11.dtd">
<svg height="675.079375pt" version="1.1" viewBox="0 0 674.774375 675.079375" width="674.774375pt" xmlns="http://www.w3.org/2000/svg" xmlns:xlink="http://www.w3.org/1999/xlink">
 <metadata>
  <rdf:RDF xmlns:cc="http://creativecommons.org/ns#" xmlns:dc="http://purl.org/dc/elements/1.1/" xmlns:rdf="http://www.w3.org/1999/02/22-rdf-syntax-ns#">
   <cc:Work>
    <dc:type rdf:resource="http://purl.org/dc/dcmitype/StillImage"/>
    <dc:date>2021-07-16T21:43:58.763035</dc:date>
    <dc:format>image/svg+xml</dc:format>
    <dc:creator>
     <cc:Agent>
      <dc:title>Matplotlib v3.4.2, https://matplotlib.org/</dc:title>
     </cc:Agent>
    </dc:creator>
   </cc:Work>
  </rdf:RDF>
 </metadata>
 <defs>
  <style type="text/css">*{stroke-linecap:butt;stroke-linejoin:round;}</style>
 </defs>
 <g id="figure_1">
  <g id="patch_1">
   <path d="M 0 675.079375 
L 674.774375 675.079375 
L 674.774375 0 
L 0 0 
z
" style="fill:#ffffff;"/>
  </g>
  <g id="axes_1">
   <g id="patch_2">
    <path d="M 84.914375 603.86 
L 567.689804 603.86 
L 567.689804 109.484571 
L 84.914375 109.484571 
z
" style="fill:none;"/>
   </g>
   <g id="matplotlib.axis_1">
    <g id="xtick_1">
     <g id="text_1">
      <!-- 0 -->
      <g style="fill:#262626;" transform="translate(99.64041 636.076563)scale(0.22 -0.22)">
       <defs>
        <path d="M 2034 4250 
Q 1547 4250 1301 3770 
Q 1056 3291 1056 2328 
Q 1056 1369 1301 889 
Q 1547 409 2034 409 
Q 2525 409 2770 889 
Q 3016 1369 3016 2328 
Q 3016 3291 2770 3770 
Q 2525 4250 2034 4250 
z
M 2034 4750 
Q 2819 4750 3233 4129 
Q 3647 3509 3647 2328 
Q 3647 1150 3233 529 
Q 2819 -91 2034 -91 
Q 1250 -91 836 529 
Q 422 1150 422 2328 
Q 422 3509 836 4129 
Q 1250 4750 2034 4750 
z
" id="DejaVuSans-30" transform="scale(0.015625)"/>
       </defs>
       <use xlink:href="#DejaVuSans-30"/>
      </g>
     </g>
    </g>
    <g id="xtick_2">
     <g id="text_2">
      <!-- 20000 -->
      <g style="fill:#262626;" transform="translate(159.466671 636.076563)scale(0.22 -0.22)">
       <defs>
        <path d="M 1228 531 
L 3431 531 
L 3431 0 
L 469 0 
L 469 531 
Q 828 903 1448 1529 
Q 2069 2156 2228 2338 
Q 2531 2678 2651 2914 
Q 2772 3150 2772 3378 
Q 2772 3750 2511 3984 
Q 2250 4219 1831 4219 
Q 1534 4219 1204 4116 
Q 875 4013 500 3803 
L 500 4441 
Q 881 4594 1212 4672 
Q 1544 4750 1819 4750 
Q 2544 4750 2975 4387 
Q 3406 4025 3406 3419 
Q 3406 3131 3298 2873 
Q 3191 2616 2906 2266 
Q 2828 2175 2409 1742 
Q 1991 1309 1228 531 
z
" id="DejaVuSans-32" transform="scale(0.015625)"/>
       </defs>
       <use xlink:href="#DejaVuSans-32"/>
       <use x="63.623047" xlink:href="#DejaVuSans-30"/>
       <use x="127.246094" xlink:href="#DejaVuSans-30"/>
       <use x="190.869141" xlink:href="#DejaVuSans-30"/>
       <use x="254.492188" xlink:href="#DejaVuSans-30"/>
      </g>
     </g>
    </g>
    <g id="xtick_3">
     <g id="text_3">
      <!-- 40000 -->
      <g style="fill:#262626;" transform="translate(247.287932 636.076563)scale(0.22 -0.22)">
       <defs>
        <path d="M 2419 4116 
L 825 1625 
L 2419 1625 
L 2419 4116 
z
M 2253 4666 
L 3047 4666 
L 3047 1625 
L 3713 1625 
L 3713 1100 
L 3047 1100 
L 3047 0 
L 2419 0 
L 2419 1100 
L 313 1100 
L 313 1709 
L 2253 4666 
z
" id="DejaVuSans-34" transform="scale(0.015625)"/>
       </defs>
       <use xlink:href="#DejaVuSans-34"/>
       <use x="63.623047" xlink:href="#DejaVuSans-30"/>
       <use x="127.246094" xlink:href="#DejaVuSans-30"/>
       <use x="190.869141" xlink:href="#DejaVuSans-30"/>
       <use x="254.492188" xlink:href="#DejaVuSans-30"/>
      </g>
     </g>
    </g>
    <g id="xtick_4">
     <g id="text_4">
      <!-- 60000 -->
      <g style="fill:#262626;" transform="translate(335.109193 636.076563)scale(0.22 -0.22)">
       <defs>
        <path d="M 2113 2584 
Q 1688 2584 1439 2293 
Q 1191 2003 1191 1497 
Q 1191 994 1439 701 
Q 1688 409 2113 409 
Q 2538 409 2786 701 
Q 3034 994 3034 1497 
Q 3034 2003 2786 2293 
Q 2538 2584 2113 2584 
z
M 3366 4563 
L 3366 3988 
Q 3128 4100 2886 4159 
Q 2644 4219 2406 4219 
Q 1781 4219 1451 3797 
Q 1122 3375 1075 2522 
Q 1259 2794 1537 2939 
Q 1816 3084 2150 3084 
Q 2853 3084 3261 2657 
Q 3669 2231 3669 1497 
Q 3669 778 3244 343 
Q 2819 -91 2113 -91 
Q 1303 -91 875 529 
Q 447 1150 447 2328 
Q 447 3434 972 4092 
Q 1497 4750 2381 4750 
Q 2619 4750 2861 4703 
Q 3103 4656 3366 4563 
z
" id="DejaVuSans-36" transform="scale(0.015625)"/>
       </defs>
       <use xlink:href="#DejaVuSans-36"/>
       <use x="63.623047" xlink:href="#DejaVuSans-30"/>
       <use x="127.246094" xlink:href="#DejaVuSans-30"/>
       <use x="190.869141" xlink:href="#DejaVuSans-30"/>
       <use x="254.492188" xlink:href="#DejaVuSans-30"/>
      </g>
     </g>
    </g>
    <g id="xtick_5">
     <g id="text_5">
      <!-- 80000 -->
      <g style="fill:#262626;" transform="translate(422.930455 636.076563)scale(0.22 -0.22)">
       <defs>
        <path d="M 2034 2216 
Q 1584 2216 1326 1975 
Q 1069 1734 1069 1313 
Q 1069 891 1326 650 
Q 1584 409 2034 409 
Q 2484 409 2743 651 
Q 3003 894 3003 1313 
Q 3003 1734 2745 1975 
Q 2488 2216 2034 2216 
z
M 1403 2484 
Q 997 2584 770 2862 
Q 544 3141 544 3541 
Q 544 4100 942 4425 
Q 1341 4750 2034 4750 
Q 2731 4750 3128 4425 
Q 3525 4100 3525 3541 
Q 3525 3141 3298 2862 
Q 3072 2584 2669 2484 
Q 3125 2378 3379 2068 
Q 3634 1759 3634 1313 
Q 3634 634 3220 271 
Q 2806 -91 2034 -91 
Q 1263 -91 848 271 
Q 434 634 434 1313 
Q 434 1759 690 2068 
Q 947 2378 1403 2484 
z
M 1172 3481 
Q 1172 3119 1398 2916 
Q 1625 2713 2034 2713 
Q 2441 2713 2670 2916 
Q 2900 3119 2900 3481 
Q 2900 3844 2670 4047 
Q 2441 4250 2034 4250 
Q 1625 4250 1398 4047 
Q 1172 3844 1172 3481 
z
" id="DejaVuSans-38" transform="scale(0.015625)"/>
       </defs>
       <use xlink:href="#DejaVuSans-38"/>
       <use x="63.623047" xlink:href="#DejaVuSans-30"/>
       <use x="127.246094" xlink:href="#DejaVuSans-30"/>
       <use x="190.869141" xlink:href="#DejaVuSans-30"/>
       <use x="254.492188" xlink:href="#DejaVuSans-30"/>
      </g>
     </g>
    </g>
    <g id="xtick_6">
     <g id="text_6">
      <!-- 100000 -->
      <g style="fill:#262626;" transform="translate(503.752966 636.076563)scale(0.22 -0.22)">
       <defs>
        <path d="M 794 531 
L 1825 531 
L 1825 4091 
L 703 3866 
L 703 4441 
L 1819 4666 
L 2450 4666 
L 2450 531 
L 3481 531 
L 3481 0 
L 794 0 
L 794 531 
z
" id="DejaVuSans-31" transform="scale(0.015625)"/>
       </defs>
       <use xlink:href="#DejaVuSans-31"/>
       <use x="63.623047" xlink:href="#DejaVuSans-30"/>
       <use x="127.246094" xlink:href="#DejaVuSans-30"/>
       <use x="190.869141" xlink:href="#DejaVuSans-30"/>
       <use x="254.492188" xlink:href="#DejaVuSans-30"/>
       <use x="318.115234" xlink:href="#DejaVuSans-30"/>
      </g>
     </g>
    </g>
    <g id="text_7">
     <!-- MDTU -->
     <g style="fill:#262626;" transform="translate(290.596464 662.888125)scale(0.24 -0.24)">
      <defs>
       <path d="M 628 4666 
L 1569 4666 
L 2759 1491 
L 3956 4666 
L 4897 4666 
L 4897 0 
L 4281 0 
L 4281 4097 
L 3078 897 
L 2444 897 
L 1241 4097 
L 1241 0 
L 628 0 
L 628 4666 
z
" id="DejaVuSans-4d" transform="scale(0.015625)"/>
       <path d="M 1259 4147 
L 1259 519 
L 2022 519 
Q 2988 519 3436 956 
Q 3884 1394 3884 2338 
Q 3884 3275 3436 3711 
Q 2988 4147 2022 4147 
L 1259 4147 
z
M 628 4666 
L 1925 4666 
Q 3281 4666 3915 4102 
Q 4550 3538 4550 2338 
Q 4550 1131 3912 565 
Q 3275 0 1925 0 
L 628 0 
L 628 4666 
z
" id="DejaVuSans-44" transform="scale(0.015625)"/>
       <path d="M -19 4666 
L 3928 4666 
L 3928 4134 
L 2272 4134 
L 2272 0 
L 1638 0 
L 1638 4134 
L -19 4134 
L -19 4666 
z
" id="DejaVuSans-54" transform="scale(0.015625)"/>
       <path d="M 556 4666 
L 1191 4666 
L 1191 1831 
Q 1191 1081 1462 751 
Q 1734 422 2344 422 
Q 2950 422 3222 751 
Q 3494 1081 3494 1831 
L 3494 4666 
L 4128 4666 
L 4128 1753 
Q 4128 841 3676 375 
Q 3225 -91 2344 -91 
Q 1459 -91 1007 375 
Q 556 841 556 1753 
L 556 4666 
z
" id="DejaVuSans-55" transform="scale(0.015625)"/>
      </defs>
      <use xlink:href="#DejaVuSans-4d"/>
      <use x="86.279297" xlink:href="#DejaVuSans-44"/>
      <use x="163.28125" xlink:href="#DejaVuSans-54"/>
      <use x="224.365234" xlink:href="#DejaVuSans-55"/>
     </g>
    </g>
   </g>
   <g id="matplotlib.axis_2">
    <g id="ytick_1">
     <g id="text_8">
      <!-- 0.4 -->
      <g style="fill:#262626;" transform="translate(34.4275 572.734602)scale(0.22 -0.22)">
       <defs>
        <path d="M 684 794 
L 1344 794 
L 1344 0 
L 684 0 
L 684 794 
z
" id="DejaVuSans-2e" transform="scale(0.015625)"/>
       </defs>
       <use xlink:href="#DejaVuSans-30"/>
       <use x="63.623047" xlink:href="#DejaVuSans-2e"/>
       <use x="95.410156" xlink:href="#DejaVuSans-34"/>
      </g>
     </g>
    </g>
    <g id="ytick_2">
     <g id="text_9">
      <!-- 0.6 -->
      <g style="fill:#262626;" transform="translate(34.4275 517.553129)scale(0.22 -0.22)">
       <use xlink:href="#DejaVuSans-30"/>
       <use x="63.623047" xlink:href="#DejaVuSans-2e"/>
       <use x="95.410156" xlink:href="#DejaVuSans-36"/>
      </g>
     </g>
    </g>
    <g id="ytick_3">
     <g id="text_10">
      <!-- 0.8 -->
      <g style="fill:#262626;" transform="translate(34.4275 462.371656)scale(0.22 -0.22)">
       <use xlink:href="#DejaVuSans-30"/>
       <use x="63.623047" xlink:href="#DejaVuSans-2e"/>
       <use x="95.410156" xlink:href="#DejaVuSans-38"/>
      </g>
     </g>
    </g>
    <g id="ytick_4">
     <g id="text_11">
      <!-- 1.0 -->
      <g style="fill:#262626;" transform="translate(34.4275 407.190183)scale(0.22 -0.22)">
       <use xlink:href="#DejaVuSans-31"/>
       <use x="63.623047" xlink:href="#DejaVuSans-2e"/>
       <use x="95.410156" xlink:href="#DejaVuSans-30"/>
      </g>
     </g>
    </g>
    <g id="ytick_5">
     <g id="text_12">
      <!-- 1.2 -->
      <g style="fill:#262626;" transform="translate(34.4275 352.00871)scale(0.22 -0.22)">
       <use xlink:href="#DejaVuSans-31"/>
       <use x="63.623047" xlink:href="#DejaVuSans-2e"/>
       <use x="95.410156" xlink:href="#DejaVuSans-32"/>
      </g>
     </g>
    </g>
    <g id="ytick_6">
     <g id="text_13">
      <!-- 1.4 -->
      <g style="fill:#262626;" transform="translate(34.4275 296.827237)scale(0.22 -0.22)">
       <use xlink:href="#DejaVuSans-31"/>
       <use x="63.623047" xlink:href="#DejaVuSans-2e"/>
       <use x="95.410156" xlink:href="#DejaVuSans-34"/>
      </g>
     </g>
    </g>
    <g id="ytick_7">
     <g id="text_14">
      <!-- 1.6 -->
      <g style="fill:#262626;" transform="translate(34.4275 241.645764)scale(0.22 -0.22)">
       <use xlink:href="#DejaVuSans-31"/>
       <use x="63.623047" xlink:href="#DejaVuSans-2e"/>
       <use x="95.410156" xlink:href="#DejaVuSans-36"/>
      </g>
     </g>
    </g>
    <g id="ytick_8">
     <g id="text_15">
      <!-- 1.8 -->
      <g style="fill:#262626;" transform="translate(34.4275 186.464291)scale(0.22 -0.22)">
       <use xlink:href="#DejaVuSans-31"/>
       <use x="63.623047" xlink:href="#DejaVuSans-2e"/>
       <use x="95.410156" xlink:href="#DejaVuSans-38"/>
      </g>
     </g>
    </g>
    <g id="ytick_9">
     <g id="text_16">
      <!-- 2.0 -->
      <g style="fill:#262626;" transform="translate(34.4275 131.282818)scale(0.22 -0.22)">
       <use xlink:href="#DejaVuSans-32"/>
       <use x="63.623047" xlink:href="#DejaVuSans-2e"/>
       <use x="95.410156" xlink:href="#DejaVuSans-30"/>
      </g>
     </g>
    </g>
    <g id="text_17">
     <!-- $E$ -->
     <g style="fill:#262626;" transform="translate(25.43625 364.352286)rotate(-90)scale(0.24 -0.24)">
      <defs>
       <path d="M 1081 4666 
L 4031 4666 
L 3928 4134 
L 1606 4134 
L 1338 2753 
L 3566 2753 
L 3463 2222 
L 1234 2222 
L 909 531 
L 3284 531 
L 3181 0 
L 172 0 
L 1081 4666 
z
" id="DejaVuSans-Oblique-45" transform="scale(0.015625)"/>
      </defs>
      <use transform="translate(0 0.09375)" xlink:href="#DejaVuSans-Oblique-45"/>
     </g>
    </g>
   </g>
   <g id="line2d_1">
    <path clip-path="url(#p415eb4e79a)" d="M 106.858713 420.165065 
L 107.078266 315.023151 
L 107.297819 510.381489 
L 107.517372 505.175342 
L 107.736925 530.203781 
L 107.956478 526.560038 
L 108.176032 421.706013 
L 108.395585 467.490423 
L 108.615138 476.438484 
L 108.834691 529.733676 
L 109.054244 507.08263 
L 109.273797 431.821146 
L 109.493351 463.283778 
L 109.712904 387.562949 
L 109.932457 463.016676 
L 110.15201 432.016883 
L 110.371563 436.345297 
L 110.591116 559.906471 
L 110.810669 509.719643 
L 111.030223 363.751248 
L 111.249776 457.930615 
L 111.469329 410.573169 
L 111.688882 418.386074 
L 111.908435 448.078426 
L 112.127988 428.963808 
L 112.347541 508.957821 
L 112.786648 388.635389 
L 113.006201 247.555419 
L 113.225754 481.012719 
L 113.445307 467.887573 
L 113.884414 407.953912 
L 114.103967 517.86889 
L 114.32352 532.821817 
L 114.543073 325.96659 
L 114.982179 442.545666 
L 115.421286 485.767022 
L 115.640839 481.852568 
L 115.860392 432.005069 
L 116.079945 462.199486 
L 116.299498 476.229018 
L 116.519051 394.025419 
L 116.958158 472.804738 
L 117.177711 473.069604 
L 117.397264 499.972881 
L 117.616817 484.035956 
L 117.83637 488.314007 
L 118.055923 452.163626 
L 118.275477 499.889961 
L 118.49503 484.747881 
L 118.714583 420.184058 
L 118.934136 495.408723 
L 119.153689 511.71446 
L 119.373242 463.865758 
L 119.592796 530.363856 
L 119.812349 353.218294 
L 120.031902 501.964153 
L 120.251455 548.756288 
L 120.471008 507.923443 
L 120.690561 403.206195 
L 120.910114 464.808004 
L 121.349221 356.951023 
L 121.568774 547.11282 
L 121.788327 470.798192 
L 122.00788 468.535709 
L 122.227433 438.211744 
L 122.446987 520.819087 
L 122.66654 499.035138 
L 122.886093 331.470829 
L 123.105646 500.886192 
L 123.325199 485.694859 
L 123.544752 515.138641 
L 123.764305 520.762702 
L 123.983859 493.661149 
L 124.203412 522.521297 
L 124.422965 473.863588 
L 124.642518 524.015455 
L 124.862071 351.11641 
L 125.081624 439.729009 
L 125.301178 391.101014 
L 125.520731 537.512673 
L 125.740284 409.21044 
L 126.17939 343.620226 
L 126.398943 380.71026 
L 126.618496 473.188601 
L 126.83805 442.763886 
L 127.057603 284.061383 
L 127.277156 511.776864 
L 127.496709 543.928257 
L 127.716262 491.759813 
L 127.935815 522.489188 
L 128.155369 505.850368 
L 128.374922 511.266981 
L 128.594475 311.363408 
L 128.814028 561.146004 
L 129.033581 432.06867 
L 129.253134 385.038312 
L 129.472687 390.070068 
L 129.692241 455.459131 
L 129.911794 361.223336 
L 130.3509 454.551637 
L 130.570453 430.851856 
L 130.790006 426.291078 
L 131.00956 496.180478 
L 131.229113 476.922518 
L 131.448666 494.204698 
L 131.668219 448.111397 
L 131.887772 446.667406 
L 132.107325 518.843656 
L 132.326878 363.220953 
L 132.546432 499.372542 
L 132.765985 472.525093 
L 132.985538 431.653371 
L 133.205091 414.678118 
L 133.424644 309.720472 
L 133.863751 472.185803 
L 134.083304 435.85264 
L 134.52241 493.283694 
L 134.741963 412.795054 
L 134.961516 494.339318 
L 135.181069 433.964324 
L 135.400623 433.594235 
L 135.620176 486.423285 
L 135.839729 426.479854 
L 136.059282 475.161517 
L 136.278835 488.642473 
L 136.498388 515.304187 
L 136.717941 520.561336 
L 137.376601 379.737401 
L 137.815707 498.735414 
L 138.254814 369.859 
L 138.474367 499.952056 
L 138.69392 469.629089 
L 138.913473 372.627474 
L 139.133026 490.097881 
L 139.352579 500.588031 
L 139.572132 393.806109 
L 139.791686 348.730584 
L 140.011239 407.111815 
L 140.230792 411.723437 
L 140.450345 532.508068 
L 140.669898 465.273778 
L 140.889451 497.263797 
L 141.109005 372.240712 
L 141.328558 495.218026 
L 141.548111 534.066134 
L 141.767664 542.168825 
L 141.987217 418.278217 
L 142.20677 400.576531 
L 142.426323 224.1771 
L 142.645877 529.402824 
L 142.86543 509.21581 
L 143.084983 432.614221 
L 143.304536 497.517045 
L 143.524089 405.67213 
L 143.743642 491.930797 
L 143.963196 446.561257 
L 144.182749 450.67202 
L 144.402302 308.178747 
L 144.621855 477.72859 
L 144.841408 493.014183 
L 145.060961 409.309211 
L 145.280514 436.132401 
L 145.500068 419.061395 
L 145.939174 458.219398 
L 146.158727 398.314282 
L 146.37828 490.040953 
L 146.597833 488.832685 
L 146.817387 445.90765 
L 147.03694 329.332356 
L 147.256493 483.025615 
L 147.476046 517.18058 
L 147.695599 339.741135 
L 147.915152 439.823401 
L 148.134705 323.079082 
L 148.354259 396.276133 
L 148.573812 391.490234 
L 148.793365 417.122567 
L 149.232471 243.291162 
L 149.671578 530.550261 
L 149.891131 451.432998 
L 150.110684 463.850887 
L 150.330237 503.339928 
L 150.54979 485.858711 
L 150.769343 391.77726 
L 150.988896 531.601069 
L 151.20845 399.322657 
L 151.428003 425.884571 
L 151.647556 471.98613 
L 151.867109 474.986596 
L 152.306215 434.29237 
L 152.525769 556.33445 
L 152.745322 389.702521 
L 152.964875 506.693516 
L 153.184428 449.744891 
L 153.403981 474.154951 
L 153.623534 361.386055 
L 153.843087 480.940846 
L 154.062641 475.698807 
L 154.282194 369.996823 
L 154.501747 406.994656 
L 154.7213 544.005133 
L 154.940853 296.391707 
L 155.160406 500.559025 
L 155.37996 375.204126 
L 155.599513 366.1851 
L 155.819066 447.492744 
L 156.038619 476.507682 
L 156.258172 224.177516 
L 156.697278 541.483672 
L 156.916832 450.217144 
L 157.136385 439.126154 
L 157.575491 537.863617 
L 157.795044 374.826191 
L 158.234151 467.527614 
L 158.453704 494.015228 
L 158.673257 437.382772 
L 158.89281 463.61948 
L 159.331916 366.390506 
L 159.551469 501.039537 
L 159.771023 494.125075 
L 159.990576 494.778481 
L 160.210129 443.649396 
L 160.429682 439.980232 
L 160.649235 532.295144 
L 160.868788 470.069037 
L 161.088342 494.4054 
L 161.307895 410.522094 
L 161.747001 485.723816 
L 161.966554 428.28042 
L 162.186107 529.78739 
L 162.625214 427.979325 
L 162.844767 321.569906 
L 163.06432 506.022607 
L 163.283873 526.79756 
L 163.503426 400.491143 
L 163.722979 529.626791 
L 163.942532 202.729284 
L 164.162086 518.541418 
L 164.381639 437.989822 
L 164.601192 474.305779 
L 164.820745 407.081413 
L 165.040298 571.417161 
L 165.479405 388.830231 
L 165.698958 484.376921 
L 165.918511 424.761584 
L 166.138064 511.176992 
L 166.357617 491.762846 
L 166.57717 346.169102 
L 167.016277 491.080158 
L 167.23583 522.090114 
L 167.455383 338.960155 
L 167.674936 418.428567 
L 167.894489 398.294371 
L 168.114042 466.332443 
L 168.333596 426.555155 
L 168.553149 538.053904 
L 168.772702 454.412638 
L 168.992255 492.19896 
L 169.211808 398.068697 
L 169.431361 423.816495 
L 169.650914 465.554692 
L 169.870468 468.971266 
L 170.309574 368.877129 
L 170.529127 417.680202 
L 170.74868 435.357034 
L 170.968233 507.465378 
L 171.187787 529.570971 
L 171.40734 454.563781 
L 171.626893 480.092832 
L 171.846446 412.11036 
L 172.065999 486.398068 
L 172.285552 434.432028 
L 172.505105 513.799739 
L 172.724659 423.115265 
L 172.944212 388.443844 
L 173.163765 488.53994 
L 173.383318 446.467025 
L 173.602871 449.564955 
L 173.822424 431.402159 
L 174.041978 497.885266 
L 174.261531 477.32616 
L 174.481084 399.630191 
L 174.700637 382.664842 
L 174.92019 480.969735 
L 175.359296 367.920996 
L 175.798403 488.0157 
L 176.017956 472.186772 
L 176.237509 477.036662 
L 176.457062 523.143479 
L 176.676615 435.311508 
L 177.115722 528.734902 
L 177.554828 436.918365 
L 177.774381 539.376145 
L 178.213487 270.990171 
L 178.433041 460.445349 
L 178.652594 492.987583 
L 178.872147 504.416942 
L 179.0917 452.427586 
L 179.311253 451.057781 
L 179.530806 503.265372 
L 179.75036 436.31208 
L 179.969913 514.223525 
L 180.189466 511.5561 
L 180.409019 348.146247 
L 180.628572 491.273064 
L 180.848125 360.385314 
L 181.067678 374.464116 
L 181.506785 527.69318 
L 181.726338 416.812147 
L 181.945891 521.212955 
L 182.165444 340.278649 
L 182.384997 309.559302 
L 182.824104 496.245347 
L 183.043657 416.641344 
L 183.26321 490.239993 
L 183.482763 258.230286 
L 183.702316 465.390819 
L 183.921869 418.014064 
L 184.141423 395.579259 
L 184.360976 439.72801 
L 184.580529 529.397345 
L 185.019635 386.649737 
L 185.239188 405.205384 
L 185.458742 405.619146 
L 185.678295 493.923787 
L 185.897848 482.401359 
L 186.117401 462.604579 
L 186.77606 447.846735 
L 186.995614 532.914031 
L 187.215167 516.505073 
L 187.654273 400.604331 
L 187.873826 473.231165 
L 188.093379 487.822718 
L 188.312932 479.184326 
L 188.532486 502.597286 
L 188.752039 378.202158 
L 188.971592 489.484733 
L 189.191145 434.735665 
L 189.410698 489.280918 
L 189.630251 508.868231 
L 190.069358 368.702326 
L 190.288911 496.306836 
L 190.508464 497.568207 
L 190.728017 367.052327 
L 190.94757 510.567389 
L 191.386677 538.615967 
L 191.60623 366.693854 
L 191.825783 368.113381 
L 192.045336 327.61188 
L 192.264889 513.888027 
L 192.484442 513.823393 
L 192.703996 508.886006 
L 192.923549 360.57488 
L 193.143102 353.841683 
L 193.801761 534.781577 
L 194.021314 507.789007 
L 194.240868 220.595003 
L 194.460421 443.482759 
L 194.679974 491.639992 
L 194.899527 451.533056 
L 195.11908 439.074744 
L 195.338633 507.910407 
L 195.558187 455.149345 
L 195.77774 444.966904 
L 195.997293 481.102243 
L 196.436399 320.986167 
L 196.655952 554.772211 
L 196.875505 341.216093 
L 197.095059 516.557344 
L 197.314612 417.28501 
L 197.534165 541.657087 
L 197.753718 555.911849 
L 197.973271 422.594397 
L 198.192824 171.568447 
L 198.412378 396.042282 
L 198.631931 503.480084 
L 198.851484 447.165426 
L 199.071037 420.868608 
L 199.510143 574.264448 
L 199.729696 455.036636 
L 200.168803 551.777793 
L 200.388356 449.811939 
L 200.607909 548.495502 
L 200.827462 245.858854 
L 201.047015 486.662332 
L 201.266569 298.356602 
L 201.486122 469.980862 
L 201.705675 530.820935 
L 201.925228 460.122022 
L 202.144781 531.937095 
L 202.364334 450.04717 
L 202.583887 481.499842 
L 202.803441 447.618124 
L 203.022994 498.407393 
L 203.242547 510.479518 
L 203.4621 460.477538 
L 203.901206 478.966864 
L 204.12076 436.716442 
L 204.340313 524.172756 
L 204.559866 426.80331 
L 204.779419 524.952386 
L 204.998972 441.158787 
L 205.438078 514.702739 
L 205.657632 503.907257 
L 205.877185 505.913671 
L 206.096738 499.101451 
L 206.316291 391.381818 
L 206.535844 443.378564 
L 206.755397 425.418944 
L 206.974951 489.914179 
L 207.194504 466.03954 
L 207.414057 429.769721 
L 207.63361 359.98749 
L 207.853163 433.668777 
L 208.072716 462.490447 
L 208.292269 390.123225 
L 208.511823 360.409652 
L 208.731376 385.007021 
L 208.950929 489.523842 
L 209.170482 372.821958 
L 209.390035 341.057234 
L 209.829142 471.794097 
L 210.048695 466.195268 
L 210.268248 558.720185 
L 210.487801 479.756058 
L 210.707354 542.673529 
L 210.926907 341.928249 
L 211.14646 506.480102 
L 211.366014 469.752204 
L 211.585567 458.626491 
L 211.80512 483.40129 
L 212.244226 401.030718 
L 212.683333 495.122056 
L 212.902886 498.941921 
L 213.122439 508.563347 
L 213.341992 508.095193 
L 213.561545 449.910924 
L 213.781098 490.320449 
L 214.000651 463.439421 
L 214.220205 464.674681 
L 214.439758 496.944974 
L 214.659311 425.101785 
L 214.878864 493.350756 
L 215.31797 387.766859 
L 215.537523 414.306126 
L 215.757077 473.041652 
L 215.97663 487.543452 
L 216.196183 486.813709 
L 216.415736 526.431326 
L 216.635289 423.021985 
L 216.854842 526.771203 
L 217.293949 489.588736 
L 217.513502 493.901708 
L 217.733055 443.491321 
L 217.952608 360.004417 
L 218.172161 418.951481 
L 218.391714 391.3498 
L 218.611268 502.165709 
L 219.269927 415.002464 
L 219.48948 535.779183 
L 219.709033 363.07407 
L 219.928587 493.592535 
L 220.14814 330.117474 
L 220.367693 442.553135 
L 220.587246 380.985327 
L 220.806799 502.635799 
L 221.026352 434.104163 
L 221.245905 329.17301 
L 221.685012 462.395113 
L 221.904565 435.258523 
L 222.124118 464.894297 
L 222.343671 142.571489 
L 222.563224 517.026043 
L 222.782778 543.44097 
L 223.002331 494.960956 
L 223.221884 531.959078 
L 223.441437 347.261914 
L 223.66099 457.384272 
L 223.880543 475.867735 
L 224.100096 370.360073 
L 224.31965 500.77009 
L 224.539203 461.998738 
L 224.758756 492.524471 
L 224.978309 499.574951 
L 225.197862 523.148866 
L 225.417415 475.337626 
L 225.636969 533.905627 
L 225.856522 428.18175 
L 226.295628 509.459467 
L 226.515181 508.019125 
L 226.734734 430.273222 
L 226.954287 410.67215 
L 227.173841 479.858418 
L 227.612947 459.17167 
L 227.8325 434.209598 
L 228.052053 489.007269 
L 228.49116 453.408965 
L 228.710713 326.156573 
L 228.930266 513.865572 
L 229.149819 446.607548 
L 229.369372 460.125714 
L 229.808478 385.144884 
L 230.028032 487.086203 
L 230.247585 461.784719 
L 230.467138 503.46143 
L 230.686691 454.862407 
L 230.906244 477.370572 
L 231.125797 533.804676 
L 231.345351 488.325821 
L 231.564904 483.602971 
L 231.784457 500.636621 
L 232.00401 480.212034 
L 232.443116 499.830968 
L 232.662669 426.399256 
L 232.882223 404.966174 
L 233.101776 350.681181 
L 233.321329 464.948186 
L 233.540882 434.680453 
L 233.760435 511.562246 
L 233.979988 515.494439 
L 234.199542 506.961219 
L 234.419095 539.708636 
L 234.638648 515.804788 
L 234.858201 423.941207 
L 235.077754 486.280245 
L 235.297307 507.407569 
L 235.51686 483.520523 
L 235.736414 481.959821 
L 236.17552 382.017726 
L 236.395073 447.626846 
L 236.614626 459.333069 
L 236.834179 504.696322 
L 237.053733 376.768666 
L 237.273286 512.169055 
L 237.492839 519.30885 
L 237.712392 430.282287 
L 237.931945 460.26091 
L 238.151498 521.208839 
L 238.371051 431.481473 
L 238.590605 478.059402 
L 238.810158 416.84473 
L 239.029711 389.476774 
L 239.249264 424.075515 
L 239.468817 430.924287 
L 239.68837 569.511149 
L 239.907924 468.319643 
L 240.127477 465.009041 
L 240.34703 387.895424 
L 240.566583 473.395209 
L 240.786136 467.912429 
L 241.005689 549.300337 
L 241.225242 440.238488 
L 241.444796 403.322142 
L 241.664349 450.84644 
L 242.103455 469.39761 
L 242.323008 548.108683 
L 242.542561 476.397006 
L 242.762114 490.623855 
L 242.981668 518.840226 
L 243.201221 473.093497 
L 243.420774 530.589191 
L 243.640327 384.515707 
L 243.85988 471.31285 
L 244.298987 510.458913 
L 244.51854 571.471479 
L 244.957646 414.088487 
L 245.177199 341.946656 
L 245.396752 452.992516 
L 245.616305 411.898919 
L 245.835859 483.767028 
L 246.055412 448.79099 
L 246.274965 467.930673 
L 246.494518 526.182847 
L 246.714071 292.90338 
L 246.933624 421.509341 
L 247.153178 478.614647 
L 247.372731 421.196532 
L 247.592284 505.212085 
L 247.811837 450.274352 
L 248.03139 545.957072 
L 248.250943 427.6668 
L 248.470496 410.256741 
L 248.69005 506.692354 
L 248.909603 363.87738 
L 249.129156 512.017301 
L 249.348709 444.790181 
L 249.568262 412.601968 
L 249.787815 506.347531 
L 250.226922 447.295953 
L 250.446475 387.736224 
L 250.666028 496.492043 
L 250.885581 526.458373 
L 251.105134 171.044057 
L 251.544241 478.899869 
L 251.763794 472.100089 
L 251.983347 458.786531 
L 252.2029 471.19949 
L 252.422453 541.003769 
L 252.642006 524.85085 
L 252.86156 543.129025 
L 253.081113 482.779645 
L 253.300666 385.11645 
L 253.520219 532.876337 
L 253.739772 495.047078 
L 253.959325 495.237153 
L 254.178878 537.366274 
L 254.398432 483.088681 
L 254.617985 479.724511 
L 254.837538 500.498091 
L 255.276644 421.541317 
L 255.496197 461.433008 
L 255.715751 478.475499 
L 255.935304 418.072306 
L 256.154857 413.638067 
L 256.37441 480.094186 
L 256.813516 420.106908 
L 257.033069 508.944143 
L 257.252623 503.688653 
L 257.472176 441.876073 
L 257.691729 456.770425 
L 257.911282 421.8215 
L 258.130835 407.581036 
L 258.350388 430.261488 
L 258.569942 480.800638 
L 258.789495 414.432029 
L 259.009048 456.284881 
L 259.228601 429.239392 
L 259.448154 497.460397 
L 259.667707 233.209764 
L 259.88726 545.953264 
L 260.106814 448.483347 
L 260.54592 554.724727 
L 260.765473 448.522993 
L 261.204579 513.570838 
L 261.424133 405.124152 
L 261.643686 486.304039 
L 261.863239 490.18975 
L 262.302345 398.730711 
L 262.521898 488.016304 
L 262.741451 371.948512 
L 262.961005 459.784669 
L 263.180558 376.092445 
L 263.400111 535.610633 
L 263.619664 381.080822 
L 263.839217 487.005455 
L 264.05877 480.166817 
L 264.278324 492.143843 
L 264.497877 481.306951 
L 264.71743 494.466766 
L 264.936983 444.753761 
L 265.156536 448.212915 
L 265.376089 473.83283 
L 265.595642 418.487359 
L 265.815196 477.997436 
L 266.034749 423.150864 
L 266.254302 510.193818 
L 266.473855 383.194917 
L 266.693408 569.866824 
L 266.912961 471.063433 
L 267.132514 495.238391 
L 267.352068 410.528924 
L 267.571621 515.855808 
L 267.791174 330.856212 
L 268.010727 465.438205 
L 268.449833 388.938912 
L 268.669387 558.470482 
L 268.88894 448.679081 
L 269.108493 425.356469 
L 269.328046 251.279569 
L 269.547599 399.083212 
L 269.767152 471.042773 
L 269.986705 439.308912 
L 270.206259 389.102274 
L 270.425812 383.582066 
L 270.645365 411.776003 
L 270.864918 473.767738 
L 271.084471 406.967334 
L 271.304024 542.674393 
L 271.523578 338.995435 
L 271.743131 403.32036 
L 271.962684 544.700102 
L 272.182237 484.389167 
L 272.40179 457.844706 
L 272.621343 401.622221 
L 272.840896 556.236077 
L 273.06045 439.458508 
L 273.280003 503.877449 
L 273.499556 432.087425 
L 273.719109 400.262888 
L 273.938662 527.329199 
L 274.158215 357.914906 
L 274.377769 489.587392 
L 274.597322 456.674856 
L 274.816875 368.62488 
L 275.036428 551.766782 
L 275.255981 392.741065 
L 275.475534 483.167554 
L 275.695087 363.275429 
L 275.914641 343.634546 
L 276.134194 415.729903 
L 276.353747 528.05783 
L 276.5733 457.90755 
L 276.792853 467.273508 
L 277.012406 263.96619 
L 277.23196 536.167169 
L 277.451513 427.451459 
L 277.671066 457.103961 
L 277.890619 521.469364 
L 278.110172 390.286515 
L 278.329725 327.041366 
L 278.549278 496.452549 
L 278.768832 478.135277 
L 278.988385 428.977443 
L 279.207938 435.504499 
L 279.427491 484.756387 
L 279.647044 431.108819 
L 279.866597 470.99349 
L 280.086151 270.299539 
L 280.305704 516.617944 
L 280.525257 532.054532 
L 280.74481 350.687099 
L 280.964363 393.342007 
L 281.183916 371.746677 
L 281.403469 509.315472 
L 281.842576 329.272805 
L 282.062129 423.01308 
L 282.501235 334.126558 
L 282.720788 348.398807 
L 282.940342 477.893521 
L 283.159895 417.045127 
L 283.379448 510.712727 
L 283.599001 500.386986 
L 283.818554 424.125442 
L 284.038107 504.223123 
L 284.25766 440.122291 
L 284.477214 508.866031 
L 284.91632 430.408869 
L 285.135873 489.620187 
L 285.355426 507.073472 
L 285.574979 551.65345 
L 285.794533 491.174094 
L 286.233639 438.534204 
L 286.453192 348.574539 
L 286.672745 370.553534 
L 286.892298 471.351621 
L 287.111851 433.469233 
L 287.331405 471.244398 
L 287.550958 471.054319 
L 287.770511 449.958985 
L 287.990064 392.238403 
L 288.209617 520.698789 
L 288.42917 509.732571 
L 288.648724 447.458795 
L 288.868277 480.482436 
L 289.08783 446.455966 
L 289.307383 452.061623 
L 289.526936 390.391457 
L 289.966042 437.076804 
L 290.185596 382.914275 
L 290.405149 476.517281 
L 290.624702 453.956027 
L 290.844255 384.231534 
L 291.063808 403.728067 
L 291.283361 231.610966 
L 291.502915 502.099915 
L 291.722468 340.806414 
L 292.161574 407.659593 
L 292.381127 511.329409 
L 292.60068 530.219799 
L 292.820233 521.414571 
L 293.25934 487.283368 
L 293.478893 516.411711 
L 293.917999 384.37635 
L 294.137552 376.556072 
L 294.357105 447.603337 
L 294.576659 463.607023 
L 294.796212 406.644064 
L 295.015765 452.782928 
L 295.235318 466.86056 
L 295.454871 472.4871 
L 295.674424 537.208547 
L 295.893978 484.05524 
L 296.113531 487.209212 
L 296.333084 422.553054 
L 296.77219 519.736666 
L 296.991743 477.710444 
L 297.211296 315.79926 
L 297.43085 520.526027 
L 297.869956 372.385327 
L 298.089509 438.935959 
L 298.309062 347.447643 
L 298.528615 505.285888 
L 298.748169 435.7695 
L 298.967722 430.523054 
L 299.187275 485.157263 
L 299.406828 381.341818 
L 299.626381 466.825525 
L 299.845934 381.142542 
L 300.065487 416.219501 
L 300.285041 368.932733 
L 300.724147 514.449507 
L 300.9437 542.563045 
L 301.163253 412.916853 
L 301.382806 505.46515 
L 301.60236 393.691939 
L 301.821913 508.660966 
L 302.041466 497.789669 
L 302.261019 359.101109 
L 302.480572 459.388481 
L 302.700125 481.067937 
L 302.919678 370.058068 
L 303.139232 496.052843 
L 303.358785 336.360063 
L 303.578338 505.936087 
L 303.797891 452.456204 
L 304.017444 537.004415 
L 304.456551 495.911527 
L 304.676104 524.78778 
L 304.895657 431.852182 
L 305.11521 435.023245 
L 305.334763 345.386505 
L 305.554316 328.168271 
L 305.773869 474.515576 
L 305.993423 457.971353 
L 306.212976 403.25138 
L 306.432529 444.015989 
L 306.652082 391.826363 
L 306.871635 521.459405 
L 307.091188 517.997041 
L 307.310742 467.425774 
L 307.530295 479.597951 
L 307.749848 328.58837 
L 307.969401 398.231616 
L 308.188954 423.260969 
L 308.408507 404.005412 
L 308.62806 324.022158 
L 308.847614 400.239541 
L 309.067167 396.194469 
L 309.28672 307.139817 
L 309.506273 405.554279 
L 309.725826 444.682388 
L 309.945379 463.984047 
L 310.164933 499.909217 
L 310.384486 468.9027 
L 310.604039 403.958491 
L 310.823592 474.992391 
L 311.043145 378.651701 
L 311.262698 507.982479 
L 311.482251 515.094228 
L 311.701805 480.212544 
L 311.921358 528.156667 
L 312.140911 414.369866 
L 312.360464 534.544905 
L 313.019124 386.631987 
L 313.238677 429.255395 
L 313.45823 205.020636 
L 313.677783 525.08462 
L 313.897336 446.246453 
L 314.116889 516.497376 
L 314.555996 455.603113 
L 314.775549 432.403188 
L 315.214655 547.913517 
L 315.434208 453.404847 
L 315.653761 427.890008 
L 315.873315 453.772583 
L 316.092868 499.843513 
L 316.312421 424.502566 
L 316.531974 414.130354 
L 316.751527 368.680085 
L 316.97108 489.213402 
L 317.190633 445.351291 
L 317.410187 365.493646 
L 317.62974 501.682007 
L 317.849293 383.42586 
L 318.068846 501.786115 
L 318.288399 403.291746 
L 318.507952 542.775676 
L 318.947059 465.102681 
L 319.166612 501.937031 
L 319.386165 389.42223 
L 319.605718 493.794096 
L 319.825271 399.587669 
L 320.044824 385.973954 
L 320.264378 491.86764 
L 320.923037 354.876752 
L 321.14259 418.839887 
L 321.362143 234.496103 
L 321.581696 516.96902 
L 321.80125 476.24052 
L 322.020803 400.31919 
L 322.240356 430.665444 
L 322.459909 504.687538 
L 322.679462 414.512841 
L 322.899015 534.497537 
L 323.118569 522.83064 
L 323.338122 531.820692 
L 323.557675 362.139176 
L 323.777228 363.653244 
L 324.216334 476.731375 
L 324.435887 555.292757 
L 324.655441 412.323771 
L 325.094547 499.694424 
L 325.3141 452.119328 
L 325.533653 498.249035 
L 326.192313 368.159325 
L 326.411866 413.527557 
L 326.631419 502.190252 
L 327.070525 482.116107 
L 327.290078 522.981077 
L 327.509632 455.845073 
L 327.729185 435.22217 
L 327.948738 364.769391 
L 328.168291 401.757599 
L 328.387844 419.012108 
L 328.607397 392.356649 
L 329.046504 541.620627 
L 329.266057 417.135328 
L 329.48561 471.284883 
L 329.705163 473.308289 
L 329.924716 479.105877 
L 330.144269 442.478996 
L 330.363823 429.428065 
L 330.583376 372.700932 
L 330.802929 530.035029 
L 331.022482 502.851133 
L 331.242035 422.074585 
L 331.461588 452.148509 
L 331.681142 499.843463 
L 331.900695 518.631934 
L 332.120248 520.904767 
L 332.559354 417.576674 
L 332.778907 437.025991 
L 332.99846 480.770751 
L 333.218014 486.56012 
L 333.437567 532.323598 
L 333.65712 406.122831 
L 333.876673 349.021119 
L 334.096226 484.902924 
L 334.315779 436.350049 
L 334.535333 457.966789 
L 334.754886 538.959206 
L 334.974439 533.596607 
L 335.193992 433.595971 
L 335.413545 442.164616 
L 335.633098 442.69698 
L 335.852651 404.124991 
L 336.072205 447.224092 
L 336.291758 430.37025 
L 336.511311 274.561266 
L 336.730864 500.416136 
L 336.950417 529.651665 
L 337.16997 498.637316 
L 337.609077 541.352418 
L 338.048183 417.904991 
L 338.267736 442.368445 
L 338.487289 303.79526 
L 338.706842 381.839231 
L 338.926396 514.91 
L 339.145949 361.471509 
L 339.365502 552.274603 
L 339.585055 430.459724 
L 339.804608 502.602892 
L 340.024161 384.057181 
L 340.243715 347.211739 
L 340.463268 474.135026 
L 340.682821 425.87485 
L 340.902374 502.747417 
L 341.121927 458.610056 
L 341.34148 480.991784 
L 341.780587 353.502842 
L 342.219693 417.666571 
L 342.439246 534.652028 
L 342.658799 327.581564 
L 342.878352 500.476703 
L 343.097906 483.522491 
L 343.317459 510.140249 
L 343.537012 422.266967 
L 343.756565 510.498468 
L 343.976118 505.102038 
L 344.195671 461.028504 
L 344.415224 309.175137 
L 344.634778 531.717114 
L 345.073884 450.848511 
L 345.293437 361.895185 
L 345.51299 493.323747 
L 345.732543 431.096347 
L 345.952096 447.669982 
L 346.17165 338.27878 
L 346.391203 523.33225 
L 346.610756 526.72504 
L 346.830309 485.243135 
L 347.049862 513.433875 
L 347.269415 473.424233 
L 347.488969 497.300255 
L 347.708522 479.447512 
L 347.928075 472.984344 
L 348.367181 517.255608 
L 348.586734 294.817299 
L 348.806287 454.647037 
L 349.025841 438.552087 
L 349.245394 374.167536 
L 349.6845 499.917858 
L 349.904053 541.72008 
L 350.123606 418.917794 
L 350.34316 464.311102 
L 350.562713 446.597925 
L 350.782266 469.83157 
L 351.001819 433.738414 
L 351.221372 222.504712 
L 351.440925 480.944971 
L 351.660478 418.666752 
L 351.880032 398.613578 
L 352.099585 362.718552 
L 352.538691 470.149183 
L 352.758244 432.712862 
L 352.977797 516.743689 
L 353.197351 377.866778 
L 353.416904 526.830637 
L 353.636457 417.745341 
L 354.075563 504.05165 
L 354.295116 472.392816 
L 354.514669 500.791797 
L 354.734223 413.671688 
L 354.953776 466.744249 
L 355.173329 553.455136 
L 355.392882 516.639713 
L 355.612435 416.065156 
L 355.831988 455.989868 
L 356.051542 472.50708 
L 356.271095 375.107248 
L 356.490648 422.73523 
L 356.710201 503.443128 
L 357.149307 372.599898 
L 357.36886 538.49006 
L 357.588414 401.069626 
L 357.807967 510.088824 
L 358.02752 387.690497 
L 358.247073 503.777924 
L 358.466626 526.260558 
L 358.686179 508.675804 
L 358.905733 541.445913 
L 359.125286 508.799621 
L 359.344839 450.331389 
L 359.564392 424.031254 
L 359.783945 535.590443 
L 360.003498 451.115637 
L 360.223051 452.833262 
L 360.442605 535.074013 
L 360.662158 467.173062 
L 360.881711 449.283866 
L 361.320817 525.948783 
L 361.54037 428.244149 
L 361.979477 517.174131 
L 362.418583 297.562417 
L 362.638136 491.541575 
L 362.857689 477.646183 
L 363.077242 484.12975 
L 363.296796 430.497591 
L 363.516349 512.343889 
L 363.735902 443.853442 
L 363.955455 449.702877 
L 364.175008 373.36354 
L 364.394561 516.48192 
L 364.614115 514.836158 
L 364.833668 523.853927 
L 365.053221 393.34876 
L 365.272774 404.006309 
L 365.492327 527.602924 
L 365.71188 478.035914 
L 365.931433 399.432222 
L 366.150987 424.670504 
L 366.37054 542.380699 
L 366.590093 417.541839 
L 367.029199 524.33797 
L 367.248752 453.376011 
L 367.687859 472.306578 
L 367.907412 390.0536 
L 368.126965 458.918151 
L 368.346518 457.429007 
L 368.566071 502.841221 
L 368.785624 486.792306 
L 369.005178 429.412168 
L 369.663837 476.114355 
L 369.88339 507.133523 
L 370.102943 502.895939 
L 370.322497 516.835865 
L 370.54205 512.602729 
L 370.761603 445.702524 
L 370.981156 507.605568 
L 371.420262 463.531592 
L 371.639815 460.240221 
L 371.859369 448.14482 
L 372.078922 365.13668 
L 372.298475 448.260145 
L 372.518028 166.317858 
L 372.737581 267.678348 
L 373.176687 565.462406 
L 373.396241 481.092844 
L 373.835347 422.808515 
L 374.0549 450.483928 
L 374.274453 444.633136 
L 374.494006 539.744507 
L 374.933113 305.617999 
L 375.152666 353.675105 
L 375.372219 503.851967 
L 375.811325 344.000087 
L 376.030878 452.67056 
L 376.250432 388.274174 
L 376.469985 471.657905 
L 376.689538 398.220849 
L 376.909091 505.843741 
L 377.128644 533.169176 
L 377.348197 454.653709 
L 377.787304 525.350403 
L 378.006857 521.340087 
L 378.445963 411.629238 
L 378.665516 537.883406 
L 378.885069 471.341808 
L 379.104623 361.78773 
L 379.543729 525.433573 
L 379.763282 482.43002 
L 379.982835 469.563289 
L 380.202388 473.544512 
L 380.421942 454.714487 
L 380.641495 327.481814 
L 380.861048 488.062539 
L 381.519707 428.004096 
L 381.958814 518.152319 
L 382.178367 501.363086 
L 382.39792 394.615795 
L 382.617473 489.837441 
L 383.056579 368.967668 
L 383.276133 464.149189 
L 383.495686 390.797795 
L 383.715239 509.013205 
L 383.934792 498.763954 
L 384.154345 468.484238 
L 384.373898 510.647731 
L 384.593451 492.803351 
L 384.813005 458.324392 
L 385.032558 493.922143 
L 385.252111 502.837001 
L 385.471664 429.584627 
L 385.691217 428.859532 
L 385.91077 437.122382 
L 386.130324 486.651316 
L 386.349877 470.055165 
L 386.56943 183.315546 
L 387.008536 411.775049 
L 387.228089 472.910353 
L 387.447642 426.498778 
L 387.667196 441.070477 
L 387.886749 427.206272 
L 388.106302 451.402644 
L 388.325855 412.110146 
L 388.545408 400.703458 
L 388.764961 493.851051 
L 388.984515 427.887241 
L 389.204068 395.487507 
L 389.423621 131.956182 
L 389.643174 494.663112 
L 389.862727 270.209352 
L 390.08228 460.124623 
L 390.521387 504.319463 
L 390.74094 484.783737 
L 390.960493 386.076861 
L 391.180046 531.261081 
L 391.399599 277.503422 
L 391.838706 505.99548 
L 392.058259 483.927042 
L 392.277812 533.81435 
L 392.497365 555.150674 
L 392.716918 536.076999 
L 392.936471 360.371489 
L 393.156024 538.973058 
L 393.375578 414.165514 
L 393.595131 505.648996 
L 393.814684 492.79023 
L 394.034237 349.229974 
L 394.25379 497.085915 
L 394.473343 476.756739 
L 394.692897 407.830792 
L 395.132003 379.068105 
L 395.571109 551.168077 
L 396.010215 470.912153 
L 396.449322 545.605242 
L 396.668875 458.235862 
L 396.888428 534.620351 
L 397.107981 498.4267 
L 397.327534 485.348042 
L 397.547087 453.84399 
L 397.766641 478.104815 
L 397.986194 440.001908 
L 398.205747 560.151818 
L 398.4253 473.459411 
L 398.644853 432.473768 
L 399.08396 549.995923 
L 399.523066 450.151401 
L 399.742619 503.684905 
L 399.962172 378.907004 
L 400.401278 544.183103 
L 400.620832 378.313351 
L 400.840385 449.58479 
L 401.059938 411.045294 
L 401.279491 432.061559 
L 401.499044 391.056394 
L 401.938151 520.594251 
L 402.157704 499.212686 
L 402.377257 426.146524 
L 402.59681 402.31968 
L 402.816363 500.40738 
L 403.255469 416.413404 
L 403.475023 497.677386 
L 403.914129 434.900766 
L 404.133682 453.903398 
L 404.353235 436.235994 
L 404.572788 527.147108 
L 404.792342 357.212687 
L 405.011895 509.28287 
L 405.231448 338.147242 
L 405.451001 437.007425 
L 405.670554 473.555498 
L 405.890107 299.928711 
L 406.10966 483.51809 
L 406.329214 390.259279 
L 406.548767 450.965946 
L 406.76832 418.55458 
L 406.987873 532.887178 
L 407.207426 422.649178 
L 407.426979 487.059404 
L 407.646533 493.67356 
L 407.866086 525.067238 
L 408.085639 473.037498 
L 408.305192 471.433305 
L 408.524745 420.054016 
L 408.744298 400.439039 
L 408.963851 441.850622 
L 409.183405 385.471068 
L 409.402958 447.172081 
L 409.622511 455.281727 
L 410.061617 316.640279 
L 410.28117 472.013835 
L 410.500724 460.571957 
L 410.720277 457.308536 
L 410.93983 368.84789 
L 411.159383 517.305389 
L 411.378936 506.206098 
L 411.598489 378.918155 
L 411.818042 482.42313 
L 412.037596 369.581004 
L 412.257149 511.714091 
L 412.476702 532.077265 
L 412.696255 364.302203 
L 412.915808 426.80505 
L 413.135361 431.083003 
L 413.354915 449.431712 
L 413.574468 554.874689 
L 413.794021 472.541883 
L 414.013574 473.905582 
L 414.45268 288.86816 
L 414.891787 549.050977 
L 415.330893 488.518764 
L 415.550446 498.35471 
L 415.769999 470.122405 
L 415.989552 460.863463 
L 416.209106 540.601071 
L 416.428659 388.824628 
L 416.648212 471.093651 
L 416.867765 285.708297 
L 417.087318 494.360823 
L 417.306871 495.486237 
L 417.526424 430.452253 
L 417.745978 430.567257 
L 417.965531 399.372778 
L 418.404637 416.505501 
L 418.62419 390.717183 
L 418.843743 444.973859 
L 419.063297 528.218517 
L 419.502403 438.516822 
L 419.721956 482.053196 
L 419.941509 379.600332 
L 420.161062 379.589899 
L 420.380615 513.290478 
L 420.600169 440.599956 
L 420.819722 495.127685 
L 421.039275 382.347893 
L 421.258828 477.961156 
L 421.478381 455.82587 
L 421.697934 318.693074 
L 421.917488 373.268587 
L 422.137041 335.966385 
L 422.576147 480.67864 
L 422.7957 437.538574 
L 423.015253 464.446795 
L 423.234806 447.597405 
L 423.45436 245.603528 
L 423.673913 538.686359 
L 423.893466 419.754231 
L 424.113019 490.341365 
L 424.332572 394.773562 
L 424.771678 546.050182 
L 424.991232 451.249254 
L 425.210785 427.137893 
L 425.430338 416.538889 
L 425.649891 423.628457 
L 426.088997 477.133245 
L 426.308551 398.711067 
L 426.528104 371.464611 
L 426.747657 496.473129 
L 426.96721 506.053727 
L 427.186763 409.062515 
L 427.406316 471.096944 
L 427.625869 395.765505 
L 427.845423 393.529642 
L 428.064976 498.353373 
L 428.284529 477.412272 
L 428.504082 525.745096 
L 428.723635 480.152113 
L 428.943188 509.885149 
L 429.162742 379.12255 
L 429.382295 424.423946 
L 429.601848 527.179509 
L 429.821401 520.848343 
L 430.040954 385.10023 
L 430.260507 471.093944 
L 430.48006 504.532451 
L 430.699614 495.857072 
L 430.919167 402.482274 
L 431.13872 358.429981 
L 431.577826 386.433727 
L 431.797379 313.782027 
L 432.016933 527.653353 
L 432.236486 168.138785 
L 432.456039 511.540161 
L 432.675592 526.071956 
L 432.895145 472.92915 
L 433.114698 513.079588 
L 433.334251 499.418661 
L 433.553805 428.396706 
L 433.773358 521.59847 
L 433.992911 467.550785 
L 434.212464 519.267786 
L 434.432017 463.628502 
L 434.65157 465.983608 
L 434.871124 430.763372 
L 435.090677 415.133746 
L 435.31023 481.631749 
L 435.529783 409.383213 
L 435.749336 434.268351 
L 435.968889 427.51828 
L 436.188442 429.357306 
L 436.407996 452.183606 
L 436.847102 306.197453 
L 437.066655 363.118214 
L 437.286208 491.466609 
L 437.505761 484.045682 
L 437.725315 541.706245 
L 437.944868 386.386768 
L 438.164421 564.771429 
L 438.383974 393.010389 
L 438.603527 460.979511 
L 438.82308 449.229558 
L 439.042633 496.163229 
L 439.262187 403.51037 
L 439.48174 507.204991 
L 439.701293 350.177765 
L 439.920846 509.309183 
L 440.140399 477.0271 
L 440.359952 544.052472 
L 440.799059 500.629884 
L 441.018612 373.400383 
L 441.238165 468.111699 
L 441.457718 442.203329 
L 441.677271 329.700674 
L 441.896824 404.559636 
L 442.116378 402.858209 
L 442.335931 464.859058 
L 442.555484 404.791345 
L 442.775037 385.861398 
L 442.99459 301.407397 
L 443.214143 466.627041 
L 443.65325 338.853989 
L 443.872803 479.774796 
L 444.092356 433.0202 
L 444.311909 340.506535 
L 444.751015 562.515813 
L 444.970569 417.588946 
L 445.190122 501.038439 
L 445.409675 457.01288 
L 445.629228 500.94728 
L 445.848781 251.914045 
L 446.068334 559.634208 
L 446.287888 524.041562 
L 446.507441 376.831905 
L 446.726994 457.61782 
L 446.946547 487.439716 
L 447.1661 489.790365 
L 447.385653 414.662227 
L 447.605206 526.866276 
L 447.82476 489.129987 
L 448.044313 566.498245 
L 448.263866 525.522048 
L 448.483419 520.871812 
L 448.702972 467.411524 
L 448.922525 463.020299 
L 449.142079 376.226246 
L 449.361632 552.741282 
L 449.581185 370.297099 
L 449.800738 344.306046 
L 450.020291 473.528655 
L 450.239844 420.718428 
L 450.459397 484.815802 
L 450.898504 411.929352 
L 451.118057 486.116449 
L 451.33761 514.362465 
L 451.557163 427.427059 
L 451.776716 487.432559 
L 451.996269 504.12424 
L 452.215823 471.208506 
L 452.435376 541.36344 
L 452.654929 482.243285 
L 452.874482 496.651316 
L 453.094035 416.194076 
L 453.313588 442.658741 
L 453.533142 526.112939 
L 453.752695 385.261344 
L 453.972248 559.184012 
L 454.411354 342.563137 
L 454.630907 457.237981 
L 454.85046 329.098158 
L 455.289567 471.778871 
L 455.50912 403.939709 
L 455.948226 516.604294 
L 456.167779 455.737161 
L 456.387333 232.403108 
L 456.606886 455.012739 
L 456.826439 392.00365 
L 457.045992 506.484876 
L 457.265545 350.677772 
L 457.485098 322.680708 
L 457.704651 512.259095 
L 457.924205 511.551254 
L 458.143758 526.593029 
L 458.363311 481.600088 
L 458.582864 505.473035 
L 458.802417 436.704233 
L 459.02197 457.829888 
L 459.241524 557.890621 
L 459.461077 305.981086 
L 459.68063 533.347294 
L 459.900183 354.314796 
L 460.339289 459.143698 
L 460.558842 462.540394 
L 460.778396 471.411068 
L 460.997949 468.788461 
L 461.217502 511.513697 
L 461.437055 324.403807 
L 461.656608 465.279226 
L 461.876161 427.853606 
L 462.095715 487.025725 
L 462.315268 361.830635 
L 462.534821 421.822913 
L 462.754374 438.258701 
L 462.973927 338.459166 
L 463.19348 503.31229 
L 463.413033 515.096686 
L 463.632587 462.735995 
L 463.85214 455.635954 
L 464.071693 444.723003 
L 464.291246 540.102824 
L 464.510799 479.80695 
L 464.730352 318.47959 
L 464.949906 424.973654 
L 465.169459 418.704505 
L 465.389012 483.888768 
L 465.608565 510.914775 
L 465.828118 468.533188 
L 466.047671 505.882598 
L 466.267224 521.698745 
L 466.486778 495.463015 
L 466.706331 394.184883 
L 466.925884 542.004668 
L 467.145437 504.748635 
L 467.36499 343.861076 
L 467.584543 482.031799 
L 467.804097 532.038648 
L 468.02365 436.231972 
L 468.243203 560.48435 
L 468.682309 402.130236 
L 468.901862 581.38839 
L 469.121415 427.999454 
L 469.340969 459.063618 
L 469.560522 446.887278 
L 469.999628 494.320752 
L 470.219181 321.860462 
L 470.438734 515.793034 
L 470.658288 521.630085 
L 470.877841 361.878167 
L 471.097394 486.379578 
L 471.316947 475.186475 
L 471.5365 452.462712 
L 471.756053 457.953452 
L 471.975606 485.290991 
L 472.414713 354.02085 
L 472.634266 489.27131 
L 472.853819 403.576542 
L 473.073372 472.80219 
L 473.292925 500.542035 
L 473.512479 420.692582 
L 473.732032 477.87907 
L 473.951585 432.348475 
L 474.171138 517.524654 
L 474.390691 470.077646 
L 474.610244 449.036834 
L 474.829797 466.974702 
L 475.049351 471.44037 
L 475.268904 375.388339 
L 475.488457 529.020023 
L 475.927563 448.280191 
L 476.147116 340.810878 
L 476.366669 321.370679 
L 476.586223 481.206208 
L 476.805776 532.409686 
L 477.244882 357.451408 
L 477.464435 436.873627 
L 477.683988 438.136435 
L 478.123095 409.774438 
L 478.342648 530.187878 
L 478.781754 384.724645 
L 479.001307 501.535124 
L 479.22086 342.10101 
L 479.659967 522.172355 
L 479.87952 447.579726 
L 480.099073 479.148139 
L 480.318626 455.333421 
L 480.538179 505.371241 
L 480.757733 419.015671 
L 480.977286 474.688793 
L 481.196839 572.317312 
L 481.416392 398.556623 
L 481.855498 511.760423 
L 482.294605 412.287447 
L 482.514158 426.652887 
L 482.733711 376.926245 
L 482.953264 481.5175 
L 483.172817 492.743939 
L 483.39237 444.286615 
L 483.611924 367.712347 
L 483.831477 334.986119 
L 484.05103 457.870852 
L 484.270583 475.010396 
L 484.490136 418.263405 
L 484.709689 440.341031 
L 484.929242 408.560831 
L 485.148796 445.375593 
L 485.368349 442.164207 
L 485.587902 445.959608 
L 485.807455 345.017039 
L 486.027008 465.439347 
L 486.246561 396.271276 
L 486.466115 469.016189 
L 486.685668 501.818077 
L 486.905221 412.969949 
L 487.124774 527.581647 
L 487.344327 272.826379 
L 487.56388 464.77434 
L 487.783433 417.468142 
L 488.002987 472.625026 
L 488.22254 472.358196 
L 488.442093 461.480444 
L 488.661646 486.200384 
L 488.881199 490.818108 
L 489.100752 338.060637 
L 489.320306 477.07158 
L 489.539859 400.077884 
L 489.759412 442.448473 
L 489.978965 414.496212 
L 490.198518 544.67346 
L 490.418071 478.221303 
L 490.637624 471.582915 
L 490.857178 518.143932 
L 491.076731 457.019923 
L 491.296284 471.518456 
L 491.515837 517.257717 
L 491.73539 521.319538 
L 491.954943 482.919275 
L 492.174497 475.720239 
L 492.613603 304.384371 
L 492.833156 481.66822 
L 493.052709 515.484479 
L 493.272262 427.216471 
L 493.491815 527.496348 
L 493.711369 461.812996 
L 493.930922 349.323027 
L 494.150475 480.383973 
L 494.370028 497.560899 
L 494.589581 501.930466 
L 494.809134 537.213741 
L 495.028688 442.805154 
L 495.248241 454.570071 
L 495.467794 459.236211 
L 495.687347 391.084375 
L 495.9069 499.191447 
L 496.126453 387.774199 
L 496.56556 507.260699 
L 496.785113 511.57901 
L 497.004666 418.723807 
L 497.224219 546.284237 
L 497.663325 426.271663 
L 497.882879 440.08186 
L 498.102432 497.977622 
L 498.321985 522.114459 
L 498.761091 359.714928 
L 498.980644 492.88573 
L 499.200197 221.52097 
L 499.419751 449.6365 
L 499.639304 391.44524 
L 500.07841 489.387032 
L 500.297963 417.590367 
L 500.517516 501.711557 
L 500.73707 507.873997 
L 500.956623 529.992053 
L 501.176176 513.561761 
L 501.395729 421.248651 
L 501.615282 542.299706 
L 502.054388 480.905701 
L 502.273942 410.572908 
L 502.493495 550.484532 
L 502.713048 527.767789 
L 502.932601 459.945389 
L 503.152154 514.161856 
L 503.371707 492.906675 
L 503.59126 489.742797 
L 503.810814 466.542821 
L 504.030367 481.616024 
L 504.24992 445.628398 
L 504.469473 288.360151 
L 504.689026 441.18952 
L 504.908579 431.564313 
L 505.128133 506.102941 
L 505.567239 423.390764 
L 505.786792 420.007153 
L 506.006345 485.765578 
L 506.225898 416.017867 
L 506.445451 446.354126 
L 506.665005 420.458248 
L 506.884558 413.95101 
L 507.104111 428.884784 
L 507.323664 529.254516 
L 507.543217 459.963452 
L 507.76277 468.729544 
L 507.982324 530.945862 
L 508.42143 406.735209 
L 508.640983 375.362323 
L 509.080089 467.111 
L 509.299642 467.325531 
L 509.519196 478.480837 
L 509.738749 536.937114 
L 509.958302 257.518492 
L 510.397408 420.394765 
L 510.616961 448.05871 
L 510.836515 539.712106 
L 511.056068 498.093797 
L 511.275621 491.268986 
L 511.495174 525.390671 
L 511.714727 489.568163 
L 511.93428 477.240928 
L 512.153833 559.386549 
L 512.373387 484.322726 
L 512.59294 514.443243 
L 513.032046 424.899195 
L 513.251599 502.449425 
L 513.471152 455.567046 
L 513.690706 467.224183 
L 513.910259 543.729572 
L 514.129812 425.071635 
L 514.349365 458.589401 
L 514.568918 469.131957 
L 514.788471 366.338197 
L 515.008024 472.900262 
L 515.227578 472.145543 
L 515.447131 518.02521 
L 515.666684 452.931351 
L 515.886237 509.812019 
L 516.10579 465.47623 
L 516.325343 338.231255 
L 516.76445 440.26543 
L 516.984003 517.385002 
L 517.203556 463.390678 
L 517.423109 506.239418 
L 517.862215 440.63198 
L 518.081769 476.295619 
L 518.301322 386.442686 
L 518.520875 480.708948 
L 518.740428 355.741158 
L 518.959981 444.88614 
L 519.179534 377.745858 
L 519.399088 503.243134 
L 519.618641 460.287312 
L 519.838194 500.96292 
L 520.057747 384.897564 
L 520.2773 425.24979 
L 520.496853 296.233665 
L 520.716406 537.459781 
L 520.93596 437.047459 
L 521.155513 523.671519 
L 521.375066 372.851484 
L 521.594619 459.369697 
L 521.814172 412.278064 
L 522.033725 424.175991 
L 522.253279 359.621243 
L 522.472832 474.956905 
L 522.692385 479.483429 
L 522.911938 404.705595 
L 523.131491 494.646516 
L 523.351044 445.037155 
L 523.570597 442.59745 
L 523.790151 572.962953 
L 524.009704 429.334695 
L 524.229257 457.85828 
L 524.44881 340.952568 
L 524.668363 415.243039 
L 524.887916 374.138487 
L 525.10747 477.611315 
L 525.546576 403.344199 
L 525.766129 481.184263 
L 525.985682 395.23641 
L 526.205235 523.728337 
L 526.424788 465.442553 
L 526.644342 477.235485 
L 526.863895 477.174384 
L 527.303001 388.981332 
L 527.522554 420.334231 
L 527.742107 263.75467 
L 527.96166 431.03958 
L 528.181214 447.342005 
L 528.62032 513.062593 
L 528.839873 478.241581 
L 529.059426 421.739378 
L 529.278979 419.397802 
L 529.498533 514.68474 
L 529.718086 491.826592 
L 529.937639 335.715856 
L 530.157192 387.574438 
L 530.376745 468.048084 
L 530.596298 391.18476 
L 530.815851 354.08303 
L 531.035405 387.35755 
L 531.254958 354.902287 
L 531.474511 475.030844 
L 531.694064 390.484574 
L 532.13317 529.092577 
L 532.352724 481.025037 
L 532.572277 462.933873 
L 532.79183 368.565454 
L 533.011383 454.721134 
L 533.230936 464.931058 
L 533.450489 537.259931 
L 533.889596 470.167451 
L 534.109149 521.590602 
L 534.328702 480.261499 
L 534.548255 505.096094 
L 534.767808 506.174892 
L 534.987361 395.238118 
L 535.206915 516.081805 
L 535.426468 384.549958 
L 535.646021 376.419999 
L 535.865574 472.792089 
L 536.085127 287.04456 
L 536.30468 552.671381 
L 536.524233 353.939498 
L 536.743787 520.726101 
L 536.96334 416.020511 
L 537.182893 490.92619 
L 537.621999 432.510115 
L 537.841552 485.500945 
L 538.061106 453.307078 
L 538.280659 464.67588 
L 538.500212 550.393464 
L 538.719765 438.911177 
L 538.939318 459.010342 
L 539.158871 532.564705 
L 539.597978 319.563946 
L 539.817531 314.986401 
L 540.037084 221.008394 
L 540.256637 536.082897 
L 540.695743 508.344575 
L 540.915297 533.630998 
L 541.13485 506.272189 
L 541.354403 456.518427 
L 541.793509 563.672045 
L 542.013062 438.24999 
L 542.232615 390.004516 
L 542.452169 524.407018 
L 542.671722 428.948089 
L 542.891275 465.793774 
L 543.110828 393.712019 
L 543.330381 525.575156 
L 543.549934 447.127715 
L 543.769488 493.665239 
L 543.989041 491.940684 
L 544.208594 420.722138 
L 544.6477 528.360722 
L 544.867253 307.845484 
L 545.086806 485.664157 
L 545.30636 504.954796 
L 545.525913 331.200307 
L 545.745466 452.450922 
L 545.745466 452.450922 
" style="fill:none;stroke:#96c69a;stroke-linecap:round;stroke-width:3;"/>
   </g>
   <g id="line2d_2"/>
   <g id="patch_3">
    <path d="M 84.914375 603.86 
L 84.914375 109.484571 
" style="fill:none;stroke:#262626;stroke-linecap:square;stroke-linejoin:miter;stroke-width:2.5;"/>
   </g>
   <g id="patch_4">
    <path d="M 84.914375 603.86 
L 567.689804 603.86 
" style="fill:none;stroke:#262626;stroke-linecap:square;stroke-linejoin:miter;stroke-width:2.5;"/>
   </g>
   <g id="legend_1">
    <g id="patch_5">
     <path d="M 507.816366 598.86 
L 560.689804 598.86 
Q 562.689804 598.86 562.689804 596.86 
L 562.689804 554.954375 
Q 562.689804 552.954375 560.689804 552.954375 
L 507.816366 552.954375 
Q 505.816366 552.954375 505.816366 554.954375 
L 505.816366 596.86 
Q 505.816366 598.86 507.816366 598.86 
z
" style="fill:#ffffff;opacity:0.8;stroke:#cccccc;stroke-linejoin:miter;stroke-width:2;"/>
    </g>
    <g id="text_18">
     <!-- $n_\tau$ -->
     <g style="fill:#262626;" transform="translate(521.173085 575.190625)scale(0.24 -0.24)">
      <defs>
       <path d="M 3566 2113 
L 3156 0 
L 2578 0 
L 2988 2091 
Q 3016 2238 3031 2350 
Q 3047 2463 3047 2528 
Q 3047 2791 2881 2937 
Q 2716 3084 2419 3084 
Q 1956 3084 1622 2776 
Q 1288 2469 1184 1941 
L 800 0 
L 225 0 
L 903 3500 
L 1478 3500 
L 1363 2950 
Q 1603 3253 1940 3418 
Q 2278 3584 2650 3584 
Q 3113 3584 3367 3334 
Q 3622 3084 3622 2631 
Q 3622 2519 3608 2391 
Q 3594 2263 3566 2113 
z
" id="DejaVuSans-Oblique-6e" transform="scale(0.015625)"/>
       <path d="M 2103 638 
Q 2188 488 2525 488 
L 2800 488 
L 2706 0 
L 2363 0 
Q 1800 0 1600 300 
Q 1403 606 1534 1269 
L 1856 2925 
L 541 2925 
L 653 3500 
L 3881 3500 
L 3769 2925 
L 2444 2925 
L 2113 1234 
Q 2025 781 2103 638 
z
" id="DejaVuSans-Oblique-3c4" transform="scale(0.015625)"/>
      </defs>
      <use xlink:href="#DejaVuSans-Oblique-6e"/>
      <use transform="translate(63.378906 -16.40625)scale(0.7)" xlink:href="#DejaVuSans-Oblique-3c4"/>
     </g>
    </g>
    <g id="line2d_3">
     <path d="M 509.816366 589.280313 
L 529.816366 589.280313 
" style="fill:none;stroke:#96c69a;stroke-linecap:round;stroke-width:3;"/>
    </g>
    <g id="line2d_4"/>
    <g id="text_19">
     <!-- 125 -->
     <g style="fill:#262626;" transform="translate(537.816366 592.780313)scale(0.1 -0.1)">
      <defs>
       <path d="M 750 831 
L 1813 831 
L 1813 3847 
L 722 3622 
L 722 4441 
L 1806 4666 
L 2950 4666 
L 2950 831 
L 4013 831 
L 4013 0 
L 750 0 
L 750 831 
z
" id="DejaVuSans-Bold-31" transform="scale(0.015625)"/>
       <path d="M 1844 884 
L 3897 884 
L 3897 0 
L 506 0 
L 506 884 
L 2209 2388 
Q 2438 2594 2547 2791 
Q 2656 2988 2656 3200 
Q 2656 3528 2436 3728 
Q 2216 3928 1850 3928 
Q 1569 3928 1234 3808 
Q 900 3688 519 3450 
L 519 4475 
Q 925 4609 1322 4679 
Q 1719 4750 2100 4750 
Q 2938 4750 3402 4381 
Q 3866 4013 3866 3353 
Q 3866 2972 3669 2642 
Q 3472 2313 2841 1759 
L 1844 884 
z
" id="DejaVuSans-Bold-32" transform="scale(0.015625)"/>
       <path d="M 678 4666 
L 3669 4666 
L 3669 3781 
L 1638 3781 
L 1638 3059 
Q 1775 3097 1914 3117 
Q 2053 3138 2203 3138 
Q 3056 3138 3531 2711 
Q 4006 2284 4006 1522 
Q 4006 766 3489 337 
Q 2972 -91 2053 -91 
Q 1656 -91 1267 -14 
Q 878 63 494 219 
L 494 1166 
Q 875 947 1217 837 
Q 1559 728 1863 728 
Q 2300 728 2551 942 
Q 2803 1156 2803 1522 
Q 2803 1891 2551 2103 
Q 2300 2316 1863 2316 
Q 1603 2316 1309 2248 
Q 1016 2181 678 2041 
L 678 4666 
z
" id="DejaVuSans-Bold-35" transform="scale(0.015625)"/>
      </defs>
      <use xlink:href="#DejaVuSans-Bold-31"/>
      <use x="69.580078" xlink:href="#DejaVuSans-Bold-32"/>
      <use x="139.160156" xlink:href="#DejaVuSans-Bold-35"/>
     </g>
    </g>
   </g>
  </g>
  <g id="axes_2">
   <g id="patch_6">
    <path d="M 84.914375 92.437143 
L 567.689804 92.437143 
L 567.689804 7.2 
L 84.914375 7.2 
z
" style="fill:none;"/>
   </g>
   <g id="matplotlib.axis_3">
    <g id="xtick_7"/>
    <g id="xtick_8"/>
    <g id="xtick_9"/>
    <g id="xtick_10"/>
    <g id="xtick_11"/>
    <g id="xtick_12"/>
   </g>
   <g id="matplotlib.axis_4">
    <g id="ytick_10">
     <g id="text_20">
      <!-- 0 -->
      <g style="fill:#262626;" transform="translate(55.416875 100.795424)scale(0.22 -0.22)">
       <use xlink:href="#DejaVuSans-30"/>
      </g>
     </g>
    </g>
    <g id="ytick_11">
     <g id="text_21">
      <!-- 100 -->
      <g style="fill:#262626;" transform="translate(27.421875 48.082287)scale(0.22 -0.22)">
       <use xlink:href="#DejaVuSans-31"/>
       <use x="63.623047" xlink:href="#DejaVuSans-30"/>
       <use x="127.246094" xlink:href="#DejaVuSans-30"/>
      </g>
     </g>
    </g>
   </g>
   <g id="patch_7">
    <path clip-path="url(#p7ec32409c3)" d="M 106.858713 92.437143 
L 140.619232 92.437143 
L 140.619232 11.258912 
L 106.858713 11.258912 
z
" style="fill:#96c69a;fill-opacity:0.5;stroke:#ffffff;stroke-linejoin:miter;stroke-width:2;"/>
   </g>
   <g id="patch_8">
    <path clip-path="url(#p7ec32409c3)" d="M 140.619232 92.437143 
L 174.379752 92.437143 
L 174.379752 11.258912 
L 140.619232 11.258912 
z
" style="fill:#96c69a;fill-opacity:0.5;stroke:#ffffff;stroke-linejoin:miter;stroke-width:2;"/>
   </g>
   <g id="patch_9">
    <path clip-path="url(#p7ec32409c3)" d="M 174.379752 92.437143 
L 208.140271 92.437143 
L 208.140271 11.258912 
L 174.379752 11.258912 
z
" style="fill:#96c69a;fill-opacity:0.5;stroke:#ffffff;stroke-linejoin:miter;stroke-width:2;"/>
   </g>
   <g id="patch_10">
    <path clip-path="url(#p7ec32409c3)" d="M 208.140271 92.437143 
L 241.900791 92.437143 
L 241.900791 11.258912 
L 208.140271 11.258912 
z
" style="fill:#96c69a;fill-opacity:0.5;stroke:#ffffff;stroke-linejoin:miter;stroke-width:2;"/>
   </g>
   <g id="patch_11">
    <path clip-path="url(#p7ec32409c3)" d="M 241.900791 92.437143 
L 275.66131 92.437143 
L 275.66131 11.786043 
L 241.900791 11.786043 
z
" style="fill:#96c69a;fill-opacity:0.5;stroke:#ffffff;stroke-linejoin:miter;stroke-width:2;"/>
   </g>
   <g id="patch_12">
    <path clip-path="url(#p7ec32409c3)" d="M 275.66131 92.437143 
L 309.42183 92.437143 
L 309.42183 11.258912 
L 275.66131 11.258912 
z
" style="fill:#96c69a;fill-opacity:0.5;stroke:#ffffff;stroke-linejoin:miter;stroke-width:2;"/>
   </g>
   <g id="patch_13">
    <path clip-path="url(#p7ec32409c3)" d="M 309.42183 92.437143 
L 343.182349 92.437143 
L 343.182349 11.258912 
L 309.42183 11.258912 
z
" style="fill:#96c69a;fill-opacity:0.5;stroke:#ffffff;stroke-linejoin:miter;stroke-width:2;"/>
   </g>
   <g id="patch_14">
    <path clip-path="url(#p7ec32409c3)" d="M 343.182349 92.437143 
L 376.942869 92.437143 
L 376.942869 11.258912 
L 343.182349 11.258912 
z
" style="fill:#96c69a;fill-opacity:0.5;stroke:#ffffff;stroke-linejoin:miter;stroke-width:2;"/>
   </g>
   <g id="patch_15">
    <path clip-path="url(#p7ec32409c3)" d="M 376.942869 92.437143 
L 410.703388 92.437143 
L 410.703388 11.786043 
L 376.942869 11.786043 
z
" style="fill:#96c69a;fill-opacity:0.5;stroke:#ffffff;stroke-linejoin:miter;stroke-width:2;"/>
   </g>
   <g id="patch_16">
    <path clip-path="url(#p7ec32409c3)" d="M 410.703388 92.437143 
L 444.463907 92.437143 
L 444.463907 11.258912 
L 410.703388 11.258912 
z
" style="fill:#96c69a;fill-opacity:0.5;stroke:#ffffff;stroke-linejoin:miter;stroke-width:2;"/>
   </g>
   <g id="patch_17">
    <path clip-path="url(#p7ec32409c3)" d="M 444.463907 92.437143 
L 478.224427 92.437143 
L 478.224427 11.258912 
L 444.463907 11.258912 
z
" style="fill:#96c69a;fill-opacity:0.5;stroke:#ffffff;stroke-linejoin:miter;stroke-width:2;"/>
   </g>
   <g id="patch_18">
    <path clip-path="url(#p7ec32409c3)" d="M 478.224427 92.437143 
L 511.984946 92.437143 
L 511.984946 11.258912 
L 478.224427 11.258912 
z
" style="fill:#96c69a;fill-opacity:0.5;stroke:#ffffff;stroke-linejoin:miter;stroke-width:2;"/>
   </g>
   <g id="patch_19">
    <path clip-path="url(#p7ec32409c3)" d="M 511.984946 92.437143 
L 545.745466 92.437143 
L 545.745466 11.258912 
L 511.984946 11.258912 
z
" style="fill:#96c69a;fill-opacity:0.5;stroke:#ffffff;stroke-linejoin:miter;stroke-width:2;"/>
   </g>
   <g id="patch_20">
    <path d="M 84.914375 92.437143 
L 84.914375 7.2 
" style="fill:none;stroke:#262626;stroke-linecap:square;stroke-linejoin:miter;stroke-width:2.5;"/>
   </g>
   <g id="patch_21">
    <path d="M 84.914375 92.437143 
L 567.689804 92.437143 
" style="fill:none;stroke:#262626;stroke-linecap:square;stroke-linejoin:miter;stroke-width:2.5;"/>
   </g>
  </g>
  <g id="axes_3">
   <g id="patch_22">
    <path d="M 584.337232 603.86 
L 667.574375 603.86 
L 667.574375 109.484571 
L 584.337232 109.484571 
z
" style="fill:none;"/>
   </g>
   <g id="matplotlib.axis_5">
    <g id="xtick_13">
     <g id="text_22">
      <!-- 0 -->
      <g style="fill:#262626;" transform="translate(577.338482 636.076563)scale(0.22 -0.22)">
       <use xlink:href="#DejaVuSans-30"/>
      </g>
     </g>
    </g>
    <g id="xtick_14">
     <g id="text_23">
      <!-- 100 -->
      <g style="fill:#262626;" transform="translate(605.063861 636.076563)scale(0.22 -0.22)">
       <use xlink:href="#DejaVuSans-31"/>
       <use x="63.623047" xlink:href="#DejaVuSans-30"/>
       <use x="127.246094" xlink:href="#DejaVuSans-30"/>
      </g>
     </g>
    </g>
   </g>
   <g id="matplotlib.axis_6">
    <g id="ytick_12"/>
    <g id="ytick_13"/>
    <g id="ytick_14"/>
    <g id="ytick_15"/>
    <g id="ytick_16"/>
    <g id="ytick_17"/>
    <g id="ytick_18"/>
    <g id="ytick_19"/>
    <g id="ytick_20"/>
   </g>
   <g id="patch_23">
    <path clip-path="url(#pb0d6e71235)" d="M 584.337232 581.38839 
L 587.675062 581.38839 
L 587.675062 568.547469 
L 584.337232 568.547469 
z
" style="fill:#96c69a;fill-opacity:0.5;stroke:#ffffff;stroke-linejoin:miter;stroke-width:1.284092;"/>
   </g>
   <g id="patch_24">
    <path clip-path="url(#pb0d6e71235)" d="M 584.337232 568.547469 
L 591.84735 568.547469 
L 591.84735 555.706549 
L 584.337232 555.706549 
z
" style="fill:#96c69a;fill-opacity:0.5;stroke:#ffffff;stroke-linejoin:miter;stroke-width:1.284092;"/>
   </g>
   <g id="patch_25">
    <path clip-path="url(#pb0d6e71235)" d="M 584.337232 555.706549 
L 599.774697 555.706549 
L 599.774697 542.865629 
L 584.337232 542.865629 
z
" style="fill:#96c69a;fill-opacity:0.5;stroke:#ffffff;stroke-linejoin:miter;stroke-width:1.284092;"/>
   </g>
   <g id="patch_26">
    <path clip-path="url(#pb0d6e71235)" d="M 584.337232 542.865629 
L 620.218908 542.865629 
L 620.218908 530.024709 
L 584.337232 530.024709 
z
" style="fill:#96c69a;fill-opacity:0.5;stroke:#ffffff;stroke-linejoin:miter;stroke-width:1.284092;"/>
   </g>
   <g id="patch_27">
    <path clip-path="url(#pb0d6e71235)" d="M 584.337232 530.024709 
L 630.649627 530.024709 
L 630.649627 517.183788 
L 584.337232 517.183788 
z
" style="fill:#96c69a;fill-opacity:0.5;stroke:#ffffff;stroke-linejoin:miter;stroke-width:1.284092;"/>
   </g>
   <g id="patch_28">
    <path clip-path="url(#pb0d6e71235)" d="M 584.337232 517.183788 
L 645.669864 517.183788 
L 645.669864 504.342868 
L 584.337232 504.342868 
z
" style="fill:#96c69a;fill-opacity:0.5;stroke:#ffffff;stroke-linejoin:miter;stroke-width:1.284092;"/>
   </g>
   <g id="patch_29">
    <path clip-path="url(#pb0d6e71235)" d="M 584.337232 504.342868 
L 654.431668 504.342868 
L 654.431668 491.501948 
L 584.337232 491.501948 
z
" style="fill:#96c69a;fill-opacity:0.5;stroke:#ffffff;stroke-linejoin:miter;stroke-width:1.284092;"/>
   </g>
   <g id="patch_30">
    <path clip-path="url(#pb0d6e71235)" d="M 584.337232 491.501948 
L 655.266126 491.501948 
L 655.266126 478.661028 
L 584.337232 478.661028 
z
" style="fill:#96c69a;fill-opacity:0.5;stroke:#ffffff;stroke-linejoin:miter;stroke-width:1.284092;"/>
   </g>
   <g id="patch_31">
    <path clip-path="url(#pb0d6e71235)" d="M 584.337232 478.661028 
L 663.610702 478.661028 
L 663.610702 465.820108 
L 584.337232 465.820108 
z
" style="fill:#96c69a;fill-opacity:0.5;stroke:#ffffff;stroke-linejoin:miter;stroke-width:1.284092;"/>
   </g>
   <g id="patch_32">
    <path clip-path="url(#pb0d6e71235)" d="M 584.337232 465.820108 
L 647.756008 465.820108 
L 647.756008 452.979187 
L 584.337232 452.979187 
z
" style="fill:#96c69a;fill-opacity:0.5;stroke:#ffffff;stroke-linejoin:miter;stroke-width:1.284092;"/>
   </g>
   <g id="patch_33">
    <path clip-path="url(#pb0d6e71235)" d="M 584.337232 452.979187 
L 645.252635 452.979187 
L 645.252635 440.138267 
L 584.337232 440.138267 
z
" style="fill:#96c69a;fill-opacity:0.5;stroke:#ffffff;stroke-linejoin:miter;stroke-width:1.284092;"/>
   </g>
   <g id="patch_34">
    <path clip-path="url(#pb0d6e71235)" d="M 584.337232 440.138267 
L 645.669864 440.138267 
L 645.669864 427.297347 
L 584.337232 427.297347 
z
" style="fill:#96c69a;fill-opacity:0.5;stroke:#ffffff;stroke-linejoin:miter;stroke-width:1.284092;"/>
   </g>
   <g id="patch_35">
    <path clip-path="url(#pb0d6e71235)" d="M 584.337232 427.297347 
L 640.663118 427.297347 
L 640.663118 414.456427 
L 584.337232 414.456427 
z
" style="fill:#96c69a;fill-opacity:0.5;stroke:#ffffff;stroke-linejoin:miter;stroke-width:1.284092;"/>
   </g>
   <g id="patch_36">
    <path clip-path="url(#pb0d6e71235)" d="M 584.337232 414.456427 
L 620.636137 414.456427 
L 620.636137 401.615506 
L 584.337232 401.615506 
z
" style="fill:#96c69a;fill-opacity:0.5;stroke:#ffffff;stroke-linejoin:miter;stroke-width:1.284092;"/>
   </g>
   <g id="patch_37">
    <path clip-path="url(#pb0d6e71235)" d="M 584.337232 401.615506 
L 621.470594 401.615506 
L 621.470594 388.774586 
L 584.337232 388.774586 
z
" style="fill:#96c69a;fill-opacity:0.5;stroke:#ffffff;stroke-linejoin:miter;stroke-width:1.284092;"/>
   </g>
   <g id="patch_38">
    <path clip-path="url(#pb0d6e71235)" d="M 584.337232 388.774586 
L 613.960476 388.774586 
L 613.960476 375.933666 
L 584.337232 375.933666 
z
" style="fill:#96c69a;fill-opacity:0.5;stroke:#ffffff;stroke-linejoin:miter;stroke-width:1.284092;"/>
   </g>
   <g id="patch_39">
    <path clip-path="url(#pb0d6e71235)" d="M 584.337232 375.933666 
L 608.119273 375.933666 
L 608.119273 363.092746 
L 584.337232 363.092746 
z
" style="fill:#96c69a;fill-opacity:0.5;stroke:#ffffff;stroke-linejoin:miter;stroke-width:1.284092;"/>
   </g>
   <g id="patch_40">
    <path clip-path="url(#pb0d6e71235)" d="M 584.337232 363.092746 
L 601.443612 363.092746 
L 601.443612 350.251826 
L 584.337232 350.251826 
z
" style="fill:#96c69a;fill-opacity:0.5;stroke:#ffffff;stroke-linejoin:miter;stroke-width:1.284092;"/>
   </g>
   <g id="patch_41">
    <path clip-path="url(#pb0d6e71235)" d="M 584.337232 350.251826 
L 600.609155 350.251826 
L 600.609155 337.410905 
L 584.337232 337.410905 
z
" style="fill:#96c69a;fill-opacity:0.5;stroke:#ffffff;stroke-linejoin:miter;stroke-width:1.284092;"/>
   </g>
   <g id="patch_42">
    <path clip-path="url(#pb0d6e71235)" d="M 584.337232 337.410905 
L 594.350723 337.410905 
L 594.350723 324.569985 
L 584.337232 324.569985 
z
" style="fill:#96c69a;fill-opacity:0.5;stroke:#ffffff;stroke-linejoin:miter;stroke-width:1.284092;"/>
   </g>
   <g id="patch_43">
    <path clip-path="url(#pb0d6e71235)" d="M 584.337232 324.569985 
L 591.012893 324.569985 
L 591.012893 311.729065 
L 584.337232 311.729065 
z
" style="fill:#96c69a;fill-opacity:0.5;stroke:#ffffff;stroke-linejoin:miter;stroke-width:1.284092;"/>
   </g>
   <g id="patch_44">
    <path clip-path="url(#pb0d6e71235)" d="M 584.337232 311.729065 
L 590.178435 311.729065 
L 590.178435 298.888145 
L 584.337232 298.888145 
z
" style="fill:#96c69a;fill-opacity:0.5;stroke:#ffffff;stroke-linejoin:miter;stroke-width:1.284092;"/>
   </g>
   <g id="patch_45">
    <path clip-path="url(#pb0d6e71235)" d="M 584.337232 298.888145 
L 588.092291 298.888145 
L 588.092291 286.047224 
L 584.337232 286.047224 
z
" style="fill:#96c69a;fill-opacity:0.5;stroke:#ffffff;stroke-linejoin:miter;stroke-width:1.284092;"/>
   </g>
   <g id="patch_46">
    <path clip-path="url(#pb0d6e71235)" d="M 584.337232 286.047224 
L 586.006147 286.047224 
L 586.006147 273.206304 
L 584.337232 273.206304 
z
" style="fill:#96c69a;fill-opacity:0.5;stroke:#ffffff;stroke-linejoin:miter;stroke-width:1.284092;"/>
   </g>
   <g id="patch_47">
    <path clip-path="url(#pb0d6e71235)" d="M 584.337232 273.206304 
L 587.257834 273.206304 
L 587.257834 260.365384 
L 584.337232 260.365384 
z
" style="fill:#96c69a;fill-opacity:0.5;stroke:#ffffff;stroke-linejoin:miter;stroke-width:1.284092;"/>
   </g>
   <g id="patch_48">
    <path clip-path="url(#pb0d6e71235)" d="M 584.337232 260.365384 
L 586.423376 260.365384 
L 586.423376 247.524464 
L 584.337232 247.524464 
z
" style="fill:#96c69a;fill-opacity:0.5;stroke:#ffffff;stroke-linejoin:miter;stroke-width:1.284092;"/>
   </g>
   <g id="patch_49">
    <path clip-path="url(#pb0d6e71235)" d="M 584.337232 247.524464 
L 585.588919 247.524464 
L 585.588919 234.683544 
L 584.337232 234.683544 
z
" style="fill:#96c69a;fill-opacity:0.5;stroke:#ffffff;stroke-linejoin:miter;stroke-width:1.284092;"/>
   </g>
   <g id="patch_50">
    <path clip-path="url(#pb0d6e71235)" d="M 584.337232 234.683544 
L 587.257834 234.683544 
L 587.257834 221.842623 
L 584.337232 221.842623 
z
" style="fill:#96c69a;fill-opacity:0.5;stroke:#ffffff;stroke-linejoin:miter;stroke-width:1.284092;"/>
   </g>
   <g id="patch_51">
    <path clip-path="url(#pb0d6e71235)" d="M 584.337232 221.842623 
L 585.588919 221.842623 
L 585.588919 209.001703 
L 584.337232 209.001703 
z
" style="fill:#96c69a;fill-opacity:0.5;stroke:#ffffff;stroke-linejoin:miter;stroke-width:1.284092;"/>
   </g>
   <g id="patch_52">
    <path clip-path="url(#pb0d6e71235)" d="M 584.337232 209.001703 
L 585.17169 209.001703 
L 585.17169 196.160783 
L 584.337232 196.160783 
z
" style="fill:#96c69a;fill-opacity:0.5;stroke:#ffffff;stroke-linejoin:miter;stroke-width:1.284092;"/>
   </g>
   <g id="patch_53">
    <path clip-path="url(#pb0d6e71235)" d="M 584.337232 196.160783 
L 584.337232 196.160783 
L 584.337232 183.319863 
L 584.337232 183.319863 
z
" style="fill:#96c69a;fill-opacity:0.5;stroke:#ffffff;stroke-linejoin:miter;stroke-width:1.284092;"/>
   </g>
   <g id="patch_54">
    <path clip-path="url(#pb0d6e71235)" d="M 584.337232 183.319863 
L 585.588919 183.319863 
L 585.588919 170.478942 
L 584.337232 170.478942 
z
" style="fill:#96c69a;fill-opacity:0.5;stroke:#ffffff;stroke-linejoin:miter;stroke-width:1.284092;"/>
   </g>
   <g id="patch_55">
    <path clip-path="url(#pb0d6e71235)" d="M 584.337232 170.478942 
L 585.17169 170.478942 
L 585.17169 157.638022 
L 584.337232 157.638022 
z
" style="fill:#96c69a;fill-opacity:0.5;stroke:#ffffff;stroke-linejoin:miter;stroke-width:1.284092;"/>
   </g>
   <g id="patch_56">
    <path clip-path="url(#pb0d6e71235)" d="M 584.337232 157.638022 
L 584.337232 157.638022 
L 584.337232 144.797102 
L 584.337232 144.797102 
z
" style="fill:#96c69a;fill-opacity:0.5;stroke:#ffffff;stroke-linejoin:miter;stroke-width:1.284092;"/>
   </g>
   <g id="patch_57">
    <path clip-path="url(#pb0d6e71235)" d="M 584.337232 144.797102 
L 585.17169 144.797102 
L 585.17169 131.956182 
L 584.337232 131.956182 
z
" style="fill:#96c69a;fill-opacity:0.5;stroke:#ffffff;stroke-linejoin:miter;stroke-width:1.284092;"/>
   </g>
   <g id="patch_58">
    <path d="M 584.337232 603.86 
L 584.337232 109.484571 
" style="fill:none;stroke:#262626;stroke-linecap:square;stroke-linejoin:miter;stroke-width:2.5;"/>
   </g>
   <g id="patch_59">
    <path d="M 584.337232 603.86 
L 667.574375 603.86 
" style="fill:none;stroke:#262626;stroke-linecap:square;stroke-linejoin:miter;stroke-width:2.5;"/>
   </g>
  </g>
 </g>
 <defs>
  <clipPath id="p415eb4e79a">
   <rect height="494.375429" width="482.775429" x="84.914375" y="109.484571"/>
  </clipPath>
  <clipPath id="p7ec32409c3">
   <rect height="85.237143" width="482.775429" x="84.914375" y="7.2"/>
  </clipPath>
  <clipPath id="pb0d6e71235">
   <rect height="494.375429" width="83.237143" x="584.337232" y="109.484571"/>
  </clipPath>
 </defs>
</svg>
