<?xml version="1.0" encoding="utf-8" standalone="no"?>
<!DOCTYPE svg PUBLIC "-//W3C//DTD SVG 1.1//EN"
  "http://www.w3.org/Graphics/SVG/1.1/DTD/svg11.dtd">
<svg height="675.079375pt" version="1.1" viewBox="0 0 674.774375 675.079375" width="674.774375pt" xmlns="http://www.w3.org/2000/svg" xmlns:xlink="http://www.w3.org/1999/xlink">
 <metadata>
  <rdf:RDF xmlns:cc="http://creativecommons.org/ns#" xmlns:dc="http://purl.org/dc/elements/1.1/" xmlns:rdf="http://www.w3.org/1999/02/22-rdf-syntax-ns#">
   <cc:Work>
    <dc:type rdf:resource="http://purl.org/dc/dcmitype/StillImage"/>
    <dc:date>2021-07-16T21:43:55.198847</dc:date>
    <dc:format>image/svg+xml</dc:format>
    <dc:creator>
     <cc:Agent>
      <dc:title>Matplotlib v3.4.2, https://matplotlib.org/</dc:title>
     </cc:Agent>
    </dc:creator>
   </cc:Work>
  </rdf:RDF>
 </metadata>
 <defs>
  <style type="text/css">*{stroke-linecap:butt;stroke-linejoin:round;}</style>
 </defs>
 <g id="figure_1">
  <g id="patch_1">
   <path d="M 0 675.079375 
L 674.774375 675.079375 
L 674.774375 0 
L 0 0 
z
" style="fill:#ffffff;"/>
  </g>
  <g id="axes_1">
   <g id="patch_2">
    <path d="M 84.914375 603.86 
L 567.689804 603.86 
L 567.689804 109.484571 
L 84.914375 109.484571 
z
" style="fill:none;"/>
   </g>
   <g id="matplotlib.axis_1">
    <g id="xtick_1">
     <g id="text_1">
      <!-- 0 -->
      <g style="fill:#262626;" transform="translate(99.64041 636.076563)scale(0.22 -0.22)">
       <defs>
        <path d="M 2034 4250 
Q 1547 4250 1301 3770 
Q 1056 3291 1056 2328 
Q 1056 1369 1301 889 
Q 1547 409 2034 409 
Q 2525 409 2770 889 
Q 3016 1369 3016 2328 
Q 3016 3291 2770 3770 
Q 2525 4250 2034 4250 
z
M 2034 4750 
Q 2819 4750 3233 4129 
Q 3647 3509 3647 2328 
Q 3647 1150 3233 529 
Q 2819 -91 2034 -91 
Q 1250 -91 836 529 
Q 422 1150 422 2328 
Q 422 3509 836 4129 
Q 1250 4750 2034 4750 
z
" id="DejaVuSans-30" transform="scale(0.015625)"/>
       </defs>
       <use xlink:href="#DejaVuSans-30"/>
      </g>
     </g>
    </g>
    <g id="xtick_2">
     <g id="text_2">
      <!-- 20000 -->
      <g style="fill:#262626;" transform="translate(159.466671 636.076563)scale(0.22 -0.22)">
       <defs>
        <path d="M 1228 531 
L 3431 531 
L 3431 0 
L 469 0 
L 469 531 
Q 828 903 1448 1529 
Q 2069 2156 2228 2338 
Q 2531 2678 2651 2914 
Q 2772 3150 2772 3378 
Q 2772 3750 2511 3984 
Q 2250 4219 1831 4219 
Q 1534 4219 1204 4116 
Q 875 4013 500 3803 
L 500 4441 
Q 881 4594 1212 4672 
Q 1544 4750 1819 4750 
Q 2544 4750 2975 4387 
Q 3406 4025 3406 3419 
Q 3406 3131 3298 2873 
Q 3191 2616 2906 2266 
Q 2828 2175 2409 1742 
Q 1991 1309 1228 531 
z
" id="DejaVuSans-32" transform="scale(0.015625)"/>
       </defs>
       <use xlink:href="#DejaVuSans-32"/>
       <use x="63.623047" xlink:href="#DejaVuSans-30"/>
       <use x="127.246094" xlink:href="#DejaVuSans-30"/>
       <use x="190.869141" xlink:href="#DejaVuSans-30"/>
       <use x="254.492188" xlink:href="#DejaVuSans-30"/>
      </g>
     </g>
    </g>
    <g id="xtick_3">
     <g id="text_3">
      <!-- 40000 -->
      <g style="fill:#262626;" transform="translate(247.287932 636.076563)scale(0.22 -0.22)">
       <defs>
        <path d="M 2419 4116 
L 825 1625 
L 2419 1625 
L 2419 4116 
z
M 2253 4666 
L 3047 4666 
L 3047 1625 
L 3713 1625 
L 3713 1100 
L 3047 1100 
L 3047 0 
L 2419 0 
L 2419 1100 
L 313 1100 
L 313 1709 
L 2253 4666 
z
" id="DejaVuSans-34" transform="scale(0.015625)"/>
       </defs>
       <use xlink:href="#DejaVuSans-34"/>
       <use x="63.623047" xlink:href="#DejaVuSans-30"/>
       <use x="127.246094" xlink:href="#DejaVuSans-30"/>
       <use x="190.869141" xlink:href="#DejaVuSans-30"/>
       <use x="254.492188" xlink:href="#DejaVuSans-30"/>
      </g>
     </g>
    </g>
    <g id="xtick_4">
     <g id="text_4">
      <!-- 60000 -->
      <g style="fill:#262626;" transform="translate(335.109193 636.076563)scale(0.22 -0.22)">
       <defs>
        <path d="M 2113 2584 
Q 1688 2584 1439 2293 
Q 1191 2003 1191 1497 
Q 1191 994 1439 701 
Q 1688 409 2113 409 
Q 2538 409 2786 701 
Q 3034 994 3034 1497 
Q 3034 2003 2786 2293 
Q 2538 2584 2113 2584 
z
M 3366 4563 
L 3366 3988 
Q 3128 4100 2886 4159 
Q 2644 4219 2406 4219 
Q 1781 4219 1451 3797 
Q 1122 3375 1075 2522 
Q 1259 2794 1537 2939 
Q 1816 3084 2150 3084 
Q 2853 3084 3261 2657 
Q 3669 2231 3669 1497 
Q 3669 778 3244 343 
Q 2819 -91 2113 -91 
Q 1303 -91 875 529 
Q 447 1150 447 2328 
Q 447 3434 972 4092 
Q 1497 4750 2381 4750 
Q 2619 4750 2861 4703 
Q 3103 4656 3366 4563 
z
" id="DejaVuSans-36" transform="scale(0.015625)"/>
       </defs>
       <use xlink:href="#DejaVuSans-36"/>
       <use x="63.623047" xlink:href="#DejaVuSans-30"/>
       <use x="127.246094" xlink:href="#DejaVuSans-30"/>
       <use x="190.869141" xlink:href="#DejaVuSans-30"/>
       <use x="254.492188" xlink:href="#DejaVuSans-30"/>
      </g>
     </g>
    </g>
    <g id="xtick_5">
     <g id="text_5">
      <!-- 80000 -->
      <g style="fill:#262626;" transform="translate(422.930455 636.076563)scale(0.22 -0.22)">
       <defs>
        <path d="M 2034 2216 
Q 1584 2216 1326 1975 
Q 1069 1734 1069 1313 
Q 1069 891 1326 650 
Q 1584 409 2034 409 
Q 2484 409 2743 651 
Q 3003 894 3003 1313 
Q 3003 1734 2745 1975 
Q 2488 2216 2034 2216 
z
M 1403 2484 
Q 997 2584 770 2862 
Q 544 3141 544 3541 
Q 544 4100 942 4425 
Q 1341 4750 2034 4750 
Q 2731 4750 3128 4425 
Q 3525 4100 3525 3541 
Q 3525 3141 3298 2862 
Q 3072 2584 2669 2484 
Q 3125 2378 3379 2068 
Q 3634 1759 3634 1313 
Q 3634 634 3220 271 
Q 2806 -91 2034 -91 
Q 1263 -91 848 271 
Q 434 634 434 1313 
Q 434 1759 690 2068 
Q 947 2378 1403 2484 
z
M 1172 3481 
Q 1172 3119 1398 2916 
Q 1625 2713 2034 2713 
Q 2441 2713 2670 2916 
Q 2900 3119 2900 3481 
Q 2900 3844 2670 4047 
Q 2441 4250 2034 4250 
Q 1625 4250 1398 4047 
Q 1172 3844 1172 3481 
z
" id="DejaVuSans-38" transform="scale(0.015625)"/>
       </defs>
       <use xlink:href="#DejaVuSans-38"/>
       <use x="63.623047" xlink:href="#DejaVuSans-30"/>
       <use x="127.246094" xlink:href="#DejaVuSans-30"/>
       <use x="190.869141" xlink:href="#DejaVuSans-30"/>
       <use x="254.492188" xlink:href="#DejaVuSans-30"/>
      </g>
     </g>
    </g>
    <g id="xtick_6">
     <g id="text_6">
      <!-- 100000 -->
      <g style="fill:#262626;" transform="translate(503.752966 636.076563)scale(0.22 -0.22)">
       <defs>
        <path d="M 794 531 
L 1825 531 
L 1825 4091 
L 703 3866 
L 703 4441 
L 1819 4666 
L 2450 4666 
L 2450 531 
L 3481 531 
L 3481 0 
L 794 0 
L 794 531 
z
" id="DejaVuSans-31" transform="scale(0.015625)"/>
       </defs>
       <use xlink:href="#DejaVuSans-31"/>
       <use x="63.623047" xlink:href="#DejaVuSans-30"/>
       <use x="127.246094" xlink:href="#DejaVuSans-30"/>
       <use x="190.869141" xlink:href="#DejaVuSans-30"/>
       <use x="254.492188" xlink:href="#DejaVuSans-30"/>
       <use x="318.115234" xlink:href="#DejaVuSans-30"/>
      </g>
     </g>
    </g>
    <g id="text_7">
     <!-- MDTU -->
     <g style="fill:#262626;" transform="translate(290.596464 662.888125)scale(0.24 -0.24)">
      <defs>
       <path d="M 628 4666 
L 1569 4666 
L 2759 1491 
L 3956 4666 
L 4897 4666 
L 4897 0 
L 4281 0 
L 4281 4097 
L 3078 897 
L 2444 897 
L 1241 4097 
L 1241 0 
L 628 0 
L 628 4666 
z
" id="DejaVuSans-4d" transform="scale(0.015625)"/>
       <path d="M 1259 4147 
L 1259 519 
L 2022 519 
Q 2988 519 3436 956 
Q 3884 1394 3884 2338 
Q 3884 3275 3436 3711 
Q 2988 4147 2022 4147 
L 1259 4147 
z
M 628 4666 
L 1925 4666 
Q 3281 4666 3915 4102 
Q 4550 3538 4550 2338 
Q 4550 1131 3912 565 
Q 3275 0 1925 0 
L 628 0 
L 628 4666 
z
" id="DejaVuSans-44" transform="scale(0.015625)"/>
       <path d="M -19 4666 
L 3928 4666 
L 3928 4134 
L 2272 4134 
L 2272 0 
L 1638 0 
L 1638 4134 
L -19 4134 
L -19 4666 
z
" id="DejaVuSans-54" transform="scale(0.015625)"/>
       <path d="M 556 4666 
L 1191 4666 
L 1191 1831 
Q 1191 1081 1462 751 
Q 1734 422 2344 422 
Q 2950 422 3222 751 
Q 3494 1081 3494 1831 
L 3494 4666 
L 4128 4666 
L 4128 1753 
Q 4128 841 3676 375 
Q 3225 -91 2344 -91 
Q 1459 -91 1007 375 
Q 556 841 556 1753 
L 556 4666 
z
" id="DejaVuSans-55" transform="scale(0.015625)"/>
      </defs>
      <use xlink:href="#DejaVuSans-4d"/>
      <use x="86.279297" xlink:href="#DejaVuSans-44"/>
      <use x="163.28125" xlink:href="#DejaVuSans-54"/>
      <use x="224.365234" xlink:href="#DejaVuSans-55"/>
     </g>
    </g>
   </g>
   <g id="matplotlib.axis_2">
    <g id="ytick_1">
     <g id="text_8">
      <!-- 0.4 -->
      <g style="fill:#262626;" transform="translate(34.4275 546.541088)scale(0.22 -0.22)">
       <defs>
        <path d="M 684 794 
L 1344 794 
L 1344 0 
L 684 0 
L 684 794 
z
" id="DejaVuSans-2e" transform="scale(0.015625)"/>
       </defs>
       <use xlink:href="#DejaVuSans-30"/>
       <use x="63.623047" xlink:href="#DejaVuSans-2e"/>
       <use x="95.410156" xlink:href="#DejaVuSans-34"/>
      </g>
     </g>
    </g>
    <g id="ytick_2">
     <g id="text_9">
      <!-- 0.6 -->
      <g style="fill:#262626;" transform="translate(34.4275 473.062269)scale(0.22 -0.22)">
       <use xlink:href="#DejaVuSans-30"/>
       <use x="63.623047" xlink:href="#DejaVuSans-2e"/>
       <use x="95.410156" xlink:href="#DejaVuSans-36"/>
      </g>
     </g>
    </g>
    <g id="ytick_3">
     <g id="text_10">
      <!-- 0.8 -->
      <g style="fill:#262626;" transform="translate(34.4275 399.58345)scale(0.22 -0.22)">
       <use xlink:href="#DejaVuSans-30"/>
       <use x="63.623047" xlink:href="#DejaVuSans-2e"/>
       <use x="95.410156" xlink:href="#DejaVuSans-38"/>
      </g>
     </g>
    </g>
    <g id="ytick_4">
     <g id="text_11">
      <!-- 1.0 -->
      <g style="fill:#262626;" transform="translate(34.4275 326.104632)scale(0.22 -0.22)">
       <use xlink:href="#DejaVuSans-31"/>
       <use x="63.623047" xlink:href="#DejaVuSans-2e"/>
       <use x="95.410156" xlink:href="#DejaVuSans-30"/>
      </g>
     </g>
    </g>
    <g id="ytick_5">
     <g id="text_12">
      <!-- 1.2 -->
      <g style="fill:#262626;" transform="translate(34.4275 252.625813)scale(0.22 -0.22)">
       <use xlink:href="#DejaVuSans-31"/>
       <use x="63.623047" xlink:href="#DejaVuSans-2e"/>
       <use x="95.410156" xlink:href="#DejaVuSans-32"/>
      </g>
     </g>
    </g>
    <g id="ytick_6">
     <g id="text_13">
      <!-- 1.4 -->
      <g style="fill:#262626;" transform="translate(34.4275 179.146994)scale(0.22 -0.22)">
       <use xlink:href="#DejaVuSans-31"/>
       <use x="63.623047" xlink:href="#DejaVuSans-2e"/>
       <use x="95.410156" xlink:href="#DejaVuSans-34"/>
      </g>
     </g>
    </g>
    <g id="text_14">
     <!-- $E$ -->
     <g style="fill:#262626;" transform="translate(25.43625 364.352286)rotate(-90)scale(0.24 -0.24)">
      <defs>
       <path d="M 1081 4666 
L 4031 4666 
L 3928 4134 
L 1606 4134 
L 1338 2753 
L 3566 2753 
L 3463 2222 
L 1234 2222 
L 909 531 
L 3284 531 
L 3181 0 
L 172 0 
L 1081 4666 
z
" id="DejaVuSans-Oblique-45" transform="scale(0.015625)"/>
      </defs>
      <use transform="translate(0 0.09375)" xlink:href="#DejaVuSans-Oblique-45"/>
     </g>
    </g>
   </g>
   <g id="line2d_1">
    <path clip-path="url(#pe8de8b829f)" d="M 106.858713 404.938048 
L 107.078266 470.275686 
L 107.297819 468.228839 
L 107.517372 460.76045 
L 107.736925 483.083383 
L 107.956478 463.410665 
L 108.176032 418.128571 
L 108.395585 349.38092 
L 108.615138 518.654281 
L 108.834691 325.335227 
L 109.054244 444.412081 
L 109.273797 502.128661 
L 109.493351 370.017327 
L 109.712904 458.927104 
L 109.932457 355.433417 
L 110.15201 426.265649 
L 110.371563 311.581308 
L 110.591116 484.253538 
L 110.810669 404.953391 
L 111.030223 494.088454 
L 111.249776 516.214089 
L 111.469329 491.85546 
L 111.688882 414.357853 
L 111.908435 296.67047 
L 112.127988 407.655145 
L 112.347541 408.040317 
L 112.786648 506.952557 
L 113.006201 381.170317 
L 113.225754 463.99689 
L 113.445307 464.783985 
L 113.66486 353.100918 
L 113.884414 424.619132 
L 114.103967 380.054989 
L 114.32352 372.39269 
L 114.543073 456.155384 
L 114.762626 341.88008 
L 114.982179 494.183587 
L 115.201732 560.721116 
L 115.421286 445.959323 
L 115.640839 476.309467 
L 115.860392 478.677888 
L 116.079945 490.493815 
L 116.299498 493.708471 
L 116.738605 474.317038 
L 116.958158 533.961305 
L 117.177711 491.863485 
L 117.616817 481.807779 
L 117.83637 379.85131 
L 118.055923 410.433035 
L 118.275477 314.15011 
L 118.49503 459.334537 
L 118.714583 476.273255 
L 118.934136 473.160629 
L 119.153689 467.437262 
L 119.373242 469.280385 
L 119.592796 391.444328 
L 119.812349 459.81806 
L 120.031902 399.776704 
L 120.251455 375.719447 
L 120.471008 465.66425 
L 120.690561 509.104596 
L 120.910114 404.773307 
L 121.129668 509.157528 
L 121.349221 463.896206 
L 121.568774 540.248008 
L 121.788327 509.800061 
L 122.00788 536.700299 
L 122.227433 542.713784 
L 122.446987 429.103837 
L 122.66654 495.079623 
L 122.886093 487.092172 
L 123.105646 503.38582 
L 123.544752 387.585137 
L 123.764305 512.854652 
L 123.983859 440.279452 
L 124.422965 509.446526 
L 124.642518 453.109058 
L 124.862071 490.214483 
L 125.081624 369.485624 
L 125.301178 405.893706 
L 125.520731 546.538752 
L 125.740284 228.401452 
L 125.959837 356.095392 
L 126.17939 382.165702 
L 126.398943 368.588757 
L 126.618496 407.859775 
L 126.83805 486.490334 
L 127.057603 485.794507 
L 127.277156 456.826591 
L 127.496709 458.808303 
L 127.716262 451.723853 
L 127.935815 416.112152 
L 128.155369 428.741613 
L 128.374922 454.913961 
L 128.814028 219.722883 
L 129.033581 410.356529 
L 129.253134 348.357957 
L 129.472687 515.264631 
L 129.692241 510.250788 
L 130.131347 263.254177 
L 130.3509 423.503004 
L 130.570453 454.424604 
L 130.790006 451.34165 
L 131.00956 168.464935 
L 131.229113 378.53443 
L 131.448666 475.083414 
L 131.668219 316.736749 
L 131.887772 461.454003 
L 132.107325 451.69124 
L 132.326878 417.608078 
L 132.546432 337.985041 
L 132.765985 553.946973 
L 132.985538 436.170152 
L 133.205091 517.220874 
L 133.424644 354.921633 
L 133.644197 425.825565 
L 133.863751 398.949082 
L 134.083304 433.879277 
L 134.302857 522.699771 
L 134.52241 443.702747 
L 134.741963 498.253851 
L 134.961516 462.148237 
L 135.181069 359.189756 
L 135.400623 445.483187 
L 135.620176 436.050861 
L 135.839729 409.987005 
L 136.059282 311.700038 
L 136.278835 456.199888 
L 136.498388 503.306322 
L 136.717941 474.374376 
L 136.937495 406.312898 
L 137.157048 437.143249 
L 137.376601 438.312678 
L 137.596154 522.548792 
L 137.815707 483.772025 
L 138.03526 477.230509 
L 138.254814 447.429814 
L 138.474367 398.968572 
L 138.69392 510.483995 
L 138.913473 430.605333 
L 139.133026 441.983397 
L 139.352579 423.452016 
L 139.572132 467.398612 
L 139.791686 466.219387 
L 140.230792 440.783306 
L 140.450345 496.375867 
L 140.669898 459.467838 
L 140.889451 453.50588 
L 141.109005 310.86269 
L 141.328558 488.626739 
L 141.548111 466.035281 
L 141.767664 493.552373 
L 141.987217 431.332278 
L 142.426323 462.804262 
L 142.645877 401.597342 
L 142.86543 462.658394 
L 143.084983 466.095593 
L 143.304536 267.597324 
L 143.524089 388.552588 
L 143.963196 471.137182 
L 144.182749 414.919036 
L 144.621855 498.071514 
L 144.841408 366.500614 
L 145.060961 467.1784 
L 145.280514 487.993062 
L 145.719621 274.921974 
L 145.939174 346.691661 
L 146.158727 356.31283 
L 146.37828 354.969793 
L 146.597833 366.306749 
L 146.817387 435.034467 
L 147.03694 415.006531 
L 147.256493 483.830526 
L 147.476046 481.025386 
L 147.915152 345.449694 
L 148.134705 385.711619 
L 148.354259 451.05611 
L 148.573812 372.555452 
L 149.012918 547.379271 
L 149.232471 135.062934 
L 149.452024 447.180947 
L 149.671578 429.225082 
L 149.891131 490.83354 
L 150.110684 460.140462 
L 150.330237 412.018527 
L 150.54979 491.917829 
L 150.769343 444.272961 
L 150.988896 340.038957 
L 151.20845 394.733517 
L 151.428003 478.878047 
L 151.647556 332.615586 
L 152.086662 535.214099 
L 152.306215 472.867707 
L 152.525769 483.441265 
L 152.745322 432.492565 
L 152.964875 426.015935 
L 153.184428 537.735641 
L 153.403981 202.406399 
L 153.623534 458.007897 
L 153.843087 323.381529 
L 154.062641 451.645797 
L 154.282194 310.808025 
L 154.7213 432.233749 
L 154.940853 408.098029 
L 155.160406 426.869106 
L 155.37996 415.401059 
L 155.599513 383.738897 
L 155.819066 423.805231 
L 156.038619 566.689642 
L 156.258172 496.526467 
L 156.477725 475.319271 
L 156.697278 472.684013 
L 156.916832 421.093559 
L 157.136385 285.799949 
L 157.355938 334.701477 
L 157.575491 412.782487 
L 157.795044 426.881646 
L 158.014597 337.426271 
L 158.234151 453.953585 
L 158.453704 468.810385 
L 158.673257 415.99216 
L 158.89281 407.277018 
L 159.112363 389.570366 
L 159.331916 310.582277 
L 159.551469 421.110379 
L 159.990576 460.564909 
L 160.210129 453.866274 
L 160.429682 368.25417 
L 160.868788 472.33076 
L 161.088342 454.019037 
L 161.307895 403.303645 
L 161.527448 426.530203 
L 161.747001 386.950226 
L 161.966554 491.400388 
L 162.40566 374.792767 
L 162.625214 419.486142 
L 162.844767 505.11711 
L 163.06432 334.487702 
L 163.503426 467.05267 
L 163.942532 394.929637 
L 164.162086 357.187221 
L 164.381639 501.541181 
L 164.601192 398.33816 
L 164.820745 479.290522 
L 165.040298 412.365715 
L 165.259851 287.985893 
L 165.479405 413.694286 
L 165.698958 458.595333 
L 165.918511 451.533 
L 166.138064 486.247559 
L 166.357617 417.637579 
L 166.57717 431.965353 
L 166.796723 393.946387 
L 167.016277 459.537555 
L 167.23583 440.620075 
L 167.455383 453.289666 
L 167.674936 295.761601 
L 167.894489 453.294947 
L 168.114042 338.062075 
L 168.333596 296.805662 
L 168.553149 439.842168 
L 168.772702 406.292171 
L 168.992255 490.008408 
L 169.211808 415.674873 
L 169.431361 416.634393 
L 169.650914 416.848266 
L 169.870468 328.197192 
L 170.309574 500.294419 
L 170.529127 375.71085 
L 170.74868 447.928826 
L 171.187787 504.167 
L 171.40734 421.355053 
L 171.626893 402.585258 
L 171.846446 444.764611 
L 172.065999 406.613336 
L 172.285552 429.477131 
L 172.505105 391.571415 
L 172.724659 382.336958 
L 172.944212 424.851582 
L 173.383318 543.92821 
L 173.602871 479.005011 
L 173.822424 500.630924 
L 174.041978 401.541292 
L 174.261531 458.189924 
L 174.700637 410.557826 
L 174.92019 431.066108 
L 175.139743 336.968267 
L 175.359296 460.094755 
L 175.57885 519.360187 
L 176.017956 374.630558 
L 176.237509 487.784311 
L 176.457062 482.348362 
L 176.676615 376.346332 
L 176.896169 436.74123 
L 177.115722 363.307124 
L 177.335275 468.787699 
L 177.554828 501.09735 
L 177.774381 410.465113 
L 177.993934 404.36812 
L 178.433041 534.125253 
L 178.652594 330.758379 
L 178.872147 489.145503 
L 179.0917 450.85802 
L 179.311253 467.622685 
L 179.75036 556.418061 
L 179.969913 523.911535 
L 180.189466 447.473293 
L 180.409019 298.644707 
L 181.067678 541.146606 
L 181.287232 322.893789 
L 181.506785 378.289858 
L 181.726338 541.276286 
L 181.945891 392.63905 
L 182.165444 508.83414 
L 182.384997 437.17556 
L 182.604551 420.785984 
L 182.824104 298.415694 
L 183.043657 446.386318 
L 183.26321 445.127244 
L 183.482763 478.229031 
L 183.702316 462.715223 
L 183.921869 400.987727 
L 184.141423 404.357573 
L 184.360976 451.9764 
L 184.580529 426.738727 
L 184.800082 293.888782 
L 185.019635 498.431681 
L 185.239188 330.467483 
L 185.458742 468.124297 
L 185.678295 467.758848 
L 185.897848 399.705827 
L 186.117401 389.868555 
L 186.336954 429.570175 
L 186.556507 492.921549 
L 186.77606 418.011416 
L 186.995614 469.660091 
L 187.215167 437.058766 
L 187.43472 464.83336 
L 187.654273 356.856115 
L 188.093379 500.24412 
L 188.312932 377.466878 
L 188.532486 389.323846 
L 188.752039 442.549492 
L 188.971592 411.136765 
L 189.191145 526.789996 
L 189.410698 276.707668 
L 189.849805 508.244925 
L 190.069358 532.241502 
L 190.288911 388.474405 
L 190.508464 393.104105 
L 190.728017 371.917227 
L 190.94757 445.919159 
L 191.167123 457.821291 
L 191.386677 388.615523 
L 191.60623 437.592333 
L 191.825783 312.093526 
L 192.045336 317.11826 
L 192.264889 497.785435 
L 192.703996 543.248663 
L 192.923549 437.294808 
L 193.143102 406.443649 
L 193.362655 401.454026 
L 193.582208 467.496263 
L 193.801761 365.607247 
L 194.021314 439.774559 
L 194.240868 461.427658 
L 194.679974 386.280962 
L 194.899527 468.240983 
L 195.11908 336.216117 
L 195.338633 513.853798 
L 195.558187 439.044255 
L 195.77774 410.81744 
L 195.997293 491.215294 
L 196.216846 524.851028 
L 196.436399 465.509664 
L 196.655952 503.104012 
L 196.875505 448.620233 
L 197.095059 296.508274 
L 197.314612 468.430602 
L 197.753718 433.667708 
L 197.973271 385.948108 
L 198.192824 413.403861 
L 198.412378 406.086408 
L 198.631931 495.802489 
L 198.851484 381.968403 
L 199.071037 453.045469 
L 199.29059 444.700442 
L 199.510143 343.184254 
L 199.729696 484.67082 
L 199.94925 354.696726 
L 200.388356 488.074997 
L 200.607909 445.522689 
L 200.827462 505.551213 
L 201.047015 462.120698 
L 201.266569 355.931276 
L 201.486122 456.232652 
L 201.705675 468.04653 
L 201.925228 487.102989 
L 202.144781 554.99867 
L 202.364334 401.788012 
L 202.583887 504.827455 
L 202.803441 431.955963 
L 203.022994 427.717135 
L 203.242547 470.728404 
L 203.4621 462.734902 
L 203.901206 426.381609 
L 204.12076 306.044178 
L 204.340313 465.604593 
L 204.559866 534.405235 
L 204.779419 416.532499 
L 204.998972 374.423658 
L 205.218525 415.086109 
L 205.438078 376.369794 
L 205.657632 372.526511 
L 206.096738 459.695184 
L 206.316291 452.39052 
L 206.535844 470.284817 
L 206.755397 416.133244 
L 206.974951 468.733122 
L 207.194504 293.404223 
L 207.414057 500.743452 
L 207.63361 541.371865 
L 207.853163 363.465284 
L 208.292269 450.34146 
L 208.511823 439.424829 
L 208.731376 478.772678 
L 208.950929 381.776221 
L 209.170482 385.668832 
L 209.390035 431.15169 
L 209.609588 365.308326 
L 209.829142 444.215167 
L 210.048695 402.00825 
L 210.268248 492.826633 
L 210.487801 392.789542 
L 210.707354 505.797884 
L 210.926907 289.754259 
L 211.14646 398.129114 
L 211.366014 388.674483 
L 211.585567 398.718186 
L 211.80512 480.536195 
L 212.024673 472.291909 
L 212.244226 369.137023 
L 212.463779 475.068341 
L 212.683333 334.347264 
L 212.902886 480.290392 
L 213.122439 494.819222 
L 213.341992 422.177853 
L 213.561545 286.200532 
L 214.000651 490.260291 
L 214.220205 371.139608 
L 214.439758 496.592667 
L 214.659311 470.217103 
L 214.878864 410.602405 
L 215.098417 581.38839 
L 215.537523 371.042671 
L 215.757077 427.536698 
L 215.97663 424.600761 
L 216.415736 547.272095 
L 216.854842 342.903028 
L 217.074396 374.101637 
L 217.293949 378.685862 
L 217.513502 399.093288 
L 217.733055 441.067296 
L 217.952608 388.823857 
L 218.172161 533.29035 
L 218.391714 452.292439 
L 218.611268 477.314146 
L 218.830821 328.389798 
L 219.050374 280.29918 
L 219.269927 490.66817 
L 219.48948 475.402609 
L 219.928587 498.29979 
L 220.14814 481.397926 
L 220.367693 438.554866 
L 220.587246 289.148928 
L 220.806799 330.935002 
L 221.026352 317.309613 
L 221.245905 317.184115 
L 221.465459 455.478046 
L 221.685012 395.500212 
L 221.904565 501.669504 
L 222.124118 323.654882 
L 222.343671 449.684666 
L 222.563224 372.219819 
L 222.782778 355.360021 
L 223.002331 405.676589 
L 223.221884 527.743964 
L 223.441437 375.273881 
L 223.66099 490.121541 
L 223.880543 317.435076 
L 224.100096 496.619123 
L 224.539203 380.462656 
L 224.758756 344.159221 
L 224.978309 398.710582 
L 225.197862 527.580501 
L 225.417415 456.601031 
L 225.636969 423.067329 
L 225.856522 472.87632 
L 226.076075 328.026192 
L 226.515181 508.643627 
L 226.954287 281.001134 
L 227.173841 399.993067 
L 227.393394 440.669858 
L 227.612947 523.234921 
L 227.8325 336.251365 
L 228.052053 435.968781 
L 228.271606 470.553543 
L 228.49116 485.485874 
L 228.710713 328.249752 
L 228.930266 456.965194 
L 229.149819 510.490113 
L 229.369372 403.98535 
L 229.588925 477.323426 
L 229.808478 437.822833 
L 230.028032 542.268003 
L 230.467138 354.265924 
L 230.686691 444.501169 
L 230.906244 360.68904 
L 231.125797 381.08363 
L 231.345351 417.188035 
L 231.784457 283.078635 
L 232.223563 447.509666 
L 232.443116 514.702911 
L 232.662669 487.479155 
L 232.882223 502.518229 
L 233.101776 460.470836 
L 233.321329 276.982339 
L 233.540882 513.064319 
L 233.760435 397.865692 
L 233.979988 375.28946 
L 234.199542 383.907688 
L 234.419095 283.520394 
L 234.858201 427.294054 
L 235.077754 345.806382 
L 235.297307 438.553787 
L 235.51686 441.580066 
L 235.736414 456.594042 
L 235.955967 435.204463 
L 236.17552 335.625562 
L 236.614626 523.33083 
L 236.834179 360.883143 
L 237.273286 539.992024 
L 237.492839 344.596126 
L 237.712392 402.875973 
L 237.931945 491.793594 
L 238.151498 388.615447 
L 238.590605 480.154197 
L 238.810158 349.835408 
L 239.249264 469.85565 
L 239.68837 434.622074 
L 239.907924 329.496425 
L 240.127477 407.496243 
L 240.34703 432.413598 
L 240.566583 382.563962 
L 240.786136 399.746216 
L 241.005689 468.693809 
L 241.225242 414.361459 
L 241.444796 502.822763 
L 241.883902 456.730687 
L 242.103455 540.980585 
L 242.323008 340.002598 
L 242.542561 533.921614 
L 242.981668 317.631394 
L 243.201221 335.771394 
L 243.420774 452.744298 
L 243.640327 474.062259 
L 243.85988 468.527804 
L 244.079433 509.555869 
L 244.298987 373.458619 
L 244.51854 540.546554 
L 244.738093 459.402991 
L 244.957646 437.89633 
L 245.177199 547.744028 
L 245.396752 505.751706 
L 245.835859 336.785999 
L 246.055412 458.076231 
L 246.274965 458.111508 
L 246.494518 470.824423 
L 246.714071 296.370274 
L 246.933624 436.025026 
L 247.153178 422.710478 
L 247.372731 402.172536 
L 247.592284 411.259607 
L 247.811837 377.160249 
L 248.03139 429.859467 
L 248.250943 293.319425 
L 248.470496 518.185087 
L 248.69005 428.487037 
L 248.909603 455.872985 
L 249.129156 410.49839 
L 249.568262 479.786715 
L 249.787815 408.421454 
L 250.007369 382.524589 
L 250.226922 460.054391 
L 250.446475 447.396317 
L 250.666028 478.00998 
L 250.885581 492.047993 
L 251.105134 476.205262 
L 251.324687 396.599388 
L 251.544241 405.928979 
L 251.763794 431.120559 
L 251.983347 475.69319 
L 252.2029 334.11292 
L 252.422453 358.031511 
L 252.642006 540.424264 
L 252.86156 406.282495 
L 253.081113 374.06997 
L 253.300666 492.867784 
L 253.520219 536.361304 
L 253.739772 467.838139 
L 253.959325 566.652489 
L 254.178878 381.564268 
L 254.398432 450.810001 
L 254.617985 568.718392 
L 254.837538 407.336678 
L 255.057091 465.931175 
L 255.276644 492.547395 
L 255.715751 363.595544 
L 255.935304 363.549387 
L 256.154857 526.852491 
L 256.37441 486.550235 
L 256.593963 475.556674 
L 256.813516 407.827295 
L 257.252623 474.4828 
L 257.472176 454.85008 
L 257.691729 396.584672 
L 257.911282 516.251028 
L 258.350388 389.585968 
L 258.789495 442.655118 
L 259.009048 414.497195 
L 259.228601 358.254578 
L 259.667707 517.763366 
L 259.88726 436.906887 
L 260.106814 441.580566 
L 260.326367 501.782394 
L 260.54592 524.381367 
L 260.765473 330.126838 
L 260.985026 369.5251 
L 261.204579 453.897695 
L 261.424133 482.256646 
L 261.863239 131.956182 
L 262.082792 468.822514 
L 262.302345 436.525015 
L 262.521898 516.152262 
L 262.741451 413.007256 
L 262.961005 537.224824 
L 263.180558 424.112302 
L 263.400111 371.853571 
L 263.839217 497.428185 
L 264.05877 514.396919 
L 264.278324 427.906286 
L 264.497877 412.459339 
L 264.71743 253.111829 
L 264.936983 407.358582 
L 265.156536 463.667074 
L 265.376089 410.466215 
L 265.595642 389.749733 
L 265.815196 394.944959 
L 266.034749 375.360212 
L 266.254302 480.721006 
L 266.473855 384.638237 
L 266.693408 514.673615 
L 266.912961 456.511013 
L 267.132514 488.798715 
L 267.352068 464.837789 
L 267.791174 528.367297 
L 268.010727 401.858535 
L 268.23028 496.69443 
L 268.449833 493.590927 
L 268.669387 507.288052 
L 269.108493 427.340301 
L 269.328046 477.342209 
L 269.547599 448.893542 
L 269.767152 514.356181 
L 270.206259 404.194796 
L 270.425812 519.155651 
L 270.645365 494.763981 
L 270.864918 571.742773 
L 271.084471 412.88007 
L 271.304024 454.879485 
L 271.523578 428.922283 
L 271.743131 498.591698 
L 271.962684 443.209264 
L 272.182237 473.941024 
L 272.40179 370.012175 
L 272.621343 546.832064 
L 272.840896 355.216035 
L 273.06045 342.725971 
L 273.499556 490.519089 
L 273.719109 448.70546 
L 273.938662 301.554901 
L 274.158215 441.779437 
L 274.377769 440.044122 
L 274.597322 468.505975 
L 274.816875 469.60029 
L 275.036428 398.432421 
L 275.255981 460.924205 
L 275.695087 358.146588 
L 275.914641 452.692892 
L 276.134194 397.712839 
L 276.353747 485.488572 
L 276.5733 389.103648 
L 276.792853 479.457614 
L 277.012406 409.583037 
L 277.671066 318.718979 
L 277.890619 487.110531 
L 278.110172 455.530645 
L 278.329725 473.176178 
L 278.549278 411.774064 
L 278.768832 506.75193 
L 278.988385 544.409718 
L 279.207938 432.066073 
L 279.427491 426.244669 
L 279.647044 517.09665 
L 279.866597 431.045447 
L 280.086151 410.103206 
L 280.305704 447.202502 
L 280.525257 353.386725 
L 280.74481 499.955857 
L 281.183916 448.110265 
L 281.403469 518.121664 
L 281.623023 526.491241 
L 281.842576 434.341425 
L 282.281682 380.452203 
L 282.501235 319.128891 
L 282.720788 445.950188 
L 282.940342 466.73617 
L 283.159895 419.846218 
L 283.379448 477.835481 
L 283.599001 345.269666 
L 283.818554 495.09622 
L 284.038107 456.121046 
L 284.25766 456.099145 
L 284.477214 289.58327 
L 284.696767 437.185964 
L 284.91632 304.083491 
L 285.135873 265.917147 
L 285.355426 467.385573 
L 285.574979 375.202889 
L 285.794533 381.959357 
L 286.014086 481.847094 
L 286.233639 481.975707 
L 286.453192 528.090052 
L 286.672745 401.958843 
L 286.892298 427.256527 
L 287.111851 389.651484 
L 287.331405 221.614049 
L 287.550958 425.839804 
L 287.770511 303.11295 
L 287.990064 488.240702 
L 288.42917 447.027422 
L 288.648724 271.68382 
L 288.868277 478.935515 
L 289.08783 386.703982 
L 289.307383 397.482531 
L 289.526936 359.148903 
L 289.746489 475.637528 
L 289.966042 374.602564 
L 290.185596 466.745911 
L 290.405149 396.466593 
L 290.624702 465.280894 
L 290.844255 484.902323 
L 291.063808 541.748931 
L 291.283361 508.488781 
L 291.502915 396.608359 
L 291.722468 492.691459 
L 291.942021 361.626915 
L 292.381127 497.764419 
L 292.60068 457.62062 
L 292.820233 473.151366 
L 293.039787 430.715828 
L 293.25934 311.708663 
L 293.478893 528.361025 
L 293.698446 401.963519 
L 293.917999 414.551122 
L 294.137552 294.001315 
L 294.357105 486.988922 
L 294.576659 497.868993 
L 295.015765 397.050658 
L 295.235318 435.148775 
L 295.454871 363.258936 
L 295.674424 488.833672 
L 295.893978 198.443874 
L 296.113531 451.146234 
L 296.333084 435.289709 
L 296.552637 470.74049 
L 296.77219 346.471117 
L 296.991743 487.956457 
L 297.211296 497.18091 
L 297.43085 378.085144 
L 297.650403 324.699162 
L 297.869956 447.987375 
L 298.309062 254.502097 
L 298.528615 483.908642 
L 298.748169 477.120354 
L 298.967722 281.194993 
L 299.187275 497.35887 
L 299.406828 417.194022 
L 299.626381 513.281959 
L 299.845934 359.564021 
L 300.065487 495.508333 
L 300.285041 441.794344 
L 300.504594 482.998216 
L 300.724147 462.893706 
L 300.9437 334.001064 
L 301.163253 416.176953 
L 301.382806 396.822775 
L 301.60236 443.041509 
L 301.821913 412.134056 
L 302.041466 419.376086 
L 302.261019 518.186208 
L 302.480572 338.039571 
L 302.700125 378.499933 
L 303.139232 298.516379 
L 303.358785 542.06474 
L 303.797891 328.53069 
L 304.017444 461.522341 
L 304.236997 413.046509 
L 304.456551 467.900514 
L 304.676104 459.78347 
L 304.895657 324.425776 
L 305.11521 402.500475 
L 305.554316 448.683588 
L 305.773869 304.571755 
L 305.993423 535.175206 
L 306.212976 470.017371 
L 306.432529 352.571043 
L 306.652082 515.533551 
L 307.091188 373.227847 
L 307.310742 413.469669 
L 307.530295 424.704476 
L 307.749848 326.021977 
L 307.969401 429.965403 
L 308.408507 410.507425 
L 308.62806 463.487479 
L 308.847614 420.493932 
L 309.067167 425.206522 
L 309.28672 407.839107 
L 309.506273 500.63925 
L 309.725826 478.455495 
L 309.945379 486.731459 
L 310.384486 376.909699 
L 310.823592 489.833425 
L 311.262698 439.506641 
L 311.482251 395.346634 
L 311.701805 193.229889 
L 311.921358 429.185725 
L 312.140911 423.911639 
L 312.360464 442.880693 
L 312.580017 386.308421 
L 312.79957 432.5075 
L 313.019124 539.023201 
L 313.238677 456.543239 
L 313.677783 425.45942 
L 313.897336 462.260155 
L 314.116889 425.371637 
L 314.555996 515.003023 
L 314.995102 367.505104 
L 315.214655 411.489477 
L 315.434208 338.483447 
L 315.653761 433.371014 
L 315.873315 387.612125 
L 316.092868 496.489314 
L 316.312421 405.221432 
L 316.531974 369.000224 
L 316.751527 433.887856 
L 316.97108 343.238416 
L 317.190633 486.773104 
L 317.410187 293.365009 
L 317.62974 476.650077 
L 317.849293 537.040867 
L 318.068846 374.355014 
L 318.507952 477.468475 
L 318.727506 437.764263 
L 318.947059 346.989206 
L 319.166612 476.961266 
L 319.386165 254.861352 
L 319.605718 336.479395 
L 319.825271 237.227974 
L 320.264378 512.80787 
L 320.483931 489.14062 
L 320.703484 313.277191 
L 320.923037 533.468527 
L 321.14259 385.799049 
L 321.362143 416.360809 
L 321.581696 392.763642 
L 322.020803 269.018396 
L 322.240356 421.052089 
L 322.459909 327.263652 
L 322.679462 496.920867 
L 322.899015 492.914745 
L 323.118569 402.814751 
L 323.338122 431.842331 
L 323.557675 495.778372 
L 323.777228 404.978259 
L 323.996781 379.9097 
L 324.216334 214.682727 
L 324.435887 494.796578 
L 324.655441 356.070436 
L 324.874994 423.961594 
L 325.094547 168.747842 
L 325.3141 452.783642 
L 325.533653 389.82617 
L 325.753206 417.56946 
L 325.97276 324.673274 
L 326.192313 440.557025 
L 326.411866 373.438235 
L 326.631419 363.178442 
L 326.850972 400.709134 
L 327.070525 389.694445 
L 327.290078 475.325494 
L 327.509632 473.634225 
L 327.729185 428.719826 
L 327.948738 532.126489 
L 328.168291 423.172853 
L 328.387844 430.946455 
L 328.607397 415.667071 
L 328.826951 376.471285 
L 329.046504 418.060382 
L 329.266057 407.438788 
L 329.48561 331.665584 
L 329.705163 337.305282 
L 329.924716 515.837546 
L 330.144269 508.185368 
L 330.363823 530.046434 
L 330.583376 404.043933 
L 330.802929 420.770204 
L 331.022482 485.978266 
L 331.242035 439.279469 
L 331.681142 493.907144 
L 331.900695 510.236839 
L 332.120248 328.496375 
L 332.339801 440.561659 
L 332.559354 399.111829 
L 332.99846 472.26218 
L 333.218014 233.905478 
L 333.437567 487.78226 
L 333.65712 500.027452 
L 333.876673 423.498796 
L 334.096226 433.198172 
L 334.315779 378.588525 
L 334.535333 421.090834 
L 334.754886 522.046892 
L 335.413545 448.933938 
L 335.633098 451.200844 
L 335.852651 537.079853 
L 336.072205 525.005612 
L 336.291758 447.257378 
L 336.511311 546.493477 
L 336.730864 417.457336 
L 336.950417 497.343231 
L 337.16997 487.248902 
L 337.389524 415.493888 
L 337.609077 450.410634 
L 337.82863 527.886877 
L 338.048183 400.075555 
L 338.267736 483.789497 
L 338.487289 450.930688 
L 338.706842 467.51471 
L 338.926396 405.389522 
L 339.145949 391.714705 
L 339.365502 462.069506 
L 339.585055 419.682364 
L 339.804608 313.383069 
L 340.024161 286.93797 
L 340.463268 413.792863 
L 340.682821 409.298124 
L 340.902374 500.835673 
L 341.121927 428.854561 
L 341.34148 440.66463 
L 341.561033 337.795032 
L 341.780587 440.430828 
L 342.00014 468.771289 
L 342.658799 438.218763 
L 342.878352 386.609624 
L 343.097906 463.364402 
L 343.317459 430.015189 
L 343.537012 413.715638 
L 343.976118 516.523017 
L 344.195671 393.183368 
L 344.634778 514.78976 
L 344.854331 382.433675 
L 345.073884 539.152695 
L 345.293437 356.352198 
L 345.51299 475.913783 
L 345.732543 372.604013 
L 346.17165 529.126299 
L 346.391203 457.342562 
L 346.610756 505.587068 
L 346.830309 393.393012 
L 347.049862 492.473566 
L 347.269415 332.683682 
L 347.488969 468.488538 
L 347.708522 471.461764 
L 347.928075 361.050635 
L 348.147628 424.707729 
L 348.367181 429.668619 
L 348.586734 438.129113 
L 349.025841 378.097856 
L 349.245394 404.359174 
L 349.464947 460.632668 
L 349.904053 359.897656 
L 350.123606 350.631315 
L 350.34316 362.291403 
L 350.562713 438.174183 
L 351.001819 377.091964 
L 351.221372 274.986023 
L 351.440925 431.122647 
L 351.660478 303.114246 
L 352.099585 441.853685 
L 352.319138 407.812907 
L 352.538691 532.913398 
L 352.758244 137.929638 
L 352.977797 394.039331 
L 353.197351 356.544319 
L 353.416904 511.529073 
L 353.636457 461.717438 
L 353.85601 478.214396 
L 354.075563 477.847477 
L 354.295116 493.514692 
L 354.514669 209.417161 
L 354.734223 421.74691 
L 354.953776 476.470492 
L 355.173329 345.541773 
L 355.392882 408.260496 
L 355.612435 415.398699 
L 355.831988 521.699347 
L 356.051542 461.229062 
L 356.271095 526.892116 
L 356.490648 511.513874 
L 356.929754 309.659915 
L 357.36886 467.835234 
L 357.588414 430.703171 
L 357.807967 329.334384 
L 358.02752 471.04809 
L 358.247073 469.386579 
L 358.466626 493.319154 
L 358.686179 377.779017 
L 359.125286 459.473576 
L 359.344839 457.570519 
L 359.564392 457.924307 
L 360.003498 319.884713 
L 360.223051 321.488683 
L 360.442605 456.862929 
L 360.662158 452.1738 
L 360.881711 324.614963 
L 361.101264 382.692527 
L 361.320817 476.819858 
L 361.54037 467.268962 
L 361.979477 296.505125 
L 362.19903 476.429418 
L 362.418583 430.040094 
L 362.638136 217.731481 
L 362.857689 403.654935 
L 363.077242 491.543716 
L 363.296796 425.437729 
L 363.516349 527.387863 
L 363.735902 471.585138 
L 363.955455 473.542184 
L 364.175008 457.121167 
L 364.394561 510.002961 
L 364.614115 438.475643 
L 365.053221 472.621846 
L 365.272774 310.726243 
L 365.492327 483.517741 
L 365.71188 467.766107 
L 365.931433 377.876338 
L 366.150987 473.925397 
L 366.37054 416.41809 
L 366.590093 399.362621 
L 367.029199 483.697157 
L 367.248752 381.855397 
L 367.468306 457.858755 
L 367.687859 323.872715 
L 367.907412 471.139618 
L 368.126965 417.578215 
L 368.346518 489.386799 
L 368.566071 411.535598 
L 368.785624 551.911738 
L 369.224731 440.532127 
L 369.444284 462.856214 
L 369.663837 380.526897 
L 369.88339 369.731871 
L 370.102943 368.821733 
L 370.322497 437.941867 
L 370.54205 367.543857 
L 370.761603 456.130896 
L 370.981156 398.421434 
L 371.200709 483.791158 
L 371.420262 465.485642 
L 371.639815 469.354225 
L 371.859369 305.864372 
L 372.078922 501.434034 
L 372.298475 448.595972 
L 372.518028 515.770145 
L 372.737581 495.947873 
L 372.957134 404.725138 
L 373.176687 420.636553 
L 373.396241 397.175307 
L 373.615794 491.466896 
L 373.835347 396.486612 
L 374.0549 507.172567 
L 374.274453 387.03545 
L 374.494006 397.556877 
L 374.71356 297.732277 
L 375.152666 463.540171 
L 375.372219 440.581122 
L 375.591772 541.033353 
L 375.811325 355.143251 
L 376.030878 444.803284 
L 376.250432 485.208778 
L 376.469985 381.498577 
L 376.689538 427.330773 
L 377.128644 411.973421 
L 377.348197 485.456647 
L 377.567751 504.702224 
L 377.787304 416.321081 
L 378.006857 436.139704 
L 378.22641 245.351039 
L 378.445963 447.979595 
L 378.665516 507.156898 
L 378.885069 200.62685 
L 379.104623 479.364666 
L 379.324176 485.453015 
L 379.543729 436.192489 
L 379.763282 326.034716 
L 379.982835 549.077242 
L 380.202388 452.305118 
L 380.421942 474.062525 
L 380.641495 420.747948 
L 380.861048 274.393124 
L 381.080601 416.163873 
L 381.300154 403.743547 
L 381.519707 406.569498 
L 381.73926 518.744207 
L 381.958814 340.783598 
L 382.39792 495.575806 
L 382.617473 329.312877 
L 382.837026 485.413317 
L 383.056579 410.99698 
L 383.276133 511.883523 
L 383.495686 458.879927 
L 383.715239 494.91974 
L 383.934792 374.823896 
L 384.154345 478.590676 
L 384.373898 410.605816 
L 384.593451 517.25962 
L 385.032558 427.356415 
L 385.252111 412.644313 
L 385.471664 342.121197 
L 385.691217 469.937764 
L 385.91077 404.380782 
L 386.130324 457.513372 
L 386.349877 461.560154 
L 386.56943 481.429643 
L 387.008536 296.336878 
L 387.228089 555.954323 
L 387.447642 205.415114 
L 387.667196 462.174144 
L 387.886749 513.224842 
L 388.106302 423.002498 
L 388.325855 481.670638 
L 388.545408 432.128404 
L 388.764961 455.033 
L 388.984515 332.331663 
L 389.204068 456.258208 
L 389.423621 286.564537 
L 389.862727 426.817854 
L 390.08228 337.983112 
L 390.301833 463.613925 
L 390.521387 393.253143 
L 390.74094 427.780567 
L 390.960493 443.873712 
L 391.180046 373.952237 
L 391.399599 383.279134 
L 391.619152 304.356452 
L 392.277812 480.070414 
L 392.497365 374.407264 
L 392.716918 408.661067 
L 392.936471 299.73384 
L 393.156024 490.099481 
L 393.375578 387.759872 
L 393.595131 425.999909 
L 393.814684 506.26607 
L 394.034237 502.129625 
L 394.25379 478.531808 
L 394.473343 568.400717 
L 394.692897 363.617569 
L 395.132003 568.048106 
L 395.351556 486.537284 
L 395.571109 455.600394 
L 395.790662 400.71856 
L 396.010215 476.333835 
L 396.229769 493.963927 
L 396.449322 378.711249 
L 396.668875 446.240105 
L 396.888428 459.241783 
L 397.107981 508.761167 
L 397.547087 258.16812 
L 397.766641 411.375598 
L 397.986194 370.590447 
L 398.205747 540.219025 
L 398.4253 361.386098 
L 398.644853 424.34425 
L 399.08396 460.993748 
L 399.303513 513.894316 
L 399.523066 421.776048 
L 399.742619 498.141279 
L 399.962172 446.177601 
L 400.401278 492.096452 
L 400.620832 460.06524 
L 400.840385 309.632323 
L 401.059938 419.800236 
L 401.279491 389.65657 
L 401.499044 480.611176 
L 401.718597 357.677826 
L 401.938151 458.602475 
L 402.157704 424.105694 
L 402.59681 493.963816 
L 402.816363 431.694092 
L 403.035916 451.408544 
L 403.255469 536.779422 
L 403.475023 522.241901 
L 403.694576 479.108976 
L 403.914129 481.381051 
L 404.133682 441.798014 
L 404.353235 422.969281 
L 404.572788 326.348352 
L 404.792342 436.655471 
L 405.011895 421.030449 
L 405.231448 474.853676 
L 405.451001 467.774961 
L 405.670554 511.076252 
L 405.890107 316.856152 
L 406.10966 560.914516 
L 406.329214 491.433035 
L 406.548767 468.7218 
L 406.76832 526.992367 
L 406.987873 251.099302 
L 407.426979 497.491314 
L 407.646533 496.50827 
L 407.866086 329.896899 
L 408.085639 468.846006 
L 408.305192 448.509045 
L 408.524745 465.931808 
L 408.744298 455.28019 
L 408.963851 480.343348 
L 409.183405 352.758237 
L 409.402958 500.894349 
L 409.622511 438.495013 
L 409.842064 531.723223 
L 410.061617 364.149173 
L 410.28117 388.403328 
L 410.500724 457.83703 
L 410.720277 430.675463 
L 410.93983 465.310414 
L 411.159383 334.667547 
L 411.378936 458.067492 
L 411.598489 499.899224 
L 411.818042 479.385555 
L 412.037596 406.528035 
L 412.257149 442.290278 
L 412.476702 431.844684 
L 412.696255 452.202713 
L 412.915808 435.992657 
L 413.135361 444.003249 
L 413.354915 440.453878 
L 413.574468 547.959285 
L 413.794021 405.424379 
L 414.013574 338.810129 
L 414.45268 510.273939 
L 414.672233 451.327095 
L 414.891787 441.912311 
L 415.11134 437.313941 
L 415.330893 513.9093 
L 415.550446 446.322295 
L 415.769999 464.979122 
L 415.989552 525.743953 
L 416.428659 458.551124 
L 416.648212 509.644139 
L 416.867765 500.893181 
L 417.087318 470.460152 
L 417.306871 327.66495 
L 417.526424 394.412442 
L 417.745978 422.233052 
L 417.965531 477.910971 
L 418.185084 452.056014 
L 418.404637 463.538316 
L 418.62419 488.476373 
L 418.843743 483.289045 
L 419.063297 440.182539 
L 419.28285 490.266851 
L 419.502403 364.052735 
L 419.721956 475.832819 
L 419.941509 425.391243 
L 420.161062 449.649281 
L 420.380615 276.639684 
L 420.600169 411.85333 
L 420.819722 405.091096 
L 421.039275 406.033385 
L 421.258828 511.767398 
L 421.478381 450.17757 
L 421.697934 420.252608 
L 421.917488 374.824059 
L 422.137041 450.130086 
L 422.356594 345.977931 
L 422.576147 363.716272 
L 422.7957 481.763467 
L 423.015253 527.592175 
L 423.234806 412.525761 
L 423.45436 411.949455 
L 423.673913 477.372831 
L 423.893466 391.483601 
L 424.332572 442.060089 
L 424.552125 450.789894 
L 424.771678 473.588848 
L 425.210785 438.844452 
L 425.430338 427.786264 
L 425.649891 380.446434 
L 425.869444 419.657832 
L 426.088997 415.028419 
L 426.308551 361.776755 
L 426.528104 442.694409 
L 426.747657 381.857243 
L 426.96721 469.080313 
L 427.186763 317.433101 
L 427.406316 245.048788 
L 427.625869 408.834922 
L 427.845423 391.916322 
L 428.064976 476.730289 
L 428.284529 481.717197 
L 428.504082 442.360789 
L 428.723635 431.310867 
L 428.943188 352.466811 
L 429.162742 541.958992 
L 429.382295 411.181151 
L 429.601848 427.990437 
L 429.821401 297.869373 
L 430.040954 398.845596 
L 430.260507 411.911346 
L 430.48006 361.762807 
L 430.699614 497.784005 
L 430.919167 395.223511 
L 431.13872 510.660024 
L 431.358273 475.706066 
L 431.577826 470.987949 
L 431.797379 489.346276 
L 432.016933 529.740276 
L 432.236486 460.614428 
L 432.456039 148.96619 
L 432.675592 401.262206 
L 432.895145 435.530188 
L 433.114698 510.218319 
L 433.553805 419.493719 
L 433.773358 414.14666 
L 433.992911 463.956252 
L 434.212464 482.226214 
L 434.432017 429.785835 
L 434.65157 418.190215 
L 434.871124 518.74673 
L 435.090677 431.507192 
L 435.31023 479.234446 
L 435.529783 395.822781 
L 435.749336 540.105384 
L 436.188442 326.661072 
L 436.407996 444.847167 
L 436.627549 452.658599 
L 436.847102 477.378941 
L 437.066655 475.779483 
L 437.286208 392.898466 
L 437.505761 428.709942 
L 437.725315 439.797292 
L 437.944868 373.825741 
L 438.164421 391.092085 
L 438.383974 511.426809 
L 438.603527 410.675326 
L 438.82308 457.078995 
L 439.042633 402.045043 
L 439.262187 404.129274 
L 439.48174 509.582066 
L 439.701293 373.799075 
L 440.140399 519.656584 
L 440.359952 354.227334 
L 440.579506 488.898618 
L 441.018612 378.110527 
L 441.238165 461.086886 
L 441.457718 461.567349 
L 441.677271 550.008385 
L 442.116378 397.715821 
L 442.335931 463.944028 
L 442.555484 375.109074 
L 442.775037 477.819037 
L 442.99459 321.846897 
L 443.214143 447.126175 
L 443.433697 346.847764 
L 443.65325 385.764417 
L 443.872803 241.102066 
L 444.092356 379.922946 
L 444.311909 341.1539 
L 444.531462 526.415602 
L 444.751015 379.887383 
L 444.970569 398.793004 
L 445.190122 340.26179 
L 445.409675 399.555401 
L 445.629228 345.240035 
L 445.848781 476.164968 
L 446.068334 379.458373 
L 446.287888 424.361133 
L 446.507441 386.369833 
L 446.726994 407.828047 
L 446.946547 314.332569 
L 447.385653 493.516168 
L 447.605206 478.352177 
L 447.82476 486.40073 
L 448.044313 503.546575 
L 448.483419 357.560688 
L 448.702972 488.408863 
L 448.922525 421.889828 
L 449.142079 543.167926 
L 449.361632 428.985624 
L 449.581185 439.628337 
L 449.800738 433.750911 
L 450.020291 440.061163 
L 450.239844 323.323767 
L 450.459397 484.884592 
L 450.678951 387.756084 
L 450.898504 485.539629 
L 451.118057 339.380997 
L 451.33761 447.835489 
L 451.557163 453.958265 
L 451.776716 365.611726 
L 451.996269 392.746843 
L 452.215823 403.837371 
L 452.435376 440.168458 
L 452.654929 330.366536 
L 452.874482 515.43934 
L 453.094035 396.599836 
L 453.313588 403.539472 
L 453.533142 376.620563 
L 453.972248 495.616887 
L 454.191801 513.35454 
L 454.630907 352.690502 
L 454.85046 353.114844 
L 455.070014 423.748535 
L 455.289567 445.747669 
L 455.50912 348.858342 
L 455.728673 380.323435 
L 455.948226 355.94244 
L 456.167779 486.888742 
L 456.387333 363.183897 
L 456.606886 429.610441 
L 456.826439 455.166429 
L 457.045992 376.232797 
L 457.265545 438.328702 
L 457.485098 436.477811 
L 457.704651 371.052548 
L 457.924205 474.858575 
L 458.143758 343.734041 
L 458.363311 325.107054 
L 458.582864 478.053133 
L 458.802417 377.363985 
L 459.02197 458.89143 
L 459.241524 477.474102 
L 459.461077 425.449746 
L 459.68063 424.54358 
L 459.900183 406.999827 
L 460.119736 339.997569 
L 460.339289 468.649138 
L 460.558842 352.174054 
L 460.778396 478.15504 
L 460.997949 461.328583 
L 461.217502 343.392465 
L 461.656608 415.944382 
L 461.876161 399.122647 
L 462.095715 442.616938 
L 462.315268 347.892284 
L 462.534821 309.378665 
L 462.754374 411.012246 
L 462.973927 418.961256 
L 463.19348 401.779083 
L 463.413033 466.956855 
L 463.632587 497.118651 
L 463.85214 453.002476 
L 464.071693 307.4055 
L 464.291246 548.569047 
L 464.510799 295.264563 
L 464.949906 531.642196 
L 465.169459 345.135856 
L 465.389012 359.717736 
L 465.608565 449.601735 
L 465.828118 419.433358 
L 466.047671 516.962543 
L 466.267224 478.755864 
L 466.486778 468.147528 
L 466.706331 353.360365 
L 466.925884 435.567432 
L 467.145437 322.847449 
L 467.36499 322.68153 
L 467.584543 421.871051 
L 467.804097 447.359986 
L 468.02365 500.245932 
L 468.243203 472.363232 
L 468.462756 401.853714 
L 468.682309 233.362422 
L 468.901862 516.3417 
L 469.121415 416.503088 
L 469.340969 495.104656 
L 469.560522 474.747865 
L 469.780075 502.950271 
L 469.999628 410.601086 
L 470.219181 424.549486 
L 470.438734 547.568524 
L 470.658288 465.375419 
L 470.877841 466.48464 
L 471.097394 344.134814 
L 471.316947 495.849406 
L 471.5365 399.165878 
L 471.756053 488.849017 
L 471.975606 332.698241 
L 472.19516 458.321546 
L 472.414713 263.505717 
L 472.634266 474.372762 
L 473.073372 256.859976 
L 473.512479 538.79154 
L 473.732032 385.440658 
L 473.951585 396.552408 
L 474.390691 357.388338 
L 474.610244 448.314176 
L 474.829797 487.643186 
L 475.049351 471.448589 
L 475.268904 336.769518 
L 475.488457 505.923779 
L 475.927563 307.185492 
L 476.147116 451.632454 
L 476.366669 342.084405 
L 476.586223 518.395625 
L 476.805776 273.563544 
L 477.025329 447.901283 
L 477.244882 368.643198 
L 477.464435 462.072932 
L 477.683988 353.830525 
L 477.903542 484.112155 
L 478.123095 451.690545 
L 478.342648 394.365804 
L 478.562201 464.840212 
L 478.781754 381.906887 
L 479.001307 464.501502 
L 479.22086 441.21258 
L 479.440414 294.633757 
L 479.87952 506.130163 
L 480.099073 376.60182 
L 480.318626 498.228784 
L 480.757733 333.472347 
L 480.977286 363.312572 
L 481.196839 344.998612 
L 481.416392 479.355964 
L 481.635945 329.082058 
L 481.855498 443.549981 
L 482.075051 327.769648 
L 482.294605 498.377466 
L 482.514158 422.431316 
L 483.172817 497.992819 
L 483.39237 357.166042 
L 483.831477 534.792868 
L 484.05103 491.400719 
L 484.270583 362.456524 
L 484.490136 511.038247 
L 484.709689 476.707103 
L 484.929242 416.57309 
L 485.148796 237.097478 
L 485.368349 427.937148 
L 485.587902 492.505704 
L 485.807455 460.269664 
L 486.027008 307.398393 
L 486.246561 355.529311 
L 486.466115 433.681965 
L 486.685668 419.093376 
L 486.905221 492.809304 
L 487.124774 440.393049 
L 487.344327 350.913716 
L 487.783433 476.873827 
L 488.002987 482.514173 
L 488.22254 549.067639 
L 488.442093 508.985896 
L 488.661646 388.214221 
L 489.100752 368.14919 
L 489.320306 410.714157 
L 489.539859 385.641305 
L 489.759412 346.379207 
L 489.978965 499.858065 
L 490.198518 392.370611 
L 490.418071 491.043242 
L 490.637624 495.25664 
L 490.857178 214.112137 
L 491.076731 530.157065 
L 491.296284 509.439394 
L 491.515837 530.279675 
L 491.73539 334.958215 
L 491.954943 362.299229 
L 492.174497 462.758381 
L 492.39405 440.918158 
L 492.613603 494.54366 
L 492.833156 494.325176 
L 493.052709 439.075072 
L 493.272262 443.094397 
L 493.491815 459.456364 
L 493.711369 496.907274 
L 493.930922 372.445301 
L 494.150475 493.414546 
L 494.370028 419.517337 
L 494.589581 403.668033 
L 494.809134 478.833214 
L 495.248241 377.863334 
L 495.467794 512.652914 
L 495.687347 457.075287 
L 495.9069 289.119312 
L 496.126453 354.322019 
L 496.346006 382.004513 
L 496.56556 540.736037 
L 496.785113 353.951467 
L 497.004666 407.249803 
L 497.224219 418.904061 
L 497.443772 492.850197 
L 497.663325 443.428445 
L 498.102432 511.025024 
L 498.321985 464.302246 
L 498.541538 393.064672 
L 498.761091 491.83122 
L 499.419751 211.087465 
L 499.639304 451.204812 
L 499.858857 492.543904 
L 500.07841 237.277796 
L 500.297963 456.46645 
L 500.517516 492.790701 
L 500.73707 477.860113 
L 500.956623 413.741298 
L 501.176176 485.834427 
L 501.395729 503.20137 
L 501.615282 348.376676 
L 502.054388 477.598518 
L 502.273942 437.706835 
L 502.493495 465.491676 
L 502.713048 270.046218 
L 502.932601 272.739604 
L 503.371707 404.503768 
L 503.59126 519.812239 
L 503.810814 432.032227 
L 504.24992 491.939267 
L 504.689026 424.255415 
L 504.908579 431.673743 
L 505.128133 483.692569 
L 505.347686 487.022264 
L 505.567239 306.027058 
L 505.786792 316.826827 
L 506.006345 471.730388 
L 506.225898 389.408134 
L 506.665005 343.837075 
L 506.884558 428.573715 
L 507.104111 445.091931 
L 507.323664 508.332789 
L 507.543217 391.672072 
L 507.76277 400.827669 
L 507.982324 282.471438 
L 508.201877 474.275755 
L 508.42143 485.784037 
L 508.640983 386.321376 
L 508.860536 443.912404 
L 509.080089 531.23596 
L 509.299642 324.174432 
L 509.519196 427.704721 
L 509.738749 416.262891 
L 509.958302 455.884273 
L 510.177855 515.61914 
L 510.397408 371.552284 
L 510.616961 446.719019 
L 510.836515 417.231938 
L 511.056068 458.01989 
L 511.275621 448.055842 
L 511.495174 243.911448 
L 511.714727 499.356967 
L 511.93428 463.613348 
L 512.153833 453.273325 
L 512.373387 340.004262 
L 512.59294 349.261298 
L 513.032046 423.392208 
L 513.251599 260.119811 
L 513.471152 528.626182 
L 513.690706 373.763998 
L 513.910259 471.945279 
L 514.129812 494.884673 
L 514.568918 386.70079 
L 514.788471 391.800253 
L 515.008024 459.311585 
L 515.227578 411.97998 
L 515.447131 459.539105 
L 515.666684 472.572388 
L 515.886237 403.703745 
L 516.10579 398.751444 
L 516.325343 462.389831 
L 516.544897 321.878981 
L 516.984003 475.238981 
L 517.203556 318.563366 
L 517.423109 497.705261 
L 517.642662 453.267491 
L 517.862215 494.696354 
L 518.081769 411.120424 
L 518.301322 507.431848 
L 518.520875 500.913569 
L 518.959981 351.953695 
L 519.179534 464.012485 
L 519.399088 466.1026 
L 519.618641 496.835887 
L 519.838194 409.332511 
L 520.057747 420.479447 
L 520.2773 399.118078 
L 520.496853 309.881039 
L 520.716406 487.327692 
L 520.93596 285.922684 
L 521.375066 521.194686 
L 521.594619 447.719314 
L 521.814172 492.045154 
L 522.033725 470.386527 
L 522.253279 397.218649 
L 522.472832 388.963658 
L 522.692385 417.984782 
L 522.911938 364.023987 
L 523.131491 486.509507 
L 523.351044 462.432739 
L 523.570597 474.743037 
L 523.790151 430.35739 
L 524.009704 440.373064 
L 524.229257 427.205511 
L 524.44881 511.546174 
L 524.668363 360.656216 
L 524.887916 528.857882 
L 525.327023 421.67601 
L 525.546576 452.332225 
L 525.766129 444.833981 
L 525.985682 490.372303 
L 526.205235 502.467486 
L 526.424788 527.214 
L 526.644342 374.912096 
L 526.863895 435.79813 
L 527.083448 390.95691 
L 527.303001 256.029445 
L 527.522554 498.349206 
L 527.742107 478.801617 
L 527.96166 403.335663 
L 528.181214 469.270073 
L 528.400767 305.383979 
L 528.62032 407.475946 
L 528.839873 341.377341 
L 529.278979 513.963806 
L 529.498533 405.99186 
L 529.718086 413.432204 
L 529.937639 446.914655 
L 530.157192 407.659629 
L 530.376745 535.988905 
L 530.596298 491.975302 
L 531.035405 454.192637 
L 531.474511 281.586858 
L 531.694064 441.519453 
L 531.913617 387.744993 
L 532.13317 502.024149 
L 532.572277 323.130143 
L 532.79183 485.006845 
L 533.230936 301.905959 
L 533.450489 452.318641 
L 533.670042 478.820796 
L 533.889596 439.965915 
L 534.109149 449.095378 
L 534.328702 382.824505 
L 534.548255 454.184625 
L 534.767808 389.803413 
L 535.206915 519.254112 
L 535.426468 506.558576 
L 535.646021 218.344366 
L 535.865574 504.835943 
L 536.085127 274.180811 
L 536.30468 473.114213 
L 536.524233 428.903953 
L 536.743787 498.697948 
L 537.182893 401.321514 
L 537.402446 430.950853 
L 537.621999 324.951564 
L 538.061106 521.963896 
L 538.280659 294.221848 
L 538.719765 469.443802 
L 538.939318 341.036722 
L 539.158871 385.066673 
L 539.597978 504.251647 
L 539.817531 514.159878 
L 540.037084 414.039231 
L 540.256637 387.483985 
L 540.47619 331.977967 
L 540.695743 443.558416 
L 540.915297 273.212659 
L 541.13485 481.954196 
L 541.354403 419.344418 
L 541.573956 452.853156 
L 541.793509 438.8428 
L 542.013062 519.164338 
L 542.232615 510.947694 
L 542.452169 266.024241 
L 542.671722 327.274937 
L 542.891275 464.503352 
L 543.110828 476.458332 
L 543.330381 454.140918 
L 543.549934 464.011893 
L 543.989041 325.198466 
L 544.208594 278.581092 
L 544.428147 309.521161 
L 544.6477 366.393573 
L 544.867253 367.883996 
L 545.086806 478.094109 
L 545.30636 401.448613 
L 545.525913 266.53226 
L 545.745466 531.67835 
L 545.745466 531.67835 
" style="fill:none;stroke:#96c69a;stroke-linecap:round;stroke-width:3;"/>
   </g>
   <g id="line2d_2"/>
   <g id="patch_3">
    <path d="M 84.914375 603.86 
L 84.914375 109.484571 
" style="fill:none;stroke:#262626;stroke-linecap:square;stroke-linejoin:miter;stroke-width:2.5;"/>
   </g>
   <g id="patch_4">
    <path d="M 84.914375 603.86 
L 567.689804 603.86 
" style="fill:none;stroke:#262626;stroke-linecap:square;stroke-linejoin:miter;stroke-width:2.5;"/>
   </g>
   <g id="legend_1">
    <g id="patch_5">
     <path d="M 514.774179 598.86 
L 560.689804 598.86 
Q 562.689804 598.86 562.689804 596.86 
L 562.689804 554.954375 
Q 562.689804 552.954375 560.689804 552.954375 
L 514.774179 552.954375 
Q 512.774179 552.954375 512.774179 554.954375 
L 512.774179 596.86 
Q 512.774179 598.86 514.774179 598.86 
z
" style="fill:#ffffff;opacity:0.8;stroke:#cccccc;stroke-linejoin:miter;stroke-width:2;"/>
    </g>
    <g id="text_15">
     <!-- $n_\tau$ -->
     <g style="fill:#262626;" transform="translate(524.651991 575.190625)scale(0.24 -0.24)">
      <defs>
       <path d="M 3566 2113 
L 3156 0 
L 2578 0 
L 2988 2091 
Q 3016 2238 3031 2350 
Q 3047 2463 3047 2528 
Q 3047 2791 2881 2937 
Q 2716 3084 2419 3084 
Q 1956 3084 1622 2776 
Q 1288 2469 1184 1941 
L 800 0 
L 225 0 
L 903 3500 
L 1478 3500 
L 1363 2950 
Q 1603 3253 1940 3418 
Q 2278 3584 2650 3584 
Q 3113 3584 3367 3334 
Q 3622 3084 3622 2631 
Q 3622 2519 3608 2391 
Q 3594 2263 3566 2113 
z
" id="DejaVuSans-Oblique-6e" transform="scale(0.015625)"/>
       <path d="M 2103 638 
Q 2188 488 2525 488 
L 2800 488 
L 2706 0 
L 2363 0 
Q 1800 0 1600 300 
Q 1403 606 1534 1269 
L 1856 2925 
L 541 2925 
L 653 3500 
L 3881 3500 
L 3769 2925 
L 2444 2925 
L 2113 1234 
Q 2025 781 2103 638 
z
" id="DejaVuSans-Oblique-3c4" transform="scale(0.015625)"/>
      </defs>
      <use xlink:href="#DejaVuSans-Oblique-6e"/>
      <use transform="translate(63.378906 -16.40625)scale(0.7)" xlink:href="#DejaVuSans-Oblique-3c4"/>
     </g>
    </g>
    <g id="line2d_3">
     <path d="M 516.774179 589.280313 
L 536.774179 589.280313 
" style="fill:none;stroke:#96c69a;stroke-linecap:round;stroke-width:3;"/>
    </g>
    <g id="line2d_4"/>
    <g id="text_16">
     <!-- 25 -->
     <g style="fill:#262626;" transform="translate(544.774179 592.780313)scale(0.1 -0.1)">
      <defs>
       <path d="M 1844 884 
L 3897 884 
L 3897 0 
L 506 0 
L 506 884 
L 2209 2388 
Q 2438 2594 2547 2791 
Q 2656 2988 2656 3200 
Q 2656 3528 2436 3728 
Q 2216 3928 1850 3928 
Q 1569 3928 1234 3808 
Q 900 3688 519 3450 
L 519 4475 
Q 925 4609 1322 4679 
Q 1719 4750 2100 4750 
Q 2938 4750 3402 4381 
Q 3866 4013 3866 3353 
Q 3866 2972 3669 2642 
Q 3472 2313 2841 1759 
L 1844 884 
z
" id="DejaVuSans-Bold-32" transform="scale(0.015625)"/>
       <path d="M 678 4666 
L 3669 4666 
L 3669 3781 
L 1638 3781 
L 1638 3059 
Q 1775 3097 1914 3117 
Q 2053 3138 2203 3138 
Q 3056 3138 3531 2711 
Q 4006 2284 4006 1522 
Q 4006 766 3489 337 
Q 2972 -91 2053 -91 
Q 1656 -91 1267 -14 
Q 878 63 494 219 
L 494 1166 
Q 875 947 1217 837 
Q 1559 728 1863 728 
Q 2300 728 2551 942 
Q 2803 1156 2803 1522 
Q 2803 1891 2551 2103 
Q 2300 2316 1863 2316 
Q 1603 2316 1309 2248 
Q 1016 2181 678 2041 
L 678 4666 
z
" id="DejaVuSans-Bold-35" transform="scale(0.015625)"/>
      </defs>
      <use xlink:href="#DejaVuSans-Bold-32"/>
      <use x="69.580078" xlink:href="#DejaVuSans-Bold-35"/>
     </g>
    </g>
   </g>
  </g>
  <g id="axes_2">
   <g id="patch_6">
    <path d="M 84.914375 92.437143 
L 567.689804 92.437143 
L 567.689804 7.2 
L 84.914375 7.2 
z
" style="fill:none;"/>
   </g>
   <g id="matplotlib.axis_3">
    <g id="xtick_7"/>
    <g id="xtick_8"/>
    <g id="xtick_9"/>
    <g id="xtick_10"/>
    <g id="xtick_11"/>
    <g id="xtick_12"/>
   </g>
   <g id="matplotlib.axis_4">
    <g id="ytick_7">
     <g id="text_17">
      <!-- 0 -->
      <g style="fill:#262626;" transform="translate(55.416875 100.795424)scale(0.22 -0.22)">
       <use xlink:href="#DejaVuSans-30"/>
      </g>
     </g>
    </g>
    <g id="ytick_8">
     <g id="text_18">
      <!-- 100 -->
      <g style="fill:#262626;" transform="translate(27.421875 48.082287)scale(0.22 -0.22)">
       <use xlink:href="#DejaVuSans-31"/>
       <use x="63.623047" xlink:href="#DejaVuSans-30"/>
       <use x="127.246094" xlink:href="#DejaVuSans-30"/>
      </g>
     </g>
    </g>
   </g>
   <g id="patch_7">
    <path clip-path="url(#pcdb95f5fad)" d="M 106.858713 92.437143 
L 140.619232 92.437143 
L 140.619232 11.258912 
L 106.858713 11.258912 
z
" style="fill:#96c69a;fill-opacity:0.5;stroke:#ffffff;stroke-linejoin:miter;stroke-width:2;"/>
   </g>
   <g id="patch_8">
    <path clip-path="url(#pcdb95f5fad)" d="M 140.619232 92.437143 
L 174.379752 92.437143 
L 174.379752 11.258912 
L 140.619232 11.258912 
z
" style="fill:#96c69a;fill-opacity:0.5;stroke:#ffffff;stroke-linejoin:miter;stroke-width:2;"/>
   </g>
   <g id="patch_9">
    <path clip-path="url(#pcdb95f5fad)" d="M 174.379752 92.437143 
L 208.140271 92.437143 
L 208.140271 11.258912 
L 174.379752 11.258912 
z
" style="fill:#96c69a;fill-opacity:0.5;stroke:#ffffff;stroke-linejoin:miter;stroke-width:2;"/>
   </g>
   <g id="patch_10">
    <path clip-path="url(#pcdb95f5fad)" d="M 208.140271 92.437143 
L 241.900791 92.437143 
L 241.900791 11.258912 
L 208.140271 11.258912 
z
" style="fill:#96c69a;fill-opacity:0.5;stroke:#ffffff;stroke-linejoin:miter;stroke-width:2;"/>
   </g>
   <g id="patch_11">
    <path clip-path="url(#pcdb95f5fad)" d="M 241.900791 92.437143 
L 275.66131 92.437143 
L 275.66131 11.786043 
L 241.900791 11.786043 
z
" style="fill:#96c69a;fill-opacity:0.5;stroke:#ffffff;stroke-linejoin:miter;stroke-width:2;"/>
   </g>
   <g id="patch_12">
    <path clip-path="url(#pcdb95f5fad)" d="M 275.66131 92.437143 
L 309.42183 92.437143 
L 309.42183 11.258912 
L 275.66131 11.258912 
z
" style="fill:#96c69a;fill-opacity:0.5;stroke:#ffffff;stroke-linejoin:miter;stroke-width:2;"/>
   </g>
   <g id="patch_13">
    <path clip-path="url(#pcdb95f5fad)" d="M 309.42183 92.437143 
L 343.182349 92.437143 
L 343.182349 11.258912 
L 309.42183 11.258912 
z
" style="fill:#96c69a;fill-opacity:0.5;stroke:#ffffff;stroke-linejoin:miter;stroke-width:2;"/>
   </g>
   <g id="patch_14">
    <path clip-path="url(#pcdb95f5fad)" d="M 343.182349 92.437143 
L 376.942869 92.437143 
L 376.942869 11.258912 
L 343.182349 11.258912 
z
" style="fill:#96c69a;fill-opacity:0.5;stroke:#ffffff;stroke-linejoin:miter;stroke-width:2;"/>
   </g>
   <g id="patch_15">
    <path clip-path="url(#pcdb95f5fad)" d="M 376.942869 92.437143 
L 410.703388 92.437143 
L 410.703388 11.786043 
L 376.942869 11.786043 
z
" style="fill:#96c69a;fill-opacity:0.5;stroke:#ffffff;stroke-linejoin:miter;stroke-width:2;"/>
   </g>
   <g id="patch_16">
    <path clip-path="url(#pcdb95f5fad)" d="M 410.703388 92.437143 
L 444.463907 92.437143 
L 444.463907 11.258912 
L 410.703388 11.258912 
z
" style="fill:#96c69a;fill-opacity:0.5;stroke:#ffffff;stroke-linejoin:miter;stroke-width:2;"/>
   </g>
   <g id="patch_17">
    <path clip-path="url(#pcdb95f5fad)" d="M 444.463907 92.437143 
L 478.224427 92.437143 
L 478.224427 11.258912 
L 444.463907 11.258912 
z
" style="fill:#96c69a;fill-opacity:0.5;stroke:#ffffff;stroke-linejoin:miter;stroke-width:2;"/>
   </g>
   <g id="patch_18">
    <path clip-path="url(#pcdb95f5fad)" d="M 478.224427 92.437143 
L 511.984946 92.437143 
L 511.984946 11.258912 
L 478.224427 11.258912 
z
" style="fill:#96c69a;fill-opacity:0.5;stroke:#ffffff;stroke-linejoin:miter;stroke-width:2;"/>
   </g>
   <g id="patch_19">
    <path clip-path="url(#pcdb95f5fad)" d="M 511.984946 92.437143 
L 545.745466 92.437143 
L 545.745466 11.258912 
L 511.984946 11.258912 
z
" style="fill:#96c69a;fill-opacity:0.5;stroke:#ffffff;stroke-linejoin:miter;stroke-width:2;"/>
   </g>
   <g id="patch_20">
    <path d="M 84.914375 92.437143 
L 84.914375 7.2 
" style="fill:none;stroke:#262626;stroke-linecap:square;stroke-linejoin:miter;stroke-width:2.5;"/>
   </g>
   <g id="patch_21">
    <path d="M 84.914375 92.437143 
L 567.689804 92.437143 
" style="fill:none;stroke:#262626;stroke-linecap:square;stroke-linejoin:miter;stroke-width:2.5;"/>
   </g>
  </g>
  <g id="axes_3">
   <g id="patch_22">
    <path d="M 584.337232 603.86 
L 667.574375 603.86 
L 667.574375 109.484571 
L 584.337232 109.484571 
z
" style="fill:none;"/>
   </g>
   <g id="matplotlib.axis_5">
    <g id="xtick_13">
     <g id="text_19">
      <!-- 0 -->
      <g style="fill:#262626;" transform="translate(577.338482 636.076563)scale(0.22 -0.22)">
       <use xlink:href="#DejaVuSans-30"/>
      </g>
     </g>
    </g>
    <g id="xtick_14">
     <g id="text_20">
      <!-- 100 -->
      <g style="fill:#262626;" transform="translate(608.128253 636.076563)scale(0.22 -0.22)">
       <use xlink:href="#DejaVuSans-31"/>
       <use x="63.623047" xlink:href="#DejaVuSans-30"/>
       <use x="127.246094" xlink:href="#DejaVuSans-30"/>
      </g>
     </g>
    </g>
   </g>
   <g id="matplotlib.axis_6">
    <g id="ytick_9"/>
    <g id="ytick_10"/>
    <g id="ytick_11"/>
    <g id="ytick_12"/>
    <g id="ytick_13"/>
    <g id="ytick_14"/>
   </g>
   <g id="patch_23">
    <path clip-path="url(#pdec94b7152)" d="M 584.337232 581.38839 
L 586.576596 581.38839 
L 586.576596 567.769232 
L 584.337232 567.769232 
z
" style="fill:#96c69a;fill-opacity:0.5;stroke:#ffffff;stroke-linejoin:miter;stroke-width:1.361916;"/>
   </g>
   <g id="patch_24">
    <path clip-path="url(#pdec94b7152)" d="M 584.337232 567.769232 
L 587.472341 567.769232 
L 587.472341 554.150074 
L 584.337232 554.150074 
z
" style="fill:#96c69a;fill-opacity:0.5;stroke:#ffffff;stroke-linejoin:miter;stroke-width:1.361916;"/>
   </g>
   <g id="patch_25">
    <path clip-path="url(#pdec94b7152)" d="M 584.337232 554.150074 
L 597.773413 554.150074 
L 597.773413 540.530916 
L 584.337232 540.530916 
z
" style="fill:#96c69a;fill-opacity:0.5;stroke:#ffffff;stroke-linejoin:miter;stroke-width:1.361916;"/>
   </g>
   <g id="patch_26">
    <path clip-path="url(#pdec94b7152)" d="M 584.337232 540.530916 
L 606.282995 540.530916 
L 606.282995 526.911758 
L 584.337232 526.911758 
z
" style="fill:#96c69a;fill-opacity:0.5;stroke:#ffffff;stroke-linejoin:miter;stroke-width:1.361916;"/>
   </g>
   <g id="patch_27">
    <path clip-path="url(#pdec94b7152)" d="M 584.337232 526.911758 
L 612.10534 526.911758 
L 612.10534 513.292601 
L 584.337232 513.292601 
z
" style="fill:#96c69a;fill-opacity:0.5;stroke:#ffffff;stroke-linejoin:miter;stroke-width:1.361916;"/>
   </g>
   <g id="patch_28">
    <path clip-path="url(#pdec94b7152)" d="M 584.337232 513.292601 
L 625.093649 513.292601 
L 625.093649 499.673443 
L 584.337232 499.673443 
z
" style="fill:#96c69a;fill-opacity:0.5;stroke:#ffffff;stroke-linejoin:miter;stroke-width:1.361916;"/>
   </g>
   <g id="patch_29">
    <path clip-path="url(#pdec94b7152)" d="M 584.337232 499.673443 
L 649.726648 499.673443 
L 649.726648 486.054285 
L 584.337232 486.054285 
z
" style="fill:#96c69a;fill-opacity:0.5;stroke:#ffffff;stroke-linejoin:miter;stroke-width:1.361916;"/>
   </g>
   <g id="patch_30">
    <path clip-path="url(#pdec94b7152)" d="M 584.337232 486.054285 
L 654.653247 486.054285 
L 654.653247 472.435127 
L 584.337232 472.435127 
z
" style="fill:#96c69a;fill-opacity:0.5;stroke:#ffffff;stroke-linejoin:miter;stroke-width:1.361916;"/>
   </g>
   <g id="patch_31">
    <path clip-path="url(#pdec94b7152)" d="M 584.337232 472.435127 
L 663.610702 472.435127 
L 663.610702 458.815969 
L 584.337232 458.815969 
z
" style="fill:#96c69a;fill-opacity:0.5;stroke:#ffffff;stroke-linejoin:miter;stroke-width:1.361916;"/>
   </g>
   <g id="patch_32">
    <path clip-path="url(#pdec94b7152)" d="M 584.337232 458.815969 
L 658.684102 458.815969 
L 658.684102 445.196811 
L 584.337232 445.196811 
z
" style="fill:#96c69a;fill-opacity:0.5;stroke:#ffffff;stroke-linejoin:miter;stroke-width:1.361916;"/>
   </g>
   <g id="patch_33">
    <path clip-path="url(#pdec94b7152)" d="M 584.337232 445.196811 
L 655.548993 445.196811 
L 655.548993 431.577654 
L 584.337232 431.577654 
z
" style="fill:#96c69a;fill-opacity:0.5;stroke:#ffffff;stroke-linejoin:miter;stroke-width:1.361916;"/>
   </g>
   <g id="patch_34">
    <path clip-path="url(#pdec94b7152)" d="M 584.337232 431.577654 
L 653.309629 431.577654 
L 653.309629 417.958496 
L 584.337232 417.958496 
z
" style="fill:#96c69a;fill-opacity:0.5;stroke:#ffffff;stroke-linejoin:miter;stroke-width:1.361916;"/>
   </g>
   <g id="patch_35">
    <path clip-path="url(#pdec94b7152)" d="M 584.337232 417.958496 
L 654.205375 417.958496 
L 654.205375 404.339338 
L 584.337232 404.339338 
z
" style="fill:#96c69a;fill-opacity:0.5;stroke:#ffffff;stroke-linejoin:miter;stroke-width:1.361916;"/>
   </g>
   <g id="patch_36">
    <path clip-path="url(#pdec94b7152)" d="M 584.337232 404.339338 
L 636.290466 404.339338 
L 636.290466 390.72018 
L 584.337232 390.72018 
z
" style="fill:#96c69a;fill-opacity:0.5;stroke:#ffffff;stroke-linejoin:miter;stroke-width:1.361916;"/>
   </g>
   <g id="patch_37">
    <path clip-path="url(#pdec94b7152)" d="M 584.337232 390.72018 
L 630.915994 390.72018 
L 630.915994 377.101022 
L 584.337232 377.101022 
z
" style="fill:#96c69a;fill-opacity:0.5;stroke:#ffffff;stroke-linejoin:miter;stroke-width:1.361916;"/>
   </g>
   <g id="patch_38">
    <path clip-path="url(#pdec94b7152)" d="M 584.337232 377.101022 
L 624.197903 377.101022 
L 624.197903 363.481865 
L 584.337232 363.481865 
z
" style="fill:#96c69a;fill-opacity:0.5;stroke:#ffffff;stroke-linejoin:miter;stroke-width:1.361916;"/>
   </g>
   <g id="patch_39">
    <path clip-path="url(#pdec94b7152)" d="M 584.337232 363.481865 
L 614.792576 363.481865 
L 614.792576 349.862707 
L 584.337232 349.862707 
z
" style="fill:#96c69a;fill-opacity:0.5;stroke:#ffffff;stroke-linejoin:miter;stroke-width:1.361916;"/>
   </g>
   <g id="patch_40">
    <path clip-path="url(#pdec94b7152)" d="M 584.337232 349.862707 
L 610.761722 349.862707 
L 610.761722 336.243549 
L 584.337232 336.243549 
z
" style="fill:#96c69a;fill-opacity:0.5;stroke:#ffffff;stroke-linejoin:miter;stroke-width:1.361916;"/>
   </g>
   <g id="patch_41">
    <path clip-path="url(#pdec94b7152)" d="M 584.337232 336.243549 
L 611.657467 336.243549 
L 611.657467 322.624391 
L 584.337232 322.624391 
z
" style="fill:#96c69a;fill-opacity:0.5;stroke:#ffffff;stroke-linejoin:miter;stroke-width:1.361916;"/>
   </g>
   <g id="patch_42">
    <path clip-path="url(#pdec94b7152)" d="M 584.337232 322.624391 
L 599.564904 322.624391 
L 599.564904 309.005233 
L 584.337232 309.005233 
z
" style="fill:#96c69a;fill-opacity:0.5;stroke:#ffffff;stroke-linejoin:miter;stroke-width:1.361916;"/>
   </g>
   <g id="patch_43">
    <path clip-path="url(#pdec94b7152)" d="M 584.337232 309.005233 
L 596.877668 309.005233 
L 596.877668 295.386076 
L 584.337232 295.386076 
z
" style="fill:#96c69a;fill-opacity:0.5;stroke:#ffffff;stroke-linejoin:miter;stroke-width:1.361916;"/>
   </g>
   <g id="patch_44">
    <path clip-path="url(#pdec94b7152)" d="M 584.337232 295.386076 
L 593.742559 295.386076 
L 593.742559 281.766918 
L 584.337232 281.766918 
z
" style="fill:#96c69a;fill-opacity:0.5;stroke:#ffffff;stroke-linejoin:miter;stroke-width:1.361916;"/>
   </g>
   <g id="patch_45">
    <path clip-path="url(#pdec94b7152)" d="M 584.337232 281.766918 
L 592.398941 281.766918 
L 592.398941 268.14776 
L 584.337232 268.14776 
z
" style="fill:#96c69a;fill-opacity:0.5;stroke:#ffffff;stroke-linejoin:miter;stroke-width:1.361916;"/>
   </g>
   <g id="patch_46">
    <path clip-path="url(#pdec94b7152)" d="M 584.337232 268.14776 
L 589.263832 268.14776 
L 589.263832 254.528602 
L 584.337232 254.528602 
z
" style="fill:#96c69a;fill-opacity:0.5;stroke:#ffffff;stroke-linejoin:miter;stroke-width:1.361916;"/>
   </g>
   <g id="patch_47">
    <path clip-path="url(#pdec94b7152)" d="M 584.337232 254.528602 
L 587.472341 254.528602 
L 587.472341 240.909444 
L 584.337232 240.909444 
z
" style="fill:#96c69a;fill-opacity:0.5;stroke:#ffffff;stroke-linejoin:miter;stroke-width:1.361916;"/>
   </g>
   <g id="patch_48">
    <path clip-path="url(#pdec94b7152)" d="M 584.337232 240.909444 
L 587.024468 240.909444 
L 587.024468 227.290287 
L 584.337232 227.290287 
z
" style="fill:#96c69a;fill-opacity:0.5;stroke:#ffffff;stroke-linejoin:miter;stroke-width:1.361916;"/>
   </g>
   <g id="patch_49">
    <path clip-path="url(#pdec94b7152)" d="M 584.337232 227.290287 
L 587.024468 227.290287 
L 587.024468 213.671129 
L 584.337232 213.671129 
z
" style="fill:#96c69a;fill-opacity:0.5;stroke:#ffffff;stroke-linejoin:miter;stroke-width:1.361916;"/>
   </g>
   <g id="patch_50">
    <path clip-path="url(#pdec94b7152)" d="M 584.337232 213.671129 
L 586.576596 213.671129 
L 586.576596 200.051971 
L 584.337232 200.051971 
z
" style="fill:#96c69a;fill-opacity:0.5;stroke:#ffffff;stroke-linejoin:miter;stroke-width:1.361916;"/>
   </g>
   <g id="patch_51">
    <path clip-path="url(#pdec94b7152)" d="M 584.337232 200.051971 
L 585.232978 200.051971 
L 585.232978 186.432813 
L 584.337232 186.432813 
z
" style="fill:#96c69a;fill-opacity:0.5;stroke:#ffffff;stroke-linejoin:miter;stroke-width:1.361916;"/>
   </g>
   <g id="patch_52">
    <path clip-path="url(#pdec94b7152)" d="M 584.337232 186.432813 
L 584.337232 186.432813 
L 584.337232 172.813655 
L 584.337232 172.813655 
z
" style="fill:#96c69a;fill-opacity:0.5;stroke:#ffffff;stroke-linejoin:miter;stroke-width:1.361916;"/>
   </g>
   <g id="patch_53">
    <path clip-path="url(#pdec94b7152)" d="M 584.337232 172.813655 
L 585.232978 172.813655 
L 585.232978 159.194497 
L 584.337232 159.194497 
z
" style="fill:#96c69a;fill-opacity:0.5;stroke:#ffffff;stroke-linejoin:miter;stroke-width:1.361916;"/>
   </g>
   <g id="patch_54">
    <path clip-path="url(#pdec94b7152)" d="M 584.337232 159.194497 
L 584.785105 159.194497 
L 584.785105 145.57534 
L 584.337232 145.57534 
z
" style="fill:#96c69a;fill-opacity:0.5;stroke:#ffffff;stroke-linejoin:miter;stroke-width:1.361916;"/>
   </g>
   <g id="patch_55">
    <path clip-path="url(#pdec94b7152)" d="M 584.337232 145.57534 
L 585.68085 145.57534 
L 585.68085 131.956182 
L 584.337232 131.956182 
z
" style="fill:#96c69a;fill-opacity:0.5;stroke:#ffffff;stroke-linejoin:miter;stroke-width:1.361916;"/>
   </g>
   <g id="patch_56">
    <path d="M 584.337232 603.86 
L 584.337232 109.484571 
" style="fill:none;stroke:#262626;stroke-linecap:square;stroke-linejoin:miter;stroke-width:2.5;"/>
   </g>
   <g id="patch_57">
    <path d="M 584.337232 603.86 
L 667.574375 603.86 
" style="fill:none;stroke:#262626;stroke-linecap:square;stroke-linejoin:miter;stroke-width:2.5;"/>
   </g>
  </g>
 </g>
 <defs>
  <clipPath id="pe8de8b829f">
   <rect height="494.375429" width="482.775429" x="84.914375" y="109.484571"/>
  </clipPath>
  <clipPath id="pcdb95f5fad">
   <rect height="85.237143" width="482.775429" x="84.914375" y="7.2"/>
  </clipPath>
  <clipPath id="pdec94b7152">
   <rect height="494.375429" width="83.237143" x="584.337232" y="109.484571"/>
  </clipPath>
 </defs>
</svg>
