<?xml version="1.0" encoding="utf-8" standalone="no"?>
<!DOCTYPE svg PUBLIC "-//W3C//DTD SVG 1.1//EN"
  "http://www.w3.org/Graphics/SVG/1.1/DTD/svg11.dtd">
<svg height="675.079375pt" version="1.1" viewBox="0 0 674.774375 675.079375" width="674.774375pt" xmlns="http://www.w3.org/2000/svg" xmlns:xlink="http://www.w3.org/1999/xlink">
 <metadata>
  <rdf:RDF xmlns:cc="http://creativecommons.org/ns#" xmlns:dc="http://purl.org/dc/elements/1.1/" xmlns:rdf="http://www.w3.org/1999/02/22-rdf-syntax-ns#">
   <cc:Work>
    <dc:type rdf:resource="http://purl.org/dc/dcmitype/StillImage"/>
    <dc:date>2021-07-16T21:44:02.741823</dc:date>
    <dc:format>image/svg+xml</dc:format>
    <dc:creator>
     <cc:Agent>
      <dc:title>Matplotlib v3.4.2, https://matplotlib.org/</dc:title>
     </cc:Agent>
    </dc:creator>
   </cc:Work>
  </rdf:RDF>
 </metadata>
 <defs>
  <style type="text/css">*{stroke-linecap:butt;stroke-linejoin:round;}</style>
 </defs>
 <g id="figure_1">
  <g id="patch_1">
   <path d="M 0 675.079375 
L 674.774375 675.079375 
L 674.774375 0 
L 0 0 
z
" style="fill:#ffffff;"/>
  </g>
  <g id="axes_1">
   <g id="patch_2">
    <path d="M 84.914375 603.86 
L 567.689804 603.86 
L 567.689804 109.484571 
L 84.914375 109.484571 
z
" style="fill:none;"/>
   </g>
   <g id="matplotlib.axis_1">
    <g id="xtick_1">
     <g id="text_1">
      <!-- 0 -->
      <g style="fill:#262626;" transform="translate(99.64041 636.076563)scale(0.22 -0.22)">
       <defs>
        <path d="M 2034 4250 
Q 1547 4250 1301 3770 
Q 1056 3291 1056 2328 
Q 1056 1369 1301 889 
Q 1547 409 2034 409 
Q 2525 409 2770 889 
Q 3016 1369 3016 2328 
Q 3016 3291 2770 3770 
Q 2525 4250 2034 4250 
z
M 2034 4750 
Q 2819 4750 3233 4129 
Q 3647 3509 3647 2328 
Q 3647 1150 3233 529 
Q 2819 -91 2034 -91 
Q 1250 -91 836 529 
Q 422 1150 422 2328 
Q 422 3509 836 4129 
Q 1250 4750 2034 4750 
z
" id="DejaVuSans-30" transform="scale(0.015625)"/>
       </defs>
       <use xlink:href="#DejaVuSans-30"/>
      </g>
     </g>
    </g>
    <g id="xtick_2">
     <g id="text_2">
      <!-- 20000 -->
      <g style="fill:#262626;" transform="translate(159.466671 636.076563)scale(0.22 -0.22)">
       <defs>
        <path d="M 1228 531 
L 3431 531 
L 3431 0 
L 469 0 
L 469 531 
Q 828 903 1448 1529 
Q 2069 2156 2228 2338 
Q 2531 2678 2651 2914 
Q 2772 3150 2772 3378 
Q 2772 3750 2511 3984 
Q 2250 4219 1831 4219 
Q 1534 4219 1204 4116 
Q 875 4013 500 3803 
L 500 4441 
Q 881 4594 1212 4672 
Q 1544 4750 1819 4750 
Q 2544 4750 2975 4387 
Q 3406 4025 3406 3419 
Q 3406 3131 3298 2873 
Q 3191 2616 2906 2266 
Q 2828 2175 2409 1742 
Q 1991 1309 1228 531 
z
" id="DejaVuSans-32" transform="scale(0.015625)"/>
       </defs>
       <use xlink:href="#DejaVuSans-32"/>
       <use x="63.623047" xlink:href="#DejaVuSans-30"/>
       <use x="127.246094" xlink:href="#DejaVuSans-30"/>
       <use x="190.869141" xlink:href="#DejaVuSans-30"/>
       <use x="254.492188" xlink:href="#DejaVuSans-30"/>
      </g>
     </g>
    </g>
    <g id="xtick_3">
     <g id="text_3">
      <!-- 40000 -->
      <g style="fill:#262626;" transform="translate(247.287932 636.076563)scale(0.22 -0.22)">
       <defs>
        <path d="M 2419 4116 
L 825 1625 
L 2419 1625 
L 2419 4116 
z
M 2253 4666 
L 3047 4666 
L 3047 1625 
L 3713 1625 
L 3713 1100 
L 3047 1100 
L 3047 0 
L 2419 0 
L 2419 1100 
L 313 1100 
L 313 1709 
L 2253 4666 
z
" id="DejaVuSans-34" transform="scale(0.015625)"/>
       </defs>
       <use xlink:href="#DejaVuSans-34"/>
       <use x="63.623047" xlink:href="#DejaVuSans-30"/>
       <use x="127.246094" xlink:href="#DejaVuSans-30"/>
       <use x="190.869141" xlink:href="#DejaVuSans-30"/>
       <use x="254.492188" xlink:href="#DejaVuSans-30"/>
      </g>
     </g>
    </g>
    <g id="xtick_4">
     <g id="text_4">
      <!-- 60000 -->
      <g style="fill:#262626;" transform="translate(335.109193 636.076563)scale(0.22 -0.22)">
       <defs>
        <path d="M 2113 2584 
Q 1688 2584 1439 2293 
Q 1191 2003 1191 1497 
Q 1191 994 1439 701 
Q 1688 409 2113 409 
Q 2538 409 2786 701 
Q 3034 994 3034 1497 
Q 3034 2003 2786 2293 
Q 2538 2584 2113 2584 
z
M 3366 4563 
L 3366 3988 
Q 3128 4100 2886 4159 
Q 2644 4219 2406 4219 
Q 1781 4219 1451 3797 
Q 1122 3375 1075 2522 
Q 1259 2794 1537 2939 
Q 1816 3084 2150 3084 
Q 2853 3084 3261 2657 
Q 3669 2231 3669 1497 
Q 3669 778 3244 343 
Q 2819 -91 2113 -91 
Q 1303 -91 875 529 
Q 447 1150 447 2328 
Q 447 3434 972 4092 
Q 1497 4750 2381 4750 
Q 2619 4750 2861 4703 
Q 3103 4656 3366 4563 
z
" id="DejaVuSans-36" transform="scale(0.015625)"/>
       </defs>
       <use xlink:href="#DejaVuSans-36"/>
       <use x="63.623047" xlink:href="#DejaVuSans-30"/>
       <use x="127.246094" xlink:href="#DejaVuSans-30"/>
       <use x="190.869141" xlink:href="#DejaVuSans-30"/>
       <use x="254.492188" xlink:href="#DejaVuSans-30"/>
      </g>
     </g>
    </g>
    <g id="xtick_5">
     <g id="text_5">
      <!-- 80000 -->
      <g style="fill:#262626;" transform="translate(422.930455 636.076563)scale(0.22 -0.22)">
       <defs>
        <path d="M 2034 2216 
Q 1584 2216 1326 1975 
Q 1069 1734 1069 1313 
Q 1069 891 1326 650 
Q 1584 409 2034 409 
Q 2484 409 2743 651 
Q 3003 894 3003 1313 
Q 3003 1734 2745 1975 
Q 2488 2216 2034 2216 
z
M 1403 2484 
Q 997 2584 770 2862 
Q 544 3141 544 3541 
Q 544 4100 942 4425 
Q 1341 4750 2034 4750 
Q 2731 4750 3128 4425 
Q 3525 4100 3525 3541 
Q 3525 3141 3298 2862 
Q 3072 2584 2669 2484 
Q 3125 2378 3379 2068 
Q 3634 1759 3634 1313 
Q 3634 634 3220 271 
Q 2806 -91 2034 -91 
Q 1263 -91 848 271 
Q 434 634 434 1313 
Q 434 1759 690 2068 
Q 947 2378 1403 2484 
z
M 1172 3481 
Q 1172 3119 1398 2916 
Q 1625 2713 2034 2713 
Q 2441 2713 2670 2916 
Q 2900 3119 2900 3481 
Q 2900 3844 2670 4047 
Q 2441 4250 2034 4250 
Q 1625 4250 1398 4047 
Q 1172 3844 1172 3481 
z
" id="DejaVuSans-38" transform="scale(0.015625)"/>
       </defs>
       <use xlink:href="#DejaVuSans-38"/>
       <use x="63.623047" xlink:href="#DejaVuSans-30"/>
       <use x="127.246094" xlink:href="#DejaVuSans-30"/>
       <use x="190.869141" xlink:href="#DejaVuSans-30"/>
       <use x="254.492188" xlink:href="#DejaVuSans-30"/>
      </g>
     </g>
    </g>
    <g id="xtick_6">
     <g id="text_6">
      <!-- 100000 -->
      <g style="fill:#262626;" transform="translate(503.752966 636.076563)scale(0.22 -0.22)">
       <defs>
        <path d="M 794 531 
L 1825 531 
L 1825 4091 
L 703 3866 
L 703 4441 
L 1819 4666 
L 2450 4666 
L 2450 531 
L 3481 531 
L 3481 0 
L 794 0 
L 794 531 
z
" id="DejaVuSans-31" transform="scale(0.015625)"/>
       </defs>
       <use xlink:href="#DejaVuSans-31"/>
       <use x="63.623047" xlink:href="#DejaVuSans-30"/>
       <use x="127.246094" xlink:href="#DejaVuSans-30"/>
       <use x="190.869141" xlink:href="#DejaVuSans-30"/>
       <use x="254.492188" xlink:href="#DejaVuSans-30"/>
       <use x="318.115234" xlink:href="#DejaVuSans-30"/>
      </g>
     </g>
    </g>
    <g id="text_7">
     <!-- MDTU -->
     <g style="fill:#262626;" transform="translate(290.596464 662.888125)scale(0.24 -0.24)">
      <defs>
       <path d="M 628 4666 
L 1569 4666 
L 2759 1491 
L 3956 4666 
L 4897 4666 
L 4897 0 
L 4281 0 
L 4281 4097 
L 3078 897 
L 2444 897 
L 1241 4097 
L 1241 0 
L 628 0 
L 628 4666 
z
" id="DejaVuSans-4d" transform="scale(0.015625)"/>
       <path d="M 1259 4147 
L 1259 519 
L 2022 519 
Q 2988 519 3436 956 
Q 3884 1394 3884 2338 
Q 3884 3275 3436 3711 
Q 2988 4147 2022 4147 
L 1259 4147 
z
M 628 4666 
L 1925 4666 
Q 3281 4666 3915 4102 
Q 4550 3538 4550 2338 
Q 4550 1131 3912 565 
Q 3275 0 1925 0 
L 628 0 
L 628 4666 
z
" id="DejaVuSans-44" transform="scale(0.015625)"/>
       <path d="M -19 4666 
L 3928 4666 
L 3928 4134 
L 2272 4134 
L 2272 0 
L 1638 0 
L 1638 4134 
L -19 4134 
L -19 4666 
z
" id="DejaVuSans-54" transform="scale(0.015625)"/>
       <path d="M 556 4666 
L 1191 4666 
L 1191 1831 
Q 1191 1081 1462 751 
Q 1734 422 2344 422 
Q 2950 422 3222 751 
Q 3494 1081 3494 1831 
L 3494 4666 
L 4128 4666 
L 4128 1753 
Q 4128 841 3676 375 
Q 3225 -91 2344 -91 
Q 1459 -91 1007 375 
Q 556 841 556 1753 
L 556 4666 
z
" id="DejaVuSans-55" transform="scale(0.015625)"/>
      </defs>
      <use xlink:href="#DejaVuSans-4d"/>
      <use x="86.279297" xlink:href="#DejaVuSans-44"/>
      <use x="163.28125" xlink:href="#DejaVuSans-54"/>
      <use x="224.365234" xlink:href="#DejaVuSans-55"/>
     </g>
    </g>
   </g>
   <g id="matplotlib.axis_2">
    <g id="ytick_1">
     <g id="text_8">
      <!-- 0.4 -->
      <g style="fill:#262626;" transform="translate(34.4275 579.708679)scale(0.22 -0.22)">
       <defs>
        <path d="M 684 794 
L 1344 794 
L 1344 0 
L 684 0 
L 684 794 
z
" id="DejaVuSans-2e" transform="scale(0.015625)"/>
       </defs>
       <use xlink:href="#DejaVuSans-30"/>
       <use x="63.623047" xlink:href="#DejaVuSans-2e"/>
       <use x="95.410156" xlink:href="#DejaVuSans-34"/>
      </g>
     </g>
    </g>
    <g id="ytick_2">
     <g id="text_9">
      <!-- 0.6 -->
      <g style="fill:#262626;" transform="translate(34.4275 496.433969)scale(0.22 -0.22)">
       <use xlink:href="#DejaVuSans-30"/>
       <use x="63.623047" xlink:href="#DejaVuSans-2e"/>
       <use x="95.410156" xlink:href="#DejaVuSans-36"/>
      </g>
     </g>
    </g>
    <g id="ytick_3">
     <g id="text_10">
      <!-- 0.8 -->
      <g style="fill:#262626;" transform="translate(34.4275 413.159258)scale(0.22 -0.22)">
       <use xlink:href="#DejaVuSans-30"/>
       <use x="63.623047" xlink:href="#DejaVuSans-2e"/>
       <use x="95.410156" xlink:href="#DejaVuSans-38"/>
      </g>
     </g>
    </g>
    <g id="ytick_4">
     <g id="text_11">
      <!-- 1.0 -->
      <g style="fill:#262626;" transform="translate(34.4275 329.884547)scale(0.22 -0.22)">
       <use xlink:href="#DejaVuSans-31"/>
       <use x="63.623047" xlink:href="#DejaVuSans-2e"/>
       <use x="95.410156" xlink:href="#DejaVuSans-30"/>
      </g>
     </g>
    </g>
    <g id="ytick_5">
     <g id="text_12">
      <!-- 1.2 -->
      <g style="fill:#262626;" transform="translate(34.4275 246.609837)scale(0.22 -0.22)">
       <use xlink:href="#DejaVuSans-31"/>
       <use x="63.623047" xlink:href="#DejaVuSans-2e"/>
       <use x="95.410156" xlink:href="#DejaVuSans-32"/>
      </g>
     </g>
    </g>
    <g id="ytick_6">
     <g id="text_13">
      <!-- 1.4 -->
      <g style="fill:#262626;" transform="translate(34.4275 163.335126)scale(0.22 -0.22)">
       <use xlink:href="#DejaVuSans-31"/>
       <use x="63.623047" xlink:href="#DejaVuSans-2e"/>
       <use x="95.410156" xlink:href="#DejaVuSans-34"/>
      </g>
     </g>
    </g>
    <g id="text_14">
     <!-- $E$ -->
     <g style="fill:#262626;" transform="translate(25.43625 364.352286)rotate(-90)scale(0.24 -0.24)">
      <defs>
       <path d="M 1081 4666 
L 4031 4666 
L 3928 4134 
L 1606 4134 
L 1338 2753 
L 3566 2753 
L 3463 2222 
L 1234 2222 
L 909 531 
L 3284 531 
L 3181 0 
L 172 0 
L 1081 4666 
z
" id="DejaVuSans-Oblique-45" transform="scale(0.015625)"/>
      </defs>
      <use transform="translate(0 0.09375)" xlink:href="#DejaVuSans-Oblique-45"/>
     </g>
    </g>
   </g>
   <g id="line2d_1">
    <path clip-path="url(#pb2a105f625)" d="M 106.858713 480.353336 
L 107.297819 387.801155 
L 107.517372 487.817953 
L 107.736925 368.658176 
L 107.956478 553.090124 
L 108.176032 329.101549 
L 108.395585 501.121461 
L 108.615138 439.908301 
L 108.834691 454.87559 
L 109.054244 445.188657 
L 109.273797 402.282683 
L 109.493351 473.087043 
L 109.712904 440.394922 
L 109.932457 441.837376 
L 110.15201 375.463234 
L 110.371563 404.184006 
L 110.591116 402.936105 
L 110.810669 366.120629 
L 111.030223 370.666226 
L 111.249776 338.561674 
L 111.469329 460.224378 
L 111.688882 462.503091 
L 111.908435 484.742848 
L 112.127988 342.933773 
L 112.347541 501.584972 
L 112.567095 535.372954 
L 113.006201 505.134269 
L 113.225754 358.15092 
L 113.445307 362.34917 
L 113.66486 459.668372 
L 113.884414 507.675946 
L 114.103967 411.412617 
L 114.543073 502.655129 
L 114.762626 299.356213 
L 115.201732 464.329331 
L 115.421286 497.179049 
L 115.640839 397.740346 
L 115.860392 481.888901 
L 116.079945 463.810951 
L 116.299498 458.816122 
L 116.519051 352.238505 
L 116.738605 352.979747 
L 116.958158 462.116406 
L 117.177711 414.757942 
L 117.397264 540.808945 
L 117.616817 339.137273 
L 117.83637 249.491511 
L 118.055923 400.693052 
L 118.275477 348.939591 
L 118.49503 481.344314 
L 118.714583 502.877746 
L 118.934136 487.366555 
L 119.153689 380.803654 
L 119.373242 343.46066 
L 119.592796 271.808985 
L 119.812349 417.436264 
L 120.031902 401.957242 
L 120.251455 418.6546 
L 120.471008 481.073411 
L 120.910114 326.938779 
L 121.129668 272.041298 
L 121.349221 476.871762 
L 121.568774 437.16818 
L 121.788327 516.452067 
L 122.227433 351.761901 
L 122.446987 457.746105 
L 122.66654 459.166232 
L 122.886093 304.368197 
L 123.105646 445.815897 
L 123.325199 470.212185 
L 123.544752 406.967481 
L 123.764305 399.852594 
L 123.983859 342.705627 
L 124.203412 364.661733 
L 124.422965 354.661823 
L 124.642518 437.814381 
L 124.862071 336.059406 
L 125.081624 428.920155 
L 125.301178 335.947765 
L 125.520731 509.499449 
L 125.959837 408.903588 
L 126.17939 422.45864 
L 126.398943 351.402878 
L 126.83805 498.514615 
L 127.277156 401.360167 
L 127.496709 422.303546 
L 127.935815 420.442203 
L 128.155369 460.862022 
L 128.594475 327.244094 
L 128.814028 384.859065 
L 129.033581 397.037753 
L 129.253134 378.655712 
L 129.472687 478.530956 
L 129.692241 374.06589 
L 129.911794 510.174194 
L 130.131347 291.879664 
L 130.3509 528.020468 
L 130.570453 482.071681 
L 130.790006 461.435665 
L 131.229113 352.706023 
L 131.448666 398.514566 
L 131.668219 564.113446 
L 131.887772 514.906738 
L 132.326878 227.367219 
L 132.546432 397.827381 
L 132.765985 477.192244 
L 132.985538 454.405457 
L 133.205091 380.854661 
L 133.424644 399.293956 
L 133.644197 336.40655 
L 133.863751 479.270006 
L 134.083304 471.944673 
L 134.302857 483.157313 
L 134.52241 358.994117 
L 134.741963 374.891333 
L 134.961516 476.180525 
L 135.181069 386.690374 
L 135.400623 459.831793 
L 135.839729 380.437782 
L 136.059282 485.987935 
L 136.278835 498.974184 
L 136.498388 418.700781 
L 136.717941 466.305395 
L 136.937495 363.656429 
L 137.157048 444.902917 
L 137.376601 439.544956 
L 137.596154 404.206046 
L 137.815707 394.777222 
L 138.254814 232.435154 
L 138.474367 490.312264 
L 138.69392 411.56015 
L 138.913473 449.253332 
L 139.133026 460.221869 
L 139.352579 410.244037 
L 139.572132 401.770443 
L 139.791686 366.039542 
L 140.011239 359.287503 
L 140.230792 518.828081 
L 140.450345 416.308019 
L 140.669898 387.731505 
L 140.889451 434.869085 
L 141.328558 393.219975 
L 141.548111 460.020083 
L 141.767664 438.08232 
L 141.987217 269.89945 
L 142.20677 563.647059 
L 142.426323 301.768382 
L 142.645877 445.343268 
L 142.86543 499.036852 
L 143.084983 412.338924 
L 143.304536 415.197768 
L 143.524089 487.232245 
L 143.743642 434.167207 
L 143.963196 468.772445 
L 144.182749 433.954636 
L 144.402302 484.747276 
L 144.621855 393.671288 
L 144.841408 442.380847 
L 145.060961 215.379047 
L 145.280514 581.38839 
L 145.500068 354.13021 
L 145.719621 512.42941 
L 145.939174 487.33342 
L 146.158727 497.003948 
L 146.37828 442.686445 
L 146.597833 453.563667 
L 146.817387 446.715485 
L 147.03694 407.545524 
L 147.256493 484.644122 
L 147.476046 292.468207 
L 147.695599 471.137489 
L 147.915152 336.343419 
L 148.134705 492.120705 
L 148.354259 459.300119 
L 148.573812 332.906801 
L 148.793365 468.451928 
L 149.012918 517.541763 
L 149.232471 435.770795 
L 149.452024 441.037421 
L 149.671578 441.900971 
L 149.891131 433.953868 
L 150.110684 476.258832 
L 150.330237 356.932207 
L 150.54979 487.924717 
L 150.769343 517.593582 
L 150.988896 429.926487 
L 151.20845 472.405647 
L 151.428003 325.271842 
L 151.647556 433.673028 
L 151.867109 371.056847 
L 152.086662 474.493899 
L 152.525769 396.477147 
L 152.745322 455.626735 
L 152.964875 472.312786 
L 153.184428 443.175187 
L 153.403981 458.903786 
L 153.623534 531.499406 
L 154.062641 372.249315 
L 154.282194 352.391387 
L 154.501747 441.462346 
L 154.940853 415.84503 
L 155.160406 446.709751 
L 155.37996 502.211463 
L 155.599513 371.895247 
L 155.819066 328.131674 
L 156.038619 432.9756 
L 156.258172 429.1336 
L 156.477725 466.510602 
L 156.697278 351.741802 
L 156.916832 353.383154 
L 157.355938 394.986433 
L 157.575491 434.750191 
L 157.795044 372.294886 
L 158.014597 436.89024 
L 158.234151 412.444301 
L 158.453704 520.915165 
L 158.673257 432.682003 
L 158.89281 418.14973 
L 159.112363 395.127363 
L 159.331916 492.506111 
L 159.551469 474.807285 
L 159.771023 506.609171 
L 160.210129 373.367679 
L 160.649235 289.723771 
L 161.088342 478.214991 
L 161.307895 486.816457 
L 161.747001 364.233456 
L 162.186107 505.587505 
L 162.40566 412.056695 
L 162.625214 459.697893 
L 162.844767 466.509196 
L 163.06432 398.867888 
L 163.283873 414.192012 
L 163.503426 470.336672 
L 163.722979 425.010134 
L 163.942532 510.804706 
L 164.381639 314.329806 
L 164.601192 329.073895 
L 164.820745 360.420236 
L 165.259851 438.049308 
L 165.479405 398.577438 
L 165.698958 381.804189 
L 165.918511 465.656649 
L 166.138064 383.917877 
L 166.57717 451.870701 
L 167.016277 389.12367 
L 167.455383 460.28631 
L 167.674936 350.395948 
L 167.894489 306.708471 
L 168.114042 417.857449 
L 168.333596 470.319489 
L 168.553149 461.934536 
L 168.772702 463.114613 
L 168.992255 424.154543 
L 169.211808 414.094382 
L 169.431361 324.335299 
L 169.650914 367.777211 
L 169.870468 346.959191 
L 170.090021 451.14112 
L 170.309574 335.452676 
L 170.529127 337.579279 
L 170.74868 488.033391 
L 170.968233 383.917521 
L 171.187787 389.957673 
L 171.40734 266.445689 
L 171.846446 515.000827 
L 172.065999 331.644711 
L 172.505105 544.745557 
L 172.724659 449.009718 
L 172.944212 406.370169 
L 173.163765 402.10521 
L 173.383318 437.686204 
L 173.602871 428.265378 
L 173.822424 399.358666 
L 174.041978 512.38594 
L 174.261531 321.999949 
L 174.481084 443.285703 
L 174.700637 383.762729 
L 174.92019 459.429407 
L 175.139743 373.204554 
L 175.359296 481.063433 
L 175.798403 444.36797 
L 176.017956 502.680937 
L 176.237509 292.187538 
L 176.457062 333.736162 
L 176.676615 492.67122 
L 176.896169 463.839786 
L 177.115722 461.157943 
L 177.335275 456.369569 
L 177.554828 384.647056 
L 177.774381 435.941078 
L 177.993934 433.69836 
L 178.213487 520.05249 
L 178.433041 391.098999 
L 178.652594 446.787074 
L 178.872147 356.511007 
L 179.0917 482.781198 
L 179.311253 287.246091 
L 179.530806 463.701181 
L 179.75036 485.966865 
L 179.969913 343.059039 
L 180.189466 302.453023 
L 180.409019 456.846387 
L 180.628572 486.827032 
L 181.067678 378.385556 
L 181.287232 423.410645 
L 181.506785 378.729542 
L 181.726338 377.130179 
L 181.945891 397.661729 
L 182.165444 393.219331 
L 182.384997 349.442502 
L 182.604551 472.279103 
L 182.824104 437.51267 
L 183.043657 436.017615 
L 183.26321 471.276416 
L 183.482763 308.039836 
L 183.702316 504.389669 
L 183.921869 357.239857 
L 184.141423 354.255889 
L 184.360976 491.878766 
L 184.580529 335.687365 
L 185.019635 490.172395 
L 185.239188 206.609123 
L 185.458742 483.478144 
L 185.678295 443.763214 
L 185.897848 325.958019 
L 186.117401 455.805871 
L 186.336954 381.127224 
L 186.556507 490.040345 
L 186.77606 442.218356 
L 187.215167 421.295642 
L 187.43472 449.816157 
L 187.654273 414.332659 
L 187.873826 433.289969 
L 188.093379 409.574171 
L 188.532486 452.094573 
L 188.752039 407.803112 
L 188.971592 389.630606 
L 189.191145 481.026654 
L 189.410698 487.228024 
L 189.630251 425.942181 
L 189.849805 411.698995 
L 190.069358 320.156738 
L 190.288911 478.436793 
L 190.508464 401.961649 
L 190.728017 476.047625 
L 190.94757 414.086752 
L 191.167123 388.279677 
L 191.386677 270.828417 
L 191.60623 414.135372 
L 191.825783 456.406602 
L 192.045336 434.759458 
L 192.264889 395.125585 
L 192.484442 524.551458 
L 192.703996 406.07324 
L 193.143102 440.318027 
L 193.362655 559.515629 
L 193.801761 343.003635 
L 194.021314 332.907104 
L 194.240868 441.717362 
L 194.460421 433.915171 
L 194.679974 367.785177 
L 194.899527 394.285351 
L 195.11908 362.566419 
L 195.558187 490.424307 
L 195.77774 452.503076 
L 195.997293 445.805396 
L 196.216846 457.703714 
L 196.436399 417.940993 
L 196.655952 291.47711 
L 196.875505 435.419519 
L 197.095059 486.248272 
L 197.314612 294.52256 
L 197.534165 478.596565 
L 197.753718 416.435689 
L 197.973271 419.965801 
L 198.192824 379.396786 
L 198.412378 453.219766 
L 198.631931 435.301587 
L 198.851484 451.76559 
L 199.071037 428.443341 
L 199.29059 434.407859 
L 199.510143 506.337046 
L 199.729696 393.279812 
L 199.94925 393.921493 
L 200.388356 331.727013 
L 200.607909 405.032215 
L 200.827462 424.120785 
L 201.047015 541.893177 
L 201.266569 367.970707 
L 201.486122 488.868177 
L 202.144781 328.12623 
L 202.803441 446.551443 
L 203.022994 517.329122 
L 203.242547 430.92203 
L 203.4621 457.965006 
L 203.681653 407.9745 
L 203.901206 503.775286 
L 204.12076 384.892436 
L 204.340313 527.839082 
L 204.559866 391.37681 
L 204.779419 390.156221 
L 204.998972 489.219949 
L 205.218525 447.041847 
L 205.438078 331.109456 
L 205.657632 309.552424 
L 205.877185 541.968088 
L 206.316291 331.863449 
L 206.535844 317.620264 
L 206.755397 527.540379 
L 206.974951 484.695765 
L 207.194504 390.049322 
L 207.414057 360.127988 
L 207.63361 382.821222 
L 207.853163 532.125748 
L 208.292269 392.00808 
L 208.731376 418.625615 
L 208.950929 424.463015 
L 209.170482 446.689183 
L 209.390035 408.887571 
L 209.829142 485.198046 
L 210.048695 370.11426 
L 210.268248 369.898569 
L 210.487801 497.517892 
L 210.707354 505.865931 
L 210.926907 318.543051 
L 211.366014 453.75869 
L 211.585567 353.286341 
L 211.80512 389.456385 
L 212.024673 402.607575 
L 212.244226 479.686971 
L 212.463779 442.718765 
L 212.683333 323.306406 
L 212.902886 426.565395 
L 213.122439 366.033329 
L 213.341992 446.890562 
L 213.561545 474.332547 
L 214.000651 370.568189 
L 214.220205 526.254821 
L 214.439758 327.572446 
L 214.659311 422.355446 
L 214.878864 442.393517 
L 215.31797 252.965512 
L 215.537523 485.192716 
L 215.757077 479.579739 
L 215.97663 423.014832 
L 216.196183 472.320666 
L 216.635289 424.479072 
L 216.854842 351.271701 
L 217.074396 478.685516 
L 217.293949 457.81519 
L 217.513502 410.397545 
L 217.733055 451.40687 
L 218.172161 427.441815 
L 218.391714 443.503818 
L 218.611268 470.812458 
L 218.830821 339.682616 
L 219.050374 486.03345 
L 219.269927 338.893418 
L 219.48948 556.750092 
L 219.709033 461.423639 
L 219.928587 474.8123 
L 220.14814 424.268036 
L 220.367693 499.468418 
L 220.587246 415.577882 
L 220.806799 453.43283 
L 221.026352 418.03978 
L 221.245905 363.915747 
L 221.465459 471.712187 
L 221.685012 347.06323 
L 221.904565 487.619767 
L 222.124118 360.516518 
L 222.343671 413.051078 
L 222.563224 397.14565 
L 222.782778 420.793894 
L 223.002331 293.289759 
L 223.221884 484.731805 
L 223.441437 395.765471 
L 223.66099 546.719136 
L 223.880543 360.728074 
L 224.100096 349.755649 
L 224.31965 461.007166 
L 224.539203 462.302114 
L 224.758756 284.579161 
L 224.978309 395.0616 
L 225.197862 405.922361 
L 225.417415 522.328947 
L 225.636969 363.740936 
L 225.856522 484.559516 
L 226.076075 404.344831 
L 226.515181 500.038494 
L 226.954287 376.787553 
L 227.173841 335.876485 
L 227.393394 425.812078 
L 227.612947 458.53905 
L 228.052053 360.044083 
L 228.271606 410.716264 
L 228.49116 318.310722 
L 228.710713 400.057913 
L 228.930266 347.251822 
L 229.149819 454.026687 
L 229.369372 397.644873 
L 229.588925 463.657724 
L 229.808478 131.956182 
L 230.028032 402.778233 
L 230.247585 319.983319 
L 230.467138 427.278005 
L 230.686691 414.212554 
L 230.906244 287.415552 
L 231.125797 422.913888 
L 231.345351 477.438626 
L 231.564904 406.588344 
L 231.784457 398.366988 
L 232.00401 303.795938 
L 232.223563 283.495232 
L 232.443116 423.360385 
L 232.662669 344.421096 
L 232.882223 343.077715 
L 233.101776 431.28487 
L 233.321329 416.901216 
L 233.540882 518.858244 
L 233.760435 510.897171 
L 234.199542 410.807937 
L 234.419095 462.5132 
L 234.638648 447.028354 
L 235.077754 501.830967 
L 235.297307 270.683145 
L 235.51686 499.872554 
L 235.736414 510.927439 
L 236.17552 377.96106 
L 236.395073 447.050396 
L 236.614626 300.292013 
L 236.834179 469.503382 
L 237.053733 529.184233 
L 237.273286 422.64751 
L 237.492839 480.286459 
L 237.712392 436.445691 
L 237.931945 349.901035 
L 238.151498 474.291756 
L 238.371051 361.409908 
L 238.590605 426.090599 
L 238.810158 286.979554 
L 239.029711 418.949289 
L 239.249264 466.111021 
L 239.468817 444.30897 
L 239.68837 456.128288 
L 239.907924 491.690331 
L 240.127477 449.537032 
L 240.34703 447.675509 
L 240.566583 353.645028 
L 240.786136 441.18451 
L 241.005689 412.572426 
L 241.225242 364.02024 
L 241.444796 370.355354 
L 241.664349 500.620553 
L 242.103455 402.901565 
L 242.323008 420.336016 
L 242.542561 390.865379 
L 242.762114 544.152551 
L 242.981668 419.514672 
L 243.201221 496.611212 
L 243.420774 410.414912 
L 243.640327 276.146804 
L 243.85988 482.064166 
L 244.079433 524.738803 
L 244.298987 359.920259 
L 244.51854 415.879469 
L 244.738093 376.925657 
L 244.957646 519.623981 
L 245.177199 492.693286 
L 245.396752 504.254744 
L 245.616305 443.81174 
L 245.835859 510.039257 
L 246.055412 518.726417 
L 246.494518 433.950824 
L 246.714071 439.629527 
L 246.933624 492.193042 
L 247.153178 433.25772 
L 247.372731 443.804241 
L 247.592284 515.647307 
L 247.811837 386.111954 
L 248.03139 460.426399 
L 248.250943 383.114536 
L 248.470496 510.768871 
L 248.69005 375.09192 
L 248.909603 494.22108 
L 249.129156 478.22881 
L 249.348709 511.36213 
L 249.568262 350.500347 
L 249.787815 463.134015 
L 250.007369 384.985965 
L 250.446475 520.283734 
L 250.666028 307.281902 
L 250.885581 363.05852 
L 251.105134 509.427987 
L 251.324687 471.563238 
L 251.544241 521.542425 
L 251.763794 324.194651 
L 251.983347 423.426479 
L 252.2029 466.523906 
L 252.642006 370.886363 
L 253.081113 540.887859 
L 253.300666 516.896505 
L 253.520219 317.71279 
L 253.739772 441.356024 
L 253.959325 456.677454 
L 254.178878 448.507987 
L 254.398432 427.154497 
L 254.617985 532.984603 
L 254.837538 285.998393 
L 255.057091 358.211487 
L 255.276644 384.241087 
L 255.496197 458.632232 
L 255.715751 420.130249 
L 255.935304 504.205702 
L 256.154857 342.012867 
L 256.37441 465.978529 
L 256.813516 390.473344 
L 257.033069 210.43976 
L 257.472176 422.070161 
L 257.691729 237.174034 
L 257.911282 463.747019 
L 258.130835 467.226145 
L 258.350388 438.516251 
L 258.569942 483.199683 
L 259.009048 372.620822 
L 259.228601 420.847206 
L 259.448154 496.79729 
L 259.667707 284.00194 
L 259.88726 360.173231 
L 260.106814 489.380351 
L 260.326367 282.665427 
L 260.54592 418.771587 
L 260.765473 440.759067 
L 260.985026 404.241671 
L 261.204579 439.342228 
L 261.424133 557.973422 
L 261.643686 420.677333 
L 261.863239 465.666005 
L 262.082792 424.441344 
L 262.302345 432.400194 
L 262.521898 468.416474 
L 262.741451 456.880077 
L 262.961005 548.086099 
L 263.180558 434.094027 
L 263.400111 253.516774 
L 263.839217 541.419783 
L 264.05877 412.944539 
L 264.278324 470.448928 
L 264.497877 399.757988 
L 264.71743 426.363727 
L 264.936983 427.127428 
L 265.156536 467.949465 
L 265.376089 323.218261 
L 265.595642 493.963032 
L 265.815196 493.502172 
L 266.034749 491.719279 
L 266.254302 538.748327 
L 266.473855 405.627566 
L 266.693408 349.458255 
L 266.912961 454.446121 
L 267.132514 442.218605 
L 267.352068 333.224363 
L 267.791174 463.441955 
L 268.010727 288.400166 
L 268.23028 427.113321 
L 268.669387 323.876762 
L 268.88894 469.94881 
L 269.328046 453.445835 
L 269.547599 502.989543 
L 269.767152 472.205075 
L 269.986705 460.489153 
L 270.206259 420.872112 
L 270.425812 482.964488 
L 270.645365 497.006981 
L 270.864918 448.574949 
L 271.084471 320.490509 
L 271.304024 473.206731 
L 271.523578 461.259036 
L 271.743131 478.510051 
L 271.962684 441.19063 
L 272.182237 317.723171 
L 272.40179 459.07889 
L 272.621343 385.590106 
L 272.840896 437.188349 
L 273.06045 527.210896 
L 273.280003 411.907547 
L 273.499556 434.092684 
L 273.719109 408.045386 
L 273.938662 408.716942 
L 274.158215 387.435277 
L 274.377769 401.80063 
L 274.816875 255.839121 
L 275.036428 418.089457 
L 275.475534 376.480346 
L 275.695087 534.235248 
L 275.914641 431.819794 
L 276.134194 479.037059 
L 276.5733 334.79346 
L 277.012406 470.240097 
L 277.23196 425.03211 
L 277.451513 293.726921 
L 277.671066 360.479596 
L 277.890619 488.430732 
L 278.110172 408.301121 
L 278.329725 391.262825 
L 278.549278 330.575099 
L 278.768832 400.258394 
L 278.988385 380.945007 
L 279.207938 504.99385 
L 279.427491 459.588232 
L 279.647044 482.904663 
L 279.866597 317.899976 
L 280.086151 434.795455 
L 280.305704 463.951261 
L 280.525257 463.773903 
L 280.74481 462.289639 
L 280.964363 328.405216 
L 281.183916 486.212911 
L 281.403469 377.205507 
L 281.623023 477.296237 
L 281.842576 348.265722 
L 282.062129 439.792457 
L 282.281682 427.722206 
L 282.501235 464.501604 
L 282.720788 387.827832 
L 282.940342 416.077245 
L 283.159895 485.412235 
L 283.379448 434.85572 
L 283.599001 277.550015 
L 283.818554 440.590027 
L 284.25766 396.486586 
L 284.477214 406.302881 
L 284.91632 450.804232 
L 285.135873 388.695702 
L 285.355426 439.406293 
L 285.574979 440.900661 
L 285.794533 446.043478 
L 286.014086 460.593421 
L 286.233639 414.479907 
L 286.453192 316.502896 
L 286.672745 432.926401 
L 286.892298 383.370056 
L 287.111851 385.605423 
L 287.331405 435.059415 
L 287.550958 422.750733 
L 287.770511 394.880216 
L 287.990064 451.483153 
L 288.209617 453.200554 
L 288.42917 326.862494 
L 288.648724 448.100103 
L 288.868277 415.780068 
L 289.08783 484.974284 
L 289.307383 373.62892 
L 289.526936 453.90199 
L 290.185596 362.198264 
L 290.624702 490.211844 
L 290.844255 341.523674 
L 291.063808 462.379628 
L 291.283361 488.177042 
L 291.502915 554.733243 
L 291.722468 341.00152 
L 291.942021 342.575972 
L 292.161574 381.973874 
L 292.381127 521.288712 
L 292.60068 424.656192 
L 292.820233 448.328177 
L 293.039787 456.628103 
L 293.25934 389.956266 
L 293.478893 470.576055 
L 293.698446 392.98896 
L 293.917999 463.855087 
L 294.137552 421.405789 
L 294.357105 419.794367 
L 294.576659 464.579858 
L 294.796212 373.090758 
L 295.015765 345.946222 
L 295.235318 408.206855 
L 295.454871 432.50638 
L 295.674424 414.036643 
L 295.893978 503.525087 
L 296.113531 299.476817 
L 296.333084 473.161544 
L 296.552637 518.79875 
L 296.991743 364.038903 
L 297.211296 514.386629 
L 297.43085 454.669659 
L 297.650403 497.578236 
L 297.869956 447.606709 
L 298.089509 456.59618 
L 298.309062 353.39235 
L 298.528615 486.625221 
L 298.748169 544.69199 
L 299.187275 395.216822 
L 299.406828 388.985353 
L 299.626381 470.158907 
L 299.845934 490.41401 
L 300.065487 539.164859 
L 300.285041 523.546945 
L 300.504594 376.397041 
L 300.724147 367.116081 
L 300.9437 488.992545 
L 301.163253 444.3025 
L 301.382806 500.434953 
L 301.60236 422.077471 
L 301.821913 410.748302 
L 302.041466 460.377317 
L 302.480572 404.209138 
L 302.700125 501.976041 
L 302.919678 446.506201 
L 303.139232 429.694851 
L 303.358785 516.783951 
L 303.578338 396.788845 
L 304.017444 534.298635 
L 304.236997 415.121602 
L 304.456551 367.333771 
L 304.676104 436.308066 
L 304.895657 299.074027 
L 305.11521 468.686858 
L 305.334763 464.548828 
L 305.554316 455.205524 
L 305.773869 513.085023 
L 305.993423 491.132276 
L 306.212976 326.144843 
L 306.432529 283.845357 
L 306.652082 467.064886 
L 306.871635 329.530098 
L 307.091188 443.651416 
L 307.310742 397.722179 
L 307.530295 478.097487 
L 307.749848 455.351654 
L 308.188954 332.336105 
L 308.408507 502.717187 
L 308.62806 479.329967 
L 308.847614 478.513041 
L 309.28672 400.981533 
L 309.506273 428.205112 
L 309.725826 493.262046 
L 309.945379 455.780609 
L 310.164933 479.672115 
L 310.384486 424.615519 
L 310.604039 435.11643 
L 310.823592 372.916622 
L 311.043145 455.158446 
L 311.262698 454.407839 
L 311.482251 312.317175 
L 311.701805 419.61543 
L 311.921358 345.272616 
L 312.140911 422.695264 
L 312.360464 358.724916 
L 312.580017 394.299741 
L 312.79957 406.713357 
L 313.019124 197.741754 
L 313.238677 459.147102 
L 313.677783 365.467319 
L 313.897336 504.287101 
L 314.116889 466.11874 
L 314.336442 461.784692 
L 314.555996 504.318159 
L 314.775549 502.74076 
L 314.995102 496.960534 
L 315.214655 407.417979 
L 315.653761 361.600977 
L 315.873315 439.566966 
L 316.092868 474.020478 
L 316.312421 456.241856 
L 316.531974 298.434093 
L 316.751527 494.86789 
L 316.97108 423.550698 
L 317.190633 447.907182 
L 317.410187 452.714444 
L 317.62974 541.702864 
L 317.849293 495.803873 
L 318.068846 497.431749 
L 318.288399 536.293025 
L 318.507952 402.458054 
L 318.727506 468.434374 
L 318.947059 440.2182 
L 319.166612 516.206578 
L 319.386165 337.024486 
L 319.605718 252.977584 
L 319.825271 472.643885 
L 320.044824 454.976691 
L 320.483931 375.999105 
L 320.703484 435.897294 
L 320.923037 416.019794 
L 321.14259 437.750089 
L 321.362143 307.288397 
L 321.581696 377.320807 
L 321.80125 396.37128 
L 322.020803 376.368459 
L 322.240356 416.584612 
L 322.459909 435.016085 
L 322.679462 429.698134 
L 322.899015 478.892471 
L 323.338122 260.450633 
L 323.557675 526.685101 
L 323.777228 420.668956 
L 323.996781 403.530709 
L 324.216334 464.022627 
L 324.435887 470.544401 
L 324.655441 461.530725 
L 324.874994 447.374821 
L 325.094547 256.119378 
L 325.3141 445.177228 
L 325.533653 512.874035 
L 325.753206 276.944203 
L 325.97276 340.977516 
L 326.192313 456.211286 
L 326.411866 372.51454 
L 326.631419 502.511418 
L 326.850972 358.249149 
L 327.070525 437.339689 
L 327.290078 441.05592 
L 327.509632 440.118228 
L 327.729185 466.712573 
L 327.948738 453.343682 
L 328.168291 462.831792 
L 328.387844 408.556142 
L 328.607397 401.536761 
L 328.826951 243.191558 
L 329.266057 494.000561 
L 329.48561 442.526486 
L 329.705163 330.17592 
L 329.924716 570.295637 
L 330.144269 381.210705 
L 330.363823 473.0761 
L 330.802929 349.999357 
L 331.022482 445.943346 
L 331.242035 361.50814 
L 331.461588 353.110475 
L 332.120248 488.922346 
L 332.339801 517.720465 
L 332.559354 443.846898 
L 332.778907 446.17242 
L 333.218014 354.351159 
L 333.437567 424.648665 
L 333.876673 475.234167 
L 334.096226 513.949964 
L 334.315779 400.030513 
L 334.535333 465.518709 
L 334.974439 398.33784 
L 335.193992 474.240972 
L 335.633098 394.521706 
L 335.852651 481.317173 
L 336.072205 353.849316 
L 336.291758 470.711351 
L 336.511311 425.631358 
L 336.730864 452.819354 
L 336.950417 461.206904 
L 337.16997 486.654151 
L 337.389524 365.790558 
L 337.609077 466.717985 
L 337.82863 440.391346 
L 338.048183 344.272302 
L 338.267736 387.125684 
L 338.487289 491.371462 
L 338.706842 433.362192 
L 338.926396 502.346793 
L 339.365502 454.382757 
L 339.585055 522.130672 
L 339.804608 444.10935 
L 340.024161 240.635726 
L 340.243715 436.710928 
L 340.463268 472.210893 
L 340.682821 378.413428 
L 340.902374 499.029262 
L 341.121927 393.522816 
L 341.34148 440.955789 
L 341.561033 523.793451 
L 341.780587 500.979026 
L 342.219693 386.549767 
L 342.658799 365.068404 
L 342.878352 486.751246 
L 343.097906 424.203687 
L 343.317459 280.731604 
L 343.756565 427.856437 
L 343.976118 435.350158 
L 344.415224 510.556569 
L 344.854331 333.345324 
L 345.073884 401.337204 
L 345.293437 423.8898 
L 345.51299 387.283937 
L 345.732543 381.144192 
L 345.952096 532.780369 
L 346.17165 511.389911 
L 346.391203 393.403761 
L 346.610756 434.039904 
L 346.830309 440.40978 
L 347.049862 423.740187 
L 347.269415 458.973479 
L 347.488969 406.854275 
L 347.708522 486.854427 
L 347.928075 427.723265 
L 348.147628 456.855147 
L 348.367181 380.669229 
L 348.586734 458.048534 
L 348.806287 474.25223 
L 349.025841 420.29435 
L 349.245394 452.7801 
L 349.464947 398.434564 
L 349.6845 416.909813 
L 349.904053 507.816003 
L 350.123606 486.040892 
L 350.34316 403.25117 
L 350.562713 378.512615 
L 350.782266 490.349867 
L 351.001819 375.661514 
L 351.221372 459.581334 
L 351.440925 407.193699 
L 351.660478 413.094475 
L 351.880032 473.427294 
L 352.099585 446.753641 
L 352.319138 519.405495 
L 352.538691 483.999263 
L 352.758244 420.903668 
L 352.977797 442.297926 
L 353.197351 433.238409 
L 353.416904 322.253163 
L 353.636457 542.784361 
L 354.075563 336.272462 
L 354.295116 442.811974 
L 354.514669 379.413518 
L 354.734223 399.440075 
L 354.953776 375.66571 
L 355.173329 364.31503 
L 355.392882 334.194103 
L 355.612435 477.072349 
L 355.831988 456.223122 
L 356.051542 466.146406 
L 356.271095 432.524851 
L 356.490648 435.572267 
L 356.929754 495.409216 
L 357.149307 244.656731 
L 357.36886 445.607251 
L 357.588414 455.477994 
L 357.807967 481.83104 
L 358.02752 385.547997 
L 358.466626 420.587532 
L 358.686179 282.350776 
L 358.905733 436.089748 
L 359.125286 353.013366 
L 359.344839 487.558102 
L 359.564392 485.92027 
L 359.783945 494.432043 
L 360.003498 470.893506 
L 360.442605 357.07945 
L 360.881711 474.737519 
L 361.101264 404.613614 
L 361.320817 434.493925 
L 361.54037 434.652672 
L 361.759924 410.968957 
L 361.979477 441.835509 
L 362.19903 412.432239 
L 362.418583 522.957041 
L 362.638136 514.852109 
L 363.296796 373.999648 
L 363.516349 456.224288 
L 363.735902 453.34552 
L 363.955455 390.987788 
L 364.175008 416.371459 
L 364.394561 421.494711 
L 364.614115 461.324615 
L 364.833668 412.891214 
L 365.053221 305.836944 
L 365.272774 368.794051 
L 365.492327 286.696372 
L 365.71188 475.94924 
L 365.931433 390.71515 
L 366.150987 466.132587 
L 366.37054 408.850563 
L 366.590093 500.218692 
L 366.809646 486.815704 
L 367.029199 432.755259 
L 367.248752 424.210332 
L 367.468306 463.551117 
L 367.687859 473.082214 
L 367.907412 384.992807 
L 368.126965 385.569438 
L 368.346518 287.136778 
L 368.566071 434.670212 
L 368.785624 471.559447 
L 369.005178 454.625329 
L 369.224731 450.036563 
L 369.444284 367.711234 
L 369.663837 464.81954 
L 369.88339 467.184079 
L 370.102943 444.371806 
L 370.322497 514.91012 
L 370.54205 400.850801 
L 370.761603 356.705146 
L 370.981156 498.897412 
L 371.200709 395.64465 
L 371.420262 413.619193 
L 371.639815 526.681497 
L 371.859369 424.648074 
L 372.078922 401.018482 
L 372.298475 471.289028 
L 372.518028 454.701546 
L 372.737581 373.638411 
L 372.957134 519.213936 
L 373.176687 478.01185 
L 373.396241 373.492289 
L 373.615794 489.217862 
L 373.835347 492.568442 
L 374.0549 481.6865 
L 374.274453 415.618277 
L 374.494006 242.336712 
L 374.933113 423.754902 
L 375.152666 356.349334 
L 375.372219 472.22522 
L 375.811325 299.200306 
L 376.030878 396.927076 
L 376.250432 411.035079 
L 376.469985 448.480849 
L 376.689538 401.6303 
L 377.128644 135.92824 
L 377.348197 441.934807 
L 377.567751 247.225308 
L 377.787304 442.883787 
L 378.006857 393.629066 
L 378.22641 466.08424 
L 378.445963 387.947396 
L 378.665516 406.536076 
L 378.885069 468.630986 
L 379.104623 478.846556 
L 379.324176 368.239377 
L 379.543729 414.583535 
L 379.982835 356.02271 
L 380.202388 441.625616 
L 380.421942 342.889106 
L 380.641495 455.76731 
L 380.861048 409.898972 
L 381.080601 443.023977 
L 381.300154 381.824559 
L 381.519707 477.625701 
L 381.73926 355.385384 
L 381.958814 490.568383 
L 382.178367 415.797959 
L 382.39792 455.486853 
L 382.617473 459.602166 
L 382.837026 466.989683 
L 383.056579 490.1854 
L 383.276133 492.251276 
L 383.495686 394.583656 
L 383.715239 395.499011 
L 383.934792 475.022674 
L 384.373898 364.44212 
L 384.593451 455.157116 
L 385.032558 412.222834 
L 385.252111 492.347953 
L 385.471664 456.728347 
L 385.91077 501.277305 
L 386.130324 341.430319 
L 386.56943 478.238376 
L 386.788983 406.526864 
L 387.008536 404.225703 
L 387.228089 448.533826 
L 387.447642 415.071926 
L 387.667196 456.486753 
L 387.886749 407.238823 
L 388.106302 441.423329 
L 388.325855 508.290415 
L 388.545408 299.030998 
L 389.204068 467.258088 
L 389.423621 337.906138 
L 389.643174 462.443351 
L 390.08228 448.361855 
L 390.301833 479.62405 
L 390.521387 448.619214 
L 390.74094 398.511602 
L 390.960493 423.017823 
L 391.180046 361.953106 
L 391.399599 550.743206 
L 391.619152 435.679373 
L 391.838706 519.57043 
L 392.058259 491.838848 
L 392.277812 423.83013 
L 392.497365 477.508384 
L 392.716918 440.497891 
L 392.936471 508.82204 
L 393.156024 471.002502 
L 393.375578 474.869234 
L 393.595131 365.751132 
L 393.814684 436.628087 
L 394.034237 426.495876 
L 394.25379 431.644455 
L 394.473343 268.766512 
L 394.692897 543.369009 
L 394.91245 443.632372 
L 395.132003 433.4305 
L 395.351556 499.144545 
L 395.571109 407.017514 
L 396.010215 338.841672 
L 396.229769 452.412884 
L 396.449322 394.08111 
L 396.668875 471.983464 
L 396.888428 460.157492 
L 397.107981 490.004624 
L 397.547087 335.196382 
L 397.766641 449.320821 
L 397.986194 277.470982 
L 398.205747 421.572375 
L 398.4253 404.54392 
L 398.644853 408.042701 
L 398.864406 422.934128 
L 399.08396 422.308576 
L 399.303513 233.113669 
L 399.523066 405.962977 
L 399.742619 483.67768 
L 399.962172 519.269955 
L 400.401278 278.741747 
L 400.620832 453.24188 
L 400.840385 324.985305 
L 401.059938 422.791629 
L 401.279491 363.30192 
L 401.499044 477.106537 
L 401.718597 408.973642 
L 401.938151 451.920856 
L 402.157704 471.385662 
L 402.377257 292.715206 
L 402.59681 351.193561 
L 402.816363 352.855529 
L 403.255469 489.997483 
L 403.475023 341.727291 
L 403.694576 430.7481 
L 403.914129 441.224176 
L 404.133682 381.571907 
L 404.353235 452.206313 
L 404.572788 359.76834 
L 404.792342 384.046234 
L 405.011895 526.513096 
L 405.231448 354.33905 
L 405.451001 346.917153 
L 405.670554 463.378549 
L 405.890107 457.547029 
L 406.10966 447.608061 
L 406.329214 456.927538 
L 406.548767 522.297771 
L 406.76832 486.32187 
L 406.987873 427.199719 
L 407.426979 522.099251 
L 407.646533 494.745178 
L 407.866086 440.238675 
L 408.085639 342.722297 
L 408.305192 431.915051 
L 408.524745 314.968372 
L 408.744298 337.416201 
L 408.963851 400.150537 
L 409.183405 356.702588 
L 409.622511 440.714332 
L 410.061617 375.319628 
L 410.28117 406.724646 
L 410.500724 494.197768 
L 410.720277 358.591348 
L 410.93983 477.9069 
L 411.159383 427.155505 
L 411.378936 412.779267 
L 411.598489 371.227021 
L 411.818042 381.903765 
L 412.037596 438.888053 
L 412.257149 389.02173 
L 412.476702 234.227353 
L 412.696255 385.779537 
L 412.915808 400.798242 
L 413.135361 402.154383 
L 413.354915 374.53558 
L 413.574468 313.83213 
L 413.794021 470.727681 
L 414.013574 501.42892 
L 414.233127 428.424615 
L 414.45268 396.407457 
L 414.672233 405.45311 
L 414.891787 387.686536 
L 415.330893 451.486326 
L 415.550446 358.829647 
L 415.769999 366.885245 
L 415.989552 422.690039 
L 416.209106 392.991671 
L 416.428659 284.37287 
L 416.648212 386.420793 
L 416.867765 382.361273 
L 417.087318 462.15735 
L 417.306871 458.671972 
L 417.526424 461.02827 
L 417.745978 416.286362 
L 417.965531 440.822806 
L 418.185084 319.939968 
L 418.404637 448.668787 
L 418.62419 397.231566 
L 419.063297 448.376013 
L 419.28285 508.2509 
L 419.502403 387.446648 
L 419.721956 499.394232 
L 419.941509 483.342174 
L 420.161062 505.170512 
L 420.380615 498.479771 
L 420.600169 456.936927 
L 420.819722 441.389372 
L 421.039275 470.89414 
L 421.258828 339.940931 
L 421.478381 401.331108 
L 421.697934 305.391284 
L 421.917488 445.644097 
L 422.137041 390.462647 
L 422.356594 451.767355 
L 422.576147 385.666982 
L 422.7957 388.13717 
L 423.015253 516.191247 
L 423.673913 332.831187 
L 423.893466 484.547181 
L 424.113019 314.350548 
L 424.552125 504.674123 
L 424.771678 295.978833 
L 425.210785 519.420766 
L 425.649891 382.315798 
L 425.869444 408.133839 
L 426.088997 419.27536 
L 426.308551 361.560374 
L 426.528104 437.694086 
L 426.747657 407.19008 
L 426.96721 414.475865 
L 427.186763 359.833913 
L 427.406316 442.891338 
L 427.625869 441.06174 
L 427.845423 500.541827 
L 428.064976 401.306806 
L 428.284529 486.432137 
L 428.504082 446.176011 
L 428.943188 256.468826 
L 429.162742 527.15837 
L 429.601848 394.422136 
L 429.821401 499.218549 
L 430.260507 455.165871 
L 430.699614 405.450548 
L 430.919167 460.130051 
L 431.358273 262.798525 
L 431.577826 393.218474 
L 431.797379 293.052349 
L 432.016933 425.658433 
L 432.236486 427.795085 
L 432.456039 470.214987 
L 432.895145 501.64903 
L 433.114698 396.476092 
L 433.334251 407.333735 
L 433.553805 502.043975 
L 433.773358 461.355111 
L 433.992911 399.521282 
L 434.212464 426.291805 
L 434.432017 436.945093 
L 434.65157 492.46983 
L 434.871124 372.103743 
L 435.090677 414.450688 
L 435.31023 494.801267 
L 435.529783 533.071594 
L 435.968889 401.883564 
L 436.188442 486.932946 
L 436.407996 449.268996 
L 436.627549 323.265987 
L 436.847102 379.220332 
L 437.066655 464.099384 
L 437.725315 416.497687 
L 437.944868 469.333066 
L 438.164421 462.426171 
L 438.383974 321.925605 
L 438.603527 338.872342 
L 438.82308 470.746418 
L 439.042633 366.063148 
L 439.262187 328.081434 
L 439.48174 405.640337 
L 439.701293 440.731626 
L 439.920846 334.434579 
L 440.140399 446.454089 
L 440.359952 270.850076 
L 440.579506 347.005607 
L 440.799059 494.634925 
L 441.018612 513.600597 
L 441.238165 424.241151 
L 441.457718 450.01572 
L 441.677271 494.909418 
L 441.896824 503.328797 
L 442.116378 194.241038 
L 442.335931 425.381626 
L 442.555484 469.033681 
L 443.214143 371.037233 
L 443.433697 408.770385 
L 443.65325 355.284293 
L 443.872803 472.181871 
L 444.092356 453.622516 
L 444.311909 469.514883 
L 444.531462 413.63203 
L 444.751015 223.900216 
L 444.970569 446.816461 
L 445.190122 405.34981 
L 445.409675 505.979917 
L 445.629228 372.611768 
L 445.848781 422.176662 
L 446.068334 541.330038 
L 446.287888 376.722339 
L 446.507441 485.90242 
L 446.946547 382.789528 
L 447.1661 455.412005 
L 447.385653 443.096997 
L 447.605206 493.490075 
L 448.044313 319.29419 
L 448.483419 508.886387 
L 448.702972 487.358577 
L 448.922525 486.921416 
L 449.142079 429.886399 
L 449.361632 434.784023 
L 449.581185 406.27666 
L 449.800738 315.655617 
L 450.239844 475.785488 
L 450.678951 355.21529 
L 450.898504 393.821856 
L 451.118057 348.733265 
L 451.33761 436.950096 
L 451.557163 370.712341 
L 451.996269 502.29659 
L 452.215823 496.576286 
L 452.435376 390.806405 
L 452.654929 478.991471 
L 452.874482 443.354226 
L 453.094035 435.220454 
L 453.313588 504.676039 
L 453.533142 331.338717 
L 453.752695 365.518028 
L 453.972248 334.43154 
L 454.191801 445.977667 
L 454.411354 385.020467 
L 454.630907 429.924436 
L 454.85046 312.181279 
L 455.070014 382.014397 
L 455.289567 404.52233 
L 455.50912 440.179279 
L 455.728673 316.022222 
L 455.948226 314.173146 
L 456.387333 520.430774 
L 456.826439 423.500983 
L 457.045992 478.188855 
L 457.265545 454.477563 
L 457.485098 348.469732 
L 457.704651 486.572292 
L 457.924205 347.895866 
L 458.143758 488.087739 
L 458.363311 437.347594 
L 458.802417 487.776416 
L 459.02197 409.715142 
L 459.241524 438.883817 
L 459.461077 429.68152 
L 459.68063 445.447298 
L 459.900183 480.934629 
L 460.119736 380.968159 
L 460.339289 424.737125 
L 460.558842 383.045978 
L 460.778396 319.348306 
L 460.997949 468.992201 
L 461.217502 260.703723 
L 461.437055 487.877077 
L 461.656608 327.427059 
L 461.876161 294.007625 
L 462.095715 519.86087 
L 462.315268 437.881147 
L 462.534821 421.225404 
L 462.754374 331.33853 
L 463.19348 462.544983 
L 463.413033 379.888584 
L 463.632587 383.543819 
L 463.85214 464.083209 
L 464.071693 380.552922 
L 464.291246 428.966706 
L 464.510799 382.178979 
L 464.730352 502.634848 
L 465.169459 408.071083 
L 465.389012 501.592311 
L 465.608565 436.16246 
L 465.828118 309.063298 
L 466.267224 430.291302 
L 466.486778 262.819658 
L 466.925884 403.325991 
L 467.145437 411.902753 
L 467.36499 530.022364 
L 467.584543 451.94977 
L 467.804097 535.78549 
L 468.02365 441.47809 
L 468.243203 492.121495 
L 468.462756 491.227889 
L 468.682309 402.976318 
L 468.901862 499.486557 
L 469.121415 466.881202 
L 469.340969 455.324707 
L 469.560522 450.098927 
L 469.780075 420.736415 
L 469.999628 331.274594 
L 470.438734 472.409407 
L 470.658288 493.430988 
L 470.877841 532.929467 
L 471.097394 375.838926 
L 471.316947 346.635934 
L 471.5365 487.628452 
L 471.756053 287.473892 
L 471.975606 523.376251 
L 472.19516 392.398281 
L 472.414713 375.603052 
L 472.634266 498.688952 
L 472.853819 488.281325 
L 473.073372 433.11885 
L 473.292925 503.606135 
L 473.512479 351.701409 
L 473.732032 486.016092 
L 473.951585 272.461219 
L 474.171138 384.227987 
L 474.390691 326.173906 
L 474.610244 471.879164 
L 474.829797 416.734676 
L 475.049351 441.851592 
L 475.268904 422.730261 
L 475.488457 380.386487 
L 475.70801 501.259832 
L 475.927563 361.158297 
L 476.147116 307.684502 
L 476.366669 482.481384 
L 476.586223 377.119923 
L 476.805776 427.424488 
L 477.025329 508.934254 
L 477.244882 227.686737 
L 477.464435 480.519474 
L 477.683988 406.555781 
L 477.903542 385.528652 
L 478.123095 524.026249 
L 478.342648 414.312045 
L 478.781754 562.040489 
L 479.22086 324.40006 
L 479.440414 482.851702 
L 479.659967 400.853935 
L 479.87952 444.65992 
L 480.099073 411.458706 
L 480.318626 414.975913 
L 480.538179 388.627847 
L 480.757733 426.947446 
L 480.977286 414.457778 
L 481.196839 520.693415 
L 481.416392 460.14547 
L 481.635945 356.750725 
L 481.855498 546.258904 
L 482.075051 377.594236 
L 482.294605 384.980174 
L 482.514158 442.171435 
L 482.733711 438.241319 
L 482.953264 383.557809 
L 483.172817 473.43587 
L 483.39237 341.444271 
L 483.611924 504.737671 
L 483.831477 231.344734 
L 484.05103 364.33809 
L 484.270583 300.99762 
L 484.709689 443.441386 
L 484.929242 436.785025 
L 485.148796 402.739414 
L 485.368349 548.545434 
L 485.587902 356.884093 
L 485.807455 479.089832 
L 486.027008 478.326066 
L 486.246561 464.497069 
L 486.466115 548.25673 
L 486.685668 421.221513 
L 486.905221 416.122152 
L 487.124774 365.909661 
L 487.344327 405.94727 
L 487.56388 420.709325 
L 487.783433 513.884897 
L 488.002987 431.6324 
L 488.22254 458.934746 
L 488.881199 344.435533 
L 489.100752 442.593879 
L 489.320306 484.086541 
L 489.539859 474.128847 
L 489.759412 487.472375 
L 489.978965 463.063094 
L 490.198518 361.671401 
L 490.418071 541.266081 
L 490.637624 479.969151 
L 490.857178 384.833572 
L 491.076731 392.893727 
L 491.296284 471.076832 
L 491.515837 328.651125 
L 491.954943 453.318492 
L 492.174497 457.028934 
L 492.39405 307.337621 
L 492.613603 479.960493 
L 492.833156 488.418346 
L 493.052709 337.504656 
L 493.272262 448.943565 
L 493.491815 433.11285 
L 493.711369 390.050696 
L 493.930922 430.113951 
L 494.150475 368.043839 
L 494.370028 496.196411 
L 494.809134 375.128684 
L 495.028688 393.115108 
L 495.248241 519.745719 
L 495.467794 396.610291 
L 495.9069 493.204963 
L 496.126453 387.019388 
L 496.346006 436.769676 
L 496.56556 415.828541 
L 496.785113 425.278759 
L 497.004666 473.675342 
L 497.224219 428.202265 
L 497.443772 526.208801 
L 497.663325 346.47954 
L 497.882879 474.03079 
L 498.102432 489.967957 
L 498.321985 440.210586 
L 498.541538 473.178279 
L 498.761091 488.697753 
L 498.980644 467.290124 
L 499.200197 389.072869 
L 499.419751 405.909999 
L 499.639304 339.300676 
L 500.07841 464.124256 
L 500.297963 384.231007 
L 500.517516 385.276951 
L 500.73707 355.706569 
L 500.956623 359.651148 
L 501.176176 369.925248 
L 501.395729 492.080565 
L 501.615282 393.681862 
L 501.834835 520.053932 
L 502.054388 487.842922 
L 502.273942 536.785409 
L 502.493495 290.455132 
L 502.713048 360.67575 
L 502.932601 527.638956 
L 503.152154 489.475428 
L 503.371707 351.356606 
L 503.59126 466.01237 
L 503.810814 425.674409 
L 504.030367 488.947802 
L 504.24992 452.25067 
L 504.469473 373.709148 
L 504.689026 438.365265 
L 504.908579 307.73662 
L 505.128133 447.461269 
L 505.567239 372.033641 
L 505.786792 363.602924 
L 506.006345 421.693693 
L 506.225898 240.553801 
L 506.445451 411.199968 
L 506.665005 406.55523 
L 506.884558 452.811574 
L 507.104111 411.740944 
L 507.323664 344.708845 
L 507.543217 361.055803 
L 507.76277 476.32051 
L 507.982324 250.148639 
L 508.201877 344.737717 
L 508.42143 323.870601 
L 508.640983 434.807033 
L 508.860536 355.456115 
L 509.080089 462.999393 
L 509.299642 377.194579 
L 509.519196 432.835715 
L 509.738749 341.182022 
L 509.958302 382.80516 
L 510.177855 450.919128 
L 510.397408 444.497087 
L 510.836515 366.66691 
L 511.056068 458.249218 
L 511.275621 431.996465 
L 511.495174 432.705319 
L 511.714727 424.209789 
L 511.93428 497.774571 
L 512.153833 352.632087 
L 512.373387 485.693877 
L 512.59294 396.443035 
L 512.812493 390.277485 
L 513.032046 404.375192 
L 513.251599 473.4446 
L 513.471152 475.878079 
L 513.690706 348.688067 
L 513.910259 415.678089 
L 514.129812 354.049313 
L 514.349365 436.941736 
L 514.568918 464.622915 
L 514.788471 322.068621 
L 515.447131 517.268761 
L 515.666684 455.761963 
L 515.886237 429.254519 
L 516.10579 215.431389 
L 516.325343 309.176013 
L 516.544897 467.026888 
L 516.984003 367.96084 
L 517.203556 400.909181 
L 517.423109 410.707543 
L 517.642662 425.949172 
L 517.862215 488.486216 
L 518.081769 467.758038 
L 518.301322 436.413638 
L 518.520875 507.694355 
L 518.740428 507.461942 
L 518.959981 476.778196 
L 519.179534 493.531042 
L 519.399088 437.369113 
L 519.618641 491.568106 
L 519.838194 422.348535 
L 520.2773 490.210681 
L 520.496853 489.185234 
L 520.716406 305.962136 
L 520.93596 309.386044 
L 521.375066 470.12164 
L 521.594619 457.461671 
L 521.814172 364.38823 
L 522.033725 498.799047 
L 522.253279 489.344164 
L 522.472832 491.92532 
L 522.692385 279.627887 
L 522.911938 403.749012 
L 523.131491 425.708777 
L 523.351044 348.624369 
L 523.570597 491.893791 
L 523.790151 441.106798 
L 524.009704 335.129888 
L 524.229257 346.747075 
L 524.887916 500.341693 
L 525.10747 253.870262 
L 525.327023 240.041857 
L 525.546576 466.854387 
L 525.766129 422.199765 
L 526.205235 496.962691 
L 526.644342 434.777554 
L 526.863895 495.41413 
L 527.083448 512.475389 
L 527.522554 356.302056 
L 527.96166 447.545107 
L 528.181214 373.698393 
L 528.400767 406.672131 
L 528.62032 314.20579 
L 528.839873 310.707959 
L 529.059426 422.084222 
L 529.278979 390.819206 
L 529.498533 449.170667 
L 529.718086 546.46244 
L 529.937639 535.112115 
L 530.157192 362.21679 
L 530.376745 437.09887 
L 530.596298 425.212729 
L 530.815851 405.735311 
L 531.035405 421.121732 
L 531.254958 419.551631 
L 531.474511 302.173401 
L 531.694064 377.153242 
L 531.913617 344.365552 
L 532.13317 381.651978 
L 532.352724 348.884109 
L 532.572277 276.821728 
L 532.79183 472.184651 
L 533.011383 297.524921 
L 533.230936 408.42194 
L 533.450489 410.074045 
L 533.670042 409.273016 
L 533.889596 338.239614 
L 534.328702 507.032553 
L 534.548255 391.677789 
L 534.767808 450.459717 
L 534.987361 397.451276 
L 535.206915 407.80043 
L 535.426468 447.503766 
L 535.646021 354.083772 
L 535.865574 451.780699 
L 536.085127 395.044604 
L 536.30468 457.336844 
L 536.524233 439.273039 
L 536.743787 498.144435 
L 536.96334 364.912833 
L 537.182893 434.606512 
L 537.402446 409.526242 
L 537.621999 348.536188 
L 538.061106 416.188175 
L 538.280659 415.070442 
L 538.500212 374.717852 
L 538.719765 389.361876 
L 539.158871 492.538674 
L 539.378424 451.95174 
L 539.597978 371.021393 
L 539.817531 421.937369 
L 540.037084 372.22563 
L 540.256637 382.288282 
L 540.695743 508.942424 
L 540.915297 337.259624 
L 541.13485 311.168057 
L 541.354403 426.012675 
L 541.573956 472.218402 
L 541.793509 418.30085 
L 542.013062 475.320616 
L 542.232615 389.711224 
L 542.452169 259.395341 
L 542.671722 432.024932 
L 542.891275 350.357245 
L 543.110828 352.496111 
L 543.330381 397.2938 
L 543.549934 403.269228 
L 543.769488 360.827647 
L 543.989041 492.674992 
L 544.208594 430.543723 
L 544.428147 413.02685 
L 544.6477 459.539733 
L 544.867253 382.531162 
L 545.086806 465.351278 
L 545.30636 405.237033 
L 545.525913 400.447523 
L 545.745466 471.48261 
L 545.745466 471.48261 
" style="fill:none;stroke:#96c69a;stroke-linecap:round;stroke-width:3;"/>
   </g>
   <g id="line2d_2"/>
   <g id="patch_3">
    <path d="M 84.914375 603.86 
L 84.914375 109.484571 
" style="fill:none;stroke:#262626;stroke-linecap:square;stroke-linejoin:miter;stroke-width:2.5;"/>
   </g>
   <g id="patch_4">
    <path d="M 84.914375 603.86 
L 567.689804 603.86 
" style="fill:none;stroke:#262626;stroke-linecap:square;stroke-linejoin:miter;stroke-width:2.5;"/>
   </g>
   <g id="legend_1">
    <g id="patch_5">
     <path d="M 514.774179 598.86 
L 560.689804 598.86 
Q 562.689804 598.86 562.689804 596.86 
L 562.689804 554.954375 
Q 562.689804 552.954375 560.689804 552.954375 
L 514.774179 552.954375 
Q 512.774179 552.954375 512.774179 554.954375 
L 512.774179 596.86 
Q 512.774179 598.86 514.774179 598.86 
z
" style="fill:#ffffff;opacity:0.8;stroke:#cccccc;stroke-linejoin:miter;stroke-width:2;"/>
    </g>
    <g id="text_15">
     <!-- $n_\tau$ -->
     <g style="fill:#262626;" transform="translate(524.651991 575.190625)scale(0.24 -0.24)">
      <defs>
       <path d="M 3566 2113 
L 3156 0 
L 2578 0 
L 2988 2091 
Q 3016 2238 3031 2350 
Q 3047 2463 3047 2528 
Q 3047 2791 2881 2937 
Q 2716 3084 2419 3084 
Q 1956 3084 1622 2776 
Q 1288 2469 1184 1941 
L 800 0 
L 225 0 
L 903 3500 
L 1478 3500 
L 1363 2950 
Q 1603 3253 1940 3418 
Q 2278 3584 2650 3584 
Q 3113 3584 3367 3334 
Q 3622 3084 3622 2631 
Q 3622 2519 3608 2391 
Q 3594 2263 3566 2113 
z
" id="DejaVuSans-Oblique-6e" transform="scale(0.015625)"/>
       <path d="M 2103 638 
Q 2188 488 2525 488 
L 2800 488 
L 2706 0 
L 2363 0 
Q 1800 0 1600 300 
Q 1403 606 1534 1269 
L 1856 2925 
L 541 2925 
L 653 3500 
L 3881 3500 
L 3769 2925 
L 2444 2925 
L 2113 1234 
Q 2025 781 2103 638 
z
" id="DejaVuSans-Oblique-3c4" transform="scale(0.015625)"/>
      </defs>
      <use xlink:href="#DejaVuSans-Oblique-6e"/>
      <use transform="translate(63.378906 -16.40625)scale(0.7)" xlink:href="#DejaVuSans-Oblique-3c4"/>
     </g>
    </g>
    <g id="line2d_3">
     <path d="M 516.774179 589.280313 
L 536.774179 589.280313 
" style="fill:none;stroke:#96c69a;stroke-linecap:round;stroke-width:3;"/>
    </g>
    <g id="line2d_4"/>
    <g id="text_16">
     <!-- 50 -->
     <g style="fill:#262626;" transform="translate(544.774179 592.780313)scale(0.1 -0.1)">
      <defs>
       <path d="M 678 4666 
L 3669 4666 
L 3669 3781 
L 1638 3781 
L 1638 3059 
Q 1775 3097 1914 3117 
Q 2053 3138 2203 3138 
Q 3056 3138 3531 2711 
Q 4006 2284 4006 1522 
Q 4006 766 3489 337 
Q 2972 -91 2053 -91 
Q 1656 -91 1267 -14 
Q 878 63 494 219 
L 494 1166 
Q 875 947 1217 837 
Q 1559 728 1863 728 
Q 2300 728 2551 942 
Q 2803 1156 2803 1522 
Q 2803 1891 2551 2103 
Q 2300 2316 1863 2316 
Q 1603 2316 1309 2248 
Q 1016 2181 678 2041 
L 678 4666 
z
" id="DejaVuSans-Bold-35" transform="scale(0.015625)"/>
       <path d="M 2944 2338 
Q 2944 3213 2780 3570 
Q 2616 3928 2228 3928 
Q 1841 3928 1675 3570 
Q 1509 3213 1509 2338 
Q 1509 1453 1675 1090 
Q 1841 728 2228 728 
Q 2613 728 2778 1090 
Q 2944 1453 2944 2338 
z
M 4147 2328 
Q 4147 1169 3647 539 
Q 3147 -91 2228 -91 
Q 1306 -91 806 539 
Q 306 1169 306 2328 
Q 306 3491 806 4120 
Q 1306 4750 2228 4750 
Q 3147 4750 3647 4120 
Q 4147 3491 4147 2328 
z
" id="DejaVuSans-Bold-30" transform="scale(0.015625)"/>
      </defs>
      <use xlink:href="#DejaVuSans-Bold-35"/>
      <use x="69.580078" xlink:href="#DejaVuSans-Bold-30"/>
     </g>
    </g>
   </g>
  </g>
  <g id="axes_2">
   <g id="patch_6">
    <path d="M 84.914375 92.437143 
L 567.689804 92.437143 
L 567.689804 7.2 
L 84.914375 7.2 
z
" style="fill:none;"/>
   </g>
   <g id="matplotlib.axis_3">
    <g id="xtick_7"/>
    <g id="xtick_8"/>
    <g id="xtick_9"/>
    <g id="xtick_10"/>
    <g id="xtick_11"/>
    <g id="xtick_12"/>
   </g>
   <g id="matplotlib.axis_4">
    <g id="ytick_7">
     <g id="text_17">
      <!-- 0 -->
      <g style="fill:#262626;" transform="translate(55.416875 100.795424)scale(0.22 -0.22)">
       <use xlink:href="#DejaVuSans-30"/>
      </g>
     </g>
    </g>
    <g id="ytick_8">
     <g id="text_18">
      <!-- 100 -->
      <g style="fill:#262626;" transform="translate(27.421875 48.082287)scale(0.22 -0.22)">
       <use xlink:href="#DejaVuSans-31"/>
       <use x="63.623047" xlink:href="#DejaVuSans-30"/>
       <use x="127.246094" xlink:href="#DejaVuSans-30"/>
      </g>
     </g>
    </g>
   </g>
   <g id="patch_7">
    <path clip-path="url(#p972be1a4d8)" d="M 106.858713 92.437143 
L 140.619232 92.437143 
L 140.619232 11.258912 
L 106.858713 11.258912 
z
" style="fill:#96c69a;fill-opacity:0.5;stroke:#ffffff;stroke-linejoin:miter;stroke-width:2;"/>
   </g>
   <g id="patch_8">
    <path clip-path="url(#p972be1a4d8)" d="M 140.619232 92.437143 
L 174.379752 92.437143 
L 174.379752 11.258912 
L 140.619232 11.258912 
z
" style="fill:#96c69a;fill-opacity:0.5;stroke:#ffffff;stroke-linejoin:miter;stroke-width:2;"/>
   </g>
   <g id="patch_9">
    <path clip-path="url(#p972be1a4d8)" d="M 174.379752 92.437143 
L 208.140271 92.437143 
L 208.140271 11.258912 
L 174.379752 11.258912 
z
" style="fill:#96c69a;fill-opacity:0.5;stroke:#ffffff;stroke-linejoin:miter;stroke-width:2;"/>
   </g>
   <g id="patch_10">
    <path clip-path="url(#p972be1a4d8)" d="M 208.140271 92.437143 
L 241.900791 92.437143 
L 241.900791 11.258912 
L 208.140271 11.258912 
z
" style="fill:#96c69a;fill-opacity:0.5;stroke:#ffffff;stroke-linejoin:miter;stroke-width:2;"/>
   </g>
   <g id="patch_11">
    <path clip-path="url(#p972be1a4d8)" d="M 241.900791 92.437143 
L 275.66131 92.437143 
L 275.66131 11.786043 
L 241.900791 11.786043 
z
" style="fill:#96c69a;fill-opacity:0.5;stroke:#ffffff;stroke-linejoin:miter;stroke-width:2;"/>
   </g>
   <g id="patch_12">
    <path clip-path="url(#p972be1a4d8)" d="M 275.66131 92.437143 
L 309.42183 92.437143 
L 309.42183 11.258912 
L 275.66131 11.258912 
z
" style="fill:#96c69a;fill-opacity:0.5;stroke:#ffffff;stroke-linejoin:miter;stroke-width:2;"/>
   </g>
   <g id="patch_13">
    <path clip-path="url(#p972be1a4d8)" d="M 309.42183 92.437143 
L 343.182349 92.437143 
L 343.182349 11.258912 
L 309.42183 11.258912 
z
" style="fill:#96c69a;fill-opacity:0.5;stroke:#ffffff;stroke-linejoin:miter;stroke-width:2;"/>
   </g>
   <g id="patch_14">
    <path clip-path="url(#p972be1a4d8)" d="M 343.182349 92.437143 
L 376.942869 92.437143 
L 376.942869 11.258912 
L 343.182349 11.258912 
z
" style="fill:#96c69a;fill-opacity:0.5;stroke:#ffffff;stroke-linejoin:miter;stroke-width:2;"/>
   </g>
   <g id="patch_15">
    <path clip-path="url(#p972be1a4d8)" d="M 376.942869 92.437143 
L 410.703388 92.437143 
L 410.703388 11.786043 
L 376.942869 11.786043 
z
" style="fill:#96c69a;fill-opacity:0.5;stroke:#ffffff;stroke-linejoin:miter;stroke-width:2;"/>
   </g>
   <g id="patch_16">
    <path clip-path="url(#p972be1a4d8)" d="M 410.703388 92.437143 
L 444.463907 92.437143 
L 444.463907 11.258912 
L 410.703388 11.258912 
z
" style="fill:#96c69a;fill-opacity:0.5;stroke:#ffffff;stroke-linejoin:miter;stroke-width:2;"/>
   </g>
   <g id="patch_17">
    <path clip-path="url(#p972be1a4d8)" d="M 444.463907 92.437143 
L 478.224427 92.437143 
L 478.224427 11.258912 
L 444.463907 11.258912 
z
" style="fill:#96c69a;fill-opacity:0.5;stroke:#ffffff;stroke-linejoin:miter;stroke-width:2;"/>
   </g>
   <g id="patch_18">
    <path clip-path="url(#p972be1a4d8)" d="M 478.224427 92.437143 
L 511.984946 92.437143 
L 511.984946 11.258912 
L 478.224427 11.258912 
z
" style="fill:#96c69a;fill-opacity:0.5;stroke:#ffffff;stroke-linejoin:miter;stroke-width:2;"/>
   </g>
   <g id="patch_19">
    <path clip-path="url(#p972be1a4d8)" d="M 511.984946 92.437143 
L 545.745466 92.437143 
L 545.745466 11.258912 
L 511.984946 11.258912 
z
" style="fill:#96c69a;fill-opacity:0.5;stroke:#ffffff;stroke-linejoin:miter;stroke-width:2;"/>
   </g>
   <g id="patch_20">
    <path d="M 84.914375 92.437143 
L 84.914375 7.2 
" style="fill:none;stroke:#262626;stroke-linecap:square;stroke-linejoin:miter;stroke-width:2.5;"/>
   </g>
   <g id="patch_21">
    <path d="M 84.914375 92.437143 
L 567.689804 92.437143 
" style="fill:none;stroke:#262626;stroke-linecap:square;stroke-linejoin:miter;stroke-width:2.5;"/>
   </g>
  </g>
  <g id="axes_3">
   <g id="patch_22">
    <path d="M 584.337232 603.86 
L 667.574375 603.86 
L 667.574375 109.484571 
L 584.337232 109.484571 
z
" style="fill:none;"/>
   </g>
   <g id="matplotlib.axis_5">
    <g id="xtick_13">
     <g id="text_19">
      <!-- 0 -->
      <g style="fill:#262626;" transform="translate(577.338482 636.076563)scale(0.22 -0.22)">
       <use xlink:href="#DejaVuSans-30"/>
      </g>
     </g>
    </g>
    <g id="xtick_14">
     <g id="text_20">
      <!-- 100 -->
      <g style="fill:#262626;" transform="translate(610.810125 636.076563)scale(0.22 -0.22)">
       <use xlink:href="#DejaVuSans-31"/>
       <use x="63.623047" xlink:href="#DejaVuSans-30"/>
       <use x="127.246094" xlink:href="#DejaVuSans-30"/>
      </g>
     </g>
    </g>
   </g>
   <g id="matplotlib.axis_6">
    <g id="ytick_9"/>
    <g id="ytick_10"/>
    <g id="ytick_11"/>
    <g id="ytick_12"/>
    <g id="ytick_13"/>
    <g id="ytick_14"/>
   </g>
   <g id="patch_23">
    <path clip-path="url(#p80fa6ddc4c)" d="M 584.337232 581.38839 
L 585.286615 581.38839 
L 585.286615 568.547469 
L 584.337232 568.547469 
z
" style="fill:#96c69a;fill-opacity:0.5;stroke:#ffffff;stroke-linejoin:miter;stroke-width:1.284092;"/>
   </g>
   <g id="patch_24">
    <path clip-path="url(#p80fa6ddc4c)" d="M 584.337232 568.547469 
L 587.185381 568.547469 
L 587.185381 555.706549 
L 584.337232 555.706549 
z
" style="fill:#96c69a;fill-opacity:0.5;stroke:#ffffff;stroke-linejoin:miter;stroke-width:1.284092;"/>
   </g>
   <g id="patch_25">
    <path clip-path="url(#p80fa6ddc4c)" d="M 584.337232 555.706549 
L 590.508221 555.706549 
L 590.508221 542.865629 
L 584.337232 542.865629 
z
" style="fill:#96c69a;fill-opacity:0.5;stroke:#ffffff;stroke-linejoin:miter;stroke-width:1.284092;"/>
   </g>
   <g id="patch_26">
    <path clip-path="url(#p80fa6ddc4c)" d="M 584.337232 542.865629 
L 595.729827 542.865629 
L 595.729827 530.024709 
L 584.337232 530.024709 
z
" style="fill:#96c69a;fill-opacity:0.5;stroke:#ffffff;stroke-linejoin:miter;stroke-width:1.284092;"/>
   </g>
   <g id="patch_27">
    <path clip-path="url(#p80fa6ddc4c)" d="M 584.337232 530.024709 
L 608.071804 530.024709 
L 608.071804 517.183788 
L 584.337232 517.183788 
z
" style="fill:#96c69a;fill-opacity:0.5;stroke:#ffffff;stroke-linejoin:miter;stroke-width:1.284092;"/>
   </g>
   <g id="patch_28">
    <path clip-path="url(#p80fa6ddc4c)" d="M 584.337232 517.183788 
L 609.495878 517.183788 
L 609.495878 504.342868 
L 584.337232 504.342868 
z
" style="fill:#96c69a;fill-opacity:0.5;stroke:#ffffff;stroke-linejoin:miter;stroke-width:1.284092;"/>
   </g>
   <g id="patch_29">
    <path clip-path="url(#p80fa6ddc4c)" d="M 584.337232 504.342868 
L 633.23045 504.342868 
L 633.23045 491.501948 
L 584.337232 491.501948 
z
" style="fill:#96c69a;fill-opacity:0.5;stroke:#ffffff;stroke-linejoin:miter;stroke-width:1.284092;"/>
   </g>
   <g id="patch_30">
    <path clip-path="url(#p80fa6ddc4c)" d="M 584.337232 491.501948 
L 644.148353 491.501948 
L 644.148353 478.661028 
L 584.337232 478.661028 
z
" style="fill:#96c69a;fill-opacity:0.5;stroke:#ffffff;stroke-linejoin:miter;stroke-width:1.284092;"/>
   </g>
   <g id="patch_31">
    <path clip-path="url(#p80fa6ddc4c)" d="M 584.337232 478.661028 
L 650.794033 478.661028 
L 650.794033 465.820108 
L 584.337232 465.820108 
z
" style="fill:#96c69a;fill-opacity:0.5;stroke:#ffffff;stroke-linejoin:miter;stroke-width:1.284092;"/>
   </g>
   <g id="patch_32">
    <path clip-path="url(#p80fa6ddc4c)" d="M 584.337232 465.820108 
L 663.13601 465.820108 
L 663.13601 452.979187 
L 584.337232 452.979187 
z
" style="fill:#96c69a;fill-opacity:0.5;stroke:#ffffff;stroke-linejoin:miter;stroke-width:1.284092;"/>
   </g>
   <g id="patch_33">
    <path clip-path="url(#p80fa6ddc4c)" d="M 584.337232 452.979187 
L 663.610702 452.979187 
L 663.610702 440.138267 
L 584.337232 440.138267 
z
" style="fill:#96c69a;fill-opacity:0.5;stroke:#ffffff;stroke-linejoin:miter;stroke-width:1.284092;"/>
   </g>
   <g id="patch_34">
    <path clip-path="url(#p80fa6ddc4c)" d="M 584.337232 440.138267 
L 657.439713 440.138267 
L 657.439713 427.297347 
L 584.337232 427.297347 
z
" style="fill:#96c69a;fill-opacity:0.5;stroke:#ffffff;stroke-linejoin:miter;stroke-width:1.284092;"/>
   </g>
   <g id="patch_35">
    <path clip-path="url(#p80fa6ddc4c)" d="M 584.337232 427.297347 
L 663.610702 427.297347 
L 663.610702 414.456427 
L 584.337232 414.456427 
z
" style="fill:#96c69a;fill-opacity:0.5;stroke:#ffffff;stroke-linejoin:miter;stroke-width:1.284092;"/>
   </g>
   <g id="patch_36">
    <path clip-path="url(#p80fa6ddc4c)" d="M 584.337232 414.456427 
L 657.439713 414.456427 
L 657.439713 401.615506 
L 584.337232 401.615506 
z
" style="fill:#96c69a;fill-opacity:0.5;stroke:#ffffff;stroke-linejoin:miter;stroke-width:1.284092;"/>
   </g>
   <g id="patch_37">
    <path clip-path="url(#p80fa6ddc4c)" d="M 584.337232 401.615506 
L 647.945884 401.615506 
L 647.945884 388.774586 
L 584.337232 388.774586 
z
" style="fill:#96c69a;fill-opacity:0.5;stroke:#ffffff;stroke-linejoin:miter;stroke-width:1.284092;"/>
   </g>
   <g id="patch_38">
    <path clip-path="url(#p80fa6ddc4c)" d="M 584.337232 388.774586 
L 633.23045 388.774586 
L 633.23045 375.933666 
L 584.337232 375.933666 
z
" style="fill:#96c69a;fill-opacity:0.5;stroke:#ffffff;stroke-linejoin:miter;stroke-width:1.284092;"/>
   </g>
   <g id="patch_39">
    <path clip-path="url(#p80fa6ddc4c)" d="M 584.337232 375.933666 
L 625.635387 375.933666 
L 625.635387 363.092746 
L 584.337232 363.092746 
z
" style="fill:#96c69a;fill-opacity:0.5;stroke:#ffffff;stroke-linejoin:miter;stroke-width:1.284092;"/>
   </g>
   <g id="patch_40">
    <path clip-path="url(#p80fa6ddc4c)" d="M 584.337232 363.092746 
L 624.211313 363.092746 
L 624.211313 350.251826 
L 584.337232 350.251826 
z
" style="fill:#96c69a;fill-opacity:0.5;stroke:#ffffff;stroke-linejoin:miter;stroke-width:1.284092;"/>
   </g>
   <g id="patch_41">
    <path clip-path="url(#p80fa6ddc4c)" d="M 584.337232 350.251826 
L 614.717484 350.251826 
L 614.717484 337.410905 
L 584.337232 337.410905 
z
" style="fill:#96c69a;fill-opacity:0.5;stroke:#ffffff;stroke-linejoin:miter;stroke-width:1.284092;"/>
   </g>
   <g id="patch_42">
    <path clip-path="url(#p80fa6ddc4c)" d="M 584.337232 337.410905 
L 609.021187 337.410905 
L 609.021187 324.569985 
L 584.337232 324.569985 
z
" style="fill:#96c69a;fill-opacity:0.5;stroke:#ffffff;stroke-linejoin:miter;stroke-width:1.284092;"/>
   </g>
   <g id="patch_43">
    <path clip-path="url(#p80fa6ddc4c)" d="M 584.337232 324.569985 
L 602.375507 324.569985 
L 602.375507 311.729065 
L 584.337232 311.729065 
z
" style="fill:#96c69a;fill-opacity:0.5;stroke:#ffffff;stroke-linejoin:miter;stroke-width:1.284092;"/>
   </g>
   <g id="patch_44">
    <path clip-path="url(#p80fa6ddc4c)" d="M 584.337232 311.729065 
L 597.628592 311.729065 
L 597.628592 298.888145 
L 584.337232 298.888145 
z
" style="fill:#96c69a;fill-opacity:0.5;stroke:#ffffff;stroke-linejoin:miter;stroke-width:1.284092;"/>
   </g>
   <g id="patch_45">
    <path clip-path="url(#p80fa6ddc4c)" d="M 584.337232 298.888145 
L 594.780444 298.888145 
L 594.780444 286.047224 
L 584.337232 286.047224 
z
" style="fill:#96c69a;fill-opacity:0.5;stroke:#ffffff;stroke-linejoin:miter;stroke-width:1.284092;"/>
   </g>
   <g id="patch_46">
    <path clip-path="url(#p80fa6ddc4c)" d="M 584.337232 286.047224 
L 591.932295 286.047224 
L 591.932295 273.206304 
L 584.337232 273.206304 
z
" style="fill:#96c69a;fill-opacity:0.5;stroke:#ffffff;stroke-linejoin:miter;stroke-width:1.284092;"/>
   </g>
   <g id="patch_47">
    <path clip-path="url(#p80fa6ddc4c)" d="M 584.337232 273.206304 
L 590.508221 273.206304 
L 590.508221 260.365384 
L 584.337232 260.365384 
z
" style="fill:#96c69a;fill-opacity:0.5;stroke:#ffffff;stroke-linejoin:miter;stroke-width:1.284092;"/>
   </g>
   <g id="patch_48">
    <path clip-path="url(#p80fa6ddc4c)" d="M 584.337232 260.365384 
L 589.084146 260.365384 
L 589.084146 247.524464 
L 584.337232 247.524464 
z
" style="fill:#96c69a;fill-opacity:0.5;stroke:#ffffff;stroke-linejoin:miter;stroke-width:1.284092;"/>
   </g>
   <g id="patch_49">
    <path clip-path="url(#p80fa6ddc4c)" d="M 584.337232 247.524464 
L 588.609455 247.524464 
L 588.609455 234.683544 
L 584.337232 234.683544 
z
" style="fill:#96c69a;fill-opacity:0.5;stroke:#ffffff;stroke-linejoin:miter;stroke-width:1.284092;"/>
   </g>
   <g id="patch_50">
    <path clip-path="url(#p80fa6ddc4c)" d="M 584.337232 234.683544 
L 587.660072 234.683544 
L 587.660072 221.842623 
L 584.337232 221.842623 
z
" style="fill:#96c69a;fill-opacity:0.5;stroke:#ffffff;stroke-linejoin:miter;stroke-width:1.284092;"/>
   </g>
   <g id="patch_51">
    <path clip-path="url(#p80fa6ddc4c)" d="M 584.337232 221.842623 
L 585.761306 221.842623 
L 585.761306 209.001703 
L 584.337232 209.001703 
z
" style="fill:#96c69a;fill-opacity:0.5;stroke:#ffffff;stroke-linejoin:miter;stroke-width:1.284092;"/>
   </g>
   <g id="patch_52">
    <path clip-path="url(#p80fa6ddc4c)" d="M 584.337232 209.001703 
L 585.286615 209.001703 
L 585.286615 196.160783 
L 584.337232 196.160783 
z
" style="fill:#96c69a;fill-opacity:0.5;stroke:#ffffff;stroke-linejoin:miter;stroke-width:1.284092;"/>
   </g>
   <g id="patch_53">
    <path clip-path="url(#p80fa6ddc4c)" d="M 584.337232 196.160783 
L 584.811924 196.160783 
L 584.811924 183.319863 
L 584.337232 183.319863 
z
" style="fill:#96c69a;fill-opacity:0.5;stroke:#ffffff;stroke-linejoin:miter;stroke-width:1.284092;"/>
   </g>
   <g id="patch_54">
    <path clip-path="url(#p80fa6ddc4c)" d="M 584.337232 183.319863 
L 584.337232 183.319863 
L 584.337232 170.478942 
L 584.337232 170.478942 
z
" style="fill:#96c69a;fill-opacity:0.5;stroke:#ffffff;stroke-linejoin:miter;stroke-width:1.284092;"/>
   </g>
   <g id="patch_55">
    <path clip-path="url(#p80fa6ddc4c)" d="M 584.337232 170.478942 
L 584.337232 170.478942 
L 584.337232 157.638022 
L 584.337232 157.638022 
z
" style="fill:#96c69a;fill-opacity:0.5;stroke:#ffffff;stroke-linejoin:miter;stroke-width:1.284092;"/>
   </g>
   <g id="patch_56">
    <path clip-path="url(#p80fa6ddc4c)" d="M 584.337232 157.638022 
L 584.337232 157.638022 
L 584.337232 144.797102 
L 584.337232 144.797102 
z
" style="fill:#96c69a;fill-opacity:0.5;stroke:#ffffff;stroke-linejoin:miter;stroke-width:1.284092;"/>
   </g>
   <g id="patch_57">
    <path clip-path="url(#p80fa6ddc4c)" d="M 584.337232 144.797102 
L 585.286615 144.797102 
L 585.286615 131.956182 
L 584.337232 131.956182 
z
" style="fill:#96c69a;fill-opacity:0.5;stroke:#ffffff;stroke-linejoin:miter;stroke-width:1.284092;"/>
   </g>
   <g id="patch_58">
    <path d="M 584.337232 603.86 
L 584.337232 109.484571 
" style="fill:none;stroke:#262626;stroke-linecap:square;stroke-linejoin:miter;stroke-width:2.5;"/>
   </g>
   <g id="patch_59">
    <path d="M 584.337232 603.86 
L 667.574375 603.86 
" style="fill:none;stroke:#262626;stroke-linecap:square;stroke-linejoin:miter;stroke-width:2.5;"/>
   </g>
  </g>
 </g>
 <defs>
  <clipPath id="pb2a105f625">
   <rect height="494.375429" width="482.775429" x="84.914375" y="109.484571"/>
  </clipPath>
  <clipPath id="p972be1a4d8">
   <rect height="85.237143" width="482.775429" x="84.914375" y="7.2"/>
  </clipPath>
  <clipPath id="p80fa6ddc4c">
   <rect height="494.375429" width="83.237143" x="584.337232" y="109.484571"/>
  </clipPath>
 </defs>
</svg>
