<?xml version="1.0" encoding="utf-8" standalone="no"?>
<!DOCTYPE svg PUBLIC "-//W3C//DTD SVG 1.1//EN"
  "http://www.w3.org/Graphics/SVG/1.1/DTD/svg11.dtd">
<svg height="675.079375pt" version="1.1" viewBox="0 0 688.771875 675.079375" width="688.771875pt" xmlns="http://www.w3.org/2000/svg" xmlns:xlink="http://www.w3.org/1999/xlink">
 <metadata>
  <rdf:RDF xmlns:cc="http://creativecommons.org/ns#" xmlns:dc="http://purl.org/dc/elements/1.1/" xmlns:rdf="http://www.w3.org/1999/02/22-rdf-syntax-ns#">
   <cc:Work>
    <dc:type rdf:resource="http://purl.org/dc/dcmitype/StillImage"/>
    <dc:date>2021-07-16T21:43:57.277333</dc:date>
    <dc:format>image/svg+xml</dc:format>
    <dc:creator>
     <cc:Agent>
      <dc:title>Matplotlib v3.4.2, https://matplotlib.org/</dc:title>
     </cc:Agent>
    </dc:creator>
   </cc:Work>
  </rdf:RDF>
 </metadata>
 <defs>
  <style type="text/css">*{stroke-linecap:butt;stroke-linejoin:round;}</style>
 </defs>
 <g id="figure_1">
  <g id="patch_1">
   <path d="M 0 675.079375 
L 688.771875 675.079375 
L 688.771875 0 
L 0 0 
z
" style="fill:#ffffff;"/>
  </g>
  <g id="axes_1">
   <g id="patch_2">
    <path d="M 98.911875 603.86 
L 581.687304 603.86 
L 581.687304 109.484571 
L 98.911875 109.484571 
z
" style="fill:none;"/>
   </g>
   <g id="matplotlib.axis_1">
    <g id="xtick_1">
     <g id="text_1">
      <!-- 0 -->
      <g style="fill:#262626;" transform="translate(113.63791 636.076563)scale(0.22 -0.22)">
       <defs>
        <path d="M 2034 4250 
Q 1547 4250 1301 3770 
Q 1056 3291 1056 2328 
Q 1056 1369 1301 889 
Q 1547 409 2034 409 
Q 2525 409 2770 889 
Q 3016 1369 3016 2328 
Q 3016 3291 2770 3770 
Q 2525 4250 2034 4250 
z
M 2034 4750 
Q 2819 4750 3233 4129 
Q 3647 3509 3647 2328 
Q 3647 1150 3233 529 
Q 2819 -91 2034 -91 
Q 1250 -91 836 529 
Q 422 1150 422 2328 
Q 422 3509 836 4129 
Q 1250 4750 2034 4750 
z
" id="DejaVuSans-30" transform="scale(0.015625)"/>
       </defs>
       <use xlink:href="#DejaVuSans-30"/>
      </g>
     </g>
    </g>
    <g id="xtick_2">
     <g id="text_2">
      <!-- 20000 -->
      <g style="fill:#262626;" transform="translate(173.464171 636.076563)scale(0.22 -0.22)">
       <defs>
        <path d="M 1228 531 
L 3431 531 
L 3431 0 
L 469 0 
L 469 531 
Q 828 903 1448 1529 
Q 2069 2156 2228 2338 
Q 2531 2678 2651 2914 
Q 2772 3150 2772 3378 
Q 2772 3750 2511 3984 
Q 2250 4219 1831 4219 
Q 1534 4219 1204 4116 
Q 875 4013 500 3803 
L 500 4441 
Q 881 4594 1212 4672 
Q 1544 4750 1819 4750 
Q 2544 4750 2975 4387 
Q 3406 4025 3406 3419 
Q 3406 3131 3298 2873 
Q 3191 2616 2906 2266 
Q 2828 2175 2409 1742 
Q 1991 1309 1228 531 
z
" id="DejaVuSans-32" transform="scale(0.015625)"/>
       </defs>
       <use xlink:href="#DejaVuSans-32"/>
       <use x="63.623047" xlink:href="#DejaVuSans-30"/>
       <use x="127.246094" xlink:href="#DejaVuSans-30"/>
       <use x="190.869141" xlink:href="#DejaVuSans-30"/>
       <use x="254.492188" xlink:href="#DejaVuSans-30"/>
      </g>
     </g>
    </g>
    <g id="xtick_3">
     <g id="text_3">
      <!-- 40000 -->
      <g style="fill:#262626;" transform="translate(261.285432 636.076563)scale(0.22 -0.22)">
       <defs>
        <path d="M 2419 4116 
L 825 1625 
L 2419 1625 
L 2419 4116 
z
M 2253 4666 
L 3047 4666 
L 3047 1625 
L 3713 1625 
L 3713 1100 
L 3047 1100 
L 3047 0 
L 2419 0 
L 2419 1100 
L 313 1100 
L 313 1709 
L 2253 4666 
z
" id="DejaVuSans-34" transform="scale(0.015625)"/>
       </defs>
       <use xlink:href="#DejaVuSans-34"/>
       <use x="63.623047" xlink:href="#DejaVuSans-30"/>
       <use x="127.246094" xlink:href="#DejaVuSans-30"/>
       <use x="190.869141" xlink:href="#DejaVuSans-30"/>
       <use x="254.492188" xlink:href="#DejaVuSans-30"/>
      </g>
     </g>
    </g>
    <g id="xtick_4">
     <g id="text_4">
      <!-- 60000 -->
      <g style="fill:#262626;" transform="translate(349.106693 636.076563)scale(0.22 -0.22)">
       <defs>
        <path d="M 2113 2584 
Q 1688 2584 1439 2293 
Q 1191 2003 1191 1497 
Q 1191 994 1439 701 
Q 1688 409 2113 409 
Q 2538 409 2786 701 
Q 3034 994 3034 1497 
Q 3034 2003 2786 2293 
Q 2538 2584 2113 2584 
z
M 3366 4563 
L 3366 3988 
Q 3128 4100 2886 4159 
Q 2644 4219 2406 4219 
Q 1781 4219 1451 3797 
Q 1122 3375 1075 2522 
Q 1259 2794 1537 2939 
Q 1816 3084 2150 3084 
Q 2853 3084 3261 2657 
Q 3669 2231 3669 1497 
Q 3669 778 3244 343 
Q 2819 -91 2113 -91 
Q 1303 -91 875 529 
Q 447 1150 447 2328 
Q 447 3434 972 4092 
Q 1497 4750 2381 4750 
Q 2619 4750 2861 4703 
Q 3103 4656 3366 4563 
z
" id="DejaVuSans-36" transform="scale(0.015625)"/>
       </defs>
       <use xlink:href="#DejaVuSans-36"/>
       <use x="63.623047" xlink:href="#DejaVuSans-30"/>
       <use x="127.246094" xlink:href="#DejaVuSans-30"/>
       <use x="190.869141" xlink:href="#DejaVuSans-30"/>
       <use x="254.492188" xlink:href="#DejaVuSans-30"/>
      </g>
     </g>
    </g>
    <g id="xtick_5">
     <g id="text_5">
      <!-- 80000 -->
      <g style="fill:#262626;" transform="translate(436.927955 636.076563)scale(0.22 -0.22)">
       <defs>
        <path d="M 2034 2216 
Q 1584 2216 1326 1975 
Q 1069 1734 1069 1313 
Q 1069 891 1326 650 
Q 1584 409 2034 409 
Q 2484 409 2743 651 
Q 3003 894 3003 1313 
Q 3003 1734 2745 1975 
Q 2488 2216 2034 2216 
z
M 1403 2484 
Q 997 2584 770 2862 
Q 544 3141 544 3541 
Q 544 4100 942 4425 
Q 1341 4750 2034 4750 
Q 2731 4750 3128 4425 
Q 3525 4100 3525 3541 
Q 3525 3141 3298 2862 
Q 3072 2584 2669 2484 
Q 3125 2378 3379 2068 
Q 3634 1759 3634 1313 
Q 3634 634 3220 271 
Q 2806 -91 2034 -91 
Q 1263 -91 848 271 
Q 434 634 434 1313 
Q 434 1759 690 2068 
Q 947 2378 1403 2484 
z
M 1172 3481 
Q 1172 3119 1398 2916 
Q 1625 2713 2034 2713 
Q 2441 2713 2670 2916 
Q 2900 3119 2900 3481 
Q 2900 3844 2670 4047 
Q 2441 4250 2034 4250 
Q 1625 4250 1398 4047 
Q 1172 3844 1172 3481 
z
" id="DejaVuSans-38" transform="scale(0.015625)"/>
       </defs>
       <use xlink:href="#DejaVuSans-38"/>
       <use x="63.623047" xlink:href="#DejaVuSans-30"/>
       <use x="127.246094" xlink:href="#DejaVuSans-30"/>
       <use x="190.869141" xlink:href="#DejaVuSans-30"/>
       <use x="254.492188" xlink:href="#DejaVuSans-30"/>
      </g>
     </g>
    </g>
    <g id="xtick_6">
     <g id="text_6">
      <!-- 100000 -->
      <g style="fill:#262626;" transform="translate(517.750466 636.076563)scale(0.22 -0.22)">
       <defs>
        <path d="M 794 531 
L 1825 531 
L 1825 4091 
L 703 3866 
L 703 4441 
L 1819 4666 
L 2450 4666 
L 2450 531 
L 3481 531 
L 3481 0 
L 794 0 
L 794 531 
z
" id="DejaVuSans-31" transform="scale(0.015625)"/>
       </defs>
       <use xlink:href="#DejaVuSans-31"/>
       <use x="63.623047" xlink:href="#DejaVuSans-30"/>
       <use x="127.246094" xlink:href="#DejaVuSans-30"/>
       <use x="190.869141" xlink:href="#DejaVuSans-30"/>
       <use x="254.492188" xlink:href="#DejaVuSans-30"/>
       <use x="318.115234" xlink:href="#DejaVuSans-30"/>
      </g>
     </g>
    </g>
    <g id="text_7">
     <!-- MDTU -->
     <g style="fill:#262626;" transform="translate(304.593964 662.888125)scale(0.24 -0.24)">
      <defs>
       <path d="M 628 4666 
L 1569 4666 
L 2759 1491 
L 3956 4666 
L 4897 4666 
L 4897 0 
L 4281 0 
L 4281 4097 
L 3078 897 
L 2444 897 
L 1241 4097 
L 1241 0 
L 628 0 
L 628 4666 
z
" id="DejaVuSans-4d" transform="scale(0.015625)"/>
       <path d="M 1259 4147 
L 1259 519 
L 2022 519 
Q 2988 519 3436 956 
Q 3884 1394 3884 2338 
Q 3884 3275 3436 3711 
Q 2988 4147 2022 4147 
L 1259 4147 
z
M 628 4666 
L 1925 4666 
Q 3281 4666 3915 4102 
Q 4550 3538 4550 2338 
Q 4550 1131 3912 565 
Q 3275 0 1925 0 
L 628 0 
L 628 4666 
z
" id="DejaVuSans-44" transform="scale(0.015625)"/>
       <path d="M -19 4666 
L 3928 4666 
L 3928 4134 
L 2272 4134 
L 2272 0 
L 1638 0 
L 1638 4134 
L -19 4134 
L -19 4666 
z
" id="DejaVuSans-54" transform="scale(0.015625)"/>
       <path d="M 556 4666 
L 1191 4666 
L 1191 1831 
Q 1191 1081 1462 751 
Q 1734 422 2344 422 
Q 2950 422 3222 751 
Q 3494 1081 3494 1831 
L 3494 4666 
L 4128 4666 
L 4128 1753 
Q 4128 841 3676 375 
Q 3225 -91 2344 -91 
Q 1459 -91 1007 375 
Q 556 841 556 1753 
L 556 4666 
z
" id="DejaVuSans-55" transform="scale(0.015625)"/>
      </defs>
      <use xlink:href="#DejaVuSans-4d"/>
      <use x="86.279297" xlink:href="#DejaVuSans-44"/>
      <use x="163.28125" xlink:href="#DejaVuSans-54"/>
      <use x="224.365234" xlink:href="#DejaVuSans-55"/>
     </g>
    </g>
   </g>
   <g id="matplotlib.axis_2">
    <g id="ytick_1">
     <g id="text_8">
      <!-- 0.25 -->
      <g style="fill:#262626;" transform="translate(34.4275 608.822305)scale(0.22 -0.22)">
       <defs>
        <path d="M 684 794 
L 1344 794 
L 1344 0 
L 684 0 
L 684 794 
z
" id="DejaVuSans-2e" transform="scale(0.015625)"/>
        <path d="M 691 4666 
L 3169 4666 
L 3169 4134 
L 1269 4134 
L 1269 2991 
Q 1406 3038 1543 3061 
Q 1681 3084 1819 3084 
Q 2600 3084 3056 2656 
Q 3513 2228 3513 1497 
Q 3513 744 3044 326 
Q 2575 -91 1722 -91 
Q 1428 -91 1123 -41 
Q 819 9 494 109 
L 494 744 
Q 775 591 1075 516 
Q 1375 441 1709 441 
Q 2250 441 2565 725 
Q 2881 1009 2881 1497 
Q 2881 1984 2565 2268 
Q 2250 2553 1709 2553 
Q 1456 2553 1204 2497 
Q 953 2441 691 2322 
L 691 4666 
z
" id="DejaVuSans-35" transform="scale(0.015625)"/>
       </defs>
       <use xlink:href="#DejaVuSans-30"/>
       <use x="63.623047" xlink:href="#DejaVuSans-2e"/>
       <use x="95.410156" xlink:href="#DejaVuSans-32"/>
       <use x="159.033203" xlink:href="#DejaVuSans-35"/>
      </g>
     </g>
    </g>
    <g id="ytick_2">
     <g id="text_9">
      <!-- 0.50 -->
      <g style="fill:#262626;" transform="translate(34.4275 540.582712)scale(0.22 -0.22)">
       <use xlink:href="#DejaVuSans-30"/>
       <use x="63.623047" xlink:href="#DejaVuSans-2e"/>
       <use x="95.410156" xlink:href="#DejaVuSans-35"/>
       <use x="159.033203" xlink:href="#DejaVuSans-30"/>
      </g>
     </g>
    </g>
    <g id="ytick_3">
     <g id="text_10">
      <!-- 0.75 -->
      <g style="fill:#262626;" transform="translate(34.4275 472.34312)scale(0.22 -0.22)">
       <defs>
        <path d="M 525 4666 
L 3525 4666 
L 3525 4397 
L 1831 0 
L 1172 0 
L 2766 4134 
L 525 4134 
L 525 4666 
z
" id="DejaVuSans-37" transform="scale(0.015625)"/>
       </defs>
       <use xlink:href="#DejaVuSans-30"/>
       <use x="63.623047" xlink:href="#DejaVuSans-2e"/>
       <use x="95.410156" xlink:href="#DejaVuSans-37"/>
       <use x="159.033203" xlink:href="#DejaVuSans-35"/>
      </g>
     </g>
    </g>
    <g id="ytick_4">
     <g id="text_11">
      <!-- 1.00 -->
      <g style="fill:#262626;" transform="translate(34.4275 404.103527)scale(0.22 -0.22)">
       <use xlink:href="#DejaVuSans-31"/>
       <use x="63.623047" xlink:href="#DejaVuSans-2e"/>
       <use x="95.410156" xlink:href="#DejaVuSans-30"/>
       <use x="159.033203" xlink:href="#DejaVuSans-30"/>
      </g>
     </g>
    </g>
    <g id="ytick_5">
     <g id="text_12">
      <!-- 1.25 -->
      <g style="fill:#262626;" transform="translate(34.4275 335.863935)scale(0.22 -0.22)">
       <use xlink:href="#DejaVuSans-31"/>
       <use x="63.623047" xlink:href="#DejaVuSans-2e"/>
       <use x="95.410156" xlink:href="#DejaVuSans-32"/>
       <use x="159.033203" xlink:href="#DejaVuSans-35"/>
      </g>
     </g>
    </g>
    <g id="ytick_6">
     <g id="text_13">
      <!-- 1.50 -->
      <g style="fill:#262626;" transform="translate(34.4275 267.624343)scale(0.22 -0.22)">
       <use xlink:href="#DejaVuSans-31"/>
       <use x="63.623047" xlink:href="#DejaVuSans-2e"/>
       <use x="95.410156" xlink:href="#DejaVuSans-35"/>
       <use x="159.033203" xlink:href="#DejaVuSans-30"/>
      </g>
     </g>
    </g>
    <g id="ytick_7">
     <g id="text_14">
      <!-- 1.75 -->
      <g style="fill:#262626;" transform="translate(34.4275 199.38475)scale(0.22 -0.22)">
       <use xlink:href="#DejaVuSans-31"/>
       <use x="63.623047" xlink:href="#DejaVuSans-2e"/>
       <use x="95.410156" xlink:href="#DejaVuSans-37"/>
       <use x="159.033203" xlink:href="#DejaVuSans-35"/>
      </g>
     </g>
    </g>
    <g id="ytick_8">
     <g id="text_15">
      <!-- 2.00 -->
      <g style="fill:#262626;" transform="translate(34.4275 131.145158)scale(0.22 -0.22)">
       <use xlink:href="#DejaVuSans-32"/>
       <use x="63.623047" xlink:href="#DejaVuSans-2e"/>
       <use x="95.410156" xlink:href="#DejaVuSans-30"/>
       <use x="159.033203" xlink:href="#DejaVuSans-30"/>
      </g>
     </g>
    </g>
    <g id="text_16">
     <!-- $E$ -->
     <g style="fill:#262626;" transform="translate(25.43625 364.352286)rotate(-90)scale(0.24 -0.24)">
      <defs>
       <path d="M 1081 4666 
L 4031 4666 
L 3928 4134 
L 1606 4134 
L 1338 2753 
L 3566 2753 
L 3463 2222 
L 1234 2222 
L 909 531 
L 3284 531 
L 3181 0 
L 172 0 
L 1081 4666 
z
" id="DejaVuSans-Oblique-45" transform="scale(0.015625)"/>
      </defs>
      <use transform="translate(0 0.09375)" xlink:href="#DejaVuSans-Oblique-45"/>
     </g>
    </g>
   </g>
   <g id="line2d_1">
    <path clip-path="url(#pc7108942a4)" d="M 120.856213 424.314635 
L 121.295319 472.213843 
L 121.514872 466.276672 
L 121.734425 509.52408 
L 121.953978 504.688404 
L 122.173532 571.891396 
L 122.393085 431.78447 
L 122.612638 430.735141 
L 122.832191 362.350516 
L 123.051744 507.847621 
L 123.271297 423.37725 
L 123.490851 446.803983 
L 123.710404 386.497384 
L 123.929957 390.173523 
L 124.14951 570.663132 
L 124.369063 495.867688 
L 124.588616 510.480665 
L 124.808169 400.443222 
L 125.247276 493.654729 
L 125.466829 459.126602 
L 125.686382 513.026587 
L 125.905935 527.307843 
L 126.125488 403.387513 
L 126.345041 507.052568 
L 126.564595 440.666526 
L 126.784148 472.277702 
L 127.003701 423.63456 
L 127.223254 486.310136 
L 127.442807 484.901707 
L 127.66236 419.069506 
L 127.881914 476.213642 
L 128.101467 433.37664 
L 128.540573 490.35765 
L 128.760126 408.924416 
L 128.979679 538.328332 
L 129.199232 287.422697 
L 129.418786 442.940413 
L 129.638339 472.338389 
L 129.857892 421.514885 
L 130.077445 538.876106 
L 130.296998 513.277633 
L 130.736105 443.811548 
L 130.955658 474.152306 
L 131.175211 452.883611 
L 131.394764 394.283099 
L 131.614317 495.204855 
L 131.83387 430.861381 
L 132.053423 413.612905 
L 132.272977 290.997497 
L 132.49253 481.495232 
L 132.712083 481.421266 
L 132.931636 402.831139 
L 133.151189 481.63184 
L 133.370742 494.244818 
L 133.590296 457.201913 
L 133.809849 472.697041 
L 134.029402 470.665092 
L 134.248955 424.023374 
L 134.468508 471.387497 
L 134.688061 454.471603 
L 134.907614 453.529145 
L 135.127168 448.669185 
L 135.346721 513.921082 
L 135.566274 483.14566 
L 135.785827 542.087473 
L 136.00538 429.911294 
L 136.224933 530.793431 
L 136.444487 451.980306 
L 136.66404 507.516263 
L 136.883593 465.172954 
L 137.103146 508.619195 
L 137.322699 461.513604 
L 137.542252 478.129142 
L 137.981359 370.166691 
L 138.200912 491.91914 
L 138.420465 527.205186 
L 138.640018 426.927906 
L 138.859571 465.441148 
L 139.079124 473.498037 
L 139.298678 445.531265 
L 139.518231 543.413062 
L 139.737784 521.965401 
L 139.957337 468.519687 
L 140.17689 533.344113 
L 140.396443 455.762086 
L 140.615996 478.122844 
L 140.83555 522.405069 
L 141.055103 394.503791 
L 141.274656 491.811474 
L 141.494209 507.284169 
L 141.713762 501.084627 
L 141.933315 536.462499 
L 142.372422 484.747354 
L 142.591975 486.662537 
L 142.811528 493.345644 
L 143.031081 428.499046 
L 143.250634 471.582789 
L 143.470187 386.421445 
L 143.689741 395.855899 
L 143.909294 313.362596 
L 144.567953 524.470981 
L 144.787506 525.941673 
L 145.00706 432.359764 
L 145.226613 407.945391 
L 145.446166 398.371773 
L 145.665719 413.067458 
L 145.885272 514.442469 
L 146.104825 497.666694 
L 146.324378 494.390529 
L 146.543932 473.190493 
L 146.763485 523.821978 
L 146.983038 475.588332 
L 147.202591 524.268946 
L 147.422144 425.101699 
L 147.641697 260.210826 
L 147.861251 520.128835 
L 148.080804 382.682784 
L 148.300357 504.105682 
L 148.51991 498.909307 
L 148.739463 538.130014 
L 148.959016 436.58936 
L 149.178569 426.832844 
L 149.398123 480.713094 
L 149.617676 430.662643 
L 149.837229 500.567173 
L 150.056782 473.980774 
L 150.276335 420.920218 
L 150.495888 425.295656 
L 150.715441 368.341383 
L 150.934995 393.426197 
L 151.154548 527.417566 
L 151.374101 511.117411 
L 151.593654 455.880332 
L 151.813207 511.084611 
L 152.03276 465.395215 
L 152.471867 502.200586 
L 152.69142 500.443067 
L 152.910973 404.160466 
L 153.130526 436.686988 
L 153.350079 496.314842 
L 153.569632 510.113047 
L 153.789186 428.259001 
L 154.008739 540.402959 
L 154.228292 502.802153 
L 154.447845 372.496302 
L 154.667398 523.573518 
L 154.886951 367.675439 
L 155.106505 515.410224 
L 155.326058 518.0631 
L 155.545611 526.397435 
L 155.765164 543.408646 
L 155.984717 441.685441 
L 156.20427 407.538056 
L 156.423823 482.578487 
L 156.643377 423.354408 
L 156.86293 530.903725 
L 157.082483 480.492613 
L 157.302036 505.389251 
L 157.521589 496.943495 
L 157.741142 480.20136 
L 157.960696 505.852579 
L 158.180249 511.680226 
L 158.399802 481.795712 
L 158.619355 566.394292 
L 158.838908 405.146788 
L 159.058461 408.705776 
L 159.278014 335.87944 
L 159.497568 505.734805 
L 159.717121 508.008022 
L 159.936674 474.290339 
L 160.156227 489.361929 
L 160.37578 449.562762 
L 160.595333 525.40985 
L 160.814887 519.836572 
L 161.03444 369.466515 
L 161.473546 524.907665 
L 161.693099 448.291907 
L 161.912652 421.916761 
L 162.132205 477.3898 
L 162.351759 431.631416 
L 162.571312 549.884168 
L 163.010418 441.021111 
L 163.229971 405.544823 
L 163.669078 567.32457 
L 163.888631 550.557013 
L 164.108184 446.028764 
L 164.327737 545.692894 
L 164.54729 472.469504 
L 164.766843 488.524372 
L 164.986396 470.704738 
L 165.20595 417.498844 
L 165.425503 457.170986 
L 165.645056 530.214685 
L 165.864609 457.773686 
L 166.084162 481.289898 
L 166.303715 401.185934 
L 166.523269 472.035801 
L 166.742822 469.7004 
L 166.962375 526.978597 
L 167.181928 478.42691 
L 167.401481 526.119844 
L 167.621034 444.7278 
L 167.840587 499.423889 
L 168.060141 412.522951 
L 168.279694 506.142777 
L 168.499247 514.512461 
L 168.7188 481.875532 
L 168.938353 559.668244 
L 169.37746 403.830083 
L 169.816566 359.463837 
L 170.036119 519.679161 
L 170.475225 410.274865 
L 170.694778 326.278515 
L 170.914332 425.556779 
L 171.133885 457.258246 
L 171.353438 505.913237 
L 171.572991 386.170672 
L 172.012097 504.409635 
L 172.231651 414.537079 
L 172.451204 556.254825 
L 172.89031 485.653163 
L 173.109863 495.879362 
L 173.329416 454.483191 
L 173.548969 545.033071 
L 173.768523 565.78524 
L 174.207629 382.318027 
L 174.427182 506.517034 
L 174.646735 459.03603 
L 174.866288 437.364094 
L 175.305395 512.171409 
L 175.524948 405.009261 
L 175.744501 423.40304 
L 175.964054 515.265081 
L 176.183607 537.582356 
L 176.40316 459.593962 
L 176.622714 520.561702 
L 176.842267 453.724733 
L 177.06182 513.317515 
L 177.281373 499.241959 
L 177.500926 436.1622 
L 177.720479 484.075044 
L 177.940032 467.195733 
L 178.159586 536.768133 
L 178.379139 484.993372 
L 178.598692 574.788121 
L 179.037798 440.758761 
L 179.257351 525.787225 
L 179.476905 513.639803 
L 179.696458 426.570823 
L 179.916011 485.912868 
L 180.135564 400.293745 
L 180.355117 432.367758 
L 180.57467 439.303727 
L 180.794223 530.105798 
L 181.013777 535.048258 
L 181.452883 424.974663 
L 181.672436 464.40164 
L 181.891989 394.388311 
L 182.111542 518.196305 
L 182.331096 388.853015 
L 182.550649 442.095075 
L 182.770202 462.070617 
L 182.989755 396.784838 
L 183.209308 451.94852 
L 183.428861 464.621516 
L 183.648414 447.876 
L 183.867968 482.960167 
L 184.087521 462.387801 
L 184.307074 456.078962 
L 184.526627 407.989099 
L 184.74618 437.957877 
L 184.965733 514.299907 
L 185.40484 485.388808 
L 185.624393 478.439549 
L 185.843946 447.691953 
L 186.063499 525.415846 
L 186.283052 526.049685 
L 186.502605 503.897175 
L 186.722159 532.961981 
L 186.941712 373.668522 
L 187.161265 472.35865 
L 187.380818 416.957098 
L 187.600371 496.396769 
L 187.819924 460.872835 
L 188.039478 485.511838 
L 188.259031 415.509794 
L 188.478584 488.430005 
L 188.91769 531.416231 
L 189.137243 447.989478 
L 189.356796 510.79464 
L 189.57635 493.755445 
L 189.795903 333.977323 
L 190.015456 519.001567 
L 190.235009 410.116205 
L 190.454562 498.824045 
L 190.674115 501.273639 
L 190.893669 479.932599 
L 191.113222 498.450862 
L 191.332775 549.258484 
L 191.771881 475.000848 
L 191.991434 475.405568 
L 192.210987 423.077745 
L 192.430541 574.495501 
L 192.650094 467.860512 
L 192.869647 532.487463 
L 193.0892 450.032948 
L 193.308753 445.644862 
L 193.528306 515.254444 
L 193.74786 448.340258 
L 193.967413 520.589308 
L 194.186966 417.024188 
L 194.406519 516.854067 
L 194.626072 459.189771 
L 194.845625 519.656256 
L 195.065178 442.546529 
L 195.284732 515.504558 
L 195.504285 434.547459 
L 195.723838 467.093378 
L 195.943391 455.228703 
L 196.162944 549.225132 
L 196.382497 427.662615 
L 196.602051 482.365586 
L 196.821604 453.196603 
L 197.041157 531.163681 
L 197.26071 421.456634 
L 197.480263 518.596603 
L 197.699816 383.755206 
L 197.919369 484.807203 
L 198.138923 433.95604 
L 198.358476 463.531493 
L 198.578029 427.936277 
L 198.797582 475.398442 
L 199.017135 427.026887 
L 199.236688 488.354461 
L 199.456242 456.78319 
L 199.675795 486.814333 
L 199.895348 396.99543 
L 200.114901 494.121198 
L 200.334454 468.663928 
L 200.554007 530.250693 
L 200.77356 473.628793 
L 200.993114 487.240586 
L 201.212667 470.81159 
L 201.651773 511.148936 
L 201.871326 491.58934 
L 202.310432 414.470385 
L 202.529986 471.612936 
L 202.749539 428.252966 
L 203.188645 535.865291 
L 203.408198 511.689311 
L 203.627751 447.319446 
L 203.847305 467.357831 
L 204.066858 455.738038 
L 204.286411 535.546997 
L 204.505964 458.67806 
L 204.725517 500.552359 
L 204.94507 511.81993 
L 205.164623 544.930748 
L 205.384177 473.714461 
L 205.60373 456.426351 
L 205.823283 461.502987 
L 206.042836 450.524103 
L 206.262389 515.93058 
L 206.481942 511.021496 
L 206.701496 452.981702 
L 207.140602 520.345602 
L 207.360155 521.506476 
L 207.579708 481.972308 
L 207.799261 402.821794 
L 208.238368 503.798267 
L 208.677474 467.459463 
L 208.897027 401.016804 
L 209.11658 476.946087 
L 209.336133 401.10858 
L 209.77524 442.475939 
L 209.994793 486.366376 
L 210.433899 513.478708 
L 210.653452 480.821328 
L 210.873005 564.750659 
L 211.092559 493.411597 
L 211.312112 558.476983 
L 211.531665 568.641527 
L 211.751218 531.235948 
L 211.970771 539.087321 
L 212.190324 484.302804 
L 212.409878 370.87315 
L 212.848984 551.606493 
L 213.068537 419.656969 
L 213.28809 451.761816 
L 213.507643 503.989328 
L 213.727196 379.751016 
L 213.94675 527.917563 
L 214.166303 496.79149 
L 214.385856 446.800593 
L 214.605409 492.952504 
L 214.824962 479.963386 
L 215.044515 439.700018 
L 215.264069 459.329206 
L 215.483622 511.015313 
L 215.703175 529.449354 
L 216.142281 440.957817 
L 216.361834 535.683568 
L 216.800941 423.9875 
L 217.020494 449.706787 
L 217.240047 459.071974 
L 217.4596 539.147256 
L 217.679153 419.569858 
L 217.898706 454.556921 
L 218.11826 422.301827 
L 218.337813 533.266975 
L 218.557366 428.968627 
L 218.776919 390.880095 
L 218.996472 524.088114 
L 219.216025 519.069442 
L 219.435578 487.24823 
L 219.655132 509.514308 
L 219.874685 511.093879 
L 220.094238 525.015787 
L 220.313791 518.490787 
L 220.752897 396.530721 
L 220.972451 517.592282 
L 221.192004 489.290049 
L 221.63111 550.505958 
L 221.850663 505.894735 
L 222.070216 312.040664 
L 222.289769 414.069122 
L 222.509323 343.805679 
L 222.728876 491.012099 
L 222.948429 538.506502 
L 223.167982 488.373759 
L 223.387535 525.48036 
L 223.607088 490.696668 
L 223.826642 477.158927 
L 224.046195 491.385169 
L 224.485301 542.794938 
L 224.704854 546.973481 
L 224.924407 459.575079 
L 225.363514 481.648194 
L 225.583067 443.925923 
L 225.80262 376.61561 
L 226.022173 505.333942 
L 226.241726 516.081539 
L 226.680833 383.212984 
L 226.900386 475.228036 
L 227.119939 367.918371 
L 227.339492 550.789968 
L 227.559045 440.477276 
L 227.778598 487.445638 
L 227.998151 502.54041 
L 228.217705 495.892187 
L 228.437258 496.724392 
L 228.656811 480.32813 
L 228.876364 523.445972 
L 229.095917 484.80922 
L 229.31547 475.920799 
L 229.535023 366.501906 
L 229.754577 502.839989 
L 229.97413 485.659549 
L 230.193683 416.339677 
L 230.632789 505.494186 
L 231.071896 438.008352 
L 231.730555 527.371097 
L 231.950108 448.530714 
L 232.169661 464.335293 
L 232.389214 366.048322 
L 232.608768 514.698219 
L 233.047874 417.281939 
L 233.267427 476.302094 
L 233.48698 488.733227 
L 233.706533 456.715649 
L 233.926087 473.43389 
L 234.14564 454.331282 
L 234.365193 495.960725 
L 234.584746 503.583009 
L 234.804299 474.817725 
L 235.023852 472.579731 
L 235.243405 486.949744 
L 235.462959 477.112873 
L 235.682512 510.199661 
L 235.902065 521.932851 
L 236.121618 469.252909 
L 236.341171 454.153429 
L 236.560724 457.422293 
L 236.780278 496.346519 
L 236.999831 439.535391 
L 237.219384 448.527617 
L 237.438937 536.920867 
L 237.65849 439.531857 
L 237.878043 442.294982 
L 238.097596 486.633883 
L 238.31715 494.79863 
L 238.536703 493.277692 
L 239.195362 406.399244 
L 239.414915 479.255451 
L 239.634469 351.363009 
L 239.854022 513.882737 
L 240.073575 521.81338 
L 240.293128 384.878674 
L 240.732234 532.861451 
L 240.951787 460.756939 
L 241.171341 494.822006 
L 241.390894 394.305136 
L 241.610447 546.303348 
L 241.83 426.962259 
L 242.049553 459.316691 
L 242.269106 457.097672 
L 242.48866 445.03166 
L 242.927766 521.769295 
L 243.147319 414.694267 
L 243.366872 489.910951 
L 243.586425 457.387843 
L 243.805978 446.311035 
L 244.025532 387.789091 
L 244.245085 397.371841 
L 244.464638 529.570147 
L 244.684191 367.258926 
L 244.903744 557.123925 
L 245.342851 475.831968 
L 245.562404 478.159566 
L 245.781957 374.23856 
L 246.00151 483.005342 
L 246.221063 505.914188 
L 246.440616 484.096905 
L 246.660169 401.854224 
L 246.879723 438.379703 
L 247.099276 267.632678 
L 247.318829 528.821522 
L 247.538382 494.105439 
L 247.757935 495.682953 
L 247.977488 523.348658 
L 248.197042 511.897325 
L 248.416595 514.745298 
L 248.636148 422.017235 
L 248.855701 487.182516 
L 249.075254 453.363074 
L 249.294807 477.837176 
L 249.51436 516.335516 
L 249.733914 388.591513 
L 249.953467 447.033858 
L 250.17302 445.458608 
L 250.392573 519.324211 
L 250.612126 473.300284 
L 250.831679 469.285509 
L 251.051233 477.541885 
L 251.270786 450.839655 
L 251.709892 509.608324 
L 251.929445 486.374043 
L 252.148998 420.607761 
L 252.368551 536.464057 
L 252.588105 405.895591 
L 252.807658 490.18333 
L 253.027211 485.493645 
L 253.246764 466.757218 
L 253.466317 379.233925 
L 253.68587 449.722275 
L 253.905424 390.369922 
L 254.34453 527.909945 
L 254.564083 539.890003 
L 255.222742 514.568381 
L 255.442296 488.528629 
L 255.881402 498.382199 
L 256.100955 486.078813 
L 256.320508 481.00385 
L 256.540061 407.477481 
L 256.759614 491.323829 
L 256.979168 405.898994 
L 257.198721 411.504111 
L 257.418274 446.748799 
L 257.637827 442.635323 
L 257.85738 431.113218 
L 258.076933 429.793782 
L 258.296487 479.352928 
L 258.51604 496.878918 
L 258.735593 531.517794 
L 259.174699 450.739088 
L 259.613805 486.954258 
L 259.833359 415.850566 
L 260.052912 453.952079 
L 260.272465 443.034133 
L 260.492018 419.126339 
L 260.711571 531.485353 
L 260.931124 510.483769 
L 261.150678 437.507502 
L 261.370231 539.765249 
L 261.809337 428.990706 
L 262.02889 446.815814 
L 262.248443 499.323708 
L 262.467996 498.452087 
L 262.907103 476.101349 
L 263.126656 430.552644 
L 263.346209 476.947556 
L 263.565762 406.765651 
L 263.785315 526.559396 
L 264.224422 445.080263 
L 264.443975 451.951781 
L 264.663528 373.149165 
L 264.883081 342.900899 
L 265.102634 504.049714 
L 265.322187 454.223436 
L 265.541741 512.499026 
L 265.761294 466.485624 
L 265.980847 455.341073 
L 266.2004 502.317514 
L 266.419953 461.484944 
L 266.639506 456.461559 
L 266.85906 467.282535 
L 267.078613 502.970164 
L 267.298166 390.258644 
L 267.517719 499.516535 
L 267.737272 460.233788 
L 267.956825 395.485295 
L 268.176378 444.671596 
L 268.395932 441.190236 
L 268.615485 306.810721 
L 268.835038 503.207075 
L 269.054591 502.67178 
L 269.274144 405.892286 
L 269.713251 462.57166 
L 269.932804 417.079438 
L 270.152357 429.452718 
L 270.37191 517.279967 
L 270.591463 382.503138 
L 270.811016 397.102438 
L 271.030569 423.503501 
L 271.250123 470.721314 
L 271.469676 489.074076 
L 271.689229 461.827321 
L 271.908782 552.543438 
L 272.128335 464.879443 
L 272.347888 539.49291 
L 272.567442 534.124576 
L 272.786995 443.150596 
L 273.006548 506.194524 
L 273.445654 545.180692 
L 273.665207 502.825604 
L 273.88476 426.665054 
L 274.104314 463.230863 
L 274.323867 441.845232 
L 274.54342 451.319974 
L 274.762973 531.759065 
L 274.982526 436.322023 
L 275.202079 483.239365 
L 275.421633 488.775465 
L 275.641186 508.143768 
L 275.860739 470.740204 
L 276.080292 403.965928 
L 276.299845 512.667542 
L 276.519398 494.387831 
L 276.738951 523.373494 
L 276.958505 492.159229 
L 277.178058 530.625736 
L 277.397611 492.300985 
L 277.617164 530.106225 
L 277.836717 519.28992 
L 278.05627 439.599716 
L 278.275824 482.671914 
L 278.495377 478.225823 
L 278.71493 415.200366 
L 278.934483 437.361662 
L 279.154036 528.999871 
L 279.373589 428.734983 
L 279.593142 455.165572 
L 279.812696 395.822669 
L 280.032249 513.943651 
L 280.251802 374.750943 
L 280.471355 426.050283 
L 280.690908 527.064865 
L 281.130014 386.203409 
L 281.349568 504.86573 
L 281.569121 521.693373 
L 281.788674 413.404708 
L 282.008227 519.039248 
L 282.447333 492.145514 
L 282.666887 475.771701 
L 282.88644 488.80685 
L 283.325546 449.399346 
L 283.545099 450.405117 
L 283.764652 446.568495 
L 283.984205 549.875331 
L 284.203759 488.585762 
L 284.423312 372.794084 
L 284.642865 472.724932 
L 284.862418 518.902924 
L 285.301524 390.703737 
L 285.521078 525.777744 
L 285.740631 448.088451 
L 285.960184 515.101981 
L 286.179737 534.106657 
L 286.39929 458.522313 
L 286.618843 530.29714 
L 286.838396 433.341938 
L 287.05795 475.513004 
L 287.277503 425.092495 
L 287.497056 551.805541 
L 287.716609 388.50986 
L 287.936162 394.044863 
L 288.155715 478.451577 
L 288.375269 499.301843 
L 288.814375 438.573452 
L 289.033928 320.768312 
L 289.253481 474.587061 
L 289.473034 466.192128 
L 289.692587 440.842697 
L 289.912141 494.890994 
L 290.131694 447.195934 
L 290.351247 500.467188 
L 290.790353 422.975071 
L 291.009906 519.276259 
L 291.22946 526.403226 
L 291.449013 467.866836 
L 291.668566 496.261078 
L 291.888119 465.321058 
L 292.107672 512.115535 
L 292.327225 475.823416 
L 292.546778 541.627938 
L 292.766332 530.498335 
L 292.985885 556.748254 
L 293.424991 415.334784 
L 293.644544 475.767137 
L 294.083651 401.762612 
L 294.303204 433.942892 
L 294.522757 411.134918 
L 294.74231 529.817128 
L 294.961863 468.406138 
L 295.181416 543.667259 
L 295.400969 478.359353 
L 295.620523 562.009294 
L 295.840076 531.152765 
L 296.059629 480.047646 
L 296.279182 531.131092 
L 296.498735 324.538357 
L 296.718288 322.890173 
L 296.937842 487.052478 
L 297.157395 430.195783 
L 297.376948 441.312929 
L 297.596501 510.452489 
L 297.816054 491.983997 
L 298.035607 557.788831 
L 298.25516 421.07712 
L 298.474714 448.03843 
L 298.694267 448.583846 
L 298.91382 476.339351 
L 299.133373 368.060083 
L 299.572479 554.664426 
L 299.792033 458.173027 
L 300.011586 436.498762 
L 300.231139 478.954458 
L 300.450692 473.025736 
L 300.670245 389.639879 
L 300.889798 405.834189 
L 301.109351 504.878226 
L 301.328905 463.79471 
L 301.548458 508.664103 
L 301.768011 449.648048 
L 301.987564 423.893373 
L 302.207117 444.306226 
L 302.42667 451.261269 
L 302.646224 523.727106 
L 302.865777 442.128321 
L 303.08533 419.146684 
L 303.304883 508.11093 
L 303.524436 390.325925 
L 303.743989 516.008493 
L 303.963542 514.630578 
L 304.183096 417.955825 
L 304.622202 535.611485 
L 304.841755 415.554758 
L 305.061308 400.707233 
L 305.280861 317.998959 
L 305.500415 486.446549 
L 305.719968 488.958135 
L 305.939521 555.338787 
L 306.159074 491.725997 
L 306.378627 542.294086 
L 306.59818 508.590698 
L 306.817733 494.607257 
L 307.037287 426.326368 
L 307.25684 441.35944 
L 307.476393 550.33888 
L 307.915499 499.326612 
L 308.135052 503.935477 
L 308.574159 398.394215 
L 308.793712 506.509754 
L 309.013265 451.742199 
L 309.232818 467.027147 
L 309.452371 571.625041 
L 309.671924 464.044473 
L 309.891478 538.799041 
L 310.111031 443.641063 
L 310.330584 507.613406 
L 310.550137 488.383984 
L 310.76969 449.232301 
L 310.989243 430.975445 
L 311.208796 424.675143 
L 311.42835 482.539062 
L 311.647903 507.21811 
L 311.867456 450.687552 
L 312.087009 478.940656 
L 312.306562 389.131762 
L 312.526115 460.995953 
L 312.745669 334.693845 
L 312.965222 510.381549 
L 313.184775 510.40647 
L 313.404328 507.437117 
L 313.623881 530.351192 
L 313.843434 501.853227 
L 314.062987 431.449956 
L 314.282541 531.49935 
L 314.502094 407.62435 
L 314.721647 467.008566 
L 314.9412 472.859008 
L 315.160753 467.646319 
L 315.380306 497.469738 
L 315.59986 486.912869 
L 316.038966 426.326049 
L 316.258519 439.065659 
L 316.478072 537.842359 
L 316.697625 545.94392 
L 316.917178 496.312831 
L 317.136732 514.193655 
L 317.356285 494.969949 
L 317.575838 534.540117 
L 317.795391 498.969592 
L 318.014944 393.781201 
L 318.454051 487.015432 
L 318.673604 498.622334 
L 318.893157 463.854875 
L 319.11271 450.007096 
L 319.551816 511.186968 
L 319.771369 428.773527 
L 319.990923 450.892101 
L 320.210476 532.825723 
L 320.430029 503.530788 
L 320.649582 527.070963 
L 320.869135 456.541879 
L 321.088688 482.320753 
L 321.308242 439.164942 
L 321.527795 461.100585 
L 321.747348 360.298778 
L 322.186454 556.333337 
L 322.845114 443.013004 
L 323.064667 460.733654 
L 323.28422 449.617071 
L 323.503773 448.043476 
L 323.723326 508.761338 
L 323.942879 476.341321 
L 324.162433 509.350167 
L 324.381986 131.956182 
L 324.601539 494.503137 
L 324.821092 499.899491 
L 325.040645 529.342047 
L 325.260198 499.689795 
L 325.479751 398.105822 
L 325.699305 478.06592 
L 325.918858 517.065359 
L 326.138411 450.41429 
L 326.357964 499.065511 
L 326.577517 467.890753 
L 326.79707 498.231741 
L 327.016624 448.070174 
L 327.45573 546.848145 
L 327.675283 483.66188 
L 327.894836 453.687708 
L 328.114389 499.20929 
L 328.333942 492.807125 
L 328.553496 469.611532 
L 328.773049 565.30827 
L 328.992602 442.725001 
L 329.212155 534.2175 
L 329.431708 567.399324 
L 329.651261 452.048309 
L 329.870815 503.88589 
L 330.090368 370.295046 
L 330.309921 315.576208 
L 330.529474 519.296946 
L 330.749027 506.620579 
L 330.96858 501.451876 
L 331.188133 415.888566 
L 331.407687 436.804314 
L 331.846793 556.159993 
L 332.066346 415.841753 
L 332.505452 551.705767 
L 332.725006 452.702666 
L 332.944559 511.110021 
L 333.383665 400.353299 
L 333.822771 543.614681 
L 334.042324 534.17123 
L 334.261878 452.782006 
L 334.481431 526.412672 
L 334.700984 558.016459 
L 334.920537 484.263365 
L 335.14009 449.66696 
L 335.359643 473.964604 
L 335.579196 370.163198 
L 335.79875 480.67296 
L 336.018303 461.231312 
L 336.237856 468.862968 
L 336.457409 523.405805 
L 336.676962 457.347669 
L 336.896515 511.606635 
L 337.116069 458.843683 
L 337.335622 468.270377 
L 337.555175 370.175569 
L 337.774728 497.434219 
L 337.994281 409.694623 
L 338.213834 509.607496 
L 338.433387 470.943178 
L 338.652941 483.322261 
L 338.872494 401.882583 
L 339.092047 528.064926 
L 339.531153 467.28071 
L 339.750706 440.604362 
L 339.97026 545.152363 
L 340.189813 379.357241 
L 340.628919 502.201633 
L 340.848472 499.685347 
L 341.068025 406.412203 
L 341.287578 405.92645 
L 341.507132 463.842328 
L 341.726685 471.510984 
L 341.946238 414.99855 
L 342.165791 509.131493 
L 342.385344 432.038515 
L 342.824451 492.103525 
L 343.044004 377.654413 
L 343.263557 494.847198 
L 343.702663 451.751598 
L 343.922216 486.764613 
L 344.361323 398.603595 
L 344.580876 469.150867 
L 345.019982 418.820829 
L 345.239535 487.95216 
L 345.459088 380.689935 
L 345.678642 497.648838 
L 345.898195 455.257579 
L 346.117748 345.014589 
L 346.337301 525.671054 
L 346.776407 458.331281 
L 346.99596 421.381368 
L 347.215514 484.091947 
L 347.435067 461.797399 
L 347.65462 516.983377 
L 347.874173 462.513537 
L 348.093726 436.382624 
L 348.532833 520.743523 
L 348.752386 510.172003 
L 348.971939 527.669806 
L 349.191492 471.288865 
L 349.411045 509.468172 
L 349.630598 427.951094 
L 349.850151 488.009041 
L 350.069705 463.158011 
L 350.289258 468.476773 
L 350.508811 449.088636 
L 350.728364 564.67413 
L 350.947917 530.585907 
L 351.16747 457.617142 
L 351.387024 450.295319 
L 351.606577 517.886107 
L 351.82613 494.952399 
L 352.045683 516.311726 
L 352.265236 448.604904 
L 352.484789 552.778533 
L 352.923896 430.424524 
L 353.143449 497.86658 
L 353.363002 443.491442 
L 353.582555 459.399153 
L 353.802108 520.912789 
L 354.021661 447.410672 
L 354.460768 495.733293 
L 354.680321 434.55863 
L 354.899874 494.378968 
L 355.119427 519.746275 
L 355.33898 502.144894 
L 355.558533 449.291815 
L 355.778087 557.754801 
L 355.99764 349.006151 
L 356.217193 396.562104 
L 356.436746 516.33095 
L 356.656299 454.494572 
L 356.875852 426.021806 
L 357.095406 426.234749 
L 357.314959 514.374452 
L 357.534512 552.698792 
L 357.754065 487.561598 
L 357.973618 483.753668 
L 358.193171 523.778996 
L 358.412724 488.610096 
L 358.632278 532.200973 
L 358.851831 467.710004 
L 359.071384 488.906722 
L 359.51049 454.83454 
L 359.730043 413.618754 
L 359.949596 465.521194 
L 360.16915 392.825796 
L 360.388703 416.08249 
L 360.827809 495.451906 
L 361.486469 443.011569 
L 361.706022 548.634268 
L 361.925575 515.748374 
L 362.145128 381.422074 
L 362.364681 459.409159 
L 362.584234 410.497513 
L 363.023341 495.003303 
L 363.242894 513.720693 
L 363.462447 404.121503 
L 363.682 484.741403 
L 363.901553 458.853295 
L 364.121106 510.322192 
L 364.560213 382.22483 
L 364.779766 484.842423 
L 364.999319 439.722069 
L 365.218872 529.723613 
L 365.438425 453.504587 
L 365.657978 537.742413 
L 365.877532 537.449581 
L 366.097085 534.129083 
L 366.316638 544.798503 
L 366.536191 499.624752 
L 366.755744 507.229847 
L 366.975297 497.640951 
L 367.194851 388.318438 
L 367.414404 384.801023 
L 367.85351 506.101128 
L 368.073063 473.405478 
L 368.292616 424.160581 
L 368.512169 264.584822 
L 368.731723 524.959995 
L 368.951276 456.858034 
L 369.170829 492.59791 
L 369.390382 372.486881 
L 369.609935 482.873067 
L 369.829488 447.809798 
L 370.049042 504.643037 
L 370.268595 514.565733 
L 370.488148 407.41519 
L 370.707701 405.345799 
L 371.146807 535.320537 
L 371.36636 320.647369 
L 371.585914 498.936577 
L 371.805467 500.089665 
L 372.02502 490.303852 
L 372.244573 445.281154 
L 372.464126 472.953629 
L 372.683679 434.562214 
L 372.903233 456.923016 
L 373.122786 464.542226 
L 373.342339 379.796259 
L 373.561892 536.988338 
L 373.781445 439.741817 
L 374.000998 544.21771 
L 374.220551 517.89507 
L 374.440105 539.969962 
L 374.659658 439.081067 
L 374.879211 447.148087 
L 375.098764 541.761722 
L 375.318317 525.637505 
L 375.53787 436.557675 
L 375.757424 433.912752 
L 375.976977 397.334315 
L 376.19653 516.452186 
L 376.416083 505.385002 
L 376.635636 414.211051 
L 376.855189 511.359627 
L 377.074742 483.309819 
L 377.294296 340.719163 
L 377.513849 466.95025 
L 377.733402 321.854497 
L 377.952955 401.919109 
L 378.172508 385.322189 
L 378.392061 497.973896 
L 378.611615 463.019313 
L 378.831168 465.689384 
L 379.050721 339.336793 
L 379.270274 567.155462 
L 379.489827 468.10545 
L 379.70938 516.594986 
L 379.928933 490.143181 
L 380.148487 512.216161 
L 380.36804 513.215652 
L 380.587593 503.8714 
L 380.807146 465.689788 
L 381.026699 540.396114 
L 381.246252 483.445427 
L 381.465806 546.906323 
L 381.685359 503.362134 
L 381.904912 557.251699 
L 382.124465 419.853563 
L 382.344018 495.79998 
L 382.563571 517.184113 
L 382.783124 405.772849 
L 383.002678 565.469845 
L 383.222231 436.530291 
L 383.441784 480.497916 
L 383.661337 432.618735 
L 383.88089 570.265742 
L 384.100443 547.72594 
L 384.319997 430.196151 
L 384.53955 495.110098 
L 384.759103 498.593733 
L 384.978656 524.477801 
L 385.198209 434.939746 
L 385.417762 469.070537 
L 385.637315 465.382699 
L 385.856869 411.906169 
L 386.295975 549.491786 
L 386.954634 429.255591 
L 387.174187 459.583267 
L 387.393741 519.590148 
L 387.613294 532.546742 
L 387.832847 449.996176 
L 388.0524 440.991202 
L 388.271953 549.921509 
L 388.491506 491.715736 
L 388.71106 510.228895 
L 388.930613 510.500727 
L 389.150166 414.854803 
L 389.589272 543.642629 
L 389.808825 500.314713 
L 390.028378 382.010818 
L 390.247932 404.014827 
L 390.467485 487.627733 
L 390.687038 432.211066 
L 390.906591 464.022161 
L 391.126144 460.441917 
L 391.345697 504.359336 
L 391.565251 457.028905 
L 391.784804 563.287359 
L 392.004357 515.039107 
L 392.22391 529.98774 
L 392.443463 494.401929 
L 392.663016 553.981327 
L 392.882569 473.888876 
L 393.102123 455.640404 
L 393.321676 484.121772 
L 393.541229 301.368492 
L 393.760782 319.963394 
L 393.980335 395.140947 
L 394.199888 418.836179 
L 394.419442 472.774831 
L 394.638995 439.563596 
L 394.858548 504.701166 
L 395.078101 496.959683 
L 395.297654 464.842445 
L 395.517207 500.920941 
L 395.73676 427.307371 
L 395.956314 408.137366 
L 396.39542 468.71063 
L 396.614973 404.065832 
L 396.834526 460.793373 
L 397.273633 511.923523 
L 397.493186 457.709282 
L 397.712739 443.936402 
L 397.932292 445.139329 
L 398.151845 448.36372 
L 398.371398 402.609747 
L 398.590951 454.308075 
L 398.810505 478.491826 
L 399.249611 474.369598 
L 399.469164 547.893636 
L 399.688717 527.020559 
L 400.127824 474.009281 
L 400.347377 504.910073 
L 400.56693 487.672309 
L 400.786483 370.197088 
L 401.006036 389.066828 
L 401.225589 485.58776 
L 401.445142 442.847934 
L 401.664696 463.518878 
L 401.884249 445.294276 
L 402.323355 490.812432 
L 402.542908 447.968781 
L 402.762461 503.841088 
L 402.982015 527.238885 
L 403.201568 431.892769 
L 403.421121 454.182282 
L 403.860227 306.039818 
L 404.07978 431.654231 
L 404.518887 522.022735 
L 404.73844 486.584981 
L 404.957993 543.386019 
L 405.177546 524.205066 
L 405.397099 392.190771 
L 405.616652 468.600907 
L 405.836206 501.733422 
L 406.055759 386.16335 
L 406.275312 526.538178 
L 406.494865 451.283688 
L 406.714418 487.25557 
L 406.933971 448.488846 
L 407.153524 494.152538 
L 407.373078 426.074764 
L 407.592631 470.72216 
L 407.812184 468.298299 
L 408.031737 528.153561 
L 408.25129 539.362825 
L 408.470843 524.713574 
L 408.690397 461.77857 
L 408.90995 464.359098 
L 409.129503 529.892264 
L 409.349056 486.259748 
L 409.568609 409.032528 
L 409.788162 467.952192 
L 410.007715 423.414995 
L 410.227269 443.887169 
L 410.446822 413.086074 
L 410.666375 508.072231 
L 410.885928 542.706856 
L 411.325034 466.390639 
L 411.544587 527.89007 
L 411.764141 482.084955 
L 411.983694 558.883173 
L 412.4228 459.291472 
L 412.642353 490.195357 
L 412.861906 452.748466 
L 413.08146 513.641838 
L 413.301013 492.311586 
L 413.520566 437.687279 
L 413.740119 537.155928 
L 413.959672 518.011747 
L 414.179225 406.407997 
L 414.398778 561.884738 
L 414.618332 545.311992 
L 414.837885 424.358112 
L 415.057438 498.853666 
L 415.276991 455.229468 
L 415.496544 466.355278 
L 415.716097 415.11991 
L 415.935651 543.998259 
L 416.155204 370.533714 
L 416.59431 497.278024 
L 417.033416 434.753145 
L 417.252969 412.003029 
L 417.692076 534.373407 
L 417.911629 482.927915 
L 418.131182 525.492684 
L 418.570288 423.943839 
L 418.789842 354.737025 
L 419.009395 508.127834 
L 419.228948 514.211227 
L 419.448501 483.541228 
L 419.887607 349.851098 
L 420.10716 510.409693 
L 420.326714 422.812174 
L 420.76582 502.765872 
L 420.985373 454.04048 
L 421.204926 514.745955 
L 421.424479 497.268506 
L 421.644033 382.227848 
L 421.863586 469.398267 
L 422.083139 431.482577 
L 422.302692 437.137761 
L 422.522245 427.34561 
L 422.741798 439.375725 
L 422.961351 421.864016 
L 423.180905 461.912616 
L 423.400458 420.298352 
L 423.620011 491.130984 
L 423.839564 508.700771 
L 424.059117 476.846216 
L 424.27867 474.920264 
L 424.498224 478.341645 
L 424.717777 512.508269 
L 424.93733 400.850593 
L 425.156883 505.070083 
L 425.376436 498.63471 
L 425.815542 427.024447 
L 426.035096 431.489648 
L 426.254649 469.727402 
L 426.474202 417.895082 
L 426.693755 326.101288 
L 426.913308 467.379824 
L 427.132861 498.049476 
L 427.352415 458.526245 
L 427.571968 487.325243 
L 427.791521 489.275242 
L 428.011074 527.170876 
L 428.230627 423.74576 
L 428.45018 526.927008 
L 428.669733 511.175513 
L 428.889287 441.652999 
L 429.10884 488.491079 
L 429.328393 442.547882 
L 429.547946 510.25948 
L 429.767499 486.783733 
L 429.987052 435.653019 
L 430.426159 536.550789 
L 431.084818 332.401601 
L 431.304371 533.365132 
L 431.523924 538.237423 
L 431.743478 449.364709 
L 431.963031 485.255247 
L 432.182584 541.279973 
L 432.402137 405.524952 
L 432.62169 384.813875 
L 432.841243 464.152287 
L 433.060797 353.089911 
L 433.28035 483.716415 
L 433.499903 513.74184 
L 433.719456 438.444673 
L 433.939009 548.16592 
L 434.158562 474.471587 
L 434.378115 512.237856 
L 434.597669 519.420249 
L 434.817222 348.755199 
L 435.036775 499.05724 
L 435.256328 497.945434 
L 435.475881 431.376897 
L 435.695434 437.0097 
L 435.914988 416.300913 
L 436.134541 487.664794 
L 436.354094 459.250457 
L 436.573647 452.441435 
L 436.7932 461.859857 
L 437.012753 552.193281 
L 437.45186 436.587046 
L 437.671413 497.020438 
L 437.890966 449.216167 
L 438.110519 497.852667 
L 438.330072 499.755906 
L 438.549625 433.693765 
L 438.769178 451.205798 
L 438.988732 389.396263 
L 439.208285 379.560146 
L 439.427838 452.797981 
L 439.647391 442.096345 
L 440.086497 508.942353 
L 440.306051 424.61008 
L 440.525604 448.865262 
L 440.745157 491.314302 
L 440.96471 430.327796 
L 441.184263 493.355632 
L 441.403816 354.916701 
L 441.623369 399.571675 
L 441.842923 529.977188 
L 442.062476 502.557572 
L 442.282029 532.76499 
L 442.501582 489.995242 
L 442.721135 530.181414 
L 442.940688 477.401359 
L 443.160242 486.788104 
L 443.599348 446.574288 
L 443.818901 474.369941 
L 444.038454 402.47238 
L 444.258007 487.240465 
L 444.47756 419.802219 
L 444.697114 511.850654 
L 444.916667 496.493824 
L 445.13622 497.754609 
L 445.355773 485.466425 
L 445.575326 442.719695 
L 445.794879 538.347911 
L 446.014433 484.95147 
L 446.233986 504.558289 
L 446.453539 472.913623 
L 446.673092 525.303968 
L 446.892645 460.623479 
L 447.112198 465.681956 
L 447.331751 484.723054 
L 447.551305 433.975881 
L 448.429517 518.304923 
L 448.64907 432.577113 
L 448.868624 449.734703 
L 449.088177 552.390747 
L 449.30773 500.382961 
L 449.527283 483.499024 
L 449.746836 427.480803 
L 450.185942 529.548901 
L 450.405496 512.339794 
L 450.625049 529.011459 
L 450.844602 534.622335 
L 451.064155 451.47512 
L 451.503261 534.213515 
L 451.722815 473.744132 
L 451.942368 523.676713 
L 452.161921 382.026697 
L 452.601027 532.100843 
L 453.040133 434.476443 
L 453.259687 305.660387 
L 453.47924 286.046827 
L 453.918346 468.167327 
L 454.137899 469.61057 
L 454.357452 448.593804 
L 454.577006 544.615588 
L 454.796559 426.395776 
L 455.016112 560.848035 
L 455.235665 487.020235 
L 455.455218 490.820229 
L 455.674771 458.233781 
L 455.894324 514.380086 
L 456.113878 496.580549 
L 456.333431 469.540625 
L 456.552984 472.239276 
L 456.772537 517.294122 
L 457.211643 341.490067 
L 457.431197 445.953868 
L 457.65075 379.637428 
L 458.089856 516.419121 
L 458.309409 400.780777 
L 458.748515 523.889634 
L 458.968069 415.925565 
L 459.187622 520.766999 
L 459.407175 514.534567 
L 459.626728 417.543778 
L 459.846281 460.251738 
L 460.065834 472.087237 
L 460.285388 473.931822 
L 460.504941 500.327023 
L 460.724494 511.698981 
L 460.944047 414.624284 
L 461.1636 501.327009 
L 461.383153 408.586265 
L 461.602706 557.332435 
L 461.82226 538.323599 
L 462.261366 422.664242 
L 462.480919 436.156429 
L 462.700472 366.690623 
L 462.920025 460.852876 
L 463.139579 506.783633 
L 463.359132 490.178559 
L 463.578685 418.612658 
L 463.798238 534.520826 
L 464.017791 504.721692 
L 464.237344 452.666781 
L 464.676451 492.184737 
L 464.896004 433.645894 
L 465.115557 566.510726 
L 465.33511 426.899845 
L 465.554663 395.952229 
L 465.774216 540.372398 
L 465.993769 506.418053 
L 466.213323 452.955634 
L 466.432876 479.387279 
L 466.652429 457.189301 
L 466.871982 472.459209 
L 467.091535 390.68566 
L 467.311088 496.526423 
L 467.530642 311.870344 
L 467.750195 465.588309 
L 467.969748 483.894407 
L 468.189301 414.303302 
L 468.408854 466.627964 
L 468.628407 424.337011 
L 468.84796 405.054011 
L 469.067514 537.263293 
L 469.287067 453.427562 
L 469.50662 524.836623 
L 469.726173 541.691033 
L 469.945726 481.991555 
L 470.165279 489.968473 
L 470.384833 430.102197 
L 470.604386 479.223015 
L 470.823939 488.341654 
L 471.043492 462.185252 
L 471.263045 518.123142 
L 471.482598 342.121349 
L 471.702151 381.057309 
L 471.921705 494.032674 
L 472.360811 418.286127 
L 472.799917 501.633306 
L 473.01947 368.63863 
L 473.239024 484.708319 
L 473.458577 487.128067 
L 473.67813 562.534501 
L 473.897683 469.13213 
L 474.117236 441.666089 
L 474.336789 440.94488 
L 474.775896 550.34879 
L 475.215002 446.993896 
L 475.654108 519.892929 
L 475.873661 495.405779 
L 476.093215 425.072515 
L 476.312768 473.062412 
L 476.532321 493.158162 
L 476.971427 456.835276 
L 477.19098 461.825044 
L 477.410533 444.130743 
L 477.630087 514.006256 
L 477.84964 427.487283 
L 478.069193 478.374434 
L 478.288746 482.313682 
L 478.508299 466.079291 
L 478.727852 537.29539 
L 478.947406 478.415649 
L 479.166959 471.269069 
L 479.386512 382.168343 
L 479.606065 499.056767 
L 479.825618 406.704323 
L 480.045171 569.123791 
L 480.264724 545.333541 
L 480.703831 393.569105 
L 480.923384 415.55708 
L 481.142937 520.73334 
L 481.36249 367.064079 
L 481.582043 503.007305 
L 481.801597 546.817344 
L 482.02115 468.316973 
L 482.240703 493.166223 
L 482.460256 390.223869 
L 482.679809 464.543631 
L 482.899362 461.034307 
L 483.118915 513.842725 
L 483.338469 484.415981 
L 483.777575 538.040493 
L 483.997128 523.08428 
L 484.216681 399.315494 
L 484.436234 515.879916 
L 484.655788 477.86055 
L 484.875341 501.214295 
L 485.094894 492.517113 
L 485.314447 518.794254 
L 485.534 469.41481 
L 485.753553 521.326212 
L 485.973106 491.341035 
L 486.19266 515.935714 
L 486.412213 437.331765 
L 486.851319 510.857215 
L 487.070872 413.263771 
L 487.290425 444.853102 
L 487.509979 416.982053 
L 487.729532 416.296516 
L 487.949085 501.618767 
L 488.168638 447.83541 
L 488.388191 524.356696 
L 488.827297 478.559653 
L 489.046851 516.428115 
L 489.266404 513.049375 
L 489.70551 433.61552 
L 489.925063 515.2662 
L 490.144616 461.984505 
L 490.364169 560.356323 
L 490.583723 449.100323 
L 490.803276 454.445634 
L 491.022829 455.818568 
L 491.242382 425.528037 
L 491.461935 427.051867 
L 491.681488 508.330245 
L 491.901042 494.319879 
L 492.340148 379.997548 
L 492.559701 540.949221 
L 492.998807 384.120586 
L 493.21836 509.977597 
L 493.437914 503.115881 
L 493.657467 379.968307 
L 493.87702 513.056028 
L 494.096573 366.766139 
L 494.316126 519.401201 
L 494.535679 453.617666 
L 494.755233 514.883566 
L 494.974786 447.734433 
L 495.194339 433.94653 
L 495.413892 449.326843 
L 495.633445 425.741805 
L 495.852998 545.708235 
L 496.072551 404.565345 
L 496.292105 372.658255 
L 496.511658 524.601919 
L 496.731211 492.340665 
L 496.950764 516.633451 
L 497.170317 503.001318 
L 497.38987 530.34584 
L 497.609424 460.999161 
L 497.828977 475.509851 
L 498.04853 415.448593 
L 498.268083 408.001851 
L 498.487636 444.82792 
L 498.707189 424.601016 
L 498.926742 535.345089 
L 499.146296 471.00893 
L 499.365849 519.190374 
L 499.585402 381.108253 
L 499.804955 540.511258 
L 500.024508 390.345766 
L 500.683168 504.131691 
L 500.902721 486.24203 
L 501.122274 455.607981 
L 501.341827 442.598167 
L 501.56138 505.838965 
L 501.780933 456.208601 
L 502.000487 484.237806 
L 502.22004 456.692211 
L 502.439593 501.122512 
L 502.659146 513.136851 
L 503.098252 442.383351 
L 503.317806 448.04932 
L 503.537359 528.554111 
L 503.756912 468.693542 
L 503.976465 506.231612 
L 504.196018 460.8821 
L 504.415571 520.956638 
L 504.635124 502.318419 
L 504.854678 449.919416 
L 505.293784 521.306767 
L 505.513337 478.166407 
L 505.73289 475.61674 
L 505.952443 436.034448 
L 506.39155 543.685019 
L 506.830656 405.743571 
L 507.050209 426.887723 
L 507.269762 412.907623 
L 507.489315 351.553939 
L 507.708869 396.020996 
L 507.928422 542.166077 
L 508.367528 473.90735 
L 508.587081 474.384331 
L 508.806634 397.097831 
L 509.026188 529.771411 
L 509.245741 438.74059 
L 509.465294 489.100665 
L 509.684847 466.168371 
L 509.9044 466.723492 
L 510.123953 517.224013 
L 510.343506 389.614214 
L 510.782613 418.408152 
L 511.221719 482.25911 
L 511.441272 474.817618 
L 511.660825 514.944995 
L 512.099932 471.492116 
L 512.319485 527.2523 
L 512.758591 421.111548 
L 513.197697 554.169537 
L 513.417251 379.335982 
L 513.636804 442.087849 
L 513.856357 271.773888 
L 514.07591 479.248969 
L 514.295463 502.479051 
L 514.515016 484.579901 
L 514.73457 448.871572 
L 514.954123 463.891104 
L 515.173676 530.269867 
L 515.393229 441.755268 
L 515.612782 491.323627 
L 515.832335 478.46503 
L 516.051888 415.451913 
L 516.271442 500.173592 
L 516.490995 431.564373 
L 516.710548 546.134299 
L 516.930101 356.80444 
L 517.149654 458.411418 
L 517.58876 546.17529 
L 517.808314 351.829039 
L 518.027867 426.120355 
L 518.24742 369.571702 
L 518.466973 458.988239 
L 518.686526 443.509158 
L 518.906079 482.60191 
L 519.125633 418.95244 
L 519.345186 431.023902 
L 519.564739 472.528201 
L 519.784292 419.151449 
L 520.003845 512.311544 
L 520.442951 363.530428 
L 520.662505 510.063505 
L 521.101611 407.573312 
L 521.321164 508.195672 
L 521.540717 467.096594 
L 521.76027 464.97233 
L 521.979824 393.504714 
L 522.199377 503.149408 
L 522.41893 462.194179 
L 522.638483 494.230808 
L 522.858036 481.125829 
L 523.077589 503.143869 
L 523.297142 506.480344 
L 523.516696 520.935501 
L 523.736249 410.357216 
L 524.175355 512.471806 
L 524.394908 479.573537 
L 524.834015 581.38839 
L 525.053568 505.757329 
L 525.273121 515.95365 
L 525.492674 438.587223 
L 525.712227 508.671217 
L 525.93178 524.282088 
L 526.151333 489.029304 
L 526.370887 485.07496 
L 526.59044 496.752826 
L 526.809993 426.806434 
L 527.029546 558.192022 
L 527.249099 528.609774 
L 527.688206 405.620016 
L 527.907759 403.61207 
L 528.127312 483.36335 
L 528.346865 498.417982 
L 528.785971 416.827142 
L 529.005524 507.803959 
L 529.225078 494.043431 
L 529.444631 444.589607 
L 529.664184 474.395045 
L 529.883737 460.633785 
L 530.322843 521.222194 
L 530.542397 473.328335 
L 530.76195 390.231165 
L 530.981503 514.323524 
L 531.201056 479.432488 
L 531.420609 475.025505 
L 531.640162 532.893715 
L 531.859715 391.118758 
L 532.079269 466.300837 
L 532.298822 383.672076 
L 532.518375 406.779352 
L 532.737928 446.623179 
L 532.957481 457.681391 
L 533.177034 428.387098 
L 533.616141 558.232341 
L 533.835694 543.485581 
L 534.055247 332.552887 
L 534.2748 471.872166 
L 534.494353 477.502559 
L 534.713906 500.783616 
L 534.93346 348.949804 
L 535.153013 513.851165 
L 535.372566 411.300798 
L 535.592119 545.309579 
L 535.811672 497.904465 
L 536.031225 515.475247 
L 536.250779 514.545743 
L 536.470332 501.806319 
L 536.689885 462.387168 
L 536.909438 497.775982 
L 537.128991 443.317886 
L 537.348544 535.573147 
L 537.568097 531.46263 
L 537.787651 325.521915 
L 538.007204 477.769677 
L 538.226757 525.650381 
L 538.665863 481.896357 
L 538.885416 337.524871 
L 539.324523 557.68642 
L 539.544076 416.08556 
L 539.763629 580.111015 
L 539.983182 389.661017 
L 540.202735 545.622918 
L 540.422288 551.414666 
L 540.641842 492.41369 
L 540.861395 540.819306 
L 541.300501 473.161729 
L 541.520054 538.92093 
L 541.739607 410.236857 
L 541.95916 425.778386 
L 542.178714 411.172642 
L 542.398267 301.330211 
L 542.61782 419.951897 
L 542.837373 407.273496 
L 543.056926 370.89242 
L 543.496033 445.990739 
L 543.715586 403.26045 
L 543.935139 550.232679 
L 544.374245 363.091584 
L 544.593798 515.364551 
L 544.813351 555.743933 
L 545.032905 461.834596 
L 545.252458 422.83547 
L 545.472011 534.715355 
L 545.691564 476.300557 
L 545.911117 472.655214 
L 546.13067 540.362464 
L 546.569777 456.210492 
L 546.78933 447.79014 
L 547.008883 427.854901 
L 547.228436 517.403017 
L 547.447989 489.482969 
L 547.667542 402.685997 
L 547.887096 538.394713 
L 548.326202 409.909025 
L 548.545755 539.632731 
L 548.765308 509.94425 
L 548.984861 541.69976 
L 549.204415 544.180061 
L 549.643521 364.00448 
L 549.863074 454.035162 
L 550.082627 479.466289 
L 550.30218 457.083165 
L 550.521733 495.046629 
L 550.741287 457.92006 
L 550.96084 480.484613 
L 551.180393 531.972684 
L 551.399946 414.626645 
L 551.619499 500.89914 
L 551.839052 405.761005 
L 552.058606 501.256864 
L 552.278159 436.280013 
L 552.497712 492.964429 
L 552.717265 486.148737 
L 552.936818 483.085373 
L 553.156371 394.537837 
L 553.595478 487.295817 
L 553.815031 375.657779 
L 554.034584 391.31612 
L 554.254137 469.672869 
L 554.47369 347.231697 
L 554.693243 483.169115 
L 554.912797 446.374216 
L 555.13235 477.786364 
L 555.351903 462.27483 
L 555.571456 424.384921 
L 555.791009 533.008027 
L 556.010562 330.77221 
L 556.230115 497.432682 
L 556.449669 528.71025 
L 556.669222 472.319049 
L 556.888775 504.544052 
L 557.108328 424.931026 
L 557.327881 486.724785 
L 557.547434 481.194572 
L 557.766988 406.344684 
L 557.986541 510.82279 
L 558.206094 413.477512 
L 558.425647 498.39768 
L 558.6452 476.134951 
L 558.864753 312.00354 
L 559.084306 502.838275 
L 559.523413 545.668707 
L 559.742966 514.422769 
L 559.742966 514.422769 
" style="fill:none;stroke:#96c69a;stroke-linecap:round;stroke-width:3;"/>
   </g>
   <g id="line2d_2"/>
   <g id="patch_3">
    <path d="M 98.911875 603.86 
L 98.911875 109.484571 
" style="fill:none;stroke:#262626;stroke-linecap:square;stroke-linejoin:miter;stroke-width:2.5;"/>
   </g>
   <g id="patch_4">
    <path d="M 98.911875 603.86 
L 581.687304 603.86 
" style="fill:none;stroke:#262626;stroke-linecap:square;stroke-linejoin:miter;stroke-width:2.5;"/>
   </g>
   <g id="legend_1">
    <g id="patch_5">
     <path d="M 528.771679 598.86 
L 574.687304 598.86 
Q 576.687304 598.86 576.687304 596.86 
L 576.687304 554.954375 
Q 576.687304 552.954375 574.687304 552.954375 
L 528.771679 552.954375 
Q 526.771679 552.954375 526.771679 554.954375 
L 526.771679 596.86 
Q 526.771679 598.86 528.771679 598.86 
z
" style="fill:#ffffff;opacity:0.8;stroke:#cccccc;stroke-linejoin:miter;stroke-width:2;"/>
    </g>
    <g id="text_17">
     <!-- $n_\tau$ -->
     <g style="fill:#262626;" transform="translate(538.649491 575.190625)scale(0.24 -0.24)">
      <defs>
       <path d="M 3566 2113 
L 3156 0 
L 2578 0 
L 2988 2091 
Q 3016 2238 3031 2350 
Q 3047 2463 3047 2528 
Q 3047 2791 2881 2937 
Q 2716 3084 2419 3084 
Q 1956 3084 1622 2776 
Q 1288 2469 1184 1941 
L 800 0 
L 225 0 
L 903 3500 
L 1478 3500 
L 1363 2950 
Q 1603 3253 1940 3418 
Q 2278 3584 2650 3584 
Q 3113 3584 3367 3334 
Q 3622 3084 3622 2631 
Q 3622 2519 3608 2391 
Q 3594 2263 3566 2113 
z
" id="DejaVuSans-Oblique-6e" transform="scale(0.015625)"/>
       <path d="M 2103 638 
Q 2188 488 2525 488 
L 2800 488 
L 2706 0 
L 2363 0 
Q 1800 0 1600 300 
Q 1403 606 1534 1269 
L 1856 2925 
L 541 2925 
L 653 3500 
L 3881 3500 
L 3769 2925 
L 2444 2925 
L 2113 1234 
Q 2025 781 2103 638 
z
" id="DejaVuSans-Oblique-3c4" transform="scale(0.015625)"/>
      </defs>
      <use xlink:href="#DejaVuSans-Oblique-6e"/>
      <use transform="translate(63.378906 -16.40625)scale(0.7)" xlink:href="#DejaVuSans-Oblique-3c4"/>
     </g>
    </g>
    <g id="line2d_3">
     <path d="M 530.771679 589.280313 
L 550.771679 589.280313 
" style="fill:none;stroke:#96c69a;stroke-linecap:round;stroke-width:3;"/>
    </g>
    <g id="line2d_4"/>
    <g id="text_18">
     <!-- 40 -->
     <g style="fill:#262626;" transform="translate(558.771679 592.780313)scale(0.1 -0.1)">
      <defs>
       <path d="M 2356 3675 
L 1038 1722 
L 2356 1722 
L 2356 3675 
z
M 2156 4666 
L 3494 4666 
L 3494 1722 
L 4159 1722 
L 4159 850 
L 3494 850 
L 3494 0 
L 2356 0 
L 2356 850 
L 288 850 
L 288 1881 
L 2156 4666 
z
" id="DejaVuSans-Bold-34" transform="scale(0.015625)"/>
       <path d="M 2944 2338 
Q 2944 3213 2780 3570 
Q 2616 3928 2228 3928 
Q 1841 3928 1675 3570 
Q 1509 3213 1509 2338 
Q 1509 1453 1675 1090 
Q 1841 728 2228 728 
Q 2613 728 2778 1090 
Q 2944 1453 2944 2338 
z
M 4147 2328 
Q 4147 1169 3647 539 
Q 3147 -91 2228 -91 
Q 1306 -91 806 539 
Q 306 1169 306 2328 
Q 306 3491 806 4120 
Q 1306 4750 2228 4750 
Q 3147 4750 3647 4120 
Q 4147 3491 4147 2328 
z
" id="DejaVuSans-Bold-30" transform="scale(0.015625)"/>
      </defs>
      <use xlink:href="#DejaVuSans-Bold-34"/>
      <use x="69.580078" xlink:href="#DejaVuSans-Bold-30"/>
     </g>
    </g>
   </g>
  </g>
  <g id="axes_2">
   <g id="patch_6">
    <path d="M 98.911875 92.437143 
L 581.687304 92.437143 
L 581.687304 7.2 
L 98.911875 7.2 
z
" style="fill:none;"/>
   </g>
   <g id="matplotlib.axis_3">
    <g id="xtick_7"/>
    <g id="xtick_8"/>
    <g id="xtick_9"/>
    <g id="xtick_10"/>
    <g id="xtick_11"/>
    <g id="xtick_12"/>
   </g>
   <g id="matplotlib.axis_4">
    <g id="ytick_9">
     <g id="text_19">
      <!-- 0 -->
      <g style="fill:#262626;" transform="translate(69.414375 100.795424)scale(0.22 -0.22)">
       <use xlink:href="#DejaVuSans-30"/>
      </g>
     </g>
    </g>
    <g id="ytick_10">
     <g id="text_20">
      <!-- 100 -->
      <g style="fill:#262626;" transform="translate(41.419375 48.082287)scale(0.22 -0.22)">
       <use xlink:href="#DejaVuSans-31"/>
       <use x="63.623047" xlink:href="#DejaVuSans-30"/>
       <use x="127.246094" xlink:href="#DejaVuSans-30"/>
      </g>
     </g>
    </g>
   </g>
   <g id="patch_7">
    <path clip-path="url(#p3bb3c7274a)" d="M 120.856213 92.437143 
L 154.616732 92.437143 
L 154.616732 11.258912 
L 120.856213 11.258912 
z
" style="fill:#96c69a;fill-opacity:0.5;stroke:#ffffff;stroke-linejoin:miter;stroke-width:2;"/>
   </g>
   <g id="patch_8">
    <path clip-path="url(#p3bb3c7274a)" d="M 154.616732 92.437143 
L 188.377252 92.437143 
L 188.377252 11.258912 
L 154.616732 11.258912 
z
" style="fill:#96c69a;fill-opacity:0.5;stroke:#ffffff;stroke-linejoin:miter;stroke-width:2;"/>
   </g>
   <g id="patch_9">
    <path clip-path="url(#p3bb3c7274a)" d="M 188.377252 92.437143 
L 222.137771 92.437143 
L 222.137771 11.258912 
L 188.377252 11.258912 
z
" style="fill:#96c69a;fill-opacity:0.5;stroke:#ffffff;stroke-linejoin:miter;stroke-width:2;"/>
   </g>
   <g id="patch_10">
    <path clip-path="url(#p3bb3c7274a)" d="M 222.137771 92.437143 
L 255.898291 92.437143 
L 255.898291 11.258912 
L 222.137771 11.258912 
z
" style="fill:#96c69a;fill-opacity:0.5;stroke:#ffffff;stroke-linejoin:miter;stroke-width:2;"/>
   </g>
   <g id="patch_11">
    <path clip-path="url(#p3bb3c7274a)" d="M 255.898291 92.437143 
L 289.65881 92.437143 
L 289.65881 11.786043 
L 255.898291 11.786043 
z
" style="fill:#96c69a;fill-opacity:0.5;stroke:#ffffff;stroke-linejoin:miter;stroke-width:2;"/>
   </g>
   <g id="patch_12">
    <path clip-path="url(#p3bb3c7274a)" d="M 289.65881 92.437143 
L 323.41933 92.437143 
L 323.41933 11.258912 
L 289.65881 11.258912 
z
" style="fill:#96c69a;fill-opacity:0.5;stroke:#ffffff;stroke-linejoin:miter;stroke-width:2;"/>
   </g>
   <g id="patch_13">
    <path clip-path="url(#p3bb3c7274a)" d="M 323.41933 92.437143 
L 357.179849 92.437143 
L 357.179849 11.258912 
L 323.41933 11.258912 
z
" style="fill:#96c69a;fill-opacity:0.5;stroke:#ffffff;stroke-linejoin:miter;stroke-width:2;"/>
   </g>
   <g id="patch_14">
    <path clip-path="url(#p3bb3c7274a)" d="M 357.179849 92.437143 
L 390.940369 92.437143 
L 390.940369 11.258912 
L 357.179849 11.258912 
z
" style="fill:#96c69a;fill-opacity:0.5;stroke:#ffffff;stroke-linejoin:miter;stroke-width:2;"/>
   </g>
   <g id="patch_15">
    <path clip-path="url(#p3bb3c7274a)" d="M 390.940369 92.437143 
L 424.700888 92.437143 
L 424.700888 11.786043 
L 390.940369 11.786043 
z
" style="fill:#96c69a;fill-opacity:0.5;stroke:#ffffff;stroke-linejoin:miter;stroke-width:2;"/>
   </g>
   <g id="patch_16">
    <path clip-path="url(#p3bb3c7274a)" d="M 424.700888 92.437143 
L 458.461407 92.437143 
L 458.461407 11.258912 
L 424.700888 11.258912 
z
" style="fill:#96c69a;fill-opacity:0.5;stroke:#ffffff;stroke-linejoin:miter;stroke-width:2;"/>
   </g>
   <g id="patch_17">
    <path clip-path="url(#p3bb3c7274a)" d="M 458.461407 92.437143 
L 492.221927 92.437143 
L 492.221927 11.258912 
L 458.461407 11.258912 
z
" style="fill:#96c69a;fill-opacity:0.5;stroke:#ffffff;stroke-linejoin:miter;stroke-width:2;"/>
   </g>
   <g id="patch_18">
    <path clip-path="url(#p3bb3c7274a)" d="M 492.221927 92.437143 
L 525.982446 92.437143 
L 525.982446 11.258912 
L 492.221927 11.258912 
z
" style="fill:#96c69a;fill-opacity:0.5;stroke:#ffffff;stroke-linejoin:miter;stroke-width:2;"/>
   </g>
   <g id="patch_19">
    <path clip-path="url(#p3bb3c7274a)" d="M 525.982446 92.437143 
L 559.742966 92.437143 
L 559.742966 11.258912 
L 525.982446 11.258912 
z
" style="fill:#96c69a;fill-opacity:0.5;stroke:#ffffff;stroke-linejoin:miter;stroke-width:2;"/>
   </g>
   <g id="patch_20">
    <path d="M 98.911875 92.437143 
L 98.911875 7.2 
" style="fill:none;stroke:#262626;stroke-linecap:square;stroke-linejoin:miter;stroke-width:2.5;"/>
   </g>
   <g id="patch_21">
    <path d="M 98.911875 92.437143 
L 581.687304 92.437143 
" style="fill:none;stroke:#262626;stroke-linecap:square;stroke-linejoin:miter;stroke-width:2.5;"/>
   </g>
  </g>
  <g id="axes_3">
   <g id="patch_22">
    <path d="M 598.334732 603.86 
L 681.571875 603.86 
L 681.571875 109.484571 
L 598.334732 109.484571 
z
" style="fill:none;"/>
   </g>
   <g id="matplotlib.axis_5">
    <g id="xtick_13">
     <g id="text_21">
      <!-- 0 -->
      <g style="fill:#262626;" transform="translate(591.335982 636.076563)scale(0.22 -0.22)">
       <use xlink:href="#DejaVuSans-30"/>
      </g>
     </g>
    </g>
    <g id="xtick_14">
     <g id="text_22">
      <!-- 100 -->
      <g style="fill:#262626;" transform="translate(622.897947 636.076563)scale(0.22 -0.22)">
       <use xlink:href="#DejaVuSans-31"/>
       <use x="63.623047" xlink:href="#DejaVuSans-30"/>
       <use x="127.246094" xlink:href="#DejaVuSans-30"/>
      </g>
     </g>
    </g>
   </g>
   <g id="matplotlib.axis_6">
    <g id="ytick_11"/>
    <g id="ytick_12"/>
    <g id="ytick_13"/>
    <g id="ytick_14"/>
    <g id="ytick_15"/>
    <g id="ytick_16"/>
    <g id="ytick_17"/>
    <g id="ytick_18"/>
   </g>
   <g id="patch_23">
    <path clip-path="url(#pe5a1898bd9)" d="M 598.334732 581.38839 
L 601.0683 581.38839 
L 601.0683 570.936478 
L 598.334732 570.936478 
z
" style="fill:#96c69a;fill-opacity:0.5;stroke:#ffffff;stroke-linejoin:miter;stroke-width:1.045191;"/>
   </g>
   <g id="patch_24">
    <path clip-path="url(#pe5a1898bd9)" d="M 598.334732 570.936478 
L 606.991031 570.936478 
L 606.991031 560.484566 
L 598.334732 560.484566 
z
" style="fill:#96c69a;fill-opacity:0.5;stroke:#ffffff;stroke-linejoin:miter;stroke-width:1.045191;"/>
   </g>
   <g id="patch_25">
    <path clip-path="url(#pe5a1898bd9)" d="M 598.334732 560.484566 
L 615.191734 560.484566 
L 615.191734 550.032654 
L 598.334732 550.032654 
z
" style="fill:#96c69a;fill-opacity:0.5;stroke:#ffffff;stroke-linejoin:miter;stroke-width:1.045191;"/>
   </g>
   <g id="patch_26">
    <path clip-path="url(#pe5a1898bd9)" d="M 598.334732 550.032654 
L 627.037195 550.032654 
L 627.037195 539.580742 
L 598.334732 539.580742 
z
" style="fill:#96c69a;fill-opacity:0.5;stroke:#ffffff;stroke-linejoin:miter;stroke-width:1.045191;"/>
   </g>
   <g id="patch_27">
    <path clip-path="url(#pe5a1898bd9)" d="M 598.334732 539.580742 
L 642.983008 539.580742 
L 642.983008 529.128831 
L 598.334732 529.128831 
z
" style="fill:#96c69a;fill-opacity:0.5;stroke:#ffffff;stroke-linejoin:miter;stroke-width:1.045191;"/>
   </g>
   <g id="patch_28">
    <path clip-path="url(#pe5a1898bd9)" d="M 598.334732 529.128831 
L 647.994549 529.128831 
L 647.994549 518.676919 
L 598.334732 518.676919 
z
" style="fill:#96c69a;fill-opacity:0.5;stroke:#ffffff;stroke-linejoin:miter;stroke-width:1.045191;"/>
   </g>
   <g id="patch_29">
    <path clip-path="url(#pe5a1898bd9)" d="M 598.334732 518.676919 
L 668.040714 518.676919 
L 668.040714 508.225007 
L 598.334732 508.225007 
z
" style="fill:#96c69a;fill-opacity:0.5;stroke:#ffffff;stroke-linejoin:miter;stroke-width:1.045191;"/>
   </g>
   <g id="patch_30">
    <path clip-path="url(#pe5a1898bd9)" d="M 598.334732 508.225007 
L 668.951903 508.225007 
L 668.951903 497.773095 
L 598.334732 497.773095 
z
" style="fill:#96c69a;fill-opacity:0.5;stroke:#ffffff;stroke-linejoin:miter;stroke-width:1.045191;"/>
   </g>
   <g id="patch_31">
    <path clip-path="url(#pe5a1898bd9)" d="M 598.334732 497.773095 
L 672.141066 497.773095 
L 672.141066 487.321183 
L 598.334732 487.321183 
z
" style="fill:#96c69a;fill-opacity:0.5;stroke:#ffffff;stroke-linejoin:miter;stroke-width:1.045191;"/>
   </g>
   <g id="patch_32">
    <path clip-path="url(#pe5a1898bd9)" d="M 598.334732 487.321183 
L 677.608202 487.321183 
L 677.608202 476.869272 
L 598.334732 476.869272 
z
" style="fill:#96c69a;fill-opacity:0.5;stroke:#ffffff;stroke-linejoin:miter;stroke-width:1.045191;"/>
   </g>
   <g id="patch_33">
    <path clip-path="url(#pe5a1898bd9)" d="M 598.334732 476.869272 
L 671.685471 476.869272 
L 671.685471 466.41736 
L 598.334732 466.41736 
z
" style="fill:#96c69a;fill-opacity:0.5;stroke:#ffffff;stroke-linejoin:miter;stroke-width:1.045191;"/>
   </g>
   <g id="patch_34">
    <path clip-path="url(#pe5a1898bd9)" d="M 598.334732 466.41736 
L 667.129525 466.41736 
L 667.129525 455.965448 
L 598.334732 455.965448 
z
" style="fill:#96c69a;fill-opacity:0.5;stroke:#ffffff;stroke-linejoin:miter;stroke-width:1.045191;"/>
   </g>
   <g id="patch_35">
    <path clip-path="url(#pe5a1898bd9)" d="M 598.334732 455.965448 
L 662.117983 455.965448 
L 662.117983 445.513536 
L 598.334732 445.513536 
z
" style="fill:#96c69a;fill-opacity:0.5;stroke:#ffffff;stroke-linejoin:miter;stroke-width:1.045191;"/>
   </g>
   <g id="patch_36">
    <path clip-path="url(#pe5a1898bd9)" d="M 598.334732 445.513536 
L 646.627765 445.513536 
L 646.627765 435.061624 
L 598.334732 435.061624 
z
" style="fill:#96c69a;fill-opacity:0.5;stroke:#ffffff;stroke-linejoin:miter;stroke-width:1.045191;"/>
   </g>
   <g id="patch_37">
    <path clip-path="url(#pe5a1898bd9)" d="M 598.334732 435.061624 
L 644.349792 435.061624 
L 644.349792 424.609712 
L 598.334732 424.609712 
z
" style="fill:#96c69a;fill-opacity:0.5;stroke:#ffffff;stroke-linejoin:miter;stroke-width:1.045191;"/>
   </g>
   <g id="patch_38">
    <path clip-path="url(#pe5a1898bd9)" d="M 598.334732 424.609712 
L 638.882656 424.609712 
L 638.882656 414.157801 
L 598.334732 414.157801 
z
" style="fill:#96c69a;fill-opacity:0.5;stroke:#ffffff;stroke-linejoin:miter;stroke-width:1.045191;"/>
   </g>
   <g id="patch_39">
    <path clip-path="url(#pe5a1898bd9)" d="M 598.334732 414.157801 
L 630.226358 414.157801 
L 630.226358 403.705889 
L 598.334732 403.705889 
z
" style="fill:#96c69a;fill-opacity:0.5;stroke:#ffffff;stroke-linejoin:miter;stroke-width:1.045191;"/>
   </g>
   <g id="patch_40">
    <path clip-path="url(#pe5a1898bd9)" d="M 598.334732 403.705889 
L 622.025654 403.705889 
L 622.025654 393.253977 
L 598.334732 393.253977 
z
" style="fill:#96c69a;fill-opacity:0.5;stroke:#ffffff;stroke-linejoin:miter;stroke-width:1.045191;"/>
   </g>
   <g id="patch_41">
    <path clip-path="url(#pe5a1898bd9)" d="M 598.334732 393.253977 
L 616.558518 393.253977 
L 616.558518 382.802065 
L 598.334732 382.802065 
z
" style="fill:#96c69a;fill-opacity:0.5;stroke:#ffffff;stroke-linejoin:miter;stroke-width:1.045191;"/>
   </g>
   <g id="patch_42">
    <path clip-path="url(#pe5a1898bd9)" d="M 598.334732 382.802065 
L 613.369356 382.802065 
L 613.369356 372.350153 
L 598.334732 372.350153 
z
" style="fill:#96c69a;fill-opacity:0.5;stroke:#ffffff;stroke-linejoin:miter;stroke-width:1.045191;"/>
   </g>
   <g id="patch_43">
    <path clip-path="url(#pe5a1898bd9)" d="M 598.334732 372.350153 
L 609.724598 372.350153 
L 609.724598 361.898242 
L 598.334732 361.898242 
z
" style="fill:#96c69a;fill-opacity:0.5;stroke:#ffffff;stroke-linejoin:miter;stroke-width:1.045191;"/>
   </g>
   <g id="patch_44">
    <path clip-path="url(#pe5a1898bd9)" d="M 598.334732 361.898242 
L 601.979489 361.898242 
L 601.979489 351.44633 
L 598.334732 351.44633 
z
" style="fill:#96c69a;fill-opacity:0.5;stroke:#ffffff;stroke-linejoin:miter;stroke-width:1.045191;"/>
   </g>
   <g id="patch_45">
    <path clip-path="url(#pe5a1898bd9)" d="M 598.334732 351.44633 
L 603.346273 351.44633 
L 603.346273 340.994418 
L 598.334732 340.994418 
z
" style="fill:#96c69a;fill-opacity:0.5;stroke:#ffffff;stroke-linejoin:miter;stroke-width:1.045191;"/>
   </g>
   <g id="patch_46">
    <path clip-path="url(#pe5a1898bd9)" d="M 598.334732 340.994418 
L 602.435084 340.994418 
L 602.435084 330.542506 
L 598.334732 330.542506 
z
" style="fill:#96c69a;fill-opacity:0.5;stroke:#ffffff;stroke-linejoin:miter;stroke-width:1.045191;"/>
   </g>
   <g id="patch_47">
    <path clip-path="url(#pe5a1898bd9)" d="M 598.334732 330.542506 
L 601.979489 330.542506 
L 601.979489 320.090594 
L 598.334732 320.090594 
z
" style="fill:#96c69a;fill-opacity:0.5;stroke:#ffffff;stroke-linejoin:miter;stroke-width:1.045191;"/>
   </g>
   <g id="patch_48">
    <path clip-path="url(#pe5a1898bd9)" d="M 598.334732 320.090594 
L 601.523895 320.090594 
L 601.523895 309.638683 
L 598.334732 309.638683 
z
" style="fill:#96c69a;fill-opacity:0.5;stroke:#ffffff;stroke-linejoin:miter;stroke-width:1.045191;"/>
   </g>
   <g id="patch_49">
    <path clip-path="url(#pe5a1898bd9)" d="M 598.334732 309.638683 
L 600.612705 309.638683 
L 600.612705 299.186771 
L 598.334732 299.186771 
z
" style="fill:#96c69a;fill-opacity:0.5;stroke:#ffffff;stroke-linejoin:miter;stroke-width:1.045191;"/>
   </g>
   <g id="patch_50">
    <path clip-path="url(#pe5a1898bd9)" d="M 598.334732 299.186771 
L 598.790327 299.186771 
L 598.790327 288.734859 
L 598.334732 288.734859 
z
" style="fill:#96c69a;fill-opacity:0.5;stroke:#ffffff;stroke-linejoin:miter;stroke-width:1.045191;"/>
   </g>
   <g id="patch_51">
    <path clip-path="url(#pe5a1898bd9)" d="M 598.334732 288.734859 
L 599.245921 288.734859 
L 599.245921 278.282947 
L 598.334732 278.282947 
z
" style="fill:#96c69a;fill-opacity:0.5;stroke:#ffffff;stroke-linejoin:miter;stroke-width:1.045191;"/>
   </g>
   <g id="patch_52">
    <path clip-path="url(#pe5a1898bd9)" d="M 598.334732 278.282947 
L 598.790327 278.282947 
L 598.790327 267.831035 
L 598.334732 267.831035 
z
" style="fill:#96c69a;fill-opacity:0.5;stroke:#ffffff;stroke-linejoin:miter;stroke-width:1.045191;"/>
   </g>
   <g id="patch_53">
    <path clip-path="url(#pe5a1898bd9)" d="M 598.334732 267.831035 
L 599.701516 267.831035 
L 599.701516 257.379124 
L 598.334732 257.379124 
z
" style="fill:#96c69a;fill-opacity:0.5;stroke:#ffffff;stroke-linejoin:miter;stroke-width:1.045191;"/>
   </g>
   <g id="patch_54">
    <path clip-path="url(#pe5a1898bd9)" d="M 598.334732 257.379124 
L 598.334732 257.379124 
L 598.334732 246.927212 
L 598.334732 246.927212 
z
" style="fill:#96c69a;fill-opacity:0.5;stroke:#ffffff;stroke-linejoin:miter;stroke-width:1.045191;"/>
   </g>
   <g id="patch_55">
    <path clip-path="url(#pe5a1898bd9)" d="M 598.334732 246.927212 
L 598.334732 246.927212 
L 598.334732 236.4753 
L 598.334732 236.4753 
z
" style="fill:#96c69a;fill-opacity:0.5;stroke:#ffffff;stroke-linejoin:miter;stroke-width:1.045191;"/>
   </g>
   <g id="patch_56">
    <path clip-path="url(#pe5a1898bd9)" d="M 598.334732 236.4753 
L 598.334732 236.4753 
L 598.334732 226.023388 
L 598.334732 226.023388 
z
" style="fill:#96c69a;fill-opacity:0.5;stroke:#ffffff;stroke-linejoin:miter;stroke-width:1.045191;"/>
   </g>
   <g id="patch_57">
    <path clip-path="url(#pe5a1898bd9)" d="M 598.334732 226.023388 
L 598.334732 226.023388 
L 598.334732 215.571476 
L 598.334732 215.571476 
z
" style="fill:#96c69a;fill-opacity:0.5;stroke:#ffffff;stroke-linejoin:miter;stroke-width:1.045191;"/>
   </g>
   <g id="patch_58">
    <path clip-path="url(#pe5a1898bd9)" d="M 598.334732 215.571476 
L 598.334732 215.571476 
L 598.334732 205.119564 
L 598.334732 205.119564 
z
" style="fill:#96c69a;fill-opacity:0.5;stroke:#ffffff;stroke-linejoin:miter;stroke-width:1.045191;"/>
   </g>
   <g id="patch_59">
    <path clip-path="url(#pe5a1898bd9)" d="M 598.334732 205.119564 
L 598.334732 205.119564 
L 598.334732 194.667653 
L 598.334732 194.667653 
z
" style="fill:#96c69a;fill-opacity:0.5;stroke:#ffffff;stroke-linejoin:miter;stroke-width:1.045191;"/>
   </g>
   <g id="patch_60">
    <path clip-path="url(#pe5a1898bd9)" d="M 598.334732 194.667653 
L 598.334732 194.667653 
L 598.334732 184.215741 
L 598.334732 184.215741 
z
" style="fill:#96c69a;fill-opacity:0.5;stroke:#ffffff;stroke-linejoin:miter;stroke-width:1.045191;"/>
   </g>
   <g id="patch_61">
    <path clip-path="url(#pe5a1898bd9)" d="M 598.334732 184.215741 
L 598.334732 184.215741 
L 598.334732 173.763829 
L 598.334732 173.763829 
z
" style="fill:#96c69a;fill-opacity:0.5;stroke:#ffffff;stroke-linejoin:miter;stroke-width:1.045191;"/>
   </g>
   <g id="patch_62">
    <path clip-path="url(#pe5a1898bd9)" d="M 598.334732 173.763829 
L 598.334732 173.763829 
L 598.334732 163.311917 
L 598.334732 163.311917 
z
" style="fill:#96c69a;fill-opacity:0.5;stroke:#ffffff;stroke-linejoin:miter;stroke-width:1.045191;"/>
   </g>
   <g id="patch_63">
    <path clip-path="url(#pe5a1898bd9)" d="M 598.334732 163.311917 
L 598.334732 163.311917 
L 598.334732 152.860005 
L 598.334732 152.860005 
z
" style="fill:#96c69a;fill-opacity:0.5;stroke:#ffffff;stroke-linejoin:miter;stroke-width:1.045191;"/>
   </g>
   <g id="patch_64">
    <path clip-path="url(#pe5a1898bd9)" d="M 598.334732 152.860005 
L 598.334732 152.860005 
L 598.334732 142.408094 
L 598.334732 142.408094 
z
" style="fill:#96c69a;fill-opacity:0.5;stroke:#ffffff;stroke-linejoin:miter;stroke-width:1.045191;"/>
   </g>
   <g id="patch_65">
    <path clip-path="url(#pe5a1898bd9)" d="M 598.334732 142.408094 
L 598.790327 142.408094 
L 598.790327 131.956182 
L 598.334732 131.956182 
z
" style="fill:#96c69a;fill-opacity:0.5;stroke:#ffffff;stroke-linejoin:miter;stroke-width:1.045191;"/>
   </g>
   <g id="patch_66">
    <path d="M 598.334732 603.86 
L 598.334732 109.484571 
" style="fill:none;stroke:#262626;stroke-linecap:square;stroke-linejoin:miter;stroke-width:2.5;"/>
   </g>
   <g id="patch_67">
    <path d="M 598.334732 603.86 
L 681.571875 603.86 
" style="fill:none;stroke:#262626;stroke-linecap:square;stroke-linejoin:miter;stroke-width:2.5;"/>
   </g>
  </g>
 </g>
 <defs>
  <clipPath id="pc7108942a4">
   <rect height="494.375429" width="482.775429" x="98.911875" y="109.484571"/>
  </clipPath>
  <clipPath id="p3bb3c7274a">
   <rect height="85.237143" width="482.775429" x="98.911875" y="7.2"/>
  </clipPath>
  <clipPath id="pe5a1898bd9">
   <rect height="494.375429" width="83.237143" x="598.334732" y="109.484571"/>
  </clipPath>
 </defs>
</svg>
