<?xml version="1.0" encoding="utf-8" standalone="no"?>
<!DOCTYPE svg PUBLIC "-//W3C//DTD SVG 1.1//EN"
  "http://www.w3.org/Graphics/SVG/1.1/DTD/svg11.dtd">
<svg height="675.079375pt" version="1.1" viewBox="0 0 674.774375 675.079375" width="674.774375pt" xmlns="http://www.w3.org/2000/svg" xmlns:xlink="http://www.w3.org/1999/xlink">
 <metadata>
  <rdf:RDF xmlns:cc="http://creativecommons.org/ns#" xmlns:dc="http://purl.org/dc/elements/1.1/" xmlns:rdf="http://www.w3.org/1999/02/22-rdf-syntax-ns#">
   <cc:Work>
    <dc:type rdf:resource="http://purl.org/dc/dcmitype/StillImage"/>
    <dc:date>2021-07-16T21:44:05.764848</dc:date>
    <dc:format>image/svg+xml</dc:format>
    <dc:creator>
     <cc:Agent>
      <dc:title>Matplotlib v3.4.2, https://matplotlib.org/</dc:title>
     </cc:Agent>
    </dc:creator>
   </cc:Work>
  </rdf:RDF>
 </metadata>
 <defs>
  <style type="text/css">*{stroke-linecap:butt;stroke-linejoin:round;}</style>
 </defs>
 <g id="figure_1">
  <g id="patch_1">
   <path d="M 0 675.079375 
L 674.774375 675.079375 
L 674.774375 0 
L 0 0 
z
" style="fill:#ffffff;"/>
  </g>
  <g id="axes_1">
   <g id="patch_2">
    <path d="M 84.914375 603.86 
L 567.689804 603.86 
L 567.689804 109.484571 
L 84.914375 109.484571 
z
" style="fill:none;"/>
   </g>
   <g id="matplotlib.axis_1">
    <g id="xtick_1">
     <g id="text_1">
      <!-- 0 -->
      <g style="fill:#262626;" transform="translate(99.64041 636.076563)scale(0.22 -0.22)">
       <defs>
        <path d="M 2034 4250 
Q 1547 4250 1301 3770 
Q 1056 3291 1056 2328 
Q 1056 1369 1301 889 
Q 1547 409 2034 409 
Q 2525 409 2770 889 
Q 3016 1369 3016 2328 
Q 3016 3291 2770 3770 
Q 2525 4250 2034 4250 
z
M 2034 4750 
Q 2819 4750 3233 4129 
Q 3647 3509 3647 2328 
Q 3647 1150 3233 529 
Q 2819 -91 2034 -91 
Q 1250 -91 836 529 
Q 422 1150 422 2328 
Q 422 3509 836 4129 
Q 1250 4750 2034 4750 
z
" id="DejaVuSans-30" transform="scale(0.015625)"/>
       </defs>
       <use xlink:href="#DejaVuSans-30"/>
      </g>
     </g>
    </g>
    <g id="xtick_2">
     <g id="text_2">
      <!-- 20000 -->
      <g style="fill:#262626;" transform="translate(159.466671 636.076563)scale(0.22 -0.22)">
       <defs>
        <path d="M 1228 531 
L 3431 531 
L 3431 0 
L 469 0 
L 469 531 
Q 828 903 1448 1529 
Q 2069 2156 2228 2338 
Q 2531 2678 2651 2914 
Q 2772 3150 2772 3378 
Q 2772 3750 2511 3984 
Q 2250 4219 1831 4219 
Q 1534 4219 1204 4116 
Q 875 4013 500 3803 
L 500 4441 
Q 881 4594 1212 4672 
Q 1544 4750 1819 4750 
Q 2544 4750 2975 4387 
Q 3406 4025 3406 3419 
Q 3406 3131 3298 2873 
Q 3191 2616 2906 2266 
Q 2828 2175 2409 1742 
Q 1991 1309 1228 531 
z
" id="DejaVuSans-32" transform="scale(0.015625)"/>
       </defs>
       <use xlink:href="#DejaVuSans-32"/>
       <use x="63.623047" xlink:href="#DejaVuSans-30"/>
       <use x="127.246094" xlink:href="#DejaVuSans-30"/>
       <use x="190.869141" xlink:href="#DejaVuSans-30"/>
       <use x="254.492188" xlink:href="#DejaVuSans-30"/>
      </g>
     </g>
    </g>
    <g id="xtick_3">
     <g id="text_3">
      <!-- 40000 -->
      <g style="fill:#262626;" transform="translate(247.287932 636.076563)scale(0.22 -0.22)">
       <defs>
        <path d="M 2419 4116 
L 825 1625 
L 2419 1625 
L 2419 4116 
z
M 2253 4666 
L 3047 4666 
L 3047 1625 
L 3713 1625 
L 3713 1100 
L 3047 1100 
L 3047 0 
L 2419 0 
L 2419 1100 
L 313 1100 
L 313 1709 
L 2253 4666 
z
" id="DejaVuSans-34" transform="scale(0.015625)"/>
       </defs>
       <use xlink:href="#DejaVuSans-34"/>
       <use x="63.623047" xlink:href="#DejaVuSans-30"/>
       <use x="127.246094" xlink:href="#DejaVuSans-30"/>
       <use x="190.869141" xlink:href="#DejaVuSans-30"/>
       <use x="254.492188" xlink:href="#DejaVuSans-30"/>
      </g>
     </g>
    </g>
    <g id="xtick_4">
     <g id="text_4">
      <!-- 60000 -->
      <g style="fill:#262626;" transform="translate(335.109193 636.076563)scale(0.22 -0.22)">
       <defs>
        <path d="M 2113 2584 
Q 1688 2584 1439 2293 
Q 1191 2003 1191 1497 
Q 1191 994 1439 701 
Q 1688 409 2113 409 
Q 2538 409 2786 701 
Q 3034 994 3034 1497 
Q 3034 2003 2786 2293 
Q 2538 2584 2113 2584 
z
M 3366 4563 
L 3366 3988 
Q 3128 4100 2886 4159 
Q 2644 4219 2406 4219 
Q 1781 4219 1451 3797 
Q 1122 3375 1075 2522 
Q 1259 2794 1537 2939 
Q 1816 3084 2150 3084 
Q 2853 3084 3261 2657 
Q 3669 2231 3669 1497 
Q 3669 778 3244 343 
Q 2819 -91 2113 -91 
Q 1303 -91 875 529 
Q 447 1150 447 2328 
Q 447 3434 972 4092 
Q 1497 4750 2381 4750 
Q 2619 4750 2861 4703 
Q 3103 4656 3366 4563 
z
" id="DejaVuSans-36" transform="scale(0.015625)"/>
       </defs>
       <use xlink:href="#DejaVuSans-36"/>
       <use x="63.623047" xlink:href="#DejaVuSans-30"/>
       <use x="127.246094" xlink:href="#DejaVuSans-30"/>
       <use x="190.869141" xlink:href="#DejaVuSans-30"/>
       <use x="254.492188" xlink:href="#DejaVuSans-30"/>
      </g>
     </g>
    </g>
    <g id="xtick_5">
     <g id="text_5">
      <!-- 80000 -->
      <g style="fill:#262626;" transform="translate(422.930455 636.076563)scale(0.22 -0.22)">
       <defs>
        <path d="M 2034 2216 
Q 1584 2216 1326 1975 
Q 1069 1734 1069 1313 
Q 1069 891 1326 650 
Q 1584 409 2034 409 
Q 2484 409 2743 651 
Q 3003 894 3003 1313 
Q 3003 1734 2745 1975 
Q 2488 2216 2034 2216 
z
M 1403 2484 
Q 997 2584 770 2862 
Q 544 3141 544 3541 
Q 544 4100 942 4425 
Q 1341 4750 2034 4750 
Q 2731 4750 3128 4425 
Q 3525 4100 3525 3541 
Q 3525 3141 3298 2862 
Q 3072 2584 2669 2484 
Q 3125 2378 3379 2068 
Q 3634 1759 3634 1313 
Q 3634 634 3220 271 
Q 2806 -91 2034 -91 
Q 1263 -91 848 271 
Q 434 634 434 1313 
Q 434 1759 690 2068 
Q 947 2378 1403 2484 
z
M 1172 3481 
Q 1172 3119 1398 2916 
Q 1625 2713 2034 2713 
Q 2441 2713 2670 2916 
Q 2900 3119 2900 3481 
Q 2900 3844 2670 4047 
Q 2441 4250 2034 4250 
Q 1625 4250 1398 4047 
Q 1172 3844 1172 3481 
z
" id="DejaVuSans-38" transform="scale(0.015625)"/>
       </defs>
       <use xlink:href="#DejaVuSans-38"/>
       <use x="63.623047" xlink:href="#DejaVuSans-30"/>
       <use x="127.246094" xlink:href="#DejaVuSans-30"/>
       <use x="190.869141" xlink:href="#DejaVuSans-30"/>
       <use x="254.492188" xlink:href="#DejaVuSans-30"/>
      </g>
     </g>
    </g>
    <g id="xtick_6">
     <g id="text_6">
      <!-- 100000 -->
      <g style="fill:#262626;" transform="translate(503.752966 636.076563)scale(0.22 -0.22)">
       <defs>
        <path d="M 794 531 
L 1825 531 
L 1825 4091 
L 703 3866 
L 703 4441 
L 1819 4666 
L 2450 4666 
L 2450 531 
L 3481 531 
L 3481 0 
L 794 0 
L 794 531 
z
" id="DejaVuSans-31" transform="scale(0.015625)"/>
       </defs>
       <use xlink:href="#DejaVuSans-31"/>
       <use x="63.623047" xlink:href="#DejaVuSans-30"/>
       <use x="127.246094" xlink:href="#DejaVuSans-30"/>
       <use x="190.869141" xlink:href="#DejaVuSans-30"/>
       <use x="254.492188" xlink:href="#DejaVuSans-30"/>
       <use x="318.115234" xlink:href="#DejaVuSans-30"/>
      </g>
     </g>
    </g>
    <g id="text_7">
     <!-- MDTU -->
     <g style="fill:#262626;" transform="translate(290.596464 662.888125)scale(0.24 -0.24)">
      <defs>
       <path d="M 628 4666 
L 1569 4666 
L 2759 1491 
L 3956 4666 
L 4897 4666 
L 4897 0 
L 4281 0 
L 4281 4097 
L 3078 897 
L 2444 897 
L 1241 4097 
L 1241 0 
L 628 0 
L 628 4666 
z
" id="DejaVuSans-4d" transform="scale(0.015625)"/>
       <path d="M 1259 4147 
L 1259 519 
L 2022 519 
Q 2988 519 3436 956 
Q 3884 1394 3884 2338 
Q 3884 3275 3436 3711 
Q 2988 4147 2022 4147 
L 1259 4147 
z
M 628 4666 
L 1925 4666 
Q 3281 4666 3915 4102 
Q 4550 3538 4550 2338 
Q 4550 1131 3912 565 
Q 3275 0 1925 0 
L 628 0 
L 628 4666 
z
" id="DejaVuSans-44" transform="scale(0.015625)"/>
       <path d="M -19 4666 
L 3928 4666 
L 3928 4134 
L 2272 4134 
L 2272 0 
L 1638 0 
L 1638 4134 
L -19 4134 
L -19 4666 
z
" id="DejaVuSans-54" transform="scale(0.015625)"/>
       <path d="M 556 4666 
L 1191 4666 
L 1191 1831 
Q 1191 1081 1462 751 
Q 1734 422 2344 422 
Q 2950 422 3222 751 
Q 3494 1081 3494 1831 
L 3494 4666 
L 4128 4666 
L 4128 1753 
Q 4128 841 3676 375 
Q 3225 -91 2344 -91 
Q 1459 -91 1007 375 
Q 556 841 556 1753 
L 556 4666 
z
" id="DejaVuSans-55" transform="scale(0.015625)"/>
      </defs>
      <use xlink:href="#DejaVuSans-4d"/>
      <use x="86.279297" xlink:href="#DejaVuSans-44"/>
      <use x="163.28125" xlink:href="#DejaVuSans-54"/>
      <use x="224.365234" xlink:href="#DejaVuSans-55"/>
     </g>
    </g>
   </g>
   <g id="matplotlib.axis_2">
    <g id="ytick_1">
     <g id="text_8">
      <!-- 0.5 -->
      <g style="fill:#262626;" transform="translate(34.4275 538.280533)scale(0.22 -0.22)">
       <defs>
        <path d="M 684 794 
L 1344 794 
L 1344 0 
L 684 0 
L 684 794 
z
" id="DejaVuSans-2e" transform="scale(0.015625)"/>
        <path d="M 691 4666 
L 3169 4666 
L 3169 4134 
L 1269 4134 
L 1269 2991 
Q 1406 3038 1543 3061 
Q 1681 3084 1819 3084 
Q 2600 3084 3056 2656 
Q 3513 2228 3513 1497 
Q 3513 744 3044 326 
Q 2575 -91 1722 -91 
Q 1428 -91 1123 -41 
Q 819 9 494 109 
L 494 744 
Q 775 591 1075 516 
Q 1375 441 1709 441 
Q 2250 441 2565 725 
Q 2881 1009 2881 1497 
Q 2881 1984 2565 2268 
Q 2250 2553 1709 2553 
Q 1456 2553 1204 2497 
Q 953 2441 691 2322 
L 691 4666 
z
" id="DejaVuSans-35" transform="scale(0.015625)"/>
       </defs>
       <use xlink:href="#DejaVuSans-30"/>
       <use x="63.623047" xlink:href="#DejaVuSans-2e"/>
       <use x="95.410156" xlink:href="#DejaVuSans-35"/>
      </g>
     </g>
    </g>
    <g id="ytick_2">
     <g id="text_9">
      <!-- 1.0 -->
      <g style="fill:#262626;" transform="translate(34.4275 447.447618)scale(0.22 -0.22)">
       <use xlink:href="#DejaVuSans-31"/>
       <use x="63.623047" xlink:href="#DejaVuSans-2e"/>
       <use x="95.410156" xlink:href="#DejaVuSans-30"/>
      </g>
     </g>
    </g>
    <g id="ytick_3">
     <g id="text_10">
      <!-- 1.5 -->
      <g style="fill:#262626;" transform="translate(34.4275 356.614703)scale(0.22 -0.22)">
       <use xlink:href="#DejaVuSans-31"/>
       <use x="63.623047" xlink:href="#DejaVuSans-2e"/>
       <use x="95.410156" xlink:href="#DejaVuSans-35"/>
      </g>
     </g>
    </g>
    <g id="ytick_4">
     <g id="text_11">
      <!-- 2.0 -->
      <g style="fill:#262626;" transform="translate(34.4275 265.781787)scale(0.22 -0.22)">
       <use xlink:href="#DejaVuSans-32"/>
       <use x="63.623047" xlink:href="#DejaVuSans-2e"/>
       <use x="95.410156" xlink:href="#DejaVuSans-30"/>
      </g>
     </g>
    </g>
    <g id="ytick_5">
     <g id="text_12">
      <!-- 2.5 -->
      <g style="fill:#262626;" transform="translate(34.4275 174.948872)scale(0.22 -0.22)">
       <use xlink:href="#DejaVuSans-32"/>
       <use x="63.623047" xlink:href="#DejaVuSans-2e"/>
       <use x="95.410156" xlink:href="#DejaVuSans-35"/>
      </g>
     </g>
    </g>
    <g id="text_13">
     <!-- $E$ -->
     <g style="fill:#262626;" transform="translate(25.43625 364.352286)rotate(-90)scale(0.24 -0.24)">
      <defs>
       <path d="M 1081 4666 
L 4031 4666 
L 3928 4134 
L 1606 4134 
L 1338 2753 
L 3566 2753 
L 3463 2222 
L 1234 2222 
L 909 531 
L 3284 531 
L 3181 0 
L 172 0 
L 1081 4666 
z
" id="DejaVuSans-Oblique-45" transform="scale(0.015625)"/>
      </defs>
      <use transform="translate(0 0.09375)" xlink:href="#DejaVuSans-Oblique-45"/>
     </g>
    </g>
   </g>
   <g id="line2d_1">
    <path clip-path="url(#p952264093d)" d="M 106.858713 484.001983 
L 107.078266 383.670652 
L 107.297819 371.840005 
L 107.956478 471.717538 
L 108.176032 383.998346 
L 108.395585 395.822924 
L 108.615138 363.64348 
L 108.834691 470.196565 
L 109.273797 515.847974 
L 109.712904 454.753847 
L 109.932457 510.004363 
L 110.15201 502.68723 
L 110.371563 476.982649 
L 110.591116 491.112398 
L 110.810669 393.223435 
L 111.030223 474.6056 
L 111.249776 415.673852 
L 111.469329 525.30573 
L 111.908435 467.514811 
L 112.127988 414.967318 
L 112.347541 397.878414 
L 112.567095 527.33603 
L 112.786648 518.007832 
L 113.006201 480.0358 
L 113.225754 416.325536 
L 113.445307 485.824513 
L 113.66486 406.237341 
L 113.884414 544.851946 
L 114.103967 529.62107 
L 114.32352 412.905007 
L 114.543073 493.57469 
L 114.982179 398.523953 
L 115.201732 499.984109 
L 115.421286 506.534336 
L 115.640839 412.234631 
L 115.860392 410.053015 
L 116.299498 545.604589 
L 116.519051 491.897434 
L 116.738605 285.355763 
L 117.177711 500.254002 
L 117.397264 490.69058 
L 117.616817 444.837235 
L 117.83637 531.685384 
L 118.275477 429.014566 
L 118.714583 503.633175 
L 118.934136 490.326572 
L 119.153689 405.282273 
L 119.373242 430.147877 
L 119.592796 504.023925 
L 119.812349 525.370629 
L 120.031902 413.398346 
L 120.251455 490.843974 
L 120.690561 361.067398 
L 120.910114 507.856171 
L 121.129668 536.342024 
L 121.349221 492.473093 
L 121.568774 545.525446 
L 121.788327 384.462469 
L 122.00788 464.35427 
L 122.227433 438.23886 
L 122.446987 544.239109 
L 122.66654 364.809959 
L 122.886093 520.683674 
L 123.105646 540.889593 
L 123.325199 536.442003 
L 123.544752 503.557336 
L 123.764305 367.470653 
L 123.983859 428.332193 
L 124.203412 401.913729 
L 124.422965 482.852273 
L 124.642518 475.715071 
L 124.862071 523.76139 
L 125.081624 284.023366 
L 125.301178 455.858027 
L 125.520731 449.926861 
L 125.740284 439.38518 
L 125.959837 547.188054 
L 126.17939 309.829725 
L 126.398943 481.857554 
L 126.618496 508.281711 
L 126.83805 478.983669 
L 127.057603 336.376282 
L 127.277156 504.022834 
L 127.496709 507.551489 
L 127.716262 461.370661 
L 128.155369 538.032764 
L 128.374922 526.0589 
L 128.594475 360.33147 
L 128.814028 513.109098 
L 129.033581 518.593518 
L 129.253134 465.345377 
L 129.472687 532.846743 
L 129.692241 441.545385 
L 129.911794 449.290442 
L 130.131347 475.452285 
L 130.3509 452.521709 
L 130.790006 361.511567 
L 131.00956 517.428392 
L 131.229113 535.264126 
L 131.448666 505.904533 
L 131.668219 570.466921 
L 131.887772 542.129227 
L 132.107325 497.801108 
L 132.326878 482.983898 
L 132.546432 504.181119 
L 132.765985 465.983497 
L 132.985538 491.797071 
L 133.205091 405.476221 
L 133.424644 556.894924 
L 133.863751 522.05368 
L 134.083304 544.273727 
L 134.302857 416.690219 
L 134.52241 529.511765 
L 134.961516 486.349684 
L 135.181069 490.525497 
L 135.400623 468.728577 
L 135.839729 444.757433 
L 136.059282 393.590334 
L 136.498388 516.374776 
L 136.717941 506.541043 
L 136.937495 531.304397 
L 137.157048 470.228997 
L 137.376601 489.014496 
L 137.596154 438.309585 
L 137.815707 416.149173 
L 138.03526 451.045281 
L 138.254814 405.908167 
L 138.69392 488.367965 
L 138.913473 390.621271 
L 139.133026 491.902576 
L 139.352579 384.579426 
L 139.572132 538.539346 
L 139.791686 485.986656 
L 140.011239 474.318278 
L 140.230792 365.542709 
L 140.450345 395.379345 
L 140.669898 368.45868 
L 140.889451 485.815164 
L 141.109005 521.063146 
L 141.548111 441.153714 
L 141.987217 520.081349 
L 142.20677 335.937078 
L 142.645877 554.196063 
L 142.86543 334.731263 
L 143.084983 548.65963 
L 143.304536 534.50877 
L 143.524089 458.750927 
L 143.743642 522.140865 
L 143.963196 521.745585 
L 144.182749 482.020257 
L 144.402302 507.973187 
L 144.621855 493.378482 
L 144.841408 535.155294 
L 145.060961 535.572619 
L 145.280514 495.10598 
L 145.500068 418.073146 
L 145.939174 537.150302 
L 146.158727 485.069365 
L 146.37828 529.967012 
L 146.597833 527.655193 
L 146.817387 403.569913 
L 147.03694 431.081687 
L 147.256493 489.173591 
L 147.476046 494.826503 
L 147.695599 506.165559 
L 147.915152 541.799908 
L 148.134705 470.959279 
L 148.354259 553.704039 
L 148.573812 397.456669 
L 148.793365 421.757139 
L 149.012918 497.386015 
L 149.232471 485.753086 
L 149.452024 480.549139 
L 149.671578 445.336734 
L 149.891131 468.78128 
L 150.110684 535.749279 
L 150.54979 500.62973 
L 150.769343 444.411046 
L 150.988896 449.238023 
L 151.20845 529.767788 
L 151.428003 430.301714 
L 151.647556 523.44658 
L 151.867109 421.897418 
L 152.086662 461.128666 
L 152.306215 472.510145 
L 152.525769 530.367797 
L 152.964875 507.422055 
L 153.184428 509.840249 
L 153.403981 428.92148 
L 153.623534 499.472383 
L 153.843087 525.388721 
L 154.062641 465.260799 
L 154.282194 485.830353 
L 154.501747 439.690029 
L 154.7213 549.637489 
L 155.160406 474.118272 
L 155.37996 528.223266 
L 155.599513 472.911903 
L 155.819066 349.573459 
L 156.258172 527.498827 
L 156.477725 452.21718 
L 156.697278 491.731724 
L 156.916832 503.683775 
L 157.136385 440.788999 
L 157.355938 545.324337 
L 157.575491 519.096873 
L 157.795044 426.563501 
L 158.014597 488.694537 
L 158.234151 256.328152 
L 158.453704 484.879516 
L 158.673257 418.582546 
L 158.89281 529.495138 
L 159.112363 532.286095 
L 159.331916 407.241356 
L 159.551469 506.52748 
L 159.771023 478.680828 
L 159.990576 465.798476 
L 160.429682 538.573777 
L 160.649235 521.424143 
L 160.868788 398.203714 
L 161.088342 430.901613 
L 161.307895 516.119923 
L 161.527448 445.680298 
L 161.747001 470.256057 
L 162.186107 482.910847 
L 162.40566 506.842863 
L 162.625214 429.309119 
L 162.844767 431.261012 
L 163.06432 500.891294 
L 163.283873 441.769733 
L 163.503426 524.665702 
L 163.722979 383.726203 
L 163.942532 571.175408 
L 164.162086 514.457569 
L 164.381639 406.986924 
L 164.601192 436.884558 
L 164.820745 509.443624 
L 165.040298 502.7186 
L 165.259851 445.742519 
L 165.479405 524.587517 
L 165.918511 384.101609 
L 166.138064 517.97115 
L 166.357617 508.261523 
L 166.796723 453.691554 
L 167.016277 493.364951 
L 167.23583 499.245756 
L 167.455383 466.21687 
L 167.674936 463.080428 
L 167.894489 527.836594 
L 168.114042 494.248654 
L 168.333596 482.618334 
L 168.553149 511.585615 
L 168.772702 524.70245 
L 168.992255 513.130569 
L 169.211808 511.933781 
L 169.431361 530.164894 
L 169.650914 529.271843 
L 169.870468 547.263724 
L 170.090021 503.676882 
L 170.309574 405.307913 
L 170.529127 401.516049 
L 170.74868 437.49317 
L 170.968233 450.383026 
L 171.187787 425.450829 
L 171.40734 518.769275 
L 171.626893 474.473493 
L 171.846446 469.14918 
L 172.065999 544.036347 
L 172.505105 453.258201 
L 172.724659 479.308481 
L 172.944212 457.205366 
L 173.163765 514.518853 
L 173.383318 510.345767 
L 173.602871 491.39846 
L 173.822424 420.236076 
L 174.041978 447.773418 
L 174.261531 531.698655 
L 174.481084 456.497845 
L 174.700637 537.364175 
L 174.92019 459.698968 
L 175.139743 553.250354 
L 175.359296 474.357498 
L 175.57885 490.895834 
L 175.798403 534.71138 
L 176.017956 517.383284 
L 176.237509 399.11068 
L 176.457062 501.616242 
L 176.676615 494.282757 
L 176.896169 472.933664 
L 177.115722 423.316839 
L 177.335275 516.604084 
L 177.554828 496.026969 
L 177.774381 545.943345 
L 177.993934 471.40595 
L 178.213487 442.555225 
L 178.433041 372.069374 
L 178.652594 474.247259 
L 178.872147 435.521836 
L 179.0917 433.015872 
L 179.311253 461.064655 
L 179.530806 428.554392 
L 179.75036 482.141714 
L 179.969913 500.337939 
L 180.189466 486.292159 
L 180.409019 492.964665 
L 180.628572 447.287379 
L 180.848125 488.816443 
L 181.067678 468.024177 
L 181.287232 533.302334 
L 181.506785 557.607975 
L 181.726338 526.252746 
L 181.945891 523.024957 
L 182.165444 288.715022 
L 182.384997 427.823699 
L 182.604551 458.776502 
L 182.824104 464.708262 
L 183.043657 484.826005 
L 183.26321 243.530008 
L 183.482763 455.880181 
L 183.702316 514.894047 
L 183.921869 480.693937 
L 184.360976 552.861136 
L 184.580529 520.233434 
L 184.800082 422.991688 
L 185.019635 476.688662 
L 185.239188 498.083761 
L 185.458742 501.417826 
L 185.678295 502.379087 
L 185.897848 483.799681 
L 186.117401 447.943378 
L 186.336954 466.815983 
L 186.556507 525.122998 
L 186.77606 449.942594 
L 186.995614 434.247262 
L 187.215167 515.710318 
L 187.43472 501.626787 
L 187.654273 509.128751 
L 187.873826 543.18071 
L 188.093379 539.203034 
L 188.312932 516.52541 
L 188.532486 473.132835 
L 188.752039 560.143458 
L 188.971592 506.127462 
L 189.191145 499.590073 
L 189.410698 518.10619 
L 189.630251 414.110335 
L 189.849805 486.372448 
L 190.069358 268.46952 
L 190.288911 419.294319 
L 190.508464 331.634951 
L 190.728017 510.257444 
L 190.94757 439.331643 
L 191.167123 498.679338 
L 191.386677 476.361088 
L 191.60623 503.009744 
L 191.825783 411.092348 
L 192.045336 431.656036 
L 192.264889 488.911841 
L 192.484442 428.027074 
L 192.703996 512.032019 
L 192.923549 482.866607 
L 193.143102 423.728195 
L 193.362655 475.814074 
L 193.582208 473.191956 
L 193.801761 542.229071 
L 194.021314 475.033123 
L 194.240868 493.733316 
L 194.460421 471.186089 
L 194.679974 431.524209 
L 195.11908 513.063498 
L 195.338633 469.340123 
L 195.558187 460.921021 
L 195.77774 400.544358 
L 195.997293 502.07758 
L 196.216846 529.722637 
L 196.436399 541.281877 
L 196.655952 415.842671 
L 196.875505 443.056079 
L 197.095059 515.446231 
L 197.314612 357.616531 
L 197.534165 554.257665 
L 197.753718 525.733737 
L 197.973271 248.114666 
L 198.412378 541.273823 
L 198.631931 453.342832 
L 198.851484 517.619701 
L 199.071037 485.124819 
L 199.29059 504.906556 
L 199.510143 315.223395 
L 199.729696 441.837171 
L 199.94925 424.178357 
L 200.168803 546.778019 
L 200.388356 441.696932 
L 200.607909 500.118326 
L 200.827462 493.468959 
L 201.047015 400.618122 
L 201.486122 541.347415 
L 201.705675 457.571476 
L 201.925228 529.742643 
L 202.144781 491.796565 
L 202.364334 474.726483 
L 202.583887 472.042204 
L 202.803441 515.685501 
L 203.022994 435.65468 
L 203.242547 486.760401 
L 203.4621 322.018948 
L 203.681653 462.924156 
L 203.901206 420.813547 
L 204.12076 475.052523 
L 204.340313 488.044852 
L 204.559866 511.651976 
L 204.779419 465.359415 
L 204.998972 498.96956 
L 205.218525 408.882264 
L 205.438078 469.439417 
L 205.657632 467.619771 
L 205.877185 492.396579 
L 206.096738 497.892327 
L 206.316291 494.55581 
L 206.535844 542.087903 
L 206.974951 491.100826 
L 207.194504 445.557757 
L 207.414057 481.945324 
L 207.63361 495.809424 
L 207.853163 396.026092 
L 208.072716 507.91596 
L 208.292269 495.220751 
L 208.511823 496.242127 
L 208.731376 461.111917 
L 208.950929 478.989375 
L 209.170482 465.568847 
L 209.390035 426.516526 
L 209.609588 447.881149 
L 209.829142 509.698886 
L 210.048695 459.773654 
L 210.487801 425.674055 
L 210.707354 434.936467 
L 210.926907 508.139975 
L 211.14646 535.195082 
L 211.366014 327.374274 
L 211.585567 463.82338 
L 211.80512 511.282277 
L 212.024673 500.457844 
L 212.244226 408.112779 
L 212.463779 538.282457 
L 212.902886 371.418069 
L 213.122439 509.843861 
L 213.341992 549.201629 
L 213.561545 432.185976 
L 213.781098 490.133071 
L 214.000651 447.836208 
L 214.220205 475.194568 
L 214.439758 537.143131 
L 214.659311 534.409975 
L 214.878864 393.856241 
L 215.098417 561.632023 
L 215.31797 420.205058 
L 215.537523 466.904538 
L 215.757077 468.02337 
L 215.97663 442.915364 
L 216.196183 514.853322 
L 216.415736 394.317114 
L 216.635289 413.648417 
L 217.074396 551.128257 
L 217.293949 498.101974 
L 217.513502 411.668546 
L 217.733055 555.910128 
L 217.952608 432.283579 
L 218.172161 498.015725 
L 218.391714 428.104927 
L 218.611268 517.114663 
L 218.830821 325.71208 
L 219.269927 542.442537 
L 219.48948 487.80711 
L 219.709033 496.161992 
L 219.928587 434.296662 
L 220.14814 503.987335 
L 220.367693 491.848766 
L 220.587246 398.336627 
L 220.806799 437.01449 
L 221.026352 448.124593 
L 221.245905 411.929047 
L 221.465459 495.694403 
L 221.685012 514.625522 
L 221.904565 453.628793 
L 222.124118 552.33204 
L 222.782778 385.402985 
L 223.002331 521.018841 
L 223.221884 477.139638 
L 223.441437 481.999067 
L 223.66099 464.192146 
L 223.880543 484.29205 
L 224.100096 493.897039 
L 224.31965 536.389284 
L 224.539203 535.518611 
L 224.758756 495.053438 
L 224.978309 429.454037 
L 225.197862 510.718495 
L 225.417415 428.245885 
L 225.636969 396.21218 
L 225.856522 131.956182 
L 226.076075 545.640198 
L 226.295628 439.412952 
L 226.515181 427.25875 
L 226.734734 492.10187 
L 226.954287 468.507625 
L 227.173841 503.178284 
L 227.393394 503.377951 
L 227.612947 470.706987 
L 227.8325 534.459707 
L 228.052053 548.93028 
L 228.49116 455.950029 
L 228.710713 456.923836 
L 228.930266 503.002773 
L 229.369372 435.631056 
L 229.588925 514.84879 
L 229.808478 399.339235 
L 230.028032 439.567304 
L 230.247585 431.525428 
L 230.467138 522.770566 
L 230.686691 435.626573 
L 230.906244 471.826746 
L 231.125797 549.033242 
L 231.345351 517.211141 
L 231.564904 554.266753 
L 231.784457 425.170861 
L 232.00401 384.171182 
L 232.223563 423.497559 
L 232.443116 528.38294 
L 232.662669 476.146976 
L 233.101776 520.698147 
L 233.321329 561.150653 
L 233.540882 464.576986 
L 233.760435 420.281834 
L 233.979988 524.650204 
L 234.199542 509.444263 
L 234.419095 504.146864 
L 234.638648 575.350927 
L 235.077754 501.884449 
L 235.297307 528.466684 
L 235.51686 506.407153 
L 235.736414 425.108792 
L 235.955967 507.380822 
L 236.17552 418.820283 
L 236.395073 526.961076 
L 236.834179 403.931967 
L 237.053733 477.093468 
L 237.273286 496.285289 
L 237.492839 481.449913 
L 237.712392 539.889958 
L 237.931945 478.330716 
L 238.151498 515.630147 
L 238.371051 480.323869 
L 238.590605 368.531893 
L 239.029711 543.330935 
L 239.468817 358.544191 
L 239.68837 491.546404 
L 239.907924 426.075342 
L 240.127477 504.241267 
L 240.34703 411.310536 
L 240.566583 204.712791 
L 240.786136 476.588382 
L 241.005689 502.452299 
L 241.225242 500.312842 
L 241.444796 448.862993 
L 241.664349 367.027911 
L 242.103455 546.952524 
L 242.323008 397.304422 
L 242.762114 538.692469 
L 242.981668 472.951788 
L 243.201221 510.291394 
L 243.640327 467.106397 
L 243.85988 498.734284 
L 244.079433 513.851339 
L 244.298987 401.212399 
L 244.51854 461.860295 
L 244.738093 458.49322 
L 244.957646 352.086035 
L 245.177199 356.917797 
L 245.396752 380.518511 
L 245.616305 543.782996 
L 245.835859 518.566846 
L 246.055412 419.966586 
L 246.274965 442.896427 
L 246.494518 552.578984 
L 246.714071 520.257711 
L 246.933624 538.757052 
L 247.372731 412.264288 
L 247.811837 488.390235 
L 248.03139 514.580571 
L 248.250943 400.759801 
L 248.470496 538.429216 
L 248.69005 493.859208 
L 248.909603 512.352147 
L 249.129156 509.91139 
L 249.348709 471.015657 
L 249.568262 458.041571 
L 249.787815 550.800375 
L 250.007369 400.064545 
L 250.446475 520.684909 
L 250.666028 504.776255 
L 250.885581 473.746968 
L 251.105134 515.08217 
L 251.324687 514.372136 
L 251.544241 434.94464 
L 251.763794 481.593528 
L 251.983347 481.66902 
L 252.2029 408.066389 
L 252.422453 477.686374 
L 252.642006 484.714294 
L 252.86156 463.274308 
L 253.081113 459.737247 
L 253.520219 541.254068 
L 253.739772 542.414666 
L 253.959325 503.607144 
L 254.398432 539.438452 
L 254.617985 526.392548 
L 254.837538 478.593423 
L 255.057091 558.75863 
L 255.276644 536.302776 
L 255.715751 462.753312 
L 256.154857 524.759936 
L 256.37441 372.821765 
L 256.813516 537.759858 
L 257.033069 462.323289 
L 257.252623 541.187197 
L 257.472176 501.397699 
L 257.691729 508.764009 
L 257.911282 463.583671 
L 258.130835 473.851222 
L 258.350388 450.464013 
L 258.569942 581.38839 
L 258.789495 526.168575 
L 259.009048 402.276553 
L 259.228601 505.57674 
L 259.448154 459.619267 
L 259.667707 279.234675 
L 259.88726 498.029015 
L 260.106814 498.478268 
L 260.326367 459.663027 
L 260.54592 456.858967 
L 260.765473 553.411736 
L 260.985026 410.917536 
L 261.204579 580.62052 
L 261.424133 525.230276 
L 261.643686 359.865616 
L 261.863239 494.581779 
L 262.082792 539.960897 
L 262.302345 489.191283 
L 262.521898 551.870072 
L 262.741451 468.828283 
L 262.961005 502.842383 
L 263.180558 507.884389 
L 263.400111 504.283653 
L 263.619664 463.822119 
L 263.839217 543.686265 
L 264.278324 415.448052 
L 264.497877 514.29337 
L 264.71743 473.651422 
L 264.936983 528.426694 
L 265.156536 529.317041 
L 265.376089 516.886896 
L 265.595642 525.722757 
L 265.815196 422.101497 
L 266.254302 498.017263 
L 266.473855 469.375005 
L 266.693408 525.647413 
L 266.912961 412.084998 
L 267.132514 508.731681 
L 267.352068 488.251258 
L 267.571621 532.237782 
L 267.791174 509.771179 
L 268.010727 432.564869 
L 268.23028 484.856908 
L 268.449833 439.910262 
L 268.669387 476.160955 
L 268.88894 454.388472 
L 269.108493 544.048542 
L 269.328046 471.007014 
L 269.547599 560.481157 
L 269.986705 409.083721 
L 270.206259 419.784124 
L 270.425812 523.656995 
L 270.645365 436.073305 
L 270.864918 482.547079 
L 271.084471 475.617546 
L 271.304024 551.902242 
L 271.743131 347.374247 
L 271.962684 426.651691 
L 272.40179 482.20287 
L 272.621343 442.134637 
L 272.840896 473.331652 
L 273.06045 479.692149 
L 273.280003 357.048883 
L 273.499556 514.746171 
L 273.719109 521.195907 
L 273.938662 490.38143 
L 274.377769 479.384855 
L 274.597322 477.50901 
L 274.816875 516.291538 
L 275.036428 486.868233 
L 275.255981 504.824609 
L 275.475534 449.020772 
L 275.695087 463.490442 
L 275.914641 552.191372 
L 276.134194 537.370433 
L 276.353747 514.447801 
L 276.5733 446.75874 
L 277.012406 490.74495 
L 277.23196 519.389836 
L 277.451513 394.118883 
L 277.671066 531.536052 
L 277.890619 456.769043 
L 278.110172 448.642998 
L 278.329725 523.347085 
L 278.549278 518.619468 
L 278.768832 559.688285 
L 278.988385 533.294201 
L 279.207938 525.475619 
L 279.647044 333.308971 
L 279.866597 451.900655 
L 280.086151 468.686398 
L 280.305704 505.329025 
L 280.525257 491.423258 
L 280.74481 401.644165 
L 280.964363 518.725263 
L 281.183916 464.021115 
L 281.403469 548.97632 
L 282.062129 455.925401 
L 282.281682 528.553949 
L 282.501235 516.875771 
L 282.720788 420.415802 
L 282.940342 512.982535 
L 283.379448 456.224056 
L 283.599001 464.822838 
L 283.818554 460.368003 
L 284.038107 374.580715 
L 284.25766 490.646862 
L 284.477214 543.275829 
L 284.696767 565.244602 
L 284.91632 464.195596 
L 285.135873 535.771108 
L 285.574979 403.048338 
L 285.794533 518.734884 
L 286.014086 510.610189 
L 286.233639 456.127999 
L 286.453192 517.461792 
L 286.672745 535.175142 
L 286.892298 518.182687 
L 287.111851 429.746755 
L 287.331405 444.541965 
L 287.550958 473.023035 
L 287.770511 483.18431 
L 287.990064 472.843553 
L 288.209617 456.1195 
L 288.42917 552.846916 
L 288.648724 541.757085 
L 288.868277 509.966072 
L 289.08783 530.693589 
L 289.307383 497.426766 
L 289.526936 488.041696 
L 289.746489 503.212064 
L 289.966042 311.721106 
L 290.185596 548.531643 
L 290.405149 525.915742 
L 290.624702 445.860933 
L 290.844255 436.102447 
L 291.063808 510.211754 
L 291.283361 310.297136 
L 291.722468 500.057324 
L 291.942021 332.412837 
L 292.161574 537.858067 
L 292.60068 474.120507 
L 292.820233 413.815111 
L 293.25934 487.759847 
L 293.478893 468.022403 
L 293.698446 486.415941 
L 293.917999 454.409669 
L 294.137552 521.634511 
L 294.357105 494.206534 
L 294.576659 304.390845 
L 294.796212 461.872348 
L 295.015765 505.688241 
L 295.235318 316.761427 
L 295.454871 483.77101 
L 295.674424 520.975225 
L 295.893978 519.019289 
L 296.113531 521.75581 
L 296.552637 438.312854 
L 296.77219 457.964578 
L 296.991743 346.560078 
L 297.211296 481.488865 
L 297.43085 520.745665 
L 297.869956 503.463727 
L 298.089509 450.531165 
L 298.309062 351.440644 
L 298.528615 489.499505 
L 298.748169 521.529939 
L 298.967722 376.404798 
L 299.187275 463.845597 
L 299.406828 471.933141 
L 299.626381 536.953996 
L 299.845934 462.26457 
L 300.065487 427.798248 
L 300.285041 495.670266 
L 300.504594 441.180243 
L 300.724147 504.572948 
L 300.9437 403.762449 
L 301.163253 490.691053 
L 301.382806 483.376321 
L 301.60236 501.59461 
L 301.821913 545.822556 
L 302.480572 485.037339 
L 302.700125 522.240487 
L 302.919678 507.705578 
L 303.139232 482.55505 
L 303.358785 391.335507 
L 303.578338 469.772014 
L 303.797891 266.01878 
L 304.017444 262.412085 
L 304.236997 437.301872 
L 304.676104 550.825664 
L 304.895657 446.923893 
L 305.11521 515.414856 
L 305.334763 492.808185 
L 305.554316 405.597106 
L 305.773869 510.045556 
L 305.993423 447.774771 
L 306.432529 542.598589 
L 306.652082 452.726373 
L 306.871635 475.346127 
L 307.091188 452.163719 
L 307.310742 551.945569 
L 307.530295 534.258244 
L 307.749848 501.720212 
L 308.188954 355.543013 
L 308.408507 353.221134 
L 308.62806 515.892662 
L 309.067167 443.06332 
L 309.28672 510.614249 
L 309.506273 420.939362 
L 309.725826 566.316124 
L 309.945379 460.268349 
L 310.164933 448.193276 
L 310.384486 342.849474 
L 310.604039 463.304744 
L 310.823592 490.325688 
L 311.043145 417.468168 
L 311.262698 497.663823 
L 311.482251 381.500843 
L 311.701805 514.138112 
L 311.921358 474.289509 
L 312.140911 389.349592 
L 312.360464 501.764343 
L 312.580017 510.721189 
L 312.79957 483.257588 
L 313.019124 419.702829 
L 313.238677 509.578804 
L 313.45823 423.890409 
L 313.677783 529.79575 
L 313.897336 508.696724 
L 314.116889 412.359391 
L 314.336442 521.456926 
L 314.555996 456.835124 
L 314.775549 446.07334 
L 315.214655 526.799137 
L 315.653761 484.612177 
L 315.873315 485.873689 
L 316.092868 516.223786 
L 316.312421 485.508294 
L 316.531974 517.151728 
L 316.751527 531.322949 
L 316.97108 431.163365 
L 317.190633 542.679498 
L 317.62974 500.298626 
L 317.849293 544.594193 
L 318.288399 445.500699 
L 318.507952 492.97196 
L 318.727506 440.810861 
L 319.166612 555.344697 
L 319.386165 431.518722 
L 319.605718 569.370275 
L 319.825271 457.173982 
L 320.044824 539.588814 
L 320.483931 379.347131 
L 320.703484 506.027322 
L 320.923037 445.009772 
L 321.14259 252.945895 
L 321.362143 538.418054 
L 321.581696 436.159073 
L 321.80125 520.822942 
L 322.020803 505.231585 
L 322.240356 545.270695 
L 322.459909 526.189997 
L 322.679462 527.218965 
L 322.899015 516.061714 
L 323.118569 515.386228 
L 323.557675 469.191054 
L 323.777228 388.312932 
L 323.996781 491.362694 
L 324.216334 419.727849 
L 324.435887 528.300151 
L 324.655441 340.438454 
L 325.094547 498.821942 
L 325.3141 497.661928 
L 325.753206 543.893322 
L 325.97276 473.863568 
L 326.192313 341.649606 
L 326.411866 501.573502 
L 326.850972 409.034473 
L 327.070525 541.930543 
L 327.509632 457.66505 
L 327.729185 524.782653 
L 327.948738 399.618505 
L 328.168291 525.643084 
L 328.387844 421.130445 
L 328.607397 424.552957 
L 328.826951 531.323247 
L 329.046504 456.756213 
L 329.266057 509.908219 
L 329.48561 495.52424 
L 329.705163 470.581087 
L 329.924716 468.272111 
L 330.144269 526.750145 
L 330.363823 464.851483 
L 330.583376 520.15564 
L 330.802929 467.329189 
L 331.022482 458.409105 
L 331.242035 505.641869 
L 331.461588 427.303844 
L 331.900695 521.692808 
L 332.120248 519.284427 
L 332.339801 495.087375 
L 332.778907 427.425384 
L 332.99846 450.841803 
L 333.218014 487.154176 
L 333.437567 308.497667 
L 333.65712 531.050317 
L 333.876673 330.020607 
L 334.096226 459.214974 
L 334.535333 552.545147 
L 334.754886 284.965337 
L 334.974439 465.606236 
L 335.193992 426.35782 
L 335.413545 463.046581 
L 335.633098 350.891195 
L 335.852651 477.255882 
L 336.072205 500.554661 
L 336.291758 469.672421 
L 336.511311 404.79673 
L 336.730864 424.962638 
L 336.950417 527.673776 
L 337.16997 429.565037 
L 337.389524 486.700595 
L 337.609077 265.280459 
L 337.82863 515.774215 
L 338.048183 529.602879 
L 338.706842 400.183996 
L 339.145949 556.393758 
L 339.585055 507.072237 
L 339.804608 517.206295 
L 340.024161 514.867376 
L 340.463268 440.060509 
L 340.682821 468.064841 
L 340.902374 408.129911 
L 341.121927 529.380176 
L 341.34148 360.590191 
L 341.561033 545.414595 
L 341.780587 448.231682 
L 342.219693 537.52805 
L 342.658799 425.71529 
L 342.878352 546.581657 
L 343.097906 474.844912 
L 343.317459 504.105405 
L 343.537012 341.737735 
L 343.756565 488.760588 
L 343.976118 463.797869 
L 344.195671 358.91892 
L 344.634778 500.061142 
L 344.854331 530.572492 
L 345.073884 424.05977 
L 345.293437 411.442703 
L 345.51299 528.363514 
L 345.732543 461.655991 
L 345.952096 527.601757 
L 346.17165 481.003077 
L 346.391203 491.828486 
L 346.610756 420.431192 
L 346.830309 500.979778 
L 347.049862 487.265907 
L 347.269415 441.507921 
L 347.708522 555.40426 
L 347.928075 441.423715 
L 348.147628 546.711077 
L 348.367181 527.736097 
L 348.586734 394.70783 
L 348.806287 524.583663 
L 349.025841 507.565383 
L 349.245394 525.750143 
L 349.464947 405.604768 
L 349.6845 492.509863 
L 349.904053 348.356893 
L 350.123606 510.996176 
L 350.34316 479.248815 
L 350.562713 496.859085 
L 350.782266 528.342856 
L 351.001819 367.900027 
L 351.221372 528.030587 
L 351.440925 394.788291 
L 351.660478 487.759854 
L 352.099585 375.671072 
L 352.319138 482.766616 
L 352.538691 506.456289 
L 352.758244 556.76043 
L 352.977797 518.850962 
L 353.416904 404.908536 
L 353.636457 498.861121 
L 353.85601 355.002984 
L 354.075563 473.239607 
L 354.295116 398.542001 
L 354.514669 463.585133 
L 354.953776 490.747287 
L 355.173329 533.76416 
L 355.392882 539.679255 
L 355.612435 577.028647 
L 356.051542 368.897459 
L 356.271095 477.04108 
L 356.490648 332.410402 
L 356.710201 518.485861 
L 356.929754 424.336331 
L 357.149307 461.874742 
L 357.36886 434.497393 
L 357.588414 460.234213 
L 357.807967 538.782318 
L 358.02752 438.723818 
L 358.247073 444.079435 
L 358.466626 488.263709 
L 358.686179 504.003476 
L 359.125286 416.925964 
L 359.344839 487.661268 
L 359.564392 432.382626 
L 359.783945 454.511088 
L 360.003498 448.669174 
L 360.223051 541.963347 
L 360.442605 512.022353 
L 360.662158 421.459936 
L 360.881711 474.530118 
L 361.320817 411.524873 
L 361.54037 487.493833 
L 361.759924 494.706064 
L 361.979477 518.081814 
L 362.19903 492.008167 
L 362.418583 549.219135 
L 362.638136 490.619219 
L 363.077242 553.219384 
L 363.516349 440.116126 
L 363.735902 474.986702 
L 363.955455 418.02835 
L 364.175008 496.654904 
L 364.394561 378.189081 
L 364.614115 392.91737 
L 364.833668 511.664143 
L 365.053221 514.427554 
L 365.272774 389.947329 
L 365.492327 516.53522 
L 365.71188 439.620277 
L 366.150987 511.969557 
L 366.37054 469.27976 
L 366.590093 544.58467 
L 366.809646 477.921157 
L 367.029199 495.943402 
L 367.248752 438.005377 
L 367.468306 528.241419 
L 367.687859 508.827602 
L 367.907412 410.541228 
L 368.346518 489.568668 
L 368.566071 497.022019 
L 368.785624 422.093823 
L 369.005178 504.318644 
L 369.224731 508.431379 
L 369.444284 398.893649 
L 369.663837 482.551838 
L 369.88339 291.59084 
L 370.102943 521.264334 
L 370.322497 438.135266 
L 370.54205 455.793144 
L 370.761603 419.656281 
L 371.200709 529.942946 
L 371.420262 518.816105 
L 371.639815 496.945887 
L 371.859369 425.678488 
L 372.078922 512.257816 
L 372.298475 480.002517 
L 372.518028 408.948521 
L 372.737581 513.303059 
L 372.957134 530.739284 
L 373.176687 557.854566 
L 373.396241 430.896525 
L 373.835347 475.394315 
L 374.0549 292.068386 
L 374.274453 498.528924 
L 374.494006 417.368732 
L 374.71356 493.851909 
L 374.933113 510.839579 
L 375.152666 502.120699 
L 375.372219 437.013263 
L 375.591772 441.01456 
L 375.811325 517.872991 
L 376.030878 385.129104 
L 376.250432 553.814213 
L 376.689538 530.091275 
L 376.909091 485.892539 
L 377.128644 532.920744 
L 377.348197 484.282244 
L 377.787304 525.814944 
L 378.006857 514.666085 
L 378.22641 486.481248 
L 378.445963 505.420446 
L 378.885069 498.285807 
L 379.104623 522.688053 
L 379.324176 470.016891 
L 379.543729 457.831437 
L 379.763282 388.58129 
L 379.982835 537.333034 
L 380.202388 493.141351 
L 380.421942 496.093046 
L 380.861048 419.065583 
L 381.080601 362.01186 
L 381.300154 405.425398 
L 381.519707 498.099336 
L 381.73926 535.244455 
L 381.958814 482.742026 
L 382.178367 528.126809 
L 382.39792 518.600364 
L 382.617473 426.508551 
L 382.837026 512.801926 
L 383.056579 305.523983 
L 383.495686 486.936351 
L 383.715239 421.267111 
L 383.934792 439.793042 
L 384.154345 402.217589 
L 384.373898 537.374194 
L 384.593451 476.841352 
L 384.813005 459.660178 
L 385.032558 417.061519 
L 385.252111 440.291517 
L 385.471664 525.734081 
L 385.691217 504.126297 
L 385.91077 514.893783 
L 386.130324 465.458599 
L 386.349877 441.369595 
L 386.56943 516.692256 
L 386.788983 477.565949 
L 387.008536 417.559468 
L 387.228089 391.818561 
L 387.447642 529.549441 
L 387.667196 541.851154 
L 387.886749 463.681056 
L 388.106302 498.629045 
L 388.325855 318.080864 
L 388.545408 453.708901 
L 388.764961 421.460519 
L 388.984515 513.519825 
L 389.204068 398.643426 
L 389.423621 498.315859 
L 389.643174 521.627927 
L 389.862727 324.957237 
L 390.08228 447.431762 
L 390.301833 391.710092 
L 390.521387 509.953386 
L 390.74094 423.477623 
L 390.960493 523.486756 
L 391.399599 419.560875 
L 391.619152 521.138418 
L 391.838706 515.585534 
L 392.058259 457.311089 
L 392.277812 452.842964 
L 392.497365 549.196798 
L 392.716918 447.557499 
L 392.936471 486.811037 
L 393.156024 403.764695 
L 393.595131 454.824057 
L 393.814684 578.005213 
L 394.473343 427.429559 
L 394.692897 525.91143 
L 394.91245 549.835577 
L 395.132003 461.507912 
L 395.351556 547.004894 
L 395.571109 513.087319 
L 395.790662 515.837913 
L 396.010215 520.416224 
L 396.229769 412.779811 
L 396.449322 559.961655 
L 396.668875 464.625027 
L 396.888428 468.033836 
L 397.107981 551.919512 
L 397.327534 553.909917 
L 397.547087 342.028591 
L 397.766641 504.441092 
L 398.205747 453.907457 
L 398.4253 487.951222 
L 398.644853 454.902957 
L 398.864406 505.869026 
L 399.08396 367.119723 
L 399.303513 453.308032 
L 399.523066 416.799293 
L 399.742619 488.319337 
L 399.962172 484.53762 
L 400.181725 393.345477 
L 400.401278 547.044722 
L 400.620832 503.332443 
L 400.840385 527.156463 
L 401.059938 483.612844 
L 401.279491 517.543769 
L 401.499044 392.795749 
L 401.718597 485.175272 
L 401.938151 484.274652 
L 402.157704 433.526612 
L 402.377257 430.05652 
L 402.59681 543.836003 
L 402.816363 408.88073 
L 403.035916 487.56012 
L 403.255469 500.33289 
L 403.475023 470.751536 
L 403.694576 494.271374 
L 403.914129 545.184575 
L 404.133682 331.60244 
L 404.353235 486.643865 
L 404.572788 488.959065 
L 404.792342 458.408008 
L 405.011895 560.801457 
L 405.231448 395.626962 
L 405.451001 524.448497 
L 405.670554 467.869193 
L 405.890107 518.047036 
L 406.10966 490.510832 
L 406.329214 349.579927 
L 406.76832 504.429912 
L 406.987873 505.527513 
L 407.207426 411.473346 
L 407.426979 447.244647 
L 407.646533 452.11775 
L 408.085639 512.622153 
L 408.305192 556.408467 
L 408.524745 436.798885 
L 408.744298 487.370406 
L 408.963851 492.166528 
L 409.183405 485.445616 
L 409.402958 465.105555 
L 409.622511 489.947124 
L 409.842064 430.876203 
L 410.061617 494.449119 
L 410.28117 399.675828 
L 410.500724 518.766691 
L 410.720277 279.326888 
L 410.93983 493.753476 
L 411.598489 453.009067 
L 411.818042 533.903391 
L 412.037596 550.299642 
L 412.257149 404.412456 
L 412.476702 498.867493 
L 412.696255 460.074836 
L 412.915808 480.049816 
L 413.135361 549.648899 
L 413.354915 478.151756 
L 413.574468 476.317575 
L 413.794021 501.826132 
L 414.233127 421.733531 
L 414.45268 569.309961 
L 414.891787 500.749578 
L 415.11134 507.179321 
L 415.330893 445.533776 
L 415.550446 304.007789 
L 415.769999 532.53965 
L 415.989552 359.879121 
L 416.209106 432.985744 
L 416.428659 464.744443 
L 416.648212 437.213234 
L 416.867765 525.810628 
L 417.087318 472.432284 
L 417.306871 512.146771 
L 417.526424 516.667073 
L 417.745978 442.353537 
L 417.965531 438.810342 
L 418.185084 520.270623 
L 418.404637 549.322156 
L 418.62419 492.770455 
L 418.843743 305.87144 
L 419.063297 543.436811 
L 419.28285 520.203889 
L 419.502403 467.057621 
L 419.721956 551.41322 
L 419.941509 441.886317 
L 420.161062 521.763306 
L 420.380615 542.545889 
L 420.600169 515.014747 
L 420.819722 459.152781 
L 421.039275 450.332887 
L 421.258828 467.979343 
L 421.478381 459.566951 
L 421.697934 545.729958 
L 421.917488 407.929145 
L 422.137041 510.479072 
L 422.356594 468.039725 
L 422.576147 523.285547 
L 422.7957 450.841595 
L 423.234806 412.966022 
L 423.45436 464.380966 
L 423.673913 431.31053 
L 423.893466 502.60941 
L 424.113019 406.30625 
L 424.332572 367.287115 
L 424.771678 530.691955 
L 424.991232 370.355216 
L 425.210785 365.541093 
L 425.430338 459.598908 
L 425.649891 455.749623 
L 426.088997 528.134325 
L 426.308551 494.216153 
L 426.528104 490.808051 
L 426.747657 355.236276 
L 426.96721 560.032479 
L 427.186763 464.797242 
L 427.406316 453.126892 
L 427.625869 467.050235 
L 427.845423 451.290473 
L 428.064976 481.217238 
L 428.284529 449.312472 
L 428.504082 519.655355 
L 428.943188 399.466269 
L 429.162742 509.653441 
L 429.382295 450.534273 
L 429.601848 493.826279 
L 429.821401 502.433911 
L 430.040954 553.473042 
L 430.260507 441.276447 
L 430.48006 489.532616 
L 430.699614 439.749436 
L 430.919167 517.45736 
L 431.13872 475.21588 
L 431.358273 491.104243 
L 431.577826 382.302879 
L 431.797379 526.578165 
L 432.016933 466.161674 
L 432.236486 556.593772 
L 432.456039 451.87354 
L 432.675592 509.700328 
L 432.895145 393.063853 
L 433.334251 497.285484 
L 433.773358 416.432891 
L 433.992911 432.377167 
L 434.212464 358.540652 
L 434.432017 442.338894 
L 434.65157 406.422245 
L 435.090677 476.057897 
L 435.31023 468.674732 
L 435.529783 391.203267 
L 435.749336 552.282625 
L 435.968889 491.267485 
L 436.188442 517.861369 
L 436.407996 565.982568 
L 436.627549 440.030362 
L 437.066655 534.52234 
L 437.286208 468.275031 
L 437.505761 504.26492 
L 437.725315 474.336508 
L 437.944868 497.938973 
L 438.164421 466.489425 
L 438.383974 407.706021 
L 438.603527 561.745984 
L 438.82308 395.766897 
L 439.042633 496.094467 
L 439.262187 400.270501 
L 439.48174 410.487265 
L 439.701293 528.615994 
L 439.920846 460.088549 
L 440.359952 449.394235 
L 440.579506 489.847996 
L 440.799059 482.003108 
L 441.238165 539.819642 
L 441.457718 473.641887 
L 441.677271 538.649897 
L 441.896824 443.355888 
L 442.116378 413.823517 
L 442.335931 506.185751 
L 442.555484 498.398278 
L 442.775037 506.905586 
L 442.99459 545.32316 
L 443.433697 501.84963 
L 443.65325 442.530878 
L 443.872803 478.583772 
L 444.092356 290.25179 
L 444.311909 492.325146 
L 444.531462 439.761778 
L 444.751015 503.274387 
L 444.970569 524.002273 
L 445.190122 508.723535 
L 445.409675 525.696152 
L 445.629228 503.458038 
L 445.848781 449.927812 
L 446.068334 448.251428 
L 446.287888 468.773368 
L 446.507441 454.903796 
L 446.726994 518.89095 
L 446.946547 460.799285 
L 447.1661 506.594358 
L 447.385653 498.37395 
L 447.605206 503.552308 
L 447.82476 491.324489 
L 448.044313 421.185595 
L 448.483419 490.387167 
L 448.702972 490.177128 
L 448.922525 535.064165 
L 449.142079 491.638237 
L 449.361632 535.928214 
L 449.581185 510.8393 
L 449.800738 527.948387 
L 450.020291 523.117935 
L 450.239844 324.011438 
L 450.459397 512.630652 
L 450.678951 452.53781 
L 450.898504 463.465912 
L 451.118057 420.799944 
L 451.776716 464.020274 
L 452.215823 326.834108 
L 452.435376 429.859551 
L 452.654929 467.994231 
L 452.874482 546.058328 
L 453.313588 260.217313 
L 453.533142 425.193639 
L 453.752695 421.067368 
L 453.972248 348.420917 
L 454.191801 434.738378 
L 454.411354 427.681726 
L 454.630907 530.932571 
L 454.85046 477.145243 
L 455.070014 360.579266 
L 455.289567 456.159096 
L 455.50912 477.554852 
L 455.728673 472.434091 
L 455.948226 456.792241 
L 456.167779 473.571426 
L 456.387333 479.567547 
L 456.606886 501.219623 
L 456.826439 421.053948 
L 457.045992 478.845938 
L 457.265545 481.782559 
L 457.485098 323.444611 
L 457.924205 560.879865 
L 458.143758 500.886678 
L 458.363311 508.763715 
L 458.582864 559.714129 
L 458.802417 400.735429 
L 459.02197 504.598917 
L 459.241524 440.053197 
L 459.461077 502.637756 
L 459.68063 416.473593 
L 459.900183 445.885988 
L 460.119736 506.30393 
L 460.339289 505.254392 
L 460.558842 526.661875 
L 460.778396 521.298183 
L 460.997949 483.262124 
L 461.217502 482.029839 
L 461.437055 309.243651 
L 461.656608 502.921693 
L 461.876161 412.341075 
L 462.095715 480.532078 
L 462.315268 486.211122 
L 462.534821 519.68049 
L 462.754374 453.270647 
L 462.973927 544.261635 
L 463.19348 532.130476 
L 463.413033 405.989607 
L 463.632587 515.417417 
L 463.85214 467.518339 
L 464.071693 518.743948 
L 464.291246 481.213989 
L 464.510799 421.667455 
L 464.730352 497.131181 
L 464.949906 520.387845 
L 465.169459 449.248176 
L 465.389012 486.666816 
L 465.608565 408.294159 
L 465.828118 430.543211 
L 466.047671 506.806726 
L 466.267224 476.609764 
L 466.486778 242.909219 
L 466.706331 333.103766 
L 466.925884 507.285658 
L 467.145437 467.567522 
L 467.36499 526.984885 
L 467.804097 391.425221 
L 468.243203 514.660062 
L 468.462756 390.488469 
L 468.682309 500.109811 
L 468.901862 514.195376 
L 469.121415 482.446588 
L 469.340969 536.609605 
L 469.560522 514.282077 
L 469.780075 523.720288 
L 469.999628 426.830684 
L 470.219181 495.13002 
L 470.438734 478.729496 
L 470.658288 527.763195 
L 470.877841 353.379824 
L 471.097394 532.183656 
L 471.5365 459.994834 
L 471.975606 530.416062 
L 472.19516 540.935311 
L 472.414713 405.980255 
L 472.853819 525.43368 
L 473.073372 557.591269 
L 473.292925 505.720684 
L 473.512479 502.609112 
L 473.732032 504.467511 
L 473.951585 463.138911 
L 474.171138 468.270679 
L 474.390691 443.726088 
L 474.610244 475.835066 
L 474.829797 242.147871 
L 475.268904 451.242045 
L 475.488457 466.60092 
L 475.70801 497.73985 
L 475.927563 470.968206 
L 476.147116 519.910259 
L 476.366669 472.55565 
L 476.805776 443.930679 
L 477.025329 511.549069 
L 477.244882 525.258165 
L 477.464435 426.687748 
L 477.683988 478.778302 
L 477.903542 493.13193 
L 478.123095 371.810845 
L 478.562201 533.900753 
L 478.781754 477.260861 
L 479.001307 482.209327 
L 479.22086 554.246415 
L 479.440414 461.835006 
L 479.659967 290.815384 
L 479.87952 484.674475 
L 480.099073 481.734178 
L 480.318626 438.845301 
L 480.538179 525.005526 
L 480.757733 514.72668 
L 480.977286 422.970146 
L 481.196839 503.086619 
L 481.416392 509.880813 
L 481.635945 486.243279 
L 481.855498 519.919514 
L 482.075051 525.600822 
L 482.294605 433.192535 
L 482.514158 470.776543 
L 482.733711 349.458773 
L 482.953264 407.658434 
L 483.39237 334.47255 
L 483.611924 470.799427 
L 483.831477 488.433124 
L 484.05103 536.264675 
L 484.270583 425.465613 
L 484.490136 479.296282 
L 484.709689 476.405824 
L 484.929242 551.027156 
L 485.148796 532.281888 
L 485.368349 479.071947 
L 485.587902 480.829068 
L 485.807455 401.300004 
L 486.027008 540.033114 
L 486.246561 451.957799 
L 486.685668 500.10613 
L 486.905221 535.863509 
L 487.124774 368.326148 
L 487.56388 543.620142 
L 487.783433 412.616369 
L 488.002987 431.279511 
L 488.22254 539.995545 
L 488.442093 399.015239 
L 488.661646 405.616721 
L 488.881199 551.130228 
L 489.100752 474.927364 
L 489.320306 509.715359 
L 489.539859 484.063061 
L 489.759412 511.333386 
L 489.978965 498.892915 
L 490.198518 564.617744 
L 490.418071 362.392274 
L 490.637624 489.700171 
L 490.857178 468.049586 
L 491.076731 496.47749 
L 491.296284 498.798385 
L 491.515837 470.84205 
L 491.73539 511.137724 
L 491.954943 498.197185 
L 492.174497 369.363626 
L 492.39405 447.284555 
L 492.833156 502.470005 
L 493.052709 464.921123 
L 493.272262 460.778235 
L 493.491815 477.197894 
L 493.711369 397.516035 
L 493.930922 528.087948 
L 494.150475 537.972655 
L 494.370028 402.16953 
L 494.589581 486.30202 
L 494.809134 515.392024 
L 495.028688 403.015912 
L 495.248241 533.838339 
L 495.467794 560.833778 
L 495.687347 506.247473 
L 495.9069 485.665368 
L 496.126453 447.870445 
L 496.346006 450.641683 
L 496.56556 445.324764 
L 496.785113 550.851658 
L 497.004666 501.639753 
L 497.224219 533.085169 
L 497.443772 490.746643 
L 497.663325 502.640324 
L 497.882879 402.79447 
L 498.102432 354.734302 
L 498.541538 516.917282 
L 498.980644 484.869418 
L 499.200197 546.10797 
L 499.639304 474.53353 
L 499.858857 498.82732 
L 500.07841 493.54064 
L 500.297963 458.445954 
L 500.956623 537.407395 
L 501.176176 483.2043 
L 501.395729 472.426064 
L 501.615282 521.494632 
L 501.834835 451.436238 
L 502.054388 556.74699 
L 502.273942 503.60196 
L 502.493495 506.693 
L 502.713048 457.677257 
L 502.932601 459.972787 
L 503.152154 397.108037 
L 503.371707 514.820793 
L 503.59126 556.915721 
L 503.810814 525.652596 
L 504.030367 408.731404 
L 504.24992 569.474074 
L 504.469473 533.738597 
L 504.689026 386.980751 
L 504.908579 510.587575 
L 505.128133 453.570779 
L 505.347686 470.207689 
L 505.567239 333.653199 
L 505.786792 519.395639 
L 506.006345 517.131266 
L 506.225898 467.272352 
L 506.445451 528.456041 
L 506.884558 468.970397 
L 507.104111 463.492215 
L 507.323664 428.949131 
L 507.543217 460.52956 
L 507.76277 463.006886 
L 507.982324 475.888009 
L 508.201877 292.92612 
L 508.42143 482.427295 
L 508.640983 538.911837 
L 508.860536 244.035796 
L 509.080089 503.032054 
L 509.299642 497.553875 
L 509.738749 371.481184 
L 509.958302 462.351312 
L 510.177855 502.339337 
L 510.397408 407.3237 
L 510.616961 528.59173 
L 510.836515 462.845975 
L 511.056068 465.645026 
L 511.275621 522.635496 
L 511.495174 468.614883 
L 511.714727 470.465648 
L 511.93428 474.764722 
L 512.153833 488.878815 
L 512.373387 448.60002 
L 512.59294 537.598493 
L 512.812493 381.294581 
L 513.032046 497.934082 
L 513.251599 463.071373 
L 513.471152 361.45844 
L 513.690706 528.248062 
L 513.910259 420.703146 
L 514.129812 490.349313 
L 514.349365 416.446783 
L 514.788471 562.972428 
L 515.008024 547.0695 
L 515.227578 462.848409 
L 515.447131 486.865537 
L 515.666684 467.880878 
L 515.886237 517.848247 
L 516.10579 541.660077 
L 516.325343 440.764447 
L 516.544897 527.916231 
L 516.76445 539.885444 
L 516.984003 489.398921 
L 517.203556 550.306085 
L 517.423109 455.653395 
L 517.642662 441.216224 
L 517.862215 513.047363 
L 518.081769 524.775821 
L 518.301322 469.701575 
L 518.520875 515.995392 
L 518.740428 522.327268 
L 518.959981 513.005617 
L 519.179534 421.050938 
L 519.399088 501.056138 
L 519.618641 530.112447 
L 519.838194 432.418998 
L 520.057747 474.081992 
L 520.2773 472.996556 
L 520.496853 431.127599 
L 520.716406 453.608477 
L 520.93596 334.445739 
L 521.155513 356.54451 
L 521.375066 366.477293 
L 521.594619 536.903984 
L 521.814172 459.950709 
L 522.033725 491.856074 
L 522.253279 501.736854 
L 522.472832 388.016768 
L 522.692385 447.284297 
L 522.911938 556.102152 
L 523.131491 508.541919 
L 523.351044 530.151853 
L 523.570597 471.317341 
L 523.790151 553.344929 
L 524.009704 485.779332 
L 524.229257 527.348401 
L 524.44881 464.609484 
L 524.668363 526.927132 
L 524.887916 465.14596 
L 525.10747 541.279149 
L 525.546576 487.64479 
L 525.766129 539.705308 
L 525.985682 460.535956 
L 526.205235 490.294037 
L 526.424788 538.632166 
L 526.644342 528.567704 
L 526.863895 497.593768 
L 527.083448 400.900311 
L 527.303001 536.942232 
L 527.742107 462.244979 
L 527.96166 452.159146 
L 528.181214 468.234855 
L 528.400767 524.048197 
L 528.62032 538.801468 
L 528.839873 169.787105 
L 529.059426 272.120114 
L 529.278979 493.792406 
L 529.718086 372.609545 
L 529.937639 564.971709 
L 530.157192 456.40598 
L 530.376745 432.064713 
L 530.596298 530.180608 
L 530.815851 339.485927 
L 531.035405 483.265553 
L 531.254958 473.319453 
L 531.474511 524.519629 
L 531.694064 433.707184 
L 531.913617 496.415893 
L 532.13317 502.173609 
L 532.352724 538.559741 
L 532.572277 407.534321 
L 532.79183 478.191417 
L 533.011383 493.021546 
L 533.230936 519.097428 
L 533.450489 514.092452 
L 533.670042 530.042161 
L 533.889596 386.523277 
L 534.109149 484.080211 
L 534.328702 442.892857 
L 534.548255 360.964619 
L 534.767808 433.051932 
L 534.987361 549.36688 
L 535.206915 390.333348 
L 535.426468 323.209706 
L 535.646021 455.336837 
L 536.085127 524.232467 
L 536.30468 532.742989 
L 536.524233 570.94674 
L 536.743787 467.667638 
L 536.96334 561.550296 
L 537.182893 436.968691 
L 537.402446 511.882873 
L 537.621999 464.282662 
L 537.841552 522.699665 
L 538.061106 408.843844 
L 538.500212 467.689401 
L 538.719765 384.181142 
L 538.939318 502.10622 
L 539.158871 518.615497 
L 539.378424 545.336763 
L 539.597978 498.564084 
L 539.817531 420.88887 
L 540.256637 536.516721 
L 540.47619 545.314298 
L 540.695743 457.978578 
L 540.915297 506.321026 
L 541.13485 462.887735 
L 541.354403 484.585026 
L 541.573956 205.311032 
L 542.013062 538.872069 
L 542.232615 470.433131 
L 542.452169 464.158903 
L 542.671722 468.758555 
L 542.891275 457.883431 
L 543.110828 508.82385 
L 543.330381 517.385399 
L 543.549934 396.976343 
L 543.769488 408.281589 
L 543.989041 437.198171 
L 544.208594 541.017802 
L 544.428147 530.104121 
L 544.6477 468.061863 
L 544.867253 523.762847 
L 545.086806 480.472246 
L 545.30636 496.62654 
L 545.525913 500.650174 
L 545.745466 552.650561 
L 545.745466 552.650561 
" style="fill:none;stroke:#96c69a;stroke-linecap:round;stroke-width:3;"/>
   </g>
   <g id="line2d_2"/>
   <g id="patch_3">
    <path d="M 84.914375 603.86 
L 84.914375 109.484571 
" style="fill:none;stroke:#262626;stroke-linecap:square;stroke-linejoin:miter;stroke-width:2.5;"/>
   </g>
   <g id="patch_4">
    <path d="M 84.914375 603.86 
L 567.689804 603.86 
" style="fill:none;stroke:#262626;stroke-linecap:square;stroke-linejoin:miter;stroke-width:2.5;"/>
   </g>
   <g id="legend_1">
    <g id="patch_5">
     <path d="M 507.816366 598.86 
L 560.689804 598.86 
Q 562.689804 598.86 562.689804 596.86 
L 562.689804 554.954375 
Q 562.689804 552.954375 560.689804 552.954375 
L 507.816366 552.954375 
Q 505.816366 552.954375 505.816366 554.954375 
L 505.816366 596.86 
Q 505.816366 598.86 507.816366 598.86 
z
" style="fill:#ffffff;opacity:0.8;stroke:#cccccc;stroke-linejoin:miter;stroke-width:2;"/>
    </g>
    <g id="text_14">
     <!-- $n_\tau$ -->
     <g style="fill:#262626;" transform="translate(521.173085 575.190625)scale(0.24 -0.24)">
      <defs>
       <path d="M 3566 2113 
L 3156 0 
L 2578 0 
L 2988 2091 
Q 3016 2238 3031 2350 
Q 3047 2463 3047 2528 
Q 3047 2791 2881 2937 
Q 2716 3084 2419 3084 
Q 1956 3084 1622 2776 
Q 1288 2469 1184 1941 
L 800 0 
L 225 0 
L 903 3500 
L 1478 3500 
L 1363 2950 
Q 1603 3253 1940 3418 
Q 2278 3584 2650 3584 
Q 3113 3584 3367 3334 
Q 3622 3084 3622 2631 
Q 3622 2519 3608 2391 
Q 3594 2263 3566 2113 
z
" id="DejaVuSans-Oblique-6e" transform="scale(0.015625)"/>
       <path d="M 2103 638 
Q 2188 488 2525 488 
L 2800 488 
L 2706 0 
L 2363 0 
Q 1800 0 1600 300 
Q 1403 606 1534 1269 
L 1856 2925 
L 541 2925 
L 653 3500 
L 3881 3500 
L 3769 2925 
L 2444 2925 
L 2113 1234 
Q 2025 781 2103 638 
z
" id="DejaVuSans-Oblique-3c4" transform="scale(0.015625)"/>
      </defs>
      <use xlink:href="#DejaVuSans-Oblique-6e"/>
      <use transform="translate(63.378906 -16.40625)scale(0.7)" xlink:href="#DejaVuSans-Oblique-3c4"/>
     </g>
    </g>
    <g id="line2d_3">
     <path d="M 509.816366 589.280313 
L 529.816366 589.280313 
" style="fill:none;stroke:#96c69a;stroke-linecap:round;stroke-width:3;"/>
    </g>
    <g id="line2d_4"/>
    <g id="text_15">
     <!-- 125 -->
     <g style="fill:#262626;" transform="translate(537.816366 592.780313)scale(0.1 -0.1)">
      <defs>
       <path d="M 750 831 
L 1813 831 
L 1813 3847 
L 722 3622 
L 722 4441 
L 1806 4666 
L 2950 4666 
L 2950 831 
L 4013 831 
L 4013 0 
L 750 0 
L 750 831 
z
" id="DejaVuSans-Bold-31" transform="scale(0.015625)"/>
       <path d="M 1844 884 
L 3897 884 
L 3897 0 
L 506 0 
L 506 884 
L 2209 2388 
Q 2438 2594 2547 2791 
Q 2656 2988 2656 3200 
Q 2656 3528 2436 3728 
Q 2216 3928 1850 3928 
Q 1569 3928 1234 3808 
Q 900 3688 519 3450 
L 519 4475 
Q 925 4609 1322 4679 
Q 1719 4750 2100 4750 
Q 2938 4750 3402 4381 
Q 3866 4013 3866 3353 
Q 3866 2972 3669 2642 
Q 3472 2313 2841 1759 
L 1844 884 
z
" id="DejaVuSans-Bold-32" transform="scale(0.015625)"/>
       <path d="M 678 4666 
L 3669 4666 
L 3669 3781 
L 1638 3781 
L 1638 3059 
Q 1775 3097 1914 3117 
Q 2053 3138 2203 3138 
Q 3056 3138 3531 2711 
Q 4006 2284 4006 1522 
Q 4006 766 3489 337 
Q 2972 -91 2053 -91 
Q 1656 -91 1267 -14 
Q 878 63 494 219 
L 494 1166 
Q 875 947 1217 837 
Q 1559 728 1863 728 
Q 2300 728 2551 942 
Q 2803 1156 2803 1522 
Q 2803 1891 2551 2103 
Q 2300 2316 1863 2316 
Q 1603 2316 1309 2248 
Q 1016 2181 678 2041 
L 678 4666 
z
" id="DejaVuSans-Bold-35" transform="scale(0.015625)"/>
      </defs>
      <use xlink:href="#DejaVuSans-Bold-31"/>
      <use x="69.580078" xlink:href="#DejaVuSans-Bold-32"/>
      <use x="139.160156" xlink:href="#DejaVuSans-Bold-35"/>
     </g>
    </g>
   </g>
  </g>
  <g id="axes_2">
   <g id="patch_6">
    <path d="M 84.914375 92.437143 
L 567.689804 92.437143 
L 567.689804 7.2 
L 84.914375 7.2 
z
" style="fill:none;"/>
   </g>
   <g id="matplotlib.axis_3">
    <g id="xtick_7"/>
    <g id="xtick_8"/>
    <g id="xtick_9"/>
    <g id="xtick_10"/>
    <g id="xtick_11"/>
    <g id="xtick_12"/>
   </g>
   <g id="matplotlib.axis_4">
    <g id="ytick_6">
     <g id="text_16">
      <!-- 0 -->
      <g style="fill:#262626;" transform="translate(55.416875 100.795424)scale(0.22 -0.22)">
       <use xlink:href="#DejaVuSans-30"/>
      </g>
     </g>
    </g>
    <g id="ytick_7">
     <g id="text_17">
      <!-- 100 -->
      <g style="fill:#262626;" transform="translate(27.421875 48.082287)scale(0.22 -0.22)">
       <use xlink:href="#DejaVuSans-31"/>
       <use x="63.623047" xlink:href="#DejaVuSans-30"/>
       <use x="127.246094" xlink:href="#DejaVuSans-30"/>
      </g>
     </g>
    </g>
   </g>
   <g id="patch_7">
    <path clip-path="url(#pf6a40575dc)" d="M 106.858713 92.437143 
L 140.619232 92.437143 
L 140.619232 11.258912 
L 106.858713 11.258912 
z
" style="fill:#96c69a;fill-opacity:0.5;stroke:#ffffff;stroke-linejoin:miter;stroke-width:2;"/>
   </g>
   <g id="patch_8">
    <path clip-path="url(#pf6a40575dc)" d="M 140.619232 92.437143 
L 174.379752 92.437143 
L 174.379752 11.258912 
L 140.619232 11.258912 
z
" style="fill:#96c69a;fill-opacity:0.5;stroke:#ffffff;stroke-linejoin:miter;stroke-width:2;"/>
   </g>
   <g id="patch_9">
    <path clip-path="url(#pf6a40575dc)" d="M 174.379752 92.437143 
L 208.140271 92.437143 
L 208.140271 11.258912 
L 174.379752 11.258912 
z
" style="fill:#96c69a;fill-opacity:0.5;stroke:#ffffff;stroke-linejoin:miter;stroke-width:2;"/>
   </g>
   <g id="patch_10">
    <path clip-path="url(#pf6a40575dc)" d="M 208.140271 92.437143 
L 241.900791 92.437143 
L 241.900791 11.258912 
L 208.140271 11.258912 
z
" style="fill:#96c69a;fill-opacity:0.5;stroke:#ffffff;stroke-linejoin:miter;stroke-width:2;"/>
   </g>
   <g id="patch_11">
    <path clip-path="url(#pf6a40575dc)" d="M 241.900791 92.437143 
L 275.66131 92.437143 
L 275.66131 11.786043 
L 241.900791 11.786043 
z
" style="fill:#96c69a;fill-opacity:0.5;stroke:#ffffff;stroke-linejoin:miter;stroke-width:2;"/>
   </g>
   <g id="patch_12">
    <path clip-path="url(#pf6a40575dc)" d="M 275.66131 92.437143 
L 309.42183 92.437143 
L 309.42183 11.258912 
L 275.66131 11.258912 
z
" style="fill:#96c69a;fill-opacity:0.5;stroke:#ffffff;stroke-linejoin:miter;stroke-width:2;"/>
   </g>
   <g id="patch_13">
    <path clip-path="url(#pf6a40575dc)" d="M 309.42183 92.437143 
L 343.182349 92.437143 
L 343.182349 11.258912 
L 309.42183 11.258912 
z
" style="fill:#96c69a;fill-opacity:0.5;stroke:#ffffff;stroke-linejoin:miter;stroke-width:2;"/>
   </g>
   <g id="patch_14">
    <path clip-path="url(#pf6a40575dc)" d="M 343.182349 92.437143 
L 376.942869 92.437143 
L 376.942869 11.258912 
L 343.182349 11.258912 
z
" style="fill:#96c69a;fill-opacity:0.5;stroke:#ffffff;stroke-linejoin:miter;stroke-width:2;"/>
   </g>
   <g id="patch_15">
    <path clip-path="url(#pf6a40575dc)" d="M 376.942869 92.437143 
L 410.703388 92.437143 
L 410.703388 11.786043 
L 376.942869 11.786043 
z
" style="fill:#96c69a;fill-opacity:0.5;stroke:#ffffff;stroke-linejoin:miter;stroke-width:2;"/>
   </g>
   <g id="patch_16">
    <path clip-path="url(#pf6a40575dc)" d="M 410.703388 92.437143 
L 444.463907 92.437143 
L 444.463907 11.258912 
L 410.703388 11.258912 
z
" style="fill:#96c69a;fill-opacity:0.5;stroke:#ffffff;stroke-linejoin:miter;stroke-width:2;"/>
   </g>
   <g id="patch_17">
    <path clip-path="url(#pf6a40575dc)" d="M 444.463907 92.437143 
L 478.224427 92.437143 
L 478.224427 11.258912 
L 444.463907 11.258912 
z
" style="fill:#96c69a;fill-opacity:0.5;stroke:#ffffff;stroke-linejoin:miter;stroke-width:2;"/>
   </g>
   <g id="patch_18">
    <path clip-path="url(#pf6a40575dc)" d="M 478.224427 92.437143 
L 511.984946 92.437143 
L 511.984946 11.258912 
L 478.224427 11.258912 
z
" style="fill:#96c69a;fill-opacity:0.5;stroke:#ffffff;stroke-linejoin:miter;stroke-width:2;"/>
   </g>
   <g id="patch_19">
    <path clip-path="url(#pf6a40575dc)" d="M 511.984946 92.437143 
L 545.745466 92.437143 
L 545.745466 11.258912 
L 511.984946 11.258912 
z
" style="fill:#96c69a;fill-opacity:0.5;stroke:#ffffff;stroke-linejoin:miter;stroke-width:2;"/>
   </g>
   <g id="patch_20">
    <path d="M 84.914375 92.437143 
L 84.914375 7.2 
" style="fill:none;stroke:#262626;stroke-linecap:square;stroke-linejoin:miter;stroke-width:2.5;"/>
   </g>
   <g id="patch_21">
    <path d="M 84.914375 92.437143 
L 567.689804 92.437143 
" style="fill:none;stroke:#262626;stroke-linecap:square;stroke-linejoin:miter;stroke-width:2.5;"/>
   </g>
  </g>
  <g id="axes_3">
   <g id="patch_22">
    <path d="M 584.337232 603.86 
L 667.574375 603.86 
L 667.574375 109.484571 
L 584.337232 109.484571 
z
" style="fill:none;"/>
   </g>
   <g id="matplotlib.axis_5">
    <g id="xtick_13">
     <g id="text_18">
      <!-- 0 -->
      <g style="fill:#262626;" transform="translate(577.338482 636.076563)scale(0.22 -0.22)">
       <use xlink:href="#DejaVuSans-30"/>
      </g>
     </g>
    </g>
    <g id="xtick_14">
     <g id="text_19">
      <!-- 100 -->
      <g style="fill:#262626;" transform="translate(607.876639 636.076563)scale(0.22 -0.22)">
       <use xlink:href="#DejaVuSans-31"/>
       <use x="63.623047" xlink:href="#DejaVuSans-30"/>
       <use x="127.246094" xlink:href="#DejaVuSans-30"/>
      </g>
     </g>
    </g>
   </g>
   <g id="matplotlib.axis_6">
    <g id="ytick_8"/>
    <g id="ytick_9"/>
    <g id="ytick_10"/>
    <g id="ytick_11"/>
    <g id="ytick_12"/>
   </g>
   <g id="patch_23">
    <path clip-path="url(#pdea6f7f2a4)" d="M 584.337232 581.38839 
L 587.900085 581.38839 
L 587.900085 570.152584 
L 584.337232 570.152584 
z
" style="fill:#96c69a;fill-opacity:0.5;stroke:#ffffff;stroke-linejoin:miter;stroke-width:1.123581;"/>
   </g>
   <g id="patch_24">
    <path clip-path="url(#pdea6f7f2a4)" d="M 584.337232 570.152584 
L 594.135077 570.152584 
L 594.135077 558.916779 
L 584.337232 558.916779 
z
" style="fill:#96c69a;fill-opacity:0.5;stroke:#ffffff;stroke-linejoin:miter;stroke-width:1.123581;"/>
   </g>
   <g id="patch_25">
    <path clip-path="url(#pdea6f7f2a4)" d="M 584.337232 558.916779 
L 611.503983 558.916779 
L 611.503983 547.680974 
L 584.337232 547.680974 
z
" style="fill:#96c69a;fill-opacity:0.5;stroke:#ffffff;stroke-linejoin:miter;stroke-width:1.123581;"/>
   </g>
   <g id="patch_26">
    <path clip-path="url(#pdea6f7f2a4)" d="M 584.337232 547.680974 
L 632.881098 547.680974 
L 632.881098 536.445169 
L 584.337232 536.445169 
z
" style="fill:#96c69a;fill-opacity:0.5;stroke:#ffffff;stroke-linejoin:miter;stroke-width:1.123581;"/>
   </g>
   <g id="patch_27">
    <path clip-path="url(#pdea6f7f2a4)" d="M 584.337232 536.445169 
L 649.359291 536.445169 
L 649.359291 525.209364 
L 584.337232 525.209364 
z
" style="fill:#96c69a;fill-opacity:0.5;stroke:#ffffff;stroke-linejoin:miter;stroke-width:1.123581;"/>
   </g>
   <g id="patch_28">
    <path clip-path="url(#pdea6f7f2a4)" d="M 584.337232 525.209364 
L 658.711779 525.209364 
L 658.711779 513.973558 
L 584.337232 513.973558 
z
" style="fill:#96c69a;fill-opacity:0.5;stroke:#ffffff;stroke-linejoin:miter;stroke-width:1.123581;"/>
   </g>
   <g id="patch_29">
    <path clip-path="url(#pdea6f7f2a4)" d="M 584.337232 513.973558 
L 660.493206 513.973558 
L 660.493206 502.737753 
L 584.337232 502.737753 
z
" style="fill:#96c69a;fill-opacity:0.5;stroke:#ffffff;stroke-linejoin:miter;stroke-width:1.123581;"/>
   </g>
   <g id="patch_30">
    <path clip-path="url(#pdea6f7f2a4)" d="M 584.337232 502.737753 
L 662.719988 502.737753 
L 662.719988 491.501948 
L 584.337232 491.501948 
z
" style="fill:#96c69a;fill-opacity:0.5;stroke:#ffffff;stroke-linejoin:miter;stroke-width:1.123581;"/>
   </g>
   <g id="patch_31">
    <path clip-path="url(#pdea6f7f2a4)" d="M 584.337232 491.501948 
L 663.610702 491.501948 
L 663.610702 480.266143 
L 584.337232 480.266143 
z
" style="fill:#96c69a;fill-opacity:0.5;stroke:#ffffff;stroke-linejoin:miter;stroke-width:1.123581;"/>
   </g>
   <g id="patch_32">
    <path clip-path="url(#pdea6f7f2a4)" d="M 584.337232 480.266143 
L 649.804648 480.266143 
L 649.804648 469.030338 
L 584.337232 469.030338 
z
" style="fill:#96c69a;fill-opacity:0.5;stroke:#ffffff;stroke-linejoin:miter;stroke-width:1.123581;"/>
   </g>
   <g id="patch_33">
    <path clip-path="url(#pdea6f7f2a4)" d="M 584.337232 469.030338 
L 657.37571 469.030338 
L 657.37571 457.794532 
L 584.337232 457.794532 
z
" style="fill:#96c69a;fill-opacity:0.5;stroke:#ffffff;stroke-linejoin:miter;stroke-width:1.123581;"/>
   </g>
   <g id="patch_34">
    <path clip-path="url(#pdea6f7f2a4)" d="M 584.337232 457.794532 
L 635.553238 457.794532 
L 635.553238 446.558727 
L 584.337232 446.558727 
z
" style="fill:#96c69a;fill-opacity:0.5;stroke:#ffffff;stroke-linejoin:miter;stroke-width:1.123581;"/>
   </g>
   <g id="patch_35">
    <path clip-path="url(#pdea6f7f2a4)" d="M 584.337232 446.558727 
L 630.654315 446.558727 
L 630.654315 435.322922 
L 584.337232 435.322922 
z
" style="fill:#96c69a;fill-opacity:0.5;stroke:#ffffff;stroke-linejoin:miter;stroke-width:1.123581;"/>
   </g>
   <g id="patch_36">
    <path clip-path="url(#pdea6f7f2a4)" d="M 584.337232 435.322922 
L 620.856471 435.322922 
L 620.856471 424.087117 
L 584.337232 424.087117 
z
" style="fill:#96c69a;fill-opacity:0.5;stroke:#ffffff;stroke-linejoin:miter;stroke-width:1.123581;"/>
   </g>
   <g id="patch_37">
    <path clip-path="url(#pdea6f7f2a4)" d="M 584.337232 424.087117 
L 615.957549 424.087117 
L 615.957549 412.851312 
L 584.337232 412.851312 
z
" style="fill:#96c69a;fill-opacity:0.5;stroke:#ffffff;stroke-linejoin:miter;stroke-width:1.123581;"/>
   </g>
   <g id="patch_38">
    <path clip-path="url(#pdea6f7f2a4)" d="M 584.337232 412.851312 
L 615.512192 412.851312 
L 615.512192 401.615506 
L 584.337232 401.615506 
z
" style="fill:#96c69a;fill-opacity:0.5;stroke:#ffffff;stroke-linejoin:miter;stroke-width:1.123581;"/>
   </g>
   <g id="patch_39">
    <path clip-path="url(#pdea6f7f2a4)" d="M 584.337232 401.615506 
L 608.386487 401.615506 
L 608.386487 390.379701 
L 584.337232 390.379701 
z
" style="fill:#96c69a;fill-opacity:0.5;stroke:#ffffff;stroke-linejoin:miter;stroke-width:1.123581;"/>
   </g>
   <g id="patch_40">
    <path clip-path="url(#pdea6f7f2a4)" d="M 584.337232 390.379701 
L 595.916503 390.379701 
L 595.916503 379.143896 
L 584.337232 379.143896 
z
" style="fill:#96c69a;fill-opacity:0.5;stroke:#ffffff;stroke-linejoin:miter;stroke-width:1.123581;"/>
   </g>
   <g id="patch_41">
    <path clip-path="url(#pdea6f7f2a4)" d="M 584.337232 379.143896 
L 591.908294 379.143896 
L 591.908294 367.908091 
L 584.337232 367.908091 
z
" style="fill:#96c69a;fill-opacity:0.5;stroke:#ffffff;stroke-linejoin:miter;stroke-width:1.123581;"/>
   </g>
   <g id="patch_42">
    <path clip-path="url(#pdea6f7f2a4)" d="M 584.337232 367.908091 
L 596.807216 367.908091 
L 596.807216 356.672286 
L 584.337232 356.672286 
z
" style="fill:#96c69a;fill-opacity:0.5;stroke:#ffffff;stroke-linejoin:miter;stroke-width:1.123581;"/>
   </g>
   <g id="patch_43">
    <path clip-path="url(#pdea6f7f2a4)" d="M 584.337232 356.672286 
L 591.908294 356.672286 
L 591.908294 345.436481 
L 584.337232 345.436481 
z
" style="fill:#96c69a;fill-opacity:0.5;stroke:#ffffff;stroke-linejoin:miter;stroke-width:1.123581;"/>
   </g>
   <g id="patch_44">
    <path clip-path="url(#pdea6f7f2a4)" d="M 584.337232 345.436481 
L 589.236154 345.436481 
L 589.236154 334.200675 
L 584.337232 334.200675 
z
" style="fill:#96c69a;fill-opacity:0.5;stroke:#ffffff;stroke-linejoin:miter;stroke-width:1.123581;"/>
   </g>
   <g id="patch_45">
    <path clip-path="url(#pdea6f7f2a4)" d="M 584.337232 334.200675 
L 591.017581 334.200675 
L 591.017581 322.96487 
L 584.337232 322.96487 
z
" style="fill:#96c69a;fill-opacity:0.5;stroke:#ffffff;stroke-linejoin:miter;stroke-width:1.123581;"/>
   </g>
   <g id="patch_46">
    <path clip-path="url(#pdea6f7f2a4)" d="M 584.337232 322.96487 
L 586.118658 322.96487 
L 586.118658 311.729065 
L 584.337232 311.729065 
z
" style="fill:#96c69a;fill-opacity:0.5;stroke:#ffffff;stroke-linejoin:miter;stroke-width:1.123581;"/>
   </g>
   <g id="patch_47">
    <path clip-path="url(#pdea6f7f2a4)" d="M 584.337232 311.729065 
L 588.345441 311.729065 
L 588.345441 300.49326 
L 584.337232 300.49326 
z
" style="fill:#96c69a;fill-opacity:0.5;stroke:#ffffff;stroke-linejoin:miter;stroke-width:1.123581;"/>
   </g>
   <g id="patch_48">
    <path clip-path="url(#pdea6f7f2a4)" d="M 584.337232 300.49326 
L 586.564015 300.49326 
L 586.564015 289.257455 
L 584.337232 289.257455 
z
" style="fill:#96c69a;fill-opacity:0.5;stroke:#ffffff;stroke-linejoin:miter;stroke-width:1.123581;"/>
   </g>
   <g id="patch_49">
    <path clip-path="url(#pdea6f7f2a4)" d="M 584.337232 289.257455 
L 587.009372 289.257455 
L 587.009372 278.021649 
L 584.337232 278.021649 
z
" style="fill:#96c69a;fill-opacity:0.5;stroke:#ffffff;stroke-linejoin:miter;stroke-width:1.123581;"/>
   </g>
   <g id="patch_50">
    <path clip-path="url(#pdea6f7f2a4)" d="M 584.337232 278.021649 
L 585.227945 278.021649 
L 585.227945 266.785844 
L 584.337232 266.785844 
z
" style="fill:#96c69a;fill-opacity:0.5;stroke:#ffffff;stroke-linejoin:miter;stroke-width:1.123581;"/>
   </g>
   <g id="patch_51">
    <path clip-path="url(#pdea6f7f2a4)" d="M 584.337232 266.785844 
L 586.564015 266.785844 
L 586.564015 255.550039 
L 584.337232 255.550039 
z
" style="fill:#96c69a;fill-opacity:0.5;stroke:#ffffff;stroke-linejoin:miter;stroke-width:1.123581;"/>
   </g>
   <g id="patch_52">
    <path clip-path="url(#pdea6f7f2a4)" d="M 584.337232 255.550039 
L 585.227945 255.550039 
L 585.227945 244.314234 
L 584.337232 244.314234 
z
" style="fill:#96c69a;fill-opacity:0.5;stroke:#ffffff;stroke-linejoin:miter;stroke-width:1.123581;"/>
   </g>
   <g id="patch_53">
    <path clip-path="url(#pdea6f7f2a4)" d="M 584.337232 244.314234 
L 586.118658 244.314234 
L 586.118658 233.078429 
L 584.337232 233.078429 
z
" style="fill:#96c69a;fill-opacity:0.5;stroke:#ffffff;stroke-linejoin:miter;stroke-width:1.123581;"/>
   </g>
   <g id="patch_54">
    <path clip-path="url(#pdea6f7f2a4)" d="M 584.337232 233.078429 
L 584.337232 233.078429 
L 584.337232 221.842623 
L 584.337232 221.842623 
z
" style="fill:#96c69a;fill-opacity:0.5;stroke:#ffffff;stroke-linejoin:miter;stroke-width:1.123581;"/>
   </g>
   <g id="patch_55">
    <path clip-path="url(#pdea6f7f2a4)" d="M 584.337232 221.842623 
L 584.337232 221.842623 
L 584.337232 210.606818 
L 584.337232 210.606818 
z
" style="fill:#96c69a;fill-opacity:0.5;stroke:#ffffff;stroke-linejoin:miter;stroke-width:1.123581;"/>
   </g>
   <g id="patch_56">
    <path clip-path="url(#pdea6f7f2a4)" d="M 584.337232 210.606818 
L 585.227945 210.606818 
L 585.227945 199.371013 
L 584.337232 199.371013 
z
" style="fill:#96c69a;fill-opacity:0.5;stroke:#ffffff;stroke-linejoin:miter;stroke-width:1.123581;"/>
   </g>
   <g id="patch_57">
    <path clip-path="url(#pdea6f7f2a4)" d="M 584.337232 199.371013 
L 584.337232 199.371013 
L 584.337232 188.135208 
L 584.337232 188.135208 
z
" style="fill:#96c69a;fill-opacity:0.5;stroke:#ffffff;stroke-linejoin:miter;stroke-width:1.123581;"/>
   </g>
   <g id="patch_58">
    <path clip-path="url(#pdea6f7f2a4)" d="M 584.337232 188.135208 
L 584.337232 188.135208 
L 584.337232 176.899403 
L 584.337232 176.899403 
z
" style="fill:#96c69a;fill-opacity:0.5;stroke:#ffffff;stroke-linejoin:miter;stroke-width:1.123581;"/>
   </g>
   <g id="patch_59">
    <path clip-path="url(#pdea6f7f2a4)" d="M 584.337232 176.899403 
L 584.782589 176.899403 
L 584.782589 165.663597 
L 584.337232 165.663597 
z
" style="fill:#96c69a;fill-opacity:0.5;stroke:#ffffff;stroke-linejoin:miter;stroke-width:1.123581;"/>
   </g>
   <g id="patch_60">
    <path clip-path="url(#pdea6f7f2a4)" d="M 584.337232 165.663597 
L 584.337232 165.663597 
L 584.337232 154.427792 
L 584.337232 154.427792 
z
" style="fill:#96c69a;fill-opacity:0.5;stroke:#ffffff;stroke-linejoin:miter;stroke-width:1.123581;"/>
   </g>
   <g id="patch_61">
    <path clip-path="url(#pdea6f7f2a4)" d="M 584.337232 154.427792 
L 584.337232 154.427792 
L 584.337232 143.191987 
L 584.337232 143.191987 
z
" style="fill:#96c69a;fill-opacity:0.5;stroke:#ffffff;stroke-linejoin:miter;stroke-width:1.123581;"/>
   </g>
   <g id="patch_62">
    <path clip-path="url(#pdea6f7f2a4)" d="M 584.337232 143.191987 
L 584.782589 143.191987 
L 584.782589 131.956182 
L 584.337232 131.956182 
z
" style="fill:#96c69a;fill-opacity:0.5;stroke:#ffffff;stroke-linejoin:miter;stroke-width:1.123581;"/>
   </g>
   <g id="patch_63">
    <path d="M 584.337232 603.86 
L 584.337232 109.484571 
" style="fill:none;stroke:#262626;stroke-linecap:square;stroke-linejoin:miter;stroke-width:2.5;"/>
   </g>
   <g id="patch_64">
    <path d="M 584.337232 603.86 
L 667.574375 603.86 
" style="fill:none;stroke:#262626;stroke-linecap:square;stroke-linejoin:miter;stroke-width:2.5;"/>
   </g>
  </g>
 </g>
 <defs>
  <clipPath id="p952264093d">
   <rect height="494.375429" width="482.775429" x="84.914375" y="109.484571"/>
  </clipPath>
  <clipPath id="pf6a40575dc">
   <rect height="85.237143" width="482.775429" x="84.914375" y="7.2"/>
  </clipPath>
  <clipPath id="pdea6f7f2a4">
   <rect height="494.375429" width="83.237143" x="584.337232" y="109.484571"/>
  </clipPath>
 </defs>
</svg>
