<?xml version="1.0" encoding="utf-8" standalone="no"?>
<!DOCTYPE svg PUBLIC "-//W3C//DTD SVG 1.1//EN"
  "http://www.w3.org/Graphics/SVG/1.1/DTD/svg11.dtd">
<svg height="675.079375pt" version="1.1" viewBox="0 0 688.771875 675.079375" width="688.771875pt" xmlns="http://www.w3.org/2000/svg" xmlns:xlink="http://www.w3.org/1999/xlink">
 <metadata>
  <rdf:RDF xmlns:cc="http://creativecommons.org/ns#" xmlns:dc="http://purl.org/dc/elements/1.1/" xmlns:rdf="http://www.w3.org/1999/02/22-rdf-syntax-ns#">
   <cc:Work>
    <dc:type rdf:resource="http://purl.org/dc/dcmitype/StillImage"/>
    <dc:date>2021-07-16T21:43:55.496418</dc:date>
    <dc:format>image/svg+xml</dc:format>
    <dc:creator>
     <cc:Agent>
      <dc:title>Matplotlib v3.4.2, https://matplotlib.org/</dc:title>
     </cc:Agent>
    </dc:creator>
   </cc:Work>
  </rdf:RDF>
 </metadata>
 <defs>
  <style type="text/css">*{stroke-linecap:butt;stroke-linejoin:round;}</style>
 </defs>
 <g id="figure_1">
  <g id="patch_1">
   <path d="M 0 675.079375 
L 688.771875 675.079375 
L 688.771875 0 
L 0 0 
z
" style="fill:#ffffff;"/>
  </g>
  <g id="axes_1">
   <g id="patch_2">
    <path d="M 98.911875 603.86 
L 581.687304 603.86 
L 581.687304 109.484571 
L 98.911875 109.484571 
z
" style="fill:none;"/>
   </g>
   <g id="matplotlib.axis_1">
    <g id="xtick_1">
     <g id="text_1">
      <!-- 0 -->
      <g style="fill:#262626;" transform="translate(113.63791 636.076563)scale(0.22 -0.22)">
       <defs>
        <path d="M 2034 4250 
Q 1547 4250 1301 3770 
Q 1056 3291 1056 2328 
Q 1056 1369 1301 889 
Q 1547 409 2034 409 
Q 2525 409 2770 889 
Q 3016 1369 3016 2328 
Q 3016 3291 2770 3770 
Q 2525 4250 2034 4250 
z
M 2034 4750 
Q 2819 4750 3233 4129 
Q 3647 3509 3647 2328 
Q 3647 1150 3233 529 
Q 2819 -91 2034 -91 
Q 1250 -91 836 529 
Q 422 1150 422 2328 
Q 422 3509 836 4129 
Q 1250 4750 2034 4750 
z
" id="DejaVuSans-30" transform="scale(0.015625)"/>
       </defs>
       <use xlink:href="#DejaVuSans-30"/>
      </g>
     </g>
    </g>
    <g id="xtick_2">
     <g id="text_2">
      <!-- 20000 -->
      <g style="fill:#262626;" transform="translate(173.464171 636.076563)scale(0.22 -0.22)">
       <defs>
        <path d="M 1228 531 
L 3431 531 
L 3431 0 
L 469 0 
L 469 531 
Q 828 903 1448 1529 
Q 2069 2156 2228 2338 
Q 2531 2678 2651 2914 
Q 2772 3150 2772 3378 
Q 2772 3750 2511 3984 
Q 2250 4219 1831 4219 
Q 1534 4219 1204 4116 
Q 875 4013 500 3803 
L 500 4441 
Q 881 4594 1212 4672 
Q 1544 4750 1819 4750 
Q 2544 4750 2975 4387 
Q 3406 4025 3406 3419 
Q 3406 3131 3298 2873 
Q 3191 2616 2906 2266 
Q 2828 2175 2409 1742 
Q 1991 1309 1228 531 
z
" id="DejaVuSans-32" transform="scale(0.015625)"/>
       </defs>
       <use xlink:href="#DejaVuSans-32"/>
       <use x="63.623047" xlink:href="#DejaVuSans-30"/>
       <use x="127.246094" xlink:href="#DejaVuSans-30"/>
       <use x="190.869141" xlink:href="#DejaVuSans-30"/>
       <use x="254.492188" xlink:href="#DejaVuSans-30"/>
      </g>
     </g>
    </g>
    <g id="xtick_3">
     <g id="text_3">
      <!-- 40000 -->
      <g style="fill:#262626;" transform="translate(261.285432 636.076563)scale(0.22 -0.22)">
       <defs>
        <path d="M 2419 4116 
L 825 1625 
L 2419 1625 
L 2419 4116 
z
M 2253 4666 
L 3047 4666 
L 3047 1625 
L 3713 1625 
L 3713 1100 
L 3047 1100 
L 3047 0 
L 2419 0 
L 2419 1100 
L 313 1100 
L 313 1709 
L 2253 4666 
z
" id="DejaVuSans-34" transform="scale(0.015625)"/>
       </defs>
       <use xlink:href="#DejaVuSans-34"/>
       <use x="63.623047" xlink:href="#DejaVuSans-30"/>
       <use x="127.246094" xlink:href="#DejaVuSans-30"/>
       <use x="190.869141" xlink:href="#DejaVuSans-30"/>
       <use x="254.492188" xlink:href="#DejaVuSans-30"/>
      </g>
     </g>
    </g>
    <g id="xtick_4">
     <g id="text_4">
      <!-- 60000 -->
      <g style="fill:#262626;" transform="translate(349.106693 636.076563)scale(0.22 -0.22)">
       <defs>
        <path d="M 2113 2584 
Q 1688 2584 1439 2293 
Q 1191 2003 1191 1497 
Q 1191 994 1439 701 
Q 1688 409 2113 409 
Q 2538 409 2786 701 
Q 3034 994 3034 1497 
Q 3034 2003 2786 2293 
Q 2538 2584 2113 2584 
z
M 3366 4563 
L 3366 3988 
Q 3128 4100 2886 4159 
Q 2644 4219 2406 4219 
Q 1781 4219 1451 3797 
Q 1122 3375 1075 2522 
Q 1259 2794 1537 2939 
Q 1816 3084 2150 3084 
Q 2853 3084 3261 2657 
Q 3669 2231 3669 1497 
Q 3669 778 3244 343 
Q 2819 -91 2113 -91 
Q 1303 -91 875 529 
Q 447 1150 447 2328 
Q 447 3434 972 4092 
Q 1497 4750 2381 4750 
Q 2619 4750 2861 4703 
Q 3103 4656 3366 4563 
z
" id="DejaVuSans-36" transform="scale(0.015625)"/>
       </defs>
       <use xlink:href="#DejaVuSans-36"/>
       <use x="63.623047" xlink:href="#DejaVuSans-30"/>
       <use x="127.246094" xlink:href="#DejaVuSans-30"/>
       <use x="190.869141" xlink:href="#DejaVuSans-30"/>
       <use x="254.492188" xlink:href="#DejaVuSans-30"/>
      </g>
     </g>
    </g>
    <g id="xtick_5">
     <g id="text_5">
      <!-- 80000 -->
      <g style="fill:#262626;" transform="translate(436.927955 636.076563)scale(0.22 -0.22)">
       <defs>
        <path d="M 2034 2216 
Q 1584 2216 1326 1975 
Q 1069 1734 1069 1313 
Q 1069 891 1326 650 
Q 1584 409 2034 409 
Q 2484 409 2743 651 
Q 3003 894 3003 1313 
Q 3003 1734 2745 1975 
Q 2488 2216 2034 2216 
z
M 1403 2484 
Q 997 2584 770 2862 
Q 544 3141 544 3541 
Q 544 4100 942 4425 
Q 1341 4750 2034 4750 
Q 2731 4750 3128 4425 
Q 3525 4100 3525 3541 
Q 3525 3141 3298 2862 
Q 3072 2584 2669 2484 
Q 3125 2378 3379 2068 
Q 3634 1759 3634 1313 
Q 3634 634 3220 271 
Q 2806 -91 2034 -91 
Q 1263 -91 848 271 
Q 434 634 434 1313 
Q 434 1759 690 2068 
Q 947 2378 1403 2484 
z
M 1172 3481 
Q 1172 3119 1398 2916 
Q 1625 2713 2034 2713 
Q 2441 2713 2670 2916 
Q 2900 3119 2900 3481 
Q 2900 3844 2670 4047 
Q 2441 4250 2034 4250 
Q 1625 4250 1398 4047 
Q 1172 3844 1172 3481 
z
" id="DejaVuSans-38" transform="scale(0.015625)"/>
       </defs>
       <use xlink:href="#DejaVuSans-38"/>
       <use x="63.623047" xlink:href="#DejaVuSans-30"/>
       <use x="127.246094" xlink:href="#DejaVuSans-30"/>
       <use x="190.869141" xlink:href="#DejaVuSans-30"/>
       <use x="254.492188" xlink:href="#DejaVuSans-30"/>
      </g>
     </g>
    </g>
    <g id="xtick_6">
     <g id="text_6">
      <!-- 100000 -->
      <g style="fill:#262626;" transform="translate(517.750466 636.076563)scale(0.22 -0.22)">
       <defs>
        <path d="M 794 531 
L 1825 531 
L 1825 4091 
L 703 3866 
L 703 4441 
L 1819 4666 
L 2450 4666 
L 2450 531 
L 3481 531 
L 3481 0 
L 794 0 
L 794 531 
z
" id="DejaVuSans-31" transform="scale(0.015625)"/>
       </defs>
       <use xlink:href="#DejaVuSans-31"/>
       <use x="63.623047" xlink:href="#DejaVuSans-30"/>
       <use x="127.246094" xlink:href="#DejaVuSans-30"/>
       <use x="190.869141" xlink:href="#DejaVuSans-30"/>
       <use x="254.492188" xlink:href="#DejaVuSans-30"/>
       <use x="318.115234" xlink:href="#DejaVuSans-30"/>
      </g>
     </g>
    </g>
    <g id="text_7">
     <!-- MDTU -->
     <g style="fill:#262626;" transform="translate(304.593964 662.888125)scale(0.24 -0.24)">
      <defs>
       <path d="M 628 4666 
L 1569 4666 
L 2759 1491 
L 3956 4666 
L 4897 4666 
L 4897 0 
L 4281 0 
L 4281 4097 
L 3078 897 
L 2444 897 
L 1241 4097 
L 1241 0 
L 628 0 
L 628 4666 
z
" id="DejaVuSans-4d" transform="scale(0.015625)"/>
       <path d="M 1259 4147 
L 1259 519 
L 2022 519 
Q 2988 519 3436 956 
Q 3884 1394 3884 2338 
Q 3884 3275 3436 3711 
Q 2988 4147 2022 4147 
L 1259 4147 
z
M 628 4666 
L 1925 4666 
Q 3281 4666 3915 4102 
Q 4550 3538 4550 2338 
Q 4550 1131 3912 565 
Q 3275 0 1925 0 
L 628 0 
L 628 4666 
z
" id="DejaVuSans-44" transform="scale(0.015625)"/>
       <path d="M -19 4666 
L 3928 4666 
L 3928 4134 
L 2272 4134 
L 2272 0 
L 1638 0 
L 1638 4134 
L -19 4134 
L -19 4666 
z
" id="DejaVuSans-54" transform="scale(0.015625)"/>
       <path d="M 556 4666 
L 1191 4666 
L 1191 1831 
Q 1191 1081 1462 751 
Q 1734 422 2344 422 
Q 2950 422 3222 751 
Q 3494 1081 3494 1831 
L 3494 4666 
L 4128 4666 
L 4128 1753 
Q 4128 841 3676 375 
Q 3225 -91 2344 -91 
Q 1459 -91 1007 375 
Q 556 841 556 1753 
L 556 4666 
z
" id="DejaVuSans-55" transform="scale(0.015625)"/>
      </defs>
      <use xlink:href="#DejaVuSans-4d"/>
      <use x="86.279297" xlink:href="#DejaVuSans-44"/>
      <use x="163.28125" xlink:href="#DejaVuSans-54"/>
      <use x="224.365234" xlink:href="#DejaVuSans-55"/>
     </g>
    </g>
   </g>
   <g id="matplotlib.axis_2">
    <g id="ytick_1">
     <g id="text_8">
      <!-- 0.25 -->
      <g style="fill:#262626;" transform="translate(34.4275 580.741973)scale(0.22 -0.22)">
       <defs>
        <path d="M 684 794 
L 1344 794 
L 1344 0 
L 684 0 
L 684 794 
z
" id="DejaVuSans-2e" transform="scale(0.015625)"/>
        <path d="M 691 4666 
L 3169 4666 
L 3169 4134 
L 1269 4134 
L 1269 2991 
Q 1406 3038 1543 3061 
Q 1681 3084 1819 3084 
Q 2600 3084 3056 2656 
Q 3513 2228 3513 1497 
Q 3513 744 3044 326 
Q 2575 -91 1722 -91 
Q 1428 -91 1123 -41 
Q 819 9 494 109 
L 494 744 
Q 775 591 1075 516 
Q 1375 441 1709 441 
Q 2250 441 2565 725 
Q 2881 1009 2881 1497 
Q 2881 1984 2565 2268 
Q 2250 2553 1709 2553 
Q 1456 2553 1204 2497 
Q 953 2441 691 2322 
L 691 4666 
z
" id="DejaVuSans-35" transform="scale(0.015625)"/>
       </defs>
       <use xlink:href="#DejaVuSans-30"/>
       <use x="63.623047" xlink:href="#DejaVuSans-2e"/>
       <use x="95.410156" xlink:href="#DejaVuSans-32"/>
       <use x="159.033203" xlink:href="#DejaVuSans-35"/>
      </g>
     </g>
    </g>
    <g id="ytick_2">
     <g id="text_9">
      <!-- 0.50 -->
      <g style="fill:#262626;" transform="translate(34.4275 524.933228)scale(0.22 -0.22)">
       <use xlink:href="#DejaVuSans-30"/>
       <use x="63.623047" xlink:href="#DejaVuSans-2e"/>
       <use x="95.410156" xlink:href="#DejaVuSans-35"/>
       <use x="159.033203" xlink:href="#DejaVuSans-30"/>
      </g>
     </g>
    </g>
    <g id="ytick_3">
     <g id="text_10">
      <!-- 0.75 -->
      <g style="fill:#262626;" transform="translate(34.4275 469.124482)scale(0.22 -0.22)">
       <defs>
        <path d="M 525 4666 
L 3525 4666 
L 3525 4397 
L 1831 0 
L 1172 0 
L 2766 4134 
L 525 4134 
L 525 4666 
z
" id="DejaVuSans-37" transform="scale(0.015625)"/>
       </defs>
       <use xlink:href="#DejaVuSans-30"/>
       <use x="63.623047" xlink:href="#DejaVuSans-2e"/>
       <use x="95.410156" xlink:href="#DejaVuSans-37"/>
       <use x="159.033203" xlink:href="#DejaVuSans-35"/>
      </g>
     </g>
    </g>
    <g id="ytick_4">
     <g id="text_11">
      <!-- 1.00 -->
      <g style="fill:#262626;" transform="translate(34.4275 413.315736)scale(0.22 -0.22)">
       <use xlink:href="#DejaVuSans-31"/>
       <use x="63.623047" xlink:href="#DejaVuSans-2e"/>
       <use x="95.410156" xlink:href="#DejaVuSans-30"/>
       <use x="159.033203" xlink:href="#DejaVuSans-30"/>
      </g>
     </g>
    </g>
    <g id="ytick_5">
     <g id="text_12">
      <!-- 1.25 -->
      <g style="fill:#262626;" transform="translate(34.4275 357.506991)scale(0.22 -0.22)">
       <use xlink:href="#DejaVuSans-31"/>
       <use x="63.623047" xlink:href="#DejaVuSans-2e"/>
       <use x="95.410156" xlink:href="#DejaVuSans-32"/>
       <use x="159.033203" xlink:href="#DejaVuSans-35"/>
      </g>
     </g>
    </g>
    <g id="ytick_6">
     <g id="text_13">
      <!-- 1.50 -->
      <g style="fill:#262626;" transform="translate(34.4275 301.698245)scale(0.22 -0.22)">
       <use xlink:href="#DejaVuSans-31"/>
       <use x="63.623047" xlink:href="#DejaVuSans-2e"/>
       <use x="95.410156" xlink:href="#DejaVuSans-35"/>
       <use x="159.033203" xlink:href="#DejaVuSans-30"/>
      </g>
     </g>
    </g>
    <g id="ytick_7">
     <g id="text_14">
      <!-- 1.75 -->
      <g style="fill:#262626;" transform="translate(34.4275 245.8895)scale(0.22 -0.22)">
       <use xlink:href="#DejaVuSans-31"/>
       <use x="63.623047" xlink:href="#DejaVuSans-2e"/>
       <use x="95.410156" xlink:href="#DejaVuSans-37"/>
       <use x="159.033203" xlink:href="#DejaVuSans-35"/>
      </g>
     </g>
    </g>
    <g id="ytick_8">
     <g id="text_15">
      <!-- 2.00 -->
      <g style="fill:#262626;" transform="translate(34.4275 190.080754)scale(0.22 -0.22)">
       <use xlink:href="#DejaVuSans-32"/>
       <use x="63.623047" xlink:href="#DejaVuSans-2e"/>
       <use x="95.410156" xlink:href="#DejaVuSans-30"/>
       <use x="159.033203" xlink:href="#DejaVuSans-30"/>
      </g>
     </g>
    </g>
    <g id="ytick_9">
     <g id="text_16">
      <!-- 2.25 -->
      <g style="fill:#262626;" transform="translate(34.4275 134.272009)scale(0.22 -0.22)">
       <use xlink:href="#DejaVuSans-32"/>
       <use x="63.623047" xlink:href="#DejaVuSans-2e"/>
       <use x="95.410156" xlink:href="#DejaVuSans-32"/>
       <use x="159.033203" xlink:href="#DejaVuSans-35"/>
      </g>
     </g>
    </g>
    <g id="text_17">
     <!-- $E$ -->
     <g style="fill:#262626;" transform="translate(25.43625 364.352286)rotate(-90)scale(0.24 -0.24)">
      <defs>
       <path d="M 1081 4666 
L 4031 4666 
L 3928 4134 
L 1606 4134 
L 1338 2753 
L 3566 2753 
L 3463 2222 
L 1234 2222 
L 909 531 
L 3284 531 
L 3181 0 
L 172 0 
L 1081 4666 
z
" id="DejaVuSans-Oblique-45" transform="scale(0.015625)"/>
      </defs>
      <use transform="translate(0 0.09375)" xlink:href="#DejaVuSans-Oblique-45"/>
     </g>
    </g>
   </g>
   <g id="line2d_1">
    <path clip-path="url(#p9a1ca35d74)" d="M 120.856213 421.968579 
L 121.075766 281.931634 
L 121.295319 509.060833 
L 121.514872 548.475683 
L 121.734425 464.785019 
L 121.953978 427.111742 
L 122.173532 523.347847 
L 122.393085 472.266389 
L 122.832191 435.220434 
L 123.051744 505.016664 
L 123.271297 400.79057 
L 123.710404 529.216594 
L 123.929957 447.410137 
L 124.14951 510.676951 
L 124.369063 395.331428 
L 124.808169 540.778301 
L 125.027723 410.505159 
L 125.247276 359.159047 
L 125.466829 499.722099 
L 125.686382 487.976561 
L 125.905935 490.774897 
L 126.125488 443.826417 
L 126.345041 538.864918 
L 126.564595 543.760641 
L 126.784148 381.75621 
L 127.003701 510.3792 
L 127.223254 472.290258 
L 127.442807 454.054866 
L 127.66236 520.911165 
L 127.881914 235.131794 
L 128.101467 434.155397 
L 128.32102 465.17035 
L 128.540573 285.929759 
L 128.760126 532.844066 
L 129.199232 284.376583 
L 129.418786 480.573798 
L 129.638339 370.862692 
L 129.857892 479.710681 
L 130.296998 545.935453 
L 130.516551 466.437425 
L 130.736105 432.044499 
L 130.955658 436.40588 
L 131.175211 369.791761 
L 131.394764 543.047854 
L 131.614317 519.60016 
L 131.83387 521.835382 
L 132.053423 425.846571 
L 132.272977 507.230343 
L 132.49253 434.291583 
L 132.712083 431.493845 
L 132.931636 536.893206 
L 133.151189 475.470549 
L 133.370742 525.845242 
L 133.590296 339.609551 
L 133.809849 485.414627 
L 134.029402 408.77234 
L 134.248955 477.373546 
L 134.688061 556.518567 
L 134.907614 471.341932 
L 135.127168 478.735547 
L 135.346721 492.367798 
L 135.566274 473.618003 
L 135.785827 131.956182 
L 136.00538 494.876546 
L 136.224933 443.171839 
L 136.444487 339.116373 
L 136.66404 437.309233 
L 136.883593 424.982329 
L 137.103146 457.620987 
L 137.322699 441.319252 
L 137.542252 480.802246 
L 137.761805 455.104035 
L 137.981359 496.113664 
L 138.200912 563.693392 
L 138.420465 563.136013 
L 138.640018 437.864777 
L 138.859571 479.093754 
L 139.079124 410.787139 
L 139.298678 427.912072 
L 139.518231 324.145069 
L 139.957337 525.681529 
L 140.17689 435.539614 
L 140.396443 472.684551 
L 140.615996 303.056722 
L 140.83555 461.256712 
L 141.055103 496.940509 
L 141.274656 442.273043 
L 141.494209 538.396895 
L 141.713762 482.423548 
L 141.933315 506.507907 
L 142.372422 490.174318 
L 142.591975 519.22026 
L 142.811528 441.220075 
L 143.031081 458.259621 
L 143.250634 457.513513 
L 143.470187 464.223393 
L 143.689741 427.056889 
L 143.909294 444.15071 
L 144.128847 529.989388 
L 144.3484 432.78152 
L 144.567953 427.280257 
L 144.787506 439.065739 
L 145.00706 519.189101 
L 145.226613 404.795278 
L 145.446166 510.974207 
L 145.665719 425.947112 
L 145.885272 467.599691 
L 146.104825 444.52788 
L 146.324378 523.076364 
L 146.543932 371.506705 
L 146.763485 326.165765 
L 147.202591 501.921117 
L 147.422144 466.739186 
L 147.641697 508.862537 
L 147.861251 420.742867 
L 148.300357 482.904542 
L 148.51991 494.166713 
L 148.739463 413.560205 
L 148.959016 421.378186 
L 149.178569 419.138768 
L 149.398123 518.49637 
L 149.617676 421.582417 
L 149.837229 471.347895 
L 150.056782 471.754765 
L 150.276335 511.040653 
L 150.495888 519.798196 
L 150.715441 390.374706 
L 150.934995 501.024826 
L 151.154548 481.991964 
L 151.374101 452.337256 
L 151.593654 468.295299 
L 151.813207 507.73795 
L 152.252314 419.518051 
L 152.471867 367.971131 
L 152.69142 524.302705 
L 152.910973 281.323358 
L 153.130526 486.369458 
L 153.350079 502.095902 
L 153.789186 461.030796 
L 154.008739 524.431402 
L 154.228292 496.870005 
L 154.667398 245.695473 
L 154.886951 497.461372 
L 155.106505 452.731707 
L 155.326058 461.245447 
L 155.545611 423.683727 
L 155.984717 530.23812 
L 156.20427 418.513308 
L 156.423823 503.784801 
L 156.643377 448.961287 
L 156.86293 513.110961 
L 157.082483 491.809285 
L 157.302036 439.505383 
L 157.741142 527.754155 
L 157.960696 493.281198 
L 158.180249 522.276688 
L 158.619355 480.484626 
L 158.838908 307.734879 
L 159.058461 315.949287 
L 159.278014 501.669403 
L 159.497568 514.84616 
L 159.717121 426.364347 
L 159.936674 447.516826 
L 160.37578 523.70977 
L 160.595333 413.371576 
L 160.814887 423.613462 
L 161.03444 521.58147 
L 161.253993 525.657453 
L 161.473546 374.743083 
L 161.693099 432.292982 
L 161.912652 417.005475 
L 162.132205 538.512073 
L 162.351759 575.995034 
L 162.571312 309.657607 
L 162.790865 519.351382 
L 163.010418 455.098798 
L 163.449524 501.664621 
L 163.669078 480.593095 
L 163.888631 382.636049 
L 164.108184 460.756091 
L 164.327737 345.043838 
L 164.54729 505.686691 
L 164.766843 507.35437 
L 164.986396 478.854822 
L 165.20595 531.807744 
L 165.425503 481.054543 
L 165.645056 474.525558 
L 165.864609 534.362527 
L 166.084162 397.429694 
L 166.303715 384.850366 
L 166.523269 462.906313 
L 166.742822 494.026696 
L 166.962375 390.492363 
L 167.181928 459.457638 
L 167.401481 269.237311 
L 167.621034 497.57456 
L 167.840587 461.864873 
L 168.060141 518.766491 
L 168.279694 425.255492 
L 168.499247 491.183565 
L 168.7188 469.232195 
L 168.938353 419.550082 
L 169.37746 495.54307 
L 169.816566 303.494505 
L 170.036119 494.250258 
L 170.255672 374.071823 
L 170.475225 456.026586 
L 170.694778 426.077074 
L 170.914332 468.212035 
L 171.133885 359.494278 
L 171.353438 421.585631 
L 171.572991 353.5853 
L 171.792544 496.585288 
L 172.012097 470.75215 
L 172.231651 464.044814 
L 172.451204 409.063179 
L 172.670757 432.988367 
L 172.89031 441.813083 
L 173.109863 486.787175 
L 173.329416 491.826498 
L 173.548969 363.173103 
L 173.988076 516.430481 
L 174.207629 529.990657 
L 174.646735 450.575557 
L 174.866288 550.926626 
L 175.085842 398.085219 
L 175.305395 358.672541 
L 175.524948 376.507413 
L 175.744501 509.702196 
L 175.964054 522.12668 
L 176.183607 438.335428 
L 176.40316 484.950066 
L 176.622714 445.035696 
L 176.842267 519.724143 
L 177.06182 511.387037 
L 177.281373 524.724326 
L 177.500926 520.820746 
L 177.720479 433.181487 
L 177.940032 427.799302 
L 178.159586 429.174954 
L 178.379139 538.393472 
L 178.598692 515.028142 
L 178.818245 410.6527 
L 179.037798 529.519021 
L 179.257351 384.556498 
L 179.476905 493.392218 
L 179.696458 525.30668 
L 179.916011 485.263004 
L 180.355117 376.777584 
L 181.013777 513.621261 
L 181.23333 452.471669 
L 181.452883 510.013454 
L 181.672436 419.145481 
L 181.891989 455.127908 
L 182.111542 543.355836 
L 182.331096 442.67995 
L 182.550649 497.110862 
L 182.770202 361.22273 
L 182.989755 475.401658 
L 183.209308 471.192582 
L 183.428861 497.280571 
L 183.867968 473.232009 
L 184.087521 520.62169 
L 184.307074 481.028765 
L 184.526627 472.045522 
L 184.74618 232.118077 
L 184.965733 522.54044 
L 185.185287 508.224092 
L 185.40484 537.619724 
L 185.624393 386.267665 
L 185.843946 517.903787 
L 186.063499 517.509099 
L 186.283052 449.736041 
L 186.502605 536.468447 
L 186.722159 545.316028 
L 186.941712 390.672579 
L 187.161265 421.556118 
L 187.380818 503.006881 
L 187.600371 462.039277 
L 187.819924 504.100402 
L 188.039478 410.474709 
L 188.259031 487.66032 
L 188.478584 354.660054 
L 188.698137 455.324342 
L 188.91769 396.106653 
L 189.137243 405.768462 
L 189.356796 537.327726 
L 189.57635 472.963799 
L 189.795903 511.023595 
L 190.015456 396.255722 
L 190.235009 504.264057 
L 190.454562 338.64524 
L 190.674115 487.870597 
L 190.893669 464.265599 
L 191.113222 495.425176 
L 191.332775 461.447495 
L 191.552328 488.641871 
L 191.771881 462.926219 
L 191.991434 464.335301 
L 192.210987 276.048294 
L 192.430541 487.863255 
L 192.650094 445.901098 
L 192.869647 447.357009 
L 193.0892 392.274353 
L 193.308753 502.324702 
L 193.528306 534.93922 
L 193.74786 476.832065 
L 194.186966 555.082224 
L 194.406519 365.854086 
L 194.626072 528.258078 
L 194.845625 470.974651 
L 195.065178 471.408443 
L 195.284732 487.836049 
L 195.504285 420.588054 
L 195.723838 534.897518 
L 195.943391 496.925974 
L 196.162944 481.408445 
L 196.382497 500.025271 
L 196.602051 404.859292 
L 196.821604 453.953907 
L 197.041157 429.932764 
L 197.26071 517.020707 
L 197.480263 429.911061 
L 197.699816 488.458254 
L 197.919369 429.375965 
L 198.138923 404.683784 
L 198.358476 509.806395 
L 198.578029 472.62771 
L 198.797582 349.739733 
L 199.236688 545.292125 
L 199.456242 425.861024 
L 199.895348 521.788553 
L 200.114901 470.141689 
L 200.334454 531.153997 
L 200.554007 321.179702 
L 200.77356 499.733649 
L 201.212667 357.519295 
L 201.43222 385.707724 
L 201.651773 491.029487 
L 201.871326 387.988552 
L 202.090879 391.908897 
L 202.529986 474.515024 
L 202.749539 370.048272 
L 202.969092 470.485845 
L 203.188645 455.680612 
L 203.408198 543.040751 
L 203.847305 376.66168 
L 204.066858 494.997107 
L 204.286411 475.221849 
L 204.505964 522.036739 
L 204.725517 444.716114 
L 204.94507 523.510159 
L 205.164623 539.595905 
L 205.384177 424.793004 
L 205.823283 504.969073 
L 206.042836 505.535797 
L 206.262389 382.2151 
L 206.481942 542.477578 
L 206.701496 348.22026 
L 206.921049 469.233736 
L 207.140602 512.927446 
L 207.360155 529.129677 
L 207.579708 534.491539 
L 207.799261 535.181815 
L 208.018814 408.485107 
L 208.238368 545.10334 
L 208.457921 555.71678 
L 208.677474 484.148184 
L 208.897027 472.474711 
L 209.11658 509.661899 
L 209.336133 445.306593 
L 209.555687 475.642836 
L 209.77524 543.707508 
L 209.994793 533.433243 
L 210.214346 405.321781 
L 210.653452 489.5285 
L 210.873005 423.941788 
L 211.092559 524.311357 
L 211.312112 466.093511 
L 211.531665 483.446447 
L 211.751218 391.507126 
L 211.970771 499.582063 
L 212.190324 511.492448 
L 212.409878 511.084558 
L 212.629431 452.158294 
L 212.848984 447.57327 
L 213.068537 379.577466 
L 213.28809 490.953937 
L 213.507643 454.049038 
L 213.727196 443.911524 
L 213.94675 394.556798 
L 214.166303 502.407729 
L 214.385856 485.075053 
L 214.605409 404.40253 
L 215.044515 551.220904 
L 215.264069 420.546527 
L 215.483622 428.968661 
L 215.703175 472.678725 
L 215.922728 445.885219 
L 216.142281 544.559713 
L 216.581387 444.235236 
L 216.800941 533.30436 
L 217.020494 400.848263 
L 217.240047 454.847837 
L 217.4596 551.705731 
L 217.679153 416.008125 
L 217.898706 462.85487 
L 218.11826 440.174912 
L 218.337813 430.908754 
L 218.557366 502.022884 
L 218.776919 524.455907 
L 218.996472 345.103797 
L 219.216025 512.159755 
L 219.435578 448.595872 
L 219.655132 482.211183 
L 219.874685 477.083854 
L 220.313791 517.807167 
L 220.752897 484.552549 
L 220.972451 523.098985 
L 221.192004 504.705378 
L 221.411557 356.618744 
L 221.63111 496.097658 
L 221.850663 526.221128 
L 222.070216 535.419953 
L 222.289769 439.926261 
L 222.509323 512.088132 
L 222.728876 440.6608 
L 223.167982 532.291199 
L 223.387535 417.736267 
L 223.607088 474.735914 
L 223.826642 473.882618 
L 224.265748 431.382089 
L 224.485301 394.326704 
L 224.704854 471.416689 
L 224.924407 469.361814 
L 225.14396 471.105458 
L 225.363514 315.287925 
L 225.583067 332.006183 
L 225.80262 422.969655 
L 226.022173 405.538038 
L 226.241726 506.286923 
L 226.461279 298.679869 
L 226.680833 502.892213 
L 226.900386 531.903198 
L 227.119939 491.748223 
L 227.339492 488.699229 
L 227.559045 329.288114 
L 227.778598 396.366811 
L 227.998151 520.442661 
L 228.217705 518.239783 
L 228.437258 495.819746 
L 228.656811 557.162305 
L 229.095917 480.51065 
L 229.31547 543.263016 
L 229.535023 336.696076 
L 229.754577 391.49131 
L 229.97413 490.610216 
L 230.193683 502.16192 
L 230.413236 523.055594 
L 230.632789 427.512815 
L 230.852342 461.981504 
L 231.071896 421.90106 
L 231.291449 426.707821 
L 231.511002 541.462205 
L 231.730555 459.627051 
L 231.950108 452.871593 
L 232.389214 506.991316 
L 232.608768 442.00356 
L 232.828321 488.912721 
L 233.047874 463.360149 
L 233.267427 416.205329 
L 233.48698 440.094725 
L 233.706533 420.421145 
L 233.926087 466.005276 
L 234.14564 386.084177 
L 234.365193 462.398252 
L 234.584746 492.737262 
L 234.804299 540.345887 
L 235.023852 545.259629 
L 235.243405 447.825906 
L 235.462959 506.874085 
L 235.682512 534.192541 
L 235.902065 501.022286 
L 236.121618 230.220801 
L 236.341171 478.428503 
L 236.560724 437.392481 
L 236.780278 532.51225 
L 236.999831 360.165757 
L 237.219384 457.196794 
L 237.438937 431.419487 
L 237.65849 515.184809 
L 237.878043 499.850714 
L 238.097596 467.694056 
L 238.31715 413.904874 
L 238.756256 497.698582 
L 238.975809 466.150622 
L 239.195362 416.901298 
L 239.414915 224.137614 
L 239.634469 478.13225 
L 239.854022 471.58388 
L 240.073575 518.250033 
L 240.293128 509.223021 
L 240.732234 399.116236 
L 240.951787 422.760522 
L 241.171341 472.50034 
L 241.390894 438.570829 
L 241.610447 437.844741 
L 241.83 546.743057 
L 242.049553 490.809547 
L 242.269106 385.472176 
L 242.48866 489.959628 
L 242.708213 479.95373 
L 242.927766 509.463528 
L 243.147319 485.332892 
L 243.366872 332.91819 
L 243.586425 493.988578 
L 243.805978 352.533777 
L 244.025532 463.519883 
L 244.245085 410.131923 
L 244.464638 425.683984 
L 244.684191 539.961436 
L 244.903744 529.611172 
L 245.123297 546.799695 
L 245.342851 449.707692 
L 245.562404 493.055555 
L 245.781957 309.892726 
L 246.00151 486.599566 
L 246.221063 339.300611 
L 246.440616 525.342736 
L 246.660169 414.834351 
L 246.879723 522.646709 
L 247.099276 466.919926 
L 247.538382 429.295449 
L 247.757935 452.19056 
L 247.977488 528.873226 
L 248.197042 319.500961 
L 248.416595 531.246523 
L 248.636148 544.718172 
L 248.855701 461.461988 
L 249.075254 484.575587 
L 249.294807 427.697524 
L 249.51436 457.150552 
L 249.733914 463.147579 
L 249.953467 251.230018 
L 250.17302 493.693619 
L 250.392573 468.436754 
L 250.612126 477.129491 
L 250.831679 513.768578 
L 251.051233 376.701582 
L 251.270786 581.38839 
L 251.490339 430.685163 
L 251.709892 483.772155 
L 251.929445 443.513464 
L 252.148998 370.022189 
L 252.368551 415.769944 
L 252.588105 415.169704 
L 252.807658 458.158625 
L 253.027211 277.123893 
L 253.246764 542.128245 
L 253.466317 500.722691 
L 253.68587 538.588377 
L 253.905424 510.112157 
L 254.34453 493.780555 
L 254.564083 356.610364 
L 254.783636 434.115585 
L 255.222742 485.403562 
L 255.442296 478.100614 
L 255.661849 516.971429 
L 255.881402 503.228716 
L 256.100955 478.696593 
L 256.320508 391.037558 
L 256.759614 500.367003 
L 256.979168 434.532003 
L 257.198721 507.126583 
L 257.418274 503.43474 
L 257.637827 292.661473 
L 257.85738 506.588693 
L 258.076933 418.651382 
L 258.296487 441.237538 
L 258.51604 477.080754 
L 258.735593 483.629306 
L 258.955146 476.70931 
L 259.174699 542.804878 
L 259.394252 424.021327 
L 259.613805 464.934659 
L 260.052912 289.791198 
L 260.272465 375.767277 
L 260.492018 528.271458 
L 260.711571 514.409151 
L 260.931124 252.269181 
L 261.150678 412.009285 
L 261.370231 487.090438 
L 261.589784 382.074269 
L 261.809337 526.556292 
L 262.02889 276.952078 
L 262.248443 510.592887 
L 262.467996 299.482877 
L 262.907103 458.917584 
L 263.126656 448.037474 
L 263.346209 517.661345 
L 263.565762 356.988772 
L 263.785315 490.305808 
L 264.004869 428.522912 
L 264.224422 403.440886 
L 264.443975 421.446866 
L 264.663528 290.694613 
L 264.883081 553.505629 
L 265.102634 484.517849 
L 265.322187 548.083373 
L 265.541741 484.01879 
L 265.761294 471.219607 
L 265.980847 524.172897 
L 266.2004 446.014836 
L 266.419953 507.583099 
L 266.639506 375.694463 
L 266.85906 438.922522 
L 267.078613 458.670242 
L 267.298166 493.880661 
L 267.517719 482.398347 
L 267.737272 430.495313 
L 268.176378 547.105767 
L 268.395932 512.972605 
L 268.615485 447.989163 
L 268.835038 488.027315 
L 269.054591 435.189124 
L 269.274144 501.304808 
L 269.493697 422.832363 
L 269.713251 473.895877 
L 269.932804 401.579249 
L 270.152357 504.028485 
L 270.37191 535.811961 
L 270.811016 497.991781 
L 271.030569 303.063496 
L 271.250123 528.785394 
L 271.689229 514.325541 
L 271.908782 443.087912 
L 272.128335 493.808727 
L 272.347888 480.373356 
L 272.567442 435.208152 
L 272.786995 503.472639 
L 273.006548 483.419064 
L 273.226101 501.558143 
L 273.445654 447.177517 
L 273.665207 434.605787 
L 274.104314 342.881872 
L 274.323867 461.023331 
L 274.54342 480.16666 
L 274.762973 350.96355 
L 274.982526 523.601033 
L 275.202079 332.015697 
L 275.641186 488.97049 
L 275.860739 425.108988 
L 276.299845 532.349065 
L 276.738951 357.207805 
L 277.178058 527.786224 
L 277.397611 377.319078 
L 277.617164 507.273364 
L 277.836717 461.811184 
L 278.05627 381.462471 
L 278.275824 349.996037 
L 278.71493 465.48701 
L 278.934483 476.761172 
L 279.154036 374.136146 
L 279.373589 535.302712 
L 279.812696 430.584181 
L 280.032249 474.929673 
L 280.251802 409.556253 
L 280.471355 387.590122 
L 280.690908 421.851475 
L 280.910461 505.245406 
L 281.130014 445.735125 
L 281.349568 440.862397 
L 281.569121 442.52646 
L 281.788674 522.626148 
L 282.008227 502.915646 
L 282.22778 402.505141 
L 282.447333 448.56394 
L 282.666887 408.729431 
L 282.88644 407.526679 
L 283.105993 547.713595 
L 283.545099 497.472397 
L 283.764652 428.555035 
L 283.984205 531.852911 
L 284.203759 452.198609 
L 284.423312 554.083979 
L 284.642865 531.813381 
L 285.081971 458.716737 
L 285.301524 500.064211 
L 285.521078 410.530111 
L 285.740631 468.469768 
L 285.960184 355.135631 
L 286.179737 423.488005 
L 286.39929 422.901498 
L 286.618843 484.414306 
L 287.05795 415.795269 
L 287.277503 509.767025 
L 287.497056 555.918733 
L 287.716609 482.04656 
L 287.936162 507.02904 
L 288.155715 415.771709 
L 288.375269 386.36097 
L 288.814375 530.656512 
L 289.033928 470.892529 
L 289.692587 509.596929 
L 289.912141 516.334223 
L 290.131694 383.49728 
L 290.351247 507.099175 
L 290.5708 414.325504 
L 290.790353 504.979847 
L 291.009906 417.181399 
L 291.22946 511.646509 
L 291.449013 495.589965 
L 291.668566 416.049017 
L 291.888119 516.876557 
L 292.107672 406.983577 
L 292.327225 482.085908 
L 292.546778 505.32257 
L 292.985885 373.516695 
L 293.205438 425.77415 
L 293.424991 393.936264 
L 293.644544 447.802208 
L 293.864097 416.985516 
L 294.083651 406.575494 
L 294.303204 466.715719 
L 294.522757 287.902628 
L 294.74231 555.199416 
L 295.181416 345.98741 
L 295.400969 479.894782 
L 295.620523 412.643291 
L 295.840076 524.628995 
L 296.059629 448.361503 
L 296.498735 530.416184 
L 296.718288 416.565971 
L 296.937842 410.669677 
L 297.157395 389.232985 
L 297.596501 464.07854 
L 297.816054 433.809256 
L 298.035607 501.164567 
L 298.25516 452.533171 
L 298.474714 521.276273 
L 298.694267 525.016771 
L 298.91382 509.089477 
L 299.133373 455.278884 
L 299.352926 560.136567 
L 299.572479 391.730587 
L 299.792033 380.722136 
L 300.011586 212.750507 
L 300.231139 388.251705 
L 300.450692 445.81752 
L 300.670245 398.105727 
L 300.889798 420.489978 
L 301.328905 560.514653 
L 301.548458 503.623617 
L 301.768011 415.697021 
L 301.987564 444.859055 
L 302.207117 536.263537 
L 302.42667 505.952247 
L 302.646224 527.774483 
L 302.865777 467.802154 
L 303.08533 462.729984 
L 303.304883 339.744462 
L 303.524436 551.919108 
L 303.743989 469.033186 
L 303.963542 453.083001 
L 304.183096 452.371224 
L 304.402649 417.061589 
L 304.622202 411.135881 
L 304.841755 376.119403 
L 305.061308 480.300222 
L 305.280861 367.36177 
L 305.719968 505.194402 
L 305.939521 470.644502 
L 306.159074 378.222734 
L 306.378627 517.808786 
L 306.59818 458.756347 
L 306.817733 369.443003 
L 307.037287 483.379512 
L 307.25684 499.595327 
L 307.476393 481.102904 
L 307.695946 527.346815 
L 308.135052 401.921185 
L 308.354605 515.142086 
L 308.574159 504.821908 
L 308.793712 397.244407 
L 309.013265 519.838926 
L 309.232818 465.921913 
L 309.452371 530.679615 
L 309.671924 391.825216 
L 309.891478 494.44766 
L 310.111031 507.953401 
L 310.330584 423.652692 
L 310.550137 510.303777 
L 310.76969 433.906774 
L 310.989243 478.423833 
L 311.208796 491.095826 
L 311.42835 527.808053 
L 311.647903 418.219124 
L 311.867456 436.43273 
L 312.306562 391.795686 
L 312.745669 558.355321 
L 312.965222 300.495657 
L 313.184775 351.255817 
L 313.404328 464.071206 
L 313.623881 348.480279 
L 313.843434 481.938034 
L 314.062987 422.257907 
L 314.282541 489.538513 
L 314.502094 491.558858 
L 314.721647 410.281604 
L 314.9412 420.758251 
L 315.160753 403.332526 
L 315.380306 468.01208 
L 315.59986 487.501799 
L 315.819413 482.344717 
L 316.038966 513.072592 
L 316.258519 517.845383 
L 316.697625 339.881235 
L 317.136732 394.541692 
L 317.356285 475.860385 
L 317.575838 450.702432 
L 317.795391 523.365402 
L 318.014944 395.4088 
L 318.234497 463.158055 
L 318.454051 368.418951 
L 318.673604 534.135749 
L 318.893157 466.444551 
L 319.11271 479.766652 
L 319.332263 458.802481 
L 319.551816 465.461774 
L 319.771369 357.292262 
L 319.990923 480.7269 
L 320.210476 473.213899 
L 320.430029 417.372175 
L 320.649582 540.086906 
L 320.869135 457.453473 
L 321.088688 458.004263 
L 321.308242 467.629868 
L 321.527795 492.910443 
L 321.747348 369.511616 
L 321.966901 530.610004 
L 322.186454 522.453016 
L 322.406007 406.254922 
L 322.845114 475.571534 
L 323.064667 390.127492 
L 323.28422 508.220433 
L 323.503773 504.57821 
L 323.723326 390.779975 
L 323.942879 412.016371 
L 324.162433 450.700284 
L 324.381986 521.694834 
L 324.601539 435.217996 
L 324.821092 477.665524 
L 325.260198 462.2732 
L 325.479751 506.470324 
L 325.699305 334.255638 
L 326.138411 516.189489 
L 326.357964 456.317089 
L 326.577517 320.382201 
L 326.79707 513.53296 
L 327.016624 531.229161 
L 327.236177 481.427111 
L 327.45573 399.730995 
L 327.675283 364.231253 
L 327.894836 406.326566 
L 328.114389 411.506911 
L 328.333942 430.726894 
L 328.553496 510.27291 
L 328.773049 449.9739 
L 328.992602 449.4817 
L 329.212155 419.916688 
L 329.431708 452.042189 
L 329.651261 504.863849 
L 329.870815 461.776243 
L 330.090368 387.399632 
L 330.309921 488.56171 
L 330.749027 561.063016 
L 330.96858 398.058716 
L 331.188133 426.552071 
L 331.407687 538.4821 
L 331.62724 399.596153 
L 331.846793 387.1126 
L 332.066346 519.994492 
L 332.285899 525.818348 
L 332.725006 414.445241 
L 332.944559 429.852368 
L 333.164112 378.227226 
L 333.603218 525.702843 
L 333.822771 507.423121 
L 334.042324 504.487559 
L 334.261878 506.413387 
L 334.481431 465.689199 
L 334.700984 457.636628 
L 334.920537 386.942456 
L 335.14009 376.953018 
L 335.359643 519.654435 
L 335.579196 373.013517 
L 335.79875 491.782914 
L 336.018303 429.376999 
L 336.237856 501.962704 
L 336.457409 487.890361 
L 336.896515 357.937956 
L 337.116069 339.422986 
L 337.335622 536.952752 
L 337.774728 337.720927 
L 337.994281 470.715256 
L 338.213834 463.610972 
L 338.433387 373.367347 
L 338.652941 485.113678 
L 338.872494 431.542435 
L 339.092047 503.334399 
L 339.3116 440.529369 
L 339.531153 503.695914 
L 339.750706 496.672714 
L 339.97026 433.341274 
L 340.189813 508.360254 
L 340.409366 478.452083 
L 340.628919 386.274628 
L 340.848472 399.886439 
L 341.068025 467.066935 
L 341.287578 472.156942 
L 341.507132 425.334437 
L 341.726685 353.037292 
L 341.946238 522.983521 
L 342.165791 383.725421 
L 342.385344 504.920096 
L 342.604897 495.456964 
L 343.044004 431.087659 
L 343.263557 449.090157 
L 343.48311 422.952024 
L 343.702663 490.338477 
L 343.922216 521.768759 
L 344.141769 497.662128 
L 344.361323 524.201956 
L 344.580876 493.989908 
L 344.800429 386.377703 
L 345.019982 509.573271 
L 345.459088 395.047391 
L 345.678642 549.71102 
L 346.117748 394.770065 
L 346.337301 532.115657 
L 346.776407 466.33714 
L 346.99596 471.066652 
L 347.215514 463.998933 
L 347.435067 346.900751 
L 347.65462 370.047954 
L 347.874173 511.818492 
L 348.093726 516.256433 
L 348.313279 506.209184 
L 348.532833 411.402053 
L 348.752386 474.098739 
L 348.971939 472.74833 
L 349.191492 477.89446 
L 349.411045 523.749874 
L 349.630598 343.29374 
L 349.850151 486.358834 
L 350.069705 425.910585 
L 350.508811 502.908116 
L 350.728364 438.286438 
L 350.947917 445.602846 
L 351.16747 545.32486 
L 351.387024 465.417437 
L 351.606577 469.210488 
L 351.82613 495.790592 
L 352.045683 360.324733 
L 352.265236 495.195452 
L 352.484789 525.461202 
L 352.704342 495.556273 
L 352.923896 388.001302 
L 353.363002 425.140323 
L 353.582555 507.478812 
L 353.802108 490.964582 
L 354.021661 464.894479 
L 354.241215 526.573188 
L 354.460768 393.063787 
L 354.680321 569.030206 
L 354.899874 406.174622 
L 355.119427 496.063165 
L 355.558533 409.336053 
L 355.778087 501.462625 
L 355.99764 341.907846 
L 356.217193 481.215304 
L 356.436746 497.976984 
L 356.656299 493.319026 
L 356.875852 439.919053 
L 357.095406 449.476298 
L 357.314959 476.888992 
L 357.754065 429.340371 
L 357.973618 535.770741 
L 358.193171 454.408357 
L 358.412724 420.182046 
L 358.851831 512.000424 
L 359.071384 466.579675 
L 359.290937 515.821086 
L 359.730043 394.066021 
L 359.949596 463.250812 
L 360.16915 416.183035 
L 360.608256 501.456744 
L 360.827809 471.155187 
L 361.047362 514.502343 
L 361.266915 471.571508 
L 361.486469 462.551108 
L 361.706022 464.370916 
L 361.925575 512.928421 
L 362.145128 471.079527 
L 362.364681 520.310465 
L 362.584234 418.681056 
L 362.803787 433.320581 
L 363.023341 464.288124 
L 363.242894 478.311587 
L 363.462447 347.110506 
L 363.682 516.473119 
L 363.901553 500.062084 
L 364.121106 514.743755 
L 364.34066 477.86789 
L 364.560213 492.791512 
L 364.779766 483.864475 
L 364.999319 386.127265 
L 365.218872 410.149812 
L 365.438425 528.415865 
L 365.657978 482.446232 
L 365.877532 505.302109 
L 366.097085 457.241693 
L 366.316638 217.133993 
L 366.536191 491.969051 
L 366.755744 369.521255 
L 366.975297 422.210554 
L 367.194851 374.080002 
L 367.414404 521.383974 
L 367.633957 521.673889 
L 368.073063 386.415415 
L 368.292616 389.87945 
L 368.512169 441.176418 
L 368.731723 414.956501 
L 368.951276 550.765678 
L 369.170829 518.851828 
L 369.390382 459.764047 
L 369.609935 488.329964 
L 369.829488 476.267101 
L 370.049042 342.058373 
L 370.707701 483.585109 
L 370.927254 399.633471 
L 371.146807 505.144544 
L 371.36636 484.227073 
L 371.585914 534.133529 
L 371.805467 454.781765 
L 372.02502 531.524771 
L 372.244573 427.000432 
L 372.683679 539.05586 
L 372.903233 341.143792 
L 373.122786 465.403655 
L 373.342339 444.563054 
L 373.561892 437.048811 
L 373.781445 436.725887 
L 374.220551 533.410087 
L 374.440105 528.957475 
L 374.659658 542.183163 
L 374.879211 443.23358 
L 375.098764 440.669744 
L 375.318317 474.835253 
L 375.53787 393.27142 
L 375.757424 405.57812 
L 375.976977 445.44677 
L 376.19653 418.539369 
L 376.855189 515.049728 
L 377.074742 428.523668 
L 377.294296 532.630905 
L 377.733402 428.504524 
L 377.952955 497.932855 
L 378.172508 366.220543 
L 378.392061 462.560931 
L 378.611615 417.466632 
L 378.831168 543.505146 
L 379.050721 466.488566 
L 379.270274 478.502856 
L 379.489827 409.766622 
L 379.70938 546.843122 
L 379.928933 483.327026 
L 380.148487 483.509649 
L 380.587593 366.676575 
L 380.807146 434.332291 
L 381.026699 343.518423 
L 381.246252 422.776323 
L 381.465806 445.943907 
L 381.685359 498.578723 
L 381.904912 505.358859 
L 382.124465 541.205521 
L 382.344018 451.633648 
L 382.563571 482.079289 
L 382.783124 374.730133 
L 383.002678 458.160859 
L 383.222231 360.132823 
L 383.661337 510.586781 
L 383.88089 375.722422 
L 384.319997 474.451431 
L 384.53955 487.315855 
L 384.759103 409.720342 
L 384.978656 486.309644 
L 385.198209 485.760725 
L 385.417762 488.705696 
L 385.637315 476.184126 
L 386.076422 519.634781 
L 386.295975 413.127429 
L 386.515528 537.750167 
L 386.735081 396.349002 
L 386.954634 439.198659 
L 387.393741 418.02297 
L 387.613294 527.29278 
L 387.832847 468.178716 
L 388.0524 537.839999 
L 388.271953 356.681662 
L 388.491506 450.354909 
L 388.71106 480.306546 
L 388.930613 476.597531 
L 389.150166 539.814953 
L 389.369719 479.673405 
L 389.589272 459.913953 
L 389.808825 462.740959 
L 390.028378 484.813813 
L 390.247932 362.658506 
L 390.467485 465.90774 
L 390.687038 478.690335 
L 390.906591 569.09086 
L 391.126144 465.90133 
L 391.565251 403.956968 
L 391.784804 528.985884 
L 392.004357 419.453123 
L 392.22391 394.72364 
L 392.443463 459.414576 
L 392.663016 409.463669 
L 392.882569 465.004622 
L 393.102123 474.758592 
L 393.321676 432.377415 
L 393.541229 499.729488 
L 393.980335 485.847177 
L 394.199888 485.439173 
L 394.419442 414.992508 
L 394.638995 474.203323 
L 394.858548 481.429224 
L 395.078101 433.526641 
L 395.297654 477.673059 
L 395.517207 551.219054 
L 395.956314 487.136798 
L 396.175867 369.628129 
L 396.39542 484.625225 
L 396.614973 458.525293 
L 396.834526 473.36121 
L 397.054079 504.65786 
L 397.493186 442.5484 
L 397.712739 466.880433 
L 397.932292 402.245393 
L 398.151845 384.879076 
L 398.371398 549.107346 
L 398.590951 557.029543 
L 398.810505 503.991753 
L 399.030058 387.498498 
L 399.249611 526.0215 
L 399.469164 523.223588 
L 399.688717 387.036682 
L 399.90827 499.265174 
L 400.127824 381.454734 
L 400.347377 506.344374 
L 400.56693 490.303112 
L 400.786483 513.188707 
L 401.006036 501.63507 
L 401.225589 456.091977 
L 401.445142 435.935955 
L 401.664696 441.476162 
L 402.103802 392.013345 
L 402.542908 526.583385 
L 402.762461 520.841484 
L 402.982015 493.961166 
L 403.201568 485.910592 
L 403.421121 511.114797 
L 403.640674 487.988129 
L 403.860227 417.597509 
L 404.299333 472.971316 
L 404.518887 497.095123 
L 404.73844 363.088909 
L 404.957993 513.173521 
L 405.177546 428.782852 
L 405.397099 508.562221 
L 405.616652 537.384136 
L 405.836206 467.932553 
L 406.055759 505.796962 
L 406.275312 470.997736 
L 406.494865 541.343893 
L 406.714418 499.660246 
L 406.933971 538.805719 
L 407.153524 435.789358 
L 407.373078 465.885433 
L 407.592631 457.40162 
L 407.812184 419.899401 
L 408.031737 448.622354 
L 408.25129 329.959183 
L 408.470843 494.179079 
L 408.90995 401.303856 
L 409.129503 519.108613 
L 409.568609 307.269911 
L 409.788162 444.589726 
L 410.007715 405.344281 
L 410.227269 482.779375 
L 410.446822 400.690545 
L 410.666375 503.366388 
L 410.885928 540.286923 
L 411.105481 497.154601 
L 411.325034 520.110103 
L 411.544587 432.046591 
L 411.764141 464.130965 
L 411.983694 441.70039 
L 412.203247 513.982045 
L 412.4228 454.092482 
L 412.642353 454.726049 
L 412.861906 533.278892 
L 413.08146 428.723767 
L 413.301013 429.771455 
L 413.520566 432.637763 
L 413.740119 489.201648 
L 414.179225 393.451539 
L 414.398778 454.66325 
L 414.618332 375.245865 
L 415.057438 495.875714 
L 415.276991 486.399759 
L 415.496544 430.880287 
L 415.716097 461.620737 
L 415.935651 279.980216 
L 416.155204 377.528974 
L 416.374757 404.786979 
L 416.59431 373.960841 
L 416.813863 526.264501 
L 417.252969 442.710973 
L 417.472523 427.0827 
L 417.692076 545.749591 
L 417.911629 404.214224 
L 418.131182 438.573024 
L 418.350735 434.870602 
L 418.570288 527.925747 
L 418.789842 434.808129 
L 419.009395 526.836524 
L 419.228948 481.626931 
L 419.448501 560.357023 
L 419.887607 463.892315 
L 420.10716 497.440215 
L 420.326714 512.686147 
L 420.546267 459.569498 
L 420.76582 508.561424 
L 420.985373 528.379684 
L 421.424479 394.640074 
L 421.863586 541.729049 
L 422.083139 363.408179 
L 422.522245 532.931409 
L 422.741798 403.139436 
L 422.961351 357.074243 
L 423.180905 354.741881 
L 423.400458 272.144839 
L 423.839564 463.775559 
L 424.27867 490.66444 
L 424.498224 515.222049 
L 424.717777 504.331735 
L 425.156883 269.646682 
L 425.376436 522.930032 
L 425.595989 515.832824 
L 425.815542 378.431719 
L 426.035096 551.457092 
L 426.474202 394.594529 
L 426.693755 498.493272 
L 426.913308 486.350202 
L 427.132861 552.188233 
L 427.352415 376.526508 
L 427.791521 465.502281 
L 428.011074 388.542325 
L 428.230627 503.702049 
L 428.45018 381.321514 
L 428.669733 479.400872 
L 428.889287 484.119195 
L 429.10884 459.236123 
L 429.328393 520.381218 
L 429.767499 400.942321 
L 429.987052 534.511772 
L 430.206606 550.383398 
L 430.426159 521.55304 
L 430.645712 533.469931 
L 430.865265 389.415224 
L 431.084818 543.559674 
L 431.743478 461.019011 
L 431.963031 477.879307 
L 432.182584 300.664363 
L 432.402137 441.318886 
L 432.62169 459.819467 
L 432.841243 502.665404 
L 433.060797 508.636445 
L 433.28035 330.831345 
L 433.499903 277.631689 
L 433.719456 485.248376 
L 433.939009 546.302652 
L 434.158562 452.520173 
L 434.378115 453.629716 
L 434.817222 498.061827 
L 435.036775 422.3528 
L 435.256328 484.521489 
L 435.475881 404.34027 
L 435.695434 526.801575 
L 435.914988 357.189805 
L 436.134541 476.400214 
L 436.354094 413.054784 
L 436.573647 474.227409 
L 436.7932 432.066486 
L 437.012753 507.67228 
L 437.232306 329.951143 
L 437.45186 449.326411 
L 437.671413 450.484357 
L 437.890966 477.853483 
L 438.110519 423.431485 
L 438.330072 517.15374 
L 438.549625 492.890733 
L 438.769178 404.099928 
L 438.988732 424.374885 
L 439.208285 475.333157 
L 439.427838 428.893071 
L 439.647391 433.207379 
L 439.866944 381.830459 
L 440.306051 513.816538 
L 440.525604 462.198114 
L 440.745157 499.688681 
L 440.96471 510.837067 
L 441.184263 452.66175 
L 441.403816 341.396846 
L 441.623369 342.573665 
L 441.842923 493.196505 
L 442.062476 441.934977 
L 442.282029 499.036531 
L 442.501582 484.661084 
L 442.721135 500.150791 
L 442.940688 384.793736 
L 443.160242 396.502679 
L 443.599348 519.331031 
L 443.818901 506.822587 
L 444.038454 364.858516 
L 444.258007 516.134211 
L 444.47756 376.51726 
L 444.697114 528.20078 
L 445.13622 432.560073 
L 445.355773 497.374778 
L 445.575326 429.21528 
L 445.794879 466.69565 
L 446.014433 528.994659 
L 446.233986 435.933194 
L 446.453539 415.458777 
L 446.673092 440.44232 
L 446.892645 504.491568 
L 447.112198 428.199426 
L 447.331751 504.75034 
L 447.551305 536.751558 
L 447.770858 375.394531 
L 448.209964 531.186015 
L 448.429517 483.529722 
L 448.64907 364.893807 
L 448.868624 537.190198 
L 449.088177 516.559878 
L 449.30773 430.484233 
L 449.527283 414.014172 
L 449.746836 467.269548 
L 449.966389 568.817361 
L 450.185942 494.763202 
L 450.405496 474.506162 
L 450.625049 497.443465 
L 450.844602 440.903941 
L 451.064155 442.550802 
L 451.283708 521.971051 
L 451.503261 444.818248 
L 451.722815 446.996283 
L 451.942368 473.320548 
L 452.161921 360.876369 
L 452.381474 392.69857 
L 452.601027 465.440132 
L 452.82058 452.593042 
L 453.040133 423.314696 
L 453.259687 503.072299 
L 453.47924 520.415771 
L 453.698793 483.981521 
L 453.918346 508.577187 
L 454.137899 510.860055 
L 454.357452 497.627793 
L 454.577006 446.704554 
L 454.796559 462.341589 
L 455.016112 554.663198 
L 455.235665 410.33115 
L 455.455218 474.087169 
L 455.674771 400.769375 
L 455.894324 550.868244 
L 456.113878 364.919932 
L 456.333431 370.534406 
L 456.552984 229.111714 
L 456.772537 499.772005 
L 456.99209 347.909119 
L 457.211643 354.693283 
L 457.431197 487.386533 
L 457.65075 383.105967 
L 457.870303 369.39707 
L 458.089856 509.711258 
L 458.309409 462.712594 
L 458.748515 553.67895 
L 458.968069 508.411129 
L 459.187622 408.186729 
L 459.407175 450.029292 
L 459.626728 415.039503 
L 459.846281 493.19482 
L 460.065834 530.729127 
L 460.285388 429.235459 
L 460.504941 476.491487 
L 460.724494 476.077317 
L 460.944047 516.250164 
L 461.1636 380.606988 
L 461.383153 449.469222 
L 461.602706 428.548997 
L 462.041813 527.744243 
L 462.261366 522.823432 
L 462.480919 459.851265 
L 462.700472 455.947837 
L 462.920025 469.443053 
L 463.139579 256.714692 
L 463.359132 475.428212 
L 463.798238 416.763356 
L 464.017791 476.431764 
L 464.237344 437.761556 
L 464.456897 492.655508 
L 464.676451 443.981888 
L 464.896004 442.140561 
L 465.115557 403.827672 
L 465.33511 399.877934 
L 465.554663 463.709122 
L 465.774216 439.234043 
L 466.213323 531.20694 
L 466.432876 444.712277 
L 466.652429 480.648148 
L 466.871982 409.26511 
L 467.311088 535.783824 
L 467.530642 516.344142 
L 467.969748 400.53334 
L 468.189301 384.193282 
L 468.408854 405.338479 
L 468.628407 440.245322 
L 468.84796 444.702227 
L 469.067514 428.013978 
L 469.287067 523.713886 
L 469.726173 436.207392 
L 469.945726 498.265108 
L 470.165279 488.518922 
L 470.384833 446.064967 
L 470.604386 454.527141 
L 470.823939 419.111817 
L 471.043492 506.812188 
L 471.263045 427.178803 
L 471.482598 540.03431 
L 471.702151 526.231238 
L 471.921705 357.885123 
L 472.141258 491.646363 
L 472.360811 435.317794 
L 472.580364 535.320295 
L 472.799917 530.491474 
L 473.01947 482.825875 
L 473.239024 374.016653 
L 473.458577 519.948749 
L 473.67813 469.655008 
L 473.897683 386.585152 
L 474.117236 424.937944 
L 474.336789 521.016259 
L 474.556342 524.328716 
L 474.775896 399.587616 
L 474.995449 440.477326 
L 475.215002 458.93944 
L 475.434555 466.11941 
L 475.654108 526.242723 
L 475.873661 469.384314 
L 476.093215 357.306307 
L 476.312768 527.515342 
L 476.532321 333.61366 
L 476.751874 457.28222 
L 476.971427 420.108277 
L 477.410533 468.327324 
L 477.630087 467.921336 
L 477.84964 345.453961 
L 478.069193 529.748534 
L 478.288746 399.323932 
L 478.508299 476.884931 
L 478.727852 385.166417 
L 478.947406 539.790874 
L 479.166959 389.067033 
L 479.386512 405.652969 
L 479.606065 488.016923 
L 480.045171 398.979802 
L 480.264724 519.529801 
L 480.484278 378.829078 
L 480.703831 441.599315 
L 480.923384 358.334937 
L 481.142937 420.667955 
L 481.36249 450.172506 
L 481.582043 454.183093 
L 481.801597 375.387263 
L 482.02115 498.34317 
L 482.240703 441.398881 
L 482.679809 492.569983 
L 482.899362 326.600564 
L 483.118915 536.116007 
L 483.558022 401.423726 
L 483.777575 483.60285 
L 483.997128 439.508969 
L 484.216681 296.399589 
L 484.436234 384.522765 
L 484.655788 423.514186 
L 484.875341 335.842437 
L 485.094894 376.061442 
L 485.314447 520.73086 
L 485.534 561.511214 
L 485.753553 404.333487 
L 486.19266 498.145269 
L 486.412213 475.537404 
L 486.631766 488.623688 
L 486.851319 525.003114 
L 487.070872 466.835331 
L 487.290425 466.203986 
L 487.509979 501.793091 
L 487.949085 464.045032 
L 488.168638 377.808736 
L 488.388191 474.879218 
L 488.607744 462.909862 
L 488.827297 497.451272 
L 489.266404 341.968904 
L 489.485957 425.299465 
L 489.70551 450.518952 
L 489.925063 401.526127 
L 490.364169 501.044441 
L 490.583723 543.002924 
L 490.803276 409.552717 
L 491.022829 475.720959 
L 491.461935 439.875706 
L 491.681488 453.000602 
L 491.901042 507.047553 
L 492.340148 424.487888 
L 492.559701 491.027968 
L 492.779254 523.416444 
L 492.998807 516.989287 
L 493.21836 526.014855 
L 493.437914 418.449362 
L 493.657467 511.709234 
L 493.87702 399.241013 
L 494.096573 427.869503 
L 494.316126 478.521235 
L 494.535679 459.585004 
L 494.755233 468.712197 
L 494.974786 339.114774 
L 495.413892 466.239154 
L 495.633445 476.295514 
L 495.852998 346.507116 
L 496.072551 520.020665 
L 496.292105 533.14792 
L 496.511658 491.422192 
L 496.731211 480.077137 
L 496.950764 514.736954 
L 497.170317 389.844186 
L 497.38987 543.891836 
L 497.609424 511.305507 
L 497.828977 316.477372 
L 498.268083 478.063937 
L 498.487636 442.226823 
L 498.707189 348.838557 
L 498.926742 411.851177 
L 499.146296 511.904713 
L 499.365849 402.456115 
L 499.585402 466.703529 
L 499.804955 435.643719 
L 500.024508 497.670102 
L 500.463615 336.80191 
L 500.683168 490.318885 
L 500.902721 486.016677 
L 501.122274 459.888516 
L 501.341827 403.854646 
L 501.56138 524.453315 
L 501.780933 488.574713 
L 502.000487 476.104454 
L 502.22004 472.528022 
L 502.439593 459.616598 
L 502.878699 543.974938 
L 503.098252 528.972084 
L 503.317806 354.353278 
L 503.537359 513.265553 
L 503.756912 538.855943 
L 503.976465 433.101202 
L 504.196018 509.223868 
L 504.415571 488.685152 
L 504.635124 396.785686 
L 504.854678 254.951125 
L 505.074231 383.220757 
L 505.293784 323.310751 
L 505.513337 502.77775 
L 505.73289 413.508508 
L 505.952443 500.722446 
L 506.171997 470.637866 
L 506.39155 475.674147 
L 506.611103 459.924163 
L 506.830656 497.923369 
L 507.050209 504.496316 
L 507.269762 419.410945 
L 507.489315 416.837266 
L 507.708869 500.066286 
L 507.928422 489.060727 
L 508.147975 448.416202 
L 508.367528 495.914963 
L 508.587081 476.543012 
L 508.806634 473.976566 
L 509.026188 513.225851 
L 509.465294 383.189732 
L 509.9044 538.297314 
L 510.123953 480.222268 
L 510.343506 389.860627 
L 510.56306 494.55482 
L 510.782613 397.868314 
L 511.002166 513.463821 
L 511.221719 440.442202 
L 511.880379 517.362485 
L 512.099932 425.550657 
L 512.319485 562.663516 
L 512.539038 505.891611 
L 512.758591 510.478799 
L 512.978144 475.076312 
L 513.197697 515.111086 
L 513.417251 419.248894 
L 514.07591 517.883184 
L 514.515016 415.180032 
L 514.73457 531.700936 
L 514.954123 468.777222 
L 515.393229 267.096854 
L 515.612782 530.148282 
L 516.051888 439.161846 
L 516.271442 528.076885 
L 516.490995 554.88043 
L 516.710548 451.842669 
L 516.930101 482.126725 
L 517.149654 424.626415 
L 517.808314 536.655724 
L 518.24742 473.302996 
L 518.466973 508.730566 
L 518.686526 470.573931 
L 518.906079 463.838579 
L 519.125633 535.936873 
L 519.345186 470.180287 
L 519.564739 504.985446 
L 519.784292 519.302349 
L 520.003845 516.342338 
L 520.223398 523.679125 
L 520.442951 338.209564 
L 520.662505 479.896332 
L 520.882058 538.135349 
L 521.101611 383.003694 
L 521.321164 532.953607 
L 521.540717 535.492055 
L 521.76027 521.837935 
L 521.979824 350.06846 
L 522.199377 474.98169 
L 522.41893 515.926956 
L 522.638483 327.701291 
L 522.858036 429.435892 
L 523.077589 388.580343 
L 523.297142 489.461828 
L 523.516696 328.728469 
L 523.736249 314.832185 
L 523.955802 544.428029 
L 524.394908 463.595775 
L 524.614461 507.389506 
L 524.834015 505.918087 
L 525.053568 516.794823 
L 525.273121 505.06231 
L 525.492674 355.40855 
L 525.712227 509.902809 
L 525.93178 496.737172 
L 526.151333 442.019002 
L 526.370887 493.705645 
L 526.59044 446.239317 
L 526.809993 521.730882 
L 527.029546 437.679908 
L 527.688206 477.24439 
L 527.907759 463.274011 
L 528.127312 397.975586 
L 528.346865 391.925114 
L 528.566418 576.860716 
L 528.785971 442.927123 
L 529.005524 456.57223 
L 529.444631 514.443812 
L 529.664184 479.624859 
L 529.883737 497.805567 
L 530.10329 334.439149 
L 530.322843 444.764169 
L 530.542397 369.513458 
L 530.76195 507.839181 
L 530.981503 426.754655 
L 531.201056 514.595418 
L 531.420609 454.592262 
L 531.859715 542.621354 
L 532.079269 461.352117 
L 532.298822 424.078109 
L 532.518375 503.037616 
L 532.737928 490.515483 
L 532.957481 341.441961 
L 533.177034 484.458375 
L 533.396588 545.126883 
L 533.616141 557.462463 
L 533.835694 347.214276 
L 534.2748 556.173136 
L 534.494353 480.905744 
L 534.713906 366.684903 
L 534.93346 497.164303 
L 535.153013 445.747005 
L 535.372566 513.770667 
L 535.592119 517.143009 
L 535.811672 438.112443 
L 536.031225 462.701808 
L 536.250779 229.24891 
L 536.470332 219.058542 
L 536.689885 495.038389 
L 536.909438 475.415119 
L 537.348544 494.663773 
L 537.568097 480.560603 
L 537.787651 504.075076 
L 538.007204 450.947227 
L 538.226757 505.081463 
L 538.44631 465.654127 
L 538.665863 498.46053 
L 538.885416 456.08697 
L 539.10497 498.876773 
L 539.324523 412.93647 
L 539.544076 519.025367 
L 539.763629 504.713837 
L 539.983182 477.16204 
L 540.202735 479.378734 
L 540.422288 514.637606 
L 540.641842 462.449066 
L 540.861395 479.371264 
L 541.080948 481.585214 
L 541.300501 423.995636 
L 541.520054 488.884676 
L 541.739607 519.367169 
L 541.95916 397.523029 
L 542.178714 390.262223 
L 542.398267 542.645054 
L 542.61782 396.704043 
L 542.837373 506.778949 
L 543.056926 386.847378 
L 543.276479 346.97908 
L 543.496033 421.029701 
L 543.715586 347.952765 
L 544.154692 511.821194 
L 544.374245 455.275519 
L 544.593798 533.796562 
L 544.813351 448.847302 
L 545.032905 457.587709 
L 545.252458 508.676057 
L 545.472011 472.532546 
L 545.691564 409.766124 
L 545.911117 482.554952 
L 546.13067 505.35648 
L 546.350224 461.970528 
L 546.569777 534.448806 
L 546.78933 409.181185 
L 547.008883 412.526525 
L 547.228436 530.310756 
L 547.447989 511.818571 
L 547.667542 410.479798 
L 547.887096 470.95711 
L 548.106649 381.871628 
L 548.326202 354.553845 
L 548.545755 380.349031 
L 548.765308 541.429739 
L 548.984861 447.752567 
L 549.204415 470.208084 
L 549.423968 448.472467 
L 549.643521 486.02106 
L 549.863074 393.287998 
L 550.082627 530.849134 
L 550.30218 500.060744 
L 550.521733 527.27374 
L 550.741287 448.632142 
L 550.96084 549.239139 
L 551.180393 445.295077 
L 551.399946 519.5332 
L 551.619499 515.623395 
L 551.839052 494.564704 
L 552.058606 532.678198 
L 552.278159 445.553249 
L 552.497712 427.249668 
L 552.717265 495.304116 
L 552.936818 509.760006 
L 553.156371 415.761837 
L 553.375924 460.769144 
L 553.595478 530.090967 
L 553.815031 438.733864 
L 554.034584 511.869348 
L 554.254137 405.097527 
L 554.47369 478.175376 
L 554.693243 440.3683 
L 554.912797 442.490342 
L 555.13235 256.9822 
L 555.351903 386.531757 
L 555.571456 385.617083 
L 555.791009 484.865928 
L 556.010562 309.52579 
L 556.230115 439.684965 
L 556.449669 369.507228 
L 556.669222 540.494091 
L 556.888775 486.647637 
L 557.108328 479.086866 
L 557.327881 503.776601 
L 557.547434 311.170579 
L 557.766988 438.075946 
L 557.986541 481.453151 
L 558.206094 399.548213 
L 558.425647 483.511248 
L 558.6452 509.944781 
L 558.864753 519.203697 
L 559.084306 437.009186 
L 559.30386 276.301505 
L 559.523413 471.164879 
L 559.742966 481.943102 
L 559.742966 481.943102 
" style="fill:none;stroke:#96c69a;stroke-linecap:round;stroke-width:3;"/>
   </g>
   <g id="line2d_2"/>
   <g id="patch_3">
    <path d="M 98.911875 603.86 
L 98.911875 109.484571 
" style="fill:none;stroke:#262626;stroke-linecap:square;stroke-linejoin:miter;stroke-width:2.5;"/>
   </g>
   <g id="patch_4">
    <path d="M 98.911875 603.86 
L 581.687304 603.86 
" style="fill:none;stroke:#262626;stroke-linecap:square;stroke-linejoin:miter;stroke-width:2.5;"/>
   </g>
   <g id="legend_1">
    <g id="patch_5">
     <path d="M 528.771679 598.86 
L 574.687304 598.86 
Q 576.687304 598.86 576.687304 596.86 
L 576.687304 554.954375 
Q 576.687304 552.954375 574.687304 552.954375 
L 528.771679 552.954375 
Q 526.771679 552.954375 526.771679 554.954375 
L 526.771679 596.86 
Q 526.771679 598.86 528.771679 598.86 
z
" style="fill:#ffffff;opacity:0.8;stroke:#cccccc;stroke-linejoin:miter;stroke-width:2;"/>
    </g>
    <g id="text_18">
     <!-- $n_\tau$ -->
     <g style="fill:#262626;" transform="translate(538.649491 575.190625)scale(0.24 -0.24)">
      <defs>
       <path d="M 3566 2113 
L 3156 0 
L 2578 0 
L 2988 2091 
Q 3016 2238 3031 2350 
Q 3047 2463 3047 2528 
Q 3047 2791 2881 2937 
Q 2716 3084 2419 3084 
Q 1956 3084 1622 2776 
Q 1288 2469 1184 1941 
L 800 0 
L 225 0 
L 903 3500 
L 1478 3500 
L 1363 2950 
Q 1603 3253 1940 3418 
Q 2278 3584 2650 3584 
Q 3113 3584 3367 3334 
Q 3622 3084 3622 2631 
Q 3622 2519 3608 2391 
Q 3594 2263 3566 2113 
z
" id="DejaVuSans-Oblique-6e" transform="scale(0.015625)"/>
       <path d="M 2103 638 
Q 2188 488 2525 488 
L 2800 488 
L 2706 0 
L 2363 0 
Q 1800 0 1600 300 
Q 1403 606 1534 1269 
L 1856 2925 
L 541 2925 
L 653 3500 
L 3881 3500 
L 3769 2925 
L 2444 2925 
L 2113 1234 
Q 2025 781 2103 638 
z
" id="DejaVuSans-Oblique-3c4" transform="scale(0.015625)"/>
      </defs>
      <use xlink:href="#DejaVuSans-Oblique-6e"/>
      <use transform="translate(63.378906 -16.40625)scale(0.7)" xlink:href="#DejaVuSans-Oblique-3c4"/>
     </g>
    </g>
    <g id="line2d_3">
     <path d="M 530.771679 589.280313 
L 550.771679 589.280313 
" style="fill:none;stroke:#96c69a;stroke-linecap:round;stroke-width:3;"/>
    </g>
    <g id="line2d_4"/>
    <g id="text_19">
     <!-- 40 -->
     <g style="fill:#262626;" transform="translate(558.771679 592.780313)scale(0.1 -0.1)">
      <defs>
       <path d="M 2356 3675 
L 1038 1722 
L 2356 1722 
L 2356 3675 
z
M 2156 4666 
L 3494 4666 
L 3494 1722 
L 4159 1722 
L 4159 850 
L 3494 850 
L 3494 0 
L 2356 0 
L 2356 850 
L 288 850 
L 288 1881 
L 2156 4666 
z
" id="DejaVuSans-Bold-34" transform="scale(0.015625)"/>
       <path d="M 2944 2338 
Q 2944 3213 2780 3570 
Q 2616 3928 2228 3928 
Q 1841 3928 1675 3570 
Q 1509 3213 1509 2338 
Q 1509 1453 1675 1090 
Q 1841 728 2228 728 
Q 2613 728 2778 1090 
Q 2944 1453 2944 2338 
z
M 4147 2328 
Q 4147 1169 3647 539 
Q 3147 -91 2228 -91 
Q 1306 -91 806 539 
Q 306 1169 306 2328 
Q 306 3491 806 4120 
Q 1306 4750 2228 4750 
Q 3147 4750 3647 4120 
Q 4147 3491 4147 2328 
z
" id="DejaVuSans-Bold-30" transform="scale(0.015625)"/>
      </defs>
      <use xlink:href="#DejaVuSans-Bold-34"/>
      <use x="69.580078" xlink:href="#DejaVuSans-Bold-30"/>
     </g>
    </g>
   </g>
  </g>
  <g id="axes_2">
   <g id="patch_6">
    <path d="M 98.911875 92.437143 
L 581.687304 92.437143 
L 581.687304 7.2 
L 98.911875 7.2 
z
" style="fill:none;"/>
   </g>
   <g id="matplotlib.axis_3">
    <g id="xtick_7"/>
    <g id="xtick_8"/>
    <g id="xtick_9"/>
    <g id="xtick_10"/>
    <g id="xtick_11"/>
    <g id="xtick_12"/>
   </g>
   <g id="matplotlib.axis_4">
    <g id="ytick_10">
     <g id="text_20">
      <!-- 0 -->
      <g style="fill:#262626;" transform="translate(69.414375 100.795424)scale(0.22 -0.22)">
       <use xlink:href="#DejaVuSans-30"/>
      </g>
     </g>
    </g>
    <g id="ytick_11">
     <g id="text_21">
      <!-- 100 -->
      <g style="fill:#262626;" transform="translate(41.419375 48.082287)scale(0.22 -0.22)">
       <use xlink:href="#DejaVuSans-31"/>
       <use x="63.623047" xlink:href="#DejaVuSans-30"/>
       <use x="127.246094" xlink:href="#DejaVuSans-30"/>
      </g>
     </g>
    </g>
   </g>
   <g id="patch_7">
    <path clip-path="url(#p59639053e6)" d="M 120.856213 92.437143 
L 154.616732 92.437143 
L 154.616732 11.258912 
L 120.856213 11.258912 
z
" style="fill:#96c69a;fill-opacity:0.5;stroke:#ffffff;stroke-linejoin:miter;stroke-width:2;"/>
   </g>
   <g id="patch_8">
    <path clip-path="url(#p59639053e6)" d="M 154.616732 92.437143 
L 188.377252 92.437143 
L 188.377252 11.258912 
L 154.616732 11.258912 
z
" style="fill:#96c69a;fill-opacity:0.5;stroke:#ffffff;stroke-linejoin:miter;stroke-width:2;"/>
   </g>
   <g id="patch_9">
    <path clip-path="url(#p59639053e6)" d="M 188.377252 92.437143 
L 222.137771 92.437143 
L 222.137771 11.258912 
L 188.377252 11.258912 
z
" style="fill:#96c69a;fill-opacity:0.5;stroke:#ffffff;stroke-linejoin:miter;stroke-width:2;"/>
   </g>
   <g id="patch_10">
    <path clip-path="url(#p59639053e6)" d="M 222.137771 92.437143 
L 255.898291 92.437143 
L 255.898291 11.258912 
L 222.137771 11.258912 
z
" style="fill:#96c69a;fill-opacity:0.5;stroke:#ffffff;stroke-linejoin:miter;stroke-width:2;"/>
   </g>
   <g id="patch_11">
    <path clip-path="url(#p59639053e6)" d="M 255.898291 92.437143 
L 289.65881 92.437143 
L 289.65881 11.786043 
L 255.898291 11.786043 
z
" style="fill:#96c69a;fill-opacity:0.5;stroke:#ffffff;stroke-linejoin:miter;stroke-width:2;"/>
   </g>
   <g id="patch_12">
    <path clip-path="url(#p59639053e6)" d="M 289.65881 92.437143 
L 323.41933 92.437143 
L 323.41933 11.258912 
L 289.65881 11.258912 
z
" style="fill:#96c69a;fill-opacity:0.5;stroke:#ffffff;stroke-linejoin:miter;stroke-width:2;"/>
   </g>
   <g id="patch_13">
    <path clip-path="url(#p59639053e6)" d="M 323.41933 92.437143 
L 357.179849 92.437143 
L 357.179849 11.258912 
L 323.41933 11.258912 
z
" style="fill:#96c69a;fill-opacity:0.5;stroke:#ffffff;stroke-linejoin:miter;stroke-width:2;"/>
   </g>
   <g id="patch_14">
    <path clip-path="url(#p59639053e6)" d="M 357.179849 92.437143 
L 390.940369 92.437143 
L 390.940369 11.258912 
L 357.179849 11.258912 
z
" style="fill:#96c69a;fill-opacity:0.5;stroke:#ffffff;stroke-linejoin:miter;stroke-width:2;"/>
   </g>
   <g id="patch_15">
    <path clip-path="url(#p59639053e6)" d="M 390.940369 92.437143 
L 424.700888 92.437143 
L 424.700888 11.786043 
L 390.940369 11.786043 
z
" style="fill:#96c69a;fill-opacity:0.5;stroke:#ffffff;stroke-linejoin:miter;stroke-width:2;"/>
   </g>
   <g id="patch_16">
    <path clip-path="url(#p59639053e6)" d="M 424.700888 92.437143 
L 458.461407 92.437143 
L 458.461407 11.258912 
L 424.700888 11.258912 
z
" style="fill:#96c69a;fill-opacity:0.5;stroke:#ffffff;stroke-linejoin:miter;stroke-width:2;"/>
   </g>
   <g id="patch_17">
    <path clip-path="url(#p59639053e6)" d="M 458.461407 92.437143 
L 492.221927 92.437143 
L 492.221927 11.258912 
L 458.461407 11.258912 
z
" style="fill:#96c69a;fill-opacity:0.5;stroke:#ffffff;stroke-linejoin:miter;stroke-width:2;"/>
   </g>
   <g id="patch_18">
    <path clip-path="url(#p59639053e6)" d="M 492.221927 92.437143 
L 525.982446 92.437143 
L 525.982446 11.258912 
L 492.221927 11.258912 
z
" style="fill:#96c69a;fill-opacity:0.5;stroke:#ffffff;stroke-linejoin:miter;stroke-width:2;"/>
   </g>
   <g id="patch_19">
    <path clip-path="url(#p59639053e6)" d="M 525.982446 92.437143 
L 559.742966 92.437143 
L 559.742966 11.258912 
L 525.982446 11.258912 
z
" style="fill:#96c69a;fill-opacity:0.5;stroke:#ffffff;stroke-linejoin:miter;stroke-width:2;"/>
   </g>
   <g id="patch_20">
    <path d="M 98.911875 92.437143 
L 98.911875 7.2 
" style="fill:none;stroke:#262626;stroke-linecap:square;stroke-linejoin:miter;stroke-width:2.5;"/>
   </g>
   <g id="patch_21">
    <path d="M 98.911875 92.437143 
L 581.687304 92.437143 
" style="fill:none;stroke:#262626;stroke-linecap:square;stroke-linejoin:miter;stroke-width:2.5;"/>
   </g>
  </g>
  <g id="axes_3">
   <g id="patch_22">
    <path d="M 598.334732 603.86 
L 681.571875 603.86 
L 681.571875 109.484571 
L 598.334732 109.484571 
z
" style="fill:none;"/>
   </g>
   <g id="matplotlib.axis_5">
    <g id="xtick_13">
     <g id="text_22">
      <!-- 0 -->
      <g style="fill:#262626;" transform="translate(591.335982 636.076563)scale(0.22 -0.22)">
       <use xlink:href="#DejaVuSans-30"/>
      </g>
     </g>
    </g>
    <g id="xtick_14">
     <g id="text_23">
      <!-- 100 -->
      <g style="fill:#262626;" transform="translate(620.421889 636.076563)scale(0.22 -0.22)">
       <use xlink:href="#DejaVuSans-31"/>
       <use x="63.623047" xlink:href="#DejaVuSans-30"/>
       <use x="127.246094" xlink:href="#DejaVuSans-30"/>
      </g>
     </g>
    </g>
   </g>
   <g id="matplotlib.axis_6">
    <g id="ytick_12"/>
    <g id="ytick_13"/>
    <g id="ytick_14"/>
    <g id="ytick_15"/>
    <g id="ytick_16"/>
    <g id="ytick_17"/>
    <g id="ytick_18"/>
    <g id="ytick_19"/>
    <g id="ytick_20"/>
   </g>
   <g id="patch_23">
    <path clip-path="url(#pab42a6b33a)" d="M 598.334732 581.38839 
L 600.919737 581.38839 
L 600.919737 568.547469 
L 598.334732 568.547469 
z
" style="fill:#96c69a;fill-opacity:0.5;stroke:#ffffff;stroke-linejoin:miter;stroke-width:1.284092;"/>
   </g>
   <g id="patch_24">
    <path clip-path="url(#pab42a6b33a)" d="M 598.334732 568.547469 
L 605.228077 568.547469 
L 605.228077 555.706549 
L 598.334732 555.706549 
z
" style="fill:#96c69a;fill-opacity:0.5;stroke:#ffffff;stroke-linejoin:miter;stroke-width:1.284092;"/>
   </g>
   <g id="patch_25">
    <path clip-path="url(#pab42a6b33a)" d="M 598.334732 555.706549 
L 619.876436 555.706549 
L 619.876436 542.865629 
L 598.334732 542.865629 
z
" style="fill:#96c69a;fill-opacity:0.5;stroke:#ffffff;stroke-linejoin:miter;stroke-width:1.284092;"/>
   </g>
   <g id="patch_26">
    <path clip-path="url(#pab42a6b33a)" d="M 598.334732 542.865629 
L 642.279808 542.865629 
L 642.279808 530.024709 
L 598.334732 530.024709 
z
" style="fill:#96c69a;fill-opacity:0.5;stroke:#ffffff;stroke-linejoin:miter;stroke-width:1.284092;"/>
   </g>
   <g id="patch_27">
    <path clip-path="url(#pab42a6b33a)" d="M 598.334732 530.024709 
L 659.944005 530.024709 
L 659.944005 517.183788 
L 598.334732 517.183788 
z
" style="fill:#96c69a;fill-opacity:0.5;stroke:#ffffff;stroke-linejoin:miter;stroke-width:1.284092;"/>
   </g>
   <g id="patch_28">
    <path clip-path="url(#pab42a6b33a)" d="M 598.334732 517.183788 
L 673.299861 517.183788 
L 673.299861 504.342868 
L 598.334732 504.342868 
z
" style="fill:#96c69a;fill-opacity:0.5;stroke:#ffffff;stroke-linejoin:miter;stroke-width:1.284092;"/>
   </g>
   <g id="patch_29">
    <path clip-path="url(#pab42a6b33a)" d="M 598.334732 504.342868 
L 671.576525 504.342868 
L 671.576525 491.501948 
L 598.334732 491.501948 
z
" style="fill:#96c69a;fill-opacity:0.5;stroke:#ffffff;stroke-linejoin:miter;stroke-width:1.284092;"/>
   </g>
   <g id="patch_30">
    <path clip-path="url(#pab42a6b33a)" d="M 598.334732 491.501948 
L 676.315699 491.501948 
L 676.315699 478.661028 
L 598.334732 478.661028 
z
" style="fill:#96c69a;fill-opacity:0.5;stroke:#ffffff;stroke-linejoin:miter;stroke-width:1.284092;"/>
   </g>
   <g id="patch_31">
    <path clip-path="url(#pab42a6b33a)" d="M 598.334732 478.661028 
L 677.608202 478.661028 
L 677.608202 465.820108 
L 598.334732 465.820108 
z
" style="fill:#96c69a;fill-opacity:0.5;stroke:#ffffff;stroke-linejoin:miter;stroke-width:1.284092;"/>
   </g>
   <g id="patch_32">
    <path clip-path="url(#pab42a6b33a)" d="M 598.334732 465.820108 
L 668.129852 465.820108 
L 668.129852 452.979187 
L 598.334732 452.979187 
z
" style="fill:#96c69a;fill-opacity:0.5;stroke:#ffffff;stroke-linejoin:miter;stroke-width:1.284092;"/>
   </g>
   <g id="patch_33">
    <path clip-path="url(#pab42a6b33a)" d="M 598.334732 452.979187 
L 659.082336 452.979187 
L 659.082336 440.138267 
L 598.334732 440.138267 
z
" style="fill:#96c69a;fill-opacity:0.5;stroke:#ffffff;stroke-linejoin:miter;stroke-width:1.284092;"/>
   </g>
   <g id="patch_34">
    <path clip-path="url(#pab42a6b33a)" d="M 598.334732 440.138267 
L 650.896489 440.138267 
L 650.896489 427.297347 
L 598.334732 427.297347 
z
" style="fill:#96c69a;fill-opacity:0.5;stroke:#ffffff;stroke-linejoin:miter;stroke-width:1.284092;"/>
   </g>
   <g id="patch_35">
    <path clip-path="url(#pab42a6b33a)" d="M 598.334732 427.297347 
L 652.188991 427.297347 
L 652.188991 414.456427 
L 598.334732 414.456427 
z
" style="fill:#96c69a;fill-opacity:0.5;stroke:#ffffff;stroke-linejoin:miter;stroke-width:1.284092;"/>
   </g>
   <g id="patch_36">
    <path clip-path="url(#pab42a6b33a)" d="M 598.334732 414.456427 
L 634.524794 414.456427 
L 634.524794 401.615506 
L 598.334732 401.615506 
z
" style="fill:#96c69a;fill-opacity:0.5;stroke:#ffffff;stroke-linejoin:miter;stroke-width:1.284092;"/>
   </g>
   <g id="patch_37">
    <path clip-path="url(#pab42a6b33a)" d="M 598.334732 401.615506 
L 631.508956 401.615506 
L 631.508956 388.774586 
L 598.334732 388.774586 
z
" style="fill:#96c69a;fill-opacity:0.5;stroke:#ffffff;stroke-linejoin:miter;stroke-width:1.284092;"/>
   </g>
   <g id="patch_38">
    <path clip-path="url(#pab42a6b33a)" d="M 598.334732 388.774586 
L 628.062283 388.774586 
L 628.062283 375.933666 
L 598.334732 375.933666 
z
" style="fill:#96c69a;fill-opacity:0.5;stroke:#ffffff;stroke-linejoin:miter;stroke-width:1.284092;"/>
   </g>
   <g id="patch_39">
    <path clip-path="url(#pab42a6b33a)" d="M 598.334732 375.933666 
L 618.153099 375.933666 
L 618.153099 363.092746 
L 598.334732 363.092746 
z
" style="fill:#96c69a;fill-opacity:0.5;stroke:#ffffff;stroke-linejoin:miter;stroke-width:1.284092;"/>
   </g>
   <g id="patch_40">
    <path clip-path="url(#pab42a6b33a)" d="M 598.334732 363.092746 
L 614.275593 363.092746 
L 614.275593 350.251826 
L 598.334732 350.251826 
z
" style="fill:#96c69a;fill-opacity:0.5;stroke:#ffffff;stroke-linejoin:miter;stroke-width:1.284092;"/>
   </g>
   <g id="patch_41">
    <path clip-path="url(#pab42a6b33a)" d="M 598.334732 350.251826 
L 614.275593 350.251826 
L 614.275593 337.410905 
L 598.334732 337.410905 
z
" style="fill:#96c69a;fill-opacity:0.5;stroke:#ffffff;stroke-linejoin:miter;stroke-width:1.284092;"/>
   </g>
   <g id="patch_42">
    <path clip-path="url(#pab42a6b33a)" d="M 598.334732 337.410905 
L 605.658911 337.410905 
L 605.658911 324.569985 
L 598.334732 324.569985 
z
" style="fill:#96c69a;fill-opacity:0.5;stroke:#ffffff;stroke-linejoin:miter;stroke-width:1.284092;"/>
   </g>
   <g id="patch_43">
    <path clip-path="url(#pab42a6b33a)" d="M 598.334732 324.569985 
L 602.212239 324.569985 
L 602.212239 311.729065 
L 598.334732 311.729065 
z
" style="fill:#96c69a;fill-opacity:0.5;stroke:#ffffff;stroke-linejoin:miter;stroke-width:1.284092;"/>
   </g>
   <g id="patch_44">
    <path clip-path="url(#pab42a6b33a)" d="M 598.334732 311.729065 
L 603.504741 311.729065 
L 603.504741 298.888145 
L 598.334732 298.888145 
z
" style="fill:#96c69a;fill-opacity:0.5;stroke:#ffffff;stroke-linejoin:miter;stroke-width:1.284092;"/>
   </g>
   <g id="patch_45">
    <path clip-path="url(#pab42a6b33a)" d="M 598.334732 298.888145 
L 600.919737 298.888145 
L 600.919737 286.047224 
L 598.334732 286.047224 
z
" style="fill:#96c69a;fill-opacity:0.5;stroke:#ffffff;stroke-linejoin:miter;stroke-width:1.284092;"/>
   </g>
   <g id="patch_46">
    <path clip-path="url(#pab42a6b33a)" d="M 598.334732 286.047224 
L 602.643073 286.047224 
L 602.643073 273.206304 
L 598.334732 273.206304 
z
" style="fill:#96c69a;fill-opacity:0.5;stroke:#ffffff;stroke-linejoin:miter;stroke-width:1.284092;"/>
   </g>
   <g id="patch_47">
    <path clip-path="url(#pab42a6b33a)" d="M 598.334732 273.206304 
L 600.058068 273.206304 
L 600.058068 260.365384 
L 598.334732 260.365384 
z
" style="fill:#96c69a;fill-opacity:0.5;stroke:#ffffff;stroke-linejoin:miter;stroke-width:1.284092;"/>
   </g>
   <g id="patch_48">
    <path clip-path="url(#pab42a6b33a)" d="M 598.334732 260.365384 
L 600.488903 260.365384 
L 600.488903 247.524464 
L 598.334732 247.524464 
z
" style="fill:#96c69a;fill-opacity:0.5;stroke:#ffffff;stroke-linejoin:miter;stroke-width:1.284092;"/>
   </g>
   <g id="patch_49">
    <path clip-path="url(#pab42a6b33a)" d="M 598.334732 247.524464 
L 599.1964 247.524464 
L 599.1964 234.683544 
L 598.334732 234.683544 
z
" style="fill:#96c69a;fill-opacity:0.5;stroke:#ffffff;stroke-linejoin:miter;stroke-width:1.284092;"/>
   </g>
   <g id="patch_50">
    <path clip-path="url(#pab42a6b33a)" d="M 598.334732 234.683544 
L 600.488903 234.683544 
L 600.488903 221.842623 
L 598.334732 221.842623 
z
" style="fill:#96c69a;fill-opacity:0.5;stroke:#ffffff;stroke-linejoin:miter;stroke-width:1.284092;"/>
   </g>
   <g id="patch_51">
    <path clip-path="url(#pab42a6b33a)" d="M 598.334732 221.842623 
L 599.627234 221.842623 
L 599.627234 209.001703 
L 598.334732 209.001703 
z
" style="fill:#96c69a;fill-opacity:0.5;stroke:#ffffff;stroke-linejoin:miter;stroke-width:1.284092;"/>
   </g>
   <g id="patch_52">
    <path clip-path="url(#pab42a6b33a)" d="M 598.334732 209.001703 
L 598.334732 209.001703 
L 598.334732 196.160783 
L 598.334732 196.160783 
z
" style="fill:#96c69a;fill-opacity:0.5;stroke:#ffffff;stroke-linejoin:miter;stroke-width:1.284092;"/>
   </g>
   <g id="patch_53">
    <path clip-path="url(#pab42a6b33a)" d="M 598.334732 196.160783 
L 598.334732 196.160783 
L 598.334732 183.319863 
L 598.334732 183.319863 
z
" style="fill:#96c69a;fill-opacity:0.5;stroke:#ffffff;stroke-linejoin:miter;stroke-width:1.284092;"/>
   </g>
   <g id="patch_54">
    <path clip-path="url(#pab42a6b33a)" d="M 598.334732 183.319863 
L 598.334732 183.319863 
L 598.334732 170.478942 
L 598.334732 170.478942 
z
" style="fill:#96c69a;fill-opacity:0.5;stroke:#ffffff;stroke-linejoin:miter;stroke-width:1.284092;"/>
   </g>
   <g id="patch_55">
    <path clip-path="url(#pab42a6b33a)" d="M 598.334732 170.478942 
L 598.334732 170.478942 
L 598.334732 157.638022 
L 598.334732 157.638022 
z
" style="fill:#96c69a;fill-opacity:0.5;stroke:#ffffff;stroke-linejoin:miter;stroke-width:1.284092;"/>
   </g>
   <g id="patch_56">
    <path clip-path="url(#pab42a6b33a)" d="M 598.334732 157.638022 
L 598.334732 157.638022 
L 598.334732 144.797102 
L 598.334732 144.797102 
z
" style="fill:#96c69a;fill-opacity:0.5;stroke:#ffffff;stroke-linejoin:miter;stroke-width:1.284092;"/>
   </g>
   <g id="patch_57">
    <path clip-path="url(#pab42a6b33a)" d="M 598.334732 144.797102 
L 598.765566 144.797102 
L 598.765566 131.956182 
L 598.334732 131.956182 
z
" style="fill:#96c69a;fill-opacity:0.5;stroke:#ffffff;stroke-linejoin:miter;stroke-width:1.284092;"/>
   </g>
   <g id="patch_58">
    <path d="M 598.334732 603.86 
L 598.334732 109.484571 
" style="fill:none;stroke:#262626;stroke-linecap:square;stroke-linejoin:miter;stroke-width:2.5;"/>
   </g>
   <g id="patch_59">
    <path d="M 598.334732 603.86 
L 681.571875 603.86 
" style="fill:none;stroke:#262626;stroke-linecap:square;stroke-linejoin:miter;stroke-width:2.5;"/>
   </g>
  </g>
 </g>
 <defs>
  <clipPath id="p9a1ca35d74">
   <rect height="494.375429" width="482.775429" x="98.911875" y="109.484571"/>
  </clipPath>
  <clipPath id="p59639053e6">
   <rect height="85.237143" width="482.775429" x="98.911875" y="7.2"/>
  </clipPath>
  <clipPath id="pab42a6b33a">
   <rect height="494.375429" width="83.237143" x="598.334732" y="109.484571"/>
  </clipPath>
 </defs>
</svg>
