<?xml version="1.0" encoding="utf-8" standalone="no"?>
<!DOCTYPE svg PUBLIC "-//W3C//DTD SVG 1.1//EN"
  "http://www.w3.org/Graphics/SVG/1.1/DTD/svg11.dtd">
<svg height="675.079375pt" version="1.1" viewBox="0 0 674.774375 675.079375" width="674.774375pt" xmlns="http://www.w3.org/2000/svg" xmlns:xlink="http://www.w3.org/1999/xlink">
 <metadata>
  <rdf:RDF xmlns:cc="http://creativecommons.org/ns#" xmlns:dc="http://purl.org/dc/elements/1.1/" xmlns:rdf="http://www.w3.org/1999/02/22-rdf-syntax-ns#">
   <cc:Work>
    <dc:type rdf:resource="http://purl.org/dc/dcmitype/StillImage"/>
    <dc:date>2021-07-16T21:44:06.062439</dc:date>
    <dc:format>image/svg+xml</dc:format>
    <dc:creator>
     <cc:Agent>
      <dc:title>Matplotlib v3.4.2, https://matplotlib.org/</dc:title>
     </cc:Agent>
    </dc:creator>
   </cc:Work>
  </rdf:RDF>
 </metadata>
 <defs>
  <style type="text/css">*{stroke-linecap:butt;stroke-linejoin:round;}</style>
 </defs>
 <g id="figure_1">
  <g id="patch_1">
   <path d="M 0 675.079375 
L 674.774375 675.079375 
L 674.774375 0 
L 0 0 
z
" style="fill:#ffffff;"/>
  </g>
  <g id="axes_1">
   <g id="patch_2">
    <path d="M 84.914375 603.86 
L 567.689804 603.86 
L 567.689804 109.484571 
L 84.914375 109.484571 
z
" style="fill:none;"/>
   </g>
   <g id="matplotlib.axis_1">
    <g id="xtick_1">
     <g id="text_1">
      <!-- 0 -->
      <g style="fill:#262626;" transform="translate(99.64041 636.076563)scale(0.22 -0.22)">
       <defs>
        <path d="M 2034 4250 
Q 1547 4250 1301 3770 
Q 1056 3291 1056 2328 
Q 1056 1369 1301 889 
Q 1547 409 2034 409 
Q 2525 409 2770 889 
Q 3016 1369 3016 2328 
Q 3016 3291 2770 3770 
Q 2525 4250 2034 4250 
z
M 2034 4750 
Q 2819 4750 3233 4129 
Q 3647 3509 3647 2328 
Q 3647 1150 3233 529 
Q 2819 -91 2034 -91 
Q 1250 -91 836 529 
Q 422 1150 422 2328 
Q 422 3509 836 4129 
Q 1250 4750 2034 4750 
z
" id="DejaVuSans-30" transform="scale(0.015625)"/>
       </defs>
       <use xlink:href="#DejaVuSans-30"/>
      </g>
     </g>
    </g>
    <g id="xtick_2">
     <g id="text_2">
      <!-- 20000 -->
      <g style="fill:#262626;" transform="translate(159.466671 636.076563)scale(0.22 -0.22)">
       <defs>
        <path d="M 1228 531 
L 3431 531 
L 3431 0 
L 469 0 
L 469 531 
Q 828 903 1448 1529 
Q 2069 2156 2228 2338 
Q 2531 2678 2651 2914 
Q 2772 3150 2772 3378 
Q 2772 3750 2511 3984 
Q 2250 4219 1831 4219 
Q 1534 4219 1204 4116 
Q 875 4013 500 3803 
L 500 4441 
Q 881 4594 1212 4672 
Q 1544 4750 1819 4750 
Q 2544 4750 2975 4387 
Q 3406 4025 3406 3419 
Q 3406 3131 3298 2873 
Q 3191 2616 2906 2266 
Q 2828 2175 2409 1742 
Q 1991 1309 1228 531 
z
" id="DejaVuSans-32" transform="scale(0.015625)"/>
       </defs>
       <use xlink:href="#DejaVuSans-32"/>
       <use x="63.623047" xlink:href="#DejaVuSans-30"/>
       <use x="127.246094" xlink:href="#DejaVuSans-30"/>
       <use x="190.869141" xlink:href="#DejaVuSans-30"/>
       <use x="254.492188" xlink:href="#DejaVuSans-30"/>
      </g>
     </g>
    </g>
    <g id="xtick_3">
     <g id="text_3">
      <!-- 40000 -->
      <g style="fill:#262626;" transform="translate(247.287932 636.076563)scale(0.22 -0.22)">
       <defs>
        <path d="M 2419 4116 
L 825 1625 
L 2419 1625 
L 2419 4116 
z
M 2253 4666 
L 3047 4666 
L 3047 1625 
L 3713 1625 
L 3713 1100 
L 3047 1100 
L 3047 0 
L 2419 0 
L 2419 1100 
L 313 1100 
L 313 1709 
L 2253 4666 
z
" id="DejaVuSans-34" transform="scale(0.015625)"/>
       </defs>
       <use xlink:href="#DejaVuSans-34"/>
       <use x="63.623047" xlink:href="#DejaVuSans-30"/>
       <use x="127.246094" xlink:href="#DejaVuSans-30"/>
       <use x="190.869141" xlink:href="#DejaVuSans-30"/>
       <use x="254.492188" xlink:href="#DejaVuSans-30"/>
      </g>
     </g>
    </g>
    <g id="xtick_4">
     <g id="text_4">
      <!-- 60000 -->
      <g style="fill:#262626;" transform="translate(335.109193 636.076563)scale(0.22 -0.22)">
       <defs>
        <path d="M 2113 2584 
Q 1688 2584 1439 2293 
Q 1191 2003 1191 1497 
Q 1191 994 1439 701 
Q 1688 409 2113 409 
Q 2538 409 2786 701 
Q 3034 994 3034 1497 
Q 3034 2003 2786 2293 
Q 2538 2584 2113 2584 
z
M 3366 4563 
L 3366 3988 
Q 3128 4100 2886 4159 
Q 2644 4219 2406 4219 
Q 1781 4219 1451 3797 
Q 1122 3375 1075 2522 
Q 1259 2794 1537 2939 
Q 1816 3084 2150 3084 
Q 2853 3084 3261 2657 
Q 3669 2231 3669 1497 
Q 3669 778 3244 343 
Q 2819 -91 2113 -91 
Q 1303 -91 875 529 
Q 447 1150 447 2328 
Q 447 3434 972 4092 
Q 1497 4750 2381 4750 
Q 2619 4750 2861 4703 
Q 3103 4656 3366 4563 
z
" id="DejaVuSans-36" transform="scale(0.015625)"/>
       </defs>
       <use xlink:href="#DejaVuSans-36"/>
       <use x="63.623047" xlink:href="#DejaVuSans-30"/>
       <use x="127.246094" xlink:href="#DejaVuSans-30"/>
       <use x="190.869141" xlink:href="#DejaVuSans-30"/>
       <use x="254.492188" xlink:href="#DejaVuSans-30"/>
      </g>
     </g>
    </g>
    <g id="xtick_5">
     <g id="text_5">
      <!-- 80000 -->
      <g style="fill:#262626;" transform="translate(422.930455 636.076563)scale(0.22 -0.22)">
       <defs>
        <path d="M 2034 2216 
Q 1584 2216 1326 1975 
Q 1069 1734 1069 1313 
Q 1069 891 1326 650 
Q 1584 409 2034 409 
Q 2484 409 2743 651 
Q 3003 894 3003 1313 
Q 3003 1734 2745 1975 
Q 2488 2216 2034 2216 
z
M 1403 2484 
Q 997 2584 770 2862 
Q 544 3141 544 3541 
Q 544 4100 942 4425 
Q 1341 4750 2034 4750 
Q 2731 4750 3128 4425 
Q 3525 4100 3525 3541 
Q 3525 3141 3298 2862 
Q 3072 2584 2669 2484 
Q 3125 2378 3379 2068 
Q 3634 1759 3634 1313 
Q 3634 634 3220 271 
Q 2806 -91 2034 -91 
Q 1263 -91 848 271 
Q 434 634 434 1313 
Q 434 1759 690 2068 
Q 947 2378 1403 2484 
z
M 1172 3481 
Q 1172 3119 1398 2916 
Q 1625 2713 2034 2713 
Q 2441 2713 2670 2916 
Q 2900 3119 2900 3481 
Q 2900 3844 2670 4047 
Q 2441 4250 2034 4250 
Q 1625 4250 1398 4047 
Q 1172 3844 1172 3481 
z
" id="DejaVuSans-38" transform="scale(0.015625)"/>
       </defs>
       <use xlink:href="#DejaVuSans-38"/>
       <use x="63.623047" xlink:href="#DejaVuSans-30"/>
       <use x="127.246094" xlink:href="#DejaVuSans-30"/>
       <use x="190.869141" xlink:href="#DejaVuSans-30"/>
       <use x="254.492188" xlink:href="#DejaVuSans-30"/>
      </g>
     </g>
    </g>
    <g id="xtick_6">
     <g id="text_6">
      <!-- 100000 -->
      <g style="fill:#262626;" transform="translate(503.752966 636.076563)scale(0.22 -0.22)">
       <defs>
        <path d="M 794 531 
L 1825 531 
L 1825 4091 
L 703 3866 
L 703 4441 
L 1819 4666 
L 2450 4666 
L 2450 531 
L 3481 531 
L 3481 0 
L 794 0 
L 794 531 
z
" id="DejaVuSans-31" transform="scale(0.015625)"/>
       </defs>
       <use xlink:href="#DejaVuSans-31"/>
       <use x="63.623047" xlink:href="#DejaVuSans-30"/>
       <use x="127.246094" xlink:href="#DejaVuSans-30"/>
       <use x="190.869141" xlink:href="#DejaVuSans-30"/>
       <use x="254.492188" xlink:href="#DejaVuSans-30"/>
       <use x="318.115234" xlink:href="#DejaVuSans-30"/>
      </g>
     </g>
    </g>
    <g id="text_7">
     <!-- MDTU -->
     <g style="fill:#262626;" transform="translate(290.596464 662.888125)scale(0.24 -0.24)">
      <defs>
       <path d="M 628 4666 
L 1569 4666 
L 2759 1491 
L 3956 4666 
L 4897 4666 
L 4897 0 
L 4281 0 
L 4281 4097 
L 3078 897 
L 2444 897 
L 1241 4097 
L 1241 0 
L 628 0 
L 628 4666 
z
" id="DejaVuSans-4d" transform="scale(0.015625)"/>
       <path d="M 1259 4147 
L 1259 519 
L 2022 519 
Q 2988 519 3436 956 
Q 3884 1394 3884 2338 
Q 3884 3275 3436 3711 
Q 2988 4147 2022 4147 
L 1259 4147 
z
M 628 4666 
L 1925 4666 
Q 3281 4666 3915 4102 
Q 4550 3538 4550 2338 
Q 4550 1131 3912 565 
Q 3275 0 1925 0 
L 628 0 
L 628 4666 
z
" id="DejaVuSans-44" transform="scale(0.015625)"/>
       <path d="M -19 4666 
L 3928 4666 
L 3928 4134 
L 2272 4134 
L 2272 0 
L 1638 0 
L 1638 4134 
L -19 4134 
L -19 4666 
z
" id="DejaVuSans-54" transform="scale(0.015625)"/>
       <path d="M 556 4666 
L 1191 4666 
L 1191 1831 
Q 1191 1081 1462 751 
Q 1734 422 2344 422 
Q 2950 422 3222 751 
Q 3494 1081 3494 1831 
L 3494 4666 
L 4128 4666 
L 4128 1753 
Q 4128 841 3676 375 
Q 3225 -91 2344 -91 
Q 1459 -91 1007 375 
Q 556 841 556 1753 
L 556 4666 
z
" id="DejaVuSans-55" transform="scale(0.015625)"/>
      </defs>
      <use xlink:href="#DejaVuSans-4d"/>
      <use x="86.279297" xlink:href="#DejaVuSans-44"/>
      <use x="163.28125" xlink:href="#DejaVuSans-54"/>
      <use x="224.365234" xlink:href="#DejaVuSans-55"/>
     </g>
    </g>
   </g>
   <g id="matplotlib.axis_2">
    <g id="ytick_1">
     <g id="text_8">
      <!-- 0.4 -->
      <g style="fill:#262626;" transform="translate(34.4275 584.245145)scale(0.22 -0.22)">
       <defs>
        <path d="M 684 794 
L 1344 794 
L 1344 0 
L 684 0 
L 684 794 
z
" id="DejaVuSans-2e" transform="scale(0.015625)"/>
       </defs>
       <use xlink:href="#DejaVuSans-30"/>
       <use x="63.623047" xlink:href="#DejaVuSans-2e"/>
       <use x="95.410156" xlink:href="#DejaVuSans-34"/>
      </g>
     </g>
    </g>
    <g id="ytick_2">
     <g id="text_9">
      <!-- 0.6 -->
      <g style="fill:#262626;" transform="translate(34.4275 516.644054)scale(0.22 -0.22)">
       <use xlink:href="#DejaVuSans-30"/>
       <use x="63.623047" xlink:href="#DejaVuSans-2e"/>
       <use x="95.410156" xlink:href="#DejaVuSans-36"/>
      </g>
     </g>
    </g>
    <g id="ytick_3">
     <g id="text_10">
      <!-- 0.8 -->
      <g style="fill:#262626;" transform="translate(34.4275 449.042963)scale(0.22 -0.22)">
       <use xlink:href="#DejaVuSans-30"/>
       <use x="63.623047" xlink:href="#DejaVuSans-2e"/>
       <use x="95.410156" xlink:href="#DejaVuSans-38"/>
      </g>
     </g>
    </g>
    <g id="ytick_4">
     <g id="text_11">
      <!-- 1.0 -->
      <g style="fill:#262626;" transform="translate(34.4275 381.441872)scale(0.22 -0.22)">
       <use xlink:href="#DejaVuSans-31"/>
       <use x="63.623047" xlink:href="#DejaVuSans-2e"/>
       <use x="95.410156" xlink:href="#DejaVuSans-30"/>
      </g>
     </g>
    </g>
    <g id="ytick_5">
     <g id="text_12">
      <!-- 1.2 -->
      <g style="fill:#262626;" transform="translate(34.4275 313.840781)scale(0.22 -0.22)">
       <use xlink:href="#DejaVuSans-31"/>
       <use x="63.623047" xlink:href="#DejaVuSans-2e"/>
       <use x="95.410156" xlink:href="#DejaVuSans-32"/>
      </g>
     </g>
    </g>
    <g id="ytick_6">
     <g id="text_13">
      <!-- 1.4 -->
      <g style="fill:#262626;" transform="translate(34.4275 246.23969)scale(0.22 -0.22)">
       <use xlink:href="#DejaVuSans-31"/>
       <use x="63.623047" xlink:href="#DejaVuSans-2e"/>
       <use x="95.410156" xlink:href="#DejaVuSans-34"/>
      </g>
     </g>
    </g>
    <g id="ytick_7">
     <g id="text_14">
      <!-- 1.6 -->
      <g style="fill:#262626;" transform="translate(34.4275 178.6386)scale(0.22 -0.22)">
       <use xlink:href="#DejaVuSans-31"/>
       <use x="63.623047" xlink:href="#DejaVuSans-2e"/>
       <use x="95.410156" xlink:href="#DejaVuSans-36"/>
      </g>
     </g>
    </g>
    <g id="text_15">
     <!-- $E$ -->
     <g style="fill:#262626;" transform="translate(25.43625 364.352286)rotate(-90)scale(0.24 -0.24)">
      <defs>
       <path d="M 1081 4666 
L 4031 4666 
L 3928 4134 
L 1606 4134 
L 1338 2753 
L 3566 2753 
L 3463 2222 
L 1234 2222 
L 909 531 
L 3284 531 
L 3181 0 
L 172 0 
L 1081 4666 
z
" id="DejaVuSans-Oblique-45" transform="scale(0.015625)"/>
      </defs>
      <use transform="translate(0 0.09375)" xlink:href="#DejaVuSans-Oblique-45"/>
     </g>
    </g>
   </g>
   <g id="line2d_1">
    <path clip-path="url(#p8bca4c9fd3)" d="M 106.858713 440.350602 
L 107.078266 428.040785 
L 107.297819 426.622417 
L 107.517372 491.59952 
L 107.736925 380.391261 
L 107.956478 510.504412 
L 108.176032 449.357235 
L 108.395585 432.789752 
L 108.615138 483.554138 
L 108.834691 387.630194 
L 109.273797 486.029068 
L 109.493351 466.967553 
L 109.712904 471.021107 
L 109.932457 504.502188 
L 110.371563 388.748011 
L 110.591116 465.830516 
L 110.810669 393.07251 
L 111.030223 499.775978 
L 111.249776 408.894602 
L 111.469329 437.581973 
L 111.688882 405.339545 
L 111.908435 444.670289 
L 112.127988 462.902581 
L 112.567095 543.719712 
L 113.006201 402.699228 
L 113.225754 394.734588 
L 113.445307 431.469735 
L 113.66486 443.345538 
L 113.884414 468.862115 
L 114.103967 354.657023 
L 114.32352 441.933815 
L 114.543073 432.660075 
L 114.762626 435.247424 
L 114.982179 382.384663 
L 115.421286 565.416289 
L 115.640839 403.796994 
L 115.860392 427.988591 
L 116.079945 487.99355 
L 116.299498 432.475996 
L 116.738605 523.44592 
L 117.177711 438.441489 
L 117.616817 488.040179 
L 117.83637 557.605161 
L 118.055923 438.36268 
L 118.275477 427.420431 
L 118.49503 542.045994 
L 118.714583 411.188064 
L 118.934136 427.967393 
L 119.153689 410.29731 
L 119.373242 521.541113 
L 119.592796 456.972737 
L 119.812349 523.852735 
L 120.031902 495.290927 
L 120.251455 426.515471 
L 120.471008 401.623417 
L 120.690561 456.723971 
L 120.910114 446.827313 
L 121.129668 426.330289 
L 121.349221 451.406219 
L 121.568774 389.34939 
L 121.788327 475.976419 
L 122.00788 452.190688 
L 122.227433 355.879305 
L 122.446987 518.251065 
L 122.66654 528.379962 
L 122.886093 546.669829 
L 123.105646 477.966967 
L 123.325199 481.964384 
L 123.544752 548.115397 
L 123.764305 335.41631 
L 124.203412 501.130495 
L 124.422965 371.312602 
L 124.642518 411.458553 
L 125.081624 536.115594 
L 125.301178 508.197849 
L 125.520731 507.263959 
L 125.959837 353.410044 
L 126.17939 464.347733 
L 126.398943 373.753271 
L 126.83805 476.884431 
L 127.057603 374.253774 
L 127.716262 515.497112 
L 127.935815 335.011993 
L 128.155369 320.744243 
L 128.374922 366.299919 
L 128.594475 441.138258 
L 128.814028 457.390482 
L 129.033581 290.060453 
L 129.253134 382.934852 
L 129.472687 545.034487 
L 129.692241 431.469873 
L 129.911794 500.233322 
L 130.131347 455.363167 
L 130.3509 458.601876 
L 130.570453 454.580571 
L 130.790006 467.3716 
L 131.00956 405.555736 
L 131.229113 408.414339 
L 131.448666 391.361181 
L 131.668219 462.999553 
L 131.887772 375.290753 
L 132.107325 362.091612 
L 132.326878 476.15248 
L 132.546432 468.707717 
L 132.765985 474.0762 
L 132.985538 510.455214 
L 133.205091 471.199991 
L 133.424644 410.243577 
L 133.644197 502.391404 
L 133.863751 458.769697 
L 134.083304 490.399342 
L 134.302857 455.678369 
L 134.52241 457.516738 
L 134.741963 482.929459 
L 134.961516 551.361559 
L 135.181069 422.203115 
L 135.400623 508.800369 
L 135.620176 487.751728 
L 135.839729 487.976495 
L 136.059282 477.044275 
L 136.278835 530.324571 
L 136.498388 423.660177 
L 136.717941 422.274138 
L 137.157048 556.657684 
L 137.376601 418.532746 
L 137.815707 471.982461 
L 138.03526 400.199573 
L 138.254814 495.055074 
L 138.474367 539.704581 
L 138.69392 357.061667 
L 138.913473 369.175188 
L 139.133026 483.867978 
L 139.572132 361.958231 
L 139.791686 389.939785 
L 140.011239 525.000496 
L 140.230792 481.858029 
L 140.450345 334.909633 
L 140.669898 365.529737 
L 140.889451 539.755207 
L 141.109005 521.446322 
L 141.328558 382.295982 
L 141.548111 425.067005 
L 141.767664 321.610037 
L 142.20677 527.439615 
L 142.645877 441.791893 
L 143.084983 461.899951 
L 143.304536 440.201893 
L 143.524089 446.009454 
L 143.743642 512.487464 
L 143.963196 398.202672 
L 144.182749 527.381323 
L 144.402302 440.43561 
L 144.621855 401.979592 
L 144.841408 500.76748 
L 145.060961 468.773456 
L 145.280514 579.984478 
L 145.500068 408.903828 
L 145.719621 469.381271 
L 145.939174 447.54265 
L 146.37828 507.457228 
L 146.597833 500.219397 
L 146.817387 345.631552 
L 147.476046 505.281257 
L 147.695599 332.596851 
L 147.915152 469.716096 
L 148.134705 364.438145 
L 148.573812 495.045785 
L 148.793365 527.49125 
L 149.012918 429.14644 
L 149.232471 487.658166 
L 149.452024 387.635197 
L 149.671578 397.985723 
L 149.891131 479.815372 
L 150.330237 363.323095 
L 150.54979 465.227349 
L 150.769343 512.953144 
L 150.988896 474.995564 
L 151.20845 497.846505 
L 151.428003 350.988058 
L 151.867109 485.252227 
L 152.086662 451.490262 
L 152.306215 494.362309 
L 152.525769 435.654694 
L 152.745322 305.090927 
L 152.964875 500.867869 
L 153.403981 418.260945 
L 153.623534 500.450264 
L 153.843087 394.303519 
L 154.062641 409.695587 
L 154.501747 511.719877 
L 154.7213 478.243151 
L 155.160406 340.314742 
L 155.37996 480.688626 
L 155.599513 469.641938 
L 155.819066 471.673679 
L 156.038619 446.044841 
L 156.258172 464.811658 
L 156.477725 334.489306 
L 156.697278 415.011648 
L 156.916832 375.507312 
L 157.136385 502.588316 
L 157.355938 454.735025 
L 157.575491 337.304618 
L 157.795044 553.133813 
L 158.014597 424.628484 
L 158.234151 481.156809 
L 158.673257 396.362312 
L 158.89281 465.681244 
L 159.112363 418.086737 
L 159.331916 545.55342 
L 159.551469 390.17712 
L 159.771023 440.196138 
L 159.990576 431.560391 
L 160.210129 541.713257 
L 160.429682 456.231618 
L 160.649235 491.351686 
L 160.868788 419.461428 
L 161.088342 434.337824 
L 161.307895 431.319701 
L 161.527448 384.929698 
L 161.747001 536.889145 
L 162.186107 416.695133 
L 162.40566 367.861884 
L 162.625214 427.235022 
L 162.844767 552.648028 
L 163.06432 334.813896 
L 163.503426 501.313797 
L 163.722979 379.790461 
L 163.942532 467.406273 
L 164.162086 434.119854 
L 164.381639 502.735918 
L 164.601192 490.169442 
L 164.820745 525.747093 
L 165.259851 351.232099 
L 165.698958 497.385035 
L 165.918511 553.818794 
L 166.138064 199.288823 
L 166.57717 568.823017 
L 166.796723 532.28829 
L 167.016277 514.635809 
L 167.23583 508.211336 
L 167.455383 444.761522 
L 167.674936 440.134278 
L 167.894489 570.051864 
L 168.114042 514.035011 
L 168.333596 535.713467 
L 168.553149 538.299343 
L 168.772702 501.148288 
L 168.992255 411.428135 
L 169.211808 503.799517 
L 169.650914 216.16751 
L 169.870468 511.729804 
L 170.090021 392.872071 
L 170.529127 526.23183 
L 170.74868 531.995027 
L 171.187787 465.130988 
L 171.40734 532.707956 
L 171.626893 408.176959 
L 171.846446 478.041274 
L 172.065999 401.738111 
L 172.285552 538.905041 
L 172.505105 459.592835 
L 172.724659 521.419531 
L 172.944212 389.552201 
L 173.163765 471.713171 
L 173.383318 443.453893 
L 173.602871 341.199721 
L 173.822424 316.110482 
L 174.041978 429.295868 
L 174.261531 467.300592 
L 174.700637 365.352181 
L 174.92019 552.214714 
L 175.139743 410.353405 
L 175.359296 497.382977 
L 175.57885 478.695332 
L 175.798403 555.901508 
L 176.017956 564.296888 
L 176.237509 394.295331 
L 176.676615 463.090415 
L 176.896169 397.596673 
L 177.335275 440.363825 
L 177.554828 519.24793 
L 177.774381 452.419693 
L 177.993934 495.05683 
L 178.213487 344.344834 
L 178.433041 427.240699 
L 178.652594 424.67243 
L 178.872147 467.319539 
L 179.0917 410.927224 
L 179.311253 466.051879 
L 179.530806 391.942225 
L 179.969913 538.032839 
L 180.189466 380.3025 
L 180.409019 377.360047 
L 180.628572 435.620251 
L 180.848125 458.49992 
L 181.067678 452.140434 
L 181.287232 449.729243 
L 181.506785 441.686655 
L 181.726338 444.188851 
L 181.945891 444.941256 
L 182.165444 485.399117 
L 182.384997 455.337168 
L 182.604551 463.55998 
L 183.043657 312.857044 
L 183.26321 348.498189 
L 183.482763 478.267486 
L 183.702316 442.644665 
L 183.921869 470.986466 
L 184.141423 322.298379 
L 184.360976 559.309121 
L 184.800082 329.727182 
L 185.019635 476.039098 
L 185.239188 516.869827 
L 185.678295 282.218846 
L 185.897848 321.877119 
L 186.117401 490.014212 
L 186.336954 386.232396 
L 186.556507 514.454751 
L 186.995614 348.113408 
L 187.215167 411.875026 
L 187.43472 384.6405 
L 187.654273 424.54559 
L 187.873826 517.285784 
L 188.093379 509.338166 
L 188.532486 379.574139 
L 188.752039 365.743272 
L 188.971592 455.500922 
L 189.191145 455.0423 
L 189.410698 438.808137 
L 189.630251 444.17422 
L 189.849805 397.637523 
L 190.069358 488.999016 
L 190.288911 463.937293 
L 190.508464 536.924249 
L 190.728017 463.882132 
L 190.94757 337.843873 
L 191.167123 484.34801 
L 191.386677 525.734671 
L 191.60623 477.382461 
L 191.825783 402.435829 
L 192.045336 456.557668 
L 192.264889 388.699418 
L 192.484442 522.731489 
L 192.703996 500.912986 
L 192.923549 341.671937 
L 193.143102 440.374017 
L 193.362655 357.718044 
L 193.582208 433.488199 
L 193.801761 385.430718 
L 194.021314 485.104312 
L 194.240868 423.511164 
L 194.460421 518.919475 
L 194.679974 402.290503 
L 194.899527 483.00227 
L 195.11908 427.655713 
L 195.338633 479.625289 
L 195.558187 492.816857 
L 195.997293 420.531199 
L 196.216846 500.596681 
L 196.436399 478.47882 
L 196.655952 431.307186 
L 196.875505 523.565097 
L 197.095059 524.989118 
L 197.314612 437.845943 
L 197.534165 499.000195 
L 197.753718 498.491205 
L 197.973271 409.442925 
L 198.192824 476.406189 
L 198.412378 398.160125 
L 198.631931 478.624499 
L 198.851484 470.947639 
L 199.071037 435.918776 
L 199.510143 466.998015 
L 199.729696 438.490053 
L 199.94925 515.015532 
L 200.168803 516.113021 
L 200.388356 338.487896 
L 200.607909 437.725972 
L 200.827462 457.459396 
L 201.047015 493.035218 
L 201.266569 468.976175 
L 201.486122 480.510995 
L 201.705675 504.746703 
L 201.925228 350.659269 
L 202.144781 548.486496 
L 202.364334 548.812196 
L 202.583887 476.22696 
L 202.803441 467.923047 
L 203.022994 464.185428 
L 203.242547 263.076435 
L 203.4621 437.585146 
L 203.681653 521.085948 
L 204.12076 493.355214 
L 204.340313 388.211676 
L 204.559866 489.30586 
L 204.998972 305.393661 
L 205.218525 470.989479 
L 205.438078 471.278529 
L 205.657632 442.819381 
L 205.877185 530.070248 
L 206.096738 411.637348 
L 206.316291 477.962378 
L 206.535844 403.234409 
L 206.755397 513.874485 
L 206.974951 468.938854 
L 207.194504 382.097784 
L 207.414057 447.314312 
L 207.63361 395.625398 
L 207.853163 437.919125 
L 208.072716 576.770952 
L 208.511823 376.098343 
L 208.731376 499.961532 
L 208.950929 462.767416 
L 209.170482 581.38839 
L 209.390035 405.542729 
L 209.609588 508.622422 
L 209.829142 327.761494 
L 210.268248 500.118246 
L 210.707354 346.792562 
L 211.14646 513.305926 
L 211.366014 481.136914 
L 211.585567 480.957856 
L 211.80512 480.611114 
L 212.024673 417.905836 
L 212.244226 522.221747 
L 212.463779 451.154089 
L 212.683333 254.862214 
L 212.902886 523.592639 
L 213.341992 383.477279 
L 213.561545 437.46539 
L 213.781098 402.780519 
L 214.000651 403.64006 
L 214.220205 430.391272 
L 214.439758 430.006758 
L 214.659311 411.729347 
L 214.878864 413.746903 
L 215.098417 388.856783 
L 215.31797 457.900256 
L 215.537523 422.245453 
L 215.757077 452.293135 
L 215.97663 514.487632 
L 216.196183 449.390444 
L 216.415736 314.477537 
L 216.635289 520.48566 
L 217.074396 375.07435 
L 217.293949 482.425152 
L 217.513502 450.848322 
L 217.733055 525.385983 
L 217.952608 451.071303 
L 218.172161 416.717213 
L 218.391714 291.387766 
L 218.611268 426.106286 
L 218.830821 425.37841 
L 219.050374 531.133955 
L 219.48948 460.839647 
L 219.709033 398.499325 
L 219.928587 429.639751 
L 220.14814 435.259987 
L 220.367693 399.444639 
L 220.587246 524.440391 
L 220.806799 499.757509 
L 221.026352 280.746159 
L 221.245905 409.306822 
L 221.465459 425.42839 
L 221.685012 375.919375 
L 221.904565 460.780596 
L 222.124118 445.47221 
L 222.343671 482.994613 
L 222.563224 481.727534 
L 223.002331 560.144574 
L 223.221884 360.000019 
L 223.441437 331.313475 
L 223.66099 348.610228 
L 223.880543 417.439676 
L 224.31965 369.935186 
L 224.758756 494.5295 
L 224.978309 393.705152 
L 225.197862 461.993359 
L 225.417415 294.328578 
L 225.636969 451.702455 
L 225.856522 522.051431 
L 226.076075 468.119978 
L 226.295628 370.54053 
L 226.515181 489.082198 
L 226.954287 377.076879 
L 227.173841 390.12226 
L 227.393394 473.046696 
L 227.612947 314.424283 
L 227.8325 518.366798 
L 228.052053 516.678715 
L 228.271606 551.5859 
L 228.49116 366.506951 
L 228.710713 441.453327 
L 228.930266 284.856978 
L 229.149819 363.609237 
L 229.369372 549.164116 
L 229.588925 510.18799 
L 229.808478 396.611957 
L 230.028032 495.03912 
L 230.467138 456.501873 
L 230.686691 361.818045 
L 230.906244 529.126824 
L 231.125797 448.916412 
L 231.345351 414.519645 
L 231.564904 423.138369 
L 232.00401 461.772527 
L 232.223563 442.082157 
L 232.662669 558.413824 
L 232.882223 521.776661 
L 233.101776 509.444404 
L 233.321329 482.975505 
L 233.540882 521.85698 
L 233.760435 541.015046 
L 233.979988 475.969759 
L 234.199542 484.411291 
L 234.419095 435.073409 
L 234.638648 346.530406 
L 234.858201 463.738378 
L 235.297307 544.901472 
L 235.51686 392.857218 
L 235.736414 355.900987 
L 235.955967 506.386813 
L 236.17552 357.208858 
L 236.395073 447.972821 
L 236.614626 359.388704 
L 236.834179 484.675033 
L 237.053733 443.771576 
L 237.273286 458.755793 
L 237.712392 502.379365 
L 237.931945 376.344206 
L 238.151498 429.398004 
L 238.371051 358.519366 
L 238.590605 485.378463 
L 238.810158 436.527536 
L 239.029711 455.38456 
L 239.249264 444.563963 
L 239.468817 320.207551 
L 239.68837 494.760054 
L 239.907924 421.829582 
L 240.127477 449.857231 
L 240.34703 453.681698 
L 240.786136 555.289778 
L 241.005689 510.681315 
L 241.225242 536.015705 
L 241.444796 485.339874 
L 241.664349 508.527795 
L 241.883902 385.643914 
L 242.103455 481.622528 
L 242.323008 501.427215 
L 242.542561 394.195427 
L 242.762114 142.583087 
L 242.981668 467.021958 
L 243.201221 499.167088 
L 243.420774 431.066496 
L 243.640327 456.406304 
L 243.85988 452.766996 
L 244.079433 403.140265 
L 244.298987 421.933393 
L 244.51854 426.864642 
L 244.738093 446.320624 
L 244.957646 496.230755 
L 245.177199 516.054878 
L 245.396752 506.102022 
L 245.616305 532.220347 
L 245.835859 525.246 
L 246.055412 404.279827 
L 246.274965 408.572958 
L 246.933624 551.154314 
L 247.153178 472.117616 
L 247.372731 546.627687 
L 247.592284 362.693886 
L 247.811837 393.109284 
L 248.03139 461.510491 
L 248.250943 474.448849 
L 248.470496 478.24253 
L 248.69005 309.965124 
L 248.909603 508.184799 
L 249.129156 517.94873 
L 249.348709 413.179823 
L 249.568262 514.534658 
L 249.787815 451.105253 
L 250.007369 354.497331 
L 250.226922 361.634502 
L 250.446475 501.735881 
L 250.666028 433.862332 
L 250.885581 433.034146 
L 251.105134 418.218483 
L 251.324687 380.912803 
L 251.763794 543.712664 
L 251.983347 361.476288 
L 252.2029 478.601967 
L 252.422453 506.496858 
L 252.642006 352.985217 
L 252.86156 463.690329 
L 253.081113 511.046043 
L 253.300666 451.83043 
L 253.520219 440.799576 
L 253.739772 403.662983 
L 253.959325 485.075734 
L 254.178878 387.148043 
L 254.398432 467.238791 
L 254.617985 465.181738 
L 254.837538 478.494121 
L 255.057091 433.602926 
L 255.276644 445.707974 
L 255.496197 299.731738 
L 255.715751 371.301693 
L 255.935304 374.919421 
L 256.154857 380.915286 
L 256.37441 371.955762 
L 256.593963 370.782588 
L 256.813516 418.561554 
L 257.033069 514.004255 
L 257.252623 541.669817 
L 257.691729 324.748602 
L 257.911282 356.123867 
L 258.130835 330.862346 
L 258.350388 484.832822 
L 258.569942 433.396459 
L 258.789495 449.881824 
L 259.009048 435.496544 
L 259.228601 520.930867 
L 259.448154 377.616991 
L 259.88726 499.045665 
L 260.106814 409.700203 
L 260.326367 418.37131 
L 260.54592 283.048026 
L 260.765473 459.513099 
L 260.985026 387.489714 
L 261.204579 537.279396 
L 261.424133 556.718011 
L 261.643686 439.892898 
L 261.863239 419.747481 
L 262.082792 460.242805 
L 262.302345 284.338611 
L 262.521898 275.06535 
L 262.741451 513.66603 
L 262.961005 484.968421 
L 263.180558 489.203486 
L 263.400111 278.51281 
L 263.619664 455.062873 
L 263.839217 441.428662 
L 264.05877 413.612221 
L 264.278324 479.600882 
L 264.497877 460.24314 
L 264.71743 405.567576 
L 264.936983 386.163558 
L 265.156536 454.878017 
L 265.376089 385.505147 
L 265.595642 362.988974 
L 266.034749 550.661005 
L 266.254302 414.999118 
L 266.473855 538.653797 
L 266.912961 383.500562 
L 267.132514 360.342657 
L 267.571621 484.499677 
L 267.791174 523.238677 
L 268.010727 528.110902 
L 268.23028 388.71294 
L 268.449833 483.015169 
L 268.669387 481.888674 
L 268.88894 345.49075 
L 269.328046 509.070578 
L 269.547599 337.181357 
L 269.767152 505.456252 
L 269.986705 329.988981 
L 270.206259 324.596324 
L 270.425812 495.546168 
L 270.645365 471.74703 
L 270.864918 340.603596 
L 271.084471 385.441179 
L 271.304024 488.054251 
L 271.523578 507.602047 
L 271.743131 456.218771 
L 272.182237 529.108254 
L 272.40179 537.136247 
L 272.621343 471.663544 
L 272.840896 470.249093 
L 273.06045 457.882737 
L 273.280003 458.566105 
L 273.499556 548.590131 
L 273.719109 468.469813 
L 273.938662 493.937461 
L 274.158215 493.859518 
L 274.377769 511.61404 
L 274.597322 482.487491 
L 274.816875 544.767026 
L 275.036428 407.525559 
L 275.475534 479.181687 
L 275.695087 463.758315 
L 275.914641 515.918344 
L 276.134194 159.256159 
L 276.5733 538.865755 
L 277.012406 259.73999 
L 277.23196 515.616062 
L 277.451513 503.284511 
L 277.671066 422.350892 
L 277.890619 474.667546 
L 278.110172 384.575284 
L 278.329725 503.22463 
L 278.549278 458.15123 
L 278.768832 348.791966 
L 278.988385 463.899785 
L 279.207938 492.524046 
L 279.427491 503.068039 
L 279.647044 427.862098 
L 279.866597 399.842351 
L 280.086151 548.918409 
L 280.525257 345.400259 
L 280.74481 517.543006 
L 280.964363 446.288269 
L 281.183916 431.503108 
L 281.403469 402.780003 
L 281.623023 506.341358 
L 281.842576 472.372563 
L 282.062129 396.014165 
L 282.281682 520.298097 
L 282.501235 466.324531 
L 282.720788 519.52224 
L 282.940342 451.798783 
L 283.159895 344.373451 
L 283.379448 470.807768 
L 283.599001 434.819773 
L 283.818554 435.488845 
L 284.25766 481.158537 
L 284.477214 439.878176 
L 284.696767 437.086429 
L 284.91632 400.368901 
L 285.135873 505.018634 
L 285.355426 403.255842 
L 285.574979 357.952525 
L 286.233639 519.003547 
L 286.453192 342.171648 
L 286.672745 397.42532 
L 286.892298 391.507146 
L 287.111851 517.768936 
L 287.331405 472.479272 
L 287.550958 514.620278 
L 287.770511 505.120001 
L 287.990064 500.876224 
L 288.209617 373.916285 
L 288.42917 406.019446 
L 288.648724 368.732408 
L 288.868277 446.493008 
L 289.08783 455.240574 
L 289.307383 385.351072 
L 289.526936 381.057027 
L 289.746489 443.863676 
L 289.966042 410.639958 
L 290.405149 446.678577 
L 290.624702 408.277311 
L 291.063808 498.420941 
L 291.283361 404.207679 
L 291.502915 405.440774 
L 291.722468 345.575046 
L 291.942021 452.817417 
L 292.381127 507.933688 
L 292.60068 544.684857 
L 292.820233 331.056684 
L 293.039787 504.469933 
L 293.25934 490.149063 
L 293.478893 329.182516 
L 293.698446 413.459038 
L 293.917999 444.847004 
L 294.137552 397.550923 
L 294.357105 507.957715 
L 294.576659 494.538374 
L 294.796212 535.540663 
L 295.015765 533.677758 
L 295.454871 343.922547 
L 295.674424 456.878137 
L 295.893978 388.058643 
L 296.113531 354.137307 
L 296.333084 545.856964 
L 296.552637 420.791444 
L 296.991743 558.068353 
L 297.211296 370.567023 
L 297.43085 439.553089 
L 297.650403 391.921428 
L 297.869956 465.175068 
L 298.089509 466.723042 
L 298.309062 447.498359 
L 298.528615 561.34302 
L 298.748169 469.875649 
L 298.967722 455.487515 
L 299.187275 340.937603 
L 299.406828 342.04408 
L 299.626381 482.418062 
L 299.845934 420.952614 
L 300.065487 395.678298 
L 300.285041 539.938119 
L 300.504594 394.175134 
L 300.724147 513.596926 
L 301.382806 468.782598 
L 301.821913 479.472502 
L 302.041466 456.324569 
L 302.261019 212.994165 
L 302.480572 412.810316 
L 302.700125 448.980821 
L 302.919678 406.479024 
L 303.139232 443.734814 
L 303.358785 449.648695 
L 303.578338 525.221566 
L 303.797891 474.044499 
L 304.017444 572.56881 
L 304.236997 457.002558 
L 304.456551 462.383114 
L 304.895657 550.215309 
L 305.11521 385.911743 
L 305.334763 404.366648 
L 305.554316 391.623916 
L 305.773869 415.651253 
L 305.993423 382.581236 
L 306.432529 488.415062 
L 306.652082 435.309859 
L 306.871635 250.565005 
L 307.310742 496.470065 
L 307.530295 397.631802 
L 307.749848 526.079939 
L 307.969401 529.287359 
L 308.188954 427.818691 
L 308.408507 391.706953 
L 308.62806 323.777236 
L 308.847614 342.607094 
L 309.067167 309.222911 
L 309.28672 296.999626 
L 309.725826 454.228178 
L 309.945379 467.018387 
L 310.164933 529.049016 
L 310.384486 496.079791 
L 310.604039 382.925228 
L 310.823592 450.743971 
L 311.262698 412.079297 
L 311.482251 492.26 
L 311.701805 393.108824 
L 311.921358 515.250856 
L 312.140911 443.374448 
L 312.360464 471.144443 
L 312.580017 440.825274 
L 312.79957 321.176883 
L 313.238677 471.552579 
L 313.45823 325.442237 
L 313.677783 506.79951 
L 313.897336 560.471147 
L 314.336442 459.557074 
L 314.555996 447.869048 
L 314.775549 380.094765 
L 314.995102 480.582395 
L 315.214655 467.521642 
L 315.434208 482.397694 
L 315.653761 401.205846 
L 315.873315 481.278969 
L 316.092868 480.980377 
L 316.531974 347.994632 
L 316.751527 378.22851 
L 316.97108 316.593671 
L 317.190633 421.90224 
L 317.410187 424.16099 
L 317.62974 357.017258 
L 317.849293 550.840934 
L 318.068846 409.10876 
L 318.288399 518.684511 
L 318.507952 533.886161 
L 318.727506 509.174557 
L 318.947059 297.075551 
L 319.166612 496.499376 
L 319.386165 223.106727 
L 319.605718 437.405425 
L 319.825271 316.240916 
L 320.483931 529.626446 
L 320.923037 481.926655 
L 321.14259 354.05067 
L 321.362143 437.32412 
L 321.581696 368.496498 
L 321.80125 522.577539 
L 322.240356 386.793366 
L 322.459909 516.42277 
L 322.679462 313.983884 
L 322.899015 514.327721 
L 323.118569 481.523596 
L 323.338122 480.407259 
L 323.557675 461.242876 
L 323.777228 386.545307 
L 323.996781 542.233019 
L 324.216334 377.964651 
L 324.435887 480.568655 
L 324.655441 421.080438 
L 324.874994 417.493247 
L 325.094547 422.318498 
L 325.3141 412.277842 
L 325.533653 392.245172 
L 325.753206 392.358831 
L 325.97276 356.731284 
L 326.411866 486.901964 
L 326.631419 452.090385 
L 326.850972 539.193324 
L 327.070525 552.04436 
L 327.290078 390.575768 
L 327.509632 533.65298 
L 327.729185 500.105082 
L 327.948738 433.107236 
L 328.168291 530.950923 
L 328.387844 460.389797 
L 328.607397 529.576717 
L 328.826951 533.358876 
L 329.266057 337.955682 
L 329.48561 348.053868 
L 329.705163 515.455756 
L 329.924716 506.630695 
L 330.144269 541.998956 
L 330.363823 534.979103 
L 330.583376 457.708959 
L 331.022482 363.299855 
L 331.461588 438.861819 
L 331.681142 474.186337 
L 332.120248 499.405671 
L 332.339801 379.257623 
L 332.559354 535.687904 
L 332.778907 320.898162 
L 332.99846 564.143377 
L 333.437567 440.452087 
L 333.65712 479.346656 
L 333.876673 423.013749 
L 334.096226 538.487493 
L 334.315779 480.951228 
L 334.535333 328.103852 
L 334.754886 342.443297 
L 334.974439 445.228372 
L 335.413545 504.570019 
L 335.633098 439.710365 
L 335.852651 439.906845 
L 336.072205 443.648838 
L 336.291758 461.176186 
L 336.511311 351.488699 
L 336.950417 413.62761 
L 337.16997 422.037083 
L 337.389524 527.992009 
L 337.609077 432.360658 
L 337.82863 497.475493 
L 338.048183 367.192837 
L 338.267736 478.613398 
L 338.487289 505.786904 
L 338.706842 378.006734 
L 338.926396 541.087935 
L 339.145949 304.745577 
L 339.365502 524.177722 
L 339.585055 414.416991 
L 339.804608 524.129003 
L 340.024161 500.709693 
L 340.243715 356.097205 
L 340.463268 522.155429 
L 340.682821 491.576411 
L 340.902374 548.239784 
L 341.121927 424.90595 
L 341.34148 555.379981 
L 341.780587 423.252775 
L 342.00014 471.152844 
L 342.219693 460.42063 
L 342.439246 345.544039 
L 342.658799 461.283895 
L 342.878352 335.318594 
L 343.097906 389.767439 
L 343.317459 397.738697 
L 343.537012 455.725988 
L 343.756565 398.020419 
L 343.976118 496.575775 
L 344.195671 499.326336 
L 344.415224 400.352312 
L 344.634778 425.535712 
L 344.854331 337.534144 
L 345.073884 399.797779 
L 345.293437 384.609817 
L 345.51299 473.554095 
L 345.732543 461.637002 
L 345.952096 459.601206 
L 346.17165 400.774665 
L 346.391203 381.999954 
L 346.610756 486.950651 
L 346.830309 498.697152 
L 347.049862 481.201569 
L 347.269415 396.335116 
L 347.488969 498.664932 
L 347.708522 494.796642 
L 347.928075 428.690861 
L 348.147628 542.705945 
L 348.367181 574.324708 
L 348.586734 476.681462 
L 348.806287 438.181384 
L 349.025841 450.777284 
L 349.245394 478.242022 
L 349.464947 341.12556 
L 350.123606 503.203163 
L 350.34316 464.28212 
L 350.562713 512.414466 
L 350.782266 514.462719 
L 351.001819 285.752679 
L 351.221372 335.022229 
L 351.440925 519.772931 
L 351.660478 461.860559 
L 351.880032 455.379182 
L 352.099585 519.015336 
L 352.319138 412.219087 
L 352.538691 479.677069 
L 352.758244 432.826863 
L 352.977797 206.488841 
L 353.197351 309.953855 
L 353.416904 481.119962 
L 353.636457 526.407581 
L 353.85601 449.89762 
L 354.075563 444.522911 
L 354.295116 489.59707 
L 354.514669 478.242676 
L 354.734223 530.695813 
L 355.173329 380.687737 
L 355.392882 524.228543 
L 355.831988 485.213368 
L 356.051542 395.176707 
L 356.271095 437.930573 
L 356.490648 382.776017 
L 356.929754 547.245389 
L 357.149307 439.593537 
L 357.36886 498.147801 
L 357.588414 522.701093 
L 357.807967 432.94813 
L 358.247073 512.089624 
L 358.466626 394.924647 
L 358.686179 446.94814 
L 358.905733 423.790963 
L 359.125286 350.496516 
L 359.344839 450.24887 
L 359.564392 420.43069 
L 360.003498 543.067479 
L 360.442605 418.235299 
L 360.662158 432.040491 
L 360.881711 420.028835 
L 361.101264 523.921749 
L 361.320817 431.991668 
L 361.54037 433.081686 
L 361.759924 494.633223 
L 361.979477 366.14883 
L 362.19903 381.058683 
L 362.418583 469.590167 
L 362.638136 499.488558 
L 362.857689 456.825902 
L 363.077242 484.568874 
L 363.516349 425.037192 
L 363.735902 450.585327 
L 363.955455 382.130344 
L 364.394561 515.212691 
L 364.614115 483.978419 
L 364.833668 387.780094 
L 365.053221 455.302333 
L 365.272774 368.372339 
L 365.492327 460.120686 
L 365.71188 500.022491 
L 365.931433 503.926523 
L 366.150987 300.082458 
L 366.590093 467.516137 
L 366.809646 438.637925 
L 367.248752 496.371054 
L 367.468306 409.271629 
L 367.687859 483.095442 
L 367.907412 467.099627 
L 368.346518 361.772533 
L 368.566071 412.053474 
L 368.785624 508.192002 
L 369.005178 449.903384 
L 369.224731 543.764045 
L 369.444284 401.873861 
L 369.663837 468.522271 
L 369.88339 416.21232 
L 370.102943 539.475715 
L 370.322497 485.93893 
L 370.54205 353.405103 
L 370.761603 451.958377 
L 370.981156 357.115081 
L 371.200709 454.161058 
L 371.420262 366.376789 
L 371.639815 415.158053 
L 371.859369 522.857347 
L 372.298475 306.622898 
L 372.518028 423.481819 
L 372.737581 452.368991 
L 372.957134 440.315864 
L 373.176687 441.525838 
L 373.396241 525.564517 
L 373.615794 558.485516 
L 373.835347 539.10929 
L 374.0549 549.689511 
L 374.274453 387.20218 
L 374.494006 472.548253 
L 374.71356 278.892532 
L 374.933113 490.741455 
L 375.152666 490.880803 
L 375.372219 453.899121 
L 375.591772 365.170355 
L 375.811325 541.226793 
L 376.030878 536.032586 
L 376.250432 512.612979 
L 376.469985 475.127986 
L 376.689538 306.903327 
L 376.909091 395.198128 
L 377.128644 317.487663 
L 377.348197 453.568668 
L 377.567751 476.146421 
L 377.787304 466.522532 
L 378.006857 450.390928 
L 378.22641 338.84163 
L 378.665516 472.106383 
L 378.885069 505.259277 
L 379.104623 404.72493 
L 379.324176 531.141177 
L 379.543729 438.150988 
L 379.763282 481.959649 
L 379.982835 497.991305 
L 380.202388 467.861677 
L 380.421942 459.297811 
L 380.641495 580.093315 
L 380.861048 520.102439 
L 381.080601 358.494094 
L 381.300154 367.224743 
L 381.519707 452.573779 
L 381.73926 434.790654 
L 381.958814 255.759256 
L 382.39792 436.620111 
L 382.837026 363.82552 
L 383.056579 390.784067 
L 383.276133 276.235129 
L 383.495686 447.813717 
L 383.715239 445.554403 
L 384.154345 548.112093 
L 384.373898 485.037557 
L 384.593451 305.69049 
L 384.813005 310.521094 
L 385.032558 307.480915 
L 385.252111 451.27486 
L 385.471664 470.844763 
L 385.91077 375.658353 
L 386.130324 477.449924 
L 386.349877 468.568495 
L 386.56943 362.165801 
L 386.788983 334.128828 
L 387.008536 399.324312 
L 387.447642 438.159601 
L 387.667196 376.581187 
L 387.886749 435.864865 
L 388.106302 436.77208 
L 388.325855 549.725087 
L 388.764961 357.596468 
L 388.984515 450.099832 
L 389.204068 408.010703 
L 389.643174 516.108184 
L 389.862727 394.34597 
L 390.08228 411.531747 
L 390.301833 479.418764 
L 390.521387 498.562863 
L 390.74094 477.814954 
L 390.960493 550.621872 
L 391.180046 556.447388 
L 391.619152 145.837193 
L 391.838706 492.613546 
L 392.058259 445.689369 
L 392.277812 475.201798 
L 392.716918 304.654021 
L 392.936471 446.924183 
L 393.156024 432.030729 
L 393.375578 433.573135 
L 393.595131 466.575013 
L 393.814684 446.790452 
L 394.034237 346.202377 
L 394.25379 460.926159 
L 394.473343 450.174514 
L 394.692897 388.186594 
L 394.91245 469.455444 
L 395.132003 482.256702 
L 395.351556 520.871498 
L 395.790662 398.851928 
L 396.010215 457.306912 
L 396.229769 386.411057 
L 396.449322 443.486325 
L 396.668875 425.15372 
L 396.888428 490.186997 
L 397.107981 455.398569 
L 397.327534 397.918217 
L 397.547087 539.707313 
L 397.766641 457.657019 
L 397.986194 493.731684 
L 398.205747 350.235063 
L 398.4253 419.105078 
L 398.644853 395.436373 
L 398.864406 542.547718 
L 399.303513 386.024691 
L 399.523066 426.341456 
L 399.742619 417.908178 
L 399.962172 526.66827 
L 400.181725 488.690568 
L 400.401278 379.503387 
L 400.620832 510.128911 
L 400.840385 489.632291 
L 401.059938 419.564539 
L 401.279491 516.462661 
L 401.499044 423.228588 
L 401.718597 424.02602 
L 401.938151 466.933979 
L 402.157704 375.980781 
L 402.377257 178.15258 
L 402.59681 492.146384 
L 402.816363 503.989939 
L 403.035916 392.671734 
L 403.255469 460.548231 
L 403.475023 468.914986 
L 403.694576 537.329282 
L 403.914129 435.487967 
L 404.133682 476.847229 
L 404.572788 462.866124 
L 404.792342 495.008035 
L 405.011895 487.349526 
L 405.231448 521.676685 
L 405.451001 517.691748 
L 405.890107 424.304207 
L 406.10966 410.385974 
L 406.329214 406.906135 
L 406.548767 443.907863 
L 406.76832 548.21829 
L 406.987873 539.265035 
L 407.207426 547.337357 
L 407.426979 347.878129 
L 407.866086 559.175993 
L 408.085639 441.697264 
L 408.524745 548.869256 
L 408.744298 498.886758 
L 408.963851 520.223313 
L 409.183405 376.780677 
L 409.402958 481.563253 
L 409.622511 445.700317 
L 409.842064 462.31538 
L 410.061617 537.080768 
L 410.28117 500.595363 
L 410.500724 495.781382 
L 410.720277 420.817597 
L 410.93983 455.810196 
L 411.159383 439.466183 
L 411.378936 472.345988 
L 411.598489 461.05587 
L 411.818042 487.040146 
L 412.037596 461.617311 
L 412.257149 449.596326 
L 412.915808 488.274193 
L 413.135361 374.546636 
L 413.354915 563.354771 
L 413.574468 473.839809 
L 413.794021 328.521859 
L 414.013574 431.10501 
L 414.233127 430.347156 
L 414.45268 343.669021 
L 414.672233 503.699334 
L 414.891787 501.260111 
L 415.330893 405.93068 
L 415.550446 433.540206 
L 415.769999 384.491114 
L 415.989552 429.235296 
L 416.209106 427.598436 
L 416.428659 378.154013 
L 416.648212 461.350908 
L 416.867765 474.290226 
L 417.087318 416.443056 
L 417.306871 131.956182 
L 417.526424 468.821265 
L 417.745978 455.807939 
L 417.965531 505.917908 
L 418.185084 373.862556 
L 418.404637 375.432453 
L 418.62419 482.527786 
L 418.843743 483.082245 
L 419.063297 262.783504 
L 419.28285 506.346939 
L 419.502403 529.867265 
L 419.721956 505.952269 
L 419.941509 417.5282 
L 420.161062 431.221646 
L 420.380615 433.385078 
L 420.600169 441.302784 
L 420.819722 473.291948 
L 421.039275 417.4799 
L 421.258828 410.948507 
L 421.478381 506.300814 
L 421.697934 422.614645 
L 421.917488 454.178126 
L 422.137041 425.161964 
L 422.356594 431.7977 
L 422.576147 396.421979 
L 422.7957 413.956093 
L 423.015253 475.750889 
L 423.234806 408.263579 
L 423.45436 556.792989 
L 423.893466 451.567264 
L 424.113019 409.604329 
L 424.332572 547.709138 
L 424.552125 316.554983 
L 424.771678 399.922978 
L 424.991232 319.481073 
L 425.210785 499.125016 
L 425.430338 520.793162 
L 425.649891 428.472437 
L 425.869444 487.929945 
L 426.088997 408.729876 
L 426.308551 506.137374 
L 426.528104 459.941079 
L 426.747657 522.091696 
L 426.96721 467.570918 
L 427.186763 495.823096 
L 427.406316 269.530052 
L 427.625869 392.185074 
L 427.845423 434.250024 
L 428.064976 417.253432 
L 428.284529 249.140548 
L 428.504082 464.448544 
L 428.723635 410.148167 
L 428.943188 418.019944 
L 429.162742 492.515241 
L 429.382295 514.887875 
L 429.601848 448.977037 
L 430.040954 556.218489 
L 430.260507 539.541073 
L 430.48006 460.061081 
L 430.699614 507.987908 
L 430.919167 353.070339 
L 431.13872 324.62243 
L 431.358273 352.95171 
L 431.577826 527.982161 
L 431.797379 339.846297 
L 432.016933 493.216076 
L 432.236486 432.431715 
L 432.456039 487.973571 
L 432.675592 449.351383 
L 432.895145 498.031236 
L 433.114698 403.805725 
L 433.334251 385.870677 
L 433.553805 433.027903 
L 433.773358 340.055124 
L 433.992911 482.072015 
L 434.212464 402.10726 
L 434.432017 459.720615 
L 434.65157 467.766955 
L 434.871124 413.652556 
L 435.090677 433.937824 
L 435.31023 441.022663 
L 435.529783 438.858081 
L 435.749336 502.566153 
L 435.968889 372.218528 
L 436.188442 322.298621 
L 436.407996 372.152809 
L 436.847102 520.638854 
L 437.066655 419.540978 
L 437.286208 498.23371 
L 437.505761 457.584709 
L 437.725315 540.243713 
L 437.944868 457.272223 
L 438.383974 523.149785 
L 439.042633 331.639298 
L 439.262187 479.184607 
L 439.48174 433.514732 
L 439.701293 481.680459 
L 439.920846 392.450686 
L 440.140399 475.456088 
L 440.359952 389.283459 
L 440.579506 424.684023 
L 440.799059 536.464994 
L 441.238165 479.870256 
L 441.457718 474.471613 
L 441.677271 462.35883 
L 441.896824 498.521661 
L 442.116378 337.770567 
L 442.335931 519.964364 
L 442.555484 471.567127 
L 442.99459 476.183108 
L 443.214143 453.089081 
L 443.433697 498.569652 
L 443.65325 501.42753 
L 443.872803 516.548952 
L 444.092356 511.70498 
L 444.970569 418.020829 
L 445.190122 321.293516 
L 445.409675 477.042121 
L 445.629228 419.610587 
L 445.848781 422.04396 
L 446.068334 488.602383 
L 446.287888 332.934795 
L 446.507441 449.05155 
L 446.726994 347.769272 
L 446.946547 476.861275 
L 447.1661 490.6724 
L 447.385653 371.594773 
L 447.605206 477.152913 
L 447.82476 445.950117 
L 448.263866 488.076711 
L 448.483419 430.068775 
L 448.702972 517.449186 
L 448.922525 376.150493 
L 449.142079 423.946463 
L 449.361632 289.883948 
L 449.581185 535.144686 
L 449.800738 220.618776 
L 450.020291 449.668427 
L 450.239844 404.990771 
L 450.459397 492.174643 
L 450.678951 464.481442 
L 450.898504 456.263734 
L 451.118057 344.0719 
L 451.33761 502.689411 
L 451.557163 381.139424 
L 451.776716 325.195873 
L 452.215823 495.452365 
L 452.435376 433.106868 
L 452.654929 434.433327 
L 452.874482 342.909557 
L 453.094035 538.17365 
L 453.313588 345.972861 
L 453.533142 450.601365 
L 453.752695 280.703228 
L 453.972248 432.832918 
L 454.191801 441.201282 
L 454.411354 305.367026 
L 454.630907 489.319371 
L 454.85046 398.352673 
L 455.070014 496.082605 
L 455.289567 512.944564 
L 455.50912 367.884097 
L 455.728673 429.316209 
L 455.948226 541.815641 
L 456.167779 414.534297 
L 456.387333 442.644731 
L 456.606886 407.982042 
L 456.826439 485.98198 
L 457.045992 470.590036 
L 457.265545 439.987992 
L 457.485098 454.271225 
L 457.704651 444.445434 
L 457.924205 467.43191 
L 458.143758 472.920647 
L 458.582864 395.706178 
L 458.802417 516.556482 
L 459.02197 448.020341 
L 459.241524 446.377231 
L 459.461077 510.740415 
L 459.900183 378.464962 
L 460.339289 463.614306 
L 460.558842 387.664486 
L 460.778396 413.429458 
L 460.997949 533.76035 
L 461.217502 479.377413 
L 461.437055 526.173192 
L 461.876161 415.611145 
L 462.095715 521.551672 
L 462.315268 356.249737 
L 462.534821 468.645664 
L 462.973927 434.421405 
L 463.19348 496.708501 
L 463.413033 469.608294 
L 463.632587 483.097585 
L 463.85214 514.303315 
L 464.291246 331.689204 
L 464.510799 463.016396 
L 464.730352 345.45081 
L 465.169459 530.310167 
L 465.608565 357.955448 
L 465.828118 522.059844 
L 466.047671 409.675161 
L 466.267224 506.53665 
L 466.486778 359.280477 
L 466.706331 555.460048 
L 466.925884 492.265875 
L 467.145437 310.438844 
L 467.36499 537.836852 
L 467.584543 548.711189 
L 467.804097 405.718851 
L 468.02365 475.631596 
L 468.243203 492.106834 
L 468.462756 531.062777 
L 468.901862 477.587282 
L 469.121415 480.099915 
L 469.340969 509.620389 
L 469.560522 494.073081 
L 469.780075 530.362045 
L 469.999628 366.727236 
L 470.219181 492.157641 
L 470.438734 387.484833 
L 470.877841 461.986502 
L 471.097394 430.192296 
L 471.316947 506.059437 
L 471.756053 351.896286 
L 471.975606 433.990127 
L 472.19516 465.207052 
L 472.414713 529.217455 
L 472.634266 273.651647 
L 472.853819 432.156596 
L 473.073372 412.383095 
L 473.292925 495.600558 
L 473.512479 465.227295 
L 473.732032 518.391893 
L 473.951585 467.245298 
L 474.171138 211.004993 
L 474.390691 498.446673 
L 474.610244 336.664338 
L 474.829797 437.55011 
L 475.049351 397.948084 
L 475.488457 513.367159 
L 475.70801 493.676749 
L 475.927563 487.03379 
L 476.147116 386.855448 
L 476.366669 489.926492 
L 476.586223 518.306608 
L 476.805776 409.716008 
L 477.025329 470.643367 
L 477.244882 463.885249 
L 477.464435 450.468744 
L 477.683988 489.567279 
L 477.903542 349.601041 
L 478.123095 508.208601 
L 478.342648 384.631388 
L 478.562201 409.992717 
L 478.781754 510.718776 
L 479.001307 490.203273 
L 479.22086 421.236849 
L 479.440414 520.723404 
L 479.659967 248.328097 
L 479.87952 409.750734 
L 480.099073 481.000148 
L 480.318626 512.496753 
L 480.538179 518.889662 
L 480.977286 409.298462 
L 481.196839 443.364696 
L 481.416392 402.274764 
L 481.855498 558.017659 
L 482.075051 499.460809 
L 482.294605 405.607089 
L 482.514158 496.784684 
L 482.733711 523.407068 
L 482.953264 519.083901 
L 483.172817 508.604897 
L 483.39237 465.933262 
L 483.831477 548.500429 
L 484.270583 362.319977 
L 484.490136 448.023122 
L 484.709689 488.375491 
L 485.148796 521.07739 
L 485.368349 461.348793 
L 485.587902 461.156554 
L 485.807455 422.222434 
L 486.027008 301.365662 
L 486.246561 300.323107 
L 486.466115 319.091122 
L 486.685668 298.442827 
L 486.905221 460.333123 
L 487.124774 476.460196 
L 487.344327 502.393116 
L 487.56388 499.295604 
L 488.002987 352.571546 
L 488.442093 561.693624 
L 488.661646 326.012695 
L 488.881199 475.738095 
L 489.100752 367.628007 
L 489.320306 522.624772 
L 489.759412 279.594045 
L 489.978965 491.106772 
L 490.198518 507.440272 
L 490.418071 461.442252 
L 490.637624 470.290516 
L 490.857178 406.792014 
L 491.076731 433.492235 
L 491.296284 431.23394 
L 491.515837 478.579187 
L 491.73539 494.156118 
L 491.954943 492.384803 
L 492.39405 368.439741 
L 492.613603 365.309463 
L 492.833156 343.60814 
L 493.052709 418.392875 
L 493.272262 365.499957 
L 493.491815 456.986962 
L 493.711369 415.512417 
L 493.930922 434.54357 
L 494.150475 489.363909 
L 494.370028 322.64815 
L 494.589581 451.817305 
L 494.809134 472.153612 
L 495.028688 417.302857 
L 495.248241 398.883407 
L 495.467794 303.340245 
L 495.9069 568.720662 
L 496.126453 478.875671 
L 496.346006 517.992624 
L 496.56556 370.934582 
L 496.785113 367.475955 
L 497.004666 494.667713 
L 497.443772 397.697254 
L 497.663325 481.904147 
L 497.882879 430.027598 
L 498.102432 307.749524 
L 498.321985 456.519213 
L 498.541538 494.74507 
L 498.761091 490.178082 
L 498.980644 397.229898 
L 499.200197 490.007827 
L 499.419751 475.553378 
L 499.639304 361.520739 
L 499.858857 461.343921 
L 500.07841 443.871728 
L 500.297963 388.87437 
L 500.73707 493.927631 
L 500.956623 538.236142 
L 501.395729 490.673403 
L 501.615282 397.034336 
L 501.834835 528.714534 
L 502.054388 453.348656 
L 502.273942 527.405935 
L 502.493495 292.689056 
L 502.932601 492.496673 
L 503.152154 445.163331 
L 503.371707 491.747362 
L 503.59126 388.406922 
L 503.810814 510.888076 
L 504.030367 433.280539 
L 504.24992 551.186494 
L 504.908579 373.63164 
L 505.128133 340.06435 
L 505.347686 376.118862 
L 505.567239 432.070745 
L 505.786792 446.340168 
L 506.006345 478.57833 
L 506.445451 429.854367 
L 506.665005 515.316227 
L 506.884558 525.753135 
L 507.104111 216.71229 
L 507.323664 428.909854 
L 507.543217 507.71551 
L 507.76277 385.245844 
L 507.982324 410.860811 
L 508.201877 566.067437 
L 508.42143 378.747407 
L 508.640983 547.110661 
L 508.860536 331.656075 
L 509.519196 517.469903 
L 509.738749 435.144251 
L 509.958302 521.554936 
L 510.177855 360.04556 
L 510.397408 415.400878 
L 510.616961 538.995819 
L 510.836515 505.301459 
L 511.275621 477.328298 
L 511.495174 426.477319 
L 511.714727 501.018052 
L 511.93428 467.895969 
L 512.153833 400.647166 
L 512.59294 511.362529 
L 512.812493 440.224821 
L 513.032046 304.151984 
L 513.251599 470.476048 
L 513.471152 530.064651 
L 513.690706 492.951321 
L 513.910259 431.17102 
L 514.129812 533.421341 
L 514.349365 441.314869 
L 514.568918 490.390122 
L 514.788471 473.765435 
L 515.008024 379.625919 
L 515.227578 546.444293 
L 515.447131 544.810266 
L 515.886237 473.378092 
L 516.10579 517.284029 
L 516.325343 498.877084 
L 516.544897 353.075084 
L 516.76445 462.439427 
L 516.984003 434.952881 
L 517.203556 455.173575 
L 517.423109 489.12894 
L 517.642662 479.059376 
L 517.862215 359.947951 
L 518.081769 474.205691 
L 518.520875 498.838323 
L 518.740428 533.015895 
L 518.959981 478.714287 
L 519.399088 456.922655 
L 519.618641 440.144685 
L 519.838194 471.796992 
L 520.057747 440.718406 
L 520.2773 503.745255 
L 520.496853 410.412663 
L 520.716406 514.239417 
L 520.93596 458.357725 
L 521.155513 446.58878 
L 521.375066 423.13376 
L 521.594619 428.099055 
L 521.814172 521.932498 
L 522.033725 321.65995 
L 522.253279 509.160923 
L 522.472832 456.639949 
L 522.692385 438.69199 
L 522.911938 403.232244 
L 523.131491 420.694775 
L 523.351044 452.061733 
L 523.570597 525.246626 
L 523.790151 492.750127 
L 524.009704 389.5735 
L 524.229257 410.44234 
L 524.44881 504.928979 
L 524.668363 489.211931 
L 524.887916 442.641324 
L 525.10747 370.274644 
L 525.327023 435.291345 
L 525.546576 454.399553 
L 525.766129 461.663048 
L 525.985682 488.453604 
L 526.205235 496.87909 
L 526.424788 482.457993 
L 526.644342 418.228396 
L 526.863895 532.810793 
L 527.083448 384.518791 
L 527.303001 506.552884 
L 527.522554 510.826892 
L 527.742107 556.025947 
L 527.96166 497.736972 
L 528.181214 407.471536 
L 528.400767 467.784558 
L 528.62032 453.213212 
L 528.839873 400.397426 
L 529.059426 223.884807 
L 529.498533 544.394479 
L 529.718086 404.450603 
L 529.937639 514.571406 
L 530.157192 520.379859 
L 530.376745 430.717723 
L 530.596298 435.428233 
L 530.815851 528.539138 
L 531.035405 439.357308 
L 531.254958 246.680701 
L 531.474511 388.167747 
L 531.694064 377.333902 
L 532.13317 505.659099 
L 532.352724 381.488488 
L 532.572277 392.433639 
L 533.011383 495.523398 
L 533.230936 500.755969 
L 533.450489 431.57866 
L 533.670042 485.855627 
L 533.889596 383.616805 
L 534.109149 339.86542 
L 534.328702 482.50082 
L 534.548255 536.193014 
L 534.767808 355.378273 
L 534.987361 437.761813 
L 535.206915 432.703794 
L 535.426468 453.232336 
L 535.646021 510.664082 
L 535.865574 478.022358 
L 536.085127 497.717425 
L 536.30468 470.243371 
L 536.524233 395.496938 
L 536.743787 430.228501 
L 536.96334 507.403495 
L 537.182893 527.678828 
L 537.402446 407.22993 
L 537.621999 407.774067 
L 537.841552 479.191571 
L 538.061106 493.613196 
L 538.280659 500.012807 
L 538.500212 374.828773 
L 538.719765 394.357474 
L 538.939318 479.649877 
L 539.158871 494.942324 
L 539.378424 433.251442 
L 539.597978 466.980477 
L 539.817531 528.652854 
L 540.037084 529.734582 
L 540.256637 513.954267 
L 540.47619 512.203483 
L 540.695743 465.718661 
L 540.915297 448.527585 
L 541.13485 358.286256 
L 541.354403 448.168161 
L 541.573956 460.623667 
L 541.793509 457.264037 
L 542.013062 305.174511 
L 542.232615 348.427255 
L 542.671722 525.529417 
L 542.891275 479.884638 
L 543.330381 298.461166 
L 543.769488 516.41314 
L 543.989041 282.439528 
L 544.208594 497.801235 
L 544.428147 390.774692 
L 544.6477 357.824142 
L 544.867253 493.124425 
L 545.086806 346.061382 
L 545.30636 565.456943 
L 545.525913 415.274887 
L 545.745466 507.064236 
L 545.745466 507.064236 
" style="fill:none;stroke:#96c69a;stroke-linecap:round;stroke-width:3;"/>
   </g>
   <g id="line2d_2"/>
   <g id="patch_3">
    <path d="M 84.914375 603.86 
L 84.914375 109.484571 
" style="fill:none;stroke:#262626;stroke-linecap:square;stroke-linejoin:miter;stroke-width:2.5;"/>
   </g>
   <g id="patch_4">
    <path d="M 84.914375 603.86 
L 567.689804 603.86 
" style="fill:none;stroke:#262626;stroke-linecap:square;stroke-linejoin:miter;stroke-width:2.5;"/>
   </g>
   <g id="legend_1">
    <g id="patch_5">
     <path d="M 514.774179 598.86 
L 560.689804 598.86 
Q 562.689804 598.86 562.689804 596.86 
L 562.689804 554.954375 
Q 562.689804 552.954375 560.689804 552.954375 
L 514.774179 552.954375 
Q 512.774179 552.954375 512.774179 554.954375 
L 512.774179 596.86 
Q 512.774179 598.86 514.774179 598.86 
z
" style="fill:#ffffff;opacity:0.8;stroke:#cccccc;stroke-linejoin:miter;stroke-width:2;"/>
    </g>
    <g id="text_16">
     <!-- $n_\tau$ -->
     <g style="fill:#262626;" transform="translate(524.651991 575.190625)scale(0.24 -0.24)">
      <defs>
       <path d="M 3566 2113 
L 3156 0 
L 2578 0 
L 2988 2091 
Q 3016 2238 3031 2350 
Q 3047 2463 3047 2528 
Q 3047 2791 2881 2937 
Q 2716 3084 2419 3084 
Q 1956 3084 1622 2776 
Q 1288 2469 1184 1941 
L 800 0 
L 225 0 
L 903 3500 
L 1478 3500 
L 1363 2950 
Q 1603 3253 1940 3418 
Q 2278 3584 2650 3584 
Q 3113 3584 3367 3334 
Q 3622 3084 3622 2631 
Q 3622 2519 3608 2391 
Q 3594 2263 3566 2113 
z
" id="DejaVuSans-Oblique-6e" transform="scale(0.015625)"/>
       <path d="M 2103 638 
Q 2188 488 2525 488 
L 2800 488 
L 2706 0 
L 2363 0 
Q 1800 0 1600 300 
Q 1403 606 1534 1269 
L 1856 2925 
L 541 2925 
L 653 3500 
L 3881 3500 
L 3769 2925 
L 2444 2925 
L 2113 1234 
Q 2025 781 2103 638 
z
" id="DejaVuSans-Oblique-3c4" transform="scale(0.015625)"/>
      </defs>
      <use xlink:href="#DejaVuSans-Oblique-6e"/>
      <use transform="translate(63.378906 -16.40625)scale(0.7)" xlink:href="#DejaVuSans-Oblique-3c4"/>
     </g>
    </g>
    <g id="line2d_3">
     <path d="M 516.774179 589.280313 
L 536.774179 589.280313 
" style="fill:none;stroke:#96c69a;stroke-linecap:round;stroke-width:3;"/>
    </g>
    <g id="line2d_4"/>
    <g id="text_17">
     <!-- 64 -->
     <g style="fill:#262626;" transform="translate(544.774179 592.780313)scale(0.1 -0.1)">
      <defs>
       <path d="M 2316 2303 
Q 2000 2303 1842 2098 
Q 1684 1894 1684 1484 
Q 1684 1075 1842 870 
Q 2000 666 2316 666 
Q 2634 666 2792 870 
Q 2950 1075 2950 1484 
Q 2950 1894 2792 2098 
Q 2634 2303 2316 2303 
z
M 3803 4544 
L 3803 3681 
Q 3506 3822 3243 3889 
Q 2981 3956 2731 3956 
Q 2194 3956 1894 3657 
Q 1594 3359 1544 2772 
Q 1750 2925 1990 3001 
Q 2231 3078 2516 3078 
Q 3231 3078 3670 2659 
Q 4109 2241 4109 1563 
Q 4109 813 3618 361 
Q 3128 -91 2303 -91 
Q 1394 -91 895 523 
Q 397 1138 397 2266 
Q 397 3422 980 4083 
Q 1563 4744 2578 4744 
Q 2900 4744 3203 4694 
Q 3506 4644 3803 4544 
z
" id="DejaVuSans-Bold-36" transform="scale(0.015625)"/>
       <path d="M 2356 3675 
L 1038 1722 
L 2356 1722 
L 2356 3675 
z
M 2156 4666 
L 3494 4666 
L 3494 1722 
L 4159 1722 
L 4159 850 
L 3494 850 
L 3494 0 
L 2356 0 
L 2356 850 
L 288 850 
L 288 1881 
L 2156 4666 
z
" id="DejaVuSans-Bold-34" transform="scale(0.015625)"/>
      </defs>
      <use xlink:href="#DejaVuSans-Bold-36"/>
      <use x="69.580078" xlink:href="#DejaVuSans-Bold-34"/>
     </g>
    </g>
   </g>
  </g>
  <g id="axes_2">
   <g id="patch_6">
    <path d="M 84.914375 92.437143 
L 567.689804 92.437143 
L 567.689804 7.2 
L 84.914375 7.2 
z
" style="fill:none;"/>
   </g>
   <g id="matplotlib.axis_3">
    <g id="xtick_7"/>
    <g id="xtick_8"/>
    <g id="xtick_9"/>
    <g id="xtick_10"/>
    <g id="xtick_11"/>
    <g id="xtick_12"/>
   </g>
   <g id="matplotlib.axis_4">
    <g id="ytick_8">
     <g id="text_18">
      <!-- 0 -->
      <g style="fill:#262626;" transform="translate(55.416875 100.795424)scale(0.22 -0.22)">
       <use xlink:href="#DejaVuSans-30"/>
      </g>
     </g>
    </g>
    <g id="ytick_9">
     <g id="text_19">
      <!-- 100 -->
      <g style="fill:#262626;" transform="translate(27.421875 48.082287)scale(0.22 -0.22)">
       <use xlink:href="#DejaVuSans-31"/>
       <use x="63.623047" xlink:href="#DejaVuSans-30"/>
       <use x="127.246094" xlink:href="#DejaVuSans-30"/>
      </g>
     </g>
    </g>
   </g>
   <g id="patch_7">
    <path clip-path="url(#paf02bc38bf)" d="M 106.858713 92.437143 
L 140.619232 92.437143 
L 140.619232 11.258912 
L 106.858713 11.258912 
z
" style="fill:#96c69a;fill-opacity:0.5;stroke:#ffffff;stroke-linejoin:miter;stroke-width:2;"/>
   </g>
   <g id="patch_8">
    <path clip-path="url(#paf02bc38bf)" d="M 140.619232 92.437143 
L 174.379752 92.437143 
L 174.379752 11.258912 
L 140.619232 11.258912 
z
" style="fill:#96c69a;fill-opacity:0.5;stroke:#ffffff;stroke-linejoin:miter;stroke-width:2;"/>
   </g>
   <g id="patch_9">
    <path clip-path="url(#paf02bc38bf)" d="M 174.379752 92.437143 
L 208.140271 92.437143 
L 208.140271 11.258912 
L 174.379752 11.258912 
z
" style="fill:#96c69a;fill-opacity:0.5;stroke:#ffffff;stroke-linejoin:miter;stroke-width:2;"/>
   </g>
   <g id="patch_10">
    <path clip-path="url(#paf02bc38bf)" d="M 208.140271 92.437143 
L 241.900791 92.437143 
L 241.900791 11.258912 
L 208.140271 11.258912 
z
" style="fill:#96c69a;fill-opacity:0.5;stroke:#ffffff;stroke-linejoin:miter;stroke-width:2;"/>
   </g>
   <g id="patch_11">
    <path clip-path="url(#paf02bc38bf)" d="M 241.900791 92.437143 
L 275.66131 92.437143 
L 275.66131 11.786043 
L 241.900791 11.786043 
z
" style="fill:#96c69a;fill-opacity:0.5;stroke:#ffffff;stroke-linejoin:miter;stroke-width:2;"/>
   </g>
   <g id="patch_12">
    <path clip-path="url(#paf02bc38bf)" d="M 275.66131 92.437143 
L 309.42183 92.437143 
L 309.42183 11.258912 
L 275.66131 11.258912 
z
" style="fill:#96c69a;fill-opacity:0.5;stroke:#ffffff;stroke-linejoin:miter;stroke-width:2;"/>
   </g>
   <g id="patch_13">
    <path clip-path="url(#paf02bc38bf)" d="M 309.42183 92.437143 
L 343.182349 92.437143 
L 343.182349 11.258912 
L 309.42183 11.258912 
z
" style="fill:#96c69a;fill-opacity:0.5;stroke:#ffffff;stroke-linejoin:miter;stroke-width:2;"/>
   </g>
   <g id="patch_14">
    <path clip-path="url(#paf02bc38bf)" d="M 343.182349 92.437143 
L 376.942869 92.437143 
L 376.942869 11.258912 
L 343.182349 11.258912 
z
" style="fill:#96c69a;fill-opacity:0.5;stroke:#ffffff;stroke-linejoin:miter;stroke-width:2;"/>
   </g>
   <g id="patch_15">
    <path clip-path="url(#paf02bc38bf)" d="M 376.942869 92.437143 
L 410.703388 92.437143 
L 410.703388 11.786043 
L 376.942869 11.786043 
z
" style="fill:#96c69a;fill-opacity:0.5;stroke:#ffffff;stroke-linejoin:miter;stroke-width:2;"/>
   </g>
   <g id="patch_16">
    <path clip-path="url(#paf02bc38bf)" d="M 410.703388 92.437143 
L 444.463907 92.437143 
L 444.463907 11.258912 
L 410.703388 11.258912 
z
" style="fill:#96c69a;fill-opacity:0.5;stroke:#ffffff;stroke-linejoin:miter;stroke-width:2;"/>
   </g>
   <g id="patch_17">
    <path clip-path="url(#paf02bc38bf)" d="M 444.463907 92.437143 
L 478.224427 92.437143 
L 478.224427 11.258912 
L 444.463907 11.258912 
z
" style="fill:#96c69a;fill-opacity:0.5;stroke:#ffffff;stroke-linejoin:miter;stroke-width:2;"/>
   </g>
   <g id="patch_18">
    <path clip-path="url(#paf02bc38bf)" d="M 478.224427 92.437143 
L 511.984946 92.437143 
L 511.984946 11.258912 
L 478.224427 11.258912 
z
" style="fill:#96c69a;fill-opacity:0.5;stroke:#ffffff;stroke-linejoin:miter;stroke-width:2;"/>
   </g>
   <g id="patch_19">
    <path clip-path="url(#paf02bc38bf)" d="M 511.984946 92.437143 
L 545.745466 92.437143 
L 545.745466 11.258912 
L 511.984946 11.258912 
z
" style="fill:#96c69a;fill-opacity:0.5;stroke:#ffffff;stroke-linejoin:miter;stroke-width:2;"/>
   </g>
   <g id="patch_20">
    <path d="M 84.914375 92.437143 
L 84.914375 7.2 
" style="fill:none;stroke:#262626;stroke-linecap:square;stroke-linejoin:miter;stroke-width:2.5;"/>
   </g>
   <g id="patch_21">
    <path d="M 84.914375 92.437143 
L 567.689804 92.437143 
" style="fill:none;stroke:#262626;stroke-linecap:square;stroke-linejoin:miter;stroke-width:2.5;"/>
   </g>
  </g>
  <g id="axes_3">
   <g id="patch_22">
    <path d="M 584.337232 603.86 
L 667.574375 603.86 
L 667.574375 109.484571 
L 584.337232 109.484571 
z
" style="fill:none;"/>
   </g>
   <g id="matplotlib.axis_5">
    <g id="xtick_13">
     <g id="text_20">
      <!-- 0 -->
      <g style="fill:#262626;" transform="translate(577.338482 636.076563)scale(0.22 -0.22)">
       <use xlink:href="#DejaVuSans-30"/>
      </g>
     </g>
    </g>
    <g id="xtick_14">
     <g id="text_21">
      <!-- 100 -->
      <g style="fill:#262626;" transform="translate(608.128253 636.076563)scale(0.22 -0.22)">
       <use xlink:href="#DejaVuSans-31"/>
       <use x="63.623047" xlink:href="#DejaVuSans-30"/>
       <use x="127.246094" xlink:href="#DejaVuSans-30"/>
      </g>
     </g>
    </g>
   </g>
   <g id="matplotlib.axis_6">
    <g id="ytick_10"/>
    <g id="ytick_11"/>
    <g id="ytick_12"/>
    <g id="ytick_13"/>
    <g id="ytick_14"/>
    <g id="ytick_15"/>
    <g id="ytick_16"/>
   </g>
   <g id="patch_23">
    <path clip-path="url(#p615dcb93c0)" d="M 584.337232 581.38839 
L 588.368087 581.38839 
L 588.368087 567.769232 
L 584.337232 567.769232 
z
" style="fill:#96c69a;fill-opacity:0.5;stroke:#ffffff;stroke-linejoin:miter;stroke-width:1.361916;"/>
   </g>
   <g id="patch_24">
    <path clip-path="url(#p615dcb93c0)" d="M 584.337232 567.769232 
L 596.429795 567.769232 
L 596.429795 554.150074 
L 584.337232 554.150074 
z
" style="fill:#96c69a;fill-opacity:0.5;stroke:#ffffff;stroke-linejoin:miter;stroke-width:1.361916;"/>
   </g>
   <g id="patch_25">
    <path clip-path="url(#p615dcb93c0)" d="M 584.337232 554.150074 
L 609.865977 554.150074 
L 609.865977 540.530916 
L 584.337232 540.530916 
z
" style="fill:#96c69a;fill-opacity:0.5;stroke:#ffffff;stroke-linejoin:miter;stroke-width:1.361916;"/>
   </g>
   <g id="patch_26">
    <path clip-path="url(#p615dcb93c0)" d="M 584.337232 540.530916 
L 619.719176 540.530916 
L 619.719176 526.911758 
L 584.337232 526.911758 
z
" style="fill:#96c69a;fill-opacity:0.5;stroke:#ffffff;stroke-linejoin:miter;stroke-width:1.361916;"/>
   </g>
   <g id="patch_27">
    <path clip-path="url(#p615dcb93c0)" d="M 584.337232 526.911758 
L 639.425575 526.911758 
L 639.425575 513.292601 
L 584.337232 513.292601 
z
" style="fill:#96c69a;fill-opacity:0.5;stroke:#ffffff;stroke-linejoin:miter;stroke-width:1.361916;"/>
   </g>
   <g id="patch_28">
    <path clip-path="url(#p615dcb93c0)" d="M 584.337232 513.292601 
L 644.800048 513.292601 
L 644.800048 499.673443 
L 584.337232 499.673443 
z
" style="fill:#96c69a;fill-opacity:0.5;stroke:#ffffff;stroke-linejoin:miter;stroke-width:1.361916;"/>
   </g>
   <g id="patch_29">
    <path clip-path="url(#p615dcb93c0)" d="M 584.337232 499.673443 
L 653.309629 499.673443 
L 653.309629 486.054285 
L 584.337232 486.054285 
z
" style="fill:#96c69a;fill-opacity:0.5;stroke:#ffffff;stroke-linejoin:miter;stroke-width:1.361916;"/>
   </g>
   <g id="patch_30">
    <path clip-path="url(#p615dcb93c0)" d="M 584.337232 486.054285 
L 658.236229 486.054285 
L 658.236229 472.435127 
L 584.337232 472.435127 
z
" style="fill:#96c69a;fill-opacity:0.5;stroke:#ffffff;stroke-linejoin:miter;stroke-width:1.361916;"/>
   </g>
   <g id="patch_31">
    <path clip-path="url(#p615dcb93c0)" d="M 584.337232 472.435127 
L 663.610702 472.435127 
L 663.610702 458.815969 
L 584.337232 458.815969 
z
" style="fill:#96c69a;fill-opacity:0.5;stroke:#ffffff;stroke-linejoin:miter;stroke-width:1.361916;"/>
   </g>
   <g id="patch_32">
    <path clip-path="url(#p615dcb93c0)" d="M 584.337232 458.815969 
L 661.819211 458.815969 
L 661.819211 445.196811 
L 584.337232 445.196811 
z
" style="fill:#96c69a;fill-opacity:0.5;stroke:#ffffff;stroke-linejoin:miter;stroke-width:1.361916;"/>
   </g>
   <g id="patch_33">
    <path clip-path="url(#p615dcb93c0)" d="M 584.337232 445.196811 
L 659.579847 445.196811 
L 659.579847 431.577654 
L 584.337232 431.577654 
z
" style="fill:#96c69a;fill-opacity:0.5;stroke:#ffffff;stroke-linejoin:miter;stroke-width:1.361916;"/>
   </g>
   <g id="patch_34">
    <path clip-path="url(#p615dcb93c0)" d="M 584.337232 431.577654 
L 644.800048 431.577654 
L 644.800048 417.958496 
L 584.337232 417.958496 
z
" style="fill:#96c69a;fill-opacity:0.5;stroke:#ffffff;stroke-linejoin:miter;stroke-width:1.361916;"/>
   </g>
   <g id="patch_35">
    <path clip-path="url(#p615dcb93c0)" d="M 584.337232 417.958496 
L 634.946848 417.958496 
L 634.946848 404.339338 
L 584.337232 404.339338 
z
" style="fill:#96c69a;fill-opacity:0.5;stroke:#ffffff;stroke-linejoin:miter;stroke-width:1.361916;"/>
   </g>
   <g id="patch_36">
    <path clip-path="url(#p615dcb93c0)" d="M 584.337232 404.339338 
L 630.468121 404.339338 
L 630.468121 390.72018 
L 584.337232 390.72018 
z
" style="fill:#96c69a;fill-opacity:0.5;stroke:#ffffff;stroke-linejoin:miter;stroke-width:1.361916;"/>
   </g>
   <g id="patch_37">
    <path clip-path="url(#p615dcb93c0)" d="M 584.337232 390.72018 
L 623.302158 390.72018 
L 623.302158 377.101022 
L 584.337232 377.101022 
z
" style="fill:#96c69a;fill-opacity:0.5;stroke:#ffffff;stroke-linejoin:miter;stroke-width:1.361916;"/>
   </g>
   <g id="patch_38">
    <path clip-path="url(#p615dcb93c0)" d="M 584.337232 377.101022 
L 613.448958 377.101022 
L 613.448958 363.481865 
L 584.337232 363.481865 
z
" style="fill:#96c69a;fill-opacity:0.5;stroke:#ffffff;stroke-linejoin:miter;stroke-width:1.361916;"/>
   </g>
   <g id="patch_39">
    <path clip-path="url(#p615dcb93c0)" d="M 584.337232 363.481865 
L 610.313849 363.481865 
L 610.313849 349.862707 
L 584.337232 349.862707 
z
" style="fill:#96c69a;fill-opacity:0.5;stroke:#ffffff;stroke-linejoin:miter;stroke-width:1.361916;"/>
   </g>
   <g id="patch_40">
    <path clip-path="url(#p615dcb93c0)" d="M 584.337232 349.862707 
L 607.17874 349.862707 
L 607.17874 336.243549 
L 584.337232 336.243549 
z
" style="fill:#96c69a;fill-opacity:0.5;stroke:#ffffff;stroke-linejoin:miter;stroke-width:1.361916;"/>
   </g>
   <g id="patch_41">
    <path clip-path="url(#p615dcb93c0)" d="M 584.337232 336.243549 
L 598.221286 336.243549 
L 598.221286 322.624391 
L 584.337232 322.624391 
z
" style="fill:#96c69a;fill-opacity:0.5;stroke:#ffffff;stroke-linejoin:miter;stroke-width:1.361916;"/>
   </g>
   <g id="patch_42">
    <path clip-path="url(#p615dcb93c0)" d="M 584.337232 322.624391 
L 595.981923 322.624391 
L 595.981923 309.005233 
L 584.337232 309.005233 
z
" style="fill:#96c69a;fill-opacity:0.5;stroke:#ffffff;stroke-linejoin:miter;stroke-width:1.361916;"/>
   </g>
   <g id="patch_43">
    <path clip-path="url(#p615dcb93c0)" d="M 584.337232 309.005233 
L 593.742559 309.005233 
L 593.742559 295.386076 
L 584.337232 295.386076 
z
" style="fill:#96c69a;fill-opacity:0.5;stroke:#ffffff;stroke-linejoin:miter;stroke-width:1.361916;"/>
   </g>
   <g id="patch_44">
    <path clip-path="url(#p615dcb93c0)" d="M 584.337232 295.386076 
L 589.263832 295.386076 
L 589.263832 281.766918 
L 584.337232 281.766918 
z
" style="fill:#96c69a;fill-opacity:0.5;stroke:#ffffff;stroke-linejoin:miter;stroke-width:1.361916;"/>
   </g>
   <g id="patch_45">
    <path clip-path="url(#p615dcb93c0)" d="M 584.337232 281.766918 
L 588.368087 281.766918 
L 588.368087 268.14776 
L 584.337232 268.14776 
z
" style="fill:#96c69a;fill-opacity:0.5;stroke:#ffffff;stroke-linejoin:miter;stroke-width:1.361916;"/>
   </g>
   <g id="patch_46">
    <path clip-path="url(#p615dcb93c0)" d="M 584.337232 268.14776 
L 586.576596 268.14776 
L 586.576596 254.528602 
L 584.337232 254.528602 
z
" style="fill:#96c69a;fill-opacity:0.5;stroke:#ffffff;stroke-linejoin:miter;stroke-width:1.361916;"/>
   </g>
   <g id="patch_47">
    <path clip-path="url(#p615dcb93c0)" d="M 584.337232 254.528602 
L 586.128723 254.528602 
L 586.128723 240.909444 
L 584.337232 240.909444 
z
" style="fill:#96c69a;fill-opacity:0.5;stroke:#ffffff;stroke-linejoin:miter;stroke-width:1.361916;"/>
   </g>
   <g id="patch_48">
    <path clip-path="url(#p615dcb93c0)" d="M 584.337232 240.909444 
L 584.337232 240.909444 
L 584.337232 227.290287 
L 584.337232 227.290287 
z
" style="fill:#96c69a;fill-opacity:0.5;stroke:#ffffff;stroke-linejoin:miter;stroke-width:1.361916;"/>
   </g>
   <g id="patch_49">
    <path clip-path="url(#p615dcb93c0)" d="M 584.337232 227.290287 
L 586.576596 227.290287 
L 586.576596 213.671129 
L 584.337232 213.671129 
z
" style="fill:#96c69a;fill-opacity:0.5;stroke:#ffffff;stroke-linejoin:miter;stroke-width:1.361916;"/>
   </g>
   <g id="patch_50">
    <path clip-path="url(#p615dcb93c0)" d="M 584.337232 213.671129 
L 585.68085 213.671129 
L 585.68085 200.051971 
L 584.337232 200.051971 
z
" style="fill:#96c69a;fill-opacity:0.5;stroke:#ffffff;stroke-linejoin:miter;stroke-width:1.361916;"/>
   </g>
   <g id="patch_51">
    <path clip-path="url(#p615dcb93c0)" d="M 584.337232 200.051971 
L 584.785105 200.051971 
L 584.785105 186.432813 
L 584.337232 186.432813 
z
" style="fill:#96c69a;fill-opacity:0.5;stroke:#ffffff;stroke-linejoin:miter;stroke-width:1.361916;"/>
   </g>
   <g id="patch_52">
    <path clip-path="url(#p615dcb93c0)" d="M 584.337232 186.432813 
L 584.785105 186.432813 
L 584.785105 172.813655 
L 584.337232 172.813655 
z
" style="fill:#96c69a;fill-opacity:0.5;stroke:#ffffff;stroke-linejoin:miter;stroke-width:1.361916;"/>
   </g>
   <g id="patch_53">
    <path clip-path="url(#p615dcb93c0)" d="M 584.337232 172.813655 
L 584.785105 172.813655 
L 584.785105 159.194497 
L 584.337232 159.194497 
z
" style="fill:#96c69a;fill-opacity:0.5;stroke:#ffffff;stroke-linejoin:miter;stroke-width:1.361916;"/>
   </g>
   <g id="patch_54">
    <path clip-path="url(#p615dcb93c0)" d="M 584.337232 159.194497 
L 584.785105 159.194497 
L 584.785105 145.57534 
L 584.337232 145.57534 
z
" style="fill:#96c69a;fill-opacity:0.5;stroke:#ffffff;stroke-linejoin:miter;stroke-width:1.361916;"/>
   </g>
   <g id="patch_55">
    <path clip-path="url(#p615dcb93c0)" d="M 584.337232 145.57534 
L 585.232978 145.57534 
L 585.232978 131.956182 
L 584.337232 131.956182 
z
" style="fill:#96c69a;fill-opacity:0.5;stroke:#ffffff;stroke-linejoin:miter;stroke-width:1.361916;"/>
   </g>
   <g id="patch_56">
    <path d="M 584.337232 603.86 
L 584.337232 109.484571 
" style="fill:none;stroke:#262626;stroke-linecap:square;stroke-linejoin:miter;stroke-width:2.5;"/>
   </g>
   <g id="patch_57">
    <path d="M 584.337232 603.86 
L 667.574375 603.86 
" style="fill:none;stroke:#262626;stroke-linecap:square;stroke-linejoin:miter;stroke-width:2.5;"/>
   </g>
  </g>
 </g>
 <defs>
  <clipPath id="p8bca4c9fd3">
   <rect height="494.375429" width="482.775429" x="84.914375" y="109.484571"/>
  </clipPath>
  <clipPath id="paf02bc38bf">
   <rect height="85.237143" width="482.775429" x="84.914375" y="7.2"/>
  </clipPath>
  <clipPath id="p615dcb93c0">
   <rect height="494.375429" width="83.237143" x="584.337232" y="109.484571"/>
  </clipPath>
 </defs>
</svg>
