<?xml version="1.0" encoding="utf-8" standalone="no"?>
<!DOCTYPE svg PUBLIC "-//W3C//DTD SVG 1.1//EN"
  "http://www.w3.org/Graphics/SVG/1.1/DTD/svg11.dtd">
<svg height="675.079375pt" version="1.1" viewBox="0 0 688.771875 675.079375" width="688.771875pt" xmlns="http://www.w3.org/2000/svg" xmlns:xlink="http://www.w3.org/1999/xlink">
 <metadata>
  <rdf:RDF xmlns:cc="http://creativecommons.org/ns#" xmlns:dc="http://purl.org/dc/elements/1.1/" xmlns:rdf="http://www.w3.org/1999/02/22-rdf-syntax-ns#">
   <cc:Work>
    <dc:type rdf:resource="http://purl.org/dc/dcmitype/StillImage"/>
    <dc:date>2021-07-16T21:43:59.650666</dc:date>
    <dc:format>image/svg+xml</dc:format>
    <dc:creator>
     <cc:Agent>
      <dc:title>Matplotlib v3.4.2, https://matplotlib.org/</dc:title>
     </cc:Agent>
    </dc:creator>
   </cc:Work>
  </rdf:RDF>
 </metadata>
 <defs>
  <style type="text/css">*{stroke-linecap:butt;stroke-linejoin:round;}</style>
 </defs>
 <g id="figure_1">
  <g id="patch_1">
   <path d="M 0 675.079375 
L 688.771875 675.079375 
L 688.771875 0 
L 0 0 
z
" style="fill:#ffffff;"/>
  </g>
  <g id="axes_1">
   <g id="patch_2">
    <path d="M 98.911875 603.86 
L 581.687304 603.86 
L 581.687304 109.484571 
L 98.911875 109.484571 
z
" style="fill:none;"/>
   </g>
   <g id="matplotlib.axis_1">
    <g id="xtick_1">
     <g id="text_1">
      <!-- 0 -->
      <g style="fill:#262626;" transform="translate(113.63791 636.076563)scale(0.22 -0.22)">
       <defs>
        <path d="M 2034 4250 
Q 1547 4250 1301 3770 
Q 1056 3291 1056 2328 
Q 1056 1369 1301 889 
Q 1547 409 2034 409 
Q 2525 409 2770 889 
Q 3016 1369 3016 2328 
Q 3016 3291 2770 3770 
Q 2525 4250 2034 4250 
z
M 2034 4750 
Q 2819 4750 3233 4129 
Q 3647 3509 3647 2328 
Q 3647 1150 3233 529 
Q 2819 -91 2034 -91 
Q 1250 -91 836 529 
Q 422 1150 422 2328 
Q 422 3509 836 4129 
Q 1250 4750 2034 4750 
z
" id="DejaVuSans-30" transform="scale(0.015625)"/>
       </defs>
       <use xlink:href="#DejaVuSans-30"/>
      </g>
     </g>
    </g>
    <g id="xtick_2">
     <g id="text_2">
      <!-- 20000 -->
      <g style="fill:#262626;" transform="translate(173.464171 636.076563)scale(0.22 -0.22)">
       <defs>
        <path d="M 1228 531 
L 3431 531 
L 3431 0 
L 469 0 
L 469 531 
Q 828 903 1448 1529 
Q 2069 2156 2228 2338 
Q 2531 2678 2651 2914 
Q 2772 3150 2772 3378 
Q 2772 3750 2511 3984 
Q 2250 4219 1831 4219 
Q 1534 4219 1204 4116 
Q 875 4013 500 3803 
L 500 4441 
Q 881 4594 1212 4672 
Q 1544 4750 1819 4750 
Q 2544 4750 2975 4387 
Q 3406 4025 3406 3419 
Q 3406 3131 3298 2873 
Q 3191 2616 2906 2266 
Q 2828 2175 2409 1742 
Q 1991 1309 1228 531 
z
" id="DejaVuSans-32" transform="scale(0.015625)"/>
       </defs>
       <use xlink:href="#DejaVuSans-32"/>
       <use x="63.623047" xlink:href="#DejaVuSans-30"/>
       <use x="127.246094" xlink:href="#DejaVuSans-30"/>
       <use x="190.869141" xlink:href="#DejaVuSans-30"/>
       <use x="254.492188" xlink:href="#DejaVuSans-30"/>
      </g>
     </g>
    </g>
    <g id="xtick_3">
     <g id="text_3">
      <!-- 40000 -->
      <g style="fill:#262626;" transform="translate(261.285432 636.076563)scale(0.22 -0.22)">
       <defs>
        <path d="M 2419 4116 
L 825 1625 
L 2419 1625 
L 2419 4116 
z
M 2253 4666 
L 3047 4666 
L 3047 1625 
L 3713 1625 
L 3713 1100 
L 3047 1100 
L 3047 0 
L 2419 0 
L 2419 1100 
L 313 1100 
L 313 1709 
L 2253 4666 
z
" id="DejaVuSans-34" transform="scale(0.015625)"/>
       </defs>
       <use xlink:href="#DejaVuSans-34"/>
       <use x="63.623047" xlink:href="#DejaVuSans-30"/>
       <use x="127.246094" xlink:href="#DejaVuSans-30"/>
       <use x="190.869141" xlink:href="#DejaVuSans-30"/>
       <use x="254.492188" xlink:href="#DejaVuSans-30"/>
      </g>
     </g>
    </g>
    <g id="xtick_4">
     <g id="text_4">
      <!-- 60000 -->
      <g style="fill:#262626;" transform="translate(349.106693 636.076563)scale(0.22 -0.22)">
       <defs>
        <path d="M 2113 2584 
Q 1688 2584 1439 2293 
Q 1191 2003 1191 1497 
Q 1191 994 1439 701 
Q 1688 409 2113 409 
Q 2538 409 2786 701 
Q 3034 994 3034 1497 
Q 3034 2003 2786 2293 
Q 2538 2584 2113 2584 
z
M 3366 4563 
L 3366 3988 
Q 3128 4100 2886 4159 
Q 2644 4219 2406 4219 
Q 1781 4219 1451 3797 
Q 1122 3375 1075 2522 
Q 1259 2794 1537 2939 
Q 1816 3084 2150 3084 
Q 2853 3084 3261 2657 
Q 3669 2231 3669 1497 
Q 3669 778 3244 343 
Q 2819 -91 2113 -91 
Q 1303 -91 875 529 
Q 447 1150 447 2328 
Q 447 3434 972 4092 
Q 1497 4750 2381 4750 
Q 2619 4750 2861 4703 
Q 3103 4656 3366 4563 
z
" id="DejaVuSans-36" transform="scale(0.015625)"/>
       </defs>
       <use xlink:href="#DejaVuSans-36"/>
       <use x="63.623047" xlink:href="#DejaVuSans-30"/>
       <use x="127.246094" xlink:href="#DejaVuSans-30"/>
       <use x="190.869141" xlink:href="#DejaVuSans-30"/>
       <use x="254.492188" xlink:href="#DejaVuSans-30"/>
      </g>
     </g>
    </g>
    <g id="xtick_5">
     <g id="text_5">
      <!-- 80000 -->
      <g style="fill:#262626;" transform="translate(436.927955 636.076563)scale(0.22 -0.22)">
       <defs>
        <path d="M 2034 2216 
Q 1584 2216 1326 1975 
Q 1069 1734 1069 1313 
Q 1069 891 1326 650 
Q 1584 409 2034 409 
Q 2484 409 2743 651 
Q 3003 894 3003 1313 
Q 3003 1734 2745 1975 
Q 2488 2216 2034 2216 
z
M 1403 2484 
Q 997 2584 770 2862 
Q 544 3141 544 3541 
Q 544 4100 942 4425 
Q 1341 4750 2034 4750 
Q 2731 4750 3128 4425 
Q 3525 4100 3525 3541 
Q 3525 3141 3298 2862 
Q 3072 2584 2669 2484 
Q 3125 2378 3379 2068 
Q 3634 1759 3634 1313 
Q 3634 634 3220 271 
Q 2806 -91 2034 -91 
Q 1263 -91 848 271 
Q 434 634 434 1313 
Q 434 1759 690 2068 
Q 947 2378 1403 2484 
z
M 1172 3481 
Q 1172 3119 1398 2916 
Q 1625 2713 2034 2713 
Q 2441 2713 2670 2916 
Q 2900 3119 2900 3481 
Q 2900 3844 2670 4047 
Q 2441 4250 2034 4250 
Q 1625 4250 1398 4047 
Q 1172 3844 1172 3481 
z
" id="DejaVuSans-38" transform="scale(0.015625)"/>
       </defs>
       <use xlink:href="#DejaVuSans-38"/>
       <use x="63.623047" xlink:href="#DejaVuSans-30"/>
       <use x="127.246094" xlink:href="#DejaVuSans-30"/>
       <use x="190.869141" xlink:href="#DejaVuSans-30"/>
       <use x="254.492188" xlink:href="#DejaVuSans-30"/>
      </g>
     </g>
    </g>
    <g id="xtick_6">
     <g id="text_6">
      <!-- 100000 -->
      <g style="fill:#262626;" transform="translate(517.750466 636.076563)scale(0.22 -0.22)">
       <defs>
        <path d="M 794 531 
L 1825 531 
L 1825 4091 
L 703 3866 
L 703 4441 
L 1819 4666 
L 2450 4666 
L 2450 531 
L 3481 531 
L 3481 0 
L 794 0 
L 794 531 
z
" id="DejaVuSans-31" transform="scale(0.015625)"/>
       </defs>
       <use xlink:href="#DejaVuSans-31"/>
       <use x="63.623047" xlink:href="#DejaVuSans-30"/>
       <use x="127.246094" xlink:href="#DejaVuSans-30"/>
       <use x="190.869141" xlink:href="#DejaVuSans-30"/>
       <use x="254.492188" xlink:href="#DejaVuSans-30"/>
       <use x="318.115234" xlink:href="#DejaVuSans-30"/>
      </g>
     </g>
    </g>
    <g id="text_7">
     <!-- MDTU -->
     <g style="fill:#262626;" transform="translate(304.593964 662.888125)scale(0.24 -0.24)">
      <defs>
       <path d="M 628 4666 
L 1569 4666 
L 2759 1491 
L 3956 4666 
L 4897 4666 
L 4897 0 
L 4281 0 
L 4281 4097 
L 3078 897 
L 2444 897 
L 1241 4097 
L 1241 0 
L 628 0 
L 628 4666 
z
" id="DejaVuSans-4d" transform="scale(0.015625)"/>
       <path d="M 1259 4147 
L 1259 519 
L 2022 519 
Q 2988 519 3436 956 
Q 3884 1394 3884 2338 
Q 3884 3275 3436 3711 
Q 2988 4147 2022 4147 
L 1259 4147 
z
M 628 4666 
L 1925 4666 
Q 3281 4666 3915 4102 
Q 4550 3538 4550 2338 
Q 4550 1131 3912 565 
Q 3275 0 1925 0 
L 628 0 
L 628 4666 
z
" id="DejaVuSans-44" transform="scale(0.015625)"/>
       <path d="M -19 4666 
L 3928 4666 
L 3928 4134 
L 2272 4134 
L 2272 0 
L 1638 0 
L 1638 4134 
L -19 4134 
L -19 4666 
z
" id="DejaVuSans-54" transform="scale(0.015625)"/>
       <path d="M 556 4666 
L 1191 4666 
L 1191 1831 
Q 1191 1081 1462 751 
Q 1734 422 2344 422 
Q 2950 422 3222 751 
Q 3494 1081 3494 1831 
L 3494 4666 
L 4128 4666 
L 4128 1753 
Q 4128 841 3676 375 
Q 3225 -91 2344 -91 
Q 1459 -91 1007 375 
Q 556 841 556 1753 
L 556 4666 
z
" id="DejaVuSans-55" transform="scale(0.015625)"/>
      </defs>
      <use xlink:href="#DejaVuSans-4d"/>
      <use x="86.279297" xlink:href="#DejaVuSans-44"/>
      <use x="163.28125" xlink:href="#DejaVuSans-54"/>
      <use x="224.365234" xlink:href="#DejaVuSans-55"/>
     </g>
    </g>
   </g>
   <g id="matplotlib.axis_2">
    <g id="ytick_1">
     <g id="text_8">
      <!-- 0.25 -->
      <g style="fill:#262626;" transform="translate(34.4275 594.260246)scale(0.22 -0.22)">
       <defs>
        <path d="M 684 794 
L 1344 794 
L 1344 0 
L 684 0 
L 684 794 
z
" id="DejaVuSans-2e" transform="scale(0.015625)"/>
        <path d="M 691 4666 
L 3169 4666 
L 3169 4134 
L 1269 4134 
L 1269 2991 
Q 1406 3038 1543 3061 
Q 1681 3084 1819 3084 
Q 2600 3084 3056 2656 
Q 3513 2228 3513 1497 
Q 3513 744 3044 326 
Q 2575 -91 1722 -91 
Q 1428 -91 1123 -41 
Q 819 9 494 109 
L 494 744 
Q 775 591 1075 516 
Q 1375 441 1709 441 
Q 2250 441 2565 725 
Q 2881 1009 2881 1497 
Q 2881 1984 2565 2268 
Q 2250 2553 1709 2553 
Q 1456 2553 1204 2497 
Q 953 2441 691 2322 
L 691 4666 
z
" id="DejaVuSans-35" transform="scale(0.015625)"/>
       </defs>
       <use xlink:href="#DejaVuSans-30"/>
       <use x="63.623047" xlink:href="#DejaVuSans-2e"/>
       <use x="95.410156" xlink:href="#DejaVuSans-32"/>
       <use x="159.033203" xlink:href="#DejaVuSans-35"/>
      </g>
     </g>
    </g>
    <g id="ytick_2">
     <g id="text_9">
      <!-- 0.50 -->
      <g style="fill:#262626;" transform="translate(34.4275 531.278471)scale(0.22 -0.22)">
       <use xlink:href="#DejaVuSans-30"/>
       <use x="63.623047" xlink:href="#DejaVuSans-2e"/>
       <use x="95.410156" xlink:href="#DejaVuSans-35"/>
       <use x="159.033203" xlink:href="#DejaVuSans-30"/>
      </g>
     </g>
    </g>
    <g id="ytick_3">
     <g id="text_10">
      <!-- 0.75 -->
      <g style="fill:#262626;" transform="translate(34.4275 468.296695)scale(0.22 -0.22)">
       <defs>
        <path d="M 525 4666 
L 3525 4666 
L 3525 4397 
L 1831 0 
L 1172 0 
L 2766 4134 
L 525 4134 
L 525 4666 
z
" id="DejaVuSans-37" transform="scale(0.015625)"/>
       </defs>
       <use xlink:href="#DejaVuSans-30"/>
       <use x="63.623047" xlink:href="#DejaVuSans-2e"/>
       <use x="95.410156" xlink:href="#DejaVuSans-37"/>
       <use x="159.033203" xlink:href="#DejaVuSans-35"/>
      </g>
     </g>
    </g>
    <g id="ytick_4">
     <g id="text_11">
      <!-- 1.00 -->
      <g style="fill:#262626;" transform="translate(34.4275 405.314919)scale(0.22 -0.22)">
       <use xlink:href="#DejaVuSans-31"/>
       <use x="63.623047" xlink:href="#DejaVuSans-2e"/>
       <use x="95.410156" xlink:href="#DejaVuSans-30"/>
       <use x="159.033203" xlink:href="#DejaVuSans-30"/>
      </g>
     </g>
    </g>
    <g id="ytick_5">
     <g id="text_12">
      <!-- 1.25 -->
      <g style="fill:#262626;" transform="translate(34.4275 342.333144)scale(0.22 -0.22)">
       <use xlink:href="#DejaVuSans-31"/>
       <use x="63.623047" xlink:href="#DejaVuSans-2e"/>
       <use x="95.410156" xlink:href="#DejaVuSans-32"/>
       <use x="159.033203" xlink:href="#DejaVuSans-35"/>
      </g>
     </g>
    </g>
    <g id="ytick_6">
     <g id="text_13">
      <!-- 1.50 -->
      <g style="fill:#262626;" transform="translate(34.4275 279.351368)scale(0.22 -0.22)">
       <use xlink:href="#DejaVuSans-31"/>
       <use x="63.623047" xlink:href="#DejaVuSans-2e"/>
       <use x="95.410156" xlink:href="#DejaVuSans-35"/>
       <use x="159.033203" xlink:href="#DejaVuSans-30"/>
      </g>
     </g>
    </g>
    <g id="ytick_7">
     <g id="text_14">
      <!-- 1.75 -->
      <g style="fill:#262626;" transform="translate(34.4275 216.369593)scale(0.22 -0.22)">
       <use xlink:href="#DejaVuSans-31"/>
       <use x="63.623047" xlink:href="#DejaVuSans-2e"/>
       <use x="95.410156" xlink:href="#DejaVuSans-37"/>
       <use x="159.033203" xlink:href="#DejaVuSans-35"/>
      </g>
     </g>
    </g>
    <g id="ytick_8">
     <g id="text_15">
      <!-- 2.00 -->
      <g style="fill:#262626;" transform="translate(34.4275 153.387817)scale(0.22 -0.22)">
       <use xlink:href="#DejaVuSans-32"/>
       <use x="63.623047" xlink:href="#DejaVuSans-2e"/>
       <use x="95.410156" xlink:href="#DejaVuSans-30"/>
       <use x="159.033203" xlink:href="#DejaVuSans-30"/>
      </g>
     </g>
    </g>
    <g id="text_16">
     <!-- $E$ -->
     <g style="fill:#262626;" transform="translate(25.43625 364.352286)rotate(-90)scale(0.24 -0.24)">
      <defs>
       <path d="M 1081 4666 
L 4031 4666 
L 3928 4134 
L 1606 4134 
L 1338 2753 
L 3566 2753 
L 3463 2222 
L 1234 2222 
L 909 531 
L 3284 531 
L 3181 0 
L 172 0 
L 1081 4666 
z
" id="DejaVuSans-Oblique-45" transform="scale(0.015625)"/>
      </defs>
      <use transform="translate(0 0.09375)" xlink:href="#DejaVuSans-Oblique-45"/>
     </g>
    </g>
   </g>
   <g id="line2d_1">
    <path clip-path="url(#pc6c5429fa5)" d="M 120.856213 371.202537 
L 121.075766 362.498102 
L 121.295319 466.075508 
L 121.514872 425.994115 
L 121.734425 540.888875 
L 121.953978 312.457454 
L 122.393085 509.463269 
L 122.612638 456.138792 
L 122.832191 487.044754 
L 123.051744 451.197604 
L 123.271297 439.632546 
L 123.490851 450.792573 
L 123.710404 375.895721 
L 123.929957 497.785807 
L 124.369063 377.667686 
L 124.588616 524.272299 
L 124.808169 415.789559 
L 125.027723 424.832071 
L 125.466829 574.505769 
L 125.686382 367.235925 
L 126.125488 466.779727 
L 126.345041 384.952087 
L 126.564595 455.231893 
L 127.003701 224.431194 
L 127.442807 463.725586 
L 127.66236 385.591091 
L 128.101467 465.014145 
L 128.32102 402.927619 
L 128.540573 535.455088 
L 129.199232 365.770707 
L 129.418786 519.089323 
L 129.638339 426.607908 
L 129.857892 514.411265 
L 130.077445 403.465959 
L 130.296998 392.883666 
L 130.516551 308.182265 
L 130.736105 270.536728 
L 130.955658 434.875028 
L 131.175211 482.917534 
L 131.394764 472.540856 
L 131.614317 367.93764 
L 131.83387 469.200898 
L 132.053423 485.541938 
L 132.272977 528.945396 
L 132.712083 351.103693 
L 132.931636 453.686648 
L 133.151189 495.753573 
L 133.370742 453.511734 
L 133.590296 341.70762 
L 133.809849 539.904976 
L 134.029402 466.192083 
L 134.248955 514.371524 
L 134.468508 514.98845 
L 134.688061 432.591678 
L 135.127168 488.304788 
L 135.346721 508.65353 
L 135.566274 418.135724 
L 135.785827 383.640645 
L 136.00538 408.298605 
L 136.224933 376.205222 
L 136.444487 518.89215 
L 136.66404 468.844484 
L 136.883593 323.2279 
L 137.322699 354.248516 
L 137.761805 541.459573 
L 137.981359 368.31506 
L 138.200912 471.440046 
L 138.420465 356.680585 
L 138.859571 559.923102 
L 139.079124 454.20818 
L 139.298678 466.171545 
L 139.518231 518.550723 
L 139.737784 482.973016 
L 139.957337 499.360044 
L 140.396443 368.55456 
L 140.615996 442.480011 
L 140.83555 376.062324 
L 141.055103 421.621291 
L 141.274656 315.844692 
L 141.494209 463.342745 
L 141.713762 420.065568 
L 141.933315 471.30495 
L 142.152869 418.487088 
L 142.372422 453.28784 
L 142.591975 419.052451 
L 142.811528 360.751833 
L 143.031081 505.027593 
L 143.250634 509.963924 
L 143.470187 483.654978 
L 143.689741 355.830805 
L 143.909294 473.046933 
L 144.128847 491.490517 
L 144.3484 529.756997 
L 144.567953 415.467358 
L 144.787506 428.247474 
L 145.00706 495.319106 
L 145.226613 408.803525 
L 145.446166 409.595672 
L 145.665719 473.915406 
L 145.885272 295.313757 
L 146.104825 482.0838 
L 146.324378 323.374905 
L 146.543932 494.058965 
L 146.763485 505.582534 
L 146.983038 447.435048 
L 147.202591 457.190478 
L 147.641697 334.328464 
L 147.861251 406.985629 
L 148.080804 395.145297 
L 148.300357 442.590036 
L 148.739463 464.924581 
L 149.178569 306.81306 
L 149.617676 443.146869 
L 149.837229 327.383509 
L 150.056782 393.180835 
L 150.276335 314.998572 
L 150.495888 449.295747 
L 150.715441 436.887425 
L 150.934995 529.198994 
L 151.374101 434.035207 
L 151.813207 519.560318 
L 152.03276 415.805523 
L 152.252314 391.453609 
L 152.471867 442.886969 
L 152.69142 397.968448 
L 152.910973 564.961014 
L 153.130526 379.236071 
L 153.350079 481.199865 
L 153.569632 467.486388 
L 153.789186 526.849066 
L 154.008739 429.09193 
L 154.228292 479.747938 
L 154.447845 494.400252 
L 154.667398 396.155251 
L 154.886951 492.969676 
L 155.106505 256.201537 
L 155.326058 330.47604 
L 155.545611 474.96495 
L 155.984717 363.437292 
L 156.20427 534.302779 
L 156.423823 334.958845 
L 156.86293 483.363989 
L 157.082483 422.876118 
L 157.302036 420.956936 
L 157.521589 507.376535 
L 157.741142 457.79579 
L 157.960696 523.784543 
L 158.180249 459.174278 
L 158.619355 399.939958 
L 158.838908 475.031963 
L 159.058461 432.308878 
L 159.278014 533.594608 
L 159.497568 496.234972 
L 159.717121 413.11607 
L 159.936674 442.780778 
L 160.156227 399.413748 
L 160.37578 392.582713 
L 160.595333 430.169758 
L 160.814887 421.767201 
L 161.03444 488.190224 
L 161.253993 376.5045 
L 161.693099 475.225097 
L 161.912652 423.075336 
L 162.132205 485.685667 
L 162.351759 402.771546 
L 162.571312 380.100402 
L 163.010418 485.082765 
L 163.229971 375.146455 
L 163.449524 342.887218 
L 163.669078 472.347549 
L 163.888631 498.638498 
L 164.108184 369.601666 
L 164.327737 475.862389 
L 164.54729 487.045125 
L 164.766843 479.441154 
L 164.986396 485.688289 
L 165.20595 393.188099 
L 165.425503 491.098593 
L 165.645056 486.308254 
L 165.864609 538.14453 
L 166.303715 305.422707 
L 166.742822 473.619952 
L 166.962375 450.569054 
L 167.181928 407.131996 
L 167.401481 542.20791 
L 167.621034 533.713017 
L 167.840587 463.371702 
L 168.060141 507.647966 
L 168.279694 479.603595 
L 168.7188 235.963048 
L 168.938353 466.838792 
L 169.157906 429.742775 
L 169.37746 461.516331 
L 169.597013 474.098222 
L 169.816566 502.141894 
L 170.036119 467.652946 
L 170.255672 526.285634 
L 170.475225 428.50765 
L 170.694778 447.459623 
L 170.914332 454.675014 
L 171.133885 426.542667 
L 171.353438 486.078514 
L 171.572991 456.293 
L 171.792544 401.854858 
L 172.012097 513.360671 
L 172.231651 526.074199 
L 172.451204 452.381851 
L 172.670757 502.835846 
L 172.89031 442.276228 
L 173.109863 447.219502 
L 173.329416 497.850628 
L 173.548969 457.725518 
L 173.768523 452.52187 
L 173.988076 327.127553 
L 174.207629 425.245126 
L 174.427182 459.338794 
L 174.646735 535.840042 
L 174.866288 485.671732 
L 175.085842 468.478759 
L 175.305395 167.45726 
L 175.744501 463.796311 
L 175.964054 465.079064 
L 176.183607 298.8681 
L 176.40316 480.965531 
L 176.622714 432.09129 
L 176.842267 517.902244 
L 177.06182 504.085326 
L 177.281373 543.952698 
L 177.500926 528.92115 
L 177.720479 420.78399 
L 177.940032 553.160119 
L 178.379139 473.446816 
L 178.598692 387.761585 
L 178.818245 509.572476 
L 179.037798 434.155014 
L 179.696458 509.364311 
L 179.916011 339.486211 
L 180.135564 510.021056 
L 180.355117 527.519693 
L 180.57467 297.188467 
L 180.794223 362.664351 
L 181.013777 344.735198 
L 181.23333 527.149076 
L 181.452883 467.448354 
L 181.672436 300.586649 
L 181.891989 407.123318 
L 182.111542 400.580625 
L 182.331096 444.928695 
L 182.550649 419.115635 
L 182.770202 527.341951 
L 182.989755 467.467126 
L 183.428861 533.565977 
L 183.867968 345.034929 
L 184.087521 434.082327 
L 184.307074 447.367509 
L 184.526627 532.94102 
L 184.74618 438.009486 
L 184.965733 465.511885 
L 185.185287 466.677941 
L 185.624393 525.435112 
L 185.843946 451.169543 
L 186.063499 532.514932 
L 186.283052 429.794789 
L 186.502605 449.315126 
L 186.722159 429.995316 
L 186.941712 429.603204 
L 187.161265 503.837706 
L 187.380818 495.735113 
L 187.600371 384.605158 
L 187.819924 435.606034 
L 188.039478 516.145989 
L 188.259031 407.382312 
L 188.478584 472.289258 
L 188.698137 447.195798 
L 189.137243 524.871175 
L 189.356796 390.416577 
L 189.795903 420.132293 
L 190.015456 323.070431 
L 190.235009 497.696435 
L 190.454562 552.308365 
L 190.893669 481.37037 
L 191.113222 541.885877 
L 191.332775 477.381082 
L 191.552328 528.422504 
L 191.771881 394.571616 
L 191.991434 507.784352 
L 192.210987 481.447693 
L 192.430541 480.200805 
L 192.650094 340.417831 
L 192.869647 493.943677 
L 193.308753 355.78751 
L 193.528306 473.85572 
L 193.74786 468.850082 
L 193.967413 474.760671 
L 194.186966 518.689008 
L 194.406519 494.264792 
L 194.626072 524.020021 
L 194.845625 501.1391 
L 195.284732 348.151654 
L 195.504285 390.331145 
L 195.723838 482.010514 
L 195.943391 387.102964 
L 196.162944 456.250073 
L 196.382497 445.736496 
L 196.602051 414.641791 
L 196.821604 412.980799 
L 197.041157 396.054424 
L 197.26071 476.310222 
L 197.480263 439.380471 
L 197.699816 500.0562 
L 197.919369 515.648645 
L 198.138923 457.136781 
L 198.358476 492.767696 
L 198.797582 441.726446 
L 199.017135 478.70003 
L 199.236688 277.204961 
L 199.456242 438.312987 
L 199.895348 290.747964 
L 200.114901 440.974557 
L 200.334454 448.414252 
L 200.554007 517.159522 
L 200.77356 525.816217 
L 200.993114 407.855664 
L 201.212667 465.477074 
L 201.43222 356.843611 
L 201.651773 445.51431 
L 201.871326 371.770193 
L 202.090879 374.919117 
L 202.310432 519.403552 
L 202.529986 421.326177 
L 202.749539 539.916763 
L 203.188645 394.303428 
L 203.627751 423.884875 
L 203.847305 190.676479 
L 204.286411 523.210304 
L 204.725517 487.695764 
L 205.164623 300.022728 
L 205.384177 466.814248 
L 205.60373 515.992558 
L 205.823283 501.610088 
L 206.042836 460.325058 
L 206.262389 352.519775 
L 206.481942 369.202115 
L 206.701496 545.145099 
L 206.921049 364.805099 
L 207.140602 400.255486 
L 207.360155 455.804502 
L 207.579708 332.698907 
L 207.799261 304.894737 
L 208.018814 310.171817 
L 208.238368 330.379142 
L 208.457921 413.400457 
L 208.677474 379.134885 
L 209.11658 418.973269 
L 209.336133 383.954292 
L 209.77524 463.498686 
L 210.214346 427.999644 
L 210.653452 513.930668 
L 211.092559 415.375462 
L 211.312112 504.781016 
L 211.531665 428.908414 
L 211.751218 537.389003 
L 212.190324 384.200857 
L 212.409878 535.390515 
L 212.629431 475.592885 
L 212.848984 523.528261 
L 213.068537 535.799463 
L 213.28809 433.816237 
L 213.507643 449.565188 
L 213.727196 367.647671 
L 213.94675 351.387801 
L 214.166303 374.76101 
L 214.385856 474.188849 
L 214.605409 492.504247 
L 214.824962 465.697122 
L 215.044515 275.15057 
L 215.264069 469.262831 
L 215.483622 481.188686 
L 215.703175 554.10842 
L 215.922728 400.714546 
L 216.142281 474.939645 
L 216.361834 470.10917 
L 216.581387 488.957929 
L 216.800941 430.242962 
L 217.020494 464.88096 
L 217.240047 472.389291 
L 217.4596 455.899454 
L 217.679153 372.065981 
L 217.898706 411.527426 
L 218.11826 332.285579 
L 218.557366 411.024124 
L 218.776919 518.951579 
L 218.996472 369.54054 
L 219.216025 398.180317 
L 219.435578 317.099497 
L 219.655132 495.768899 
L 219.874685 461.671067 
L 220.313791 515.126398 
L 220.533344 476.637045 
L 220.752897 482.253725 
L 220.972451 504.977748 
L 221.192004 452.017145 
L 221.411557 425.926928 
L 221.63111 510.773587 
L 221.850663 530.946949 
L 222.070216 536.599395 
L 222.289769 501.237738 
L 222.509323 329.864183 
L 222.728876 486.593914 
L 223.167982 462.142994 
L 223.387535 466.40614 
L 223.607088 421.615272 
L 223.826642 404.755854 
L 224.046195 499.203371 
L 224.265748 443.870538 
L 224.485301 480.926471 
L 224.704854 413.873916 
L 224.924407 461.51725 
L 225.14396 454.99647 
L 225.363514 470.498035 
L 225.583067 272.824008 
L 225.80262 394.559191 
L 226.022173 372.979893 
L 226.241726 517.272543 
L 226.461279 358.640193 
L 226.680833 509.684185 
L 226.900386 406.652952 
L 227.119939 447.267216 
L 227.339492 549.663443 
L 227.559045 439.492701 
L 227.778598 473.581378 
L 227.998151 465.674978 
L 228.217705 483.238343 
L 228.437258 464.808429 
L 228.656811 313.109608 
L 228.876364 523.276218 
L 229.31547 303.254001 
L 229.754577 527.815491 
L 229.97413 518.951112 
L 230.193683 443.50192 
L 230.632789 452.049318 
L 230.852342 245.238133 
L 231.071896 515.062088 
L 231.291449 439.696875 
L 231.511002 407.649813 
L 231.730555 459.044372 
L 231.950108 419.311035 
L 232.169661 483.305334 
L 232.389214 390.164801 
L 232.608768 512.180656 
L 232.828321 407.475205 
L 233.047874 517.71796 
L 233.267427 419.958179 
L 233.48698 518.378361 
L 233.926087 415.203573 
L 234.14564 504.571902 
L 234.365193 454.634272 
L 234.584746 372.078131 
L 234.804299 401.973881 
L 235.023852 349.507087 
L 235.462959 521.268451 
L 235.682512 456.452924 
L 235.902065 429.626269 
L 236.121618 496.74235 
L 236.341171 459.90944 
L 236.560724 490.524013 
L 236.780278 392.876158 
L 236.999831 502.048785 
L 237.219384 464.81277 
L 237.438937 471.116849 
L 237.65849 437.679483 
L 237.878043 458.109863 
L 238.097596 373.32467 
L 238.536703 475.804424 
L 238.756256 524.795728 
L 238.975809 513.06828 
L 239.195362 513.30467 
L 239.414915 370.981308 
L 239.634469 475.03479 
L 239.854022 423.771266 
L 240.073575 512.808189 
L 240.512681 429.376818 
L 240.732234 430.446131 
L 240.951787 418.519421 
L 241.171341 354.120425 
L 241.390894 507.774893 
L 241.610447 502.548682 
L 241.83 564.868618 
L 242.049553 457.242744 
L 242.269106 448.344123 
L 242.48866 431.940727 
L 242.708213 539.616869 
L 242.927766 384.374914 
L 243.366872 408.976985 
L 243.586425 452.602674 
L 243.805978 300.03421 
L 244.025532 375.841816 
L 244.245085 381.998306 
L 244.464638 550.227539 
L 244.684191 430.068536 
L 244.903744 458.160802 
L 245.123297 353.368824 
L 245.342851 488.598906 
L 245.562404 372.760513 
L 245.781957 405.917697 
L 246.00151 477.203048 
L 246.221063 357.818178 
L 246.440616 415.188983 
L 246.660169 419.022946 
L 246.879723 478.84923 
L 247.099276 456.555694 
L 247.318829 519.995244 
L 247.538382 492.675678 
L 247.757935 532.094587 
L 247.977488 498.061725 
L 248.197042 510.508522 
L 248.416595 396.868185 
L 248.636148 430.443206 
L 248.855701 505.568538 
L 249.075254 426.337045 
L 249.733914 340.028691 
L 249.953467 280.677259 
L 250.17302 415.902034 
L 250.392573 463.297616 
L 250.612126 367.551572 
L 250.831679 469.041367 
L 251.051233 386.448376 
L 251.270786 493.60115 
L 251.490339 510.36606 
L 251.709892 352.304601 
L 251.929445 441.674277 
L 252.148998 260.577113 
L 252.368551 447.332116 
L 252.588105 433.304136 
L 252.807658 442.90145 
L 253.027211 361.815087 
L 253.246764 230.787306 
L 253.466317 508.945562 
L 253.68587 485.392367 
L 253.905424 476.539059 
L 254.124977 396.84965 
L 254.34453 512.493241 
L 254.564083 385.881594 
L 254.783636 450.937366 
L 255.003189 472.389717 
L 255.222742 505.136628 
L 255.442296 425.816304 
L 255.661849 502.950172 
L 255.881402 406.666519 
L 256.320508 559.267053 
L 256.540061 417.61825 
L 256.759614 513.996926 
L 256.979168 322.366943 
L 257.198721 456.651593 
L 257.418274 441.148487 
L 257.637827 524.030347 
L 258.076933 424.035002 
L 258.296487 441.230815 
L 258.51604 334.397484 
L 258.735593 489.234749 
L 259.174699 467.888701 
L 259.613805 362.434485 
L 259.833359 495.549 
L 260.052912 395.529836 
L 260.272465 493.463508 
L 260.492018 399.040638 
L 260.711571 461.549878 
L 260.931124 488.910134 
L 261.150678 459.793658 
L 261.370231 415.39894 
L 261.589784 481.775282 
L 261.809337 444.59393 
L 262.02889 463.252433 
L 262.248443 514.490338 
L 262.467996 417.183878 
L 262.68755 446.875099 
L 262.907103 390.825494 
L 263.346209 524.913054 
L 263.565762 425.540981 
L 263.785315 531.422324 
L 264.004869 461.289907 
L 264.224422 434.160963 
L 264.443975 510.110713 
L 264.663528 449.541244 
L 264.883081 478.300841 
L 265.102634 446.59728 
L 265.322187 500.145959 
L 265.541741 512.765937 
L 265.761294 561.055469 
L 266.2004 338.88806 
L 266.419953 518.001846 
L 266.639506 465.193795 
L 266.85906 451.815197 
L 267.078613 297.887725 
L 267.298166 440.648793 
L 267.517719 370.213011 
L 267.737272 476.027164 
L 267.956825 485.866263 
L 268.176378 343.228092 
L 268.395932 507.512966 
L 268.615485 414.12132 
L 268.835038 510.251334 
L 269.274144 379.253082 
L 269.493697 415.443366 
L 269.713251 482.817474 
L 269.932804 460.573833 
L 270.152357 555.821595 
L 270.37191 437.289644 
L 270.591463 519.095479 
L 270.811016 369.789767 
L 271.030569 557.024742 
L 271.250123 417.764196 
L 271.469676 403.262541 
L 271.689229 494.21921 
L 271.908782 514.464672 
L 272.128335 399.995837 
L 272.347888 363.54825 
L 272.786995 540.201746 
L 273.006548 318.051864 
L 273.226101 447.690778 
L 273.445654 343.163096 
L 273.665207 477.73994 
L 273.88476 383.843172 
L 274.104314 519.454622 
L 274.323867 397.393395 
L 274.762973 485.520689 
L 274.982526 415.198724 
L 275.421633 543.772431 
L 275.641186 497.897786 
L 275.860739 378.932357 
L 276.080292 419.50002 
L 276.299845 345.780279 
L 276.519398 488.270767 
L 276.738951 192.640752 
L 276.958505 390.479288 
L 277.178058 423.5477 
L 277.397611 232.900132 
L 277.617164 413.104109 
L 277.836717 478.36299 
L 278.275824 427.354353 
L 278.495377 408.448664 
L 278.71493 510.596035 
L 278.934483 332.475556 
L 279.154036 466.894577 
L 279.593142 353.168768 
L 279.812696 541.620811 
L 280.032249 417.632439 
L 280.471355 547.920205 
L 280.690908 490.174659 
L 281.130014 350.160649 
L 281.569121 537.017223 
L 281.788674 419.059074 
L 282.008227 420.284286 
L 282.22778 472.454825 
L 282.447333 397.008577 
L 282.666887 479.569381 
L 282.88644 502.754458 
L 283.105993 311.286781 
L 283.325546 335.63172 
L 283.545099 474.143789 
L 283.764652 343.837783 
L 283.984205 432.527268 
L 284.203759 451.476464 
L 284.423312 533.941258 
L 284.642865 484.535739 
L 284.862418 487.576632 
L 285.081971 304.861209 
L 285.301524 366.722722 
L 285.521078 484.732508 
L 285.740631 453.637073 
L 286.179737 498.840627 
L 286.39929 489.930466 
L 286.618843 527.217491 
L 286.838396 389.892807 
L 287.05795 361.694324 
L 287.277503 503.250094 
L 287.497056 515.980121 
L 287.716609 316.515479 
L 287.936162 444.76196 
L 288.155715 419.235898 
L 288.375269 454.297862 
L 288.594822 257.825934 
L 288.814375 532.543059 
L 289.033928 379.828002 
L 289.473034 478.392204 
L 289.692587 392.001703 
L 289.912141 511.645577 
L 290.131694 435.790324 
L 290.351247 462.619491 
L 290.790353 403.190514 
L 291.009906 263.984128 
L 291.22946 459.717072 
L 291.449013 508.551788 
L 291.668566 448.71549 
L 291.888119 464.36806 
L 292.107672 385.705142 
L 292.327225 488.329383 
L 292.766332 433.2399 
L 292.985885 463.952389 
L 293.205438 320.282084 
L 293.644544 525.964905 
L 293.864097 455.374609 
L 294.083651 448.32035 
L 294.303204 508.413076 
L 294.522757 510.613738 
L 294.74231 494.215142 
L 294.961863 535.358633 
L 295.400969 474.23911 
L 295.620523 375.821297 
L 295.840076 448.829521 
L 296.279182 402.021714 
L 296.498735 518.375704 
L 296.718288 432.6985 
L 297.157395 472.354067 
L 297.596501 489.019288 
L 297.816054 338.018007 
L 298.035607 504.607551 
L 298.25516 415.90838 
L 298.474714 484.721497 
L 298.91382 345.931796 
L 299.133373 496.092285 
L 299.352926 384.63538 
L 299.572479 459.868033 
L 299.792033 464.626427 
L 300.011586 484.992175 
L 300.231139 430.309006 
L 300.450692 403.514588 
L 300.889798 454.337464 
L 301.109351 308.857654 
L 301.328905 530.251544 
L 301.548458 460.050861 
L 301.768011 322.686978 
L 301.987564 495.964986 
L 302.207117 363.001691 
L 302.42667 447.013141 
L 302.646224 443.175458 
L 302.865777 519.094775 
L 303.08533 513.008394 
L 303.304883 484.435882 
L 303.524436 513.350983 
L 303.743989 455.43617 
L 303.963542 472.583779 
L 304.183096 467.02345 
L 304.402649 496.493151 
L 304.622202 474.732315 
L 304.841755 542.413273 
L 305.061308 410.316424 
L 305.280861 452.376582 
L 305.719968 464.930692 
L 305.939521 542.923205 
L 306.159074 548.085862 
L 306.378627 381.814489 
L 306.59818 521.247452 
L 306.817733 444.115199 
L 307.037287 420.279728 
L 307.25684 315.45357 
L 307.476393 426.807661 
L 307.695946 289.308725 
L 307.915499 458.397929 
L 308.135052 511.70052 
L 308.354605 479.920627 
L 308.574159 327.666019 
L 308.793712 445.538232 
L 309.013265 423.726439 
L 309.232818 487.195358 
L 309.452371 393.989499 
L 309.671924 469.18548 
L 310.111031 355.001128 
L 310.330584 549.727541 
L 310.550137 491.219488 
L 310.76969 371.723259 
L 310.989243 502.573225 
L 311.42835 486.589131 
L 311.647903 550.337218 
L 311.867456 452.812232 
L 312.087009 455.267927 
L 312.306562 432.984004 
L 312.526115 470.349398 
L 312.745669 471.361284 
L 312.965222 440.238338 
L 313.184775 323.832424 
L 313.404328 375.698644 
L 313.623881 517.256514 
L 313.843434 513.283099 
L 314.062987 477.02162 
L 314.282541 347.998644 
L 314.502094 504.393102 
L 314.721647 409.715456 
L 314.9412 449.93268 
L 315.160753 437.031417 
L 315.380306 440.091746 
L 315.59986 422.575129 
L 315.819413 456.858517 
L 316.258519 337.322088 
L 316.478072 373.996766 
L 316.697625 469.010158 
L 316.917178 287.284884 
L 317.136732 468.465231 
L 317.575838 287.703279 
L 317.795391 451.129746 
L 318.014944 446.199625 
L 318.673604 572.555647 
L 319.11271 416.072391 
L 319.551816 491.188007 
L 319.771369 478.575103 
L 319.990923 490.136604 
L 320.210476 407.88084 
L 320.649582 422.796108 
L 320.869135 435.795133 
L 321.088688 462.966264 
L 321.308242 432.150018 
L 321.527795 435.084339 
L 321.747348 452.952189 
L 321.966901 376.897357 
L 322.186454 445.435964 
L 322.62556 491.096831 
L 322.845114 489.246167 
L 323.064667 484.782796 
L 323.28422 507.0734 
L 323.503773 435.098604 
L 323.723326 291.609526 
L 323.942879 547.228423 
L 324.381986 444.002664 
L 324.601539 508.980084 
L 324.821092 477.712291 
L 325.040645 477.909624 
L 325.260198 436.159827 
L 325.479751 497.180086 
L 325.699305 310.351981 
L 325.918858 399.970569 
L 326.138411 327.181191 
L 326.357964 535.775379 
L 326.577517 471.841585 
L 326.79707 484.811408 
L 327.016624 287.046496 
L 327.45573 448.385651 
L 327.675283 493.07125 
L 327.894836 434.082513 
L 328.114389 532.446915 
L 328.333942 496.614967 
L 328.553496 413.891763 
L 329.212155 510.933946 
L 329.431708 463.568319 
L 329.651261 378.52547 
L 330.090368 556.158079 
L 330.309921 453.516797 
L 330.529474 492.548972 
L 330.749027 398.102689 
L 330.96858 470.346218 
L 331.407687 358.417221 
L 331.62724 385.046473 
L 331.846793 492.416786 
L 332.066346 447.57426 
L 332.285899 426.292905 
L 332.505452 370.588553 
L 332.725006 448.527967 
L 332.944559 470.856649 
L 333.164112 439.394704 
L 333.383665 424.998989 
L 333.603218 266.087954 
L 333.822771 475.160265 
L 334.042324 435.994153 
L 334.261878 417.569529 
L 334.481431 436.158457 
L 334.920537 340.271686 
L 335.14009 491.137547 
L 335.579196 425.418374 
L 335.79875 480.921924 
L 336.018303 357.899031 
L 336.237856 356.189602 
L 336.676962 534.141825 
L 336.896515 410.467461 
L 337.116069 416.846 
L 337.335622 408.755023 
L 337.555175 465.906662 
L 337.994281 497.169438 
L 338.433387 461.124789 
L 338.652941 415.486507 
L 338.872494 442.854916 
L 339.092047 321.127474 
L 339.3116 449.836754 
L 339.750706 332.587965 
L 339.97026 460.556545 
L 340.189813 451.995962 
L 340.409366 405.575049 
L 340.628919 537.183257 
L 341.068025 484.83618 
L 341.287578 406.559088 
L 341.507132 495.193547 
L 341.726685 524.612189 
L 342.385344 402.243094 
L 342.604897 454.486659 
L 342.824451 477.420615 
L 343.044004 363.28863 
L 343.263557 368.58205 
L 343.48311 444.627021 
L 343.702663 405.48405 
L 343.922216 503.72125 
L 344.141769 307.099898 
L 344.361323 341.568095 
L 344.580876 459.832141 
L 344.800429 363.949194 
L 345.019982 488.60246 
L 345.239535 388.191377 
L 345.459088 215.740193 
L 345.678642 131.956182 
L 345.898195 368.878636 
L 346.117748 458.229091 
L 346.337301 482.183715 
L 346.556854 457.133414 
L 346.776407 490.084642 
L 346.99596 448.334487 
L 347.215514 508.222038 
L 347.435067 447.122018 
L 347.65462 322.014155 
L 347.874173 438.630297 
L 348.093726 447.310679 
L 348.313279 442.302546 
L 348.532833 406.950859 
L 348.752386 483.389824 
L 348.971939 383.530463 
L 349.191492 433.205253 
L 349.411045 451.828766 
L 349.630598 407.959081 
L 349.850151 480.770901 
L 350.069705 198.414875 
L 350.289258 256.764242 
L 350.508811 494.624663 
L 350.728364 444.036619 
L 350.947917 422.459444 
L 351.16747 522.55049 
L 351.387024 441.849157 
L 351.606577 412.119613 
L 352.045683 463.368957 
L 352.265236 433.085451 
L 352.484789 499.496229 
L 352.704342 443.250688 
L 352.923896 416.842238 
L 353.143449 513.87394 
L 353.363002 503.009446 
L 353.582555 507.137398 
L 353.802108 422.389186 
L 354.021661 468.316073 
L 354.241215 463.629911 
L 354.460768 429.835077 
L 354.680321 480.539244 
L 354.899874 434.621358 
L 355.119427 504.400956 
L 355.33898 532.004254 
L 355.558533 542.739399 
L 355.778087 408.765308 
L 355.99764 495.270802 
L 356.217193 429.359384 
L 356.436746 556.815838 
L 356.656299 493.847333 
L 356.875852 490.489248 
L 357.095406 310.164045 
L 357.314959 474.880441 
L 357.534512 445.030274 
L 357.973618 457.482882 
L 358.193171 432.831305 
L 358.412724 488.625148 
L 358.632278 461.328737 
L 358.851831 505.881412 
L 359.071384 380.727238 
L 359.290937 461.221793 
L 359.51049 298.250874 
L 359.949596 534.513784 
L 360.388703 387.200199 
L 360.608256 443.942858 
L 360.827809 440.490178 
L 361.266915 504.659849 
L 361.486469 399.930252 
L 361.706022 394.991041 
L 361.925575 438.698129 
L 362.145128 365.770429 
L 362.364681 418.75719 
L 362.584234 439.483508 
L 362.803787 546.157836 
L 363.242894 186.14026 
L 363.462447 500.199851 
L 363.682 502.922078 
L 363.901553 496.596703 
L 364.121106 540.409493 
L 364.34066 450.654553 
L 364.560213 540.360412 
L 364.779766 531.50094 
L 364.999319 498.205663 
L 365.218872 443.137225 
L 365.438425 490.773271 
L 365.657978 442.028762 
L 365.877532 466.9966 
L 366.097085 464.248864 
L 366.316638 445.343676 
L 366.536191 390.021465 
L 366.975297 455.373567 
L 367.194851 440.933499 
L 367.414404 370.665686 
L 367.633957 394.29005 
L 367.85351 491.887916 
L 368.073063 274.015713 
L 368.292616 316.934479 
L 368.512169 441.031683 
L 368.731723 374.699026 
L 368.951276 512.275426 
L 369.170829 463.063902 
L 369.390382 499.486552 
L 369.609935 512.830899 
L 369.829488 448.834013 
L 370.049042 433.743171 
L 370.268595 470.002587 
L 370.488148 330.703822 
L 370.707701 570.206714 
L 371.146807 401.784523 
L 371.36636 501.619421 
L 371.585914 486.201548 
L 371.805467 523.159669 
L 372.02502 493.588609 
L 372.464126 358.496272 
L 372.683679 522.827757 
L 372.903233 430.42107 
L 373.122786 418.736111 
L 373.342339 451.787671 
L 373.561892 516.629819 
L 373.781445 428.786087 
L 374.000998 465.228404 
L 374.220551 481.657628 
L 374.440105 423.119379 
L 374.659658 449.131793 
L 374.879211 335.386101 
L 375.098764 468.921066 
L 375.318317 362.335378 
L 375.53787 511.196549 
L 375.757424 406.907739 
L 375.976977 533.438114 
L 376.416083 360.753053 
L 376.635636 482.960612 
L 376.855189 512.433579 
L 377.074742 408.221767 
L 377.294296 499.828122 
L 377.513849 460.895231 
L 377.733402 474.437387 
L 377.952955 496.997603 
L 378.172508 478.569309 
L 378.392061 413.118044 
L 378.611615 482.628975 
L 378.831168 312.345749 
L 379.270274 530.083312 
L 379.489827 453.157391 
L 379.70938 418.914307 
L 379.928933 516.423486 
L 380.148487 438.582704 
L 380.36804 491.934528 
L 380.587593 481.111718 
L 380.807146 490.199981 
L 381.026699 436.113658 
L 381.246252 416.630204 
L 381.685359 521.175066 
L 381.904912 425.003892 
L 382.344018 522.480336 
L 382.563571 505.173785 
L 382.783124 447.469603 
L 383.002678 356.038116 
L 383.222231 490.898038 
L 383.441784 281.43604 
L 383.88089 506.844796 
L 384.100443 436.788713 
L 384.319997 275.90608 
L 384.53955 474.30634 
L 384.759103 456.997976 
L 384.978656 565.5908 
L 385.417762 400.341021 
L 385.637315 373.537526 
L 385.856869 453.276335 
L 386.076422 409.983419 
L 386.295975 470.88997 
L 386.515528 494.186147 
L 386.735081 462.290889 
L 386.954634 376.34971 
L 387.174187 369.302917 
L 387.393741 470.8782 
L 387.613294 487.079373 
L 387.832847 299.882935 
L 388.0524 506.960182 
L 388.271953 455.652419 
L 388.491506 453.410845 
L 388.71106 458.212232 
L 388.930613 446.238505 
L 389.150166 490.427246 
L 389.589272 445.013511 
L 389.808825 505.520418 
L 390.028378 430.253616 
L 390.247932 424.591553 
L 390.467485 291.110474 
L 390.687038 451.653697 
L 390.906591 452.599943 
L 391.126144 410.980902 
L 391.345697 412.612565 
L 391.565251 501.145384 
L 391.784804 479.738107 
L 392.004357 478.145165 
L 392.22391 415.3972 
L 392.443463 522.019917 
L 392.663016 485.144949 
L 392.882569 532.673865 
L 393.102123 370.225951 
L 393.321676 464.326893 
L 393.541229 428.559435 
L 393.760782 556.912084 
L 394.199888 463.268098 
L 394.419442 443.777635 
L 394.638995 506.463184 
L 395.078101 327.765673 
L 395.517207 507.876854 
L 395.73676 520.01834 
L 395.956314 460.60246 
L 396.175867 356.093856 
L 396.39542 337.519973 
L 396.614973 507.81279 
L 396.834526 453.748384 
L 397.054079 445.783849 
L 397.273633 370.780479 
L 397.493186 396.909148 
L 397.712739 506.350504 
L 397.932292 361.568497 
L 398.151845 459.620911 
L 398.371398 470.703378 
L 398.590951 307.195931 
L 398.810505 498.106247 
L 399.030058 352.380766 
L 399.249611 485.702364 
L 399.469164 412.593582 
L 399.688717 438.186592 
L 399.90827 419.390679 
L 400.127824 505.83886 
L 400.347377 516.129929 
L 400.56693 396.79895 
L 400.786483 540.276787 
L 401.006036 504.543473 
L 401.225589 301.507825 
L 401.445142 513.243444 
L 401.664696 466.164266 
L 401.884249 531.049989 
L 402.103802 421.021431 
L 402.323355 385.812813 
L 402.542908 329.27651 
L 402.762461 541.44085 
L 402.982015 574.797179 
L 403.201568 516.890514 
L 403.421121 394.827974 
L 403.640674 517.459504 
L 403.860227 379.141073 
L 404.07978 430.828134 
L 404.299333 390.6659 
L 404.518887 475.169875 
L 404.957993 416.54092 
L 405.397099 486.790156 
L 405.616652 466.696719 
L 406.055759 504.18709 
L 406.494865 370.867119 
L 406.714418 164.291107 
L 406.933971 449.207709 
L 407.153524 457.284004 
L 407.373078 460.672221 
L 407.592631 391.688538 
L 407.812184 534.263065 
L 408.031737 537.206981 
L 408.25129 418.503746 
L 408.470843 417.980272 
L 408.690397 488.10981 
L 408.90995 272.295352 
L 409.129503 465.620617 
L 409.349056 479.900012 
L 409.568609 341.36316 
L 410.007715 489.485581 
L 410.227269 485.456807 
L 410.446822 403.321849 
L 410.666375 488.158563 
L 410.885928 418.962706 
L 411.105481 483.293825 
L 411.325034 444.032346 
L 411.544587 477.198691 
L 411.764141 405.080123 
L 411.983694 447.639385 
L 412.203247 406.74095 
L 412.4228 319.531821 
L 412.861906 492.354142 
L 413.08146 503.569194 
L 413.301013 564.039483 
L 413.520566 419.935916 
L 413.740119 456.373665 
L 413.959672 468.393265 
L 414.179225 451.120168 
L 414.398778 368.414023 
L 414.618332 390.183734 
L 414.837885 442.215773 
L 415.057438 399.301542 
L 415.276991 493.03253 
L 415.496544 327.649781 
L 415.716097 515.068739 
L 415.935651 523.409562 
L 416.374757 359.224336 
L 416.59431 510.623956 
L 417.033416 466.541892 
L 417.252969 510.022465 
L 417.472523 432.594126 
L 417.692076 571.586568 
L 417.911629 454.798491 
L 418.131182 480.352252 
L 418.350735 364.178092 
L 418.570288 532.10462 
L 418.789842 508.914567 
L 419.009395 527.423402 
L 419.228948 412.772198 
L 419.448501 426.289054 
L 419.668054 449.564422 
L 420.10716 394.876702 
L 420.326714 536.086038 
L 420.546267 522.631389 
L 420.76582 473.415686 
L 420.985373 543.58922 
L 421.204926 534.29236 
L 421.424479 403.777241 
L 421.644033 443.60322 
L 421.863586 443.819591 
L 422.083139 525.617084 
L 422.302692 520.197379 
L 422.522245 478.448439 
L 422.741798 532.012744 
L 422.961351 427.494377 
L 423.180905 534.464768 
L 423.400458 473.763369 
L 423.620011 502.170528 
L 423.839564 455.963201 
L 424.059117 433.211461 
L 424.498224 473.527861 
L 424.717777 448.769734 
L 424.93733 528.86744 
L 425.156883 459.394483 
L 425.376436 471.841035 
L 425.595989 465.687545 
L 425.815542 428.970035 
L 426.035096 469.964288 
L 426.693755 402.586075 
L 427.132861 433.663799 
L 427.571968 509.906345 
L 427.791521 515.530654 
L 428.011074 470.716768 
L 428.230627 485.500903 
L 428.45018 546.328489 
L 428.669733 551.746809 
L 428.889287 438.161876 
L 429.10884 509.665104 
L 429.328393 512.076988 
L 429.547946 338.457038 
L 429.767499 463.616517 
L 429.987052 374.409614 
L 430.206606 487.813525 
L 430.426159 526.786511 
L 430.645712 419.301613 
L 430.865265 432.280818 
L 431.084818 402.246214 
L 431.304371 468.018024 
L 431.523924 460.889247 
L 431.743478 381.216829 
L 431.963031 420.109884 
L 432.182584 506.709256 
L 432.402137 501.131056 
L 432.62169 462.092828 
L 432.841243 483.608192 
L 433.060797 396.064764 
L 433.499903 520.443187 
L 434.158562 448.006823 
L 434.378115 496.55533 
L 434.597669 294.449575 
L 434.817222 441.366872 
L 435.036775 493.085237 
L 435.256328 426.296117 
L 435.475881 465.015596 
L 435.695434 394.977273 
L 435.914988 427.016972 
L 436.134541 492.055563 
L 436.354094 509.607976 
L 436.573647 506.268147 
L 436.7932 412.786269 
L 437.012753 489.82086 
L 437.232306 460.880748 
L 437.45186 404.689083 
L 437.671413 436.09107 
L 437.890966 382.747593 
L 438.110519 541.263598 
L 438.330072 337.002455 
L 438.549625 475.640447 
L 438.769178 433.941481 
L 438.988732 417.201148 
L 439.208285 523.166019 
L 439.427838 375.821573 
L 439.647391 399.520338 
L 439.866944 455.95262 
L 440.086497 420.580639 
L 440.306051 441.155678 
L 440.525604 428.845477 
L 440.745157 472.571296 
L 440.96471 458.781023 
L 441.184263 542.924535 
L 441.403816 480.280647 
L 441.623369 464.811049 
L 441.842923 469.83051 
L 442.282029 323.15552 
L 442.501582 454.010859 
L 442.721135 451.419292 
L 442.940688 332.967017 
L 443.160242 501.534051 
L 443.379795 501.649255 
L 443.599348 481.102372 
L 444.038454 357.371011 
L 444.258007 533.927303 
L 444.47756 503.21874 
L 444.697114 373.256044 
L 445.13622 541.646478 
L 445.355773 393.928423 
L 445.575326 332.969391 
L 445.794879 521.110651 
L 446.014433 529.796529 
L 446.233986 506.377245 
L 446.453539 373.595543 
L 446.673092 310.81739 
L 446.892645 512.362717 
L 447.112198 401.070562 
L 447.331751 379.875239 
L 447.551305 305.163659 
L 447.770858 363.824616 
L 447.990411 501.180979 
L 448.209964 445.303966 
L 448.429517 491.53279 
L 448.64907 505.277357 
L 448.868624 490.284928 
L 449.088177 432.704894 
L 449.30773 413.686641 
L 449.527283 437.94226 
L 449.746836 536.16476 
L 449.966389 456.794004 
L 450.185942 505.594973 
L 450.405496 479.568953 
L 450.625049 512.808027 
L 450.844602 479.347963 
L 451.064155 364.157577 
L 451.283708 328.040432 
L 451.503261 411.01875 
L 451.722815 389.218846 
L 451.942368 472.278787 
L 452.161921 478.78134 
L 452.381474 493.095139 
L 452.601027 438.59499 
L 452.82058 471.821601 
L 453.040133 424.075435 
L 453.259687 419.53945 
L 453.47924 492.508431 
L 453.698793 466.069879 
L 453.918346 424.967723 
L 454.137899 458.776303 
L 454.357452 449.756305 
L 454.577006 417.513629 
L 455.016112 522.684923 
L 455.235665 372.189375 
L 455.455218 430.320074 
L 455.674771 426.172236 
L 455.894324 287.743309 
L 456.113878 451.721963 
L 456.333431 396.992905 
L 456.552984 411.229539 
L 456.772537 495.439689 
L 457.211643 346.54586 
L 457.431197 446.110315 
L 457.65075 438.175603 
L 457.870303 411.63577 
L 458.089856 535.915811 
L 458.528962 476.793766 
L 458.748515 492.315824 
L 458.968069 322.574944 
L 459.187622 557.34554 
L 459.626728 502.220895 
L 459.846281 535.106408 
L 460.065834 462.839335 
L 460.285388 517.164113 
L 460.504941 398.004707 
L 460.724494 364.836973 
L 460.944047 382.268166 
L 461.1636 195.514458 
L 461.383153 489.411776 
L 461.602706 495.210657 
L 461.82226 415.61441 
L 462.041813 481.79369 
L 462.261366 433.145593 
L 462.480919 477.063096 
L 462.700472 467.46247 
L 462.920025 480.177431 
L 463.139579 330.216405 
L 463.359132 403.121958 
L 463.578685 530.555671 
L 463.798238 480.277021 
L 464.017791 490.047209 
L 464.237344 455.376307 
L 464.456897 549.757364 
L 464.676451 425.743047 
L 464.896004 445.862081 
L 465.115557 447.31667 
L 465.33511 439.119722 
L 465.554663 531.918178 
L 465.993769 403.642722 
L 466.213323 465.504573 
L 466.432876 470.007851 
L 466.652429 435.916524 
L 466.871982 454.718694 
L 467.091535 420.980688 
L 467.530642 474.221688 
L 467.969748 234.660031 
L 468.189301 425.495262 
L 468.408854 443.926455 
L 468.628407 481.331143 
L 468.84796 471.031857 
L 469.067514 483.151138 
L 469.287067 379.712444 
L 469.50662 529.714123 
L 469.726173 542.436977 
L 469.945726 333.479346 
L 470.165279 428.225106 
L 470.384833 283.244075 
L 470.823939 458.184701 
L 471.043492 387.662062 
L 471.263045 520.635257 
L 471.482598 420.75663 
L 471.702151 521.868941 
L 471.921705 476.573363 
L 472.141258 557.322173 
L 472.360811 383.532704 
L 473.01947 474.011025 
L 473.239024 440.027948 
L 473.458577 475.766555 
L 473.67813 461.896851 
L 473.897683 396.827584 
L 474.117236 479.979429 
L 474.336789 471.302825 
L 474.775896 412.133791 
L 474.995449 454.943271 
L 475.215002 532.907259 
L 475.434555 482.222322 
L 475.654108 371.715437 
L 476.312768 508.847109 
L 476.532321 327.731861 
L 476.751874 521.483899 
L 476.971427 540.983415 
L 477.19098 475.41729 
L 477.410533 499.758973 
L 477.84964 403.00467 
L 478.069193 501.390775 
L 478.288746 474.216738 
L 478.508299 469.827928 
L 478.727852 345.74599 
L 478.947406 557.638655 
L 479.166959 339.71858 
L 479.606065 515.072806 
L 479.825618 329.785424 
L 480.045171 490.566067 
L 480.264724 411.068951 
L 480.484278 372.585819 
L 480.703831 529.995642 
L 480.923384 423.445785 
L 481.142937 524.385048 
L 481.36249 474.169198 
L 481.582043 455.347341 
L 481.801597 310.039478 
L 482.240703 468.839099 
L 482.460256 443.187415 
L 482.679809 557.72958 
L 482.899362 444.143854 
L 483.118915 455.076363 
L 483.338469 451.850126 
L 483.558022 493.362309 
L 483.997128 477.417816 
L 484.216681 310.61187 
L 484.436234 516.414427 
L 484.655788 557.522681 
L 484.875341 425.975205 
L 485.094894 520.902833 
L 485.314447 539.876733 
L 485.534 508.44676 
L 485.753553 203.313027 
L 485.973106 386.573633 
L 486.19266 406.169169 
L 486.412213 523.983831 
L 486.631766 493.481043 
L 486.851319 316.38909 
L 487.070872 391.430582 
L 487.290425 406.445688 
L 487.509979 545.42418 
L 487.729532 396.390859 
L 487.949085 391.95516 
L 488.168638 537.150893 
L 488.388191 427.026056 
L 488.607744 374.110678 
L 488.827297 413.63363 
L 489.046851 551.685258 
L 489.266404 496.384472 
L 489.485957 495.247009 
L 489.70551 546.578166 
L 489.925063 407.734733 
L 490.803276 506.725035 
L 491.022829 431.341789 
L 491.242382 468.97712 
L 491.461935 413.281004 
L 491.681488 514.552781 
L 491.901042 545.125349 
L 492.120595 423.630816 
L 492.340148 381.224012 
L 492.559701 420.385613 
L 492.779254 516.399408 
L 492.998807 446.363285 
L 493.21836 488.007543 
L 493.437914 393.04396 
L 493.657467 423.861763 
L 493.87702 506.912072 
L 494.096573 461.27531 
L 494.316126 458.56381 
L 494.535679 378.229274 
L 494.755233 487.01154 
L 494.974786 471.614618 
L 495.194339 467.985095 
L 495.413892 469.055279 
L 495.633445 539.878351 
L 495.852998 497.189254 
L 496.072551 521.181254 
L 496.292105 423.953244 
L 496.511658 440.335254 
L 496.731211 423.280734 
L 496.950764 494.432891 
L 497.170317 445.012322 
L 497.38987 325.281601 
L 497.609424 499.021783 
L 497.828977 419.73319 
L 498.04853 522.89822 
L 498.268083 483.452989 
L 498.487636 581.38839 
L 498.707189 510.572717 
L 498.926742 481.15476 
L 499.146296 535.852785 
L 499.365849 537.283917 
L 499.585402 502.563159 
L 499.804955 505.796211 
L 500.024508 431.530803 
L 500.244061 493.043391 
L 500.463615 362.333502 
L 500.683168 397.761554 
L 500.902721 366.122344 
L 501.341827 494.267452 
L 501.780933 331.01011 
L 502.000487 555.978734 
L 502.439593 456.226214 
L 502.659146 481.422855 
L 503.098252 318.896748 
L 503.317806 464.399899 
L 503.537359 375.004571 
L 503.976465 519.615576 
L 504.196018 426.475415 
L 504.415571 485.676607 
L 504.635124 503.66371 
L 504.854678 461.542153 
L 505.074231 504.086999 
L 505.293784 476.786692 
L 505.513337 477.977591 
L 505.73289 468.853655 
L 505.952443 398.842257 
L 506.171997 423.019049 
L 506.611103 515.772928 
L 506.830656 438.853837 
L 507.050209 529.42768 
L 507.269762 410.458481 
L 507.489315 536.334396 
L 507.708869 561.086905 
L 507.928422 416.143869 
L 508.367528 498.810045 
L 508.587081 235.400027 
L 508.806634 484.838646 
L 509.026188 526.471456 
L 509.465294 376.804994 
L 509.684847 478.662732 
L 509.9044 501.205792 
L 510.343506 450.561007 
L 510.56306 427.10199 
L 510.782613 464.085593 
L 511.002166 475.208208 
L 511.221719 420.016806 
L 511.441272 499.865061 
L 511.660825 494.738252 
L 511.880379 407.149877 
L 512.099932 430.120966 
L 512.319485 501.143773 
L 512.758591 422.299111 
L 512.978144 461.786543 
L 513.417251 356.814698 
L 513.856357 484.154578 
L 514.07591 534.380267 
L 514.295463 454.176724 
L 514.515016 515.226356 
L 514.73457 418.108108 
L 515.173676 507.185434 
L 515.393229 478.892147 
L 515.612782 508.391589 
L 515.832335 475.571921 
L 516.271442 452.199423 
L 516.490995 492.086699 
L 516.710548 506.062934 
L 517.149654 428.275554 
L 517.369207 460.744055 
L 517.58876 387.125452 
L 518.027867 481.06675 
L 518.24742 484.85469 
L 518.466973 445.959238 
L 518.686526 471.139743 
L 518.906079 378.98218 
L 519.125633 352.603484 
L 519.345186 448.371641 
L 519.784292 410.426276 
L 520.003845 538.491554 
L 520.223398 526.308593 
L 520.442951 478.287904 
L 520.662505 245.360126 
L 521.101611 475.568075 
L 521.321164 524.353932 
L 521.540717 507.358718 
L 521.76027 376.025845 
L 521.979824 499.065426 
L 522.199377 404.574955 
L 522.41893 511.32332 
L 522.638483 384.01943 
L 522.858036 403.756048 
L 523.077589 503.525154 
L 523.297142 391.36719 
L 523.516696 488.318834 
L 523.736249 307.184642 
L 523.955802 410.456412 
L 524.175355 453.951456 
L 524.394908 317.035564 
L 524.614461 448.37695 
L 524.834015 485.804743 
L 525.053568 400.197141 
L 525.273121 442.415156 
L 525.492674 432.752052 
L 525.712227 493.955834 
L 525.93178 469.170074 
L 526.151333 393.360204 
L 526.370887 480.651824 
L 526.59044 472.443397 
L 526.809993 427.194014 
L 527.029546 481.722303 
L 527.468652 421.533522 
L 527.688206 416.363364 
L 527.907759 473.774616 
L 528.127312 482.112636 
L 528.346865 454.36017 
L 528.566418 476.775904 
L 529.005524 450.879829 
L 529.225078 403.803158 
L 529.444631 466.558453 
L 529.664184 495.300616 
L 529.883737 433.766282 
L 530.10329 468.250624 
L 530.322843 469.136409 
L 530.542397 442.69601 
L 530.76195 514.048779 
L 530.981503 319.347878 
L 531.201056 446.002797 
L 531.420609 472.428714 
L 531.640162 340.905628 
L 531.859715 510.582065 
L 532.079269 512.240045 
L 532.298822 440.67437 
L 532.518375 475.378508 
L 532.737928 366.219285 
L 533.177034 413.086205 
L 533.616141 503.205092 
L 533.835694 428.757266 
L 534.055247 554.72641 
L 534.2748 483.701953 
L 534.494353 459.243438 
L 534.713906 502.277041 
L 534.93346 418.91329 
L 535.153013 461.943121 
L 535.372566 437.862921 
L 535.592119 521.965966 
L 535.811672 402.135669 
L 536.031225 509.742666 
L 536.250779 426.105842 
L 536.470332 462.414808 
L 536.689885 382.498503 
L 536.909438 479.548427 
L 537.128991 511.756386 
L 537.348544 453.094201 
L 537.568097 510.014675 
L 537.787651 375.490605 
L 538.007204 488.73392 
L 538.226757 436.158362 
L 538.44631 497.634386 
L 538.665863 521.191835 
L 538.885416 437.954501 
L 539.10497 545.064887 
L 539.324523 443.53659 
L 539.544076 457.067057 
L 539.763629 496.769599 
L 539.983182 466.93379 
L 540.422288 495.810426 
L 540.641842 545.047105 
L 540.861395 503.052921 
L 541.080948 401.45974 
L 541.300501 544.786354 
L 541.520054 435.125994 
L 541.739607 524.357427 
L 541.95916 379.375148 
L 542.178714 516.747711 
L 542.398267 383.360072 
L 542.61782 391.079098 
L 542.837373 471.354264 
L 543.056926 413.659289 
L 543.276479 271.936838 
L 543.496033 425.774623 
L 543.715586 478.331061 
L 543.935139 386.819092 
L 544.154692 499.116068 
L 544.374245 380.133097 
L 544.813351 505.085551 
L 545.032905 354.561726 
L 545.252458 460.930008 
L 545.472011 305.984927 
L 545.691564 440.626853 
L 545.911117 440.324859 
L 546.13067 512.936987 
L 546.350224 497.429713 
L 546.569777 429.145668 
L 546.78933 482.371022 
L 547.008883 429.17295 
L 547.228436 461.654733 
L 547.447989 399.935065 
L 547.667542 534.005709 
L 547.887096 432.487126 
L 548.326202 468.161558 
L 548.545755 429.511843 
L 548.765308 460.512567 
L 549.204415 335.203373 
L 549.643521 525.855085 
L 549.863074 410.416406 
L 550.082627 383.936494 
L 550.30218 438.109522 
L 550.521733 531.269642 
L 550.741287 345.317222 
L 550.96084 477.024626 
L 551.180393 491.436976 
L 551.399946 397.5018 
L 551.619499 476.503221 
L 551.839052 498.272413 
L 552.058606 469.464872 
L 552.278159 313.900784 
L 552.497712 514.271996 
L 552.717265 362.969434 
L 552.936818 473.166934 
L 553.156371 517.150659 
L 553.375924 427.614306 
L 553.595478 495.100756 
L 553.815031 462.291557 
L 554.034584 283.471129 
L 554.254137 327.787781 
L 554.47369 401.387825 
L 554.693243 311.75878 
L 554.912797 440.510469 
L 555.13235 335.353529 
L 555.351903 352.963819 
L 555.571456 440.59292 
L 555.791009 338.136673 
L 556.010562 408.093814 
L 556.230115 524.176759 
L 556.669222 434.247374 
L 556.888775 494.608103 
L 557.108328 522.5043 
L 557.327881 395.748921 
L 557.547434 508.010208 
L 557.766988 485.56858 
L 558.206094 388.740615 
L 558.425647 384.00066 
L 558.6452 465.792773 
L 558.864753 473.096066 
L 559.084306 440.123843 
L 559.30386 460.765052 
L 559.523413 434.956527 
L 559.742966 544.942541 
L 559.742966 544.942541 
" style="fill:none;stroke:#96c69a;stroke-linecap:round;stroke-width:3;"/>
   </g>
   <g id="line2d_2"/>
   <g id="patch_3">
    <path d="M 98.911875 603.86 
L 98.911875 109.484571 
" style="fill:none;stroke:#262626;stroke-linecap:square;stroke-linejoin:miter;stroke-width:2.5;"/>
   </g>
   <g id="patch_4">
    <path d="M 98.911875 603.86 
L 581.687304 603.86 
" style="fill:none;stroke:#262626;stroke-linecap:square;stroke-linejoin:miter;stroke-width:2.5;"/>
   </g>
   <g id="legend_1">
    <g id="patch_5">
     <path d="M 521.813866 598.86 
L 574.687304 598.86 
Q 576.687304 598.86 576.687304 596.86 
L 576.687304 554.954375 
Q 576.687304 552.954375 574.687304 552.954375 
L 521.813866 552.954375 
Q 519.813866 552.954375 519.813866 554.954375 
L 519.813866 596.86 
Q 519.813866 598.86 521.813866 598.86 
z
" style="fill:#ffffff;opacity:0.8;stroke:#cccccc;stroke-linejoin:miter;stroke-width:2;"/>
    </g>
    <g id="text_17">
     <!-- $n_\tau$ -->
     <g style="fill:#262626;" transform="translate(535.170585 575.190625)scale(0.24 -0.24)">
      <defs>
       <path d="M 3566 2113 
L 3156 0 
L 2578 0 
L 2988 2091 
Q 3016 2238 3031 2350 
Q 3047 2463 3047 2528 
Q 3047 2791 2881 2937 
Q 2716 3084 2419 3084 
Q 1956 3084 1622 2776 
Q 1288 2469 1184 1941 
L 800 0 
L 225 0 
L 903 3500 
L 1478 3500 
L 1363 2950 
Q 1603 3253 1940 3418 
Q 2278 3584 2650 3584 
Q 3113 3584 3367 3334 
Q 3622 3084 3622 2631 
Q 3622 2519 3608 2391 
Q 3594 2263 3566 2113 
z
" id="DejaVuSans-Oblique-6e" transform="scale(0.015625)"/>
       <path d="M 2103 638 
Q 2188 488 2525 488 
L 2800 488 
L 2706 0 
L 2363 0 
Q 1800 0 1600 300 
Q 1403 606 1534 1269 
L 1856 2925 
L 541 2925 
L 653 3500 
L 3881 3500 
L 3769 2925 
L 2444 2925 
L 2113 1234 
Q 2025 781 2103 638 
z
" id="DejaVuSans-Oblique-3c4" transform="scale(0.015625)"/>
      </defs>
      <use xlink:href="#DejaVuSans-Oblique-6e"/>
      <use transform="translate(63.378906 -16.40625)scale(0.7)" xlink:href="#DejaVuSans-Oblique-3c4"/>
     </g>
    </g>
    <g id="line2d_3">
     <path d="M 523.813866 589.280313 
L 543.813866 589.280313 
" style="fill:none;stroke:#96c69a;stroke-linecap:round;stroke-width:3;"/>
    </g>
    <g id="line2d_4"/>
    <g id="text_18">
     <!-- 160 -->
     <g style="fill:#262626;" transform="translate(551.813866 592.780313)scale(0.1 -0.1)">
      <defs>
       <path d="M 750 831 
L 1813 831 
L 1813 3847 
L 722 3622 
L 722 4441 
L 1806 4666 
L 2950 4666 
L 2950 831 
L 4013 831 
L 4013 0 
L 750 0 
L 750 831 
z
" id="DejaVuSans-Bold-31" transform="scale(0.015625)"/>
       <path d="M 2316 2303 
Q 2000 2303 1842 2098 
Q 1684 1894 1684 1484 
Q 1684 1075 1842 870 
Q 2000 666 2316 666 
Q 2634 666 2792 870 
Q 2950 1075 2950 1484 
Q 2950 1894 2792 2098 
Q 2634 2303 2316 2303 
z
M 3803 4544 
L 3803 3681 
Q 3506 3822 3243 3889 
Q 2981 3956 2731 3956 
Q 2194 3956 1894 3657 
Q 1594 3359 1544 2772 
Q 1750 2925 1990 3001 
Q 2231 3078 2516 3078 
Q 3231 3078 3670 2659 
Q 4109 2241 4109 1563 
Q 4109 813 3618 361 
Q 3128 -91 2303 -91 
Q 1394 -91 895 523 
Q 397 1138 397 2266 
Q 397 3422 980 4083 
Q 1563 4744 2578 4744 
Q 2900 4744 3203 4694 
Q 3506 4644 3803 4544 
z
" id="DejaVuSans-Bold-36" transform="scale(0.015625)"/>
       <path d="M 2944 2338 
Q 2944 3213 2780 3570 
Q 2616 3928 2228 3928 
Q 1841 3928 1675 3570 
Q 1509 3213 1509 2338 
Q 1509 1453 1675 1090 
Q 1841 728 2228 728 
Q 2613 728 2778 1090 
Q 2944 1453 2944 2338 
z
M 4147 2328 
Q 4147 1169 3647 539 
Q 3147 -91 2228 -91 
Q 1306 -91 806 539 
Q 306 1169 306 2328 
Q 306 3491 806 4120 
Q 1306 4750 2228 4750 
Q 3147 4750 3647 4120 
Q 4147 3491 4147 2328 
z
" id="DejaVuSans-Bold-30" transform="scale(0.015625)"/>
      </defs>
      <use xlink:href="#DejaVuSans-Bold-31"/>
      <use x="69.580078" xlink:href="#DejaVuSans-Bold-36"/>
      <use x="139.160156" xlink:href="#DejaVuSans-Bold-30"/>
     </g>
    </g>
   </g>
  </g>
  <g id="axes_2">
   <g id="patch_6">
    <path d="M 98.911875 92.437143 
L 581.687304 92.437143 
L 581.687304 7.2 
L 98.911875 7.2 
z
" style="fill:none;"/>
   </g>
   <g id="matplotlib.axis_3">
    <g id="xtick_7"/>
    <g id="xtick_8"/>
    <g id="xtick_9"/>
    <g id="xtick_10"/>
    <g id="xtick_11"/>
    <g id="xtick_12"/>
   </g>
   <g id="matplotlib.axis_4">
    <g id="ytick_9">
     <g id="text_19">
      <!-- 0 -->
      <g style="fill:#262626;" transform="translate(69.414375 100.795424)scale(0.22 -0.22)">
       <use xlink:href="#DejaVuSans-30"/>
      </g>
     </g>
    </g>
    <g id="ytick_10">
     <g id="text_20">
      <!-- 100 -->
      <g style="fill:#262626;" transform="translate(41.419375 48.082287)scale(0.22 -0.22)">
       <use xlink:href="#DejaVuSans-31"/>
       <use x="63.623047" xlink:href="#DejaVuSans-30"/>
       <use x="127.246094" xlink:href="#DejaVuSans-30"/>
      </g>
     </g>
    </g>
   </g>
   <g id="patch_7">
    <path clip-path="url(#pa25651a216)" d="M 120.856213 92.437143 
L 154.616732 92.437143 
L 154.616732 11.258912 
L 120.856213 11.258912 
z
" style="fill:#96c69a;fill-opacity:0.5;stroke:#ffffff;stroke-linejoin:miter;stroke-width:2;"/>
   </g>
   <g id="patch_8">
    <path clip-path="url(#pa25651a216)" d="M 154.616732 92.437143 
L 188.377252 92.437143 
L 188.377252 11.258912 
L 154.616732 11.258912 
z
" style="fill:#96c69a;fill-opacity:0.5;stroke:#ffffff;stroke-linejoin:miter;stroke-width:2;"/>
   </g>
   <g id="patch_9">
    <path clip-path="url(#pa25651a216)" d="M 188.377252 92.437143 
L 222.137771 92.437143 
L 222.137771 11.258912 
L 188.377252 11.258912 
z
" style="fill:#96c69a;fill-opacity:0.5;stroke:#ffffff;stroke-linejoin:miter;stroke-width:2;"/>
   </g>
   <g id="patch_10">
    <path clip-path="url(#pa25651a216)" d="M 222.137771 92.437143 
L 255.898291 92.437143 
L 255.898291 11.258912 
L 222.137771 11.258912 
z
" style="fill:#96c69a;fill-opacity:0.5;stroke:#ffffff;stroke-linejoin:miter;stroke-width:2;"/>
   </g>
   <g id="patch_11">
    <path clip-path="url(#pa25651a216)" d="M 255.898291 92.437143 
L 289.65881 92.437143 
L 289.65881 11.786043 
L 255.898291 11.786043 
z
" style="fill:#96c69a;fill-opacity:0.5;stroke:#ffffff;stroke-linejoin:miter;stroke-width:2;"/>
   </g>
   <g id="patch_12">
    <path clip-path="url(#pa25651a216)" d="M 289.65881 92.437143 
L 323.41933 92.437143 
L 323.41933 11.258912 
L 289.65881 11.258912 
z
" style="fill:#96c69a;fill-opacity:0.5;stroke:#ffffff;stroke-linejoin:miter;stroke-width:2;"/>
   </g>
   <g id="patch_13">
    <path clip-path="url(#pa25651a216)" d="M 323.41933 92.437143 
L 357.179849 92.437143 
L 357.179849 11.258912 
L 323.41933 11.258912 
z
" style="fill:#96c69a;fill-opacity:0.5;stroke:#ffffff;stroke-linejoin:miter;stroke-width:2;"/>
   </g>
   <g id="patch_14">
    <path clip-path="url(#pa25651a216)" d="M 357.179849 92.437143 
L 390.940369 92.437143 
L 390.940369 11.258912 
L 357.179849 11.258912 
z
" style="fill:#96c69a;fill-opacity:0.5;stroke:#ffffff;stroke-linejoin:miter;stroke-width:2;"/>
   </g>
   <g id="patch_15">
    <path clip-path="url(#pa25651a216)" d="M 390.940369 92.437143 
L 424.700888 92.437143 
L 424.700888 11.786043 
L 390.940369 11.786043 
z
" style="fill:#96c69a;fill-opacity:0.5;stroke:#ffffff;stroke-linejoin:miter;stroke-width:2;"/>
   </g>
   <g id="patch_16">
    <path clip-path="url(#pa25651a216)" d="M 424.700888 92.437143 
L 458.461407 92.437143 
L 458.461407 11.258912 
L 424.700888 11.258912 
z
" style="fill:#96c69a;fill-opacity:0.5;stroke:#ffffff;stroke-linejoin:miter;stroke-width:2;"/>
   </g>
   <g id="patch_17">
    <path clip-path="url(#pa25651a216)" d="M 458.461407 92.437143 
L 492.221927 92.437143 
L 492.221927 11.258912 
L 458.461407 11.258912 
z
" style="fill:#96c69a;fill-opacity:0.5;stroke:#ffffff;stroke-linejoin:miter;stroke-width:2;"/>
   </g>
   <g id="patch_18">
    <path clip-path="url(#pa25651a216)" d="M 492.221927 92.437143 
L 525.982446 92.437143 
L 525.982446 11.258912 
L 492.221927 11.258912 
z
" style="fill:#96c69a;fill-opacity:0.5;stroke:#ffffff;stroke-linejoin:miter;stroke-width:2;"/>
   </g>
   <g id="patch_19">
    <path clip-path="url(#pa25651a216)" d="M 525.982446 92.437143 
L 559.742966 92.437143 
L 559.742966 11.258912 
L 525.982446 11.258912 
z
" style="fill:#96c69a;fill-opacity:0.5;stroke:#ffffff;stroke-linejoin:miter;stroke-width:2;"/>
   </g>
   <g id="patch_20">
    <path d="M 98.911875 92.437143 
L 98.911875 7.2 
" style="fill:none;stroke:#262626;stroke-linecap:square;stroke-linejoin:miter;stroke-width:2.5;"/>
   </g>
   <g id="patch_21">
    <path d="M 98.911875 92.437143 
L 581.687304 92.437143 
" style="fill:none;stroke:#262626;stroke-linecap:square;stroke-linejoin:miter;stroke-width:2.5;"/>
   </g>
  </g>
  <g id="axes_3">
   <g id="patch_22">
    <path d="M 598.334732 603.86 
L 681.571875 603.86 
L 681.571875 109.484571 
L 598.334732 109.484571 
z
" style="fill:none;"/>
   </g>
   <g id="matplotlib.axis_5">
    <g id="xtick_13">
     <g id="text_21">
      <!-- 0 -->
      <g style="fill:#262626;" transform="translate(591.335982 636.076563)scale(0.22 -0.22)">
       <use xlink:href="#DejaVuSans-30"/>
      </g>
     </g>
    </g>
    <g id="xtick_14">
     <g id="text_22">
      <!-- 100 -->
      <g style="fill:#262626;" transform="translate(620.895333 636.076563)scale(0.22 -0.22)">
       <use xlink:href="#DejaVuSans-31"/>
       <use x="63.623047" xlink:href="#DejaVuSans-30"/>
       <use x="127.246094" xlink:href="#DejaVuSans-30"/>
      </g>
     </g>
    </g>
   </g>
   <g id="matplotlib.axis_6">
    <g id="ytick_11"/>
    <g id="ytick_12"/>
    <g id="ytick_13"/>
    <g id="ytick_14"/>
    <g id="ytick_15"/>
    <g id="ytick_16"/>
    <g id="ytick_17"/>
    <g id="ytick_18"/>
   </g>
   <g id="patch_23">
    <path clip-path="url(#p81a052a90c)" d="M 598.334732 581.38839 
L 600.948143 581.38839 
L 600.948143 568.547469 
L 598.334732 568.547469 
z
" style="fill:#96c69a;fill-opacity:0.5;stroke:#ffffff;stroke-linejoin:miter;stroke-width:1.284092;"/>
   </g>
   <g id="patch_24">
    <path clip-path="url(#p81a052a90c)" d="M 598.334732 568.547469 
L 606.610534 568.547469 
L 606.610534 555.706549 
L 598.334732 555.706549 
z
" style="fill:#96c69a;fill-opacity:0.5;stroke:#ffffff;stroke-linejoin:miter;stroke-width:1.284092;"/>
   </g>
   <g id="patch_25">
    <path clip-path="url(#p81a052a90c)" d="M 598.334732 555.706549 
L 610.966219 555.706549 
L 610.966219 542.865629 
L 598.334732 542.865629 
z
" style="fill:#96c69a;fill-opacity:0.5;stroke:#ffffff;stroke-linejoin:miter;stroke-width:1.284092;"/>
   </g>
   <g id="patch_26">
    <path clip-path="url(#p81a052a90c)" d="M 598.334732 542.865629 
L 631.002371 542.865629 
L 631.002371 530.024709 
L 598.334732 530.024709 
z
" style="fill:#96c69a;fill-opacity:0.5;stroke:#ffffff;stroke-linejoin:miter;stroke-width:1.284092;"/>
   </g>
   <g id="patch_27">
    <path clip-path="url(#p81a052a90c)" d="M 598.334732 530.024709 
L 637.971467 530.024709 
L 637.971467 517.183788 
L 598.334732 517.183788 
z
" style="fill:#96c69a;fill-opacity:0.5;stroke:#ffffff;stroke-linejoin:miter;stroke-width:1.284092;"/>
   </g>
   <g id="patch_28">
    <path clip-path="url(#p81a052a90c)" d="M 598.334732 517.183788 
L 658.443187 517.183788 
L 658.443187 504.342868 
L 598.334732 504.342868 
z
" style="fill:#96c69a;fill-opacity:0.5;stroke:#ffffff;stroke-linejoin:miter;stroke-width:1.284092;"/>
   </g>
   <g id="patch_29">
    <path clip-path="url(#p81a052a90c)" d="M 598.334732 504.342868 
L 658.878755 504.342868 
L 658.878755 491.501948 
L 598.334732 491.501948 
z
" style="fill:#96c69a;fill-opacity:0.5;stroke:#ffffff;stroke-linejoin:miter;stroke-width:1.284092;"/>
   </g>
   <g id="patch_30">
    <path clip-path="url(#p81a052a90c)" d="M 598.334732 491.501948 
L 669.767968 491.501948 
L 669.767968 478.661028 
L 598.334732 478.661028 
z
" style="fill:#96c69a;fill-opacity:0.5;stroke:#ffffff;stroke-linejoin:miter;stroke-width:1.284092;"/>
   </g>
   <g id="patch_31">
    <path clip-path="url(#p81a052a90c)" d="M 598.334732 478.661028 
L 677.608202 478.661028 
L 677.608202 465.820108 
L 598.334732 465.820108 
z
" style="fill:#96c69a;fill-opacity:0.5;stroke:#ffffff;stroke-linejoin:miter;stroke-width:1.284092;"/>
   </g>
   <g id="patch_32">
    <path clip-path="url(#p81a052a90c)" d="M 598.334732 465.820108 
L 673.688085 465.820108 
L 673.688085 452.979187 
L 598.334732 452.979187 
z
" style="fill:#96c69a;fill-opacity:0.5;stroke:#ffffff;stroke-linejoin:miter;stroke-width:1.284092;"/>
   </g>
   <g id="patch_33">
    <path clip-path="url(#p81a052a90c)" d="M 598.334732 452.979187 
L 667.590126 452.979187 
L 667.590126 440.138267 
L 598.334732 440.138267 
z
" style="fill:#96c69a;fill-opacity:0.5;stroke:#ffffff;stroke-linejoin:miter;stroke-width:1.284092;"/>
   </g>
   <g id="patch_34">
    <path clip-path="url(#p81a052a90c)" d="M 598.334732 440.138267 
L 661.056598 440.138267 
L 661.056598 427.297347 
L 598.334732 427.297347 
z
" style="fill:#96c69a;fill-opacity:0.5;stroke:#ffffff;stroke-linejoin:miter;stroke-width:1.284092;"/>
   </g>
   <g id="patch_35">
    <path clip-path="url(#p81a052a90c)" d="M 598.334732 427.297347 
L 660.185461 427.297347 
L 660.185461 414.456427 
L 598.334732 414.456427 
z
" style="fill:#96c69a;fill-opacity:0.5;stroke:#ffffff;stroke-linejoin:miter;stroke-width:1.284092;"/>
   </g>
   <g id="patch_36">
    <path clip-path="url(#p81a052a90c)" d="M 598.334732 414.456427 
L 646.247269 414.456427 
L 646.247269 401.615506 
L 598.334732 401.615506 
z
" style="fill:#96c69a;fill-opacity:0.5;stroke:#ffffff;stroke-linejoin:miter;stroke-width:1.284092;"/>
   </g>
   <g id="patch_37">
    <path clip-path="url(#p81a052a90c)" d="M 598.334732 401.615506 
L 635.358056 401.615506 
L 635.358056 388.774586 
L 598.334732 388.774586 
z
" style="fill:#96c69a;fill-opacity:0.5;stroke:#ffffff;stroke-linejoin:miter;stroke-width:1.284092;"/>
   </g>
   <g id="patch_38">
    <path clip-path="url(#p81a052a90c)" d="M 598.334732 388.774586 
L 626.211117 388.774586 
L 626.211117 375.933666 
L 598.334732 375.933666 
z
" style="fill:#96c69a;fill-opacity:0.5;stroke:#ffffff;stroke-linejoin:miter;stroke-width:1.284092;"/>
   </g>
   <g id="patch_39">
    <path clip-path="url(#p81a052a90c)" d="M 598.334732 375.933666 
L 627.953391 375.933666 
L 627.953391 363.092746 
L 598.334732 363.092746 
z
" style="fill:#96c69a;fill-opacity:0.5;stroke:#ffffff;stroke-linejoin:miter;stroke-width:1.284092;"/>
   </g>
   <g id="patch_40">
    <path clip-path="url(#p81a052a90c)" d="M 598.334732 363.092746 
L 616.62861 363.092746 
L 616.62861 350.251826 
L 598.334732 350.251826 
z
" style="fill:#96c69a;fill-opacity:0.5;stroke:#ffffff;stroke-linejoin:miter;stroke-width:1.284092;"/>
   </g>
   <g id="patch_41">
    <path clip-path="url(#p81a052a90c)" d="M 598.334732 350.251826 
L 612.272925 350.251826 
L 612.272925 337.410905 
L 598.334732 337.410905 
z
" style="fill:#96c69a;fill-opacity:0.5;stroke:#ffffff;stroke-linejoin:miter;stroke-width:1.284092;"/>
   </g>
   <g id="patch_42">
    <path clip-path="url(#p81a052a90c)" d="M 598.334732 337.410905 
L 613.57963 337.410905 
L 613.57963 324.569985 
L 598.334732 324.569985 
z
" style="fill:#96c69a;fill-opacity:0.5;stroke:#ffffff;stroke-linejoin:miter;stroke-width:1.284092;"/>
   </g>
   <g id="patch_43">
    <path clip-path="url(#p81a052a90c)" d="M 598.334732 324.569985 
L 610.966219 324.569985 
L 610.966219 311.729065 
L 598.334732 311.729065 
z
" style="fill:#96c69a;fill-opacity:0.5;stroke:#ffffff;stroke-linejoin:miter;stroke-width:1.284092;"/>
   </g>
   <g id="patch_44">
    <path clip-path="url(#p81a052a90c)" d="M 598.334732 311.729065 
L 608.788376 311.729065 
L 608.788376 298.888145 
L 598.334732 298.888145 
z
" style="fill:#96c69a;fill-opacity:0.5;stroke:#ffffff;stroke-linejoin:miter;stroke-width:1.284092;"/>
   </g>
   <g id="patch_45">
    <path clip-path="url(#p81a052a90c)" d="M 598.334732 298.888145 
L 604.432691 298.888145 
L 604.432691 286.047224 
L 598.334732 286.047224 
z
" style="fill:#96c69a;fill-opacity:0.5;stroke:#ffffff;stroke-linejoin:miter;stroke-width:1.284092;"/>
   </g>
   <g id="patch_46">
    <path clip-path="url(#p81a052a90c)" d="M 598.334732 286.047224 
L 601.81928 286.047224 
L 601.81928 273.206304 
L 598.334732 273.206304 
z
" style="fill:#96c69a;fill-opacity:0.5;stroke:#ffffff;stroke-linejoin:miter;stroke-width:1.284092;"/>
   </g>
   <g id="patch_47">
    <path clip-path="url(#p81a052a90c)" d="M 598.334732 273.206304 
L 601.383712 273.206304 
L 601.383712 260.365384 
L 598.334732 260.365384 
z
" style="fill:#96c69a;fill-opacity:0.5;stroke:#ffffff;stroke-linejoin:miter;stroke-width:1.284092;"/>
   </g>
   <g id="patch_48">
    <path clip-path="url(#p81a052a90c)" d="M 598.334732 260.365384 
L 599.641438 260.365384 
L 599.641438 247.524464 
L 598.334732 247.524464 
z
" style="fill:#96c69a;fill-opacity:0.5;stroke:#ffffff;stroke-linejoin:miter;stroke-width:1.284092;"/>
   </g>
   <g id="patch_49">
    <path clip-path="url(#p81a052a90c)" d="M 598.334732 247.524464 
L 600.077006 247.524464 
L 600.077006 234.683544 
L 598.334732 234.683544 
z
" style="fill:#96c69a;fill-opacity:0.5;stroke:#ffffff;stroke-linejoin:miter;stroke-width:1.284092;"/>
   </g>
   <g id="patch_50">
    <path clip-path="url(#p81a052a90c)" d="M 598.334732 234.683544 
L 600.077006 234.683544 
L 600.077006 221.842623 
L 598.334732 221.842623 
z
" style="fill:#96c69a;fill-opacity:0.5;stroke:#ffffff;stroke-linejoin:miter;stroke-width:1.284092;"/>
   </g>
   <g id="patch_51">
    <path clip-path="url(#p81a052a90c)" d="M 598.334732 221.842623 
L 598.770301 221.842623 
L 598.770301 209.001703 
L 598.334732 209.001703 
z
" style="fill:#96c69a;fill-opacity:0.5;stroke:#ffffff;stroke-linejoin:miter;stroke-width:1.284092;"/>
   </g>
   <g id="patch_52">
    <path clip-path="url(#p81a052a90c)" d="M 598.334732 209.001703 
L 599.205869 209.001703 
L 599.205869 196.160783 
L 598.334732 196.160783 
z
" style="fill:#96c69a;fill-opacity:0.5;stroke:#ffffff;stroke-linejoin:miter;stroke-width:1.284092;"/>
   </g>
   <g id="patch_53">
    <path clip-path="url(#p81a052a90c)" d="M 598.334732 196.160783 
L 600.077006 196.160783 
L 600.077006 183.319863 
L 598.334732 183.319863 
z
" style="fill:#96c69a;fill-opacity:0.5;stroke:#ffffff;stroke-linejoin:miter;stroke-width:1.284092;"/>
   </g>
   <g id="patch_54">
    <path clip-path="url(#p81a052a90c)" d="M 598.334732 183.319863 
L 598.334732 183.319863 
L 598.334732 170.478942 
L 598.334732 170.478942 
z
" style="fill:#96c69a;fill-opacity:0.5;stroke:#ffffff;stroke-linejoin:miter;stroke-width:1.284092;"/>
   </g>
   <g id="patch_55">
    <path clip-path="url(#p81a052a90c)" d="M 598.334732 170.478942 
L 599.205869 170.478942 
L 599.205869 157.638022 
L 598.334732 157.638022 
z
" style="fill:#96c69a;fill-opacity:0.5;stroke:#ffffff;stroke-linejoin:miter;stroke-width:1.284092;"/>
   </g>
   <g id="patch_56">
    <path clip-path="url(#p81a052a90c)" d="M 598.334732 157.638022 
L 598.334732 157.638022 
L 598.334732 144.797102 
L 598.334732 144.797102 
z
" style="fill:#96c69a;fill-opacity:0.5;stroke:#ffffff;stroke-linejoin:miter;stroke-width:1.284092;"/>
   </g>
   <g id="patch_57">
    <path clip-path="url(#p81a052a90c)" d="M 598.334732 144.797102 
L 598.770301 144.797102 
L 598.770301 131.956182 
L 598.334732 131.956182 
z
" style="fill:#96c69a;fill-opacity:0.5;stroke:#ffffff;stroke-linejoin:miter;stroke-width:1.284092;"/>
   </g>
   <g id="patch_58">
    <path d="M 598.334732 603.86 
L 598.334732 109.484571 
" style="fill:none;stroke:#262626;stroke-linecap:square;stroke-linejoin:miter;stroke-width:2.5;"/>
   </g>
   <g id="patch_59">
    <path d="M 598.334732 603.86 
L 681.571875 603.86 
" style="fill:none;stroke:#262626;stroke-linecap:square;stroke-linejoin:miter;stroke-width:2.5;"/>
   </g>
  </g>
 </g>
 <defs>
  <clipPath id="pc6c5429fa5">
   <rect height="494.375429" width="482.775429" x="98.911875" y="109.484571"/>
  </clipPath>
  <clipPath id="pa25651a216">
   <rect height="85.237143" width="482.775429" x="98.911875" y="7.2"/>
  </clipPath>
  <clipPath id="p81a052a90c">
   <rect height="494.375429" width="83.237143" x="598.334732" y="109.484571"/>
  </clipPath>
 </defs>
</svg>
