<?xml version="1.0" encoding="utf-8" standalone="no"?>
<!DOCTYPE svg PUBLIC "-//W3C//DTD SVG 1.1//EN"
  "http://www.w3.org/Graphics/SVG/1.1/DTD/svg11.dtd">
<svg height="675.079375pt" version="1.1" viewBox="0 0 709.107513 675.079375" width="709.107513pt" xmlns="http://www.w3.org/2000/svg" xmlns:xlink="http://www.w3.org/1999/xlink">
 <metadata>
  <rdf:RDF xmlns:cc="http://creativecommons.org/ns#" xmlns:dc="http://purl.org/dc/elements/1.1/" xmlns:rdf="http://www.w3.org/1999/02/22-rdf-syntax-ns#">
   <cc:Work>
    <dc:type rdf:resource="http://purl.org/dc/dcmitype/StillImage"/>
    <dc:date>2021-07-16T21:43:58.464077</dc:date>
    <dc:format>image/svg+xml</dc:format>
    <dc:creator>
     <cc:Agent>
      <dc:title>Matplotlib v3.4.2, https://matplotlib.org/</dc:title>
     </cc:Agent>
    </dc:creator>
   </cc:Work>
  </rdf:RDF>
 </metadata>
 <defs>
  <style type="text/css">*{stroke-linecap:butt;stroke-linejoin:round;}</style>
 </defs>
 <g id="figure_1">
  <g id="patch_1">
   <path d="M 0 675.079375 
L 709.107513 675.079375 
L 709.107513 0 
L 0 0 
z
" style="fill:#ffffff;"/>
  </g>
  <g id="axes_1">
   <g id="patch_2">
    <path d="M 98.911875 603.86 
L 581.687304 603.86 
L 581.687304 109.484571 
L 98.911875 109.484571 
z
" style="fill:none;"/>
   </g>
   <g id="matplotlib.axis_1">
    <g id="xtick_1">
     <g id="text_1">
      <!-- 0 -->
      <g style="fill:#262626;" transform="translate(113.63791 636.076563)scale(0.22 -0.22)">
       <defs>
        <path d="M 2034 4250 
Q 1547 4250 1301 3770 
Q 1056 3291 1056 2328 
Q 1056 1369 1301 889 
Q 1547 409 2034 409 
Q 2525 409 2770 889 
Q 3016 1369 3016 2328 
Q 3016 3291 2770 3770 
Q 2525 4250 2034 4250 
z
M 2034 4750 
Q 2819 4750 3233 4129 
Q 3647 3509 3647 2328 
Q 3647 1150 3233 529 
Q 2819 -91 2034 -91 
Q 1250 -91 836 529 
Q 422 1150 422 2328 
Q 422 3509 836 4129 
Q 1250 4750 2034 4750 
z
" id="DejaVuSans-30" transform="scale(0.015625)"/>
       </defs>
       <use xlink:href="#DejaVuSans-30"/>
      </g>
     </g>
    </g>
    <g id="xtick_2">
     <g id="text_2">
      <!-- 20000 -->
      <g style="fill:#262626;" transform="translate(173.464171 636.076563)scale(0.22 -0.22)">
       <defs>
        <path d="M 1228 531 
L 3431 531 
L 3431 0 
L 469 0 
L 469 531 
Q 828 903 1448 1529 
Q 2069 2156 2228 2338 
Q 2531 2678 2651 2914 
Q 2772 3150 2772 3378 
Q 2772 3750 2511 3984 
Q 2250 4219 1831 4219 
Q 1534 4219 1204 4116 
Q 875 4013 500 3803 
L 500 4441 
Q 881 4594 1212 4672 
Q 1544 4750 1819 4750 
Q 2544 4750 2975 4387 
Q 3406 4025 3406 3419 
Q 3406 3131 3298 2873 
Q 3191 2616 2906 2266 
Q 2828 2175 2409 1742 
Q 1991 1309 1228 531 
z
" id="DejaVuSans-32" transform="scale(0.015625)"/>
       </defs>
       <use xlink:href="#DejaVuSans-32"/>
       <use x="63.623047" xlink:href="#DejaVuSans-30"/>
       <use x="127.246094" xlink:href="#DejaVuSans-30"/>
       <use x="190.869141" xlink:href="#DejaVuSans-30"/>
       <use x="254.492188" xlink:href="#DejaVuSans-30"/>
      </g>
     </g>
    </g>
    <g id="xtick_3">
     <g id="text_3">
      <!-- 40000 -->
      <g style="fill:#262626;" transform="translate(261.285432 636.076563)scale(0.22 -0.22)">
       <defs>
        <path d="M 2419 4116 
L 825 1625 
L 2419 1625 
L 2419 4116 
z
M 2253 4666 
L 3047 4666 
L 3047 1625 
L 3713 1625 
L 3713 1100 
L 3047 1100 
L 3047 0 
L 2419 0 
L 2419 1100 
L 313 1100 
L 313 1709 
L 2253 4666 
z
" id="DejaVuSans-34" transform="scale(0.015625)"/>
       </defs>
       <use xlink:href="#DejaVuSans-34"/>
       <use x="63.623047" xlink:href="#DejaVuSans-30"/>
       <use x="127.246094" xlink:href="#DejaVuSans-30"/>
       <use x="190.869141" xlink:href="#DejaVuSans-30"/>
       <use x="254.492188" xlink:href="#DejaVuSans-30"/>
      </g>
     </g>
    </g>
    <g id="xtick_4">
     <g id="text_4">
      <!-- 60000 -->
      <g style="fill:#262626;" transform="translate(349.106693 636.076563)scale(0.22 -0.22)">
       <defs>
        <path d="M 2113 2584 
Q 1688 2584 1439 2293 
Q 1191 2003 1191 1497 
Q 1191 994 1439 701 
Q 1688 409 2113 409 
Q 2538 409 2786 701 
Q 3034 994 3034 1497 
Q 3034 2003 2786 2293 
Q 2538 2584 2113 2584 
z
M 3366 4563 
L 3366 3988 
Q 3128 4100 2886 4159 
Q 2644 4219 2406 4219 
Q 1781 4219 1451 3797 
Q 1122 3375 1075 2522 
Q 1259 2794 1537 2939 
Q 1816 3084 2150 3084 
Q 2853 3084 3261 2657 
Q 3669 2231 3669 1497 
Q 3669 778 3244 343 
Q 2819 -91 2113 -91 
Q 1303 -91 875 529 
Q 447 1150 447 2328 
Q 447 3434 972 4092 
Q 1497 4750 2381 4750 
Q 2619 4750 2861 4703 
Q 3103 4656 3366 4563 
z
" id="DejaVuSans-36" transform="scale(0.015625)"/>
       </defs>
       <use xlink:href="#DejaVuSans-36"/>
       <use x="63.623047" xlink:href="#DejaVuSans-30"/>
       <use x="127.246094" xlink:href="#DejaVuSans-30"/>
       <use x="190.869141" xlink:href="#DejaVuSans-30"/>
       <use x="254.492188" xlink:href="#DejaVuSans-30"/>
      </g>
     </g>
    </g>
    <g id="xtick_5">
     <g id="text_5">
      <!-- 80000 -->
      <g style="fill:#262626;" transform="translate(436.927955 636.076563)scale(0.22 -0.22)">
       <defs>
        <path d="M 2034 2216 
Q 1584 2216 1326 1975 
Q 1069 1734 1069 1313 
Q 1069 891 1326 650 
Q 1584 409 2034 409 
Q 2484 409 2743 651 
Q 3003 894 3003 1313 
Q 3003 1734 2745 1975 
Q 2488 2216 2034 2216 
z
M 1403 2484 
Q 997 2584 770 2862 
Q 544 3141 544 3541 
Q 544 4100 942 4425 
Q 1341 4750 2034 4750 
Q 2731 4750 3128 4425 
Q 3525 4100 3525 3541 
Q 3525 3141 3298 2862 
Q 3072 2584 2669 2484 
Q 3125 2378 3379 2068 
Q 3634 1759 3634 1313 
Q 3634 634 3220 271 
Q 2806 -91 2034 -91 
Q 1263 -91 848 271 
Q 434 634 434 1313 
Q 434 1759 690 2068 
Q 947 2378 1403 2484 
z
M 1172 3481 
Q 1172 3119 1398 2916 
Q 1625 2713 2034 2713 
Q 2441 2713 2670 2916 
Q 2900 3119 2900 3481 
Q 2900 3844 2670 4047 
Q 2441 4250 2034 4250 
Q 1625 4250 1398 4047 
Q 1172 3844 1172 3481 
z
" id="DejaVuSans-38" transform="scale(0.015625)"/>
       </defs>
       <use xlink:href="#DejaVuSans-38"/>
       <use x="63.623047" xlink:href="#DejaVuSans-30"/>
       <use x="127.246094" xlink:href="#DejaVuSans-30"/>
       <use x="190.869141" xlink:href="#DejaVuSans-30"/>
       <use x="254.492188" xlink:href="#DejaVuSans-30"/>
      </g>
     </g>
    </g>
    <g id="xtick_6">
     <g id="text_6">
      <!-- 100000 -->
      <g style="fill:#262626;" transform="translate(517.750466 636.076563)scale(0.22 -0.22)">
       <defs>
        <path d="M 794 531 
L 1825 531 
L 1825 4091 
L 703 3866 
L 703 4441 
L 1819 4666 
L 2450 4666 
L 2450 531 
L 3481 531 
L 3481 0 
L 794 0 
L 794 531 
z
" id="DejaVuSans-31" transform="scale(0.015625)"/>
       </defs>
       <use xlink:href="#DejaVuSans-31"/>
       <use x="63.623047" xlink:href="#DejaVuSans-30"/>
       <use x="127.246094" xlink:href="#DejaVuSans-30"/>
       <use x="190.869141" xlink:href="#DejaVuSans-30"/>
       <use x="254.492188" xlink:href="#DejaVuSans-30"/>
       <use x="318.115234" xlink:href="#DejaVuSans-30"/>
      </g>
     </g>
    </g>
    <g id="text_7">
     <!-- MDTU -->
     <g style="fill:#262626;" transform="translate(304.593964 662.888125)scale(0.24 -0.24)">
      <defs>
       <path d="M 628 4666 
L 1569 4666 
L 2759 1491 
L 3956 4666 
L 4897 4666 
L 4897 0 
L 4281 0 
L 4281 4097 
L 3078 897 
L 2444 897 
L 1241 4097 
L 1241 0 
L 628 0 
L 628 4666 
z
" id="DejaVuSans-4d" transform="scale(0.015625)"/>
       <path d="M 1259 4147 
L 1259 519 
L 2022 519 
Q 2988 519 3436 956 
Q 3884 1394 3884 2338 
Q 3884 3275 3436 3711 
Q 2988 4147 2022 4147 
L 1259 4147 
z
M 628 4666 
L 1925 4666 
Q 3281 4666 3915 4102 
Q 4550 3538 4550 2338 
Q 4550 1131 3912 565 
Q 3275 0 1925 0 
L 628 0 
L 628 4666 
z
" id="DejaVuSans-44" transform="scale(0.015625)"/>
       <path d="M -19 4666 
L 3928 4666 
L 3928 4134 
L 2272 4134 
L 2272 0 
L 1638 0 
L 1638 4134 
L -19 4134 
L -19 4666 
z
" id="DejaVuSans-54" transform="scale(0.015625)"/>
       <path d="M 556 4666 
L 1191 4666 
L 1191 1831 
Q 1191 1081 1462 751 
Q 1734 422 2344 422 
Q 2950 422 3222 751 
Q 3494 1081 3494 1831 
L 3494 4666 
L 4128 4666 
L 4128 1753 
Q 4128 841 3676 375 
Q 3225 -91 2344 -91 
Q 1459 -91 1007 375 
Q 556 841 556 1753 
L 556 4666 
z
" id="DejaVuSans-55" transform="scale(0.015625)"/>
      </defs>
      <use xlink:href="#DejaVuSans-4d"/>
      <use x="86.279297" xlink:href="#DejaVuSans-44"/>
      <use x="163.28125" xlink:href="#DejaVuSans-54"/>
      <use x="224.365234" xlink:href="#DejaVuSans-55"/>
     </g>
    </g>
   </g>
   <g id="matplotlib.axis_2">
    <g id="ytick_1">
     <g id="text_8">
      <!-- 0.25 -->
      <g style="fill:#262626;" transform="translate(34.4275 592.046555)scale(0.22 -0.22)">
       <defs>
        <path d="M 684 794 
L 1344 794 
L 1344 0 
L 684 0 
L 684 794 
z
" id="DejaVuSans-2e" transform="scale(0.015625)"/>
        <path d="M 691 4666 
L 3169 4666 
L 3169 4134 
L 1269 4134 
L 1269 2991 
Q 1406 3038 1543 3061 
Q 1681 3084 1819 3084 
Q 2600 3084 3056 2656 
Q 3513 2228 3513 1497 
Q 3513 744 3044 326 
Q 2575 -91 1722 -91 
Q 1428 -91 1123 -41 
Q 819 9 494 109 
L 494 744 
Q 775 591 1075 516 
Q 1375 441 1709 441 
Q 2250 441 2565 725 
Q 2881 1009 2881 1497 
Q 2881 1984 2565 2268 
Q 2250 2553 1709 2553 
Q 1456 2553 1204 2497 
Q 953 2441 691 2322 
L 691 4666 
z
" id="DejaVuSans-35" transform="scale(0.015625)"/>
       </defs>
       <use xlink:href="#DejaVuSans-30"/>
       <use x="63.623047" xlink:href="#DejaVuSans-2e"/>
       <use x="95.410156" xlink:href="#DejaVuSans-32"/>
       <use x="159.033203" xlink:href="#DejaVuSans-35"/>
      </g>
     </g>
    </g>
    <g id="ytick_2">
     <g id="text_9">
      <!-- 0.50 -->
      <g style="fill:#262626;" transform="translate(34.4275 526.912713)scale(0.22 -0.22)">
       <use xlink:href="#DejaVuSans-30"/>
       <use x="63.623047" xlink:href="#DejaVuSans-2e"/>
       <use x="95.410156" xlink:href="#DejaVuSans-35"/>
       <use x="159.033203" xlink:href="#DejaVuSans-30"/>
      </g>
     </g>
    </g>
    <g id="ytick_3">
     <g id="text_10">
      <!-- 0.75 -->
      <g style="fill:#262626;" transform="translate(34.4275 461.778871)scale(0.22 -0.22)">
       <defs>
        <path d="M 525 4666 
L 3525 4666 
L 3525 4397 
L 1831 0 
L 1172 0 
L 2766 4134 
L 525 4134 
L 525 4666 
z
" id="DejaVuSans-37" transform="scale(0.015625)"/>
       </defs>
       <use xlink:href="#DejaVuSans-30"/>
       <use x="63.623047" xlink:href="#DejaVuSans-2e"/>
       <use x="95.410156" xlink:href="#DejaVuSans-37"/>
       <use x="159.033203" xlink:href="#DejaVuSans-35"/>
      </g>
     </g>
    </g>
    <g id="ytick_4">
     <g id="text_11">
      <!-- 1.00 -->
      <g style="fill:#262626;" transform="translate(34.4275 396.645029)scale(0.22 -0.22)">
       <use xlink:href="#DejaVuSans-31"/>
       <use x="63.623047" xlink:href="#DejaVuSans-2e"/>
       <use x="95.410156" xlink:href="#DejaVuSans-30"/>
       <use x="159.033203" xlink:href="#DejaVuSans-30"/>
      </g>
     </g>
    </g>
    <g id="ytick_5">
     <g id="text_12">
      <!-- 1.25 -->
      <g style="fill:#262626;" transform="translate(34.4275 331.511187)scale(0.22 -0.22)">
       <use xlink:href="#DejaVuSans-31"/>
       <use x="63.623047" xlink:href="#DejaVuSans-2e"/>
       <use x="95.410156" xlink:href="#DejaVuSans-32"/>
       <use x="159.033203" xlink:href="#DejaVuSans-35"/>
      </g>
     </g>
    </g>
    <g id="ytick_6">
     <g id="text_13">
      <!-- 1.50 -->
      <g style="fill:#262626;" transform="translate(34.4275 266.377345)scale(0.22 -0.22)">
       <use xlink:href="#DejaVuSans-31"/>
       <use x="63.623047" xlink:href="#DejaVuSans-2e"/>
       <use x="95.410156" xlink:href="#DejaVuSans-35"/>
       <use x="159.033203" xlink:href="#DejaVuSans-30"/>
      </g>
     </g>
    </g>
    <g id="ytick_7">
     <g id="text_14">
      <!-- 1.75 -->
      <g style="fill:#262626;" transform="translate(34.4275 201.243504)scale(0.22 -0.22)">
       <use xlink:href="#DejaVuSans-31"/>
       <use x="63.623047" xlink:href="#DejaVuSans-2e"/>
       <use x="95.410156" xlink:href="#DejaVuSans-37"/>
       <use x="159.033203" xlink:href="#DejaVuSans-35"/>
      </g>
     </g>
    </g>
    <g id="ytick_8">
     <g id="text_15">
      <!-- 2.00 -->
      <g style="fill:#262626;" transform="translate(34.4275 136.109662)scale(0.22 -0.22)">
       <use xlink:href="#DejaVuSans-32"/>
       <use x="63.623047" xlink:href="#DejaVuSans-2e"/>
       <use x="95.410156" xlink:href="#DejaVuSans-30"/>
       <use x="159.033203" xlink:href="#DejaVuSans-30"/>
      </g>
     </g>
    </g>
    <g id="text_16">
     <!-- $E$ -->
     <g style="fill:#262626;" transform="translate(25.43625 364.352286)rotate(-90)scale(0.24 -0.24)">
      <defs>
       <path d="M 1081 4666 
L 4031 4666 
L 3928 4134 
L 1606 4134 
L 1338 2753 
L 3566 2753 
L 3463 2222 
L 1234 2222 
L 909 531 
L 3284 531 
L 3181 0 
L 172 0 
L 1081 4666 
z
" id="DejaVuSans-Oblique-45" transform="scale(0.015625)"/>
      </defs>
      <use transform="translate(0 0.09375)" xlink:href="#DejaVuSans-Oblique-45"/>
     </g>
    </g>
   </g>
   <g id="line2d_1">
    <path clip-path="url(#p09e884d0a7)" d="M 120.856213 443.80442 
L 121.075766 456.992623 
L 121.295319 379.590322 
L 121.514872 549.864746 
L 121.734425 418.158486 
L 121.953978 377.849873 
L 122.393085 505.364999 
L 122.612638 327.286652 
L 122.832191 434.594416 
L 123.051744 321.558666 
L 123.271297 524.680212 
L 123.490851 394.666299 
L 123.710404 413.020486 
L 123.929957 408.397195 
L 124.14951 472.29246 
L 124.588616 495.907475 
L 125.027723 470.465579 
L 125.247276 329.666802 
L 125.466829 476.487086 
L 125.686382 486.931348 
L 126.125488 233.344976 
L 126.345041 510.403559 
L 126.784148 373.814801 
L 127.003701 449.238896 
L 127.223254 422.527349 
L 127.442807 532.159636 
L 127.66236 456.899719 
L 128.101467 417.249391 
L 128.32102 465.999587 
L 128.540573 464.729137 
L 128.760126 486.174058 
L 128.979679 432.700721 
L 129.199232 483.620515 
L 129.418786 480.581506 
L 129.638339 407.39 
L 129.857892 500.555446 
L 130.077445 482.201769 
L 130.296998 443.749543 
L 130.736105 410.232153 
L 130.955658 420.191793 
L 131.175211 507.179256 
L 131.614317 401.144191 
L 131.83387 403.998402 
L 132.053423 518.215992 
L 132.49253 414.796494 
L 132.712083 455.213407 
L 132.931636 546.294148 
L 133.151189 320.612583 
L 133.370742 511.990953 
L 133.590296 312.402603 
L 133.809849 388.911819 
L 134.029402 417.398441 
L 134.248955 360.834786 
L 134.688061 465.599284 
L 134.907614 426.152353 
L 135.127168 200.644695 
L 135.346721 482.146567 
L 135.566274 405.973496 
L 135.785827 435.823555 
L 136.00538 321.004124 
L 136.224933 422.317865 
L 136.444487 442.840086 
L 136.66404 434.551228 
L 136.883593 502.370118 
L 137.103146 340.184678 
L 137.322699 383.110797 
L 137.542252 473.199514 
L 137.761805 472.104958 
L 137.981359 492.574618 
L 138.200912 399.801884 
L 138.640018 485.897929 
L 138.859571 433.620083 
L 139.079124 511.048607 
L 139.298678 489.091524 
L 139.518231 419.520328 
L 139.737784 434.821231 
L 139.957337 458.324066 
L 140.17689 362.883467 
L 140.396443 503.023161 
L 140.615996 520.757181 
L 140.83555 328.374511 
L 141.055103 436.290758 
L 141.274656 471.018989 
L 141.494209 479.208674 
L 141.713762 525.255736 
L 141.933315 475.518595 
L 142.152869 475.424057 
L 142.372422 403.116699 
L 142.591975 292.636729 
L 143.031081 518.384356 
L 143.250634 323.024356 
L 143.470187 426.703728 
L 143.689741 415.16478 
L 143.909294 509.88489 
L 144.128847 421.741738 
L 144.567953 494.816218 
L 145.00706 363.115445 
L 145.226613 476.566965 
L 145.446166 480.284775 
L 145.885272 433.227108 
L 146.104825 423.004261 
L 146.324378 349.862333 
L 146.763485 528.756382 
L 147.202591 401.991986 
L 147.422144 513.034235 
L 147.641697 535.464205 
L 147.861251 536.497165 
L 148.080804 498.646924 
L 148.300357 355.668199 
L 148.51991 302.164554 
L 148.739463 467.786659 
L 148.959016 450.394158 
L 149.178569 503.651006 
L 149.398123 414.982987 
L 149.617676 420.791903 
L 149.837229 550.652594 
L 150.056782 345.418423 
L 150.276335 452.726294 
L 150.495888 389.647662 
L 150.715441 466.846178 
L 150.934995 501.854356 
L 151.154548 474.309373 
L 151.374101 471.63883 
L 151.593654 228.575085 
L 151.813207 418.40902 
L 152.03276 480.997467 
L 152.252314 469.193759 
L 152.471867 473.308532 
L 152.69142 411.832046 
L 153.350079 481.283021 
L 153.789186 400.616492 
L 154.008739 445.654591 
L 154.228292 450.406403 
L 154.447845 468.310088 
L 154.667398 362.614892 
L 154.886951 425.169702 
L 155.106505 536.007388 
L 155.326058 386.562854 
L 155.545611 465.996153 
L 155.765164 279.350888 
L 155.984717 505.27126 
L 156.20427 377.450495 
L 156.423823 420.143853 
L 156.643377 423.21091 
L 156.86293 410.062087 
L 157.082483 475.899082 
L 157.302036 365.973214 
L 157.741142 479.830988 
L 157.960696 298.12002 
L 158.180249 533.344592 
L 158.619355 442.243536 
L 158.838908 467.130894 
L 159.058461 434.583748 
L 159.278014 302.056391 
L 159.497568 486.996873 
L 159.717121 474.680835 
L 160.156227 237.97593 
L 160.37578 481.24398 
L 160.595333 542.14572 
L 160.814887 336.849351 
L 161.03444 360.765054 
L 161.253993 461.493485 
L 161.473546 262.037402 
L 161.693099 460.136747 
L 161.912652 446.879775 
L 162.132205 530.244182 
L 162.571312 448.27179 
L 162.790865 469.961419 
L 163.010418 510.567794 
L 163.449524 430.462602 
L 163.669078 441.270903 
L 163.888631 391.756361 
L 164.108184 478.186028 
L 164.327737 456.498054 
L 164.54729 391.777409 
L 164.766843 409.952867 
L 164.986396 479.578151 
L 165.20595 507.777109 
L 165.425503 499.192876 
L 165.645056 464.11225 
L 165.864609 345.575002 
L 166.084162 524.510531 
L 166.303715 482.182996 
L 166.523269 382.202521 
L 166.742822 506.991863 
L 166.962375 304.013413 
L 167.181928 490.241629 
L 167.401481 449.871525 
L 167.621034 344.317012 
L 167.840587 424.961742 
L 168.060141 548.283781 
L 168.279694 400.640053 
L 168.499247 496.59093 
L 168.7188 460.884762 
L 168.938353 456.492368 
L 169.157906 351.832043 
L 169.37746 371.223661 
L 169.597013 508.174874 
L 169.816566 397.464895 
L 170.036119 370.426896 
L 170.255672 376.488684 
L 170.475225 437.397934 
L 170.694778 384.458005 
L 170.914332 362.542567 
L 171.133885 415.400743 
L 171.353438 423.615626 
L 171.572991 379.959803 
L 171.792544 479.639815 
L 172.012097 429.839029 
L 172.231651 158.017007 
L 172.670757 533.25504 
L 172.89031 475.232031 
L 173.109863 369.884391 
L 173.329416 505.024779 
L 173.548969 465.684686 
L 173.768523 404.434487 
L 173.988076 413.129215 
L 174.207629 431.861359 
L 174.427182 409.188048 
L 174.646735 398.742048 
L 174.866288 444.214571 
L 175.085842 275.28551 
L 175.305395 506.129449 
L 175.524948 174.332545 
L 175.744501 365.015598 
L 175.964054 406.901729 
L 176.183607 473.016814 
L 176.40316 454.825949 
L 176.622714 483.621112 
L 176.842267 264.932427 
L 177.06182 306.588559 
L 177.281373 227.471281 
L 177.500926 417.235631 
L 177.720479 500.633268 
L 178.159586 379.245978 
L 178.379139 554.582745 
L 178.598692 461.577965 
L 178.818245 262.105461 
L 179.696458 566.132187 
L 179.916011 459.627244 
L 180.135564 522.609947 
L 180.355117 400.452438 
L 180.794223 505.078748 
L 181.013777 438.374679 
L 181.23333 418.758231 
L 181.452883 431.942875 
L 181.672436 328.4493 
L 181.891989 478.751924 
L 182.111542 450.109216 
L 182.331096 317.619876 
L 182.550649 473.478098 
L 182.770202 424.11717 
L 182.989755 547.723658 
L 183.209308 298.474444 
L 183.428861 401.406869 
L 183.648414 340.746008 
L 183.867968 520.441393 
L 184.087521 460.399227 
L 184.307074 519.6358 
L 184.526627 545.301926 
L 184.74618 456.375453 
L 184.965733 488.179184 
L 185.185287 382.360863 
L 185.624393 462.095249 
L 185.843946 468.044933 
L 186.063499 468.935209 
L 186.283052 385.502817 
L 186.502605 474.183144 
L 186.722159 403.740695 
L 186.941712 472.305478 
L 187.161265 399.853442 
L 187.380818 459.012686 
L 187.600371 471.225399 
L 187.819924 493.256497 
L 188.039478 531.226692 
L 188.259031 441.038217 
L 188.478584 438.053253 
L 188.698137 449.868368 
L 188.91769 481.099566 
L 189.137243 467.799384 
L 189.356796 486.609206 
L 189.57635 474.487561 
L 189.795903 442.158952 
L 190.015456 294.522627 
L 190.235009 407.472058 
L 190.454562 352.987046 
L 190.674115 496.605141 
L 190.893669 262.328487 
L 191.113222 475.230421 
L 191.332775 428.407775 
L 191.552328 478.387544 
L 191.771881 190.283502 
L 191.991434 435.24826 
L 192.430541 532.199141 
L 192.650094 470.418742 
L 192.869647 477.311888 
L 193.0892 501.860638 
L 193.308753 345.184329 
L 193.528306 408.965981 
L 193.74786 512.015063 
L 193.967413 517.502046 
L 194.186966 501.317485 
L 194.406519 500.528465 
L 194.626072 451.257413 
L 194.845625 454.673132 
L 195.065178 463.690499 
L 195.284732 481.258965 
L 195.504285 522.550247 
L 195.723838 468.308269 
L 195.943391 500.463069 
L 196.162944 435.721611 
L 196.382497 438.508439 
L 196.602051 432.381918 
L 196.821604 498.821803 
L 197.041157 443.893136 
L 197.26071 305.453797 
L 197.480263 470.275765 
L 197.699816 469.559829 
L 197.919369 401.240075 
L 198.138923 474.541308 
L 198.358476 359.106493 
L 198.578029 512.36373 
L 198.797582 402.54259 
L 199.017135 392.313297 
L 199.456242 459.109061 
L 199.675795 377.597269 
L 199.895348 489.009039 
L 200.114901 440.16565 
L 200.554007 514.574116 
L 200.77356 428.464552 
L 200.993114 439.116135 
L 201.212667 356.130574 
L 201.43222 397.858641 
L 201.651773 313.648501 
L 202.090879 490.009394 
L 202.529986 264.719878 
L 202.749539 424.878761 
L 202.969092 320.868744 
L 203.408198 502.714812 
L 203.627751 451.926463 
L 203.847305 518.91494 
L 204.066858 486.835218 
L 204.286411 480.829046 
L 204.505964 487.028234 
L 204.725517 436.451026 
L 204.94507 360.096775 
L 205.164623 399.935518 
L 205.384177 464.547115 
L 205.60373 398.778756 
L 205.823283 494.230684 
L 206.042836 439.683365 
L 206.262389 462.222152 
L 206.481942 230.040885 
L 206.701496 410.746004 
L 206.921049 486.116362 
L 207.140602 372.206696 
L 207.360155 450.283759 
L 207.579708 473.037682 
L 207.799261 357.653987 
L 208.018814 322.138934 
L 208.238368 486.965406 
L 208.457921 208.166683 
L 208.897027 467.634904 
L 209.11658 218.701866 
L 209.336133 438.53697 
L 209.555687 452.030118 
L 209.77524 402.363081 
L 209.994793 431.772083 
L 210.214346 490.122565 
L 210.433899 436.71133 
L 210.653452 411.102969 
L 210.873005 434.549258 
L 211.092559 387.532588 
L 211.312112 452.426106 
L 211.531665 459.543365 
L 211.751218 500.074537 
L 211.970771 449.094697 
L 212.409878 398.903193 
L 212.629431 400.325067 
L 212.848984 365.765225 
L 213.068537 434.056429 
L 213.28809 319.573555 
L 213.507643 339.946992 
L 213.727196 517.899966 
L 213.94675 370.912219 
L 214.166303 332.427186 
L 214.385856 492.700705 
L 214.605409 364.739579 
L 214.824962 462.113018 
L 215.044515 451.715815 
L 215.264069 380.010438 
L 215.483622 452.293719 
L 215.703175 461.776917 
L 215.922728 481.732666 
L 216.142281 524.268297 
L 216.361834 425.55193 
L 216.581387 428.539742 
L 216.800941 433.790369 
L 217.020494 443.798065 
L 217.240047 512.809424 
L 217.4596 433.754777 
L 217.679153 505.86919 
L 217.898706 521.634419 
L 218.337813 454.991207 
L 218.557366 481.03992 
L 218.776919 489.252153 
L 219.216025 422.300383 
L 219.435578 432.027392 
L 219.655132 494.887289 
L 220.094238 378.373454 
L 220.313791 431.283556 
L 220.533344 385.003586 
L 220.752897 383.492694 
L 221.192004 509.374595 
L 221.411557 486.048716 
L 221.63111 494.435554 
L 221.850663 546.256081 
L 222.070216 497.392197 
L 222.289769 376.597379 
L 222.509323 541.197358 
L 222.728876 560.18199 
L 222.948429 518.978949 
L 223.167982 499.916318 
L 223.387535 463.283106 
L 223.607088 581.38839 
L 223.826642 381.417422 
L 224.265748 508.629796 
L 224.485301 357.964649 
L 224.704854 371.658956 
L 224.924407 400.884379 
L 225.14396 377.435749 
L 225.363514 481.542199 
L 225.583067 475.780272 
L 225.80262 486.332651 
L 226.022173 393.230783 
L 226.241726 397.17076 
L 226.461279 386.508851 
L 226.900386 443.703949 
L 227.339492 452.45556 
L 227.559045 493.593463 
L 227.778598 388.325872 
L 227.998151 442.441876 
L 228.217705 386.787836 
L 228.437258 456.083114 
L 228.656811 407.123707 
L 228.876364 472.663631 
L 229.095917 395.786106 
L 229.31547 439.555896 
L 229.535023 413.354744 
L 229.97413 530.097905 
L 230.193683 439.111923 
L 230.413236 485.700556 
L 230.632789 442.572493 
L 231.071896 505.797033 
L 231.291449 510.694103 
L 231.511002 489.259087 
L 231.730555 433.657386 
L 231.950108 513.249804 
L 232.169661 428.164311 
L 232.389214 448.348608 
L 232.828321 406.104818 
L 233.047874 514.290385 
L 233.267427 472.251176 
L 233.48698 397.663419 
L 233.706533 521.089881 
L 234.14564 418.682838 
L 234.804299 471.754935 
L 235.023852 517.379934 
L 235.243405 535.429881 
L 235.462959 430.687915 
L 235.682512 485.811262 
L 235.902065 435.314709 
L 236.341171 512.475361 
L 236.560724 446.675685 
L 236.780278 470.264759 
L 236.999831 396.733139 
L 237.219384 498.271777 
L 237.438937 484.906357 
L 237.65849 392.341061 
L 237.878043 394.277529 
L 238.097596 479.203446 
L 238.31715 485.828234 
L 238.536703 435.608739 
L 238.756256 475.720601 
L 238.975809 445.961231 
L 239.195362 525.437564 
L 239.414915 369.365611 
L 239.854022 508.693533 
L 240.073575 494.592763 
L 240.293128 460.831904 
L 240.512681 405.030221 
L 240.951787 471.549703 
L 241.171341 524.188048 
L 241.390894 466.056307 
L 241.610447 352.651113 
L 241.83 508.381133 
L 242.049553 491.590826 
L 242.269106 535.021566 
L 242.48866 323.919759 
L 242.708213 460.080845 
L 242.927766 465.01602 
L 243.147319 433.396965 
L 243.586425 429.832977 
L 243.805978 463.468112 
L 244.245085 397.468867 
L 244.464638 439.488888 
L 244.684191 506.270567 
L 244.903744 426.544677 
L 245.342851 476.327493 
L 245.781957 301.381089 
L 246.00151 346.274672 
L 246.221063 528.289309 
L 246.440616 440.396512 
L 246.660169 515.371331 
L 246.879723 506.24123 
L 247.538382 396.199175 
L 247.757935 466.224203 
L 247.977488 415.280546 
L 248.416595 389.381106 
L 248.636148 463.887758 
L 248.855701 439.985334 
L 249.075254 469.390539 
L 249.294807 384.844819 
L 249.51436 474.54812 
L 250.17302 432.725303 
L 250.392573 427.687299 
L 250.612126 451.733269 
L 250.831679 508.302633 
L 251.051233 479.685109 
L 251.270786 481.80021 
L 251.490339 548.713756 
L 251.709892 480.388037 
L 251.929445 326.321746 
L 252.368551 523.695396 
L 252.807658 372.445722 
L 253.246764 539.034296 
L 253.466317 370.520234 
L 253.68587 411.893529 
L 253.905424 489.045436 
L 254.124977 519.610531 
L 254.34453 480.751359 
L 254.564083 411.699483 
L 254.783636 426.829526 
L 255.003189 450.711463 
L 255.222742 389.139901 
L 255.442296 416.568182 
L 255.661849 497.692121 
L 255.881402 503.118787 
L 256.100955 404.488996 
L 256.320508 423.735803 
L 256.540061 480.864591 
L 256.759614 456.932032 
L 256.979168 410.54525 
L 257.198721 421.744238 
L 257.418274 491.565686 
L 257.85738 358.062578 
L 258.076933 418.982417 
L 258.296487 519.977547 
L 258.51604 538.899714 
L 258.955146 361.850926 
L 259.174699 487.243093 
L 259.394252 453.271219 
L 259.613805 368.234659 
L 259.833359 522.224934 
L 260.052912 506.176421 
L 260.272465 317.614015 
L 260.492018 452.122268 
L 260.711571 424.827267 
L 261.150678 483.983887 
L 261.370231 456.848807 
L 261.589784 528.32555 
L 261.809337 406.119874 
L 262.02889 501.410358 
L 262.248443 439.146138 
L 262.467996 445.163047 
L 262.68755 489.929184 
L 262.907103 461.824699 
L 263.126656 329.28226 
L 263.565762 497.54865 
L 263.785315 355.055918 
L 264.004869 401.812062 
L 264.224422 351.007181 
L 264.443975 508.723021 
L 264.663528 428.629893 
L 264.883081 303.27853 
L 265.102634 546.26266 
L 265.322187 495.156592 
L 265.761294 537.895273 
L 265.980847 371.255195 
L 266.2004 429.195233 
L 266.419953 523.563305 
L 266.639506 440.014991 
L 266.85906 496.027726 
L 267.078613 519.2811 
L 267.298166 464.067448 
L 267.517719 482.742859 
L 267.737272 396.745317 
L 267.956825 464.202897 
L 268.176378 440.661027 
L 268.395932 463.534602 
L 268.615485 285.15096 
L 268.835038 465.825341 
L 269.054591 421.075709 
L 269.274144 531.24693 
L 269.493697 494.298109 
L 269.713251 514.852297 
L 269.932804 361.079827 
L 270.152357 486.416666 
L 270.591463 514.214711 
L 270.811016 440.486673 
L 271.030569 464.321522 
L 271.250123 311.235027 
L 271.469676 390.185307 
L 271.689229 363.622194 
L 271.908782 432.042594 
L 272.128335 444.618267 
L 272.347888 433.135057 
L 272.567442 533.732683 
L 272.786995 412.037526 
L 273.006548 424.147074 
L 273.226101 495.709155 
L 273.445654 498.243392 
L 273.665207 414.156674 
L 273.88476 439.85625 
L 274.323867 280.235717 
L 274.54342 423.752924 
L 274.982526 361.137493 
L 275.202079 400.580816 
L 275.421633 361.827901 
L 275.641186 381.347167 
L 275.860739 259.798509 
L 276.080292 469.023309 
L 276.299845 436.837885 
L 276.519398 313.427202 
L 276.738951 286.849014 
L 276.958505 538.725562 
L 277.178058 353.598748 
L 277.397611 489.720853 
L 277.617164 467.807513 
L 277.836717 515.966184 
L 278.05627 420.59973 
L 278.275824 452.226484 
L 278.495377 442.737466 
L 278.71493 442.663685 
L 278.934483 459.235352 
L 279.154036 434.527668 
L 279.373589 517.821558 
L 279.593142 447.783736 
L 279.812696 444.143835 
L 280.032249 432.807481 
L 280.251802 480.699582 
L 280.471355 437.447074 
L 280.690908 498.999657 
L 280.910461 444.663929 
L 281.130014 518.334758 
L 281.349568 452.190979 
L 281.569121 420.517421 
L 281.788674 410.349707 
L 282.008227 393.210856 
L 282.22778 506.546977 
L 282.447333 472.785566 
L 282.666887 501.075132 
L 282.88644 569.10744 
L 283.105993 446.60935 
L 283.325546 476.972155 
L 283.545099 440.786117 
L 283.984205 418.216547 
L 284.203759 326.713074 
L 284.423312 405.690719 
L 284.642865 439.424163 
L 285.081971 454.104368 
L 285.301524 455.72992 
L 285.521078 429.638668 
L 285.740631 335.091927 
L 285.960184 480.884045 
L 286.179737 526.430461 
L 286.39929 444.049621 
L 286.618843 459.685934 
L 287.05795 408.302183 
L 287.277503 516.615273 
L 287.497056 400.511301 
L 287.716609 522.045929 
L 287.936162 461.993774 
L 288.155715 487.584952 
L 288.375269 375.099126 
L 288.594822 432.960047 
L 288.814375 407.721958 
L 289.033928 457.454014 
L 289.253481 401.346591 
L 289.473034 374.126192 
L 289.692587 427.461443 
L 289.912141 444.181272 
L 290.131694 483.152596 
L 290.351247 311.401206 
L 290.5708 536.789159 
L 291.009906 332.458723 
L 291.22946 508.259767 
L 291.449013 501.561069 
L 291.668566 516.660097 
L 291.888119 390.515741 
L 292.107672 448.952383 
L 292.327225 420.803027 
L 292.546778 543.69634 
L 292.766332 425.628917 
L 292.985885 484.475844 
L 293.205438 477.602815 
L 293.644544 379.684456 
L 293.864097 232.215035 
L 294.303204 479.195838 
L 294.522757 419.142432 
L 294.74231 497.108576 
L 294.961863 529.065323 
L 295.400969 351.376022 
L 295.620523 426.719602 
L 295.840076 416.618373 
L 296.059629 362.123915 
L 296.279182 445.052029 
L 296.498735 422.087848 
L 296.718288 373.385467 
L 297.157395 458.111699 
L 297.376948 475.251125 
L 297.596501 383.354241 
L 297.816054 465.446126 
L 298.035607 377.65921 
L 298.25516 531.136716 
L 298.474714 384.90281 
L 298.694267 466.141377 
L 298.91382 487.545929 
L 299.133373 215.402748 
L 299.352926 454.388951 
L 299.572479 536.785229 
L 299.792033 420.649395 
L 300.011586 519.380663 
L 300.231139 399.562521 
L 300.450692 486.956426 
L 300.670245 401.306345 
L 300.889798 364.361675 
L 301.109351 474.55436 
L 301.328905 354.868697 
L 301.548458 317.194623 
L 301.768011 465.009115 
L 301.987564 360.183661 
L 302.207117 338.542958 
L 302.42667 465.649898 
L 302.646224 488.69954 
L 302.865777 445.461342 
L 303.08533 488.702762 
L 303.304883 464.039216 
L 303.524436 472.053314 
L 303.963542 443.095526 
L 304.183096 416.716904 
L 304.402649 437.520506 
L 304.622202 429.837737 
L 305.061308 513.152304 
L 305.280861 555.249149 
L 305.719968 431.180296 
L 305.939521 450.768488 
L 306.159074 440.485675 
L 306.378627 507.455992 
L 306.59818 492.308164 
L 306.817733 315.331963 
L 307.037287 402.60694 
L 307.476393 471.689077 
L 307.695946 443.402924 
L 307.915499 517.732399 
L 308.354605 487.470238 
L 308.574159 291.272241 
L 308.793712 521.329629 
L 309.013265 443.763849 
L 309.232818 456.854358 
L 309.452371 435.567639 
L 309.671924 501.18762 
L 309.891478 452.447683 
L 310.111031 489.943395 
L 310.330584 488.673785 
L 310.550137 239.593714 
L 310.76969 283.136978 
L 311.208796 525.073982 
L 311.42835 417.615723 
L 311.647903 505.152279 
L 311.867456 454.368033 
L 312.087009 368.840796 
L 312.306562 526.442976 
L 312.745669 500.522988 
L 312.965222 466.142866 
L 313.184775 515.90023 
L 313.404328 441.390591 
L 313.843434 493.272568 
L 314.062987 457.215252 
L 314.282541 447.575952 
L 314.502094 491.810619 
L 314.721647 431.965131 
L 314.9412 464.924512 
L 315.160753 455.626016 
L 315.380306 485.508318 
L 315.59986 401.162363 
L 315.819413 522.236031 
L 316.038966 435.062572 
L 316.258519 402.524999 
L 316.478072 421.860146 
L 316.697625 365.350493 
L 316.917178 410.003495 
L 317.136732 503.333135 
L 317.356285 499.832979 
L 317.575838 478.688318 
L 317.795391 432.577435 
L 318.234497 504.893903 
L 318.454051 427.457354 
L 318.673604 403.169351 
L 318.893157 432.573817 
L 319.11271 494.067285 
L 319.332263 509.529011 
L 319.551816 363.281169 
L 319.771369 484.569306 
L 319.990923 462.393717 
L 320.210476 460.592384 
L 320.430029 481.272895 
L 320.649582 377.494776 
L 320.869135 375.394069 
L 321.088688 423.552649 
L 321.308242 501.232954 
L 321.527795 439.229701 
L 321.747348 480.351192 
L 321.966901 368.596258 
L 322.186454 490.199907 
L 322.406007 518.759892 
L 322.845114 435.333485 
L 323.064667 465.338332 
L 323.28422 401.134307 
L 323.503773 497.580173 
L 323.723326 433.418191 
L 323.942879 438.36597 
L 324.162433 377.856522 
L 324.381986 486.769211 
L 324.601539 449.536691 
L 324.821092 321.496477 
L 325.040645 468.310192 
L 325.260198 412.419533 
L 325.699305 508.129577 
L 326.138411 397.369528 
L 326.357964 473.377627 
L 326.577517 386.64167 
L 326.79707 524.967327 
L 327.016624 437.941246 
L 327.236177 484.082076 
L 327.45573 494.539316 
L 327.675283 440.013288 
L 327.894836 486.941543 
L 328.114389 488.299694 
L 328.333942 438.648994 
L 328.553496 441.749547 
L 328.773049 428.962994 
L 328.992602 345.933491 
L 329.212155 457.422054 
L 329.431708 459.161089 
L 329.651261 374.303278 
L 329.870815 382.863221 
L 330.090368 479.17584 
L 330.309921 305.751224 
L 330.749027 452.357213 
L 330.96858 476.792083 
L 331.188133 405.687543 
L 331.407687 486.225774 
L 331.62724 470.480791 
L 331.846793 381.479632 
L 332.066346 496.151348 
L 332.285899 470.242901 
L 332.725006 513.472518 
L 332.944559 504.58742 
L 333.164112 515.852295 
L 333.383665 491.685745 
L 333.603218 483.193104 
L 334.042324 384.888736 
L 334.261878 485.711345 
L 334.481431 299.006651 
L 334.920537 511.964147 
L 335.14009 508.078656 
L 335.359643 438.287833 
L 335.79875 385.971293 
L 336.018303 446.861122 
L 336.237856 466.215503 
L 336.457409 445.759994 
L 336.676962 412.620294 
L 336.896515 434.131088 
L 337.116069 399.915884 
L 337.335622 398.830474 
L 337.555175 391.812109 
L 337.774728 379.599586 
L 337.994281 482.699076 
L 338.213834 338.964913 
L 338.433387 549.476747 
L 338.652941 405.388863 
L 339.092047 537.042872 
L 339.3116 463.460839 
L 339.531153 317.270546 
L 339.750706 332.082717 
L 339.97026 443.7104 
L 340.189813 358.852086 
L 340.409366 534.737306 
L 340.628919 413.007667 
L 340.848472 510.515801 
L 341.287578 215.790801 
L 341.507132 373.03293 
L 341.726685 327.537284 
L 341.946238 443.859883 
L 342.385344 273.795686 
L 342.604897 491.114901 
L 342.824451 371.185595 
L 343.044004 436.090857 
L 343.263557 467.178036 
L 343.48311 434.202441 
L 343.702663 527.556672 
L 343.922216 428.407395 
L 344.141769 436.045474 
L 344.361323 497.375297 
L 344.580876 367.248817 
L 344.800429 418.191191 
L 345.019982 410.910916 
L 345.239535 237.401921 
L 345.898195 501.654151 
L 346.117748 510.68775 
L 346.337301 504.125934 
L 346.556854 384.368956 
L 346.776407 458.507275 
L 346.99596 436.775347 
L 347.215514 459.431443 
L 347.435067 390.859966 
L 347.65462 408.790469 
L 347.874173 536.684828 
L 348.093726 496.281728 
L 348.313279 316.36338 
L 348.532833 468.182021 
L 348.752386 455.254188 
L 348.971939 412.516968 
L 349.191492 455.91728 
L 349.411045 261.154659 
L 349.630598 439.36397 
L 349.850151 465.992254 
L 350.069705 426.278754 
L 350.289258 443.865911 
L 350.508811 364.600497 
L 350.728364 480.902546 
L 350.947917 484.548428 
L 351.16747 492.62583 
L 351.387024 429.235816 
L 351.606577 408.935344 
L 351.82613 488.156014 
L 352.045683 432.965043 
L 352.265236 422.656341 
L 352.484789 366.780063 
L 352.704342 230.51602 
L 352.923896 455.559864 
L 353.143449 510.040596 
L 353.363002 313.553181 
L 353.582555 460.002641 
L 353.802108 483.165721 
L 354.241215 374.31396 
L 354.460768 483.444517 
L 354.680321 430.898587 
L 354.899874 452.368397 
L 355.119427 525.148675 
L 355.33898 457.382436 
L 355.558533 483.836247 
L 355.778087 440.615207 
L 355.99764 469.244346 
L 356.217193 464.270832 
L 356.436746 354.837417 
L 356.656299 431.391977 
L 356.875852 413.037105 
L 357.095406 351.516925 
L 357.314959 458.938121 
L 357.534512 474.598832 
L 357.754065 514.031306 
L 357.973618 380.945312 
L 358.193171 332.841788 
L 358.412724 422.985784 
L 358.851831 392.5132 
L 359.071384 494.757442 
L 359.290937 308.079025 
L 359.51049 311.360328 
L 359.730043 518.949359 
L 360.16915 395.004659 
L 360.388703 458.430001 
L 360.608256 434.002784 
L 360.827809 510.602222 
L 361.486469 362.322845 
L 361.706022 358.201848 
L 361.925575 470.437395 
L 362.145128 509.615058 
L 362.364681 492.081949 
L 362.584234 520.57619 
L 362.803787 524.991371 
L 363.242894 362.809347 
L 363.462447 487.231767 
L 363.682 381.237278 
L 363.901553 537.03436 
L 364.121106 356.19616 
L 364.34066 503.703232 
L 364.560213 349.66776 
L 364.999319 461.486452 
L 365.438425 416.484893 
L 365.657978 450.511972 
L 365.877532 420.697534 
L 366.316638 442.34067 
L 366.536191 483.389973 
L 366.975297 445.286994 
L 367.194851 290.682912 
L 367.414404 420.587613 
L 367.633957 459.567792 
L 367.85351 455.955107 
L 368.073063 431.538025 
L 368.292616 486.119428 
L 368.512169 351.118055 
L 368.731723 383.212553 
L 368.951276 521.576545 
L 369.609935 314.426012 
L 369.829488 443.788205 
L 370.049042 412.486651 
L 370.268595 475.392429 
L 370.488148 493.12475 
L 370.707701 539.626453 
L 370.927254 499.94861 
L 371.146807 328.762017 
L 371.36636 493.138611 
L 371.585914 496.810295 
L 371.805467 490.342479 
L 372.02502 450.008152 
L 372.244573 525.093201 
L 372.464126 431.80217 
L 372.683679 483.781619 
L 372.903233 376.927194 
L 373.122786 454.738592 
L 373.342339 406.227477 
L 373.561892 522.003304 
L 373.781445 495.848369 
L 374.000998 382.263191 
L 374.220551 450.010845 
L 374.440105 479.741789 
L 374.659658 427.258721 
L 375.098764 516.522434 
L 375.318317 384.355232 
L 375.53787 441.452087 
L 375.757424 336.933377 
L 376.19653 396.753514 
L 376.416083 549.203147 
L 376.635636 501.319705 
L 376.855189 393.184381 
L 377.074742 410.740924 
L 377.294296 478.078708 
L 377.513849 461.971413 
L 377.733402 479.248623 
L 377.952955 482.283722 
L 378.172508 389.900509 
L 378.392061 467.25578 
L 378.611615 410.245505 
L 379.050721 539.296272 
L 379.270274 489.42592 
L 379.489827 470.029123 
L 379.70938 336.654014 
L 379.928933 451.989372 
L 380.148487 468.067382 
L 380.36804 549.224651 
L 380.587593 454.908476 
L 380.807146 516.270926 
L 381.026699 459.931867 
L 381.246252 503.069267 
L 381.465806 511.529343 
L 381.685359 365.606387 
L 381.904912 494.734118 
L 382.124465 407.125926 
L 382.344018 482.560862 
L 382.563571 479.017448 
L 382.783124 366.142104 
L 383.002678 569.1147 
L 383.222231 420.183359 
L 383.441784 471.280452 
L 383.661337 488.655871 
L 383.88089 442.82257 
L 384.100443 500.572625 
L 384.319997 340.973549 
L 384.53955 535.318512 
L 384.759103 433.566771 
L 384.978656 491.013844 
L 385.198209 283.764353 
L 385.417762 417.685472 
L 385.637315 457.374988 
L 385.856869 428.48673 
L 386.076422 455.226072 
L 386.295975 416.711708 
L 386.515528 470.598981 
L 386.735081 336.847936 
L 386.954634 498.992821 
L 387.174187 408.732879 
L 387.393741 377.893154 
L 387.613294 465.130454 
L 387.832847 506.318711 
L 388.0524 520.503025 
L 388.271953 451.664377 
L 388.71106 398.914992 
L 388.930613 392.637698 
L 389.150166 423.533688 
L 389.589272 511.827995 
L 389.808825 416.374092 
L 390.028378 545.409303 
L 390.247932 251.871374 
L 390.467485 263.178692 
L 390.687038 483.544162 
L 391.126144 543.850542 
L 391.345697 508.6194 
L 391.565251 421.602423 
L 391.784804 472.053139 
L 392.004357 463.946223 
L 392.22391 252.108879 
L 392.443463 484.652351 
L 392.663016 503.372591 
L 393.102123 406.395637 
L 393.321676 457.272564 
L 393.541229 427.568418 
L 393.760782 453.424283 
L 393.980335 457.103707 
L 394.199888 452.967668 
L 394.419442 482.104292 
L 394.638995 432.272432 
L 394.858548 445.278559 
L 395.078101 565.131309 
L 395.517207 433.618147 
L 395.73676 436.761844 
L 395.956314 499.659612 
L 396.175867 524.685175 
L 396.39542 410.68613 
L 396.614973 406.195508 
L 396.834526 502.142357 
L 397.054079 489.022647 
L 397.273633 497.456763 
L 397.493186 458.462313 
L 397.712739 342.82764 
L 397.932292 495.976466 
L 398.151845 480.267628 
L 398.371398 429.691648 
L 398.590951 503.058813 
L 398.810505 436.198121 
L 399.030058 470.211817 
L 399.469164 450.769662 
L 399.688717 462.719562 
L 399.90827 564.67528 
L 400.347377 448.787627 
L 400.56693 482.8168 
L 400.786483 435.749728 
L 401.006036 474.332913 
L 401.225589 542.944534 
L 401.445142 475.998146 
L 401.664696 346.183774 
L 401.884249 495.919943 
L 402.103802 297.448841 
L 402.323355 415.887189 
L 402.542908 450.764643 
L 402.762461 545.921888 
L 402.982015 533.524044 
L 403.201568 439.330945 
L 403.421121 494.313889 
L 404.07978 366.927489 
L 404.299333 503.172679 
L 404.518887 523.870861 
L 404.73844 396.701174 
L 404.957993 361.657465 
L 405.177546 367.573874 
L 405.397099 511.311234 
L 405.616652 397.457475 
L 405.836206 538.147439 
L 406.055759 420.795882 
L 406.275312 476.328281 
L 406.494865 481.295132 
L 406.714418 498.856029 
L 407.153524 408.267795 
L 407.373078 474.044104 
L 407.592631 481.497278 
L 407.812184 518.475822 
L 408.031737 439.108108 
L 408.25129 480.092725 
L 408.470843 478.706808 
L 408.690397 464.197896 
L 408.90995 536.887169 
L 409.349056 408.154075 
L 409.568609 504.221193 
L 409.788162 324.586694 
L 410.007715 458.862413 
L 410.227269 518.121275 
L 410.446822 373.076706 
L 410.666375 520.046846 
L 410.885928 538.604957 
L 411.105481 381.391067 
L 411.544587 401.080963 
L 411.764141 425.484978 
L 411.983694 531.997988 
L 412.203247 394.475443 
L 412.4228 484.512678 
L 412.642353 443.537268 
L 412.861906 355.790437 
L 413.08146 483.039318 
L 413.301013 417.756298 
L 413.520566 436.10379 
L 413.740119 414.198433 
L 413.959672 441.858728 
L 414.179225 496.220406 
L 414.398778 417.813175 
L 414.618332 441.101426 
L 414.837885 413.056806 
L 415.057438 316.902672 
L 415.276991 496.965093 
L 415.716097 401.997528 
L 415.935651 299.866901 
L 416.155204 527.216049 
L 416.374757 443.54241 
L 416.813863 463.236815 
L 417.033416 437.506306 
L 417.252969 472.686678 
L 417.472523 383.139266 
L 417.692076 481.882712 
L 417.911629 350.631542 
L 418.131182 505.399819 
L 418.350735 420.29235 
L 418.570288 524.570428 
L 418.789842 283.941714 
L 419.009395 476.50322 
L 419.448501 321.47627 
L 419.668054 460.488634 
L 419.887607 503.638192 
L 420.10716 436.308545 
L 420.326714 483.870077 
L 420.76582 414.855183 
L 420.985373 414.363788 
L 421.204926 319.525274 
L 421.424479 547.623349 
L 421.644033 379.020574 
L 421.863586 463.615692 
L 422.083139 438.076056 
L 422.522245 555.790173 
L 422.741798 377.252443 
L 422.961351 531.863454 
L 423.180905 450.382268 
L 423.400458 453.649251 
L 423.620011 389.401256 
L 423.839564 469.813966 
L 424.27867 344.743968 
L 424.498224 469.759694 
L 424.717777 531.055078 
L 424.93733 453.646716 
L 425.156883 501.027271 
L 425.376436 476.85122 
L 425.595989 466.500953 
L 425.815542 502.426635 
L 426.035096 441.624458 
L 426.254649 453.971042 
L 426.474202 279.75768 
L 426.693755 451.774315 
L 426.913308 353.10972 
L 427.132861 455.467498 
L 427.352415 448.483406 
L 427.571968 452.156303 
L 427.791521 521.905006 
L 428.011074 424.209547 
L 428.45018 495.721857 
L 428.669733 384.387292 
L 428.889287 422.054389 
L 429.10884 480.496903 
L 429.328393 264.404925 
L 429.547946 453.406012 
L 429.767499 371.345369 
L 429.987052 461.082114 
L 430.206606 444.559116 
L 430.426159 492.947889 
L 430.645712 357.374897 
L 430.865265 490.094843 
L 431.084818 490.98368 
L 431.304371 510.729504 
L 431.523924 461.716299 
L 431.743478 525.592505 
L 431.963031 440.052567 
L 432.182584 402.907422 
L 432.402137 465.882954 
L 432.62169 461.613877 
L 432.841243 520.26961 
L 433.060797 338.170135 
L 433.719456 541.629394 
L 433.939009 456.865789 
L 434.378115 432.369492 
L 434.597669 300.573465 
L 434.817222 545.842026 
L 435.036775 399.072895 
L 435.256328 466.044028 
L 435.475881 450.989719 
L 435.695434 509.857566 
L 435.914988 519.923947 
L 436.134541 456.862738 
L 436.354094 173.253937 
L 436.573647 385.873448 
L 436.7932 396.490668 
L 437.012753 418.683476 
L 437.232306 419.227372 
L 437.45186 424.515895 
L 437.671413 533.935632 
L 437.890966 465.324629 
L 438.110519 357.013662 
L 438.330072 388.271621 
L 438.549625 255.068756 
L 438.769178 504.663993 
L 438.988732 467.990649 
L 439.208285 493.907551 
L 439.427838 427.287221 
L 439.647391 495.952763 
L 439.866944 516.770319 
L 440.086497 417.761052 
L 440.306051 481.151966 
L 440.525604 500.917654 
L 440.745157 508.198289 
L 440.96471 463.94901 
L 441.184263 493.891963 
L 441.403816 415.648349 
L 441.623369 501.830445 
L 441.842923 444.602636 
L 442.062476 458.705264 
L 442.282029 433.84224 
L 442.501582 444.173306 
L 442.940688 540.485889 
L 443.160242 533.999069 
L 443.379795 441.80548 
L 443.599348 460.878957 
L 443.818901 446.920471 
L 444.038454 474.44434 
L 444.258007 349.177511 
L 444.47756 489.376603 
L 444.697114 468.544362 
L 444.916667 274.197992 
L 445.13622 468.638701 
L 445.355773 384.56209 
L 445.575326 353.326238 
L 445.794879 382.658796 
L 446.233986 492.302684 
L 446.453539 516.492694 
L 446.673092 400.618402 
L 446.892645 377.850973 
L 447.112198 468.117003 
L 447.331751 451.67191 
L 447.551305 523.670542 
L 447.770858 429.012548 
L 447.990411 399.679252 
L 448.209964 232.757408 
L 448.429517 411.407224 
L 448.64907 466.71442 
L 449.088177 502.329913 
L 449.30773 359.666558 
L 449.527283 489.467749 
L 449.746836 492.331361 
L 449.966389 416.899279 
L 450.185942 523.227712 
L 450.405496 403.557197 
L 450.625049 446.736711 
L 450.844602 404.058388 
L 451.064155 312.43433 
L 451.283708 489.002995 
L 451.503261 380.855258 
L 451.722815 493.826903 
L 451.942368 475.537443 
L 452.161921 468.601654 
L 452.381474 419.282666 
L 452.601027 425.427896 
L 452.82058 557.317004 
L 453.040133 466.593608 
L 453.259687 503.920671 
L 453.47924 520.568081 
L 453.698793 384.046727 
L 453.918346 535.781639 
L 454.137899 448.06017 
L 454.357452 457.954728 
L 454.577006 387.126277 
L 454.796559 405.320262 
L 455.016112 243.826251 
L 455.235665 456.117222 
L 455.455218 359.083135 
L 455.674771 470.94342 
L 455.894324 358.168957 
L 456.113878 420.611295 
L 456.333431 431.520919 
L 456.552984 465.419725 
L 456.772537 466.952786 
L 457.211643 528.143303 
L 457.431197 213.238328 
L 457.65075 446.034005 
L 457.870303 489.834369 
L 458.089856 392.232385 
L 458.309409 480.980443 
L 458.528962 294.713224 
L 458.748515 466.082544 
L 458.968069 467.029301 
L 459.187622 479.015362 
L 459.407175 468.142182 
L 459.626728 520.627732 
L 459.846281 499.202586 
L 460.065834 391.933277 
L 460.285388 415.611191 
L 460.504941 456.199558 
L 460.724494 470.429822 
L 460.944047 525.291283 
L 461.1636 345.320702 
L 461.383153 440.316589 
L 461.602706 371.214422 
L 461.82226 488.465269 
L 462.041813 399.584439 
L 462.261366 450.621629 
L 462.480919 457.571357 
L 462.700472 497.102561 
L 462.920025 470.50996 
L 463.139579 511.012473 
L 463.359132 306.3475 
L 463.578685 465.427991 
L 463.798238 523.374405 
L 464.017791 450.734388 
L 464.237344 517.492727 
L 464.676451 400.557081 
L 464.896004 474.418557 
L 465.115557 503.436646 
L 465.33511 349.229995 
L 465.554663 463.74852 
L 465.774216 441.460894 
L 465.993769 462.831898 
L 466.213323 517.166358 
L 466.652429 436.514981 
L 466.871982 317.122384 
L 467.091535 432.678204 
L 467.311088 485.372539 
L 467.530642 360.599495 
L 467.750195 525.076925 
L 467.969748 519.069496 
L 468.189301 534.5528 
L 468.408854 453.462963 
L 468.628407 511.657739 
L 468.84796 374.360427 
L 469.067514 460.97836 
L 469.287067 386.141151 
L 469.50662 504.428811 
L 469.726173 461.719723 
L 469.945726 320.310147 
L 470.165279 398.201796 
L 470.384833 203.99327 
L 470.604386 420.830338 
L 470.823939 392.35733 
L 471.043492 401.576368 
L 471.263045 388.023988 
L 471.482598 538.452667 
L 471.702151 457.385792 
L 471.921705 523.971464 
L 472.141258 408.05491 
L 472.360811 419.911297 
L 472.580364 339.976378 
L 472.799917 477.569374 
L 473.01947 473.017086 
L 473.239024 426.259032 
L 473.458577 263.574856 
L 473.67813 455.385318 
L 473.897683 463.458515 
L 474.117236 363.369283 
L 474.336789 459.827064 
L 474.556342 434.597257 
L 474.775896 530.276485 
L 474.995449 537.541439 
L 475.215002 528.995473 
L 475.654108 399.532363 
L 475.873661 424.46781 
L 476.093215 508.034191 
L 476.312768 519.75515 
L 476.532321 379.695734 
L 476.751874 527.4225 
L 476.971427 496.841118 
L 477.19098 448.66408 
L 477.410533 521.213563 
L 478.069193 391.988727 
L 478.288746 287.359315 
L 478.508299 466.920448 
L 478.727852 475.535996 
L 478.947406 438.606805 
L 479.166959 343.967931 
L 479.606065 555.749777 
L 479.825618 460.231274 
L 480.045171 535.188004 
L 480.264724 559.501782 
L 480.484278 452.860926 
L 480.703831 500.994498 
L 481.142937 420.371539 
L 481.582043 529.736457 
L 481.801597 386.107353 
L 482.02115 454.697609 
L 482.240703 395.917682 
L 482.460256 399.395185 
L 482.679809 329.652899 
L 482.899362 438.321362 
L 483.118915 467.811957 
L 483.338469 360.838348 
L 483.558022 471.912228 
L 483.777575 502.650294 
L 484.216681 412.531553 
L 484.436234 485.973946 
L 484.655788 418.382702 
L 485.094894 357.87381 
L 485.314447 490.245402 
L 485.753553 298.88569 
L 485.973106 439.024941 
L 486.19266 460.363275 
L 486.412213 513.049796 
L 486.631766 388.607649 
L 487.070872 489.392723 
L 487.290425 283.723369 
L 487.509979 476.457083 
L 487.729532 352.386407 
L 487.949085 491.363472 
L 488.607744 458.691212 
L 488.827297 438.71408 
L 489.046851 541.170599 
L 489.485957 466.520104 
L 489.70551 455.648968 
L 489.925063 480.317203 
L 490.144616 375.604571 
L 490.364169 509.2662 
L 490.583723 435.560103 
L 490.803276 496.936684 
L 491.022829 345.049702 
L 491.461935 443.095581 
L 491.681488 299.12122 
L 491.901042 485.41343 
L 492.120595 500.735643 
L 492.340148 448.573836 
L 492.559701 460.314213 
L 492.779254 430.897674 
L 492.998807 495.781373 
L 493.21836 381.692001 
L 493.437914 355.685728 
L 493.657467 499.834271 
L 493.87702 461.114902 
L 494.096573 470.652372 
L 494.316126 517.54145 
L 494.535679 310.438146 
L 494.755233 483.21457 
L 495.194339 430.885751 
L 495.413892 444.721624 
L 495.633445 468.123689 
L 495.852998 544.826864 
L 496.072551 435.180696 
L 496.292105 393.105892 
L 496.511658 577.384707 
L 496.731211 431.128707 
L 496.950764 484.37887 
L 497.170317 411.674815 
L 497.38987 448.478963 
L 497.609424 458.863863 
L 497.828977 291.471976 
L 498.04853 471.241438 
L 498.268083 380.048919 
L 498.487636 499.715317 
L 498.707189 400.802449 
L 498.926742 477.386359 
L 499.146296 299.568632 
L 499.365849 481.323356 
L 499.585402 482.405491 
L 499.804955 532.253346 
L 500.024508 458.769252 
L 500.244061 476.613623 
L 500.463615 400.798283 
L 500.683168 423.761993 
L 500.902721 431.158784 
L 501.122274 454.582217 
L 501.341827 406.081923 
L 501.56138 434.572399 
L 501.780933 270.248147 
L 502.22004 527.141863 
L 502.439593 503.22979 
L 502.659146 329.365164 
L 502.878699 295.410289 
L 503.098252 496.838675 
L 503.317806 483.087842 
L 503.537359 437.148737 
L 503.756912 225.728785 
L 503.976465 402.591377 
L 504.196018 466.778453 
L 504.415571 415.116627 
L 504.635124 390.817917 
L 504.854678 452.015821 
L 505.074231 459.23926 
L 505.293784 406.490315 
L 505.513337 319.572408 
L 505.73289 355.992338 
L 506.171997 532.760706 
L 506.39155 475.973737 
L 506.611103 449.15269 
L 506.830656 578.992179 
L 507.050209 397.76276 
L 507.489315 509.870054 
L 507.708869 288.681279 
L 508.147975 519.976888 
L 508.367528 434.845649 
L 508.587081 499.256647 
L 508.806634 483.287466 
L 509.026188 415.202307 
L 509.245741 442.353266 
L 509.465294 372.29546 
L 509.684847 460.061214 
L 509.9044 481.930264 
L 510.123953 523.611114 
L 510.343506 505.431713 
L 510.56306 394.514797 
L 510.782613 425.024392 
L 511.002166 497.769367 
L 511.221719 433.874267 
L 511.441272 438.936259 
L 511.660825 399.283184 
L 511.880379 425.028919 
L 512.099932 476.901154 
L 512.319485 456.350764 
L 512.539038 576.129961 
L 512.758591 378.81925 
L 512.978144 325.467523 
L 513.197697 474.139757 
L 513.417251 432.393922 
L 513.636804 430.776559 
L 514.07591 486.862812 
L 514.515016 389.304309 
L 514.73457 428.653531 
L 514.954123 525.296955 
L 515.173676 555.887142 
L 515.393229 393.681651 
L 515.612782 492.136114 
L 516.051888 292.648338 
L 516.271442 509.872296 
L 516.490995 191.484392 
L 516.710548 344.769619 
L 516.930101 374.797405 
L 517.149654 436.063247 
L 517.369207 376.24921 
L 517.58876 395.100507 
L 517.808314 528.421329 
L 518.027867 384.897483 
L 518.24742 432.206003 
L 518.466973 430.659795 
L 518.686526 548.607219 
L 518.906079 426.065241 
L 519.125633 474.448725 
L 519.345186 383.791553 
L 519.564739 541.079422 
L 519.784292 353.285246 
L 520.003845 468.796341 
L 520.223398 395.204581 
L 520.442951 535.978141 
L 520.662505 485.5026 
L 520.882058 469.339149 
L 521.101611 352.700944 
L 521.321164 454.16624 
L 521.540717 462.77862 
L 521.76027 344.155961 
L 521.979824 497.961759 
L 522.199377 500.375527 
L 522.41893 514.490519 
L 522.638483 413.627033 
L 522.858036 509.030171 
L 523.077589 362.444697 
L 523.297142 478.880452 
L 523.516696 483.413071 
L 523.736249 482.062091 
L 523.955802 483.487389 
L 524.394908 414.63421 
L 524.614461 397.7602 
L 524.834015 478.216489 
L 525.053568 371.572591 
L 525.273121 361.843255 
L 525.492674 505.230808 
L 525.712227 450.512938 
L 525.93178 435.451726 
L 526.151333 482.156377 
L 526.370887 384.498949 
L 526.59044 517.471621 
L 526.809993 375.193782 
L 527.029546 501.710444 
L 527.249099 449.666638 
L 527.468652 360.309494 
L 527.688206 445.761602 
L 527.907759 381.657191 
L 528.127312 415.807408 
L 528.346865 404.559763 
L 528.566418 380.349317 
L 529.005524 524.692889 
L 529.225078 503.322492 
L 529.444631 427.633942 
L 529.664184 528.64536 
L 529.883737 169.666157 
L 530.10329 361.0844 
L 530.322843 415.862065 
L 530.542397 371.511507 
L 530.76195 373.023238 
L 531.640162 523.470333 
L 532.079269 467.205341 
L 532.298822 253.402894 
L 532.518375 461.304165 
L 532.737928 439.332055 
L 532.957481 396.094825 
L 533.177034 413.812338 
L 533.396588 462.101822 
L 533.616141 452.630221 
L 533.835694 407.223866 
L 534.055247 455.836293 
L 534.2748 469.570562 
L 534.713906 413.015758 
L 534.93346 489.218494 
L 535.153013 420.610865 
L 535.592119 486.362953 
L 535.811672 518.809233 
L 536.031225 375.019971 
L 536.250779 385.94639 
L 536.470332 265.461396 
L 536.689885 435.428028 
L 536.909438 474.786312 
L 537.128991 439.197748 
L 537.348544 433.464777 
L 537.568097 496.012457 
L 537.787651 456.688715 
L 538.007204 462.461273 
L 538.226757 480.304945 
L 538.44631 453.019481 
L 538.665863 546.613537 
L 538.885416 359.973436 
L 539.324523 538.308932 
L 539.544076 395.445144 
L 539.763629 478.124482 
L 539.983182 304.321355 
L 540.202735 373.199565 
L 540.422288 310.339134 
L 540.641842 519.733576 
L 540.861395 476.831179 
L 541.080948 463.942559 
L 541.300501 348.965225 
L 541.520054 387.670335 
L 541.739607 503.177625 
L 541.95916 131.956182 
L 542.178714 401.913882 
L 542.398267 457.945402 
L 542.61782 471.029407 
L 542.837373 532.72148 
L 543.056926 431.008976 
L 543.276479 502.232139 
L 543.496033 444.61 
L 543.715586 522.806298 
L 543.935139 385.257065 
L 544.154692 318.047675 
L 544.374245 512.017034 
L 544.593798 576.427797 
L 545.032905 453.43058 
L 545.472011 425.436862 
L 545.911117 469.720612 
L 546.13067 463.691957 
L 546.350224 463.333589 
L 546.569777 435.239702 
L 546.78933 463.925246 
L 547.008883 511.028747 
L 547.228436 448.644757 
L 547.447989 430.689393 
L 547.667542 505.437933 
L 547.887096 394.670647 
L 548.326202 513.607658 
L 548.545755 530.6134 
L 548.765308 402.82022 
L 549.204415 469.94553 
L 549.423968 432.926227 
L 549.643521 422.886607 
L 549.863074 397.008635 
L 550.082627 502.639125 
L 550.30218 495.250817 
L 550.521733 439.481785 
L 550.741287 511.485763 
L 550.96084 314.124985 
L 551.399946 449.425079 
L 551.619499 460.721377 
L 551.839052 450.256945 
L 552.058606 446.046525 
L 552.278159 393.653207 
L 552.497712 490.8653 
L 552.717265 424.591075 
L 552.936818 301.786012 
L 553.156371 475.937665 
L 553.375924 446.121923 
L 553.595478 483.469127 
L 553.815031 460.269112 
L 554.034584 533.338176 
L 554.254137 445.043458 
L 554.47369 505.184101 
L 554.912797 473.85116 
L 555.13235 399.569313 
L 555.351903 374.235817 
L 555.571456 363.947282 
L 555.791009 525.691355 
L 556.010562 492.611429 
L 556.230115 487.869958 
L 556.449669 479.351173 
L 556.669222 388.988311 
L 556.888775 526.37598 
L 557.108328 490.124703 
L 557.327881 395.18385 
L 557.766988 514.44946 
L 557.986541 465.676521 
L 558.206094 517.142771 
L 558.425647 392.997702 
L 558.6452 460.784445 
L 558.864753 454.992974 
L 559.084306 395.157404 
L 559.30386 403.701026 
L 559.523413 479.764933 
L 559.742966 453.802846 
L 559.742966 453.802846 
" style="fill:none;stroke:#96c69a;stroke-linecap:round;stroke-width:3;"/>
   </g>
   <g id="line2d_2"/>
   <g id="patch_3">
    <path d="M 98.911875 603.86 
L 98.911875 109.484571 
" style="fill:none;stroke:#262626;stroke-linecap:square;stroke-linejoin:miter;stroke-width:2.5;"/>
   </g>
   <g id="patch_4">
    <path d="M 98.911875 603.86 
L 581.687304 603.86 
" style="fill:none;stroke:#262626;stroke-linecap:square;stroke-linejoin:miter;stroke-width:2.5;"/>
   </g>
   <g id="legend_1">
    <g id="patch_5">
     <path d="M 521.813866 598.86 
L 574.687304 598.86 
Q 576.687304 598.86 576.687304 596.86 
L 576.687304 554.954375 
Q 576.687304 552.954375 574.687304 552.954375 
L 521.813866 552.954375 
Q 519.813866 552.954375 519.813866 554.954375 
L 519.813866 596.86 
Q 519.813866 598.86 521.813866 598.86 
z
" style="fill:#ffffff;opacity:0.8;stroke:#cccccc;stroke-linejoin:miter;stroke-width:2;"/>
    </g>
    <g id="text_17">
     <!-- $n_\tau$ -->
     <g style="fill:#262626;" transform="translate(535.170585 575.190625)scale(0.24 -0.24)">
      <defs>
       <path d="M 3566 2113 
L 3156 0 
L 2578 0 
L 2988 2091 
Q 3016 2238 3031 2350 
Q 3047 2463 3047 2528 
Q 3047 2791 2881 2937 
Q 2716 3084 2419 3084 
Q 1956 3084 1622 2776 
Q 1288 2469 1184 1941 
L 800 0 
L 225 0 
L 903 3500 
L 1478 3500 
L 1363 2950 
Q 1603 3253 1940 3418 
Q 2278 3584 2650 3584 
Q 3113 3584 3367 3334 
Q 3622 3084 3622 2631 
Q 3622 2519 3608 2391 
Q 3594 2263 3566 2113 
z
" id="DejaVuSans-Oblique-6e" transform="scale(0.015625)"/>
       <path d="M 2103 638 
Q 2188 488 2525 488 
L 2800 488 
L 2706 0 
L 2363 0 
Q 1800 0 1600 300 
Q 1403 606 1534 1269 
L 1856 2925 
L 541 2925 
L 653 3500 
L 3881 3500 
L 3769 2925 
L 2444 2925 
L 2113 1234 
Q 2025 781 2103 638 
z
" id="DejaVuSans-Oblique-3c4" transform="scale(0.015625)"/>
      </defs>
      <use xlink:href="#DejaVuSans-Oblique-6e"/>
      <use transform="translate(63.378906 -16.40625)scale(0.7)" xlink:href="#DejaVuSans-Oblique-3c4"/>
     </g>
    </g>
    <g id="line2d_3">
     <path d="M 523.813866 589.280313 
L 543.813866 589.280313 
" style="fill:none;stroke:#96c69a;stroke-linecap:round;stroke-width:3;"/>
    </g>
    <g id="line2d_4"/>
    <g id="text_18">
     <!-- 160 -->
     <g style="fill:#262626;" transform="translate(551.813866 592.780313)scale(0.1 -0.1)">
      <defs>
       <path d="M 750 831 
L 1813 831 
L 1813 3847 
L 722 3622 
L 722 4441 
L 1806 4666 
L 2950 4666 
L 2950 831 
L 4013 831 
L 4013 0 
L 750 0 
L 750 831 
z
" id="DejaVuSans-Bold-31" transform="scale(0.015625)"/>
       <path d="M 2316 2303 
Q 2000 2303 1842 2098 
Q 1684 1894 1684 1484 
Q 1684 1075 1842 870 
Q 2000 666 2316 666 
Q 2634 666 2792 870 
Q 2950 1075 2950 1484 
Q 2950 1894 2792 2098 
Q 2634 2303 2316 2303 
z
M 3803 4544 
L 3803 3681 
Q 3506 3822 3243 3889 
Q 2981 3956 2731 3956 
Q 2194 3956 1894 3657 
Q 1594 3359 1544 2772 
Q 1750 2925 1990 3001 
Q 2231 3078 2516 3078 
Q 3231 3078 3670 2659 
Q 4109 2241 4109 1563 
Q 4109 813 3618 361 
Q 3128 -91 2303 -91 
Q 1394 -91 895 523 
Q 397 1138 397 2266 
Q 397 3422 980 4083 
Q 1563 4744 2578 4744 
Q 2900 4744 3203 4694 
Q 3506 4644 3803 4544 
z
" id="DejaVuSans-Bold-36" transform="scale(0.015625)"/>
       <path d="M 2944 2338 
Q 2944 3213 2780 3570 
Q 2616 3928 2228 3928 
Q 1841 3928 1675 3570 
Q 1509 3213 1509 2338 
Q 1509 1453 1675 1090 
Q 1841 728 2228 728 
Q 2613 728 2778 1090 
Q 2944 1453 2944 2338 
z
M 4147 2328 
Q 4147 1169 3647 539 
Q 3147 -91 2228 -91 
Q 1306 -91 806 539 
Q 306 1169 306 2328 
Q 306 3491 806 4120 
Q 1306 4750 2228 4750 
Q 3147 4750 3647 4120 
Q 4147 3491 4147 2328 
z
" id="DejaVuSans-Bold-30" transform="scale(0.015625)"/>
      </defs>
      <use xlink:href="#DejaVuSans-Bold-31"/>
      <use x="69.580078" xlink:href="#DejaVuSans-Bold-36"/>
      <use x="139.160156" xlink:href="#DejaVuSans-Bold-30"/>
     </g>
    </g>
   </g>
  </g>
  <g id="axes_2">
   <g id="patch_6">
    <path d="M 98.911875 92.437143 
L 581.687304 92.437143 
L 581.687304 7.2 
L 98.911875 7.2 
z
" style="fill:none;"/>
   </g>
   <g id="matplotlib.axis_3">
    <g id="xtick_7"/>
    <g id="xtick_8"/>
    <g id="xtick_9"/>
    <g id="xtick_10"/>
    <g id="xtick_11"/>
    <g id="xtick_12"/>
   </g>
   <g id="matplotlib.axis_4">
    <g id="ytick_9">
     <g id="text_19">
      <!-- 0 -->
      <g style="fill:#262626;" transform="translate(69.414375 100.795424)scale(0.22 -0.22)">
       <use xlink:href="#DejaVuSans-30"/>
      </g>
     </g>
    </g>
    <g id="ytick_10">
     <g id="text_20">
      <!-- 100 -->
      <g style="fill:#262626;" transform="translate(41.419375 48.082287)scale(0.22 -0.22)">
       <use xlink:href="#DejaVuSans-31"/>
       <use x="63.623047" xlink:href="#DejaVuSans-30"/>
       <use x="127.246094" xlink:href="#DejaVuSans-30"/>
      </g>
     </g>
    </g>
   </g>
   <g id="patch_7">
    <path clip-path="url(#p888de6d14b)" d="M 120.856213 92.437143 
L 154.616732 92.437143 
L 154.616732 11.258912 
L 120.856213 11.258912 
z
" style="fill:#96c69a;fill-opacity:0.5;stroke:#ffffff;stroke-linejoin:miter;stroke-width:2;"/>
   </g>
   <g id="patch_8">
    <path clip-path="url(#p888de6d14b)" d="M 154.616732 92.437143 
L 188.377252 92.437143 
L 188.377252 11.258912 
L 154.616732 11.258912 
z
" style="fill:#96c69a;fill-opacity:0.5;stroke:#ffffff;stroke-linejoin:miter;stroke-width:2;"/>
   </g>
   <g id="patch_9">
    <path clip-path="url(#p888de6d14b)" d="M 188.377252 92.437143 
L 222.137771 92.437143 
L 222.137771 11.258912 
L 188.377252 11.258912 
z
" style="fill:#96c69a;fill-opacity:0.5;stroke:#ffffff;stroke-linejoin:miter;stroke-width:2;"/>
   </g>
   <g id="patch_10">
    <path clip-path="url(#p888de6d14b)" d="M 222.137771 92.437143 
L 255.898291 92.437143 
L 255.898291 11.258912 
L 222.137771 11.258912 
z
" style="fill:#96c69a;fill-opacity:0.5;stroke:#ffffff;stroke-linejoin:miter;stroke-width:2;"/>
   </g>
   <g id="patch_11">
    <path clip-path="url(#p888de6d14b)" d="M 255.898291 92.437143 
L 289.65881 92.437143 
L 289.65881 11.786043 
L 255.898291 11.786043 
z
" style="fill:#96c69a;fill-opacity:0.5;stroke:#ffffff;stroke-linejoin:miter;stroke-width:2;"/>
   </g>
   <g id="patch_12">
    <path clip-path="url(#p888de6d14b)" d="M 289.65881 92.437143 
L 323.41933 92.437143 
L 323.41933 11.258912 
L 289.65881 11.258912 
z
" style="fill:#96c69a;fill-opacity:0.5;stroke:#ffffff;stroke-linejoin:miter;stroke-width:2;"/>
   </g>
   <g id="patch_13">
    <path clip-path="url(#p888de6d14b)" d="M 323.41933 92.437143 
L 357.179849 92.437143 
L 357.179849 11.258912 
L 323.41933 11.258912 
z
" style="fill:#96c69a;fill-opacity:0.5;stroke:#ffffff;stroke-linejoin:miter;stroke-width:2;"/>
   </g>
   <g id="patch_14">
    <path clip-path="url(#p888de6d14b)" d="M 357.179849 92.437143 
L 390.940369 92.437143 
L 390.940369 11.258912 
L 357.179849 11.258912 
z
" style="fill:#96c69a;fill-opacity:0.5;stroke:#ffffff;stroke-linejoin:miter;stroke-width:2;"/>
   </g>
   <g id="patch_15">
    <path clip-path="url(#p888de6d14b)" d="M 390.940369 92.437143 
L 424.700888 92.437143 
L 424.700888 11.786043 
L 390.940369 11.786043 
z
" style="fill:#96c69a;fill-opacity:0.5;stroke:#ffffff;stroke-linejoin:miter;stroke-width:2;"/>
   </g>
   <g id="patch_16">
    <path clip-path="url(#p888de6d14b)" d="M 424.700888 92.437143 
L 458.461407 92.437143 
L 458.461407 11.258912 
L 424.700888 11.258912 
z
" style="fill:#96c69a;fill-opacity:0.5;stroke:#ffffff;stroke-linejoin:miter;stroke-width:2;"/>
   </g>
   <g id="patch_17">
    <path clip-path="url(#p888de6d14b)" d="M 458.461407 92.437143 
L 492.221927 92.437143 
L 492.221927 11.258912 
L 458.461407 11.258912 
z
" style="fill:#96c69a;fill-opacity:0.5;stroke:#ffffff;stroke-linejoin:miter;stroke-width:2;"/>
   </g>
   <g id="patch_18">
    <path clip-path="url(#p888de6d14b)" d="M 492.221927 92.437143 
L 525.982446 92.437143 
L 525.982446 11.258912 
L 492.221927 11.258912 
z
" style="fill:#96c69a;fill-opacity:0.5;stroke:#ffffff;stroke-linejoin:miter;stroke-width:2;"/>
   </g>
   <g id="patch_19">
    <path clip-path="url(#p888de6d14b)" d="M 525.982446 92.437143 
L 559.742966 92.437143 
L 559.742966 11.258912 
L 525.982446 11.258912 
z
" style="fill:#96c69a;fill-opacity:0.5;stroke:#ffffff;stroke-linejoin:miter;stroke-width:2;"/>
   </g>
   <g id="patch_20">
    <path d="M 98.911875 92.437143 
L 98.911875 7.2 
" style="fill:none;stroke:#262626;stroke-linecap:square;stroke-linejoin:miter;stroke-width:2.5;"/>
   </g>
   <g id="patch_21">
    <path d="M 98.911875 92.437143 
L 581.687304 92.437143 
" style="fill:none;stroke:#262626;stroke-linecap:square;stroke-linejoin:miter;stroke-width:2.5;"/>
   </g>
  </g>
  <g id="axes_3">
   <g id="patch_22">
    <path d="M 598.334732 603.86 
L 681.571875 603.86 
L 681.571875 109.484571 
L 598.334732 109.484571 
z
" style="fill:none;"/>
   </g>
   <g id="matplotlib.axis_5">
    <g id="xtick_13">
     <g id="text_21">
      <!-- 0 -->
      <g style="fill:#262626;" transform="translate(591.335982 636.076563)scale(0.22 -0.22)">
       <use xlink:href="#DejaVuSans-30"/>
      </g>
     </g>
    </g>
    <g id="xtick_14">
     <g id="text_22">
      <!-- 200 -->
      <g style="fill:#262626;" transform="translate(659.915013 636.076563)scale(0.22 -0.22)">
       <use xlink:href="#DejaVuSans-32"/>
       <use x="63.623047" xlink:href="#DejaVuSans-30"/>
       <use x="127.246094" xlink:href="#DejaVuSans-30"/>
      </g>
     </g>
    </g>
   </g>
   <g id="matplotlib.axis_6">
    <g id="ytick_11"/>
    <g id="ytick_12"/>
    <g id="ytick_13"/>
    <g id="ytick_14"/>
    <g id="ytick_15"/>
    <g id="ytick_16"/>
    <g id="ytick_17"/>
    <g id="ytick_18"/>
   </g>
   <g id="patch_23">
    <path clip-path="url(#p1a898c497b)" d="M 598.334732 581.38839 
L 601.224911 581.38839 
L 601.224911 568.547469 
L 598.334732 568.547469 
z
" style="fill:#96c69a;fill-opacity:0.5;stroke:#ffffff;stroke-linejoin:miter;stroke-width:1.284092;"/>
   </g>
   <g id="patch_24">
    <path clip-path="url(#p1a898c497b)" d="M 598.334732 568.547469 
L 602.050676 568.547469 
L 602.050676 555.706549 
L 598.334732 555.706549 
z
" style="fill:#96c69a;fill-opacity:0.5;stroke:#ffffff;stroke-linejoin:miter;stroke-width:1.284092;"/>
   </g>
   <g id="patch_25">
    <path clip-path="url(#p1a898c497b)" d="M 598.334732 555.706549 
L 608.243916 555.706549 
L 608.243916 542.865629 
L 598.334732 542.865629 
z
" style="fill:#96c69a;fill-opacity:0.5;stroke:#ffffff;stroke-linejoin:miter;stroke-width:1.284092;"/>
   </g>
   <g id="patch_26">
    <path clip-path="url(#p1a898c497b)" d="M 598.334732 542.865629 
L 621.456161 542.865629 
L 621.456161 530.024709 
L 598.334732 530.024709 
z
" style="fill:#96c69a;fill-opacity:0.5;stroke:#ffffff;stroke-linejoin:miter;stroke-width:1.284092;"/>
   </g>
   <g id="patch_27">
    <path clip-path="url(#p1a898c497b)" d="M 598.334732 530.024709 
L 637.145702 530.024709 
L 637.145702 517.183788 
L 598.334732 517.183788 
z
" style="fill:#96c69a;fill-opacity:0.5;stroke:#ffffff;stroke-linejoin:miter;stroke-width:1.284092;"/>
   </g>
   <g id="patch_28">
    <path clip-path="url(#p1a898c497b)" d="M 598.334732 517.183788 
L 638.384349 517.183788 
L 638.384349 504.342868 
L 598.334732 504.342868 
z
" style="fill:#96c69a;fill-opacity:0.5;stroke:#ffffff;stroke-linejoin:miter;stroke-width:1.284092;"/>
   </g>
   <g id="patch_29">
    <path clip-path="url(#p1a898c497b)" d="M 598.334732 504.342868 
L 657.789834 504.342868 
L 657.789834 491.501948 
L 598.334732 491.501948 
z
" style="fill:#96c69a;fill-opacity:0.5;stroke:#ffffff;stroke-linejoin:miter;stroke-width:1.284092;"/>
   </g>
   <g id="patch_30">
    <path clip-path="url(#p1a898c497b)" d="M 598.334732 491.501948 
L 669.350548 491.501948 
L 669.350548 478.661028 
L 598.334732 478.661028 
z
" style="fill:#96c69a;fill-opacity:0.5;stroke:#ffffff;stroke-linejoin:miter;stroke-width:1.284092;"/>
   </g>
   <g id="patch_31">
    <path clip-path="url(#p1a898c497b)" d="M 598.334732 478.661028 
L 666.873253 478.661028 
L 666.873253 465.820108 
L 598.334732 465.820108 
z
" style="fill:#96c69a;fill-opacity:0.5;stroke:#ffffff;stroke-linejoin:miter;stroke-width:1.284092;"/>
   </g>
   <g id="patch_32">
    <path clip-path="url(#p1a898c497b)" d="M 598.334732 465.820108 
L 677.608202 465.820108 
L 677.608202 452.979187 
L 598.334732 452.979187 
z
" style="fill:#96c69a;fill-opacity:0.5;stroke:#ffffff;stroke-linejoin:miter;stroke-width:1.284092;"/>
   </g>
   <g id="patch_33">
    <path clip-path="url(#p1a898c497b)" d="M 598.334732 452.979187 
L 666.047487 452.979187 
L 666.047487 440.138267 
L 598.334732 440.138267 
z
" style="fill:#96c69a;fill-opacity:0.5;stroke:#ffffff;stroke-linejoin:miter;stroke-width:1.284092;"/>
   </g>
   <g id="patch_34">
    <path clip-path="url(#p1a898c497b)" d="M 598.334732 440.138267 
L 672.240727 440.138267 
L 672.240727 427.297347 
L 598.334732 427.297347 
z
" style="fill:#96c69a;fill-opacity:0.5;stroke:#ffffff;stroke-linejoin:miter;stroke-width:1.284092;"/>
   </g>
   <g id="patch_35">
    <path clip-path="url(#p1a898c497b)" d="M 598.334732 427.297347 
L 649.945064 427.297347 
L 649.945064 414.456427 
L 598.334732 414.456427 
z
" style="fill:#96c69a;fill-opacity:0.5;stroke:#ffffff;stroke-linejoin:miter;stroke-width:1.284092;"/>
   </g>
   <g id="patch_36">
    <path clip-path="url(#p1a898c497b)" d="M 598.334732 414.456427 
L 636.732819 414.456427 
L 636.732819 401.615506 
L 598.334732 401.615506 
z
" style="fill:#96c69a;fill-opacity:0.5;stroke:#ffffff;stroke-linejoin:miter;stroke-width:1.284092;"/>
   </g>
   <g id="patch_37">
    <path clip-path="url(#p1a898c497b)" d="M 598.334732 401.615506 
L 643.338941 401.615506 
L 643.338941 388.774586 
L 598.334732 388.774586 
z
" style="fill:#96c69a;fill-opacity:0.5;stroke:#ffffff;stroke-linejoin:miter;stroke-width:1.284092;"/>
   </g>
   <g id="patch_38">
    <path clip-path="url(#p1a898c497b)" d="M 598.334732 388.774586 
L 632.19111 388.774586 
L 632.19111 375.933666 
L 598.334732 375.933666 
z
" style="fill:#96c69a;fill-opacity:0.5;stroke:#ffffff;stroke-linejoin:miter;stroke-width:1.284092;"/>
   </g>
   <g id="patch_39">
    <path clip-path="url(#p1a898c497b)" d="M 598.334732 375.933666 
L 621.869043 375.933666 
L 621.869043 363.092746 
L 598.334732 363.092746 
z
" style="fill:#96c69a;fill-opacity:0.5;stroke:#ffffff;stroke-linejoin:miter;stroke-width:1.284092;"/>
   </g>
   <g id="patch_40">
    <path clip-path="url(#p1a898c497b)" d="M 598.334732 363.092746 
L 622.281926 363.092746 
L 622.281926 350.251826 
L 598.334732 350.251826 
z
" style="fill:#96c69a;fill-opacity:0.5;stroke:#ffffff;stroke-linejoin:miter;stroke-width:1.284092;"/>
   </g>
   <g id="patch_41">
    <path clip-path="url(#p1a898c497b)" d="M 598.334732 350.251826 
L 611.134094 350.251826 
L 611.134094 337.410905 
L 598.334732 337.410905 
z
" style="fill:#96c69a;fill-opacity:0.5;stroke:#ffffff;stroke-linejoin:miter;stroke-width:1.284092;"/>
   </g>
   <g id="patch_42">
    <path clip-path="url(#p1a898c497b)" d="M 598.334732 337.410905 
L 607.418151 337.410905 
L 607.418151 324.569985 
L 598.334732 324.569985 
z
" style="fill:#96c69a;fill-opacity:0.5;stroke:#ffffff;stroke-linejoin:miter;stroke-width:1.284092;"/>
   </g>
   <g id="patch_43">
    <path clip-path="url(#p1a898c497b)" d="M 598.334732 324.569985 
L 610.308329 324.569985 
L 610.308329 311.729065 
L 598.334732 311.729065 
z
" style="fill:#96c69a;fill-opacity:0.5;stroke:#ffffff;stroke-linejoin:miter;stroke-width:1.284092;"/>
   </g>
   <g id="patch_44">
    <path clip-path="url(#p1a898c497b)" d="M 598.334732 311.729065 
L 607.418151 311.729065 
L 607.418151 298.888145 
L 598.334732 298.888145 
z
" style="fill:#96c69a;fill-opacity:0.5;stroke:#ffffff;stroke-linejoin:miter;stroke-width:1.284092;"/>
   </g>
   <g id="patch_45">
    <path clip-path="url(#p1a898c497b)" d="M 598.334732 298.888145 
L 604.527972 298.888145 
L 604.527972 286.047224 
L 598.334732 286.047224 
z
" style="fill:#96c69a;fill-opacity:0.5;stroke:#ffffff;stroke-linejoin:miter;stroke-width:1.284092;"/>
   </g>
   <g id="patch_46">
    <path clip-path="url(#p1a898c497b)" d="M 598.334732 286.047224 
L 602.876441 286.047224 
L 602.876441 273.206304 
L 598.334732 273.206304 
z
" style="fill:#96c69a;fill-opacity:0.5;stroke:#ffffff;stroke-linejoin:miter;stroke-width:1.284092;"/>
   </g>
   <g id="patch_47">
    <path clip-path="url(#p1a898c497b)" d="M 598.334732 273.206304 
L 602.876441 273.206304 
L 602.876441 260.365384 
L 598.334732 260.365384 
z
" style="fill:#96c69a;fill-opacity:0.5;stroke:#ffffff;stroke-linejoin:miter;stroke-width:1.284092;"/>
   </g>
   <g id="patch_48">
    <path clip-path="url(#p1a898c497b)" d="M 598.334732 260.365384 
L 600.399145 260.365384 
L 600.399145 247.524464 
L 598.334732 247.524464 
z
" style="fill:#96c69a;fill-opacity:0.5;stroke:#ffffff;stroke-linejoin:miter;stroke-width:1.284092;"/>
   </g>
   <g id="patch_49">
    <path clip-path="url(#p1a898c497b)" d="M 598.334732 247.524464 
L 599.986263 247.524464 
L 599.986263 234.683544 
L 598.334732 234.683544 
z
" style="fill:#96c69a;fill-opacity:0.5;stroke:#ffffff;stroke-linejoin:miter;stroke-width:1.284092;"/>
   </g>
   <g id="patch_50">
    <path clip-path="url(#p1a898c497b)" d="M 598.334732 234.683544 
L 601.637793 234.683544 
L 601.637793 221.842623 
L 598.334732 221.842623 
z
" style="fill:#96c69a;fill-opacity:0.5;stroke:#ffffff;stroke-linejoin:miter;stroke-width:1.284092;"/>
   </g>
   <g id="patch_51">
    <path clip-path="url(#p1a898c497b)" d="M 598.334732 221.842623 
L 599.986263 221.842623 
L 599.986263 209.001703 
L 598.334732 209.001703 
z
" style="fill:#96c69a;fill-opacity:0.5;stroke:#ffffff;stroke-linejoin:miter;stroke-width:1.284092;"/>
   </g>
   <g id="patch_52">
    <path clip-path="url(#p1a898c497b)" d="M 598.334732 209.001703 
L 599.57338 209.001703 
L 599.57338 196.160783 
L 598.334732 196.160783 
z
" style="fill:#96c69a;fill-opacity:0.5;stroke:#ffffff;stroke-linejoin:miter;stroke-width:1.284092;"/>
   </g>
   <g id="patch_53">
    <path clip-path="url(#p1a898c497b)" d="M 598.334732 196.160783 
L 599.160497 196.160783 
L 599.160497 183.319863 
L 598.334732 183.319863 
z
" style="fill:#96c69a;fill-opacity:0.5;stroke:#ffffff;stroke-linejoin:miter;stroke-width:1.284092;"/>
   </g>
   <g id="patch_54">
    <path clip-path="url(#p1a898c497b)" d="M 598.334732 183.319863 
L 599.160497 183.319863 
L 599.160497 170.478942 
L 598.334732 170.478942 
z
" style="fill:#96c69a;fill-opacity:0.5;stroke:#ffffff;stroke-linejoin:miter;stroke-width:1.284092;"/>
   </g>
   <g id="patch_55">
    <path clip-path="url(#p1a898c497b)" d="M 598.334732 170.478942 
L 599.160497 170.478942 
L 599.160497 157.638022 
L 598.334732 157.638022 
z
" style="fill:#96c69a;fill-opacity:0.5;stroke:#ffffff;stroke-linejoin:miter;stroke-width:1.284092;"/>
   </g>
   <g id="patch_56">
    <path clip-path="url(#p1a898c497b)" d="M 598.334732 157.638022 
L 598.334732 157.638022 
L 598.334732 144.797102 
L 598.334732 144.797102 
z
" style="fill:#96c69a;fill-opacity:0.5;stroke:#ffffff;stroke-linejoin:miter;stroke-width:1.284092;"/>
   </g>
   <g id="patch_57">
    <path clip-path="url(#p1a898c497b)" d="M 598.334732 144.797102 
L 598.747615 144.797102 
L 598.747615 131.956182 
L 598.334732 131.956182 
z
" style="fill:#96c69a;fill-opacity:0.5;stroke:#ffffff;stroke-linejoin:miter;stroke-width:1.284092;"/>
   </g>
   <g id="patch_58">
    <path d="M 598.334732 603.86 
L 598.334732 109.484571 
" style="fill:none;stroke:#262626;stroke-linecap:square;stroke-linejoin:miter;stroke-width:2.5;"/>
   </g>
   <g id="patch_59">
    <path d="M 598.334732 603.86 
L 681.571875 603.86 
" style="fill:none;stroke:#262626;stroke-linecap:square;stroke-linejoin:miter;stroke-width:2.5;"/>
   </g>
  </g>
 </g>
 <defs>
  <clipPath id="p09e884d0a7">
   <rect height="494.375429" width="482.775429" x="98.911875" y="109.484571"/>
  </clipPath>
  <clipPath id="p888de6d14b">
   <rect height="85.237143" width="482.775429" x="98.911875" y="7.2"/>
  </clipPath>
  <clipPath id="p1a898c497b">
   <rect height="494.375429" width="83.237143" x="598.334732" y="109.484571"/>
  </clipPath>
 </defs>
</svg>
