<?xml version="1.0" encoding="utf-8" standalone="no"?>
<!DOCTYPE svg PUBLIC "-//W3C//DTD SVG 1.1//EN"
  "http://www.w3.org/Graphics/SVG/1.1/DTD/svg11.dtd">
<svg height="675.079375pt" version="1.1" viewBox="0 0 674.774375 675.079375" width="674.774375pt" xmlns="http://www.w3.org/2000/svg" xmlns:xlink="http://www.w3.org/1999/xlink">
 <metadata>
  <rdf:RDF xmlns:cc="http://creativecommons.org/ns#" xmlns:dc="http://purl.org/dc/elements/1.1/" xmlns:rdf="http://www.w3.org/1999/02/22-rdf-syntax-ns#">
   <cc:Work>
    <dc:type rdf:resource="http://purl.org/dc/dcmitype/StillImage"/>
    <dc:date>2021-07-16T21:43:51.327468</dc:date>
    <dc:format>image/svg+xml</dc:format>
    <dc:creator>
     <cc:Agent>
      <dc:title>Matplotlib v3.4.2, https://matplotlib.org/</dc:title>
     </cc:Agent>
    </dc:creator>
   </cc:Work>
  </rdf:RDF>
 </metadata>
 <defs>
  <style type="text/css">*{stroke-linecap:butt;stroke-linejoin:round;}</style>
 </defs>
 <g id="figure_1">
  <g id="patch_1">
   <path d="M 0 675.079375 
L 674.774375 675.079375 
L 674.774375 0 
L 0 0 
z
" style="fill:#ffffff;"/>
  </g>
  <g id="axes_1">
   <g id="patch_2">
    <path d="M 84.914375 603.86 
L 567.689804 603.86 
L 567.689804 109.484571 
L 84.914375 109.484571 
z
" style="fill:none;"/>
   </g>
   <g id="matplotlib.axis_1">
    <g id="xtick_1">
     <g id="text_1">
      <!-- 0 -->
      <g style="fill:#262626;" transform="translate(99.64041 636.076563)scale(0.22 -0.22)">
       <defs>
        <path d="M 2034 4250 
Q 1547 4250 1301 3770 
Q 1056 3291 1056 2328 
Q 1056 1369 1301 889 
Q 1547 409 2034 409 
Q 2525 409 2770 889 
Q 3016 1369 3016 2328 
Q 3016 3291 2770 3770 
Q 2525 4250 2034 4250 
z
M 2034 4750 
Q 2819 4750 3233 4129 
Q 3647 3509 3647 2328 
Q 3647 1150 3233 529 
Q 2819 -91 2034 -91 
Q 1250 -91 836 529 
Q 422 1150 422 2328 
Q 422 3509 836 4129 
Q 1250 4750 2034 4750 
z
" id="DejaVuSans-30" transform="scale(0.015625)"/>
       </defs>
       <use xlink:href="#DejaVuSans-30"/>
      </g>
     </g>
    </g>
    <g id="xtick_2">
     <g id="text_2">
      <!-- 20000 -->
      <g style="fill:#262626;" transform="translate(159.466671 636.076563)scale(0.22 -0.22)">
       <defs>
        <path d="M 1228 531 
L 3431 531 
L 3431 0 
L 469 0 
L 469 531 
Q 828 903 1448 1529 
Q 2069 2156 2228 2338 
Q 2531 2678 2651 2914 
Q 2772 3150 2772 3378 
Q 2772 3750 2511 3984 
Q 2250 4219 1831 4219 
Q 1534 4219 1204 4116 
Q 875 4013 500 3803 
L 500 4441 
Q 881 4594 1212 4672 
Q 1544 4750 1819 4750 
Q 2544 4750 2975 4387 
Q 3406 4025 3406 3419 
Q 3406 3131 3298 2873 
Q 3191 2616 2906 2266 
Q 2828 2175 2409 1742 
Q 1991 1309 1228 531 
z
" id="DejaVuSans-32" transform="scale(0.015625)"/>
       </defs>
       <use xlink:href="#DejaVuSans-32"/>
       <use x="63.623047" xlink:href="#DejaVuSans-30"/>
       <use x="127.246094" xlink:href="#DejaVuSans-30"/>
       <use x="190.869141" xlink:href="#DejaVuSans-30"/>
       <use x="254.492188" xlink:href="#DejaVuSans-30"/>
      </g>
     </g>
    </g>
    <g id="xtick_3">
     <g id="text_3">
      <!-- 40000 -->
      <g style="fill:#262626;" transform="translate(247.287932 636.076563)scale(0.22 -0.22)">
       <defs>
        <path d="M 2419 4116 
L 825 1625 
L 2419 1625 
L 2419 4116 
z
M 2253 4666 
L 3047 4666 
L 3047 1625 
L 3713 1625 
L 3713 1100 
L 3047 1100 
L 3047 0 
L 2419 0 
L 2419 1100 
L 313 1100 
L 313 1709 
L 2253 4666 
z
" id="DejaVuSans-34" transform="scale(0.015625)"/>
       </defs>
       <use xlink:href="#DejaVuSans-34"/>
       <use x="63.623047" xlink:href="#DejaVuSans-30"/>
       <use x="127.246094" xlink:href="#DejaVuSans-30"/>
       <use x="190.869141" xlink:href="#DejaVuSans-30"/>
       <use x="254.492188" xlink:href="#DejaVuSans-30"/>
      </g>
     </g>
    </g>
    <g id="xtick_4">
     <g id="text_4">
      <!-- 60000 -->
      <g style="fill:#262626;" transform="translate(335.109193 636.076563)scale(0.22 -0.22)">
       <defs>
        <path d="M 2113 2584 
Q 1688 2584 1439 2293 
Q 1191 2003 1191 1497 
Q 1191 994 1439 701 
Q 1688 409 2113 409 
Q 2538 409 2786 701 
Q 3034 994 3034 1497 
Q 3034 2003 2786 2293 
Q 2538 2584 2113 2584 
z
M 3366 4563 
L 3366 3988 
Q 3128 4100 2886 4159 
Q 2644 4219 2406 4219 
Q 1781 4219 1451 3797 
Q 1122 3375 1075 2522 
Q 1259 2794 1537 2939 
Q 1816 3084 2150 3084 
Q 2853 3084 3261 2657 
Q 3669 2231 3669 1497 
Q 3669 778 3244 343 
Q 2819 -91 2113 -91 
Q 1303 -91 875 529 
Q 447 1150 447 2328 
Q 447 3434 972 4092 
Q 1497 4750 2381 4750 
Q 2619 4750 2861 4703 
Q 3103 4656 3366 4563 
z
" id="DejaVuSans-36" transform="scale(0.015625)"/>
       </defs>
       <use xlink:href="#DejaVuSans-36"/>
       <use x="63.623047" xlink:href="#DejaVuSans-30"/>
       <use x="127.246094" xlink:href="#DejaVuSans-30"/>
       <use x="190.869141" xlink:href="#DejaVuSans-30"/>
       <use x="254.492188" xlink:href="#DejaVuSans-30"/>
      </g>
     </g>
    </g>
    <g id="xtick_5">
     <g id="text_5">
      <!-- 80000 -->
      <g style="fill:#262626;" transform="translate(422.930455 636.076563)scale(0.22 -0.22)">
       <defs>
        <path d="M 2034 2216 
Q 1584 2216 1326 1975 
Q 1069 1734 1069 1313 
Q 1069 891 1326 650 
Q 1584 409 2034 409 
Q 2484 409 2743 651 
Q 3003 894 3003 1313 
Q 3003 1734 2745 1975 
Q 2488 2216 2034 2216 
z
M 1403 2484 
Q 997 2584 770 2862 
Q 544 3141 544 3541 
Q 544 4100 942 4425 
Q 1341 4750 2034 4750 
Q 2731 4750 3128 4425 
Q 3525 4100 3525 3541 
Q 3525 3141 3298 2862 
Q 3072 2584 2669 2484 
Q 3125 2378 3379 2068 
Q 3634 1759 3634 1313 
Q 3634 634 3220 271 
Q 2806 -91 2034 -91 
Q 1263 -91 848 271 
Q 434 634 434 1313 
Q 434 1759 690 2068 
Q 947 2378 1403 2484 
z
M 1172 3481 
Q 1172 3119 1398 2916 
Q 1625 2713 2034 2713 
Q 2441 2713 2670 2916 
Q 2900 3119 2900 3481 
Q 2900 3844 2670 4047 
Q 2441 4250 2034 4250 
Q 1625 4250 1398 4047 
Q 1172 3844 1172 3481 
z
" id="DejaVuSans-38" transform="scale(0.015625)"/>
       </defs>
       <use xlink:href="#DejaVuSans-38"/>
       <use x="63.623047" xlink:href="#DejaVuSans-30"/>
       <use x="127.246094" xlink:href="#DejaVuSans-30"/>
       <use x="190.869141" xlink:href="#DejaVuSans-30"/>
       <use x="254.492188" xlink:href="#DejaVuSans-30"/>
      </g>
     </g>
    </g>
    <g id="xtick_6">
     <g id="text_6">
      <!-- 100000 -->
      <g style="fill:#262626;" transform="translate(503.752966 636.076563)scale(0.22 -0.22)">
       <defs>
        <path d="M 794 531 
L 1825 531 
L 1825 4091 
L 703 3866 
L 703 4441 
L 1819 4666 
L 2450 4666 
L 2450 531 
L 3481 531 
L 3481 0 
L 794 0 
L 794 531 
z
" id="DejaVuSans-31" transform="scale(0.015625)"/>
       </defs>
       <use xlink:href="#DejaVuSans-31"/>
       <use x="63.623047" xlink:href="#DejaVuSans-30"/>
       <use x="127.246094" xlink:href="#DejaVuSans-30"/>
       <use x="190.869141" xlink:href="#DejaVuSans-30"/>
       <use x="254.492188" xlink:href="#DejaVuSans-30"/>
       <use x="318.115234" xlink:href="#DejaVuSans-30"/>
      </g>
     </g>
    </g>
    <g id="text_7">
     <!-- MDTU -->
     <g style="fill:#262626;" transform="translate(290.596464 662.888125)scale(0.24 -0.24)">
      <defs>
       <path d="M 628 4666 
L 1569 4666 
L 2759 1491 
L 3956 4666 
L 4897 4666 
L 4897 0 
L 4281 0 
L 4281 4097 
L 3078 897 
L 2444 897 
L 1241 4097 
L 1241 0 
L 628 0 
L 628 4666 
z
" id="DejaVuSans-4d" transform="scale(0.015625)"/>
       <path d="M 1259 4147 
L 1259 519 
L 2022 519 
Q 2988 519 3436 956 
Q 3884 1394 3884 2338 
Q 3884 3275 3436 3711 
Q 2988 4147 2022 4147 
L 1259 4147 
z
M 628 4666 
L 1925 4666 
Q 3281 4666 3915 4102 
Q 4550 3538 4550 2338 
Q 4550 1131 3912 565 
Q 3275 0 1925 0 
L 628 0 
L 628 4666 
z
" id="DejaVuSans-44" transform="scale(0.015625)"/>
       <path d="M -19 4666 
L 3928 4666 
L 3928 4134 
L 2272 4134 
L 2272 0 
L 1638 0 
L 1638 4134 
L -19 4134 
L -19 4666 
z
" id="DejaVuSans-54" transform="scale(0.015625)"/>
       <path d="M 556 4666 
L 1191 4666 
L 1191 1831 
Q 1191 1081 1462 751 
Q 1734 422 2344 422 
Q 2950 422 3222 751 
Q 3494 1081 3494 1831 
L 3494 4666 
L 4128 4666 
L 4128 1753 
Q 4128 841 3676 375 
Q 3225 -91 2344 -91 
Q 1459 -91 1007 375 
Q 556 841 556 1753 
L 556 4666 
z
" id="DejaVuSans-55" transform="scale(0.015625)"/>
      </defs>
      <use xlink:href="#DejaVuSans-4d"/>
      <use x="86.279297" xlink:href="#DejaVuSans-44"/>
      <use x="163.28125" xlink:href="#DejaVuSans-54"/>
      <use x="224.365234" xlink:href="#DejaVuSans-55"/>
     </g>
    </g>
   </g>
   <g id="matplotlib.axis_2">
    <g id="ytick_1">
     <g id="text_8">
      <!-- 0.3 -->
      <g style="fill:#262626;" transform="translate(34.4275 553.002849)scale(0.22 -0.22)">
       <defs>
        <path d="M 684 794 
L 1344 794 
L 1344 0 
L 684 0 
L 684 794 
z
" id="DejaVuSans-2e" transform="scale(0.015625)"/>
        <path d="M 2597 2516 
Q 3050 2419 3304 2112 
Q 3559 1806 3559 1356 
Q 3559 666 3084 287 
Q 2609 -91 1734 -91 
Q 1441 -91 1130 -33 
Q 819 25 488 141 
L 488 750 
Q 750 597 1062 519 
Q 1375 441 1716 441 
Q 2309 441 2620 675 
Q 2931 909 2931 1356 
Q 2931 1769 2642 2001 
Q 2353 2234 1838 2234 
L 1294 2234 
L 1294 2753 
L 1863 2753 
Q 2328 2753 2575 2939 
Q 2822 3125 2822 3475 
Q 2822 3834 2567 4026 
Q 2313 4219 1838 4219 
Q 1578 4219 1281 4162 
Q 984 4106 628 3988 
L 628 4550 
Q 988 4650 1302 4700 
Q 1616 4750 1894 4750 
Q 2613 4750 3031 4423 
Q 3450 4097 3450 3541 
Q 3450 3153 3228 2886 
Q 3006 2619 2597 2516 
z
" id="DejaVuSans-33" transform="scale(0.015625)"/>
       </defs>
       <use xlink:href="#DejaVuSans-30"/>
       <use x="63.623047" xlink:href="#DejaVuSans-2e"/>
       <use x="95.410156" xlink:href="#DejaVuSans-33"/>
      </g>
     </g>
    </g>
    <g id="ytick_2">
     <g id="text_9">
      <!-- 0.4 -->
      <g style="fill:#262626;" transform="translate(34.4275 478.623362)scale(0.22 -0.22)">
       <use xlink:href="#DejaVuSans-30"/>
       <use x="63.623047" xlink:href="#DejaVuSans-2e"/>
       <use x="95.410156" xlink:href="#DejaVuSans-34"/>
      </g>
     </g>
    </g>
    <g id="ytick_3">
     <g id="text_10">
      <!-- 0.5 -->
      <g style="fill:#262626;" transform="translate(34.4275 404.243876)scale(0.22 -0.22)">
       <defs>
        <path d="M 691 4666 
L 3169 4666 
L 3169 4134 
L 1269 4134 
L 1269 2991 
Q 1406 3038 1543 3061 
Q 1681 3084 1819 3084 
Q 2600 3084 3056 2656 
Q 3513 2228 3513 1497 
Q 3513 744 3044 326 
Q 2575 -91 1722 -91 
Q 1428 -91 1123 -41 
Q 819 9 494 109 
L 494 744 
Q 775 591 1075 516 
Q 1375 441 1709 441 
Q 2250 441 2565 725 
Q 2881 1009 2881 1497 
Q 2881 1984 2565 2268 
Q 2250 2553 1709 2553 
Q 1456 2553 1204 2497 
Q 953 2441 691 2322 
L 691 4666 
z
" id="DejaVuSans-35" transform="scale(0.015625)"/>
       </defs>
       <use xlink:href="#DejaVuSans-30"/>
       <use x="63.623047" xlink:href="#DejaVuSans-2e"/>
       <use x="95.410156" xlink:href="#DejaVuSans-35"/>
      </g>
     </g>
    </g>
    <g id="ytick_4">
     <g id="text_11">
      <!-- 0.6 -->
      <g style="fill:#262626;" transform="translate(34.4275 329.864389)scale(0.22 -0.22)">
       <use xlink:href="#DejaVuSans-30"/>
       <use x="63.623047" xlink:href="#DejaVuSans-2e"/>
       <use x="95.410156" xlink:href="#DejaVuSans-36"/>
      </g>
     </g>
    </g>
    <g id="ytick_5">
     <g id="text_12">
      <!-- 0.7 -->
      <g style="fill:#262626;" transform="translate(34.4275 255.484902)scale(0.22 -0.22)">
       <defs>
        <path d="M 525 4666 
L 3525 4666 
L 3525 4397 
L 1831 0 
L 1172 0 
L 2766 4134 
L 525 4134 
L 525 4666 
z
" id="DejaVuSans-37" transform="scale(0.015625)"/>
       </defs>
       <use xlink:href="#DejaVuSans-30"/>
       <use x="63.623047" xlink:href="#DejaVuSans-2e"/>
       <use x="95.410156" xlink:href="#DejaVuSans-37"/>
      </g>
     </g>
    </g>
    <g id="ytick_6">
     <g id="text_13">
      <!-- 0.8 -->
      <g style="fill:#262626;" transform="translate(34.4275 181.105416)scale(0.22 -0.22)">
       <use xlink:href="#DejaVuSans-30"/>
       <use x="63.623047" xlink:href="#DejaVuSans-2e"/>
       <use x="95.410156" xlink:href="#DejaVuSans-38"/>
      </g>
     </g>
    </g>
    <g id="text_14">
     <!-- $E$ -->
     <g style="fill:#262626;" transform="translate(25.43625 364.352286)rotate(-90)scale(0.24 -0.24)">
      <defs>
       <path d="M 1081 4666 
L 4031 4666 
L 3928 4134 
L 1606 4134 
L 1338 2753 
L 3566 2753 
L 3463 2222 
L 1234 2222 
L 909 531 
L 3284 531 
L 3181 0 
L 172 0 
L 1081 4666 
z
" id="DejaVuSans-Oblique-45" transform="scale(0.015625)"/>
      </defs>
      <use transform="translate(0 0.09375)" xlink:href="#DejaVuSans-Oblique-45"/>
     </g>
    </g>
   </g>
   <g id="line2d_1">
    <path clip-path="url(#p89be90f718)" d="M 106.858713 201.561764 
L 107.297819 491.044025 
L 107.517372 266.610012 
L 107.736925 502.7229 
L 107.956478 411.644073 
L 108.395585 403.112934 
L 108.615138 438.256672 
L 108.834691 507.052172 
L 109.054244 387.400659 
L 109.273797 570.251698 
L 109.493351 424.886329 
L 110.371563 480.575452 
L 110.591116 488.951783 
L 110.810669 512.677302 
L 111.030223 422.645265 
L 111.249776 511.053326 
L 111.469329 476.599828 
L 111.688882 529.524616 
L 111.908435 323.285643 
L 112.127988 273.629035 
L 112.347541 449.017247 
L 112.567095 484.480445 
L 112.786648 376.405693 
L 113.006201 501.317109 
L 113.225754 364.101585 
L 113.445307 462.844142 
L 113.66486 394.37441 
L 113.884414 400.157395 
L 114.103967 419.343652 
L 114.32352 338.448791 
L 114.762626 459.858293 
L 114.982179 455.011016 
L 115.201732 347.365084 
L 115.421286 440.75643 
L 115.640839 382.555303 
L 115.860392 429.949079 
L 116.079945 385.513264 
L 116.299498 512.641895 
L 116.519051 232.919581 
L 116.958158 387.56888 
L 117.177711 354.10761 
L 117.397264 484.71189 
L 117.616817 383.650114 
L 117.83637 567.974843 
L 118.055923 442.98665 
L 118.275477 509.295944 
L 118.49503 300.879707 
L 118.714583 360.641904 
L 118.934136 361.751453 
L 119.153689 340.813165 
L 119.373242 295.668848 
L 119.592796 291.024189 
L 119.812349 496.115652 
L 120.031902 448.860847 
L 120.251455 506.144911 
L 120.471008 374.708224 
L 120.690561 338.311968 
L 121.129668 493.326199 
L 121.349221 409.272476 
L 121.568774 499.154072 
L 121.788327 519.771977 
L 122.00788 285.607991 
L 122.227433 494.719336 
L 122.446987 494.938065 
L 122.66654 309.891616 
L 122.886093 470.921383 
L 123.105646 361.705099 
L 123.325199 492.483541 
L 123.544752 453.036541 
L 123.764305 349.882348 
L 123.983859 453.102682 
L 124.203412 465.229386 
L 124.422965 470.309272 
L 124.862071 416.124716 
L 125.081624 480.690872 
L 125.301178 399.696037 
L 125.520731 436.336333 
L 125.740284 244.019812 
L 126.17939 374.898175 
L 126.398943 410.960233 
L 126.618496 516.430339 
L 126.83805 377.037216 
L 127.057603 371.924549 
L 127.277156 455.166336 
L 127.496709 370.640647 
L 127.716262 367.003937 
L 127.935815 458.76908 
L 128.374922 340.024967 
L 128.594475 538.980891 
L 128.814028 488.344278 
L 129.033581 335.538937 
L 129.253134 452.928097 
L 129.472687 442.847759 
L 129.692241 419.548282 
L 129.911794 478.560606 
L 130.3509 337.547598 
L 130.790006 411.345042 
L 131.00956 527.009799 
L 131.448666 380.101036 
L 131.668219 454.175627 
L 131.887772 412.108383 
L 132.107325 252.593713 
L 132.326878 425.920466 
L 132.546432 350.152286 
L 132.765985 398.787266 
L 132.985538 388.042896 
L 133.205091 383.408141 
L 133.424644 412.020176 
L 133.644197 348.993019 
L 133.863751 487.284195 
L 134.083304 291.91192 
L 134.302857 500.338593 
L 134.741963 323.93207 
L 134.961516 455.463481 
L 135.181069 452.611496 
L 135.839729 372.960494 
L 136.059282 405.151311 
L 136.278835 390.647922 
L 136.498388 393.408622 
L 136.717941 491.649293 
L 136.937495 498.245133 
L 137.157048 300.291629 
L 137.376601 399.215861 
L 137.596154 342.408372 
L 137.815707 447.723007 
L 138.03526 328.942695 
L 138.474367 442.422801 
L 138.69392 402.957022 
L 138.913473 325.925668 
L 139.133026 340.808521 
L 139.352579 517.830072 
L 139.572132 451.158027 
L 139.791686 429.750124 
L 140.011239 455.627223 
L 140.230792 343.713863 
L 140.669898 477.063692 
L 140.889451 398.348345 
L 141.328558 488.221559 
L 141.767664 290.771231 
L 141.987217 420.955307 
L 142.20677 386.954689 
L 142.426323 432.181804 
L 142.645877 434.350494 
L 142.86543 252.433499 
L 143.524089 487.318531 
L 143.743642 352.623796 
L 143.963196 495.61628 
L 144.182749 369.283848 
L 144.402302 312.575446 
L 144.621855 337.830799 
L 144.841408 436.899281 
L 145.060961 324.049142 
L 145.280514 377.398922 
L 145.500068 528.681014 
L 145.719621 296.850853 
L 145.939174 499.927432 
L 146.37828 413.227805 
L 146.597833 373.39266 
L 146.817387 298.56085 
L 147.03694 417.466382 
L 147.256493 407.53867 
L 147.476046 456.244406 
L 147.695599 329.268239 
L 147.915152 446.541659 
L 148.134705 303.78789 
L 148.354259 483.192904 
L 148.573812 340.313944 
L 148.793365 301.507267 
L 149.012918 445.926406 
L 149.452024 489.598636 
L 149.891131 407.080546 
L 150.110684 452.323843 
L 150.330237 461.008554 
L 150.54979 407.232092 
L 150.769343 411.766608 
L 150.988896 446.549431 
L 151.428003 252.033286 
L 151.647556 441.224289 
L 151.867109 251.177296 
L 152.086662 430.270099 
L 152.306215 486.212305 
L 152.525769 503.302553 
L 152.745322 413.536841 
L 152.964875 490.896868 
L 153.184428 507.419797 
L 153.403981 454.346967 
L 153.623534 539.034951 
L 153.843087 461.252516 
L 154.062641 307.144714 
L 154.282194 437.893444 
L 154.501747 218.161764 
L 154.7213 515.516763 
L 154.940853 376.807465 
L 155.160406 428.029485 
L 155.37996 341.482044 
L 155.599513 324.035194 
L 155.819066 398.743252 
L 156.258172 466.60709 
L 156.477725 262.668532 
L 156.697278 435.502509 
L 156.916832 399.267938 
L 157.136385 512.449902 
L 157.355938 498.466234 
L 157.795044 325.95481 
L 158.014597 450.586577 
L 158.234151 437.693681 
L 158.453704 438.962906 
L 158.673257 346.245503 
L 158.89281 339.840775 
L 159.112363 519.179891 
L 159.331916 467.986102 
L 159.551469 461.546301 
L 159.771023 390.226726 
L 159.990576 433.853201 
L 160.429682 426.377867 
L 160.649235 393.476296 
L 160.868788 458.397276 
L 161.088342 388.100124 
L 161.307895 421.062519 
L 161.527448 480.350123 
L 161.747001 403.513126 
L 161.966554 446.538689 
L 162.186107 425.847839 
L 162.40566 459.003513 
L 162.625214 374.505159 
L 162.844767 474.602217 
L 163.06432 384.728081 
L 163.283873 357.583782 
L 163.503426 396.757613 
L 163.942532 253.622819 
L 164.162086 352.533778 
L 164.381639 379.25033 
L 164.601192 438.674811 
L 164.820745 437.250155 
L 165.040298 413.011477 
L 165.259851 433.378889 
L 165.479405 338.044412 
L 165.698958 415.469483 
L 165.918511 394.333387 
L 166.138064 316.467259 
L 166.357617 299.236554 
L 166.57717 360.550783 
L 166.796723 312.198892 
L 167.016277 418.07043 
L 167.23583 309.611531 
L 167.674936 497.486242 
L 167.894489 490.090131 
L 168.114042 432.790294 
L 168.333596 279.060216 
L 168.553149 465.342137 
L 168.992255 437.281626 
L 169.431361 412.893147 
L 169.650914 369.962925 
L 169.870468 455.585014 
L 170.309574 428.687575 
L 170.529127 492.465115 
L 170.968233 322.697634 
L 171.187787 461.646018 
L 171.626893 555.641351 
L 171.846446 367.834488 
L 172.065999 312.007055 
L 172.285552 405.629043 
L 172.505105 272.894723 
L 172.724659 407.529966 
L 172.944212 393.413751 
L 173.163765 505.149651 
L 173.383318 370.475057 
L 173.602871 516.417817 
L 173.822424 541.384819 
L 174.041978 365.526478 
L 174.261531 328.520189 
L 174.481084 359.802629 
L 174.700637 366.825969 
L 174.92019 409.116851 
L 175.139743 322.845571 
L 175.359296 472.281537 
L 175.57885 403.381587 
L 175.798403 456.882297 
L 176.017956 442.890968 
L 176.237509 367.75143 
L 176.457062 431.42325 
L 176.676615 336.938418 
L 177.115722 498.384184 
L 177.335275 305.691667 
L 177.554828 390.616994 
L 177.774381 397.72491 
L 177.993934 469.818895 
L 178.213487 432.883243 
L 178.433041 251.652779 
L 178.652594 369.318987 
L 178.872147 407.320838 
L 179.0917 301.980535 
L 179.75036 481.91111 
L 179.969913 472.671109 
L 180.189466 329.64538 
L 180.409019 472.595286 
L 180.628572 452.210054 
L 180.848125 521.278116 
L 181.067678 438.049255 
L 181.287232 458.488836 
L 181.506785 520.149438 
L 181.945891 372.564338 
L 182.165444 445.39808 
L 182.384997 415.440859 
L 182.604551 234.25632 
L 182.824104 486.164938 
L 183.043657 364.717173 
L 183.26321 497.933214 
L 183.482763 401.131791 
L 183.702316 517.04941 
L 183.921869 531.810436 
L 184.141423 422.653238 
L 184.360976 444.928709 
L 184.580529 375.648595 
L 184.800082 500.125713 
L 185.019635 422.814646 
L 185.458742 363.404057 
L 185.678295 429.458767 
L 185.897848 333.414219 
L 186.117401 396.874883 
L 186.336954 403.164998 
L 186.556507 365.393787 
L 186.77606 306.862062 
L 186.995614 183.881007 
L 187.215167 413.489419 
L 187.43472 389.760916 
L 187.654273 492.299787 
L 187.873826 394.688348 
L 188.093379 371.748609 
L 188.312932 418.939317 
L 188.532486 379.873037 
L 188.752039 517.845833 
L 188.971592 441.878297 
L 189.410698 384.838014 
L 189.630251 296.866248 
L 189.849805 253.524972 
L 190.069358 388.957428 
L 190.288911 370.849262 
L 190.508464 565.423118 
L 190.728017 311.97332 
L 190.94757 513.262462 
L 191.167123 521.824517 
L 191.386677 453.41053 
L 191.60623 493.458407 
L 192.045336 357.940721 
L 192.264889 374.511591 
L 192.484442 473.423382 
L 192.703996 423.393656 
L 192.923549 331.224379 
L 193.143102 471.25643 
L 193.362655 404.539164 
L 193.582208 288.542248 
L 193.801761 522.362905 
L 194.240868 413.644001 
L 194.460421 531.912965 
L 194.679974 307.301655 
L 194.899527 476.739344 
L 195.11908 397.917688 
L 195.338633 432.996511 
L 195.77774 363.518984 
L 195.997293 534.01896 
L 196.216846 502.235919 
L 196.436399 317.619346 
L 196.875505 479.019216 
L 197.095059 321.237693 
L 197.314612 443.943057 
L 197.534165 423.394464 
L 197.753718 545.2094 
L 197.973271 295.639244 
L 198.192824 529.452603 
L 198.412378 380.549871 
L 198.631931 542.115618 
L 198.851484 368.739677 
L 199.071037 444.952396 
L 199.29059 353.222882 
L 199.510143 502.610527 
L 199.94925 289.637149 
L 200.168803 426.730405 
L 200.388356 332.937061 
L 200.607909 493.302166 
L 200.827462 505.512391 
L 201.047015 402.628316 
L 201.266569 400.566743 
L 201.486122 507.840722 
L 201.705675 445.954682 
L 201.925228 460.889542 
L 202.144781 408.060258 
L 202.364334 384.199774 
L 202.583887 379.23138 
L 202.803441 480.109084 
L 203.022994 385.70291 
L 203.242547 494.780105 
L 203.4621 415.682441 
L 203.681653 423.064794 
L 203.901206 556.132488 
L 204.12076 310.955472 
L 204.340313 391.332913 
L 204.559866 352.808511 
L 204.998972 535.31242 
L 205.218525 536.873108 
L 205.438078 361.52081 
L 205.657632 325.842659 
L 205.877185 319.698474 
L 206.096738 494.115795 
L 206.316291 368.372185 
L 206.535844 442.436256 
L 206.755397 420.926077 
L 206.974951 417.291847 
L 207.194504 330.499001 
L 207.414057 389.479569 
L 207.63361 522.293792 
L 207.853163 343.72576 
L 208.072716 466.776768 
L 208.292269 455.169017 
L 208.511823 377.458528 
L 208.731376 577.158085 
L 208.950929 420.452165 
L 209.170482 359.953649 
L 209.390035 457.653061 
L 209.609588 445.880199 
L 209.829142 269.250439 
L 210.048695 441.102178 
L 210.268248 436.384596 
L 210.487801 365.615721 
L 210.707354 466.556869 
L 210.926907 477.41504 
L 211.14646 266.922467 
L 211.366014 549.664902 
L 211.585567 238.055616 
L 211.80512 430.875606 
L 212.024673 494.693502 
L 212.244226 343.000433 
L 212.463779 432.198412 
L 212.683333 348.218011 
L 212.902886 518.406291 
L 213.122439 343.890674 
L 213.341992 489.500979 
L 213.561545 353.265763 
L 214.000651 532.574618 
L 214.220205 327.061182 
L 214.659311 459.642072 
L 214.878864 287.535424 
L 215.098417 487.756397 
L 215.31797 371.42259 
L 215.537523 413.702762 
L 215.757077 397.695731 
L 215.97663 346.581905 
L 216.196183 413.874492 
L 216.415736 381.844356 
L 216.635289 458.141316 
L 217.074396 520.402493 
L 217.513502 445.615805 
L 217.733055 529.10859 
L 217.952608 449.719644 
L 218.172161 452.699084 
L 218.391714 430.827731 
L 218.611268 494.848028 
L 218.830821 329.1115 
L 219.050374 432.092547 
L 219.269927 471.026998 
L 219.48948 425.303118 
L 219.709033 478.178567 
L 219.928587 339.182584 
L 220.14814 382.334644 
L 220.367693 343.076976 
L 220.587246 419.479427 
L 220.806799 332.137892 
L 221.026352 432.008847 
L 221.245905 480.545763 
L 221.685012 333.339208 
L 221.904565 498.571178 
L 222.124118 488.146749 
L 222.343671 487.530242 
L 222.563224 389.117035 
L 223.002331 503.358704 
L 223.221884 466.188155 
L 223.441437 379.039376 
L 223.66099 487.420413 
L 224.100096 278.0085 
L 224.31965 493.531761 
L 224.539203 415.181514 
L 224.758756 385.4048 
L 224.978309 338.460919 
L 225.197862 499.365229 
L 225.417415 361.346232 
L 225.636969 376.815829 
L 225.856522 529.49912 
L 226.076075 483.299887 
L 226.515181 360.667983 
L 226.954287 456.232635 
L 227.173841 302.333386 
L 227.393394 412.726475 
L 228.052053 498.806949 
L 228.710713 317.218563 
L 228.930266 322.709998 
L 229.149819 335.374898 
L 229.369372 464.965778 
L 229.588925 398.070684 
L 229.808478 550.608661 
L 230.028032 530.467669 
L 230.467138 143.557347 
L 230.686691 447.963954 
L 230.906244 408.200138 
L 231.345351 302.450987 
L 231.564904 446.900207 
L 231.784457 408.55465 
L 232.00401 463.365447 
L 232.223563 470.487487 
L 232.443116 377.477727 
L 232.662669 452.020989 
L 232.882223 406.515235 
L 233.101776 417.973561 
L 233.321329 386.373106 
L 233.540882 381.793307 
L 233.760435 451.743383 
L 233.979988 431.839011 
L 234.199542 392.094839 
L 234.419095 408.549371 
L 234.638648 373.120335 
L 234.858201 392.922605 
L 235.077754 340.595782 
L 235.297307 352.856995 
L 235.51686 453.594862 
L 235.736414 356.719674 
L 235.955967 475.038517 
L 236.17552 373.782645 
L 236.395073 438.179348 
L 236.614626 376.146174 
L 236.834179 450.584339 
L 237.053733 383.073887 
L 237.273286 376.107405 
L 237.492839 430.149679 
L 237.712392 313.817729 
L 237.931945 329.545263 
L 238.151498 354.867247 
L 238.371051 514.563431 
L 238.590605 366.030694 
L 238.810158 355.568479 
L 239.029711 373.553746 
L 239.249264 506.872796 
L 239.468817 395.303726 
L 239.68837 470.760871 
L 239.907924 484.466914 
L 240.34703 439.631384 
L 240.566583 474.310507 
L 240.786136 428.143339 
L 241.005689 513.94067 
L 241.225242 359.971484 
L 241.664349 439.782968 
L 241.883902 408.519131 
L 242.103455 304.823362 
L 242.323008 270.342617 
L 242.542561 506.246869 
L 242.762114 250.00778 
L 242.981668 454.518321 
L 243.201221 329.211544 
L 243.420774 352.941629 
L 243.640327 465.607613 
L 243.85988 348.332358 
L 244.079433 468.752319 
L 244.298987 474.947052 
L 244.51854 380.186266 
L 244.738093 388.094516 
L 244.957646 512.259229 
L 245.177199 481.626582 
L 245.396752 375.974043 
L 245.616305 533.614926 
L 245.835859 466.039511 
L 246.055412 469.976223 
L 246.274965 461.346531 
L 246.494518 473.191275 
L 246.714071 559.689584 
L 246.933624 452.547482 
L 247.153178 462.340526 
L 247.372731 505.065707 
L 247.592284 366.641069 
L 247.811837 493.807112 
L 248.03139 151.766234 
L 248.250943 525.919585 
L 248.470496 457.173773 
L 248.69005 349.905864 
L 248.909603 469.612026 
L 249.129156 492.635963 
L 249.787815 350.196809 
L 250.007369 316.29422 
L 250.226922 439.770012 
L 250.446475 315.151791 
L 250.666028 440.706611 
L 250.885581 367.371642 
L 251.105134 404.779015 
L 251.324687 418.267213 
L 251.544241 335.372762 
L 251.763794 388.5296 
L 251.983347 374.445722 
L 252.2029 467.653578 
L 252.86156 367.963419 
L 253.081113 464.984893 
L 253.520219 383.705747 
L 253.739772 559.691701 
L 253.959325 446.517172 
L 254.398432 403.496049 
L 254.617985 467.648389 
L 254.837538 468.151392 
L 255.057091 380.579814 
L 255.276644 504.696457 
L 255.715751 329.549288 
L 255.935304 331.799935 
L 256.154857 439.743193 
L 256.37441 393.133997 
L 256.593963 387.206768 
L 256.813516 260.491901 
L 257.033069 394.723506 
L 257.252623 392.054988 
L 257.472176 434.652925 
L 257.691729 378.06759 
L 257.911282 449.614151 
L 258.130835 375.965425 
L 258.350388 524.413055 
L 258.569942 469.843824 
L 258.789495 375.637655 
L 259.009048 480.825572 
L 259.228601 410.377412 
L 259.448154 550.254976 
L 259.667707 448.379029 
L 259.88726 532.838917 
L 260.106814 391.268026 
L 260.326367 336.987331 
L 260.54592 526.901616 
L 260.765473 410.966227 
L 260.985026 556.260727 
L 261.204579 397.359027 
L 261.424133 405.661262 
L 261.643686 468.066433 
L 261.863239 341.807972 
L 262.082792 483.324575 
L 262.302345 528.234446 
L 262.521898 315.118352 
L 262.961005 522.603523 
L 263.180558 308.566392 
L 263.400111 412.550579 
L 263.619664 405.293532 
L 263.839217 470.324639 
L 264.05877 453.297083 
L 264.278324 421.16845 
L 264.497877 462.667924 
L 264.936983 260.525322 
L 265.376089 465.555201 
L 265.595642 304.168801 
L 265.815196 490.971002 
L 266.034749 470.503212 
L 266.254302 368.653972 
L 266.693408 462.170761 
L 266.912961 413.834697 
L 267.132514 437.237421 
L 267.352068 332.934732 
L 267.571621 503.606344 
L 268.010727 376.244509 
L 268.23028 373.994593 
L 268.449833 381.38756 
L 268.669387 272.789095 
L 268.88894 554.946597 
L 269.108493 458.017864 
L 269.328046 305.786989 
L 269.547599 561.446589 
L 269.767152 450.904096 
L 269.986705 551.551092 
L 270.206259 321.041458 
L 270.425812 458.112161 
L 270.645365 436.883592 
L 270.864918 346.249414 
L 271.084471 377.970441 
L 271.304024 367.381805 
L 271.523578 412.927764 
L 271.743131 393.776748 
L 271.962684 498.055489 
L 272.182237 498.58445 
L 272.40179 388.739138 
L 272.621343 498.641881 
L 272.840896 464.693097 
L 273.06045 465.176957 
L 273.280003 481.633479 
L 273.719109 274.669877 
L 273.938662 507.472479 
L 274.377769 233.836427 
L 274.597322 402.031443 
L 274.816875 422.899053 
L 275.036428 433.129461 
L 275.255981 516.73532 
L 275.475534 355.823473 
L 275.695087 434.931339 
L 275.914641 460.909796 
L 276.134194 417.951612 
L 276.353747 458.531064 
L 276.5733 435.317508 
L 276.792853 393.218094 
L 277.012406 462.278289 
L 277.23196 442.382537 
L 277.451513 402.604697 
L 277.671066 406.24213 
L 277.890619 482.815007 
L 278.110172 485.336464 
L 278.329725 363.631255 
L 278.549278 507.205803 
L 278.768832 373.874092 
L 278.988385 528.67834 
L 279.207938 418.766958 
L 279.427491 461.69019 
L 279.647044 450.944915 
L 279.866597 409.893056 
L 280.086151 313.064844 
L 280.305704 476.222694 
L 280.525257 526.833635 
L 280.74481 288.616688 
L 280.964363 429.660303 
L 281.183916 401.492611 
L 281.403469 334.654284 
L 281.623023 417.080575 
L 281.842576 434.491603 
L 282.062129 290.508893 
L 282.281682 430.345758 
L 282.501235 497.680598 
L 282.720788 469.104635 
L 282.940342 287.168932 
L 283.159895 462.539078 
L 283.379448 372.181213 
L 283.599001 494.106528 
L 283.818554 401.245789 
L 284.038107 451.920396 
L 284.25766 346.048405 
L 284.477214 459.59831 
L 284.696767 358.170183 
L 285.135873 487.518053 
L 285.355426 449.588624 
L 285.574979 326.519593 
L 285.794533 496.589372 
L 286.014086 419.791335 
L 286.453192 457.939773 
L 286.892298 377.262126 
L 287.331405 475.017616 
L 287.770511 567.600979 
L 287.990064 306.35056 
L 288.209617 440.420939 
L 288.42917 445.977336 
L 288.648724 359.0817 
L 288.868277 442.67847 
L 289.08783 422.396327 
L 289.307383 487.38334 
L 289.526936 462.762192 
L 289.746489 410.184349 
L 289.966042 529.680285 
L 290.185596 356.72069 
L 290.405149 444.104738 
L 290.624702 395.49694 
L 291.063808 449.304169 
L 291.283361 452.419383 
L 291.502915 479.857412 
L 291.722468 373.391017 
L 291.942021 443.370009 
L 292.161574 435.752127 
L 292.381127 358.280342 
L 292.60068 433.736288 
L 292.820233 444.027599 
L 293.039787 494.416828 
L 293.25934 328.1668 
L 293.478893 410.304249 
L 293.698446 426.056842 
L 293.917999 381.044563 
L 294.137552 389.012059 
L 294.357105 499.556145 
L 294.576659 445.964085 
L 294.796212 450.27438 
L 295.015765 390.020741 
L 295.235318 467.950851 
L 295.454871 491.733423 
L 295.674424 445.250414 
L 295.893978 329.841749 
L 296.113531 370.33407 
L 296.333084 458.8879 
L 296.552637 388.816536 
L 296.991743 484.612646 
L 297.211296 496.286981 
L 297.43085 487.329957 
L 297.650403 507.239178 
L 298.089509 281.348311 
L 298.309062 421.584763 
L 298.528615 377.323375 
L 298.748169 416.846332 
L 298.967722 312.267206 
L 299.187275 322.997147 
L 299.406828 453.3981 
L 299.626381 335.134598 
L 299.845934 395.435823 
L 300.065487 514.285388 
L 300.285041 417.084735 
L 300.504594 398.098612 
L 300.724147 416.586841 
L 300.9437 406.808128 
L 301.163253 465.227601 
L 301.382806 465.639249 
L 301.60236 349.687115 
L 301.821913 365.196173 
L 302.261019 487.852262 
L 302.480572 472.313213 
L 302.700125 270.165857 
L 302.919678 525.498109 
L 303.139232 499.649926 
L 303.358785 348.518778 
L 303.797891 419.228408 
L 304.017444 414.760209 
L 304.236997 265.624921 
L 304.676104 497.671133 
L 304.895657 386.45582 
L 305.11521 460.43203 
L 305.334763 358.104868 
L 305.554316 467.359221 
L 305.773869 269.231315 
L 305.993423 352.710208 
L 306.212976 498.713829 
L 306.871635 326.172101 
L 307.091188 363.435975 
L 307.310742 472.591591 
L 307.749848 342.050204 
L 307.969401 348.716961 
L 308.188954 344.250428 
L 308.408507 392.124976 
L 308.62806 261.426105 
L 308.847614 506.001183 
L 309.067167 416.457305 
L 309.28672 512.584338 
L 309.506273 298.149249 
L 309.725826 447.331637 
L 309.945379 386.693804 
L 310.164933 394.779766 
L 310.384486 354.496642 
L 310.604039 470.065612 
L 310.823592 401.695279 
L 311.043145 432.380879 
L 311.262698 343.183354 
L 311.482251 394.537581 
L 311.701805 373.010626 
L 311.921358 366.325272 
L 312.140911 383.580309 
L 312.360464 244.530016 
L 312.580017 449.518193 
L 312.79957 446.702416 
L 313.019124 468.058648 
L 313.238677 285.255697 
L 313.677783 437.32321 
L 313.897336 341.680605 
L 314.336442 520.897729 
L 314.775549 446.245918 
L 314.995102 487.349548 
L 315.214655 431.553032 
L 315.434208 450.527309 
L 315.653761 437.158412 
L 315.873315 502.218638 
L 316.092868 404.953099 
L 316.312421 468.192109 
L 316.531974 402.249014 
L 316.751527 470.986578 
L 317.190633 286.546898 
L 317.410187 399.348811 
L 317.62974 337.717498 
L 317.849293 456.348075 
L 318.288399 340.448281 
L 318.507952 327.161413 
L 318.727506 366.98991 
L 318.947059 498.660716 
L 319.166612 427.028644 
L 319.386165 431.836325 
L 319.605718 189.855782 
L 319.825271 489.918112 
L 320.044824 482.318034 
L 320.483931 293.842633 
L 320.923037 533.542287 
L 321.14259 445.863751 
L 321.362143 131.956182 
L 321.581696 434.245924 
L 321.80125 329.536076 
L 322.020803 357.947523 
L 322.240356 453.932853 
L 322.459909 358.777267 
L 322.679462 365.249519 
L 323.118569 532.808113 
L 323.338122 462.780309 
L 323.557675 288.125451 
L 323.777228 581.38839 
L 323.996781 269.502663 
L 324.216334 412.531627 
L 324.435887 366.581437 
L 324.655441 454.210337 
L 324.874994 429.954239 
L 325.094547 200.300714 
L 325.3141 476.781046 
L 325.533653 400.21309 
L 325.753206 502.11372 
L 325.97276 389.563241 
L 326.192313 484.199898 
L 326.411866 421.617884 
L 326.631419 420.973152 
L 326.850972 431.719407 
L 327.070525 495.068178 
L 327.290078 249.108899 
L 327.509632 400.127904 
L 327.729185 285.492783 
L 327.948738 328.689531 
L 328.168291 407.524671 
L 328.387844 383.790984 
L 328.607397 418.46505 
L 328.826951 336.300318 
L 329.046504 403.343924 
L 329.48561 345.813612 
L 329.705163 429.421468 
L 329.924716 331.16416 
L 330.144269 363.25036 
L 330.363823 306.355547 
L 330.802929 336.314821 
L 331.022482 549.856861 
L 331.242035 498.364852 
L 331.461588 528.33354 
L 331.681142 271.191065 
L 331.900695 401.56954 
L 332.120248 455.779774 
L 332.339801 393.993912 
L 332.559354 487.027561 
L 332.778907 481.217682 
L 332.99846 468.568262 
L 333.218014 448.667408 
L 333.437567 313.052455 
L 333.65712 365.104534 
L 333.876673 345.001164 
L 334.096226 341.944688 
L 334.315779 373.259029 
L 334.535333 468.707899 
L 334.754886 406.188263 
L 334.974439 431.91656 
L 335.193992 427.902123 
L 335.413545 357.106317 
L 335.633098 385.810677 
L 335.852651 315.119004 
L 336.072205 464.028738 
L 336.291758 464.45117 
L 336.511311 366.236589 
L 336.730864 526.451679 
L 336.950417 472.13158 
L 337.16997 467.883459 
L 337.389524 361.944011 
L 337.609077 390.228238 
L 337.82863 219.400968 
L 338.048183 457.255732 
L 338.267736 388.382413 
L 338.487289 376.103062 
L 338.706842 401.876289 
L 338.926396 500.828574 
L 339.145949 342.762676 
L 339.365502 513.885681 
L 339.585055 300.139479 
L 339.804608 434.543698 
L 340.024161 432.847497 
L 340.243715 469.956848 
L 340.463268 442.505528 
L 340.682821 359.788205 
L 340.902374 483.120357 
L 341.121927 411.699223 
L 341.34148 288.528516 
L 341.561033 329.803349 
L 341.780587 430.542444 
L 342.00014 421.505426 
L 342.219693 387.013816 
L 342.439246 460.658587 
L 342.658799 453.587619 
L 342.878352 422.625269 
L 343.097906 536.037258 
L 343.317459 266.043226 
L 343.537012 448.81616 
L 343.756565 400.304876 
L 343.976118 511.523884 
L 344.195671 446.312076 
L 344.415224 448.309324 
L 344.634778 473.851571 
L 344.854331 517.89467 
L 345.073884 453.05459 
L 345.293437 499.52084 
L 345.51299 484.912528 
L 345.732543 364.931168 
L 345.952096 424.948619 
L 346.17165 397.995187 
L 346.391203 400.904433 
L 346.610756 408.69453 
L 346.830309 368.982866 
L 347.049862 431.868061 
L 347.269415 388.957578 
L 347.488969 538.224413 
L 347.708522 414.979378 
L 347.928075 440.606404 
L 348.147628 410.779071 
L 348.367181 431.038607 
L 348.586734 330.472754 
L 348.806287 335.952334 
L 349.245394 434.932767 
L 349.464947 424.571317 
L 349.6845 348.369893 
L 349.904053 391.236779 
L 350.123606 480.312869 
L 350.34316 299.550838 
L 350.562713 332.980388 
L 350.782266 520.088216 
L 351.001819 296.412818 
L 351.221372 303.863716 
L 351.440925 418.951054 
L 351.660478 361.845129 
L 351.880032 456.739402 
L 352.099585 457.171621 
L 352.319138 433.291626 
L 352.758244 331.043362 
L 352.977797 325.241646 
L 353.197351 504.518203 
L 353.416904 423.865709 
L 353.636457 504.341569 
L 353.85601 473.11662 
L 354.075563 535.179292 
L 354.514669 426.813352 
L 354.734223 446.52859 
L 354.953776 370.878564 
L 355.173329 364.635239 
L 355.392882 471.369292 
L 355.612435 445.395555 
L 355.831988 542.05915 
L 356.051542 405.94973 
L 356.271095 430.744634 
L 356.490648 525.066931 
L 356.710201 397.909017 
L 356.929754 421.323163 
L 357.149307 456.923245 
L 357.36886 350.619506 
L 357.588414 480.604716 
L 357.807967 395.569844 
L 358.02752 474.896581 
L 358.247073 483.807106 
L 358.466626 470.420346 
L 358.905733 330.020744 
L 359.344839 514.217235 
L 359.564392 519.686725 
L 359.783945 466.233003 
L 360.003498 335.506586 
L 360.223051 371.665937 
L 360.442605 451.043897 
L 360.662158 290.457982 
L 360.881711 460.719939 
L 361.101264 441.584935 
L 361.320817 470.994197 
L 361.54037 434.023455 
L 361.759924 224.017994 
L 361.979477 344.293277 
L 362.19903 382.680848 
L 362.418583 219.999787 
L 362.857689 410.562319 
L 363.077242 442.626009 
L 363.296796 260.466916 
L 363.516349 447.930594 
L 363.735902 337.83256 
L 363.955455 438.961981 
L 364.175008 438.014882 
L 364.394561 412.531911 
L 365.053221 453.120358 
L 365.272774 385.291287 
L 365.492327 398.368722 
L 365.71188 361.682327 
L 365.931433 459.306947 
L 366.37054 429.662875 
L 366.590093 443.490127 
L 366.809646 409.518576 
L 367.029199 557.259951 
L 367.248752 381.755597 
L 367.468306 370.542103 
L 367.687859 499.222784 
L 367.907412 391.636708 
L 368.126965 424.124496 
L 368.346518 395.140899 
L 368.566071 431.439251 
L 368.785624 544.178909 
L 369.005178 491.358057 
L 369.224731 358.503317 
L 369.444284 326.688446 
L 369.663837 504.707409 
L 369.88339 455.382753 
L 370.322497 310.408611 
L 370.54205 297.810688 
L 370.761603 356.37318 
L 370.981156 495.535969 
L 371.200709 511.404096 
L 371.420262 413.470804 
L 371.639815 428.102488 
L 371.859369 345.370901 
L 372.078922 495.629013 
L 372.518028 366.96042 
L 372.737581 403.873 
L 372.957134 234.294511 
L 373.176687 283.595666 
L 373.396241 466.97381 
L 373.615794 447.723948 
L 373.835347 478.842829 
L 374.0549 490.827466 
L 374.274453 465.478268 
L 374.494006 282.731439 
L 374.71356 419.511053 
L 374.933113 373.683519 
L 375.152666 519.379588 
L 375.372219 391.162888 
L 375.591772 427.180617 
L 375.811325 394.473992 
L 376.030878 336.339417 
L 376.250432 427.690185 
L 376.469985 443.242593 
L 376.689538 438.193454 
L 376.909091 407.02779 
L 377.128644 469.182664 
L 377.348197 446.288794 
L 377.567751 461.076671 
L 378.006857 447.564488 
L 378.22641 528.272927 
L 378.445963 405.961946 
L 378.665516 362.582948 
L 379.104623 443.848152 
L 379.324176 417.519597 
L 379.543729 375.61866 
L 379.763282 502.980439 
L 380.421942 389.968383 
L 380.861048 534.520042 
L 381.080601 449.362463 
L 381.300154 292.627061 
L 381.519707 381.23046 
L 381.73926 413.61009 
L 381.958814 380.386596 
L 382.39792 503.568232 
L 382.617473 444.521414 
L 382.837026 483.837544 
L 383.056579 335.031581 
L 383.276133 328.760725 
L 383.495686 454.54789 
L 383.715239 494.451177 
L 383.934792 406.156918 
L 384.154345 440.62867 
L 384.373898 398.596972 
L 384.593451 429.849888 
L 384.813005 389.115159 
L 385.032558 421.20327 
L 385.252111 505.433885 
L 385.691217 447.22987 
L 385.91077 370.608045 
L 386.130324 432.336561 
L 386.349877 374.974474 
L 386.56943 351.65124 
L 386.788983 385.267867 
L 387.008536 401.001341 
L 387.228089 460.228249 
L 387.447642 450.933396 
L 387.667196 506.99054 
L 388.106302 394.608133 
L 388.325855 492.274385 
L 388.545408 320.029148 
L 388.984515 512.272046 
L 389.204068 342.314887 
L 389.423621 376.658528 
L 389.643174 448.135903 
L 389.862727 388.345803 
L 390.08228 421.865122 
L 390.301833 555.95706 
L 390.960493 340.593876 
L 391.180046 368.627208 
L 391.399599 330.885815 
L 391.619152 493.108574 
L 391.838706 374.174371 
L 392.277812 532.810223 
L 392.497365 502.965291 
L 392.716918 327.136343 
L 392.936471 471.21975 
L 393.156024 478.972608 
L 393.375578 397.447606 
L 393.595131 371.043427 
L 393.814684 402.582715 
L 394.034237 409.488288 
L 394.25379 375.625641 
L 394.473343 373.932083 
L 394.692897 399.585058 
L 394.91245 393.817556 
L 395.132003 502.372926 
L 395.351556 337.871711 
L 395.571109 503.344321 
L 395.790662 501.450245 
L 396.010215 467.476869 
L 396.229769 383.574378 
L 396.449322 422.254795 
L 396.668875 429.666001 
L 396.888428 410.839209 
L 397.107981 530.773818 
L 397.327534 519.615645 
L 397.766641 355.64736 
L 397.986194 404.865596 
L 398.205747 331.474167 
L 398.4253 440.304438 
L 398.644853 430.389035 
L 398.864406 247.281703 
L 399.303513 483.676139 
L 399.523066 437.26533 
L 399.742619 432.420744 
L 399.962172 472.311563 
L 400.181725 398.093285 
L 400.401278 392.27401 
L 400.620832 439.546518 
L 400.840385 328.490741 
L 401.059938 444.388394 
L 401.279491 418.794267 
L 401.499044 374.422685 
L 401.718597 529.425858 
L 401.938151 391.656023 
L 402.157704 453.372102 
L 402.377257 374.941458 
L 402.59681 392.656342 
L 402.816363 439.628259 
L 403.035916 456.452467 
L 403.255469 485.858791 
L 403.475023 418.856628 
L 403.694576 456.594484 
L 403.914129 275.835815 
L 404.133682 451.006633 
L 404.572788 386.00582 
L 404.792342 420.134995 
L 405.011895 545.22072 
L 405.231448 517.084275 
L 405.451001 377.447395 
L 405.670554 498.470916 
L 405.890107 356.016971 
L 406.10966 520.586619 
L 406.329214 474.96025 
L 406.548767 467.626316 
L 406.76832 491.352791 
L 407.207426 409.600608 
L 407.426979 460.099349 
L 407.646533 346.451417 
L 408.085639 478.683931 
L 408.305192 349.880248 
L 408.524745 378.529289 
L 408.744298 483.621127 
L 409.183405 339.634841 
L 409.402958 354.870284 
L 409.622511 281.356963 
L 409.842064 356.758596 
L 410.061617 240.621683 
L 410.28117 338.701387 
L 410.500724 351.434861 
L 410.720277 497.519641 
L 410.93983 379.784459 
L 411.378936 290.102134 
L 411.598489 465.061599 
L 412.037596 385.410297 
L 412.257149 445.877476 
L 412.476702 440.727117 
L 412.696255 390.209348 
L 412.915808 569.340949 
L 413.574468 299.908292 
L 413.794021 534.593686 
L 414.013574 247.459681 
L 414.233127 433.054826 
L 414.45268 433.311699 
L 414.891787 344.212326 
L 415.11134 465.452859 
L 415.330893 279.437844 
L 415.550446 518.769679 
L 415.769999 368.246095 
L 415.989552 471.410929 
L 416.209106 229.632759 
L 416.428659 439.005151 
L 416.648212 537.746891 
L 417.087318 496.480713 
L 417.306871 383.175125 
L 417.526424 343.549665 
L 417.745978 455.895095 
L 417.965531 453.288302 
L 418.185084 396.668346 
L 418.404637 515.721151 
L 418.62419 467.983776 
L 418.843743 519.806382 
L 419.28285 349.77947 
L 419.502403 438.495386 
L 419.721956 373.130354 
L 419.941509 385.063613 
L 420.161062 417.773754 
L 420.380615 335.794217 
L 420.600169 427.575977 
L 420.819722 396.44873 
L 421.039275 328.692669 
L 421.478381 520.238213 
L 421.697934 317.752385 
L 422.137041 337.164071 
L 422.356594 363.888721 
L 422.576147 432.245182 
L 422.7957 352.376775 
L 423.015253 313.980465 
L 423.234806 368.340485 
L 423.45436 253.770017 
L 423.893466 459.321199 
L 424.113019 499.807225 
L 424.332572 344.535917 
L 424.771678 459.017295 
L 424.991232 396.853707 
L 425.210785 454.511125 
L 425.430338 418.223046 
L 425.869444 451.860162 
L 426.088997 490.695249 
L 426.308551 459.179174 
L 426.528104 360.501942 
L 426.747657 469.209926 
L 426.96721 514.777162 
L 427.186763 502.597027 
L 427.406316 482.648515 
L 427.625869 493.668862 
L 427.845423 453.010171 
L 428.284529 499.638909 
L 428.723635 254.494611 
L 429.162742 446.746191 
L 429.382295 415.183987 
L 429.601848 436.470255 
L 429.821401 285.966675 
L 430.040954 440.502191 
L 430.48006 491.554968 
L 430.699614 449.643153 
L 430.919167 498.731271 
L 431.358273 425.305819 
L 431.577826 376.814841 
L 431.797379 378.783539 
L 432.016933 390.892943 
L 432.236486 524.358209 
L 432.456039 474.224846 
L 432.675592 520.381734 
L 433.114698 295.057868 
L 433.334251 443.734165 
L 433.553805 454.776942 
L 433.773358 383.286614 
L 433.992911 470.31492 
L 434.432017 409.584865 
L 434.65157 526.7195 
L 434.871124 300.755751 
L 435.090677 434.731414 
L 435.31023 267.575171 
L 435.529783 424.914368 
L 435.749336 462.817814 
L 435.968889 426.537323 
L 436.188442 455.959744 
L 436.407996 332.390839 
L 436.627549 505.034214 
L 436.847102 391.394026 
L 437.066655 431.546376 
L 437.286208 387.524135 
L 437.505761 366.367696 
L 437.725315 481.505543 
L 438.164421 391.357367 
L 438.383974 404.422967 
L 438.82308 471.355638 
L 439.262187 351.643864 
L 439.48174 441.275428 
L 439.701293 446.345552 
L 439.920846 489.010714 
L 440.359952 292.87533 
L 440.799059 461.849237 
L 441.018612 470.303583 
L 441.238165 376.22128 
L 441.457718 359.775456 
L 441.677271 331.278507 
L 441.896824 541.233348 
L 442.116378 386.248609 
L 442.335931 447.519004 
L 442.555484 344.454482 
L 442.775037 404.785965 
L 442.99459 207.971595 
L 443.433697 465.706917 
L 443.65325 460.650815 
L 444.092356 383.932303 
L 444.311909 372.799735 
L 444.531462 493.810979 
L 444.751015 318.931406 
L 444.970569 375.5307 
L 445.190122 390.935102 
L 445.409675 392.374348 
L 445.629228 453.665065 
L 445.848781 397.915659 
L 446.068334 552.358175 
L 446.287888 330.736597 
L 446.507441 447.371196 
L 446.726994 424.707418 
L 446.946547 429.275441 
L 447.1661 423.572498 
L 447.385653 394.811579 
L 447.605206 426.281484 
L 447.82476 202.61465 
L 448.044313 434.942096 
L 448.263866 465.945287 
L 448.483419 292.395706 
L 448.702972 327.66524 
L 448.922525 277.793723 
L 449.142079 286.697516 
L 449.361632 431.129693 
L 449.581185 390.238996 
L 449.800738 420.192524 
L 450.020291 420.205295 
L 450.239844 353.159603 
L 450.459397 404.647473 
L 450.678951 402.9807 
L 450.898504 392.192887 
L 451.118057 395.908671 
L 451.33761 397.144719 
L 451.557163 457.986871 
L 451.776716 474.314644 
L 451.996269 305.261723 
L 452.215823 420.763361 
L 452.435376 351.341165 
L 452.654929 460.036784 
L 452.874482 377.401161 
L 453.094035 423.598838 
L 453.313588 428.489467 
L 453.533142 488.606439 
L 453.752695 321.08545 
L 453.972248 353.141092 
L 454.191801 498.270038 
L 454.411354 402.058914 
L 454.630907 448.441338 
L 454.85046 442.568597 
L 455.070014 530.15138 
L 455.289567 482.184383 
L 455.50912 301.81013 
L 455.728673 514.003977 
L 455.948226 445.18911 
L 456.167779 304.714725 
L 456.387333 317.281354 
L 456.606886 377.566042 
L 456.826439 229.172763 
L 457.045992 479.558873 
L 457.265545 349.196735 
L 457.485098 434.067612 
L 457.704651 457.391655 
L 457.924205 320.759315 
L 458.143758 456.642758 
L 458.363311 452.003434 
L 458.582864 473.86857 
L 458.802417 343.368209 
L 459.02197 481.978427 
L 459.461077 401.65223 
L 459.68063 272.843548 
L 459.900183 454.001858 
L 460.119736 481.196258 
L 460.339289 346.668314 
L 460.778396 330.198167 
L 460.997949 473.890247 
L 461.437055 401.380552 
L 461.656608 456.861553 
L 461.876161 481.120452 
L 462.315268 343.658545 
L 462.534821 478.542124 
L 462.754374 441.337663 
L 462.973927 449.3112 
L 463.19348 487.171295 
L 463.413033 268.032637 
L 463.632587 386.409923 
L 463.85214 433.977899 
L 464.071693 404.397242 
L 464.291246 350.572821 
L 464.510799 488.427679 
L 464.730352 463.527529 
L 464.949906 475.710056 
L 465.169459 320.31241 
L 465.608565 395.103506 
L 465.828118 331.580746 
L 466.047671 476.52588 
L 466.267224 502.259795 
L 466.486778 300.546829 
L 466.706331 538.533759 
L 466.925884 376.962682 
L 467.145437 420.440246 
L 467.36499 393.288561 
L 467.584543 442.153396 
L 467.804097 153.332798 
L 468.02365 206.923433 
L 468.243203 476.423805 
L 468.462756 498.853217 
L 468.682309 489.868625 
L 468.901862 441.209767 
L 469.121415 422.296131 
L 469.340969 542.033061 
L 469.999628 412.60937 
L 470.219181 437.608189 
L 470.438734 396.707209 
L 470.877841 506.733648 
L 471.097394 316.762099 
L 471.316947 239.138008 
L 471.756053 424.375665 
L 471.975606 445.875762 
L 472.19516 389.931784 
L 472.414713 413.353252 
L 472.634266 367.419348 
L 472.853819 500.280313 
L 473.073372 294.960925 
L 473.292925 386.642476 
L 473.512479 332.786141 
L 473.732032 242.718192 
L 473.951585 482.132639 
L 474.171138 305.686392 
L 474.610244 432.667655 
L 474.829797 506.179994 
L 475.049351 324.823833 
L 475.268904 454.893606 
L 475.488457 482.046772 
L 475.70801 474.43177 
L 475.927563 273.446161 
L 476.147116 373.2615 
L 476.366669 355.453518 
L 476.586223 488.978169 
L 476.805776 313.205672 
L 477.025329 466.236728 
L 477.244882 429.318248 
L 477.464435 454.927465 
L 477.683988 432.313241 
L 477.903542 442.159598 
L 478.123095 407.951109 
L 478.562201 553.090149 
L 478.781754 359.314528 
L 479.001307 426.0605 
L 479.22086 355.783263 
L 479.440414 396.071678 
L 479.659967 369.019815 
L 479.87952 487.473566 
L 480.099073 378.620567 
L 480.318626 443.774944 
L 480.538179 401.905672 
L 480.757733 400.349141 
L 480.977286 389.382168 
L 481.196839 430.110533 
L 481.416392 410.335576 
L 481.635945 403.475835 
L 482.075051 418.292102 
L 482.514158 364.251524 
L 482.733711 434.114816 
L 483.172817 381.255004 
L 483.39237 406.719482 
L 483.611924 503.617055 
L 483.831477 378.798692 
L 484.05103 456.061866 
L 484.270583 401.228394 
L 484.490136 538.231807 
L 484.709689 405.259269 
L 484.929242 495.60476 
L 485.148796 399.268962 
L 485.368349 411.90466 
L 485.587902 409.641811 
L 485.807455 378.737363 
L 486.027008 518.503503 
L 486.246561 417.439752 
L 486.466115 372.443015 
L 486.685668 379.680324 
L 486.905221 382.982293 
L 487.344327 475.787942 
L 487.56388 209.649715 
L 488.002987 441.9685 
L 488.22254 482.076076 
L 488.442093 444.28819 
L 488.661646 466.021886 
L 488.881199 413.744689 
L 489.100752 296.266479 
L 489.320306 350.771861 
L 489.539859 463.93549 
L 489.759412 437.011441 
L 489.978965 433.483481 
L 490.198518 389.21034 
L 490.418071 496.978742 
L 490.637624 315.565971 
L 490.857178 363.452128 
L 491.076731 361.790832 
L 491.296284 478.352455 
L 491.515837 410.028324 
L 491.73539 471.85473 
L 491.954943 343.501755 
L 492.174497 458.834802 
L 492.39405 423.477684 
L 492.613603 517.433361 
L 492.833156 327.072777 
L 493.052709 535.512142 
L 493.272262 514.952448 
L 493.711369 405.693015 
L 493.930922 519.807927 
L 494.370028 366.428094 
L 494.589581 298.889613 
L 495.248241 490.199021 
L 495.467794 506.791574 
L 495.687347 430.703785 
L 495.9069 507.090125 
L 496.126453 322.96806 
L 496.346006 478.556159 
L 496.56556 352.332902 
L 496.785113 440.899952 
L 497.004666 454.776337 
L 497.443772 402.626277 
L 497.663325 338.756505 
L 498.102432 458.616706 
L 498.321985 432.726143 
L 498.761091 360.432842 
L 498.980644 439.380033 
L 499.200197 405.348576 
L 499.419751 491.883234 
L 499.858857 368.875556 
L 500.07841 464.016535 
L 500.297963 387.608836 
L 500.517516 410.148041 
L 500.956623 268.812282 
L 501.176176 409.744783 
L 501.395729 451.257124 
L 501.615282 455.45883 
L 501.834835 449.195856 
L 502.054388 400.524368 
L 502.273942 295.840872 
L 502.493495 518.638022 
L 502.713048 442.482177 
L 502.932601 444.13798 
L 503.152154 405.306824 
L 503.371707 432.309717 
L 503.59126 326.085701 
L 503.810814 353.877759 
L 504.030367 482.603724 
L 504.24992 460.773975 
L 504.469473 344.134789 
L 504.689026 464.228607 
L 504.908579 492.758719 
L 505.347686 347.207439 
L 505.786792 433.427749 
L 506.006345 409.787227 
L 506.225898 367.77983 
L 506.445451 517.619019 
L 506.884558 210.526722 
L 507.104111 504.792137 
L 507.323664 419.78443 
L 507.543217 237.135853 
L 507.76277 438.307774 
L 507.982324 486.831993 
L 508.42143 402.420868 
L 508.640983 519.819966 
L 508.860536 401.979516 
L 509.080089 501.899815 
L 509.299642 439.859511 
L 509.519196 456.879413 
L 509.738749 509.215841 
L 509.958302 373.600807 
L 510.177855 393.76313 
L 510.397408 274.143489 
L 510.616961 417.533239 
L 510.836515 336.783482 
L 511.056068 459.688662 
L 511.275621 362.677798 
L 511.495174 395.155394 
L 511.714727 299.740007 
L 511.93428 487.954668 
L 512.153833 511.226718 
L 512.373387 453.321506 
L 512.59294 313.968865 
L 512.812493 397.788565 
L 513.032046 406.823996 
L 513.251599 303.097099 
L 513.471152 526.873215 
L 513.690706 400.706226 
L 514.129812 437.539926 
L 514.349365 443.477794 
L 514.568918 413.649764 
L 514.788471 467.199886 
L 515.008024 329.0411 
L 515.227578 421.53001 
L 515.447131 387.561351 
L 515.666684 380.969086 
L 516.325343 408.421284 
L 516.544897 336.291777 
L 516.984003 461.702365 
L 517.203556 317.100306 
L 517.642662 415.806265 
L 517.862215 389.918063 
L 518.081769 474.94311 
L 518.301322 361.087833 
L 518.520875 418.873541 
L 518.740428 433.760949 
L 519.179534 208.585236 
L 519.399088 442.086137 
L 519.618641 375.892973 
L 519.838194 235.083484 
L 520.057747 411.452718 
L 520.496853 449.157797 
L 520.716406 177.325143 
L 520.93596 390.657393 
L 521.155513 450.71479 
L 521.375066 476.120401 
L 521.594619 475.587075 
L 521.814172 413.926024 
L 522.033725 445.088763 
L 522.253279 396.815971 
L 522.472832 393.132756 
L 522.692385 408.150972 
L 522.911938 390.89252 
L 523.131491 410.279647 
L 523.351044 463.626292 
L 523.570597 425.349103 
L 524.009704 533.594587 
L 524.44881 465.835555 
L 524.668363 471.197648 
L 524.887916 464.845949 
L 525.10747 422.336941 
L 525.327023 319.64055 
L 525.546576 448.914078 
L 525.766129 332.389116 
L 525.985682 383.97544 
L 526.205235 401.589205 
L 526.863895 524.672798 
L 527.303001 430.530544 
L 527.522554 317.562173 
L 527.742107 457.539101 
L 527.96166 439.109908 
L 528.181214 511.050334 
L 528.62032 480.144226 
L 528.839873 361.681325 
L 529.059426 527.515233 
L 529.278979 370.029258 
L 529.498533 527.790516 
L 529.718086 289.867679 
L 529.937639 456.712533 
L 530.157192 461.432551 
L 530.376745 370.235846 
L 530.596298 477.563999 
L 530.815851 441.875146 
L 531.035405 385.94041 
L 531.254958 256.823758 
L 531.474511 440.481595 
L 531.694064 279.045716 
L 531.913617 550.423695 
L 532.13317 295.916276 
L 532.352724 473.197467 
L 532.572277 428.539607 
L 532.79183 348.898191 
L 533.011383 515.442086 
L 533.450489 416.041358 
L 533.670042 290.807693 
L 533.889596 397.691639 
L 534.109149 440.81113 
L 534.328702 371.663855 
L 534.548255 508.074349 
L 534.767808 379.747083 
L 534.987361 446.688018 
L 535.206915 389.746842 
L 535.426468 449.239366 
L 535.646021 276.052491 
L 535.865574 565.983831 
L 536.085127 245.852241 
L 536.30468 504.894379 
L 536.524233 513.183161 
L 536.743787 470.940494 
L 536.96334 552.654534 
L 537.182893 420.739856 
L 537.402446 444.37008 
L 537.841552 399.804713 
L 538.061106 341.866284 
L 538.280659 398.77739 
L 538.500212 426.061396 
L 538.939318 367.040824 
L 539.158871 308.651851 
L 539.378424 501.951072 
L 539.597978 441.325899 
L 539.817531 432.067857 
L 540.037084 180.91985 
L 540.256637 397.099035 
L 540.47619 336.666044 
L 540.695743 449.276275 
L 540.915297 434.005071 
L 541.13485 227.991389 
L 541.354403 448.7431 
L 541.573956 403.384246 
L 541.793509 430.924545 
L 542.013062 510.966094 
L 542.232615 428.842579 
L 542.452169 389.376433 
L 542.671722 425.35438 
L 542.891275 489.548042 
L 543.110828 424.696126 
L 543.549934 508.006872 
L 543.769488 344.864182 
L 543.989041 350.489849 
L 544.208594 339.335541 
L 544.428147 254.120697 
L 544.6477 262.579108 
L 544.867253 410.339011 
L 545.086806 339.420575 
L 545.30636 419.23535 
L 545.525913 287.782179 
L 545.745466 417.925844 
L 545.745466 417.925844 
" style="fill:none;stroke:#96c69a;stroke-linecap:round;stroke-width:3;"/>
   </g>
   <g id="line2d_2"/>
   <g id="patch_3">
    <path d="M 84.914375 603.86 
L 84.914375 109.484571 
" style="fill:none;stroke:#262626;stroke-linecap:square;stroke-linejoin:miter;stroke-width:2.5;"/>
   </g>
   <g id="patch_4">
    <path d="M 84.914375 603.86 
L 567.689804 603.86 
" style="fill:none;stroke:#262626;stroke-linecap:square;stroke-linejoin:miter;stroke-width:2.5;"/>
   </g>
   <g id="legend_1">
    <g id="patch_5">
     <path d="M 514.774179 598.86 
L 560.689804 598.86 
Q 562.689804 598.86 562.689804 596.86 
L 562.689804 554.954375 
Q 562.689804 552.954375 560.689804 552.954375 
L 514.774179 552.954375 
Q 512.774179 552.954375 512.774179 554.954375 
L 512.774179 596.86 
Q 512.774179 598.86 514.774179 598.86 
z
" style="fill:#ffffff;opacity:0.8;stroke:#cccccc;stroke-linejoin:miter;stroke-width:2;"/>
    </g>
    <g id="text_15">
     <!-- $n_\tau$ -->
     <g style="fill:#262626;" transform="translate(524.651991 575.190625)scale(0.24 -0.24)">
      <defs>
       <path d="M 3566 2113 
L 3156 0 
L 2578 0 
L 2988 2091 
Q 3016 2238 3031 2350 
Q 3047 2463 3047 2528 
Q 3047 2791 2881 2937 
Q 2716 3084 2419 3084 
Q 1956 3084 1622 2776 
Q 1288 2469 1184 1941 
L 800 0 
L 225 0 
L 903 3500 
L 1478 3500 
L 1363 2950 
Q 1603 3253 1940 3418 
Q 2278 3584 2650 3584 
Q 3113 3584 3367 3334 
Q 3622 3084 3622 2631 
Q 3622 2519 3608 2391 
Q 3594 2263 3566 2113 
z
" id="DejaVuSans-Oblique-6e" transform="scale(0.015625)"/>
       <path d="M 2103 638 
Q 2188 488 2525 488 
L 2800 488 
L 2706 0 
L 2363 0 
Q 1800 0 1600 300 
Q 1403 606 1534 1269 
L 1856 2925 
L 541 2925 
L 653 3500 
L 3881 3500 
L 3769 2925 
L 2444 2925 
L 2113 1234 
Q 2025 781 2103 638 
z
" id="DejaVuSans-Oblique-3c4" transform="scale(0.015625)"/>
      </defs>
      <use xlink:href="#DejaVuSans-Oblique-6e"/>
      <use transform="translate(63.378906 -16.40625)scale(0.7)" xlink:href="#DejaVuSans-Oblique-3c4"/>
     </g>
    </g>
    <g id="line2d_3">
     <path d="M 516.774179 589.280313 
L 536.774179 589.280313 
" style="fill:none;stroke:#96c69a;stroke-linecap:round;stroke-width:3;"/>
    </g>
    <g id="line2d_4"/>
    <g id="text_16">
     <!-- 10 -->
     <g style="fill:#262626;" transform="translate(544.774179 592.780313)scale(0.1 -0.1)">
      <defs>
       <path d="M 750 831 
L 1813 831 
L 1813 3847 
L 722 3622 
L 722 4441 
L 1806 4666 
L 2950 4666 
L 2950 831 
L 4013 831 
L 4013 0 
L 750 0 
L 750 831 
z
" id="DejaVuSans-Bold-31" transform="scale(0.015625)"/>
       <path d="M 2944 2338 
Q 2944 3213 2780 3570 
Q 2616 3928 2228 3928 
Q 1841 3928 1675 3570 
Q 1509 3213 1509 2338 
Q 1509 1453 1675 1090 
Q 1841 728 2228 728 
Q 2613 728 2778 1090 
Q 2944 1453 2944 2338 
z
M 4147 2328 
Q 4147 1169 3647 539 
Q 3147 -91 2228 -91 
Q 1306 -91 806 539 
Q 306 1169 306 2328 
Q 306 3491 806 4120 
Q 1306 4750 2228 4750 
Q 3147 4750 3647 4120 
Q 4147 3491 4147 2328 
z
" id="DejaVuSans-Bold-30" transform="scale(0.015625)"/>
      </defs>
      <use xlink:href="#DejaVuSans-Bold-31"/>
      <use x="69.580078" xlink:href="#DejaVuSans-Bold-30"/>
     </g>
    </g>
   </g>
  </g>
  <g id="axes_2">
   <g id="patch_6">
    <path d="M 84.914375 92.437143 
L 567.689804 92.437143 
L 567.689804 7.2 
L 84.914375 7.2 
z
" style="fill:none;"/>
   </g>
   <g id="matplotlib.axis_3">
    <g id="xtick_7"/>
    <g id="xtick_8"/>
    <g id="xtick_9"/>
    <g id="xtick_10"/>
    <g id="xtick_11"/>
    <g id="xtick_12"/>
   </g>
   <g id="matplotlib.axis_4">
    <g id="ytick_7">
     <g id="text_17">
      <!-- 0 -->
      <g style="fill:#262626;" transform="translate(55.416875 100.795424)scale(0.22 -0.22)">
       <use xlink:href="#DejaVuSans-30"/>
      </g>
     </g>
    </g>
    <g id="ytick_8">
     <g id="text_18">
      <!-- 100 -->
      <g style="fill:#262626;" transform="translate(27.421875 48.082287)scale(0.22 -0.22)">
       <use xlink:href="#DejaVuSans-31"/>
       <use x="63.623047" xlink:href="#DejaVuSans-30"/>
       <use x="127.246094" xlink:href="#DejaVuSans-30"/>
      </g>
     </g>
    </g>
   </g>
   <g id="patch_7">
    <path clip-path="url(#p9d19c46c80)" d="M 106.858713 92.437143 
L 140.619232 92.437143 
L 140.619232 11.258912 
L 106.858713 11.258912 
z
" style="fill:#96c69a;fill-opacity:0.5;stroke:#ffffff;stroke-linejoin:miter;stroke-width:2;"/>
   </g>
   <g id="patch_8">
    <path clip-path="url(#p9d19c46c80)" d="M 140.619232 92.437143 
L 174.379752 92.437143 
L 174.379752 11.258912 
L 140.619232 11.258912 
z
" style="fill:#96c69a;fill-opacity:0.5;stroke:#ffffff;stroke-linejoin:miter;stroke-width:2;"/>
   </g>
   <g id="patch_9">
    <path clip-path="url(#p9d19c46c80)" d="M 174.379752 92.437143 
L 208.140271 92.437143 
L 208.140271 11.258912 
L 174.379752 11.258912 
z
" style="fill:#96c69a;fill-opacity:0.5;stroke:#ffffff;stroke-linejoin:miter;stroke-width:2;"/>
   </g>
   <g id="patch_10">
    <path clip-path="url(#p9d19c46c80)" d="M 208.140271 92.437143 
L 241.900791 92.437143 
L 241.900791 11.258912 
L 208.140271 11.258912 
z
" style="fill:#96c69a;fill-opacity:0.5;stroke:#ffffff;stroke-linejoin:miter;stroke-width:2;"/>
   </g>
   <g id="patch_11">
    <path clip-path="url(#p9d19c46c80)" d="M 241.900791 92.437143 
L 275.66131 92.437143 
L 275.66131 11.786043 
L 241.900791 11.786043 
z
" style="fill:#96c69a;fill-opacity:0.5;stroke:#ffffff;stroke-linejoin:miter;stroke-width:2;"/>
   </g>
   <g id="patch_12">
    <path clip-path="url(#p9d19c46c80)" d="M 275.66131 92.437143 
L 309.42183 92.437143 
L 309.42183 11.258912 
L 275.66131 11.258912 
z
" style="fill:#96c69a;fill-opacity:0.5;stroke:#ffffff;stroke-linejoin:miter;stroke-width:2;"/>
   </g>
   <g id="patch_13">
    <path clip-path="url(#p9d19c46c80)" d="M 309.42183 92.437143 
L 343.182349 92.437143 
L 343.182349 11.258912 
L 309.42183 11.258912 
z
" style="fill:#96c69a;fill-opacity:0.5;stroke:#ffffff;stroke-linejoin:miter;stroke-width:2;"/>
   </g>
   <g id="patch_14">
    <path clip-path="url(#p9d19c46c80)" d="M 343.182349 92.437143 
L 376.942869 92.437143 
L 376.942869 11.258912 
L 343.182349 11.258912 
z
" style="fill:#96c69a;fill-opacity:0.5;stroke:#ffffff;stroke-linejoin:miter;stroke-width:2;"/>
   </g>
   <g id="patch_15">
    <path clip-path="url(#p9d19c46c80)" d="M 376.942869 92.437143 
L 410.703388 92.437143 
L 410.703388 11.786043 
L 376.942869 11.786043 
z
" style="fill:#96c69a;fill-opacity:0.5;stroke:#ffffff;stroke-linejoin:miter;stroke-width:2;"/>
   </g>
   <g id="patch_16">
    <path clip-path="url(#p9d19c46c80)" d="M 410.703388 92.437143 
L 444.463907 92.437143 
L 444.463907 11.258912 
L 410.703388 11.258912 
z
" style="fill:#96c69a;fill-opacity:0.5;stroke:#ffffff;stroke-linejoin:miter;stroke-width:2;"/>
   </g>
   <g id="patch_17">
    <path clip-path="url(#p9d19c46c80)" d="M 444.463907 92.437143 
L 478.224427 92.437143 
L 478.224427 11.258912 
L 444.463907 11.258912 
z
" style="fill:#96c69a;fill-opacity:0.5;stroke:#ffffff;stroke-linejoin:miter;stroke-width:2;"/>
   </g>
   <g id="patch_18">
    <path clip-path="url(#p9d19c46c80)" d="M 478.224427 92.437143 
L 511.984946 92.437143 
L 511.984946 11.258912 
L 478.224427 11.258912 
z
" style="fill:#96c69a;fill-opacity:0.5;stroke:#ffffff;stroke-linejoin:miter;stroke-width:2;"/>
   </g>
   <g id="patch_19">
    <path clip-path="url(#p9d19c46c80)" d="M 511.984946 92.437143 
L 545.745466 92.437143 
L 545.745466 11.258912 
L 511.984946 11.258912 
z
" style="fill:#96c69a;fill-opacity:0.5;stroke:#ffffff;stroke-linejoin:miter;stroke-width:2;"/>
   </g>
   <g id="patch_20">
    <path d="M 84.914375 92.437143 
L 84.914375 7.2 
" style="fill:none;stroke:#262626;stroke-linecap:square;stroke-linejoin:miter;stroke-width:2.5;"/>
   </g>
   <g id="patch_21">
    <path d="M 84.914375 92.437143 
L 567.689804 92.437143 
" style="fill:none;stroke:#262626;stroke-linecap:square;stroke-linejoin:miter;stroke-width:2.5;"/>
   </g>
  </g>
  <g id="axes_3">
   <g id="patch_22">
    <path d="M 584.337232 603.86 
L 667.574375 603.86 
L 667.574375 109.484571 
L 584.337232 109.484571 
z
" style="fill:none;"/>
   </g>
   <g id="matplotlib.axis_5">
    <g id="xtick_13">
     <g id="text_19">
      <!-- 0 -->
      <g style="fill:#262626;" transform="translate(577.338482 636.076563)scale(0.22 -0.22)">
       <use xlink:href="#DejaVuSans-30"/>
      </g>
     </g>
    </g>
    <g id="xtick_14">
     <g id="text_20">
      <!-- 100 -->
      <g style="fill:#262626;" transform="translate(607.627837 636.076563)scale(0.22 -0.22)">
       <use xlink:href="#DejaVuSans-31"/>
       <use x="63.623047" xlink:href="#DejaVuSans-30"/>
       <use x="127.246094" xlink:href="#DejaVuSans-30"/>
      </g>
     </g>
    </g>
   </g>
   <g id="matplotlib.axis_6">
    <g id="ytick_9"/>
    <g id="ytick_10"/>
    <g id="ytick_11"/>
    <g id="ytick_12"/>
    <g id="ytick_13"/>
    <g id="ytick_14"/>
   </g>
   <g id="patch_23">
    <path clip-path="url(#pedd915c5fe)" d="M 584.337232 581.38839 
L 586.994443 581.38839 
L 586.994443 566.890576 
L 584.337232 566.890576 
z
" style="fill:#96c69a;fill-opacity:0.5;stroke:#ffffff;stroke-linejoin:miter;stroke-width:1.449781;"/>
   </g>
   <g id="patch_24">
    <path clip-path="url(#pedd915c5fe)" d="M 584.337232 566.890576 
L 590.094523 566.890576 
L 590.094523 552.392763 
L 584.337232 552.392763 
z
" style="fill:#96c69a;fill-opacity:0.5;stroke:#ffffff;stroke-linejoin:miter;stroke-width:1.449781;"/>
   </g>
   <g id="patch_25">
    <path clip-path="url(#pedd915c5fe)" d="M 584.337232 552.392763 
L 593.194603 552.392763 
L 593.194603 537.89495 
L 584.337232 537.89495 
z
" style="fill:#96c69a;fill-opacity:0.5;stroke:#ffffff;stroke-linejoin:miter;stroke-width:1.449781;"/>
   </g>
   <g id="patch_26">
    <path clip-path="url(#pedd915c5fe)" d="M 584.337232 537.89495 
L 604.709185 537.89495 
L 604.709185 523.397137 
L 584.337232 523.397137 
z
" style="fill:#96c69a;fill-opacity:0.5;stroke:#ffffff;stroke-linejoin:miter;stroke-width:1.449781;"/>
   </g>
   <g id="patch_27">
    <path clip-path="url(#pedd915c5fe)" d="M 584.337232 523.397137 
L 612.680819 523.397137 
L 612.680819 508.899324 
L 584.337232 508.899324 
z
" style="fill:#96c69a;fill-opacity:0.5;stroke:#ffffff;stroke-linejoin:miter;stroke-width:1.449781;"/>
   </g>
   <g id="patch_28">
    <path clip-path="url(#pedd915c5fe)" d="M 584.337232 508.899324 
L 628.624087 508.899324 
L 628.624087 494.401511 
L 584.337232 494.401511 
z
" style="fill:#96c69a;fill-opacity:0.5;stroke:#ffffff;stroke-linejoin:miter;stroke-width:1.449781;"/>
   </g>
   <g id="patch_29">
    <path clip-path="url(#pedd915c5fe)" d="M 584.337232 494.401511 
L 632.167035 494.401511 
L 632.167035 479.903698 
L 584.337232 479.903698 
z
" style="fill:#96c69a;fill-opacity:0.5;stroke:#ffffff;stroke-linejoin:miter;stroke-width:1.449781;"/>
   </g>
   <g id="patch_30">
    <path clip-path="url(#pedd915c5fe)" d="M 584.337232 479.903698 
L 638.810063 479.903698 
L 638.810063 465.405884 
L 584.337232 465.405884 
z
" style="fill:#96c69a;fill-opacity:0.5;stroke:#ffffff;stroke-linejoin:miter;stroke-width:1.449781;"/>
   </g>
   <g id="patch_31">
    <path clip-path="url(#pedd915c5fe)" d="M 584.337232 465.405884 
L 652.096119 465.405884 
L 652.096119 450.908071 
L 584.337232 450.908071 
z
" style="fill:#96c69a;fill-opacity:0.5;stroke:#ffffff;stroke-linejoin:miter;stroke-width:1.449781;"/>
   </g>
   <g id="patch_32">
    <path clip-path="url(#pedd915c5fe)" d="M 584.337232 450.908071 
L 663.610702 450.908071 
L 663.610702 436.410258 
L 584.337232 436.410258 
z
" style="fill:#96c69a;fill-opacity:0.5;stroke:#ffffff;stroke-linejoin:miter;stroke-width:1.449781;"/>
   </g>
   <g id="patch_33">
    <path clip-path="url(#pedd915c5fe)" d="M 584.337232 436.410258 
L 655.639068 436.410258 
L 655.639068 421.912445 
L 584.337232 421.912445 
z
" style="fill:#96c69a;fill-opacity:0.5;stroke:#ffffff;stroke-linejoin:miter;stroke-width:1.449781;"/>
   </g>
   <g id="patch_34">
    <path clip-path="url(#pedd915c5fe)" d="M 584.337232 421.912445 
L 651.210382 421.912445 
L 651.210382 407.414632 
L 584.337232 407.414632 
z
" style="fill:#96c69a;fill-opacity:0.5;stroke:#ffffff;stroke-linejoin:miter;stroke-width:1.449781;"/>
   </g>
   <g id="patch_35">
    <path clip-path="url(#pedd915c5fe)" d="M 584.337232 407.414632 
L 654.310462 407.414632 
L 654.310462 392.916819 
L 584.337232 392.916819 
z
" style="fill:#96c69a;fill-opacity:0.5;stroke:#ffffff;stroke-linejoin:miter;stroke-width:1.449781;"/>
   </g>
   <g id="patch_36">
    <path clip-path="url(#pedd915c5fe)" d="M 584.337232 392.916819 
L 645.89596 392.916819 
L 645.89596 378.419005 
L 584.337232 378.419005 
z
" style="fill:#96c69a;fill-opacity:0.5;stroke:#ffffff;stroke-linejoin:miter;stroke-width:1.449781;"/>
   </g>
   <g id="patch_37">
    <path clip-path="url(#pedd915c5fe)" d="M 584.337232 378.419005 
L 639.252932 378.419005 
L 639.252932 363.921192 
L 584.337232 363.921192 
z
" style="fill:#96c69a;fill-opacity:0.5;stroke:#ffffff;stroke-linejoin:miter;stroke-width:1.449781;"/>
   </g>
   <g id="patch_38">
    <path clip-path="url(#pedd915c5fe)" d="M 584.337232 363.921192 
L 625.524007 363.921192 
L 625.524007 349.423379 
L 584.337232 349.423379 
z
" style="fill:#96c69a;fill-opacity:0.5;stroke:#ffffff;stroke-linejoin:miter;stroke-width:1.449781;"/>
   </g>
   <g id="patch_39">
    <path clip-path="url(#pedd915c5fe)" d="M 584.337232 349.423379 
L 624.195401 349.423379 
L 624.195401 334.925566 
L 584.337232 334.925566 
z
" style="fill:#96c69a;fill-opacity:0.5;stroke:#ffffff;stroke-linejoin:miter;stroke-width:1.449781;"/>
   </g>
   <g id="patch_40">
    <path clip-path="url(#pedd915c5fe)" d="M 584.337232 334.925566 
L 617.995241 334.925566 
L 617.995241 320.427753 
L 584.337232 320.427753 
z
" style="fill:#96c69a;fill-opacity:0.5;stroke:#ffffff;stroke-linejoin:miter;stroke-width:1.449781;"/>
   </g>
   <g id="patch_41">
    <path clip-path="url(#pedd915c5fe)" d="M 584.337232 320.427753 
L 603.38058 320.427753 
L 603.38058 305.92994 
L 584.337232 305.92994 
z
" style="fill:#96c69a;fill-opacity:0.5;stroke:#ffffff;stroke-linejoin:miter;stroke-width:1.449781;"/>
   </g>
   <g id="patch_42">
    <path clip-path="url(#pedd915c5fe)" d="M 584.337232 305.92994 
L 603.823448 305.92994 
L 603.823448 291.432127 
L 584.337232 291.432127 
z
" style="fill:#96c69a;fill-opacity:0.5;stroke:#ffffff;stroke-linejoin:miter;stroke-width:1.449781;"/>
   </g>
   <g id="patch_43">
    <path clip-path="url(#pedd915c5fe)" d="M 584.337232 291.432127 
L 597.623288 291.432127 
L 597.623288 276.934313 
L 584.337232 276.934313 
z
" style="fill:#96c69a;fill-opacity:0.5;stroke:#ffffff;stroke-linejoin:miter;stroke-width:1.449781;"/>
   </g>
   <g id="patch_44">
    <path clip-path="url(#pedd915c5fe)" d="M 584.337232 276.934313 
L 594.966077 276.934313 
L 594.966077 262.4365 
L 584.337232 262.4365 
z
" style="fill:#96c69a;fill-opacity:0.5;stroke:#ffffff;stroke-linejoin:miter;stroke-width:1.449781;"/>
   </g>
   <g id="patch_45">
    <path clip-path="url(#pedd915c5fe)" d="M 584.337232 262.4365 
L 591.865997 262.4365 
L 591.865997 247.938687 
L 584.337232 247.938687 
z
" style="fill:#96c69a;fill-opacity:0.5;stroke:#ffffff;stroke-linejoin:miter;stroke-width:1.449781;"/>
   </g>
   <g id="patch_46">
    <path clip-path="url(#pedd915c5fe)" d="M 584.337232 247.938687 
L 590.537392 247.938687 
L 590.537392 233.440874 
L 584.337232 233.440874 
z
" style="fill:#96c69a;fill-opacity:0.5;stroke:#ffffff;stroke-linejoin:miter;stroke-width:1.449781;"/>
   </g>
   <g id="patch_47">
    <path clip-path="url(#pedd915c5fe)" d="M 584.337232 233.440874 
L 587.437312 233.440874 
L 587.437312 218.943061 
L 584.337232 218.943061 
z
" style="fill:#96c69a;fill-opacity:0.5;stroke:#ffffff;stroke-linejoin:miter;stroke-width:1.449781;"/>
   </g>
   <g id="patch_48">
    <path clip-path="url(#pedd915c5fe)" d="M 584.337232 218.943061 
L 586.994443 218.943061 
L 586.994443 204.445248 
L 584.337232 204.445248 
z
" style="fill:#96c69a;fill-opacity:0.5;stroke:#ffffff;stroke-linejoin:miter;stroke-width:1.449781;"/>
   </g>
   <g id="patch_49">
    <path clip-path="url(#pedd915c5fe)" d="M 584.337232 204.445248 
L 585.665838 204.445248 
L 585.665838 189.947434 
L 584.337232 189.947434 
z
" style="fill:#96c69a;fill-opacity:0.5;stroke:#ffffff;stroke-linejoin:miter;stroke-width:1.449781;"/>
   </g>
   <g id="patch_50">
    <path clip-path="url(#pedd915c5fe)" d="M 584.337232 189.947434 
L 586.108706 189.947434 
L 586.108706 175.449621 
L 584.337232 175.449621 
z
" style="fill:#96c69a;fill-opacity:0.5;stroke:#ffffff;stroke-linejoin:miter;stroke-width:1.449781;"/>
   </g>
   <g id="patch_51">
    <path clip-path="url(#pedd915c5fe)" d="M 584.337232 175.449621 
L 584.337232 175.449621 
L 584.337232 160.951808 
L 584.337232 160.951808 
z
" style="fill:#96c69a;fill-opacity:0.5;stroke:#ffffff;stroke-linejoin:miter;stroke-width:1.449781;"/>
   </g>
   <g id="patch_52">
    <path clip-path="url(#pedd915c5fe)" d="M 584.337232 160.951808 
L 585.222969 160.951808 
L 585.222969 146.453995 
L 584.337232 146.453995 
z
" style="fill:#96c69a;fill-opacity:0.5;stroke:#ffffff;stroke-linejoin:miter;stroke-width:1.449781;"/>
   </g>
   <g id="patch_53">
    <path clip-path="url(#pedd915c5fe)" d="M 584.337232 146.453995 
L 585.222969 146.453995 
L 585.222969 131.956182 
L 584.337232 131.956182 
z
" style="fill:#96c69a;fill-opacity:0.5;stroke:#ffffff;stroke-linejoin:miter;stroke-width:1.449781;"/>
   </g>
   <g id="patch_54">
    <path d="M 584.337232 603.86 
L 584.337232 109.484571 
" style="fill:none;stroke:#262626;stroke-linecap:square;stroke-linejoin:miter;stroke-width:2.5;"/>
   </g>
   <g id="patch_55">
    <path d="M 584.337232 603.86 
L 667.574375 603.86 
" style="fill:none;stroke:#262626;stroke-linecap:square;stroke-linejoin:miter;stroke-width:2.5;"/>
   </g>
  </g>
 </g>
 <defs>
  <clipPath id="p89be90f718">
   <rect height="494.375429" width="482.775429" x="84.914375" y="109.484571"/>
  </clipPath>
  <clipPath id="p9d19c46c80">
   <rect height="85.237143" width="482.775429" x="84.914375" y="7.2"/>
  </clipPath>
  <clipPath id="pedd915c5fe">
   <rect height="494.375429" width="83.237143" x="584.337232" y="109.484571"/>
  </clipPath>
 </defs>
</svg>
