<?xml version="1.0" encoding="utf-8" standalone="no"?>
<!DOCTYPE svg PUBLIC "-//W3C//DTD SVG 1.1//EN"
  "http://www.w3.org/Graphics/SVG/1.1/DTD/svg11.dtd">
<svg height="675.079375pt" version="1.1" viewBox="0 0 674.774375 675.079375" width="674.774375pt" xmlns="http://www.w3.org/2000/svg" xmlns:xlink="http://www.w3.org/1999/xlink">
 <metadata>
  <rdf:RDF xmlns:cc="http://creativecommons.org/ns#" xmlns:dc="http://purl.org/dc/elements/1.1/" xmlns:rdf="http://www.w3.org/1999/02/22-rdf-syntax-ns#">
   <cc:Work>
    <dc:type rdf:resource="http://purl.org/dc/dcmitype/StillImage"/>
    <dc:date>2021-07-16T21:44:04.262485</dc:date>
    <dc:format>image/svg+xml</dc:format>
    <dc:creator>
     <cc:Agent>
      <dc:title>Matplotlib v3.4.2, https://matplotlib.org/</dc:title>
     </cc:Agent>
    </dc:creator>
   </cc:Work>
  </rdf:RDF>
 </metadata>
 <defs>
  <style type="text/css">*{stroke-linecap:butt;stroke-linejoin:round;}</style>
 </defs>
 <g id="figure_1">
  <g id="patch_1">
   <path d="M 0 675.079375 
L 674.774375 675.079375 
L 674.774375 0 
L 0 0 
z
" style="fill:#ffffff;"/>
  </g>
  <g id="axes_1">
   <g id="patch_2">
    <path d="M 84.914375 603.86 
L 567.689804 603.86 
L 567.689804 109.484571 
L 84.914375 109.484571 
z
" style="fill:none;"/>
   </g>
   <g id="matplotlib.axis_1">
    <g id="xtick_1">
     <g id="text_1">
      <!-- 0 -->
      <g style="fill:#262626;" transform="translate(99.64041 636.076563)scale(0.22 -0.22)">
       <defs>
        <path d="M 2034 4250 
Q 1547 4250 1301 3770 
Q 1056 3291 1056 2328 
Q 1056 1369 1301 889 
Q 1547 409 2034 409 
Q 2525 409 2770 889 
Q 3016 1369 3016 2328 
Q 3016 3291 2770 3770 
Q 2525 4250 2034 4250 
z
M 2034 4750 
Q 2819 4750 3233 4129 
Q 3647 3509 3647 2328 
Q 3647 1150 3233 529 
Q 2819 -91 2034 -91 
Q 1250 -91 836 529 
Q 422 1150 422 2328 
Q 422 3509 836 4129 
Q 1250 4750 2034 4750 
z
" id="DejaVuSans-30" transform="scale(0.015625)"/>
       </defs>
       <use xlink:href="#DejaVuSans-30"/>
      </g>
     </g>
    </g>
    <g id="xtick_2">
     <g id="text_2">
      <!-- 20000 -->
      <g style="fill:#262626;" transform="translate(159.466672 636.076563)scale(0.22 -0.22)">
       <defs>
        <path d="M 1228 531 
L 3431 531 
L 3431 0 
L 469 0 
L 469 531 
Q 828 903 1448 1529 
Q 2069 2156 2228 2338 
Q 2531 2678 2651 2914 
Q 2772 3150 2772 3378 
Q 2772 3750 2511 3984 
Q 2250 4219 1831 4219 
Q 1534 4219 1204 4116 
Q 875 4013 500 3803 
L 500 4441 
Q 881 4594 1212 4672 
Q 1544 4750 1819 4750 
Q 2544 4750 2975 4387 
Q 3406 4025 3406 3419 
Q 3406 3131 3298 2873 
Q 3191 2616 2906 2266 
Q 2828 2175 2409 1742 
Q 1991 1309 1228 531 
z
" id="DejaVuSans-32" transform="scale(0.015625)"/>
       </defs>
       <use xlink:href="#DejaVuSans-32"/>
       <use x="63.623047" xlink:href="#DejaVuSans-30"/>
       <use x="127.246094" xlink:href="#DejaVuSans-30"/>
       <use x="190.869141" xlink:href="#DejaVuSans-30"/>
       <use x="254.492188" xlink:href="#DejaVuSans-30"/>
      </g>
     </g>
    </g>
    <g id="xtick_3">
     <g id="text_3">
      <!-- 40000 -->
      <g style="fill:#262626;" transform="translate(247.287934 636.076563)scale(0.22 -0.22)">
       <defs>
        <path d="M 2419 4116 
L 825 1625 
L 2419 1625 
L 2419 4116 
z
M 2253 4666 
L 3047 4666 
L 3047 1625 
L 3713 1625 
L 3713 1100 
L 3047 1100 
L 3047 0 
L 2419 0 
L 2419 1100 
L 313 1100 
L 313 1709 
L 2253 4666 
z
" id="DejaVuSans-34" transform="scale(0.015625)"/>
       </defs>
       <use xlink:href="#DejaVuSans-34"/>
       <use x="63.623047" xlink:href="#DejaVuSans-30"/>
       <use x="127.246094" xlink:href="#DejaVuSans-30"/>
       <use x="190.869141" xlink:href="#DejaVuSans-30"/>
       <use x="254.492188" xlink:href="#DejaVuSans-30"/>
      </g>
     </g>
    </g>
    <g id="xtick_4">
     <g id="text_4">
      <!-- 60000 -->
      <g style="fill:#262626;" transform="translate(335.109196 636.076563)scale(0.22 -0.22)">
       <defs>
        <path d="M 2113 2584 
Q 1688 2584 1439 2293 
Q 1191 2003 1191 1497 
Q 1191 994 1439 701 
Q 1688 409 2113 409 
Q 2538 409 2786 701 
Q 3034 994 3034 1497 
Q 3034 2003 2786 2293 
Q 2538 2584 2113 2584 
z
M 3366 4563 
L 3366 3988 
Q 3128 4100 2886 4159 
Q 2644 4219 2406 4219 
Q 1781 4219 1451 3797 
Q 1122 3375 1075 2522 
Q 1259 2794 1537 2939 
Q 1816 3084 2150 3084 
Q 2853 3084 3261 2657 
Q 3669 2231 3669 1497 
Q 3669 778 3244 343 
Q 2819 -91 2113 -91 
Q 1303 -91 875 529 
Q 447 1150 447 2328 
Q 447 3434 972 4092 
Q 1497 4750 2381 4750 
Q 2619 4750 2861 4703 
Q 3103 4656 3366 4563 
z
" id="DejaVuSans-36" transform="scale(0.015625)"/>
       </defs>
       <use xlink:href="#DejaVuSans-36"/>
       <use x="63.623047" xlink:href="#DejaVuSans-30"/>
       <use x="127.246094" xlink:href="#DejaVuSans-30"/>
       <use x="190.869141" xlink:href="#DejaVuSans-30"/>
       <use x="254.492188" xlink:href="#DejaVuSans-30"/>
      </g>
     </g>
    </g>
    <g id="xtick_5">
     <g id="text_5">
      <!-- 80000 -->
      <g style="fill:#262626;" transform="translate(422.930458 636.076563)scale(0.22 -0.22)">
       <defs>
        <path d="M 2034 2216 
Q 1584 2216 1326 1975 
Q 1069 1734 1069 1313 
Q 1069 891 1326 650 
Q 1584 409 2034 409 
Q 2484 409 2743 651 
Q 3003 894 3003 1313 
Q 3003 1734 2745 1975 
Q 2488 2216 2034 2216 
z
M 1403 2484 
Q 997 2584 770 2862 
Q 544 3141 544 3541 
Q 544 4100 942 4425 
Q 1341 4750 2034 4750 
Q 2731 4750 3128 4425 
Q 3525 4100 3525 3541 
Q 3525 3141 3298 2862 
Q 3072 2584 2669 2484 
Q 3125 2378 3379 2068 
Q 3634 1759 3634 1313 
Q 3634 634 3220 271 
Q 2806 -91 2034 -91 
Q 1263 -91 848 271 
Q 434 634 434 1313 
Q 434 1759 690 2068 
Q 947 2378 1403 2484 
z
M 1172 3481 
Q 1172 3119 1398 2916 
Q 1625 2713 2034 2713 
Q 2441 2713 2670 2916 
Q 2900 3119 2900 3481 
Q 2900 3844 2670 4047 
Q 2441 4250 2034 4250 
Q 1625 4250 1398 4047 
Q 1172 3844 1172 3481 
z
" id="DejaVuSans-38" transform="scale(0.015625)"/>
       </defs>
       <use xlink:href="#DejaVuSans-38"/>
       <use x="63.623047" xlink:href="#DejaVuSans-30"/>
       <use x="127.246094" xlink:href="#DejaVuSans-30"/>
       <use x="190.869141" xlink:href="#DejaVuSans-30"/>
       <use x="254.492188" xlink:href="#DejaVuSans-30"/>
      </g>
     </g>
    </g>
    <g id="xtick_6">
     <g id="text_6">
      <!-- 100000 -->
      <g style="fill:#262626;" transform="translate(503.75297 636.076563)scale(0.22 -0.22)">
       <defs>
        <path d="M 794 531 
L 1825 531 
L 1825 4091 
L 703 3866 
L 703 4441 
L 1819 4666 
L 2450 4666 
L 2450 531 
L 3481 531 
L 3481 0 
L 794 0 
L 794 531 
z
" id="DejaVuSans-31" transform="scale(0.015625)"/>
       </defs>
       <use xlink:href="#DejaVuSans-31"/>
       <use x="63.623047" xlink:href="#DejaVuSans-30"/>
       <use x="127.246094" xlink:href="#DejaVuSans-30"/>
       <use x="190.869141" xlink:href="#DejaVuSans-30"/>
       <use x="254.492188" xlink:href="#DejaVuSans-30"/>
       <use x="318.115234" xlink:href="#DejaVuSans-30"/>
      </g>
     </g>
    </g>
    <g id="text_7">
     <!-- MDTU -->
     <g style="fill:#262626;" transform="translate(290.596464 662.888125)scale(0.24 -0.24)">
      <defs>
       <path d="M 628 4666 
L 1569 4666 
L 2759 1491 
L 3956 4666 
L 4897 4666 
L 4897 0 
L 4281 0 
L 4281 4097 
L 3078 897 
L 2444 897 
L 1241 4097 
L 1241 0 
L 628 0 
L 628 4666 
z
" id="DejaVuSans-4d" transform="scale(0.015625)"/>
       <path d="M 1259 4147 
L 1259 519 
L 2022 519 
Q 2988 519 3436 956 
Q 3884 1394 3884 2338 
Q 3884 3275 3436 3711 
Q 2988 4147 2022 4147 
L 1259 4147 
z
M 628 4666 
L 1925 4666 
Q 3281 4666 3915 4102 
Q 4550 3538 4550 2338 
Q 4550 1131 3912 565 
Q 3275 0 1925 0 
L 628 0 
L 628 4666 
z
" id="DejaVuSans-44" transform="scale(0.015625)"/>
       <path d="M -19 4666 
L 3928 4666 
L 3928 4134 
L 2272 4134 
L 2272 0 
L 1638 0 
L 1638 4134 
L -19 4134 
L -19 4666 
z
" id="DejaVuSans-54" transform="scale(0.015625)"/>
       <path d="M 556 4666 
L 1191 4666 
L 1191 1831 
Q 1191 1081 1462 751 
Q 1734 422 2344 422 
Q 2950 422 3222 751 
Q 3494 1081 3494 1831 
L 3494 4666 
L 4128 4666 
L 4128 1753 
Q 4128 841 3676 375 
Q 3225 -91 2344 -91 
Q 1459 -91 1007 375 
Q 556 841 556 1753 
L 556 4666 
z
" id="DejaVuSans-55" transform="scale(0.015625)"/>
      </defs>
      <use xlink:href="#DejaVuSans-4d"/>
      <use x="86.279297" xlink:href="#DejaVuSans-44"/>
      <use x="163.28125" xlink:href="#DejaVuSans-54"/>
      <use x="224.365234" xlink:href="#DejaVuSans-55"/>
     </g>
    </g>
   </g>
   <g id="matplotlib.axis_2">
    <g id="ytick_1">
     <g id="text_8">
      <!-- 0.5 -->
      <g style="fill:#262626;" transform="translate(34.4275 538.160815)scale(0.22 -0.22)">
       <defs>
        <path d="M 684 794 
L 1344 794 
L 1344 0 
L 684 0 
L 684 794 
z
" id="DejaVuSans-2e" transform="scale(0.015625)"/>
        <path d="M 691 4666 
L 3169 4666 
L 3169 4134 
L 1269 4134 
L 1269 2991 
Q 1406 3038 1543 3061 
Q 1681 3084 1819 3084 
Q 2600 3084 3056 2656 
Q 3513 2228 3513 1497 
Q 3513 744 3044 326 
Q 2575 -91 1722 -91 
Q 1428 -91 1123 -41 
Q 819 9 494 109 
L 494 744 
Q 775 591 1075 516 
Q 1375 441 1709 441 
Q 2250 441 2565 725 
Q 2881 1009 2881 1497 
Q 2881 1984 2565 2268 
Q 2250 2553 1709 2553 
Q 1456 2553 1204 2497 
Q 953 2441 691 2322 
L 691 4666 
z
" id="DejaVuSans-35" transform="scale(0.015625)"/>
       </defs>
       <use xlink:href="#DejaVuSans-30"/>
       <use x="63.623047" xlink:href="#DejaVuSans-2e"/>
       <use x="95.410156" xlink:href="#DejaVuSans-35"/>
      </g>
     </g>
    </g>
    <g id="ytick_2">
     <g id="text_9">
      <!-- 1.0 -->
      <g style="fill:#262626;" transform="translate(34.4275 437.22032)scale(0.22 -0.22)">
       <use xlink:href="#DejaVuSans-31"/>
       <use x="63.623047" xlink:href="#DejaVuSans-2e"/>
       <use x="95.410156" xlink:href="#DejaVuSans-30"/>
      </g>
     </g>
    </g>
    <g id="ytick_3">
     <g id="text_10">
      <!-- 1.5 -->
      <g style="fill:#262626;" transform="translate(34.4275 336.279824)scale(0.22 -0.22)">
       <use xlink:href="#DejaVuSans-31"/>
       <use x="63.623047" xlink:href="#DejaVuSans-2e"/>
       <use x="95.410156" xlink:href="#DejaVuSans-35"/>
      </g>
     </g>
    </g>
    <g id="ytick_4">
     <g id="text_11">
      <!-- 2.0 -->
      <g style="fill:#262626;" transform="translate(34.4275 235.339329)scale(0.22 -0.22)">
       <use xlink:href="#DejaVuSans-32"/>
       <use x="63.623047" xlink:href="#DejaVuSans-2e"/>
       <use x="95.410156" xlink:href="#DejaVuSans-30"/>
      </g>
     </g>
    </g>
    <g id="ytick_5">
     <g id="text_12">
      <!-- 2.5 -->
      <g style="fill:#262626;" transform="translate(34.4275 134.398834)scale(0.22 -0.22)">
       <use xlink:href="#DejaVuSans-32"/>
       <use x="63.623047" xlink:href="#DejaVuSans-2e"/>
       <use x="95.410156" xlink:href="#DejaVuSans-35"/>
      </g>
     </g>
    </g>
    <g id="text_13">
     <!-- $E$ -->
     <g style="fill:#262626;" transform="translate(25.43625 364.352286)rotate(-90)scale(0.24 -0.24)">
      <defs>
       <path d="M 1081 4666 
L 4031 4666 
L 3928 4134 
L 1606 4134 
L 1338 2753 
L 3566 2753 
L 3463 2222 
L 1234 2222 
L 909 531 
L 3284 531 
L 3181 0 
L 172 0 
L 1081 4666 
z
" id="DejaVuSans-Oblique-45" transform="scale(0.015625)"/>
      </defs>
      <use transform="translate(0 0.09375)" xlink:href="#DejaVuSans-Oblique-45"/>
     </g>
    </g>
   </g>
   <g id="line2d_1">
    <path clip-path="url(#p3ac326e88f)" d="M 106.858713 464.984032 
L 107.078266 447.964711 
L 107.297819 492.305501 
L 107.517372 513.506488 
L 107.736925 363.915962 
L 107.956478 563.134763 
L 108.176032 498.381198 
L 108.395585 543.19248 
L 108.615138 453.485917 
L 108.834691 541.409233 
L 109.054244 473.065355 
L 109.273797 491.035599 
L 109.493351 462.660528 
L 109.712904 460.84859 
L 109.932457 451.301117 
L 110.371563 517.741115 
L 110.591116 434.072293 
L 111.030223 498.573559 
L 111.249776 515.482425 
L 111.469329 466.700638 
L 111.688882 535.689175 
L 112.127988 292.130754 
L 112.347541 522.679596 
L 112.567095 473.398615 
L 112.786648 534.097217 
L 113.225754 447.146983 
L 113.66486 512.270752 
L 113.884414 508.566466 
L 114.103967 423.269024 
L 114.32352 561.825928 
L 114.543073 522.257052 
L 114.762626 444.559427 
L 114.982179 529.617154 
L 115.201732 373.198638 
L 115.421286 484.907552 
L 115.640839 429.634417 
L 116.079945 519.06473 
L 116.299498 535.26723 
L 116.738605 426.317133 
L 116.958158 468.597444 
L 117.177711 550.502089 
L 117.397264 430.502264 
L 117.83637 526.663597 
L 118.275477 363.042328 
L 118.49503 513.874498 
L 118.714583 507.722221 
L 118.934136 473.840653 
L 119.153689 479.445352 
L 119.373242 535.453698 
L 120.031902 412.129416 
L 120.251455 545.838516 
L 120.471008 438.747646 
L 120.690561 400.68141 
L 120.910114 431.765132 
L 121.129668 500.254325 
L 121.349221 498.991329 
L 121.568774 537.073312 
L 121.788327 522.798927 
L 122.00788 433.836804 
L 122.446987 491.542339 
L 122.66654 392.790892 
L 122.886093 486.647596 
L 123.105646 492.441784 
L 123.325199 414.858238 
L 123.544752 545.339394 
L 123.764305 491.005661 
L 123.983859 465.440701 
L 124.203412 476.315784 
L 124.422965 421.711968 
L 124.642518 472.535335 
L 124.862071 402.421357 
L 125.081624 396.041137 
L 125.301178 440.185524 
L 125.520731 509.403992 
L 125.740284 487.012433 
L 125.959837 411.021685 
L 126.398943 499.139312 
L 126.618496 485.220484 
L 126.83805 504.06692 
L 127.057603 489.061885 
L 127.277156 428.078786 
L 127.496709 522.381931 
L 127.716262 403.695143 
L 127.935815 420.420837 
L 128.155369 488.919816 
L 128.374922 514.180086 
L 128.814028 402.074312 
L 129.033581 508.146708 
L 129.253134 503.369973 
L 129.692241 410.870434 
L 129.911794 520.438964 
L 130.131347 410.149589 
L 130.570453 517.745554 
L 130.790006 460.387456 
L 131.00956 500.319189 
L 131.229113 473.464589 
L 131.448666 475.562817 
L 131.668219 508.360583 
L 131.887772 398.489408 
L 132.326878 519.997931 
L 132.765985 407.137326 
L 132.985538 502.350482 
L 133.205091 534.04046 
L 133.424644 504.691799 
L 133.644197 460.252856 
L 133.863751 461.944249 
L 134.302857 566.562237 
L 134.52241 538.927899 
L 134.741963 435.681114 
L 134.961516 537.098501 
L 135.181069 524.522133 
L 135.400623 484.155607 
L 135.620176 496.785913 
L 135.839729 493.780932 
L 136.059282 527.077361 
L 136.278835 488.14592 
L 136.498388 352.472949 
L 136.717941 506.510246 
L 136.937495 523.173178 
L 137.157048 276.518247 
L 137.376601 452.867854 
L 137.815707 552.411471 
L 138.03526 495.781088 
L 138.254814 388.484709 
L 138.69392 511.131767 
L 138.913473 449.950549 
L 139.133026 520.438559 
L 139.352579 477.022301 
L 139.572132 475.885728 
L 139.791686 454.437275 
L 140.011239 449.116875 
L 140.450345 523.772912 
L 140.669898 450.728814 
L 140.889451 516.741334 
L 141.109005 520.727329 
L 141.328558 342.337797 
L 141.548111 500.407825 
L 141.767664 489.459668 
L 141.987217 415.456763 
L 142.426323 552.996594 
L 142.645877 438.214285 
L 142.86543 436.466776 
L 143.084983 515.697684 
L 143.304536 443.919238 
L 143.524089 474.546963 
L 143.743642 330.763714 
L 143.963196 567.372698 
L 144.182749 414.928567 
L 144.402302 481.560293 
L 144.621855 458.85649 
L 144.841408 409.174102 
L 145.060961 455.082557 
L 145.280514 425.936137 
L 145.500068 447.619939 
L 145.719621 437.560681 
L 145.939174 489.358979 
L 146.158727 351.162537 
L 146.37828 386.284145 
L 146.817387 471.699333 
L 147.03694 450.605994 
L 147.256493 375.407112 
L 147.476046 504.465029 
L 147.695599 507.125812 
L 147.915152 458.661238 
L 148.134705 458.400383 
L 148.354259 516.043954 
L 148.573812 508.342495 
L 149.012918 404.394492 
L 149.232471 495.688184 
L 149.452024 399.838257 
L 149.671578 436.941298 
L 149.891131 427.915852 
L 150.110684 530.284168 
L 150.330237 470.771139 
L 150.54979 485.165193 
L 150.769343 523.135731 
L 150.988896 500.443056 
L 151.20845 489.848853 
L 151.428003 471.413766 
L 151.647556 514.41525 
L 151.867109 495.950477 
L 152.086662 440.729084 
L 152.306215 544.778584 
L 152.745322 346.16522 
L 153.184428 478.288119 
L 153.403981 501.499917 
L 153.623534 500.425385 
L 153.843087 431.013696 
L 154.062641 519.367259 
L 154.282194 480.849222 
L 154.501747 508.521216 
L 154.7213 507.138007 
L 154.940853 504.897664 
L 155.160406 510.198672 
L 155.37996 457.548404 
L 155.599513 484.365274 
L 155.819066 484.362922 
L 156.038619 460.410021 
L 156.258172 514.155494 
L 156.697278 390.389343 
L 156.916832 378.53396 
L 157.136385 393.767845 
L 157.355938 523.679688 
L 157.575491 462.033897 
L 157.795044 516.284232 
L 158.014597 471.71175 
L 158.234151 459.922839 
L 158.453704 467.654894 
L 158.673257 539.070297 
L 158.89281 544.305888 
L 159.112363 519.324208 
L 159.331916 554.574061 
L 159.551469 559.350843 
L 159.771023 436.305276 
L 159.990576 455.975461 
L 160.210129 518.750415 
L 160.429682 502.943781 
L 160.649235 497.696157 
L 160.868788 427.37073 
L 161.088342 514.430155 
L 161.307895 502.711395 
L 161.527448 417.415783 
L 161.747001 409.670366 
L 161.966554 421.324738 
L 162.186107 549.993416 
L 162.40566 499.733734 
L 162.625214 531.425118 
L 162.844767 466.916766 
L 163.06432 469.461999 
L 163.283873 476.080372 
L 163.503426 478.931972 
L 163.722979 531.754747 
L 163.942532 509.566209 
L 164.162086 465.204235 
L 164.381639 377.740455 
L 164.601192 521.954856 
L 164.820745 448.5106 
L 165.259851 487.265377 
L 165.479405 465.423708 
L 165.698958 398.900028 
L 166.138064 461.712107 
L 166.357617 471.921265 
L 166.57717 530.16332 
L 166.796723 511.929677 
L 167.016277 459.280268 
L 167.23583 375.950632 
L 167.894489 541.199573 
L 168.114042 402.870385 
L 168.333596 534.374463 
L 168.553149 509.095674 
L 168.772702 409.374864 
L 168.992255 422.423606 
L 169.211808 368.520666 
L 169.650914 513.743444 
L 169.870468 441.184551 
L 170.309574 553.318054 
L 170.529127 355.836035 
L 170.74868 352.437678 
L 170.968233 502.994632 
L 171.187787 487.778964 
L 171.40734 460.372258 
L 171.626893 417.822699 
L 171.846446 491.018844 
L 172.065999 519.142686 
L 172.285552 470.470663 
L 172.505105 494.711666 
L 172.944212 392.906054 
L 173.163765 501.097705 
L 173.383318 505.213548 
L 173.602871 468.525753 
L 173.822424 504.46162 
L 174.041978 415.780249 
L 174.261531 398.717898 
L 174.481084 500.931895 
L 174.700637 487.599784 
L 174.92019 493.046941 
L 175.139743 462.909232 
L 175.359296 475.139723 
L 175.57885 451.451117 
L 176.017956 524.89647 
L 176.237509 435.383999 
L 176.457062 481.813781 
L 176.676615 504.184629 
L 176.896169 396.27903 
L 177.115722 523.1964 
L 177.335275 537.824373 
L 177.554828 481.450956 
L 177.774381 457.246808 
L 177.993934 515.612717 
L 178.213487 445.108368 
L 178.433041 523.150305 
L 178.652594 506.554264 
L 178.872147 432.253598 
L 179.0917 462.163219 
L 179.311253 472.389012 
L 179.530806 532.293112 
L 179.75036 516.527193 
L 179.969913 299.291942 
L 180.189466 425.01645 
L 180.409019 477.683109 
L 180.628572 485.624462 
L 180.848125 522.239831 
L 181.067678 519.104666 
L 181.287232 547.116308 
L 181.506785 453.398558 
L 181.726338 526.290125 
L 181.945891 489.706943 
L 182.165444 484.172259 
L 182.384997 463.40453 
L 182.604551 534.480602 
L 182.824104 488.814796 
L 183.043657 488.5521 
L 183.26321 469.372688 
L 183.482763 417.710237 
L 183.702316 519.275725 
L 183.921869 511.158011 
L 184.141423 540.553015 
L 184.360976 546.53848 
L 184.580529 419.254459 
L 184.800082 481.935136 
L 185.019635 499.333494 
L 185.239188 478.362619 
L 185.458742 411.519993 
L 185.678295 563.764232 
L 185.897848 570.867454 
L 186.117401 424.539672 
L 186.556507 530.364657 
L 186.77606 498.564591 
L 186.995614 569.597256 
L 187.43472 466.534248 
L 187.654273 456.759674 
L 187.873826 463.97604 
L 188.312932 451.428941 
L 188.532486 535.833305 
L 188.752039 426.857871 
L 188.971592 440.752577 
L 189.410698 403.665269 
L 189.630251 443.053637 
L 189.849805 411.8093 
L 190.069358 414.258291 
L 190.288911 527.376401 
L 190.508464 426.725995 
L 190.94757 510.717108 
L 191.167123 523.532573 
L 191.386677 441.773395 
L 191.60623 426.344832 
L 192.045336 518.449358 
L 192.264889 529.471906 
L 192.484442 529.687483 
L 192.923549 382.498408 
L 193.143102 516.77583 
L 193.362655 538.978651 
L 193.582208 520.788947 
L 193.801761 492.795963 
L 194.021314 395.278342 
L 194.240868 540.820341 
L 194.460421 481.506849 
L 194.679974 465.803258 
L 194.899527 507.286909 
L 195.11908 494.136908 
L 195.558187 333.826323 
L 195.77774 538.013763 
L 195.997293 390.835655 
L 196.216846 491.337184 
L 196.436399 437.247831 
L 196.655952 541.658945 
L 196.875505 419.328279 
L 197.095059 404.113999 
L 197.314612 460.974293 
L 197.534165 382.510623 
L 197.753718 392.894708 
L 198.192824 512.297704 
L 198.412378 439.689651 
L 198.851484 513.885787 
L 199.29059 449.279376 
L 199.510143 498.34222 
L 199.729696 384.760244 
L 199.94925 404.32373 
L 200.168803 504.424754 
L 200.388356 272.816339 
L 200.827462 523.147976 
L 201.047015 503.727929 
L 201.705675 369.519342 
L 202.144781 500.923843 
L 202.364334 464.943906 
L 202.583887 543.137198 
L 203.022994 447.685209 
L 203.242547 498.44727 
L 203.4621 453.549804 
L 203.681653 477.153761 
L 203.901206 433.023255 
L 204.12076 510.056245 
L 204.340313 431.764922 
L 204.559866 545.202912 
L 204.779419 518.155978 
L 204.998972 467.080664 
L 205.218525 545.634164 
L 205.657632 381.603321 
L 205.877185 526.446827 
L 206.096738 491.81871 
L 206.316291 500.02682 
L 206.535844 472.166903 
L 206.755397 522.366566 
L 206.974951 477.222491 
L 207.194504 543.349962 
L 207.414057 502.953451 
L 207.63361 543.083876 
L 207.853163 500.275419 
L 208.072716 527.406977 
L 208.292269 508.634808 
L 208.511823 500.463134 
L 208.731376 433.264459 
L 208.950929 537.143494 
L 209.170482 528.532323 
L 209.390035 417.75525 
L 209.609588 499.563098 
L 209.829142 494.615893 
L 210.048695 373.141331 
L 210.268248 511.652601 
L 210.707354 438.823738 
L 210.926907 515.189731 
L 211.14646 474.794914 
L 211.366014 486.432108 
L 211.585567 536.389402 
L 211.80512 557.584161 
L 212.244226 537.778913 
L 212.683333 434.892141 
L 213.122439 510.741956 
L 213.781098 427.223038 
L 214.000651 511.499373 
L 214.220205 483.312452 
L 214.439758 386.127465 
L 214.659311 476.652399 
L 214.878864 492.781711 
L 215.098417 456.239093 
L 215.537523 533.647172 
L 215.757077 542.641628 
L 215.97663 537.450318 
L 216.196183 296.805559 
L 216.415736 540.418343 
L 216.635289 505.835953 
L 216.854842 440.894096 
L 217.074396 338.444103 
L 217.293949 507.397351 
L 217.513502 466.722136 
L 217.733055 391.03879 
L 217.952608 460.560308 
L 218.172161 466.960558 
L 218.391714 480.403172 
L 218.611268 456.139227 
L 218.830821 449.923084 
L 219.050374 435.576513 
L 219.269927 522.028704 
L 219.48948 358.131862 
L 219.709033 464.284066 
L 219.928587 286.067565 
L 220.14814 504.590121 
L 220.367693 517.006148 
L 220.587246 454.664918 
L 220.806799 470.955013 
L 221.026352 536.999737 
L 221.245905 497.644676 
L 221.465459 365.135311 
L 221.685012 446.454514 
L 221.904565 442.857379 
L 222.124118 526.810596 
L 222.343671 391.551368 
L 222.563224 493.089306 
L 222.782778 442.187006 
L 223.002331 554.575389 
L 223.441437 451.211758 
L 223.66099 459.716494 
L 223.880543 490.590718 
L 224.100096 407.777482 
L 224.31965 380.11149 
L 224.539203 215.488384 
L 224.758756 444.3156 
L 224.978309 424.111467 
L 225.197862 477.229584 
L 225.417415 471.988515 
L 225.636969 457.163516 
L 225.856522 499.452835 
L 226.076075 453.649929 
L 226.515181 512.24539 
L 226.734734 441.191095 
L 226.954287 493.184233 
L 227.173841 494.066391 
L 227.393394 510.080541 
L 227.612947 463.065869 
L 227.8325 490.089986 
L 228.052053 549.681854 
L 228.271606 503.822944 
L 228.710713 484.860377 
L 228.930266 486.11663 
L 229.149819 477.88362 
L 229.369372 416.982116 
L 229.588925 506.124728 
L 229.808478 398.715407 
L 230.028032 492.235373 
L 230.247585 522.718625 
L 230.467138 476.664762 
L 230.906244 467.064018 
L 231.125797 438.46709 
L 231.345351 392.975997 
L 231.564904 529.502632 
L 231.784457 427.240612 
L 232.00401 389.216871 
L 232.223563 384.21875 
L 232.443116 488.83565 
L 232.662669 511.503633 
L 233.101776 373.139463 
L 233.321329 453.338854 
L 233.540882 453.803861 
L 233.979988 470.825852 
L 234.199542 536.542991 
L 234.419095 447.757903 
L 234.858201 413.654313 
L 235.077754 512.923741 
L 235.297307 390.048799 
L 235.51686 474.822706 
L 235.736414 429.366035 
L 235.955967 458.968497 
L 236.17552 519.612558 
L 236.395073 474.814187 
L 236.614626 403.465425 
L 236.834179 460.995503 
L 237.053733 577.028252 
L 237.273286 486.332195 
L 237.492839 533.255914 
L 237.712392 515.36089 
L 237.931945 510.000781 
L 238.371051 541.124162 
L 238.590605 424.921401 
L 238.810158 479.987919 
L 239.029711 430.866522 
L 239.249264 549.794074 
L 239.468817 449.466177 
L 239.68837 427.484595 
L 239.907924 482.669926 
L 240.127477 411.691712 
L 240.786136 528.320404 
L 241.225242 335.459979 
L 241.444796 522.228531 
L 241.664349 391.320872 
L 241.883902 469.063365 
L 242.103455 502.502209 
L 242.323008 485.068347 
L 242.542561 487.763867 
L 242.762114 545.211985 
L 242.981668 534.734231 
L 243.201221 492.587305 
L 243.420774 394.855279 
L 243.640327 500.844746 
L 243.85988 489.801723 
L 244.298987 520.01528 
L 244.51854 343.426449 
L 244.738093 487.249861 
L 244.957646 520.346285 
L 245.177199 496.145931 
L 245.396752 492.249738 
L 245.616305 508.692066 
L 245.835859 407.260973 
L 246.055412 482.493364 
L 246.274965 510.743382 
L 246.494518 469.167107 
L 246.714071 482.868983 
L 246.933624 337.425553 
L 247.153178 352.7499 
L 247.372731 452.352539 
L 247.592284 393.66399 
L 247.811837 518.897726 
L 248.03139 482.52511 
L 248.250943 477.667752 
L 248.470496 562.018399 
L 248.69005 524.497547 
L 248.909603 558.167282 
L 249.129156 388.426677 
L 249.348709 481.258375 
L 249.568262 504.379102 
L 249.787815 477.264292 
L 250.007369 524.619367 
L 250.226922 491.48925 
L 250.446475 376.897643 
L 250.666028 385.103529 
L 250.885581 422.975145 
L 251.105134 432.626573 
L 251.324687 507.677734 
L 251.544241 463.239687 
L 251.763794 442.943549 
L 251.983347 463.120614 
L 252.2029 439.73299 
L 252.422453 398.833511 
L 252.642006 581.38839 
L 252.86156 396.69382 
L 253.081113 527.417396 
L 253.300666 415.62011 
L 253.520219 422.029814 
L 253.959325 497.36471 
L 254.178878 453.37617 
L 254.398432 479.587995 
L 254.617985 476.11255 
L 254.837538 548.244879 
L 255.276644 438.711755 
L 255.496197 449.256526 
L 255.715751 507.060714 
L 255.935304 513.984727 
L 256.154857 280.220571 
L 256.37441 511.649029 
L 256.593963 496.40402 
L 257.033069 404.676515 
L 257.252623 482.273156 
L 257.472176 453.076088 
L 257.691729 451.918654 
L 257.911282 387.669566 
L 258.130835 397.971035 
L 258.350388 542.178841 
L 258.569942 555.098817 
L 258.789495 349.567836 
L 259.009048 519.404713 
L 259.228601 517.446617 
L 259.448154 565.055416 
L 259.88726 432.043449 
L 260.106814 399.408714 
L 260.326367 436.61654 
L 260.54592 451.466963 
L 260.765473 480.011321 
L 260.985026 454.337086 
L 261.204579 521.046672 
L 261.424133 548.075569 
L 261.643686 509.396514 
L 261.863239 499.898051 
L 262.082792 430.553558 
L 262.302345 244.601008 
L 262.521898 407.93066 
L 262.741451 426.936611 
L 262.961005 522.99157 
L 263.180558 486.045372 
L 263.400111 475.497321 
L 263.619664 507.90684 
L 263.839217 466.696745 
L 264.05877 507.846619 
L 264.278324 502.317738 
L 264.71743 306.641351 
L 264.936983 516.711055 
L 265.156536 439.521139 
L 265.376089 470.91278 
L 265.595642 549.801735 
L 265.815196 446.903141 
L 266.034749 499.322112 
L 266.254302 396.398516 
L 266.473855 420.206939 
L 266.693408 347.157966 
L 266.912961 508.312094 
L 267.132514 564.088858 
L 267.352068 467.600702 
L 267.571621 479.611851 
L 267.791174 550.640739 
L 268.010727 482.370195 
L 268.23028 478.608651 
L 268.449833 460.32534 
L 268.669387 426.158796 
L 268.88894 547.613195 
L 269.108493 468.298144 
L 269.328046 519.204546 
L 269.547599 449.526774 
L 269.767152 439.234642 
L 269.986705 514.199467 
L 270.206259 407.466535 
L 270.425812 483.40462 
L 270.645365 430.493246 
L 270.864918 484.497407 
L 271.084471 448.760536 
L 271.304024 528.045343 
L 271.743131 417.034265 
L 271.962684 502.989856 
L 272.182237 503.153167 
L 272.40179 417.324498 
L 272.621343 506.452728 
L 272.840896 458.982532 
L 273.06045 478.170697 
L 273.280003 403.520194 
L 273.499556 467.760335 
L 273.719109 459.212926 
L 273.938662 509.125219 
L 274.158215 522.230258 
L 274.377769 561.752465 
L 274.597322 496.176376 
L 274.816875 514.817601 
L 275.036428 468.036192 
L 275.255981 554.043285 
L 275.695087 461.432944 
L 275.914641 489.869046 
L 276.134194 562.724953 
L 276.353747 467.553636 
L 276.5733 450.505197 
L 276.792853 450.336308 
L 277.012406 489.787848 
L 277.23196 465.73755 
L 277.451513 493.078356 
L 277.671066 440.774454 
L 277.890619 509.504638 
L 278.110172 455.633645 
L 278.329725 566.165772 
L 278.549278 516.160198 
L 278.768832 400.40785 
L 278.988385 465.947598 
L 279.207938 269.237227 
L 279.647044 521.917626 
L 279.866597 478.350745 
L 280.086151 316.373744 
L 280.305704 490.662773 
L 280.525257 493.512689 
L 280.74481 465.027031 
L 280.964363 526.194985 
L 281.183916 477.322868 
L 281.403469 488.846762 
L 281.623023 438.628418 
L 281.842576 433.767678 
L 282.062129 487.030374 
L 282.281682 415.421707 
L 282.501235 455.17303 
L 282.720788 531.962599 
L 282.940342 421.282334 
L 283.159895 541.927951 
L 283.599001 501.488098 
L 283.818554 505.73938 
L 284.038107 468.132826 
L 284.25766 455.814669 
L 284.477214 481.88605 
L 284.696767 426.142494 
L 284.91632 459.691862 
L 285.135873 540.77619 
L 285.355426 470.684759 
L 285.574979 494.011614 
L 285.794533 487.793878 
L 286.014086 489.607407 
L 286.233639 468.880986 
L 286.453192 515.069476 
L 286.672745 477.499687 
L 286.892298 512.592198 
L 287.111851 520.098813 
L 287.331405 471.269838 
L 287.550958 467.436865 
L 287.990064 522.093664 
L 288.209617 459.508194 
L 288.42917 519.491297 
L 288.648724 452.768151 
L 288.868277 518.781925 
L 289.08783 430.120652 
L 289.307383 408.616948 
L 289.526936 481.910289 
L 289.746489 429.361647 
L 289.966042 490.622269 
L 290.185596 395.026462 
L 290.405149 508.418902 
L 290.624702 450.480038 
L 291.063808 504.894434 
L 291.283361 493.714434 
L 291.502915 562.457177 
L 291.942021 457.18033 
L 292.381127 550.005057 
L 292.60068 205.210972 
L 292.820233 508.912972 
L 293.039787 475.727452 
L 293.25934 516.43657 
L 293.478893 491.781764 
L 293.698446 482.365145 
L 294.137552 444.994884 
L 294.357105 442.257005 
L 294.576659 502.980514 
L 294.796212 471.112249 
L 295.015765 479.222739 
L 295.235318 443.14919 
L 295.454871 454.403678 
L 295.674424 426.764605 
L 296.113531 343.066292 
L 296.333084 484.65332 
L 296.77219 547.350234 
L 296.991743 470.916345 
L 297.211296 535.739953 
L 297.650403 388.459395 
L 297.869956 493.986527 
L 298.089509 529.263709 
L 298.528615 460.831414 
L 298.748169 408.385339 
L 298.967722 496.943376 
L 299.187275 444.111493 
L 299.406828 444.200083 
L 299.626381 384.815056 
L 299.845934 428.343465 
L 300.065487 511.713795 
L 300.285041 439.034076 
L 300.504594 520.603063 
L 300.724147 428.507611 
L 300.9437 480.651417 
L 301.163253 457.201356 
L 301.382806 461.524996 
L 301.60236 394.037409 
L 301.821913 523.955774 
L 302.041466 394.356528 
L 302.700125 570.932341 
L 303.139232 516.287599 
L 303.358785 425.140995 
L 303.578338 545.896398 
L 303.797891 382.989586 
L 304.017444 477.269626 
L 304.236997 523.487737 
L 304.456551 426.960341 
L 304.676104 516.884385 
L 304.895657 473.787574 
L 305.11521 474.540848 
L 305.334763 453.905104 
L 305.554316 479.828016 
L 305.773869 448.652878 
L 305.993423 509.452349 
L 306.212976 466.366544 
L 306.432529 471.189914 
L 306.652082 483.728666 
L 306.871635 396.654203 
L 307.310742 457.504124 
L 307.530295 412.965496 
L 307.749848 494.914538 
L 307.969401 508.995127 
L 308.188954 403.113685 
L 308.408507 567.555256 
L 308.62806 522.069336 
L 309.067167 379.934069 
L 309.28672 381.326645 
L 309.506273 392.59105 
L 309.725826 483.017845 
L 309.945379 452.331641 
L 310.164933 444.057959 
L 310.384486 419.329663 
L 310.604039 465.706193 
L 310.823592 462.13385 
L 311.043145 403.228003 
L 311.262698 514.124001 
L 311.482251 434.899839 
L 311.701805 537.867915 
L 311.921358 486.948976 
L 312.140911 564.838619 
L 312.360464 388.124172 
L 312.580017 483.09557 
L 312.79957 251.832584 
L 313.019124 406.019264 
L 313.238677 373.5393 
L 313.45823 516.410157 
L 313.677783 503.00018 
L 313.897336 522.404123 
L 314.116889 444.056742 
L 314.336442 455.283603 
L 314.555996 484.605513 
L 314.775549 441.387738 
L 314.995102 574.68018 
L 315.214655 410.216253 
L 315.434208 518.310481 
L 315.653761 524.31173 
L 315.873315 415.79078 
L 316.092868 484.570458 
L 316.312421 474.716554 
L 316.531974 475.68088 
L 316.97108 389.98487 
L 317.190633 554.81623 
L 317.410187 492.541125 
L 317.62974 572.18076 
L 317.849293 428.875286 
L 318.068846 539.36464 
L 318.288399 509.088759 
L 318.507952 459.075519 
L 318.727506 375.926811 
L 318.947059 488.507691 
L 319.166612 477.769811 
L 319.386165 473.47435 
L 319.605718 476.645852 
L 319.825271 499.655282 
L 320.044824 490.005376 
L 320.483931 373.725626 
L 320.703484 516.435816 
L 320.923037 459.297492 
L 321.14259 366.21569 
L 321.362143 416.61247 
L 321.581696 494.305779 
L 321.80125 485.89094 
L 322.020803 493.891178 
L 322.240356 551.337179 
L 322.459909 467.876164 
L 322.679462 314.720624 
L 322.899015 462.348559 
L 323.118569 475.20929 
L 323.338122 512.183893 
L 323.557675 501.673767 
L 323.777228 504.239774 
L 324.216334 483.007959 
L 324.435887 514.307105 
L 324.655441 402.660186 
L 324.874994 543.504064 
L 325.3141 453.681072 
L 325.533653 459.809113 
L 325.753206 479.851057 
L 325.97276 562.426598 
L 326.192313 448.79123 
L 326.411866 525.462714 
L 326.631419 468.851146 
L 326.850972 472.311875 
L 327.070525 430.245434 
L 327.290078 512.261773 
L 327.509632 493.086372 
L 327.729185 505.833877 
L 327.948738 394.212771 
L 328.168291 453.124989 
L 328.387844 444.721393 
L 328.607397 457.246011 
L 328.826951 448.95509 
L 329.046504 527.860912 
L 329.266057 502.91453 
L 329.48561 499.739347 
L 329.705163 492.264557 
L 329.924716 529.681796 
L 330.144269 485.409577 
L 330.363823 559.064679 
L 330.583376 501.762867 
L 330.802929 486.361637 
L 331.022482 402.279164 
L 331.242035 493.524673 
L 331.461588 380.276834 
L 331.681142 541.358898 
L 331.900695 495.57586 
L 332.120248 486.697332 
L 332.339801 520.252575 
L 332.559354 521.332949 
L 332.778907 505.577915 
L 332.99846 518.37098 
L 333.218014 516.243356 
L 333.437567 506.302128 
L 333.65712 444.913189 
L 333.876673 472.356635 
L 334.096226 473.915383 
L 334.315779 453.902505 
L 334.754886 513.149704 
L 334.974439 359.248879 
L 335.413545 513.675837 
L 335.633098 467.074684 
L 335.852651 526.193386 
L 336.291758 379.730843 
L 336.511311 470.344654 
L 336.730864 469.937123 
L 336.950417 477.699966 
L 337.16997 427.405761 
L 337.389524 480.406029 
L 337.609077 443.205561 
L 337.82863 460.81687 
L 338.048183 489.166746 
L 338.267736 450.872787 
L 338.487289 481.746465 
L 338.926396 501.93238 
L 339.145949 435.784981 
L 339.365502 517.128709 
L 339.585055 486.278445 
L 339.804608 505.35047 
L 340.024161 418.135936 
L 340.243715 510.581821 
L 340.463268 514.401324 
L 340.682821 500.930179 
L 340.902374 513.042312 
L 341.121927 499.656036 
L 341.34148 541.527012 
L 341.561033 541.644763 
L 341.780587 529.722917 
L 342.658799 363.76658 
L 342.878352 495.965568 
L 343.097906 558.091212 
L 343.317459 510.744596 
L 343.537012 421.472734 
L 343.976118 557.424512 
L 344.195671 475.989278 
L 344.415224 472.897461 
L 344.634778 536.656784 
L 344.854331 550.989073 
L 345.293437 484.523593 
L 345.51299 477.912691 
L 345.952096 529.59374 
L 346.17165 356.101484 
L 346.391203 433.209551 
L 346.610756 458.713376 
L 346.830309 427.087716 
L 347.049862 515.650109 
L 347.269415 467.245518 
L 347.488969 450.064386 
L 347.708522 534.160523 
L 347.928075 549.404711 
L 348.147628 490.110393 
L 348.367181 491.250081 
L 348.586734 431.196176 
L 348.806287 486.129278 
L 349.025841 458.440524 
L 349.245394 465.309469 
L 349.464947 508.174719 
L 350.123606 438.581074 
L 350.34316 462.455381 
L 350.562713 523.443922 
L 350.782266 549.020935 
L 351.001819 426.789407 
L 351.221372 524.642543 
L 351.440925 448.98007 
L 351.660478 529.563442 
L 351.880032 480.898705 
L 352.099585 473.879847 
L 352.319138 551.178444 
L 352.538691 337.549955 
L 352.758244 420.540603 
L 352.977797 337.995379 
L 353.197351 543.659162 
L 353.416904 449.535611 
L 353.636457 464.689414 
L 353.85601 495.440541 
L 354.295116 412.152852 
L 354.514669 503.145844 
L 354.734223 317.285099 
L 354.953776 483.669136 
L 355.173329 414.665374 
L 355.392882 493.907937 
L 355.612435 476.978439 
L 355.831988 438.916476 
L 356.051542 343.419728 
L 356.490648 512.390411 
L 356.710201 429.40137 
L 357.149307 549.354349 
L 357.36886 541.015904 
L 357.588414 461.096558 
L 357.807967 472.508789 
L 358.02752 332.986057 
L 358.247073 475.458645 
L 358.466626 371.239125 
L 358.686179 364.481529 
L 359.125286 470.95856 
L 359.344839 410.828903 
L 359.564392 518.656027 
L 359.783945 542.989489 
L 360.003498 486.255865 
L 360.223051 507.075485 
L 360.442605 445.499499 
L 360.881711 519.771538 
L 361.101264 475.478881 
L 361.320817 508.438537 
L 361.54037 567.386647 
L 361.979477 415.827219 
L 362.19903 431.650051 
L 362.418583 557.908801 
L 362.857689 360.706741 
L 363.296796 463.907446 
L 363.516349 423.792242 
L 363.735902 406.925521 
L 363.955455 483.466945 
L 364.175008 459.724712 
L 364.394561 374.997899 
L 364.614115 478.326552 
L 364.833668 328.461296 
L 365.272774 531.008506 
L 365.71188 367.839829 
L 365.931433 408.963013 
L 366.150987 516.347282 
L 366.37054 426.531462 
L 366.590093 417.848604 
L 366.809646 508.123826 
L 367.029199 498.859231 
L 367.248752 473.969439 
L 367.687859 518.894711 
L 367.907412 544.552086 
L 368.126965 534.126429 
L 368.346518 451.611376 
L 368.566071 455.049417 
L 368.785624 449.109913 
L 369.005178 543.183297 
L 369.224731 441.502103 
L 369.444284 458.104713 
L 369.663837 531.902926 
L 369.88339 519.781955 
L 370.322497 458.103277 
L 370.54205 523.651722 
L 370.761603 473.974605 
L 370.981156 525.552994 
L 371.200709 396.012703 
L 371.420262 542.911813 
L 371.639815 551.774108 
L 371.859369 572.712091 
L 372.078922 498.608576 
L 372.298475 495.708481 
L 372.518028 456.346131 
L 372.957134 261.705987 
L 373.176687 435.170024 
L 373.396241 459.104508 
L 373.615794 380.924242 
L 373.835347 434.487813 
L 374.274453 369.929523 
L 374.494006 525.655189 
L 374.71356 413.400462 
L 374.933113 485.348015 
L 375.152666 492.886754 
L 375.591772 532.506318 
L 375.811325 427.79722 
L 376.030878 453.277102 
L 376.250432 465.203741 
L 376.469985 429.414157 
L 376.689538 445.739496 
L 377.128644 546.053027 
L 377.567751 434.719048 
L 377.787304 466.826945 
L 378.006857 546.078726 
L 378.22641 407.071411 
L 378.445963 434.961762 
L 378.665516 520.230285 
L 378.885069 467.793871 
L 379.104623 459.138447 
L 379.324176 460.268552 
L 379.543729 535.824808 
L 379.763282 533.322947 
L 379.982835 131.956182 
L 380.202388 508.942338 
L 380.421942 354.427591 
L 380.641495 465.426981 
L 380.861048 513.459796 
L 381.080601 535.054627 
L 381.300154 465.40395 
L 381.519707 437.661569 
L 381.73926 443.207081 
L 381.958814 525.824928 
L 382.178367 466.050546 
L 382.39792 473.364353 
L 382.617473 331.96402 
L 382.837026 521.875016 
L 383.056579 407.968919 
L 383.276133 416.950139 
L 383.495686 528.106098 
L 384.154345 469.153807 
L 384.373898 430.642978 
L 384.813005 488.976364 
L 385.032558 473.651924 
L 385.252111 568.52414 
L 385.471664 373.369162 
L 385.691217 507.341095 
L 386.349877 474.527938 
L 386.788983 508.514173 
L 387.008536 452.572389 
L 387.228089 530.85821 
L 387.447642 464.86106 
L 387.667196 537.368073 
L 387.886749 378.260978 
L 388.106302 462.22829 
L 388.325855 440.094642 
L 388.545408 502.764029 
L 388.764961 490.558983 
L 388.984515 418.117646 
L 389.204068 530.821932 
L 389.423621 485.941716 
L 389.643174 400.652557 
L 389.862727 447.038812 
L 390.08228 399.308361 
L 390.301833 532.706751 
L 390.521387 498.042831 
L 390.74094 528.933697 
L 390.960493 292.116837 
L 391.180046 469.490184 
L 391.399599 528.942804 
L 391.619152 437.537865 
L 391.838706 478.451338 
L 392.497365 548.725601 
L 392.936471 401.565499 
L 393.156024 498.872468 
L 393.375578 486.794395 
L 393.595131 434.833771 
L 393.814684 458.37951 
L 394.034237 334.591114 
L 394.25379 508.90835 
L 394.473343 546.81036 
L 394.692897 545.831357 
L 394.91245 411.876583 
L 395.132003 461.581933 
L 395.351556 406.070341 
L 395.571109 570.234252 
L 395.790662 511.255837 
L 396.010215 489.989055 
L 396.229769 495.227403 
L 396.449322 371.831556 
L 396.668875 491.467036 
L 396.888428 496.558994 
L 397.107981 471.071207 
L 397.327534 553.850942 
L 397.547087 414.216531 
L 397.766641 396.309573 
L 397.986194 474.135936 
L 398.205747 478.027456 
L 398.4253 508.289276 
L 398.644853 479.621913 
L 398.864406 505.683937 
L 399.08396 386.882486 
L 399.523066 504.309126 
L 399.742619 526.769406 
L 399.962172 448.187178 
L 400.181725 423.621456 
L 400.401278 453.500144 
L 400.620832 455.162993 
L 400.840385 390.503348 
L 401.059938 508.646272 
L 401.279491 521.142333 
L 401.499044 437.510403 
L 401.718597 436.156512 
L 401.938151 532.488363 
L 402.157704 570.877076 
L 402.59681 455.850487 
L 402.816363 520.562336 
L 403.035916 387.641683 
L 403.255469 517.953548 
L 403.475023 502.988851 
L 403.914129 366.075989 
L 404.133682 471.155278 
L 404.353235 479.041726 
L 404.572788 473.423701 
L 404.792342 479.326858 
L 405.011895 470.668865 
L 405.231448 453.341653 
L 405.451001 524.021991 
L 405.670554 483.577246 
L 405.890107 411.167465 
L 406.10966 470.256879 
L 406.329214 441.851331 
L 406.76832 518.039192 
L 406.987873 329.933576 
L 407.207426 512.632718 
L 407.426979 527.734756 
L 407.646533 468.112792 
L 407.866086 544.481068 
L 408.085639 425.541904 
L 408.305192 508.81136 
L 408.524745 505.108324 
L 408.744298 456.98843 
L 408.963851 524.153865 
L 409.183405 526.515911 
L 409.402958 540.426746 
L 409.622511 423.556711 
L 409.842064 529.170642 
L 410.061617 485.815606 
L 410.28117 481.766899 
L 410.500724 524.59877 
L 410.720277 519.513695 
L 410.93983 438.027902 
L 411.159383 476.237302 
L 411.378936 232.942168 
L 411.598489 478.266032 
L 411.818042 490.974656 
L 412.037596 474.115499 
L 412.257149 503.816712 
L 412.476702 457.223168 
L 412.696255 512.054111 
L 412.915808 497.815542 
L 413.135361 520.498381 
L 413.354915 559.766276 
L 413.794021 365.835286 
L 414.45268 541.651912 
L 414.672233 479.114774 
L 414.891787 507.258957 
L 415.11134 457.321537 
L 415.330893 493.833942 
L 415.550446 367.781395 
L 415.769999 518.717063 
L 415.989552 530.581197 
L 416.209106 421.583885 
L 416.428659 410.652745 
L 416.648212 453.288432 
L 416.867765 430.808179 
L 417.087318 483.020125 
L 417.306871 494.236778 
L 417.526424 512.743293 
L 417.745978 460.070213 
L 417.965531 464.196498 
L 418.185084 515.560755 
L 418.62419 448.244151 
L 418.843743 486.064809 
L 419.063297 430.241687 
L 419.28285 474.501759 
L 419.502403 464.262827 
L 419.721956 528.135424 
L 419.941509 536.695161 
L 420.380615 462.843677 
L 420.600169 356.62832 
L 420.819722 474.891896 
L 421.039275 496.574193 
L 421.258828 459.918543 
L 421.697934 572.998966 
L 421.917488 390.740367 
L 422.137041 358.994591 
L 422.356594 497.940095 
L 422.576147 375.34863 
L 422.7957 460.275172 
L 423.015253 480.999904 
L 423.234806 405.629967 
L 423.45436 486.957023 
L 423.673913 431.184056 
L 423.893466 500.647916 
L 424.332572 448.386271 
L 424.552125 508.260334 
L 424.771678 341.932579 
L 424.991232 477.92338 
L 425.210785 418.442833 
L 425.430338 522.258973 
L 425.649891 328.209758 
L 425.869444 485.751021 
L 426.088997 516.801353 
L 426.308551 394.922873 
L 426.528104 479.847881 
L 426.747657 398.416596 
L 426.96721 446.081469 
L 427.186763 556.330494 
L 427.406316 486.806549 
L 427.625869 512.574837 
L 427.845423 485.628396 
L 428.064976 372.221397 
L 428.504082 550.168101 
L 428.723635 485.171863 
L 428.943188 539.206321 
L 429.162742 515.679187 
L 429.382295 424.616203 
L 429.601848 440.230816 
L 429.821401 501.542657 
L 430.040954 516.050997 
L 430.260507 348.047402 
L 430.48006 506.480466 
L 430.699614 475.568667 
L 430.919167 399.408247 
L 431.13872 501.433297 
L 431.358273 512.804404 
L 431.577826 509.820273 
L 431.797379 454.800507 
L 432.016933 451.447732 
L 432.236486 430.853015 
L 432.456039 343.232433 
L 432.675592 510.946344 
L 432.895145 423.48391 
L 433.114698 417.97511 
L 433.334251 440.659557 
L 433.553805 512.949645 
L 433.773358 510.180382 
L 433.992911 462.230674 
L 434.212464 348.453453 
L 434.432017 457.270938 
L 434.871124 311.61149 
L 435.090677 450.050145 
L 435.31023 457.920988 
L 435.749336 519.467794 
L 435.968889 372.198638 
L 436.188442 450.745854 
L 436.407996 444.662094 
L 436.627549 513.122641 
L 436.847102 523.241781 
L 437.066655 434.229679 
L 437.286208 546.539838 
L 437.725315 389.599115 
L 437.944868 304.895682 
L 438.164421 522.412047 
L 438.383974 453.034991 
L 438.82308 569.459642 
L 439.042633 455.864503 
L 439.262187 507.224094 
L 439.48174 329.305248 
L 439.701293 539.461366 
L 439.920846 455.937481 
L 440.140399 538.447983 
L 440.359952 358.356896 
L 440.579506 474.164786 
L 440.799059 455.388678 
L 441.018612 486.685359 
L 441.238165 457.610146 
L 441.457718 490.626675 
L 441.677271 456.119604 
L 441.896824 496.275157 
L 442.116378 455.148912 
L 442.335931 457.532323 
L 442.555484 522.824063 
L 442.775037 428.485202 
L 442.99459 485.522611 
L 443.214143 494.310565 
L 443.433697 543.211101 
L 443.65325 439.036997 
L 443.872803 449.639516 
L 444.092356 528.014537 
L 444.311909 436.32721 
L 444.531462 510.465044 
L 444.751015 295.944071 
L 444.970569 242.184748 
L 445.190122 490.071173 
L 445.409675 503.992371 
L 445.629228 449.312897 
L 446.068334 508.891533 
L 446.287888 498.228518 
L 446.507441 541.081302 
L 446.726994 362.233668 
L 446.946547 492.032558 
L 447.1661 500.073895 
L 447.385653 376.20354 
L 447.605206 449.158789 
L 447.82476 404.832423 
L 448.044313 521.120828 
L 448.483419 432.204237 
L 448.702972 422.241659 
L 448.922525 516.094455 
L 449.142079 558.31346 
L 449.361632 468.854598 
L 449.581185 500.007533 
L 450.020291 519.579522 
L 450.239844 458.352961 
L 450.459397 438.535306 
L 450.678951 498.632912 
L 450.898504 477.902114 
L 451.118057 505.539302 
L 451.33761 441.555032 
L 451.557163 496.317705 
L 451.776716 476.413539 
L 452.215823 507.933756 
L 452.435376 405.305133 
L 452.654929 482.832819 
L 452.874482 508.037963 
L 453.094035 412.122969 
L 453.313588 526.978733 
L 453.533142 373.922511 
L 453.752695 500.923286 
L 453.972248 483.935563 
L 454.191801 508.737198 
L 454.411354 510.96502 
L 454.630907 404.332421 
L 454.85046 422.302385 
L 455.070014 547.895915 
L 455.289567 337.651968 
L 455.50912 562.522708 
L 455.948226 518.188465 
L 456.167779 522.206065 
L 456.606886 434.805233 
L 456.826439 501.796885 
L 457.045992 403.706176 
L 457.265545 499.945456 
L 457.485098 501.01694 
L 457.704651 394.24634 
L 457.924205 416.320523 
L 458.143758 383.171033 
L 458.363311 284.711087 
L 458.802417 496.208837 
L 459.02197 440.506625 
L 459.241524 519.135613 
L 459.68063 451.612465 
L 459.900183 491.117957 
L 460.119736 469.791931 
L 460.339289 536.515912 
L 460.558842 326.729818 
L 460.778396 508.902508 
L 460.997949 494.663604 
L 461.437055 535.95379 
L 461.656608 503.506547 
L 461.876161 515.679834 
L 462.095715 503.307892 
L 462.315268 545.117577 
L 462.534821 515.308847 
L 462.754374 541.118194 
L 462.973927 419.818786 
L 463.19348 517.051674 
L 463.413033 415.686243 
L 463.632587 496.258822 
L 463.85214 485.050396 
L 464.071693 557.402734 
L 464.291246 508.56541 
L 464.510799 504.113193 
L 464.730352 486.152232 
L 464.949906 492.407747 
L 465.169459 428.735801 
L 465.389012 488.774526 
L 465.608565 467.676629 
L 465.828118 520.667619 
L 466.047671 480.993264 
L 466.267224 518.20847 
L 466.925884 264.709469 
L 467.145437 450.137893 
L 468.02365 389.586596 
L 468.243203 407.913522 
L 468.462756 354.57874 
L 468.682309 449.500255 
L 468.901862 424.544687 
L 469.121415 470.562004 
L 469.340969 471.619878 
L 469.560522 525.001308 
L 469.780075 504.062462 
L 469.999628 448.048317 
L 470.219181 461.55356 
L 470.438734 511.832097 
L 470.658288 513.672997 
L 471.097394 440.021463 
L 471.316947 513.399284 
L 471.5365 389.057236 
L 471.756053 474.29438 
L 471.975606 485.221469 
L 472.19516 446.059298 
L 472.414713 489.964532 
L 472.634266 411.554447 
L 472.853819 471.109399 
L 473.073372 431.532971 
L 473.292925 451.449523 
L 473.512479 514.089367 
L 473.732032 463.002162 
L 473.951585 295.294817 
L 474.171138 466.627106 
L 474.390691 514.815863 
L 474.610244 521.052003 
L 475.049351 472.123693 
L 475.488457 548.007383 
L 475.70801 466.036478 
L 475.927563 447.322078 
L 476.147116 469.620393 
L 476.366669 568.706298 
L 476.586223 410.369108 
L 476.805776 470.744717 
L 477.025329 455.347066 
L 477.244882 514.749445 
L 477.464435 523.416144 
L 477.683988 431.930782 
L 477.903542 563.792546 
L 478.342648 361.170629 
L 478.562201 469.889238 
L 478.781754 281.598043 
L 479.440414 418.79626 
L 479.659967 412.508124 
L 479.87952 414.659799 
L 480.318626 513.161568 
L 480.538179 394.147038 
L 480.757733 430.997363 
L 480.977286 534.872253 
L 481.196839 505.743986 
L 481.416392 530.009952 
L 481.635945 529.424119 
L 481.855498 433.519068 
L 482.075051 496.970648 
L 482.294605 461.767645 
L 482.514158 472.76511 
L 482.733711 490.967296 
L 482.953264 523.099272 
L 483.172817 447.186051 
L 483.39237 495.364489 
L 483.611924 436.472451 
L 483.831477 469.324665 
L 484.05103 415.965575 
L 484.270583 522.467754 
L 484.490136 459.785982 
L 484.709689 450.814273 
L 484.929242 546.029095 
L 485.807455 333.888317 
L 486.027008 489.662217 
L 486.246561 337.038662 
L 486.466115 492.509549 
L 486.685668 494.237605 
L 486.905221 493.690764 
L 487.124774 532.646226 
L 487.344327 469.133378 
L 487.56388 458.47363 
L 487.783433 385.250193 
L 488.002987 492.674019 
L 488.22254 440.796491 
L 488.442093 488.395255 
L 488.661646 403.444786 
L 488.881199 430.687529 
L 489.100752 509.532206 
L 489.320306 476.422509 
L 489.539859 537.853897 
L 489.759412 501.230791 
L 489.978965 493.281752 
L 490.198518 372.6912 
L 490.418071 459.556787 
L 490.857178 495.74912 
L 491.076731 420.842709 
L 491.296284 271.262298 
L 491.515837 458.803742 
L 491.73539 475.588147 
L 491.954943 519.211977 
L 492.174497 460.518501 
L 492.39405 538.224124 
L 492.613603 514.968794 
L 492.833156 504.001141 
L 493.052709 426.480083 
L 493.272262 409.87965 
L 493.491815 520.881732 
L 493.711369 479.90312 
L 493.930922 465.479445 
L 494.150475 506.801027 
L 494.370028 370.167705 
L 494.589581 467.316061 
L 495.028688 532.681369 
L 495.248241 524.997646 
L 495.467794 449.904893 
L 495.687347 467.853763 
L 496.126453 397.854859 
L 496.346006 432.615776 
L 496.56556 504.417842 
L 496.785113 528.158067 
L 497.004666 486.956013 
L 497.224219 507.057981 
L 497.443772 504.971223 
L 497.663325 522.640108 
L 497.882879 401.942257 
L 498.102432 417.786189 
L 498.321985 455.479494 
L 498.761091 426.993397 
L 499.200197 521.950026 
L 499.419751 496.134661 
L 499.639304 538.159386 
L 500.07841 362.772091 
L 500.297963 442.580287 
L 500.73707 423.160725 
L 501.176176 379.910048 
L 501.395729 410.914985 
L 501.615282 490.021133 
L 501.834835 432.781311 
L 502.054388 435.014656 
L 502.273942 476.864083 
L 502.493495 460.375282 
L 502.713048 354.59812 
L 503.152154 496.195431 
L 503.371707 529.773689 
L 503.59126 526.096091 
L 503.810814 453.401863 
L 504.030367 472.935438 
L 504.24992 438.019595 
L 504.469473 515.676757 
L 504.689026 412.228496 
L 504.908579 473.881279 
L 505.128133 450.364227 
L 505.347686 535.15602 
L 505.567239 538.701339 
L 505.786792 502.028599 
L 506.006345 556.524218 
L 506.225898 413.738322 
L 506.445451 516.93928 
L 506.665005 520.615903 
L 506.884558 519.925872 
L 507.104111 391.07014 
L 507.323664 541.189635 
L 507.543217 460.359515 
L 507.76277 431.548606 
L 507.982324 490.858595 
L 508.201877 355.641696 
L 508.42143 437.137104 
L 508.640983 445.456889 
L 508.860536 500.448228 
L 509.080089 506.421332 
L 509.299642 557.012596 
L 509.519196 498.364548 
L 509.738749 478.574043 
L 509.958302 544.623424 
L 510.177855 500.745236 
L 510.397408 386.455888 
L 510.836515 525.513245 
L 511.056068 448.942445 
L 511.275621 452.773342 
L 511.495174 419.452438 
L 511.714727 348.532683 
L 511.93428 465.94213 
L 512.153833 456.062292 
L 512.373387 468.721324 
L 512.59294 454.126693 
L 512.812493 499.496511 
L 513.032046 482.772635 
L 513.251599 409.289674 
L 513.471152 381.79214 
L 513.910259 522.568715 
L 514.349365 429.025951 
L 514.568918 501.258635 
L 514.788471 398.335818 
L 515.008024 463.188005 
L 515.227578 482.185327 
L 515.447131 470.407283 
L 515.666684 526.149251 
L 515.886237 545.675466 
L 516.10579 536.374308 
L 516.76445 407.8153 
L 516.984003 406.976605 
L 517.642662 558.634247 
L 517.862215 468.869049 
L 518.081769 490.04936 
L 518.301322 454.229043 
L 518.740428 526.621743 
L 518.959981 430.120566 
L 519.179534 497.535117 
L 519.399088 464.392633 
L 519.618641 448.195143 
L 519.838194 530.16073 
L 520.057747 478.166176 
L 520.2773 518.184113 
L 520.496853 521.524566 
L 520.716406 428.2837 
L 520.93596 539.889572 
L 521.155513 463.392894 
L 521.375066 542.216301 
L 521.594619 488.378422 
L 521.814172 486.467442 
L 522.033725 449.52062 
L 522.253279 521.383584 
L 522.472832 433.978416 
L 522.692385 469.350293 
L 522.911938 454.145661 
L 523.131491 463.553612 
L 523.351044 517.660299 
L 523.570597 400.461652 
L 523.790151 512.087478 
L 524.009704 458.19437 
L 524.229257 503.005039 
L 524.44881 421.840481 
L 524.668363 401.56497 
L 524.887916 530.444387 
L 525.10747 370.693343 
L 525.327023 452.292931 
L 525.546576 395.989515 
L 525.766129 483.970222 
L 525.985682 494.577568 
L 526.205235 558.125051 
L 526.424788 480.495711 
L 526.644342 493.330016 
L 526.863895 448.03208 
L 527.083448 472.08993 
L 527.303001 535.523514 
L 527.742107 439.973907 
L 527.96166 463.426349 
L 528.181214 531.08005 
L 528.400767 425.143866 
L 528.62032 530.135243 
L 528.839873 477.196423 
L 529.059426 495.762265 
L 529.498533 437.612552 
L 529.937639 474.537632 
L 530.157192 479.623802 
L 530.376745 527.760703 
L 530.596298 486.706222 
L 530.815851 496.305161 
L 531.254958 548.18967 
L 531.474511 478.216453 
L 531.694064 494.786937 
L 531.913617 468.920253 
L 532.13317 473.421954 
L 532.352724 508.58565 
L 532.572277 487.431962 
L 532.79183 493.995528 
L 533.011383 505.045095 
L 533.230936 422.836112 
L 533.450489 508.488876 
L 533.670042 507.070906 
L 533.889596 501.586358 
L 534.109149 477.828149 
L 534.328702 476.328987 
L 534.548255 430.984273 
L 534.767808 516.079236 
L 534.987361 473.194624 
L 535.206915 335.492317 
L 535.426468 482.451041 
L 535.646021 408.946977 
L 536.085127 463.801114 
L 536.30468 415.422008 
L 536.524233 480.515324 
L 536.743787 475.895839 
L 536.96334 510.250106 
L 537.182893 419.726459 
L 537.402446 392.962668 
L 537.621999 412.722651 
L 537.841552 419.397804 
L 538.061106 480.586744 
L 538.280659 483.064197 
L 538.500212 493.782998 
L 538.719765 486.694504 
L 538.939318 377.466545 
L 539.158871 465.579634 
L 539.378424 507.507902 
L 539.597978 410.928674 
L 539.817531 422.944026 
L 540.037084 510.239018 
L 540.256637 294.124877 
L 540.47619 536.033468 
L 540.695743 489.456173 
L 540.915297 496.998127 
L 541.13485 407.357833 
L 541.354403 427.354976 
L 541.573956 517.10756 
L 541.793509 442.705456 
L 542.013062 531.653889 
L 542.232615 429.779245 
L 542.452169 523.639092 
L 542.671722 453.750972 
L 542.891275 543.102732 
L 543.110828 461.222581 
L 543.330381 489.502952 
L 543.549934 470.28705 
L 543.769488 529.452813 
L 543.989041 502.105272 
L 544.208594 493.349146 
L 544.428147 496.921527 
L 544.6477 404.613212 
L 544.867253 385.994724 
L 545.086806 403.488245 
L 545.30636 485.105888 
L 545.525913 466.078564 
L 545.745466 475.031626 
L 545.745466 475.031626 
" style="fill:none;stroke:#96c69a;stroke-linecap:round;stroke-width:3;"/>
   </g>
   <g id="line2d_2"/>
   <g id="patch_3">
    <path d="M 84.914375 603.86 
L 84.914375 109.484571 
" style="fill:none;stroke:#262626;stroke-linecap:square;stroke-linejoin:miter;stroke-width:2.5;"/>
   </g>
   <g id="patch_4">
    <path d="M 84.914375 603.86 
L 567.689804 603.86 
" style="fill:none;stroke:#262626;stroke-linecap:square;stroke-linejoin:miter;stroke-width:2.5;"/>
   </g>
   <g id="legend_1">
    <g id="patch_5">
     <path d="M 514.774179 598.86 
L 560.689804 598.86 
Q 562.689804 598.86 562.689804 596.86 
L 562.689804 554.954375 
Q 562.689804 552.954375 560.689804 552.954375 
L 514.774179 552.954375 
Q 512.774179 552.954375 512.774179 554.954375 
L 512.774179 596.86 
Q 512.774179 598.86 514.774179 598.86 
z
" style="fill:#ffffff;opacity:0.8;stroke:#cccccc;stroke-linejoin:miter;stroke-width:2;"/>
    </g>
    <g id="text_14">
     <!-- $n_\tau$ -->
     <g style="fill:#262626;" transform="translate(524.651991 575.190625)scale(0.24 -0.24)">
      <defs>
       <path d="M 3566 2113 
L 3156 0 
L 2578 0 
L 2988 2091 
Q 3016 2238 3031 2350 
Q 3047 2463 3047 2528 
Q 3047 2791 2881 2937 
Q 2716 3084 2419 3084 
Q 1956 3084 1622 2776 
Q 1288 2469 1184 1941 
L 800 0 
L 225 0 
L 903 3500 
L 1478 3500 
L 1363 2950 
Q 1603 3253 1940 3418 
Q 2278 3584 2650 3584 
Q 3113 3584 3367 3334 
Q 3622 3084 3622 2631 
Q 3622 2519 3608 2391 
Q 3594 2263 3566 2113 
z
" id="DejaVuSans-Oblique-6e" transform="scale(0.015625)"/>
       <path d="M 2103 638 
Q 2188 488 2525 488 
L 2800 488 
L 2706 0 
L 2363 0 
Q 1800 0 1600 300 
Q 1403 606 1534 1269 
L 1856 2925 
L 541 2925 
L 653 3500 
L 3881 3500 
L 3769 2925 
L 2444 2925 
L 2113 1234 
Q 2025 781 2103 638 
z
" id="DejaVuSans-Oblique-3c4" transform="scale(0.015625)"/>
      </defs>
      <use xlink:href="#DejaVuSans-Oblique-6e"/>
      <use transform="translate(63.378906 -16.40625)scale(0.7)" xlink:href="#DejaVuSans-Oblique-3c4"/>
     </g>
    </g>
    <g id="line2d_3">
     <path d="M 516.774179 589.280313 
L 536.774179 589.280313 
" style="fill:none;stroke:#96c69a;stroke-linecap:round;stroke-width:3;"/>
    </g>
    <g id="line2d_4"/>
    <g id="text_15">
     <!-- 90 -->
     <g style="fill:#262626;" transform="translate(544.774179 592.780313)scale(0.1 -0.1)">
      <defs>
       <path d="M 641 103 
L 641 966 
Q 928 831 1190 764 
Q 1453 697 1709 697 
Q 2247 697 2547 995 
Q 2847 1294 2900 1881 
Q 2688 1725 2447 1647 
Q 2206 1569 1925 1569 
Q 1209 1569 770 1986 
Q 331 2403 331 3084 
Q 331 3838 820 4291 
Q 1309 4744 2131 4744 
Q 3044 4744 3544 4128 
Q 4044 3513 4044 2388 
Q 4044 1231 3459 570 
Q 2875 -91 1856 -91 
Q 1528 -91 1228 -42 
Q 928 6 641 103 
z
M 2125 2350 
Q 2441 2350 2600 2554 
Q 2759 2759 2759 3169 
Q 2759 3575 2600 3781 
Q 2441 3988 2125 3988 
Q 1809 3988 1650 3781 
Q 1491 3575 1491 3169 
Q 1491 2759 1650 2554 
Q 1809 2350 2125 2350 
z
" id="DejaVuSans-Bold-39" transform="scale(0.015625)"/>
       <path d="M 2944 2338 
Q 2944 3213 2780 3570 
Q 2616 3928 2228 3928 
Q 1841 3928 1675 3570 
Q 1509 3213 1509 2338 
Q 1509 1453 1675 1090 
Q 1841 728 2228 728 
Q 2613 728 2778 1090 
Q 2944 1453 2944 2338 
z
M 4147 2328 
Q 4147 1169 3647 539 
Q 3147 -91 2228 -91 
Q 1306 -91 806 539 
Q 306 1169 306 2328 
Q 306 3491 806 4120 
Q 1306 4750 2228 4750 
Q 3147 4750 3647 4120 
Q 4147 3491 4147 2328 
z
" id="DejaVuSans-Bold-30" transform="scale(0.015625)"/>
      </defs>
      <use xlink:href="#DejaVuSans-Bold-39"/>
      <use x="69.580078" xlink:href="#DejaVuSans-Bold-30"/>
     </g>
    </g>
   </g>
  </g>
  <g id="axes_2">
   <g id="patch_6">
    <path d="M 84.914375 92.437143 
L 567.689804 92.437143 
L 567.689804 7.2 
L 84.914375 7.2 
z
" style="fill:none;"/>
   </g>
   <g id="matplotlib.axis_3">
    <g id="xtick_7"/>
    <g id="xtick_8"/>
    <g id="xtick_9"/>
    <g id="xtick_10"/>
    <g id="xtick_11"/>
    <g id="xtick_12"/>
   </g>
   <g id="matplotlib.axis_4">
    <g id="ytick_6">
     <g id="text_16">
      <!-- 0 -->
      <g style="fill:#262626;" transform="translate(55.416875 100.795424)scale(0.22 -0.22)">
       <use xlink:href="#DejaVuSans-30"/>
      </g>
     </g>
    </g>
    <g id="ytick_7">
     <g id="text_17">
      <!-- 100 -->
      <g style="fill:#262626;" transform="translate(27.421875 48.082287)scale(0.22 -0.22)">
       <use xlink:href="#DejaVuSans-31"/>
       <use x="63.623047" xlink:href="#DejaVuSans-30"/>
       <use x="127.246094" xlink:href="#DejaVuSans-30"/>
      </g>
     </g>
    </g>
   </g>
   <g id="patch_7">
    <path clip-path="url(#pecf71a3f2a)" d="M 106.858713 92.437143 
L 140.619232 92.437143 
L 140.619232 11.258912 
L 106.858713 11.258912 
z
" style="fill:#96c69a;fill-opacity:0.5;stroke:#ffffff;stroke-linejoin:miter;stroke-width:2;"/>
   </g>
   <g id="patch_8">
    <path clip-path="url(#pecf71a3f2a)" d="M 140.619232 92.437143 
L 174.379752 92.437143 
L 174.379752 11.258912 
L 140.619232 11.258912 
z
" style="fill:#96c69a;fill-opacity:0.5;stroke:#ffffff;stroke-linejoin:miter;stroke-width:2;"/>
   </g>
   <g id="patch_9">
    <path clip-path="url(#pecf71a3f2a)" d="M 174.379752 92.437143 
L 208.140271 92.437143 
L 208.140271 11.258912 
L 174.379752 11.258912 
z
" style="fill:#96c69a;fill-opacity:0.5;stroke:#ffffff;stroke-linejoin:miter;stroke-width:2;"/>
   </g>
   <g id="patch_10">
    <path clip-path="url(#pecf71a3f2a)" d="M 208.140271 92.437143 
L 241.900791 92.437143 
L 241.900791 11.258912 
L 208.140271 11.258912 
z
" style="fill:#96c69a;fill-opacity:0.5;stroke:#ffffff;stroke-linejoin:miter;stroke-width:2;"/>
   </g>
   <g id="patch_11">
    <path clip-path="url(#pecf71a3f2a)" d="M 241.900791 92.437143 
L 275.66131 92.437143 
L 275.66131 11.786043 
L 241.900791 11.786043 
z
" style="fill:#96c69a;fill-opacity:0.5;stroke:#ffffff;stroke-linejoin:miter;stroke-width:2;"/>
   </g>
   <g id="patch_12">
    <path clip-path="url(#pecf71a3f2a)" d="M 275.66131 92.437143 
L 309.42183 92.437143 
L 309.42183 11.258912 
L 275.66131 11.258912 
z
" style="fill:#96c69a;fill-opacity:0.5;stroke:#ffffff;stroke-linejoin:miter;stroke-width:2;"/>
   </g>
   <g id="patch_13">
    <path clip-path="url(#pecf71a3f2a)" d="M 309.42183 92.437143 
L 343.182349 92.437143 
L 343.182349 11.258912 
L 309.42183 11.258912 
z
" style="fill:#96c69a;fill-opacity:0.5;stroke:#ffffff;stroke-linejoin:miter;stroke-width:2;"/>
   </g>
   <g id="patch_14">
    <path clip-path="url(#pecf71a3f2a)" d="M 343.182349 92.437143 
L 376.942869 92.437143 
L 376.942869 11.258912 
L 343.182349 11.258912 
z
" style="fill:#96c69a;fill-opacity:0.5;stroke:#ffffff;stroke-linejoin:miter;stroke-width:2;"/>
   </g>
   <g id="patch_15">
    <path clip-path="url(#pecf71a3f2a)" d="M 376.942869 92.437143 
L 410.703388 92.437143 
L 410.703388 11.786043 
L 376.942869 11.786043 
z
" style="fill:#96c69a;fill-opacity:0.5;stroke:#ffffff;stroke-linejoin:miter;stroke-width:2;"/>
   </g>
   <g id="patch_16">
    <path clip-path="url(#pecf71a3f2a)" d="M 410.703388 92.437143 
L 444.463907 92.437143 
L 444.463907 11.258912 
L 410.703388 11.258912 
z
" style="fill:#96c69a;fill-opacity:0.5;stroke:#ffffff;stroke-linejoin:miter;stroke-width:2;"/>
   </g>
   <g id="patch_17">
    <path clip-path="url(#pecf71a3f2a)" d="M 444.463907 92.437143 
L 478.224427 92.437143 
L 478.224427 11.258912 
L 444.463907 11.258912 
z
" style="fill:#96c69a;fill-opacity:0.5;stroke:#ffffff;stroke-linejoin:miter;stroke-width:2;"/>
   </g>
   <g id="patch_18">
    <path clip-path="url(#pecf71a3f2a)" d="M 478.224427 92.437143 
L 511.984946 92.437143 
L 511.984946 11.258912 
L 478.224427 11.258912 
z
" style="fill:#96c69a;fill-opacity:0.5;stroke:#ffffff;stroke-linejoin:miter;stroke-width:2;"/>
   </g>
   <g id="patch_19">
    <path clip-path="url(#pecf71a3f2a)" d="M 511.984946 92.437143 
L 545.745466 92.437143 
L 545.745466 11.258912 
L 511.984946 11.258912 
z
" style="fill:#96c69a;fill-opacity:0.5;stroke:#ffffff;stroke-linejoin:miter;stroke-width:2;"/>
   </g>
   <g id="patch_20">
    <path d="M 84.914375 92.437143 
L 84.914375 7.2 
" style="fill:none;stroke:#262626;stroke-linecap:square;stroke-linejoin:miter;stroke-width:2.5;"/>
   </g>
   <g id="patch_21">
    <path d="M 84.914375 92.437143 
L 567.689804 92.437143 
" style="fill:none;stroke:#262626;stroke-linecap:square;stroke-linejoin:miter;stroke-width:2.5;"/>
   </g>
  </g>
  <g id="axes_3">
   <g id="patch_22">
    <path d="M 584.337232 603.86 
L 667.574375 603.86 
L 667.574375 109.484571 
L 584.337232 109.484571 
z
" style="fill:none;"/>
   </g>
   <g id="matplotlib.axis_5">
    <g id="xtick_13">
     <g id="text_18">
      <!-- 0 -->
      <g style="fill:#262626;" transform="translate(577.338482 636.076563)scale(0.22 -0.22)">
       <use xlink:href="#DejaVuSans-30"/>
      </g>
     </g>
    </g>
    <g id="xtick_14">
     <g id="text_19">
      <!-- 100 -->
      <g style="fill:#262626;" transform="translate(607.381798 636.076563)scale(0.22 -0.22)">
       <use xlink:href="#DejaVuSans-31"/>
       <use x="63.623047" xlink:href="#DejaVuSans-30"/>
       <use x="127.246094" xlink:href="#DejaVuSans-30"/>
      </g>
     </g>
    </g>
   </g>
   <g id="matplotlib.axis_6">
    <g id="ytick_8"/>
    <g id="ytick_9"/>
    <g id="ytick_10"/>
    <g id="ytick_11"/>
    <g id="ytick_12"/>
   </g>
   <g id="patch_23">
    <path clip-path="url(#p457c045fb2)" d="M 584.337232 581.38839 
L 588.300906 581.38839 
L 588.300906 570.426628 
L 584.337232 570.426628 
z
" style="fill:#96c69a;fill-opacity:0.5;stroke:#ffffff;stroke-linejoin:miter;stroke-width:1.096176;"/>
   </g>
   <g id="patch_24">
    <path clip-path="url(#p457c045fb2)" d="M 584.337232 570.426628 
L 594.907028 570.426628 
L 594.907028 559.464867 
L 584.337232 559.464867 
z
" style="fill:#96c69a;fill-opacity:0.5;stroke:#ffffff;stroke-linejoin:miter;stroke-width:1.096176;"/>
   </g>
   <g id="patch_25">
    <path clip-path="url(#p457c045fb2)" d="M 584.337232 559.464867 
L 601.953559 559.464867 
L 601.953559 548.503106 
L 584.337232 548.503106 
z
" style="fill:#96c69a;fill-opacity:0.5;stroke:#ffffff;stroke-linejoin:miter;stroke-width:1.096176;"/>
   </g>
   <g id="patch_26">
    <path clip-path="url(#p457c045fb2)" d="M 584.337232 548.503106 
L 618.689069 548.503106 
L 618.689069 537.541345 
L 584.337232 537.541345 
z
" style="fill:#96c69a;fill-opacity:0.5;stroke:#ffffff;stroke-linejoin:miter;stroke-width:1.096176;"/>
   </g>
   <g id="patch_27">
    <path clip-path="url(#p457c045fb2)" d="M 584.337232 537.541345 
L 625.735599 537.541345 
L 625.735599 526.579584 
L 584.337232 526.579584 
z
" style="fill:#96c69a;fill-opacity:0.5;stroke:#ffffff;stroke-linejoin:miter;stroke-width:1.096176;"/>
   </g>
   <g id="patch_28">
    <path clip-path="url(#p457c045fb2)" d="M 584.337232 526.579584 
L 654.36213 526.579584 
L 654.36213 515.617823 
L 584.337232 515.617823 
z
" style="fill:#96c69a;fill-opacity:0.5;stroke:#ffffff;stroke-linejoin:miter;stroke-width:1.096176;"/>
   </g>
   <g id="patch_29">
    <path clip-path="url(#p457c045fb2)" d="M 584.337232 515.617823 
L 656.564171 515.617823 
L 656.564171 504.656061 
L 584.337232 504.656061 
z
" style="fill:#96c69a;fill-opacity:0.5;stroke:#ffffff;stroke-linejoin:miter;stroke-width:1.096176;"/>
   </g>
   <g id="patch_30">
    <path clip-path="url(#p457c045fb2)" d="M 584.337232 504.656061 
L 658.325804 504.656061 
L 658.325804 493.6943 
L 584.337232 493.6943 
z
" style="fill:#96c69a;fill-opacity:0.5;stroke:#ffffff;stroke-linejoin:miter;stroke-width:1.096176;"/>
   </g>
   <g id="patch_31">
    <path clip-path="url(#p457c045fb2)" d="M 584.337232 493.6943 
L 663.610702 493.6943 
L 663.610702 482.732539 
L 584.337232 482.732539 
z
" style="fill:#96c69a;fill-opacity:0.5;stroke:#ffffff;stroke-linejoin:miter;stroke-width:1.096176;"/>
   </g>
   <g id="patch_32">
    <path clip-path="url(#p457c045fb2)" d="M 584.337232 482.732539 
L 658.325804 482.732539 
L 658.325804 471.770778 
L 584.337232 471.770778 
z
" style="fill:#96c69a;fill-opacity:0.5;stroke:#ffffff;stroke-linejoin:miter;stroke-width:1.096176;"/>
   </g>
   <g id="patch_33">
    <path clip-path="url(#p457c045fb2)" d="M 584.337232 471.770778 
L 653.921722 471.770778 
L 653.921722 460.809017 
L 584.337232 460.809017 
z
" style="fill:#96c69a;fill-opacity:0.5;stroke:#ffffff;stroke-linejoin:miter;stroke-width:1.096176;"/>
   </g>
   <g id="patch_34">
    <path clip-path="url(#p457c045fb2)" d="M 584.337232 460.809017 
L 653.481314 460.809017 
L 653.481314 449.847256 
L 584.337232 449.847256 
z
" style="fill:#96c69a;fill-opacity:0.5;stroke:#ffffff;stroke-linejoin:miter;stroke-width:1.096176;"/>
   </g>
   <g id="patch_35">
    <path clip-path="url(#p457c045fb2)" d="M 584.337232 449.847256 
L 626.176008 449.847256 
L 626.176008 438.885494 
L 584.337232 438.885494 
z
" style="fill:#96c69a;fill-opacity:0.5;stroke:#ffffff;stroke-linejoin:miter;stroke-width:1.096176;"/>
   </g>
   <g id="patch_36">
    <path clip-path="url(#p457c045fb2)" d="M 584.337232 438.885494 
L 633.662946 438.885494 
L 633.662946 427.923733 
L 584.337232 427.923733 
z
" style="fill:#96c69a;fill-opacity:0.5;stroke:#ffffff;stroke-linejoin:miter;stroke-width:1.096176;"/>
   </g>
   <g id="patch_37">
    <path clip-path="url(#p457c045fb2)" d="M 584.337232 427.923733 
L 620.450702 427.923733 
L 620.450702 416.961972 
L 584.337232 416.961972 
z
" style="fill:#96c69a;fill-opacity:0.5;stroke:#ffffff;stroke-linejoin:miter;stroke-width:1.096176;"/>
   </g>
   <g id="patch_38">
    <path clip-path="url(#p457c045fb2)" d="M 584.337232 416.961972 
L 614.725395 416.961972 
L 614.725395 406.000211 
L 584.337232 406.000211 
z
" style="fill:#96c69a;fill-opacity:0.5;stroke:#ffffff;stroke-linejoin:miter;stroke-width:1.096176;"/>
   </g>
   <g id="patch_39">
    <path clip-path="url(#p457c045fb2)" d="M 584.337232 406.000211 
L 609.880906 406.000211 
L 609.880906 395.03845 
L 584.337232 395.03845 
z
" style="fill:#96c69a;fill-opacity:0.5;stroke:#ffffff;stroke-linejoin:miter;stroke-width:1.096176;"/>
   </g>
   <g id="patch_40">
    <path clip-path="url(#p457c045fb2)" d="M 584.337232 395.03845 
L 605.476824 395.03845 
L 605.476824 384.076689 
L 584.337232 384.076689 
z
" style="fill:#96c69a;fill-opacity:0.5;stroke:#ffffff;stroke-linejoin:miter;stroke-width:1.096176;"/>
   </g>
   <g id="patch_41">
    <path clip-path="url(#p457c045fb2)" d="M 584.337232 384.076689 
L 599.31111 384.076689 
L 599.31111 373.114927 
L 584.337232 373.114927 
z
" style="fill:#96c69a;fill-opacity:0.5;stroke:#ffffff;stroke-linejoin:miter;stroke-width:1.096176;"/>
   </g>
   <g id="patch_42">
    <path clip-path="url(#p457c045fb2)" d="M 584.337232 373.114927 
L 594.46662 373.114927 
L 594.46662 362.153166 
L 584.337232 362.153166 
z
" style="fill:#96c69a;fill-opacity:0.5;stroke:#ffffff;stroke-linejoin:miter;stroke-width:1.096176;"/>
   </g>
   <g id="patch_43">
    <path clip-path="url(#p457c045fb2)" d="M 584.337232 362.153166 
L 591.824171 362.153166 
L 591.824171 351.191405 
L 584.337232 351.191405 
z
" style="fill:#96c69a;fill-opacity:0.5;stroke:#ffffff;stroke-linejoin:miter;stroke-width:1.096176;"/>
   </g>
   <g id="patch_44">
    <path clip-path="url(#p457c045fb2)" d="M 584.337232 351.191405 
L 590.062538 351.191405 
L 590.062538 340.229644 
L 584.337232 340.229644 
z
" style="fill:#96c69a;fill-opacity:0.5;stroke:#ffffff;stroke-linejoin:miter;stroke-width:1.096176;"/>
   </g>
   <g id="patch_45">
    <path clip-path="url(#p457c045fb2)" d="M 584.337232 340.229644 
L 591.383763 340.229644 
L 591.383763 329.267883 
L 584.337232 329.267883 
z
" style="fill:#96c69a;fill-opacity:0.5;stroke:#ffffff;stroke-linejoin:miter;stroke-width:1.096176;"/>
   </g>
   <g id="patch_46">
    <path clip-path="url(#p457c045fb2)" d="M 584.337232 329.267883 
L 586.098865 329.267883 
L 586.098865 318.306122 
L 584.337232 318.306122 
z
" style="fill:#96c69a;fill-opacity:0.5;stroke:#ffffff;stroke-linejoin:miter;stroke-width:1.096176;"/>
   </g>
   <g id="patch_47">
    <path clip-path="url(#p457c045fb2)" d="M 584.337232 318.306122 
L 586.098865 318.306122 
L 586.098865 307.34436 
L 584.337232 307.34436 
z
" style="fill:#96c69a;fill-opacity:0.5;stroke:#ffffff;stroke-linejoin:miter;stroke-width:1.096176;"/>
   </g>
   <g id="patch_48">
    <path clip-path="url(#p457c045fb2)" d="M 584.337232 307.34436 
L 586.098865 307.34436 
L 586.098865 296.382599 
L 584.337232 296.382599 
z
" style="fill:#96c69a;fill-opacity:0.5;stroke:#ffffff;stroke-linejoin:miter;stroke-width:1.096176;"/>
   </g>
   <g id="patch_49">
    <path clip-path="url(#p457c045fb2)" d="M 584.337232 296.382599 
L 586.979681 296.382599 
L 586.979681 285.420838 
L 584.337232 285.420838 
z
" style="fill:#96c69a;fill-opacity:0.5;stroke:#ffffff;stroke-linejoin:miter;stroke-width:1.096176;"/>
   </g>
   <g id="patch_50">
    <path clip-path="url(#p457c045fb2)" d="M 584.337232 285.420838 
L 586.098865 285.420838 
L 586.098865 274.459077 
L 584.337232 274.459077 
z
" style="fill:#96c69a;fill-opacity:0.5;stroke:#ffffff;stroke-linejoin:miter;stroke-width:1.096176;"/>
   </g>
   <g id="patch_51">
    <path clip-path="url(#p457c045fb2)" d="M 584.337232 274.459077 
L 586.098865 274.459077 
L 586.098865 263.497316 
L 584.337232 263.497316 
z
" style="fill:#96c69a;fill-opacity:0.5;stroke:#ffffff;stroke-linejoin:miter;stroke-width:1.096176;"/>
   </g>
   <g id="patch_52">
    <path clip-path="url(#p457c045fb2)" d="M 584.337232 263.497316 
L 584.77764 263.497316 
L 584.77764 252.535555 
L 584.337232 252.535555 
z
" style="fill:#96c69a;fill-opacity:0.5;stroke:#ffffff;stroke-linejoin:miter;stroke-width:1.096176;"/>
   </g>
   <g id="patch_53">
    <path clip-path="url(#p457c045fb2)" d="M 584.337232 252.535555 
L 585.658457 252.535555 
L 585.658457 241.573793 
L 584.337232 241.573793 
z
" style="fill:#96c69a;fill-opacity:0.5;stroke:#ffffff;stroke-linejoin:miter;stroke-width:1.096176;"/>
   </g>
   <g id="patch_54">
    <path clip-path="url(#p457c045fb2)" d="M 584.337232 241.573793 
L 584.77764 241.573793 
L 584.77764 230.612032 
L 584.337232 230.612032 
z
" style="fill:#96c69a;fill-opacity:0.5;stroke:#ffffff;stroke-linejoin:miter;stroke-width:1.096176;"/>
   </g>
   <g id="patch_55">
    <path clip-path="url(#p457c045fb2)" d="M 584.337232 230.612032 
L 584.337232 230.612032 
L 584.337232 219.650271 
L 584.337232 219.650271 
z
" style="fill:#96c69a;fill-opacity:0.5;stroke:#ffffff;stroke-linejoin:miter;stroke-width:1.096176;"/>
   </g>
   <g id="patch_56">
    <path clip-path="url(#p457c045fb2)" d="M 584.337232 219.650271 
L 584.77764 219.650271 
L 584.77764 208.68851 
L 584.337232 208.68851 
z
" style="fill:#96c69a;fill-opacity:0.5;stroke:#ffffff;stroke-linejoin:miter;stroke-width:1.096176;"/>
   </g>
   <g id="patch_57">
    <path clip-path="url(#p457c045fb2)" d="M 584.337232 208.68851 
L 584.77764 208.68851 
L 584.77764 197.726749 
L 584.337232 197.726749 
z
" style="fill:#96c69a;fill-opacity:0.5;stroke:#ffffff;stroke-linejoin:miter;stroke-width:1.096176;"/>
   </g>
   <g id="patch_58">
    <path clip-path="url(#p457c045fb2)" d="M 584.337232 197.726749 
L 584.337232 197.726749 
L 584.337232 186.764988 
L 584.337232 186.764988 
z
" style="fill:#96c69a;fill-opacity:0.5;stroke:#ffffff;stroke-linejoin:miter;stroke-width:1.096176;"/>
   </g>
   <g id="patch_59">
    <path clip-path="url(#p457c045fb2)" d="M 584.337232 186.764988 
L 584.337232 186.764988 
L 584.337232 175.803226 
L 584.337232 175.803226 
z
" style="fill:#96c69a;fill-opacity:0.5;stroke:#ffffff;stroke-linejoin:miter;stroke-width:1.096176;"/>
   </g>
   <g id="patch_60">
    <path clip-path="url(#p457c045fb2)" d="M 584.337232 175.803226 
L 584.337232 175.803226 
L 584.337232 164.841465 
L 584.337232 164.841465 
z
" style="fill:#96c69a;fill-opacity:0.5;stroke:#ffffff;stroke-linejoin:miter;stroke-width:1.096176;"/>
   </g>
   <g id="patch_61">
    <path clip-path="url(#p457c045fb2)" d="M 584.337232 164.841465 
L 584.337232 164.841465 
L 584.337232 153.879704 
L 584.337232 153.879704 
z
" style="fill:#96c69a;fill-opacity:0.5;stroke:#ffffff;stroke-linejoin:miter;stroke-width:1.096176;"/>
   </g>
   <g id="patch_62">
    <path clip-path="url(#p457c045fb2)" d="M 584.337232 153.879704 
L 584.337232 153.879704 
L 584.337232 142.917943 
L 584.337232 142.917943 
z
" style="fill:#96c69a;fill-opacity:0.5;stroke:#ffffff;stroke-linejoin:miter;stroke-width:1.096176;"/>
   </g>
   <g id="patch_63">
    <path clip-path="url(#p457c045fb2)" d="M 584.337232 142.917943 
L 584.77764 142.917943 
L 584.77764 131.956182 
L 584.337232 131.956182 
z
" style="fill:#96c69a;fill-opacity:0.5;stroke:#ffffff;stroke-linejoin:miter;stroke-width:1.096176;"/>
   </g>
   <g id="patch_64">
    <path d="M 584.337232 603.86 
L 584.337232 109.484571 
" style="fill:none;stroke:#262626;stroke-linecap:square;stroke-linejoin:miter;stroke-width:2.5;"/>
   </g>
   <g id="patch_65">
    <path d="M 584.337232 603.86 
L 667.574375 603.86 
" style="fill:none;stroke:#262626;stroke-linecap:square;stroke-linejoin:miter;stroke-width:2.5;"/>
   </g>
  </g>
 </g>
 <defs>
  <clipPath id="p3ac326e88f">
   <rect height="494.375429" width="482.775429" x="84.914375" y="109.484571"/>
  </clipPath>
  <clipPath id="pecf71a3f2a">
   <rect height="85.237143" width="482.775429" x="84.914375" y="7.2"/>
  </clipPath>
  <clipPath id="p457c045fb2">
   <rect height="494.375429" width="83.237143" x="584.337232" y="109.484571"/>
  </clipPath>
 </defs>
</svg>
