<?xml version="1.0" encoding="utf-8" standalone="no"?>
<!DOCTYPE svg PUBLIC "-//W3C//DTD SVG 1.1//EN"
  "http://www.w3.org/Graphics/SVG/1.1/DTD/svg11.dtd">
<svg height="675.079375pt" version="1.1" viewBox="0 0 674.774375 675.079375" width="674.774375pt" xmlns="http://www.w3.org/2000/svg" xmlns:xlink="http://www.w3.org/1999/xlink">
 <metadata>
  <rdf:RDF xmlns:cc="http://creativecommons.org/ns#" xmlns:dc="http://purl.org/dc/elements/1.1/" xmlns:rdf="http://www.w3.org/1999/02/22-rdf-syntax-ns#">
   <cc:Work>
    <dc:type rdf:resource="http://purl.org/dc/dcmitype/StillImage"/>
    <dc:date>2021-07-16T21:44:01.854006</dc:date>
    <dc:format>image/svg+xml</dc:format>
    <dc:creator>
     <cc:Agent>
      <dc:title>Matplotlib v3.4.2, https://matplotlib.org/</dc:title>
     </cc:Agent>
    </dc:creator>
   </cc:Work>
  </rdf:RDF>
 </metadata>
 <defs>
  <style type="text/css">*{stroke-linecap:butt;stroke-linejoin:round;}</style>
 </defs>
 <g id="figure_1">
  <g id="patch_1">
   <path d="M 0 675.079375 
L 674.774375 675.079375 
L 674.774375 0 
L 0 0 
z
" style="fill:#ffffff;"/>
  </g>
  <g id="axes_1">
   <g id="patch_2">
    <path d="M 84.914375 603.86 
L 567.689804 603.86 
L 567.689804 109.484571 
L 84.914375 109.484571 
z
" style="fill:none;"/>
   </g>
   <g id="matplotlib.axis_1">
    <g id="xtick_1">
     <g id="text_1">
      <!-- 0 -->
      <g style="fill:#262626;" transform="translate(99.64041 636.076563)scale(0.22 -0.22)">
       <defs>
        <path d="M 2034 4250 
Q 1547 4250 1301 3770 
Q 1056 3291 1056 2328 
Q 1056 1369 1301 889 
Q 1547 409 2034 409 
Q 2525 409 2770 889 
Q 3016 1369 3016 2328 
Q 3016 3291 2770 3770 
Q 2525 4250 2034 4250 
z
M 2034 4750 
Q 2819 4750 3233 4129 
Q 3647 3509 3647 2328 
Q 3647 1150 3233 529 
Q 2819 -91 2034 -91 
Q 1250 -91 836 529 
Q 422 1150 422 2328 
Q 422 3509 836 4129 
Q 1250 4750 2034 4750 
z
" id="DejaVuSans-30" transform="scale(0.015625)"/>
       </defs>
       <use xlink:href="#DejaVuSans-30"/>
      </g>
     </g>
    </g>
    <g id="xtick_2">
     <g id="text_2">
      <!-- 20000 -->
      <g style="fill:#262626;" transform="translate(159.466671 636.076563)scale(0.22 -0.22)">
       <defs>
        <path d="M 1228 531 
L 3431 531 
L 3431 0 
L 469 0 
L 469 531 
Q 828 903 1448 1529 
Q 2069 2156 2228 2338 
Q 2531 2678 2651 2914 
Q 2772 3150 2772 3378 
Q 2772 3750 2511 3984 
Q 2250 4219 1831 4219 
Q 1534 4219 1204 4116 
Q 875 4013 500 3803 
L 500 4441 
Q 881 4594 1212 4672 
Q 1544 4750 1819 4750 
Q 2544 4750 2975 4387 
Q 3406 4025 3406 3419 
Q 3406 3131 3298 2873 
Q 3191 2616 2906 2266 
Q 2828 2175 2409 1742 
Q 1991 1309 1228 531 
z
" id="DejaVuSans-32" transform="scale(0.015625)"/>
       </defs>
       <use xlink:href="#DejaVuSans-32"/>
       <use x="63.623047" xlink:href="#DejaVuSans-30"/>
       <use x="127.246094" xlink:href="#DejaVuSans-30"/>
       <use x="190.869141" xlink:href="#DejaVuSans-30"/>
       <use x="254.492188" xlink:href="#DejaVuSans-30"/>
      </g>
     </g>
    </g>
    <g id="xtick_3">
     <g id="text_3">
      <!-- 40000 -->
      <g style="fill:#262626;" transform="translate(247.287932 636.076563)scale(0.22 -0.22)">
       <defs>
        <path d="M 2419 4116 
L 825 1625 
L 2419 1625 
L 2419 4116 
z
M 2253 4666 
L 3047 4666 
L 3047 1625 
L 3713 1625 
L 3713 1100 
L 3047 1100 
L 3047 0 
L 2419 0 
L 2419 1100 
L 313 1100 
L 313 1709 
L 2253 4666 
z
" id="DejaVuSans-34" transform="scale(0.015625)"/>
       </defs>
       <use xlink:href="#DejaVuSans-34"/>
       <use x="63.623047" xlink:href="#DejaVuSans-30"/>
       <use x="127.246094" xlink:href="#DejaVuSans-30"/>
       <use x="190.869141" xlink:href="#DejaVuSans-30"/>
       <use x="254.492188" xlink:href="#DejaVuSans-30"/>
      </g>
     </g>
    </g>
    <g id="xtick_4">
     <g id="text_4">
      <!-- 60000 -->
      <g style="fill:#262626;" transform="translate(335.109193 636.076563)scale(0.22 -0.22)">
       <defs>
        <path d="M 2113 2584 
Q 1688 2584 1439 2293 
Q 1191 2003 1191 1497 
Q 1191 994 1439 701 
Q 1688 409 2113 409 
Q 2538 409 2786 701 
Q 3034 994 3034 1497 
Q 3034 2003 2786 2293 
Q 2538 2584 2113 2584 
z
M 3366 4563 
L 3366 3988 
Q 3128 4100 2886 4159 
Q 2644 4219 2406 4219 
Q 1781 4219 1451 3797 
Q 1122 3375 1075 2522 
Q 1259 2794 1537 2939 
Q 1816 3084 2150 3084 
Q 2853 3084 3261 2657 
Q 3669 2231 3669 1497 
Q 3669 778 3244 343 
Q 2819 -91 2113 -91 
Q 1303 -91 875 529 
Q 447 1150 447 2328 
Q 447 3434 972 4092 
Q 1497 4750 2381 4750 
Q 2619 4750 2861 4703 
Q 3103 4656 3366 4563 
z
" id="DejaVuSans-36" transform="scale(0.015625)"/>
       </defs>
       <use xlink:href="#DejaVuSans-36"/>
       <use x="63.623047" xlink:href="#DejaVuSans-30"/>
       <use x="127.246094" xlink:href="#DejaVuSans-30"/>
       <use x="190.869141" xlink:href="#DejaVuSans-30"/>
       <use x="254.492188" xlink:href="#DejaVuSans-30"/>
      </g>
     </g>
    </g>
    <g id="xtick_5">
     <g id="text_5">
      <!-- 80000 -->
      <g style="fill:#262626;" transform="translate(422.930455 636.076563)scale(0.22 -0.22)">
       <defs>
        <path d="M 2034 2216 
Q 1584 2216 1326 1975 
Q 1069 1734 1069 1313 
Q 1069 891 1326 650 
Q 1584 409 2034 409 
Q 2484 409 2743 651 
Q 3003 894 3003 1313 
Q 3003 1734 2745 1975 
Q 2488 2216 2034 2216 
z
M 1403 2484 
Q 997 2584 770 2862 
Q 544 3141 544 3541 
Q 544 4100 942 4425 
Q 1341 4750 2034 4750 
Q 2731 4750 3128 4425 
Q 3525 4100 3525 3541 
Q 3525 3141 3298 2862 
Q 3072 2584 2669 2484 
Q 3125 2378 3379 2068 
Q 3634 1759 3634 1313 
Q 3634 634 3220 271 
Q 2806 -91 2034 -91 
Q 1263 -91 848 271 
Q 434 634 434 1313 
Q 434 1759 690 2068 
Q 947 2378 1403 2484 
z
M 1172 3481 
Q 1172 3119 1398 2916 
Q 1625 2713 2034 2713 
Q 2441 2713 2670 2916 
Q 2900 3119 2900 3481 
Q 2900 3844 2670 4047 
Q 2441 4250 2034 4250 
Q 1625 4250 1398 4047 
Q 1172 3844 1172 3481 
z
" id="DejaVuSans-38" transform="scale(0.015625)"/>
       </defs>
       <use xlink:href="#DejaVuSans-38"/>
       <use x="63.623047" xlink:href="#DejaVuSans-30"/>
       <use x="127.246094" xlink:href="#DejaVuSans-30"/>
       <use x="190.869141" xlink:href="#DejaVuSans-30"/>
       <use x="254.492188" xlink:href="#DejaVuSans-30"/>
      </g>
     </g>
    </g>
    <g id="xtick_6">
     <g id="text_6">
      <!-- 100000 -->
      <g style="fill:#262626;" transform="translate(503.752966 636.076563)scale(0.22 -0.22)">
       <defs>
        <path d="M 794 531 
L 1825 531 
L 1825 4091 
L 703 3866 
L 703 4441 
L 1819 4666 
L 2450 4666 
L 2450 531 
L 3481 531 
L 3481 0 
L 794 0 
L 794 531 
z
" id="DejaVuSans-31" transform="scale(0.015625)"/>
       </defs>
       <use xlink:href="#DejaVuSans-31"/>
       <use x="63.623047" xlink:href="#DejaVuSans-30"/>
       <use x="127.246094" xlink:href="#DejaVuSans-30"/>
       <use x="190.869141" xlink:href="#DejaVuSans-30"/>
       <use x="254.492188" xlink:href="#DejaVuSans-30"/>
       <use x="318.115234" xlink:href="#DejaVuSans-30"/>
      </g>
     </g>
    </g>
    <g id="text_7">
     <!-- MDTU -->
     <g style="fill:#262626;" transform="translate(290.596464 662.888125)scale(0.24 -0.24)">
      <defs>
       <path d="M 628 4666 
L 1569 4666 
L 2759 1491 
L 3956 4666 
L 4897 4666 
L 4897 0 
L 4281 0 
L 4281 4097 
L 3078 897 
L 2444 897 
L 1241 4097 
L 1241 0 
L 628 0 
L 628 4666 
z
" id="DejaVuSans-4d" transform="scale(0.015625)"/>
       <path d="M 1259 4147 
L 1259 519 
L 2022 519 
Q 2988 519 3436 956 
Q 3884 1394 3884 2338 
Q 3884 3275 3436 3711 
Q 2988 4147 2022 4147 
L 1259 4147 
z
M 628 4666 
L 1925 4666 
Q 3281 4666 3915 4102 
Q 4550 3538 4550 2338 
Q 4550 1131 3912 565 
Q 3275 0 1925 0 
L 628 0 
L 628 4666 
z
" id="DejaVuSans-44" transform="scale(0.015625)"/>
       <path d="M -19 4666 
L 3928 4666 
L 3928 4134 
L 2272 4134 
L 2272 0 
L 1638 0 
L 1638 4134 
L -19 4134 
L -19 4666 
z
" id="DejaVuSans-54" transform="scale(0.015625)"/>
       <path d="M 556 4666 
L 1191 4666 
L 1191 1831 
Q 1191 1081 1462 751 
Q 1734 422 2344 422 
Q 2950 422 3222 751 
Q 3494 1081 3494 1831 
L 3494 4666 
L 4128 4666 
L 4128 1753 
Q 4128 841 3676 375 
Q 3225 -91 2344 -91 
Q 1459 -91 1007 375 
Q 556 841 556 1753 
L 556 4666 
z
" id="DejaVuSans-55" transform="scale(0.015625)"/>
      </defs>
      <use xlink:href="#DejaVuSans-4d"/>
      <use x="86.279297" xlink:href="#DejaVuSans-44"/>
      <use x="163.28125" xlink:href="#DejaVuSans-54"/>
      <use x="224.365234" xlink:href="#DejaVuSans-55"/>
     </g>
    </g>
   </g>
   <g id="matplotlib.axis_2">
    <g id="ytick_1">
     <g id="text_8">
      <!-- 0.2 -->
      <g style="fill:#262626;" transform="translate(34.4275 609.984658)scale(0.22 -0.22)">
       <defs>
        <path d="M 684 794 
L 1344 794 
L 1344 0 
L 684 0 
L 684 794 
z
" id="DejaVuSans-2e" transform="scale(0.015625)"/>
       </defs>
       <use xlink:href="#DejaVuSans-30"/>
       <use x="63.623047" xlink:href="#DejaVuSans-2e"/>
       <use x="95.410156" xlink:href="#DejaVuSans-32"/>
      </g>
     </g>
    </g>
    <g id="ytick_2">
     <g id="text_9">
      <!-- 0.4 -->
      <g style="fill:#262626;" transform="translate(34.4275 541.43394)scale(0.22 -0.22)">
       <use xlink:href="#DejaVuSans-30"/>
       <use x="63.623047" xlink:href="#DejaVuSans-2e"/>
       <use x="95.410156" xlink:href="#DejaVuSans-34"/>
      </g>
     </g>
    </g>
    <g id="ytick_3">
     <g id="text_10">
      <!-- 0.6 -->
      <g style="fill:#262626;" transform="translate(34.4275 472.883222)scale(0.22 -0.22)">
       <use xlink:href="#DejaVuSans-30"/>
       <use x="63.623047" xlink:href="#DejaVuSans-2e"/>
       <use x="95.410156" xlink:href="#DejaVuSans-36"/>
      </g>
     </g>
    </g>
    <g id="ytick_4">
     <g id="text_11">
      <!-- 0.8 -->
      <g style="fill:#262626;" transform="translate(34.4275 404.332505)scale(0.22 -0.22)">
       <use xlink:href="#DejaVuSans-30"/>
       <use x="63.623047" xlink:href="#DejaVuSans-2e"/>
       <use x="95.410156" xlink:href="#DejaVuSans-38"/>
      </g>
     </g>
    </g>
    <g id="ytick_5">
     <g id="text_12">
      <!-- 1.0 -->
      <g style="fill:#262626;" transform="translate(34.4275 335.781787)scale(0.22 -0.22)">
       <use xlink:href="#DejaVuSans-31"/>
       <use x="63.623047" xlink:href="#DejaVuSans-2e"/>
       <use x="95.410156" xlink:href="#DejaVuSans-30"/>
      </g>
     </g>
    </g>
    <g id="ytick_6">
     <g id="text_13">
      <!-- 1.2 -->
      <g style="fill:#262626;" transform="translate(34.4275 267.231069)scale(0.22 -0.22)">
       <use xlink:href="#DejaVuSans-31"/>
       <use x="63.623047" xlink:href="#DejaVuSans-2e"/>
       <use x="95.410156" xlink:href="#DejaVuSans-32"/>
      </g>
     </g>
    </g>
    <g id="ytick_7">
     <g id="text_14">
      <!-- 1.4 -->
      <g style="fill:#262626;" transform="translate(34.4275 198.680352)scale(0.22 -0.22)">
       <use xlink:href="#DejaVuSans-31"/>
       <use x="63.623047" xlink:href="#DejaVuSans-2e"/>
       <use x="95.410156" xlink:href="#DejaVuSans-34"/>
      </g>
     </g>
    </g>
    <g id="ytick_8">
     <g id="text_15">
      <!-- 1.6 -->
      <g style="fill:#262626;" transform="translate(34.4275 130.129634)scale(0.22 -0.22)">
       <use xlink:href="#DejaVuSans-31"/>
       <use x="63.623047" xlink:href="#DejaVuSans-2e"/>
       <use x="95.410156" xlink:href="#DejaVuSans-36"/>
      </g>
     </g>
    </g>
    <g id="text_16">
     <!-- $E$ -->
     <g style="fill:#262626;" transform="translate(25.43625 364.352286)rotate(-90)scale(0.24 -0.24)">
      <defs>
       <path d="M 1081 4666 
L 4031 4666 
L 3928 4134 
L 1606 4134 
L 1338 2753 
L 3566 2753 
L 3463 2222 
L 1234 2222 
L 909 531 
L 3284 531 
L 3181 0 
L 172 0 
L 1081 4666 
z
" id="DejaVuSans-Oblique-45" transform="scale(0.015625)"/>
      </defs>
      <use transform="translate(0 0.09375)" xlink:href="#DejaVuSans-Oblique-45"/>
     </g>
    </g>
   </g>
   <g id="line2d_1">
    <path clip-path="url(#pc05cde8d96)" d="M 106.858713 527.152504 
L 107.078266 410.276415 
L 107.297819 389.967246 
L 107.517372 493.010107 
L 107.736925 531.501808 
L 107.956478 505.492106 
L 108.395585 366.415975 
L 108.615138 335.607909 
L 108.834691 489.723507 
L 109.054244 461.68438 
L 109.273797 322.325983 
L 109.493351 452.475707 
L 109.712904 451.717881 
L 109.932457 366.557839 
L 110.15201 457.182639 
L 110.371563 452.702305 
L 110.591116 432.665426 
L 110.810669 425.686011 
L 111.030223 484.00375 
L 111.249776 393.918633 
L 111.469329 487.58694 
L 111.688882 478.48906 
L 111.908435 286.094204 
L 112.127988 500.681659 
L 112.347541 375.080731 
L 112.567095 412.398242 
L 112.786648 529.150025 
L 113.225754 483.286259 
L 113.445307 337.290775 
L 113.66486 345.564365 
L 113.884414 504.853359 
L 114.103967 438.26111 
L 114.32352 445.385615 
L 114.543073 561.703859 
L 114.762626 501.027288 
L 114.982179 488.357698 
L 115.201732 419.441311 
L 115.421286 431.070745 
L 115.640839 393.328303 
L 115.860392 476.231848 
L 116.079945 384.576704 
L 116.299498 415.39225 
L 116.519051 476.17875 
L 116.738605 455.439882 
L 116.958158 509.259344 
L 117.177711 426.110365 
L 117.397264 510.383317 
L 117.616817 479.778449 
L 117.83637 370.736779 
L 118.055923 430.492532 
L 118.275477 424.961382 
L 118.49503 539.16209 
L 118.714583 393.72856 
L 118.934136 368.405819 
L 119.153689 519.415608 
L 119.373242 367.975373 
L 119.592796 491.512942 
L 119.812349 491.769662 
L 120.031902 338.688878 
L 120.471008 507.203589 
L 120.690561 401.505277 
L 120.910114 386.987166 
L 121.349221 532.505352 
L 121.568774 332.105963 
L 121.788327 474.074098 
L 122.00788 480.800028 
L 122.227433 510.838865 
L 122.446987 481.582255 
L 122.66654 295.050814 
L 122.886093 451.647514 
L 123.105646 499.304104 
L 123.325199 379.917641 
L 123.544752 379.377153 
L 123.764305 447.677471 
L 123.983859 438.188175 
L 124.203412 347.011261 
L 124.422965 539.691845 
L 124.642518 403.903236 
L 124.862071 508.055038 
L 125.081624 543.803645 
L 125.301178 340.248903 
L 125.520731 338.909134 
L 125.740284 462.157233 
L 125.959837 403.555349 
L 126.17939 403.165575 
L 126.398943 386.740489 
L 126.618496 456.943538 
L 126.83805 374.303126 
L 127.057603 388.483157 
L 127.277156 445.95509 
L 127.496709 394.624579 
L 127.716262 405.658059 
L 127.935815 540.300095 
L 128.155369 543.147355 
L 128.374922 506.961508 
L 128.594475 435.546906 
L 128.814028 443.266641 
L 129.033581 484.46758 
L 129.253134 310.55616 
L 129.472687 430.061228 
L 129.692241 402.187706 
L 129.911794 521.558906 
L 130.131347 387.029183 
L 130.3509 453.94519 
L 130.570453 439.090467 
L 130.790006 520.464955 
L 131.00956 500.508268 
L 131.229113 452.553301 
L 131.448666 435.999666 
L 131.668219 383.29316 
L 131.887772 524.394006 
L 132.107325 402.450516 
L 132.326878 518.055127 
L 132.765985 266.134521 
L 132.985538 442.203141 
L 133.205091 448.338871 
L 133.424644 428.348319 
L 133.644197 424.417502 
L 133.863751 439.419267 
L 134.083304 379.123312 
L 134.302857 468.048977 
L 134.52241 391.279654 
L 134.741963 408.715584 
L 134.961516 402.605409 
L 135.181069 470.223342 
L 135.400623 474.388516 
L 135.620176 511.659998 
L 135.839729 508.345188 
L 136.059282 417.457246 
L 136.278835 409.401892 
L 136.717941 470.640259 
L 136.937495 416.154061 
L 137.157048 457.704437 
L 137.596154 488.061086 
L 137.815707 459.963671 
L 138.03526 478.119495 
L 138.254814 357.842734 
L 138.474367 411.099339 
L 138.69392 405.763442 
L 138.913473 444.740042 
L 139.133026 409.146942 
L 139.352579 440.943908 
L 139.572132 496.517992 
L 139.791686 517.327348 
L 140.450345 411.881901 
L 140.669898 498.334405 
L 140.889451 434.170595 
L 141.109005 446.490085 
L 141.767664 524.089623 
L 141.987217 388.138774 
L 142.20677 395.009927 
L 142.426323 514.561759 
L 142.645877 448.060459 
L 142.86543 501.943256 
L 143.084983 499.924154 
L 143.524089 325.493495 
L 143.743642 381.286304 
L 143.963196 503.235946 
L 144.402302 405.1886 
L 144.841408 453.739538 
L 145.060961 494.886472 
L 145.280514 340.15833 
L 145.500068 448.755353 
L 145.719621 416.92497 
L 145.939174 454.401119 
L 146.158727 245.343292 
L 146.37828 485.342842 
L 146.597833 492.861381 
L 146.817387 422.017529 
L 147.03694 466.692358 
L 147.476046 515.272372 
L 147.695599 346.078812 
L 147.915152 425.117768 
L 148.134705 462.615281 
L 148.354259 544.155207 
L 148.573812 464.604319 
L 148.793365 510.342034 
L 149.012918 433.019147 
L 149.232471 446.261704 
L 149.452024 416.57627 
L 149.671578 459.101758 
L 149.891131 396.537094 
L 150.110684 390.426097 
L 150.330237 500.504961 
L 150.54979 474.348608 
L 150.769343 488.607317 
L 151.20845 446.495995 
L 151.428003 446.392148 
L 151.647556 498.374308 
L 151.867109 438.968685 
L 152.086662 485.253499 
L 152.306215 403.134304 
L 152.525769 451.933633 
L 152.745322 342.378846 
L 152.964875 514.136694 
L 153.184428 396.481955 
L 153.403981 413.497877 
L 153.623534 392.463226 
L 153.843087 521.842403 
L 154.062641 493.97875 
L 154.282194 168.228679 
L 154.501747 517.404026 
L 154.7213 495.650346 
L 155.160406 531.816524 
L 155.37996 391.510451 
L 155.599513 471.467679 
L 155.819066 470.546642 
L 156.038619 449.887456 
L 156.258172 477.313079 
L 156.477725 415.72476 
L 156.697278 409.578158 
L 157.136385 475.912777 
L 157.575491 444.592536 
L 157.795044 414.918083 
L 158.014597 445.714731 
L 158.234151 451.987788 
L 158.673257 491.162616 
L 159.112363 393.382142 
L 159.331916 308.638674 
L 159.551469 429.667364 
L 159.771023 370.843422 
L 159.990576 476.829219 
L 160.210129 484.806269 
L 160.429682 449.488142 
L 160.649235 516.990554 
L 160.868788 474.610429 
L 161.088342 498.128244 
L 161.307895 505.249312 
L 161.527448 438.060023 
L 161.747001 432.081917 
L 161.966554 481.431338 
L 162.186107 450.428831 
L 162.40566 503.834409 
L 162.625214 404.45836 
L 163.06432 477.455207 
L 163.283873 461.650386 
L 163.503426 544.570661 
L 163.722979 388.292975 
L 164.162086 526.078014 
L 164.381639 527.418505 
L 164.601192 458.441197 
L 164.820745 430.154815 
L 165.040298 433.252975 
L 165.259851 397.967115 
L 165.479405 417.277708 
L 165.698958 422.253234 
L 165.918511 320.487212 
L 166.138064 383.117547 
L 166.357617 378.054128 
L 166.57717 398.115018 
L 166.796723 437.970987 
L 167.016277 506.928639 
L 167.23583 361.596264 
L 167.455383 394.608913 
L 167.674936 477.599591 
L 167.894489 437.446145 
L 168.114042 514.005299 
L 168.553149 315.656706 
L 168.772702 317.19626 
L 168.992255 491.046683 
L 169.211808 364.230132 
L 169.431361 457.44914 
L 169.650914 465.065124 
L 169.870468 444.185916 
L 170.090021 448.692927 
L 170.309574 448.38087 
L 170.529127 457.615926 
L 170.968233 508.995857 
L 171.187787 451.233362 
L 171.40734 465.394658 
L 171.626893 503.292994 
L 171.846446 364.098783 
L 172.065999 438.785971 
L 172.285552 419.566754 
L 172.505105 462.723722 
L 172.724659 397.67079 
L 172.944212 460.498977 
L 173.163765 297.123156 
L 173.383318 420.885729 
L 173.602871 464.457459 
L 173.822424 435.620033 
L 174.041978 432.372171 
L 174.261531 400.036819 
L 174.481084 436.526139 
L 174.700637 448.308767 
L 174.92019 352.909468 
L 175.139743 380.917138 
L 175.359296 461.356695 
L 175.57885 411.893734 
L 175.798403 415.349262 
L 176.017956 473.477845 
L 176.237509 397.042756 
L 176.457062 506.809958 
L 176.676615 370.24756 
L 176.896169 427.287733 
L 177.115722 377.308682 
L 177.335275 175.405322 
L 177.554828 418.270006 
L 177.774381 379.203028 
L 177.993934 272.177084 
L 178.213487 439.412654 
L 178.433041 472.729907 
L 178.652594 468.994265 
L 178.872147 448.353809 
L 179.0917 531.254881 
L 179.311253 493.014391 
L 179.530806 342.291419 
L 179.75036 476.951434 
L 179.969913 471.647023 
L 180.189466 413.768313 
L 180.409019 404.666849 
L 180.628572 380.078726 
L 180.848125 312.385067 
L 181.067678 426.695354 
L 181.287232 400.771861 
L 181.506785 488.37401 
L 181.726338 346.130379 
L 181.945891 437.724624 
L 182.165444 477.375682 
L 182.604551 332.644754 
L 182.824104 466.840683 
L 183.043657 383.742791 
L 183.26321 397.258622 
L 183.482763 497.797071 
L 183.702316 401.25491 
L 183.921869 459.412693 
L 184.141423 432.61492 
L 184.360976 535.404659 
L 184.580529 371.020362 
L 184.800082 383.929279 
L 185.019635 485.452193 
L 185.239188 438.745714 
L 185.458742 320.741569 
L 185.678295 361.369546 
L 185.897848 380.679134 
L 186.117401 371.869189 
L 186.336954 512.67562 
L 186.556507 372.195951 
L 186.77606 454.419967 
L 187.215167 361.957307 
L 187.654273 499.536665 
L 187.873826 334.420679 
L 188.093379 535.81988 
L 188.312932 423.317343 
L 188.532486 461.750663 
L 188.752039 373.035983 
L 188.971592 466.080474 
L 189.191145 359.986747 
L 189.410698 418.20445 
L 189.630251 381.09934 
L 189.849805 441.742129 
L 190.069358 458.411686 
L 190.288911 421.922297 
L 190.508464 443.691674 
L 190.728017 447.752024 
L 190.94757 378.694121 
L 191.167123 491.779096 
L 191.386677 458.189313 
L 191.60623 544.387044 
L 191.825783 509.170571 
L 192.045336 255.741067 
L 192.264889 470.011569 
L 192.484442 506.5115 
L 192.703996 423.380733 
L 192.923549 442.267087 
L 193.143102 517.397212 
L 193.362655 505.972909 
L 193.582208 308.274555 
L 193.801761 500.569932 
L 194.021314 496.138648 
L 194.240868 482.632352 
L 194.460421 507.048581 
L 194.679974 469.397284 
L 194.899527 377.924636 
L 195.338633 448.970216 
L 195.558187 421.473673 
L 195.77774 514.132561 
L 195.997293 427.188189 
L 196.216846 481.772482 
L 196.655952 442.969527 
L 196.875505 314.451129 
L 197.095059 475.260062 
L 197.314612 456.324977 
L 197.534165 484.738692 
L 197.753718 486.020785 
L 197.973271 488.039201 
L 198.192824 428.240243 
L 198.412378 483.164668 
L 198.631931 473.214611 
L 198.851484 477.426354 
L 199.071037 380.837416 
L 199.29059 415.743005 
L 199.510143 518.485118 
L 200.168803 375.564775 
L 200.388356 431.39926 
L 200.607909 449.093719 
L 200.827462 434.402263 
L 201.047015 545.973787 
L 201.266569 496.365491 
L 201.486122 346.248226 
L 201.705675 348.778793 
L 201.925228 413.061449 
L 202.144781 285.61818 
L 202.364334 368.713642 
L 202.583887 495.890785 
L 202.803441 531.153514 
L 203.022994 426.107798 
L 203.4621 534.474399 
L 203.901206 499.16995 
L 204.12076 422.462732 
L 204.340313 394.829165 
L 204.559866 424.466746 
L 204.998972 501.694504 
L 205.218525 420.664234 
L 205.438078 394.390584 
L 205.657632 330.169315 
L 206.096738 499.29782 
L 206.316291 354.253223 
L 206.535844 435.178587 
L 206.755397 393.948554 
L 206.974951 457.156993 
L 207.194504 179.804871 
L 207.414057 529.317738 
L 207.63361 440.088445 
L 207.853163 448.448308 
L 208.072716 533.080256 
L 208.511823 357.295389 
L 208.731376 476.538677 
L 208.950929 429.342246 
L 209.170482 526.301154 
L 209.390035 459.184538 
L 209.609588 448.119058 
L 209.829142 326.624095 
L 210.048695 443.249475 
L 210.268248 475.549398 
L 210.487801 461.535285 
L 210.707354 411.241802 
L 210.926907 443.082081 
L 211.14646 413.105553 
L 211.366014 451.257895 
L 211.585567 387.647509 
L 211.80512 432.846788 
L 212.024673 321.516471 
L 212.244226 470.838517 
L 212.683333 527.401805 
L 212.902886 427.10247 
L 213.341992 464.800319 
L 213.561545 360.791294 
L 213.781098 426.784376 
L 214.000651 437.792743 
L 214.220205 436.401122 
L 214.439758 556.499694 
L 214.659311 310.348644 
L 215.098417 438.191863 
L 215.31797 212.119465 
L 215.757077 480.724526 
L 215.97663 494.74631 
L 216.196183 435.136861 
L 216.415736 485.921543 
L 216.635289 450.847559 
L 216.854842 538.521003 
L 217.074396 513.221275 
L 217.513502 414.14637 
L 217.733055 465.305835 
L 217.952608 358.332722 
L 218.172161 453.191681 
L 218.391714 385.398623 
L 218.830821 530.274914 
L 219.050374 506.677642 
L 219.269927 438.711443 
L 219.48948 284.850484 
L 219.709033 460.485223 
L 219.928587 425.307928 
L 220.14814 464.844655 
L 220.367693 418.624954 
L 220.587246 410.069088 
L 220.806799 411.165908 
L 221.026352 472.64556 
L 221.245905 470.92448 
L 221.685012 520.290869 
L 221.904565 360.191009 
L 222.343671 557.651981 
L 222.563224 341.493187 
L 222.782778 521.716675 
L 223.002331 514.936461 
L 223.221884 373.003439 
L 223.441437 513.94809 
L 223.66099 461.352725 
L 223.880543 556.309201 
L 224.100096 480.948805 
L 224.31965 570.845803 
L 224.758756 399.122644 
L 224.978309 501.004018 
L 225.197862 487.171939 
L 225.636969 508.275508 
L 225.856522 388.11009 
L 226.076075 390.135131 
L 226.295628 497.150758 
L 226.515181 498.555503 
L 226.734734 429.320476 
L 226.954287 438.86097 
L 227.173841 411.105918 
L 227.393394 440.961827 
L 227.612947 393.093267 
L 227.8325 392.21353 
L 228.052053 481.365486 
L 228.271606 442.720172 
L 228.49116 476.381446 
L 228.710713 478.818866 
L 228.930266 355.351498 
L 229.149819 392.340398 
L 229.369372 404.08746 
L 229.588925 374.85893 
L 229.808478 323.774477 
L 230.028032 516.50053 
L 230.247585 454.802156 
L 230.467138 343.222898 
L 230.686691 441.613085 
L 230.906244 361.697754 
L 231.125797 369.212325 
L 231.345351 549.645638 
L 232.223563 378.137376 
L 232.443116 551.799216 
L 232.662669 432.716218 
L 233.101776 460.010816 
L 233.321329 499.967236 
L 233.540882 407.890399 
L 233.760435 473.894937 
L 233.979988 414.208494 
L 234.199542 453.493571 
L 234.419095 328.441683 
L 234.638648 488.528482 
L 234.858201 494.786973 
L 235.077754 403.937278 
L 235.297307 457.503637 
L 235.51686 302.954055 
L 235.736414 431.359615 
L 235.955967 366.234866 
L 236.17552 492.375404 
L 236.395073 499.633778 
L 236.614626 441.347392 
L 236.834179 502.155787 
L 237.053733 357.246687 
L 237.273286 389.814262 
L 237.492839 507.201899 
L 237.712392 486.253477 
L 238.151498 364.550907 
L 238.371051 391.959533 
L 238.590605 355.411962 
L 238.810158 500.584089 
L 239.029711 346.582045 
L 239.468817 527.387371 
L 239.68837 508.735396 
L 239.907924 534.268241 
L 240.127477 536.163696 
L 240.566583 288.270132 
L 240.786136 372.047988 
L 241.005689 389.54061 
L 241.225242 491.549219 
L 241.444796 421.002514 
L 241.664349 499.819595 
L 241.883902 496.81647 
L 242.103455 334.165817 
L 242.323008 517.147965 
L 242.542561 539.337546 
L 242.762114 508.966774 
L 242.981668 506.425744 
L 243.201221 305.801282 
L 243.420774 404.203366 
L 243.640327 393.301081 
L 243.85988 498.334139 
L 244.079433 433.47529 
L 244.298987 313.865184 
L 244.51854 382.220737 
L 244.738093 392.799966 
L 244.957646 412.45354 
L 245.177199 361.595134 
L 245.396752 457.127968 
L 245.616305 450.23952 
L 245.835859 415.450421 
L 246.055412 505.226682 
L 246.274965 545.469458 
L 246.714071 422.070571 
L 246.933624 441.44959 
L 247.153178 404.998098 
L 247.592284 484.938582 
L 247.811837 515.473174 
L 248.03139 317.587823 
L 248.470496 473.000469 
L 248.69005 459.58188 
L 248.909603 475.438722 
L 249.129156 480.779673 
L 249.348709 474.284878 
L 249.787815 511.326144 
L 250.007369 475.462011 
L 250.226922 469.799656 
L 250.446475 358.276454 
L 250.666028 519.910008 
L 250.885581 491.910304 
L 251.105134 482.488507 
L 251.324687 418.469784 
L 251.544241 425.992585 
L 251.763794 458.488345 
L 251.983347 371.756712 
L 252.2029 381.814125 
L 252.422453 370.130331 
L 252.642006 474.505704 
L 252.86156 449.574721 
L 253.081113 466.229015 
L 253.520219 408.347049 
L 253.739772 418.601681 
L 253.959325 452.397152 
L 254.178878 459.381632 
L 254.398432 510.087302 
L 254.617985 400.209579 
L 254.837538 414.847146 
L 255.057091 448.625536 
L 255.276644 457.338429 
L 255.496197 547.163366 
L 255.715751 393.208855 
L 255.935304 480.652532 
L 256.154857 473.495163 
L 256.37441 508.420428 
L 256.593963 465.79956 
L 256.813516 497.393765 
L 257.033069 445.462415 
L 257.252623 456.468029 
L 257.472176 400.437336 
L 257.911282 467.82675 
L 258.130835 407.550154 
L 258.350388 466.980511 
L 258.569942 433.433117 
L 259.009048 328.156008 
L 259.228601 491.177445 
L 259.448154 372.704643 
L 259.667707 509.268202 
L 259.88726 380.142922 
L 260.106814 451.211228 
L 260.326367 484.055028 
L 260.54592 449.340414 
L 260.765473 486.05616 
L 260.985026 417.482519 
L 261.204579 477.835316 
L 261.643686 321.816157 
L 261.863239 465.548813 
L 262.082792 493.161006 
L 262.302345 401.769889 
L 262.521898 468.899799 
L 262.741451 465.751997 
L 262.961005 422.672694 
L 263.180558 317.425579 
L 263.619664 442.167831 
L 263.839217 471.784895 
L 264.05877 452.518559 
L 264.278324 455.322827 
L 264.497877 483.606052 
L 264.71743 356.159967 
L 264.936983 477.059893 
L 265.156536 469.220775 
L 265.376089 495.187969 
L 265.595642 427.229588 
L 265.815196 540.18915 
L 266.034749 420.2382 
L 266.254302 392.381874 
L 266.473855 438.963472 
L 266.693408 342.041388 
L 267.132514 518.203409 
L 267.352068 359.488971 
L 267.571621 465.614863 
L 267.791174 365.290112 
L 268.010727 434.49258 
L 268.23028 386.220432 
L 268.449833 383.745076 
L 268.669387 517.134507 
L 269.108493 328.283099 
L 269.328046 365.12589 
L 269.767152 524.783455 
L 270.206259 377.921133 
L 270.425812 432.45383 
L 270.645365 434.948745 
L 270.864918 428.316901 
L 271.084471 410.515964 
L 271.304024 406.555264 
L 271.523578 354.399747 
L 271.743131 360.648883 
L 271.962684 445.584682 
L 272.182237 456.37179 
L 272.40179 527.562295 
L 272.840896 338.876788 
L 273.06045 480.495494 
L 273.280003 411.501939 
L 273.499556 382.275021 
L 273.719109 410.837797 
L 273.938662 467.744223 
L 274.158215 434.161806 
L 274.377769 462.015023 
L 274.597322 466.043576 
L 274.816875 575.612089 
L 275.036428 483.193666 
L 275.255981 525.301342 
L 275.475534 505.940097 
L 275.695087 441.882953 
L 275.914641 502.497113 
L 276.353747 414.999881 
L 276.5733 477.655235 
L 276.792853 399.449225 
L 277.012406 388.634947 
L 277.451513 493.583887 
L 277.671066 319.137601 
L 278.110172 474.634536 
L 278.329725 444.861505 
L 278.549278 452.499945 
L 278.768832 448.370688 
L 278.988385 480.440502 
L 279.207938 428.554787 
L 279.427491 467.590592 
L 279.647044 468.421043 
L 279.866597 493.737858 
L 280.086151 459.066413 
L 280.305704 499.402438 
L 280.525257 407.370872 
L 280.74481 267.19034 
L 280.964363 269.904096 
L 281.183916 428.286146 
L 281.403469 490.412595 
L 281.623023 469.397879 
L 282.062129 324.262074 
L 282.501235 498.597625 
L 282.720788 431.33393 
L 282.940342 427.917666 
L 283.159895 461.280299 
L 283.379448 444.053613 
L 283.599001 437.269467 
L 283.818554 450.181818 
L 284.038107 521.785304 
L 284.25766 449.752065 
L 284.477214 426.91556 
L 284.91632 548.490315 
L 285.135873 451.975395 
L 285.355426 254.374176 
L 285.574979 385.543673 
L 286.014086 472.95821 
L 286.233639 373.290611 
L 286.453192 406.276479 
L 286.672745 523.435301 
L 286.892298 420.29456 
L 287.111851 484.884391 
L 287.331405 430.989439 
L 287.550958 429.075753 
L 287.770511 454.224048 
L 287.990064 518.239376 
L 288.42917 405.611345 
L 288.648724 445.220309 
L 289.307383 460.435967 
L 289.526936 438.818841 
L 289.746489 446.753087 
L 289.966042 440.528761 
L 290.185596 441.674506 
L 290.405149 408.295425 
L 290.624702 514.248546 
L 290.844255 388.596451 
L 291.063808 435.661466 
L 291.283361 427.50698 
L 291.502915 449.907846 
L 291.722468 270.294382 
L 291.942021 434.763954 
L 292.161574 367.359796 
L 292.381127 337.521907 
L 292.60068 426.466803 
L 292.820233 414.202293 
L 293.039787 382.169174 
L 293.25934 478.648768 
L 293.478893 455.12684 
L 293.698446 466.866165 
L 293.917999 461.148594 
L 294.137552 417.554678 
L 294.357105 493.581645 
L 294.576659 415.048878 
L 294.796212 464.543809 
L 295.015765 416.315386 
L 295.235318 528.038881 
L 295.454871 575.355665 
L 295.674424 433.069068 
L 295.893978 527.916856 
L 296.113531 471.611063 
L 296.333084 479.069418 
L 296.552637 551.777635 
L 296.991743 458.020921 
L 297.211296 507.769206 
L 297.43085 515.515191 
L 297.650403 490.541235 
L 297.869956 509.085357 
L 298.089509 499.52978 
L 298.309062 442.694062 
L 298.528615 464.860135 
L 298.748169 320.969533 
L 298.967722 443.980424 
L 299.406828 372.2006 
L 299.845934 501.476271 
L 300.065487 404.308395 
L 300.285041 502.79943 
L 300.504594 497.718321 
L 300.724147 424.447766 
L 300.9437 467.144131 
L 301.163253 252.427851 
L 301.382806 418.329023 
L 301.60236 385.321456 
L 301.821913 495.281887 
L 302.041466 497.161174 
L 302.261019 417.639294 
L 302.480572 470.405677 
L 302.700125 454.497678 
L 302.919678 464.952101 
L 303.139232 503.939843 
L 303.358785 503.694056 
L 303.578338 402.982332 
L 303.797891 496.566967 
L 304.017444 510.249538 
L 304.236997 488.276412 
L 304.456551 535.055465 
L 304.895657 485.036445 
L 305.11521 429.152797 
L 305.554316 528.847647 
L 305.773869 497.239874 
L 305.993423 506.591032 
L 306.212976 340.363507 
L 306.432529 452.998682 
L 306.652082 488.421088 
L 306.871635 475.153396 
L 307.091188 493.371116 
L 307.310742 450.665357 
L 307.530295 377.52306 
L 307.749848 416.456027 
L 307.969401 506.198668 
L 308.408507 410.507035 
L 308.62806 355.183505 
L 309.067167 454.284944 
L 309.28672 487.377991 
L 309.506273 453.820078 
L 309.725826 486.32486 
L 309.945379 472.448434 
L 310.164933 437.740358 
L 310.384486 497.93483 
L 310.604039 415.496794 
L 310.823592 461.465849 
L 311.043145 435.851535 
L 311.262698 423.790455 
L 311.482251 425.04285 
L 311.701805 460.576547 
L 311.921358 550.684509 
L 312.140911 482.978959 
L 312.580017 446.049463 
L 312.79957 444.910986 
L 313.019124 470.572743 
L 313.238677 443.561344 
L 313.45823 507.34495 
L 313.677783 462.883902 
L 313.897336 522.683013 
L 314.116889 386.404374 
L 314.336442 532.523183 
L 314.555996 387.824201 
L 314.775549 420.587674 
L 314.995102 412.812442 
L 315.214655 501.847781 
L 315.434208 493.198449 
L 315.653761 480.068758 
L 315.873315 385.897213 
L 316.092868 414.437477 
L 316.312421 391.03987 
L 316.751527 500.904868 
L 316.97108 361.816064 
L 317.410187 466.8249 
L 317.62974 477.550346 
L 317.849293 451.603987 
L 318.068846 347.696082 
L 318.288399 342.301588 
L 318.507952 375.143762 
L 318.727506 384.254141 
L 318.947059 469.660396 
L 319.166612 504.315558 
L 319.386165 424.148878 
L 319.605718 417.609026 
L 319.825271 424.818608 
L 320.044824 370.583564 
L 320.483931 496.480452 
L 320.703484 434.910821 
L 320.923037 490.919379 
L 321.14259 468.042682 
L 321.362143 573.377886 
L 321.581696 358.524361 
L 321.80125 426.954081 
L 322.240356 462.782603 
L 322.459909 543.554858 
L 322.679462 363.495193 
L 322.899015 321.90307 
L 323.118569 524.545194 
L 323.338122 412.228933 
L 323.557675 446.229586 
L 323.777228 403.521107 
L 324.435887 478.984681 
L 324.655441 340.180346 
L 324.874994 506.208074 
L 325.094547 409.40313 
L 325.3141 516.038149 
L 325.97276 310.962524 
L 326.411866 492.32364 
L 326.631419 507.698314 
L 326.850972 412.236864 
L 327.290078 548.716826 
L 327.509632 449.616223 
L 327.729185 463.841739 
L 327.948738 371.093794 
L 328.168291 541.663553 
L 328.387844 481.910167 
L 328.607397 527.817363 
L 329.046504 386.178422 
L 329.266057 542.018509 
L 329.48561 359.786681 
L 329.705163 468.412317 
L 329.924716 389.986012 
L 330.144269 456.278354 
L 330.363823 376.71729 
L 330.583376 376.052393 
L 330.802929 468.206524 
L 331.022482 511.693199 
L 331.242035 427.791725 
L 331.461588 450.378168 
L 331.681142 455.664884 
L 331.900695 450.912038 
L 332.120248 485.721933 
L 332.559354 418.198706 
L 332.778907 468.529964 
L 332.99846 360.777109 
L 333.218014 437.799232 
L 333.437567 270.428403 
L 333.65712 480.942096 
L 333.876673 378.814766 
L 334.096226 466.395097 
L 334.315779 459.001014 
L 334.535333 378.273984 
L 334.754886 405.871519 
L 334.974439 412.819924 
L 335.193992 394.6414 
L 335.852651 469.116831 
L 336.072205 507.412764 
L 336.511311 409.574837 
L 336.730864 318.033962 
L 336.950417 364.626596 
L 337.16997 461.640825 
L 337.389524 480.280831 
L 337.609077 422.687037 
L 337.82863 500.221878 
L 338.048183 422.284979 
L 338.267736 478.830477 
L 338.487289 446.446294 
L 338.926396 537.34229 
L 339.145949 530.077634 
L 339.365502 427.119855 
L 339.585055 465.518125 
L 339.804608 475.308469 
L 340.024161 476.232141 
L 340.463268 415.389119 
L 340.682821 453.060696 
L 340.902374 417.629089 
L 341.121927 402.054178 
L 341.34148 305.138647 
L 341.561033 489.941286 
L 341.780587 394.868758 
L 342.00014 515.818507 
L 342.219693 429.826281 
L 342.439246 460.266432 
L 342.658799 395.480683 
L 342.878352 514.145133 
L 343.097906 500.015155 
L 343.317459 435.606498 
L 343.537012 405.553422 
L 343.756565 399.679875 
L 343.976118 421.896373 
L 344.195671 405.187209 
L 344.415224 341.497444 
L 344.634778 430.040345 
L 344.854331 391.597574 
L 345.073884 381.223828 
L 345.293437 517.816898 
L 345.51299 490.575856 
L 345.732543 483.604271 
L 345.952096 438.146293 
L 346.17165 449.390741 
L 346.391203 450.653659 
L 346.610756 406.860709 
L 346.830309 454.44489 
L 347.049862 470.569658 
L 347.269415 416.488956 
L 347.488969 469.132879 
L 347.708522 481.299814 
L 347.928075 391.079581 
L 348.147628 393.652933 
L 348.367181 481.450323 
L 348.586734 498.18409 
L 348.806287 438.604351 
L 349.025841 498.371152 
L 349.245394 483.187003 
L 349.6845 392.952091 
L 349.904053 423.403297 
L 350.123606 504.15805 
L 350.34316 380.459029 
L 350.562713 385.638604 
L 351.001819 534.403933 
L 351.221372 431.129695 
L 351.440925 510.755787 
L 351.660478 429.530092 
L 351.880032 499.829213 
L 352.099585 465.586888 
L 352.319138 454.812797 
L 352.538691 502.83498 
L 352.758244 487.389458 
L 352.977797 430.274362 
L 353.197351 406.563622 
L 353.416904 396.501445 
L 353.636457 462.241135 
L 353.85601 490.517261 
L 354.075563 478.869058 
L 354.295116 488.566625 
L 354.514669 409.904398 
L 354.734223 539.555341 
L 355.173329 418.879684 
L 355.392882 509.035686 
L 355.612435 449.51243 
L 355.831988 460.627489 
L 356.051542 429.417227 
L 356.271095 441.383213 
L 356.490648 317.433813 
L 356.710201 485.294482 
L 356.929754 448.730754 
L 357.149307 356.309064 
L 357.36886 368.614298 
L 357.588414 371.787128 
L 357.807967 434.774326 
L 358.02752 398.455293 
L 358.247073 449.322282 
L 358.466626 447.955947 
L 358.686179 386.731332 
L 358.905733 473.265047 
L 359.125286 436.348092 
L 359.344839 437.207149 
L 359.564392 330.350071 
L 359.783945 490.648252 
L 360.003498 366.136321 
L 360.223051 449.907692 
L 360.442605 374.941474 
L 360.662158 493.691059 
L 360.881711 145.224646 
L 361.101264 438.210756 
L 361.320817 373.238391 
L 361.54037 501.836305 
L 361.759924 462.745543 
L 361.979477 451.492223 
L 362.19903 340.051585 
L 362.418583 426.13325 
L 362.638136 459.14492 
L 362.857689 460.950412 
L 363.077242 312.980879 
L 363.296796 477.729843 
L 363.735902 459.272753 
L 363.955455 494.567308 
L 364.175008 388.146217 
L 364.394561 497.977979 
L 364.614115 403.995984 
L 364.833668 392.563231 
L 365.053221 410.223789 
L 365.272774 490.592325 
L 365.492327 477.443408 
L 365.71188 418.406172 
L 366.150987 534.345544 
L 366.37054 422.031952 
L 366.590093 483.16035 
L 366.809646 358.978893 
L 367.029199 355.912331 
L 367.248752 533.118132 
L 367.468306 468.849198 
L 367.687859 472.737039 
L 367.907412 442.927564 
L 368.126965 490.74956 
L 368.566071 428.909731 
L 368.785624 388.278075 
L 369.005178 553.76249 
L 369.224731 493.724473 
L 369.444284 466.290058 
L 369.663837 520.510804 
L 370.322497 357.386363 
L 370.761603 449.8528 
L 370.981156 452.167509 
L 371.200709 442.532021 
L 371.420262 325.529455 
L 371.639815 429.305428 
L 371.859369 424.381643 
L 372.078922 453.240868 
L 372.298475 353.109992 
L 372.518028 513.439888 
L 372.737581 296.312665 
L 372.957134 459.630811 
L 373.176687 361.924813 
L 373.615794 396.400122 
L 373.835347 370.665895 
L 374.0549 399.533963 
L 374.274453 472.107301 
L 374.494006 356.422063 
L 374.71356 390.821143 
L 375.152666 496.34784 
L 375.372219 514.054417 
L 375.591772 493.914151 
L 375.811325 506.742351 
L 376.030878 410.800155 
L 376.250432 497.193848 
L 376.469985 410.549069 
L 376.689538 488.738909 
L 376.909091 400.708672 
L 377.128644 396.452977 
L 377.567751 494.013655 
L 377.787304 460.740291 
L 378.006857 448.278315 
L 378.22641 417.983098 
L 378.445963 278.31296 
L 378.665516 481.344284 
L 378.885069 463.878656 
L 379.104623 436.579551 
L 379.324176 462.642453 
L 379.543729 544.449858 
L 379.763282 517.563471 
L 379.982835 432.5071 
L 380.202388 471.472612 
L 380.421942 474.593622 
L 380.641495 484.691371 
L 380.861048 471.038638 
L 381.080601 364.623701 
L 381.300154 441.813652 
L 381.519707 225.265666 
L 381.73926 452.003648 
L 381.958814 370.399893 
L 382.178367 532.686686 
L 382.39792 445.929471 
L 382.617473 518.355324 
L 382.837026 418.748829 
L 383.056579 442.277526 
L 383.276133 320.90673 
L 383.495686 427.212904 
L 383.715239 428.337459 
L 383.934792 487.145799 
L 384.154345 466.700063 
L 384.373898 485.235566 
L 384.593451 270.804208 
L 384.813005 429.74145 
L 385.032558 401.3759 
L 385.252111 513.259887 
L 385.471664 415.015682 
L 385.691217 410.462613 
L 385.91077 420.831194 
L 386.130324 560.135122 
L 386.788983 453.123875 
L 387.008536 531.190652 
L 387.228089 442.430988 
L 387.447642 401.174049 
L 387.667196 454.633633 
L 387.886749 461.303953 
L 388.106302 422.249775 
L 388.325855 464.289338 
L 388.545408 541.065157 
L 388.764961 371.241779 
L 388.984515 333.124623 
L 389.423621 526.743038 
L 389.643174 472.904773 
L 389.862727 485.305237 
L 390.08228 467.59015 
L 390.301833 550.963968 
L 390.521387 508.323575 
L 390.74094 256.968028 
L 390.960493 424.783101 
L 391.180046 467.441575 
L 391.399599 486.896558 
L 391.619152 415.643721 
L 391.838706 483.650268 
L 392.058259 376.936593 
L 392.277812 424.306235 
L 392.497365 419.580177 
L 392.716918 526.567167 
L 392.936471 429.417396 
L 393.156024 442.578902 
L 393.375578 424.713706 
L 393.595131 451.387998 
L 393.814684 433.58447 
L 394.034237 491.8169 
L 394.25379 391.798412 
L 394.692897 510.030152 
L 394.91245 477.067596 
L 395.132003 467.082327 
L 395.351556 479.714269 
L 395.571109 525.788971 
L 395.790662 371.317784 
L 396.010215 443.979859 
L 396.229769 475.595946 
L 396.449322 390.54169 
L 396.668875 463.078682 
L 396.888428 425.156035 
L 397.107981 413.349535 
L 397.327534 473.469259 
L 397.547087 471.830526 
L 397.986194 357.867698 
L 398.4253 481.54502 
L 398.644853 453.839036 
L 398.864406 507.746833 
L 399.08396 514.113945 
L 399.303513 389.731168 
L 399.523066 402.891256 
L 399.742619 484.717547 
L 399.962172 450.838841 
L 400.181725 367.476977 
L 400.401278 505.430244 
L 400.620832 425.053757 
L 400.840385 429.267751 
L 401.059938 379.105087 
L 401.279491 459.501384 
L 401.499044 469.968139 
L 401.718597 526.14525 
L 401.938151 374.489503 
L 402.157704 358.258942 
L 402.377257 515.692559 
L 402.59681 319.954713 
L 402.816363 444.741109 
L 403.035916 406.405927 
L 403.255469 430.921557 
L 403.475023 383.10965 
L 404.133682 555.063827 
L 404.353235 441.730126 
L 404.572788 397.702991 
L 405.011895 478.24743 
L 405.231448 314.225807 
L 405.451001 473.46075 
L 405.670554 418.873279 
L 405.890107 395.196329 
L 406.329214 512.856072 
L 406.548767 494.278984 
L 406.987873 296.864004 
L 407.207426 435.428003 
L 407.426979 473.903325 
L 407.646533 235.598754 
L 407.866086 371.420501 
L 408.085639 425.565141 
L 408.305192 352.26809 
L 408.524745 386.654528 
L 408.744298 448.104979 
L 408.963851 422.185343 
L 409.183405 414.178905 
L 409.402958 562.935418 
L 409.622511 427.947214 
L 409.842064 476.598352 
L 410.061617 439.338085 
L 410.28117 443.888875 
L 410.500724 438.403806 
L 410.720277 495.504854 
L 410.93983 488.016974 
L 411.159383 205.057985 
L 411.378936 487.604765 
L 411.598489 394.618909 
L 411.818042 468.049337 
L 412.037596 388.286407 
L 412.257149 514.929036 
L 412.476702 477.410479 
L 412.696255 406.635069 
L 412.915808 467.093343 
L 413.135361 387.879419 
L 413.354915 424.386919 
L 413.574468 513.752978 
L 413.794021 506.215461 
L 414.013574 461.802404 
L 414.233127 321.08873 
L 414.45268 476.989683 
L 414.672233 465.273163 
L 414.891787 366.168652 
L 415.11134 440.01324 
L 415.330893 461.477105 
L 415.550446 452.977745 
L 415.769999 253.100366 
L 415.989552 428.874322 
L 416.209106 509.637301 
L 416.428659 367.328907 
L 416.648212 518.168369 
L 416.867765 342.371091 
L 417.087318 479.571504 
L 417.306871 509.073416 
L 417.526424 401.464554 
L 417.745978 427.03629 
L 417.965531 397.103155 
L 418.185084 290.705979 
L 418.404637 554.795228 
L 418.62419 462.139566 
L 418.843743 531.99007 
L 419.063297 359.772866 
L 419.28285 318.9301 
L 419.502403 399.881938 
L 420.161062 450.883867 
L 420.380615 538.982986 
L 420.600169 417.417658 
L 420.819722 418.702842 
L 421.039275 426.775592 
L 421.258828 390.542763 
L 421.478381 209.91346 
L 421.697934 131.956182 
L 421.917488 435.465202 
L 422.137041 434.359158 
L 422.356594 341.353233 
L 422.576147 424.494962 
L 422.7957 327.777422 
L 423.234806 534.693537 
L 423.45436 542.243411 
L 423.893466 393.471026 
L 424.113019 440.342175 
L 424.552125 363.297493 
L 424.771678 398.881591 
L 424.991232 525.14495 
L 425.210785 423.328576 
L 425.430338 543.238403 
L 425.649891 508.353532 
L 425.869444 375.969417 
L 426.088997 347.97461 
L 426.308551 545.499165 
L 426.528104 427.393616 
L 426.747657 457.754687 
L 427.406316 379.732285 
L 427.625869 413.47511 
L 427.845423 470.350548 
L 428.064976 401.154978 
L 428.284529 456.687581 
L 428.504082 448.223917 
L 428.723635 390.429675 
L 428.943188 488.918921 
L 429.162742 482.590916 
L 429.382295 436.197348 
L 429.601848 347.843643 
L 429.821401 474.042874 
L 430.040954 360.586412 
L 430.260507 345.174141 
L 430.48006 376.55933 
L 430.699614 494.936357 
L 430.919167 538.805823 
L 431.13872 513.277343 
L 431.577826 428.196963 
L 431.797379 451.01392 
L 432.016933 511.497461 
L 432.236486 447.857834 
L 432.456039 459.809101 
L 432.675592 502.658092 
L 432.895145 459.750525 
L 433.114698 471.075111 
L 433.334251 501.186298 
L 433.773358 399.147953 
L 433.992911 506.620475 
L 434.212464 472.065626 
L 434.432017 364.961171 
L 434.65157 371.157136 
L 434.871124 528.389683 
L 435.090677 432.17268 
L 435.31023 470.068445 
L 435.529783 438.412352 
L 435.749336 460.343397 
L 435.968889 323.832414 
L 436.188442 536.016913 
L 436.407996 515.025219 
L 436.627549 428.788751 
L 437.066655 484.897824 
L 437.286208 475.780479 
L 437.505761 545.118759 
L 437.725315 427.192064 
L 437.944868 375.390189 
L 438.164421 497.965155 
L 438.383974 440.482107 
L 438.603527 500.613011 
L 438.82308 414.183569 
L 439.042633 504.665271 
L 439.262187 435.646803 
L 439.48174 458.193406 
L 439.701293 500.854056 
L 439.920846 356.210061 
L 440.140399 450.966639 
L 440.359952 390.754024 
L 440.579506 401.512033 
L 440.799059 518.883027 
L 441.018612 513.133951 
L 441.238165 435.699339 
L 441.457718 500.411023 
L 441.677271 403.516648 
L 441.896824 484.888979 
L 442.116378 459.645177 
L 442.335931 381.390241 
L 442.555484 480.772575 
L 442.775037 501.357465 
L 442.99459 414.860022 
L 443.214143 432.134303 
L 443.433697 209.263736 
L 443.65325 505.635413 
L 443.872803 496.947746 
L 444.092356 299.73734 
L 444.311909 496.533316 
L 444.531462 456.074237 
L 444.751015 363.762676 
L 444.970569 435.09291 
L 445.190122 468.968417 
L 445.409675 404.990642 
L 445.629228 445.537646 
L 445.848781 463.40838 
L 446.068334 446.862448 
L 446.287888 515.508583 
L 446.507441 471.22215 
L 446.726994 363.069945 
L 446.946547 423.535208 
L 447.1661 449.830825 
L 447.385653 388.310287 
L 447.82476 503.037734 
L 448.044313 492.03162 
L 448.263866 486.822693 
L 448.483419 426.557027 
L 448.702972 481.571469 
L 448.922525 483.245017 
L 449.142079 461.618949 
L 449.581185 515.287491 
L 449.800738 452.05786 
L 450.020291 429.453999 
L 450.239844 510.433828 
L 450.459397 550.378075 
L 450.898504 350.81726 
L 451.118057 477.794548 
L 451.33761 474.051709 
L 451.557163 466.977141 
L 451.776716 581.38839 
L 452.215823 351.83197 
L 452.435376 367.950917 
L 452.654929 507.600544 
L 452.874482 450.106656 
L 453.094035 422.298692 
L 453.313588 440.552883 
L 453.533142 536.812543 
L 453.752695 413.393439 
L 453.972248 499.542173 
L 454.191801 426.140201 
L 454.411354 424.976838 
L 454.85046 370.423813 
L 455.070014 537.45338 
L 455.289567 405.058204 
L 455.50912 429.25945 
L 455.728673 497.227828 
L 455.948226 468.46343 
L 456.167779 401.349233 
L 456.387333 399.574197 
L 456.606886 395.102033 
L 456.826439 405.804024 
L 457.045992 448.384104 
L 457.265545 399.404185 
L 457.485098 510.148762 
L 457.704651 368.322851 
L 457.924205 375.445713 
L 458.143758 534.515971 
L 458.363311 396.389986 
L 458.582864 521.360188 
L 458.802417 445.37129 
L 459.02197 485.331941 
L 459.241524 316.959243 
L 459.68063 487.15828 
L 459.900183 376.251303 
L 460.119736 508.374615 
L 460.558842 402.661377 
L 460.778396 399.216699 
L 460.997949 545.570832 
L 461.217502 331.977132 
L 461.437055 430.480476 
L 461.656608 380.660343 
L 461.876161 432.068658 
L 462.095715 445.292646 
L 462.315268 533.520766 
L 462.534821 419.685922 
L 462.754374 527.751422 
L 463.19348 374.808618 
L 463.413033 410.807152 
L 463.632587 482.200675 
L 463.85214 339.449361 
L 464.071693 455.458033 
L 464.291246 419.636662 
L 464.510799 460.691336 
L 464.730352 394.588999 
L 464.949906 537.207959 
L 465.169459 389.734801 
L 465.389012 401.756799 
L 465.608565 503.950974 
L 465.828118 465.425313 
L 466.047671 381.789808 
L 466.267224 429.01573 
L 466.486778 507.246917 
L 466.706331 451.471918 
L 466.925884 507.589387 
L 467.145437 392.317943 
L 467.36499 468.645408 
L 467.584543 494.721904 
L 467.804097 364.324696 
L 468.02365 458.580083 
L 468.243203 478.11892 
L 468.462756 401.278684 
L 468.682309 482.657461 
L 468.901862 470.857375 
L 469.121415 488.637447 
L 469.340969 258.558757 
L 469.560522 479.473889 
L 469.780075 400.065847 
L 469.999628 418.309187 
L 470.219181 413.656627 
L 470.438734 437.731834 
L 470.658288 367.302485 
L 470.877841 486.68482 
L 471.097394 508.260143 
L 471.316947 390.23446 
L 471.5365 381.416951 
L 471.975606 462.453447 
L 472.19516 483.623813 
L 472.414713 516.020858 
L 472.634266 388.174894 
L 472.853819 491.10522 
L 473.292925 332.177187 
L 473.512479 519.469539 
L 473.732032 452.132599 
L 473.951585 481.094976 
L 474.171138 434.984402 
L 474.390691 441.645095 
L 474.610244 414.843445 
L 474.829797 477.488885 
L 475.049351 281.545784 
L 475.268904 475.995716 
L 475.488457 484.097888 
L 475.70801 474.506084 
L 475.927563 479.947745 
L 476.147116 509.672451 
L 476.586223 434.075685 
L 476.805776 484.714937 
L 477.025329 296.720525 
L 477.244882 468.984464 
L 477.464435 470.16594 
L 477.683988 369.432841 
L 477.903542 350.160209 
L 478.123095 443.652817 
L 478.342648 438.142875 
L 478.562201 469.415967 
L 478.781754 565.754779 
L 479.001307 382.051266 
L 479.22086 294.355833 
L 479.440414 409.926491 
L 479.659967 332.460986 
L 479.87952 460.118182 
L 480.099073 451.784514 
L 480.318626 373.716587 
L 480.538179 490.467749 
L 480.757733 529.1436 
L 480.977286 443.900996 
L 481.196839 514.525695 
L 481.416392 381.993584 
L 481.635945 381.115321 
L 481.855498 453.975575 
L 482.294605 394.332544 
L 482.514158 522.516634 
L 482.733711 308.80972 
L 482.953264 474.837341 
L 483.39237 408.726003 
L 483.611924 455.717287 
L 483.831477 367.583657 
L 484.05103 483.148767 
L 484.270583 303.005423 
L 484.490136 547.181673 
L 484.709689 460.632108 
L 485.148796 426.551591 
L 485.368349 274.550377 
L 485.807455 473.961528 
L 486.027008 472.862002 
L 486.246561 523.081691 
L 486.466115 440.397233 
L 486.905221 495.282868 
L 487.124774 411.672655 
L 487.344327 371.593389 
L 487.56388 371.523933 
L 487.783433 269.633001 
L 488.22254 495.80107 
L 488.442093 415.867124 
L 488.661646 412.879607 
L 488.881199 479.661554 
L 489.100752 422.365734 
L 489.320306 416.125248 
L 489.539859 363.544274 
L 490.198518 530.192679 
L 490.637624 439.870978 
L 490.857178 440.854751 
L 491.296284 382.258696 
L 491.515837 441.484622 
L 491.73539 422.601863 
L 491.954943 414.385816 
L 492.174497 515.596839 
L 492.39405 476.889203 
L 492.613603 490.635209 
L 492.833156 417.782267 
L 493.052709 446.509638 
L 493.272262 489.952095 
L 493.491815 485.077483 
L 493.930922 366.345299 
L 494.150475 403.994236 
L 494.370028 419.752579 
L 494.589581 497.611089 
L 494.809134 429.274051 
L 495.028688 532.18125 
L 495.248241 455.959402 
L 495.467794 491.837961 
L 495.687347 466.755619 
L 495.9069 410.604198 
L 496.126453 543.418548 
L 496.346006 264.897653 
L 496.56556 497.518407 
L 496.785113 276.604615 
L 497.004666 461.921106 
L 497.224219 478.126576 
L 497.663325 416.150249 
L 497.882879 457.156419 
L 498.102432 471.577365 
L 498.321985 293.238049 
L 498.541538 556.074951 
L 498.761091 455.183888 
L 498.980644 444.399932 
L 499.200197 448.459106 
L 499.419751 439.740847 
L 499.639304 412.572034 
L 499.858857 420.706214 
L 500.07841 497.005471 
L 500.297963 485.766131 
L 500.517516 525.390237 
L 500.73707 425.594847 
L 500.956623 425.631076 
L 501.176176 450.679115 
L 501.395729 497.452895 
L 501.615282 480.105713 
L 501.834835 325.970818 
L 502.054388 525.651125 
L 502.273942 499.396669 
L 502.493495 499.961731 
L 502.713048 480.524497 
L 502.932601 471.106022 
L 503.152154 536.960288 
L 503.371707 495.118216 
L 503.59126 484.560239 
L 503.810814 520.565866 
L 504.030367 318.893822 
L 504.24992 470.664635 
L 504.469473 417.324267 
L 504.689026 505.869903 
L 504.908579 467.756176 
L 505.347686 530.517662 
L 505.567239 500.909985 
L 505.786792 521.405323 
L 506.006345 455.473826 
L 506.225898 500.699905 
L 506.445451 472.938132 
L 506.665005 387.364348 
L 506.884558 484.163719 
L 507.104111 458.265216 
L 507.323664 505.951372 
L 507.543217 500.087939 
L 507.76277 502.860686 
L 507.982324 449.916176 
L 508.201877 485.139165 
L 508.42143 494.248994 
L 508.640983 447.555843 
L 508.860536 472.64872 
L 509.299642 410.009016 
L 509.519196 394.46595 
L 509.738749 429.981652 
L 509.958302 514.15009 
L 510.397408 448.420133 
L 510.616961 283.157493 
L 510.836515 517.998317 
L 511.056068 461.362472 
L 511.275621 472.346449 
L 511.495174 499.174351 
L 511.714727 424.833837 
L 511.93428 433.540511 
L 512.153833 385.621166 
L 512.59294 511.321466 
L 512.812493 426.31964 
L 513.032046 433.829287 
L 513.251599 355.417654 
L 513.471152 414.728448 
L 513.690706 417.925124 
L 513.910259 358.657532 
L 514.129812 442.408092 
L 514.349365 429.821519 
L 514.568918 317.86394 
L 514.788471 410.912408 
L 515.008024 410.215816 
L 515.227578 344.39986 
L 515.447131 515.350141 
L 516.10579 376.584479 
L 516.325343 479.339521 
L 516.544897 442.217966 
L 516.76445 459.123289 
L 516.984003 424.036814 
L 517.203556 420.403139 
L 517.423109 430.242979 
L 517.642662 492.484535 
L 518.081769 383.022695 
L 518.301322 429.942247 
L 518.520875 358.015511 
L 518.740428 469.064013 
L 518.959981 516.341941 
L 519.179534 417.302781 
L 519.399088 484.406949 
L 519.618641 475.104705 
L 519.838194 505.929938 
L 520.057747 507.491337 
L 520.2773 503.678867 
L 520.496853 256.255704 
L 520.716406 530.045248 
L 520.93596 426.651829 
L 521.155513 490.693555 
L 521.375066 514.334485 
L 521.594619 420.635313 
L 522.033725 474.960493 
L 522.253279 419.445151 
L 522.472832 489.457458 
L 522.692385 395.255368 
L 522.911938 577.751495 
L 523.131491 513.094567 
L 523.351044 323.697808 
L 523.570597 401.411478 
L 523.790151 412.789141 
L 524.009704 525.003868 
L 524.44881 352.7954 
L 524.668363 437.331202 
L 524.887916 452.450341 
L 525.10747 501.221759 
L 525.327023 432.79001 
L 525.546576 440.630282 
L 525.766129 321.086851 
L 525.985682 526.262975 
L 526.205235 497.672729 
L 526.424788 387.940157 
L 526.644342 399.036617 
L 526.863895 381.811146 
L 527.083448 469.974112 
L 527.303001 508.499526 
L 527.522554 512.682123 
L 527.742107 300.612378 
L 527.96166 428.303879 
L 528.181214 475.109946 
L 528.400767 492.53537 
L 528.839873 466.395344 
L 529.059426 426.373147 
L 529.718086 530.77899 
L 529.937639 544.045359 
L 530.157192 394.293563 
L 530.376745 477.184241 
L 530.596298 503.127525 
L 531.035405 448.867566 
L 531.254958 487.648199 
L 531.474511 448.132507 
L 531.694064 497.04759 
L 531.913617 383.487601 
L 532.13317 452.563665 
L 532.352724 363.46063 
L 532.572277 379.953044 
L 532.79183 438.132609 
L 533.011383 445.019669 
L 533.230936 370.202435 
L 533.450489 521.630377 
L 533.670042 437.398655 
L 533.889596 435.876323 
L 534.109149 388.743091 
L 534.328702 449.367551 
L 534.548255 434.526372 
L 534.767808 480.61949 
L 534.987361 352.675666 
L 535.206915 504.10336 
L 535.426468 416.236709 
L 535.646021 503.233129 
L 535.865574 511.971367 
L 536.085127 527.883031 
L 536.524233 336.664354 
L 536.96334 438.359412 
L 537.182893 434.807522 
L 537.402446 379.606145 
L 537.621999 477.094747 
L 537.841552 476.544377 
L 538.061106 458.157879 
L 538.280659 490.331058 
L 538.500212 540.933027 
L 538.719765 433.553569 
L 538.939318 504.51033 
L 539.158871 394.463037 
L 539.378424 475.861126 
L 539.597978 438.071739 
L 539.817531 427.145329 
L 540.037084 433.837587 
L 540.256637 394.631043 
L 540.47619 501.898861 
L 540.695743 472.613194 
L 540.915297 419.493022 
L 541.13485 461.870041 
L 541.354403 454.516917 
L 541.573956 383.552733 
L 541.793509 466.86164 
L 542.013062 461.068685 
L 542.232615 370.907131 
L 542.452169 402.824127 
L 542.671722 524.882108 
L 542.891275 458.41562 
L 543.110828 428.986281 
L 543.330381 496.215132 
L 543.549934 437.749769 
L 543.769488 546.968511 
L 544.208594 269.62143 
L 544.428147 443.437003 
L 544.867253 393.537711 
L 545.30636 458.802359 
L 545.525913 441.94086 
L 545.745466 470.084644 
L 545.745466 470.084644 
" style="fill:none;stroke:#96c69a;stroke-linecap:round;stroke-width:3;"/>
   </g>
   <g id="line2d_2"/>
   <g id="patch_3">
    <path d="M 84.914375 603.86 
L 84.914375 109.484571 
" style="fill:none;stroke:#262626;stroke-linecap:square;stroke-linejoin:miter;stroke-width:2.5;"/>
   </g>
   <g id="patch_4">
    <path d="M 84.914375 603.86 
L 567.689804 603.86 
" style="fill:none;stroke:#262626;stroke-linecap:square;stroke-linejoin:miter;stroke-width:2.5;"/>
   </g>
   <g id="legend_1">
    <g id="patch_5">
     <path d="M 514.774179 598.86 
L 560.689804 598.86 
Q 562.689804 598.86 562.689804 596.86 
L 562.689804 554.954375 
Q 562.689804 552.954375 560.689804 552.954375 
L 514.774179 552.954375 
Q 512.774179 552.954375 512.774179 554.954375 
L 512.774179 596.86 
Q 512.774179 598.86 514.774179 598.86 
z
" style="fill:#ffffff;opacity:0.8;stroke:#cccccc;stroke-linejoin:miter;stroke-width:2;"/>
    </g>
    <g id="text_17">
     <!-- $n_\tau$ -->
     <g style="fill:#262626;" transform="translate(524.651991 575.190625)scale(0.24 -0.24)">
      <defs>
       <path d="M 3566 2113 
L 3156 0 
L 2578 0 
L 2988 2091 
Q 3016 2238 3031 2350 
Q 3047 2463 3047 2528 
Q 3047 2791 2881 2937 
Q 2716 3084 2419 3084 
Q 1956 3084 1622 2776 
Q 1288 2469 1184 1941 
L 800 0 
L 225 0 
L 903 3500 
L 1478 3500 
L 1363 2950 
Q 1603 3253 1940 3418 
Q 2278 3584 2650 3584 
Q 3113 3584 3367 3334 
Q 3622 3084 3622 2631 
Q 3622 2519 3608 2391 
Q 3594 2263 3566 2113 
z
" id="DejaVuSans-Oblique-6e" transform="scale(0.015625)"/>
       <path d="M 2103 638 
Q 2188 488 2525 488 
L 2800 488 
L 2706 0 
L 2363 0 
Q 1800 0 1600 300 
Q 1403 606 1534 1269 
L 1856 2925 
L 541 2925 
L 653 3500 
L 3881 3500 
L 3769 2925 
L 2444 2925 
L 2113 1234 
Q 2025 781 2103 638 
z
" id="DejaVuSans-Oblique-3c4" transform="scale(0.015625)"/>
      </defs>
      <use xlink:href="#DejaVuSans-Oblique-6e"/>
      <use transform="translate(63.378906 -16.40625)scale(0.7)" xlink:href="#DejaVuSans-Oblique-3c4"/>
     </g>
    </g>
    <g id="line2d_3">
     <path d="M 516.774179 589.280313 
L 536.774179 589.280313 
" style="fill:none;stroke:#96c69a;stroke-linecap:round;stroke-width:3;"/>
    </g>
    <g id="line2d_4"/>
    <g id="text_18">
     <!-- 20 -->
     <g style="fill:#262626;" transform="translate(544.774179 592.780313)scale(0.1 -0.1)">
      <defs>
       <path d="M 1844 884 
L 3897 884 
L 3897 0 
L 506 0 
L 506 884 
L 2209 2388 
Q 2438 2594 2547 2791 
Q 2656 2988 2656 3200 
Q 2656 3528 2436 3728 
Q 2216 3928 1850 3928 
Q 1569 3928 1234 3808 
Q 900 3688 519 3450 
L 519 4475 
Q 925 4609 1322 4679 
Q 1719 4750 2100 4750 
Q 2938 4750 3402 4381 
Q 3866 4013 3866 3353 
Q 3866 2972 3669 2642 
Q 3472 2313 2841 1759 
L 1844 884 
z
" id="DejaVuSans-Bold-32" transform="scale(0.015625)"/>
       <path d="M 2944 2338 
Q 2944 3213 2780 3570 
Q 2616 3928 2228 3928 
Q 1841 3928 1675 3570 
Q 1509 3213 1509 2338 
Q 1509 1453 1675 1090 
Q 1841 728 2228 728 
Q 2613 728 2778 1090 
Q 2944 1453 2944 2338 
z
M 4147 2328 
Q 4147 1169 3647 539 
Q 3147 -91 2228 -91 
Q 1306 -91 806 539 
Q 306 1169 306 2328 
Q 306 3491 806 4120 
Q 1306 4750 2228 4750 
Q 3147 4750 3647 4120 
Q 4147 3491 4147 2328 
z
" id="DejaVuSans-Bold-30" transform="scale(0.015625)"/>
      </defs>
      <use xlink:href="#DejaVuSans-Bold-32"/>
      <use x="69.580078" xlink:href="#DejaVuSans-Bold-30"/>
     </g>
    </g>
   </g>
  </g>
  <g id="axes_2">
   <g id="patch_6">
    <path d="M 84.914375 92.437143 
L 567.689804 92.437143 
L 567.689804 7.2 
L 84.914375 7.2 
z
" style="fill:none;"/>
   </g>
   <g id="matplotlib.axis_3">
    <g id="xtick_7"/>
    <g id="xtick_8"/>
    <g id="xtick_9"/>
    <g id="xtick_10"/>
    <g id="xtick_11"/>
    <g id="xtick_12"/>
   </g>
   <g id="matplotlib.axis_4">
    <g id="ytick_9">
     <g id="text_19">
      <!-- 0 -->
      <g style="fill:#262626;" transform="translate(55.416875 100.795424)scale(0.22 -0.22)">
       <use xlink:href="#DejaVuSans-30"/>
      </g>
     </g>
    </g>
    <g id="ytick_10">
     <g id="text_20">
      <!-- 100 -->
      <g style="fill:#262626;" transform="translate(27.421875 48.082287)scale(0.22 -0.22)">
       <use xlink:href="#DejaVuSans-31"/>
       <use x="63.623047" xlink:href="#DejaVuSans-30"/>
       <use x="127.246094" xlink:href="#DejaVuSans-30"/>
      </g>
     </g>
    </g>
   </g>
   <g id="patch_7">
    <path clip-path="url(#p04e8bb2b4e)" d="M 106.858713 92.437143 
L 140.619232 92.437143 
L 140.619232 11.258912 
L 106.858713 11.258912 
z
" style="fill:#96c69a;fill-opacity:0.5;stroke:#ffffff;stroke-linejoin:miter;stroke-width:2;"/>
   </g>
   <g id="patch_8">
    <path clip-path="url(#p04e8bb2b4e)" d="M 140.619232 92.437143 
L 174.379752 92.437143 
L 174.379752 11.258912 
L 140.619232 11.258912 
z
" style="fill:#96c69a;fill-opacity:0.5;stroke:#ffffff;stroke-linejoin:miter;stroke-width:2;"/>
   </g>
   <g id="patch_9">
    <path clip-path="url(#p04e8bb2b4e)" d="M 174.379752 92.437143 
L 208.140271 92.437143 
L 208.140271 11.258912 
L 174.379752 11.258912 
z
" style="fill:#96c69a;fill-opacity:0.5;stroke:#ffffff;stroke-linejoin:miter;stroke-width:2;"/>
   </g>
   <g id="patch_10">
    <path clip-path="url(#p04e8bb2b4e)" d="M 208.140271 92.437143 
L 241.900791 92.437143 
L 241.900791 11.258912 
L 208.140271 11.258912 
z
" style="fill:#96c69a;fill-opacity:0.5;stroke:#ffffff;stroke-linejoin:miter;stroke-width:2;"/>
   </g>
   <g id="patch_11">
    <path clip-path="url(#p04e8bb2b4e)" d="M 241.900791 92.437143 
L 275.66131 92.437143 
L 275.66131 11.786043 
L 241.900791 11.786043 
z
" style="fill:#96c69a;fill-opacity:0.5;stroke:#ffffff;stroke-linejoin:miter;stroke-width:2;"/>
   </g>
   <g id="patch_12">
    <path clip-path="url(#p04e8bb2b4e)" d="M 275.66131 92.437143 
L 309.42183 92.437143 
L 309.42183 11.258912 
L 275.66131 11.258912 
z
" style="fill:#96c69a;fill-opacity:0.5;stroke:#ffffff;stroke-linejoin:miter;stroke-width:2;"/>
   </g>
   <g id="patch_13">
    <path clip-path="url(#p04e8bb2b4e)" d="M 309.42183 92.437143 
L 343.182349 92.437143 
L 343.182349 11.258912 
L 309.42183 11.258912 
z
" style="fill:#96c69a;fill-opacity:0.5;stroke:#ffffff;stroke-linejoin:miter;stroke-width:2;"/>
   </g>
   <g id="patch_14">
    <path clip-path="url(#p04e8bb2b4e)" d="M 343.182349 92.437143 
L 376.942869 92.437143 
L 376.942869 11.258912 
L 343.182349 11.258912 
z
" style="fill:#96c69a;fill-opacity:0.5;stroke:#ffffff;stroke-linejoin:miter;stroke-width:2;"/>
   </g>
   <g id="patch_15">
    <path clip-path="url(#p04e8bb2b4e)" d="M 376.942869 92.437143 
L 410.703388 92.437143 
L 410.703388 11.786043 
L 376.942869 11.786043 
z
" style="fill:#96c69a;fill-opacity:0.5;stroke:#ffffff;stroke-linejoin:miter;stroke-width:2;"/>
   </g>
   <g id="patch_16">
    <path clip-path="url(#p04e8bb2b4e)" d="M 410.703388 92.437143 
L 444.463907 92.437143 
L 444.463907 11.258912 
L 410.703388 11.258912 
z
" style="fill:#96c69a;fill-opacity:0.5;stroke:#ffffff;stroke-linejoin:miter;stroke-width:2;"/>
   </g>
   <g id="patch_17">
    <path clip-path="url(#p04e8bb2b4e)" d="M 444.463907 92.437143 
L 478.224427 92.437143 
L 478.224427 11.258912 
L 444.463907 11.258912 
z
" style="fill:#96c69a;fill-opacity:0.5;stroke:#ffffff;stroke-linejoin:miter;stroke-width:2;"/>
   </g>
   <g id="patch_18">
    <path clip-path="url(#p04e8bb2b4e)" d="M 478.224427 92.437143 
L 511.984946 92.437143 
L 511.984946 11.258912 
L 478.224427 11.258912 
z
" style="fill:#96c69a;fill-opacity:0.5;stroke:#ffffff;stroke-linejoin:miter;stroke-width:2;"/>
   </g>
   <g id="patch_19">
    <path clip-path="url(#p04e8bb2b4e)" d="M 511.984946 92.437143 
L 545.745466 92.437143 
L 545.745466 11.258912 
L 511.984946 11.258912 
z
" style="fill:#96c69a;fill-opacity:0.5;stroke:#ffffff;stroke-linejoin:miter;stroke-width:2;"/>
   </g>
   <g id="patch_20">
    <path d="M 84.914375 92.437143 
L 84.914375 7.2 
" style="fill:none;stroke:#262626;stroke-linecap:square;stroke-linejoin:miter;stroke-width:2.5;"/>
   </g>
   <g id="patch_21">
    <path d="M 84.914375 92.437143 
L 567.689804 92.437143 
" style="fill:none;stroke:#262626;stroke-linecap:square;stroke-linejoin:miter;stroke-width:2.5;"/>
   </g>
  </g>
  <g id="axes_3">
   <g id="patch_22">
    <path d="M 584.337232 603.86 
L 667.574375 603.86 
L 667.574375 109.484571 
L 584.337232 109.484571 
z
" style="fill:none;"/>
   </g>
   <g id="matplotlib.axis_5">
    <g id="xtick_13">
     <g id="text_21">
      <!-- 0 -->
      <g style="fill:#262626;" transform="translate(577.338482 636.076563)scale(0.22 -0.22)">
       <use xlink:href="#DejaVuSans-30"/>
      </g>
     </g>
    </g>
    <g id="xtick_14">
     <g id="text_22">
      <!-- 100 -->
      <g style="fill:#262626;" transform="translate(608.900447 636.076563)scale(0.22 -0.22)">
       <use xlink:href="#DejaVuSans-31"/>
       <use x="63.623047" xlink:href="#DejaVuSans-30"/>
       <use x="127.246094" xlink:href="#DejaVuSans-30"/>
      </g>
     </g>
    </g>
   </g>
   <g id="matplotlib.axis_6">
    <g id="ytick_11"/>
    <g id="ytick_12"/>
    <g id="ytick_13"/>
    <g id="ytick_14"/>
    <g id="ytick_15"/>
    <g id="ytick_16"/>
    <g id="ytick_17"/>
    <g id="ytick_18"/>
   </g>
   <g id="patch_23">
    <path clip-path="url(#p56f07a6c5b)" d="M 584.337232 581.38839 
L 587.0708 581.38839 
L 587.0708 569.241573 
L 584.337232 569.241573 
z
" style="fill:#96c69a;fill-opacity:0.5;stroke:#ffffff;stroke-linejoin:miter;stroke-width:1.214682;"/>
   </g>
   <g id="patch_24">
    <path clip-path="url(#p56f07a6c5b)" d="M 584.337232 569.241573 
L 586.615205 569.241573 
L 586.615205 557.094757 
L 584.337232 557.094757 
z
" style="fill:#96c69a;fill-opacity:0.5;stroke:#ffffff;stroke-linejoin:miter;stroke-width:1.214682;"/>
   </g>
   <g id="patch_25">
    <path clip-path="url(#p56f07a6c5b)" d="M 584.337232 557.094757 
L 594.360314 557.094757 
L 594.360314 544.94794 
L 584.337232 544.94794 
z
" style="fill:#96c69a;fill-opacity:0.5;stroke:#ffffff;stroke-linejoin:miter;stroke-width:1.214682;"/>
   </g>
   <g id="patch_26">
    <path clip-path="url(#p56f07a6c5b)" d="M 584.337232 544.94794 
L 603.927802 544.94794 
L 603.927802 532.801124 
L 584.337232 532.801124 
z
" style="fill:#96c69a;fill-opacity:0.5;stroke:#ffffff;stroke-linejoin:miter;stroke-width:1.214682;"/>
   </g>
   <g id="patch_27">
    <path clip-path="url(#p56f07a6c5b)" d="M 584.337232 532.801124 
L 611.672911 532.801124 
L 611.672911 520.654307 
L 584.337232 520.654307 
z
" style="fill:#96c69a;fill-opacity:0.5;stroke:#ffffff;stroke-linejoin:miter;stroke-width:1.214682;"/>
   </g>
   <g id="patch_28">
    <path clip-path="url(#p56f07a6c5b)" d="M 584.337232 520.654307 
L 625.796345 520.654307 
L 625.796345 508.507491 
L 584.337232 508.507491 
z
" style="fill:#96c69a;fill-opacity:0.5;stroke:#ffffff;stroke-linejoin:miter;stroke-width:1.214682;"/>
   </g>
   <g id="patch_29">
    <path clip-path="url(#p56f07a6c5b)" d="M 584.337232 508.507491 
L 649.031673 508.507491 
L 649.031673 496.360675 
L 584.337232 496.360675 
z
" style="fill:#96c69a;fill-opacity:0.5;stroke:#ffffff;stroke-linejoin:miter;stroke-width:1.214682;"/>
   </g>
   <g id="patch_30">
    <path clip-path="url(#p56f07a6c5b)" d="M 584.337232 496.360675 
L 644.020132 496.360675 
L 644.020132 484.213858 
L 584.337232 484.213858 
z
" style="fill:#96c69a;fill-opacity:0.5;stroke:#ffffff;stroke-linejoin:miter;stroke-width:1.214682;"/>
   </g>
   <g id="patch_31">
    <path clip-path="url(#p56f07a6c5b)" d="M 584.337232 484.213858 
L 654.498808 484.213858 
L 654.498808 472.067042 
L 584.337232 472.067042 
z
" style="fill:#96c69a;fill-opacity:0.5;stroke:#ffffff;stroke-linejoin:miter;stroke-width:1.214682;"/>
   </g>
   <g id="patch_32">
    <path clip-path="url(#p56f07a6c5b)" d="M 584.337232 472.067042 
L 660.421539 472.067042 
L 660.421539 459.920225 
L 584.337232 459.920225 
z
" style="fill:#96c69a;fill-opacity:0.5;stroke:#ffffff;stroke-linejoin:miter;stroke-width:1.214682;"/>
   </g>
   <g id="patch_33">
    <path clip-path="url(#p56f07a6c5b)" d="M 584.337232 459.920225 
L 663.610702 459.920225 
L 663.610702 447.773409 
L 584.337232 447.773409 
z
" style="fill:#96c69a;fill-opacity:0.5;stroke:#ffffff;stroke-linejoin:miter;stroke-width:1.214682;"/>
   </g>
   <g id="patch_34">
    <path clip-path="url(#p56f07a6c5b)" d="M 584.337232 447.773409 
L 654.498808 447.773409 
L 654.498808 435.626592 
L 584.337232 435.626592 
z
" style="fill:#96c69a;fill-opacity:0.5;stroke:#ffffff;stroke-linejoin:miter;stroke-width:1.214682;"/>
   </g>
   <g id="patch_35">
    <path clip-path="url(#p56f07a6c5b)" d="M 584.337232 435.626592 
L 661.788323 435.626592 
L 661.788323 423.479776 
L 584.337232 423.479776 
z
" style="fill:#96c69a;fill-opacity:0.5;stroke:#ffffff;stroke-linejoin:miter;stroke-width:1.214682;"/>
   </g>
   <g id="patch_36">
    <path clip-path="url(#p56f07a6c5b)" d="M 584.337232 423.479776 
L 644.475726 423.479776 
L 644.475726 411.33296 
L 584.337232 411.33296 
z
" style="fill:#96c69a;fill-opacity:0.5;stroke:#ffffff;stroke-linejoin:miter;stroke-width:1.214682;"/>
   </g>
   <g id="patch_37">
    <path clip-path="url(#p56f07a6c5b)" d="M 584.337232 411.33296 
L 635.363833 411.33296 
L 635.363833 399.186143 
L 584.337232 399.186143 
z
" style="fill:#96c69a;fill-opacity:0.5;stroke:#ffffff;stroke-linejoin:miter;stroke-width:1.214682;"/>
   </g>
   <g id="patch_38">
    <path clip-path="url(#p56f07a6c5b)" d="M 584.337232 399.186143 
L 628.985508 399.186143 
L 628.985508 387.039327 
L 584.337232 387.039327 
z
" style="fill:#96c69a;fill-opacity:0.5;stroke:#ffffff;stroke-linejoin:miter;stroke-width:1.214682;"/>
   </g>
   <g id="patch_39">
    <path clip-path="url(#p56f07a6c5b)" d="M 584.337232 387.039327 
L 622.151588 387.039327 
L 622.151588 374.89251 
L 584.337232 374.89251 
z
" style="fill:#96c69a;fill-opacity:0.5;stroke:#ffffff;stroke-linejoin:miter;stroke-width:1.214682;"/>
   </g>
   <g id="patch_40">
    <path clip-path="url(#p56f07a6c5b)" d="M 584.337232 374.89251 
L 615.317668 374.89251 
L 615.317668 362.745694 
L 584.337232 362.745694 
z
" style="fill:#96c69a;fill-opacity:0.5;stroke:#ffffff;stroke-linejoin:miter;stroke-width:1.214682;"/>
   </g>
   <g id="patch_41">
    <path clip-path="url(#p56f07a6c5b)" d="M 584.337232 362.745694 
L 605.294586 362.745694 
L 605.294586 350.598878 
L 584.337232 350.598878 
z
" style="fill:#96c69a;fill-opacity:0.5;stroke:#ffffff;stroke-linejoin:miter;stroke-width:1.214682;"/>
   </g>
   <g id="patch_42">
    <path clip-path="url(#p56f07a6c5b)" d="M 584.337232 350.598878 
L 598.460666 350.598878 
L 598.460666 338.452061 
L 584.337232 338.452061 
z
" style="fill:#96c69a;fill-opacity:0.5;stroke:#ffffff;stroke-linejoin:miter;stroke-width:1.214682;"/>
   </g>
   <g id="patch_43">
    <path clip-path="url(#p56f07a6c5b)" d="M 584.337232 338.452061 
L 592.993531 338.452061 
L 592.993531 326.305245 
L 584.337232 326.305245 
z
" style="fill:#96c69a;fill-opacity:0.5;stroke:#ffffff;stroke-linejoin:miter;stroke-width:1.214682;"/>
   </g>
   <g id="patch_44">
    <path clip-path="url(#p56f07a6c5b)" d="M 584.337232 326.305245 
L 598.460666 326.305245 
L 598.460666 314.158428 
L 584.337232 314.158428 
z
" style="fill:#96c69a;fill-opacity:0.5;stroke:#ffffff;stroke-linejoin:miter;stroke-width:1.214682;"/>
   </g>
   <g id="patch_45">
    <path clip-path="url(#p56f07a6c5b)" d="M 584.337232 314.158428 
L 590.259963 314.158428 
L 590.259963 302.011612 
L 584.337232 302.011612 
z
" style="fill:#96c69a;fill-opacity:0.5;stroke:#ffffff;stroke-linejoin:miter;stroke-width:1.214682;"/>
   </g>
   <g id="patch_46">
    <path clip-path="url(#p56f07a6c5b)" d="M 584.337232 302.011612 
L 588.893179 302.011612 
L 588.893179 289.864795 
L 584.337232 289.864795 
z
" style="fill:#96c69a;fill-opacity:0.5;stroke:#ffffff;stroke-linejoin:miter;stroke-width:1.214682;"/>
   </g>
   <g id="patch_47">
    <path clip-path="url(#p56f07a6c5b)" d="M 584.337232 289.864795 
L 587.526395 289.864795 
L 587.526395 277.717979 
L 584.337232 277.717979 
z
" style="fill:#96c69a;fill-opacity:0.5;stroke:#ffffff;stroke-linejoin:miter;stroke-width:1.214682;"/>
   </g>
   <g id="patch_48">
    <path clip-path="url(#p56f07a6c5b)" d="M 584.337232 277.717979 
L 589.348773 277.717979 
L 589.348773 265.571163 
L 584.337232 265.571163 
z
" style="fill:#96c69a;fill-opacity:0.5;stroke:#ffffff;stroke-linejoin:miter;stroke-width:1.214682;"/>
   </g>
   <g id="patch_49">
    <path clip-path="url(#p56f07a6c5b)" d="M 584.337232 265.571163 
L 587.0708 265.571163 
L 587.0708 253.424346 
L 584.337232 253.424346 
z
" style="fill:#96c69a;fill-opacity:0.5;stroke:#ffffff;stroke-linejoin:miter;stroke-width:1.214682;"/>
   </g>
   <g id="patch_50">
    <path clip-path="url(#p56f07a6c5b)" d="M 584.337232 253.424346 
L 585.704016 253.424346 
L 585.704016 241.27753 
L 584.337232 241.27753 
z
" style="fill:#96c69a;fill-opacity:0.5;stroke:#ffffff;stroke-linejoin:miter;stroke-width:1.214682;"/>
   </g>
   <g id="patch_51">
    <path clip-path="url(#p56f07a6c5b)" d="M 584.337232 241.27753 
L 584.792827 241.27753 
L 584.792827 229.130713 
L 584.337232 229.130713 
z
" style="fill:#96c69a;fill-opacity:0.5;stroke:#ffffff;stroke-linejoin:miter;stroke-width:1.214682;"/>
   </g>
   <g id="patch_52">
    <path clip-path="url(#p56f07a6c5b)" d="M 584.337232 229.130713 
L 584.792827 229.130713 
L 584.792827 216.983897 
L 584.337232 216.983897 
z
" style="fill:#96c69a;fill-opacity:0.5;stroke:#ffffff;stroke-linejoin:miter;stroke-width:1.214682;"/>
   </g>
   <g id="patch_53">
    <path clip-path="url(#p56f07a6c5b)" d="M 584.337232 216.983897 
L 586.159611 216.983897 
L 586.159611 204.83708 
L 584.337232 204.83708 
z
" style="fill:#96c69a;fill-opacity:0.5;stroke:#ffffff;stroke-linejoin:miter;stroke-width:1.214682;"/>
   </g>
   <g id="patch_54">
    <path clip-path="url(#p56f07a6c5b)" d="M 584.337232 204.83708 
L 584.337232 204.83708 
L 584.337232 192.690264 
L 584.337232 192.690264 
z
" style="fill:#96c69a;fill-opacity:0.5;stroke:#ffffff;stroke-linejoin:miter;stroke-width:1.214682;"/>
   </g>
   <g id="patch_55">
    <path clip-path="url(#p56f07a6c5b)" d="M 584.337232 192.690264 
L 584.337232 192.690264 
L 584.337232 180.543448 
L 584.337232 180.543448 
z
" style="fill:#96c69a;fill-opacity:0.5;stroke:#ffffff;stroke-linejoin:miter;stroke-width:1.214682;"/>
   </g>
   <g id="patch_56">
    <path clip-path="url(#p56f07a6c5b)" d="M 584.337232 180.543448 
L 585.248421 180.543448 
L 585.248421 168.396631 
L 584.337232 168.396631 
z
" style="fill:#96c69a;fill-opacity:0.5;stroke:#ffffff;stroke-linejoin:miter;stroke-width:1.214682;"/>
   </g>
   <g id="patch_57">
    <path clip-path="url(#p56f07a6c5b)" d="M 584.337232 168.396631 
L 584.792827 168.396631 
L 584.792827 156.249815 
L 584.337232 156.249815 
z
" style="fill:#96c69a;fill-opacity:0.5;stroke:#ffffff;stroke-linejoin:miter;stroke-width:1.214682;"/>
   </g>
   <g id="patch_58">
    <path clip-path="url(#p56f07a6c5b)" d="M 584.337232 156.249815 
L 584.792827 156.249815 
L 584.792827 144.102998 
L 584.337232 144.102998 
z
" style="fill:#96c69a;fill-opacity:0.5;stroke:#ffffff;stroke-linejoin:miter;stroke-width:1.214682;"/>
   </g>
   <g id="patch_59">
    <path clip-path="url(#p56f07a6c5b)" d="M 584.337232 144.102998 
L 584.792827 144.102998 
L 584.792827 131.956182 
L 584.337232 131.956182 
z
" style="fill:#96c69a;fill-opacity:0.5;stroke:#ffffff;stroke-linejoin:miter;stroke-width:1.214682;"/>
   </g>
   <g id="patch_60">
    <path d="M 584.337232 603.86 
L 584.337232 109.484571 
" style="fill:none;stroke:#262626;stroke-linecap:square;stroke-linejoin:miter;stroke-width:2.5;"/>
   </g>
   <g id="patch_61">
    <path d="M 584.337232 603.86 
L 667.574375 603.86 
" style="fill:none;stroke:#262626;stroke-linecap:square;stroke-linejoin:miter;stroke-width:2.5;"/>
   </g>
  </g>
 </g>
 <defs>
  <clipPath id="pc05cde8d96">
   <rect height="494.375429" width="482.775429" x="84.914375" y="109.484571"/>
  </clipPath>
  <clipPath id="p04e8bb2b4e">
   <rect height="85.237143" width="482.775429" x="84.914375" y="7.2"/>
  </clipPath>
  <clipPath id="p56f07a6c5b">
   <rect height="494.375429" width="83.237143" x="584.337232" y="109.484571"/>
  </clipPath>
 </defs>
</svg>
