<?xml version="1.0" encoding="utf-8" standalone="no"?>
<!DOCTYPE svg PUBLIC "-//W3C//DTD SVG 1.1//EN"
  "http://www.w3.org/Graphics/SVG/1.1/DTD/svg11.dtd">
<svg height="675.079375pt" version="1.1" viewBox="0 0 688.771875 675.079375" width="688.771875pt" xmlns="http://www.w3.org/2000/svg" xmlns:xlink="http://www.w3.org/1999/xlink">
 <metadata>
  <rdf:RDF xmlns:cc="http://creativecommons.org/ns#" xmlns:dc="http://purl.org/dc/elements/1.1/" xmlns:rdf="http://www.w3.org/1999/02/22-rdf-syntax-ns#">
   <cc:Work>
    <dc:type rdf:resource="http://purl.org/dc/dcmitype/StillImage"/>
    <dc:date>2021-07-16T21:43:51.906010</dc:date>
    <dc:format>image/svg+xml</dc:format>
    <dc:creator>
     <cc:Agent>
      <dc:title>Matplotlib v3.4.2, https://matplotlib.org/</dc:title>
     </cc:Agent>
    </dc:creator>
   </cc:Work>
  </rdf:RDF>
 </metadata>
 <defs>
  <style type="text/css">*{stroke-linecap:butt;stroke-linejoin:round;}</style>
 </defs>
 <g id="figure_1">
  <g id="patch_1">
   <path d="M 0 675.079375 
L 688.771875 675.079375 
L 688.771875 0 
L 0 0 
z
" style="fill:#ffffff;"/>
  </g>
  <g id="axes_1">
   <g id="patch_2">
    <path d="M 98.911875 603.86 
L 581.687304 603.86 
L 581.687304 109.484571 
L 98.911875 109.484571 
z
" style="fill:none;"/>
   </g>
   <g id="matplotlib.axis_1">
    <g id="xtick_1">
     <g id="text_1">
      <!-- 0 -->
      <g style="fill:#262626;" transform="translate(113.63791 636.076563)scale(0.22 -0.22)">
       <defs>
        <path d="M 2034 4250 
Q 1547 4250 1301 3770 
Q 1056 3291 1056 2328 
Q 1056 1369 1301 889 
Q 1547 409 2034 409 
Q 2525 409 2770 889 
Q 3016 1369 3016 2328 
Q 3016 3291 2770 3770 
Q 2525 4250 2034 4250 
z
M 2034 4750 
Q 2819 4750 3233 4129 
Q 3647 3509 3647 2328 
Q 3647 1150 3233 529 
Q 2819 -91 2034 -91 
Q 1250 -91 836 529 
Q 422 1150 422 2328 
Q 422 3509 836 4129 
Q 1250 4750 2034 4750 
z
" id="DejaVuSans-30" transform="scale(0.015625)"/>
       </defs>
       <use xlink:href="#DejaVuSans-30"/>
      </g>
     </g>
    </g>
    <g id="xtick_2">
     <g id="text_2">
      <!-- 20000 -->
      <g style="fill:#262626;" transform="translate(173.464171 636.076563)scale(0.22 -0.22)">
       <defs>
        <path d="M 1228 531 
L 3431 531 
L 3431 0 
L 469 0 
L 469 531 
Q 828 903 1448 1529 
Q 2069 2156 2228 2338 
Q 2531 2678 2651 2914 
Q 2772 3150 2772 3378 
Q 2772 3750 2511 3984 
Q 2250 4219 1831 4219 
Q 1534 4219 1204 4116 
Q 875 4013 500 3803 
L 500 4441 
Q 881 4594 1212 4672 
Q 1544 4750 1819 4750 
Q 2544 4750 2975 4387 
Q 3406 4025 3406 3419 
Q 3406 3131 3298 2873 
Q 3191 2616 2906 2266 
Q 2828 2175 2409 1742 
Q 1991 1309 1228 531 
z
" id="DejaVuSans-32" transform="scale(0.015625)"/>
       </defs>
       <use xlink:href="#DejaVuSans-32"/>
       <use x="63.623047" xlink:href="#DejaVuSans-30"/>
       <use x="127.246094" xlink:href="#DejaVuSans-30"/>
       <use x="190.869141" xlink:href="#DejaVuSans-30"/>
       <use x="254.492188" xlink:href="#DejaVuSans-30"/>
      </g>
     </g>
    </g>
    <g id="xtick_3">
     <g id="text_3">
      <!-- 40000 -->
      <g style="fill:#262626;" transform="translate(261.285432 636.076563)scale(0.22 -0.22)">
       <defs>
        <path d="M 2419 4116 
L 825 1625 
L 2419 1625 
L 2419 4116 
z
M 2253 4666 
L 3047 4666 
L 3047 1625 
L 3713 1625 
L 3713 1100 
L 3047 1100 
L 3047 0 
L 2419 0 
L 2419 1100 
L 313 1100 
L 313 1709 
L 2253 4666 
z
" id="DejaVuSans-34" transform="scale(0.015625)"/>
       </defs>
       <use xlink:href="#DejaVuSans-34"/>
       <use x="63.623047" xlink:href="#DejaVuSans-30"/>
       <use x="127.246094" xlink:href="#DejaVuSans-30"/>
       <use x="190.869141" xlink:href="#DejaVuSans-30"/>
       <use x="254.492188" xlink:href="#DejaVuSans-30"/>
      </g>
     </g>
    </g>
    <g id="xtick_4">
     <g id="text_4">
      <!-- 60000 -->
      <g style="fill:#262626;" transform="translate(349.106693 636.076563)scale(0.22 -0.22)">
       <defs>
        <path d="M 2113 2584 
Q 1688 2584 1439 2293 
Q 1191 2003 1191 1497 
Q 1191 994 1439 701 
Q 1688 409 2113 409 
Q 2538 409 2786 701 
Q 3034 994 3034 1497 
Q 3034 2003 2786 2293 
Q 2538 2584 2113 2584 
z
M 3366 4563 
L 3366 3988 
Q 3128 4100 2886 4159 
Q 2644 4219 2406 4219 
Q 1781 4219 1451 3797 
Q 1122 3375 1075 2522 
Q 1259 2794 1537 2939 
Q 1816 3084 2150 3084 
Q 2853 3084 3261 2657 
Q 3669 2231 3669 1497 
Q 3669 778 3244 343 
Q 2819 -91 2113 -91 
Q 1303 -91 875 529 
Q 447 1150 447 2328 
Q 447 3434 972 4092 
Q 1497 4750 2381 4750 
Q 2619 4750 2861 4703 
Q 3103 4656 3366 4563 
z
" id="DejaVuSans-36" transform="scale(0.015625)"/>
       </defs>
       <use xlink:href="#DejaVuSans-36"/>
       <use x="63.623047" xlink:href="#DejaVuSans-30"/>
       <use x="127.246094" xlink:href="#DejaVuSans-30"/>
       <use x="190.869141" xlink:href="#DejaVuSans-30"/>
       <use x="254.492188" xlink:href="#DejaVuSans-30"/>
      </g>
     </g>
    </g>
    <g id="xtick_5">
     <g id="text_5">
      <!-- 80000 -->
      <g style="fill:#262626;" transform="translate(436.927955 636.076563)scale(0.22 -0.22)">
       <defs>
        <path d="M 2034 2216 
Q 1584 2216 1326 1975 
Q 1069 1734 1069 1313 
Q 1069 891 1326 650 
Q 1584 409 2034 409 
Q 2484 409 2743 651 
Q 3003 894 3003 1313 
Q 3003 1734 2745 1975 
Q 2488 2216 2034 2216 
z
M 1403 2484 
Q 997 2584 770 2862 
Q 544 3141 544 3541 
Q 544 4100 942 4425 
Q 1341 4750 2034 4750 
Q 2731 4750 3128 4425 
Q 3525 4100 3525 3541 
Q 3525 3141 3298 2862 
Q 3072 2584 2669 2484 
Q 3125 2378 3379 2068 
Q 3634 1759 3634 1313 
Q 3634 634 3220 271 
Q 2806 -91 2034 -91 
Q 1263 -91 848 271 
Q 434 634 434 1313 
Q 434 1759 690 2068 
Q 947 2378 1403 2484 
z
M 1172 3481 
Q 1172 3119 1398 2916 
Q 1625 2713 2034 2713 
Q 2441 2713 2670 2916 
Q 2900 3119 2900 3481 
Q 2900 3844 2670 4047 
Q 2441 4250 2034 4250 
Q 1625 4250 1398 4047 
Q 1172 3844 1172 3481 
z
" id="DejaVuSans-38" transform="scale(0.015625)"/>
       </defs>
       <use xlink:href="#DejaVuSans-38"/>
       <use x="63.623047" xlink:href="#DejaVuSans-30"/>
       <use x="127.246094" xlink:href="#DejaVuSans-30"/>
       <use x="190.869141" xlink:href="#DejaVuSans-30"/>
       <use x="254.492188" xlink:href="#DejaVuSans-30"/>
      </g>
     </g>
    </g>
    <g id="xtick_6">
     <g id="text_6">
      <!-- 100000 -->
      <g style="fill:#262626;" transform="translate(517.750466 636.076563)scale(0.22 -0.22)">
       <defs>
        <path d="M 794 531 
L 1825 531 
L 1825 4091 
L 703 3866 
L 703 4441 
L 1819 4666 
L 2450 4666 
L 2450 531 
L 3481 531 
L 3481 0 
L 794 0 
L 794 531 
z
" id="DejaVuSans-31" transform="scale(0.015625)"/>
       </defs>
       <use xlink:href="#DejaVuSans-31"/>
       <use x="63.623047" xlink:href="#DejaVuSans-30"/>
       <use x="127.246094" xlink:href="#DejaVuSans-30"/>
       <use x="190.869141" xlink:href="#DejaVuSans-30"/>
       <use x="254.492188" xlink:href="#DejaVuSans-30"/>
       <use x="318.115234" xlink:href="#DejaVuSans-30"/>
      </g>
     </g>
    </g>
    <g id="text_7">
     <!-- MDTU -->
     <g style="fill:#262626;" transform="translate(304.593964 662.888125)scale(0.24 -0.24)">
      <defs>
       <path d="M 628 4666 
L 1569 4666 
L 2759 1491 
L 3956 4666 
L 4897 4666 
L 4897 0 
L 4281 0 
L 4281 4097 
L 3078 897 
L 2444 897 
L 1241 4097 
L 1241 0 
L 628 0 
L 628 4666 
z
" id="DejaVuSans-4d" transform="scale(0.015625)"/>
       <path d="M 1259 4147 
L 1259 519 
L 2022 519 
Q 2988 519 3436 956 
Q 3884 1394 3884 2338 
Q 3884 3275 3436 3711 
Q 2988 4147 2022 4147 
L 1259 4147 
z
M 628 4666 
L 1925 4666 
Q 3281 4666 3915 4102 
Q 4550 3538 4550 2338 
Q 4550 1131 3912 565 
Q 3275 0 1925 0 
L 628 0 
L 628 4666 
z
" id="DejaVuSans-44" transform="scale(0.015625)"/>
       <path d="M -19 4666 
L 3928 4666 
L 3928 4134 
L 2272 4134 
L 2272 0 
L 1638 0 
L 1638 4134 
L -19 4134 
L -19 4666 
z
" id="DejaVuSans-54" transform="scale(0.015625)"/>
       <path d="M 556 4666 
L 1191 4666 
L 1191 1831 
Q 1191 1081 1462 751 
Q 1734 422 2344 422 
Q 2950 422 3222 751 
Q 3494 1081 3494 1831 
L 3494 4666 
L 4128 4666 
L 4128 1753 
Q 4128 841 3676 375 
Q 3225 -91 2344 -91 
Q 1459 -91 1007 375 
Q 556 841 556 1753 
L 556 4666 
z
" id="DejaVuSans-55" transform="scale(0.015625)"/>
      </defs>
      <use xlink:href="#DejaVuSans-4d"/>
      <use x="86.279297" xlink:href="#DejaVuSans-44"/>
      <use x="163.28125" xlink:href="#DejaVuSans-54"/>
      <use x="224.365234" xlink:href="#DejaVuSans-55"/>
     </g>
    </g>
   </g>
   <g id="matplotlib.axis_2">
    <g id="ytick_1">
     <g id="text_8">
      <!-- 0.25 -->
      <g style="fill:#262626;" transform="translate(34.4275 580.256832)scale(0.22 -0.22)">
       <defs>
        <path d="M 684 794 
L 1344 794 
L 1344 0 
L 684 0 
L 684 794 
z
" id="DejaVuSans-2e" transform="scale(0.015625)"/>
        <path d="M 691 4666 
L 3169 4666 
L 3169 4134 
L 1269 4134 
L 1269 2991 
Q 1406 3038 1543 3061 
Q 1681 3084 1819 3084 
Q 2600 3084 3056 2656 
Q 3513 2228 3513 1497 
Q 3513 744 3044 326 
Q 2575 -91 1722 -91 
Q 1428 -91 1123 -41 
Q 819 9 494 109 
L 494 744 
Q 775 591 1075 516 
Q 1375 441 1709 441 
Q 2250 441 2565 725 
Q 2881 1009 2881 1497 
Q 2881 1984 2565 2268 
Q 2250 2553 1709 2553 
Q 1456 2553 1204 2497 
Q 953 2441 691 2322 
L 691 4666 
z
" id="DejaVuSans-35" transform="scale(0.015625)"/>
       </defs>
       <use xlink:href="#DejaVuSans-30"/>
       <use x="63.623047" xlink:href="#DejaVuSans-2e"/>
       <use x="95.410156" xlink:href="#DejaVuSans-32"/>
       <use x="159.033203" xlink:href="#DejaVuSans-35"/>
      </g>
     </g>
    </g>
    <g id="ytick_2">
     <g id="text_9">
      <!-- 0.50 -->
      <g style="fill:#262626;" transform="translate(34.4275 516.852102)scale(0.22 -0.22)">
       <use xlink:href="#DejaVuSans-30"/>
       <use x="63.623047" xlink:href="#DejaVuSans-2e"/>
       <use x="95.410156" xlink:href="#DejaVuSans-35"/>
       <use x="159.033203" xlink:href="#DejaVuSans-30"/>
      </g>
     </g>
    </g>
    <g id="ytick_3">
     <g id="text_10">
      <!-- 0.75 -->
      <g style="fill:#262626;" transform="translate(34.4275 453.447372)scale(0.22 -0.22)">
       <defs>
        <path d="M 525 4666 
L 3525 4666 
L 3525 4397 
L 1831 0 
L 1172 0 
L 2766 4134 
L 525 4134 
L 525 4666 
z
" id="DejaVuSans-37" transform="scale(0.015625)"/>
       </defs>
       <use xlink:href="#DejaVuSans-30"/>
       <use x="63.623047" xlink:href="#DejaVuSans-2e"/>
       <use x="95.410156" xlink:href="#DejaVuSans-37"/>
       <use x="159.033203" xlink:href="#DejaVuSans-35"/>
      </g>
     </g>
    </g>
    <g id="ytick_4">
     <g id="text_11">
      <!-- 1.00 -->
      <g style="fill:#262626;" transform="translate(34.4275 390.042642)scale(0.22 -0.22)">
       <use xlink:href="#DejaVuSans-31"/>
       <use x="63.623047" xlink:href="#DejaVuSans-2e"/>
       <use x="95.410156" xlink:href="#DejaVuSans-30"/>
       <use x="159.033203" xlink:href="#DejaVuSans-30"/>
      </g>
     </g>
    </g>
    <g id="ytick_5">
     <g id="text_12">
      <!-- 1.25 -->
      <g style="fill:#262626;" transform="translate(34.4275 326.637912)scale(0.22 -0.22)">
       <use xlink:href="#DejaVuSans-31"/>
       <use x="63.623047" xlink:href="#DejaVuSans-2e"/>
       <use x="95.410156" xlink:href="#DejaVuSans-32"/>
       <use x="159.033203" xlink:href="#DejaVuSans-35"/>
      </g>
     </g>
    </g>
    <g id="ytick_6">
     <g id="text_13">
      <!-- 1.50 -->
      <g style="fill:#262626;" transform="translate(34.4275 263.233182)scale(0.22 -0.22)">
       <use xlink:href="#DejaVuSans-31"/>
       <use x="63.623047" xlink:href="#DejaVuSans-2e"/>
       <use x="95.410156" xlink:href="#DejaVuSans-35"/>
       <use x="159.033203" xlink:href="#DejaVuSans-30"/>
      </g>
     </g>
    </g>
    <g id="ytick_7">
     <g id="text_14">
      <!-- 1.75 -->
      <g style="fill:#262626;" transform="translate(34.4275 199.828452)scale(0.22 -0.22)">
       <use xlink:href="#DejaVuSans-31"/>
       <use x="63.623047" xlink:href="#DejaVuSans-2e"/>
       <use x="95.410156" xlink:href="#DejaVuSans-37"/>
       <use x="159.033203" xlink:href="#DejaVuSans-35"/>
      </g>
     </g>
    </g>
    <g id="ytick_8">
     <g id="text_15">
      <!-- 2.00 -->
      <g style="fill:#262626;" transform="translate(34.4275 136.423722)scale(0.22 -0.22)">
       <use xlink:href="#DejaVuSans-32"/>
       <use x="63.623047" xlink:href="#DejaVuSans-2e"/>
       <use x="95.410156" xlink:href="#DejaVuSans-30"/>
       <use x="159.033203" xlink:href="#DejaVuSans-30"/>
      </g>
     </g>
    </g>
    <g id="text_16">
     <!-- $E$ -->
     <g style="fill:#262626;" transform="translate(25.43625 364.352286)rotate(-90)scale(0.24 -0.24)">
      <defs>
       <path d="M 1081 4666 
L 4031 4666 
L 3928 4134 
L 1606 4134 
L 1338 2753 
L 3566 2753 
L 3463 2222 
L 1234 2222 
L 909 531 
L 3284 531 
L 3181 0 
L 172 0 
L 1081 4666 
z
" id="DejaVuSans-Oblique-45" transform="scale(0.015625)"/>
      </defs>
      <use transform="translate(0 0.09375)" xlink:href="#DejaVuSans-Oblique-45"/>
     </g>
    </g>
   </g>
   <g id="line2d_1">
    <path clip-path="url(#pf12040068a)" d="M 120.856213 473.274445 
L 121.075766 427.203831 
L 121.295319 461.496904 
L 121.514872 267.419892 
L 121.734425 481.622542 
L 121.953978 441.908152 
L 122.173532 452.220953 
L 122.393085 474.304061 
L 122.612638 515.456296 
L 122.832191 376.279111 
L 123.271297 494.245486 
L 123.490851 516.56745 
L 123.710404 552.332423 
L 123.929957 466.653789 
L 124.14951 516.617337 
L 124.369063 501.433856 
L 124.588616 503.689614 
L 124.808169 413.670315 
L 125.027723 508.781484 
L 125.466829 492.500568 
L 125.686382 358.899652 
L 125.905935 538.242013 
L 126.125488 545.364853 
L 126.345041 457.557684 
L 126.564595 501.088856 
L 126.784148 395.828491 
L 127.003701 440.020081 
L 127.223254 527.675265 
L 127.442807 497.251476 
L 127.66236 392.646416 
L 127.881914 454.432451 
L 128.101467 427.086535 
L 128.32102 466.579414 
L 128.540573 415.39182 
L 128.760126 540.562329 
L 128.979679 520.466925 
L 129.199232 465.912972 
L 129.418786 472.016123 
L 129.638339 530.971915 
L 129.857892 464.738611 
L 130.077445 500.595357 
L 130.296998 455.756002 
L 130.516551 342.761186 
L 130.955658 505.010087 
L 131.175211 464.286187 
L 131.394764 460.454899 
L 131.614317 353.381047 
L 131.83387 496.71778 
L 132.053423 424.88398 
L 132.272977 424.19259 
L 132.49253 539.893004 
L 132.712083 473.760233 
L 132.931636 467.433056 
L 133.151189 533.976667 
L 133.370742 421.649014 
L 133.590296 500.512638 
L 133.809849 521.002779 
L 134.029402 467.384942 
L 134.248955 548.201149 
L 134.468508 470.893725 
L 134.688061 524.81912 
L 134.907614 462.980414 
L 135.127168 363.348478 
L 135.346721 493.126138 
L 135.566274 417.261288 
L 135.785827 483.408254 
L 136.00538 484.891552 
L 136.224933 531.087808 
L 136.66404 243.787781 
L 136.883593 434.780476 
L 137.103146 322.803851 
L 137.322699 528.51377 
L 137.761805 369.197402 
L 138.200912 521.905075 
L 138.420465 375.998563 
L 138.640018 484.755492 
L 139.079124 512.755782 
L 139.298678 421.876685 
L 139.518231 451.94614 
L 139.957337 448.01526 
L 140.17689 430.9291 
L 140.396443 131.956182 
L 140.83555 440.974332 
L 141.713762 499.53416 
L 141.933315 528.817955 
L 142.152869 474.790026 
L 142.372422 342.521508 
L 142.591975 538.933287 
L 142.811528 368.32318 
L 143.031081 538.62756 
L 143.250634 521.70268 
L 143.470187 379.415505 
L 143.689741 482.427654 
L 143.909294 507.501464 
L 144.128847 435.386645 
L 144.3484 402.31556 
L 144.567953 474.395207 
L 144.787506 479.263955 
L 145.00706 430.296997 
L 145.226613 500.685622 
L 145.446166 514.624235 
L 145.665719 406.90208 
L 145.885272 368.832672 
L 146.104825 382.098791 
L 146.324378 227.430194 
L 146.543932 423.501795 
L 146.983038 470.94837 
L 147.202591 472.234276 
L 147.422144 520.242167 
L 147.641697 474.761648 
L 147.861251 396.24171 
L 148.080804 418.161306 
L 148.51991 493.780723 
L 148.739463 476.384475 
L 148.959016 476.535418 
L 149.178569 472.864016 
L 149.398123 504.947558 
L 149.617676 436.19817 
L 149.837229 464.858991 
L 150.056782 526.453953 
L 150.276335 367.532174 
L 150.495888 405.78008 
L 150.715441 504.862158 
L 150.934995 455.451375 
L 151.154548 438.016152 
L 151.374101 465.523727 
L 151.593654 478.904259 
L 151.813207 380.515584 
L 152.03276 491.614649 
L 152.252314 500.879849 
L 152.471867 501.907647 
L 152.69142 491.763681 
L 152.910973 397.670465 
L 153.130526 493.391353 
L 153.350079 447.887909 
L 153.569632 446.250544 
L 153.789186 371.725575 
L 154.228292 523.161096 
L 154.447845 472.412191 
L 154.667398 507.942116 
L 154.886951 369.538254 
L 155.106505 424.260315 
L 155.326058 393.540159 
L 155.765164 518.639005 
L 155.984717 483.435633 
L 156.20427 554.131553 
L 156.423823 513.906042 
L 156.643377 443.896553 
L 156.86293 531.619079 
L 157.082483 563.076873 
L 157.302036 536.237698 
L 157.521589 425.321783 
L 157.960696 485.138893 
L 158.180249 485.256593 
L 158.399802 544.241749 
L 158.619355 456.637142 
L 158.838908 279.061388 
L 159.058461 466.793928 
L 159.278014 522.189325 
L 159.497568 492.235394 
L 159.717121 296.575662 
L 160.156227 537.39406 
L 160.37578 409.716708 
L 160.595333 521.347635 
L 160.814887 529.526185 
L 161.03444 395.067413 
L 161.253993 451.47297 
L 161.473546 462.535455 
L 161.693099 394.938962 
L 161.912652 520.293319 
L 162.132205 491.246053 
L 162.351759 444.026086 
L 162.571312 477.928976 
L 163.010418 444.855799 
L 163.229971 522.875296 
L 163.449524 412.609797 
L 163.669078 391.486664 
L 163.888631 507.205133 
L 164.108184 458.340288 
L 164.327737 383.455661 
L 164.54729 501.149933 
L 164.766843 518.800342 
L 164.986396 431.575694 
L 165.20595 539.144635 
L 165.425503 457.534335 
L 165.645056 430.834163 
L 165.864609 490.919927 
L 166.084162 496.134619 
L 166.303715 436.115355 
L 166.523269 466.136055 
L 166.742822 339.538141 
L 166.962375 473.844241 
L 167.181928 451.74302 
L 167.401481 496.999434 
L 167.621034 339.296093 
L 167.840587 489.302301 
L 168.279694 547.148862 
L 168.499247 437.353575 
L 168.7188 449.232363 
L 168.938353 472.990263 
L 169.157906 442.040379 
L 169.37746 458.885678 
L 169.597013 525.038193 
L 169.816566 473.142645 
L 170.255672 452.633238 
L 170.475225 569.672825 
L 170.914332 364.346022 
L 171.133885 533.332116 
L 171.353438 390.490399 
L 171.792544 432.657854 
L 172.012097 436.382885 
L 172.231651 428.190861 
L 172.451204 515.124148 
L 172.670757 543.097118 
L 172.89031 457.111698 
L 173.109863 533.754876 
L 173.768523 410.390768 
L 174.207629 498.382697 
L 174.427182 510.67428 
L 174.646735 496.640375 
L 174.866288 421.287826 
L 175.085842 394.994332 
L 175.305395 517.255159 
L 175.524948 455.833823 
L 175.744501 492.986356 
L 175.964054 508.7872 
L 176.40316 360.316186 
L 176.622714 531.842926 
L 176.842267 436.066585 
L 177.06182 407.104227 
L 177.281373 466.010981 
L 177.500926 420.69431 
L 177.940032 455.417488 
L 178.159586 439.782775 
L 178.598692 555.803408 
L 178.818245 491.13698 
L 179.037798 509.994515 
L 179.257351 511.440226 
L 179.476905 461.419091 
L 179.696458 465.204634 
L 179.916011 498.824481 
L 180.57467 456.349862 
L 180.794223 485.883503 
L 181.013777 434.355811 
L 181.23333 504.380767 
L 181.672436 465.944709 
L 181.891989 456.251317 
L 182.111542 459.242633 
L 182.331096 526.352952 
L 182.550649 303.763007 
L 182.770202 437.913624 
L 183.209308 217.017727 
L 183.648414 567.633521 
L 183.867968 543.499676 
L 184.087521 550.314529 
L 184.307074 502.057605 
L 184.526627 508.63092 
L 184.74618 395.832096 
L 185.185287 527.224433 
L 185.40484 492.430948 
L 185.624393 529.547296 
L 185.843946 442.74687 
L 186.063499 503.250858 
L 186.283052 460.067944 
L 186.502605 525.400047 
L 186.722159 501.129051 
L 186.941712 382.211857 
L 187.161265 381.713685 
L 187.380818 461.657761 
L 187.600371 351.268142 
L 187.819924 488.7935 
L 188.039478 392.672066 
L 188.259031 479.558735 
L 188.478584 503.202184 
L 188.698137 451.058156 
L 188.91769 435.847597 
L 189.356796 510.256478 
L 189.57635 455.282426 
L 189.795903 500.245095 
L 190.235009 450.882478 
L 190.454562 274.811122 
L 190.674115 464.945688 
L 190.893669 379.574339 
L 191.113222 513.982055 
L 191.332775 512.844971 
L 191.552328 491.307057 
L 191.771881 458.333139 
L 191.991434 474.43994 
L 192.210987 464.44525 
L 192.430541 568.833969 
L 192.650094 552.157401 
L 192.869647 525.098572 
L 193.0892 466.830153 
L 193.308753 466.440772 
L 193.528306 422.859732 
L 193.74786 455.514961 
L 193.967413 394.092049 
L 194.186966 454.305978 
L 194.406519 473.267041 
L 194.626072 538.019893 
L 194.845625 525.875105 
L 195.065178 523.144453 
L 195.284732 285.61866 
L 195.504285 557.412915 
L 195.723838 407.56402 
L 195.943391 510.654624 
L 196.162944 462.82502 
L 196.382497 480.579269 
L 196.602051 422.690279 
L 196.821604 480.418834 
L 197.041157 408.943534 
L 197.26071 466.516202 
L 197.480263 356.605406 
L 197.699816 381.060497 
L 198.138923 531.077254 
L 198.358476 518.774466 
L 198.578029 479.506 
L 198.797582 370.85723 
L 199.017135 539.734556 
L 199.236688 487.561415 
L 199.456242 392.445386 
L 199.675795 445.090341 
L 199.895348 549.880784 
L 200.334454 488.459547 
L 200.554007 478.179114 
L 200.77356 555.682191 
L 200.993114 416.850202 
L 201.212667 481.376622 
L 201.43222 490.406495 
L 201.651773 465.455084 
L 202.090879 511.250184 
L 202.310432 470.308178 
L 202.529986 519.586721 
L 202.749539 532.692912 
L 203.188645 500.84176 
L 203.408198 540.657567 
L 203.847305 524.325406 
L 204.066858 457.565269 
L 204.286411 552.57773 
L 204.505964 475.445275 
L 204.725517 478.672957 
L 205.164623 385.20823 
L 205.384177 387.701511 
L 205.60373 230.830145 
L 205.823283 454.456114 
L 206.042836 521.779385 
L 206.262389 473.141606 
L 206.481942 491.985733 
L 206.921049 437.738594 
L 207.140602 512.096738 
L 207.360155 434.494613 
L 207.579708 528.348814 
L 207.799261 513.974737 
L 208.018814 521.078739 
L 208.238368 381.257527 
L 208.457921 436.779346 
L 208.677474 419.452483 
L 209.336133 528.372382 
L 209.555687 444.076676 
L 209.77524 440.296539 
L 209.994793 506.702039 
L 210.214346 484.86592 
L 210.433899 482.358495 
L 210.653452 449.220145 
L 210.873005 484.763863 
L 211.092559 486.641575 
L 211.312112 535.9021 
L 211.531665 536.083771 
L 211.751218 485.47026 
L 211.970771 491.174393 
L 212.190324 419.253835 
L 212.409878 499.179417 
L 212.629431 410.723641 
L 212.848984 503.537978 
L 213.068537 420.498165 
L 213.28809 453.420905 
L 213.507643 526.501564 
L 213.727196 495.829745 
L 213.94675 430.127462 
L 214.166303 526.600882 
L 214.385856 465.201985 
L 214.605409 472.777715 
L 214.824962 430.410284 
L 215.044515 487.399305 
L 215.264069 382.636446 
L 215.483622 411.092575 
L 215.703175 458.304212 
L 215.922728 349.32077 
L 216.142281 485.463851 
L 216.361834 341.619662 
L 216.581387 467.326563 
L 216.800941 470.607467 
L 217.020494 436.340719 
L 217.240047 504.747849 
L 217.4596 509.114249 
L 217.679153 396.728353 
L 217.898706 498.9701 
L 218.11826 434.419347 
L 218.337813 455.755363 
L 218.557366 513.234643 
L 218.776919 436.244763 
L 218.996472 465.292853 
L 219.216025 533.79119 
L 219.435578 512.048091 
L 219.655132 444.756792 
L 219.874685 413.746245 
L 220.094238 523.806667 
L 220.313791 569.251918 
L 220.533344 523.059818 
L 220.752897 413.713907 
L 220.972451 429.496126 
L 221.192004 477.393443 
L 221.411557 423.392376 
L 221.63111 514.645688 
L 221.850663 409.51264 
L 222.070216 551.164059 
L 222.289769 419.056655 
L 222.509323 522.161633 
L 222.728876 447.26007 
L 222.948429 506.169363 
L 223.167982 413.646826 
L 223.387535 500.458823 
L 223.607088 509.317898 
L 223.826642 469.330881 
L 224.485301 445.623647 
L 224.924407 526.573672 
L 225.14396 561.369714 
L 225.363514 521.413307 
L 225.583067 431.535578 
L 225.80262 417.372496 
L 226.022173 539.306769 
L 226.461279 453.154637 
L 226.680833 464.143361 
L 226.900386 485.698937 
L 227.119939 462.435812 
L 227.339492 462.228021 
L 227.559045 463.04922 
L 227.778598 523.777559 
L 227.998151 543.986824 
L 228.217705 380.861354 
L 228.437258 399.65601 
L 228.656811 506.181147 
L 228.876364 376.351547 
L 229.095917 467.081157 
L 229.31547 487.270911 
L 229.535023 494.387367 
L 229.97413 360.437505 
L 230.193683 407.735162 
L 230.413236 480.931749 
L 230.632789 450.669413 
L 231.071896 539.348178 
L 231.291449 457.190607 
L 231.511002 525.983235 
L 231.730555 437.409059 
L 231.950108 475.52425 
L 232.169661 562.96807 
L 232.389214 497.050518 
L 232.608768 337.712853 
L 232.828321 502.010598 
L 233.047874 380.037019 
L 233.267427 579.311691 
L 233.48698 501.816121 
L 233.706533 348.077171 
L 233.926087 459.509195 
L 234.14564 507.703154 
L 234.584746 471.130881 
L 234.804299 462.727875 
L 235.023852 531.761526 
L 235.243405 441.693244 
L 235.462959 480.738118 
L 235.682512 425.76688 
L 235.902065 421.937424 
L 236.341171 496.771796 
L 236.560724 356.586217 
L 236.780278 459.970462 
L 236.999831 456.826013 
L 237.219384 531.904939 
L 237.438937 456.310972 
L 237.65849 300.771057 
L 237.878043 408.826822 
L 238.097596 387.643176 
L 238.31715 510.202467 
L 238.536703 423.457791 
L 238.975809 368.879044 
L 239.195362 484.380769 
L 239.414915 499.38302 
L 239.634469 397.850144 
L 240.073575 542.157197 
L 240.293128 428.582372 
L 240.512681 466.901196 
L 240.732234 531.632694 
L 240.951787 368.944271 
L 241.171341 481.6526 
L 241.390894 486.326263 
L 241.610447 487.713259 
L 242.049553 454.08967 
L 242.48866 517.018625 
L 242.708213 513.051677 
L 243.147319 477.377734 
L 243.366872 514.096747 
L 243.586425 501.33013 
L 243.805978 445.273769 
L 244.025532 466.960816 
L 244.245085 465.862864 
L 244.464638 455.535026 
L 244.684191 421.969054 
L 244.903744 440.597746 
L 245.123297 523.361755 
L 245.342851 374.793984 
L 245.562404 450.02501 
L 245.781957 486.241082 
L 246.00151 425.364968 
L 246.221063 538.021591 
L 246.660169 366.058028 
L 247.099276 521.073298 
L 247.318829 400.392853 
L 247.538382 407.469261 
L 247.977488 533.093615 
L 248.197042 545.549308 
L 248.416595 480.629338 
L 248.636148 501.038289 
L 248.855701 493.461651 
L 249.075254 440.70885 
L 249.294807 507.862514 
L 249.51436 366.096312 
L 249.733914 463.658072 
L 249.953467 477.871188 
L 250.17302 528.039361 
L 250.612126 454.29693 
L 250.831679 500.623855 
L 251.051233 362.663147 
L 251.270786 495.512908 
L 251.490339 492.923075 
L 251.709892 473.607869 
L 251.929445 323.625502 
L 252.148998 447.997763 
L 252.368551 424.579845 
L 252.588105 343.966831 
L 252.807658 498.603163 
L 253.027211 447.033131 
L 253.246764 453.590698 
L 253.466317 537.350739 
L 253.68587 505.676278 
L 253.905424 408.725212 
L 254.34453 574.841474 
L 254.564083 463.513822 
L 254.783636 430.107076 
L 255.003189 529.373981 
L 255.222742 529.917032 
L 255.442296 362.779617 
L 255.661849 502.941834 
L 255.881402 477.974581 
L 256.100955 333.246016 
L 256.320508 509.48109 
L 256.979168 422.501293 
L 257.198721 535.363425 
L 257.418274 531.861668 
L 257.637827 441.460637 
L 257.85738 434.77612 
L 258.076933 477.340795 
L 258.296487 372.803102 
L 258.51604 491.540441 
L 258.735593 454.977865 
L 258.955146 475.508873 
L 259.174699 445.738282 
L 259.394252 532.969656 
L 259.833359 356.190301 
L 260.272465 501.303447 
L 260.492018 520.589475 
L 260.711571 413.668443 
L 260.931124 438.824352 
L 261.150678 432.539296 
L 261.589784 546.588146 
L 262.02889 415.706933 
L 262.248443 453.414341 
L 262.467996 520.702869 
L 262.68755 505.131333 
L 262.907103 436.85973 
L 263.346209 522.136492 
L 263.565762 511.59307 
L 263.785315 467.751278 
L 264.004869 505.241886 
L 264.224422 406.56984 
L 264.443975 493.78738 
L 264.883081 518.467728 
L 265.102634 540.047137 
L 265.322187 445.184358 
L 265.541741 431.415026 
L 265.761294 507.984848 
L 266.2004 416.880161 
L 266.419953 340.6132 
L 266.85906 514.332163 
L 267.078613 253.52299 
L 267.298166 522.044225 
L 267.517719 487.64205 
L 267.737272 433.664718 
L 267.956825 450.467734 
L 268.176378 515.298063 
L 268.395932 529.449317 
L 268.615485 439.62713 
L 268.835038 514.174087 
L 269.054591 456.90874 
L 269.274144 457.729628 
L 269.713251 525.432522 
L 270.152357 347.605637 
L 270.37191 474.917551 
L 270.591463 407.719661 
L 270.811016 380.796085 
L 271.030569 476.30152 
L 271.250123 408.622756 
L 271.469676 397.588805 
L 271.908782 529.008596 
L 272.128335 445.563301 
L 272.347888 452.556638 
L 272.567442 448.39879 
L 272.786995 540.328868 
L 273.006548 469.45749 
L 273.226101 451.871717 
L 273.445654 467.074308 
L 273.665207 542.127838 
L 273.88476 344.041463 
L 274.104314 449.619445 
L 274.323867 357.647587 
L 274.54342 492.81506 
L 274.762973 483.930669 
L 274.982526 488.146705 
L 275.202079 437.840718 
L 275.421633 501.176776 
L 275.641186 479.735281 
L 275.860739 518.643831 
L 276.080292 467.27859 
L 276.299845 495.05614 
L 276.519398 438.012944 
L 276.738951 460.750661 
L 276.958505 509.294641 
L 277.178058 525.038058 
L 277.617164 421.392792 
L 277.836717 499.388565 
L 278.05627 499.338855 
L 278.275824 421.534509 
L 278.495377 512.06758 
L 278.71493 490.354213 
L 278.934483 430.030678 
L 279.154036 402.142888 
L 279.373589 482.064056 
L 279.593142 505.224981 
L 279.812696 388.754362 
L 280.032249 369.30351 
L 280.251802 434.120402 
L 280.471355 389.769719 
L 280.690908 514.492858 
L 280.910461 448.202914 
L 281.130014 510.714396 
L 281.349568 529.097986 
L 281.569121 416.951061 
L 281.788674 407.252662 
L 282.008227 484.191549 
L 282.22778 491.892835 
L 282.447333 444.371278 
L 282.666887 452.727897 
L 282.88644 436.554101 
L 283.105993 404.36129 
L 283.325546 399.942026 
L 283.545099 428.977078 
L 283.764652 420.039789 
L 283.984205 542.660539 
L 284.423312 343.018468 
L 284.642865 540.333627 
L 284.862418 543.486321 
L 285.081971 481.037666 
L 285.301524 504.130626 
L 285.521078 481.901947 
L 285.740631 314.897853 
L 285.960184 487.386299 
L 286.179737 517.85789 
L 286.39929 397.843598 
L 286.838396 548.103395 
L 287.05795 330.562841 
L 287.277503 489.619268 
L 287.497056 549.24691 
L 287.716609 453.815744 
L 287.936162 519.10152 
L 288.155715 431.535103 
L 288.375269 490.143999 
L 288.594822 486.596224 
L 288.814375 457.195668 
L 289.033928 488.657126 
L 289.253481 445.888964 
L 289.473034 543.704971 
L 289.692587 419.960065 
L 289.912141 433.597429 
L 290.131694 418.801942 
L 290.351247 512.599745 
L 290.5708 520.964261 
L 290.790353 500.084073 
L 291.009906 386.445705 
L 291.22946 520.279496 
L 291.449013 378.535344 
L 291.888119 540.296923 
L 292.107672 483.926601 
L 292.546778 532.987584 
L 292.766332 470.501212 
L 292.985885 448.629675 
L 293.424991 473.770865 
L 293.644544 405.534337 
L 294.083651 469.924749 
L 294.303204 343.84815 
L 294.522757 533.198894 
L 294.74231 395.692842 
L 295.181416 448.990205 
L 295.400969 542.102917 
L 295.620523 527.249618 
L 295.840076 485.640617 
L 296.059629 523.034586 
L 296.279182 521.717925 
L 296.718288 407.273897 
L 297.157395 512.009445 
L 297.376948 386.885077 
L 297.596501 460.268175 
L 297.816054 479.170877 
L 298.035607 452.295102 
L 298.474714 507.717959 
L 298.694267 507.652674 
L 298.91382 486.664234 
L 299.133373 418.216035 
L 299.352926 461.034899 
L 299.572479 538.839906 
L 300.011586 322.533283 
L 300.450692 542.597944 
L 300.670245 543.747335 
L 300.889798 501.47936 
L 301.109351 282.790612 
L 301.328905 409.868098 
L 301.548458 361.577718 
L 301.768011 339.811053 
L 301.987564 513.489896 
L 302.207117 538.057402 
L 302.42667 493.206896 
L 302.646224 410.71884 
L 302.865777 411.886084 
L 303.08533 545.658218 
L 303.524436 409.200795 
L 303.743989 374.772866 
L 303.963542 400.669042 
L 304.183096 489.082192 
L 304.402649 472.616129 
L 304.622202 465.962228 
L 304.841755 376.099038 
L 305.061308 547.774298 
L 305.280861 300.049418 
L 305.500415 506.035683 
L 305.719968 553.109414 
L 305.939521 485.585881 
L 306.159074 569.176365 
L 306.378627 420.564163 
L 306.59818 383.266386 
L 306.817733 493.841204 
L 307.037287 532.141306 
L 307.25684 387.355701 
L 307.695946 437.422846 
L 307.915499 313.545807 
L 308.135052 273.366276 
L 308.354605 309.974649 
L 308.574159 506.417759 
L 308.793712 412.622024 
L 309.013265 450.499485 
L 309.232818 512.264661 
L 309.452371 529.545168 
L 309.671924 435.768813 
L 309.891478 472.366741 
L 310.111031 462.687272 
L 310.330584 481.312335 
L 310.550137 525.809691 
L 310.76969 405.852509 
L 310.989243 493.301492 
L 311.208796 496.762324 
L 311.42835 507.782588 
L 311.867456 318.549622 
L 312.087009 480.687867 
L 312.306562 367.394839 
L 312.526115 375.997059 
L 312.745669 489.764826 
L 312.965222 497.41013 
L 313.404328 417.47589 
L 313.623881 499.302495 
L 313.843434 306.739312 
L 314.062987 414.635335 
L 314.282541 451.989309 
L 314.502094 558.033982 
L 314.721647 445.069593 
L 314.9412 407.898247 
L 315.160753 427.663277 
L 315.380306 526.640537 
L 315.59986 406.109852 
L 315.819413 465.68399 
L 316.038966 476.125649 
L 316.258519 525.433955 
L 316.478072 453.830641 
L 316.697625 480.677481 
L 316.917178 477.259341 
L 317.136732 528.385073 
L 317.356285 514.249497 
L 317.575838 418.75052 
L 317.795391 380.495941 
L 318.014944 508.108636 
L 318.234497 481.054038 
L 318.454051 334.774825 
L 318.893157 529.756264 
L 319.11271 527.863099 
L 319.332263 562.762785 
L 319.551816 503.123057 
L 319.990923 540.624042 
L 320.210476 493.534747 
L 320.430029 343.19934 
L 320.869135 509.925442 
L 321.088688 536.569541 
L 321.308242 581.38839 
L 321.527795 365.233502 
L 321.747348 506.836856 
L 321.966901 464.312887 
L 322.186454 500.393751 
L 322.406007 442.843377 
L 322.62556 519.815692 
L 322.845114 448.249235 
L 323.064667 493.266145 
L 323.28422 385.076546 
L 323.503773 474.20141 
L 323.723326 497.649212 
L 323.942879 388.60539 
L 324.162433 493.88909 
L 324.381986 425.005556 
L 324.601539 506.795375 
L 324.821092 477.468641 
L 325.040645 522.613947 
L 325.260198 306.261677 
L 325.479751 509.746398 
L 325.699305 508.116599 
L 326.138411 448.665665 
L 326.357964 495.490225 
L 326.577517 470.528038 
L 326.79707 502.211257 
L 327.016624 461.329119 
L 327.236177 498.298139 
L 327.45573 429.812102 
L 327.675283 271.800959 
L 327.894836 515.025922 
L 328.114389 407.003042 
L 328.333942 499.94103 
L 328.553496 346.273067 
L 328.773049 429.384722 
L 328.992602 369.067565 
L 329.212155 490.386278 
L 329.651261 481.797178 
L 329.870815 533.207181 
L 330.090368 519.841929 
L 330.309921 414.66578 
L 330.529474 391.319757 
L 330.749027 557.73762 
L 330.96858 545.114161 
L 331.407687 428.612028 
L 331.62724 434.674997 
L 331.846793 462.747725 
L 332.066346 474.047619 
L 332.285899 413.122355 
L 332.505452 456.62297 
L 332.725006 450.756587 
L 332.944559 563.970513 
L 333.164112 542.708651 
L 333.383665 478.56242 
L 333.603218 316.619838 
L 333.822771 514.405844 
L 334.042324 432.487246 
L 334.261878 500.265327 
L 334.700984 301.926843 
L 334.920537 365.420323 
L 335.14009 377.13009 
L 335.359643 481.041032 
L 335.579196 506.600651 
L 335.79875 361.885866 
L 336.018303 530.072612 
L 336.457409 383.733609 
L 336.676962 526.243457 
L 336.896515 535.659965 
L 337.335622 488.345273 
L 337.555175 462.467405 
L 337.774728 532.050615 
L 337.994281 514.843076 
L 338.213834 462.576014 
L 338.433387 514.088159 
L 338.652941 502.799283 
L 338.872494 304.167918 
L 339.092047 457.536528 
L 339.531153 503.983097 
L 339.750706 489.810527 
L 339.97026 535.211113 
L 340.189813 451.721739 
L 340.409366 541.416045 
L 340.628919 495.050413 
L 340.848472 537.392203 
L 341.287578 490.667531 
L 341.507132 497.221311 
L 341.726685 447.484931 
L 341.946238 497.994353 
L 342.385344 482.072062 
L 342.604897 533.116441 
L 342.824451 417.583581 
L 343.263557 502.953704 
L 343.48311 398.521205 
L 343.922216 481.579375 
L 344.141769 538.799357 
L 344.361323 469.137761 
L 344.580876 495.211963 
L 344.800429 478.074219 
L 345.019982 495.282219 
L 345.239535 433.228542 
L 345.459088 442.989478 
L 345.678642 445.036093 
L 345.898195 511.161397 
L 346.117748 416.22745 
L 346.337301 463.19265 
L 346.556854 382.499679 
L 346.776407 467.598068 
L 346.99596 361.505818 
L 347.215514 516.099351 
L 347.435067 423.686983 
L 347.65462 464.286106 
L 347.874173 567.2625 
L 348.313279 462.74277 
L 348.532833 542.134653 
L 348.752386 533.492547 
L 348.971939 478.510562 
L 349.191492 500.995901 
L 349.411045 427.384743 
L 349.630598 516.832547 
L 349.850151 518.492124 
L 350.069705 432.349168 
L 350.508811 459.725926 
L 350.728364 399.830785 
L 350.947917 466.534975 
L 351.16747 451.155194 
L 351.387024 300.415877 
L 351.606577 366.911824 
L 351.82613 330.506067 
L 352.045683 492.906758 
L 352.265236 509.741218 
L 352.484789 412.850789 
L 352.704342 436.448359 
L 352.923896 496.69132 
L 353.143449 407.831437 
L 353.363002 471.899159 
L 353.582555 485.45861 
L 353.802108 471.062486 
L 354.021661 530.802109 
L 354.241215 392.661549 
L 354.460768 418.386737 
L 354.680321 502.135443 
L 354.899874 481.160971 
L 355.119427 510.109972 
L 355.558533 429.36562 
L 355.778087 436.888914 
L 355.99764 518.673236 
L 356.217193 471.358128 
L 356.436746 450.216468 
L 356.656299 509.441306 
L 356.875852 520.625117 
L 357.095406 337.792917 
L 357.534512 536.106572 
L 357.754065 524.261186 
L 357.973618 529.663036 
L 358.193171 461.865187 
L 358.412724 475.315813 
L 358.632278 440.723556 
L 358.851831 499.750536 
L 359.071384 512.197135 
L 359.290937 489.207236 
L 359.51049 326.779218 
L 359.730043 477.544473 
L 359.949596 424.339477 
L 360.16915 487.798825 
L 360.388703 393.171531 
L 360.608256 546.865363 
L 360.827809 500.246936 
L 361.047362 388.042525 
L 361.266915 380.727945 
L 361.486469 359.782281 
L 361.706022 516.004295 
L 361.925575 472.223152 
L 362.145128 477.078232 
L 362.364681 470.594407 
L 362.584234 480.34997 
L 362.803787 448.692006 
L 363.023341 463.125595 
L 363.462447 544.035446 
L 363.682 459.962942 
L 363.901553 517.233517 
L 364.121106 461.046336 
L 364.34066 486.379866 
L 364.560213 550.798666 
L 364.779766 459.71819 
L 364.999319 521.431989 
L 365.218872 417.982932 
L 365.438425 422.658108 
L 365.657978 383.226233 
L 366.097085 521.993707 
L 366.316638 358.071662 
L 366.536191 507.2032 
L 366.975297 533.0865 
L 367.414404 308.588258 
L 367.633957 371.214599 
L 367.85351 493.564708 
L 368.073063 513.059737 
L 368.292616 437.819441 
L 368.512169 461.150564 
L 368.731723 468.459068 
L 368.951276 512.768096 
L 369.390382 405.891373 
L 369.609935 517.73025 
L 369.829488 526.884915 
L 370.049042 518.631929 
L 370.268595 534.726006 
L 370.488148 508.681829 
L 370.707701 372.370865 
L 371.146807 495.315153 
L 371.36636 405.429808 
L 371.585914 381.922788 
L 371.805467 338.63873 
L 372.02502 546.702294 
L 372.244573 483.23107 
L 372.683679 511.194937 
L 372.903233 450.568568 
L 373.122786 463.544975 
L 373.342339 288.383648 
L 373.561892 410.803147 
L 373.781445 379.38924 
L 374.000998 467.870532 
L 374.440105 438.716476 
L 374.659658 387.338061 
L 374.879211 482.248131 
L 375.098764 479.505815 
L 375.318317 538.447172 
L 375.53787 435.809063 
L 375.757424 504.054191 
L 375.976977 526.128528 
L 376.19653 378.015277 
L 376.416083 430.955402 
L 376.635636 220.334508 
L 376.855189 432.311074 
L 377.074742 514.906408 
L 377.294296 481.927355 
L 377.513849 496.724674 
L 377.733402 549.704418 
L 378.172508 334.022691 
L 378.392061 488.747654 
L 378.611615 535.747594 
L 378.831168 433.979095 
L 379.050721 501.732311 
L 379.270274 491.156424 
L 379.489827 453.305559 
L 379.70938 460.256261 
L 379.928933 497.9022 
L 380.148487 489.431969 
L 380.36804 389.638535 
L 380.587593 380.567596 
L 380.807146 511.311126 
L 381.026699 388.825707 
L 381.246252 401.720814 
L 381.465806 466.41396 
L 381.685359 448.636208 
L 381.904912 504.113748 
L 382.124465 293.525135 
L 382.344018 467.127392 
L 382.563571 489.198738 
L 382.783124 445.386749 
L 383.002678 519.964715 
L 383.222231 501.632575 
L 383.441784 548.092517 
L 383.661337 530.553647 
L 383.88089 526.002099 
L 384.100443 488.911406 
L 384.319997 532.440036 
L 384.53955 416.782555 
L 384.759103 499.166075 
L 385.198209 440.31339 
L 385.637315 485.659761 
L 385.856869 458.409526 
L 386.076422 507.550219 
L 386.515528 388.444734 
L 386.735081 428.931841 
L 386.954634 295.182861 
L 387.174187 542.48604 
L 387.393741 505.921873 
L 387.613294 500.756269 
L 387.832847 485.596475 
L 388.0524 521.146226 
L 388.271953 366.646307 
L 388.491506 500.386379 
L 388.71106 501.920715 
L 388.930613 395.406349 
L 389.150166 435.872428 
L 389.369719 503.328277 
L 389.589272 528.181678 
L 390.028378 446.11917 
L 390.247932 497.709735 
L 390.467485 403.601249 
L 390.687038 422.029888 
L 391.126144 363.3017 
L 391.345697 481.960626 
L 391.565251 446.913004 
L 391.784804 447.521649 
L 392.004357 464.926166 
L 392.22391 506.842209 
L 392.443463 365.512402 
L 392.663016 361.302303 
L 393.102123 485.779359 
L 393.321676 416.961424 
L 393.541229 460.01613 
L 393.760782 387.45618 
L 393.980335 531.683753 
L 394.199888 509.192507 
L 394.419442 385.430495 
L 394.638995 546.28601 
L 394.858548 437.251471 
L 395.078101 500.993682 
L 395.297654 522.602368 
L 395.73676 523.486222 
L 396.175867 445.853931 
L 396.834526 535.268004 
L 397.054079 428.0151 
L 397.273633 493.462178 
L 397.493186 428.834404 
L 397.712739 468.879308 
L 397.932292 327.754154 
L 398.371398 486.649397 
L 398.590951 521.215491 
L 398.810505 439.729207 
L 399.030058 493.234492 
L 399.249611 473.839353 
L 399.469164 568.867455 
L 399.688717 344.056209 
L 399.90827 448.93949 
L 400.127824 495.23001 
L 400.347377 451.088435 
L 400.56693 439.955236 
L 400.786483 557.064621 
L 401.225589 449.644954 
L 401.445142 545.408208 
L 401.664696 417.564703 
L 401.884249 537.027643 
L 402.103802 416.787749 
L 402.323355 487.305235 
L 402.542908 477.093042 
L 402.762461 508.312531 
L 402.982015 410.819279 
L 403.201568 469.351778 
L 403.421121 480.785442 
L 403.640674 409.824712 
L 403.860227 456.423307 
L 404.07978 456.995837 
L 404.299333 399.113875 
L 404.518887 515.55692 
L 404.73844 545.549536 
L 404.957993 405.583985 
L 405.177546 505.333153 
L 405.397099 522.73551 
L 405.616652 513.734379 
L 405.836206 467.772621 
L 406.055759 463.747517 
L 406.275312 341.72175 
L 406.494865 465.827021 
L 406.714418 467.885716 
L 407.153524 342.549376 
L 407.373078 510.20313 
L 407.592631 520.117155 
L 407.812184 402.856569 
L 408.031737 419.875834 
L 408.470843 489.240044 
L 408.690397 424.034549 
L 408.90995 575.912055 
L 409.129503 467.405912 
L 409.349056 511.564718 
L 409.788162 440.237653 
L 410.227269 526.5164 
L 410.446822 551.80042 
L 410.885928 391.585084 
L 411.325034 541.05703 
L 411.983694 343.013505 
L 412.203247 526.067077 
L 412.4228 416.405997 
L 412.642353 434.28378 
L 412.861906 525.727523 
L 413.08146 477.031035 
L 413.301013 320.85145 
L 413.520566 451.569495 
L 413.740119 491.750385 
L 413.959672 486.184185 
L 414.179225 388.036026 
L 414.398778 448.540475 
L 414.618332 425.357924 
L 414.837885 517.427963 
L 415.057438 449.538973 
L 415.276991 534.594949 
L 415.496544 381.301152 
L 415.716097 559.20254 
L 415.935651 443.187895 
L 416.155204 425.924532 
L 416.374757 453.475012 
L 416.59431 438.126076 
L 416.813863 482.206617 
L 417.033416 491.621487 
L 417.252969 451.384024 
L 417.472523 499.784569 
L 417.692076 474.240113 
L 417.911629 199.155126 
L 418.131182 473.07182 
L 418.350735 507.503533 
L 418.570288 397.008838 
L 418.789842 529.745223 
L 419.009395 534.827058 
L 419.228948 450.900652 
L 419.448501 434.500362 
L 419.887607 533.645605 
L 420.10716 514.962407 
L 420.546267 298.665238 
L 420.76582 454.135843 
L 420.985373 351.967375 
L 421.204926 518.021181 
L 421.424479 523.182543 
L 421.644033 457.843259 
L 421.863586 449.695145 
L 422.083139 503.70906 
L 422.302692 472.583024 
L 422.522245 470.048153 
L 422.961351 359.052649 
L 423.180905 493.355957 
L 423.400458 469.464652 
L 423.620011 406.176481 
L 423.839564 497.840466 
L 424.059117 365.768667 
L 424.27867 486.835633 
L 424.498224 395.042902 
L 424.717777 377.658407 
L 425.156883 495.653334 
L 425.376436 508.098844 
L 425.595989 470.927818 
L 425.815542 397.583159 
L 426.254649 511.402437 
L 426.474202 429.739671 
L 426.693755 450.279979 
L 426.913308 426.705542 
L 427.132861 561.540768 
L 427.352415 501.99844 
L 427.571968 490.887334 
L 427.791521 408.294577 
L 428.011074 517.658598 
L 428.230627 460.508116 
L 428.45018 536.936502 
L 428.669733 359.755065 
L 428.889287 511.434527 
L 429.10884 485.717811 
L 429.328393 489.795941 
L 429.547946 443.048624 
L 429.767499 522.416811 
L 429.987052 464.757568 
L 430.206606 443.431578 
L 430.426159 484.192614 
L 430.645712 401.969501 
L 430.865265 458.607825 
L 431.084818 439.689934 
L 431.304371 489.645601 
L 431.523924 484.633374 
L 431.743478 371.589786 
L 431.963031 499.81516 
L 432.402137 457.260417 
L 432.62169 393.347378 
L 432.841243 460.266635 
L 433.060797 487.176007 
L 433.28035 497.88681 
L 433.499903 418.062405 
L 433.719456 399.272531 
L 433.939009 362.601397 
L 434.158562 481.030064 
L 434.378115 443.695113 
L 434.597669 454.199873 
L 434.817222 451.122256 
L 435.036775 486.370475 
L 435.256328 454.818697 
L 435.475881 297.37111 
L 435.695434 484.737473 
L 435.914988 468.684224 
L 436.134541 349.083265 
L 436.354094 445.19913 
L 436.573647 393.25002 
L 436.7932 498.100087 
L 437.012753 222.204579 
L 437.232306 444.760249 
L 437.45186 428.137314 
L 437.671413 387.217844 
L 437.890966 437.419661 
L 438.110519 358.892705 
L 438.330072 547.523037 
L 438.549625 441.768402 
L 438.769178 437.832886 
L 438.988732 439.666444 
L 439.208285 452.097059 
L 439.427838 435.41592 
L 439.647391 461.928946 
L 439.866944 389.161635 
L 440.086497 517.365882 
L 440.525604 418.476489 
L 440.745157 413.270199 
L 440.96471 394.983211 
L 441.403816 518.285769 
L 441.842923 407.369488 
L 442.062476 500.557889 
L 442.282029 485.119509 
L 442.501582 551.603364 
L 442.721135 495.407201 
L 442.940688 496.308844 
L 443.160242 499.655066 
L 443.379795 475.134728 
L 443.599348 332.438326 
L 443.818901 365.687644 
L 444.038454 508.296418 
L 444.258007 514.386128 
L 444.47756 548.68147 
L 444.697114 536.363985 
L 444.916667 495.151203 
L 445.13622 512.817169 
L 445.355773 398.780597 
L 445.575326 406.882059 
L 445.794879 484.700219 
L 446.014433 477.769855 
L 446.233986 405.137782 
L 446.453539 394.738064 
L 446.673092 450.041374 
L 446.892645 464.66583 
L 447.112198 358.919282 
L 447.331751 511.760833 
L 447.551305 497.865072 
L 447.770858 438.158995 
L 447.990411 549.675352 
L 448.209964 528.871325 
L 448.429517 466.55289 
L 448.64907 479.463442 
L 448.868624 438.932087 
L 449.088177 456.510148 
L 449.30773 532.606521 
L 449.527283 529.008933 
L 449.746836 522.586478 
L 449.966389 453.103281 
L 450.185942 482.357603 
L 450.405496 482.239761 
L 450.625049 384.69816 
L 450.844602 416.124624 
L 451.064155 421.362556 
L 451.283708 402.819303 
L 451.503261 446.773322 
L 451.722815 423.963675 
L 451.942368 532.771557 
L 452.161921 528.408453 
L 452.381474 439.422962 
L 452.601027 545.540482 
L 452.82058 492.698124 
L 453.040133 529.187606 
L 453.259687 418.210716 
L 453.47924 470.681973 
L 453.698793 261.664228 
L 453.918346 486.870533 
L 454.137899 421.589006 
L 454.357452 319.540781 
L 454.577006 496.101631 
L 454.796559 408.973147 
L 455.235665 495.149752 
L 455.455218 434.391029 
L 455.674771 524.347204 
L 455.894324 411.386689 
L 456.113878 487.220327 
L 456.333431 462.646184 
L 456.552984 530.445216 
L 456.772537 445.004329 
L 456.99209 405.098221 
L 457.211643 426.538781 
L 457.431197 431.443904 
L 457.65075 545.317984 
L 457.870303 435.666521 
L 458.089856 472.963128 
L 458.309409 573.89848 
L 458.528962 466.515436 
L 458.748515 491.487591 
L 458.968069 409.78032 
L 459.187622 555.733566 
L 459.407175 473.085198 
L 459.626728 437.690088 
L 459.846281 434.127638 
L 460.285388 350.403818 
L 460.504941 554.21224 
L 460.724494 471.812695 
L 460.944047 525.815815 
L 461.1636 496.333959 
L 461.383153 542.912547 
L 461.602706 522.639117 
L 461.82226 329.699063 
L 462.041813 440.009963 
L 462.261366 471.476925 
L 462.480919 345.053197 
L 462.700472 389.58879 
L 462.920025 530.845702 
L 463.139579 466.345801 
L 463.359132 487.006566 
L 463.578685 537.51975 
L 463.798238 389.192982 
L 464.017791 459.545394 
L 464.237344 464.677449 
L 464.456897 366.050621 
L 464.676451 385.443908 
L 464.896004 474.175945 
L 465.115557 506.162029 
L 465.33511 465.377135 
L 465.554663 318.54568 
L 465.774216 557.101264 
L 465.993769 471.391034 
L 466.213323 438.905548 
L 466.432876 437.986587 
L 466.652429 482.257756 
L 466.871982 450.160163 
L 467.091535 473.865597 
L 467.311088 469.304273 
L 467.530642 424.634973 
L 467.750195 522.619428 
L 468.189301 469.855247 
L 468.628407 493.633655 
L 468.84796 555.713699 
L 469.067514 458.063898 
L 469.287067 513.241434 
L 469.50662 515.958252 
L 469.726173 483.080685 
L 469.945726 429.876069 
L 470.165279 522.178695 
L 470.384833 554.472522 
L 470.604386 402.928703 
L 470.823939 496.033248 
L 471.043492 333.071996 
L 471.263045 519.124563 
L 471.482598 471.293756 
L 471.702151 531.993308 
L 471.921705 372.37935 
L 472.141258 462.291097 
L 472.360811 442.546054 
L 472.580364 478.051292 
L 472.799917 449.691468 
L 473.01947 497.30054 
L 473.239024 506.907591 
L 473.67813 489.90157 
L 474.117236 458.852431 
L 474.336789 541.368466 
L 474.775896 277.612407 
L 474.995449 493.047923 
L 475.434555 444.04678 
L 475.654108 479.099543 
L 475.873661 403.563131 
L 476.093215 554.182508 
L 476.751874 475.101836 
L 476.971427 386.622622 
L 477.19098 518.162174 
L 477.410533 438.316787 
L 477.630087 479.903943 
L 477.84964 420.33728 
L 478.288746 551.804604 
L 478.508299 530.013397 
L 478.727852 407.519753 
L 478.947406 481.435558 
L 479.166959 338.931128 
L 479.386512 497.748009 
L 479.606065 525.613946 
L 479.825618 366.16512 
L 480.045171 428.657395 
L 480.264724 372.151052 
L 480.703831 489.921007 
L 480.923384 504.406891 
L 481.142937 498.878772 
L 481.36249 414.193032 
L 481.801597 553.163758 
L 482.02115 468.154736 
L 482.240703 445.284766 
L 482.460256 507.137295 
L 482.679809 315.223124 
L 483.118915 532.065338 
L 483.558022 502.705871 
L 483.777575 470.7111 
L 483.997128 267.637164 
L 484.436234 531.281137 
L 484.655788 491.660873 
L 484.875341 516.148525 
L 485.094894 463.408457 
L 485.314447 501.162817 
L 485.753553 512.756835 
L 485.973106 347.45663 
L 486.19266 432.723935 
L 486.412213 472.191995 
L 486.631766 472.17408 
L 486.851319 556.903446 
L 487.070872 455.994859 
L 487.509979 509.038194 
L 487.729532 521.199561 
L 487.949085 396.923059 
L 488.168638 508.631712 
L 488.388191 496.801644 
L 488.607744 536.901848 
L 488.827297 494.535336 
L 489.046851 426.017538 
L 489.266404 516.690709 
L 489.485957 501.836501 
L 489.70551 475.428423 
L 489.925063 413.111137 
L 490.144616 215.809306 
L 490.364169 451.044901 
L 490.583723 428.554307 
L 490.803276 555.637075 
L 491.022829 408.908684 
L 491.242382 431.361416 
L 491.461935 399.764855 
L 491.681488 492.692872 
L 491.901042 435.752881 
L 492.120595 501.358087 
L 492.340148 504.505118 
L 492.559701 429.821453 
L 492.779254 446.739669 
L 492.998807 420.134084 
L 493.437914 544.910919 
L 493.657467 496.406504 
L 493.87702 474.91624 
L 494.096573 510.969849 
L 494.316126 353.002172 
L 494.535679 526.594516 
L 494.974786 420.273685 
L 495.194339 490.301624 
L 495.413892 482.042387 
L 495.633445 400.279351 
L 495.852998 502.853327 
L 496.292105 456.777808 
L 496.950764 544.447045 
L 497.170317 339.678219 
L 497.38987 496.056834 
L 497.609424 430.353218 
L 497.828977 465.913114 
L 498.04853 555.94934 
L 498.268083 534.663829 
L 498.707189 375.439682 
L 498.926742 335.598778 
L 499.146296 360.684824 
L 499.365849 504.6601 
L 499.585402 541.686469 
L 499.804955 542.077029 
L 500.024508 522.204614 
L 500.244061 408.797365 
L 500.683168 453.055617 
L 500.902721 520.262472 
L 501.122274 486.473244 
L 501.341827 551.212958 
L 501.56138 334.987372 
L 501.780933 428.00939 
L 502.000487 356.529514 
L 502.22004 543.99318 
L 502.439593 430.93322 
L 502.659146 484.280914 
L 502.878699 402.838562 
L 503.098252 423.627531 
L 503.317806 424.5465 
L 503.537359 317.528474 
L 503.976465 477.073264 
L 504.415571 416.346919 
L 504.635124 508.17408 
L 504.854678 466.535202 
L 505.074231 361.906572 
L 505.293784 411.263301 
L 505.513337 357.03121 
L 505.73289 492.321777 
L 505.952443 380.761713 
L 506.171997 466.198978 
L 506.39155 420.275496 
L 506.611103 483.945516 
L 506.830656 504.666532 
L 507.050209 311.916602 
L 507.269762 480.551364 
L 507.489315 361.669999 
L 507.708869 532.915412 
L 507.928422 254.841603 
L 508.147975 492.725131 
L 508.367528 527.900604 
L 508.587081 360.40511 
L 508.806634 474.848055 
L 509.026188 458.063838 
L 509.465294 500.355053 
L 509.684847 490.912177 
L 510.123953 507.454573 
L 510.343506 449.493359 
L 510.56306 429.072635 
L 510.782613 450.292804 
L 511.002166 421.774999 
L 511.441272 479.253117 
L 511.660825 457.333613 
L 511.880379 470.708642 
L 512.099932 455.720588 
L 512.319485 345.136004 
L 512.758591 548.207691 
L 512.978144 515.556119 
L 513.197697 388.216932 
L 513.417251 558.429035 
L 513.636804 319.614903 
L 513.856357 534.748206 
L 514.07591 443.290839 
L 514.515016 514.709583 
L 514.73457 285.133648 
L 514.954123 312.649776 
L 515.173676 413.86497 
L 515.393229 446.22065 
L 515.612782 431.479915 
L 515.832335 305.383017 
L 516.051888 510.91051 
L 516.271442 517.980518 
L 516.490995 467.288394 
L 516.710548 350.051015 
L 516.930101 456.2949 
L 517.149654 452.17329 
L 517.58876 378.725336 
L 517.808314 513.210864 
L 518.027867 414.191309 
L 518.24742 509.237294 
L 518.686526 432.173793 
L 518.906079 457.981118 
L 519.125633 502.523864 
L 519.564739 429.985047 
L 519.784292 466.02841 
L 520.003845 545.490342 
L 520.223398 495.90866 
L 520.442951 476.264593 
L 520.662505 398.438036 
L 520.882058 439.362789 
L 521.101611 407.909111 
L 521.321164 511.61154 
L 521.540717 523.186108 
L 521.76027 356.734106 
L 522.199377 568.625632 
L 522.41893 416.152623 
L 522.638483 424.57728 
L 522.858036 553.015319 
L 523.077589 478.158944 
L 523.297142 361.989224 
L 523.516696 512.72301 
L 523.736249 381.71324 
L 524.394908 472.575998 
L 524.614461 440.608188 
L 524.834015 527.981735 
L 525.053568 518.839568 
L 525.273121 477.495657 
L 525.492674 521.849083 
L 525.712227 294.104448 
L 525.93178 501.488941 
L 526.151333 462.479467 
L 526.370887 523.705806 
L 526.59044 528.489471 
L 526.809993 326.718252 
L 527.029546 494.768247 
L 527.249099 498.198319 
L 527.468652 474.248047 
L 527.688206 377.357039 
L 527.907759 520.539174 
L 528.127312 422.135832 
L 528.346865 494.067823 
L 528.566418 406.08408 
L 528.785971 483.107428 
L 529.005524 400.965078 
L 529.225078 558.411122 
L 529.444631 508.82977 
L 529.664184 534.798937 
L 529.883737 385.511408 
L 530.10329 511.166045 
L 530.322843 487.684358 
L 530.542397 441.366128 
L 530.76195 430.429994 
L 530.981503 485.04236 
L 531.201056 498.710123 
L 531.420609 475.756954 
L 531.640162 383.640076 
L 531.859715 454.491576 
L 532.079269 452.120024 
L 532.298822 475.861556 
L 532.518375 453.360343 
L 532.737928 504.148286 
L 532.957481 457.967055 
L 533.177034 530.623607 
L 533.396588 396.796178 
L 533.616141 494.709535 
L 534.055247 484.573826 
L 534.2748 527.490163 
L 534.494353 432.213043 
L 534.713906 511.580989 
L 534.93346 469.639492 
L 535.153013 476.539333 
L 535.372566 464.881671 
L 535.592119 388.182709 
L 535.811672 474.601762 
L 536.031225 456.376853 
L 536.250779 468.717955 
L 536.470332 331.450258 
L 536.689885 434.987038 
L 536.909438 460.418543 
L 537.128991 450.409166 
L 537.348544 517.799263 
L 537.568097 499.949961 
L 537.787651 533.042503 
L 538.007204 400.941656 
L 538.226757 408.623189 
L 538.44631 497.12068 
L 538.665863 382.159347 
L 538.885416 483.551058 
L 539.10497 430.435134 
L 539.324523 480.62286 
L 539.544076 476.942055 
L 539.763629 418.206191 
L 539.983182 516.742271 
L 540.422288 458.699801 
L 540.641842 553.441523 
L 540.861395 410.760374 
L 541.080948 414.42016 
L 541.300501 539.603389 
L 541.520054 508.681812 
L 541.739607 453.181864 
L 541.95916 366.022231 
L 542.178714 469.320217 
L 542.398267 414.292796 
L 542.61782 493.28303 
L 542.837373 444.430408 
L 543.056926 360.368792 
L 543.276479 508.855879 
L 543.496033 425.276491 
L 543.715586 402.672385 
L 543.935139 303.341012 
L 544.154692 348.764001 
L 544.374245 513.478611 
L 544.593798 390.5119 
L 544.813351 487.84555 
L 545.032905 494.72467 
L 545.252458 384.24372 
L 545.472011 492.275891 
L 545.691564 419.620875 
L 545.911117 534.351649 
L 546.13067 399.555653 
L 546.350224 483.42751 
L 546.569777 411.076024 
L 546.78933 427.790533 
L 547.228436 489.855275 
L 547.447989 521.427463 
L 547.667542 416.846598 
L 547.887096 498.697032 
L 548.106649 467.032324 
L 548.326202 394.780694 
L 548.545755 437.737887 
L 548.765308 431.891007 
L 548.984861 488.621408 
L 549.204415 391.51396 
L 549.423968 531.472389 
L 549.643521 394.09492 
L 549.863074 480.686474 
L 550.082627 415.175408 
L 550.30218 509.464113 
L 550.521733 445.095605 
L 550.741287 526.98569 
L 550.96084 417.225745 
L 551.399946 520.40553 
L 551.619499 483.809194 
L 551.839052 489.771743 
L 552.058606 418.40665 
L 552.278159 549.328918 
L 552.497712 444.79637 
L 552.717265 428.058484 
L 552.936818 502.209258 
L 553.375924 384.554433 
L 554.034584 480.099579 
L 554.254137 446.160595 
L 554.47369 352.518869 
L 554.693243 537.652266 
L 554.912797 388.636738 
L 555.13235 476.995753 
L 555.351903 420.344878 
L 555.571456 399.625116 
L 555.791009 442.776214 
L 556.010562 408.621316 
L 556.230115 490.053569 
L 556.449669 405.941092 
L 556.669222 421.129529 
L 556.888775 388.308239 
L 557.108328 495.02305 
L 557.327881 479.324923 
L 557.766988 513.557144 
L 557.986541 406.101601 
L 558.206094 499.49034 
L 558.425647 502.132876 
L 558.6452 576.215817 
L 558.864753 466.776598 
L 559.084306 509.071683 
L 559.30386 473.152463 
L 559.523413 334.959402 
L 559.742966 505.120242 
L 559.742966 505.120242 
" style="fill:none;stroke:#96c69a;stroke-linecap:round;stroke-width:3;"/>
   </g>
   <g id="line2d_2"/>
   <g id="patch_3">
    <path d="M 98.911875 603.86 
L 98.911875 109.484571 
" style="fill:none;stroke:#262626;stroke-linecap:square;stroke-linejoin:miter;stroke-width:2.5;"/>
   </g>
   <g id="patch_4">
    <path d="M 98.911875 603.86 
L 581.687304 603.86 
" style="fill:none;stroke:#262626;stroke-linecap:square;stroke-linejoin:miter;stroke-width:2.5;"/>
   </g>
   <g id="legend_1">
    <g id="patch_5">
     <path d="M 528.771679 598.86 
L 574.687304 598.86 
Q 576.687304 598.86 576.687304 596.86 
L 576.687304 554.954375 
Q 576.687304 552.954375 574.687304 552.954375 
L 528.771679 552.954375 
Q 526.771679 552.954375 526.771679 554.954375 
L 526.771679 596.86 
Q 526.771679 598.86 528.771679 598.86 
z
" style="fill:#ffffff;opacity:0.8;stroke:#cccccc;stroke-linejoin:miter;stroke-width:2;"/>
    </g>
    <g id="text_17">
     <!-- $n_\tau$ -->
     <g style="fill:#262626;" transform="translate(538.649491 575.190625)scale(0.24 -0.24)">
      <defs>
       <path d="M 3566 2113 
L 3156 0 
L 2578 0 
L 2988 2091 
Q 3016 2238 3031 2350 
Q 3047 2463 3047 2528 
Q 3047 2791 2881 2937 
Q 2716 3084 2419 3084 
Q 1956 3084 1622 2776 
Q 1288 2469 1184 1941 
L 800 0 
L 225 0 
L 903 3500 
L 1478 3500 
L 1363 2950 
Q 1603 3253 1940 3418 
Q 2278 3584 2650 3584 
Q 3113 3584 3367 3334 
Q 3622 3084 3622 2631 
Q 3622 2519 3608 2391 
Q 3594 2263 3566 2113 
z
" id="DejaVuSans-Oblique-6e" transform="scale(0.015625)"/>
       <path d="M 2103 638 
Q 2188 488 2525 488 
L 2800 488 
L 2706 0 
L 2363 0 
Q 1800 0 1600 300 
Q 1403 606 1534 1269 
L 1856 2925 
L 541 2925 
L 653 3500 
L 3881 3500 
L 3769 2925 
L 2444 2925 
L 2113 1234 
Q 2025 781 2103 638 
z
" id="DejaVuSans-Oblique-3c4" transform="scale(0.015625)"/>
      </defs>
      <use xlink:href="#DejaVuSans-Oblique-6e"/>
      <use transform="translate(63.378906 -16.40625)scale(0.7)" xlink:href="#DejaVuSans-Oblique-3c4"/>
     </g>
    </g>
    <g id="line2d_3">
     <path d="M 530.771679 589.280313 
L 550.771679 589.280313 
" style="fill:none;stroke:#96c69a;stroke-linecap:round;stroke-width:3;"/>
    </g>
    <g id="line2d_4"/>
    <g id="text_18">
     <!-- 20 -->
     <g style="fill:#262626;" transform="translate(558.771679 592.780313)scale(0.1 -0.1)">
      <defs>
       <path d="M 1844 884 
L 3897 884 
L 3897 0 
L 506 0 
L 506 884 
L 2209 2388 
Q 2438 2594 2547 2791 
Q 2656 2988 2656 3200 
Q 2656 3528 2436 3728 
Q 2216 3928 1850 3928 
Q 1569 3928 1234 3808 
Q 900 3688 519 3450 
L 519 4475 
Q 925 4609 1322 4679 
Q 1719 4750 2100 4750 
Q 2938 4750 3402 4381 
Q 3866 4013 3866 3353 
Q 3866 2972 3669 2642 
Q 3472 2313 2841 1759 
L 1844 884 
z
" id="DejaVuSans-Bold-32" transform="scale(0.015625)"/>
       <path d="M 2944 2338 
Q 2944 3213 2780 3570 
Q 2616 3928 2228 3928 
Q 1841 3928 1675 3570 
Q 1509 3213 1509 2338 
Q 1509 1453 1675 1090 
Q 1841 728 2228 728 
Q 2613 728 2778 1090 
Q 2944 1453 2944 2338 
z
M 4147 2328 
Q 4147 1169 3647 539 
Q 3147 -91 2228 -91 
Q 1306 -91 806 539 
Q 306 1169 306 2328 
Q 306 3491 806 4120 
Q 1306 4750 2228 4750 
Q 3147 4750 3647 4120 
Q 4147 3491 4147 2328 
z
" id="DejaVuSans-Bold-30" transform="scale(0.015625)"/>
      </defs>
      <use xlink:href="#DejaVuSans-Bold-32"/>
      <use x="69.580078" xlink:href="#DejaVuSans-Bold-30"/>
     </g>
    </g>
   </g>
  </g>
  <g id="axes_2">
   <g id="patch_6">
    <path d="M 98.911875 92.437143 
L 581.687304 92.437143 
L 581.687304 7.2 
L 98.911875 7.2 
z
" style="fill:none;"/>
   </g>
   <g id="matplotlib.axis_3">
    <g id="xtick_7"/>
    <g id="xtick_8"/>
    <g id="xtick_9"/>
    <g id="xtick_10"/>
    <g id="xtick_11"/>
    <g id="xtick_12"/>
   </g>
   <g id="matplotlib.axis_4">
    <g id="ytick_9">
     <g id="text_19">
      <!-- 0 -->
      <g style="fill:#262626;" transform="translate(69.414375 100.795424)scale(0.22 -0.22)">
       <use xlink:href="#DejaVuSans-30"/>
      </g>
     </g>
    </g>
    <g id="ytick_10">
     <g id="text_20">
      <!-- 100 -->
      <g style="fill:#262626;" transform="translate(41.419375 48.082287)scale(0.22 -0.22)">
       <use xlink:href="#DejaVuSans-31"/>
       <use x="63.623047" xlink:href="#DejaVuSans-30"/>
       <use x="127.246094" xlink:href="#DejaVuSans-30"/>
      </g>
     </g>
    </g>
   </g>
   <g id="patch_7">
    <path clip-path="url(#p897306049a)" d="M 120.856213 92.437143 
L 154.616732 92.437143 
L 154.616732 11.258912 
L 120.856213 11.258912 
z
" style="fill:#96c69a;fill-opacity:0.5;stroke:#ffffff;stroke-linejoin:miter;stroke-width:2;"/>
   </g>
   <g id="patch_8">
    <path clip-path="url(#p897306049a)" d="M 154.616732 92.437143 
L 188.377252 92.437143 
L 188.377252 11.258912 
L 154.616732 11.258912 
z
" style="fill:#96c69a;fill-opacity:0.5;stroke:#ffffff;stroke-linejoin:miter;stroke-width:2;"/>
   </g>
   <g id="patch_9">
    <path clip-path="url(#p897306049a)" d="M 188.377252 92.437143 
L 222.137771 92.437143 
L 222.137771 11.258912 
L 188.377252 11.258912 
z
" style="fill:#96c69a;fill-opacity:0.5;stroke:#ffffff;stroke-linejoin:miter;stroke-width:2;"/>
   </g>
   <g id="patch_10">
    <path clip-path="url(#p897306049a)" d="M 222.137771 92.437143 
L 255.898291 92.437143 
L 255.898291 11.258912 
L 222.137771 11.258912 
z
" style="fill:#96c69a;fill-opacity:0.5;stroke:#ffffff;stroke-linejoin:miter;stroke-width:2;"/>
   </g>
   <g id="patch_11">
    <path clip-path="url(#p897306049a)" d="M 255.898291 92.437143 
L 289.65881 92.437143 
L 289.65881 11.786043 
L 255.898291 11.786043 
z
" style="fill:#96c69a;fill-opacity:0.5;stroke:#ffffff;stroke-linejoin:miter;stroke-width:2;"/>
   </g>
   <g id="patch_12">
    <path clip-path="url(#p897306049a)" d="M 289.65881 92.437143 
L 323.41933 92.437143 
L 323.41933 11.258912 
L 289.65881 11.258912 
z
" style="fill:#96c69a;fill-opacity:0.5;stroke:#ffffff;stroke-linejoin:miter;stroke-width:2;"/>
   </g>
   <g id="patch_13">
    <path clip-path="url(#p897306049a)" d="M 323.41933 92.437143 
L 357.179849 92.437143 
L 357.179849 11.258912 
L 323.41933 11.258912 
z
" style="fill:#96c69a;fill-opacity:0.5;stroke:#ffffff;stroke-linejoin:miter;stroke-width:2;"/>
   </g>
   <g id="patch_14">
    <path clip-path="url(#p897306049a)" d="M 357.179849 92.437143 
L 390.940369 92.437143 
L 390.940369 11.258912 
L 357.179849 11.258912 
z
" style="fill:#96c69a;fill-opacity:0.5;stroke:#ffffff;stroke-linejoin:miter;stroke-width:2;"/>
   </g>
   <g id="patch_15">
    <path clip-path="url(#p897306049a)" d="M 390.940369 92.437143 
L 424.700888 92.437143 
L 424.700888 11.786043 
L 390.940369 11.786043 
z
" style="fill:#96c69a;fill-opacity:0.5;stroke:#ffffff;stroke-linejoin:miter;stroke-width:2;"/>
   </g>
   <g id="patch_16">
    <path clip-path="url(#p897306049a)" d="M 424.700888 92.437143 
L 458.461407 92.437143 
L 458.461407 11.258912 
L 424.700888 11.258912 
z
" style="fill:#96c69a;fill-opacity:0.5;stroke:#ffffff;stroke-linejoin:miter;stroke-width:2;"/>
   </g>
   <g id="patch_17">
    <path clip-path="url(#p897306049a)" d="M 458.461407 92.437143 
L 492.221927 92.437143 
L 492.221927 11.258912 
L 458.461407 11.258912 
z
" style="fill:#96c69a;fill-opacity:0.5;stroke:#ffffff;stroke-linejoin:miter;stroke-width:2;"/>
   </g>
   <g id="patch_18">
    <path clip-path="url(#p897306049a)" d="M 492.221927 92.437143 
L 525.982446 92.437143 
L 525.982446 11.258912 
L 492.221927 11.258912 
z
" style="fill:#96c69a;fill-opacity:0.5;stroke:#ffffff;stroke-linejoin:miter;stroke-width:2;"/>
   </g>
   <g id="patch_19">
    <path clip-path="url(#p897306049a)" d="M 525.982446 92.437143 
L 559.742966 92.437143 
L 559.742966 11.258912 
L 525.982446 11.258912 
z
" style="fill:#96c69a;fill-opacity:0.5;stroke:#ffffff;stroke-linejoin:miter;stroke-width:2;"/>
   </g>
   <g id="patch_20">
    <path d="M 98.911875 92.437143 
L 98.911875 7.2 
" style="fill:none;stroke:#262626;stroke-linecap:square;stroke-linejoin:miter;stroke-width:2.5;"/>
   </g>
   <g id="patch_21">
    <path d="M 98.911875 92.437143 
L 581.687304 92.437143 
" style="fill:none;stroke:#262626;stroke-linecap:square;stroke-linejoin:miter;stroke-width:2.5;"/>
   </g>
  </g>
  <g id="axes_3">
   <g id="patch_22">
    <path d="M 598.334732 603.86 
L 681.571875 603.86 
L 681.571875 109.484571 
L 598.334732 109.484571 
z
" style="fill:none;"/>
   </g>
   <g id="matplotlib.axis_5">
    <g id="xtick_13">
     <g id="text_21">
      <!-- 0 -->
      <g style="fill:#262626;" transform="translate(591.335982 636.076563)scale(0.22 -0.22)">
       <use xlink:href="#DejaVuSans-30"/>
      </g>
     </g>
    </g>
    <g id="xtick_14">
     <g id="text_22">
      <!-- 100 -->
      <g style="fill:#262626;" transform="translate(620.421889 636.076563)scale(0.22 -0.22)">
       <use xlink:href="#DejaVuSans-31"/>
       <use x="63.623047" xlink:href="#DejaVuSans-30"/>
       <use x="127.246094" xlink:href="#DejaVuSans-30"/>
      </g>
     </g>
    </g>
   </g>
   <g id="matplotlib.axis_6">
    <g id="ytick_11"/>
    <g id="ytick_12"/>
    <g id="ytick_13"/>
    <g id="ytick_14"/>
    <g id="ytick_15"/>
    <g id="ytick_16"/>
    <g id="ytick_17"/>
    <g id="ytick_18"/>
   </g>
   <g id="patch_23">
    <path clip-path="url(#pd93685ca8c)" d="M 598.334732 581.38839 
L 601.781405 581.38839 
L 601.781405 569.241573 
L 598.334732 569.241573 
z
" style="fill:#96c69a;fill-opacity:0.5;stroke:#ffffff;stroke-linejoin:miter;stroke-width:1.214682;"/>
   </g>
   <g id="patch_24">
    <path clip-path="url(#pd93685ca8c)" d="M 598.334732 569.241573 
L 606.52058 569.241573 
L 606.52058 557.094757 
L 598.334732 557.094757 
z
" style="fill:#96c69a;fill-opacity:0.5;stroke:#ffffff;stroke-linejoin:miter;stroke-width:1.214682;"/>
   </g>
   <g id="patch_25">
    <path clip-path="url(#pd93685ca8c)" d="M 598.334732 557.094757 
L 620.738104 557.094757 
L 620.738104 544.94794 
L 598.334732 544.94794 
z
" style="fill:#96c69a;fill-opacity:0.5;stroke:#ffffff;stroke-linejoin:miter;stroke-width:1.214682;"/>
   </g>
   <g id="patch_26">
    <path clip-path="url(#pd93685ca8c)" d="M 598.334732 544.94794 
L 636.248131 544.94794 
L 636.248131 532.801124 
L 598.334732 532.801124 
z
" style="fill:#96c69a;fill-opacity:0.5;stroke:#ffffff;stroke-linejoin:miter;stroke-width:1.214682;"/>
   </g>
   <g id="patch_27">
    <path clip-path="url(#pd93685ca8c)" d="M 598.334732 532.801124 
L 656.497332 532.801124 
L 656.497332 520.654307 
L 598.334732 520.654307 
z
" style="fill:#96c69a;fill-opacity:0.5;stroke:#ffffff;stroke-linejoin:miter;stroke-width:1.214682;"/>
   </g>
   <g id="patch_28">
    <path clip-path="url(#pd93685ca8c)" d="M 598.334732 520.654307 
L 660.805673 520.654307 
L 660.805673 508.507491 
L 598.334732 508.507491 
z
" style="fill:#96c69a;fill-opacity:0.5;stroke:#ffffff;stroke-linejoin:miter;stroke-width:1.214682;"/>
   </g>
   <g id="patch_29">
    <path clip-path="url(#pd93685ca8c)" d="M 598.334732 508.507491 
L 671.14569 508.507491 
L 671.14569 496.360675 
L 598.334732 496.360675 
z
" style="fill:#96c69a;fill-opacity:0.5;stroke:#ffffff;stroke-linejoin:miter;stroke-width:1.214682;"/>
   </g>
   <g id="patch_30">
    <path clip-path="url(#pd93685ca8c)" d="M 598.334732 496.360675 
L 677.608202 496.360675 
L 677.608202 484.213858 
L 598.334732 484.213858 
z
" style="fill:#96c69a;fill-opacity:0.5;stroke:#ffffff;stroke-linejoin:miter;stroke-width:1.214682;"/>
   </g>
   <g id="patch_31">
    <path clip-path="url(#pd93685ca8c)" d="M 598.334732 484.213858 
L 671.14569 484.213858 
L 671.14569 472.067042 
L 598.334732 472.067042 
z
" style="fill:#96c69a;fill-opacity:0.5;stroke:#ffffff;stroke-linejoin:miter;stroke-width:1.214682;"/>
   </g>
   <g id="patch_32">
    <path clip-path="url(#pd93685ca8c)" d="M 598.334732 472.067042 
L 672.007359 472.067042 
L 672.007359 459.920225 
L 598.334732 459.920225 
z
" style="fill:#96c69a;fill-opacity:0.5;stroke:#ffffff;stroke-linejoin:miter;stroke-width:1.214682;"/>
   </g>
   <g id="patch_33">
    <path clip-path="url(#pd93685ca8c)" d="M 598.334732 459.920225 
L 665.544847 459.920225 
L 665.544847 447.773409 
L 598.334732 447.773409 
z
" style="fill:#96c69a;fill-opacity:0.5;stroke:#ffffff;stroke-linejoin:miter;stroke-width:1.214682;"/>
   </g>
   <g id="patch_34">
    <path clip-path="url(#pd93685ca8c)" d="M 598.334732 447.773409 
L 652.188991 447.773409 
L 652.188991 435.626592 
L 598.334732 435.626592 
z
" style="fill:#96c69a;fill-opacity:0.5;stroke:#ffffff;stroke-linejoin:miter;stroke-width:1.214682;"/>
   </g>
   <g id="patch_35">
    <path clip-path="url(#pd93685ca8c)" d="M 598.334732 435.626592 
L 644.003144 435.626592 
L 644.003144 423.479776 
L 598.334732 423.479776 
z
" style="fill:#96c69a;fill-opacity:0.5;stroke:#ffffff;stroke-linejoin:miter;stroke-width:1.214682;"/>
   </g>
   <g id="patch_36">
    <path clip-path="url(#pd93685ca8c)" d="M 598.334732 423.479776 
L 639.263969 423.479776 
L 639.263969 411.33296 
L 598.334732 411.33296 
z
" style="fill:#96c69a;fill-opacity:0.5;stroke:#ffffff;stroke-linejoin:miter;stroke-width:1.214682;"/>
   </g>
   <g id="patch_37">
    <path clip-path="url(#pd93685ca8c)" d="M 598.334732 411.33296 
L 634.524794 411.33296 
L 634.524794 399.186143 
L 598.334732 399.186143 
z
" style="fill:#96c69a;fill-opacity:0.5;stroke:#ffffff;stroke-linejoin:miter;stroke-width:1.214682;"/>
   </g>
   <g id="patch_38">
    <path clip-path="url(#pd93685ca8c)" d="M 598.334732 399.186143 
L 627.631449 399.186143 
L 627.631449 387.039327 
L 598.334732 387.039327 
z
" style="fill:#96c69a;fill-opacity:0.5;stroke:#ffffff;stroke-linejoin:miter;stroke-width:1.214682;"/>
   </g>
   <g id="patch_39">
    <path clip-path="url(#pd93685ca8c)" d="M 598.334732 387.039327 
L 620.738104 387.039327 
L 620.738104 374.89251 
L 598.334732 374.89251 
z
" style="fill:#96c69a;fill-opacity:0.5;stroke:#ffffff;stroke-linejoin:miter;stroke-width:1.214682;"/>
   </g>
   <g id="patch_40">
    <path clip-path="url(#pd93685ca8c)" d="M 598.334732 374.89251 
L 613.844759 374.89251 
L 613.844759 362.745694 
L 598.334732 362.745694 
z
" style="fill:#96c69a;fill-opacity:0.5;stroke:#ffffff;stroke-linejoin:miter;stroke-width:1.214682;"/>
   </g>
   <g id="patch_41">
    <path clip-path="url(#pd93685ca8c)" d="M 598.334732 362.745694 
L 612.552257 362.745694 
L 612.552257 350.598878 
L 598.334732 350.598878 
z
" style="fill:#96c69a;fill-opacity:0.5;stroke:#ffffff;stroke-linejoin:miter;stroke-width:1.214682;"/>
   </g>
   <g id="patch_42">
    <path clip-path="url(#pd93685ca8c)" d="M 598.334732 350.598878 
L 611.690588 350.598878 
L 611.690588 338.452061 
L 598.334732 338.452061 
z
" style="fill:#96c69a;fill-opacity:0.5;stroke:#ffffff;stroke-linejoin:miter;stroke-width:1.214682;"/>
   </g>
   <g id="patch_43">
    <path clip-path="url(#pd93685ca8c)" d="M 598.334732 338.452061 
L 605.658911 338.452061 
L 605.658911 326.305245 
L 598.334732 326.305245 
z
" style="fill:#96c69a;fill-opacity:0.5;stroke:#ffffff;stroke-linejoin:miter;stroke-width:1.214682;"/>
   </g>
   <g id="patch_44">
    <path clip-path="url(#pd93685ca8c)" d="M 598.334732 326.305245 
L 603.935575 326.305245 
L 603.935575 314.158428 
L 598.334732 314.158428 
z
" style="fill:#96c69a;fill-opacity:0.5;stroke:#ffffff;stroke-linejoin:miter;stroke-width:1.214682;"/>
   </g>
   <g id="patch_45">
    <path clip-path="url(#pd93685ca8c)" d="M 598.334732 314.158428 
L 603.073907 314.158428 
L 603.073907 302.011612 
L 598.334732 302.011612 
z
" style="fill:#96c69a;fill-opacity:0.5;stroke:#ffffff;stroke-linejoin:miter;stroke-width:1.214682;"/>
   </g>
   <g id="patch_46">
    <path clip-path="url(#pd93685ca8c)" d="M 598.334732 302.011612 
L 602.643073 302.011612 
L 602.643073 289.864795 
L 598.334732 289.864795 
z
" style="fill:#96c69a;fill-opacity:0.5;stroke:#ffffff;stroke-linejoin:miter;stroke-width:1.214682;"/>
   </g>
   <g id="patch_47">
    <path clip-path="url(#pd93685ca8c)" d="M 598.334732 289.864795 
L 600.488903 289.864795 
L 600.488903 277.717979 
L 598.334732 277.717979 
z
" style="fill:#96c69a;fill-opacity:0.5;stroke:#ffffff;stroke-linejoin:miter;stroke-width:1.214682;"/>
   </g>
   <g id="patch_48">
    <path clip-path="url(#pd93685ca8c)" d="M 598.334732 277.717979 
L 600.919737 277.717979 
L 600.919737 265.571163 
L 598.334732 265.571163 
z
" style="fill:#96c69a;fill-opacity:0.5;stroke:#ffffff;stroke-linejoin:miter;stroke-width:1.214682;"/>
   </g>
   <g id="patch_49">
    <path clip-path="url(#pd93685ca8c)" d="M 598.334732 265.571163 
L 599.627234 265.571163 
L 599.627234 253.424346 
L 598.334732 253.424346 
z
" style="fill:#96c69a;fill-opacity:0.5;stroke:#ffffff;stroke-linejoin:miter;stroke-width:1.214682;"/>
   </g>
   <g id="patch_50">
    <path clip-path="url(#pd93685ca8c)" d="M 598.334732 253.424346 
L 598.765566 253.424346 
L 598.765566 241.27753 
L 598.334732 241.27753 
z
" style="fill:#96c69a;fill-opacity:0.5;stroke:#ffffff;stroke-linejoin:miter;stroke-width:1.214682;"/>
   </g>
   <g id="patch_51">
    <path clip-path="url(#pd93685ca8c)" d="M 598.334732 241.27753 
L 598.765566 241.27753 
L 598.765566 229.130713 
L 598.334732 229.130713 
z
" style="fill:#96c69a;fill-opacity:0.5;stroke:#ffffff;stroke-linejoin:miter;stroke-width:1.214682;"/>
   </g>
   <g id="patch_52">
    <path clip-path="url(#pd93685ca8c)" d="M 598.334732 229.130713 
L 600.058068 229.130713 
L 600.058068 216.983897 
L 598.334732 216.983897 
z
" style="fill:#96c69a;fill-opacity:0.5;stroke:#ffffff;stroke-linejoin:miter;stroke-width:1.214682;"/>
   </g>
   <g id="patch_53">
    <path clip-path="url(#pd93685ca8c)" d="M 598.334732 216.983897 
L 598.765566 216.983897 
L 598.765566 204.83708 
L 598.334732 204.83708 
z
" style="fill:#96c69a;fill-opacity:0.5;stroke:#ffffff;stroke-linejoin:miter;stroke-width:1.214682;"/>
   </g>
   <g id="patch_54">
    <path clip-path="url(#pd93685ca8c)" d="M 598.334732 204.83708 
L 598.765566 204.83708 
L 598.765566 192.690264 
L 598.334732 192.690264 
z
" style="fill:#96c69a;fill-opacity:0.5;stroke:#ffffff;stroke-linejoin:miter;stroke-width:1.214682;"/>
   </g>
   <g id="patch_55">
    <path clip-path="url(#pd93685ca8c)" d="M 598.334732 192.690264 
L 598.334732 192.690264 
L 598.334732 180.543448 
L 598.334732 180.543448 
z
" style="fill:#96c69a;fill-opacity:0.5;stroke:#ffffff;stroke-linejoin:miter;stroke-width:1.214682;"/>
   </g>
   <g id="patch_56">
    <path clip-path="url(#pd93685ca8c)" d="M 598.334732 180.543448 
L 598.334732 180.543448 
L 598.334732 168.396631 
L 598.334732 168.396631 
z
" style="fill:#96c69a;fill-opacity:0.5;stroke:#ffffff;stroke-linejoin:miter;stroke-width:1.214682;"/>
   </g>
   <g id="patch_57">
    <path clip-path="url(#pd93685ca8c)" d="M 598.334732 168.396631 
L 598.334732 168.396631 
L 598.334732 156.249815 
L 598.334732 156.249815 
z
" style="fill:#96c69a;fill-opacity:0.5;stroke:#ffffff;stroke-linejoin:miter;stroke-width:1.214682;"/>
   </g>
   <g id="patch_58">
    <path clip-path="url(#pd93685ca8c)" d="M 598.334732 156.249815 
L 598.334732 156.249815 
L 598.334732 144.102998 
L 598.334732 144.102998 
z
" style="fill:#96c69a;fill-opacity:0.5;stroke:#ffffff;stroke-linejoin:miter;stroke-width:1.214682;"/>
   </g>
   <g id="patch_59">
    <path clip-path="url(#pd93685ca8c)" d="M 598.334732 144.102998 
L 598.765566 144.102998 
L 598.765566 131.956182 
L 598.334732 131.956182 
z
" style="fill:#96c69a;fill-opacity:0.5;stroke:#ffffff;stroke-linejoin:miter;stroke-width:1.214682;"/>
   </g>
   <g id="patch_60">
    <path d="M 598.334732 603.86 
L 598.334732 109.484571 
" style="fill:none;stroke:#262626;stroke-linecap:square;stroke-linejoin:miter;stroke-width:2.5;"/>
   </g>
   <g id="patch_61">
    <path d="M 598.334732 603.86 
L 681.571875 603.86 
" style="fill:none;stroke:#262626;stroke-linecap:square;stroke-linejoin:miter;stroke-width:2.5;"/>
   </g>
  </g>
 </g>
 <defs>
  <clipPath id="pf12040068a">
   <rect height="494.375429" width="482.775429" x="98.911875" y="109.484571"/>
  </clipPath>
  <clipPath id="p897306049a">
   <rect height="85.237143" width="482.775429" x="98.911875" y="7.2"/>
  </clipPath>
  <clipPath id="pd93685ca8c">
   <rect height="494.375429" width="83.237143" x="598.334732" y="109.484571"/>
  </clipPath>
 </defs>
</svg>
