<?xml version="1.0" encoding="utf-8" standalone="no"?>
<!DOCTYPE svg PUBLIC "-//W3C//DTD SVG 1.1//EN"
  "http://www.w3.org/Graphics/SVG/1.1/DTD/svg11.dtd">
<svg height="675.079375pt" version="1.1" viewBox="0 0 706.202811 675.079375" width="706.202811pt" xmlns="http://www.w3.org/2000/svg" xmlns:xlink="http://www.w3.org/1999/xlink">
 <metadata>
  <rdf:RDF xmlns:cc="http://creativecommons.org/ns#" xmlns:dc="http://purl.org/dc/elements/1.1/" xmlns:rdf="http://www.w3.org/1999/02/22-rdf-syntax-ns#">
   <cc:Work>
    <dc:type rdf:resource="http://purl.org/dc/dcmitype/StillImage"/>
    <dc:date>2021-07-16T21:44:03.963332</dc:date>
    <dc:format>image/svg+xml</dc:format>
    <dc:creator>
     <cc:Agent>
      <dc:title>Matplotlib v3.4.2, https://matplotlib.org/</dc:title>
     </cc:Agent>
    </dc:creator>
   </cc:Work>
  </rdf:RDF>
 </metadata>
 <defs>
  <style type="text/css">*{stroke-linecap:butt;stroke-linejoin:round;}</style>
 </defs>
 <g id="figure_1">
  <g id="patch_1">
   <path d="M 0 675.079375 
L 706.202811 675.079375 
L 706.202811 0 
L 0 0 
z
" style="fill:#ffffff;"/>
  </g>
  <g id="axes_1">
   <g id="patch_2">
    <path d="M 98.911875 603.86 
L 581.687304 603.86 
L 581.687304 109.484571 
L 98.911875 109.484571 
z
" style="fill:none;"/>
   </g>
   <g id="matplotlib.axis_1">
    <g id="xtick_1">
     <g id="text_1">
      <!-- 0 -->
      <g style="fill:#262626;" transform="translate(113.63791 636.076563)scale(0.22 -0.22)">
       <defs>
        <path d="M 2034 4250 
Q 1547 4250 1301 3770 
Q 1056 3291 1056 2328 
Q 1056 1369 1301 889 
Q 1547 409 2034 409 
Q 2525 409 2770 889 
Q 3016 1369 3016 2328 
Q 3016 3291 2770 3770 
Q 2525 4250 2034 4250 
z
M 2034 4750 
Q 2819 4750 3233 4129 
Q 3647 3509 3647 2328 
Q 3647 1150 3233 529 
Q 2819 -91 2034 -91 
Q 1250 -91 836 529 
Q 422 1150 422 2328 
Q 422 3509 836 4129 
Q 1250 4750 2034 4750 
z
" id="DejaVuSans-30" transform="scale(0.015625)"/>
       </defs>
       <use xlink:href="#DejaVuSans-30"/>
      </g>
     </g>
    </g>
    <g id="xtick_2">
     <g id="text_2">
      <!-- 20000 -->
      <g style="fill:#262626;" transform="translate(173.464171 636.076563)scale(0.22 -0.22)">
       <defs>
        <path d="M 1228 531 
L 3431 531 
L 3431 0 
L 469 0 
L 469 531 
Q 828 903 1448 1529 
Q 2069 2156 2228 2338 
Q 2531 2678 2651 2914 
Q 2772 3150 2772 3378 
Q 2772 3750 2511 3984 
Q 2250 4219 1831 4219 
Q 1534 4219 1204 4116 
Q 875 4013 500 3803 
L 500 4441 
Q 881 4594 1212 4672 
Q 1544 4750 1819 4750 
Q 2544 4750 2975 4387 
Q 3406 4025 3406 3419 
Q 3406 3131 3298 2873 
Q 3191 2616 2906 2266 
Q 2828 2175 2409 1742 
Q 1991 1309 1228 531 
z
" id="DejaVuSans-32" transform="scale(0.015625)"/>
       </defs>
       <use xlink:href="#DejaVuSans-32"/>
       <use x="63.623047" xlink:href="#DejaVuSans-30"/>
       <use x="127.246094" xlink:href="#DejaVuSans-30"/>
       <use x="190.869141" xlink:href="#DejaVuSans-30"/>
       <use x="254.492188" xlink:href="#DejaVuSans-30"/>
      </g>
     </g>
    </g>
    <g id="xtick_3">
     <g id="text_3">
      <!-- 40000 -->
      <g style="fill:#262626;" transform="translate(261.285432 636.076563)scale(0.22 -0.22)">
       <defs>
        <path d="M 2419 4116 
L 825 1625 
L 2419 1625 
L 2419 4116 
z
M 2253 4666 
L 3047 4666 
L 3047 1625 
L 3713 1625 
L 3713 1100 
L 3047 1100 
L 3047 0 
L 2419 0 
L 2419 1100 
L 313 1100 
L 313 1709 
L 2253 4666 
z
" id="DejaVuSans-34" transform="scale(0.015625)"/>
       </defs>
       <use xlink:href="#DejaVuSans-34"/>
       <use x="63.623047" xlink:href="#DejaVuSans-30"/>
       <use x="127.246094" xlink:href="#DejaVuSans-30"/>
       <use x="190.869141" xlink:href="#DejaVuSans-30"/>
       <use x="254.492188" xlink:href="#DejaVuSans-30"/>
      </g>
     </g>
    </g>
    <g id="xtick_4">
     <g id="text_4">
      <!-- 60000 -->
      <g style="fill:#262626;" transform="translate(349.106693 636.076563)scale(0.22 -0.22)">
       <defs>
        <path d="M 2113 2584 
Q 1688 2584 1439 2293 
Q 1191 2003 1191 1497 
Q 1191 994 1439 701 
Q 1688 409 2113 409 
Q 2538 409 2786 701 
Q 3034 994 3034 1497 
Q 3034 2003 2786 2293 
Q 2538 2584 2113 2584 
z
M 3366 4563 
L 3366 3988 
Q 3128 4100 2886 4159 
Q 2644 4219 2406 4219 
Q 1781 4219 1451 3797 
Q 1122 3375 1075 2522 
Q 1259 2794 1537 2939 
Q 1816 3084 2150 3084 
Q 2853 3084 3261 2657 
Q 3669 2231 3669 1497 
Q 3669 778 3244 343 
Q 2819 -91 2113 -91 
Q 1303 -91 875 529 
Q 447 1150 447 2328 
Q 447 3434 972 4092 
Q 1497 4750 2381 4750 
Q 2619 4750 2861 4703 
Q 3103 4656 3366 4563 
z
" id="DejaVuSans-36" transform="scale(0.015625)"/>
       </defs>
       <use xlink:href="#DejaVuSans-36"/>
       <use x="63.623047" xlink:href="#DejaVuSans-30"/>
       <use x="127.246094" xlink:href="#DejaVuSans-30"/>
       <use x="190.869141" xlink:href="#DejaVuSans-30"/>
       <use x="254.492188" xlink:href="#DejaVuSans-30"/>
      </g>
     </g>
    </g>
    <g id="xtick_5">
     <g id="text_5">
      <!-- 80000 -->
      <g style="fill:#262626;" transform="translate(436.927955 636.076563)scale(0.22 -0.22)">
       <defs>
        <path d="M 2034 2216 
Q 1584 2216 1326 1975 
Q 1069 1734 1069 1313 
Q 1069 891 1326 650 
Q 1584 409 2034 409 
Q 2484 409 2743 651 
Q 3003 894 3003 1313 
Q 3003 1734 2745 1975 
Q 2488 2216 2034 2216 
z
M 1403 2484 
Q 997 2584 770 2862 
Q 544 3141 544 3541 
Q 544 4100 942 4425 
Q 1341 4750 2034 4750 
Q 2731 4750 3128 4425 
Q 3525 4100 3525 3541 
Q 3525 3141 3298 2862 
Q 3072 2584 2669 2484 
Q 3125 2378 3379 2068 
Q 3634 1759 3634 1313 
Q 3634 634 3220 271 
Q 2806 -91 2034 -91 
Q 1263 -91 848 271 
Q 434 634 434 1313 
Q 434 1759 690 2068 
Q 947 2378 1403 2484 
z
M 1172 3481 
Q 1172 3119 1398 2916 
Q 1625 2713 2034 2713 
Q 2441 2713 2670 2916 
Q 2900 3119 2900 3481 
Q 2900 3844 2670 4047 
Q 2441 4250 2034 4250 
Q 1625 4250 1398 4047 
Q 1172 3844 1172 3481 
z
" id="DejaVuSans-38" transform="scale(0.015625)"/>
       </defs>
       <use xlink:href="#DejaVuSans-38"/>
       <use x="63.623047" xlink:href="#DejaVuSans-30"/>
       <use x="127.246094" xlink:href="#DejaVuSans-30"/>
       <use x="190.869141" xlink:href="#DejaVuSans-30"/>
       <use x="254.492188" xlink:href="#DejaVuSans-30"/>
      </g>
     </g>
    </g>
    <g id="xtick_6">
     <g id="text_6">
      <!-- 100000 -->
      <g style="fill:#262626;" transform="translate(517.750466 636.076563)scale(0.22 -0.22)">
       <defs>
        <path d="M 794 531 
L 1825 531 
L 1825 4091 
L 703 3866 
L 703 4441 
L 1819 4666 
L 2450 4666 
L 2450 531 
L 3481 531 
L 3481 0 
L 794 0 
L 794 531 
z
" id="DejaVuSans-31" transform="scale(0.015625)"/>
       </defs>
       <use xlink:href="#DejaVuSans-31"/>
       <use x="63.623047" xlink:href="#DejaVuSans-30"/>
       <use x="127.246094" xlink:href="#DejaVuSans-30"/>
       <use x="190.869141" xlink:href="#DejaVuSans-30"/>
       <use x="254.492188" xlink:href="#DejaVuSans-30"/>
       <use x="318.115234" xlink:href="#DejaVuSans-30"/>
      </g>
     </g>
    </g>
    <g id="text_7">
     <!-- MDTU -->
     <g style="fill:#262626;" transform="translate(304.593964 662.888125)scale(0.24 -0.24)">
      <defs>
       <path d="M 628 4666 
L 1569 4666 
L 2759 1491 
L 3956 4666 
L 4897 4666 
L 4897 0 
L 4281 0 
L 4281 4097 
L 3078 897 
L 2444 897 
L 1241 4097 
L 1241 0 
L 628 0 
L 628 4666 
z
" id="DejaVuSans-4d" transform="scale(0.015625)"/>
       <path d="M 1259 4147 
L 1259 519 
L 2022 519 
Q 2988 519 3436 956 
Q 3884 1394 3884 2338 
Q 3884 3275 3436 3711 
Q 2988 4147 2022 4147 
L 1259 4147 
z
M 628 4666 
L 1925 4666 
Q 3281 4666 3915 4102 
Q 4550 3538 4550 2338 
Q 4550 1131 3912 565 
Q 3275 0 1925 0 
L 628 0 
L 628 4666 
z
" id="DejaVuSans-44" transform="scale(0.015625)"/>
       <path d="M -19 4666 
L 3928 4666 
L 3928 4134 
L 2272 4134 
L 2272 0 
L 1638 0 
L 1638 4134 
L -19 4134 
L -19 4666 
z
" id="DejaVuSans-54" transform="scale(0.015625)"/>
       <path d="M 556 4666 
L 1191 4666 
L 1191 1831 
Q 1191 1081 1462 751 
Q 1734 422 2344 422 
Q 2950 422 3222 751 
Q 3494 1081 3494 1831 
L 3494 4666 
L 4128 4666 
L 4128 1753 
Q 4128 841 3676 375 
Q 3225 -91 2344 -91 
Q 1459 -91 1007 375 
Q 556 841 556 1753 
L 556 4666 
z
" id="DejaVuSans-55" transform="scale(0.015625)"/>
      </defs>
      <use xlink:href="#DejaVuSans-4d"/>
      <use x="86.279297" xlink:href="#DejaVuSans-44"/>
      <use x="163.28125" xlink:href="#DejaVuSans-54"/>
      <use x="224.365234" xlink:href="#DejaVuSans-55"/>
     </g>
    </g>
   </g>
   <g id="matplotlib.axis_2">
    <g id="ytick_1">
     <g id="text_8">
      <!-- 0.50 -->
      <g style="fill:#262626;" transform="translate(34.4275 545.187122)scale(0.22 -0.22)">
       <defs>
        <path d="M 684 794 
L 1344 794 
L 1344 0 
L 684 0 
L 684 794 
z
" id="DejaVuSans-2e" transform="scale(0.015625)"/>
        <path d="M 691 4666 
L 3169 4666 
L 3169 4134 
L 1269 4134 
L 1269 2991 
Q 1406 3038 1543 3061 
Q 1681 3084 1819 3084 
Q 2600 3084 3056 2656 
Q 3513 2228 3513 1497 
Q 3513 744 3044 326 
Q 2575 -91 1722 -91 
Q 1428 -91 1123 -41 
Q 819 9 494 109 
L 494 744 
Q 775 591 1075 516 
Q 1375 441 1709 441 
Q 2250 441 2565 725 
Q 2881 1009 2881 1497 
Q 2881 1984 2565 2268 
Q 2250 2553 1709 2553 
Q 1456 2553 1204 2497 
Q 953 2441 691 2322 
L 691 4666 
z
" id="DejaVuSans-35" transform="scale(0.015625)"/>
       </defs>
       <use xlink:href="#DejaVuSans-30"/>
       <use x="63.623047" xlink:href="#DejaVuSans-2e"/>
       <use x="95.410156" xlink:href="#DejaVuSans-35"/>
       <use x="159.033203" xlink:href="#DejaVuSans-30"/>
      </g>
     </g>
    </g>
    <g id="ytick_2">
     <g id="text_9">
      <!-- 0.75 -->
      <g style="fill:#262626;" transform="translate(34.4275 477.608921)scale(0.22 -0.22)">
       <defs>
        <path d="M 525 4666 
L 3525 4666 
L 3525 4397 
L 1831 0 
L 1172 0 
L 2766 4134 
L 525 4134 
L 525 4666 
z
" id="DejaVuSans-37" transform="scale(0.015625)"/>
       </defs>
       <use xlink:href="#DejaVuSans-30"/>
       <use x="63.623047" xlink:href="#DejaVuSans-2e"/>
       <use x="95.410156" xlink:href="#DejaVuSans-37"/>
       <use x="159.033203" xlink:href="#DejaVuSans-35"/>
      </g>
     </g>
    </g>
    <g id="ytick_3">
     <g id="text_10">
      <!-- 1.00 -->
      <g style="fill:#262626;" transform="translate(34.4275 410.030719)scale(0.22 -0.22)">
       <use xlink:href="#DejaVuSans-31"/>
       <use x="63.623047" xlink:href="#DejaVuSans-2e"/>
       <use x="95.410156" xlink:href="#DejaVuSans-30"/>
       <use x="159.033203" xlink:href="#DejaVuSans-30"/>
      </g>
     </g>
    </g>
    <g id="ytick_4">
     <g id="text_11">
      <!-- 1.25 -->
      <g style="fill:#262626;" transform="translate(34.4275 342.452517)scale(0.22 -0.22)">
       <use xlink:href="#DejaVuSans-31"/>
       <use x="63.623047" xlink:href="#DejaVuSans-2e"/>
       <use x="95.410156" xlink:href="#DejaVuSans-32"/>
       <use x="159.033203" xlink:href="#DejaVuSans-35"/>
      </g>
     </g>
    </g>
    <g id="ytick_5">
     <g id="text_12">
      <!-- 1.50 -->
      <g style="fill:#262626;" transform="translate(34.4275 274.874315)scale(0.22 -0.22)">
       <use xlink:href="#DejaVuSans-31"/>
       <use x="63.623047" xlink:href="#DejaVuSans-2e"/>
       <use x="95.410156" xlink:href="#DejaVuSans-35"/>
       <use x="159.033203" xlink:href="#DejaVuSans-30"/>
      </g>
     </g>
    </g>
    <g id="ytick_6">
     <g id="text_13">
      <!-- 1.75 -->
      <g style="fill:#262626;" transform="translate(34.4275 207.296114)scale(0.22 -0.22)">
       <use xlink:href="#DejaVuSans-31"/>
       <use x="63.623047" xlink:href="#DejaVuSans-2e"/>
       <use x="95.410156" xlink:href="#DejaVuSans-37"/>
       <use x="159.033203" xlink:href="#DejaVuSans-35"/>
      </g>
     </g>
    </g>
    <g id="ytick_7">
     <g id="text_14">
      <!-- 2.00 -->
      <g style="fill:#262626;" transform="translate(34.4275 139.717912)scale(0.22 -0.22)">
       <use xlink:href="#DejaVuSans-32"/>
       <use x="63.623047" xlink:href="#DejaVuSans-2e"/>
       <use x="95.410156" xlink:href="#DejaVuSans-30"/>
       <use x="159.033203" xlink:href="#DejaVuSans-30"/>
      </g>
     </g>
    </g>
    <g id="text_15">
     <!-- $E$ -->
     <g style="fill:#262626;" transform="translate(25.43625 364.352286)rotate(-90)scale(0.24 -0.24)">
      <defs>
       <path d="M 1081 4666 
L 4031 4666 
L 3928 4134 
L 1606 4134 
L 1338 2753 
L 3566 2753 
L 3463 2222 
L 1234 2222 
L 909 531 
L 3284 531 
L 3181 0 
L 172 0 
L 1081 4666 
z
" id="DejaVuSans-Oblique-45" transform="scale(0.015625)"/>
      </defs>
      <use transform="translate(0 0.09375)" xlink:href="#DejaVuSans-Oblique-45"/>
     </g>
    </g>
   </g>
   <g id="line2d_1">
    <path clip-path="url(#pc675f5df9f)" d="M 120.856213 493.508394 
L 121.075766 449.960673 
L 121.295319 459.988687 
L 121.734425 544.313578 
L 121.953978 472.170123 
L 122.173532 443.18065 
L 122.393085 482.93085 
L 122.612638 430.462546 
L 122.832191 480.666666 
L 123.051744 439.59274 
L 123.271297 443.101454 
L 123.490851 521.675281 
L 123.710404 454.607983 
L 123.929957 502.963964 
L 124.14951 484.025519 
L 124.588616 507.747368 
L 124.808169 479.969442 
L 125.027723 408.883722 
L 125.247276 439.496799 
L 125.466829 512.326484 
L 125.686382 388.407986 
L 126.125488 435.216273 
L 126.345041 541.338673 
L 126.564595 325.192213 
L 127.003701 568.91519 
L 127.223254 407.512921 
L 127.442807 363.065821 
L 127.66236 497.879354 
L 127.881914 532.038674 
L 128.101467 517.084711 
L 128.32102 459.368618 
L 128.540573 331.570534 
L 128.760126 452.644328 
L 128.979679 477.401184 
L 129.199232 465.874727 
L 129.418786 437.087787 
L 129.638339 448.958731 
L 129.857892 497.240409 
L 130.077445 466.054465 
L 130.516551 441.445517 
L 130.955658 520.306309 
L 131.394764 485.255789 
L 131.614317 526.517799 
L 132.053423 312.790048 
L 132.272977 516.797689 
L 132.49253 501.810049 
L 132.712083 383.678383 
L 132.931636 513.326472 
L 133.370742 396.201903 
L 133.590296 482.472581 
L 133.809849 436.116239 
L 134.029402 478.161725 
L 134.248955 422.146894 
L 134.907614 527.446536 
L 135.127168 508.767565 
L 135.346721 448.388161 
L 135.566274 468.545942 
L 135.785827 442.654491 
L 136.00538 522.737177 
L 136.224933 477.74184 
L 136.444487 377.299335 
L 136.883593 483.41429 
L 137.103146 479.096783 
L 137.322699 423.213232 
L 137.542252 406.329836 
L 137.761805 511.726093 
L 138.200912 424.944588 
L 138.420465 492.86672 
L 138.640018 439.730429 
L 138.859571 497.55465 
L 139.079124 447.971851 
L 139.298678 486.594687 
L 139.518231 407.728526 
L 139.737784 481.018534 
L 139.957337 389.13727 
L 140.396443 537.92357 
L 140.615996 542.216534 
L 140.83555 548.775074 
L 141.055103 360.515419 
L 141.494209 508.561088 
L 141.713762 478.59264 
L 141.933315 419.55256 
L 142.372422 430.365747 
L 142.591975 407.081078 
L 142.811528 490.153023 
L 143.031081 471.692964 
L 143.250634 521.028642 
L 143.470187 474.847763 
L 143.689741 388.137534 
L 143.909294 504.051571 
L 144.128847 347.600797 
L 144.3484 470.066315 
L 144.567953 498.458067 
L 144.787506 503.078502 
L 145.00706 417.325098 
L 145.226613 502.134293 
L 145.665719 457.465115 
L 146.104825 506.74677 
L 146.324378 352.017544 
L 146.543932 540.547152 
L 146.763485 464.183514 
L 146.983038 473.676446 
L 147.202591 512.729587 
L 147.422144 463.018671 
L 147.641697 498.047425 
L 147.861251 503.348895 
L 148.080804 452.415664 
L 148.300357 432.718165 
L 148.51991 473.144514 
L 149.178569 408.230459 
L 149.398123 519.181155 
L 149.617676 423.784062 
L 150.056782 533.371513 
L 150.276335 525.402513 
L 150.495888 439.037264 
L 150.715441 450.297561 
L 150.934995 477.621602 
L 151.154548 431.493307 
L 151.374101 520.166657 
L 151.813207 327.424853 
L 152.03276 432.114777 
L 152.252314 445.436599 
L 152.471867 368.250116 
L 152.69142 383.911042 
L 152.910973 492.068261 
L 153.130526 302.133606 
L 153.350079 560.376853 
L 153.569632 488.818651 
L 153.789186 512.26761 
L 154.008739 462.19412 
L 154.228292 475.418627 
L 154.447845 472.721793 
L 154.667398 411.712803 
L 155.106505 484.485296 
L 155.326058 468.068027 
L 155.545611 430.421086 
L 155.765164 494.580763 
L 155.984717 467.271012 
L 156.423823 562.278477 
L 156.643377 430.295432 
L 156.86293 395.497908 
L 157.082483 503.726069 
L 157.302036 444.746745 
L 157.521589 519.519958 
L 157.741142 530.722845 
L 157.960696 493.784114 
L 158.180249 479.911924 
L 158.399802 446.781746 
L 158.838908 468.66103 
L 159.058461 513.530438 
L 159.278014 476.204166 
L 159.497568 507.532136 
L 159.717121 407.883617 
L 159.936674 489.605324 
L 160.156227 352.390756 
L 160.37578 502.504891 
L 160.595333 463.577023 
L 160.814887 532.476684 
L 161.03444 383.169042 
L 161.253993 452.457481 
L 161.473546 457.436274 
L 161.693099 533.298681 
L 161.912652 476.703096 
L 162.132205 505.96624 
L 162.351759 390.491844 
L 162.571312 439.005542 
L 162.790865 426.035853 
L 163.010418 496.539639 
L 163.229971 459.57389 
L 163.669078 508.433037 
L 163.888631 447.355371 
L 164.108184 484.664631 
L 164.327737 452.302229 
L 164.54729 437.582982 
L 164.766843 435.328653 
L 165.20595 520.308464 
L 165.645056 405.166358 
L 165.864609 406.749291 
L 166.084162 484.489695 
L 166.523269 440.83983 
L 166.742822 470.446426 
L 166.962375 544.487099 
L 167.181928 439.590373 
L 167.401481 389.931969 
L 167.621034 470.160116 
L 167.840587 329.696143 
L 168.060141 493.567574 
L 168.279694 472.217252 
L 168.499247 515.519517 
L 168.7188 516.249781 
L 168.938353 501.637994 
L 169.157906 513.046025 
L 169.37746 442.635071 
L 169.597013 411.675644 
L 169.816566 506.055885 
L 170.036119 428.214532 
L 170.255672 524.933233 
L 170.475225 467.900624 
L 170.694778 338.221462 
L 170.914332 449.39234 
L 171.572991 512.593549 
L 172.231651 428.908384 
L 172.451204 320.178653 
L 172.670757 496.45922 
L 172.89031 443.071663 
L 173.109863 504.420921 
L 173.329416 495.672396 
L 173.548969 529.592881 
L 173.988076 393.13147 
L 174.427182 494.764742 
L 174.646735 451.895022 
L 175.085842 472.792266 
L 175.305395 532.272633 
L 175.524948 457.308574 
L 175.744501 494.761238 
L 175.964054 503.429853 
L 176.183607 498.088403 
L 176.40316 520.206732 
L 176.622714 500.212434 
L 176.842267 461.389591 
L 177.06182 513.042107 
L 177.281373 428.082999 
L 177.500926 536.994716 
L 177.720479 428.790117 
L 177.940032 499.816532 
L 178.159586 386.546884 
L 178.379139 420.374529 
L 178.598692 416.873723 
L 178.818245 490.117699 
L 179.037798 481.070968 
L 179.257351 455.526237 
L 179.476905 329.569923 
L 179.696458 486.333302 
L 179.916011 390.503769 
L 180.135564 485.14169 
L 180.355117 495.213928 
L 180.57467 384.085072 
L 181.013777 519.388944 
L 181.23333 423.362178 
L 181.452883 471.290036 
L 181.672436 473.434857 
L 181.891989 459.880444 
L 182.111542 493.633435 
L 182.331096 447.864382 
L 182.550649 490.413987 
L 182.770202 507.303051 
L 182.989755 386.455902 
L 183.209308 489.562101 
L 183.428861 449.198427 
L 183.648414 554.597731 
L 183.867968 472.934886 
L 184.087521 466.773893 
L 184.307074 516.181326 
L 184.526627 421.172361 
L 184.74618 429.270251 
L 185.185287 536.43244 
L 185.40484 413.704078 
L 185.624393 417.913729 
L 185.843946 484.528887 
L 186.063499 481.007876 
L 186.283052 356.004642 
L 186.502605 374.354133 
L 186.722159 559.678113 
L 186.941712 454.750165 
L 187.161265 420.98293 
L 187.380818 424.81894 
L 187.600371 409.492529 
L 187.819924 422.304499 
L 188.039478 466.491932 
L 188.259031 478.168372 
L 188.478584 376.593943 
L 188.698137 514.974122 
L 188.91769 474.872434 
L 189.137243 456.023248 
L 189.356796 465.789778 
L 189.57635 364.366639 
L 189.795903 494.555241 
L 190.015456 445.66779 
L 190.235009 447.461044 
L 190.454562 452.543749 
L 190.674115 421.670798 
L 190.893669 437.09926 
L 191.113222 496.192785 
L 191.332775 445.645979 
L 191.552328 470.703857 
L 191.771881 421.649112 
L 191.991434 467.764128 
L 192.430541 480.828035 
L 192.650094 516.236517 
L 192.869647 420.442771 
L 193.0892 419.087351 
L 193.308753 510.392811 
L 193.528306 519.291372 
L 193.74786 402.524613 
L 193.967413 485.796621 
L 194.186966 481.373117 
L 194.406519 390.979333 
L 194.626072 494.473422 
L 194.845625 451.111738 
L 195.065178 449.48417 
L 195.284732 341.76348 
L 195.943391 499.093881 
L 196.162944 392.993067 
L 196.382497 443.578823 
L 196.602051 396.897694 
L 196.821604 422.298342 
L 197.26071 533.156416 
L 197.480263 426.645233 
L 197.699816 505.865066 
L 197.919369 479.695259 
L 198.138923 527.510962 
L 198.578029 483.480078 
L 198.797582 498.739418 
L 199.017135 462.989203 
L 199.236688 453.565884 
L 199.456242 422.653607 
L 199.675795 518.391499 
L 199.895348 393.79719 
L 200.114901 501.023081 
L 200.334454 377.392842 
L 200.554007 466.446385 
L 200.77356 434.424606 
L 200.993114 377.63461 
L 201.43222 453.197055 
L 201.651773 443.381197 
L 201.871326 541.005433 
L 202.310432 427.440953 
L 202.529986 447.317945 
L 202.749539 399.028443 
L 203.408198 493.641956 
L 203.627751 471.125748 
L 203.847305 481.88381 
L 204.066858 463.23911 
L 204.286411 494.302218 
L 204.505964 483.422233 
L 204.725517 404.733974 
L 204.94507 444.958975 
L 205.164623 373.435629 
L 205.384177 483.485608 
L 205.60373 479.0658 
L 205.823283 438.103646 
L 206.262389 523.030267 
L 206.481942 338.324992 
L 206.701496 481.247441 
L 206.921049 481.530527 
L 207.140602 482.890417 
L 207.360155 396.847326 
L 207.579708 499.415157 
L 207.799261 449.130525 
L 208.018814 506.733308 
L 208.238368 486.374734 
L 208.457921 513.664068 
L 208.897027 343.52035 
L 209.11658 449.986733 
L 209.555687 486.93373 
L 209.77524 406.23925 
L 209.994793 481.056453 
L 210.214346 480.683055 
L 210.653452 460.936771 
L 210.873005 492.407975 
L 211.092559 394.970269 
L 211.312112 459.017456 
L 211.531665 379.576266 
L 211.751218 434.828336 
L 211.970771 458.890705 
L 212.190324 431.779829 
L 212.409878 502.135579 
L 212.848984 471.16978 
L 213.068537 397.359825 
L 213.28809 474.135227 
L 213.507643 439.454843 
L 213.727196 494.700007 
L 213.94675 485.691577 
L 214.166303 511.84889 
L 214.385856 498.456368 
L 214.605409 468.458127 
L 214.824962 420.688714 
L 215.044515 504.939779 
L 215.264069 463.915911 
L 215.483622 470.121427 
L 215.703175 453.197344 
L 215.922728 538.367772 
L 216.142281 451.772004 
L 216.361834 531.382722 
L 216.581387 401.409576 
L 216.800941 516.02171 
L 217.020494 470.276163 
L 217.240047 478.150627 
L 217.4596 501.41131 
L 217.679153 501.336649 
L 217.898706 503.426889 
L 218.11826 437.043816 
L 218.337813 461.26022 
L 218.557366 511.962765 
L 218.776919 390.741669 
L 218.996472 526.854674 
L 219.216025 485.185445 
L 219.435578 510.888261 
L 219.655132 474.29607 
L 220.094238 559.472498 
L 220.313791 442.769505 
L 220.533344 498.098218 
L 220.752897 490.575942 
L 221.192004 388.331681 
L 221.411557 404.996548 
L 221.850663 465.524242 
L 222.070216 461.06833 
L 222.289769 434.797901 
L 222.509323 479.464439 
L 222.728876 431.608776 
L 222.948429 520.130199 
L 223.167982 461.829848 
L 223.387535 485.106359 
L 223.607088 433.028457 
L 223.826642 484.007351 
L 224.046195 466.485187 
L 224.265748 478.749179 
L 224.485301 503.028895 
L 224.704854 425.894428 
L 224.924407 487.353923 
L 225.14396 499.122328 
L 225.363514 408.308912 
L 225.583067 440.416274 
L 225.80262 433.852899 
L 226.022173 484.393617 
L 226.241726 352.756411 
L 226.461279 517.958558 
L 226.680833 462.563604 
L 226.900386 501.133894 
L 227.119939 407.35667 
L 227.559045 449.632755 
L 227.778598 501.644116 
L 228.217705 460.141374 
L 228.437258 466.231539 
L 228.656811 532.410616 
L 229.095917 404.421555 
L 229.31547 513.873563 
L 229.535023 362.280659 
L 229.97413 486.354424 
L 230.193683 416.534138 
L 230.413236 465.617358 
L 230.632789 563.865422 
L 230.852342 408.617095 
L 231.071896 541.873696 
L 231.291449 388.685982 
L 231.511002 508.725147 
L 231.730555 502.888174 
L 231.950108 436.86522 
L 232.169661 565.681187 
L 232.389214 533.489893 
L 232.608768 446.698279 
L 232.828321 492.178026 
L 233.047874 390.652439 
L 233.267427 504.050032 
L 233.48698 506.98151 
L 233.706533 473.104213 
L 233.926087 504.807365 
L 234.14564 471.55718 
L 234.365193 505.935937 
L 234.584746 460.542198 
L 234.804299 541.121069 
L 235.023852 401.308659 
L 235.243405 507.107096 
L 235.462959 478.211951 
L 235.682512 492.098123 
L 235.902065 273.646729 
L 236.121618 456.215496 
L 236.560724 373.772905 
L 236.780278 485.963195 
L 236.999831 498.142278 
L 237.219384 424.274612 
L 237.438937 524.941582 
L 237.65849 523.430735 
L 237.878043 525.309976 
L 238.097596 446.619927 
L 238.536703 507.453572 
L 238.756256 477.198838 
L 238.975809 506.093785 
L 239.195362 503.71912 
L 239.414915 534.012822 
L 239.854022 437.575791 
L 240.293128 552.746375 
L 240.732234 425.383491 
L 240.951787 540.65891 
L 241.171341 407.172138 
L 241.390894 467.195924 
L 241.610447 448.567737 
L 242.049553 524.192597 
L 242.269106 509.327714 
L 242.48866 453.607539 
L 242.708213 534.26131 
L 242.927766 448.463638 
L 243.147319 443.311417 
L 243.366872 446.193635 
L 243.805978 478.887324 
L 244.025532 508.02681 
L 244.245085 465.213373 
L 244.464638 319.341054 
L 244.684191 385.634703 
L 244.903744 493.791334 
L 245.123297 468.136309 
L 245.342851 484.934551 
L 245.562404 423.524625 
L 245.781957 540.11878 
L 246.00151 530.631878 
L 246.440616 440.15179 
L 246.660169 450.695942 
L 246.879723 404.811218 
L 247.099276 498.973001 
L 247.318829 510.33993 
L 247.538382 454.805358 
L 247.757935 428.163353 
L 247.977488 484.650891 
L 248.197042 367.536431 
L 248.416595 492.220532 
L 248.636148 474.553752 
L 249.075254 398.27293 
L 249.294807 532.979066 
L 249.51436 434.096873 
L 249.733914 433.229845 
L 249.953467 515.314081 
L 250.17302 450.65822 
L 250.392573 483.338076 
L 250.612126 414.034486 
L 251.051233 550.083343 
L 251.270786 491.369519 
L 251.490339 519.346692 
L 251.709892 430.902288 
L 251.929445 498.870183 
L 252.148998 400.003568 
L 252.588105 472.541998 
L 252.807658 403.167094 
L 253.027211 459.803611 
L 253.246764 364.443057 
L 253.466317 426.774854 
L 253.68587 397.498814 
L 254.124977 528.182444 
L 254.34453 444.950698 
L 254.564083 471.842744 
L 254.783636 438.01485 
L 255.003189 432.066322 
L 255.222742 490.253467 
L 255.661849 525.625732 
L 256.320508 389.127318 
L 256.540061 455.173986 
L 256.979168 495.601452 
L 257.198721 485.539063 
L 257.418274 495.889099 
L 257.637827 450.01449 
L 257.85738 435.568888 
L 258.076933 512.392836 
L 258.296487 541.451444 
L 258.51604 533.707945 
L 258.735593 447.15738 
L 258.955146 549.103001 
L 259.174699 455.605912 
L 259.394252 411.790666 
L 259.613805 483.817082 
L 259.833359 519.027122 
L 260.052912 393.795276 
L 260.272465 429.809349 
L 260.492018 417.470919 
L 260.711571 463.263287 
L 261.150678 499.489093 
L 261.370231 449.466257 
L 261.589784 432.200713 
L 261.809337 441.159599 
L 262.02889 538.388759 
L 262.248443 500.032675 
L 262.467996 513.332528 
L 262.68755 476.669245 
L 262.907103 505.526681 
L 263.126656 449.973149 
L 263.346209 436.145321 
L 263.565762 406.070377 
L 263.785315 503.261336 
L 264.004869 537.405241 
L 264.224422 498.196456 
L 264.443975 498.722311 
L 264.663528 455.190131 
L 264.883081 478.99752 
L 265.102634 466.180872 
L 265.322187 438.716506 
L 265.541741 529.838886 
L 265.761294 458.543221 
L 265.980847 427.337398 
L 266.2004 431.870704 
L 266.419953 480.373788 
L 266.639506 315.209998 
L 266.85906 445.446054 
L 267.078613 486.303353 
L 267.298166 487.702843 
L 267.517719 507.106634 
L 267.737272 458.798071 
L 267.956825 498.597187 
L 268.176378 506.627519 
L 268.395932 454.577915 
L 268.615485 369.745368 
L 268.835038 467.673893 
L 269.054591 509.050545 
L 269.274144 447.74766 
L 269.493697 500.527482 
L 269.932804 513.222517 
L 270.152357 442.807865 
L 270.37191 503.065368 
L 270.591463 424.297515 
L 270.811016 459.052767 
L 271.030569 465.387385 
L 271.250123 505.402206 
L 271.469676 487.144874 
L 271.689229 454.95854 
L 271.908782 449.139376 
L 272.128335 498.37139 
L 272.347888 430.560512 
L 272.567442 483.050791 
L 272.786995 478.454046 
L 273.006548 478.025949 
L 273.226101 409.39287 
L 273.445654 394.228694 
L 273.665207 531.775374 
L 273.88476 477.903906 
L 274.104314 494.463252 
L 274.323867 409.510522 
L 274.54342 424.332405 
L 274.762973 282.501899 
L 274.982526 516.733806 
L 275.202079 516.302681 
L 275.421633 467.123753 
L 275.641186 457.964781 
L 275.860739 538.992127 
L 276.080292 449.037611 
L 276.299845 466.047149 
L 276.519398 530.301397 
L 276.738951 444.728536 
L 277.178058 534.823107 
L 277.397611 529.077402 
L 277.617164 501.909004 
L 277.836717 558.089991 
L 278.275824 395.545398 
L 278.495377 528.908386 
L 278.71493 403.785581 
L 278.934483 433.300436 
L 279.154036 479.261474 
L 279.373589 471.027763 
L 279.593142 544.842869 
L 279.812696 543.931899 
L 280.032249 426.696072 
L 280.251802 518.356163 
L 280.471355 485.580711 
L 280.690908 519.865917 
L 280.910461 504.564391 
L 281.130014 472.094674 
L 281.349568 476.215018 
L 281.569121 425.532121 
L 281.788674 281.081973 
L 282.008227 448.333802 
L 282.22778 517.035167 
L 282.447333 419.187591 
L 282.666887 538.960597 
L 282.88644 481.208296 
L 283.105993 356.915201 
L 283.325546 499.389359 
L 283.545099 458.162639 
L 283.764652 578.042656 
L 283.984205 471.866328 
L 284.423312 405.018724 
L 284.642865 483.966814 
L 284.862418 418.728986 
L 285.301524 507.670662 
L 285.521078 458.409598 
L 285.740631 448.342703 
L 285.960184 482.140162 
L 286.179737 473.20288 
L 286.39929 503.0965 
L 286.618843 471.577055 
L 286.838396 472.916835 
L 287.05795 511.026724 
L 287.497056 318.098319 
L 287.716609 439.919921 
L 287.936162 421.538741 
L 288.155715 462.654653 
L 288.375269 470.900212 
L 288.594822 441.705946 
L 288.814375 469.218357 
L 289.033928 428.908203 
L 289.253481 524.437051 
L 289.473034 420.995302 
L 289.692587 393.08278 
L 289.912141 380.383077 
L 290.131694 481.910904 
L 290.351247 481.274564 
L 290.5708 506.413265 
L 290.790353 496.064873 
L 291.009906 537.920997 
L 291.22946 390.738544 
L 291.449013 545.549369 
L 291.888119 281.399136 
L 292.107672 504.187581 
L 292.327225 487.398984 
L 292.546778 527.158207 
L 292.766332 443.828332 
L 292.985885 538.728392 
L 293.205438 440.588397 
L 293.424991 443.865765 
L 293.644544 412.253659 
L 293.864097 427.008921 
L 294.083651 486.356456 
L 294.303204 459.45915 
L 294.522757 480.144641 
L 294.74231 465.050044 
L 294.961863 514.470654 
L 295.181416 442.617504 
L 295.400969 479.453636 
L 295.620523 462.285052 
L 296.059629 521.914973 
L 296.279182 505.191722 
L 296.498735 346.666739 
L 296.718288 529.144416 
L 296.937842 471.992161 
L 297.157395 476.270249 
L 297.376948 535.120612 
L 297.596501 492.317107 
L 297.816054 504.64389 
L 298.035607 525.961095 
L 298.25516 373.499099 
L 298.474714 525.198562 
L 298.694267 429.191743 
L 298.91382 458.465771 
L 299.133373 394.896135 
L 299.352926 451.30235 
L 299.572479 437.687934 
L 299.792033 492.71247 
L 300.011586 489.596238 
L 300.231139 475.066557 
L 300.670245 409.37983 
L 300.889798 429.448164 
L 301.109351 388.411196 
L 301.328905 497.120819 
L 301.548458 482.552006 
L 301.768011 365.187361 
L 301.987564 506.316675 
L 302.207117 388.503598 
L 302.42667 412.921525 
L 302.646224 371.074225 
L 302.865777 367.196901 
L 303.08533 513.166338 
L 303.304883 440.284496 
L 303.524436 409.584256 
L 303.963542 495.891287 
L 304.183096 419.97458 
L 304.402649 475.359887 
L 304.622202 474.775819 
L 304.841755 506.142411 
L 305.061308 506.892178 
L 305.280861 404.421395 
L 305.719968 472.589464 
L 305.939521 348.40637 
L 306.159074 455.172375 
L 306.378627 435.128504 
L 306.59818 536.254099 
L 306.817733 494.751636 
L 307.037287 403.988981 
L 307.476393 486.403915 
L 307.695946 482.095415 
L 307.915499 436.698159 
L 308.135052 494.917202 
L 308.354605 479.411139 
L 308.574159 547.518231 
L 309.013265 480.717505 
L 309.232818 529.327121 
L 309.452371 445.100093 
L 309.671924 453.659136 
L 309.891478 447.698164 
L 310.111031 474.469119 
L 310.330584 527.299478 
L 310.550137 481.961272 
L 310.76969 365.364633 
L 310.989243 454.536408 
L 311.208796 440.9046 
L 311.42835 507.883811 
L 311.867456 441.857932 
L 312.087009 520.820037 
L 312.306562 459.818882 
L 312.526115 442.487205 
L 313.184775 482.92567 
L 313.404328 470.571004 
L 313.623881 519.803425 
L 313.843434 524.929506 
L 314.721647 410.916988 
L 315.160753 511.599871 
L 315.380306 413.40465 
L 315.59986 491.644279 
L 315.819413 474.969654 
L 316.038966 386.811555 
L 316.258519 366.533962 
L 316.697625 561.154434 
L 316.917178 467.13919 
L 317.356285 431.360387 
L 317.575838 467.52252 
L 317.795391 456.952372 
L 318.014944 513.264809 
L 318.234497 426.937396 
L 318.454051 516.744842 
L 318.673604 538.623553 
L 319.11271 470.747605 
L 319.332263 542.804488 
L 319.551816 514.341499 
L 319.771369 519.460738 
L 320.210476 447.7933 
L 320.430029 448.34065 
L 320.649582 428.072024 
L 320.869135 523.950076 
L 321.088688 409.149669 
L 321.308242 477.928682 
L 321.527795 488.076195 
L 321.747348 435.200274 
L 321.966901 500.315055 
L 322.186454 391.147735 
L 322.406007 362.773811 
L 322.62556 431.479898 
L 322.845114 412.186387 
L 323.064667 373.427575 
L 323.28422 507.219045 
L 323.503773 475.2088 
L 323.723326 480.092948 
L 323.942879 432.571932 
L 324.162433 431.921887 
L 324.381986 493.95801 
L 324.601539 489.080104 
L 324.821092 464.724371 
L 325.040645 496.808753 
L 325.479751 457.074002 
L 325.699305 467.225384 
L 325.918858 507.582251 
L 326.138411 507.718473 
L 326.357964 481.153186 
L 326.577517 480.013482 
L 326.79707 509.810091 
L 327.016624 365.174555 
L 327.236177 511.336585 
L 327.45573 412.732802 
L 327.675283 422.399408 
L 327.894836 545.07266 
L 328.114389 451.89365 
L 328.553496 541.541025 
L 328.773049 434.3672 
L 328.992602 507.148393 
L 329.212155 472.219714 
L 329.431708 479.264555 
L 329.651261 472.797333 
L 329.870815 492.816169 
L 330.090368 433.499316 
L 330.309921 443.202803 
L 330.529474 464.078703 
L 330.749027 510.056734 
L 331.188133 414.643407 
L 331.407687 498.600047 
L 331.62724 397.272635 
L 331.846793 519.003348 
L 332.066346 478.816148 
L 332.285899 479.671778 
L 332.505452 473.326087 
L 332.725006 405.821216 
L 332.944559 527.123914 
L 333.164112 419.766795 
L 333.383665 444.361654 
L 333.603218 527.218847 
L 333.822771 489.230355 
L 334.042324 486.553317 
L 334.261878 446.003594 
L 334.481431 568.460831 
L 334.700984 397.036375 
L 334.920537 487.257187 
L 335.14009 441.325833 
L 335.359643 424.732761 
L 335.579196 446.784699 
L 335.79875 349.547673 
L 336.018303 513.469732 
L 336.237856 464.201439 
L 336.457409 524.279804 
L 336.676962 545.007739 
L 337.116069 394.476246 
L 337.335622 423.138514 
L 337.555175 473.847575 
L 337.774728 475.248015 
L 337.994281 469.537346 
L 338.213834 562.536511 
L 338.433387 469.022715 
L 338.652941 451.70484 
L 338.872494 552.58367 
L 339.3116 386.909052 
L 339.531153 456.779747 
L 339.750706 479.327405 
L 339.97026 524.309346 
L 340.189813 455.888742 
L 340.409366 511.906051 
L 340.628919 459.968804 
L 340.848472 527.172606 
L 341.068025 419.878285 
L 341.287578 430.607369 
L 341.507132 536.416605 
L 341.946238 440.756759 
L 342.165791 476.985697 
L 342.385344 414.584474 
L 342.604897 397.174857 
L 343.044004 497.513025 
L 343.263557 491.965226 
L 343.48311 530.466844 
L 343.702663 423.614015 
L 343.922216 463.019495 
L 344.141769 432.263355 
L 344.361323 477.972758 
L 344.580876 426.594633 
L 345.019982 497.851392 
L 345.239535 461.841333 
L 345.459088 467.281598 
L 345.678642 457.027861 
L 345.898195 334.246537 
L 346.117748 454.671543 
L 346.337301 434.73278 
L 346.556854 470.218874 
L 346.776407 460.838152 
L 346.99596 349.680388 
L 347.215514 532.875447 
L 347.435067 522.48683 
L 347.65462 389.441062 
L 347.874173 481.116603 
L 348.093726 322.65107 
L 348.313279 515.489536 
L 348.532833 405.655841 
L 348.752386 478.622152 
L 348.971939 330.122953 
L 349.191492 544.684158 
L 349.411045 388.282017 
L 349.850151 497.799587 
L 350.069705 526.390151 
L 350.289258 526.963725 
L 350.508811 511.422601 
L 350.728364 421.135964 
L 350.947917 408.080093 
L 351.16747 490.846956 
L 351.387024 391.50605 
L 351.606577 516.171306 
L 351.82613 454.185921 
L 352.045683 488.720691 
L 352.265236 355.487231 
L 352.484789 450.595819 
L 352.704342 368.213116 
L 352.923896 575.241431 
L 353.143449 411.185487 
L 353.582555 465.570998 
L 354.241215 515.922289 
L 354.460768 492.37178 
L 354.680321 545.676664 
L 354.899874 541.988905 
L 355.119427 362.646224 
L 355.33898 497.930696 
L 355.558533 515.211849 
L 355.778087 463.618256 
L 355.99764 526.48072 
L 356.217193 516.255667 
L 356.656299 375.78757 
L 356.875852 387.162163 
L 357.095406 438.878752 
L 357.314959 396.780862 
L 357.534512 315.811068 
L 357.754065 494.165564 
L 357.973618 458.782226 
L 358.193171 524.180755 
L 358.412724 439.181172 
L 358.632278 534.20294 
L 358.851831 301.758154 
L 359.071384 533.780159 
L 359.290937 425.518532 
L 359.51049 471.177762 
L 359.730043 418.950962 
L 360.16915 516.244931 
L 360.608256 307.043417 
L 360.827809 505.353933 
L 361.047362 507.966678 
L 361.266915 467.465915 
L 361.486469 331.010437 
L 361.925575 490.590655 
L 362.145128 474.857248 
L 362.584234 501.197343 
L 363.023341 482.851642 
L 363.242894 521.989319 
L 363.462447 538.276682 
L 363.682 489.720777 
L 363.901553 415.48373 
L 364.121106 468.429895 
L 364.34066 428.55201 
L 364.560213 491.024356 
L 364.779766 475.816095 
L 364.999319 445.011513 
L 365.218872 484.215336 
L 365.438425 486.093099 
L 365.657978 470.099413 
L 365.877532 429.152582 
L 366.316638 546.710634 
L 366.755744 456.423474 
L 366.975297 450.882221 
L 367.194851 519.815619 
L 367.414404 513.08138 
L 367.633957 409.032405 
L 367.85351 416.844698 
L 368.073063 505.617222 
L 368.292616 425.799352 
L 368.512169 454.385406 
L 368.731723 370.196022 
L 368.951276 379.658505 
L 369.170829 470.758582 
L 369.390382 490.143642 
L 369.609935 442.873549 
L 369.829488 581.38839 
L 370.049042 441.210947 
L 370.268595 436.65449 
L 370.488148 480.333528 
L 370.707701 466.163792 
L 371.146807 424.5216 
L 371.585914 401.179203 
L 371.805467 546.73981 
L 372.02502 503.956342 
L 372.244573 488.227897 
L 372.464126 399.165385 
L 372.903233 498.257769 
L 373.122786 422.944665 
L 373.342339 499.03228 
L 373.561892 483.263929 
L 373.781445 514.192205 
L 374.000998 438.048549 
L 374.220551 467.52323 
L 374.440105 559.781915 
L 374.659658 419.327861 
L 374.879211 450.4204 
L 375.098764 521.727611 
L 375.318317 442.398432 
L 375.53787 504.289677 
L 375.757424 419.012569 
L 375.976977 383.397343 
L 376.19653 465.415974 
L 376.416083 428.506247 
L 376.635636 439.195668 
L 376.855189 402.62274 
L 377.294296 506.294061 
L 377.733402 444.570493 
L 377.952955 471.527607 
L 378.172508 410.439051 
L 378.392061 498.126403 
L 378.611615 464.185463 
L 378.831168 487.195582 
L 379.050721 489.004618 
L 379.270274 404.575927 
L 379.489827 500.93852 
L 379.70938 532.021732 
L 379.928933 468.100823 
L 380.148487 476.663842 
L 380.36804 496.746166 
L 380.807146 468.712862 
L 381.026699 489.77633 
L 381.246252 493.827632 
L 381.465806 539.802676 
L 381.685359 449.876498 
L 381.904912 407.308014 
L 382.124465 482.875258 
L 382.344018 425.621017 
L 382.563571 486.66161 
L 382.783124 465.345079 
L 383.002678 410.456811 
L 383.222231 428.313326 
L 383.441784 401.672324 
L 383.661337 428.819371 
L 383.88089 505.200601 
L 384.100443 413.225086 
L 384.319997 499.189987 
L 384.53955 464.795052 
L 384.759103 520.996229 
L 384.978656 380.562279 
L 385.198209 495.155899 
L 385.417762 501.400216 
L 385.637315 480.35065 
L 385.856869 534.605321 
L 386.076422 457.328366 
L 386.295975 485.41554 
L 386.515528 453.618706 
L 386.735081 493.061969 
L 386.954634 430.831127 
L 387.174187 518.694052 
L 387.393741 518.930707 
L 387.613294 435.56649 
L 387.832847 499.404936 
L 388.0524 378.396961 
L 388.271953 499.465327 
L 388.491506 481.753703 
L 388.71106 510.358417 
L 388.930613 373.940421 
L 389.150166 496.499422 
L 389.369719 402.879375 
L 389.589272 412.18222 
L 389.808825 451.590539 
L 390.028378 468.050084 
L 390.247932 456.66054 
L 390.467485 474.280467 
L 390.687038 472.355373 
L 390.906591 453.766684 
L 391.345697 535.533691 
L 391.784804 416.964997 
L 392.22391 523.441961 
L 392.443463 416.148001 
L 392.663016 497.729582 
L 392.882569 520.380676 
L 393.321676 472.770851 
L 393.541229 466.942223 
L 393.760782 481.058542 
L 393.980335 405.123433 
L 394.199888 493.035823 
L 394.419442 509.824515 
L 394.638995 490.488718 
L 394.858548 431.099553 
L 395.297654 501.20843 
L 395.517207 489.191324 
L 395.73676 462.459669 
L 395.956314 366.014084 
L 396.175867 480.841465 
L 396.39542 527.364544 
L 396.614973 455.645103 
L 396.834526 537.719947 
L 397.054079 516.284704 
L 397.273633 407.205944 
L 397.493186 498.927937 
L 397.712739 492.719283 
L 397.932292 464.494727 
L 398.151845 521.146988 
L 398.371398 487.006257 
L 398.590951 394.499291 
L 398.810505 539.861639 
L 399.030058 381.317835 
L 399.249611 400.359025 
L 399.469164 509.288668 
L 399.688717 535.308558 
L 399.90827 537.950463 
L 400.127824 382.46204 
L 400.347377 346.969896 
L 400.56693 411.866983 
L 400.786483 422.175502 
L 401.006036 451.806346 
L 401.225589 387.57463 
L 401.445142 503.444606 
L 401.664696 477.218696 
L 402.323355 452.554213 
L 402.542908 447.153479 
L 402.762461 465.13195 
L 402.982015 516.988194 
L 403.421121 454.724618 
L 403.640674 538.6599 
L 403.860227 550.486432 
L 404.07978 446.318029 
L 404.299333 495.086281 
L 404.518887 495.621562 
L 404.73844 526.842462 
L 404.957993 488.387256 
L 405.177546 479.9545 
L 405.397099 529.152451 
L 405.616652 540.494675 
L 405.836206 458.06915 
L 406.055759 497.386734 
L 406.275312 435.074889 
L 406.494865 489.580521 
L 406.714418 405.082387 
L 406.933971 487.032077 
L 407.153524 474.568739 
L 407.373078 422.406593 
L 407.592631 504.621081 
L 407.812184 479.340405 
L 408.031737 440.740608 
L 408.25129 478.421929 
L 408.470843 468.744864 
L 408.690397 426.703541 
L 408.90995 472.659279 
L 409.129503 458.991245 
L 409.349056 431.651702 
L 409.788162 504.619151 
L 410.007715 462.877849 
L 410.227269 519.996085 
L 410.885928 371.341148 
L 411.105481 519.505334 
L 411.325034 407.910872 
L 411.544587 482.434767 
L 411.764141 481.910123 
L 411.983694 489.923115 
L 412.203247 441.019306 
L 412.4228 510.084635 
L 412.642353 439.504447 
L 412.861906 446.708455 
L 413.08146 384.566194 
L 413.301013 513.587881 
L 413.520566 359.834565 
L 413.740119 363.129501 
L 413.959672 514.4883 
L 414.398778 342.013374 
L 414.618332 470.302754 
L 414.837885 478.62003 
L 415.057438 400.737084 
L 415.276991 408.511525 
L 415.496544 430.75244 
L 415.716097 524.956616 
L 415.935651 417.191696 
L 416.155204 425.362161 
L 416.374757 525.980079 
L 416.59431 444.919633 
L 416.813863 423.185826 
L 417.033416 556.997035 
L 417.252969 492.306695 
L 417.472523 464.967842 
L 417.692076 396.367759 
L 417.911629 483.891634 
L 418.131182 463.700893 
L 418.350735 354.043646 
L 418.570288 413.976539 
L 418.789842 401.559912 
L 419.009395 495.293654 
L 419.228948 493.102609 
L 419.448501 523.590215 
L 419.668054 529.488981 
L 420.10716 483.026644 
L 420.326714 395.321492 
L 420.546267 489.417231 
L 420.76582 478.682167 
L 420.985373 519.786137 
L 421.204926 422.411384 
L 421.424479 453.371752 
L 421.644033 444.183654 
L 421.863586 425.829871 
L 422.302692 547.737546 
L 422.522245 513.912606 
L 422.741798 397.502845 
L 422.961351 517.592465 
L 423.180905 451.850201 
L 423.400458 462.952969 
L 423.620011 415.090302 
L 423.839564 490.566768 
L 424.059117 507.244408 
L 424.27867 482.55222 
L 424.498224 541.80295 
L 424.717777 313.319505 
L 424.93733 460.041899 
L 425.156883 472.639813 
L 425.595989 527.72293 
L 425.815542 498.069485 
L 426.035096 429.763264 
L 426.254649 301.493796 
L 426.474202 476.342024 
L 426.693755 545.573281 
L 426.913308 534.750903 
L 427.132861 538.672769 
L 427.352415 481.231257 
L 427.571968 560.392987 
L 427.791521 482.085343 
L 428.011074 454.21843 
L 428.230627 529.182354 
L 428.45018 479.622698 
L 428.669733 327.527386 
L 428.889287 427.589866 
L 429.10884 440.936744 
L 429.328393 506.074693 
L 429.767499 386.216993 
L 429.987052 539.649148 
L 430.206606 470.868965 
L 430.426159 471.224526 
L 430.645712 449.740447 
L 430.865265 485.330544 
L 431.084818 419.110835 
L 431.304371 459.689606 
L 431.523924 477.758581 
L 431.743478 533.945105 
L 431.963031 462.655109 
L 432.182584 479.255935 
L 432.402137 514.932771 
L 432.62169 511.432788 
L 432.841243 547.100594 
L 433.060797 466.592905 
L 433.28035 480.195724 
L 433.499903 484.17256 
L 433.719456 485.339029 
L 433.939009 393.581619 
L 434.158562 494.704519 
L 434.378115 415.403701 
L 434.597669 529.028581 
L 434.817222 487.720993 
L 435.036775 473.468506 
L 435.256328 495.636007 
L 435.475881 391.814715 
L 435.695434 498.887201 
L 435.914988 467.566471 
L 436.134541 412.357276 
L 436.354094 435.999138 
L 436.573647 430.854916 
L 436.7932 472.855502 
L 437.012753 491.09181 
L 437.232306 460.700779 
L 437.45186 542.20528 
L 437.671413 480.09363 
L 437.890966 520.200417 
L 438.110519 504.544624 
L 438.330072 514.958085 
L 438.549625 558.917411 
L 438.769178 539.683935 
L 438.988732 385.704382 
L 439.427838 521.202696 
L 439.647391 326.17128 
L 439.866944 503.028647 
L 440.086497 500.33456 
L 440.306051 476.438134 
L 440.525604 530.994484 
L 440.745157 454.801363 
L 440.96471 422.806655 
L 441.184263 462.874677 
L 441.403816 468.202243 
L 441.623369 397.340389 
L 441.842923 479.838968 
L 442.062476 403.508916 
L 442.282029 526.661355 
L 442.501582 477.784106 
L 442.721135 337.819651 
L 442.940688 489.654533 
L 443.160242 502.997371 
L 443.379795 457.743532 
L 443.599348 522.94693 
L 443.818901 437.372249 
L 444.038454 421.678544 
L 444.258007 395.902509 
L 444.47756 492.75021 
L 444.697114 396.33124 
L 444.916667 360.958083 
L 445.13622 525.019455 
L 445.355773 439.34672 
L 445.575326 419.536584 
L 445.794879 479.791402 
L 446.014433 413.499064 
L 446.453539 479.288752 
L 446.673092 493.201875 
L 446.892645 436.249542 
L 447.112198 459.368933 
L 447.331751 366.428028 
L 447.551305 527.719235 
L 447.770858 370.56816 
L 447.990411 508.02819 
L 448.209964 504.165754 
L 448.429517 553.491463 
L 448.868624 131.956182 
L 449.088177 394.596967 
L 449.30773 488.75927 
L 449.527283 297.075575 
L 449.746836 454.072489 
L 450.185942 563.034907 
L 450.405496 428.190123 
L 450.625049 507.816318 
L 450.844602 408.986086 
L 451.064155 447.938256 
L 451.283708 350.28144 
L 451.503261 466.33104 
L 451.722815 379.210666 
L 452.161921 512.81245 
L 452.381474 368.230737 
L 452.601027 371.270806 
L 452.82058 462.596599 
L 453.040133 505.410745 
L 453.47924 460.327374 
L 453.698793 389.534817 
L 453.918346 464.982991 
L 454.137899 451.803289 
L 454.357452 472.243358 
L 454.577006 475.820984 
L 454.796559 456.197154 
L 455.016112 482.57523 
L 455.235665 437.652123 
L 455.455218 500.050295 
L 455.674771 509.205675 
L 455.894324 384.132072 
L 456.113878 376.037731 
L 456.552984 514.75933 
L 456.772537 469.093639 
L 456.99209 498.794527 
L 457.211643 405.763341 
L 457.431197 469.231166 
L 457.65075 413.911796 
L 457.870303 471.680648 
L 458.089856 453.023247 
L 458.309409 476.335481 
L 458.528962 431.086893 
L 458.748515 522.164972 
L 458.968069 453.06604 
L 459.187622 512.10299 
L 459.407175 503.25066 
L 459.626728 229.671275 
L 459.846281 446.129314 
L 460.285388 393.249455 
L 460.504941 504.867442 
L 460.724494 466.220184 
L 461.1636 516.456072 
L 461.383153 402.299731 
L 461.602706 513.804215 
L 461.82226 491.470464 
L 462.041813 535.13342 
L 462.261366 444.422018 
L 462.480919 451.601428 
L 462.700472 468.112196 
L 462.920025 402.367547 
L 463.359132 475.695428 
L 463.578685 410.326392 
L 463.798238 520.048065 
L 464.017791 530.651058 
L 464.237344 493.662516 
L 464.456897 416.198453 
L 464.676451 508.451271 
L 464.896004 426.090775 
L 465.115557 447.548629 
L 465.33511 507.0941 
L 465.554663 461.037178 
L 465.774216 475.269126 
L 465.993769 461.740959 
L 466.213323 549.795774 
L 466.432876 373.497115 
L 466.652429 409.35569 
L 466.871982 404.511338 
L 467.091535 513.27589 
L 467.311088 432.776524 
L 467.530642 525.484931 
L 467.750195 491.889218 
L 467.969748 516.105438 
L 468.189301 446.717539 
L 468.408854 459.529068 
L 468.628407 444.868451 
L 468.84796 449.843587 
L 469.067514 500.579244 
L 469.287067 449.965603 
L 469.50662 460.490454 
L 469.945726 439.6503 
L 470.384833 495.261476 
L 470.604386 497.4471 
L 470.823939 490.20299 
L 471.043492 502.421417 
L 471.263045 505.204075 
L 471.482598 446.558539 
L 471.921705 501.534878 
L 472.141258 454.267693 
L 472.360811 293.291208 
L 472.580364 503.827943 
L 472.799917 410.29187 
L 473.01947 498.214086 
L 473.239024 412.761408 
L 473.458577 415.800485 
L 473.67813 500.776616 
L 473.897683 497.262023 
L 474.117236 400.413122 
L 474.336789 415.442053 
L 474.556342 417.58128 
L 474.775896 541.911479 
L 475.215002 429.845819 
L 475.434555 472.307236 
L 475.654108 358.624457 
L 475.873661 561.673672 
L 476.093215 443.682792 
L 476.312768 435.288723 
L 476.751874 499.941002 
L 476.971427 514.535831 
L 477.19098 472.55805 
L 477.410533 459.704171 
L 477.630087 350.685778 
L 477.84964 496.899856 
L 478.069193 498.874815 
L 478.288746 509.591184 
L 478.508299 455.286523 
L 478.727852 482.112542 
L 478.947406 449.220932 
L 479.166959 531.585212 
L 479.386512 355.487648 
L 479.606065 460.429156 
L 479.825618 464.624031 
L 480.045171 496.745182 
L 480.264724 501.561019 
L 480.484278 488.4535 
L 480.703831 483.130142 
L 480.923384 511.57719 
L 481.142937 481.321592 
L 481.36249 415.711937 
L 481.582043 491.652195 
L 481.801597 477.223633 
L 482.02115 415.154278 
L 482.240703 420.559956 
L 482.460256 489.935264 
L 482.679809 474.121241 
L 482.899362 478.948865 
L 483.118915 421.330495 
L 483.338469 428.185091 
L 483.558022 470.133984 
L 483.997128 432.126682 
L 484.216681 452.802329 
L 484.436234 495.710897 
L 484.655788 488.219824 
L 484.875341 495.216519 
L 485.314447 432.222328 
L 485.534 444.305396 
L 485.753553 397.118794 
L 485.973106 542.488269 
L 486.19266 536.609278 
L 486.412213 467.914559 
L 486.631766 457.644836 
L 486.851319 410.000647 
L 487.070872 458.984544 
L 487.509979 382.935764 
L 487.729532 476.532707 
L 487.949085 455.418071 
L 488.168638 344.16379 
L 488.388191 550.627213 
L 488.607744 314.329554 
L 488.827297 511.228444 
L 489.046851 338.145129 
L 489.266404 454.051143 
L 489.485957 456.047141 
L 489.70551 531.865498 
L 490.144616 464.042636 
L 490.364169 501.921106 
L 490.583723 457.834689 
L 490.803276 486.669124 
L 491.022829 367.604245 
L 491.242382 472.980371 
L 491.461935 493.243258 
L 491.681488 466.022211 
L 491.901042 468.392264 
L 492.120595 402.839261 
L 492.340148 564.09446 
L 492.559701 446.34574 
L 492.779254 470.362391 
L 492.998807 522.416535 
L 493.21836 517.18041 
L 493.437914 441.317126 
L 493.657467 515.187375 
L 493.87702 519.587405 
L 494.096573 421.471209 
L 494.316126 446.101284 
L 494.535679 502.242442 
L 494.755233 506.896444 
L 494.974786 473.37106 
L 495.194339 518.24439 
L 495.413892 370.371753 
L 495.633445 376.763661 
L 496.292105 528.964315 
L 496.511658 439.662478 
L 496.731211 424.425889 
L 496.950764 497.163906 
L 497.170317 513.008467 
L 497.38987 490.551155 
L 497.609424 511.700512 
L 497.828977 423.088676 
L 498.268083 510.154657 
L 498.487636 503.779399 
L 498.707189 511.802464 
L 498.926742 449.181268 
L 499.146296 491.629336 
L 499.365849 422.56756 
L 499.585402 438.701699 
L 499.804955 512.253546 
L 500.244061 502.531947 
L 500.463615 457.737682 
L 500.683168 542.747813 
L 500.902721 431.170156 
L 501.122274 432.181704 
L 501.780933 499.196436 
L 502.000487 502.849597 
L 502.22004 458.870672 
L 502.439593 516.310393 
L 502.659146 363.7956 
L 502.878699 499.623174 
L 503.098252 435.502281 
L 503.317806 520.820273 
L 503.537359 417.592106 
L 503.756912 483.004243 
L 503.976465 475.776377 
L 504.415571 427.878862 
L 504.635124 359.965763 
L 504.854678 465.585033 
L 505.074231 386.741347 
L 505.293784 549.757084 
L 505.513337 491.342262 
L 505.73289 532.979538 
L 505.952443 476.874967 
L 506.171997 474.985745 
L 506.39155 399.025047 
L 506.611103 487.346819 
L 506.830656 476.187374 
L 507.050209 482.350384 
L 507.489315 520.720013 
L 507.708869 525.32319 
L 507.928422 503.544591 
L 508.147975 539.39811 
L 508.587081 454.791648 
L 508.806634 494.311801 
L 509.026188 482.3362 
L 509.245741 449.539542 
L 509.465294 465.103855 
L 509.684847 417.604622 
L 509.9044 439.549487 
L 510.123953 420.735414 
L 510.343506 497.665339 
L 510.56306 461.42392 
L 510.782613 369.664932 
L 511.002166 538.736915 
L 511.221719 556.440847 
L 511.441272 372.010241 
L 511.660825 471.891346 
L 511.880379 405.406036 
L 512.099932 451.563332 
L 512.319485 442.301419 
L 512.539038 463.695167 
L 512.758591 433.561182 
L 512.978144 452.198268 
L 513.197697 457.534294 
L 513.417251 532.985818 
L 513.636804 411.674357 
L 513.856357 503.614818 
L 514.07591 444.669943 
L 514.295463 524.964887 
L 514.515016 487.098666 
L 514.73457 480.05211 
L 514.954123 243.554265 
L 515.173676 543.305423 
L 515.393229 517.752661 
L 515.612782 507.410902 
L 515.832335 460.414827 
L 516.051888 449.528108 
L 516.490995 366.633547 
L 516.710548 419.473372 
L 516.930101 516.71014 
L 517.369207 441.432691 
L 517.58876 533.535979 
L 517.808314 492.674576 
L 518.027867 491.978201 
L 518.24742 528.910682 
L 518.466973 458.705182 
L 518.686526 517.361003 
L 518.906079 497.948202 
L 519.125633 411.70112 
L 519.564739 527.088083 
L 519.784292 422.64768 
L 520.003845 467.09241 
L 520.223398 481.33168 
L 520.442951 457.742314 
L 520.662505 478.168398 
L 520.882058 462.620934 
L 521.101611 466.014232 
L 521.321164 458.232168 
L 521.540717 394.969207 
L 521.76027 511.365257 
L 521.979824 452.291155 
L 522.199377 472.689903 
L 522.41893 511.455691 
L 522.638483 480.701703 
L 522.858036 537.035017 
L 523.077589 365.862405 
L 523.297142 545.577767 
L 523.736249 417.679213 
L 523.955802 458.596521 
L 524.175355 389.944661 
L 524.394908 466.028218 
L 524.614461 436.994466 
L 524.834015 485.429319 
L 525.053568 343.528968 
L 525.273121 402.139253 
L 525.492674 407.173767 
L 525.712227 486.840661 
L 525.93178 462.415462 
L 526.151333 344.484714 
L 526.59044 528.417756 
L 527.029546 491.778667 
L 527.249099 492.029613 
L 527.468652 489.776273 
L 527.688206 453.760522 
L 527.907759 535.366638 
L 528.127312 236.662187 
L 528.346865 482.281647 
L 528.566418 356.393375 
L 528.785971 531.210195 
L 529.225078 488.050008 
L 529.444631 512.612699 
L 529.883737 463.238457 
L 530.10329 506.53098 
L 530.322843 505.728779 
L 530.76195 398.397347 
L 530.981503 523.97682 
L 531.201056 424.771986 
L 531.420609 429.04531 
L 531.640162 456.913251 
L 531.859715 513.747765 
L 532.079269 523.283291 
L 532.298822 470.670668 
L 532.518375 521.79047 
L 532.737928 501.16877 
L 532.957481 374.921036 
L 533.177034 452.482141 
L 533.396588 487.96707 
L 533.616141 482.382609 
L 533.835694 481.735939 
L 534.055247 466.981861 
L 534.2748 485.194097 
L 534.494353 523.428844 
L 534.713906 447.951265 
L 535.153013 484.830874 
L 535.592119 422.655987 
L 535.811672 444.000733 
L 536.031225 476.664817 
L 536.250779 474.621217 
L 536.470332 520.859811 
L 536.909438 380.454606 
L 537.128991 533.902168 
L 537.348544 545.757909 
L 537.568097 432.472908 
L 537.787651 498.056119 
L 538.007204 491.079348 
L 538.226757 508.068184 
L 538.44631 383.931998 
L 538.665863 483.173886 
L 538.885416 496.865155 
L 539.10497 525.565394 
L 539.324523 524.132108 
L 539.544076 503.699246 
L 539.763629 461.161947 
L 539.983182 475.442444 
L 540.202735 469.154441 
L 540.422288 424.735885 
L 540.641842 418.650844 
L 540.861395 503.328515 
L 541.080948 484.984768 
L 541.300501 562.819521 
L 541.520054 298.324817 
L 541.739607 479.83212 
L 541.95916 448.637648 
L 542.178714 486.276902 
L 542.398267 395.300529 
L 542.61782 440.56507 
L 542.837373 511.284831 
L 543.056926 463.636999 
L 543.496033 470.987122 
L 543.715586 485.538132 
L 543.935139 393.867772 
L 544.154692 418.973015 
L 544.374245 335.251014 
L 544.593798 498.351519 
L 544.813351 488.920528 
L 545.032905 283.027448 
L 545.252458 539.029196 
L 545.472011 386.838063 
L 545.691564 460.853045 
L 545.911117 446.524538 
L 546.13067 502.948818 
L 546.350224 387.325777 
L 546.569777 460.629268 
L 546.78933 443.29218 
L 547.008883 506.595516 
L 547.228436 515.218637 
L 547.447989 506.377601 
L 547.887096 456.409368 
L 548.106649 412.770124 
L 548.326202 540.521947 
L 548.545755 465.261472 
L 548.765308 500.86542 
L 548.984861 400.643928 
L 549.204415 448.981045 
L 549.423968 524.925113 
L 549.643521 500.314323 
L 549.863074 383.455248 
L 550.082627 514.936122 
L 550.30218 391.145278 
L 550.521733 417.102721 
L 550.741287 474.322125 
L 550.96084 469.860148 
L 551.180393 452.843627 
L 551.619499 401.566006 
L 551.839052 475.34879 
L 552.058606 392.144241 
L 552.278159 508.681123 
L 552.497712 491.304322 
L 552.717265 525.26067 
L 552.936818 452.786356 
L 553.156371 522.309928 
L 553.375924 434.370844 
L 553.595478 491.440616 
L 553.815031 385.16509 
L 554.034584 480.715797 
L 554.254137 481.364196 
L 554.47369 355.329782 
L 554.693243 409.9609 
L 554.912797 511.725195 
L 555.13235 347.598821 
L 555.351903 534.400632 
L 555.571456 408.678687 
L 555.791009 507.663009 
L 556.010562 396.210674 
L 556.230115 459.472889 
L 556.449669 430.738973 
L 556.669222 452.521326 
L 556.888775 409.194608 
L 557.108328 504.73409 
L 557.327881 532.865819 
L 557.547434 514.930772 
L 557.766988 508.694019 
L 557.986541 515.17982 
L 558.206094 506.149705 
L 558.425647 490.541508 
L 558.6452 427.192693 
L 558.864753 474.123498 
L 559.084306 344.776901 
L 559.523413 484.434912 
L 559.742966 493.377856 
L 559.742966 493.377856 
" style="fill:none;stroke:#96c69a;stroke-linecap:round;stroke-width:3;"/>
   </g>
   <g id="line2d_2"/>
   <g id="patch_3">
    <path d="M 98.911875 603.86 
L 98.911875 109.484571 
" style="fill:none;stroke:#262626;stroke-linecap:square;stroke-linejoin:miter;stroke-width:2.5;"/>
   </g>
   <g id="patch_4">
    <path d="M 98.911875 603.86 
L 581.687304 603.86 
" style="fill:none;stroke:#262626;stroke-linecap:square;stroke-linejoin:miter;stroke-width:2.5;"/>
   </g>
   <g id="legend_1">
    <g id="patch_5">
     <path d="M 528.771679 598.86 
L 574.687304 598.86 
Q 576.687304 598.86 576.687304 596.86 
L 576.687304 554.954375 
Q 576.687304 552.954375 574.687304 552.954375 
L 528.771679 552.954375 
Q 526.771679 552.954375 526.771679 554.954375 
L 526.771679 596.86 
Q 526.771679 598.86 528.771679 598.86 
z
" style="fill:#ffffff;opacity:0.8;stroke:#cccccc;stroke-linejoin:miter;stroke-width:2;"/>
    </g>
    <g id="text_16">
     <!-- $n_\tau$ -->
     <g style="fill:#262626;" transform="translate(538.649491 575.190625)scale(0.24 -0.24)">
      <defs>
       <path d="M 3566 2113 
L 3156 0 
L 2578 0 
L 2988 2091 
Q 3016 2238 3031 2350 
Q 3047 2463 3047 2528 
Q 3047 2791 2881 2937 
Q 2716 3084 2419 3084 
Q 1956 3084 1622 2776 
Q 1288 2469 1184 1941 
L 800 0 
L 225 0 
L 903 3500 
L 1478 3500 
L 1363 2950 
Q 1603 3253 1940 3418 
Q 2278 3584 2650 3584 
Q 3113 3584 3367 3334 
Q 3622 3084 3622 2631 
Q 3622 2519 3608 2391 
Q 3594 2263 3566 2113 
z
" id="DejaVuSans-Oblique-6e" transform="scale(0.015625)"/>
       <path d="M 2103 638 
Q 2188 488 2525 488 
L 2800 488 
L 2706 0 
L 2363 0 
Q 1800 0 1600 300 
Q 1403 606 1534 1269 
L 1856 2925 
L 541 2925 
L 653 3500 
L 3881 3500 
L 3769 2925 
L 2444 2925 
L 2113 1234 
Q 2025 781 2103 638 
z
" id="DejaVuSans-Oblique-3c4" transform="scale(0.015625)"/>
      </defs>
      <use xlink:href="#DejaVuSans-Oblique-6e"/>
      <use transform="translate(63.378906 -16.40625)scale(0.7)" xlink:href="#DejaVuSans-Oblique-3c4"/>
     </g>
    </g>
    <g id="line2d_3">
     <path d="M 530.771679 589.280313 
L 550.771679 589.280313 
" style="fill:none;stroke:#96c69a;stroke-linecap:round;stroke-width:3;"/>
    </g>
    <g id="line2d_4"/>
    <g id="text_17">
     <!-- 64 -->
     <g style="fill:#262626;" transform="translate(558.771679 592.780313)scale(0.1 -0.1)">
      <defs>
       <path d="M 2316 2303 
Q 2000 2303 1842 2098 
Q 1684 1894 1684 1484 
Q 1684 1075 1842 870 
Q 2000 666 2316 666 
Q 2634 666 2792 870 
Q 2950 1075 2950 1484 
Q 2950 1894 2792 2098 
Q 2634 2303 2316 2303 
z
M 3803 4544 
L 3803 3681 
Q 3506 3822 3243 3889 
Q 2981 3956 2731 3956 
Q 2194 3956 1894 3657 
Q 1594 3359 1544 2772 
Q 1750 2925 1990 3001 
Q 2231 3078 2516 3078 
Q 3231 3078 3670 2659 
Q 4109 2241 4109 1563 
Q 4109 813 3618 361 
Q 3128 -91 2303 -91 
Q 1394 -91 895 523 
Q 397 1138 397 2266 
Q 397 3422 980 4083 
Q 1563 4744 2578 4744 
Q 2900 4744 3203 4694 
Q 3506 4644 3803 4544 
z
" id="DejaVuSans-Bold-36" transform="scale(0.015625)"/>
       <path d="M 2356 3675 
L 1038 1722 
L 2356 1722 
L 2356 3675 
z
M 2156 4666 
L 3494 4666 
L 3494 1722 
L 4159 1722 
L 4159 850 
L 3494 850 
L 3494 0 
L 2356 0 
L 2356 850 
L 288 850 
L 288 1881 
L 2156 4666 
z
" id="DejaVuSans-Bold-34" transform="scale(0.015625)"/>
      </defs>
      <use xlink:href="#DejaVuSans-Bold-36"/>
      <use x="69.580078" xlink:href="#DejaVuSans-Bold-34"/>
     </g>
    </g>
   </g>
  </g>
  <g id="axes_2">
   <g id="patch_6">
    <path d="M 98.911875 92.437143 
L 581.687304 92.437143 
L 581.687304 7.2 
L 98.911875 7.2 
z
" style="fill:none;"/>
   </g>
   <g id="matplotlib.axis_3">
    <g id="xtick_7"/>
    <g id="xtick_8"/>
    <g id="xtick_9"/>
    <g id="xtick_10"/>
    <g id="xtick_11"/>
    <g id="xtick_12"/>
   </g>
   <g id="matplotlib.axis_4">
    <g id="ytick_8">
     <g id="text_18">
      <!-- 0 -->
      <g style="fill:#262626;" transform="translate(69.414375 100.795424)scale(0.22 -0.22)">
       <use xlink:href="#DejaVuSans-30"/>
      </g>
     </g>
    </g>
    <g id="ytick_9">
     <g id="text_19">
      <!-- 100 -->
      <g style="fill:#262626;" transform="translate(41.419375 48.082287)scale(0.22 -0.22)">
       <use xlink:href="#DejaVuSans-31"/>
       <use x="63.623047" xlink:href="#DejaVuSans-30"/>
       <use x="127.246094" xlink:href="#DejaVuSans-30"/>
      </g>
     </g>
    </g>
   </g>
   <g id="patch_7">
    <path clip-path="url(#p09fe86e85c)" d="M 120.856213 92.437143 
L 154.616732 92.437143 
L 154.616732 11.258912 
L 120.856213 11.258912 
z
" style="fill:#96c69a;fill-opacity:0.5;stroke:#ffffff;stroke-linejoin:miter;stroke-width:2;"/>
   </g>
   <g id="patch_8">
    <path clip-path="url(#p09fe86e85c)" d="M 154.616732 92.437143 
L 188.377252 92.437143 
L 188.377252 11.258912 
L 154.616732 11.258912 
z
" style="fill:#96c69a;fill-opacity:0.5;stroke:#ffffff;stroke-linejoin:miter;stroke-width:2;"/>
   </g>
   <g id="patch_9">
    <path clip-path="url(#p09fe86e85c)" d="M 188.377252 92.437143 
L 222.137771 92.437143 
L 222.137771 11.258912 
L 188.377252 11.258912 
z
" style="fill:#96c69a;fill-opacity:0.5;stroke:#ffffff;stroke-linejoin:miter;stroke-width:2;"/>
   </g>
   <g id="patch_10">
    <path clip-path="url(#p09fe86e85c)" d="M 222.137771 92.437143 
L 255.898291 92.437143 
L 255.898291 11.258912 
L 222.137771 11.258912 
z
" style="fill:#96c69a;fill-opacity:0.5;stroke:#ffffff;stroke-linejoin:miter;stroke-width:2;"/>
   </g>
   <g id="patch_11">
    <path clip-path="url(#p09fe86e85c)" d="M 255.898291 92.437143 
L 289.65881 92.437143 
L 289.65881 11.786043 
L 255.898291 11.786043 
z
" style="fill:#96c69a;fill-opacity:0.5;stroke:#ffffff;stroke-linejoin:miter;stroke-width:2;"/>
   </g>
   <g id="patch_12">
    <path clip-path="url(#p09fe86e85c)" d="M 289.65881 92.437143 
L 323.41933 92.437143 
L 323.41933 11.258912 
L 289.65881 11.258912 
z
" style="fill:#96c69a;fill-opacity:0.5;stroke:#ffffff;stroke-linejoin:miter;stroke-width:2;"/>
   </g>
   <g id="patch_13">
    <path clip-path="url(#p09fe86e85c)" d="M 323.41933 92.437143 
L 357.179849 92.437143 
L 357.179849 11.258912 
L 323.41933 11.258912 
z
" style="fill:#96c69a;fill-opacity:0.5;stroke:#ffffff;stroke-linejoin:miter;stroke-width:2;"/>
   </g>
   <g id="patch_14">
    <path clip-path="url(#p09fe86e85c)" d="M 357.179849 92.437143 
L 390.940369 92.437143 
L 390.940369 11.258912 
L 357.179849 11.258912 
z
" style="fill:#96c69a;fill-opacity:0.5;stroke:#ffffff;stroke-linejoin:miter;stroke-width:2;"/>
   </g>
   <g id="patch_15">
    <path clip-path="url(#p09fe86e85c)" d="M 390.940369 92.437143 
L 424.700888 92.437143 
L 424.700888 11.786043 
L 390.940369 11.786043 
z
" style="fill:#96c69a;fill-opacity:0.5;stroke:#ffffff;stroke-linejoin:miter;stroke-width:2;"/>
   </g>
   <g id="patch_16">
    <path clip-path="url(#p09fe86e85c)" d="M 424.700888 92.437143 
L 458.461407 92.437143 
L 458.461407 11.258912 
L 424.700888 11.258912 
z
" style="fill:#96c69a;fill-opacity:0.5;stroke:#ffffff;stroke-linejoin:miter;stroke-width:2;"/>
   </g>
   <g id="patch_17">
    <path clip-path="url(#p09fe86e85c)" d="M 458.461407 92.437143 
L 492.221927 92.437143 
L 492.221927 11.258912 
L 458.461407 11.258912 
z
" style="fill:#96c69a;fill-opacity:0.5;stroke:#ffffff;stroke-linejoin:miter;stroke-width:2;"/>
   </g>
   <g id="patch_18">
    <path clip-path="url(#p09fe86e85c)" d="M 492.221927 92.437143 
L 525.982446 92.437143 
L 525.982446 11.258912 
L 492.221927 11.258912 
z
" style="fill:#96c69a;fill-opacity:0.5;stroke:#ffffff;stroke-linejoin:miter;stroke-width:2;"/>
   </g>
   <g id="patch_19">
    <path clip-path="url(#p09fe86e85c)" d="M 525.982446 92.437143 
L 559.742966 92.437143 
L 559.742966 11.258912 
L 525.982446 11.258912 
z
" style="fill:#96c69a;fill-opacity:0.5;stroke:#ffffff;stroke-linejoin:miter;stroke-width:2;"/>
   </g>
   <g id="patch_20">
    <path d="M 98.911875 92.437143 
L 98.911875 7.2 
" style="fill:none;stroke:#262626;stroke-linecap:square;stroke-linejoin:miter;stroke-width:2.5;"/>
   </g>
   <g id="patch_21">
    <path d="M 98.911875 92.437143 
L 581.687304 92.437143 
" style="fill:none;stroke:#262626;stroke-linecap:square;stroke-linejoin:miter;stroke-width:2.5;"/>
   </g>
  </g>
  <g id="axes_3">
   <g id="patch_22">
    <path d="M 598.334732 603.86 
L 681.571875 603.86 
L 681.571875 109.484571 
L 598.334732 109.484571 
z
" style="fill:none;"/>
   </g>
   <g id="matplotlib.axis_5">
    <g id="xtick_13">
     <g id="text_20">
      <!-- 0 -->
      <g style="fill:#262626;" transform="translate(591.335982 636.076563)scale(0.22 -0.22)">
       <use xlink:href="#DejaVuSans-30"/>
      </g>
     </g>
    </g>
    <g id="xtick_14">
     <g id="text_21">
      <!-- 200 -->
      <g style="fill:#262626;" transform="translate(657.010311 636.076563)scale(0.22 -0.22)">
       <use xlink:href="#DejaVuSans-32"/>
       <use x="63.623047" xlink:href="#DejaVuSans-30"/>
       <use x="127.246094" xlink:href="#DejaVuSans-30"/>
      </g>
     </g>
    </g>
   </g>
   <g id="matplotlib.axis_6">
    <g id="ytick_10"/>
    <g id="ytick_11"/>
    <g id="ytick_12"/>
    <g id="ytick_13"/>
    <g id="ytick_14"/>
    <g id="ytick_15"/>
    <g id="ytick_16"/>
   </g>
   <g id="patch_23">
    <path clip-path="url(#p9f9f578f59)" d="M 598.334732 581.38839 
L 599.52981 581.38839 
L 599.52981 570.936478 
L 598.334732 570.936478 
z
" style="fill:#96c69a;fill-opacity:0.5;stroke:#ffffff;stroke-linejoin:miter;stroke-width:1.045191;"/>
   </g>
   <g id="patch_24">
    <path clip-path="url(#p9f9f578f59)" d="M 598.334732 570.936478 
L 602.716683 570.936478 
L 602.716683 560.484566 
L 598.334732 560.484566 
z
" style="fill:#96c69a;fill-opacity:0.5;stroke:#ffffff;stroke-linejoin:miter;stroke-width:1.045191;"/>
   </g>
   <g id="patch_25">
    <path clip-path="url(#p9f9f578f59)" d="M 598.334732 560.484566 
L 604.708478 560.484566 
L 604.708478 550.032654 
L 598.334732 550.032654 
z
" style="fill:#96c69a;fill-opacity:0.5;stroke:#ffffff;stroke-linejoin:miter;stroke-width:1.045191;"/>
   </g>
   <g id="patch_26">
    <path clip-path="url(#p9f9f578f59)" d="M 598.334732 550.032654 
L 616.260894 550.032654 
L 616.260894 539.580742 
L 598.334732 539.580742 
z
" style="fill:#96c69a;fill-opacity:0.5;stroke:#ffffff;stroke-linejoin:miter;stroke-width:1.045191;"/>
   </g>
   <g id="patch_27">
    <path clip-path="url(#p9f9f578f59)" d="M 598.334732 539.580742 
L 627.01659 539.580742 
L 627.01659 529.128831 
L 598.334732 529.128831 
z
" style="fill:#96c69a;fill-opacity:0.5;stroke:#ffffff;stroke-linejoin:miter;stroke-width:1.045191;"/>
   </g>
   <g id="patch_28">
    <path clip-path="url(#p9f9f578f59)" d="M 598.334732 529.128831 
L 638.967365 529.128831 
L 638.967365 518.676919 
L 598.334732 518.676919 
z
" style="fill:#96c69a;fill-opacity:0.5;stroke:#ffffff;stroke-linejoin:miter;stroke-width:1.045191;"/>
   </g>
   <g id="patch_29">
    <path clip-path="url(#p9f9f578f59)" d="M 598.334732 518.676919 
L 643.747674 518.676919 
L 643.747674 508.225007 
L 598.334732 508.225007 
z
" style="fill:#96c69a;fill-opacity:0.5;stroke:#ffffff;stroke-linejoin:miter;stroke-width:1.045191;"/>
   </g>
   <g id="patch_30">
    <path clip-path="url(#p9f9f578f59)" d="M 598.334732 508.225007 
L 670.039378 508.225007 
L 670.039378 497.773095 
L 598.334732 497.773095 
z
" style="fill:#96c69a;fill-opacity:0.5;stroke:#ffffff;stroke-linejoin:miter;stroke-width:1.045191;"/>
   </g>
   <g id="patch_31">
    <path clip-path="url(#p9f9f578f59)" d="M 598.334732 497.773095 
L 659.283681 497.773095 
L 659.283681 487.321183 
L 598.334732 487.321183 
z
" style="fill:#96c69a;fill-opacity:0.5;stroke:#ffffff;stroke-linejoin:miter;stroke-width:1.045191;"/>
   </g>
   <g id="patch_32">
    <path clip-path="url(#p9f9f578f59)" d="M 598.334732 487.321183 
L 677.608202 487.321183 
L 677.608202 476.869272 
L 598.334732 476.869272 
z
" style="fill:#96c69a;fill-opacity:0.5;stroke:#ffffff;stroke-linejoin:miter;stroke-width:1.045191;"/>
   </g>
   <g id="patch_33">
    <path clip-path="url(#p9f9f578f59)" d="M 598.334732 476.869272 
L 666.454146 476.869272 
L 666.454146 466.41736 
L 598.334732 466.41736 
z
" style="fill:#96c69a;fill-opacity:0.5;stroke:#ffffff;stroke-linejoin:miter;stroke-width:1.045191;"/>
   </g>
   <g id="patch_34">
    <path clip-path="url(#p9f9f578f59)" d="M 598.334732 466.41736 
L 661.673836 466.41736 
L 661.673836 455.965448 
L 598.334732 455.965448 
z
" style="fill:#96c69a;fill-opacity:0.5;stroke:#ffffff;stroke-linejoin:miter;stroke-width:1.045191;"/>
   </g>
   <g id="patch_35">
    <path clip-path="url(#p9f9f578f59)" d="M 598.334732 455.965448 
L 656.495167 455.965448 
L 656.495167 445.513536 
L 598.334732 445.513536 
z
" style="fill:#96c69a;fill-opacity:0.5;stroke:#ffffff;stroke-linejoin:miter;stroke-width:1.045191;"/>
   </g>
   <g id="patch_36">
    <path clip-path="url(#p9f9f578f59)" d="M 598.334732 445.513536 
L 645.341111 445.513536 
L 645.341111 435.061624 
L 598.334732 435.061624 
z
" style="fill:#96c69a;fill-opacity:0.5;stroke:#ffffff;stroke-linejoin:miter;stroke-width:1.045191;"/>
   </g>
   <g id="patch_37">
    <path clip-path="url(#p9f9f578f59)" d="M 598.334732 435.061624 
L 639.365724 435.061624 
L 639.365724 424.609712 
L 598.334732 424.609712 
z
" style="fill:#96c69a;fill-opacity:0.5;stroke:#ffffff;stroke-linejoin:miter;stroke-width:1.045191;"/>
   </g>
   <g id="patch_38">
    <path clip-path="url(#p9f9f578f59)" d="M 598.334732 424.609712 
L 632.991978 424.609712 
L 632.991978 414.157801 
L 598.334732 414.157801 
z
" style="fill:#96c69a;fill-opacity:0.5;stroke:#ffffff;stroke-linejoin:miter;stroke-width:1.045191;"/>
   </g>
   <g id="patch_39">
    <path clip-path="url(#p9f9f578f59)" d="M 598.334732 414.157801 
L 631.7969 414.157801 
L 631.7969 403.705889 
L 598.334732 403.705889 
z
" style="fill:#96c69a;fill-opacity:0.5;stroke:#ffffff;stroke-linejoin:miter;stroke-width:1.045191;"/>
   </g>
   <g id="patch_40">
    <path clip-path="url(#p9f9f578f59)" d="M 598.334732 403.705889 
L 621.439562 403.705889 
L 621.439562 393.253977 
L 598.334732 393.253977 
z
" style="fill:#96c69a;fill-opacity:0.5;stroke:#ffffff;stroke-linejoin:miter;stroke-width:1.045191;"/>
   </g>
   <g id="patch_41">
    <path clip-path="url(#p9f9f578f59)" d="M 598.334732 393.253977 
L 618.651048 393.253977 
L 618.651048 382.802065 
L 598.334732 382.802065 
z
" style="fill:#96c69a;fill-opacity:0.5;stroke:#ffffff;stroke-linejoin:miter;stroke-width:1.045191;"/>
   </g>
   <g id="patch_42">
    <path clip-path="url(#p9f9f578f59)" d="M 598.334732 382.802065 
L 608.69207 382.802065 
L 608.69207 372.350153 
L 598.334732 372.350153 
z
" style="fill:#96c69a;fill-opacity:0.5;stroke:#ffffff;stroke-linejoin:miter;stroke-width:1.045191;"/>
   </g>
   <g id="patch_43">
    <path clip-path="url(#p9f9f578f59)" d="M 598.334732 372.350153 
L 610.683866 372.350153 
L 610.683866 361.898242 
L 598.334732 361.898242 
z
" style="fill:#96c69a;fill-opacity:0.5;stroke:#ffffff;stroke-linejoin:miter;stroke-width:1.045191;"/>
   </g>
   <g id="patch_44">
    <path clip-path="url(#p9f9f578f59)" d="M 598.334732 361.898242 
L 604.310119 361.898242 
L 604.310119 351.44633 
L 598.334732 351.44633 
z
" style="fill:#96c69a;fill-opacity:0.5;stroke:#ffffff;stroke-linejoin:miter;stroke-width:1.045191;"/>
   </g>
   <g id="patch_45">
    <path clip-path="url(#p9f9f578f59)" d="M 598.334732 351.44633 
L 604.708478 351.44633 
L 604.708478 340.994418 
L 598.334732 340.994418 
z
" style="fill:#96c69a;fill-opacity:0.5;stroke:#ffffff;stroke-linejoin:miter;stroke-width:1.045191;"/>
   </g>
   <g id="patch_46">
    <path clip-path="url(#p9f9f578f59)" d="M 598.334732 340.994418 
L 601.521605 340.994418 
L 601.521605 330.542506 
L 598.334732 330.542506 
z
" style="fill:#96c69a;fill-opacity:0.5;stroke:#ffffff;stroke-linejoin:miter;stroke-width:1.045191;"/>
   </g>
   <g id="patch_47">
    <path clip-path="url(#p9f9f578f59)" d="M 598.334732 330.542506 
L 601.919964 330.542506 
L 601.919964 320.090594 
L 598.334732 320.090594 
z
" style="fill:#96c69a;fill-opacity:0.5;stroke:#ffffff;stroke-linejoin:miter;stroke-width:1.045191;"/>
   </g>
   <g id="patch_48">
    <path clip-path="url(#p9f9f578f59)" d="M 598.334732 320.090594 
L 601.123246 320.090594 
L 601.123246 309.638683 
L 598.334732 309.638683 
z
" style="fill:#96c69a;fill-opacity:0.5;stroke:#ffffff;stroke-linejoin:miter;stroke-width:1.045191;"/>
   </g>
   <g id="patch_49">
    <path clip-path="url(#p9f9f578f59)" d="M 598.334732 309.638683 
L 599.928169 309.638683 
L 599.928169 299.186771 
L 598.334732 299.186771 
z
" style="fill:#96c69a;fill-opacity:0.5;stroke:#ffffff;stroke-linejoin:miter;stroke-width:1.045191;"/>
   </g>
   <g id="patch_50">
    <path clip-path="url(#p9f9f578f59)" d="M 598.334732 299.186771 
L 599.52981 299.186771 
L 599.52981 288.734859 
L 598.334732 288.734859 
z
" style="fill:#96c69a;fill-opacity:0.5;stroke:#ffffff;stroke-linejoin:miter;stroke-width:1.045191;"/>
   </g>
   <g id="patch_51">
    <path clip-path="url(#p9f9f578f59)" d="M 598.334732 288.734859 
L 599.928169 288.734859 
L 599.928169 278.282947 
L 598.334732 278.282947 
z
" style="fill:#96c69a;fill-opacity:0.5;stroke:#ffffff;stroke-linejoin:miter;stroke-width:1.045191;"/>
   </g>
   <g id="patch_52">
    <path clip-path="url(#p9f9f578f59)" d="M 598.334732 278.282947 
L 598.733091 278.282947 
L 598.733091 267.831035 
L 598.334732 267.831035 
z
" style="fill:#96c69a;fill-opacity:0.5;stroke:#ffffff;stroke-linejoin:miter;stroke-width:1.045191;"/>
   </g>
   <g id="patch_53">
    <path clip-path="url(#p9f9f578f59)" d="M 598.334732 267.831035 
L 598.334732 267.831035 
L 598.334732 257.379124 
L 598.334732 257.379124 
z
" style="fill:#96c69a;fill-opacity:0.5;stroke:#ffffff;stroke-linejoin:miter;stroke-width:1.045191;"/>
   </g>
   <g id="patch_54">
    <path clip-path="url(#p9f9f578f59)" d="M 598.334732 257.379124 
L 598.334732 257.379124 
L 598.334732 246.927212 
L 598.334732 246.927212 
z
" style="fill:#96c69a;fill-opacity:0.5;stroke:#ffffff;stroke-linejoin:miter;stroke-width:1.045191;"/>
   </g>
   <g id="patch_55">
    <path clip-path="url(#p9f9f578f59)" d="M 598.334732 246.927212 
L 599.13145 246.927212 
L 599.13145 236.4753 
L 598.334732 236.4753 
z
" style="fill:#96c69a;fill-opacity:0.5;stroke:#ffffff;stroke-linejoin:miter;stroke-width:1.045191;"/>
   </g>
   <g id="patch_56">
    <path clip-path="url(#p9f9f578f59)" d="M 598.334732 236.4753 
L 598.733091 236.4753 
L 598.733091 226.023388 
L 598.334732 226.023388 
z
" style="fill:#96c69a;fill-opacity:0.5;stroke:#ffffff;stroke-linejoin:miter;stroke-width:1.045191;"/>
   </g>
   <g id="patch_57">
    <path clip-path="url(#p9f9f578f59)" d="M 598.334732 226.023388 
L 598.334732 226.023388 
L 598.334732 215.571476 
L 598.334732 215.571476 
z
" style="fill:#96c69a;fill-opacity:0.5;stroke:#ffffff;stroke-linejoin:miter;stroke-width:1.045191;"/>
   </g>
   <g id="patch_58">
    <path clip-path="url(#p9f9f578f59)" d="M 598.334732 215.571476 
L 598.334732 215.571476 
L 598.334732 205.119564 
L 598.334732 205.119564 
z
" style="fill:#96c69a;fill-opacity:0.5;stroke:#ffffff;stroke-linejoin:miter;stroke-width:1.045191;"/>
   </g>
   <g id="patch_59">
    <path clip-path="url(#p9f9f578f59)" d="M 598.334732 205.119564 
L 598.334732 205.119564 
L 598.334732 194.667653 
L 598.334732 194.667653 
z
" style="fill:#96c69a;fill-opacity:0.5;stroke:#ffffff;stroke-linejoin:miter;stroke-width:1.045191;"/>
   </g>
   <g id="patch_60">
    <path clip-path="url(#p9f9f578f59)" d="M 598.334732 194.667653 
L 598.334732 194.667653 
L 598.334732 184.215741 
L 598.334732 184.215741 
z
" style="fill:#96c69a;fill-opacity:0.5;stroke:#ffffff;stroke-linejoin:miter;stroke-width:1.045191;"/>
   </g>
   <g id="patch_61">
    <path clip-path="url(#p9f9f578f59)" d="M 598.334732 184.215741 
L 598.334732 184.215741 
L 598.334732 173.763829 
L 598.334732 173.763829 
z
" style="fill:#96c69a;fill-opacity:0.5;stroke:#ffffff;stroke-linejoin:miter;stroke-width:1.045191;"/>
   </g>
   <g id="patch_62">
    <path clip-path="url(#p9f9f578f59)" d="M 598.334732 173.763829 
L 598.334732 173.763829 
L 598.334732 163.311917 
L 598.334732 163.311917 
z
" style="fill:#96c69a;fill-opacity:0.5;stroke:#ffffff;stroke-linejoin:miter;stroke-width:1.045191;"/>
   </g>
   <g id="patch_63">
    <path clip-path="url(#p9f9f578f59)" d="M 598.334732 163.311917 
L 598.334732 163.311917 
L 598.334732 152.860005 
L 598.334732 152.860005 
z
" style="fill:#96c69a;fill-opacity:0.5;stroke:#ffffff;stroke-linejoin:miter;stroke-width:1.045191;"/>
   </g>
   <g id="patch_64">
    <path clip-path="url(#p9f9f578f59)" d="M 598.334732 152.860005 
L 598.334732 152.860005 
L 598.334732 142.408094 
L 598.334732 142.408094 
z
" style="fill:#96c69a;fill-opacity:0.5;stroke:#ffffff;stroke-linejoin:miter;stroke-width:1.045191;"/>
   </g>
   <g id="patch_65">
    <path clip-path="url(#p9f9f578f59)" d="M 598.334732 142.408094 
L 598.733091 142.408094 
L 598.733091 131.956182 
L 598.334732 131.956182 
z
" style="fill:#96c69a;fill-opacity:0.5;stroke:#ffffff;stroke-linejoin:miter;stroke-width:1.045191;"/>
   </g>
   <g id="patch_66">
    <path d="M 598.334732 603.86 
L 598.334732 109.484571 
" style="fill:none;stroke:#262626;stroke-linecap:square;stroke-linejoin:miter;stroke-width:2.5;"/>
   </g>
   <g id="patch_67">
    <path d="M 598.334732 603.86 
L 681.571875 603.86 
" style="fill:none;stroke:#262626;stroke-linecap:square;stroke-linejoin:miter;stroke-width:2.5;"/>
   </g>
  </g>
 </g>
 <defs>
  <clipPath id="pc675f5df9f">
   <rect height="494.375429" width="482.775429" x="98.911875" y="109.484571"/>
  </clipPath>
  <clipPath id="p09fe86e85c">
   <rect height="85.237143" width="482.775429" x="98.911875" y="7.2"/>
  </clipPath>
  <clipPath id="p9f9f578f59">
   <rect height="494.375429" width="83.237143" x="598.334732" y="109.484571"/>
  </clipPath>
 </defs>
</svg>
