<?xml version="1.0" encoding="utf-8" standalone="no"?>
<!DOCTYPE svg PUBLIC "-//W3C//DTD SVG 1.1//EN"
  "http://www.w3.org/Graphics/SVG/1.1/DTD/svg11.dtd">
<svg height="675.079375pt" version="1.1" viewBox="0 0 708.679655 675.079375" width="708.679655pt" xmlns="http://www.w3.org/2000/svg" xmlns:xlink="http://www.w3.org/1999/xlink">
 <metadata>
  <rdf:RDF xmlns:cc="http://creativecommons.org/ns#" xmlns:dc="http://purl.org/dc/elements/1.1/" xmlns:rdf="http://www.w3.org/1999/02/22-rdf-syntax-ns#">
   <cc:Work>
    <dc:type rdf:resource="http://purl.org/dc/dcmitype/StillImage"/>
    <dc:date>2021-07-16T21:43:56.687725</dc:date>
    <dc:format>image/svg+xml</dc:format>
    <dc:creator>
     <cc:Agent>
      <dc:title>Matplotlib v3.4.2, https://matplotlib.org/</dc:title>
     </cc:Agent>
    </dc:creator>
   </cc:Work>
  </rdf:RDF>
 </metadata>
 <defs>
  <style type="text/css">*{stroke-linecap:butt;stroke-linejoin:round;}</style>
 </defs>
 <g id="figure_1">
  <g id="patch_1">
   <path d="M 0 675.079375 
L 708.679655 675.079375 
L 708.679655 0 
L 0 0 
z
" style="fill:#ffffff;"/>
  </g>
  <g id="axes_1">
   <g id="patch_2">
    <path d="M 98.911875 603.86 
L 581.687304 603.86 
L 581.687304 109.484571 
L 98.911875 109.484571 
z
" style="fill:none;"/>
   </g>
   <g id="matplotlib.axis_1">
    <g id="xtick_1">
     <g id="text_1">
      <!-- 0 -->
      <g style="fill:#262626;" transform="translate(113.63791 636.076563)scale(0.22 -0.22)">
       <defs>
        <path d="M 2034 4250 
Q 1547 4250 1301 3770 
Q 1056 3291 1056 2328 
Q 1056 1369 1301 889 
Q 1547 409 2034 409 
Q 2525 409 2770 889 
Q 3016 1369 3016 2328 
Q 3016 3291 2770 3770 
Q 2525 4250 2034 4250 
z
M 2034 4750 
Q 2819 4750 3233 4129 
Q 3647 3509 3647 2328 
Q 3647 1150 3233 529 
Q 2819 -91 2034 -91 
Q 1250 -91 836 529 
Q 422 1150 422 2328 
Q 422 3509 836 4129 
Q 1250 4750 2034 4750 
z
" id="DejaVuSans-30" transform="scale(0.015625)"/>
       </defs>
       <use xlink:href="#DejaVuSans-30"/>
      </g>
     </g>
    </g>
    <g id="xtick_2">
     <g id="text_2">
      <!-- 20000 -->
      <g style="fill:#262626;" transform="translate(173.464171 636.076563)scale(0.22 -0.22)">
       <defs>
        <path d="M 1228 531 
L 3431 531 
L 3431 0 
L 469 0 
L 469 531 
Q 828 903 1448 1529 
Q 2069 2156 2228 2338 
Q 2531 2678 2651 2914 
Q 2772 3150 2772 3378 
Q 2772 3750 2511 3984 
Q 2250 4219 1831 4219 
Q 1534 4219 1204 4116 
Q 875 4013 500 3803 
L 500 4441 
Q 881 4594 1212 4672 
Q 1544 4750 1819 4750 
Q 2544 4750 2975 4387 
Q 3406 4025 3406 3419 
Q 3406 3131 3298 2873 
Q 3191 2616 2906 2266 
Q 2828 2175 2409 1742 
Q 1991 1309 1228 531 
z
" id="DejaVuSans-32" transform="scale(0.015625)"/>
       </defs>
       <use xlink:href="#DejaVuSans-32"/>
       <use x="63.623047" xlink:href="#DejaVuSans-30"/>
       <use x="127.246094" xlink:href="#DejaVuSans-30"/>
       <use x="190.869141" xlink:href="#DejaVuSans-30"/>
       <use x="254.492188" xlink:href="#DejaVuSans-30"/>
      </g>
     </g>
    </g>
    <g id="xtick_3">
     <g id="text_3">
      <!-- 40000 -->
      <g style="fill:#262626;" transform="translate(261.285432 636.076563)scale(0.22 -0.22)">
       <defs>
        <path d="M 2419 4116 
L 825 1625 
L 2419 1625 
L 2419 4116 
z
M 2253 4666 
L 3047 4666 
L 3047 1625 
L 3713 1625 
L 3713 1100 
L 3047 1100 
L 3047 0 
L 2419 0 
L 2419 1100 
L 313 1100 
L 313 1709 
L 2253 4666 
z
" id="DejaVuSans-34" transform="scale(0.015625)"/>
       </defs>
       <use xlink:href="#DejaVuSans-34"/>
       <use x="63.623047" xlink:href="#DejaVuSans-30"/>
       <use x="127.246094" xlink:href="#DejaVuSans-30"/>
       <use x="190.869141" xlink:href="#DejaVuSans-30"/>
       <use x="254.492188" xlink:href="#DejaVuSans-30"/>
      </g>
     </g>
    </g>
    <g id="xtick_4">
     <g id="text_4">
      <!-- 60000 -->
      <g style="fill:#262626;" transform="translate(349.106693 636.076563)scale(0.22 -0.22)">
       <defs>
        <path d="M 2113 2584 
Q 1688 2584 1439 2293 
Q 1191 2003 1191 1497 
Q 1191 994 1439 701 
Q 1688 409 2113 409 
Q 2538 409 2786 701 
Q 3034 994 3034 1497 
Q 3034 2003 2786 2293 
Q 2538 2584 2113 2584 
z
M 3366 4563 
L 3366 3988 
Q 3128 4100 2886 4159 
Q 2644 4219 2406 4219 
Q 1781 4219 1451 3797 
Q 1122 3375 1075 2522 
Q 1259 2794 1537 2939 
Q 1816 3084 2150 3084 
Q 2853 3084 3261 2657 
Q 3669 2231 3669 1497 
Q 3669 778 3244 343 
Q 2819 -91 2113 -91 
Q 1303 -91 875 529 
Q 447 1150 447 2328 
Q 447 3434 972 4092 
Q 1497 4750 2381 4750 
Q 2619 4750 2861 4703 
Q 3103 4656 3366 4563 
z
" id="DejaVuSans-36" transform="scale(0.015625)"/>
       </defs>
       <use xlink:href="#DejaVuSans-36"/>
       <use x="63.623047" xlink:href="#DejaVuSans-30"/>
       <use x="127.246094" xlink:href="#DejaVuSans-30"/>
       <use x="190.869141" xlink:href="#DejaVuSans-30"/>
       <use x="254.492188" xlink:href="#DejaVuSans-30"/>
      </g>
     </g>
    </g>
    <g id="xtick_5">
     <g id="text_5">
      <!-- 80000 -->
      <g style="fill:#262626;" transform="translate(436.927955 636.076563)scale(0.22 -0.22)">
       <defs>
        <path d="M 2034 2216 
Q 1584 2216 1326 1975 
Q 1069 1734 1069 1313 
Q 1069 891 1326 650 
Q 1584 409 2034 409 
Q 2484 409 2743 651 
Q 3003 894 3003 1313 
Q 3003 1734 2745 1975 
Q 2488 2216 2034 2216 
z
M 1403 2484 
Q 997 2584 770 2862 
Q 544 3141 544 3541 
Q 544 4100 942 4425 
Q 1341 4750 2034 4750 
Q 2731 4750 3128 4425 
Q 3525 4100 3525 3541 
Q 3525 3141 3298 2862 
Q 3072 2584 2669 2484 
Q 3125 2378 3379 2068 
Q 3634 1759 3634 1313 
Q 3634 634 3220 271 
Q 2806 -91 2034 -91 
Q 1263 -91 848 271 
Q 434 634 434 1313 
Q 434 1759 690 2068 
Q 947 2378 1403 2484 
z
M 1172 3481 
Q 1172 3119 1398 2916 
Q 1625 2713 2034 2713 
Q 2441 2713 2670 2916 
Q 2900 3119 2900 3481 
Q 2900 3844 2670 4047 
Q 2441 4250 2034 4250 
Q 1625 4250 1398 4047 
Q 1172 3844 1172 3481 
z
" id="DejaVuSans-38" transform="scale(0.015625)"/>
       </defs>
       <use xlink:href="#DejaVuSans-38"/>
       <use x="63.623047" xlink:href="#DejaVuSans-30"/>
       <use x="127.246094" xlink:href="#DejaVuSans-30"/>
       <use x="190.869141" xlink:href="#DejaVuSans-30"/>
       <use x="254.492188" xlink:href="#DejaVuSans-30"/>
      </g>
     </g>
    </g>
    <g id="xtick_6">
     <g id="text_6">
      <!-- 100000 -->
      <g style="fill:#262626;" transform="translate(517.750466 636.076563)scale(0.22 -0.22)">
       <defs>
        <path d="M 794 531 
L 1825 531 
L 1825 4091 
L 703 3866 
L 703 4441 
L 1819 4666 
L 2450 4666 
L 2450 531 
L 3481 531 
L 3481 0 
L 794 0 
L 794 531 
z
" id="DejaVuSans-31" transform="scale(0.015625)"/>
       </defs>
       <use xlink:href="#DejaVuSans-31"/>
       <use x="63.623047" xlink:href="#DejaVuSans-30"/>
       <use x="127.246094" xlink:href="#DejaVuSans-30"/>
       <use x="190.869141" xlink:href="#DejaVuSans-30"/>
       <use x="254.492188" xlink:href="#DejaVuSans-30"/>
       <use x="318.115234" xlink:href="#DejaVuSans-30"/>
      </g>
     </g>
    </g>
    <g id="text_7">
     <!-- MDTU -->
     <g style="fill:#262626;" transform="translate(304.593964 662.888125)scale(0.24 -0.24)">
      <defs>
       <path d="M 628 4666 
L 1569 4666 
L 2759 1491 
L 3956 4666 
L 4897 4666 
L 4897 0 
L 4281 0 
L 4281 4097 
L 3078 897 
L 2444 897 
L 1241 4097 
L 1241 0 
L 628 0 
L 628 4666 
z
" id="DejaVuSans-4d" transform="scale(0.015625)"/>
       <path d="M 1259 4147 
L 1259 519 
L 2022 519 
Q 2988 519 3436 956 
Q 3884 1394 3884 2338 
Q 3884 3275 3436 3711 
Q 2988 4147 2022 4147 
L 1259 4147 
z
M 628 4666 
L 1925 4666 
Q 3281 4666 3915 4102 
Q 4550 3538 4550 2338 
Q 4550 1131 3912 565 
Q 3275 0 1925 0 
L 628 0 
L 628 4666 
z
" id="DejaVuSans-44" transform="scale(0.015625)"/>
       <path d="M -19 4666 
L 3928 4666 
L 3928 4134 
L 2272 4134 
L 2272 0 
L 1638 0 
L 1638 4134 
L -19 4134 
L -19 4666 
z
" id="DejaVuSans-54" transform="scale(0.015625)"/>
       <path d="M 556 4666 
L 1191 4666 
L 1191 1831 
Q 1191 1081 1462 751 
Q 1734 422 2344 422 
Q 2950 422 3222 751 
Q 3494 1081 3494 1831 
L 3494 4666 
L 4128 4666 
L 4128 1753 
Q 4128 841 3676 375 
Q 3225 -91 2344 -91 
Q 1459 -91 1007 375 
Q 556 841 556 1753 
L 556 4666 
z
" id="DejaVuSans-55" transform="scale(0.015625)"/>
      </defs>
      <use xlink:href="#DejaVuSans-4d"/>
      <use x="86.279297" xlink:href="#DejaVuSans-44"/>
      <use x="163.28125" xlink:href="#DejaVuSans-54"/>
      <use x="224.365234" xlink:href="#DejaVuSans-55"/>
     </g>
    </g>
   </g>
   <g id="matplotlib.axis_2">
    <g id="ytick_1">
     <g id="text_8">
      <!-- 0.25 -->
      <g style="fill:#262626;" transform="translate(34.4275 596.082405)scale(0.22 -0.22)">
       <defs>
        <path d="M 684 794 
L 1344 794 
L 1344 0 
L 684 0 
L 684 794 
z
" id="DejaVuSans-2e" transform="scale(0.015625)"/>
        <path d="M 691 4666 
L 3169 4666 
L 3169 4134 
L 1269 4134 
L 1269 2991 
Q 1406 3038 1543 3061 
Q 1681 3084 1819 3084 
Q 2600 3084 3056 2656 
Q 3513 2228 3513 1497 
Q 3513 744 3044 326 
Q 2575 -91 1722 -91 
Q 1428 -91 1123 -41 
Q 819 9 494 109 
L 494 744 
Q 775 591 1075 516 
Q 1375 441 1709 441 
Q 2250 441 2565 725 
Q 2881 1009 2881 1497 
Q 2881 1984 2565 2268 
Q 2250 2553 1709 2553 
Q 1456 2553 1204 2497 
Q 953 2441 691 2322 
L 691 4666 
z
" id="DejaVuSans-35" transform="scale(0.015625)"/>
       </defs>
       <use xlink:href="#DejaVuSans-30"/>
       <use x="63.623047" xlink:href="#DejaVuSans-2e"/>
       <use x="95.410156" xlink:href="#DejaVuSans-32"/>
       <use x="159.033203" xlink:href="#DejaVuSans-35"/>
      </g>
     </g>
    </g>
    <g id="ytick_2">
     <g id="text_9">
      <!-- 0.50 -->
      <g style="fill:#262626;" transform="translate(34.4275 534.442088)scale(0.22 -0.22)">
       <use xlink:href="#DejaVuSans-30"/>
       <use x="63.623047" xlink:href="#DejaVuSans-2e"/>
       <use x="95.410156" xlink:href="#DejaVuSans-35"/>
       <use x="159.033203" xlink:href="#DejaVuSans-30"/>
      </g>
     </g>
    </g>
    <g id="ytick_3">
     <g id="text_10">
      <!-- 0.75 -->
      <g style="fill:#262626;" transform="translate(34.4275 472.801772)scale(0.22 -0.22)">
       <defs>
        <path d="M 525 4666 
L 3525 4666 
L 3525 4397 
L 1831 0 
L 1172 0 
L 2766 4134 
L 525 4134 
L 525 4666 
z
" id="DejaVuSans-37" transform="scale(0.015625)"/>
       </defs>
       <use xlink:href="#DejaVuSans-30"/>
       <use x="63.623047" xlink:href="#DejaVuSans-2e"/>
       <use x="95.410156" xlink:href="#DejaVuSans-37"/>
       <use x="159.033203" xlink:href="#DejaVuSans-35"/>
      </g>
     </g>
    </g>
    <g id="ytick_4">
     <g id="text_11">
      <!-- 1.00 -->
      <g style="fill:#262626;" transform="translate(34.4275 411.161455)scale(0.22 -0.22)">
       <use xlink:href="#DejaVuSans-31"/>
       <use x="63.623047" xlink:href="#DejaVuSans-2e"/>
       <use x="95.410156" xlink:href="#DejaVuSans-30"/>
       <use x="159.033203" xlink:href="#DejaVuSans-30"/>
      </g>
     </g>
    </g>
    <g id="ytick_5">
     <g id="text_12">
      <!-- 1.25 -->
      <g style="fill:#262626;" transform="translate(34.4275 349.521139)scale(0.22 -0.22)">
       <use xlink:href="#DejaVuSans-31"/>
       <use x="63.623047" xlink:href="#DejaVuSans-2e"/>
       <use x="95.410156" xlink:href="#DejaVuSans-32"/>
       <use x="159.033203" xlink:href="#DejaVuSans-35"/>
      </g>
     </g>
    </g>
    <g id="ytick_6">
     <g id="text_13">
      <!-- 1.50 -->
      <g style="fill:#262626;" transform="translate(34.4275 287.880822)scale(0.22 -0.22)">
       <use xlink:href="#DejaVuSans-31"/>
       <use x="63.623047" xlink:href="#DejaVuSans-2e"/>
       <use x="95.410156" xlink:href="#DejaVuSans-35"/>
       <use x="159.033203" xlink:href="#DejaVuSans-30"/>
      </g>
     </g>
    </g>
    <g id="ytick_7">
     <g id="text_14">
      <!-- 1.75 -->
      <g style="fill:#262626;" transform="translate(34.4275 226.240506)scale(0.22 -0.22)">
       <use xlink:href="#DejaVuSans-31"/>
       <use x="63.623047" xlink:href="#DejaVuSans-2e"/>
       <use x="95.410156" xlink:href="#DejaVuSans-37"/>
       <use x="159.033203" xlink:href="#DejaVuSans-35"/>
      </g>
     </g>
    </g>
    <g id="ytick_8">
     <g id="text_15">
      <!-- 2.00 -->
      <g style="fill:#262626;" transform="translate(34.4275 164.600189)scale(0.22 -0.22)">
       <use xlink:href="#DejaVuSans-32"/>
       <use x="63.623047" xlink:href="#DejaVuSans-2e"/>
       <use x="95.410156" xlink:href="#DejaVuSans-30"/>
       <use x="159.033203" xlink:href="#DejaVuSans-30"/>
      </g>
     </g>
    </g>
    <g id="text_16">
     <!-- $E$ -->
     <g style="fill:#262626;" transform="translate(25.43625 364.352286)rotate(-90)scale(0.24 -0.24)">
      <defs>
       <path d="M 1081 4666 
L 4031 4666 
L 3928 4134 
L 1606 4134 
L 1338 2753 
L 3566 2753 
L 3463 2222 
L 1234 2222 
L 909 531 
L 3284 531 
L 3181 0 
L 172 0 
L 1081 4666 
z
" id="DejaVuSans-Oblique-45" transform="scale(0.015625)"/>
      </defs>
      <use transform="translate(0 0.09375)" xlink:href="#DejaVuSans-Oblique-45"/>
     </g>
    </g>
   </g>
   <g id="line2d_1">
    <path clip-path="url(#p90fc07b597)" d="M 120.856213 520.702544 
L 121.075766 505.996909 
L 121.295319 472.613574 
L 121.514872 344.892779 
L 121.734425 402.606492 
L 121.953978 353.346369 
L 122.173532 402.496877 
L 122.393085 544.285659 
L 122.612638 496.828178 
L 122.832191 521.199033 
L 123.051744 484.851941 
L 123.271297 484.14358 
L 123.490851 431.868829 
L 123.710404 525.485103 
L 123.929957 464.592697 
L 124.14951 480.035131 
L 124.369063 529.635942 
L 124.588616 450.816035 
L 124.808169 486.538886 
L 125.027723 405.819356 
L 125.247276 487.953205 
L 125.466829 407.742347 
L 125.686382 401.591695 
L 125.905935 466.153727 
L 126.125488 496.631534 
L 126.345041 449.115559 
L 126.564595 460.294699 
L 126.784148 451.20522 
L 127.223254 494.805034 
L 127.442807 433.497335 
L 127.66236 457.28287 
L 127.881914 347.618175 
L 128.101467 497.147103 
L 128.32102 460.312443 
L 128.760126 555.437755 
L 128.979679 363.0081 
L 129.199232 547.365262 
L 129.418786 517.706218 
L 129.638339 375.232835 
L 130.077445 476.817753 
L 130.296998 428.065092 
L 130.516551 467.438664 
L 130.955658 470.004494 
L 131.175211 511.131829 
L 131.394764 499.031553 
L 131.614317 544.564076 
L 131.83387 552.205717 
L 132.053423 407.924665 
L 132.272977 406.207832 
L 132.49253 472.34244 
L 132.712083 489.899015 
L 132.931636 449.06647 
L 133.151189 476.55204 
L 133.370742 396.706443 
L 133.590296 452.513405 
L 133.809849 416.630821 
L 134.029402 465.074695 
L 134.248955 449.022932 
L 134.688061 500.931912 
L 134.907614 501.601573 
L 135.127168 458.432484 
L 135.346721 548.479301 
L 135.566274 402.318249 
L 135.785827 503.717438 
L 136.00538 430.392141 
L 136.224933 516.604008 
L 136.444487 447.873741 
L 136.66404 549.489175 
L 136.883593 383.634433 
L 137.322699 455.417831 
L 137.542252 416.512224 
L 137.761805 449.122134 
L 137.981359 508.228493 
L 138.200912 486.27835 
L 138.420465 431.710011 
L 138.859571 534.811724 
L 139.079124 425.124663 
L 139.298678 403.410313 
L 139.518231 516.00742 
L 139.737784 525.735826 
L 139.957337 432.190197 
L 140.17689 531.11654 
L 140.396443 417.277257 
L 140.615996 503.396978 
L 140.83555 496.479035 
L 141.055103 482.846657 
L 141.274656 501.900225 
L 141.494209 474.412532 
L 141.713762 504.166696 
L 141.933315 309.560448 
L 142.152869 467.099452 
L 142.372422 491.049206 
L 142.591975 444.365605 
L 142.811528 358.925082 
L 143.031081 533.478198 
L 143.250634 544.017685 
L 143.689741 524.712636 
L 143.909294 506.965094 
L 144.128847 469.576346 
L 144.3484 483.665935 
L 144.567953 255.925517 
L 144.787506 344.301495 
L 145.00706 516.944132 
L 145.226613 449.657191 
L 145.446166 451.97533 
L 145.665719 501.65788 
L 145.885272 505.179698 
L 146.104825 496.651832 
L 146.324378 474.900874 
L 146.543932 544.365675 
L 146.763485 469.363774 
L 146.983038 500.247798 
L 147.202591 497.711769 
L 147.422144 476.447706 
L 147.641697 477.406892 
L 147.861251 481.185566 
L 148.080804 472.773279 
L 148.300357 514.321957 
L 148.51991 511.32491 
L 148.739463 393.925275 
L 148.959016 426.254934 
L 149.178569 366.239368 
L 149.398123 422.120255 
L 149.617676 317.878434 
L 149.837229 455.260015 
L 150.276335 526.275951 
L 150.495888 449.393016 
L 150.715441 493.218422 
L 150.934995 371.198782 
L 151.374101 483.162921 
L 151.593654 503.663717 
L 151.813207 548.34392 
L 152.252314 483.246297 
L 152.471867 504.843291 
L 152.69142 452.443032 
L 152.910973 447.401046 
L 153.130526 469.320068 
L 153.350079 356.313913 
L 153.569632 496.815538 
L 153.789186 440.729523 
L 154.228292 482.569113 
L 154.447845 354.180694 
L 154.667398 552.062913 
L 154.886951 494.825601 
L 155.106505 491.893533 
L 155.326058 384.047882 
L 155.545611 535.500659 
L 155.984717 396.357399 
L 156.20427 483.030777 
L 156.423823 396.337494 
L 156.643377 536.114328 
L 156.86293 358.190572 
L 157.302036 493.312228 
L 157.521589 341.482639 
L 157.741142 482.357878 
L 157.960696 533.507867 
L 158.180249 529.759137 
L 158.619355 436.778387 
L 158.838908 518.965334 
L 159.058461 481.733198 
L 159.278014 491.549635 
L 159.497568 581.38839 
L 159.717121 525.953973 
L 159.936674 554.38256 
L 160.156227 446.935343 
L 160.37578 498.702659 
L 160.595333 484.417695 
L 160.814887 356.121789 
L 161.03444 387.562672 
L 161.253993 509.54175 
L 161.473546 439.764443 
L 161.693099 417.342589 
L 161.912652 426.63373 
L 162.132205 464.500008 
L 162.351759 373.509647 
L 162.571312 357.749029 
L 162.790865 471.823247 
L 163.010418 382.677261 
L 163.229971 456.736705 
L 163.449524 416.269738 
L 163.669078 449.024226 
L 163.888631 449.669778 
L 164.327737 510.25613 
L 164.54729 369.342394 
L 164.766843 382.614474 
L 164.986396 514.392337 
L 165.20595 527.47002 
L 165.425503 414.706956 
L 165.645056 495.311759 
L 165.864609 499.72492 
L 166.084162 478.920096 
L 166.303715 479.583241 
L 166.523269 476.802042 
L 166.742822 520.898188 
L 166.962375 490.696102 
L 167.181928 298.207777 
L 167.401481 460.019634 
L 167.621034 444.545723 
L 167.840587 518.127824 
L 168.060141 458.830531 
L 168.279694 463.360119 
L 168.499247 503.880932 
L 168.7188 449.774258 
L 168.938353 505.855462 
L 169.157906 488.330496 
L 169.37746 511.193015 
L 169.597013 478.939904 
L 169.816566 486.520838 
L 170.036119 558.298037 
L 170.255672 464.091067 
L 170.475225 475.912439 
L 170.694778 526.078434 
L 170.914332 353.774215 
L 171.133885 481.615519 
L 171.353438 413.490436 
L 171.572991 473.398749 
L 171.792544 467.18132 
L 172.012097 477.352206 
L 172.231651 456.356299 
L 172.451204 459.853001 
L 172.670757 433.223882 
L 172.89031 487.694995 
L 173.109863 480.127221 
L 173.329416 430.74484 
L 173.548969 351.472816 
L 173.988076 531.606311 
L 174.427182 455.47436 
L 174.646735 465.039964 
L 174.866288 443.256344 
L 175.085842 337.61331 
L 175.524948 498.607478 
L 175.744501 418.265089 
L 175.964054 521.592885 
L 176.183607 497.664815 
L 176.40316 361.667736 
L 176.622714 415.254419 
L 176.842267 409.201301 
L 177.06182 485.295026 
L 177.281373 515.210465 
L 177.720479 363.278969 
L 177.940032 517.645539 
L 178.159586 456.939979 
L 178.379139 559.149484 
L 178.598692 520.971282 
L 178.818245 373.113714 
L 179.037798 512.639454 
L 179.257351 466.838374 
L 179.476905 497.717196 
L 179.696458 499.490758 
L 179.916011 407.400557 
L 180.355117 532.670475 
L 180.794223 455.44611 
L 181.23333 502.894615 
L 181.452883 417.289782 
L 181.672436 425.014239 
L 181.891989 420.33639 
L 182.111542 423.724634 
L 182.331096 497.316834 
L 182.550649 505.157228 
L 182.770202 566.172991 
L 182.989755 451.94623 
L 183.209308 459.745352 
L 183.428861 441.696788 
L 183.648414 442.398649 
L 184.087521 536.674079 
L 184.307074 431.699444 
L 184.526627 416.674399 
L 184.74618 458.997253 
L 185.185287 494.609414 
L 185.40484 379.107012 
L 185.624393 471.601623 
L 185.843946 511.759423 
L 186.063499 530.060987 
L 186.283052 467.63096 
L 186.502605 461.040261 
L 186.722159 510.964016 
L 187.161265 443.162059 
L 187.380818 454.57818 
L 187.819924 543.751574 
L 188.039478 444.720988 
L 188.259031 416.864474 
L 188.478584 358.800133 
L 188.91769 517.505984 
L 189.137243 401.793895 
L 189.356796 515.310795 
L 189.57635 366.931443 
L 189.795903 463.124802 
L 190.015456 451.96657 
L 190.235009 387.235821 
L 190.454562 420.950257 
L 190.674115 370.786591 
L 190.893669 489.861223 
L 191.113222 501.630429 
L 191.552328 425.035349 
L 191.771881 431.41714 
L 191.991434 477.163326 
L 192.210987 478.510616 
L 192.430541 510.741675 
L 192.650094 395.522234 
L 192.869647 366.513259 
L 193.0892 444.114037 
L 193.528306 498.432697 
L 193.74786 445.825537 
L 193.967413 510.711404 
L 194.186966 352.476175 
L 194.406519 549.606474 
L 194.845625 507.612119 
L 195.065178 514.939284 
L 195.284732 528.563676 
L 195.504285 400.207206 
L 195.723838 495.038782 
L 195.943391 522.896317 
L 196.162944 492.315588 
L 196.382497 429.043532 
L 196.821604 449.216765 
L 197.041157 479.354618 
L 197.26071 476.607251 
L 197.699816 507.509368 
L 198.138923 385.139047 
L 198.358476 386.249501 
L 198.578029 406.118592 
L 198.797582 513.863717 
L 199.017135 491.639444 
L 199.236688 516.466954 
L 199.456242 462.884173 
L 199.675795 478.078011 
L 199.895348 330.923964 
L 200.114901 470.716448 
L 200.334454 507.48686 
L 200.554007 488.730748 
L 200.77356 499.139829 
L 200.993114 399.031036 
L 201.212667 468.222132 
L 201.43222 415.447088 
L 201.651773 512.837525 
L 201.871326 472.640096 
L 202.090879 489.156863 
L 202.310432 487.411588 
L 202.529986 534.822419 
L 202.749539 445.342727 
L 202.969092 418.097362 
L 203.188645 500.7766 
L 203.408198 523.179249 
L 203.627751 404.187878 
L 203.847305 488.530436 
L 204.066858 511.513267 
L 204.286411 493.943889 
L 204.505964 440.06145 
L 204.94507 506.814025 
L 205.164623 472.745153 
L 205.384177 393.927344 
L 205.60373 377.444462 
L 205.823283 476.53678 
L 206.042836 421.475099 
L 206.262389 518.979292 
L 206.481942 429.22198 
L 206.921049 523.184656 
L 207.360155 370.308936 
L 207.579708 486.641544 
L 207.799261 439.042773 
L 208.018814 501.78592 
L 208.238368 481.918298 
L 208.457921 436.602014 
L 208.677474 553.323711 
L 208.897027 454.119383 
L 209.336133 430.569011 
L 209.555687 506.888533 
L 209.77524 507.548795 
L 209.994793 529.927498 
L 210.214346 421.053084 
L 210.433899 536.755079 
L 210.653452 344.99887 
L 210.873005 439.864383 
L 211.092559 421.663479 
L 211.312112 542.247231 
L 211.531665 398.439328 
L 211.751218 515.194668 
L 211.970771 459.172885 
L 212.190324 509.442466 
L 212.409878 496.332923 
L 212.629431 381.426319 
L 212.848984 440.267072 
L 213.068537 357.420104 
L 213.28809 526.281835 
L 213.507643 526.827533 
L 213.727196 369.301501 
L 213.94675 514.491896 
L 214.166303 427.752256 
L 214.385856 492.233937 
L 214.605409 419.291545 
L 214.824962 496.832918 
L 215.044515 477.984615 
L 215.264069 479.962024 
L 215.483622 514.959184 
L 215.703175 311.356112 
L 215.922728 548.296415 
L 216.142281 525.877367 
L 216.361834 522.554186 
L 216.581387 454.574405 
L 216.800941 242.55832 
L 217.020494 503.524211 
L 217.240047 464.638151 
L 217.4596 498.96083 
L 217.898706 400.243139 
L 218.11826 319.144126 
L 218.337813 405.759532 
L 218.557366 433.880719 
L 218.776919 542.199286 
L 218.996472 507.578885 
L 219.216025 416.143181 
L 219.435578 418.902654 
L 220.094238 523.860176 
L 220.313791 464.746598 
L 220.533344 481.625788 
L 220.752897 424.998192 
L 220.972451 434.915092 
L 221.192004 470.927988 
L 221.411557 463.424554 
L 221.850663 516.336536 
L 222.070216 490.076829 
L 222.289769 482.361636 
L 222.728876 412.432244 
L 222.948429 504.668729 
L 223.167982 393.985192 
L 223.387535 493.704733 
L 223.607088 521.905548 
L 223.826642 465.316902 
L 224.046195 465.988178 
L 224.265748 278.921254 
L 224.485301 481.20486 
L 224.704854 502.722604 
L 225.14396 419.86373 
L 225.363514 478.046534 
L 225.583067 451.948343 
L 225.80262 540.272942 
L 226.241726 426.274336 
L 226.461279 458.19311 
L 226.680833 446.351448 
L 227.119939 509.991055 
L 227.339492 419.748999 
L 227.559045 223.856217 
L 227.778598 460.420596 
L 227.998151 432.953305 
L 228.217705 498.682069 
L 228.437258 437.833494 
L 228.656811 461.895889 
L 228.876364 560.567583 
L 229.31547 397.635338 
L 229.754577 454.481262 
L 229.97413 372.558458 
L 230.193683 505.3852 
L 230.413236 445.358686 
L 230.632789 479.652607 
L 230.852342 467.062586 
L 231.071896 502.527486 
L 231.291449 508.037712 
L 231.511002 525.317624 
L 231.950108 360.063279 
L 232.169661 349.29608 
L 232.389214 310.887285 
L 232.828321 476.097406 
L 233.047874 393.198113 
L 233.267427 356.25767 
L 233.48698 455.587992 
L 233.706533 494.376436 
L 233.926087 499.173168 
L 234.14564 437.780264 
L 234.365193 320.614231 
L 234.584746 468.048393 
L 234.804299 343.14717 
L 235.023852 441.510041 
L 235.243405 320.781499 
L 235.462959 437.943611 
L 235.682512 415.812625 
L 235.902065 490.857673 
L 236.121618 484.570113 
L 236.341171 515.87361 
L 236.560724 469.083582 
L 236.780278 504.069978 
L 236.999831 356.130881 
L 237.219384 390.326139 
L 237.438937 463.159421 
L 237.65849 468.425783 
L 237.878043 556.446384 
L 238.097596 383.760918 
L 238.536703 560.695906 
L 238.756256 537.422173 
L 238.975809 543.02467 
L 239.195362 442.252902 
L 239.414915 428.16017 
L 239.634469 448.693033 
L 239.854022 444.30753 
L 240.073575 432.568846 
L 240.293128 480.252608 
L 240.512681 318.918042 
L 240.951787 494.976269 
L 241.171341 493.058655 
L 241.390894 445.423098 
L 241.610447 533.048855 
L 241.83 480.525843 
L 242.049553 245.62236 
L 242.269106 479.134723 
L 242.48866 433.380305 
L 242.708213 497.265782 
L 242.927766 436.423978 
L 243.147319 527.201785 
L 243.366872 443.124505 
L 243.586425 419.719553 
L 243.805978 420.30636 
L 244.025532 475.372184 
L 244.245085 327.118737 
L 244.464638 526.239823 
L 244.684191 519.488393 
L 244.903744 441.554874 
L 245.342851 363.179093 
L 245.562404 542.999193 
L 245.781957 522.531572 
L 246.00151 486.661051 
L 246.221063 489.922102 
L 246.440616 414.205254 
L 246.879723 492.345984 
L 247.099276 486.013292 
L 247.318829 472.242398 
L 247.538382 495.623391 
L 247.757935 428.394656 
L 248.197042 524.623543 
L 248.416595 453.822237 
L 248.636148 528.91258 
L 248.855701 334.415844 
L 249.075254 418.977865 
L 249.294807 444.115451 
L 249.51436 416.60728 
L 249.733914 462.964738 
L 249.953467 472.280303 
L 250.17302 462.189551 
L 250.392573 489.78904 
L 250.612126 492.966988 
L 250.831679 535.343848 
L 251.051233 438.165037 
L 251.270786 512.814636 
L 251.490339 422.475998 
L 252.148998 550.824338 
L 252.368551 489.997752 
L 252.588105 520.205381 
L 252.807658 462.443972 
L 253.027211 446.698533 
L 253.246764 382.715576 
L 253.68587 489.27362 
L 253.905424 459.851154 
L 254.124977 397.158659 
L 254.564083 510.141421 
L 254.783636 517.718852 
L 255.003189 549.742865 
L 255.222742 414.734147 
L 255.442296 428.391791 
L 255.661849 427.703515 
L 255.881402 510.079529 
L 256.100955 367.54772 
L 256.320508 372.833176 
L 256.540061 487.847534 
L 256.759614 396.260763 
L 256.979168 408.003543 
L 257.418274 526.742576 
L 257.85738 368.97247 
L 258.076933 488.524981 
L 258.296487 416.188839 
L 258.51604 473.512691 
L 258.735593 379.942734 
L 258.955146 385.44343 
L 259.174699 505.398862 
L 259.613805 515.595441 
L 259.833359 471.171444 
L 260.052912 532.828775 
L 260.492018 487.706918 
L 260.711571 336.158772 
L 261.150678 523.134767 
L 261.370231 396.059494 
L 261.589784 426.123358 
L 262.02889 562.068019 
L 262.248443 435.39158 
L 262.467996 439.712175 
L 262.68755 481.108118 
L 262.907103 379.658719 
L 263.126656 494.242095 
L 263.346209 413.490604 
L 263.565762 515.216478 
L 263.785315 469.015871 
L 264.004869 494.20802 
L 264.224422 421.512727 
L 264.443975 404.311269 
L 264.663528 503.415821 
L 264.883081 428.896126 
L 265.102634 534.287593 
L 265.322187 469.358737 
L 265.541741 506.718254 
L 265.980847 527.987187 
L 266.2004 478.551758 
L 266.419953 463.833497 
L 266.639506 513.429245 
L 266.85906 494.195569 
L 267.298166 387.699258 
L 267.517719 393.078781 
L 267.737272 495.830213 
L 267.956825 534.709683 
L 268.176378 430.781567 
L 268.395932 483.649431 
L 268.615485 468.488467 
L 268.835038 467.124295 
L 269.054591 517.213548 
L 269.274144 432.526795 
L 269.493697 489.726775 
L 269.713251 461.821957 
L 269.932804 501.278358 
L 270.152357 470.819986 
L 270.37191 495.157279 
L 270.591463 405.572458 
L 270.811016 405.586455 
L 271.030569 460.710947 
L 271.250123 546.87168 
L 271.469676 477.855006 
L 271.689229 449.246269 
L 272.128335 495.250908 
L 272.347888 492.470978 
L 272.567442 492.115082 
L 272.786995 484.098079 
L 273.006548 499.27346 
L 273.226101 504.066217 
L 273.445654 461.394717 
L 273.665207 371.960953 
L 274.104314 510.85453 
L 274.323867 448.145417 
L 274.54342 463.833565 
L 274.762973 422.425402 
L 274.982526 526.777123 
L 275.202079 460.499404 
L 275.421633 523.768373 
L 275.641186 408.020333 
L 275.860739 517.864751 
L 276.080292 533.183245 
L 276.299845 454.684469 
L 276.519398 465.043669 
L 276.738951 421.64514 
L 276.958505 474.962337 
L 277.178058 430.042897 
L 277.397611 451.157234 
L 277.617164 384.717512 
L 277.836717 530.986231 
L 278.275824 353.404546 
L 278.934483 519.080938 
L 279.154036 520.873616 
L 279.373589 477.255522 
L 279.593142 522.554873 
L 279.812696 428.424067 
L 280.032249 461.003648 
L 280.251802 535.936225 
L 280.471355 503.777442 
L 280.690908 413.729974 
L 280.910461 478.701177 
L 281.130014 488.078771 
L 281.569121 536.02455 
L 281.788674 438.893385 
L 282.008227 464.937295 
L 282.22778 444.115931 
L 282.447333 440.071486 
L 282.666887 534.812632 
L 282.88644 457.274449 
L 283.105993 501.978404 
L 283.545099 513.019822 
L 283.764652 455.381106 
L 283.984205 529.656608 
L 284.203759 489.413929 
L 284.423312 507.03871 
L 284.642865 470.377639 
L 284.862418 504.232882 
L 285.301524 407.398016 
L 285.521078 517.102099 
L 285.960184 429.472992 
L 286.179737 452.610571 
L 286.39929 505.278425 
L 286.618843 383.672569 
L 286.838396 519.907691 
L 287.05795 444.934618 
L 287.277503 501.020352 
L 287.716609 410.253829 
L 287.936162 432.717402 
L 288.155715 490.493461 
L 288.375269 475.945748 
L 288.594822 315.595169 
L 288.814375 460.176541 
L 289.033928 491.589008 
L 289.253481 426.731324 
L 289.692587 546.793672 
L 290.131694 431.678781 
L 290.351247 529.867334 
L 290.5708 548.708706 
L 290.790353 451.312919 
L 291.009906 535.506539 
L 291.22946 333.98062 
L 291.449013 510.721184 
L 291.668566 503.234928 
L 291.888119 482.046813 
L 292.107672 475.485303 
L 292.327225 430.503998 
L 292.546778 440.588171 
L 292.766332 509.483444 
L 292.985885 451.030148 
L 293.205438 513.090946 
L 293.424991 538.336901 
L 293.644544 407.865134 
L 293.864097 510.325198 
L 294.083651 393.122721 
L 294.303204 505.003817 
L 294.522757 452.780017 
L 294.74231 442.113063 
L 294.961863 409.715363 
L 295.181416 497.750354 
L 295.400969 323.682571 
L 295.620523 457.892005 
L 295.840076 380.925291 
L 296.279182 496.451461 
L 296.498735 515.977942 
L 296.718288 470.168891 
L 296.937842 481.901124 
L 297.157395 546.447245 
L 297.376948 478.860011 
L 297.596501 461.682584 
L 297.816054 487.636881 
L 298.035607 466.926558 
L 298.25516 409.175713 
L 298.474714 512.468618 
L 298.694267 445.611214 
L 298.91382 442.139436 
L 299.133373 397.147575 
L 299.352926 505.814426 
L 299.792033 405.472067 
L 300.011586 502.786818 
L 300.231139 457.461367 
L 300.450692 524.536144 
L 300.670245 477.95749 
L 300.889798 369.349486 
L 301.109351 564.155233 
L 301.328905 431.529228 
L 301.548458 506.952233 
L 301.768011 463.106758 
L 301.987564 349.922586 
L 302.207117 451.262446 
L 302.42667 493.061622 
L 302.646224 439.45873 
L 302.865777 483.104042 
L 303.08533 388.114977 
L 303.524436 512.389303 
L 303.963542 439.610833 
L 304.183096 529.808607 
L 304.402649 439.94419 
L 304.622202 425.625568 
L 304.841755 503.060342 
L 305.061308 512.398908 
L 305.280861 485.722079 
L 305.500415 420.680157 
L 305.939521 506.759394 
L 306.159074 338.219062 
L 306.817733 551.076146 
L 307.037287 448.748793 
L 307.25684 424.734388 
L 307.476393 478.118571 
L 307.695946 465.865824 
L 307.915499 480.070535 
L 308.135052 395.61458 
L 308.354605 496.326388 
L 308.574159 423.252465 
L 308.793712 434.968618 
L 309.232818 496.719725 
L 309.671924 467.688629 
L 309.891478 490.940949 
L 310.111031 311.057743 
L 310.550137 466.817459 
L 310.76969 471.793737 
L 311.208796 544.662966 
L 311.42835 505.160227 
L 311.647903 413.625387 
L 311.867456 489.399454 
L 312.087009 521.315723 
L 312.306562 377.39462 
L 312.526115 428.580148 
L 312.745669 424.286462 
L 312.965222 473.091756 
L 313.184775 481.545592 
L 313.404328 271.87342 
L 313.623881 456.316811 
L 313.843434 508.127997 
L 314.062987 515.209079 
L 314.282541 435.960102 
L 314.502094 427.585343 
L 314.721647 437.000175 
L 314.9412 426.92021 
L 315.160753 430.614014 
L 315.380306 413.65955 
L 315.59986 369.863107 
L 315.819413 472.535047 
L 316.038966 521.323925 
L 316.258519 441.844303 
L 316.478072 483.591469 
L 316.697625 482.263322 
L 316.917178 509.983468 
L 317.136732 452.868101 
L 317.356285 488.265676 
L 317.795391 385.160888 
L 318.014944 451.709664 
L 318.234497 467.774622 
L 318.454051 462.047557 
L 318.673604 470.471873 
L 318.893157 531.283193 
L 319.11271 378.163066 
L 319.332263 429.654068 
L 319.551816 432.771557 
L 319.771369 438.696877 
L 320.210476 466.468617 
L 320.430029 500.763265 
L 320.649582 468.759147 
L 320.869135 357.399638 
L 321.088688 446.01529 
L 321.527795 526.966667 
L 321.747348 517.477307 
L 321.966901 517.486081 
L 322.406007 473.06903 
L 323.064667 544.895861 
L 323.28422 443.609958 
L 323.503773 400.161836 
L 323.942879 420.468722 
L 324.162433 497.565856 
L 324.381986 509.249825 
L 324.601539 435.257436 
L 324.821092 500.617643 
L 325.040645 385.676911 
L 325.260198 463.459338 
L 325.479751 294.984152 
L 325.699305 528.068885 
L 325.918858 410.39331 
L 326.138411 479.242231 
L 326.357964 419.864075 
L 326.577517 489.88361 
L 326.79707 487.431325 
L 327.016624 407.569562 
L 327.45573 493.471393 
L 327.675283 429.281655 
L 327.894836 475.863851 
L 328.114389 413.777001 
L 328.333942 485.843379 
L 328.553496 490.561213 
L 328.773049 511.895439 
L 328.992602 397.209447 
L 329.212155 489.791075 
L 329.431708 438.232996 
L 329.870815 493.878699 
L 330.090368 413.399666 
L 330.309921 424.017794 
L 330.529474 487.411066 
L 330.749027 469.650883 
L 330.96858 473.729608 
L 331.188133 504.544016 
L 331.407687 408.866247 
L 331.62724 485.880974 
L 331.846793 475.435601 
L 332.066346 397.424872 
L 332.285899 538.726075 
L 332.505452 464.872117 
L 332.725006 340.040689 
L 332.944559 442.518022 
L 333.164112 479.731901 
L 333.383665 483.967129 
L 333.603218 389.734202 
L 333.822771 496.732897 
L 334.042324 352.609363 
L 334.261878 311.692511 
L 334.481431 421.092668 
L 334.700984 437.513683 
L 334.920537 511.80691 
L 335.14009 541.450784 
L 335.359643 488.746699 
L 335.579196 399.354396 
L 336.018303 527.148842 
L 336.237856 312.097717 
L 336.457409 512.148826 
L 336.676962 510.380381 
L 336.896515 499.224441 
L 337.116069 520.856794 
L 337.335622 416.644828 
L 337.555175 546.773979 
L 337.994281 395.979237 
L 338.213834 450.718872 
L 338.433387 345.105259 
L 338.872494 512.036804 
L 339.092047 401.384316 
L 339.3116 500.437703 
L 339.531153 446.195512 
L 339.750706 551.338744 
L 339.97026 506.988577 
L 340.189813 427.780216 
L 340.409366 481.701559 
L 340.628919 385.247822 
L 340.848472 506.892182 
L 341.287578 440.08826 
L 341.507132 545.458334 
L 341.726685 385.61697 
L 341.946238 317.662953 
L 342.165791 493.897065 
L 342.385344 506.017535 
L 342.604897 539.179863 
L 342.824451 506.552248 
L 343.044004 453.97852 
L 343.263557 512.968658 
L 343.48311 361.354533 
L 343.702663 486.161585 
L 343.922216 519.504852 
L 344.141769 456.355694 
L 344.361323 472.446128 
L 344.800429 537.709413 
L 345.019982 525.850789 
L 345.239535 398.686613 
L 345.459088 522.526434 
L 345.678642 540.854068 
L 345.898195 486.974671 
L 346.117748 518.719004 
L 346.337301 492.854751 
L 346.556854 381.916727 
L 346.776407 485.598378 
L 346.99596 472.737903 
L 347.215514 498.58733 
L 347.435067 487.005648 
L 347.65462 513.69412 
L 347.874173 502.699782 
L 348.093726 519.041026 
L 348.532833 434.327367 
L 348.752386 481.042371 
L 348.971939 487.171778 
L 349.191492 452.232845 
L 349.411045 474.374734 
L 349.630598 479.859556 
L 349.850151 453.328733 
L 350.069705 494.983013 
L 350.289258 473.873332 
L 350.508811 511.332956 
L 350.947917 422.6331 
L 351.16747 447.139335 
L 351.387024 486.334759 
L 351.606577 501.216677 
L 351.82613 443.943005 
L 352.045683 498.537405 
L 352.484789 400.705361 
L 352.704342 441.398753 
L 352.923896 525.072111 
L 353.143449 488.566041 
L 353.363002 365.352117 
L 353.582555 495.481546 
L 353.802108 505.724986 
L 354.021661 433.780806 
L 354.241215 499.126058 
L 354.460768 510.502337 
L 354.680321 445.769776 
L 354.899874 501.783038 
L 355.119427 495.111551 
L 355.33898 500.794514 
L 355.558533 428.804504 
L 355.778087 451.237437 
L 356.217193 532.484948 
L 356.436746 529.20908 
L 356.656299 445.81085 
L 356.875852 279.572926 
L 357.095406 460.36937 
L 357.314959 402.565156 
L 357.534512 534.102023 
L 357.754065 471.923636 
L 358.193171 551.545688 
L 358.412724 470.497358 
L 358.632278 515.932861 
L 358.851831 351.103539 
L 359.071384 511.103274 
L 359.290937 373.690446 
L 359.51049 502.313287 
L 359.730043 369.499291 
L 360.16915 467.70682 
L 360.388703 408.258765 
L 360.827809 434.427008 
L 361.047362 415.024273 
L 361.266915 494.773248 
L 361.486469 444.409301 
L 361.706022 512.184113 
L 361.925575 474.967588 
L 362.145128 520.270872 
L 362.364681 440.792132 
L 362.584234 517.924955 
L 362.803787 462.550942 
L 363.023341 496.85767 
L 363.242894 487.65279 
L 363.462447 415.820282 
L 363.682 497.009695 
L 363.901553 520.953668 
L 364.121106 414.155118 
L 364.34066 482.490247 
L 364.560213 406.595925 
L 364.779766 478.484379 
L 364.999319 458.640163 
L 365.218872 457.490815 
L 365.438425 486.560872 
L 365.657978 499.012467 
L 366.097085 457.979963 
L 366.316638 515.484258 
L 366.536191 541.094341 
L 366.755744 457.385565 
L 366.975297 444.87729 
L 367.194851 397.628188 
L 367.414404 494.960364 
L 367.633957 530.554011 
L 367.85351 334.980646 
L 368.073063 485.838466 
L 368.292616 472.480813 
L 368.512169 425.039073 
L 368.731723 522.264682 
L 368.951276 481.181127 
L 369.170829 408.820303 
L 369.609935 494.230936 
L 370.049042 422.788629 
L 370.268595 453.273109 
L 370.488148 505.05608 
L 370.707701 412.372639 
L 370.927254 459.778486 
L 371.146807 536.833069 
L 371.36636 479.455224 
L 371.585914 388.344997 
L 371.805467 480.029911 
L 372.02502 476.19153 
L 372.244573 393.56116 
L 372.464126 373.815085 
L 372.683679 393.198598 
L 372.903233 522.168957 
L 373.342339 420.034033 
L 373.561892 477.473779 
L 374.000998 486.948075 
L 374.220551 496.849865 
L 374.440105 426.284495 
L 374.659658 495.189664 
L 374.879211 444.587559 
L 375.53787 513.458256 
L 375.757424 466.536167 
L 375.976977 489.650844 
L 376.19653 419.979461 
L 376.416083 395.153114 
L 376.635636 522.120441 
L 376.855189 487.112268 
L 377.074742 504.548489 
L 377.294296 512.671244 
L 377.513849 429.800817 
L 377.733402 476.164577 
L 378.172508 364.632066 
L 378.392061 519.921009 
L 378.611615 469.988319 
L 379.270274 522.326211 
L 379.489827 522.08359 
L 379.70938 463.116193 
L 379.928933 451.996316 
L 380.148487 345.678704 
L 380.36804 518.638602 
L 380.587593 503.934459 
L 380.807146 507.28995 
L 381.026699 461.211488 
L 381.246252 522.269201 
L 381.685359 435.247192 
L 381.904912 418.75377 
L 382.124465 360.701911 
L 382.344018 488.938007 
L 382.563571 506.37207 
L 382.783124 514.058222 
L 383.002678 460.914757 
L 383.222231 458.881701 
L 383.441784 477.794971 
L 383.661337 527.33893 
L 384.100443 469.840176 
L 384.319997 486.093746 
L 384.53955 437.714294 
L 384.759103 465.883717 
L 384.978656 339.037566 
L 385.417762 523.577024 
L 385.637315 452.225813 
L 385.856869 432.635674 
L 386.076422 392.403232 
L 386.295975 554.280295 
L 386.515528 395.47068 
L 386.735081 524.832836 
L 386.954634 436.681975 
L 387.174187 449.519354 
L 387.393741 440.777894 
L 387.613294 348.063141 
L 387.832847 446.733238 
L 388.0524 457.015983 
L 388.271953 266.618859 
L 388.491506 431.04845 
L 388.930613 385.800958 
L 389.150166 495.679812 
L 389.369719 431.268388 
L 389.589272 490.349957 
L 389.808825 507.049408 
L 390.028378 470.006497 
L 390.247932 493.258709 
L 390.467485 478.280615 
L 390.687038 428.922856 
L 390.906591 484.801331 
L 391.126144 510.656691 
L 391.345697 486.087157 
L 391.565251 428.797313 
L 391.784804 537.085232 
L 392.22391 397.133703 
L 392.443463 498.337005 
L 392.663016 447.314154 
L 392.882569 463.188728 
L 393.102123 443.512849 
L 393.321676 470.279334 
L 393.541229 321.666818 
L 393.760782 326.980705 
L 393.980335 442.668347 
L 394.419442 506.370865 
L 394.638995 509.693479 
L 394.858548 506.856198 
L 395.078101 526.069836 
L 395.297654 473.872981 
L 395.517207 494.049326 
L 395.73676 443.915428 
L 395.956314 531.533301 
L 396.175867 427.155283 
L 396.39542 480.54618 
L 396.614973 503.961596 
L 397.054079 424.233003 
L 397.273633 428.890561 
L 397.493186 462.205656 
L 397.712739 455.659571 
L 397.932292 495.572219 
L 398.151845 442.769547 
L 398.371398 446.358775 
L 398.590951 424.906639 
L 398.810505 481.389486 
L 399.030058 468.337337 
L 399.249611 487.875857 
L 399.469164 481.443864 
L 399.688717 556.811183 
L 400.127824 502.30389 
L 400.347377 501.969671 
L 400.56693 396.921097 
L 400.786483 464.840034 
L 401.006036 415.205351 
L 401.225589 438.573719 
L 401.884249 463.041718 
L 402.103802 412.858672 
L 402.323355 499.666807 
L 402.542908 480.901536 
L 402.762461 375.397966 
L 402.982015 448.030579 
L 403.201568 461.555554 
L 403.421121 394.683618 
L 403.640674 500.823852 
L 403.860227 532.246225 
L 404.07978 318.796873 
L 404.518887 506.255477 
L 404.73844 536.933009 
L 405.177546 472.940805 
L 405.397099 469.517122 
L 405.616652 459.235032 
L 405.836206 487.910124 
L 406.055759 456.916167 
L 406.275312 303.681311 
L 406.494865 409.501743 
L 406.933971 506.398172 
L 407.153524 480.865105 
L 407.373078 272.780295 
L 407.592631 493.783186 
L 407.812184 485.8607 
L 408.031737 421.801383 
L 408.25129 448.971033 
L 408.470843 384.176822 
L 408.90995 434.613162 
L 409.129503 390.224761 
L 409.349056 480.424941 
L 409.568609 399.733615 
L 409.788162 418.297942 
L 410.007715 462.909815 
L 410.227269 547.961662 
L 410.666375 372.501774 
L 410.885928 498.408614 
L 411.325034 466.937335 
L 411.544587 483.879354 
L 411.764141 332.908806 
L 411.983694 392.756204 
L 412.203247 491.152114 
L 412.4228 512.487736 
L 412.642353 566.247808 
L 412.861906 545.470934 
L 413.301013 414.455528 
L 413.520566 454.48395 
L 413.740119 354.65882 
L 413.959672 499.131377 
L 414.179225 480.547116 
L 414.398778 392.323439 
L 414.618332 435.127126 
L 414.837885 359.330017 
L 415.057438 522.70601 
L 415.276991 550.486586 
L 415.496544 416.868326 
L 415.716097 485.239976 
L 415.935651 443.068259 
L 416.155204 373.091019 
L 416.374757 385.946589 
L 416.813863 529.069146 
L 417.033416 520.780094 
L 417.252969 463.824379 
L 417.472523 448.556543 
L 417.692076 420.368565 
L 417.911629 533.231717 
L 418.131182 410.860795 
L 418.350735 408.077379 
L 418.570288 536.035332 
L 418.789842 445.619438 
L 419.009395 526.635434 
L 419.228948 329.096831 
L 419.448501 391.805457 
L 419.668054 516.633342 
L 419.887607 505.793283 
L 420.10716 517.487958 
L 420.326714 539.888962 
L 420.546267 433.514131 
L 420.76582 478.741563 
L 420.985373 494.222439 
L 421.204926 471.137243 
L 421.424479 471.00471 
L 421.644033 498.043053 
L 421.863586 360.305774 
L 422.083139 518.87558 
L 422.302692 485.95154 
L 422.522245 431.208715 
L 422.741798 473.222095 
L 422.961351 387.95239 
L 423.400458 509.926897 
L 423.620011 449.088308 
L 424.059117 473.9926 
L 424.27867 280.019542 
L 424.498224 480.48282 
L 424.717777 478.210475 
L 424.93733 446.630053 
L 425.156883 445.409545 
L 425.376436 481.949665 
L 425.595989 440.505426 
L 425.815542 442.181658 
L 426.035096 482.303493 
L 426.254649 476.084995 
L 426.474202 500.271864 
L 426.693755 401.335865 
L 426.913308 366.243835 
L 427.132861 505.856819 
L 427.352415 485.50805 
L 427.571968 452.754652 
L 427.791521 452.863471 
L 428.011074 506.430748 
L 428.230627 415.058937 
L 428.45018 529.077418 
L 428.889287 406.675002 
L 429.10884 557.385354 
L 429.328393 429.421828 
L 429.547946 515.454453 
L 429.767499 454.317046 
L 429.987052 432.001167 
L 430.206606 485.945527 
L 430.426159 450.968231 
L 430.645712 507.880836 
L 430.865265 461.603368 
L 431.084818 452.352737 
L 431.304371 508.408512 
L 431.743478 429.340349 
L 431.963031 455.301907 
L 432.182584 461.344704 
L 432.402137 453.437252 
L 432.62169 528.597389 
L 433.060797 446.182692 
L 433.28035 505.453936 
L 433.499903 375.938417 
L 433.719456 485.625559 
L 433.939009 378.444623 
L 434.378115 490.237703 
L 434.597669 459.57713 
L 434.817222 477.708532 
L 435.036775 509.380784 
L 435.475881 392.823033 
L 435.695434 489.314656 
L 435.914988 368.506929 
L 436.354094 515.631723 
L 436.573647 427.972612 
L 436.7932 520.713189 
L 437.232306 421.91201 
L 437.45186 504.621238 
L 437.671413 544.034561 
L 437.890966 239.774274 
L 438.110519 518.075326 
L 438.330072 514.320841 
L 438.549625 404.273069 
L 438.769178 504.491753 
L 438.988732 424.024909 
L 439.208285 544.70419 
L 439.427838 496.935003 
L 439.647391 131.956182 
L 439.866944 261.169365 
L 440.086497 467.638292 
L 440.306051 510.769257 
L 440.525604 438.883587 
L 440.745157 566.126098 
L 440.96471 544.321581 
L 441.184263 502.245334 
L 441.403816 519.650324 
L 441.623369 464.189077 
L 441.842923 448.782903 
L 442.062476 310.97549 
L 442.282029 503.766564 
L 442.721135 427.53627 
L 442.940688 410.794946 
L 443.160242 441.315185 
L 443.379795 412.392117 
L 443.599348 519.594419 
L 443.818901 425.860016 
L 444.038454 452.181501 
L 444.258007 499.49824 
L 444.47756 444.904343 
L 444.697114 532.600744 
L 444.916667 456.357057 
L 445.13622 463.699765 
L 445.355773 252.637719 
L 445.575326 509.390984 
L 445.794879 455.509831 
L 446.014433 513.420622 
L 446.233986 461.466172 
L 446.453539 466.332391 
L 446.673092 417.618287 
L 446.892645 483.643151 
L 447.112198 404.882911 
L 447.331751 493.870432 
L 447.551305 499.33381 
L 447.770858 538.36978 
L 447.990411 494.37763 
L 448.209964 501.964408 
L 448.429517 333.17237 
L 448.64907 351.808482 
L 448.868624 493.378742 
L 449.088177 496.320242 
L 449.30773 504.59865 
L 449.527283 462.075948 
L 449.746836 355.682053 
L 449.966389 359.986456 
L 450.185942 569.903929 
L 450.405496 519.804798 
L 450.625049 423.087151 
L 450.844602 552.052088 
L 451.064155 543.940888 
L 451.283708 502.12867 
L 451.503261 510.52633 
L 451.722815 427.36157 
L 451.942368 426.572878 
L 452.161921 323.472178 
L 452.381474 409.154394 
L 452.601027 300.609805 
L 452.82058 478.140019 
L 453.040133 481.128185 
L 453.259687 366.748539 
L 453.47924 493.440341 
L 453.698793 503.809612 
L 453.918346 455.915647 
L 454.137899 510.342666 
L 454.357452 482.042226 
L 454.577006 539.231928 
L 455.016112 454.601213 
L 455.235665 453.457476 
L 455.455218 508.300607 
L 455.674771 479.599437 
L 455.894324 531.925644 
L 456.113878 516.943957 
L 456.333431 447.087994 
L 456.772537 524.545326 
L 456.99209 485.480787 
L 457.211643 476.368301 
L 457.431197 495.295693 
L 457.65075 527.989702 
L 457.870303 399.090843 
L 458.089856 413.046023 
L 458.309409 405.153211 
L 458.528962 507.353555 
L 458.748515 495.429594 
L 458.968069 388.192063 
L 459.187622 416.616729 
L 459.626728 509.529013 
L 459.846281 493.816712 
L 460.065834 510.191148 
L 460.285388 448.261561 
L 460.504941 334.783809 
L 460.724494 420.425772 
L 460.944047 419.795777 
L 461.1636 422.899957 
L 461.383153 515.998022 
L 461.602706 374.575932 
L 461.82226 482.735018 
L 462.041813 494.524088 
L 462.261366 447.230325 
L 462.480919 548.433081 
L 462.700472 428.018697 
L 462.920025 419.761201 
L 463.139579 315.104662 
L 463.359132 484.808114 
L 463.578685 487.705506 
L 463.798238 512.10525 
L 464.017791 395.587119 
L 464.237344 517.613436 
L 464.456897 496.641113 
L 464.676451 424.94488 
L 464.896004 435.750983 
L 465.115557 463.361516 
L 465.33511 518.591988 
L 465.554663 494.5442 
L 465.774216 355.405176 
L 465.993769 473.670736 
L 466.213323 223.031438 
L 466.432876 491.739569 
L 466.652429 461.852897 
L 466.871982 341.291303 
L 467.091535 470.226121 
L 467.311088 251.313898 
L 467.750195 471.20457 
L 467.969748 405.319638 
L 468.189301 566.355197 
L 468.408854 493.907711 
L 468.628407 494.714818 
L 468.84796 487.064342 
L 469.067514 458.932555 
L 469.287067 448.422404 
L 469.50662 447.091954 
L 469.726173 443.01978 
L 469.945726 450.416564 
L 470.384833 408.982501 
L 470.604386 206.875758 
L 470.823939 530.650191 
L 471.043492 506.271167 
L 471.263045 461.342397 
L 471.482598 492.713766 
L 472.141258 440.939487 
L 472.360811 359.679734 
L 472.580364 495.402371 
L 472.799917 506.339818 
L 473.01947 394.0931 
L 473.239024 448.285665 
L 473.458577 431.636036 
L 473.67813 533.067001 
L 473.897683 468.400113 
L 474.117236 556.772044 
L 474.336789 495.072667 
L 474.556342 509.668391 
L 474.775896 375.358033 
L 474.995449 448.983183 
L 475.215002 477.67753 
L 475.434555 459.439455 
L 475.654108 302.405391 
L 475.873661 376.801571 
L 476.093215 355.868601 
L 476.312768 471.231152 
L 476.751874 533.805891 
L 476.971427 422.291953 
L 477.19098 491.91808 
L 477.410533 502.745974 
L 477.630087 360.377751 
L 477.84964 464.524871 
L 478.069193 497.413368 
L 478.288746 478.960717 
L 478.508299 533.760222 
L 478.727852 424.715261 
L 478.947406 506.626159 
L 479.386512 529.585214 
L 479.606065 524.93643 
L 479.825618 530.310562 
L 480.045171 393.883407 
L 480.264724 507.082874 
L 480.484278 466.861375 
L 480.703831 474.884899 
L 480.923384 252.814663 
L 481.142937 504.411319 
L 481.36249 474.39219 
L 481.582043 527.60173 
L 481.801597 493.282638 
L 482.02115 437.532934 
L 482.460256 536.649499 
L 482.679809 479.04344 
L 482.899362 509.87197 
L 483.118915 507.92233 
L 483.558022 457.029392 
L 483.777575 402.938713 
L 483.997128 470.693472 
L 484.216681 427.420697 
L 484.436234 467.112093 
L 484.655788 409.984885 
L 484.875341 495.587696 
L 485.094894 493.354108 
L 485.314447 519.983854 
L 485.534 428.239382 
L 485.753553 417.093379 
L 486.19266 515.205411 
L 486.412213 364.434026 
L 486.631766 506.095929 
L 486.851319 401.02689 
L 487.070872 491.211759 
L 487.290425 443.806156 
L 487.729532 525.987427 
L 487.949085 452.483335 
L 488.168638 516.342598 
L 488.388191 469.765738 
L 488.607744 470.0448 
L 488.827297 472.258675 
L 489.046851 434.288762 
L 489.266404 487.886782 
L 489.485957 399.400706 
L 489.70551 376.598082 
L 489.925063 484.005298 
L 490.144616 403.501474 
L 490.364169 454.971421 
L 490.583723 405.674376 
L 490.803276 389.252765 
L 491.022829 515.358011 
L 491.242382 362.462858 
L 491.461935 389.360866 
L 491.681488 435.088745 
L 491.901042 456.066356 
L 492.120595 435.089762 
L 492.340148 540.582078 
L 492.779254 416.406798 
L 492.998807 286.668002 
L 493.21836 506.687543 
L 493.437914 533.695704 
L 493.657467 519.563126 
L 493.87702 427.333561 
L 494.096573 506.059121 
L 494.316126 507.668257 
L 494.535679 497.540646 
L 494.755233 418.328815 
L 494.974786 408.793329 
L 495.413892 491.768834 
L 495.852998 383.869695 
L 496.072551 494.085131 
L 496.292105 487.351909 
L 496.511658 316.652433 
L 496.950764 536.911634 
L 497.170317 415.76429 
L 497.38987 357.857086 
L 497.609424 347.615668 
L 497.828977 394.976172 
L 498.04853 475.249375 
L 498.268083 369.099816 
L 498.487636 509.163758 
L 498.707189 484.647986 
L 498.926742 502.920067 
L 499.146296 484.835058 
L 499.365849 336.458764 
L 499.585402 449.390968 
L 499.804955 464.731908 
L 500.024508 492.413297 
L 500.244061 551.256358 
L 500.463615 445.849115 
L 500.683168 553.441058 
L 500.902721 443.543961 
L 501.122274 532.401697 
L 501.341827 475.056937 
L 501.56138 485.60907 
L 501.780933 446.249154 
L 502.000487 562.906966 
L 502.22004 393.936987 
L 502.659146 524.448405 
L 502.878699 447.990128 
L 503.317806 523.266193 
L 503.537359 489.966944 
L 503.756912 485.239893 
L 503.976465 485.930051 
L 504.196018 499.761645 
L 504.415571 473.020735 
L 504.635124 503.958591 
L 505.074231 458.782384 
L 505.293784 488.94851 
L 505.513337 462.408363 
L 505.73289 490.258195 
L 505.952443 438.576239 
L 506.171997 502.299914 
L 506.39155 524.975318 
L 506.611103 501.879817 
L 506.830656 456.442747 
L 507.050209 339.744166 
L 507.489315 546.010833 
L 507.708869 494.675935 
L 507.928422 414.552895 
L 508.147975 476.198374 
L 508.587081 420.778263 
L 508.806634 507.093913 
L 509.026188 476.420647 
L 509.245741 397.606242 
L 509.465294 480.102029 
L 509.684847 426.050415 
L 509.9044 460.16576 
L 510.123953 392.95639 
L 510.56306 454.721445 
L 510.782613 491.997958 
L 511.002166 451.616333 
L 511.221719 523.679203 
L 511.441272 523.412 
L 511.660825 374.442322 
L 511.880379 504.863635 
L 512.099932 482.367071 
L 512.319485 405.050253 
L 512.539038 515.94662 
L 512.758591 379.236966 
L 512.978144 527.874227 
L 513.197697 540.988558 
L 513.417251 505.989043 
L 513.636804 558.689252 
L 513.856357 381.808852 
L 514.07591 517.121716 
L 514.295463 480.204773 
L 514.515016 521.436438 
L 514.73457 486.518966 
L 514.954123 525.99904 
L 515.393229 550.919245 
L 515.612782 487.430386 
L 515.832335 464.110574 
L 516.271442 520.390063 
L 516.710548 401.594979 
L 516.930101 509.992683 
L 517.149654 347.120009 
L 517.369207 466.499788 
L 517.58876 416.265168 
L 517.808314 476.708205 
L 518.027867 469.505991 
L 518.24742 558.320594 
L 518.466973 490.952298 
L 518.686526 499.046291 
L 519.125633 353.642263 
L 519.345186 368.048513 
L 519.564739 502.094788 
L 519.784292 537.162021 
L 520.003845 421.984479 
L 520.223398 385.677237 
L 520.442951 463.835881 
L 520.662505 347.897029 
L 520.882058 502.057834 
L 521.321164 475.818454 
L 521.540717 403.243087 
L 521.76027 524.901425 
L 521.979824 478.294837 
L 522.199377 528.807792 
L 522.41893 406.161427 
L 522.638483 440.440354 
L 522.858036 505.844553 
L 523.077589 480.756324 
L 523.297142 486.958273 
L 523.516696 474.274882 
L 523.736249 444.75378 
L 523.955802 460.318132 
L 524.175355 417.981152 
L 524.394908 397.668997 
L 524.834015 539.072752 
L 525.053568 383.543401 
L 525.273121 508.314893 
L 525.492674 506.797735 
L 525.712227 447.066821 
L 525.93178 500.145416 
L 526.151333 462.811328 
L 526.370887 518.172348 
L 526.59044 438.442393 
L 526.809993 532.923007 
L 527.029546 418.289235 
L 527.468652 500.013738 
L 527.688206 412.357773 
L 527.907759 426.851031 
L 528.127312 477.952938 
L 528.346865 402.109687 
L 528.566418 432.638221 
L 528.785971 441.389088 
L 529.005524 391.721712 
L 529.225078 459.440286 
L 529.444631 413.296502 
L 529.664184 409.603545 
L 529.883737 564.978308 
L 530.10329 463.216541 
L 530.322843 474.247431 
L 530.542397 410.339051 
L 530.76195 497.525048 
L 530.981503 489.838733 
L 531.201056 445.095535 
L 531.420609 550.618634 
L 531.640162 501.697648 
L 531.859715 377.048699 
L 532.079269 457.894427 
L 532.298822 456.116391 
L 532.737928 512.281214 
L 532.957481 324.149117 
L 533.177034 522.574576 
L 533.396588 506.607748 
L 533.616141 428.051423 
L 533.835694 482.008312 
L 534.055247 465.794315 
L 534.2748 392.672644 
L 534.494353 450.411607 
L 534.713906 443.314678 
L 534.93346 449.582329 
L 535.153013 518.018004 
L 535.372566 516.187267 
L 535.592119 423.978331 
L 535.811672 478.833225 
L 536.031225 469.894464 
L 536.250779 532.047487 
L 536.470332 487.430439 
L 536.689885 523.175974 
L 537.128991 372.200909 
L 537.348544 459.564904 
L 537.568097 473.161185 
L 537.787651 432.929703 
L 538.007204 322.580223 
L 538.226757 434.809995 
L 538.44631 414.225337 
L 538.665863 430.489562 
L 538.885416 519.131932 
L 539.10497 454.845039 
L 539.324523 513.915991 
L 539.544076 418.286031 
L 539.763629 475.469409 
L 539.983182 498.308825 
L 540.202735 485.923515 
L 540.422288 445.390163 
L 540.641842 517.603436 
L 541.080948 391.963304 
L 541.300501 402.290203 
L 541.520054 454.106782 
L 541.739607 417.175021 
L 541.95916 511.587592 
L 542.178714 446.763647 
L 542.398267 437.378182 
L 542.61782 451.425131 
L 542.837373 343.194595 
L 543.276479 511.179279 
L 543.496033 467.626095 
L 543.715586 374.027892 
L 543.935139 541.760143 
L 544.154692 428.438799 
L 544.374245 394.910943 
L 544.593798 440.029158 
L 544.813351 533.118066 
L 545.032905 433.915106 
L 545.252458 448.039675 
L 545.472011 518.989191 
L 545.691564 526.640906 
L 545.911117 481.129152 
L 546.13067 480.563231 
L 546.350224 372.48645 
L 546.569777 433.31696 
L 546.78933 460.032906 
L 547.008883 431.985754 
L 547.228436 449.864111 
L 547.447989 384.374729 
L 547.667542 477.510927 
L 547.887096 508.872436 
L 548.106649 515.81889 
L 548.326202 513.452252 
L 548.545755 457.616637 
L 548.765308 550.60715 
L 548.984861 399.69518 
L 549.204415 384.576944 
L 549.643521 556.629086 
L 549.863074 432.985738 
L 550.30218 497.583747 
L 550.521733 504.063913 
L 550.741287 457.799317 
L 550.96084 555.919644 
L 551.180393 500.839596 
L 551.399946 531.636526 
L 551.619499 472.495434 
L 551.839052 511.823518 
L 552.058606 421.482262 
L 552.278159 408.762854 
L 552.497712 456.471846 
L 552.717265 548.241818 
L 552.936818 501.000007 
L 553.156371 488.210736 
L 553.375924 436.195247 
L 553.595478 499.213309 
L 553.815031 503.2632 
L 554.034584 496.190348 
L 554.254137 532.40766 
L 554.47369 521.95619 
L 554.693243 404.262065 
L 554.912797 510.38545 
L 555.13235 518.919356 
L 555.351903 397.132838 
L 555.571456 502.598644 
L 556.010562 400.888478 
L 556.230115 411.60638 
L 556.449669 474.275812 
L 556.669222 478.641119 
L 556.888775 375.241275 
L 557.108328 490.979219 
L 557.327881 472.532858 
L 557.547434 439.558164 
L 557.766988 379.164747 
L 557.986541 476.240052 
L 558.206094 488.576459 
L 558.425647 443.563279 
L 558.6452 489.156872 
L 558.864753 320.00323 
L 559.084306 532.381034 
L 559.30386 433.262693 
L 559.523413 555.858416 
L 559.742966 499.995264 
L 559.742966 499.995264 
" style="fill:none;stroke:#96c69a;stroke-linecap:round;stroke-width:3;"/>
   </g>
   <g id="line2d_2"/>
   <g id="patch_3">
    <path d="M 98.911875 603.86 
L 98.911875 109.484571 
" style="fill:none;stroke:#262626;stroke-linecap:square;stroke-linejoin:miter;stroke-width:2.5;"/>
   </g>
   <g id="patch_4">
    <path d="M 98.911875 603.86 
L 581.687304 603.86 
" style="fill:none;stroke:#262626;stroke-linecap:square;stroke-linejoin:miter;stroke-width:2.5;"/>
   </g>
   <g id="legend_1">
    <g id="patch_5">
     <path d="M 528.771679 598.86 
L 574.687304 598.86 
Q 576.687304 598.86 576.687304 596.86 
L 576.687304 554.954375 
Q 576.687304 552.954375 574.687304 552.954375 
L 528.771679 552.954375 
Q 526.771679 552.954375 526.771679 554.954375 
L 526.771679 596.86 
Q 526.771679 598.86 528.771679 598.86 
z
" style="fill:#ffffff;opacity:0.8;stroke:#cccccc;stroke-linejoin:miter;stroke-width:2;"/>
    </g>
    <g id="text_17">
     <!-- $n_\tau$ -->
     <g style="fill:#262626;" transform="translate(538.649491 575.190625)scale(0.24 -0.24)">
      <defs>
       <path d="M 3566 2113 
L 3156 0 
L 2578 0 
L 2988 2091 
Q 3016 2238 3031 2350 
Q 3047 2463 3047 2528 
Q 3047 2791 2881 2937 
Q 2716 3084 2419 3084 
Q 1956 3084 1622 2776 
Q 1288 2469 1184 1941 
L 800 0 
L 225 0 
L 903 3500 
L 1478 3500 
L 1363 2950 
Q 1603 3253 1940 3418 
Q 2278 3584 2650 3584 
Q 3113 3584 3367 3334 
Q 3622 3084 3622 2631 
Q 3622 2519 3608 2391 
Q 3594 2263 3566 2113 
z
" id="DejaVuSans-Oblique-6e" transform="scale(0.015625)"/>
       <path d="M 2103 638 
Q 2188 488 2525 488 
L 2800 488 
L 2706 0 
L 2363 0 
Q 1800 0 1600 300 
Q 1403 606 1534 1269 
L 1856 2925 
L 541 2925 
L 653 3500 
L 3881 3500 
L 3769 2925 
L 2444 2925 
L 2113 1234 
Q 2025 781 2103 638 
z
" id="DejaVuSans-Oblique-3c4" transform="scale(0.015625)"/>
      </defs>
      <use xlink:href="#DejaVuSans-Oblique-6e"/>
      <use transform="translate(63.378906 -16.40625)scale(0.7)" xlink:href="#DejaVuSans-Oblique-3c4"/>
     </g>
    </g>
    <g id="line2d_3">
     <path d="M 530.771679 589.280313 
L 550.771679 589.280313 
" style="fill:none;stroke:#96c69a;stroke-linecap:round;stroke-width:3;"/>
    </g>
    <g id="line2d_4"/>
    <g id="text_18">
     <!-- 40 -->
     <g style="fill:#262626;" transform="translate(558.771679 592.780313)scale(0.1 -0.1)">
      <defs>
       <path d="M 2356 3675 
L 1038 1722 
L 2356 1722 
L 2356 3675 
z
M 2156 4666 
L 3494 4666 
L 3494 1722 
L 4159 1722 
L 4159 850 
L 3494 850 
L 3494 0 
L 2356 0 
L 2356 850 
L 288 850 
L 288 1881 
L 2156 4666 
z
" id="DejaVuSans-Bold-34" transform="scale(0.015625)"/>
       <path d="M 2944 2338 
Q 2944 3213 2780 3570 
Q 2616 3928 2228 3928 
Q 1841 3928 1675 3570 
Q 1509 3213 1509 2338 
Q 1509 1453 1675 1090 
Q 1841 728 2228 728 
Q 2613 728 2778 1090 
Q 2944 1453 2944 2338 
z
M 4147 2328 
Q 4147 1169 3647 539 
Q 3147 -91 2228 -91 
Q 1306 -91 806 539 
Q 306 1169 306 2328 
Q 306 3491 806 4120 
Q 1306 4750 2228 4750 
Q 3147 4750 3647 4120 
Q 4147 3491 4147 2328 
z
" id="DejaVuSans-Bold-30" transform="scale(0.015625)"/>
      </defs>
      <use xlink:href="#DejaVuSans-Bold-34"/>
      <use x="69.580078" xlink:href="#DejaVuSans-Bold-30"/>
     </g>
    </g>
   </g>
  </g>
  <g id="axes_2">
   <g id="patch_6">
    <path d="M 98.911875 92.437143 
L 581.687304 92.437143 
L 581.687304 7.2 
L 98.911875 7.2 
z
" style="fill:none;"/>
   </g>
   <g id="matplotlib.axis_3">
    <g id="xtick_7"/>
    <g id="xtick_8"/>
    <g id="xtick_9"/>
    <g id="xtick_10"/>
    <g id="xtick_11"/>
    <g id="xtick_12"/>
   </g>
   <g id="matplotlib.axis_4">
    <g id="ytick_9">
     <g id="text_19">
      <!-- 0 -->
      <g style="fill:#262626;" transform="translate(69.414375 100.795424)scale(0.22 -0.22)">
       <use xlink:href="#DejaVuSans-30"/>
      </g>
     </g>
    </g>
    <g id="ytick_10">
     <g id="text_20">
      <!-- 100 -->
      <g style="fill:#262626;" transform="translate(41.419375 48.082287)scale(0.22 -0.22)">
       <use xlink:href="#DejaVuSans-31"/>
       <use x="63.623047" xlink:href="#DejaVuSans-30"/>
       <use x="127.246094" xlink:href="#DejaVuSans-30"/>
      </g>
     </g>
    </g>
   </g>
   <g id="patch_7">
    <path clip-path="url(#p416972fa42)" d="M 120.856213 92.437143 
L 154.616732 92.437143 
L 154.616732 11.258912 
L 120.856213 11.258912 
z
" style="fill:#96c69a;fill-opacity:0.5;stroke:#ffffff;stroke-linejoin:miter;stroke-width:2;"/>
   </g>
   <g id="patch_8">
    <path clip-path="url(#p416972fa42)" d="M 154.616732 92.437143 
L 188.377252 92.437143 
L 188.377252 11.258912 
L 154.616732 11.258912 
z
" style="fill:#96c69a;fill-opacity:0.5;stroke:#ffffff;stroke-linejoin:miter;stroke-width:2;"/>
   </g>
   <g id="patch_9">
    <path clip-path="url(#p416972fa42)" d="M 188.377252 92.437143 
L 222.137771 92.437143 
L 222.137771 11.258912 
L 188.377252 11.258912 
z
" style="fill:#96c69a;fill-opacity:0.5;stroke:#ffffff;stroke-linejoin:miter;stroke-width:2;"/>
   </g>
   <g id="patch_10">
    <path clip-path="url(#p416972fa42)" d="M 222.137771 92.437143 
L 255.898291 92.437143 
L 255.898291 11.258912 
L 222.137771 11.258912 
z
" style="fill:#96c69a;fill-opacity:0.5;stroke:#ffffff;stroke-linejoin:miter;stroke-width:2;"/>
   </g>
   <g id="patch_11">
    <path clip-path="url(#p416972fa42)" d="M 255.898291 92.437143 
L 289.65881 92.437143 
L 289.65881 11.786043 
L 255.898291 11.786043 
z
" style="fill:#96c69a;fill-opacity:0.5;stroke:#ffffff;stroke-linejoin:miter;stroke-width:2;"/>
   </g>
   <g id="patch_12">
    <path clip-path="url(#p416972fa42)" d="M 289.65881 92.437143 
L 323.41933 92.437143 
L 323.41933 11.258912 
L 289.65881 11.258912 
z
" style="fill:#96c69a;fill-opacity:0.5;stroke:#ffffff;stroke-linejoin:miter;stroke-width:2;"/>
   </g>
   <g id="patch_13">
    <path clip-path="url(#p416972fa42)" d="M 323.41933 92.437143 
L 357.179849 92.437143 
L 357.179849 11.258912 
L 323.41933 11.258912 
z
" style="fill:#96c69a;fill-opacity:0.5;stroke:#ffffff;stroke-linejoin:miter;stroke-width:2;"/>
   </g>
   <g id="patch_14">
    <path clip-path="url(#p416972fa42)" d="M 357.179849 92.437143 
L 390.940369 92.437143 
L 390.940369 11.258912 
L 357.179849 11.258912 
z
" style="fill:#96c69a;fill-opacity:0.5;stroke:#ffffff;stroke-linejoin:miter;stroke-width:2;"/>
   </g>
   <g id="patch_15">
    <path clip-path="url(#p416972fa42)" d="M 390.940369 92.437143 
L 424.700888 92.437143 
L 424.700888 11.786043 
L 390.940369 11.786043 
z
" style="fill:#96c69a;fill-opacity:0.5;stroke:#ffffff;stroke-linejoin:miter;stroke-width:2;"/>
   </g>
   <g id="patch_16">
    <path clip-path="url(#p416972fa42)" d="M 424.700888 92.437143 
L 458.461407 92.437143 
L 458.461407 11.258912 
L 424.700888 11.258912 
z
" style="fill:#96c69a;fill-opacity:0.5;stroke:#ffffff;stroke-linejoin:miter;stroke-width:2;"/>
   </g>
   <g id="patch_17">
    <path clip-path="url(#p416972fa42)" d="M 458.461407 92.437143 
L 492.221927 92.437143 
L 492.221927 11.258912 
L 458.461407 11.258912 
z
" style="fill:#96c69a;fill-opacity:0.5;stroke:#ffffff;stroke-linejoin:miter;stroke-width:2;"/>
   </g>
   <g id="patch_18">
    <path clip-path="url(#p416972fa42)" d="M 492.221927 92.437143 
L 525.982446 92.437143 
L 525.982446 11.258912 
L 492.221927 11.258912 
z
" style="fill:#96c69a;fill-opacity:0.5;stroke:#ffffff;stroke-linejoin:miter;stroke-width:2;"/>
   </g>
   <g id="patch_19">
    <path clip-path="url(#p416972fa42)" d="M 525.982446 92.437143 
L 559.742966 92.437143 
L 559.742966 11.258912 
L 525.982446 11.258912 
z
" style="fill:#96c69a;fill-opacity:0.5;stroke:#ffffff;stroke-linejoin:miter;stroke-width:2;"/>
   </g>
   <g id="patch_20">
    <path d="M 98.911875 92.437143 
L 98.911875 7.2 
" style="fill:none;stroke:#262626;stroke-linecap:square;stroke-linejoin:miter;stroke-width:2.5;"/>
   </g>
   <g id="patch_21">
    <path d="M 98.911875 92.437143 
L 581.687304 92.437143 
" style="fill:none;stroke:#262626;stroke-linecap:square;stroke-linejoin:miter;stroke-width:2.5;"/>
   </g>
  </g>
  <g id="axes_3">
   <g id="patch_22">
    <path d="M 598.334732 603.86 
L 681.571875 603.86 
L 681.571875 109.484571 
L 598.334732 109.484571 
z
" style="fill:none;"/>
   </g>
   <g id="matplotlib.axis_5">
    <g id="xtick_13">
     <g id="text_21">
      <!-- 0 -->
      <g style="fill:#262626;" transform="translate(591.335982 636.076563)scale(0.22 -0.22)">
       <use xlink:href="#DejaVuSans-30"/>
      </g>
     </g>
    </g>
    <g id="xtick_14">
     <g id="text_22">
      <!-- 200 -->
      <g style="fill:#262626;" transform="translate(659.487155 636.076563)scale(0.22 -0.22)">
       <use xlink:href="#DejaVuSans-32"/>
       <use x="63.623047" xlink:href="#DejaVuSans-30"/>
       <use x="127.246094" xlink:href="#DejaVuSans-30"/>
      </g>
     </g>
    </g>
   </g>
   <g id="matplotlib.axis_6">
    <g id="ytick_11"/>
    <g id="ytick_12"/>
    <g id="ytick_13"/>
    <g id="ytick_14"/>
    <g id="ytick_15"/>
    <g id="ytick_16"/>
    <g id="ytick_17"/>
    <g id="ytick_18"/>
   </g>
   <g id="patch_23">
    <path clip-path="url(#p87094e54a7)" d="M 598.334732 581.38839 
L 599.156219 581.38839 
L 599.156219 569.864487 
L 598.334732 569.864487 
z
" style="fill:#96c69a;fill-opacity:0.5;stroke:#ffffff;stroke-linejoin:miter;stroke-width:1.15239;"/>
   </g>
   <g id="patch_24">
    <path clip-path="url(#p87094e54a7)" d="M 598.334732 569.864487 
L 603.263653 569.864487 
L 603.263653 558.340584 
L 598.334732 558.340584 
z
" style="fill:#96c69a;fill-opacity:0.5;stroke:#ffffff;stroke-linejoin:miter;stroke-width:1.15239;"/>
   </g>
   <g id="patch_25">
    <path clip-path="url(#p87094e54a7)" d="M 598.334732 558.340584 
L 613.94298 558.340584 
L 613.94298 546.816681 
L 598.334732 546.816681 
z
" style="fill:#96c69a;fill-opacity:0.5;stroke:#ffffff;stroke-linejoin:miter;stroke-width:1.15239;"/>
   </g>
   <g id="patch_26">
    <path clip-path="url(#p87094e54a7)" d="M 598.334732 546.816681 
L 620.10413 546.816681 
L 620.10413 535.292779 
L 598.334732 535.292779 
z
" style="fill:#96c69a;fill-opacity:0.5;stroke:#ffffff;stroke-linejoin:miter;stroke-width:1.15239;"/>
   </g>
   <g id="patch_27">
    <path clip-path="url(#p87094e54a7)" d="M 598.334732 535.292779 
L 636.533865 535.292779 
L 636.533865 523.768876 
L 598.334732 523.768876 
z
" style="fill:#96c69a;fill-opacity:0.5;stroke:#ffffff;stroke-linejoin:miter;stroke-width:1.15239;"/>
   </g>
   <g id="patch_28">
    <path clip-path="url(#p87094e54a7)" d="M 598.334732 523.768876 
L 654.606573 523.768876 
L 654.606573 512.244973 
L 598.334732 512.244973 
z
" style="fill:#96c69a;fill-opacity:0.5;stroke:#ffffff;stroke-linejoin:miter;stroke-width:1.15239;"/>
   </g>
   <g id="patch_29">
    <path clip-path="url(#p87094e54a7)" d="M 598.334732 512.244973 
L 675.143741 512.244973 
L 675.143741 500.72107 
L 598.334732 500.72107 
z
" style="fill:#96c69a;fill-opacity:0.5;stroke:#ffffff;stroke-linejoin:miter;stroke-width:1.15239;"/>
   </g>
   <g id="patch_30">
    <path clip-path="url(#p87094e54a7)" d="M 598.334732 500.72107 
L 670.625564 500.72107 
L 670.625564 489.197167 
L 598.334732 489.197167 
z
" style="fill:#96c69a;fill-opacity:0.5;stroke:#ffffff;stroke-linejoin:miter;stroke-width:1.15239;"/>
   </g>
   <g id="patch_31">
    <path clip-path="url(#p87094e54a7)" d="M 598.334732 489.197167 
L 677.608202 489.197167 
L 677.608202 477.673265 
L 598.334732 477.673265 
z
" style="fill:#96c69a;fill-opacity:0.5;stroke:#ffffff;stroke-linejoin:miter;stroke-width:1.15239;"/>
   </g>
   <g id="patch_32">
    <path clip-path="url(#p87094e54a7)" d="M 598.334732 477.673265 
L 666.107387 477.673265 
L 666.107387 466.149362 
L 598.334732 466.149362 
z
" style="fill:#96c69a;fill-opacity:0.5;stroke:#ffffff;stroke-linejoin:miter;stroke-width:1.15239;"/>
   </g>
   <g id="patch_33">
    <path clip-path="url(#p87094e54a7)" d="M 598.334732 466.149362 
L 661.999954 466.149362 
L 661.999954 454.625459 
L 598.334732 454.625459 
z
" style="fill:#96c69a;fill-opacity:0.5;stroke:#ffffff;stroke-linejoin:miter;stroke-width:1.15239;"/>
   </g>
   <g id="patch_34">
    <path clip-path="url(#p87094e54a7)" d="M 598.334732 454.625459 
L 661.58921 454.625459 
L 661.58921 443.101556 
L 598.334732 443.101556 
z
" style="fill:#96c69a;fill-opacity:0.5;stroke:#ffffff;stroke-linejoin:miter;stroke-width:1.15239;"/>
   </g>
   <g id="patch_35">
    <path clip-path="url(#p87094e54a7)" d="M 598.334732 443.101556 
L 645.159476 443.101556 
L 645.159476 431.577654 
L 598.334732 431.577654 
z
" style="fill:#96c69a;fill-opacity:0.5;stroke:#ffffff;stroke-linejoin:miter;stroke-width:1.15239;"/>
   </g>
   <g id="patch_36">
    <path clip-path="url(#p87094e54a7)" d="M 598.334732 431.577654 
L 643.516502 431.577654 
L 643.516502 420.053751 
L 598.334732 420.053751 
z
" style="fill:#96c69a;fill-opacity:0.5;stroke:#ffffff;stroke-linejoin:miter;stroke-width:1.15239;"/>
   </g>
   <g id="patch_37">
    <path clip-path="url(#p87094e54a7)" d="M 598.334732 420.053751 
L 636.533865 420.053751 
L 636.533865 408.529848 
L 598.334732 408.529848 
z
" style="fill:#96c69a;fill-opacity:0.5;stroke:#ffffff;stroke-linejoin:miter;stroke-width:1.15239;"/>
   </g>
   <g id="patch_38">
    <path clip-path="url(#p87094e54a7)" d="M 598.334732 408.529848 
L 627.908254 408.529848 
L 627.908254 397.005945 
L 598.334732 397.005945 
z
" style="fill:#96c69a;fill-opacity:0.5;stroke:#ffffff;stroke-linejoin:miter;stroke-width:1.15239;"/>
   </g>
   <g id="patch_39">
    <path clip-path="url(#p87094e54a7)" d="M 598.334732 397.005945 
L 620.925617 397.005945 
L 620.925617 385.482043 
L 598.334732 385.482043 
z
" style="fill:#96c69a;fill-opacity:0.5;stroke:#ffffff;stroke-linejoin:miter;stroke-width:1.15239;"/>
   </g>
   <g id="patch_40">
    <path clip-path="url(#p87094e54a7)" d="M 598.334732 385.482043 
L 615.17521 385.482043 
L 615.17521 373.95814 
L 598.334732 373.95814 
z
" style="fill:#96c69a;fill-opacity:0.5;stroke:#ffffff;stroke-linejoin:miter;stroke-width:1.15239;"/>
   </g>
   <g id="patch_41">
    <path clip-path="url(#p87094e54a7)" d="M 598.334732 373.95814 
L 613.121493 373.95814 
L 613.121493 362.434237 
L 598.334732 362.434237 
z
" style="fill:#96c69a;fill-opacity:0.5;stroke:#ffffff;stroke-linejoin:miter;stroke-width:1.15239;"/>
   </g>
   <g id="patch_42">
    <path clip-path="url(#p87094e54a7)" d="M 598.334732 362.434237 
L 612.300007 362.434237 
L 612.300007 350.910334 
L 598.334732 350.910334 
z
" style="fill:#96c69a;fill-opacity:0.5;stroke:#ffffff;stroke-linejoin:miter;stroke-width:1.15239;"/>
   </g>
   <g id="patch_43">
    <path clip-path="url(#p87094e54a7)" d="M 598.334732 350.910334 
L 605.728113 350.910334 
L 605.728113 339.386432 
L 598.334732 339.386432 
z
" style="fill:#96c69a;fill-opacity:0.5;stroke:#ffffff;stroke-linejoin:miter;stroke-width:1.15239;"/>
   </g>
   <g id="patch_44">
    <path clip-path="url(#p87094e54a7)" d="M 598.334732 339.386432 
L 603.674396 339.386432 
L 603.674396 327.862529 
L 598.334732 327.862529 
z
" style="fill:#96c69a;fill-opacity:0.5;stroke:#ffffff;stroke-linejoin:miter;stroke-width:1.15239;"/>
   </g>
   <g id="patch_45">
    <path clip-path="url(#p87094e54a7)" d="M 598.334732 327.862529 
L 604.906626 327.862529 
L 604.906626 316.338626 
L 598.334732 316.338626 
z
" style="fill:#96c69a;fill-opacity:0.5;stroke:#ffffff;stroke-linejoin:miter;stroke-width:1.15239;"/>
   </g>
   <g id="patch_46">
    <path clip-path="url(#p87094e54a7)" d="M 598.334732 316.338626 
L 602.031422 316.338626 
L 602.031422 304.814723 
L 598.334732 304.814723 
z
" style="fill:#96c69a;fill-opacity:0.5;stroke:#ffffff;stroke-linejoin:miter;stroke-width:1.15239;"/>
   </g>
   <g id="patch_47">
    <path clip-path="url(#p87094e54a7)" d="M 598.334732 304.814723 
L 600.388449 304.814723 
L 600.388449 293.290821 
L 598.334732 293.290821 
z
" style="fill:#96c69a;fill-opacity:0.5;stroke:#ffffff;stroke-linejoin:miter;stroke-width:1.15239;"/>
   </g>
   <g id="patch_48">
    <path clip-path="url(#p87094e54a7)" d="M 598.334732 293.290821 
L 598.745476 293.290821 
L 598.745476 281.766918 
L 598.334732 281.766918 
z
" style="fill:#96c69a;fill-opacity:0.5;stroke:#ffffff;stroke-linejoin:miter;stroke-width:1.15239;"/>
   </g>
   <g id="patch_49">
    <path clip-path="url(#p87094e54a7)" d="M 598.334732 281.766918 
L 600.388449 281.766918 
L 600.388449 270.243015 
L 598.334732 270.243015 
z
" style="fill:#96c69a;fill-opacity:0.5;stroke:#ffffff;stroke-linejoin:miter;stroke-width:1.15239;"/>
   </g>
   <g id="patch_50">
    <path clip-path="url(#p87094e54a7)" d="M 598.334732 270.243015 
L 599.156219 270.243015 
L 599.156219 258.719112 
L 598.334732 258.719112 
z
" style="fill:#96c69a;fill-opacity:0.5;stroke:#ffffff;stroke-linejoin:miter;stroke-width:1.15239;"/>
   </g>
   <g id="patch_51">
    <path clip-path="url(#p87094e54a7)" d="M 598.334732 258.719112 
L 599.977706 258.719112 
L 599.977706 247.195209 
L 598.334732 247.195209 
z
" style="fill:#96c69a;fill-opacity:0.5;stroke:#ffffff;stroke-linejoin:miter;stroke-width:1.15239;"/>
   </g>
   <g id="patch_52">
    <path clip-path="url(#p87094e54a7)" d="M 598.334732 247.195209 
L 599.566962 247.195209 
L 599.566962 235.671307 
L 598.334732 235.671307 
z
" style="fill:#96c69a;fill-opacity:0.5;stroke:#ffffff;stroke-linejoin:miter;stroke-width:1.15239;"/>
   </g>
   <g id="patch_53">
    <path clip-path="url(#p87094e54a7)" d="M 598.334732 235.671307 
L 598.334732 235.671307 
L 598.334732 224.147404 
L 598.334732 224.147404 
z
" style="fill:#96c69a;fill-opacity:0.5;stroke:#ffffff;stroke-linejoin:miter;stroke-width:1.15239;"/>
   </g>
   <g id="patch_54">
    <path clip-path="url(#p87094e54a7)" d="M 598.334732 224.147404 
L 599.156219 224.147404 
L 599.156219 212.623501 
L 598.334732 212.623501 
z
" style="fill:#96c69a;fill-opacity:0.5;stroke:#ffffff;stroke-linejoin:miter;stroke-width:1.15239;"/>
   </g>
   <g id="patch_55">
    <path clip-path="url(#p87094e54a7)" d="M 598.334732 212.623501 
L 598.745476 212.623501 
L 598.745476 201.099598 
L 598.334732 201.099598 
z
" style="fill:#96c69a;fill-opacity:0.5;stroke:#ffffff;stroke-linejoin:miter;stroke-width:1.15239;"/>
   </g>
   <g id="patch_56">
    <path clip-path="url(#p87094e54a7)" d="M 598.334732 201.099598 
L 598.334732 201.099598 
L 598.334732 189.575696 
L 598.334732 189.575696 
z
" style="fill:#96c69a;fill-opacity:0.5;stroke:#ffffff;stroke-linejoin:miter;stroke-width:1.15239;"/>
   </g>
   <g id="patch_57">
    <path clip-path="url(#p87094e54a7)" d="M 598.334732 189.575696 
L 598.334732 189.575696 
L 598.334732 178.051793 
L 598.334732 178.051793 
z
" style="fill:#96c69a;fill-opacity:0.5;stroke:#ffffff;stroke-linejoin:miter;stroke-width:1.15239;"/>
   </g>
   <g id="patch_58">
    <path clip-path="url(#p87094e54a7)" d="M 598.334732 178.051793 
L 598.334732 178.051793 
L 598.334732 166.52789 
L 598.334732 166.52789 
z
" style="fill:#96c69a;fill-opacity:0.5;stroke:#ffffff;stroke-linejoin:miter;stroke-width:1.15239;"/>
   </g>
   <g id="patch_59">
    <path clip-path="url(#p87094e54a7)" d="M 598.334732 166.52789 
L 598.334732 166.52789 
L 598.334732 155.003987 
L 598.334732 155.003987 
z
" style="fill:#96c69a;fill-opacity:0.5;stroke:#ffffff;stroke-linejoin:miter;stroke-width:1.15239;"/>
   </g>
   <g id="patch_60">
    <path clip-path="url(#p87094e54a7)" d="M 598.334732 155.003987 
L 598.334732 155.003987 
L 598.334732 143.480085 
L 598.334732 143.480085 
z
" style="fill:#96c69a;fill-opacity:0.5;stroke:#ffffff;stroke-linejoin:miter;stroke-width:1.15239;"/>
   </g>
   <g id="patch_61">
    <path clip-path="url(#p87094e54a7)" d="M 598.334732 143.480085 
L 598.745476 143.480085 
L 598.745476 131.956182 
L 598.334732 131.956182 
z
" style="fill:#96c69a;fill-opacity:0.5;stroke:#ffffff;stroke-linejoin:miter;stroke-width:1.15239;"/>
   </g>
   <g id="patch_62">
    <path d="M 598.334732 603.86 
L 598.334732 109.484571 
" style="fill:none;stroke:#262626;stroke-linecap:square;stroke-linejoin:miter;stroke-width:2.5;"/>
   </g>
   <g id="patch_63">
    <path d="M 598.334732 603.86 
L 681.571875 603.86 
" style="fill:none;stroke:#262626;stroke-linecap:square;stroke-linejoin:miter;stroke-width:2.5;"/>
   </g>
  </g>
 </g>
 <defs>
  <clipPath id="p90fc07b597">
   <rect height="494.375429" width="482.775429" x="98.911875" y="109.484571"/>
  </clipPath>
  <clipPath id="p416972fa42">
   <rect height="85.237143" width="482.775429" x="98.911875" y="7.2"/>
  </clipPath>
  <clipPath id="p87094e54a7">
   <rect height="494.375429" width="83.237143" x="598.334732" y="109.484571"/>
  </clipPath>
 </defs>
</svg>
