<?xml version="1.0" encoding="utf-8" standalone="no"?>
<!DOCTYPE svg PUBLIC "-//W3C//DTD SVG 1.1//EN"
  "http://www.w3.org/Graphics/SVG/1.1/DTD/svg11.dtd">
<svg height="675.079375pt" version="1.1" viewBox="0 0 694.682155 675.079375" width="694.682155pt" xmlns="http://www.w3.org/2000/svg" xmlns:xlink="http://www.w3.org/1999/xlink">
 <metadata>
  <rdf:RDF xmlns:cc="http://creativecommons.org/ns#" xmlns:dc="http://purl.org/dc/elements/1.1/" xmlns:rdf="http://www.w3.org/1999/02/22-rdf-syntax-ns#">
   <cc:Work>
    <dc:type rdf:resource="http://purl.org/dc/dcmitype/StillImage"/>
    <dc:date>2021-07-16T21:43:58.168012</dc:date>
    <dc:format>image/svg+xml</dc:format>
    <dc:creator>
     <cc:Agent>
      <dc:title>Matplotlib v3.4.2, https://matplotlib.org/</dc:title>
     </cc:Agent>
    </dc:creator>
   </cc:Work>
  </rdf:RDF>
 </metadata>
 <defs>
  <style type="text/css">*{stroke-linecap:butt;stroke-linejoin:round;}</style>
 </defs>
 <g id="figure_1">
  <g id="patch_1">
   <path d="M 0 675.079375 
L 694.682155 675.079375 
L 694.682155 0 
L 0 0 
z
" style="fill:#ffffff;"/>
  </g>
  <g id="axes_1">
   <g id="patch_2">
    <path d="M 84.914375 603.86 
L 567.689804 603.86 
L 567.689804 109.484571 
L 84.914375 109.484571 
z
" style="fill:none;"/>
   </g>
   <g id="matplotlib.axis_1">
    <g id="xtick_1">
     <g id="text_1">
      <!-- 0 -->
      <g style="fill:#262626;" transform="translate(99.64041 636.076563)scale(0.22 -0.22)">
       <defs>
        <path d="M 2034 4250 
Q 1547 4250 1301 3770 
Q 1056 3291 1056 2328 
Q 1056 1369 1301 889 
Q 1547 409 2034 409 
Q 2525 409 2770 889 
Q 3016 1369 3016 2328 
Q 3016 3291 2770 3770 
Q 2525 4250 2034 4250 
z
M 2034 4750 
Q 2819 4750 3233 4129 
Q 3647 3509 3647 2328 
Q 3647 1150 3233 529 
Q 2819 -91 2034 -91 
Q 1250 -91 836 529 
Q 422 1150 422 2328 
Q 422 3509 836 4129 
Q 1250 4750 2034 4750 
z
" id="DejaVuSans-30" transform="scale(0.015625)"/>
       </defs>
       <use xlink:href="#DejaVuSans-30"/>
      </g>
     </g>
    </g>
    <g id="xtick_2">
     <g id="text_2">
      <!-- 20000 -->
      <g style="fill:#262626;" transform="translate(159.466671 636.076563)scale(0.22 -0.22)">
       <defs>
        <path d="M 1228 531 
L 3431 531 
L 3431 0 
L 469 0 
L 469 531 
Q 828 903 1448 1529 
Q 2069 2156 2228 2338 
Q 2531 2678 2651 2914 
Q 2772 3150 2772 3378 
Q 2772 3750 2511 3984 
Q 2250 4219 1831 4219 
Q 1534 4219 1204 4116 
Q 875 4013 500 3803 
L 500 4441 
Q 881 4594 1212 4672 
Q 1544 4750 1819 4750 
Q 2544 4750 2975 4387 
Q 3406 4025 3406 3419 
Q 3406 3131 3298 2873 
Q 3191 2616 2906 2266 
Q 2828 2175 2409 1742 
Q 1991 1309 1228 531 
z
" id="DejaVuSans-32" transform="scale(0.015625)"/>
       </defs>
       <use xlink:href="#DejaVuSans-32"/>
       <use x="63.623047" xlink:href="#DejaVuSans-30"/>
       <use x="127.246094" xlink:href="#DejaVuSans-30"/>
       <use x="190.869141" xlink:href="#DejaVuSans-30"/>
       <use x="254.492188" xlink:href="#DejaVuSans-30"/>
      </g>
     </g>
    </g>
    <g id="xtick_3">
     <g id="text_3">
      <!-- 40000 -->
      <g style="fill:#262626;" transform="translate(247.287932 636.076563)scale(0.22 -0.22)">
       <defs>
        <path d="M 2419 4116 
L 825 1625 
L 2419 1625 
L 2419 4116 
z
M 2253 4666 
L 3047 4666 
L 3047 1625 
L 3713 1625 
L 3713 1100 
L 3047 1100 
L 3047 0 
L 2419 0 
L 2419 1100 
L 313 1100 
L 313 1709 
L 2253 4666 
z
" id="DejaVuSans-34" transform="scale(0.015625)"/>
       </defs>
       <use xlink:href="#DejaVuSans-34"/>
       <use x="63.623047" xlink:href="#DejaVuSans-30"/>
       <use x="127.246094" xlink:href="#DejaVuSans-30"/>
       <use x="190.869141" xlink:href="#DejaVuSans-30"/>
       <use x="254.492188" xlink:href="#DejaVuSans-30"/>
      </g>
     </g>
    </g>
    <g id="xtick_4">
     <g id="text_4">
      <!-- 60000 -->
      <g style="fill:#262626;" transform="translate(335.109193 636.076563)scale(0.22 -0.22)">
       <defs>
        <path d="M 2113 2584 
Q 1688 2584 1439 2293 
Q 1191 2003 1191 1497 
Q 1191 994 1439 701 
Q 1688 409 2113 409 
Q 2538 409 2786 701 
Q 3034 994 3034 1497 
Q 3034 2003 2786 2293 
Q 2538 2584 2113 2584 
z
M 3366 4563 
L 3366 3988 
Q 3128 4100 2886 4159 
Q 2644 4219 2406 4219 
Q 1781 4219 1451 3797 
Q 1122 3375 1075 2522 
Q 1259 2794 1537 2939 
Q 1816 3084 2150 3084 
Q 2853 3084 3261 2657 
Q 3669 2231 3669 1497 
Q 3669 778 3244 343 
Q 2819 -91 2113 -91 
Q 1303 -91 875 529 
Q 447 1150 447 2328 
Q 447 3434 972 4092 
Q 1497 4750 2381 4750 
Q 2619 4750 2861 4703 
Q 3103 4656 3366 4563 
z
" id="DejaVuSans-36" transform="scale(0.015625)"/>
       </defs>
       <use xlink:href="#DejaVuSans-36"/>
       <use x="63.623047" xlink:href="#DejaVuSans-30"/>
       <use x="127.246094" xlink:href="#DejaVuSans-30"/>
       <use x="190.869141" xlink:href="#DejaVuSans-30"/>
       <use x="254.492188" xlink:href="#DejaVuSans-30"/>
      </g>
     </g>
    </g>
    <g id="xtick_5">
     <g id="text_5">
      <!-- 80000 -->
      <g style="fill:#262626;" transform="translate(422.930455 636.076563)scale(0.22 -0.22)">
       <defs>
        <path d="M 2034 2216 
Q 1584 2216 1326 1975 
Q 1069 1734 1069 1313 
Q 1069 891 1326 650 
Q 1584 409 2034 409 
Q 2484 409 2743 651 
Q 3003 894 3003 1313 
Q 3003 1734 2745 1975 
Q 2488 2216 2034 2216 
z
M 1403 2484 
Q 997 2584 770 2862 
Q 544 3141 544 3541 
Q 544 4100 942 4425 
Q 1341 4750 2034 4750 
Q 2731 4750 3128 4425 
Q 3525 4100 3525 3541 
Q 3525 3141 3298 2862 
Q 3072 2584 2669 2484 
Q 3125 2378 3379 2068 
Q 3634 1759 3634 1313 
Q 3634 634 3220 271 
Q 2806 -91 2034 -91 
Q 1263 -91 848 271 
Q 434 634 434 1313 
Q 434 1759 690 2068 
Q 947 2378 1403 2484 
z
M 1172 3481 
Q 1172 3119 1398 2916 
Q 1625 2713 2034 2713 
Q 2441 2713 2670 2916 
Q 2900 3119 2900 3481 
Q 2900 3844 2670 4047 
Q 2441 4250 2034 4250 
Q 1625 4250 1398 4047 
Q 1172 3844 1172 3481 
z
" id="DejaVuSans-38" transform="scale(0.015625)"/>
       </defs>
       <use xlink:href="#DejaVuSans-38"/>
       <use x="63.623047" xlink:href="#DejaVuSans-30"/>
       <use x="127.246094" xlink:href="#DejaVuSans-30"/>
       <use x="190.869141" xlink:href="#DejaVuSans-30"/>
       <use x="254.492188" xlink:href="#DejaVuSans-30"/>
      </g>
     </g>
    </g>
    <g id="xtick_6">
     <g id="text_6">
      <!-- 100000 -->
      <g style="fill:#262626;" transform="translate(503.752966 636.076563)scale(0.22 -0.22)">
       <defs>
        <path d="M 794 531 
L 1825 531 
L 1825 4091 
L 703 3866 
L 703 4441 
L 1819 4666 
L 2450 4666 
L 2450 531 
L 3481 531 
L 3481 0 
L 794 0 
L 794 531 
z
" id="DejaVuSans-31" transform="scale(0.015625)"/>
       </defs>
       <use xlink:href="#DejaVuSans-31"/>
       <use x="63.623047" xlink:href="#DejaVuSans-30"/>
       <use x="127.246094" xlink:href="#DejaVuSans-30"/>
       <use x="190.869141" xlink:href="#DejaVuSans-30"/>
       <use x="254.492188" xlink:href="#DejaVuSans-30"/>
       <use x="318.115234" xlink:href="#DejaVuSans-30"/>
      </g>
     </g>
    </g>
    <g id="text_7">
     <!-- MDTU -->
     <g style="fill:#262626;" transform="translate(290.596464 662.888125)scale(0.24 -0.24)">
      <defs>
       <path d="M 628 4666 
L 1569 4666 
L 2759 1491 
L 3956 4666 
L 4897 4666 
L 4897 0 
L 4281 0 
L 4281 4097 
L 3078 897 
L 2444 897 
L 1241 4097 
L 1241 0 
L 628 0 
L 628 4666 
z
" id="DejaVuSans-4d" transform="scale(0.015625)"/>
       <path d="M 1259 4147 
L 1259 519 
L 2022 519 
Q 2988 519 3436 956 
Q 3884 1394 3884 2338 
Q 3884 3275 3436 3711 
Q 2988 4147 2022 4147 
L 1259 4147 
z
M 628 4666 
L 1925 4666 
Q 3281 4666 3915 4102 
Q 4550 3538 4550 2338 
Q 4550 1131 3912 565 
Q 3275 0 1925 0 
L 628 0 
L 628 4666 
z
" id="DejaVuSans-44" transform="scale(0.015625)"/>
       <path d="M -19 4666 
L 3928 4666 
L 3928 4134 
L 2272 4134 
L 2272 0 
L 1638 0 
L 1638 4134 
L -19 4134 
L -19 4666 
z
" id="DejaVuSans-54" transform="scale(0.015625)"/>
       <path d="M 556 4666 
L 1191 4666 
L 1191 1831 
Q 1191 1081 1462 751 
Q 1734 422 2344 422 
Q 2950 422 3222 751 
Q 3494 1081 3494 1831 
L 3494 4666 
L 4128 4666 
L 4128 1753 
Q 4128 841 3676 375 
Q 3225 -91 2344 -91 
Q 1459 -91 1007 375 
Q 556 841 556 1753 
L 556 4666 
z
" id="DejaVuSans-55" transform="scale(0.015625)"/>
      </defs>
      <use xlink:href="#DejaVuSans-4d"/>
      <use x="86.279297" xlink:href="#DejaVuSans-44"/>
      <use x="163.28125" xlink:href="#DejaVuSans-54"/>
      <use x="224.365234" xlink:href="#DejaVuSans-55"/>
     </g>
    </g>
   </g>
   <g id="matplotlib.axis_2">
    <g id="ytick_1">
     <g id="text_8">
      <!-- 0.4 -->
      <g style="fill:#262626;" transform="translate(34.4275 585.419919)scale(0.22 -0.22)">
       <defs>
        <path d="M 684 794 
L 1344 794 
L 1344 0 
L 684 0 
L 684 794 
z
" id="DejaVuSans-2e" transform="scale(0.015625)"/>
       </defs>
       <use xlink:href="#DejaVuSans-30"/>
       <use x="63.623047" xlink:href="#DejaVuSans-2e"/>
       <use x="95.410156" xlink:href="#DejaVuSans-34"/>
      </g>
     </g>
    </g>
    <g id="ytick_2">
     <g id="text_9">
      <!-- 0.6 -->
      <g style="fill:#262626;" transform="translate(34.4275 509.696362)scale(0.22 -0.22)">
       <use xlink:href="#DejaVuSans-30"/>
       <use x="63.623047" xlink:href="#DejaVuSans-2e"/>
       <use x="95.410156" xlink:href="#DejaVuSans-36"/>
      </g>
     </g>
    </g>
    <g id="ytick_3">
     <g id="text_10">
      <!-- 0.8 -->
      <g style="fill:#262626;" transform="translate(34.4275 433.972805)scale(0.22 -0.22)">
       <use xlink:href="#DejaVuSans-30"/>
       <use x="63.623047" xlink:href="#DejaVuSans-2e"/>
       <use x="95.410156" xlink:href="#DejaVuSans-38"/>
      </g>
     </g>
    </g>
    <g id="ytick_4">
     <g id="text_11">
      <!-- 1.0 -->
      <g style="fill:#262626;" transform="translate(34.4275 358.249249)scale(0.22 -0.22)">
       <use xlink:href="#DejaVuSans-31"/>
       <use x="63.623047" xlink:href="#DejaVuSans-2e"/>
       <use x="95.410156" xlink:href="#DejaVuSans-30"/>
      </g>
     </g>
    </g>
    <g id="ytick_5">
     <g id="text_12">
      <!-- 1.2 -->
      <g style="fill:#262626;" transform="translate(34.4275 282.525692)scale(0.22 -0.22)">
       <use xlink:href="#DejaVuSans-31"/>
       <use x="63.623047" xlink:href="#DejaVuSans-2e"/>
       <use x="95.410156" xlink:href="#DejaVuSans-32"/>
      </g>
     </g>
    </g>
    <g id="ytick_6">
     <g id="text_13">
      <!-- 1.4 -->
      <g style="fill:#262626;" transform="translate(34.4275 206.802135)scale(0.22 -0.22)">
       <use xlink:href="#DejaVuSans-31"/>
       <use x="63.623047" xlink:href="#DejaVuSans-2e"/>
       <use x="95.410156" xlink:href="#DejaVuSans-34"/>
      </g>
     </g>
    </g>
    <g id="ytick_7">
     <g id="text_14">
      <!-- 1.6 -->
      <g style="fill:#262626;" transform="translate(34.4275 131.078578)scale(0.22 -0.22)">
       <use xlink:href="#DejaVuSans-31"/>
       <use x="63.623047" xlink:href="#DejaVuSans-2e"/>
       <use x="95.410156" xlink:href="#DejaVuSans-36"/>
      </g>
     </g>
    </g>
    <g id="text_15">
     <!-- $E$ -->
     <g style="fill:#262626;" transform="translate(25.43625 364.352286)rotate(-90)scale(0.24 -0.24)">
      <defs>
       <path d="M 1081 4666 
L 4031 4666 
L 3928 4134 
L 1606 4134 
L 1338 2753 
L 3566 2753 
L 3463 2222 
L 1234 2222 
L 909 531 
L 3284 531 
L 3181 0 
L 172 0 
L 1081 4666 
z
" id="DejaVuSans-Oblique-45" transform="scale(0.015625)"/>
      </defs>
      <use transform="translate(0 0.09375)" xlink:href="#DejaVuSans-Oblique-45"/>
     </g>
    </g>
   </g>
   <g id="line2d_1">
    <path clip-path="url(#p8a8086156f)" d="M 106.858713 456.290927 
L 107.078266 498.052555 
L 107.297819 487.061617 
L 107.517372 332.619109 
L 107.736925 489.408887 
L 107.956478 421.053448 
L 108.176032 442.420465 
L 108.395585 397.112412 
L 108.615138 409.71872 
L 108.834691 384.247235 
L 109.054244 403.957576 
L 109.273797 489.437131 
L 109.493351 390.617168 
L 109.712904 464.204567 
L 109.932457 353.991846 
L 110.15201 491.813457 
L 110.371563 384.085819 
L 110.591116 456.448504 
L 110.810669 465.776178 
L 111.030223 435.941379 
L 111.249776 317.717947 
L 111.688882 488.767068 
L 112.127988 386.756223 
L 112.347541 468.856805 
L 112.567095 458.762464 
L 112.786648 480.106516 
L 113.006201 381.353657 
L 113.225754 465.902175 
L 113.445307 476.301976 
L 113.66486 419.046796 
L 113.884414 427.262845 
L 114.103967 450.358439 
L 114.32352 329.272458 
L 114.543073 464.438249 
L 114.762626 440.092646 
L 114.982179 452.172658 
L 115.201732 382.805339 
L 115.421286 521.902528 
L 115.640839 456.670203 
L 115.860392 464.297421 
L 116.079945 503.553288 
L 116.519051 322.190682 
L 116.738605 443.990035 
L 116.958158 475.229984 
L 117.177711 401.5431 
L 117.397264 401.00149 
L 117.83637 471.222618 
L 118.275477 402.440768 
L 118.49503 548.53742 
L 118.714583 402.318476 
L 118.934136 476.177354 
L 119.153689 428.917752 
L 119.812349 487.262368 
L 120.031902 473.126199 
L 120.471008 511.130336 
L 120.690561 443.004201 
L 120.910114 426.874043 
L 121.129668 489.999329 
L 121.349221 416.851948 
L 121.788327 378.127864 
L 122.227433 516.71493 
L 122.446987 460.231514 
L 122.66654 523.703079 
L 123.105646 379.167303 
L 123.325199 401.262434 
L 123.544752 396.283697 
L 123.764305 450.862972 
L 123.983859 365.158855 
L 124.203412 429.242195 
L 124.422965 436.174478 
L 124.642518 376.729365 
L 124.862071 476.999432 
L 125.081624 404.714474 
L 125.301178 540.817336 
L 125.520731 562.572264 
L 125.740284 484.903192 
L 125.959837 462.133743 
L 126.17939 314.205689 
L 126.398943 411.940163 
L 126.618496 342.408562 
L 126.83805 443.609996 
L 127.057603 448.674756 
L 127.277156 560.631594 
L 127.716262 433.97729 
L 127.935815 500.600767 
L 128.155369 390.222822 
L 128.374922 437.719285 
L 128.594475 431.837005 
L 128.814028 365.367776 
L 129.033581 499.694929 
L 129.253134 321.636436 
L 129.472687 343.62739 
L 129.692241 457.917212 
L 129.911794 430.647111 
L 130.131347 458.839155 
L 130.3509 419.036922 
L 130.570453 399.753288 
L 130.790006 488.798779 
L 131.448666 370.122542 
L 131.668219 446.946587 
L 131.887772 410.767315 
L 132.107325 353.944329 
L 132.326878 464.935247 
L 132.546432 471.598528 
L 132.765985 538.031114 
L 132.985538 439.217369 
L 133.205091 450.702419 
L 133.424644 507.914184 
L 133.644197 320.299014 
L 133.863751 481.696917 
L 134.083304 351.786466 
L 134.302857 446.048583 
L 134.52241 448.971812 
L 134.741963 458.094533 
L 134.961516 405.335742 
L 135.181069 514.514169 
L 135.400623 425.551615 
L 135.620176 495.206709 
L 135.839729 514.240344 
L 136.059282 379.487875 
L 136.498388 462.256887 
L 136.717941 382.60394 
L 136.937495 347.942411 
L 137.157048 466.20386 
L 137.376601 441.527431 
L 137.596154 463.169128 
L 138.03526 304.264599 
L 138.254814 417.014773 
L 138.474367 467.969374 
L 138.69392 446.059324 
L 138.913473 441.965723 
L 139.133026 532.651544 
L 139.352579 334.122797 
L 139.572132 525.795617 
L 140.011239 453.751793 
L 140.230792 501.794186 
L 140.450345 402.957684 
L 140.669898 436.898314 
L 140.889451 441.556596 
L 141.109005 459.918304 
L 141.328558 518.822228 
L 141.548111 397.91451 
L 141.767664 510.294408 
L 141.987217 486.697877 
L 142.20677 442.532497 
L 142.426323 373.579939 
L 142.645877 406.271679 
L 142.86543 359.127145 
L 143.084983 429.303607 
L 143.304536 317.954638 
L 143.524089 465.780728 
L 143.743642 380.379826 
L 143.963196 399.321394 
L 144.182749 373.823731 
L 144.402302 452.709096 
L 144.621855 404.724385 
L 144.841408 397.061663 
L 145.060961 411.901224 
L 145.280514 377.587125 
L 145.500068 417.440236 
L 145.719621 395.015742 
L 145.939174 427.789166 
L 146.158727 354.300642 
L 146.37828 404.688337 
L 146.597833 414.687577 
L 146.817387 509.418442 
L 147.256493 348.182621 
L 147.476046 517.22285 
L 147.695599 497.400384 
L 147.915152 429.197162 
L 148.134705 403.58242 
L 148.793365 581.38839 
L 149.452024 444.991409 
L 149.671578 455.813932 
L 149.891131 481.92158 
L 150.110684 437.72735 
L 150.330237 469.668055 
L 150.54979 483.581541 
L 150.769343 362.468934 
L 150.988896 490.814481 
L 151.20845 486.312643 
L 151.428003 420.39494 
L 151.647556 445.731889 
L 151.867109 392.844089 
L 152.086662 492.174324 
L 152.306215 477.78362 
L 152.525769 417.123603 
L 153.184428 476.582885 
L 153.403981 432.150589 
L 153.623534 431.375779 
L 153.843087 459.810254 
L 154.062641 468.250299 
L 154.282194 390.407373 
L 154.501747 479.02759 
L 154.7213 368.279148 
L 154.940853 541.871085 
L 155.37996 310.390726 
L 155.599513 441.768425 
L 156.038619 521.238355 
L 156.477725 392.20187 
L 156.697278 443.338832 
L 156.916832 437.041234 
L 157.136385 421.432953 
L 157.575491 336.337233 
L 157.795044 517.802402 
L 158.014597 505.291739 
L 158.453704 406.759044 
L 158.673257 521.910362 
L 159.112363 331.284616 
L 159.331916 430.341647 
L 159.551469 331.585038 
L 159.771023 504.953447 
L 160.210129 424.938547 
L 160.429682 471.259628 
L 160.649235 415.537423 
L 160.868788 318.825522 
L 161.088342 361.116797 
L 161.307895 489.732466 
L 161.527448 488.762588 
L 161.747001 521.761005 
L 161.966554 333.612985 
L 162.186107 524.316355 
L 162.40566 377.647084 
L 162.625214 462.294167 
L 162.844767 343.930034 
L 163.06432 409.083039 
L 163.283873 389.211627 
L 163.503426 461.787026 
L 163.722979 450.739099 
L 163.942532 343.583955 
L 164.162086 375.333349 
L 164.601192 497.257666 
L 164.820745 364.967443 
L 165.040298 500.722454 
L 165.259851 346.813941 
L 165.479405 440.464712 
L 165.698958 278.659985 
L 165.918511 409.910832 
L 166.57717 503.905934 
L 166.796723 394.547919 
L 167.016277 379.700242 
L 167.23583 415.478171 
L 167.455383 500.098793 
L 167.894489 427.957894 
L 168.114042 542.469202 
L 168.333596 418.86163 
L 168.553149 508.467496 
L 168.772702 355.514768 
L 168.992255 497.891905 
L 169.211808 424.682157 
L 169.431361 437.290579 
L 169.650914 516.830026 
L 169.870468 466.442542 
L 170.090021 324.973843 
L 170.309574 478.598017 
L 170.529127 366.992565 
L 170.74868 423.34523 
L 170.968233 314.937495 
L 171.187787 486.760228 
L 171.40734 423.414281 
L 171.626893 394.178886 
L 172.065999 464.068846 
L 172.285552 472.187638 
L 172.505105 423.797361 
L 172.724659 461.161756 
L 173.163765 294.39934 
L 173.602871 497.306586 
L 173.822424 407.716734 
L 174.041978 436.793961 
L 174.261531 380.700764 
L 174.481084 425.421972 
L 174.700637 407.900933 
L 174.92019 482.505858 
L 175.139743 456.81311 
L 175.359296 498.962943 
L 175.57885 383.652535 
L 175.798403 507.280851 
L 176.017956 424.596021 
L 176.237509 394.742447 
L 176.457062 434.550876 
L 176.676615 432.081338 
L 176.896169 356.888077 
L 177.115722 414.121096 
L 177.335275 375.200092 
L 177.554828 419.26651 
L 177.774381 275.097801 
L 177.993934 495.223366 
L 178.213487 368.410006 
L 178.433041 464.975796 
L 178.652594 501.490483 
L 178.872147 447.894242 
L 179.0917 461.127542 
L 179.311253 512.202754 
L 179.530806 386.891376 
L 179.75036 350.975359 
L 179.969913 364.303938 
L 180.189466 512.685632 
L 180.409019 495.824638 
L 181.287232 469.307071 
L 181.506785 528.373284 
L 181.726338 390.880435 
L 182.165444 306.100071 
L 182.384997 394.556113 
L 182.604551 247.65292 
L 182.824104 382.504604 
L 183.043657 419.512493 
L 183.26321 383.950134 
L 183.482763 426.523517 
L 183.702316 326.260931 
L 183.921869 487.524664 
L 184.141423 466.612918 
L 184.360976 489.206419 
L 184.580529 459.278305 
L 184.800082 490.030138 
L 185.239188 346.655857 
L 185.458742 488.539043 
L 185.678295 503.521203 
L 186.117401 430.214304 
L 186.336954 453.016059 
L 186.556507 408.232457 
L 186.77606 412.821468 
L 186.995614 392.998489 
L 187.215167 487.539224 
L 187.43472 435.892524 
L 187.654273 419.59103 
L 187.873826 362.705362 
L 188.093379 336.983447 
L 188.532486 508.169195 
L 188.971592 429.946458 
L 189.191145 460.118449 
L 189.410698 365.654586 
L 189.849805 443.332034 
L 190.069358 493.879333 
L 190.288911 350.087684 
L 190.508464 421.230421 
L 190.728017 400.828418 
L 190.94757 477.522734 
L 191.167123 341.511803 
L 191.386677 480.519196 
L 191.60623 477.297661 
L 191.825783 484.074863 
L 192.045336 484.678484 
L 192.264889 261.610127 
L 192.703996 431.73949 
L 192.923549 359.11309 
L 193.143102 477.772693 
L 193.362655 505.606321 
L 193.582208 369.133196 
L 193.801761 446.400615 
L 194.021314 422.093907 
L 194.240868 336.603124 
L 194.460421 499.172093 
L 194.899527 425.927918 
L 195.11908 468.945613 
L 195.338633 361.893945 
L 195.558187 419.320345 
L 195.77774 391.283976 
L 195.997293 513.889779 
L 196.216846 411.257923 
L 196.436399 427.483059 
L 196.655952 238.489017 
L 196.875505 490.847144 
L 197.314612 382.24977 
L 197.973271 481.876355 
L 198.192824 306.038994 
L 198.412378 235.615709 
L 198.631931 436.651715 
L 198.851484 382.610574 
L 199.071037 449.365523 
L 199.29059 440.217341 
L 199.729696 483.625666 
L 199.94925 380.779574 
L 200.168803 483.039752 
L 200.388356 375.34276 
L 200.827462 456.831312 
L 201.047015 438.287291 
L 201.266569 432.6532 
L 201.486122 271.534547 
L 201.705675 472.456268 
L 201.925228 405.209298 
L 202.144781 467.609254 
L 202.364334 416.39183 
L 202.583887 499.979925 
L 202.803441 452.625665 
L 203.022994 360.948027 
L 203.242547 512.100253 
L 203.4621 394.064589 
L 203.681653 498.980514 
L 203.901206 437.738743 
L 204.12076 427.10318 
L 204.340313 303.624927 
L 204.559866 445.775203 
L 204.779419 487.388686 
L 204.998972 417.838143 
L 205.218525 425.838674 
L 205.438078 410.658501 
L 205.657632 469.975159 
L 206.096738 341.32576 
L 206.316291 516.011393 
L 206.535844 456.384832 
L 206.755397 519.915345 
L 206.974951 463.212733 
L 207.194504 321.106871 
L 207.63361 504.478788 
L 207.853163 426.064521 
L 208.072716 448.24418 
L 208.292269 545.3473 
L 208.511823 421.043827 
L 208.731376 492.529901 
L 208.950929 382.69517 
L 209.390035 468.636375 
L 209.609588 536.023437 
L 209.829142 428.146456 
L 210.048695 517.046578 
L 210.268248 320.18932 
L 210.707354 463.278491 
L 210.926907 439.750633 
L 211.585567 469.181614 
L 211.80512 361.67819 
L 212.024673 419.119699 
L 212.244226 439.694725 
L 212.463779 491.716279 
L 212.902886 400.204892 
L 213.122439 393.470795 
L 213.341992 398.092626 
L 213.561545 439.126921 
L 213.781098 421.191772 
L 214.000651 415.227525 
L 214.220205 451.738957 
L 214.439758 426.992796 
L 214.659311 473.681983 
L 214.878864 471.43323 
L 215.098417 271.168062 
L 215.31797 499.890797 
L 215.537523 486.594142 
L 215.757077 429.827004 
L 215.97663 486.576501 
L 216.196183 479.95427 
L 216.415736 481.545408 
L 216.635289 335.749937 
L 216.854842 424.446829 
L 217.074396 444.342382 
L 217.293949 416.993289 
L 217.513502 408.755962 
L 217.733055 439.098137 
L 217.952608 310.997006 
L 218.172161 419.067902 
L 218.391714 397.786437 
L 218.611268 459.824201 
L 218.830821 431.882656 
L 219.050374 465.912938 
L 219.269927 391.194353 
L 219.48948 356.931558 
L 219.709033 500.526608 
L 219.928587 351.911437 
L 220.14814 380.351303 
L 220.367693 525.519507 
L 220.587246 521.022516 
L 220.806799 458.091243 
L 221.026352 432.07806 
L 221.245905 443.329243 
L 221.465459 401.36866 
L 221.685012 471.57578 
L 221.904565 457.586805 
L 222.124118 517.029791 
L 222.343671 488.251338 
L 222.563224 405.023422 
L 222.782778 414.743981 
L 223.002331 438.710189 
L 223.221884 340.43134 
L 223.441437 451.24362 
L 223.66099 491.37534 
L 223.880543 431.852349 
L 224.100096 477.172829 
L 224.539203 328.360181 
L 224.758756 473.737319 
L 224.978309 493.243711 
L 225.197862 543.334269 
L 225.417415 494.323736 
L 225.636969 339.25127 
L 225.856522 494.74632 
L 226.076075 288.164927 
L 226.295628 354.07248 
L 226.515181 305.241334 
L 226.734734 388.905254 
L 226.954287 381.263377 
L 227.173841 481.214724 
L 227.393394 419.004434 
L 227.612947 512.720393 
L 227.8325 388.19246 
L 228.052053 480.935282 
L 228.271606 389.030641 
L 228.49116 432.337669 
L 228.710713 325.87114 
L 228.930266 412.597314 
L 229.149819 370.985206 
L 229.369372 363.148963 
L 229.588925 500.546752 
L 229.808478 472.919997 
L 230.028032 520.828746 
L 230.247585 387.448651 
L 230.467138 357.578899 
L 230.686691 366.455462 
L 230.906244 366.614859 
L 231.125797 472.11074 
L 231.345351 417.424505 
L 231.564904 472.547044 
L 231.784457 487.682404 
L 232.00401 415.210635 
L 232.223563 452.802577 
L 232.443116 518.338685 
L 232.662669 493.815207 
L 232.882223 309.6345 
L 233.101776 418.316548 
L 233.540882 451.859457 
L 233.760435 372.64684 
L 233.979988 362.958197 
L 234.199542 448.649134 
L 234.419095 287.112048 
L 234.638648 446.212766 
L 234.858201 349.986543 
L 235.077754 478.857389 
L 235.297307 506.49911 
L 235.51686 391.890174 
L 235.736414 493.96605 
L 235.955967 231.08013 
L 236.17552 504.696081 
L 236.395073 407.309297 
L 236.614626 461.688492 
L 236.834179 455.65844 
L 237.053733 428.988896 
L 237.273286 332.42154 
L 237.492839 499.66273 
L 237.712392 495.921157 
L 237.931945 462.116356 
L 238.371051 326.012689 
L 238.590605 443.679034 
L 238.810158 475.526001 
L 239.249264 374.765817 
L 239.468817 494.72284 
L 239.68837 411.141186 
L 239.907924 473.491345 
L 240.127477 476.886232 
L 240.34703 325.853611 
L 240.566583 297.83842 
L 240.786136 499.856103 
L 241.005689 397.624493 
L 241.225242 481.360901 
L 241.444796 268.405378 
L 241.664349 496.573605 
L 241.883902 375.358078 
L 242.103455 365.12686 
L 242.323008 516.039448 
L 242.542561 469.695902 
L 242.762114 497.128118 
L 242.981668 463.178106 
L 243.201221 336.101403 
L 243.640327 465.935955 
L 243.85988 465.112745 
L 244.079433 371.172007 
L 244.298987 428.396683 
L 244.51854 447.977727 
L 244.738093 410.709324 
L 244.957646 241.286783 
L 245.177199 448.661832 
L 245.396752 409.341272 
L 245.616305 461.036211 
L 245.835859 418.803951 
L 246.055412 512.977214 
L 246.274965 523.667416 
L 246.714071 402.527199 
L 246.933624 446.343856 
L 247.153178 301.291209 
L 247.372731 411.858651 
L 247.592284 452.401563 
L 247.811837 372.832277 
L 248.03139 452.160747 
L 248.470496 496.726965 
L 248.69005 457.18167 
L 249.129156 486.662741 
L 249.348709 396.497301 
L 249.568262 459.95054 
L 249.787815 470.913708 
L 250.007369 402.442699 
L 250.226922 465.374767 
L 250.446475 455.566131 
L 250.666028 417.866003 
L 250.885581 402.540596 
L 251.105134 484.872224 
L 251.324687 479.198335 
L 251.763794 358.903193 
L 251.983347 364.817776 
L 252.2029 490.830104 
L 252.422453 388.242155 
L 252.642006 484.317099 
L 252.86156 438.702189 
L 253.300666 418.545482 
L 253.520219 433.794957 
L 253.739772 481.823622 
L 253.959325 412.5064 
L 254.178878 477.253283 
L 254.398432 402.36995 
L 254.837538 492.931563 
L 255.057091 490.951386 
L 255.276644 434.377706 
L 255.496197 448.627263 
L 255.715751 476.437556 
L 255.935304 472.573499 
L 256.37441 389.503973 
L 256.593963 397.901631 
L 256.813516 310.02446 
L 257.033069 388.61488 
L 257.252623 516.2271 
L 257.472176 326.596798 
L 257.691729 538.602946 
L 257.911282 442.221791 
L 258.130835 405.508855 
L 258.350388 430.823066 
L 258.569942 511.462954 
L 258.789495 486.087324 
L 259.009048 361.281562 
L 259.228601 449.309294 
L 259.448154 356.52527 
L 259.88726 498.514064 
L 260.106814 401.960243 
L 260.326367 397.70868 
L 260.765473 461.036377 
L 260.985026 222.387563 
L 261.204579 375.178367 
L 261.424133 411.541846 
L 261.643686 499.126106 
L 261.863239 418.161121 
L 262.082792 544.618233 
L 262.302345 393.739259 
L 262.521898 393.179408 
L 262.741451 436.141905 
L 262.961005 336.946262 
L 263.180558 436.055143 
L 263.619664 465.296902 
L 263.839217 448.165718 
L 264.05877 382.363835 
L 264.278324 382.196761 
L 264.497877 470.764258 
L 264.71743 469.880094 
L 264.936983 330.98389 
L 265.376089 514.657575 
L 265.595642 468.149644 
L 265.815196 395.876242 
L 266.034749 480.913776 
L 266.473855 361.915582 
L 266.693408 434.045818 
L 266.912961 435.179031 
L 267.132514 439.77346 
L 267.352068 424.131265 
L 267.571621 308.482118 
L 267.791174 489.671408 
L 268.010727 504.667603 
L 268.449833 368.957571 
L 268.669387 467.484034 
L 268.88894 436.988679 
L 269.108493 467.431223 
L 269.328046 442.837494 
L 269.547599 434.313281 
L 269.767152 496.399525 
L 269.986705 461.618723 
L 270.206259 453.337793 
L 270.425812 480.972008 
L 270.645365 467.322743 
L 270.864918 400.841948 
L 271.084471 416.703441 
L 271.304024 342.931449 
L 271.523578 345.508019 
L 271.743131 440.598357 
L 271.962684 434.468993 
L 272.182237 494.68806 
L 272.40179 435.605792 
L 272.621343 492.807355 
L 272.840896 389.009989 
L 273.06045 461.803736 
L 273.280003 380.692523 
L 273.499556 481.467702 
L 273.719109 460.83968 
L 273.938662 397.121041 
L 274.158215 429.6876 
L 274.377769 369.20964 
L 275.036428 521.418869 
L 275.255981 392.904561 
L 275.475534 394.547869 
L 275.695087 484.832349 
L 275.914641 411.22939 
L 276.134194 289.101999 
L 276.353747 488.195789 
L 276.5733 515.895971 
L 276.792853 331.096332 
L 277.012406 490.871263 
L 277.23196 465.435929 
L 277.451513 457.292688 
L 277.671066 395.078279 
L 277.890619 365.153955 
L 278.110172 370.580508 
L 278.329725 474.516834 
L 278.549278 467.489066 
L 278.768832 468.533931 
L 278.988385 425.542163 
L 279.207938 415.242491 
L 279.427491 395.092208 
L 279.647044 457.308252 
L 279.866597 442.157389 
L 280.086151 434.685652 
L 280.305704 523.578743 
L 280.525257 395.833243 
L 280.74481 536.362566 
L 281.183916 335.969043 
L 281.403469 466.426202 
L 281.623023 496.48026 
L 281.842576 448.201413 
L 282.062129 302.279038 
L 282.281682 482.513601 
L 282.501235 498.361666 
L 282.940342 409.628691 
L 283.159895 479.14657 
L 283.379448 481.154782 
L 283.818554 178.225066 
L 284.038107 361.82122 
L 284.25766 412.847272 
L 284.477214 432.542786 
L 284.696767 346.94127 
L 284.91632 473.857349 
L 285.135873 441.276364 
L 285.355426 347.307401 
L 285.574979 366.567803 
L 286.014086 431.912882 
L 286.233639 358.147446 
L 286.453192 499.536649 
L 286.672745 541.727701 
L 286.892298 470.428994 
L 287.111851 310.264479 
L 287.331405 324.169007 
L 287.550958 439.962367 
L 287.770511 418.098001 
L 287.990064 454.164803 
L 288.209617 511.135703 
L 288.42917 468.119309 
L 288.648724 402.718596 
L 288.868277 486.524993 
L 289.08783 287.764207 
L 289.526936 449.980701 
L 289.746489 360.567329 
L 289.966042 462.213264 
L 290.185596 426.513478 
L 290.624702 477.744064 
L 290.844255 452.310991 
L 291.063808 476.219256 
L 291.283361 466.738891 
L 291.502915 446.906229 
L 291.722468 369.395405 
L 291.942021 483.042708 
L 292.161574 380.915269 
L 292.381127 386.131085 
L 292.60068 361.778995 
L 292.820233 356.534607 
L 293.039787 305.602196 
L 293.25934 483.462248 
L 293.478893 381.293314 
L 293.698446 501.05947 
L 293.917999 313.877818 
L 294.137552 490.091894 
L 294.357105 362.49032 
L 294.576659 497.067425 
L 295.015765 410.800731 
L 295.235318 463.307837 
L 295.454871 409.777754 
L 295.674424 419.261808 
L 295.893978 493.414495 
L 296.333084 344.614513 
L 296.552637 460.445808 
L 296.77219 423.550615 
L 297.211296 531.868602 
L 297.43085 361.796303 
L 297.650403 489.771791 
L 297.869956 458.200517 
L 298.089509 473.06038 
L 298.309062 404.295356 
L 298.528615 384.686717 
L 298.748169 406.930294 
L 298.967722 385.155027 
L 299.187275 487.288867 
L 299.406828 496.705489 
L 299.626381 426.930999 
L 299.845934 459.233156 
L 300.065487 348.349506 
L 300.285041 323.041217 
L 300.504594 427.555846 
L 300.724147 363.346439 
L 300.9437 433.306175 
L 301.163253 392.545823 
L 301.382806 387.961413 
L 301.60236 435.405598 
L 301.821913 446.529547 
L 302.041466 355.150096 
L 302.261019 432.219736 
L 302.480572 384.585798 
L 302.700125 377.252913 
L 302.919678 404.071029 
L 303.139232 371.182844 
L 303.358785 423.230655 
L 303.797891 557.343386 
L 304.017444 446.333079 
L 304.236997 450.60304 
L 304.456551 412.491202 
L 304.676104 435.612331 
L 304.895657 436.601908 
L 305.11521 454.895998 
L 305.334763 507.97556 
L 305.554316 441.210374 
L 305.773869 502.468675 
L 305.993423 291.169294 
L 306.432529 393.59953 
L 306.652082 502.451697 
L 306.871635 377.562014 
L 307.091188 454.530658 
L 307.310742 328.084711 
L 307.530295 325.677992 
L 307.749848 456.724485 
L 307.969401 412.348808 
L 308.188954 391.807267 
L 308.408507 501.578175 
L 308.62806 453.572142 
L 308.847614 338.640962 
L 309.067167 486.779014 
L 309.28672 427.320177 
L 309.506273 487.449421 
L 309.725826 487.248387 
L 309.945379 451.540003 
L 310.164933 457.294457 
L 310.384486 493.774443 
L 310.604039 458.143574 
L 310.823592 375.486082 
L 311.043145 527.254352 
L 311.482251 408.57253 
L 311.701805 488.560458 
L 312.140911 214.029227 
L 312.360464 416.149985 
L 312.580017 461.297354 
L 313.019124 365.858826 
L 313.238677 479.295811 
L 313.677783 449.652864 
L 313.897336 445.156383 
L 314.116889 506.527047 
L 314.336442 387.789614 
L 314.555996 423.099378 
L 314.775549 439.643205 
L 314.995102 387.908836 
L 315.214655 293.488634 
L 315.653761 472.297574 
L 315.873315 447.956635 
L 316.092868 506.824017 
L 316.312421 461.430383 
L 316.531974 462.200501 
L 316.751527 483.058175 
L 316.97108 450.520125 
L 317.190633 445.993868 
L 317.62974 369.709574 
L 317.849293 365.712476 
L 318.068846 486.529042 
L 318.507952 454.13439 
L 318.947059 482.55799 
L 319.386165 430.902946 
L 319.605718 527.594985 
L 319.825271 420.092476 
L 320.044824 466.152631 
L 320.264378 479.027245 
L 320.483931 498.432013 
L 320.703484 411.82616 
L 320.923037 527.628426 
L 321.14259 535.775215 
L 321.362143 464.081573 
L 321.581696 450.030648 
L 321.80125 290.056712 
L 322.020803 442.516721 
L 322.240356 506.512077 
L 322.679462 388.420965 
L 323.118569 442.455127 
L 323.338122 424.068263 
L 323.557675 510.729549 
L 323.996781 496.472451 
L 324.216334 363.18207 
L 324.435887 444.496294 
L 324.655441 446.280361 
L 324.874994 408.175642 
L 325.094547 418.61252 
L 325.3141 308.432472 
L 325.533653 507.471579 
L 325.753206 419.776467 
L 325.97276 521.726394 
L 326.192313 414.897162 
L 326.411866 459.059358 
L 326.631419 541.24726 
L 326.850972 398.408126 
L 327.070525 373.765165 
L 327.290078 532.811802 
L 327.509632 435.646726 
L 327.729185 414.945645 
L 327.948738 462.222496 
L 328.168291 411.625385 
L 328.387844 476.617965 
L 328.826951 361.374673 
L 329.046504 351.648831 
L 329.266057 419.302031 
L 329.48561 442.304494 
L 329.705163 517.769152 
L 330.144269 229.426209 
L 330.363823 491.611706 
L 330.802929 349.297696 
L 331.022482 506.306515 
L 331.461588 452.201943 
L 331.681142 490.294762 
L 331.900695 397.613816 
L 332.120248 431.290614 
L 332.339801 382.10714 
L 332.559354 446.900572 
L 332.778907 397.797001 
L 332.99846 440.307718 
L 333.218014 381.36414 
L 333.437567 470.558437 
L 333.65712 509.683049 
L 333.876673 398.51663 
L 334.096226 362.298279 
L 334.315779 471.635457 
L 334.535333 435.804062 
L 334.754886 441.219798 
L 334.974439 333.919896 
L 335.413545 522.308151 
L 335.633098 288.575783 
L 335.852651 466.566784 
L 336.072205 383.757874 
L 336.291758 440.467689 
L 336.511311 452.959617 
L 336.730864 427.767101 
L 336.950417 474.768617 
L 337.16997 475.06558 
L 337.389524 452.098176 
L 337.609077 402.443617 
L 337.82863 435.648713 
L 338.048183 297.636674 
L 338.267736 484.174307 
L 338.487289 493.295862 
L 338.706842 379.015208 
L 338.926396 352.595604 
L 339.145949 459.182137 
L 339.365502 463.095875 
L 339.585055 488.515962 
L 339.804608 484.217112 
L 340.024161 418.201894 
L 340.243715 411.884245 
L 340.463268 469.528049 
L 340.682821 481.346107 
L 340.902374 455.801773 
L 341.121927 467.928315 
L 341.34148 435.759752 
L 341.780587 510.383432 
L 342.00014 335.484431 
L 342.219693 451.288841 
L 342.439246 436.647558 
L 342.658799 511.899434 
L 342.878352 432.716458 
L 343.097906 466.509834 
L 343.317459 331.121134 
L 343.537012 551.379607 
L 343.756565 460.928848 
L 343.976118 468.1317 
L 344.195671 457.730315 
L 344.415224 426.393825 
L 344.634778 366.311905 
L 344.854331 237.084792 
L 345.073884 447.245236 
L 345.51299 537.636574 
L 345.732543 387.010712 
L 345.952096 396.884375 
L 346.17165 430.261498 
L 346.391203 494.684179 
L 346.610756 501.596462 
L 346.830309 397.708584 
L 347.049862 465.752914 
L 347.269415 343.312253 
L 347.488969 320.088573 
L 347.928075 475.955756 
L 348.147628 387.039452 
L 348.367181 506.03019 
L 348.586734 503.585245 
L 348.806287 388.80148 
L 349.025841 462.810957 
L 349.245394 466.136393 
L 349.464947 479.769912 
L 349.6845 420.921072 
L 349.904053 438.353095 
L 350.123606 525.777254 
L 350.34316 425.629227 
L 350.562713 488.256496 
L 350.782266 442.389645 
L 351.001819 473.147522 
L 351.221372 462.162611 
L 351.440925 481.18465 
L 351.660478 380.452224 
L 351.880032 478.907943 
L 352.099585 466.532316 
L 352.319138 468.598483 
L 352.538691 431.320562 
L 352.758244 501.100948 
L 352.977797 395.746629 
L 353.636457 520.233634 
L 354.295116 360.205212 
L 354.514669 443.414221 
L 354.734223 437.833488 
L 354.953776 465.108839 
L 355.173329 293.643513 
L 355.392882 415.394458 
L 355.612435 356.14563 
L 355.831988 449.652086 
L 356.271095 321.77121 
L 356.490648 496.317671 
L 356.710201 441.080509 
L 356.929754 432.731783 
L 357.149307 542.144527 
L 357.36886 402.886569 
L 357.588414 418.795267 
L 357.807967 463.335096 
L 358.02752 447.614624 
L 358.247073 420.666007 
L 358.686179 461.302399 
L 358.905733 333.769604 
L 359.125286 300.991761 
L 359.344839 443.937959 
L 359.564392 479.953155 
L 359.783945 424.206319 
L 360.003498 505.852329 
L 360.223051 475.47688 
L 360.442605 342.928465 
L 360.662158 357.09412 
L 360.881711 418.95229 
L 361.101264 431.206964 
L 361.320817 343.821125 
L 361.54037 479.811521 
L 361.759924 378.088292 
L 361.979477 456.662494 
L 362.19903 410.949124 
L 362.418583 450.996627 
L 362.638136 446.959572 
L 362.857689 374.343562 
L 363.077242 470.774023 
L 363.296796 433.109515 
L 363.735902 485.414655 
L 363.955455 446.996769 
L 364.175008 463.538076 
L 364.394561 471.533504 
L 364.614115 463.65178 
L 364.833668 474.064593 
L 365.053221 416.599791 
L 365.272774 460.312618 
L 365.492327 390.849974 
L 365.71188 395.867694 
L 365.931433 469.081242 
L 366.150987 336.07936 
L 366.37054 390.004975 
L 366.590093 390.651649 
L 366.809646 485.730656 
L 367.029199 376.051029 
L 367.468306 497.878972 
L 367.687859 458.599934 
L 367.907412 501.584854 
L 368.126965 457.452018 
L 368.346518 447.047185 
L 368.566071 334.894839 
L 368.785624 482.896038 
L 369.005178 453.62301 
L 369.224731 446.377905 
L 369.444284 513.918045 
L 369.663837 431.357124 
L 369.88339 401.583499 
L 370.102943 443.204562 
L 370.322497 258.913912 
L 370.761603 477.141574 
L 370.981156 520.015884 
L 371.200709 447.946878 
L 371.639815 516.89625 
L 371.859369 464.923826 
L 372.078922 486.692052 
L 372.518028 374.045946 
L 372.737581 465.338408 
L 372.957134 437.134894 
L 373.176687 390.493578 
L 373.396241 393.189297 
L 373.615794 491.092489 
L 373.835347 494.284906 
L 374.0549 363.695908 
L 374.274453 341.229792 
L 374.494006 430.195435 
L 374.71356 417.095323 
L 374.933113 368.231003 
L 375.152666 459.168401 
L 375.591772 361.29439 
L 375.811325 393.88016 
L 376.030878 448.617259 
L 376.250432 394.62822 
L 376.469985 457.364509 
L 376.689538 468.973033 
L 376.909091 507.833038 
L 377.348197 368.096888 
L 377.567751 448.098107 
L 377.787304 452.050605 
L 378.006857 369.319492 
L 378.22641 471.745855 
L 378.445963 292.055793 
L 378.665516 469.414054 
L 378.885069 434.392388 
L 379.104623 376.384616 
L 379.543729 494.201136 
L 379.763282 425.260441 
L 379.982835 408.631744 
L 380.202388 380.441287 
L 380.421942 449.689626 
L 380.641495 286.162387 
L 380.861048 393.837527 
L 381.080601 443.856424 
L 381.300154 365.905125 
L 381.519707 363.030344 
L 381.73926 372.05581 
L 381.958814 306.915539 
L 382.178367 446.733781 
L 382.617473 464.906695 
L 382.837026 456.550413 
L 383.056579 321.042964 
L 383.276133 466.770728 
L 383.495686 462.907615 
L 383.715239 391.531446 
L 383.934792 452.344608 
L 384.154345 414.377404 
L 384.373898 262.931626 
L 384.593451 341.954766 
L 384.813005 468.518709 
L 385.032558 518.379113 
L 385.252111 514.648053 
L 385.691217 371.679851 
L 385.91077 467.874851 
L 386.130324 483.9167 
L 386.349877 447.463887 
L 386.56943 390.33726 
L 386.788983 482.532168 
L 387.008536 423.384151 
L 387.228089 409.756825 
L 387.447642 545.741595 
L 387.886749 415.1015 
L 388.106302 372.303304 
L 388.325855 459.918163 
L 388.545408 362.077736 
L 388.764961 440.533097 
L 388.984515 384.759294 
L 389.204068 455.580082 
L 389.423621 458.711853 
L 389.643174 294.297721 
L 389.862727 341.551041 
L 390.08228 341.508787 
L 390.521387 494.311626 
L 390.74094 424.481198 
L 390.960493 488.536659 
L 391.180046 442.399955 
L 391.399599 337.408163 
L 391.619152 330.418719 
L 392.058259 450.49986 
L 392.277812 452.309694 
L 392.497365 389.233896 
L 392.936471 401.465012 
L 393.156024 396.225228 
L 393.375578 447.381621 
L 393.595131 444.198097 
L 393.814684 481.385921 
L 394.034237 473.061167 
L 394.25379 472.412866 
L 394.473343 441.192228 
L 394.692897 463.475272 
L 394.91245 180.943178 
L 395.132003 448.494543 
L 395.351556 417.187854 
L 395.571109 453.958756 
L 395.790662 268.709249 
L 396.010215 530.281683 
L 396.229769 355.710821 
L 396.449322 270.755943 
L 396.668875 443.325418 
L 396.888428 510.919104 
L 397.107981 442.505467 
L 397.327534 449.473792 
L 397.547087 465.38776 
L 397.766641 343.120817 
L 397.986194 491.700209 
L 398.205747 496.858649 
L 398.4253 372.008076 
L 398.644853 355.243332 
L 398.864406 481.10723 
L 399.08396 362.907544 
L 399.303513 441.762439 
L 399.523066 405.612832 
L 399.742619 436.132372 
L 399.962172 384.867392 
L 400.181725 475.565092 
L 400.401278 384.152253 
L 400.620832 523.068973 
L 400.840385 446.263649 
L 401.059938 436.587578 
L 401.279491 444.340922 
L 401.499044 471.873042 
L 401.718597 356.430671 
L 401.938151 410.391607 
L 402.157704 508.917634 
L 402.377257 468.09286 
L 402.59681 387.188978 
L 403.035916 493.009665 
L 403.475023 351.607376 
L 403.694576 477.839519 
L 403.914129 502.599014 
L 404.133682 397.070977 
L 404.353235 369.573114 
L 404.572788 561.869831 
L 404.792342 438.149471 
L 405.011895 483.119106 
L 405.670554 456.614235 
L 405.890107 511.125657 
L 406.10966 405.736847 
L 406.329214 405.702074 
L 406.548767 454.973238 
L 406.76832 384.197348 
L 406.987873 361.444822 
L 407.426979 482.875219 
L 407.646533 477.732893 
L 407.866086 403.952331 
L 408.085639 381.208901 
L 408.305192 422.930243 
L 408.524745 508.759858 
L 408.744298 427.332584 
L 408.963851 443.940294 
L 409.183405 494.157451 
L 409.402958 362.474422 
L 409.622511 450.755847 
L 410.061617 510.849852 
L 410.28117 515.216107 
L 410.500724 432.43758 
L 410.720277 456.415511 
L 410.93983 465.390665 
L 411.159383 456.313883 
L 411.378936 524.095173 
L 411.598489 410.114168 
L 411.818042 397.882343 
L 412.257149 438.789121 
L 412.476702 269.600695 
L 412.696255 430.177298 
L 412.915808 388.01985 
L 413.135361 467.2075 
L 413.354915 388.887075 
L 413.574468 453.732151 
L 413.794021 397.362109 
L 414.013574 388.595094 
L 414.233127 397.283685 
L 414.45268 373.307091 
L 414.672233 496.999679 
L 414.891787 433.44665 
L 415.11134 423.859973 
L 415.330893 489.967494 
L 415.769999 399.144844 
L 415.989552 459.752874 
L 416.209106 474.045545 
L 416.428659 429.343651 
L 416.648212 449.824644 
L 416.867765 495.320993 
L 417.087318 445.668903 
L 417.306871 472.066582 
L 417.526424 540.478155 
L 417.745978 389.95667 
L 417.965531 407.430715 
L 418.185084 354.002706 
L 418.404637 453.364153 
L 418.62419 454.752042 
L 419.063297 393.82245 
L 419.28285 542.023632 
L 419.502403 515.995873 
L 419.721956 450.517035 
L 419.941509 484.146104 
L 420.380615 419.696054 
L 420.600169 488.598122 
L 420.819722 521.822057 
L 421.039275 441.714353 
L 421.258828 432.110714 
L 421.478381 262.453789 
L 421.917488 511.705779 
L 422.137041 400.879749 
L 422.356594 346.637286 
L 422.7957 493.98695 
L 423.015253 349.653345 
L 423.234806 496.648653 
L 423.45436 458.804438 
L 423.673913 465.029444 
L 423.893466 416.61078 
L 424.113019 437.196041 
L 424.332572 437.896462 
L 424.552125 454.526431 
L 424.771678 452.738348 
L 424.991232 348.483749 
L 425.210785 440.618392 
L 425.430338 406.648101 
L 425.649891 283.576394 
L 425.869444 444.509015 
L 426.088997 468.517196 
L 426.308551 518.311678 
L 426.528104 493.318857 
L 426.747657 420.919491 
L 426.96721 480.047299 
L 427.406316 342.12624 
L 427.625869 520.800426 
L 427.845423 466.971297 
L 428.064976 363.18129 
L 428.284529 373.347019 
L 428.504082 463.934592 
L 428.723635 476.925561 
L 428.943188 480.798964 
L 429.162742 409.153475 
L 429.382295 451.314119 
L 429.821401 359.283809 
L 430.040954 428.711206 
L 430.260507 303.146204 
L 430.48006 411.239202 
L 430.699614 448.464375 
L 430.919167 444.189398 
L 431.13872 467.081805 
L 431.577826 358.338248 
L 431.797379 439.872626 
L 432.236486 389.176752 
L 432.456039 440.495202 
L 432.895145 471.820459 
L 433.114698 393.242833 
L 433.334251 424.09084 
L 433.553805 411.70244 
L 433.773358 320.090798 
L 433.992911 409.189257 
L 434.212464 346.638961 
L 434.432017 483.496852 
L 434.65157 391.756325 
L 434.871124 446.159363 
L 435.090677 535.391362 
L 435.31023 441.658618 
L 435.529783 575.302949 
L 435.968889 361.53404 
L 436.188442 463.212028 
L 436.407996 419.3244 
L 436.627549 450.061403 
L 436.847102 546.784762 
L 437.505761 416.6418 
L 437.725315 437.397692 
L 437.944868 535.642984 
L 438.164421 368.432503 
L 438.383974 467.251948 
L 438.603527 330.452222 
L 438.82308 374.891612 
L 439.042633 481.08589 
L 439.262187 491.096366 
L 439.48174 428.134512 
L 439.701293 424.968876 
L 439.920846 394.533746 
L 440.140399 324.255968 
L 440.359952 440.649918 
L 440.579506 434.448616 
L 440.799059 481.071642 
L 441.018612 266.612472 
L 441.238165 532.752292 
L 441.457718 528.647252 
L 441.677271 427.116561 
L 441.896824 414.399453 
L 442.116378 275.471927 
L 442.335931 321.713333 
L 442.555484 454.137419 
L 442.775037 387.25444 
L 442.99459 517.335217 
L 443.214143 460.920788 
L 443.433697 478.629962 
L 443.65325 459.617175 
L 443.872803 275.998438 
L 444.092356 288.737022 
L 444.311909 390.347511 
L 444.531462 357.161126 
L 444.751015 480.838093 
L 444.970569 497.268359 
L 445.190122 494.688234 
L 445.409675 496.887904 
L 445.629228 494.024834 
L 445.848781 400.029878 
L 446.068334 501.369645 
L 446.507441 363.655475 
L 446.726994 173.071293 
L 447.1661 472.98069 
L 447.385653 498.491497 
L 447.605206 438.661217 
L 447.82476 492.318522 
L 448.044313 410.395592 
L 448.263866 241.175119 
L 448.483419 396.529207 
L 448.702972 422.428056 
L 448.922525 378.217176 
L 449.142079 489.211399 
L 449.361632 518.708384 
L 449.800738 363.188037 
L 450.239844 419.601928 
L 450.459397 359.495323 
L 450.678951 414.581034 
L 451.118057 281.117658 
L 451.33761 367.101331 
L 451.557163 361.763396 
L 451.776716 324.149757 
L 451.996269 457.495979 
L 452.215823 406.410701 
L 452.435376 404.171048 
L 452.654929 332.993387 
L 452.874482 476.345936 
L 453.094035 365.369556 
L 453.313588 321.251301 
L 453.752695 463.147248 
L 454.191801 360.841947 
L 454.411354 442.597442 
L 454.630907 347.073115 
L 454.85046 374.459162 
L 455.289567 482.150464 
L 455.50912 385.892302 
L 455.728673 403.525238 
L 455.948226 384.584789 
L 456.167779 376.162267 
L 456.387333 426.362087 
L 456.606886 406.138743 
L 456.826439 402.293051 
L 457.045992 342.468428 
L 457.265545 442.376836 
L 457.704651 419.078671 
L 457.924205 455.176611 
L 458.143758 285.465057 
L 458.363311 425.402721 
L 458.582864 402.395818 
L 458.802417 490.079305 
L 459.02197 471.89005 
L 459.241524 477.247141 
L 459.461077 402.444614 
L 459.68063 412.476766 
L 459.900183 286.518269 
L 460.119736 524.29795 
L 460.339289 338.459847 
L 460.558842 462.416255 
L 460.778396 343.971407 
L 460.997949 444.101952 
L 461.217502 447.629692 
L 461.437055 361.516203 
L 461.656608 526.888288 
L 461.876161 424.649491 
L 462.095715 546.644477 
L 462.315268 521.771028 
L 462.534821 449.192419 
L 462.754374 424.149926 
L 462.973927 457.133201 
L 463.19348 432.780239 
L 463.413033 431.07634 
L 463.632587 467.476697 
L 463.85214 382.981186 
L 464.071693 513.741991 
L 464.510799 325.496395 
L 464.730352 470.382404 
L 464.949906 531.050202 
L 465.169459 211.742727 
L 465.389012 283.472587 
L 465.608565 413.357236 
L 465.828118 416.484894 
L 466.047671 400.165469 
L 466.267224 490.320848 
L 466.486778 486.696034 
L 466.706331 412.461119 
L 466.925884 426.090331 
L 467.145437 458.950352 
L 467.36499 443.234093 
L 467.584543 363.420501 
L 467.804097 374.143987 
L 468.02365 348.351287 
L 468.462756 491.026228 
L 468.682309 528.742029 
L 468.901862 462.999663 
L 469.121415 490.983942 
L 469.340969 480.382932 
L 469.560522 401.328498 
L 469.780075 414.4848 
L 469.999628 456.770258 
L 470.219181 285.757835 
L 470.438734 427.939419 
L 470.658288 435.314314 
L 470.877841 500.275638 
L 471.316947 517.746915 
L 471.5365 397.846783 
L 471.756053 473.829025 
L 471.975606 341.337875 
L 472.19516 431.205045 
L 472.414713 408.139505 
L 472.634266 505.30221 
L 472.853819 382.231776 
L 473.073372 379.969083 
L 473.512479 535.649046 
L 473.951585 410.531625 
L 474.171138 433.524096 
L 474.390691 427.634336 
L 474.610244 474.689846 
L 474.829797 353.466988 
L 475.049351 442.152719 
L 475.268904 479.337805 
L 475.488457 467.815941 
L 475.70801 476.375367 
L 475.927563 449.581149 
L 476.147116 442.737013 
L 476.366669 408.543341 
L 476.805776 480.337823 
L 477.025329 521.798495 
L 477.244882 433.02339 
L 477.464435 416.58746 
L 477.683988 434.998258 
L 477.903542 364.662084 
L 478.123095 532.91854 
L 478.342648 523.575117 
L 478.781754 428.660219 
L 479.001307 393.00132 
L 479.22086 511.107073 
L 479.440414 471.934995 
L 479.659967 469.782101 
L 479.87952 410.649572 
L 480.099073 433.585567 
L 480.318626 374.692506 
L 480.538179 431.840321 
L 480.757733 395.778958 
L 480.977286 485.584892 
L 481.196839 473.851504 
L 481.416392 488.56118 
L 481.635945 446.599754 
L 481.855498 452.516339 
L 482.075051 368.054758 
L 482.294605 346.806244 
L 482.514158 382.617613 
L 482.733711 454.873479 
L 482.953264 423.482441 
L 483.172817 281.675219 
L 483.39237 421.063493 
L 483.611924 370.092814 
L 483.831477 395.552874 
L 484.05103 457.987034 
L 484.270583 481.852286 
L 484.490136 468.677387 
L 484.709689 447.660461 
L 484.929242 324.274216 
L 485.148796 470.830332 
L 485.368349 393.448991 
L 485.587902 505.135152 
L 485.807455 406.206733 
L 486.027008 448.545503 
L 486.246561 391.649962 
L 486.466115 487.710586 
L 486.905221 362.136567 
L 487.124774 497.475868 
L 487.344327 397.07845 
L 487.56388 466.310263 
L 487.783433 439.833567 
L 488.002987 394.26034 
L 488.22254 466.959358 
L 488.442093 488.697776 
L 488.661646 448.005072 
L 488.881199 338.396904 
L 489.320306 403.597008 
L 489.539859 484.13035 
L 489.759412 426.224481 
L 489.978965 427.741109 
L 490.418071 462.819838 
L 490.637624 480.578542 
L 491.076731 431.668257 
L 491.296284 488.111399 
L 491.515837 486.909893 
L 491.73539 344.326461 
L 491.954943 388.456747 
L 492.174497 513.671747 
L 492.39405 513.514042 
L 492.613603 492.363267 
L 492.833156 446.780147 
L 493.052709 503.984077 
L 493.272262 466.549068 
L 493.491815 332.027785 
L 493.711369 424.86083 
L 494.150475 370.7989 
L 494.370028 480.717909 
L 494.589581 448.517799 
L 494.809134 455.671934 
L 495.028688 401.136368 
L 495.248241 445.032288 
L 495.467794 313.616349 
L 495.9069 521.344066 
L 496.346006 506.102347 
L 496.785113 472.957775 
L 497.004666 403.654809 
L 497.224219 543.775645 
L 497.663325 345.885789 
L 497.882879 397.93625 
L 498.102432 416.106242 
L 498.321985 457.354784 
L 498.541538 521.434476 
L 498.761091 500.186721 
L 498.980644 462.190217 
L 499.200197 391.077105 
L 499.419751 381.726146 
L 499.639304 356.650556 
L 499.858857 388.35298 
L 500.07841 332.476331 
L 500.297963 549.023749 
L 500.517516 398.183396 
L 500.73707 459.509664 
L 500.956623 394.514674 
L 501.176176 429.831884 
L 501.395729 364.952956 
L 501.615282 480.733196 
L 501.834835 436.331574 
L 502.054388 417.136673 
L 502.273942 492.126375 
L 502.493495 381.30469 
L 502.713048 355.541041 
L 502.932601 478.160772 
L 503.152154 434.303969 
L 503.371707 509.819011 
L 503.59126 411.955113 
L 503.810814 407.578255 
L 504.030367 406.293199 
L 504.24992 388.433723 
L 504.469473 354.990083 
L 504.689026 380.665483 
L 504.908579 321.936375 
L 505.128133 455.894934 
L 505.347686 441.785102 
L 505.567239 497.331629 
L 505.786792 452.117704 
L 506.006345 371.420052 
L 506.225898 363.631924 
L 506.445451 423.357292 
L 506.665005 371.615377 
L 506.884558 484.719513 
L 507.104111 527.998134 
L 507.323664 420.499618 
L 507.543217 501.531176 
L 507.76277 469.572504 
L 507.982324 472.004685 
L 508.201877 457.91598 
L 508.42143 417.422389 
L 508.640983 419.20487 
L 508.860536 489.340189 
L 509.080089 517.482036 
L 509.519196 374.690486 
L 509.738749 444.021793 
L 509.958302 463.66284 
L 510.177855 458.989065 
L 510.397408 527.508702 
L 510.616961 430.782575 
L 510.836515 399.596541 
L 511.056068 471.081594 
L 511.275621 463.916295 
L 511.495174 443.941222 
L 511.714727 471.523426 
L 511.93428 225.13867 
L 512.153833 545.988618 
L 512.373387 378.909125 
L 512.59294 493.026708 
L 512.812493 402.164993 
L 513.032046 405.027879 
L 513.251599 282.332037 
L 513.471152 443.616689 
L 513.690706 443.970062 
L 513.910259 382.338906 
L 514.129812 479.129233 
L 514.349365 459.10829 
L 514.568918 428.86656 
L 514.788471 526.433462 
L 515.008024 444.859236 
L 515.227578 259.860958 
L 515.447131 425.574263 
L 515.886237 518.610004 
L 516.10579 340.14593 
L 516.325343 368.933197 
L 516.76445 541.337944 
L 516.984003 569.145195 
L 517.203556 410.364034 
L 517.423109 422.680469 
L 517.642662 378.74199 
L 517.862215 284.317456 
L 518.301322 447.910416 
L 518.520875 445.691968 
L 518.740428 309.02217 
L 518.959981 486.1653 
L 519.179534 345.935529 
L 519.399088 508.65199 
L 519.618641 316.029216 
L 519.838194 378.441112 
L 520.057747 513.96878 
L 520.2773 325.835877 
L 520.496853 524.003746 
L 520.93596 480.515727 
L 521.155513 498.337045 
L 521.375066 468.641619 
L 521.594619 367.293544 
L 521.814172 365.181146 
L 522.033725 439.655268 
L 522.253279 467.957805 
L 522.472832 446.862613 
L 522.911938 458.874466 
L 523.131491 339.551252 
L 523.351044 477.873012 
L 523.570597 480.72883 
L 523.790151 397.201542 
L 524.009704 438.779264 
L 524.229257 451.809241 
L 524.44881 380.92692 
L 524.668363 464.166335 
L 524.887916 394.408625 
L 525.10747 461.189891 
L 525.327023 457.778872 
L 525.546576 382.13284 
L 525.766129 393.947901 
L 525.985682 390.69043 
L 526.205235 406.414337 
L 526.424788 460.067584 
L 526.644342 400.816458 
L 526.863895 416.179947 
L 527.083448 396.828096 
L 527.303001 332.226148 
L 527.522554 447.807179 
L 527.742107 500.317143 
L 527.96166 510.566816 
L 528.181214 495.650823 
L 528.400767 307.799056 
L 528.62032 397.114668 
L 528.839873 383.294985 
L 529.278979 525.34927 
L 529.498533 430.449884 
L 529.718086 476.374896 
L 529.937639 497.437564 
L 530.157192 403.981066 
L 530.376745 486.600784 
L 530.596298 442.069238 
L 530.815851 131.956182 
L 531.035405 497.408981 
L 531.254958 480.535903 
L 531.474511 398.813616 
L 531.694064 420.691549 
L 531.913617 409.391535 
L 532.13317 383.954116 
L 532.352724 342.522805 
L 532.572277 434.114543 
L 532.79183 426.808514 
L 533.230936 331.978454 
L 533.670042 479.046829 
L 533.889596 316.664538 
L 534.109149 460.869085 
L 534.328702 389.040252 
L 534.548255 423.238325 
L 534.767808 261.348093 
L 535.206915 500.611349 
L 535.426468 455.08267 
L 535.646021 436.134771 
L 535.865574 464.527136 
L 536.085127 396.21784 
L 536.30468 406.500337 
L 536.524233 473.031307 
L 536.743787 424.552099 
L 536.96334 434.787823 
L 537.182893 407.398548 
L 537.402446 439.971657 
L 537.621999 403.369357 
L 537.841552 412.033509 
L 538.061106 492.25941 
L 538.280659 444.972477 
L 538.500212 462.340034 
L 538.719765 423.709908 
L 538.939318 494.347919 
L 539.158871 451.936466 
L 539.378424 446.397987 
L 539.597978 342.493874 
L 540.037084 495.409967 
L 540.256637 478.189724 
L 540.47619 406.170985 
L 540.695743 466.50189 
L 541.13485 396.591923 
L 541.354403 265.484516 
L 541.793509 462.746135 
L 542.013062 470.193375 
L 542.232615 468.44462 
L 542.452169 480.801526 
L 542.671722 478.274274 
L 542.891275 511.039568 
L 543.110828 413.676291 
L 543.330381 392.807667 
L 543.549934 461.277063 
L 543.989041 388.157795 
L 544.208594 425.088276 
L 544.428147 492.905281 
L 544.6477 375.056614 
L 544.867253 481.116026 
L 545.086806 409.713492 
L 545.525913 497.290225 
L 545.745466 483.20344 
L 545.745466 483.20344 
" style="fill:none;stroke:#96c69a;stroke-linecap:round;stroke-width:3;"/>
   </g>
   <g id="line2d_2"/>
   <g id="patch_3">
    <path d="M 84.914375 603.86 
L 84.914375 109.484571 
" style="fill:none;stroke:#262626;stroke-linecap:square;stroke-linejoin:miter;stroke-width:2.5;"/>
   </g>
   <g id="patch_4">
    <path d="M 84.914375 603.86 
L 567.689804 603.86 
" style="fill:none;stroke:#262626;stroke-linecap:square;stroke-linejoin:miter;stroke-width:2.5;"/>
   </g>
   <g id="legend_1">
    <g id="patch_5">
     <path d="M 507.816366 598.86 
L 560.689804 598.86 
Q 562.689804 598.86 562.689804 596.86 
L 562.689804 554.954375 
Q 562.689804 552.954375 560.689804 552.954375 
L 507.816366 552.954375 
Q 505.816366 552.954375 505.816366 554.954375 
L 505.816366 596.86 
Q 505.816366 598.86 507.816366 598.86 
z
" style="fill:#ffffff;opacity:0.8;stroke:#cccccc;stroke-linejoin:miter;stroke-width:2;"/>
    </g>
    <g id="text_16">
     <!-- $n_\tau$ -->
     <g style="fill:#262626;" transform="translate(521.173085 575.190625)scale(0.24 -0.24)">
      <defs>
       <path d="M 3566 2113 
L 3156 0 
L 2578 0 
L 2988 2091 
Q 3016 2238 3031 2350 
Q 3047 2463 3047 2528 
Q 3047 2791 2881 2937 
Q 2716 3084 2419 3084 
Q 1956 3084 1622 2776 
Q 1288 2469 1184 1941 
L 800 0 
L 225 0 
L 903 3500 
L 1478 3500 
L 1363 2950 
Q 1603 3253 1940 3418 
Q 2278 3584 2650 3584 
Q 3113 3584 3367 3334 
Q 3622 3084 3622 2631 
Q 3622 2519 3608 2391 
Q 3594 2263 3566 2113 
z
" id="DejaVuSans-Oblique-6e" transform="scale(0.015625)"/>
       <path d="M 2103 638 
Q 2188 488 2525 488 
L 2800 488 
L 2706 0 
L 2363 0 
Q 1800 0 1600 300 
Q 1403 606 1534 1269 
L 1856 2925 
L 541 2925 
L 653 3500 
L 3881 3500 
L 3769 2925 
L 2444 2925 
L 2113 1234 
Q 2025 781 2103 638 
z
" id="DejaVuSans-Oblique-3c4" transform="scale(0.015625)"/>
      </defs>
      <use xlink:href="#DejaVuSans-Oblique-6e"/>
      <use transform="translate(63.378906 -16.40625)scale(0.7)" xlink:href="#DejaVuSans-Oblique-3c4"/>
     </g>
    </g>
    <g id="line2d_3">
     <path d="M 509.816366 589.280313 
L 529.816366 589.280313 
" style="fill:none;stroke:#96c69a;stroke-linecap:round;stroke-width:3;"/>
    </g>
    <g id="line2d_4"/>
    <g id="text_17">
     <!-- 100 -->
     <g style="fill:#262626;" transform="translate(537.816366 592.780313)scale(0.1 -0.1)">
      <defs>
       <path d="M 750 831 
L 1813 831 
L 1813 3847 
L 722 3622 
L 722 4441 
L 1806 4666 
L 2950 4666 
L 2950 831 
L 4013 831 
L 4013 0 
L 750 0 
L 750 831 
z
" id="DejaVuSans-Bold-31" transform="scale(0.015625)"/>
       <path d="M 2944 2338 
Q 2944 3213 2780 3570 
Q 2616 3928 2228 3928 
Q 1841 3928 1675 3570 
Q 1509 3213 1509 2338 
Q 1509 1453 1675 1090 
Q 1841 728 2228 728 
Q 2613 728 2778 1090 
Q 2944 1453 2944 2338 
z
M 4147 2328 
Q 4147 1169 3647 539 
Q 3147 -91 2228 -91 
Q 1306 -91 806 539 
Q 306 1169 306 2328 
Q 306 3491 806 4120 
Q 1306 4750 2228 4750 
Q 3147 4750 3647 4120 
Q 4147 3491 4147 2328 
z
" id="DejaVuSans-Bold-30" transform="scale(0.015625)"/>
      </defs>
      <use xlink:href="#DejaVuSans-Bold-31"/>
      <use x="69.580078" xlink:href="#DejaVuSans-Bold-30"/>
      <use x="139.160156" xlink:href="#DejaVuSans-Bold-30"/>
     </g>
    </g>
   </g>
  </g>
  <g id="axes_2">
   <g id="patch_6">
    <path d="M 84.914375 92.437143 
L 567.689804 92.437143 
L 567.689804 7.2 
L 84.914375 7.2 
z
" style="fill:none;"/>
   </g>
   <g id="matplotlib.axis_3">
    <g id="xtick_7"/>
    <g id="xtick_8"/>
    <g id="xtick_9"/>
    <g id="xtick_10"/>
    <g id="xtick_11"/>
    <g id="xtick_12"/>
   </g>
   <g id="matplotlib.axis_4">
    <g id="ytick_8">
     <g id="text_18">
      <!-- 0 -->
      <g style="fill:#262626;" transform="translate(55.416875 100.795424)scale(0.22 -0.22)">
       <use xlink:href="#DejaVuSans-30"/>
      </g>
     </g>
    </g>
    <g id="ytick_9">
     <g id="text_19">
      <!-- 100 -->
      <g style="fill:#262626;" transform="translate(27.421875 48.082287)scale(0.22 -0.22)">
       <use xlink:href="#DejaVuSans-31"/>
       <use x="63.623047" xlink:href="#DejaVuSans-30"/>
       <use x="127.246094" xlink:href="#DejaVuSans-30"/>
      </g>
     </g>
    </g>
   </g>
   <g id="patch_7">
    <path clip-path="url(#pc5bc367768)" d="M 106.858713 92.437143 
L 140.619232 92.437143 
L 140.619232 11.258912 
L 106.858713 11.258912 
z
" style="fill:#96c69a;fill-opacity:0.5;stroke:#ffffff;stroke-linejoin:miter;stroke-width:2;"/>
   </g>
   <g id="patch_8">
    <path clip-path="url(#pc5bc367768)" d="M 140.619232 92.437143 
L 174.379752 92.437143 
L 174.379752 11.258912 
L 140.619232 11.258912 
z
" style="fill:#96c69a;fill-opacity:0.5;stroke:#ffffff;stroke-linejoin:miter;stroke-width:2;"/>
   </g>
   <g id="patch_9">
    <path clip-path="url(#pc5bc367768)" d="M 174.379752 92.437143 
L 208.140271 92.437143 
L 208.140271 11.258912 
L 174.379752 11.258912 
z
" style="fill:#96c69a;fill-opacity:0.5;stroke:#ffffff;stroke-linejoin:miter;stroke-width:2;"/>
   </g>
   <g id="patch_10">
    <path clip-path="url(#pc5bc367768)" d="M 208.140271 92.437143 
L 241.900791 92.437143 
L 241.900791 11.258912 
L 208.140271 11.258912 
z
" style="fill:#96c69a;fill-opacity:0.5;stroke:#ffffff;stroke-linejoin:miter;stroke-width:2;"/>
   </g>
   <g id="patch_11">
    <path clip-path="url(#pc5bc367768)" d="M 241.900791 92.437143 
L 275.66131 92.437143 
L 275.66131 11.786043 
L 241.900791 11.786043 
z
" style="fill:#96c69a;fill-opacity:0.5;stroke:#ffffff;stroke-linejoin:miter;stroke-width:2;"/>
   </g>
   <g id="patch_12">
    <path clip-path="url(#pc5bc367768)" d="M 275.66131 92.437143 
L 309.42183 92.437143 
L 309.42183 11.258912 
L 275.66131 11.258912 
z
" style="fill:#96c69a;fill-opacity:0.5;stroke:#ffffff;stroke-linejoin:miter;stroke-width:2;"/>
   </g>
   <g id="patch_13">
    <path clip-path="url(#pc5bc367768)" d="M 309.42183 92.437143 
L 343.182349 92.437143 
L 343.182349 11.258912 
L 309.42183 11.258912 
z
" style="fill:#96c69a;fill-opacity:0.5;stroke:#ffffff;stroke-linejoin:miter;stroke-width:2;"/>
   </g>
   <g id="patch_14">
    <path clip-path="url(#pc5bc367768)" d="M 343.182349 92.437143 
L 376.942869 92.437143 
L 376.942869 11.258912 
L 343.182349 11.258912 
z
" style="fill:#96c69a;fill-opacity:0.5;stroke:#ffffff;stroke-linejoin:miter;stroke-width:2;"/>
   </g>
   <g id="patch_15">
    <path clip-path="url(#pc5bc367768)" d="M 376.942869 92.437143 
L 410.703388 92.437143 
L 410.703388 11.786043 
L 376.942869 11.786043 
z
" style="fill:#96c69a;fill-opacity:0.5;stroke:#ffffff;stroke-linejoin:miter;stroke-width:2;"/>
   </g>
   <g id="patch_16">
    <path clip-path="url(#pc5bc367768)" d="M 410.703388 92.437143 
L 444.463907 92.437143 
L 444.463907 11.258912 
L 410.703388 11.258912 
z
" style="fill:#96c69a;fill-opacity:0.5;stroke:#ffffff;stroke-linejoin:miter;stroke-width:2;"/>
   </g>
   <g id="patch_17">
    <path clip-path="url(#pc5bc367768)" d="M 444.463907 92.437143 
L 478.224427 92.437143 
L 478.224427 11.258912 
L 444.463907 11.258912 
z
" style="fill:#96c69a;fill-opacity:0.5;stroke:#ffffff;stroke-linejoin:miter;stroke-width:2;"/>
   </g>
   <g id="patch_18">
    <path clip-path="url(#pc5bc367768)" d="M 478.224427 92.437143 
L 511.984946 92.437143 
L 511.984946 11.258912 
L 478.224427 11.258912 
z
" style="fill:#96c69a;fill-opacity:0.5;stroke:#ffffff;stroke-linejoin:miter;stroke-width:2;"/>
   </g>
   <g id="patch_19">
    <path clip-path="url(#pc5bc367768)" d="M 511.984946 92.437143 
L 545.745466 92.437143 
L 545.745466 11.258912 
L 511.984946 11.258912 
z
" style="fill:#96c69a;fill-opacity:0.5;stroke:#ffffff;stroke-linejoin:miter;stroke-width:2;"/>
   </g>
   <g id="patch_20">
    <path d="M 84.914375 92.437143 
L 84.914375 7.2 
" style="fill:none;stroke:#262626;stroke-linecap:square;stroke-linejoin:miter;stroke-width:2.5;"/>
   </g>
   <g id="patch_21">
    <path d="M 84.914375 92.437143 
L 567.689804 92.437143 
" style="fill:none;stroke:#262626;stroke-linecap:square;stroke-linejoin:miter;stroke-width:2.5;"/>
   </g>
  </g>
  <g id="axes_3">
   <g id="patch_22">
    <path d="M 584.337232 603.86 
L 667.574375 603.86 
L 667.574375 109.484571 
L 584.337232 109.484571 
z
" style="fill:none;"/>
   </g>
   <g id="matplotlib.axis_5">
    <g id="xtick_13">
     <g id="text_20">
      <!-- 0 -->
      <g style="fill:#262626;" transform="translate(577.338482 636.076563)scale(0.22 -0.22)">
       <use xlink:href="#DejaVuSans-30"/>
      </g>
     </g>
    </g>
    <g id="xtick_14">
     <g id="text_21">
      <!-- 200 -->
      <g style="fill:#262626;" transform="translate(645.489655 636.076563)scale(0.22 -0.22)">
       <use xlink:href="#DejaVuSans-32"/>
       <use x="63.623047" xlink:href="#DejaVuSans-30"/>
       <use x="127.246094" xlink:href="#DejaVuSans-30"/>
      </g>
     </g>
    </g>
   </g>
   <g id="matplotlib.axis_6">
    <g id="ytick_10"/>
    <g id="ytick_11"/>
    <g id="ytick_12"/>
    <g id="ytick_13"/>
    <g id="ytick_14"/>
    <g id="ytick_15"/>
    <g id="ytick_16"/>
   </g>
   <g id="patch_23">
    <path clip-path="url(#pe359080b61)" d="M 584.337232 581.38839 
L 585.569462 581.38839 
L 585.569462 568.904162 
L 584.337232 568.904162 
z
" style="fill:#96c69a;fill-opacity:0.5;stroke:#ffffff;stroke-linejoin:miter;stroke-width:1.248423;"/>
   </g>
   <g id="patch_24">
    <path clip-path="url(#pe359080b61)" d="M 584.337232 568.904162 
L 585.980206 568.904162 
L 585.980206 556.419934 
L 584.337232 556.419934 
z
" style="fill:#96c69a;fill-opacity:0.5;stroke:#ffffff;stroke-linejoin:miter;stroke-width:1.248423;"/>
   </g>
   <g id="patch_25">
    <path clip-path="url(#pe359080b61)" d="M 584.337232 556.419934 
L 588.033922 556.419934 
L 588.033922 543.935706 
L 584.337232 543.935706 
z
" style="fill:#96c69a;fill-opacity:0.5;stroke:#ffffff;stroke-linejoin:miter;stroke-width:1.248423;"/>
   </g>
   <g id="patch_26">
    <path clip-path="url(#pe359080b61)" d="M 584.337232 543.935706 
L 595.01656 543.935706 
L 595.01656 531.451478 
L 584.337232 531.451478 
z
" style="fill:#96c69a;fill-opacity:0.5;stroke:#ffffff;stroke-linejoin:miter;stroke-width:1.248423;"/>
   </g>
   <g id="patch_27">
    <path clip-path="url(#pe359080b61)" d="M 584.337232 531.451478 
L 602.40994 531.451478 
L 602.40994 518.96725 
L 584.337232 518.96725 
z
" style="fill:#96c69a;fill-opacity:0.5;stroke:#ffffff;stroke-linejoin:miter;stroke-width:1.248423;"/>
   </g>
   <g id="patch_28">
    <path clip-path="url(#pe359080b61)" d="M 584.337232 518.96725 
L 613.910754 518.96725 
L 613.910754 506.483022 
L 584.337232 506.483022 
z
" style="fill:#96c69a;fill-opacity:0.5;stroke:#ffffff;stroke-linejoin:miter;stroke-width:1.248423;"/>
   </g>
   <g id="patch_29">
    <path clip-path="url(#pe359080b61)" d="M 584.337232 506.483022 
L 625.822312 506.483022 
L 625.822312 493.998794 
L 584.337232 493.998794 
z
" style="fill:#96c69a;fill-opacity:0.5;stroke:#ffffff;stroke-linejoin:miter;stroke-width:1.248423;"/>
   </g>
   <g id="patch_30">
    <path clip-path="url(#pe359080b61)" d="M 584.337232 493.998794 
L 637.73387 493.998794 
L 637.73387 481.514566 
L 584.337232 481.514566 
z
" style="fill:#96c69a;fill-opacity:0.5;stroke:#ffffff;stroke-linejoin:miter;stroke-width:1.248423;"/>
   </g>
   <g id="patch_31">
    <path clip-path="url(#pe359080b61)" d="M 584.337232 481.514566 
L 650.05617 481.514566 
L 650.05617 469.030338 
L 584.337232 469.030338 
z
" style="fill:#96c69a;fill-opacity:0.5;stroke:#ffffff;stroke-linejoin:miter;stroke-width:1.248423;"/>
   </g>
   <g id="patch_32">
    <path clip-path="url(#pe359080b61)" d="M 584.337232 469.030338 
L 663.610702 469.030338 
L 663.610702 456.54611 
L 584.337232 456.54611 
z
" style="fill:#96c69a;fill-opacity:0.5;stroke:#ffffff;stroke-linejoin:miter;stroke-width:1.248423;"/>
   </g>
   <g id="patch_33">
    <path clip-path="url(#pe359080b61)" d="M 584.337232 456.54611 
L 653.752861 456.54611 
L 653.752861 444.061882 
L 584.337232 444.061882 
z
" style="fill:#96c69a;fill-opacity:0.5;stroke:#ffffff;stroke-linejoin:miter;stroke-width:1.248423;"/>
   </g>
   <g id="patch_34">
    <path clip-path="url(#pe359080b61)" d="M 584.337232 444.061882 
L 658.681781 444.061882 
L 658.681781 431.577654 
L 584.337232 431.577654 
z
" style="fill:#96c69a;fill-opacity:0.5;stroke:#ffffff;stroke-linejoin:miter;stroke-width:1.248423;"/>
   </g>
   <g id="patch_35">
    <path clip-path="url(#pe359080b61)" d="M 584.337232 431.577654 
L 645.12725 431.577654 
L 645.12725 419.093426 
L 584.337232 419.093426 
z
" style="fill:#96c69a;fill-opacity:0.5;stroke:#ffffff;stroke-linejoin:miter;stroke-width:1.248423;"/>
   </g>
   <g id="patch_36">
    <path clip-path="url(#pe359080b61)" d="M 584.337232 419.093426 
L 636.090896 419.093426 
L 636.090896 406.609198 
L 584.337232 406.609198 
z
" style="fill:#96c69a;fill-opacity:0.5;stroke:#ffffff;stroke-linejoin:miter;stroke-width:1.248423;"/>
   </g>
   <g id="patch_37">
    <path clip-path="url(#pe359080b61)" d="M 584.337232 406.609198 
L 640.19833 406.609198 
L 640.19833 394.12497 
L 584.337232 394.12497 
z
" style="fill:#96c69a;fill-opacity:0.5;stroke:#ffffff;stroke-linejoin:miter;stroke-width:1.248423;"/>
   </g>
   <g id="patch_38">
    <path clip-path="url(#pe359080b61)" d="M 584.337232 394.12497 
L 629.519002 394.12497 
L 629.519002 381.640742 
L 584.337232 381.640742 
z
" style="fill:#96c69a;fill-opacity:0.5;stroke:#ffffff;stroke-linejoin:miter;stroke-width:1.248423;"/>
   </g>
   <g id="patch_39">
    <path clip-path="url(#pe359080b61)" d="M 584.337232 381.640742 
L 616.375215 381.640742 
L 616.375215 369.156514 
L 584.337232 369.156514 
z
" style="fill:#96c69a;fill-opacity:0.5;stroke:#ffffff;stroke-linejoin:miter;stroke-width:1.248423;"/>
   </g>
   <g id="patch_40">
    <path clip-path="url(#pe359080b61)" d="M 584.337232 369.156514 
L 620.071905 369.156514 
L 620.071905 356.672286 
L 584.337232 356.672286 
z
" style="fill:#96c69a;fill-opacity:0.5;stroke:#ffffff;stroke-linejoin:miter;stroke-width:1.248423;"/>
   </g>
   <g id="patch_41">
    <path clip-path="url(#pe359080b61)" d="M 584.337232 356.672286 
L 603.64217 356.672286 
L 603.64217 344.188058 
L 584.337232 344.188058 
z
" style="fill:#96c69a;fill-opacity:0.5;stroke:#ffffff;stroke-linejoin:miter;stroke-width:1.248423;"/>
   </g>
   <g id="patch_42">
    <path clip-path="url(#pe359080b61)" d="M 584.337232 344.188058 
L 605.285144 344.188058 
L 605.285144 331.70383 
L 584.337232 331.70383 
z
" style="fill:#96c69a;fill-opacity:0.5;stroke:#ffffff;stroke-linejoin:miter;stroke-width:1.248423;"/>
   </g>
   <g id="patch_43">
    <path clip-path="url(#pe359080b61)" d="M 584.337232 331.70383 
L 599.534737 331.70383 
L 599.534737 319.219602 
L 584.337232 319.219602 
z
" style="fill:#96c69a;fill-opacity:0.5;stroke:#ffffff;stroke-linejoin:miter;stroke-width:1.248423;"/>
   </g>
   <g id="patch_44">
    <path clip-path="url(#pe359080b61)" d="M 584.337232 319.219602 
L 592.141356 319.219602 
L 592.141356 306.735374 
L 584.337232 306.735374 
z
" style="fill:#96c69a;fill-opacity:0.5;stroke:#ffffff;stroke-linejoin:miter;stroke-width:1.248423;"/>
   </g>
   <g id="patch_45">
    <path clip-path="url(#pe359080b61)" d="M 584.337232 306.735374 
L 590.087639 306.735374 
L 590.087639 294.251146 
L 584.337232 294.251146 
z
" style="fill:#96c69a;fill-opacity:0.5;stroke:#ffffff;stroke-linejoin:miter;stroke-width:1.248423;"/>
   </g>
   <g id="patch_46">
    <path clip-path="url(#pe359080b61)" d="M 584.337232 294.251146 
L 592.141356 294.251146 
L 592.141356 281.766918 
L 584.337232 281.766918 
z
" style="fill:#96c69a;fill-opacity:0.5;stroke:#ffffff;stroke-linejoin:miter;stroke-width:1.248423;"/>
   </g>
   <g id="patch_47">
    <path clip-path="url(#pe359080b61)" d="M 584.337232 281.766918 
L 588.444666 281.766918 
L 588.444666 269.28269 
L 584.337232 269.28269 
z
" style="fill:#96c69a;fill-opacity:0.5;stroke:#ffffff;stroke-linejoin:miter;stroke-width:1.248423;"/>
   </g>
   <g id="patch_48">
    <path clip-path="url(#pe359080b61)" d="M 584.337232 269.28269 
L 588.444666 269.28269 
L 588.444666 256.798462 
L 584.337232 256.798462 
z
" style="fill:#96c69a;fill-opacity:0.5;stroke:#ffffff;stroke-linejoin:miter;stroke-width:1.248423;"/>
   </g>
   <g id="patch_49">
    <path clip-path="url(#pe359080b61)" d="M 584.337232 256.798462 
L 584.747976 256.798462 
L 584.747976 244.314234 
L 584.337232 244.314234 
z
" style="fill:#96c69a;fill-opacity:0.5;stroke:#ffffff;stroke-linejoin:miter;stroke-width:1.248423;"/>
   </g>
   <g id="patch_50">
    <path clip-path="url(#pe359080b61)" d="M 584.337232 244.314234 
L 586.390949 244.314234 
L 586.390949 231.830006 
L 584.337232 231.830006 
z
" style="fill:#96c69a;fill-opacity:0.5;stroke:#ffffff;stroke-linejoin:miter;stroke-width:1.248423;"/>
   </g>
   <g id="patch_51">
    <path clip-path="url(#pe359080b61)" d="M 584.337232 231.830006 
L 585.980206 231.830006 
L 585.980206 219.345778 
L 584.337232 219.345778 
z
" style="fill:#96c69a;fill-opacity:0.5;stroke:#ffffff;stroke-linejoin:miter;stroke-width:1.248423;"/>
   </g>
   <g id="patch_52">
    <path clip-path="url(#pe359080b61)" d="M 584.337232 219.345778 
L 585.158719 219.345778 
L 585.158719 206.86155 
L 584.337232 206.86155 
z
" style="fill:#96c69a;fill-opacity:0.5;stroke:#ffffff;stroke-linejoin:miter;stroke-width:1.248423;"/>
   </g>
   <g id="patch_53">
    <path clip-path="url(#pe359080b61)" d="M 584.337232 206.86155 
L 584.337232 206.86155 
L 584.337232 194.377322 
L 584.337232 194.377322 
z
" style="fill:#96c69a;fill-opacity:0.5;stroke:#ffffff;stroke-linejoin:miter;stroke-width:1.248423;"/>
   </g>
   <g id="patch_54">
    <path clip-path="url(#pe359080b61)" d="M 584.337232 194.377322 
L 584.337232 194.377322 
L 584.337232 181.893094 
L 584.337232 181.893094 
z
" style="fill:#96c69a;fill-opacity:0.5;stroke:#ffffff;stroke-linejoin:miter;stroke-width:1.248423;"/>
   </g>
   <g id="patch_55">
    <path clip-path="url(#pe359080b61)" d="M 584.337232 181.893094 
L 585.569462 181.893094 
L 585.569462 169.408866 
L 584.337232 169.408866 
z
" style="fill:#96c69a;fill-opacity:0.5;stroke:#ffffff;stroke-linejoin:miter;stroke-width:1.248423;"/>
   </g>
   <g id="patch_56">
    <path clip-path="url(#pe359080b61)" d="M 584.337232 169.408866 
L 584.337232 169.408866 
L 584.337232 156.924638 
L 584.337232 156.924638 
z
" style="fill:#96c69a;fill-opacity:0.5;stroke:#ffffff;stroke-linejoin:miter;stroke-width:1.248423;"/>
   </g>
   <g id="patch_57">
    <path clip-path="url(#pe359080b61)" d="M 584.337232 156.924638 
L 584.337232 156.924638 
L 584.337232 144.44041 
L 584.337232 144.44041 
z
" style="fill:#96c69a;fill-opacity:0.5;stroke:#ffffff;stroke-linejoin:miter;stroke-width:1.248423;"/>
   </g>
   <g id="patch_58">
    <path clip-path="url(#pe359080b61)" d="M 584.337232 144.44041 
L 584.747976 144.44041 
L 584.747976 131.956182 
L 584.337232 131.956182 
z
" style="fill:#96c69a;fill-opacity:0.5;stroke:#ffffff;stroke-linejoin:miter;stroke-width:1.248423;"/>
   </g>
   <g id="patch_59">
    <path d="M 584.337232 603.86 
L 584.337232 109.484571 
" style="fill:none;stroke:#262626;stroke-linecap:square;stroke-linejoin:miter;stroke-width:2.5;"/>
   </g>
   <g id="patch_60">
    <path d="M 584.337232 603.86 
L 667.574375 603.86 
" style="fill:none;stroke:#262626;stroke-linecap:square;stroke-linejoin:miter;stroke-width:2.5;"/>
   </g>
  </g>
 </g>
 <defs>
  <clipPath id="p8a8086156f">
   <rect height="494.375429" width="482.775429" x="84.914375" y="109.484571"/>
  </clipPath>
  <clipPath id="pc5bc367768">
   <rect height="85.237143" width="482.775429" x="84.914375" y="7.2"/>
  </clipPath>
  <clipPath id="pe359080b61">
   <rect height="494.375429" width="83.237143" x="584.337232" y="109.484571"/>
  </clipPath>
 </defs>
</svg>
