<?xml version="1.0" encoding="utf-8" standalone="no"?>
<!DOCTYPE svg PUBLIC "-//W3C//DTD SVG 1.1//EN"
  "http://www.w3.org/Graphics/SVG/1.1/DTD/svg11.dtd">
<svg height="675.079375pt" version="1.1" viewBox="0 0 674.774375 675.079375" width="674.774375pt" xmlns="http://www.w3.org/2000/svg" xmlns:xlink="http://www.w3.org/1999/xlink">
 <metadata>
  <rdf:RDF xmlns:cc="http://creativecommons.org/ns#" xmlns:dc="http://purl.org/dc/elements/1.1/" xmlns:rdf="http://www.w3.org/1999/02/22-rdf-syntax-ns#">
   <cc:Work>
    <dc:type rdf:resource="http://purl.org/dc/dcmitype/StillImage"/>
    <dc:date>2021-07-16T21:44:01.552585</dc:date>
    <dc:format>image/svg+xml</dc:format>
    <dc:creator>
     <cc:Agent>
      <dc:title>Matplotlib v3.4.2, https://matplotlib.org/</dc:title>
     </cc:Agent>
    </dc:creator>
   </cc:Work>
  </rdf:RDF>
 </metadata>
 <defs>
  <style type="text/css">*{stroke-linecap:butt;stroke-linejoin:round;}</style>
 </defs>
 <g id="figure_1">
  <g id="patch_1">
   <path d="M 0 675.079375 
L 674.774375 675.079375 
L 674.774375 0 
L 0 0 
z
" style="fill:#ffffff;"/>
  </g>
  <g id="axes_1">
   <g id="patch_2">
    <path d="M 84.914375 603.86 
L 567.689804 603.86 
L 567.689804 109.484571 
L 84.914375 109.484571 
z
" style="fill:none;"/>
   </g>
   <g id="matplotlib.axis_1">
    <g id="xtick_1">
     <g id="text_1">
      <!-- 0 -->
      <g style="fill:#262626;" transform="translate(99.64041 636.076563)scale(0.22 -0.22)">
       <defs>
        <path d="M 2034 4250 
Q 1547 4250 1301 3770 
Q 1056 3291 1056 2328 
Q 1056 1369 1301 889 
Q 1547 409 2034 409 
Q 2525 409 2770 889 
Q 3016 1369 3016 2328 
Q 3016 3291 2770 3770 
Q 2525 4250 2034 4250 
z
M 2034 4750 
Q 2819 4750 3233 4129 
Q 3647 3509 3647 2328 
Q 3647 1150 3233 529 
Q 2819 -91 2034 -91 
Q 1250 -91 836 529 
Q 422 1150 422 2328 
Q 422 3509 836 4129 
Q 1250 4750 2034 4750 
z
" id="DejaVuSans-30" transform="scale(0.015625)"/>
       </defs>
       <use xlink:href="#DejaVuSans-30"/>
      </g>
     </g>
    </g>
    <g id="xtick_2">
     <g id="text_2">
      <!-- 20000 -->
      <g style="fill:#262626;" transform="translate(159.466671 636.076563)scale(0.22 -0.22)">
       <defs>
        <path d="M 1228 531 
L 3431 531 
L 3431 0 
L 469 0 
L 469 531 
Q 828 903 1448 1529 
Q 2069 2156 2228 2338 
Q 2531 2678 2651 2914 
Q 2772 3150 2772 3378 
Q 2772 3750 2511 3984 
Q 2250 4219 1831 4219 
Q 1534 4219 1204 4116 
Q 875 4013 500 3803 
L 500 4441 
Q 881 4594 1212 4672 
Q 1544 4750 1819 4750 
Q 2544 4750 2975 4387 
Q 3406 4025 3406 3419 
Q 3406 3131 3298 2873 
Q 3191 2616 2906 2266 
Q 2828 2175 2409 1742 
Q 1991 1309 1228 531 
z
" id="DejaVuSans-32" transform="scale(0.015625)"/>
       </defs>
       <use xlink:href="#DejaVuSans-32"/>
       <use x="63.623047" xlink:href="#DejaVuSans-30"/>
       <use x="127.246094" xlink:href="#DejaVuSans-30"/>
       <use x="190.869141" xlink:href="#DejaVuSans-30"/>
       <use x="254.492188" xlink:href="#DejaVuSans-30"/>
      </g>
     </g>
    </g>
    <g id="xtick_3">
     <g id="text_3">
      <!-- 40000 -->
      <g style="fill:#262626;" transform="translate(247.287932 636.076563)scale(0.22 -0.22)">
       <defs>
        <path d="M 2419 4116 
L 825 1625 
L 2419 1625 
L 2419 4116 
z
M 2253 4666 
L 3047 4666 
L 3047 1625 
L 3713 1625 
L 3713 1100 
L 3047 1100 
L 3047 0 
L 2419 0 
L 2419 1100 
L 313 1100 
L 313 1709 
L 2253 4666 
z
" id="DejaVuSans-34" transform="scale(0.015625)"/>
       </defs>
       <use xlink:href="#DejaVuSans-34"/>
       <use x="63.623047" xlink:href="#DejaVuSans-30"/>
       <use x="127.246094" xlink:href="#DejaVuSans-30"/>
       <use x="190.869141" xlink:href="#DejaVuSans-30"/>
       <use x="254.492188" xlink:href="#DejaVuSans-30"/>
      </g>
     </g>
    </g>
    <g id="xtick_4">
     <g id="text_4">
      <!-- 60000 -->
      <g style="fill:#262626;" transform="translate(335.109193 636.076563)scale(0.22 -0.22)">
       <defs>
        <path d="M 2113 2584 
Q 1688 2584 1439 2293 
Q 1191 2003 1191 1497 
Q 1191 994 1439 701 
Q 1688 409 2113 409 
Q 2538 409 2786 701 
Q 3034 994 3034 1497 
Q 3034 2003 2786 2293 
Q 2538 2584 2113 2584 
z
M 3366 4563 
L 3366 3988 
Q 3128 4100 2886 4159 
Q 2644 4219 2406 4219 
Q 1781 4219 1451 3797 
Q 1122 3375 1075 2522 
Q 1259 2794 1537 2939 
Q 1816 3084 2150 3084 
Q 2853 3084 3261 2657 
Q 3669 2231 3669 1497 
Q 3669 778 3244 343 
Q 2819 -91 2113 -91 
Q 1303 -91 875 529 
Q 447 1150 447 2328 
Q 447 3434 972 4092 
Q 1497 4750 2381 4750 
Q 2619 4750 2861 4703 
Q 3103 4656 3366 4563 
z
" id="DejaVuSans-36" transform="scale(0.015625)"/>
       </defs>
       <use xlink:href="#DejaVuSans-36"/>
       <use x="63.623047" xlink:href="#DejaVuSans-30"/>
       <use x="127.246094" xlink:href="#DejaVuSans-30"/>
       <use x="190.869141" xlink:href="#DejaVuSans-30"/>
       <use x="254.492188" xlink:href="#DejaVuSans-30"/>
      </g>
     </g>
    </g>
    <g id="xtick_5">
     <g id="text_5">
      <!-- 80000 -->
      <g style="fill:#262626;" transform="translate(422.930455 636.076563)scale(0.22 -0.22)">
       <defs>
        <path d="M 2034 2216 
Q 1584 2216 1326 1975 
Q 1069 1734 1069 1313 
Q 1069 891 1326 650 
Q 1584 409 2034 409 
Q 2484 409 2743 651 
Q 3003 894 3003 1313 
Q 3003 1734 2745 1975 
Q 2488 2216 2034 2216 
z
M 1403 2484 
Q 997 2584 770 2862 
Q 544 3141 544 3541 
Q 544 4100 942 4425 
Q 1341 4750 2034 4750 
Q 2731 4750 3128 4425 
Q 3525 4100 3525 3541 
Q 3525 3141 3298 2862 
Q 3072 2584 2669 2484 
Q 3125 2378 3379 2068 
Q 3634 1759 3634 1313 
Q 3634 634 3220 271 
Q 2806 -91 2034 -91 
Q 1263 -91 848 271 
Q 434 634 434 1313 
Q 434 1759 690 2068 
Q 947 2378 1403 2484 
z
M 1172 3481 
Q 1172 3119 1398 2916 
Q 1625 2713 2034 2713 
Q 2441 2713 2670 2916 
Q 2900 3119 2900 3481 
Q 2900 3844 2670 4047 
Q 2441 4250 2034 4250 
Q 1625 4250 1398 4047 
Q 1172 3844 1172 3481 
z
" id="DejaVuSans-38" transform="scale(0.015625)"/>
       </defs>
       <use xlink:href="#DejaVuSans-38"/>
       <use x="63.623047" xlink:href="#DejaVuSans-30"/>
       <use x="127.246094" xlink:href="#DejaVuSans-30"/>
       <use x="190.869141" xlink:href="#DejaVuSans-30"/>
       <use x="254.492188" xlink:href="#DejaVuSans-30"/>
      </g>
     </g>
    </g>
    <g id="xtick_6">
     <g id="text_6">
      <!-- 100000 -->
      <g style="fill:#262626;" transform="translate(503.752966 636.076563)scale(0.22 -0.22)">
       <defs>
        <path d="M 794 531 
L 1825 531 
L 1825 4091 
L 703 3866 
L 703 4441 
L 1819 4666 
L 2450 4666 
L 2450 531 
L 3481 531 
L 3481 0 
L 794 0 
L 794 531 
z
" id="DejaVuSans-31" transform="scale(0.015625)"/>
       </defs>
       <use xlink:href="#DejaVuSans-31"/>
       <use x="63.623047" xlink:href="#DejaVuSans-30"/>
       <use x="127.246094" xlink:href="#DejaVuSans-30"/>
       <use x="190.869141" xlink:href="#DejaVuSans-30"/>
       <use x="254.492188" xlink:href="#DejaVuSans-30"/>
       <use x="318.115234" xlink:href="#DejaVuSans-30"/>
      </g>
     </g>
    </g>
    <g id="text_7">
     <!-- MDTU -->
     <g style="fill:#262626;" transform="translate(290.596464 662.888125)scale(0.24 -0.24)">
      <defs>
       <path d="M 628 4666 
L 1569 4666 
L 2759 1491 
L 3956 4666 
L 4897 4666 
L 4897 0 
L 4281 0 
L 4281 4097 
L 3078 897 
L 2444 897 
L 1241 4097 
L 1241 0 
L 628 0 
L 628 4666 
z
" id="DejaVuSans-4d" transform="scale(0.015625)"/>
       <path d="M 1259 4147 
L 1259 519 
L 2022 519 
Q 2988 519 3436 956 
Q 3884 1394 3884 2338 
Q 3884 3275 3436 3711 
Q 2988 4147 2022 4147 
L 1259 4147 
z
M 628 4666 
L 1925 4666 
Q 3281 4666 3915 4102 
Q 4550 3538 4550 2338 
Q 4550 1131 3912 565 
Q 3275 0 1925 0 
L 628 0 
L 628 4666 
z
" id="DejaVuSans-44" transform="scale(0.015625)"/>
       <path d="M -19 4666 
L 3928 4666 
L 3928 4134 
L 2272 4134 
L 2272 0 
L 1638 0 
L 1638 4134 
L -19 4134 
L -19 4666 
z
" id="DejaVuSans-54" transform="scale(0.015625)"/>
       <path d="M 556 4666 
L 1191 4666 
L 1191 1831 
Q 1191 1081 1462 751 
Q 1734 422 2344 422 
Q 2950 422 3222 751 
Q 3494 1081 3494 1831 
L 3494 4666 
L 4128 4666 
L 4128 1753 
Q 4128 841 3676 375 
Q 3225 -91 2344 -91 
Q 1459 -91 1007 375 
Q 556 841 556 1753 
L 556 4666 
z
" id="DejaVuSans-55" transform="scale(0.015625)"/>
      </defs>
      <use xlink:href="#DejaVuSans-4d"/>
      <use x="86.279297" xlink:href="#DejaVuSans-44"/>
      <use x="163.28125" xlink:href="#DejaVuSans-54"/>
      <use x="224.365234" xlink:href="#DejaVuSans-55"/>
     </g>
    </g>
   </g>
   <g id="matplotlib.axis_2">
    <g id="ytick_1">
     <g id="text_8">
      <!-- 0.5 -->
      <g style="fill:#262626;" transform="translate(34.4275 533.911186)scale(0.22 -0.22)">
       <defs>
        <path d="M 684 794 
L 1344 794 
L 1344 0 
L 684 0 
L 684 794 
z
" id="DejaVuSans-2e" transform="scale(0.015625)"/>
        <path d="M 691 4666 
L 3169 4666 
L 3169 4134 
L 1269 4134 
L 1269 2991 
Q 1406 3038 1543 3061 
Q 1681 3084 1819 3084 
Q 2600 3084 3056 2656 
Q 3513 2228 3513 1497 
Q 3513 744 3044 326 
Q 2575 -91 1722 -91 
Q 1428 -91 1123 -41 
Q 819 9 494 109 
L 494 744 
Q 775 591 1075 516 
Q 1375 441 1709 441 
Q 2250 441 2565 725 
Q 2881 1009 2881 1497 
Q 2881 1984 2565 2268 
Q 2250 2553 1709 2553 
Q 1456 2553 1204 2497 
Q 953 2441 691 2322 
L 691 4666 
z
" id="DejaVuSans-35" transform="scale(0.015625)"/>
       </defs>
       <use xlink:href="#DejaVuSans-30"/>
       <use x="63.623047" xlink:href="#DejaVuSans-2e"/>
       <use x="95.410156" xlink:href="#DejaVuSans-35"/>
      </g>
     </g>
    </g>
    <g id="ytick_2">
     <g id="text_9">
      <!-- 1.0 -->
      <g style="fill:#262626;" transform="translate(34.4275 451.834136)scale(0.22 -0.22)">
       <use xlink:href="#DejaVuSans-31"/>
       <use x="63.623047" xlink:href="#DejaVuSans-2e"/>
       <use x="95.410156" xlink:href="#DejaVuSans-30"/>
      </g>
     </g>
    </g>
    <g id="ytick_3">
     <g id="text_10">
      <!-- 1.5 -->
      <g style="fill:#262626;" transform="translate(34.4275 369.757087)scale(0.22 -0.22)">
       <use xlink:href="#DejaVuSans-31"/>
       <use x="63.623047" xlink:href="#DejaVuSans-2e"/>
       <use x="95.410156" xlink:href="#DejaVuSans-35"/>
      </g>
     </g>
    </g>
    <g id="ytick_4">
     <g id="text_11">
      <!-- 2.0 -->
      <g style="fill:#262626;" transform="translate(34.4275 287.680038)scale(0.22 -0.22)">
       <use xlink:href="#DejaVuSans-32"/>
       <use x="63.623047" xlink:href="#DejaVuSans-2e"/>
       <use x="95.410156" xlink:href="#DejaVuSans-30"/>
      </g>
     </g>
    </g>
    <g id="ytick_5">
     <g id="text_12">
      <!-- 2.5 -->
      <g style="fill:#262626;" transform="translate(34.4275 205.602989)scale(0.22 -0.22)">
       <use xlink:href="#DejaVuSans-32"/>
       <use x="63.623047" xlink:href="#DejaVuSans-2e"/>
       <use x="95.410156" xlink:href="#DejaVuSans-35"/>
      </g>
     </g>
    </g>
    <g id="ytick_6">
     <g id="text_13">
      <!-- 3.0 -->
      <g style="fill:#262626;" transform="translate(34.4275 123.52594)scale(0.22 -0.22)">
       <defs>
        <path d="M 2597 2516 
Q 3050 2419 3304 2112 
Q 3559 1806 3559 1356 
Q 3559 666 3084 287 
Q 2609 -91 1734 -91 
Q 1441 -91 1130 -33 
Q 819 25 488 141 
L 488 750 
Q 750 597 1062 519 
Q 1375 441 1716 441 
Q 2309 441 2620 675 
Q 2931 909 2931 1356 
Q 2931 1769 2642 2001 
Q 2353 2234 1838 2234 
L 1294 2234 
L 1294 2753 
L 1863 2753 
Q 2328 2753 2575 2939 
Q 2822 3125 2822 3475 
Q 2822 3834 2567 4026 
Q 2313 4219 1838 4219 
Q 1578 4219 1281 4162 
Q 984 4106 628 3988 
L 628 4550 
Q 988 4650 1302 4700 
Q 1616 4750 1894 4750 
Q 2613 4750 3031 4423 
Q 3450 4097 3450 3541 
Q 3450 3153 3228 2886 
Q 3006 2619 2597 2516 
z
" id="DejaVuSans-33" transform="scale(0.015625)"/>
       </defs>
       <use xlink:href="#DejaVuSans-33"/>
       <use x="63.623047" xlink:href="#DejaVuSans-2e"/>
       <use x="95.410156" xlink:href="#DejaVuSans-30"/>
      </g>
     </g>
    </g>
    <g id="text_14">
     <!-- $E$ -->
     <g style="fill:#262626;" transform="translate(25.43625 364.352286)rotate(-90)scale(0.24 -0.24)">
      <defs>
       <path d="M 1081 4666 
L 4031 4666 
L 3928 4134 
L 1606 4134 
L 1338 2753 
L 3566 2753 
L 3463 2222 
L 1234 2222 
L 909 531 
L 3284 531 
L 3181 0 
L 172 0 
L 1081 4666 
z
" id="DejaVuSans-Oblique-45" transform="scale(0.015625)"/>
      </defs>
      <use transform="translate(0 0.09375)" xlink:href="#DejaVuSans-Oblique-45"/>
     </g>
    </g>
   </g>
   <g id="line2d_1">
    <path clip-path="url(#pea409895a4)" d="M 106.858713 513.337161 
L 107.078266 510.193696 
L 107.297819 475.472619 
L 107.517372 488.14126 
L 107.736925 367.472123 
L 107.956478 505.461976 
L 108.176032 533.340015 
L 108.395585 447.192131 
L 108.615138 516.411076 
L 108.834691 523.833942 
L 109.054244 452.705139 
L 109.493351 523.938317 
L 109.712904 503.750452 
L 109.932457 551.642753 
L 110.371563 419.621157 
L 110.591116 462.633663 
L 110.810669 548.213586 
L 111.249776 490.147327 
L 111.469329 483.29978 
L 111.688882 548.285901 
L 111.908435 475.978771 
L 112.127988 489.334058 
L 112.347541 470.042766 
L 112.567095 475.44426 
L 112.786648 539.273118 
L 113.006201 508.416962 
L 113.225754 537.067447 
L 113.445307 486.230302 
L 113.66486 398.549113 
L 113.884414 520.64225 
L 114.103967 441.791786 
L 114.32352 508.130045 
L 114.762626 434.885318 
L 114.982179 455.511075 
L 115.201732 340.171763 
L 115.860392 512.56004 
L 116.079945 499.593798 
L 116.299498 510.050111 
L 116.519051 500.630723 
L 116.958158 447.425594 
L 117.177711 489.265354 
L 117.397264 434.990117 
L 117.616817 469.060211 
L 117.83637 483.262516 
L 118.055923 514.469749 
L 118.275477 131.956182 
L 118.49503 513.244164 
L 118.714583 465.319496 
L 118.934136 489.293988 
L 119.153689 491.324507 
L 119.373242 477.222072 
L 119.592796 442.149181 
L 119.812349 539.411712 
L 120.031902 489.601795 
L 120.251455 466.375165 
L 120.471008 513.880902 
L 120.690561 518.286964 
L 120.910114 489.842614 
L 121.129668 547.741237 
L 121.568774 341.830638 
L 121.788327 544.071341 
L 122.00788 496.985554 
L 122.227433 419.228733 
L 122.446987 500.585107 
L 122.66654 490.950962 
L 122.886093 493.211022 
L 123.105646 497.245941 
L 123.325199 487.452382 
L 123.544752 540.064509 
L 123.764305 495.496154 
L 123.983859 353.03255 
L 124.203412 382.609403 
L 124.422965 441.589104 
L 124.642518 444.039173 
L 124.862071 535.347539 
L 125.301178 446.638222 
L 125.520731 430.681663 
L 125.740284 471.407746 
L 125.959837 464.122586 
L 126.398943 562.635161 
L 126.618496 363.322071 
L 127.057603 504.783344 
L 127.277156 561.99806 
L 127.496709 536.473439 
L 127.716262 358.884326 
L 127.935815 507.892195 
L 128.155369 454.077894 
L 128.814028 553.099086 
L 129.033581 544.152573 
L 129.253134 493.720575 
L 129.472687 492.110529 
L 129.692241 520.978391 
L 129.911794 520.900727 
L 130.131347 348.405337 
L 130.3509 506.960903 
L 130.790006 490.686295 
L 131.00956 461.030638 
L 131.229113 524.643231 
L 131.448666 428.61709 
L 131.668219 500.078575 
L 132.107325 552.305794 
L 132.326878 532.761243 
L 132.546432 541.26348 
L 132.765985 491.899655 
L 132.985538 491.743056 
L 133.205091 501.802291 
L 133.424644 472.470549 
L 133.644197 542.386265 
L 134.083304 474.995971 
L 134.302857 479.257494 
L 134.52241 370.709985 
L 134.741963 377.675269 
L 135.181069 498.974065 
L 135.400623 489.933472 
L 135.620176 491.7146 
L 135.839729 446.46187 
L 136.059282 508.848326 
L 136.278835 529.023721 
L 136.498388 508.0888 
L 136.717941 443.997556 
L 136.937495 462.661613 
L 137.157048 521.353478 
L 137.376601 539.333377 
L 137.596154 467.107751 
L 137.815707 481.728306 
L 138.03526 524.851621 
L 138.254814 411.254123 
L 138.474367 514.962346 
L 138.69392 423.095458 
L 138.913473 430.60858 
L 139.352579 509.10882 
L 139.791686 430.559269 
L 140.011239 468.964112 
L 140.230792 458.205494 
L 140.450345 546.73206 
L 140.889451 472.72401 
L 141.109005 444.519748 
L 141.328558 385.493651 
L 141.548111 365.234811 
L 141.987217 516.71254 
L 142.20677 430.498504 
L 142.426323 535.732904 
L 142.645877 527.106209 
L 142.86543 499.377511 
L 143.084983 520.166102 
L 143.304536 497.902511 
L 143.524089 456.234719 
L 143.743642 358.348275 
L 143.963196 518.101449 
L 144.182749 312.886789 
L 144.402302 528.740507 
L 144.621855 530.153098 
L 145.060961 475.977279 
L 145.280514 465.33881 
L 145.500068 526.149853 
L 145.719621 540.658787 
L 145.939174 204.865647 
L 146.158727 538.144613 
L 146.597833 442.02491 
L 146.817387 445.423349 
L 147.03694 540.343107 
L 147.256493 436.731419 
L 147.476046 425.423742 
L 147.695599 481.359893 
L 147.915152 492.39626 
L 148.134705 461.022503 
L 148.354259 489.523033 
L 148.573812 491.926882 
L 148.793365 499.069007 
L 149.012918 407.745115 
L 149.232471 468.673172 
L 149.452024 324.960784 
L 149.671578 490.647641 
L 149.891131 459.984625 
L 150.110684 472.270734 
L 150.330237 512.752277 
L 150.54979 482.162798 
L 150.769343 476.23658 
L 150.988896 524.682171 
L 151.20845 466.49923 
L 151.428003 539.966351 
L 151.647556 450.078924 
L 151.867109 532.420137 
L 152.086662 343.969355 
L 152.306215 406.438556 
L 152.525769 537.95046 
L 152.745322 553.787712 
L 152.964875 533.906668 
L 153.184428 361.628793 
L 153.403981 495.56024 
L 153.623534 508.422269 
L 153.843087 492.321932 
L 154.062641 532.461849 
L 154.501747 420.254704 
L 155.37996 550.224881 
L 155.599513 557.277058 
L 156.038619 434.721224 
L 156.477725 514.810064 
L 156.697278 516.12717 
L 156.916832 541.697324 
L 157.136385 484.745769 
L 157.355938 517.827832 
L 157.575491 500.610184 
L 157.795044 317.346076 
L 158.234151 443.085433 
L 158.453704 427.786831 
L 158.673257 485.813885 
L 158.89281 482.236679 
L 159.112363 483.076717 
L 159.331916 432.355557 
L 159.551469 552.768548 
L 159.771023 300.587067 
L 159.990576 486.650655 
L 160.210129 465.45934 
L 160.429682 565.341029 
L 160.868788 456.464955 
L 161.088342 491.891533 
L 161.307895 475.472785 
L 161.527448 503.872626 
L 161.747001 496.475434 
L 161.966554 470.032172 
L 162.40566 495.49156 
L 162.625214 534.706729 
L 162.844767 499.269763 
L 163.06432 548.656636 
L 163.283873 501.291788 
L 163.503426 511.983733 
L 163.722979 433.695523 
L 164.162086 475.439687 
L 164.381639 479.833894 
L 164.601192 534.539676 
L 164.820745 451.444363 
L 165.040298 542.629793 
L 165.259851 458.828096 
L 165.479405 426.554811 
L 165.698958 504.873948 
L 165.918511 523.662979 
L 166.138064 476.718515 
L 166.357617 466.222828 
L 166.57717 548.313974 
L 166.796723 390.135482 
L 167.016277 500.116362 
L 167.455383 530.647398 
L 167.674936 480.21345 
L 167.894489 475.554888 
L 168.114042 548.559623 
L 168.333596 553.331196 
L 168.553149 385.052 
L 168.772702 528.733056 
L 168.992255 432.699402 
L 169.211808 443.790252 
L 169.431361 500.934097 
L 169.650914 502.714943 
L 169.870468 510.791886 
L 170.309574 473.19748 
L 170.529127 515.972075 
L 170.74868 462.74168 
L 170.968233 479.180131 
L 171.187787 437.037649 
L 171.40734 478.804641 
L 171.626893 483.574874 
L 171.846446 515.49349 
L 172.065999 496.059027 
L 172.285552 513.516839 
L 172.505105 499.519227 
L 172.724659 444.652597 
L 172.944212 493.806007 
L 173.163765 453.301716 
L 173.383318 516.800357 
L 173.602871 471.845695 
L 173.822424 529.47052 
L 174.041978 497.658818 
L 174.261531 490.761376 
L 174.481084 452.625706 
L 174.700637 469.58594 
L 174.92019 433.748307 
L 175.139743 480.962714 
L 175.57885 527.366206 
L 175.798403 528.47935 
L 176.017956 441.337241 
L 176.237509 516.516699 
L 176.457062 475.329849 
L 176.676615 520.48869 
L 176.896169 510.129798 
L 177.115722 412.917774 
L 177.335275 516.488882 
L 177.774381 476.875255 
L 177.993934 488.842926 
L 178.213487 440.54545 
L 178.433041 440.900469 
L 178.652594 448.591346 
L 178.872147 523.693552 
L 179.0917 522.357015 
L 179.311253 481.118072 
L 179.530806 487.149406 
L 179.75036 471.788482 
L 179.969913 542.977622 
L 180.189466 504.415545 
L 180.409019 547.282049 
L 180.628572 559.679255 
L 180.848125 542.573009 
L 181.067678 454.790301 
L 181.287232 426.638451 
L 181.506785 496.487638 
L 181.945891 462.248215 
L 182.165444 406.080587 
L 182.384997 529.94456 
L 182.604551 480.770324 
L 182.824104 509.735544 
L 183.043657 475.628608 
L 183.26321 193.352517 
L 183.482763 526.443101 
L 183.702316 476.182664 
L 183.921869 526.44948 
L 184.141423 451.480669 
L 184.360976 501.089667 
L 184.580529 489.553734 
L 184.800082 523.670835 
L 185.019635 497.749275 
L 185.239188 526.989332 
L 185.458742 492.03086 
L 185.678295 503.220628 
L 185.897848 529.442353 
L 186.117401 498.104909 
L 186.336954 520.306736 
L 186.556507 480.754822 
L 186.77606 523.366807 
L 186.995614 511.379345 
L 187.215167 527.429393 
L 187.654273 441.31723 
L 187.873826 499.643346 
L 188.093379 380.172209 
L 188.312932 485.687517 
L 188.532486 447.822675 
L 188.752039 434.041913 
L 188.971592 431.959888 
L 189.191145 530.317147 
L 189.410698 559.355251 
L 189.630251 502.389236 
L 189.849805 553.687359 
L 190.069358 530.360034 
L 190.288911 520.554321 
L 190.508464 554.350276 
L 190.728017 552.480406 
L 190.94757 410.611457 
L 191.167123 497.67144 
L 191.386677 539.703608 
L 191.60623 514.198608 
L 191.825783 506.066574 
L 192.045336 400.870097 
L 192.264889 484.066241 
L 192.484442 480.642949 
L 192.703996 491.843044 
L 192.923549 427.707025 
L 193.143102 474.991472 
L 193.362655 548.598614 
L 193.582208 366.30418 
L 193.801761 556.56475 
L 194.021314 517.283175 
L 194.240868 446.922462 
L 194.460421 499.258367 
L 194.679974 496.262015 
L 195.11908 434.513808 
L 195.338633 472.803679 
L 195.558187 455.980911 
L 195.77774 549.090765 
L 195.997293 411.147658 
L 196.216846 528.81123 
L 196.436399 502.509392 
L 196.655952 512.815864 
L 196.875505 499.210119 
L 197.095059 458.747532 
L 197.314612 527.158325 
L 197.534165 546.057455 
L 197.753718 461.692504 
L 197.973271 523.839327 
L 198.192824 487.230535 
L 198.412378 491.196184 
L 198.631931 490.449357 
L 198.851484 533.969452 
L 199.071037 467.372756 
L 199.29059 436.972873 
L 199.510143 517.115035 
L 199.729696 527.878541 
L 199.94925 495.223655 
L 200.168803 501.150081 
L 200.388356 480.476103 
L 200.607909 515.574537 
L 200.827462 357.620362 
L 201.047015 511.300854 
L 201.266569 554.859093 
L 201.486122 484.764311 
L 201.705675 483.496075 
L 201.925228 473.623146 
L 202.144781 551.925807 
L 202.364334 496.999595 
L 202.803441 457.688645 
L 203.242547 547.109767 
L 203.4621 539.129485 
L 203.681653 430.616491 
L 203.901206 394.646899 
L 204.12076 494.467092 
L 204.340313 539.843805 
L 204.559866 545.92366 
L 204.779419 366.828547 
L 204.998972 508.476026 
L 205.218525 480.246995 
L 205.438078 483.142391 
L 205.657632 535.296426 
L 205.877185 435.263 
L 206.096738 414.1903 
L 206.316291 466.910855 
L 206.535844 480.337799 
L 206.755397 459.228134 
L 206.974951 407.131478 
L 207.194504 501.11832 
L 207.414057 410.103373 
L 207.63361 521.332257 
L 207.853163 465.778401 
L 208.072716 442.217373 
L 208.292269 574.780313 
L 208.511823 454.577781 
L 208.731376 469.386502 
L 208.950929 529.723229 
L 209.170482 449.896471 
L 209.390035 478.541302 
L 209.829142 488.200869 
L 210.048695 545.043137 
L 210.268248 503.549717 
L 210.487801 493.535543 
L 210.707354 454.602335 
L 210.926907 525.030364 
L 211.14646 526.516473 
L 211.366014 491.507592 
L 211.585567 522.482738 
L 211.80512 513.231166 
L 212.024673 553.239598 
L 212.463779 464.961827 
L 212.683333 460.690376 
L 212.902886 512.29697 
L 213.122439 424.304801 
L 213.341992 505.832417 
L 213.781098 423.76888 
L 214.000651 424.219652 
L 214.220205 501.049649 
L 214.439758 510.450838 
L 214.659311 550.377577 
L 214.878864 535.288968 
L 215.098417 504.619006 
L 215.31797 520.493061 
L 215.537523 428.061228 
L 215.757077 482.189927 
L 215.97663 465.628253 
L 216.415736 539.848056 
L 216.635289 484.819464 
L 216.854842 526.472295 
L 217.074396 515.339594 
L 217.293949 546.762936 
L 217.513502 424.675933 
L 217.733055 449.163348 
L 217.952608 486.23658 
L 218.172161 485.178071 
L 218.391714 472.24832 
L 218.611268 478.013608 
L 218.830821 493.544166 
L 219.050374 411.091768 
L 219.269927 421.136696 
L 219.48948 472.535024 
L 219.709033 557.310194 
L 220.14814 340.25869 
L 220.367693 474.978716 
L 220.587246 535.570519 
L 221.026352 526.154846 
L 221.245905 502.918709 
L 221.465459 499.204788 
L 221.685012 445.631742 
L 221.904565 512.372786 
L 222.124118 544.425782 
L 222.343671 532.941171 
L 222.563224 515.301314 
L 222.782778 410.699083 
L 223.002331 449.21381 
L 223.221884 520.131614 
L 223.441437 412.221945 
L 223.66099 510.764611 
L 223.880543 534.979327 
L 224.100096 492.042124 
L 224.31965 505.821929 
L 224.539203 544.944262 
L 224.758756 537.560784 
L 224.978309 545.626724 
L 225.197862 466.122644 
L 225.417415 547.525289 
L 225.636969 294.717209 
L 225.856522 558.246822 
L 226.076075 458.616912 
L 226.295628 486.914651 
L 226.515181 421.205951 
L 226.734734 537.875181 
L 226.954287 321.978662 
L 227.173841 530.734056 
L 227.393394 423.32556 
L 227.612947 512.525819 
L 227.8325 339.920236 
L 228.052053 515.310781 
L 228.271606 487.339807 
L 228.49116 514.914309 
L 228.710713 494.940275 
L 228.930266 531.904964 
L 229.369372 407.639208 
L 229.588925 429.953417 
L 229.808478 573.315766 
L 230.028032 357.028792 
L 230.247585 369.225551 
L 230.467138 532.717886 
L 230.686691 486.042186 
L 230.906244 521.912866 
L 231.125797 512.019992 
L 231.345351 199.776203 
L 231.564904 489.804775 
L 231.784457 475.510945 
L 232.00401 542.66319 
L 232.223563 561.80791 
L 232.443116 369.637637 
L 232.882223 510.949243 
L 233.101776 414.065981 
L 233.321329 491.710367 
L 233.540882 502.334485 
L 233.760435 460.505993 
L 233.979988 455.843058 
L 234.199542 442.345832 
L 234.419095 504.333199 
L 234.638648 484.761092 
L 234.858201 413.328991 
L 235.077754 514.269975 
L 235.297307 539.556769 
L 235.51686 412.271692 
L 235.736414 502.322835 
L 235.955967 543.057976 
L 236.395073 432.114887 
L 236.834179 568.851021 
L 237.053733 347.686172 
L 237.273286 554.472788 
L 237.492839 494.802708 
L 237.712392 510.555334 
L 237.931945 510.310331 
L 238.151498 431.311128 
L 238.371051 460.896035 
L 238.590605 529.869144 
L 238.810158 473.457057 
L 239.029711 492.626607 
L 239.249264 530.895464 
L 239.468817 440.845947 
L 239.68837 503.499419 
L 239.907924 448.832109 
L 240.34703 520.874878 
L 240.566583 452.761446 
L 240.786136 544.556673 
L 241.005689 492.412641 
L 241.225242 402.23163 
L 241.444796 362.819339 
L 241.664349 530.839202 
L 241.883902 551.382491 
L 242.103455 477.363106 
L 242.323008 490.897508 
L 242.542561 387.928035 
L 242.762114 484.739286 
L 242.981668 511.651764 
L 243.201221 445.655368 
L 243.420774 448.916799 
L 243.640327 520.289993 
L 243.85988 444.25923 
L 244.079433 445.825693 
L 244.298987 492.631381 
L 244.51854 499.634371 
L 244.738093 518.471186 
L 244.957646 508.91977 
L 245.177199 547.961177 
L 245.396752 535.791921 
L 245.616305 486.162863 
L 245.835859 497.516456 
L 246.055412 478.609715 
L 246.274965 525.79887 
L 246.494518 520.432935 
L 246.714071 451.159492 
L 246.933624 484.005834 
L 247.153178 536.751423 
L 247.372731 479.891617 
L 247.592284 495.895665 
L 247.811837 431.524186 
L 248.03139 509.894886 
L 248.250943 514.01881 
L 248.470496 424.89849 
L 248.69005 459.921006 
L 248.909603 452.677215 
L 249.129156 473.14798 
L 249.348709 326.042709 
L 249.568262 551.190601 
L 249.787815 528.766541 
L 250.226922 463.405982 
L 250.446475 461.337007 
L 250.666028 377.603445 
L 250.885581 459.328347 
L 251.105134 475.719061 
L 251.324687 464.409765 
L 251.544241 416.872679 
L 251.763794 459.860092 
L 251.983347 468.766369 
L 252.2029 415.262214 
L 252.422453 555.428991 
L 252.642006 493.05516 
L 252.86156 475.736349 
L 253.081113 470.190213 
L 253.300666 351.947809 
L 253.520219 530.206265 
L 253.739772 405.465427 
L 253.959325 545.557224 
L 254.178878 506.906335 
L 254.398432 562.188335 
L 254.617985 420.210856 
L 254.837538 367.23969 
L 255.057091 393.601054 
L 255.276644 514.887029 
L 255.496197 449.13423 
L 255.715751 467.12941 
L 255.935304 382.552468 
L 256.154857 516.317258 
L 256.37441 499.719736 
L 256.593963 534.788948 
L 256.813516 431.348098 
L 257.033069 516.666842 
L 257.252623 487.541669 
L 257.472176 492.247866 
L 257.691729 438.794902 
L 257.911282 448.737565 
L 258.130835 519.678804 
L 258.350388 486.978075 
L 258.569942 487.009014 
L 258.789495 510.232624 
L 259.009048 468.808913 
L 259.228601 569.960113 
L 259.448154 519.132074 
L 259.667707 404.992684 
L 259.88726 496.556698 
L 260.106814 518.133299 
L 260.326367 486.947 
L 260.54592 475.660867 
L 260.765473 480.595826 
L 260.985026 524.778425 
L 261.204579 546.150495 
L 261.424133 474.737053 
L 261.643686 522.589333 
L 261.863239 508.78189 
L 262.082792 519.715828 
L 262.302345 381.319779 
L 262.521898 532.700209 
L 262.741451 525.677649 
L 262.961005 509.509395 
L 263.180558 540.922378 
L 263.400111 484.641294 
L 263.619664 542.142083 
L 263.839217 517.719783 
L 264.278324 519.776678 
L 264.497877 482.146921 
L 264.71743 471.030618 
L 264.936983 523.980448 
L 265.156536 505.879521 
L 265.376089 433.873797 
L 265.595642 322.360669 
L 265.815196 474.392831 
L 266.254302 521.844276 
L 266.693408 441.473073 
L 266.912961 551.889568 
L 267.132514 529.475632 
L 267.352068 446.778644 
L 267.571621 529.903915 
L 267.791174 435.50437 
L 268.23028 521.458586 
L 268.449833 402.82999 
L 268.669387 383.678737 
L 268.88894 489.58367 
L 269.108493 518.171261 
L 269.328046 509.089372 
L 269.547599 473.083944 
L 269.767152 507.980818 
L 269.986705 441.171294 
L 270.425812 500.674317 
L 270.645365 429.668498 
L 270.864918 545.194724 
L 271.304024 294.346662 
L 271.523578 553.410017 
L 271.743131 383.207304 
L 271.962684 554.859653 
L 272.182237 444.689503 
L 272.40179 468.227187 
L 272.621343 463.676129 
L 272.840896 369.090507 
L 273.06045 495.981145 
L 273.280003 499.287175 
L 273.499556 507.476623 
L 273.719109 435.286691 
L 274.158215 518.653844 
L 274.377769 379.892473 
L 274.597322 477.470642 
L 274.816875 447.447935 
L 275.036428 536.14146 
L 275.475534 461.369639 
L 275.695087 460.054474 
L 275.914641 465.533562 
L 276.134194 537.847701 
L 276.353747 535.172207 
L 276.5733 515.051712 
L 276.792853 474.119739 
L 277.012406 539.704452 
L 277.23196 538.010298 
L 277.451513 494.460278 
L 277.671066 486.385599 
L 277.890619 493.026769 
L 278.110172 475.695098 
L 278.329725 476.453858 
L 278.549278 500.184874 
L 278.768832 502.443751 
L 278.988385 534.948421 
L 279.207938 486.325497 
L 279.427491 526.995094 
L 279.647044 524.425879 
L 279.866597 516.397891 
L 280.086151 522.380919 
L 280.305704 341.46506 
L 280.525257 564.014457 
L 280.74481 540.002909 
L 280.964363 494.96886 
L 281.183916 557.617545 
L 281.403469 360.206925 
L 281.623023 529.546523 
L 281.842576 533.117 
L 282.062129 376.168513 
L 282.281682 503.034813 
L 282.501235 474.487533 
L 282.720788 481.199786 
L 282.940342 499.873251 
L 283.159895 541.948586 
L 283.379448 512.063386 
L 283.599001 402.943369 
L 283.818554 423.403484 
L 284.038107 519.316688 
L 284.25766 384.153476 
L 284.477214 484.735082 
L 284.696767 426.206871 
L 284.91632 505.41075 
L 285.135873 519.427011 
L 285.574979 421.48034 
L 285.794533 558.852746 
L 286.014086 560.365015 
L 286.233639 470.326301 
L 286.453192 536.146666 
L 286.672745 523.758902 
L 286.892298 523.660694 
L 287.111851 496.548089 
L 287.331405 493.982109 
L 287.550958 355.906888 
L 287.770511 515.614456 
L 287.990064 522.740045 
L 288.209617 357.378658 
L 288.42917 496.760411 
L 288.648724 529.932344 
L 288.868277 466.14119 
L 289.08783 536.073813 
L 289.307383 330.36245 
L 289.526936 472.166485 
L 289.746489 491.503754 
L 289.966042 487.144238 
L 290.185596 449.018803 
L 290.405149 476.751869 
L 290.624702 482.739506 
L 290.844255 455.475309 
L 291.063808 454.438493 
L 291.283361 517.333572 
L 291.502915 438.006201 
L 291.722468 500.912068 
L 291.942021 441.008396 
L 292.161574 480.365008 
L 292.381127 547.560409 
L 293.039787 426.948682 
L 293.25934 557.119864 
L 293.698446 466.984906 
L 293.917999 521.503555 
L 294.137552 471.940804 
L 294.357105 450.381401 
L 294.576659 546.228334 
L 294.796212 493.102244 
L 295.015765 368.899857 
L 295.235318 479.045928 
L 295.454871 507.484914 
L 295.674424 504.676114 
L 295.893978 510.614446 
L 296.113531 523.131476 
L 296.333084 508.749971 
L 296.552637 530.986406 
L 296.77219 512.114338 
L 296.991743 474.165194 
L 297.211296 544.933857 
L 297.43085 490.349403 
L 297.650403 531.78493 
L 297.869956 461.42148 
L 298.089509 502.6018 
L 298.309062 490.541469 
L 298.528615 380.369801 
L 298.748169 425.643289 
L 298.967722 525.277666 
L 299.187275 501.94706 
L 299.406828 525.22126 
L 299.626381 287.949811 
L 299.845934 541.480208 
L 300.065487 273.141099 
L 300.285041 416.336783 
L 300.724147 492.550975 
L 300.9437 462.830583 
L 301.163253 517.24859 
L 301.382806 536.211849 
L 301.60236 512.618884 
L 301.821913 415.363823 
L 302.041466 542.441131 
L 302.261019 529.96396 
L 302.480572 321.307096 
L 302.700125 440.013895 
L 303.358785 525.61813 
L 303.578338 452.866855 
L 303.797891 477.96206 
L 304.017444 536.646114 
L 304.236997 450.552897 
L 304.456551 449.774643 
L 304.676104 501.17052 
L 304.895657 436.359044 
L 305.11521 520.611954 
L 305.334763 507.555244 
L 305.554316 510.223653 
L 305.773869 541.609923 
L 305.993423 521.839746 
L 306.212976 478.047323 
L 306.432529 524.384773 
L 306.652082 405.423577 
L 306.871635 559.112653 
L 307.091188 541.982331 
L 307.310742 468.083704 
L 307.530295 519.135552 
L 307.749848 481.275352 
L 307.969401 472.007545 
L 308.188954 537.688733 
L 308.408507 557.990733 
L 308.62806 450.877864 
L 308.847614 528.879223 
L 309.067167 477.55513 
L 309.28672 508.724782 
L 309.506273 512.027243 
L 309.725826 495.347948 
L 309.945379 538.867535 
L 310.164933 478.045835 
L 310.384486 503.290969 
L 310.604039 380.850664 
L 310.823592 505.971977 
L 311.043145 490.374755 
L 311.262698 495.501036 
L 311.482251 549.4654 
L 311.701805 541.831418 
L 311.921358 505.132957 
L 312.140911 561.587865 
L 312.360464 525.475636 
L 312.580017 437.563799 
L 312.79957 429.73375 
L 313.019124 522.371674 
L 313.238677 554.627763 
L 313.45823 490.089962 
L 313.677783 495.182994 
L 313.897336 389.736701 
L 314.116889 465.707029 
L 314.336442 461.295567 
L 314.555996 359.745516 
L 314.775549 495.388777 
L 314.995102 503.412883 
L 315.214655 519.121357 
L 315.434208 470.962982 
L 315.653761 507.639015 
L 315.873315 454.590442 
L 316.092868 484.392526 
L 316.312421 376.292471 
L 316.531974 541.155309 
L 316.751527 395.135939 
L 316.97108 463.754265 
L 317.190633 486.428548 
L 317.410187 484.322163 
L 317.62974 509.249265 
L 317.849293 508.895601 
L 318.068846 501.383017 
L 318.288399 543.628228 
L 318.507952 495.204339 
L 318.727506 510.338521 
L 318.947059 453.379277 
L 319.166612 434.099602 
L 319.386165 551.963401 
L 319.605718 506.771067 
L 319.825271 518.397593 
L 320.044824 426.605984 
L 320.483931 489.080393 
L 320.703484 477.730213 
L 320.923037 514.865769 
L 321.362143 443.424099 
L 321.80125 545.737964 
L 322.020803 447.751933 
L 322.240356 552.593395 
L 322.459909 474.116107 
L 322.679462 523.256577 
L 322.899015 393.211721 
L 323.118569 442.463315 
L 323.338122 543.779247 
L 323.557675 467.783534 
L 323.777228 526.281305 
L 323.996781 392.62118 
L 324.435887 479.267373 
L 324.655441 489.972552 
L 324.874994 488.652827 
L 325.094547 338.852591 
L 325.533653 490.82843 
L 325.753206 462.613103 
L 325.97276 476.077708 
L 326.192313 525.845164 
L 326.411866 495.003668 
L 326.631419 489.149956 
L 326.850972 476.876501 
L 327.070525 491.141931 
L 327.290078 536.625153 
L 327.509632 531.462711 
L 327.729185 484.537678 
L 327.948738 484.145287 
L 328.168291 514.414577 
L 328.607397 483.64194 
L 328.826951 483.993122 
L 329.046504 498.52519 
L 329.266057 538.001439 
L 329.48561 547.938373 
L 329.705163 534.793958 
L 329.924716 513.81139 
L 330.363823 415.492738 
L 330.583376 456.143211 
L 330.802929 529.736868 
L 331.022482 477.883093 
L 331.242035 473.574341 
L 331.461588 535.846476 
L 331.681142 474.274394 
L 331.900695 523.994664 
L 332.120248 500.987503 
L 332.339801 411.664844 
L 332.778907 550.647124 
L 332.99846 505.543387 
L 333.437567 542.687705 
L 333.65712 399.789394 
L 333.876673 560.692906 
L 334.096226 478.087966 
L 334.315779 492.247967 
L 334.535333 469.359575 
L 334.754886 487.694536 
L 335.193992 453.365146 
L 335.413545 536.957167 
L 335.633098 530.409592 
L 335.852651 409.008497 
L 336.072205 515.79143 
L 336.511311 470.519912 
L 336.730864 510.705491 
L 336.950417 405.700932 
L 337.389524 541.630361 
L 337.609077 471.561015 
L 337.82863 457.212203 
L 338.048183 493.141184 
L 338.267736 498.46789 
L 338.487289 460.110412 
L 338.706842 510.737692 
L 338.926396 525.778623 
L 339.145949 524.030009 
L 339.365502 536.700905 
L 339.585055 525.481882 
L 339.804608 463.652808 
L 340.024161 510.909126 
L 340.243715 459.915906 
L 340.463268 455.142862 
L 340.682821 390.319017 
L 341.34148 521.748886 
L 341.561033 466.36146 
L 341.780587 459.025521 
L 342.00014 398.571716 
L 342.219693 486.113125 
L 342.439246 497.853679 
L 342.658799 529.093336 
L 342.878352 401.70026 
L 343.317459 535.050506 
L 343.537012 425.84902 
L 343.756565 404.47769 
L 344.195671 486.21386 
L 344.415224 511.824789 
L 344.634778 473.858762 
L 344.854331 470.915639 
L 345.073884 497.436593 
L 345.51299 455.692024 
L 345.952096 557.84671 
L 346.17165 492.988188 
L 346.610756 520.006473 
L 346.830309 515.702797 
L 347.049862 506.144975 
L 347.269415 435.473508 
L 347.488969 496.07322 
L 347.708522 504.362402 
L 348.147628 539.146377 
L 348.367181 527.561037 
L 348.586734 447.766762 
L 348.806287 523.559816 
L 349.025841 480.549831 
L 349.245394 487.58346 
L 349.464947 456.863177 
L 349.6845 452.039444 
L 349.904053 542.324564 
L 350.123606 441.398021 
L 350.34316 528.282559 
L 350.562713 556.678778 
L 350.782266 409.750972 
L 351.001819 492.091024 
L 351.221372 525.813188 
L 351.440925 524.537253 
L 351.880032 440.421111 
L 352.099585 434.088532 
L 352.319138 521.235119 
L 352.538691 408.439075 
L 352.758244 553.72905 
L 352.977797 446.99241 
L 353.197351 520.450234 
L 353.416904 472.42115 
L 353.636457 457.03272 
L 353.85601 427.491123 
L 354.075563 488.139881 
L 354.295116 489.389176 
L 354.514669 523.263321 
L 354.734223 525.209858 
L 355.173329 538.753932 
L 355.392882 487.576256 
L 355.612435 556.506574 
L 355.831988 518.275323 
L 356.051542 508.043781 
L 356.271095 414.183507 
L 356.710201 535.318234 
L 356.929754 413.555718 
L 357.149307 463.191538 
L 357.36886 450.782424 
L 357.588414 516.752573 
L 357.807967 442.459642 
L 358.247073 551.411819 
L 358.466626 421.379518 
L 358.905733 533.795574 
L 359.125286 515.938041 
L 359.344839 563.038421 
L 359.564392 545.742711 
L 359.783945 472.615086 
L 360.003498 447.589017 
L 360.223051 469.068071 
L 360.442605 448.654118 
L 360.662158 504.169097 
L 360.881711 496.023719 
L 361.101264 531.33251 
L 361.320817 442.71706 
L 361.54037 483.269927 
L 361.759924 548.977938 
L 361.979477 469.691844 
L 362.19903 490.13594 
L 362.418583 486.122655 
L 362.638136 525.35143 
L 362.857689 317.310192 
L 363.077242 467.367054 
L 363.296796 497.813333 
L 363.516349 384.730239 
L 363.735902 507.848734 
L 363.955455 519.395024 
L 364.175008 524.327363 
L 364.614115 477.504029 
L 364.833668 556.721189 
L 365.053221 517.945167 
L 365.272774 530.093989 
L 365.492327 519.405634 
L 365.71188 536.195826 
L 365.931433 476.007187 
L 366.150987 548.060256 
L 366.37054 539.283423 
L 366.590093 545.720245 
L 366.809646 422.971218 
L 367.029199 371.901396 
L 367.248752 496.688661 
L 367.468306 548.04729 
L 367.907412 438.97017 
L 368.126965 515.610293 
L 368.346518 523.229773 
L 368.566071 474.666211 
L 368.785624 465.435245 
L 369.005178 481.593933 
L 369.224731 351.819334 
L 369.444284 507.948785 
L 369.88339 502.70025 
L 370.102943 396.643295 
L 370.322497 503.565643 
L 370.54205 499.066403 
L 370.761603 503.736885 
L 370.981156 522.779691 
L 371.200709 458.185756 
L 371.420262 504.945522 
L 371.639815 510.561518 
L 371.859369 502.39035 
L 372.078922 481.932092 
L 372.298475 483.597316 
L 372.518028 511.904582 
L 372.737581 521.878895 
L 372.957134 491.939226 
L 373.176687 484.558045 
L 373.396241 505.349676 
L 373.615794 510.272679 
L 374.0549 469.40918 
L 374.274453 461.447105 
L 374.494006 536.284756 
L 374.71356 380.557813 
L 374.933113 398.798327 
L 375.152666 490.421553 
L 375.372219 437.569634 
L 375.591772 451.77224 
L 376.030878 524.560937 
L 376.250432 467.52782 
L 376.689538 508.342846 
L 376.909091 409.753699 
L 377.348197 528.306565 
L 377.567751 465.803797 
L 377.787304 508.834698 
L 378.006857 479.329194 
L 378.22641 507.331352 
L 378.445963 305.590039 
L 378.665516 531.795048 
L 378.885069 516.104485 
L 379.104623 461.967982 
L 379.324176 508.253784 
L 379.543729 390.26954 
L 379.763282 456.996695 
L 379.982835 462.984822 
L 380.202388 421.836694 
L 380.421942 538.732387 
L 380.641495 384.376417 
L 380.861048 488.798967 
L 381.300154 375.6518 
L 381.519707 491.069993 
L 381.73926 407.251522 
L 381.958814 412.453167 
L 382.178367 328.937966 
L 382.39792 550.831748 
L 382.617473 445.242285 
L 382.837026 537.990207 
L 383.056579 472.016696 
L 383.276133 461.774028 
L 383.495686 482.065647 
L 383.715239 393.001844 
L 384.154345 524.38707 
L 384.373898 480.569114 
L 384.813005 547.860206 
L 385.032558 545.518655 
L 385.252111 485.440454 
L 385.471664 537.571156 
L 385.91077 442.032254 
L 386.130324 537.876285 
L 386.349877 475.020649 
L 386.56943 540.558225 
L 386.788983 459.954451 
L 387.008536 446.988095 
L 387.228089 494.984022 
L 387.447642 442.14039 
L 387.886749 541.224344 
L 388.106302 504.149749 
L 388.325855 409.622295 
L 388.545408 536.490117 
L 388.764961 403.435518 
L 388.984515 409.790056 
L 389.204068 528.974416 
L 389.423621 514.039205 
L 389.643174 435.049614 
L 389.862727 479.676032 
L 390.301833 512.518277 
L 390.521387 532.724905 
L 390.74094 407.863664 
L 390.960493 516.854706 
L 391.180046 540.072502 
L 391.399599 517.816732 
L 391.619152 482.943292 
L 391.838706 483.481697 
L 392.058259 511.12538 
L 392.277812 520.035482 
L 392.497365 515.306357 
L 392.716918 470.366013 
L 392.936471 467.962202 
L 393.375578 551.794499 
L 393.595131 558.105559 
L 393.814684 572.49131 
L 394.473343 454.139108 
L 394.692897 512.3326 
L 394.91245 438.142072 
L 395.571109 522.58567 
L 396.010215 538.644821 
L 396.229769 325.825289 
L 396.449322 517.255032 
L 396.668875 439.082156 
L 396.888428 451.225414 
L 397.107981 541.696132 
L 397.327534 510.069537 
L 397.547087 525.986404 
L 397.766641 497.81566 
L 397.986194 530.810361 
L 398.205747 464.773897 
L 398.4253 481.390976 
L 398.644853 540.776871 
L 398.864406 461.627793 
L 399.08396 476.095352 
L 399.303513 520.145078 
L 399.742619 437.923939 
L 399.962172 539.533044 
L 400.181725 457.120467 
L 400.401278 300.361886 
L 400.620832 429.603779 
L 400.840385 488.558739 
L 401.059938 449.303435 
L 401.279491 514.921904 
L 401.499044 446.000998 
L 401.718597 427.237896 
L 401.938151 332.766521 
L 402.377257 466.928946 
L 402.59681 488.282114 
L 402.816363 468.608946 
L 403.255469 536.645259 
L 403.475023 466.663 
L 403.694576 448.273199 
L 404.133682 488.246007 
L 404.353235 505.335119 
L 404.572788 551.271867 
L 404.792342 440.25531 
L 405.231448 558.120005 
L 405.451001 484.083011 
L 405.670554 457.690222 
L 405.890107 534.665992 
L 406.10966 486.230996 
L 406.329214 367.480058 
L 406.548767 371.606281 
L 406.76832 402.399038 
L 406.987873 534.427824 
L 407.426979 479.596304 
L 407.646533 499.903976 
L 407.866086 418.758325 
L 408.085639 492.536033 
L 408.305192 510.929658 
L 408.524745 509.374457 
L 408.963851 423.489271 
L 409.183405 528.871492 
L 409.402958 357.203711 
L 409.622511 496.858693 
L 409.842064 528.479942 
L 410.061617 507.553885 
L 410.28117 422.397099 
L 410.500724 388.327606 
L 411.159383 458.898028 
L 411.378936 453.068236 
L 411.598489 511.708086 
L 412.037596 452.337878 
L 412.257149 529.603574 
L 412.476702 542.540524 
L 412.696255 499.171877 
L 412.915808 493.114427 
L 413.135361 536.812135 
L 413.354915 390.993664 
L 413.574468 493.219183 
L 413.794021 493.540683 
L 414.013574 536.229943 
L 414.233127 551.448507 
L 414.45268 504.485969 
L 414.672233 412.176745 
L 414.891787 523.330813 
L 415.11134 496.239872 
L 415.330893 521.177526 
L 415.550446 447.761621 
L 415.769999 435.066075 
L 415.989552 505.478776 
L 416.209106 426.935257 
L 416.648212 526.074737 
L 416.867765 422.322278 
L 417.087318 511.900941 
L 417.306871 494.911405 
L 417.526424 517.069092 
L 417.745978 471.378646 
L 417.965531 449.983819 
L 418.185084 472.912772 
L 418.404637 554.720339 
L 418.62419 502.29759 
L 419.063297 541.37713 
L 419.28285 526.999783 
L 419.502403 497.345239 
L 419.721956 505.89981 
L 419.941509 555.240823 
L 420.380615 464.14815 
L 421.039275 524.530848 
L 421.478381 382.850737 
L 421.697934 524.470519 
L 421.917488 458.977811 
L 422.137041 501.502537 
L 422.356594 473.698954 
L 422.576147 474.582996 
L 423.015253 536.671752 
L 423.234806 515.079632 
L 423.45436 512.568639 
L 423.673913 532.021149 
L 423.893466 468.108767 
L 424.113019 471.365098 
L 424.332572 402.922618 
L 424.552125 446.606699 
L 424.771678 517.903862 
L 425.210785 389.956397 
L 425.649891 507.346352 
L 425.869444 437.239541 
L 426.088997 488.425159 
L 426.308551 505.822372 
L 426.528104 551.759171 
L 426.747657 526.694228 
L 426.96721 518.013334 
L 427.186763 496.024531 
L 427.406316 450.012687 
L 427.625869 456.444388 
L 427.845423 530.628442 
L 428.064976 551.074698 
L 428.723635 437.989617 
L 429.162742 488.202288 
L 429.382295 479.279071 
L 429.601848 475.97858 
L 430.040954 496.782256 
L 430.260507 484.017471 
L 430.48006 503.879605 
L 430.699614 537.903395 
L 430.919167 506.092841 
L 431.13872 522.587981 
L 431.358273 379.435303 
L 431.577826 451.045991 
L 431.797379 565.629374 
L 432.236486 469.676516 
L 432.456039 537.328087 
L 432.675592 450.807693 
L 432.895145 441.521395 
L 433.114698 422.10189 
L 433.334251 459.483639 
L 433.553805 448.10413 
L 433.773358 508.962766 
L 433.992911 527.539383 
L 434.432017 544.398007 
L 434.65157 531.874267 
L 434.871124 494.605872 
L 435.090677 524.754741 
L 435.529783 432.503889 
L 435.749336 550.364117 
L 435.968889 547.748494 
L 436.188442 473.743584 
L 436.407996 521.907581 
L 436.627549 411.059968 
L 436.847102 358.627098 
L 437.066655 475.460367 
L 437.286208 467.077853 
L 437.505761 544.41006 
L 437.725315 501.509959 
L 437.944868 489.17521 
L 438.383974 433.90194 
L 438.603527 535.360468 
L 438.82308 532.569106 
L 439.042633 498.837357 
L 439.48174 482.127671 
L 439.701293 453.395006 
L 439.920846 522.254623 
L 440.140399 423.22971 
L 440.359952 490.142333 
L 440.579506 436.484334 
L 440.799059 486.493958 
L 441.018612 496.413779 
L 441.238165 372.886757 
L 441.457718 559.433122 
L 441.677271 520.190972 
L 441.896824 542.873704 
L 442.116378 518.36439 
L 442.335931 385.704991 
L 442.555484 514.914958 
L 442.99459 361.204071 
L 443.214143 496.797305 
L 443.433697 398.774499 
L 443.65325 528.626335 
L 443.872803 382.839478 
L 444.092356 467.43133 
L 444.311909 500.786626 
L 444.531462 500.327889 
L 444.751015 506.283918 
L 444.970569 502.167159 
L 445.190122 555.535551 
L 445.409675 536.062058 
L 445.629228 458.188388 
L 445.848781 488.446014 
L 446.068334 536.509885 
L 446.287888 475.899566 
L 446.507441 510.650024 
L 446.726994 456.06363 
L 446.946547 463.680236 
L 447.1661 516.371674 
L 447.385653 424.398567 
L 447.605206 555.788656 
L 447.82476 472.552885 
L 448.044313 537.107798 
L 448.263866 398.666528 
L 448.483419 458.047295 
L 448.702972 450.138996 
L 449.142079 564.734208 
L 449.581185 435.746209 
L 449.800738 482.302834 
L 450.020291 443.745389 
L 450.239844 504.117883 
L 450.459397 438.255109 
L 450.678951 485.304676 
L 450.898504 432.45239 
L 451.33761 539.577151 
L 451.557163 513.879445 
L 451.776716 397.815932 
L 451.996269 441.178726 
L 452.215823 541.111029 
L 452.654929 501.76944 
L 452.874482 550.356232 
L 453.094035 495.874472 
L 453.313588 483.682409 
L 453.533142 517.798043 
L 453.752695 369.625133 
L 453.972248 496.563121 
L 454.191801 461.889443 
L 454.411354 498.775652 
L 454.630907 453.825047 
L 454.85046 498.115189 
L 455.070014 395.802867 
L 455.289567 442.970528 
L 455.50912 533.920258 
L 455.728673 491.273034 
L 455.948226 477.778839 
L 456.167779 491.187488 
L 456.387333 581.38839 
L 456.826439 494.940796 
L 457.045992 514.799354 
L 457.265545 479.00385 
L 457.485098 547.643534 
L 457.704651 556.756375 
L 457.924205 441.563429 
L 458.143758 501.659367 
L 458.363311 378.694258 
L 458.582864 550.175764 
L 458.802417 524.347237 
L 459.02197 539.439687 
L 459.241524 215.597746 
L 459.461077 484.957492 
L 459.68063 544.40854 
L 459.900183 474.895595 
L 460.119736 466.110667 
L 460.339289 483.114817 
L 460.558842 544.418329 
L 460.778396 452.868251 
L 461.217502 490.983519 
L 461.437055 462.989283 
L 461.656608 383.986119 
L 461.876161 540.664049 
L 462.095715 522.490139 
L 462.315268 456.474309 
L 462.534821 506.134904 
L 462.754374 386.942324 
L 462.973927 525.662922 
L 463.19348 494.286627 
L 463.413033 495.545292 
L 463.632587 548.305893 
L 463.85214 446.797273 
L 464.071693 469.792163 
L 464.291246 548.41904 
L 464.510799 511.492514 
L 464.730352 541.510853 
L 465.169459 446.316901 
L 465.389012 523.918179 
L 465.828118 379.087638 
L 466.047671 541.04734 
L 466.267224 479.68651 
L 466.486778 459.601994 
L 466.706331 516.054737 
L 466.925884 479.991425 
L 467.145437 527.438575 
L 467.584543 463.365044 
L 467.804097 454.868066 
L 468.02365 499.901776 
L 468.243203 467.471285 
L 468.462756 337.619452 
L 468.682309 522.186212 
L 468.901862 492.018277 
L 469.121415 517.820024 
L 469.340969 527.220292 
L 469.560522 524.260543 
L 469.780075 506.032421 
L 469.999628 438.325173 
L 470.219181 518.933831 
L 470.658288 408.39191 
L 470.877841 428.095946 
L 471.097394 539.865224 
L 471.5365 470.221888 
L 471.756053 519.271683 
L 471.975606 449.886901 
L 472.19516 468.249424 
L 472.414713 473.842799 
L 472.634266 475.153661 
L 472.853819 438.674191 
L 473.073372 454.775629 
L 473.292925 420.431291 
L 473.951585 573.083402 
L 474.171138 556.958633 
L 474.390691 342.891192 
L 475.049351 538.679798 
L 475.268904 409.007849 
L 475.488457 484.355219 
L 475.70801 519.317495 
L 476.147116 453.113892 
L 476.366669 570.103077 
L 476.586223 526.548137 
L 476.805776 520.940847 
L 477.025329 406.124271 
L 477.244882 546.940213 
L 477.464435 476.589629 
L 477.683988 516.483565 
L 477.903542 489.064523 
L 478.123095 503.551354 
L 478.342648 334.317308 
L 478.562201 470.279884 
L 478.781754 522.405008 
L 479.001307 513.160259 
L 479.22086 447.534693 
L 479.659967 522.235179 
L 479.87952 502.733236 
L 480.099073 468.235266 
L 480.538179 506.569076 
L 480.757733 429.23117 
L 480.977286 535.650472 
L 481.196839 455.42744 
L 481.416392 506.158663 
L 481.635945 521.922207 
L 482.075051 526.426788 
L 482.294605 549.772728 
L 482.514158 533.948197 
L 482.733711 539.953117 
L 482.953264 532.845543 
L 483.172817 512.879332 
L 483.39237 533.162545 
L 483.611924 492.965022 
L 484.05103 513.915984 
L 484.270583 465.170589 
L 484.490136 512.208274 
L 484.709689 511.522268 
L 484.929242 524.69318 
L 485.148796 446.691297 
L 485.587902 505.632969 
L 485.807455 221.572241 
L 486.027008 450.571403 
L 486.246561 432.441469 
L 486.466115 548.82273 
L 486.685668 504.629631 
L 486.905221 437.09078 
L 487.124774 483.385803 
L 487.344327 404.260587 
L 487.56388 471.747801 
L 487.783433 431.853431 
L 488.002987 432.683615 
L 488.22254 392.261671 
L 488.442093 544.596686 
L 488.661646 353.925901 
L 488.881199 470.837267 
L 489.100752 525.039392 
L 489.320306 336.832563 
L 489.759412 523.811617 
L 489.978965 530.315668 
L 490.198518 408.76825 
L 490.418071 456.221375 
L 490.637624 408.433027 
L 490.857178 555.264405 
L 491.076731 535.974828 
L 491.296284 481.286212 
L 491.515837 510.649577 
L 491.73539 429.049742 
L 491.954943 487.364925 
L 492.174497 512.213442 
L 492.39405 487.756644 
L 492.613603 480.808647 
L 492.833156 492.471609 
L 493.052709 483.112443 
L 493.272262 452.537105 
L 493.491815 476.748467 
L 493.711369 472.037331 
L 493.930922 523.721142 
L 494.150475 534.086303 
L 494.370028 496.160327 
L 494.589581 493.869833 
L 494.809134 524.080127 
L 495.028688 398.360136 
L 495.248241 545.173675 
L 495.467794 409.807556 
L 495.687347 490.929721 
L 495.9069 492.524786 
L 496.346006 510.629886 
L 496.56556 511.694768 
L 496.785113 474.103957 
L 497.004666 479.680017 
L 497.224219 430.853991 
L 497.443772 495.483066 
L 497.663325 460.782863 
L 498.102432 492.997442 
L 498.321985 445.421827 
L 498.541538 514.273271 
L 498.761091 442.947346 
L 498.980644 516.982981 
L 499.200197 510.579755 
L 499.419751 535.470641 
L 499.639304 487.726322 
L 499.858857 538.821696 
L 500.07841 436.156836 
L 500.297963 500.429324 
L 500.517516 494.042507 
L 500.73707 520.793262 
L 500.956623 486.919005 
L 501.176176 473.502578 
L 501.395729 510.70579 
L 501.615282 527.513744 
L 501.834835 510.820713 
L 502.054388 410.390755 
L 502.273942 538.883008 
L 502.493495 507.115738 
L 502.713048 427.550355 
L 502.932601 476.31219 
L 503.152154 488.257694 
L 503.371707 402.049963 
L 503.59126 472.177927 
L 503.810814 378.818122 
L 504.030367 465.627136 
L 504.24992 506.410671 
L 504.469473 489.371082 
L 504.689026 412.734815 
L 504.908579 501.372228 
L 505.347686 549.507034 
L 505.786792 371.044977 
L 506.006345 382.029824 
L 506.225898 477.396328 
L 506.445451 420.450835 
L 506.665005 407.332194 
L 506.884558 486.15109 
L 507.104111 490.131146 
L 507.323664 525.211629 
L 507.543217 520.447074 
L 507.982324 429.135767 
L 508.201877 466.275377 
L 508.42143 454.076134 
L 508.640983 518.613743 
L 508.860536 513.137299 
L 509.080089 455.777288 
L 509.299642 434.135479 
L 509.519196 507.476015 
L 509.738749 526.316619 
L 509.958302 455.034758 
L 510.177855 521.246256 
L 510.397408 504.901037 
L 510.616961 512.418652 
L 510.836515 528.506645 
L 511.056068 552.906594 
L 511.275621 499.370634 
L 511.495174 476.441573 
L 511.714727 470.613835 
L 511.93428 541.704653 
L 512.153833 491.758568 
L 512.373387 483.020849 
L 512.59294 520.22647 
L 512.812493 500.388629 
L 513.032046 518.198946 
L 513.251599 502.275661 
L 513.471152 432.70797 
L 513.910259 542.163158 
L 514.129812 426.434361 
L 514.349365 408.756867 
L 514.568918 486.120478 
L 514.788471 520.715184 
L 515.008024 507.550858 
L 515.227578 505.073473 
L 515.447131 544.92886 
L 515.666684 388.670164 
L 515.886237 448.837637 
L 516.10579 467.069103 
L 516.325343 368.601246 
L 516.76445 547.867843 
L 516.984003 479.875563 
L 517.203556 512.994739 
L 517.423109 527.053171 
L 517.642662 554.024193 
L 517.862215 374.690981 
L 518.081769 454.701096 
L 518.301322 459.709995 
L 518.959981 545.628456 
L 519.179534 508.95407 
L 519.399088 395.357479 
L 519.838194 563.049032 
L 520.2773 398.115495 
L 520.496853 384.657693 
L 520.716406 353.976517 
L 521.155513 543.378111 
L 521.594619 452.104362 
L 521.814172 553.21346 
L 522.033725 531.075878 
L 522.253279 496.372722 
L 522.472832 516.11095 
L 522.692385 546.469098 
L 522.911938 478.751809 
L 523.131491 547.16674 
L 523.351044 476.933252 
L 523.570597 454.55808 
L 523.790151 381.710487 
L 524.009704 412.486407 
L 524.229257 475.923701 
L 524.44881 430.173743 
L 524.668363 513.043585 
L 524.887916 498.673566 
L 525.10747 420.403575 
L 525.327023 437.171642 
L 525.546576 503.631625 
L 525.766129 480.511064 
L 525.985682 527.636568 
L 526.205235 549.932523 
L 526.644342 502.409221 
L 526.863895 486.257798 
L 527.083448 487.636703 
L 527.303001 499.839815 
L 527.522554 529.396819 
L 527.742107 488.618615 
L 527.96166 383.183097 
L 528.181214 489.975979 
L 528.400767 461.467843 
L 528.62032 465.226318 
L 529.059426 511.220433 
L 529.278979 450.959544 
L 529.498533 530.70523 
L 529.718086 516.058123 
L 529.937639 436.413401 
L 530.157192 425.823233 
L 530.376745 497.688888 
L 530.596298 503.830558 
L 530.815851 506.461338 
L 531.035405 455.452215 
L 531.254958 325.263684 
L 531.474511 480.712055 
L 531.913617 532.096281 
L 532.13317 510.582621 
L 532.352724 472.128527 
L 532.572277 479.776535 
L 532.79183 524.117438 
L 533.011383 511.680165 
L 533.230936 430.212966 
L 533.450489 533.931276 
L 533.889596 495.110076 
L 534.109149 562.770838 
L 534.328702 480.463963 
L 534.548255 545.900809 
L 534.767808 499.717144 
L 534.987361 547.748039 
L 535.206915 562.873979 
L 535.426468 494.715864 
L 535.865574 517.624385 
L 536.085127 506.211863 
L 536.30468 542.401458 
L 536.524233 503.154078 
L 536.743787 402.277922 
L 536.96334 536.654708 
L 537.402446 433.704457 
L 537.621999 533.444387 
L 537.841552 483.318492 
L 538.061106 480.512026 
L 538.280659 492.509716 
L 538.500212 559.938005 
L 538.939318 440.554537 
L 539.158871 401.580423 
L 539.378424 544.545345 
L 539.597978 442.480909 
L 539.817531 537.241967 
L 540.037084 533.053681 
L 540.256637 454.790963 
L 540.47619 495.957531 
L 540.695743 476.470806 
L 540.915297 525.235392 
L 541.13485 433.212391 
L 541.573956 489.620702 
L 541.793509 436.3468 
L 542.013062 459.499767 
L 542.232615 499.508279 
L 542.452169 493.607491 
L 542.671722 534.584262 
L 542.891275 482.240856 
L 543.330381 506.925126 
L 543.549934 429.308272 
L 543.769488 524.956525 
L 543.989041 472.26006 
L 544.208594 450.228851 
L 544.428147 458.089174 
L 544.6477 527.850981 
L 544.867253 520.80382 
L 545.086806 532.273212 
L 545.30636 465.840624 
L 545.525913 479.335353 
L 545.745466 482.463674 
L 545.745466 482.463674 
" style="fill:none;stroke:#96c69a;stroke-linecap:round;stroke-width:3;"/>
   </g>
   <g id="line2d_2"/>
   <g id="patch_3">
    <path d="M 84.914375 603.86 
L 84.914375 109.484571 
" style="fill:none;stroke:#262626;stroke-linecap:square;stroke-linejoin:miter;stroke-width:2.5;"/>
   </g>
   <g id="patch_4">
    <path d="M 84.914375 603.86 
L 567.689804 603.86 
" style="fill:none;stroke:#262626;stroke-linecap:square;stroke-linejoin:miter;stroke-width:2.5;"/>
   </g>
   <g id="legend_1">
    <g id="patch_5">
     <path d="M 514.774179 598.86 
L 560.689804 598.86 
Q 562.689804 598.86 562.689804 596.86 
L 562.689804 554.954375 
Q 562.689804 552.954375 560.689804 552.954375 
L 514.774179 552.954375 
Q 512.774179 552.954375 512.774179 554.954375 
L 512.774179 596.86 
Q 512.774179 598.86 514.774179 598.86 
z
" style="fill:#ffffff;opacity:0.8;stroke:#cccccc;stroke-linejoin:miter;stroke-width:2;"/>
    </g>
    <g id="text_15">
     <!-- $n_\tau$ -->
     <g style="fill:#262626;" transform="translate(524.651991 575.190625)scale(0.24 -0.24)">
      <defs>
       <path d="M 3566 2113 
L 3156 0 
L 2578 0 
L 2988 2091 
Q 3016 2238 3031 2350 
Q 3047 2463 3047 2528 
Q 3047 2791 2881 2937 
Q 2716 3084 2419 3084 
Q 1956 3084 1622 2776 
Q 1288 2469 1184 1941 
L 800 0 
L 225 0 
L 903 3500 
L 1478 3500 
L 1363 2950 
Q 1603 3253 1940 3418 
Q 2278 3584 2650 3584 
Q 3113 3584 3367 3334 
Q 3622 3084 3622 2631 
Q 3622 2519 3608 2391 
Q 3594 2263 3566 2113 
z
" id="DejaVuSans-Oblique-6e" transform="scale(0.015625)"/>
       <path d="M 2103 638 
Q 2188 488 2525 488 
L 2800 488 
L 2706 0 
L 2363 0 
Q 1800 0 1600 300 
Q 1403 606 1534 1269 
L 1856 2925 
L 541 2925 
L 653 3500 
L 3881 3500 
L 3769 2925 
L 2444 2925 
L 2113 1234 
Q 2025 781 2103 638 
z
" id="DejaVuSans-Oblique-3c4" transform="scale(0.015625)"/>
      </defs>
      <use xlink:href="#DejaVuSans-Oblique-6e"/>
      <use transform="translate(63.378906 -16.40625)scale(0.7)" xlink:href="#DejaVuSans-Oblique-3c4"/>
     </g>
    </g>
    <g id="line2d_3">
     <path d="M 516.774179 589.280313 
L 536.774179 589.280313 
" style="fill:none;stroke:#96c69a;stroke-linecap:round;stroke-width:3;"/>
    </g>
    <g id="line2d_4"/>
    <g id="text_16">
     <!-- 40 -->
     <g style="fill:#262626;" transform="translate(544.774179 592.780313)scale(0.1 -0.1)">
      <defs>
       <path d="M 2356 3675 
L 1038 1722 
L 2356 1722 
L 2356 3675 
z
M 2156 4666 
L 3494 4666 
L 3494 1722 
L 4159 1722 
L 4159 850 
L 3494 850 
L 3494 0 
L 2356 0 
L 2356 850 
L 288 850 
L 288 1881 
L 2156 4666 
z
" id="DejaVuSans-Bold-34" transform="scale(0.015625)"/>
       <path d="M 2944 2338 
Q 2944 3213 2780 3570 
Q 2616 3928 2228 3928 
Q 1841 3928 1675 3570 
Q 1509 3213 1509 2338 
Q 1509 1453 1675 1090 
Q 1841 728 2228 728 
Q 2613 728 2778 1090 
Q 2944 1453 2944 2338 
z
M 4147 2328 
Q 4147 1169 3647 539 
Q 3147 -91 2228 -91 
Q 1306 -91 806 539 
Q 306 1169 306 2328 
Q 306 3491 806 4120 
Q 1306 4750 2228 4750 
Q 3147 4750 3647 4120 
Q 4147 3491 4147 2328 
z
" id="DejaVuSans-Bold-30" transform="scale(0.015625)"/>
      </defs>
      <use xlink:href="#DejaVuSans-Bold-34"/>
      <use x="69.580078" xlink:href="#DejaVuSans-Bold-30"/>
     </g>
    </g>
   </g>
  </g>
  <g id="axes_2">
   <g id="patch_6">
    <path d="M 84.914375 92.437143 
L 567.689804 92.437143 
L 567.689804 7.2 
L 84.914375 7.2 
z
" style="fill:none;"/>
   </g>
   <g id="matplotlib.axis_3">
    <g id="xtick_7"/>
    <g id="xtick_8"/>
    <g id="xtick_9"/>
    <g id="xtick_10"/>
    <g id="xtick_11"/>
    <g id="xtick_12"/>
   </g>
   <g id="matplotlib.axis_4">
    <g id="ytick_7">
     <g id="text_17">
      <!-- 0 -->
      <g style="fill:#262626;" transform="translate(55.416875 100.795424)scale(0.22 -0.22)">
       <use xlink:href="#DejaVuSans-30"/>
      </g>
     </g>
    </g>
    <g id="ytick_8">
     <g id="text_18">
      <!-- 100 -->
      <g style="fill:#262626;" transform="translate(27.421875 48.082287)scale(0.22 -0.22)">
       <use xlink:href="#DejaVuSans-31"/>
       <use x="63.623047" xlink:href="#DejaVuSans-30"/>
       <use x="127.246094" xlink:href="#DejaVuSans-30"/>
      </g>
     </g>
    </g>
   </g>
   <g id="patch_7">
    <path clip-path="url(#p79512371cf)" d="M 106.858713 92.437143 
L 140.619232 92.437143 
L 140.619232 11.258912 
L 106.858713 11.258912 
z
" style="fill:#96c69a;fill-opacity:0.5;stroke:#ffffff;stroke-linejoin:miter;stroke-width:2;"/>
   </g>
   <g id="patch_8">
    <path clip-path="url(#p79512371cf)" d="M 140.619232 92.437143 
L 174.379752 92.437143 
L 174.379752 11.258912 
L 140.619232 11.258912 
z
" style="fill:#96c69a;fill-opacity:0.5;stroke:#ffffff;stroke-linejoin:miter;stroke-width:2;"/>
   </g>
   <g id="patch_9">
    <path clip-path="url(#p79512371cf)" d="M 174.379752 92.437143 
L 208.140271 92.437143 
L 208.140271 11.258912 
L 174.379752 11.258912 
z
" style="fill:#96c69a;fill-opacity:0.5;stroke:#ffffff;stroke-linejoin:miter;stroke-width:2;"/>
   </g>
   <g id="patch_10">
    <path clip-path="url(#p79512371cf)" d="M 208.140271 92.437143 
L 241.900791 92.437143 
L 241.900791 11.258912 
L 208.140271 11.258912 
z
" style="fill:#96c69a;fill-opacity:0.5;stroke:#ffffff;stroke-linejoin:miter;stroke-width:2;"/>
   </g>
   <g id="patch_11">
    <path clip-path="url(#p79512371cf)" d="M 241.900791 92.437143 
L 275.66131 92.437143 
L 275.66131 11.786043 
L 241.900791 11.786043 
z
" style="fill:#96c69a;fill-opacity:0.5;stroke:#ffffff;stroke-linejoin:miter;stroke-width:2;"/>
   </g>
   <g id="patch_12">
    <path clip-path="url(#p79512371cf)" d="M 275.66131 92.437143 
L 309.42183 92.437143 
L 309.42183 11.258912 
L 275.66131 11.258912 
z
" style="fill:#96c69a;fill-opacity:0.5;stroke:#ffffff;stroke-linejoin:miter;stroke-width:2;"/>
   </g>
   <g id="patch_13">
    <path clip-path="url(#p79512371cf)" d="M 309.42183 92.437143 
L 343.182349 92.437143 
L 343.182349 11.258912 
L 309.42183 11.258912 
z
" style="fill:#96c69a;fill-opacity:0.5;stroke:#ffffff;stroke-linejoin:miter;stroke-width:2;"/>
   </g>
   <g id="patch_14">
    <path clip-path="url(#p79512371cf)" d="M 343.182349 92.437143 
L 376.942869 92.437143 
L 376.942869 11.258912 
L 343.182349 11.258912 
z
" style="fill:#96c69a;fill-opacity:0.5;stroke:#ffffff;stroke-linejoin:miter;stroke-width:2;"/>
   </g>
   <g id="patch_15">
    <path clip-path="url(#p79512371cf)" d="M 376.942869 92.437143 
L 410.703388 92.437143 
L 410.703388 11.786043 
L 376.942869 11.786043 
z
" style="fill:#96c69a;fill-opacity:0.5;stroke:#ffffff;stroke-linejoin:miter;stroke-width:2;"/>
   </g>
   <g id="patch_16">
    <path clip-path="url(#p79512371cf)" d="M 410.703388 92.437143 
L 444.463907 92.437143 
L 444.463907 11.258912 
L 410.703388 11.258912 
z
" style="fill:#96c69a;fill-opacity:0.5;stroke:#ffffff;stroke-linejoin:miter;stroke-width:2;"/>
   </g>
   <g id="patch_17">
    <path clip-path="url(#p79512371cf)" d="M 444.463907 92.437143 
L 478.224427 92.437143 
L 478.224427 11.258912 
L 444.463907 11.258912 
z
" style="fill:#96c69a;fill-opacity:0.5;stroke:#ffffff;stroke-linejoin:miter;stroke-width:2;"/>
   </g>
   <g id="patch_18">
    <path clip-path="url(#p79512371cf)" d="M 478.224427 92.437143 
L 511.984946 92.437143 
L 511.984946 11.258912 
L 478.224427 11.258912 
z
" style="fill:#96c69a;fill-opacity:0.5;stroke:#ffffff;stroke-linejoin:miter;stroke-width:2;"/>
   </g>
   <g id="patch_19">
    <path clip-path="url(#p79512371cf)" d="M 511.984946 92.437143 
L 545.745466 92.437143 
L 545.745466 11.258912 
L 511.984946 11.258912 
z
" style="fill:#96c69a;fill-opacity:0.5;stroke:#ffffff;stroke-linejoin:miter;stroke-width:2;"/>
   </g>
   <g id="patch_20">
    <path d="M 84.914375 92.437143 
L 84.914375 7.2 
" style="fill:none;stroke:#262626;stroke-linecap:square;stroke-linejoin:miter;stroke-width:2.5;"/>
   </g>
   <g id="patch_21">
    <path d="M 84.914375 92.437143 
L 567.689804 92.437143 
" style="fill:none;stroke:#262626;stroke-linecap:square;stroke-linejoin:miter;stroke-width:2.5;"/>
   </g>
  </g>
  <g id="axes_3">
   <g id="patch_22">
    <path d="M 584.337232 603.86 
L 667.574375 603.86 
L 667.574375 109.484571 
L 584.337232 109.484571 
z
" style="fill:none;"/>
   </g>
   <g id="matplotlib.axis_5">
    <g id="xtick_13">
     <g id="text_19">
      <!-- 0 -->
      <g style="fill:#262626;" transform="translate(577.338482 636.076563)scale(0.22 -0.22)">
       <use xlink:href="#DejaVuSans-30"/>
      </g>
     </g>
    </g>
    <g id="xtick_14">
     <g id="text_20">
      <!-- 100 -->
      <g style="fill:#262626;" transform="translate(607.381798 636.076563)scale(0.22 -0.22)">
       <use xlink:href="#DejaVuSans-31"/>
       <use x="63.623047" xlink:href="#DejaVuSans-30"/>
       <use x="127.246094" xlink:href="#DejaVuSans-30"/>
      </g>
     </g>
    </g>
   </g>
   <g id="matplotlib.axis_6">
    <g id="ytick_9"/>
    <g id="ytick_10"/>
    <g id="ytick_11"/>
    <g id="ytick_12"/>
    <g id="ytick_13"/>
    <g id="ytick_14"/>
   </g>
   <g id="patch_23">
    <path clip-path="url(#p06e8295a5a)" d="M 584.337232 581.38839 
L 586.539273 581.38839 
L 586.539273 571.618124 
L 584.337232 571.618124 
z
" style="fill:#96c69a;fill-opacity:0.5;stroke:#ffffff;stroke-linejoin:miter;stroke-width:0.977027;"/>
   </g>
   <g id="patch_24">
    <path clip-path="url(#p06e8295a5a)" d="M 584.337232 571.618124 
L 590.502946 571.618124 
L 590.502946 561.847859 
L 584.337232 561.847859 
z
" style="fill:#96c69a;fill-opacity:0.5;stroke:#ffffff;stroke-linejoin:miter;stroke-width:0.977027;"/>
   </g>
   <g id="patch_25">
    <path clip-path="url(#p06e8295a5a)" d="M 584.337232 561.847859 
L 606.35764 561.847859 
L 606.35764 552.077593 
L 584.337232 552.077593 
z
" style="fill:#96c69a;fill-opacity:0.5;stroke:#ffffff;stroke-linejoin:miter;stroke-width:0.977027;"/>
   </g>
   <g id="patch_26">
    <path clip-path="url(#p06e8295a5a)" d="M 584.337232 552.077593 
L 626.616416 552.077593 
L 626.616416 542.307328 
L 584.337232 542.307328 
z
" style="fill:#96c69a;fill-opacity:0.5;stroke:#ffffff;stroke-linejoin:miter;stroke-width:0.977027;"/>
   </g>
   <g id="patch_27">
    <path clip-path="url(#p06e8295a5a)" d="M 584.337232 542.307328 
L 643.351926 542.307328 
L 643.351926 532.537063 
L 584.337232 532.537063 
z
" style="fill:#96c69a;fill-opacity:0.5;stroke:#ffffff;stroke-linejoin:miter;stroke-width:0.977027;"/>
   </g>
   <g id="patch_28">
    <path clip-path="url(#p06e8295a5a)" d="M 584.337232 532.537063 
L 650.398457 532.537063 
L 650.398457 522.766797 
L 584.337232 522.766797 
z
" style="fill:#96c69a;fill-opacity:0.5;stroke:#ffffff;stroke-linejoin:miter;stroke-width:0.977027;"/>
   </g>
   <g id="patch_29">
    <path clip-path="url(#p06e8295a5a)" d="M 584.337232 522.766797 
L 654.36213 522.766797 
L 654.36213 512.996532 
L 584.337232 512.996532 
z
" style="fill:#96c69a;fill-opacity:0.5;stroke:#ffffff;stroke-linejoin:miter;stroke-width:0.977027;"/>
   </g>
   <g id="patch_30">
    <path clip-path="url(#p06e8295a5a)" d="M 584.337232 512.996532 
L 660.527844 512.996532 
L 660.527844 503.226267 
L 584.337232 503.226267 
z
" style="fill:#96c69a;fill-opacity:0.5;stroke:#ffffff;stroke-linejoin:miter;stroke-width:0.977027;"/>
   </g>
   <g id="patch_31">
    <path clip-path="url(#p06e8295a5a)" d="M 584.337232 503.226267 
L 660.968253 503.226267 
L 660.968253 493.456001 
L 584.337232 493.456001 
z
" style="fill:#96c69a;fill-opacity:0.5;stroke:#ffffff;stroke-linejoin:miter;stroke-width:0.977027;"/>
   </g>
   <g id="patch_32">
    <path clip-path="url(#p06e8295a5a)" d="M 584.337232 493.456001 
L 663.610702 493.456001 
L 663.610702 483.685736 
L 584.337232 483.685736 
z
" style="fill:#96c69a;fill-opacity:0.5;stroke:#ffffff;stroke-linejoin:miter;stroke-width:0.977027;"/>
   </g>
   <g id="patch_33">
    <path clip-path="url(#p06e8295a5a)" d="M 584.337232 483.685736 
L 653.481314 483.685736 
L 653.481314 473.91547 
L 584.337232 473.91547 
z
" style="fill:#96c69a;fill-opacity:0.5;stroke:#ffffff;stroke-linejoin:miter;stroke-width:0.977027;"/>
   </g>
   <g id="patch_34">
    <path clip-path="url(#p06e8295a5a)" d="M 584.337232 473.91547 
L 643.792334 473.91547 
L 643.792334 464.145205 
L 584.337232 464.145205 
z
" style="fill:#96c69a;fill-opacity:0.5;stroke:#ffffff;stroke-linejoin:miter;stroke-width:0.977027;"/>
   </g>
   <g id="patch_35">
    <path clip-path="url(#p06e8295a5a)" d="M 584.337232 464.145205 
L 632.341722 464.145205 
L 632.341722 454.37494 
L 584.337232 454.37494 
z
" style="fill:#96c69a;fill-opacity:0.5;stroke:#ffffff;stroke-linejoin:miter;stroke-width:0.977027;"/>
   </g>
   <g id="patch_36">
    <path clip-path="url(#p06e8295a5a)" d="M 584.337232 454.37494 
L 623.093151 454.37494 
L 623.093151 444.604674 
L 584.337232 444.604674 
z
" style="fill:#96c69a;fill-opacity:0.5;stroke:#ffffff;stroke-linejoin:miter;stroke-width:0.977027;"/>
   </g>
   <g id="patch_37">
    <path clip-path="url(#p06e8295a5a)" d="M 584.337232 444.604674 
L 618.689069 444.604674 
L 618.689069 434.834409 
L 584.337232 434.834409 
z
" style="fill:#96c69a;fill-opacity:0.5;stroke:#ffffff;stroke-linejoin:miter;stroke-width:0.977027;"/>
   </g>
   <g id="patch_38">
    <path clip-path="url(#p06e8295a5a)" d="M 584.337232 434.834409 
L 612.082946 434.834409 
L 612.082946 425.064143 
L 584.337232 425.064143 
z
" style="fill:#96c69a;fill-opacity:0.5;stroke:#ffffff;stroke-linejoin:miter;stroke-width:0.977027;"/>
   </g>
   <g id="patch_39">
    <path clip-path="url(#p06e8295a5a)" d="M 584.337232 425.064143 
L 598.870702 425.064143 
L 598.870702 415.293878 
L 584.337232 415.293878 
z
" style="fill:#96c69a;fill-opacity:0.5;stroke:#ffffff;stroke-linejoin:miter;stroke-width:0.977027;"/>
   </g>
   <g id="patch_40">
    <path clip-path="url(#p06e8295a5a)" d="M 584.337232 415.293878 
L 604.155599 415.293878 
L 604.155599 405.523613 
L 584.337232 405.523613 
z
" style="fill:#96c69a;fill-opacity:0.5;stroke:#ffffff;stroke-linejoin:miter;stroke-width:0.977027;"/>
   </g>
   <g id="patch_41">
    <path clip-path="url(#p06e8295a5a)" d="M 584.337232 405.523613 
L 597.549477 405.523613 
L 597.549477 395.753347 
L 584.337232 395.753347 
z
" style="fill:#96c69a;fill-opacity:0.5;stroke:#ffffff;stroke-linejoin:miter;stroke-width:0.977027;"/>
   </g>
   <g id="patch_42">
    <path clip-path="url(#p06e8295a5a)" d="M 584.337232 395.753347 
L 592.264579 395.753347 
L 592.264579 385.983082 
L 584.337232 385.983082 
z
" style="fill:#96c69a;fill-opacity:0.5;stroke:#ffffff;stroke-linejoin:miter;stroke-width:0.977027;"/>
   </g>
   <g id="patch_43">
    <path clip-path="url(#p06e8295a5a)" d="M 584.337232 385.983082 
L 597.989885 385.983082 
L 597.989885 376.212816 
L 584.337232 376.212816 
z
" style="fill:#96c69a;fill-opacity:0.5;stroke:#ffffff;stroke-linejoin:miter;stroke-width:0.977027;"/>
   </g>
   <g id="patch_44">
    <path clip-path="url(#p06e8295a5a)" d="M 584.337232 376.212816 
L 592.264579 376.212816 
L 592.264579 366.442551 
L 584.337232 366.442551 
z
" style="fill:#96c69a;fill-opacity:0.5;stroke:#ffffff;stroke-linejoin:miter;stroke-width:0.977027;"/>
   </g>
   <g id="patch_45">
    <path clip-path="url(#p06e8295a5a)" d="M 584.337232 366.442551 
L 590.943355 366.442551 
L 590.943355 356.672286 
L 584.337232 356.672286 
z
" style="fill:#96c69a;fill-opacity:0.5;stroke:#ffffff;stroke-linejoin:miter;stroke-width:0.977027;"/>
   </g>
   <g id="patch_46">
    <path clip-path="url(#p06e8295a5a)" d="M 584.337232 356.672286 
L 587.860497 356.672286 
L 587.860497 346.90202 
L 584.337232 346.90202 
z
" style="fill:#96c69a;fill-opacity:0.5;stroke:#ffffff;stroke-linejoin:miter;stroke-width:0.977027;"/>
   </g>
   <g id="patch_47">
    <path clip-path="url(#p06e8295a5a)" d="M 584.337232 346.90202 
L 588.300906 346.90202 
L 588.300906 337.131755 
L 584.337232 337.131755 
z
" style="fill:#96c69a;fill-opacity:0.5;stroke:#ffffff;stroke-linejoin:miter;stroke-width:0.977027;"/>
   </g>
   <g id="patch_48">
    <path clip-path="url(#p06e8295a5a)" d="M 584.337232 337.131755 
L 586.539273 337.131755 
L 586.539273 327.36149 
L 584.337232 327.36149 
z
" style="fill:#96c69a;fill-opacity:0.5;stroke:#ffffff;stroke-linejoin:miter;stroke-width:0.977027;"/>
   </g>
   <g id="patch_49">
    <path clip-path="url(#p06e8295a5a)" d="M 584.337232 327.36149 
L 587.420089 327.36149 
L 587.420089 317.591224 
L 584.337232 317.591224 
z
" style="fill:#96c69a;fill-opacity:0.5;stroke:#ffffff;stroke-linejoin:miter;stroke-width:0.977027;"/>
   </g>
   <g id="patch_50">
    <path clip-path="url(#p06e8295a5a)" d="M 584.337232 317.591224 
L 585.658457 317.591224 
L 585.658457 307.820959 
L 584.337232 307.820959 
z
" style="fill:#96c69a;fill-opacity:0.5;stroke:#ffffff;stroke-linejoin:miter;stroke-width:0.977027;"/>
   </g>
   <g id="patch_51">
    <path clip-path="url(#p06e8295a5a)" d="M 584.337232 307.820959 
L 585.658457 307.820959 
L 585.658457 298.050693 
L 584.337232 298.050693 
z
" style="fill:#96c69a;fill-opacity:0.5;stroke:#ffffff;stroke-linejoin:miter;stroke-width:0.977027;"/>
   </g>
   <g id="patch_52">
    <path clip-path="url(#p06e8295a5a)" d="M 584.337232 298.050693 
L 585.218048 298.050693 
L 585.218048 288.280428 
L 584.337232 288.280428 
z
" style="fill:#96c69a;fill-opacity:0.5;stroke:#ffffff;stroke-linejoin:miter;stroke-width:0.977027;"/>
   </g>
   <g id="patch_53">
    <path clip-path="url(#p06e8295a5a)" d="M 584.337232 288.280428 
L 584.77764 288.280428 
L 584.77764 278.510163 
L 584.337232 278.510163 
z
" style="fill:#96c69a;fill-opacity:0.5;stroke:#ffffff;stroke-linejoin:miter;stroke-width:0.977027;"/>
   </g>
   <g id="patch_54">
    <path clip-path="url(#p06e8295a5a)" d="M 584.337232 278.510163 
L 584.77764 278.510163 
L 584.77764 268.739897 
L 584.337232 268.739897 
z
" style="fill:#96c69a;fill-opacity:0.5;stroke:#ffffff;stroke-linejoin:miter;stroke-width:0.977027;"/>
   </g>
   <g id="patch_55">
    <path clip-path="url(#p06e8295a5a)" d="M 584.337232 268.739897 
L 584.337232 268.739897 
L 584.337232 258.969632 
L 584.337232 258.969632 
z
" style="fill:#96c69a;fill-opacity:0.5;stroke:#ffffff;stroke-linejoin:miter;stroke-width:0.977027;"/>
   </g>
   <g id="patch_56">
    <path clip-path="url(#p06e8295a5a)" d="M 584.337232 258.969632 
L 584.337232 258.969632 
L 584.337232 249.199366 
L 584.337232 249.199366 
z
" style="fill:#96c69a;fill-opacity:0.5;stroke:#ffffff;stroke-linejoin:miter;stroke-width:0.977027;"/>
   </g>
   <g id="patch_57">
    <path clip-path="url(#p06e8295a5a)" d="M 584.337232 249.199366 
L 584.337232 249.199366 
L 584.337232 239.429101 
L 584.337232 239.429101 
z
" style="fill:#96c69a;fill-opacity:0.5;stroke:#ffffff;stroke-linejoin:miter;stroke-width:0.977027;"/>
   </g>
   <g id="patch_58">
    <path clip-path="url(#p06e8295a5a)" d="M 584.337232 239.429101 
L 584.337232 239.429101 
L 584.337232 229.658836 
L 584.337232 229.658836 
z
" style="fill:#96c69a;fill-opacity:0.5;stroke:#ffffff;stroke-linejoin:miter;stroke-width:0.977027;"/>
   </g>
   <g id="patch_59">
    <path clip-path="url(#p06e8295a5a)" d="M 584.337232 229.658836 
L 584.77764 229.658836 
L 584.77764 219.88857 
L 584.337232 219.88857 
z
" style="fill:#96c69a;fill-opacity:0.5;stroke:#ffffff;stroke-linejoin:miter;stroke-width:0.977027;"/>
   </g>
   <g id="patch_60">
    <path clip-path="url(#p06e8295a5a)" d="M 584.337232 219.88857 
L 584.77764 219.88857 
L 584.77764 210.118305 
L 584.337232 210.118305 
z
" style="fill:#96c69a;fill-opacity:0.5;stroke:#ffffff;stroke-linejoin:miter;stroke-width:0.977027;"/>
   </g>
   <g id="patch_61">
    <path clip-path="url(#p06e8295a5a)" d="M 584.337232 210.118305 
L 584.77764 210.118305 
L 584.77764 200.34804 
L 584.337232 200.34804 
z
" style="fill:#96c69a;fill-opacity:0.5;stroke:#ffffff;stroke-linejoin:miter;stroke-width:0.977027;"/>
   </g>
   <g id="patch_62">
    <path clip-path="url(#p06e8295a5a)" d="M 584.337232 200.34804 
L 585.218048 200.34804 
L 585.218048 190.577774 
L 584.337232 190.577774 
z
" style="fill:#96c69a;fill-opacity:0.5;stroke:#ffffff;stroke-linejoin:miter;stroke-width:0.977027;"/>
   </g>
   <g id="patch_63">
    <path clip-path="url(#p06e8295a5a)" d="M 584.337232 190.577774 
L 584.337232 190.577774 
L 584.337232 180.807509 
L 584.337232 180.807509 
z
" style="fill:#96c69a;fill-opacity:0.5;stroke:#ffffff;stroke-linejoin:miter;stroke-width:0.977027;"/>
   </g>
   <g id="patch_64">
    <path clip-path="url(#p06e8295a5a)" d="M 584.337232 180.807509 
L 584.337232 180.807509 
L 584.337232 171.037243 
L 584.337232 171.037243 
z
" style="fill:#96c69a;fill-opacity:0.5;stroke:#ffffff;stroke-linejoin:miter;stroke-width:0.977027;"/>
   </g>
   <g id="patch_65">
    <path clip-path="url(#p06e8295a5a)" d="M 584.337232 171.037243 
L 584.337232 171.037243 
L 584.337232 161.266978 
L 584.337232 161.266978 
z
" style="fill:#96c69a;fill-opacity:0.5;stroke:#ffffff;stroke-linejoin:miter;stroke-width:0.977027;"/>
   </g>
   <g id="patch_66">
    <path clip-path="url(#p06e8295a5a)" d="M 584.337232 161.266978 
L 584.337232 161.266978 
L 584.337232 151.496713 
L 584.337232 151.496713 
z
" style="fill:#96c69a;fill-opacity:0.5;stroke:#ffffff;stroke-linejoin:miter;stroke-width:0.977027;"/>
   </g>
   <g id="patch_67">
    <path clip-path="url(#p06e8295a5a)" d="M 584.337232 151.496713 
L 584.337232 151.496713 
L 584.337232 141.726447 
L 584.337232 141.726447 
z
" style="fill:#96c69a;fill-opacity:0.5;stroke:#ffffff;stroke-linejoin:miter;stroke-width:0.977027;"/>
   </g>
   <g id="patch_68">
    <path clip-path="url(#p06e8295a5a)" d="M 584.337232 141.726447 
L 584.77764 141.726447 
L 584.77764 131.956182 
L 584.337232 131.956182 
z
" style="fill:#96c69a;fill-opacity:0.5;stroke:#ffffff;stroke-linejoin:miter;stroke-width:0.977027;"/>
   </g>
   <g id="patch_69">
    <path d="M 584.337232 603.86 
L 584.337232 109.484571 
" style="fill:none;stroke:#262626;stroke-linecap:square;stroke-linejoin:miter;stroke-width:2.5;"/>
   </g>
   <g id="patch_70">
    <path d="M 584.337232 603.86 
L 667.574375 603.86 
" style="fill:none;stroke:#262626;stroke-linecap:square;stroke-linejoin:miter;stroke-width:2.5;"/>
   </g>
  </g>
 </g>
 <defs>
  <clipPath id="pea409895a4">
   <rect height="494.375429" width="482.775429" x="84.914375" y="109.484571"/>
  </clipPath>
  <clipPath id="p79512371cf">
   <rect height="85.237143" width="482.775429" x="84.914375" y="7.2"/>
  </clipPath>
  <clipPath id="p06e8295a5a">
   <rect height="494.375429" width="83.237143" x="584.337232" y="109.484571"/>
  </clipPath>
 </defs>
</svg>
