<?xml version="1.0" encoding="utf-8" standalone="no"?>
<!DOCTYPE svg PUBLIC "-//W3C//DTD SVG 1.1//EN"
  "http://www.w3.org/Graphics/SVG/1.1/DTD/svg11.dtd">
<svg height="675.079375pt" version="1.1" viewBox="0 0 674.774375 675.079375" width="674.774375pt" xmlns="http://www.w3.org/2000/svg" xmlns:xlink="http://www.w3.org/1999/xlink">
 <metadata>
  <rdf:RDF xmlns:cc="http://creativecommons.org/ns#" xmlns:dc="http://purl.org/dc/elements/1.1/" xmlns:rdf="http://www.w3.org/1999/02/22-rdf-syntax-ns#">
   <cc:Work>
    <dc:type rdf:resource="http://purl.org/dc/dcmitype/StillImage"/>
    <dc:date>2021-07-16T21:43:53.388876</dc:date>
    <dc:format>image/svg+xml</dc:format>
    <dc:creator>
     <cc:Agent>
      <dc:title>Matplotlib v3.4.2, https://matplotlib.org/</dc:title>
     </cc:Agent>
    </dc:creator>
   </cc:Work>
  </rdf:RDF>
 </metadata>
 <defs>
  <style type="text/css">*{stroke-linecap:butt;stroke-linejoin:round;}</style>
 </defs>
 <g id="figure_1">
  <g id="patch_1">
   <path d="M 0 675.079375 
L 674.774375 675.079375 
L 674.774375 0 
L 0 0 
z
" style="fill:#ffffff;"/>
  </g>
  <g id="axes_1">
   <g id="patch_2">
    <path d="M 84.914375 603.86 
L 567.689804 603.86 
L 567.689804 109.484571 
L 84.914375 109.484571 
z
" style="fill:none;"/>
   </g>
   <g id="matplotlib.axis_1">
    <g id="xtick_1">
     <g id="text_1">
      <!-- 0 -->
      <g style="fill:#262626;" transform="translate(99.64041 636.076563)scale(0.22 -0.22)">
       <defs>
        <path d="M 2034 4250 
Q 1547 4250 1301 3770 
Q 1056 3291 1056 2328 
Q 1056 1369 1301 889 
Q 1547 409 2034 409 
Q 2525 409 2770 889 
Q 3016 1369 3016 2328 
Q 3016 3291 2770 3770 
Q 2525 4250 2034 4250 
z
M 2034 4750 
Q 2819 4750 3233 4129 
Q 3647 3509 3647 2328 
Q 3647 1150 3233 529 
Q 2819 -91 2034 -91 
Q 1250 -91 836 529 
Q 422 1150 422 2328 
Q 422 3509 836 4129 
Q 1250 4750 2034 4750 
z
" id="DejaVuSans-30" transform="scale(0.015625)"/>
       </defs>
       <use xlink:href="#DejaVuSans-30"/>
      </g>
     </g>
    </g>
    <g id="xtick_2">
     <g id="text_2">
      <!-- 20000 -->
      <g style="fill:#262626;" transform="translate(159.466671 636.076563)scale(0.22 -0.22)">
       <defs>
        <path d="M 1228 531 
L 3431 531 
L 3431 0 
L 469 0 
L 469 531 
Q 828 903 1448 1529 
Q 2069 2156 2228 2338 
Q 2531 2678 2651 2914 
Q 2772 3150 2772 3378 
Q 2772 3750 2511 3984 
Q 2250 4219 1831 4219 
Q 1534 4219 1204 4116 
Q 875 4013 500 3803 
L 500 4441 
Q 881 4594 1212 4672 
Q 1544 4750 1819 4750 
Q 2544 4750 2975 4387 
Q 3406 4025 3406 3419 
Q 3406 3131 3298 2873 
Q 3191 2616 2906 2266 
Q 2828 2175 2409 1742 
Q 1991 1309 1228 531 
z
" id="DejaVuSans-32" transform="scale(0.015625)"/>
       </defs>
       <use xlink:href="#DejaVuSans-32"/>
       <use x="63.623047" xlink:href="#DejaVuSans-30"/>
       <use x="127.246094" xlink:href="#DejaVuSans-30"/>
       <use x="190.869141" xlink:href="#DejaVuSans-30"/>
       <use x="254.492188" xlink:href="#DejaVuSans-30"/>
      </g>
     </g>
    </g>
    <g id="xtick_3">
     <g id="text_3">
      <!-- 40000 -->
      <g style="fill:#262626;" transform="translate(247.287932 636.076563)scale(0.22 -0.22)">
       <defs>
        <path d="M 2419 4116 
L 825 1625 
L 2419 1625 
L 2419 4116 
z
M 2253 4666 
L 3047 4666 
L 3047 1625 
L 3713 1625 
L 3713 1100 
L 3047 1100 
L 3047 0 
L 2419 0 
L 2419 1100 
L 313 1100 
L 313 1709 
L 2253 4666 
z
" id="DejaVuSans-34" transform="scale(0.015625)"/>
       </defs>
       <use xlink:href="#DejaVuSans-34"/>
       <use x="63.623047" xlink:href="#DejaVuSans-30"/>
       <use x="127.246094" xlink:href="#DejaVuSans-30"/>
       <use x="190.869141" xlink:href="#DejaVuSans-30"/>
       <use x="254.492188" xlink:href="#DejaVuSans-30"/>
      </g>
     </g>
    </g>
    <g id="xtick_4">
     <g id="text_4">
      <!-- 60000 -->
      <g style="fill:#262626;" transform="translate(335.109193 636.076563)scale(0.22 -0.22)">
       <defs>
        <path d="M 2113 2584 
Q 1688 2584 1439 2293 
Q 1191 2003 1191 1497 
Q 1191 994 1439 701 
Q 1688 409 2113 409 
Q 2538 409 2786 701 
Q 3034 994 3034 1497 
Q 3034 2003 2786 2293 
Q 2538 2584 2113 2584 
z
M 3366 4563 
L 3366 3988 
Q 3128 4100 2886 4159 
Q 2644 4219 2406 4219 
Q 1781 4219 1451 3797 
Q 1122 3375 1075 2522 
Q 1259 2794 1537 2939 
Q 1816 3084 2150 3084 
Q 2853 3084 3261 2657 
Q 3669 2231 3669 1497 
Q 3669 778 3244 343 
Q 2819 -91 2113 -91 
Q 1303 -91 875 529 
Q 447 1150 447 2328 
Q 447 3434 972 4092 
Q 1497 4750 2381 4750 
Q 2619 4750 2861 4703 
Q 3103 4656 3366 4563 
z
" id="DejaVuSans-36" transform="scale(0.015625)"/>
       </defs>
       <use xlink:href="#DejaVuSans-36"/>
       <use x="63.623047" xlink:href="#DejaVuSans-30"/>
       <use x="127.246094" xlink:href="#DejaVuSans-30"/>
       <use x="190.869141" xlink:href="#DejaVuSans-30"/>
       <use x="254.492188" xlink:href="#DejaVuSans-30"/>
      </g>
     </g>
    </g>
    <g id="xtick_5">
     <g id="text_5">
      <!-- 80000 -->
      <g style="fill:#262626;" transform="translate(422.930455 636.076563)scale(0.22 -0.22)">
       <defs>
        <path d="M 2034 2216 
Q 1584 2216 1326 1975 
Q 1069 1734 1069 1313 
Q 1069 891 1326 650 
Q 1584 409 2034 409 
Q 2484 409 2743 651 
Q 3003 894 3003 1313 
Q 3003 1734 2745 1975 
Q 2488 2216 2034 2216 
z
M 1403 2484 
Q 997 2584 770 2862 
Q 544 3141 544 3541 
Q 544 4100 942 4425 
Q 1341 4750 2034 4750 
Q 2731 4750 3128 4425 
Q 3525 4100 3525 3541 
Q 3525 3141 3298 2862 
Q 3072 2584 2669 2484 
Q 3125 2378 3379 2068 
Q 3634 1759 3634 1313 
Q 3634 634 3220 271 
Q 2806 -91 2034 -91 
Q 1263 -91 848 271 
Q 434 634 434 1313 
Q 434 1759 690 2068 
Q 947 2378 1403 2484 
z
M 1172 3481 
Q 1172 3119 1398 2916 
Q 1625 2713 2034 2713 
Q 2441 2713 2670 2916 
Q 2900 3119 2900 3481 
Q 2900 3844 2670 4047 
Q 2441 4250 2034 4250 
Q 1625 4250 1398 4047 
Q 1172 3844 1172 3481 
z
" id="DejaVuSans-38" transform="scale(0.015625)"/>
       </defs>
       <use xlink:href="#DejaVuSans-38"/>
       <use x="63.623047" xlink:href="#DejaVuSans-30"/>
       <use x="127.246094" xlink:href="#DejaVuSans-30"/>
       <use x="190.869141" xlink:href="#DejaVuSans-30"/>
       <use x="254.492188" xlink:href="#DejaVuSans-30"/>
      </g>
     </g>
    </g>
    <g id="xtick_6">
     <g id="text_6">
      <!-- 100000 -->
      <g style="fill:#262626;" transform="translate(503.752966 636.076563)scale(0.22 -0.22)">
       <defs>
        <path d="M 794 531 
L 1825 531 
L 1825 4091 
L 703 3866 
L 703 4441 
L 1819 4666 
L 2450 4666 
L 2450 531 
L 3481 531 
L 3481 0 
L 794 0 
L 794 531 
z
" id="DejaVuSans-31" transform="scale(0.015625)"/>
       </defs>
       <use xlink:href="#DejaVuSans-31"/>
       <use x="63.623047" xlink:href="#DejaVuSans-30"/>
       <use x="127.246094" xlink:href="#DejaVuSans-30"/>
       <use x="190.869141" xlink:href="#DejaVuSans-30"/>
       <use x="254.492188" xlink:href="#DejaVuSans-30"/>
       <use x="318.115234" xlink:href="#DejaVuSans-30"/>
      </g>
     </g>
    </g>
    <g id="text_7">
     <!-- MDTU -->
     <g style="fill:#262626;" transform="translate(290.596464 662.888125)scale(0.24 -0.24)">
      <defs>
       <path d="M 628 4666 
L 1569 4666 
L 2759 1491 
L 3956 4666 
L 4897 4666 
L 4897 0 
L 4281 0 
L 4281 4097 
L 3078 897 
L 2444 897 
L 1241 4097 
L 1241 0 
L 628 0 
L 628 4666 
z
" id="DejaVuSans-4d" transform="scale(0.015625)"/>
       <path d="M 1259 4147 
L 1259 519 
L 2022 519 
Q 2988 519 3436 956 
Q 3884 1394 3884 2338 
Q 3884 3275 3436 3711 
Q 2988 4147 2022 4147 
L 1259 4147 
z
M 628 4666 
L 1925 4666 
Q 3281 4666 3915 4102 
Q 4550 3538 4550 2338 
Q 4550 1131 3912 565 
Q 3275 0 1925 0 
L 628 0 
L 628 4666 
z
" id="DejaVuSans-44" transform="scale(0.015625)"/>
       <path d="M -19 4666 
L 3928 4666 
L 3928 4134 
L 2272 4134 
L 2272 0 
L 1638 0 
L 1638 4134 
L -19 4134 
L -19 4666 
z
" id="DejaVuSans-54" transform="scale(0.015625)"/>
       <path d="M 556 4666 
L 1191 4666 
L 1191 1831 
Q 1191 1081 1462 751 
Q 1734 422 2344 422 
Q 2950 422 3222 751 
Q 3494 1081 3494 1831 
L 3494 4666 
L 4128 4666 
L 4128 1753 
Q 4128 841 3676 375 
Q 3225 -91 2344 -91 
Q 1459 -91 1007 375 
Q 556 841 556 1753 
L 556 4666 
z
" id="DejaVuSans-55" transform="scale(0.015625)"/>
      </defs>
      <use xlink:href="#DejaVuSans-4d"/>
      <use x="86.279297" xlink:href="#DejaVuSans-44"/>
      <use x="163.28125" xlink:href="#DejaVuSans-54"/>
      <use x="224.365234" xlink:href="#DejaVuSans-55"/>
     </g>
    </g>
   </g>
   <g id="matplotlib.axis_2">
    <g id="ytick_1">
     <g id="text_8">
      <!-- 0.3 -->
      <g style="fill:#262626;" transform="translate(34.4275 596.724239)scale(0.22 -0.22)">
       <defs>
        <path d="M 684 794 
L 1344 794 
L 1344 0 
L 684 0 
L 684 794 
z
" id="DejaVuSans-2e" transform="scale(0.015625)"/>
        <path d="M 2597 2516 
Q 3050 2419 3304 2112 
Q 3559 1806 3559 1356 
Q 3559 666 3084 287 
Q 2609 -91 1734 -91 
Q 1441 -91 1130 -33 
Q 819 25 488 141 
L 488 750 
Q 750 597 1062 519 
Q 1375 441 1716 441 
Q 2309 441 2620 675 
Q 2931 909 2931 1356 
Q 2931 1769 2642 2001 
Q 2353 2234 1838 2234 
L 1294 2234 
L 1294 2753 
L 1863 2753 
Q 2328 2753 2575 2939 
Q 2822 3125 2822 3475 
Q 2822 3834 2567 4026 
Q 2313 4219 1838 4219 
Q 1578 4219 1281 4162 
Q 984 4106 628 3988 
L 628 4550 
Q 988 4650 1302 4700 
Q 1616 4750 1894 4750 
Q 2613 4750 3031 4423 
Q 3450 4097 3450 3541 
Q 3450 3153 3228 2886 
Q 3006 2619 2597 2516 
z
" id="DejaVuSans-33" transform="scale(0.015625)"/>
       </defs>
       <use xlink:href="#DejaVuSans-30"/>
       <use x="63.623047" xlink:href="#DejaVuSans-2e"/>
       <use x="95.410156" xlink:href="#DejaVuSans-33"/>
      </g>
     </g>
    </g>
    <g id="ytick_2">
     <g id="text_9">
      <!-- 0.4 -->
      <g style="fill:#262626;" transform="translate(34.4275 541.591199)scale(0.22 -0.22)">
       <use xlink:href="#DejaVuSans-30"/>
       <use x="63.623047" xlink:href="#DejaVuSans-2e"/>
       <use x="95.410156" xlink:href="#DejaVuSans-34"/>
      </g>
     </g>
    </g>
    <g id="ytick_3">
     <g id="text_10">
      <!-- 0.5 -->
      <g style="fill:#262626;" transform="translate(34.4275 486.458159)scale(0.22 -0.22)">
       <defs>
        <path d="M 691 4666 
L 3169 4666 
L 3169 4134 
L 1269 4134 
L 1269 2991 
Q 1406 3038 1543 3061 
Q 1681 3084 1819 3084 
Q 2600 3084 3056 2656 
Q 3513 2228 3513 1497 
Q 3513 744 3044 326 
Q 2575 -91 1722 -91 
Q 1428 -91 1123 -41 
Q 819 9 494 109 
L 494 744 
Q 775 591 1075 516 
Q 1375 441 1709 441 
Q 2250 441 2565 725 
Q 2881 1009 2881 1497 
Q 2881 1984 2565 2268 
Q 2250 2553 1709 2553 
Q 1456 2553 1204 2497 
Q 953 2441 691 2322 
L 691 4666 
z
" id="DejaVuSans-35" transform="scale(0.015625)"/>
       </defs>
       <use xlink:href="#DejaVuSans-30"/>
       <use x="63.623047" xlink:href="#DejaVuSans-2e"/>
       <use x="95.410156" xlink:href="#DejaVuSans-35"/>
      </g>
     </g>
    </g>
    <g id="ytick_4">
     <g id="text_11">
      <!-- 0.6 -->
      <g style="fill:#262626;" transform="translate(34.4275 431.32512)scale(0.22 -0.22)">
       <use xlink:href="#DejaVuSans-30"/>
       <use x="63.623047" xlink:href="#DejaVuSans-2e"/>
       <use x="95.410156" xlink:href="#DejaVuSans-36"/>
      </g>
     </g>
    </g>
    <g id="ytick_5">
     <g id="text_12">
      <!-- 0.7 -->
      <g style="fill:#262626;" transform="translate(34.4275 376.19208)scale(0.22 -0.22)">
       <defs>
        <path d="M 525 4666 
L 3525 4666 
L 3525 4397 
L 1831 0 
L 1172 0 
L 2766 4134 
L 525 4134 
L 525 4666 
z
" id="DejaVuSans-37" transform="scale(0.015625)"/>
       </defs>
       <use xlink:href="#DejaVuSans-30"/>
       <use x="63.623047" xlink:href="#DejaVuSans-2e"/>
       <use x="95.410156" xlink:href="#DejaVuSans-37"/>
      </g>
     </g>
    </g>
    <g id="ytick_6">
     <g id="text_13">
      <!-- 0.8 -->
      <g style="fill:#262626;" transform="translate(34.4275 321.05904)scale(0.22 -0.22)">
       <use xlink:href="#DejaVuSans-30"/>
       <use x="63.623047" xlink:href="#DejaVuSans-2e"/>
       <use x="95.410156" xlink:href="#DejaVuSans-38"/>
      </g>
     </g>
    </g>
    <g id="ytick_7">
     <g id="text_14">
      <!-- 0.9 -->
      <g style="fill:#262626;" transform="translate(34.4275 265.926)scale(0.22 -0.22)">
       <defs>
        <path d="M 703 97 
L 703 672 
Q 941 559 1184 500 
Q 1428 441 1663 441 
Q 2288 441 2617 861 
Q 2947 1281 2994 2138 
Q 2813 1869 2534 1725 
Q 2256 1581 1919 1581 
Q 1219 1581 811 2004 
Q 403 2428 403 3163 
Q 403 3881 828 4315 
Q 1253 4750 1959 4750 
Q 2769 4750 3195 4129 
Q 3622 3509 3622 2328 
Q 3622 1225 3098 567 
Q 2575 -91 1691 -91 
Q 1453 -91 1209 -44 
Q 966 3 703 97 
z
M 1959 2075 
Q 2384 2075 2632 2365 
Q 2881 2656 2881 3163 
Q 2881 3666 2632 3958 
Q 2384 4250 1959 4250 
Q 1534 4250 1286 3958 
Q 1038 3666 1038 3163 
Q 1038 2656 1286 2365 
Q 1534 2075 1959 2075 
z
" id="DejaVuSans-39" transform="scale(0.015625)"/>
       </defs>
       <use xlink:href="#DejaVuSans-30"/>
       <use x="63.623047" xlink:href="#DejaVuSans-2e"/>
       <use x="95.410156" xlink:href="#DejaVuSans-39"/>
      </g>
     </g>
    </g>
    <g id="ytick_8">
     <g id="text_15">
      <!-- 1.0 -->
      <g style="fill:#262626;" transform="translate(34.4275 210.792961)scale(0.22 -0.22)">
       <use xlink:href="#DejaVuSans-31"/>
       <use x="63.623047" xlink:href="#DejaVuSans-2e"/>
       <use x="95.410156" xlink:href="#DejaVuSans-30"/>
      </g>
     </g>
    </g>
    <g id="ytick_9">
     <g id="text_16">
      <!-- 1.1 -->
      <g style="fill:#262626;" transform="translate(34.4275 155.659921)scale(0.22 -0.22)">
       <use xlink:href="#DejaVuSans-31"/>
       <use x="63.623047" xlink:href="#DejaVuSans-2e"/>
       <use x="95.410156" xlink:href="#DejaVuSans-31"/>
      </g>
     </g>
    </g>
    <g id="text_17">
     <!-- $E$ -->
     <g style="fill:#262626;" transform="translate(25.43625 364.352286)rotate(-90)scale(0.24 -0.24)">
      <defs>
       <path d="M 1081 4666 
L 4031 4666 
L 3928 4134 
L 1606 4134 
L 1338 2753 
L 3566 2753 
L 3463 2222 
L 1234 2222 
L 909 531 
L 3284 531 
L 3181 0 
L 172 0 
L 1081 4666 
z
" id="DejaVuSans-Oblique-45" transform="scale(0.015625)"/>
      </defs>
      <use transform="translate(0 0.09375)" xlink:href="#DejaVuSans-Oblique-45"/>
     </g>
    </g>
   </g>
   <g id="line2d_1">
    <path clip-path="url(#pc1fc93ff1a)" d="M 106.858713 386.654351 
L 107.078266 381.156424 
L 107.517372 462.259653 
L 107.736925 444.389632 
L 107.956478 360.887466 
L 108.176032 450.881198 
L 108.395585 451.210131 
L 108.615138 466.924109 
L 108.834691 436.896341 
L 109.054244 479.199619 
L 109.273797 456.927113 
L 109.493351 368.153934 
L 109.712904 463.075514 
L 109.932457 394.61754 
L 110.15201 389.435947 
L 110.371563 475.219813 
L 110.591116 505.203751 
L 110.810669 411.604998 
L 111.030223 532.007384 
L 111.249776 496.999257 
L 111.469329 398.552687 
L 111.688882 558.259897 
L 111.908435 398.016878 
L 112.127988 467.678534 
L 112.347541 435.33577 
L 112.567095 425.472253 
L 112.786648 491.414547 
L 113.006201 409.49302 
L 113.225754 493.20434 
L 113.445307 418.286119 
L 113.884414 518.811164 
L 114.103967 461.692245 
L 114.32352 326.204398 
L 114.543073 471.887569 
L 114.762626 419.599909 
L 114.982179 435.196528 
L 115.201732 435.291435 
L 115.421286 455.418726 
L 115.640839 448.105866 
L 115.860392 502.287978 
L 116.079945 498.909788 
L 116.299498 432.586758 
L 116.519051 401.840556 
L 116.738605 452.380346 
L 116.958158 457.770002 
L 117.177711 445.848424 
L 117.397264 360.882162 
L 117.616817 421.412751 
L 117.83637 422.999895 
L 118.055923 468.994411 
L 118.275477 468.47923 
L 118.49503 439.116492 
L 118.714583 458.978531 
L 118.934136 401.626901 
L 119.153689 491.867928 
L 119.373242 466.309286 
L 119.592796 388.084231 
L 119.812349 401.294886 
L 120.031902 519.564107 
L 120.471008 264.849357 
L 120.910114 471.566916 
L 121.129668 446.859078 
L 121.349221 496.248161 
L 121.568774 314.359424 
L 121.788327 404.71 
L 122.00788 371.73363 
L 122.227433 460.639021 
L 122.446987 498.718074 
L 122.66654 359.687211 
L 122.886093 441.486644 
L 123.105646 426.142579 
L 123.325199 500.803257 
L 123.544752 498.545689 
L 123.764305 454.689456 
L 123.983859 463.220817 
L 124.203412 509.882713 
L 124.642518 410.555985 
L 124.862071 486.939202 
L 125.081624 490.270578 
L 125.301178 388.959413 
L 125.520731 514.400423 
L 125.740284 315.048141 
L 125.959837 516.446797 
L 126.17939 459.181524 
L 126.398943 362.049061 
L 126.618496 399.625275 
L 127.057603 366.030355 
L 127.496709 452.447632 
L 127.716262 436.758066 
L 127.935815 459.346929 
L 128.155369 464.510091 
L 128.374922 360.62749 
L 128.594475 427.901686 
L 128.814028 386.869083 
L 129.253134 500.660422 
L 129.472687 487.88559 
L 129.692241 348.387589 
L 129.911794 444.163486 
L 130.3509 371.402037 
L 130.570453 477.575834 
L 130.790006 520.303071 
L 131.00956 375.512796 
L 131.229113 440.795224 
L 131.448666 420.783828 
L 131.668219 507.433257 
L 131.887772 423.466394 
L 132.107325 417.443938 
L 132.326878 477.98734 
L 132.546432 399.234091 
L 132.765985 519.464179 
L 132.985538 437.518069 
L 133.205091 442.877272 
L 133.424644 473.627217 
L 133.644197 131.956182 
L 133.863751 419.405027 
L 134.083304 478.717566 
L 134.302857 330.7298 
L 134.52241 436.356491 
L 134.741963 421.613604 
L 134.961516 485.006159 
L 135.181069 472.985668 
L 135.620176 415.727828 
L 135.839729 443.188967 
L 136.059282 446.867599 
L 136.278835 440.97169 
L 136.498388 445.242134 
L 136.717941 427.887619 
L 136.937495 445.234175 
L 137.157048 504.637655 
L 137.376601 487.386256 
L 137.596154 409.843686 
L 137.815707 494.103691 
L 138.03526 373.441193 
L 138.254814 504.289176 
L 138.474367 452.347384 
L 138.69392 488.733153 
L 139.133026 349.605818 
L 139.352579 441.528641 
L 139.572132 418.198294 
L 139.791686 478.677043 
L 140.230792 519.325227 
L 140.450345 486.388942 
L 140.669898 432.818795 
L 140.889451 468.972861 
L 141.109005 423.139757 
L 141.328558 448.149142 
L 141.548111 379.398575 
L 141.767664 383.994944 
L 141.987217 421.194207 
L 142.20677 504.456829 
L 142.426323 508.883534 
L 142.645877 457.230691 
L 142.86543 317.590981 
L 143.084983 406.267955 
L 143.304536 435.104269 
L 143.524089 380.484319 
L 143.743642 412.044725 
L 143.963196 377.50609 
L 144.182749 443.549811 
L 144.402302 359.012536 
L 144.621855 433.951439 
L 144.841408 451.018974 
L 145.060961 442.331779 
L 145.280514 439.324171 
L 145.500068 517.322508 
L 145.719621 456.977385 
L 145.939174 459.417774 
L 146.158727 402.145901 
L 146.37828 450.992786 
L 146.597833 437.092624 
L 146.817387 468.215669 
L 147.03694 359.882452 
L 147.256493 482.108986 
L 147.476046 508.317211 
L 147.695599 496.712376 
L 147.915152 472.771527 
L 148.354259 335.125948 
L 148.573812 454.748215 
L 148.793365 450.207593 
L 149.012918 419.698632 
L 149.232471 436.427242 
L 149.452024 371.708871 
L 149.671578 383.332275 
L 149.891131 471.305627 
L 150.110684 508.418738 
L 150.330237 449.818865 
L 150.54979 446.43716 
L 150.769343 467.459475 
L 150.988896 546.955588 
L 151.20845 541.645205 
L 151.647556 418.244427 
L 151.867109 379.740922 
L 152.086662 375.104154 
L 152.306215 311.386403 
L 152.525769 493.557521 
L 152.745322 436.232208 
L 152.964875 443.169984 
L 153.184428 481.965181 
L 153.403981 431.288131 
L 153.623534 445.437749 
L 153.843087 508.250361 
L 154.062641 327.415309 
L 154.501747 498.991696 
L 154.7213 409.372822 
L 155.160406 459.044428 
L 155.37996 460.203832 
L 155.599513 474.588268 
L 155.819066 460.773878 
L 156.038619 516.411639 
L 156.477725 403.340954 
L 156.916832 497.028845 
L 157.136385 489.164052 
L 157.355938 341.102794 
L 157.575491 404.32304 
L 157.795044 414.730253 
L 158.014597 466.149405 
L 158.234151 418.927879 
L 158.453704 484.947513 
L 158.673257 484.582441 
L 159.112363 326.544363 
L 159.331916 482.759327 
L 159.551469 480.092175 
L 159.771023 448.604576 
L 159.990576 443.195046 
L 160.210129 405.144026 
L 160.429682 395.228729 
L 160.649235 496.646518 
L 160.868788 337.100104 
L 161.088342 528.112654 
L 161.307895 455.179682 
L 161.527448 506.34626 
L 161.747001 444.591166 
L 161.966554 493.403139 
L 162.186107 446.517274 
L 162.40566 440.932534 
L 162.625214 419.59851 
L 162.844767 449.397645 
L 163.06432 429.891961 
L 163.283873 398.065155 
L 163.503426 397.303802 
L 163.722979 415.927416 
L 163.942532 485.733067 
L 164.381639 470.734838 
L 164.601192 469.448895 
L 164.820745 380.15171 
L 165.040298 444.951339 
L 165.259851 429.779508 
L 165.479405 366.77809 
L 165.698958 434.649428 
L 165.918511 451.077797 
L 166.138064 391.248398 
L 166.57717 432.728528 
L 166.796723 468.990674 
L 167.016277 339.209486 
L 167.23583 556.69241 
L 167.455383 455.082812 
L 167.674936 469.077015 
L 167.894489 468.06646 
L 168.114042 376.941748 
L 168.333596 364.656845 
L 168.553149 342.389491 
L 168.992255 469.076135 
L 169.211808 403.227634 
L 169.431361 376.471959 
L 169.650914 401.672728 
L 169.870468 470.690696 
L 170.090021 462.698923 
L 170.309574 518.204508 
L 170.529127 486.16061 
L 170.74868 430.889408 
L 170.968233 438.392837 
L 171.187787 513.313593 
L 171.40734 351.062296 
L 171.626893 444.862648 
L 171.846446 412.689737 
L 172.065999 484.449566 
L 172.505105 371.282662 
L 172.724659 348.646712 
L 172.944212 529.915764 
L 173.163765 352.876418 
L 173.383318 367.45162 
L 173.602871 520.170788 
L 174.041978 417.713645 
L 174.261531 406.943504 
L 174.481084 509.337975 
L 174.92019 359.845748 
L 175.139743 531.690738 
L 175.57885 404.968796 
L 175.798403 415.811143 
L 176.017956 486.234606 
L 176.237509 366.731454 
L 176.457062 542.103171 
L 176.676615 433.097699 
L 176.896169 466.652015 
L 177.115722 396.674653 
L 177.335275 499.618868 
L 177.554828 397.426326 
L 177.774381 442.618811 
L 177.993934 531.733115 
L 178.213487 477.417368 
L 178.433041 385.697021 
L 178.872147 482.715109 
L 179.0917 380.666848 
L 179.311253 505.598571 
L 179.530806 457.001502 
L 179.75036 300.520056 
L 179.969913 470.142197 
L 180.189466 439.982082 
L 180.409019 461.945426 
L 180.628572 458.031202 
L 180.848125 416.829962 
L 181.067678 396.929422 
L 181.287232 301.668431 
L 181.506785 475.91923 
L 181.726338 474.072218 
L 181.945891 495.322652 
L 182.165444 377.156804 
L 182.384997 391.661563 
L 182.604551 478.569887 
L 182.824104 439.583046 
L 183.043657 482.958293 
L 183.26321 422.400812 
L 183.482763 509.46614 
L 183.702316 423.720221 
L 183.921869 465.096028 
L 184.141423 468.23375 
L 184.360976 517.411751 
L 184.580529 537.470987 
L 184.800082 409.098174 
L 185.019635 351.910055 
L 185.239188 465.058793 
L 185.458742 309.040014 
L 185.678295 436.934704 
L 185.897848 458.269522 
L 186.117401 317.736372 
L 186.336954 451.717043 
L 186.77606 363.998707 
L 186.995614 520.45019 
L 187.215167 345.096735 
L 187.43472 366.250678 
L 187.654273 486.014346 
L 187.873826 379.563519 
L 188.312932 509.083474 
L 188.532486 455.24577 
L 188.752039 429.193563 
L 188.971592 516.341904 
L 189.191145 458.720529 
L 189.410698 362.961161 
L 189.630251 374.590361 
L 189.849805 512.339361 
L 190.069358 491.443282 
L 190.288911 448.63499 
L 190.508464 435.947639 
L 190.728017 333.608738 
L 190.94757 443.21152 
L 191.167123 477.912264 
L 191.60623 424.018803 
L 191.825783 525.778159 
L 192.045336 382.541846 
L 192.264889 517.076118 
L 192.484442 366.232856 
L 192.703996 320.838176 
L 192.923549 475.796744 
L 193.143102 482.499595 
L 193.362655 406.616175 
L 193.582208 503.163705 
L 193.801761 475.366591 
L 194.021314 503.766954 
L 194.460421 405.100217 
L 194.679974 522.744908 
L 194.899527 369.158944 
L 195.338633 504.355582 
L 195.558187 405.604973 
L 195.997293 467.884707 
L 196.216846 348.812391 
L 196.436399 446.859211 
L 196.655952 343.057789 
L 197.095059 456.151699 
L 197.314612 338.458915 
L 197.534165 354.401706 
L 197.753718 292.373383 
L 197.973271 428.815786 
L 198.192824 426.557564 
L 198.412378 464.771678 
L 198.631931 380.893709 
L 198.851484 540.116542 
L 199.071037 351.399653 
L 199.29059 455.624093 
L 199.510143 468.855039 
L 199.729696 472.873702 
L 199.94925 485.718427 
L 200.168803 472.839272 
L 200.388356 324.941067 
L 200.607909 396.915768 
L 200.827462 394.049797 
L 201.047015 410.883051 
L 201.266569 253.144325 
L 201.486122 387.805509 
L 201.925228 471.757237 
L 202.144781 401.029301 
L 202.364334 443.409029 
L 202.583887 377.327108 
L 202.803441 490.423926 
L 203.022994 470.612601 
L 203.242547 399.06706 
L 203.4621 491.954679 
L 203.681653 425.392668 
L 203.901206 475.876158 
L 204.12076 333.033683 
L 204.340313 383.7917 
L 204.559866 370.346285 
L 204.779419 364.857233 
L 204.998972 482.485485 
L 205.218525 455.045251 
L 205.438078 541.999945 
L 205.657632 353.207915 
L 206.096738 470.233194 
L 206.316291 401.068865 
L 206.535844 533.124127 
L 206.755397 310.142926 
L 206.974951 419.627259 
L 207.194504 422.550138 
L 207.414057 467.190244 
L 207.63361 402.497957 
L 207.853163 454.283291 
L 208.072716 413.987251 
L 208.292269 329.115978 
L 208.511823 412.594674 
L 208.731376 412.755831 
L 208.950929 479.954375 
L 209.170482 479.401997 
L 209.390035 452.063451 
L 209.609588 266.69585 
L 209.829142 435.297044 
L 210.048695 415.246867 
L 210.268248 448.336379 
L 210.487801 448.727736 
L 210.707354 480.400765 
L 210.926907 430.748402 
L 211.14646 426.692195 
L 211.366014 490.540458 
L 211.585567 476.66618 
L 212.024673 416.688409 
L 212.244226 446.422093 
L 212.463779 401.112786 
L 212.683333 432.51991 
L 212.902886 366.462613 
L 213.122439 461.032588 
L 213.561545 536.281902 
L 213.781098 366.720418 
L 214.000651 488.560981 
L 214.220205 342.236273 
L 214.439758 429.204185 
L 214.659311 405.731233 
L 214.878864 470.289035 
L 215.098417 457.741856 
L 215.31797 490.377791 
L 215.537523 435.479644 
L 215.757077 419.686683 
L 215.97663 415.658935 
L 216.196183 328.626639 
L 216.415736 514.715224 
L 216.635289 512.885217 
L 216.854842 449.379647 
L 217.074396 429.049028 
L 217.293949 377.117299 
L 217.513502 542.555805 
L 217.733055 409.801493 
L 217.952608 474.246648 
L 218.391714 368.384856 
L 218.611268 375.325178 
L 218.830821 404.690526 
L 219.050374 559.645527 
L 219.269927 473.775709 
L 219.48948 510.214565 
L 219.709033 450.420589 
L 219.928587 497.475101 
L 220.367693 332.399883 
L 220.587246 451.353626 
L 221.026352 370.244215 
L 221.465459 512.717956 
L 221.685012 481.299274 
L 221.904565 429.892519 
L 222.124118 404.667064 
L 222.343671 304.476443 
L 222.563224 441.950297 
L 222.782778 458.412937 
L 223.002331 524.306269 
L 223.221884 473.09038 
L 223.441437 461.413097 
L 223.66099 391.919026 
L 223.880543 407.916374 
L 224.100096 407.792377 
L 224.539203 456.842628 
L 224.758756 404.065899 
L 224.978309 462.232794 
L 225.197862 419.164671 
L 225.417415 405.57063 
L 225.636969 351.399721 
L 225.856522 477.709475 
L 226.076075 525.61075 
L 226.295628 380.822852 
L 226.515181 477.927277 
L 226.734734 413.788388 
L 226.954287 492.98153 
L 227.173841 508.946946 
L 227.393394 470.406593 
L 227.612947 479.379554 
L 227.8325 420.416198 
L 228.052053 440.557387 
L 228.271606 413.554008 
L 228.49116 472.262798 
L 228.710713 442.868296 
L 228.930266 443.755289 
L 229.149819 455.101561 
L 229.369372 418.835767 
L 229.588925 403.158138 
L 230.028032 509.914569 
L 230.247585 421.595047 
L 230.467138 523.736382 
L 230.686691 502.440919 
L 230.906244 350.670579 
L 231.125797 446.383324 
L 231.345351 490.615811 
L 231.564904 400.262539 
L 231.784457 389.640327 
L 232.00401 330.940766 
L 232.223563 428.998113 
L 232.443116 407.561928 
L 232.662669 508.819977 
L 232.882223 436.564601 
L 233.101776 411.24704 
L 233.321329 464.942962 
L 233.540882 570.624437 
L 233.760435 323.102588 
L 233.979988 547.333859 
L 234.199542 423.645512 
L 234.419095 477.418523 
L 234.638648 485.810132 
L 234.858201 502.593566 
L 235.297307 417.677295 
L 235.51686 392.612916 
L 235.736414 530.421338 
L 235.955967 521.682929 
L 236.17552 540.134606 
L 236.395073 422.153997 
L 236.834179 486.500471 
L 237.053733 488.884307 
L 237.273286 427.33578 
L 237.492839 420.035341 
L 237.712392 403.603061 
L 238.151498 513.689497 
L 238.371051 444.270058 
L 238.590605 426.385647 
L 238.810158 455.86981 
L 239.029711 470.083594 
L 239.249264 449.173215 
L 239.468817 502.301039 
L 239.68837 416.684839 
L 239.907924 444.719523 
L 240.127477 339.289894 
L 240.34703 391.186001 
L 240.566583 520.875281 
L 240.786136 480.435247 
L 241.005689 468.52625 
L 241.225242 473.947736 
L 241.444796 524.450886 
L 241.664349 453.74431 
L 241.883902 480.78861 
L 242.103455 447.126422 
L 242.323008 508.462769 
L 242.542561 390.899161 
L 242.762114 422.216806 
L 242.981668 372.862418 
L 243.201221 398.253228 
L 243.420774 473.372075 
L 243.640327 465.633448 
L 243.85988 402.556424 
L 244.079433 534.018383 
L 244.298987 353.497796 
L 244.51854 502.805342 
L 244.738093 420.82993 
L 244.957646 416.270752 
L 245.177199 434.502849 
L 245.396752 400.67178 
L 245.616305 400.284255 
L 245.835859 418.391615 
L 246.055412 449.232173 
L 246.274965 515.49219 
L 246.494518 428.228097 
L 246.714071 404.599527 
L 246.933624 472.852595 
L 247.372731 365.356717 
L 247.592284 479.341416 
L 247.811837 448.998954 
L 248.03139 464.831957 
L 248.250943 443.450251 
L 248.470496 444.919885 
L 248.69005 425.333705 
L 248.909603 327.710002 
L 249.348709 465.269723 
L 249.568262 438.730976 
L 249.787815 535.408254 
L 250.007369 460.484159 
L 250.226922 450.090947 
L 250.446475 423.511234 
L 250.666028 417.369549 
L 250.885581 496.447509 
L 251.105134 523.564672 
L 251.324687 407.40433 
L 251.763794 514.603948 
L 251.983347 458.31603 
L 252.2029 449.041464 
L 252.422453 391.492212 
L 252.642006 459.504313 
L 252.86156 454.872527 
L 253.081113 359.370966 
L 253.300666 475.678744 
L 253.520219 422.29701 
L 253.739772 525.010273 
L 254.178878 464.528333 
L 254.398432 323.605768 
L 254.617985 403.167292 
L 254.837538 405.698216 
L 255.057091 374.664976 
L 255.276644 509.683737 
L 255.496197 396.491718 
L 255.715751 432.068472 
L 255.935304 526.436304 
L 256.154857 496.354353 
L 256.37441 431.664169 
L 256.593963 459.958761 
L 256.813516 273.44453 
L 257.033069 482.111007 
L 257.252623 510.461595 
L 257.472176 351.548521 
L 257.691729 451.061487 
L 257.911282 493.866665 
L 258.130835 402.128346 
L 258.350388 489.672578 
L 258.569942 492.452981 
L 258.789495 395.408589 
L 259.009048 513.777343 
L 259.228601 403.989669 
L 259.448154 497.604308 
L 259.88726 332.28396 
L 260.106814 437.02383 
L 260.326367 384.70365 
L 260.54592 472.607022 
L 260.765473 415.084242 
L 260.985026 527.508961 
L 261.204579 336.401563 
L 261.424133 431.363889 
L 261.643686 452.573189 
L 261.863239 394.4393 
L 262.082792 434.669822 
L 262.302345 500.178639 
L 262.521898 438.898892 
L 262.961005 427.462296 
L 263.180558 434.861381 
L 263.400111 489.602912 
L 263.839217 409.321119 
L 264.05877 463.802059 
L 264.278324 354.95617 
L 264.71743 499.322317 
L 264.936983 415.762864 
L 265.156536 399.594077 
L 265.376089 444.420746 
L 265.595642 400.177427 
L 265.815196 391.063271 
L 266.034749 473.364271 
L 266.254302 353.117766 
L 266.473855 467.916169 
L 266.693408 414.006132 
L 266.912961 331.778299 
L 267.132514 348.690789 
L 267.352068 457.721792 
L 267.571621 420.80709 
L 267.791174 411.775088 
L 268.010727 315.520193 
L 268.23028 498.118595 
L 268.449833 489.461302 
L 268.669387 440.88755 
L 268.88894 459.951548 
L 269.108493 501.237201 
L 269.328046 438.174901 
L 269.547599 452.050907 
L 269.767152 441.541021 
L 269.986705 398.320367 
L 270.206259 420.488611 
L 270.425812 404.44423 
L 270.645365 318.763412 
L 270.864918 478.866397 
L 271.084471 516.87187 
L 271.304024 394.529398 
L 271.523578 487.340245 
L 271.743131 462.301475 
L 271.962684 496.199999 
L 272.182237 282.986629 
L 272.40179 491.038636 
L 272.840896 470.947119 
L 273.06045 460.562021 
L 273.280003 358.900593 
L 273.499556 382.802917 
L 273.719109 468.045251 
L 273.938662 397.469973 
L 274.158215 419.018009 
L 274.377769 467.570846 
L 274.597322 465.942056 
L 274.816875 456.50947 
L 275.036428 469.543338 
L 275.255981 440.845566 
L 275.475534 441.784725 
L 275.695087 356.580051 
L 275.914641 489.7194 
L 276.134194 454.027913 
L 276.353747 541.297628 
L 276.5733 455.451707 
L 276.792853 503.954299 
L 277.012406 425.515333 
L 277.23196 440.633161 
L 277.451513 522.489496 
L 277.671066 418.921133 
L 277.890619 474.714739 
L 278.110172 425.73567 
L 278.329725 409.073696 
L 278.549278 371.019806 
L 278.768832 501.994908 
L 278.988385 462.446566 
L 279.207938 488.049726 
L 279.427491 349.579167 
L 279.647044 442.114543 
L 279.866597 405.354509 
L 280.086151 488.272326 
L 280.305704 393.210964 
L 280.525257 389.289316 
L 280.74481 392.068924 
L 280.964363 403.350121 
L 281.183916 482.340557 
L 281.403469 306.414351 
L 281.623023 500.168324 
L 281.842576 424.749719 
L 282.062129 436.670909 
L 282.281682 370.208153 
L 282.501235 484.961777 
L 282.720788 452.976944 
L 282.940342 438.572368 
L 283.159895 452.337253 
L 283.379448 495.352901 
L 283.599001 337.425662 
L 283.818554 445.037555 
L 284.038107 456.679034 
L 284.25766 434.268151 
L 284.477214 444.330651 
L 284.696767 400.351398 
L 284.91632 478.677977 
L 285.135873 510.187076 
L 285.355426 426.272582 
L 285.574979 500.919527 
L 285.794533 491.214951 
L 286.014086 400.62359 
L 286.233639 499.86086 
L 286.672745 428.303494 
L 286.892298 362.147465 
L 287.111851 425.16394 
L 287.331405 454.551993 
L 287.770511 475.490419 
L 287.990064 393.541477 
L 288.209617 494.245015 
L 288.42917 440.991361 
L 288.648724 444.058348 
L 288.868277 479.609278 
L 289.08783 315.456869 
L 289.307383 450.940568 
L 289.526936 391.37567 
L 289.746489 434.744231 
L 289.966042 393.929098 
L 290.185596 420.610618 
L 290.405149 507.870658 
L 290.624702 360.04935 
L 290.844255 357.781795 
L 291.063808 442.72316 
L 291.283361 389.161672 
L 291.502915 294.488499 
L 291.722468 528.147672 
L 291.942021 480.218262 
L 292.161574 513.269795 
L 292.820233 338.726862 
L 293.039787 501.64532 
L 293.25934 440.191688 
L 293.478893 522.656121 
L 293.698446 432.940976 
L 293.917999 403.702191 
L 294.137552 438.417346 
L 294.357105 384.748951 
L 294.796212 443.267348 
L 295.015765 429.533572 
L 295.235318 404.424037 
L 295.454871 459.752813 
L 295.674424 370.082775 
L 295.893978 471.174405 
L 296.113531 487.721275 
L 296.333084 411.327385 
L 296.552637 456.000158 
L 296.77219 477.284813 
L 297.211296 439.682595 
L 297.43085 445.298471 
L 297.650403 430.118924 
L 297.869956 367.740904 
L 298.089509 413.858256 
L 298.309062 487.996088 
L 298.528615 494.330512 
L 298.748169 450.104781 
L 298.967722 470.66231 
L 299.187275 342.057442 
L 299.406828 338.636914 
L 299.626381 326.359604 
L 299.845934 429.06266 
L 300.065487 423.844561 
L 300.285041 476.045063 
L 300.504594 426.996958 
L 300.724147 466.960192 
L 300.9437 418.752159 
L 301.163253 442.323402 
L 301.382806 412.480175 
L 301.60236 427.807704 
L 301.821913 456.834714 
L 302.041466 504.260232 
L 302.261019 408.84965 
L 302.480572 392.881672 
L 302.700125 483.85844 
L 302.919678 523.760616 
L 303.139232 391.58792 
L 303.358785 368.664884 
L 303.578338 386.321583 
L 303.797891 507.436627 
L 304.017444 392.520583 
L 304.456551 421.717053 
L 304.676104 516.384472 
L 304.895657 441.35739 
L 305.11521 445.902895 
L 305.554316 318.375692 
L 305.773869 482.954876 
L 305.993423 513.150863 
L 306.432529 395.144967 
L 306.871635 494.165982 
L 307.310742 407.711515 
L 308.188954 489.89647 
L 308.408507 485.468182 
L 308.62806 388.604655 
L 308.847614 490.494494 
L 309.067167 495.843022 
L 309.28672 447.925459 
L 309.506273 435.539683 
L 309.725826 495.701291 
L 309.945379 395.010567 
L 310.164933 406.398426 
L 310.384486 368.575491 
L 310.604039 449.676501 
L 310.823592 346.374719 
L 311.043145 420.970513 
L 311.262698 425.427211 
L 311.482251 390.463613 
L 311.701805 428.902592 
L 311.921358 433.520889 
L 312.140911 515.307306 
L 312.360464 493.299623 
L 312.580017 455.619042 
L 312.79957 447.061236 
L 313.019124 476.565279 
L 313.238677 448.056491 
L 313.45823 475.076515 
L 313.677783 549.308086 
L 313.897336 430.077929 
L 314.116889 427.7086 
L 314.336442 379.242 
L 314.555996 454.328311 
L 314.775549 380.617913 
L 314.995102 392.191843 
L 315.214655 499.466371 
L 315.653761 418.279156 
L 315.873315 411.75284 
L 316.092868 433.962036 
L 316.312421 481.656051 
L 316.531974 318.485291 
L 316.751527 474.3826 
L 317.190633 401.631349 
L 317.410187 466.385231 
L 317.62974 414.761736 
L 317.849293 389.741717 
L 318.068846 477.835913 
L 318.288399 328.685637 
L 318.507952 482.355926 
L 318.727506 386.907615 
L 318.947059 482.268585 
L 319.166612 482.634411 
L 319.386165 487.404174 
L 319.605718 432.407392 
L 319.825271 484.379852 
L 320.044824 464.263798 
L 320.483931 386.925463 
L 320.703484 470.429125 
L 320.923037 399.88466 
L 321.14259 495.517187 
L 321.581696 435.589611 
L 321.80125 479.05437 
L 322.020803 439.919377 
L 322.240356 540.313347 
L 322.459909 435.074425 
L 322.679462 437.769118 
L 322.899015 517.724633 
L 323.118569 411.3876 
L 323.557675 495.74073 
L 323.777228 466.988663 
L 323.996781 273.583852 
L 324.216334 520.063111 
L 324.435887 402.22134 
L 324.655441 370.205919 
L 324.874994 490.071687 
L 325.094547 497.012341 
L 325.3141 372.958066 
L 325.533653 457.122397 
L 325.753206 491.366174 
L 325.97276 459.014082 
L 326.192313 482.192671 
L 326.411866 406.902712 
L 326.631419 424.386281 
L 326.850972 376.489701 
L 327.070525 525.061201 
L 327.290078 466.876008 
L 327.509632 332.082563 
L 327.729185 327.315346 
L 327.948738 531.529127 
L 328.387844 358.149962 
L 328.826951 478.189756 
L 329.046504 456.381854 
L 329.266057 456.599668 
L 329.48561 410.074352 
L 329.705163 535.640979 
L 329.924716 468.916745 
L 330.144269 481.706578 
L 330.363823 486.533675 
L 330.583376 507.764304 
L 330.802929 459.573106 
L 331.022482 438.557406 
L 331.461588 519.353208 
L 331.681142 506.897041 
L 331.900695 413.689589 
L 332.120248 441.730603 
L 332.339801 424.813313 
L 332.559354 518.325161 
L 332.778907 365.324756 
L 332.99846 424.660164 
L 333.218014 418.165852 
L 333.437567 344.394865 
L 333.65712 505.36036 
L 333.876673 429.392657 
L 334.096226 459.291869 
L 334.315779 448.096806 
L 334.535333 509.449015 
L 334.754886 378.56367 
L 335.193992 470.408201 
L 335.413545 499.048856 
L 335.633098 482.969245 
L 335.852651 543.717747 
L 336.072205 512.886631 
L 336.291758 368.029212 
L 336.511311 484.96547 
L 336.730864 434.552128 
L 336.950417 444.275441 
L 337.16997 312.183643 
L 337.389524 368.368065 
L 337.82863 386.363513 
L 338.048183 420.668744 
L 338.267736 367.144301 
L 338.487289 346.073754 
L 338.706842 461.48946 
L 338.926396 474.98188 
L 339.145949 498.397458 
L 339.365502 407.68824 
L 339.585055 474.697773 
L 339.804608 429.934149 
L 340.024161 467.227388 
L 340.243715 283.529731 
L 340.463268 447.634954 
L 340.682821 464.407803 
L 340.902374 432.12983 
L 341.121927 434.034248 
L 341.34148 391.57521 
L 341.780587 462.82523 
L 342.00014 447.550859 
L 342.439246 513.660807 
L 342.658799 370.525154 
L 342.878352 445.499383 
L 343.097906 348.684985 
L 343.537012 496.521886 
L 343.756565 433.643238 
L 343.976118 513.122461 
L 344.195671 430.290345 
L 344.415224 458.744057 
L 344.634778 391.57181 
L 344.854331 493.530961 
L 345.073884 491.751433 
L 345.293437 422.116646 
L 345.51299 455.236773 
L 345.732543 457.543159 
L 345.952096 544.551801 
L 346.391203 392.851211 
L 346.610756 491.992756 
L 346.830309 426.575572 
L 347.049862 434.695724 
L 347.269415 438.30033 
L 347.488969 466.436794 
L 347.708522 427.733525 
L 347.928075 443.508105 
L 348.147628 405.126258 
L 348.367181 469.038847 
L 348.586734 389.359004 
L 348.806287 397.808635 
L 349.025841 470.238655 
L 349.245394 482.053375 
L 349.464947 448.468877 
L 349.6845 478.024782 
L 349.904053 456.687596 
L 350.123606 521.366789 
L 350.34316 340.784325 
L 350.562713 397.025308 
L 350.782266 530.589435 
L 351.001819 425.805547 
L 351.221372 403.187477 
L 351.440925 319.693189 
L 351.660478 455.832701 
L 351.880032 491.256946 
L 352.099585 413.705658 
L 352.319138 397.553177 
L 352.538691 350.662651 
L 352.758244 452.584407 
L 352.977797 480.629416 
L 353.197351 345.981426 
L 353.416904 439.730441 
L 353.636457 378.637879 
L 353.85601 484.08602 
L 354.075563 427.225106 
L 354.295116 414.924051 
L 354.734223 443.633242 
L 354.953776 470.101138 
L 355.173329 399.772279 
L 355.392882 376.579954 
L 355.612435 411.156286 
L 355.831988 465.326431 
L 356.051542 482.483886 
L 356.271095 394.337156 
L 356.490648 400.258242 
L 356.710201 527.668081 
L 356.929754 471.288868 
L 357.149307 450.838927 
L 357.36886 443.849842 
L 357.588414 320.680239 
L 357.807967 493.233614 
L 358.247073 444.431033 
L 358.466626 458.359112 
L 358.686179 502.306882 
L 358.905733 426.23965 
L 359.125286 437.051446 
L 359.344839 418.000808 
L 359.564392 488.554222 
L 359.783945 380.144605 
L 360.003498 381.836321 
L 360.442605 502.17721 
L 360.662158 373.765838 
L 360.881711 513.522319 
L 361.101264 305.743669 
L 361.320817 494.392442 
L 361.54037 461.503479 
L 361.759924 478.479013 
L 361.979477 434.721788 
L 362.19903 450.836851 
L 362.418583 403.633337 
L 362.638136 497.499941 
L 362.857689 501.828169 
L 363.296796 312.31673 
L 363.516349 388.230312 
L 363.735902 397.294736 
L 363.955455 360.428488 
L 364.175008 456.082095 
L 364.394561 478.178397 
L 364.833668 369.796526 
L 365.053221 448.184169 
L 365.272774 463.503834 
L 365.492327 449.013297 
L 365.71188 454.884362 
L 365.931433 415.601506 
L 366.150987 447.541187 
L 366.37054 436.127604 
L 366.590093 317.549727 
L 366.809646 445.905496 
L 367.029199 380.022971 
L 367.248752 419.304817 
L 367.468306 423.531759 
L 367.687859 369.541888 
L 367.907412 423.466377 
L 368.566071 501.811166 
L 368.785624 324.392602 
L 369.005178 339.838092 
L 369.224731 525.886405 
L 369.444284 418.739565 
L 369.663837 385.713 
L 369.88339 409.243126 
L 370.102943 502.159142 
L 370.322497 441.292683 
L 370.54205 490.367594 
L 370.981156 450.203815 
L 371.200709 456.134578 
L 371.420262 465.920958 
L 371.639815 390.490247 
L 371.859369 397.45151 
L 372.078922 430.579946 
L 372.298475 401.475729 
L 372.737581 556.836828 
L 372.957134 467.762592 
L 373.176687 535.873733 
L 373.396241 508.304362 
L 373.615794 335.438505 
L 373.835347 450.433908 
L 374.0549 270.381684 
L 374.274453 411.370341 
L 374.494006 436.886918 
L 374.71356 398.929517 
L 374.933113 463.555107 
L 375.152666 359.478316 
L 375.372219 405.258139 
L 375.591772 378.162993 
L 375.811325 475.146026 
L 376.030878 379.914589 
L 376.250432 492.652448 
L 376.469985 466.011211 
L 376.689538 399.255066 
L 377.128644 450.169499 
L 377.348197 440.047224 
L 377.567751 454.701306 
L 377.787304 409.222842 
L 378.006857 461.342339 
L 378.22641 343.247292 
L 378.445963 345.769354 
L 378.885069 404.065891 
L 379.104623 505.021856 
L 379.324176 486.331642 
L 379.543729 522.41525 
L 379.763282 380.954399 
L 379.982835 472.255086 
L 380.202388 436.78058 
L 380.421942 481.180225 
L 380.861048 454.642284 
L 381.080601 519.754913 
L 381.300154 455.354692 
L 381.519707 522.462514 
L 381.73926 472.697866 
L 381.958814 450.56947 
L 382.178367 448.486198 
L 382.39792 452.056264 
L 382.617473 476.088719 
L 382.837026 328.383956 
L 383.276133 526.272637 
L 383.495686 466.303529 
L 383.934792 433.41062 
L 384.154345 523.507504 
L 384.373898 495.163127 
L 384.593451 496.87116 
L 384.813005 298.228681 
L 385.252111 501.618387 
L 385.471664 391.427295 
L 385.691217 433.827947 
L 385.91077 227.09501 
L 386.349877 451.918041 
L 386.56943 493.372394 
L 386.788983 426.294964 
L 387.008536 454.033478 
L 387.228089 447.563893 
L 387.667196 374.917019 
L 387.886749 371.081064 
L 388.545408 500.198033 
L 388.764961 403.141355 
L 388.984515 459.608708 
L 389.204068 486.459818 
L 389.643174 354.071806 
L 389.862727 462.765351 
L 390.08228 473.14315 
L 390.301833 489.908292 
L 390.521387 433.289767 
L 390.74094 431.606593 
L 390.960493 478.429346 
L 391.180046 431.671322 
L 391.399599 456.943024 
L 391.619152 331.252553 
L 391.838706 486.248544 
L 392.277812 394.253936 
L 392.497365 387.887136 
L 392.716918 492.28258 
L 392.936471 331.640781 
L 393.156024 550.401966 
L 393.375578 363.121118 
L 393.595131 420.230021 
L 393.814684 312.870366 
L 394.034237 458.250661 
L 394.25379 423.802822 
L 394.473343 360.409454 
L 394.692897 434.156072 
L 394.91245 434.91921 
L 395.132003 375.046054 
L 395.351556 514.208574 
L 395.571109 411.479895 
L 395.790662 473.812661 
L 396.010215 418.967998 
L 396.229769 412.715809 
L 396.449322 492.629413 
L 396.668875 491.44325 
L 396.888428 497.758369 
L 397.107981 512.935672 
L 397.327534 407.475895 
L 397.547087 459.236909 
L 397.766641 320.277132 
L 397.986194 497.518294 
L 398.205747 466.055226 
L 398.4253 455.497331 
L 398.644853 452.748646 
L 398.864406 510.802572 
L 399.303513 384.925644 
L 399.523066 311.314381 
L 399.742619 423.246547 
L 399.962172 433.305633 
L 400.401278 371.946349 
L 400.620832 396.570439 
L 400.840385 473.97671 
L 401.059938 401.957905 
L 401.279491 475.144731 
L 401.499044 394.952426 
L 401.718597 476.890903 
L 401.938151 435.405777 
L 402.157704 364.042761 
L 402.377257 439.320438 
L 402.59681 381.607178 
L 402.816363 494.572724 
L 403.255469 344.957983 
L 403.475023 480.483857 
L 403.694576 369.356879 
L 403.914129 495.641839 
L 404.133682 443.878507 
L 404.353235 302.468358 
L 404.572788 458.779022 
L 404.792342 472.674992 
L 405.011895 413.168143 
L 405.231448 521.541092 
L 405.451001 475.893125 
L 405.670554 516.075166 
L 405.890107 387.082193 
L 406.10966 441.092637 
L 406.329214 407.394528 
L 406.548767 399.019498 
L 406.76832 506.694854 
L 406.987873 377.180679 
L 407.207426 504.230023 
L 407.426979 471.365676 
L 407.646533 410.92687 
L 407.866086 442.190322 
L 408.085639 410.549607 
L 408.305192 451.72301 
L 408.524745 321.907576 
L 408.744298 485.832427 
L 408.963851 364.538262 
L 409.183405 493.605012 
L 409.402958 509.899586 
L 409.622511 432.707667 
L 409.842064 494.3816 
L 410.061617 416.922933 
L 410.28117 392.828302 
L 410.500724 475.328909 
L 410.720277 467.347479 
L 411.159383 415.104814 
L 411.378936 411.384933 
L 411.598489 465.791335 
L 411.818042 457.861327 
L 412.037596 470.244038 
L 412.257149 409.994614 
L 412.696255 443.358764 
L 412.915808 351.562284 
L 413.135361 463.020835 
L 413.354915 372.030223 
L 413.574468 517.974061 
L 413.794021 437.782541 
L 414.013574 507.586829 
L 414.672233 417.685061 
L 414.891787 439.082008 
L 415.11134 494.036525 
L 415.550446 402.179066 
L 415.769999 440.525205 
L 415.989552 434.56818 
L 416.209106 477.562303 
L 416.428659 407.009169 
L 416.867765 386.878973 
L 417.087318 450.801 
L 417.306871 386.960564 
L 417.526424 475.215383 
L 417.745978 498.034763 
L 417.965531 395.712263 
L 418.62419 420.47194 
L 418.843743 368.577967 
L 419.063297 433.954034 
L 419.28285 387.80363 
L 419.502403 369.079985 
L 419.721956 420.697669 
L 419.941509 339.435989 
L 420.161062 395.79372 
L 420.380615 512.549539 
L 420.600169 404.168648 
L 420.819722 369.638787 
L 421.258828 473.004715 
L 421.478381 418.351122 
L 421.697934 462.508803 
L 421.917488 448.140269 
L 422.137041 421.905835 
L 422.356594 454.639294 
L 422.576147 428.468151 
L 422.7957 464.670501 
L 423.015253 482.227528 
L 423.234806 485.470461 
L 423.45436 363.152685 
L 423.893466 534.236806 
L 424.113019 471.213323 
L 424.332572 368.478433 
L 424.552125 432.58727 
L 424.771678 386.903227 
L 424.991232 379.902236 
L 425.210785 414.678733 
L 425.430338 272.475659 
L 425.649891 461.983493 
L 425.869444 423.347981 
L 426.088997 491.278554 
L 426.308551 498.906562 
L 426.528104 397.884918 
L 426.747657 463.646663 
L 426.96721 376.230078 
L 427.186763 513.012157 
L 427.406316 396.523577 
L 427.625869 413.472168 
L 427.845423 405.754947 
L 428.064976 389.937417 
L 428.284529 437.025985 
L 428.504082 530.711551 
L 428.723635 511.527743 
L 428.943188 411.549073 
L 429.162742 473.865724 
L 429.382295 452.793133 
L 429.601848 513.225778 
L 429.821401 355.857801 
L 430.040954 473.917498 
L 430.260507 388.201124 
L 430.48006 456.189394 
L 430.699614 459.944106 
L 430.919167 409.996836 
L 431.13872 507.410677 
L 431.358273 475.797734 
L 431.577826 405.439737 
L 431.797379 382.665026 
L 432.236486 495.244333 
L 432.456039 500.167569 
L 432.675592 439.896651 
L 432.895145 454.757005 
L 433.334251 292.767057 
L 433.553805 489.976139 
L 433.773358 409.29729 
L 434.212464 370.310329 
L 434.432017 422.745479 
L 434.65157 442.87957 
L 434.871124 449.9997 
L 435.090677 381.67171 
L 435.31023 353.322294 
L 435.529783 508.616045 
L 435.749336 464.384454 
L 435.968889 525.468611 
L 436.188442 420.306036 
L 436.407996 387.702371 
L 436.627549 414.944162 
L 436.847102 306.034248 
L 437.066655 448.905917 
L 437.286208 494.297461 
L 437.505761 312.606296 
L 437.725315 444.513655 
L 437.944868 242.117146 
L 438.164421 480.089177 
L 438.383974 371.237976 
L 438.603527 472.490979 
L 438.82308 398.648461 
L 439.042633 485.699976 
L 439.48174 369.399979 
L 439.701293 440.7444 
L 440.140399 462.590797 
L 440.359952 526.444311 
L 440.579506 443.086418 
L 440.799059 489.682629 
L 441.018612 473.653853 
L 441.238165 403.827517 
L 441.457718 436.641889 
L 441.677271 405.09252 
L 441.896824 448.4666 
L 442.116378 364.150888 
L 442.555484 407.148711 
L 442.775037 437.69494 
L 442.99459 426.068442 
L 443.214143 467.299421 
L 443.433697 427.727077 
L 443.65325 408.943544 
L 443.872803 356.854575 
L 444.092356 470.065137 
L 444.311909 449.528938 
L 444.531462 392.211807 
L 444.751015 501.013121 
L 444.970569 446.222528 
L 445.190122 460.216375 
L 445.409675 322.419381 
L 445.848781 416.244948 
L 446.068334 371.477878 
L 446.287888 437.62578 
L 446.507441 349.682817 
L 446.726994 433.601038 
L 446.946547 369.706834 
L 447.1661 359.763091 
L 447.385653 497.622949 
L 447.605206 423.798441 
L 447.82476 472.508259 
L 448.263866 408.233094 
L 448.483419 387.76103 
L 448.702972 345.339073 
L 448.922525 218.129509 
L 449.142079 389.937661 
L 449.361632 328.180849 
L 449.581185 466.882496 
L 449.800738 402.990678 
L 450.020291 374.871877 
L 450.239844 485.547317 
L 450.459397 404.32526 
L 450.678951 431.133432 
L 450.898504 416.445153 
L 451.118057 422.728748 
L 451.33761 530.167264 
L 451.557163 361.101541 
L 451.776716 409.135952 
L 451.996269 408.281099 
L 452.215823 420.075074 
L 452.435376 508.273224 
L 452.654929 455.406869 
L 452.874482 454.672891 
L 453.094035 321.981385 
L 453.313588 552.381361 
L 453.533142 428.080392 
L 453.752695 521.442893 
L 453.972248 529.633569 
L 454.191801 455.413978 
L 454.411354 465.851997 
L 454.85046 386.147274 
L 455.070014 380.355207 
L 455.289567 471.355684 
L 455.50912 444.618589 
L 455.728673 475.904644 
L 455.948226 488.444587 
L 456.167779 490.137995 
L 456.387333 472.129723 
L 456.606886 472.455788 
L 456.826439 406.951234 
L 457.045992 399.458148 
L 457.265545 425.995462 
L 457.485098 492.957539 
L 457.704651 472.432358 
L 457.924205 428.284892 
L 458.143758 272.665831 
L 458.582864 475.734542 
L 459.02197 380.136049 
L 459.241524 239.503632 
L 459.461077 500.420657 
L 459.68063 428.824145 
L 459.900183 395.327684 
L 460.119736 476.726749 
L 460.339289 480.067032 
L 460.558842 431.980711 
L 460.778396 490.419582 
L 461.217502 420.669668 
L 461.437055 497.989037 
L 461.876161 374.133813 
L 462.095715 401.708624 
L 462.315268 396.620047 
L 462.534821 467.192884 
L 462.754374 338.490333 
L 462.973927 447.806209 
L 463.19348 322.556638 
L 463.413033 525.246368 
L 463.632587 354.770226 
L 463.85214 368.188964 
L 464.071693 456.375443 
L 464.291246 449.646953 
L 464.510799 483.027373 
L 464.730352 537.876103 
L 464.949906 403.909358 
L 465.389012 517.407889 
L 465.608565 410.449856 
L 465.828118 379.452558 
L 466.047671 455.778854 
L 466.267224 456.014371 
L 466.486778 460.009088 
L 466.706331 402.925984 
L 466.925884 407.658239 
L 467.145437 400.742903 
L 467.36499 439.144708 
L 467.584543 395.823182 
L 467.804097 253.474141 
L 468.02365 443.512095 
L 468.243203 441.016891 
L 468.462756 419.79508 
L 468.682309 458.959231 
L 468.901862 531.135034 
L 469.121415 488.415287 
L 469.340969 511.216766 
L 469.780075 397.648605 
L 469.999628 402.217263 
L 470.219181 411.82848 
L 470.438734 440.998473 
L 470.658288 500.594129 
L 470.877841 324.465518 
L 471.097394 474.643651 
L 471.316947 367.798789 
L 471.5365 503.202473 
L 471.756053 431.666271 
L 471.975606 483.212589 
L 472.19516 372.690271 
L 472.414713 410.16604 
L 472.634266 534.184789 
L 472.853819 441.302689 
L 473.073372 449.80625 
L 473.292925 484.06581 
L 473.512479 406.786544 
L 473.732032 429.990662 
L 473.951585 473.16908 
L 474.171138 456.728332 
L 474.390691 470.653869 
L 474.610244 438.578586 
L 474.829797 463.66887 
L 475.049351 547.707577 
L 475.488457 369.08553 
L 475.70801 459.302042 
L 475.927563 371.638035 
L 476.147116 406.856718 
L 476.366669 473.354459 
L 476.586223 382.256975 
L 476.805776 491.767061 
L 477.025329 419.711746 
L 477.244882 472.583419 
L 477.464435 421.300273 
L 477.683988 494.968362 
L 477.903542 491.10487 
L 478.123095 402.873649 
L 478.342648 512.49696 
L 478.781754 348.05766 
L 479.001307 468.180718 
L 479.22086 410.431498 
L 479.440414 496.783416 
L 479.659967 494.488773 
L 479.87952 347.678363 
L 480.099073 462.942213 
L 480.318626 459.666563 
L 480.538179 497.89035 
L 480.757733 350.731819 
L 480.977286 383.462353 
L 481.196839 394.013223 
L 481.416392 352.465033 
L 481.635945 490.638609 
L 481.855498 455.195584 
L 482.075051 490.939364 
L 482.514158 400.938219 
L 482.733711 398.876127 
L 483.172817 457.045308 
L 483.39237 535.917464 
L 483.611924 427.973558 
L 483.831477 409.952738 
L 484.05103 408.585689 
L 484.270583 408.808342 
L 484.490136 450.468974 
L 484.709689 350.131031 
L 484.929242 567.036956 
L 485.148796 468.75623 
L 485.368349 453.220838 
L 485.587902 384.380031 
L 485.807455 445.531409 
L 486.027008 273.917099 
L 486.246561 445.236395 
L 486.466115 468.501152 
L 486.685668 457.118714 
L 487.124774 406.92753 
L 487.344327 322.163751 
L 487.56388 425.098088 
L 487.783433 422.409658 
L 488.22254 518.009879 
L 488.442093 366.927109 
L 488.881199 480.696437 
L 489.100752 369.775829 
L 489.320306 350.914192 
L 489.539859 439.438935 
L 489.978965 358.906465 
L 490.198518 451.3639 
L 490.418071 483.292996 
L 490.637624 470.623866 
L 490.857178 433.409038 
L 491.076731 441.462783 
L 491.296284 402.821806 
L 491.515837 421.859788 
L 491.73539 391.081689 
L 491.954943 487.008242 
L 492.174497 481.049641 
L 492.39405 401.04123 
L 492.613603 462.776427 
L 492.833156 459.646544 
L 493.052709 471.708186 
L 493.491815 445.547019 
L 493.711369 398.465926 
L 493.930922 486.574975 
L 494.150475 410.003716 
L 494.370028 512.417823 
L 494.589581 392.282008 
L 494.809134 406.463113 
L 495.028688 489.596872 
L 495.248241 482.002739 
L 495.467794 328.188425 
L 495.687347 527.720144 
L 495.9069 421.885902 
L 496.126453 441.332041 
L 496.346006 400.518996 
L 497.004666 484.272038 
L 497.224219 453.92876 
L 497.443772 449.947788 
L 497.663325 458.499861 
L 497.882879 446.799669 
L 498.102432 479.553338 
L 498.321985 348.96953 
L 498.541538 441.723596 
L 498.761091 400.862791 
L 498.980644 421.163061 
L 499.200197 399.580597 
L 499.419751 399.644626 
L 499.639304 471.720237 
L 499.858857 442.002943 
L 500.07841 439.922715 
L 500.297963 497.001716 
L 500.517516 468.002256 
L 500.73707 401.780317 
L 500.956623 474.492834 
L 501.176176 455.584932 
L 501.395729 495.509677 
L 501.615282 352.327926 
L 501.834835 453.752732 
L 502.054388 448.663782 
L 502.273942 511.078534 
L 502.493495 407.317278 
L 502.713048 443.459689 
L 502.932601 510.833621 
L 503.152154 468.782027 
L 503.371707 382.663202 
L 503.810814 488.272293 
L 504.030367 478.311987 
L 504.24992 451.401328 
L 504.469473 470.334771 
L 504.689026 536.750102 
L 504.908579 417.745207 
L 505.128133 506.362136 
L 505.347686 322.94346 
L 505.567239 432.451701 
L 506.006345 396.581644 
L 506.225898 435.195157 
L 506.445451 502.617367 
L 506.665005 433.493845 
L 506.884558 417.273582 
L 507.104111 382.695143 
L 507.323664 391.759323 
L 507.543217 477.006955 
L 507.76277 330.28699 
L 508.201877 520.080513 
L 508.42143 342.517937 
L 508.640983 371.669082 
L 508.860536 439.854258 
L 509.080089 412.082906 
L 509.299642 508.843024 
L 509.519196 377.487999 
L 509.738749 508.345951 
L 509.958302 407.862662 
L 510.177855 409.173078 
L 510.397408 367.074952 
L 510.616961 376.425391 
L 510.836515 493.743176 
L 511.056068 450.998926 
L 511.495174 428.464965 
L 511.714727 455.487687 
L 511.93428 327.361801 
L 512.153833 306.821722 
L 512.373387 524.150422 
L 512.59294 526.325855 
L 512.812493 373.622929 
L 513.251599 517.760358 
L 513.690706 457.188018 
L 513.910259 452.742406 
L 514.129812 472.027034 
L 514.349365 398.723676 
L 514.788471 359.209075 
L 515.008024 394.807779 
L 515.227578 509.630893 
L 515.447131 350.337192 
L 515.666684 431.632928 
L 515.886237 456.347351 
L 516.10579 364.593966 
L 516.325343 436.343562 
L 516.544897 451.624848 
L 516.76445 414.82436 
L 516.984003 439.728008 
L 517.423109 417.92755 
L 517.642662 462.967181 
L 517.862215 444.580434 
L 518.081769 499.232535 
L 518.301322 436.592982 
L 518.520875 513.916925 
L 518.740428 358.193825 
L 518.959981 504.086329 
L 519.179534 373.684652 
L 519.399088 512.737312 
L 519.618641 437.330208 
L 519.838194 433.424817 
L 520.057747 353.253207 
L 520.2773 435.327401 
L 520.496853 408.045105 
L 520.716406 437.368141 
L 520.93596 424.108252 
L 521.155513 425.457099 
L 521.375066 522.24292 
L 521.594619 449.255887 
L 521.814172 456.168103 
L 522.033725 431.332794 
L 522.253279 391.231148 
L 522.692385 469.239886 
L 522.911938 537.108221 
L 523.131491 413.595339 
L 523.351044 428.496753 
L 523.790151 509.970327 
L 524.009704 499.953212 
L 524.229257 406.849536 
L 524.44881 481.035444 
L 524.668363 476.943657 
L 524.887916 462.677747 
L 525.10747 406.103283 
L 525.327023 451.939093 
L 525.546576 350.224665 
L 525.766129 480.694935 
L 525.985682 487.289392 
L 526.205235 469.348306 
L 526.424788 358.390802 
L 526.644342 428.315001 
L 526.863895 418.273899 
L 527.083448 362.578018 
L 527.303001 454.435968 
L 527.522554 318.773897 
L 527.742107 364.742626 
L 527.96166 477.373741 
L 528.181214 505.762935 
L 528.400767 353.241029 
L 528.62032 473.047845 
L 528.839873 351.086832 
L 529.059426 303.069531 
L 529.278979 391.890387 
L 529.498533 373.659284 
L 529.718086 546.913622 
L 529.937639 468.546713 
L 530.157192 504.337345 
L 530.376745 393.147204 
L 530.596298 344.180381 
L 530.815851 458.873242 
L 531.035405 464.165463 
L 531.474511 376.945832 
L 531.694064 469.670455 
L 531.913617 301.806082 
L 532.13317 459.18797 
L 532.352724 441.703803 
L 532.572277 497.730549 
L 532.79183 421.237493 
L 533.011383 437.330656 
L 533.230936 424.628001 
L 533.450489 509.622229 
L 533.670042 458.393803 
L 533.889596 492.951094 
L 534.109149 388.622619 
L 534.328702 505.196083 
L 534.548255 421.694803 
L 534.767808 452.555049 
L 534.987361 499.585216 
L 535.206915 581.38839 
L 535.865574 391.879536 
L 536.085127 447.233652 
L 536.30468 439.518292 
L 536.524233 438.181153 
L 536.743787 488.82726 
L 536.96334 406.150519 
L 537.182893 451.03681 
L 537.621999 396.802073 
L 537.841552 330.198311 
L 538.061106 494.329515 
L 538.280659 473.181703 
L 538.500212 495.126124 
L 538.719765 445.845831 
L 538.939318 443.105189 
L 539.158871 463.196635 
L 539.378424 394.394654 
L 539.597978 366.173288 
L 539.817531 479.960878 
L 540.256637 421.924483 
L 540.47619 361.227457 
L 540.695743 449.004606 
L 540.915297 466.423107 
L 541.13485 472.109766 
L 541.354403 316.830502 
L 541.573956 372.69826 
L 541.793509 497.463853 
L 542.013062 472.459106 
L 542.232615 346.515442 
L 542.452169 489.765355 
L 542.671722 367.046227 
L 542.891275 378.847897 
L 543.110828 472.386223 
L 543.330381 374.928592 
L 543.549934 468.644157 
L 543.769488 393.624775 
L 543.989041 473.540051 
L 544.208594 460.656797 
L 544.428147 497.731259 
L 544.6477 463.049619 
L 544.867253 508.243376 
L 545.086806 444.634264 
L 545.30636 478.961181 
L 545.525913 483.435794 
L 545.745466 390.746676 
L 545.745466 390.746676 
" style="fill:none;stroke:#96c69a;stroke-linecap:round;stroke-width:3;"/>
   </g>
   <g id="line2d_2"/>
   <g id="patch_3">
    <path d="M 84.914375 603.86 
L 84.914375 109.484571 
" style="fill:none;stroke:#262626;stroke-linecap:square;stroke-linejoin:miter;stroke-width:2.5;"/>
   </g>
   <g id="patch_4">
    <path d="M 84.914375 603.86 
L 567.689804 603.86 
" style="fill:none;stroke:#262626;stroke-linecap:square;stroke-linejoin:miter;stroke-width:2.5;"/>
   </g>
   <g id="legend_1">
    <g id="patch_5">
     <path d="M 514.774179 598.86 
L 560.689804 598.86 
Q 562.689804 598.86 562.689804 596.86 
L 562.689804 554.954375 
Q 562.689804 552.954375 560.689804 552.954375 
L 514.774179 552.954375 
Q 512.774179 552.954375 512.774179 554.954375 
L 512.774179 596.86 
Q 512.774179 598.86 514.774179 598.86 
z
" style="fill:#ffffff;opacity:0.8;stroke:#cccccc;stroke-linejoin:miter;stroke-width:2;"/>
    </g>
    <g id="text_18">
     <!-- $n_\tau$ -->
     <g style="fill:#262626;" transform="translate(524.651991 575.190625)scale(0.24 -0.24)">
      <defs>
       <path d="M 3566 2113 
L 3156 0 
L 2578 0 
L 2988 2091 
Q 3016 2238 3031 2350 
Q 3047 2463 3047 2528 
Q 3047 2791 2881 2937 
Q 2716 3084 2419 3084 
Q 1956 3084 1622 2776 
Q 1288 2469 1184 1941 
L 800 0 
L 225 0 
L 903 3500 
L 1478 3500 
L 1363 2950 
Q 1603 3253 1940 3418 
Q 2278 3584 2650 3584 
Q 3113 3584 3367 3334 
Q 3622 3084 3622 2631 
Q 3622 2519 3608 2391 
Q 3594 2263 3566 2113 
z
" id="DejaVuSans-Oblique-6e" transform="scale(0.015625)"/>
       <path d="M 2103 638 
Q 2188 488 2525 488 
L 2800 488 
L 2706 0 
L 2363 0 
Q 1800 0 1600 300 
Q 1403 606 1534 1269 
L 1856 2925 
L 541 2925 
L 653 3500 
L 3881 3500 
L 3769 2925 
L 2444 2925 
L 2113 1234 
Q 2025 781 2103 638 
z
" id="DejaVuSans-Oblique-3c4" transform="scale(0.015625)"/>
      </defs>
      <use xlink:href="#DejaVuSans-Oblique-6e"/>
      <use transform="translate(63.378906 -16.40625)scale(0.7)" xlink:href="#DejaVuSans-Oblique-3c4"/>
     </g>
    </g>
    <g id="line2d_3">
     <path d="M 516.774179 589.280313 
L 536.774179 589.280313 
" style="fill:none;stroke:#96c69a;stroke-linecap:round;stroke-width:3;"/>
    </g>
    <g id="line2d_4"/>
    <g id="text_19">
     <!-- 20 -->
     <g style="fill:#262626;" transform="translate(544.774179 592.780313)scale(0.1 -0.1)">
      <defs>
       <path d="M 1844 884 
L 3897 884 
L 3897 0 
L 506 0 
L 506 884 
L 2209 2388 
Q 2438 2594 2547 2791 
Q 2656 2988 2656 3200 
Q 2656 3528 2436 3728 
Q 2216 3928 1850 3928 
Q 1569 3928 1234 3808 
Q 900 3688 519 3450 
L 519 4475 
Q 925 4609 1322 4679 
Q 1719 4750 2100 4750 
Q 2938 4750 3402 4381 
Q 3866 4013 3866 3353 
Q 3866 2972 3669 2642 
Q 3472 2313 2841 1759 
L 1844 884 
z
" id="DejaVuSans-Bold-32" transform="scale(0.015625)"/>
       <path d="M 2944 2338 
Q 2944 3213 2780 3570 
Q 2616 3928 2228 3928 
Q 1841 3928 1675 3570 
Q 1509 3213 1509 2338 
Q 1509 1453 1675 1090 
Q 1841 728 2228 728 
Q 2613 728 2778 1090 
Q 2944 1453 2944 2338 
z
M 4147 2328 
Q 4147 1169 3647 539 
Q 3147 -91 2228 -91 
Q 1306 -91 806 539 
Q 306 1169 306 2328 
Q 306 3491 806 4120 
Q 1306 4750 2228 4750 
Q 3147 4750 3647 4120 
Q 4147 3491 4147 2328 
z
" id="DejaVuSans-Bold-30" transform="scale(0.015625)"/>
      </defs>
      <use xlink:href="#DejaVuSans-Bold-32"/>
      <use x="69.580078" xlink:href="#DejaVuSans-Bold-30"/>
     </g>
    </g>
   </g>
  </g>
  <g id="axes_2">
   <g id="patch_6">
    <path d="M 84.914375 92.437143 
L 567.689804 92.437143 
L 567.689804 7.2 
L 84.914375 7.2 
z
" style="fill:none;"/>
   </g>
   <g id="matplotlib.axis_3">
    <g id="xtick_7"/>
    <g id="xtick_8"/>
    <g id="xtick_9"/>
    <g id="xtick_10"/>
    <g id="xtick_11"/>
    <g id="xtick_12"/>
   </g>
   <g id="matplotlib.axis_4">
    <g id="ytick_10">
     <g id="text_20">
      <!-- 0 -->
      <g style="fill:#262626;" transform="translate(55.416875 100.795424)scale(0.22 -0.22)">
       <use xlink:href="#DejaVuSans-30"/>
      </g>
     </g>
    </g>
    <g id="ytick_11">
     <g id="text_21">
      <!-- 100 -->
      <g style="fill:#262626;" transform="translate(27.421875 48.082287)scale(0.22 -0.22)">
       <use xlink:href="#DejaVuSans-31"/>
       <use x="63.623047" xlink:href="#DejaVuSans-30"/>
       <use x="127.246094" xlink:href="#DejaVuSans-30"/>
      </g>
     </g>
    </g>
   </g>
   <g id="patch_7">
    <path clip-path="url(#p6c0f00b9c7)" d="M 106.858713 92.437143 
L 140.619232 92.437143 
L 140.619232 11.258912 
L 106.858713 11.258912 
z
" style="fill:#96c69a;fill-opacity:0.5;stroke:#ffffff;stroke-linejoin:miter;stroke-width:2;"/>
   </g>
   <g id="patch_8">
    <path clip-path="url(#p6c0f00b9c7)" d="M 140.619232 92.437143 
L 174.379752 92.437143 
L 174.379752 11.258912 
L 140.619232 11.258912 
z
" style="fill:#96c69a;fill-opacity:0.5;stroke:#ffffff;stroke-linejoin:miter;stroke-width:2;"/>
   </g>
   <g id="patch_9">
    <path clip-path="url(#p6c0f00b9c7)" d="M 174.379752 92.437143 
L 208.140271 92.437143 
L 208.140271 11.258912 
L 174.379752 11.258912 
z
" style="fill:#96c69a;fill-opacity:0.5;stroke:#ffffff;stroke-linejoin:miter;stroke-width:2;"/>
   </g>
   <g id="patch_10">
    <path clip-path="url(#p6c0f00b9c7)" d="M 208.140271 92.437143 
L 241.900791 92.437143 
L 241.900791 11.258912 
L 208.140271 11.258912 
z
" style="fill:#96c69a;fill-opacity:0.5;stroke:#ffffff;stroke-linejoin:miter;stroke-width:2;"/>
   </g>
   <g id="patch_11">
    <path clip-path="url(#p6c0f00b9c7)" d="M 241.900791 92.437143 
L 275.66131 92.437143 
L 275.66131 11.786043 
L 241.900791 11.786043 
z
" style="fill:#96c69a;fill-opacity:0.5;stroke:#ffffff;stroke-linejoin:miter;stroke-width:2;"/>
   </g>
   <g id="patch_12">
    <path clip-path="url(#p6c0f00b9c7)" d="M 275.66131 92.437143 
L 309.42183 92.437143 
L 309.42183 11.258912 
L 275.66131 11.258912 
z
" style="fill:#96c69a;fill-opacity:0.5;stroke:#ffffff;stroke-linejoin:miter;stroke-width:2;"/>
   </g>
   <g id="patch_13">
    <path clip-path="url(#p6c0f00b9c7)" d="M 309.42183 92.437143 
L 343.182349 92.437143 
L 343.182349 11.258912 
L 309.42183 11.258912 
z
" style="fill:#96c69a;fill-opacity:0.5;stroke:#ffffff;stroke-linejoin:miter;stroke-width:2;"/>
   </g>
   <g id="patch_14">
    <path clip-path="url(#p6c0f00b9c7)" d="M 343.182349 92.437143 
L 376.942869 92.437143 
L 376.942869 11.258912 
L 343.182349 11.258912 
z
" style="fill:#96c69a;fill-opacity:0.5;stroke:#ffffff;stroke-linejoin:miter;stroke-width:2;"/>
   </g>
   <g id="patch_15">
    <path clip-path="url(#p6c0f00b9c7)" d="M 376.942869 92.437143 
L 410.703388 92.437143 
L 410.703388 11.786043 
L 376.942869 11.786043 
z
" style="fill:#96c69a;fill-opacity:0.5;stroke:#ffffff;stroke-linejoin:miter;stroke-width:2;"/>
   </g>
   <g id="patch_16">
    <path clip-path="url(#p6c0f00b9c7)" d="M 410.703388 92.437143 
L 444.463907 92.437143 
L 444.463907 11.258912 
L 410.703388 11.258912 
z
" style="fill:#96c69a;fill-opacity:0.5;stroke:#ffffff;stroke-linejoin:miter;stroke-width:2;"/>
   </g>
   <g id="patch_17">
    <path clip-path="url(#p6c0f00b9c7)" d="M 444.463907 92.437143 
L 478.224427 92.437143 
L 478.224427 11.258912 
L 444.463907 11.258912 
z
" style="fill:#96c69a;fill-opacity:0.5;stroke:#ffffff;stroke-linejoin:miter;stroke-width:2;"/>
   </g>
   <g id="patch_18">
    <path clip-path="url(#p6c0f00b9c7)" d="M 478.224427 92.437143 
L 511.984946 92.437143 
L 511.984946 11.258912 
L 478.224427 11.258912 
z
" style="fill:#96c69a;fill-opacity:0.5;stroke:#ffffff;stroke-linejoin:miter;stroke-width:2;"/>
   </g>
   <g id="patch_19">
    <path clip-path="url(#p6c0f00b9c7)" d="M 511.984946 92.437143 
L 545.745466 92.437143 
L 545.745466 11.258912 
L 511.984946 11.258912 
z
" style="fill:#96c69a;fill-opacity:0.5;stroke:#ffffff;stroke-linejoin:miter;stroke-width:2;"/>
   </g>
   <g id="patch_20">
    <path d="M 84.914375 92.437143 
L 84.914375 7.2 
" style="fill:none;stroke:#262626;stroke-linecap:square;stroke-linejoin:miter;stroke-width:2.5;"/>
   </g>
   <g id="patch_21">
    <path d="M 84.914375 92.437143 
L 567.689804 92.437143 
" style="fill:none;stroke:#262626;stroke-linecap:square;stroke-linejoin:miter;stroke-width:2.5;"/>
   </g>
  </g>
  <g id="axes_3">
   <g id="patch_22">
    <path d="M 584.337232 603.86 
L 667.574375 603.86 
L 667.574375 109.484571 
L 584.337232 109.484571 
z
" style="fill:none;"/>
   </g>
   <g id="matplotlib.axis_5">
    <g id="xtick_13">
     <g id="text_22">
      <!-- 0 -->
      <g style="fill:#262626;" transform="translate(577.338482 636.076563)scale(0.22 -0.22)">
       <use xlink:href="#DejaVuSans-30"/>
      </g>
     </g>
    </g>
    <g id="xtick_14">
     <g id="text_23">
      <!-- 100 -->
      <g style="fill:#262626;" transform="translate(606.191506 636.076563)scale(0.22 -0.22)">
       <use xlink:href="#DejaVuSans-31"/>
       <use x="63.623047" xlink:href="#DejaVuSans-30"/>
       <use x="127.246094" xlink:href="#DejaVuSans-30"/>
      </g>
     </g>
    </g>
   </g>
   <g id="matplotlib.axis_6">
    <g id="ytick_12"/>
    <g id="ytick_13"/>
    <g id="ytick_14"/>
    <g id="ytick_15"/>
    <g id="ytick_16"/>
    <g id="ytick_17"/>
    <g id="ytick_18"/>
    <g id="ytick_19"/>
    <g id="ytick_20"/>
   </g>
   <g id="patch_23">
    <path clip-path="url(#pcaf0e2adff)" d="M 584.337232 581.38839 
L 585.194243 581.38839 
L 585.194243 570.152584 
L 584.337232 570.152584 
z
" style="fill:#96c69a;fill-opacity:0.5;stroke:#ffffff;stroke-linejoin:miter;stroke-width:1.123581;"/>
   </g>
   <g id="patch_24">
    <path clip-path="url(#pcaf0e2adff)" d="M 584.337232 570.152584 
L 585.194243 570.152584 
L 585.194243 558.916779 
L 584.337232 558.916779 
z
" style="fill:#96c69a;fill-opacity:0.5;stroke:#ffffff;stroke-linejoin:miter;stroke-width:1.123581;"/>
   </g>
   <g id="patch_25">
    <path clip-path="url(#pcaf0e2adff)" d="M 584.337232 558.916779 
L 587.336769 558.916779 
L 587.336769 547.680974 
L 584.337232 547.680974 
z
" style="fill:#96c69a;fill-opacity:0.5;stroke:#ffffff;stroke-linejoin:miter;stroke-width:1.123581;"/>
   </g>
   <g id="patch_26">
    <path clip-path="url(#pcaf0e2adff)" d="M 584.337232 547.680974 
L 591.621821 547.680974 
L 591.621821 536.445169 
L 584.337232 536.445169 
z
" style="fill:#96c69a;fill-opacity:0.5;stroke:#ffffff;stroke-linejoin:miter;stroke-width:1.123581;"/>
   </g>
   <g id="patch_27">
    <path clip-path="url(#pcaf0e2adff)" d="M 584.337232 536.445169 
L 598.90641 536.445169 
L 598.90641 525.209364 
L 584.337232 525.209364 
z
" style="fill:#96c69a;fill-opacity:0.5;stroke:#ffffff;stroke-linejoin:miter;stroke-width:1.123581;"/>
   </g>
   <g id="patch_28">
    <path clip-path="url(#pcaf0e2adff)" d="M 584.337232 525.209364 
L 607.476515 525.209364 
L 607.476515 513.973558 
L 584.337232 513.973558 
z
" style="fill:#96c69a;fill-opacity:0.5;stroke:#ffffff;stroke-linejoin:miter;stroke-width:1.123581;"/>
   </g>
   <g id="patch_29">
    <path clip-path="url(#pcaf0e2adff)" d="M 584.337232 513.973558 
L 619.046157 513.973558 
L 619.046157 502.737753 
L 584.337232 502.737753 
z
" style="fill:#96c69a;fill-opacity:0.5;stroke:#ffffff;stroke-linejoin:miter;stroke-width:1.123581;"/>
   </g>
   <g id="patch_30">
    <path clip-path="url(#pcaf0e2adff)" d="M 584.337232 502.737753 
L 632.329819 502.737753 
L 632.329819 491.501948 
L 584.337232 491.501948 
z
" style="fill:#96c69a;fill-opacity:0.5;stroke:#ffffff;stroke-linejoin:miter;stroke-width:1.123581;"/>
   </g>
   <g id="patch_31">
    <path clip-path="url(#pcaf0e2adff)" d="M 584.337232 491.501948 
L 635.329356 491.501948 
L 635.329356 480.266143 
L 584.337232 480.266143 
z
" style="fill:#96c69a;fill-opacity:0.5;stroke:#ffffff;stroke-linejoin:miter;stroke-width:1.123581;"/>
   </g>
   <g id="patch_32">
    <path clip-path="url(#pcaf0e2adff)" d="M 584.337232 480.266143 
L 652.04106 480.266143 
L 652.04106 469.030338 
L 584.337232 469.030338 
z
" style="fill:#96c69a;fill-opacity:0.5;stroke:#ffffff;stroke-linejoin:miter;stroke-width:1.123581;"/>
   </g>
   <g id="patch_33">
    <path clip-path="url(#pcaf0e2adff)" d="M 584.337232 469.030338 
L 649.041523 469.030338 
L 649.041523 457.794532 
L 584.337232 457.794532 
z
" style="fill:#96c69a;fill-opacity:0.5;stroke:#ffffff;stroke-linejoin:miter;stroke-width:1.123581;"/>
   </g>
   <g id="patch_34">
    <path clip-path="url(#pcaf0e2adff)" d="M 584.337232 457.794532 
L 663.610702 457.794532 
L 663.610702 446.558727 
L 584.337232 446.558727 
z
" style="fill:#96c69a;fill-opacity:0.5;stroke:#ffffff;stroke-linejoin:miter;stroke-width:1.123581;"/>
   </g>
   <g id="patch_35">
    <path clip-path="url(#pcaf0e2adff)" d="M 584.337232 446.558727 
L 655.897607 446.558727 
L 655.897607 435.322922 
L 584.337232 435.322922 
z
" style="fill:#96c69a;fill-opacity:0.5;stroke:#ffffff;stroke-linejoin:miter;stroke-width:1.123581;"/>
   </g>
   <g id="patch_36">
    <path clip-path="url(#pcaf0e2adff)" d="M 584.337232 435.322922 
L 644.756471 435.322922 
L 644.756471 424.087117 
L 584.337232 424.087117 
z
" style="fill:#96c69a;fill-opacity:0.5;stroke:#ffffff;stroke-linejoin:miter;stroke-width:1.123581;"/>
   </g>
   <g id="patch_37">
    <path clip-path="url(#pcaf0e2adff)" d="M 584.337232 424.087117 
L 642.18544 424.087117 
L 642.18544 412.851312 
L 584.337232 412.851312 
z
" style="fill:#96c69a;fill-opacity:0.5;stroke:#ffffff;stroke-linejoin:miter;stroke-width:1.123581;"/>
   </g>
   <g id="patch_38">
    <path clip-path="url(#pcaf0e2adff)" d="M 584.337232 412.851312 
L 648.613018 412.851312 
L 648.613018 401.615506 
L 584.337232 401.615506 
z
" style="fill:#96c69a;fill-opacity:0.5;stroke:#ffffff;stroke-linejoin:miter;stroke-width:1.123581;"/>
   </g>
   <g id="patch_39">
    <path clip-path="url(#pcaf0e2adff)" d="M 584.337232 401.615506 
L 632.758324 401.615506 
L 632.758324 390.379701 
L 584.337232 390.379701 
z
" style="fill:#96c69a;fill-opacity:0.5;stroke:#ffffff;stroke-linejoin:miter;stroke-width:1.123581;"/>
   </g>
   <g id="patch_40">
    <path clip-path="url(#pcaf0e2adff)" d="M 584.337232 390.379701 
L 617.332136 390.379701 
L 617.332136 379.143896 
L 584.337232 379.143896 
z
" style="fill:#96c69a;fill-opacity:0.5;stroke:#ffffff;stroke-linejoin:miter;stroke-width:1.123581;"/>
   </g>
   <g id="patch_41">
    <path clip-path="url(#pcaf0e2adff)" d="M 584.337232 379.143896 
L 617.332136 379.143896 
L 617.332136 367.908091 
L 584.337232 367.908091 
z
" style="fill:#96c69a;fill-opacity:0.5;stroke:#ffffff;stroke-linejoin:miter;stroke-width:1.123581;"/>
   </g>
   <g id="patch_42">
    <path clip-path="url(#pcaf0e2adff)" d="M 584.337232 367.908091 
L 607.90502 367.908091 
L 607.90502 356.672286 
L 584.337232 356.672286 
z
" style="fill:#96c69a;fill-opacity:0.5;stroke:#ffffff;stroke-linejoin:miter;stroke-width:1.123581;"/>
   </g>
   <g id="patch_43">
    <path clip-path="url(#pcaf0e2adff)" d="M 584.337232 356.672286 
L 604.048473 356.672286 
L 604.048473 345.436481 
L 584.337232 345.436481 
z
" style="fill:#96c69a;fill-opacity:0.5;stroke:#ffffff;stroke-linejoin:miter;stroke-width:1.123581;"/>
   </g>
   <g id="patch_44">
    <path clip-path="url(#pcaf0e2adff)" d="M 584.337232 345.436481 
L 595.478368 345.436481 
L 595.478368 334.200675 
L 584.337232 334.200675 
z
" style="fill:#96c69a;fill-opacity:0.5;stroke:#ffffff;stroke-linejoin:miter;stroke-width:1.123581;"/>
   </g>
   <g id="patch_45">
    <path clip-path="url(#pcaf0e2adff)" d="M 584.337232 334.200675 
L 597.192389 334.200675 
L 597.192389 322.96487 
L 584.337232 322.96487 
z
" style="fill:#96c69a;fill-opacity:0.5;stroke:#ffffff;stroke-linejoin:miter;stroke-width:1.123581;"/>
   </g>
   <g id="patch_46">
    <path clip-path="url(#pcaf0e2adff)" d="M 584.337232 322.96487 
L 595.478368 322.96487 
L 595.478368 311.729065 
L 584.337232 311.729065 
z
" style="fill:#96c69a;fill-opacity:0.5;stroke:#ffffff;stroke-linejoin:miter;stroke-width:1.123581;"/>
   </g>
   <g id="patch_47">
    <path clip-path="url(#pcaf0e2adff)" d="M 584.337232 311.729065 
L 590.336306 311.729065 
L 590.336306 300.49326 
L 584.337232 300.49326 
z
" style="fill:#96c69a;fill-opacity:0.5;stroke:#ffffff;stroke-linejoin:miter;stroke-width:1.123581;"/>
   </g>
   <g id="patch_48">
    <path clip-path="url(#pcaf0e2adff)" d="M 584.337232 300.49326 
L 586.051253 300.49326 
L 586.051253 289.257455 
L 584.337232 289.257455 
z
" style="fill:#96c69a;fill-opacity:0.5;stroke:#ffffff;stroke-linejoin:miter;stroke-width:1.123581;"/>
   </g>
   <g id="patch_49">
    <path clip-path="url(#pcaf0e2adff)" d="M 584.337232 289.257455 
L 585.194243 289.257455 
L 585.194243 278.021649 
L 584.337232 278.021649 
z
" style="fill:#96c69a;fill-opacity:0.5;stroke:#ffffff;stroke-linejoin:miter;stroke-width:1.123581;"/>
   </g>
   <g id="patch_50">
    <path clip-path="url(#pcaf0e2adff)" d="M 584.337232 278.021649 
L 586.908264 278.021649 
L 586.908264 266.785844 
L 584.337232 266.785844 
z
" style="fill:#96c69a;fill-opacity:0.5;stroke:#ffffff;stroke-linejoin:miter;stroke-width:1.123581;"/>
   </g>
   <g id="patch_51">
    <path clip-path="url(#pcaf0e2adff)" d="M 584.337232 266.785844 
L 585.194243 266.785844 
L 585.194243 255.550039 
L 584.337232 255.550039 
z
" style="fill:#96c69a;fill-opacity:0.5;stroke:#ffffff;stroke-linejoin:miter;stroke-width:1.123581;"/>
   </g>
   <g id="patch_52">
    <path clip-path="url(#pcaf0e2adff)" d="M 584.337232 255.550039 
L 585.194243 255.550039 
L 585.194243 244.314234 
L 584.337232 244.314234 
z
" style="fill:#96c69a;fill-opacity:0.5;stroke:#ffffff;stroke-linejoin:miter;stroke-width:1.123581;"/>
   </g>
   <g id="patch_53">
    <path clip-path="url(#pcaf0e2adff)" d="M 584.337232 244.314234 
L 585.194243 244.314234 
L 585.194243 233.078429 
L 584.337232 233.078429 
z
" style="fill:#96c69a;fill-opacity:0.5;stroke:#ffffff;stroke-linejoin:miter;stroke-width:1.123581;"/>
   </g>
   <g id="patch_54">
    <path clip-path="url(#pcaf0e2adff)" d="M 584.337232 233.078429 
L 584.765737 233.078429 
L 584.765737 221.842623 
L 584.337232 221.842623 
z
" style="fill:#96c69a;fill-opacity:0.5;stroke:#ffffff;stroke-linejoin:miter;stroke-width:1.123581;"/>
   </g>
   <g id="patch_55">
    <path clip-path="url(#pcaf0e2adff)" d="M 584.337232 221.842623 
L 584.765737 221.842623 
L 584.765737 210.606818 
L 584.337232 210.606818 
z
" style="fill:#96c69a;fill-opacity:0.5;stroke:#ffffff;stroke-linejoin:miter;stroke-width:1.123581;"/>
   </g>
   <g id="patch_56">
    <path clip-path="url(#pcaf0e2adff)" d="M 584.337232 210.606818 
L 584.337232 210.606818 
L 584.337232 199.371013 
L 584.337232 199.371013 
z
" style="fill:#96c69a;fill-opacity:0.5;stroke:#ffffff;stroke-linejoin:miter;stroke-width:1.123581;"/>
   </g>
   <g id="patch_57">
    <path clip-path="url(#pcaf0e2adff)" d="M 584.337232 199.371013 
L 584.337232 199.371013 
L 584.337232 188.135208 
L 584.337232 188.135208 
z
" style="fill:#96c69a;fill-opacity:0.5;stroke:#ffffff;stroke-linejoin:miter;stroke-width:1.123581;"/>
   </g>
   <g id="patch_58">
    <path clip-path="url(#pcaf0e2adff)" d="M 584.337232 188.135208 
L 584.337232 188.135208 
L 584.337232 176.899403 
L 584.337232 176.899403 
z
" style="fill:#96c69a;fill-opacity:0.5;stroke:#ffffff;stroke-linejoin:miter;stroke-width:1.123581;"/>
   </g>
   <g id="patch_59">
    <path clip-path="url(#pcaf0e2adff)" d="M 584.337232 176.899403 
L 584.337232 176.899403 
L 584.337232 165.663597 
L 584.337232 165.663597 
z
" style="fill:#96c69a;fill-opacity:0.5;stroke:#ffffff;stroke-linejoin:miter;stroke-width:1.123581;"/>
   </g>
   <g id="patch_60">
    <path clip-path="url(#pcaf0e2adff)" d="M 584.337232 165.663597 
L 584.337232 165.663597 
L 584.337232 154.427792 
L 584.337232 154.427792 
z
" style="fill:#96c69a;fill-opacity:0.5;stroke:#ffffff;stroke-linejoin:miter;stroke-width:1.123581;"/>
   </g>
   <g id="patch_61">
    <path clip-path="url(#pcaf0e2adff)" d="M 584.337232 154.427792 
L 584.337232 154.427792 
L 584.337232 143.191987 
L 584.337232 143.191987 
z
" style="fill:#96c69a;fill-opacity:0.5;stroke:#ffffff;stroke-linejoin:miter;stroke-width:1.123581;"/>
   </g>
   <g id="patch_62">
    <path clip-path="url(#pcaf0e2adff)" d="M 584.337232 143.191987 
L 584.765737 143.191987 
L 584.765737 131.956182 
L 584.337232 131.956182 
z
" style="fill:#96c69a;fill-opacity:0.5;stroke:#ffffff;stroke-linejoin:miter;stroke-width:1.123581;"/>
   </g>
   <g id="patch_63">
    <path d="M 584.337232 603.86 
L 584.337232 109.484571 
" style="fill:none;stroke:#262626;stroke-linecap:square;stroke-linejoin:miter;stroke-width:2.5;"/>
   </g>
   <g id="patch_64">
    <path d="M 584.337232 603.86 
L 667.574375 603.86 
" style="fill:none;stroke:#262626;stroke-linecap:square;stroke-linejoin:miter;stroke-width:2.5;"/>
   </g>
  </g>
 </g>
 <defs>
  <clipPath id="pc1fc93ff1a">
   <rect height="494.375429" width="482.775429" x="84.914375" y="109.484571"/>
  </clipPath>
  <clipPath id="p6c0f00b9c7">
   <rect height="85.237143" width="482.775429" x="84.914375" y="7.2"/>
  </clipPath>
  <clipPath id="pcaf0e2adff">
   <rect height="494.375429" width="83.237143" x="584.337232" y="109.484571"/>
  </clipPath>
 </defs>
</svg>
