<?xml version="1.0" encoding="utf-8" standalone="no"?>
<!DOCTYPE svg PUBLIC "-//W3C//DTD SVG 1.1//EN"
  "http://www.w3.org/Graphics/SVG/1.1/DTD/svg11.dtd">
<svg height="675.079375pt" version="1.1" viewBox="0 0 674.774375 675.079375" width="674.774375pt" xmlns="http://www.w3.org/2000/svg" xmlns:xlink="http://www.w3.org/1999/xlink">
 <metadata>
  <rdf:RDF xmlns:cc="http://creativecommons.org/ns#" xmlns:dc="http://purl.org/dc/elements/1.1/" xmlns:rdf="http://www.w3.org/1999/02/22-rdf-syntax-ns#">
   <cc:Work>
    <dc:type rdf:resource="http://purl.org/dc/dcmitype/StillImage"/>
    <dc:date>2021-07-16T21:43:51.612739</dc:date>
    <dc:format>image/svg+xml</dc:format>
    <dc:creator>
     <cc:Agent>
      <dc:title>Matplotlib v3.4.2, https://matplotlib.org/</dc:title>
     </cc:Agent>
    </dc:creator>
   </cc:Work>
  </rdf:RDF>
 </metadata>
 <defs>
  <style type="text/css">*{stroke-linecap:butt;stroke-linejoin:round;}</style>
 </defs>
 <g id="figure_1">
  <g id="patch_1">
   <path d="M 0 675.079375 
L 674.774375 675.079375 
L 674.774375 0 
L 0 0 
z
" style="fill:#ffffff;"/>
  </g>
  <g id="axes_1">
   <g id="patch_2">
    <path d="M 84.914375 603.86 
L 567.689804 603.86 
L 567.689804 109.484571 
L 84.914375 109.484571 
z
" style="fill:none;"/>
   </g>
   <g id="matplotlib.axis_1">
    <g id="xtick_1">
     <g id="text_1">
      <!-- 0 -->
      <g style="fill:#262626;" transform="translate(99.64041 636.076563)scale(0.22 -0.22)">
       <defs>
        <path d="M 2034 4250 
Q 1547 4250 1301 3770 
Q 1056 3291 1056 2328 
Q 1056 1369 1301 889 
Q 1547 409 2034 409 
Q 2525 409 2770 889 
Q 3016 1369 3016 2328 
Q 3016 3291 2770 3770 
Q 2525 4250 2034 4250 
z
M 2034 4750 
Q 2819 4750 3233 4129 
Q 3647 3509 3647 2328 
Q 3647 1150 3233 529 
Q 2819 -91 2034 -91 
Q 1250 -91 836 529 
Q 422 1150 422 2328 
Q 422 3509 836 4129 
Q 1250 4750 2034 4750 
z
" id="DejaVuSans-30" transform="scale(0.015625)"/>
       </defs>
       <use xlink:href="#DejaVuSans-30"/>
      </g>
     </g>
    </g>
    <g id="xtick_2">
     <g id="text_2">
      <!-- 20000 -->
      <g style="fill:#262626;" transform="translate(159.466671 636.076563)scale(0.22 -0.22)">
       <defs>
        <path d="M 1228 531 
L 3431 531 
L 3431 0 
L 469 0 
L 469 531 
Q 828 903 1448 1529 
Q 2069 2156 2228 2338 
Q 2531 2678 2651 2914 
Q 2772 3150 2772 3378 
Q 2772 3750 2511 3984 
Q 2250 4219 1831 4219 
Q 1534 4219 1204 4116 
Q 875 4013 500 3803 
L 500 4441 
Q 881 4594 1212 4672 
Q 1544 4750 1819 4750 
Q 2544 4750 2975 4387 
Q 3406 4025 3406 3419 
Q 3406 3131 3298 2873 
Q 3191 2616 2906 2266 
Q 2828 2175 2409 1742 
Q 1991 1309 1228 531 
z
" id="DejaVuSans-32" transform="scale(0.015625)"/>
       </defs>
       <use xlink:href="#DejaVuSans-32"/>
       <use x="63.623047" xlink:href="#DejaVuSans-30"/>
       <use x="127.246094" xlink:href="#DejaVuSans-30"/>
       <use x="190.869141" xlink:href="#DejaVuSans-30"/>
       <use x="254.492188" xlink:href="#DejaVuSans-30"/>
      </g>
     </g>
    </g>
    <g id="xtick_3">
     <g id="text_3">
      <!-- 40000 -->
      <g style="fill:#262626;" transform="translate(247.287932 636.076563)scale(0.22 -0.22)">
       <defs>
        <path d="M 2419 4116 
L 825 1625 
L 2419 1625 
L 2419 4116 
z
M 2253 4666 
L 3047 4666 
L 3047 1625 
L 3713 1625 
L 3713 1100 
L 3047 1100 
L 3047 0 
L 2419 0 
L 2419 1100 
L 313 1100 
L 313 1709 
L 2253 4666 
z
" id="DejaVuSans-34" transform="scale(0.015625)"/>
       </defs>
       <use xlink:href="#DejaVuSans-34"/>
       <use x="63.623047" xlink:href="#DejaVuSans-30"/>
       <use x="127.246094" xlink:href="#DejaVuSans-30"/>
       <use x="190.869141" xlink:href="#DejaVuSans-30"/>
       <use x="254.492188" xlink:href="#DejaVuSans-30"/>
      </g>
     </g>
    </g>
    <g id="xtick_4">
     <g id="text_4">
      <!-- 60000 -->
      <g style="fill:#262626;" transform="translate(335.109193 636.076563)scale(0.22 -0.22)">
       <defs>
        <path d="M 2113 2584 
Q 1688 2584 1439 2293 
Q 1191 2003 1191 1497 
Q 1191 994 1439 701 
Q 1688 409 2113 409 
Q 2538 409 2786 701 
Q 3034 994 3034 1497 
Q 3034 2003 2786 2293 
Q 2538 2584 2113 2584 
z
M 3366 4563 
L 3366 3988 
Q 3128 4100 2886 4159 
Q 2644 4219 2406 4219 
Q 1781 4219 1451 3797 
Q 1122 3375 1075 2522 
Q 1259 2794 1537 2939 
Q 1816 3084 2150 3084 
Q 2853 3084 3261 2657 
Q 3669 2231 3669 1497 
Q 3669 778 3244 343 
Q 2819 -91 2113 -91 
Q 1303 -91 875 529 
Q 447 1150 447 2328 
Q 447 3434 972 4092 
Q 1497 4750 2381 4750 
Q 2619 4750 2861 4703 
Q 3103 4656 3366 4563 
z
" id="DejaVuSans-36" transform="scale(0.015625)"/>
       </defs>
       <use xlink:href="#DejaVuSans-36"/>
       <use x="63.623047" xlink:href="#DejaVuSans-30"/>
       <use x="127.246094" xlink:href="#DejaVuSans-30"/>
       <use x="190.869141" xlink:href="#DejaVuSans-30"/>
       <use x="254.492188" xlink:href="#DejaVuSans-30"/>
      </g>
     </g>
    </g>
    <g id="xtick_5">
     <g id="text_5">
      <!-- 80000 -->
      <g style="fill:#262626;" transform="translate(422.930455 636.076563)scale(0.22 -0.22)">
       <defs>
        <path d="M 2034 2216 
Q 1584 2216 1326 1975 
Q 1069 1734 1069 1313 
Q 1069 891 1326 650 
Q 1584 409 2034 409 
Q 2484 409 2743 651 
Q 3003 894 3003 1313 
Q 3003 1734 2745 1975 
Q 2488 2216 2034 2216 
z
M 1403 2484 
Q 997 2584 770 2862 
Q 544 3141 544 3541 
Q 544 4100 942 4425 
Q 1341 4750 2034 4750 
Q 2731 4750 3128 4425 
Q 3525 4100 3525 3541 
Q 3525 3141 3298 2862 
Q 3072 2584 2669 2484 
Q 3125 2378 3379 2068 
Q 3634 1759 3634 1313 
Q 3634 634 3220 271 
Q 2806 -91 2034 -91 
Q 1263 -91 848 271 
Q 434 634 434 1313 
Q 434 1759 690 2068 
Q 947 2378 1403 2484 
z
M 1172 3481 
Q 1172 3119 1398 2916 
Q 1625 2713 2034 2713 
Q 2441 2713 2670 2916 
Q 2900 3119 2900 3481 
Q 2900 3844 2670 4047 
Q 2441 4250 2034 4250 
Q 1625 4250 1398 4047 
Q 1172 3844 1172 3481 
z
" id="DejaVuSans-38" transform="scale(0.015625)"/>
       </defs>
       <use xlink:href="#DejaVuSans-38"/>
       <use x="63.623047" xlink:href="#DejaVuSans-30"/>
       <use x="127.246094" xlink:href="#DejaVuSans-30"/>
       <use x="190.869141" xlink:href="#DejaVuSans-30"/>
       <use x="254.492188" xlink:href="#DejaVuSans-30"/>
      </g>
     </g>
    </g>
    <g id="xtick_6">
     <g id="text_6">
      <!-- 100000 -->
      <g style="fill:#262626;" transform="translate(503.752966 636.076563)scale(0.22 -0.22)">
       <defs>
        <path d="M 794 531 
L 1825 531 
L 1825 4091 
L 703 3866 
L 703 4441 
L 1819 4666 
L 2450 4666 
L 2450 531 
L 3481 531 
L 3481 0 
L 794 0 
L 794 531 
z
" id="DejaVuSans-31" transform="scale(0.015625)"/>
       </defs>
       <use xlink:href="#DejaVuSans-31"/>
       <use x="63.623047" xlink:href="#DejaVuSans-30"/>
       <use x="127.246094" xlink:href="#DejaVuSans-30"/>
       <use x="190.869141" xlink:href="#DejaVuSans-30"/>
       <use x="254.492188" xlink:href="#DejaVuSans-30"/>
       <use x="318.115234" xlink:href="#DejaVuSans-30"/>
      </g>
     </g>
    </g>
    <g id="text_7">
     <!-- MDTU -->
     <g style="fill:#262626;" transform="translate(290.596464 662.888125)scale(0.24 -0.24)">
      <defs>
       <path d="M 628 4666 
L 1569 4666 
L 2759 1491 
L 3956 4666 
L 4897 4666 
L 4897 0 
L 4281 0 
L 4281 4097 
L 3078 897 
L 2444 897 
L 1241 4097 
L 1241 0 
L 628 0 
L 628 4666 
z
" id="DejaVuSans-4d" transform="scale(0.015625)"/>
       <path d="M 1259 4147 
L 1259 519 
L 2022 519 
Q 2988 519 3436 956 
Q 3884 1394 3884 2338 
Q 3884 3275 3436 3711 
Q 2988 4147 2022 4147 
L 1259 4147 
z
M 628 4666 
L 1925 4666 
Q 3281 4666 3915 4102 
Q 4550 3538 4550 2338 
Q 4550 1131 3912 565 
Q 3275 0 1925 0 
L 628 0 
L 628 4666 
z
" id="DejaVuSans-44" transform="scale(0.015625)"/>
       <path d="M -19 4666 
L 3928 4666 
L 3928 4134 
L 2272 4134 
L 2272 0 
L 1638 0 
L 1638 4134 
L -19 4134 
L -19 4666 
z
" id="DejaVuSans-54" transform="scale(0.015625)"/>
       <path d="M 556 4666 
L 1191 4666 
L 1191 1831 
Q 1191 1081 1462 751 
Q 1734 422 2344 422 
Q 2950 422 3222 751 
Q 3494 1081 3494 1831 
L 3494 4666 
L 4128 4666 
L 4128 1753 
Q 4128 841 3676 375 
Q 3225 -91 2344 -91 
Q 1459 -91 1007 375 
Q 556 841 556 1753 
L 556 4666 
z
" id="DejaVuSans-55" transform="scale(0.015625)"/>
      </defs>
      <use xlink:href="#DejaVuSans-4d"/>
      <use x="86.279297" xlink:href="#DejaVuSans-44"/>
      <use x="163.28125" xlink:href="#DejaVuSans-54"/>
      <use x="224.365234" xlink:href="#DejaVuSans-55"/>
     </g>
    </g>
   </g>
   <g id="matplotlib.axis_2">
    <g id="ytick_1">
     <g id="text_8">
      <!-- 0.4 -->
      <g style="fill:#262626;" transform="translate(34.4275 518.295715)scale(0.22 -0.22)">
       <defs>
        <path d="M 684 794 
L 1344 794 
L 1344 0 
L 684 0 
L 684 794 
z
" id="DejaVuSans-2e" transform="scale(0.015625)"/>
       </defs>
       <use xlink:href="#DejaVuSans-30"/>
       <use x="63.623047" xlink:href="#DejaVuSans-2e"/>
       <use x="95.410156" xlink:href="#DejaVuSans-34"/>
      </g>
     </g>
    </g>
    <g id="ytick_2">
     <g id="text_9">
      <!-- 0.6 -->
      <g style="fill:#262626;" transform="translate(34.4275 424.281058)scale(0.22 -0.22)">
       <use xlink:href="#DejaVuSans-30"/>
       <use x="63.623047" xlink:href="#DejaVuSans-2e"/>
       <use x="95.410156" xlink:href="#DejaVuSans-36"/>
      </g>
     </g>
    </g>
    <g id="ytick_3">
     <g id="text_10">
      <!-- 0.8 -->
      <g style="fill:#262626;" transform="translate(34.4275 330.266401)scale(0.22 -0.22)">
       <use xlink:href="#DejaVuSans-30"/>
       <use x="63.623047" xlink:href="#DejaVuSans-2e"/>
       <use x="95.410156" xlink:href="#DejaVuSans-38"/>
      </g>
     </g>
    </g>
    <g id="ytick_4">
     <g id="text_11">
      <!-- 1.0 -->
      <g style="fill:#262626;" transform="translate(34.4275 236.251744)scale(0.22 -0.22)">
       <use xlink:href="#DejaVuSans-31"/>
       <use x="63.623047" xlink:href="#DejaVuSans-2e"/>
       <use x="95.410156" xlink:href="#DejaVuSans-30"/>
      </g>
     </g>
    </g>
    <g id="ytick_5">
     <g id="text_12">
      <!-- 1.2 -->
      <g style="fill:#262626;" transform="translate(34.4275 142.237088)scale(0.22 -0.22)">
       <use xlink:href="#DejaVuSans-31"/>
       <use x="63.623047" xlink:href="#DejaVuSans-2e"/>
       <use x="95.410156" xlink:href="#DejaVuSans-32"/>
      </g>
     </g>
    </g>
    <g id="text_13">
     <!-- $E$ -->
     <g style="fill:#262626;" transform="translate(25.43625 364.352286)rotate(-90)scale(0.24 -0.24)">
      <defs>
       <path d="M 1081 4666 
L 4031 4666 
L 3928 4134 
L 1606 4134 
L 1338 2753 
L 3566 2753 
L 3463 2222 
L 1234 2222 
L 909 531 
L 3284 531 
L 3181 0 
L 172 0 
L 1081 4666 
z
" id="DejaVuSans-Oblique-45" transform="scale(0.015625)"/>
      </defs>
      <use transform="translate(0 0.09375)" xlink:href="#DejaVuSans-Oblique-45"/>
     </g>
    </g>
   </g>
   <g id="line2d_1">
    <path clip-path="url(#pf4aff40882)" d="M 106.858713 371.763695 
L 107.078266 389.514491 
L 107.297819 356.980735 
L 107.517372 418.099194 
L 107.736925 539.087203 
L 108.176032 400.785509 
L 108.395585 462.984792 
L 108.615138 329.95017 
L 108.834691 508.969004 
L 109.054244 333.685205 
L 109.273797 398.345965 
L 109.493351 357.837298 
L 109.712904 399.685669 
L 109.932457 292.514019 
L 110.15201 378.898537 
L 110.371563 396.9613 
L 110.591116 343.74217 
L 110.810669 362.802342 
L 111.030223 339.232989 
L 111.249776 422.066352 
L 111.469329 380.732745 
L 111.688882 366.683033 
L 111.908435 464.057954 
L 112.127988 366.528085 
L 112.347541 457.058039 
L 112.567095 454.472123 
L 112.786648 337.214809 
L 113.006201 457.491036 
L 113.225754 454.648109 
L 113.445307 474.230443 
L 113.66486 378.264766 
L 113.884414 381.269858 
L 114.103967 512.582327 
L 114.32352 416.925023 
L 114.543073 463.194716 
L 114.762626 315.101844 
L 114.982179 277.379361 
L 115.201732 437.515424 
L 115.421286 483.864238 
L 115.640839 324.076371 
L 115.860392 485.479796 
L 116.079945 326.612333 
L 116.299498 477.985946 
L 116.519051 500.345068 
L 116.738605 469.075306 
L 116.958158 532.87894 
L 117.177711 433.311538 
L 117.397264 408.07292 
L 117.616817 481.708617 
L 117.83637 341.240861 
L 118.275477 383.163458 
L 118.49503 507.636432 
L 118.934136 350.21441 
L 119.153689 444.988448 
L 119.373242 441.763278 
L 119.592796 375.082712 
L 119.812349 416.272906 
L 120.031902 377.879816 
L 120.471008 515.442797 
L 120.690561 349.044269 
L 120.910114 467.205831 
L 121.349221 527.785181 
L 121.788327 410.214461 
L 122.00788 424.163199 
L 122.227433 463.483999 
L 122.446987 300.134333 
L 122.66654 405.370409 
L 122.886093 411.89579 
L 123.105646 387.529676 
L 123.325199 467.437275 
L 123.764305 402.209629 
L 123.983859 453.690342 
L 124.203412 437.85519 
L 124.422965 440.005293 
L 124.642518 385.15074 
L 124.862071 523.195604 
L 125.081624 505.104 
L 125.520731 420.262109 
L 125.740284 419.715282 
L 125.959837 398.292387 
L 126.17939 507.937723 
L 126.398943 340.67283 
L 126.618496 471.522138 
L 126.83805 422.846812 
L 127.057603 494.331144 
L 127.277156 498.38765 
L 127.496709 424.805668 
L 127.935815 353.491806 
L 128.374922 507.164531 
L 128.594475 514.939573 
L 128.814028 360.056152 
L 129.033581 417.476105 
L 129.253134 237.668285 
L 129.692241 514.478815 
L 129.911794 498.288197 
L 130.131347 387.128088 
L 130.3509 444.029017 
L 130.570453 439.076094 
L 130.790006 466.91034 
L 131.00956 424.398539 
L 131.229113 461.42961 
L 131.448666 369.741876 
L 131.887772 463.651987 
L 132.326878 399.454383 
L 132.546432 390.093636 
L 132.765985 540.751279 
L 132.985538 395.626918 
L 133.205091 503.537259 
L 133.424644 387.529143 
L 133.644197 512.577777 
L 134.302857 362.137787 
L 134.52241 443.389963 
L 134.741963 382.374557 
L 134.961516 493.492393 
L 135.181069 505.269094 
L 135.400623 345.180175 
L 135.620176 418.522378 
L 135.839729 543.838151 
L 136.059282 484.491722 
L 136.278835 263.212046 
L 136.498388 467.633949 
L 136.717941 334.590875 
L 136.937495 344.564142 
L 137.157048 469.962515 
L 137.376601 473.048633 
L 137.596154 519.571379 
L 137.815707 471.534293 
L 138.03526 497.478026 
L 138.254814 383.699247 
L 138.474367 480.635077 
L 138.69392 362.888073 
L 139.352579 548.399814 
L 139.572132 381.999979 
L 139.791686 456.514166 
L 140.450345 336.173002 
L 140.669898 349.788653 
L 140.889451 489.178062 
L 141.109005 479.695802 
L 141.328558 403.62445 
L 141.767664 431.330068 
L 141.987217 493.448621 
L 142.20677 377.923176 
L 142.426323 438.947458 
L 142.645877 395.477663 
L 142.86543 459.062679 
L 143.084983 454.008412 
L 143.304536 504.599231 
L 143.524089 523.040829 
L 143.743642 333.373325 
L 143.963196 325.639721 
L 144.402302 427.846261 
L 144.621855 189.487426 
L 144.841408 422.282066 
L 145.060961 508.594203 
L 145.280514 392.462705 
L 145.500068 476.587366 
L 145.719621 498.815655 
L 145.939174 429.794955 
L 146.158727 446.878971 
L 146.37828 271.204127 
L 146.597833 406.882335 
L 146.817387 371.151454 
L 147.03694 373.938255 
L 147.476046 483.174101 
L 147.695599 450.387621 
L 147.915152 503.192511 
L 148.134705 408.649148 
L 148.573812 354.570982 
L 148.793365 493.025902 
L 149.232471 452.742803 
L 149.452024 386.054672 
L 149.671578 455.781426 
L 149.891131 488.027218 
L 150.110684 402.81818 
L 150.330237 490.497545 
L 150.54979 409.326024 
L 150.769343 399.519362 
L 151.20845 507.745268 
L 151.428003 498.680424 
L 151.647556 357.940561 
L 151.867109 444.920361 
L 152.086662 400.00504 
L 152.306215 480.788424 
L 152.525769 506.798736 
L 152.745322 366.255479 
L 152.964875 415.287106 
L 153.184428 505.730579 
L 153.403981 460.916175 
L 153.623534 359.488057 
L 153.843087 496.726476 
L 154.062641 438.673414 
L 154.501747 430.469503 
L 154.7213 404.252865 
L 154.940853 475.329657 
L 155.160406 411.18 
L 155.599513 543.465509 
L 155.819066 499.915009 
L 156.038619 390.278751 
L 156.258172 493.834482 
L 156.477725 296.104843 
L 156.697278 490.168795 
L 156.916832 484.498555 
L 157.136385 395.018683 
L 157.355938 482.415788 
L 157.575491 228.676638 
L 157.795044 402.173652 
L 158.014597 348.015706 
L 158.234151 533.46727 
L 158.453704 386.333458 
L 158.673257 486.250765 
L 158.89281 426.853476 
L 159.112363 478.092305 
L 159.551469 351.015815 
L 159.771023 518.657736 
L 159.990576 338.145394 
L 160.210129 382.923998 
L 160.429682 512.850966 
L 160.649235 455.118909 
L 160.868788 434.112774 
L 161.088342 434.275732 
L 161.307895 408.192283 
L 161.527448 517.736258 
L 161.966554 400.101327 
L 162.186107 426.484174 
L 162.40566 411.456035 
L 162.625214 349.575016 
L 163.06432 480.752417 
L 163.283873 410.431224 
L 163.503426 438.421435 
L 163.722979 434.52904 
L 163.942532 454.092814 
L 164.162086 454.576978 
L 164.381639 487.374377 
L 164.601192 425.598885 
L 164.820745 451.694695 
L 165.040298 369.978111 
L 165.259851 448.539374 
L 165.479405 453.805725 
L 165.698958 445.884214 
L 165.918511 532.311025 
L 166.138064 503.524314 
L 166.357617 370.074559 
L 166.796723 508.572686 
L 167.016277 400.160221 
L 167.23583 443.758361 
L 167.455383 287.677914 
L 167.674936 313.224455 
L 167.894489 528.7787 
L 168.114042 449.661466 
L 168.333596 519.842121 
L 168.772702 398.179302 
L 168.992255 369.367325 
L 169.211808 487.708222 
L 169.431361 288.331974 
L 169.650914 478.751991 
L 169.870468 405.825743 
L 170.090021 292.468978 
L 170.309574 514.524564 
L 170.529127 374.519575 
L 170.74868 320.799234 
L 170.968233 555.350453 
L 171.187787 416.051894 
L 171.40734 409.27097 
L 171.846446 297.335327 
L 172.285552 456.975753 
L 172.505105 290.657145 
L 172.724659 301.89554 
L 173.163765 520.202718 
L 174.041978 411.480711 
L 174.261531 446.129887 
L 174.481084 379.401531 
L 174.700637 480.749433 
L 174.92019 428.245962 
L 175.139743 402.911468 
L 175.359296 508.694484 
L 175.57885 482.728208 
L 175.798403 482.525457 
L 176.017956 339.135862 
L 176.237509 554.857666 
L 176.676615 420.039377 
L 176.896169 546.621406 
L 177.115722 316.330821 
L 177.335275 361.625972 
L 177.554828 466.786775 
L 177.774381 478.676607 
L 177.993934 337.884023 
L 178.213487 489.194022 
L 178.652594 411.502506 
L 179.0917 487.597318 
L 179.311253 294.903012 
L 179.75036 509.029546 
L 179.969913 441.286363 
L 180.189466 413.766927 
L 180.409019 475.51127 
L 180.628572 438.499259 
L 181.287232 478.073782 
L 181.506785 395.545354 
L 181.726338 463.264709 
L 181.945891 449.642169 
L 182.165444 484.624243 
L 182.384997 453.404999 
L 182.604551 470.400107 
L 182.824104 373.947994 
L 183.043657 336.555741 
L 183.26321 467.389428 
L 183.482763 513.088421 
L 183.921869 438.420149 
L 184.141423 264.466764 
L 184.360976 510.317364 
L 184.580529 131.956182 
L 184.800082 428.647579 
L 185.019635 530.981407 
L 185.458742 322.028199 
L 185.678295 303.444179 
L 185.897848 452.780791 
L 186.117401 329.936448 
L 186.336954 271.098896 
L 186.556507 442.12483 
L 186.77606 502.265027 
L 187.215167 192.176279 
L 187.43472 410.633697 
L 187.654273 450.865485 
L 188.093379 315.53142 
L 188.312932 424.66321 
L 188.532486 396.553982 
L 188.752039 466.274942 
L 188.971592 444.17348 
L 189.191145 484.253602 
L 189.410698 500.08205 
L 189.630251 466.701037 
L 189.849805 397.875139 
L 190.069358 542.378316 
L 190.288911 363.975629 
L 190.508464 433.608173 
L 190.728017 409.243324 
L 190.94757 465.632966 
L 191.167123 473.910064 
L 191.386677 322.028472 
L 191.60623 488.164162 
L 191.825783 459.569016 
L 192.045336 494.920084 
L 192.264889 367.45383 
L 192.484442 466.692326 
L 192.703996 408.235214 
L 193.143102 542.16978 
L 193.362655 355.276507 
L 193.582208 418.121793 
L 193.801761 383.8234 
L 194.021314 377.926137 
L 194.240868 459.62918 
L 194.460421 397.369701 
L 194.679974 456.281293 
L 195.11908 469.896017 
L 195.338633 446.805234 
L 195.558187 470.405895 
L 195.77774 388.359624 
L 195.997293 378.624562 
L 196.216846 403.274867 
L 196.436399 510.854507 
L 196.655952 466.267125 
L 196.875505 491.221419 
L 197.095059 350.122567 
L 197.314612 525.964406 
L 197.534165 346.300048 
L 197.973271 469.840698 
L 198.192824 354.086084 
L 198.412378 389.019584 
L 198.631931 509.022759 
L 198.851484 361.834639 
L 199.071037 502.532179 
L 199.510143 366.95887 
L 199.729696 309.993316 
L 199.94925 479.123777 
L 200.168803 483.951217 
L 200.388356 408.660984 
L 200.607909 378.948618 
L 200.827462 463.456471 
L 201.047015 387.563099 
L 201.486122 493.571476 
L 201.705675 527.398212 
L 201.925228 485.919981 
L 202.144781 476.594638 
L 202.364334 483.450203 
L 202.583887 486.798917 
L 202.803441 437.467367 
L 203.022994 414.953437 
L 203.242547 358.273705 
L 203.4621 494.548193 
L 203.681653 392.812583 
L 203.901206 486.677262 
L 204.12076 461.625422 
L 204.340313 349.378036 
L 204.559866 430.449999 
L 204.779419 437.7334 
L 204.998972 427.878093 
L 205.218525 547.290786 
L 205.438078 454.523286 
L 205.657632 524.293642 
L 205.877185 463.916578 
L 206.096738 464.004062 
L 206.316291 457.911079 
L 206.535844 376.9701 
L 206.755397 413.237417 
L 206.974951 511.975787 
L 207.194504 328.581563 
L 207.414057 529.299756 
L 207.63361 440.048961 
L 207.853163 299.822007 
L 208.072716 318.192689 
L 208.511823 460.862967 
L 208.950929 398.921194 
L 209.170482 407.22037 
L 209.390035 425.734527 
L 209.609588 288.87849 
L 209.829142 372.008781 
L 210.048695 511.799828 
L 210.268248 464.230742 
L 210.487801 478.979778 
L 210.707354 372.312081 
L 210.926907 497.518083 
L 211.14646 458.70001 
L 211.366014 329.202509 
L 211.585567 359.122985 
L 211.80512 319.94684 
L 212.024673 416.424066 
L 212.244226 372.224053 
L 212.463779 443.269235 
L 212.683333 400.505191 
L 212.902886 474.442087 
L 213.122439 465.25274 
L 213.341992 375.964193 
L 213.561545 438.88793 
L 213.781098 313.134369 
L 214.220205 501.790628 
L 214.439758 501.8415 
L 214.659311 520.885063 
L 214.878864 403.756291 
L 215.098417 470.638867 
L 215.31797 416.702597 
L 215.537523 503.097737 
L 215.757077 383.908607 
L 215.97663 421.363702 
L 216.635289 294.738939 
L 216.854842 534.447398 
L 217.074396 352.188266 
L 217.293949 378.700635 
L 217.513502 494.490923 
L 217.733055 350.399117 
L 217.952608 474.082687 
L 218.172161 477.411997 
L 218.391714 380.396707 
L 218.611268 486.472195 
L 218.830821 421.308629 
L 219.050374 457.915175 
L 219.269927 550.546695 
L 219.48948 396.706663 
L 219.709033 451.938248 
L 219.928587 337.432154 
L 220.14814 492.511732 
L 220.367693 414.690033 
L 220.587246 514.023901 
L 220.806799 405.308039 
L 221.026352 418.907957 
L 221.245905 440.11593 
L 221.465459 482.831823 
L 221.685012 488.1442 
L 221.904565 427.467676 
L 222.124118 485.589887 
L 222.343671 513.549686 
L 222.563224 389.149409 
L 222.782778 461.260277 
L 223.002331 384.236265 
L 223.221884 399.138927 
L 223.441437 523.467015 
L 223.66099 422.788512 
L 223.880543 509.130265 
L 224.100096 420.918825 
L 224.31965 496.467514 
L 224.539203 390.584692 
L 224.758756 367.329276 
L 224.978309 462.712117 
L 225.197862 377.216066 
L 225.417415 442.6804 
L 225.636969 411.932402 
L 225.856522 479.00051 
L 226.076075 416.229164 
L 226.295628 210.670259 
L 226.515181 422.637113 
L 226.734734 434.792226 
L 226.954287 418.658957 
L 227.173841 456.716782 
L 227.393394 370.099757 
L 227.612947 503.38974 
L 228.052053 184.11677 
L 228.271606 489.145244 
L 228.49116 439.826879 
L 228.710713 357.166701 
L 228.930266 502.273485 
L 229.149819 491.666107 
L 229.588925 348.269731 
L 229.808478 380.885136 
L 230.028032 435.49034 
L 230.247585 552.629795 
L 230.467138 337.939769 
L 230.686691 458.613482 
L 230.906244 468.667668 
L 231.125797 359.989584 
L 231.345351 319.559072 
L 231.564904 333.352552 
L 231.784457 490.115496 
L 232.00401 416.511238 
L 232.223563 411.706434 
L 232.443116 429.335635 
L 232.662669 468.27823 
L 232.882223 451.838508 
L 233.321329 467.792923 
L 233.540882 403.95112 
L 233.760435 392.194726 
L 234.199542 480.495387 
L 234.419095 425.707008 
L 234.638648 404.462875 
L 234.858201 398.450151 
L 235.077754 357.692052 
L 235.297307 494.441488 
L 235.51686 430.996365 
L 235.736414 439.929535 
L 235.955967 404.262504 
L 236.17552 425.3791 
L 236.395073 473.534621 
L 236.834179 315.710104 
L 237.053733 402.470104 
L 237.273286 371.286728 
L 237.492839 470.212817 
L 237.712392 471.164882 
L 237.931945 493.202263 
L 238.151498 448.055342 
L 238.371051 443.719864 
L 238.590605 359.130751 
L 238.810158 442.014233 
L 239.029711 424.9274 
L 239.249264 395.151624 
L 239.468817 312.918267 
L 239.68837 504.35516 
L 239.907924 533.067845 
L 240.127477 469.752788 
L 240.34703 365.250823 
L 240.566583 475.121487 
L 240.786136 518.552059 
L 241.005689 409.861061 
L 241.225242 431.821839 
L 241.444796 352.207631 
L 241.664349 379.72705 
L 241.883902 390.123913 
L 242.103455 432.438985 
L 242.323008 534.433681 
L 242.542561 301.77713 
L 242.762114 478.101636 
L 242.981668 540.856197 
L 243.201221 442.149807 
L 243.420774 466.130065 
L 243.640327 506.592488 
L 243.85988 523.943459 
L 244.079433 404.970083 
L 244.298987 386.292565 
L 244.51854 424.399903 
L 244.738093 537.882355 
L 244.957646 466.062991 
L 245.177199 481.05192 
L 245.396752 406.106826 
L 245.616305 499.666774 
L 245.835859 312.857444 
L 246.055412 239.384837 
L 246.274965 507.408529 
L 246.494518 481.600943 
L 246.933624 515.005257 
L 247.592284 379.115466 
L 247.811837 395.09132 
L 248.03139 311.344193 
L 248.250943 412.197302 
L 248.470496 400.412916 
L 248.69005 381.330016 
L 248.909603 379.823354 
L 249.129156 389.638907 
L 249.348709 389.736927 
L 249.568262 395.181633 
L 249.787815 439.772078 
L 250.007369 411.168938 
L 250.226922 313.227433 
L 250.446475 281.110822 
L 250.666028 195.244106 
L 250.885581 471.245259 
L 251.105134 456.069908 
L 251.324687 411.588882 
L 251.544241 409.876421 
L 251.983347 462.286901 
L 252.2029 449.699266 
L 252.422453 480.704582 
L 252.642006 388.359926 
L 252.86156 462.293549 
L 253.081113 480.897132 
L 253.520219 171.969155 
L 253.739772 395.63119 
L 253.959325 312.982985 
L 254.178878 502.720511 
L 254.398432 447.348627 
L 254.617985 458.686408 
L 254.837538 423.442374 
L 255.057091 429.543488 
L 255.276644 357.045952 
L 255.496197 502.174389 
L 255.715751 380.595796 
L 255.935304 480.085659 
L 256.154857 374.117767 
L 256.37441 512.262554 
L 256.593963 436.367116 
L 256.813516 473.587553 
L 257.033069 392.457506 
L 257.252623 451.055413 
L 257.472176 388.041942 
L 257.691729 483.742205 
L 257.911282 414.272205 
L 258.130835 474.580881 
L 258.350388 468.888192 
L 258.569942 412.54222 
L 258.789495 443.015458 
L 259.009048 497.274559 
L 259.228601 457.363748 
L 259.448154 442.62583 
L 259.667707 479.228689 
L 259.88726 479.116206 
L 260.106814 342.284771 
L 260.326367 465.566905 
L 260.54592 395.868202 
L 260.765473 398.931548 
L 260.985026 480.687917 
L 261.204579 421.392363 
L 261.424133 459.855528 
L 261.643686 532.92947 
L 261.863239 477.386516 
L 262.082792 507.923364 
L 262.302345 462.448197 
L 262.521898 488.173988 
L 262.741451 435.286672 
L 262.961005 446.851597 
L 263.180558 492.135393 
L 263.400111 373.598087 
L 263.619664 461.608381 
L 263.839217 460.06867 
L 264.05877 549.294061 
L 264.278324 400.04055 
L 264.497877 407.522498 
L 264.71743 375.095522 
L 264.936983 506.194828 
L 265.156536 323.234892 
L 265.376089 377.152909 
L 265.595642 386.792637 
L 265.815196 478.857448 
L 266.034749 462.919218 
L 266.254302 421.954661 
L 266.473855 441.002127 
L 266.693408 532.978995 
L 266.912961 346.245158 
L 267.132514 445.574667 
L 267.352068 457.820201 
L 267.571621 297.548512 
L 267.791174 430.290377 
L 268.010727 395.833279 
L 268.23028 478.712647 
L 268.449833 457.323388 
L 268.669387 302.315115 
L 269.108493 484.754878 
L 269.328046 350.723176 
L 269.547599 470.43461 
L 269.767152 474.844926 
L 270.206259 499.684954 
L 270.425812 395.079711 
L 270.645365 352.537462 
L 270.864918 404.686274 
L 271.084471 502.249576 
L 271.304024 279.304955 
L 271.523578 476.228925 
L 271.962684 403.333151 
L 272.182237 388.933061 
L 272.40179 411.499837 
L 272.621343 364.465782 
L 272.840896 500.302729 
L 273.06045 434.824637 
L 273.280003 467.835969 
L 273.719109 437.714551 
L 273.938662 480.663659 
L 274.158215 349.071626 
L 274.377769 447.244076 
L 274.597322 419.191263 
L 274.816875 414.045197 
L 275.036428 557.100116 
L 275.475534 429.172414 
L 275.695087 425.497083 
L 275.914641 498.921929 
L 276.134194 461.676005 
L 276.353747 472.495055 
L 276.5733 467.702233 
L 276.792853 377.305403 
L 277.012406 507.095432 
L 277.23196 495.201991 
L 277.451513 346.938669 
L 277.671066 484.296048 
L 277.890619 391.285699 
L 278.110172 380.988379 
L 278.329725 433.981249 
L 278.549278 428.310742 
L 278.768832 431.584515 
L 278.988385 414.221114 
L 279.207938 424.736291 
L 279.427491 336.005796 
L 280.086151 525.517889 
L 280.305704 434.802111 
L 280.525257 418.539546 
L 280.74481 425.982545 
L 280.964363 428.313584 
L 281.183916 356.650765 
L 281.403469 385.828755 
L 281.623023 265.38799 
L 281.842576 449.115147 
L 282.062129 306.749604 
L 282.281682 469.671907 
L 282.501235 474.533279 
L 282.720788 396.29853 
L 282.940342 433.619853 
L 283.159895 403.619211 
L 283.379448 426.960284 
L 283.599001 492.660653 
L 283.818554 486.477648 
L 284.038107 465.130574 
L 284.25766 403.08209 
L 284.477214 258.277491 
L 284.696767 442.883186 
L 284.91632 506.825842 
L 285.135873 296.670585 
L 285.355426 442.326531 
L 285.574979 344.913373 
L 285.794533 376.729189 
L 286.014086 496.860219 
L 286.233639 481.174217 
L 286.453192 476.136471 
L 286.672745 483.976219 
L 286.892298 337.198745 
L 287.111851 464.780419 
L 287.331405 527.641979 
L 287.550958 491.737051 
L 287.770511 522.44344 
L 287.990064 418.269841 
L 288.209617 414.541186 
L 288.42917 418.504733 
L 288.648724 479.954348 
L 288.868277 428.596168 
L 289.08783 503.789794 
L 289.307383 344.664589 
L 289.966042 472.439623 
L 290.185596 437.595026 
L 290.405149 435.883146 
L 290.624702 280.556785 
L 290.844255 405.972004 
L 291.063808 372.285372 
L 291.283361 389.229717 
L 291.502915 300.073012 
L 291.722468 329.103587 
L 291.942021 236.553411 
L 292.161574 441.391197 
L 292.381127 426.163152 
L 292.60068 447.732556 
L 292.820233 483.489907 
L 293.039787 445.92093 
L 293.25934 477.198631 
L 293.478893 459.804829 
L 293.917999 351.175647 
L 294.137552 380.464248 
L 294.357105 353.035772 
L 294.576659 445.500734 
L 294.796212 463.222793 
L 295.015765 500.176977 
L 295.235318 430.457107 
L 295.454871 471.515863 
L 295.674424 394.978922 
L 296.113531 461.617476 
L 296.333084 501.499547 
L 296.552637 520.137691 
L 296.77219 427.646009 
L 296.991743 513.802011 
L 297.211296 417.954402 
L 297.43085 268.817259 
L 297.650403 518.065442 
L 297.869956 136.841492 
L 298.089509 410.690914 
L 298.309062 332.181822 
L 298.528615 458.554004 
L 298.748169 413.884678 
L 298.967722 529.100158 
L 299.187275 404.217758 
L 299.406828 456.96189 
L 299.626381 239.042007 
L 300.065487 443.112908 
L 300.285041 334.208905 
L 300.504594 430.041197 
L 300.724147 447.874554 
L 300.9437 361.486986 
L 301.163253 456.708057 
L 301.382806 435.867435 
L 301.60236 553.112046 
L 301.821913 311.105401 
L 302.041466 538.398034 
L 302.261019 453.761425 
L 302.480572 278.529073 
L 302.700125 522.650315 
L 302.919678 537.352113 
L 303.139232 470.701246 
L 303.358785 334.322039 
L 303.578338 427.747738 
L 304.017444 373.718 
L 304.236997 275.593919 
L 304.676104 524.340045 
L 304.895657 435.867716 
L 305.11521 401.11214 
L 305.334763 398.60162 
L 305.554316 336.68843 
L 305.773869 441.039996 
L 305.993423 410.239549 
L 306.212976 420.068125 
L 306.432529 452.636482 
L 306.871635 581.38839 
L 307.091188 369.41685 
L 307.310742 445.40433 
L 307.530295 420.193575 
L 307.749848 460.141866 
L 307.969401 434.374241 
L 308.188954 266.363234 
L 308.408507 405.011207 
L 308.62806 388.49569 
L 308.847614 278.057499 
L 309.067167 399.766759 
L 309.28672 446.071859 
L 309.506273 337.282103 
L 309.725826 458.156239 
L 309.945379 442.072867 
L 310.164933 543.265466 
L 310.384486 403.504995 
L 310.604039 400.904969 
L 310.823592 449.737732 
L 311.043145 275.104219 
L 311.262698 424.63135 
L 311.482251 411.907807 
L 311.701805 509.045117 
L 311.921358 459.27866 
L 312.140911 457.921328 
L 312.360464 474.123107 
L 312.79957 403.458234 
L 313.019124 399.933387 
L 313.238677 411.767084 
L 313.45823 518.191132 
L 313.897336 422.526348 
L 314.116889 455.27277 
L 314.336442 515.867836 
L 314.555996 530.769521 
L 314.775549 442.617576 
L 315.214655 367.407951 
L 315.434208 463.121451 
L 315.653761 390.831529 
L 315.873315 528.54517 
L 316.092868 394.642716 
L 316.312421 388.869507 
L 316.531974 462.41082 
L 316.751527 446.249554 
L 316.97108 420.867666 
L 317.190633 492.599514 
L 317.410187 356.69862 
L 317.62974 506.749513 
L 317.849293 544.615747 
L 318.068846 347.572905 
L 318.288399 518.857173 
L 318.727506 436.17419 
L 319.166612 510.54192 
L 319.386165 476.633487 
L 319.605718 382.208341 
L 319.825271 232.763628 
L 320.044824 398.333504 
L 320.264378 278.160893 
L 320.483931 424.206299 
L 320.703484 357.02032 
L 321.14259 425.766019 
L 321.362143 442.364441 
L 321.581696 381.842427 
L 321.80125 459.861576 
L 322.020803 445.334797 
L 322.240356 512.436847 
L 322.459909 467.345147 
L 322.679462 322.113292 
L 322.899015 348.167754 
L 323.118569 455.148313 
L 323.338122 444.417991 
L 323.557675 363.300183 
L 323.777228 223.719835 
L 323.996781 412.853082 
L 324.216334 454.31578 
L 324.435887 349.487728 
L 324.655441 396.934296 
L 324.874994 482.356478 
L 325.3141 343.717647 
L 325.533653 437.210611 
L 325.753206 428.142688 
L 325.97276 326.733595 
L 326.192313 348.11041 
L 326.411866 496.348586 
L 326.850972 331.297354 
L 327.070525 464.451668 
L 327.290078 435.982658 
L 327.509632 501.035802 
L 327.729185 444.703648 
L 327.948738 441.051591 
L 328.168291 498.742148 
L 328.387844 440.619933 
L 328.607397 450.769692 
L 328.826951 361.042588 
L 329.046504 526.175404 
L 329.266057 392.802666 
L 329.48561 428.374282 
L 329.705163 441.020897 
L 329.924716 416.381788 
L 330.144269 482.766993 
L 330.363823 312.440107 
L 330.583376 483.91984 
L 330.802929 527.682349 
L 331.022482 479.468632 
L 331.242035 322.622334 
L 331.461588 435.490062 
L 331.681142 363.560819 
L 331.900695 481.734877 
L 332.120248 412.004914 
L 332.339801 417.700878 
L 332.559354 357.514097 
L 332.778907 437.245521 
L 332.99846 381.632302 
L 333.218014 391.135029 
L 333.437567 417.626402 
L 333.65712 415.395353 
L 333.876673 496.796194 
L 334.096226 395.613805 
L 334.315779 416.60067 
L 334.535333 342.476036 
L 334.974439 498.021997 
L 335.193992 486.503434 
L 335.852651 370.504404 
L 336.950417 494.653252 
L 337.16997 440.371967 
L 337.389524 444.600467 
L 337.609077 465.536756 
L 337.82863 467.11254 
L 338.048183 467.012215 
L 338.267736 490.185578 
L 338.487289 430.127812 
L 338.706842 449.927247 
L 338.926396 312.146578 
L 339.145949 319.227176 
L 339.365502 339.315747 
L 339.585055 393.463336 
L 339.804608 498.769014 
L 340.024161 478.27236 
L 340.243715 492.179178 
L 340.463268 481.531253 
L 340.682821 486.912382 
L 340.902374 413.822846 
L 341.121927 471.050109 
L 341.34148 345.543682 
L 341.561033 462.950742 
L 341.780587 450.669439 
L 342.00014 366.568037 
L 342.439246 509.708047 
L 342.658799 280.707688 
L 342.878352 491.264981 
L 343.097906 514.08811 
L 343.537012 251.581411 
L 343.756565 443.076642 
L 344.195671 258.398564 
L 344.415224 316.539277 
L 344.634778 424.409388 
L 344.854331 378.440826 
L 345.073884 484.728007 
L 345.293437 401.027635 
L 345.51299 449.744933 
L 345.732543 441.847146 
L 345.952096 492.799271 
L 346.17165 332.182655 
L 346.391203 399.325509 
L 346.610756 533.112976 
L 346.830309 494.740835 
L 347.049862 372.898969 
L 347.269415 356.028048 
L 347.488969 365.172044 
L 347.708522 467.666184 
L 348.147628 509.83568 
L 348.367181 222.042815 
L 348.586734 460.184378 
L 348.806287 395.480392 
L 349.245394 441.751589 
L 349.6845 317.236299 
L 349.904053 427.048495 
L 350.123606 302.505822 
L 350.562713 483.826248 
L 351.001819 396.427391 
L 351.221372 416.561925 
L 351.440925 485.868483 
L 351.660478 358.831785 
L 352.099585 571.041401 
L 352.319138 368.83461 
L 352.538691 348.044037 
L 352.977797 459.343109 
L 353.197351 434.698408 
L 353.416904 395.942963 
L 353.636457 512.47804 
L 353.85601 431.022703 
L 354.075563 398.448078 
L 354.295116 390.213433 
L 354.734223 453.957314 
L 354.953776 405.72438 
L 355.173329 432.36285 
L 355.392882 440.183367 
L 355.612435 352.830526 
L 355.831988 510.564243 
L 356.051542 331.965099 
L 356.271095 349.279166 
L 356.490648 466.90414 
L 356.929754 303.181992 
L 357.149307 303.705155 
L 357.36886 391.448559 
L 357.588414 397.577162 
L 357.807967 506.936598 
L 358.02752 498.921528 
L 358.247073 449.346893 
L 358.466626 452.02381 
L 358.686179 469.946402 
L 358.905733 346.430568 
L 359.564392 479.31116 
L 359.783945 478.194972 
L 360.003498 230.621741 
L 360.223051 464.209189 
L 360.442605 446.462258 
L 360.662158 506.429346 
L 360.881711 373.05548 
L 361.101264 366.636907 
L 361.320817 451.611196 
L 361.54037 449.268888 
L 361.759924 425.96885 
L 361.979477 451.119661 
L 362.19903 374.607299 
L 362.418583 501.340233 
L 362.638136 385.606949 
L 362.857689 352.191218 
L 363.077242 484.307239 
L 363.296796 455.496975 
L 363.516349 334.64943 
L 363.735902 451.963489 
L 363.955455 412.536105 
L 364.175008 437.301155 
L 364.394561 314.080558 
L 364.614115 464.638947 
L 364.833668 190.364132 
L 365.053221 420.424774 
L 365.272774 476.877014 
L 365.492327 463.054107 
L 365.71188 462.455791 
L 366.150987 340.004907 
L 366.37054 501.681008 
L 366.590093 342.957072 
L 366.809646 488.966758 
L 367.029199 518.38561 
L 367.248752 451.154118 
L 367.468306 453.253942 
L 367.687859 363.518191 
L 367.907412 453.498391 
L 368.126965 292.088178 
L 368.346518 434.476039 
L 368.566071 430.830847 
L 368.785624 396.306865 
L 369.005178 406.119377 
L 369.224731 453.452141 
L 369.444284 466.072887 
L 369.663837 263.444178 
L 370.102943 456.38135 
L 370.322497 299.449847 
L 370.54205 416.883503 
L 370.761603 219.394548 
L 370.981156 471.563874 
L 371.200709 376.614844 
L 371.420262 466.194717 
L 371.639815 427.611995 
L 371.859369 411.971481 
L 372.078922 430.792909 
L 372.298475 170.187376 
L 372.518028 451.564369 
L 372.737581 458.986075 
L 372.957134 383.725092 
L 373.176687 475.815174 
L 373.396241 428.552655 
L 373.615794 495.967024 
L 373.835347 487.111699 
L 374.0549 393.086454 
L 374.494006 566.453913 
L 374.71356 341.520321 
L 374.933113 458.686801 
L 375.152666 342.078219 
L 375.372219 496.037804 
L 375.591772 361.236303 
L 375.811325 372.125235 
L 376.030878 429.41479 
L 376.250432 397.135367 
L 376.689538 485.650329 
L 377.128644 358.31565 
L 377.348197 477.895569 
L 377.567751 354.24665 
L 377.787304 390.043806 
L 378.006857 297.322035 
L 378.22641 455.124963 
L 378.445963 470.367732 
L 378.665516 448.235318 
L 378.885069 468.122486 
L 379.104623 501.514083 
L 379.324176 474.339919 
L 379.763282 358.205959 
L 379.982835 484.157026 
L 380.202388 530.959837 
L 380.421942 525.967518 
L 380.641495 383.590611 
L 380.861048 342.300343 
L 381.080601 190.420316 
L 381.300154 265.567815 
L 381.519707 393.949292 
L 381.73926 406.796976 
L 382.178367 470.53111 
L 382.617473 413.619657 
L 382.837026 449.431031 
L 383.056579 517.855888 
L 383.276133 442.868887 
L 383.495686 452.277849 
L 383.715239 399.859274 
L 383.934792 454.564039 
L 384.154345 421.649263 
L 384.373898 475.017177 
L 384.813005 424.186868 
L 385.032558 521.89429 
L 385.252111 434.155026 
L 385.471664 452.615388 
L 385.691217 452.409057 
L 385.91077 453.826223 
L 386.130324 433.431399 
L 386.349877 454.161353 
L 386.56943 413.02268 
L 386.788983 438.828378 
L 387.228089 500.843153 
L 387.447642 397.058824 
L 387.667196 380.437054 
L 387.886749 468.529739 
L 388.106302 489.208532 
L 388.325855 485.358789 
L 388.545408 375.714136 
L 388.764961 394.688945 
L 388.984515 498.828054 
L 389.204068 492.714642 
L 389.423621 332.983263 
L 389.643174 522.303228 
L 389.862727 456.957113 
L 390.08228 493.962491 
L 390.301833 504.109344 
L 390.521387 422.137538 
L 390.74094 464.903728 
L 390.960493 258.121406 
L 391.180046 463.675466 
L 391.399599 398.815213 
L 391.619152 481.820253 
L 391.838706 478.370101 
L 392.058259 441.991589 
L 392.277812 455.019173 
L 392.497365 350.093671 
L 392.716918 533.794475 
L 393.156024 372.451132 
L 393.375578 541.331486 
L 393.814684 384.450552 
L 394.034237 455.168197 
L 394.25379 461.203822 
L 394.473343 463.248306 
L 394.692897 354.856085 
L 394.91245 426.456347 
L 395.132003 434.375835 
L 395.351556 451.007206 
L 395.790662 432.086348 
L 396.010215 478.772757 
L 396.229769 377.193707 
L 396.449322 439.189299 
L 396.668875 442.786606 
L 396.888428 472.467138 
L 397.107981 408.145732 
L 397.327534 306.196921 
L 397.766641 532.349172 
L 397.986194 345.904756 
L 398.205747 381.879273 
L 398.4253 464.924217 
L 398.644853 427.914043 
L 398.864406 419.14837 
L 399.08396 162.349776 
L 399.303513 500.07064 
L 399.523066 339.498035 
L 399.742619 449.892949 
L 399.962172 391.478746 
L 400.181725 471.556269 
L 400.401278 341.916156 
L 400.620832 334.563258 
L 400.840385 395.138216 
L 401.059938 496.009251 
L 401.499044 402.861677 
L 401.718597 517.467246 
L 401.938151 477.997073 
L 402.157704 402.699545 
L 402.377257 482.773297 
L 402.59681 472.540495 
L 402.816363 423.976388 
L 403.035916 454.159356 
L 403.255469 523.744309 
L 403.475023 429.107933 
L 403.694576 481.511174 
L 404.133682 379.061224 
L 404.353235 416.365891 
L 404.572788 365.302031 
L 404.792342 448.670555 
L 405.011895 433.741764 
L 405.231448 443.230927 
L 405.451001 458.053753 
L 405.670554 365.272129 
L 405.890107 453.260902 
L 406.10966 417.278546 
L 406.329214 358.300544 
L 406.76832 561.037485 
L 406.987873 437.708744 
L 407.207426 510.79995 
L 407.426979 468.327346 
L 407.646533 389.339817 
L 407.866086 515.85308 
L 408.085639 384.741223 
L 408.305192 432.085951 
L 408.524745 413.856991 
L 408.744298 472.25651 
L 408.963851 372.828254 
L 409.183405 427.421743 
L 409.402958 388.20306 
L 409.622511 466.3018 
L 409.842064 475.798104 
L 410.061617 458.542462 
L 410.28117 462.202327 
L 410.500724 558.915618 
L 410.93983 499.992715 
L 411.159383 505.451199 
L 411.378936 487.993528 
L 411.598489 479.709983 
L 411.818042 523.265805 
L 412.037596 416.762903 
L 412.257149 495.007251 
L 412.476702 430.956895 
L 412.696255 456.71681 
L 412.915808 311.958494 
L 413.135361 488.393997 
L 413.354915 435.340437 
L 413.574468 418.464487 
L 413.794021 198.80571 
L 414.013574 511.849902 
L 414.233127 515.514459 
L 414.45268 480.968682 
L 414.891787 334.867548 
L 415.11134 445.976025 
L 415.330893 391.01885 
L 415.550446 456.324447 
L 415.989552 389.471904 
L 416.209106 447.963106 
L 416.428659 286.470161 
L 416.648212 464.022992 
L 416.867765 395.107225 
L 417.306871 406.071611 
L 417.526424 445.575122 
L 417.745978 509.791845 
L 417.965531 482.948711 
L 418.185084 503.834798 
L 418.404637 359.020927 
L 418.62419 491.437786 
L 418.843743 420.441592 
L 419.063297 404.182604 
L 419.28285 504.051199 
L 419.502403 520.363526 
L 419.721956 411.042403 
L 419.941509 421.27178 
L 420.161062 337.245717 
L 420.380615 438.639003 
L 420.600169 293.014531 
L 420.819722 492.263744 
L 421.039275 397.083504 
L 421.258828 479.859978 
L 421.478381 408.837398 
L 421.697934 496.971633 
L 421.917488 511.459706 
L 422.137041 325.339585 
L 422.356594 478.506355 
L 422.576147 482.71476 
L 422.7957 347.581426 
L 423.015253 429.51637 
L 423.234806 460.02949 
L 423.45436 407.674509 
L 423.673913 502.923526 
L 424.113019 274.334694 
L 424.332572 352.211599 
L 424.552125 383.765434 
L 424.771678 431.709528 
L 424.991232 361.988275 
L 425.210785 507.086362 
L 425.430338 416.203503 
L 425.649891 389.068158 
L 425.869444 419.324678 
L 426.088997 487.786248 
L 426.308551 449.776069 
L 426.528104 442.200266 
L 426.747657 496.36515 
L 426.96721 508.271542 
L 427.186763 504.966885 
L 427.406316 513.694874 
L 427.625869 418.140112 
L 427.845423 412.784749 
L 428.064976 353.436171 
L 428.284529 451.525736 
L 428.504082 266.659367 
L 428.723635 341.054757 
L 428.943188 284.469806 
L 429.162742 496.174809 
L 429.382295 459.936609 
L 429.601848 453.571034 
L 429.821401 395.968921 
L 430.040954 509.792504 
L 430.260507 383.791622 
L 430.48006 435.534011 
L 430.699614 376.560922 
L 430.919167 417.712131 
L 431.13872 399.469045 
L 431.358273 305.164728 
L 431.577826 359.097712 
L 431.797379 371.505125 
L 432.016933 374.601927 
L 432.236486 472.722488 
L 432.456039 414.709237 
L 432.675592 486.544594 
L 432.895145 456.158271 
L 433.114698 499.440975 
L 433.334251 458.668297 
L 433.553805 471.644156 
L 433.773358 387.048247 
L 433.992911 350.591493 
L 434.212464 452.022521 
L 434.432017 473.151858 
L 434.65157 381.48498 
L 434.871124 495.151777 
L 435.090677 402.609065 
L 435.31023 519.032254 
L 435.529783 497.871802 
L 435.749336 493.9398 
L 435.968889 414.689136 
L 436.188442 486.653765 
L 436.407996 398.947329 
L 436.627549 520.784423 
L 436.847102 328.298138 
L 437.066655 400.641112 
L 437.286208 509.863299 
L 437.725315 332.557526 
L 437.944868 446.360283 
L 438.164421 348.263958 
L 438.383974 320.848414 
L 438.603527 513.016597 
L 439.042633 432.827063 
L 439.262187 346.394881 
L 439.48174 342.628271 
L 439.920846 535.618724 
L 440.140399 492.786879 
L 440.359952 474.895245 
L 440.579506 379.573913 
L 440.799059 403.290806 
L 441.018612 474.783653 
L 441.238165 355.627448 
L 441.457718 306.71991 
L 441.677271 406.200069 
L 441.896824 407.940993 
L 442.335931 434.939619 
L 442.555484 436.022213 
L 442.775037 470.846238 
L 442.99459 371.258943 
L 443.214143 483.279345 
L 443.433697 498.338416 
L 443.65325 388.84352 
L 443.872803 367.3023 
L 444.092356 316.344744 
L 444.311909 332.654305 
L 444.531462 274.030127 
L 444.751015 288.284833 
L 444.970569 379.429446 
L 445.190122 350.074055 
L 445.409675 490.948604 
L 445.629228 478.315651 
L 445.848781 317.375455 
L 446.068334 467.662577 
L 446.287888 501.567829 
L 446.507441 488.092488 
L 446.726994 328.889555 
L 446.946547 473.595415 
L 447.1661 479.749927 
L 447.385653 343.636505 
L 447.605206 367.157307 
L 447.82476 459.012996 
L 448.044313 196.334276 
L 448.263866 405.443598 
L 448.702972 421.471702 
L 448.922525 353.518589 
L 449.142079 375.49037 
L 449.581185 506.969507 
L 449.800738 417.426229 
L 450.020291 409.778509 
L 450.239844 513.866499 
L 450.459397 467.368644 
L 450.678951 447.664747 
L 450.898504 348.737459 
L 451.118057 408.107612 
L 451.33761 417.37567 
L 451.557163 519.700517 
L 451.776716 502.138258 
L 451.996269 424.216859 
L 452.215823 527.495374 
L 452.435376 552.095409 
L 452.654929 495.387965 
L 452.874482 484.97402 
L 453.094035 445.512267 
L 453.313588 460.319971 
L 453.533142 418.421591 
L 453.752695 213.250313 
L 453.972248 455.443745 
L 454.191801 453.329152 
L 454.411354 379.200296 
L 454.630907 523.531623 
L 454.85046 385.041172 
L 455.289567 480.202112 
L 455.728673 428.979332 
L 455.948226 493.549519 
L 456.167779 466.472912 
L 456.387333 474.587279 
L 456.606886 416.95739 
L 457.045992 380.175435 
L 457.265545 394.961939 
L 457.704651 507.501854 
L 457.924205 275.490148 
L 458.143758 500.661458 
L 458.363311 494.620527 
L 458.582864 335.77156 
L 458.802417 422.530595 
L 459.02197 345.350694 
L 459.241524 479.04212 
L 459.461077 404.518574 
L 459.68063 528.919039 
L 459.900183 456.213393 
L 460.119736 336.724762 
L 460.339289 432.665613 
L 460.558842 382.063621 
L 460.778396 474.098318 
L 461.437055 389.593861 
L 461.656608 363.066268 
L 461.876161 425.655491 
L 462.095715 438.1363 
L 462.315268 405.782905 
L 462.534821 508.030543 
L 462.754374 533.526479 
L 463.19348 334.310891 
L 463.413033 468.926544 
L 463.85214 428.611938 
L 464.071693 333.654277 
L 464.291246 493.428853 
L 464.510799 462.871848 
L 464.730352 480.575759 
L 464.949906 311.508392 
L 465.169459 398.188488 
L 465.389012 370.304685 
L 465.608565 456.175152 
L 465.828118 404.639827 
L 466.267224 462.021642 
L 466.486778 400.89062 
L 466.706331 490.446838 
L 466.925884 485.865315 
L 467.145437 370.005612 
L 467.36499 489.635011 
L 467.584543 485.152177 
L 467.804097 386.576888 
L 468.02365 522.660933 
L 468.243203 530.912793 
L 468.462756 361.288601 
L 468.682309 408.224213 
L 468.901862 506.529364 
L 469.121415 411.993705 
L 469.780075 531.948881 
L 469.999628 447.570791 
L 470.219181 512.586322 
L 470.438734 314.791071 
L 470.877841 467.219917 
L 471.097394 401.528179 
L 471.316947 380.935268 
L 471.5365 523.498119 
L 471.756053 502.818302 
L 471.975606 423.334308 
L 472.19516 462.313411 
L 472.414713 442.311299 
L 472.634266 510.940109 
L 472.853819 412.356273 
L 473.073372 411.651749 
L 473.292925 426.797657 
L 473.512479 400.19728 
L 473.732032 443.117273 
L 473.951585 393.180166 
L 474.171138 416.277349 
L 474.390691 386.57655 
L 474.610244 425.966069 
L 474.829797 256.551596 
L 475.049351 329.205845 
L 475.268904 471.22525 
L 475.70801 416.486181 
L 476.147116 222.436069 
L 476.366669 532.396034 
L 476.586223 429.588789 
L 476.805776 452.151754 
L 477.025329 458.529428 
L 477.244882 383.998829 
L 477.464435 437.281439 
L 477.683988 381.256396 
L 477.903542 484.501762 
L 478.342648 335.086472 
L 478.562201 407.398588 
L 478.781754 442.17662 
L 479.001307 506.907953 
L 479.22086 524.641821 
L 479.440414 311.550913 
L 479.659967 513.914805 
L 479.87952 364.921693 
L 480.099073 404.55233 
L 480.318626 505.652779 
L 480.538179 340.669069 
L 480.977286 450.401381 
L 481.196839 454.745425 
L 481.416392 410.711795 
L 481.635945 460.013339 
L 482.075051 373.123611 
L 482.514158 527.310675 
L 482.733711 407.576836 
L 482.953264 444.725815 
L 483.172817 288.447295 
L 483.39237 430.547067 
L 483.611924 485.845694 
L 483.831477 370.46065 
L 484.270583 520.015037 
L 484.490136 521.095818 
L 484.929242 407.757363 
L 485.148796 490.848514 
L 485.368349 442.086625 
L 485.807455 477.41236 
L 486.027008 375.448353 
L 486.466115 530.269811 
L 486.685668 375.972259 
L 486.905221 415.921879 
L 487.124774 379.236337 
L 487.344327 472.422013 
L 487.56388 463.824238 
L 487.783433 385.016981 
L 488.002987 417.62639 
L 488.22254 407.122136 
L 488.442093 469.058959 
L 488.661646 259.821368 
L 488.881199 457.448131 
L 489.100752 492.891811 
L 489.320306 480.627365 
L 489.539859 424.539679 
L 489.759412 425.208118 
L 489.978965 357.725558 
L 490.637624 453.80611 
L 490.857178 431.059272 
L 491.076731 435.792275 
L 491.296284 398.100531 
L 491.515837 503.189496 
L 491.73539 430.056823 
L 491.954943 488.838421 
L 492.174497 444.251482 
L 492.39405 447.013867 
L 492.613603 356.6588 
L 492.833156 510.734341 
L 493.052709 488.430396 
L 493.272262 527.215338 
L 493.491815 478.945082 
L 493.711369 470.853278 
L 493.930922 418.744069 
L 494.150475 459.244771 
L 494.370028 349.305629 
L 494.589581 443.549302 
L 494.809134 403.148941 
L 495.028688 416.752095 
L 495.248241 421.48096 
L 495.467794 434.326505 
L 495.9069 550.098926 
L 496.346006 441.315449 
L 496.56556 429.653869 
L 497.004666 552.32309 
L 497.224219 279.35708 
L 497.663325 539.924163 
L 497.882879 518.94019 
L 498.102432 418.89201 
L 498.321985 385.75964 
L 498.541538 457.463511 
L 498.761091 419.096507 
L 498.980644 516.734022 
L 499.200197 426.833222 
L 499.419751 421.950012 
L 499.639304 537.281836 
L 499.858857 383.966074 
L 500.297963 520.354112 
L 500.517516 377.310004 
L 500.73707 391.193134 
L 500.956623 493.776744 
L 501.176176 393.505682 
L 501.395729 467.519712 
L 501.615282 491.549738 
L 501.834835 415.053552 
L 502.054388 511.255517 
L 502.273942 413.466626 
L 502.493495 462.500645 
L 502.713048 469.053202 
L 502.932601 439.478419 
L 503.152154 360.34974 
L 503.59126 470.098432 
L 503.810814 362.659048 
L 504.030367 354.472714 
L 504.24992 371.607147 
L 504.469473 258.301082 
L 504.689026 455.435254 
L 504.908579 441.47553 
L 505.128133 448.572101 
L 505.347686 434.836926 
L 505.567239 477.621484 
L 505.786792 486.599378 
L 506.225898 413.681457 
L 506.445451 520.933281 
L 506.665005 418.870345 
L 506.884558 438.17273 
L 507.104111 386.027432 
L 507.323664 365.174797 
L 507.543217 359.737388 
L 507.76277 362.357428 
L 507.982324 506.210961 
L 508.42143 516.074576 
L 508.640983 418.492757 
L 508.860536 446.94405 
L 509.299642 349.977238 
L 509.519196 381.194025 
L 509.738749 461.288054 
L 509.958302 336.365681 
L 510.397408 507.509328 
L 510.616961 409.847887 
L 510.836515 436.288189 
L 511.056068 440.229264 
L 511.495174 477.045708 
L 511.714727 293.327565 
L 511.93428 467.434389 
L 512.153833 494.457765 
L 512.373387 371.782088 
L 512.59294 419.058074 
L 512.812493 501.89453 
L 513.032046 423.192452 
L 513.251599 493.188434 
L 513.471152 424.13686 
L 513.690706 498.461187 
L 513.910259 401.769641 
L 514.129812 445.590978 
L 514.349365 445.714304 
L 514.568918 422.729632 
L 515.008024 339.267948 
L 515.227578 476.676971 
L 515.447131 475.121505 
L 515.666684 475.530194 
L 515.886237 423.156222 
L 516.10579 461.189531 
L 516.325343 518.693637 
L 516.76445 349.818164 
L 516.984003 395.202272 
L 517.203556 483.201887 
L 517.423109 425.868595 
L 517.642662 406.160867 
L 518.081769 324.389391 
L 518.301322 514.157849 
L 518.740428 395.032244 
L 519.179534 445.477641 
L 519.399088 413.476117 
L 519.618641 465.012814 
L 519.838194 393.647534 
L 520.057747 504.353777 
L 520.2773 435.80008 
L 520.496853 318.726437 
L 520.716406 308.813993 
L 520.93596 405.449686 
L 521.155513 421.269896 
L 521.375066 528.845315 
L 522.033725 422.336561 
L 522.253279 439.572204 
L 522.472832 505.576034 
L 522.692385 440.448978 
L 522.911938 431.085314 
L 523.131491 362.099822 
L 523.351044 429.819902 
L 523.570597 437.622795 
L 523.790151 427.589302 
L 524.009704 528.377272 
L 524.44881 403.189096 
L 524.668363 335.476542 
L 524.887916 466.942269 
L 525.10747 455.409254 
L 525.327023 429.430307 
L 525.546576 304.328155 
L 525.985682 446.274738 
L 526.205235 446.179815 
L 526.424788 230.140041 
L 526.644342 533.211996 
L 526.863895 455.036015 
L 527.083448 441.946287 
L 527.303001 408.269935 
L 527.522554 439.330332 
L 527.742107 443.523015 
L 527.96166 498.428679 
L 528.181214 420.173316 
L 528.400767 479.079571 
L 528.62032 376.877864 
L 528.839873 471.510483 
L 529.059426 367.67398 
L 529.498533 443.318155 
L 529.718086 484.201291 
L 529.937639 480.212604 
L 530.157192 448.157818 
L 530.376745 514.757808 
L 530.596298 431.23748 
L 530.815851 497.622951 
L 531.035405 480.356395 
L 531.254958 479.999243 
L 531.694064 347.95753 
L 531.913617 445.128651 
L 532.13317 449.965445 
L 532.352724 511.116726 
L 532.572277 332.544844 
L 532.79183 458.085281 
L 533.011383 510.682614 
L 533.230936 536.428771 
L 533.450489 456.023224 
L 533.670042 448.982483 
L 533.889596 348.554385 
L 534.109149 391.850792 
L 534.328702 398.666394 
L 534.548255 506.47335 
L 534.987361 352.386692 
L 535.206915 548.083216 
L 535.426468 375.398516 
L 535.646021 313.859566 
L 535.865574 405.942738 
L 536.085127 440.491227 
L 536.30468 363.201332 
L 536.524233 369.894459 
L 536.743787 513.845825 
L 536.96334 244.397702 
L 537.402446 409.707678 
L 537.621999 424.45518 
L 537.841552 455.907159 
L 538.500212 315.306329 
L 538.719765 454.340777 
L 538.939318 431.971466 
L 539.158871 375.410686 
L 539.378424 348.790741 
L 539.597978 450.265315 
L 539.817531 227.68203 
L 540.037084 459.302739 
L 540.256637 324.183174 
L 540.47619 351.823374 
L 540.695743 467.992195 
L 540.915297 452.355257 
L 541.13485 509.711788 
L 541.354403 453.202403 
L 541.573956 440.989844 
L 541.793509 495.463698 
L 542.013062 464.886014 
L 542.232615 460.279483 
L 542.452169 388.943173 
L 542.671722 434.66609 
L 542.891275 409.964408 
L 543.110828 515.422714 
L 543.330381 363.103681 
L 543.549934 486.69031 
L 543.769488 470.567816 
L 543.989041 485.627733 
L 544.208594 443.947035 
L 544.428147 427.355949 
L 544.6477 341.773887 
L 544.867253 449.641285 
L 545.086806 497.687069 
L 545.525913 307.66817 
L 545.745466 371.155073 
L 545.745466 371.155073 
" style="fill:none;stroke:#96c69a;stroke-linecap:round;stroke-width:3;"/>
   </g>
   <g id="line2d_2"/>
   <g id="patch_3">
    <path d="M 84.914375 603.86 
L 84.914375 109.484571 
" style="fill:none;stroke:#262626;stroke-linecap:square;stroke-linejoin:miter;stroke-width:2.5;"/>
   </g>
   <g id="patch_4">
    <path d="M 84.914375 603.86 
L 567.689804 603.86 
" style="fill:none;stroke:#262626;stroke-linecap:square;stroke-linejoin:miter;stroke-width:2.5;"/>
   </g>
   <g id="legend_1">
    <g id="patch_5">
     <path d="M 514.774179 598.86 
L 560.689804 598.86 
Q 562.689804 598.86 562.689804 596.86 
L 562.689804 554.954375 
Q 562.689804 552.954375 560.689804 552.954375 
L 514.774179 552.954375 
Q 512.774179 552.954375 512.774179 554.954375 
L 512.774179 596.86 
Q 512.774179 598.86 514.774179 598.86 
z
" style="fill:#ffffff;opacity:0.8;stroke:#cccccc;stroke-linejoin:miter;stroke-width:2;"/>
    </g>
    <g id="text_14">
     <!-- $n_\tau$ -->
     <g style="fill:#262626;" transform="translate(524.651991 575.190625)scale(0.24 -0.24)">
      <defs>
       <path d="M 3566 2113 
L 3156 0 
L 2578 0 
L 2988 2091 
Q 3016 2238 3031 2350 
Q 3047 2463 3047 2528 
Q 3047 2791 2881 2937 
Q 2716 3084 2419 3084 
Q 1956 3084 1622 2776 
Q 1288 2469 1184 1941 
L 800 0 
L 225 0 
L 903 3500 
L 1478 3500 
L 1363 2950 
Q 1603 3253 1940 3418 
Q 2278 3584 2650 3584 
Q 3113 3584 3367 3334 
Q 3622 3084 3622 2631 
Q 3622 2519 3608 2391 
Q 3594 2263 3566 2113 
z
" id="DejaVuSans-Oblique-6e" transform="scale(0.015625)"/>
       <path d="M 2103 638 
Q 2188 488 2525 488 
L 2800 488 
L 2706 0 
L 2363 0 
Q 1800 0 1600 300 
Q 1403 606 1534 1269 
L 1856 2925 
L 541 2925 
L 653 3500 
L 3881 3500 
L 3769 2925 
L 2444 2925 
L 2113 1234 
Q 2025 781 2103 638 
z
" id="DejaVuSans-Oblique-3c4" transform="scale(0.015625)"/>
      </defs>
      <use xlink:href="#DejaVuSans-Oblique-6e"/>
      <use transform="translate(63.378906 -16.40625)scale(0.7)" xlink:href="#DejaVuSans-Oblique-3c4"/>
     </g>
    </g>
    <g id="line2d_3">
     <path d="M 516.774179 589.280313 
L 536.774179 589.280313 
" style="fill:none;stroke:#96c69a;stroke-linecap:round;stroke-width:3;"/>
    </g>
    <g id="line2d_4"/>
    <g id="text_15">
     <!-- 16 -->
     <g style="fill:#262626;" transform="translate(544.774179 592.780313)scale(0.1 -0.1)">
      <defs>
       <path d="M 750 831 
L 1813 831 
L 1813 3847 
L 722 3622 
L 722 4441 
L 1806 4666 
L 2950 4666 
L 2950 831 
L 4013 831 
L 4013 0 
L 750 0 
L 750 831 
z
" id="DejaVuSans-Bold-31" transform="scale(0.015625)"/>
       <path d="M 2316 2303 
Q 2000 2303 1842 2098 
Q 1684 1894 1684 1484 
Q 1684 1075 1842 870 
Q 2000 666 2316 666 
Q 2634 666 2792 870 
Q 2950 1075 2950 1484 
Q 2950 1894 2792 2098 
Q 2634 2303 2316 2303 
z
M 3803 4544 
L 3803 3681 
Q 3506 3822 3243 3889 
Q 2981 3956 2731 3956 
Q 2194 3956 1894 3657 
Q 1594 3359 1544 2772 
Q 1750 2925 1990 3001 
Q 2231 3078 2516 3078 
Q 3231 3078 3670 2659 
Q 4109 2241 4109 1563 
Q 4109 813 3618 361 
Q 3128 -91 2303 -91 
Q 1394 -91 895 523 
Q 397 1138 397 2266 
Q 397 3422 980 4083 
Q 1563 4744 2578 4744 
Q 2900 4744 3203 4694 
Q 3506 4644 3803 4544 
z
" id="DejaVuSans-Bold-36" transform="scale(0.015625)"/>
      </defs>
      <use xlink:href="#DejaVuSans-Bold-31"/>
      <use x="69.580078" xlink:href="#DejaVuSans-Bold-36"/>
     </g>
    </g>
   </g>
  </g>
  <g id="axes_2">
   <g id="patch_6">
    <path d="M 84.914375 92.437143 
L 567.689804 92.437143 
L 567.689804 7.2 
L 84.914375 7.2 
z
" style="fill:none;"/>
   </g>
   <g id="matplotlib.axis_3">
    <g id="xtick_7"/>
    <g id="xtick_8"/>
    <g id="xtick_9"/>
    <g id="xtick_10"/>
    <g id="xtick_11"/>
    <g id="xtick_12"/>
   </g>
   <g id="matplotlib.axis_4">
    <g id="ytick_6">
     <g id="text_16">
      <!-- 0 -->
      <g style="fill:#262626;" transform="translate(55.416875 100.795424)scale(0.22 -0.22)">
       <use xlink:href="#DejaVuSans-30"/>
      </g>
     </g>
    </g>
    <g id="ytick_7">
     <g id="text_17">
      <!-- 100 -->
      <g style="fill:#262626;" transform="translate(27.421875 48.082287)scale(0.22 -0.22)">
       <use xlink:href="#DejaVuSans-31"/>
       <use x="63.623047" xlink:href="#DejaVuSans-30"/>
       <use x="127.246094" xlink:href="#DejaVuSans-30"/>
      </g>
     </g>
    </g>
   </g>
   <g id="patch_7">
    <path clip-path="url(#pbb3a162397)" d="M 106.858713 92.437143 
L 140.619232 92.437143 
L 140.619232 11.258912 
L 106.858713 11.258912 
z
" style="fill:#96c69a;fill-opacity:0.5;stroke:#ffffff;stroke-linejoin:miter;stroke-width:2;"/>
   </g>
   <g id="patch_8">
    <path clip-path="url(#pbb3a162397)" d="M 140.619232 92.437143 
L 174.379752 92.437143 
L 174.379752 11.258912 
L 140.619232 11.258912 
z
" style="fill:#96c69a;fill-opacity:0.5;stroke:#ffffff;stroke-linejoin:miter;stroke-width:2;"/>
   </g>
   <g id="patch_9">
    <path clip-path="url(#pbb3a162397)" d="M 174.379752 92.437143 
L 208.140271 92.437143 
L 208.140271 11.258912 
L 174.379752 11.258912 
z
" style="fill:#96c69a;fill-opacity:0.5;stroke:#ffffff;stroke-linejoin:miter;stroke-width:2;"/>
   </g>
   <g id="patch_10">
    <path clip-path="url(#pbb3a162397)" d="M 208.140271 92.437143 
L 241.900791 92.437143 
L 241.900791 11.258912 
L 208.140271 11.258912 
z
" style="fill:#96c69a;fill-opacity:0.5;stroke:#ffffff;stroke-linejoin:miter;stroke-width:2;"/>
   </g>
   <g id="patch_11">
    <path clip-path="url(#pbb3a162397)" d="M 241.900791 92.437143 
L 275.66131 92.437143 
L 275.66131 11.786043 
L 241.900791 11.786043 
z
" style="fill:#96c69a;fill-opacity:0.5;stroke:#ffffff;stroke-linejoin:miter;stroke-width:2;"/>
   </g>
   <g id="patch_12">
    <path clip-path="url(#pbb3a162397)" d="M 275.66131 92.437143 
L 309.42183 92.437143 
L 309.42183 11.258912 
L 275.66131 11.258912 
z
" style="fill:#96c69a;fill-opacity:0.5;stroke:#ffffff;stroke-linejoin:miter;stroke-width:2;"/>
   </g>
   <g id="patch_13">
    <path clip-path="url(#pbb3a162397)" d="M 309.42183 92.437143 
L 343.182349 92.437143 
L 343.182349 11.258912 
L 309.42183 11.258912 
z
" style="fill:#96c69a;fill-opacity:0.5;stroke:#ffffff;stroke-linejoin:miter;stroke-width:2;"/>
   </g>
   <g id="patch_14">
    <path clip-path="url(#pbb3a162397)" d="M 343.182349 92.437143 
L 376.942869 92.437143 
L 376.942869 11.258912 
L 343.182349 11.258912 
z
" style="fill:#96c69a;fill-opacity:0.5;stroke:#ffffff;stroke-linejoin:miter;stroke-width:2;"/>
   </g>
   <g id="patch_15">
    <path clip-path="url(#pbb3a162397)" d="M 376.942869 92.437143 
L 410.703388 92.437143 
L 410.703388 11.786043 
L 376.942869 11.786043 
z
" style="fill:#96c69a;fill-opacity:0.5;stroke:#ffffff;stroke-linejoin:miter;stroke-width:2;"/>
   </g>
   <g id="patch_16">
    <path clip-path="url(#pbb3a162397)" d="M 410.703388 92.437143 
L 444.463907 92.437143 
L 444.463907 11.258912 
L 410.703388 11.258912 
z
" style="fill:#96c69a;fill-opacity:0.5;stroke:#ffffff;stroke-linejoin:miter;stroke-width:2;"/>
   </g>
   <g id="patch_17">
    <path clip-path="url(#pbb3a162397)" d="M 444.463907 92.437143 
L 478.224427 92.437143 
L 478.224427 11.258912 
L 444.463907 11.258912 
z
" style="fill:#96c69a;fill-opacity:0.5;stroke:#ffffff;stroke-linejoin:miter;stroke-width:2;"/>
   </g>
   <g id="patch_18">
    <path clip-path="url(#pbb3a162397)" d="M 478.224427 92.437143 
L 511.984946 92.437143 
L 511.984946 11.258912 
L 478.224427 11.258912 
z
" style="fill:#96c69a;fill-opacity:0.5;stroke:#ffffff;stroke-linejoin:miter;stroke-width:2;"/>
   </g>
   <g id="patch_19">
    <path clip-path="url(#pbb3a162397)" d="M 511.984946 92.437143 
L 545.745466 92.437143 
L 545.745466 11.258912 
L 511.984946 11.258912 
z
" style="fill:#96c69a;fill-opacity:0.5;stroke:#ffffff;stroke-linejoin:miter;stroke-width:2;"/>
   </g>
   <g id="patch_20">
    <path d="M 84.914375 92.437143 
L 84.914375 7.2 
" style="fill:none;stroke:#262626;stroke-linecap:square;stroke-linejoin:miter;stroke-width:2.5;"/>
   </g>
   <g id="patch_21">
    <path d="M 84.914375 92.437143 
L 567.689804 92.437143 
" style="fill:none;stroke:#262626;stroke-linecap:square;stroke-linejoin:miter;stroke-width:2.5;"/>
   </g>
  </g>
  <g id="axes_3">
   <g id="patch_22">
    <path d="M 584.337232 603.86 
L 667.574375 603.86 
L 667.574375 109.484571 
L 584.337232 109.484571 
z
" style="fill:none;"/>
   </g>
   <g id="matplotlib.axis_5">
    <g id="xtick_13">
     <g id="text_18">
      <!-- 0 -->
      <g style="fill:#262626;" transform="translate(577.338482 636.076563)scale(0.22 -0.22)">
       <use xlink:href="#DejaVuSans-30"/>
      </g>
     </g>
    </g>
    <g id="xtick_14">
     <g id="text_19">
      <!-- 100 -->
      <g style="fill:#262626;" transform="translate(608.900447 636.076563)scale(0.22 -0.22)">
       <use xlink:href="#DejaVuSans-31"/>
       <use x="63.623047" xlink:href="#DejaVuSans-30"/>
       <use x="127.246094" xlink:href="#DejaVuSans-30"/>
      </g>
     </g>
    </g>
   </g>
   <g id="matplotlib.axis_6">
    <g id="ytick_8"/>
    <g id="ytick_9"/>
    <g id="ytick_10"/>
    <g id="ytick_11"/>
    <g id="ytick_12"/>
   </g>
   <g id="patch_23">
    <path clip-path="url(#p1ba5296623)" d="M 584.337232 581.38839 
L 585.248421 581.38839 
L 585.248421 568.169795 
L 584.337232 568.169795 
z
" style="fill:#96c69a;fill-opacity:0.5;stroke:#ffffff;stroke-linejoin:miter;stroke-width:1.321859;"/>
   </g>
   <g id="patch_24">
    <path clip-path="url(#p1ba5296623)" d="M 584.337232 568.169795 
L 586.615205 568.169795 
L 586.615205 554.951201 
L 584.337232 554.951201 
z
" style="fill:#96c69a;fill-opacity:0.5;stroke:#ffffff;stroke-linejoin:miter;stroke-width:1.321859;"/>
   </g>
   <g id="patch_25">
    <path clip-path="url(#p1ba5296623)" d="M 584.337232 554.951201 
L 592.537936 554.951201 
L 592.537936 541.732607 
L 584.337232 541.732607 
z
" style="fill:#96c69a;fill-opacity:0.5;stroke:#ffffff;stroke-linejoin:miter;stroke-width:1.321859;"/>
   </g>
   <g id="patch_26">
    <path clip-path="url(#p1ba5296623)" d="M 584.337232 541.732607 
L 601.649829 541.732607 
L 601.649829 528.514012 
L 584.337232 528.514012 
z
" style="fill:#96c69a;fill-opacity:0.5;stroke:#ffffff;stroke-linejoin:miter;stroke-width:1.321859;"/>
   </g>
   <g id="patch_27">
    <path clip-path="url(#p1ba5296623)" d="M 584.337232 528.514012 
L 611.672911 528.514012 
L 611.672911 515.295418 
L 584.337232 515.295418 
z
" style="fill:#96c69a;fill-opacity:0.5;stroke:#ffffff;stroke-linejoin:miter;stroke-width:1.321859;"/>
   </g>
   <g id="patch_28">
    <path clip-path="url(#p1ba5296623)" d="M 584.337232 515.295418 
L 632.630265 515.295418 
L 632.630265 502.076824 
L 584.337232 502.076824 
z
" style="fill:#96c69a;fill-opacity:0.5;stroke:#ffffff;stroke-linejoin:miter;stroke-width:1.321859;"/>
   </g>
   <g id="patch_29">
    <path clip-path="url(#p1ba5296623)" d="M 584.337232 502.076824 
L 636.730617 502.076824 
L 636.730617 488.858229 
L 584.337232 488.858229 
z
" style="fill:#96c69a;fill-opacity:0.5;stroke:#ffffff;stroke-linejoin:miter;stroke-width:1.321859;"/>
   </g>
   <g id="patch_30">
    <path clip-path="url(#p1ba5296623)" d="M 584.337232 488.858229 
L 651.309646 488.858229 
L 651.309646 475.639635 
L 584.337232 475.639635 
z
" style="fill:#96c69a;fill-opacity:0.5;stroke:#ffffff;stroke-linejoin:miter;stroke-width:1.321859;"/>
   </g>
   <g id="patch_31">
    <path clip-path="url(#p1ba5296623)" d="M 584.337232 475.639635 
L 654.043214 475.639635 
L 654.043214 462.42104 
L 584.337232 462.42104 
z
" style="fill:#96c69a;fill-opacity:0.5;stroke:#ffffff;stroke-linejoin:miter;stroke-width:1.321859;"/>
   </g>
   <g id="patch_32">
    <path clip-path="url(#p1ba5296623)" d="M 584.337232 462.42104 
L 663.610702 462.42104 
L 663.610702 449.202446 
L 584.337232 449.202446 
z
" style="fill:#96c69a;fill-opacity:0.5;stroke:#ffffff;stroke-linejoin:miter;stroke-width:1.321859;"/>
   </g>
   <g id="patch_33">
    <path clip-path="url(#p1ba5296623)" d="M 584.337232 449.202446 
L 659.51035 449.202446 
L 659.51035 435.983852 
L 584.337232 435.983852 
z
" style="fill:#96c69a;fill-opacity:0.5;stroke:#ffffff;stroke-linejoin:miter;stroke-width:1.321859;"/>
   </g>
   <g id="patch_34">
    <path clip-path="url(#p1ba5296623)" d="M 584.337232 435.983852 
L 654.498808 435.983852 
L 654.498808 422.765257 
L 584.337232 422.765257 
z
" style="fill:#96c69a;fill-opacity:0.5;stroke:#ffffff;stroke-linejoin:miter;stroke-width:1.321859;"/>
   </g>
   <g id="patch_35">
    <path clip-path="url(#p1ba5296623)" d="M 584.337232 422.765257 
L 655.865592 422.765257 
L 655.865592 409.546663 
L 584.337232 409.546663 
z
" style="fill:#96c69a;fill-opacity:0.5;stroke:#ffffff;stroke-linejoin:miter;stroke-width:1.321859;"/>
   </g>
   <g id="patch_36">
    <path clip-path="url(#p1ba5296623)" d="M 584.337232 409.546663 
L 646.298105 409.546663 
L 646.298105 396.328069 
L 584.337232 396.328069 
z
" style="fill:#96c69a;fill-opacity:0.5;stroke:#ffffff;stroke-linejoin:miter;stroke-width:1.321859;"/>
   </g>
   <g id="patch_37">
    <path clip-path="url(#p1ba5296623)" d="M 584.337232 396.328069 
L 636.730617 396.328069 
L 636.730617 383.109474 
L 584.337232 383.109474 
z
" style="fill:#96c69a;fill-opacity:0.5;stroke:#ffffff;stroke-linejoin:miter;stroke-width:1.321859;"/>
   </g>
   <g id="patch_38">
    <path clip-path="url(#p1ba5296623)" d="M 584.337232 383.109474 
L 629.896697 383.109474 
L 629.896697 369.89088 
L 584.337232 369.89088 
z
" style="fill:#96c69a;fill-opacity:0.5;stroke:#ffffff;stroke-linejoin:miter;stroke-width:1.321859;"/>
   </g>
   <g id="patch_39">
    <path clip-path="url(#p1ba5296623)" d="M 584.337232 369.89088 
L 617.140047 369.89088 
L 617.140047 356.672286 
L 584.337232 356.672286 
z
" style="fill:#96c69a;fill-opacity:0.5;stroke:#ffffff;stroke-linejoin:miter;stroke-width:1.321859;"/>
   </g>
   <g id="patch_40">
    <path clip-path="url(#p1ba5296623)" d="M 584.337232 356.672286 
L 617.595642 356.672286 
L 617.595642 343.453691 
L 584.337232 343.453691 
z
" style="fill:#96c69a;fill-opacity:0.5;stroke:#ffffff;stroke-linejoin:miter;stroke-width:1.321859;"/>
   </g>
   <g id="patch_41">
    <path clip-path="url(#p1ba5296623)" d="M 584.337232 343.453691 
L 609.850533 343.453691 
L 609.850533 330.235097 
L 584.337232 330.235097 
z
" style="fill:#96c69a;fill-opacity:0.5;stroke:#ffffff;stroke-linejoin:miter;stroke-width:1.321859;"/>
   </g>
   <g id="patch_42">
    <path clip-path="url(#p1ba5296623)" d="M 584.337232 330.235097 
L 598.916261 330.235097 
L 598.916261 317.016503 
L 584.337232 317.016503 
z
" style="fill:#96c69a;fill-opacity:0.5;stroke:#ffffff;stroke-linejoin:miter;stroke-width:1.321859;"/>
   </g>
   <g id="patch_43">
    <path clip-path="url(#p1ba5296623)" d="M 584.337232 317.016503 
L 598.460666 317.016503 
L 598.460666 303.797908 
L 584.337232 303.797908 
z
" style="fill:#96c69a;fill-opacity:0.5;stroke:#ffffff;stroke-linejoin:miter;stroke-width:1.321859;"/>
   </g>
   <g id="patch_44">
    <path clip-path="url(#p1ba5296623)" d="M 584.337232 303.797908 
L 595.271504 303.797908 
L 595.271504 290.579314 
L 584.337232 290.579314 
z
" style="fill:#96c69a;fill-opacity:0.5;stroke:#ffffff;stroke-linejoin:miter;stroke-width:1.321859;"/>
   </g>
   <g id="patch_45">
    <path clip-path="url(#p1ba5296623)" d="M 584.337232 290.579314 
L 591.626747 290.579314 
L 591.626747 277.36072 
L 584.337232 277.36072 
z
" style="fill:#96c69a;fill-opacity:0.5;stroke:#ffffff;stroke-linejoin:miter;stroke-width:1.321859;"/>
   </g>
   <g id="patch_46">
    <path clip-path="url(#p1ba5296623)" d="M 584.337232 277.36072 
L 590.259963 277.36072 
L 590.259963 264.142125 
L 584.337232 264.142125 
z
" style="fill:#96c69a;fill-opacity:0.5;stroke:#ffffff;stroke-linejoin:miter;stroke-width:1.321859;"/>
   </g>
   <g id="patch_47">
    <path clip-path="url(#p1ba5296623)" d="M 584.337232 264.142125 
L 588.437584 264.142125 
L 588.437584 250.923531 
L 584.337232 250.923531 
z
" style="fill:#96c69a;fill-opacity:0.5;stroke:#ffffff;stroke-linejoin:miter;stroke-width:1.321859;"/>
   </g>
   <g id="patch_48">
    <path clip-path="url(#p1ba5296623)" d="M 584.337232 250.923531 
L 585.704016 250.923531 
L 585.704016 237.704937 
L 584.337232 237.704937 
z
" style="fill:#96c69a;fill-opacity:0.5;stroke:#ffffff;stroke-linejoin:miter;stroke-width:1.321859;"/>
   </g>
   <g id="patch_49">
    <path clip-path="url(#p1ba5296623)" d="M 584.337232 237.704937 
L 587.526395 237.704937 
L 587.526395 224.486342 
L 584.337232 224.486342 
z
" style="fill:#96c69a;fill-opacity:0.5;stroke:#ffffff;stroke-linejoin:miter;stroke-width:1.321859;"/>
   </g>
   <g id="patch_50">
    <path clip-path="url(#p1ba5296623)" d="M 584.337232 224.486342 
L 586.615205 224.486342 
L 586.615205 211.267748 
L 584.337232 211.267748 
z
" style="fill:#96c69a;fill-opacity:0.5;stroke:#ffffff;stroke-linejoin:miter;stroke-width:1.321859;"/>
   </g>
   <g id="patch_51">
    <path clip-path="url(#p1ba5296623)" d="M 584.337232 211.267748 
L 585.248421 211.267748 
L 585.248421 198.049154 
L 584.337232 198.049154 
z
" style="fill:#96c69a;fill-opacity:0.5;stroke:#ffffff;stroke-linejoin:miter;stroke-width:1.321859;"/>
   </g>
   <g id="patch_52">
    <path clip-path="url(#p1ba5296623)" d="M 584.337232 198.049154 
L 587.0708 198.049154 
L 587.0708 184.830559 
L 584.337232 184.830559 
z
" style="fill:#96c69a;fill-opacity:0.5;stroke:#ffffff;stroke-linejoin:miter;stroke-width:1.321859;"/>
   </g>
   <g id="patch_53">
    <path clip-path="url(#p1ba5296623)" d="M 584.337232 184.830559 
L 585.248421 184.830559 
L 585.248421 171.611965 
L 584.337232 171.611965 
z
" style="fill:#96c69a;fill-opacity:0.5;stroke:#ffffff;stroke-linejoin:miter;stroke-width:1.321859;"/>
   </g>
   <g id="patch_54">
    <path clip-path="url(#p1ba5296623)" d="M 584.337232 171.611965 
L 585.248421 171.611965 
L 585.248421 158.393371 
L 584.337232 158.393371 
z
" style="fill:#96c69a;fill-opacity:0.5;stroke:#ffffff;stroke-linejoin:miter;stroke-width:1.321859;"/>
   </g>
   <g id="patch_55">
    <path clip-path="url(#p1ba5296623)" d="M 584.337232 158.393371 
L 584.337232 158.393371 
L 584.337232 145.174776 
L 584.337232 145.174776 
z
" style="fill:#96c69a;fill-opacity:0.5;stroke:#ffffff;stroke-linejoin:miter;stroke-width:1.321859;"/>
   </g>
   <g id="patch_56">
    <path clip-path="url(#p1ba5296623)" d="M 584.337232 145.174776 
L 585.248421 145.174776 
L 585.248421 131.956182 
L 584.337232 131.956182 
z
" style="fill:#96c69a;fill-opacity:0.5;stroke:#ffffff;stroke-linejoin:miter;stroke-width:1.321859;"/>
   </g>
   <g id="patch_57">
    <path d="M 584.337232 603.86 
L 584.337232 109.484571 
" style="fill:none;stroke:#262626;stroke-linecap:square;stroke-linejoin:miter;stroke-width:2.5;"/>
   </g>
   <g id="patch_58">
    <path d="M 584.337232 603.86 
L 667.574375 603.86 
" style="fill:none;stroke:#262626;stroke-linecap:square;stroke-linejoin:miter;stroke-width:2.5;"/>
   </g>
  </g>
 </g>
 <defs>
  <clipPath id="pf4aff40882">
   <rect height="494.375429" width="482.775429" x="84.914375" y="109.484571"/>
  </clipPath>
  <clipPath id="pbb3a162397">
   <rect height="85.237143" width="482.775429" x="84.914375" y="7.2"/>
  </clipPath>
  <clipPath id="p1ba5296623">
   <rect height="494.375429" width="83.237143" x="584.337232" y="109.484571"/>
  </clipPath>
 </defs>
</svg>
