<?xml version="1.0" encoding="utf-8" standalone="no"?>
<!DOCTYPE svg PUBLIC "-//W3C//DTD SVG 1.1//EN"
  "http://www.w3.org/Graphics/SVG/1.1/DTD/svg11.dtd">
<svg height="675.079375pt" version="1.1" viewBox="0 0 695.542351 675.079375" width="695.542351pt" xmlns="http://www.w3.org/2000/svg" xmlns:xlink="http://www.w3.org/1999/xlink">
 <metadata>
  <rdf:RDF xmlns:cc="http://creativecommons.org/ns#" xmlns:dc="http://purl.org/dc/elements/1.1/" xmlns:rdf="http://www.w3.org/1999/02/22-rdf-syntax-ns#">
   <cc:Work>
    <dc:type rdf:resource="http://purl.org/dc/dcmitype/StillImage"/>
    <dc:date>2021-07-16T21:43:56.976479</dc:date>
    <dc:format>image/svg+xml</dc:format>
    <dc:creator>
     <cc:Agent>
      <dc:title>Matplotlib v3.4.2, https://matplotlib.org/</dc:title>
     </cc:Agent>
    </dc:creator>
   </cc:Work>
  </rdf:RDF>
 </metadata>
 <defs>
  <style type="text/css">*{stroke-linecap:butt;stroke-linejoin:round;}</style>
 </defs>
 <g id="figure_1">
  <g id="patch_1">
   <path d="M 0 675.079375 
L 695.542351 675.079375 
L 695.542351 0 
L 0 0 
z
" style="fill:#ffffff;"/>
  </g>
  <g id="axes_1">
   <g id="patch_2">
    <path d="M 84.914375 603.86 
L 567.689804 603.86 
L 567.689804 109.484571 
L 84.914375 109.484571 
z
" style="fill:none;"/>
   </g>
   <g id="matplotlib.axis_1">
    <g id="xtick_1">
     <g id="text_1">
      <!-- 0 -->
      <g style="fill:#262626;" transform="translate(99.64041 636.076563)scale(0.22 -0.22)">
       <defs>
        <path d="M 2034 4250 
Q 1547 4250 1301 3770 
Q 1056 3291 1056 2328 
Q 1056 1369 1301 889 
Q 1547 409 2034 409 
Q 2525 409 2770 889 
Q 3016 1369 3016 2328 
Q 3016 3291 2770 3770 
Q 2525 4250 2034 4250 
z
M 2034 4750 
Q 2819 4750 3233 4129 
Q 3647 3509 3647 2328 
Q 3647 1150 3233 529 
Q 2819 -91 2034 -91 
Q 1250 -91 836 529 
Q 422 1150 422 2328 
Q 422 3509 836 4129 
Q 1250 4750 2034 4750 
z
" id="DejaVuSans-30" transform="scale(0.015625)"/>
       </defs>
       <use xlink:href="#DejaVuSans-30"/>
      </g>
     </g>
    </g>
    <g id="xtick_2">
     <g id="text_2">
      <!-- 20000 -->
      <g style="fill:#262626;" transform="translate(159.466671 636.076563)scale(0.22 -0.22)">
       <defs>
        <path d="M 1228 531 
L 3431 531 
L 3431 0 
L 469 0 
L 469 531 
Q 828 903 1448 1529 
Q 2069 2156 2228 2338 
Q 2531 2678 2651 2914 
Q 2772 3150 2772 3378 
Q 2772 3750 2511 3984 
Q 2250 4219 1831 4219 
Q 1534 4219 1204 4116 
Q 875 4013 500 3803 
L 500 4441 
Q 881 4594 1212 4672 
Q 1544 4750 1819 4750 
Q 2544 4750 2975 4387 
Q 3406 4025 3406 3419 
Q 3406 3131 3298 2873 
Q 3191 2616 2906 2266 
Q 2828 2175 2409 1742 
Q 1991 1309 1228 531 
z
" id="DejaVuSans-32" transform="scale(0.015625)"/>
       </defs>
       <use xlink:href="#DejaVuSans-32"/>
       <use x="63.623047" xlink:href="#DejaVuSans-30"/>
       <use x="127.246094" xlink:href="#DejaVuSans-30"/>
       <use x="190.869141" xlink:href="#DejaVuSans-30"/>
       <use x="254.492188" xlink:href="#DejaVuSans-30"/>
      </g>
     </g>
    </g>
    <g id="xtick_3">
     <g id="text_3">
      <!-- 40000 -->
      <g style="fill:#262626;" transform="translate(247.287932 636.076563)scale(0.22 -0.22)">
       <defs>
        <path d="M 2419 4116 
L 825 1625 
L 2419 1625 
L 2419 4116 
z
M 2253 4666 
L 3047 4666 
L 3047 1625 
L 3713 1625 
L 3713 1100 
L 3047 1100 
L 3047 0 
L 2419 0 
L 2419 1100 
L 313 1100 
L 313 1709 
L 2253 4666 
z
" id="DejaVuSans-34" transform="scale(0.015625)"/>
       </defs>
       <use xlink:href="#DejaVuSans-34"/>
       <use x="63.623047" xlink:href="#DejaVuSans-30"/>
       <use x="127.246094" xlink:href="#DejaVuSans-30"/>
       <use x="190.869141" xlink:href="#DejaVuSans-30"/>
       <use x="254.492188" xlink:href="#DejaVuSans-30"/>
      </g>
     </g>
    </g>
    <g id="xtick_4">
     <g id="text_4">
      <!-- 60000 -->
      <g style="fill:#262626;" transform="translate(335.109193 636.076563)scale(0.22 -0.22)">
       <defs>
        <path d="M 2113 2584 
Q 1688 2584 1439 2293 
Q 1191 2003 1191 1497 
Q 1191 994 1439 701 
Q 1688 409 2113 409 
Q 2538 409 2786 701 
Q 3034 994 3034 1497 
Q 3034 2003 2786 2293 
Q 2538 2584 2113 2584 
z
M 3366 4563 
L 3366 3988 
Q 3128 4100 2886 4159 
Q 2644 4219 2406 4219 
Q 1781 4219 1451 3797 
Q 1122 3375 1075 2522 
Q 1259 2794 1537 2939 
Q 1816 3084 2150 3084 
Q 2853 3084 3261 2657 
Q 3669 2231 3669 1497 
Q 3669 778 3244 343 
Q 2819 -91 2113 -91 
Q 1303 -91 875 529 
Q 447 1150 447 2328 
Q 447 3434 972 4092 
Q 1497 4750 2381 4750 
Q 2619 4750 2861 4703 
Q 3103 4656 3366 4563 
z
" id="DejaVuSans-36" transform="scale(0.015625)"/>
       </defs>
       <use xlink:href="#DejaVuSans-36"/>
       <use x="63.623047" xlink:href="#DejaVuSans-30"/>
       <use x="127.246094" xlink:href="#DejaVuSans-30"/>
       <use x="190.869141" xlink:href="#DejaVuSans-30"/>
       <use x="254.492188" xlink:href="#DejaVuSans-30"/>
      </g>
     </g>
    </g>
    <g id="xtick_5">
     <g id="text_5">
      <!-- 80000 -->
      <g style="fill:#262626;" transform="translate(422.930455 636.076563)scale(0.22 -0.22)">
       <defs>
        <path d="M 2034 2216 
Q 1584 2216 1326 1975 
Q 1069 1734 1069 1313 
Q 1069 891 1326 650 
Q 1584 409 2034 409 
Q 2484 409 2743 651 
Q 3003 894 3003 1313 
Q 3003 1734 2745 1975 
Q 2488 2216 2034 2216 
z
M 1403 2484 
Q 997 2584 770 2862 
Q 544 3141 544 3541 
Q 544 4100 942 4425 
Q 1341 4750 2034 4750 
Q 2731 4750 3128 4425 
Q 3525 4100 3525 3541 
Q 3525 3141 3298 2862 
Q 3072 2584 2669 2484 
Q 3125 2378 3379 2068 
Q 3634 1759 3634 1313 
Q 3634 634 3220 271 
Q 2806 -91 2034 -91 
Q 1263 -91 848 271 
Q 434 634 434 1313 
Q 434 1759 690 2068 
Q 947 2378 1403 2484 
z
M 1172 3481 
Q 1172 3119 1398 2916 
Q 1625 2713 2034 2713 
Q 2441 2713 2670 2916 
Q 2900 3119 2900 3481 
Q 2900 3844 2670 4047 
Q 2441 4250 2034 4250 
Q 1625 4250 1398 4047 
Q 1172 3844 1172 3481 
z
" id="DejaVuSans-38" transform="scale(0.015625)"/>
       </defs>
       <use xlink:href="#DejaVuSans-38"/>
       <use x="63.623047" xlink:href="#DejaVuSans-30"/>
       <use x="127.246094" xlink:href="#DejaVuSans-30"/>
       <use x="190.869141" xlink:href="#DejaVuSans-30"/>
       <use x="254.492188" xlink:href="#DejaVuSans-30"/>
      </g>
     </g>
    </g>
    <g id="xtick_6">
     <g id="text_6">
      <!-- 100000 -->
      <g style="fill:#262626;" transform="translate(503.752966 636.076563)scale(0.22 -0.22)">
       <defs>
        <path d="M 794 531 
L 1825 531 
L 1825 4091 
L 703 3866 
L 703 4441 
L 1819 4666 
L 2450 4666 
L 2450 531 
L 3481 531 
L 3481 0 
L 794 0 
L 794 531 
z
" id="DejaVuSans-31" transform="scale(0.015625)"/>
       </defs>
       <use xlink:href="#DejaVuSans-31"/>
       <use x="63.623047" xlink:href="#DejaVuSans-30"/>
       <use x="127.246094" xlink:href="#DejaVuSans-30"/>
       <use x="190.869141" xlink:href="#DejaVuSans-30"/>
       <use x="254.492188" xlink:href="#DejaVuSans-30"/>
       <use x="318.115234" xlink:href="#DejaVuSans-30"/>
      </g>
     </g>
    </g>
    <g id="text_7">
     <!-- MDTU -->
     <g style="fill:#262626;" transform="translate(290.596464 662.888125)scale(0.24 -0.24)">
      <defs>
       <path d="M 628 4666 
L 1569 4666 
L 2759 1491 
L 3956 4666 
L 4897 4666 
L 4897 0 
L 4281 0 
L 4281 4097 
L 3078 897 
L 2444 897 
L 1241 4097 
L 1241 0 
L 628 0 
L 628 4666 
z
" id="DejaVuSans-4d" transform="scale(0.015625)"/>
       <path d="M 1259 4147 
L 1259 519 
L 2022 519 
Q 2988 519 3436 956 
Q 3884 1394 3884 2338 
Q 3884 3275 3436 3711 
Q 2988 4147 2022 4147 
L 1259 4147 
z
M 628 4666 
L 1925 4666 
Q 3281 4666 3915 4102 
Q 4550 3538 4550 2338 
Q 4550 1131 3912 565 
Q 3275 0 1925 0 
L 628 0 
L 628 4666 
z
" id="DejaVuSans-44" transform="scale(0.015625)"/>
       <path d="M -19 4666 
L 3928 4666 
L 3928 4134 
L 2272 4134 
L 2272 0 
L 1638 0 
L 1638 4134 
L -19 4134 
L -19 4666 
z
" id="DejaVuSans-54" transform="scale(0.015625)"/>
       <path d="M 556 4666 
L 1191 4666 
L 1191 1831 
Q 1191 1081 1462 751 
Q 1734 422 2344 422 
Q 2950 422 3222 751 
Q 3494 1081 3494 1831 
L 3494 4666 
L 4128 4666 
L 4128 1753 
Q 4128 841 3676 375 
Q 3225 -91 2344 -91 
Q 1459 -91 1007 375 
Q 556 841 556 1753 
L 556 4666 
z
" id="DejaVuSans-55" transform="scale(0.015625)"/>
      </defs>
      <use xlink:href="#DejaVuSans-4d"/>
      <use x="86.279297" xlink:href="#DejaVuSans-44"/>
      <use x="163.28125" xlink:href="#DejaVuSans-54"/>
      <use x="224.365234" xlink:href="#DejaVuSans-55"/>
     </g>
    </g>
   </g>
   <g id="matplotlib.axis_2">
    <g id="ytick_1">
     <g id="text_8">
      <!-- 0.5 -->
      <g style="fill:#262626;" transform="translate(34.4275 526.664709)scale(0.22 -0.22)">
       <defs>
        <path d="M 684 794 
L 1344 794 
L 1344 0 
L 684 0 
L 684 794 
z
" id="DejaVuSans-2e" transform="scale(0.015625)"/>
        <path d="M 691 4666 
L 3169 4666 
L 3169 4134 
L 1269 4134 
L 1269 2991 
Q 1406 3038 1543 3061 
Q 1681 3084 1819 3084 
Q 2600 3084 3056 2656 
Q 3513 2228 3513 1497 
Q 3513 744 3044 326 
Q 2575 -91 1722 -91 
Q 1428 -91 1123 -41 
Q 819 9 494 109 
L 494 744 
Q 775 591 1075 516 
Q 1375 441 1709 441 
Q 2250 441 2565 725 
Q 2881 1009 2881 1497 
Q 2881 1984 2565 2268 
Q 2250 2553 1709 2553 
Q 1456 2553 1204 2497 
Q 953 2441 691 2322 
L 691 4666 
z
" id="DejaVuSans-35" transform="scale(0.015625)"/>
       </defs>
       <use xlink:href="#DejaVuSans-30"/>
       <use x="63.623047" xlink:href="#DejaVuSans-2e"/>
       <use x="95.410156" xlink:href="#DejaVuSans-35"/>
      </g>
     </g>
    </g>
    <g id="ytick_2">
     <g id="text_9">
      <!-- 1.0 -->
      <g style="fill:#262626;" transform="translate(34.4275 421.747924)scale(0.22 -0.22)">
       <use xlink:href="#DejaVuSans-31"/>
       <use x="63.623047" xlink:href="#DejaVuSans-2e"/>
       <use x="95.410156" xlink:href="#DejaVuSans-30"/>
      </g>
     </g>
    </g>
    <g id="ytick_3">
     <g id="text_10">
      <!-- 1.5 -->
      <g style="fill:#262626;" transform="translate(34.4275 316.83114)scale(0.22 -0.22)">
       <use xlink:href="#DejaVuSans-31"/>
       <use x="63.623047" xlink:href="#DejaVuSans-2e"/>
       <use x="95.410156" xlink:href="#DejaVuSans-35"/>
      </g>
     </g>
    </g>
    <g id="ytick_4">
     <g id="text_11">
      <!-- 2.0 -->
      <g style="fill:#262626;" transform="translate(34.4275 211.914355)scale(0.22 -0.22)">
       <use xlink:href="#DejaVuSans-32"/>
       <use x="63.623047" xlink:href="#DejaVuSans-2e"/>
       <use x="95.410156" xlink:href="#DejaVuSans-30"/>
      </g>
     </g>
    </g>
    <g id="text_12">
     <!-- $E$ -->
     <g style="fill:#262626;" transform="translate(25.43625 364.352286)rotate(-90)scale(0.24 -0.24)">
      <defs>
       <path d="M 1081 4666 
L 4031 4666 
L 3928 4134 
L 1606 4134 
L 1338 2753 
L 3566 2753 
L 3463 2222 
L 1234 2222 
L 909 531 
L 3284 531 
L 3181 0 
L 172 0 
L 1081 4666 
z
" id="DejaVuSans-Oblique-45" transform="scale(0.015625)"/>
      </defs>
      <use transform="translate(0 0.09375)" xlink:href="#DejaVuSans-Oblique-45"/>
     </g>
    </g>
   </g>
   <g id="line2d_1">
    <path clip-path="url(#p55dd4c741c)" d="M 106.858713 388.344569 
L 107.297819 469.827004 
L 107.517372 273.951756 
L 107.736925 483.180736 
L 107.956478 523.493327 
L 108.176032 433.617489 
L 108.615138 543.629625 
L 108.834691 502.095838 
L 109.054244 528.674711 
L 109.493351 411.119532 
L 109.712904 528.59126 
L 109.932457 464.759372 
L 110.15201 436.516134 
L 110.591116 498.244872 
L 111.030223 433.531278 
L 111.469329 485.873519 
L 111.688882 475.102287 
L 111.908435 481.305295 
L 112.127988 491.053427 
L 112.567095 388.122133 
L 113.006201 529.952922 
L 113.225754 534.173781 
L 113.66486 343.8381 
L 113.884414 520.349565 
L 114.103967 416.748189 
L 114.32352 529.155206 
L 114.762626 389.770552 
L 114.982179 521.719206 
L 115.421286 469.037033 
L 115.640839 466.251672 
L 115.860392 392.077814 
L 116.299498 543.392032 
L 116.519051 360.323529 
L 116.738605 301.762099 
L 116.958158 521.829352 
L 117.177711 430.795504 
L 117.397264 566.042963 
L 117.616817 469.565407 
L 117.83637 522.95513 
L 118.055923 459.875753 
L 118.275477 487.234825 
L 118.49503 534.269739 
L 118.714583 465.094954 
L 118.934136 455.66816 
L 119.153689 430.480747 
L 119.373242 209.941235 
L 119.592796 416.489115 
L 119.812349 359.087271 
L 120.031902 462.811201 
L 120.251455 344.611966 
L 120.690561 552.792811 
L 120.910114 404.149384 
L 121.129668 478.328765 
L 121.349221 339.546958 
L 121.568774 472.236792 
L 121.788327 443.215772 
L 122.00788 366.120871 
L 122.446987 472.73144 
L 122.66654 384.920394 
L 122.886093 462.331509 
L 123.105646 340.362112 
L 123.325199 512.621292 
L 123.544752 464.617347 
L 123.764305 482.218704 
L 123.983859 478.506736 
L 124.422965 461.984159 
L 124.642518 428.716451 
L 124.862071 456.004158 
L 125.081624 358.463634 
L 125.301178 509.294618 
L 125.520731 515.281575 
L 125.740284 416.529688 
L 125.959837 422.112602 
L 126.17939 343.603426 
L 126.398943 525.05 
L 126.618496 473.008896 
L 126.83805 488.51166 
L 127.057603 434.147663 
L 127.277156 421.336326 
L 127.496709 446.560846 
L 127.935815 567.093121 
L 128.155369 503.611851 
L 128.374922 497.899748 
L 128.594475 517.609547 
L 128.814028 375.655303 
L 129.033581 465.651874 
L 129.253134 387.832323 
L 129.472687 521.617607 
L 129.692241 475.170734 
L 129.911794 452.24417 
L 130.3509 435.666319 
L 130.570453 451.662673 
L 131.00956 578.734665 
L 131.229113 472.280205 
L 131.448666 486.906628 
L 131.668219 456.512494 
L 131.887772 466.761862 
L 132.107325 508.929196 
L 132.326878 493.413031 
L 132.546432 449.748238 
L 132.765985 382.841203 
L 133.424644 520.752236 
L 133.863751 495.772618 
L 134.083304 529.198195 
L 134.302857 530.848225 
L 134.52241 520.344456 
L 134.961516 327.321225 
L 135.181069 482.012225 
L 135.400623 493.022328 
L 135.620176 374.045355 
L 135.839729 510.880895 
L 136.059282 500.828647 
L 136.278835 505.892505 
L 136.498388 430.183218 
L 136.717941 502.215695 
L 137.157048 403.456 
L 137.376601 510.697136 
L 137.596154 549.824233 
L 137.815707 458.003113 
L 138.03526 473.031736 
L 138.254814 439.38999 
L 138.474367 486.77466 
L 138.69392 472.39919 
L 138.913473 205.698627 
L 139.133026 493.285673 
L 139.352579 565.171116 
L 139.572132 452.222107 
L 139.791686 468.462538 
L 140.011239 437.997499 
L 140.230792 354.479726 
L 140.450345 432.739642 
L 140.669898 459.556368 
L 140.889451 560.740556 
L 141.109005 450.330917 
L 141.328558 189.624735 
L 141.548111 513.272758 
L 141.767664 515.651728 
L 141.987217 490.886125 
L 142.20677 447.638684 
L 142.426323 342.284891 
L 142.645877 497.879055 
L 142.86543 445.29617 
L 143.084983 457.651808 
L 143.304536 463.303458 
L 143.524089 378.874491 
L 143.743642 397.213432 
L 143.963196 521.387303 
L 144.182749 366.736592 
L 144.402302 457.680638 
L 144.621855 351.043464 
L 144.841408 493.822739 
L 145.060961 456.96106 
L 145.280514 534.480037 
L 145.500068 183.147634 
L 145.719621 492.227323 
L 145.939174 298.904186 
L 146.158727 532.188485 
L 146.37828 462.693719 
L 146.597833 511.462772 
L 146.817387 359.475802 
L 147.03694 506.137999 
L 147.256493 446.834458 
L 147.476046 531.532965 
L 147.695599 554.083365 
L 147.915152 543.687888 
L 148.134705 541.564143 
L 148.354259 534.076806 
L 148.573812 441.918367 
L 148.793365 287.749425 
L 149.232471 510.049614 
L 149.452024 501.440402 
L 149.671578 539.546678 
L 149.891131 511.160632 
L 150.110684 397.712184 
L 150.330237 491.784131 
L 150.54979 501.30268 
L 150.769343 472.986954 
L 150.988896 529.156483 
L 151.20845 426.944552 
L 151.428003 485.302183 
L 151.647556 399.253851 
L 152.306215 517.71631 
L 152.525769 472.430868 
L 152.964875 523.888044 
L 153.184428 454.838272 
L 153.403981 470.20181 
L 153.623534 465.324553 
L 153.843087 509.086205 
L 154.062641 575.001477 
L 154.501747 455.613183 
L 154.7213 532.558055 
L 154.940853 545.798032 
L 155.160406 312.514901 
L 155.37996 458.197596 
L 155.599513 470.160844 
L 155.819066 384.176658 
L 156.038619 496.135222 
L 156.258172 523.433519 
L 156.477725 433.514225 
L 156.697278 418.786415 
L 156.916832 421.183926 
L 157.136385 483.244324 
L 157.355938 467.62048 
L 157.575491 469.474199 
L 157.795044 489.84925 
L 158.014597 416.262217 
L 158.234151 499.896151 
L 158.453704 463.008783 
L 158.673257 533.392626 
L 158.89281 481.613396 
L 159.112363 281.744201 
L 159.331916 492.332994 
L 159.551469 459.34159 
L 159.771023 462.097547 
L 159.990576 501.241826 
L 160.210129 387.856593 
L 160.429682 450.333356 
L 160.649235 470.029727 
L 160.868788 556.593777 
L 161.088342 522.786892 
L 161.307895 524.50633 
L 161.527448 449.335343 
L 161.747001 509.6645 
L 161.966554 497.721025 
L 162.186107 460.92159 
L 162.844767 494.064715 
L 163.06432 543.563131 
L 163.283873 457.009345 
L 163.503426 435.580226 
L 163.722979 539.202668 
L 164.162086 433.859253 
L 164.381639 430.858549 
L 164.601192 496.933444 
L 164.820745 493.101962 
L 165.040298 520.091923 
L 165.259851 426.987632 
L 165.479405 561.731931 
L 165.698958 474.412489 
L 165.918511 451.042285 
L 166.138064 536.879253 
L 166.357617 494.659975 
L 166.57717 494.999211 
L 166.796723 424.835188 
L 167.016277 488.856559 
L 167.23583 434.664028 
L 167.674936 454.859915 
L 167.894489 477.508033 
L 168.114042 524.017117 
L 168.333596 474.832803 
L 168.553149 385.378543 
L 168.772702 454.441778 
L 168.992255 399.890749 
L 169.211808 400.984364 
L 169.431361 378.732266 
L 169.650914 505.380558 
L 169.870468 446.585615 
L 170.090021 332.21433 
L 170.529127 544.894769 
L 170.74868 543.590417 
L 170.968233 517.496849 
L 171.187787 570.690386 
L 171.40734 424.710985 
L 171.626893 365.52191 
L 171.846446 480.651888 
L 172.065999 288.84502 
L 172.285552 457.602447 
L 172.505105 496.034158 
L 172.724659 495.223442 
L 172.944212 313.285138 
L 173.163765 517.509091 
L 173.383318 347.452027 
L 173.822424 478.364821 
L 174.041978 473.591317 
L 174.261531 434.430623 
L 174.481084 349.523879 
L 174.700637 509.021721 
L 174.92019 376.307492 
L 175.139743 479.420608 
L 175.359296 433.505937 
L 175.57885 417.079471 
L 175.798403 459.104541 
L 176.017956 552.381288 
L 176.237509 512.064938 
L 176.457062 493.778234 
L 176.676615 500.363055 
L 176.896169 543.18763 
L 177.115722 438.343682 
L 177.335275 408.422435 
L 177.554828 546.476224 
L 177.774381 340.368427 
L 177.993934 443.235831 
L 178.213487 484.658856 
L 178.433041 567.824449 
L 178.872147 456.858794 
L 179.311253 570.90632 
L 179.530806 532.97816 
L 179.75036 441.278573 
L 179.969913 454.180773 
L 180.189466 352.973985 
L 180.409019 516.690714 
L 180.628572 430.686348 
L 180.848125 511.889787 
L 181.067678 512.622931 
L 181.287232 524.767659 
L 181.506785 456.88582 
L 181.726338 522.903728 
L 181.945891 355.135639 
L 182.165444 482.520335 
L 182.384997 392.307803 
L 182.604551 469.370722 
L 182.824104 505.143287 
L 183.043657 363.00128 
L 183.26321 468.482881 
L 183.482763 500.815749 
L 183.702316 507.238387 
L 183.921869 471.010475 
L 184.141423 521.442217 
L 184.360976 449.336618 
L 184.580529 557.891272 
L 184.800082 433.859371 
L 185.019635 551.280518 
L 185.239188 252.761827 
L 185.458742 455.939195 
L 185.897848 540.537033 
L 186.117401 499.452432 
L 186.336954 437.206696 
L 186.556507 494.972583 
L 186.77606 388.513138 
L 186.995614 488.662743 
L 187.215167 410.837956 
L 187.43472 431.771083 
L 187.654273 288.629558 
L 187.873826 573.94767 
L 188.093379 506.065003 
L 188.312932 376.591245 
L 188.532486 453.178285 
L 188.752039 413.802859 
L 188.971592 469.684413 
L 189.191145 475.769224 
L 189.410698 518.519756 
L 189.630251 480.419551 
L 189.849805 470.698673 
L 190.508464 523.119813 
L 190.728017 506.957455 
L 190.94757 390.620796 
L 191.167123 556.218902 
L 191.60623 498.196729 
L 191.825783 529.097123 
L 192.484442 370.746719 
L 192.703996 444.119643 
L 192.923549 465.098186 
L 193.143102 393.697352 
L 193.362655 468.821255 
L 193.582208 463.763892 
L 193.801761 488.268805 
L 194.021314 491.015639 
L 194.240868 410.428129 
L 194.460421 394.538465 
L 194.679974 552.058237 
L 194.899527 422.296813 
L 195.11908 520.986722 
L 195.338633 344.611586 
L 195.558187 525.729668 
L 195.77774 455.930767 
L 195.997293 427.757491 
L 196.216846 306.22835 
L 196.436399 482.696738 
L 196.655952 522.37804 
L 196.875505 506.764381 
L 197.095059 520.64539 
L 197.314612 370.121817 
L 197.534165 477.635783 
L 197.753718 472.946364 
L 197.973271 427.487845 
L 198.192824 505.987667 
L 198.412378 454.539388 
L 198.631931 460.706611 
L 198.851484 321.796255 
L 199.071037 447.719352 
L 199.29059 436.758 
L 199.510143 501.269841 
L 199.729696 436.821702 
L 199.94925 282.70588 
L 200.168803 438.833456 
L 200.388356 500.039118 
L 200.607909 457.179482 
L 200.827462 378.079551 
L 201.047015 498.951938 
L 201.266569 535.557395 
L 201.705675 364.765994 
L 201.925228 504.507749 
L 202.144781 475.863908 
L 202.364334 369.798774 
L 202.583887 479.829334 
L 202.803441 368.849764 
L 203.4621 453.237157 
L 203.681653 465.730109 
L 203.901206 549.48881 
L 204.340313 449.669393 
L 204.559866 514.417632 
L 204.779419 469.478074 
L 204.998972 487.039208 
L 205.218525 473.117597 
L 205.438078 466.904397 
L 205.657632 470.66951 
L 205.877185 492.85751 
L 206.096738 534.430187 
L 206.316291 444.329109 
L 206.535844 504.710039 
L 206.755397 383.283604 
L 206.974951 534.715941 
L 207.194504 450.927853 
L 207.414057 483.241172 
L 207.63361 418.025649 
L 207.853163 492.754929 
L 208.072716 482.537061 
L 208.292269 397.983931 
L 208.511823 470.752074 
L 208.731376 365.40985 
L 208.950929 501.371339 
L 209.170482 369.72947 
L 209.390035 344.665357 
L 209.609588 378.151674 
L 209.829142 508.195696 
L 210.048695 447.479335 
L 210.268248 438.979233 
L 210.487801 489.468134 
L 210.926907 336.393454 
L 211.14646 369.59912 
L 211.366014 485.709005 
L 211.585567 489.36825 
L 211.80512 443.432615 
L 212.024673 457.214899 
L 212.244226 448.439578 
L 212.463779 396.239867 
L 212.683333 458.562689 
L 212.902886 385.269008 
L 213.122439 485.874608 
L 213.341992 406.99745 
L 213.561545 503.047868 
L 213.781098 442.421312 
L 214.000651 509.077942 
L 214.220205 369.87364 
L 214.439758 516.673051 
L 214.659311 473.906912 
L 214.878864 464.90475 
L 215.31797 400.373191 
L 215.537523 528.540759 
L 215.757077 503.472574 
L 215.97663 514.809199 
L 216.196183 343.029703 
L 216.415736 493.587024 
L 216.635289 487.943049 
L 216.854842 514.123804 
L 217.074396 472.315398 
L 217.293949 497.875717 
L 217.513502 410.774685 
L 217.952608 527.85261 
L 218.172161 462.691057 
L 218.391714 438.199142 
L 218.611268 546.284102 
L 219.050374 426.695647 
L 219.269927 411.437404 
L 219.48948 349.928204 
L 219.709033 423.707939 
L 219.928587 445.741684 
L 220.14814 401.785835 
L 220.367693 331.997446 
L 220.587246 317.966357 
L 221.026352 499.097966 
L 221.245905 485.252737 
L 221.465459 531.246963 
L 221.685012 507.966977 
L 221.904565 460.200928 
L 222.124118 506.442188 
L 222.563224 480.485585 
L 222.782778 531.08292 
L 223.002331 445.180646 
L 223.221884 543.139626 
L 223.441437 385.591485 
L 223.66099 539.9178 
L 223.880543 455.604776 
L 224.100096 475.660014 
L 224.31965 479.575838 
L 224.539203 519.998941 
L 224.758756 440.632015 
L 224.978309 438.31232 
L 225.197862 517.71023 
L 225.417415 505.266205 
L 225.636969 500.877042 
L 225.856522 410.250696 
L 226.076075 534.338955 
L 226.295628 339.402219 
L 226.515181 517.990572 
L 226.954287 429.751106 
L 227.173841 228.089251 
L 227.393394 493.002818 
L 227.612947 392.292048 
L 227.8325 346.278728 
L 228.052053 511.257248 
L 228.271606 390.826292 
L 228.49116 531.73449 
L 228.930266 424.081589 
L 229.149819 555.792282 
L 229.369372 407.365088 
L 229.588925 522.736664 
L 230.028032 463.93477 
L 230.247585 458.939027 
L 230.467138 537.049347 
L 230.686691 453.671869 
L 230.906244 497.804646 
L 231.125797 487.799882 
L 231.345351 415.278548 
L 231.564904 543.448499 
L 231.784457 478.651931 
L 232.00401 300.869887 
L 232.223563 484.379792 
L 232.443116 291.382371 
L 232.662669 317.690131 
L 232.882223 526.820089 
L 233.101776 412.71422 
L 233.321329 201.996399 
L 233.540882 544.312306 
L 233.760435 477.432511 
L 233.979988 532.134347 
L 234.199542 446.373511 
L 234.419095 507.973809 
L 234.638648 426.775161 
L 235.077754 556.58571 
L 235.51686 374.29755 
L 235.736414 473.507332 
L 235.955967 354.354522 
L 236.17552 510.893806 
L 236.395073 511.523391 
L 236.834179 323.032879 
L 237.053733 511.338432 
L 237.273286 482.124819 
L 237.492839 434.523531 
L 237.712392 547.33861 
L 237.931945 470.502938 
L 238.151498 449.80703 
L 238.371051 366.225147 
L 238.590605 374.698636 
L 238.810158 410.472317 
L 239.029711 531.645125 
L 239.249264 392.002644 
L 239.468817 509.548972 
L 239.68837 547.392515 
L 239.907924 480.940174 
L 240.127477 459.979063 
L 240.34703 547.311221 
L 240.566583 482.667686 
L 240.786136 495.284294 
L 241.005689 489.670856 
L 241.225242 528.030607 
L 241.444796 503.454076 
L 241.664349 501.964091 
L 241.883902 418.502362 
L 242.103455 462.140124 
L 242.323008 333.903797 
L 242.542561 535.3447 
L 242.762114 386.169617 
L 242.981668 539.932981 
L 243.201221 411.563956 
L 243.420774 427.052294 
L 243.640327 454.646658 
L 243.85988 348.169517 
L 244.079433 487.407766 
L 244.298987 399.715466 
L 244.51854 557.5123 
L 244.738093 462.343028 
L 244.957646 537.773188 
L 245.177199 452.079475 
L 245.396752 428.177337 
L 245.616305 491.167597 
L 245.835859 441.371718 
L 246.055412 527.06762 
L 246.274965 424.899839 
L 246.494518 473.276219 
L 246.714071 398.22341 
L 246.933624 473.848386 
L 247.372731 311.635954 
L 247.592284 380.445957 
L 247.811837 395.261487 
L 248.03139 480.171266 
L 248.250943 479.419822 
L 248.470496 571.447908 
L 248.69005 502.405824 
L 248.909603 395.76631 
L 249.129156 511.953357 
L 249.348709 474.7428 
L 249.568262 502.575401 
L 249.787815 447.954954 
L 250.007369 458.459545 
L 250.226922 362.707185 
L 250.666028 480.633494 
L 250.885581 453.325258 
L 251.105134 263.871312 
L 251.324687 426.111633 
L 251.544241 501.945813 
L 251.763794 467.488497 
L 251.983347 498.378121 
L 252.2029 462.419746 
L 252.422453 131.956182 
L 252.642006 474.907304 
L 252.86156 479.436025 
L 253.081113 492.91288 
L 253.300666 580.929229 
L 253.739772 274.18171 
L 253.959325 493.768274 
L 254.178878 383.406622 
L 254.398432 463.058476 
L 254.617985 390.9247 
L 254.837538 395.858782 
L 255.057091 285.991834 
L 255.276644 510.213969 
L 255.496197 377.991819 
L 255.715751 495.916885 
L 255.935304 458.918678 
L 256.154857 549.247488 
L 256.593963 482.998101 
L 256.813516 471.936093 
L 257.033069 504.738799 
L 257.252623 500.724301 
L 257.472176 548.428881 
L 257.691729 515.262035 
L 257.911282 415.313608 
L 258.130835 556.168828 
L 258.350388 445.755452 
L 258.569942 514.083063 
L 258.789495 384.271273 
L 259.009048 500.477198 
L 259.228601 322.676498 
L 259.448154 515.284116 
L 259.667707 529.879323 
L 259.88726 514.060614 
L 260.106814 344.883875 
L 260.326367 519.212867 
L 260.54592 402.352741 
L 260.765473 492.448151 
L 260.985026 444.490896 
L 261.424133 499.586576 
L 261.643686 507.039276 
L 261.863239 366.535505 
L 262.082792 342.542094 
L 262.302345 531.128959 
L 262.521898 481.787595 
L 262.741451 401.985193 
L 262.961005 403.687462 
L 263.180558 518.038272 
L 263.400111 521.557543 
L 263.619664 413.320679 
L 263.839217 536.275279 
L 264.278324 478.594785 
L 264.497877 536.984948 
L 264.71743 444.500418 
L 264.936983 581.38839 
L 265.156536 394.578429 
L 265.376089 376.504678 
L 265.595642 509.192246 
L 265.815196 435.012601 
L 266.034749 449.000482 
L 266.254302 481.617208 
L 266.473855 424.626964 
L 266.693408 493.138148 
L 266.912961 460.302945 
L 267.132514 358.281368 
L 267.352068 528.140521 
L 267.571621 271.528539 
L 267.791174 457.990941 
L 268.010727 463.185797 
L 268.449833 381.694548 
L 268.669387 473.866882 
L 268.88894 448.214538 
L 269.108493 509.198086 
L 269.328046 362.244201 
L 269.547599 468.056517 
L 269.767152 468.825235 
L 269.986705 461.366872 
L 270.206259 521.577867 
L 270.425812 515.543871 
L 270.645365 525.872029 
L 270.864918 569.044494 
L 271.084471 440.761649 
L 271.304024 537.363068 
L 271.523578 483.38496 
L 271.743131 473.935438 
L 271.962684 505.304511 
L 272.40179 459.332138 
L 272.621343 412.03282 
L 272.840896 471.853324 
L 273.06045 449.024218 
L 273.280003 270.642074 
L 273.499556 470.733266 
L 273.719109 429.832531 
L 274.158215 474.851176 
L 274.377769 273.303585 
L 274.597322 538.310099 
L 274.816875 474.127422 
L 275.255981 520.704671 
L 275.475534 420.666854 
L 275.695087 512.957337 
L 275.914641 472.761113 
L 276.134194 492.360496 
L 276.353747 476.92605 
L 276.792853 518.665434 
L 277.23196 403.917435 
L 277.451513 517.395225 
L 277.671066 516.655931 
L 277.890619 527.240429 
L 278.110172 485.940485 
L 278.329725 542.194782 
L 278.549278 526.537101 
L 278.768832 491.277746 
L 278.988385 403.818095 
L 279.207938 484.138873 
L 279.427491 522.508267 
L 279.647044 499.840409 
L 279.866597 431.703093 
L 280.086151 534.673184 
L 280.305704 479.271059 
L 280.525257 394.571871 
L 280.74481 454.30353 
L 280.964363 404.952184 
L 281.183916 453.522107 
L 281.623023 509.006771 
L 281.842576 479.252955 
L 282.062129 516.765628 
L 282.281682 507.272511 
L 282.501235 435.887805 
L 282.940342 510.305577 
L 283.159895 498.243984 
L 283.379448 462.869596 
L 283.599001 445.650909 
L 283.818554 410.961853 
L 284.038107 476.85651 
L 284.25766 430.308487 
L 284.477214 427.371609 
L 284.696767 448.113694 
L 284.91632 353.61952 
L 285.135873 525.374108 
L 285.355426 500.466843 
L 285.574979 359.070859 
L 285.794533 473.139544 
L 286.014086 475.06624 
L 286.453192 511.31279 
L 286.892298 461.034598 
L 287.111851 558.859229 
L 287.331405 531.952955 
L 287.550958 420.085589 
L 287.770511 530.499504 
L 287.990064 449.47246 
L 288.209617 487.494485 
L 288.42917 489.462898 
L 288.648724 488.227489 
L 288.868277 454.732646 
L 289.08783 510.015978 
L 289.307383 458.985614 
L 289.526936 507.35957 
L 289.746489 198.326811 
L 289.966042 485.527181 
L 290.185596 529.949462 
L 290.405149 399.745099 
L 290.624702 497.730981 
L 290.844255 357.646842 
L 291.063808 450.676808 
L 291.283361 476.645753 
L 291.502915 461.733083 
L 291.722468 520.586875 
L 291.942021 472.546332 
L 292.161574 380.914633 
L 292.381127 364.977049 
L 292.60068 496.829666 
L 292.820233 200.332871 
L 293.039787 366.98522 
L 293.478893 484.795262 
L 293.698446 327.843762 
L 293.917999 379.80133 
L 294.357105 547.781889 
L 294.576659 489.781954 
L 294.796212 479.019577 
L 295.015765 513.814596 
L 295.235318 494.15375 
L 295.454871 401.655174 
L 295.674424 568.047538 
L 295.893978 386.718546 
L 296.113531 468.993453 
L 296.333084 505.994543 
L 296.552637 485.310264 
L 296.77219 505.050404 
L 296.991743 505.42332 
L 297.211296 426.950867 
L 297.43085 496.657352 
L 297.650403 439.015404 
L 297.869956 431.318833 
L 298.089509 534.313935 
L 298.309062 343.805892 
L 298.528615 519.993475 
L 298.748169 480.893308 
L 298.967722 560.057382 
L 299.187275 412.792221 
L 299.406828 451.464145 
L 299.626381 522.520777 
L 299.845934 478.005182 
L 300.065487 505.636121 
L 300.285041 409.9974 
L 300.504594 511.625954 
L 300.724147 507.86115 
L 300.9437 228.822654 
L 301.382806 560.575587 
L 301.60236 538.47648 
L 302.041466 428.54983 
L 302.261019 541.988651 
L 302.480572 456.948795 
L 302.700125 516.38629 
L 302.919678 476.551174 
L 303.139232 523.998453 
L 303.358785 411.174054 
L 303.578338 522.70214 
L 303.797891 531.647787 
L 304.017444 477.274262 
L 304.236997 541.626643 
L 304.456551 466.294473 
L 304.676104 450.676948 
L 304.895657 458.413287 
L 305.11521 294.085112 
L 305.334763 547.765666 
L 305.554316 410.17651 
L 305.773869 416.884953 
L 306.212976 510.274557 
L 306.432529 421.697929 
L 306.652082 516.084911 
L 307.091188 406.976859 
L 307.310742 473.760011 
L 307.749848 417.371989 
L 307.969401 496.913163 
L 308.188954 427.875809 
L 308.408507 494.380934 
L 308.62806 397.778124 
L 308.847614 412.747204 
L 309.067167 484.717813 
L 309.28672 488.380508 
L 309.506273 295.075418 
L 309.725826 491.225173 
L 309.945379 415.978294 
L 310.164933 385.915561 
L 310.384486 391.18694 
L 310.604039 519.939403 
L 310.823592 481.402523 
L 311.043145 482.273653 
L 311.262698 255.802674 
L 311.482251 449.037555 
L 311.701805 517.209968 
L 311.921358 465.18246 
L 312.140911 276.152179 
L 312.360464 304.613119 
L 313.019124 498.541689 
L 313.238677 493.430097 
L 313.45823 453.190763 
L 313.677783 467.734044 
L 313.897336 460.066818 
L 314.336442 358.589796 
L 314.555996 328.862382 
L 314.995102 541.995536 
L 315.214655 442.74957 
L 315.434208 518.267674 
L 315.653761 499.283866 
L 315.873315 372.344223 
L 316.312421 522.011322 
L 316.531974 426.043985 
L 316.97108 468.813418 
L 317.190633 525.295612 
L 317.410187 519.471788 
L 317.849293 399.773067 
L 318.068846 426.172406 
L 318.288399 478.323774 
L 318.507952 470.053092 
L 318.727506 469.25723 
L 318.947059 442.058462 
L 319.166612 494.485132 
L 319.386165 512.409194 
L 319.605718 416.818822 
L 319.825271 488.254784 
L 320.044824 302.154465 
L 320.264378 498.744275 
L 320.483931 363.501335 
L 321.14259 547.660029 
L 321.362143 520.602096 
L 321.581696 478.658497 
L 321.80125 461.421538 
L 322.020803 421.878474 
L 322.240356 539.027013 
L 322.459909 354.333135 
L 322.679462 459.483383 
L 322.899015 403.149876 
L 323.338122 499.715751 
L 323.557675 384.404214 
L 323.996781 535.181075 
L 324.655441 455.805978 
L 324.874994 475.994954 
L 325.094547 530.662564 
L 325.3141 502.451148 
L 325.533653 415.482613 
L 325.753206 493.958812 
L 325.97276 441.20328 
L 326.192313 354.184193 
L 326.411866 476.584065 
L 326.850972 296.996751 
L 327.070525 394.498968 
L 327.290078 346.722884 
L 327.509632 416.947703 
L 327.729185 524.831894 
L 327.948738 450.39412 
L 328.168291 444.782515 
L 328.387844 518.728503 
L 328.607397 443.352668 
L 329.046504 524.680579 
L 329.266057 491.4166 
L 329.48561 276.094676 
L 329.705163 535.66041 
L 329.924716 459.977639 
L 330.144269 437.805964 
L 330.363823 532.250077 
L 330.583376 499.55096 
L 330.802929 436.355431 
L 331.022482 468.982892 
L 331.242035 264.778348 
L 331.461588 494.498002 
L 331.681142 488.697785 
L 331.900695 326.290272 
L 332.339801 491.569978 
L 332.559354 473.887098 
L 332.778907 493.843432 
L 332.99846 406.867644 
L 333.218014 422.924679 
L 333.437567 523.399481 
L 333.65712 384.759654 
L 333.876673 526.018395 
L 334.315779 480.927308 
L 334.535333 517.809149 
L 334.754886 385.984233 
L 334.974439 396.846846 
L 335.193992 350.530449 
L 335.413545 496.01551 
L 335.852651 472.04687 
L 336.072205 431.313648 
L 336.291758 415.944303 
L 336.511311 455.164971 
L 336.730864 455.732885 
L 336.950417 496.384221 
L 337.16997 405.438723 
L 337.389524 469.508013 
L 337.609077 437.638406 
L 337.82863 446.986689 
L 338.048183 422.41459 
L 338.267736 509.897558 
L 338.487289 444.10788 
L 338.706842 455.388459 
L 338.926396 368.972643 
L 339.145949 482.069039 
L 339.365502 486.060686 
L 339.585055 472.587413 
L 339.804608 508.880337 
L 340.024161 394.995149 
L 340.243715 508.312545 
L 340.463268 506.587281 
L 340.682821 487.28316 
L 340.902374 362.018884 
L 341.121927 471.66672 
L 341.34148 479.412347 
L 341.561033 462.46695 
L 341.780587 532.501725 
L 342.00014 455.038524 
L 342.219693 426.461228 
L 342.439246 514.846873 
L 342.658799 488.373737 
L 343.097906 459.041415 
L 343.317459 475.601013 
L 343.537012 395.370702 
L 343.756565 410.101717 
L 344.195671 545.914048 
L 344.415224 421.922409 
L 344.634778 379.815349 
L 344.854331 498.648345 
L 345.073884 511.139904 
L 345.293437 444.542171 
L 345.51299 320.500363 
L 345.952096 511.78927 
L 346.17165 405.487409 
L 346.391203 572.666353 
L 346.610756 519.06913 
L 346.830309 340.210832 
L 347.269415 515.175814 
L 347.488969 362.178044 
L 347.708522 404.031643 
L 347.928075 307.905648 
L 348.147628 481.425032 
L 348.367181 472.165291 
L 348.586734 526.668307 
L 349.025841 398.089968 
L 349.245394 421.686183 
L 349.464947 479.989492 
L 349.6845 457.140447 
L 349.904053 558.147249 
L 350.123606 348.71108 
L 350.34316 498.16387 
L 350.562713 422.170441 
L 350.782266 419.928495 
L 351.001819 415.00237 
L 351.221372 514.600341 
L 351.440925 502.615409 
L 351.660478 389.117924 
L 351.880032 555.377414 
L 352.319138 446.956842 
L 352.538691 310.883673 
L 352.758244 420.891355 
L 352.977797 468.400017 
L 353.197351 479.360765 
L 353.416904 524.573924 
L 353.636457 468.253037 
L 353.85601 517.019584 
L 354.075563 481.19166 
L 354.295116 355.077352 
L 354.514669 534.042158 
L 354.734223 487.827033 
L 354.953776 547.876571 
L 355.173329 456.131844 
L 355.392882 416.358334 
L 355.612435 471.311232 
L 355.831988 486.917983 
L 356.051542 421.775333 
L 356.271095 531.452987 
L 356.490648 332.208496 
L 356.710201 505.958147 
L 357.149307 477.815677 
L 357.36886 345.261979 
L 357.588414 480.834839 
L 357.807967 526.432516 
L 358.02752 302.067 
L 358.247073 519.202079 
L 358.466626 461.219884 
L 358.686179 527.579827 
L 358.905733 528.509902 
L 359.125286 480.032351 
L 359.344839 517.367701 
L 359.564392 430.647497 
L 359.783945 461.214971 
L 360.003498 453.565378 
L 360.223051 498.625223 
L 360.442605 499.87459 
L 360.662158 528.312438 
L 361.101264 398.728255 
L 361.320817 548.28819 
L 361.54037 515.451583 
L 361.759924 574.057189 
L 361.979477 407.989561 
L 362.19903 472.578343 
L 362.418583 369.000563 
L 362.857689 453.891035 
L 363.077242 536.039895 
L 363.296796 419.024212 
L 363.516349 553.512642 
L 363.735902 484.416152 
L 363.955455 475.053707 
L 364.175008 486.908526 
L 364.394561 532.235075 
L 364.833668 381.731242 
L 365.053221 372.230797 
L 365.492327 510.039253 
L 365.71188 471.478195 
L 365.931433 331.071477 
L 366.150987 519.139402 
L 366.590093 422.076716 
L 367.248752 552.337516 
L 367.468306 527.902799 
L 367.687859 535.65451 
L 368.126965 335.555034 
L 368.346518 540.079598 
L 368.566071 453.998476 
L 368.785624 549.889247 
L 369.005178 509.089597 
L 369.224731 372.53871 
L 369.444284 449.0591 
L 369.663837 381.005367 
L 369.88339 448.019827 
L 370.102943 432.069502 
L 370.322497 292.472253 
L 370.761603 396.486097 
L 370.981156 526.705252 
L 371.200709 423.396192 
L 371.420262 506.202439 
L 371.639815 328.049296 
L 371.859369 477.684773 
L 372.078922 429.645113 
L 372.298475 516.723913 
L 372.518028 351.399969 
L 372.737581 497.873271 
L 372.957134 318.291992 
L 373.176687 480.772536 
L 373.396241 433.095995 
L 373.615794 525.952367 
L 373.835347 537.839857 
L 374.274453 443.245699 
L 374.494006 223.463752 
L 374.71356 390.371968 
L 374.933113 280.053845 
L 375.152666 486.547694 
L 375.591772 455.564808 
L 376.030878 563.583794 
L 376.250432 528.175333 
L 376.469985 525.584456 
L 376.689538 446.255461 
L 377.128644 482.310939 
L 377.348197 328.051385 
L 377.567751 354.81867 
L 377.787304 543.905498 
L 378.006857 337.233861 
L 378.22641 506.024094 
L 378.445963 438.837776 
L 378.665516 428.502356 
L 378.885069 490.773582 
L 379.104623 513.254657 
L 379.543729 437.460235 
L 379.763282 481.056941 
L 379.982835 394.9662 
L 380.202388 518.086962 
L 380.421942 463.672343 
L 380.641495 487.819508 
L 380.861048 538.142639 
L 381.080601 304.39948 
L 381.519707 519.371642 
L 381.73926 513.325081 
L 381.958814 500.612208 
L 382.178367 421.058969 
L 382.39792 484.670986 
L 382.837026 527.033401 
L 383.056579 426.391873 
L 383.276133 401.339967 
L 383.495686 517.629507 
L 383.715239 478.334804 
L 383.934792 484.593066 
L 384.154345 415.589134 
L 384.373898 499.252978 
L 384.593451 398.111268 
L 384.813005 526.426392 
L 385.032558 461.040659 
L 385.252111 507.603406 
L 385.471664 488.051531 
L 385.691217 484.13232 
L 385.91077 435.739954 
L 386.130324 521.53083 
L 386.56943 319.917992 
L 386.788983 425.12831 
L 387.008536 433.266608 
L 387.228089 369.613969 
L 387.447642 462.043313 
L 387.886749 457.806962 
L 388.106302 465.816157 
L 388.325855 522.226585 
L 388.545408 473.973742 
L 388.764961 461.928402 
L 388.984515 502.756038 
L 389.204068 497.236021 
L 389.423621 462.300399 
L 389.643174 359.100396 
L 390.08228 525.017897 
L 390.301833 539.021917 
L 390.521387 530.208777 
L 390.74094 501.73549 
L 390.960493 542.625462 
L 391.180046 500.721914 
L 391.399599 388.935045 
L 391.619152 356.459755 
L 391.838706 435.327563 
L 392.058259 405.003158 
L 392.277812 412.440915 
L 392.497365 393.795375 
L 392.716918 508.235197 
L 392.936471 488.334466 
L 393.156024 519.170509 
L 393.375578 575.718666 
L 393.814684 379.408345 
L 394.034237 536.154263 
L 394.25379 514.899507 
L 394.473343 517.324368 
L 394.692897 508.584763 
L 394.91245 391.338053 
L 395.132003 462.493476 
L 395.351556 473.313519 
L 395.571109 550.235692 
L 395.790662 457.836912 
L 396.010215 531.357405 
L 396.229769 357.118094 
L 396.449322 457.051132 
L 396.668875 206.12998 
L 396.888428 525.155022 
L 397.107981 552.031217 
L 397.327534 549.026277 
L 397.986194 377.251954 
L 398.205747 524.740004 
L 398.4253 502.250747 
L 398.644853 468.359413 
L 398.864406 523.283461 
L 399.08396 328.087357 
L 399.303513 412.663964 
L 399.523066 553.233777 
L 399.742619 345.363736 
L 399.962172 548.754475 
L 400.181725 491.116468 
L 400.401278 502.772026 
L 400.620832 475.184204 
L 400.840385 473.37592 
L 401.059938 522.876116 
L 401.279491 183.701019 
L 401.499044 513.071013 
L 401.718597 375.189398 
L 401.938151 386.795135 
L 402.377257 550.667423 
L 402.59681 454.496006 
L 402.816363 445.281565 
L 403.035916 492.844324 
L 403.255469 501.431717 
L 403.475023 416.487709 
L 403.694576 483.763199 
L 403.914129 360.793553 
L 404.133682 507.368506 
L 404.353235 405.193614 
L 404.572788 403.676302 
L 404.792342 523.010083 
L 405.011895 278.926143 
L 405.231448 495.027033 
L 405.451001 489.215076 
L 405.670554 229.079747 
L 405.890107 485.01257 
L 406.329214 389.655417 
L 406.548767 377.739115 
L 406.76832 531.624902 
L 406.987873 426.139061 
L 407.207426 504.63232 
L 407.426979 449.671896 
L 407.646533 539.215294 
L 407.866086 486.49305 
L 408.085639 513.454435 
L 408.305192 380.225213 
L 408.524745 506.331393 
L 408.744298 454.212329 
L 408.963851 529.006985 
L 409.183405 418.210797 
L 409.622511 525.067469 
L 409.842064 515.958823 
L 410.061617 518.161966 
L 410.28117 562.641444 
L 410.500724 519.092443 
L 410.720277 339.222663 
L 411.159383 537.723204 
L 411.378936 521.513952 
L 411.598489 557.04073 
L 411.818042 480.620139 
L 412.037596 501.096862 
L 412.257149 434.000715 
L 412.476702 526.117131 
L 412.696255 510.244807 
L 412.915808 397.998648 
L 413.135361 529.589564 
L 413.354915 482.189597 
L 413.574468 370.277204 
L 413.794021 531.280557 
L 414.013574 545.817603 
L 414.45268 379.476977 
L 414.672233 520.938057 
L 414.891787 508.255414 
L 415.11134 515.355558 
L 415.330893 497.133035 
L 415.769999 432.661075 
L 415.989552 522.197816 
L 416.209106 463.504504 
L 416.428659 499.167355 
L 416.648212 435.309772 
L 416.867765 263.797423 
L 417.087318 461.607304 
L 417.306871 463.658393 
L 417.745978 528.017033 
L 417.965531 248.909543 
L 418.185084 518.037251 
L 418.404637 340.908881 
L 418.62419 476.126001 
L 418.843743 514.034545 
L 419.063297 370.122797 
L 419.502403 476.513484 
L 419.721956 489.553706 
L 419.941509 485.133065 
L 420.161062 282.711086 
L 420.380615 540.574871 
L 420.819722 465.043688 
L 421.039275 396.67641 
L 421.258828 394.099024 
L 421.697934 453.15156 
L 421.917488 492.485447 
L 422.137041 356.476559 
L 422.356594 519.817838 
L 422.576147 504.022076 
L 422.7957 403.153856 
L 423.015253 517.214358 
L 423.234806 479.087181 
L 423.45436 487.145962 
L 423.673913 424.704794 
L 423.893466 524.007959 
L 424.113019 440.224104 
L 424.332572 496.653008 
L 424.552125 418.842503 
L 424.771678 407.738395 
L 424.991232 526.909876 
L 425.210785 503.352584 
L 425.430338 457.273292 
L 425.649891 477.243393 
L 425.869444 547.713357 
L 426.088997 258.499235 
L 426.308551 480.79317 
L 426.528104 505.09708 
L 426.747657 497.152408 
L 426.96721 322.33301 
L 427.406316 486.846538 
L 427.625869 447.483048 
L 427.845423 544.850229 
L 428.284529 439.963068 
L 428.504082 463.204632 
L 428.723635 398.315283 
L 428.943188 500.947939 
L 429.162742 365.068852 
L 429.382295 358.115625 
L 429.601848 400.982311 
L 429.821401 489.754358 
L 430.040954 455.955332 
L 430.260507 470.885766 
L 430.48006 494.096185 
L 430.699614 463.524905 
L 430.919167 475.537382 
L 431.13872 504.497669 
L 431.358273 480.687045 
L 431.577826 503.13018 
L 431.797379 283.379805 
L 432.016933 488.033263 
L 432.236486 480.026066 
L 432.456039 465.821762 
L 432.675592 542.503392 
L 432.895145 367.364244 
L 433.114698 551.578034 
L 433.334251 425.629002 
L 433.553805 482.369918 
L 433.773358 458.818483 
L 433.992911 495.656106 
L 434.212464 489.600778 
L 434.432017 549.335446 
L 434.65157 501.465303 
L 434.871124 501.513453 
L 435.090677 513.774955 
L 435.529783 391.202299 
L 435.749336 530.900677 
L 435.968889 390.103246 
L 436.188442 456.944845 
L 436.407996 308.764767 
L 436.627549 539.047665 
L 436.847102 378.615435 
L 437.066655 453.500807 
L 437.286208 340.108542 
L 437.505761 301.224993 
L 437.725315 499.749738 
L 437.944868 485.041329 
L 438.164421 449.122301 
L 438.383974 495.105764 
L 438.603527 442.817694 
L 438.82308 470.327459 
L 439.042633 548.751214 
L 439.262187 471.864383 
L 439.48174 482.715003 
L 439.701293 463.275235 
L 439.920846 463.119933 
L 440.140399 422.814062 
L 440.359952 437.776369 
L 440.579506 495.521275 
L 440.799059 518.328565 
L 441.018612 476.939756 
L 441.238165 550.49187 
L 441.457718 455.428465 
L 441.677271 478.751033 
L 442.116378 424.914867 
L 442.335931 506.95088 
L 442.555484 454.046212 
L 442.775037 487.990967 
L 442.99459 501.354432 
L 443.214143 463.601735 
L 443.433697 530.414056 
L 443.65325 360.367105 
L 443.872803 462.815822 
L 444.311909 524.253765 
L 444.531462 447.108829 
L 444.751015 453.761419 
L 444.970569 441.079919 
L 445.190122 458.369273 
L 445.409675 401.60208 
L 445.629228 429.688343 
L 445.848781 328.094262 
L 446.068334 458.860382 
L 446.287888 462.363187 
L 446.507441 348.546108 
L 446.726994 489.762279 
L 446.946547 520.559286 
L 447.1661 446.570695 
L 447.385653 419.318928 
L 447.605206 477.448486 
L 448.044313 439.613763 
L 448.263866 497.350222 
L 448.483419 516.218551 
L 448.702972 477.207506 
L 448.922525 510.929684 
L 449.142079 443.776481 
L 449.361632 506.933925 
L 449.581185 521.970712 
L 449.800738 462.414844 
L 450.020291 485.937396 
L 450.239844 497.294596 
L 450.459397 538.000164 
L 450.678951 489.607197 
L 450.898504 294.636587 
L 451.118057 478.619019 
L 451.33761 401.090262 
L 451.557163 408.069995 
L 451.776716 347.222291 
L 452.215823 539.66567 
L 452.435376 400.022314 
L 452.654929 385.685415 
L 452.874482 528.794011 
L 453.094035 336.072987 
L 453.533142 479.673194 
L 453.752695 460.137988 
L 453.972248 510.580574 
L 454.191801 475.115841 
L 454.411354 470.71369 
L 454.630907 509.36631 
L 454.85046 431.82874 
L 455.289567 493.110425 
L 455.50912 388.911916 
L 455.728673 497.247386 
L 455.948226 379.783558 
L 456.167779 526.282677 
L 456.387333 471.533434 
L 456.606886 471.287278 
L 456.826439 480.436204 
L 457.045992 544.821227 
L 457.265545 537.585968 
L 457.485098 326.031989 
L 457.704651 523.342111 
L 457.924205 425.331933 
L 458.143758 522.569924 
L 458.363311 498.497922 
L 458.582864 442.675383 
L 458.802417 492.235041 
L 459.02197 467.902013 
L 459.241524 532.781164 
L 459.461077 494.850716 
L 459.68063 513.114492 
L 459.900183 426.973795 
L 460.339289 559.20326 
L 460.997949 472.872853 
L 461.217502 407.901424 
L 461.437055 518.052817 
L 461.656608 538.013088 
L 461.876161 382.891082 
L 462.095715 501.636425 
L 462.315268 449.402109 
L 462.534821 446.429024 
L 462.754374 473.200413 
L 462.973927 381.292172 
L 463.19348 508.332235 
L 463.413033 519.592741 
L 463.632587 516.092621 
L 463.85214 436.972998 
L 464.071693 433.196815 
L 464.291246 530.065924 
L 464.510799 462.109905 
L 464.730352 469.460057 
L 464.949906 487.679418 
L 465.169459 472.05855 
L 465.389012 579.398682 
L 465.608565 454.104058 
L 465.828118 556.701858 
L 466.267224 437.467687 
L 466.486778 462.125417 
L 466.706331 459.100857 
L 466.925884 422.801441 
L 467.145437 414.062079 
L 467.36499 291.986335 
L 467.584543 518.472952 
L 468.02365 449.341546 
L 468.243203 430.469421 
L 468.462756 503.833275 
L 468.682309 343.469163 
L 468.901862 271.952141 
L 469.121415 492.524524 
L 469.340969 463.662503 
L 469.560522 375.497466 
L 469.780075 476.374541 
L 469.999628 508.518729 
L 470.219181 470.725693 
L 470.438734 536.064431 
L 470.877841 461.157778 
L 471.097394 508.852215 
L 471.5365 547.129601 
L 471.756053 442.790338 
L 471.975606 534.787823 
L 472.19516 535.035726 
L 472.414713 443.072767 
L 472.634266 557.144143 
L 472.853819 380.75947 
L 473.292925 503.829719 
L 473.512479 496.999668 
L 473.732032 495.410021 
L 473.951585 541.845647 
L 474.171138 399.637346 
L 474.390691 568.424254 
L 474.610244 369.704341 
L 474.829797 399.596304 
L 475.049351 455.523776 
L 475.268904 448.616048 
L 475.70801 463.201136 
L 475.927563 409.190997 
L 476.147116 429.12935 
L 476.366669 429.753561 
L 476.586223 481.021986 
L 476.805776 500.306102 
L 477.025329 508.58066 
L 477.244882 512.122954 
L 477.464435 528.831836 
L 477.903542 516.372301 
L 478.123095 414.457674 
L 478.342648 536.944743 
L 478.562201 353.998204 
L 478.781754 402.737346 
L 479.001307 493.942733 
L 479.22086 531.275284 
L 479.440414 393.792214 
L 479.659967 422.190689 
L 479.87952 524.695359 
L 480.099073 493.916425 
L 480.318626 521.89297 
L 480.538179 440.932359 
L 480.757733 401.193195 
L 481.196839 518.640032 
L 481.416392 498.818265 
L 481.635945 453.952338 
L 481.855498 455.204348 
L 482.075051 482.800434 
L 482.294605 494.742772 
L 482.514158 534.964687 
L 482.733711 349.913246 
L 482.953264 504.988683 
L 483.39237 455.032465 
L 483.611924 368.12752 
L 483.831477 399.895516 
L 484.05103 470.92738 
L 484.490136 393.004271 
L 484.929242 545.030052 
L 485.148796 387.788659 
L 485.368349 480.023599 
L 485.807455 411.269179 
L 486.027008 507.64528 
L 486.246561 484.656308 
L 486.466115 484.923296 
L 486.685668 495.66628 
L 486.905221 468.749422 
L 487.124774 402.532478 
L 487.344327 496.819182 
L 487.56388 446.942851 
L 487.783433 455.091361 
L 488.002987 555.937007 
L 488.22254 389.824858 
L 488.442093 448.764786 
L 488.661646 400.91457 
L 489.100752 483.800116 
L 489.320306 313.730428 
L 489.539859 336.448344 
L 489.978965 513.419893 
L 490.198518 302.642174 
L 490.418071 436.279168 
L 490.637624 373.874738 
L 490.857178 508.684822 
L 491.076731 465.058753 
L 491.296284 519.147479 
L 491.954943 353.247001 
L 492.174497 468.450205 
L 492.39405 430.965617 
L 492.613603 338.225602 
L 492.833156 397.485162 
L 493.272262 435.780624 
L 493.491815 429.409679 
L 493.711369 320.020195 
L 493.930922 334.807278 
L 494.150475 515.72605 
L 494.370028 526.698284 
L 494.589581 432.167842 
L 494.809134 462.572819 
L 495.028688 509.449566 
L 495.248241 388.930957 
L 495.467794 489.749191 
L 495.687347 515.924045 
L 495.9069 506.982871 
L 496.126453 355.151834 
L 496.346006 505.399646 
L 496.56556 487.734386 
L 496.785113 483.399389 
L 497.224219 456.045694 
L 497.443772 500.982105 
L 497.663325 292.141319 
L 497.882879 519.324169 
L 498.102432 514.378909 
L 498.321985 486.435234 
L 498.541538 430.140703 
L 498.761091 459.420518 
L 498.980644 459.415158 
L 499.200197 518.896486 
L 499.419751 465.745907 
L 499.639304 532.307826 
L 500.07841 447.821558 
L 500.297963 525.323069 
L 500.73707 385.591115 
L 500.956623 425.306138 
L 501.176176 526.130071 
L 501.395729 316.871696 
L 501.615282 484.393115 
L 501.834835 435.258622 
L 502.054388 245.657773 
L 502.273942 455.666907 
L 502.493495 360.003003 
L 502.713048 529.120311 
L 503.152154 471.92641 
L 503.371707 399.382474 
L 503.59126 442.525391 
L 503.810814 552.337632 
L 504.030367 443.459734 
L 504.469473 529.501041 
L 504.689026 455.111808 
L 504.908579 508.810575 
L 505.128133 349.168341 
L 505.347686 385.050309 
L 506.006345 564.920329 
L 506.225898 418.87638 
L 506.445451 540.135626 
L 506.665005 500.796273 
L 506.884558 398.322934 
L 507.104111 433.029421 
L 507.323664 444.816172 
L 507.543217 493.291515 
L 507.76277 566.812244 
L 507.982324 368.123198 
L 508.201877 417.515819 
L 508.42143 550.114652 
L 508.640983 466.139154 
L 508.860536 431.498014 
L 509.080089 537.733526 
L 509.299642 528.277083 
L 509.519196 484.140516 
L 509.738749 371.713419 
L 509.958302 482.921928 
L 510.397408 469.253132 
L 510.616961 417.578138 
L 510.836515 557.173945 
L 511.056068 493.411459 
L 511.275621 493.257368 
L 511.495174 407.771323 
L 511.714727 512.356144 
L 511.93428 512.82208 
L 512.153833 523.41264 
L 512.373387 425.596459 
L 512.59294 447.380862 
L 512.812493 369.079354 
L 513.032046 490.400965 
L 513.251599 544.774164 
L 513.471152 388.789329 
L 513.690706 524.966889 
L 513.910259 518.86512 
L 514.129812 439.130154 
L 514.349365 405.243366 
L 514.568918 531.331724 
L 514.788471 421.933041 
L 515.008024 517.461824 
L 515.227578 345.072693 
L 515.447131 458.569854 
L 515.666684 485.778693 
L 515.886237 379.752605 
L 516.10579 468.644539 
L 516.325343 486.607976 
L 516.544897 450.579728 
L 516.76445 442.904729 
L 516.984003 423.415645 
L 517.203556 484.325811 
L 517.642662 428.835039 
L 517.862215 285.034468 
L 518.081769 479.165162 
L 518.301322 484.323495 
L 518.520875 512.112311 
L 518.740428 334.44157 
L 519.179534 555.742598 
L 519.399088 467.804591 
L 519.618641 445.820167 
L 519.838194 411.689433 
L 520.057747 322.352795 
L 520.2773 293.329839 
L 520.716406 536.250855 
L 520.93596 530.156659 
L 521.155513 403.793602 
L 521.375066 496.219009 
L 521.594619 525.705285 
L 522.253279 403.33768 
L 522.472832 473.019479 
L 522.692385 445.682567 
L 522.911938 533.632298 
L 523.131491 439.468347 
L 523.351044 425.503566 
L 523.570597 534.420829 
L 523.790151 352.236691 
L 524.009704 488.720551 
L 524.229257 425.604946 
L 524.44881 417.329092 
L 524.668363 448.457391 
L 524.887916 301.722791 
L 525.10747 415.16906 
L 525.327023 409.943081 
L 525.546576 415.360512 
L 525.766129 500.26777 
L 526.205235 396.304793 
L 526.424788 521.244082 
L 526.863895 450.476105 
L 527.083448 424.589803 
L 527.303001 462.255137 
L 527.522554 560.029611 
L 527.742107 488.634842 
L 528.181214 542.287913 
L 528.400767 503.758683 
L 528.62032 335.951662 
L 529.059426 520.168397 
L 529.278979 500.042767 
L 529.498533 510.284108 
L 529.718086 528.673795 
L 529.937639 477.32126 
L 530.376745 474.061408 
L 530.596298 487.312878 
L 530.815851 459.576918 
L 531.035405 372.023606 
L 531.254958 508.139861 
L 531.474511 404.222829 
L 531.694064 546.266066 
L 531.913617 389.019501 
L 532.13317 425.834437 
L 532.352724 424.61954 
L 532.572277 464.958103 
L 532.79183 460.079949 
L 533.011383 437.13011 
L 533.230936 362.191333 
L 533.450489 456.62587 
L 533.670042 477.566038 
L 533.889596 515.382213 
L 534.109149 514.353687 
L 534.328702 519.124846 
L 534.548255 506.642386 
L 534.767808 416.279021 
L 534.987361 514.913917 
L 535.646021 314.236767 
L 535.865574 462.751406 
L 536.085127 494.338403 
L 536.30468 398.607144 
L 536.524233 522.144372 
L 536.743787 461.754459 
L 536.96334 453.707039 
L 537.182893 236.742621 
L 537.402446 425.889622 
L 537.621999 470.053844 
L 538.061106 372.743212 
L 538.280659 431.58615 
L 538.500212 435.733248 
L 538.719765 480.62617 
L 538.939318 424.673769 
L 539.158871 397.484076 
L 539.378424 254.58142 
L 539.597978 558.737974 
L 539.817531 518.373932 
L 540.037084 518.535833 
L 540.256637 440.072567 
L 540.47619 475.080358 
L 540.695743 422.642324 
L 540.915297 463.444846 
L 541.13485 445.294867 
L 541.354403 514.22427 
L 541.573956 372.499287 
L 541.793509 353.922886 
L 542.013062 552.902537 
L 542.232615 498.673686 
L 542.452169 478.990355 
L 542.671722 472.344212 
L 543.110828 420.68699 
L 543.330381 425.46014 
L 543.549934 491.323823 
L 543.769488 509.54472 
L 543.989041 453.084204 
L 544.208594 456.44321 
L 544.428147 416.367345 
L 544.6477 494.790172 
L 544.867253 425.588403 
L 545.086806 451.410233 
L 545.30636 533.153716 
L 545.525913 564.109263 
L 545.745466 412.990942 
L 545.745466 412.990942 
" style="fill:none;stroke:#96c69a;stroke-linecap:round;stroke-width:3;"/>
   </g>
   <g id="line2d_2"/>
   <g id="patch_3">
    <path d="M 84.914375 603.86 
L 84.914375 109.484571 
" style="fill:none;stroke:#262626;stroke-linecap:square;stroke-linejoin:miter;stroke-width:2.5;"/>
   </g>
   <g id="patch_4">
    <path d="M 84.914375 603.86 
L 567.689804 603.86 
" style="fill:none;stroke:#262626;stroke-linecap:square;stroke-linejoin:miter;stroke-width:2.5;"/>
   </g>
   <g id="legend_1">
    <g id="patch_5">
     <path d="M 514.774179 598.86 
L 560.689804 598.86 
Q 562.689804 598.86 562.689804 596.86 
L 562.689804 554.954375 
Q 562.689804 552.954375 560.689804 552.954375 
L 514.774179 552.954375 
Q 512.774179 552.954375 512.774179 554.954375 
L 512.774179 596.86 
Q 512.774179 598.86 514.774179 598.86 
z
" style="fill:#ffffff;opacity:0.8;stroke:#cccccc;stroke-linejoin:miter;stroke-width:2;"/>
    </g>
    <g id="text_13">
     <!-- $n_\tau$ -->
     <g style="fill:#262626;" transform="translate(524.651991 575.190625)scale(0.24 -0.24)">
      <defs>
       <path d="M 3566 2113 
L 3156 0 
L 2578 0 
L 2988 2091 
Q 3016 2238 3031 2350 
Q 3047 2463 3047 2528 
Q 3047 2791 2881 2937 
Q 2716 3084 2419 3084 
Q 1956 3084 1622 2776 
Q 1288 2469 1184 1941 
L 800 0 
L 225 0 
L 903 3500 
L 1478 3500 
L 1363 2950 
Q 1603 3253 1940 3418 
Q 2278 3584 2650 3584 
Q 3113 3584 3367 3334 
Q 3622 3084 3622 2631 
Q 3622 2519 3608 2391 
Q 3594 2263 3566 2113 
z
" id="DejaVuSans-Oblique-6e" transform="scale(0.015625)"/>
       <path d="M 2103 638 
Q 2188 488 2525 488 
L 2800 488 
L 2706 0 
L 2363 0 
Q 1800 0 1600 300 
Q 1403 606 1534 1269 
L 1856 2925 
L 541 2925 
L 653 3500 
L 3881 3500 
L 3769 2925 
L 2444 2925 
L 2113 1234 
Q 2025 781 2103 638 
z
" id="DejaVuSans-Oblique-3c4" transform="scale(0.015625)"/>
      </defs>
      <use xlink:href="#DejaVuSans-Oblique-6e"/>
      <use transform="translate(63.378906 -16.40625)scale(0.7)" xlink:href="#DejaVuSans-Oblique-3c4"/>
     </g>
    </g>
    <g id="line2d_3">
     <path d="M 516.774179 589.280313 
L 536.774179 589.280313 
" style="fill:none;stroke:#96c69a;stroke-linecap:round;stroke-width:3;"/>
    </g>
    <g id="line2d_4"/>
    <g id="text_14">
     <!-- 50 -->
     <g style="fill:#262626;" transform="translate(544.774179 592.780313)scale(0.1 -0.1)">
      <defs>
       <path d="M 678 4666 
L 3669 4666 
L 3669 3781 
L 1638 3781 
L 1638 3059 
Q 1775 3097 1914 3117 
Q 2053 3138 2203 3138 
Q 3056 3138 3531 2711 
Q 4006 2284 4006 1522 
Q 4006 766 3489 337 
Q 2972 -91 2053 -91 
Q 1656 -91 1267 -14 
Q 878 63 494 219 
L 494 1166 
Q 875 947 1217 837 
Q 1559 728 1863 728 
Q 2300 728 2551 942 
Q 2803 1156 2803 1522 
Q 2803 1891 2551 2103 
Q 2300 2316 1863 2316 
Q 1603 2316 1309 2248 
Q 1016 2181 678 2041 
L 678 4666 
z
" id="DejaVuSans-Bold-35" transform="scale(0.015625)"/>
       <path d="M 2944 2338 
Q 2944 3213 2780 3570 
Q 2616 3928 2228 3928 
Q 1841 3928 1675 3570 
Q 1509 3213 1509 2338 
Q 1509 1453 1675 1090 
Q 1841 728 2228 728 
Q 2613 728 2778 1090 
Q 2944 1453 2944 2338 
z
M 4147 2328 
Q 4147 1169 3647 539 
Q 3147 -91 2228 -91 
Q 1306 -91 806 539 
Q 306 1169 306 2328 
Q 306 3491 806 4120 
Q 1306 4750 2228 4750 
Q 3147 4750 3647 4120 
Q 4147 3491 4147 2328 
z
" id="DejaVuSans-Bold-30" transform="scale(0.015625)"/>
      </defs>
      <use xlink:href="#DejaVuSans-Bold-35"/>
      <use x="69.580078" xlink:href="#DejaVuSans-Bold-30"/>
     </g>
    </g>
   </g>
  </g>
  <g id="axes_2">
   <g id="patch_6">
    <path d="M 84.914375 92.437143 
L 567.689804 92.437143 
L 567.689804 7.2 
L 84.914375 7.2 
z
" style="fill:none;"/>
   </g>
   <g id="matplotlib.axis_3">
    <g id="xtick_7"/>
    <g id="xtick_8"/>
    <g id="xtick_9"/>
    <g id="xtick_10"/>
    <g id="xtick_11"/>
    <g id="xtick_12"/>
   </g>
   <g id="matplotlib.axis_4">
    <g id="ytick_5">
     <g id="text_15">
      <!-- 0 -->
      <g style="fill:#262626;" transform="translate(55.416875 100.795424)scale(0.22 -0.22)">
       <use xlink:href="#DejaVuSans-30"/>
      </g>
     </g>
    </g>
    <g id="ytick_6">
     <g id="text_16">
      <!-- 100 -->
      <g style="fill:#262626;" transform="translate(27.421875 48.082287)scale(0.22 -0.22)">
       <use xlink:href="#DejaVuSans-31"/>
       <use x="63.623047" xlink:href="#DejaVuSans-30"/>
       <use x="127.246094" xlink:href="#DejaVuSans-30"/>
      </g>
     </g>
    </g>
   </g>
   <g id="patch_7">
    <path clip-path="url(#pff31e8f0a7)" d="M 106.858713 92.437143 
L 140.619232 92.437143 
L 140.619232 11.258912 
L 106.858713 11.258912 
z
" style="fill:#96c69a;fill-opacity:0.5;stroke:#ffffff;stroke-linejoin:miter;stroke-width:2;"/>
   </g>
   <g id="patch_8">
    <path clip-path="url(#pff31e8f0a7)" d="M 140.619232 92.437143 
L 174.379752 92.437143 
L 174.379752 11.258912 
L 140.619232 11.258912 
z
" style="fill:#96c69a;fill-opacity:0.5;stroke:#ffffff;stroke-linejoin:miter;stroke-width:2;"/>
   </g>
   <g id="patch_9">
    <path clip-path="url(#pff31e8f0a7)" d="M 174.379752 92.437143 
L 208.140271 92.437143 
L 208.140271 11.258912 
L 174.379752 11.258912 
z
" style="fill:#96c69a;fill-opacity:0.5;stroke:#ffffff;stroke-linejoin:miter;stroke-width:2;"/>
   </g>
   <g id="patch_10">
    <path clip-path="url(#pff31e8f0a7)" d="M 208.140271 92.437143 
L 241.900791 92.437143 
L 241.900791 11.258912 
L 208.140271 11.258912 
z
" style="fill:#96c69a;fill-opacity:0.5;stroke:#ffffff;stroke-linejoin:miter;stroke-width:2;"/>
   </g>
   <g id="patch_11">
    <path clip-path="url(#pff31e8f0a7)" d="M 241.900791 92.437143 
L 275.66131 92.437143 
L 275.66131 11.786043 
L 241.900791 11.786043 
z
" style="fill:#96c69a;fill-opacity:0.5;stroke:#ffffff;stroke-linejoin:miter;stroke-width:2;"/>
   </g>
   <g id="patch_12">
    <path clip-path="url(#pff31e8f0a7)" d="M 275.66131 92.437143 
L 309.42183 92.437143 
L 309.42183 11.258912 
L 275.66131 11.258912 
z
" style="fill:#96c69a;fill-opacity:0.5;stroke:#ffffff;stroke-linejoin:miter;stroke-width:2;"/>
   </g>
   <g id="patch_13">
    <path clip-path="url(#pff31e8f0a7)" d="M 309.42183 92.437143 
L 343.182349 92.437143 
L 343.182349 11.258912 
L 309.42183 11.258912 
z
" style="fill:#96c69a;fill-opacity:0.5;stroke:#ffffff;stroke-linejoin:miter;stroke-width:2;"/>
   </g>
   <g id="patch_14">
    <path clip-path="url(#pff31e8f0a7)" d="M 343.182349 92.437143 
L 376.942869 92.437143 
L 376.942869 11.258912 
L 343.182349 11.258912 
z
" style="fill:#96c69a;fill-opacity:0.5;stroke:#ffffff;stroke-linejoin:miter;stroke-width:2;"/>
   </g>
   <g id="patch_15">
    <path clip-path="url(#pff31e8f0a7)" d="M 376.942869 92.437143 
L 410.703388 92.437143 
L 410.703388 11.786043 
L 376.942869 11.786043 
z
" style="fill:#96c69a;fill-opacity:0.5;stroke:#ffffff;stroke-linejoin:miter;stroke-width:2;"/>
   </g>
   <g id="patch_16">
    <path clip-path="url(#pff31e8f0a7)" d="M 410.703388 92.437143 
L 444.463907 92.437143 
L 444.463907 11.258912 
L 410.703388 11.258912 
z
" style="fill:#96c69a;fill-opacity:0.5;stroke:#ffffff;stroke-linejoin:miter;stroke-width:2;"/>
   </g>
   <g id="patch_17">
    <path clip-path="url(#pff31e8f0a7)" d="M 444.463907 92.437143 
L 478.224427 92.437143 
L 478.224427 11.258912 
L 444.463907 11.258912 
z
" style="fill:#96c69a;fill-opacity:0.5;stroke:#ffffff;stroke-linejoin:miter;stroke-width:2;"/>
   </g>
   <g id="patch_18">
    <path clip-path="url(#pff31e8f0a7)" d="M 478.224427 92.437143 
L 511.984946 92.437143 
L 511.984946 11.258912 
L 478.224427 11.258912 
z
" style="fill:#96c69a;fill-opacity:0.5;stroke:#ffffff;stroke-linejoin:miter;stroke-width:2;"/>
   </g>
   <g id="patch_19">
    <path clip-path="url(#pff31e8f0a7)" d="M 511.984946 92.437143 
L 545.745466 92.437143 
L 545.745466 11.258912 
L 511.984946 11.258912 
z
" style="fill:#96c69a;fill-opacity:0.5;stroke:#ffffff;stroke-linejoin:miter;stroke-width:2;"/>
   </g>
   <g id="patch_20">
    <path d="M 84.914375 92.437143 
L 84.914375 7.2 
" style="fill:none;stroke:#262626;stroke-linecap:square;stroke-linejoin:miter;stroke-width:2.5;"/>
   </g>
   <g id="patch_21">
    <path d="M 84.914375 92.437143 
L 567.689804 92.437143 
" style="fill:none;stroke:#262626;stroke-linecap:square;stroke-linejoin:miter;stroke-width:2.5;"/>
   </g>
  </g>
  <g id="axes_3">
   <g id="patch_22">
    <path d="M 584.337232 603.86 
L 667.574375 603.86 
L 667.574375 109.484571 
L 584.337232 109.484571 
z
" style="fill:none;"/>
   </g>
   <g id="matplotlib.axis_5">
    <g id="xtick_13">
     <g id="text_17">
      <!-- 0 -->
      <g style="fill:#262626;" transform="translate(577.338482 636.076563)scale(0.22 -0.22)">
       <use xlink:href="#DejaVuSans-30"/>
      </g>
     </g>
    </g>
    <g id="xtick_14">
     <g id="text_18">
      <!-- 200 -->
      <g style="fill:#262626;" transform="translate(646.349851 636.076563)scale(0.22 -0.22)">
       <use xlink:href="#DejaVuSans-32"/>
       <use x="63.623047" xlink:href="#DejaVuSans-30"/>
       <use x="127.246094" xlink:href="#DejaVuSans-30"/>
      </g>
     </g>
    </g>
   </g>
   <g id="matplotlib.axis_6">
    <g id="ytick_7"/>
    <g id="ytick_8"/>
    <g id="ytick_9"/>
    <g id="ytick_10"/>
   </g>
   <g id="patch_23">
    <path clip-path="url(#p6726d8ced4)" d="M 584.337232 581.38839 
L 589.732809 581.38839 
L 589.732809 568.547469 
L 584.337232 568.547469 
z
" style="fill:#96c69a;fill-opacity:0.5;stroke:#ffffff;stroke-linejoin:miter;stroke-width:1.284092;"/>
   </g>
   <g id="patch_24">
    <path clip-path="url(#p6726d8ced4)" d="M 584.337232 568.547469 
L 598.033695 568.547469 
L 598.033695 555.706549 
L 584.337232 555.706549 
z
" style="fill:#96c69a;fill-opacity:0.5;stroke:#ffffff;stroke-linejoin:miter;stroke-width:1.284092;"/>
   </g>
   <g id="patch_25">
    <path clip-path="url(#p6726d8ced4)" d="M 584.337232 555.706549 
L 607.99476 555.706549 
L 607.99476 542.865629 
L 584.337232 542.865629 
z
" style="fill:#96c69a;fill-opacity:0.5;stroke:#ffffff;stroke-linejoin:miter;stroke-width:1.284092;"/>
   </g>
   <g id="patch_26">
    <path clip-path="url(#p6726d8ced4)" d="M 584.337232 542.865629 
L 623.766445 542.865629 
L 623.766445 530.024709 
L 584.337232 530.024709 
z
" style="fill:#96c69a;fill-opacity:0.5;stroke:#ffffff;stroke-linejoin:miter;stroke-width:1.284092;"/>
   </g>
   <g id="patch_27">
    <path clip-path="url(#p6726d8ced4)" d="M 584.337232 530.024709 
L 653.234593 530.024709 
L 653.234593 517.183788 
L 584.337232 517.183788 
z
" style="fill:#96c69a;fill-opacity:0.5;stroke:#ffffff;stroke-linejoin:miter;stroke-width:1.284092;"/>
   </g>
   <g id="patch_28">
    <path clip-path="url(#p6726d8ced4)" d="M 584.337232 517.183788 
L 649.499194 517.183788 
L 649.499194 504.342868 
L 584.337232 504.342868 
z
" style="fill:#96c69a;fill-opacity:0.5;stroke:#ffffff;stroke-linejoin:miter;stroke-width:1.284092;"/>
   </g>
   <g id="patch_29">
    <path clip-path="url(#p6726d8ced4)" d="M 584.337232 504.342868 
L 656.969992 504.342868 
L 656.969992 491.501948 
L 584.337232 491.501948 
z
" style="fill:#96c69a;fill-opacity:0.5;stroke:#ffffff;stroke-linejoin:miter;stroke-width:1.284092;"/>
   </g>
   <g id="patch_30">
    <path clip-path="url(#p6726d8ced4)" d="M 584.337232 491.501948 
L 661.120435 491.501948 
L 661.120435 478.661028 
L 584.337232 478.661028 
z
" style="fill:#96c69a;fill-opacity:0.5;stroke:#ffffff;stroke-linejoin:miter;stroke-width:1.284092;"/>
   </g>
   <g id="patch_31">
    <path clip-path="url(#p6726d8ced4)" d="M 584.337232 478.661028 
L 656.969992 478.661028 
L 656.969992 465.820108 
L 584.337232 465.820108 
z
" style="fill:#96c69a;fill-opacity:0.5;stroke:#ffffff;stroke-linejoin:miter;stroke-width:1.284092;"/>
   </g>
   <g id="patch_32">
    <path clip-path="url(#p6726d8ced4)" d="M 584.337232 465.820108 
L 663.610702 465.820108 
L 663.610702 452.979187 
L 584.337232 452.979187 
z
" style="fill:#96c69a;fill-opacity:0.5;stroke:#ffffff;stroke-linejoin:miter;stroke-width:1.284092;"/>
   </g>
   <g id="patch_33">
    <path clip-path="url(#p6726d8ced4)" d="M 584.337232 452.979187 
L 633.312465 452.979187 
L 633.312465 440.138267 
L 584.337232 440.138267 
z
" style="fill:#96c69a;fill-opacity:0.5;stroke:#ffffff;stroke-linejoin:miter;stroke-width:1.284092;"/>
   </g>
   <g id="patch_34">
    <path clip-path="url(#p6726d8ced4)" d="M 584.337232 440.138267 
L 627.916888 440.138267 
L 627.916888 427.297347 
L 584.337232 427.297347 
z
" style="fill:#96c69a;fill-opacity:0.5;stroke:#ffffff;stroke-linejoin:miter;stroke-width:1.284092;"/>
   </g>
   <g id="patch_35">
    <path clip-path="url(#p6726d8ced4)" d="M 584.337232 427.297347 
L 628.331932 427.297347 
L 628.331932 414.456427 
L 584.337232 414.456427 
z
" style="fill:#96c69a;fill-opacity:0.5;stroke:#ffffff;stroke-linejoin:miter;stroke-width:1.284092;"/>
   </g>
   <g id="patch_36">
    <path clip-path="url(#p6726d8ced4)" d="M 584.337232 414.456427 
L 612.975292 414.456427 
L 612.975292 401.615506 
L 584.337232 401.615506 
z
" style="fill:#96c69a;fill-opacity:0.5;stroke:#ffffff;stroke-linejoin:miter;stroke-width:1.284092;"/>
   </g>
   <g id="patch_37">
    <path clip-path="url(#p6726d8ced4)" d="M 584.337232 401.615506 
L 617.955824 401.615506 
L 617.955824 388.774586 
L 584.337232 388.774586 
z
" style="fill:#96c69a;fill-opacity:0.5;stroke:#ffffff;stroke-linejoin:miter;stroke-width:1.284092;"/>
   </g>
   <g id="patch_38">
    <path clip-path="url(#p6726d8ced4)" d="M 584.337232 388.774586 
L 605.504494 388.774586 
L 605.504494 375.933666 
L 584.337232 375.933666 
z
" style="fill:#96c69a;fill-opacity:0.5;stroke:#ffffff;stroke-linejoin:miter;stroke-width:1.284092;"/>
   </g>
   <g id="patch_39">
    <path clip-path="url(#p6726d8ced4)" d="M 584.337232 375.933666 
L 602.184139 375.933666 
L 602.184139 363.092746 
L 584.337232 363.092746 
z
" style="fill:#96c69a;fill-opacity:0.5;stroke:#ffffff;stroke-linejoin:miter;stroke-width:1.284092;"/>
   </g>
   <g id="patch_40">
    <path clip-path="url(#p6726d8ced4)" d="M 584.337232 363.092746 
L 601.35405 363.092746 
L 601.35405 350.251826 
L 584.337232 350.251826 
z
" style="fill:#96c69a;fill-opacity:0.5;stroke:#ffffff;stroke-linejoin:miter;stroke-width:1.284092;"/>
   </g>
   <g id="patch_41">
    <path clip-path="url(#p6726d8ced4)" d="M 584.337232 350.251826 
L 598.44874 350.251826 
L 598.44874 337.410905 
L 584.337232 337.410905 
z
" style="fill:#96c69a;fill-opacity:0.5;stroke:#ffffff;stroke-linejoin:miter;stroke-width:1.284092;"/>
   </g>
   <g id="patch_42">
    <path clip-path="url(#p6726d8ced4)" d="M 584.337232 337.410905 
L 593.468208 337.410905 
L 593.468208 324.569985 
L 584.337232 324.569985 
z
" style="fill:#96c69a;fill-opacity:0.5;stroke:#ffffff;stroke-linejoin:miter;stroke-width:1.284092;"/>
   </g>
   <g id="patch_43">
    <path clip-path="url(#p6726d8ced4)" d="M 584.337232 324.569985 
L 590.977942 324.569985 
L 590.977942 311.729065 
L 584.337232 311.729065 
z
" style="fill:#96c69a;fill-opacity:0.5;stroke:#ffffff;stroke-linejoin:miter;stroke-width:1.284092;"/>
   </g>
   <g id="patch_44">
    <path clip-path="url(#p6726d8ced4)" d="M 584.337232 311.729065 
L 590.562897 311.729065 
L 590.562897 298.888145 
L 584.337232 298.888145 
z
" style="fill:#96c69a;fill-opacity:0.5;stroke:#ffffff;stroke-linejoin:miter;stroke-width:1.284092;"/>
   </g>
   <g id="patch_45">
    <path clip-path="url(#p6726d8ced4)" d="M 584.337232 298.888145 
L 589.317764 298.888145 
L 589.317764 286.047224 
L 584.337232 286.047224 
z
" style="fill:#96c69a;fill-opacity:0.5;stroke:#ffffff;stroke-linejoin:miter;stroke-width:1.284092;"/>
   </g>
   <g id="patch_46">
    <path clip-path="url(#p6726d8ced4)" d="M 584.337232 286.047224 
L 589.732809 286.047224 
L 589.732809 273.206304 
L 584.337232 273.206304 
z
" style="fill:#96c69a;fill-opacity:0.5;stroke:#ffffff;stroke-linejoin:miter;stroke-width:1.284092;"/>
   </g>
   <g id="patch_47">
    <path clip-path="url(#p6726d8ced4)" d="M 584.337232 273.206304 
L 586.827498 273.206304 
L 586.827498 260.365384 
L 584.337232 260.365384 
z
" style="fill:#96c69a;fill-opacity:0.5;stroke:#ffffff;stroke-linejoin:miter;stroke-width:1.284092;"/>
   </g>
   <g id="patch_48">
    <path clip-path="url(#p6726d8ced4)" d="M 584.337232 260.365384 
L 586.412454 260.365384 
L 586.412454 247.524464 
L 584.337232 247.524464 
z
" style="fill:#96c69a;fill-opacity:0.5;stroke:#ffffff;stroke-linejoin:miter;stroke-width:1.284092;"/>
   </g>
   <g id="patch_49">
    <path clip-path="url(#p6726d8ced4)" d="M 584.337232 247.524464 
L 585.167321 247.524464 
L 585.167321 234.683544 
L 584.337232 234.683544 
z
" style="fill:#96c69a;fill-opacity:0.5;stroke:#ffffff;stroke-linejoin:miter;stroke-width:1.284092;"/>
   </g>
   <g id="patch_50">
    <path clip-path="url(#p6726d8ced4)" d="M 584.337232 234.683544 
L 585.99741 234.683544 
L 585.99741 221.842623 
L 584.337232 221.842623 
z
" style="fill:#96c69a;fill-opacity:0.5;stroke:#ffffff;stroke-linejoin:miter;stroke-width:1.284092;"/>
   </g>
   <g id="patch_51">
    <path clip-path="url(#p6726d8ced4)" d="M 584.337232 221.842623 
L 584.752276 221.842623 
L 584.752276 209.001703 
L 584.337232 209.001703 
z
" style="fill:#96c69a;fill-opacity:0.5;stroke:#ffffff;stroke-linejoin:miter;stroke-width:1.284092;"/>
   </g>
   <g id="patch_52">
    <path clip-path="url(#p6726d8ced4)" d="M 584.337232 209.001703 
L 586.412454 209.001703 
L 586.412454 196.160783 
L 584.337232 196.160783 
z
" style="fill:#96c69a;fill-opacity:0.5;stroke:#ffffff;stroke-linejoin:miter;stroke-width:1.284092;"/>
   </g>
   <g id="patch_53">
    <path clip-path="url(#p6726d8ced4)" d="M 584.337232 196.160783 
L 585.167321 196.160783 
L 585.167321 183.319863 
L 584.337232 183.319863 
z
" style="fill:#96c69a;fill-opacity:0.5;stroke:#ffffff;stroke-linejoin:miter;stroke-width:1.284092;"/>
   </g>
   <g id="patch_54">
    <path clip-path="url(#p6726d8ced4)" d="M 584.337232 183.319863 
L 584.752276 183.319863 
L 584.752276 170.478942 
L 584.337232 170.478942 
z
" style="fill:#96c69a;fill-opacity:0.5;stroke:#ffffff;stroke-linejoin:miter;stroke-width:1.284092;"/>
   </g>
   <g id="patch_55">
    <path clip-path="url(#p6726d8ced4)" d="M 584.337232 170.478942 
L 584.337232 170.478942 
L 584.337232 157.638022 
L 584.337232 157.638022 
z
" style="fill:#96c69a;fill-opacity:0.5;stroke:#ffffff;stroke-linejoin:miter;stroke-width:1.284092;"/>
   </g>
   <g id="patch_56">
    <path clip-path="url(#p6726d8ced4)" d="M 584.337232 157.638022 
L 584.337232 157.638022 
L 584.337232 144.797102 
L 584.337232 144.797102 
z
" style="fill:#96c69a;fill-opacity:0.5;stroke:#ffffff;stroke-linejoin:miter;stroke-width:1.284092;"/>
   </g>
   <g id="patch_57">
    <path clip-path="url(#p6726d8ced4)" d="M 584.337232 144.797102 
L 584.752276 144.797102 
L 584.752276 131.956182 
L 584.337232 131.956182 
z
" style="fill:#96c69a;fill-opacity:0.5;stroke:#ffffff;stroke-linejoin:miter;stroke-width:1.284092;"/>
   </g>
   <g id="patch_58">
    <path d="M 584.337232 603.86 
L 584.337232 109.484571 
" style="fill:none;stroke:#262626;stroke-linecap:square;stroke-linejoin:miter;stroke-width:2.5;"/>
   </g>
   <g id="patch_59">
    <path d="M 584.337232 603.86 
L 667.574375 603.86 
" style="fill:none;stroke:#262626;stroke-linecap:square;stroke-linejoin:miter;stroke-width:2.5;"/>
   </g>
  </g>
 </g>
 <defs>
  <clipPath id="p55dd4c741c">
   <rect height="494.375429" width="482.775429" x="84.914375" y="109.484571"/>
  </clipPath>
  <clipPath id="pff31e8f0a7">
   <rect height="85.237143" width="482.775429" x="84.914375" y="7.2"/>
  </clipPath>
  <clipPath id="p6726d8ced4">
   <rect height="494.375429" width="83.237143" x="584.337232" y="109.484571"/>
  </clipPath>
 </defs>
</svg>
