<?xml version="1.0" encoding="utf-8" standalone="no"?>
<!DOCTYPE svg PUBLIC "-//W3C//DTD SVG 1.1//EN"
  "http://www.w3.org/Graphics/SVG/1.1/DTD/svg11.dtd">
<svg height="675.079375pt" version="1.1" viewBox="0 0 674.774375 675.079375" width="674.774375pt" xmlns="http://www.w3.org/2000/svg" xmlns:xlink="http://www.w3.org/1999/xlink">
 <metadata>
  <rdf:RDF xmlns:cc="http://creativecommons.org/ns#" xmlns:dc="http://purl.org/dc/elements/1.1/" xmlns:rdf="http://www.w3.org/1999/02/22-rdf-syntax-ns#">
   <cc:Work>
    <dc:type rdf:resource="http://purl.org/dc/dcmitype/StillImage"/>
    <dc:date>2021-07-16T21:44:03.658397</dc:date>
    <dc:format>image/svg+xml</dc:format>
    <dc:creator>
     <cc:Agent>
      <dc:title>Matplotlib v3.4.2, https://matplotlib.org/</dc:title>
     </cc:Agent>
    </dc:creator>
   </cc:Work>
  </rdf:RDF>
 </metadata>
 <defs>
  <style type="text/css">*{stroke-linecap:butt;stroke-linejoin:round;}</style>
 </defs>
 <g id="figure_1">
  <g id="patch_1">
   <path d="M 0 675.079375 
L 674.774375 675.079375 
L 674.774375 0 
L 0 0 
z
" style="fill:#ffffff;"/>
  </g>
  <g id="axes_1">
   <g id="patch_2">
    <path d="M 84.914375 603.86 
L 567.689804 603.86 
L 567.689804 109.484571 
L 84.914375 109.484571 
z
" style="fill:none;"/>
   </g>
   <g id="matplotlib.axis_1">
    <g id="xtick_1">
     <g id="text_1">
      <!-- 0 -->
      <g style="fill:#262626;" transform="translate(99.64041 636.076563)scale(0.22 -0.22)">
       <defs>
        <path d="M 2034 4250 
Q 1547 4250 1301 3770 
Q 1056 3291 1056 2328 
Q 1056 1369 1301 889 
Q 1547 409 2034 409 
Q 2525 409 2770 889 
Q 3016 1369 3016 2328 
Q 3016 3291 2770 3770 
Q 2525 4250 2034 4250 
z
M 2034 4750 
Q 2819 4750 3233 4129 
Q 3647 3509 3647 2328 
Q 3647 1150 3233 529 
Q 2819 -91 2034 -91 
Q 1250 -91 836 529 
Q 422 1150 422 2328 
Q 422 3509 836 4129 
Q 1250 4750 2034 4750 
z
" id="DejaVuSans-30" transform="scale(0.015625)"/>
       </defs>
       <use xlink:href="#DejaVuSans-30"/>
      </g>
     </g>
    </g>
    <g id="xtick_2">
     <g id="text_2">
      <!-- 20000 -->
      <g style="fill:#262626;" transform="translate(159.466671 636.076563)scale(0.22 -0.22)">
       <defs>
        <path d="M 1228 531 
L 3431 531 
L 3431 0 
L 469 0 
L 469 531 
Q 828 903 1448 1529 
Q 2069 2156 2228 2338 
Q 2531 2678 2651 2914 
Q 2772 3150 2772 3378 
Q 2772 3750 2511 3984 
Q 2250 4219 1831 4219 
Q 1534 4219 1204 4116 
Q 875 4013 500 3803 
L 500 4441 
Q 881 4594 1212 4672 
Q 1544 4750 1819 4750 
Q 2544 4750 2975 4387 
Q 3406 4025 3406 3419 
Q 3406 3131 3298 2873 
Q 3191 2616 2906 2266 
Q 2828 2175 2409 1742 
Q 1991 1309 1228 531 
z
" id="DejaVuSans-32" transform="scale(0.015625)"/>
       </defs>
       <use xlink:href="#DejaVuSans-32"/>
       <use x="63.623047" xlink:href="#DejaVuSans-30"/>
       <use x="127.246094" xlink:href="#DejaVuSans-30"/>
       <use x="190.869141" xlink:href="#DejaVuSans-30"/>
       <use x="254.492188" xlink:href="#DejaVuSans-30"/>
      </g>
     </g>
    </g>
    <g id="xtick_3">
     <g id="text_3">
      <!-- 40000 -->
      <g style="fill:#262626;" transform="translate(247.287932 636.076563)scale(0.22 -0.22)">
       <defs>
        <path d="M 2419 4116 
L 825 1625 
L 2419 1625 
L 2419 4116 
z
M 2253 4666 
L 3047 4666 
L 3047 1625 
L 3713 1625 
L 3713 1100 
L 3047 1100 
L 3047 0 
L 2419 0 
L 2419 1100 
L 313 1100 
L 313 1709 
L 2253 4666 
z
" id="DejaVuSans-34" transform="scale(0.015625)"/>
       </defs>
       <use xlink:href="#DejaVuSans-34"/>
       <use x="63.623047" xlink:href="#DejaVuSans-30"/>
       <use x="127.246094" xlink:href="#DejaVuSans-30"/>
       <use x="190.869141" xlink:href="#DejaVuSans-30"/>
       <use x="254.492188" xlink:href="#DejaVuSans-30"/>
      </g>
     </g>
    </g>
    <g id="xtick_4">
     <g id="text_4">
      <!-- 60000 -->
      <g style="fill:#262626;" transform="translate(335.109193 636.076563)scale(0.22 -0.22)">
       <defs>
        <path d="M 2113 2584 
Q 1688 2584 1439 2293 
Q 1191 2003 1191 1497 
Q 1191 994 1439 701 
Q 1688 409 2113 409 
Q 2538 409 2786 701 
Q 3034 994 3034 1497 
Q 3034 2003 2786 2293 
Q 2538 2584 2113 2584 
z
M 3366 4563 
L 3366 3988 
Q 3128 4100 2886 4159 
Q 2644 4219 2406 4219 
Q 1781 4219 1451 3797 
Q 1122 3375 1075 2522 
Q 1259 2794 1537 2939 
Q 1816 3084 2150 3084 
Q 2853 3084 3261 2657 
Q 3669 2231 3669 1497 
Q 3669 778 3244 343 
Q 2819 -91 2113 -91 
Q 1303 -91 875 529 
Q 447 1150 447 2328 
Q 447 3434 972 4092 
Q 1497 4750 2381 4750 
Q 2619 4750 2861 4703 
Q 3103 4656 3366 4563 
z
" id="DejaVuSans-36" transform="scale(0.015625)"/>
       </defs>
       <use xlink:href="#DejaVuSans-36"/>
       <use x="63.623047" xlink:href="#DejaVuSans-30"/>
       <use x="127.246094" xlink:href="#DejaVuSans-30"/>
       <use x="190.869141" xlink:href="#DejaVuSans-30"/>
       <use x="254.492188" xlink:href="#DejaVuSans-30"/>
      </g>
     </g>
    </g>
    <g id="xtick_5">
     <g id="text_5">
      <!-- 80000 -->
      <g style="fill:#262626;" transform="translate(422.930455 636.076563)scale(0.22 -0.22)">
       <defs>
        <path d="M 2034 2216 
Q 1584 2216 1326 1975 
Q 1069 1734 1069 1313 
Q 1069 891 1326 650 
Q 1584 409 2034 409 
Q 2484 409 2743 651 
Q 3003 894 3003 1313 
Q 3003 1734 2745 1975 
Q 2488 2216 2034 2216 
z
M 1403 2484 
Q 997 2584 770 2862 
Q 544 3141 544 3541 
Q 544 4100 942 4425 
Q 1341 4750 2034 4750 
Q 2731 4750 3128 4425 
Q 3525 4100 3525 3541 
Q 3525 3141 3298 2862 
Q 3072 2584 2669 2484 
Q 3125 2378 3379 2068 
Q 3634 1759 3634 1313 
Q 3634 634 3220 271 
Q 2806 -91 2034 -91 
Q 1263 -91 848 271 
Q 434 634 434 1313 
Q 434 1759 690 2068 
Q 947 2378 1403 2484 
z
M 1172 3481 
Q 1172 3119 1398 2916 
Q 1625 2713 2034 2713 
Q 2441 2713 2670 2916 
Q 2900 3119 2900 3481 
Q 2900 3844 2670 4047 
Q 2441 4250 2034 4250 
Q 1625 4250 1398 4047 
Q 1172 3844 1172 3481 
z
" id="DejaVuSans-38" transform="scale(0.015625)"/>
       </defs>
       <use xlink:href="#DejaVuSans-38"/>
       <use x="63.623047" xlink:href="#DejaVuSans-30"/>
       <use x="127.246094" xlink:href="#DejaVuSans-30"/>
       <use x="190.869141" xlink:href="#DejaVuSans-30"/>
       <use x="254.492188" xlink:href="#DejaVuSans-30"/>
      </g>
     </g>
    </g>
    <g id="xtick_6">
     <g id="text_6">
      <!-- 100000 -->
      <g style="fill:#262626;" transform="translate(503.752966 636.076563)scale(0.22 -0.22)">
       <defs>
        <path d="M 794 531 
L 1825 531 
L 1825 4091 
L 703 3866 
L 703 4441 
L 1819 4666 
L 2450 4666 
L 2450 531 
L 3481 531 
L 3481 0 
L 794 0 
L 794 531 
z
" id="DejaVuSans-31" transform="scale(0.015625)"/>
       </defs>
       <use xlink:href="#DejaVuSans-31"/>
       <use x="63.623047" xlink:href="#DejaVuSans-30"/>
       <use x="127.246094" xlink:href="#DejaVuSans-30"/>
       <use x="190.869141" xlink:href="#DejaVuSans-30"/>
       <use x="254.492188" xlink:href="#DejaVuSans-30"/>
       <use x="318.115234" xlink:href="#DejaVuSans-30"/>
      </g>
     </g>
    </g>
    <g id="text_7">
     <!-- MDTU -->
     <g style="fill:#262626;" transform="translate(290.596464 662.888125)scale(0.24 -0.24)">
      <defs>
       <path d="M 628 4666 
L 1569 4666 
L 2759 1491 
L 3956 4666 
L 4897 4666 
L 4897 0 
L 4281 0 
L 4281 4097 
L 3078 897 
L 2444 897 
L 1241 4097 
L 1241 0 
L 628 0 
L 628 4666 
z
" id="DejaVuSans-4d" transform="scale(0.015625)"/>
       <path d="M 1259 4147 
L 1259 519 
L 2022 519 
Q 2988 519 3436 956 
Q 3884 1394 3884 2338 
Q 3884 3275 3436 3711 
Q 2988 4147 2022 4147 
L 1259 4147 
z
M 628 4666 
L 1925 4666 
Q 3281 4666 3915 4102 
Q 4550 3538 4550 2338 
Q 4550 1131 3912 565 
Q 3275 0 1925 0 
L 628 0 
L 628 4666 
z
" id="DejaVuSans-44" transform="scale(0.015625)"/>
       <path d="M -19 4666 
L 3928 4666 
L 3928 4134 
L 2272 4134 
L 2272 0 
L 1638 0 
L 1638 4134 
L -19 4134 
L -19 4666 
z
" id="DejaVuSans-54" transform="scale(0.015625)"/>
       <path d="M 556 4666 
L 1191 4666 
L 1191 1831 
Q 1191 1081 1462 751 
Q 1734 422 2344 422 
Q 2950 422 3222 751 
Q 3494 1081 3494 1831 
L 3494 4666 
L 4128 4666 
L 4128 1753 
Q 4128 841 3676 375 
Q 3225 -91 2344 -91 
Q 1459 -91 1007 375 
Q 556 841 556 1753 
L 556 4666 
z
" id="DejaVuSans-55" transform="scale(0.015625)"/>
      </defs>
      <use xlink:href="#DejaVuSans-4d"/>
      <use x="86.279297" xlink:href="#DejaVuSans-44"/>
      <use x="163.28125" xlink:href="#DejaVuSans-54"/>
      <use x="224.365234" xlink:href="#DejaVuSans-55"/>
     </g>
    </g>
   </g>
   <g id="matplotlib.axis_2">
    <g id="ytick_1">
     <g id="text_8">
      <!-- 0.5 -->
      <g style="fill:#262626;" transform="translate(34.4275 545.781846)scale(0.22 -0.22)">
       <defs>
        <path d="M 684 794 
L 1344 794 
L 1344 0 
L 684 0 
L 684 794 
z
" id="DejaVuSans-2e" transform="scale(0.015625)"/>
        <path d="M 691 4666 
L 3169 4666 
L 3169 4134 
L 1269 4134 
L 1269 2991 
Q 1406 3038 1543 3061 
Q 1681 3084 1819 3084 
Q 2600 3084 3056 2656 
Q 3513 2228 3513 1497 
Q 3513 744 3044 326 
Q 2575 -91 1722 -91 
Q 1428 -91 1123 -41 
Q 819 9 494 109 
L 494 744 
Q 775 591 1075 516 
Q 1375 441 1709 441 
Q 2250 441 2565 725 
Q 2881 1009 2881 1497 
Q 2881 1984 2565 2268 
Q 2250 2553 1709 2553 
Q 1456 2553 1204 2497 
Q 953 2441 691 2322 
L 691 4666 
z
" id="DejaVuSans-35" transform="scale(0.015625)"/>
       </defs>
       <use xlink:href="#DejaVuSans-30"/>
       <use x="63.623047" xlink:href="#DejaVuSans-2e"/>
       <use x="95.410156" xlink:href="#DejaVuSans-35"/>
      </g>
     </g>
    </g>
    <g id="ytick_2">
     <g id="text_9">
      <!-- 1.0 -->
      <g style="fill:#262626;" transform="translate(34.4275 467.929714)scale(0.22 -0.22)">
       <use xlink:href="#DejaVuSans-31"/>
       <use x="63.623047" xlink:href="#DejaVuSans-2e"/>
       <use x="95.410156" xlink:href="#DejaVuSans-30"/>
      </g>
     </g>
    </g>
    <g id="ytick_3">
     <g id="text_10">
      <!-- 1.5 -->
      <g style="fill:#262626;" transform="translate(34.4275 390.077581)scale(0.22 -0.22)">
       <use xlink:href="#DejaVuSans-31"/>
       <use x="63.623047" xlink:href="#DejaVuSans-2e"/>
       <use x="95.410156" xlink:href="#DejaVuSans-35"/>
      </g>
     </g>
    </g>
    <g id="ytick_4">
     <g id="text_11">
      <!-- 2.0 -->
      <g style="fill:#262626;" transform="translate(34.4275 312.225448)scale(0.22 -0.22)">
       <use xlink:href="#DejaVuSans-32"/>
       <use x="63.623047" xlink:href="#DejaVuSans-2e"/>
       <use x="95.410156" xlink:href="#DejaVuSans-30"/>
      </g>
     </g>
    </g>
    <g id="ytick_5">
     <g id="text_12">
      <!-- 2.5 -->
      <g style="fill:#262626;" transform="translate(34.4275 234.373316)scale(0.22 -0.22)">
       <use xlink:href="#DejaVuSans-32"/>
       <use x="63.623047" xlink:href="#DejaVuSans-2e"/>
       <use x="95.410156" xlink:href="#DejaVuSans-35"/>
      </g>
     </g>
    </g>
    <g id="ytick_6">
     <g id="text_13">
      <!-- 3.0 -->
      <g style="fill:#262626;" transform="translate(34.4275 156.521183)scale(0.22 -0.22)">
       <defs>
        <path d="M 2597 2516 
Q 3050 2419 3304 2112 
Q 3559 1806 3559 1356 
Q 3559 666 3084 287 
Q 2609 -91 1734 -91 
Q 1441 -91 1130 -33 
Q 819 25 488 141 
L 488 750 
Q 750 597 1062 519 
Q 1375 441 1716 441 
Q 2309 441 2620 675 
Q 2931 909 2931 1356 
Q 2931 1769 2642 2001 
Q 2353 2234 1838 2234 
L 1294 2234 
L 1294 2753 
L 1863 2753 
Q 2328 2753 2575 2939 
Q 2822 3125 2822 3475 
Q 2822 3834 2567 4026 
Q 2313 4219 1838 4219 
Q 1578 4219 1281 4162 
Q 984 4106 628 3988 
L 628 4550 
Q 988 4650 1302 4700 
Q 1616 4750 1894 4750 
Q 2613 4750 3031 4423 
Q 3450 4097 3450 3541 
Q 3450 3153 3228 2886 
Q 3006 2619 2597 2516 
z
" id="DejaVuSans-33" transform="scale(0.015625)"/>
       </defs>
       <use xlink:href="#DejaVuSans-33"/>
       <use x="63.623047" xlink:href="#DejaVuSans-2e"/>
       <use x="95.410156" xlink:href="#DejaVuSans-30"/>
      </g>
     </g>
    </g>
    <g id="text_14">
     <!-- $E$ -->
     <g style="fill:#262626;" transform="translate(25.43625 364.352286)rotate(-90)scale(0.24 -0.24)">
      <defs>
       <path d="M 1081 4666 
L 4031 4666 
L 3928 4134 
L 1606 4134 
L 1338 2753 
L 3566 2753 
L 3463 2222 
L 1234 2222 
L 909 531 
L 3284 531 
L 3181 0 
L 172 0 
L 1081 4666 
z
" id="DejaVuSans-Oblique-45" transform="scale(0.015625)"/>
      </defs>
      <use transform="translate(0 0.09375)" xlink:href="#DejaVuSans-Oblique-45"/>
     </g>
    </g>
   </g>
   <g id="line2d_1">
    <path clip-path="url(#p7951fc7fe8)" d="M 106.858713 488.224829 
L 107.078266 527.932451 
L 107.297819 511.502665 
L 107.517372 485.811443 
L 107.736925 487.236535 
L 107.956478 552.50812 
L 108.176032 483.466176 
L 108.395585 552.009097 
L 108.615138 464.611909 
L 108.834691 544.879228 
L 109.054244 510.680473 
L 109.273797 432.091872 
L 109.493351 476.509239 
L 109.712904 550.758899 
L 109.932457 498.276262 
L 110.15201 489.547726 
L 110.371563 470.361762 
L 110.591116 564.190822 
L 110.810669 421.47965 
L 111.249776 532.913508 
L 111.469329 459.481365 
L 111.688882 511.954669 
L 111.908435 515.683876 
L 112.127988 409.592667 
L 112.347541 523.448597 
L 112.567095 559.635831 
L 112.786648 505.655016 
L 113.006201 552.641718 
L 113.225754 470.306899 
L 113.445307 448.373758 
L 113.66486 450.517458 
L 113.884414 461.053666 
L 114.103967 493.753211 
L 114.32352 463.473165 
L 114.543073 488.263844 
L 114.762626 405.997174 
L 114.982179 539.55191 
L 115.201732 507.312912 
L 115.421286 506.250528 
L 115.640839 540.90476 
L 115.860392 532.424293 
L 116.079945 497.708822 
L 116.299498 393.548079 
L 116.738605 541.835641 
L 116.958158 526.860805 
L 117.177711 551.920292 
L 117.397264 372.889624 
L 117.83637 559.738868 
L 118.055923 476.642081 
L 118.275477 568.653065 
L 118.49503 527.088049 
L 118.714583 448.972129 
L 119.153689 542.051093 
L 119.373242 535.412841 
L 119.592796 511.918699 
L 119.812349 528.257433 
L 120.251455 535.59594 
L 120.471008 524.499342 
L 120.690561 498.367632 
L 120.910114 517.769815 
L 121.129668 565.515037 
L 121.349221 531.987469 
L 121.568774 552.706652 
L 121.788327 473.876337 
L 122.00788 447.282654 
L 122.227433 547.391264 
L 122.446987 530.66859 
L 122.66654 472.403554 
L 122.886093 484.197387 
L 123.105646 471.443077 
L 123.325199 499.359232 
L 123.544752 368.494702 
L 123.764305 495.372361 
L 123.983859 487.251537 
L 124.203412 506.529464 
L 124.422965 418.317293 
L 124.642518 553.292718 
L 124.862071 548.936771 
L 125.301178 483.362331 
L 125.520731 473.720049 
L 125.740284 488.844033 
L 125.959837 538.110858 
L 126.17939 408.2074 
L 126.398943 522.954811 
L 126.618496 433.869416 
L 126.83805 551.486809 
L 127.057603 229.488446 
L 127.277156 533.934797 
L 127.496709 420.835752 
L 127.716262 428.712484 
L 127.935815 543.347705 
L 128.374922 470.151308 
L 128.594475 562.809463 
L 129.033581 472.56208 
L 129.253134 513.521317 
L 129.472687 519.862711 
L 129.692241 516.801112 
L 129.911794 530.698464 
L 130.131347 563.539317 
L 130.3509 556.17758 
L 130.570453 369.113206 
L 131.00956 543.961074 
L 131.229113 517.259562 
L 131.448666 396.044083 
L 131.668219 437.094872 
L 131.887772 515.974962 
L 132.107325 452.337736 
L 132.326878 493.74372 
L 132.546432 490.429122 
L 132.765985 522.229292 
L 132.985538 490.406129 
L 133.205091 480.77882 
L 133.424644 430.177402 
L 133.644197 528.308807 
L 133.863751 500.223895 
L 134.083304 517.298602 
L 134.302857 486.68866 
L 134.52241 497.053689 
L 134.741963 436.507724 
L 134.961516 539.662135 
L 135.181069 551.117583 
L 135.400623 422.786894 
L 135.620176 488.59148 
L 135.839729 492.723884 
L 136.059282 428.434146 
L 136.278835 430.79638 
L 136.498388 514.884532 
L 136.717941 411.197056 
L 136.937495 371.19011 
L 137.376601 487.334843 
L 137.815707 430.624785 
L 138.03526 526.258631 
L 138.254814 536.074259 
L 138.474367 519.964329 
L 138.69392 458.311951 
L 138.913473 534.647959 
L 139.352579 495.86522 
L 139.572132 487.389067 
L 139.791686 528.284338 
L 140.011239 505.149141 
L 140.230792 511.588038 
L 140.450345 484.637676 
L 140.669898 486.699804 
L 140.889451 433.648605 
L 141.328558 543.582026 
L 141.767664 495.547073 
L 141.987217 437.332734 
L 142.20677 517.452526 
L 142.426323 508.689519 
L 142.645877 558.811971 
L 142.86543 431.79512 
L 143.304536 530.205093 
L 143.524089 493.867383 
L 143.743642 485.696213 
L 143.963196 468.502414 
L 144.182749 494.986649 
L 144.402302 438.971345 
L 144.621855 452.066133 
L 144.841408 522.924412 
L 145.060961 521.126722 
L 145.280514 481.001015 
L 145.500068 529.562563 
L 145.719621 464.054079 
L 146.158727 521.424831 
L 146.37828 515.644955 
L 146.597833 467.208316 
L 146.817387 507.104886 
L 147.03694 482.802217 
L 147.256493 473.00347 
L 147.476046 366.525888 
L 147.695599 472.206566 
L 147.915152 445.391127 
L 148.134705 551.698385 
L 148.354259 528.228697 
L 148.573812 525.007391 
L 148.793365 531.716592 
L 149.012918 488.577906 
L 149.232471 504.42771 
L 149.452024 487.743943 
L 149.671578 532.481233 
L 149.891131 500.188483 
L 150.330237 533.999971 
L 150.54979 519.687233 
L 150.769343 484.972467 
L 150.988896 532.318715 
L 151.20845 523.247663 
L 151.428003 524.372991 
L 151.647556 471.527064 
L 151.867109 497.540128 
L 152.086662 491.967396 
L 152.306215 385.699747 
L 152.525769 371.007759 
L 152.745322 524.076738 
L 152.964875 375.058505 
L 153.184428 511.44273 
L 153.403981 474.276276 
L 153.623534 475.238426 
L 153.843087 506.784188 
L 154.062641 500.873402 
L 154.282194 517.354688 
L 154.501747 462.834874 
L 154.7213 516.660286 
L 154.940853 496.551124 
L 155.160406 531.660534 
L 155.37996 497.30384 
L 155.599513 494.394568 
L 155.819066 475.193515 
L 156.038619 520.204836 
L 156.258172 395.866789 
L 156.477725 493.6926 
L 156.697278 447.403553 
L 156.916832 512.605985 
L 157.136385 465.007731 
L 157.355938 478.009457 
L 157.575491 544.862656 
L 157.795044 496.24119 
L 158.014597 560.588831 
L 158.234151 511.852736 
L 158.673257 518.757711 
L 158.89281 463.90182 
L 159.112363 509.814922 
L 159.331916 508.017545 
L 159.551469 404.833769 
L 159.771023 490.175297 
L 159.990576 515.99081 
L 160.210129 518.427354 
L 160.429682 400.452605 
L 160.649235 515.87121 
L 160.868788 489.349271 
L 161.088342 529.045722 
L 161.527448 449.028901 
L 161.747001 451.87571 
L 161.966554 557.937245 
L 162.186107 373.955325 
L 162.40566 516.427081 
L 162.625214 554.534554 
L 162.844767 504.504109 
L 163.06432 520.12748 
L 163.283873 525.146458 
L 163.503426 523.049771 
L 163.722979 486.254457 
L 163.942532 511.740604 
L 164.162086 517.253678 
L 164.381639 469.225446 
L 164.601192 533.577638 
L 164.820745 474.605915 
L 165.040298 467.62473 
L 165.259851 519.284086 
L 165.479405 499.642799 
L 165.918511 549.310362 
L 166.138064 467.436655 
L 166.57717 494.596693 
L 166.796723 466.94383 
L 167.016277 512.788536 
L 167.23583 515.001057 
L 167.455383 531.140057 
L 167.674936 451.789514 
L 167.894489 511.510208 
L 168.114042 504.715273 
L 168.333596 507.840246 
L 168.553149 543.29461 
L 168.772702 533.666651 
L 168.992255 348.301914 
L 169.211808 534.902774 
L 169.431361 542.903332 
L 169.650914 533.719937 
L 169.870468 394.541419 
L 170.090021 492.438276 
L 170.309574 439.12444 
L 170.74868 528.258867 
L 170.968233 495.617732 
L 171.187787 411.85266 
L 171.40734 511.685233 
L 171.626893 499.558268 
L 171.846446 501.33502 
L 172.065999 494.211205 
L 172.285552 532.886007 
L 172.505105 416.039479 
L 172.724659 422.114259 
L 172.944212 469.089165 
L 173.602871 515.631887 
L 174.041978 572.637023 
L 174.261531 510.971134 
L 174.481084 507.606367 
L 174.700637 516.752084 
L 174.92019 505.714602 
L 175.139743 421.769459 
L 175.359296 557.178909 
L 175.57885 544.964678 
L 175.798403 507.59216 
L 176.017956 552.604224 
L 176.237509 481.556561 
L 176.457062 449.518112 
L 176.676615 541.315549 
L 176.896169 387.652879 
L 177.115722 535.324053 
L 177.335275 454.373055 
L 177.774381 549.659824 
L 178.213487 510.206495 
L 178.433041 432.949427 
L 178.652594 550.826339 
L 178.872147 435.537562 
L 179.0917 559.878721 
L 179.311253 518.809844 
L 179.530806 453.647506 
L 179.75036 486.881841 
L 180.189466 494.762325 
L 180.409019 359.232828 
L 180.628572 370.896835 
L 180.848125 501.091433 
L 181.067678 494.773376 
L 181.287232 444.049297 
L 181.506785 501.510639 
L 181.726338 487.504215 
L 181.945891 520.093233 
L 182.165444 514.586634 
L 182.384997 453.898172 
L 182.604551 533.106207 
L 182.824104 497.257607 
L 183.043657 546.04816 
L 183.26321 446.664456 
L 183.482763 417.073235 
L 183.702316 489.057132 
L 183.921869 468.808682 
L 184.141423 512.933996 
L 184.360976 412.798757 
L 184.580529 519.607596 
L 184.800082 508.765796 
L 185.019635 534.938509 
L 185.239188 502.412605 
L 185.458742 559.745637 
L 185.678295 482.903348 
L 185.897848 466.321366 
L 186.117401 534.596758 
L 186.556507 488.432357 
L 186.77606 492.341312 
L 186.995614 506.378267 
L 187.215167 408.072104 
L 187.43472 473.700775 
L 187.654273 495.984259 
L 187.873826 499.012547 
L 188.093379 511.160955 
L 188.312932 515.297034 
L 188.532486 514.956271 
L 188.752039 555.44689 
L 188.971592 553.622235 
L 189.191145 545.328845 
L 189.410698 552.713503 
L 190.069358 481.069359 
L 190.288911 561.806418 
L 190.508464 530.843779 
L 190.728017 478.637863 
L 190.94757 538.511871 
L 191.167123 450.230091 
L 191.386677 535.058865 
L 191.60623 523.634526 
L 191.825783 546.780448 
L 192.264889 442.545585 
L 192.484442 501.766196 
L 192.703996 503.465384 
L 192.923549 560.398839 
L 193.143102 516.043103 
L 193.362655 537.740926 
L 193.582208 427.797878 
L 193.801761 503.59545 
L 194.021314 513.986638 
L 194.240868 453.975182 
L 194.460421 519.5753 
L 194.679974 376.921577 
L 194.899527 461.405681 
L 195.11908 488.634772 
L 195.338633 485.76265 
L 195.558187 369.462693 
L 195.77774 529.67143 
L 195.997293 529.108945 
L 196.216846 494.65709 
L 196.436399 535.327025 
L 196.875505 401.15868 
L 197.095059 527.911819 
L 197.314612 545.387131 
L 197.534165 551.068468 
L 197.753718 484.763587 
L 197.973271 538.317172 
L 198.192824 441.609187 
L 198.412378 405.527132 
L 198.631931 448.704597 
L 198.851484 464.209925 
L 199.071037 466.612291 
L 199.29059 404.17948 
L 199.510143 541.798562 
L 199.729696 524.597126 
L 199.94925 542.878209 
L 200.168803 441.086463 
L 200.388356 399.185441 
L 200.607909 410.274002 
L 200.827462 497.875143 
L 201.047015 389.866351 
L 201.266569 543.888593 
L 201.705675 488.88137 
L 201.925228 482.736584 
L 202.144781 544.115917 
L 202.364334 461.426235 
L 202.583887 475.75869 
L 203.022994 531.829167 
L 203.242547 523.729774 
L 203.4621 461.859558 
L 203.681653 440.056824 
L 203.901206 523.79004 
L 204.12076 494.536466 
L 204.340313 535.590524 
L 204.559866 531.302859 
L 204.779419 447.655785 
L 204.998972 524.145824 
L 205.218525 517.555009 
L 205.438078 530.852856 
L 205.657632 534.915203 
L 205.877185 384.236601 
L 206.316291 429.171028 
L 206.535844 551.652786 
L 206.755397 538.500587 
L 206.974951 482.60015 
L 207.194504 496.836078 
L 207.414057 376.609525 
L 207.63361 481.904036 
L 207.853163 517.840748 
L 208.072716 446.274843 
L 208.292269 417.24652 
L 208.511823 547.502424 
L 208.731376 501.731709 
L 208.950929 403.051905 
L 209.170482 536.720662 
L 209.390035 522.51826 
L 209.609588 483.47891 
L 209.829142 414.729646 
L 210.268248 532.30366 
L 210.487801 439.393421 
L 211.14646 521.549363 
L 211.366014 449.941362 
L 211.585567 539.436523 
L 212.024673 492.912436 
L 212.244226 499.571369 
L 212.463779 418.433762 
L 212.683333 544.65966 
L 212.902886 440.13145 
L 213.341992 562.718879 
L 213.561545 519.526289 
L 213.781098 528.37821 
L 214.000651 520.571629 
L 214.220205 530.211653 
L 214.439758 523.314093 
L 214.659311 504.253472 
L 214.878864 430.751139 
L 215.098417 547.174562 
L 215.31797 532.8152 
L 215.537523 458.65349 
L 215.757077 459.326659 
L 215.97663 388.972374 
L 216.196183 484.354315 
L 216.415736 517.116283 
L 216.635289 421.61359 
L 216.854842 469.55008 
L 217.074396 456.243517 
L 217.293949 485.684954 
L 217.513502 551.701403 
L 217.733055 452.912785 
L 217.952608 490.497751 
L 218.172161 491.635642 
L 218.391714 415.256513 
L 218.611268 533.487533 
L 218.830821 543.55419 
L 219.050374 469.9043 
L 219.269927 513.043613 
L 219.48948 472.253982 
L 219.709033 485.416979 
L 219.928587 511.042124 
L 220.14814 499.468929 
L 220.367693 528.112353 
L 220.587246 486.190247 
L 220.806799 548.820889 
L 221.026352 482.861556 
L 221.245905 511.051556 
L 221.465459 516.345828 
L 221.685012 548.4607 
L 221.904565 434.419024 
L 222.124118 448.65854 
L 222.343671 529.500448 
L 222.563224 541.283938 
L 222.782778 456.058119 
L 223.002331 487.059997 
L 223.221884 477.733385 
L 223.441437 484.379309 
L 223.66099 486.805106 
L 223.880543 533.858967 
L 224.31965 468.77357 
L 224.539203 522.167352 
L 224.978309 440.790431 
L 225.197862 502.786356 
L 225.417415 526.105273 
L 225.636969 466.984617 
L 225.856522 512.229342 
L 226.076075 522.518232 
L 226.295628 569.867102 
L 226.515181 475.511155 
L 226.734734 522.995409 
L 226.954287 517.130479 
L 227.173841 543.835266 
L 227.393394 512.268388 
L 227.612947 448.180012 
L 227.8325 524.374393 
L 228.052053 536.135827 
L 228.271606 434.563441 
L 228.49116 428.467789 
L 228.710713 428.358023 
L 228.930266 334.32488 
L 229.149819 552.311381 
L 229.588925 388.797674 
L 229.808478 525.954543 
L 230.028032 531.443048 
L 230.247585 510.645189 
L 230.467138 514.680976 
L 230.686691 131.956182 
L 230.906244 524.027651 
L 231.345351 457.185147 
L 231.564904 554.283487 
L 232.00401 431.672219 
L 232.223563 423.767592 
L 232.443116 507.136954 
L 232.662669 462.125183 
L 232.882223 543.970858 
L 233.101776 482.907799 
L 233.321329 502.189195 
L 233.540882 487.972834 
L 233.760435 497.159681 
L 233.979988 511.181566 
L 234.199542 537.503459 
L 234.419095 475.331808 
L 234.638648 476.996098 
L 234.858201 476.570903 
L 235.077754 516.529047 
L 235.297307 474.939947 
L 235.51686 545.08664 
L 235.736414 381.918898 
L 236.17552 537.84476 
L 236.395073 489.350041 
L 236.614626 537.160261 
L 236.834179 543.775215 
L 237.053733 449.631708 
L 237.273286 422.690038 
L 237.492839 546.854116 
L 237.712392 492.741869 
L 237.931945 376.788326 
L 238.371051 515.748377 
L 238.590605 420.30998 
L 238.810158 422.518352 
L 239.029711 408.369253 
L 239.249264 545.85308 
L 239.468817 538.074255 
L 239.68837 497.693742 
L 239.907924 481.632121 
L 240.127477 438.12703 
L 240.34703 527.099411 
L 240.786136 494.344979 
L 241.005689 473.399046 
L 241.225242 493.268879 
L 241.444796 465.142379 
L 241.664349 497.109076 
L 241.883902 510.367691 
L 242.103455 487.882717 
L 242.323008 418.275937 
L 242.542561 458.813209 
L 242.762114 521.458344 
L 242.981668 530.868279 
L 243.201221 505.188276 
L 243.420774 345.562786 
L 243.640327 519.531902 
L 243.85988 510.579556 
L 244.079433 462.103703 
L 244.298987 441.147428 
L 244.51854 370.497756 
L 244.738093 505.788407 
L 244.957646 501.683039 
L 245.177199 554.22024 
L 245.396752 382.045999 
L 245.616305 506.275872 
L 245.835859 493.793434 
L 246.055412 422.794194 
L 246.274965 474.325982 
L 246.494518 479.149118 
L 246.714071 528.527389 
L 246.933624 513.697464 
L 247.153178 474.802976 
L 247.372731 533.040011 
L 247.592284 492.228502 
L 247.811837 553.941331 
L 248.03139 421.110569 
L 248.250943 531.272702 
L 248.470496 522.318708 
L 248.69005 542.60444 
L 248.909603 525.232706 
L 249.129156 439.289648 
L 249.348709 523.030878 
L 249.568262 531.037348 
L 249.787815 425.914797 
L 250.007369 497.644596 
L 250.226922 511.758684 
L 250.446475 514.035512 
L 250.666028 498.654121 
L 250.885581 543.098973 
L 251.105134 441.042292 
L 251.324687 463.216385 
L 251.763794 412.528595 
L 251.983347 406.379574 
L 252.2029 486.669268 
L 252.422453 418.190214 
L 252.642006 530.05399 
L 252.86156 436.624723 
L 253.520219 554.190846 
L 253.739772 537.872574 
L 253.959325 458.389125 
L 254.178878 512.079926 
L 254.617985 551.146008 
L 254.837538 535.986059 
L 255.057091 508.224858 
L 255.496197 355.337148 
L 255.935304 432.865078 
L 256.154857 375.328151 
L 256.37441 502.062269 
L 256.593963 536.112699 
L 256.813516 477.789858 
L 257.033069 504.623308 
L 257.252623 463.400082 
L 257.472176 471.532003 
L 257.691729 454.726218 
L 257.911282 476.525509 
L 258.130835 479.320721 
L 258.350388 556.571809 
L 258.569942 526.703698 
L 258.789495 516.11377 
L 259.009048 526.797433 
L 259.228601 522.033251 
L 259.448154 511.727749 
L 259.667707 401.417443 
L 259.88726 533.743057 
L 260.106814 424.981702 
L 260.326367 508.110611 
L 260.54592 412.799129 
L 260.985026 541.589587 
L 261.204579 483.896088 
L 261.424133 501.363893 
L 261.643686 539.521648 
L 261.863239 523.218978 
L 262.082792 461.375075 
L 262.521898 495.539589 
L 262.741451 478.577697 
L 262.961005 516.394562 
L 263.180558 446.007139 
L 263.400111 430.065914 
L 263.619664 426.526029 
L 263.839217 507.382 
L 264.05877 528.917871 
L 264.278324 478.573034 
L 264.497877 466.966688 
L 264.71743 409.602333 
L 264.936983 393.124743 
L 265.156536 434.029169 
L 265.376089 420.964198 
L 265.595642 526.501809 
L 265.815196 488.449629 
L 266.034749 360.628041 
L 266.254302 443.906118 
L 266.473855 480.829813 
L 266.693408 492.896607 
L 266.912961 531.230867 
L 267.132514 486.164983 
L 267.352068 556.417003 
L 267.571621 463.337679 
L 267.791174 513.346794 
L 268.010727 493.604105 
L 268.23028 442.287711 
L 268.449833 451.652208 
L 268.669387 429.251743 
L 268.88894 489.311968 
L 269.108493 498.026487 
L 269.328046 498.923989 
L 269.547599 464.267878 
L 269.767152 515.971558 
L 270.206259 435.800666 
L 270.425812 534.466776 
L 270.645365 543.420235 
L 270.864918 409.583503 
L 271.084471 510.648583 
L 271.304024 456.215678 
L 271.523578 466.576269 
L 271.743131 490.752659 
L 271.962684 466.724413 
L 272.182237 508.113406 
L 272.40179 475.556646 
L 272.621343 521.458906 
L 272.840896 487.553042 
L 273.06045 490.434843 
L 273.280003 540.724776 
L 273.499556 518.186347 
L 273.719109 459.887881 
L 273.938662 563.044689 
L 274.158215 446.326298 
L 274.377769 491.052999 
L 274.597322 477.155459 
L 274.816875 504.064613 
L 275.036428 407.169109 
L 275.475534 503.75465 
L 275.695087 445.444004 
L 275.914641 488.414186 
L 276.134194 468.125949 
L 276.353747 534.473525 
L 276.5733 480.232669 
L 276.792853 561.875263 
L 277.012406 479.945548 
L 277.23196 448.221944 
L 277.451513 472.185524 
L 277.671066 462.733943 
L 277.890619 476.166616 
L 278.110172 471.93619 
L 278.329725 483.362098 
L 278.549278 516.247812 
L 278.768832 510.584095 
L 278.988385 493.334154 
L 279.207938 454.410269 
L 279.427491 511.476755 
L 279.647044 502.185604 
L 279.866597 449.357144 
L 280.086151 516.936393 
L 280.305704 528.528564 
L 280.525257 434.262094 
L 280.74481 536.465939 
L 280.964363 486.26407 
L 281.183916 484.852707 
L 281.403469 533.105571 
L 281.623023 526.586844 
L 281.842576 424.688798 
L 282.062129 536.430902 
L 282.281682 474.888081 
L 282.501235 506.173828 
L 283.159895 542.116769 
L 283.379448 438.603938 
L 283.599001 448.534845 
L 283.818554 527.1903 
L 284.038107 385.219907 
L 284.25766 541.385243 
L 284.477214 483.43076 
L 284.696767 522.060744 
L 284.91632 537.128273 
L 285.135873 536.38318 
L 285.355426 543.339719 
L 285.574979 490.024977 
L 285.794533 519.49913 
L 286.014086 502.669028 
L 286.233639 512.659194 
L 286.453192 486.709754 
L 286.672745 494.188931 
L 286.892298 560.791532 
L 287.111851 535.176177 
L 287.331405 536.286859 
L 287.550958 461.952104 
L 287.770511 523.84993 
L 287.990064 522.102667 
L 288.209617 464.224185 
L 288.42917 565.792663 
L 288.648724 466.669353 
L 288.868277 497.835527 
L 289.08783 460.572869 
L 289.307383 566.923432 
L 289.526936 528.161244 
L 289.746489 559.840023 
L 289.966042 527.188117 
L 290.185596 516.098149 
L 290.405149 478.420952 
L 290.624702 484.181269 
L 290.844255 525.427557 
L 291.063808 511.165226 
L 291.283361 523.465042 
L 291.502915 430.441261 
L 291.722468 511.514009 
L 291.942021 409.569096 
L 292.161574 561.480014 
L 292.381127 476.868157 
L 292.60068 535.714437 
L 292.820233 501.436502 
L 293.039787 538.128658 
L 293.25934 484.47404 
L 293.478893 548.924412 
L 293.917999 470.80656 
L 294.137552 535.090733 
L 294.357105 458.794881 
L 294.576659 479.154793 
L 294.796212 487.997633 
L 295.015765 464.070437 
L 295.235318 528.387565 
L 295.454871 430.177855 
L 295.674424 501.881819 
L 295.893978 496.803548 
L 296.113531 320.859859 
L 296.333084 491.239394 
L 296.552637 525.195767 
L 296.77219 532.57918 
L 296.991743 478.344047 
L 297.211296 484.97538 
L 297.43085 570.270328 
L 297.650403 572.687971 
L 297.869956 381.985503 
L 298.089509 400.063027 
L 298.309062 471.818553 
L 298.528615 483.454857 
L 298.748169 469.707835 
L 298.967722 563.68607 
L 299.406828 526.215258 
L 299.626381 489.464719 
L 299.845934 393.231243 
L 300.065487 545.024778 
L 300.285041 502.289562 
L 300.504594 508.25574 
L 300.724147 433.72357 
L 300.9437 460.640368 
L 301.382806 543.987012 
L 301.60236 531.951383 
L 302.041466 551.399704 
L 302.480572 368.534304 
L 302.700125 485.350857 
L 302.919678 494.494077 
L 303.139232 496.427408 
L 303.358785 556.280762 
L 303.578338 479.83233 
L 303.797891 552.297374 
L 304.017444 503.445945 
L 304.236997 540.213936 
L 304.456551 529.537881 
L 304.676104 419.792554 
L 304.895657 501.987184 
L 305.11521 531.549311 
L 305.334763 477.838929 
L 305.554316 527.979699 
L 305.773869 476.754831 
L 305.993423 536.031266 
L 306.212976 515.246228 
L 306.432529 424.748919 
L 306.652082 524.561165 
L 306.871635 481.916385 
L 307.091188 569.369496 
L 307.310742 528.523035 
L 307.530295 451.885974 
L 307.749848 546.474602 
L 308.188954 385.069235 
L 308.408507 485.00758 
L 308.62806 499.533616 
L 309.067167 490.957267 
L 309.28672 515.401022 
L 309.725826 471.962187 
L 309.945379 569.343912 
L 310.164933 470.22158 
L 310.384486 536.269654 
L 310.823592 413.582805 
L 311.043145 497.616199 
L 311.262698 483.197644 
L 311.482251 525.503682 
L 311.701805 469.115192 
L 311.921358 514.246927 
L 312.140911 525.5793 
L 312.580017 463.423983 
L 312.79957 400.237605 
L 313.238677 553.834518 
L 313.45823 426.507905 
L 313.677783 545.440114 
L 313.897336 448.302037 
L 314.116889 525.538333 
L 314.336442 519.100587 
L 314.555996 523.324638 
L 314.995102 415.516673 
L 315.214655 496.061624 
L 315.434208 441.384693 
L 315.873315 511.788793 
L 316.092868 476.962959 
L 316.312421 483.919586 
L 316.531974 425.653416 
L 316.751527 463.749293 
L 316.97108 405.889491 
L 317.190633 471.953175 
L 317.410187 453.201925 
L 317.62974 549.00848 
L 318.068846 527.062479 
L 318.288399 497.435063 
L 318.507952 496.547817 
L 318.727506 514.870137 
L 318.947059 498.617945 
L 319.166612 442.173671 
L 319.386165 439.753438 
L 319.605718 376.818209 
L 320.044824 527.291292 
L 320.483931 424.878219 
L 320.703484 556.652065 
L 320.923037 471.297248 
L 321.14259 457.20327 
L 321.362143 516.104974 
L 321.581696 537.950579 
L 321.80125 477.947187 
L 322.020803 518.843807 
L 322.240356 505.516458 
L 322.459909 514.015201 
L 322.679462 540.848961 
L 322.899015 543.381008 
L 323.118569 353.31786 
L 323.338122 346.36364 
L 323.557675 454.593882 
L 323.777228 455.109873 
L 323.996781 456.578262 
L 324.216334 407.993724 
L 324.435887 541.763362 
L 324.655441 514.172669 
L 324.874994 536.112647 
L 325.094547 499.897232 
L 325.3141 531.229443 
L 325.533653 466.917912 
L 325.753206 523.848549 
L 325.97276 518.648001 
L 326.192313 525.564328 
L 326.411866 523.009908 
L 326.631419 554.720983 
L 326.850972 482.022874 
L 327.070525 523.041819 
L 327.290078 501.829023 
L 327.509632 502.997383 
L 327.729185 534.938128 
L 327.948738 531.622844 
L 328.168291 514.459744 
L 328.387844 524.256616 
L 328.607397 452.255786 
L 328.826951 444.108494 
L 329.046504 481.615744 
L 329.266057 482.579481 
L 329.48561 475.977079 
L 329.705163 496.302688 
L 330.144269 492.693924 
L 330.363823 508.024431 
L 330.802929 500.36401 
L 331.022482 475.104233 
L 331.242035 418.040865 
L 331.461588 567.923657 
L 331.681142 546.761859 
L 332.120248 427.08258 
L 332.339801 424.036105 
L 332.559354 492.172315 
L 332.778907 484.08444 
L 332.99846 416.923145 
L 333.218014 440.974906 
L 333.437567 527.831112 
L 333.65712 527.469317 
L 333.876673 516.884263 
L 334.096226 403.06347 
L 334.315779 540.270094 
L 334.754886 474.703572 
L 334.974439 505.154591 
L 335.193992 487.807603 
L 335.413545 494.32542 
L 335.633098 414.304217 
L 335.852651 521.69994 
L 336.072205 391.215161 
L 336.291758 498.997363 
L 336.511311 511.821002 
L 336.730864 560.572757 
L 336.950417 474.320307 
L 337.16997 517.839032 
L 337.389524 538.892351 
L 337.609077 498.54588 
L 337.82863 435.920257 
L 338.048183 542.939927 
L 338.267736 479.413622 
L 338.487289 502.695065 
L 338.706842 501.664095 
L 338.926396 489.624102 
L 339.145949 435.229511 
L 339.365502 465.4088 
L 339.585055 465.135051 
L 339.804608 505.297598 
L 340.024161 510.391496 
L 340.243715 452.692232 
L 340.682821 577.871346 
L 340.902374 488.834825 
L 341.121927 544.103371 
L 341.34148 468.030487 
L 341.561033 499.975085 
L 342.00014 525.037302 
L 342.219693 262.776264 
L 342.439246 503.570468 
L 342.658799 534.51914 
L 342.878352 468.580295 
L 343.097906 469.529213 
L 343.317459 453.463467 
L 343.537012 562.044098 
L 343.756565 521.733288 
L 343.976118 525.155794 
L 344.195671 411.812574 
L 344.415224 507.016899 
L 344.854331 412.80882 
L 345.073884 492.415171 
L 345.293437 417.846051 
L 345.51299 483.822018 
L 345.732543 465.579902 
L 345.952096 535.833559 
L 346.17165 532.028232 
L 346.391203 509.043999 
L 346.610756 529.48867 
L 346.830309 469.39039 
L 347.049862 483.043901 
L 347.269415 444.84178 
L 347.708522 557.522045 
L 347.928075 545.32093 
L 348.147628 498.045982 
L 348.367181 478.63295 
L 348.586734 475.999819 
L 348.806287 549.097487 
L 349.245394 465.891888 
L 349.464947 503.506 
L 349.6845 482.247221 
L 349.904053 379.275593 
L 350.123606 536.296402 
L 350.34316 510.09579 
L 350.562713 458.325797 
L 351.001819 550.200197 
L 351.221372 482.659323 
L 351.440925 492.106416 
L 351.660478 540.657576 
L 351.880032 556.988416 
L 352.319138 460.209514 
L 352.538691 385.688185 
L 352.758244 494.963458 
L 353.197351 515.939861 
L 353.416904 462.61249 
L 353.85601 572.867125 
L 354.075563 556.628477 
L 354.514669 470.365719 
L 354.734223 500.050591 
L 354.953776 564.455421 
L 355.173329 467.808329 
L 355.392882 482.672702 
L 355.612435 426.721849 
L 355.831988 532.218521 
L 356.051542 539.236498 
L 356.271095 561.694939 
L 356.490648 344.372235 
L 356.710201 473.417768 
L 356.929754 482.388476 
L 357.149307 519.889023 
L 357.36886 528.859161 
L 357.807967 479.850101 
L 358.02752 533.033827 
L 358.247073 488.313259 
L 358.686179 539.194266 
L 358.905733 387.47465 
L 359.125286 497.545676 
L 359.344839 496.480234 
L 359.564392 502.876804 
L 359.783945 552.17994 
L 360.003498 529.356861 
L 360.223051 541.057045 
L 360.442605 478.843714 
L 360.662158 536.860116 
L 360.881711 492.686515 
L 361.101264 520.84005 
L 361.54037 442.027231 
L 361.759924 538.381413 
L 361.979477 510.428969 
L 362.19903 535.076842 
L 362.638136 497.753838 
L 363.077242 400.413683 
L 363.516349 502.923766 
L 363.735902 349.356945 
L 363.955455 542.484315 
L 364.175008 550.00371 
L 364.394561 491.754494 
L 364.614115 486.178222 
L 365.053221 524.934088 
L 365.272774 365.372157 
L 365.492327 494.786269 
L 365.71188 535.853635 
L 365.931433 540.930181 
L 366.150987 532.411193 
L 366.37054 538.253759 
L 366.590093 531.111589 
L 366.809646 513.115444 
L 367.029199 514.520719 
L 367.468306 453.475814 
L 367.687859 492.77846 
L 367.907412 487.415396 
L 368.126965 491.623826 
L 368.346518 428.784285 
L 368.566071 552.200087 
L 368.785624 467.703929 
L 369.005178 548.763319 
L 369.224731 478.755398 
L 369.444284 527.097594 
L 369.663837 499.477372 
L 369.88339 556.231224 
L 370.102943 516.785304 
L 370.322497 548.498036 
L 370.761603 357.044459 
L 370.981156 546.732889 
L 371.200709 504.05571 
L 371.420262 508.540471 
L 371.639815 434.490252 
L 372.078922 523.867533 
L 372.298475 449.213948 
L 372.518028 511.930819 
L 372.737581 444.396763 
L 372.957134 556.929409 
L 373.176687 474.9974 
L 373.615794 521.825894 
L 373.835347 529.131985 
L 374.0549 385.524895 
L 374.274453 455.361467 
L 374.71356 489.054616 
L 374.933113 477.792499 
L 375.372219 543.238296 
L 375.591772 445.339172 
L 375.811325 538.19133 
L 376.030878 487.064426 
L 376.250432 477.705457 
L 376.689538 553.886834 
L 377.128644 495.276916 
L 377.348197 424.209542 
L 377.787304 464.586654 
L 378.006857 488.493835 
L 378.22641 481.230747 
L 378.445963 369.690919 
L 378.885069 520.172095 
L 379.104623 511.330103 
L 379.324176 533.344907 
L 379.543729 493.935222 
L 379.763282 532.564863 
L 379.982835 494.503011 
L 380.202388 559.343667 
L 380.421942 461.792944 
L 380.641495 459.295499 
L 380.861048 411.543918 
L 381.080601 462.217388 
L 381.300154 399.477132 
L 381.519707 500.739039 
L 381.73926 516.743005 
L 381.958814 494.352478 
L 382.178367 438.258502 
L 382.39792 549.584964 
L 382.617473 498.976501 
L 382.837026 557.449996 
L 383.056579 554.743491 
L 383.276133 347.263008 
L 383.715239 541.389665 
L 383.934792 531.32406 
L 384.154345 486.234197 
L 384.373898 503.799516 
L 384.593451 534.543675 
L 384.813005 532.098498 
L 385.032558 531.606579 
L 385.252111 497.941051 
L 385.471664 503.419957 
L 385.691217 474.020825 
L 385.91077 493.492786 
L 386.130324 547.37148 
L 386.349877 521.283064 
L 386.56943 466.801611 
L 386.788983 487.04959 
L 387.008536 484.639209 
L 387.228089 471.458918 
L 387.447642 472.523828 
L 387.667196 495.828544 
L 387.886749 486.097359 
L 388.106302 581.38839 
L 388.325855 508.963131 
L 388.545408 515.187208 
L 388.984515 550.489916 
L 389.423621 423.821394 
L 389.643174 533.011057 
L 389.862727 556.530724 
L 390.08228 518.965422 
L 390.301833 417.681939 
L 390.521387 527.707948 
L 390.74094 435.276985 
L 390.960493 485.886763 
L 391.399599 516.847357 
L 391.619152 474.36541 
L 391.838706 378.538848 
L 392.058259 532.756141 
L 392.277812 464.315506 
L 392.497365 488.913933 
L 392.716918 431.675178 
L 392.936471 550.349693 
L 393.156024 529.309125 
L 393.375578 398.476474 
L 393.595131 478.843951 
L 394.034237 511.637657 
L 394.25379 476.238837 
L 394.473343 506.631742 
L 394.692897 512.491834 
L 394.91245 558.319839 
L 395.132003 538.16297 
L 395.351556 492.248595 
L 395.571109 472.172653 
L 396.010215 521.744103 
L 396.229769 510.370092 
L 396.449322 533.418014 
L 396.668875 513.146543 
L 396.888428 464.086643 
L 397.107981 515.417082 
L 397.327534 481.644764 
L 397.547087 485.046288 
L 397.766641 457.567854 
L 398.205747 556.147055 
L 398.4253 463.877233 
L 398.864406 538.205808 
L 399.08396 483.31897 
L 399.303513 566.244607 
L 399.523066 541.004704 
L 399.742619 471.162592 
L 399.962172 446.464334 
L 400.181725 312.528979 
L 400.401278 362.218029 
L 400.620832 438.493701 
L 400.840385 554.240758 
L 401.059938 565.123682 
L 401.279491 489.65578 
L 401.499044 532.380018 
L 401.718597 434.626554 
L 401.938151 439.267494 
L 402.157704 517.796579 
L 402.59681 375.98304 
L 402.816363 433.56891 
L 403.035916 521.081048 
L 403.255469 515.959267 
L 403.475023 488.065479 
L 403.694576 507.221372 
L 403.914129 553.194431 
L 404.133682 353.903506 
L 404.353235 473.754667 
L 404.572788 495.144766 
L 404.792342 426.961525 
L 405.011895 434.199085 
L 405.231448 506.53156 
L 405.451001 500.542958 
L 405.670554 556.532258 
L 405.890107 464.451851 
L 406.10966 433.418442 
L 406.329214 521.551575 
L 406.548767 435.49279 
L 406.76832 472.500693 
L 406.987873 472.658722 
L 407.207426 516.879558 
L 407.426979 531.839866 
L 407.646533 496.850453 
L 407.866086 404.696106 
L 408.085639 381.397686 
L 408.305192 487.747381 
L 408.524745 533.827991 
L 408.744298 467.468273 
L 408.963851 493.455136 
L 409.183405 457.526152 
L 409.402958 502.451491 
L 409.842064 533.856124 
L 410.061617 543.426192 
L 410.28117 535.493561 
L 410.500724 536.439608 
L 410.720277 479.661314 
L 410.93983 491.636306 
L 411.159383 549.281197 
L 411.378936 531.301349 
L 411.598489 417.791181 
L 411.818042 516.943563 
L 412.037596 507.399824 
L 412.257149 482.460053 
L 412.476702 495.720019 
L 412.696255 560.442932 
L 412.915808 369.49657 
L 413.354915 554.504221 
L 413.574468 495.845697 
L 413.794021 468.667264 
L 414.013574 465.754056 
L 414.233127 471.637883 
L 414.45268 473.053598 
L 414.672233 531.724855 
L 414.891787 503.644131 
L 415.11134 544.002367 
L 415.330893 535.858624 
L 415.550446 501.373733 
L 415.769999 540.213972 
L 415.989552 494.675406 
L 416.209106 504.38957 
L 416.428659 520.695355 
L 416.648212 518.424606 
L 416.867765 470.837546 
L 417.087318 571.006839 
L 417.306871 502.715756 
L 417.745978 536.168492 
L 417.965531 486.82871 
L 418.185084 507.471986 
L 418.404637 557.511965 
L 418.62419 513.120871 
L 418.843743 532.261827 
L 419.063297 476.628304 
L 419.28285 465.918062 
L 419.502403 518.6835 
L 419.721956 448.279781 
L 419.941509 429.604603 
L 420.161062 477.593468 
L 420.380615 475.097249 
L 420.600169 469.648938 
L 420.819722 533.894586 
L 421.039275 539.018458 
L 421.258828 481.167062 
L 421.478381 467.280174 
L 421.697934 551.223705 
L 421.917488 470.306487 
L 422.137041 484.350211 
L 422.356594 390.909707 
L 422.576147 561.370805 
L 422.7957 505.446459 
L 423.015253 503.334649 
L 423.234806 503.678223 
L 423.673913 435.263704 
L 423.893466 449.392102 
L 424.113019 530.5221 
L 424.332572 561.121488 
L 424.552125 521.064065 
L 424.771678 519.239207 
L 424.991232 478.582946 
L 425.210785 475.199611 
L 425.430338 505.234209 
L 425.649891 454.441288 
L 425.869444 540.278991 
L 426.088997 553.932531 
L 426.308551 493.021052 
L 426.528104 508.015612 
L 426.96721 574.954008 
L 427.186763 472.085583 
L 427.406316 569.16453 
L 427.625869 466.122563 
L 427.845423 416.835081 
L 428.064976 525.406612 
L 428.284529 540.888628 
L 428.723635 434.385894 
L 428.943188 496.611376 
L 429.162742 448.369071 
L 429.601848 417.627115 
L 429.821401 515.455344 
L 430.040954 487.193295 
L 430.260507 477.096778 
L 430.48006 334.141407 
L 430.919167 546.924934 
L 431.13872 539.982767 
L 431.358273 496.25288 
L 431.797379 568.788574 
L 432.016933 513.642489 
L 432.236486 503.352873 
L 432.456039 552.095779 
L 432.675592 487.557415 
L 432.895145 481.003519 
L 433.114698 502.671641 
L 433.334251 487.170461 
L 433.553805 524.343751 
L 433.773358 416.405712 
L 433.992911 541.955974 
L 434.212464 558.17841 
L 434.432017 467.099915 
L 434.871124 572.694642 
L 435.090677 484.726122 
L 435.31023 457.700789 
L 435.529783 552.177713 
L 435.749336 571.956756 
L 435.968889 507.588733 
L 436.188442 531.21089 
L 436.407996 494.599812 
L 436.627549 489.015617 
L 436.847102 433.351781 
L 437.066655 496.317606 
L 437.286208 438.778118 
L 437.505761 484.632069 
L 437.725315 463.178315 
L 437.944868 474.986369 
L 438.164421 474.416869 
L 438.383974 362.06405 
L 438.603527 485.55844 
L 438.82308 492.95611 
L 439.042633 454.183208 
L 439.262187 492.533285 
L 439.48174 434.181753 
L 439.701293 498.267396 
L 439.920846 424.524617 
L 440.140399 469.950994 
L 440.359952 466.758615 
L 440.579506 456.739857 
L 440.799059 540.840888 
L 441.018612 487.416473 
L 441.238165 494.9836 
L 441.457718 453.92138 
L 441.677271 535.923073 
L 441.896824 545.523345 
L 442.116378 540.686703 
L 442.335931 511.257814 
L 442.555484 524.617698 
L 442.775037 420.703326 
L 442.99459 504.252747 
L 443.433697 555.941431 
L 443.872803 471.10955 
L 444.092356 479.532198 
L 444.311909 469.520766 
L 444.970569 532.852701 
L 445.190122 505.118171 
L 445.409675 540.226986 
L 446.068334 472.063046 
L 446.287888 505.989097 
L 446.507441 418.777364 
L 446.946547 527.481496 
L 447.1661 308.604897 
L 447.385653 532.892597 
L 447.605206 522.492711 
L 447.82476 524.307607 
L 448.044313 499.699792 
L 448.263866 564.959457 
L 448.483419 500.828198 
L 448.702972 471.759285 
L 448.922525 559.106762 
L 449.142079 503.507512 
L 449.361632 514.793869 
L 449.581185 517.368351 
L 449.800738 429.865373 
L 450.020291 460.308785 
L 450.239844 405.336428 
L 450.459397 539.458143 
L 450.678951 505.868469 
L 450.898504 503.781404 
L 451.118057 343.747331 
L 451.33761 496.995559 
L 451.557163 517.112774 
L 451.776716 517.718673 
L 452.215823 497.842149 
L 452.435376 499.819763 
L 452.654929 480.952502 
L 452.874482 411.207354 
L 453.094035 542.208919 
L 453.313588 451.063098 
L 453.533142 535.007096 
L 453.752695 493.878067 
L 453.972248 569.770533 
L 454.191801 481.850372 
L 454.630907 516.927649 
L 454.85046 516.892153 
L 455.289567 419.603241 
L 455.50912 434.856852 
L 455.728673 411.453643 
L 455.948226 525.019467 
L 456.167779 397.441152 
L 456.387333 522.678415 
L 456.606886 541.903663 
L 456.826439 497.430752 
L 457.045992 524.806819 
L 457.265545 450.410247 
L 457.485098 439.649991 
L 457.704651 549.813606 
L 458.143758 477.926522 
L 458.363311 532.089429 
L 458.582864 377.288013 
L 458.802417 482.039341 
L 459.02197 438.454346 
L 459.241524 477.689949 
L 459.461077 346.161867 
L 459.68063 401.859774 
L 460.119736 551.466498 
L 460.339289 542.85519 
L 460.778396 461.563887 
L 460.997949 526.907136 
L 461.217502 490.539398 
L 461.437055 482.769348 
L 461.656608 529.844928 
L 461.876161 504.193622 
L 462.095715 505.82484 
L 462.315268 500.662246 
L 462.534821 504.859249 
L 462.754374 471.831882 
L 462.973927 520.867487 
L 463.19348 498.44778 
L 463.413033 551.167542 
L 463.632587 517.731342 
L 463.85214 508.6435 
L 464.071693 433.91383 
L 464.291246 503.361424 
L 464.510799 522.897806 
L 464.949906 497.318322 
L 465.169459 497.891735 
L 465.389012 481.128072 
L 465.608565 564.235569 
L 465.828118 542.417405 
L 466.047671 485.233408 
L 466.267224 470.711162 
L 466.486778 571.681327 
L 466.706331 535.508698 
L 466.925884 546.657824 
L 467.145437 404.831744 
L 467.36499 550.844541 
L 467.584543 434.630646 
L 467.804097 539.997177 
L 468.02365 386.059102 
L 468.462756 454.230157 
L 468.682309 543.327801 
L 468.901862 463.050507 
L 469.121415 547.446766 
L 469.340969 538.010041 
L 469.560522 534.16451 
L 469.780075 543.818661 
L 469.999628 453.92672 
L 470.219181 521.445882 
L 470.438734 446.303881 
L 470.877841 558.863781 
L 471.097394 483.275099 
L 471.316947 556.753694 
L 471.5365 480.673066 
L 471.756053 507.380104 
L 472.19516 420.543114 
L 472.414713 509.646391 
L 472.634266 486.349036 
L 472.853819 514.043863 
L 473.073372 527.595516 
L 473.512479 362.947973 
L 473.732032 481.324686 
L 474.171138 509.820998 
L 474.390691 485.272563 
L 474.610244 533.077283 
L 475.049351 385.271151 
L 475.268904 558.337222 
L 475.488457 446.328246 
L 475.70801 453.237128 
L 475.927563 435.647095 
L 476.147116 490.393603 
L 476.366669 472.572677 
L 476.586223 441.971265 
L 476.805776 524.936413 
L 477.025329 494.813599 
L 477.464435 529.118208 
L 477.683988 456.793991 
L 477.903542 421.538518 
L 478.123095 482.143634 
L 478.342648 478.928248 
L 478.562201 527.844464 
L 478.781754 506.847933 
L 479.22086 489.74477 
L 479.440414 473.790103 
L 479.659967 395.72157 
L 479.87952 509.885571 
L 480.318626 459.846123 
L 480.538179 503.308875 
L 480.757733 477.447789 
L 481.196839 561.084166 
L 481.416392 533.58947 
L 481.635945 477.863773 
L 481.855498 474.843721 
L 482.294605 539.726372 
L 482.514158 511.050681 
L 482.733711 525.356551 
L 482.953264 342.301637 
L 483.172817 529.547758 
L 483.39237 526.993368 
L 483.611924 552.885644 
L 483.831477 518.317109 
L 484.05103 518.711902 
L 484.270583 489.351302 
L 484.490136 504.211431 
L 484.709689 456.206526 
L 484.929242 533.937807 
L 485.148796 516.256999 
L 485.368349 458.580029 
L 485.587902 460.462432 
L 485.807455 520.703855 
L 486.027008 535.620389 
L 486.246561 455.023035 
L 486.466115 508.83632 
L 486.685668 461.849391 
L 486.905221 438.960172 
L 487.124774 507.451215 
L 487.344327 466.287435 
L 487.56388 554.495975 
L 487.783433 515.318382 
L 488.002987 533.363443 
L 488.22254 515.762878 
L 488.442093 469.971825 
L 488.661646 531.183207 
L 488.881199 284.833244 
L 489.100752 544.31531 
L 489.320306 515.054749 
L 489.539859 519.871326 
L 489.759412 443.297212 
L 489.978965 496.1657 
L 490.198518 442.852292 
L 490.418071 483.843861 
L 490.637624 462.857036 
L 490.857178 527.67046 
L 491.076731 519.761169 
L 491.296284 488.802002 
L 491.515837 538.37853 
L 491.73539 464.020014 
L 491.954943 462.508056 
L 492.174497 489.087323 
L 492.39405 426.887447 
L 492.613603 449.026969 
L 492.833156 523.997533 
L 493.052709 505.24402 
L 493.272262 498.701822 
L 493.491815 497.307067 
L 493.711369 458.40309 
L 493.930922 448.134188 
L 494.150475 527.159748 
L 494.370028 362.913744 
L 494.589581 507.636265 
L 494.809134 531.512785 
L 495.248241 453.013926 
L 495.467794 523.812663 
L 495.687347 477.538538 
L 495.9069 553.138502 
L 496.346006 453.84871 
L 496.56556 489.071083 
L 496.785113 427.133359 
L 497.004666 557.338169 
L 497.224219 453.883527 
L 497.443772 428.933869 
L 497.663325 511.363116 
L 497.882879 501.075355 
L 498.102432 429.363746 
L 498.541538 556.430335 
L 498.761091 511.225626 
L 498.980644 520.582234 
L 499.200197 418.013005 
L 499.419751 519.10463 
L 499.639304 471.080146 
L 499.858857 476.096446 
L 500.07841 465.215035 
L 500.297963 400.814612 
L 500.517516 467.416627 
L 500.73707 476.505442 
L 500.956623 471.701852 
L 501.176176 562.752909 
L 501.395729 443.409179 
L 501.615282 529.680532 
L 501.834835 516.544943 
L 502.054388 484.902362 
L 502.493495 557.985253 
L 502.932601 532.590493 
L 503.152154 434.459403 
L 503.59126 522.199205 
L 503.810814 553.300728 
L 504.030367 550.89504 
L 504.24992 456.83967 
L 504.689026 562.080002 
L 505.347686 371.524759 
L 505.567239 482.183949 
L 505.786792 472.878293 
L 506.225898 506.745023 
L 506.445451 524.231839 
L 506.665005 500.41809 
L 506.884558 495.535342 
L 507.104111 501.740716 
L 507.323664 494.368044 
L 507.76277 521.191141 
L 507.982324 557.23157 
L 508.201877 477.626219 
L 508.42143 477.065286 
L 508.860536 536.746702 
L 509.299642 458.211939 
L 509.519196 565.729716 
L 509.738749 496.769411 
L 509.958302 554.231208 
L 510.177855 451.724422 
L 510.397408 528.885745 
L 510.616961 545.236918 
L 510.836515 546.676361 
L 511.056068 554.094346 
L 511.275621 549.445831 
L 511.495174 456.871451 
L 511.714727 565.560929 
L 512.153833 500.834967 
L 512.373387 341.842258 
L 512.59294 461.771766 
L 512.812493 428.05534 
L 513.032046 515.968217 
L 513.251599 461.298482 
L 513.471152 339.190367 
L 513.910259 525.394276 
L 514.129812 450.758538 
L 514.349365 534.748623 
L 514.568918 536.068554 
L 514.788471 286.075847 
L 515.008024 517.458021 
L 515.227578 495.986282 
L 515.447131 438.582578 
L 515.666684 493.479395 
L 515.886237 448.53469 
L 516.10579 443.440327 
L 516.325343 423.552021 
L 516.544897 498.711976 
L 516.76445 386.818789 
L 516.984003 497.027675 
L 517.203556 463.462566 
L 517.423109 555.620788 
L 517.642662 549.970428 
L 517.862215 521.832026 
L 518.081769 522.953646 
L 518.301322 550.182065 
L 518.520875 391.877594 
L 518.740428 513.91206 
L 518.959981 539.47392 
L 519.179534 524.058826 
L 519.399088 517.254544 
L 519.618641 529.427171 
L 519.838194 492.045923 
L 520.2773 366.880647 
L 520.716406 503.718328 
L 520.93596 514.556226 
L 521.155513 511.811226 
L 521.375066 514.72401 
L 521.594619 513.754798 
L 521.814172 475.39149 
L 522.033725 531.969303 
L 522.253279 489.90599 
L 522.472832 544.862141 
L 522.692385 416.979578 
L 522.911938 537.944154 
L 523.131491 553.025429 
L 523.351044 500.221823 
L 523.570597 483.875233 
L 523.790151 498.232175 
L 524.009704 537.777377 
L 524.229257 551.073601 
L 524.44881 449.406572 
L 524.668363 534.445745 
L 524.887916 464.329191 
L 525.10747 507.260338 
L 525.327023 505.258414 
L 525.546576 542.789834 
L 525.766129 444.641993 
L 525.985682 513.129582 
L 526.205235 537.809247 
L 526.863895 486.092063 
L 527.083448 489.175166 
L 527.303001 489.759171 
L 527.522554 505.571579 
L 527.96166 404.11846 
L 528.181214 505.363471 
L 528.62032 557.821632 
L 528.839873 336.598332 
L 529.059426 543.529737 
L 529.278979 331.645453 
L 529.498533 281.710472 
L 529.718086 469.463584 
L 529.937639 537.839844 
L 530.157192 451.570536 
L 530.376745 427.111465 
L 530.596298 549.105677 
L 530.815851 529.617889 
L 531.035405 456.637886 
L 531.254958 515.979714 
L 531.474511 542.113602 
L 531.694064 549.6539 
L 531.913617 544.420625 
L 532.13317 502.646636 
L 532.352724 491.265078 
L 532.572277 459.540308 
L 532.79183 458.333851 
L 533.011383 533.081178 
L 533.230936 505.914095 
L 533.450489 545.135294 
L 533.670042 513.720088 
L 533.889596 523.488072 
L 534.109149 431.315396 
L 534.328702 534.596715 
L 534.987361 473.919816 
L 535.206915 521.288282 
L 535.426468 415.657147 
L 535.646021 508.416187 
L 535.865574 451.151142 
L 536.085127 535.828082 
L 536.30468 541.530332 
L 536.524233 402.023249 
L 536.743787 521.081184 
L 536.96334 479.509842 
L 537.182893 548.575018 
L 537.402446 534.258877 
L 537.621999 317.458928 
L 537.841552 383.861325 
L 538.061106 405.623615 
L 538.280659 508.055947 
L 538.500212 488.856275 
L 538.719765 518.794294 
L 538.939318 461.690294 
L 539.158871 449.751862 
L 539.378424 573.591069 
L 539.597978 553.07355 
L 539.817531 439.238585 
L 540.037084 510.513457 
L 540.256637 482.615874 
L 540.47619 418.431899 
L 540.695743 493.626283 
L 540.915297 417.991926 
L 541.13485 459.601991 
L 541.354403 527.713241 
L 541.573956 459.943165 
L 541.793509 525.692345 
L 542.013062 428.276593 
L 542.232615 503.056418 
L 542.452169 526.069107 
L 542.671722 513.964336 
L 542.891275 467.970347 
L 543.110828 469.894058 
L 543.330381 484.846136 
L 543.549934 521.234857 
L 543.769488 536.959458 
L 543.989041 359.55001 
L 544.208594 412.139661 
L 544.428147 436.892138 
L 544.6477 502.508521 
L 544.867253 424.430196 
L 545.086806 419.376925 
L 545.30636 459.098985 
L 545.525913 379.338756 
L 545.745466 559.894474 
L 545.745466 559.894474 
" style="fill:none;stroke:#96c69a;stroke-linecap:round;stroke-width:3;"/>
   </g>
   <g id="line2d_2"/>
   <g id="patch_3">
    <path d="M 84.914375 603.86 
L 84.914375 109.484571 
" style="fill:none;stroke:#262626;stroke-linecap:square;stroke-linejoin:miter;stroke-width:2.5;"/>
   </g>
   <g id="patch_4">
    <path d="M 84.914375 603.86 
L 567.689804 603.86 
" style="fill:none;stroke:#262626;stroke-linecap:square;stroke-linejoin:miter;stroke-width:2.5;"/>
   </g>
   <g id="legend_1">
    <g id="patch_5">
     <path d="M 507.816366 598.86 
L 560.689804 598.86 
Q 562.689804 598.86 562.689804 596.86 
L 562.689804 554.954375 
Q 562.689804 552.954375 560.689804 552.954375 
L 507.816366 552.954375 
Q 505.816366 552.954375 505.816366 554.954375 
L 505.816366 596.86 
Q 505.816366 598.86 507.816366 598.86 
z
" style="fill:#ffffff;opacity:0.8;stroke:#cccccc;stroke-linejoin:miter;stroke-width:2;"/>
    </g>
    <g id="text_15">
     <!-- $n_\tau$ -->
     <g style="fill:#262626;" transform="translate(521.173085 575.190625)scale(0.24 -0.24)">
      <defs>
       <path d="M 3566 2113 
L 3156 0 
L 2578 0 
L 2988 2091 
Q 3016 2238 3031 2350 
Q 3047 2463 3047 2528 
Q 3047 2791 2881 2937 
Q 2716 3084 2419 3084 
Q 1956 3084 1622 2776 
Q 1288 2469 1184 1941 
L 800 0 
L 225 0 
L 903 3500 
L 1478 3500 
L 1363 2950 
Q 1603 3253 1940 3418 
Q 2278 3584 2650 3584 
Q 3113 3584 3367 3334 
Q 3622 3084 3622 2631 
Q 3622 2519 3608 2391 
Q 3594 2263 3566 2113 
z
" id="DejaVuSans-Oblique-6e" transform="scale(0.015625)"/>
       <path d="M 2103 638 
Q 2188 488 2525 488 
L 2800 488 
L 2706 0 
L 2363 0 
Q 1800 0 1600 300 
Q 1403 606 1534 1269 
L 1856 2925 
L 541 2925 
L 653 3500 
L 3881 3500 
L 3769 2925 
L 2444 2925 
L 2113 1234 
Q 2025 781 2103 638 
z
" id="DejaVuSans-Oblique-3c4" transform="scale(0.015625)"/>
      </defs>
      <use xlink:href="#DejaVuSans-Oblique-6e"/>
      <use transform="translate(63.378906 -16.40625)scale(0.7)" xlink:href="#DejaVuSans-Oblique-3c4"/>
     </g>
    </g>
    <g id="line2d_3">
     <path d="M 509.816366 589.280313 
L 529.816366 589.280313 
" style="fill:none;stroke:#96c69a;stroke-linecap:round;stroke-width:3;"/>
    </g>
    <g id="line2d_4"/>
    <g id="text_16">
     <!-- 100 -->
     <g style="fill:#262626;" transform="translate(537.816366 592.780313)scale(0.1 -0.1)">
      <defs>
       <path d="M 750 831 
L 1813 831 
L 1813 3847 
L 722 3622 
L 722 4441 
L 1806 4666 
L 2950 4666 
L 2950 831 
L 4013 831 
L 4013 0 
L 750 0 
L 750 831 
z
" id="DejaVuSans-Bold-31" transform="scale(0.015625)"/>
       <path d="M 2944 2338 
Q 2944 3213 2780 3570 
Q 2616 3928 2228 3928 
Q 1841 3928 1675 3570 
Q 1509 3213 1509 2338 
Q 1509 1453 1675 1090 
Q 1841 728 2228 728 
Q 2613 728 2778 1090 
Q 2944 1453 2944 2338 
z
M 4147 2328 
Q 4147 1169 3647 539 
Q 3147 -91 2228 -91 
Q 1306 -91 806 539 
Q 306 1169 306 2328 
Q 306 3491 806 4120 
Q 1306 4750 2228 4750 
Q 3147 4750 3647 4120 
Q 4147 3491 4147 2328 
z
" id="DejaVuSans-Bold-30" transform="scale(0.015625)"/>
      </defs>
      <use xlink:href="#DejaVuSans-Bold-31"/>
      <use x="69.580078" xlink:href="#DejaVuSans-Bold-30"/>
      <use x="139.160156" xlink:href="#DejaVuSans-Bold-30"/>
     </g>
    </g>
   </g>
  </g>
  <g id="axes_2">
   <g id="patch_6">
    <path d="M 84.914375 92.437143 
L 567.689804 92.437143 
L 567.689804 7.2 
L 84.914375 7.2 
z
" style="fill:none;"/>
   </g>
   <g id="matplotlib.axis_3">
    <g id="xtick_7"/>
    <g id="xtick_8"/>
    <g id="xtick_9"/>
    <g id="xtick_10"/>
    <g id="xtick_11"/>
    <g id="xtick_12"/>
   </g>
   <g id="matplotlib.axis_4">
    <g id="ytick_7">
     <g id="text_17">
      <!-- 0 -->
      <g style="fill:#262626;" transform="translate(55.416875 100.795424)scale(0.22 -0.22)">
       <use xlink:href="#DejaVuSans-30"/>
      </g>
     </g>
    </g>
    <g id="ytick_8">
     <g id="text_18">
      <!-- 100 -->
      <g style="fill:#262626;" transform="translate(27.421875 48.082287)scale(0.22 -0.22)">
       <use xlink:href="#DejaVuSans-31"/>
       <use x="63.623047" xlink:href="#DejaVuSans-30"/>
       <use x="127.246094" xlink:href="#DejaVuSans-30"/>
      </g>
     </g>
    </g>
   </g>
   <g id="patch_7">
    <path clip-path="url(#p727f113d5c)" d="M 106.858713 92.437143 
L 140.619232 92.437143 
L 140.619232 11.258912 
L 106.858713 11.258912 
z
" style="fill:#96c69a;fill-opacity:0.5;stroke:#ffffff;stroke-linejoin:miter;stroke-width:2;"/>
   </g>
   <g id="patch_8">
    <path clip-path="url(#p727f113d5c)" d="M 140.619232 92.437143 
L 174.379752 92.437143 
L 174.379752 11.258912 
L 140.619232 11.258912 
z
" style="fill:#96c69a;fill-opacity:0.5;stroke:#ffffff;stroke-linejoin:miter;stroke-width:2;"/>
   </g>
   <g id="patch_9">
    <path clip-path="url(#p727f113d5c)" d="M 174.379752 92.437143 
L 208.140271 92.437143 
L 208.140271 11.258912 
L 174.379752 11.258912 
z
" style="fill:#96c69a;fill-opacity:0.5;stroke:#ffffff;stroke-linejoin:miter;stroke-width:2;"/>
   </g>
   <g id="patch_10">
    <path clip-path="url(#p727f113d5c)" d="M 208.140271 92.437143 
L 241.900791 92.437143 
L 241.900791 11.258912 
L 208.140271 11.258912 
z
" style="fill:#96c69a;fill-opacity:0.5;stroke:#ffffff;stroke-linejoin:miter;stroke-width:2;"/>
   </g>
   <g id="patch_11">
    <path clip-path="url(#p727f113d5c)" d="M 241.900791 92.437143 
L 275.66131 92.437143 
L 275.66131 11.786043 
L 241.900791 11.786043 
z
" style="fill:#96c69a;fill-opacity:0.5;stroke:#ffffff;stroke-linejoin:miter;stroke-width:2;"/>
   </g>
   <g id="patch_12">
    <path clip-path="url(#p727f113d5c)" d="M 275.66131 92.437143 
L 309.42183 92.437143 
L 309.42183 11.258912 
L 275.66131 11.258912 
z
" style="fill:#96c69a;fill-opacity:0.5;stroke:#ffffff;stroke-linejoin:miter;stroke-width:2;"/>
   </g>
   <g id="patch_13">
    <path clip-path="url(#p727f113d5c)" d="M 309.42183 92.437143 
L 343.182349 92.437143 
L 343.182349 11.258912 
L 309.42183 11.258912 
z
" style="fill:#96c69a;fill-opacity:0.5;stroke:#ffffff;stroke-linejoin:miter;stroke-width:2;"/>
   </g>
   <g id="patch_14">
    <path clip-path="url(#p727f113d5c)" d="M 343.182349 92.437143 
L 376.942869 92.437143 
L 376.942869 11.258912 
L 343.182349 11.258912 
z
" style="fill:#96c69a;fill-opacity:0.5;stroke:#ffffff;stroke-linejoin:miter;stroke-width:2;"/>
   </g>
   <g id="patch_15">
    <path clip-path="url(#p727f113d5c)" d="M 376.942869 92.437143 
L 410.703388 92.437143 
L 410.703388 11.786043 
L 376.942869 11.786043 
z
" style="fill:#96c69a;fill-opacity:0.5;stroke:#ffffff;stroke-linejoin:miter;stroke-width:2;"/>
   </g>
   <g id="patch_16">
    <path clip-path="url(#p727f113d5c)" d="M 410.703388 92.437143 
L 444.463907 92.437143 
L 444.463907 11.258912 
L 410.703388 11.258912 
z
" style="fill:#96c69a;fill-opacity:0.5;stroke:#ffffff;stroke-linejoin:miter;stroke-width:2;"/>
   </g>
   <g id="patch_17">
    <path clip-path="url(#p727f113d5c)" d="M 444.463907 92.437143 
L 478.224427 92.437143 
L 478.224427 11.258912 
L 444.463907 11.258912 
z
" style="fill:#96c69a;fill-opacity:0.5;stroke:#ffffff;stroke-linejoin:miter;stroke-width:2;"/>
   </g>
   <g id="patch_18">
    <path clip-path="url(#p727f113d5c)" d="M 478.224427 92.437143 
L 511.984946 92.437143 
L 511.984946 11.258912 
L 478.224427 11.258912 
z
" style="fill:#96c69a;fill-opacity:0.5;stroke:#ffffff;stroke-linejoin:miter;stroke-width:2;"/>
   </g>
   <g id="patch_19">
    <path clip-path="url(#p727f113d5c)" d="M 511.984946 92.437143 
L 545.745466 92.437143 
L 545.745466 11.258912 
L 511.984946 11.258912 
z
" style="fill:#96c69a;fill-opacity:0.5;stroke:#ffffff;stroke-linejoin:miter;stroke-width:2;"/>
   </g>
   <g id="patch_20">
    <path d="M 84.914375 92.437143 
L 84.914375 7.2 
" style="fill:none;stroke:#262626;stroke-linecap:square;stroke-linejoin:miter;stroke-width:2.5;"/>
   </g>
   <g id="patch_21">
    <path d="M 84.914375 92.437143 
L 567.689804 92.437143 
" style="fill:none;stroke:#262626;stroke-linecap:square;stroke-linejoin:miter;stroke-width:2.5;"/>
   </g>
  </g>
  <g id="axes_3">
   <g id="patch_22">
    <path d="M 584.337232 603.86 
L 667.574375 603.86 
L 667.574375 109.484571 
L 584.337232 109.484571 
z
" style="fill:none;"/>
   </g>
   <g id="matplotlib.axis_5">
    <g id="xtick_13">
     <g id="text_19">
      <!-- 0 -->
      <g style="fill:#262626;" transform="translate(577.338482 636.076563)scale(0.22 -0.22)">
       <use xlink:href="#DejaVuSans-30"/>
      </g>
     </g>
    </g>
    <g id="xtick_14">
     <g id="text_20">
      <!-- 100 -->
      <g style="fill:#262626;" transform="translate(607.138479 636.076563)scale(0.22 -0.22)">
       <use xlink:href="#DejaVuSans-31"/>
       <use x="63.623047" xlink:href="#DejaVuSans-30"/>
       <use x="127.246094" xlink:href="#DejaVuSans-30"/>
      </g>
     </g>
    </g>
   </g>
   <g id="matplotlib.axis_6">
    <g id="ytick_9"/>
    <g id="ytick_10"/>
    <g id="ytick_11"/>
    <g id="ytick_12"/>
    <g id="ytick_13"/>
    <g id="ytick_14"/>
   </g>
   <g id="patch_23">
    <path clip-path="url(#pd7941a817f)" d="M 584.337232 581.38839 
L 588.279007 581.38839 
L 588.279007 571.826002 
L 584.337232 571.826002 
z
" style="fill:#96c69a;fill-opacity:0.5;stroke:#ffffff;stroke-linejoin:miter;stroke-width:0.956239;"/>
   </g>
   <g id="patch_24">
    <path clip-path="url(#pd7941a817f)" d="M 584.337232 571.826002 
L 596.600531 571.826002 
L 596.600531 562.263615 
L 584.337232 562.263615 
z
" style="fill:#96c69a;fill-opacity:0.5;stroke:#ffffff;stroke-linejoin:miter;stroke-width:0.956239;"/>
   </g>
   <g id="patch_25">
    <path clip-path="url(#pd7941a817f)" d="M 584.337232 562.263615 
L 618.49928 562.263615 
L 618.49928 552.701227 
L 584.337232 552.701227 
z
" style="fill:#96c69a;fill-opacity:0.5;stroke:#ffffff;stroke-linejoin:miter;stroke-width:0.956239;"/>
   </g>
   <g id="patch_26">
    <path clip-path="url(#pd7941a817f)" d="M 584.337232 552.701227 
L 631.200554 552.701227 
L 631.200554 543.13884 
L 584.337232 543.13884 
z
" style="fill:#96c69a;fill-opacity:0.5;stroke:#ffffff;stroke-linejoin:miter;stroke-width:0.956239;"/>
   </g>
   <g id="patch_27">
    <path clip-path="url(#pd7941a817f)" d="M 584.337232 543.13884 
L 648.281578 543.13884 
L 648.281578 533.576453 
L 584.337232 533.576453 
z
" style="fill:#96c69a;fill-opacity:0.5;stroke:#ffffff;stroke-linejoin:miter;stroke-width:0.956239;"/>
   </g>
   <g id="patch_28">
    <path clip-path="url(#pd7941a817f)" d="M 584.337232 533.576453 
L 659.668927 533.576453 
L 659.668927 524.014065 
L 584.337232 524.014065 
z
" style="fill:#96c69a;fill-opacity:0.5;stroke:#ffffff;stroke-linejoin:miter;stroke-width:0.956239;"/>
   </g>
   <g id="patch_29">
    <path clip-path="url(#pd7941a817f)" d="M 584.337232 524.014065 
L 663.610702 524.014065 
L 663.610702 514.451678 
L 584.337232 514.451678 
z
" style="fill:#96c69a;fill-opacity:0.5;stroke:#ffffff;stroke-linejoin:miter;stroke-width:0.956239;"/>
   </g>
   <g id="patch_30">
    <path clip-path="url(#pd7941a817f)" d="M 584.337232 514.451678 
L 653.099302 514.451678 
L 653.099302 504.88929 
L 584.337232 504.88929 
z
" style="fill:#96c69a;fill-opacity:0.5;stroke:#ffffff;stroke-linejoin:miter;stroke-width:0.956239;"/>
   </g>
   <g id="patch_31">
    <path clip-path="url(#pd7941a817f)" d="M 584.337232 504.88929 
L 660.544877 504.88929 
L 660.544877 495.326903 
L 584.337232 495.326903 
z
" style="fill:#96c69a;fill-opacity:0.5;stroke:#ffffff;stroke-linejoin:miter;stroke-width:0.956239;"/>
   </g>
   <g id="patch_32">
    <path clip-path="url(#pd7941a817f)" d="M 584.337232 495.326903 
L 659.668927 495.326903 
L 659.668927 485.764516 
L 584.337232 485.764516 
z
" style="fill:#96c69a;fill-opacity:0.5;stroke:#ffffff;stroke-linejoin:miter;stroke-width:0.956239;"/>
   </g>
   <g id="patch_33">
    <path clip-path="url(#pd7941a817f)" d="M 584.337232 485.764516 
L 646.967653 485.764516 
L 646.967653 476.202128 
L 584.337232 476.202128 
z
" style="fill:#96c69a;fill-opacity:0.5;stroke:#ffffff;stroke-linejoin:miter;stroke-width:0.956239;"/>
   </g>
   <g id="patch_34">
    <path clip-path="url(#pd7941a817f)" d="M 584.337232 476.202128 
L 639.522078 476.202128 
L 639.522078 466.639741 
L 584.337232 466.639741 
z
" style="fill:#96c69a;fill-opacity:0.5;stroke:#ffffff;stroke-linejoin:miter;stroke-width:0.956239;"/>
   </g>
   <g id="patch_35">
    <path clip-path="url(#pd7941a817f)" d="M 584.337232 466.639741 
L 626.820804 466.639741 
L 626.820804 457.077353 
L 584.337232 457.077353 
z
" style="fill:#96c69a;fill-opacity:0.5;stroke:#ffffff;stroke-linejoin:miter;stroke-width:0.956239;"/>
   </g>
   <g id="patch_36">
    <path clip-path="url(#pd7941a817f)" d="M 584.337232 457.077353 
L 617.185355 457.077353 
L 617.185355 447.514966 
L 584.337232 447.514966 
z
" style="fill:#96c69a;fill-opacity:0.5;stroke:#ffffff;stroke-linejoin:miter;stroke-width:0.956239;"/>
   </g>
   <g id="patch_37">
    <path clip-path="url(#pd7941a817f)" d="M 584.337232 447.514966 
L 611.053705 447.514966 
L 611.053705 437.952579 
L 584.337232 437.952579 
z
" style="fill:#96c69a;fill-opacity:0.5;stroke:#ffffff;stroke-linejoin:miter;stroke-width:0.956239;"/>
   </g>
   <g id="patch_38">
    <path clip-path="url(#pd7941a817f)" d="M 584.337232 437.952579 
L 611.053705 437.952579 
L 611.053705 428.390191 
L 584.337232 428.390191 
z
" style="fill:#96c69a;fill-opacity:0.5;stroke:#ffffff;stroke-linejoin:miter;stroke-width:0.956239;"/>
   </g>
   <g id="patch_39">
    <path clip-path="url(#pd7941a817f)" d="M 584.337232 428.390191 
L 604.484081 428.390191 
L 604.484081 418.827804 
L 584.337232 418.827804 
z
" style="fill:#96c69a;fill-opacity:0.5;stroke:#ffffff;stroke-linejoin:miter;stroke-width:0.956239;"/>
   </g>
   <g id="patch_40">
    <path clip-path="url(#pd7941a817f)" d="M 584.337232 418.827804 
L 602.732181 418.827804 
L 602.732181 409.265416 
L 584.337232 409.265416 
z
" style="fill:#96c69a;fill-opacity:0.5;stroke:#ffffff;stroke-linejoin:miter;stroke-width:0.956239;"/>
   </g>
   <g id="patch_41">
    <path clip-path="url(#pd7941a817f)" d="M 584.337232 409.265416 
L 596.600531 409.265416 
L 596.600531 399.703029 
L 584.337232 399.703029 
z
" style="fill:#96c69a;fill-opacity:0.5;stroke:#ffffff;stroke-linejoin:miter;stroke-width:0.956239;"/>
   </g>
   <g id="patch_42">
    <path clip-path="url(#pd7941a817f)" d="M 584.337232 399.703029 
L 590.906857 399.703029 
L 590.906857 390.140642 
L 584.337232 390.140642 
z
" style="fill:#96c69a;fill-opacity:0.5;stroke:#ffffff;stroke-linejoin:miter;stroke-width:0.956239;"/>
   </g>
   <g id="patch_43">
    <path clip-path="url(#pd7941a817f)" d="M 584.337232 390.140642 
L 592.658757 390.140642 
L 592.658757 380.578254 
L 584.337232 380.578254 
z
" style="fill:#96c69a;fill-opacity:0.5;stroke:#ffffff;stroke-linejoin:miter;stroke-width:0.956239;"/>
   </g>
   <g id="patch_44">
    <path clip-path="url(#pd7941a817f)" d="M 584.337232 380.578254 
L 590.906857 380.578254 
L 590.906857 371.015867 
L 584.337232 371.015867 
z
" style="fill:#96c69a;fill-opacity:0.5;stroke:#ffffff;stroke-linejoin:miter;stroke-width:0.956239;"/>
   </g>
   <g id="patch_45">
    <path clip-path="url(#pd7941a817f)" d="M 584.337232 371.015867 
L 591.344832 371.015867 
L 591.344832 361.453479 
L 584.337232 361.453479 
z
" style="fill:#96c69a;fill-opacity:0.5;stroke:#ffffff;stroke-linejoin:miter;stroke-width:0.956239;"/>
   </g>
   <g id="patch_46">
    <path clip-path="url(#pd7941a817f)" d="M 584.337232 361.453479 
L 587.403057 361.453479 
L 587.403057 351.891092 
L 584.337232 351.891092 
z
" style="fill:#96c69a;fill-opacity:0.5;stroke:#ffffff;stroke-linejoin:miter;stroke-width:0.956239;"/>
   </g>
   <g id="patch_47">
    <path clip-path="url(#pd7941a817f)" d="M 584.337232 351.891092 
L 587.841032 351.891092 
L 587.841032 342.328705 
L 584.337232 342.328705 
z
" style="fill:#96c69a;fill-opacity:0.5;stroke:#ffffff;stroke-linejoin:miter;stroke-width:0.956239;"/>
   </g>
   <g id="patch_48">
    <path clip-path="url(#pd7941a817f)" d="M 584.337232 342.328705 
L 586.965082 342.328705 
L 586.965082 332.766317 
L 584.337232 332.766317 
z
" style="fill:#96c69a;fill-opacity:0.5;stroke:#ffffff;stroke-linejoin:miter;stroke-width:0.956239;"/>
   </g>
   <g id="patch_49">
    <path clip-path="url(#pd7941a817f)" d="M 584.337232 332.766317 
L 584.775207 332.766317 
L 584.775207 323.20393 
L 584.337232 323.20393 
z
" style="fill:#96c69a;fill-opacity:0.5;stroke:#ffffff;stroke-linejoin:miter;stroke-width:0.956239;"/>
   </g>
   <g id="patch_50">
    <path clip-path="url(#pd7941a817f)" d="M 584.337232 323.20393 
L 585.213182 323.20393 
L 585.213182 313.641542 
L 584.337232 313.641542 
z
" style="fill:#96c69a;fill-opacity:0.5;stroke:#ffffff;stroke-linejoin:miter;stroke-width:0.956239;"/>
   </g>
   <g id="patch_51">
    <path clip-path="url(#pd7941a817f)" d="M 584.337232 313.641542 
L 585.213182 313.641542 
L 585.213182 304.079155 
L 584.337232 304.079155 
z
" style="fill:#96c69a;fill-opacity:0.5;stroke:#ffffff;stroke-linejoin:miter;stroke-width:0.956239;"/>
   </g>
   <g id="patch_52">
    <path clip-path="url(#pd7941a817f)" d="M 584.337232 304.079155 
L 584.337232 304.079155 
L 584.337232 294.516768 
L 584.337232 294.516768 
z
" style="fill:#96c69a;fill-opacity:0.5;stroke:#ffffff;stroke-linejoin:miter;stroke-width:0.956239;"/>
   </g>
   <g id="patch_53">
    <path clip-path="url(#pd7941a817f)" d="M 584.337232 294.516768 
L 584.775207 294.516768 
L 584.775207 284.95438 
L 584.337232 284.95438 
z
" style="fill:#96c69a;fill-opacity:0.5;stroke:#ffffff;stroke-linejoin:miter;stroke-width:0.956239;"/>
   </g>
   <g id="patch_54">
    <path clip-path="url(#pd7941a817f)" d="M 584.337232 284.95438 
L 585.213182 284.95438 
L 585.213182 275.391993 
L 584.337232 275.391993 
z
" style="fill:#96c69a;fill-opacity:0.5;stroke:#ffffff;stroke-linejoin:miter;stroke-width:0.956239;"/>
   </g>
   <g id="patch_55">
    <path clip-path="url(#pd7941a817f)" d="M 584.337232 275.391993 
L 584.337232 275.391993 
L 584.337232 265.829605 
L 584.337232 265.829605 
z
" style="fill:#96c69a;fill-opacity:0.5;stroke:#ffffff;stroke-linejoin:miter;stroke-width:0.956239;"/>
   </g>
   <g id="patch_56">
    <path clip-path="url(#pd7941a817f)" d="M 584.337232 265.829605 
L 584.775207 265.829605 
L 584.775207 256.267218 
L 584.337232 256.267218 
z
" style="fill:#96c69a;fill-opacity:0.5;stroke:#ffffff;stroke-linejoin:miter;stroke-width:0.956239;"/>
   </g>
   <g id="patch_57">
    <path clip-path="url(#pd7941a817f)" d="M 584.337232 256.267218 
L 584.337232 256.267218 
L 584.337232 246.704831 
L 584.337232 246.704831 
z
" style="fill:#96c69a;fill-opacity:0.5;stroke:#ffffff;stroke-linejoin:miter;stroke-width:0.956239;"/>
   </g>
   <g id="patch_58">
    <path clip-path="url(#pd7941a817f)" d="M 584.337232 246.704831 
L 584.337232 246.704831 
L 584.337232 237.142443 
L 584.337232 237.142443 
z
" style="fill:#96c69a;fill-opacity:0.5;stroke:#ffffff;stroke-linejoin:miter;stroke-width:0.956239;"/>
   </g>
   <g id="patch_59">
    <path clip-path="url(#pd7941a817f)" d="M 584.337232 237.142443 
L 584.775207 237.142443 
L 584.775207 227.580056 
L 584.337232 227.580056 
z
" style="fill:#96c69a;fill-opacity:0.5;stroke:#ffffff;stroke-linejoin:miter;stroke-width:0.956239;"/>
   </g>
   <g id="patch_60">
    <path clip-path="url(#pd7941a817f)" d="M 584.337232 227.580056 
L 584.337232 227.580056 
L 584.337232 218.017668 
L 584.337232 218.017668 
z
" style="fill:#96c69a;fill-opacity:0.5;stroke:#ffffff;stroke-linejoin:miter;stroke-width:0.956239;"/>
   </g>
   <g id="patch_61">
    <path clip-path="url(#pd7941a817f)" d="M 584.337232 218.017668 
L 584.337232 218.017668 
L 584.337232 208.455281 
L 584.337232 208.455281 
z
" style="fill:#96c69a;fill-opacity:0.5;stroke:#ffffff;stroke-linejoin:miter;stroke-width:0.956239;"/>
   </g>
   <g id="patch_62">
    <path clip-path="url(#pd7941a817f)" d="M 584.337232 208.455281 
L 584.337232 208.455281 
L 584.337232 198.892894 
L 584.337232 198.892894 
z
" style="fill:#96c69a;fill-opacity:0.5;stroke:#ffffff;stroke-linejoin:miter;stroke-width:0.956239;"/>
   </g>
   <g id="patch_63">
    <path clip-path="url(#pd7941a817f)" d="M 584.337232 198.892894 
L 584.337232 198.892894 
L 584.337232 189.330506 
L 584.337232 189.330506 
z
" style="fill:#96c69a;fill-opacity:0.5;stroke:#ffffff;stroke-linejoin:miter;stroke-width:0.956239;"/>
   </g>
   <g id="patch_64">
    <path clip-path="url(#pd7941a817f)" d="M 584.337232 189.330506 
L 584.337232 189.330506 
L 584.337232 179.768119 
L 584.337232 179.768119 
z
" style="fill:#96c69a;fill-opacity:0.5;stroke:#ffffff;stroke-linejoin:miter;stroke-width:0.956239;"/>
   </g>
   <g id="patch_65">
    <path clip-path="url(#pd7941a817f)" d="M 584.337232 179.768119 
L 584.337232 179.768119 
L 584.337232 170.205731 
L 584.337232 170.205731 
z
" style="fill:#96c69a;fill-opacity:0.5;stroke:#ffffff;stroke-linejoin:miter;stroke-width:0.956239;"/>
   </g>
   <g id="patch_66">
    <path clip-path="url(#pd7941a817f)" d="M 584.337232 170.205731 
L 584.337232 170.205731 
L 584.337232 160.643344 
L 584.337232 160.643344 
z
" style="fill:#96c69a;fill-opacity:0.5;stroke:#ffffff;stroke-linejoin:miter;stroke-width:0.956239;"/>
   </g>
   <g id="patch_67">
    <path clip-path="url(#pd7941a817f)" d="M 584.337232 160.643344 
L 584.337232 160.643344 
L 584.337232 151.080957 
L 584.337232 151.080957 
z
" style="fill:#96c69a;fill-opacity:0.5;stroke:#ffffff;stroke-linejoin:miter;stroke-width:0.956239;"/>
   </g>
   <g id="patch_68">
    <path clip-path="url(#pd7941a817f)" d="M 584.337232 151.080957 
L 584.337232 151.080957 
L 584.337232 141.518569 
L 584.337232 141.518569 
z
" style="fill:#96c69a;fill-opacity:0.5;stroke:#ffffff;stroke-linejoin:miter;stroke-width:0.956239;"/>
   </g>
   <g id="patch_69">
    <path clip-path="url(#pd7941a817f)" d="M 584.337232 141.518569 
L 584.775207 141.518569 
L 584.775207 131.956182 
L 584.337232 131.956182 
z
" style="fill:#96c69a;fill-opacity:0.5;stroke:#ffffff;stroke-linejoin:miter;stroke-width:0.956239;"/>
   </g>
   <g id="patch_70">
    <path d="M 584.337232 603.86 
L 584.337232 109.484571 
" style="fill:none;stroke:#262626;stroke-linecap:square;stroke-linejoin:miter;stroke-width:2.5;"/>
   </g>
   <g id="patch_71">
    <path d="M 584.337232 603.86 
L 667.574375 603.86 
" style="fill:none;stroke:#262626;stroke-linecap:square;stroke-linejoin:miter;stroke-width:2.5;"/>
   </g>
  </g>
 </g>
 <defs>
  <clipPath id="p7951fc7fe8">
   <rect height="494.375429" width="482.775429" x="84.914375" y="109.484571"/>
  </clipPath>
  <clipPath id="p727f113d5c">
   <rect height="85.237143" width="482.775429" x="84.914375" y="7.2"/>
  </clipPath>
  <clipPath id="pd7941a817f">
   <rect height="494.375429" width="83.237143" x="584.337232" y="109.484571"/>
  </clipPath>
 </defs>
</svg>
