<?xml version="1.0" encoding="utf-8" standalone="no"?>
<!DOCTYPE svg PUBLIC "-//W3C//DTD SVG 1.1//EN"
  "http://www.w3.org/Graphics/SVG/1.1/DTD/svg11.dtd">
<svg height="675.079375pt" version="1.1" viewBox="0 0 674.774375 675.079375" width="674.774375pt" xmlns="http://www.w3.org/2000/svg" xmlns:xlink="http://www.w3.org/1999/xlink">
 <metadata>
  <rdf:RDF xmlns:cc="http://creativecommons.org/ns#" xmlns:dc="http://purl.org/dc/elements/1.1/" xmlns:rdf="http://www.w3.org/1999/02/22-rdf-syntax-ns#">
   <cc:Work>
    <dc:type rdf:resource="http://purl.org/dc/dcmitype/StillImage"/>
    <dc:date>2021-07-16T21:44:04.867224</dc:date>
    <dc:format>image/svg+xml</dc:format>
    <dc:creator>
     <cc:Agent>
      <dc:title>Matplotlib v3.4.2, https://matplotlib.org/</dc:title>
     </cc:Agent>
    </dc:creator>
   </cc:Work>
  </rdf:RDF>
 </metadata>
 <defs>
  <style type="text/css">*{stroke-linecap:butt;stroke-linejoin:round;}</style>
 </defs>
 <g id="figure_1">
  <g id="patch_1">
   <path d="M 0 675.079375 
L 674.774375 675.079375 
L 674.774375 0 
L 0 0 
z
" style="fill:#ffffff;"/>
  </g>
  <g id="axes_1">
   <g id="patch_2">
    <path d="M 84.914375 603.86 
L 567.689804 603.86 
L 567.689804 109.484571 
L 84.914375 109.484571 
z
" style="fill:none;"/>
   </g>
   <g id="matplotlib.axis_1">
    <g id="xtick_1">
     <g id="text_1">
      <!-- 0 -->
      <g style="fill:#262626;" transform="translate(99.64041 636.076563)scale(0.22 -0.22)">
       <defs>
        <path d="M 2034 4250 
Q 1547 4250 1301 3770 
Q 1056 3291 1056 2328 
Q 1056 1369 1301 889 
Q 1547 409 2034 409 
Q 2525 409 2770 889 
Q 3016 1369 3016 2328 
Q 3016 3291 2770 3770 
Q 2525 4250 2034 4250 
z
M 2034 4750 
Q 2819 4750 3233 4129 
Q 3647 3509 3647 2328 
Q 3647 1150 3233 529 
Q 2819 -91 2034 -91 
Q 1250 -91 836 529 
Q 422 1150 422 2328 
Q 422 3509 836 4129 
Q 1250 4750 2034 4750 
z
" id="DejaVuSans-30" transform="scale(0.015625)"/>
       </defs>
       <use xlink:href="#DejaVuSans-30"/>
      </g>
     </g>
    </g>
    <g id="xtick_2">
     <g id="text_2">
      <!-- 20000 -->
      <g style="fill:#262626;" transform="translate(159.466671 636.076563)scale(0.22 -0.22)">
       <defs>
        <path d="M 1228 531 
L 3431 531 
L 3431 0 
L 469 0 
L 469 531 
Q 828 903 1448 1529 
Q 2069 2156 2228 2338 
Q 2531 2678 2651 2914 
Q 2772 3150 2772 3378 
Q 2772 3750 2511 3984 
Q 2250 4219 1831 4219 
Q 1534 4219 1204 4116 
Q 875 4013 500 3803 
L 500 4441 
Q 881 4594 1212 4672 
Q 1544 4750 1819 4750 
Q 2544 4750 2975 4387 
Q 3406 4025 3406 3419 
Q 3406 3131 3298 2873 
Q 3191 2616 2906 2266 
Q 2828 2175 2409 1742 
Q 1991 1309 1228 531 
z
" id="DejaVuSans-32" transform="scale(0.015625)"/>
       </defs>
       <use xlink:href="#DejaVuSans-32"/>
       <use x="63.623047" xlink:href="#DejaVuSans-30"/>
       <use x="127.246094" xlink:href="#DejaVuSans-30"/>
       <use x="190.869141" xlink:href="#DejaVuSans-30"/>
       <use x="254.492188" xlink:href="#DejaVuSans-30"/>
      </g>
     </g>
    </g>
    <g id="xtick_3">
     <g id="text_3">
      <!-- 40000 -->
      <g style="fill:#262626;" transform="translate(247.287932 636.076563)scale(0.22 -0.22)">
       <defs>
        <path d="M 2419 4116 
L 825 1625 
L 2419 1625 
L 2419 4116 
z
M 2253 4666 
L 3047 4666 
L 3047 1625 
L 3713 1625 
L 3713 1100 
L 3047 1100 
L 3047 0 
L 2419 0 
L 2419 1100 
L 313 1100 
L 313 1709 
L 2253 4666 
z
" id="DejaVuSans-34" transform="scale(0.015625)"/>
       </defs>
       <use xlink:href="#DejaVuSans-34"/>
       <use x="63.623047" xlink:href="#DejaVuSans-30"/>
       <use x="127.246094" xlink:href="#DejaVuSans-30"/>
       <use x="190.869141" xlink:href="#DejaVuSans-30"/>
       <use x="254.492188" xlink:href="#DejaVuSans-30"/>
      </g>
     </g>
    </g>
    <g id="xtick_4">
     <g id="text_4">
      <!-- 60000 -->
      <g style="fill:#262626;" transform="translate(335.109193 636.076563)scale(0.22 -0.22)">
       <defs>
        <path d="M 2113 2584 
Q 1688 2584 1439 2293 
Q 1191 2003 1191 1497 
Q 1191 994 1439 701 
Q 1688 409 2113 409 
Q 2538 409 2786 701 
Q 3034 994 3034 1497 
Q 3034 2003 2786 2293 
Q 2538 2584 2113 2584 
z
M 3366 4563 
L 3366 3988 
Q 3128 4100 2886 4159 
Q 2644 4219 2406 4219 
Q 1781 4219 1451 3797 
Q 1122 3375 1075 2522 
Q 1259 2794 1537 2939 
Q 1816 3084 2150 3084 
Q 2853 3084 3261 2657 
Q 3669 2231 3669 1497 
Q 3669 778 3244 343 
Q 2819 -91 2113 -91 
Q 1303 -91 875 529 
Q 447 1150 447 2328 
Q 447 3434 972 4092 
Q 1497 4750 2381 4750 
Q 2619 4750 2861 4703 
Q 3103 4656 3366 4563 
z
" id="DejaVuSans-36" transform="scale(0.015625)"/>
       </defs>
       <use xlink:href="#DejaVuSans-36"/>
       <use x="63.623047" xlink:href="#DejaVuSans-30"/>
       <use x="127.246094" xlink:href="#DejaVuSans-30"/>
       <use x="190.869141" xlink:href="#DejaVuSans-30"/>
       <use x="254.492188" xlink:href="#DejaVuSans-30"/>
      </g>
     </g>
    </g>
    <g id="xtick_5">
     <g id="text_5">
      <!-- 80000 -->
      <g style="fill:#262626;" transform="translate(422.930455 636.076563)scale(0.22 -0.22)">
       <defs>
        <path d="M 2034 2216 
Q 1584 2216 1326 1975 
Q 1069 1734 1069 1313 
Q 1069 891 1326 650 
Q 1584 409 2034 409 
Q 2484 409 2743 651 
Q 3003 894 3003 1313 
Q 3003 1734 2745 1975 
Q 2488 2216 2034 2216 
z
M 1403 2484 
Q 997 2584 770 2862 
Q 544 3141 544 3541 
Q 544 4100 942 4425 
Q 1341 4750 2034 4750 
Q 2731 4750 3128 4425 
Q 3525 4100 3525 3541 
Q 3525 3141 3298 2862 
Q 3072 2584 2669 2484 
Q 3125 2378 3379 2068 
Q 3634 1759 3634 1313 
Q 3634 634 3220 271 
Q 2806 -91 2034 -91 
Q 1263 -91 848 271 
Q 434 634 434 1313 
Q 434 1759 690 2068 
Q 947 2378 1403 2484 
z
M 1172 3481 
Q 1172 3119 1398 2916 
Q 1625 2713 2034 2713 
Q 2441 2713 2670 2916 
Q 2900 3119 2900 3481 
Q 2900 3844 2670 4047 
Q 2441 4250 2034 4250 
Q 1625 4250 1398 4047 
Q 1172 3844 1172 3481 
z
" id="DejaVuSans-38" transform="scale(0.015625)"/>
       </defs>
       <use xlink:href="#DejaVuSans-38"/>
       <use x="63.623047" xlink:href="#DejaVuSans-30"/>
       <use x="127.246094" xlink:href="#DejaVuSans-30"/>
       <use x="190.869141" xlink:href="#DejaVuSans-30"/>
       <use x="254.492188" xlink:href="#DejaVuSans-30"/>
      </g>
     </g>
    </g>
    <g id="xtick_6">
     <g id="text_6">
      <!-- 100000 -->
      <g style="fill:#262626;" transform="translate(503.752966 636.076563)scale(0.22 -0.22)">
       <defs>
        <path d="M 794 531 
L 1825 531 
L 1825 4091 
L 703 3866 
L 703 4441 
L 1819 4666 
L 2450 4666 
L 2450 531 
L 3481 531 
L 3481 0 
L 794 0 
L 794 531 
z
" id="DejaVuSans-31" transform="scale(0.015625)"/>
       </defs>
       <use xlink:href="#DejaVuSans-31"/>
       <use x="63.623047" xlink:href="#DejaVuSans-30"/>
       <use x="127.246094" xlink:href="#DejaVuSans-30"/>
       <use x="190.869141" xlink:href="#DejaVuSans-30"/>
       <use x="254.492188" xlink:href="#DejaVuSans-30"/>
       <use x="318.115234" xlink:href="#DejaVuSans-30"/>
      </g>
     </g>
    </g>
    <g id="text_7">
     <!-- MDTU -->
     <g style="fill:#262626;" transform="translate(290.596464 662.888125)scale(0.24 -0.24)">
      <defs>
       <path d="M 628 4666 
L 1569 4666 
L 2759 1491 
L 3956 4666 
L 4897 4666 
L 4897 0 
L 4281 0 
L 4281 4097 
L 3078 897 
L 2444 897 
L 1241 4097 
L 1241 0 
L 628 0 
L 628 4666 
z
" id="DejaVuSans-4d" transform="scale(0.015625)"/>
       <path d="M 1259 4147 
L 1259 519 
L 2022 519 
Q 2988 519 3436 956 
Q 3884 1394 3884 2338 
Q 3884 3275 3436 3711 
Q 2988 4147 2022 4147 
L 1259 4147 
z
M 628 4666 
L 1925 4666 
Q 3281 4666 3915 4102 
Q 4550 3538 4550 2338 
Q 4550 1131 3912 565 
Q 3275 0 1925 0 
L 628 0 
L 628 4666 
z
" id="DejaVuSans-44" transform="scale(0.015625)"/>
       <path d="M -19 4666 
L 3928 4666 
L 3928 4134 
L 2272 4134 
L 2272 0 
L 1638 0 
L 1638 4134 
L -19 4134 
L -19 4666 
z
" id="DejaVuSans-54" transform="scale(0.015625)"/>
       <path d="M 556 4666 
L 1191 4666 
L 1191 1831 
Q 1191 1081 1462 751 
Q 1734 422 2344 422 
Q 2950 422 3222 751 
Q 3494 1081 3494 1831 
L 3494 4666 
L 4128 4666 
L 4128 1753 
Q 4128 841 3676 375 
Q 3225 -91 2344 -91 
Q 1459 -91 1007 375 
Q 556 841 556 1753 
L 556 4666 
z
" id="DejaVuSans-55" transform="scale(0.015625)"/>
      </defs>
      <use xlink:href="#DejaVuSans-4d"/>
      <use x="86.279297" xlink:href="#DejaVuSans-44"/>
      <use x="163.28125" xlink:href="#DejaVuSans-54"/>
      <use x="224.365234" xlink:href="#DejaVuSans-55"/>
     </g>
    </g>
   </g>
   <g id="matplotlib.axis_2">
    <g id="ytick_1">
     <g id="text_8">
      <!-- 0.4 -->
      <g style="fill:#262626;" transform="translate(34.4275 575.376619)scale(0.22 -0.22)">
       <defs>
        <path d="M 684 794 
L 1344 794 
L 1344 0 
L 684 0 
L 684 794 
z
" id="DejaVuSans-2e" transform="scale(0.015625)"/>
       </defs>
       <use xlink:href="#DejaVuSans-30"/>
       <use x="63.623047" xlink:href="#DejaVuSans-2e"/>
       <use x="95.410156" xlink:href="#DejaVuSans-34"/>
      </g>
     </g>
    </g>
    <g id="ytick_2">
     <g id="text_9">
      <!-- 0.6 -->
      <g style="fill:#262626;" transform="translate(34.4275 502.828699)scale(0.22 -0.22)">
       <use xlink:href="#DejaVuSans-30"/>
       <use x="63.623047" xlink:href="#DejaVuSans-2e"/>
       <use x="95.410156" xlink:href="#DejaVuSans-36"/>
      </g>
     </g>
    </g>
    <g id="ytick_3">
     <g id="text_10">
      <!-- 0.8 -->
      <g style="fill:#262626;" transform="translate(34.4275 430.280779)scale(0.22 -0.22)">
       <use xlink:href="#DejaVuSans-30"/>
       <use x="63.623047" xlink:href="#DejaVuSans-2e"/>
       <use x="95.410156" xlink:href="#DejaVuSans-38"/>
      </g>
     </g>
    </g>
    <g id="ytick_4">
     <g id="text_11">
      <!-- 1.0 -->
      <g style="fill:#262626;" transform="translate(34.4275 357.732859)scale(0.22 -0.22)">
       <use xlink:href="#DejaVuSans-31"/>
       <use x="63.623047" xlink:href="#DejaVuSans-2e"/>
       <use x="95.410156" xlink:href="#DejaVuSans-30"/>
      </g>
     </g>
    </g>
    <g id="ytick_5">
     <g id="text_12">
      <!-- 1.2 -->
      <g style="fill:#262626;" transform="translate(34.4275 285.184939)scale(0.22 -0.22)">
       <use xlink:href="#DejaVuSans-31"/>
       <use x="63.623047" xlink:href="#DejaVuSans-2e"/>
       <use x="95.410156" xlink:href="#DejaVuSans-32"/>
      </g>
     </g>
    </g>
    <g id="ytick_6">
     <g id="text_13">
      <!-- 1.4 -->
      <g style="fill:#262626;" transform="translate(34.4275 212.637019)scale(0.22 -0.22)">
       <use xlink:href="#DejaVuSans-31"/>
       <use x="63.623047" xlink:href="#DejaVuSans-2e"/>
       <use x="95.410156" xlink:href="#DejaVuSans-34"/>
      </g>
     </g>
    </g>
    <g id="ytick_7">
     <g id="text_14">
      <!-- 1.6 -->
      <g style="fill:#262626;" transform="translate(34.4275 140.089099)scale(0.22 -0.22)">
       <use xlink:href="#DejaVuSans-31"/>
       <use x="63.623047" xlink:href="#DejaVuSans-2e"/>
       <use x="95.410156" xlink:href="#DejaVuSans-36"/>
      </g>
     </g>
    </g>
    <g id="text_15">
     <!-- $E$ -->
     <g style="fill:#262626;" transform="translate(25.43625 364.352286)rotate(-90)scale(0.24 -0.24)">
      <defs>
       <path d="M 1081 4666 
L 4031 4666 
L 3928 4134 
L 1606 4134 
L 1338 2753 
L 3566 2753 
L 3463 2222 
L 1234 2222 
L 909 531 
L 3284 531 
L 3181 0 
L 172 0 
L 1081 4666 
z
" id="DejaVuSans-Oblique-45" transform="scale(0.015625)"/>
      </defs>
      <use transform="translate(0 0.09375)" xlink:href="#DejaVuSans-Oblique-45"/>
     </g>
    </g>
   </g>
   <g id="line2d_1">
    <path clip-path="url(#pbc127dcf2e)" d="M 106.858713 458.753802 
L 107.078266 476.31404 
L 107.517372 401.188332 
L 107.736925 500.115818 
L 107.956478 429.812189 
L 108.176032 402.605615 
L 108.395585 451.242755 
L 108.615138 421.986175 
L 108.834691 421.31358 
L 109.054244 475.533055 
L 109.273797 468.657632 
L 109.712904 367.044886 
L 110.371563 481.131495 
L 110.591116 498.795788 
L 110.810669 478.983646 
L 111.030223 440.667859 
L 111.249776 461.790079 
L 111.469329 306.542359 
L 111.688882 462.888229 
L 111.908435 439.127783 
L 112.127988 364.217905 
L 112.347541 511.43273 
L 112.567095 398.284893 
L 112.786648 492.644517 
L 113.006201 490.594019 
L 113.225754 480.821262 
L 113.445307 339.669219 
L 113.66486 408.261388 
L 113.884414 551.608116 
L 114.543073 393.888552 
L 114.762626 397.502735 
L 114.982179 379.404825 
L 115.201732 397.219822 
L 115.421286 486.222648 
L 115.640839 492.942907 
L 115.860392 419.59036 
L 116.079945 399.082179 
L 116.299498 497.887952 
L 116.519051 379.364547 
L 116.738605 506.335082 
L 116.958158 423.739157 
L 117.177711 448.307356 
L 117.397264 456.786762 
L 117.616817 484.602615 
L 117.83637 386.03694 
L 118.055923 372.963839 
L 118.49503 436.393194 
L 118.714583 318.312256 
L 118.934136 432.930985 
L 119.153689 439.056781 
L 119.373242 322.425234 
L 119.592796 422.843006 
L 119.812349 418.002159 
L 120.031902 408.658931 
L 120.251455 495.50694 
L 120.471008 460.948206 
L 120.690561 537.432696 
L 120.910114 468.197991 
L 121.129668 335.429183 
L 121.349221 477.621547 
L 121.568774 358.110757 
L 122.00788 472.104353 
L 122.227433 409.076981 
L 122.66654 493.780261 
L 122.886093 430.019206 
L 123.105646 432.704781 
L 123.325199 479.064747 
L 123.544752 370.328591 
L 123.764305 517.657871 
L 124.642518 341.346339 
L 124.862071 462.718032 
L 125.301178 416.495228 
L 125.740284 360.397633 
L 125.959837 440.048676 
L 126.17939 460.895088 
L 126.398943 536.850916 
L 126.618496 287.146959 
L 126.83805 480.68471 
L 127.057603 530.29622 
L 127.277156 482.2036 
L 127.496709 376.901661 
L 127.716262 454.387011 
L 127.935815 483.024409 
L 128.155369 483.478341 
L 128.374922 345.123487 
L 128.594475 501.64915 
L 128.814028 482.858834 
L 129.033581 518.059782 
L 129.253134 509.326208 
L 129.472687 485.972684 
L 129.692241 406.208732 
L 129.911794 459.034139 
L 130.131347 387.591506 
L 130.3509 435.06594 
L 130.570453 451.492004 
L 130.790006 387.846021 
L 131.00956 463.201554 
L 131.229113 445.399409 
L 131.448666 414.255406 
L 131.668219 458.422283 
L 131.887772 400.913682 
L 132.107325 505.208129 
L 132.326878 427.970473 
L 132.546432 398.043678 
L 132.765985 326.526871 
L 132.985538 517.968916 
L 133.424644 389.992641 
L 133.644197 471.722364 
L 133.863751 439.078015 
L 134.083304 452.625457 
L 134.302857 369.426805 
L 134.52241 341.565545 
L 134.741963 428.859177 
L 134.961516 434.43376 
L 135.181069 387.169708 
L 135.400623 522.417679 
L 135.620176 424.539374 
L 136.059282 494.796864 
L 136.278835 334.382892 
L 136.498388 473.011624 
L 136.717941 438.408119 
L 136.937495 440.552307 
L 137.157048 445.72928 
L 137.376601 422.16001 
L 137.596154 465.120214 
L 137.815707 397.312611 
L 138.03526 490.843572 
L 138.254814 459.60191 
L 138.474367 472.292833 
L 138.69392 407.167202 
L 139.133026 438.63764 
L 139.352579 401.253547 
L 139.791686 496.21075 
L 140.011239 343.909701 
L 140.230792 445.776821 
L 140.669898 424.336485 
L 140.889451 446.391491 
L 141.109005 421.724776 
L 141.328558 480.398289 
L 141.548111 369.084228 
L 141.767664 344.605917 
L 142.20677 481.730154 
L 142.426323 401.098453 
L 142.645877 395.287115 
L 142.86543 438.719262 
L 143.084983 511.328188 
L 143.304536 505.086906 
L 143.524089 465.155982 
L 143.743642 368.324116 
L 143.963196 404.494133 
L 144.182749 329.874864 
L 144.402302 479.752077 
L 144.621855 333.543813 
L 144.841408 389.995579 
L 145.060961 503.153971 
L 145.280514 372.144905 
L 145.500068 542.735805 
L 145.719621 374.689372 
L 146.158727 496.222075 
L 146.597833 333.332892 
L 146.817387 503.774264 
L 147.256493 431.071163 
L 147.476046 440.352494 
L 147.695599 481.62206 
L 148.134705 383.842638 
L 148.354259 389.805297 
L 148.573812 382.478821 
L 148.793365 494.275876 
L 149.012918 240.519836 
L 149.232471 463.56669 
L 149.452024 468.326799 
L 149.671578 327.084599 
L 149.891131 452.495658 
L 150.110684 415.657825 
L 150.330237 500.711513 
L 150.54979 524.23851 
L 150.769343 438.574172 
L 150.988896 406.171139 
L 151.20845 439.849549 
L 151.428003 414.827913 
L 151.647556 308.628748 
L 151.867109 497.704037 
L 152.086662 515.361096 
L 152.525769 445.549702 
L 152.745322 457.469644 
L 152.964875 451.244692 
L 153.403981 370.201869 
L 153.843087 409.0059 
L 154.062641 508.959406 
L 154.282194 452.614889 
L 154.501747 524.371405 
L 154.7213 387.397147 
L 154.940853 434.204959 
L 155.160406 446.481202 
L 155.37996 469.980724 
L 155.599513 394.46194 
L 155.819066 435.277033 
L 156.038619 367.655409 
L 156.477725 504.024844 
L 156.697278 508.49587 
L 156.916832 506.036685 
L 157.136385 377.893536 
L 157.355938 446.594112 
L 157.575491 429.235375 
L 157.795044 427.978588 
L 158.014597 469.272436 
L 158.234151 484.607696 
L 158.453704 307.5572 
L 158.673257 440.861854 
L 159.112363 352.932136 
L 159.551469 450.420557 
L 159.990576 347.400234 
L 160.210129 434.927497 
L 160.429682 266.88366 
L 160.649235 409.257374 
L 160.868788 421.078655 
L 161.307895 490.597241 
L 161.527448 372.987039 
L 161.747001 343.020057 
L 161.966554 429.213999 
L 162.186107 428.879923 
L 162.40566 377.839478 
L 162.625214 423.133427 
L 162.844767 441.847151 
L 163.06432 443.075089 
L 163.283873 481.545098 
L 163.503426 378.267338 
L 163.722979 419.242817 
L 163.942532 429.44758 
L 164.162086 462.225742 
L 164.381639 438.496319 
L 164.601192 443.718954 
L 164.820745 354.646364 
L 165.040298 536.658045 
L 165.479405 305.967782 
L 165.698958 490.514634 
L 165.918511 428.398622 
L 166.138064 469.811463 
L 166.357617 417.356679 
L 166.57717 455.053409 
L 166.796723 524.880098 
L 167.23583 318.454197 
L 167.455383 505.517607 
L 167.674936 448.262335 
L 167.894489 352.228549 
L 168.114042 491.364556 
L 168.333596 290.748883 
L 168.553149 358.455618 
L 168.772702 492.47502 
L 168.992255 365.937581 
L 169.211808 345.703462 
L 169.431361 548.71451 
L 169.650914 429.896629 
L 169.870468 466.16525 
L 170.090021 222.133967 
L 170.309574 415.777638 
L 170.529127 350.250788 
L 170.968233 530.389653 
L 171.187787 395.773005 
L 171.40734 398.03685 
L 171.626893 462.410276 
L 172.065999 387.434631 
L 172.285552 319.876612 
L 172.505105 473.510971 
L 172.724659 433.597944 
L 173.163765 286.965466 
L 173.383318 494.798709 
L 173.602871 408.864659 
L 173.822424 403.177684 
L 174.041978 455.368422 
L 174.261531 412.709927 
L 174.481084 472.918075 
L 174.92019 334.540765 
L 175.139743 318.929408 
L 175.359296 265.627135 
L 175.57885 493.791723 
L 175.798403 432.266248 
L 176.017956 503.476726 
L 176.237509 447.744741 
L 176.457062 433.00158 
L 176.676615 426.212529 
L 176.896169 494.126601 
L 177.115722 399.263815 
L 177.335275 398.615747 
L 177.554828 499.485113 
L 177.774381 483.849365 
L 177.993934 508.640123 
L 178.213487 472.589952 
L 178.433041 369.404237 
L 178.652594 403.205234 
L 178.872147 418.762107 
L 179.0917 501.675477 
L 179.311253 444.455419 
L 179.530806 471.565937 
L 179.75036 391.372139 
L 179.969913 440.960988 
L 180.189466 542.37043 
L 180.409019 433.123054 
L 180.628572 461.64263 
L 180.848125 434.556693 
L 181.067678 443.317448 
L 181.287232 522.528879 
L 181.506785 416.078923 
L 181.726338 489.626582 
L 181.945891 446.579814 
L 182.384997 473.353765 
L 182.604551 402.749517 
L 182.824104 215.35555 
L 183.043657 469.601012 
L 183.26321 387.533373 
L 183.921869 528.567504 
L 184.141423 485.224981 
L 184.360976 486.19964 
L 184.580529 366.103084 
L 184.800082 497.831894 
L 185.019635 446.690781 
L 185.239188 348.241832 
L 185.458742 328.204517 
L 185.678295 556.077316 
L 185.897848 383.177866 
L 186.117401 394.201768 
L 186.336954 445.228788 
L 186.556507 394.654864 
L 186.77606 293.230865 
L 186.995614 544.50406 
L 187.215167 271.567646 
L 187.43472 466.439793 
L 187.654273 466.76324 
L 187.873826 341.363981 
L 188.312932 447.434668 
L 188.532486 503.991308 
L 188.752039 414.021831 
L 188.971592 497.74717 
L 189.191145 447.385787 
L 189.410698 498.869158 
L 189.630251 450.145799 
L 189.849805 437.949279 
L 190.069358 524.950969 
L 190.288911 537.424737 
L 190.508464 411.331039 
L 190.728017 465.042648 
L 190.94757 382.178792 
L 191.167123 381.997544 
L 191.386677 432.386602 
L 191.60623 555.890754 
L 191.825783 466.483664 
L 192.045336 424.780791 
L 192.264889 239.074298 
L 192.484442 447.963828 
L 192.703996 371.003589 
L 192.923549 481.171396 
L 193.143102 461.971237 
L 193.362655 482.721425 
L 193.582208 416.8457 
L 193.801761 437.826656 
L 194.021314 490.097933 
L 194.240868 500.551588 
L 194.460421 548.256113 
L 194.679974 396.600791 
L 194.899527 383.354319 
L 195.11908 384.922676 
L 195.338633 336.805164 
L 195.558187 518.217302 
L 195.77774 429.543786 
L 195.997293 486.200004 
L 196.216846 434.723725 
L 196.436399 428.27296 
L 196.655952 461.331282 
L 196.875505 362.586043 
L 197.095059 436.591317 
L 197.314612 431.431986 
L 197.534165 485.851335 
L 197.753718 503.282507 
L 197.973271 446.989066 
L 198.192824 488.617599 
L 198.412378 383.890026 
L 198.631931 530.917791 
L 199.071037 413.674537 
L 199.29059 342.720824 
L 199.729696 418.504614 
L 199.94925 435.839948 
L 200.168803 374.327897 
L 200.388356 436.213617 
L 200.607909 455.411607 
L 200.827462 304.569945 
L 201.047015 440.957986 
L 201.266569 449.251045 
L 201.486122 525.257798 
L 201.705675 504.460847 
L 201.925228 363.927382 
L 202.144781 551.791829 
L 202.364334 359.290853 
L 202.803441 467.919934 
L 203.022994 482.899203 
L 203.242547 380.297507 
L 203.4621 443.009924 
L 203.681653 423.835162 
L 203.901206 425.197053 
L 204.12076 442.958212 
L 204.340313 439.734839 
L 204.559866 387.879637 
L 204.779419 421.871778 
L 204.998972 395.097246 
L 205.218525 487.707876 
L 205.438078 408.905427 
L 205.657632 454.65871 
L 205.877185 447.000489 
L 206.096738 200.139719 
L 206.316291 475.547013 
L 206.755397 370.115919 
L 206.974951 367.067535 
L 207.194504 488.108912 
L 207.414057 410.947094 
L 207.63361 454.335609 
L 207.853163 441.261842 
L 208.072716 461.576243 
L 208.292269 470.766353 
L 208.511823 454.026405 
L 208.731376 495.150433 
L 208.950929 412.539584 
L 209.170482 436.92544 
L 209.390035 439.883797 
L 209.609588 403.222832 
L 209.829142 288.744383 
L 210.048695 407.939804 
L 210.268248 410.779561 
L 210.487801 356.050518 
L 210.707354 383.612713 
L 210.926907 372.887001 
L 211.14646 439.750628 
L 211.366014 445.188179 
L 211.585567 395.828972 
L 211.80512 521.862031 
L 212.024673 325.097228 
L 212.244226 437.893707 
L 212.463779 430.846988 
L 212.683333 363.164819 
L 212.902886 388.852109 
L 213.122439 395.831021 
L 213.341992 506.089572 
L 213.561545 394.713682 
L 213.781098 513.516517 
L 214.000651 340.570861 
L 214.220205 381.61658 
L 214.439758 352.958162 
L 214.659311 384.817307 
L 214.878864 393.560919 
L 215.098417 365.088317 
L 215.31797 467.442586 
L 215.537523 407.558526 
L 215.757077 470.087607 
L 215.97663 451.459813 
L 216.196183 447.538805 
L 216.635289 426.28876 
L 217.074396 481.426805 
L 217.293949 435.930701 
L 217.513502 471.145474 
L 217.733055 441.330545 
L 217.952608 468.039154 
L 218.172161 447.944365 
L 218.391714 446.596074 
L 218.611268 501.668012 
L 218.830821 521.538287 
L 219.050374 421.440735 
L 219.269927 504.994876 
L 219.48948 442.956972 
L 219.709033 482.397761 
L 219.928587 482.711091 
L 220.367693 472.75329 
L 220.806799 381.600728 
L 221.026352 372.338428 
L 221.245905 254.6187 
L 221.465459 351.265226 
L 221.685012 345.366016 
L 222.124118 427.164916 
L 222.343671 413.747013 
L 222.563224 433.32644 
L 222.782778 498.521577 
L 223.002331 357.952065 
L 223.221884 460.313319 
L 223.441437 495.37608 
L 223.66099 401.734731 
L 223.880543 393.109031 
L 224.100096 367.662623 
L 224.31965 504.786894 
L 224.758756 401.187684 
L 224.978309 512.758334 
L 225.197862 397.709447 
L 225.417415 487.50016 
L 225.636969 422.027802 
L 225.856522 484.336175 
L 226.076075 492.362263 
L 226.295628 373.080393 
L 226.515181 442.654775 
L 226.954287 515.585696 
L 227.173841 422.124099 
L 227.393394 521.175322 
L 227.612947 467.566967 
L 227.8325 448.525767 
L 228.052053 402.019411 
L 228.49116 477.400504 
L 228.930266 451.680996 
L 229.149819 261.849804 
L 229.369372 461.808974 
L 229.588925 417.519751 
L 229.808478 335.521866 
L 230.247585 440.386491 
L 230.467138 356.770048 
L 230.686691 519.809801 
L 230.906244 461.826021 
L 231.125797 481.165073 
L 231.345351 469.230869 
L 231.564904 410.034569 
L 232.00401 475.283824 
L 232.223563 452.091416 
L 232.443116 373.062213 
L 232.662669 468.445554 
L 232.882223 470.952631 
L 233.101776 437.063219 
L 233.540882 467.809739 
L 233.760435 437.181142 
L 233.979988 440.261312 
L 234.199542 411.795748 
L 234.419095 431.927352 
L 234.638648 410.793422 
L 234.858201 437.02641 
L 235.077754 338.622324 
L 235.297307 358.89547 
L 235.51686 452.150815 
L 235.736414 456.967754 
L 235.955967 418.705055 
L 236.17552 508.147187 
L 236.395073 486.552045 
L 236.614626 502.348606 
L 236.834179 441.832751 
L 237.053733 450.436998 
L 237.273286 507.167509 
L 237.712392 312.230025 
L 237.931945 362.596476 
L 238.151498 438.794748 
L 238.371051 465.100346 
L 238.590605 461.343522 
L 238.810158 404.964397 
L 239.029711 411.243086 
L 239.249264 397.011837 
L 239.468817 410.840822 
L 239.68837 480.134191 
L 239.907924 451.07835 
L 240.127477 466.70797 
L 240.34703 372.229906 
L 240.566583 334.937593 
L 240.786136 349.84842 
L 241.005689 435.676335 
L 241.225242 428.855882 
L 241.444796 388.79231 
L 241.664349 377.033316 
L 241.883902 480.833532 
L 242.103455 449.613725 
L 242.323008 447.597908 
L 242.542561 404.950522 
L 242.762114 492.934385 
L 242.981668 425.864603 
L 243.201221 489.565857 
L 243.420774 445.370174 
L 243.640327 445.685297 
L 243.85988 514.816896 
L 244.079433 450.683446 
L 244.298987 422.810182 
L 244.51854 440.909764 
L 244.738093 449.699227 
L 244.957646 505.320199 
L 245.177199 479.399477 
L 245.396752 504.628174 
L 245.616305 380.772305 
L 245.835859 376.614188 
L 246.055412 440.098597 
L 246.274965 467.713235 
L 246.714071 384.939963 
L 246.933624 423.804543 
L 247.153178 425.277619 
L 247.372731 361.695861 
L 247.592284 465.335903 
L 247.811837 488.724358 
L 248.03139 400.101359 
L 248.250943 420.039589 
L 248.470496 485.100634 
L 248.69005 362.599465 
L 248.909603 377.133409 
L 249.129156 517.415265 
L 249.348709 508.468 
L 249.568262 488.588335 
L 249.787815 506.529695 
L 250.226922 437.249927 
L 250.446475 468.097548 
L 250.666028 431.564338 
L 250.885581 367.013832 
L 251.105134 361.197816 
L 251.324687 447.621576 
L 251.763794 418.900569 
L 251.983347 364.779929 
L 252.2029 383.300969 
L 252.422453 484.934522 
L 252.642006 457.75399 
L 252.86156 475.973652 
L 253.081113 509.811884 
L 253.300666 482.152886 
L 253.520219 307.908761 
L 253.739772 413.455865 
L 253.959325 439.229071 
L 254.178878 326.219419 
L 254.398432 479.405043 
L 254.617985 412.269752 
L 254.837538 392.548105 
L 255.057091 478.933658 
L 255.496197 423.813413 
L 255.715751 368.862159 
L 256.154857 509.128516 
L 256.37441 433.100687 
L 256.593963 524.917617 
L 256.813516 455.910692 
L 257.033069 497.80225 
L 257.252623 383.934291 
L 257.472176 460.942232 
L 257.691729 464.809968 
L 257.911282 456.997168 
L 258.130835 500.129008 
L 258.350388 362.370353 
L 258.569942 443.526601 
L 258.789495 450.386321 
L 259.009048 425.745851 
L 259.228601 491.81925 
L 259.448154 380.123037 
L 259.667707 441.983693 
L 259.88726 429.818837 
L 260.106814 449.345166 
L 260.326367 506.998289 
L 260.54592 401.675145 
L 260.765473 500.719191 
L 261.204579 368.200927 
L 261.424133 433.530735 
L 261.643686 431.358992 
L 261.863239 471.47669 
L 262.082792 419.923386 
L 262.302345 408.267999 
L 262.521898 443.895722 
L 262.741451 450.130563 
L 262.961005 365.661834 
L 263.180558 420.124133 
L 263.400111 514.46641 
L 263.619664 531.564904 
L 263.839217 479.277666 
L 264.05877 545.109782 
L 264.278324 518.477548 
L 264.497877 453.023985 
L 264.71743 435.833815 
L 264.936983 480.633545 
L 265.156536 416.015605 
L 265.376089 423.706088 
L 265.595642 489.84646 
L 266.034749 327.208371 
L 266.473855 452.921815 
L 266.693408 427.137757 
L 266.912961 340.365979 
L 267.132514 472.827545 
L 267.352068 393.825194 
L 267.571621 444.551678 
L 267.791174 339.153651 
L 268.010727 506.885322 
L 268.449833 358.674949 
L 268.669387 466.759239 
L 269.108493 395.912462 
L 269.328046 383.437203 
L 269.547599 395.266616 
L 269.767152 337.465387 
L 269.986705 487.804578 
L 270.425812 468.551833 
L 270.645365 488.737847 
L 270.864918 400.279339 
L 271.084471 436.856333 
L 271.304024 494.429761 
L 271.523578 427.511458 
L 271.743131 454.964056 
L 271.962684 460.800509 
L 272.182237 459.821248 
L 272.40179 388.747451 
L 272.621343 417.79862 
L 272.840896 341.42722 
L 273.06045 448.930071 
L 273.280003 469.228039 
L 273.499556 528.021325 
L 273.719109 280.174614 
L 274.377769 444.984674 
L 274.597322 479.780083 
L 274.816875 421.896213 
L 275.036428 478.191271 
L 275.255981 361.188875 
L 275.475534 425.715769 
L 275.914641 325.584213 
L 276.134194 368.675533 
L 276.353747 531.67533 
L 276.5733 487.716305 
L 276.792853 473.607231 
L 277.012406 510.337669 
L 277.23196 400.85186 
L 277.671066 486.34283 
L 277.890619 439.639188 
L 278.110172 501.424637 
L 278.329725 423.565016 
L 278.549278 443.161025 
L 278.768832 358.251028 
L 278.988385 440.542638 
L 279.427491 465.036397 
L 279.647044 394.90292 
L 280.086151 532.307705 
L 280.305704 391.031814 
L 280.525257 409.037816 
L 280.74481 394.79769 
L 280.964363 339.500252 
L 281.183916 491.537066 
L 281.403469 400.184168 
L 281.623023 503.462585 
L 281.842576 502.127382 
L 282.062129 350.343507 
L 282.281682 469.633696 
L 282.501235 460.414028 
L 282.720788 402.710259 
L 283.379448 486.067861 
L 283.599001 405.769066 
L 283.818554 464.134584 
L 284.038107 387.812815 
L 284.25766 384.744837 
L 284.477214 409.94496 
L 284.696767 417.32962 
L 285.135873 483.717259 
L 285.355426 401.493541 
L 285.574979 415.169068 
L 285.794533 393.648323 
L 286.014086 471.241653 
L 286.233639 294.667221 
L 286.453192 429.483457 
L 286.672745 455.862009 
L 286.892298 497.489349 
L 287.111851 381.112384 
L 287.331405 463.151979 
L 287.550958 378.171157 
L 287.770511 452.485578 
L 287.990064 448.001067 
L 288.209617 404.918868 
L 288.648724 459.213889 
L 288.868277 435.142814 
L 289.08783 396.813326 
L 289.526936 475.425289 
L 289.746489 374.385211 
L 289.966042 488.03605 
L 290.185596 420.971003 
L 290.405149 471.719713 
L 290.624702 454.743185 
L 290.844255 469.59558 
L 291.063808 453.204608 
L 291.283361 315.722681 
L 291.502915 373.750317 
L 291.722468 298.127716 
L 291.942021 424.950573 
L 292.161574 480.460344 
L 292.381127 392.391905 
L 292.60068 491.165889 
L 292.820233 421.285711 
L 293.25934 537.392826 
L 293.478893 412.472875 
L 293.698446 476.072169 
L 294.137552 380.812027 
L 294.357105 450.489333 
L 294.576659 428.014114 
L 294.796212 447.937741 
L 295.015765 450.239145 
L 295.235318 486.084456 
L 295.454871 464.914568 
L 295.674424 524.193413 
L 295.893978 442.904827 
L 296.113531 436.111699 
L 296.333084 419.650336 
L 296.552637 472.628024 
L 296.77219 426.216872 
L 296.991743 445.912888 
L 297.211296 319.795958 
L 297.43085 428.928411 
L 297.650403 316.869067 
L 298.089509 492.71672 
L 298.309062 436.24192 
L 298.528615 462.84454 
L 298.748169 386.824306 
L 298.967722 460.31438 
L 299.187275 425.413271 
L 299.406828 469.423323 
L 299.626381 487.223939 
L 300.285041 418.77035 
L 300.504594 463.693417 
L 300.724147 443.462017 
L 300.9437 478.785297 
L 301.382806 388.847005 
L 301.821913 555.719531 
L 302.261019 393.653915 
L 302.480572 394.142325 
L 302.700125 432.463417 
L 302.919678 358.813586 
L 303.358785 455.76925 
L 303.578338 303.307938 
L 303.797891 485.847015 
L 304.017444 482.839596 
L 304.236997 495.980656 
L 304.456551 451.207042 
L 304.676104 448.346115 
L 304.895657 448.047021 
L 305.11521 459.984672 
L 305.554316 402.688141 
L 305.773869 460.81262 
L 305.993423 487.610937 
L 306.212976 366.915019 
L 306.432529 433.839748 
L 306.652082 455.637744 
L 306.871635 515.681722 
L 307.091188 344.701306 
L 307.310742 452.842424 
L 307.530295 422.893001 
L 307.969401 438.011331 
L 308.188954 462.53942 
L 308.408507 358.827076 
L 308.62806 462.687683 
L 308.847614 372.115144 
L 309.067167 478.07035 
L 309.28672 444.686949 
L 309.506273 516.522233 
L 309.725826 350.558835 
L 309.945379 420.438815 
L 310.164933 454.726125 
L 310.384486 430.167979 
L 310.604039 447.048526 
L 310.823592 420.708033 
L 311.043145 465.55547 
L 311.262698 397.40313 
L 311.482251 403.258655 
L 311.921358 321.634632 
L 312.140911 529.114586 
L 312.360464 447.465187 
L 312.580017 484.240103 
L 312.79957 474.601895 
L 313.019124 441.34275 
L 313.238677 497.357493 
L 313.45823 505.665337 
L 313.677783 450.97043 
L 313.897336 480.656086 
L 314.116889 438.100958 
L 314.336442 357.323124 
L 314.555996 370.894297 
L 314.775549 458.239097 
L 314.995102 394.134901 
L 315.214655 458.783812 
L 315.434208 477.618887 
L 315.653761 354.266336 
L 315.873315 370.341438 
L 316.092868 566.877379 
L 316.312421 444.059347 
L 316.531974 410.925504 
L 316.97108 434.480332 
L 317.190633 438.650486 
L 317.410187 481.306429 
L 317.62974 348.963005 
L 317.849293 435.888216 
L 318.068846 464.449611 
L 318.288399 422.1658 
L 318.507952 508.520703 
L 318.727506 452.860519 
L 318.947059 454.205859 
L 319.166612 448.454402 
L 319.386165 412.559178 
L 319.605718 426.41148 
L 319.825271 409.173824 
L 320.044824 360.181346 
L 320.264378 473.16217 
L 320.703484 351.249842 
L 320.923037 426.864554 
L 321.14259 343.669777 
L 321.362143 354.805551 
L 321.581696 435.883448 
L 321.80125 459.197212 
L 322.020803 518.684287 
L 322.240356 425.710384 
L 322.459909 485.865364 
L 322.679462 448.437931 
L 322.899015 364.308801 
L 323.338122 446.71846 
L 323.557675 351.213332 
L 323.996781 476.25625 
L 324.216334 437.947179 
L 324.435887 434.104186 
L 324.655441 399.309974 
L 324.874994 486.962622 
L 325.094547 413.150255 
L 325.3141 530.352768 
L 325.533653 469.458214 
L 325.753206 441.081172 
L 326.192313 351.70559 
L 326.411866 494.906055 
L 326.631419 369.728371 
L 326.850972 368.969146 
L 327.070525 496.270591 
L 327.290078 422.463049 
L 327.509632 480.623591 
L 327.729185 489.857255 
L 327.948738 475.228415 
L 328.168291 352.222678 
L 328.387844 480.050027 
L 328.607397 394.606674 
L 329.046504 486.199487 
L 329.266057 328.425706 
L 329.48561 389.728119 
L 329.705163 497.082687 
L 329.924716 409.302359 
L 330.144269 438.515224 
L 330.363823 508.016519 
L 330.583376 291.283093 
L 330.802929 444.402273 
L 331.022482 484.110671 
L 331.242035 418.721309 
L 331.461588 429.665053 
L 331.681142 484.447952 
L 331.900695 485.54847 
L 332.339801 453.003487 
L 332.559354 506.514597 
L 332.778907 463.570945 
L 332.99846 474.545647 
L 333.218014 545.127831 
L 333.437567 475.499169 
L 333.65712 467.113438 
L 333.876673 391.940465 
L 334.096226 403.190261 
L 334.315779 428.321369 
L 334.535333 398.824416 
L 334.754886 386.960136 
L 334.974439 476.015531 
L 335.193992 363.930038 
L 335.413545 434.14781 
L 335.633098 443.04942 
L 335.852651 490.592725 
L 336.072205 443.188113 
L 336.291758 299.346412 
L 336.511311 502.957334 
L 336.950417 389.503515 
L 337.16997 414.198429 
L 337.389524 471.868349 
L 337.609077 390.250868 
L 337.82863 463.459746 
L 338.048183 414.836562 
L 338.267736 399.712813 
L 338.487289 511.715842 
L 338.706842 458.600544 
L 338.926396 466.746079 
L 339.145949 484.492711 
L 339.365502 472.254791 
L 339.585055 382.871778 
L 339.804608 206.345727 
L 340.024161 506.610184 
L 340.243715 555.596998 
L 340.463268 457.318189 
L 340.682821 511.108201 
L 340.902374 463.702929 
L 341.121927 459.141731 
L 341.34148 446.866501 
L 341.561033 418.268911 
L 341.780587 457.488191 
L 342.00014 413.095101 
L 342.219693 407.282467 
L 342.439246 497.367188 
L 342.658799 482.279203 
L 342.878352 415.850933 
L 343.097906 434.180207 
L 343.317459 420.334435 
L 343.756565 476.681954 
L 344.195671 472.35532 
L 344.415224 308.622007 
L 344.634778 462.101718 
L 344.854331 331.974147 
L 345.073884 491.715 
L 345.293437 461.402194 
L 345.51299 451.47289 
L 345.732543 502.984025 
L 345.952096 398.358821 
L 346.17165 448.830522 
L 346.391203 372.381016 
L 346.610756 462.608788 
L 346.830309 439.034465 
L 347.049862 484.784021 
L 347.269415 404.284646 
L 347.488969 407.686381 
L 347.708522 515.927757 
L 347.928075 385.594478 
L 348.367181 479.95194 
L 348.586734 365.478208 
L 348.806287 453.242119 
L 349.025841 405.296375 
L 349.464947 462.859667 
L 349.6845 384.195466 
L 349.904053 489.182244 
L 350.123606 455.594265 
L 350.34316 470.806481 
L 350.562713 444.664839 
L 350.782266 526.477837 
L 351.221372 407.646397 
L 351.440925 420.662281 
L 351.660478 374.673274 
L 351.880032 448.282859 
L 352.099585 402.394193 
L 352.319138 393.812442 
L 352.538691 446.620617 
L 352.758244 402.669785 
L 352.977797 389.153398 
L 353.197351 460.400755 
L 353.416904 478.857961 
L 353.636457 290.612932 
L 353.85601 439.094799 
L 354.075563 460.901333 
L 354.295116 444.839699 
L 354.514669 443.465773 
L 354.734223 450.581728 
L 354.953776 429.808643 
L 355.173329 437.870491 
L 355.392882 497.460951 
L 355.612435 479.39951 
L 356.051542 298.97376 
L 356.271095 468.380162 
L 356.710201 247.946496 
L 356.929754 445.985246 
L 357.149307 452.246212 
L 357.36886 462.271207 
L 357.588414 404.638942 
L 357.807967 387.811629 
L 358.02752 462.998926 
L 358.466626 339.764802 
L 358.686179 358.517038 
L 358.905733 396.779142 
L 359.125286 404.791759 
L 359.344839 485.301725 
L 359.564392 424.430108 
L 359.783945 434.746993 
L 360.003498 416.254379 
L 360.223051 505.738769 
L 360.442605 490.024496 
L 360.662158 363.871333 
L 361.320817 460.122961 
L 361.54037 414.134957 
L 361.759924 454.104248 
L 362.19903 496.223416 
L 362.418583 399.336325 
L 362.638136 419.085609 
L 362.857689 421.171567 
L 363.077242 380.682274 
L 363.296796 528.453078 
L 363.516349 446.576549 
L 363.735902 431.211951 
L 363.955455 455.079018 
L 364.175008 271.619722 
L 364.394561 423.574477 
L 364.614115 405.744791 
L 364.833668 414.354404 
L 365.053221 465.737215 
L 365.492327 447.392773 
L 365.71188 414.437169 
L 365.931433 451.958445 
L 366.150987 411.113573 
L 366.37054 421.669313 
L 366.590093 406.974112 
L 366.809646 480.731451 
L 367.029199 445.905753 
L 367.248752 432.792279 
L 367.468306 484.477057 
L 367.907412 409.919532 
L 368.126965 459.744731 
L 368.346518 470.614861 
L 368.785624 392.660623 
L 369.224731 461.825445 
L 369.444284 491.572943 
L 369.88339 447.889809 
L 370.102943 362.950674 
L 370.322497 345.303887 
L 370.54205 462.988285 
L 370.761603 471.195915 
L 370.981156 416.0721 
L 371.200709 545.507645 
L 371.420262 375.831482 
L 371.639815 489.196955 
L 371.859369 432.505154 
L 372.078922 431.310898 
L 372.298475 300.927798 
L 372.518028 522.358339 
L 372.957134 428.667429 
L 373.176687 517.49964 
L 373.396241 360.050421 
L 373.835347 459.674572 
L 374.0549 425.034443 
L 374.274453 468.458355 
L 374.494006 383.557438 
L 374.71356 423.121284 
L 374.933113 484.40932 
L 375.152666 479.918521 
L 375.372219 448.620356 
L 375.591772 336.479906 
L 376.030878 450.703753 
L 376.250432 462.335107 
L 376.469985 483.569612 
L 376.689538 487.425034 
L 376.909091 331.378454 
L 377.128644 493.286106 
L 377.348197 349.779837 
L 377.567751 382.236033 
L 377.787304 515.548155 
L 378.006857 387.357665 
L 378.22641 445.672665 
L 378.445963 403.250198 
L 378.885069 433.056992 
L 379.104623 434.230503 
L 379.324176 366.628135 
L 379.763282 475.386959 
L 379.982835 382.933292 
L 380.202388 444.567197 
L 380.421942 416.793798 
L 380.641495 446.491698 
L 380.861048 372.762101 
L 381.080601 444.897599 
L 381.300154 359.14906 
L 381.519707 347.055181 
L 381.73926 372.640884 
L 381.958814 517.751014 
L 382.178367 485.305688 
L 382.39792 416.309653 
L 382.617473 471.116143 
L 383.276133 402.428839 
L 383.715239 503.07827 
L 383.934792 319.478511 
L 384.154345 475.898704 
L 384.373898 295.586859 
L 384.593451 470.536367 
L 384.813005 423.43153 
L 385.032558 286.438851 
L 385.252111 469.539459 
L 385.471664 461.666646 
L 385.691217 424.619416 
L 386.130324 413.375682 
L 386.349877 346.85316 
L 386.56943 511.838733 
L 386.788983 500.937712 
L 387.008536 500.289477 
L 387.447642 433.568237 
L 387.667196 462.770518 
L 387.886749 461.69826 
L 388.106302 409.383141 
L 388.325855 409.310571 
L 388.545408 440.460513 
L 388.764961 434.217526 
L 389.204068 505.808084 
L 389.423621 361.894217 
L 389.643174 548.905232 
L 390.08228 392.18079 
L 390.301833 438.23037 
L 390.521387 429.909914 
L 390.74094 415.257097 
L 390.960493 351.680672 
L 391.180046 512.201994 
L 391.399599 462.803737 
L 391.619152 310.795761 
L 391.838706 431.74709 
L 392.277812 376.144707 
L 392.497365 368.706653 
L 392.716918 490.29978 
L 393.156024 443.286869 
L 393.375578 399.450629 
L 393.595131 525.808865 
L 393.814684 416.091066 
L 394.034237 469.15095 
L 394.25379 452.699941 
L 394.473343 475.505283 
L 394.692897 373.080198 
L 394.91245 421.366987 
L 395.132003 364.984599 
L 395.351556 412.238574 
L 395.571109 526.663814 
L 395.790662 389.56963 
L 396.010215 504.770669 
L 396.449322 450.515186 
L 396.668875 488.847653 
L 396.888428 411.150528 
L 397.107981 431.227417 
L 397.327534 131.956182 
L 397.547087 495.906853 
L 397.766641 441.260826 
L 398.205747 422.258981 
L 398.4253 476.423877 
L 398.644853 459.212886 
L 398.864406 407.545044 
L 399.303513 520.058238 
L 399.523066 493.596925 
L 399.742619 480.689274 
L 399.962172 347.518666 
L 400.181725 457.904168 
L 400.401278 407.330793 
L 400.620832 452.580855 
L 400.840385 380.095425 
L 401.059938 461.246311 
L 401.279491 453.511202 
L 401.499044 289.88407 
L 401.718597 383.608062 
L 401.938151 371.976272 
L 402.157704 389.832665 
L 402.377257 340.01624 
L 402.59681 418.902197 
L 402.816363 371.365898 
L 403.035916 410.036395 
L 403.255469 389.469421 
L 403.475023 396.926207 
L 403.694576 420.555434 
L 403.914129 431.699866 
L 404.133682 477.028122 
L 404.353235 478.655746 
L 404.572788 462.431857 
L 404.792342 488.148472 
L 405.011895 435.123315 
L 405.231448 340.004441 
L 405.451001 486.889317 
L 405.670554 330.635828 
L 405.890107 474.648375 
L 406.10966 459.235557 
L 406.329214 368.500402 
L 406.548767 460.583666 
L 406.76832 501.171173 
L 407.426979 403.376261 
L 407.646533 423.406383 
L 407.866086 488.545111 
L 408.085639 425.83496 
L 408.305192 421.524798 
L 408.524745 474.536996 
L 408.744298 472.430995 
L 408.963851 450.954411 
L 409.183405 548.672091 
L 409.402958 438.842247 
L 409.622511 527.14035 
L 409.842064 494.138883 
L 410.061617 499.452571 
L 410.28117 413.544232 
L 410.500724 425.375824 
L 410.720277 444.277156 
L 410.93983 419.095532 
L 411.159383 459.639923 
L 411.378936 359.002002 
L 411.598489 482.940904 
L 411.818042 385.207792 
L 412.037596 455.955518 
L 412.257149 481.160711 
L 412.476702 430.00314 
L 412.696255 411.440921 
L 413.135361 490.03355 
L 413.354915 417.670349 
L 413.794021 440.772244 
L 414.013574 465.0128 
L 414.233127 515.454306 
L 414.45268 407.137869 
L 414.672233 431.269441 
L 414.891787 432.725137 
L 415.11134 413.723576 
L 415.330893 505.88939 
L 415.550446 471.446322 
L 415.769999 494.120368 
L 415.989552 476.802803 
L 416.209106 544.30368 
L 416.648212 269.498634 
L 416.867765 433.519752 
L 417.087318 472.676565 
L 417.306871 445.338526 
L 417.745978 436.683057 
L 418.185084 376.355712 
L 418.404637 487.344355 
L 418.62419 444.988266 
L 419.063297 500.364562 
L 419.28285 279.149449 
L 419.721956 489.452385 
L 419.941509 415.799615 
L 420.161062 428.942223 
L 420.380615 387.77405 
L 420.600169 459.18768 
L 420.819722 420.73694 
L 421.039275 412.266905 
L 421.258828 411.258498 
L 421.697934 546.766964 
L 421.917488 398.683656 
L 422.137041 426.866908 
L 422.356594 406.334451 
L 422.576147 370.560578 
L 422.7957 488.180892 
L 423.015253 380.77668 
L 423.234806 499.151106 
L 423.45436 339.010096 
L 423.893466 482.586143 
L 424.113019 417.858695 
L 424.332572 388.652182 
L 424.552125 452.80934 
L 424.771678 366.630354 
L 424.991232 364.799396 
L 425.210785 335.261777 
L 425.430338 477.900561 
L 425.649891 481.656272 
L 426.088997 343.931583 
L 426.308551 463.147929 
L 426.528104 461.342951 
L 426.747657 436.783342 
L 426.96721 370.9026 
L 427.186763 346.009091 
L 427.406316 444.54161 
L 427.625869 464.249669 
L 427.845423 354.521348 
L 428.064976 378.135071 
L 428.284529 418.741039 
L 428.504082 485.382159 
L 428.943188 554.252942 
L 429.162742 448.547161 
L 429.382295 529.748688 
L 429.601848 394.129757 
L 429.821401 328.851076 
L 430.260507 518.722933 
L 430.48006 439.692145 
L 430.699614 413.33881 
L 430.919167 486.791284 
L 431.13872 402.858159 
L 431.358273 476.379033 
L 431.577826 216.561467 
L 431.797379 406.274951 
L 432.016933 434.594549 
L 432.236486 478.435426 
L 432.456039 422.613456 
L 432.675592 495.110991 
L 432.895145 483.204142 
L 433.114698 288.358236 
L 433.334251 440.166529 
L 433.553805 479.304379 
L 433.773358 451.626835 
L 433.992911 438.036171 
L 434.212464 398.329113 
L 434.432017 389.382315 
L 434.65157 461.957539 
L 434.871124 396.262017 
L 435.090677 428.662353 
L 435.31023 432.504682 
L 435.529783 421.495247 
L 435.749336 381.879056 
L 436.188442 463.165424 
L 436.407996 406.663167 
L 436.627549 528.67552 
L 436.847102 407.558927 
L 437.066655 447.251816 
L 437.286208 353.38625 
L 437.725315 500.98242 
L 437.944868 338.080734 
L 438.164421 434.321198 
L 438.383974 473.451476 
L 438.603527 435.537763 
L 438.82308 444.785707 
L 439.042633 504.4601 
L 439.48174 454.879177 
L 439.701293 494.412702 
L 440.140399 363.045824 
L 440.359952 485.459302 
L 440.579506 513.566584 
L 440.799059 458.682439 
L 441.018612 433.602854 
L 441.238165 471.964567 
L 441.457718 464.309624 
L 441.677271 405.957738 
L 441.896824 495.555238 
L 442.116378 477.801593 
L 442.335931 390.801197 
L 442.555484 453.162228 
L 442.775037 421.092621 
L 442.99459 498.008335 
L 443.214143 439.608501 
L 443.433697 524.55053 
L 443.65325 523.49254 
L 444.092356 372.914372 
L 444.311909 489.860549 
L 444.531462 514.360294 
L 444.970569 380.30196 
L 445.409675 467.874088 
L 445.629228 424.800523 
L 445.848781 473.774915 
L 446.068334 389.425466 
L 446.287888 454.576581 
L 446.507441 484.298147 
L 446.726994 491.254176 
L 446.946547 419.620888 
L 447.1661 385.319781 
L 447.385653 488.122651 
L 447.605206 493.867581 
L 447.82476 556.765744 
L 448.044313 381.444059 
L 448.483419 515.037917 
L 448.922525 380.081423 
L 449.142079 441.014091 
L 449.361632 386.378253 
L 449.581185 546.954092 
L 449.800738 309.855778 
L 450.020291 447.147844 
L 450.239844 460.714041 
L 450.459397 329.105142 
L 450.678951 472.747787 
L 450.898504 427.678831 
L 451.118057 484.988648 
L 451.33761 387.059382 
L 451.776716 475.326571 
L 451.996269 423.814883 
L 452.215823 439.657148 
L 452.435376 436.945849 
L 452.654929 450.666329 
L 452.874482 437.864042 
L 453.094035 432.318178 
L 453.313588 401.000675 
L 453.533142 530.217073 
L 453.752695 537.569479 
L 453.972248 474.991474 
L 454.191801 493.007723 
L 454.411354 483.369586 
L 454.630907 492.031517 
L 454.85046 415.492127 
L 455.070014 533.746768 
L 455.289567 499.135685 
L 455.50912 370.024679 
L 455.728673 490.869834 
L 455.948226 528.666361 
L 456.167779 432.21275 
L 456.387333 413.553024 
L 456.606886 417.352255 
L 457.045992 453.985469 
L 457.265545 346.232947 
L 457.485098 453.695481 
L 457.924205 504.136911 
L 458.363311 404.064524 
L 458.582864 367.884404 
L 459.02197 485.134031 
L 459.241524 510.858865 
L 459.461077 475.664421 
L 459.68063 467.016374 
L 459.900183 543.09899 
L 460.119736 510.113949 
L 460.339289 418.017709 
L 460.558842 483.627347 
L 460.778396 449.547937 
L 460.997949 581.38839 
L 461.217502 464.906829 
L 461.437055 517.649716 
L 461.656608 460.107634 
L 461.876161 483.35614 
L 462.095715 457.699955 
L 462.315268 142.800566 
L 462.534821 507.532139 
L 462.754374 467.933102 
L 462.973927 450.072555 
L 463.19348 459.307945 
L 463.413033 398.100589 
L 463.632587 446.820119 
L 463.85214 409.446457 
L 464.071693 453.930272 
L 464.291246 383.588267 
L 464.510799 408.075274 
L 464.730352 300.382609 
L 464.949906 426.78027 
L 465.169459 413.48729 
L 465.389012 381.513996 
L 465.608565 496.251495 
L 465.828118 422.328502 
L 466.047671 419.234641 
L 466.267224 432.427818 
L 466.486778 436.752432 
L 466.706331 471.786441 
L 466.925884 403.034171 
L 467.145437 396.610819 
L 467.36499 473.01782 
L 467.584543 452.300437 
L 467.804097 459.404965 
L 468.02365 475.168319 
L 468.243203 446.614313 
L 468.462756 373.316754 
L 468.682309 383.692766 
L 468.901862 327.334071 
L 469.121415 328.859505 
L 469.340969 403.702896 
L 469.780075 477.958128 
L 470.219181 442.744668 
L 470.438734 413.526314 
L 470.658288 343.161266 
L 470.877841 495.508493 
L 471.316947 435.54343 
L 471.5365 511.520518 
L 471.756053 321.742338 
L 471.975606 337.376222 
L 472.634266 536.017277 
L 472.853819 366.507515 
L 473.073372 490.501001 
L 473.292925 480.056732 
L 473.512479 344.921957 
L 473.732032 434.33342 
L 473.951585 412.753475 
L 474.171138 377.165015 
L 474.390691 262.177992 
L 474.829797 456.210986 
L 475.049351 512.721551 
L 475.268904 414.154953 
L 475.488457 459.384841 
L 475.70801 560.509537 
L 475.927563 470.46586 
L 476.147116 319.083983 
L 476.366669 297.090004 
L 476.586223 423.822956 
L 476.805776 371.250294 
L 477.025329 423.735429 
L 477.244882 346.621626 
L 477.464435 418.771704 
L 477.683988 419.53504 
L 477.903542 422.697015 
L 478.123095 399.120956 
L 478.342648 478.14359 
L 478.562201 489.117747 
L 478.781754 507.283098 
L 479.001307 358.366441 
L 479.22086 398.622909 
L 479.440414 511.105716 
L 479.87952 305.011724 
L 480.318626 492.83478 
L 480.538179 324.554621 
L 480.757733 428.795463 
L 480.977286 408.853659 
L 481.196839 434.556053 
L 481.416392 433.976932 
L 481.635945 488.379833 
L 481.855498 495.555597 
L 482.075051 371.471639 
L 482.294605 461.474366 
L 482.514158 415.95195 
L 482.733711 568.935606 
L 482.953264 426.87947 
L 483.39237 487.014983 
L 483.611924 472.801126 
L 483.831477 415.131222 
L 484.05103 323.690158 
L 484.270583 514.615552 
L 484.490136 419.872444 
L 484.709689 439.869026 
L 484.929242 546.448764 
L 485.148796 418.332628 
L 485.368349 400.608358 
L 485.587902 364.695689 
L 485.807455 387.261976 
L 486.027008 478.648492 
L 486.246561 295.45501 
L 486.466115 452.074921 
L 486.685668 457.475642 
L 486.905221 415.330451 
L 487.124774 498.025971 
L 487.344327 505.580362 
L 487.56388 360.848572 
L 487.783433 393.271578 
L 488.002987 457.857659 
L 488.22254 399.64928 
L 488.661646 442.830637 
L 488.881199 466.033702 
L 489.100752 476.168582 
L 489.539859 397.387747 
L 489.759412 375.949242 
L 489.978965 486.951591 
L 490.198518 350.84478 
L 490.418071 414.077892 
L 490.637624 406.346139 
L 490.857178 476.036751 
L 491.076731 481.2259 
L 491.296284 358.428324 
L 491.73539 439.609586 
L 491.954943 433.275414 
L 492.174497 356.889701 
L 492.39405 495.633915 
L 492.613603 496.496523 
L 492.833156 410.246584 
L 493.052709 261.934558 
L 493.272262 310.440393 
L 493.491815 314.943995 
L 493.711369 489.651288 
L 493.930922 440.188571 
L 494.150475 437.738857 
L 494.370028 255.705509 
L 494.589581 426.253421 
L 494.809134 507.279786 
L 495.028688 490.557534 
L 495.248241 431.220683 
L 495.467794 470.513237 
L 495.687347 442.271954 
L 495.9069 535.740207 
L 496.126453 492.380228 
L 496.346006 393.829569 
L 496.56556 476.437887 
L 496.785113 490.287409 
L 497.004666 446.699862 
L 497.224219 213.910915 
L 497.443772 409.30264 
L 497.882879 488.48405 
L 498.102432 368.961012 
L 498.321985 455.60432 
L 498.541538 385.361955 
L 498.761091 455.418197 
L 498.980644 485.911719 
L 499.200197 392.816534 
L 499.419751 427.970462 
L 499.639304 415.828485 
L 499.858857 372.117905 
L 500.07841 428.637484 
L 500.297963 366.963079 
L 500.517516 410.924639 
L 500.73707 520.616412 
L 500.956623 394.439699 
L 501.176176 339.157564 
L 501.615282 487.520984 
L 502.054388 452.803717 
L 502.273942 351.17334 
L 502.493495 436.248534 
L 502.713048 431.875208 
L 502.932601 416.031026 
L 503.152154 480.942909 
L 503.371707 363.868903 
L 503.59126 466.152832 
L 503.810814 422.051 
L 504.030367 464.641107 
L 504.24992 425.762895 
L 504.469473 413.140025 
L 504.689026 470.327794 
L 504.908579 427.320322 
L 505.128133 425.544822 
L 505.347686 502.645177 
L 505.567239 384.916773 
L 505.786792 466.029517 
L 506.006345 382.304797 
L 506.225898 451.266167 
L 506.445451 432.537349 
L 506.665005 353.002518 
L 506.884558 401.11101 
L 507.104111 338.447525 
L 507.323664 452.583172 
L 507.543217 307.985169 
L 507.76277 472.300042 
L 507.982324 463.449235 
L 508.201877 462.481725 
L 508.42143 334.016559 
L 508.640983 483.44032 
L 508.860536 406.621535 
L 509.080089 480.246695 
L 509.299642 478.769443 
L 509.519196 511.935094 
L 509.738749 462.955466 
L 509.958302 472.724669 
L 510.177855 540.115142 
L 510.397408 440.385414 
L 510.616961 465.553116 
L 510.836515 412.268952 
L 511.056068 447.914146 
L 511.275621 420.825537 
L 511.714727 466.928739 
L 512.153833 349.103281 
L 512.373387 486.315634 
L 512.59294 324.989801 
L 512.812493 472.401187 
L 513.032046 450.1223 
L 513.251599 415.153931 
L 513.471152 511.997269 
L 513.690706 252.605287 
L 513.910259 394.403769 
L 514.129812 418.286523 
L 514.349365 506.916314 
L 514.568918 432.694432 
L 514.788471 407.509032 
L 515.008024 480.667167 
L 515.227578 476.90043 
L 515.447131 511.19519 
L 515.666684 481.457211 
L 515.886237 484.772119 
L 516.10579 456.646732 
L 516.325343 458.302737 
L 516.544897 416.234954 
L 516.76445 445.23656 
L 516.984003 421.978561 
L 517.203556 428.774095 
L 517.423109 299.208053 
L 517.642662 480.860418 
L 517.862215 305.789401 
L 518.301322 468.372119 
L 518.520875 473.843869 
L 518.740428 428.705274 
L 518.959981 448.161367 
L 519.179534 407.508286 
L 519.399088 445.635012 
L 519.618641 461.07757 
L 519.838194 424.94697 
L 520.057747 448.602759 
L 520.2773 406.972203 
L 520.496853 392.619488 
L 520.716406 280.30517 
L 520.93596 530.103937 
L 521.375066 362.904454 
L 521.594619 415.648962 
L 521.814172 389.286277 
L 522.033725 483.554015 
L 522.253279 318.988101 
L 522.692385 480.664708 
L 522.911938 438.932824 
L 523.131491 334.630382 
L 523.351044 476.647785 
L 523.570597 493.016287 
L 523.790151 453.451571 
L 524.009704 519.258891 
L 524.229257 434.410303 
L 524.44881 472.866353 
L 524.668363 345.796982 
L 524.887916 507.072125 
L 525.10747 403.301232 
L 525.327023 450.867266 
L 525.766129 252.080995 
L 525.985682 446.351472 
L 526.205235 476.624364 
L 526.644342 395.089384 
L 526.863895 459.324504 
L 527.083448 475.637147 
L 527.303001 469.481908 
L 527.522554 422.698415 
L 527.742107 450.815319 
L 527.96166 443.292252 
L 528.181214 367.162586 
L 528.400767 342.267716 
L 528.62032 437.731363 
L 528.839873 437.522808 
L 529.059426 417.086831 
L 529.278979 483.442631 
L 529.498533 463.468914 
L 529.718086 392.786726 
L 529.937639 447.397501 
L 530.157192 387.092995 
L 530.376745 535.210785 
L 530.596298 355.144401 
L 530.815851 480.241986 
L 531.035405 466.500204 
L 531.254958 494.479272 
L 531.694064 401.003641 
L 531.913617 417.263216 
L 532.13317 483.717861 
L 532.352724 440.145461 
L 532.572277 329.048895 
L 532.79183 393.092652 
L 533.011383 353.14292 
L 533.230936 557.858884 
L 533.670042 372.08493 
L 533.889596 481.30799 
L 534.109149 471.059516 
L 534.328702 493.492271 
L 534.548255 448.24391 
L 534.767808 464.673013 
L 534.987361 449.682622 
L 535.206915 333.230986 
L 535.426468 483.725996 
L 535.646021 387.007089 
L 535.865574 432.165477 
L 536.085127 335.291263 
L 536.30468 453.000606 
L 536.524233 464.203863 
L 536.743787 498.601585 
L 536.96334 450.136214 
L 537.182893 343.432868 
L 537.402446 432.943737 
L 537.621999 449.953518 
L 538.061106 371.409739 
L 538.280659 507.486612 
L 538.500212 354.606028 
L 538.719765 463.423938 
L 538.939318 390.749423 
L 539.158871 546.704413 
L 539.597978 412.961022 
L 540.037084 323.969494 
L 540.256637 497.212569 
L 540.47619 433.279691 
L 540.695743 404.876484 
L 540.915297 453.821459 
L 541.13485 347.792454 
L 541.573956 431.155714 
L 541.793509 419.61858 
L 542.013062 467.392424 
L 542.232615 429.484586 
L 542.452169 426.134151 
L 542.891275 452.30494 
L 543.110828 453.016326 
L 543.330381 403.758415 
L 543.549934 393.07003 
L 543.769488 372.210372 
L 543.989041 381.913821 
L 544.208594 485.605289 
L 544.428147 436.784113 
L 544.6477 414.925338 
L 544.867253 451.587604 
L 545.086806 456.032792 
L 545.30636 468.056329 
L 545.525913 465.436959 
L 545.745466 405.417367 
L 545.745466 405.417367 
" style="fill:none;stroke:#96c69a;stroke-linecap:round;stroke-width:3;"/>
   </g>
   <g id="line2d_2"/>
   <g id="patch_3">
    <path d="M 84.914375 603.86 
L 84.914375 109.484571 
" style="fill:none;stroke:#262626;stroke-linecap:square;stroke-linejoin:miter;stroke-width:2.5;"/>
   </g>
   <g id="patch_4">
    <path d="M 84.914375 603.86 
L 567.689804 603.86 
" style="fill:none;stroke:#262626;stroke-linecap:square;stroke-linejoin:miter;stroke-width:2.5;"/>
   </g>
   <g id="legend_1">
    <g id="patch_5">
     <path d="M 514.774179 598.86 
L 560.689804 598.86 
Q 562.689804 598.86 562.689804 596.86 
L 562.689804 554.954375 
Q 562.689804 552.954375 560.689804 552.954375 
L 514.774179 552.954375 
Q 512.774179 552.954375 512.774179 554.954375 
L 512.774179 596.86 
Q 512.774179 598.86 514.774179 598.86 
z
" style="fill:#ffffff;opacity:0.8;stroke:#cccccc;stroke-linejoin:miter;stroke-width:2;"/>
    </g>
    <g id="text_16">
     <!-- $n_\tau$ -->
     <g style="fill:#262626;" transform="translate(524.651991 575.190625)scale(0.24 -0.24)">
      <defs>
       <path d="M 3566 2113 
L 3156 0 
L 2578 0 
L 2988 2091 
Q 3016 2238 3031 2350 
Q 3047 2463 3047 2528 
Q 3047 2791 2881 2937 
Q 2716 3084 2419 3084 
Q 1956 3084 1622 2776 
Q 1288 2469 1184 1941 
L 800 0 
L 225 0 
L 903 3500 
L 1478 3500 
L 1363 2950 
Q 1603 3253 1940 3418 
Q 2278 3584 2650 3584 
Q 3113 3584 3367 3334 
Q 3622 3084 3622 2631 
Q 3622 2519 3608 2391 
Q 3594 2263 3566 2113 
z
" id="DejaVuSans-Oblique-6e" transform="scale(0.015625)"/>
       <path d="M 2103 638 
Q 2188 488 2525 488 
L 2800 488 
L 2706 0 
L 2363 0 
Q 1800 0 1600 300 
Q 1403 606 1534 1269 
L 1856 2925 
L 541 2925 
L 653 3500 
L 3881 3500 
L 3769 2925 
L 2444 2925 
L 2113 1234 
Q 2025 781 2103 638 
z
" id="DejaVuSans-Oblique-3c4" transform="scale(0.015625)"/>
      </defs>
      <use xlink:href="#DejaVuSans-Oblique-6e"/>
      <use transform="translate(63.378906 -16.40625)scale(0.7)" xlink:href="#DejaVuSans-Oblique-3c4"/>
     </g>
    </g>
    <g id="line2d_3">
     <path d="M 516.774179 589.280313 
L 536.774179 589.280313 
" style="fill:none;stroke:#96c69a;stroke-linecap:round;stroke-width:3;"/>
    </g>
    <g id="line2d_4"/>
    <g id="text_17">
     <!-- 64 -->
     <g style="fill:#262626;" transform="translate(544.774179 592.780313)scale(0.1 -0.1)">
      <defs>
       <path d="M 2316 2303 
Q 2000 2303 1842 2098 
Q 1684 1894 1684 1484 
Q 1684 1075 1842 870 
Q 2000 666 2316 666 
Q 2634 666 2792 870 
Q 2950 1075 2950 1484 
Q 2950 1894 2792 2098 
Q 2634 2303 2316 2303 
z
M 3803 4544 
L 3803 3681 
Q 3506 3822 3243 3889 
Q 2981 3956 2731 3956 
Q 2194 3956 1894 3657 
Q 1594 3359 1544 2772 
Q 1750 2925 1990 3001 
Q 2231 3078 2516 3078 
Q 3231 3078 3670 2659 
Q 4109 2241 4109 1563 
Q 4109 813 3618 361 
Q 3128 -91 2303 -91 
Q 1394 -91 895 523 
Q 397 1138 397 2266 
Q 397 3422 980 4083 
Q 1563 4744 2578 4744 
Q 2900 4744 3203 4694 
Q 3506 4644 3803 4544 
z
" id="DejaVuSans-Bold-36" transform="scale(0.015625)"/>
       <path d="M 2356 3675 
L 1038 1722 
L 2356 1722 
L 2356 3675 
z
M 2156 4666 
L 3494 4666 
L 3494 1722 
L 4159 1722 
L 4159 850 
L 3494 850 
L 3494 0 
L 2356 0 
L 2356 850 
L 288 850 
L 288 1881 
L 2156 4666 
z
" id="DejaVuSans-Bold-34" transform="scale(0.015625)"/>
      </defs>
      <use xlink:href="#DejaVuSans-Bold-36"/>
      <use x="69.580078" xlink:href="#DejaVuSans-Bold-34"/>
     </g>
    </g>
   </g>
  </g>
  <g id="axes_2">
   <g id="patch_6">
    <path d="M 84.914375 92.437143 
L 567.689804 92.437143 
L 567.689804 7.2 
L 84.914375 7.2 
z
" style="fill:none;"/>
   </g>
   <g id="matplotlib.axis_3">
    <g id="xtick_7"/>
    <g id="xtick_8"/>
    <g id="xtick_9"/>
    <g id="xtick_10"/>
    <g id="xtick_11"/>
    <g id="xtick_12"/>
   </g>
   <g id="matplotlib.axis_4">
    <g id="ytick_8">
     <g id="text_18">
      <!-- 0 -->
      <g style="fill:#262626;" transform="translate(55.416875 100.795424)scale(0.22 -0.22)">
       <use xlink:href="#DejaVuSans-30"/>
      </g>
     </g>
    </g>
    <g id="ytick_9">
     <g id="text_19">
      <!-- 100 -->
      <g style="fill:#262626;" transform="translate(27.421875 48.082287)scale(0.22 -0.22)">
       <use xlink:href="#DejaVuSans-31"/>
       <use x="63.623047" xlink:href="#DejaVuSans-30"/>
       <use x="127.246094" xlink:href="#DejaVuSans-30"/>
      </g>
     </g>
    </g>
   </g>
   <g id="patch_7">
    <path clip-path="url(#pde4d945b3d)" d="M 106.858713 92.437143 
L 140.619232 92.437143 
L 140.619232 11.258912 
L 106.858713 11.258912 
z
" style="fill:#96c69a;fill-opacity:0.5;stroke:#ffffff;stroke-linejoin:miter;stroke-width:2;"/>
   </g>
   <g id="patch_8">
    <path clip-path="url(#pde4d945b3d)" d="M 140.619232 92.437143 
L 174.379752 92.437143 
L 174.379752 11.258912 
L 140.619232 11.258912 
z
" style="fill:#96c69a;fill-opacity:0.5;stroke:#ffffff;stroke-linejoin:miter;stroke-width:2;"/>
   </g>
   <g id="patch_9">
    <path clip-path="url(#pde4d945b3d)" d="M 174.379752 92.437143 
L 208.140271 92.437143 
L 208.140271 11.258912 
L 174.379752 11.258912 
z
" style="fill:#96c69a;fill-opacity:0.5;stroke:#ffffff;stroke-linejoin:miter;stroke-width:2;"/>
   </g>
   <g id="patch_10">
    <path clip-path="url(#pde4d945b3d)" d="M 208.140271 92.437143 
L 241.900791 92.437143 
L 241.900791 11.258912 
L 208.140271 11.258912 
z
" style="fill:#96c69a;fill-opacity:0.5;stroke:#ffffff;stroke-linejoin:miter;stroke-width:2;"/>
   </g>
   <g id="patch_11">
    <path clip-path="url(#pde4d945b3d)" d="M 241.900791 92.437143 
L 275.66131 92.437143 
L 275.66131 11.786043 
L 241.900791 11.786043 
z
" style="fill:#96c69a;fill-opacity:0.5;stroke:#ffffff;stroke-linejoin:miter;stroke-width:2;"/>
   </g>
   <g id="patch_12">
    <path clip-path="url(#pde4d945b3d)" d="M 275.66131 92.437143 
L 309.42183 92.437143 
L 309.42183 11.258912 
L 275.66131 11.258912 
z
" style="fill:#96c69a;fill-opacity:0.5;stroke:#ffffff;stroke-linejoin:miter;stroke-width:2;"/>
   </g>
   <g id="patch_13">
    <path clip-path="url(#pde4d945b3d)" d="M 309.42183 92.437143 
L 343.182349 92.437143 
L 343.182349 11.258912 
L 309.42183 11.258912 
z
" style="fill:#96c69a;fill-opacity:0.5;stroke:#ffffff;stroke-linejoin:miter;stroke-width:2;"/>
   </g>
   <g id="patch_14">
    <path clip-path="url(#pde4d945b3d)" d="M 343.182349 92.437143 
L 376.942869 92.437143 
L 376.942869 11.258912 
L 343.182349 11.258912 
z
" style="fill:#96c69a;fill-opacity:0.5;stroke:#ffffff;stroke-linejoin:miter;stroke-width:2;"/>
   </g>
   <g id="patch_15">
    <path clip-path="url(#pde4d945b3d)" d="M 376.942869 92.437143 
L 410.703388 92.437143 
L 410.703388 11.786043 
L 376.942869 11.786043 
z
" style="fill:#96c69a;fill-opacity:0.5;stroke:#ffffff;stroke-linejoin:miter;stroke-width:2;"/>
   </g>
   <g id="patch_16">
    <path clip-path="url(#pde4d945b3d)" d="M 410.703388 92.437143 
L 444.463907 92.437143 
L 444.463907 11.258912 
L 410.703388 11.258912 
z
" style="fill:#96c69a;fill-opacity:0.5;stroke:#ffffff;stroke-linejoin:miter;stroke-width:2;"/>
   </g>
   <g id="patch_17">
    <path clip-path="url(#pde4d945b3d)" d="M 444.463907 92.437143 
L 478.224427 92.437143 
L 478.224427 11.258912 
L 444.463907 11.258912 
z
" style="fill:#96c69a;fill-opacity:0.5;stroke:#ffffff;stroke-linejoin:miter;stroke-width:2;"/>
   </g>
   <g id="patch_18">
    <path clip-path="url(#pde4d945b3d)" d="M 478.224427 92.437143 
L 511.984946 92.437143 
L 511.984946 11.258912 
L 478.224427 11.258912 
z
" style="fill:#96c69a;fill-opacity:0.5;stroke:#ffffff;stroke-linejoin:miter;stroke-width:2;"/>
   </g>
   <g id="patch_19">
    <path clip-path="url(#pde4d945b3d)" d="M 511.984946 92.437143 
L 545.745466 92.437143 
L 545.745466 11.258912 
L 511.984946 11.258912 
z
" style="fill:#96c69a;fill-opacity:0.5;stroke:#ffffff;stroke-linejoin:miter;stroke-width:2;"/>
   </g>
   <g id="patch_20">
    <path d="M 84.914375 92.437143 
L 84.914375 7.2 
" style="fill:none;stroke:#262626;stroke-linecap:square;stroke-linejoin:miter;stroke-width:2.5;"/>
   </g>
   <g id="patch_21">
    <path d="M 84.914375 92.437143 
L 567.689804 92.437143 
" style="fill:none;stroke:#262626;stroke-linecap:square;stroke-linejoin:miter;stroke-width:2.5;"/>
   </g>
  </g>
  <g id="axes_3">
   <g id="patch_22">
    <path d="M 584.337232 603.86 
L 667.574375 603.86 
L 667.574375 109.484571 
L 584.337232 109.484571 
z
" style="fill:none;"/>
   </g>
   <g id="matplotlib.axis_5">
    <g id="xtick_13">
     <g id="text_20">
      <!-- 0 -->
      <g style="fill:#262626;" transform="translate(577.338482 636.076563)scale(0.22 -0.22)">
       <use xlink:href="#DejaVuSans-30"/>
      </g>
     </g>
    </g>
    <g id="xtick_14">
     <g id="text_21">
      <!-- 100 -->
      <g style="fill:#262626;" transform="translate(608.900447 636.076563)scale(0.22 -0.22)">
       <use xlink:href="#DejaVuSans-31"/>
       <use x="63.623047" xlink:href="#DejaVuSans-30"/>
       <use x="127.246094" xlink:href="#DejaVuSans-30"/>
      </g>
     </g>
    </g>
   </g>
   <g id="matplotlib.axis_6">
    <g id="ytick_10"/>
    <g id="ytick_11"/>
    <g id="ytick_12"/>
    <g id="ytick_13"/>
    <g id="ytick_14"/>
    <g id="ytick_15"/>
    <g id="ytick_16"/>
   </g>
   <g id="patch_23">
    <path clip-path="url(#p5e6bef3791)" d="M 584.337232 581.38839 
L 584.792827 581.38839 
L 584.792827 570.152584 
L 584.337232 570.152584 
z
" style="fill:#96c69a;fill-opacity:0.5;stroke:#ffffff;stroke-linejoin:miter;stroke-width:1.123581;"/>
   </g>
   <g id="patch_24">
    <path clip-path="url(#p5e6bef3791)" d="M 584.337232 570.152584 
L 585.704016 570.152584 
L 585.704016 558.916779 
L 584.337232 558.916779 
z
" style="fill:#96c69a;fill-opacity:0.5;stroke:#ffffff;stroke-linejoin:miter;stroke-width:1.123581;"/>
   </g>
   <g id="patch_25">
    <path clip-path="url(#p5e6bef3791)" d="M 584.337232 558.916779 
L 590.259963 558.916779 
L 590.259963 547.680974 
L 584.337232 547.680974 
z
" style="fill:#96c69a;fill-opacity:0.5;stroke:#ffffff;stroke-linejoin:miter;stroke-width:1.123581;"/>
   </g>
   <g id="patch_26">
    <path clip-path="url(#p5e6bef3791)" d="M 584.337232 547.680974 
L 592.993531 547.680974 
L 592.993531 536.445169 
L 584.337232 536.445169 
z
" style="fill:#96c69a;fill-opacity:0.5;stroke:#ffffff;stroke-linejoin:miter;stroke-width:1.123581;"/>
   </g>
   <g id="patch_27">
    <path clip-path="url(#p5e6bef3791)" d="M 584.337232 536.445169 
L 595.727098 536.445169 
L 595.727098 525.209364 
L 584.337232 525.209364 
z
" style="fill:#96c69a;fill-opacity:0.5;stroke:#ffffff;stroke-linejoin:miter;stroke-width:1.123581;"/>
   </g>
   <g id="patch_28">
    <path clip-path="url(#p5e6bef3791)" d="M 584.337232 525.209364 
L 603.472208 525.209364 
L 603.472208 513.973558 
L 584.337232 513.973558 
z
" style="fill:#96c69a;fill-opacity:0.5;stroke:#ffffff;stroke-linejoin:miter;stroke-width:1.123581;"/>
   </g>
   <g id="patch_29">
    <path clip-path="url(#p5e6bef3791)" d="M 584.337232 513.973558 
L 616.228858 513.973558 
L 616.228858 502.737753 
L 584.337232 502.737753 
z
" style="fill:#96c69a;fill-opacity:0.5;stroke:#ffffff;stroke-linejoin:miter;stroke-width:1.123581;"/>
   </g>
   <g id="patch_30">
    <path clip-path="url(#p5e6bef3791)" d="M 584.337232 502.737753 
L 623.973967 502.737753 
L 623.973967 491.501948 
L 584.337232 491.501948 
z
" style="fill:#96c69a;fill-opacity:0.5;stroke:#ffffff;stroke-linejoin:miter;stroke-width:1.123581;"/>
   </g>
   <g id="patch_31">
    <path clip-path="url(#p5e6bef3791)" d="M 584.337232 491.501948 
L 651.765241 491.501948 
L 651.765241 480.266143 
L 584.337232 480.266143 
z
" style="fill:#96c69a;fill-opacity:0.5;stroke:#ffffff;stroke-linejoin:miter;stroke-width:1.123581;"/>
   </g>
   <g id="patch_32">
    <path clip-path="url(#p5e6bef3791)" d="M 584.337232 480.266143 
L 649.031673 480.266143 
L 649.031673 469.030338 
L 584.337232 469.030338 
z
" style="fill:#96c69a;fill-opacity:0.5;stroke:#ffffff;stroke-linejoin:miter;stroke-width:1.123581;"/>
   </g>
   <g id="patch_33">
    <path clip-path="url(#p5e6bef3791)" d="M 584.337232 469.030338 
L 658.143566 469.030338 
L 658.143566 457.794532 
L 584.337232 457.794532 
z
" style="fill:#96c69a;fill-opacity:0.5;stroke:#ffffff;stroke-linejoin:miter;stroke-width:1.123581;"/>
   </g>
   <g id="patch_34">
    <path clip-path="url(#p5e6bef3791)" d="M 584.337232 457.794532 
L 663.610702 457.794532 
L 663.610702 446.558727 
L 584.337232 446.558727 
z
" style="fill:#96c69a;fill-opacity:0.5;stroke:#ffffff;stroke-linejoin:miter;stroke-width:1.123581;"/>
   </g>
   <g id="patch_35">
    <path clip-path="url(#p5e6bef3791)" d="M 584.337232 446.558727 
L 659.965944 446.558727 
L 659.965944 435.322922 
L 584.337232 435.322922 
z
" style="fill:#96c69a;fill-opacity:0.5;stroke:#ffffff;stroke-linejoin:miter;stroke-width:1.123581;"/>
   </g>
   <g id="patch_36">
    <path clip-path="url(#p5e6bef3791)" d="M 584.337232 435.322922 
L 660.877134 435.322922 
L 660.877134 424.087117 
L 584.337232 424.087117 
z
" style="fill:#96c69a;fill-opacity:0.5;stroke:#ffffff;stroke-linejoin:miter;stroke-width:1.123581;"/>
   </g>
   <g id="patch_37">
    <path clip-path="url(#p5e6bef3791)" d="M 584.337232 424.087117 
L 656.321187 424.087117 
L 656.321187 412.851312 
L 584.337232 412.851312 
z
" style="fill:#96c69a;fill-opacity:0.5;stroke:#ffffff;stroke-linejoin:miter;stroke-width:1.123581;"/>
   </g>
   <g id="patch_38">
    <path clip-path="url(#p5e6bef3791)" d="M 584.337232 412.851312 
L 635.819428 412.851312 
L 635.819428 401.615506 
L 584.337232 401.615506 
z
" style="fill:#96c69a;fill-opacity:0.5;stroke:#ffffff;stroke-linejoin:miter;stroke-width:1.123581;"/>
   </g>
   <g id="patch_39">
    <path clip-path="url(#p5e6bef3791)" d="M 584.337232 401.615506 
L 632.174671 401.615506 
L 632.174671 390.379701 
L 584.337232 390.379701 
z
" style="fill:#96c69a;fill-opacity:0.5;stroke:#ffffff;stroke-linejoin:miter;stroke-width:1.123581;"/>
   </g>
   <g id="patch_40">
    <path clip-path="url(#p5e6bef3791)" d="M 584.337232 390.379701 
L 626.25194 390.379701 
L 626.25194 379.143896 
L 584.337232 379.143896 
z
" style="fill:#96c69a;fill-opacity:0.5;stroke:#ffffff;stroke-linejoin:miter;stroke-width:1.123581;"/>
   </g>
   <g id="patch_41">
    <path clip-path="url(#p5e6bef3791)" d="M 584.337232 379.143896 
L 613.039695 379.143896 
L 613.039695 367.908091 
L 584.337232 367.908091 
z
" style="fill:#96c69a;fill-opacity:0.5;stroke:#ffffff;stroke-linejoin:miter;stroke-width:1.123581;"/>
   </g>
   <g id="patch_42">
    <path clip-path="url(#p5e6bef3791)" d="M 584.337232 367.908091 
L 612.584101 367.908091 
L 612.584101 356.672286 
L 584.337232 356.672286 
z
" style="fill:#96c69a;fill-opacity:0.5;stroke:#ffffff;stroke-linejoin:miter;stroke-width:1.123581;"/>
   </g>
   <g id="patch_43">
    <path clip-path="url(#p5e6bef3791)" d="M 584.337232 356.672286 
L 603.927802 356.672286 
L 603.927802 345.436481 
L 584.337232 345.436481 
z
" style="fill:#96c69a;fill-opacity:0.5;stroke:#ffffff;stroke-linejoin:miter;stroke-width:1.123581;"/>
   </g>
   <g id="patch_44">
    <path clip-path="url(#p5e6bef3791)" d="M 584.337232 345.436481 
L 604.383397 345.436481 
L 604.383397 334.200675 
L 584.337232 334.200675 
z
" style="fill:#96c69a;fill-opacity:0.5;stroke:#ffffff;stroke-linejoin:miter;stroke-width:1.123581;"/>
   </g>
   <g id="patch_45">
    <path clip-path="url(#p5e6bef3791)" d="M 584.337232 334.200675 
L 595.727098 334.200675 
L 595.727098 322.96487 
L 584.337232 322.96487 
z
" style="fill:#96c69a;fill-opacity:0.5;stroke:#ffffff;stroke-linejoin:miter;stroke-width:1.123581;"/>
   </g>
   <g id="patch_46">
    <path clip-path="url(#p5e6bef3791)" d="M 584.337232 322.96487 
L 591.171152 322.96487 
L 591.171152 311.729065 
L 584.337232 311.729065 
z
" style="fill:#96c69a;fill-opacity:0.5;stroke:#ffffff;stroke-linejoin:miter;stroke-width:1.123581;"/>
   </g>
   <g id="patch_47">
    <path clip-path="url(#p5e6bef3791)" d="M 584.337232 311.729065 
L 591.171152 311.729065 
L 591.171152 300.49326 
L 584.337232 300.49326 
z
" style="fill:#96c69a;fill-opacity:0.5;stroke:#ffffff;stroke-linejoin:miter;stroke-width:1.123581;"/>
   </g>
   <g id="patch_48">
    <path clip-path="url(#p5e6bef3791)" d="M 584.337232 300.49326 
L 590.715557 300.49326 
L 590.715557 289.257455 
L 584.337232 289.257455 
z
" style="fill:#96c69a;fill-opacity:0.5;stroke:#ffffff;stroke-linejoin:miter;stroke-width:1.123581;"/>
   </g>
   <g id="patch_49">
    <path clip-path="url(#p5e6bef3791)" d="M 584.337232 289.257455 
L 587.981989 289.257455 
L 587.981989 278.021649 
L 584.337232 278.021649 
z
" style="fill:#96c69a;fill-opacity:0.5;stroke:#ffffff;stroke-linejoin:miter;stroke-width:1.123581;"/>
   </g>
   <g id="patch_50">
    <path clip-path="url(#p5e6bef3791)" d="M 584.337232 278.021649 
L 586.159611 278.021649 
L 586.159611 266.785844 
L 584.337232 266.785844 
z
" style="fill:#96c69a;fill-opacity:0.5;stroke:#ffffff;stroke-linejoin:miter;stroke-width:1.123581;"/>
   </g>
   <g id="patch_51">
    <path clip-path="url(#p5e6bef3791)" d="M 584.337232 266.785844 
L 586.615205 266.785844 
L 586.615205 255.550039 
L 584.337232 255.550039 
z
" style="fill:#96c69a;fill-opacity:0.5;stroke:#ffffff;stroke-linejoin:miter;stroke-width:1.123581;"/>
   </g>
   <g id="patch_52">
    <path clip-path="url(#p5e6bef3791)" d="M 584.337232 255.550039 
L 586.159611 255.550039 
L 586.159611 244.314234 
L 584.337232 244.314234 
z
" style="fill:#96c69a;fill-opacity:0.5;stroke:#ffffff;stroke-linejoin:miter;stroke-width:1.123581;"/>
   </g>
   <g id="patch_53">
    <path clip-path="url(#p5e6bef3791)" d="M 584.337232 244.314234 
L 585.248421 244.314234 
L 585.248421 233.078429 
L 584.337232 233.078429 
z
" style="fill:#96c69a;fill-opacity:0.5;stroke:#ffffff;stroke-linejoin:miter;stroke-width:1.123581;"/>
   </g>
   <g id="patch_54">
    <path clip-path="url(#p5e6bef3791)" d="M 584.337232 233.078429 
L 584.792827 233.078429 
L 584.792827 221.842623 
L 584.337232 221.842623 
z
" style="fill:#96c69a;fill-opacity:0.5;stroke:#ffffff;stroke-linejoin:miter;stroke-width:1.123581;"/>
   </g>
   <g id="patch_55">
    <path clip-path="url(#p5e6bef3791)" d="M 584.337232 221.842623 
L 585.704016 221.842623 
L 585.704016 210.606818 
L 584.337232 210.606818 
z
" style="fill:#96c69a;fill-opacity:0.5;stroke:#ffffff;stroke-linejoin:miter;stroke-width:1.123581;"/>
   </g>
   <g id="patch_56">
    <path clip-path="url(#p5e6bef3791)" d="M 584.337232 210.606818 
L 585.248421 210.606818 
L 585.248421 199.371013 
L 584.337232 199.371013 
z
" style="fill:#96c69a;fill-opacity:0.5;stroke:#ffffff;stroke-linejoin:miter;stroke-width:1.123581;"/>
   </g>
   <g id="patch_57">
    <path clip-path="url(#p5e6bef3791)" d="M 584.337232 199.371013 
L 584.337232 199.371013 
L 584.337232 188.135208 
L 584.337232 188.135208 
z
" style="fill:#96c69a;fill-opacity:0.5;stroke:#ffffff;stroke-linejoin:miter;stroke-width:1.123581;"/>
   </g>
   <g id="patch_58">
    <path clip-path="url(#p5e6bef3791)" d="M 584.337232 188.135208 
L 584.337232 188.135208 
L 584.337232 176.899403 
L 584.337232 176.899403 
z
" style="fill:#96c69a;fill-opacity:0.5;stroke:#ffffff;stroke-linejoin:miter;stroke-width:1.123581;"/>
   </g>
   <g id="patch_59">
    <path clip-path="url(#p5e6bef3791)" d="M 584.337232 176.899403 
L 584.337232 176.899403 
L 584.337232 165.663597 
L 584.337232 165.663597 
z
" style="fill:#96c69a;fill-opacity:0.5;stroke:#ffffff;stroke-linejoin:miter;stroke-width:1.123581;"/>
   </g>
   <g id="patch_60">
    <path clip-path="url(#p5e6bef3791)" d="M 584.337232 165.663597 
L 584.337232 165.663597 
L 584.337232 154.427792 
L 584.337232 154.427792 
z
" style="fill:#96c69a;fill-opacity:0.5;stroke:#ffffff;stroke-linejoin:miter;stroke-width:1.123581;"/>
   </g>
   <g id="patch_61">
    <path clip-path="url(#p5e6bef3791)" d="M 584.337232 154.427792 
L 584.337232 154.427792 
L 584.337232 143.191987 
L 584.337232 143.191987 
z
" style="fill:#96c69a;fill-opacity:0.5;stroke:#ffffff;stroke-linejoin:miter;stroke-width:1.123581;"/>
   </g>
   <g id="patch_62">
    <path clip-path="url(#p5e6bef3791)" d="M 584.337232 143.191987 
L 585.248421 143.191987 
L 585.248421 131.956182 
L 584.337232 131.956182 
z
" style="fill:#96c69a;fill-opacity:0.5;stroke:#ffffff;stroke-linejoin:miter;stroke-width:1.123581;"/>
   </g>
   <g id="patch_63">
    <path d="M 584.337232 603.86 
L 584.337232 109.484571 
" style="fill:none;stroke:#262626;stroke-linecap:square;stroke-linejoin:miter;stroke-width:2.5;"/>
   </g>
   <g id="patch_64">
    <path d="M 584.337232 603.86 
L 667.574375 603.86 
" style="fill:none;stroke:#262626;stroke-linecap:square;stroke-linejoin:miter;stroke-width:2.5;"/>
   </g>
  </g>
 </g>
 <defs>
  <clipPath id="pbc127dcf2e">
   <rect height="494.375429" width="482.775429" x="84.914375" y="109.484571"/>
  </clipPath>
  <clipPath id="pde4d945b3d">
   <rect height="85.237143" width="482.775429" x="84.914375" y="7.2"/>
  </clipPath>
  <clipPath id="p5e6bef3791">
   <rect height="494.375429" width="83.237143" x="584.337232" y="109.484571"/>
  </clipPath>
 </defs>
</svg>
