<?xml version="1.0" encoding="utf-8" standalone="no"?>
<!DOCTYPE svg PUBLIC "-//W3C//DTD SVG 1.1//EN"
  "http://www.w3.org/Graphics/SVG/1.1/DTD/svg11.dtd">
<svg height="675.079375pt" version="1.1" viewBox="0 0 674.774375 675.079375" width="674.774375pt" xmlns="http://www.w3.org/2000/svg" xmlns:xlink="http://www.w3.org/1999/xlink">
 <metadata>
  <rdf:RDF xmlns:cc="http://creativecommons.org/ns#" xmlns:dc="http://purl.org/dc/elements/1.1/" xmlns:rdf="http://www.w3.org/1999/02/22-rdf-syntax-ns#">
   <cc:Work>
    <dc:type rdf:resource="http://purl.org/dc/dcmitype/StillImage"/>
    <dc:date>2021-07-16T21:43:57.869449</dc:date>
    <dc:format>image/svg+xml</dc:format>
    <dc:creator>
     <cc:Agent>
      <dc:title>Matplotlib v3.4.2, https://matplotlib.org/</dc:title>
     </cc:Agent>
    </dc:creator>
   </cc:Work>
  </rdf:RDF>
 </metadata>
 <defs>
  <style type="text/css">*{stroke-linecap:butt;stroke-linejoin:round;}</style>
 </defs>
 <g id="figure_1">
  <g id="patch_1">
   <path d="M 0 675.079375 
L 674.774375 675.079375 
L 674.774375 0 
L 0 0 
z
" style="fill:#ffffff;"/>
  </g>
  <g id="axes_1">
   <g id="patch_2">
    <path d="M 84.914375 603.86 
L 567.689804 603.86 
L 567.689804 109.484571 
L 84.914375 109.484571 
z
" style="fill:none;"/>
   </g>
   <g id="matplotlib.axis_1">
    <g id="xtick_1">
     <g id="text_1">
      <!-- 0 -->
      <g style="fill:#262626;" transform="translate(99.64041 636.076563)scale(0.22 -0.22)">
       <defs>
        <path d="M 2034 4250 
Q 1547 4250 1301 3770 
Q 1056 3291 1056 2328 
Q 1056 1369 1301 889 
Q 1547 409 2034 409 
Q 2525 409 2770 889 
Q 3016 1369 3016 2328 
Q 3016 3291 2770 3770 
Q 2525 4250 2034 4250 
z
M 2034 4750 
Q 2819 4750 3233 4129 
Q 3647 3509 3647 2328 
Q 3647 1150 3233 529 
Q 2819 -91 2034 -91 
Q 1250 -91 836 529 
Q 422 1150 422 2328 
Q 422 3509 836 4129 
Q 1250 4750 2034 4750 
z
" id="DejaVuSans-30" transform="scale(0.015625)"/>
       </defs>
       <use xlink:href="#DejaVuSans-30"/>
      </g>
     </g>
    </g>
    <g id="xtick_2">
     <g id="text_2">
      <!-- 20000 -->
      <g style="fill:#262626;" transform="translate(159.466671 636.076563)scale(0.22 -0.22)">
       <defs>
        <path d="M 1228 531 
L 3431 531 
L 3431 0 
L 469 0 
L 469 531 
Q 828 903 1448 1529 
Q 2069 2156 2228 2338 
Q 2531 2678 2651 2914 
Q 2772 3150 2772 3378 
Q 2772 3750 2511 3984 
Q 2250 4219 1831 4219 
Q 1534 4219 1204 4116 
Q 875 4013 500 3803 
L 500 4441 
Q 881 4594 1212 4672 
Q 1544 4750 1819 4750 
Q 2544 4750 2975 4387 
Q 3406 4025 3406 3419 
Q 3406 3131 3298 2873 
Q 3191 2616 2906 2266 
Q 2828 2175 2409 1742 
Q 1991 1309 1228 531 
z
" id="DejaVuSans-32" transform="scale(0.015625)"/>
       </defs>
       <use xlink:href="#DejaVuSans-32"/>
       <use x="63.623047" xlink:href="#DejaVuSans-30"/>
       <use x="127.246094" xlink:href="#DejaVuSans-30"/>
       <use x="190.869141" xlink:href="#DejaVuSans-30"/>
       <use x="254.492188" xlink:href="#DejaVuSans-30"/>
      </g>
     </g>
    </g>
    <g id="xtick_3">
     <g id="text_3">
      <!-- 40000 -->
      <g style="fill:#262626;" transform="translate(247.287932 636.076563)scale(0.22 -0.22)">
       <defs>
        <path d="M 2419 4116 
L 825 1625 
L 2419 1625 
L 2419 4116 
z
M 2253 4666 
L 3047 4666 
L 3047 1625 
L 3713 1625 
L 3713 1100 
L 3047 1100 
L 3047 0 
L 2419 0 
L 2419 1100 
L 313 1100 
L 313 1709 
L 2253 4666 
z
" id="DejaVuSans-34" transform="scale(0.015625)"/>
       </defs>
       <use xlink:href="#DejaVuSans-34"/>
       <use x="63.623047" xlink:href="#DejaVuSans-30"/>
       <use x="127.246094" xlink:href="#DejaVuSans-30"/>
       <use x="190.869141" xlink:href="#DejaVuSans-30"/>
       <use x="254.492188" xlink:href="#DejaVuSans-30"/>
      </g>
     </g>
    </g>
    <g id="xtick_4">
     <g id="text_4">
      <!-- 60000 -->
      <g style="fill:#262626;" transform="translate(335.109193 636.076563)scale(0.22 -0.22)">
       <defs>
        <path d="M 2113 2584 
Q 1688 2584 1439 2293 
Q 1191 2003 1191 1497 
Q 1191 994 1439 701 
Q 1688 409 2113 409 
Q 2538 409 2786 701 
Q 3034 994 3034 1497 
Q 3034 2003 2786 2293 
Q 2538 2584 2113 2584 
z
M 3366 4563 
L 3366 3988 
Q 3128 4100 2886 4159 
Q 2644 4219 2406 4219 
Q 1781 4219 1451 3797 
Q 1122 3375 1075 2522 
Q 1259 2794 1537 2939 
Q 1816 3084 2150 3084 
Q 2853 3084 3261 2657 
Q 3669 2231 3669 1497 
Q 3669 778 3244 343 
Q 2819 -91 2113 -91 
Q 1303 -91 875 529 
Q 447 1150 447 2328 
Q 447 3434 972 4092 
Q 1497 4750 2381 4750 
Q 2619 4750 2861 4703 
Q 3103 4656 3366 4563 
z
" id="DejaVuSans-36" transform="scale(0.015625)"/>
       </defs>
       <use xlink:href="#DejaVuSans-36"/>
       <use x="63.623047" xlink:href="#DejaVuSans-30"/>
       <use x="127.246094" xlink:href="#DejaVuSans-30"/>
       <use x="190.869141" xlink:href="#DejaVuSans-30"/>
       <use x="254.492188" xlink:href="#DejaVuSans-30"/>
      </g>
     </g>
    </g>
    <g id="xtick_5">
     <g id="text_5">
      <!-- 80000 -->
      <g style="fill:#262626;" transform="translate(422.930455 636.076563)scale(0.22 -0.22)">
       <defs>
        <path d="M 2034 2216 
Q 1584 2216 1326 1975 
Q 1069 1734 1069 1313 
Q 1069 891 1326 650 
Q 1584 409 2034 409 
Q 2484 409 2743 651 
Q 3003 894 3003 1313 
Q 3003 1734 2745 1975 
Q 2488 2216 2034 2216 
z
M 1403 2484 
Q 997 2584 770 2862 
Q 544 3141 544 3541 
Q 544 4100 942 4425 
Q 1341 4750 2034 4750 
Q 2731 4750 3128 4425 
Q 3525 4100 3525 3541 
Q 3525 3141 3298 2862 
Q 3072 2584 2669 2484 
Q 3125 2378 3379 2068 
Q 3634 1759 3634 1313 
Q 3634 634 3220 271 
Q 2806 -91 2034 -91 
Q 1263 -91 848 271 
Q 434 634 434 1313 
Q 434 1759 690 2068 
Q 947 2378 1403 2484 
z
M 1172 3481 
Q 1172 3119 1398 2916 
Q 1625 2713 2034 2713 
Q 2441 2713 2670 2916 
Q 2900 3119 2900 3481 
Q 2900 3844 2670 4047 
Q 2441 4250 2034 4250 
Q 1625 4250 1398 4047 
Q 1172 3844 1172 3481 
z
" id="DejaVuSans-38" transform="scale(0.015625)"/>
       </defs>
       <use xlink:href="#DejaVuSans-38"/>
       <use x="63.623047" xlink:href="#DejaVuSans-30"/>
       <use x="127.246094" xlink:href="#DejaVuSans-30"/>
       <use x="190.869141" xlink:href="#DejaVuSans-30"/>
       <use x="254.492188" xlink:href="#DejaVuSans-30"/>
      </g>
     </g>
    </g>
    <g id="xtick_6">
     <g id="text_6">
      <!-- 100000 -->
      <g style="fill:#262626;" transform="translate(503.752966 636.076563)scale(0.22 -0.22)">
       <defs>
        <path d="M 794 531 
L 1825 531 
L 1825 4091 
L 703 3866 
L 703 4441 
L 1819 4666 
L 2450 4666 
L 2450 531 
L 3481 531 
L 3481 0 
L 794 0 
L 794 531 
z
" id="DejaVuSans-31" transform="scale(0.015625)"/>
       </defs>
       <use xlink:href="#DejaVuSans-31"/>
       <use x="63.623047" xlink:href="#DejaVuSans-30"/>
       <use x="127.246094" xlink:href="#DejaVuSans-30"/>
       <use x="190.869141" xlink:href="#DejaVuSans-30"/>
       <use x="254.492188" xlink:href="#DejaVuSans-30"/>
       <use x="318.115234" xlink:href="#DejaVuSans-30"/>
      </g>
     </g>
    </g>
    <g id="text_7">
     <!-- MDTU -->
     <g style="fill:#262626;" transform="translate(290.596464 662.888125)scale(0.24 -0.24)">
      <defs>
       <path d="M 628 4666 
L 1569 4666 
L 2759 1491 
L 3956 4666 
L 4897 4666 
L 4897 0 
L 4281 0 
L 4281 4097 
L 3078 897 
L 2444 897 
L 1241 4097 
L 1241 0 
L 628 0 
L 628 4666 
z
" id="DejaVuSans-4d" transform="scale(0.015625)"/>
       <path d="M 1259 4147 
L 1259 519 
L 2022 519 
Q 2988 519 3436 956 
Q 3884 1394 3884 2338 
Q 3884 3275 3436 3711 
Q 2988 4147 2022 4147 
L 1259 4147 
z
M 628 4666 
L 1925 4666 
Q 3281 4666 3915 4102 
Q 4550 3538 4550 2338 
Q 4550 1131 3912 565 
Q 3275 0 1925 0 
L 628 0 
L 628 4666 
z
" id="DejaVuSans-44" transform="scale(0.015625)"/>
       <path d="M -19 4666 
L 3928 4666 
L 3928 4134 
L 2272 4134 
L 2272 0 
L 1638 0 
L 1638 4134 
L -19 4134 
L -19 4666 
z
" id="DejaVuSans-54" transform="scale(0.015625)"/>
       <path d="M 556 4666 
L 1191 4666 
L 1191 1831 
Q 1191 1081 1462 751 
Q 1734 422 2344 422 
Q 2950 422 3222 751 
Q 3494 1081 3494 1831 
L 3494 4666 
L 4128 4666 
L 4128 1753 
Q 4128 841 3676 375 
Q 3225 -91 2344 -91 
Q 1459 -91 1007 375 
Q 556 841 556 1753 
L 556 4666 
z
" id="DejaVuSans-55" transform="scale(0.015625)"/>
      </defs>
      <use xlink:href="#DejaVuSans-4d"/>
      <use x="86.279297" xlink:href="#DejaVuSans-44"/>
      <use x="163.28125" xlink:href="#DejaVuSans-54"/>
      <use x="224.365234" xlink:href="#DejaVuSans-55"/>
     </g>
    </g>
   </g>
   <g id="matplotlib.axis_2">
    <g id="ytick_1">
     <g id="text_8">
      <!-- 0.4 -->
      <g style="fill:#262626;" transform="translate(34.4275 606.169449)scale(0.22 -0.22)">
       <defs>
        <path d="M 684 794 
L 1344 794 
L 1344 0 
L 684 0 
L 684 794 
z
" id="DejaVuSans-2e" transform="scale(0.015625)"/>
       </defs>
       <use xlink:href="#DejaVuSans-30"/>
       <use x="63.623047" xlink:href="#DejaVuSans-2e"/>
       <use x="95.410156" xlink:href="#DejaVuSans-34"/>
      </g>
     </g>
    </g>
    <g id="ytick_2">
     <g id="text_9">
      <!-- 0.6 -->
      <g style="fill:#262626;" transform="translate(34.4275 499.07275)scale(0.22 -0.22)">
       <use xlink:href="#DejaVuSans-30"/>
       <use x="63.623047" xlink:href="#DejaVuSans-2e"/>
       <use x="95.410156" xlink:href="#DejaVuSans-36"/>
      </g>
     </g>
    </g>
    <g id="ytick_3">
     <g id="text_10">
      <!-- 0.8 -->
      <g style="fill:#262626;" transform="translate(34.4275 391.97605)scale(0.22 -0.22)">
       <use xlink:href="#DejaVuSans-30"/>
       <use x="63.623047" xlink:href="#DejaVuSans-2e"/>
       <use x="95.410156" xlink:href="#DejaVuSans-38"/>
      </g>
     </g>
    </g>
    <g id="ytick_4">
     <g id="text_11">
      <!-- 1.0 -->
      <g style="fill:#262626;" transform="translate(34.4275 284.879351)scale(0.22 -0.22)">
       <use xlink:href="#DejaVuSans-31"/>
       <use x="63.623047" xlink:href="#DejaVuSans-2e"/>
       <use x="95.410156" xlink:href="#DejaVuSans-30"/>
      </g>
     </g>
    </g>
    <g id="ytick_5">
     <g id="text_12">
      <!-- 1.2 -->
      <g style="fill:#262626;" transform="translate(34.4275 177.782652)scale(0.22 -0.22)">
       <use xlink:href="#DejaVuSans-31"/>
       <use x="63.623047" xlink:href="#DejaVuSans-2e"/>
       <use x="95.410156" xlink:href="#DejaVuSans-32"/>
      </g>
     </g>
    </g>
    <g id="text_13">
     <!-- $E$ -->
     <g style="fill:#262626;" transform="translate(25.43625 364.352286)rotate(-90)scale(0.24 -0.24)">
      <defs>
       <path d="M 1081 4666 
L 4031 4666 
L 3928 4134 
L 1606 4134 
L 1338 2753 
L 3566 2753 
L 3463 2222 
L 1234 2222 
L 909 531 
L 3284 531 
L 3181 0 
L 172 0 
L 1081 4666 
z
" id="DejaVuSans-Oblique-45" transform="scale(0.015625)"/>
      </defs>
      <use transform="translate(0 0.09375)" xlink:href="#DejaVuSans-Oblique-45"/>
     </g>
    </g>
   </g>
   <g id="line2d_1">
    <path clip-path="url(#p7d3bae0f02)" d="M 106.858713 440.719197 
L 107.078266 520.796306 
L 107.297819 395.892936 
L 107.517372 405.733244 
L 107.736925 500.472703 
L 107.956478 284.507791 
L 108.176032 469.286399 
L 108.395585 461.648882 
L 108.615138 347.91082 
L 108.834691 423.895306 
L 109.054244 431.415973 
L 109.273797 423.364717 
L 109.493351 354.596831 
L 109.712904 431.170583 
L 109.932457 293.432944 
L 110.15201 488.02766 
L 110.591116 330.12811 
L 110.810669 394.725561 
L 111.030223 384.975601 
L 111.249776 351.750717 
L 111.469329 379.190494 
L 111.688882 315.825236 
L 112.127988 474.977867 
L 112.347541 347.34953 
L 112.567095 420.330462 
L 112.786648 401.648754 
L 113.006201 350.539509 
L 113.225754 364.067892 
L 113.445307 470.348834 
L 113.66486 352.715885 
L 113.884414 456.473041 
L 114.103967 396.086672 
L 114.32352 389.30932 
L 114.543073 388.434904 
L 114.762626 413.969971 
L 114.982179 371.502248 
L 115.201732 386.751963 
L 115.421286 440.817619 
L 115.640839 407.484469 
L 115.860392 490.960146 
L 116.519051 384.952613 
L 116.738605 378.185268 
L 116.958158 435.58302 
L 117.177711 294.983736 
L 117.397264 523.454902 
L 117.616817 365.869764 
L 117.83637 453.368599 
L 118.055923 462.281463 
L 118.275477 425.205245 
L 118.49503 441.829461 
L 118.714583 322.883486 
L 118.934136 451.738867 
L 119.373242 351.669117 
L 119.592796 444.674777 
L 119.812349 432.238074 
L 120.251455 390.831039 
L 120.471008 399.973426 
L 120.690561 370.124487 
L 121.129668 451.370137 
L 121.349221 430.55748 
L 121.568774 391.367862 
L 121.788327 302.024118 
L 122.00788 428.279307 
L 122.227433 398.13884 
L 122.446987 235.344093 
L 122.886093 462.76379 
L 123.105646 421.892595 
L 123.544752 292.296425 
L 123.764305 490.264133 
L 123.983859 374.660603 
L 124.203412 364.200619 
L 124.422965 398.697758 
L 124.642518 304.442308 
L 124.862071 414.286032 
L 125.081624 364.699336 
L 125.740284 431.499903 
L 125.959837 497.441073 
L 126.17939 414.015716 
L 126.398943 400.644757 
L 126.618496 465.21706 
L 126.83805 453.026602 
L 127.057603 267.850971 
L 127.277156 403.76573 
L 127.496709 366.945306 
L 127.935815 507.774624 
L 128.594475 310.052283 
L 129.033581 456.71814 
L 129.253134 434.425916 
L 129.472687 447.386679 
L 129.692241 398.707391 
L 129.911794 312.695248 
L 130.131347 334.344313 
L 130.3509 404.988851 
L 130.790006 445.520446 
L 131.00956 439.031827 
L 131.229113 331.094461 
L 131.448666 337.105945 
L 131.668219 476.79349 
L 131.887772 275.608604 
L 132.107325 449.215697 
L 132.326878 349.640981 
L 132.546432 352.305209 
L 132.765985 429.837182 
L 132.985538 426.10073 
L 133.205091 347.634902 
L 133.644197 440.894187 
L 133.863751 411.800191 
L 134.083304 405.355139 
L 134.302857 234.28946 
L 134.52241 463.439403 
L 134.741963 458.68282 
L 134.961516 383.448519 
L 135.181069 402.054784 
L 135.400623 446.989595 
L 135.620176 393.294129 
L 135.839729 407.204756 
L 136.059282 393.431709 
L 136.278835 366.212678 
L 136.498388 381.204894 
L 136.717941 427.181867 
L 136.937495 378.834897 
L 137.157048 449.816242 
L 137.376601 439.548701 
L 137.815707 499.791842 
L 138.03526 442.139129 
L 138.254814 496.413034 
L 138.474367 353.493147 
L 138.69392 398.208413 
L 138.913473 400.935659 
L 139.133026 353.867031 
L 139.352579 377.779288 
L 139.572132 379.065714 
L 139.791686 427.115793 
L 140.011239 440.499244 
L 140.230792 411.931146 
L 140.450345 444.591499 
L 140.669898 418.696211 
L 140.889451 524.789496 
L 141.109005 442.203257 
L 141.328558 482.253293 
L 141.548111 360.000888 
L 141.767664 441.698472 
L 141.987217 397.305449 
L 142.20677 551.86572 
L 142.645877 367.02581 
L 143.084983 513.903667 
L 143.524089 379.632385 
L 143.743642 381.923736 
L 143.963196 320.791847 
L 144.402302 363.297456 
L 144.841408 437.470293 
L 145.060961 297.004555 
L 145.280514 479.690542 
L 145.500068 487.153965 
L 145.719621 435.471849 
L 145.939174 445.061425 
L 146.158727 426.670953 
L 146.37828 329.223831 
L 146.817387 485.787232 
L 147.03694 473.716913 
L 147.256493 418.300166 
L 147.476046 506.540461 
L 147.695599 391.726757 
L 148.134705 470.513109 
L 148.354259 395.335993 
L 148.573812 405.36671 
L 148.793365 318.089122 
L 149.012918 364.16309 
L 149.232471 440.328174 
L 149.452024 434.508835 
L 149.891131 332.246638 
L 150.110684 490.650862 
L 150.330237 199.485967 
L 150.54979 493.898121 
L 150.988896 381.16282 
L 151.428003 464.63526 
L 151.647556 351.935404 
L 151.867109 346.654613 
L 152.086662 374.720725 
L 152.306215 417.723761 
L 152.525769 526.579927 
L 152.745322 407.161511 
L 152.964875 369.107703 
L 153.184428 453.366265 
L 153.403981 473.628536 
L 153.623534 454.359564 
L 153.843087 364.281161 
L 154.062641 506.732828 
L 154.282194 443.011821 
L 154.501747 431.261995 
L 154.7213 385.934912 
L 155.160406 471.914928 
L 155.37996 439.45181 
L 155.599513 353.725503 
L 155.819066 345.920475 
L 156.038619 355.479644 
L 156.258172 469.759887 
L 156.477725 389.294615 
L 156.697278 468.665687 
L 156.916832 501.883362 
L 157.136385 503.20319 
L 157.355938 387.079795 
L 157.575491 500.787433 
L 157.795044 425.662214 
L 158.014597 460.469091 
L 158.234151 429.289228 
L 158.453704 427.126619 
L 158.673257 417.232329 
L 158.89281 349.397111 
L 159.112363 435.767483 
L 159.331916 319.753579 
L 159.771023 440.573991 
L 159.990576 432.535844 
L 160.210129 471.634672 
L 160.429682 354.35703 
L 160.649235 477.194368 
L 160.868788 351.607107 
L 161.088342 539.690878 
L 161.527448 373.744134 
L 161.747001 440.200484 
L 162.186107 356.243112 
L 162.40566 366.783716 
L 162.625214 402.164558 
L 162.844767 490.778365 
L 163.06432 432.98396 
L 163.283873 481.843327 
L 163.503426 504.291306 
L 163.722979 286.080415 
L 163.942532 407.540144 
L 164.162086 358.579521 
L 164.381639 376.633759 
L 164.601192 350.619762 
L 164.820745 440.410069 
L 165.040298 400.493118 
L 165.259851 447.328187 
L 165.479405 446.484112 
L 165.698958 483.777481 
L 165.918511 446.179711 
L 166.138064 380.682509 
L 166.57717 518.297132 
L 166.796723 492.823786 
L 167.016277 410.720236 
L 167.23583 380.264134 
L 167.455383 371.487158 
L 167.894489 428.271866 
L 168.114042 545.361523 
L 168.333596 415.050819 
L 168.553149 392.489754 
L 168.772702 398.878299 
L 168.992255 419.984689 
L 169.211808 421.170757 
L 169.431361 467.627176 
L 169.650914 420.77649 
L 169.870468 428.48481 
L 170.090021 374.770729 
L 170.309574 458.908155 
L 170.529127 286.051937 
L 170.968233 457.750626 
L 171.187787 395.719195 
L 171.40734 398.352321 
L 171.626893 330.959025 
L 171.846446 435.247201 
L 172.065999 416.569709 
L 172.285552 477.731878 
L 172.505105 390.132401 
L 172.724659 352.059609 
L 172.944212 391.022588 
L 173.163765 487.73449 
L 173.383318 373.802608 
L 173.602871 415.843901 
L 173.822424 364.422672 
L 174.041978 407.019829 
L 174.261531 338.789507 
L 174.700637 373.395117 
L 174.92019 534.880625 
L 175.359296 308.527186 
L 175.57885 411.394851 
L 175.798403 426.666484 
L 176.017956 368.500886 
L 176.237509 404.64247 
L 176.457062 392.903955 
L 176.676615 406.376101 
L 176.896169 320.331595 
L 177.115722 463.718987 
L 177.335275 407.974114 
L 177.554828 424.815737 
L 177.774381 379.358594 
L 177.993934 465.589095 
L 178.213487 383.810177 
L 178.433041 372.461664 
L 178.652594 532.505367 
L 178.872147 302.639129 
L 179.0917 317.163215 
L 179.311253 446.000161 
L 179.530806 414.093712 
L 179.75036 463.856697 
L 179.969913 444.949133 
L 180.189466 470.625936 
L 180.409019 409.227558 
L 180.628572 436.932063 
L 180.848125 285.777737 
L 181.287232 361.638727 
L 181.506785 480.197003 
L 181.726338 425.365445 
L 181.945891 458.518441 
L 182.384997 337.907737 
L 182.604551 450.523369 
L 182.824104 419.856992 
L 183.043657 366.723248 
L 183.26321 350.421224 
L 183.482763 432.894911 
L 183.702316 364.386757 
L 183.921869 416.939507 
L 184.360976 438.53068 
L 184.580529 544.463987 
L 185.019635 380.189837 
L 185.458742 445.577089 
L 185.678295 408.868692 
L 185.897848 477.463343 
L 186.117401 347.194602 
L 186.336954 456.061431 
L 186.556507 453.613988 
L 186.995614 225.126092 
L 187.215167 287.245829 
L 187.654273 501.828583 
L 187.873826 309.728238 
L 188.093379 406.71589 
L 188.312932 426.441059 
L 188.532486 321.87991 
L 188.971592 434.213318 
L 189.191145 414.150499 
L 189.410698 255.291218 
L 189.630251 438.637582 
L 189.849805 352.096071 
L 190.069358 492.295761 
L 190.288911 490.653711 
L 190.508464 313.822857 
L 190.728017 432.249302 
L 190.94757 454.585801 
L 191.167123 434.843292 
L 191.386677 372.271384 
L 191.60623 391.625571 
L 191.825783 453.903088 
L 192.045336 311.931314 
L 192.264889 431.120107 
L 192.484442 477.729212 
L 192.703996 400.454261 
L 192.923549 450.12482 
L 193.362655 318.071182 
L 193.582208 347.649518 
L 193.801761 328.565977 
L 194.240868 404.224268 
L 194.460421 324.889405 
L 194.679974 317.289066 
L 194.899527 437.177405 
L 195.11908 474.473016 
L 195.338633 406.456149 
L 195.558187 448.122174 
L 195.77774 391.121044 
L 195.997293 276.201151 
L 196.436399 450.321244 
L 196.875505 393.79176 
L 197.095059 335.911411 
L 197.314612 432.06363 
L 197.534165 442.702607 
L 197.753718 392.664782 
L 197.973271 393.16105 
L 198.192824 452.309662 
L 198.412378 415.89976 
L 198.631931 426.383239 
L 198.851484 449.414749 
L 199.071037 234.932288 
L 199.29059 486.444501 
L 199.510143 355.131291 
L 199.729696 373.453693 
L 199.94925 406.270451 
L 200.168803 420.272534 
L 200.388356 448.053237 
L 200.607909 444.255222 
L 200.827462 380.391152 
L 201.047015 458.272806 
L 201.266569 380.548714 
L 201.486122 385.479334 
L 201.705675 429.019998 
L 201.925228 408.878719 
L 202.144781 507.370176 
L 202.364334 473.984962 
L 202.803441 307.523676 
L 203.022994 446.049743 
L 203.242547 408.100052 
L 203.4621 494.477458 
L 203.681653 434.28653 
L 203.901206 431.661905 
L 204.12076 412.65941 
L 204.340313 382.194757 
L 204.559866 400.535003 
L 204.998972 497.956988 
L 205.218525 344.445699 
L 205.438078 403.467895 
L 205.657632 415.763708 
L 205.877185 447.461751 
L 206.096738 446.368905 
L 206.316291 411.286179 
L 206.535844 461.038639 
L 206.755397 378.208035 
L 206.974951 443.819518 
L 207.194504 425.30152 
L 207.414057 483.437417 
L 207.63361 383.672681 
L 207.853163 482.226783 
L 208.072716 435.349625 
L 208.292269 309.799159 
L 208.511823 448.751807 
L 208.731376 431.054757 
L 208.950929 491.710512 
L 209.170482 347.272336 
L 209.390035 432.103027 
L 209.609588 373.080804 
L 209.829142 444.080566 
L 210.048695 471.795458 
L 210.268248 224.926552 
L 210.487801 459.562498 
L 210.707354 402.915428 
L 211.14646 499.211279 
L 211.366014 392.407336 
L 211.585567 351.2375 
L 211.80512 475.354071 
L 212.024673 343.345867 
L 212.244226 370.088698 
L 212.463779 489.540733 
L 212.683333 485.408873 
L 212.902886 300.453729 
L 213.122439 450.327384 
L 213.341992 422.715653 
L 213.561545 348.167803 
L 213.781098 390.05977 
L 214.000651 319.022143 
L 214.220205 516.709993 
L 214.659311 338.751805 
L 214.878864 508.222366 
L 215.31797 405.805724 
L 215.537523 445.447535 
L 215.757077 412.705961 
L 215.97663 418.987143 
L 216.196183 430.796525 
L 216.415736 363.875054 
L 216.635289 443.758862 
L 217.074396 318.734675 
L 217.293949 405.14376 
L 217.513502 335.767875 
L 217.952608 479.901873 
L 218.172161 325.942681 
L 218.391714 406.441713 
L 218.611268 431.396911 
L 218.830821 428.32185 
L 219.050374 436.653555 
L 219.269927 406.205876 
L 219.48948 446.486943 
L 219.709033 449.35187 
L 219.928587 444.666515 
L 220.14814 396.287224 
L 220.367693 412.780829 
L 220.587246 504.680905 
L 220.806799 501.412398 
L 221.026352 350.548831 
L 221.245905 428.232648 
L 221.465459 367.364067 
L 221.685012 347.871048 
L 221.904565 466.930686 
L 222.124118 481.296756 
L 222.343671 449.8821 
L 222.563224 449.995429 
L 222.782778 407.461791 
L 223.002331 338.378178 
L 223.221884 369.750845 
L 223.441437 315.113705 
L 223.66099 336.41748 
L 223.880543 300.668196 
L 224.31965 516.155904 
L 224.539203 401.525106 
L 224.758756 392.221299 
L 224.978309 490.75554 
L 225.197862 464.117864 
L 225.417415 399.545529 
L 225.636969 447.514007 
L 225.856522 440.099907 
L 226.076075 493.268646 
L 226.295628 196.00396 
L 226.515181 400.391006 
L 226.734734 371.709706 
L 226.954287 377.803307 
L 227.393394 506.005666 
L 227.612947 339.651024 
L 227.8325 338.315373 
L 228.052053 408.934422 
L 228.271606 436.879822 
L 228.49116 365.56861 
L 228.710713 346.880829 
L 228.930266 490.28063 
L 229.149819 501.788907 
L 229.588925 449.283813 
L 229.808478 423.443959 
L 230.028032 371.016507 
L 230.247585 481.756867 
L 230.467138 484.593219 
L 230.686691 467.489105 
L 230.906244 404.821684 
L 231.125797 397.610792 
L 231.345351 433.450962 
L 231.564904 346.211131 
L 231.784457 476.071491 
L 232.00401 376.538848 
L 232.223563 458.395893 
L 232.443116 478.759722 
L 232.662669 465.601687 
L 232.882223 433.473192 
L 233.101776 327.867695 
L 233.321329 440.098815 
L 233.540882 476.054293 
L 233.760435 263.138246 
L 234.199542 499.440544 
L 234.638648 390.536434 
L 234.858201 377.465054 
L 235.077754 428.284634 
L 235.297307 415.275848 
L 235.51686 387.060429 
L 235.955967 432.413138 
L 236.17552 392.124262 
L 236.395073 294.014091 
L 236.834179 389.640833 
L 237.053733 440.813866 
L 237.273286 439.753842 
L 237.492839 418.694884 
L 237.712392 445.239366 
L 237.931945 309.650779 
L 238.151498 344.115459 
L 238.371051 399.267919 
L 238.590605 424.614299 
L 238.810158 407.093495 
L 239.029711 500.312936 
L 239.249264 455.601222 
L 239.468817 331.858157 
L 239.68837 488.600608 
L 239.907924 446.00222 
L 240.127477 349.403836 
L 240.566583 476.636838 
L 240.786136 251.666158 
L 241.005689 439.624988 
L 241.225242 348.102633 
L 241.444796 340.887597 
L 241.664349 434.297764 
L 241.883902 362.279049 
L 242.323008 581.38839 
L 242.542561 198.904382 
L 242.762114 418.685953 
L 242.981668 434.041606 
L 243.201221 367.387469 
L 243.420774 497.752096 
L 243.640327 460.041209 
L 243.85988 450.39144 
L 244.079433 500.204877 
L 244.298987 467.874802 
L 244.51854 325.917982 
L 244.738093 467.874667 
L 245.177199 349.437465 
L 245.396752 430.388106 
L 245.616305 312.15088 
L 245.835859 448.858444 
L 246.055412 435.088199 
L 246.274965 431.925401 
L 246.494518 471.993967 
L 246.714071 448.885693 
L 246.933624 327.524453 
L 247.372731 468.035489 
L 247.592284 302.110421 
L 247.811837 257.985715 
L 248.03139 385.520675 
L 248.250943 349.970516 
L 248.470496 292.981159 
L 248.69005 345.730095 
L 248.909603 441.905901 
L 249.129156 429.280634 
L 249.348709 431.525554 
L 249.568262 519.140205 
L 249.787815 367.528231 
L 250.007369 462.393109 
L 250.226922 388.763441 
L 250.446475 463.670208 
L 250.666028 353.999567 
L 250.885581 397.371422 
L 251.105134 499.976552 
L 251.324687 369.566249 
L 251.544241 426.398084 
L 251.763794 451.987737 
L 251.983347 390.336223 
L 252.2029 431.038795 
L 252.422453 384.507797 
L 252.642006 364.160289 
L 252.86156 456.53215 
L 253.081113 251.660819 
L 253.300666 407.124408 
L 253.520219 460.114368 
L 253.739772 352.703364 
L 253.959325 332.981565 
L 254.178878 396.860544 
L 254.398432 343.317092 
L 254.617985 366.913345 
L 254.837538 461.84385 
L 255.057091 486.138395 
L 255.276644 402.365813 
L 255.496197 414.873395 
L 255.715751 354.204297 
L 255.935304 459.099661 
L 256.154857 371.303338 
L 256.37441 445.905998 
L 256.593963 298.09477 
L 256.813516 451.176749 
L 257.252623 482.203512 
L 257.472176 367.629601 
L 257.691729 419.376611 
L 257.911282 414.182443 
L 258.130835 356.844087 
L 258.350388 415.418101 
L 258.569942 344.323682 
L 258.789495 378.57319 
L 259.009048 521.627707 
L 259.228601 502.342793 
L 259.448154 328.712444 
L 259.667707 485.327391 
L 259.88726 514.654843 
L 260.106814 378.98625 
L 260.326367 459.953794 
L 260.54592 401.29986 
L 260.765473 406.409251 
L 260.985026 428.373449 
L 261.204579 503.382092 
L 261.424133 314.208927 
L 261.643686 283.562863 
L 261.863239 396.221051 
L 262.082792 338.094524 
L 262.302345 465.1831 
L 262.521898 297.893243 
L 262.741451 332.339471 
L 262.961005 465.79838 
L 263.180558 416.948346 
L 263.400111 479.333077 
L 263.619664 411.445625 
L 263.839217 468.495044 
L 264.05877 386.039805 
L 264.278324 384.362187 
L 264.497877 447.804455 
L 264.71743 448.266342 
L 264.936983 340.948796 
L 265.156536 401.6916 
L 265.376089 394.627898 
L 265.595642 348.921295 
L 266.034749 421.363037 
L 266.254302 440.468683 
L 266.473855 414.329974 
L 266.693408 421.98352 
L 267.132514 325.898484 
L 267.352068 416.333811 
L 267.571621 366.431019 
L 268.010727 500.191404 
L 268.23028 376.020652 
L 268.449833 474.134633 
L 268.669387 403.937584 
L 268.88894 402.645895 
L 269.547599 517.616169 
L 269.767152 485.074795 
L 269.986705 383.709446 
L 270.206259 458.999945 
L 270.425812 425.575264 
L 270.645365 409.591225 
L 270.864918 384.745413 
L 271.084471 420.634512 
L 271.304024 400.963311 
L 271.523578 442.386996 
L 271.743131 456.901669 
L 271.962684 359.489383 
L 272.182237 408.355618 
L 272.40179 518.032188 
L 272.621343 411.926556 
L 272.840896 460.436496 
L 273.06045 466.9904 
L 273.499556 373.007372 
L 273.719109 443.389593 
L 273.938662 444.02576 
L 274.377769 384.191261 
L 274.597322 394.583826 
L 274.816875 467.03629 
L 275.255981 415.259015 
L 275.475534 403.098266 
L 275.695087 334.593504 
L 275.914641 402.109785 
L 276.353747 351.932631 
L 276.5733 480.242107 
L 276.792853 357.274911 
L 277.012406 439.391085 
L 277.23196 309.981529 
L 277.451513 251.665631 
L 277.671066 448.86834 
L 277.890619 372.307371 
L 278.110172 481.771441 
L 278.329725 414.21112 
L 278.549278 494.565361 
L 278.768832 470.056099 
L 278.988385 408.594627 
L 279.207938 428.671292 
L 279.427491 381.817173 
L 279.647044 445.769755 
L 279.866597 422.76403 
L 280.086151 342.431828 
L 280.525257 502.275876 
L 280.964363 304.390789 
L 281.183916 366.356403 
L 281.403469 342.073138 
L 281.623023 419.109002 
L 281.842576 439.186325 
L 282.062129 440.424613 
L 282.281682 354.293773 
L 282.501235 345.527236 
L 282.720788 386.868726 
L 282.940342 499.108859 
L 283.159895 373.215452 
L 283.379448 527.302028 
L 283.599001 333.870923 
L 283.818554 398.732376 
L 284.038107 302.815412 
L 284.25766 492.775413 
L 284.477214 550.286014 
L 284.696767 453.30947 
L 285.135873 404.513314 
L 285.355426 323.455718 
L 285.574979 413.243049 
L 285.794533 350.349031 
L 286.014086 446.236624 
L 286.233639 312.567791 
L 286.453192 446.007307 
L 286.672745 475.395583 
L 286.892298 414.58966 
L 287.111851 440.356258 
L 287.331405 439.217746 
L 287.550958 444.67985 
L 287.770511 478.464996 
L 287.990064 393.650154 
L 288.42917 504.930677 
L 288.648724 456.24315 
L 288.868277 453.054396 
L 289.08783 380.379207 
L 289.307383 207.253271 
L 289.526936 406.704455 
L 289.966042 473.679589 
L 290.185596 333.341239 
L 290.405149 504.500273 
L 290.624702 462.94463 
L 290.844255 390.81586 
L 291.063808 248.641451 
L 291.283361 500.836738 
L 291.502915 349.983224 
L 291.722468 378.758269 
L 291.942021 428.656614 
L 292.161574 387.165015 
L 292.381127 477.166884 
L 292.820233 368.127065 
L 293.039787 432.407668 
L 293.25934 415.224647 
L 293.478893 369.75946 
L 293.698446 391.273107 
L 293.917999 357.538967 
L 294.137552 448.709009 
L 294.576659 484.741375 
L 295.015765 377.181434 
L 295.235318 368.053429 
L 295.454871 469.159133 
L 295.893978 374.929284 
L 296.113531 424.186572 
L 296.333084 416.272304 
L 296.552637 318.837094 
L 296.77219 441.82467 
L 296.991743 371.866602 
L 297.211296 414.533449 
L 297.650403 449.652016 
L 298.089509 408.100635 
L 298.309062 396.605873 
L 298.528615 324.546317 
L 298.967722 487.451809 
L 299.187275 509.963296 
L 299.406828 268.130479 
L 299.626381 387.287399 
L 300.065487 468.990616 
L 300.285041 288.100979 
L 300.504594 414.052872 
L 300.724147 457.477079 
L 300.9437 375.405627 
L 301.163253 401.926613 
L 301.382806 409.858577 
L 301.60236 450.081901 
L 301.821913 430.445226 
L 302.041466 448.756331 
L 302.261019 512.67443 
L 302.480572 447.992918 
L 302.700125 496.542943 
L 302.919678 367.213617 
L 303.139232 377.701064 
L 303.358785 367.024696 
L 303.578338 477.067021 
L 303.797891 513.405395 
L 304.017444 400.195945 
L 304.236997 403.199039 
L 304.456551 449.274308 
L 304.676104 272.570712 
L 304.895657 280.687171 
L 305.11521 439.45908 
L 305.334763 449.481358 
L 305.773869 410.479367 
L 305.993423 430.673963 
L 306.212976 375.176421 
L 306.432529 462.858971 
L 306.652082 411.437498 
L 306.871635 496.870859 
L 307.091188 242.551687 
L 307.310742 351.984317 
L 307.530295 342.480071 
L 307.749848 431.797903 
L 307.969401 464.914838 
L 308.188954 460.726031 
L 308.408507 476.52096 
L 308.847614 338.968251 
L 309.067167 419.546281 
L 309.28672 313.961439 
L 309.506273 419.12548 
L 309.725826 453.079123 
L 309.945379 389.20532 
L 310.164933 419.053479 
L 310.384486 466.224969 
L 310.604039 373.336266 
L 310.823592 446.076369 
L 311.043145 428.951011 
L 311.262698 446.87617 
L 311.482251 449.96002 
L 311.701805 448.420012 
L 311.921358 431.582534 
L 312.140911 360.931505 
L 312.360464 510.280036 
L 312.580017 326.416898 
L 312.79957 336.606529 
L 313.019124 486.531205 
L 313.45823 292.708791 
L 313.677783 553.065275 
L 313.897336 442.003481 
L 314.116889 389.306074 
L 314.336442 239.787444 
L 314.555996 502.170327 
L 314.775549 339.681674 
L 314.995102 414.741327 
L 315.214655 392.114998 
L 315.434208 222.657802 
L 315.653761 406.928845 
L 315.873315 413.090252 
L 316.092868 387.613681 
L 316.312421 530.92713 
L 316.531974 448.825844 
L 316.751527 441.371546 
L 316.97108 391.799665 
L 317.410187 497.388324 
L 317.849293 333.461174 
L 318.068846 473.232193 
L 318.288399 462.171584 
L 318.507952 434.698578 
L 318.727506 361.167308 
L 318.947059 351.768106 
L 319.166612 415.15654 
L 319.386165 315.979581 
L 319.605718 427.94754 
L 319.825271 445.919179 
L 320.044824 434.136321 
L 320.264378 433.226886 
L 320.483931 471.642985 
L 320.703484 270.428559 
L 320.923037 442.3926 
L 321.14259 381.009263 
L 321.362143 462.032643 
L 321.581696 388.537886 
L 321.80125 396.704899 
L 322.020803 493.168307 
L 322.459909 456.348229 
L 322.679462 337.24327 
L 323.118569 456.222177 
L 323.338122 312.896695 
L 323.557675 402.492685 
L 323.777228 372.034305 
L 323.996781 280.791005 
L 324.435887 461.024785 
L 324.655441 381.384273 
L 324.874994 424.181144 
L 325.094547 408.853246 
L 325.533653 448.424544 
L 325.753206 380.238761 
L 325.97276 409.637472 
L 326.192313 463.078607 
L 326.411866 334.469669 
L 326.631419 436.437568 
L 326.850972 450.464637 
L 327.070525 427.308535 
L 327.290078 447.079161 
L 327.729185 362.706076 
L 327.948738 399.520479 
L 328.168291 461.429151 
L 328.387844 399.988656 
L 328.607397 400.665587 
L 328.826951 439.356605 
L 329.046504 426.314789 
L 329.266057 367.325343 
L 329.48561 458.183584 
L 329.705163 474.825466 
L 330.144269 341.667326 
L 330.363823 433.736013 
L 330.583376 389.773607 
L 330.802929 455.416959 
L 331.022482 366.107137 
L 331.461588 419.029299 
L 331.681142 348.658127 
L 331.900695 433.899273 
L 332.120248 425.671795 
L 332.339801 354.668943 
L 332.559354 397.941294 
L 332.778907 378.685676 
L 332.99846 494.381871 
L 333.437567 354.209779 
L 333.65712 403.228503 
L 333.876673 513.105179 
L 334.096226 344.522836 
L 334.315779 485.253858 
L 334.535333 485.547377 
L 334.754886 407.209123 
L 334.974439 428.447655 
L 335.193992 429.252124 
L 335.413545 524.01276 
L 335.852651 347.306641 
L 336.072205 385.243589 
L 336.291758 241.956643 
L 336.511311 417.261538 
L 336.730864 475.859761 
L 336.950417 385.632966 
L 337.16997 377.942255 
L 337.389524 521.588189 
L 337.609077 496.552536 
L 337.82863 485.630282 
L 338.048183 453.913173 
L 338.267736 305.799475 
L 338.487289 515.896077 
L 338.706842 444.727897 
L 338.926396 419.95464 
L 339.145949 472.874497 
L 339.365502 417.565903 
L 339.585055 408.529272 
L 339.804608 464.14285 
L 340.024161 451.706418 
L 340.243715 342.373668 
L 340.682821 400.906979 
L 340.902374 286.930183 
L 341.121927 357.657877 
L 341.34148 491.19184 
L 341.561033 390.619346 
L 341.780587 464.406549 
L 342.00014 452.456665 
L 342.219693 432.30615 
L 342.439246 438.801684 
L 342.658799 402.987386 
L 342.878352 508.213957 
L 343.097906 455.013535 
L 343.317459 343.745673 
L 343.537012 485.002214 
L 343.756565 477.6815 
L 343.976118 532.776137 
L 344.195671 462.944261 
L 344.415224 431.681041 
L 344.634778 337.830506 
L 344.854331 462.322732 
L 345.293437 357.324807 
L 345.51299 425.569884 
L 345.732543 367.998391 
L 345.952096 492.448662 
L 346.17165 472.852696 
L 346.391203 361.013344 
L 346.830309 427.51252 
L 347.269415 451.973695 
L 347.488969 528.336387 
L 347.708522 422.251653 
L 347.928075 461.357149 
L 348.147628 345.30574 
L 348.367181 401.165948 
L 348.586734 314.582144 
L 349.025841 443.53022 
L 349.245394 445.628755 
L 349.464947 383.237019 
L 349.6845 372.77592 
L 349.904053 433.684158 
L 350.123606 402.391562 
L 350.34316 479.236705 
L 350.562713 346.215003 
L 351.001819 426.440492 
L 351.221372 441.893262 
L 351.440925 349.630497 
L 351.660478 404.204857 
L 351.880032 383.947684 
L 352.099585 340.457125 
L 352.319138 424.323507 
L 352.538691 324.019039 
L 352.758244 370.576992 
L 352.977797 392.497134 
L 353.197351 305.619981 
L 353.416904 308.976352 
L 353.85601 408.332505 
L 354.075563 380.413235 
L 354.295116 482.424153 
L 354.514669 300.601677 
L 354.734223 335.901377 
L 354.953776 437.817873 
L 355.392882 369.241718 
L 355.831988 500.830695 
L 356.271095 360.949025 
L 356.490648 444.61196 
L 356.710201 412.118144 
L 356.929754 350.015873 
L 357.149307 467.095126 
L 357.36886 347.898559 
L 357.588414 401.116743 
L 357.807967 422.81801 
L 358.247073 346.80915 
L 358.466626 322.881353 
L 358.686179 431.852254 
L 358.905733 392.606862 
L 359.125286 438.336915 
L 359.344839 289.984448 
L 359.783945 446.658506 
L 360.003498 473.956971 
L 360.223051 462.307046 
L 360.442605 365.670635 
L 360.662158 386.657463 
L 360.881711 373.915109 
L 361.101264 410.966812 
L 361.320817 307.249228 
L 361.54037 507.310995 
L 361.759924 363.700993 
L 362.19903 317.423756 
L 362.418583 507.148274 
L 362.638136 313.411165 
L 362.857689 423.278458 
L 363.077242 430.024525 
L 363.296796 370.765633 
L 363.516349 352.72764 
L 363.735902 482.555016 
L 363.955455 336.170444 
L 364.175008 434.586127 
L 364.394561 357.389471 
L 364.614115 336.903834 
L 364.833668 482.825787 
L 365.053221 349.828815 
L 365.492327 500.679034 
L 365.71188 440.109407 
L 365.931433 502.115583 
L 366.150987 358.523009 
L 366.37054 417.797737 
L 366.590093 376.082225 
L 367.029199 430.986807 
L 367.248752 388.963353 
L 367.468306 217.199292 
L 367.687859 510.497486 
L 367.907412 395.990722 
L 368.126965 405.265832 
L 368.346518 354.41643 
L 368.566071 406.858686 
L 368.785624 372.390927 
L 369.005178 463.042775 
L 369.224731 496.444923 
L 369.663837 375.518229 
L 370.102943 433.431557 
L 370.322497 518.952605 
L 370.54205 355.698829 
L 370.761603 384.707708 
L 370.981156 371.353065 
L 371.200709 390.827125 
L 371.420262 267.430097 
L 371.859369 541.875297 
L 372.078922 344.010787 
L 372.298475 349.003325 
L 372.518028 338.937783 
L 373.176687 484.478336 
L 373.396241 469.800577 
L 373.615794 400.96383 
L 374.0549 479.16805 
L 374.274453 382.696536 
L 374.494006 380.643081 
L 374.71356 386.64962 
L 375.152666 418.84741 
L 375.372219 481.443769 
L 375.591772 321.258401 
L 375.811325 476.094783 
L 376.030878 331.611403 
L 376.250432 280.261297 
L 376.469985 448.720609 
L 376.689538 345.479413 
L 376.909091 468.241623 
L 377.128644 486.785109 
L 377.348197 431.983415 
L 377.567751 438.599557 
L 377.787304 479.459629 
L 378.006857 378.567812 
L 378.22641 392.807802 
L 378.445963 396.078243 
L 378.665516 429.752408 
L 378.885069 408.605415 
L 379.104623 301.763107 
L 379.324176 419.568009 
L 379.543729 427.806589 
L 379.763282 398.560293 
L 380.202388 381.893955 
L 380.421942 345.09118 
L 380.641495 449.433194 
L 380.861048 313.376124 
L 381.080601 446.549796 
L 381.300154 444.451429 
L 381.519707 423.517296 
L 381.73926 367.248241 
L 381.958814 266.043322 
L 382.178367 451.413548 
L 382.39792 477.146931 
L 382.837026 297.736109 
L 383.056579 276.005477 
L 383.276133 468.554319 
L 383.715239 323.117851 
L 383.934792 341.310255 
L 384.154345 311.979025 
L 384.373898 337.503548 
L 384.593451 437.187586 
L 384.813005 462.684367 
L 385.032558 374.307107 
L 385.252111 395.726954 
L 385.471664 487.684589 
L 385.691217 401.351188 
L 385.91077 526.05646 
L 386.130324 364.665507 
L 386.56943 409.951111 
L 386.788983 334.338698 
L 387.008536 439.919306 
L 387.228089 314.410676 
L 387.447642 355.715158 
L 387.667196 340.20112 
L 387.886749 435.194306 
L 388.106302 348.686151 
L 388.325855 427.056004 
L 388.545408 417.532996 
L 388.764961 362.874328 
L 389.423621 517.806122 
L 389.643174 384.417953 
L 389.862727 344.667666 
L 390.08228 325.883704 
L 390.301833 441.774328 
L 390.521387 412.33691 
L 390.74094 356.428836 
L 390.960493 493.537575 
L 391.180046 447.860115 
L 391.399599 306.712861 
L 391.838706 498.932066 
L 392.058259 262.933318 
L 392.277812 323.716955 
L 392.497365 353.016063 
L 392.716918 408.059697 
L 392.936471 371.472422 
L 393.375578 490.045369 
L 393.595131 483.486168 
L 393.814684 500.059518 
L 394.25379 395.192478 
L 394.473343 423.434117 
L 394.692897 482.742748 
L 394.91245 392.634513 
L 395.132003 432.427487 
L 395.351556 403.05581 
L 395.571109 401.188903 
L 395.790662 463.594534 
L 396.010215 362.12689 
L 396.229769 466.439897 
L 396.668875 422.551405 
L 396.888428 432.310837 
L 397.327534 426.152594 
L 397.547087 423.222662 
L 397.766641 533.695153 
L 398.205747 409.563066 
L 398.4253 436.451942 
L 398.644853 509.066806 
L 398.864406 485.692359 
L 399.08396 367.447607 
L 399.303513 362.499412 
L 399.742619 452.973669 
L 399.962172 440.397068 
L 400.181725 462.78429 
L 400.401278 374.008257 
L 400.620832 363.841713 
L 400.840385 327.957461 
L 401.059938 376.566674 
L 401.279491 369.242673 
L 401.499044 280.76773 
L 401.718597 388.093013 
L 401.938151 265.15642 
L 402.157704 402.885218 
L 402.377257 323.635365 
L 402.59681 346.419893 
L 402.816363 443.511954 
L 403.035916 371.525018 
L 403.255469 458.253094 
L 403.475023 463.352737 
L 403.694576 452.3963 
L 403.914129 518.424063 
L 404.133682 423.364988 
L 404.353235 425.302629 
L 404.572788 430.765106 
L 404.792342 364.69183 
L 405.011895 497.820885 
L 405.231448 475.596659 
L 405.451001 387.300154 
L 405.670554 413.040737 
L 405.890107 403.817744 
L 406.10966 414.497391 
L 406.329214 401.323463 
L 406.548767 466.109599 
L 406.76832 375.262964 
L 406.987873 352.897014 
L 407.207426 466.033857 
L 407.426979 431.637459 
L 407.646533 326.485491 
L 408.085639 428.076015 
L 408.305192 361.106604 
L 408.524745 372.492781 
L 408.744298 355.669823 
L 408.963851 415.574761 
L 409.183405 393.000202 
L 409.402958 382.356657 
L 409.622511 438.644254 
L 409.842064 285.875162 
L 410.061617 423.413112 
L 410.28117 430.841013 
L 410.500724 428.209215 
L 410.720277 430.849299 
L 410.93983 417.01687 
L 411.378936 403.938403 
L 411.598489 456.83169 
L 411.818042 440.170009 
L 412.037596 266.312438 
L 412.257149 494.396625 
L 412.476702 370.912421 
L 412.696255 497.332872 
L 412.915808 474.448408 
L 413.135361 131.956182 
L 413.354915 420.890627 
L 413.574468 424.082638 
L 413.794021 383.828568 
L 414.013574 407.670616 
L 414.233127 330.181468 
L 414.45268 457.903859 
L 414.672233 352.031542 
L 414.891787 422.752428 
L 415.11134 440.263491 
L 415.330893 416.021786 
L 415.550446 340.23418 
L 415.769999 329.228957 
L 416.209106 482.176646 
L 416.428659 212.852901 
L 416.648212 361.992188 
L 416.867765 299.064696 
L 417.087318 458.989671 
L 417.306871 487.163375 
L 417.745978 273.262681 
L 417.965531 402.986683 
L 418.185084 319.453815 
L 418.404637 465.270099 
L 418.62419 384.945965 
L 418.843743 409.641635 
L 419.063297 373.179318 
L 419.28285 444.891535 
L 419.502403 366.770915 
L 419.721956 394.96311 
L 419.941509 357.892507 
L 420.161062 434.378767 
L 420.380615 351.740718 
L 420.819722 429.328017 
L 421.039275 457.288884 
L 421.258828 324.827383 
L 421.478381 362.956612 
L 421.697934 361.573894 
L 421.917488 372.264709 
L 422.137041 433.022851 
L 422.356594 304.790804 
L 422.576147 410.909373 
L 422.7957 458.4677 
L 423.015253 351.363078 
L 423.234806 384.824788 
L 423.45436 449.750068 
L 423.673913 367.07641 
L 423.893466 333.095378 
L 424.113019 416.696462 
L 424.332572 307.818518 
L 424.771678 497.712307 
L 424.991232 342.36028 
L 425.210785 510.000236 
L 425.430338 361.775469 
L 425.649891 487.344559 
L 425.869444 316.953424 
L 426.308551 408.364553 
L 426.528104 381.433813 
L 426.747657 424.46031 
L 426.96721 304.021028 
L 427.186763 452.166502 
L 427.406316 454.873868 
L 427.625869 350.744318 
L 427.845423 408.180462 
L 428.064976 354.856903 
L 428.284529 448.690533 
L 428.504082 380.036121 
L 428.723635 378.719008 
L 428.943188 318.857153 
L 429.162742 385.9035 
L 429.382295 401.421311 
L 429.601848 466.533929 
L 429.821401 492.672436 
L 430.040954 353.692659 
L 430.260507 333.645917 
L 430.48006 430.302243 
L 430.699614 408.849953 
L 430.919167 497.853685 
L 431.13872 443.63541 
L 431.358273 436.086627 
L 431.577826 459.861535 
L 431.797379 396.168345 
L 432.016933 273.920639 
L 432.236486 502.024803 
L 432.456039 490.818116 
L 432.675592 373.075829 
L 432.895145 460.85046 
L 433.114698 461.006186 
L 433.334251 446.733167 
L 433.553805 480.629931 
L 433.992911 355.806616 
L 434.212464 433.806139 
L 434.432017 455.012612 
L 434.65157 435.008811 
L 434.871124 404.342065 
L 435.090677 489.591575 
L 435.31023 372.006476 
L 435.529783 463.63604 
L 435.749336 372.72597 
L 435.968889 376.27786 
L 436.188442 497.049811 
L 436.407996 351.328783 
L 436.627549 445.467983 
L 436.847102 281.2034 
L 437.066655 453.751609 
L 437.286208 427.002794 
L 437.725315 272.912363 
L 438.164421 448.137682 
L 438.383974 454.815947 
L 438.603527 392.686056 
L 438.82308 465.75302 
L 439.042633 338.707911 
L 439.262187 411.694887 
L 439.48174 386.652441 
L 439.701293 425.778918 
L 439.920846 234.459615 
L 440.140399 391.921465 
L 440.359952 378.848539 
L 440.579506 417.005471 
L 440.799059 401.40769 
L 441.018612 425.045631 
L 441.238165 501.797616 
L 441.457718 513.024982 
L 441.677271 466.725358 
L 441.896824 447.19318 
L 442.116378 339.008021 
L 442.335931 345.127739 
L 442.775037 468.859329 
L 443.214143 327.181997 
L 443.433697 425.791015 
L 443.65325 300.111617 
L 443.872803 393.899607 
L 444.092356 366.620618 
L 444.311909 421.351253 
L 444.531462 349.794835 
L 444.751015 429.328018 
L 444.970569 412.880925 
L 445.190122 434.452942 
L 445.409675 297.235465 
L 445.629228 490.185774 
L 445.848781 309.600799 
L 446.068334 439.636375 
L 446.287888 344.170799 
L 446.507441 448.466049 
L 446.726994 488.851053 
L 446.946547 387.139969 
L 447.1661 415.57573 
L 447.605206 372.612157 
L 447.82476 317.455961 
L 448.044313 405.502401 
L 448.263866 280.094877 
L 448.702972 498.053342 
L 448.922525 489.830204 
L 449.142079 384.64206 
L 449.361632 400.644863 
L 449.581185 331.292794 
L 449.800738 424.813215 
L 450.020291 441.225042 
L 450.239844 362.576787 
L 450.459397 454.520536 
L 450.678951 423.80805 
L 450.898504 439.304113 
L 451.118057 405.966027 
L 451.33761 332.476277 
L 451.557163 543.942535 
L 451.776716 406.918364 
L 451.996269 380.830894 
L 452.215823 370.872623 
L 452.435376 422.307814 
L 452.654929 505.728646 
L 452.874482 373.638067 
L 453.094035 351.83834 
L 453.313588 455.69982 
L 453.533142 446.711929 
L 453.752695 375.275719 
L 453.972248 475.447056 
L 454.191801 413.294279 
L 454.411354 287.738345 
L 454.85046 495.517001 
L 455.070014 417.652738 
L 455.289567 462.543341 
L 455.50912 410.556098 
L 455.728673 457.506292 
L 455.948226 292.517092 
L 456.167779 444.333653 
L 456.387333 461.357062 
L 456.826439 441.184661 
L 457.265545 391.660529 
L 457.485098 256.664396 
L 457.704651 473.722476 
L 457.924205 404.180006 
L 458.143758 445.101848 
L 458.363311 259.896603 
L 458.582864 340.666376 
L 458.802417 376.263078 
L 459.02197 446.883761 
L 459.241524 297.366188 
L 459.68063 458.687655 
L 459.900183 398.246334 
L 460.119736 494.901924 
L 460.339289 403.704325 
L 460.778396 301.892178 
L 461.217502 354.44077 
L 461.437055 460.656272 
L 461.656608 241.9556 
L 462.095715 528.459591 
L 462.315268 382.684471 
L 462.534821 444.19812 
L 462.754374 371.114749 
L 462.973927 440.920802 
L 463.413033 373.942441 
L 463.85214 433.269417 
L 464.071693 481.951513 
L 464.291246 364.15447 
L 464.510799 385.014042 
L 464.730352 451.471581 
L 464.949906 448.734191 
L 465.169459 497.061818 
L 465.389012 504.251575 
L 465.608565 350.815593 
L 465.828118 373.812452 
L 466.047671 466.942073 
L 466.267224 441.808168 
L 466.486778 446.899452 
L 466.706331 408.980236 
L 466.925884 424.128312 
L 467.145437 492.324243 
L 467.584543 276.441133 
L 467.804097 398.433238 
L 468.02365 448.503968 
L 468.243203 420.860698 
L 468.462756 344.087714 
L 468.682309 470.65966 
L 468.901862 370.22084 
L 469.121415 492.422083 
L 469.340969 386.992645 
L 469.560522 404.569135 
L 469.780075 406.361493 
L 469.999628 319.031474 
L 470.219181 399.378903 
L 470.438734 363.068956 
L 471.097394 496.309774 
L 471.316947 386.971938 
L 471.5365 435.970746 
L 471.756053 293.357153 
L 471.975606 406.129403 
L 472.19516 390.44879 
L 472.414713 425.084412 
L 472.634266 355.829271 
L 472.853819 391.386694 
L 473.073372 369.125491 
L 473.292925 387.150711 
L 473.512479 481.781416 
L 473.732032 266.98437 
L 473.951585 302.205562 
L 474.171138 395.566417 
L 474.390691 375.420431 
L 474.610244 308.466493 
L 475.049351 477.787229 
L 475.268904 373.017388 
L 475.488457 323.569729 
L 475.70801 390.406754 
L 475.927563 362.544193 
L 476.147116 511.192685 
L 476.366669 473.344369 
L 476.586223 341.615006 
L 476.805776 392.436832 
L 477.025329 191.658194 
L 477.244882 415.979852 
L 477.464435 289.848759 
L 477.683988 505.963313 
L 477.903542 424.736715 
L 478.123095 461.955101 
L 478.342648 470.73166 
L 478.562201 390.566485 
L 478.781754 399.142071 
L 479.001307 396.412283 
L 479.22086 334.873068 
L 479.440414 512.64436 
L 479.659967 341.87002 
L 479.87952 386.419091 
L 480.099073 406.655846 
L 480.318626 399.46711 
L 480.538179 462.044238 
L 480.757733 384.938926 
L 480.977286 504.108459 
L 481.196839 470.358314 
L 481.416392 497.933482 
L 481.635945 430.225962 
L 481.855498 441.611971 
L 482.294605 287.114732 
L 482.514158 452.702346 
L 482.733711 460.953921 
L 482.953264 387.842401 
L 483.39237 335.518584 
L 483.611924 360.490472 
L 483.831477 287.872624 
L 484.05103 357.285465 
L 484.270583 486.494252 
L 484.490136 363.843549 
L 484.709689 469.425772 
L 484.929242 466.607943 
L 485.368349 391.44958 
L 485.587902 382.161817 
L 485.807455 387.913046 
L 486.027008 421.381334 
L 486.246561 381.519735 
L 486.466115 453.150645 
L 486.685668 367.099457 
L 486.905221 455.360186 
L 487.124774 440.435412 
L 487.344327 383.358458 
L 487.56388 464.976838 
L 487.783433 438.786257 
L 488.002987 386.022578 
L 488.22254 304.783011 
L 488.442093 420.936349 
L 488.661646 446.50994 
L 488.881199 316.487212 
L 489.100752 404.339581 
L 489.320306 374.647099 
L 489.539859 437.606977 
L 489.759412 423.11578 
L 489.978965 441.814964 
L 490.198518 322.122347 
L 490.418071 344.002369 
L 490.637624 473.349103 
L 490.857178 268.685585 
L 491.076731 452.156135 
L 491.296284 417.753706 
L 491.515837 440.584361 
L 491.73539 430.49979 
L 491.954943 459.087345 
L 492.174497 425.195023 
L 492.39405 419.068602 
L 492.613603 377.405614 
L 492.833156 375.758747 
L 493.052709 448.3973 
L 493.272262 363.784954 
L 493.491815 431.565343 
L 493.930922 339.233427 
L 494.370028 469.579408 
L 494.589581 483.672947 
L 495.028688 391.129975 
L 495.248241 283.453536 
L 495.467794 298.397211 
L 495.687347 435.319172 
L 495.9069 442.594579 
L 496.126453 374.730323 
L 496.346006 422.540812 
L 496.56556 294.368564 
L 496.785113 361.823643 
L 497.224219 286.962603 
L 497.443772 470.919259 
L 497.663325 374.938352 
L 498.102432 412.293223 
L 498.321985 466.099806 
L 498.541538 448.010401 
L 498.761091 392.282526 
L 498.980644 390.942905 
L 499.200197 345.744103 
L 499.419751 424.246987 
L 499.858857 399.129973 
L 500.07841 416.610505 
L 500.297963 447.715493 
L 500.73707 387.277088 
L 500.956623 397.432818 
L 501.176176 378.707612 
L 501.395729 411.777885 
L 501.615282 402.831136 
L 501.834835 444.388674 
L 502.054388 368.018027 
L 502.273942 489.294599 
L 502.493495 435.88818 
L 502.713048 433.978346 
L 502.932601 435.558311 
L 503.152154 321.692368 
L 503.810814 499.71449 
L 504.030367 438.734815 
L 504.24992 518.995668 
L 504.469473 484.926089 
L 504.689026 390.224556 
L 504.908579 373.91967 
L 505.128133 511.78362 
L 505.347686 391.548739 
L 505.567239 367.262048 
L 505.786792 543.747937 
L 506.006345 466.197358 
L 506.225898 444.63726 
L 506.445451 456.033971 
L 506.665005 365.047851 
L 506.884558 329.857241 
L 507.104111 417.904507 
L 507.323664 458.870412 
L 507.543217 464.734416 
L 507.76277 488.722141 
L 507.982324 395.507328 
L 508.201877 513.704972 
L 508.42143 464.070665 
L 508.640983 282.594807 
L 508.860536 387.18739 
L 509.080089 426.137684 
L 509.299642 329.594235 
L 509.519196 314.192568 
L 509.738749 400.062056 
L 509.958302 415.833482 
L 510.177855 345.934854 
L 510.397408 465.589167 
L 510.616961 455.178404 
L 510.836515 390.951968 
L 511.056068 452.564779 
L 511.275621 467.391472 
L 511.495174 360.097792 
L 511.714727 441.250505 
L 511.93428 443.551526 
L 512.153833 423.63693 
L 512.373387 377.032278 
L 512.59294 413.728493 
L 512.812493 405.987272 
L 513.032046 463.780547 
L 513.251599 391.451631 
L 513.471152 227.617998 
L 513.690706 343.258247 
L 513.910259 283.367655 
L 514.129812 476.346657 
L 514.349365 389.387871 
L 514.568918 486.438906 
L 514.788471 384.085437 
L 515.008024 458.416001 
L 515.447131 451.632802 
L 515.666684 421.979066 
L 515.886237 317.065376 
L 516.10579 411.170036 
L 516.325343 348.012432 
L 516.544897 462.666714 
L 516.76445 365.845488 
L 516.984003 517.368184 
L 517.203556 433.936146 
L 517.423109 407.457558 
L 517.642662 486.700795 
L 517.862215 372.527308 
L 518.301322 415.81647 
L 518.520875 453.811863 
L 518.740428 268.993945 
L 518.959981 467.706512 
L 519.179534 444.206858 
L 519.399088 401.982305 
L 519.618641 393.950979 
L 519.838194 396.194049 
L 520.057747 447.085378 
L 520.2773 364.601234 
L 520.496853 424.702504 
L 520.93596 354.960214 
L 521.155513 415.149277 
L 521.375066 379.987624 
L 521.594619 406.578326 
L 521.814172 500.675832 
L 522.033725 443.341771 
L 522.253279 440.82304 
L 522.472832 206.748221 
L 522.692385 464.72453 
L 522.911938 427.995267 
L 523.131491 366.045617 
L 523.351044 405.329525 
L 523.570597 377.289737 
L 523.790151 388.497077 
L 524.009704 435.589104 
L 524.229257 431.578268 
L 524.44881 416.535404 
L 524.668363 326.539682 
L 524.887916 342.090182 
L 525.10747 404.061808 
L 525.327023 234.279411 
L 525.546576 449.495269 
L 525.766129 389.414849 
L 526.205235 444.250113 
L 526.424788 409.52406 
L 526.644342 410.361831 
L 526.863895 461.787558 
L 527.303001 365.754437 
L 527.522554 339.365158 
L 527.742107 476.216322 
L 527.96166 423.866661 
L 528.181214 421.882568 
L 528.62032 455.080843 
L 529.059426 507.315546 
L 529.278979 433.514166 
L 529.498533 419.355795 
L 529.718086 428.972056 
L 529.937639 466.639822 
L 530.157192 373.97839 
L 530.376745 347.033078 
L 530.596298 446.742762 
L 530.815851 396.374106 
L 531.035405 444.856821 
L 531.254958 365.245519 
L 531.474511 452.540037 
L 531.694064 423.609829 
L 531.913617 474.541469 
L 532.352724 340.043179 
L 532.572277 456.117758 
L 532.79183 332.857524 
L 533.011383 375.469446 
L 533.230936 367.487103 
L 533.450489 433.248695 
L 533.670042 406.345377 
L 533.889596 410.117513 
L 534.109149 293.657537 
L 534.328702 469.614394 
L 534.548255 367.472449 
L 534.767808 488.912353 
L 534.987361 470.341212 
L 535.206915 431.174965 
L 535.426468 333.448199 
L 535.646021 436.150667 
L 535.865574 381.990942 
L 536.085127 264.552027 
L 536.30468 443.373173 
L 536.524233 376.389118 
L 536.96334 437.06196 
L 537.182893 395.745979 
L 537.402446 413.028718 
L 537.621999 361.033564 
L 537.841552 456.809691 
L 538.061106 368.893395 
L 538.280659 451.912827 
L 538.500212 446.542501 
L 538.719765 383.339202 
L 538.939318 363.618143 
L 539.158871 440.694829 
L 539.378424 372.55216 
L 539.597978 373.185116 
L 539.817531 452.951094 
L 540.037084 316.801252 
L 540.256637 368.630864 
L 540.47619 475.909289 
L 540.695743 485.417049 
L 540.915297 412.373327 
L 541.13485 422.322453 
L 541.354403 426.18341 
L 541.573956 416.123306 
L 542.013062 440.53973 
L 542.232615 408.959457 
L 542.452169 455.407772 
L 542.671722 343.706406 
L 542.891275 359.845209 
L 543.110828 444.841806 
L 543.330381 479.992586 
L 543.549934 379.201387 
L 543.769488 439.055351 
L 543.989041 443.109323 
L 544.428147 490.442326 
L 544.6477 400.392239 
L 544.867253 493.59468 
L 545.086806 399.997534 
L 545.30636 369.041249 
L 545.525913 424.325727 
L 545.745466 435.411357 
L 545.745466 435.411357 
" style="fill:none;stroke:#96c69a;stroke-linecap:round;stroke-width:3;"/>
   </g>
   <g id="line2d_2"/>
   <g id="patch_3">
    <path d="M 84.914375 603.86 
L 84.914375 109.484571 
" style="fill:none;stroke:#262626;stroke-linecap:square;stroke-linejoin:miter;stroke-width:2.5;"/>
   </g>
   <g id="patch_4">
    <path d="M 84.914375 603.86 
L 567.689804 603.86 
" style="fill:none;stroke:#262626;stroke-linecap:square;stroke-linejoin:miter;stroke-width:2.5;"/>
   </g>
   <g id="legend_1">
    <g id="patch_5">
     <path d="M 514.774179 598.86 
L 560.689804 598.86 
Q 562.689804 598.86 562.689804 596.86 
L 562.689804 554.954375 
Q 562.689804 552.954375 560.689804 552.954375 
L 514.774179 552.954375 
Q 512.774179 552.954375 512.774179 554.954375 
L 512.774179 596.86 
Q 512.774179 598.86 514.774179 598.86 
z
" style="fill:#ffffff;opacity:0.8;stroke:#cccccc;stroke-linejoin:miter;stroke-width:2;"/>
    </g>
    <g id="text_14">
     <!-- $n_\tau$ -->
     <g style="fill:#262626;" transform="translate(524.651991 575.190625)scale(0.24 -0.24)">
      <defs>
       <path d="M 3566 2113 
L 3156 0 
L 2578 0 
L 2988 2091 
Q 3016 2238 3031 2350 
Q 3047 2463 3047 2528 
Q 3047 2791 2881 2937 
Q 2716 3084 2419 3084 
Q 1956 3084 1622 2776 
Q 1288 2469 1184 1941 
L 800 0 
L 225 0 
L 903 3500 
L 1478 3500 
L 1363 2950 
Q 1603 3253 1940 3418 
Q 2278 3584 2650 3584 
Q 3113 3584 3367 3334 
Q 3622 3084 3622 2631 
Q 3622 2519 3608 2391 
Q 3594 2263 3566 2113 
z
" id="DejaVuSans-Oblique-6e" transform="scale(0.015625)"/>
       <path d="M 2103 638 
Q 2188 488 2525 488 
L 2800 488 
L 2706 0 
L 2363 0 
Q 1800 0 1600 300 
Q 1403 606 1534 1269 
L 1856 2925 
L 541 2925 
L 653 3500 
L 3881 3500 
L 3769 2925 
L 2444 2925 
L 2113 1234 
Q 2025 781 2103 638 
z
" id="DejaVuSans-Oblique-3c4" transform="scale(0.015625)"/>
      </defs>
      <use xlink:href="#DejaVuSans-Oblique-6e"/>
      <use transform="translate(63.378906 -16.40625)scale(0.7)" xlink:href="#DejaVuSans-Oblique-3c4"/>
     </g>
    </g>
    <g id="line2d_3">
     <path d="M 516.774179 589.280313 
L 536.774179 589.280313 
" style="fill:none;stroke:#96c69a;stroke-linecap:round;stroke-width:3;"/>
    </g>
    <g id="line2d_4"/>
    <g id="text_15">
     <!-- 64 -->
     <g style="fill:#262626;" transform="translate(544.774179 592.780313)scale(0.1 -0.1)">
      <defs>
       <path d="M 2316 2303 
Q 2000 2303 1842 2098 
Q 1684 1894 1684 1484 
Q 1684 1075 1842 870 
Q 2000 666 2316 666 
Q 2634 666 2792 870 
Q 2950 1075 2950 1484 
Q 2950 1894 2792 2098 
Q 2634 2303 2316 2303 
z
M 3803 4544 
L 3803 3681 
Q 3506 3822 3243 3889 
Q 2981 3956 2731 3956 
Q 2194 3956 1894 3657 
Q 1594 3359 1544 2772 
Q 1750 2925 1990 3001 
Q 2231 3078 2516 3078 
Q 3231 3078 3670 2659 
Q 4109 2241 4109 1563 
Q 4109 813 3618 361 
Q 3128 -91 2303 -91 
Q 1394 -91 895 523 
Q 397 1138 397 2266 
Q 397 3422 980 4083 
Q 1563 4744 2578 4744 
Q 2900 4744 3203 4694 
Q 3506 4644 3803 4544 
z
" id="DejaVuSans-Bold-36" transform="scale(0.015625)"/>
       <path d="M 2356 3675 
L 1038 1722 
L 2356 1722 
L 2356 3675 
z
M 2156 4666 
L 3494 4666 
L 3494 1722 
L 4159 1722 
L 4159 850 
L 3494 850 
L 3494 0 
L 2356 0 
L 2356 850 
L 288 850 
L 288 1881 
L 2156 4666 
z
" id="DejaVuSans-Bold-34" transform="scale(0.015625)"/>
      </defs>
      <use xlink:href="#DejaVuSans-Bold-36"/>
      <use x="69.580078" xlink:href="#DejaVuSans-Bold-34"/>
     </g>
    </g>
   </g>
  </g>
  <g id="axes_2">
   <g id="patch_6">
    <path d="M 84.914375 92.437143 
L 567.689804 92.437143 
L 567.689804 7.2 
L 84.914375 7.2 
z
" style="fill:none;"/>
   </g>
   <g id="matplotlib.axis_3">
    <g id="xtick_7"/>
    <g id="xtick_8"/>
    <g id="xtick_9"/>
    <g id="xtick_10"/>
    <g id="xtick_11"/>
    <g id="xtick_12"/>
   </g>
   <g id="matplotlib.axis_4">
    <g id="ytick_6">
     <g id="text_16">
      <!-- 0 -->
      <g style="fill:#262626;" transform="translate(55.416875 100.795424)scale(0.22 -0.22)">
       <use xlink:href="#DejaVuSans-30"/>
      </g>
     </g>
    </g>
    <g id="ytick_7">
     <g id="text_17">
      <!-- 100 -->
      <g style="fill:#262626;" transform="translate(27.421875 48.082287)scale(0.22 -0.22)">
       <use xlink:href="#DejaVuSans-31"/>
       <use x="63.623047" xlink:href="#DejaVuSans-30"/>
       <use x="127.246094" xlink:href="#DejaVuSans-30"/>
      </g>
     </g>
    </g>
   </g>
   <g id="patch_7">
    <path clip-path="url(#pbd17a5a45c)" d="M 106.858713 92.437143 
L 140.619232 92.437143 
L 140.619232 11.258912 
L 106.858713 11.258912 
z
" style="fill:#96c69a;fill-opacity:0.5;stroke:#ffffff;stroke-linejoin:miter;stroke-width:2;"/>
   </g>
   <g id="patch_8">
    <path clip-path="url(#pbd17a5a45c)" d="M 140.619232 92.437143 
L 174.379752 92.437143 
L 174.379752 11.258912 
L 140.619232 11.258912 
z
" style="fill:#96c69a;fill-opacity:0.5;stroke:#ffffff;stroke-linejoin:miter;stroke-width:2;"/>
   </g>
   <g id="patch_9">
    <path clip-path="url(#pbd17a5a45c)" d="M 174.379752 92.437143 
L 208.140271 92.437143 
L 208.140271 11.258912 
L 174.379752 11.258912 
z
" style="fill:#96c69a;fill-opacity:0.5;stroke:#ffffff;stroke-linejoin:miter;stroke-width:2;"/>
   </g>
   <g id="patch_10">
    <path clip-path="url(#pbd17a5a45c)" d="M 208.140271 92.437143 
L 241.900791 92.437143 
L 241.900791 11.258912 
L 208.140271 11.258912 
z
" style="fill:#96c69a;fill-opacity:0.5;stroke:#ffffff;stroke-linejoin:miter;stroke-width:2;"/>
   </g>
   <g id="patch_11">
    <path clip-path="url(#pbd17a5a45c)" d="M 241.900791 92.437143 
L 275.66131 92.437143 
L 275.66131 11.786043 
L 241.900791 11.786043 
z
" style="fill:#96c69a;fill-opacity:0.5;stroke:#ffffff;stroke-linejoin:miter;stroke-width:2;"/>
   </g>
   <g id="patch_12">
    <path clip-path="url(#pbd17a5a45c)" d="M 275.66131 92.437143 
L 309.42183 92.437143 
L 309.42183 11.258912 
L 275.66131 11.258912 
z
" style="fill:#96c69a;fill-opacity:0.5;stroke:#ffffff;stroke-linejoin:miter;stroke-width:2;"/>
   </g>
   <g id="patch_13">
    <path clip-path="url(#pbd17a5a45c)" d="M 309.42183 92.437143 
L 343.182349 92.437143 
L 343.182349 11.258912 
L 309.42183 11.258912 
z
" style="fill:#96c69a;fill-opacity:0.5;stroke:#ffffff;stroke-linejoin:miter;stroke-width:2;"/>
   </g>
   <g id="patch_14">
    <path clip-path="url(#pbd17a5a45c)" d="M 343.182349 92.437143 
L 376.942869 92.437143 
L 376.942869 11.258912 
L 343.182349 11.258912 
z
" style="fill:#96c69a;fill-opacity:0.5;stroke:#ffffff;stroke-linejoin:miter;stroke-width:2;"/>
   </g>
   <g id="patch_15">
    <path clip-path="url(#pbd17a5a45c)" d="M 376.942869 92.437143 
L 410.703388 92.437143 
L 410.703388 11.786043 
L 376.942869 11.786043 
z
" style="fill:#96c69a;fill-opacity:0.5;stroke:#ffffff;stroke-linejoin:miter;stroke-width:2;"/>
   </g>
   <g id="patch_16">
    <path clip-path="url(#pbd17a5a45c)" d="M 410.703388 92.437143 
L 444.463907 92.437143 
L 444.463907 11.258912 
L 410.703388 11.258912 
z
" style="fill:#96c69a;fill-opacity:0.5;stroke:#ffffff;stroke-linejoin:miter;stroke-width:2;"/>
   </g>
   <g id="patch_17">
    <path clip-path="url(#pbd17a5a45c)" d="M 444.463907 92.437143 
L 478.224427 92.437143 
L 478.224427 11.258912 
L 444.463907 11.258912 
z
" style="fill:#96c69a;fill-opacity:0.5;stroke:#ffffff;stroke-linejoin:miter;stroke-width:2;"/>
   </g>
   <g id="patch_18">
    <path clip-path="url(#pbd17a5a45c)" d="M 478.224427 92.437143 
L 511.984946 92.437143 
L 511.984946 11.258912 
L 478.224427 11.258912 
z
" style="fill:#96c69a;fill-opacity:0.5;stroke:#ffffff;stroke-linejoin:miter;stroke-width:2;"/>
   </g>
   <g id="patch_19">
    <path clip-path="url(#pbd17a5a45c)" d="M 511.984946 92.437143 
L 545.745466 92.437143 
L 545.745466 11.258912 
L 511.984946 11.258912 
z
" style="fill:#96c69a;fill-opacity:0.5;stroke:#ffffff;stroke-linejoin:miter;stroke-width:2;"/>
   </g>
   <g id="patch_20">
    <path d="M 84.914375 92.437143 
L 84.914375 7.2 
" style="fill:none;stroke:#262626;stroke-linecap:square;stroke-linejoin:miter;stroke-width:2.5;"/>
   </g>
   <g id="patch_21">
    <path d="M 84.914375 92.437143 
L 567.689804 92.437143 
" style="fill:none;stroke:#262626;stroke-linecap:square;stroke-linejoin:miter;stroke-width:2.5;"/>
   </g>
  </g>
  <g id="axes_3">
   <g id="patch_22">
    <path d="M 584.337232 603.86 
L 667.574375 603.86 
L 667.574375 109.484571 
L 584.337232 109.484571 
z
" style="fill:none;"/>
   </g>
   <g id="matplotlib.axis_5">
    <g id="xtick_13">
     <g id="text_18">
      <!-- 0 -->
      <g style="fill:#262626;" transform="translate(577.338482 636.076563)scale(0.22 -0.22)">
       <use xlink:href="#DejaVuSans-30"/>
      </g>
     </g>
    </g>
    <g id="xtick_14">
     <g id="text_19">
      <!-- 100 -->
      <g style="fill:#262626;" transform="translate(606.424389 636.076563)scale(0.22 -0.22)">
       <use xlink:href="#DejaVuSans-31"/>
       <use x="63.623047" xlink:href="#DejaVuSans-30"/>
       <use x="127.246094" xlink:href="#DejaVuSans-30"/>
      </g>
     </g>
    </g>
   </g>
   <g id="matplotlib.axis_6">
    <g id="ytick_8"/>
    <g id="ytick_9"/>
    <g id="ytick_10"/>
    <g id="ytick_11"/>
    <g id="ytick_12"/>
   </g>
   <g id="patch_23">
    <path clip-path="url(#pf38bc4160b)" d="M 584.337232 581.38839 
L 584.768066 581.38839 
L 584.768066 569.241573 
L 584.337232 569.241573 
z
" style="fill:#96c69a;fill-opacity:0.5;stroke:#ffffff;stroke-linejoin:miter;stroke-width:1.214682;"/>
   </g>
   <g id="patch_24">
    <path clip-path="url(#pf38bc4160b)" d="M 584.337232 569.241573 
L 584.337232 569.241573 
L 584.337232 557.094757 
L 584.337232 557.094757 
z
" style="fill:#96c69a;fill-opacity:0.5;stroke:#ffffff;stroke-linejoin:miter;stroke-width:1.214682;"/>
   </g>
   <g id="patch_25">
    <path clip-path="url(#pf38bc4160b)" d="M 584.337232 557.094757 
L 586.060568 557.094757 
L 586.060568 544.94794 
L 584.337232 544.94794 
z
" style="fill:#96c69a;fill-opacity:0.5;stroke:#ffffff;stroke-linejoin:miter;stroke-width:1.214682;"/>
   </g>
   <g id="patch_26">
    <path clip-path="url(#pf38bc4160b)" d="M 584.337232 544.94794 
L 587.353071 544.94794 
L 587.353071 532.801124 
L 584.337232 532.801124 
z
" style="fill:#96c69a;fill-opacity:0.5;stroke:#ffffff;stroke-linejoin:miter;stroke-width:1.214682;"/>
   </g>
   <g id="patch_27">
    <path clip-path="url(#pf38bc4160b)" d="M 584.337232 532.801124 
L 590.368909 532.801124 
L 590.368909 520.654307 
L 584.337232 520.654307 
z
" style="fill:#96c69a;fill-opacity:0.5;stroke:#ffffff;stroke-linejoin:miter;stroke-width:1.214682;"/>
   </g>
   <g id="patch_28">
    <path clip-path="url(#pf38bc4160b)" d="M 584.337232 520.654307 
L 595.969752 520.654307 
L 595.969752 508.507491 
L 584.337232 508.507491 
z
" style="fill:#96c69a;fill-opacity:0.5;stroke:#ffffff;stroke-linejoin:miter;stroke-width:1.214682;"/>
   </g>
   <g id="patch_29">
    <path clip-path="url(#pf38bc4160b)" d="M 584.337232 508.507491 
L 611.910613 508.507491 
L 611.910613 496.360675 
L 584.337232 496.360675 
z
" style="fill:#96c69a;fill-opacity:0.5;stroke:#ffffff;stroke-linejoin:miter;stroke-width:1.214682;"/>
   </g>
   <g id="patch_30">
    <path clip-path="url(#pf38bc4160b)" d="M 584.337232 496.360675 
L 614.495617 496.360675 
L 614.495617 484.213858 
L 584.337232 484.213858 
z
" style="fill:#96c69a;fill-opacity:0.5;stroke:#ffffff;stroke-linejoin:miter;stroke-width:1.214682;"/>
   </g>
   <g id="patch_31">
    <path clip-path="url(#pf38bc4160b)" d="M 584.337232 484.213858 
L 616.218954 484.213858 
L 616.218954 472.067042 
L 584.337232 472.067042 
z
" style="fill:#96c69a;fill-opacity:0.5;stroke:#ffffff;stroke-linejoin:miter;stroke-width:1.214682;"/>
   </g>
   <g id="patch_32">
    <path clip-path="url(#pf38bc4160b)" d="M 584.337232 472.067042 
L 634.744819 472.067042 
L 634.744819 459.920225 
L 584.337232 459.920225 
z
" style="fill:#96c69a;fill-opacity:0.5;stroke:#ffffff;stroke-linejoin:miter;stroke-width:1.214682;"/>
   </g>
   <g id="patch_33">
    <path clip-path="url(#pf38bc4160b)" d="M 584.337232 459.920225 
L 643.3615 459.920225 
L 643.3615 447.773409 
L 584.337232 447.773409 
z
" style="fill:#96c69a;fill-opacity:0.5;stroke:#ffffff;stroke-linejoin:miter;stroke-width:1.214682;"/>
   </g>
   <g id="patch_34">
    <path clip-path="url(#pf38bc4160b)" d="M 584.337232 447.773409 
L 658.009859 447.773409 
L 658.009859 435.626592 
L 584.337232 435.626592 
z
" style="fill:#96c69a;fill-opacity:0.5;stroke:#ffffff;stroke-linejoin:miter;stroke-width:1.214682;"/>
   </g>
   <g id="patch_35">
    <path clip-path="url(#pf38bc4160b)" d="M 584.337232 435.626592 
L 663.610702 435.626592 
L 663.610702 423.479776 
L 584.337232 423.479776 
z
" style="fill:#96c69a;fill-opacity:0.5;stroke:#ffffff;stroke-linejoin:miter;stroke-width:1.214682;"/>
   </g>
   <g id="patch_36">
    <path clip-path="url(#pf38bc4160b)" d="M 584.337232 423.479776 
L 648.962343 423.479776 
L 648.962343 411.33296 
L 584.337232 411.33296 
z
" style="fill:#96c69a;fill-opacity:0.5;stroke:#ffffff;stroke-linejoin:miter;stroke-width:1.214682;"/>
   </g>
   <g id="patch_37">
    <path clip-path="url(#pf38bc4160b)" d="M 584.337232 411.33296 
L 652.83985 411.33296 
L 652.83985 399.186143 
L 584.337232 399.186143 
z
" style="fill:#96c69a;fill-opacity:0.5;stroke:#ffffff;stroke-linejoin:miter;stroke-width:1.214682;"/>
   </g>
   <g id="patch_38">
    <path clip-path="url(#pf38bc4160b)" d="M 584.337232 399.186143 
L 646.808173 399.186143 
L 646.808173 387.039327 
L 584.337232 387.039327 
z
" style="fill:#96c69a;fill-opacity:0.5;stroke:#ffffff;stroke-linejoin:miter;stroke-width:1.214682;"/>
   </g>
   <g id="patch_39">
    <path clip-path="url(#pf38bc4160b)" d="M 584.337232 387.039327 
L 638.622325 387.039327 
L 638.622325 374.89251 
L 584.337232 374.89251 
z
" style="fill:#96c69a;fill-opacity:0.5;stroke:#ffffff;stroke-linejoin:miter;stroke-width:1.214682;"/>
   </g>
   <g id="patch_40">
    <path clip-path="url(#pf38bc4160b)" d="M 584.337232 374.89251 
L 642.068998 374.89251 
L 642.068998 362.745694 
L 584.337232 362.745694 
z
" style="fill:#96c69a;fill-opacity:0.5;stroke:#ffffff;stroke-linejoin:miter;stroke-width:1.214682;"/>
   </g>
   <g id="patch_41">
    <path clip-path="url(#pf38bc4160b)" d="M 584.337232 362.745694 
L 623.112299 362.745694 
L 623.112299 350.598878 
L 584.337232 350.598878 
z
" style="fill:#96c69a;fill-opacity:0.5;stroke:#ffffff;stroke-linejoin:miter;stroke-width:1.214682;"/>
   </g>
   <g id="patch_42">
    <path clip-path="url(#pf38bc4160b)" d="M 584.337232 350.598878 
L 622.681465 350.598878 
L 622.681465 338.452061 
L 584.337232 338.452061 
z
" style="fill:#96c69a;fill-opacity:0.5;stroke:#ffffff;stroke-linejoin:miter;stroke-width:1.214682;"/>
   </g>
   <g id="patch_43">
    <path clip-path="url(#pf38bc4160b)" d="M 584.337232 338.452061 
L 608.46394 338.452061 
L 608.46394 326.305245 
L 584.337232 326.305245 
z
" style="fill:#96c69a;fill-opacity:0.5;stroke:#ffffff;stroke-linejoin:miter;stroke-width:1.214682;"/>
   </g>
   <g id="patch_44">
    <path clip-path="url(#pf38bc4160b)" d="M 584.337232 326.305245 
L 604.155599 326.305245 
L 604.155599 314.158428 
L 584.337232 314.158428 
z
" style="fill:#96c69a;fill-opacity:0.5;stroke:#ffffff;stroke-linejoin:miter;stroke-width:1.214682;"/>
   </g>
   <g id="patch_45">
    <path clip-path="url(#pf38bc4160b)" d="M 584.337232 314.158428 
L 599.847259 314.158428 
L 599.847259 302.011612 
L 584.337232 302.011612 
z
" style="fill:#96c69a;fill-opacity:0.5;stroke:#ffffff;stroke-linejoin:miter;stroke-width:1.214682;"/>
   </g>
   <g id="patch_46">
    <path clip-path="url(#pf38bc4160b)" d="M 584.337232 302.011612 
L 595.108084 302.011612 
L 595.108084 289.864795 
L 584.337232 289.864795 
z
" style="fill:#96c69a;fill-opacity:0.5;stroke:#ffffff;stroke-linejoin:miter;stroke-width:1.214682;"/>
   </g>
   <g id="patch_47">
    <path clip-path="url(#pf38bc4160b)" d="M 584.337232 289.864795 
L 594.246416 289.864795 
L 594.246416 277.717979 
L 584.337232 277.717979 
z
" style="fill:#96c69a;fill-opacity:0.5;stroke:#ffffff;stroke-linejoin:miter;stroke-width:1.214682;"/>
   </g>
   <g id="patch_48">
    <path clip-path="url(#pf38bc4160b)" d="M 584.337232 277.717979 
L 591.661411 277.717979 
L 591.661411 265.571163 
L 584.337232 265.571163 
z
" style="fill:#96c69a;fill-opacity:0.5;stroke:#ffffff;stroke-linejoin:miter;stroke-width:1.214682;"/>
   </g>
   <g id="patch_49">
    <path clip-path="url(#pf38bc4160b)" d="M 584.337232 265.571163 
L 587.783905 265.571163 
L 587.783905 253.424346 
L 584.337232 253.424346 
z
" style="fill:#96c69a;fill-opacity:0.5;stroke:#ffffff;stroke-linejoin:miter;stroke-width:1.214682;"/>
   </g>
   <g id="patch_50">
    <path clip-path="url(#pf38bc4160b)" d="M 584.337232 253.424346 
L 587.353071 253.424346 
L 587.353071 241.27753 
L 584.337232 241.27753 
z
" style="fill:#96c69a;fill-opacity:0.5;stroke:#ffffff;stroke-linejoin:miter;stroke-width:1.214682;"/>
   </g>
   <g id="patch_51">
    <path clip-path="url(#pf38bc4160b)" d="M 584.337232 241.27753 
L 586.922237 241.27753 
L 586.922237 229.130713 
L 584.337232 229.130713 
z
" style="fill:#96c69a;fill-opacity:0.5;stroke:#ffffff;stroke-linejoin:miter;stroke-width:1.214682;"/>
   </g>
   <g id="patch_52">
    <path clip-path="url(#pf38bc4160b)" d="M 584.337232 229.130713 
L 586.491403 229.130713 
L 586.491403 216.983897 
L 584.337232 216.983897 
z
" style="fill:#96c69a;fill-opacity:0.5;stroke:#ffffff;stroke-linejoin:miter;stroke-width:1.214682;"/>
   </g>
   <g id="patch_53">
    <path clip-path="url(#pf38bc4160b)" d="M 584.337232 216.983897 
L 585.629734 216.983897 
L 585.629734 204.83708 
L 584.337232 204.83708 
z
" style="fill:#96c69a;fill-opacity:0.5;stroke:#ffffff;stroke-linejoin:miter;stroke-width:1.214682;"/>
   </g>
   <g id="patch_54">
    <path clip-path="url(#pf38bc4160b)" d="M 584.337232 204.83708 
L 585.629734 204.83708 
L 585.629734 192.690264 
L 584.337232 192.690264 
z
" style="fill:#96c69a;fill-opacity:0.5;stroke:#ffffff;stroke-linejoin:miter;stroke-width:1.214682;"/>
   </g>
   <g id="patch_55">
    <path clip-path="url(#pf38bc4160b)" d="M 584.337232 192.690264 
L 584.768066 192.690264 
L 584.768066 180.543448 
L 584.337232 180.543448 
z
" style="fill:#96c69a;fill-opacity:0.5;stroke:#ffffff;stroke-linejoin:miter;stroke-width:1.214682;"/>
   </g>
   <g id="patch_56">
    <path clip-path="url(#pf38bc4160b)" d="M 584.337232 180.543448 
L 584.337232 180.543448 
L 584.337232 168.396631 
L 584.337232 168.396631 
z
" style="fill:#96c69a;fill-opacity:0.5;stroke:#ffffff;stroke-linejoin:miter;stroke-width:1.214682;"/>
   </g>
   <g id="patch_57">
    <path clip-path="url(#pf38bc4160b)" d="M 584.337232 168.396631 
L 584.337232 168.396631 
L 584.337232 156.249815 
L 584.337232 156.249815 
z
" style="fill:#96c69a;fill-opacity:0.5;stroke:#ffffff;stroke-linejoin:miter;stroke-width:1.214682;"/>
   </g>
   <g id="patch_58">
    <path clip-path="url(#pf38bc4160b)" d="M 584.337232 156.249815 
L 584.337232 156.249815 
L 584.337232 144.102998 
L 584.337232 144.102998 
z
" style="fill:#96c69a;fill-opacity:0.5;stroke:#ffffff;stroke-linejoin:miter;stroke-width:1.214682;"/>
   </g>
   <g id="patch_59">
    <path clip-path="url(#pf38bc4160b)" d="M 584.337232 144.102998 
L 584.768066 144.102998 
L 584.768066 131.956182 
L 584.337232 131.956182 
z
" style="fill:#96c69a;fill-opacity:0.5;stroke:#ffffff;stroke-linejoin:miter;stroke-width:1.214682;"/>
   </g>
   <g id="patch_60">
    <path d="M 584.337232 603.86 
L 584.337232 109.484571 
" style="fill:none;stroke:#262626;stroke-linecap:square;stroke-linejoin:miter;stroke-width:2.5;"/>
   </g>
   <g id="patch_61">
    <path d="M 584.337232 603.86 
L 667.574375 603.86 
" style="fill:none;stroke:#262626;stroke-linecap:square;stroke-linejoin:miter;stroke-width:2.5;"/>
   </g>
  </g>
 </g>
 <defs>
  <clipPath id="p7d3bae0f02">
   <rect height="494.375429" width="482.775429" x="84.914375" y="109.484571"/>
  </clipPath>
  <clipPath id="pbd17a5a45c">
   <rect height="85.237143" width="482.775429" x="84.914375" y="7.2"/>
  </clipPath>
  <clipPath id="pf38bc4160b">
   <rect height="494.375429" width="83.237143" x="584.337232" y="109.484571"/>
  </clipPath>
 </defs>
</svg>
