<?xml version="1.0" encoding="utf-8" standalone="no"?>
<!DOCTYPE svg PUBLIC "-//W3C//DTD SVG 1.1//EN"
  "http://www.w3.org/Graphics/SVG/1.1/DTD/svg11.dtd">
<svg height="675.079375pt" version="1.1" viewBox="0 0 690.25257 675.079375" width="690.25257pt" xmlns="http://www.w3.org/2000/svg" xmlns:xlink="http://www.w3.org/1999/xlink">
 <metadata>
  <rdf:RDF xmlns:cc="http://creativecommons.org/ns#" xmlns:dc="http://purl.org/dc/elements/1.1/" xmlns:rdf="http://www.w3.org/1999/02/22-rdf-syntax-ns#">
   <cc:Work>
    <dc:type rdf:resource="http://purl.org/dc/dcmitype/StillImage"/>
    <dc:date>2021-07-16T21:44:08.978287</dc:date>
    <dc:format>image/svg+xml</dc:format>
    <dc:creator>
     <cc:Agent>
      <dc:title>Matplotlib v3.4.2, https://matplotlib.org/</dc:title>
     </cc:Agent>
    </dc:creator>
   </cc:Work>
  </rdf:RDF>
 </metadata>
 <defs>
  <style type="text/css">*{stroke-linecap:butt;stroke-linejoin:round;}</style>
 </defs>
 <g id="figure_1">
  <g id="patch_1">
   <path d="M 0 675.079375 
L 690.25257 675.079375 
L 690.25257 0 
L 0 0 
z
" style="fill:#ffffff;"/>
  </g>
  <g id="axes_1">
   <g id="patch_2">
    <path d="M 84.914375 603.86 
L 567.689804 603.86 
L 567.689804 109.484571 
L 84.914375 109.484571 
z
" style="fill:none;"/>
   </g>
   <g id="matplotlib.axis_1">
    <g id="xtick_1">
     <g id="text_1">
      <!-- 0 -->
      <g style="fill:#262626;" transform="translate(99.64041 636.076563)scale(0.22 -0.22)">
       <defs>
        <path d="M 2034 4250 
Q 1547 4250 1301 3770 
Q 1056 3291 1056 2328 
Q 1056 1369 1301 889 
Q 1547 409 2034 409 
Q 2525 409 2770 889 
Q 3016 1369 3016 2328 
Q 3016 3291 2770 3770 
Q 2525 4250 2034 4250 
z
M 2034 4750 
Q 2819 4750 3233 4129 
Q 3647 3509 3647 2328 
Q 3647 1150 3233 529 
Q 2819 -91 2034 -91 
Q 1250 -91 836 529 
Q 422 1150 422 2328 
Q 422 3509 836 4129 
Q 1250 4750 2034 4750 
z
" id="DejaVuSans-30" transform="scale(0.015625)"/>
       </defs>
       <use xlink:href="#DejaVuSans-30"/>
      </g>
     </g>
    </g>
    <g id="xtick_2">
     <g id="text_2">
      <!-- 20000 -->
      <g style="fill:#262626;" transform="translate(159.466671 636.076563)scale(0.22 -0.22)">
       <defs>
        <path d="M 1228 531 
L 3431 531 
L 3431 0 
L 469 0 
L 469 531 
Q 828 903 1448 1529 
Q 2069 2156 2228 2338 
Q 2531 2678 2651 2914 
Q 2772 3150 2772 3378 
Q 2772 3750 2511 3984 
Q 2250 4219 1831 4219 
Q 1534 4219 1204 4116 
Q 875 4013 500 3803 
L 500 4441 
Q 881 4594 1212 4672 
Q 1544 4750 1819 4750 
Q 2544 4750 2975 4387 
Q 3406 4025 3406 3419 
Q 3406 3131 3298 2873 
Q 3191 2616 2906 2266 
Q 2828 2175 2409 1742 
Q 1991 1309 1228 531 
z
" id="DejaVuSans-32" transform="scale(0.015625)"/>
       </defs>
       <use xlink:href="#DejaVuSans-32"/>
       <use x="63.623047" xlink:href="#DejaVuSans-30"/>
       <use x="127.246094" xlink:href="#DejaVuSans-30"/>
       <use x="190.869141" xlink:href="#DejaVuSans-30"/>
       <use x="254.492188" xlink:href="#DejaVuSans-30"/>
      </g>
     </g>
    </g>
    <g id="xtick_3">
     <g id="text_3">
      <!-- 40000 -->
      <g style="fill:#262626;" transform="translate(247.287932 636.076563)scale(0.22 -0.22)">
       <defs>
        <path d="M 2419 4116 
L 825 1625 
L 2419 1625 
L 2419 4116 
z
M 2253 4666 
L 3047 4666 
L 3047 1625 
L 3713 1625 
L 3713 1100 
L 3047 1100 
L 3047 0 
L 2419 0 
L 2419 1100 
L 313 1100 
L 313 1709 
L 2253 4666 
z
" id="DejaVuSans-34" transform="scale(0.015625)"/>
       </defs>
       <use xlink:href="#DejaVuSans-34"/>
       <use x="63.623047" xlink:href="#DejaVuSans-30"/>
       <use x="127.246094" xlink:href="#DejaVuSans-30"/>
       <use x="190.869141" xlink:href="#DejaVuSans-30"/>
       <use x="254.492188" xlink:href="#DejaVuSans-30"/>
      </g>
     </g>
    </g>
    <g id="xtick_4">
     <g id="text_4">
      <!-- 60000 -->
      <g style="fill:#262626;" transform="translate(335.109193 636.076563)scale(0.22 -0.22)">
       <defs>
        <path d="M 2113 2584 
Q 1688 2584 1439 2293 
Q 1191 2003 1191 1497 
Q 1191 994 1439 701 
Q 1688 409 2113 409 
Q 2538 409 2786 701 
Q 3034 994 3034 1497 
Q 3034 2003 2786 2293 
Q 2538 2584 2113 2584 
z
M 3366 4563 
L 3366 3988 
Q 3128 4100 2886 4159 
Q 2644 4219 2406 4219 
Q 1781 4219 1451 3797 
Q 1122 3375 1075 2522 
Q 1259 2794 1537 2939 
Q 1816 3084 2150 3084 
Q 2853 3084 3261 2657 
Q 3669 2231 3669 1497 
Q 3669 778 3244 343 
Q 2819 -91 2113 -91 
Q 1303 -91 875 529 
Q 447 1150 447 2328 
Q 447 3434 972 4092 
Q 1497 4750 2381 4750 
Q 2619 4750 2861 4703 
Q 3103 4656 3366 4563 
z
" id="DejaVuSans-36" transform="scale(0.015625)"/>
       </defs>
       <use xlink:href="#DejaVuSans-36"/>
       <use x="63.623047" xlink:href="#DejaVuSans-30"/>
       <use x="127.246094" xlink:href="#DejaVuSans-30"/>
       <use x="190.869141" xlink:href="#DejaVuSans-30"/>
       <use x="254.492188" xlink:href="#DejaVuSans-30"/>
      </g>
     </g>
    </g>
    <g id="xtick_5">
     <g id="text_5">
      <!-- 80000 -->
      <g style="fill:#262626;" transform="translate(422.930455 636.076563)scale(0.22 -0.22)">
       <defs>
        <path d="M 2034 2216 
Q 1584 2216 1326 1975 
Q 1069 1734 1069 1313 
Q 1069 891 1326 650 
Q 1584 409 2034 409 
Q 2484 409 2743 651 
Q 3003 894 3003 1313 
Q 3003 1734 2745 1975 
Q 2488 2216 2034 2216 
z
M 1403 2484 
Q 997 2584 770 2862 
Q 544 3141 544 3541 
Q 544 4100 942 4425 
Q 1341 4750 2034 4750 
Q 2731 4750 3128 4425 
Q 3525 4100 3525 3541 
Q 3525 3141 3298 2862 
Q 3072 2584 2669 2484 
Q 3125 2378 3379 2068 
Q 3634 1759 3634 1313 
Q 3634 634 3220 271 
Q 2806 -91 2034 -91 
Q 1263 -91 848 271 
Q 434 634 434 1313 
Q 434 1759 690 2068 
Q 947 2378 1403 2484 
z
M 1172 3481 
Q 1172 3119 1398 2916 
Q 1625 2713 2034 2713 
Q 2441 2713 2670 2916 
Q 2900 3119 2900 3481 
Q 2900 3844 2670 4047 
Q 2441 4250 2034 4250 
Q 1625 4250 1398 4047 
Q 1172 3844 1172 3481 
z
" id="DejaVuSans-38" transform="scale(0.015625)"/>
       </defs>
       <use xlink:href="#DejaVuSans-38"/>
       <use x="63.623047" xlink:href="#DejaVuSans-30"/>
       <use x="127.246094" xlink:href="#DejaVuSans-30"/>
       <use x="190.869141" xlink:href="#DejaVuSans-30"/>
       <use x="254.492188" xlink:href="#DejaVuSans-30"/>
      </g>
     </g>
    </g>
    <g id="xtick_6">
     <g id="text_6">
      <!-- 100000 -->
      <g style="fill:#262626;" transform="translate(503.752966 636.076563)scale(0.22 -0.22)">
       <defs>
        <path d="M 794 531 
L 1825 531 
L 1825 4091 
L 703 3866 
L 703 4441 
L 1819 4666 
L 2450 4666 
L 2450 531 
L 3481 531 
L 3481 0 
L 794 0 
L 794 531 
z
" id="DejaVuSans-31" transform="scale(0.015625)"/>
       </defs>
       <use xlink:href="#DejaVuSans-31"/>
       <use x="63.623047" xlink:href="#DejaVuSans-30"/>
       <use x="127.246094" xlink:href="#DejaVuSans-30"/>
       <use x="190.869141" xlink:href="#DejaVuSans-30"/>
       <use x="254.492188" xlink:href="#DejaVuSans-30"/>
       <use x="318.115234" xlink:href="#DejaVuSans-30"/>
      </g>
     </g>
    </g>
    <g id="text_7">
     <!-- MDTU -->
     <g style="fill:#262626;" transform="translate(290.596464 662.888125)scale(0.24 -0.24)">
      <defs>
       <path d="M 628 4666 
L 1569 4666 
L 2759 1491 
L 3956 4666 
L 4897 4666 
L 4897 0 
L 4281 0 
L 4281 4097 
L 3078 897 
L 2444 897 
L 1241 4097 
L 1241 0 
L 628 0 
L 628 4666 
z
" id="DejaVuSans-4d" transform="scale(0.015625)"/>
       <path d="M 1259 4147 
L 1259 519 
L 2022 519 
Q 2988 519 3436 956 
Q 3884 1394 3884 2338 
Q 3884 3275 3436 3711 
Q 2988 4147 2022 4147 
L 1259 4147 
z
M 628 4666 
L 1925 4666 
Q 3281 4666 3915 4102 
Q 4550 3538 4550 2338 
Q 4550 1131 3912 565 
Q 3275 0 1925 0 
L 628 0 
L 628 4666 
z
" id="DejaVuSans-44" transform="scale(0.015625)"/>
       <path d="M -19 4666 
L 3928 4666 
L 3928 4134 
L 2272 4134 
L 2272 0 
L 1638 0 
L 1638 4134 
L -19 4134 
L -19 4666 
z
" id="DejaVuSans-54" transform="scale(0.015625)"/>
       <path d="M 556 4666 
L 1191 4666 
L 1191 1831 
Q 1191 1081 1462 751 
Q 1734 422 2344 422 
Q 2950 422 3222 751 
Q 3494 1081 3494 1831 
L 3494 4666 
L 4128 4666 
L 4128 1753 
Q 4128 841 3676 375 
Q 3225 -91 2344 -91 
Q 1459 -91 1007 375 
Q 556 841 556 1753 
L 556 4666 
z
" id="DejaVuSans-55" transform="scale(0.015625)"/>
      </defs>
      <use xlink:href="#DejaVuSans-4d"/>
      <use x="86.279297" xlink:href="#DejaVuSans-44"/>
      <use x="163.28125" xlink:href="#DejaVuSans-54"/>
      <use x="224.365234" xlink:href="#DejaVuSans-55"/>
     </g>
    </g>
   </g>
   <g id="matplotlib.axis_2">
    <g id="ytick_1">
     <g id="text_8">
      <!-- 0.5 -->
      <g style="fill:#262626;" transform="translate(34.4275 521.715421)scale(0.22 -0.22)">
       <defs>
        <path d="M 684 794 
L 1344 794 
L 1344 0 
L 684 0 
L 684 794 
z
" id="DejaVuSans-2e" transform="scale(0.015625)"/>
        <path d="M 691 4666 
L 3169 4666 
L 3169 4134 
L 1269 4134 
L 1269 2991 
Q 1406 3038 1543 3061 
Q 1681 3084 1819 3084 
Q 2600 3084 3056 2656 
Q 3513 2228 3513 1497 
Q 3513 744 3044 326 
Q 2575 -91 1722 -91 
Q 1428 -91 1123 -41 
Q 819 9 494 109 
L 494 744 
Q 775 591 1075 516 
Q 1375 441 1709 441 
Q 2250 441 2565 725 
Q 2881 1009 2881 1497 
Q 2881 1984 2565 2268 
Q 2250 2553 1709 2553 
Q 1456 2553 1204 2497 
Q 953 2441 691 2322 
L 691 4666 
z
" id="DejaVuSans-35" transform="scale(0.015625)"/>
       </defs>
       <use xlink:href="#DejaVuSans-30"/>
       <use x="63.623047" xlink:href="#DejaVuSans-2e"/>
       <use x="95.410156" xlink:href="#DejaVuSans-35"/>
      </g>
     </g>
    </g>
    <g id="ytick_2">
     <g id="text_9">
      <!-- 1.0 -->
      <g style="fill:#262626;" transform="translate(34.4275 419.741747)scale(0.22 -0.22)">
       <use xlink:href="#DejaVuSans-31"/>
       <use x="63.623047" xlink:href="#DejaVuSans-2e"/>
       <use x="95.410156" xlink:href="#DejaVuSans-30"/>
      </g>
     </g>
    </g>
    <g id="ytick_3">
     <g id="text_10">
      <!-- 1.5 -->
      <g style="fill:#262626;" transform="translate(34.4275 317.768074)scale(0.22 -0.22)">
       <use xlink:href="#DejaVuSans-31"/>
       <use x="63.623047" xlink:href="#DejaVuSans-2e"/>
       <use x="95.410156" xlink:href="#DejaVuSans-35"/>
      </g>
     </g>
    </g>
    <g id="ytick_4">
     <g id="text_11">
      <!-- 2.0 -->
      <g style="fill:#262626;" transform="translate(34.4275 215.7944)scale(0.22 -0.22)">
       <use xlink:href="#DejaVuSans-32"/>
       <use x="63.623047" xlink:href="#DejaVuSans-2e"/>
       <use x="95.410156" xlink:href="#DejaVuSans-30"/>
      </g>
     </g>
    </g>
    <g id="text_12">
     <!-- $E$ -->
     <g style="fill:#262626;" transform="translate(25.43625 364.352286)rotate(-90)scale(0.24 -0.24)">
      <defs>
       <path d="M 1081 4666 
L 4031 4666 
L 3928 4134 
L 1606 4134 
L 1338 2753 
L 3566 2753 
L 3463 2222 
L 1234 2222 
L 909 531 
L 3284 531 
L 3181 0 
L 172 0 
L 1081 4666 
z
" id="DejaVuSans-Oblique-45" transform="scale(0.015625)"/>
      </defs>
      <use transform="translate(0 0.09375)" xlink:href="#DejaVuSans-Oblique-45"/>
     </g>
    </g>
   </g>
   <g id="line2d_1">
    <path clip-path="url(#p80366dbaef)" d="M 106.858713 531.606999 
L 107.078266 529.154466 
L 107.297819 412.86694 
L 107.517372 428.009717 
L 107.736925 542.642856 
L 107.956478 419.287172 
L 108.176032 528.543925 
L 108.395585 377.080381 
L 108.615138 436.380212 
L 108.834691 371.790763 
L 109.054244 482.245313 
L 109.273797 487.343792 
L 109.493351 384.707319 
L 109.712904 402.642125 
L 109.932457 448.719151 
L 110.15201 381.690362 
L 110.371563 484.864093 
L 110.591116 394.516035 
L 110.810669 351.140887 
L 111.030223 486.033294 
L 111.249776 441.011526 
L 111.469329 501.757716 
L 111.688882 362.511366 
L 112.127988 511.02499 
L 112.567095 452.097738 
L 112.786648 482.898916 
L 113.006201 376.546103 
L 113.225754 490.806805 
L 113.445307 514.767286 
L 113.66486 453.362704 
L 113.884414 328.970666 
L 114.103967 515.509673 
L 114.32352 471.072727 
L 114.543073 270.959109 
L 114.762626 468.248146 
L 114.982179 427.201799 
L 115.201732 513.375764 
L 115.421286 503.682926 
L 115.640839 504.974035 
L 115.860392 490.817436 
L 116.079945 387.8465 
L 116.299498 396.029536 
L 116.519051 436.547269 
L 116.738605 415.838632 
L 116.958158 466.860297 
L 117.177711 471.627921 
L 117.397264 481.858736 
L 117.616817 517.646297 
L 117.83637 436.563008 
L 118.055923 509.178167 
L 118.275477 469.555464 
L 118.49503 506.436619 
L 118.714583 473.694277 
L 118.934136 483.83167 
L 119.153689 522.608036 
L 119.373242 492.223717 
L 119.592796 444.906904 
L 119.812349 532.34158 
L 120.031902 518.292903 
L 120.471008 433.369457 
L 120.690561 520.164064 
L 120.910114 487.825405 
L 121.129668 528.378548 
L 121.568774 460.50506 
L 121.788327 489.696082 
L 122.00788 498.361761 
L 122.446987 388.826305 
L 122.66654 475.254089 
L 122.886093 517.004539 
L 123.105646 524.574545 
L 123.325199 546.72319 
L 123.544752 472.301975 
L 123.764305 497.02623 
L 123.983859 422.509347 
L 124.203412 438.736305 
L 124.422965 517.787734 
L 124.642518 531.095385 
L 124.862071 427.906406 
L 125.081624 433.423633 
L 125.301178 382.112312 
L 125.520731 516.123997 
L 125.740284 393.873722 
L 126.17939 478.978043 
L 126.398943 464.339386 
L 126.618496 514.454721 
L 126.83805 489.334634 
L 127.057603 509.640529 
L 127.277156 440.578388 
L 127.496709 473.090844 
L 127.716262 461.493269 
L 127.935815 383.385441 
L 128.155369 480.822625 
L 128.374922 485.580989 
L 128.594475 445.989729 
L 128.814028 517.199269 
L 129.033581 445.78586 
L 129.253134 469.801227 
L 129.692241 487.866939 
L 129.911794 410.701061 
L 130.131347 389.740511 
L 130.570453 533.053214 
L 130.790006 459.059378 
L 131.00956 497.947996 
L 131.229113 511.434051 
L 131.448666 517.621322 
L 131.668219 438.896985 
L 131.887772 446.243221 
L 132.107325 389.360112 
L 132.326878 536.544938 
L 132.546432 355.421793 
L 132.765985 375.726009 
L 132.985538 497.799047 
L 133.205091 403.338574 
L 133.424644 462.506103 
L 133.644197 429.965745 
L 133.863751 451.721925 
L 134.083304 508.39565 
L 134.302857 452.277023 
L 134.52241 540.688823 
L 134.741963 482.067645 
L 134.961516 526.505967 
L 135.181069 421.387782 
L 135.400623 438.652393 
L 135.620176 479.825332 
L 135.839729 545.824134 
L 136.059282 460.052603 
L 136.278835 488.469572 
L 136.498388 465.846827 
L 136.717941 414.540148 
L 136.937495 414.759861 
L 137.157048 393.853301 
L 137.376601 482.991188 
L 137.596154 511.068153 
L 137.815707 509.018529 
L 138.03526 469.900812 
L 138.254814 376.667047 
L 138.474367 492.19953 
L 138.69392 502.629999 
L 138.913473 439.619112 
L 139.133026 496.438304 
L 139.352579 517.893912 
L 139.572132 334.189742 
L 139.791686 357.524717 
L 140.011239 420.831458 
L 140.230792 309.119904 
L 140.450345 505.201508 
L 140.669898 410.600655 
L 140.889451 379.188089 
L 141.109005 402.241387 
L 141.328558 529.214798 
L 141.548111 337.927633 
L 141.767664 421.266504 
L 141.987217 406.145338 
L 142.20677 541.698237 
L 142.426323 478.606297 
L 142.645877 560.84362 
L 142.86543 528.748736 
L 143.304536 426.78771 
L 143.524089 483.930817 
L 143.743642 426.206758 
L 143.963196 487.865258 
L 144.621855 443.493959 
L 144.841408 507.879867 
L 145.060961 501.200745 
L 145.280514 486.229559 
L 145.500068 423.83744 
L 145.719621 473.024278 
L 145.939174 232.012154 
L 146.158727 541.446453 
L 146.37828 500.827802 
L 146.597833 402.799811 
L 147.03694 549.307787 
L 147.256493 465.763037 
L 147.476046 321.879737 
L 147.695599 531.073111 
L 147.915152 487.305843 
L 148.134705 419.230746 
L 148.354259 469.683617 
L 148.573812 408.979855 
L 148.793365 387.029817 
L 149.232471 447.204692 
L 149.452024 527.524167 
L 149.671578 469.332417 
L 149.891131 494.223619 
L 150.110684 453.011801 
L 150.330237 476.745426 
L 150.54979 413.173399 
L 150.988896 446.317637 
L 151.20845 436.831975 
L 151.428003 406.210155 
L 151.647556 424.069447 
L 152.086662 503.832517 
L 152.306215 474.439217 
L 152.525769 301.097016 
L 152.964875 504.091827 
L 153.184428 449.974212 
L 153.403981 462.922861 
L 153.623534 514.711498 
L 153.843087 399.439677 
L 154.062641 496.537219 
L 154.282194 478.13447 
L 154.501747 385.190873 
L 154.7213 351.364049 
L 154.940853 442.670966 
L 155.160406 376.088787 
L 155.599513 513.24495 
L 155.819066 438.907993 
L 156.038619 469.125202 
L 156.258172 402.609607 
L 156.477725 497.237393 
L 156.697278 522.412068 
L 157.136385 455.540883 
L 157.355938 508.720229 
L 157.575491 467.715539 
L 157.795044 397.907127 
L 158.014597 461.246928 
L 158.234151 458.392223 
L 158.453704 474.582346 
L 158.89281 417.905969 
L 159.112363 506.344764 
L 159.331916 522.352994 
L 159.551469 379.700814 
L 159.771023 445.958364 
L 159.990576 406.10111 
L 160.210129 501.324091 
L 160.429682 471.931205 
L 160.649235 538.744337 
L 160.868788 427.680044 
L 161.088342 391.223751 
L 161.307895 551.417651 
L 161.527448 510.52818 
L 161.747001 391.381835 
L 161.966554 456.000215 
L 162.186107 456.960417 
L 162.40566 487.191402 
L 162.625214 401.472603 
L 162.844767 536.964414 
L 163.06432 333.933177 
L 163.283873 519.237123 
L 163.503426 461.200885 
L 163.722979 477.686315 
L 163.942532 466.156093 
L 164.381639 391.421304 
L 164.601192 466.645563 
L 164.820745 482.680627 
L 165.040298 368.377369 
L 165.259851 513.435701 
L 165.698958 476.462602 
L 165.918511 460.794842 
L 166.357617 533.249842 
L 166.57717 452.300027 
L 166.796723 560.204474 
L 167.016277 444.801615 
L 167.23583 523.070427 
L 167.455383 500.899859 
L 167.674936 382.882949 
L 167.894489 363.126852 
L 168.114042 451.285903 
L 168.333596 451.28552 
L 168.553149 482.473782 
L 168.772702 417.971381 
L 168.992255 463.174732 
L 169.211808 428.996615 
L 169.650914 511.521662 
L 169.870468 483.839323 
L 170.090021 397.219446 
L 170.309574 502.660136 
L 170.529127 520.014044 
L 170.74868 354.457923 
L 171.40734 507.737545 
L 171.846446 401.855499 
L 172.065999 548.440586 
L 172.285552 361.804573 
L 172.505105 403.161116 
L 172.724659 515.56686 
L 172.944212 490.325463 
L 173.163765 496.211803 
L 173.383318 282.480156 
L 173.602871 512.569413 
L 173.822424 344.912895 
L 174.041978 466.749489 
L 174.481084 536.735964 
L 174.700637 427.311115 
L 174.92019 462.769526 
L 175.139743 394.010692 
L 175.359296 472.727737 
L 175.798403 397.042431 
L 176.017956 515.603367 
L 176.237509 501.668568 
L 176.457062 497.083071 
L 176.676615 530.79333 
L 176.896169 451.130281 
L 177.115722 488.101997 
L 177.554828 389.2858 
L 177.774381 491.152374 
L 177.993934 478.177739 
L 178.213487 399.771711 
L 178.433041 497.661405 
L 178.652594 456.042936 
L 178.872147 500.513262 
L 179.0917 479.725064 
L 179.311253 382.710051 
L 179.530806 492.31644 
L 179.75036 496.641415 
L 179.969913 446.560737 
L 180.189466 489.258848 
L 180.628572 453.796671 
L 180.848125 457.668405 
L 181.067678 411.681525 
L 181.287232 402.959417 
L 181.506785 473.485641 
L 181.726338 464.66737 
L 181.945891 475.564251 
L 182.165444 527.85521 
L 182.604551 450.651328 
L 182.824104 484.342794 
L 183.043657 495.650879 
L 183.26321 451.041798 
L 183.482763 548.175514 
L 183.702316 498.758394 
L 184.141423 459.561312 
L 184.360976 519.559586 
L 184.580529 453.817576 
L 184.800082 480.31849 
L 185.019635 524.679841 
L 185.239188 464.222578 
L 185.458742 525.621567 
L 185.678295 423.486927 
L 185.897848 409.265659 
L 186.117401 520.506738 
L 186.336954 544.003639 
L 186.77606 492.982361 
L 186.995614 513.902893 
L 187.215167 511.355901 
L 187.43472 460.533698 
L 187.654273 375.003434 
L 187.873826 514.825496 
L 188.093379 528.34784 
L 188.312932 409.491275 
L 188.532486 495.301422 
L 188.752039 483.429022 
L 188.971592 505.165522 
L 189.191145 494.578061 
L 189.410698 523.061618 
L 190.069358 351.219514 
L 190.288911 444.515192 
L 190.508464 420.57761 
L 190.728017 498.354963 
L 191.167123 527.78335 
L 191.386677 474.351759 
L 191.60623 503.839247 
L 191.825783 262.119099 
L 192.045336 465.577719 
L 192.264889 462.170264 
L 192.484442 500.407829 
L 192.703996 476.530572 
L 192.923549 525.374387 
L 193.143102 455.698022 
L 193.582208 433.960712 
L 193.801761 346.366058 
L 194.021314 506.045589 
L 194.240868 331.343512 
L 194.460421 529.600466 
L 194.679974 443.421372 
L 194.899527 451.228727 
L 195.11908 490.995842 
L 195.338633 477.211251 
L 195.558187 541.600353 
L 195.77774 454.456451 
L 195.997293 430.590582 
L 196.216846 381.399137 
L 196.655952 523.793442 
L 196.875505 392.551056 
L 197.095059 487.928289 
L 197.314612 378.137344 
L 197.534165 476.10884 
L 197.753718 458.634837 
L 197.973271 496.935638 
L 198.192824 444.924759 
L 198.412378 507.503964 
L 198.631931 426.572314 
L 198.851484 508.424998 
L 199.071037 481.658513 
L 199.29059 470.373229 
L 199.510143 527.097726 
L 199.729696 474.664776 
L 199.94925 467.527449 
L 200.168803 542.02967 
L 200.388356 515.819808 
L 200.607909 374.302285 
L 200.827462 490.649396 
L 201.047015 432.674563 
L 201.266569 504.251306 
L 201.486122 352.769726 
L 201.705675 398.79843 
L 201.925228 391.302567 
L 202.144781 368.541678 
L 202.364334 527.254607 
L 202.583887 455.439187 
L 202.803441 504.450729 
L 203.022994 522.418501 
L 203.242547 466.253523 
L 203.4621 455.94962 
L 203.681653 482.937914 
L 204.340313 385.517222 
L 204.559866 380.266813 
L 204.779419 457.376292 
L 204.998972 467.705627 
L 205.218525 391.971739 
L 205.438078 419.793621 
L 205.657632 470.003818 
L 205.877185 465.382632 
L 206.096738 358.585235 
L 206.316291 539.178236 
L 206.535844 533.311138 
L 206.755397 507.024687 
L 206.974951 536.610611 
L 207.194504 500.968495 
L 207.414057 403.472342 
L 207.63361 474.432825 
L 208.072716 530.260391 
L 208.292269 519.146246 
L 208.511823 415.840788 
L 208.731376 498.045433 
L 208.950929 470.365183 
L 209.390035 454.717617 
L 209.609588 412.483789 
L 209.829142 417.782961 
L 210.048695 394.732111 
L 210.268248 405.992316 
L 210.487801 390.159778 
L 210.707354 462.589376 
L 210.926907 422.364282 
L 211.14646 514.444199 
L 211.366014 459.695016 
L 211.585567 581.38839 
L 212.024673 360.898648 
L 212.244226 355.798679 
L 212.463779 366.850766 
L 212.902886 500.873703 
L 213.122439 485.479693 
L 213.341992 457.03803 
L 213.561545 473.512318 
L 213.781098 506.333368 
L 214.000651 428.924793 
L 214.220205 506.882909 
L 214.439758 501.347903 
L 214.659311 376.283735 
L 214.878864 452.068633 
L 215.098417 435.691361 
L 215.31797 451.471449 
L 215.757077 390.282149 
L 215.97663 459.492504 
L 216.196183 434.042496 
L 216.415736 320.864171 
L 216.635289 444.86833 
L 217.074396 340.78676 
L 217.293949 418.763746 
L 217.513502 407.747628 
L 217.952608 546.63745 
L 218.172161 500.296271 
L 218.391714 525.276057 
L 218.611268 513.910396 
L 218.830821 435.391928 
L 219.050374 463.391379 
L 219.269927 514.704334 
L 219.709033 433.989055 
L 219.928587 428.143637 
L 220.14814 526.621761 
L 220.367693 488.130609 
L 220.587246 334.251949 
L 221.026352 507.769618 
L 221.245905 481.672362 
L 221.465459 477.680709 
L 221.685012 504.671458 
L 221.904565 547.886646 
L 222.124118 325.382972 
L 222.343671 407.674515 
L 222.563224 418.01376 
L 222.782778 402.889212 
L 223.002331 454.332201 
L 223.441437 359.866368 
L 223.66099 511.727007 
L 223.880543 501.624916 
L 224.100096 533.249669 
L 224.31965 475.65998 
L 224.539203 474.435144 
L 224.758756 384.625616 
L 224.978309 527.529169 
L 225.197862 417.049151 
L 225.417415 475.108976 
L 225.636969 437.786387 
L 225.856522 494.797924 
L 226.076075 415.993562 
L 226.295628 429.679683 
L 226.515181 324.617224 
L 226.734734 403.180904 
L 226.954287 417.295958 
L 227.173841 455.317742 
L 227.393394 466.29118 
L 227.612947 486.537769 
L 227.8325 471.03852 
L 228.052053 536.818868 
L 228.271606 470.972186 
L 228.49116 505.010021 
L 228.710713 436.636993 
L 228.930266 504.407588 
L 229.149819 507.6188 
L 229.369372 450.407587 
L 229.588925 454.312608 
L 229.808478 401.973888 
L 230.028032 494.229489 
L 230.247585 392.951762 
L 230.467138 488.437408 
L 230.906244 413.992093 
L 231.125797 477.497911 
L 231.345351 452.035609 
L 231.564904 547.52227 
L 231.784457 482.088044 
L 232.00401 513.098046 
L 232.223563 490.940428 
L 232.443116 388.368104 
L 232.662669 509.145694 
L 232.882223 362.47474 
L 233.101776 507.583929 
L 233.321329 474.452735 
L 233.540882 501.608137 
L 233.760435 464.580487 
L 233.979988 457.011071 
L 234.419095 367.071233 
L 234.638648 481.512219 
L 234.858201 309.134628 
L 235.077754 512.337191 
L 235.297307 427.801806 
L 235.51686 508.106089 
L 235.736414 445.599273 
L 235.955967 461.544225 
L 236.17552 384.356129 
L 236.395073 479.052498 
L 236.614626 377.959769 
L 236.834179 419.132973 
L 237.053733 490.221358 
L 237.273286 395.24218 
L 237.492839 459.484926 
L 237.712392 388.409877 
L 238.151498 490.113515 
L 238.371051 433.232751 
L 238.590605 308.459016 
L 238.810158 502.416193 
L 239.029711 467.869313 
L 239.249264 317.038978 
L 239.468817 465.942571 
L 239.68837 465.475529 
L 239.907924 435.636984 
L 240.127477 515.717681 
L 240.34703 427.324323 
L 240.566583 500.09074 
L 240.786136 429.138808 
L 241.005689 491.979303 
L 241.225242 385.940433 
L 241.444796 510.97574 
L 241.664349 434.552937 
L 241.883902 495.443008 
L 242.103455 521.58483 
L 242.323008 447.394969 
L 242.542561 518.334766 
L 242.762114 442.221088 
L 242.981668 433.20853 
L 243.201221 505.086756 
L 243.420774 415.856258 
L 243.640327 385.622023 
L 243.85988 423.449613 
L 244.079433 484.710223 
L 244.51854 429.556329 
L 244.738093 468.774257 
L 244.957646 446.085731 
L 245.177199 482.724714 
L 245.396752 455.784143 
L 245.835859 269.872211 
L 246.055412 422.868403 
L 246.274965 437.986506 
L 246.494518 407.942372 
L 246.714071 409.020052 
L 246.933624 459.406139 
L 247.153178 387.460229 
L 247.592284 512.236547 
L 247.811837 439.759495 
L 248.03139 520.278042 
L 248.250943 508.42879 
L 248.470496 466.565412 
L 248.69005 448.129465 
L 248.909603 343.393789 
L 249.129156 510.772373 
L 249.348709 456.743871 
L 249.568262 437.067266 
L 249.787815 465.417845 
L 250.007369 447.195603 
L 250.226922 354.881188 
L 250.446475 461.573512 
L 250.885581 404.445773 
L 251.105134 388.142978 
L 251.324687 432.140521 
L 251.544241 443.860072 
L 251.763794 415.741274 
L 251.983347 343.749545 
L 252.422453 403.671459 
L 252.642006 445.738303 
L 252.86156 532.208773 
L 253.300666 437.98163 
L 253.520219 530.075509 
L 253.739772 488.08444 
L 253.959325 484.972629 
L 254.178878 476.970209 
L 254.398432 402.372286 
L 254.617985 477.478667 
L 254.837538 501.330774 
L 255.057091 512.280781 
L 255.276644 506.868197 
L 255.496197 515.900625 
L 255.715751 404.899297 
L 256.154857 461.482513 
L 256.37441 460.871979 
L 256.593963 513.568197 
L 256.813516 450.448567 
L 257.033069 225.540274 
L 257.252623 473.532955 
L 257.472176 502.059015 
L 257.911282 425.74234 
L 258.569942 525.163141 
L 258.789495 502.830617 
L 259.009048 434.806052 
L 259.228601 521.291462 
L 259.448154 435.627326 
L 259.667707 490.940543 
L 259.88726 489.851803 
L 260.106814 392.366496 
L 260.54592 449.647719 
L 260.765473 418.231388 
L 260.985026 503.025463 
L 261.204579 434.570471 
L 261.424133 538.603798 
L 261.643686 476.748004 
L 261.863239 457.182545 
L 262.082792 537.358015 
L 262.521898 430.061856 
L 262.741451 526.679631 
L 262.961005 433.383656 
L 263.180558 496.353452 
L 263.400111 503.519147 
L 263.619664 387.17514 
L 263.839217 458.216993 
L 264.05877 437.375911 
L 264.278324 223.916465 
L 264.497877 425.620092 
L 264.71743 441.506428 
L 264.936983 504.667105 
L 265.376089 367.60659 
L 265.595642 457.773754 
L 265.815196 489.042869 
L 266.034749 413.473701 
L 266.254302 515.621035 
L 266.473855 462.945735 
L 266.693408 455.652488 
L 266.912961 403.684462 
L 267.132514 462.661185 
L 267.352068 309.558675 
L 267.571621 482.811474 
L 267.791174 513.94486 
L 268.010727 396.121481 
L 268.23028 496.182056 
L 268.449833 487.209292 
L 268.669387 428.674901 
L 268.88894 483.796118 
L 269.108493 448.073647 
L 269.328046 550.50901 
L 269.547599 365.850775 
L 269.767152 527.797587 
L 269.986705 412.236188 
L 270.206259 466.133305 
L 270.425812 385.392924 
L 270.645365 459.371936 
L 270.864918 448.738926 
L 271.084471 390.534013 
L 271.304024 495.259846 
L 271.523578 423.317536 
L 271.743131 519.132704 
L 271.962684 312.237674 
L 272.40179 522.797191 
L 272.621343 369.627624 
L 273.06045 483.908931 
L 273.280003 440.790903 
L 273.499556 509.119721 
L 273.719109 499.351578 
L 273.938662 415.412575 
L 274.158215 486.608649 
L 274.597322 518.283123 
L 275.255981 450.278123 
L 275.475534 475.22974 
L 275.695087 482.18043 
L 275.914641 493.097402 
L 276.134194 433.310549 
L 276.353747 448.895713 
L 276.792853 407.895997 
L 277.012406 474.111569 
L 277.23196 441.89455 
L 277.451513 512.586343 
L 277.890619 322.407439 
L 278.110172 439.648712 
L 278.329725 476.906988 
L 278.549278 447.57002 
L 278.768832 484.39619 
L 278.988385 463.807369 
L 279.207938 527.361069 
L 279.427491 374.322028 
L 279.647044 511.244497 
L 279.866597 313.947698 
L 280.305704 512.213038 
L 280.525257 399.494174 
L 280.74481 506.418837 
L 280.964363 504.574114 
L 281.403469 470.9662 
L 281.623023 463.755714 
L 281.842576 476.785866 
L 282.062129 438.978258 
L 282.501235 407.009718 
L 282.720788 446.725238 
L 282.940342 430.798444 
L 283.159895 471.123381 
L 283.379448 540.74761 
L 283.599001 522.362851 
L 283.818554 484.695094 
L 284.038107 517.750706 
L 284.25766 473.308615 
L 284.477214 395.067662 
L 284.696767 452.309867 
L 284.91632 385.052167 
L 285.135873 403.355107 
L 285.355426 364.072261 
L 285.574979 294.469959 
L 285.794533 445.223921 
L 286.014086 512.08384 
L 286.233639 464.109123 
L 286.453192 480.854397 
L 286.672745 363.082828 
L 286.892298 495.528134 
L 287.111851 450.404635 
L 287.331405 462.348429 
L 287.550958 430.842595 
L 287.770511 487.105314 
L 287.990064 376.476583 
L 288.209617 470.237736 
L 288.42917 463.511647 
L 288.648724 407.69419 
L 288.868277 465.356907 
L 289.08783 450.789856 
L 289.307383 514.919558 
L 289.526936 500.433262 
L 289.746489 464.367546 
L 289.966042 483.997965 
L 290.185596 467.099841 
L 290.405149 365.851589 
L 290.624702 480.191555 
L 290.844255 503.891446 
L 291.063808 469.34078 
L 291.283361 502.259186 
L 291.502915 451.98449 
L 291.722468 445.825309 
L 292.161574 469.715993 
L 292.381127 434.296298 
L 292.60068 371.20297 
L 292.820233 443.211405 
L 293.039787 468.453393 
L 293.478893 401.214168 
L 293.698446 501.902836 
L 293.917999 529.274319 
L 294.357105 378.064588 
L 294.576659 468.331902 
L 295.015765 441.857221 
L 295.235318 482.055276 
L 295.454871 493.474332 
L 295.674424 346.270386 
L 295.893978 372.397784 
L 296.113531 439.258286 
L 296.333084 353.625335 
L 296.991743 486.361973 
L 297.211296 505.012793 
L 297.43085 492.563851 
L 297.650403 490.704583 
L 297.869956 486.459775 
L 298.089509 375.683538 
L 298.528615 498.260466 
L 298.748169 438.353103 
L 298.967722 472.334536 
L 299.187275 400.132591 
L 299.406828 498.452801 
L 299.626381 489.608336 
L 299.845934 474.1211 
L 300.065487 433.20072 
L 300.285041 421.059765 
L 300.504594 470.208375 
L 300.724147 436.88243 
L 301.163253 488.212336 
L 301.382806 469.797336 
L 301.60236 435.920151 
L 301.821913 457.920482 
L 302.041466 377.319272 
L 302.261019 452.615329 
L 302.480572 332.79163 
L 302.700125 479.54641 
L 303.139232 544.293209 
L 303.358785 528.104781 
L 303.578338 547.819755 
L 304.236997 363.073945 
L 304.456551 456.170352 
L 304.676104 365.78427 
L 304.895657 426.191409 
L 305.11521 403.71071 
L 305.334763 500.264463 
L 305.554316 458.278667 
L 305.773869 466.853797 
L 305.993423 492.080064 
L 306.212976 449.181279 
L 306.432529 516.42112 
L 306.652082 384.660403 
L 306.871635 488.318962 
L 307.091188 423.483382 
L 307.310742 467.249201 
L 307.530295 430.569644 
L 307.749848 536.794383 
L 307.969401 506.32124 
L 308.188954 508.734865 
L 308.408507 497.952742 
L 308.62806 454.483883 
L 308.847614 442.375781 
L 309.067167 364.602305 
L 309.28672 392.418576 
L 309.945379 429.296203 
L 310.164933 404.699255 
L 310.384486 453.469931 
L 310.604039 541.07574 
L 310.823592 482.00238 
L 311.043145 477.5614 
L 311.262698 464.463536 
L 311.482251 466.435053 
L 311.701805 486.898821 
L 311.921358 527.156272 
L 312.140911 454.004105 
L 312.360464 512.502916 
L 312.580017 482.015081 
L 312.79957 478.351405 
L 313.019124 469.835284 
L 313.238677 467.934464 
L 313.45823 451.204654 
L 313.897336 511.578301 
L 314.116889 459.445447 
L 314.336442 446.855341 
L 314.555996 440.893967 
L 314.775549 534.049229 
L 314.995102 428.773984 
L 315.214655 436.080046 
L 315.434208 239.503115 
L 315.873315 513.012556 
L 316.531974 372.443633 
L 316.751527 472.462332 
L 316.97108 500.834376 
L 317.190633 432.675166 
L 317.410187 448.153933 
L 317.62974 307.083349 
L 317.849293 448.227227 
L 318.068846 362.809868 
L 318.288399 473.97485 
L 318.507952 407.837581 
L 318.727506 495.96764 
L 318.947059 458.507204 
L 319.166612 325.952935 
L 319.386165 481.343253 
L 319.605718 467.810806 
L 319.825271 442.605949 
L 320.044824 373.276504 
L 320.264378 374.105443 
L 320.483931 478.623657 
L 320.703484 487.777925 
L 320.923037 376.997875 
L 321.14259 490.633793 
L 321.362143 403.025404 
L 321.581696 483.566186 
L 321.80125 456.896397 
L 322.020803 541.163638 
L 322.240356 455.181518 
L 322.459909 441.290879 
L 322.899015 481.240876 
L 323.118569 489.329691 
L 323.557675 379.221103 
L 323.777228 461.628788 
L 324.216334 473.718201 
L 324.435887 529.336504 
L 324.655441 476.942345 
L 324.874994 521.340614 
L 325.3141 447.018264 
L 325.533653 479.635822 
L 325.753206 493.802829 
L 325.97276 397.543141 
L 326.192313 471.464303 
L 326.411866 471.687773 
L 326.631419 367.957673 
L 326.850972 418.273833 
L 327.070525 425.285632 
L 327.290078 474.990786 
L 327.509632 466.490359 
L 327.729185 475.242998 
L 327.948738 523.14817 
L 328.168291 430.297948 
L 328.387844 467.830566 
L 328.607397 438.65335 
L 328.826951 463.453846 
L 329.046504 475.378361 
L 329.266057 437.772015 
L 329.48561 491.339069 
L 329.705163 511.49595 
L 329.924716 410.512793 
L 330.363823 529.90257 
L 330.583376 527.906882 
L 330.802929 411.17857 
L 331.022482 504.20457 
L 331.461588 427.689827 
L 331.681142 461.268507 
L 331.900695 475.043278 
L 332.120248 440.409037 
L 332.339801 490.194893 
L 332.559354 506.803668 
L 332.778907 400.926559 
L 332.99846 489.551622 
L 333.218014 510.893488 
L 333.437567 450.993049 
L 333.65712 495.643906 
L 333.876673 474.415099 
L 334.096226 504.4884 
L 334.315779 409.161075 
L 334.535333 429.054298 
L 334.754886 477.619941 
L 335.193992 389.123496 
L 335.413545 397.638308 
L 335.852651 443.806401 
L 336.072205 494.513186 
L 336.291758 497.156475 
L 336.511311 496.896618 
L 336.950417 420.18943 
L 337.16997 447.071517 
L 337.389524 415.968873 
L 337.609077 493.305955 
L 337.82863 449.359559 
L 338.048183 527.325344 
L 338.267736 457.072626 
L 338.487289 468.141841 
L 338.706842 374.937059 
L 338.926396 509.106296 
L 339.145949 479.764288 
L 339.365502 495.658765 
L 339.585055 433.136766 
L 339.804608 536.989567 
L 340.463268 463.177046 
L 340.682821 477.137276 
L 340.902374 501.246643 
L 341.121927 472.44804 
L 341.34148 360.4407 
L 341.561033 464.312359 
L 341.780587 373.718614 
L 342.219693 532.266245 
L 342.439246 522.727517 
L 342.658799 491.98821 
L 342.878352 407.411971 
L 343.097906 492.748621 
L 343.317459 382.18317 
L 343.537012 508.295759 
L 343.756565 425.566951 
L 344.195671 489.90406 
L 344.415224 513.182706 
L 344.634778 419.341864 
L 344.854331 521.240642 
L 345.073884 303.679396 
L 345.293437 552.853238 
L 345.51299 523.223721 
L 345.952096 405.690952 
L 346.17165 506.663589 
L 346.391203 454.168742 
L 346.610756 524.602448 
L 346.830309 444.746326 
L 347.049862 410.416019 
L 347.269415 511.139432 
L 347.488969 520.21983 
L 347.708522 398.157029 
L 347.928075 404.4897 
L 348.147628 425.218589 
L 348.367181 294.130879 
L 348.586734 433.368368 
L 348.806287 444.710873 
L 349.025841 505.430987 
L 349.245394 376.607983 
L 349.464947 378.25576 
L 349.6845 498.240601 
L 349.904053 548.126757 
L 350.123606 564.431339 
L 350.34316 423.90944 
L 350.562713 451.253082 
L 350.782266 400.74606 
L 351.001819 393.155042 
L 351.221372 417.275939 
L 351.440925 459.135664 
L 351.660478 478.71569 
L 351.880032 514.918703 
L 352.099585 417.998797 
L 352.319138 449.952181 
L 352.538691 407.432882 
L 352.758244 524.742479 
L 352.977797 466.549495 
L 353.197351 485.783922 
L 353.416904 447.979749 
L 353.636457 347.089731 
L 353.85601 457.533025 
L 354.075563 485.358425 
L 354.295116 491.0948 
L 354.514669 472.382995 
L 354.734223 469.967092 
L 354.953776 459.965134 
L 355.173329 402.641432 
L 355.392882 495.273171 
L 355.612435 449.818017 
L 355.831988 469.459763 
L 356.051542 458.780013 
L 356.271095 519.701102 
L 356.490648 504.669233 
L 356.710201 477.443799 
L 356.929754 507.431486 
L 357.149307 492.767607 
L 357.36886 527.759261 
L 357.807967 301.400857 
L 358.02752 484.86334 
L 358.247073 370.641423 
L 358.466626 434.019397 
L 358.686179 460.057284 
L 358.905733 458.206502 
L 359.125286 326.724343 
L 359.344839 498.466963 
L 359.564392 528.10293 
L 359.783945 499.685062 
L 360.003498 419.742025 
L 360.223051 529.669433 
L 360.442605 490.568611 
L 360.662158 490.894756 
L 360.881711 461.320804 
L 361.101264 328.882418 
L 361.320817 390.359148 
L 361.54037 542.831574 
L 361.759924 514.780364 
L 361.979477 467.423396 
L 362.19903 492.939164 
L 362.418583 497.770161 
L 362.638136 480.304756 
L 362.857689 497.609812 
L 363.077242 451.590342 
L 363.296796 530.481435 
L 363.516349 408.022461 
L 363.735902 547.706441 
L 363.955455 384.537248 
L 364.394561 513.626986 
L 364.614115 525.198018 
L 364.833668 518.982236 
L 365.053221 358.815975 
L 365.272774 376.598028 
L 365.492327 341.576841 
L 365.71188 486.086177 
L 365.931433 453.080275 
L 366.37054 502.117127 
L 366.590093 331.004667 
L 367.029199 506.899308 
L 367.248752 352.985967 
L 367.468306 411.467648 
L 367.687859 372.062269 
L 367.907412 451.358507 
L 368.126965 421.063425 
L 368.346518 477.530118 
L 368.566071 479.45976 
L 368.785624 478.782768 
L 369.005178 318.572642 
L 369.224731 402.173921 
L 369.444284 397.79849 
L 369.663837 366.079961 
L 369.88339 420.533624 
L 370.102943 410.168829 
L 370.322497 522.752807 
L 370.54205 480.428574 
L 370.761603 338.096441 
L 371.200709 457.133579 
L 371.420262 377.548442 
L 371.639815 439.64569 
L 371.859369 435.989262 
L 372.078922 383.336454 
L 372.298475 536.046546 
L 372.518028 468.572886 
L 372.957134 521.655056 
L 373.176687 527.117905 
L 373.396241 399.865183 
L 373.615794 507.704674 
L 373.835347 466.532753 
L 374.0549 330.48538 
L 374.494006 458.716169 
L 374.71356 431.41884 
L 374.933113 471.006879 
L 375.152666 413.395934 
L 375.591772 504.266625 
L 375.811325 458.389732 
L 376.250432 513.840997 
L 376.469985 394.133015 
L 376.689538 502.51819 
L 376.909091 523.157914 
L 377.128644 482.50015 
L 377.348197 388.214666 
L 377.567751 472.96758 
L 377.787304 449.955782 
L 378.006857 461.658106 
L 378.22641 498.085846 
L 378.445963 445.622025 
L 378.665516 522.696538 
L 378.885069 449.690758 
L 379.104623 498.142302 
L 379.324176 359.395801 
L 379.543729 493.680073 
L 379.763282 486.166267 
L 379.982835 377.048334 
L 380.202388 412.279561 
L 380.421942 479.486107 
L 380.641495 475.35634 
L 380.861048 183.605304 
L 381.080601 478.666855 
L 381.300154 497.305177 
L 381.519707 411.768308 
L 381.73926 526.643131 
L 381.958814 445.921362 
L 382.178367 515.269923 
L 382.39792 480.946121 
L 382.837026 512.902106 
L 383.056579 359.316797 
L 383.276133 497.951173 
L 383.495686 475.847704 
L 383.934792 497.032563 
L 384.154345 507.031396 
L 384.373898 420.418174 
L 384.593451 454.469458 
L 384.813005 426.122007 
L 385.032558 438.902567 
L 385.252111 420.721173 
L 385.471664 510.747987 
L 385.691217 421.421343 
L 385.91077 491.562151 
L 386.130324 450.024966 
L 386.349877 477.055368 
L 386.56943 470.02651 
L 386.788983 503.891793 
L 387.008536 472.058079 
L 387.228089 462.026732 
L 387.447642 349.074537 
L 387.667196 474.210134 
L 387.886749 430.850637 
L 388.106302 480.973003 
L 388.325855 477.370782 
L 388.545408 320.893635 
L 388.764961 482.674928 
L 388.984515 442.746579 
L 389.204068 377.881619 
L 389.423621 508.465266 
L 389.643174 458.547683 
L 389.862727 460.247466 
L 390.08228 379.846093 
L 390.301833 512.982481 
L 390.521387 448.470527 
L 390.74094 531.626028 
L 391.180046 462.164157 
L 391.399599 527.686976 
L 391.619152 485.288579 
L 391.838706 419.569758 
L 392.058259 505.371954 
L 392.277812 508.75724 
L 392.497365 426.982331 
L 392.716918 520.086011 
L 393.156024 472.528463 
L 393.595131 437.169463 
L 393.814684 510.107451 
L 394.034237 357.996739 
L 394.25379 469.028367 
L 394.473343 509.660163 
L 395.132003 445.300422 
L 395.351556 416.816907 
L 395.571109 461.655414 
L 396.010215 412.870312 
L 396.229769 401.29004 
L 396.449322 496.702136 
L 396.668875 506.30779 
L 396.888428 416.020484 
L 397.107981 493.382142 
L 397.327534 489.874491 
L 397.766641 404.375878 
L 397.986194 284.745565 
L 398.205747 474.94399 
L 398.4253 486.543295 
L 398.644853 504.469186 
L 398.864406 432.391122 
L 399.08396 479.925824 
L 399.303513 455.434117 
L 399.523066 394.926114 
L 399.742619 485.566874 
L 399.962172 415.304694 
L 400.181725 495.91063 
L 400.401278 498.861859 
L 400.620832 533.264213 
L 400.840385 355.937198 
L 401.059938 440.853007 
L 401.279491 472.341043 
L 401.499044 534.014384 
L 401.718597 513.656139 
L 401.938151 515.104607 
L 402.157704 387.778376 
L 402.377257 409.848453 
L 402.59681 463.778342 
L 403.035916 494.369425 
L 403.255469 485.580817 
L 403.475023 456.088256 
L 403.694576 463.588384 
L 403.914129 498.970511 
L 404.133682 378.429011 
L 404.353235 461.49809 
L 404.572788 466.597492 
L 404.792342 447.944187 
L 405.011895 471.499413 
L 405.231448 352.3361 
L 405.451001 486.39428 
L 405.670554 365.787814 
L 405.890107 431.407223 
L 406.10966 386.634961 
L 406.329214 505.814268 
L 406.548767 488.312462 
L 406.76832 445.71293 
L 406.987873 482.225185 
L 407.207426 442.319495 
L 407.426979 461.984316 
L 407.646533 438.629 
L 408.085639 499.929059 
L 408.305192 496.586743 
L 408.524745 526.590491 
L 408.744298 450.437981 
L 409.183405 465.969218 
L 409.402958 487.493719 
L 409.622511 486.642131 
L 409.842064 382.482607 
L 410.061617 443.876038 
L 410.28117 440.046819 
L 410.500724 480.19849 
L 410.720277 460.722967 
L 410.93983 483.833546 
L 411.159383 493.872137 
L 411.378936 528.433375 
L 411.598489 477.005581 
L 411.818042 375.311383 
L 412.037596 493.166697 
L 412.257149 449.091102 
L 412.476702 493.157571 
L 412.696255 494.290568 
L 412.915808 484.77348 
L 413.354915 474.311186 
L 413.574468 433.841904 
L 413.794021 541.123008 
L 414.013574 379.732015 
L 414.233127 503.190844 
L 414.45268 486.107238 
L 414.672233 350.276747 
L 414.891787 421.714022 
L 415.11134 561.652281 
L 415.330893 429.422091 
L 415.550446 469.113333 
L 415.769999 461.46768 
L 415.989552 553.489832 
L 416.428659 351.30192 
L 416.648212 461.847844 
L 416.867765 463.069943 
L 417.087318 472.267795 
L 417.306871 473.097303 
L 417.526424 404.101371 
L 417.745978 387.28562 
L 418.185084 541.56301 
L 418.404637 285.97132 
L 418.843743 462.990555 
L 419.063297 352.53959 
L 419.28285 407.260274 
L 419.502403 496.866179 
L 419.721956 429.396867 
L 419.941509 402.148774 
L 420.161062 526.192052 
L 420.380615 457.954403 
L 420.600169 457.469054 
L 420.819722 332.31362 
L 421.039275 448.081158 
L 421.258828 484.231006 
L 421.478381 482.094919 
L 421.697934 489.733432 
L 421.917488 427.506626 
L 422.137041 409.27372 
L 422.356594 538.354071 
L 422.576147 460.317161 
L 422.7957 477.50003 
L 423.015253 455.120008 
L 423.234806 368.58595 
L 423.45436 510.920575 
L 423.673913 465.632241 
L 423.893466 485.90928 
L 424.113019 456.313594 
L 424.332572 506.011835 
L 424.552125 438.440677 
L 424.771678 533.877617 
L 425.210785 389.312957 
L 425.430338 470.968627 
L 425.649891 454.333555 
L 425.869444 447.833462 
L 426.088997 506.306679 
L 426.308551 478.306374 
L 426.528104 417.748345 
L 426.747657 534.453915 
L 427.186763 418.9837 
L 427.406316 511.55041 
L 427.625869 481.62963 
L 427.845423 509.257399 
L 428.064976 400.443708 
L 428.284529 480.197553 
L 428.504082 506.404918 
L 428.723635 422.513483 
L 428.943188 510.292776 
L 429.162742 472.766524 
L 429.382295 485.683066 
L 429.821401 405.111241 
L 430.040954 474.239547 
L 430.260507 489.216645 
L 430.48006 279.858072 
L 430.919167 474.716393 
L 431.13872 517.373993 
L 431.358273 399.522478 
L 431.577826 487.162287 
L 431.797379 487.054732 
L 432.236486 463.276753 
L 432.456039 532.773194 
L 432.675592 400.057815 
L 432.895145 505.113208 
L 433.334251 448.052557 
L 433.553805 366.591978 
L 433.773358 453.285841 
L 433.992911 479.318197 
L 434.212464 490.271579 
L 434.432017 389.804189 
L 434.65157 407.096905 
L 434.871124 516.333043 
L 435.090677 503.260647 
L 435.31023 415.512816 
L 435.529783 529.478615 
L 435.749336 480.362805 
L 435.968889 526.655508 
L 436.188442 403.867528 
L 436.407996 376.690325 
L 436.627549 457.627333 
L 436.847102 396.861009 
L 437.066655 535.127089 
L 437.286208 463.474082 
L 437.505761 499.925247 
L 437.944868 392.140082 
L 438.164421 520.759399 
L 438.383974 314.900572 
L 438.603527 503.89874 
L 438.82308 457.569318 
L 439.042633 522.58892 
L 439.262187 453.06316 
L 439.48174 508.99011 
L 439.701293 517.130331 
L 440.140399 411.69412 
L 440.359952 329.273363 
L 440.579506 378.045342 
L 440.799059 201.749084 
L 441.018612 491.88418 
L 441.457718 353.337046 
L 441.677271 487.980783 
L 442.116378 421.963608 
L 442.335931 449.53298 
L 442.555484 420.728274 
L 442.775037 426.741152 
L 442.99459 427.749957 
L 443.214143 382.262279 
L 443.433697 505.523991 
L 443.65325 393.365492 
L 443.872803 471.884562 
L 444.092356 496.503085 
L 444.311909 354.34255 
L 444.531462 523.638976 
L 444.751015 331.731581 
L 445.190122 498.491281 
L 445.409675 402.920874 
L 445.629228 510.78807 
L 445.848781 448.181128 
L 446.068334 514.382871 
L 446.287888 367.853377 
L 446.507441 401.333648 
L 446.726994 470.467897 
L 446.946547 468.067594 
L 447.1661 415.717013 
L 447.385653 453.6994 
L 447.605206 433.698802 
L 447.82476 498.2072 
L 448.044313 507.699156 
L 448.263866 463.014698 
L 448.483419 375.996773 
L 448.702972 479.251428 
L 448.922525 344.158748 
L 449.142079 472.911711 
L 449.361632 488.114149 
L 449.581185 294.142532 
L 450.020291 500.574913 
L 450.239844 494.522425 
L 450.459397 382.16178 
L 450.678951 537.103337 
L 450.898504 508.229597 
L 451.118057 508.575542 
L 451.33761 483.104231 
L 451.557163 381.025315 
L 451.776716 452.171186 
L 451.996269 409.634428 
L 452.215823 512.793607 
L 452.435376 478.698622 
L 452.654929 468.452375 
L 452.874482 485.355013 
L 453.094035 420.510199 
L 453.313588 415.731229 
L 453.533142 554.127406 
L 453.752695 516.972122 
L 453.972248 439.852919 
L 454.191801 472.198608 
L 454.411354 298.606337 
L 454.630907 445.586259 
L 454.85046 438.201104 
L 455.070014 225.364034 
L 455.289567 456.704822 
L 455.50912 495.482169 
L 455.728673 379.279169 
L 455.948226 484.607136 
L 456.167779 503.471145 
L 456.387333 415.419789 
L 456.606886 413.722119 
L 456.826439 415.794309 
L 457.045992 512.464724 
L 457.265545 526.492368 
L 457.485098 464.856984 
L 457.704651 524.977594 
L 457.924205 287.082501 
L 458.363311 491.696217 
L 458.582864 506.691216 
L 458.802417 418.911541 
L 459.02197 488.33002 
L 459.241524 500.946886 
L 459.461077 498.255834 
L 459.68063 334.255761 
L 459.900183 498.380158 
L 460.339289 385.516468 
L 460.778396 471.544514 
L 460.997949 473.936469 
L 461.437055 366.219197 
L 462.095715 541.422454 
L 462.315268 406.737602 
L 462.534821 515.149947 
L 462.754374 421.475605 
L 462.973927 420.75504 
L 463.19348 469.12388 
L 463.413033 407.477708 
L 463.632587 468.236845 
L 463.85214 438.530286 
L 464.071693 246.354931 
L 464.291246 475.0905 
L 464.510799 448.496087 
L 464.730352 382.833106 
L 464.949906 387.232873 
L 465.169459 535.3576 
L 465.389012 510.052943 
L 465.608565 461.369037 
L 465.828118 440.789841 
L 466.047671 532.182261 
L 466.267224 354.949065 
L 466.706331 460.593556 
L 466.925884 530.20275 
L 467.145437 494.907958 
L 467.36499 485.9585 
L 467.584543 490.684321 
L 467.804097 396.107507 
L 468.02365 407.374447 
L 468.243203 470.099142 
L 468.462756 460.987794 
L 468.682309 431.505862 
L 468.901862 477.157899 
L 469.121415 480.218547 
L 469.340969 464.539214 
L 469.560522 503.035891 
L 469.780075 502.06697 
L 469.999628 425.001274 
L 470.219181 563.843496 
L 470.438734 461.735747 
L 470.658288 536.525291 
L 470.877841 453.538285 
L 471.097394 465.553054 
L 471.316947 471.129903 
L 471.5365 364.565921 
L 471.756053 429.918767 
L 471.975606 405.752417 
L 472.19516 501.70637 
L 472.634266 426.49821 
L 472.853819 521.782687 
L 473.073372 479.504009 
L 473.292925 476.879747 
L 473.512479 312.005252 
L 473.951585 524.651847 
L 474.171138 549.268993 
L 474.390691 462.703858 
L 474.610244 323.165573 
L 474.829797 483.146061 
L 475.049351 458.711995 
L 475.268904 467.728983 
L 475.488457 405.924731 
L 475.70801 423.037344 
L 475.927563 263.829748 
L 476.147116 505.148979 
L 476.366669 410.487545 
L 476.586223 492.303102 
L 476.805776 408.605616 
L 477.025329 496.415363 
L 477.244882 441.409485 
L 477.464435 485.466553 
L 477.903542 392.442015 
L 478.123095 500.79911 
L 478.342648 436.308497 
L 478.562201 464.905117 
L 478.781754 508.74595 
L 479.001307 418.100855 
L 479.22086 478.892118 
L 479.440414 425.689053 
L 479.659967 469.506729 
L 479.87952 410.537393 
L 480.099073 533.921957 
L 480.538179 458.317879 
L 480.757733 516.303214 
L 480.977286 469.936305 
L 481.196839 394.880119 
L 481.416392 487.693695 
L 481.635945 474.873884 
L 481.855498 509.124601 
L 482.075051 481.686048 
L 482.294605 481.640272 
L 482.514158 524.852353 
L 482.733711 526.741282 
L 482.953264 440.253246 
L 483.172817 428.69509 
L 483.611924 499.26349 
L 483.831477 530.982584 
L 484.05103 521.12379 
L 484.270583 473.798911 
L 484.490136 474.170098 
L 484.709689 461.696946 
L 484.929242 348.653119 
L 485.148796 498.987625 
L 485.368349 457.604051 
L 485.587902 387.118379 
L 485.807455 458.615268 
L 486.027008 448.209244 
L 486.246561 430.378077 
L 486.466115 451.564654 
L 486.685668 461.891169 
L 486.905221 397.365224 
L 487.124774 384.598314 
L 487.344327 395.479226 
L 487.56388 481.937676 
L 487.783433 336.099702 
L 488.002987 459.700495 
L 488.22254 469.707625 
L 488.661646 398.123551 
L 488.881199 500.814216 
L 489.100752 473.200782 
L 489.320306 472.599294 
L 489.539859 478.48169 
L 489.759412 480.436919 
L 490.198518 345.912262 
L 490.418071 409.585938 
L 490.637624 545.166481 
L 491.076731 402.992431 
L 491.296284 454.855602 
L 491.515837 441.777313 
L 491.73539 502.479028 
L 491.954943 506.978441 
L 492.174497 399.009174 
L 492.39405 406.973631 
L 492.613603 508.612286 
L 492.833156 283.566011 
L 493.052709 476.001819 
L 493.272262 507.409682 
L 493.491815 513.593626 
L 493.711369 307.339423 
L 493.930922 495.335739 
L 494.150475 513.791593 
L 494.370028 496.320285 
L 494.589581 450.385505 
L 494.809134 450.724214 
L 495.028688 540.933525 
L 495.248241 425.256765 
L 495.467794 418.487931 
L 495.687347 504.65732 
L 495.9069 490.795464 
L 496.126453 511.413198 
L 496.346006 438.899628 
L 496.56556 438.052936 
L 496.785113 438.797571 
L 497.224219 507.192555 
L 497.443772 500.287386 
L 497.663325 509.948831 
L 497.882879 504.76114 
L 498.102432 447.305388 
L 498.321985 357.021425 
L 498.541538 494.068244 
L 498.761091 467.294664 
L 498.980644 329.872963 
L 499.419751 491.984741 
L 499.639304 403.922184 
L 499.858857 525.803337 
L 500.07841 490.383097 
L 500.297963 477.011319 
L 500.517516 396.248672 
L 500.956623 464.579479 
L 501.176176 475.265539 
L 501.395729 507.962167 
L 501.615282 210.599913 
L 501.834835 431.009633 
L 502.054388 432.756957 
L 502.273942 456.713092 
L 502.493495 501.320975 
L 502.932601 351.065439 
L 503.152154 466.51722 
L 503.371707 302.817666 
L 503.59126 503.765887 
L 503.810814 415.023096 
L 504.030367 422.137478 
L 504.24992 423.684246 
L 504.689026 497.870616 
L 505.128133 457.220885 
L 505.347686 525.978556 
L 505.567239 401.548715 
L 506.006345 489.512826 
L 506.225898 447.005373 
L 506.445451 452.704272 
L 506.665005 431.818803 
L 506.884558 485.09944 
L 507.543217 459.9536 
L 507.76277 512.91565 
L 507.982324 442.527058 
L 508.201877 457.857482 
L 508.42143 389.939443 
L 508.640983 419.344467 
L 509.080089 534.02058 
L 509.738749 356.701351 
L 509.958302 455.23529 
L 510.177855 321.900126 
L 510.397408 501.124606 
L 510.616961 543.650495 
L 510.836515 420.425283 
L 511.056068 489.089544 
L 511.275621 456.582717 
L 511.495174 479.231152 
L 511.714727 373.434622 
L 511.93428 513.085795 
L 512.153833 412.776529 
L 512.59294 555.769742 
L 513.032046 456.075497 
L 513.251599 458.182355 
L 513.471152 300.575885 
L 513.690706 423.591724 
L 513.910259 440.876916 
L 514.129812 439.319575 
L 514.349365 532.164492 
L 514.568918 548.204246 
L 514.788471 481.070227 
L 515.008024 520.620091 
L 515.227578 465.256128 
L 515.447131 494.697161 
L 515.666684 429.113555 
L 515.886237 496.185699 
L 516.10579 431.112337 
L 516.325343 510.216436 
L 516.544897 430.046137 
L 516.76445 507.96052 
L 516.984003 481.423705 
L 517.203556 494.887478 
L 517.423109 425.255714 
L 517.642662 549.92782 
L 517.862215 441.662471 
L 518.081769 482.272269 
L 518.301322 424.839464 
L 518.520875 507.62997 
L 518.959981 495.744846 
L 519.179534 474.599402 
L 519.399088 414.482885 
L 519.618641 534.11419 
L 519.838194 457.401659 
L 520.057747 479.069583 
L 520.2773 469.058854 
L 520.496853 449.380247 
L 520.716406 397.782693 
L 521.155513 440.65533 
L 521.375066 515.772829 
L 521.594619 398.797162 
L 521.814172 408.09745 
L 522.033725 408.503609 
L 522.253279 478.229257 
L 522.472832 377.180758 
L 522.692385 413.030124 
L 522.911938 418.880631 
L 523.131491 508.062707 
L 523.351044 400.133428 
L 523.570597 524.869643 
L 524.009704 384.01022 
L 524.229257 521.802651 
L 524.44881 513.274521 
L 524.668363 460.087616 
L 524.887916 510.644617 
L 525.10747 439.715353 
L 525.327023 523.175074 
L 525.766129 300.271751 
L 525.985682 498.453045 
L 526.205235 304.672746 
L 526.424788 450.972584 
L 526.644342 459.763415 
L 526.863895 489.271802 
L 527.083448 440.805269 
L 527.303001 131.956182 
L 527.522554 486.534403 
L 527.96166 495.43194 
L 528.181214 410.581947 
L 528.400767 380.538573 
L 528.62032 534.966564 
L 528.839873 467.593085 
L 529.059426 493.089219 
L 529.278979 476.777483 
L 529.498533 523.421555 
L 529.718086 411.991811 
L 529.937639 489.13412 
L 530.157192 526.248047 
L 530.376745 503.682635 
L 530.815851 433.400629 
L 531.035405 490.606875 
L 531.254958 430.453813 
L 531.474511 411.626826 
L 531.694064 493.211025 
L 531.913617 438.977489 
L 532.13317 499.655166 
L 532.352724 475.919397 
L 532.572277 419.275616 
L 533.011383 501.226194 
L 533.230936 381.385699 
L 533.670042 515.101948 
L 533.889596 498.232892 
L 534.109149 507.578845 
L 534.328702 523.014334 
L 534.548255 387.619484 
L 534.767808 526.089956 
L 534.987361 371.222053 
L 535.206915 490.386059 
L 535.426468 494.913113 
L 535.646021 518.685493 
L 535.865574 495.218516 
L 536.085127 503.249405 
L 536.30468 528.276695 
L 536.743787 422.830539 
L 536.96334 464.334136 
L 537.182893 462.688121 
L 537.402446 487.169497 
L 537.621999 456.792366 
L 537.841552 505.261084 
L 538.061106 467.36823 
L 538.280659 481.103774 
L 538.500212 571.976266 
L 538.939318 455.412212 
L 539.158871 415.785277 
L 539.378424 349.03577 
L 539.597978 405.178076 
L 540.256637 472.500163 
L 540.47619 436.116061 
L 540.695743 518.710369 
L 540.915297 522.906335 
L 541.13485 415.291595 
L 541.354403 455.005061 
L 541.573956 429.075287 
L 541.793509 492.719382 
L 542.013062 494.161928 
L 542.232615 452.87852 
L 542.452169 499.679883 
L 542.671722 454.173753 
L 542.891275 506.995262 
L 543.110828 434.458051 
L 543.330381 510.697543 
L 543.549934 468.778221 
L 543.769488 485.845692 
L 543.989041 517.568684 
L 544.208594 419.151742 
L 544.428147 256.158136 
L 544.6477 487.951389 
L 544.867253 364.049225 
L 545.30636 520.948112 
L 545.525913 470.57229 
L 545.745466 472.37904 
L 545.745466 472.37904 
" style="fill:none;stroke:#96c69a;stroke-linecap:round;stroke-width:3;"/>
   </g>
   <g id="line2d_2"/>
   <g id="patch_3">
    <path d="M 84.914375 603.86 
L 84.914375 109.484571 
" style="fill:none;stroke:#262626;stroke-linecap:square;stroke-linejoin:miter;stroke-width:2.5;"/>
   </g>
   <g id="patch_4">
    <path d="M 84.914375 603.86 
L 567.689804 603.86 
" style="fill:none;stroke:#262626;stroke-linecap:square;stroke-linejoin:miter;stroke-width:2.5;"/>
   </g>
   <g id="legend_1">
    <g id="patch_5">
     <path d="M 514.774179 598.86 
L 560.689804 598.86 
Q 562.689804 598.86 562.689804 596.86 
L 562.689804 554.954375 
Q 562.689804 552.954375 560.689804 552.954375 
L 514.774179 552.954375 
Q 512.774179 552.954375 512.774179 554.954375 
L 512.774179 596.86 
Q 512.774179 598.86 514.774179 598.86 
z
" style="fill:#ffffff;opacity:0.8;stroke:#cccccc;stroke-linejoin:miter;stroke-width:2;"/>
    </g>
    <g id="text_13">
     <!-- $n_\tau$ -->
     <g style="fill:#262626;" transform="translate(524.651991 575.190625)scale(0.24 -0.24)">
      <defs>
       <path d="M 3566 2113 
L 3156 0 
L 2578 0 
L 2988 2091 
Q 3016 2238 3031 2350 
Q 3047 2463 3047 2528 
Q 3047 2791 2881 2937 
Q 2716 3084 2419 3084 
Q 1956 3084 1622 2776 
Q 1288 2469 1184 1941 
L 800 0 
L 225 0 
L 903 3500 
L 1478 3500 
L 1363 2950 
Q 1603 3253 1940 3418 
Q 2278 3584 2650 3584 
Q 3113 3584 3367 3334 
Q 3622 3084 3622 2631 
Q 3622 2519 3608 2391 
Q 3594 2263 3566 2113 
z
" id="DejaVuSans-Oblique-6e" transform="scale(0.015625)"/>
       <path d="M 2103 638 
Q 2188 488 2525 488 
L 2800 488 
L 2706 0 
L 2363 0 
Q 1800 0 1600 300 
Q 1403 606 1534 1269 
L 1856 2925 
L 541 2925 
L 653 3500 
L 3881 3500 
L 3769 2925 
L 2444 2925 
L 2113 1234 
Q 2025 781 2103 638 
z
" id="DejaVuSans-Oblique-3c4" transform="scale(0.015625)"/>
      </defs>
      <use xlink:href="#DejaVuSans-Oblique-6e"/>
      <use transform="translate(63.378906 -16.40625)scale(0.7)" xlink:href="#DejaVuSans-Oblique-3c4"/>
     </g>
    </g>
    <g id="line2d_3">
     <path d="M 516.774179 589.280313 
L 536.774179 589.280313 
" style="fill:none;stroke:#96c69a;stroke-linecap:round;stroke-width:3;"/>
    </g>
    <g id="line2d_4"/>
    <g id="text_14">
     <!-- 80 -->
     <g style="fill:#262626;" transform="translate(544.774179 592.780313)scale(0.1 -0.1)">
      <defs>
       <path d="M 2228 2088 
Q 1891 2088 1709 1903 
Q 1528 1719 1528 1375 
Q 1528 1031 1709 848 
Q 1891 666 2228 666 
Q 2563 666 2741 848 
Q 2919 1031 2919 1375 
Q 2919 1722 2741 1905 
Q 2563 2088 2228 2088 
z
M 1350 2484 
Q 925 2613 709 2878 
Q 494 3144 494 3541 
Q 494 4131 934 4440 
Q 1375 4750 2228 4750 
Q 3075 4750 3515 4442 
Q 3956 4134 3956 3541 
Q 3956 3144 3739 2878 
Q 3522 2613 3097 2484 
Q 3572 2353 3814 2058 
Q 4056 1763 4056 1313 
Q 4056 619 3595 264 
Q 3134 -91 2228 -91 
Q 1319 -91 855 264 
Q 391 619 391 1313 
Q 391 1763 633 2058 
Q 875 2353 1350 2484 
z
M 1631 3419 
Q 1631 3141 1786 2991 
Q 1941 2841 2228 2841 
Q 2509 2841 2662 2991 
Q 2816 3141 2816 3419 
Q 2816 3697 2662 3845 
Q 2509 3994 2228 3994 
Q 1941 3994 1786 3844 
Q 1631 3694 1631 3419 
z
" id="DejaVuSans-Bold-38" transform="scale(0.015625)"/>
       <path d="M 2944 2338 
Q 2944 3213 2780 3570 
Q 2616 3928 2228 3928 
Q 1841 3928 1675 3570 
Q 1509 3213 1509 2338 
Q 1509 1453 1675 1090 
Q 1841 728 2228 728 
Q 2613 728 2778 1090 
Q 2944 1453 2944 2338 
z
M 4147 2328 
Q 4147 1169 3647 539 
Q 3147 -91 2228 -91 
Q 1306 -91 806 539 
Q 306 1169 306 2328 
Q 306 3491 806 4120 
Q 1306 4750 2228 4750 
Q 3147 4750 3647 4120 
Q 4147 3491 4147 2328 
z
" id="DejaVuSans-Bold-30" transform="scale(0.015625)"/>
      </defs>
      <use xlink:href="#DejaVuSans-Bold-38"/>
      <use x="69.580078" xlink:href="#DejaVuSans-Bold-30"/>
     </g>
    </g>
   </g>
  </g>
  <g id="axes_2">
   <g id="patch_6">
    <path d="M 84.914375 92.437143 
L 567.689804 92.437143 
L 567.689804 7.2 
L 84.914375 7.2 
z
" style="fill:none;"/>
   </g>
   <g id="matplotlib.axis_3">
    <g id="xtick_7"/>
    <g id="xtick_8"/>
    <g id="xtick_9"/>
    <g id="xtick_10"/>
    <g id="xtick_11"/>
    <g id="xtick_12"/>
   </g>
   <g id="matplotlib.axis_4">
    <g id="ytick_5">
     <g id="text_15">
      <!-- 0 -->
      <g style="fill:#262626;" transform="translate(55.416875 100.795424)scale(0.22 -0.22)">
       <use xlink:href="#DejaVuSans-30"/>
      </g>
     </g>
    </g>
    <g id="ytick_6">
     <g id="text_16">
      <!-- 100 -->
      <g style="fill:#262626;" transform="translate(27.421875 48.082287)scale(0.22 -0.22)">
       <use xlink:href="#DejaVuSans-31"/>
       <use x="63.623047" xlink:href="#DejaVuSans-30"/>
       <use x="127.246094" xlink:href="#DejaVuSans-30"/>
      </g>
     </g>
    </g>
   </g>
   <g id="patch_7">
    <path clip-path="url(#pc65785e6a3)" d="M 106.858713 92.437143 
L 140.619232 92.437143 
L 140.619232 11.258912 
L 106.858713 11.258912 
z
" style="fill:#96c69a;fill-opacity:0.5;stroke:#ffffff;stroke-linejoin:miter;stroke-width:2;"/>
   </g>
   <g id="patch_8">
    <path clip-path="url(#pc65785e6a3)" d="M 140.619232 92.437143 
L 174.379752 92.437143 
L 174.379752 11.258912 
L 140.619232 11.258912 
z
" style="fill:#96c69a;fill-opacity:0.5;stroke:#ffffff;stroke-linejoin:miter;stroke-width:2;"/>
   </g>
   <g id="patch_9">
    <path clip-path="url(#pc65785e6a3)" d="M 174.379752 92.437143 
L 208.140271 92.437143 
L 208.140271 11.258912 
L 174.379752 11.258912 
z
" style="fill:#96c69a;fill-opacity:0.5;stroke:#ffffff;stroke-linejoin:miter;stroke-width:2;"/>
   </g>
   <g id="patch_10">
    <path clip-path="url(#pc65785e6a3)" d="M 208.140271 92.437143 
L 241.900791 92.437143 
L 241.900791 11.258912 
L 208.140271 11.258912 
z
" style="fill:#96c69a;fill-opacity:0.5;stroke:#ffffff;stroke-linejoin:miter;stroke-width:2;"/>
   </g>
   <g id="patch_11">
    <path clip-path="url(#pc65785e6a3)" d="M 241.900791 92.437143 
L 275.66131 92.437143 
L 275.66131 11.786043 
L 241.900791 11.786043 
z
" style="fill:#96c69a;fill-opacity:0.5;stroke:#ffffff;stroke-linejoin:miter;stroke-width:2;"/>
   </g>
   <g id="patch_12">
    <path clip-path="url(#pc65785e6a3)" d="M 275.66131 92.437143 
L 309.42183 92.437143 
L 309.42183 11.258912 
L 275.66131 11.258912 
z
" style="fill:#96c69a;fill-opacity:0.5;stroke:#ffffff;stroke-linejoin:miter;stroke-width:2;"/>
   </g>
   <g id="patch_13">
    <path clip-path="url(#pc65785e6a3)" d="M 309.42183 92.437143 
L 343.182349 92.437143 
L 343.182349 11.258912 
L 309.42183 11.258912 
z
" style="fill:#96c69a;fill-opacity:0.5;stroke:#ffffff;stroke-linejoin:miter;stroke-width:2;"/>
   </g>
   <g id="patch_14">
    <path clip-path="url(#pc65785e6a3)" d="M 343.182349 92.437143 
L 376.942869 92.437143 
L 376.942869 11.258912 
L 343.182349 11.258912 
z
" style="fill:#96c69a;fill-opacity:0.5;stroke:#ffffff;stroke-linejoin:miter;stroke-width:2;"/>
   </g>
   <g id="patch_15">
    <path clip-path="url(#pc65785e6a3)" d="M 376.942869 92.437143 
L 410.703388 92.437143 
L 410.703388 11.786043 
L 376.942869 11.786043 
z
" style="fill:#96c69a;fill-opacity:0.5;stroke:#ffffff;stroke-linejoin:miter;stroke-width:2;"/>
   </g>
   <g id="patch_16">
    <path clip-path="url(#pc65785e6a3)" d="M 410.703388 92.437143 
L 444.463907 92.437143 
L 444.463907 11.258912 
L 410.703388 11.258912 
z
" style="fill:#96c69a;fill-opacity:0.5;stroke:#ffffff;stroke-linejoin:miter;stroke-width:2;"/>
   </g>
   <g id="patch_17">
    <path clip-path="url(#pc65785e6a3)" d="M 444.463907 92.437143 
L 478.224427 92.437143 
L 478.224427 11.258912 
L 444.463907 11.258912 
z
" style="fill:#96c69a;fill-opacity:0.5;stroke:#ffffff;stroke-linejoin:miter;stroke-width:2;"/>
   </g>
   <g id="patch_18">
    <path clip-path="url(#pc65785e6a3)" d="M 478.224427 92.437143 
L 511.984946 92.437143 
L 511.984946 11.258912 
L 478.224427 11.258912 
z
" style="fill:#96c69a;fill-opacity:0.5;stroke:#ffffff;stroke-linejoin:miter;stroke-width:2;"/>
   </g>
   <g id="patch_19">
    <path clip-path="url(#pc65785e6a3)" d="M 511.984946 92.437143 
L 545.745466 92.437143 
L 545.745466 11.258912 
L 511.984946 11.258912 
z
" style="fill:#96c69a;fill-opacity:0.5;stroke:#ffffff;stroke-linejoin:miter;stroke-width:2;"/>
   </g>
   <g id="patch_20">
    <path d="M 84.914375 92.437143 
L 84.914375 7.2 
" style="fill:none;stroke:#262626;stroke-linecap:square;stroke-linejoin:miter;stroke-width:2.5;"/>
   </g>
   <g id="patch_21">
    <path d="M 84.914375 92.437143 
L 567.689804 92.437143 
" style="fill:none;stroke:#262626;stroke-linecap:square;stroke-linejoin:miter;stroke-width:2.5;"/>
   </g>
  </g>
  <g id="axes_3">
   <g id="patch_22">
    <path d="M 584.337232 603.86 
L 667.574375 603.86 
L 667.574375 109.484571 
L 584.337232 109.484571 
z
" style="fill:none;"/>
   </g>
   <g id="matplotlib.axis_5">
    <g id="xtick_13">
     <g id="text_17">
      <!-- 0 -->
      <g style="fill:#262626;" transform="translate(577.338482 636.076563)scale(0.22 -0.22)">
       <use xlink:href="#DejaVuSans-30"/>
      </g>
     </g>
    </g>
    <g id="xtick_14">
     <g id="text_18">
      <!-- 200 -->
      <g style="fill:#262626;" transform="translate(641.06007 636.076563)scale(0.22 -0.22)">
       <use xlink:href="#DejaVuSans-32"/>
       <use x="63.623047" xlink:href="#DejaVuSans-30"/>
       <use x="127.246094" xlink:href="#DejaVuSans-30"/>
      </g>
     </g>
    </g>
   </g>
   <g id="matplotlib.axis_6">
    <g id="ytick_7"/>
    <g id="ytick_8"/>
    <g id="ytick_9"/>
    <g id="ytick_10"/>
   </g>
   <g id="patch_23">
    <path clip-path="url(#p1509a7e93c)" d="M 584.337232 581.38839 
L 585.114423 581.38839 
L 585.114423 569.864487 
L 584.337232 569.864487 
z
" style="fill:#96c69a;fill-opacity:0.5;stroke:#ffffff;stroke-linejoin:miter;stroke-width:1.15239;"/>
   </g>
   <g id="patch_24">
    <path clip-path="url(#p1509a7e93c)" d="M 584.337232 569.864487 
L 586.280209 569.864487 
L 586.280209 558.340584 
L 584.337232 558.340584 
z
" style="fill:#96c69a;fill-opacity:0.5;stroke:#ffffff;stroke-linejoin:miter;stroke-width:1.15239;"/>
   </g>
   <g id="patch_25">
    <path clip-path="url(#p1509a7e93c)" d="M 584.337232 558.340584 
L 590.943355 558.340584 
L 590.943355 546.816681 
L 584.337232 546.816681 
z
" style="fill:#96c69a;fill-opacity:0.5;stroke:#ffffff;stroke-linejoin:miter;stroke-width:1.15239;"/>
   </g>
   <g id="patch_26">
    <path clip-path="url(#p1509a7e93c)" d="M 584.337232 546.816681 
L 598.715263 546.816681 
L 598.715263 535.292779 
L 584.337232 535.292779 
z
" style="fill:#96c69a;fill-opacity:0.5;stroke:#ffffff;stroke-linejoin:miter;stroke-width:1.15239;"/>
   </g>
   <g id="patch_27">
    <path clip-path="url(#p1509a7e93c)" d="M 584.337232 535.292779 
L 618.145035 535.292779 
L 618.145035 523.768876 
L 584.337232 523.768876 
z
" style="fill:#96c69a;fill-opacity:0.5;stroke:#ffffff;stroke-linejoin:miter;stroke-width:1.15239;"/>
   </g>
   <g id="patch_28">
    <path clip-path="url(#p1509a7e93c)" d="M 584.337232 523.768876 
L 629.802898 523.768876 
L 629.802898 512.244973 
L 584.337232 512.244973 
z
" style="fill:#96c69a;fill-opacity:0.5;stroke:#ffffff;stroke-linejoin:miter;stroke-width:1.15239;"/>
   </g>
   <g id="patch_29">
    <path clip-path="url(#p1509a7e93c)" d="M 584.337232 512.244973 
L 648.844075 512.244973 
L 648.844075 500.72107 
L 584.337232 500.72107 
z
" style="fill:#96c69a;fill-opacity:0.5;stroke:#ffffff;stroke-linejoin:miter;stroke-width:1.15239;"/>
   </g>
   <g id="patch_30">
    <path clip-path="url(#p1509a7e93c)" d="M 584.337232 500.72107 
L 650.787052 500.72107 
L 650.787052 489.197167 
L 584.337232 489.197167 
z
" style="fill:#96c69a;fill-opacity:0.5;stroke:#ffffff;stroke-linejoin:miter;stroke-width:1.15239;"/>
   </g>
   <g id="patch_31">
    <path clip-path="url(#p1509a7e93c)" d="M 584.337232 489.197167 
L 651.952838 489.197167 
L 651.952838 477.673265 
L 584.337232 477.673265 
z
" style="fill:#96c69a;fill-opacity:0.5;stroke:#ffffff;stroke-linejoin:miter;stroke-width:1.15239;"/>
   </g>
   <g id="patch_32">
    <path clip-path="url(#p1509a7e93c)" d="M 584.337232 477.673265 
L 663.610702 477.673265 
L 663.610702 466.149362 
L 584.337232 466.149362 
z
" style="fill:#96c69a;fill-opacity:0.5;stroke:#ffffff;stroke-linejoin:miter;stroke-width:1.15239;"/>
   </g>
   <g id="patch_33">
    <path clip-path="url(#p1509a7e93c)" d="M 584.337232 466.149362 
L 653.50722 466.149362 
L 653.50722 454.625459 
L 584.337232 454.625459 
z
" style="fill:#96c69a;fill-opacity:0.5;stroke:#ffffff;stroke-linejoin:miter;stroke-width:1.15239;"/>
   </g>
   <g id="patch_34">
    <path clip-path="url(#p1509a7e93c)" d="M 584.337232 454.625459 
L 637.963403 454.625459 
L 637.963403 443.101556 
L 584.337232 443.101556 
z
" style="fill:#96c69a;fill-opacity:0.5;stroke:#ffffff;stroke-linejoin:miter;stroke-width:1.15239;"/>
   </g>
   <g id="patch_35">
    <path clip-path="url(#p1509a7e93c)" d="M 584.337232 443.101556 
L 630.191494 443.101556 
L 630.191494 431.577654 
L 584.337232 431.577654 
z
" style="fill:#96c69a;fill-opacity:0.5;stroke:#ffffff;stroke-linejoin:miter;stroke-width:1.15239;"/>
   </g>
   <g id="patch_36">
    <path clip-path="url(#p1509a7e93c)" d="M 584.337232 431.577654 
L 628.637112 431.577654 
L 628.637112 420.053751 
L 584.337232 420.053751 
z
" style="fill:#96c69a;fill-opacity:0.5;stroke:#ffffff;stroke-linejoin:miter;stroke-width:1.15239;"/>
   </g>
   <g id="patch_37">
    <path clip-path="url(#p1509a7e93c)" d="M 584.337232 420.053751 
L 622.808181 420.053751 
L 622.808181 408.529848 
L 584.337232 408.529848 
z
" style="fill:#96c69a;fill-opacity:0.5;stroke:#ffffff;stroke-linejoin:miter;stroke-width:1.15239;"/>
   </g>
   <g id="patch_38">
    <path clip-path="url(#p1509a7e93c)" d="M 584.337232 408.529848 
L 620.088012 408.529848 
L 620.088012 397.005945 
L 584.337232 397.005945 
z
" style="fill:#96c69a;fill-opacity:0.5;stroke:#ffffff;stroke-linejoin:miter;stroke-width:1.15239;"/>
   </g>
   <g id="patch_39">
    <path clip-path="url(#p1509a7e93c)" d="M 584.337232 397.005945 
L 608.430149 397.005945 
L 608.430149 385.482043 
L 584.337232 385.482043 
z
" style="fill:#96c69a;fill-opacity:0.5;stroke:#ffffff;stroke-linejoin:miter;stroke-width:1.15239;"/>
   </g>
   <g id="patch_40">
    <path clip-path="url(#p1509a7e93c)" d="M 584.337232 385.482043 
L 609.595936 385.482043 
L 609.595936 373.95814 
L 584.337232 373.95814 
z
" style="fill:#96c69a;fill-opacity:0.5;stroke:#ffffff;stroke-linejoin:miter;stroke-width:1.15239;"/>
   </g>
   <g id="patch_41">
    <path clip-path="url(#p1509a7e93c)" d="M 584.337232 373.95814 
L 599.103859 373.95814 
L 599.103859 362.434237 
L 584.337232 362.434237 
z
" style="fill:#96c69a;fill-opacity:0.5;stroke:#ffffff;stroke-linejoin:miter;stroke-width:1.15239;"/>
   </g>
   <g id="patch_42">
    <path clip-path="url(#p1509a7e93c)" d="M 584.337232 362.434237 
L 596.383691 362.434237 
L 596.383691 350.910334 
L 584.337232 350.910334 
z
" style="fill:#96c69a;fill-opacity:0.5;stroke:#ffffff;stroke-linejoin:miter;stroke-width:1.15239;"/>
   </g>
   <g id="patch_43">
    <path clip-path="url(#p1509a7e93c)" d="M 584.337232 350.910334 
L 589.777568 350.910334 
L 589.777568 339.386432 
L 584.337232 339.386432 
z
" style="fill:#96c69a;fill-opacity:0.5;stroke:#ffffff;stroke-linejoin:miter;stroke-width:1.15239;"/>
   </g>
   <g id="patch_44">
    <path clip-path="url(#p1509a7e93c)" d="M 584.337232 339.386432 
L 590.943355 339.386432 
L 590.943355 327.862529 
L 584.337232 327.862529 
z
" style="fill:#96c69a;fill-opacity:0.5;stroke:#ffffff;stroke-linejoin:miter;stroke-width:1.15239;"/>
   </g>
   <g id="patch_45">
    <path clip-path="url(#p1509a7e93c)" d="M 584.337232 327.862529 
L 589.000377 327.862529 
L 589.000377 316.338626 
L 584.337232 316.338626 
z
" style="fill:#96c69a;fill-opacity:0.5;stroke:#ffffff;stroke-linejoin:miter;stroke-width:1.15239;"/>
   </g>
   <g id="patch_46">
    <path clip-path="url(#p1509a7e93c)" d="M 584.337232 316.338626 
L 588.223187 316.338626 
L 588.223187 304.814723 
L 584.337232 304.814723 
z
" style="fill:#96c69a;fill-opacity:0.5;stroke:#ffffff;stroke-linejoin:miter;stroke-width:1.15239;"/>
   </g>
   <g id="patch_47">
    <path clip-path="url(#p1509a7e93c)" d="M 584.337232 304.814723 
L 588.611782 304.814723 
L 588.611782 293.290821 
L 584.337232 293.290821 
z
" style="fill:#96c69a;fill-opacity:0.5;stroke:#ffffff;stroke-linejoin:miter;stroke-width:1.15239;"/>
   </g>
   <g id="patch_48">
    <path clip-path="url(#p1509a7e93c)" d="M 584.337232 293.290821 
L 586.280209 293.290821 
L 586.280209 281.766918 
L 584.337232 281.766918 
z
" style="fill:#96c69a;fill-opacity:0.5;stroke:#ffffff;stroke-linejoin:miter;stroke-width:1.15239;"/>
   </g>
   <g id="patch_49">
    <path clip-path="url(#p1509a7e93c)" d="M 584.337232 281.766918 
L 585.114423 281.766918 
L 585.114423 270.243015 
L 584.337232 270.243015 
z
" style="fill:#96c69a;fill-opacity:0.5;stroke:#ffffff;stroke-linejoin:miter;stroke-width:1.15239;"/>
   </g>
   <g id="patch_50">
    <path clip-path="url(#p1509a7e93c)" d="M 584.337232 270.243015 
L 585.503018 270.243015 
L 585.503018 258.719112 
L 584.337232 258.719112 
z
" style="fill:#96c69a;fill-opacity:0.5;stroke:#ffffff;stroke-linejoin:miter;stroke-width:1.15239;"/>
   </g>
   <g id="patch_51">
    <path clip-path="url(#p1509a7e93c)" d="M 584.337232 258.719112 
L 584.725828 258.719112 
L 584.725828 247.195209 
L 584.337232 247.195209 
z
" style="fill:#96c69a;fill-opacity:0.5;stroke:#ffffff;stroke-linejoin:miter;stroke-width:1.15239;"/>
   </g>
   <g id="patch_52">
    <path clip-path="url(#p1509a7e93c)" d="M 584.337232 247.195209 
L 585.114423 247.195209 
L 585.114423 235.671307 
L 584.337232 235.671307 
z
" style="fill:#96c69a;fill-opacity:0.5;stroke:#ffffff;stroke-linejoin:miter;stroke-width:1.15239;"/>
   </g>
   <g id="patch_53">
    <path clip-path="url(#p1509a7e93c)" d="M 584.337232 235.671307 
L 585.503018 235.671307 
L 585.503018 224.147404 
L 584.337232 224.147404 
z
" style="fill:#96c69a;fill-opacity:0.5;stroke:#ffffff;stroke-linejoin:miter;stroke-width:1.15239;"/>
   </g>
   <g id="patch_54">
    <path clip-path="url(#p1509a7e93c)" d="M 584.337232 224.147404 
L 584.725828 224.147404 
L 584.725828 212.623501 
L 584.337232 212.623501 
z
" style="fill:#96c69a;fill-opacity:0.5;stroke:#ffffff;stroke-linejoin:miter;stroke-width:1.15239;"/>
   </g>
   <g id="patch_55">
    <path clip-path="url(#p1509a7e93c)" d="M 584.337232 212.623501 
L 585.114423 212.623501 
L 585.114423 201.099598 
L 584.337232 201.099598 
z
" style="fill:#96c69a;fill-opacity:0.5;stroke:#ffffff;stroke-linejoin:miter;stroke-width:1.15239;"/>
   </g>
   <g id="patch_56">
    <path clip-path="url(#p1509a7e93c)" d="M 584.337232 201.099598 
L 584.337232 201.099598 
L 584.337232 189.575696 
L 584.337232 189.575696 
z
" style="fill:#96c69a;fill-opacity:0.5;stroke:#ffffff;stroke-linejoin:miter;stroke-width:1.15239;"/>
   </g>
   <g id="patch_57">
    <path clip-path="url(#p1509a7e93c)" d="M 584.337232 189.575696 
L 584.725828 189.575696 
L 584.725828 178.051793 
L 584.337232 178.051793 
z
" style="fill:#96c69a;fill-opacity:0.5;stroke:#ffffff;stroke-linejoin:miter;stroke-width:1.15239;"/>
   </g>
   <g id="patch_58">
    <path clip-path="url(#p1509a7e93c)" d="M 584.337232 178.051793 
L 584.337232 178.051793 
L 584.337232 166.52789 
L 584.337232 166.52789 
z
" style="fill:#96c69a;fill-opacity:0.5;stroke:#ffffff;stroke-linejoin:miter;stroke-width:1.15239;"/>
   </g>
   <g id="patch_59">
    <path clip-path="url(#p1509a7e93c)" d="M 584.337232 166.52789 
L 584.337232 166.52789 
L 584.337232 155.003987 
L 584.337232 155.003987 
z
" style="fill:#96c69a;fill-opacity:0.5;stroke:#ffffff;stroke-linejoin:miter;stroke-width:1.15239;"/>
   </g>
   <g id="patch_60">
    <path clip-path="url(#p1509a7e93c)" d="M 584.337232 155.003987 
L 584.337232 155.003987 
L 584.337232 143.480085 
L 584.337232 143.480085 
z
" style="fill:#96c69a;fill-opacity:0.5;stroke:#ffffff;stroke-linejoin:miter;stroke-width:1.15239;"/>
   </g>
   <g id="patch_61">
    <path clip-path="url(#p1509a7e93c)" d="M 584.337232 143.480085 
L 584.725828 143.480085 
L 584.725828 131.956182 
L 584.337232 131.956182 
z
" style="fill:#96c69a;fill-opacity:0.5;stroke:#ffffff;stroke-linejoin:miter;stroke-width:1.15239;"/>
   </g>
   <g id="patch_62">
    <path d="M 584.337232 603.86 
L 584.337232 109.484571 
" style="fill:none;stroke:#262626;stroke-linecap:square;stroke-linejoin:miter;stroke-width:2.5;"/>
   </g>
   <g id="patch_63">
    <path d="M 584.337232 603.86 
L 667.574375 603.86 
" style="fill:none;stroke:#262626;stroke-linecap:square;stroke-linejoin:miter;stroke-width:2.5;"/>
   </g>
  </g>
 </g>
 <defs>
  <clipPath id="p80366dbaef">
   <rect height="494.375429" width="482.775429" x="84.914375" y="109.484571"/>
  </clipPath>
  <clipPath id="pc65785e6a3">
   <rect height="85.237143" width="482.775429" x="84.914375" y="7.2"/>
  </clipPath>
  <clipPath id="p1509a7e93c">
   <rect height="494.375429" width="83.237143" x="584.337232" y="109.484571"/>
  </clipPath>
 </defs>
</svg>
