<?xml version="1.0" encoding="utf-8" standalone="no"?>
<!DOCTYPE svg PUBLIC "-//W3C//DTD SVG 1.1//EN"
  "http://www.w3.org/Graphics/SVG/1.1/DTD/svg11.dtd">
<svg height="675.079375pt" version="1.1" viewBox="0 0 674.774375 675.079375" width="674.774375pt" xmlns="http://www.w3.org/2000/svg" xmlns:xlink="http://www.w3.org/1999/xlink">
 <metadata>
  <rdf:RDF xmlns:cc="http://creativecommons.org/ns#" xmlns:dc="http://purl.org/dc/elements/1.1/" xmlns:rdf="http://www.w3.org/1999/02/22-rdf-syntax-ns#">
   <cc:Work>
    <dc:type rdf:resource="http://purl.org/dc/dcmitype/StillImage"/>
    <dc:date>2021-07-16T21:44:01.251395</dc:date>
    <dc:format>image/svg+xml</dc:format>
    <dc:creator>
     <cc:Agent>
      <dc:title>Matplotlib v3.4.2, https://matplotlib.org/</dc:title>
     </cc:Agent>
    </dc:creator>
   </cc:Work>
  </rdf:RDF>
 </metadata>
 <defs>
  <style type="text/css">*{stroke-linecap:butt;stroke-linejoin:round;}</style>
 </defs>
 <g id="figure_1">
  <g id="patch_1">
   <path d="M 0 675.079375 
L 674.774375 675.079375 
L 674.774375 0 
L 0 0 
z
" style="fill:#ffffff;"/>
  </g>
  <g id="axes_1">
   <g id="patch_2">
    <path d="M 84.914375 603.86 
L 567.689804 603.86 
L 567.689804 109.484571 
L 84.914375 109.484571 
z
" style="fill:none;"/>
   </g>
   <g id="matplotlib.axis_1">
    <g id="xtick_1">
     <g id="text_1">
      <!-- 0 -->
      <g style="fill:#262626;" transform="translate(99.64041 636.076563)scale(0.22 -0.22)">
       <defs>
        <path d="M 2034 4250 
Q 1547 4250 1301 3770 
Q 1056 3291 1056 2328 
Q 1056 1369 1301 889 
Q 1547 409 2034 409 
Q 2525 409 2770 889 
Q 3016 1369 3016 2328 
Q 3016 3291 2770 3770 
Q 2525 4250 2034 4250 
z
M 2034 4750 
Q 2819 4750 3233 4129 
Q 3647 3509 3647 2328 
Q 3647 1150 3233 529 
Q 2819 -91 2034 -91 
Q 1250 -91 836 529 
Q 422 1150 422 2328 
Q 422 3509 836 4129 
Q 1250 4750 2034 4750 
z
" id="DejaVuSans-30" transform="scale(0.015625)"/>
       </defs>
       <use xlink:href="#DejaVuSans-30"/>
      </g>
     </g>
    </g>
    <g id="xtick_2">
     <g id="text_2">
      <!-- 20000 -->
      <g style="fill:#262626;" transform="translate(159.466671 636.076563)scale(0.22 -0.22)">
       <defs>
        <path d="M 1228 531 
L 3431 531 
L 3431 0 
L 469 0 
L 469 531 
Q 828 903 1448 1529 
Q 2069 2156 2228 2338 
Q 2531 2678 2651 2914 
Q 2772 3150 2772 3378 
Q 2772 3750 2511 3984 
Q 2250 4219 1831 4219 
Q 1534 4219 1204 4116 
Q 875 4013 500 3803 
L 500 4441 
Q 881 4594 1212 4672 
Q 1544 4750 1819 4750 
Q 2544 4750 2975 4387 
Q 3406 4025 3406 3419 
Q 3406 3131 3298 2873 
Q 3191 2616 2906 2266 
Q 2828 2175 2409 1742 
Q 1991 1309 1228 531 
z
" id="DejaVuSans-32" transform="scale(0.015625)"/>
       </defs>
       <use xlink:href="#DejaVuSans-32"/>
       <use x="63.623047" xlink:href="#DejaVuSans-30"/>
       <use x="127.246094" xlink:href="#DejaVuSans-30"/>
       <use x="190.869141" xlink:href="#DejaVuSans-30"/>
       <use x="254.492188" xlink:href="#DejaVuSans-30"/>
      </g>
     </g>
    </g>
    <g id="xtick_3">
     <g id="text_3">
      <!-- 40000 -->
      <g style="fill:#262626;" transform="translate(247.287932 636.076563)scale(0.22 -0.22)">
       <defs>
        <path d="M 2419 4116 
L 825 1625 
L 2419 1625 
L 2419 4116 
z
M 2253 4666 
L 3047 4666 
L 3047 1625 
L 3713 1625 
L 3713 1100 
L 3047 1100 
L 3047 0 
L 2419 0 
L 2419 1100 
L 313 1100 
L 313 1709 
L 2253 4666 
z
" id="DejaVuSans-34" transform="scale(0.015625)"/>
       </defs>
       <use xlink:href="#DejaVuSans-34"/>
       <use x="63.623047" xlink:href="#DejaVuSans-30"/>
       <use x="127.246094" xlink:href="#DejaVuSans-30"/>
       <use x="190.869141" xlink:href="#DejaVuSans-30"/>
       <use x="254.492188" xlink:href="#DejaVuSans-30"/>
      </g>
     </g>
    </g>
    <g id="xtick_4">
     <g id="text_4">
      <!-- 60000 -->
      <g style="fill:#262626;" transform="translate(335.109193 636.076563)scale(0.22 -0.22)">
       <defs>
        <path d="M 2113 2584 
Q 1688 2584 1439 2293 
Q 1191 2003 1191 1497 
Q 1191 994 1439 701 
Q 1688 409 2113 409 
Q 2538 409 2786 701 
Q 3034 994 3034 1497 
Q 3034 2003 2786 2293 
Q 2538 2584 2113 2584 
z
M 3366 4563 
L 3366 3988 
Q 3128 4100 2886 4159 
Q 2644 4219 2406 4219 
Q 1781 4219 1451 3797 
Q 1122 3375 1075 2522 
Q 1259 2794 1537 2939 
Q 1816 3084 2150 3084 
Q 2853 3084 3261 2657 
Q 3669 2231 3669 1497 
Q 3669 778 3244 343 
Q 2819 -91 2113 -91 
Q 1303 -91 875 529 
Q 447 1150 447 2328 
Q 447 3434 972 4092 
Q 1497 4750 2381 4750 
Q 2619 4750 2861 4703 
Q 3103 4656 3366 4563 
z
" id="DejaVuSans-36" transform="scale(0.015625)"/>
       </defs>
       <use xlink:href="#DejaVuSans-36"/>
       <use x="63.623047" xlink:href="#DejaVuSans-30"/>
       <use x="127.246094" xlink:href="#DejaVuSans-30"/>
       <use x="190.869141" xlink:href="#DejaVuSans-30"/>
       <use x="254.492188" xlink:href="#DejaVuSans-30"/>
      </g>
     </g>
    </g>
    <g id="xtick_5">
     <g id="text_5">
      <!-- 80000 -->
      <g style="fill:#262626;" transform="translate(422.930455 636.076563)scale(0.22 -0.22)">
       <defs>
        <path d="M 2034 2216 
Q 1584 2216 1326 1975 
Q 1069 1734 1069 1313 
Q 1069 891 1326 650 
Q 1584 409 2034 409 
Q 2484 409 2743 651 
Q 3003 894 3003 1313 
Q 3003 1734 2745 1975 
Q 2488 2216 2034 2216 
z
M 1403 2484 
Q 997 2584 770 2862 
Q 544 3141 544 3541 
Q 544 4100 942 4425 
Q 1341 4750 2034 4750 
Q 2731 4750 3128 4425 
Q 3525 4100 3525 3541 
Q 3525 3141 3298 2862 
Q 3072 2584 2669 2484 
Q 3125 2378 3379 2068 
Q 3634 1759 3634 1313 
Q 3634 634 3220 271 
Q 2806 -91 2034 -91 
Q 1263 -91 848 271 
Q 434 634 434 1313 
Q 434 1759 690 2068 
Q 947 2378 1403 2484 
z
M 1172 3481 
Q 1172 3119 1398 2916 
Q 1625 2713 2034 2713 
Q 2441 2713 2670 2916 
Q 2900 3119 2900 3481 
Q 2900 3844 2670 4047 
Q 2441 4250 2034 4250 
Q 1625 4250 1398 4047 
Q 1172 3844 1172 3481 
z
" id="DejaVuSans-38" transform="scale(0.015625)"/>
       </defs>
       <use xlink:href="#DejaVuSans-38"/>
       <use x="63.623047" xlink:href="#DejaVuSans-30"/>
       <use x="127.246094" xlink:href="#DejaVuSans-30"/>
       <use x="190.869141" xlink:href="#DejaVuSans-30"/>
       <use x="254.492188" xlink:href="#DejaVuSans-30"/>
      </g>
     </g>
    </g>
    <g id="xtick_6">
     <g id="text_6">
      <!-- 100000 -->
      <g style="fill:#262626;" transform="translate(503.752966 636.076563)scale(0.22 -0.22)">
       <defs>
        <path d="M 794 531 
L 1825 531 
L 1825 4091 
L 703 3866 
L 703 4441 
L 1819 4666 
L 2450 4666 
L 2450 531 
L 3481 531 
L 3481 0 
L 794 0 
L 794 531 
z
" id="DejaVuSans-31" transform="scale(0.015625)"/>
       </defs>
       <use xlink:href="#DejaVuSans-31"/>
       <use x="63.623047" xlink:href="#DejaVuSans-30"/>
       <use x="127.246094" xlink:href="#DejaVuSans-30"/>
       <use x="190.869141" xlink:href="#DejaVuSans-30"/>
       <use x="254.492188" xlink:href="#DejaVuSans-30"/>
       <use x="318.115234" xlink:href="#DejaVuSans-30"/>
      </g>
     </g>
    </g>
    <g id="text_7">
     <!-- MDTU -->
     <g style="fill:#262626;" transform="translate(290.596464 662.888125)scale(0.24 -0.24)">
      <defs>
       <path d="M 628 4666 
L 1569 4666 
L 2759 1491 
L 3956 4666 
L 4897 4666 
L 4897 0 
L 4281 0 
L 4281 4097 
L 3078 897 
L 2444 897 
L 1241 4097 
L 1241 0 
L 628 0 
L 628 4666 
z
" id="DejaVuSans-4d" transform="scale(0.015625)"/>
       <path d="M 1259 4147 
L 1259 519 
L 2022 519 
Q 2988 519 3436 956 
Q 3884 1394 3884 2338 
Q 3884 3275 3436 3711 
Q 2988 4147 2022 4147 
L 1259 4147 
z
M 628 4666 
L 1925 4666 
Q 3281 4666 3915 4102 
Q 4550 3538 4550 2338 
Q 4550 1131 3912 565 
Q 3275 0 1925 0 
L 628 0 
L 628 4666 
z
" id="DejaVuSans-44" transform="scale(0.015625)"/>
       <path d="M -19 4666 
L 3928 4666 
L 3928 4134 
L 2272 4134 
L 2272 0 
L 1638 0 
L 1638 4134 
L -19 4134 
L -19 4666 
z
" id="DejaVuSans-54" transform="scale(0.015625)"/>
       <path d="M 556 4666 
L 1191 4666 
L 1191 1831 
Q 1191 1081 1462 751 
Q 1734 422 2344 422 
Q 2950 422 3222 751 
Q 3494 1081 3494 1831 
L 3494 4666 
L 4128 4666 
L 4128 1753 
Q 4128 841 3676 375 
Q 3225 -91 2344 -91 
Q 1459 -91 1007 375 
Q 556 841 556 1753 
L 556 4666 
z
" id="DejaVuSans-55" transform="scale(0.015625)"/>
      </defs>
      <use xlink:href="#DejaVuSans-4d"/>
      <use x="86.279297" xlink:href="#DejaVuSans-44"/>
      <use x="163.28125" xlink:href="#DejaVuSans-54"/>
      <use x="224.365234" xlink:href="#DejaVuSans-55"/>
     </g>
    </g>
   </g>
   <g id="matplotlib.axis_2">
    <g id="ytick_1">
     <g id="text_8">
      <!-- 0.2 -->
      <g style="fill:#262626;" transform="translate(34.4275 594.911417)scale(0.22 -0.22)">
       <defs>
        <path d="M 684 794 
L 1344 794 
L 1344 0 
L 684 0 
L 684 794 
z
" id="DejaVuSans-2e" transform="scale(0.015625)"/>
       </defs>
       <use xlink:href="#DejaVuSans-30"/>
       <use x="63.623047" xlink:href="#DejaVuSans-2e"/>
       <use x="95.410156" xlink:href="#DejaVuSans-32"/>
      </g>
     </g>
    </g>
    <g id="ytick_2">
     <g id="text_9">
      <!-- 0.4 -->
      <g style="fill:#262626;" transform="translate(34.4275 533.045648)scale(0.22 -0.22)">
       <use xlink:href="#DejaVuSans-30"/>
       <use x="63.623047" xlink:href="#DejaVuSans-2e"/>
       <use x="95.410156" xlink:href="#DejaVuSans-34"/>
      </g>
     </g>
    </g>
    <g id="ytick_3">
     <g id="text_10">
      <!-- 0.6 -->
      <g style="fill:#262626;" transform="translate(34.4275 471.17988)scale(0.22 -0.22)">
       <use xlink:href="#DejaVuSans-30"/>
       <use x="63.623047" xlink:href="#DejaVuSans-2e"/>
       <use x="95.410156" xlink:href="#DejaVuSans-36"/>
      </g>
     </g>
    </g>
    <g id="ytick_4">
     <g id="text_11">
      <!-- 0.8 -->
      <g style="fill:#262626;" transform="translate(34.4275 409.314112)scale(0.22 -0.22)">
       <use xlink:href="#DejaVuSans-30"/>
       <use x="63.623047" xlink:href="#DejaVuSans-2e"/>
       <use x="95.410156" xlink:href="#DejaVuSans-38"/>
      </g>
     </g>
    </g>
    <g id="ytick_5">
     <g id="text_12">
      <!-- 1.0 -->
      <g style="fill:#262626;" transform="translate(34.4275 347.448343)scale(0.22 -0.22)">
       <use xlink:href="#DejaVuSans-31"/>
       <use x="63.623047" xlink:href="#DejaVuSans-2e"/>
       <use x="95.410156" xlink:href="#DejaVuSans-30"/>
      </g>
     </g>
    </g>
    <g id="ytick_6">
     <g id="text_13">
      <!-- 1.2 -->
      <g style="fill:#262626;" transform="translate(34.4275 285.582575)scale(0.22 -0.22)">
       <use xlink:href="#DejaVuSans-31"/>
       <use x="63.623047" xlink:href="#DejaVuSans-2e"/>
       <use x="95.410156" xlink:href="#DejaVuSans-32"/>
      </g>
     </g>
    </g>
    <g id="ytick_7">
     <g id="text_14">
      <!-- 1.4 -->
      <g style="fill:#262626;" transform="translate(34.4275 223.716806)scale(0.22 -0.22)">
       <use xlink:href="#DejaVuSans-31"/>
       <use x="63.623047" xlink:href="#DejaVuSans-2e"/>
       <use x="95.410156" xlink:href="#DejaVuSans-34"/>
      </g>
     </g>
    </g>
    <g id="ytick_8">
     <g id="text_15">
      <!-- 1.6 -->
      <g style="fill:#262626;" transform="translate(34.4275 161.851038)scale(0.22 -0.22)">
       <use xlink:href="#DejaVuSans-31"/>
       <use x="63.623047" xlink:href="#DejaVuSans-2e"/>
       <use x="95.410156" xlink:href="#DejaVuSans-36"/>
      </g>
     </g>
    </g>
    <g id="text_16">
     <!-- $E$ -->
     <g style="fill:#262626;" transform="translate(25.43625 364.352286)rotate(-90)scale(0.24 -0.24)">
      <defs>
       <path d="M 1081 4666 
L 4031 4666 
L 3928 4134 
L 1606 4134 
L 1338 2753 
L 3566 2753 
L 3463 2222 
L 1234 2222 
L 909 531 
L 3284 531 
L 3181 0 
L 172 0 
L 1081 4666 
z
" id="DejaVuSans-Oblique-45" transform="scale(0.015625)"/>
      </defs>
      <use transform="translate(0 0.09375)" xlink:href="#DejaVuSans-Oblique-45"/>
     </g>
    </g>
   </g>
   <g id="line2d_1">
    <path clip-path="url(#pc42a4ef433)" d="M 106.858713 512.951712 
L 107.078266 465.738044 
L 107.297819 371.616585 
L 107.517372 359.655076 
L 107.736925 509.209382 
L 107.956478 390.897265 
L 108.176032 423.020506 
L 108.395585 431.840968 
L 108.615138 488.545978 
L 108.834691 479.423293 
L 109.054244 515.880524 
L 109.273797 527.253058 
L 109.493351 496.570811 
L 109.712904 415.854785 
L 109.932457 502.025233 
L 110.15201 468.411811 
L 110.591116 386.628357 
L 110.810669 393.502735 
L 111.030223 469.170953 
L 111.249776 414.349742 
L 111.469329 505.370834 
L 111.688882 416.430022 
L 111.908435 456.141863 
L 112.127988 443.138336 
L 112.347541 399.335736 
L 112.786648 453.188345 
L 113.006201 391.570452 
L 113.225754 423.314178 
L 113.445307 554.471937 
L 113.66486 425.64445 
L 113.884414 436.75076 
L 114.103967 377.438483 
L 114.32352 471.706272 
L 114.543073 491.287154 
L 114.982179 328.751611 
L 115.421286 549.12685 
L 115.640839 536.947714 
L 115.860392 491.149084 
L 116.299498 332.826757 
L 116.519051 436.315961 
L 116.738605 267.772336 
L 116.958158 185.545465 
L 117.177711 491.469093 
L 117.397264 387.592756 
L 117.616817 366.727434 
L 117.83637 452.680688 
L 118.055923 246.33801 
L 118.275477 410.058035 
L 118.49503 302.479504 
L 118.714583 382.098691 
L 118.934136 513.231258 
L 119.373242 335.02268 
L 119.592796 510.331677 
L 120.031902 378.28219 
L 120.251455 492.191741 
L 120.471008 398.541441 
L 120.690561 415.126014 
L 121.129668 487.185048 
L 121.568774 421.220269 
L 121.788327 311.878256 
L 122.00788 427.740695 
L 122.227433 396.695455 
L 122.446987 511.126214 
L 122.66654 460.32245 
L 122.886093 485.571375 
L 123.105646 439.320523 
L 123.325199 440.34934 
L 123.544752 350.580198 
L 123.764305 485.177336 
L 123.983859 444.834247 
L 124.203412 323.662889 
L 124.422965 425.218111 
L 124.642518 418.537011 
L 124.862071 503.092259 
L 125.081624 519.477932 
L 125.301178 447.584557 
L 125.520731 500.975199 
L 125.740284 363.76895 
L 125.959837 452.99586 
L 126.17939 261.807334 
L 126.398943 198.014184 
L 126.618496 445.472869 
L 126.83805 401.672534 
L 127.057603 525.689741 
L 127.496709 447.446271 
L 127.716262 531.078318 
L 127.935815 488.435085 
L 128.155369 494.525953 
L 128.374922 508.84278 
L 128.594475 429.983796 
L 128.814028 306.549996 
L 129.033581 469.811317 
L 129.253134 469.675431 
L 129.472687 407.29506 
L 129.692241 412.463585 
L 130.131347 505.451438 
L 130.3509 469.69713 
L 130.570453 395.680562 
L 130.790006 515.833506 
L 131.00956 523.582391 
L 131.229113 405.949824 
L 131.448666 484.135862 
L 131.668219 446.151122 
L 131.887772 450.567352 
L 132.107325 502.712218 
L 132.546432 470.658961 
L 132.765985 274.368886 
L 132.985538 460.123262 
L 133.205091 364.930566 
L 133.644197 503.097925 
L 133.863751 400.472118 
L 134.083304 456.265808 
L 134.302857 359.873613 
L 134.52241 438.415514 
L 134.741963 413.729629 
L 134.961516 421.531501 
L 135.181069 503.226194 
L 135.400623 490.905263 
L 135.620176 303.189523 
L 135.839729 441.946653 
L 136.059282 358.173642 
L 136.278835 495.94007 
L 136.717941 363.986794 
L 136.937495 467.085637 
L 137.376601 457.61115 
L 137.596154 255.153636 
L 137.815707 457.621627 
L 138.03526 481.693653 
L 138.254814 443.2018 
L 138.474367 505.045066 
L 138.69392 325.994937 
L 138.913473 433.37178 
L 139.133026 422.273968 
L 139.352579 522.580007 
L 139.572132 513.766753 
L 139.791686 316.618029 
L 140.011239 306.899225 
L 140.230792 448.404716 
L 140.450345 308.760981 
L 140.669898 338.560925 
L 140.889451 427.340014 
L 141.109005 395.731589 
L 141.328558 479.508846 
L 141.548111 467.441595 
L 141.767664 581.38839 
L 141.987217 461.101363 
L 142.20677 436.428047 
L 142.426323 379.716798 
L 142.645877 399.559566 
L 142.86543 533.928972 
L 143.084983 350.649095 
L 143.524089 498.103382 
L 143.743642 330.48545 
L 143.963196 457.020949 
L 144.182749 278.237582 
L 144.402302 460.544634 
L 144.621855 529.421189 
L 144.841408 340.341035 
L 145.060961 275.644136 
L 145.280514 469.893835 
L 145.500068 435.02056 
L 145.719621 450.494613 
L 145.939174 319.850355 
L 146.158727 344.108386 
L 146.37828 509.943203 
L 146.597833 463.037325 
L 146.817387 500.118562 
L 147.256493 410.281123 
L 147.476046 196.641373 
L 147.695599 492.180352 
L 147.915152 373.19572 
L 148.134705 370.273515 
L 148.354259 294.699738 
L 148.573812 501.235825 
L 148.793365 446.863748 
L 149.012918 485.051506 
L 149.232471 446.638421 
L 149.452024 503.793867 
L 149.671578 497.88199 
L 149.891131 330.990887 
L 150.110684 310.047405 
L 150.330237 409.011331 
L 150.54979 411.740094 
L 150.769343 482.744563 
L 150.988896 486.540367 
L 151.20845 418.843681 
L 151.428003 499.03839 
L 151.647556 411.915815 
L 151.867109 465.71453 
L 152.306215 411.55121 
L 152.525769 343.975399 
L 152.745322 237.279884 
L 152.964875 474.130727 
L 153.184428 519.550656 
L 153.403981 461.259331 
L 153.623534 477.383459 
L 154.062641 320.995889 
L 154.282194 417.140172 
L 154.7213 466.19036 
L 154.940853 524.370069 
L 155.160406 478.438501 
L 155.37996 480.359613 
L 155.599513 456.334262 
L 155.819066 520.739206 
L 156.038619 478.410424 
L 156.258172 511.322078 
L 156.477725 475.71589 
L 156.697278 353.33491 
L 156.916832 512.52817 
L 157.136385 404.37876 
L 157.355938 485.435997 
L 157.575491 513.947027 
L 157.795044 387.99966 
L 158.014597 443.034763 
L 158.234151 390.484076 
L 158.453704 469.557832 
L 158.673257 479.086569 
L 158.89281 410.965623 
L 159.112363 259.662724 
L 159.551469 543.687754 
L 159.771023 439.659093 
L 160.210129 352.712714 
L 160.429682 459.372999 
L 160.649235 330.873574 
L 160.868788 432.830714 
L 161.088342 342.279578 
L 161.307895 482.825813 
L 161.747001 350.544571 
L 161.966554 452.731069 
L 162.186107 330.561408 
L 162.40566 495.401413 
L 162.625214 327.505718 
L 162.844767 363.328323 
L 163.06432 471.010835 
L 163.283873 291.65648 
L 163.503426 499.779155 
L 163.722979 438.738116 
L 163.942532 412.178341 
L 164.381639 470.384978 
L 164.601192 530.029469 
L 164.820745 455.348072 
L 165.040298 425.067597 
L 165.259851 370.857547 
L 165.479405 441.809647 
L 165.698958 473.119859 
L 165.918511 472.241203 
L 166.138064 490.888483 
L 166.357617 484.623799 
L 166.57717 286.186581 
L 166.796723 484.697699 
L 167.016277 478.105803 
L 167.23583 271.312631 
L 167.674936 485.047966 
L 167.894489 443.480671 
L 168.114042 362.863206 
L 168.333596 450.047969 
L 168.553149 359.938918 
L 168.772702 379.448928 
L 168.992255 468.980251 
L 169.211808 340.160472 
L 169.650914 526.115528 
L 169.870468 500.247852 
L 170.090021 337.263759 
L 170.309574 496.711625 
L 170.529127 384.01436 
L 170.74868 423.209861 
L 170.968233 485.726766 
L 171.187787 504.622243 
L 171.40734 463.08922 
L 171.626893 463.005867 
L 171.846446 425.172823 
L 172.065999 339.284169 
L 172.285552 551.542711 
L 172.505105 347.133436 
L 172.724659 418.224522 
L 172.944212 420.97979 
L 173.163765 411.180185 
L 173.383318 388.948289 
L 173.602871 473.275394 
L 173.822424 393.527635 
L 174.041978 459.662457 
L 174.261531 467.446507 
L 174.481084 531.829385 
L 174.700637 424.781457 
L 174.92019 450.629545 
L 175.139743 497.954435 
L 175.359296 452.897745 
L 175.57885 358.293749 
L 175.798403 421.230613 
L 176.017956 363.515469 
L 176.237509 524.614239 
L 176.457062 453.896552 
L 176.676615 507.171178 
L 176.896169 430.93868 
L 177.115722 472.266639 
L 177.554828 348.66978 
L 177.774381 467.021539 
L 177.993934 196.61626 
L 178.213487 475.011411 
L 178.433041 474.066123 
L 178.652594 316.46551 
L 178.872147 460.940681 
L 179.0917 455.480022 
L 179.311253 363.029471 
L 179.530806 485.422746 
L 179.75036 411.288507 
L 179.969913 500.675257 
L 180.189466 434.356837 
L 180.409019 536.634201 
L 180.628572 355.896428 
L 180.848125 499.835314 
L 181.067678 520.59163 
L 181.287232 323.763138 
L 181.506785 301.269655 
L 181.726338 419.939258 
L 182.165444 320.573735 
L 182.384997 488.989529 
L 182.604551 402.297987 
L 183.043657 490.366281 
L 183.26321 433.029153 
L 183.482763 412.686161 
L 183.702316 463.625384 
L 183.921869 443.073422 
L 184.141423 527.992437 
L 184.360976 171.951661 
L 184.580529 465.292866 
L 184.800082 520.122116 
L 185.019635 436.919869 
L 185.239188 458.796532 
L 185.458742 400.456787 
L 185.678295 298.525458 
L 185.897848 462.151601 
L 186.117401 515.810292 
L 186.336954 455.103616 
L 186.556507 553.411942 
L 186.77606 500.33079 
L 186.995614 536.308742 
L 187.215167 510.301958 
L 187.654273 420.04368 
L 187.873826 449.173494 
L 188.093379 277.38469 
L 188.312932 413.00931 
L 188.532486 395.720005 
L 188.752039 364.978781 
L 188.971592 476.83351 
L 189.191145 379.30081 
L 189.410698 484.657313 
L 189.630251 313.800725 
L 189.849805 516.478714 
L 190.069358 468.661508 
L 190.288911 382.6462 
L 190.508464 402.162313 
L 190.728017 379.413821 
L 191.167123 415.904139 
L 191.386677 472.874902 
L 191.60623 385.686521 
L 191.825783 482.389702 
L 192.045336 493.506978 
L 192.264889 305.69985 
L 192.923549 520.894196 
L 193.143102 395.152365 
L 193.362655 414.432802 
L 193.801761 546.140096 
L 194.021314 469.374415 
L 194.240868 447.871775 
L 194.679974 518.612229 
L 194.899527 407.965765 
L 195.11908 481.887734 
L 195.338633 433.379269 
L 195.558187 433.306418 
L 195.77774 446.937314 
L 195.997293 535.21052 
L 196.436399 396.073135 
L 196.655952 445.224368 
L 196.875505 421.514119 
L 197.095059 380.125959 
L 197.314612 406.668679 
L 197.534165 500.879143 
L 197.753718 461.489146 
L 198.192824 256.767812 
L 198.412378 439.159449 
L 198.631931 453.141151 
L 198.851484 505.932387 
L 199.071037 439.178421 
L 199.29059 470.060158 
L 199.510143 361.382586 
L 199.729696 390.944807 
L 199.94925 475.437368 
L 200.168803 474.342649 
L 200.388356 432.457612 
L 200.607909 429.408232 
L 200.827462 468.36693 
L 201.047015 486.483398 
L 201.266569 493.749057 
L 201.486122 490.578948 
L 201.705675 455.552907 
L 201.925228 458.908799 
L 202.144781 450.743438 
L 202.364334 471.398848 
L 202.583887 437.432389 
L 202.803441 296.439057 
L 203.022994 415.153917 
L 203.242547 466.347779 
L 203.4621 260.116604 
L 203.681653 402.712208 
L 203.901206 468.106122 
L 204.12076 474.049514 
L 204.340313 567.085331 
L 204.779419 369.863262 
L 204.998972 387.414904 
L 205.218525 460.839197 
L 205.438078 406.562771 
L 205.657632 390.466894 
L 205.877185 423.279893 
L 206.096738 261.875104 
L 206.316291 413.30084 
L 206.755397 322.791243 
L 207.194504 522.769776 
L 207.414057 450.887694 
L 207.63361 424.559314 
L 207.853163 427.871313 
L 208.292269 469.929037 
L 208.511823 499.817344 
L 208.731376 504.346636 
L 209.170482 418.663102 
L 209.390035 418.933016 
L 209.609588 396.756336 
L 209.829142 463.917038 
L 210.048695 432.337486 
L 210.268248 376.44042 
L 210.487801 424.850979 
L 210.707354 304.608386 
L 210.926907 531.579654 
L 211.14646 427.296787 
L 211.366014 392.720316 
L 211.585567 479.010682 
L 211.80512 436.795278 
L 212.024673 424.807257 
L 212.244226 508.597949 
L 212.463779 434.099021 
L 212.683333 478.729268 
L 212.902886 430.383817 
L 213.122439 480.666823 
L 213.341992 394.504107 
L 213.561545 413.316136 
L 213.781098 517.264359 
L 214.000651 424.159909 
L 214.220205 432.467445 
L 214.439758 347.796828 
L 214.659311 493.486764 
L 214.878864 407.259478 
L 215.098417 393.62791 
L 215.31797 427.428221 
L 215.537523 510.320527 
L 215.757077 456.625836 
L 215.97663 462.415579 
L 216.196183 373.369741 
L 216.635289 518.257682 
L 216.854842 339.351606 
L 217.074396 472.90057 
L 217.293949 323.758169 
L 217.513502 485.447419 
L 217.952608 439.51765 
L 218.172161 308.690344 
L 218.391714 528.846213 
L 218.611268 442.899955 
L 218.830821 275.387989 
L 219.050374 444.568651 
L 219.269927 506.499234 
L 219.48948 460.211256 
L 219.709033 316.118777 
L 220.14814 429.748935 
L 220.367693 408.736818 
L 220.587246 445.814973 
L 220.806799 393.200183 
L 221.026352 455.427242 
L 221.245905 485.178065 
L 221.465459 305.522198 
L 221.904565 447.062033 
L 222.124118 392.570751 
L 222.343671 409.996087 
L 222.563224 414.066135 
L 222.782778 488.898206 
L 223.002331 448.452988 
L 223.221884 363.193745 
L 223.441437 386.469429 
L 223.66099 488.353663 
L 223.880543 380.511613 
L 224.100096 424.824855 
L 224.31965 402.449076 
L 224.539203 521.009268 
L 224.758756 324.130979 
L 224.978309 425.849334 
L 225.197862 443.322629 
L 225.417415 330.792663 
L 225.856522 459.084066 
L 226.076075 521.854113 
L 226.295628 382.666079 
L 226.515181 427.814459 
L 226.734734 411.634174 
L 226.954287 335.546576 
L 227.173841 451.615995 
L 227.393394 498.66106 
L 227.612947 312.745975 
L 227.8325 534.721126 
L 228.052053 328.677777 
L 228.49116 489.505001 
L 228.710713 502.166995 
L 228.930266 375.93187 
L 229.149819 421.59228 
L 229.369372 354.846219 
L 229.808478 407.800719 
L 230.028032 388.952173 
L 230.247585 518.08656 
L 230.467138 409.091103 
L 230.686691 424.351589 
L 230.906244 334.095284 
L 231.125797 438.008406 
L 231.345351 440.480851 
L 231.784457 354.459646 
L 232.00401 456.750367 
L 232.223563 499.166531 
L 232.443116 274.904986 
L 232.662669 522.809425 
L 233.101776 384.90897 
L 233.321329 400.914908 
L 233.540882 321.66621 
L 233.979988 493.550232 
L 234.199542 394.254316 
L 234.419095 542.63324 
L 234.638648 549.08265 
L 235.077754 349.866426 
L 235.297307 449.639604 
L 235.51686 469.453367 
L 235.736414 404.06989 
L 235.955967 494.548569 
L 236.17552 303.69917 
L 236.395073 479.72912 
L 236.614626 546.053941 
L 236.834179 478.365365 
L 237.053733 475.20555 
L 237.273286 413.67602 
L 237.492839 400.482223 
L 237.712392 410.020999 
L 237.931945 396.229993 
L 238.151498 445.867038 
L 238.371051 432.357769 
L 238.590605 458.851306 
L 238.810158 340.757887 
L 239.029711 460.004486 
L 239.249264 497.059751 
L 239.468817 434.270362 
L 239.68837 519.361898 
L 239.907924 504.239532 
L 240.127477 533.076216 
L 240.566583 340.886887 
L 240.786136 424.531306 
L 241.005689 203.683866 
L 241.664349 519.265808 
L 241.883902 452.088099 
L 242.103455 301.239513 
L 242.323008 483.649255 
L 242.542561 360.819946 
L 242.762114 341.223202 
L 242.981668 456.273722 
L 243.201221 265.015044 
L 243.420774 467.935571 
L 243.640327 483.165284 
L 243.85988 371.886802 
L 244.079433 449.937676 
L 244.51854 351.297901 
L 244.738093 519.990518 
L 244.957646 334.111019 
L 245.177199 435.401995 
L 245.396752 396.12425 
L 245.616305 417.007648 
L 245.835859 527.536718 
L 246.055412 463.069276 
L 246.494518 488.398415 
L 246.933624 404.676974 
L 247.153178 469.253428 
L 247.592284 347.310357 
L 247.811837 323.952986 
L 248.03139 507.926294 
L 248.250943 400.596821 
L 248.470496 357.129419 
L 248.69005 428.62518 
L 248.909603 403.901426 
L 249.129156 406.665534 
L 249.348709 353.637629 
L 249.787815 498.552133 
L 250.007369 497.12713 
L 250.226922 491.131522 
L 250.446475 431.592272 
L 250.666028 462.231047 
L 250.885581 403.435106 
L 251.105134 395.582353 
L 251.324687 442.936917 
L 251.544241 514.340889 
L 251.763794 381.690089 
L 251.983347 433.2811 
L 252.2029 526.548203 
L 252.422453 410.406056 
L 252.642006 417.04705 
L 253.081113 295.885403 
L 253.300666 474.46402 
L 253.520219 546.009415 
L 253.739772 484.238225 
L 253.959325 464.097587 
L 254.178878 421.783423 
L 254.398432 546.152374 
L 254.837538 433.951345 
L 255.276644 527.073302 
L 255.496197 441.796012 
L 255.715751 421.287507 
L 256.154857 488.975588 
L 256.37441 426.232184 
L 256.593963 312.386524 
L 256.813516 563.393854 
L 257.252623 367.601332 
L 257.472176 434.710044 
L 257.691729 449.376585 
L 258.130835 252.934791 
L 258.569942 456.178595 
L 258.789495 474.31872 
L 259.009048 351.820092 
L 259.228601 359.094239 
L 259.448154 419.756764 
L 259.667707 436.020635 
L 259.88726 381.767492 
L 260.106814 416.506334 
L 260.326367 399.693409 
L 260.54592 437.985514 
L 260.765473 411.926634 
L 260.985026 452.408239 
L 261.204579 353.284088 
L 261.424133 380.054164 
L 261.643686 541.984697 
L 262.082792 359.630018 
L 262.302345 437.185527 
L 262.521898 400.435601 
L 262.741451 492.866999 
L 262.961005 530.029975 
L 263.400111 383.20811 
L 263.619664 452.222297 
L 263.839217 318.440078 
L 264.05877 432.532416 
L 264.278324 483.993978 
L 264.497877 413.686509 
L 264.71743 404.324116 
L 264.936983 533.258756 
L 265.156536 511.019504 
L 265.376089 513.305704 
L 265.595642 239.498098 
L 265.815196 452.576504 
L 266.034749 396.030048 
L 266.254302 172.69025 
L 266.473855 479.893525 
L 266.693408 487.459178 
L 266.912961 509.614477 
L 267.352068 320.109645 
L 267.571621 321.096139 
L 267.791174 506.633033 
L 268.010727 476.004519 
L 268.23028 485.394712 
L 268.449833 461.77484 
L 268.669387 456.804534 
L 268.88894 391.710227 
L 269.108493 453.571892 
L 269.328046 403.317115 
L 269.547599 488.120042 
L 269.767152 464.4921 
L 269.986705 408.184118 
L 270.206259 457.001494 
L 270.425812 472.256553 
L 270.645365 504.389757 
L 270.864918 373.617132 
L 271.084471 522.341166 
L 271.304024 382.261078 
L 271.523578 394.445758 
L 271.743131 522.637377 
L 271.962684 483.785107 
L 272.182237 403.257102 
L 272.621343 521.334239 
L 272.840896 435.541051 
L 273.06045 420.87788 
L 273.280003 435.917881 
L 273.499556 394.913622 
L 273.719109 325.212731 
L 273.938662 363.845181 
L 274.158215 437.307685 
L 274.377769 422.892787 
L 274.597322 422.751519 
L 274.816875 430.367696 
L 275.036428 460.104451 
L 275.255981 521.005384 
L 275.475534 511.885188 
L 275.695087 437.007593 
L 275.914641 481.306305 
L 276.134194 496.749598 
L 276.353747 339.842173 
L 276.5733 474.719981 
L 276.792853 475.232658 
L 277.012406 454.959021 
L 277.23196 385.033558 
L 277.451513 423.249461 
L 277.671066 488.778176 
L 277.890619 397.638485 
L 278.110172 517.929242 
L 278.329725 374.303179 
L 278.549278 510.664428 
L 278.768832 463.506557 
L 278.988385 443.055732 
L 279.207938 351.585366 
L 279.647044 481.909802 
L 279.866597 388.502181 
L 280.086151 407.83759 
L 280.525257 500.443841 
L 280.74481 474.746155 
L 280.964363 542.390161 
L 281.403469 365.964102 
L 281.623023 450.153765 
L 281.842576 440.029723 
L 282.062129 370.433745 
L 282.281682 494.151101 
L 282.720788 266.530031 
L 282.940342 396.251639 
L 283.159895 402.392443 
L 283.379448 414.621076 
L 283.599001 305.371569 
L 283.818554 370.041506 
L 284.038107 484.129568 
L 284.477214 290.127994 
L 284.696767 542.559775 
L 284.91632 437.482887 
L 285.135873 480.463136 
L 285.574979 398.564868 
L 285.794533 514.548821 
L 286.014086 483.925905 
L 286.453192 399.970528 
L 286.672745 503.815707 
L 286.892298 496.43868 
L 287.111851 423.318312 
L 287.550958 469.049253 
L 287.770511 348.419428 
L 287.990064 521.740792 
L 288.209617 485.419986 
L 288.42917 409.331953 
L 288.648724 479.932591 
L 288.868277 485.019891 
L 289.08783 479.925869 
L 289.307383 518.038591 
L 289.746489 459.706201 
L 289.966042 375.807174 
L 290.185596 244.438419 
L 290.405149 365.933407 
L 290.624702 414.005538 
L 290.844255 377.13936 
L 291.283361 480.951446 
L 291.502915 436.013779 
L 291.722468 482.147571 
L 291.942021 468.61842 
L 292.161574 499.669766 
L 292.381127 347.88046 
L 292.60068 460.180948 
L 292.820233 414.056138 
L 293.039787 312.977759 
L 293.478893 495.784398 
L 293.698446 477.9162 
L 293.917999 359.672278 
L 294.137552 402.991052 
L 294.357105 535.838458 
L 294.576659 367.943955 
L 294.796212 546.365959 
L 295.015765 364.392455 
L 295.235318 483.904605 
L 295.454871 384.894464 
L 295.893978 291.628201 
L 296.113531 476.276714 
L 296.333084 390.891228 
L 296.552637 196.782196 
L 296.77219 443.075816 
L 296.991743 344.438242 
L 297.211296 343.17013 
L 297.43085 292.16577 
L 297.650403 426.085173 
L 297.869956 412.33842 
L 298.089509 454.3945 
L 298.309062 434.604666 
L 298.528615 456.581328 
L 298.748169 391.831239 
L 298.967722 391.57879 
L 299.187275 404.995539 
L 299.406828 372.543429 
L 299.626381 541.384133 
L 299.845934 425.317884 
L 300.065487 505.582409 
L 300.285041 418.84433 
L 300.504594 452.267183 
L 300.724147 351.641379 
L 300.9437 486.552679 
L 301.163253 420.361039 
L 301.382806 491.783953 
L 301.60236 337.944371 
L 301.821913 284.487427 
L 302.041466 438.17327 
L 302.261019 439.124981 
L 302.480572 414.685919 
L 302.700125 443.168121 
L 302.919678 325.209605 
L 303.139232 471.675343 
L 303.358785 394.600361 
L 304.017444 493.284171 
L 304.456551 372.770605 
L 304.676104 355.471708 
L 304.895657 450.429418 
L 305.11521 348.776637 
L 305.334763 511.244407 
L 305.554316 437.097965 
L 305.773869 453.6221 
L 305.993423 417.868662 
L 306.212976 440.771581 
L 306.432529 532.009355 
L 306.652082 423.566563 
L 306.871635 460.857285 
L 307.091188 398.684074 
L 307.530295 486.175153 
L 307.749848 397.485877 
L 308.188954 497.170892 
L 308.408507 470.508791 
L 308.847614 511.919859 
L 309.067167 453.806498 
L 309.28672 426.116189 
L 309.506273 511.291761 
L 309.725826 344.765485 
L 310.384486 506.594056 
L 310.823592 336.323484 
L 311.043145 383.381345 
L 311.262698 548.108628 
L 311.921358 437.836765 
L 312.140911 431.865885 
L 312.360464 520.696491 
L 312.580017 309.19469 
L 312.79957 501.751069 
L 313.019124 389.766506 
L 313.238677 441.504513 
L 313.45823 451.482198 
L 313.897336 494.208867 
L 314.116889 472.44934 
L 314.336442 493.35113 
L 314.775549 354.493085 
L 314.995102 492.683518 
L 315.214655 483.941494 
L 315.434208 513.760557 
L 315.873315 299.14018 
L 316.092868 501.422742 
L 316.312421 355.906578 
L 316.531974 507.840162 
L 316.751527 410.27216 
L 317.190633 513.695494 
L 317.410187 353.048301 
L 317.62974 535.098193 
L 317.849293 564.732318 
L 318.068846 397.307132 
L 318.288399 386.158698 
L 318.507952 345.874961 
L 318.727506 481.713438 
L 318.947059 542.810742 
L 319.166612 430.617533 
L 319.605718 519.099978 
L 319.825271 505.87981 
L 320.044824 506.415178 
L 320.264378 458.056604 
L 320.483931 492.124475 
L 320.703484 421.392209 
L 320.923037 412.463194 
L 321.14259 488.0338 
L 321.362143 427.514727 
L 321.581696 302.814685 
L 321.80125 330.194693 
L 322.020803 484.139569 
L 322.240356 434.410145 
L 322.459909 433.896468 
L 322.679462 432.198737 
L 322.899015 346.742889 
L 323.338122 410.154843 
L 323.557675 483.415334 
L 323.777228 500.851985 
L 324.216334 470.034116 
L 324.435887 441.694509 
L 324.655441 442.186779 
L 324.874994 504.050266 
L 325.094547 453.763391 
L 325.3141 494.559263 
L 325.533653 388.716186 
L 325.753206 487.618037 
L 325.97276 468.336711 
L 326.192313 427.297998 
L 326.411866 442.694241 
L 326.631419 470.061167 
L 326.850972 439.163032 
L 327.070525 445.235137 
L 327.290078 402.166203 
L 327.509632 491.834078 
L 327.729185 371.963422 
L 328.168291 562.628437 
L 328.387844 532.20758 
L 328.826951 424.68824 
L 329.046504 423.925931 
L 329.266057 468.660269 
L 329.48561 343.835457 
L 329.924716 473.462947 
L 330.144269 483.082879 
L 330.363823 328.22507 
L 330.583376 448.840787 
L 330.802929 438.742537 
L 331.022482 382.913611 
L 331.242035 482.556729 
L 331.461588 429.261289 
L 331.681142 423.111069 
L 331.900695 478.190147 
L 332.120248 314.047523 
L 332.339801 306.935624 
L 332.559354 463.159369 
L 332.778907 476.330021 
L 332.99846 317.459364 
L 333.218014 422.834878 
L 333.437567 445.353968 
L 333.65712 336.122081 
L 333.876673 461.244683 
L 334.096226 453.683491 
L 334.315779 378.54521 
L 334.535333 382.602599 
L 334.754886 379.981411 
L 334.974439 422.868288 
L 335.193992 514.417956 
L 335.413545 472.14686 
L 335.633098 376.665941 
L 335.852651 537.050209 
L 336.072205 461.442127 
L 336.291758 513.531289 
L 336.511311 510.017909 
L 336.730864 448.557126 
L 336.950417 313.104254 
L 337.16997 465.617374 
L 337.389524 356.485508 
L 337.609077 338.767005 
L 337.82863 468.008312 
L 338.048183 391.043693 
L 338.267736 521.727452 
L 338.487289 413.89 
L 338.706842 518.621169 
L 338.926396 398.918198 
L 339.145949 435.628291 
L 339.365502 346.169742 
L 339.585055 362.170594 
L 339.804608 491.802654 
L 340.024161 471.829197 
L 340.243715 511.777863 
L 340.463268 344.534339 
L 340.682821 493.099556 
L 340.902374 469.801782 
L 341.121927 420.18442 
L 341.34148 503.356407 
L 341.561033 500.903497 
L 341.780587 432.353367 
L 342.00014 537.346172 
L 342.219693 360.501964 
L 342.439246 362.529324 
L 342.658799 479.100708 
L 342.878352 352.147003 
L 343.097906 427.778203 
L 343.317459 404.048738 
L 343.537012 482.654962 
L 343.756565 431.860341 
L 343.976118 444.34201 
L 344.195671 413.455921 
L 344.415224 428.768286 
L 344.634778 416.884697 
L 344.854331 424.206052 
L 345.073884 483.682711 
L 345.293437 426.897003 
L 345.51299 522.683468 
L 345.732543 265.312857 
L 345.952096 401.08465 
L 346.17165 235.612855 
L 346.391203 484.676527 
L 346.610756 545.859102 
L 346.830309 299.672684 
L 347.049862 438.309697 
L 347.269415 377.615378 
L 347.488969 438.285101 
L 347.708522 307.367271 
L 347.928075 435.564679 
L 348.147628 283.45874 
L 348.367181 458.308107 
L 348.586734 496.150035 
L 348.806287 393.252643 
L 349.025841 517.306725 
L 349.245394 419.536962 
L 349.464947 561.588266 
L 349.6845 432.013099 
L 349.904053 467.303555 
L 350.123606 463.166976 
L 350.34316 415.60508 
L 350.562713 406.932105 
L 350.782266 353.081934 
L 351.001819 347.90634 
L 351.221372 294.265144 
L 351.440925 457.888305 
L 351.660478 380.477159 
L 351.880032 419.233124 
L 352.099585 398.7351 
L 352.319138 410.729228 
L 352.538691 500.513356 
L 352.758244 500.795015 
L 352.977797 535.771821 
L 353.197351 367.428529 
L 353.416904 469.873696 
L 353.636457 320.10664 
L 353.85601 362.872943 
L 354.295116 515.852284 
L 354.514669 412.690264 
L 354.734223 399.924769 
L 354.953776 479.862396 
L 355.173329 480.515176 
L 355.392882 368.941094 
L 355.612435 475.179468 
L 355.831988 415.704517 
L 356.051542 478.200141 
L 356.271095 482.603512 
L 356.710201 438.009358 
L 356.929754 435.474946 
L 357.149307 496.872822 
L 357.36886 513.763413 
L 357.588414 389.317837 
L 357.807967 433.211159 
L 358.02752 529.469246 
L 358.247073 519.180228 
L 358.466626 407.30446 
L 358.686179 426.691835 
L 358.905733 291.144022 
L 359.125286 454.462986 
L 359.564392 411.277505 
L 359.783945 441.238585 
L 360.003498 366.694628 
L 360.442605 539.083649 
L 360.662158 520.859718 
L 360.881711 527.843586 
L 361.101264 342.37395 
L 361.320817 359.263325 
L 361.54037 441.504968 
L 361.759924 321.452259 
L 361.979477 515.508996 
L 362.19903 388.426301 
L 362.418583 465.470096 
L 362.638136 433.567591 
L 362.857689 425.55605 
L 363.077242 337.486256 
L 363.296796 487.189616 
L 363.516349 513.960785 
L 363.735902 443.883154 
L 363.955455 525.200456 
L 364.175008 442.887772 
L 364.614115 476.329091 
L 364.833668 383.532863 
L 365.053221 406.986976 
L 365.272774 350.051218 
L 365.492327 485.176983 
L 365.71188 378.645672 
L 365.931433 415.600285 
L 366.150987 538.058093 
L 366.37054 434.690001 
L 366.590093 405.768673 
L 366.809646 484.917083 
L 367.029199 474.018921 
L 367.248752 280.382937 
L 367.468306 457.762074 
L 367.687859 419.090035 
L 367.907412 409.506213 
L 368.126965 391.704968 
L 368.346518 415.164818 
L 368.566071 482.3113 
L 368.785624 485.037014 
L 369.005178 449.022919 
L 369.444284 472.255119 
L 369.663837 527.669318 
L 369.88339 431.871013 
L 370.102943 427.162324 
L 370.322497 420.043709 
L 370.54205 337.091862 
L 370.761603 391.859742 
L 370.981156 507.224417 
L 371.200709 521.493206 
L 371.420262 449.658382 
L 371.639815 333.096739 
L 372.078922 480.156202 
L 372.298475 511.372369 
L 372.518028 450.329898 
L 372.737581 506.154256 
L 373.176687 292.808708 
L 373.396241 494.114823 
L 373.835347 448.132252 
L 374.0549 548.022636 
L 374.274453 435.271253 
L 374.494006 428.432175 
L 374.71356 511.044147 
L 374.933113 458.278141 
L 375.152666 160.962202 
L 375.372219 469.697219 
L 375.591772 416.484193 
L 375.811325 437.280469 
L 376.030878 385.973283 
L 376.250432 441.136511 
L 376.469985 433.319461 
L 376.689538 466.248651 
L 376.909091 521.121363 
L 377.128644 279.538867 
L 377.567751 463.94187 
L 377.787304 487.532032 
L 378.006857 538.969624 
L 378.22641 378.174103 
L 378.665516 447.564246 
L 378.885069 409.677891 
L 379.104623 412.216362 
L 379.324176 359.778866 
L 379.543729 394.397677 
L 379.763282 452.003532 
L 379.982835 441.010047 
L 380.202388 491.344709 
L 380.421942 412.032504 
L 380.641495 373.362676 
L 380.861048 503.480824 
L 381.300154 380.380812 
L 381.519707 435.104037 
L 381.73926 327.665475 
L 381.958814 374.290153 
L 382.178367 374.32816 
L 382.39792 387.59297 
L 382.617473 496.366981 
L 382.837026 421.066465 
L 383.056579 527.443273 
L 383.276133 425.01753 
L 383.495686 406.358883 
L 383.715239 457.344898 
L 383.934792 469.792903 
L 384.373898 381.371228 
L 384.813005 487.812262 
L 385.032558 410.590236 
L 385.252111 471.357192 
L 385.471664 443.917265 
L 385.691217 388.310819 
L 385.91077 453.466347 
L 386.130324 441.926213 
L 386.349877 398.590851 
L 386.56943 416.744462 
L 386.788983 494.814021 
L 387.008536 463.185357 
L 387.228089 379.166134 
L 387.447642 482.933918 
L 387.667196 385.926606 
L 387.886749 465.817099 
L 388.106302 470.255843 
L 388.325855 414.143866 
L 388.545408 422.195172 
L 388.764961 345.008714 
L 388.984515 502.914974 
L 389.204068 431.696393 
L 389.423621 500.143676 
L 389.643174 278.145424 
L 389.862727 433.556436 
L 390.08228 451.757845 
L 390.521387 399.269898 
L 390.74094 420.450306 
L 390.960493 458.237584 
L 391.180046 429.471631 
L 391.399599 264.074789 
L 391.619152 497.599592 
L 391.838706 423.43021 
L 392.058259 391.325481 
L 392.277812 463.025551 
L 392.497365 437.95835 
L 392.716918 451.443461 
L 392.936471 479.373444 
L 393.156024 299.328734 
L 393.375578 458.85715 
L 393.595131 372.313284 
L 393.814684 388.181239 
L 394.034237 233.078099 
L 394.473343 431.863417 
L 394.692897 216.775161 
L 395.132003 395.668724 
L 395.351556 193.619705 
L 395.571109 422.120225 
L 395.790662 475.636734 
L 396.010215 482.882027 
L 396.449322 549.939877 
L 396.668875 260.809027 
L 396.888428 440.425632 
L 397.107981 298.107153 
L 397.327534 500.336044 
L 397.766641 392.046994 
L 398.205747 462.340727 
L 398.4253 485.125086 
L 398.644853 229.007965 
L 398.864406 321.729406 
L 399.08396 495.346038 
L 399.303513 340.701686 
L 399.742619 501.455622 
L 400.181725 439.449872 
L 400.620832 422.789023 
L 400.840385 493.319326 
L 401.059938 314.859364 
L 401.279491 481.585741 
L 401.499044 356.738543 
L 401.718597 451.674562 
L 401.938151 306.571581 
L 402.157704 508.792103 
L 402.377257 430.074177 
L 402.59681 463.632333 
L 402.816363 404.924174 
L 403.035916 479.280009 
L 403.255469 406.1787 
L 403.475023 532.815091 
L 403.694576 479.964405 
L 403.914129 491.516034 
L 404.133682 480.764091 
L 404.353235 365.868934 
L 404.572788 482.848888 
L 404.792342 477.942331 
L 405.011895 459.261158 
L 405.231448 573.81082 
L 405.670554 319.397577 
L 405.890107 246.035811 
L 406.10966 336.362544 
L 406.329214 250.680902 
L 406.76832 525.333134 
L 406.987873 410.431404 
L 407.207426 378.045181 
L 407.426979 532.954043 
L 407.646533 415.21248 
L 408.085639 573.17342 
L 408.305192 465.319102 
L 408.524745 518.906351 
L 408.744298 407.331144 
L 408.963851 572.123831 
L 409.402958 422.389786 
L 409.622511 461.198067 
L 409.842064 437.737981 
L 410.061617 483.906852 
L 410.28117 403.806463 
L 410.500724 406.670434 
L 410.720277 434.099051 
L 410.93983 432.763027 
L 411.378936 398.398108 
L 411.598489 392.152997 
L 412.037596 486.170099 
L 412.257149 285.613578 
L 412.696255 423.926859 
L 412.915808 438.155939 
L 413.135361 350.857742 
L 413.354915 397.847934 
L 413.574468 473.44198 
L 413.794021 497.749865 
L 414.233127 346.574772 
L 414.45268 434.994275 
L 414.891787 526.743954 
L 415.11134 343.544507 
L 415.550446 425.214563 
L 415.989552 305.264119 
L 416.428659 478.174385 
L 416.648212 322.240461 
L 416.867765 284.272254 
L 417.087318 322.129301 
L 417.306871 225.957438 
L 417.526424 475.770537 
L 417.745978 254.510068 
L 417.965531 438.010364 
L 418.185084 475.956237 
L 418.62419 445.059513 
L 418.843743 313.281498 
L 419.063297 374.033664 
L 419.28285 398.693983 
L 419.502403 480.848122 
L 419.721956 461.208183 
L 419.941509 407.491895 
L 420.161062 435.900334 
L 420.380615 423.289636 
L 420.600169 423.153643 
L 420.819722 493.224026 
L 421.039275 410.317995 
L 421.258828 445.296745 
L 421.478381 325.9321 
L 421.697934 449.870682 
L 421.917488 418.678814 
L 422.137041 258.017997 
L 422.356594 387.876656 
L 422.576147 380.345921 
L 422.7957 458.172591 
L 423.015253 439.939939 
L 423.45436 509.859051 
L 423.893466 445.428521 
L 424.113019 374.137995 
L 424.332572 531.057581 
L 424.771678 507.515 
L 425.210785 418.982239 
L 425.430338 533.84449 
L 425.649891 378.916814 
L 426.088997 464.247414 
L 426.308551 345.29816 
L 426.528104 507.594609 
L 426.747657 531.038328 
L 426.96721 131.956182 
L 427.186763 499.944312 
L 427.406316 431.791086 
L 427.625869 475.690352 
L 427.845423 323.784112 
L 428.064976 419.782716 
L 428.284529 450.520408 
L 428.504082 445.535709 
L 428.723635 519.001105 
L 428.943188 446.373636 
L 429.162742 435.848135 
L 429.382295 284.753748 
L 429.601848 398.901409 
L 429.821401 434.735908 
L 430.040954 503.672011 
L 430.260507 499.073648 
L 430.48006 425.815505 
L 430.699614 396.109485 
L 430.919167 488.154866 
L 431.13872 421.876759 
L 431.358273 531.485232 
L 431.577826 474.907269 
L 431.797379 314.869509 
L 432.016933 369.541138 
L 432.236486 496.264559 
L 432.456039 495.11754 
L 432.675592 403.295386 
L 433.114698 466.890624 
L 433.334251 489.301418 
L 433.773358 475.591269 
L 433.992911 463.48994 
L 434.212464 392.975732 
L 434.432017 467.559656 
L 434.65157 195.333504 
L 434.871124 237.413961 
L 435.090677 446.58148 
L 435.31023 410.401373 
L 435.529783 394.331543 
L 435.749336 440.899669 
L 435.968889 372.99806 
L 436.188442 429.746449 
L 436.407996 351.167997 
L 436.847102 506.946585 
L 437.066655 413.035968 
L 437.286208 540.250963 
L 437.505761 359.561399 
L 437.725315 507.490829 
L 437.944868 450.026365 
L 438.164421 521.631096 
L 438.383974 466.065849 
L 438.603527 502.217198 
L 438.82308 492.067977 
L 439.042633 454.685888 
L 439.262187 308.219664 
L 439.48174 509.489015 
L 439.701293 439.762658 
L 439.920846 481.615969 
L 440.140399 377.29145 
L 440.579506 527.822335 
L 441.238165 402.904097 
L 441.457718 482.015797 
L 441.677271 461.583383 
L 441.896824 393.145443 
L 442.116378 523.830379 
L 442.335931 520.023456 
L 442.555484 432.402268 
L 442.775037 433.942871 
L 442.99459 368.46415 
L 443.214143 487.098788 
L 443.433697 298.062448 
L 443.65325 345.387162 
L 443.872803 464.578058 
L 444.092356 472.136589 
L 444.311909 307.002734 
L 444.531462 441.259168 
L 444.751015 363.942648 
L 445.190122 487.060109 
L 445.409675 296.042331 
L 445.629228 423.608716 
L 446.068334 396.850673 
L 446.287888 378.96194 
L 446.726994 566.77349 
L 447.1661 484.585039 
L 447.385653 385.837306 
L 447.82476 492.5663 
L 448.044313 390.804425 
L 448.263866 464.824055 
L 448.483419 468.034481 
L 448.702972 412.244334 
L 448.922525 476.765131 
L 449.142079 272.628781 
L 449.361632 481.266878 
L 449.581185 517.049191 
L 449.800738 400.17755 
L 450.239844 480.663243 
L 450.459397 345.676517 
L 450.678951 394.707324 
L 450.898504 509.725933 
L 451.118057 380.56493 
L 451.557163 556.682884 
L 451.776716 376.340566 
L 451.996269 376.173268 
L 452.215823 524.44597 
L 452.435376 437.27295 
L 452.654929 427.188897 
L 452.874482 430.231556 
L 453.094035 394.257441 
L 453.313588 525.443591 
L 453.533142 455.609642 
L 453.752695 450.050182 
L 453.972248 482.619667 
L 454.411354 272.705872 
L 454.85046 447.165195 
L 455.070014 457.58221 
L 455.289567 361.531991 
L 455.50912 379.065447 
L 455.948226 511.771507 
L 456.167779 465.812989 
L 456.387333 167.78209 
L 456.606886 465.063642 
L 456.826439 425.784859 
L 457.045992 466.904439 
L 457.265545 298.620192 
L 457.485098 331.546429 
L 457.704651 421.960582 
L 457.924205 451.358597 
L 458.143758 515.003336 
L 458.363311 530.033851 
L 458.582864 397.047738 
L 458.802417 463.575793 
L 459.02197 411.6809 
L 459.241524 503.912088 
L 459.461077 371.094606 
L 459.900183 479.409139 
L 460.119736 511.170592 
L 460.339289 406.701215 
L 460.558842 507.391409 
L 460.778396 341.014774 
L 460.997949 461.101885 
L 461.217502 483.662826 
L 461.437055 450.220393 
L 461.656608 396.392472 
L 461.876161 455.970467 
L 462.095715 463.267108 
L 462.315268 430.057388 
L 462.534821 424.635705 
L 462.754374 512.217366 
L 462.973927 287.260264 
L 463.19348 412.087848 
L 463.413033 461.799516 
L 463.632587 442.549731 
L 463.85214 348.712795 
L 464.071693 399.724315 
L 464.291246 357.510657 
L 464.510799 390.787089 
L 464.730352 480.939766 
L 464.949906 429.86976 
L 465.169459 503.597777 
L 465.608565 209.924602 
L 465.828118 432.301216 
L 466.047671 531.937191 
L 466.267224 469.382584 
L 466.486778 467.149226 
L 466.925884 357.718665 
L 467.145437 380.528561 
L 467.584543 473.924595 
L 467.804097 332.009641 
L 468.02365 392.353274 
L 468.243203 409.499253 
L 468.462756 520.603344 
L 468.901862 389.757574 
L 469.121415 509.377779 
L 469.340969 321.348263 
L 469.560522 452.112889 
L 469.780075 490.063821 
L 469.999628 379.390649 
L 470.438734 448.536201 
L 470.658288 299.514695 
L 470.877841 520.969584 
L 471.097394 402.645297 
L 471.316947 372.283048 
L 471.5365 442.372702 
L 471.756053 446.408639 
L 471.975606 423.756473 
L 472.19516 416.86479 
L 472.414713 431.948864 
L 472.634266 346.437441 
L 472.853819 486.720208 
L 473.073372 494.131646 
L 473.292925 441.417316 
L 473.732032 499.062914 
L 473.951585 433.119225 
L 474.171138 329.940598 
L 474.390691 347.486731 
L 474.610244 470.168686 
L 474.829797 506.03767 
L 475.049351 504.08097 
L 475.488457 455.657915 
L 475.70801 401.210725 
L 476.147116 479.386815 
L 476.366669 463.106852 
L 476.586223 381.882748 
L 476.805776 510.136643 
L 477.025329 393.294938 
L 477.244882 493.823647 
L 477.464435 501.153562 
L 478.123095 381.814738 
L 478.342648 509.649872 
L 478.562201 537.088575 
L 478.781754 406.703868 
L 479.001307 427.037464 
L 479.22086 465.191432 
L 479.659967 382.699911 
L 479.87952 373.460582 
L 480.099073 459.174244 
L 480.318626 345.02204 
L 480.538179 477.425614 
L 480.757733 470.148367 
L 480.977286 337.875852 
L 481.196839 359.919092 
L 481.416392 473.400143 
L 481.635945 414.582773 
L 481.855498 530.127026 
L 482.075051 447.376918 
L 482.294605 427.156009 
L 482.514158 555.056082 
L 482.733711 528.32429 
L 482.953264 414.346201 
L 483.172817 509.874032 
L 483.39237 460.872507 
L 483.611924 357.284345 
L 483.831477 479.512847 
L 484.05103 476.093041 
L 484.270583 477.465945 
L 484.490136 404.164609 
L 484.709689 400.493891 
L 484.929242 499.560961 
L 485.587902 394.428638 
L 485.807455 432.723735 
L 486.027008 505.687497 
L 486.246561 415.834007 
L 486.466115 470.033041 
L 486.685668 475.047928 
L 486.905221 440.853872 
L 487.124774 447.281576 
L 487.344327 460.135334 
L 487.56388 391.702948 
L 487.783433 452.411562 
L 488.002987 390.423201 
L 488.442093 474.174441 
L 488.661646 506.607955 
L 488.881199 471.232555 
L 489.100752 489.293393 
L 489.320306 566.365084 
L 489.539859 353.19955 
L 489.978965 511.596717 
L 490.418071 423.290026 
L 490.637624 461.84732 
L 490.857178 457.101187 
L 491.076731 502.76085 
L 491.296284 464.099143 
L 491.515837 499.68198 
L 491.73539 463.570781 
L 491.954943 480.346771 
L 492.174497 411.740268 
L 492.39405 518.211965 
L 492.613603 365.90948 
L 493.052709 398.965574 
L 493.272262 328.583154 
L 493.491815 446.118785 
L 493.930922 338.20407 
L 494.150475 433.692289 
L 494.370028 304.054674 
L 494.589581 482.448324 
L 495.028688 449.985629 
L 495.248241 424.640771 
L 495.467794 431.369039 
L 495.9069 351.413879 
L 496.126453 384.59805 
L 496.346006 508.221063 
L 496.56556 412.925641 
L 496.785113 389.045762 
L 497.004666 496.953285 
L 497.224219 374.166122 
L 497.443772 408.892261 
L 497.663325 370.501868 
L 497.882879 384.138525 
L 498.102432 449.776922 
L 498.321985 282.486248 
L 498.541538 452.559041 
L 498.761091 424.113425 
L 498.980644 484.373111 
L 499.200197 201.254645 
L 499.419751 485.69413 
L 499.639304 490.734188 
L 499.858857 354.936505 
L 500.07841 486.487274 
L 500.297963 488.836853 
L 500.73707 420.108637 
L 500.956623 513.151972 
L 501.176176 347.779188 
L 501.395729 527.13129 
L 501.615282 336.015107 
L 502.054388 476.596351 
L 502.493495 355.198179 
L 502.932601 518.68822 
L 503.152154 374.196169 
L 503.371707 468.633026 
L 503.59126 492.480801 
L 504.030367 369.85485 
L 504.24992 325.13715 
L 504.469473 317.750317 
L 504.689026 496.029673 
L 504.908579 514.157298 
L 505.128133 494.476081 
L 505.347686 380.819589 
L 505.567239 539.583488 
L 505.786792 409.035559 
L 506.006345 488.053827 
L 506.225898 427.538701 
L 506.445451 409.171451 
L 506.665005 466.278631 
L 507.104111 420.489904 
L 507.323664 272.510047 
L 507.76277 499.506682 
L 507.982324 469.59489 
L 508.201877 382.771752 
L 508.42143 487.636414 
L 508.640983 488.432742 
L 508.860536 484.315574 
L 509.080089 374.245472 
L 509.299642 382.612523 
L 509.738749 549.342801 
L 509.958302 417.006469 
L 510.177855 481.784225 
L 510.397408 285.952206 
L 510.836515 498.468669 
L 511.056068 436.372783 
L 511.275621 489.084399 
L 511.495174 389.644847 
L 511.714727 446.390535 
L 511.93428 416.081108 
L 512.153833 479.141851 
L 512.373387 472.987439 
L 512.59294 420.31395 
L 512.812493 419.511944 
L 513.032046 365.28409 
L 513.251599 502.296577 
L 513.471152 503.168039 
L 513.690706 405.164079 
L 513.910259 421.850479 
L 514.129812 421.565443 
L 514.349365 498.488481 
L 514.568918 333.538841 
L 514.788471 477.589176 
L 515.008024 525.193449 
L 515.447131 377.391699 
L 515.666684 379.966273 
L 515.886237 360.409534 
L 516.10579 360.796691 
L 516.325343 480.53658 
L 516.544897 393.932867 
L 516.76445 396.402559 
L 516.984003 471.511897 
L 517.203556 439.114557 
L 517.423109 478.638303 
L 517.862215 207.806551 
L 518.081769 442.350005 
L 518.301322 389.065738 
L 518.520875 476.989391 
L 518.740428 411.491388 
L 519.179534 451.276888 
L 519.399088 425.741106 
L 519.618641 382.186322 
L 519.838194 490.922817 
L 520.057747 517.557724 
L 520.496853 437.346438 
L 520.93596 525.824809 
L 521.155513 335.326767 
L 521.375066 490.015037 
L 521.594619 479.00976 
L 521.814172 508.41588 
L 522.033725 553.118574 
L 522.253279 451.921446 
L 522.472832 403.443828 
L 522.911938 457.097164 
L 523.131491 375.541561 
L 523.351044 434.094136 
L 523.570597 383.122456 
L 523.790151 176.970002 
L 524.009704 386.100064 
L 524.229257 336.496016 
L 524.44881 400.903601 
L 524.668363 415.513547 
L 524.887916 384.523979 
L 525.10747 545.361282 
L 525.327023 376.966103 
L 525.546576 511.194821 
L 525.766129 498.283598 
L 525.985682 419.299335 
L 526.205235 445.939808 
L 526.424788 491.399788 
L 526.644342 380.087057 
L 527.083448 336.681007 
L 527.303001 348.886506 
L 527.522554 432.808972 
L 527.742107 421.477708 
L 527.96166 422.607788 
L 528.181214 488.692844 
L 528.839873 385.049293 
L 529.059426 506.955812 
L 529.278979 386.637557 
L 529.498533 479.028703 
L 529.718086 383.713143 
L 530.157192 417.549591 
L 530.376745 417.017986 
L 530.596298 405.035017 
L 530.815851 447.530629 
L 531.035405 518.209137 
L 531.254958 408.424534 
L 531.474511 421.831518 
L 531.694064 442.300073 
L 531.913617 495.125265 
L 532.352724 360.556437 
L 532.572277 380.924658 
L 532.79183 353.602303 
L 533.011383 470.962149 
L 533.230936 434.32119 
L 533.670042 452.088647 
L 533.889596 431.4621 
L 534.109149 362.279606 
L 534.328702 553.805774 
L 534.548255 323.239234 
L 534.767808 349.55134 
L 534.987361 465.153969 
L 535.206915 318.983615 
L 535.426468 511.270716 
L 535.646021 383.084287 
L 536.085127 526.830151 
L 536.30468 453.225655 
L 536.524233 509.721723 
L 536.96334 449.713962 
L 537.182893 531.285231 
L 537.402446 412.295125 
L 537.621999 491.826405 
L 538.061106 437.507166 
L 538.280659 485.093811 
L 538.500212 436.776527 
L 538.719765 349.099146 
L 538.939318 430.21959 
L 539.158871 297.519675 
L 539.378424 446.868309 
L 539.817531 402.979888 
L 540.037084 411.522625 
L 540.256637 523.209923 
L 540.47619 452.807617 
L 540.695743 426.302993 
L 540.915297 367.472374 
L 541.573956 441.149466 
L 541.793509 447.107754 
L 542.013062 519.504795 
L 542.232615 415.85143 
L 542.452169 498.094039 
L 542.891275 429.621526 
L 543.110828 504.34865 
L 543.330381 358.511928 
L 543.549934 375.580006 
L 543.769488 484.288296 
L 543.989041 492.980868 
L 544.208594 261.794866 
L 544.6477 460.099623 
L 544.867253 423.706879 
L 545.525913 519.857609 
L 545.745466 353.92547 
L 545.745466 353.92547 
" style="fill:none;stroke:#96c69a;stroke-linecap:round;stroke-width:3;"/>
   </g>
   <g id="line2d_2"/>
   <g id="patch_3">
    <path d="M 84.914375 603.86 
L 84.914375 109.484571 
" style="fill:none;stroke:#262626;stroke-linecap:square;stroke-linejoin:miter;stroke-width:2.5;"/>
   </g>
   <g id="patch_4">
    <path d="M 84.914375 603.86 
L 567.689804 603.86 
" style="fill:none;stroke:#262626;stroke-linecap:square;stroke-linejoin:miter;stroke-width:2.5;"/>
   </g>
   <g id="legend_1">
    <g id="patch_5">
     <path d="M 514.774179 598.86 
L 560.689804 598.86 
Q 562.689804 598.86 562.689804 596.86 
L 562.689804 554.954375 
Q 562.689804 552.954375 560.689804 552.954375 
L 514.774179 552.954375 
Q 512.774179 552.954375 512.774179 554.954375 
L 512.774179 596.86 
Q 512.774179 598.86 514.774179 598.86 
z
" style="fill:#ffffff;opacity:0.8;stroke:#cccccc;stroke-linejoin:miter;stroke-width:2;"/>
    </g>
    <g id="text_17">
     <!-- $n_\tau$ -->
     <g style="fill:#262626;" transform="translate(524.651991 575.190625)scale(0.24 -0.24)">
      <defs>
       <path d="M 3566 2113 
L 3156 0 
L 2578 0 
L 2988 2091 
Q 3016 2238 3031 2350 
Q 3047 2463 3047 2528 
Q 3047 2791 2881 2937 
Q 2716 3084 2419 3084 
Q 1956 3084 1622 2776 
Q 1288 2469 1184 1941 
L 800 0 
L 225 0 
L 903 3500 
L 1478 3500 
L 1363 2950 
Q 1603 3253 1940 3418 
Q 2278 3584 2650 3584 
Q 3113 3584 3367 3334 
Q 3622 3084 3622 2631 
Q 3622 2519 3608 2391 
Q 3594 2263 3566 2113 
z
" id="DejaVuSans-Oblique-6e" transform="scale(0.015625)"/>
       <path d="M 2103 638 
Q 2188 488 2525 488 
L 2800 488 
L 2706 0 
L 2363 0 
Q 1800 0 1600 300 
Q 1403 606 1534 1269 
L 1856 2925 
L 541 2925 
L 653 3500 
L 3881 3500 
L 3769 2925 
L 2444 2925 
L 2113 1234 
Q 2025 781 2103 638 
z
" id="DejaVuSans-Oblique-3c4" transform="scale(0.015625)"/>
      </defs>
      <use xlink:href="#DejaVuSans-Oblique-6e"/>
      <use transform="translate(63.378906 -16.40625)scale(0.7)" xlink:href="#DejaVuSans-Oblique-3c4"/>
     </g>
    </g>
    <g id="line2d_3">
     <path d="M 516.774179 589.280313 
L 536.774179 589.280313 
" style="fill:none;stroke:#96c69a;stroke-linecap:round;stroke-width:3;"/>
    </g>
    <g id="line2d_4"/>
    <g id="text_18">
     <!-- 25 -->
     <g style="fill:#262626;" transform="translate(544.774179 592.780313)scale(0.1 -0.1)">
      <defs>
       <path d="M 1844 884 
L 3897 884 
L 3897 0 
L 506 0 
L 506 884 
L 2209 2388 
Q 2438 2594 2547 2791 
Q 2656 2988 2656 3200 
Q 2656 3528 2436 3728 
Q 2216 3928 1850 3928 
Q 1569 3928 1234 3808 
Q 900 3688 519 3450 
L 519 4475 
Q 925 4609 1322 4679 
Q 1719 4750 2100 4750 
Q 2938 4750 3402 4381 
Q 3866 4013 3866 3353 
Q 3866 2972 3669 2642 
Q 3472 2313 2841 1759 
L 1844 884 
z
" id="DejaVuSans-Bold-32" transform="scale(0.015625)"/>
       <path d="M 678 4666 
L 3669 4666 
L 3669 3781 
L 1638 3781 
L 1638 3059 
Q 1775 3097 1914 3117 
Q 2053 3138 2203 3138 
Q 3056 3138 3531 2711 
Q 4006 2284 4006 1522 
Q 4006 766 3489 337 
Q 2972 -91 2053 -91 
Q 1656 -91 1267 -14 
Q 878 63 494 219 
L 494 1166 
Q 875 947 1217 837 
Q 1559 728 1863 728 
Q 2300 728 2551 942 
Q 2803 1156 2803 1522 
Q 2803 1891 2551 2103 
Q 2300 2316 1863 2316 
Q 1603 2316 1309 2248 
Q 1016 2181 678 2041 
L 678 4666 
z
" id="DejaVuSans-Bold-35" transform="scale(0.015625)"/>
      </defs>
      <use xlink:href="#DejaVuSans-Bold-32"/>
      <use x="69.580078" xlink:href="#DejaVuSans-Bold-35"/>
     </g>
    </g>
   </g>
  </g>
  <g id="axes_2">
   <g id="patch_6">
    <path d="M 84.914375 92.437143 
L 567.689804 92.437143 
L 567.689804 7.2 
L 84.914375 7.2 
z
" style="fill:none;"/>
   </g>
   <g id="matplotlib.axis_3">
    <g id="xtick_7"/>
    <g id="xtick_8"/>
    <g id="xtick_9"/>
    <g id="xtick_10"/>
    <g id="xtick_11"/>
    <g id="xtick_12"/>
   </g>
   <g id="matplotlib.axis_4">
    <g id="ytick_9">
     <g id="text_19">
      <!-- 0 -->
      <g style="fill:#262626;" transform="translate(55.416875 100.795424)scale(0.22 -0.22)">
       <use xlink:href="#DejaVuSans-30"/>
      </g>
     </g>
    </g>
    <g id="ytick_10">
     <g id="text_20">
      <!-- 100 -->
      <g style="fill:#262626;" transform="translate(27.421875 48.082287)scale(0.22 -0.22)">
       <use xlink:href="#DejaVuSans-31"/>
       <use x="63.623047" xlink:href="#DejaVuSans-30"/>
       <use x="127.246094" xlink:href="#DejaVuSans-30"/>
      </g>
     </g>
    </g>
   </g>
   <g id="patch_7">
    <path clip-path="url(#pb737af5c19)" d="M 106.858713 92.437143 
L 140.619232 92.437143 
L 140.619232 11.258912 
L 106.858713 11.258912 
z
" style="fill:#96c69a;fill-opacity:0.5;stroke:#ffffff;stroke-linejoin:miter;stroke-width:2;"/>
   </g>
   <g id="patch_8">
    <path clip-path="url(#pb737af5c19)" d="M 140.619232 92.437143 
L 174.379752 92.437143 
L 174.379752 11.258912 
L 140.619232 11.258912 
z
" style="fill:#96c69a;fill-opacity:0.5;stroke:#ffffff;stroke-linejoin:miter;stroke-width:2;"/>
   </g>
   <g id="patch_9">
    <path clip-path="url(#pb737af5c19)" d="M 174.379752 92.437143 
L 208.140271 92.437143 
L 208.140271 11.258912 
L 174.379752 11.258912 
z
" style="fill:#96c69a;fill-opacity:0.5;stroke:#ffffff;stroke-linejoin:miter;stroke-width:2;"/>
   </g>
   <g id="patch_10">
    <path clip-path="url(#pb737af5c19)" d="M 208.140271 92.437143 
L 241.900791 92.437143 
L 241.900791 11.258912 
L 208.140271 11.258912 
z
" style="fill:#96c69a;fill-opacity:0.5;stroke:#ffffff;stroke-linejoin:miter;stroke-width:2;"/>
   </g>
   <g id="patch_11">
    <path clip-path="url(#pb737af5c19)" d="M 241.900791 92.437143 
L 275.66131 92.437143 
L 275.66131 11.786043 
L 241.900791 11.786043 
z
" style="fill:#96c69a;fill-opacity:0.5;stroke:#ffffff;stroke-linejoin:miter;stroke-width:2;"/>
   </g>
   <g id="patch_12">
    <path clip-path="url(#pb737af5c19)" d="M 275.66131 92.437143 
L 309.42183 92.437143 
L 309.42183 11.258912 
L 275.66131 11.258912 
z
" style="fill:#96c69a;fill-opacity:0.5;stroke:#ffffff;stroke-linejoin:miter;stroke-width:2;"/>
   </g>
   <g id="patch_13">
    <path clip-path="url(#pb737af5c19)" d="M 309.42183 92.437143 
L 343.182349 92.437143 
L 343.182349 11.258912 
L 309.42183 11.258912 
z
" style="fill:#96c69a;fill-opacity:0.5;stroke:#ffffff;stroke-linejoin:miter;stroke-width:2;"/>
   </g>
   <g id="patch_14">
    <path clip-path="url(#pb737af5c19)" d="M 343.182349 92.437143 
L 376.942869 92.437143 
L 376.942869 11.258912 
L 343.182349 11.258912 
z
" style="fill:#96c69a;fill-opacity:0.5;stroke:#ffffff;stroke-linejoin:miter;stroke-width:2;"/>
   </g>
   <g id="patch_15">
    <path clip-path="url(#pb737af5c19)" d="M 376.942869 92.437143 
L 410.703388 92.437143 
L 410.703388 11.786043 
L 376.942869 11.786043 
z
" style="fill:#96c69a;fill-opacity:0.5;stroke:#ffffff;stroke-linejoin:miter;stroke-width:2;"/>
   </g>
   <g id="patch_16">
    <path clip-path="url(#pb737af5c19)" d="M 410.703388 92.437143 
L 444.463907 92.437143 
L 444.463907 11.258912 
L 410.703388 11.258912 
z
" style="fill:#96c69a;fill-opacity:0.5;stroke:#ffffff;stroke-linejoin:miter;stroke-width:2;"/>
   </g>
   <g id="patch_17">
    <path clip-path="url(#pb737af5c19)" d="M 444.463907 92.437143 
L 478.224427 92.437143 
L 478.224427 11.258912 
L 444.463907 11.258912 
z
" style="fill:#96c69a;fill-opacity:0.5;stroke:#ffffff;stroke-linejoin:miter;stroke-width:2;"/>
   </g>
   <g id="patch_18">
    <path clip-path="url(#pb737af5c19)" d="M 478.224427 92.437143 
L 511.984946 92.437143 
L 511.984946 11.258912 
L 478.224427 11.258912 
z
" style="fill:#96c69a;fill-opacity:0.5;stroke:#ffffff;stroke-linejoin:miter;stroke-width:2;"/>
   </g>
   <g id="patch_19">
    <path clip-path="url(#pb737af5c19)" d="M 511.984946 92.437143 
L 545.745466 92.437143 
L 545.745466 11.258912 
L 511.984946 11.258912 
z
" style="fill:#96c69a;fill-opacity:0.5;stroke:#ffffff;stroke-linejoin:miter;stroke-width:2;"/>
   </g>
   <g id="patch_20">
    <path d="M 84.914375 92.437143 
L 84.914375 7.2 
" style="fill:none;stroke:#262626;stroke-linecap:square;stroke-linejoin:miter;stroke-width:2.5;"/>
   </g>
   <g id="patch_21">
    <path d="M 84.914375 92.437143 
L 567.689804 92.437143 
" style="fill:none;stroke:#262626;stroke-linecap:square;stroke-linejoin:miter;stroke-width:2.5;"/>
   </g>
  </g>
  <g id="axes_3">
   <g id="patch_22">
    <path d="M 584.337232 603.86 
L 667.574375 603.86 
L 667.574375 109.484571 
L 584.337232 109.484571 
z
" style="fill:none;"/>
   </g>
   <g id="matplotlib.axis_5">
    <g id="xtick_13">
     <g id="text_21">
      <!-- 0 -->
      <g style="fill:#262626;" transform="translate(577.338482 636.076563)scale(0.22 -0.22)">
       <use xlink:href="#DejaVuSans-30"/>
      </g>
     </g>
    </g>
    <g id="xtick_14">
     <g id="text_22">
      <!-- 100 -->
      <g style="fill:#262626;" transform="translate(606.659818 636.076563)scale(0.22 -0.22)">
       <use xlink:href="#DejaVuSans-31"/>
       <use x="63.623047" xlink:href="#DejaVuSans-30"/>
       <use x="127.246094" xlink:href="#DejaVuSans-30"/>
      </g>
     </g>
    </g>
   </g>
   <g id="matplotlib.axis_6">
    <g id="ytick_11"/>
    <g id="ytick_12"/>
    <g id="ytick_13"/>
    <g id="ytick_14"/>
    <g id="ytick_15"/>
    <g id="ytick_16"/>
    <g id="ytick_17"/>
    <g id="ytick_18"/>
   </g>
   <g id="patch_23">
    <path clip-path="url(#pf4f7928a4e)" d="M 584.337232 581.38839 
L 586.069986 581.38839 
L 586.069986 567.769232 
L 584.337232 567.769232 
z
" style="fill:#96c69a;fill-opacity:0.5;stroke:#ffffff;stroke-linejoin:miter;stroke-width:1.361916;"/>
   </g>
   <g id="patch_24">
    <path clip-path="url(#pf4f7928a4e)" d="M 584.337232 567.769232 
L 588.669116 567.769232 
L 588.669116 554.150074 
L 584.337232 554.150074 
z
" style="fill:#96c69a;fill-opacity:0.5;stroke:#ffffff;stroke-linejoin:miter;stroke-width:1.361916;"/>
   </g>
   <g id="patch_25">
    <path clip-path="url(#pf4f7928a4e)" d="M 584.337232 554.150074 
L 594.733753 554.150074 
L 594.733753 540.530916 
L 584.337232 540.530916 
z
" style="fill:#96c69a;fill-opacity:0.5;stroke:#ffffff;stroke-linejoin:miter;stroke-width:1.361916;"/>
   </g>
   <g id="patch_26">
    <path clip-path="url(#pf4f7928a4e)" d="M 584.337232 540.530916 
L 605.563462 540.530916 
L 605.563462 526.911758 
L 584.337232 526.911758 
z
" style="fill:#96c69a;fill-opacity:0.5;stroke:#ffffff;stroke-linejoin:miter;stroke-width:1.361916;"/>
   </g>
   <g id="patch_27">
    <path clip-path="url(#pf4f7928a4e)" d="M 584.337232 526.911758 
L 621.591431 526.911758 
L 621.591431 513.292601 
L 584.337232 513.292601 
z
" style="fill:#96c69a;fill-opacity:0.5;stroke:#ffffff;stroke-linejoin:miter;stroke-width:1.361916;"/>
   </g>
   <g id="patch_28">
    <path clip-path="url(#pf4f7928a4e)" d="M 584.337232 513.292601 
L 633.720705 513.292601 
L 633.720705 499.673443 
L 584.337232 499.673443 
z
" style="fill:#96c69a;fill-opacity:0.5;stroke:#ffffff;stroke-linejoin:miter;stroke-width:1.361916;"/>
   </g>
   <g id="patch_29">
    <path clip-path="url(#pf4f7928a4e)" d="M 584.337232 499.673443 
L 640.21853 499.673443 
L 640.21853 486.054285 
L 584.337232 486.054285 
z
" style="fill:#96c69a;fill-opacity:0.5;stroke:#ffffff;stroke-linejoin:miter;stroke-width:1.361916;"/>
   </g>
   <g id="patch_30">
    <path clip-path="url(#pf4f7928a4e)" d="M 584.337232 486.054285 
L 657.112876 486.054285 
L 657.112876 472.435127 
L 584.337232 472.435127 
z
" style="fill:#96c69a;fill-opacity:0.5;stroke:#ffffff;stroke-linejoin:miter;stroke-width:1.361916;"/>
   </g>
   <g id="patch_31">
    <path clip-path="url(#pf4f7928a4e)" d="M 584.337232 472.435127 
L 660.578383 472.435127 
L 660.578383 458.815969 
L 584.337232 458.815969 
z
" style="fill:#96c69a;fill-opacity:0.5;stroke:#ffffff;stroke-linejoin:miter;stroke-width:1.361916;"/>
   </g>
   <g id="patch_32">
    <path clip-path="url(#pf4f7928a4e)" d="M 584.337232 458.815969 
L 648.449109 458.815969 
L 648.449109 445.196811 
L 584.337232 445.196811 
z
" style="fill:#96c69a;fill-opacity:0.5;stroke:#ffffff;stroke-linejoin:miter;stroke-width:1.361916;"/>
   </g>
   <g id="patch_33">
    <path clip-path="url(#pf4f7928a4e)" d="M 584.337232 445.196811 
L 663.610702 445.196811 
L 663.610702 431.577654 
L 584.337232 431.577654 
z
" style="fill:#96c69a;fill-opacity:0.5;stroke:#ffffff;stroke-linejoin:miter;stroke-width:1.361916;"/>
   </g>
   <g id="patch_34">
    <path clip-path="url(#pf4f7928a4e)" d="M 584.337232 431.577654 
L 653.214181 431.577654 
L 653.214181 417.958496 
L 584.337232 417.958496 
z
" style="fill:#96c69a;fill-opacity:0.5;stroke:#ffffff;stroke-linejoin:miter;stroke-width:1.361916;"/>
   </g>
   <g id="patch_35">
    <path clip-path="url(#pf4f7928a4e)" d="M 584.337232 417.958496 
L 644.983602 417.958496 
L 644.983602 404.339338 
L 584.337232 404.339338 
z
" style="fill:#96c69a;fill-opacity:0.5;stroke:#ffffff;stroke-linejoin:miter;stroke-width:1.361916;"/>
   </g>
   <g id="patch_36">
    <path clip-path="url(#pf4f7928a4e)" d="M 584.337232 404.339338 
L 639.352154 404.339338 
L 639.352154 390.72018 
L 584.337232 390.72018 
z
" style="fill:#96c69a;fill-opacity:0.5;stroke:#ffffff;stroke-linejoin:miter;stroke-width:1.361916;"/>
   </g>
   <g id="patch_37">
    <path clip-path="url(#pf4f7928a4e)" d="M 584.337232 390.72018 
L 629.82201 390.72018 
L 629.82201 377.101022 
L 584.337232 377.101022 
z
" style="fill:#96c69a;fill-opacity:0.5;stroke:#ffffff;stroke-linejoin:miter;stroke-width:1.361916;"/>
   </g>
   <g id="patch_38">
    <path clip-path="url(#pf4f7928a4e)" d="M 584.337232 377.101022 
L 613.360852 377.101022 
L 613.360852 363.481865 
L 584.337232 363.481865 
z
" style="fill:#96c69a;fill-opacity:0.5;stroke:#ffffff;stroke-linejoin:miter;stroke-width:1.361916;"/>
   </g>
   <g id="patch_39">
    <path clip-path="url(#pf4f7928a4e)" d="M 584.337232 363.481865 
L 615.526794 363.481865 
L 615.526794 349.862707 
L 584.337232 349.862707 
z
" style="fill:#96c69a;fill-opacity:0.5;stroke:#ffffff;stroke-linejoin:miter;stroke-width:1.361916;"/>
   </g>
   <g id="patch_40">
    <path clip-path="url(#pf4f7928a4e)" d="M 584.337232 349.862707 
L 609.895345 349.862707 
L 609.895345 336.243549 
L 584.337232 336.243549 
z
" style="fill:#96c69a;fill-opacity:0.5;stroke:#ffffff;stroke-linejoin:miter;stroke-width:1.361916;"/>
   </g>
   <g id="patch_41">
    <path clip-path="url(#pf4f7928a4e)" d="M 584.337232 336.243549 
L 600.79839 336.243549 
L 600.79839 322.624391 
L 584.337232 322.624391 
z
" style="fill:#96c69a;fill-opacity:0.5;stroke:#ffffff;stroke-linejoin:miter;stroke-width:1.361916;"/>
   </g>
   <g id="patch_42">
    <path clip-path="url(#pf4f7928a4e)" d="M 584.337232 322.624391 
L 598.632448 322.624391 
L 598.632448 309.005233 
L 584.337232 309.005233 
z
" style="fill:#96c69a;fill-opacity:0.5;stroke:#ffffff;stroke-linejoin:miter;stroke-width:1.361916;"/>
   </g>
   <g id="patch_43">
    <path clip-path="url(#pf4f7928a4e)" d="M 584.337232 309.005233 
L 599.065636 309.005233 
L 599.065636 295.386076 
L 584.337232 295.386076 
z
" style="fill:#96c69a;fill-opacity:0.5;stroke:#ffffff;stroke-linejoin:miter;stroke-width:1.361916;"/>
   </g>
   <g id="patch_44">
    <path clip-path="url(#pf4f7928a4e)" d="M 584.337232 295.386076 
L 591.701434 295.386076 
L 591.701434 281.766918 
L 584.337232 281.766918 
z
" style="fill:#96c69a;fill-opacity:0.5;stroke:#ffffff;stroke-linejoin:miter;stroke-width:1.361916;"/>
   </g>
   <g id="patch_45">
    <path clip-path="url(#pf4f7928a4e)" d="M 584.337232 281.766918 
L 589.968681 281.766918 
L 589.968681 268.14776 
L 584.337232 268.14776 
z
" style="fill:#96c69a;fill-opacity:0.5;stroke:#ffffff;stroke-linejoin:miter;stroke-width:1.361916;"/>
   </g>
   <g id="patch_46">
    <path clip-path="url(#pf4f7928a4e)" d="M 584.337232 268.14776 
L 590.401869 268.14776 
L 590.401869 254.528602 
L 584.337232 254.528602 
z
" style="fill:#96c69a;fill-opacity:0.5;stroke:#ffffff;stroke-linejoin:miter;stroke-width:1.361916;"/>
   </g>
   <g id="patch_47">
    <path clip-path="url(#pf4f7928a4e)" d="M 584.337232 254.528602 
L 586.936362 254.528602 
L 586.936362 240.909444 
L 584.337232 240.909444 
z
" style="fill:#96c69a;fill-opacity:0.5;stroke:#ffffff;stroke-linejoin:miter;stroke-width:1.361916;"/>
   </g>
   <g id="patch_48">
    <path clip-path="url(#pf4f7928a4e)" d="M 584.337232 240.909444 
L 586.936362 240.909444 
L 586.936362 227.290287 
L 584.337232 227.290287 
z
" style="fill:#96c69a;fill-opacity:0.5;stroke:#ffffff;stroke-linejoin:miter;stroke-width:1.361916;"/>
   </g>
   <g id="patch_49">
    <path clip-path="url(#pf4f7928a4e)" d="M 584.337232 227.290287 
L 585.203609 227.290287 
L 585.203609 213.671129 
L 584.337232 213.671129 
z
" style="fill:#96c69a;fill-opacity:0.5;stroke:#ffffff;stroke-linejoin:miter;stroke-width:1.361916;"/>
   </g>
   <g id="patch_50">
    <path clip-path="url(#pf4f7928a4e)" d="M 584.337232 213.671129 
L 586.069986 213.671129 
L 586.069986 200.051971 
L 584.337232 200.051971 
z
" style="fill:#96c69a;fill-opacity:0.5;stroke:#ffffff;stroke-linejoin:miter;stroke-width:1.361916;"/>
   </g>
   <g id="patch_51">
    <path clip-path="url(#pf4f7928a4e)" d="M 584.337232 200.051971 
L 586.936362 200.051971 
L 586.936362 186.432813 
L 584.337232 186.432813 
z
" style="fill:#96c69a;fill-opacity:0.5;stroke:#ffffff;stroke-linejoin:miter;stroke-width:1.361916;"/>
   </g>
   <g id="patch_52">
    <path clip-path="url(#pf4f7928a4e)" d="M 584.337232 186.432813 
L 585.203609 186.432813 
L 585.203609 172.813655 
L 584.337232 172.813655 
z
" style="fill:#96c69a;fill-opacity:0.5;stroke:#ffffff;stroke-linejoin:miter;stroke-width:1.361916;"/>
   </g>
   <g id="patch_53">
    <path clip-path="url(#pf4f7928a4e)" d="M 584.337232 172.813655 
L 586.069986 172.813655 
L 586.069986 159.194497 
L 584.337232 159.194497 
z
" style="fill:#96c69a;fill-opacity:0.5;stroke:#ffffff;stroke-linejoin:miter;stroke-width:1.361916;"/>
   </g>
   <g id="patch_54">
    <path clip-path="url(#pf4f7928a4e)" d="M 584.337232 159.194497 
L 584.337232 159.194497 
L 584.337232 145.57534 
L 584.337232 145.57534 
z
" style="fill:#96c69a;fill-opacity:0.5;stroke:#ffffff;stroke-linejoin:miter;stroke-width:1.361916;"/>
   </g>
   <g id="patch_55">
    <path clip-path="url(#pf4f7928a4e)" d="M 584.337232 145.57534 
L 584.770421 145.57534 
L 584.770421 131.956182 
L 584.337232 131.956182 
z
" style="fill:#96c69a;fill-opacity:0.5;stroke:#ffffff;stroke-linejoin:miter;stroke-width:1.361916;"/>
   </g>
   <g id="patch_56">
    <path d="M 584.337232 603.86 
L 584.337232 109.484571 
" style="fill:none;stroke:#262626;stroke-linecap:square;stroke-linejoin:miter;stroke-width:2.5;"/>
   </g>
   <g id="patch_57">
    <path d="M 584.337232 603.86 
L 667.574375 603.86 
" style="fill:none;stroke:#262626;stroke-linecap:square;stroke-linejoin:miter;stroke-width:2.5;"/>
   </g>
  </g>
 </g>
 <defs>
  <clipPath id="pc42a4ef433">
   <rect height="494.375429" width="482.775429" x="84.914375" y="109.484571"/>
  </clipPath>
  <clipPath id="pb737af5c19">
   <rect height="85.237143" width="482.775429" x="84.914375" y="7.2"/>
  </clipPath>
  <clipPath id="pf4f7928a4e">
   <rect height="494.375429" width="83.237143" x="584.337232" y="109.484571"/>
  </clipPath>
 </defs>
</svg>
