<?xml version="1.0" encoding="utf-8" standalone="no"?>
<!DOCTYPE svg PUBLIC "-//W3C//DTD SVG 1.1//EN"
  "http://www.w3.org/Graphics/SVG/1.1/DTD/svg11.dtd">
<svg height="675.079375pt" version="1.1" viewBox="0 0 674.774375 675.079375" width="674.774375pt" xmlns="http://www.w3.org/2000/svg" xmlns:xlink="http://www.w3.org/1999/xlink">
 <metadata>
  <rdf:RDF xmlns:cc="http://creativecommons.org/ns#" xmlns:dc="http://purl.org/dc/elements/1.1/" xmlns:rdf="http://www.w3.org/1999/02/22-rdf-syntax-ns#">
   <cc:Work>
    <dc:type rdf:resource="http://purl.org/dc/dcmitype/StillImage"/>
    <dc:date>2021-07-16T21:44:06.963576</dc:date>
    <dc:format>image/svg+xml</dc:format>
    <dc:creator>
     <cc:Agent>
      <dc:title>Matplotlib v3.4.2, https://matplotlib.org/</dc:title>
     </cc:Agent>
    </dc:creator>
   </cc:Work>
  </rdf:RDF>
 </metadata>
 <defs>
  <style type="text/css">*{stroke-linecap:butt;stroke-linejoin:round;}</style>
 </defs>
 <g id="figure_1">
  <g id="patch_1">
   <path d="M 0 675.079375 
L 674.774375 675.079375 
L 674.774375 0 
L 0 0 
z
" style="fill:#ffffff;"/>
  </g>
  <g id="axes_1">
   <g id="patch_2">
    <path d="M 84.914375 603.86 
L 567.689804 603.86 
L 567.689804 109.484571 
L 84.914375 109.484571 
z
" style="fill:none;"/>
   </g>
   <g id="matplotlib.axis_1">
    <g id="xtick_1">
     <g id="text_1">
      <!-- 0 -->
      <g style="fill:#262626;" transform="translate(99.64041 636.076563)scale(0.22 -0.22)">
       <defs>
        <path d="M 2034 4250 
Q 1547 4250 1301 3770 
Q 1056 3291 1056 2328 
Q 1056 1369 1301 889 
Q 1547 409 2034 409 
Q 2525 409 2770 889 
Q 3016 1369 3016 2328 
Q 3016 3291 2770 3770 
Q 2525 4250 2034 4250 
z
M 2034 4750 
Q 2819 4750 3233 4129 
Q 3647 3509 3647 2328 
Q 3647 1150 3233 529 
Q 2819 -91 2034 -91 
Q 1250 -91 836 529 
Q 422 1150 422 2328 
Q 422 3509 836 4129 
Q 1250 4750 2034 4750 
z
" id="DejaVuSans-30" transform="scale(0.015625)"/>
       </defs>
       <use xlink:href="#DejaVuSans-30"/>
      </g>
     </g>
    </g>
    <g id="xtick_2">
     <g id="text_2">
      <!-- 20000 -->
      <g style="fill:#262626;" transform="translate(159.466671 636.076563)scale(0.22 -0.22)">
       <defs>
        <path d="M 1228 531 
L 3431 531 
L 3431 0 
L 469 0 
L 469 531 
Q 828 903 1448 1529 
Q 2069 2156 2228 2338 
Q 2531 2678 2651 2914 
Q 2772 3150 2772 3378 
Q 2772 3750 2511 3984 
Q 2250 4219 1831 4219 
Q 1534 4219 1204 4116 
Q 875 4013 500 3803 
L 500 4441 
Q 881 4594 1212 4672 
Q 1544 4750 1819 4750 
Q 2544 4750 2975 4387 
Q 3406 4025 3406 3419 
Q 3406 3131 3298 2873 
Q 3191 2616 2906 2266 
Q 2828 2175 2409 1742 
Q 1991 1309 1228 531 
z
" id="DejaVuSans-32" transform="scale(0.015625)"/>
       </defs>
       <use xlink:href="#DejaVuSans-32"/>
       <use x="63.623047" xlink:href="#DejaVuSans-30"/>
       <use x="127.246094" xlink:href="#DejaVuSans-30"/>
       <use x="190.869141" xlink:href="#DejaVuSans-30"/>
       <use x="254.492188" xlink:href="#DejaVuSans-30"/>
      </g>
     </g>
    </g>
    <g id="xtick_3">
     <g id="text_3">
      <!-- 40000 -->
      <g style="fill:#262626;" transform="translate(247.287932 636.076563)scale(0.22 -0.22)">
       <defs>
        <path d="M 2419 4116 
L 825 1625 
L 2419 1625 
L 2419 4116 
z
M 2253 4666 
L 3047 4666 
L 3047 1625 
L 3713 1625 
L 3713 1100 
L 3047 1100 
L 3047 0 
L 2419 0 
L 2419 1100 
L 313 1100 
L 313 1709 
L 2253 4666 
z
" id="DejaVuSans-34" transform="scale(0.015625)"/>
       </defs>
       <use xlink:href="#DejaVuSans-34"/>
       <use x="63.623047" xlink:href="#DejaVuSans-30"/>
       <use x="127.246094" xlink:href="#DejaVuSans-30"/>
       <use x="190.869141" xlink:href="#DejaVuSans-30"/>
       <use x="254.492188" xlink:href="#DejaVuSans-30"/>
      </g>
     </g>
    </g>
    <g id="xtick_4">
     <g id="text_4">
      <!-- 60000 -->
      <g style="fill:#262626;" transform="translate(335.109193 636.076563)scale(0.22 -0.22)">
       <defs>
        <path d="M 2113 2584 
Q 1688 2584 1439 2293 
Q 1191 2003 1191 1497 
Q 1191 994 1439 701 
Q 1688 409 2113 409 
Q 2538 409 2786 701 
Q 3034 994 3034 1497 
Q 3034 2003 2786 2293 
Q 2538 2584 2113 2584 
z
M 3366 4563 
L 3366 3988 
Q 3128 4100 2886 4159 
Q 2644 4219 2406 4219 
Q 1781 4219 1451 3797 
Q 1122 3375 1075 2522 
Q 1259 2794 1537 2939 
Q 1816 3084 2150 3084 
Q 2853 3084 3261 2657 
Q 3669 2231 3669 1497 
Q 3669 778 3244 343 
Q 2819 -91 2113 -91 
Q 1303 -91 875 529 
Q 447 1150 447 2328 
Q 447 3434 972 4092 
Q 1497 4750 2381 4750 
Q 2619 4750 2861 4703 
Q 3103 4656 3366 4563 
z
" id="DejaVuSans-36" transform="scale(0.015625)"/>
       </defs>
       <use xlink:href="#DejaVuSans-36"/>
       <use x="63.623047" xlink:href="#DejaVuSans-30"/>
       <use x="127.246094" xlink:href="#DejaVuSans-30"/>
       <use x="190.869141" xlink:href="#DejaVuSans-30"/>
       <use x="254.492188" xlink:href="#DejaVuSans-30"/>
      </g>
     </g>
    </g>
    <g id="xtick_5">
     <g id="text_5">
      <!-- 80000 -->
      <g style="fill:#262626;" transform="translate(422.930455 636.076563)scale(0.22 -0.22)">
       <defs>
        <path d="M 2034 2216 
Q 1584 2216 1326 1975 
Q 1069 1734 1069 1313 
Q 1069 891 1326 650 
Q 1584 409 2034 409 
Q 2484 409 2743 651 
Q 3003 894 3003 1313 
Q 3003 1734 2745 1975 
Q 2488 2216 2034 2216 
z
M 1403 2484 
Q 997 2584 770 2862 
Q 544 3141 544 3541 
Q 544 4100 942 4425 
Q 1341 4750 2034 4750 
Q 2731 4750 3128 4425 
Q 3525 4100 3525 3541 
Q 3525 3141 3298 2862 
Q 3072 2584 2669 2484 
Q 3125 2378 3379 2068 
Q 3634 1759 3634 1313 
Q 3634 634 3220 271 
Q 2806 -91 2034 -91 
Q 1263 -91 848 271 
Q 434 634 434 1313 
Q 434 1759 690 2068 
Q 947 2378 1403 2484 
z
M 1172 3481 
Q 1172 3119 1398 2916 
Q 1625 2713 2034 2713 
Q 2441 2713 2670 2916 
Q 2900 3119 2900 3481 
Q 2900 3844 2670 4047 
Q 2441 4250 2034 4250 
Q 1625 4250 1398 4047 
Q 1172 3844 1172 3481 
z
" id="DejaVuSans-38" transform="scale(0.015625)"/>
       </defs>
       <use xlink:href="#DejaVuSans-38"/>
       <use x="63.623047" xlink:href="#DejaVuSans-30"/>
       <use x="127.246094" xlink:href="#DejaVuSans-30"/>
       <use x="190.869141" xlink:href="#DejaVuSans-30"/>
       <use x="254.492188" xlink:href="#DejaVuSans-30"/>
      </g>
     </g>
    </g>
    <g id="xtick_6">
     <g id="text_6">
      <!-- 100000 -->
      <g style="fill:#262626;" transform="translate(503.752966 636.076563)scale(0.22 -0.22)">
       <defs>
        <path d="M 794 531 
L 1825 531 
L 1825 4091 
L 703 3866 
L 703 4441 
L 1819 4666 
L 2450 4666 
L 2450 531 
L 3481 531 
L 3481 0 
L 794 0 
L 794 531 
z
" id="DejaVuSans-31" transform="scale(0.015625)"/>
       </defs>
       <use xlink:href="#DejaVuSans-31"/>
       <use x="63.623047" xlink:href="#DejaVuSans-30"/>
       <use x="127.246094" xlink:href="#DejaVuSans-30"/>
       <use x="190.869141" xlink:href="#DejaVuSans-30"/>
       <use x="254.492188" xlink:href="#DejaVuSans-30"/>
       <use x="318.115234" xlink:href="#DejaVuSans-30"/>
      </g>
     </g>
    </g>
    <g id="text_7">
     <!-- MDTU -->
     <g style="fill:#262626;" transform="translate(290.596464 662.888125)scale(0.24 -0.24)">
      <defs>
       <path d="M 628 4666 
L 1569 4666 
L 2759 1491 
L 3956 4666 
L 4897 4666 
L 4897 0 
L 4281 0 
L 4281 4097 
L 3078 897 
L 2444 897 
L 1241 4097 
L 1241 0 
L 628 0 
L 628 4666 
z
" id="DejaVuSans-4d" transform="scale(0.015625)"/>
       <path d="M 1259 4147 
L 1259 519 
L 2022 519 
Q 2988 519 3436 956 
Q 3884 1394 3884 2338 
Q 3884 3275 3436 3711 
Q 2988 4147 2022 4147 
L 1259 4147 
z
M 628 4666 
L 1925 4666 
Q 3281 4666 3915 4102 
Q 4550 3538 4550 2338 
Q 4550 1131 3912 565 
Q 3275 0 1925 0 
L 628 0 
L 628 4666 
z
" id="DejaVuSans-44" transform="scale(0.015625)"/>
       <path d="M -19 4666 
L 3928 4666 
L 3928 4134 
L 2272 4134 
L 2272 0 
L 1638 0 
L 1638 4134 
L -19 4134 
L -19 4666 
z
" id="DejaVuSans-54" transform="scale(0.015625)"/>
       <path d="M 556 4666 
L 1191 4666 
L 1191 1831 
Q 1191 1081 1462 751 
Q 1734 422 2344 422 
Q 2950 422 3222 751 
Q 3494 1081 3494 1831 
L 3494 4666 
L 4128 4666 
L 4128 1753 
Q 4128 841 3676 375 
Q 3225 -91 2344 -91 
Q 1459 -91 1007 375 
Q 556 841 556 1753 
L 556 4666 
z
" id="DejaVuSans-55" transform="scale(0.015625)"/>
      </defs>
      <use xlink:href="#DejaVuSans-4d"/>
      <use x="86.279297" xlink:href="#DejaVuSans-44"/>
      <use x="163.28125" xlink:href="#DejaVuSans-54"/>
      <use x="224.365234" xlink:href="#DejaVuSans-55"/>
     </g>
    </g>
   </g>
   <g id="matplotlib.axis_2">
    <g id="ytick_1">
     <g id="text_8">
      <!-- 0.4 -->
      <g style="fill:#262626;" transform="translate(34.4275 585.025519)scale(0.22 -0.22)">
       <defs>
        <path d="M 684 794 
L 1344 794 
L 1344 0 
L 684 0 
L 684 794 
z
" id="DejaVuSans-2e" transform="scale(0.015625)"/>
       </defs>
       <use xlink:href="#DejaVuSans-30"/>
       <use x="63.623047" xlink:href="#DejaVuSans-2e"/>
       <use x="95.410156" xlink:href="#DejaVuSans-34"/>
      </g>
     </g>
    </g>
    <g id="ytick_2">
     <g id="text_9">
      <!-- 0.6 -->
      <g style="fill:#262626;" transform="translate(34.4275 500.081878)scale(0.22 -0.22)">
       <use xlink:href="#DejaVuSans-30"/>
       <use x="63.623047" xlink:href="#DejaVuSans-2e"/>
       <use x="95.410156" xlink:href="#DejaVuSans-36"/>
      </g>
     </g>
    </g>
    <g id="ytick_3">
     <g id="text_10">
      <!-- 0.8 -->
      <g style="fill:#262626;" transform="translate(34.4275 415.138237)scale(0.22 -0.22)">
       <use xlink:href="#DejaVuSans-30"/>
       <use x="63.623047" xlink:href="#DejaVuSans-2e"/>
       <use x="95.410156" xlink:href="#DejaVuSans-38"/>
      </g>
     </g>
    </g>
    <g id="ytick_4">
     <g id="text_11">
      <!-- 1.0 -->
      <g style="fill:#262626;" transform="translate(34.4275 330.194596)scale(0.22 -0.22)">
       <use xlink:href="#DejaVuSans-31"/>
       <use x="63.623047" xlink:href="#DejaVuSans-2e"/>
       <use x="95.410156" xlink:href="#DejaVuSans-30"/>
      </g>
     </g>
    </g>
    <g id="ytick_5">
     <g id="text_12">
      <!-- 1.2 -->
      <g style="fill:#262626;" transform="translate(34.4275 245.250955)scale(0.22 -0.22)">
       <use xlink:href="#DejaVuSans-31"/>
       <use x="63.623047" xlink:href="#DejaVuSans-2e"/>
       <use x="95.410156" xlink:href="#DejaVuSans-32"/>
      </g>
     </g>
    </g>
    <g id="ytick_6">
     <g id="text_13">
      <!-- 1.4 -->
      <g style="fill:#262626;" transform="translate(34.4275 160.307314)scale(0.22 -0.22)">
       <use xlink:href="#DejaVuSans-31"/>
       <use x="63.623047" xlink:href="#DejaVuSans-2e"/>
       <use x="95.410156" xlink:href="#DejaVuSans-34"/>
      </g>
     </g>
    </g>
    <g id="text_14">
     <!-- $E$ -->
     <g style="fill:#262626;" transform="translate(25.43625 364.352286)rotate(-90)scale(0.24 -0.24)">
      <defs>
       <path d="M 1081 4666 
L 4031 4666 
L 3928 4134 
L 1606 4134 
L 1338 2753 
L 3566 2753 
L 3463 2222 
L 1234 2222 
L 909 531 
L 3284 531 
L 3181 0 
L 172 0 
L 1081 4666 
z
" id="DejaVuSans-Oblique-45" transform="scale(0.015625)"/>
      </defs>
      <use transform="translate(0 0.09375)" xlink:href="#DejaVuSans-Oblique-45"/>
     </g>
    </g>
   </g>
   <g id="line2d_1">
    <path clip-path="url(#p2469baf465)" d="M 106.858713 449.035748 
L 107.078266 337.640819 
L 107.297819 486.389431 
L 107.517372 455.423356 
L 107.736925 395.388215 
L 107.956478 489.711093 
L 108.176032 440.012983 
L 108.615138 508.63233 
L 108.834691 337.283331 
L 109.054244 498.863196 
L 109.273797 377.933164 
L 109.493351 493.974944 
L 109.712904 348.051794 
L 110.15201 509.923685 
L 110.371563 448.778628 
L 110.591116 450.128408 
L 110.810669 523.784529 
L 111.030223 472.251922 
L 111.249776 468.571953 
L 111.469329 505.507999 
L 111.908435 325.120304 
L 112.127988 446.059176 
L 112.347541 500.574158 
L 112.567095 408.597079 
L 112.786648 453.037335 
L 113.006201 542.718007 
L 113.225754 484.658317 
L 113.445307 484.406495 
L 113.66486 446.364847 
L 113.884414 435.41796 
L 114.103967 480.490436 
L 114.32352 278.499362 
L 114.543073 538.688714 
L 114.762626 396.701632 
L 114.982179 478.355917 
L 115.201732 467.964431 
L 115.640839 395.62789 
L 115.860392 459.008311 
L 116.079945 402.931194 
L 116.299498 406.735802 
L 116.519051 510.531478 
L 116.738605 405.77829 
L 116.958158 473.95672 
L 117.177711 484.757605 
L 117.397264 520.504732 
L 117.616817 433.938902 
L 117.83637 412.68193 
L 118.055923 550.336141 
L 118.275477 475.977271 
L 118.49503 562.805441 
L 118.714583 457.779756 
L 118.934136 447.318671 
L 119.153689 532.6932 
L 119.373242 381.097316 
L 119.592796 416.430643 
L 119.812349 501.229563 
L 120.251455 348.660532 
L 120.471008 483.654484 
L 120.690561 549.373712 
L 121.129668 432.167399 
L 121.349221 417.250386 
L 121.568774 436.800354 
L 121.788327 469.391674 
L 122.00788 447.632337 
L 122.227433 467.860033 
L 122.446987 426.961637 
L 122.66654 308.97596 
L 122.886093 379.196792 
L 123.105646 281.784878 
L 123.325199 423.699291 
L 123.544752 491.080155 
L 123.764305 399.660604 
L 124.422965 491.766216 
L 124.642518 490.852982 
L 124.862071 349.688819 
L 125.081624 376.833697 
L 125.301178 378.493637 
L 125.520731 530.053622 
L 125.740284 365.377658 
L 125.959837 482.170457 
L 126.17939 536.643698 
L 126.398943 503.929771 
L 126.83805 523.2956 
L 127.057603 394.158002 
L 127.277156 537.493468 
L 127.496709 369.416096 
L 127.716262 499.596975 
L 127.935815 356.793099 
L 128.155369 490.675482 
L 128.374922 521.630841 
L 128.594475 378.549427 
L 128.814028 378.480324 
L 129.033581 500.106363 
L 129.253134 490.059952 
L 129.472687 399.109203 
L 129.692241 362.255437 
L 129.911794 382.517755 
L 130.131347 465.518204 
L 130.3509 363.901801 
L 130.570453 413.04176 
L 130.790006 292.112796 
L 131.00956 458.306864 
L 131.229113 483.318896 
L 131.448666 442.05688 
L 131.668219 467.012227 
L 131.887772 445.710197 
L 132.107325 380.854041 
L 132.326878 428.349093 
L 132.546432 334.433115 
L 132.765985 485.09788 
L 132.985538 518.403108 
L 133.205091 415.954393 
L 133.424644 456.060268 
L 133.644197 517.552035 
L 133.863751 491.799695 
L 134.302857 398.727526 
L 134.52241 465.697074 
L 134.741963 486.23595 
L 134.961516 364.663692 
L 135.181069 449.733832 
L 135.400623 461.87958 
L 135.620176 454.180221 
L 135.839729 359.645883 
L 136.059282 439.88389 
L 136.278835 391.388868 
L 136.498388 517.529612 
L 136.717941 442.326129 
L 136.937495 438.023312 
L 137.157048 391.060746 
L 137.376601 387.913595 
L 137.596154 478.793249 
L 137.815707 478.815714 
L 138.03526 272.894001 
L 138.474367 409.663314 
L 138.69392 387.259024 
L 138.913473 524.203215 
L 139.133026 360.473554 
L 139.352579 517.527173 
L 139.572132 516.626389 
L 139.791686 315.509199 
L 140.011239 473.878654 
L 140.230792 430.650024 
L 140.669898 405.852847 
L 140.889451 490.208001 
L 141.109005 411.40053 
L 141.328558 377.162815 
L 141.548111 415.991011 
L 141.767664 581.38839 
L 141.987217 410.538191 
L 142.20677 328.359698 
L 142.426323 392.737867 
L 142.645877 406.20002 
L 142.86543 289.136165 
L 143.304536 460.548228 
L 143.524089 490.347736 
L 143.743642 453.927882 
L 143.963196 475.118813 
L 144.182749 323.22641 
L 144.402302 454.029706 
L 144.621855 361.920289 
L 145.060961 473.466724 
L 145.280514 499.342976 
L 145.500068 443.524352 
L 145.719621 433.811941 
L 145.939174 438.202862 
L 146.158727 380.730659 
L 146.37828 469.487002 
L 146.597833 496.974165 
L 147.03694 456.973389 
L 147.256493 377.843365 
L 147.476046 483.047481 
L 147.695599 504.890087 
L 147.915152 414.374245 
L 148.134705 463.021946 
L 148.354259 361.526724 
L 148.573812 481.410746 
L 148.793365 415.268215 
L 149.012918 402.926462 
L 149.232471 485.82472 
L 149.452024 448.144708 
L 149.671578 381.906097 
L 149.891131 362.433155 
L 150.110684 484.444289 
L 150.330237 425.594412 
L 150.54979 515.450309 
L 150.769343 469.551005 
L 150.988896 393.416948 
L 151.20845 479.939925 
L 151.428003 439.251243 
L 151.647556 482.237534 
L 151.867109 453.849974 
L 152.086662 486.633158 
L 152.306215 470.137481 
L 152.525769 363.845313 
L 152.745322 488.759054 
L 153.184428 454.063873 
L 153.403981 343.495243 
L 153.623534 450.446893 
L 153.843087 500.940937 
L 154.062641 374.651536 
L 154.282194 525.966965 
L 154.501747 421.989673 
L 154.940853 496.625913 
L 155.160406 457.049478 
L 155.37996 450.288192 
L 155.599513 450.477329 
L 155.819066 394.310451 
L 156.258172 477.078876 
L 156.477725 436.681188 
L 156.697278 418.939919 
L 156.916832 411.649511 
L 157.136385 442.298856 
L 157.355938 373.652117 
L 157.575491 464.699844 
L 157.795044 359.920279 
L 158.234151 549.110649 
L 158.453704 494.234606 
L 158.673257 376.465416 
L 158.89281 399.908935 
L 159.331916 512.306243 
L 159.551469 427.955804 
L 159.771023 469.793367 
L 159.990576 437.373608 
L 160.210129 438.137031 
L 160.429682 459.931734 
L 160.649235 388.179186 
L 161.088342 544.824313 
L 161.307895 431.21776 
L 161.527448 449.428494 
L 161.747001 212.024924 
L 161.966554 365.563385 
L 162.186107 372.09018 
L 162.40566 388.818506 
L 162.625214 489.185384 
L 162.844767 499.109491 
L 163.06432 460.621728 
L 163.283873 483.277054 
L 163.503426 451.54739 
L 163.722979 461.03804 
L 163.942532 443.939236 
L 164.162086 493.558728 
L 164.381639 467.166907 
L 164.601192 244.864958 
L 165.040298 483.846523 
L 165.259851 387.868239 
L 165.479405 556.395537 
L 165.698958 388.719243 
L 165.918511 376.189986 
L 166.138064 417.371172 
L 166.357617 504.79646 
L 166.57717 454.845735 
L 166.796723 529.271799 
L 167.016277 372.880765 
L 167.23583 368.629508 
L 167.455383 505.863107 
L 167.674936 491.738417 
L 167.894489 210.219745 
L 168.114042 449.081206 
L 168.333596 558.343477 
L 168.553149 390.419367 
L 168.992255 504.141863 
L 169.211808 434.673504 
L 169.431361 412.446941 
L 169.650914 496.456681 
L 169.870468 486.977476 
L 170.090021 430.910882 
L 170.309574 499.553668 
L 170.529127 397.681649 
L 170.74868 412.740466 
L 170.968233 438.515629 
L 171.187787 422.833901 
L 171.40734 512.569564 
L 171.626893 545.650751 
L 171.846446 462.504293 
L 172.065999 421.745786 
L 172.285552 514.001329 
L 172.505105 342.916993 
L 172.724659 429.112348 
L 173.163765 390.095403 
L 173.383318 343.406771 
L 173.602871 461.538608 
L 173.822424 268.13324 
L 174.041978 483.980224 
L 174.261531 387.285075 
L 174.481084 478.558952 
L 174.700637 520.527726 
L 174.92019 405.304408 
L 175.139743 458.051889 
L 175.359296 463.014575 
L 175.57885 513.11971 
L 175.798403 491.380533 
L 176.017956 411.350913 
L 176.237509 417.396391 
L 176.457062 470.438056 
L 176.676615 415.564305 
L 176.896169 488.432562 
L 177.115722 485.734861 
L 177.335275 508.820093 
L 177.554828 513.172135 
L 177.774381 411.41488 
L 177.993934 494.476003 
L 178.213487 392.014569 
L 178.433041 433.2875 
L 178.652594 506.944756 
L 179.0917 359.95007 
L 179.311253 402.420167 
L 179.530806 296.085299 
L 179.75036 445.011553 
L 179.969913 422.811417 
L 180.189466 473.639448 
L 180.409019 382.697791 
L 180.628572 381.273952 
L 180.848125 414.617429 
L 181.287232 436.7349 
L 181.506785 467.638604 
L 181.945891 451.942908 
L 182.165444 525.1796 
L 182.384997 367.522857 
L 182.604551 354.746745 
L 182.824104 467.017297 
L 183.26321 303.199555 
L 183.482763 460.875806 
L 183.702316 397.966349 
L 183.921869 472.970759 
L 184.141423 458.35049 
L 184.360976 381.013584 
L 184.580529 418.014594 
L 184.800082 401.86311 
L 185.019635 549.610456 
L 185.239188 491.319107 
L 185.458742 513.529779 
L 185.678295 473.221302 
L 185.897848 468.626976 
L 186.117401 433.375644 
L 186.336954 504.891682 
L 186.556507 421.918809 
L 186.77606 447.178368 
L 186.995614 366.827134 
L 187.215167 429.49912 
L 187.43472 356.289641 
L 187.654273 400.625047 
L 187.873826 414.184786 
L 188.093379 440.921109 
L 188.312932 378.900752 
L 188.532486 542.923777 
L 188.752039 543.434469 
L 188.971592 503.455793 
L 189.191145 388.898063 
L 189.410698 527.132571 
L 189.630251 409.587819 
L 189.849805 404.84049 
L 190.069358 362.272822 
L 190.288911 470.853953 
L 190.508464 499.301156 
L 190.728017 410.605059 
L 190.94757 444.754327 
L 191.167123 501.163361 
L 191.386677 487.243299 
L 191.60623 465.95259 
L 191.825783 487.556214 
L 192.045336 439.361719 
L 192.264889 487.603854 
L 192.484442 400.951422 
L 192.703996 409.85918 
L 192.923549 540.000099 
L 193.143102 446.047773 
L 193.362655 438.901371 
L 193.582208 204.840542 
L 193.801761 422.687808 
L 194.021314 486.713763 
L 194.460421 368.719752 
L 194.679974 434.798291 
L 194.899527 408.276173 
L 195.11908 541.474739 
L 195.338633 351.48466 
L 195.558187 309.22246 
L 195.997293 547.846672 
L 196.216846 470.818815 
L 196.436399 473.423112 
L 196.655952 352.92255 
L 196.875505 443.9773 
L 197.314612 549.955633 
L 197.973271 305.467048 
L 198.192824 462.246847 
L 198.412378 463.767875 
L 198.631931 399.098124 
L 198.851484 474.74424 
L 199.071037 427.140743 
L 199.29059 513.421541 
L 199.510143 498.658745 
L 199.729696 302.088092 
L 199.94925 458.2173 
L 200.168803 455.383495 
L 200.388356 496.180204 
L 200.607909 392.895089 
L 200.827462 422.19452 
L 201.047015 346.588636 
L 201.266569 355.387354 
L 201.486122 389.7555 
L 201.705675 378.451868 
L 201.925228 443.475389 
L 202.144781 465.153413 
L 202.364334 513.094088 
L 202.803441 373.918838 
L 203.022994 418.153711 
L 203.242547 427.399661 
L 203.4621 384.412134 
L 203.681653 522.23008 
L 203.901206 492.792546 
L 204.12076 366.731711 
L 204.340313 465.103675 
L 204.559866 423.434587 
L 204.779419 483.615793 
L 204.998972 484.982586 
L 205.218525 442.287279 
L 205.438078 275.507897 
L 205.657632 340.8403 
L 205.877185 441.133562 
L 206.096738 443.697319 
L 206.316291 354.805409 
L 206.535844 451.686382 
L 206.755397 349.382691 
L 207.194504 460.218377 
L 207.414057 470.616016 
L 207.63361 450.410638 
L 207.853163 511.51114 
L 208.072716 421.365569 
L 208.292269 524.557801 
L 208.511823 525.675143 
L 208.731376 387.10873 
L 208.950929 358.100058 
L 209.170482 433.833192 
L 209.609588 419.222863 
L 209.829142 430.032605 
L 210.048695 457.626045 
L 210.268248 419.855447 
L 210.487801 410.036798 
L 210.707354 419.999635 
L 210.926907 472.432626 
L 211.14646 326.287229 
L 211.366014 313.413899 
L 211.585567 386.729627 
L 211.80512 393.333922 
L 212.024673 389.843128 
L 212.244226 473.686121 
L 212.463779 431.883494 
L 212.683333 563.666428 
L 212.902886 436.85629 
L 213.122439 455.796483 
L 213.341992 457.227566 
L 213.561545 533.079388 
L 214.000651 460.80679 
L 214.220205 328.390216 
L 214.439758 530.594983 
L 214.659311 522.3044 
L 214.878864 402.345279 
L 215.098417 508.321443 
L 215.31797 475.772049 
L 215.537523 416.827163 
L 215.757077 504.689683 
L 216.196183 322.478687 
L 216.415736 490.652894 
L 216.635289 496.804533 
L 217.074396 369.914428 
L 217.293949 386.069556 
L 217.513502 447.298513 
L 217.733055 423.692374 
L 217.952608 523.412694 
L 218.172161 494.697723 
L 218.391714 410.075035 
L 218.611268 469.183115 
L 218.830821 470.573141 
L 219.050374 495.048977 
L 219.269927 418.257409 
L 219.709033 519.496549 
L 219.928587 497.971838 
L 220.14814 307.437307 
L 220.367693 369.292199 
L 220.587246 385.43625 
L 220.806799 293.128887 
L 221.026352 436.19377 
L 221.245905 389.84049 
L 221.685012 454.240916 
L 221.904565 442.450062 
L 222.124118 369.689418 
L 222.343671 453.790712 
L 222.563224 418.904722 
L 222.782778 428.565478 
L 223.002331 491.003185 
L 223.441437 532.112747 
L 223.66099 513.013365 
L 224.100096 430.214222 
L 224.31965 447.178471 
L 224.539203 389.584558 
L 224.758756 540.971593 
L 224.978309 323.616498 
L 225.197862 433.064354 
L 225.417415 479.987736 
L 225.856522 329.80374 
L 226.295628 463.706633 
L 226.515181 377.122988 
L 226.734734 398.213808 
L 226.954287 447.521496 
L 227.173841 399.242503 
L 227.393394 487.573613 
L 227.612947 466.620547 
L 228.052053 532.727475 
L 228.271606 480.122347 
L 228.49116 513.150108 
L 228.710713 489.966774 
L 228.930266 381.299762 
L 229.149819 375.580124 
L 229.369372 572.541652 
L 229.588925 503.85466 
L 229.808478 342.333885 
L 230.028032 496.495853 
L 230.247585 433.801177 
L 230.467138 462.196061 
L 230.686691 421.533719 
L 230.906244 467.102745 
L 231.125797 285.502366 
L 231.345351 509.181661 
L 231.784457 381.9919 
L 232.00401 354.51758 
L 232.223563 427.507575 
L 232.443116 415.283579 
L 232.662669 415.283164 
L 232.882223 471.6162 
L 233.101776 385.284787 
L 233.321329 446.314 
L 233.540882 425.297968 
L 233.760435 533.643768 
L 233.979988 480.910686 
L 234.199542 351.300071 
L 234.419095 517.20627 
L 234.638648 468.621299 
L 234.858201 564.933557 
L 235.077754 496.920354 
L 235.297307 495.657137 
L 235.51686 518.01434 
L 235.736414 418.575174 
L 235.955967 557.825761 
L 236.17552 525.559648 
L 236.834179 296.924517 
L 237.053733 327.590915 
L 237.492839 520.414153 
L 237.712392 401.118647 
L 237.931945 408.167172 
L 238.151498 465.694012 
L 238.371051 414.674147 
L 238.590605 442.931787 
L 238.810158 500.599057 
L 239.029711 416.390583 
L 239.249264 398.907857 
L 239.468817 492.533091 
L 239.907924 396.846539 
L 240.127477 521.646006 
L 240.34703 548.143981 
L 240.566583 514.472029 
L 240.786136 452.506713 
L 241.005689 507.019294 
L 241.225242 508.624674 
L 241.664349 431.897276 
L 241.883902 338.042774 
L 242.103455 483.716497 
L 242.323008 543.304605 
L 242.542561 448.440112 
L 242.762114 544.530582 
L 242.981668 408.021335 
L 243.201221 448.040524 
L 243.420774 360.680963 
L 243.640327 448.660334 
L 243.85988 342.853925 
L 244.079433 524.520159 
L 244.298987 426.831428 
L 244.51854 437.29194 
L 244.738093 460.848415 
L 244.957646 443.858576 
L 245.177199 505.561877 
L 245.616305 426.255087 
L 245.835859 466.093044 
L 246.274965 304.893979 
L 246.494518 507.451416 
L 246.933624 486.715539 
L 247.153178 451.710655 
L 247.372731 395.68333 
L 248.03139 489.352074 
L 248.250943 458.630356 
L 248.470496 533.525402 
L 248.69005 427.568897 
L 248.909603 425.629785 
L 249.129156 509.747986 
L 249.348709 300.672573 
L 249.568262 322.373592 
L 249.787815 460.92507 
L 250.226922 309.642122 
L 250.446475 336.440231 
L 250.666028 407.824471 
L 250.885581 235.389208 
L 251.105134 423.992989 
L 251.324687 407.889447 
L 251.544241 447.782491 
L 251.763794 527.807012 
L 251.983347 531.349766 
L 252.2029 246.40243 
L 252.422453 491.366638 
L 252.642006 323.997304 
L 252.86156 465.119078 
L 253.081113 466.699521 
L 253.300666 564.572129 
L 253.520219 442.327299 
L 253.739772 391.657555 
L 253.959325 530.342838 
L 254.398432 381.456801 
L 254.617985 401.814184 
L 254.837538 441.406145 
L 255.057091 342.28886 
L 255.276644 522.350999 
L 255.496197 354.219828 
L 255.935304 518.571577 
L 256.154857 367.665683 
L 256.37441 496.077335 
L 256.593963 488.838735 
L 256.813516 376.997056 
L 257.033069 532.169941 
L 257.252623 477.694863 
L 257.472176 532.612624 
L 257.691729 451.080606 
L 257.911282 517.523445 
L 258.350388 440.952527 
L 258.569942 490.33521 
L 258.789495 510.172827 
L 259.009048 433.313646 
L 259.228601 480.932212 
L 259.448154 380.515412 
L 259.88726 436.752243 
L 260.106814 364.582993 
L 260.326367 474.376704 
L 260.54592 400.187227 
L 260.765473 492.796902 
L 260.985026 416.519576 
L 261.204579 476.593321 
L 261.424133 476.72462 
L 261.643686 510.620013 
L 262.302345 309.069594 
L 262.521898 439.89854 
L 262.741451 414.694072 
L 262.961005 476.037884 
L 263.180558 450.952816 
L 263.400111 371.196916 
L 263.619664 412.172581 
L 264.05877 295.353259 
L 264.278324 431.095586 
L 264.497877 457.378161 
L 264.71743 461.778648 
L 264.936983 459.701657 
L 265.156536 524.455862 
L 265.595642 438.266162 
L 265.815196 486.552514 
L 266.034749 445.01018 
L 266.254302 498.37945 
L 266.473855 430.56312 
L 266.693408 467.126042 
L 266.912961 363.047806 
L 267.132514 346.615911 
L 267.352068 485.984491 
L 267.571621 403.993882 
L 267.791174 404.114131 
L 268.23028 551.970411 
L 268.449833 460.510479 
L 268.669387 432.652596 
L 268.88894 507.281427 
L 269.108493 485.944312 
L 269.328046 512.051761 
L 269.547599 388.323191 
L 269.767152 525.070029 
L 269.986705 259.392405 
L 270.206259 454.725153 
L 270.864918 485.180655 
L 271.084471 469.482652 
L 271.304024 521.588602 
L 271.523578 490.461833 
L 271.743131 411.852087 
L 271.962684 391.5271 
L 272.182237 578.509702 
L 272.40179 360.258394 
L 272.621343 453.953599 
L 272.840896 493.380185 
L 273.06045 570.417299 
L 273.280003 508.165852 
L 273.499556 531.635041 
L 273.719109 458.313224 
L 273.938662 461.553879 
L 274.158215 312.232452 
L 274.377769 437.902739 
L 274.597322 424.812292 
L 274.816875 537.836918 
L 275.036428 452.130858 
L 275.255981 431.507363 
L 275.695087 498.642482 
L 275.914641 396.627339 
L 276.134194 355.493913 
L 276.353747 481.574654 
L 276.5733 440.692606 
L 276.792853 353.695433 
L 277.23196 444.727688 
L 277.451513 468.926267 
L 277.671066 362.019904 
L 277.890619 355.354746 
L 278.110172 416.281189 
L 278.329725 554.11937 
L 278.549278 495.991075 
L 278.768832 495.100079 
L 278.988385 377.575456 
L 279.207938 360.409055 
L 279.427491 520.381333 
L 279.647044 439.744071 
L 279.866597 436.481015 
L 280.086151 481.581312 
L 280.305704 500.445233 
L 280.525257 312.398744 
L 280.74481 431.836851 
L 280.964363 385.368925 
L 281.183916 497.76306 
L 281.403469 452.376762 
L 281.623023 312.754273 
L 281.842576 492.201236 
L 282.062129 492.822882 
L 282.281682 446.715803 
L 282.501235 481.717997 
L 282.720788 446.27887 
L 282.940342 456.540321 
L 283.159895 424.148958 
L 283.379448 454.130366 
L 283.599001 402.296264 
L 283.818554 504.847075 
L 284.038107 390.728888 
L 284.25766 551.703655 
L 284.696767 424.86524 
L 284.91632 493.572974 
L 285.135873 498.337758 
L 285.355426 507.649042 
L 285.574979 464.566749 
L 285.794533 512.712062 
L 286.014086 404.510177 
L 286.233639 479.634779 
L 286.453192 515.355922 
L 286.892298 462.878617 
L 287.111851 301.91748 
L 287.331405 550.418556 
L 287.550958 520.788905 
L 287.770511 434.799074 
L 287.990064 470.014055 
L 288.42917 307.909925 
L 288.868277 545.728607 
L 289.08783 320.393452 
L 289.307383 522.019621 
L 289.526936 370.76807 
L 289.746489 468.045713 
L 289.966042 425.632496 
L 290.185596 538.459518 
L 290.405149 540.866566 
L 290.624702 464.454197 
L 290.844255 472.773951 
L 291.063808 283.569362 
L 291.283361 462.879536 
L 291.502915 339.448673 
L 291.722468 488.035327 
L 291.942021 490.234534 
L 292.161574 529.861662 
L 292.381127 347.272405 
L 292.60068 450.16046 
L 292.820233 455.528593 
L 293.039787 422.324383 
L 293.25934 428.93379 
L 293.478893 479.715998 
L 293.698446 482.559166 
L 294.137552 349.952296 
L 294.576659 464.032231 
L 294.796212 328.471053 
L 295.235318 462.432257 
L 295.454871 550.072419 
L 295.674424 405.292998 
L 295.893978 466.043269 
L 296.113531 429.964366 
L 296.333084 518.831074 
L 296.552637 438.06728 
L 296.77219 465.373075 
L 296.991743 394.785997 
L 297.211296 456.744319 
L 297.43085 461.966103 
L 297.869956 530.30118 
L 298.089509 389.095759 
L 298.309062 443.387307 
L 298.528615 527.340688 
L 298.748169 517.537214 
L 298.967722 432.7019 
L 299.187275 538.45832 
L 299.406828 438.003916 
L 299.845934 512.535636 
L 300.065487 446.773496 
L 300.285041 481.806236 
L 300.504594 535.684287 
L 300.724147 263.564829 
L 300.9437 405.75618 
L 301.163253 410.810571 
L 301.382806 439.985019 
L 301.60236 492.09065 
L 301.821913 495.429441 
L 302.041466 508.553909 
L 302.261019 473.233203 
L 302.480572 519.50787 
L 302.700125 432.579139 
L 302.919678 437.044631 
L 303.139232 419.636336 
L 303.358785 387.413594 
L 303.797891 476.193809 
L 304.017444 471.675244 
L 304.236997 471.858782 
L 304.676104 386.099688 
L 304.895657 378.327377 
L 305.11521 426.875375 
L 305.334763 355.190215 
L 305.554316 399.289608 
L 305.773869 418.425858 
L 305.993423 427.817375 
L 306.212976 537.945152 
L 306.432529 456.493439 
L 306.652082 448.272069 
L 306.871635 549.540849 
L 307.091188 384.974393 
L 307.310742 307.429943 
L 307.530295 435.004875 
L 307.749848 409.023255 
L 307.969401 364.968662 
L 308.188954 457.25388 
L 308.408507 497.574664 
L 308.62806 351.146109 
L 308.847614 525.271452 
L 309.067167 171.462569 
L 309.28672 405.894336 
L 309.506273 498.628196 
L 309.725826 349.448379 
L 309.945379 480.471194 
L 310.164933 440.355004 
L 310.384486 573.351307 
L 310.604039 396.004058 
L 310.823592 371.161669 
L 311.043145 543.083286 
L 311.262698 390.663165 
L 311.482251 489.039584 
L 311.701805 343.773167 
L 311.921358 319.62588 
L 312.140911 442.040574 
L 312.360464 451.441616 
L 312.580017 485.204163 
L 312.79957 449.013151 
L 313.019124 477.508206 
L 313.238677 388.341409 
L 313.45823 528.885799 
L 313.677783 461.859535 
L 313.897336 337.066967 
L 314.116889 348.973735 
L 314.336442 450.836098 
L 314.555996 418.993047 
L 314.775549 408.84289 
L 314.995102 460.37137 
L 315.214655 362.116081 
L 315.434208 496.00649 
L 315.653761 439.091044 
L 315.873315 473.700893 
L 316.092868 564.357423 
L 316.312421 492.608351 
L 316.751527 254.775199 
L 316.97108 511.450985 
L 317.190633 429.383651 
L 317.410187 481.030752 
L 317.62974 288.596652 
L 317.849293 377.489634 
L 318.068846 512.942756 
L 318.288399 487.391508 
L 318.727506 344.677936 
L 319.166612 477.663848 
L 319.386165 400.124583 
L 319.605718 387.883458 
L 319.825271 384.698508 
L 320.044824 474.168499 
L 320.264378 358.430002 
L 320.483931 373.489896 
L 320.923037 452.094581 
L 321.14259 444.776915 
L 321.362143 520.824204 
L 321.581696 449.592092 
L 321.80125 474.399551 
L 322.020803 421.231082 
L 322.240356 544.439435 
L 322.459909 443.132841 
L 322.679462 395.899006 
L 322.899015 486.037778 
L 323.118569 410.855633 
L 323.557675 504.3432 
L 323.777228 439.807993 
L 323.996781 434.614055 
L 324.216334 459.604786 
L 324.435887 445.455131 
L 324.655441 408.853831 
L 324.874994 491.813891 
L 325.094547 463.547777 
L 325.3141 383.512827 
L 325.533653 437.907827 
L 325.753206 398.228405 
L 325.97276 488.825019 
L 326.192313 345.986566 
L 326.411866 424.269575 
L 326.631419 430.329867 
L 326.850972 397.357846 
L 327.070525 405.432719 
L 327.290078 438.524233 
L 327.509632 394.147954 
L 327.729185 427.501731 
L 327.948738 537.63236 
L 328.168291 524.684609 
L 328.387844 476.260604 
L 328.607397 456.192299 
L 328.826951 452.602795 
L 329.266057 315.581539 
L 329.48561 451.567559 
L 329.705163 507.743576 
L 329.924716 371.221766 
L 330.144269 400.161587 
L 330.363823 345.885837 
L 330.583376 488.015321 
L 330.802929 523.495729 
L 331.022482 511.21572 
L 331.242035 446.731476 
L 331.461588 509.541836 
L 331.681142 406.261446 
L 331.900695 380.86647 
L 332.120248 322.38336 
L 332.339801 519.227234 
L 332.559354 466.363352 
L 332.778907 441.471981 
L 332.99846 526.826451 
L 333.218014 538.887857 
L 333.65712 444.130415 
L 333.876673 542.993564 
L 334.096226 416.706482 
L 334.315779 520.735833 
L 334.535333 474.157955 
L 334.754886 473.054725 
L 334.974439 465.602893 
L 335.193992 337.87524 
L 335.413545 490.498436 
L 335.633098 337.840249 
L 335.852651 386.847988 
L 336.072205 471.235004 
L 336.291758 410.247205 
L 336.511311 203.960108 
L 336.730864 232.747123 
L 336.950417 422.445522 
L 337.16997 409.942148 
L 337.389524 457.220944 
L 337.609077 536.702231 
L 337.82863 536.28734 
L 338.048183 440.941811 
L 338.267736 554.262713 
L 338.487289 419.154693 
L 338.706842 388.114236 
L 338.926396 392.259583 
L 339.145949 376.057672 
L 339.365502 447.693485 
L 339.585055 561.725208 
L 339.804608 454.715049 
L 340.024161 441.520411 
L 340.243715 490.025998 
L 340.463268 448.943488 
L 340.682821 471.698366 
L 340.902374 403.261552 
L 341.121927 445.179756 
L 341.34148 361.403088 
L 341.561033 450.141366 
L 341.780587 458.457071 
L 342.00014 451.522919 
L 342.219693 476.128283 
L 342.439246 538.795057 
L 342.658799 465.245987 
L 342.878352 548.004805 
L 343.097906 427.063478 
L 343.317459 387.308073 
L 343.537012 404.884947 
L 343.756565 294.58232 
L 343.976118 480.519774 
L 344.195671 369.550556 
L 344.634778 527.974594 
L 344.854331 368.368122 
L 345.073884 483.661423 
L 345.293437 408.225963 
L 345.51299 507.049443 
L 345.732543 480.682678 
L 345.952096 491.094161 
L 346.17165 439.813007 
L 346.391203 441.504309 
L 346.610756 412.887855 
L 346.830309 512.126068 
L 347.049862 463.135732 
L 347.269415 383.402126 
L 347.488969 397.780453 
L 347.708522 425.617222 
L 347.928075 391.586233 
L 348.147628 449.292027 
L 348.367181 368.742626 
L 348.586734 552.383605 
L 348.806287 259.348131 
L 349.245394 531.694501 
L 349.464947 542.59156 
L 349.904053 386.758647 
L 350.34316 444.646017 
L 350.562713 389.485934 
L 351.001819 477.979611 
L 351.221372 381.469532 
L 351.440925 481.651742 
L 351.880032 191.424012 
L 352.099585 404.685708 
L 352.319138 473.382482 
L 352.538691 468.37631 
L 352.758244 367.58824 
L 352.977797 522.279019 
L 353.416904 396.482617 
L 353.636457 491.679736 
L 353.85601 479.060016 
L 354.075563 457.555225 
L 354.514669 335.819733 
L 354.734223 395.603845 
L 354.953776 270.527693 
L 355.173329 360.106696 
L 355.392882 389.812626 
L 355.612435 493.667194 
L 355.831988 355.950611 
L 356.051542 530.223746 
L 356.271095 458.64979 
L 356.490648 465.620001 
L 356.710201 460.942133 
L 356.929754 431.490746 
L 357.149307 455.050025 
L 357.36886 466.341016 
L 357.588414 414.169621 
L 357.807967 428.698647 
L 358.02752 485.514284 
L 358.247073 326.577511 
L 358.466626 391.627577 
L 358.686179 402.304439 
L 358.905733 364.247589 
L 359.125286 537.456507 
L 359.564392 343.230317 
L 359.783945 464.894087 
L 360.003498 460.302895 
L 360.223051 475.206604 
L 360.662158 413.030113 
L 360.881711 540.308704 
L 361.101264 508.562899 
L 361.320817 349.310427 
L 361.54037 438.863102 
L 361.759924 434.741434 
L 361.979477 392.515046 
L 362.418583 456.299977 
L 362.638136 452.443464 
L 362.857689 463.172551 
L 363.077242 409.901621 
L 363.296796 405.258897 
L 363.516349 456.746611 
L 363.735902 445.491363 
L 363.955455 309.858141 
L 364.394561 415.492908 
L 364.614115 397.589715 
L 364.833668 310.695299 
L 365.053221 547.475684 
L 365.272774 532.420938 
L 365.492327 492.850996 
L 365.71188 432.932283 
L 365.931433 193.724261 
L 366.150987 426.256978 
L 366.37054 436.900614 
L 366.590093 431.021289 
L 366.809646 495.95273 
L 367.029199 331.370098 
L 367.248752 380.182429 
L 367.468306 505.477827 
L 367.687859 490.111557 
L 368.126965 351.142318 
L 368.346518 429.911716 
L 368.566071 411.186739 
L 368.785624 413.321671 
L 369.005178 435.657613 
L 369.224731 395.380144 
L 369.444284 456.496917 
L 369.663837 458.556309 
L 370.102943 419.684882 
L 370.322497 487.077859 
L 370.54205 509.553997 
L 370.761603 449.887531 
L 370.981156 541.200205 
L 371.420262 282.496732 
L 371.639815 483.285612 
L 371.859369 469.099959 
L 372.078922 513.550937 
L 372.298475 363.662275 
L 372.518028 321.229775 
L 372.737581 484.925537 
L 372.957134 431.743466 
L 373.176687 500.127007 
L 373.396241 502.600187 
L 373.615794 430.727085 
L 373.835347 461.55446 
L 374.0549 511.964438 
L 374.274453 486.806271 
L 374.494006 290.911055 
L 374.71356 530.700904 
L 374.933113 488.177677 
L 375.152666 379.06076 
L 375.372219 515.705678 
L 375.591772 474.355498 
L 375.811325 352.45902 
L 376.030878 405.340491 
L 376.250432 416.853276 
L 376.469985 453.817565 
L 376.689538 425.103378 
L 376.909091 455.412055 
L 377.128644 439.795472 
L 377.348197 377.422966 
L 377.567751 360.90782 
L 378.006857 461.019657 
L 378.22641 520.617181 
L 378.445963 371.635698 
L 378.665516 448.879335 
L 378.885069 299.807692 
L 379.324176 538.141165 
L 379.543729 488.335684 
L 379.763282 469.336059 
L 379.982835 369.073216 
L 380.202388 510.793892 
L 380.421942 450.929815 
L 380.641495 541.038247 
L 380.861048 422.388524 
L 381.300154 496.29007 
L 381.519707 207.287361 
L 381.73926 418.261016 
L 381.958814 367.036707 
L 382.178367 511.313064 
L 382.39792 571.850497 
L 382.617473 516.749098 
L 382.837026 254.216386 
L 383.056579 508.909391 
L 383.276133 381.926103 
L 383.495686 409.948926 
L 383.715239 420.798466 
L 383.934792 359.813666 
L 384.154345 480.526055 
L 384.373898 377.314674 
L 384.593451 340.567998 
L 385.032558 407.677482 
L 385.252111 457.877534 
L 385.471664 449.356382 
L 385.691217 445.328506 
L 385.91077 419.753257 
L 386.130324 371.764797 
L 386.349877 384.418019 
L 386.56943 381.511221 
L 386.788983 416.369485 
L 387.008536 327.392945 
L 387.228089 348.180702 
L 387.447642 459.570078 
L 387.667196 467.235493 
L 387.886749 465.463391 
L 388.106302 441.798107 
L 388.325855 446.797999 
L 388.545408 414.302478 
L 388.764961 499.664846 
L 388.984515 404.591339 
L 389.204068 419.766218 
L 389.423621 427.011034 
L 389.643174 407.478415 
L 389.862727 477.055062 
L 390.08228 479.61111 
L 390.301833 428.869028 
L 390.521387 272.512394 
L 390.74094 457.616331 
L 390.960493 458.706396 
L 391.180046 518.333295 
L 391.399599 451.612672 
L 391.619152 499.113317 
L 391.838706 416.511762 
L 392.058259 501.998421 
L 392.277812 525.64098 
L 392.497365 444.095402 
L 392.716918 569.716842 
L 392.936471 450.420175 
L 393.156024 526.906023 
L 393.375578 367.204557 
L 394.034237 494.913313 
L 394.25379 480.11495 
L 394.473343 386.887961 
L 394.692897 529.751524 
L 394.91245 396.973048 
L 395.132003 454.442023 
L 395.351556 474.597717 
L 395.571109 533.807088 
L 395.790662 428.04683 
L 396.010215 479.076956 
L 396.229769 496.409275 
L 396.449322 322.271624 
L 396.668875 469.461529 
L 396.888428 421.390613 
L 397.107981 539.18148 
L 397.327534 440.609471 
L 397.547087 437.67496 
L 397.986194 460.046077 
L 398.4253 384.537311 
L 398.644853 315.525253 
L 398.864406 471.128745 
L 399.08396 462.960646 
L 399.303513 441.762192 
L 399.742619 350.127128 
L 399.962172 475.097225 
L 400.181725 369.668926 
L 400.620832 503.421023 
L 401.059938 423.379466 
L 401.279491 409.499931 
L 401.499044 472.318317 
L 401.718597 481.839969 
L 402.157704 353.662933 
L 402.377257 374.723277 
L 402.59681 279.36296 
L 402.816363 292.231275 
L 403.035916 539.464433 
L 403.255469 335.378811 
L 403.475023 527.141929 
L 403.694576 341.343703 
L 403.914129 485.829474 
L 404.133682 371.400802 
L 404.353235 420.704331 
L 404.572788 414.896419 
L 404.792342 384.604817 
L 405.011895 467.994494 
L 405.231448 392.633478 
L 405.451001 383.328981 
L 405.670554 458.205732 
L 405.890107 491.836604 
L 406.10966 386.433444 
L 406.329214 442.044014 
L 406.548767 300.782851 
L 406.987873 487.388059 
L 407.207426 423.479836 
L 407.426979 432.342937 
L 407.646533 516.211223 
L 407.866086 344.873796 
L 408.085639 498.554297 
L 408.305192 382.329591 
L 408.524745 484.910483 
L 408.744298 459.343997 
L 408.963851 377.700558 
L 409.402958 494.073067 
L 409.622511 472.677581 
L 409.842064 418.546389 
L 410.061617 494.125852 
L 410.28117 344.282428 
L 410.720277 497.514216 
L 410.93983 371.443407 
L 411.159383 438.568487 
L 411.378936 392.84494 
L 411.598489 471.371793 
L 411.818042 488.554124 
L 412.037596 441.018587 
L 412.257149 453.031786 
L 412.476702 494.486703 
L 412.915808 470.644404 
L 413.135361 525.06857 
L 413.354915 484.44574 
L 413.574468 421.537337 
L 413.794021 396.168416 
L 414.013574 420.085039 
L 414.233127 374.760389 
L 414.45268 262.837258 
L 414.672233 423.650509 
L 414.891787 385.162217 
L 415.11134 463.169069 
L 415.330893 218.522848 
L 415.550446 420.575497 
L 415.769999 480.48598 
L 415.989552 451.520868 
L 416.209106 370.589938 
L 416.428659 486.980972 
L 416.648212 520.662284 
L 416.867765 342.505349 
L 417.087318 457.32071 
L 417.306871 409.74063 
L 417.526424 400.364714 
L 417.745978 469.7048 
L 417.965531 431.054647 
L 418.185084 364.500007 
L 418.62419 513.004044 
L 418.843743 369.54634 
L 419.28285 444.589866 
L 419.502403 376.580124 
L 419.941509 499.747038 
L 420.161062 417.793078 
L 420.380615 507.539648 
L 420.600169 406.169575 
L 420.819722 403.399151 
L 421.039275 404.758295 
L 421.258828 396.221516 
L 421.478381 517.150442 
L 421.697934 490.594198 
L 421.917488 312.641998 
L 422.137041 506.805169 
L 422.356594 388.910178 
L 422.7957 443.067646 
L 423.015253 461.690327 
L 423.234806 393.586417 
L 423.45436 404.684531 
L 423.673913 396.361625 
L 423.893466 425.512635 
L 424.113019 420.727911 
L 424.332572 430.222981 
L 424.552125 464.059462 
L 424.771678 337.269496 
L 424.991232 425.207843 
L 425.210785 433.986903 
L 425.430338 466.21658 
L 425.649891 462.53045 
L 425.869444 402.704522 
L 426.088997 486.04655 
L 426.308551 264.231023 
L 426.528104 448.213036 
L 426.96721 406.640352 
L 427.186763 502.062558 
L 427.406316 426.408313 
L 427.845423 559.310554 
L 428.064976 421.932441 
L 428.284529 556.360101 
L 428.504082 240.022795 
L 428.723635 488.326346 
L 428.943188 500.405364 
L 429.162742 496.72015 
L 429.382295 539.108299 
L 429.601848 466.024341 
L 430.040954 412.854283 
L 430.260507 355.748962 
L 430.48006 397.045839 
L 430.699614 257.670466 
L 430.919167 419.091548 
L 431.13872 408.263767 
L 431.358273 433.354526 
L 431.577826 131.956182 
L 431.797379 453.243134 
L 432.016933 343.903411 
L 432.456039 501.339158 
L 432.895145 447.923345 
L 433.114698 350.721985 
L 433.334251 524.157899 
L 433.773358 443.953878 
L 433.992911 442.528399 
L 434.212464 492.143562 
L 434.432017 278.429915 
L 434.65157 460.787689 
L 434.871124 428.552936 
L 435.090677 432.143937 
L 435.31023 376.978935 
L 435.529783 440.070561 
L 435.749336 447.9222 
L 435.968889 445.766219 
L 436.188442 504.31365 
L 436.407996 449.553137 
L 436.627549 481.01428 
L 436.847102 416.795114 
L 437.066655 415.910503 
L 437.505761 502.785614 
L 437.725315 369.520328 
L 437.944868 520.574093 
L 438.164421 455.277191 
L 438.383974 439.527096 
L 438.603527 396.352433 
L 438.82308 448.105585 
L 439.042633 367.011565 
L 439.262187 528.253843 
L 439.48174 445.262458 
L 439.701293 508.053346 
L 439.920846 462.925028 
L 440.140399 277.643332 
L 440.579506 479.829793 
L 440.799059 442.189674 
L 441.018612 455.527837 
L 441.238165 370.331456 
L 441.457718 552.447379 
L 441.677271 361.484569 
L 441.896824 411.696054 
L 442.116378 412.253966 
L 442.335931 396.915275 
L 442.555484 408.362219 
L 443.214143 515.163102 
L 443.433697 501.432201 
L 443.65325 462.503325 
L 443.872803 292.024929 
L 444.092356 551.81791 
L 444.311909 511.457423 
L 444.531462 281.150486 
L 444.970569 499.103345 
L 445.190122 451.35767 
L 445.409675 470.494846 
L 445.629228 457.467942 
L 445.848781 499.26701 
L 446.068334 359.401196 
L 446.287888 517.931172 
L 446.507441 484.809527 
L 446.726994 476.134888 
L 446.946547 519.461564 
L 447.1661 517.287771 
L 447.385653 397.675622 
L 447.605206 496.867773 
L 447.82476 375.044178 
L 448.044313 504.585823 
L 448.483419 413.803716 
L 448.702972 429.558156 
L 448.922525 431.588314 
L 449.142079 377.01641 
L 449.361632 427.438243 
L 449.581185 439.384846 
L 449.800738 537.17729 
L 450.020291 493.007623 
L 450.459397 294.284272 
L 450.898504 539.800545 
L 451.118057 413.778135 
L 451.33761 392.107368 
L 451.557163 430.210596 
L 451.776716 379.834424 
L 451.996269 417.533556 
L 452.215823 416.466305 
L 452.435376 391.748487 
L 452.874482 575.140059 
L 453.094035 433.861457 
L 453.313588 451.344716 
L 453.533142 382.586584 
L 453.752695 384.363086 
L 453.972248 425.021804 
L 454.191801 532.01355 
L 454.411354 347.943164 
L 454.630907 466.619112 
L 454.85046 444.400334 
L 455.070014 461.453783 
L 455.289567 403.108618 
L 455.728673 515.706348 
L 455.948226 506.417192 
L 456.387333 336.752101 
L 456.606886 373.576431 
L 456.826439 524.55087 
L 457.265545 394.526906 
L 457.485098 401.143491 
L 457.704651 482.381124 
L 457.924205 418.261593 
L 458.143758 410.225775 
L 458.363311 412.890814 
L 458.582864 482.89 
L 458.802417 473.966014 
L 459.02197 405.56489 
L 459.241524 442.645306 
L 459.461077 510.270674 
L 459.68063 502.400502 
L 459.900183 481.589139 
L 460.119736 553.932448 
L 460.339289 539.453549 
L 460.558842 565.99659 
L 460.778396 433.073166 
L 460.997949 466.002066 
L 461.217502 470.389424 
L 461.437055 401.53124 
L 461.876161 451.129381 
L 462.095715 351.716402 
L 462.315268 380.007754 
L 462.534821 469.953152 
L 462.754374 440.055968 
L 462.973927 486.808292 
L 463.19348 443.664581 
L 463.413033 519.849618 
L 463.632587 490.363808 
L 463.85214 480.61257 
L 464.071693 462.819646 
L 464.291246 282.859074 
L 464.510799 453.708534 
L 464.730352 383.914488 
L 465.169459 515.022541 
L 465.389012 475.498081 
L 465.608565 457.071054 
L 465.828118 375.144105 
L 466.047671 373.717558 
L 466.267224 559.363338 
L 466.486778 272.878845 
L 466.706331 448.274631 
L 466.925884 468.701049 
L 467.145437 423.070903 
L 467.36499 529.247308 
L 467.584543 349.619426 
L 467.804097 461.227652 
L 468.02365 481.339059 
L 468.243203 488.53354 
L 468.462756 470.752737 
L 468.682309 324.051675 
L 468.901862 406.439571 
L 469.121415 355.688752 
L 469.340969 510.335756 
L 469.780075 387.094144 
L 469.999628 490.703389 
L 470.219181 505.726354 
L 470.438734 479.073391 
L 470.658288 403.072278 
L 470.877841 455.678502 
L 471.097394 402.177798 
L 471.316947 438.75175 
L 471.5365 497.93913 
L 471.756053 512.959529 
L 471.975606 312.321175 
L 472.19516 497.186539 
L 472.414713 402.334391 
L 472.634266 374.117411 
L 472.853819 456.529106 
L 473.073372 387.956006 
L 473.292925 526.705314 
L 473.512479 382.37181 
L 473.732032 320.872049 
L 473.951585 478.617224 
L 474.171138 474.69374 
L 474.390691 497.340482 
L 474.610244 446.500304 
L 474.829797 477.646551 
L 475.049351 465.666416 
L 475.268904 480.164035 
L 475.488457 282.696299 
L 475.927563 484.661373 
L 476.147116 490.240363 
L 476.366669 362.037145 
L 476.586223 504.233689 
L 476.805776 434.376389 
L 477.244882 528.512831 
L 477.464435 428.086152 
L 477.683988 410.497591 
L 477.903542 466.931799 
L 478.123095 467.692958 
L 478.342648 475.489068 
L 478.562201 365.336231 
L 478.781754 470.17649 
L 479.001307 420.932176 
L 479.22086 410.75595 
L 479.440414 443.083665 
L 479.659967 313.819492 
L 479.87952 416.433632 
L 480.099073 350.437436 
L 480.318626 444.260639 
L 480.538179 449.664911 
L 480.757733 487.480947 
L 480.977286 389.272934 
L 481.196839 488.514244 
L 481.416392 415.573698 
L 481.635945 530.913332 
L 481.855498 414.152192 
L 482.075051 474.440605 
L 482.294605 393.769322 
L 482.733711 450.244256 
L 482.953264 335.635295 
L 483.172817 456.668836 
L 483.39237 443.23393 
L 483.611924 474.647082 
L 483.831477 434.858662 
L 484.05103 493.433697 
L 484.270583 344.778014 
L 484.490136 486.620515 
L 484.929242 375.795108 
L 485.148796 495.219004 
L 485.368349 435.740876 
L 485.587902 453.712598 
L 485.807455 487.376449 
L 486.027008 473.231183 
L 486.246561 495.929215 
L 486.466115 407.355782 
L 486.685668 386.386927 
L 486.905221 432.98233 
L 487.124774 438.333081 
L 487.344327 428.027187 
L 488.002987 525.317218 
L 488.22254 420.450642 
L 488.442093 531.251867 
L 488.661646 436.104987 
L 488.881199 454.324912 
L 489.320306 418.15611 
L 489.539859 448.678119 
L 489.759412 577.658571 
L 489.978965 370.042107 
L 490.198518 508.659473 
L 490.418071 534.374356 
L 490.637624 357.212564 
L 490.857178 500.504146 
L 491.076731 543.846459 
L 491.515837 373.118249 
L 491.73539 530.864501 
L 491.954943 381.117398 
L 492.174497 488.733121 
L 492.39405 492.697848 
L 492.613603 437.561698 
L 493.052709 382.648205 
L 493.272262 481.589328 
L 493.491815 404.672781 
L 493.711369 462.492306 
L 494.150475 468.059435 
L 494.370028 456.249233 
L 494.589581 398.476593 
L 495.028688 500.549223 
L 495.248241 321.439432 
L 495.467794 491.508728 
L 495.687347 501.893754 
L 495.9069 503.601665 
L 496.126453 392.320768 
L 496.346006 387.714838 
L 496.56556 308.788757 
L 496.785113 503.110701 
L 497.004666 552.95144 
L 497.224219 483.005138 
L 497.443772 455.733767 
L 497.663325 515.841864 
L 497.882879 502.545482 
L 498.102432 555.318214 
L 498.321985 480.23396 
L 498.541538 331.046175 
L 498.761091 388.00778 
L 498.980644 481.730335 
L 499.200197 473.070111 
L 499.639304 275.738279 
L 499.858857 433.033951 
L 500.07841 286.145041 
L 500.297963 404.779303 
L 500.517516 389.985545 
L 500.73707 397.430251 
L 501.176176 472.686509 
L 501.395729 287.158991 
L 501.615282 367.458873 
L 501.834835 337.511923 
L 502.054388 474.376206 
L 502.273942 445.027201 
L 502.493495 537.604346 
L 502.713048 544.40521 
L 502.932601 490.102346 
L 503.152154 469.223927 
L 503.371707 540.835415 
L 503.59126 314.234861 
L 503.810814 506.788438 
L 504.030367 425.304784 
L 504.24992 483.212413 
L 504.469473 424.940314 
L 504.689026 568.709979 
L 504.908579 407.225452 
L 505.128133 385.268198 
L 505.347686 500.167138 
L 505.567239 310.675775 
L 505.786792 455.65692 
L 506.006345 468.659122 
L 506.225898 423.349045 
L 506.445451 492.908747 
L 506.665005 510.424475 
L 506.884558 384.616858 
L 507.104111 447.006509 
L 507.323664 456.328543 
L 507.543217 456.050081 
L 507.76277 270.969063 
L 507.982324 457.420514 
L 508.201877 416.454266 
L 508.640983 484.511252 
L 508.860536 563.094813 
L 509.080089 394.97012 
L 509.299642 426.183258 
L 509.519196 415.518826 
L 509.738749 288.14338 
L 509.958302 421.018253 
L 510.177855 431.756063 
L 510.397408 395.074786 
L 510.616961 542.022012 
L 510.836515 373.145551 
L 511.056068 460.99459 
L 511.275621 423.099213 
L 511.495174 456.512926 
L 511.714727 399.246408 
L 511.93428 491.263604 
L 512.153833 525.976042 
L 512.373387 511.505781 
L 512.59294 520.117152 
L 512.812493 454.129141 
L 513.032046 426.062836 
L 513.251599 279.380066 
L 513.471152 309.791926 
L 513.690706 464.160626 
L 513.910259 536.684726 
L 514.129812 289.911457 
L 514.568918 496.355228 
L 514.788471 498.923478 
L 515.008024 464.550768 
L 515.227578 462.288512 
L 515.447131 541.804695 
L 515.666684 427.311164 
L 515.886237 415.482402 
L 516.10579 492.044467 
L 516.325343 382.313343 
L 516.544897 477.367311 
L 516.76445 440.85144 
L 516.984003 380.918567 
L 517.203556 517.437852 
L 517.423109 350.592278 
L 517.642662 513.698746 
L 517.862215 532.095097 
L 518.081769 306.932727 
L 518.520875 479.257647 
L 518.740428 503.9803 
L 518.959981 393.639167 
L 519.179534 471.470543 
L 519.399088 365.321642 
L 519.618641 484.195621 
L 519.838194 382.283986 
L 520.057747 469.573938 
L 520.496853 393.227514 
L 520.716406 457.480181 
L 521.375066 306.937417 
L 521.594619 427.202115 
L 522.033725 448.4542 
L 522.253279 414.965053 
L 522.472832 443.028891 
L 522.692385 491.583636 
L 522.911938 446.936514 
L 523.131491 463.993177 
L 523.351044 531.081986 
L 523.570597 470.194648 
L 523.790151 267.714872 
L 524.009704 495.259713 
L 524.229257 482.556916 
L 524.44881 356.577302 
L 524.668363 467.101698 
L 524.887916 227.731475 
L 525.10747 471.325338 
L 525.327023 445.071006 
L 525.766129 510.953502 
L 525.985682 508.402738 
L 526.205235 485.342318 
L 526.424788 504.5509 
L 526.644342 413.001708 
L 526.863895 441.684255 
L 527.303001 393.305853 
L 527.522554 428.382642 
L 527.742107 316.098695 
L 527.96166 496.167416 
L 528.181214 492.831149 
L 528.400767 456.824904 
L 528.62032 146.266087 
L 528.839873 495.574139 
L 529.059426 398.319514 
L 529.278979 462.385315 
L 529.498533 380.033307 
L 529.718086 447.360224 
L 529.937639 397.691332 
L 530.157192 419.091704 
L 530.376745 464.760232 
L 530.596298 441.510599 
L 530.815851 353.110868 
L 531.035405 428.751868 
L 531.254958 430.342428 
L 531.474511 505.064828 
L 531.694064 465.346297 
L 531.913617 507.327437 
L 532.13317 357.50389 
L 532.352724 505.678906 
L 532.572277 483.107317 
L 532.79183 491.432683 
L 533.011383 342.725272 
L 533.230936 384.491722 
L 533.450489 333.552203 
L 533.670042 450.860081 
L 533.889596 503.800415 
L 534.328702 256.834913 
L 534.548255 400.468479 
L 534.767808 429.901776 
L 534.987361 430.562106 
L 535.206915 417.241174 
L 535.426468 448.655478 
L 535.646021 496.997727 
L 535.865574 390.638522 
L 536.085127 382.789835 
L 536.30468 469.631958 
L 536.524233 366.777008 
L 536.743787 531.221652 
L 536.96334 436.471425 
L 537.182893 456.104343 
L 537.402446 437.814942 
L 537.621999 480.470062 
L 537.841552 554.632047 
L 538.061106 525.237022 
L 538.280659 446.8399 
L 538.500212 473.592054 
L 538.719765 553.322759 
L 538.939318 495.55096 
L 539.158871 468.591993 
L 539.378424 539.648486 
L 539.597978 487.743512 
L 539.817531 475.579824 
L 540.037084 429.717088 
L 540.256637 467.672083 
L 540.47619 457.733895 
L 540.695743 421.796744 
L 540.915297 438.67921 
L 541.13485 419.78109 
L 541.354403 297.648467 
L 541.573956 412.000723 
L 541.793509 389.523199 
L 542.013062 492.121608 
L 542.232615 526.31353 
L 542.452169 452.219072 
L 542.671722 503.663766 
L 543.330381 351.583829 
L 543.769488 476.770881 
L 543.989041 529.569185 
L 544.208594 436.475235 
L 544.428147 525.076353 
L 544.6477 436.466474 
L 544.867253 432.882444 
L 545.086806 442.526019 
L 545.30636 508.260528 
L 545.525913 466.69972 
L 545.745466 447.007505 
L 545.745466 447.007505 
" style="fill:none;stroke:#96c69a;stroke-linecap:round;stroke-width:3;"/>
   </g>
   <g id="line2d_2"/>
   <g id="patch_3">
    <path d="M 84.914375 603.86 
L 84.914375 109.484571 
" style="fill:none;stroke:#262626;stroke-linecap:square;stroke-linejoin:miter;stroke-width:2.5;"/>
   </g>
   <g id="patch_4">
    <path d="M 84.914375 603.86 
L 567.689804 603.86 
" style="fill:none;stroke:#262626;stroke-linecap:square;stroke-linejoin:miter;stroke-width:2.5;"/>
   </g>
   <g id="legend_1">
    <g id="patch_5">
     <path d="M 514.774179 598.86 
L 560.689804 598.86 
Q 562.689804 598.86 562.689804 596.86 
L 562.689804 554.954375 
Q 562.689804 552.954375 560.689804 552.954375 
L 514.774179 552.954375 
Q 512.774179 552.954375 512.774179 554.954375 
L 512.774179 596.86 
Q 512.774179 598.86 514.774179 598.86 
z
" style="fill:#ffffff;opacity:0.8;stroke:#cccccc;stroke-linejoin:miter;stroke-width:2;"/>
    </g>
    <g id="text_15">
     <!-- $n_\tau$ -->
     <g style="fill:#262626;" transform="translate(524.651991 575.190625)scale(0.24 -0.24)">
      <defs>
       <path d="M 3566 2113 
L 3156 0 
L 2578 0 
L 2988 2091 
Q 3016 2238 3031 2350 
Q 3047 2463 3047 2528 
Q 3047 2791 2881 2937 
Q 2716 3084 2419 3084 
Q 1956 3084 1622 2776 
Q 1288 2469 1184 1941 
L 800 0 
L 225 0 
L 903 3500 
L 1478 3500 
L 1363 2950 
Q 1603 3253 1940 3418 
Q 2278 3584 2650 3584 
Q 3113 3584 3367 3334 
Q 3622 3084 3622 2631 
Q 3622 2519 3608 2391 
Q 3594 2263 3566 2113 
z
" id="DejaVuSans-Oblique-6e" transform="scale(0.015625)"/>
       <path d="M 2103 638 
Q 2188 488 2525 488 
L 2800 488 
L 2706 0 
L 2363 0 
Q 1800 0 1600 300 
Q 1403 606 1534 1269 
L 1856 2925 
L 541 2925 
L 653 3500 
L 3881 3500 
L 3769 2925 
L 2444 2925 
L 2113 1234 
Q 2025 781 2103 638 
z
" id="DejaVuSans-Oblique-3c4" transform="scale(0.015625)"/>
      </defs>
      <use xlink:href="#DejaVuSans-Oblique-6e"/>
      <use transform="translate(63.378906 -16.40625)scale(0.7)" xlink:href="#DejaVuSans-Oblique-3c4"/>
     </g>
    </g>
    <g id="line2d_3">
     <path d="M 516.774179 589.280313 
L 536.774179 589.280313 
" style="fill:none;stroke:#96c69a;stroke-linecap:round;stroke-width:3;"/>
    </g>
    <g id="line2d_4"/>
    <g id="text_16">
     <!-- 40 -->
     <g style="fill:#262626;" transform="translate(544.774179 592.780313)scale(0.1 -0.1)">
      <defs>
       <path d="M 2356 3675 
L 1038 1722 
L 2356 1722 
L 2356 3675 
z
M 2156 4666 
L 3494 4666 
L 3494 1722 
L 4159 1722 
L 4159 850 
L 3494 850 
L 3494 0 
L 2356 0 
L 2356 850 
L 288 850 
L 288 1881 
L 2156 4666 
z
" id="DejaVuSans-Bold-34" transform="scale(0.015625)"/>
       <path d="M 2944 2338 
Q 2944 3213 2780 3570 
Q 2616 3928 2228 3928 
Q 1841 3928 1675 3570 
Q 1509 3213 1509 2338 
Q 1509 1453 1675 1090 
Q 1841 728 2228 728 
Q 2613 728 2778 1090 
Q 2944 1453 2944 2338 
z
M 4147 2328 
Q 4147 1169 3647 539 
Q 3147 -91 2228 -91 
Q 1306 -91 806 539 
Q 306 1169 306 2328 
Q 306 3491 806 4120 
Q 1306 4750 2228 4750 
Q 3147 4750 3647 4120 
Q 4147 3491 4147 2328 
z
" id="DejaVuSans-Bold-30" transform="scale(0.015625)"/>
      </defs>
      <use xlink:href="#DejaVuSans-Bold-34"/>
      <use x="69.580078" xlink:href="#DejaVuSans-Bold-30"/>
     </g>
    </g>
   </g>
  </g>
  <g id="axes_2">
   <g id="patch_6">
    <path d="M 84.914375 92.437143 
L 567.689804 92.437143 
L 567.689804 7.2 
L 84.914375 7.2 
z
" style="fill:none;"/>
   </g>
   <g id="matplotlib.axis_3">
    <g id="xtick_7"/>
    <g id="xtick_8"/>
    <g id="xtick_9"/>
    <g id="xtick_10"/>
    <g id="xtick_11"/>
    <g id="xtick_12"/>
   </g>
   <g id="matplotlib.axis_4">
    <g id="ytick_7">
     <g id="text_17">
      <!-- 0 -->
      <g style="fill:#262626;" transform="translate(55.416875 100.795424)scale(0.22 -0.22)">
       <use xlink:href="#DejaVuSans-30"/>
      </g>
     </g>
    </g>
    <g id="ytick_8">
     <g id="text_18">
      <!-- 100 -->
      <g style="fill:#262626;" transform="translate(27.421875 48.082287)scale(0.22 -0.22)">
       <use xlink:href="#DejaVuSans-31"/>
       <use x="63.623047" xlink:href="#DejaVuSans-30"/>
       <use x="127.246094" xlink:href="#DejaVuSans-30"/>
      </g>
     </g>
    </g>
   </g>
   <g id="patch_7">
    <path clip-path="url(#p8b09fea93b)" d="M 106.858713 92.437143 
L 140.619232 92.437143 
L 140.619232 11.258912 
L 106.858713 11.258912 
z
" style="fill:#96c69a;fill-opacity:0.5;stroke:#ffffff;stroke-linejoin:miter;stroke-width:2;"/>
   </g>
   <g id="patch_8">
    <path clip-path="url(#p8b09fea93b)" d="M 140.619232 92.437143 
L 174.379752 92.437143 
L 174.379752 11.258912 
L 140.619232 11.258912 
z
" style="fill:#96c69a;fill-opacity:0.5;stroke:#ffffff;stroke-linejoin:miter;stroke-width:2;"/>
   </g>
   <g id="patch_9">
    <path clip-path="url(#p8b09fea93b)" d="M 174.379752 92.437143 
L 208.140271 92.437143 
L 208.140271 11.258912 
L 174.379752 11.258912 
z
" style="fill:#96c69a;fill-opacity:0.5;stroke:#ffffff;stroke-linejoin:miter;stroke-width:2;"/>
   </g>
   <g id="patch_10">
    <path clip-path="url(#p8b09fea93b)" d="M 208.140271 92.437143 
L 241.900791 92.437143 
L 241.900791 11.258912 
L 208.140271 11.258912 
z
" style="fill:#96c69a;fill-opacity:0.5;stroke:#ffffff;stroke-linejoin:miter;stroke-width:2;"/>
   </g>
   <g id="patch_11">
    <path clip-path="url(#p8b09fea93b)" d="M 241.900791 92.437143 
L 275.66131 92.437143 
L 275.66131 11.786043 
L 241.900791 11.786043 
z
" style="fill:#96c69a;fill-opacity:0.5;stroke:#ffffff;stroke-linejoin:miter;stroke-width:2;"/>
   </g>
   <g id="patch_12">
    <path clip-path="url(#p8b09fea93b)" d="M 275.66131 92.437143 
L 309.42183 92.437143 
L 309.42183 11.258912 
L 275.66131 11.258912 
z
" style="fill:#96c69a;fill-opacity:0.5;stroke:#ffffff;stroke-linejoin:miter;stroke-width:2;"/>
   </g>
   <g id="patch_13">
    <path clip-path="url(#p8b09fea93b)" d="M 309.42183 92.437143 
L 343.182349 92.437143 
L 343.182349 11.258912 
L 309.42183 11.258912 
z
" style="fill:#96c69a;fill-opacity:0.5;stroke:#ffffff;stroke-linejoin:miter;stroke-width:2;"/>
   </g>
   <g id="patch_14">
    <path clip-path="url(#p8b09fea93b)" d="M 343.182349 92.437143 
L 376.942869 92.437143 
L 376.942869 11.258912 
L 343.182349 11.258912 
z
" style="fill:#96c69a;fill-opacity:0.5;stroke:#ffffff;stroke-linejoin:miter;stroke-width:2;"/>
   </g>
   <g id="patch_15">
    <path clip-path="url(#p8b09fea93b)" d="M 376.942869 92.437143 
L 410.703388 92.437143 
L 410.703388 11.786043 
L 376.942869 11.786043 
z
" style="fill:#96c69a;fill-opacity:0.5;stroke:#ffffff;stroke-linejoin:miter;stroke-width:2;"/>
   </g>
   <g id="patch_16">
    <path clip-path="url(#p8b09fea93b)" d="M 410.703388 92.437143 
L 444.463907 92.437143 
L 444.463907 11.258912 
L 410.703388 11.258912 
z
" style="fill:#96c69a;fill-opacity:0.5;stroke:#ffffff;stroke-linejoin:miter;stroke-width:2;"/>
   </g>
   <g id="patch_17">
    <path clip-path="url(#p8b09fea93b)" d="M 444.463907 92.437143 
L 478.224427 92.437143 
L 478.224427 11.258912 
L 444.463907 11.258912 
z
" style="fill:#96c69a;fill-opacity:0.5;stroke:#ffffff;stroke-linejoin:miter;stroke-width:2;"/>
   </g>
   <g id="patch_18">
    <path clip-path="url(#p8b09fea93b)" d="M 478.224427 92.437143 
L 511.984946 92.437143 
L 511.984946 11.258912 
L 478.224427 11.258912 
z
" style="fill:#96c69a;fill-opacity:0.5;stroke:#ffffff;stroke-linejoin:miter;stroke-width:2;"/>
   </g>
   <g id="patch_19">
    <path clip-path="url(#p8b09fea93b)" d="M 511.984946 92.437143 
L 545.745466 92.437143 
L 545.745466 11.258912 
L 511.984946 11.258912 
z
" style="fill:#96c69a;fill-opacity:0.5;stroke:#ffffff;stroke-linejoin:miter;stroke-width:2;"/>
   </g>
   <g id="patch_20">
    <path d="M 84.914375 92.437143 
L 84.914375 7.2 
" style="fill:none;stroke:#262626;stroke-linecap:square;stroke-linejoin:miter;stroke-width:2.5;"/>
   </g>
   <g id="patch_21">
    <path d="M 84.914375 92.437143 
L 567.689804 92.437143 
" style="fill:none;stroke:#262626;stroke-linecap:square;stroke-linejoin:miter;stroke-width:2.5;"/>
   </g>
  </g>
  <g id="axes_3">
   <g id="patch_22">
    <path d="M 584.337232 603.86 
L 667.574375 603.86 
L 667.574375 109.484571 
L 584.337232 109.484571 
z
" style="fill:none;"/>
   </g>
   <g id="matplotlib.axis_5">
    <g id="xtick_13">
     <g id="text_19">
      <!-- 0 -->
      <g style="fill:#262626;" transform="translate(577.338482 636.076563)scale(0.22 -0.22)">
       <use xlink:href="#DejaVuSans-30"/>
      </g>
     </g>
    </g>
    <g id="xtick_14">
     <g id="text_20">
      <!-- 100 -->
      <g style="fill:#262626;" transform="translate(606.897833 636.076563)scale(0.22 -0.22)">
       <use xlink:href="#DejaVuSans-31"/>
       <use x="63.623047" xlink:href="#DejaVuSans-30"/>
       <use x="127.246094" xlink:href="#DejaVuSans-30"/>
      </g>
     </g>
    </g>
   </g>
   <g id="matplotlib.axis_6">
    <g id="ytick_9"/>
    <g id="ytick_10"/>
    <g id="ytick_11"/>
    <g id="ytick_12"/>
    <g id="ytick_13"/>
    <g id="ytick_14"/>
   </g>
   <g id="patch_23">
    <path clip-path="url(#p4be7f826d4)" d="M 584.337232 581.38839 
L 588.692917 581.38839 
L 588.692917 568.169795 
L 584.337232 568.169795 
z
" style="fill:#96c69a;fill-opacity:0.5;stroke:#ffffff;stroke-linejoin:miter;stroke-width:1.321859;"/>
   </g>
   <g id="patch_24">
    <path clip-path="url(#p4be7f826d4)" d="M 584.337232 568.169795 
L 590.87076 568.169795 
L 590.87076 554.951201 
L 584.337232 554.951201 
z
" style="fill:#96c69a;fill-opacity:0.5;stroke:#ffffff;stroke-linejoin:miter;stroke-width:1.321859;"/>
   </g>
   <g id="patch_25">
    <path clip-path="url(#p4be7f826d4)" d="M 584.337232 554.951201 
L 601.324404 554.951201 
L 601.324404 541.732607 
L 584.337232 541.732607 
z
" style="fill:#96c69a;fill-opacity:0.5;stroke:#ffffff;stroke-linejoin:miter;stroke-width:1.321859;"/>
   </g>
   <g id="patch_26">
    <path clip-path="url(#p4be7f826d4)" d="M 584.337232 541.732607 
L 612.649185 541.732607 
L 612.649185 528.514012 
L 584.337232 528.514012 
z
" style="fill:#96c69a;fill-opacity:0.5;stroke:#ffffff;stroke-linejoin:miter;stroke-width:1.321859;"/>
   </g>
   <g id="patch_27">
    <path clip-path="url(#p4be7f826d4)" d="M 584.337232 528.514012 
L 620.05385 528.514012 
L 620.05385 515.295418 
L 584.337232 515.295418 
z
" style="fill:#96c69a;fill-opacity:0.5;stroke:#ffffff;stroke-linejoin:miter;stroke-width:1.321859;"/>
   </g>
   <g id="patch_28">
    <path clip-path="url(#p4be7f826d4)" d="M 584.337232 515.295418 
L 627.894083 515.295418 
L 627.894083 502.076824 
L 584.337232 502.076824 
z
" style="fill:#96c69a;fill-opacity:0.5;stroke:#ffffff;stroke-linejoin:miter;stroke-width:1.321859;"/>
   </g>
   <g id="patch_29">
    <path clip-path="url(#p4be7f826d4)" d="M 584.337232 502.076824 
L 645.316824 502.076824 
L 645.316824 488.858229 
L 584.337232 488.858229 
z
" style="fill:#96c69a;fill-opacity:0.5;stroke:#ffffff;stroke-linejoin:miter;stroke-width:1.321859;"/>
   </g>
   <g id="patch_30">
    <path clip-path="url(#p4be7f826d4)" d="M 584.337232 488.858229 
L 650.543646 488.858229 
L 650.543646 475.639635 
L 584.337232 475.639635 
z
" style="fill:#96c69a;fill-opacity:0.5;stroke:#ffffff;stroke-linejoin:miter;stroke-width:1.321859;"/>
   </g>
   <g id="patch_31">
    <path clip-path="url(#p4be7f826d4)" d="M 584.337232 475.639635 
L 660.126153 475.639635 
L 660.126153 462.42104 
L 584.337232 462.42104 
z
" style="fill:#96c69a;fill-opacity:0.5;stroke:#ffffff;stroke-linejoin:miter;stroke-width:1.321859;"/>
   </g>
   <g id="patch_32">
    <path clip-path="url(#p4be7f826d4)" d="M 584.337232 462.42104 
L 658.383879 462.42104 
L 658.383879 449.202446 
L 584.337232 449.202446 
z
" style="fill:#96c69a;fill-opacity:0.5;stroke:#ffffff;stroke-linejoin:miter;stroke-width:1.321859;"/>
   </g>
   <g id="patch_33">
    <path clip-path="url(#p4be7f826d4)" d="M 584.337232 449.202446 
L 663.610702 449.202446 
L 663.610702 435.983852 
L 584.337232 435.983852 
z
" style="fill:#96c69a;fill-opacity:0.5;stroke:#ffffff;stroke-linejoin:miter;stroke-width:1.321859;"/>
   </g>
   <g id="patch_34">
    <path clip-path="url(#p4be7f826d4)" d="M 584.337232 435.983852 
L 647.494667 435.983852 
L 647.494667 422.765257 
L 584.337232 422.765257 
z
" style="fill:#96c69a;fill-opacity:0.5;stroke:#ffffff;stroke-linejoin:miter;stroke-width:1.321859;"/>
   </g>
   <g id="patch_35">
    <path clip-path="url(#p4be7f826d4)" d="M 584.337232 422.765257 
L 646.187961 422.765257 
L 646.187961 409.546663 
L 584.337232 409.546663 
z
" style="fill:#96c69a;fill-opacity:0.5;stroke:#ffffff;stroke-linejoin:miter;stroke-width:1.321859;"/>
   </g>
   <g id="patch_36">
    <path clip-path="url(#p4be7f826d4)" d="M 584.337232 409.546663 
L 633.556474 409.546663 
L 633.556474 396.328069 
L 584.337232 396.328069 
z
" style="fill:#96c69a;fill-opacity:0.5;stroke:#ffffff;stroke-linejoin:miter;stroke-width:1.321859;"/>
   </g>
   <g id="patch_37">
    <path clip-path="url(#p4be7f826d4)" d="M 584.337232 396.328069 
L 632.249769 396.328069 
L 632.249769 383.109474 
L 584.337232 383.109474 
z
" style="fill:#96c69a;fill-opacity:0.5;stroke:#ffffff;stroke-linejoin:miter;stroke-width:1.321859;"/>
   </g>
   <g id="patch_38">
    <path clip-path="url(#p4be7f826d4)" d="M 584.337232 383.109474 
L 624.409535 383.109474 
L 624.409535 369.89088 
L 584.337232 369.89088 
z
" style="fill:#96c69a;fill-opacity:0.5;stroke:#ffffff;stroke-linejoin:miter;stroke-width:1.321859;"/>
   </g>
   <g id="patch_39">
    <path clip-path="url(#p4be7f826d4)" d="M 584.337232 369.89088 
L 612.649185 369.89088 
L 612.649185 356.672286 
L 584.337232 356.672286 
z
" style="fill:#96c69a;fill-opacity:0.5;stroke:#ffffff;stroke-linejoin:miter;stroke-width:1.321859;"/>
   </g>
   <g id="patch_40">
    <path clip-path="url(#p4be7f826d4)" d="M 584.337232 356.672286 
L 607.857932 356.672286 
L 607.857932 343.453691 
L 584.337232 343.453691 
z
" style="fill:#96c69a;fill-opacity:0.5;stroke:#ffffff;stroke-linejoin:miter;stroke-width:1.321859;"/>
   </g>
   <g id="patch_41">
    <path clip-path="url(#p4be7f826d4)" d="M 584.337232 343.453691 
L 597.404288 343.453691 
L 597.404288 330.235097 
L 584.337232 330.235097 
z
" style="fill:#96c69a;fill-opacity:0.5;stroke:#ffffff;stroke-linejoin:miter;stroke-width:1.321859;"/>
   </g>
   <g id="patch_42">
    <path clip-path="url(#p4be7f826d4)" d="M 584.337232 330.235097 
L 593.919739 330.235097 
L 593.919739 317.016503 
L 584.337232 317.016503 
z
" style="fill:#96c69a;fill-opacity:0.5;stroke:#ffffff;stroke-linejoin:miter;stroke-width:1.321859;"/>
   </g>
   <g id="patch_43">
    <path clip-path="url(#p4be7f826d4)" d="M 584.337232 317.016503 
L 596.533151 317.016503 
L 596.533151 303.797908 
L 584.337232 303.797908 
z
" style="fill:#96c69a;fill-opacity:0.5;stroke:#ffffff;stroke-linejoin:miter;stroke-width:1.321859;"/>
   </g>
   <g id="patch_44">
    <path clip-path="url(#p4be7f826d4)" d="M 584.337232 303.797908 
L 591.741897 303.797908 
L 591.741897 290.579314 
L 584.337232 290.579314 
z
" style="fill:#96c69a;fill-opacity:0.5;stroke:#ffffff;stroke-linejoin:miter;stroke-width:1.321859;"/>
   </g>
   <g id="patch_45">
    <path clip-path="url(#p4be7f826d4)" d="M 584.337232 290.579314 
L 592.177465 290.579314 
L 592.177465 277.36072 
L 584.337232 277.36072 
z
" style="fill:#96c69a;fill-opacity:0.5;stroke:#ffffff;stroke-linejoin:miter;stroke-width:1.321859;"/>
   </g>
   <g id="patch_46">
    <path clip-path="url(#p4be7f826d4)" d="M 584.337232 277.36072 
L 588.692917 277.36072 
L 588.692917 264.142125 
L 584.337232 264.142125 
z
" style="fill:#96c69a;fill-opacity:0.5;stroke:#ffffff;stroke-linejoin:miter;stroke-width:1.321859;"/>
   </g>
   <g id="patch_47">
    <path clip-path="url(#p4be7f826d4)" d="M 584.337232 264.142125 
L 587.82178 264.142125 
L 587.82178 250.923531 
L 584.337232 250.923531 
z
" style="fill:#96c69a;fill-opacity:0.5;stroke:#ffffff;stroke-linejoin:miter;stroke-width:1.321859;"/>
   </g>
   <g id="patch_48">
    <path clip-path="url(#p4be7f826d4)" d="M 584.337232 250.923531 
L 585.643938 250.923531 
L 585.643938 237.704937 
L 584.337232 237.704937 
z
" style="fill:#96c69a;fill-opacity:0.5;stroke:#ffffff;stroke-linejoin:miter;stroke-width:1.321859;"/>
   </g>
   <g id="patch_49">
    <path clip-path="url(#p4be7f826d4)" d="M 584.337232 237.704937 
L 585.643938 237.704937 
L 585.643938 224.486342 
L 584.337232 224.486342 
z
" style="fill:#96c69a;fill-opacity:0.5;stroke:#ffffff;stroke-linejoin:miter;stroke-width:1.321859;"/>
   </g>
   <g id="patch_50">
    <path clip-path="url(#p4be7f826d4)" d="M 584.337232 224.486342 
L 585.208369 224.486342 
L 585.208369 211.267748 
L 584.337232 211.267748 
z
" style="fill:#96c69a;fill-opacity:0.5;stroke:#ffffff;stroke-linejoin:miter;stroke-width:1.321859;"/>
   </g>
   <g id="patch_51">
    <path clip-path="url(#p4be7f826d4)" d="M 584.337232 211.267748 
L 586.079506 211.267748 
L 586.079506 198.049154 
L 584.337232 198.049154 
z
" style="fill:#96c69a;fill-opacity:0.5;stroke:#ffffff;stroke-linejoin:miter;stroke-width:1.321859;"/>
   </g>
   <g id="patch_52">
    <path clip-path="url(#p4be7f826d4)" d="M 584.337232 198.049154 
L 585.208369 198.049154 
L 585.208369 184.830559 
L 584.337232 184.830559 
z
" style="fill:#96c69a;fill-opacity:0.5;stroke:#ffffff;stroke-linejoin:miter;stroke-width:1.321859;"/>
   </g>
   <g id="patch_53">
    <path clip-path="url(#p4be7f826d4)" d="M 584.337232 184.830559 
L 584.337232 184.830559 
L 584.337232 171.611965 
L 584.337232 171.611965 
z
" style="fill:#96c69a;fill-opacity:0.5;stroke:#ffffff;stroke-linejoin:miter;stroke-width:1.321859;"/>
   </g>
   <g id="patch_54">
    <path clip-path="url(#p4be7f826d4)" d="M 584.337232 171.611965 
L 584.772801 171.611965 
L 584.772801 158.393371 
L 584.337232 158.393371 
z
" style="fill:#96c69a;fill-opacity:0.5;stroke:#ffffff;stroke-linejoin:miter;stroke-width:1.321859;"/>
   </g>
   <g id="patch_55">
    <path clip-path="url(#p4be7f826d4)" d="M 584.337232 158.393371 
L 584.772801 158.393371 
L 584.772801 145.174776 
L 584.337232 145.174776 
z
" style="fill:#96c69a;fill-opacity:0.5;stroke:#ffffff;stroke-linejoin:miter;stroke-width:1.321859;"/>
   </g>
   <g id="patch_56">
    <path clip-path="url(#p4be7f826d4)" d="M 584.337232 145.174776 
L 584.772801 145.174776 
L 584.772801 131.956182 
L 584.337232 131.956182 
z
" style="fill:#96c69a;fill-opacity:0.5;stroke:#ffffff;stroke-linejoin:miter;stroke-width:1.321859;"/>
   </g>
   <g id="patch_57">
    <path d="M 584.337232 603.86 
L 584.337232 109.484571 
" style="fill:none;stroke:#262626;stroke-linecap:square;stroke-linejoin:miter;stroke-width:2.5;"/>
   </g>
   <g id="patch_58">
    <path d="M 584.337232 603.86 
L 667.574375 603.86 
" style="fill:none;stroke:#262626;stroke-linecap:square;stroke-linejoin:miter;stroke-width:2.5;"/>
   </g>
  </g>
 </g>
 <defs>
  <clipPath id="p2469baf465">
   <rect height="494.375429" width="482.775429" x="84.914375" y="109.484571"/>
  </clipPath>
  <clipPath id="p8b09fea93b">
   <rect height="85.237143" width="482.775429" x="84.914375" y="7.2"/>
  </clipPath>
  <clipPath id="p4be7f826d4">
   <rect height="494.375429" width="83.237143" x="584.337232" y="109.484571"/>
  </clipPath>
 </defs>
</svg>
