<?xml version="1.0" encoding="utf-8" standalone="no"?>
<!DOCTYPE svg PUBLIC "-//W3C//DTD SVG 1.1//EN"
  "http://www.w3.org/Graphics/SVG/1.1/DTD/svg11.dtd">
<svg height="675.079375pt" version="1.1" viewBox="0 0 688.771875 675.079375" width="688.771875pt" xmlns="http://www.w3.org/2000/svg" xmlns:xlink="http://www.w3.org/1999/xlink">
 <metadata>
  <rdf:RDF xmlns:cc="http://creativecommons.org/ns#" xmlns:dc="http://purl.org/dc/elements/1.1/" xmlns:rdf="http://www.w3.org/1999/02/22-rdf-syntax-ns#">
   <cc:Work>
    <dc:type rdf:resource="http://purl.org/dc/dcmitype/StillImage"/>
    <dc:date>2021-07-16T21:43:53.087788</dc:date>
    <dc:format>image/svg+xml</dc:format>
    <dc:creator>
     <cc:Agent>
      <dc:title>Matplotlib v3.4.2, https://matplotlib.org/</dc:title>
     </cc:Agent>
    </dc:creator>
   </cc:Work>
  </rdf:RDF>
 </metadata>
 <defs>
  <style type="text/css">*{stroke-linecap:butt;stroke-linejoin:round;}</style>
 </defs>
 <g id="figure_1">
  <g id="patch_1">
   <path d="M 0 675.079375 
L 688.771875 675.079375 
L 688.771875 0 
L 0 0 
z
" style="fill:#ffffff;"/>
  </g>
  <g id="axes_1">
   <g id="patch_2">
    <path d="M 98.911875 603.86 
L 581.687304 603.86 
L 581.687304 109.484571 
L 98.911875 109.484571 
z
" style="fill:none;"/>
   </g>
   <g id="matplotlib.axis_1">
    <g id="xtick_1">
     <g id="text_1">
      <!-- 0 -->
      <g style="fill:#262626;" transform="translate(113.63791 636.076563)scale(0.22 -0.22)">
       <defs>
        <path d="M 2034 4250 
Q 1547 4250 1301 3770 
Q 1056 3291 1056 2328 
Q 1056 1369 1301 889 
Q 1547 409 2034 409 
Q 2525 409 2770 889 
Q 3016 1369 3016 2328 
Q 3016 3291 2770 3770 
Q 2525 4250 2034 4250 
z
M 2034 4750 
Q 2819 4750 3233 4129 
Q 3647 3509 3647 2328 
Q 3647 1150 3233 529 
Q 2819 -91 2034 -91 
Q 1250 -91 836 529 
Q 422 1150 422 2328 
Q 422 3509 836 4129 
Q 1250 4750 2034 4750 
z
" id="DejaVuSans-30" transform="scale(0.015625)"/>
       </defs>
       <use xlink:href="#DejaVuSans-30"/>
      </g>
     </g>
    </g>
    <g id="xtick_2">
     <g id="text_2">
      <!-- 20000 -->
      <g style="fill:#262626;" transform="translate(173.464171 636.076563)scale(0.22 -0.22)">
       <defs>
        <path d="M 1228 531 
L 3431 531 
L 3431 0 
L 469 0 
L 469 531 
Q 828 903 1448 1529 
Q 2069 2156 2228 2338 
Q 2531 2678 2651 2914 
Q 2772 3150 2772 3378 
Q 2772 3750 2511 3984 
Q 2250 4219 1831 4219 
Q 1534 4219 1204 4116 
Q 875 4013 500 3803 
L 500 4441 
Q 881 4594 1212 4672 
Q 1544 4750 1819 4750 
Q 2544 4750 2975 4387 
Q 3406 4025 3406 3419 
Q 3406 3131 3298 2873 
Q 3191 2616 2906 2266 
Q 2828 2175 2409 1742 
Q 1991 1309 1228 531 
z
" id="DejaVuSans-32" transform="scale(0.015625)"/>
       </defs>
       <use xlink:href="#DejaVuSans-32"/>
       <use x="63.623047" xlink:href="#DejaVuSans-30"/>
       <use x="127.246094" xlink:href="#DejaVuSans-30"/>
       <use x="190.869141" xlink:href="#DejaVuSans-30"/>
       <use x="254.492188" xlink:href="#DejaVuSans-30"/>
      </g>
     </g>
    </g>
    <g id="xtick_3">
     <g id="text_3">
      <!-- 40000 -->
      <g style="fill:#262626;" transform="translate(261.285432 636.076563)scale(0.22 -0.22)">
       <defs>
        <path d="M 2419 4116 
L 825 1625 
L 2419 1625 
L 2419 4116 
z
M 2253 4666 
L 3047 4666 
L 3047 1625 
L 3713 1625 
L 3713 1100 
L 3047 1100 
L 3047 0 
L 2419 0 
L 2419 1100 
L 313 1100 
L 313 1709 
L 2253 4666 
z
" id="DejaVuSans-34" transform="scale(0.015625)"/>
       </defs>
       <use xlink:href="#DejaVuSans-34"/>
       <use x="63.623047" xlink:href="#DejaVuSans-30"/>
       <use x="127.246094" xlink:href="#DejaVuSans-30"/>
       <use x="190.869141" xlink:href="#DejaVuSans-30"/>
       <use x="254.492188" xlink:href="#DejaVuSans-30"/>
      </g>
     </g>
    </g>
    <g id="xtick_4">
     <g id="text_4">
      <!-- 60000 -->
      <g style="fill:#262626;" transform="translate(349.106693 636.076563)scale(0.22 -0.22)">
       <defs>
        <path d="M 2113 2584 
Q 1688 2584 1439 2293 
Q 1191 2003 1191 1497 
Q 1191 994 1439 701 
Q 1688 409 2113 409 
Q 2538 409 2786 701 
Q 3034 994 3034 1497 
Q 3034 2003 2786 2293 
Q 2538 2584 2113 2584 
z
M 3366 4563 
L 3366 3988 
Q 3128 4100 2886 4159 
Q 2644 4219 2406 4219 
Q 1781 4219 1451 3797 
Q 1122 3375 1075 2522 
Q 1259 2794 1537 2939 
Q 1816 3084 2150 3084 
Q 2853 3084 3261 2657 
Q 3669 2231 3669 1497 
Q 3669 778 3244 343 
Q 2819 -91 2113 -91 
Q 1303 -91 875 529 
Q 447 1150 447 2328 
Q 447 3434 972 4092 
Q 1497 4750 2381 4750 
Q 2619 4750 2861 4703 
Q 3103 4656 3366 4563 
z
" id="DejaVuSans-36" transform="scale(0.015625)"/>
       </defs>
       <use xlink:href="#DejaVuSans-36"/>
       <use x="63.623047" xlink:href="#DejaVuSans-30"/>
       <use x="127.246094" xlink:href="#DejaVuSans-30"/>
       <use x="190.869141" xlink:href="#DejaVuSans-30"/>
       <use x="254.492188" xlink:href="#DejaVuSans-30"/>
      </g>
     </g>
    </g>
    <g id="xtick_5">
     <g id="text_5">
      <!-- 80000 -->
      <g style="fill:#262626;" transform="translate(436.927955 636.076563)scale(0.22 -0.22)">
       <defs>
        <path d="M 2034 2216 
Q 1584 2216 1326 1975 
Q 1069 1734 1069 1313 
Q 1069 891 1326 650 
Q 1584 409 2034 409 
Q 2484 409 2743 651 
Q 3003 894 3003 1313 
Q 3003 1734 2745 1975 
Q 2488 2216 2034 2216 
z
M 1403 2484 
Q 997 2584 770 2862 
Q 544 3141 544 3541 
Q 544 4100 942 4425 
Q 1341 4750 2034 4750 
Q 2731 4750 3128 4425 
Q 3525 4100 3525 3541 
Q 3525 3141 3298 2862 
Q 3072 2584 2669 2484 
Q 3125 2378 3379 2068 
Q 3634 1759 3634 1313 
Q 3634 634 3220 271 
Q 2806 -91 2034 -91 
Q 1263 -91 848 271 
Q 434 634 434 1313 
Q 434 1759 690 2068 
Q 947 2378 1403 2484 
z
M 1172 3481 
Q 1172 3119 1398 2916 
Q 1625 2713 2034 2713 
Q 2441 2713 2670 2916 
Q 2900 3119 2900 3481 
Q 2900 3844 2670 4047 
Q 2441 4250 2034 4250 
Q 1625 4250 1398 4047 
Q 1172 3844 1172 3481 
z
" id="DejaVuSans-38" transform="scale(0.015625)"/>
       </defs>
       <use xlink:href="#DejaVuSans-38"/>
       <use x="63.623047" xlink:href="#DejaVuSans-30"/>
       <use x="127.246094" xlink:href="#DejaVuSans-30"/>
       <use x="190.869141" xlink:href="#DejaVuSans-30"/>
       <use x="254.492188" xlink:href="#DejaVuSans-30"/>
      </g>
     </g>
    </g>
    <g id="xtick_6">
     <g id="text_6">
      <!-- 100000 -->
      <g style="fill:#262626;" transform="translate(517.750466 636.076563)scale(0.22 -0.22)">
       <defs>
        <path d="M 794 531 
L 1825 531 
L 1825 4091 
L 703 3866 
L 703 4441 
L 1819 4666 
L 2450 4666 
L 2450 531 
L 3481 531 
L 3481 0 
L 794 0 
L 794 531 
z
" id="DejaVuSans-31" transform="scale(0.015625)"/>
       </defs>
       <use xlink:href="#DejaVuSans-31"/>
       <use x="63.623047" xlink:href="#DejaVuSans-30"/>
       <use x="127.246094" xlink:href="#DejaVuSans-30"/>
       <use x="190.869141" xlink:href="#DejaVuSans-30"/>
       <use x="254.492188" xlink:href="#DejaVuSans-30"/>
       <use x="318.115234" xlink:href="#DejaVuSans-30"/>
      </g>
     </g>
    </g>
    <g id="text_7">
     <!-- MDTU -->
     <g style="fill:#262626;" transform="translate(304.593964 662.888125)scale(0.24 -0.24)">
      <defs>
       <path d="M 628 4666 
L 1569 4666 
L 2759 1491 
L 3956 4666 
L 4897 4666 
L 4897 0 
L 4281 0 
L 4281 4097 
L 3078 897 
L 2444 897 
L 1241 4097 
L 1241 0 
L 628 0 
L 628 4666 
z
" id="DejaVuSans-4d" transform="scale(0.015625)"/>
       <path d="M 1259 4147 
L 1259 519 
L 2022 519 
Q 2988 519 3436 956 
Q 3884 1394 3884 2338 
Q 3884 3275 3436 3711 
Q 2988 4147 2022 4147 
L 1259 4147 
z
M 628 4666 
L 1925 4666 
Q 3281 4666 3915 4102 
Q 4550 3538 4550 2338 
Q 4550 1131 3912 565 
Q 3275 0 1925 0 
L 628 0 
L 628 4666 
z
" id="DejaVuSans-44" transform="scale(0.015625)"/>
       <path d="M -19 4666 
L 3928 4666 
L 3928 4134 
L 2272 4134 
L 2272 0 
L 1638 0 
L 1638 4134 
L -19 4134 
L -19 4666 
z
" id="DejaVuSans-54" transform="scale(0.015625)"/>
       <path d="M 556 4666 
L 1191 4666 
L 1191 1831 
Q 1191 1081 1462 751 
Q 1734 422 2344 422 
Q 2950 422 3222 751 
Q 3494 1081 3494 1831 
L 3494 4666 
L 4128 4666 
L 4128 1753 
Q 4128 841 3676 375 
Q 3225 -91 2344 -91 
Q 1459 -91 1007 375 
Q 556 841 556 1753 
L 556 4666 
z
" id="DejaVuSans-55" transform="scale(0.015625)"/>
      </defs>
      <use xlink:href="#DejaVuSans-4d"/>
      <use x="86.279297" xlink:href="#DejaVuSans-44"/>
      <use x="163.28125" xlink:href="#DejaVuSans-54"/>
      <use x="224.365234" xlink:href="#DejaVuSans-55"/>
     </g>
    </g>
   </g>
   <g id="matplotlib.axis_2">
    <g id="ytick_1">
     <g id="text_8">
      <!-- 0.25 -->
      <g style="fill:#262626;" transform="translate(34.4275 573.395807)scale(0.22 -0.22)">
       <defs>
        <path d="M 684 794 
L 1344 794 
L 1344 0 
L 684 0 
L 684 794 
z
" id="DejaVuSans-2e" transform="scale(0.015625)"/>
        <path d="M 691 4666 
L 3169 4666 
L 3169 4134 
L 1269 4134 
L 1269 2991 
Q 1406 3038 1543 3061 
Q 1681 3084 1819 3084 
Q 2600 3084 3056 2656 
Q 3513 2228 3513 1497 
Q 3513 744 3044 326 
Q 2575 -91 1722 -91 
Q 1428 -91 1123 -41 
Q 819 9 494 109 
L 494 744 
Q 775 591 1075 516 
Q 1375 441 1709 441 
Q 2250 441 2565 725 
Q 2881 1009 2881 1497 
Q 2881 1984 2565 2268 
Q 2250 2553 1709 2553 
Q 1456 2553 1204 2497 
Q 953 2441 691 2322 
L 691 4666 
z
" id="DejaVuSans-35" transform="scale(0.015625)"/>
       </defs>
       <use xlink:href="#DejaVuSans-30"/>
       <use x="63.623047" xlink:href="#DejaVuSans-2e"/>
       <use x="95.410156" xlink:href="#DejaVuSans-32"/>
       <use x="159.033203" xlink:href="#DejaVuSans-35"/>
      </g>
     </g>
    </g>
    <g id="ytick_2">
     <g id="text_9">
      <!-- 0.50 -->
      <g style="fill:#262626;" transform="translate(34.4275 516.488632)scale(0.22 -0.22)">
       <use xlink:href="#DejaVuSans-30"/>
       <use x="63.623047" xlink:href="#DejaVuSans-2e"/>
       <use x="95.410156" xlink:href="#DejaVuSans-35"/>
       <use x="159.033203" xlink:href="#DejaVuSans-30"/>
      </g>
     </g>
    </g>
    <g id="ytick_3">
     <g id="text_10">
      <!-- 0.75 -->
      <g style="fill:#262626;" transform="translate(34.4275 459.581458)scale(0.22 -0.22)">
       <defs>
        <path d="M 525 4666 
L 3525 4666 
L 3525 4397 
L 1831 0 
L 1172 0 
L 2766 4134 
L 525 4134 
L 525 4666 
z
" id="DejaVuSans-37" transform="scale(0.015625)"/>
       </defs>
       <use xlink:href="#DejaVuSans-30"/>
       <use x="63.623047" xlink:href="#DejaVuSans-2e"/>
       <use x="95.410156" xlink:href="#DejaVuSans-37"/>
       <use x="159.033203" xlink:href="#DejaVuSans-35"/>
      </g>
     </g>
    </g>
    <g id="ytick_4">
     <g id="text_11">
      <!-- 1.00 -->
      <g style="fill:#262626;" transform="translate(34.4275 402.674283)scale(0.22 -0.22)">
       <use xlink:href="#DejaVuSans-31"/>
       <use x="63.623047" xlink:href="#DejaVuSans-2e"/>
       <use x="95.410156" xlink:href="#DejaVuSans-30"/>
       <use x="159.033203" xlink:href="#DejaVuSans-30"/>
      </g>
     </g>
    </g>
    <g id="ytick_5">
     <g id="text_12">
      <!-- 1.25 -->
      <g style="fill:#262626;" transform="translate(34.4275 345.767109)scale(0.22 -0.22)">
       <use xlink:href="#DejaVuSans-31"/>
       <use x="63.623047" xlink:href="#DejaVuSans-2e"/>
       <use x="95.410156" xlink:href="#DejaVuSans-32"/>
       <use x="159.033203" xlink:href="#DejaVuSans-35"/>
      </g>
     </g>
    </g>
    <g id="ytick_6">
     <g id="text_13">
      <!-- 1.50 -->
      <g style="fill:#262626;" transform="translate(34.4275 288.859935)scale(0.22 -0.22)">
       <use xlink:href="#DejaVuSans-31"/>
       <use x="63.623047" xlink:href="#DejaVuSans-2e"/>
       <use x="95.410156" xlink:href="#DejaVuSans-35"/>
       <use x="159.033203" xlink:href="#DejaVuSans-30"/>
      </g>
     </g>
    </g>
    <g id="ytick_7">
     <g id="text_14">
      <!-- 1.75 -->
      <g style="fill:#262626;" transform="translate(34.4275 231.95276)scale(0.22 -0.22)">
       <use xlink:href="#DejaVuSans-31"/>
       <use x="63.623047" xlink:href="#DejaVuSans-2e"/>
       <use x="95.410156" xlink:href="#DejaVuSans-37"/>
       <use x="159.033203" xlink:href="#DejaVuSans-35"/>
      </g>
     </g>
    </g>
    <g id="ytick_8">
     <g id="text_15">
      <!-- 2.00 -->
      <g style="fill:#262626;" transform="translate(34.4275 175.045586)scale(0.22 -0.22)">
       <use xlink:href="#DejaVuSans-32"/>
       <use x="63.623047" xlink:href="#DejaVuSans-2e"/>
       <use x="95.410156" xlink:href="#DejaVuSans-30"/>
       <use x="159.033203" xlink:href="#DejaVuSans-30"/>
      </g>
     </g>
    </g>
    <g id="ytick_9">
     <g id="text_16">
      <!-- 2.25 -->
      <g style="fill:#262626;" transform="translate(34.4275 118.138411)scale(0.22 -0.22)">
       <use xlink:href="#DejaVuSans-32"/>
       <use x="63.623047" xlink:href="#DejaVuSans-2e"/>
       <use x="95.410156" xlink:href="#DejaVuSans-32"/>
       <use x="159.033203" xlink:href="#DejaVuSans-35"/>
      </g>
     </g>
    </g>
    <g id="text_17">
     <!-- $E$ -->
     <g style="fill:#262626;" transform="translate(25.43625 364.352286)rotate(-90)scale(0.24 -0.24)">
      <defs>
       <path d="M 1081 4666 
L 4031 4666 
L 3928 4134 
L 1606 4134 
L 1338 2753 
L 3566 2753 
L 3463 2222 
L 1234 2222 
L 909 531 
L 3284 531 
L 3181 0 
L 172 0 
L 1081 4666 
z
" id="DejaVuSans-Oblique-45" transform="scale(0.015625)"/>
      </defs>
      <use transform="translate(0 0.09375)" xlink:href="#DejaVuSans-Oblique-45"/>
     </g>
    </g>
   </g>
   <g id="line2d_1">
    <path clip-path="url(#p3f005101ca)" d="M 120.856213 460.586069 
L 121.075766 523.082053 
L 121.514872 482.05314 
L 121.953978 371.234246 
L 122.393085 481.862663 
L 122.612638 507.298708 
L 122.832191 548.176933 
L 123.051744 403.757233 
L 123.271297 525.491001 
L 123.490851 489.322916 
L 123.710404 379.905871 
L 123.929957 345.696234 
L 124.369063 479.543268 
L 124.588616 475.139677 
L 124.808169 423.93734 
L 125.027723 499.374055 
L 125.247276 440.156048 
L 125.686382 445.649193 
L 125.905935 427.00927 
L 126.125488 517.977777 
L 126.345041 382.742283 
L 126.564595 394.506143 
L 126.784148 423.161548 
L 127.003701 522.732998 
L 127.223254 471.38811 
L 127.442807 524.785709 
L 127.66236 454.517718 
L 127.881914 504.958187 
L 128.101467 337.049993 
L 128.32102 507.309756 
L 128.540573 463.901798 
L 128.760126 459.85741 
L 128.979679 287.767123 
L 129.199232 442.952348 
L 129.418786 367.277451 
L 129.857892 518.573386 
L 130.077445 509.809999 
L 130.296998 282.591154 
L 130.516551 442.884615 
L 130.736105 476.327255 
L 130.955658 420.806323 
L 131.175211 534.782697 
L 131.394764 458.475492 
L 131.614317 284.438364 
L 131.83387 386.459105 
L 132.053423 374.090475 
L 132.272977 440.166958 
L 132.49253 469.582639 
L 132.712083 458.11355 
L 132.931636 457.020018 
L 133.151189 477.751554 
L 133.590296 408.11629 
L 133.809849 518.247517 
L 134.029402 431.576195 
L 134.248955 527.142356 
L 134.468508 479.803112 
L 134.688061 542.244547 
L 134.907614 550.589245 
L 135.127168 422.796961 
L 135.346721 455.038426 
L 135.566274 451.417824 
L 135.785827 433.426121 
L 136.00538 559.614497 
L 136.224933 446.989294 
L 136.444487 474.151054 
L 136.66404 321.585772 
L 136.883593 553.405122 
L 137.103146 441.309904 
L 137.322699 491.592329 
L 137.542252 460.815129 
L 137.761805 514.993178 
L 137.981359 490.944176 
L 138.200912 427.748831 
L 138.420465 429.138977 
L 138.640018 435.183301 
L 138.859571 431.871486 
L 139.079124 486.198169 
L 139.298678 275.675756 
L 139.518231 507.635833 
L 139.737784 381.518099 
L 139.957337 355.838906 
L 140.17689 483.723408 
L 140.396443 510.715998 
L 140.615996 486.531151 
L 140.83555 377.752948 
L 141.055103 517.793077 
L 141.274656 578.9781 
L 141.494209 541.375627 
L 141.713762 529.224948 
L 141.933315 477.653846 
L 142.152869 470.183557 
L 142.372422 409.998583 
L 142.591975 558.846254 
L 142.811528 440.215391 
L 143.031081 430.623725 
L 143.250634 473.890014 
L 143.689741 353.01022 
L 143.909294 493.273566 
L 144.128847 466.691771 
L 144.3484 383.896056 
L 144.787506 447.151282 
L 145.00706 390.21968 
L 145.226613 560.148236 
L 145.446166 412.212435 
L 145.665719 518.067058 
L 145.885272 478.526205 
L 146.104825 470.692866 
L 146.324378 485.067294 
L 146.543932 333.618362 
L 146.763485 551.851654 
L 146.983038 497.806064 
L 147.202591 374.781612 
L 147.422144 401.755788 
L 147.641697 358.274656 
L 148.080804 528.856461 
L 148.300357 516.648897 
L 148.51991 467.103022 
L 148.739463 503.066903 
L 148.959016 416.419403 
L 149.178569 446.387886 
L 149.398123 349.381569 
L 149.617676 513.493119 
L 149.837229 441.761644 
L 150.056782 485.562869 
L 150.276335 503.353514 
L 150.495888 253.380731 
L 150.715441 454.035941 
L 150.934995 314.39809 
L 151.154548 475.945088 
L 151.374101 449.563972 
L 151.593654 355.367541 
L 151.813207 564.359614 
L 152.03276 468.060722 
L 152.252314 493.63919 
L 152.471867 533.054899 
L 152.69142 428.529054 
L 152.910973 458.521335 
L 153.130526 440.660302 
L 153.350079 483.131838 
L 153.569632 393.490328 
L 153.789186 525.286784 
L 154.008739 522.95371 
L 154.228292 370.253475 
L 154.447845 558.433403 
L 154.667398 481.987613 
L 155.106505 499.786447 
L 155.326058 521.47708 
L 155.545611 467.801561 
L 155.765164 520.611584 
L 155.984717 529.284933 
L 156.20427 319.157025 
L 156.423823 497.796221 
L 156.643377 496.174922 
L 156.86293 472.135606 
L 157.302036 543.636152 
L 157.521589 435.783176 
L 157.741142 508.477604 
L 157.960696 540.833084 
L 158.180249 393.442002 
L 158.399802 496.169028 
L 158.619355 492.167756 
L 158.838908 544.090088 
L 159.497568 416.334248 
L 159.717121 443.030234 
L 159.936674 539.57783 
L 160.156227 470.138421 
L 160.37578 525.858291 
L 160.595333 501.853013 
L 160.814887 541.3422 
L 161.03444 427.86926 
L 161.253993 501.741715 
L 161.473546 486.698677 
L 161.693099 528.471767 
L 162.132205 440.521734 
L 162.351759 477.805719 
L 162.571312 336.532723 
L 163.010418 569.677948 
L 163.229971 415.708579 
L 163.449524 372.881734 
L 163.669078 521.972991 
L 163.888631 448.075245 
L 164.108184 508.851023 
L 164.327737 430.34543 
L 164.54729 558.849591 
L 164.986396 473.60301 
L 165.20595 361.781625 
L 165.425503 511.802685 
L 165.645056 515.081056 
L 165.864609 490.326772 
L 166.084162 516.284816 
L 166.303715 505.867915 
L 166.742822 415.255971 
L 166.962375 420.654323 
L 167.181928 553.826418 
L 167.401481 424.33175 
L 167.621034 430.525076 
L 167.840587 481.354321 
L 168.060141 422.976302 
L 168.279694 535.952326 
L 168.499247 450.020255 
L 168.7188 254.309361 
L 168.938353 415.360888 
L 169.157906 494.136215 
L 169.37746 497.990948 
L 169.597013 328.261609 
L 169.816566 528.565993 
L 170.036119 483.040502 
L 170.255672 354.539717 
L 170.475225 422.19154 
L 170.694778 449.291668 
L 170.914332 543.294401 
L 171.133885 326.267881 
L 171.353438 354.342469 
L 171.572991 509.884708 
L 171.792544 534.859373 
L 172.012097 426.248813 
L 172.231651 439.790143 
L 172.451204 513.433289 
L 172.89031 368.34689 
L 173.109863 509.419482 
L 173.548969 362.345763 
L 173.988076 522.325733 
L 174.207629 453.747535 
L 174.427182 457.610897 
L 174.646735 459.478943 
L 174.866288 465.85631 
L 175.085842 426.998526 
L 175.305395 447.05092 
L 175.524948 551.746717 
L 175.744501 439.995156 
L 175.964054 482.911055 
L 176.183607 486.476383 
L 176.40316 437.80218 
L 176.622714 476.27605 
L 176.842267 464.217392 
L 177.06182 517.310153 
L 177.281373 323.508613 
L 177.500926 500.192825 
L 177.720479 429.23123 
L 178.159586 493.245793 
L 178.379139 480.801858 
L 178.598692 492.099059 
L 178.818245 425.568327 
L 179.037798 478.53381 
L 179.257351 369.29554 
L 179.696458 530.152752 
L 179.916011 441.873346 
L 180.135564 526.191031 
L 180.355117 429.242062 
L 180.57467 446.814232 
L 180.794223 374.935412 
L 181.013777 534.598522 
L 181.23333 443.436826 
L 181.452883 482.048361 
L 181.672436 434.850499 
L 181.891989 446.187536 
L 182.331096 573.868949 
L 182.550649 518.633713 
L 182.770202 384.004302 
L 182.989755 489.748392 
L 183.209308 528.183889 
L 183.428861 495.438593 
L 183.648414 499.323897 
L 183.867968 451.450987 
L 184.087521 458.132055 
L 184.307074 401.58907 
L 184.526627 391.293256 
L 184.74618 390.724556 
L 184.965733 511.465838 
L 185.185287 371.420509 
L 185.40484 499.970851 
L 185.624393 539.120813 
L 185.843946 528.904069 
L 186.063499 495.744427 
L 186.283052 526.529365 
L 186.502605 522.529595 
L 186.722159 526.232978 
L 186.941712 521.134621 
L 187.161265 377.5005 
L 187.600371 524.670342 
L 187.819924 459.018452 
L 188.039478 553.661314 
L 188.259031 530.172669 
L 188.478584 490.134381 
L 188.698137 528.507481 
L 188.91769 523.842266 
L 189.137243 503.844655 
L 189.356796 456.294691 
L 189.57635 524.407912 
L 189.795903 510.271084 
L 190.015456 515.390281 
L 190.235009 469.233997 
L 190.454562 390.964725 
L 190.674115 352.860336 
L 190.893669 515.608805 
L 191.113222 423.362403 
L 191.332775 393.193511 
L 191.771881 464.782675 
L 192.210987 416.8679 
L 192.430541 473.201273 
L 192.650094 479.525261 
L 192.869647 393.67589 
L 193.0892 426.094577 
L 193.308753 534.121882 
L 193.528306 356.97757 
L 193.74786 537.858702 
L 194.186966 458.621707 
L 194.626072 438.719056 
L 194.845625 489.784691 
L 195.065178 506.341145 
L 195.284732 491.109112 
L 195.504285 502.852577 
L 195.723838 452.501972 
L 195.943391 488.46863 
L 196.162944 378.170053 
L 196.382497 487.968414 
L 196.602051 435.496475 
L 196.821604 452.991377 
L 197.041157 397.565565 
L 197.26071 426.709959 
L 197.699816 536.128204 
L 197.919369 518.446991 
L 198.138923 421.116245 
L 198.358476 441.764283 
L 198.578029 441.759099 
L 198.797582 131.956182 
L 199.017135 484.788824 
L 199.236688 402.001703 
L 199.456242 434.6638 
L 199.675795 385.578843 
L 199.895348 496.982877 
L 200.114901 525.167421 
L 200.334454 505.167454 
L 200.554007 440.15663 
L 200.77356 427.150566 
L 200.993114 489.038613 
L 201.212667 418.60522 
L 201.43222 513.727989 
L 201.651773 399.234196 
L 201.871326 523.751534 
L 202.090879 519.704031 
L 202.310432 389.894403 
L 202.529986 481.981926 
L 202.749539 483.697299 
L 202.969092 555.045302 
L 203.408198 441.105346 
L 203.627751 504.216732 
L 203.847305 451.184682 
L 204.066858 339.296414 
L 204.505964 534.45476 
L 204.94507 384.354495 
L 205.164623 533.422544 
L 205.384177 476.319037 
L 205.60373 385.65878 
L 205.823283 537.215825 
L 206.042836 481.703705 
L 206.262389 487.478399 
L 206.481942 545.228963 
L 206.701496 552.999188 
L 206.921049 431.242688 
L 207.140602 406.789385 
L 207.360155 317.708354 
L 208.018814 504.486691 
L 208.238368 479.275915 
L 208.457921 508.43077 
L 208.677474 445.806565 
L 208.897027 519.421208 
L 209.11658 498.188865 
L 209.336133 494.879845 
L 209.555687 459.8632 
L 209.77524 369.012084 
L 209.994793 467.239755 
L 210.433899 331.429503 
L 210.653452 362.560893 
L 210.873005 522.956992 
L 211.092559 530.336508 
L 211.312112 516.062559 
L 211.531665 536.512856 
L 211.751218 486.092035 
L 212.190324 537.675021 
L 212.409878 453.150149 
L 212.629431 479.741043 
L 212.848984 353.231435 
L 213.068537 564.486153 
L 213.507643 404.177024 
L 213.727196 477.878858 
L 213.94675 458.917356 
L 214.166303 493.753751 
L 214.385856 466.569689 
L 214.605409 464.243466 
L 214.824962 510.022468 
L 215.044515 504.924112 
L 215.264069 519.833961 
L 215.483622 546.951442 
L 215.703175 287.23205 
L 215.922728 447.3825 
L 216.361834 503.22077 
L 216.581387 499.965896 
L 216.800941 491.700513 
L 217.020494 496.676407 
L 217.240047 436.47064 
L 217.4596 339.996089 
L 217.679153 517.591642 
L 217.898706 465.115607 
L 218.11826 529.503109 
L 218.337813 452.951443 
L 218.557366 510.291997 
L 218.776919 537.713952 
L 218.996472 385.049044 
L 219.216025 491.012332 
L 219.435578 412.542557 
L 219.655132 417.558602 
L 219.874685 530.051136 
L 220.094238 461.423769 
L 220.313791 509.145576 
L 220.533344 463.468284 
L 220.752897 529.236064 
L 220.972451 474.317961 
L 221.192004 383.783797 
L 221.411557 451.984501 
L 221.63111 382.143436 
L 222.070216 553.454416 
L 222.289769 506.860273 
L 222.509323 390.582728 
L 222.728876 480.763006 
L 222.948429 457.674314 
L 223.167982 380.565837 
L 223.387535 543.269333 
L 223.607088 542.637584 
L 223.826642 332.464865 
L 224.046195 500.78539 
L 224.265748 466.442252 
L 224.485301 510.111724 
L 224.704854 405.430471 
L 224.924407 397.661516 
L 225.14396 482.859783 
L 225.583067 376.375359 
L 225.80262 433.336779 
L 226.022173 529.32415 
L 226.241726 495.173405 
L 226.461279 419.374743 
L 226.680833 450.6577 
L 226.900386 464.057504 
L 227.119939 407.669343 
L 227.778598 478.306866 
L 227.998151 446.011081 
L 228.217705 394.733547 
L 228.437258 385.211179 
L 228.656811 469.356832 
L 228.876364 441.282996 
L 229.095917 466.657664 
L 229.31547 409.39031 
L 229.535023 446.363189 
L 229.754577 518.479354 
L 229.97413 463.447411 
L 230.193683 357.00046 
L 230.632789 544.094845 
L 230.852342 473.315836 
L 231.071896 469.479007 
L 231.291449 450.823595 
L 231.511002 516.52467 
L 231.730555 523.113494 
L 231.950108 464.276443 
L 232.169661 321.921317 
L 232.608768 474.341374 
L 232.828321 424.694094 
L 233.047874 449.189959 
L 233.267427 441.782621 
L 233.48698 524.498388 
L 233.706533 469.549367 
L 233.926087 509.901922 
L 234.14564 473.115678 
L 234.365193 495.770904 
L 234.584746 451.146787 
L 234.804299 476.81959 
L 235.023852 477.338491 
L 235.243405 418.555984 
L 235.462959 416.327512 
L 235.682512 464.369096 
L 235.902065 452.293093 
L 236.121618 492.518716 
L 236.341171 452.681969 
L 236.560724 476.568354 
L 236.780278 282.85559 
L 236.999831 516.214868 
L 237.219384 412.07257 
L 237.438937 522.794123 
L 237.65849 487.478852 
L 237.878043 477.071192 
L 238.097596 516.233428 
L 238.31715 506.367426 
L 238.536703 427.894371 
L 238.756256 476.192777 
L 238.975809 434.216135 
L 239.195362 456.678181 
L 239.414915 525.939513 
L 239.634469 384.253059 
L 239.854022 468.482223 
L 240.073575 436.624598 
L 240.293128 519.387168 
L 240.512681 493.053095 
L 240.732234 490.78489 
L 240.951787 402.482317 
L 241.171341 481.926345 
L 241.390894 294.408853 
L 241.610447 460.025154 
L 241.83 415.393078 
L 242.269106 529.150235 
L 242.48866 477.908966 
L 242.708213 387.991897 
L 242.927766 503.951747 
L 243.147319 506.788817 
L 243.366872 491.557645 
L 243.586425 276.616408 
L 243.805978 520.478402 
L 244.025532 527.159381 
L 244.245085 382.999472 
L 244.464638 493.304521 
L 244.684191 461.072694 
L 244.903744 478.095146 
L 245.123297 394.545537 
L 245.342851 442.55696 
L 245.562404 429.233975 
L 245.781957 515.379739 
L 246.00151 373.950561 
L 246.221063 513.072722 
L 246.440616 511.172739 
L 246.660169 453.036778 
L 246.879723 462.087147 
L 247.099276 272.43077 
L 247.318829 494.063624 
L 247.538382 488.16656 
L 247.757935 385.432031 
L 247.977488 487.609543 
L 248.197042 404.84191 
L 248.416595 483.51136 
L 248.636148 511.708485 
L 248.855701 505.758813 
L 249.075254 530.995134 
L 249.294807 469.45908 
L 249.51436 454.213285 
L 249.733914 502.29369 
L 249.953467 471.521804 
L 250.17302 537.54762 
L 250.392573 413.062675 
L 250.612126 522.647413 
L 250.831679 455.091627 
L 251.051233 435.961779 
L 251.270786 524.448387 
L 251.709892 392.341812 
L 251.929445 562.00915 
L 252.148998 460.76882 
L 252.368551 440.579294 
L 252.588105 484.773131 
L 252.807658 353.553554 
L 253.027211 457.381104 
L 253.68587 495.109845 
L 253.905424 520.343458 
L 254.124977 493.427402 
L 254.34453 511.479487 
L 254.564083 379.837094 
L 254.783636 522.531348 
L 255.003189 467.153065 
L 255.222742 471.3796 
L 255.442296 544.677441 
L 255.661849 537.78876 
L 255.881402 515.903606 
L 256.100955 439.911952 
L 256.320508 509.431953 
L 256.540061 500.415095 
L 256.979168 432.384419 
L 257.198721 347.200098 
L 257.418274 496.332283 
L 257.637827 513.839796 
L 257.85738 511.666919 
L 258.076933 480.079831 
L 258.296487 535.950255 
L 258.51604 454.246867 
L 258.735593 424.401703 
L 258.955146 525.001942 
L 259.174699 529.046234 
L 259.394252 483.332914 
L 259.613805 324.060229 
L 260.052912 489.738087 
L 260.272465 457.1151 
L 260.492018 528.008361 
L 260.711571 499.332092 
L 260.931124 500.375869 
L 261.150678 519.488272 
L 261.370231 379.991344 
L 261.589784 516.707781 
L 261.809337 366.885583 
L 262.02889 500.188065 
L 262.248443 463.38801 
L 262.467996 392.363816 
L 262.68755 443.923284 
L 262.907103 430.058619 
L 263.126656 384.782123 
L 263.346209 497.664709 
L 263.565762 495.213229 
L 263.785315 414.058909 
L 264.004869 493.314093 
L 264.224422 484.885474 
L 264.443975 284.019334 
L 264.663528 561.834819 
L 264.883081 503.775151 
L 265.102634 380.5139 
L 265.322187 458.770355 
L 265.541741 414.34391 
L 265.761294 520.042469 
L 266.2004 377.414528 
L 266.85906 514.507393 
L 267.078613 451.409224 
L 267.298166 551.554726 
L 267.517719 402.676355 
L 267.737272 546.857126 
L 267.956825 431.031835 
L 268.176378 443.621772 
L 268.395932 463.366575 
L 268.615485 507.634972 
L 268.835038 468.837276 
L 269.054591 409.427271 
L 269.274144 418.407925 
L 269.493697 494.060047 
L 269.713251 499.457074 
L 269.932804 457.977742 
L 270.152357 465.927593 
L 270.37191 510.965001 
L 270.591463 357.980907 
L 270.811016 411.053236 
L 271.030569 520.445384 
L 271.250123 410.404102 
L 271.469676 448.144765 
L 271.689229 365.57623 
L 271.908782 544.838275 
L 272.128335 335.336172 
L 272.347888 458.122019 
L 272.567442 512.424667 
L 272.786995 403.683629 
L 273.006548 473.64425 
L 273.226101 424.39137 
L 273.665207 516.875157 
L 273.88476 483.796225 
L 274.104314 501.786683 
L 274.323867 505.565201 
L 274.54342 471.809654 
L 274.762973 516.667104 
L 274.982526 477.789365 
L 275.421633 292.130844 
L 275.641186 478.804583 
L 275.860739 338.431918 
L 276.080292 389.374269 
L 276.299845 520.411635 
L 276.519398 454.58504 
L 276.738951 435.91285 
L 276.958505 559.061469 
L 277.397611 461.405002 
L 277.617164 470.94302 
L 277.836717 404.691906 
L 278.05627 503.868966 
L 278.275824 359.464386 
L 278.495377 514.001642 
L 278.71493 412.004728 
L 278.934483 539.34813 
L 279.154036 534.560153 
L 279.373589 420.215066 
L 279.593142 444.49379 
L 279.812696 489.661079 
L 280.032249 439.273677 
L 280.251802 275.636725 
L 280.471355 522.730605 
L 280.690908 399.901216 
L 280.910461 408.830168 
L 281.130014 485.65457 
L 281.349568 506.606182 
L 281.569121 491.718979 
L 281.788674 486.26687 
L 282.008227 528.89469 
L 282.22778 368.789947 
L 282.447333 511.071302 
L 282.666887 531.154946 
L 282.88644 365.444602 
L 283.105993 496.82034 
L 283.325546 426.655048 
L 283.764652 514.148267 
L 283.984205 506.193389 
L 284.203759 504.590382 
L 284.423312 449.372322 
L 284.642865 465.71581 
L 284.862418 492.510314 
L 285.081971 404.13556 
L 285.301524 495.850732 
L 285.521078 484.619257 
L 285.740631 538.795414 
L 285.960184 462.071 
L 286.179737 468.468015 
L 286.39929 549.242134 
L 286.618843 420.447057 
L 286.838396 518.288669 
L 287.05795 495.545593 
L 287.497056 404.615896 
L 287.716609 505.351526 
L 287.936162 471.163973 
L 288.155715 483.31198 
L 288.375269 445.328053 
L 288.594822 494.554374 
L 288.814375 445.98688 
L 289.033928 264.084793 
L 289.253481 524.775014 
L 289.473034 495.496777 
L 289.692587 499.418677 
L 289.912141 463.816841 
L 290.131694 552.425197 
L 290.351247 482.134646 
L 290.5708 542.458511 
L 290.790353 403.120155 
L 291.009906 448.89238 
L 291.22946 470.856445 
L 291.449013 480.087614 
L 291.668566 470.875564 
L 291.888119 440.034728 
L 292.107672 485.215802 
L 292.327225 503.725779 
L 292.546778 503.231246 
L 292.766332 475.768256 
L 292.985885 569.843197 
L 293.205438 501.750532 
L 293.424991 549.991897 
L 293.644544 523.592104 
L 293.864097 354.215366 
L 294.083651 492.849698 
L 294.303204 414.434662 
L 294.522757 398.873172 
L 294.74231 502.254545 
L 294.961863 411.305267 
L 295.181416 407.298717 
L 295.400969 415.036654 
L 295.620523 528.179855 
L 295.840076 464.983551 
L 296.059629 551.82718 
L 296.279182 474.041215 
L 296.498735 490.28793 
L 296.718288 463.593453 
L 296.937842 513.94306 
L 297.157395 485.24164 
L 297.376948 518.067009 
L 297.816054 351.549318 
L 298.25516 479.4903 
L 298.474714 472.627667 
L 298.91382 415.336573 
L 299.133373 494.313177 
L 299.352926 354.964701 
L 299.572479 522.195558 
L 300.011586 437.39729 
L 300.231139 537.872843 
L 300.450692 323.467226 
L 300.889798 519.741815 
L 301.109351 477.189784 
L 301.328905 541.633179 
L 301.548458 461.9084 
L 301.768011 498.247143 
L 302.207117 455.030662 
L 302.42667 483.825509 
L 302.646224 536.917871 
L 302.865777 488.628634 
L 303.08533 544.926103 
L 303.304883 405.73392 
L 303.524436 537.594964 
L 303.743989 308.502182 
L 303.963542 467.308343 
L 304.183096 447.416725 
L 304.402649 515.601466 
L 305.061308 342.314886 
L 305.280861 455.774547 
L 305.500415 502.894912 
L 305.719968 494.607202 
L 305.939521 530.131513 
L 306.59818 405.444449 
L 306.817733 419.304251 
L 307.037287 535.327936 
L 307.25684 482.564284 
L 307.476393 538.810425 
L 307.695946 530.971753 
L 307.915499 279.195972 
L 308.135052 464.557378 
L 308.354605 488.41834 
L 308.574159 481.848666 
L 308.793712 441.938734 
L 309.232818 553.070292 
L 309.452371 475.609872 
L 309.671924 443.967495 
L 309.891478 485.492518 
L 310.330584 402.954011 
L 310.550137 485.80122 
L 310.76969 490.619208 
L 310.989243 450.077467 
L 311.208796 433.551278 
L 311.42835 565.445142 
L 311.647903 317.743762 
L 312.087009 457.614439 
L 312.306562 475.632951 
L 312.526115 512.853469 
L 312.745669 435.565911 
L 312.965222 505.788627 
L 313.184775 288.648202 
L 313.404328 494.812156 
L 313.623881 416.169344 
L 313.843434 448.132436 
L 314.062987 456.220413 
L 314.282541 445.850426 
L 314.721647 466.518717 
L 314.9412 381.460121 
L 315.160753 356.344494 
L 315.380306 450.330132 
L 315.59986 411.246107 
L 315.819413 423.042744 
L 316.038966 444.852697 
L 316.258519 422.990761 
L 316.697625 510.817103 
L 316.917178 401.396797 
L 317.136732 466.606027 
L 317.356285 479.212711 
L 317.575838 542.546841 
L 317.795391 462.692712 
L 318.014944 443.890822 
L 318.234497 509.80786 
L 318.454051 478.587008 
L 318.673604 285.684845 
L 318.893157 404.740577 
L 319.11271 405.270754 
L 319.332263 448.808563 
L 319.551816 423.356297 
L 319.771369 539.791866 
L 320.210476 319.765429 
L 320.430029 469.217715 
L 320.649582 382.702973 
L 321.088688 481.41678 
L 321.308242 467.725381 
L 321.527795 531.109089 
L 321.747348 409.395549 
L 321.966901 444.707805 
L 322.186454 453.952967 
L 322.406007 479.966887 
L 322.62556 354.015423 
L 322.845114 487.904007 
L 323.064667 460.562721 
L 323.28422 392.762123 
L 323.503773 373.963942 
L 323.942879 543.407137 
L 324.162433 435.661314 
L 324.381986 470.263329 
L 324.601539 460.487309 
L 324.821092 510.290656 
L 325.040645 476.055448 
L 325.260198 503.657585 
L 325.479751 412.184291 
L 325.699305 478.441171 
L 325.918858 405.570012 
L 326.138411 474.586481 
L 326.357964 489.32117 
L 326.577517 528.004403 
L 326.79707 494.472732 
L 327.016624 378.902141 
L 327.236177 445.505327 
L 327.45573 458.576258 
L 327.675283 547.845251 
L 327.894836 268.17004 
L 328.114389 451.085134 
L 328.333942 538.671185 
L 328.553496 470.61084 
L 328.773049 502.836825 
L 328.992602 488.80997 
L 329.212155 454.102759 
L 329.431708 532.754222 
L 329.651261 413.262166 
L 329.870815 459.80291 
L 330.090368 421.086288 
L 330.309921 511.195145 
L 330.749027 406.367955 
L 330.96858 335.122921 
L 331.188133 479.499353 
L 331.407687 413.529941 
L 331.62724 533.890335 
L 331.846793 414.818707 
L 332.066346 525.764338 
L 332.285899 487.935986 
L 332.505452 515.625679 
L 332.725006 441.982612 
L 333.164112 509.099386 
L 333.383665 458.892666 
L 333.603218 498.051588 
L 333.822771 350.504475 
L 334.042324 551.823623 
L 334.481431 409.116903 
L 334.920537 556.318868 
L 335.14009 476.748638 
L 335.359643 485.957358 
L 335.579196 434.387397 
L 335.79875 499.619104 
L 336.018303 392.793846 
L 336.237856 374.676581 
L 336.457409 479.03252 
L 336.676962 274.832056 
L 336.896515 491.298073 
L 337.116069 454.029221 
L 337.335622 466.852954 
L 337.555175 512.602034 
L 337.774728 409.656732 
L 337.994281 512.837288 
L 338.213834 514.26622 
L 338.433387 366.423636 
L 338.652941 461.210022 
L 338.872494 446.699076 
L 339.092047 473.960307 
L 339.3116 538.456314 
L 339.531153 364.089796 
L 340.189813 554.539274 
L 340.409366 358.734287 
L 340.628919 395.385413 
L 340.848472 557.977257 
L 341.068025 516.850829 
L 341.287578 502.831792 
L 341.507132 516.161497 
L 341.726685 402.196515 
L 341.946238 475.154869 
L 342.165791 455.887528 
L 342.385344 481.460206 
L 342.604897 541.666974 
L 342.824451 454.640553 
L 343.044004 510.782483 
L 343.263557 335.370756 
L 343.48311 383.202209 
L 343.702663 457.519854 
L 343.922216 424.204285 
L 344.141769 512.650281 
L 344.361323 433.839482 
L 344.580876 451.435456 
L 344.800429 421.578614 
L 345.019982 521.01604 
L 345.239535 512.121635 
L 345.459088 479.497014 
L 345.678642 484.489512 
L 345.898195 290.383614 
L 346.117748 486.857975 
L 346.337301 522.140288 
L 346.556854 440.83648 
L 346.776407 448.886548 
L 346.99596 488.679969 
L 347.435067 319.733443 
L 347.65462 474.742646 
L 347.874173 514.411224 
L 348.093726 460.330655 
L 348.313279 473.465428 
L 348.532833 524.098263 
L 348.752386 454.147873 
L 348.971939 537.659546 
L 349.191492 440.199447 
L 349.411045 500.803708 
L 349.850151 428.802713 
L 350.069705 514.810706 
L 350.289258 514.490589 
L 350.508811 486.953585 
L 350.728364 428.380097 
L 350.947917 490.451739 
L 351.16747 464.944477 
L 351.387024 482.640156 
L 351.606577 216.116729 
L 351.82613 503.55846 
L 352.045683 487.351829 
L 352.265236 533.439701 
L 352.704342 469.364895 
L 353.143449 372.196451 
L 353.363002 448.708372 
L 353.582555 407.304791 
L 353.802108 341.888265 
L 354.021661 387.591812 
L 354.241215 485.328248 
L 354.680321 480.27085 
L 354.899874 468.158554 
L 355.119427 406.88216 
L 355.33898 379.853351 
L 355.558533 503.88175 
L 355.99764 425.762676 
L 356.217193 485.924175 
L 356.436746 420.445875 
L 356.875852 521.956183 
L 357.095406 463.087076 
L 357.314959 317.459943 
L 357.534512 522.038418 
L 357.754065 435.549267 
L 357.973618 437.261129 
L 358.193171 490.732106 
L 358.412724 478.202868 
L 358.632278 507.089643 
L 358.851831 445.744329 
L 359.071384 465.611906 
L 359.290937 386.797265 
L 359.51049 508.397793 
L 359.730043 538.667223 
L 359.949596 473.019695 
L 360.16915 332.259847 
L 360.388703 357.677971 
L 360.608256 474.641349 
L 361.047362 539.356757 
L 361.486469 463.4963 
L 361.706022 537.610725 
L 361.925575 437.283661 
L 362.145128 402.461584 
L 362.364681 511.595034 
L 362.584234 438.025643 
L 362.803787 509.257231 
L 363.023341 512.649303 
L 363.242894 444.12864 
L 363.462447 561.652428 
L 363.682 415.438864 
L 363.901553 506.132594 
L 364.121106 445.856921 
L 364.34066 422.760702 
L 364.779766 458.692977 
L 364.999319 552.602381 
L 365.218872 485.346448 
L 365.657978 435.26623 
L 365.877532 311.955463 
L 366.097085 529.035053 
L 366.316638 546.30675 
L 366.536191 542.269114 
L 366.755744 455.50947 
L 366.975297 439.185919 
L 367.194851 445.984409 
L 367.414404 525.132989 
L 367.633957 418.387515 
L 367.85351 466.137255 
L 368.073063 427.710191 
L 368.292616 462.319119 
L 368.512169 540.028732 
L 368.731723 492.275275 
L 368.951276 515.517649 
L 369.170829 387.003642 
L 369.390382 490.904925 
L 369.609935 456.406335 
L 369.829488 523.346788 
L 370.049042 513.367475 
L 370.488148 414.551496 
L 370.927254 474.141117 
L 371.146807 395.745572 
L 371.585914 532.960447 
L 371.805467 454.732797 
L 372.02502 459.608147 
L 372.244573 516.655058 
L 372.464126 514.036682 
L 372.683679 455.826977 
L 372.903233 450.34639 
L 373.122786 447.692581 
L 373.342339 459.875287 
L 373.561892 453.124932 
L 374.000998 327.45766 
L 374.220551 526.56424 
L 374.440105 422.16555 
L 374.659658 155.320344 
L 374.879211 458.761353 
L 375.098764 438.936458 
L 375.318317 505.760069 
L 375.53787 475.612534 
L 375.757424 500.551371 
L 375.976977 467.184802 
L 376.19653 472.820538 
L 376.416083 452.294144 
L 376.635636 539.675374 
L 377.074742 491.101467 
L 377.294296 554.957677 
L 377.513849 379.566839 
L 377.733402 494.146252 
L 377.952955 473.632371 
L 378.172508 347.698856 
L 378.392061 399.538185 
L 378.611615 527.171191 
L 378.831168 477.537053 
L 379.050721 339.977907 
L 379.270274 548.504044 
L 379.489827 542.855355 
L 379.928933 446.575411 
L 380.148487 510.547371 
L 380.36804 448.272083 
L 380.587593 353.168883 
L 380.807146 507.514929 
L 381.246252 356.415248 
L 381.465806 533.232948 
L 381.685359 480.489244 
L 381.904912 461.510117 
L 382.124465 486.823757 
L 382.344018 538.633484 
L 382.563571 415.112879 
L 382.783124 515.370717 
L 383.002678 512.481638 
L 383.222231 498.196963 
L 383.441784 380.86452 
L 383.661337 546.733323 
L 383.88089 416.147119 
L 384.100443 463.796841 
L 384.319997 397.921336 
L 384.53955 474.325308 
L 384.759103 464.189121 
L 384.978656 321.455755 
L 385.198209 548.136149 
L 385.417762 489.104052 
L 385.637315 378.486042 
L 385.856869 415.588862 
L 386.076422 498.455384 
L 386.295975 441.704343 
L 386.515528 529.600503 
L 386.735081 508.053557 
L 386.954634 421.618133 
L 387.174187 525.79089 
L 387.393741 517.40382 
L 387.613294 436.640407 
L 387.832847 524.124858 
L 388.0524 495.339119 
L 388.271953 536.963955 
L 388.491506 530.951404 
L 388.71106 406.07013 
L 388.930613 491.670026 
L 389.150166 506.884086 
L 389.369719 447.73176 
L 389.589272 459.841016 
L 389.808825 463.840661 
L 390.028378 507.546688 
L 390.247932 463.336226 
L 390.467485 478.016015 
L 390.687038 351.026827 
L 391.126144 493.265343 
L 391.565251 440.32366 
L 391.784804 553.456717 
L 392.004357 463.656137 
L 392.22391 260.589721 
L 392.443463 525.160746 
L 392.663016 489.296112 
L 392.882569 511.341088 
L 393.102123 495.243421 
L 393.321676 399.903517 
L 393.541229 435.155205 
L 393.760782 542.447066 
L 393.980335 386.225302 
L 394.199888 474.925793 
L 394.419442 449.303935 
L 394.638995 483.722295 
L 394.858548 444.951014 
L 395.078101 467.044232 
L 395.297654 530.152055 
L 395.517207 517.286451 
L 395.73676 435.265925 
L 396.175867 540.523334 
L 396.39542 497.035689 
L 396.614973 539.546632 
L 396.834526 531.544394 
L 397.054079 501.069804 
L 397.273633 506.003798 
L 397.493186 529.649949 
L 397.712739 510.488262 
L 397.932292 361.131461 
L 398.151845 477.330502 
L 398.371398 448.870704 
L 398.590951 402.015633 
L 399.030058 468.135207 
L 399.249611 460.938336 
L 399.469164 495.869341 
L 399.688717 460.469143 
L 399.90827 394.807841 
L 400.127824 581.38839 
L 400.347377 397.767029 
L 400.56693 424.233028 
L 400.786483 503.115631 
L 401.006036 432.891921 
L 401.225589 473.536889 
L 401.445142 484.191324 
L 401.664696 549.562781 
L 401.884249 525.896048 
L 402.103802 516.794077 
L 402.323355 496.130978 
L 402.542908 418.759124 
L 402.762461 454.687744 
L 402.982015 457.460774 
L 403.201568 419.010266 
L 403.421121 435.997126 
L 403.640674 563.17847 
L 403.860227 457.614618 
L 404.07978 481.641049 
L 404.299333 460.676248 
L 404.518887 474.014931 
L 404.73844 497.570757 
L 405.177546 469.33653 
L 405.397099 448.684674 
L 405.616652 413.824276 
L 405.836206 501.115533 
L 406.055759 458.076355 
L 406.275312 525.002174 
L 406.494865 515.933737 
L 406.714418 413.094395 
L 406.933971 442.962048 
L 407.153524 445.344322 
L 407.592631 554.570571 
L 407.812184 502.133574 
L 408.031737 539.485666 
L 408.470843 491.877125 
L 408.690397 519.643606 
L 408.90995 455.699244 
L 409.129503 519.328415 
L 409.349056 419.582103 
L 409.568609 553.387911 
L 409.788162 463.942313 
L 410.007715 459.487388 
L 410.227269 550.33422 
L 410.666375 411.808138 
L 410.885928 469.765955 
L 411.325034 492.859621 
L 411.544587 468.800916 
L 411.764141 503.822465 
L 411.983694 498.301522 
L 412.203247 355.052459 
L 412.4228 342.852054 
L 412.861906 494.310888 
L 413.08146 503.343196 
L 413.301013 486.287349 
L 413.520566 485.164365 
L 413.740119 444.628329 
L 413.959672 435.762107 
L 414.179225 405.449364 
L 414.398778 527.476031 
L 414.618332 420.281805 
L 414.837885 550.124565 
L 415.057438 469.32838 
L 415.276991 491.870689 
L 415.496544 492.568498 
L 415.716097 473.260002 
L 415.935651 484.349343 
L 416.374757 348.74935 
L 416.59431 412.558353 
L 416.813863 365.61162 
L 417.033416 350.682977 
L 417.252969 494.756328 
L 417.472523 383.982966 
L 417.692076 405.995026 
L 417.911629 522.596018 
L 418.350735 424.130755 
L 418.570288 423.392888 
L 418.789842 523.916985 
L 419.009395 478.22121 
L 419.228948 487.539901 
L 419.448501 258.623697 
L 419.668054 499.944618 
L 419.887607 306.273099 
L 420.10716 369.654064 
L 420.326714 498.268272 
L 420.546267 444.86597 
L 420.76582 490.940581 
L 420.985373 465.489463 
L 421.204926 275.080684 
L 421.424479 519.697227 
L 421.644033 458.491281 
L 421.863586 449.065317 
L 422.302692 518.905815 
L 422.522245 493.262499 
L 422.741798 366.503218 
L 422.961351 503.597623 
L 423.180905 459.73132 
L 423.400458 387.210807 
L 423.620011 419.159466 
L 424.059117 535.371668 
L 424.27867 448.279551 
L 424.498224 293.386291 
L 424.717777 509.701769 
L 424.93733 482.018807 
L 425.156883 483.166574 
L 425.376436 311.368299 
L 425.595989 493.39327 
L 425.815542 518.915234 
L 426.035096 417.557993 
L 426.254649 520.096664 
L 426.474202 527.266967 
L 426.693755 478.194542 
L 426.913308 532.130348 
L 427.352415 419.773482 
L 427.571968 428.440529 
L 428.011074 470.126226 
L 428.230627 524.415262 
L 428.669733 324.413678 
L 428.889287 481.54444 
L 429.10884 490.819419 
L 429.328393 471.546079 
L 429.547946 523.45902 
L 429.767499 506.881507 
L 429.987052 529.75949 
L 430.206606 416.022825 
L 430.426159 443.727672 
L 430.645712 505.426468 
L 431.084818 392.616006 
L 431.304371 470.767906 
L 431.523924 504.891718 
L 431.743478 498.235775 
L 431.963031 519.719698 
L 432.182584 450.454168 
L 432.402137 442.303493 
L 432.62169 561.258328 
L 433.060797 259.625833 
L 433.28035 465.696203 
L 433.499903 445.630835 
L 433.719456 400.407856 
L 433.939009 483.919031 
L 434.158562 452.357096 
L 434.378115 514.535244 
L 434.597669 472.167346 
L 434.817222 461.258642 
L 435.036775 409.529237 
L 435.475881 524.096969 
L 435.695434 445.021225 
L 435.914988 470.016019 
L 436.134541 355.533337 
L 436.354094 485.168553 
L 436.573647 499.664418 
L 436.7932 533.774277 
L 437.232306 449.640877 
L 437.45186 550.679042 
L 437.671413 545.164732 
L 437.890966 365.218946 
L 438.110519 486.493592 
L 438.330072 510.718518 
L 438.549625 482.110907 
L 438.988732 523.028525 
L 439.208285 425.314824 
L 439.427838 518.286354 
L 439.647391 379.776369 
L 439.866944 528.135361 
L 440.086497 480.131851 
L 440.306051 483.982917 
L 440.525604 426.880429 
L 440.745157 529.257699 
L 440.96471 431.657902 
L 441.184263 525.407054 
L 441.403816 432.297398 
L 441.623369 523.08133 
L 442.062476 500.1733 
L 442.282029 535.135156 
L 442.501582 436.591276 
L 442.721135 476.298561 
L 442.940688 472.70111 
L 443.160242 361.360763 
L 443.818901 516.188853 
L 444.038454 396.653624 
L 444.258007 484.278488 
L 444.47756 441.883016 
L 444.697114 484.41752 
L 444.916667 409.211497 
L 445.13622 549.294717 
L 445.355773 440.821386 
L 445.575326 555.417943 
L 445.794879 447.217668 
L 446.014433 502.444995 
L 446.233986 358.231745 
L 446.673092 548.585751 
L 446.892645 460.373606 
L 447.112198 514.307858 
L 447.331751 484.791058 
L 447.551305 500.00367 
L 447.770858 422.511955 
L 447.990411 517.128452 
L 448.209964 450.753633 
L 448.429517 270.433297 
L 448.868624 540.730107 
L 449.30773 503.220315 
L 449.527283 574.058303 
L 449.966389 378.33471 
L 450.185942 485.468491 
L 450.405496 377.13414 
L 450.625049 549.864586 
L 450.844602 410.944484 
L 451.064155 522.844034 
L 451.283708 426.31037 
L 451.503261 439.593518 
L 451.722815 463.81962 
L 451.942368 530.538822 
L 452.161921 387.07271 
L 452.381474 529.837041 
L 452.601027 461.412589 
L 452.82058 457.007348 
L 453.040133 521.861239 
L 453.259687 480.791905 
L 453.47924 494.038929 
L 453.698793 516.562402 
L 453.918346 349.874509 
L 454.137899 554.156831 
L 454.357452 413.768695 
L 454.577006 369.724921 
L 454.796559 474.510375 
L 455.016112 489.980165 
L 455.235665 476.930722 
L 455.455218 354.585638 
L 455.674771 487.378218 
L 455.894324 513.95025 
L 456.113878 440.834198 
L 456.333431 435.001245 
L 456.552984 541.854711 
L 456.772537 493.205743 
L 456.99209 474.09152 
L 457.211643 396.151218 
L 457.431197 526.835305 
L 457.65075 311.046777 
L 457.870303 531.374527 
L 458.089856 529.907594 
L 458.309409 368.334097 
L 458.528962 498.774721 
L 458.748515 466.817214 
L 458.968069 495.474157 
L 459.187622 357.822208 
L 459.407175 418.502459 
L 459.626728 516.490784 
L 459.846281 475.390305 
L 460.065834 456.10926 
L 460.285388 391.910696 
L 460.504941 459.105394 
L 460.724494 449.617707 
L 460.944047 467.581881 
L 461.1636 498.197834 
L 461.383153 230.411818 
L 461.602706 466.071684 
L 461.82226 519.454667 
L 462.041813 517.297643 
L 462.261366 483.461826 
L 462.480919 488.945027 
L 462.700472 460.90345 
L 462.920025 514.255618 
L 463.359132 398.883024 
L 463.578685 455.078502 
L 463.798238 419.387752 
L 464.017791 410.129482 
L 464.237344 387.339327 
L 464.456897 534.026206 
L 464.676451 493.429785 
L 464.896004 490.418593 
L 465.115557 545.266767 
L 465.33511 384.003166 
L 465.554663 509.524433 
L 465.774216 400.4914 
L 465.993769 545.273784 
L 466.213323 500.83672 
L 466.432876 535.504023 
L 466.652429 503.654587 
L 466.871982 363.972948 
L 467.311088 466.871711 
L 467.530642 470.086368 
L 467.750195 413.578288 
L 467.969748 412.890964 
L 468.189301 387.729019 
L 468.408854 509.220172 
L 468.628407 518.109684 
L 468.84796 538.573637 
L 469.067514 540.166914 
L 469.287067 358.348081 
L 469.50662 422.418904 
L 469.726173 530.721277 
L 469.945726 375.853238 
L 470.165279 339.883276 
L 470.384833 467.193505 
L 470.604386 454.727686 
L 470.823939 518.626478 
L 471.043492 383.34453 
L 471.263045 532.00654 
L 471.702151 482.182776 
L 471.921705 481.457369 
L 472.141258 468.617116 
L 472.360811 490.049531 
L 472.580364 401.493582 
L 472.799917 505.700448 
L 473.01947 466.018314 
L 473.239024 477.397559 
L 473.458577 404.455675 
L 473.67813 508.935816 
L 473.897683 303.54277 
L 474.117236 419.505475 
L 474.336789 467.825389 
L 474.556342 439.635657 
L 474.775896 448.920033 
L 475.215002 499.382835 
L 475.434555 423.763412 
L 475.654108 462.448907 
L 475.873661 475.740971 
L 476.093215 463.847503 
L 476.532321 575.178812 
L 476.751874 410.727315 
L 476.971427 473.4263 
L 477.19098 495.347364 
L 477.410533 397.503392 
L 477.630087 476.874175 
L 478.069193 355.389238 
L 478.288746 501.516543 
L 478.508299 407.350862 
L 478.727852 543.920221 
L 478.947406 468.995036 
L 479.386512 533.423856 
L 479.606065 325.592864 
L 479.825618 449.608738 
L 480.045171 470.473875 
L 480.264724 401.977553 
L 480.484278 383.415392 
L 480.703831 354.743139 
L 480.923384 507.709483 
L 481.142937 365.570618 
L 481.36249 507.338281 
L 481.582043 527.796602 
L 481.801597 488.26249 
L 482.02115 493.882766 
L 482.240703 473.508835 
L 482.460256 504.645449 
L 482.679809 421.544523 
L 482.899362 486.307534 
L 483.118915 287.930835 
L 483.338469 454.10597 
L 483.558022 452.610626 
L 484.216681 512.141208 
L 484.436234 491.458777 
L 484.655788 523.972007 
L 484.875341 443.281908 
L 485.094894 472.684583 
L 485.314447 319.695877 
L 485.534 470.901023 
L 485.753553 476.765268 
L 485.973106 491.233319 
L 486.19266 483.267444 
L 486.412213 442.234532 
L 486.631766 477.389171 
L 486.851319 458.988763 
L 487.070872 484.895166 
L 487.290425 471.686243 
L 487.509979 360.430387 
L 487.729532 525.331387 
L 488.388191 376.423434 
L 488.607744 453.164243 
L 488.827297 447.589403 
L 489.046851 454.214826 
L 489.266404 408.977881 
L 489.485957 528.299083 
L 489.925063 402.775735 
L 490.144616 492.196502 
L 490.364169 435.420013 
L 490.583723 470.305764 
L 490.803276 486.28647 
L 491.242382 398.014463 
L 491.681488 456.802499 
L 491.901042 390.084608 
L 492.120595 541.140917 
L 492.340148 468.402605 
L 492.559701 491.944579 
L 492.779254 326.536092 
L 492.998807 477.739809 
L 493.21836 539.791449 
L 493.437914 505.657321 
L 493.657467 543.714619 
L 494.096573 509.530253 
L 494.755233 318.803425 
L 495.194339 522.167006 
L 495.852998 465.599711 
L 496.072551 482.865875 
L 496.292105 456.706894 
L 496.511658 522.412111 
L 496.731211 458.417973 
L 496.950764 484.201023 
L 497.38987 422.235542 
L 497.828977 510.621598 
L 498.268083 467.912438 
L 498.487636 503.297902 
L 498.707189 392.291332 
L 498.926742 493.79951 
L 499.146296 314.861963 
L 499.365849 446.239992 
L 499.585402 450.442887 
L 499.804955 486.798531 
L 500.024508 477.28058 
L 500.244061 450.902959 
L 500.463615 468.538806 
L 500.683168 438.610597 
L 500.902721 444.854885 
L 501.122274 482.071781 
L 501.341827 454.997352 
L 501.780933 343.660661 
L 502.22004 513.806725 
L 502.878699 441.002883 
L 503.098252 441.009894 
L 503.317806 456.635281 
L 503.537359 438.4588 
L 503.756912 379.696858 
L 503.976465 541.813726 
L 504.415571 503.01389 
L 504.635124 487.280177 
L 504.854678 452.097866 
L 505.074231 522.15209 
L 505.293784 488.890354 
L 505.513337 526.899133 
L 505.73289 383.389584 
L 505.952443 545.464239 
L 506.171997 515.562679 
L 506.39155 410.5754 
L 506.611103 488.382211 
L 507.050209 418.305451 
L 507.269762 350.568338 
L 507.489315 493.00701 
L 507.708869 517.877815 
L 507.928422 501.887074 
L 508.147975 494.815556 
L 508.367528 543.344721 
L 508.587081 447.9953 
L 508.806634 539.985377 
L 509.026188 528.87425 
L 509.245741 412.630672 
L 509.465294 363.90761 
L 509.9044 484.797706 
L 510.123953 468.530194 
L 510.343506 520.499722 
L 511.221719 376.899986 
L 511.441272 526.437193 
L 511.660825 327.306661 
L 511.880379 520.955161 
L 512.099932 363.524605 
L 512.319485 434.142015 
L 512.758591 480.63668 
L 512.978144 415.050235 
L 513.197697 414.71382 
L 513.636804 427.998292 
L 513.856357 431.054383 
L 514.07591 316.670549 
L 514.295463 399.698608 
L 514.515016 353.319184 
L 514.73457 233.875228 
L 514.954123 551.051512 
L 515.173676 501.750488 
L 515.393229 340.308167 
L 515.612782 393.70747 
L 515.832335 506.366813 
L 516.051888 419.759748 
L 516.271442 492.782331 
L 516.490995 515.736533 
L 516.710548 494.945384 
L 516.930101 539.344917 
L 517.149654 462.913332 
L 517.369207 461.283549 
L 517.58876 430.495946 
L 517.808314 478.667194 
L 518.027867 494.887374 
L 518.466973 420.096912 
L 518.906079 499.217024 
L 519.125633 479.978641 
L 519.345186 345.457035 
L 519.564739 366.420725 
L 519.784292 426.571882 
L 520.003845 529.233749 
L 520.223398 514.080044 
L 520.442951 429.423663 
L 520.662505 480.28485 
L 520.882058 333.785871 
L 521.321164 532.853211 
L 521.540717 402.443491 
L 521.76027 406.483468 
L 522.199377 497.575059 
L 522.41893 480.881086 
L 522.638483 525.506487 
L 523.077589 364.902015 
L 523.297142 558.484556 
L 523.516696 511.798369 
L 523.736249 502.07102 
L 523.955802 421.963242 
L 524.175355 484.0555 
L 524.394908 471.027894 
L 524.614461 559.958038 
L 524.834015 437.967406 
L 525.053568 493.801819 
L 525.273121 485.366181 
L 525.492674 500.793849 
L 525.712227 541.990086 
L 525.93178 409.932517 
L 526.151333 408.158529 
L 526.59044 525.260891 
L 526.809993 419.544898 
L 527.029546 489.557531 
L 527.249099 455.133438 
L 527.468652 490.955073 
L 527.688206 357.430354 
L 527.907759 517.061663 
L 528.127312 539.298565 
L 528.566418 483.900744 
L 528.785971 486.620473 
L 529.005524 476.446709 
L 529.225078 537.72172 
L 529.444631 498.493282 
L 529.664184 411.645439 
L 529.883737 494.966256 
L 530.10329 487.657682 
L 530.322843 501.371506 
L 530.542397 432.216955 
L 530.76195 500.053757 
L 530.981503 507.542213 
L 531.201056 397.558119 
L 531.420609 492.497519 
L 531.640162 365.633826 
L 531.859715 473.998366 
L 532.079269 431.969526 
L 532.298822 449.961405 
L 532.518375 533.392212 
L 532.737928 385.365396 
L 532.957481 521.377007 
L 533.177034 560.496788 
L 533.396588 535.891523 
L 533.835694 464.06598 
L 534.055247 513.534085 
L 534.494353 410.179769 
L 534.713906 479.527287 
L 534.93346 487.978844 
L 535.153013 487.629745 
L 535.372566 402.192885 
L 535.592119 531.082724 
L 535.811672 442.833509 
L 536.031225 446.696345 
L 536.250779 383.29319 
L 536.470332 437.864532 
L 536.689885 307.21104 
L 536.909438 528.676713 
L 537.128991 444.734637 
L 537.348544 479.312038 
L 537.568097 447.20143 
L 537.787651 512.469522 
L 538.007204 400.091836 
L 538.226757 500.632614 
L 538.44631 493.532829 
L 538.665863 291.131236 
L 538.885416 444.822443 
L 539.10497 513.439606 
L 539.324523 511.484045 
L 539.544076 530.21436 
L 539.763629 509.103084 
L 539.983182 503.500412 
L 540.202735 491.017182 
L 540.422288 511.140369 
L 540.641842 503.71096 
L 540.861395 464.435012 
L 541.080948 505.4457 
L 541.300501 513.576492 
L 541.739607 460.274014 
L 541.95916 480.901594 
L 542.178714 530.135624 
L 542.398267 479.236563 
L 542.61782 484.814964 
L 542.837373 416.340912 
L 543.056926 513.973247 
L 543.276479 496.575278 
L 543.496033 525.895278 
L 543.715586 405.794313 
L 543.935139 490.804069 
L 544.374245 423.445047 
L 544.593798 512.639563 
L 544.813351 490.00047 
L 545.032905 509.501215 
L 545.252458 472.744142 
L 545.472011 467.125612 
L 545.691564 464.903018 
L 545.911117 453.943861 
L 546.350224 507.185879 
L 546.569777 530.537446 
L 546.78933 492.322434 
L 547.008883 528.252947 
L 547.228436 468.482263 
L 547.447989 454.687939 
L 547.667542 339.971815 
L 548.106649 502.720057 
L 548.326202 522.337777 
L 548.545755 344.678307 
L 548.765308 531.363091 
L 548.984861 528.623293 
L 549.204415 443.680554 
L 549.643521 484.786597 
L 549.863074 484.600605 
L 550.082627 384.72081 
L 550.30218 543.760934 
L 550.741287 419.132487 
L 550.96084 464.622779 
L 551.180393 453.354438 
L 551.399946 509.443214 
L 551.619499 505.966384 
L 551.839052 481.93883 
L 552.058606 396.685328 
L 552.278159 433.156639 
L 552.497712 531.994908 
L 552.717265 448.891098 
L 552.936818 415.328927 
L 553.156371 519.527125 
L 553.375924 439.429996 
L 553.595478 428.766462 
L 553.815031 503.514164 
L 554.034584 406.42294 
L 554.47369 524.260477 
L 554.693243 499.590199 
L 554.912797 496.30711 
L 555.13235 549.725668 
L 555.571456 502.774791 
L 556.010562 382.897762 
L 556.230115 550.038083 
L 556.449669 418.149177 
L 556.669222 521.402295 
L 556.888775 466.940736 
L 557.108328 453.047307 
L 557.327881 457.708528 
L 557.766988 402.933428 
L 557.986541 496.362992 
L 558.206094 485.960606 
L 558.425647 445.659078 
L 558.6452 505.157165 
L 558.864753 440.497238 
L 559.084306 516.049926 
L 559.30386 434.24529 
L 559.742966 500.060961 
L 559.742966 500.060961 
" style="fill:none;stroke:#96c69a;stroke-linecap:round;stroke-width:3;"/>
   </g>
   <g id="line2d_2"/>
   <g id="patch_3">
    <path d="M 98.911875 603.86 
L 98.911875 109.484571 
" style="fill:none;stroke:#262626;stroke-linecap:square;stroke-linejoin:miter;stroke-width:2.5;"/>
   </g>
   <g id="patch_4">
    <path d="M 98.911875 603.86 
L 581.687304 603.86 
" style="fill:none;stroke:#262626;stroke-linecap:square;stroke-linejoin:miter;stroke-width:2.5;"/>
   </g>
   <g id="legend_1">
    <g id="patch_5">
     <path d="M 528.771679 598.86 
L 574.687304 598.86 
Q 576.687304 598.86 576.687304 596.86 
L 576.687304 554.954375 
Q 576.687304 552.954375 574.687304 552.954375 
L 528.771679 552.954375 
Q 526.771679 552.954375 526.771679 554.954375 
L 526.771679 596.86 
Q 526.771679 598.86 528.771679 598.86 
z
" style="fill:#ffffff;opacity:0.8;stroke:#cccccc;stroke-linejoin:miter;stroke-width:2;"/>
    </g>
    <g id="text_18">
     <!-- $n_\tau$ -->
     <g style="fill:#262626;" transform="translate(538.649491 575.190625)scale(0.24 -0.24)">
      <defs>
       <path d="M 3566 2113 
L 3156 0 
L 2578 0 
L 2988 2091 
Q 3016 2238 3031 2350 
Q 3047 2463 3047 2528 
Q 3047 2791 2881 2937 
Q 2716 3084 2419 3084 
Q 1956 3084 1622 2776 
Q 1288 2469 1184 1941 
L 800 0 
L 225 0 
L 903 3500 
L 1478 3500 
L 1363 2950 
Q 1603 3253 1940 3418 
Q 2278 3584 2650 3584 
Q 3113 3584 3367 3334 
Q 3622 3084 3622 2631 
Q 3622 2519 3608 2391 
Q 3594 2263 3566 2113 
z
" id="DejaVuSans-Oblique-6e" transform="scale(0.015625)"/>
       <path d="M 2103 638 
Q 2188 488 2525 488 
L 2800 488 
L 2706 0 
L 2363 0 
Q 1800 0 1600 300 
Q 1403 606 1534 1269 
L 1856 2925 
L 541 2925 
L 653 3500 
L 3881 3500 
L 3769 2925 
L 2444 2925 
L 2113 1234 
Q 2025 781 2103 638 
z
" id="DejaVuSans-Oblique-3c4" transform="scale(0.015625)"/>
      </defs>
      <use xlink:href="#DejaVuSans-Oblique-6e"/>
      <use transform="translate(63.378906 -16.40625)scale(0.7)" xlink:href="#DejaVuSans-Oblique-3c4"/>
     </g>
    </g>
    <g id="line2d_3">
     <path d="M 530.771679 589.280313 
L 550.771679 589.280313 
" style="fill:none;stroke:#96c69a;stroke-linecap:round;stroke-width:3;"/>
    </g>
    <g id="line2d_4"/>
    <g id="text_19">
     <!-- 20 -->
     <g style="fill:#262626;" transform="translate(558.771679 592.780313)scale(0.1 -0.1)">
      <defs>
       <path d="M 1844 884 
L 3897 884 
L 3897 0 
L 506 0 
L 506 884 
L 2209 2388 
Q 2438 2594 2547 2791 
Q 2656 2988 2656 3200 
Q 2656 3528 2436 3728 
Q 2216 3928 1850 3928 
Q 1569 3928 1234 3808 
Q 900 3688 519 3450 
L 519 4475 
Q 925 4609 1322 4679 
Q 1719 4750 2100 4750 
Q 2938 4750 3402 4381 
Q 3866 4013 3866 3353 
Q 3866 2972 3669 2642 
Q 3472 2313 2841 1759 
L 1844 884 
z
" id="DejaVuSans-Bold-32" transform="scale(0.015625)"/>
       <path d="M 2944 2338 
Q 2944 3213 2780 3570 
Q 2616 3928 2228 3928 
Q 1841 3928 1675 3570 
Q 1509 3213 1509 2338 
Q 1509 1453 1675 1090 
Q 1841 728 2228 728 
Q 2613 728 2778 1090 
Q 2944 1453 2944 2338 
z
M 4147 2328 
Q 4147 1169 3647 539 
Q 3147 -91 2228 -91 
Q 1306 -91 806 539 
Q 306 1169 306 2328 
Q 306 3491 806 4120 
Q 1306 4750 2228 4750 
Q 3147 4750 3647 4120 
Q 4147 3491 4147 2328 
z
" id="DejaVuSans-Bold-30" transform="scale(0.015625)"/>
      </defs>
      <use xlink:href="#DejaVuSans-Bold-32"/>
      <use x="69.580078" xlink:href="#DejaVuSans-Bold-30"/>
     </g>
    </g>
   </g>
  </g>
  <g id="axes_2">
   <g id="patch_6">
    <path d="M 98.911875 92.437143 
L 581.687304 92.437143 
L 581.687304 7.2 
L 98.911875 7.2 
z
" style="fill:none;"/>
   </g>
   <g id="matplotlib.axis_3">
    <g id="xtick_7"/>
    <g id="xtick_8"/>
    <g id="xtick_9"/>
    <g id="xtick_10"/>
    <g id="xtick_11"/>
    <g id="xtick_12"/>
   </g>
   <g id="matplotlib.axis_4">
    <g id="ytick_10">
     <g id="text_20">
      <!-- 0 -->
      <g style="fill:#262626;" transform="translate(69.414375 100.795424)scale(0.22 -0.22)">
       <use xlink:href="#DejaVuSans-30"/>
      </g>
     </g>
    </g>
    <g id="ytick_11">
     <g id="text_21">
      <!-- 100 -->
      <g style="fill:#262626;" transform="translate(41.419375 48.082287)scale(0.22 -0.22)">
       <use xlink:href="#DejaVuSans-31"/>
       <use x="63.623047" xlink:href="#DejaVuSans-30"/>
       <use x="127.246094" xlink:href="#DejaVuSans-30"/>
      </g>
     </g>
    </g>
   </g>
   <g id="patch_7">
    <path clip-path="url(#peae7e3d49d)" d="M 120.856213 92.437143 
L 154.616732 92.437143 
L 154.616732 11.258912 
L 120.856213 11.258912 
z
" style="fill:#96c69a;fill-opacity:0.5;stroke:#ffffff;stroke-linejoin:miter;stroke-width:2;"/>
   </g>
   <g id="patch_8">
    <path clip-path="url(#peae7e3d49d)" d="M 154.616732 92.437143 
L 188.377252 92.437143 
L 188.377252 11.258912 
L 154.616732 11.258912 
z
" style="fill:#96c69a;fill-opacity:0.5;stroke:#ffffff;stroke-linejoin:miter;stroke-width:2;"/>
   </g>
   <g id="patch_9">
    <path clip-path="url(#peae7e3d49d)" d="M 188.377252 92.437143 
L 222.137771 92.437143 
L 222.137771 11.258912 
L 188.377252 11.258912 
z
" style="fill:#96c69a;fill-opacity:0.5;stroke:#ffffff;stroke-linejoin:miter;stroke-width:2;"/>
   </g>
   <g id="patch_10">
    <path clip-path="url(#peae7e3d49d)" d="M 222.137771 92.437143 
L 255.898291 92.437143 
L 255.898291 11.258912 
L 222.137771 11.258912 
z
" style="fill:#96c69a;fill-opacity:0.5;stroke:#ffffff;stroke-linejoin:miter;stroke-width:2;"/>
   </g>
   <g id="patch_11">
    <path clip-path="url(#peae7e3d49d)" d="M 255.898291 92.437143 
L 289.65881 92.437143 
L 289.65881 11.786043 
L 255.898291 11.786043 
z
" style="fill:#96c69a;fill-opacity:0.5;stroke:#ffffff;stroke-linejoin:miter;stroke-width:2;"/>
   </g>
   <g id="patch_12">
    <path clip-path="url(#peae7e3d49d)" d="M 289.65881 92.437143 
L 323.41933 92.437143 
L 323.41933 11.258912 
L 289.65881 11.258912 
z
" style="fill:#96c69a;fill-opacity:0.5;stroke:#ffffff;stroke-linejoin:miter;stroke-width:2;"/>
   </g>
   <g id="patch_13">
    <path clip-path="url(#peae7e3d49d)" d="M 323.41933 92.437143 
L 357.179849 92.437143 
L 357.179849 11.258912 
L 323.41933 11.258912 
z
" style="fill:#96c69a;fill-opacity:0.5;stroke:#ffffff;stroke-linejoin:miter;stroke-width:2;"/>
   </g>
   <g id="patch_14">
    <path clip-path="url(#peae7e3d49d)" d="M 357.179849 92.437143 
L 390.940369 92.437143 
L 390.940369 11.258912 
L 357.179849 11.258912 
z
" style="fill:#96c69a;fill-opacity:0.5;stroke:#ffffff;stroke-linejoin:miter;stroke-width:2;"/>
   </g>
   <g id="patch_15">
    <path clip-path="url(#peae7e3d49d)" d="M 390.940369 92.437143 
L 424.700888 92.437143 
L 424.700888 11.786043 
L 390.940369 11.786043 
z
" style="fill:#96c69a;fill-opacity:0.5;stroke:#ffffff;stroke-linejoin:miter;stroke-width:2;"/>
   </g>
   <g id="patch_16">
    <path clip-path="url(#peae7e3d49d)" d="M 424.700888 92.437143 
L 458.461407 92.437143 
L 458.461407 11.258912 
L 424.700888 11.258912 
z
" style="fill:#96c69a;fill-opacity:0.5;stroke:#ffffff;stroke-linejoin:miter;stroke-width:2;"/>
   </g>
   <g id="patch_17">
    <path clip-path="url(#peae7e3d49d)" d="M 458.461407 92.437143 
L 492.221927 92.437143 
L 492.221927 11.258912 
L 458.461407 11.258912 
z
" style="fill:#96c69a;fill-opacity:0.5;stroke:#ffffff;stroke-linejoin:miter;stroke-width:2;"/>
   </g>
   <g id="patch_18">
    <path clip-path="url(#peae7e3d49d)" d="M 492.221927 92.437143 
L 525.982446 92.437143 
L 525.982446 11.258912 
L 492.221927 11.258912 
z
" style="fill:#96c69a;fill-opacity:0.5;stroke:#ffffff;stroke-linejoin:miter;stroke-width:2;"/>
   </g>
   <g id="patch_19">
    <path clip-path="url(#peae7e3d49d)" d="M 525.982446 92.437143 
L 559.742966 92.437143 
L 559.742966 11.258912 
L 525.982446 11.258912 
z
" style="fill:#96c69a;fill-opacity:0.5;stroke:#ffffff;stroke-linejoin:miter;stroke-width:2;"/>
   </g>
   <g id="patch_20">
    <path d="M 98.911875 92.437143 
L 98.911875 7.2 
" style="fill:none;stroke:#262626;stroke-linecap:square;stroke-linejoin:miter;stroke-width:2.5;"/>
   </g>
   <g id="patch_21">
    <path d="M 98.911875 92.437143 
L 581.687304 92.437143 
" style="fill:none;stroke:#262626;stroke-linecap:square;stroke-linejoin:miter;stroke-width:2.5;"/>
   </g>
  </g>
  <g id="axes_3">
   <g id="patch_22">
    <path d="M 598.334732 603.86 
L 681.571875 603.86 
L 681.571875 109.484571 
L 598.334732 109.484571 
z
" style="fill:none;"/>
   </g>
   <g id="matplotlib.axis_5">
    <g id="xtick_13">
     <g id="text_22">
      <!-- 0 -->
      <g style="fill:#262626;" transform="translate(591.335982 636.076563)scale(0.22 -0.22)">
       <use xlink:href="#DejaVuSans-30"/>
      </g>
     </g>
    </g>
    <g id="xtick_14">
     <g id="text_23">
      <!-- 100 -->
      <g style="fill:#262626;" transform="translate(620.421889 636.076563)scale(0.22 -0.22)">
       <use xlink:href="#DejaVuSans-31"/>
       <use x="63.623047" xlink:href="#DejaVuSans-30"/>
       <use x="127.246094" xlink:href="#DejaVuSans-30"/>
      </g>
     </g>
    </g>
   </g>
   <g id="matplotlib.axis_6">
    <g id="ytick_12"/>
    <g id="ytick_13"/>
    <g id="ytick_14"/>
    <g id="ytick_15"/>
    <g id="ytick_16"/>
    <g id="ytick_17"/>
    <g id="ytick_18"/>
    <g id="ytick_19"/>
    <g id="ytick_20"/>
   </g>
   <g id="patch_23">
    <path clip-path="url(#pdd2e069b0b)" d="M 598.334732 581.38839 
L 601.350571 581.38839 
L 601.350571 569.561226 
L 598.334732 569.561226 
z
" style="fill:#96c69a;fill-opacity:0.5;stroke:#ffffff;stroke-linejoin:miter;stroke-width:1.182716;"/>
   </g>
   <g id="patch_24">
    <path clip-path="url(#pdd2e069b0b)" d="M 598.334732 569.561226 
L 606.089745 569.561226 
L 606.089745 557.734063 
L 598.334732 557.734063 
z
" style="fill:#96c69a;fill-opacity:0.5;stroke:#ffffff;stroke-linejoin:miter;stroke-width:1.182716;"/>
   </g>
   <g id="patch_25">
    <path clip-path="url(#pdd2e069b0b)" d="M 598.334732 557.734063 
L 616.860597 557.734063 
L 616.860597 545.9069 
L 598.334732 545.9069 
z
" style="fill:#96c69a;fill-opacity:0.5;stroke:#ffffff;stroke-linejoin:miter;stroke-width:1.182716;"/>
   </g>
   <g id="patch_26">
    <path clip-path="url(#pdd2e069b0b)" d="M 598.334732 545.9069 
L 634.955628 545.9069 
L 634.955628 534.079736 
L 598.334732 534.079736 
z
" style="fill:#96c69a;fill-opacity:0.5;stroke:#ffffff;stroke-linejoin:miter;stroke-width:1.182716;"/>
   </g>
   <g id="patch_27">
    <path clip-path="url(#pdd2e069b0b)" d="M 598.334732 534.079736 
L 656.066498 534.079736 
L 656.066498 522.252573 
L 598.334732 522.252573 
z
" style="fill:#96c69a;fill-opacity:0.5;stroke:#ffffff;stroke-linejoin:miter;stroke-width:1.182716;"/>
   </g>
   <g id="patch_28">
    <path clip-path="url(#pdd2e069b0b)" d="M 598.334732 522.252573 
L 664.252345 522.252573 
L 664.252345 510.425409 
L 598.334732 510.425409 
z
" style="fill:#96c69a;fill-opacity:0.5;stroke:#ffffff;stroke-linejoin:miter;stroke-width:1.182716;"/>
   </g>
   <g id="patch_29">
    <path clip-path="url(#pdd2e069b0b)" d="M 598.334732 510.425409 
L 664.252345 510.425409 
L 664.252345 498.598246 
L 598.334732 498.598246 
z
" style="fill:#96c69a;fill-opacity:0.5;stroke:#ffffff;stroke-linejoin:miter;stroke-width:1.182716;"/>
   </g>
   <g id="patch_30">
    <path clip-path="url(#pdd2e069b0b)" d="M 598.334732 498.598246 
L 672.869027 498.598246 
L 672.869027 486.771083 
L 598.334732 486.771083 
z
" style="fill:#96c69a;fill-opacity:0.5;stroke:#ffffff;stroke-linejoin:miter;stroke-width:1.182716;"/>
   </g>
   <g id="patch_31">
    <path clip-path="url(#pdd2e069b0b)" d="M 598.334732 486.771083 
L 677.608202 486.771083 
L 677.608202 474.943919 
L 598.334732 474.943919 
z
" style="fill:#96c69a;fill-opacity:0.5;stroke:#ffffff;stroke-linejoin:miter;stroke-width:1.182716;"/>
   </g>
   <g id="patch_32">
    <path clip-path="url(#pdd2e069b0b)" d="M 598.334732 474.943919 
L 672.438193 474.943919 
L 672.438193 463.116756 
L 598.334732 463.116756 
z
" style="fill:#96c69a;fill-opacity:0.5;stroke:#ffffff;stroke-linejoin:miter;stroke-width:1.182716;"/>
   </g>
   <g id="patch_33">
    <path clip-path="url(#pdd2e069b0b)" d="M 598.334732 463.116756 
L 664.252345 463.116756 
L 664.252345 451.289593 
L 598.334732 451.289593 
z
" style="fill:#96c69a;fill-opacity:0.5;stroke:#ffffff;stroke-linejoin:miter;stroke-width:1.182716;"/>
   </g>
   <g id="patch_34">
    <path clip-path="url(#pdd2e069b0b)" d="M 598.334732 451.289593 
L 662.959843 451.289593 
L 662.959843 439.462429 
L 598.334732 439.462429 
z
" style="fill:#96c69a;fill-opacity:0.5;stroke:#ffffff;stroke-linejoin:miter;stroke-width:1.182716;"/>
   </g>
   <g id="patch_35">
    <path clip-path="url(#pdd2e069b0b)" d="M 598.334732 439.462429 
L 637.540633 439.462429 
L 637.540633 427.635266 
L 598.334732 427.635266 
z
" style="fill:#96c69a;fill-opacity:0.5;stroke:#ffffff;stroke-linejoin:miter;stroke-width:1.182716;"/>
   </g>
   <g id="patch_36">
    <path clip-path="url(#pdd2e069b0b)" d="M 598.334732 427.635266 
L 638.833135 427.635266 
L 638.833135 415.808103 
L 598.334732 415.808103 
z
" style="fill:#96c69a;fill-opacity:0.5;stroke:#ffffff;stroke-linejoin:miter;stroke-width:1.182716;"/>
   </g>
   <g id="patch_37">
    <path clip-path="url(#pdd2e069b0b)" d="M 598.334732 415.808103 
L 635.817296 415.808103 
L 635.817296 403.980939 
L 598.334732 403.980939 
z
" style="fill:#96c69a;fill-opacity:0.5;stroke:#ffffff;stroke-linejoin:miter;stroke-width:1.182716;"/>
   </g>
   <g id="patch_38">
    <path clip-path="url(#pdd2e069b0b)" d="M 598.334732 403.980939 
L 623.753942 403.980939 
L 623.753942 392.153776 
L 598.334732 392.153776 
z
" style="fill:#96c69a;fill-opacity:0.5;stroke:#ffffff;stroke-linejoin:miter;stroke-width:1.182716;"/>
   </g>
   <g id="patch_39">
    <path clip-path="url(#pdd2e069b0b)" d="M 598.334732 392.153776 
L 620.30727 392.153776 
L 620.30727 380.326612 
L 598.334732 380.326612 
z
" style="fill:#96c69a;fill-opacity:0.5;stroke:#ffffff;stroke-linejoin:miter;stroke-width:1.182716;"/>
   </g>
   <g id="patch_40">
    <path clip-path="url(#pdd2e069b0b)" d="M 598.334732 380.326612 
L 614.706427 380.326612 
L 614.706427 368.499449 
L 598.334732 368.499449 
z
" style="fill:#96c69a;fill-opacity:0.5;stroke:#ffffff;stroke-linejoin:miter;stroke-width:1.182716;"/>
   </g>
   <g id="patch_41">
    <path clip-path="url(#pdd2e069b0b)" d="M 598.334732 368.499449 
L 613.413925 368.499449 
L 613.413925 356.672286 
L 598.334732 356.672286 
z
" style="fill:#96c69a;fill-opacity:0.5;stroke:#ffffff;stroke-linejoin:miter;stroke-width:1.182716;"/>
   </g>
   <g id="patch_42">
    <path clip-path="url(#pdd2e069b0b)" d="M 598.334732 356.672286 
L 612.552257 356.672286 
L 612.552257 344.845122 
L 598.334732 344.845122 
z
" style="fill:#96c69a;fill-opacity:0.5;stroke:#ffffff;stroke-linejoin:miter;stroke-width:1.182716;"/>
   </g>
   <g id="patch_43">
    <path clip-path="url(#pdd2e069b0b)" d="M 598.334732 344.845122 
L 606.52058 344.845122 
L 606.52058 333.017959 
L 598.334732 333.017959 
z
" style="fill:#96c69a;fill-opacity:0.5;stroke:#ffffff;stroke-linejoin:miter;stroke-width:1.182716;"/>
   </g>
   <g id="patch_44">
    <path clip-path="url(#pdd2e069b0b)" d="M 598.334732 333.017959 
L 605.228077 333.017959 
L 605.228077 321.190796 
L 598.334732 321.190796 
z
" style="fill:#96c69a;fill-opacity:0.5;stroke:#ffffff;stroke-linejoin:miter;stroke-width:1.182716;"/>
   </g>
   <g id="patch_45">
    <path clip-path="url(#pdd2e069b0b)" d="M 598.334732 321.190796 
L 604.366409 321.190796 
L 604.366409 309.363632 
L 598.334732 309.363632 
z
" style="fill:#96c69a;fill-opacity:0.5;stroke:#ffffff;stroke-linejoin:miter;stroke-width:1.182716;"/>
   </g>
   <g id="patch_46">
    <path clip-path="url(#pdd2e069b0b)" d="M 598.334732 309.363632 
L 600.058068 309.363632 
L 600.058068 297.536469 
L 598.334732 297.536469 
z
" style="fill:#96c69a;fill-opacity:0.5;stroke:#ffffff;stroke-linejoin:miter;stroke-width:1.182716;"/>
   </g>
   <g id="patch_47">
    <path clip-path="url(#pdd2e069b0b)" d="M 598.334732 297.536469 
L 602.212239 297.536469 
L 602.212239 285.709306 
L 598.334732 285.709306 
z
" style="fill:#96c69a;fill-opacity:0.5;stroke:#ffffff;stroke-linejoin:miter;stroke-width:1.182716;"/>
   </g>
   <g id="patch_48">
    <path clip-path="url(#pdd2e069b0b)" d="M 598.334732 285.709306 
L 603.073907 285.709306 
L 603.073907 273.882142 
L 598.334732 273.882142 
z
" style="fill:#96c69a;fill-opacity:0.5;stroke:#ffffff;stroke-linejoin:miter;stroke-width:1.182716;"/>
   </g>
   <g id="patch_49">
    <path clip-path="url(#pdd2e069b0b)" d="M 598.334732 273.882142 
L 600.058068 273.882142 
L 600.058068 262.054979 
L 598.334732 262.054979 
z
" style="fill:#96c69a;fill-opacity:0.5;stroke:#ffffff;stroke-linejoin:miter;stroke-width:1.182716;"/>
   </g>
   <g id="patch_50">
    <path clip-path="url(#pdd2e069b0b)" d="M 598.334732 262.054979 
L 600.488903 262.054979 
L 600.488903 250.227815 
L 598.334732 250.227815 
z
" style="fill:#96c69a;fill-opacity:0.5;stroke:#ffffff;stroke-linejoin:miter;stroke-width:1.182716;"/>
   </g>
   <g id="patch_51">
    <path clip-path="url(#pdd2e069b0b)" d="M 598.334732 250.227815 
L 598.334732 250.227815 
L 598.334732 238.400652 
L 598.334732 238.400652 
z
" style="fill:#96c69a;fill-opacity:0.5;stroke:#ffffff;stroke-linejoin:miter;stroke-width:1.182716;"/>
   </g>
   <g id="patch_52">
    <path clip-path="url(#pdd2e069b0b)" d="M 598.334732 238.400652 
L 599.1964 238.400652 
L 599.1964 226.573489 
L 598.334732 226.573489 
z
" style="fill:#96c69a;fill-opacity:0.5;stroke:#ffffff;stroke-linejoin:miter;stroke-width:1.182716;"/>
   </g>
   <g id="patch_53">
    <path clip-path="url(#pdd2e069b0b)" d="M 598.334732 226.573489 
L 598.765566 226.573489 
L 598.765566 214.746325 
L 598.334732 214.746325 
z
" style="fill:#96c69a;fill-opacity:0.5;stroke:#ffffff;stroke-linejoin:miter;stroke-width:1.182716;"/>
   </g>
   <g id="patch_54">
    <path clip-path="url(#pdd2e069b0b)" d="M 598.334732 214.746325 
L 598.334732 214.746325 
L 598.334732 202.919162 
L 598.334732 202.919162 
z
" style="fill:#96c69a;fill-opacity:0.5;stroke:#ffffff;stroke-linejoin:miter;stroke-width:1.182716;"/>
   </g>
   <g id="patch_55">
    <path clip-path="url(#pdd2e069b0b)" d="M 598.334732 202.919162 
L 598.334732 202.919162 
L 598.334732 191.091999 
L 598.334732 191.091999 
z
" style="fill:#96c69a;fill-opacity:0.5;stroke:#ffffff;stroke-linejoin:miter;stroke-width:1.182716;"/>
   </g>
   <g id="patch_56">
    <path clip-path="url(#pdd2e069b0b)" d="M 598.334732 191.091999 
L 598.334732 191.091999 
L 598.334732 179.264835 
L 598.334732 179.264835 
z
" style="fill:#96c69a;fill-opacity:0.5;stroke:#ffffff;stroke-linejoin:miter;stroke-width:1.182716;"/>
   </g>
   <g id="patch_57">
    <path clip-path="url(#pdd2e069b0b)" d="M 598.334732 179.264835 
L 598.334732 179.264835 
L 598.334732 167.437672 
L 598.334732 167.437672 
z
" style="fill:#96c69a;fill-opacity:0.5;stroke:#ffffff;stroke-linejoin:miter;stroke-width:1.182716;"/>
   </g>
   <g id="patch_58">
    <path clip-path="url(#pdd2e069b0b)" d="M 598.334732 167.437672 
L 598.334732 167.437672 
L 598.334732 155.610509 
L 598.334732 155.610509 
z
" style="fill:#96c69a;fill-opacity:0.5;stroke:#ffffff;stroke-linejoin:miter;stroke-width:1.182716;"/>
   </g>
   <g id="patch_59">
    <path clip-path="url(#pdd2e069b0b)" d="M 598.334732 155.610509 
L 598.765566 155.610509 
L 598.765566 143.783345 
L 598.334732 143.783345 
z
" style="fill:#96c69a;fill-opacity:0.5;stroke:#ffffff;stroke-linejoin:miter;stroke-width:1.182716;"/>
   </g>
   <g id="patch_60">
    <path clip-path="url(#pdd2e069b0b)" d="M 598.334732 143.783345 
L 598.765566 143.783345 
L 598.765566 131.956182 
L 598.334732 131.956182 
z
" style="fill:#96c69a;fill-opacity:0.5;stroke:#ffffff;stroke-linejoin:miter;stroke-width:1.182716;"/>
   </g>
   <g id="patch_61">
    <path d="M 598.334732 603.86 
L 598.334732 109.484571 
" style="fill:none;stroke:#262626;stroke-linecap:square;stroke-linejoin:miter;stroke-width:2.5;"/>
   </g>
   <g id="patch_62">
    <path d="M 598.334732 603.86 
L 681.571875 603.86 
" style="fill:none;stroke:#262626;stroke-linecap:square;stroke-linejoin:miter;stroke-width:2.5;"/>
   </g>
  </g>
 </g>
 <defs>
  <clipPath id="p3f005101ca">
   <rect height="494.375429" width="482.775429" x="98.911875" y="109.484571"/>
  </clipPath>
  <clipPath id="peae7e3d49d">
   <rect height="85.237143" width="482.775429" x="98.911875" y="7.2"/>
  </clipPath>
  <clipPath id="pdd2e069b0b">
   <rect height="494.375429" width="83.237143" x="598.334732" y="109.484571"/>
  </clipPath>
 </defs>
</svg>
