<?xml version="1.0" encoding="utf-8" standalone="no"?>
<!DOCTYPE svg PUBLIC "-//W3C//DTD SVG 1.1//EN"
  "http://www.w3.org/Graphics/SVG/1.1/DTD/svg11.dtd">
<svg height="675.079375pt" version="1.1" viewBox="0 0 674.774375 675.079375" width="674.774375pt" xmlns="http://www.w3.org/2000/svg" xmlns:xlink="http://www.w3.org/1999/xlink">
 <metadata>
  <rdf:RDF xmlns:cc="http://creativecommons.org/ns#" xmlns:dc="http://purl.org/dc/elements/1.1/" xmlns:rdf="http://www.w3.org/1999/02/22-rdf-syntax-ns#">
   <cc:Work>
    <dc:type rdf:resource="http://purl.org/dc/dcmitype/StillImage"/>
    <dc:date>2021-07-16T21:43:59.354111</dc:date>
    <dc:format>image/svg+xml</dc:format>
    <dc:creator>
     <cc:Agent>
      <dc:title>Matplotlib v3.4.2, https://matplotlib.org/</dc:title>
     </cc:Agent>
    </dc:creator>
   </cc:Work>
  </rdf:RDF>
 </metadata>
 <defs>
  <style type="text/css">*{stroke-linecap:butt;stroke-linejoin:round;}</style>
 </defs>
 <g id="figure_1">
  <g id="patch_1">
   <path d="M 0 675.079375 
L 674.774375 675.079375 
L 674.774375 0 
L 0 0 
z
" style="fill:#ffffff;"/>
  </g>
  <g id="axes_1">
   <g id="patch_2">
    <path d="M 84.914375 603.86 
L 567.689804 603.86 
L 567.689804 109.484571 
L 84.914375 109.484571 
z
" style="fill:none;"/>
   </g>
   <g id="matplotlib.axis_1">
    <g id="xtick_1">
     <g id="text_1">
      <!-- 0 -->
      <g style="fill:#262626;" transform="translate(99.64041 636.076563)scale(0.22 -0.22)">
       <defs>
        <path d="M 2034 4250 
Q 1547 4250 1301 3770 
Q 1056 3291 1056 2328 
Q 1056 1369 1301 889 
Q 1547 409 2034 409 
Q 2525 409 2770 889 
Q 3016 1369 3016 2328 
Q 3016 3291 2770 3770 
Q 2525 4250 2034 4250 
z
M 2034 4750 
Q 2819 4750 3233 4129 
Q 3647 3509 3647 2328 
Q 3647 1150 3233 529 
Q 2819 -91 2034 -91 
Q 1250 -91 836 529 
Q 422 1150 422 2328 
Q 422 3509 836 4129 
Q 1250 4750 2034 4750 
z
" id="DejaVuSans-30" transform="scale(0.015625)"/>
       </defs>
       <use xlink:href="#DejaVuSans-30"/>
      </g>
     </g>
    </g>
    <g id="xtick_2">
     <g id="text_2">
      <!-- 20000 -->
      <g style="fill:#262626;" transform="translate(159.466671 636.076563)scale(0.22 -0.22)">
       <defs>
        <path d="M 1228 531 
L 3431 531 
L 3431 0 
L 469 0 
L 469 531 
Q 828 903 1448 1529 
Q 2069 2156 2228 2338 
Q 2531 2678 2651 2914 
Q 2772 3150 2772 3378 
Q 2772 3750 2511 3984 
Q 2250 4219 1831 4219 
Q 1534 4219 1204 4116 
Q 875 4013 500 3803 
L 500 4441 
Q 881 4594 1212 4672 
Q 1544 4750 1819 4750 
Q 2544 4750 2975 4387 
Q 3406 4025 3406 3419 
Q 3406 3131 3298 2873 
Q 3191 2616 2906 2266 
Q 2828 2175 2409 1742 
Q 1991 1309 1228 531 
z
" id="DejaVuSans-32" transform="scale(0.015625)"/>
       </defs>
       <use xlink:href="#DejaVuSans-32"/>
       <use x="63.623047" xlink:href="#DejaVuSans-30"/>
       <use x="127.246094" xlink:href="#DejaVuSans-30"/>
       <use x="190.869141" xlink:href="#DejaVuSans-30"/>
       <use x="254.492188" xlink:href="#DejaVuSans-30"/>
      </g>
     </g>
    </g>
    <g id="xtick_3">
     <g id="text_3">
      <!-- 40000 -->
      <g style="fill:#262626;" transform="translate(247.287932 636.076563)scale(0.22 -0.22)">
       <defs>
        <path d="M 2419 4116 
L 825 1625 
L 2419 1625 
L 2419 4116 
z
M 2253 4666 
L 3047 4666 
L 3047 1625 
L 3713 1625 
L 3713 1100 
L 3047 1100 
L 3047 0 
L 2419 0 
L 2419 1100 
L 313 1100 
L 313 1709 
L 2253 4666 
z
" id="DejaVuSans-34" transform="scale(0.015625)"/>
       </defs>
       <use xlink:href="#DejaVuSans-34"/>
       <use x="63.623047" xlink:href="#DejaVuSans-30"/>
       <use x="127.246094" xlink:href="#DejaVuSans-30"/>
       <use x="190.869141" xlink:href="#DejaVuSans-30"/>
       <use x="254.492188" xlink:href="#DejaVuSans-30"/>
      </g>
     </g>
    </g>
    <g id="xtick_4">
     <g id="text_4">
      <!-- 60000 -->
      <g style="fill:#262626;" transform="translate(335.109193 636.076563)scale(0.22 -0.22)">
       <defs>
        <path d="M 2113 2584 
Q 1688 2584 1439 2293 
Q 1191 2003 1191 1497 
Q 1191 994 1439 701 
Q 1688 409 2113 409 
Q 2538 409 2786 701 
Q 3034 994 3034 1497 
Q 3034 2003 2786 2293 
Q 2538 2584 2113 2584 
z
M 3366 4563 
L 3366 3988 
Q 3128 4100 2886 4159 
Q 2644 4219 2406 4219 
Q 1781 4219 1451 3797 
Q 1122 3375 1075 2522 
Q 1259 2794 1537 2939 
Q 1816 3084 2150 3084 
Q 2853 3084 3261 2657 
Q 3669 2231 3669 1497 
Q 3669 778 3244 343 
Q 2819 -91 2113 -91 
Q 1303 -91 875 529 
Q 447 1150 447 2328 
Q 447 3434 972 4092 
Q 1497 4750 2381 4750 
Q 2619 4750 2861 4703 
Q 3103 4656 3366 4563 
z
" id="DejaVuSans-36" transform="scale(0.015625)"/>
       </defs>
       <use xlink:href="#DejaVuSans-36"/>
       <use x="63.623047" xlink:href="#DejaVuSans-30"/>
       <use x="127.246094" xlink:href="#DejaVuSans-30"/>
       <use x="190.869141" xlink:href="#DejaVuSans-30"/>
       <use x="254.492188" xlink:href="#DejaVuSans-30"/>
      </g>
     </g>
    </g>
    <g id="xtick_5">
     <g id="text_5">
      <!-- 80000 -->
      <g style="fill:#262626;" transform="translate(422.930455 636.076563)scale(0.22 -0.22)">
       <defs>
        <path d="M 2034 2216 
Q 1584 2216 1326 1975 
Q 1069 1734 1069 1313 
Q 1069 891 1326 650 
Q 1584 409 2034 409 
Q 2484 409 2743 651 
Q 3003 894 3003 1313 
Q 3003 1734 2745 1975 
Q 2488 2216 2034 2216 
z
M 1403 2484 
Q 997 2584 770 2862 
Q 544 3141 544 3541 
Q 544 4100 942 4425 
Q 1341 4750 2034 4750 
Q 2731 4750 3128 4425 
Q 3525 4100 3525 3541 
Q 3525 3141 3298 2862 
Q 3072 2584 2669 2484 
Q 3125 2378 3379 2068 
Q 3634 1759 3634 1313 
Q 3634 634 3220 271 
Q 2806 -91 2034 -91 
Q 1263 -91 848 271 
Q 434 634 434 1313 
Q 434 1759 690 2068 
Q 947 2378 1403 2484 
z
M 1172 3481 
Q 1172 3119 1398 2916 
Q 1625 2713 2034 2713 
Q 2441 2713 2670 2916 
Q 2900 3119 2900 3481 
Q 2900 3844 2670 4047 
Q 2441 4250 2034 4250 
Q 1625 4250 1398 4047 
Q 1172 3844 1172 3481 
z
" id="DejaVuSans-38" transform="scale(0.015625)"/>
       </defs>
       <use xlink:href="#DejaVuSans-38"/>
       <use x="63.623047" xlink:href="#DejaVuSans-30"/>
       <use x="127.246094" xlink:href="#DejaVuSans-30"/>
       <use x="190.869141" xlink:href="#DejaVuSans-30"/>
       <use x="254.492188" xlink:href="#DejaVuSans-30"/>
      </g>
     </g>
    </g>
    <g id="xtick_6">
     <g id="text_6">
      <!-- 100000 -->
      <g style="fill:#262626;" transform="translate(503.752966 636.076563)scale(0.22 -0.22)">
       <defs>
        <path d="M 794 531 
L 1825 531 
L 1825 4091 
L 703 3866 
L 703 4441 
L 1819 4666 
L 2450 4666 
L 2450 531 
L 3481 531 
L 3481 0 
L 794 0 
L 794 531 
z
" id="DejaVuSans-31" transform="scale(0.015625)"/>
       </defs>
       <use xlink:href="#DejaVuSans-31"/>
       <use x="63.623047" xlink:href="#DejaVuSans-30"/>
       <use x="127.246094" xlink:href="#DejaVuSans-30"/>
       <use x="190.869141" xlink:href="#DejaVuSans-30"/>
       <use x="254.492188" xlink:href="#DejaVuSans-30"/>
       <use x="318.115234" xlink:href="#DejaVuSans-30"/>
      </g>
     </g>
    </g>
    <g id="text_7">
     <!-- MDTU -->
     <g style="fill:#262626;" transform="translate(290.596464 662.888125)scale(0.24 -0.24)">
      <defs>
       <path d="M 628 4666 
L 1569 4666 
L 2759 1491 
L 3956 4666 
L 4897 4666 
L 4897 0 
L 4281 0 
L 4281 4097 
L 3078 897 
L 2444 897 
L 1241 4097 
L 1241 0 
L 628 0 
L 628 4666 
z
" id="DejaVuSans-4d" transform="scale(0.015625)"/>
       <path d="M 1259 4147 
L 1259 519 
L 2022 519 
Q 2988 519 3436 956 
Q 3884 1394 3884 2338 
Q 3884 3275 3436 3711 
Q 2988 4147 2022 4147 
L 1259 4147 
z
M 628 4666 
L 1925 4666 
Q 3281 4666 3915 4102 
Q 4550 3538 4550 2338 
Q 4550 1131 3912 565 
Q 3275 0 1925 0 
L 628 0 
L 628 4666 
z
" id="DejaVuSans-44" transform="scale(0.015625)"/>
       <path d="M -19 4666 
L 3928 4666 
L 3928 4134 
L 2272 4134 
L 2272 0 
L 1638 0 
L 1638 4134 
L -19 4134 
L -19 4666 
z
" id="DejaVuSans-54" transform="scale(0.015625)"/>
       <path d="M 556 4666 
L 1191 4666 
L 1191 1831 
Q 1191 1081 1462 751 
Q 1734 422 2344 422 
Q 2950 422 3222 751 
Q 3494 1081 3494 1831 
L 3494 4666 
L 4128 4666 
L 4128 1753 
Q 4128 841 3676 375 
Q 3225 -91 2344 -91 
Q 1459 -91 1007 375 
Q 556 841 556 1753 
L 556 4666 
z
" id="DejaVuSans-55" transform="scale(0.015625)"/>
      </defs>
      <use xlink:href="#DejaVuSans-4d"/>
      <use x="86.279297" xlink:href="#DejaVuSans-44"/>
      <use x="163.28125" xlink:href="#DejaVuSans-54"/>
      <use x="224.365234" xlink:href="#DejaVuSans-55"/>
     </g>
    </g>
   </g>
   <g id="matplotlib.axis_2">
    <g id="ytick_1">
     <g id="text_8">
      <!-- 0.4 -->
      <g style="fill:#262626;" transform="translate(34.4275 579.762876)scale(0.22 -0.22)">
       <defs>
        <path d="M 684 794 
L 1344 794 
L 1344 0 
L 684 0 
L 684 794 
z
" id="DejaVuSans-2e" transform="scale(0.015625)"/>
       </defs>
       <use xlink:href="#DejaVuSans-30"/>
       <use x="63.623047" xlink:href="#DejaVuSans-2e"/>
       <use x="95.410156" xlink:href="#DejaVuSans-34"/>
      </g>
     </g>
    </g>
    <g id="ytick_2">
     <g id="text_9">
      <!-- 0.6 -->
      <g style="fill:#262626;" transform="translate(34.4275 508.27672)scale(0.22 -0.22)">
       <use xlink:href="#DejaVuSans-30"/>
       <use x="63.623047" xlink:href="#DejaVuSans-2e"/>
       <use x="95.410156" xlink:href="#DejaVuSans-36"/>
      </g>
     </g>
    </g>
    <g id="ytick_3">
     <g id="text_10">
      <!-- 0.8 -->
      <g style="fill:#262626;" transform="translate(34.4275 436.790565)scale(0.22 -0.22)">
       <use xlink:href="#DejaVuSans-30"/>
       <use x="63.623047" xlink:href="#DejaVuSans-2e"/>
       <use x="95.410156" xlink:href="#DejaVuSans-38"/>
      </g>
     </g>
    </g>
    <g id="ytick_4">
     <g id="text_11">
      <!-- 1.0 -->
      <g style="fill:#262626;" transform="translate(34.4275 365.304409)scale(0.22 -0.22)">
       <use xlink:href="#DejaVuSans-31"/>
       <use x="63.623047" xlink:href="#DejaVuSans-2e"/>
       <use x="95.410156" xlink:href="#DejaVuSans-30"/>
      </g>
     </g>
    </g>
    <g id="ytick_5">
     <g id="text_12">
      <!-- 1.2 -->
      <g style="fill:#262626;" transform="translate(34.4275 293.818254)scale(0.22 -0.22)">
       <use xlink:href="#DejaVuSans-31"/>
       <use x="63.623047" xlink:href="#DejaVuSans-2e"/>
       <use x="95.410156" xlink:href="#DejaVuSans-32"/>
      </g>
     </g>
    </g>
    <g id="ytick_6">
     <g id="text_13">
      <!-- 1.4 -->
      <g style="fill:#262626;" transform="translate(34.4275 222.332098)scale(0.22 -0.22)">
       <use xlink:href="#DejaVuSans-31"/>
       <use x="63.623047" xlink:href="#DejaVuSans-2e"/>
       <use x="95.410156" xlink:href="#DejaVuSans-34"/>
      </g>
     </g>
    </g>
    <g id="ytick_7">
     <g id="text_14">
      <!-- 1.6 -->
      <g style="fill:#262626;" transform="translate(34.4275 150.845943)scale(0.22 -0.22)">
       <use xlink:href="#DejaVuSans-31"/>
       <use x="63.623047" xlink:href="#DejaVuSans-2e"/>
       <use x="95.410156" xlink:href="#DejaVuSans-36"/>
      </g>
     </g>
    </g>
    <g id="text_15">
     <!-- $E$ -->
     <g style="fill:#262626;" transform="translate(25.43625 364.352286)rotate(-90)scale(0.24 -0.24)">
      <defs>
       <path d="M 1081 4666 
L 4031 4666 
L 3928 4134 
L 1606 4134 
L 1338 2753 
L 3566 2753 
L 3463 2222 
L 1234 2222 
L 909 531 
L 3284 531 
L 3181 0 
L 172 0 
L 1081 4666 
z
" id="DejaVuSans-Oblique-45" transform="scale(0.015625)"/>
      </defs>
      <use transform="translate(0 0.09375)" xlink:href="#DejaVuSans-Oblique-45"/>
     </g>
    </g>
   </g>
   <g id="line2d_1">
    <path clip-path="url(#p24161e1241)" d="M 106.858713 461.448394 
L 107.078266 455.902943 
L 107.297819 336.920028 
L 107.517372 513.852354 
L 107.736925 420.862378 
L 107.956478 376.326075 
L 108.176032 437.714759 
L 108.395585 442.223648 
L 108.615138 483.501398 
L 108.834691 479.518362 
L 109.054244 390.661394 
L 109.493351 347.198622 
L 109.712904 341.243603 
L 109.932457 430.286286 
L 110.15201 252.976087 
L 110.371563 538.385895 
L 110.591116 511.368453 
L 110.810669 443.389733 
L 111.030223 428.506351 
L 111.249776 537.263566 
L 111.469329 401.304321 
L 111.688882 532.736726 
L 111.908435 293.878172 
L 112.127988 473.179944 
L 112.347541 412.963791 
L 112.567095 212.276586 
L 112.786648 444.472244 
L 113.006201 405.482699 
L 113.225754 454.942648 
L 113.445307 439.335773 
L 113.66486 536.351329 
L 113.884414 329.797613 
L 114.103967 377.573235 
L 114.32352 458.568579 
L 114.543073 371.387456 
L 114.762626 506.093657 
L 114.982179 362.233768 
L 115.201732 523.334605 
L 115.640839 364.252784 
L 115.860392 511.686307 
L 116.079945 508.29491 
L 116.299498 521.246912 
L 116.519051 452.89632 
L 116.738605 505.351844 
L 116.958158 481.173198 
L 117.177711 440.512259 
L 117.616817 493.623093 
L 117.83637 416.84903 
L 118.055923 427.23661 
L 118.275477 483.380388 
L 118.49503 429.460139 
L 118.714583 421.900314 
L 118.934136 351.105188 
L 119.153689 486.123171 
L 119.373242 347.294872 
L 119.592796 495.151029 
L 119.812349 332.997663 
L 120.031902 285.390754 
L 120.251455 515.223122 
L 120.471008 423.023154 
L 120.690561 408.941231 
L 120.910114 477.248746 
L 121.129668 302.957434 
L 121.349221 481.966782 
L 121.568774 360.053353 
L 121.788327 471.289706 
L 122.00788 522.626259 
L 122.227433 415.108075 
L 122.446987 385.633817 
L 122.66654 457.779215 
L 122.886093 315.861895 
L 123.325199 536.780488 
L 123.544752 490.976128 
L 123.764305 394.535329 
L 123.983859 479.695688 
L 124.203412 428.304656 
L 124.422965 449.209425 
L 124.642518 520.491989 
L 124.862071 369.819981 
L 125.081624 372.295612 
L 125.301178 458.340483 
L 125.520731 451.858516 
L 125.740284 392.297457 
L 125.959837 456.245713 
L 126.17939 403.057387 
L 126.398943 438.889544 
L 126.618496 518.281519 
L 126.83805 418.504928 
L 127.057603 399.443865 
L 127.277156 529.834682 
L 127.496709 387.474197 
L 127.716262 383.359495 
L 127.935815 545.292517 
L 128.155369 428.736701 
L 128.594475 505.789449 
L 129.033581 457.417561 
L 129.253134 522.618522 
L 129.692241 375.788611 
L 129.911794 537.924552 
L 130.131347 494.205572 
L 130.3509 503.514494 
L 130.570453 465.854093 
L 130.790006 483.894376 
L 131.00956 472.440039 
L 131.229113 475.602943 
L 131.448666 452.376478 
L 131.668219 506.775712 
L 131.887772 370.928053 
L 132.107325 512.780998 
L 132.326878 380.777176 
L 132.546432 470.095664 
L 132.765985 468.331471 
L 132.985538 375.648566 
L 133.205091 479.873969 
L 133.424644 418.590466 
L 133.644197 437.156175 
L 133.863751 409.364035 
L 134.302857 453.919565 
L 134.52241 440.791746 
L 134.961516 347.255703 
L 135.181069 446.563589 
L 135.400623 403.803567 
L 135.620176 503.833618 
L 135.839729 486.902139 
L 136.059282 496.932904 
L 136.498388 293.170847 
L 136.717941 494.585122 
L 136.937495 384.772671 
L 137.157048 498.862609 
L 137.376601 438.303207 
L 137.596154 428.113331 
L 138.03526 362.230037 
L 138.474367 464.470777 
L 138.69392 412.123125 
L 138.913473 454.327712 
L 139.133026 412.011575 
L 139.352579 301.339613 
L 139.572132 417.855236 
L 139.791686 370.492852 
L 140.230792 486.164191 
L 140.450345 425.089296 
L 140.669898 405.439982 
L 140.889451 479.465835 
L 141.109005 393.397454 
L 141.328558 468.025215 
L 141.548111 400.74272 
L 141.767664 415.647673 
L 141.987217 485.451551 
L 142.20677 497.177721 
L 142.426323 409.206512 
L 142.645877 408.060981 
L 142.86543 421.799287 
L 143.084983 401.033707 
L 143.304536 477.013264 
L 143.524089 510.042096 
L 143.743642 339.343459 
L 143.963196 510.045252 
L 144.182749 361.994834 
L 144.402302 458.379574 
L 144.621855 462.463213 
L 144.841408 475.506356 
L 145.060961 509.619931 
L 145.280514 288.450797 
L 145.500068 416.837926 
L 145.719621 406.127701 
L 145.939174 469.00038 
L 146.158727 487.317548 
L 146.37828 244.949506 
L 146.597833 384.247363 
L 146.817387 348.767622 
L 147.03694 443.809965 
L 147.256493 340.467502 
L 147.476046 497.123975 
L 147.695599 428.396411 
L 147.915152 320.478555 
L 148.134705 517.358717 
L 148.354259 196.898825 
L 148.573812 430.226651 
L 148.793365 422.313874 
L 149.012918 432.337536 
L 149.232471 400.704025 
L 149.452024 391.729924 
L 149.671578 415.595226 
L 149.891131 397.431275 
L 150.110684 441.722331 
L 150.330237 370.078981 
L 150.54979 486.867413 
L 150.769343 321.455858 
L 151.20845 496.269929 
L 151.428003 363.112443 
L 151.647556 486.587149 
L 151.867109 375.398861 
L 152.086662 388.813912 
L 152.306215 394.695371 
L 152.525769 329.142456 
L 152.745322 464.27719 
L 152.964875 402.618506 
L 153.184428 494.879302 
L 153.403981 486.215298 
L 153.623534 400.988844 
L 153.843087 399.756794 
L 154.062641 330.000652 
L 154.282194 399.61524 
L 154.501747 425.12421 
L 154.940853 298.833266 
L 155.37996 422.116734 
L 155.599513 475.040279 
L 155.819066 423.759339 
L 156.038619 281.164748 
L 156.258172 473.290567 
L 156.477725 405.378564 
L 156.697278 460.98557 
L 156.916832 367.363763 
L 157.136385 427.466041 
L 157.355938 445.103312 
L 157.575491 419.735737 
L 157.795044 436.580697 
L 158.014597 571.518891 
L 158.234151 352.523767 
L 158.453704 371.395116 
L 158.673257 477.406187 
L 158.89281 334.842053 
L 159.112363 459.297752 
L 159.331916 418.402873 
L 159.771023 450.783934 
L 159.990576 530.386041 
L 160.210129 508.138381 
L 160.429682 529.313471 
L 160.649235 323.375332 
L 160.868788 448.702366 
L 161.088342 449.16332 
L 161.307895 396.361588 
L 161.527448 492.792884 
L 161.747001 472.282112 
L 161.966554 498.068348 
L 162.186107 433.912638 
L 162.40566 297.232082 
L 162.625214 479.654594 
L 162.844767 439.455002 
L 163.06432 431.780886 
L 163.503426 533.368876 
L 163.722979 410.033136 
L 163.942532 458.00177 
L 164.162086 373.417852 
L 164.381639 339.363999 
L 164.601192 448.724647 
L 165.040298 513.229638 
L 165.259851 367.311529 
L 165.479405 519.247809 
L 165.698958 439.2787 
L 165.918511 299.450416 
L 166.138064 386.288483 
L 166.357617 395.415342 
L 166.57717 421.150436 
L 167.016277 540.527534 
L 167.23583 328.291874 
L 167.455383 473.876176 
L 167.674936 472.875558 
L 167.894489 430.884821 
L 168.114042 440.881845 
L 168.333596 409.698397 
L 168.553149 310.611601 
L 168.772702 335.178448 
L 168.992255 524.858196 
L 169.211808 410.971477 
L 169.431361 478.918885 
L 169.650914 424.496713 
L 169.870468 492.617723 
L 170.090021 291.676544 
L 170.309574 420.190776 
L 170.529127 431.988511 
L 170.74868 437.491311 
L 170.968233 450.438955 
L 171.187787 402.465444 
L 171.40734 438.092393 
L 171.626893 242.510798 
L 172.065999 495.094586 
L 172.285552 274.93342 
L 172.505105 445.400971 
L 172.724659 437.138795 
L 172.944212 519.564153 
L 173.163765 484.647499 
L 173.383318 404.762939 
L 173.602871 451.349127 
L 173.822424 431.575623 
L 174.041978 356.078703 
L 174.261531 492.862382 
L 174.481084 470.36348 
L 174.700637 503.115574 
L 174.92019 350.016509 
L 175.139743 455.864628 
L 175.359296 366.12912 
L 175.57885 377.71021 
L 175.798403 455.686272 
L 176.017956 396.786083 
L 176.237509 463.577004 
L 176.457062 420.33345 
L 176.676615 341.075665 
L 176.896169 430.891671 
L 177.115722 470.978482 
L 177.335275 256.860879 
L 177.554828 466.377577 
L 177.774381 522.524173 
L 177.993934 389.447937 
L 178.213487 435.198965 
L 178.433041 456.460405 
L 178.652594 364.2859 
L 178.872147 320.863273 
L 179.0917 542.831055 
L 179.311253 394.441568 
L 179.530806 406.00067 
L 179.75036 440.709459 
L 180.189466 226.08451 
L 180.409019 251.053312 
L 180.628572 579.099203 
L 180.848125 402.786503 
L 181.067678 364.123841 
L 181.287232 455.726918 
L 181.506785 377.19569 
L 181.726338 527.979725 
L 181.945891 510.46504 
L 182.165444 472.325622 
L 182.384997 453.555311 
L 182.604551 409.608511 
L 182.824104 554.10443 
L 183.043657 446.856486 
L 183.26321 493.326823 
L 183.482763 394.197173 
L 183.702316 464.774533 
L 183.921869 330.299736 
L 184.141423 270.343122 
L 184.800082 463.998069 
L 185.019635 419.504984 
L 185.458742 533.873083 
L 185.678295 477.37687 
L 185.897848 388.198777 
L 186.117401 387.283089 
L 186.336954 453.24104 
L 186.556507 466.762545 
L 186.77606 435.181125 
L 186.995614 364.093432 
L 187.215167 457.394882 
L 187.43472 412.124433 
L 187.654273 486.352514 
L 188.093379 560.018317 
L 188.312932 395.424089 
L 188.532486 384.092403 
L 188.752039 507.247324 
L 188.971592 331.133952 
L 189.191145 397.200985 
L 189.410698 507.804861 
L 189.630251 439.667695 
L 189.849805 519.899675 
L 190.069358 535.234393 
L 190.508464 336.041799 
L 190.728017 362.673711 
L 190.94757 568.509464 
L 191.167123 353.557335 
L 191.825783 477.547563 
L 192.045336 449.464195 
L 192.264889 383.5589 
L 192.484442 354.508579 
L 192.703996 420.023478 
L 192.923549 533.731019 
L 193.143102 546.823419 
L 193.362655 520.13989 
L 193.582208 332.679145 
L 193.801761 437.794502 
L 194.021314 273.369862 
L 194.240868 533.427892 
L 194.460421 467.368822 
L 194.679974 439.314537 
L 194.899527 388.582398 
L 195.11908 430.239137 
L 195.338633 391.880398 
L 195.558187 468.494896 
L 195.77774 489.685441 
L 195.997293 536.638447 
L 196.436399 408.675933 
L 196.655952 488.514799 
L 197.095059 412.643982 
L 197.314612 434.515077 
L 197.534165 444.993144 
L 197.973271 508.411601 
L 198.192824 447.8774 
L 198.412378 481.984556 
L 198.631931 538.650868 
L 199.071037 260.063486 
L 199.29059 338.926401 
L 199.510143 458.678963 
L 199.729696 469.641446 
L 199.94925 467.534376 
L 200.168803 426.520084 
L 200.388356 430.872862 
L 200.607909 400.037879 
L 200.827462 413.49292 
L 201.047015 508.895702 
L 201.266569 427.112355 
L 201.486122 392.346362 
L 201.705675 305.716275 
L 201.925228 463.935086 
L 202.144781 396.981936 
L 202.364334 406.933124 
L 202.583887 385.446375 
L 202.803441 490.000629 
L 203.022994 389.988911 
L 203.242547 416.15068 
L 203.4621 166.423013 
L 203.681653 377.633288 
L 203.901206 457.132911 
L 204.12076 479.979265 
L 204.340313 428.562627 
L 204.559866 505.217674 
L 204.779419 429.114347 
L 204.998972 483.679845 
L 205.218525 476.368487 
L 205.438078 439.521793 
L 205.657632 435.405993 
L 205.877185 297.470717 
L 206.096738 421.569378 
L 206.316291 305.55531 
L 206.535844 323.668159 
L 206.755397 397.362844 
L 206.974951 360.631248 
L 207.414057 486.765044 
L 207.63361 460.888619 
L 207.853163 313.332427 
L 208.072716 368.351097 
L 208.292269 270.239693 
L 208.511823 466.362832 
L 208.731376 280.071323 
L 208.950929 291.238978 
L 209.170482 341.333944 
L 209.390035 436.10428 
L 209.609588 408.809054 
L 209.829142 337.019724 
L 210.048695 412.715267 
L 210.268248 528.624419 
L 210.487801 295.955482 
L 210.707354 410.484702 
L 210.926907 417.98836 
L 211.14646 431.510473 
L 211.366014 457.031415 
L 211.585567 425.929314 
L 211.80512 424.958645 
L 212.024673 363.29051 
L 212.244226 431.156498 
L 212.463779 310.823282 
L 212.683333 433.728359 
L 212.902886 451.84539 
L 213.122439 398.280985 
L 213.341992 439.919802 
L 213.561545 435.221128 
L 213.781098 405.953383 
L 214.000651 440.47992 
L 214.220205 532.784062 
L 214.439758 265.790068 
L 214.659311 489.212905 
L 214.878864 470.03171 
L 215.098417 485.095007 
L 215.31797 433.136232 
L 215.537523 343.568774 
L 215.757077 414.280844 
L 215.97663 406.903258 
L 216.196183 322.520697 
L 216.415736 455.290616 
L 216.635289 360.128198 
L 216.854842 340.319586 
L 217.074396 419.726096 
L 217.293949 421.342511 
L 217.513502 388.132007 
L 217.733055 423.198204 
L 217.952608 538.206289 
L 218.172161 394.555276 
L 218.391714 414.551161 
L 218.611268 506.603854 
L 218.830821 379.308188 
L 219.269927 497.881001 
L 219.48948 419.428333 
L 219.709033 383.521753 
L 219.928587 430.552199 
L 220.14814 399.122574 
L 220.587246 496.095668 
L 220.806799 498.747325 
L 221.245905 404.369596 
L 221.465459 332.466736 
L 221.685012 434.769665 
L 221.904565 448.270533 
L 222.343671 457.487193 
L 222.563224 477.86645 
L 222.782778 380.997423 
L 223.002331 413.805977 
L 223.221884 476.658709 
L 223.441437 447.611635 
L 223.66099 476.665781 
L 223.880543 453.834376 
L 224.100096 525.798288 
L 224.31965 467.195 
L 224.539203 356.160216 
L 224.758756 521.739411 
L 224.978309 393.372638 
L 225.197862 461.73259 
L 225.636969 511.678126 
L 225.856522 437.635597 
L 226.076075 497.570289 
L 226.295628 363.931116 
L 226.515181 442.930631 
L 226.734734 387.669561 
L 227.173841 486.303818 
L 227.393394 371.692503 
L 227.612947 353.484109 
L 228.052053 523.107746 
L 228.271606 534.623715 
L 228.49116 434.434725 
L 228.710713 426.185227 
L 228.930266 287.950404 
L 229.149819 492.640255 
L 229.369372 415.12503 
L 229.588925 453.742966 
L 229.808478 450.846483 
L 230.028032 479.267644 
L 230.247585 388.211909 
L 230.467138 433.220394 
L 230.686691 443.874689 
L 230.906244 494.114824 
L 231.125797 506.996338 
L 231.345351 450.505557 
L 231.564904 519.202423 
L 231.784457 244.221544 
L 232.00401 367.8623 
L 232.223563 399.957306 
L 232.443116 510.86531 
L 232.662669 544.777887 
L 232.882223 484.963704 
L 233.101776 513.662441 
L 233.321329 417.911619 
L 233.540882 383.887508 
L 234.199542 476.269967 
L 234.419095 458.954133 
L 234.858201 344.235765 
L 235.077754 454.944901 
L 235.297307 479.267076 
L 235.51686 448.931407 
L 235.736414 461.776117 
L 235.955967 337.023901 
L 236.17552 410.639829 
L 236.395073 412.223003 
L 236.614626 422.676257 
L 236.834179 401.590338 
L 237.053733 355.565926 
L 237.273286 472.837681 
L 237.492839 198.346765 
L 237.712392 494.173453 
L 237.931945 450.884733 
L 238.151498 311.391612 
L 238.371051 358.906118 
L 238.590605 547.108259 
L 238.810158 388.142877 
L 239.029711 488.592424 
L 239.249264 466.848248 
L 239.468817 315.484075 
L 239.68837 435.778136 
L 239.907924 379.543405 
L 240.34703 352.331397 
L 240.566583 442.845759 
L 240.786136 465.32752 
L 241.005689 354.480646 
L 241.225242 360.968555 
L 241.444796 256.728525 
L 241.664349 489.893732 
L 241.883902 359.135589 
L 242.103455 319.332535 
L 242.323008 433.070221 
L 242.542561 443.882402 
L 242.762114 375.516269 
L 242.981668 494.937727 
L 243.201221 434.666467 
L 243.420774 526.411652 
L 243.640327 405.284215 
L 243.85988 422.546391 
L 244.079433 377.392366 
L 244.298987 525.929555 
L 244.51854 459.062025 
L 244.738093 472.480204 
L 244.957646 424.864963 
L 245.177199 280.797477 
L 245.396752 495.441395 
L 245.616305 432.561306 
L 245.835859 474.320093 
L 246.055412 320.6059 
L 246.274965 503.464838 
L 246.494518 481.630775 
L 246.714071 507.129477 
L 246.933624 496.688794 
L 247.372731 350.388842 
L 247.592284 369.066913 
L 247.811837 523.521052 
L 248.470496 340.401332 
L 248.69005 345.93569 
L 248.909603 403.423529 
L 249.129156 357.98919 
L 249.568262 497.833446 
L 249.787815 461.83909 
L 250.226922 230.739774 
L 250.666028 456.942097 
L 250.885581 468.307676 
L 251.105134 498.83765 
L 251.544241 346.798915 
L 251.763794 502.255167 
L 251.983347 501.021797 
L 252.2029 228.791056 
L 252.642006 492.876395 
L 252.86156 413.832484 
L 253.081113 459.315433 
L 253.300666 368.555299 
L 253.520219 493.255548 
L 253.739772 229.031704 
L 253.959325 446.176221 
L 254.178878 490.835386 
L 254.398432 446.262942 
L 254.617985 510.537581 
L 254.837538 436.607826 
L 255.057091 483.128953 
L 255.276644 474.138149 
L 255.496197 279.759227 
L 255.715751 420.095972 
L 255.935304 412.930569 
L 256.154857 513.033596 
L 256.37441 386.738072 
L 256.593963 411.051895 
L 256.813516 459.116831 
L 257.033069 436.574617 
L 257.252623 456.687268 
L 257.472176 411.671539 
L 257.911282 245.842158 
L 258.130835 459.860673 
L 258.350388 311.432986 
L 258.569942 429.097194 
L 258.789495 346.402808 
L 259.009048 459.70069 
L 259.228601 388.611518 
L 259.448154 412.340598 
L 259.667707 184.64266 
L 259.88726 361.972837 
L 260.106814 388.929194 
L 260.54592 359.266527 
L 260.765473 356.555496 
L 260.985026 481.989128 
L 261.204579 395.123053 
L 261.424133 377.182151 
L 261.643686 538.811061 
L 262.082792 380.703099 
L 262.302345 428.176548 
L 262.521898 304.885032 
L 262.741451 346.885462 
L 262.961005 438.097682 
L 263.180558 362.571357 
L 263.400111 357.763387 
L 263.619664 457.930295 
L 263.839217 286.1928 
L 264.05877 487.732575 
L 264.278324 476.708929 
L 264.497877 478.368143 
L 264.71743 497.835096 
L 264.936983 237.486576 
L 265.156536 417.787047 
L 265.376089 471.587859 
L 265.595642 406.665967 
L 265.815196 475.354598 
L 266.034749 395.535752 
L 266.254302 449.883962 
L 266.473855 282.400437 
L 266.693408 489.1397 
L 266.912961 459.712888 
L 267.132514 409.721603 
L 267.352068 545.731203 
L 267.571621 419.935105 
L 267.791174 470.056227 
L 268.010727 490.748758 
L 268.23028 529.869437 
L 268.449833 490.904241 
L 268.669387 508.352092 
L 268.88894 352.887721 
L 269.108493 419.413935 
L 269.328046 445.465778 
L 269.547599 489.437677 
L 269.767152 457.04664 
L 269.986705 282.26626 
L 270.206259 447.023536 
L 270.645365 462.604208 
L 271.084471 422.2618 
L 271.304024 431.260252 
L 271.523578 418.134949 
L 271.743131 515.503761 
L 271.962684 425.666859 
L 272.182237 472.219576 
L 272.40179 365.590941 
L 272.621343 370.713712 
L 272.840896 358.646815 
L 273.06045 468.02221 
L 273.280003 354.784415 
L 273.499556 533.122363 
L 273.719109 313.034826 
L 273.938662 471.98003 
L 274.158215 404.746828 
L 274.377769 269.799524 
L 274.597322 327.292126 
L 274.816875 516.102935 
L 275.036428 462.895066 
L 275.255981 554.674976 
L 275.475534 373.473587 
L 275.695087 353.333219 
L 275.914641 478.348434 
L 276.134194 529.762604 
L 276.353747 412.927266 
L 276.5733 408.207731 
L 276.792853 467.811629 
L 277.012406 418.231016 
L 277.23196 406.930857 
L 277.671066 529.13061 
L 277.890619 383.84959 
L 278.110172 535.820098 
L 278.329725 423.222867 
L 278.549278 471.960586 
L 278.768832 394.26574 
L 278.988385 539.953032 
L 279.207938 443.952431 
L 279.427491 484.068085 
L 279.647044 461.139736 
L 279.866597 414.160252 
L 280.086151 415.450655 
L 280.305704 336.784489 
L 280.525257 334.30432 
L 280.74481 447.031219 
L 280.964363 272.512708 
L 281.183916 409.202267 
L 281.403469 376.15411 
L 281.623023 324.389263 
L 281.842576 511.013489 
L 282.062129 529.260277 
L 282.281682 394.885882 
L 282.501235 432.536565 
L 282.720788 336.597661 
L 282.940342 426.484899 
L 283.159895 452.777727 
L 283.379448 455.114328 
L 283.599001 384.599773 
L 283.818554 555.500843 
L 284.038107 457.714867 
L 284.25766 521.214932 
L 284.477214 481.458674 
L 284.696767 259.894838 
L 284.91632 348.059775 
L 285.135873 351.907226 
L 285.355426 494.146695 
L 285.574979 497.380844 
L 286.014086 396.014832 
L 286.233639 501.21481 
L 286.453192 504.095647 
L 286.672745 515.71616 
L 286.892298 441.926062 
L 287.111851 317.607502 
L 287.331405 497.551783 
L 287.550958 336.828807 
L 287.770511 329.411303 
L 287.990064 505.982515 
L 288.209617 363.878749 
L 288.42917 502.444415 
L 288.648724 370.500433 
L 289.08783 516.946497 
L 289.307383 539.394656 
L 289.526936 466.302215 
L 289.746489 446.236462 
L 289.966042 513.524978 
L 290.185596 432.535758 
L 290.624702 477.655416 
L 291.063808 419.267221 
L 291.502915 317.27879 
L 291.722468 414.708886 
L 291.942021 429.819356 
L 292.161574 576.601192 
L 292.381127 379.789735 
L 292.60068 416.520054 
L 292.820233 408.041792 
L 293.039787 443.980079 
L 293.25934 429.691129 
L 293.478893 450.705139 
L 293.698446 433.902897 
L 293.917999 462.067876 
L 294.137552 427.929335 
L 294.357105 491.023376 
L 294.576659 504.785972 
L 294.796212 316.764451 
L 295.235318 497.431984 
L 295.454871 410.058273 
L 295.674424 412.295379 
L 295.893978 403.979387 
L 296.113531 411.717533 
L 296.333084 356.939608 
L 296.77219 491.874887 
L 296.991743 490.935744 
L 297.211296 429.561511 
L 297.43085 464.961596 
L 297.650403 364.040717 
L 297.869956 402.038394 
L 298.089509 481.008796 
L 298.309062 476.742988 
L 298.528615 378.256018 
L 298.748169 426.049661 
L 298.967722 443.967971 
L 299.187275 412.859215 
L 299.406828 398.757033 
L 299.626381 366.954201 
L 299.845934 427.401362 
L 300.065487 563.32613 
L 300.285041 450.5983 
L 300.504594 520.991602 
L 300.724147 319.152905 
L 300.9437 380.902093 
L 301.163253 523.823816 
L 301.382806 463.396412 
L 301.821913 293.29678 
L 302.041466 443.144435 
L 302.261019 338.048486 
L 302.480572 471.099574 
L 302.700125 414.305741 
L 302.919678 434.919595 
L 303.139232 387.814868 
L 303.358785 531.270604 
L 303.578338 305.369869 
L 303.797891 369.201743 
L 304.017444 388.121639 
L 304.236997 305.488224 
L 304.456551 478.389486 
L 304.676104 449.317952 
L 304.895657 299.883433 
L 305.11521 280.005046 
L 305.554316 483.171674 
L 305.773869 360.970251 
L 306.432529 468.216348 
L 306.652082 343.533003 
L 306.871635 513.139526 
L 307.091188 477.510941 
L 307.310742 466.525181 
L 307.530295 521.77272 
L 307.749848 504.706128 
L 308.188954 452.885883 
L 308.408507 348.881487 
L 308.62806 515.732476 
L 308.847614 512.401148 
L 309.067167 361.230743 
L 309.28672 497.850697 
L 309.506273 131.956182 
L 309.725826 438.93375 
L 309.945379 422.827687 
L 310.384486 305.40445 
L 310.604039 490.389449 
L 310.823592 387.180206 
L 311.262698 514.358694 
L 311.482251 405.204572 
L 311.701805 375.857936 
L 311.921358 404.566549 
L 312.140911 488.684729 
L 312.360464 434.279355 
L 312.580017 473.887946 
L 312.79957 226.776337 
L 313.019124 414.488343 
L 313.238677 490.446858 
L 313.45823 431.233664 
L 313.677783 438.698737 
L 313.897336 319.906766 
L 314.116889 463.104281 
L 314.336442 414.21568 
L 314.555996 527.330727 
L 314.995102 375.280842 
L 315.214655 499.743949 
L 315.434208 374.403385 
L 315.653761 541.811134 
L 315.873315 391.862955 
L 316.092868 507.448952 
L 316.312421 280.960757 
L 316.531974 428.623889 
L 316.751527 325.514689 
L 316.97108 415.694961 
L 317.190633 420.465642 
L 317.410187 344.917509 
L 317.62974 474.14122 
L 317.849293 353.300005 
L 318.068846 443.825238 
L 318.288399 481.148162 
L 318.507952 465.949815 
L 318.727506 544.86447 
L 318.947059 469.540951 
L 319.166612 467.453098 
L 319.605718 391.666379 
L 319.825271 473.540072 
L 320.044824 354.521685 
L 320.264378 396.385925 
L 320.703484 571.426025 
L 320.923037 465.626667 
L 321.362143 396.13224 
L 321.581696 554.797987 
L 321.80125 444.864267 
L 322.020803 417.994702 
L 322.240356 480.923564 
L 322.459909 358.406994 
L 322.899015 520.950302 
L 323.338122 424.890875 
L 323.557675 525.041574 
L 323.996781 142.98553 
L 324.216334 486.409726 
L 324.435887 367.670067 
L 324.655441 466.094107 
L 324.874994 474.63638 
L 325.094547 380.407832 
L 325.3141 390.179186 
L 325.533653 438.091327 
L 325.753206 418.937485 
L 325.97276 370.403042 
L 326.192313 454.355435 
L 326.411866 383.856101 
L 326.850972 441.79585 
L 327.070525 375.883597 
L 327.290078 480.863243 
L 327.509632 505.180104 
L 327.729185 251.238811 
L 327.948738 461.374678 
L 328.168291 492.764594 
L 328.387844 382.545174 
L 328.607397 530.595006 
L 328.826951 419.404134 
L 329.046504 378.945809 
L 329.266057 536.274969 
L 329.48561 417.567721 
L 329.705163 424.789591 
L 329.924716 317.020631 
L 330.144269 511.653611 
L 330.363823 473.046945 
L 330.802929 381.590009 
L 331.022482 238.306128 
L 331.242035 447.138953 
L 331.461588 342.451329 
L 331.681142 520.900607 
L 332.120248 355.434965 
L 332.339801 382.572371 
L 332.559354 486.221429 
L 332.778907 473.005728 
L 332.99846 401.906664 
L 333.218014 488.403383 
L 333.437567 314.264501 
L 333.65712 434.213874 
L 333.876673 486.787915 
L 334.096226 438.796208 
L 334.315779 495.756322 
L 334.535333 345.613151 
L 334.974439 519.976945 
L 335.193992 417.235733 
L 335.413545 395.098534 
L 335.633098 470.269831 
L 335.852651 450.395211 
L 336.072205 506.621721 
L 336.291758 489.713173 
L 336.511311 510.132404 
L 336.730864 334.489082 
L 336.950417 365.830833 
L 337.16997 293.463477 
L 337.389524 487.530551 
L 337.609077 449.028805 
L 337.82863 501.929586 
L 338.048183 505.827106 
L 338.267736 378.363303 
L 338.487289 441.292057 
L 338.706842 463.120834 
L 338.926396 437.453167 
L 339.145949 498.297701 
L 339.365502 494.335594 
L 339.585055 314.683674 
L 339.804608 470.041747 
L 340.024161 454.596302 
L 340.243715 411.128864 
L 340.682821 425.888812 
L 340.902374 397.432187 
L 341.121927 450.060707 
L 341.34148 463.915527 
L 341.561033 201.359749 
L 341.780587 336.986277 
L 342.439246 462.951434 
L 342.658799 267.327623 
L 342.878352 449.073626 
L 343.097906 418.035799 
L 343.317459 429.680621 
L 343.537012 267.260261 
L 343.976118 489.897498 
L 344.195671 476.434505 
L 344.415224 351.200742 
L 344.634778 465.230982 
L 344.854331 419.687086 
L 345.073884 312.101866 
L 345.51299 407.489963 
L 345.732543 425.019374 
L 345.952096 380.013718 
L 346.17165 436.649459 
L 346.391203 456.995385 
L 346.610756 436.255087 
L 347.049862 347.167828 
L 347.269415 434.965468 
L 347.488969 438.306896 
L 347.708522 372.246808 
L 347.928075 473.197712 
L 348.147628 508.03392 
L 348.367181 189.455818 
L 348.586734 438.295649 
L 348.806287 500.258328 
L 349.025841 471.575661 
L 349.245394 416.39487 
L 349.464947 438.036486 
L 349.6845 476.294716 
L 349.904053 484.836426 
L 350.123606 318.768728 
L 350.562713 377.177095 
L 350.782266 365.444456 
L 351.001819 518.123116 
L 351.221372 542.124231 
L 351.440925 484.306894 
L 351.880032 289.965019 
L 352.099585 413.778427 
L 352.319138 445.858107 
L 352.538691 452.975305 
L 352.758244 284.054281 
L 352.977797 453.273252 
L 353.197351 488.81726 
L 353.416904 422.258848 
L 353.636457 509.934183 
L 353.85601 495.999626 
L 354.075563 290.963765 
L 354.295116 407.200084 
L 354.514669 439.372659 
L 354.734223 413.365939 
L 354.953776 414.26036 
L 355.173329 467.739028 
L 355.392882 358.733039 
L 355.612435 450.390797 
L 355.831988 428.84217 
L 356.051542 534.938787 
L 356.490648 400.904505 
L 356.710201 409.034199 
L 356.929754 456.868917 
L 357.149307 410.625879 
L 357.36886 175.29751 
L 357.807967 519.645627 
L 358.02752 453.056397 
L 358.247073 489.381345 
L 358.466626 316.48557 
L 358.686179 320.846135 
L 358.905733 355.163519 
L 359.125286 412.330184 
L 359.564392 445.715709 
L 359.783945 327.37273 
L 360.442605 496.447585 
L 360.662158 408.696376 
L 360.881711 452.267211 
L 361.101264 347.16872 
L 361.320817 497.943887 
L 361.54037 410.832383 
L 361.759924 471.472234 
L 361.979477 359.374415 
L 362.19903 443.743555 
L 362.418583 394.147926 
L 362.638136 511.604378 
L 362.857689 365.966677 
L 363.296796 471.047408 
L 363.516349 413.758242 
L 363.735902 500.931036 
L 363.955455 486.905228 
L 364.175008 484.227277 
L 364.394561 295.965412 
L 364.833668 525.868861 
L 365.053221 436.440794 
L 365.272774 446.989178 
L 365.492327 399.28695 
L 365.71188 429.827521 
L 365.931433 409.79892 
L 366.150987 490.330709 
L 366.37054 370.208711 
L 366.590093 460.540194 
L 366.809646 355.865221 
L 367.029199 470.295523 
L 367.248752 364.333745 
L 367.468306 437.694878 
L 367.687859 337.373469 
L 367.907412 383.609072 
L 368.126965 559.890972 
L 368.346518 484.205367 
L 368.566071 306.143684 
L 368.785624 508.874642 
L 369.005178 521.496312 
L 369.224731 292.970679 
L 369.444284 428.603702 
L 369.663837 415.526878 
L 369.88339 242.412066 
L 370.322497 544.037543 
L 370.54205 437.989812 
L 370.761603 486.364943 
L 370.981156 316.307166 
L 371.200709 437.370988 
L 371.420262 449.055379 
L 371.639815 195.240363 
L 371.859369 506.446048 
L 372.078922 412.137633 
L 372.298475 439.257205 
L 372.737581 357.805564 
L 372.957134 443.856786 
L 373.176687 428.675701 
L 373.615794 483.412159 
L 373.835347 565.067977 
L 374.0549 399.313098 
L 374.494006 461.751058 
L 374.71356 472.803587 
L 374.933113 457.744482 
L 375.152666 479.844966 
L 375.372219 471.899107 
L 375.591772 349.862718 
L 375.811325 323.949081 
L 376.030878 545.950753 
L 376.250432 408.785837 
L 376.469985 469.520967 
L 376.689538 398.533502 
L 376.909091 430.537291 
L 377.128644 495.48841 
L 377.348197 322.020534 
L 377.567751 448.776373 
L 377.787304 381.087886 
L 378.22641 560.890435 
L 378.445963 338.932957 
L 378.665516 436.05015 
L 379.104623 486.351833 
L 379.324176 482.436588 
L 379.543729 461.31298 
L 379.763282 394.430691 
L 379.982835 374.183506 
L 380.202388 333.377358 
L 380.421942 481.910565 
L 380.861048 500.03395 
L 381.080601 532.34397 
L 381.519707 285.15995 
L 381.73926 341.324128 
L 382.178367 499.726553 
L 382.39792 410.437564 
L 382.837026 451.903303 
L 383.056579 513.776353 
L 383.276133 414.736751 
L 383.495686 414.06294 
L 383.715239 414.108282 
L 383.934792 323.796992 
L 384.154345 292.087243 
L 384.373898 519.798763 
L 384.593451 393.333802 
L 384.813005 492.214117 
L 385.032558 357.322769 
L 385.252111 466.258454 
L 385.471664 348.044049 
L 385.691217 509.841131 
L 385.91077 241.823055 
L 386.349877 380.417485 
L 386.788983 283.259174 
L 387.228089 459.25005 
L 387.667196 381.833509 
L 387.886749 500.499682 
L 388.106302 403.471004 
L 388.325855 514.695131 
L 388.764961 447.312493 
L 388.984515 522.002807 
L 389.204068 454.273704 
L 389.423621 451.514267 
L 389.643174 478.320215 
L 389.862727 420.870039 
L 390.08228 463.281736 
L 390.301833 302.730631 
L 390.521387 447.85894 
L 390.74094 451.561706 
L 390.960493 409.281264 
L 391.180046 496.719011 
L 391.399599 464.582231 
L 391.619152 368.238258 
L 391.838706 457.513236 
L 392.058259 451.536184 
L 392.277812 396.552946 
L 392.716918 538.957102 
L 392.936471 364.926895 
L 393.156024 365.310684 
L 393.595131 456.66831 
L 393.814684 367.361455 
L 394.034237 411.490091 
L 394.25379 529.480622 
L 394.473343 358.935738 
L 394.692897 459.485376 
L 394.91245 457.377182 
L 395.132003 498.422375 
L 395.571109 400.847312 
L 395.790662 427.456542 
L 396.010215 365.583207 
L 396.449322 505.834772 
L 396.668875 487.561275 
L 396.888428 372.150835 
L 397.107981 419.338697 
L 397.327534 315.286395 
L 397.547087 490.561179 
L 397.766641 486.981033 
L 397.986194 444.436369 
L 398.4253 277.984062 
L 398.644853 438.607401 
L 398.864406 426.582971 
L 399.08396 396.737312 
L 399.303513 472.719622 
L 399.523066 487.055788 
L 399.742619 446.374595 
L 399.962172 453.074381 
L 400.181725 438.255581 
L 400.401278 385.222782 
L 400.840385 448.211593 
L 401.059938 412.502604 
L 401.279491 414.04472 
L 401.499044 488.350753 
L 401.718597 473.567895 
L 401.938151 474.098378 
L 402.157704 526.775016 
L 402.59681 417.756991 
L 402.816363 511.214984 
L 403.255469 417.438769 
L 403.475023 485.169862 
L 403.694576 485.764232 
L 403.914129 543.501979 
L 404.133682 405.631949 
L 404.572788 470.18916 
L 404.792342 299.952402 
L 405.231448 581.38839 
L 405.451001 405.524621 
L 405.670554 434.840925 
L 405.890107 326.609088 
L 406.10966 448.842388 
L 406.329214 499.211308 
L 406.548767 359.67343 
L 406.76832 408.472176 
L 406.987873 240.308678 
L 407.207426 205.719387 
L 407.426979 416.844468 
L 407.646533 511.332773 
L 407.866086 475.668981 
L 408.085639 417.260201 
L 408.305192 436.380713 
L 408.524745 368.466062 
L 408.963851 413.475639 
L 409.183405 493.457853 
L 409.402958 407.111483 
L 409.622511 514.34823 
L 409.842064 429.130943 
L 410.061617 396.209235 
L 410.28117 491.560118 
L 410.720277 434.170127 
L 410.93983 419.219619 
L 411.159383 353.217667 
L 411.378936 347.895981 
L 411.598489 445.024872 
L 411.818042 368.104381 
L 412.037596 390.262405 
L 412.257149 465.561879 
L 412.696255 261.987558 
L 413.354915 492.735696 
L 413.794021 461.122852 
L 414.013574 402.740846 
L 414.233127 458.690982 
L 414.45268 300.669683 
L 414.891787 485.893874 
L 415.11134 439.187712 
L 415.550446 508.330815 
L 415.989552 445.369997 
L 416.209106 453.808533 
L 416.428659 400.499921 
L 416.648212 487.519804 
L 416.867765 366.262757 
L 417.087318 469.808715 
L 417.306871 398.947936 
L 417.526424 497.241147 
L 417.745978 413.819502 
L 418.185084 514.046442 
L 418.62419 443.243847 
L 418.843743 435.668149 
L 419.063297 436.875025 
L 419.28285 510.824497 
L 419.502403 303.66429 
L 419.721956 314.871129 
L 419.941509 433.463712 
L 420.380615 404.726956 
L 420.600169 528.77941 
L 421.039275 257.502078 
L 421.258828 429.904783 
L 421.478381 356.151553 
L 421.917488 454.596879 
L 422.137041 274.200462 
L 422.576147 467.650359 
L 422.7957 520.671512 
L 423.015253 455.658528 
L 423.234806 531.134574 
L 423.45436 441.027109 
L 423.673913 432.01458 
L 423.893466 440.11998 
L 424.113019 419.630462 
L 424.332572 509.517208 
L 424.552125 199.793663 
L 424.771678 528.211479 
L 424.991232 465.488983 
L 425.210785 334.733419 
L 425.430338 395.009054 
L 425.649891 522.927369 
L 425.869444 408.743167 
L 426.088997 407.218036 
L 426.308551 373.117222 
L 426.528104 231.557457 
L 426.747657 212.250311 
L 426.96721 387.560939 
L 427.186763 368.08984 
L 427.406316 437.721685 
L 427.625869 403.354445 
L 427.845423 450.490076 
L 428.064976 419.101399 
L 428.284529 478.939639 
L 428.504082 440.539665 
L 428.723635 378.567585 
L 428.943188 444.354333 
L 429.162742 405.803215 
L 429.382295 419.49744 
L 429.601848 516.96569 
L 429.821401 492.371867 
L 430.040954 340.705659 
L 430.260507 425.318394 
L 430.48006 266.298002 
L 430.919167 504.131713 
L 431.358273 432.761407 
L 431.577826 448.362509 
L 431.797379 299.332704 
L 432.016933 399.346095 
L 432.236486 403.737739 
L 432.456039 300.879896 
L 432.675592 380.307456 
L 432.895145 384.151499 
L 433.114698 500.387075 
L 433.334251 403.916605 
L 433.553805 501.593878 
L 433.773358 441.906642 
L 433.992911 328.791804 
L 434.212464 492.318466 
L 434.65157 347.951076 
L 434.871124 417.070556 
L 435.090677 432.537713 
L 435.31023 335.614166 
L 435.529783 456.616528 
L 435.749336 433.380954 
L 435.968889 507.278163 
L 436.188442 521.542096 
L 436.407996 429.129982 
L 436.847102 375.904603 
L 437.066655 523.900626 
L 437.286208 287.079968 
L 437.505761 435.957352 
L 437.725315 355.139186 
L 437.944868 445.875801 
L 438.164421 291.947206 
L 438.383974 381.184153 
L 438.603527 414.127969 
L 438.82308 422.933357 
L 439.042633 473.599111 
L 439.262187 492.125174 
L 439.48174 341.044739 
L 439.701293 434.22922 
L 439.920846 394.444391 
L 440.140399 436.700927 
L 440.359952 434.98513 
L 440.579506 483.400327 
L 440.799059 479.531972 
L 441.018612 330.738916 
L 441.457718 457.001155 
L 441.677271 453.750653 
L 442.116378 369.659784 
L 442.335931 300.579369 
L 442.555484 444.970359 
L 442.775037 411.284152 
L 442.99459 438.76721 
L 443.214143 289.018635 
L 443.433697 368.370881 
L 443.65325 371.185532 
L 443.872803 530.360567 
L 444.092356 515.307075 
L 444.311909 490.224515 
L 444.531462 533.400636 
L 444.751015 431.685554 
L 444.970569 424.160726 
L 445.190122 392.134584 
L 445.409675 482.733618 
L 445.629228 519.775322 
L 445.848781 411.635556 
L 446.068334 373.024453 
L 446.287888 502.542958 
L 446.726994 327.236943 
L 446.946547 475.570795 
L 447.1661 442.910643 
L 447.385653 387.273782 
L 447.605206 381.642621 
L 447.82476 361.662853 
L 448.044313 537.594479 
L 448.263866 311.297471 
L 448.483419 442.363788 
L 448.702972 369.181089 
L 448.922525 478.943198 
L 449.142079 276.576992 
L 449.361632 402.528095 
L 449.800738 393.805289 
L 450.020291 465.153668 
L 450.239844 332.402138 
L 450.459397 463.052327 
L 450.678951 466.074333 
L 450.898504 526.537059 
L 451.33761 346.784254 
L 451.557163 361.314171 
L 451.776716 347.935925 
L 451.996269 449.538764 
L 452.215823 453.46867 
L 452.435376 300.050973 
L 452.654929 499.541265 
L 452.874482 545.791662 
L 453.094035 343.894028 
L 453.533142 528.556024 
L 453.752695 285.897032 
L 453.972248 404.735542 
L 454.191801 400.540805 
L 454.411354 296.169151 
L 454.630907 508.310749 
L 454.85046 339.057472 
L 455.070014 437.863462 
L 455.289567 416.541699 
L 455.50912 546.258398 
L 455.728673 345.046399 
L 455.948226 376.155699 
L 456.387333 517.397719 
L 456.606886 415.474238 
L 456.826439 380.864965 
L 457.045992 529.237177 
L 457.265545 425.569921 
L 457.485098 464.680235 
L 457.704651 466.318481 
L 457.924205 285.914079 
L 458.143758 405.767544 
L 458.363311 458.933875 
L 458.582864 480.716075 
L 458.802417 458.144326 
L 459.02197 478.069372 
L 459.241524 481.163594 
L 459.461077 350.869947 
L 459.68063 351.73007 
L 459.900183 294.811864 
L 460.119736 440.489741 
L 460.339289 416.262656 
L 460.558842 327.76403 
L 460.778396 447.045714 
L 460.997949 288.316273 
L 461.217502 418.752741 
L 461.437055 422.202624 
L 461.656608 459.161615 
L 461.876161 355.792263 
L 462.095715 461.563907 
L 462.315268 507.947649 
L 462.534821 276.304863 
L 462.754374 422.982624 
L 462.973927 385.100697 
L 463.19348 412.494975 
L 463.413033 499.20771 
L 463.632587 341.603223 
L 463.85214 452.601746 
L 464.071693 435.331725 
L 464.291246 447.659803 
L 464.510799 337.955091 
L 464.730352 306.576106 
L 464.949906 408.558478 
L 465.169459 359.407051 
L 465.389012 417.506968 
L 465.608565 516.025098 
L 465.828118 448.566629 
L 466.047671 437.942049 
L 466.267224 465.375368 
L 466.486778 321.593815 
L 466.925884 494.794245 
L 467.145437 539.624561 
L 467.36499 365.399234 
L 467.584543 384.769567 
L 467.804097 485.402259 
L 468.243203 458.7176 
L 468.462756 431.777046 
L 468.682309 458.174099 
L 468.901862 429.349873 
L 469.121415 427.390943 
L 469.560522 347.755944 
L 469.780075 422.140351 
L 469.999628 372.572717 
L 470.219181 219.075438 
L 470.438734 439.625919 
L 470.658288 538.946592 
L 470.877841 524.190067 
L 471.097394 551.673992 
L 471.316947 345.2521 
L 471.5365 275.811467 
L 471.756053 540.301846 
L 471.975606 511.913863 
L 472.19516 437.440567 
L 472.414713 409.723728 
L 472.634266 412.310588 
L 472.853819 344.558475 
L 473.073372 377.63555 
L 473.292925 362.384263 
L 473.512479 371.417541 
L 473.732032 507.287217 
L 473.951585 495.706484 
L 474.171138 427.445308 
L 474.390691 249.521719 
L 474.610244 515.890039 
L 474.829797 364.247745 
L 475.049351 439.256911 
L 475.268904 408.633374 
L 475.488457 530.50484 
L 475.927563 443.506807 
L 476.147116 478.934374 
L 476.366669 399.509052 
L 476.586223 547.168855 
L 476.805776 515.420749 
L 477.244882 267.510324 
L 477.464435 515.726467 
L 477.903542 462.87589 
L 478.123095 525.337964 
L 478.342648 499.179257 
L 478.781754 348.393708 
L 479.001307 376.772113 
L 479.22086 510.202835 
L 479.440414 448.949278 
L 479.659967 517.104027 
L 479.87952 428.595849 
L 480.099073 509.439198 
L 480.318626 450.198832 
L 480.538179 456.4794 
L 480.757733 439.925191 
L 480.977286 537.962476 
L 481.196839 513.02494 
L 481.416392 359.871488 
L 481.635945 457.016302 
L 481.855498 501.742111 
L 482.075051 455.422203 
L 482.294605 483.632645 
L 482.514158 439.069365 
L 482.953264 525.344866 
L 483.172817 497.035464 
L 483.611924 297.112579 
L 484.05103 522.007064 
L 484.270583 376.704453 
L 484.490136 422.142652 
L 484.709689 385.117578 
L 484.929242 482.598135 
L 485.148796 434.066926 
L 485.368349 308.152926 
L 485.807455 511.589779 
L 486.027008 256.605162 
L 486.466115 539.909403 
L 486.685668 308.76494 
L 486.905221 355.045172 
L 487.124774 504.920172 
L 487.344327 503.778488 
L 487.783433 389.671847 
L 488.002987 285.502664 
L 488.22254 423.11195 
L 488.442093 430.177621 
L 488.661646 519.276161 
L 488.881199 457.14359 
L 489.100752 503.923745 
L 489.320306 387.581329 
L 489.539859 476.201486 
L 489.759412 489.323719 
L 489.978965 334.455864 
L 490.637624 522.77441 
L 490.857178 499.596685 
L 491.076731 375.144486 
L 491.296284 451.749029 
L 491.73539 534.427047 
L 491.954943 513.41353 
L 492.174497 330.825871 
L 492.39405 489.970618 
L 492.613603 460.578749 
L 492.833156 455.622824 
L 493.052709 446.233185 
L 493.491815 506.076645 
L 493.930922 325.093306 
L 494.150475 281.689509 
L 494.589581 506.074313 
L 494.809134 205.597893 
L 495.028688 262.877407 
L 495.248241 457.970122 
L 495.467794 472.720381 
L 495.687347 461.710221 
L 495.9069 521.878963 
L 496.126453 319.423692 
L 496.346006 461.275875 
L 496.56556 395.40704 
L 496.785113 477.00772 
L 497.004666 480.724493 
L 497.224219 362.912733 
L 497.443772 458.303959 
L 497.663325 412.726835 
L 497.882879 496.153225 
L 498.102432 223.863065 
L 498.321985 513.154207 
L 498.761091 315.677496 
L 498.980644 460.129433 
L 499.200197 311.871068 
L 499.419751 403.793418 
L 499.639304 404.987591 
L 499.858857 505.246793 
L 500.07841 540.411961 
L 500.517516 375.422681 
L 500.73707 373.353285 
L 500.956623 387.956431 
L 501.176176 371.708125 
L 501.834835 439.220999 
L 502.054388 481.710659 
L 502.273942 489.276406 
L 502.493495 434.333694 
L 502.932601 437.32621 
L 503.371707 326.302355 
L 503.59126 484.25271 
L 503.810814 452.014033 
L 504.030367 485.917142 
L 504.24992 408.221764 
L 504.469473 474.871318 
L 504.689026 479.969825 
L 504.908579 517.294669 
L 505.128133 499.344823 
L 505.347686 381.439171 
L 505.567239 483.279365 
L 505.786792 445.740264 
L 506.006345 472.495871 
L 506.225898 357.862536 
L 506.445451 469.000267 
L 506.665005 437.45162 
L 506.884558 464.323315 
L 507.104111 526.307761 
L 507.323664 345.887261 
L 507.543217 392.350056 
L 507.76277 406.666054 
L 507.982324 466.87104 
L 508.201877 431.682043 
L 508.42143 439.047461 
L 508.640983 301.967331 
L 509.080089 508.809312 
L 509.299642 445.594724 
L 509.519196 515.358505 
L 509.738749 457.805327 
L 509.958302 450.961351 
L 510.177855 436.589751 
L 510.397408 455.764816 
L 510.616961 553.930395 
L 510.836515 324.030791 
L 511.056068 401.572724 
L 511.275621 432.739488 
L 511.495174 411.496959 
L 511.714727 430.597066 
L 511.93428 316.690135 
L 512.153833 494.048107 
L 512.59294 286.730539 
L 512.812493 469.997617 
L 513.032046 411.816374 
L 513.251599 420.165439 
L 513.471152 540.217425 
L 513.690706 219.700913 
L 514.129812 359.98802 
L 514.568918 419.419522 
L 514.788471 504.728516 
L 515.008024 368.373415 
L 515.227578 499.516216 
L 515.447131 458.565105 
L 515.666684 507.352354 
L 515.886237 358.505495 
L 516.10579 485.631613 
L 516.325343 510.80682 
L 516.544897 418.208828 
L 516.76445 512.995651 
L 516.984003 419.140366 
L 517.203556 445.97997 
L 517.423109 223.932868 
L 517.862215 513.078158 
L 518.081769 447.065156 
L 518.301322 544.511139 
L 518.520875 382.390494 
L 518.740428 435.53351 
L 518.959981 212.616486 
L 519.179534 483.19724 
L 519.399088 519.775481 
L 519.618641 403.612672 
L 519.838194 413.621552 
L 520.057747 468.411096 
L 520.2773 434.507787 
L 520.716406 235.118698 
L 520.93596 437.784657 
L 521.155513 524.39932 
L 521.375066 476.533488 
L 521.814172 232.30108 
L 522.033725 428.481234 
L 522.253279 382.911981 
L 522.911938 519.48628 
L 523.131491 448.577682 
L 523.351044 326.861349 
L 523.570597 343.215651 
L 523.790151 525.930403 
L 524.009704 448.420568 
L 524.229257 217.904211 
L 524.44881 409.154933 
L 524.668363 433.539448 
L 524.887916 496.530392 
L 525.10747 411.64247 
L 525.327023 182.613388 
L 525.546576 218.504717 
L 525.766129 394.340199 
L 525.985682 376.239997 
L 526.205235 510.115636 
L 526.424788 487.928007 
L 526.644342 502.282767 
L 526.863895 474.776509 
L 527.083448 512.207516 
L 527.303001 510.970323 
L 527.522554 467.222526 
L 527.742107 391.349892 
L 528.181214 461.56204 
L 528.400767 465.422264 
L 528.62032 262.124307 
L 528.839873 437.881791 
L 529.059426 384.524348 
L 529.278979 521.793778 
L 529.718086 462.992846 
L 529.937639 445.687834 
L 530.157192 342.046276 
L 530.376745 441.963755 
L 530.596298 489.005825 
L 531.035405 317.873129 
L 531.254958 568.12829 
L 531.474511 354.222893 
L 531.694064 398.303871 
L 531.913617 477.009716 
L 532.13317 330.36836 
L 532.352724 449.087199 
L 532.572277 450.568588 
L 533.011383 419.933738 
L 533.230936 525.67283 
L 533.450489 427.155968 
L 533.670042 401.316102 
L 533.889596 464.732013 
L 534.109149 452.690992 
L 534.328702 458.11676 
L 534.548255 457.853336 
L 534.987361 534.993179 
L 535.206915 280.314563 
L 535.426468 458.530326 
L 535.646021 466.59847 
L 535.865574 439.916806 
L 536.085127 513.855649 
L 536.30468 515.409887 
L 536.524233 375.37826 
L 536.96334 476.864013 
L 537.182893 514.044582 
L 537.402446 480.935435 
L 537.621999 393.963482 
L 537.841552 403.834255 
L 538.061106 366.261551 
L 538.280659 450.57475 
L 538.500212 473.968383 
L 538.719765 538.795044 
L 538.939318 519.799486 
L 539.158871 379.834016 
L 539.378424 549.862048 
L 539.597978 448.560383 
L 539.817531 426.30869 
L 540.256637 485.42051 
L 540.47619 313.90367 
L 540.695743 529.71184 
L 540.915297 346.009442 
L 541.13485 339.895481 
L 541.354403 264.521755 
L 541.573956 472.990924 
L 541.793509 484.380459 
L 542.013062 398.155217 
L 542.232615 460.656266 
L 542.452169 389.31147 
L 542.671722 481.388048 
L 542.891275 480.202482 
L 543.330381 260.029497 
L 543.769488 504.235081 
L 543.989041 496.8338 
L 544.208594 390.907757 
L 544.6477 490.982682 
L 544.867253 465.605093 
L 545.086806 536.317155 
L 545.745466 474.672701 
L 545.745466 474.672701 
" style="fill:none;stroke:#96c69a;stroke-linecap:round;stroke-width:3;"/>
   </g>
   <g id="line2d_2"/>
   <g id="patch_3">
    <path d="M 84.914375 603.86 
L 84.914375 109.484571 
" style="fill:none;stroke:#262626;stroke-linecap:square;stroke-linejoin:miter;stroke-width:2.5;"/>
   </g>
   <g id="patch_4">
    <path d="M 84.914375 603.86 
L 567.689804 603.86 
" style="fill:none;stroke:#262626;stroke-linecap:square;stroke-linejoin:miter;stroke-width:2.5;"/>
   </g>
   <g id="legend_1">
    <g id="patch_5">
     <path d="M 507.816366 598.86 
L 560.689804 598.86 
Q 562.689804 598.86 562.689804 596.86 
L 562.689804 554.954375 
Q 562.689804 552.954375 560.689804 552.954375 
L 507.816366 552.954375 
Q 505.816366 552.954375 505.816366 554.954375 
L 505.816366 596.86 
Q 505.816366 598.86 507.816366 598.86 
z
" style="fill:#ffffff;opacity:0.8;stroke:#cccccc;stroke-linejoin:miter;stroke-width:2;"/>
    </g>
    <g id="text_16">
     <!-- $n_\tau$ -->
     <g style="fill:#262626;" transform="translate(521.173085 575.190625)scale(0.24 -0.24)">
      <defs>
       <path d="M 3566 2113 
L 3156 0 
L 2578 0 
L 2988 2091 
Q 3016 2238 3031 2350 
Q 3047 2463 3047 2528 
Q 3047 2791 2881 2937 
Q 2716 3084 2419 3084 
Q 1956 3084 1622 2776 
Q 1288 2469 1184 1941 
L 800 0 
L 225 0 
L 903 3500 
L 1478 3500 
L 1363 2950 
Q 1603 3253 1940 3418 
Q 2278 3584 2650 3584 
Q 3113 3584 3367 3334 
Q 3622 3084 3622 2631 
Q 3622 2519 3608 2391 
Q 3594 2263 3566 2113 
z
" id="DejaVuSans-Oblique-6e" transform="scale(0.015625)"/>
       <path d="M 2103 638 
Q 2188 488 2525 488 
L 2800 488 
L 2706 0 
L 2363 0 
Q 1800 0 1600 300 
Q 1403 606 1534 1269 
L 1856 2925 
L 541 2925 
L 653 3500 
L 3881 3500 
L 3769 2925 
L 2444 2925 
L 2113 1234 
Q 2025 781 2103 638 
z
" id="DejaVuSans-Oblique-3c4" transform="scale(0.015625)"/>
      </defs>
      <use xlink:href="#DejaVuSans-Oblique-6e"/>
      <use transform="translate(63.378906 -16.40625)scale(0.7)" xlink:href="#DejaVuSans-Oblique-3c4"/>
     </g>
    </g>
    <g id="line2d_3">
     <path d="M 509.816366 589.280313 
L 529.816366 589.280313 
" style="fill:none;stroke:#96c69a;stroke-linecap:round;stroke-width:3;"/>
    </g>
    <g id="line2d_4"/>
    <g id="text_17">
     <!-- 125 -->
     <g style="fill:#262626;" transform="translate(537.816366 592.780313)scale(0.1 -0.1)">
      <defs>
       <path d="M 750 831 
L 1813 831 
L 1813 3847 
L 722 3622 
L 722 4441 
L 1806 4666 
L 2950 4666 
L 2950 831 
L 4013 831 
L 4013 0 
L 750 0 
L 750 831 
z
" id="DejaVuSans-Bold-31" transform="scale(0.015625)"/>
       <path d="M 1844 884 
L 3897 884 
L 3897 0 
L 506 0 
L 506 884 
L 2209 2388 
Q 2438 2594 2547 2791 
Q 2656 2988 2656 3200 
Q 2656 3528 2436 3728 
Q 2216 3928 1850 3928 
Q 1569 3928 1234 3808 
Q 900 3688 519 3450 
L 519 4475 
Q 925 4609 1322 4679 
Q 1719 4750 2100 4750 
Q 2938 4750 3402 4381 
Q 3866 4013 3866 3353 
Q 3866 2972 3669 2642 
Q 3472 2313 2841 1759 
L 1844 884 
z
" id="DejaVuSans-Bold-32" transform="scale(0.015625)"/>
       <path d="M 678 4666 
L 3669 4666 
L 3669 3781 
L 1638 3781 
L 1638 3059 
Q 1775 3097 1914 3117 
Q 2053 3138 2203 3138 
Q 3056 3138 3531 2711 
Q 4006 2284 4006 1522 
Q 4006 766 3489 337 
Q 2972 -91 2053 -91 
Q 1656 -91 1267 -14 
Q 878 63 494 219 
L 494 1166 
Q 875 947 1217 837 
Q 1559 728 1863 728 
Q 2300 728 2551 942 
Q 2803 1156 2803 1522 
Q 2803 1891 2551 2103 
Q 2300 2316 1863 2316 
Q 1603 2316 1309 2248 
Q 1016 2181 678 2041 
L 678 4666 
z
" id="DejaVuSans-Bold-35" transform="scale(0.015625)"/>
      </defs>
      <use xlink:href="#DejaVuSans-Bold-31"/>
      <use x="69.580078" xlink:href="#DejaVuSans-Bold-32"/>
      <use x="139.160156" xlink:href="#DejaVuSans-Bold-35"/>
     </g>
    </g>
   </g>
  </g>
  <g id="axes_2">
   <g id="patch_6">
    <path d="M 84.914375 92.437143 
L 567.689804 92.437143 
L 567.689804 7.2 
L 84.914375 7.2 
z
" style="fill:none;"/>
   </g>
   <g id="matplotlib.axis_3">
    <g id="xtick_7"/>
    <g id="xtick_8"/>
    <g id="xtick_9"/>
    <g id="xtick_10"/>
    <g id="xtick_11"/>
    <g id="xtick_12"/>
   </g>
   <g id="matplotlib.axis_4">
    <g id="ytick_8">
     <g id="text_18">
      <!-- 0 -->
      <g style="fill:#262626;" transform="translate(55.416875 100.795424)scale(0.22 -0.22)">
       <use xlink:href="#DejaVuSans-30"/>
      </g>
     </g>
    </g>
    <g id="ytick_9">
     <g id="text_19">
      <!-- 100 -->
      <g style="fill:#262626;" transform="translate(27.421875 48.082287)scale(0.22 -0.22)">
       <use xlink:href="#DejaVuSans-31"/>
       <use x="63.623047" xlink:href="#DejaVuSans-30"/>
       <use x="127.246094" xlink:href="#DejaVuSans-30"/>
      </g>
     </g>
    </g>
   </g>
   <g id="patch_7">
    <path clip-path="url(#p9446aaadff)" d="M 106.858713 92.437143 
L 140.619232 92.437143 
L 140.619232 11.258912 
L 106.858713 11.258912 
z
" style="fill:#96c69a;fill-opacity:0.5;stroke:#ffffff;stroke-linejoin:miter;stroke-width:2;"/>
   </g>
   <g id="patch_8">
    <path clip-path="url(#p9446aaadff)" d="M 140.619232 92.437143 
L 174.379752 92.437143 
L 174.379752 11.258912 
L 140.619232 11.258912 
z
" style="fill:#96c69a;fill-opacity:0.5;stroke:#ffffff;stroke-linejoin:miter;stroke-width:2;"/>
   </g>
   <g id="patch_9">
    <path clip-path="url(#p9446aaadff)" d="M 174.379752 92.437143 
L 208.140271 92.437143 
L 208.140271 11.258912 
L 174.379752 11.258912 
z
" style="fill:#96c69a;fill-opacity:0.5;stroke:#ffffff;stroke-linejoin:miter;stroke-width:2;"/>
   </g>
   <g id="patch_10">
    <path clip-path="url(#p9446aaadff)" d="M 208.140271 92.437143 
L 241.900791 92.437143 
L 241.900791 11.258912 
L 208.140271 11.258912 
z
" style="fill:#96c69a;fill-opacity:0.5;stroke:#ffffff;stroke-linejoin:miter;stroke-width:2;"/>
   </g>
   <g id="patch_11">
    <path clip-path="url(#p9446aaadff)" d="M 241.900791 92.437143 
L 275.66131 92.437143 
L 275.66131 11.786043 
L 241.900791 11.786043 
z
" style="fill:#96c69a;fill-opacity:0.5;stroke:#ffffff;stroke-linejoin:miter;stroke-width:2;"/>
   </g>
   <g id="patch_12">
    <path clip-path="url(#p9446aaadff)" d="M 275.66131 92.437143 
L 309.42183 92.437143 
L 309.42183 11.258912 
L 275.66131 11.258912 
z
" style="fill:#96c69a;fill-opacity:0.5;stroke:#ffffff;stroke-linejoin:miter;stroke-width:2;"/>
   </g>
   <g id="patch_13">
    <path clip-path="url(#p9446aaadff)" d="M 309.42183 92.437143 
L 343.182349 92.437143 
L 343.182349 11.258912 
L 309.42183 11.258912 
z
" style="fill:#96c69a;fill-opacity:0.5;stroke:#ffffff;stroke-linejoin:miter;stroke-width:2;"/>
   </g>
   <g id="patch_14">
    <path clip-path="url(#p9446aaadff)" d="M 343.182349 92.437143 
L 376.942869 92.437143 
L 376.942869 11.258912 
L 343.182349 11.258912 
z
" style="fill:#96c69a;fill-opacity:0.5;stroke:#ffffff;stroke-linejoin:miter;stroke-width:2;"/>
   </g>
   <g id="patch_15">
    <path clip-path="url(#p9446aaadff)" d="M 376.942869 92.437143 
L 410.703388 92.437143 
L 410.703388 11.786043 
L 376.942869 11.786043 
z
" style="fill:#96c69a;fill-opacity:0.5;stroke:#ffffff;stroke-linejoin:miter;stroke-width:2;"/>
   </g>
   <g id="patch_16">
    <path clip-path="url(#p9446aaadff)" d="M 410.703388 92.437143 
L 444.463907 92.437143 
L 444.463907 11.258912 
L 410.703388 11.258912 
z
" style="fill:#96c69a;fill-opacity:0.5;stroke:#ffffff;stroke-linejoin:miter;stroke-width:2;"/>
   </g>
   <g id="patch_17">
    <path clip-path="url(#p9446aaadff)" d="M 444.463907 92.437143 
L 478.224427 92.437143 
L 478.224427 11.258912 
L 444.463907 11.258912 
z
" style="fill:#96c69a;fill-opacity:0.5;stroke:#ffffff;stroke-linejoin:miter;stroke-width:2;"/>
   </g>
   <g id="patch_18">
    <path clip-path="url(#p9446aaadff)" d="M 478.224427 92.437143 
L 511.984946 92.437143 
L 511.984946 11.258912 
L 478.224427 11.258912 
z
" style="fill:#96c69a;fill-opacity:0.5;stroke:#ffffff;stroke-linejoin:miter;stroke-width:2;"/>
   </g>
   <g id="patch_19">
    <path clip-path="url(#p9446aaadff)" d="M 511.984946 92.437143 
L 545.745466 92.437143 
L 545.745466 11.258912 
L 511.984946 11.258912 
z
" style="fill:#96c69a;fill-opacity:0.5;stroke:#ffffff;stroke-linejoin:miter;stroke-width:2;"/>
   </g>
   <g id="patch_20">
    <path d="M 84.914375 92.437143 
L 84.914375 7.2 
" style="fill:none;stroke:#262626;stroke-linecap:square;stroke-linejoin:miter;stroke-width:2.5;"/>
   </g>
   <g id="patch_21">
    <path d="M 84.914375 92.437143 
L 567.689804 92.437143 
" style="fill:none;stroke:#262626;stroke-linecap:square;stroke-linejoin:miter;stroke-width:2.5;"/>
   </g>
  </g>
  <g id="axes_3">
   <g id="patch_22">
    <path d="M 584.337232 603.86 
L 667.574375 603.86 
L 667.574375 109.484571 
L 584.337232 109.484571 
z
" style="fill:none;"/>
   </g>
   <g id="matplotlib.axis_5">
    <g id="xtick_13">
     <g id="text_20">
      <!-- 0 -->
      <g style="fill:#262626;" transform="translate(577.338482 636.076563)scale(0.22 -0.22)">
       <use xlink:href="#DejaVuSans-30"/>
      </g>
     </g>
    </g>
    <g id="xtick_14">
     <g id="text_21">
      <!-- 100 -->
      <g style="fill:#262626;" transform="translate(606.424389 636.076563)scale(0.22 -0.22)">
       <use xlink:href="#DejaVuSans-31"/>
       <use x="63.623047" xlink:href="#DejaVuSans-30"/>
       <use x="127.246094" xlink:href="#DejaVuSans-30"/>
      </g>
     </g>
    </g>
   </g>
   <g id="matplotlib.axis_6">
    <g id="ytick_10"/>
    <g id="ytick_11"/>
    <g id="ytick_12"/>
    <g id="ytick_13"/>
    <g id="ytick_14"/>
    <g id="ytick_15"/>
    <g id="ytick_16"/>
   </g>
   <g id="patch_23">
    <path clip-path="url(#p42090694ae)" d="M 584.337232 581.38839 
L 587.353071 581.38839 
L 587.353071 566.890576 
L 584.337232 566.890576 
z
" style="fill:#96c69a;fill-opacity:0.5;stroke:#ffffff;stroke-linejoin:miter;stroke-width:1.449781;"/>
   </g>
   <g id="patch_24">
    <path clip-path="url(#p42090694ae)" d="M 584.337232 566.890576 
L 588.645573 566.890576 
L 588.645573 552.392763 
L 584.337232 552.392763 
z
" style="fill:#96c69a;fill-opacity:0.5;stroke:#ffffff;stroke-linejoin:miter;stroke-width:1.449781;"/>
   </g>
   <g id="patch_25">
    <path clip-path="url(#p42090694ae)" d="M 584.337232 552.392763 
L 599.416425 552.392763 
L 599.416425 537.89495 
L 584.337232 537.89495 
z
" style="fill:#96c69a;fill-opacity:0.5;stroke:#ffffff;stroke-linejoin:miter;stroke-width:1.449781;"/>
   </g>
   <g id="patch_26">
    <path clip-path="url(#p42090694ae)" d="M 584.337232 537.89495 
L 610.618111 537.89495 
L 610.618111 523.397137 
L 584.337232 523.397137 
z
" style="fill:#96c69a;fill-opacity:0.5;stroke:#ffffff;stroke-linejoin:miter;stroke-width:1.449781;"/>
   </g>
   <g id="patch_27">
    <path clip-path="url(#p42090694ae)" d="M 584.337232 523.397137 
L 629.143976 523.397137 
L 629.143976 508.899324 
L 584.337232 508.899324 
z
" style="fill:#96c69a;fill-opacity:0.5;stroke:#ffffff;stroke-linejoin:miter;stroke-width:1.449781;"/>
   </g>
   <g id="patch_28">
    <path clip-path="url(#p42090694ae)" d="M 584.337232 508.899324 
L 631.72898 508.899324 
L 631.72898 494.401511 
L 584.337232 494.401511 
z
" style="fill:#96c69a;fill-opacity:0.5;stroke:#ffffff;stroke-linejoin:miter;stroke-width:1.449781;"/>
   </g>
   <g id="patch_29">
    <path clip-path="url(#p42090694ae)" d="M 584.337232 494.401511 
L 645.084836 494.401511 
L 645.084836 479.903698 
L 584.337232 479.903698 
z
" style="fill:#96c69a;fill-opacity:0.5;stroke:#ffffff;stroke-linejoin:miter;stroke-width:1.449781;"/>
   </g>
   <g id="patch_30">
    <path clip-path="url(#p42090694ae)" d="M 584.337232 479.903698 
L 650.254845 479.903698 
L 650.254845 465.405884 
L 584.337232 465.405884 
z
" style="fill:#96c69a;fill-opacity:0.5;stroke:#ffffff;stroke-linejoin:miter;stroke-width:1.449781;"/>
   </g>
   <g id="patch_31">
    <path clip-path="url(#p42090694ae)" d="M 584.337232 465.405884 
L 657.579025 465.405884 
L 657.579025 450.908071 
L 584.337232 450.908071 
z
" style="fill:#96c69a;fill-opacity:0.5;stroke:#ffffff;stroke-linejoin:miter;stroke-width:1.449781;"/>
   </g>
   <g id="patch_32">
    <path clip-path="url(#p42090694ae)" d="M 584.337232 450.908071 
L 663.610702 450.908071 
L 663.610702 436.410258 
L 584.337232 436.410258 
z
" style="fill:#96c69a;fill-opacity:0.5;stroke:#ffffff;stroke-linejoin:miter;stroke-width:1.449781;"/>
   </g>
   <g id="patch_33">
    <path clip-path="url(#p42090694ae)" d="M 584.337232 436.410258 
L 656.286522 436.410258 
L 656.286522 421.912445 
L 584.337232 421.912445 
z
" style="fill:#96c69a;fill-opacity:0.5;stroke:#ffffff;stroke-linejoin:miter;stroke-width:1.449781;"/>
   </g>
   <g id="patch_34">
    <path clip-path="url(#p42090694ae)" d="M 584.337232 421.912445 
L 658.440693 421.912445 
L 658.440693 407.414632 
L 584.337232 407.414632 
z
" style="fill:#96c69a;fill-opacity:0.5;stroke:#ffffff;stroke-linejoin:miter;stroke-width:1.449781;"/>
   </g>
   <g id="patch_35">
    <path clip-path="url(#p42090694ae)" d="M 584.337232 407.414632 
L 639.483993 407.414632 
L 639.483993 392.916819 
L 584.337232 392.916819 
z
" style="fill:#96c69a;fill-opacity:0.5;stroke:#ffffff;stroke-linejoin:miter;stroke-width:1.449781;"/>
   </g>
   <g id="patch_36">
    <path clip-path="url(#p42090694ae)" d="M 584.337232 392.916819 
L 626.128137 392.916819 
L 626.128137 378.419005 
L 584.337232 378.419005 
z
" style="fill:#96c69a;fill-opacity:0.5;stroke:#ffffff;stroke-linejoin:miter;stroke-width:1.449781;"/>
   </g>
   <g id="patch_37">
    <path clip-path="url(#p42090694ae)" d="M 584.337232 378.419005 
L 625.697303 378.419005 
L 625.697303 363.921192 
L 584.337232 363.921192 
z
" style="fill:#96c69a;fill-opacity:0.5;stroke:#ffffff;stroke-linejoin:miter;stroke-width:1.449781;"/>
   </g>
   <g id="patch_38">
    <path clip-path="url(#p42090694ae)" d="M 584.337232 363.921192 
L 619.234792 363.921192 
L 619.234792 349.423379 
L 584.337232 349.423379 
z
" style="fill:#96c69a;fill-opacity:0.5;stroke:#ffffff;stroke-linejoin:miter;stroke-width:1.449781;"/>
   </g>
   <g id="patch_39">
    <path clip-path="url(#p42090694ae)" d="M 584.337232 349.423379 
L 613.633949 349.423379 
L 613.633949 334.925566 
L 584.337232 334.925566 
z
" style="fill:#96c69a;fill-opacity:0.5;stroke:#ffffff;stroke-linejoin:miter;stroke-width:1.449781;"/>
   </g>
   <g id="patch_40">
    <path clip-path="url(#p42090694ae)" d="M 584.337232 334.925566 
L 604.586434 334.925566 
L 604.586434 320.427753 
L 584.337232 320.427753 
z
" style="fill:#96c69a;fill-opacity:0.5;stroke:#ffffff;stroke-linejoin:miter;stroke-width:1.449781;"/>
   </g>
   <g id="patch_41">
    <path clip-path="url(#p42090694ae)" d="M 584.337232 320.427753 
L 599.416425 320.427753 
L 599.416425 305.92994 
L 584.337232 305.92994 
z
" style="fill:#96c69a;fill-opacity:0.5;stroke:#ffffff;stroke-linejoin:miter;stroke-width:1.449781;"/>
   </g>
   <g id="patch_42">
    <path clip-path="url(#p42090694ae)" d="M 584.337232 305.92994 
L 599.847259 305.92994 
L 599.847259 291.432127 
L 584.337232 291.432127 
z
" style="fill:#96c69a;fill-opacity:0.5;stroke:#ffffff;stroke-linejoin:miter;stroke-width:1.449781;"/>
   </g>
   <g id="patch_43">
    <path clip-path="url(#p42090694ae)" d="M 584.337232 291.432127 
L 596.400586 291.432127 
L 596.400586 276.934313 
L 584.337232 276.934313 
z
" style="fill:#96c69a;fill-opacity:0.5;stroke:#ffffff;stroke-linejoin:miter;stroke-width:1.449781;"/>
   </g>
   <g id="patch_44">
    <path clip-path="url(#p42090694ae)" d="M 584.337232 276.934313 
L 591.661411 276.934313 
L 591.661411 262.4365 
L 584.337232 262.4365 
z
" style="fill:#96c69a;fill-opacity:0.5;stroke:#ffffff;stroke-linejoin:miter;stroke-width:1.449781;"/>
   </g>
   <g id="patch_45">
    <path clip-path="url(#p42090694ae)" d="M 584.337232 262.4365 
L 589.938075 262.4365 
L 589.938075 247.938687 
L 584.337232 247.938687 
z
" style="fill:#96c69a;fill-opacity:0.5;stroke:#ffffff;stroke-linejoin:miter;stroke-width:1.449781;"/>
   </g>
   <g id="patch_46">
    <path clip-path="url(#p42090694ae)" d="M 584.337232 247.938687 
L 588.645573 247.938687 
L 588.645573 233.440874 
L 584.337232 233.440874 
z
" style="fill:#96c69a;fill-opacity:0.5;stroke:#ffffff;stroke-linejoin:miter;stroke-width:1.449781;"/>
   </g>
   <g id="patch_47">
    <path clip-path="url(#p42090694ae)" d="M 584.337232 233.440874 
L 589.076407 233.440874 
L 589.076407 218.943061 
L 584.337232 218.943061 
z
" style="fill:#96c69a;fill-opacity:0.5;stroke:#ffffff;stroke-linejoin:miter;stroke-width:1.449781;"/>
   </g>
   <g id="patch_48">
    <path clip-path="url(#p42090694ae)" d="M 584.337232 218.943061 
L 587.353071 218.943061 
L 587.353071 204.445248 
L 584.337232 204.445248 
z
" style="fill:#96c69a;fill-opacity:0.5;stroke:#ffffff;stroke-linejoin:miter;stroke-width:1.449781;"/>
   </g>
   <g id="patch_49">
    <path clip-path="url(#p42090694ae)" d="M 584.337232 204.445248 
L 586.491403 204.445248 
L 586.491403 189.947434 
L 584.337232 189.947434 
z
" style="fill:#96c69a;fill-opacity:0.5;stroke:#ffffff;stroke-linejoin:miter;stroke-width:1.449781;"/>
   </g>
   <g id="patch_50">
    <path clip-path="url(#p42090694ae)" d="M 584.337232 189.947434 
L 585.629734 189.947434 
L 585.629734 175.449621 
L 584.337232 175.449621 
z
" style="fill:#96c69a;fill-opacity:0.5;stroke:#ffffff;stroke-linejoin:miter;stroke-width:1.449781;"/>
   </g>
   <g id="patch_51">
    <path clip-path="url(#p42090694ae)" d="M 584.337232 175.449621 
L 585.1989 175.449621 
L 585.1989 160.951808 
L 584.337232 160.951808 
z
" style="fill:#96c69a;fill-opacity:0.5;stroke:#ffffff;stroke-linejoin:miter;stroke-width:1.449781;"/>
   </g>
   <g id="patch_52">
    <path clip-path="url(#p42090694ae)" d="M 584.337232 160.951808 
L 584.337232 160.951808 
L 584.337232 146.453995 
L 584.337232 146.453995 
z
" style="fill:#96c69a;fill-opacity:0.5;stroke:#ffffff;stroke-linejoin:miter;stroke-width:1.449781;"/>
   </g>
   <g id="patch_53">
    <path clip-path="url(#p42090694ae)" d="M 584.337232 146.453995 
L 585.1989 146.453995 
L 585.1989 131.956182 
L 584.337232 131.956182 
z
" style="fill:#96c69a;fill-opacity:0.5;stroke:#ffffff;stroke-linejoin:miter;stroke-width:1.449781;"/>
   </g>
   <g id="patch_54">
    <path d="M 584.337232 603.86 
L 584.337232 109.484571 
" style="fill:none;stroke:#262626;stroke-linecap:square;stroke-linejoin:miter;stroke-width:2.5;"/>
   </g>
   <g id="patch_55">
    <path d="M 584.337232 603.86 
L 667.574375 603.86 
" style="fill:none;stroke:#262626;stroke-linecap:square;stroke-linejoin:miter;stroke-width:2.5;"/>
   </g>
  </g>
 </g>
 <defs>
  <clipPath id="p24161e1241">
   <rect height="494.375429" width="482.775429" x="84.914375" y="109.484571"/>
  </clipPath>
  <clipPath id="p9446aaadff">
   <rect height="85.237143" width="482.775429" x="84.914375" y="7.2"/>
  </clipPath>
  <clipPath id="p42090694ae">
   <rect height="494.375429" width="83.237143" x="584.337232" y="109.484571"/>
  </clipPath>
 </defs>
</svg>
