<?xml version="1.0" encoding="utf-8" standalone="no"?>
<!DOCTYPE svg PUBLIC "-//W3C//DTD SVG 1.1//EN"
  "http://www.w3.org/Graphics/SVG/1.1/DTD/svg11.dtd">
<svg height="675.079375pt" version="1.1" viewBox="0 0 694.258708 675.079375" width="694.258708pt" xmlns="http://www.w3.org/2000/svg" xmlns:xlink="http://www.w3.org/1999/xlink">
 <metadata>
  <rdf:RDF xmlns:cc="http://creativecommons.org/ns#" xmlns:dc="http://purl.org/dc/elements/1.1/" xmlns:rdf="http://www.w3.org/1999/02/22-rdf-syntax-ns#">
   <cc:Work>
    <dc:type rdf:resource="http://purl.org/dc/dcmitype/StillImage"/>
    <dc:date>2021-07-16T21:43:59.061545</dc:date>
    <dc:format>image/svg+xml</dc:format>
    <dc:creator>
     <cc:Agent>
      <dc:title>Matplotlib v3.4.2, https://matplotlib.org/</dc:title>
     </cc:Agent>
    </dc:creator>
   </cc:Work>
  </rdf:RDF>
 </metadata>
 <defs>
  <style type="text/css">*{stroke-linecap:butt;stroke-linejoin:round;}</style>
 </defs>
 <g id="figure_1">
  <g id="patch_1">
   <path d="M 0 675.079375 
L 694.258708 675.079375 
L 694.258708 0 
L 0 0 
z
" style="fill:#ffffff;"/>
  </g>
  <g id="axes_1">
   <g id="patch_2">
    <path d="M 84.914375 603.86 
L 567.689804 603.86 
L 567.689804 109.484571 
L 84.914375 109.484571 
z
" style="fill:none;"/>
   </g>
   <g id="matplotlib.axis_1">
    <g id="xtick_1">
     <g id="text_1">
      <!-- 0 -->
      <g style="fill:#262626;" transform="translate(99.64041 636.076563)scale(0.22 -0.22)">
       <defs>
        <path d="M 2034 4250 
Q 1547 4250 1301 3770 
Q 1056 3291 1056 2328 
Q 1056 1369 1301 889 
Q 1547 409 2034 409 
Q 2525 409 2770 889 
Q 3016 1369 3016 2328 
Q 3016 3291 2770 3770 
Q 2525 4250 2034 4250 
z
M 2034 4750 
Q 2819 4750 3233 4129 
Q 3647 3509 3647 2328 
Q 3647 1150 3233 529 
Q 2819 -91 2034 -91 
Q 1250 -91 836 529 
Q 422 1150 422 2328 
Q 422 3509 836 4129 
Q 1250 4750 2034 4750 
z
" id="DejaVuSans-30" transform="scale(0.015625)"/>
       </defs>
       <use xlink:href="#DejaVuSans-30"/>
      </g>
     </g>
    </g>
    <g id="xtick_2">
     <g id="text_2">
      <!-- 20000 -->
      <g style="fill:#262626;" transform="translate(159.466671 636.076563)scale(0.22 -0.22)">
       <defs>
        <path d="M 1228 531 
L 3431 531 
L 3431 0 
L 469 0 
L 469 531 
Q 828 903 1448 1529 
Q 2069 2156 2228 2338 
Q 2531 2678 2651 2914 
Q 2772 3150 2772 3378 
Q 2772 3750 2511 3984 
Q 2250 4219 1831 4219 
Q 1534 4219 1204 4116 
Q 875 4013 500 3803 
L 500 4441 
Q 881 4594 1212 4672 
Q 1544 4750 1819 4750 
Q 2544 4750 2975 4387 
Q 3406 4025 3406 3419 
Q 3406 3131 3298 2873 
Q 3191 2616 2906 2266 
Q 2828 2175 2409 1742 
Q 1991 1309 1228 531 
z
" id="DejaVuSans-32" transform="scale(0.015625)"/>
       </defs>
       <use xlink:href="#DejaVuSans-32"/>
       <use x="63.623047" xlink:href="#DejaVuSans-30"/>
       <use x="127.246094" xlink:href="#DejaVuSans-30"/>
       <use x="190.869141" xlink:href="#DejaVuSans-30"/>
       <use x="254.492188" xlink:href="#DejaVuSans-30"/>
      </g>
     </g>
    </g>
    <g id="xtick_3">
     <g id="text_3">
      <!-- 40000 -->
      <g style="fill:#262626;" transform="translate(247.287932 636.076563)scale(0.22 -0.22)">
       <defs>
        <path d="M 2419 4116 
L 825 1625 
L 2419 1625 
L 2419 4116 
z
M 2253 4666 
L 3047 4666 
L 3047 1625 
L 3713 1625 
L 3713 1100 
L 3047 1100 
L 3047 0 
L 2419 0 
L 2419 1100 
L 313 1100 
L 313 1709 
L 2253 4666 
z
" id="DejaVuSans-34" transform="scale(0.015625)"/>
       </defs>
       <use xlink:href="#DejaVuSans-34"/>
       <use x="63.623047" xlink:href="#DejaVuSans-30"/>
       <use x="127.246094" xlink:href="#DejaVuSans-30"/>
       <use x="190.869141" xlink:href="#DejaVuSans-30"/>
       <use x="254.492188" xlink:href="#DejaVuSans-30"/>
      </g>
     </g>
    </g>
    <g id="xtick_4">
     <g id="text_4">
      <!-- 60000 -->
      <g style="fill:#262626;" transform="translate(335.109193 636.076563)scale(0.22 -0.22)">
       <defs>
        <path d="M 2113 2584 
Q 1688 2584 1439 2293 
Q 1191 2003 1191 1497 
Q 1191 994 1439 701 
Q 1688 409 2113 409 
Q 2538 409 2786 701 
Q 3034 994 3034 1497 
Q 3034 2003 2786 2293 
Q 2538 2584 2113 2584 
z
M 3366 4563 
L 3366 3988 
Q 3128 4100 2886 4159 
Q 2644 4219 2406 4219 
Q 1781 4219 1451 3797 
Q 1122 3375 1075 2522 
Q 1259 2794 1537 2939 
Q 1816 3084 2150 3084 
Q 2853 3084 3261 2657 
Q 3669 2231 3669 1497 
Q 3669 778 3244 343 
Q 2819 -91 2113 -91 
Q 1303 -91 875 529 
Q 447 1150 447 2328 
Q 447 3434 972 4092 
Q 1497 4750 2381 4750 
Q 2619 4750 2861 4703 
Q 3103 4656 3366 4563 
z
" id="DejaVuSans-36" transform="scale(0.015625)"/>
       </defs>
       <use xlink:href="#DejaVuSans-36"/>
       <use x="63.623047" xlink:href="#DejaVuSans-30"/>
       <use x="127.246094" xlink:href="#DejaVuSans-30"/>
       <use x="190.869141" xlink:href="#DejaVuSans-30"/>
       <use x="254.492188" xlink:href="#DejaVuSans-30"/>
      </g>
     </g>
    </g>
    <g id="xtick_5">
     <g id="text_5">
      <!-- 80000 -->
      <g style="fill:#262626;" transform="translate(422.930455 636.076563)scale(0.22 -0.22)">
       <defs>
        <path d="M 2034 2216 
Q 1584 2216 1326 1975 
Q 1069 1734 1069 1313 
Q 1069 891 1326 650 
Q 1584 409 2034 409 
Q 2484 409 2743 651 
Q 3003 894 3003 1313 
Q 3003 1734 2745 1975 
Q 2488 2216 2034 2216 
z
M 1403 2484 
Q 997 2584 770 2862 
Q 544 3141 544 3541 
Q 544 4100 942 4425 
Q 1341 4750 2034 4750 
Q 2731 4750 3128 4425 
Q 3525 4100 3525 3541 
Q 3525 3141 3298 2862 
Q 3072 2584 2669 2484 
Q 3125 2378 3379 2068 
Q 3634 1759 3634 1313 
Q 3634 634 3220 271 
Q 2806 -91 2034 -91 
Q 1263 -91 848 271 
Q 434 634 434 1313 
Q 434 1759 690 2068 
Q 947 2378 1403 2484 
z
M 1172 3481 
Q 1172 3119 1398 2916 
Q 1625 2713 2034 2713 
Q 2441 2713 2670 2916 
Q 2900 3119 2900 3481 
Q 2900 3844 2670 4047 
Q 2441 4250 2034 4250 
Q 1625 4250 1398 4047 
Q 1172 3844 1172 3481 
z
" id="DejaVuSans-38" transform="scale(0.015625)"/>
       </defs>
       <use xlink:href="#DejaVuSans-38"/>
       <use x="63.623047" xlink:href="#DejaVuSans-30"/>
       <use x="127.246094" xlink:href="#DejaVuSans-30"/>
       <use x="190.869141" xlink:href="#DejaVuSans-30"/>
       <use x="254.492188" xlink:href="#DejaVuSans-30"/>
      </g>
     </g>
    </g>
    <g id="xtick_6">
     <g id="text_6">
      <!-- 100000 -->
      <g style="fill:#262626;" transform="translate(503.752966 636.076563)scale(0.22 -0.22)">
       <defs>
        <path d="M 794 531 
L 1825 531 
L 1825 4091 
L 703 3866 
L 703 4441 
L 1819 4666 
L 2450 4666 
L 2450 531 
L 3481 531 
L 3481 0 
L 794 0 
L 794 531 
z
" id="DejaVuSans-31" transform="scale(0.015625)"/>
       </defs>
       <use xlink:href="#DejaVuSans-31"/>
       <use x="63.623047" xlink:href="#DejaVuSans-30"/>
       <use x="127.246094" xlink:href="#DejaVuSans-30"/>
       <use x="190.869141" xlink:href="#DejaVuSans-30"/>
       <use x="254.492188" xlink:href="#DejaVuSans-30"/>
       <use x="318.115234" xlink:href="#DejaVuSans-30"/>
      </g>
     </g>
    </g>
    <g id="text_7">
     <!-- MDTU -->
     <g style="fill:#262626;" transform="translate(290.596464 662.888125)scale(0.24 -0.24)">
      <defs>
       <path d="M 628 4666 
L 1569 4666 
L 2759 1491 
L 3956 4666 
L 4897 4666 
L 4897 0 
L 4281 0 
L 4281 4097 
L 3078 897 
L 2444 897 
L 1241 4097 
L 1241 0 
L 628 0 
L 628 4666 
z
" id="DejaVuSans-4d" transform="scale(0.015625)"/>
       <path d="M 1259 4147 
L 1259 519 
L 2022 519 
Q 2988 519 3436 956 
Q 3884 1394 3884 2338 
Q 3884 3275 3436 3711 
Q 2988 4147 2022 4147 
L 1259 4147 
z
M 628 4666 
L 1925 4666 
Q 3281 4666 3915 4102 
Q 4550 3538 4550 2338 
Q 4550 1131 3912 565 
Q 3275 0 1925 0 
L 628 0 
L 628 4666 
z
" id="DejaVuSans-44" transform="scale(0.015625)"/>
       <path d="M -19 4666 
L 3928 4666 
L 3928 4134 
L 2272 4134 
L 2272 0 
L 1638 0 
L 1638 4134 
L -19 4134 
L -19 4666 
z
" id="DejaVuSans-54" transform="scale(0.015625)"/>
       <path d="M 556 4666 
L 1191 4666 
L 1191 1831 
Q 1191 1081 1462 751 
Q 1734 422 2344 422 
Q 2950 422 3222 751 
Q 3494 1081 3494 1831 
L 3494 4666 
L 4128 4666 
L 4128 1753 
Q 4128 841 3676 375 
Q 3225 -91 2344 -91 
Q 1459 -91 1007 375 
Q 556 841 556 1753 
L 556 4666 
z
" id="DejaVuSans-55" transform="scale(0.015625)"/>
      </defs>
      <use xlink:href="#DejaVuSans-4d"/>
      <use x="86.279297" xlink:href="#DejaVuSans-44"/>
      <use x="163.28125" xlink:href="#DejaVuSans-54"/>
      <use x="224.365234" xlink:href="#DejaVuSans-55"/>
     </g>
    </g>
   </g>
   <g id="matplotlib.axis_2">
    <g id="ytick_1">
     <g id="text_8">
      <!-- 0.5 -->
      <g style="fill:#262626;" transform="translate(34.4275 546.22149)scale(0.22 -0.22)">
       <defs>
        <path d="M 684 794 
L 1344 794 
L 1344 0 
L 684 0 
L 684 794 
z
" id="DejaVuSans-2e" transform="scale(0.015625)"/>
        <path d="M 691 4666 
L 3169 4666 
L 3169 4134 
L 1269 4134 
L 1269 2991 
Q 1406 3038 1543 3061 
Q 1681 3084 1819 3084 
Q 2600 3084 3056 2656 
Q 3513 2228 3513 1497 
Q 3513 744 3044 326 
Q 2575 -91 1722 -91 
Q 1428 -91 1123 -41 
Q 819 9 494 109 
L 494 744 
Q 775 591 1075 516 
Q 1375 441 1709 441 
Q 2250 441 2565 725 
Q 2881 1009 2881 1497 
Q 2881 1984 2565 2268 
Q 2250 2553 1709 2553 
Q 1456 2553 1204 2497 
Q 953 2441 691 2322 
L 691 4666 
z
" id="DejaVuSans-35" transform="scale(0.015625)"/>
       </defs>
       <use xlink:href="#DejaVuSans-30"/>
       <use x="63.623047" xlink:href="#DejaVuSans-2e"/>
       <use x="95.410156" xlink:href="#DejaVuSans-35"/>
      </g>
     </g>
    </g>
    <g id="ytick_2">
     <g id="text_9">
      <!-- 1.0 -->
      <g style="fill:#262626;" transform="translate(34.4275 464.806072)scale(0.22 -0.22)">
       <use xlink:href="#DejaVuSans-31"/>
       <use x="63.623047" xlink:href="#DejaVuSans-2e"/>
       <use x="95.410156" xlink:href="#DejaVuSans-30"/>
      </g>
     </g>
    </g>
    <g id="ytick_3">
     <g id="text_10">
      <!-- 1.5 -->
      <g style="fill:#262626;" transform="translate(34.4275 383.390654)scale(0.22 -0.22)">
       <use xlink:href="#DejaVuSans-31"/>
       <use x="63.623047" xlink:href="#DejaVuSans-2e"/>
       <use x="95.410156" xlink:href="#DejaVuSans-35"/>
      </g>
     </g>
    </g>
    <g id="ytick_4">
     <g id="text_11">
      <!-- 2.0 -->
      <g style="fill:#262626;" transform="translate(34.4275 301.975236)scale(0.22 -0.22)">
       <use xlink:href="#DejaVuSans-32"/>
       <use x="63.623047" xlink:href="#DejaVuSans-2e"/>
       <use x="95.410156" xlink:href="#DejaVuSans-30"/>
      </g>
     </g>
    </g>
    <g id="ytick_5">
     <g id="text_12">
      <!-- 2.5 -->
      <g style="fill:#262626;" transform="translate(34.4275 220.559817)scale(0.22 -0.22)">
       <use xlink:href="#DejaVuSans-32"/>
       <use x="63.623047" xlink:href="#DejaVuSans-2e"/>
       <use x="95.410156" xlink:href="#DejaVuSans-35"/>
      </g>
     </g>
    </g>
    <g id="ytick_6">
     <g id="text_13">
      <!-- 3.0 -->
      <g style="fill:#262626;" transform="translate(34.4275 139.144399)scale(0.22 -0.22)">
       <defs>
        <path d="M 2597 2516 
Q 3050 2419 3304 2112 
Q 3559 1806 3559 1356 
Q 3559 666 3084 287 
Q 2609 -91 1734 -91 
Q 1441 -91 1130 -33 
Q 819 25 488 141 
L 488 750 
Q 750 597 1062 519 
Q 1375 441 1716 441 
Q 2309 441 2620 675 
Q 2931 909 2931 1356 
Q 2931 1769 2642 2001 
Q 2353 2234 1838 2234 
L 1294 2234 
L 1294 2753 
L 1863 2753 
Q 2328 2753 2575 2939 
Q 2822 3125 2822 3475 
Q 2822 3834 2567 4026 
Q 2313 4219 1838 4219 
Q 1578 4219 1281 4162 
Q 984 4106 628 3988 
L 628 4550 
Q 988 4650 1302 4700 
Q 1616 4750 1894 4750 
Q 2613 4750 3031 4423 
Q 3450 4097 3450 3541 
Q 3450 3153 3228 2886 
Q 3006 2619 2597 2516 
z
" id="DejaVuSans-33" transform="scale(0.015625)"/>
       </defs>
       <use xlink:href="#DejaVuSans-33"/>
       <use x="63.623047" xlink:href="#DejaVuSans-2e"/>
       <use x="95.410156" xlink:href="#DejaVuSans-30"/>
      </g>
     </g>
    </g>
    <g id="text_14">
     <!-- $E$ -->
     <g style="fill:#262626;" transform="translate(25.43625 364.352286)rotate(-90)scale(0.24 -0.24)">
      <defs>
       <path d="M 1081 4666 
L 4031 4666 
L 3928 4134 
L 1606 4134 
L 1338 2753 
L 3566 2753 
L 3463 2222 
L 1234 2222 
L 909 531 
L 3284 531 
L 3181 0 
L 172 0 
L 1081 4666 
z
" id="DejaVuSans-Oblique-45" transform="scale(0.015625)"/>
      </defs>
      <use transform="translate(0 0.09375)" xlink:href="#DejaVuSans-Oblique-45"/>
     </g>
    </g>
   </g>
   <g id="line2d_1">
    <path clip-path="url(#pc45dc36d24)" d="M 106.858713 483.841125 
L 107.078266 474.325409 
L 107.297819 455.951872 
L 107.517372 532.001609 
L 107.736925 529.354146 
L 107.956478 437.722076 
L 108.176032 502.589862 
L 108.395585 514.13443 
L 108.615138 498.726693 
L 108.834691 491.310983 
L 109.054244 541.115937 
L 109.273797 531.105582 
L 109.493351 526.479591 
L 109.712904 480.598405 
L 109.932457 478.962337 
L 110.15201 513.909789 
L 110.371563 527.009494 
L 110.810669 474.90386 
L 111.030223 494.805274 
L 111.249776 576.56149 
L 111.908435 380.030924 
L 112.127988 439.257835 
L 112.347541 436.929021 
L 112.567095 496.028155 
L 112.786648 411.666896 
L 113.006201 510.790938 
L 113.225754 464.557396 
L 113.445307 547.0111 
L 113.66486 525.894527 
L 113.884414 380.899929 
L 114.103967 443.801382 
L 114.32352 473.469579 
L 114.543073 409.503832 
L 114.762626 406.540541 
L 114.982179 543.637463 
L 115.421286 392.238582 
L 115.640839 514.880475 
L 115.860392 501.492336 
L 116.079945 463.394131 
L 116.299498 505.211345 
L 116.519051 441.870132 
L 116.738605 521.469754 
L 116.958158 513.162713 
L 117.177711 469.002733 
L 117.397264 539.906627 
L 117.616817 511.544233 
L 117.83637 501.084861 
L 118.055923 455.484269 
L 118.275477 469.896385 
L 118.714583 541.105585 
L 118.934136 427.055458 
L 119.153689 442.058282 
L 119.373242 570.120183 
L 119.812349 397.875282 
L 120.031902 492.27622 
L 120.251455 471.428451 
L 120.471008 465.189398 
L 120.690561 570.356054 
L 120.910114 527.143185 
L 121.129668 459.113078 
L 121.349221 519.150914 
L 121.568774 504.084202 
L 121.788327 514.151431 
L 122.00788 464.99854 
L 122.227433 543.956018 
L 122.446987 500.888666 
L 122.66654 480.04084 
L 122.886093 529.297919 
L 123.105646 462.299057 
L 123.325199 479.124136 
L 123.544752 481.543824 
L 123.764305 531.718149 
L 123.983859 547.291544 
L 124.203412 449.759192 
L 124.422965 504.502455 
L 124.642518 442.519217 
L 124.862071 425.847212 
L 125.301178 519.826724 
L 125.520731 502.216488 
L 125.740284 568.417311 
L 125.959837 398.244366 
L 126.17939 428.580206 
L 126.398943 342.177863 
L 126.83805 559.75033 
L 127.057603 508.582607 
L 127.277156 556.278561 
L 127.496709 426.297324 
L 127.716262 543.353602 
L 127.935815 405.093138 
L 128.155369 531.771234 
L 128.374922 521.210975 
L 128.594475 542.030461 
L 128.814028 517.75613 
L 129.033581 470.742784 
L 129.253134 499.168208 
L 129.472687 561.002268 
L 129.692241 411.9509 
L 129.911794 524.052734 
L 130.3509 440.341456 
L 130.570453 233.398897 
L 130.790006 509.798356 
L 131.00956 561.347727 
L 131.229113 408.195615 
L 131.668219 531.702227 
L 131.887772 529.264302 
L 132.107325 495.52833 
L 132.326878 538.493405 
L 132.546432 526.92493 
L 132.765985 495.41904 
L 132.985538 519.001729 
L 133.205091 561.680834 
L 133.424644 448.552861 
L 133.644197 489.754065 
L 133.863751 442.16843 
L 134.083304 421.241477 
L 134.302857 483.923322 
L 134.52241 452.621347 
L 134.741963 399.617376 
L 134.961516 514.547588 
L 135.181069 513.992548 
L 135.400623 496.040234 
L 135.620176 525.22142 
L 136.059282 509.743282 
L 136.278835 415.62751 
L 136.498388 468.769049 
L 136.717941 472.773412 
L 136.937495 555.83486 
L 137.157048 559.95081 
L 137.376601 541.158457 
L 137.596154 482.136612 
L 137.815707 381.531749 
L 138.03526 491.137206 
L 138.474367 442.133736 
L 138.69392 456.17886 
L 139.133026 551.028948 
L 139.352579 523.245552 
L 139.572132 443.882239 
L 140.011239 533.405904 
L 140.230792 437.47418 
L 140.450345 483.647867 
L 140.669898 419.237378 
L 140.889451 481.441189 
L 141.109005 494.442456 
L 141.328558 466.353245 
L 141.548111 391.987788 
L 141.767664 433.431654 
L 141.987217 542.376611 
L 142.20677 522.9994 
L 142.426323 449.123283 
L 142.645877 270.844991 
L 142.86543 478.228332 
L 143.084983 492.249987 
L 143.304536 372.138901 
L 143.524089 384.720114 
L 143.743642 465.049037 
L 143.963196 444.214269 
L 144.182749 381.494856 
L 144.621855 520.388424 
L 144.841408 413.183281 
L 145.060961 464.301735 
L 145.280514 463.389854 
L 145.500068 479.590153 
L 145.719621 458.442511 
L 145.939174 392.510379 
L 146.158727 497.022042 
L 146.37828 470.983787 
L 146.597833 492.956182 
L 147.03694 464.530435 
L 147.256493 353.480996 
L 147.476046 471.306324 
L 147.695599 478.531506 
L 148.134705 515.601214 
L 148.354259 485.783733 
L 148.573812 516.249399 
L 148.793365 475.087283 
L 149.012918 390.324852 
L 149.452024 527.359492 
L 149.671578 372.35134 
L 150.110684 537.45307 
L 150.330237 499.460613 
L 150.54979 510.583202 
L 150.769343 479.897584 
L 151.20845 538.447062 
L 151.428003 492.721603 
L 151.647556 528.685628 
L 152.086662 286.22621 
L 152.525769 455.145038 
L 152.745322 496.493084 
L 153.184428 478.924674 
L 153.403981 554.121749 
L 153.623534 518.829647 
L 153.843087 410.927684 
L 154.062641 401.141675 
L 154.282194 510.449915 
L 154.501747 440.002745 
L 154.7213 520.546908 
L 154.940853 479.544682 
L 155.160406 535.389977 
L 155.37996 486.087287 
L 155.599513 493.808635 
L 155.819066 535.983408 
L 156.038619 530.79596 
L 156.258172 458.451432 
L 156.477725 544.337929 
L 156.697278 540.370662 
L 156.916832 472.448803 
L 157.136385 457.286221 
L 157.355938 531.400097 
L 157.575491 417.949262 
L 157.795044 533.264201 
L 158.014597 513.614089 
L 158.234151 518.2509 
L 158.453704 500.332545 
L 158.673257 515.625828 
L 158.89281 486.723299 
L 159.112363 555.473489 
L 159.331916 535.789787 
L 159.551469 454.723923 
L 159.771023 431.87427 
L 159.990576 382.337319 
L 160.210129 536.190078 
L 160.429682 514.617346 
L 160.649235 463.948856 
L 160.868788 444.201968 
L 161.307895 475.108459 
L 161.527448 291.618733 
L 161.966554 555.027337 
L 162.186107 525.202546 
L 162.40566 520.473277 
L 162.625214 519.04462 
L 162.844767 513.101537 
L 163.06432 490.658607 
L 163.503426 505.005686 
L 163.722979 560.525248 
L 163.942532 495.913999 
L 164.162086 503.031458 
L 164.381639 548.96321 
L 164.601192 318.639427 
L 164.820745 413.69357 
L 165.040298 439.213639 
L 165.259851 430.340517 
L 165.479405 517.582829 
L 165.698958 540.069145 
L 166.138064 482.229084 
L 166.357617 505.773627 
L 166.57717 506.528722 
L 166.796723 535.172639 
L 167.016277 488.52923 
L 167.455383 484.144032 
L 167.674936 483.90999 
L 168.114042 559.578004 
L 168.333596 497.582647 
L 168.553149 494.893543 
L 168.772702 571.184226 
L 168.992255 516.245411 
L 169.211808 538.348674 
L 169.431361 470.008091 
L 169.870468 528.876751 
L 170.090021 526.54356 
L 170.309574 352.48312 
L 170.529127 485.412893 
L 170.74868 451.471425 
L 170.968233 394.604124 
L 171.187787 464.049092 
L 171.40734 293.280556 
L 171.626893 514.605244 
L 171.846446 469.455369 
L 172.065999 472.683426 
L 172.285552 493.574022 
L 172.505105 468.535509 
L 172.724659 540.385249 
L 172.944212 520.898781 
L 173.163765 534.392925 
L 173.383318 383.823546 
L 173.602871 462.909625 
L 173.822424 484.051737 
L 174.041978 494.450854 
L 174.261531 495.407017 
L 174.481084 423.504697 
L 174.700637 454.637087 
L 174.92019 458.691546 
L 175.139743 485.779594 
L 175.359296 532.760941 
L 175.57885 469.302221 
L 175.798403 488.555088 
L 176.017956 426.87598 
L 176.237509 404.745468 
L 176.457062 473.208843 
L 176.676615 467.74584 
L 176.896169 549.284436 
L 177.115722 368.251674 
L 177.335275 494.979289 
L 177.554828 504.326921 
L 177.774381 468.823772 
L 177.993934 480.50916 
L 178.213487 519.275214 
L 178.433041 443.302144 
L 178.652594 553.824957 
L 178.872147 473.242322 
L 179.0917 503.627548 
L 179.311253 508.988918 
L 179.530806 488.54166 
L 179.969913 501.465928 
L 180.189466 546.496461 
L 180.409019 548.779933 
L 180.848125 447.521626 
L 181.067678 449.924264 
L 181.287232 546.167479 
L 181.506785 523.424914 
L 181.726338 444.447211 
L 181.945891 470.043019 
L 182.165444 434.040672 
L 182.384997 462.505628 
L 182.604551 527.33864 
L 183.043657 562.637052 
L 183.26321 418.706548 
L 183.482763 458.021999 
L 183.702316 467.908336 
L 183.921869 529.563523 
L 184.141423 524.780743 
L 184.360976 473.660155 
L 184.580529 498.116222 
L 184.800082 471.155095 
L 185.019635 412.745576 
L 185.239188 436.786182 
L 185.458742 558.152929 
L 185.678295 452.450646 
L 185.897848 465.83784 
L 186.117401 437.381456 
L 186.556507 478.211139 
L 186.77606 496.911232 
L 186.995614 479.030333 
L 187.215167 422.787787 
L 187.43472 514.012006 
L 187.654273 433.516632 
L 188.093379 493.654974 
L 188.312932 392.748626 
L 188.532486 479.199519 
L 188.752039 489.861103 
L 188.971592 446.338491 
L 189.191145 542.233361 
L 189.410698 493.194396 
L 189.630251 508.345683 
L 189.849805 417.189299 
L 190.069358 520.889482 
L 190.288911 433.244284 
L 190.728017 531.485535 
L 190.94757 489.957534 
L 191.386677 554.225864 
L 191.60623 552.022563 
L 191.825783 556.025399 
L 192.264889 448.494917 
L 192.484442 497.383543 
L 192.703996 511.932875 
L 192.923549 482.478198 
L 193.143102 484.105174 
L 193.362655 483.139352 
L 193.582208 494.948994 
L 193.801761 414.940506 
L 194.021314 518.981887 
L 194.240868 554.158779 
L 194.460421 419.965195 
L 194.679974 530.212325 
L 194.899527 514.860805 
L 195.338633 412.26266 
L 195.558187 416.609929 
L 195.77774 538.101332 
L 195.997293 537.146853 
L 196.216846 483.1794 
L 196.436399 541.494255 
L 196.655952 422.92218 
L 196.875505 407.472022 
L 197.095059 429.112034 
L 197.314612 439.512784 
L 197.753718 540.157381 
L 197.973271 473.984738 
L 198.412378 529.135331 
L 198.631931 493.565838 
L 198.851484 174.734572 
L 199.29059 539.142205 
L 199.510143 525.352996 
L 199.729696 397.302837 
L 199.94925 340.066645 
L 200.168803 503.941321 
L 200.388356 415.639854 
L 200.607909 490.740798 
L 200.827462 471.47181 
L 201.266569 534.860925 
L 201.486122 524.913102 
L 201.705675 525.302801 
L 201.925228 554.911314 
L 202.144781 483.439553 
L 202.364334 512.868917 
L 202.583887 525.82606 
L 202.803441 456.818866 
L 203.242547 550.878894 
L 203.4621 484.316666 
L 203.681653 553.978545 
L 203.901206 432.674026 
L 204.340313 539.047221 
L 204.559866 497.676923 
L 204.779419 399.913928 
L 204.998972 516.292917 
L 205.218525 489.489592 
L 205.438078 546.799989 
L 205.657632 519.266539 
L 205.877185 539.777229 
L 206.096738 470.992288 
L 206.316291 517.870981 
L 206.535844 522.584109 
L 206.755397 500.40382 
L 206.974951 407.989475 
L 207.194504 495.254881 
L 207.414057 526.846323 
L 207.63361 533.75456 
L 207.853163 483.228028 
L 208.072716 549.016965 
L 208.292269 539.193846 
L 208.511823 440.923552 
L 208.731376 458.816236 
L 208.950929 431.024239 
L 209.170482 477.597572 
L 209.390035 488.659316 
L 209.609588 530.927014 
L 209.829142 518.625469 
L 210.048695 498.259927 
L 210.268248 501.450619 
L 210.487801 458.359382 
L 210.707354 448.189187 
L 210.926907 472.58361 
L 211.14646 382.645536 
L 211.366014 430.342131 
L 211.80512 560.707263 
L 212.024673 468.106547 
L 212.244226 521.150356 
L 212.463779 490.643021 
L 212.683333 539.413665 
L 212.902886 542.250776 
L 213.122439 449.612558 
L 213.341992 478.759374 
L 213.561545 533.441138 
L 213.781098 419.2162 
L 214.000651 468.541382 
L 214.220205 477.702758 
L 214.439758 368.535344 
L 214.659311 516.711115 
L 214.878864 460.494684 
L 215.098417 538.216075 
L 215.31797 527.508114 
L 215.537523 437.591805 
L 215.757077 484.714617 
L 215.97663 495.931523 
L 216.196183 478.866218 
L 216.415736 554.983951 
L 216.635289 478.623202 
L 216.854842 505.194414 
L 217.074396 435.018462 
L 217.513502 553.351475 
L 217.952608 489.569613 
L 218.172161 536.476069 
L 218.391714 492.76356 
L 218.611268 508.49639 
L 218.830821 541.654506 
L 219.050374 424.424612 
L 219.48948 522.349698 
L 219.709033 380.685671 
L 219.928587 509.526234 
L 220.14814 500.470941 
L 220.367693 443.546703 
L 220.587246 435.304842 
L 220.806799 511.283989 
L 221.026352 488.81487 
L 221.245905 485.751145 
L 221.465459 520.601247 
L 221.685012 508.334585 
L 221.904565 438.958901 
L 222.343671 551.471613 
L 222.563224 489.562037 
L 222.782778 542.223296 
L 223.002331 521.352951 
L 223.221884 486.901398 
L 223.441437 525.586206 
L 223.66099 511.338382 
L 224.100096 409.214624 
L 224.31965 399.813852 
L 224.539203 457.242414 
L 224.758756 324.671327 
L 224.978309 477.264575 
L 225.197862 426.401729 
L 225.417415 411.482101 
L 225.636969 527.947191 
L 226.076075 323.190811 
L 226.295628 467.547485 
L 226.515181 476.736067 
L 226.734734 464.509733 
L 226.954287 503.958669 
L 227.173841 485.988012 
L 227.612947 544.670538 
L 227.8325 527.183488 
L 228.052053 404.522759 
L 228.49116 529.925835 
L 228.710713 488.885693 
L 228.930266 509.796703 
L 229.149819 509.804029 
L 229.369372 545.062521 
L 229.588925 529.057161 
L 229.808478 529.633147 
L 230.028032 479.297046 
L 230.247585 520.972732 
L 230.467138 462.771065 
L 230.906244 534.490649 
L 231.125797 545.180571 
L 231.345351 520.184307 
L 231.564904 543.532225 
L 231.784457 520.099388 
L 232.00401 455.035033 
L 232.223563 479.202948 
L 232.443116 471.049035 
L 232.662669 456.281943 
L 233.321329 525.04974 
L 233.540882 538.16492 
L 233.760435 467.342722 
L 233.979988 493.337888 
L 234.199542 542.73951 
L 234.419095 541.029375 
L 234.638648 450.786533 
L 234.858201 517.623688 
L 235.077754 447.493286 
L 235.51686 542.828724 
L 235.955967 509.453064 
L 236.17552 489.993361 
L 236.395073 369.9381 
L 236.614626 551.951795 
L 236.834179 435.02361 
L 237.053733 508.908185 
L 237.273286 386.662838 
L 237.492839 560.334063 
L 237.931945 478.39942 
L 238.151498 543.36575 
L 238.371051 500.073339 
L 238.590605 549.126094 
L 238.810158 536.817627 
L 239.029711 411.018274 
L 239.249264 539.965128 
L 239.68837 446.075428 
L 240.127477 512.586507 
L 240.34703 538.431988 
L 241.005689 506.577569 
L 241.225242 513.421017 
L 241.444796 508.256041 
L 241.664349 479.945388 
L 241.883902 521.857791 
L 242.103455 508.49191 
L 242.323008 443.633374 
L 242.542561 453.975181 
L 242.762114 493.245792 
L 242.981668 497.777417 
L 243.201221 539.141205 
L 243.420774 474.158189 
L 243.85988 542.678057 
L 244.079433 559.259265 
L 244.298987 477.435036 
L 244.51854 542.968967 
L 244.738093 394.157893 
L 245.177199 537.272186 
L 245.616305 418.522609 
L 245.835859 493.825644 
L 246.055412 497.936587 
L 246.274965 516.310794 
L 246.494518 519.510575 
L 246.714071 445.735698 
L 246.933624 487.052239 
L 247.153178 486.487875 
L 247.592284 533.65213 
L 247.811837 470.127431 
L 248.250943 489.706014 
L 248.69005 568.571841 
L 248.909603 526.767272 
L 249.129156 408.214912 
L 249.568262 542.975938 
L 249.787815 487.395849 
L 250.007369 561.151375 
L 250.446475 493.445955 
L 250.666028 559.741132 
L 250.885581 493.312184 
L 251.105134 537.807758 
L 251.544241 504.936819 
L 251.763794 522.540572 
L 251.983347 524.225521 
L 252.2029 512.44148 
L 252.422453 492.892954 
L 252.642006 449.998775 
L 252.86156 506.49302 
L 253.081113 479.695649 
L 253.520219 526.478308 
L 253.739772 512.603973 
L 253.959325 549.821878 
L 254.178878 503.917218 
L 254.398432 543.622309 
L 254.617985 475.281967 
L 254.837538 506.477431 
L 255.057091 508.580959 
L 255.276644 517.919951 
L 255.496197 468.482041 
L 255.715751 527.834118 
L 255.935304 543.896584 
L 256.154857 539.371093 
L 256.37441 445.539358 
L 256.593963 491.65782 
L 256.813516 395.401254 
L 257.033069 416.016428 
L 257.252623 468.15962 
L 257.472176 492.079551 
L 257.691729 539.386918 
L 258.130835 504.039404 
L 258.350388 514.096755 
L 258.569942 494.938922 
L 258.789495 521.349382 
L 259.009048 494.358329 
L 259.228601 572.798714 
L 259.448154 348.371432 
L 259.667707 438.86925 
L 259.88726 463.014765 
L 260.106814 464.9277 
L 260.326367 512.538779 
L 260.54592 501.416742 
L 260.765473 545.981697 
L 260.985026 527.707324 
L 261.204579 547.033857 
L 261.424133 485.680611 
L 261.643686 517.218012 
L 261.863239 517.297601 
L 262.082792 514.452752 
L 262.302345 513.997024 
L 262.521898 488.047651 
L 262.741451 510.072549 
L 262.961005 407.007046 
L 263.180558 581.38839 
L 263.400111 522.947265 
L 263.619664 514.234313 
L 263.839217 517.058479 
L 264.05877 550.404807 
L 264.278324 485.076972 
L 264.497877 504.650101 
L 264.71743 465.542354 
L 264.936983 518.603318 
L 265.156536 453.473599 
L 265.376089 483.537546 
L 265.595642 429.525295 
L 265.815196 466.500041 
L 266.034749 476.3805 
L 266.254302 525.487457 
L 266.473855 535.444631 
L 266.693408 558.238605 
L 266.912961 522.370926 
L 267.132514 548.615676 
L 267.352068 433.399673 
L 267.571621 478.92216 
L 267.791174 444.62987 
L 268.23028 560.276607 
L 268.449833 486.111626 
L 268.669387 500.754781 
L 268.88894 484.722916 
L 269.108493 532.778724 
L 269.328046 418.775131 
L 269.547599 381.761751 
L 269.767152 467.429129 
L 269.986705 467.569005 
L 270.206259 543.909157 
L 270.425812 469.433676 
L 270.645365 531.414208 
L 270.864918 504.494585 
L 271.084471 462.217099 
L 271.304024 461.603641 
L 271.523578 512.610611 
L 271.743131 400.61625 
L 272.182237 498.05002 
L 272.40179 457.740487 
L 272.621343 389.426019 
L 272.840896 441.001064 
L 273.06045 532.210638 
L 273.280003 438.848825 
L 273.499556 562.65831 
L 273.719109 518.317051 
L 273.938662 539.143511 
L 274.158215 487.946072 
L 274.377769 366.229029 
L 274.597322 371.731934 
L 274.816875 502.31103 
L 275.036428 525.725815 
L 275.255981 439.619204 
L 275.475534 464.043113 
L 275.695087 437.806153 
L 275.914641 508.012701 
L 276.134194 429.03189 
L 276.353747 456.444041 
L 276.5733 546.430379 
L 276.792853 502.507947 
L 277.012406 486.759865 
L 277.23196 456.550794 
L 277.451513 457.992278 
L 277.671066 479.985575 
L 277.890619 437.923778 
L 278.110172 488.887599 
L 278.329725 455.328535 
L 278.549278 554.404153 
L 278.988385 457.427115 
L 279.427491 529.112123 
L 279.647044 513.031305 
L 279.866597 476.956041 
L 280.086151 408.222372 
L 280.305704 523.204396 
L 280.525257 345.642533 
L 280.74481 500.269741 
L 280.964363 466.577775 
L 281.183916 475.882137 
L 281.403469 376.15546 
L 281.623023 541.635939 
L 281.842576 548.576952 
L 282.062129 426.753087 
L 282.281682 467.349768 
L 282.501235 558.213769 
L 282.720788 448.494167 
L 283.159895 525.149126 
L 283.379448 418.424547 
L 283.599001 481.516608 
L 283.818554 465.997386 
L 284.038107 505.138353 
L 284.25766 506.216877 
L 284.477214 540.642548 
L 284.696767 525.703419 
L 285.135873 453.112067 
L 285.355426 559.362647 
L 285.574979 445.378493 
L 285.794533 551.065029 
L 286.014086 480.879705 
L 286.233639 458.160212 
L 286.453192 536.435043 
L 286.672745 513.06617 
L 286.892298 528.575303 
L 287.111851 509.06718 
L 287.331405 523.848474 
L 287.550958 468.11067 
L 287.770511 512.752003 
L 287.990064 514.555828 
L 288.209617 501.44614 
L 288.42917 528.702829 
L 288.648724 536.539597 
L 288.868277 443.132027 
L 289.08783 504.404526 
L 289.307383 500.506209 
L 289.526936 425.966692 
L 289.746489 502.121977 
L 289.966042 408.770924 
L 290.405149 576.476391 
L 290.624702 438.865725 
L 290.844255 546.107043 
L 291.063808 518.918407 
L 291.283361 398.832988 
L 291.502915 437.195605 
L 291.722468 518.074805 
L 291.942021 521.838255 
L 292.161574 409.342647 
L 292.60068 520.578573 
L 292.820233 534.771646 
L 293.039787 452.296531 
L 293.25934 528.622976 
L 293.478893 502.715987 
L 293.698446 520.171151 
L 293.917999 552.463724 
L 294.137552 567.5839 
L 294.357105 536.709654 
L 294.576659 543.31231 
L 294.796212 419.175998 
L 295.015765 493.866309 
L 295.235318 524.990922 
L 295.454871 459.894571 
L 295.674424 356.844429 
L 295.893978 497.894745 
L 296.113531 131.956182 
L 296.333084 452.316883 
L 296.552637 456.05102 
L 296.77219 418.812377 
L 296.991743 510.935027 
L 297.211296 406.612027 
L 297.43085 475.325131 
L 297.650403 492.016067 
L 297.869956 471.628648 
L 298.089509 527.73241 
L 298.309062 540.00294 
L 298.528615 466.981905 
L 298.748169 548.2061 
L 298.967722 469.325528 
L 299.187275 475.459015 
L 299.406828 550.974652 
L 299.845934 430.780306 
L 300.065487 551.535658 
L 300.285041 505.584029 
L 300.504594 537.957777 
L 300.724147 433.030759 
L 300.9437 504.591294 
L 301.163253 472.309749 
L 301.382806 457.461191 
L 301.60236 517.258052 
L 301.821913 411.726266 
L 302.261019 550.181892 
L 302.480572 390.485622 
L 302.700125 481.403791 
L 302.919678 481.608622 
L 303.139232 565.510291 
L 303.358785 559.467012 
L 303.578338 540.02935 
L 303.797891 491.720445 
L 304.017444 504.218336 
L 304.236997 500.472784 
L 304.456551 506.705625 
L 304.676104 547.981051 
L 304.895657 507.084785 
L 305.11521 543.914154 
L 305.334763 498.26143 
L 305.554316 563.132961 
L 305.773869 404.878159 
L 305.993423 539.191033 
L 306.212976 509.689463 
L 306.432529 512.183806 
L 306.652082 440.454669 
L 306.871635 493.662556 
L 307.091188 496.283631 
L 307.530295 408.865921 
L 307.749848 529.137483 
L 307.969401 516.20238 
L 308.188954 384.699865 
L 308.408507 528.09893 
L 308.847614 171.073191 
L 309.067167 288.192838 
L 309.28672 496.540484 
L 309.725826 561.7996 
L 309.945379 520.288031 
L 310.164933 541.833669 
L 310.384486 492.717501 
L 310.604039 507.366486 
L 310.823592 500.791502 
L 311.043145 531.037352 
L 311.262698 536.010294 
L 311.482251 551.880917 
L 311.701805 493.194746 
L 311.921358 299.569115 
L 312.140911 533.129349 
L 312.580017 383.256466 
L 313.019124 519.327758 
L 313.238677 444.065813 
L 313.677783 550.82015 
L 313.897336 529.003834 
L 314.336442 280.552327 
L 314.555996 492.833016 
L 314.775549 489.805773 
L 314.995102 493.825666 
L 315.214655 451.657985 
L 315.434208 491.19142 
L 315.653761 387.190373 
L 315.873315 493.400666 
L 316.092868 479.840603 
L 316.312421 484.050785 
L 316.531974 409.581098 
L 316.97108 485.730327 
L 317.190633 467.406764 
L 317.62974 562.576361 
L 318.068846 519.045111 
L 318.288399 520.650486 
L 318.507952 540.201086 
L 318.727506 279.702913 
L 318.947059 517.159899 
L 319.166612 515.101858 
L 319.386165 507.529965 
L 319.605718 465.16237 
L 319.825271 470.967365 
L 320.264378 547.092613 
L 320.483931 443.232763 
L 320.703484 439.160451 
L 320.923037 514.930033 
L 321.14259 540.330829 
L 321.581696 493.57637 
L 321.80125 543.762568 
L 322.240356 468.412094 
L 322.459909 501.985941 
L 322.679462 441.813906 
L 322.899015 481.688962 
L 323.118569 495.258508 
L 323.338122 422.547153 
L 323.557675 491.985806 
L 323.777228 440.443603 
L 323.996781 537.80888 
L 324.435887 449.106414 
L 324.655441 541.32082 
L 324.874994 509.532343 
L 325.094547 534.366243 
L 325.3141 453.27958 
L 325.533653 445.670427 
L 325.753206 521.621675 
L 325.97276 494.020805 
L 326.192313 346.15915 
L 326.631419 513.505578 
L 326.850972 468.680485 
L 327.070525 487.676791 
L 327.290078 533.961322 
L 327.509632 537.127544 
L 327.729185 327.17716 
L 327.948738 475.509437 
L 328.168291 548.005052 
L 328.387844 508.330974 
L 328.607397 528.444089 
L 328.826951 461.289429 
L 329.046504 304.286439 
L 329.266057 502.930657 
L 329.48561 520.045266 
L 329.705163 511.843983 
L 329.924716 429.398363 
L 330.144269 501.003302 
L 330.363823 485.338508 
L 330.802929 493.090836 
L 331.022482 411.583264 
L 331.242035 490.502498 
L 331.461588 453.401846 
L 331.681142 470.203687 
L 331.900695 443.790805 
L 332.120248 499.248184 
L 332.339801 512.152362 
L 332.559354 482.655001 
L 333.437567 461.832043 
L 333.65712 417.042541 
L 333.876673 169.299954 
L 334.096226 411.183461 
L 334.315779 524.857004 
L 334.535333 475.853707 
L 334.754886 535.823996 
L 334.974439 547.366035 
L 335.193992 461.216698 
L 335.413545 553.940474 
L 335.633098 526.8895 
L 335.852651 539.885507 
L 336.072205 537.345491 
L 336.291758 516.569117 
L 336.511311 540.673024 
L 336.950417 343.619008 
L 337.16997 401.935381 
L 337.389524 397.135268 
L 337.82863 543.102051 
L 338.048183 550.08487 
L 338.926396 487.26097 
L 339.145949 523.05263 
L 339.365502 533.862506 
L 339.585055 440.768731 
L 339.804608 463.592418 
L 340.243715 550.074827 
L 340.463268 525.954054 
L 340.682821 462.563163 
L 340.902374 511.022587 
L 341.121927 426.637586 
L 341.34148 444.183175 
L 341.561033 518.802355 
L 341.780587 408.765924 
L 342.00014 514.834158 
L 342.219693 559.046695 
L 342.439246 390.375246 
L 342.658799 360.688721 
L 342.878352 393.767104 
L 343.097906 548.609585 
L 343.317459 544.027467 
L 343.537012 457.261724 
L 343.756565 489.160342 
L 343.976118 490.034213 
L 344.195671 547.932432 
L 344.415224 535.720428 
L 344.634778 516.26735 
L 344.854331 508.94759 
L 345.073884 495.411418 
L 345.293437 516.276599 
L 345.51299 523.085256 
L 345.732543 490.852602 
L 345.952096 550.135666 
L 346.17165 551.9848 
L 346.391203 494.282402 
L 346.610756 375.751471 
L 346.830309 429.102691 
L 347.049862 516.062506 
L 347.269415 515.803241 
L 347.488969 466.659912 
L 347.708522 310.094348 
L 347.928075 405.643572 
L 348.147628 408.840032 
L 348.586734 497.719958 
L 348.806287 482.819533 
L 349.025841 506.52165 
L 349.245394 495.663119 
L 349.464947 524.07628 
L 349.6845 399.804281 
L 349.904053 501.379409 
L 350.123606 505.6694 
L 350.34316 563.108919 
L 350.562713 503.933009 
L 350.782266 530.060795 
L 351.001819 534.978909 
L 351.440925 462.991807 
L 351.660478 518.39679 
L 351.880032 490.779631 
L 352.099585 508.60265 
L 352.319138 428.684287 
L 352.538691 393.225942 
L 352.977797 486.717604 
L 353.197351 504.229994 
L 353.416904 555.53022 
L 353.636457 547.172425 
L 354.075563 422.384371 
L 354.295116 430.876543 
L 354.953776 531.825568 
L 355.173329 490.188287 
L 355.392882 415.283519 
L 355.612435 537.216411 
L 355.831988 508.481878 
L 356.051542 533.616563 
L 356.490648 490.768587 
L 356.710201 509.808107 
L 356.929754 503.024463 
L 357.36886 532.983101 
L 357.588414 508.533685 
L 357.807967 427.029954 
L 358.02752 525.418592 
L 358.466626 440.268719 
L 358.686179 523.77591 
L 358.905733 547.891872 
L 359.125286 482.985522 
L 359.344839 523.547167 
L 359.564392 537.422838 
L 360.003498 408.536441 
L 360.223051 515.316872 
L 360.442605 382.604389 
L 360.662158 495.898119 
L 360.881711 495.425414 
L 361.101264 423.20182 
L 361.320817 535.788799 
L 361.54037 535.823858 
L 361.759924 510.187209 
L 361.979477 432.256197 
L 362.19903 515.772458 
L 362.418583 419.822224 
L 362.638136 375.475429 
L 362.857689 516.97275 
L 363.077242 453.949668 
L 363.296796 541.90772 
L 363.516349 548.758303 
L 363.735902 543.790812 
L 363.955455 535.536967 
L 364.175008 390.822023 
L 364.394561 515.018281 
L 364.614115 488.500055 
L 364.833668 532.973896 
L 365.053221 531.629203 
L 365.272774 441.982513 
L 365.492327 515.397635 
L 365.71188 512.172274 
L 365.931433 404.890625 
L 366.150987 464.491307 
L 366.37054 566.634509 
L 366.809646 402.858937 
L 367.029199 491.900058 
L 367.248752 435.694446 
L 367.468306 435.97326 
L 367.687859 485.819647 
L 367.907412 498.25764 
L 368.126965 483.774598 
L 368.346518 504.248775 
L 368.566071 549.179891 
L 368.785624 434.293677 
L 369.005178 485.140618 
L 369.224731 449.600223 
L 369.444284 454.63621 
L 369.663837 363.973 
L 369.88339 480.084714 
L 370.102943 460.549264 
L 370.54205 531.129788 
L 370.761603 482.680431 
L 370.981156 376.74429 
L 371.200709 481.280214 
L 371.420262 466.825356 
L 371.639815 433.739925 
L 371.859369 520.487498 
L 372.078922 490.847793 
L 372.298475 495.424958 
L 372.518028 493.15909 
L 372.737581 476.890513 
L 372.957134 484.953142 
L 373.176687 467.299107 
L 373.396241 407.60186 
L 373.615794 536.883016 
L 373.835347 438.473377 
L 374.0549 497.770045 
L 374.274453 456.525407 
L 374.494006 531.34213 
L 374.71356 428.578515 
L 374.933113 496.096477 
L 375.152666 489.322016 
L 375.372219 505.051503 
L 375.591772 408.019253 
L 375.811325 530.210101 
L 376.030878 546.823507 
L 376.250432 486.213575 
L 376.469985 527.602733 
L 376.689538 505.459654 
L 376.909091 412.844824 
L 377.128644 450.896966 
L 377.348197 538.107521 
L 377.787304 442.357436 
L 378.006857 508.244719 
L 378.22641 507.787116 
L 378.445963 538.726791 
L 378.665516 461.726216 
L 378.885069 530.996885 
L 379.104623 246.164788 
L 379.324176 467.223516 
L 379.543729 524.010057 
L 379.763282 537.797905 
L 379.982835 511.028321 
L 380.202388 558.39049 
L 380.421942 396.475265 
L 380.641495 400.464874 
L 380.861048 558.233257 
L 381.300154 505.737595 
L 381.519707 507.632053 
L 381.73926 540.859437 
L 381.958814 503.219036 
L 382.178367 518.837341 
L 382.39792 524.196653 
L 382.617473 520.926844 
L 382.837026 332.652171 
L 383.276133 534.074097 
L 383.495686 387.105555 
L 383.715239 415.277905 
L 383.934792 385.75947 
L 384.373898 513.136842 
L 384.593451 324.355618 
L 384.813005 486.325464 
L 385.032558 526.343995 
L 385.252111 490.927372 
L 385.471664 543.492527 
L 385.691217 555.241486 
L 385.91077 501.84501 
L 386.130324 505.652226 
L 386.349877 553.356507 
L 386.56943 461.3044 
L 386.788983 516.779386 
L 387.008536 441.960185 
L 387.228089 426.884785 
L 387.447642 439.203448 
L 387.667196 471.518137 
L 387.886749 534.134903 
L 388.106302 549.650856 
L 388.545408 381.414435 
L 388.764961 481.202635 
L 388.984515 445.989486 
L 389.204068 488.796179 
L 389.423621 499.48767 
L 389.643174 546.406746 
L 389.862727 522.70887 
L 390.08228 546.783158 
L 390.301833 480.122225 
L 390.521387 536.051699 
L 390.960493 559.484897 
L 391.180046 543.420422 
L 391.399599 390.667827 
L 391.619152 442.694241 
L 392.058259 319.264536 
L 392.277812 481.726068 
L 392.497365 378.982304 
L 392.716918 432.506748 
L 392.936471 415.59382 
L 393.156024 421.837662 
L 393.375578 503.334946 
L 393.595131 518.930057 
L 393.814684 498.462059 
L 394.034237 403.357606 
L 394.25379 260.041741 
L 394.692897 458.369299 
L 394.91245 398.111413 
L 395.132003 521.028799 
L 395.351556 552.580378 
L 395.571109 562.204139 
L 395.790662 561.904273 
L 396.010215 485.305756 
L 396.229769 491.964502 
L 396.449322 473.401211 
L 396.668875 428.240075 
L 397.107981 455.358817 
L 397.327534 535.966633 
L 397.547087 513.568703 
L 397.766641 525.735325 
L 397.986194 424.92519 
L 398.205747 514.19396 
L 398.4253 534.955186 
L 398.644853 423.988602 
L 398.864406 445.025586 
L 399.08396 448.096095 
L 399.303513 473.165058 
L 399.523066 526.326094 
L 399.962172 524.045904 
L 400.181725 536.897632 
L 400.620832 454.95134 
L 400.840385 521.878464 
L 401.059938 370.453949 
L 401.279491 478.597296 
L 401.499044 467.745429 
L 401.718597 356.280458 
L 401.938151 393.543577 
L 402.377257 566.482486 
L 402.59681 536.350979 
L 402.816363 385.507512 
L 403.035916 559.323109 
L 403.255469 445.241227 
L 403.475023 471.568415 
L 403.694576 518.703006 
L 403.914129 497.446844 
L 404.133682 560.199326 
L 404.792342 506.751366 
L 405.011895 533.363574 
L 405.231448 458.275391 
L 405.451001 527.52978 
L 405.670554 460.461651 
L 405.890107 492.580791 
L 406.10966 492.43474 
L 406.548767 562.412039 
L 406.76832 496.216573 
L 406.987873 510.336314 
L 407.207426 516.133331 
L 407.426979 542.980566 
L 407.646533 448.516403 
L 408.085639 492.956276 
L 408.305192 474.886049 
L 408.524745 538.6722 
L 408.744298 503.543001 
L 408.963851 490.000634 
L 409.183405 548.699775 
L 409.402958 388.908398 
L 409.622511 368.002988 
L 409.842064 436.104476 
L 410.061617 547.548982 
L 410.28117 529.430693 
L 410.500724 538.286463 
L 410.720277 486.782934 
L 410.93983 521.721703 
L 411.159383 467.443798 
L 411.378936 528.445592 
L 411.818042 355.197169 
L 412.257149 579.478303 
L 412.476702 360.978724 
L 412.696255 537.372187 
L 412.915808 551.415723 
L 413.135361 465.917098 
L 413.354915 549.268582 
L 413.574468 555.334617 
L 413.794021 462.717289 
L 414.013574 426.487455 
L 414.233127 524.686344 
L 414.45268 433.212362 
L 414.672233 433.375873 
L 414.891787 459.863363 
L 415.330893 572.460778 
L 415.550446 398.309311 
L 415.769999 505.450752 
L 415.989552 551.572848 
L 416.209106 395.478184 
L 416.428659 540.773865 
L 416.648212 506.726727 
L 416.867765 448.716782 
L 417.087318 446.855635 
L 417.306871 517.687965 
L 417.526424 364.188939 
L 417.965531 561.009939 
L 418.185084 529.371603 
L 418.404637 550.288427 
L 418.62419 539.017598 
L 418.843743 472.051731 
L 419.063297 471.255453 
L 419.28285 440.640912 
L 419.502403 508.130255 
L 419.721956 516.119984 
L 419.941509 494.068607 
L 420.161062 530.580573 
L 420.380615 506.461923 
L 420.600169 515.909078 
L 420.819722 438.063445 
L 421.039275 516.064299 
L 421.258828 551.381723 
L 421.478381 451.16621 
L 421.697934 496.1899 
L 421.917488 441.587805 
L 422.137041 450.792 
L 422.576147 458.78321 
L 422.7957 524.661248 
L 423.015253 488.137653 
L 423.234806 507.084417 
L 423.45436 548.041557 
L 423.673913 545.093177 
L 424.113019 427.97653 
L 424.332572 436.656571 
L 424.552125 508.249654 
L 424.771678 539.420387 
L 424.991232 447.848615 
L 425.210785 454.883245 
L 425.430338 408.940714 
L 425.869444 531.17058 
L 426.088997 421.927151 
L 426.308551 524.272267 
L 426.528104 459.431714 
L 426.747657 443.971975 
L 426.96721 419.374435 
L 427.186763 466.585142 
L 427.406316 442.604131 
L 427.625869 501.883889 
L 427.845423 509.793238 
L 428.064976 465.640754 
L 428.284529 519.75725 
L 428.504082 533.745289 
L 428.723635 492.692956 
L 428.943188 487.493265 
L 429.162742 499.132272 
L 429.382295 534.531961 
L 429.601848 527.152838 
L 430.040954 497.507792 
L 430.260507 522.082702 
L 430.48006 484.225572 
L 430.699614 498.688033 
L 430.919167 404.306836 
L 431.13872 393.119772 
L 431.358273 491.967189 
L 431.797379 504.904902 
L 432.016933 408.736544 
L 432.236486 570.124225 
L 432.895145 388.235091 
L 433.114698 374.290329 
L 433.334251 408.532885 
L 433.773358 528.129374 
L 433.992911 406.584045 
L 434.212464 506.051354 
L 434.432017 408.165979 
L 434.65157 475.545332 
L 434.871124 468.717663 
L 435.31023 550.822914 
L 435.529783 478.008734 
L 435.749336 537.470118 
L 435.968889 533.348819 
L 436.188442 525.920909 
L 436.627549 400.816731 
L 436.847102 489.562393 
L 437.066655 484.461645 
L 437.286208 487.923191 
L 437.725315 553.563703 
L 437.944868 472.486399 
L 438.164421 478.119794 
L 438.383974 330.555507 
L 438.603527 322.321793 
L 439.042633 409.696971 
L 439.262187 522.315883 
L 439.48174 440.051137 
L 439.701293 508.686696 
L 439.920846 476.858376 
L 440.140399 481.888523 
L 440.359952 525.061816 
L 440.579506 504.165264 
L 440.799059 522.601159 
L 441.018612 505.60192 
L 441.238165 537.64976 
L 441.896824 453.655244 
L 442.116378 409.285961 
L 442.335931 484.611303 
L 442.555484 372.415094 
L 442.99459 544.671134 
L 443.433697 515.920032 
L 443.65325 535.352259 
L 443.872803 531.73935 
L 444.092356 531.544351 
L 444.311909 474.340163 
L 444.531462 454.502567 
L 444.751015 493.506369 
L 444.970569 505.1848 
L 445.190122 495.96828 
L 445.409675 392.175751 
L 445.629228 355.815171 
L 445.848781 442.566977 
L 446.068334 482.058983 
L 446.287888 500.671245 
L 446.726994 515.066185 
L 446.946547 470.74704 
L 447.1661 281.510952 
L 447.385653 486.348408 
L 447.605206 510.996669 
L 447.82476 566.573749 
L 448.044313 430.873156 
L 448.263866 481.241585 
L 448.483419 459.383936 
L 448.702972 507.035952 
L 448.922525 523.412601 
L 449.361632 439.372376 
L 449.581185 543.039297 
L 449.800738 405.099796 
L 450.020291 522.374933 
L 450.239844 481.620989 
L 450.459397 548.874873 
L 450.898504 496.642173 
L 451.118057 490.977288 
L 451.33761 538.280626 
L 451.557163 480.277894 
L 451.996269 536.155845 
L 452.215823 538.488046 
L 452.435376 522.700323 
L 452.654929 386.593105 
L 452.874482 327.043519 
L 453.094035 488.321009 
L 453.313588 517.364225 
L 453.533142 499.249837 
L 453.752695 537.019241 
L 453.972248 486.336077 
L 454.191801 547.438131 
L 454.411354 482.678777 
L 454.630907 509.821521 
L 455.070014 293.782364 
L 455.50912 517.598049 
L 455.728673 512.055345 
L 456.167779 460.482281 
L 456.387333 519.080783 
L 456.826439 469.959351 
L 457.045992 421.857294 
L 457.265545 400.893673 
L 457.485098 521.543926 
L 457.924205 431.853005 
L 458.143758 553.354438 
L 458.363311 437.776683 
L 458.582864 535.802927 
L 458.802417 465.733697 
L 459.02197 545.943389 
L 459.241524 425.854823 
L 459.461077 488.692405 
L 459.68063 502.106334 
L 459.900183 376.372783 
L 460.119736 514.136214 
L 460.339289 430.048247 
L 460.558842 508.242745 
L 460.778396 519.398885 
L 460.997949 510.574209 
L 461.217502 359.015628 
L 461.437055 531.306937 
L 461.656608 537.746725 
L 461.876161 527.129042 
L 462.095715 532.220879 
L 462.315268 480.322908 
L 462.534821 512.556213 
L 462.754374 442.176731 
L 462.973927 533.232421 
L 463.19348 484.867832 
L 463.413033 537.790405 
L 463.632587 493.757293 
L 463.85214 493.868185 
L 464.071693 513.592629 
L 464.291246 553.854244 
L 464.510799 498.040851 
L 464.730352 513.401994 
L 464.949906 438.862688 
L 465.608565 548.02001 
L 465.828118 500.176049 
L 466.047671 564.804031 
L 466.267224 450.185963 
L 466.706331 499.519628 
L 466.925884 355.084554 
L 467.36499 452.435685 
L 467.584543 471.509338 
L 468.02365 527.157267 
L 468.243203 504.931717 
L 468.462756 433.908375 
L 468.682309 495.980313 
L 468.901862 511.56177 
L 469.340969 424.699565 
L 469.560522 545.393613 
L 469.780075 487.139759 
L 469.999628 476.92221 
L 470.438734 403.141685 
L 470.658288 559.550403 
L 470.877841 478.753646 
L 471.097394 574.833692 
L 471.316947 472.969808 
L 471.756053 547.47257 
L 471.975606 533.571439 
L 472.19516 553.700215 
L 472.414713 452.634868 
L 472.853819 505.156317 
L 473.073372 440.429753 
L 473.292925 531.85378 
L 473.512479 503.4956 
L 473.951585 551.940739 
L 474.171138 549.776207 
L 474.390691 555.931109 
L 474.610244 436.551932 
L 474.829797 549.162033 
L 475.049351 542.132299 
L 475.268904 473.501868 
L 475.488457 523.645281 
L 475.70801 534.362604 
L 475.927563 479.958213 
L 476.147116 502.512688 
L 476.366669 374.192972 
L 476.586223 547.422703 
L 476.805776 557.490398 
L 477.025329 383.109807 
L 477.244882 464.661436 
L 477.464435 482.634479 
L 477.683988 515.19651 
L 477.903542 524.867148 
L 478.342648 447.854521 
L 478.562201 381.266448 
L 478.781754 387.448017 
L 479.001307 477.727506 
L 479.22086 449.337064 
L 479.440414 536.253943 
L 479.659967 524.357818 
L 479.87952 490.148652 
L 480.099073 530.292798 
L 480.318626 438.624745 
L 480.538179 560.745336 
L 480.757733 573.275972 
L 480.977286 543.285983 
L 481.196839 538.846113 
L 481.416392 521.964203 
L 481.635945 528.439298 
L 481.855498 517.118466 
L 482.075051 492.234568 
L 482.294605 509.876568 
L 482.514158 558.262019 
L 482.733711 516.346929 
L 482.953264 498.905227 
L 483.172817 536.258136 
L 483.39237 470.815771 
L 483.611924 489.970041 
L 483.831477 484.802046 
L 484.05103 440.245673 
L 484.270583 538.867613 
L 484.490136 552.190453 
L 484.709689 577.254772 
L 484.929242 566.385865 
L 485.148796 528.688484 
L 485.368349 529.693176 
L 485.587902 555.339138 
L 485.807455 511.501265 
L 486.027008 516.961111 
L 486.246561 473.781072 
L 486.466115 550.329696 
L 486.685668 468.655041 
L 486.905221 308.028981 
L 487.124774 469.679246 
L 487.344327 536.435176 
L 487.56388 510.003235 
L 487.783433 538.038758 
L 488.002987 500.584802 
L 488.22254 488.262456 
L 488.661646 414.932313 
L 488.881199 566.564952 
L 489.100752 494.015584 
L 489.320306 504.498206 
L 489.539859 544.667502 
L 489.759412 309.346762 
L 489.978965 514.439866 
L 490.198518 497.962311 
L 490.418071 500.321946 
L 490.857178 550.562965 
L 491.076731 504.780027 
L 491.296284 511.692743 
L 491.515837 487.158218 
L 491.73539 546.686216 
L 491.954943 518.911819 
L 492.174497 434.751034 
L 492.39405 534.372531 
L 492.613603 511.655309 
L 492.833156 508.964366 
L 493.272262 465.8411 
L 493.491815 531.834472 
L 493.711369 440.395506 
L 493.930922 522.654681 
L 494.150475 539.862721 
L 494.370028 418.291555 
L 494.589581 438.124467 
L 494.809134 526.440562 
L 495.028688 542.048979 
L 495.248241 503.961085 
L 495.467794 446.463008 
L 495.687347 511.96285 
L 495.9069 458.771514 
L 496.126453 475.561466 
L 496.346006 426.380263 
L 496.56556 560.326893 
L 496.785113 540.046659 
L 497.004666 443.079116 
L 497.224219 401.936721 
L 497.443772 390.491097 
L 497.663325 541.83768 
L 497.882879 506.924873 
L 498.102432 573.16254 
L 498.321985 489.080515 
L 498.541538 516.756374 
L 498.761091 523.758423 
L 498.980644 477.732195 
L 499.200197 519.820251 
L 499.419751 517.633901 
L 499.639304 379.781108 
L 499.858857 508.149209 
L 500.07841 483.582863 
L 500.297963 527.461629 
L 500.517516 532.725807 
L 500.956623 508.594062 
L 501.176176 560.115717 
L 501.395729 514.794613 
L 501.615282 444.400335 
L 501.834835 507.573288 
L 502.054388 476.448069 
L 502.273942 490.509233 
L 502.493495 371.532571 
L 502.713048 528.338665 
L 502.932601 521.749725 
L 503.152154 453.825787 
L 503.371707 467.433243 
L 503.59126 556.521315 
L 503.810814 502.265007 
L 504.030367 488.84348 
L 504.24992 433.198976 
L 504.689026 548.853571 
L 504.908579 491.500594 
L 505.128133 558.574882 
L 505.347686 465.487599 
L 505.567239 498.244774 
L 505.786792 287.877626 
L 506.006345 485.144188 
L 506.225898 527.597093 
L 506.445451 469.851226 
L 506.665005 534.183592 
L 506.884558 535.570347 
L 507.323664 454.368734 
L 507.543217 550.175337 
L 507.76277 406.552564 
L 507.982324 423.353506 
L 508.201877 541.341359 
L 508.42143 420.003999 
L 508.640983 434.711603 
L 509.080089 544.860006 
L 509.299642 536.262375 
L 509.519196 462.70434 
L 509.738749 520.913591 
L 509.958302 437.313636 
L 510.177855 523.541945 
L 510.616961 537.516872 
L 510.836515 349.807756 
L 511.056068 513.997286 
L 511.275621 553.244972 
L 511.714727 513.12632 
L 511.93428 509.168007 
L 512.153833 476.802285 
L 512.373387 489.716495 
L 512.59294 513.32569 
L 512.812493 553.418719 
L 513.032046 434.478898 
L 513.251599 546.174066 
L 513.471152 374.560191 
L 513.690706 571.43193 
L 514.129812 490.512018 
L 514.349365 481.156327 
L 514.568918 525.883176 
L 514.788471 504.808483 
L 515.008024 557.027712 
L 515.227578 528.808039 
L 515.447131 521.783407 
L 515.666684 337.912727 
L 515.886237 521.285906 
L 516.10579 491.286059 
L 516.325343 520.263589 
L 516.544897 511.691288 
L 516.76445 459.403781 
L 516.984003 554.871396 
L 517.203556 523.212437 
L 517.642662 542.062264 
L 517.862215 538.745808 
L 518.081769 441.885848 
L 518.301322 536.015109 
L 518.520875 511.56269 
L 518.740428 554.324483 
L 518.959981 534.453005 
L 519.179534 443.056231 
L 519.399088 517.688562 
L 519.618641 520.852968 
L 519.838194 495.159188 
L 520.057747 495.967491 
L 520.2773 527.143562 
L 520.496853 539.517624 
L 520.716406 500.025609 
L 520.93596 539.753725 
L 521.155513 462.868154 
L 521.375066 519.195631 
L 521.594619 444.754526 
L 521.814172 511.600868 
L 522.033725 493.032228 
L 522.253279 483.880726 
L 522.472832 522.865303 
L 522.692385 457.827568 
L 522.911938 518.713684 
L 523.131491 469.439452 
L 523.351044 503.063074 
L 523.570597 452.703209 
L 523.790151 525.028196 
L 524.009704 420.155222 
L 524.229257 512.91201 
L 524.44881 344.1186 
L 524.668363 443.662613 
L 524.887916 481.928855 
L 525.10747 500.617083 
L 525.327023 476.654959 
L 525.546576 393.468745 
L 525.766129 519.066154 
L 525.985682 520.598973 
L 526.205235 422.071431 
L 526.424788 443.073231 
L 526.644342 504.144045 
L 526.863895 463.485425 
L 527.083448 482.255259 
L 527.303001 536.390442 
L 527.522554 521.143601 
L 527.742107 485.609325 
L 527.96166 492.244496 
L 528.181214 481.642607 
L 528.400767 416.34924 
L 528.62032 507.158853 
L 528.839873 522.876002 
L 529.059426 519.873799 
L 529.278979 393.923232 
L 529.498533 526.363194 
L 529.937639 323.886771 
L 530.376745 500.682954 
L 530.596298 557.470822 
L 530.815851 463.383545 
L 531.035405 423.293456 
L 531.254958 525.814112 
L 531.474511 524.866827 
L 531.694064 457.471944 
L 531.913617 529.206634 
L 532.13317 336.132608 
L 532.352724 491.762859 
L 532.572277 490.078744 
L 532.79183 485.963354 
L 533.011383 539.449359 
L 533.230936 511.047718 
L 533.450489 500.322953 
L 533.670042 510.182622 
L 533.889596 473.127689 
L 534.109149 403.254796 
L 534.767808 554.681884 
L 534.987361 536.969537 
L 535.206915 559.502644 
L 535.426468 464.955722 
L 535.646021 490.862395 
L 535.865574 311.478978 
L 536.085127 446.849149 
L 536.30468 488.667787 
L 536.524233 377.602653 
L 536.96334 512.521187 
L 537.182893 511.686559 
L 537.402446 463.26875 
L 537.621999 493.731577 
L 537.841552 499.237097 
L 538.061106 468.095227 
L 538.280659 525.494746 
L 538.500212 469.435977 
L 538.719765 484.902803 
L 539.158871 529.865032 
L 539.378424 495.958538 
L 539.597978 522.707417 
L 539.817531 429.386865 
L 540.037084 408.857547 
L 540.256637 523.781073 
L 540.47619 541.737371 
L 540.695743 530.254742 
L 540.915297 532.19376 
L 541.13485 493.217637 
L 541.354403 546.411243 
L 541.573956 547.091146 
L 541.793509 522.148132 
L 542.013062 431.743356 
L 542.232615 474.091543 
L 542.452169 444.16092 
L 542.671722 506.585933 
L 542.891275 480.519689 
L 543.110828 544.224802 
L 543.330381 468.060765 
L 543.549934 473.031398 
L 543.769488 485.33176 
L 543.989041 458.266449 
L 544.428147 502.681421 
L 544.6477 399.031032 
L 544.867253 503.442063 
L 545.086806 515.11792 
L 545.30636 474.989928 
L 545.525913 410.651898 
L 545.745466 446.009878 
L 545.745466 446.009878 
" style="fill:none;stroke:#96c69a;stroke-linecap:round;stroke-width:3;"/>
   </g>
   <g id="line2d_2"/>
   <g id="patch_3">
    <path d="M 84.914375 603.86 
L 84.914375 109.484571 
" style="fill:none;stroke:#262626;stroke-linecap:square;stroke-linejoin:miter;stroke-width:2.5;"/>
   </g>
   <g id="patch_4">
    <path d="M 84.914375 603.86 
L 567.689804 603.86 
" style="fill:none;stroke:#262626;stroke-linecap:square;stroke-linejoin:miter;stroke-width:2.5;"/>
   </g>
   <g id="legend_1">
    <g id="patch_5">
     <path d="M 507.816366 598.86 
L 560.689804 598.86 
Q 562.689804 598.86 562.689804 596.86 
L 562.689804 554.954375 
Q 562.689804 552.954375 560.689804 552.954375 
L 507.816366 552.954375 
Q 505.816366 552.954375 505.816366 554.954375 
L 505.816366 596.86 
Q 505.816366 598.86 507.816366 598.86 
z
" style="fill:#ffffff;opacity:0.8;stroke:#cccccc;stroke-linejoin:miter;stroke-width:2;"/>
    </g>
    <g id="text_15">
     <!-- $n_\tau$ -->
     <g style="fill:#262626;" transform="translate(521.173085 575.190625)scale(0.24 -0.24)">
      <defs>
       <path d="M 3566 2113 
L 3156 0 
L 2578 0 
L 2988 2091 
Q 3016 2238 3031 2350 
Q 3047 2463 3047 2528 
Q 3047 2791 2881 2937 
Q 2716 3084 2419 3084 
Q 1956 3084 1622 2776 
Q 1288 2469 1184 1941 
L 800 0 
L 225 0 
L 903 3500 
L 1478 3500 
L 1363 2950 
Q 1603 3253 1940 3418 
Q 2278 3584 2650 3584 
Q 3113 3584 3367 3334 
Q 3622 3084 3622 2631 
Q 3622 2519 3608 2391 
Q 3594 2263 3566 2113 
z
" id="DejaVuSans-Oblique-6e" transform="scale(0.015625)"/>
       <path d="M 2103 638 
Q 2188 488 2525 488 
L 2800 488 
L 2706 0 
L 2363 0 
Q 1800 0 1600 300 
Q 1403 606 1534 1269 
L 1856 2925 
L 541 2925 
L 653 3500 
L 3881 3500 
L 3769 2925 
L 2444 2925 
L 2113 1234 
Q 2025 781 2103 638 
z
" id="DejaVuSans-Oblique-3c4" transform="scale(0.015625)"/>
      </defs>
      <use xlink:href="#DejaVuSans-Oblique-6e"/>
      <use transform="translate(63.378906 -16.40625)scale(0.7)" xlink:href="#DejaVuSans-Oblique-3c4"/>
     </g>
    </g>
    <g id="line2d_3">
     <path d="M 509.816366 589.280313 
L 529.816366 589.280313 
" style="fill:none;stroke:#96c69a;stroke-linecap:round;stroke-width:3;"/>
    </g>
    <g id="line2d_4"/>
    <g id="text_16">
     <!-- 160 -->
     <g style="fill:#262626;" transform="translate(537.816366 592.780313)scale(0.1 -0.1)">
      <defs>
       <path d="M 750 831 
L 1813 831 
L 1813 3847 
L 722 3622 
L 722 4441 
L 1806 4666 
L 2950 4666 
L 2950 831 
L 4013 831 
L 4013 0 
L 750 0 
L 750 831 
z
" id="DejaVuSans-Bold-31" transform="scale(0.015625)"/>
       <path d="M 2316 2303 
Q 2000 2303 1842 2098 
Q 1684 1894 1684 1484 
Q 1684 1075 1842 870 
Q 2000 666 2316 666 
Q 2634 666 2792 870 
Q 2950 1075 2950 1484 
Q 2950 1894 2792 2098 
Q 2634 2303 2316 2303 
z
M 3803 4544 
L 3803 3681 
Q 3506 3822 3243 3889 
Q 2981 3956 2731 3956 
Q 2194 3956 1894 3657 
Q 1594 3359 1544 2772 
Q 1750 2925 1990 3001 
Q 2231 3078 2516 3078 
Q 3231 3078 3670 2659 
Q 4109 2241 4109 1563 
Q 4109 813 3618 361 
Q 3128 -91 2303 -91 
Q 1394 -91 895 523 
Q 397 1138 397 2266 
Q 397 3422 980 4083 
Q 1563 4744 2578 4744 
Q 2900 4744 3203 4694 
Q 3506 4644 3803 4544 
z
" id="DejaVuSans-Bold-36" transform="scale(0.015625)"/>
       <path d="M 2944 2338 
Q 2944 3213 2780 3570 
Q 2616 3928 2228 3928 
Q 1841 3928 1675 3570 
Q 1509 3213 1509 2338 
Q 1509 1453 1675 1090 
Q 1841 728 2228 728 
Q 2613 728 2778 1090 
Q 2944 1453 2944 2338 
z
M 4147 2328 
Q 4147 1169 3647 539 
Q 3147 -91 2228 -91 
Q 1306 -91 806 539 
Q 306 1169 306 2328 
Q 306 3491 806 4120 
Q 1306 4750 2228 4750 
Q 3147 4750 3647 4120 
Q 4147 3491 4147 2328 
z
" id="DejaVuSans-Bold-30" transform="scale(0.015625)"/>
      </defs>
      <use xlink:href="#DejaVuSans-Bold-31"/>
      <use x="69.580078" xlink:href="#DejaVuSans-Bold-36"/>
      <use x="139.160156" xlink:href="#DejaVuSans-Bold-30"/>
     </g>
    </g>
   </g>
  </g>
  <g id="axes_2">
   <g id="patch_6">
    <path d="M 84.914375 92.437143 
L 567.689804 92.437143 
L 567.689804 7.2 
L 84.914375 7.2 
z
" style="fill:none;"/>
   </g>
   <g id="matplotlib.axis_3">
    <g id="xtick_7"/>
    <g id="xtick_8"/>
    <g id="xtick_9"/>
    <g id="xtick_10"/>
    <g id="xtick_11"/>
    <g id="xtick_12"/>
   </g>
   <g id="matplotlib.axis_4">
    <g id="ytick_7">
     <g id="text_17">
      <!-- 0 -->
      <g style="fill:#262626;" transform="translate(55.416875 100.795424)scale(0.22 -0.22)">
       <use xlink:href="#DejaVuSans-30"/>
      </g>
     </g>
    </g>
    <g id="ytick_8">
     <g id="text_18">
      <!-- 100 -->
      <g style="fill:#262626;" transform="translate(27.421875 48.082287)scale(0.22 -0.22)">
       <use xlink:href="#DejaVuSans-31"/>
       <use x="63.623047" xlink:href="#DejaVuSans-30"/>
       <use x="127.246094" xlink:href="#DejaVuSans-30"/>
      </g>
     </g>
    </g>
   </g>
   <g id="patch_7">
    <path clip-path="url(#p4cc65179ac)" d="M 106.858713 92.437143 
L 140.619232 92.437143 
L 140.619232 11.258912 
L 106.858713 11.258912 
z
" style="fill:#96c69a;fill-opacity:0.5;stroke:#ffffff;stroke-linejoin:miter;stroke-width:2;"/>
   </g>
   <g id="patch_8">
    <path clip-path="url(#p4cc65179ac)" d="M 140.619232 92.437143 
L 174.379752 92.437143 
L 174.379752 11.258912 
L 140.619232 11.258912 
z
" style="fill:#96c69a;fill-opacity:0.5;stroke:#ffffff;stroke-linejoin:miter;stroke-width:2;"/>
   </g>
   <g id="patch_9">
    <path clip-path="url(#p4cc65179ac)" d="M 174.379752 92.437143 
L 208.140271 92.437143 
L 208.140271 11.258912 
L 174.379752 11.258912 
z
" style="fill:#96c69a;fill-opacity:0.5;stroke:#ffffff;stroke-linejoin:miter;stroke-width:2;"/>
   </g>
   <g id="patch_10">
    <path clip-path="url(#p4cc65179ac)" d="M 208.140271 92.437143 
L 241.900791 92.437143 
L 241.900791 11.258912 
L 208.140271 11.258912 
z
" style="fill:#96c69a;fill-opacity:0.5;stroke:#ffffff;stroke-linejoin:miter;stroke-width:2;"/>
   </g>
   <g id="patch_11">
    <path clip-path="url(#p4cc65179ac)" d="M 241.900791 92.437143 
L 275.66131 92.437143 
L 275.66131 11.786043 
L 241.900791 11.786043 
z
" style="fill:#96c69a;fill-opacity:0.5;stroke:#ffffff;stroke-linejoin:miter;stroke-width:2;"/>
   </g>
   <g id="patch_12">
    <path clip-path="url(#p4cc65179ac)" d="M 275.66131 92.437143 
L 309.42183 92.437143 
L 309.42183 11.258912 
L 275.66131 11.258912 
z
" style="fill:#96c69a;fill-opacity:0.5;stroke:#ffffff;stroke-linejoin:miter;stroke-width:2;"/>
   </g>
   <g id="patch_13">
    <path clip-path="url(#p4cc65179ac)" d="M 309.42183 92.437143 
L 343.182349 92.437143 
L 343.182349 11.258912 
L 309.42183 11.258912 
z
" style="fill:#96c69a;fill-opacity:0.5;stroke:#ffffff;stroke-linejoin:miter;stroke-width:2;"/>
   </g>
   <g id="patch_14">
    <path clip-path="url(#p4cc65179ac)" d="M 343.182349 92.437143 
L 376.942869 92.437143 
L 376.942869 11.258912 
L 343.182349 11.258912 
z
" style="fill:#96c69a;fill-opacity:0.5;stroke:#ffffff;stroke-linejoin:miter;stroke-width:2;"/>
   </g>
   <g id="patch_15">
    <path clip-path="url(#p4cc65179ac)" d="M 376.942869 92.437143 
L 410.703388 92.437143 
L 410.703388 11.786043 
L 376.942869 11.786043 
z
" style="fill:#96c69a;fill-opacity:0.5;stroke:#ffffff;stroke-linejoin:miter;stroke-width:2;"/>
   </g>
   <g id="patch_16">
    <path clip-path="url(#p4cc65179ac)" d="M 410.703388 92.437143 
L 444.463907 92.437143 
L 444.463907 11.258912 
L 410.703388 11.258912 
z
" style="fill:#96c69a;fill-opacity:0.5;stroke:#ffffff;stroke-linejoin:miter;stroke-width:2;"/>
   </g>
   <g id="patch_17">
    <path clip-path="url(#p4cc65179ac)" d="M 444.463907 92.437143 
L 478.224427 92.437143 
L 478.224427 11.258912 
L 444.463907 11.258912 
z
" style="fill:#96c69a;fill-opacity:0.5;stroke:#ffffff;stroke-linejoin:miter;stroke-width:2;"/>
   </g>
   <g id="patch_18">
    <path clip-path="url(#p4cc65179ac)" d="M 478.224427 92.437143 
L 511.984946 92.437143 
L 511.984946 11.258912 
L 478.224427 11.258912 
z
" style="fill:#96c69a;fill-opacity:0.5;stroke:#ffffff;stroke-linejoin:miter;stroke-width:2;"/>
   </g>
   <g id="patch_19">
    <path clip-path="url(#p4cc65179ac)" d="M 511.984946 92.437143 
L 545.745466 92.437143 
L 545.745466 11.258912 
L 511.984946 11.258912 
z
" style="fill:#96c69a;fill-opacity:0.5;stroke:#ffffff;stroke-linejoin:miter;stroke-width:2;"/>
   </g>
   <g id="patch_20">
    <path d="M 84.914375 92.437143 
L 84.914375 7.2 
" style="fill:none;stroke:#262626;stroke-linecap:square;stroke-linejoin:miter;stroke-width:2.5;"/>
   </g>
   <g id="patch_21">
    <path d="M 84.914375 92.437143 
L 567.689804 92.437143 
" style="fill:none;stroke:#262626;stroke-linecap:square;stroke-linejoin:miter;stroke-width:2.5;"/>
   </g>
  </g>
  <g id="axes_3">
   <g id="patch_22">
    <path d="M 584.337232 603.86 
L 667.574375 603.86 
L 667.574375 109.484571 
L 584.337232 109.484571 
z
" style="fill:none;"/>
   </g>
   <g id="matplotlib.axis_5">
    <g id="xtick_13">
     <g id="text_19">
      <!-- 0 -->
      <g style="fill:#262626;" transform="translate(577.338482 636.076563)scale(0.22 -0.22)">
       <use xlink:href="#DejaVuSans-30"/>
      </g>
     </g>
    </g>
    <g id="xtick_14">
     <g id="text_20">
      <!-- 200 -->
      <g style="fill:#262626;" transform="translate(645.066208 636.076563)scale(0.22 -0.22)">
       <use xlink:href="#DejaVuSans-32"/>
       <use x="63.623047" xlink:href="#DejaVuSans-30"/>
       <use x="127.246094" xlink:href="#DejaVuSans-30"/>
      </g>
     </g>
    </g>
   </g>
   <g id="matplotlib.axis_6">
    <g id="ytick_9"/>
    <g id="ytick_10"/>
    <g id="ytick_11"/>
    <g id="ytick_12"/>
    <g id="ytick_13"/>
    <g id="ytick_14"/>
   </g>
   <g id="patch_23">
    <path clip-path="url(#p8e3abc19d0)" d="M 584.337232 581.38839 
L 589.240746 581.38839 
L 589.240746 570.936478 
L 584.337232 570.936478 
z
" style="fill:#96c69a;fill-opacity:0.5;stroke:#ffffff;stroke-linejoin:miter;stroke-width:1.045191;"/>
   </g>
   <g id="patch_24">
    <path clip-path="url(#p8e3abc19d0)" d="M 584.337232 570.936478 
L 596.596016 570.936478 
L 596.596016 560.484566 
L 584.337232 560.484566 
z
" style="fill:#96c69a;fill-opacity:0.5;stroke:#ffffff;stroke-linejoin:miter;stroke-width:1.045191;"/>
   </g>
   <g id="patch_25">
    <path clip-path="url(#p8e3abc19d0)" d="M 584.337232 560.484566 
L 619.479079 560.484566 
L 619.479079 550.032654 
L 584.337232 550.032654 
z
" style="fill:#96c69a;fill-opacity:0.5;stroke:#ffffff;stroke-linejoin:miter;stroke-width:1.045191;"/>
   </g>
   <g id="patch_26">
    <path clip-path="url(#p8e3abc19d0)" d="M 584.337232 550.032654 
L 636.641377 550.032654 
L 636.641377 539.580742 
L 584.337232 539.580742 
z
" style="fill:#96c69a;fill-opacity:0.5;stroke:#ffffff;stroke-linejoin:miter;stroke-width:1.045191;"/>
   </g>
   <g id="patch_27">
    <path clip-path="url(#p8e3abc19d0)" d="M 584.337232 539.580742 
L 652.577796 539.580742 
L 652.577796 529.128831 
L 584.337232 529.128831 
z
" style="fill:#96c69a;fill-opacity:0.5;stroke:#ffffff;stroke-linejoin:miter;stroke-width:1.045191;"/>
   </g>
   <g id="patch_28">
    <path clip-path="url(#p8e3abc19d0)" d="M 584.337232 529.128831 
L 661.567571 529.128831 
L 661.567571 518.676919 
L 584.337232 518.676919 
z
" style="fill:#96c69a;fill-opacity:0.5;stroke:#ffffff;stroke-linejoin:miter;stroke-width:1.045191;"/>
   </g>
   <g id="patch_29">
    <path clip-path="url(#p8e3abc19d0)" d="M 584.337232 518.676919 
L 663.610702 518.676919 
L 663.610702 508.225007 
L 584.337232 508.225007 
z
" style="fill:#96c69a;fill-opacity:0.5;stroke:#ffffff;stroke-linejoin:miter;stroke-width:1.045191;"/>
   </g>
   <g id="patch_30">
    <path clip-path="url(#p8e3abc19d0)" d="M 584.337232 508.225007 
L 648.082909 508.225007 
L 648.082909 497.773095 
L 584.337232 497.773095 
z
" style="fill:#96c69a;fill-opacity:0.5;stroke:#ffffff;stroke-linejoin:miter;stroke-width:1.045191;"/>
   </g>
   <g id="patch_31">
    <path clip-path="url(#p8e3abc19d0)" d="M 584.337232 497.773095 
L 657.889936 497.773095 
L 657.889936 487.321183 
L 584.337232 487.321183 
z
" style="fill:#96c69a;fill-opacity:0.5;stroke:#ffffff;stroke-linejoin:miter;stroke-width:1.045191;"/>
   </g>
   <g id="patch_32">
    <path clip-path="url(#p8e3abc19d0)" d="M 584.337232 487.321183 
L 648.491535 487.321183 
L 648.491535 476.869272 
L 584.337232 476.869272 
z
" style="fill:#96c69a;fill-opacity:0.5;stroke:#ffffff;stroke-linejoin:miter;stroke-width:1.045191;"/>
   </g>
   <g id="patch_33">
    <path clip-path="url(#p8e3abc19d0)" d="M 584.337232 476.869272 
L 630.920611 476.869272 
L 630.920611 466.41736 
L 584.337232 466.41736 
z
" style="fill:#96c69a;fill-opacity:0.5;stroke:#ffffff;stroke-linejoin:miter;stroke-width:1.045191;"/>
   </g>
   <g id="patch_34">
    <path clip-path="url(#p8e3abc19d0)" d="M 584.337232 466.41736 
L 627.242976 466.41736 
L 627.242976 455.965448 
L 584.337232 455.965448 
z
" style="fill:#96c69a;fill-opacity:0.5;stroke:#ffffff;stroke-linejoin:miter;stroke-width:1.045191;"/>
   </g>
   <g id="patch_35">
    <path clip-path="url(#p8e3abc19d0)" d="M 584.337232 455.965448 
L 614.575566 455.965448 
L 614.575566 445.513536 
L 584.337232 445.513536 
z
" style="fill:#96c69a;fill-opacity:0.5;stroke:#ffffff;stroke-linejoin:miter;stroke-width:1.045191;"/>
   </g>
   <g id="patch_36">
    <path clip-path="url(#p8e3abc19d0)" d="M 584.337232 445.513536 
L 621.930836 445.513536 
L 621.930836 435.061624 
L 584.337232 435.061624 
z
" style="fill:#96c69a;fill-opacity:0.5;stroke:#ffffff;stroke-linejoin:miter;stroke-width:1.045191;"/>
   </g>
   <g id="patch_37">
    <path clip-path="url(#p8e3abc19d0)" d="M 584.337232 435.061624 
L 609.672052 435.061624 
L 609.672052 424.609712 
L 584.337232 424.609712 
z
" style="fill:#96c69a;fill-opacity:0.5;stroke:#ffffff;stroke-linejoin:miter;stroke-width:1.045191;"/>
   </g>
   <g id="patch_38">
    <path clip-path="url(#p8e3abc19d0)" d="M 584.337232 424.609712 
L 602.725408 424.609712 
L 602.725408 414.157801 
L 584.337232 414.157801 
z
" style="fill:#96c69a;fill-opacity:0.5;stroke:#ffffff;stroke-linejoin:miter;stroke-width:1.045191;"/>
   </g>
   <g id="patch_39">
    <path clip-path="url(#p8e3abc19d0)" d="M 584.337232 414.157801 
L 605.585791 414.157801 
L 605.585791 403.705889 
L 584.337232 403.705889 
z
" style="fill:#96c69a;fill-opacity:0.5;stroke:#ffffff;stroke-linejoin:miter;stroke-width:1.045191;"/>
   </g>
   <g id="patch_40">
    <path clip-path="url(#p8e3abc19d0)" d="M 584.337232 403.705889 
L 597.413268 403.705889 
L 597.413268 393.253977 
L 584.337232 393.253977 
z
" style="fill:#96c69a;fill-opacity:0.5;stroke:#ffffff;stroke-linejoin:miter;stroke-width:1.045191;"/>
   </g>
   <g id="patch_41">
    <path clip-path="url(#p8e3abc19d0)" d="M 584.337232 393.253977 
L 597.004642 393.253977 
L 597.004642 382.802065 
L 584.337232 382.802065 
z
" style="fill:#96c69a;fill-opacity:0.5;stroke:#ffffff;stroke-linejoin:miter;stroke-width:1.045191;"/>
   </g>
   <g id="patch_42">
    <path clip-path="url(#p8e3abc19d0)" d="M 584.337232 382.802065 
L 594.552885 382.802065 
L 594.552885 372.350153 
L 584.337232 372.350153 
z
" style="fill:#96c69a;fill-opacity:0.5;stroke:#ffffff;stroke-linejoin:miter;stroke-width:1.045191;"/>
   </g>
   <g id="patch_43">
    <path clip-path="url(#p8e3abc19d0)" d="M 584.337232 372.350153 
L 589.649372 372.350153 
L 589.649372 361.898242 
L 584.337232 361.898242 
z
" style="fill:#96c69a;fill-opacity:0.5;stroke:#ffffff;stroke-linejoin:miter;stroke-width:1.045191;"/>
   </g>
   <g id="patch_44">
    <path clip-path="url(#p8e3abc19d0)" d="M 584.337232 361.898242 
L 588.83212 361.898242 
L 588.83212 351.44633 
L 584.337232 351.44633 
z
" style="fill:#96c69a;fill-opacity:0.5;stroke:#ffffff;stroke-linejoin:miter;stroke-width:1.045191;"/>
   </g>
   <g id="patch_45">
    <path clip-path="url(#p8e3abc19d0)" d="M 584.337232 351.44633 
L 587.197615 351.44633 
L 587.197615 340.994418 
L 584.337232 340.994418 
z
" style="fill:#96c69a;fill-opacity:0.5;stroke:#ffffff;stroke-linejoin:miter;stroke-width:1.045191;"/>
   </g>
   <g id="patch_46">
    <path clip-path="url(#p8e3abc19d0)" d="M 584.337232 340.994418 
L 586.380363 340.994418 
L 586.380363 330.542506 
L 584.337232 330.542506 
z
" style="fill:#96c69a;fill-opacity:0.5;stroke:#ffffff;stroke-linejoin:miter;stroke-width:1.045191;"/>
   </g>
   <g id="patch_47">
    <path clip-path="url(#p8e3abc19d0)" d="M 584.337232 330.542506 
L 587.197615 330.542506 
L 587.197615 320.090594 
L 584.337232 320.090594 
z
" style="fill:#96c69a;fill-opacity:0.5;stroke:#ffffff;stroke-linejoin:miter;stroke-width:1.045191;"/>
   </g>
   <g id="patch_48">
    <path clip-path="url(#p8e3abc19d0)" d="M 584.337232 320.090594 
L 585.971737 320.090594 
L 585.971737 309.638683 
L 584.337232 309.638683 
z
" style="fill:#96c69a;fill-opacity:0.5;stroke:#ffffff;stroke-linejoin:miter;stroke-width:1.045191;"/>
   </g>
   <g id="patch_49">
    <path clip-path="url(#p8e3abc19d0)" d="M 584.337232 309.638683 
L 585.971737 309.638683 
L 585.971737 299.186771 
L 584.337232 299.186771 
z
" style="fill:#96c69a;fill-opacity:0.5;stroke:#ffffff;stroke-linejoin:miter;stroke-width:1.045191;"/>
   </g>
   <g id="patch_50">
    <path clip-path="url(#p8e3abc19d0)" d="M 584.337232 299.186771 
L 585.971737 299.186771 
L 585.971737 288.734859 
L 584.337232 288.734859 
z
" style="fill:#96c69a;fill-opacity:0.5;stroke:#ffffff;stroke-linejoin:miter;stroke-width:1.045191;"/>
   </g>
   <g id="patch_51">
    <path clip-path="url(#p8e3abc19d0)" d="M 584.337232 288.734859 
L 586.788989 288.734859 
L 586.788989 278.282947 
L 584.337232 278.282947 
z
" style="fill:#96c69a;fill-opacity:0.5;stroke:#ffffff;stroke-linejoin:miter;stroke-width:1.045191;"/>
   </g>
   <g id="patch_52">
    <path clip-path="url(#p8e3abc19d0)" d="M 584.337232 278.282947 
L 584.745858 278.282947 
L 584.745858 267.831035 
L 584.337232 267.831035 
z
" style="fill:#96c69a;fill-opacity:0.5;stroke:#ffffff;stroke-linejoin:miter;stroke-width:1.045191;"/>
   </g>
   <g id="patch_53">
    <path clip-path="url(#p8e3abc19d0)" d="M 584.337232 267.831035 
L 584.745858 267.831035 
L 584.745858 257.379124 
L 584.337232 257.379124 
z
" style="fill:#96c69a;fill-opacity:0.5;stroke:#ffffff;stroke-linejoin:miter;stroke-width:1.045191;"/>
   </g>
   <g id="patch_54">
    <path clip-path="url(#p8e3abc19d0)" d="M 584.337232 257.379124 
L 584.337232 257.379124 
L 584.337232 246.927212 
L 584.337232 246.927212 
z
" style="fill:#96c69a;fill-opacity:0.5;stroke:#ffffff;stroke-linejoin:miter;stroke-width:1.045191;"/>
   </g>
   <g id="patch_55">
    <path clip-path="url(#p8e3abc19d0)" d="M 584.337232 246.927212 
L 584.745858 246.927212 
L 584.745858 236.4753 
L 584.337232 236.4753 
z
" style="fill:#96c69a;fill-opacity:0.5;stroke:#ffffff;stroke-linejoin:miter;stroke-width:1.045191;"/>
   </g>
   <g id="patch_56">
    <path clip-path="url(#p8e3abc19d0)" d="M 584.337232 236.4753 
L 584.745858 236.4753 
L 584.745858 226.023388 
L 584.337232 226.023388 
z
" style="fill:#96c69a;fill-opacity:0.5;stroke:#ffffff;stroke-linejoin:miter;stroke-width:1.045191;"/>
   </g>
   <g id="patch_57">
    <path clip-path="url(#p8e3abc19d0)" d="M 584.337232 226.023388 
L 584.337232 226.023388 
L 584.337232 215.571476 
L 584.337232 215.571476 
z
" style="fill:#96c69a;fill-opacity:0.5;stroke:#ffffff;stroke-linejoin:miter;stroke-width:1.045191;"/>
   </g>
   <g id="patch_58">
    <path clip-path="url(#p8e3abc19d0)" d="M 584.337232 215.571476 
L 584.337232 215.571476 
L 584.337232 205.119564 
L 584.337232 205.119564 
z
" style="fill:#96c69a;fill-opacity:0.5;stroke:#ffffff;stroke-linejoin:miter;stroke-width:1.045191;"/>
   </g>
   <g id="patch_59">
    <path clip-path="url(#p8e3abc19d0)" d="M 584.337232 205.119564 
L 584.337232 205.119564 
L 584.337232 194.667653 
L 584.337232 194.667653 
z
" style="fill:#96c69a;fill-opacity:0.5;stroke:#ffffff;stroke-linejoin:miter;stroke-width:1.045191;"/>
   </g>
   <g id="patch_60">
    <path clip-path="url(#p8e3abc19d0)" d="M 584.337232 194.667653 
L 584.337232 194.667653 
L 584.337232 184.215741 
L 584.337232 184.215741 
z
" style="fill:#96c69a;fill-opacity:0.5;stroke:#ffffff;stroke-linejoin:miter;stroke-width:1.045191;"/>
   </g>
   <g id="patch_61">
    <path clip-path="url(#p8e3abc19d0)" d="M 584.337232 184.215741 
L 584.745858 184.215741 
L 584.745858 173.763829 
L 584.337232 173.763829 
z
" style="fill:#96c69a;fill-opacity:0.5;stroke:#ffffff;stroke-linejoin:miter;stroke-width:1.045191;"/>
   </g>
   <g id="patch_62">
    <path clip-path="url(#p8e3abc19d0)" d="M 584.337232 173.763829 
L 585.154484 173.763829 
L 585.154484 163.311917 
L 584.337232 163.311917 
z
" style="fill:#96c69a;fill-opacity:0.5;stroke:#ffffff;stroke-linejoin:miter;stroke-width:1.045191;"/>
   </g>
   <g id="patch_63">
    <path clip-path="url(#p8e3abc19d0)" d="M 584.337232 163.311917 
L 584.337232 163.311917 
L 584.337232 152.860005 
L 584.337232 152.860005 
z
" style="fill:#96c69a;fill-opacity:0.5;stroke:#ffffff;stroke-linejoin:miter;stroke-width:1.045191;"/>
   </g>
   <g id="patch_64">
    <path clip-path="url(#p8e3abc19d0)" d="M 584.337232 152.860005 
L 584.337232 152.860005 
L 584.337232 142.408094 
L 584.337232 142.408094 
z
" style="fill:#96c69a;fill-opacity:0.5;stroke:#ffffff;stroke-linejoin:miter;stroke-width:1.045191;"/>
   </g>
   <g id="patch_65">
    <path clip-path="url(#p8e3abc19d0)" d="M 584.337232 142.408094 
L 584.745858 142.408094 
L 584.745858 131.956182 
L 584.337232 131.956182 
z
" style="fill:#96c69a;fill-opacity:0.5;stroke:#ffffff;stroke-linejoin:miter;stroke-width:1.045191;"/>
   </g>
   <g id="patch_66">
    <path d="M 584.337232 603.86 
L 584.337232 109.484571 
" style="fill:none;stroke:#262626;stroke-linecap:square;stroke-linejoin:miter;stroke-width:2.5;"/>
   </g>
   <g id="patch_67">
    <path d="M 584.337232 603.86 
L 667.574375 603.86 
" style="fill:none;stroke:#262626;stroke-linecap:square;stroke-linejoin:miter;stroke-width:2.5;"/>
   </g>
  </g>
 </g>
 <defs>
  <clipPath id="pc45dc36d24">
   <rect height="494.375429" width="482.775429" x="84.914375" y="109.484571"/>
  </clipPath>
  <clipPath id="p4cc65179ac">
   <rect height="85.237143" width="482.775429" x="84.914375" y="7.2"/>
  </clipPath>
  <clipPath id="p8e3abc19d0">
   <rect height="494.375429" width="83.237143" x="584.337232" y="109.484571"/>
  </clipPath>
 </defs>
</svg>
