<?xml version="1.0" encoding="utf-8" standalone="no"?>
<!DOCTYPE svg PUBLIC "-//W3C//DTD SVG 1.1//EN"
  "http://www.w3.org/Graphics/SVG/1.1/DTD/svg11.dtd">
<svg height="675.079375pt" version="1.1" viewBox="0 0 674.774375 675.079375" width="674.774375pt" xmlns="http://www.w3.org/2000/svg" xmlns:xlink="http://www.w3.org/1999/xlink">
 <metadata>
  <rdf:RDF xmlns:cc="http://creativecommons.org/ns#" xmlns:dc="http://purl.org/dc/elements/1.1/" xmlns:rdf="http://www.w3.org/1999/02/22-rdf-syntax-ns#">
   <cc:Work>
    <dc:type rdf:resource="http://purl.org/dc/dcmitype/StillImage"/>
    <dc:date>2021-07-16T21:44:05.467261</dc:date>
    <dc:format>image/svg+xml</dc:format>
    <dc:creator>
     <cc:Agent>
      <dc:title>Matplotlib v3.4.2, https://matplotlib.org/</dc:title>
     </cc:Agent>
    </dc:creator>
   </cc:Work>
  </rdf:RDF>
 </metadata>
 <defs>
  <style type="text/css">*{stroke-linecap:butt;stroke-linejoin:round;}</style>
 </defs>
 <g id="figure_1">
  <g id="patch_1">
   <path d="M 0 675.079375 
L 674.774375 675.079375 
L 674.774375 0 
L 0 0 
z
" style="fill:#ffffff;"/>
  </g>
  <g id="axes_1">
   <g id="patch_2">
    <path d="M 84.914375 603.86 
L 567.689804 603.86 
L 567.689804 109.484571 
L 84.914375 109.484571 
z
" style="fill:none;"/>
   </g>
   <g id="matplotlib.axis_1">
    <g id="xtick_1">
     <g id="text_1">
      <!-- 0 -->
      <g style="fill:#262626;" transform="translate(99.64041 636.076563)scale(0.22 -0.22)">
       <defs>
        <path d="M 2034 4250 
Q 1547 4250 1301 3770 
Q 1056 3291 1056 2328 
Q 1056 1369 1301 889 
Q 1547 409 2034 409 
Q 2525 409 2770 889 
Q 3016 1369 3016 2328 
Q 3016 3291 2770 3770 
Q 2525 4250 2034 4250 
z
M 2034 4750 
Q 2819 4750 3233 4129 
Q 3647 3509 3647 2328 
Q 3647 1150 3233 529 
Q 2819 -91 2034 -91 
Q 1250 -91 836 529 
Q 422 1150 422 2328 
Q 422 3509 836 4129 
Q 1250 4750 2034 4750 
z
" id="DejaVuSans-30" transform="scale(0.015625)"/>
       </defs>
       <use xlink:href="#DejaVuSans-30"/>
      </g>
     </g>
    </g>
    <g id="xtick_2">
     <g id="text_2">
      <!-- 20000 -->
      <g style="fill:#262626;" transform="translate(159.466671 636.076563)scale(0.22 -0.22)">
       <defs>
        <path d="M 1228 531 
L 3431 531 
L 3431 0 
L 469 0 
L 469 531 
Q 828 903 1448 1529 
Q 2069 2156 2228 2338 
Q 2531 2678 2651 2914 
Q 2772 3150 2772 3378 
Q 2772 3750 2511 3984 
Q 2250 4219 1831 4219 
Q 1534 4219 1204 4116 
Q 875 4013 500 3803 
L 500 4441 
Q 881 4594 1212 4672 
Q 1544 4750 1819 4750 
Q 2544 4750 2975 4387 
Q 3406 4025 3406 3419 
Q 3406 3131 3298 2873 
Q 3191 2616 2906 2266 
Q 2828 2175 2409 1742 
Q 1991 1309 1228 531 
z
" id="DejaVuSans-32" transform="scale(0.015625)"/>
       </defs>
       <use xlink:href="#DejaVuSans-32"/>
       <use x="63.623047" xlink:href="#DejaVuSans-30"/>
       <use x="127.246094" xlink:href="#DejaVuSans-30"/>
       <use x="190.869141" xlink:href="#DejaVuSans-30"/>
       <use x="254.492188" xlink:href="#DejaVuSans-30"/>
      </g>
     </g>
    </g>
    <g id="xtick_3">
     <g id="text_3">
      <!-- 40000 -->
      <g style="fill:#262626;" transform="translate(247.287932 636.076563)scale(0.22 -0.22)">
       <defs>
        <path d="M 2419 4116 
L 825 1625 
L 2419 1625 
L 2419 4116 
z
M 2253 4666 
L 3047 4666 
L 3047 1625 
L 3713 1625 
L 3713 1100 
L 3047 1100 
L 3047 0 
L 2419 0 
L 2419 1100 
L 313 1100 
L 313 1709 
L 2253 4666 
z
" id="DejaVuSans-34" transform="scale(0.015625)"/>
       </defs>
       <use xlink:href="#DejaVuSans-34"/>
       <use x="63.623047" xlink:href="#DejaVuSans-30"/>
       <use x="127.246094" xlink:href="#DejaVuSans-30"/>
       <use x="190.869141" xlink:href="#DejaVuSans-30"/>
       <use x="254.492188" xlink:href="#DejaVuSans-30"/>
      </g>
     </g>
    </g>
    <g id="xtick_4">
     <g id="text_4">
      <!-- 60000 -->
      <g style="fill:#262626;" transform="translate(335.109193 636.076563)scale(0.22 -0.22)">
       <defs>
        <path d="M 2113 2584 
Q 1688 2584 1439 2293 
Q 1191 2003 1191 1497 
Q 1191 994 1439 701 
Q 1688 409 2113 409 
Q 2538 409 2786 701 
Q 3034 994 3034 1497 
Q 3034 2003 2786 2293 
Q 2538 2584 2113 2584 
z
M 3366 4563 
L 3366 3988 
Q 3128 4100 2886 4159 
Q 2644 4219 2406 4219 
Q 1781 4219 1451 3797 
Q 1122 3375 1075 2522 
Q 1259 2794 1537 2939 
Q 1816 3084 2150 3084 
Q 2853 3084 3261 2657 
Q 3669 2231 3669 1497 
Q 3669 778 3244 343 
Q 2819 -91 2113 -91 
Q 1303 -91 875 529 
Q 447 1150 447 2328 
Q 447 3434 972 4092 
Q 1497 4750 2381 4750 
Q 2619 4750 2861 4703 
Q 3103 4656 3366 4563 
z
" id="DejaVuSans-36" transform="scale(0.015625)"/>
       </defs>
       <use xlink:href="#DejaVuSans-36"/>
       <use x="63.623047" xlink:href="#DejaVuSans-30"/>
       <use x="127.246094" xlink:href="#DejaVuSans-30"/>
       <use x="190.869141" xlink:href="#DejaVuSans-30"/>
       <use x="254.492188" xlink:href="#DejaVuSans-30"/>
      </g>
     </g>
    </g>
    <g id="xtick_5">
     <g id="text_5">
      <!-- 80000 -->
      <g style="fill:#262626;" transform="translate(422.930455 636.076563)scale(0.22 -0.22)">
       <defs>
        <path d="M 2034 2216 
Q 1584 2216 1326 1975 
Q 1069 1734 1069 1313 
Q 1069 891 1326 650 
Q 1584 409 2034 409 
Q 2484 409 2743 651 
Q 3003 894 3003 1313 
Q 3003 1734 2745 1975 
Q 2488 2216 2034 2216 
z
M 1403 2484 
Q 997 2584 770 2862 
Q 544 3141 544 3541 
Q 544 4100 942 4425 
Q 1341 4750 2034 4750 
Q 2731 4750 3128 4425 
Q 3525 4100 3525 3541 
Q 3525 3141 3298 2862 
Q 3072 2584 2669 2484 
Q 3125 2378 3379 2068 
Q 3634 1759 3634 1313 
Q 3634 634 3220 271 
Q 2806 -91 2034 -91 
Q 1263 -91 848 271 
Q 434 634 434 1313 
Q 434 1759 690 2068 
Q 947 2378 1403 2484 
z
M 1172 3481 
Q 1172 3119 1398 2916 
Q 1625 2713 2034 2713 
Q 2441 2713 2670 2916 
Q 2900 3119 2900 3481 
Q 2900 3844 2670 4047 
Q 2441 4250 2034 4250 
Q 1625 4250 1398 4047 
Q 1172 3844 1172 3481 
z
" id="DejaVuSans-38" transform="scale(0.015625)"/>
       </defs>
       <use xlink:href="#DejaVuSans-38"/>
       <use x="63.623047" xlink:href="#DejaVuSans-30"/>
       <use x="127.246094" xlink:href="#DejaVuSans-30"/>
       <use x="190.869141" xlink:href="#DejaVuSans-30"/>
       <use x="254.492188" xlink:href="#DejaVuSans-30"/>
      </g>
     </g>
    </g>
    <g id="xtick_6">
     <g id="text_6">
      <!-- 100000 -->
      <g style="fill:#262626;" transform="translate(503.752966 636.076563)scale(0.22 -0.22)">
       <defs>
        <path d="M 794 531 
L 1825 531 
L 1825 4091 
L 703 3866 
L 703 4441 
L 1819 4666 
L 2450 4666 
L 2450 531 
L 3481 531 
L 3481 0 
L 794 0 
L 794 531 
z
" id="DejaVuSans-31" transform="scale(0.015625)"/>
       </defs>
       <use xlink:href="#DejaVuSans-31"/>
       <use x="63.623047" xlink:href="#DejaVuSans-30"/>
       <use x="127.246094" xlink:href="#DejaVuSans-30"/>
       <use x="190.869141" xlink:href="#DejaVuSans-30"/>
       <use x="254.492188" xlink:href="#DejaVuSans-30"/>
       <use x="318.115234" xlink:href="#DejaVuSans-30"/>
      </g>
     </g>
    </g>
    <g id="text_7">
     <!-- MDTU -->
     <g style="fill:#262626;" transform="translate(290.596464 662.888125)scale(0.24 -0.24)">
      <defs>
       <path d="M 628 4666 
L 1569 4666 
L 2759 1491 
L 3956 4666 
L 4897 4666 
L 4897 0 
L 4281 0 
L 4281 4097 
L 3078 897 
L 2444 897 
L 1241 4097 
L 1241 0 
L 628 0 
L 628 4666 
z
" id="DejaVuSans-4d" transform="scale(0.015625)"/>
       <path d="M 1259 4147 
L 1259 519 
L 2022 519 
Q 2988 519 3436 956 
Q 3884 1394 3884 2338 
Q 3884 3275 3436 3711 
Q 2988 4147 2022 4147 
L 1259 4147 
z
M 628 4666 
L 1925 4666 
Q 3281 4666 3915 4102 
Q 4550 3538 4550 2338 
Q 4550 1131 3912 565 
Q 3275 0 1925 0 
L 628 0 
L 628 4666 
z
" id="DejaVuSans-44" transform="scale(0.015625)"/>
       <path d="M -19 4666 
L 3928 4666 
L 3928 4134 
L 2272 4134 
L 2272 0 
L 1638 0 
L 1638 4134 
L -19 4134 
L -19 4666 
z
" id="DejaVuSans-54" transform="scale(0.015625)"/>
       <path d="M 556 4666 
L 1191 4666 
L 1191 1831 
Q 1191 1081 1462 751 
Q 1734 422 2344 422 
Q 2950 422 3222 751 
Q 3494 1081 3494 1831 
L 3494 4666 
L 4128 4666 
L 4128 1753 
Q 4128 841 3676 375 
Q 3225 -91 2344 -91 
Q 1459 -91 1007 375 
Q 556 841 556 1753 
L 556 4666 
z
" id="DejaVuSans-55" transform="scale(0.015625)"/>
      </defs>
      <use xlink:href="#DejaVuSans-4d"/>
      <use x="86.279297" xlink:href="#DejaVuSans-44"/>
      <use x="163.28125" xlink:href="#DejaVuSans-54"/>
      <use x="224.365234" xlink:href="#DejaVuSans-55"/>
     </g>
    </g>
   </g>
   <g id="matplotlib.axis_2">
    <g id="ytick_1">
     <g id="text_8">
      <!-- 0.4 -->
      <g style="fill:#262626;" transform="translate(34.4275 553.881208)scale(0.22 -0.22)">
       <defs>
        <path d="M 684 794 
L 1344 794 
L 1344 0 
L 684 0 
L 684 794 
z
" id="DejaVuSans-2e" transform="scale(0.015625)"/>
       </defs>
       <use xlink:href="#DejaVuSans-30"/>
       <use x="63.623047" xlink:href="#DejaVuSans-2e"/>
       <use x="95.410156" xlink:href="#DejaVuSans-34"/>
      </g>
     </g>
    </g>
    <g id="ytick_2">
     <g id="text_9">
      <!-- 0.6 -->
      <g style="fill:#262626;" transform="translate(34.4275 490.489342)scale(0.22 -0.22)">
       <use xlink:href="#DejaVuSans-30"/>
       <use x="63.623047" xlink:href="#DejaVuSans-2e"/>
       <use x="95.410156" xlink:href="#DejaVuSans-36"/>
      </g>
     </g>
    </g>
    <g id="ytick_3">
     <g id="text_10">
      <!-- 0.8 -->
      <g style="fill:#262626;" transform="translate(34.4275 427.097477)scale(0.22 -0.22)">
       <use xlink:href="#DejaVuSans-30"/>
       <use x="63.623047" xlink:href="#DejaVuSans-2e"/>
       <use x="95.410156" xlink:href="#DejaVuSans-38"/>
      </g>
     </g>
    </g>
    <g id="ytick_4">
     <g id="text_11">
      <!-- 1.0 -->
      <g style="fill:#262626;" transform="translate(34.4275 363.705611)scale(0.22 -0.22)">
       <use xlink:href="#DejaVuSans-31"/>
       <use x="63.623047" xlink:href="#DejaVuSans-2e"/>
       <use x="95.410156" xlink:href="#DejaVuSans-30"/>
      </g>
     </g>
    </g>
    <g id="ytick_5">
     <g id="text_12">
      <!-- 1.2 -->
      <g style="fill:#262626;" transform="translate(34.4275 300.313746)scale(0.22 -0.22)">
       <use xlink:href="#DejaVuSans-31"/>
       <use x="63.623047" xlink:href="#DejaVuSans-2e"/>
       <use x="95.410156" xlink:href="#DejaVuSans-32"/>
      </g>
     </g>
    </g>
    <g id="ytick_6">
     <g id="text_13">
      <!-- 1.4 -->
      <g style="fill:#262626;" transform="translate(34.4275 236.92188)scale(0.22 -0.22)">
       <use xlink:href="#DejaVuSans-31"/>
       <use x="63.623047" xlink:href="#DejaVuSans-2e"/>
       <use x="95.410156" xlink:href="#DejaVuSans-34"/>
      </g>
     </g>
    </g>
    <g id="ytick_7">
     <g id="text_14">
      <!-- 1.6 -->
      <g style="fill:#262626;" transform="translate(34.4275 173.530015)scale(0.22 -0.22)">
       <use xlink:href="#DejaVuSans-31"/>
       <use x="63.623047" xlink:href="#DejaVuSans-2e"/>
       <use x="95.410156" xlink:href="#DejaVuSans-36"/>
      </g>
     </g>
    </g>
    <g id="text_15">
     <!-- $E$ -->
     <g style="fill:#262626;" transform="translate(25.43625 364.352286)rotate(-90)scale(0.24 -0.24)">
      <defs>
       <path d="M 1081 4666 
L 4031 4666 
L 3928 4134 
L 1606 4134 
L 1338 2753 
L 3566 2753 
L 3463 2222 
L 1234 2222 
L 909 531 
L 3284 531 
L 3181 0 
L 172 0 
L 1081 4666 
z
" id="DejaVuSans-Oblique-45" transform="scale(0.015625)"/>
      </defs>
      <use transform="translate(0 0.09375)" xlink:href="#DejaVuSans-Oblique-45"/>
     </g>
    </g>
   </g>
   <g id="line2d_1">
    <path clip-path="url(#p344ac9be2e)" d="M 106.858713 386.1114 
L 107.078266 465.552111 
L 107.517372 311.257037 
L 107.736925 499.038329 
L 108.176032 434.961981 
L 108.395585 341.498719 
L 108.615138 488.253339 
L 108.834691 480.501363 
L 109.054244 497.733074 
L 109.273797 462.832686 
L 109.493351 529.380702 
L 109.712904 485.556457 
L 109.932457 513.854829 
L 110.15201 470.969682 
L 110.371563 509.792074 
L 110.591116 497.886011 
L 110.810669 391.042419 
L 111.030223 458.411441 
L 111.249776 245.010383 
L 111.469329 460.382111 
L 111.688882 358.297127 
L 111.908435 509.390469 
L 112.347541 348.231571 
L 112.786648 499.732016 
L 113.006201 442.654037 
L 113.225754 354.15304 
L 113.445307 392.20152 
L 113.66486 476.571766 
L 113.884414 439.935413 
L 114.103967 444.774952 
L 114.32352 515.054184 
L 114.543073 316.02908 
L 114.762626 402.330611 
L 114.982179 328.846986 
L 115.201732 432.610394 
L 115.421286 453.654448 
L 115.640839 328.304384 
L 115.860392 367.548069 
L 116.079945 258.786958 
L 116.299498 493.175433 
L 116.519051 496.763241 
L 116.958158 396.280169 
L 117.177711 438.014348 
L 117.397264 517.423694 
L 117.616817 397.467578 
L 117.83637 355.498905 
L 118.055923 445.284868 
L 118.275477 433.364023 
L 118.49503 435.206508 
L 118.714583 281.484319 
L 118.934136 465.114971 
L 119.153689 493.713319 
L 119.373242 441.73097 
L 119.592796 444.090084 
L 119.812349 464.410322 
L 120.031902 461.94638 
L 120.251455 303.771979 
L 120.471008 491.961931 
L 120.690561 295.256134 
L 120.910114 499.864468 
L 121.129668 519.979222 
L 121.349221 404.271911 
L 121.568774 471.678664 
L 121.788327 456.15534 
L 122.00788 311.906239 
L 122.227433 360.839731 
L 122.446987 481.785638 
L 122.66654 333.936539 
L 122.886093 437.023319 
L 123.105646 385.988323 
L 123.325199 440.574464 
L 123.544752 392.573466 
L 123.764305 418.129159 
L 123.983859 492.496825 
L 124.203412 452.457929 
L 124.422965 479.67219 
L 124.642518 547.98879 
L 125.081624 362.961182 
L 125.301178 415.91876 
L 125.740284 392.637805 
L 125.959837 396.074677 
L 126.17939 424.358556 
L 126.398943 516.333269 
L 126.618496 407.965715 
L 127.057603 508.377729 
L 127.277156 450.826104 
L 127.496709 432.156499 
L 127.716262 434.308088 
L 127.935815 523.496673 
L 128.374922 387.016721 
L 128.814028 457.792107 
L 129.033581 493.59688 
L 129.253134 362.345881 
L 129.472687 545.284218 
L 129.692241 519.557937 
L 129.911794 446.821937 
L 130.131347 460.878435 
L 130.3509 254.096351 
L 130.570453 401.267952 
L 130.790006 460.900883 
L 131.00956 485.613455 
L 131.229113 448.178192 
L 131.448666 452.290891 
L 131.668219 454.152668 
L 131.887772 430.516348 
L 132.107325 440.164429 
L 132.326878 374.948516 
L 132.546432 390.444724 
L 132.985538 335.94261 
L 133.205091 363.639143 
L 133.424644 364.35929 
L 133.644197 472.783249 
L 133.863751 472.885989 
L 134.083304 444.773913 
L 134.302857 348.892437 
L 134.52241 416.08341 
L 134.741963 295.191975 
L 134.961516 417.991855 
L 135.181069 241.280537 
L 135.400623 306.6903 
L 135.620176 434.365516 
L 135.839729 482.239979 
L 136.059282 311.496223 
L 136.278835 414.304973 
L 136.498388 435.254776 
L 136.717941 427.840201 
L 136.937495 519.164743 
L 137.376601 258.037299 
L 137.815707 495.378837 
L 138.03526 484.191192 
L 138.254814 412.666764 
L 138.474367 378.510061 
L 138.69392 456.49239 
L 138.913473 455.664543 
L 139.133026 468.822578 
L 139.352579 403.50975 
L 139.572132 466.642074 
L 139.791686 379.674135 
L 140.230792 446.504377 
L 140.450345 411.3038 
L 140.669898 420.084476 
L 140.889451 328.381994 
L 141.109005 432.17286 
L 141.328558 396.687393 
L 141.548111 533.664631 
L 141.767664 398.304785 
L 141.987217 436.358566 
L 142.20677 523.082604 
L 142.426323 418.705935 
L 142.645877 393.888733 
L 142.86543 491.864775 
L 143.084983 415.61537 
L 143.304536 523.485145 
L 143.524089 373.21036 
L 143.963196 402.814438 
L 144.182749 415.692999 
L 144.402302 508.107512 
L 144.621855 544.099769 
L 144.841408 387.936923 
L 145.060961 430.174503 
L 145.280514 350.994926 
L 145.500068 442.843576 
L 145.719621 352.572772 
L 145.939174 517.491389 
L 146.158727 490.301532 
L 146.37828 485.068884 
L 146.597833 397.394982 
L 146.817387 449.845119 
L 147.03694 333.583095 
L 147.256493 312.384485 
L 147.476046 433.055007 
L 147.695599 481.105809 
L 147.915152 442.274117 
L 148.134705 475.065872 
L 148.354259 370.980373 
L 148.573812 513.150949 
L 148.793365 481.325852 
L 149.012918 416.229613 
L 149.232471 390.865358 
L 149.452024 342.016447 
L 149.671578 396.563047 
L 149.891131 403.334652 
L 150.110684 392.291536 
L 150.330237 338.634249 
L 150.54979 501.602505 
L 150.769343 361.108474 
L 151.20845 494.930596 
L 151.428003 488.894564 
L 151.647556 392.465707 
L 151.867109 516.738213 
L 152.086662 432.484392 
L 152.306215 473.230267 
L 152.525769 417.311732 
L 152.745322 507.111334 
L 152.964875 364.517344 
L 153.184428 468.074104 
L 153.403981 432.5228 
L 153.623534 450.512084 
L 153.843087 352.548079 
L 154.062641 506.152623 
L 154.282194 416.050894 
L 154.501747 411.488033 
L 154.7213 510.458877 
L 154.940853 493.060304 
L 155.160406 447.860561 
L 155.37996 287.63497 
L 155.599513 261.055103 
L 156.038619 541.188123 
L 156.477725 324.640744 
L 156.916832 480.659813 
L 157.355938 450.698126 
L 157.795044 528.266406 
L 158.014597 446.125576 
L 158.234151 303.163017 
L 158.453704 510.796261 
L 158.673257 478.183879 
L 158.89281 252.675099 
L 159.112363 332.098268 
L 159.331916 360.767561 
L 159.551469 410.507094 
L 159.771023 491.779579 
L 159.990576 443.091412 
L 160.210129 436.459961 
L 160.429682 321.231108 
L 160.649235 440.871525 
L 161.088342 340.268025 
L 161.307895 379.969547 
L 161.527448 327.885674 
L 161.747001 524.072923 
L 161.966554 395.772101 
L 162.186107 432.274888 
L 162.40566 439.641503 
L 162.625214 519.872242 
L 163.06432 379.35488 
L 163.283873 519.78794 
L 163.503426 325.675585 
L 163.722979 491.170393 
L 163.942532 497.745148 
L 164.162086 365.362478 
L 164.601192 460.215489 
L 164.820745 457.523202 
L 165.040298 364.864903 
L 165.259851 451.643925 
L 165.479405 293.728214 
L 165.698958 418.574066 
L 165.918511 454.86104 
L 166.138064 457.913582 
L 166.357617 421.566722 
L 166.57717 436.757071 
L 166.796723 507.916684 
L 167.016277 398.072188 
L 167.23583 406.385006 
L 167.455383 362.117968 
L 167.674936 474.231927 
L 167.894489 234.910763 
L 168.114042 461.61665 
L 168.333596 434.862523 
L 168.553149 464.226871 
L 168.772702 405.435238 
L 168.992255 399.889816 
L 169.211808 479.15945 
L 169.431361 343.142364 
L 169.650914 464.886229 
L 169.870468 325.07661 
L 170.309574 498.746351 
L 170.529127 453.885695 
L 170.74868 525.736652 
L 171.187787 434.977276 
L 171.40734 431.699555 
L 171.626893 537.005001 
L 171.846446 472.804078 
L 172.065999 490.757061 
L 172.285552 473.408018 
L 172.724659 342.447774 
L 172.944212 482.034034 
L 173.163765 302.104315 
L 173.383318 422.239313 
L 173.602871 398.28117 
L 173.822424 439.111032 
L 174.041978 358.113111 
L 174.261531 413.113931 
L 174.481084 497.128437 
L 174.92019 295.755167 
L 175.139743 425.52933 
L 175.359296 473.394469 
L 175.57885 447.730751 
L 175.798403 490.402975 
L 176.017956 303.522336 
L 176.237509 357.717924 
L 176.457062 506.381946 
L 176.676615 434.098089 
L 176.896169 401.013426 
L 177.115722 464.815472 
L 177.554828 404.251023 
L 177.774381 505.730374 
L 178.433041 324.808318 
L 178.652594 366.794888 
L 178.872147 308.228431 
L 179.0917 478.17847 
L 179.311253 510.440194 
L 179.530806 492.28722 
L 179.75036 247.487715 
L 180.409019 516.081044 
L 180.628572 430.581542 
L 180.848125 437.249808 
L 181.067678 430.855374 
L 181.287232 457.946344 
L 181.506785 392.975294 
L 181.726338 400.645188 
L 181.945891 426.393351 
L 182.165444 433.007828 
L 182.384997 515.33646 
L 182.604551 316.045516 
L 182.824104 553.615302 
L 183.043657 345.231024 
L 183.26321 466.840665 
L 183.482763 465.707087 
L 183.702316 399.883491 
L 183.921869 468.760952 
L 184.141423 496.169603 
L 184.360976 400.46597 
L 184.580529 408.238684 
L 184.800082 504.999488 
L 185.239188 348.417554 
L 185.678295 502.383902 
L 185.897848 403.655193 
L 186.117401 363.820866 
L 186.336954 490.703961 
L 186.556507 459.728958 
L 186.77606 354.834168 
L 186.995614 369.639539 
L 187.43472 494.926358 
L 187.654273 441.04878 
L 187.873826 230.662002 
L 188.312932 497.420528 
L 188.532486 321.031426 
L 188.752039 424.476975 
L 188.971592 464.515284 
L 189.191145 479.006834 
L 189.410698 426.634651 
L 189.849805 527.56554 
L 190.069358 441.625299 
L 190.288911 200.166119 
L 190.508464 380.36773 
L 190.728017 443.836912 
L 190.94757 407.666017 
L 191.167123 521.498999 
L 191.386677 395.608461 
L 191.60623 415.677589 
L 191.825783 418.777076 
L 192.045336 458.498466 
L 192.264889 438.890665 
L 192.484442 467.323483 
L 192.703996 404.08422 
L 192.923549 421.556349 
L 193.143102 383.32754 
L 193.362655 505.791842 
L 193.582208 495.947471 
L 193.801761 560.914766 
L 194.021314 491.220571 
L 194.460421 256.822085 
L 194.899527 304.840883 
L 195.11908 486.525428 
L 195.338633 536.842467 
L 195.77774 330.047942 
L 195.997293 354.617948 
L 196.216846 521.839935 
L 196.436399 501.070818 
L 196.655952 495.573137 
L 197.095059 413.844552 
L 197.314612 419.818602 
L 197.534165 532.116215 
L 197.753718 214.259195 
L 197.973271 365.55301 
L 198.192824 254.601848 
L 198.631931 537.307281 
L 198.851484 382.691702 
L 199.071037 392.72776 
L 199.510143 469.258738 
L 199.729696 387.241345 
L 199.94925 375.106819 
L 200.168803 374.005627 
L 200.388356 316.938975 
L 200.607909 478.494229 
L 200.827462 535.628562 
L 201.047015 410.19857 
L 201.266569 466.996332 
L 201.486122 371.408669 
L 201.705675 468.682825 
L 201.925228 343.104787 
L 202.144781 476.681409 
L 202.364334 435.577738 
L 202.583887 356.318747 
L 202.803441 522.749046 
L 203.022994 491.401702 
L 203.242547 337.841583 
L 203.4621 399.767083 
L 203.681653 406.563694 
L 203.901206 448.972228 
L 204.12076 252.006456 
L 204.559866 490.790909 
L 204.779419 376.845957 
L 204.998972 434.898444 
L 205.218525 422.299669 
L 205.438078 466.565722 
L 205.877185 472.722084 
L 206.096738 464.320944 
L 206.316291 469.712682 
L 206.535844 387.567033 
L 206.755397 472.612077 
L 206.974951 248.594411 
L 207.194504 434.697119 
L 207.414057 413.717709 
L 207.63361 485.392291 
L 207.853163 462.475223 
L 208.292269 349.255877 
L 208.511823 425.605711 
L 208.731376 411.321133 
L 208.950929 266.488965 
L 209.170482 382.696745 
L 209.609588 254.450167 
L 209.829142 470.709984 
L 210.048695 434.994644 
L 210.268248 355.945232 
L 210.926907 481.244431 
L 211.14646 470.890137 
L 211.366014 481.370197 
L 211.585567 468.616826 
L 211.80512 427.386888 
L 212.024673 485.145237 
L 212.244226 385.244388 
L 212.463779 467.752616 
L 212.683333 415.783989 
L 212.902886 443.711574 
L 213.122439 521.520785 
L 213.341992 446.849594 
L 213.561545 449.120146 
L 213.781098 460.179889 
L 214.000651 456.171227 
L 214.220205 499.512014 
L 214.439758 420.906706 
L 214.659311 469.461883 
L 214.878864 458.259701 
L 215.098417 335.427503 
L 215.31797 441.595919 
L 215.537523 465.181433 
L 215.757077 268.694852 
L 215.97663 476.358248 
L 216.196183 414.143861 
L 216.415736 472.234121 
L 216.635289 393.833687 
L 217.074396 430.971529 
L 217.293949 399.937108 
L 217.513502 407.532559 
L 217.733055 484.286934 
L 217.952608 504.347628 
L 218.172161 338.321895 
L 218.391714 411.361689 
L 218.611268 401.208026 
L 218.830821 332.40293 
L 219.050374 413.354557 
L 219.269927 409.751669 
L 219.48948 414.426712 
L 219.709033 404.973309 
L 219.928587 403.175712 
L 220.14814 402.393657 
L 220.367693 517.021427 
L 220.806799 459.664021 
L 221.026352 479.267528 
L 221.245905 467.131585 
L 221.465459 342.266274 
L 221.904565 440.970756 
L 222.124118 314.618088 
L 222.343671 460.094924 
L 222.563224 411.681542 
L 222.782778 469.239385 
L 223.002331 397.513847 
L 223.221884 139.065939 
L 223.441437 396.092143 
L 223.66099 366.113902 
L 223.880543 446.670797 
L 224.100096 367.528506 
L 224.31965 517.530888 
L 224.539203 454.728501 
L 224.758756 347.727779 
L 224.978309 426.709716 
L 225.197862 320.96777 
L 225.417415 352.482685 
L 225.636969 434.19918 
L 225.856522 442.03483 
L 226.076075 457.54871 
L 226.295628 451.386136 
L 226.515181 328.250877 
L 227.173841 492.517476 
L 227.393394 357.347635 
L 227.612947 402.774315 
L 228.052053 353.844649 
L 228.271606 403.450373 
L 228.49116 417.916156 
L 228.710713 418.958456 
L 228.930266 384.675359 
L 229.149819 220.725677 
L 229.588925 477.449307 
L 229.808478 395.068476 
L 230.028032 399.780237 
L 230.247585 269.424832 
L 230.467138 405.761712 
L 230.686691 410.761425 
L 230.906244 360.488964 
L 231.125797 434.716403 
L 231.345351 407.396297 
L 231.564904 276.483707 
L 231.784457 546.566283 
L 232.00401 404.48585 
L 232.223563 436.291273 
L 232.662669 308.233287 
L 232.882223 506.191155 
L 233.101776 472.121639 
L 233.321329 499.976109 
L 233.540882 294.126951 
L 233.760435 447.371658 
L 233.979988 480.889883 
L 234.199542 477.02605 
L 234.419095 460.126219 
L 234.638648 479.528627 
L 234.858201 557.698799 
L 235.077754 465.603328 
L 235.297307 475.343581 
L 235.51686 334.680098 
L 235.736414 527.360091 
L 235.955967 428.133028 
L 236.17552 430.21423 
L 236.395073 229.834819 
L 236.614626 423.824224 
L 236.834179 486.164493 
L 237.053733 284.938701 
L 237.273286 450.036697 
L 237.492839 397.464536 
L 237.712392 439.759776 
L 238.151498 398.681199 
L 238.371051 406.610196 
L 238.590605 228.985937 
L 238.810158 468.148023 
L 239.029711 369.892518 
L 239.249264 440.016837 
L 239.468817 379.18851 
L 239.68837 240.499187 
L 239.907924 434.140585 
L 240.127477 360.59444 
L 240.34703 413.193383 
L 240.566583 407.567722 
L 240.786136 392.994935 
L 241.005689 407.493669 
L 241.225242 363.268861 
L 241.444796 445.868464 
L 241.664349 442.90287 
L 241.883902 347.306223 
L 242.103455 470.987347 
L 242.323008 499.550005 
L 242.542561 413.935782 
L 242.762114 425.855477 
L 242.981668 371.483819 
L 243.201221 449.389786 
L 243.420774 468.537752 
L 243.640327 369.429561 
L 243.85988 373.576875 
L 244.51854 520.511928 
L 244.738093 384.948578 
L 244.957646 419.135732 
L 245.177199 474.451224 
L 245.396752 349.26315 
L 245.616305 463.920642 
L 246.055412 437.591212 
L 246.494518 204.799237 
L 246.714071 490.249687 
L 247.153178 495.813636 
L 247.592284 390.477092 
L 247.811837 342.530691 
L 248.03139 424.127266 
L 248.250943 313.44149 
L 248.470496 317.923686 
L 248.909603 548.098402 
L 249.129156 455.361522 
L 249.348709 478.138809 
L 249.568262 444.625491 
L 249.787815 370.197491 
L 250.226922 524.23036 
L 250.666028 428.813899 
L 250.885581 474.76624 
L 251.324687 257.620522 
L 251.544241 451.073685 
L 251.763794 482.964818 
L 251.983347 464.23544 
L 252.2029 457.492279 
L 252.422453 483.608917 
L 252.642006 476.422966 
L 252.86156 531.266261 
L 253.081113 557.087766 
L 253.300666 420.317363 
L 253.520219 523.666722 
L 253.739772 437.617393 
L 253.959325 425.396393 
L 254.178878 516.844893 
L 254.617985 338.78308 
L 254.837538 353.936223 
L 255.057091 297.131746 
L 255.276644 418.744674 
L 255.496197 387.987649 
L 255.715751 536.623273 
L 255.935304 330.098837 
L 256.154857 453.965131 
L 256.37441 421.75072 
L 256.593963 424.137637 
L 256.813516 437.176268 
L 257.033069 256.734645 
L 257.252623 449.597634 
L 257.472176 481.603645 
L 257.691729 326.855783 
L 257.911282 400.662598 
L 258.130835 526.851794 
L 258.350388 497.539678 
L 258.569942 416.449833 
L 259.009048 444.117294 
L 259.228601 394.447155 
L 259.448154 415.890257 
L 259.667707 487.819058 
L 259.88726 503.520545 
L 260.106814 479.43013 
L 260.326367 365.455419 
L 260.54592 391.508805 
L 260.765473 398.796912 
L 260.985026 334.19572 
L 261.204579 415.061768 
L 261.424133 360.586168 
L 261.643686 397.768465 
L 262.082792 309.883087 
L 262.302345 430.957196 
L 262.521898 427.847185 
L 262.741451 435.892356 
L 262.961005 453.307586 
L 263.180558 452.208226 
L 263.400111 345.609331 
L 263.619664 462.914383 
L 263.839217 491.81912 
L 264.05877 454.608439 
L 264.278324 443.949016 
L 264.497877 439.804376 
L 264.71743 425.128636 
L 264.936983 344.240709 
L 265.376089 478.14478 
L 265.815196 325.390411 
L 266.034749 460.386393 
L 266.254302 419.5732 
L 266.473855 506.57478 
L 266.693408 409.124127 
L 266.912961 449.927008 
L 267.132514 420.41815 
L 267.352068 466.929156 
L 267.571621 441.180835 
L 267.791174 436.662005 
L 268.010727 424.939372 
L 268.23028 438.911958 
L 268.449833 539.280166 
L 268.669387 392.729321 
L 268.88894 386.486645 
L 269.108493 418.989188 
L 269.328046 481.528102 
L 269.547599 433.757116 
L 269.767152 501.515714 
L 269.986705 509.540142 
L 270.206259 425.315126 
L 270.425812 451.531035 
L 270.645365 451.73115 
L 270.864918 452.467876 
L 271.084471 206.409615 
L 271.304024 492.720227 
L 271.743131 456.708653 
L 271.962684 487.07277 
L 272.182237 450.099126 
L 272.40179 470.641261 
L 272.621343 400.199134 
L 272.840896 371.520646 
L 273.499556 502.064467 
L 273.719109 471.063004 
L 273.938662 384.345788 
L 274.158215 409.905916 
L 274.377769 307.411242 
L 274.597322 447.261409 
L 274.816875 389.547858 
L 275.255981 528.573187 
L 275.475534 473.180751 
L 275.695087 333.528514 
L 275.914641 326.395063 
L 276.134194 520.929584 
L 276.353747 498.370308 
L 276.5733 348.057942 
L 276.792853 355.971789 
L 277.012406 473.011215 
L 277.23196 476.814827 
L 277.451513 321.870344 
L 277.890619 402.856608 
L 278.110172 384.609936 
L 278.549278 305.573703 
L 278.768832 350.403343 
L 278.988385 446.008021 
L 279.207938 377.018977 
L 279.427491 358.878111 
L 279.647044 215.604765 
L 279.866597 329.794812 
L 280.086151 507.826131 
L 280.305704 488.747311 
L 280.525257 457.266466 
L 280.74481 388.206576 
L 280.964363 472.116781 
L 281.183916 380.364893 
L 281.403469 516.543836 
L 281.842576 440.808647 
L 282.062129 458.531801 
L 282.281682 332.928629 
L 282.501235 523.275017 
L 282.720788 524.971334 
L 282.940342 476.745102 
L 283.159895 551.237748 
L 283.379448 428.472807 
L 283.599001 385.90469 
L 283.818554 467.563408 
L 284.038107 266.823164 
L 284.25766 325.92299 
L 284.477214 325.370494 
L 284.696767 215.285887 
L 284.91632 390.49071 
L 285.355426 410.577744 
L 285.574979 358.810867 
L 286.014086 480.787916 
L 286.233639 266.213812 
L 286.453192 442.044458 
L 286.672745 370.700667 
L 286.892298 435.055013 
L 287.111851 547.300527 
L 287.331405 414.542806 
L 287.550958 432.43147 
L 287.770511 431.110303 
L 287.990064 521.242525 
L 288.209617 429.620353 
L 288.42917 411.094209 
L 288.648724 412.090438 
L 288.868277 481.492349 
L 289.08783 430.207453 
L 289.307383 441.113671 
L 289.526936 356.133263 
L 289.746489 498.968362 
L 289.966042 438.876551 
L 290.185596 412.749613 
L 290.405149 526.547927 
L 290.624702 304.813945 
L 290.844255 493.311403 
L 291.063808 450.70118 
L 291.283361 370.886878 
L 291.502915 178.66454 
L 291.722468 382.601984 
L 291.942021 449.255561 
L 292.161574 463.894331 
L 292.381127 490.400096 
L 292.60068 216.686799 
L 292.820233 432.225503 
L 293.039787 495.531292 
L 293.25934 452.416496 
L 293.478893 367.504892 
L 293.698446 354.670717 
L 293.917999 470.367977 
L 294.137552 384.260886 
L 294.576659 418.278215 
L 294.796212 369.262668 
L 295.015765 373.259686 
L 295.235318 541.665023 
L 295.454871 393.802596 
L 295.674424 463.372195 
L 295.893978 427.442169 
L 296.113531 365.80541 
L 296.552637 447.205961 
L 296.77219 360.756948 
L 296.991743 444.991455 
L 297.211296 483.174981 
L 297.43085 345.017212 
L 297.650403 386.912225 
L 297.869956 393.964016 
L 298.089509 318.493071 
L 298.528615 464.649467 
L 298.748169 367.346521 
L 298.967722 380.000671 
L 299.187275 517.379796 
L 299.406828 423.093068 
L 299.626381 470.669391 
L 299.845934 404.869875 
L 300.065487 435.751758 
L 300.285041 347.724499 
L 300.504594 447.277248 
L 300.724147 381.336711 
L 300.9437 473.988214 
L 301.163253 251.135802 
L 301.382806 256.875036 
L 301.60236 447.843513 
L 301.821913 471.139682 
L 302.041466 264.812605 
L 302.261019 402.565251 
L 302.480572 375.787703 
L 302.700125 512.70789 
L 302.919678 460.633953 
L 303.139232 515.349567 
L 303.358785 419.549463 
L 303.578338 470.873399 
L 303.797891 458.965674 
L 304.017444 431.577207 
L 304.236997 482.828082 
L 304.456551 472.126088 
L 304.676104 366.581656 
L 304.895657 354.299943 
L 305.11521 450.178375 
L 305.334763 438.924462 
L 305.554316 271.92914 
L 305.773869 405.867878 
L 305.993423 355.773557 
L 306.212976 409.184478 
L 306.432529 333.752164 
L 306.652082 476.975371 
L 306.871635 432.045629 
L 307.310742 465.600331 
L 307.530295 504.850873 
L 307.969401 364.31009 
L 308.188954 478.493914 
L 308.408507 376.745712 
L 308.62806 509.639393 
L 308.847614 413.980528 
L 309.067167 462.407679 
L 309.28672 276.346928 
L 309.506273 285.524777 
L 309.725826 416.711225 
L 309.945379 421.825895 
L 310.164933 480.424325 
L 310.384486 463.61527 
L 310.604039 417.736253 
L 310.823592 438.696794 
L 311.043145 414.551357 
L 311.262698 549.606142 
L 311.482251 432.317942 
L 311.701805 450.978156 
L 311.921358 441.679166 
L 312.140911 403.37322 
L 312.360464 394.298241 
L 312.580017 448.10542 
L 312.79957 347.405988 
L 313.019124 442.604465 
L 313.238677 353.310913 
L 313.45823 467.685101 
L 313.677783 456.517593 
L 313.897336 386.753895 
L 314.116889 447.262038 
L 314.336442 315.920761 
L 314.555996 505.895993 
L 314.775549 502.580368 
L 314.995102 436.809221 
L 315.214655 406.202092 
L 315.434208 427.741424 
L 315.653761 389.041692 
L 315.873315 473.927252 
L 316.092868 324.846362 
L 316.312421 491.097521 
L 316.531974 350.778438 
L 316.751527 488.613828 
L 316.97108 481.613041 
L 317.190633 512.165817 
L 317.410187 513.557523 
L 317.62974 479.773729 
L 317.849293 510.044675 
L 318.068846 474.213013 
L 318.288399 491.521748 
L 318.507952 489.681858 
L 318.727506 526.630586 
L 318.947059 484.179463 
L 319.166612 529.32788 
L 319.386165 421.868767 
L 319.605718 398.567707 
L 320.044824 470.544733 
L 320.264378 165.938269 
L 320.483931 452.732493 
L 320.703484 490.04488 
L 320.923037 389.238151 
L 321.14259 429.117386 
L 321.362143 511.595065 
L 321.80125 394.249116 
L 322.020803 273.710604 
L 322.459909 402.547349 
L 322.679462 372.393946 
L 322.899015 504.19535 
L 323.118569 503.471381 
L 323.338122 512.193992 
L 323.557675 435.196682 
L 323.777228 493.588994 
L 323.996781 398.840186 
L 324.216334 353.084228 
L 324.435887 384.498206 
L 324.655441 488.177109 
L 324.874994 480.174029 
L 325.094547 420.860503 
L 325.3141 401.920425 
L 325.533653 343.722706 
L 325.753206 525.006727 
L 325.97276 427.921467 
L 326.192313 509.497138 
L 326.631419 405.549188 
L 326.850972 517.370173 
L 327.290078 291.626862 
L 327.509632 499.539262 
L 327.729185 414.855333 
L 327.948738 499.827782 
L 328.168291 412.712602 
L 328.387844 499.273661 
L 329.046504 366.324722 
L 329.266057 443.741041 
L 329.48561 449.395173 
L 329.705163 440.956158 
L 329.924716 360.775791 
L 330.144269 399.516732 
L 330.363823 493.84177 
L 330.583376 357.03149 
L 330.802929 379.018477 
L 331.022482 498.286729 
L 331.242035 425.2943 
L 331.461588 416.446691 
L 331.681142 209.096096 
L 331.900695 491.477506 
L 332.120248 374.062226 
L 332.339801 455.594428 
L 332.559354 411.381767 
L 332.778907 521.828103 
L 332.99846 415.468096 
L 333.218014 418.83627 
L 333.437567 310.110856 
L 333.65712 494.279921 
L 333.876673 483.60269 
L 334.096226 250.862844 
L 334.315779 476.499231 
L 334.535333 368.007017 
L 334.754886 431.06431 
L 334.974439 406.259838 
L 335.193992 517.854275 
L 335.413545 378.005653 
L 335.633098 468.103702 
L 335.852651 340.733789 
L 336.072205 308.525206 
L 336.291758 412.75915 
L 336.511311 295.804432 
L 336.730864 306.61186 
L 336.950417 329.394682 
L 337.389524 529.878967 
L 337.609077 381.102155 
L 337.82863 468.2816 
L 338.048183 472.893622 
L 338.267736 451.013983 
L 338.487289 444.296058 
L 338.706842 165.52362 
L 338.926396 427.847523 
L 339.145949 309.239498 
L 339.365502 419.315452 
L 339.585055 420.624655 
L 339.804608 386.895449 
L 340.024161 407.279374 
L 340.243715 507.61752 
L 340.463268 268.957227 
L 340.682821 381.678034 
L 340.902374 412.902862 
L 341.121927 401.143048 
L 341.34148 370.272178 
L 341.561033 405.797249 
L 341.780587 345.565722 
L 342.00014 499.905529 
L 342.219693 391.993886 
L 342.439246 433.781727 
L 342.658799 399.723412 
L 342.878352 427.745207 
L 343.317459 372.187286 
L 343.537012 502.289853 
L 343.756565 467.829201 
L 343.976118 347.542956 
L 344.195671 436.060111 
L 344.415224 438.966347 
L 344.634778 506.335606 
L 344.854331 442.355267 
L 345.073884 482.63615 
L 345.293437 410.099525 
L 345.51299 572.879564 
L 345.732543 406.833001 
L 345.952096 481.338829 
L 346.17165 493.946473 
L 346.391203 379.875318 
L 346.610756 398.961586 
L 346.830309 452.330127 
L 347.049862 429.199432 
L 347.269415 506.455295 
L 347.488969 465.178926 
L 347.708522 486.614694 
L 347.928075 337.156917 
L 348.367181 383.81397 
L 348.586734 460.165758 
L 348.806287 457.098195 
L 349.025841 506.046302 
L 349.245394 391.28878 
L 349.464947 336.527588 
L 349.6845 496.341641 
L 350.123606 363.166972 
L 350.34316 456.529331 
L 350.562713 336.991703 
L 350.782266 296.993208 
L 351.001819 413.541842 
L 351.221372 448.208323 
L 351.440925 330.935654 
L 351.880032 499.540988 
L 352.099585 322.082747 
L 352.319138 331.903365 
L 352.538691 293.150161 
L 352.977797 497.121872 
L 353.197351 298.702375 
L 353.636457 356.034852 
L 353.85601 498.713641 
L 354.075563 305.209764 
L 354.295116 510.901866 
L 354.514669 425.925248 
L 354.734223 420.358976 
L 355.173329 519.561819 
L 355.392882 329.316593 
L 355.612435 441.134598 
L 355.831988 311.064961 
L 356.051542 403.43986 
L 356.271095 291.250251 
L 356.490648 434.190318 
L 356.710201 462.215298 
L 356.929754 441.236475 
L 357.149307 500.207055 
L 357.588414 546.888247 
L 357.807967 381.057152 
L 358.02752 439.046528 
L 358.247073 397.629676 
L 358.466626 414.323085 
L 358.686179 462.245603 
L 358.905733 321.2318 
L 359.125286 531.712244 
L 359.344839 418.869246 
L 359.564392 518.311437 
L 359.783945 409.382867 
L 360.003498 506.790698 
L 360.442605 373.001881 
L 360.662158 477.043006 
L 361.101264 506.37205 
L 361.320817 449.774362 
L 361.54037 471.737908 
L 361.759924 282.105664 
L 361.979477 428.039904 
L 362.19903 287.459456 
L 362.418583 403.094105 
L 362.638136 458.629341 
L 362.857689 445.677162 
L 363.077242 323.713911 
L 363.296796 435.563484 
L 363.516349 379.622658 
L 363.735902 435.983603 
L 363.955455 408.963333 
L 364.175008 508.164023 
L 364.394561 475.664456 
L 364.614115 473.692812 
L 364.833668 357.997437 
L 365.053221 461.499569 
L 365.272774 358.134237 
L 365.492327 457.773458 
L 365.71188 361.517971 
L 365.931433 409.653837 
L 366.150987 493.344323 
L 366.37054 268.653623 
L 366.590093 484.458256 
L 366.809646 232.57592 
L 367.248752 370.050448 
L 367.468306 388.780291 
L 367.687859 370.833817 
L 367.907412 472.47351 
L 368.126965 489.138972 
L 368.346518 472.446108 
L 368.566071 312.176492 
L 368.785624 462.714595 
L 369.005178 408.157295 
L 369.224731 200.60335 
L 369.444284 324.341602 
L 369.663837 297.471479 
L 369.88339 409.939625 
L 370.102943 392.1758 
L 370.322497 437.192894 
L 370.54205 404.422477 
L 370.761603 327.567927 
L 370.981156 498.427746 
L 371.200709 481.817552 
L 371.420262 432.743406 
L 371.639815 340.702272 
L 371.859369 304.991406 
L 372.078922 415.500765 
L 372.298475 310.158135 
L 372.518028 446.32419 
L 372.737581 493.743776 
L 372.957134 271.297403 
L 373.176687 444.609826 
L 373.396241 428.466388 
L 373.615794 456.58224 
L 373.835347 380.601057 
L 374.0549 518.805262 
L 374.274453 495.246542 
L 374.494006 455.548979 
L 374.71356 473.001828 
L 374.933113 417.903157 
L 375.152666 502.980257 
L 375.372219 492.69846 
L 375.811325 370.292628 
L 376.030878 488.686144 
L 376.250432 342.870383 
L 376.469985 359.229057 
L 376.689538 555.865301 
L 376.909091 530.404637 
L 377.128644 397.63692 
L 377.348197 470.282052 
L 377.567751 450.685814 
L 377.787304 448.651925 
L 378.006857 365.138824 
L 378.22641 364.87798 
L 378.445963 441.525621 
L 378.665516 581.38839 
L 378.885069 466.138533 
L 379.104623 474.714878 
L 379.324176 499.2903 
L 379.543729 421.896222 
L 379.763282 541.619833 
L 379.982835 477.68576 
L 380.202388 515.156213 
L 380.421942 393.754402 
L 380.641495 488.451 
L 381.080601 412.6763 
L 381.300154 484.813944 
L 381.519707 389.381061 
L 381.73926 496.941389 
L 381.958814 489.687799 
L 382.178367 460.436873 
L 382.39792 533.878456 
L 382.617473 425.385313 
L 382.837026 465.988631 
L 383.056579 131.956182 
L 383.276133 308.788673 
L 383.495686 346.18478 
L 383.715239 252.23198 
L 383.934792 508.651514 
L 384.154345 404.299947 
L 384.373898 443.552693 
L 384.593451 367.319964 
L 384.813005 437.107037 
L 385.032558 385.35136 
L 385.252111 481.666998 
L 385.471664 447.574033 
L 385.91077 313.555331 
L 386.349877 513.889951 
L 386.788983 351.140271 
L 387.228089 519.739151 
L 387.447642 348.381469 
L 387.667196 432.513286 
L 387.886749 429.799326 
L 388.106302 386.90782 
L 388.325855 472.480845 
L 388.545408 335.411172 
L 388.984515 538.582886 
L 389.204068 442.167552 
L 389.423621 472.420546 
L 389.643174 348.196109 
L 389.862727 345.60744 
L 390.08228 328.074252 
L 390.301833 485.439341 
L 390.521387 498.56034 
L 390.74094 365.104683 
L 390.960493 488.41697 
L 391.180046 475.253164 
L 391.399599 321.95279 
L 391.619152 473.824808 
L 391.838706 462.602001 
L 392.058259 509.227165 
L 392.277812 506.675295 
L 392.497365 497.135253 
L 392.716918 451.79665 
L 392.936471 464.989357 
L 393.156024 318.005115 
L 393.375578 454.967554 
L 393.595131 370.687641 
L 393.814684 369.028215 
L 394.034237 457.442445 
L 394.25379 438.104729 
L 394.473343 356.414496 
L 394.692897 497.125032 
L 394.91245 487.088932 
L 395.132003 511.614615 
L 395.351556 445.748916 
L 395.571109 466.942243 
L 395.790662 334.653912 
L 396.010215 339.524341 
L 396.229769 261.786381 
L 396.449322 409.821674 
L 396.668875 421.836791 
L 396.888428 253.79687 
L 397.107981 495.215428 
L 397.327534 393.176801 
L 397.547087 386.276215 
L 397.986194 450.135835 
L 398.205747 389.338575 
L 398.4253 467.662589 
L 398.644853 155.75769 
L 398.864406 520.114039 
L 399.08396 495.161036 
L 399.523066 376.110574 
L 399.742619 388.933703 
L 400.181725 475.939198 
L 400.401278 450.76325 
L 400.620832 469.823896 
L 400.840385 526.324376 
L 401.059938 479.04776 
L 401.279491 463.348863 
L 401.499044 429.035121 
L 401.718597 452.68293 
L 401.938151 394.417654 
L 402.157704 554.959303 
L 402.377257 306.960506 
L 402.59681 270.766411 
L 402.816363 342.484141 
L 403.035916 472.139473 
L 403.475023 277.035979 
L 404.133682 550.495245 
L 404.353235 423.210738 
L 404.572788 417.738272 
L 404.792342 426.100965 
L 405.011895 482.113839 
L 405.451001 245.877334 
L 405.670554 402.200706 
L 405.890107 409.447676 
L 406.10966 496.81677 
L 406.329214 480.170102 
L 406.548767 507.579652 
L 406.76832 466.015728 
L 406.987873 393.306104 
L 407.207426 502.546222 
L 407.426979 386.204311 
L 407.646533 492.470151 
L 408.085639 348.729401 
L 408.305192 420.315296 
L 408.524745 319.034039 
L 408.744298 523.297583 
L 408.963851 395.938801 
L 409.183405 361.79031 
L 409.402958 485.009995 
L 409.622511 490.280601 
L 409.842064 358.669716 
L 410.061617 359.668465 
L 410.500724 504.1331 
L 410.720277 467.78831 
L 410.93983 479.731462 
L 411.159383 537.299722 
L 411.598489 252.070941 
L 411.818042 504.897322 
L 412.037596 537.770089 
L 412.257149 428.759498 
L 412.476702 449.96128 
L 412.915808 425.900693 
L 413.135361 440.609174 
L 413.354915 447.557992 
L 413.574468 340.256214 
L 413.794021 453.083961 
L 414.233127 394.4745 
L 414.672233 518.150607 
L 414.891787 413.912055 
L 415.11134 499.438228 
L 415.330893 350.586327 
L 415.550446 450.086944 
L 415.769999 409.474718 
L 415.989552 444.900802 
L 416.209106 459.891751 
L 416.428659 396.06589 
L 416.648212 446.158867 
L 416.867765 420.783522 
L 417.087318 524.241673 
L 417.306871 350.331779 
L 417.526424 460.856392 
L 417.745978 417.910588 
L 417.965531 410.237709 
L 418.185084 352.251924 
L 418.404637 365.014455 
L 418.62419 514.564307 
L 418.843743 374.897497 
L 419.063297 401.881765 
L 419.28285 271.724432 
L 419.502403 455.991754 
L 419.721956 516.33243 
L 419.941509 502.912866 
L 420.161062 471.62593 
L 420.380615 462.316691 
L 420.600169 459.315745 
L 420.819722 420.164694 
L 421.039275 211.053972 
L 421.258828 462.616865 
L 421.478381 482.310048 
L 422.137041 313.595679 
L 422.356594 474.965603 
L 422.576147 455.756901 
L 422.7957 370.989049 
L 423.015253 454.321742 
L 423.234806 460.999545 
L 423.45436 516.470662 
L 423.673913 426.449635 
L 423.893466 442.815761 
L 424.113019 371.422185 
L 424.332572 428.032935 
L 424.552125 142.896218 
L 424.771678 515.512448 
L 424.991232 552.710975 
L 425.210785 537.062643 
L 425.430338 417.367527 
L 425.649891 407.527174 
L 425.869444 359.009942 
L 426.088997 512.978765 
L 426.308551 452.689064 
L 426.528104 466.964261 
L 426.747657 473.943949 
L 426.96721 433.324238 
L 427.186763 247.326874 
L 427.406316 410.977329 
L 427.625869 365.917614 
L 427.845423 442.685565 
L 428.064976 380.480678 
L 428.284529 480.809728 
L 428.504082 416.375578 
L 428.723635 303.228693 
L 428.943188 514.43447 
L 429.162742 455.755733 
L 429.382295 494.65748 
L 429.601848 469.032363 
L 429.821401 321.701565 
L 430.040954 421.1987 
L 430.260507 301.908109 
L 430.48006 425.42239 
L 430.919167 321.59987 
L 431.13872 465.114503 
L 431.358273 418.237914 
L 431.577826 408.138045 
L 431.797379 339.131894 
L 432.016933 375.704912 
L 432.236486 458.818994 
L 432.456039 362.407876 
L 432.675592 478.788904 
L 432.895145 385.022278 
L 433.114698 427.243459 
L 433.334251 497.279347 
L 433.553805 418.541757 
L 433.773358 403.721281 
L 433.992911 409.070382 
L 434.212464 287.036877 
L 434.432017 394.790106 
L 434.65157 441.641295 
L 434.871124 530.583203 
L 435.090677 411.932206 
L 435.31023 445.315914 
L 435.529783 451.676945 
L 435.749336 405.943188 
L 435.968889 430.053302 
L 436.188442 517.714345 
L 436.407996 421.963067 
L 436.627549 418.474856 
L 436.847102 510.302048 
L 437.066655 529.678365 
L 437.286208 323.025556 
L 437.505761 408.712012 
L 437.725315 283.962363 
L 438.164421 440.181985 
L 438.383974 395.709549 
L 438.82308 438.493376 
L 439.042633 375.318127 
L 439.262187 463.220187 
L 439.48174 460.291793 
L 439.701293 483.447457 
L 439.920846 405.03245 
L 440.140399 423.436581 
L 440.359952 351.185892 
L 440.579506 519.031574 
L 440.799059 303.883432 
L 441.018612 443.010622 
L 441.238165 464.237098 
L 441.457718 430.632332 
L 441.677271 495.226159 
L 441.896824 406.821516 
L 442.335931 552.275081 
L 442.555484 371.755726 
L 442.775037 447.557918 
L 442.99459 399.32687 
L 443.214143 480.384174 
L 443.433697 498.14644 
L 443.65325 481.752126 
L 443.872803 524.487511 
L 444.092356 486.909609 
L 444.311909 343.762542 
L 444.531462 456.74092 
L 444.751015 459.530526 
L 444.970569 451.695424 
L 445.190122 411.938265 
L 445.409675 337.978074 
L 445.629228 381.172739 
L 445.848781 505.015961 
L 446.068334 399.66019 
L 446.287888 393.340324 
L 446.507441 527.264201 
L 446.726994 422.457832 
L 447.1661 535.199004 
L 447.385653 403.975063 
L 447.605206 446.847163 
L 447.82476 390.307826 
L 448.044313 509.114605 
L 448.483419 371.312482 
L 448.922525 540.865286 
L 449.142079 398.129773 
L 449.361632 468.708519 
L 449.581185 500.288475 
L 449.800738 468.41092 
L 450.020291 357.040554 
L 450.239844 345.497668 
L 450.459397 410.333019 
L 450.678951 402.036524 
L 450.898504 423.191374 
L 451.118057 395.849088 
L 451.33761 450.336078 
L 451.557163 474.388208 
L 451.776716 531.696167 
L 451.996269 384.088588 
L 452.435376 323.589656 
L 452.654929 404.840421 
L 452.874482 310.114635 
L 453.094035 293.056323 
L 453.533142 463.646136 
L 453.752695 504.946426 
L 453.972248 446.875903 
L 454.191801 303.467597 
L 454.411354 418.879512 
L 454.630907 430.287231 
L 454.85046 452.157499 
L 455.070014 405.20594 
L 455.289567 386.122359 
L 455.50912 461.819354 
L 455.728673 312.909188 
L 455.948226 445.605188 
L 456.167779 407.227586 
L 456.387333 397.052132 
L 456.606886 462.255456 
L 456.826439 370.15879 
L 457.045992 428.443235 
L 457.265545 391.778832 
L 457.485098 440.760912 
L 457.704651 401.621451 
L 457.924205 479.258501 
L 458.143758 437.79965 
L 458.363311 546.068352 
L 458.802417 333.929685 
L 459.02197 435.695093 
L 459.241524 404.309022 
L 459.461077 519.534333 
L 459.68063 362.833702 
L 459.900183 409.347044 
L 460.119736 498.524935 
L 460.339289 535.688932 
L 460.558842 431.14479 
L 460.778396 452.7444 
L 460.997949 409.393744 
L 461.217502 445.437365 
L 461.437055 386.602114 
L 461.656608 278.85764 
L 462.095715 354.780941 
L 462.315268 355.670448 
L 462.754374 179.482091 
L 462.973927 501.374419 
L 463.19348 464.5376 
L 463.413033 464.988415 
L 463.632587 393.191795 
L 463.85214 499.842677 
L 464.071693 369.605541 
L 464.291246 451.0707 
L 464.510799 406.323507 
L 464.730352 521.929094 
L 464.949906 432.17742 
L 465.169459 516.125124 
L 465.608565 377.084574 
L 465.828118 482.778525 
L 466.047671 511.871777 
L 466.267224 392.386453 
L 466.486778 377.448514 
L 466.706331 273.59599 
L 466.925884 426.854955 
L 467.145437 298.446708 
L 467.584543 551.19646 
L 467.804097 360.012254 
L 468.02365 319.921617 
L 468.243203 553.697822 
L 468.462756 471.81707 
L 468.682309 462.712191 
L 468.901862 329.635239 
L 469.121415 469.286969 
L 469.340969 403.209654 
L 469.560522 478.811024 
L 469.780075 393.379657 
L 469.999628 444.719431 
L 470.219181 315.968003 
L 470.438734 445.676556 
L 470.658288 458.193676 
L 470.877841 503.628346 
L 471.097394 344.44685 
L 471.316947 506.45661 
L 471.5365 488.393916 
L 471.756053 336.30753 
L 472.19516 438.859369 
L 472.414713 317.06408 
L 472.634266 422.45499 
L 472.853819 461.613223 
L 473.073372 369.143848 
L 473.292925 546.414128 
L 473.951585 355.493438 
L 474.171138 521.542029 
L 474.390691 401.88638 
L 474.610244 496.544883 
L 474.829797 416.949221 
L 475.049351 416.037031 
L 475.488457 312.345821 
L 475.70801 384.640904 
L 475.927563 374.283568 
L 476.366669 515.369265 
L 476.586223 417.585568 
L 476.805776 393.633829 
L 477.025329 462.285424 
L 477.244882 489.774704 
L 477.464435 415.014401 
L 477.683988 431.132512 
L 477.903542 388.470929 
L 478.123095 377.346768 
L 478.562201 504.968196 
L 478.781754 505.933039 
L 479.001307 512.532352 
L 479.440414 350.330104 
L 479.659967 414.499484 
L 479.87952 526.811685 
L 480.318626 365.014085 
L 480.538179 507.191562 
L 480.757733 397.823057 
L 481.196839 430.94465 
L 481.416392 406.526255 
L 481.635945 363.077571 
L 481.855498 439.281824 
L 482.075051 431.99533 
L 482.294605 317.31249 
L 482.514158 501.767146 
L 482.733711 360.166214 
L 482.953264 503.835801 
L 483.172817 523.939877 
L 483.39237 494.924838 
L 483.611924 392.296792 
L 483.831477 540.305417 
L 484.05103 497.875149 
L 484.270583 373.564785 
L 484.490136 445.934485 
L 484.709689 461.704755 
L 484.929242 492.297742 
L 485.368349 383.247088 
L 485.587902 521.851958 
L 485.807455 243.03579 
L 486.027008 466.428608 
L 486.246561 425.854268 
L 486.466115 465.735843 
L 486.685668 384.199219 
L 486.905221 371.983824 
L 487.124774 486.754312 
L 487.344327 490.945052 
L 487.56388 433.580862 
L 487.783433 437.937583 
L 488.002987 445.888049 
L 488.22254 397.816348 
L 488.442093 398.969771 
L 488.661646 337.353791 
L 488.881199 453.600368 
L 489.320306 334.190259 
L 489.539859 509.848049 
L 489.759412 528.831793 
L 489.978965 487.181798 
L 490.198518 333.467106 
L 490.418071 491.520387 
L 490.637624 387.98094 
L 490.857178 475.223306 
L 491.076731 475.263997 
L 491.296284 441.894979 
L 491.515837 482.168429 
L 491.73539 332.52281 
L 491.954943 315.932834 
L 492.174497 204.284827 
L 492.39405 510.618527 
L 492.613603 442.051238 
L 492.833156 302.445099 
L 493.052709 361.639634 
L 493.272262 213.503467 
L 493.491815 384.224263 
L 493.711369 396.313091 
L 493.930922 385.779186 
L 494.150475 384.532629 
L 494.370028 424.024797 
L 494.809134 220.450182 
L 495.028688 508.906216 
L 495.467794 482.815727 
L 495.687347 538.163111 
L 495.9069 471.266378 
L 496.126453 463.281387 
L 496.346006 369.882655 
L 496.56556 449.740524 
L 496.785113 403.133622 
L 497.004666 478.973873 
L 497.224219 430.322264 
L 497.443772 350.677097 
L 497.663325 496.487776 
L 497.882879 437.067115 
L 498.102432 409.005124 
L 498.321985 461.017777 
L 498.541538 425.000563 
L 498.761091 432.8298 
L 498.980644 397.590236 
L 499.200197 428.158823 
L 499.419751 421.833658 
L 499.639304 320.012227 
L 499.858857 485.886557 
L 500.07841 493.82668 
L 500.297963 399.747465 
L 500.517516 379.320823 
L 500.73707 489.227999 
L 500.956623 345.987201 
L 501.176176 518.41428 
L 501.395729 443.996665 
L 501.615282 458.026827 
L 501.834835 317.951128 
L 502.054388 494.133834 
L 502.493495 414.742826 
L 502.713048 479.932749 
L 503.152154 431.208272 
L 503.371707 329.094379 
L 503.59126 303.811038 
L 503.810814 532.735184 
L 504.030367 508.015375 
L 504.24992 552.736842 
L 504.469473 340.468519 
L 504.689026 365.040675 
L 504.908579 368.605644 
L 505.128133 377.877606 
L 505.567239 521.645046 
L 505.786792 350.008234 
L 506.006345 433.423084 
L 506.225898 353.883518 
L 506.445451 423.485213 
L 506.665005 376.771618 
L 507.323664 478.561388 
L 507.543217 322.247537 
L 507.76277 448.48703 
L 507.982324 324.959945 
L 508.640983 554.489606 
L 508.860536 413.570785 
L 509.080089 417.765661 
L 509.299642 447.426932 
L 509.519196 515.810233 
L 509.738749 467.938556 
L 509.958302 481.827201 
L 510.177855 483.888973 
L 510.397408 400.345312 
L 510.616961 227.526259 
L 510.836515 328.951912 
L 511.275621 362.053662 
L 511.714727 475.05301 
L 511.93428 311.729696 
L 512.373387 462.697381 
L 512.59294 429.023532 
L 512.812493 321.704179 
L 513.032046 338.869348 
L 513.251599 447.518784 
L 513.471152 418.130755 
L 513.690706 300.674928 
L 513.910259 391.051104 
L 514.129812 360.902762 
L 514.568918 496.991061 
L 514.788471 362.611487 
L 515.008024 366.758006 
L 515.227578 488.641963 
L 515.447131 338.312262 
L 515.666684 381.712172 
L 515.886237 488.078714 
L 516.325343 339.916493 
L 516.544897 180.893253 
L 516.76445 507.442017 
L 517.203556 340.922921 
L 517.423109 418.659699 
L 517.642662 421.524579 
L 517.862215 396.190821 
L 518.081769 528.335058 
L 518.301322 460.214498 
L 518.520875 432.195206 
L 518.740428 324.879093 
L 518.959981 471.01512 
L 519.179534 478.98772 
L 519.399088 361.245782 
L 519.618641 332.593758 
L 519.838194 424.960883 
L 520.057747 436.894409 
L 520.2773 361.297479 
L 520.496853 515.764398 
L 520.716406 509.023397 
L 520.93596 510.807442 
L 521.155513 477.53757 
L 521.375066 507.606585 
L 521.594619 362.116378 
L 521.814172 359.22393 
L 522.033725 518.070307 
L 522.253279 409.954249 
L 522.472832 524.536923 
L 522.911938 395.53058 
L 523.131491 387.630009 
L 523.351044 492.389165 
L 523.790151 424.830179 
L 524.009704 456.399882 
L 524.229257 390.721233 
L 524.44881 478.779729 
L 524.668363 446.06393 
L 524.887916 394.101347 
L 525.10747 478.356919 
L 525.327023 421.021559 
L 525.546576 462.39961 
L 525.766129 380.819101 
L 525.985682 486.836539 
L 526.205235 311.744698 
L 526.424788 478.374742 
L 526.644342 348.120397 
L 526.863895 295.579581 
L 527.083448 455.373698 
L 527.303001 343.187525 
L 527.522554 359.742604 
L 527.742107 408.959256 
L 527.96166 393.151246 
L 528.181214 523.875867 
L 528.400767 431.743318 
L 528.62032 486.079933 
L 528.839873 465.887513 
L 529.059426 480.407882 
L 529.278979 403.416033 
L 529.498533 447.59268 
L 529.718086 414.249899 
L 529.937639 540.659632 
L 530.157192 366.987006 
L 530.376745 486.035983 
L 530.596298 338.189327 
L 530.815851 476.359766 
L 531.035405 490.04377 
L 531.254958 384.35229 
L 531.474511 375.198343 
L 531.694064 446.534751 
L 531.913617 451.041343 
L 532.13317 368.126114 
L 532.352724 333.030874 
L 532.572277 546.798311 
L 533.011383 358.318241 
L 533.230936 415.569069 
L 533.450489 504.151678 
L 533.670042 546.160294 
L 533.889596 312.611284 
L 534.109149 388.184441 
L 534.328702 421.460671 
L 534.548255 203.689068 
L 534.767808 488.527861 
L 534.987361 504.222489 
L 535.426468 434.795677 
L 535.646021 470.078422 
L 535.865574 384.197292 
L 536.30468 461.552856 
L 536.524233 391.103976 
L 536.743787 431.014681 
L 536.96334 418.788257 
L 537.182893 341.53601 
L 537.402446 418.811178 
L 537.841552 422.80926 
L 538.061106 382.899676 
L 538.280659 505.685939 
L 538.500212 413.857243 
L 538.719765 511.805708 
L 538.939318 381.181574 
L 539.158871 361.80362 
L 539.378424 524.914971 
L 539.597978 302.541682 
L 539.817531 386.595656 
L 540.037084 354.254495 
L 540.256637 403.752844 
L 540.47619 379.870153 
L 540.915297 474.781705 
L 541.13485 472.925867 
L 541.354403 484.978024 
L 541.573956 511.640473 
L 542.013062 442.317069 
L 542.232615 360.041703 
L 542.452169 521.95498 
L 542.671722 454.504179 
L 542.891275 502.533955 
L 543.110828 434.908215 
L 543.330381 444.854427 
L 543.549934 380.763701 
L 543.769488 445.190968 
L 543.989041 453.094933 
L 544.428147 346.216383 
L 544.6477 431.766255 
L 544.867253 420.847662 
L 545.086806 325.562529 
L 545.30636 417.201031 
L 545.525913 227.617799 
L 545.745466 417.377054 
L 545.745466 417.377054 
" style="fill:none;stroke:#96c69a;stroke-linecap:round;stroke-width:3;"/>
   </g>
   <g id="line2d_2"/>
   <g id="patch_3">
    <path d="M 84.914375 603.86 
L 84.914375 109.484571 
" style="fill:none;stroke:#262626;stroke-linecap:square;stroke-linejoin:miter;stroke-width:2.5;"/>
   </g>
   <g id="patch_4">
    <path d="M 84.914375 603.86 
L 567.689804 603.86 
" style="fill:none;stroke:#262626;stroke-linecap:square;stroke-linejoin:miter;stroke-width:2.5;"/>
   </g>
   <g id="legend_1">
    <g id="patch_5">
     <path d="M 514.774179 598.86 
L 560.689804 598.86 
Q 562.689804 598.86 562.689804 596.86 
L 562.689804 554.954375 
Q 562.689804 552.954375 560.689804 552.954375 
L 514.774179 552.954375 
Q 512.774179 552.954375 512.774179 554.954375 
L 512.774179 596.86 
Q 512.774179 598.86 514.774179 598.86 
z
" style="fill:#ffffff;opacity:0.8;stroke:#cccccc;stroke-linejoin:miter;stroke-width:2;"/>
    </g>
    <g id="text_16">
     <!-- $n_\tau$ -->
     <g style="fill:#262626;" transform="translate(524.651991 575.190625)scale(0.24 -0.24)">
      <defs>
       <path d="M 3566 2113 
L 3156 0 
L 2578 0 
L 2988 2091 
Q 3016 2238 3031 2350 
Q 3047 2463 3047 2528 
Q 3047 2791 2881 2937 
Q 2716 3084 2419 3084 
Q 1956 3084 1622 2776 
Q 1288 2469 1184 1941 
L 800 0 
L 225 0 
L 903 3500 
L 1478 3500 
L 1363 2950 
Q 1603 3253 1940 3418 
Q 2278 3584 2650 3584 
Q 3113 3584 3367 3334 
Q 3622 3084 3622 2631 
Q 3622 2519 3608 2391 
Q 3594 2263 3566 2113 
z
" id="DejaVuSans-Oblique-6e" transform="scale(0.015625)"/>
       <path d="M 2103 638 
Q 2188 488 2525 488 
L 2800 488 
L 2706 0 
L 2363 0 
Q 1800 0 1600 300 
Q 1403 606 1534 1269 
L 1856 2925 
L 541 2925 
L 653 3500 
L 3881 3500 
L 3769 2925 
L 2444 2925 
L 2113 1234 
Q 2025 781 2103 638 
z
" id="DejaVuSans-Oblique-3c4" transform="scale(0.015625)"/>
      </defs>
      <use xlink:href="#DejaVuSans-Oblique-6e"/>
      <use transform="translate(63.378906 -16.40625)scale(0.7)" xlink:href="#DejaVuSans-Oblique-3c4"/>
     </g>
    </g>
    <g id="line2d_3">
     <path d="M 516.774179 589.280313 
L 536.774179 589.280313 
" style="fill:none;stroke:#96c69a;stroke-linecap:round;stroke-width:3;"/>
    </g>
    <g id="line2d_4"/>
    <g id="text_17">
     <!-- 80 -->
     <g style="fill:#262626;" transform="translate(544.774179 592.780313)scale(0.1 -0.1)">
      <defs>
       <path d="M 2228 2088 
Q 1891 2088 1709 1903 
Q 1528 1719 1528 1375 
Q 1528 1031 1709 848 
Q 1891 666 2228 666 
Q 2563 666 2741 848 
Q 2919 1031 2919 1375 
Q 2919 1722 2741 1905 
Q 2563 2088 2228 2088 
z
M 1350 2484 
Q 925 2613 709 2878 
Q 494 3144 494 3541 
Q 494 4131 934 4440 
Q 1375 4750 2228 4750 
Q 3075 4750 3515 4442 
Q 3956 4134 3956 3541 
Q 3956 3144 3739 2878 
Q 3522 2613 3097 2484 
Q 3572 2353 3814 2058 
Q 4056 1763 4056 1313 
Q 4056 619 3595 264 
Q 3134 -91 2228 -91 
Q 1319 -91 855 264 
Q 391 619 391 1313 
Q 391 1763 633 2058 
Q 875 2353 1350 2484 
z
M 1631 3419 
Q 1631 3141 1786 2991 
Q 1941 2841 2228 2841 
Q 2509 2841 2662 2991 
Q 2816 3141 2816 3419 
Q 2816 3697 2662 3845 
Q 2509 3994 2228 3994 
Q 1941 3994 1786 3844 
Q 1631 3694 1631 3419 
z
" id="DejaVuSans-Bold-38" transform="scale(0.015625)"/>
       <path d="M 2944 2338 
Q 2944 3213 2780 3570 
Q 2616 3928 2228 3928 
Q 1841 3928 1675 3570 
Q 1509 3213 1509 2338 
Q 1509 1453 1675 1090 
Q 1841 728 2228 728 
Q 2613 728 2778 1090 
Q 2944 1453 2944 2338 
z
M 4147 2328 
Q 4147 1169 3647 539 
Q 3147 -91 2228 -91 
Q 1306 -91 806 539 
Q 306 1169 306 2328 
Q 306 3491 806 4120 
Q 1306 4750 2228 4750 
Q 3147 4750 3647 4120 
Q 4147 3491 4147 2328 
z
" id="DejaVuSans-Bold-30" transform="scale(0.015625)"/>
      </defs>
      <use xlink:href="#DejaVuSans-Bold-38"/>
      <use x="69.580078" xlink:href="#DejaVuSans-Bold-30"/>
     </g>
    </g>
   </g>
  </g>
  <g id="axes_2">
   <g id="patch_6">
    <path d="M 84.914375 92.437143 
L 567.689804 92.437143 
L 567.689804 7.2 
L 84.914375 7.2 
z
" style="fill:none;"/>
   </g>
   <g id="matplotlib.axis_3">
    <g id="xtick_7"/>
    <g id="xtick_8"/>
    <g id="xtick_9"/>
    <g id="xtick_10"/>
    <g id="xtick_11"/>
    <g id="xtick_12"/>
   </g>
   <g id="matplotlib.axis_4">
    <g id="ytick_8">
     <g id="text_18">
      <!-- 0 -->
      <g style="fill:#262626;" transform="translate(55.416875 100.795424)scale(0.22 -0.22)">
       <use xlink:href="#DejaVuSans-30"/>
      </g>
     </g>
    </g>
    <g id="ytick_9">
     <g id="text_19">
      <!-- 100 -->
      <g style="fill:#262626;" transform="translate(27.421875 48.082287)scale(0.22 -0.22)">
       <use xlink:href="#DejaVuSans-31"/>
       <use x="63.623047" xlink:href="#DejaVuSans-30"/>
       <use x="127.246094" xlink:href="#DejaVuSans-30"/>
      </g>
     </g>
    </g>
   </g>
   <g id="patch_7">
    <path clip-path="url(#pb42e3fe888)" d="M 106.858713 92.437143 
L 140.619232 92.437143 
L 140.619232 11.258912 
L 106.858713 11.258912 
z
" style="fill:#96c69a;fill-opacity:0.5;stroke:#ffffff;stroke-linejoin:miter;stroke-width:2;"/>
   </g>
   <g id="patch_8">
    <path clip-path="url(#pb42e3fe888)" d="M 140.619232 92.437143 
L 174.379752 92.437143 
L 174.379752 11.258912 
L 140.619232 11.258912 
z
" style="fill:#96c69a;fill-opacity:0.5;stroke:#ffffff;stroke-linejoin:miter;stroke-width:2;"/>
   </g>
   <g id="patch_9">
    <path clip-path="url(#pb42e3fe888)" d="M 174.379752 92.437143 
L 208.140271 92.437143 
L 208.140271 11.258912 
L 174.379752 11.258912 
z
" style="fill:#96c69a;fill-opacity:0.5;stroke:#ffffff;stroke-linejoin:miter;stroke-width:2;"/>
   </g>
   <g id="patch_10">
    <path clip-path="url(#pb42e3fe888)" d="M 208.140271 92.437143 
L 241.900791 92.437143 
L 241.900791 11.258912 
L 208.140271 11.258912 
z
" style="fill:#96c69a;fill-opacity:0.5;stroke:#ffffff;stroke-linejoin:miter;stroke-width:2;"/>
   </g>
   <g id="patch_11">
    <path clip-path="url(#pb42e3fe888)" d="M 241.900791 92.437143 
L 275.66131 92.437143 
L 275.66131 11.786043 
L 241.900791 11.786043 
z
" style="fill:#96c69a;fill-opacity:0.5;stroke:#ffffff;stroke-linejoin:miter;stroke-width:2;"/>
   </g>
   <g id="patch_12">
    <path clip-path="url(#pb42e3fe888)" d="M 275.66131 92.437143 
L 309.42183 92.437143 
L 309.42183 11.258912 
L 275.66131 11.258912 
z
" style="fill:#96c69a;fill-opacity:0.5;stroke:#ffffff;stroke-linejoin:miter;stroke-width:2;"/>
   </g>
   <g id="patch_13">
    <path clip-path="url(#pb42e3fe888)" d="M 309.42183 92.437143 
L 343.182349 92.437143 
L 343.182349 11.258912 
L 309.42183 11.258912 
z
" style="fill:#96c69a;fill-opacity:0.5;stroke:#ffffff;stroke-linejoin:miter;stroke-width:2;"/>
   </g>
   <g id="patch_14">
    <path clip-path="url(#pb42e3fe888)" d="M 343.182349 92.437143 
L 376.942869 92.437143 
L 376.942869 11.258912 
L 343.182349 11.258912 
z
" style="fill:#96c69a;fill-opacity:0.5;stroke:#ffffff;stroke-linejoin:miter;stroke-width:2;"/>
   </g>
   <g id="patch_15">
    <path clip-path="url(#pb42e3fe888)" d="M 376.942869 92.437143 
L 410.703388 92.437143 
L 410.703388 11.786043 
L 376.942869 11.786043 
z
" style="fill:#96c69a;fill-opacity:0.5;stroke:#ffffff;stroke-linejoin:miter;stroke-width:2;"/>
   </g>
   <g id="patch_16">
    <path clip-path="url(#pb42e3fe888)" d="M 410.703388 92.437143 
L 444.463907 92.437143 
L 444.463907 11.258912 
L 410.703388 11.258912 
z
" style="fill:#96c69a;fill-opacity:0.5;stroke:#ffffff;stroke-linejoin:miter;stroke-width:2;"/>
   </g>
   <g id="patch_17">
    <path clip-path="url(#pb42e3fe888)" d="M 444.463907 92.437143 
L 478.224427 92.437143 
L 478.224427 11.258912 
L 444.463907 11.258912 
z
" style="fill:#96c69a;fill-opacity:0.5;stroke:#ffffff;stroke-linejoin:miter;stroke-width:2;"/>
   </g>
   <g id="patch_18">
    <path clip-path="url(#pb42e3fe888)" d="M 478.224427 92.437143 
L 511.984946 92.437143 
L 511.984946 11.258912 
L 478.224427 11.258912 
z
" style="fill:#96c69a;fill-opacity:0.5;stroke:#ffffff;stroke-linejoin:miter;stroke-width:2;"/>
   </g>
   <g id="patch_19">
    <path clip-path="url(#pb42e3fe888)" d="M 511.984946 92.437143 
L 545.745466 92.437143 
L 545.745466 11.258912 
L 511.984946 11.258912 
z
" style="fill:#96c69a;fill-opacity:0.5;stroke:#ffffff;stroke-linejoin:miter;stroke-width:2;"/>
   </g>
   <g id="patch_20">
    <path d="M 84.914375 92.437143 
L 84.914375 7.2 
" style="fill:none;stroke:#262626;stroke-linecap:square;stroke-linejoin:miter;stroke-width:2.5;"/>
   </g>
   <g id="patch_21">
    <path d="M 84.914375 92.437143 
L 567.689804 92.437143 
" style="fill:none;stroke:#262626;stroke-linecap:square;stroke-linejoin:miter;stroke-width:2.5;"/>
   </g>
  </g>
  <g id="axes_3">
   <g id="patch_22">
    <path d="M 584.337232 603.86 
L 667.574375 603.86 
L 667.574375 109.484571 
L 584.337232 109.484571 
z
" style="fill:none;"/>
   </g>
   <g id="matplotlib.axis_5">
    <g id="xtick_13">
     <g id="text_20">
      <!-- 0 -->
      <g style="fill:#262626;" transform="translate(577.338482 636.076563)scale(0.22 -0.22)">
       <use xlink:href="#DejaVuSans-30"/>
      </g>
     </g>
    </g>
    <g id="xtick_14">
     <g id="text_21">
      <!-- 100 -->
      <g style="fill:#262626;" transform="translate(608.382726 636.076563)scale(0.22 -0.22)">
       <use xlink:href="#DejaVuSans-31"/>
       <use x="63.623047" xlink:href="#DejaVuSans-30"/>
       <use x="127.246094" xlink:href="#DejaVuSans-30"/>
      </g>
     </g>
    </g>
   </g>
   <g id="matplotlib.axis_6">
    <g id="ytick_10"/>
    <g id="ytick_11"/>
    <g id="ytick_12"/>
    <g id="ytick_13"/>
    <g id="ytick_14"/>
    <g id="ytick_15"/>
    <g id="ytick_16"/>
   </g>
   <g id="patch_23">
    <path clip-path="url(#p6efec49733)" d="M 584.337232 581.38839 
L 585.238067 581.38839 
L 585.238067 566.890576 
L 584.337232 566.890576 
z
" style="fill:#96c69a;fill-opacity:0.5;stroke:#ffffff;stroke-linejoin:miter;stroke-width:1.449781;"/>
   </g>
   <g id="patch_24">
    <path clip-path="url(#p6efec49733)" d="M 584.337232 566.890576 
L 588.841407 566.890576 
L 588.841407 552.392763 
L 584.337232 552.392763 
z
" style="fill:#96c69a;fill-opacity:0.5;stroke:#ffffff;stroke-linejoin:miter;stroke-width:1.449781;"/>
   </g>
   <g id="patch_25">
    <path clip-path="url(#p6efec49733)" d="M 584.337232 552.392763 
L 595.597668 552.392763 
L 595.597668 537.89495 
L 584.337232 537.89495 
z
" style="fill:#96c69a;fill-opacity:0.5;stroke:#ffffff;stroke-linejoin:miter;stroke-width:1.449781;"/>
   </g>
   <g id="patch_26">
    <path clip-path="url(#p6efec49733)" d="M 584.337232 537.89495 
L 606.407687 537.89495 
L 606.407687 523.397137 
L 584.337232 523.397137 
z
" style="fill:#96c69a;fill-opacity:0.5;stroke:#ffffff;stroke-linejoin:miter;stroke-width:1.449781;"/>
   </g>
   <g id="patch_27">
    <path clip-path="url(#p6efec49733)" d="M 584.337232 523.397137 
L 624.874802 523.397137 
L 624.874802 508.899324 
L 584.337232 508.899324 
z
" style="fill:#96c69a;fill-opacity:0.5;stroke:#ffffff;stroke-linejoin:miter;stroke-width:1.449781;"/>
   </g>
   <g id="patch_28">
    <path clip-path="url(#p6efec49733)" d="M 584.337232 508.899324 
L 636.585655 508.899324 
L 636.585655 494.401511 
L 584.337232 494.401511 
z
" style="fill:#96c69a;fill-opacity:0.5;stroke:#ffffff;stroke-linejoin:miter;stroke-width:1.449781;"/>
   </g>
   <g id="patch_29">
    <path clip-path="url(#p6efec49733)" d="M 584.337232 494.401511 
L 644.693169 494.401511 
L 644.693169 479.903698 
L 584.337232 479.903698 
z
" style="fill:#96c69a;fill-opacity:0.5;stroke:#ffffff;stroke-linejoin:miter;stroke-width:1.449781;"/>
   </g>
   <g id="patch_30">
    <path clip-path="url(#p6efec49733)" d="M 584.337232 479.903698 
L 655.953605 479.903698 
L 655.953605 465.405884 
L 584.337232 465.405884 
z
" style="fill:#96c69a;fill-opacity:0.5;stroke:#ffffff;stroke-linejoin:miter;stroke-width:1.449781;"/>
   </g>
   <g id="patch_31">
    <path clip-path="url(#p6efec49733)" d="M 584.337232 465.405884 
L 653.2511 465.405884 
L 653.2511 450.908071 
L 584.337232 450.908071 
z
" style="fill:#96c69a;fill-opacity:0.5;stroke:#ffffff;stroke-linejoin:miter;stroke-width:1.449781;"/>
   </g>
   <g id="patch_32">
    <path clip-path="url(#p6efec49733)" d="M 584.337232 450.908071 
L 663.610702 450.908071 
L 663.610702 436.410258 
L 584.337232 436.410258 
z
" style="fill:#96c69a;fill-opacity:0.5;stroke:#ffffff;stroke-linejoin:miter;stroke-width:1.449781;"/>
   </g>
   <g id="patch_33">
    <path clip-path="url(#p6efec49733)" d="M 584.337232 436.410258 
L 658.205692 436.410258 
L 658.205692 421.912445 
L 584.337232 421.912445 
z
" style="fill:#96c69a;fill-opacity:0.5;stroke:#ffffff;stroke-linejoin:miter;stroke-width:1.449781;"/>
   </g>
   <g id="patch_34">
    <path clip-path="url(#p6efec49733)" d="M 584.337232 421.912445 
L 663.610702 421.912445 
L 663.610702 407.414632 
L 584.337232 407.414632 
z
" style="fill:#96c69a;fill-opacity:0.5;stroke:#ffffff;stroke-linejoin:miter;stroke-width:1.449781;"/>
   </g>
   <g id="patch_35">
    <path clip-path="url(#p6efec49733)" d="M 584.337232 407.414632 
L 653.2511 407.414632 
L 653.2511 392.916819 
L 584.337232 392.916819 
z
" style="fill:#96c69a;fill-opacity:0.5;stroke:#ffffff;stroke-linejoin:miter;stroke-width:1.449781;"/>
   </g>
   <g id="patch_36">
    <path clip-path="url(#p6efec49733)" d="M 584.337232 392.916819 
L 636.585655 392.916819 
L 636.585655 378.419005 
L 584.337232 378.419005 
z
" style="fill:#96c69a;fill-opacity:0.5;stroke:#ffffff;stroke-linejoin:miter;stroke-width:1.449781;"/>
   </g>
   <g id="patch_37">
    <path clip-path="url(#p6efec49733)" d="M 584.337232 378.419005 
L 623.523549 378.419005 
L 623.523549 363.921192 
L 584.337232 363.921192 
z
" style="fill:#96c69a;fill-opacity:0.5;stroke:#ffffff;stroke-linejoin:miter;stroke-width:1.449781;"/>
   </g>
   <g id="patch_38">
    <path clip-path="url(#p6efec49733)" d="M 584.337232 363.921192 
L 625.775637 363.921192 
L 625.775637 349.423379 
L 584.337232 349.423379 
z
" style="fill:#96c69a;fill-opacity:0.5;stroke:#ffffff;stroke-linejoin:miter;stroke-width:1.449781;"/>
   </g>
   <g id="patch_39">
    <path clip-path="url(#p6efec49733)" d="M 584.337232 349.423379 
L 615.416035 349.423379 
L 615.416035 334.925566 
L 584.337232 334.925566 
z
" style="fill:#96c69a;fill-opacity:0.5;stroke:#ffffff;stroke-linejoin:miter;stroke-width:1.449781;"/>
   </g>
   <g id="patch_40">
    <path clip-path="url(#p6efec49733)" d="M 584.337232 334.925566 
L 613.163948 334.925566 
L 613.163948 320.427753 
L 584.337232 320.427753 
z
" style="fill:#96c69a;fill-opacity:0.5;stroke:#ffffff;stroke-linejoin:miter;stroke-width:1.449781;"/>
   </g>
   <g id="patch_41">
    <path clip-path="url(#p6efec49733)" d="M 584.337232 320.427753 
L 604.155599 320.427753 
L 604.155599 305.92994 
L 584.337232 305.92994 
z
" style="fill:#96c69a;fill-opacity:0.5;stroke:#ffffff;stroke-linejoin:miter;stroke-width:1.449781;"/>
   </g>
   <g id="patch_42">
    <path clip-path="url(#p6efec49733)" d="M 584.337232 305.92994 
L 599.651425 305.92994 
L 599.651425 291.432127 
L 584.337232 291.432127 
z
" style="fill:#96c69a;fill-opacity:0.5;stroke:#ffffff;stroke-linejoin:miter;stroke-width:1.449781;"/>
   </g>
   <g id="patch_43">
    <path clip-path="url(#p6efec49733)" d="M 584.337232 291.432127 
L 590.192659 291.432127 
L 590.192659 276.934313 
L 584.337232 276.934313 
z
" style="fill:#96c69a;fill-opacity:0.5;stroke:#ffffff;stroke-linejoin:miter;stroke-width:1.449781;"/>
   </g>
   <g id="patch_44">
    <path clip-path="url(#p6efec49733)" d="M 584.337232 276.934313 
L 591.543911 276.934313 
L 591.543911 262.4365 
L 584.337232 262.4365 
z
" style="fill:#96c69a;fill-opacity:0.5;stroke:#ffffff;stroke-linejoin:miter;stroke-width:1.449781;"/>
   </g>
   <g id="patch_45">
    <path clip-path="url(#p6efec49733)" d="M 584.337232 262.4365 
L 593.345581 262.4365 
L 593.345581 247.938687 
L 584.337232 247.938687 
z
" style="fill:#96c69a;fill-opacity:0.5;stroke:#ffffff;stroke-linejoin:miter;stroke-width:1.449781;"/>
   </g>
   <g id="patch_46">
    <path clip-path="url(#p6efec49733)" d="M 584.337232 247.938687 
L 587.940572 247.938687 
L 587.940572 233.440874 
L 584.337232 233.440874 
z
" style="fill:#96c69a;fill-opacity:0.5;stroke:#ffffff;stroke-linejoin:miter;stroke-width:1.449781;"/>
   </g>
   <g id="patch_47">
    <path clip-path="url(#p6efec49733)" d="M 584.337232 233.440874 
L 587.940572 233.440874 
L 587.940572 218.943061 
L 584.337232 218.943061 
z
" style="fill:#96c69a;fill-opacity:0.5;stroke:#ffffff;stroke-linejoin:miter;stroke-width:1.449781;"/>
   </g>
   <g id="patch_48">
    <path clip-path="url(#p6efec49733)" d="M 584.337232 218.943061 
L 588.390989 218.943061 
L 588.390989 204.445248 
L 584.337232 204.445248 
z
" style="fill:#96c69a;fill-opacity:0.5;stroke:#ffffff;stroke-linejoin:miter;stroke-width:1.449781;"/>
   </g>
   <g id="patch_49">
    <path clip-path="url(#p6efec49733)" d="M 584.337232 204.445248 
L 586.138902 204.445248 
L 586.138902 189.947434 
L 584.337232 189.947434 
z
" style="fill:#96c69a;fill-opacity:0.5;stroke:#ffffff;stroke-linejoin:miter;stroke-width:1.449781;"/>
   </g>
   <g id="patch_50">
    <path clip-path="url(#p6efec49733)" d="M 584.337232 189.947434 
L 585.688484 189.947434 
L 585.688484 175.449621 
L 584.337232 175.449621 
z
" style="fill:#96c69a;fill-opacity:0.5;stroke:#ffffff;stroke-linejoin:miter;stroke-width:1.449781;"/>
   </g>
   <g id="patch_51">
    <path clip-path="url(#p6efec49733)" d="M 584.337232 175.449621 
L 585.238067 175.449621 
L 585.238067 160.951808 
L 584.337232 160.951808 
z
" style="fill:#96c69a;fill-opacity:0.5;stroke:#ffffff;stroke-linejoin:miter;stroke-width:1.449781;"/>
   </g>
   <g id="patch_52">
    <path clip-path="url(#p6efec49733)" d="M 584.337232 160.951808 
L 584.78765 160.951808 
L 584.78765 146.453995 
L 584.337232 146.453995 
z
" style="fill:#96c69a;fill-opacity:0.5;stroke:#ffffff;stroke-linejoin:miter;stroke-width:1.449781;"/>
   </g>
   <g id="patch_53">
    <path clip-path="url(#p6efec49733)" d="M 584.337232 146.453995 
L 585.688484 146.453995 
L 585.688484 131.956182 
L 584.337232 131.956182 
z
" style="fill:#96c69a;fill-opacity:0.5;stroke:#ffffff;stroke-linejoin:miter;stroke-width:1.449781;"/>
   </g>
   <g id="patch_54">
    <path d="M 584.337232 603.86 
L 584.337232 109.484571 
" style="fill:none;stroke:#262626;stroke-linecap:square;stroke-linejoin:miter;stroke-width:2.5;"/>
   </g>
   <g id="patch_55">
    <path d="M 584.337232 603.86 
L 667.574375 603.86 
" style="fill:none;stroke:#262626;stroke-linecap:square;stroke-linejoin:miter;stroke-width:2.5;"/>
   </g>
  </g>
 </g>
 <defs>
  <clipPath id="p344ac9be2e">
   <rect height="494.375429" width="482.775429" x="84.914375" y="109.484571"/>
  </clipPath>
  <clipPath id="pb42e3fe888">
   <rect height="85.237143" width="482.775429" x="84.914375" y="7.2"/>
  </clipPath>
  <clipPath id="p6efec49733">
   <rect height="494.375429" width="83.237143" x="584.337232" y="109.484571"/>
  </clipPath>
 </defs>
</svg>
