<?xml version="1.0" encoding="utf-8" standalone="no"?>
<!DOCTYPE svg PUBLIC "-//W3C//DTD SVG 1.1//EN"
  "http://www.w3.org/Graphics/SVG/1.1/DTD/svg11.dtd">
<svg height="675.079375pt" version="1.1" viewBox="0 0 674.774375 675.079375" width="674.774375pt" xmlns="http://www.w3.org/2000/svg" xmlns:xlink="http://www.w3.org/1999/xlink">
 <metadata>
  <rdf:RDF xmlns:cc="http://creativecommons.org/ns#" xmlns:dc="http://purl.org/dc/elements/1.1/" xmlns:rdf="http://www.w3.org/1999/02/22-rdf-syntax-ns#">
   <cc:Work>
    <dc:type rdf:resource="http://purl.org/dc/dcmitype/StillImage"/>
    <dc:date>2021-07-16T21:43:54.019277</dc:date>
    <dc:format>image/svg+xml</dc:format>
    <dc:creator>
     <cc:Agent>
      <dc:title>Matplotlib v3.4.2, https://matplotlib.org/</dc:title>
     </cc:Agent>
    </dc:creator>
   </cc:Work>
  </rdf:RDF>
 </metadata>
 <defs>
  <style type="text/css">*{stroke-linecap:butt;stroke-linejoin:round;}</style>
 </defs>
 <g id="figure_1">
  <g id="patch_1">
   <path d="M 0 675.079375 
L 674.774375 675.079375 
L 674.774375 0 
L 0 0 
z
" style="fill:#ffffff;"/>
  </g>
  <g id="axes_1">
   <g id="patch_2">
    <path d="M 84.914375 603.86 
L 567.689804 603.86 
L 567.689804 109.484571 
L 84.914375 109.484571 
z
" style="fill:none;"/>
   </g>
   <g id="matplotlib.axis_1">
    <g id="xtick_1">
     <g id="text_1">
      <!-- 0 -->
      <g style="fill:#262626;" transform="translate(99.64041 636.076563)scale(0.22 -0.22)">
       <defs>
        <path d="M 2034 4250 
Q 1547 4250 1301 3770 
Q 1056 3291 1056 2328 
Q 1056 1369 1301 889 
Q 1547 409 2034 409 
Q 2525 409 2770 889 
Q 3016 1369 3016 2328 
Q 3016 3291 2770 3770 
Q 2525 4250 2034 4250 
z
M 2034 4750 
Q 2819 4750 3233 4129 
Q 3647 3509 3647 2328 
Q 3647 1150 3233 529 
Q 2819 -91 2034 -91 
Q 1250 -91 836 529 
Q 422 1150 422 2328 
Q 422 3509 836 4129 
Q 1250 4750 2034 4750 
z
" id="DejaVuSans-30" transform="scale(0.015625)"/>
       </defs>
       <use xlink:href="#DejaVuSans-30"/>
      </g>
     </g>
    </g>
    <g id="xtick_2">
     <g id="text_2">
      <!-- 20000 -->
      <g style="fill:#262626;" transform="translate(159.466671 636.076563)scale(0.22 -0.22)">
       <defs>
        <path d="M 1228 531 
L 3431 531 
L 3431 0 
L 469 0 
L 469 531 
Q 828 903 1448 1529 
Q 2069 2156 2228 2338 
Q 2531 2678 2651 2914 
Q 2772 3150 2772 3378 
Q 2772 3750 2511 3984 
Q 2250 4219 1831 4219 
Q 1534 4219 1204 4116 
Q 875 4013 500 3803 
L 500 4441 
Q 881 4594 1212 4672 
Q 1544 4750 1819 4750 
Q 2544 4750 2975 4387 
Q 3406 4025 3406 3419 
Q 3406 3131 3298 2873 
Q 3191 2616 2906 2266 
Q 2828 2175 2409 1742 
Q 1991 1309 1228 531 
z
" id="DejaVuSans-32" transform="scale(0.015625)"/>
       </defs>
       <use xlink:href="#DejaVuSans-32"/>
       <use x="63.623047" xlink:href="#DejaVuSans-30"/>
       <use x="127.246094" xlink:href="#DejaVuSans-30"/>
       <use x="190.869141" xlink:href="#DejaVuSans-30"/>
       <use x="254.492188" xlink:href="#DejaVuSans-30"/>
      </g>
     </g>
    </g>
    <g id="xtick_3">
     <g id="text_3">
      <!-- 40000 -->
      <g style="fill:#262626;" transform="translate(247.287932 636.076563)scale(0.22 -0.22)">
       <defs>
        <path d="M 2419 4116 
L 825 1625 
L 2419 1625 
L 2419 4116 
z
M 2253 4666 
L 3047 4666 
L 3047 1625 
L 3713 1625 
L 3713 1100 
L 3047 1100 
L 3047 0 
L 2419 0 
L 2419 1100 
L 313 1100 
L 313 1709 
L 2253 4666 
z
" id="DejaVuSans-34" transform="scale(0.015625)"/>
       </defs>
       <use xlink:href="#DejaVuSans-34"/>
       <use x="63.623047" xlink:href="#DejaVuSans-30"/>
       <use x="127.246094" xlink:href="#DejaVuSans-30"/>
       <use x="190.869141" xlink:href="#DejaVuSans-30"/>
       <use x="254.492188" xlink:href="#DejaVuSans-30"/>
      </g>
     </g>
    </g>
    <g id="xtick_4">
     <g id="text_4">
      <!-- 60000 -->
      <g style="fill:#262626;" transform="translate(335.109193 636.076563)scale(0.22 -0.22)">
       <defs>
        <path d="M 2113 2584 
Q 1688 2584 1439 2293 
Q 1191 2003 1191 1497 
Q 1191 994 1439 701 
Q 1688 409 2113 409 
Q 2538 409 2786 701 
Q 3034 994 3034 1497 
Q 3034 2003 2786 2293 
Q 2538 2584 2113 2584 
z
M 3366 4563 
L 3366 3988 
Q 3128 4100 2886 4159 
Q 2644 4219 2406 4219 
Q 1781 4219 1451 3797 
Q 1122 3375 1075 2522 
Q 1259 2794 1537 2939 
Q 1816 3084 2150 3084 
Q 2853 3084 3261 2657 
Q 3669 2231 3669 1497 
Q 3669 778 3244 343 
Q 2819 -91 2113 -91 
Q 1303 -91 875 529 
Q 447 1150 447 2328 
Q 447 3434 972 4092 
Q 1497 4750 2381 4750 
Q 2619 4750 2861 4703 
Q 3103 4656 3366 4563 
z
" id="DejaVuSans-36" transform="scale(0.015625)"/>
       </defs>
       <use xlink:href="#DejaVuSans-36"/>
       <use x="63.623047" xlink:href="#DejaVuSans-30"/>
       <use x="127.246094" xlink:href="#DejaVuSans-30"/>
       <use x="190.869141" xlink:href="#DejaVuSans-30"/>
       <use x="254.492188" xlink:href="#DejaVuSans-30"/>
      </g>
     </g>
    </g>
    <g id="xtick_5">
     <g id="text_5">
      <!-- 80000 -->
      <g style="fill:#262626;" transform="translate(422.930455 636.076563)scale(0.22 -0.22)">
       <defs>
        <path d="M 2034 2216 
Q 1584 2216 1326 1975 
Q 1069 1734 1069 1313 
Q 1069 891 1326 650 
Q 1584 409 2034 409 
Q 2484 409 2743 651 
Q 3003 894 3003 1313 
Q 3003 1734 2745 1975 
Q 2488 2216 2034 2216 
z
M 1403 2484 
Q 997 2584 770 2862 
Q 544 3141 544 3541 
Q 544 4100 942 4425 
Q 1341 4750 2034 4750 
Q 2731 4750 3128 4425 
Q 3525 4100 3525 3541 
Q 3525 3141 3298 2862 
Q 3072 2584 2669 2484 
Q 3125 2378 3379 2068 
Q 3634 1759 3634 1313 
Q 3634 634 3220 271 
Q 2806 -91 2034 -91 
Q 1263 -91 848 271 
Q 434 634 434 1313 
Q 434 1759 690 2068 
Q 947 2378 1403 2484 
z
M 1172 3481 
Q 1172 3119 1398 2916 
Q 1625 2713 2034 2713 
Q 2441 2713 2670 2916 
Q 2900 3119 2900 3481 
Q 2900 3844 2670 4047 
Q 2441 4250 2034 4250 
Q 1625 4250 1398 4047 
Q 1172 3844 1172 3481 
z
" id="DejaVuSans-38" transform="scale(0.015625)"/>
       </defs>
       <use xlink:href="#DejaVuSans-38"/>
       <use x="63.623047" xlink:href="#DejaVuSans-30"/>
       <use x="127.246094" xlink:href="#DejaVuSans-30"/>
       <use x="190.869141" xlink:href="#DejaVuSans-30"/>
       <use x="254.492188" xlink:href="#DejaVuSans-30"/>
      </g>
     </g>
    </g>
    <g id="xtick_6">
     <g id="text_6">
      <!-- 100000 -->
      <g style="fill:#262626;" transform="translate(503.752966 636.076563)scale(0.22 -0.22)">
       <defs>
        <path d="M 794 531 
L 1825 531 
L 1825 4091 
L 703 3866 
L 703 4441 
L 1819 4666 
L 2450 4666 
L 2450 531 
L 3481 531 
L 3481 0 
L 794 0 
L 794 531 
z
" id="DejaVuSans-31" transform="scale(0.015625)"/>
       </defs>
       <use xlink:href="#DejaVuSans-31"/>
       <use x="63.623047" xlink:href="#DejaVuSans-30"/>
       <use x="127.246094" xlink:href="#DejaVuSans-30"/>
       <use x="190.869141" xlink:href="#DejaVuSans-30"/>
       <use x="254.492188" xlink:href="#DejaVuSans-30"/>
       <use x="318.115234" xlink:href="#DejaVuSans-30"/>
      </g>
     </g>
    </g>
    <g id="text_7">
     <!-- MDTU -->
     <g style="fill:#262626;" transform="translate(290.596464 662.888125)scale(0.24 -0.24)">
      <defs>
       <path d="M 628 4666 
L 1569 4666 
L 2759 1491 
L 3956 4666 
L 4897 4666 
L 4897 0 
L 4281 0 
L 4281 4097 
L 3078 897 
L 2444 897 
L 1241 4097 
L 1241 0 
L 628 0 
L 628 4666 
z
" id="DejaVuSans-4d" transform="scale(0.015625)"/>
       <path d="M 1259 4147 
L 1259 519 
L 2022 519 
Q 2988 519 3436 956 
Q 3884 1394 3884 2338 
Q 3884 3275 3436 3711 
Q 2988 4147 2022 4147 
L 1259 4147 
z
M 628 4666 
L 1925 4666 
Q 3281 4666 3915 4102 
Q 4550 3538 4550 2338 
Q 4550 1131 3912 565 
Q 3275 0 1925 0 
L 628 0 
L 628 4666 
z
" id="DejaVuSans-44" transform="scale(0.015625)"/>
       <path d="M -19 4666 
L 3928 4666 
L 3928 4134 
L 2272 4134 
L 2272 0 
L 1638 0 
L 1638 4134 
L -19 4134 
L -19 4666 
z
" id="DejaVuSans-54" transform="scale(0.015625)"/>
       <path d="M 556 4666 
L 1191 4666 
L 1191 1831 
Q 1191 1081 1462 751 
Q 1734 422 2344 422 
Q 2950 422 3222 751 
Q 3494 1081 3494 1831 
L 3494 4666 
L 4128 4666 
L 4128 1753 
Q 4128 841 3676 375 
Q 3225 -91 2344 -91 
Q 1459 -91 1007 375 
Q 556 841 556 1753 
L 556 4666 
z
" id="DejaVuSans-55" transform="scale(0.015625)"/>
      </defs>
      <use xlink:href="#DejaVuSans-4d"/>
      <use x="86.279297" xlink:href="#DejaVuSans-44"/>
      <use x="163.28125" xlink:href="#DejaVuSans-54"/>
      <use x="224.365234" xlink:href="#DejaVuSans-55"/>
     </g>
    </g>
   </g>
   <g id="matplotlib.axis_2">
    <g id="ytick_1">
     <g id="text_8">
      <!-- 0.4 -->
      <g style="fill:#262626;" transform="translate(34.4275 553.084325)scale(0.22 -0.22)">
       <defs>
        <path d="M 684 794 
L 1344 794 
L 1344 0 
L 684 0 
L 684 794 
z
" id="DejaVuSans-2e" transform="scale(0.015625)"/>
       </defs>
       <use xlink:href="#DejaVuSans-30"/>
       <use x="63.623047" xlink:href="#DejaVuSans-2e"/>
       <use x="95.410156" xlink:href="#DejaVuSans-34"/>
      </g>
     </g>
    </g>
    <g id="ytick_2">
     <g id="text_9">
      <!-- 0.6 -->
      <g style="fill:#262626;" transform="translate(34.4275 465.744751)scale(0.22 -0.22)">
       <use xlink:href="#DejaVuSans-30"/>
       <use x="63.623047" xlink:href="#DejaVuSans-2e"/>
       <use x="95.410156" xlink:href="#DejaVuSans-36"/>
      </g>
     </g>
    </g>
    <g id="ytick_3">
     <g id="text_10">
      <!-- 0.8 -->
      <g style="fill:#262626;" transform="translate(34.4275 378.405177)scale(0.22 -0.22)">
       <use xlink:href="#DejaVuSans-30"/>
       <use x="63.623047" xlink:href="#DejaVuSans-2e"/>
       <use x="95.410156" xlink:href="#DejaVuSans-38"/>
      </g>
     </g>
    </g>
    <g id="ytick_4">
     <g id="text_11">
      <!-- 1.0 -->
      <g style="fill:#262626;" transform="translate(34.4275 291.065603)scale(0.22 -0.22)">
       <use xlink:href="#DejaVuSans-31"/>
       <use x="63.623047" xlink:href="#DejaVuSans-2e"/>
       <use x="95.410156" xlink:href="#DejaVuSans-30"/>
      </g>
     </g>
    </g>
    <g id="ytick_5">
     <g id="text_12">
      <!-- 1.2 -->
      <g style="fill:#262626;" transform="translate(34.4275 203.726029)scale(0.22 -0.22)">
       <use xlink:href="#DejaVuSans-31"/>
       <use x="63.623047" xlink:href="#DejaVuSans-2e"/>
       <use x="95.410156" xlink:href="#DejaVuSans-32"/>
      </g>
     </g>
    </g>
    <g id="text_13">
     <!-- $E$ -->
     <g style="fill:#262626;" transform="translate(25.43625 364.352286)rotate(-90)scale(0.24 -0.24)">
      <defs>
       <path d="M 1081 4666 
L 4031 4666 
L 3928 4134 
L 1606 4134 
L 1338 2753 
L 3566 2753 
L 3463 2222 
L 1234 2222 
L 909 531 
L 3284 531 
L 3181 0 
L 172 0 
L 1081 4666 
z
" id="DejaVuSans-Oblique-45" transform="scale(0.015625)"/>
      </defs>
      <use transform="translate(0 0.09375)" xlink:href="#DejaVuSans-Oblique-45"/>
     </g>
    </g>
   </g>
   <g id="line2d_1">
    <path clip-path="url(#pc9f0e01aaa)" d="M 106.858713 425.490073 
L 107.078266 383.475288 
L 107.297819 552.76804 
L 107.517372 463.5811 
L 107.736925 524.847688 
L 107.956478 455.053032 
L 108.176032 461.899138 
L 108.395585 401.494399 
L 108.615138 398.440596 
L 108.834691 457.623488 
L 109.054244 426.513652 
L 109.273797 477.6967 
L 109.493351 390.416289 
L 109.712904 380.006381 
L 109.932457 497.910491 
L 110.15201 420.094938 
L 110.371563 395.139734 
L 110.591116 407.022828 
L 110.810669 473.221243 
L 111.030223 421.640232 
L 111.249776 440.667432 
L 111.469329 338.779864 
L 111.688882 502.299754 
L 111.908435 393.814349 
L 112.127988 544.607092 
L 112.347541 512.613521 
L 112.567095 435.878713 
L 112.786648 477.174079 
L 113.006201 402.280901 
L 113.225754 492.846844 
L 113.445307 495.162514 
L 113.66486 495.403172 
L 113.884414 464.490364 
L 114.103967 387.969087 
L 114.32352 362.013296 
L 114.543073 492.522995 
L 114.762626 393.701136 
L 115.201732 491.164106 
L 115.421286 472.381962 
L 115.640839 550.143654 
L 115.860392 491.594329 
L 116.079945 485.021028 
L 116.299498 428.075509 
L 116.519051 318.707874 
L 116.738605 479.905412 
L 116.958158 435.621497 
L 117.177711 428.948186 
L 117.397264 475.944809 
L 117.616817 428.496873 
L 117.83637 539.117361 
L 118.055923 432.776493 
L 118.275477 425.391405 
L 118.49503 473.357786 
L 118.714583 398.08026 
L 118.934136 484.249557 
L 119.153689 438.489825 
L 119.373242 317.721964 
L 119.592796 415.078716 
L 119.812349 433.194256 
L 120.031902 326.702851 
L 120.251455 400.200816 
L 120.471008 514.345963 
L 120.690561 327.530266 
L 120.910114 406.982269 
L 121.129668 430.053041 
L 121.349221 486.464714 
L 121.788327 430.013977 
L 122.00788 437.524065 
L 122.227433 477.264887 
L 122.446987 398.836102 
L 122.886093 473.59338 
L 123.105646 488.447435 
L 123.325199 390.231154 
L 123.544752 393.810061 
L 123.764305 360.346256 
L 123.983859 403.593713 
L 124.203412 474.227042 
L 124.422965 350.705011 
L 124.642518 484.831499 
L 125.081624 332.600906 
L 125.301178 359.337246 
L 125.520731 423.604143 
L 125.740284 395.820474 
L 125.959837 465.967354 
L 126.17939 414.906047 
L 126.398943 515.706265 
L 126.618496 412.008199 
L 126.83805 363.620207 
L 127.057603 481.579761 
L 127.277156 473.987847 
L 127.496709 474.509859 
L 127.716262 438.356942 
L 127.935815 489.731257 
L 128.155369 502.062126 
L 128.374922 439.909691 
L 128.594475 276.504707 
L 128.814028 476.336268 
L 129.033581 431.751579 
L 129.253134 517.547586 
L 129.472687 337.789092 
L 129.911794 503.66434 
L 130.131347 366.278814 
L 130.3509 449.583865 
L 130.570453 377.566791 
L 130.790006 407.669339 
L 131.00956 322.633029 
L 131.229113 427.914789 
L 131.448666 472.81904 
L 131.668219 453.364187 
L 131.887772 462.422391 
L 132.107325 489.718823 
L 132.326878 393.842502 
L 132.546432 550.241549 
L 132.765985 487.548716 
L 132.985538 535.434249 
L 133.205091 426.758836 
L 133.424644 564.705478 
L 133.644197 478.910785 
L 133.863751 498.169146 
L 134.083304 444.135232 
L 134.302857 489.489199 
L 134.52241 399.706516 
L 134.961516 508.705914 
L 135.181069 442.97467 
L 135.620176 519.238637 
L 135.839729 419.652553 
L 136.059282 478.063443 
L 136.278835 407.437938 
L 136.498388 406.102497 
L 136.717941 497.802455 
L 136.937495 533.341567 
L 137.157048 521.565195 
L 137.376601 379.959052 
L 137.596154 507.264174 
L 137.815707 450.917546 
L 138.03526 523.929992 
L 138.254814 522.076002 
L 138.474367 377.011156 
L 138.69392 372.658285 
L 138.913473 354.021759 
L 139.133026 435.114362 
L 139.352579 427.64917 
L 139.572132 431.338435 
L 139.791686 510.614686 
L 140.011239 245.8487 
L 140.230792 414.499197 
L 140.669898 488.997874 
L 141.109005 406.385449 
L 141.328558 280.869725 
L 141.987217 451.426919 
L 142.20677 463.226861 
L 142.426323 413.184206 
L 142.645877 478.668103 
L 142.86543 488.680156 
L 143.084983 561.295462 
L 143.304536 381.404776 
L 143.524089 517.205657 
L 143.743642 449.249944 
L 143.963196 501.59792 
L 144.182749 413.333264 
L 144.402302 407.602756 
L 144.621855 201.028677 
L 144.841408 509.34878 
L 145.280514 433.531461 
L 145.500068 424.242291 
L 145.719621 437.81018 
L 145.939174 436.782923 
L 146.158727 409.354061 
L 146.37828 456.812225 
L 146.597833 455.11463 
L 146.817387 432.286082 
L 147.03694 528.824925 
L 147.256493 538.288215 
L 147.476046 470.644651 
L 147.695599 482.336597 
L 147.915152 448.936792 
L 148.134705 480.331672 
L 148.354259 444.977595 
L 148.793365 488.499038 
L 149.012918 490.357644 
L 149.232471 435.084402 
L 149.452024 461.572323 
L 149.671578 406.734624 
L 149.891131 253.836775 
L 150.110684 314.279936 
L 150.330237 462.481458 
L 150.54979 530.810624 
L 150.769343 457.874248 
L 150.988896 333.700784 
L 151.20845 432.978324 
L 151.428003 311.566781 
L 151.647556 454.853226 
L 151.867109 425.918985 
L 152.086662 374.685626 
L 152.306215 539.648752 
L 152.525769 431.550291 
L 152.745322 426.074419 
L 152.964875 431.603106 
L 153.184428 455.725103 
L 153.403981 447.739055 
L 153.623534 475.082633 
L 153.843087 392.629768 
L 154.062641 387.897632 
L 154.282194 421.962658 
L 154.501747 562.664799 
L 154.7213 433.041072 
L 154.940853 508.512396 
L 155.160406 499.3371 
L 155.599513 438.483112 
L 155.819066 515.198383 
L 156.038619 409.791348 
L 156.697278 481.688825 
L 156.916832 350.400918 
L 157.136385 526.542915 
L 157.355938 422.530071 
L 157.575491 468.781062 
L 157.795044 468.615523 
L 158.014597 501.821626 
L 158.234151 480.73758 
L 158.453704 399.394118 
L 158.89281 353.497528 
L 159.112363 508.638498 
L 159.551469 352.528626 
L 159.771023 434.040868 
L 159.990576 341.120544 
L 160.210129 485.796203 
L 160.429682 492.280894 
L 160.649235 348.468821 
L 160.868788 358.953952 
L 161.088342 328.325525 
L 161.307895 426.029009 
L 161.527448 401.789579 
L 161.747001 266.860495 
L 161.966554 560.316065 
L 162.186107 419.005838 
L 162.40566 390.347197 
L 162.625214 444.613237 
L 162.844767 392.823783 
L 163.06432 393.947942 
L 163.283873 536.625712 
L 163.503426 288.151296 
L 163.722979 281.943816 
L 163.942532 458.092863 
L 164.162086 508.955866 
L 164.381639 362.404688 
L 164.601192 387.149902 
L 164.820745 434.375401 
L 165.040298 449.319552 
L 165.259851 454.062947 
L 165.479405 497.454808 
L 165.698958 363.784274 
L 166.138064 495.029913 
L 166.357617 438.820885 
L 166.57717 505.333732 
L 166.796723 451.397754 
L 167.016277 436.376154 
L 167.23583 488.659335 
L 167.455383 434.577533 
L 167.674936 445.462522 
L 167.894489 508.53463 
L 168.114042 464.670245 
L 168.333596 463.803078 
L 168.772702 478.318708 
L 168.992255 457.484076 
L 169.211808 514.983559 
L 169.431361 440.566466 
L 169.650914 550.149023 
L 169.870468 468.097759 
L 170.090021 444.912824 
L 170.529127 529.445629 
L 170.74868 538.908364 
L 170.968233 337.477252 
L 171.187787 466.944769 
L 171.40734 369.172619 
L 171.626893 369.126279 
L 172.065999 415.001456 
L 172.285552 382.779678 
L 172.505105 417.007358 
L 172.724659 517.448682 
L 173.163765 356.798549 
L 173.383318 366.033729 
L 173.822424 465.881797 
L 174.041978 486.422331 
L 174.261531 351.239528 
L 174.481084 462.641558 
L 174.700637 397.513078 
L 174.92019 466.59547 
L 175.139743 296.763297 
L 175.359296 312.180954 
L 175.57885 473.409353 
L 176.017956 288.664731 
L 176.237509 415.789725 
L 176.457062 422.705523 
L 176.676615 492.033984 
L 176.896169 191.006935 
L 177.115722 481.562478 
L 177.335275 451.521076 
L 177.554828 447.705634 
L 177.774381 502.130406 
L 177.993934 389.010716 
L 178.213487 457.41039 
L 178.433041 483.538748 
L 178.652594 331.126335 
L 178.872147 518.467653 
L 179.0917 509.618557 
L 179.311253 368.97626 
L 179.530806 510.593517 
L 179.75036 423.686194 
L 179.969913 433.395125 
L 180.189466 453.990649 
L 180.409019 367.519752 
L 180.628572 412.626028 
L 180.848125 256.671331 
L 181.067678 521.734404 
L 181.287232 424.787431 
L 181.506785 486.589313 
L 181.726338 498.256301 
L 181.945891 375.809833 
L 182.165444 413.900325 
L 182.384997 350.972729 
L 182.604551 443.643544 
L 182.824104 419.869322 
L 183.043657 490.718914 
L 183.26321 485.091058 
L 183.702316 316.629877 
L 183.921869 442.54611 
L 184.141423 446.142494 
L 184.360976 527.994057 
L 184.580529 393.752 
L 184.800082 475.806286 
L 185.019635 384.975035 
L 185.239188 345.865579 
L 185.458742 354.453059 
L 185.678295 433.848718 
L 185.897848 467.399731 
L 186.117401 449.287874 
L 186.336954 491.732293 
L 186.556507 404.476825 
L 186.77606 429.489678 
L 186.995614 326.258573 
L 187.215167 427.193729 
L 187.43472 455.353412 
L 187.654273 263.92717 
L 187.873826 421.619655 
L 188.093379 413.630429 
L 188.312932 420.03563 
L 188.532486 455.010019 
L 188.752039 350.293309 
L 188.971592 432.690654 
L 189.191145 434.396836 
L 189.410698 443.204504 
L 189.630251 397.661438 
L 189.849805 501.280372 
L 190.069358 314.226247 
L 190.288911 460.167472 
L 190.508464 440.415228 
L 190.728017 396.666213 
L 190.94757 524.149009 
L 191.167123 438.737735 
L 191.386677 462.895469 
L 191.60623 466.873848 
L 191.825783 404.227013 
L 192.045336 540.173575 
L 192.264889 373.049799 
L 192.484442 351.543289 
L 192.923549 446.603182 
L 193.143102 307.5127 
L 193.362655 454.299575 
L 193.582208 417.083364 
L 193.801761 403.391273 
L 194.021314 480.887675 
L 194.240868 442.10656 
L 194.460421 382.26917 
L 194.679974 469.364119 
L 194.899527 455.959296 
L 195.11908 381.616462 
L 195.77774 471.910091 
L 195.997293 535.127508 
L 196.216846 379.076596 
L 196.436399 448.984253 
L 196.655952 451.155521 
L 196.875505 389.018742 
L 197.095059 402.968245 
L 197.534165 510.239013 
L 197.753718 423.705762 
L 197.973271 456.947071 
L 198.192824 466.848489 
L 198.412378 458.899178 
L 198.851484 270.638897 
L 199.071037 408.479941 
L 199.510143 487.84051 
L 199.729696 402.267946 
L 199.94925 536.737352 
L 200.168803 339.928813 
L 200.388356 469.0407 
L 200.607909 452.710577 
L 200.827462 406.893441 
L 201.047015 428.193692 
L 201.266569 480.077007 
L 201.486122 323.715178 
L 201.705675 401.618583 
L 201.925228 409.069334 
L 202.144781 368.608345 
L 202.364334 471.65341 
L 202.583887 484.495492 
L 202.803441 409.646689 
L 203.022994 388.010526 
L 203.242547 306.080767 
L 203.4621 476.341385 
L 203.681653 433.307779 
L 204.12076 523.242314 
L 204.340313 443.556898 
L 204.559866 513.786364 
L 204.779419 422.965284 
L 204.998972 494.414827 
L 205.218525 432.343715 
L 205.438078 484.196882 
L 205.657632 412.633749 
L 205.877185 379.984429 
L 206.096738 386.769802 
L 206.316291 528.010706 
L 206.535844 499.662541 
L 206.755397 349.857806 
L 206.974951 487.523101 
L 207.414057 378.399252 
L 207.63361 474.377865 
L 208.072716 382.455193 
L 208.292269 430.679597 
L 208.511823 450.544775 
L 208.731376 424.466456 
L 208.950929 380.59319 
L 209.390035 460.651254 
L 209.609588 514.544272 
L 209.829142 443.004933 
L 210.048695 509.782536 
L 210.268248 509.3731 
L 210.487801 358.96681 
L 210.707354 460.879257 
L 210.926907 483.424194 
L 211.14646 529.838347 
L 211.366014 529.813315 
L 211.80512 464.468726 
L 212.024673 460.606462 
L 212.244226 491.927249 
L 212.463779 351.776695 
L 212.683333 441.324993 
L 212.902886 396.105634 
L 213.122439 471.682361 
L 213.561545 410.152874 
L 213.781098 384.489845 
L 214.000651 532.934091 
L 214.220205 420.846151 
L 214.439758 453.657594 
L 214.659311 459.002923 
L 214.878864 475.363699 
L 215.098417 459.248486 
L 215.537523 339.238195 
L 215.757077 329.853373 
L 215.97663 502.222213 
L 216.196183 368.757264 
L 216.415736 451.966397 
L 216.635289 312.315453 
L 216.854842 411.165526 
L 217.074396 336.380079 
L 217.293949 517.854047 
L 217.513502 372.878336 
L 217.952608 459.190891 
L 218.172161 348.135129 
L 218.391714 502.191539 
L 218.611268 383.831665 
L 218.830821 439.717013 
L 219.050374 320.612467 
L 219.269927 476.673373 
L 219.48948 515.902143 
L 219.709033 406.840576 
L 219.928587 505.564205 
L 220.367693 443.914588 
L 220.587246 444.418942 
L 220.806799 466.618395 
L 221.026352 471.166236 
L 221.245905 423.415974 
L 221.465459 453.496 
L 221.685012 415.537644 
L 221.904565 399.999923 
L 222.124118 544.017345 
L 222.563224 475.480807 
L 222.782778 483.404294 
L 223.002331 416.796111 
L 223.221884 289.556419 
L 223.441437 363.409714 
L 223.66099 520.672919 
L 223.880543 526.347671 
L 224.100096 472.917436 
L 224.31965 319.883717 
L 224.539203 457.595886 
L 224.758756 262.257323 
L 224.978309 415.484626 
L 225.197862 418.436799 
L 225.417415 418.730528 
L 225.636969 416.644062 
L 225.856522 459.760378 
L 226.076075 328.932787 
L 226.295628 407.731756 
L 226.515181 527.607046 
L 226.734734 316.232497 
L 226.954287 522.687135 
L 227.173841 457.713783 
L 227.393394 469.074454 
L 227.612947 413.071232 
L 227.8325 551.145243 
L 228.052053 482.451612 
L 228.271606 464.743121 
L 228.710713 471.037307 
L 228.930266 411.429506 
L 229.149819 419.075232 
L 229.369372 422.779733 
L 229.588925 429.595301 
L 229.808478 354.180112 
L 230.028032 500.169668 
L 230.247585 395.982796 
L 230.686691 419.842981 
L 230.906244 389.76856 
L 231.125797 379.04899 
L 231.345351 521.002487 
L 231.564904 389.687296 
L 231.784457 525.824564 
L 232.00401 386.531922 
L 232.223563 581.38839 
L 232.662669 276.699052 
L 232.882223 391.149128 
L 233.101776 324.088297 
L 233.321329 189.158423 
L 233.540882 393.42003 
L 233.760435 450.122712 
L 234.199542 311.866783 
L 234.419095 498.541112 
L 234.638648 444.352241 
L 234.858201 480.757638 
L 235.077754 356.834294 
L 235.297307 348.233185 
L 235.51686 460.415114 
L 235.736414 332.363765 
L 235.955967 561.525904 
L 236.17552 420.363821 
L 236.395073 422.503526 
L 236.614626 279.054162 
L 236.834179 460.93017 
L 237.053733 441.80845 
L 237.273286 511.804172 
L 237.492839 465.32773 
L 237.712392 474.238517 
L 237.931945 372.850044 
L 238.151498 449.878524 
L 238.371051 357.53968 
L 238.590605 432.503937 
L 239.029711 387.841426 
L 239.249264 332.647315 
L 239.468817 465.061741 
L 239.68837 480.662997 
L 239.907924 476.83033 
L 240.34703 359.437219 
L 240.566583 405.315533 
L 240.786136 481.160294 
L 241.005689 475.832951 
L 241.225242 484.614227 
L 241.444796 357.28233 
L 241.664349 363.051997 
L 241.883902 498.945556 
L 242.103455 382.222107 
L 242.323008 442.06931 
L 242.542561 226.900593 
L 242.762114 396.933796 
L 242.981668 403.66581 
L 243.201221 505.304768 
L 243.420774 544.267843 
L 243.640327 451.556963 
L 244.079433 386.978383 
L 244.298987 414.77672 
L 244.51854 526.517139 
L 244.738093 409.779633 
L 244.957646 525.339458 
L 245.177199 513.353732 
L 245.396752 513.892254 
L 245.616305 442.13587 
L 245.835859 491.449054 
L 246.055412 418.841127 
L 246.274965 457.570753 
L 246.494518 329.953756 
L 246.714071 432.969306 
L 246.933624 441.353739 
L 247.153178 512.20299 
L 247.592284 372.065566 
L 247.811837 395.886765 
L 248.03139 400.106088 
L 248.250943 467.429371 
L 248.470496 346.201606 
L 248.69005 500.118797 
L 248.909603 397.370911 
L 249.129156 545.358341 
L 249.348709 453.07459 
L 249.568262 429.800068 
L 250.007369 492.03812 
L 250.226922 480.161954 
L 250.446475 516.775502 
L 250.666028 411.237703 
L 250.885581 495.335315 
L 251.105134 497.282239 
L 251.324687 462.228971 
L 251.544241 504.927887 
L 251.763794 380.853363 
L 251.983347 387.338394 
L 252.2029 365.258878 
L 252.422453 447.060942 
L 252.642006 351.970961 
L 252.86156 443.233313 
L 253.081113 367.592859 
L 253.300666 537.603161 
L 253.520219 374.343619 
L 253.959325 469.041278 
L 254.178878 457.384222 
L 254.398432 368.359759 
L 254.617985 365.217376 
L 254.837538 371.523052 
L 255.057091 463.360723 
L 255.276644 421.448155 
L 255.496197 459.497337 
L 255.715751 395.670513 
L 256.154857 354.685752 
L 256.37441 486.625973 
L 256.593963 439.115622 
L 256.813516 435.07728 
L 257.252623 320.192454 
L 257.472176 405.091123 
L 257.691729 239.907359 
L 257.911282 394.549802 
L 258.130835 449.66646 
L 258.569942 425.013845 
L 258.789495 376.158716 
L 259.228601 489.357013 
L 259.448154 534.022992 
L 259.667707 503.585151 
L 259.88726 455.072562 
L 260.106814 337.877986 
L 260.326367 525.472068 
L 260.54592 401.598404 
L 260.985026 478.277226 
L 261.204579 382.622447 
L 261.424133 422.47331 
L 261.643686 421.124148 
L 261.863239 478.901297 
L 262.082792 473.316011 
L 262.521898 395.227681 
L 262.961005 434.901078 
L 263.180558 366.950309 
L 263.400111 546.513833 
L 263.839217 467.745939 
L 264.05877 509.170729 
L 264.278324 474.398175 
L 264.497877 500.428462 
L 264.71743 482.398931 
L 265.156536 377.206934 
L 265.376089 576.093448 
L 265.595642 289.542858 
L 265.815196 523.200689 
L 266.034749 405.524984 
L 266.254302 484.352065 
L 266.473855 469.437701 
L 266.693408 418.315388 
L 266.912961 403.014399 
L 267.132514 398.332315 
L 267.352068 356.013002 
L 267.571621 435.82339 
L 268.010727 459.681637 
L 268.23028 350.307935 
L 268.449833 472.614172 
L 268.669387 492.201236 
L 268.88894 334.33265 
L 269.328046 526.096325 
L 269.547599 538.868852 
L 269.767152 414.019297 
L 269.986705 402.063497 
L 270.206259 483.186996 
L 270.425812 478.441152 
L 270.645365 500.379124 
L 270.864918 238.633745 
L 271.084471 437.163795 
L 271.304024 448.006292 
L 271.523578 450.093504 
L 271.743131 441.48329 
L 271.962684 449.345754 
L 272.182237 440.997727 
L 272.40179 414.787878 
L 272.621343 336.853957 
L 272.840896 484.76262 
L 273.06045 450.299277 
L 273.280003 284.014301 
L 273.499556 484.869213 
L 273.938662 430.090204 
L 274.158215 489.245949 
L 274.377769 473.080429 
L 274.597322 403.933375 
L 274.816875 266.076752 
L 275.036428 445.990659 
L 275.255981 380.020437 
L 275.475534 361.66558 
L 275.695087 453.247589 
L 275.914641 469.221364 
L 276.134194 456.895813 
L 276.353747 464.163624 
L 276.5733 407.533699 
L 276.792853 547.993333 
L 277.23196 338.7816 
L 277.451513 502.109928 
L 277.671066 409.340433 
L 277.890619 393.612774 
L 278.110172 480.668592 
L 278.329725 275.445071 
L 278.549278 479.083472 
L 278.768832 415.978298 
L 278.988385 433.5941 
L 279.207938 469.116472 
L 279.427491 395.819352 
L 279.647044 459.988387 
L 279.866597 434.546799 
L 280.086151 433.636749 
L 280.305704 415.469456 
L 280.525257 456.041048 
L 280.74481 366.502409 
L 280.964363 453.427375 
L 281.403469 508.97365 
L 281.623023 385.93971 
L 281.842576 410.521201 
L 282.062129 467.865717 
L 282.281682 396.878985 
L 282.501235 453.776724 
L 282.720788 328.588197 
L 282.940342 463.613694 
L 283.159895 489.434401 
L 283.379448 538.790664 
L 283.599001 458.958169 
L 283.818554 531.574124 
L 284.25766 428.692772 
L 284.477214 239.270786 
L 284.696767 396.426898 
L 284.91632 466.844686 
L 285.135873 370.680408 
L 285.355426 505.897829 
L 285.574979 496.167355 
L 285.794533 390.610078 
L 286.014086 438.548853 
L 286.233639 442.131631 
L 286.453192 476.257002 
L 286.672745 378.121811 
L 286.892298 437.966781 
L 287.111851 407.63877 
L 287.550958 403.333534 
L 287.770511 428.525825 
L 287.990064 520.880189 
L 288.209617 452.876939 
L 288.42917 310.094137 
L 288.648724 475.849292 
L 288.868277 444.42718 
L 289.08783 489.114991 
L 289.307383 439.962252 
L 289.526936 489.665459 
L 289.746489 507.340584 
L 289.966042 535.559952 
L 290.185596 494.206647 
L 290.405149 519.960895 
L 290.624702 392.061274 
L 290.844255 538.918468 
L 291.063808 459.975086 
L 291.283361 428.651988 
L 291.502915 420.522198 
L 291.722468 450.01835 
L 291.942021 514.060018 
L 292.161574 412.876231 
L 292.381127 382.584169 
L 292.60068 390.458124 
L 292.820233 445.442567 
L 293.039787 569.92542 
L 293.25934 365.012223 
L 293.698446 454.038894 
L 293.917999 367.495948 
L 294.357105 434.691901 
L 294.576659 299.343628 
L 294.796212 402.028518 
L 295.454871 501.374088 
L 295.674424 382.978841 
L 295.893978 420.627656 
L 296.113531 511.931699 
L 296.333084 344.41335 
L 296.552637 435.523929 
L 296.77219 402.435744 
L 296.991743 332.991951 
L 297.211296 388.013564 
L 297.43085 487.609334 
L 297.650403 401.852896 
L 297.869956 458.46023 
L 298.089509 256.951935 
L 298.309062 496.557785 
L 298.528615 509.107654 
L 298.748169 471.723209 
L 298.967722 375.16397 
L 299.187275 506.185657 
L 299.406828 483.781612 
L 299.626381 326.137608 
L 299.845934 468.950554 
L 300.065487 378.650248 
L 300.285041 355.971496 
L 300.504594 521.86425 
L 300.724147 395.548763 
L 300.9437 408.644002 
L 301.163253 462.451234 
L 301.382806 391.136901 
L 301.60236 509.322045 
L 301.821913 438.012083 
L 302.041466 424.187085 
L 302.261019 301.217451 
L 302.480572 361.529527 
L 302.700125 318.159243 
L 302.919678 477.435986 
L 303.139232 312.142966 
L 303.358785 382.794127 
L 303.578338 416.562865 
L 303.797891 483.937433 
L 304.017444 507.080491 
L 304.236997 342.033077 
L 304.676104 473.772764 
L 304.895657 517.770535 
L 305.11521 179.545314 
L 305.334763 461.250398 
L 305.554316 454.855335 
L 305.773869 530.731137 
L 306.212976 374.037079 
L 306.652082 470.605194 
L 306.871635 371.980109 
L 307.091188 503.657827 
L 307.310742 309.513019 
L 307.530295 467.990474 
L 307.969401 523.363761 
L 308.62806 221.768562 
L 308.847614 393.869694 
L 309.067167 408.532116 
L 309.28672 391.085784 
L 309.506273 525.709568 
L 310.164933 383.062062 
L 310.384486 314.053411 
L 310.604039 333.660403 
L 310.823592 418.440045 
L 311.043145 430.025819 
L 311.262698 297.214626 
L 311.482251 427.025458 
L 311.701805 417.642932 
L 311.921358 454.973797 
L 312.140911 306.744217 
L 312.360464 455.472459 
L 312.580017 367.101308 
L 313.019124 473.316765 
L 313.238677 451.97677 
L 313.45823 349.787262 
L 313.677783 423.10932 
L 313.897336 420.725148 
L 314.116889 507.785465 
L 314.336442 499.283316 
L 314.555996 375.755646 
L 314.775549 403.444723 
L 314.995102 504.022803 
L 315.214655 401.804906 
L 315.434208 439.810846 
L 315.653761 449.247885 
L 315.873315 404.382828 
L 316.312421 493.076033 
L 316.751527 307.269288 
L 316.97108 487.590082 
L 317.190633 484.354266 
L 317.410187 339.801075 
L 317.62974 379.836845 
L 317.849293 489.882312 
L 318.068846 437.029863 
L 318.288399 329.939686 
L 318.727506 480.201634 
L 318.947059 495.521859 
L 319.166612 412.975888 
L 319.386165 416.443358 
L 319.605718 415.383452 
L 319.825271 470.613615 
L 320.044824 429.819813 
L 320.264378 475.894529 
L 320.483931 244.065843 
L 320.703484 482.030106 
L 320.923037 415.373407 
L 321.14259 531.161064 
L 321.362143 495.628163 
L 321.581696 492.85731 
L 321.80125 432.107147 
L 322.020803 516.218833 
L 322.459909 399.350732 
L 322.679462 385.82791 
L 322.899015 390.472011 
L 323.118569 502.360167 
L 323.338122 392.542332 
L 323.557675 467.625995 
L 323.777228 364.399531 
L 323.996781 490.553654 
L 324.216334 462.195656 
L 324.435887 386.792549 
L 324.655441 507.179476 
L 324.874994 374.194226 
L 325.094547 436.826642 
L 325.3141 343.50017 
L 325.533653 405.949875 
L 325.753206 332.240677 
L 325.97276 426.247805 
L 326.192313 449.550816 
L 326.411866 410.92329 
L 326.631419 345.475648 
L 326.850972 479.335797 
L 327.070525 444.128759 
L 327.290078 476.881425 
L 327.729185 380.593976 
L 327.948738 383.974438 
L 328.168291 478.207224 
L 328.387844 387.072013 
L 328.607397 418.238878 
L 328.826951 516.401609 
L 329.266057 349.314739 
L 329.48561 374.411993 
L 329.705163 433.469189 
L 329.924716 353.910426 
L 330.144269 545.051563 
L 330.363823 511.388011 
L 330.583376 510.466019 
L 330.802929 387.006804 
L 331.022482 449.37063 
L 331.242035 322.168387 
L 331.461588 453.328793 
L 331.900695 461.152272 
L 332.120248 377.9087 
L 332.339801 419.474196 
L 332.559354 271.980137 
L 332.778907 463.744045 
L 332.99846 441.010202 
L 333.218014 451.474607 
L 333.437567 382.743657 
L 333.65712 460.088382 
L 333.876673 486.196987 
L 334.096226 481.872447 
L 334.315779 371.403524 
L 334.535333 465.753389 
L 334.754886 473.947807 
L 335.193992 324.187445 
L 335.413545 367.154706 
L 335.633098 373.398446 
L 335.852651 414.418184 
L 336.072205 386.670493 
L 336.291758 545.213697 
L 336.730864 308.772497 
L 336.950417 496.983357 
L 337.16997 531.954149 
L 337.389524 293.937571 
L 337.82863 440.599585 
L 338.048183 415.99921 
L 338.267736 559.994238 
L 338.926396 401.987267 
L 339.145949 403.46026 
L 339.365502 455.096791 
L 339.585055 427.41167 
L 339.804608 428.449344 
L 340.024161 479.145527 
L 340.243715 491.022163 
L 340.463268 350.057075 
L 340.902374 551.774263 
L 341.121927 536.449174 
L 341.34148 332.966141 
L 341.561033 464.253103 
L 341.780587 476.075988 
L 342.00014 498.800746 
L 342.219693 557.87452 
L 342.439246 547.352391 
L 342.658799 477.371072 
L 342.878352 447.708642 
L 343.097906 438.972703 
L 343.317459 471.167808 
L 343.537012 470.572165 
L 343.756565 511.808732 
L 343.976118 414.958497 
L 344.195671 400.807948 
L 344.415224 487.36364 
L 344.854331 379.977377 
L 345.073884 380.230547 
L 345.293437 464.389616 
L 345.51299 461.174091 
L 345.732543 495.536261 
L 345.952096 427.879211 
L 346.17165 511.1654 
L 346.391203 537.530565 
L 346.610756 356.083426 
L 346.830309 461.881966 
L 347.049862 508.628334 
L 347.269415 376.193341 
L 347.488969 426.008645 
L 347.708522 393.340614 
L 347.928075 383.441644 
L 348.147628 437.335465 
L 348.367181 459.670531 
L 348.586734 345.641672 
L 348.806287 534.441974 
L 349.025841 351.08094 
L 349.245394 529.970102 
L 349.464947 419.120198 
L 349.6845 434.860567 
L 349.904053 481.956805 
L 350.123606 402.940996 
L 350.34316 416.093386 
L 350.562713 545.933523 
L 350.782266 469.017798 
L 351.001819 445.196776 
L 351.221372 468.205866 
L 351.660478 377.38572 
L 351.880032 338.866852 
L 352.099585 474.951978 
L 352.319138 371.622917 
L 352.758244 495.052548 
L 352.977797 465.415129 
L 353.197351 413.48944 
L 353.416904 297.522457 
L 353.636457 437.573563 
L 353.85601 482.923244 
L 354.075563 431.163262 
L 354.295116 473.569587 
L 354.514669 429.847722 
L 354.734223 320.590361 
L 354.953776 482.080209 
L 355.173329 435.261604 
L 355.392882 539.266624 
L 356.051542 252.765564 
L 356.271095 433.257321 
L 356.490648 399.101038 
L 356.710201 472.706825 
L 356.929754 470.886699 
L 357.149307 351.049185 
L 357.36886 515.649388 
L 357.807967 387.601602 
L 358.02752 475.602297 
L 358.247073 501.650091 
L 358.905733 354.108438 
L 359.125286 527.965954 
L 359.344839 517.033776 
L 359.564392 366.977179 
L 360.003498 545.130233 
L 360.223051 462.413358 
L 360.442605 487.742088 
L 360.881711 362.313997 
L 361.101264 547.902481 
L 361.320817 477.872234 
L 361.54037 521.417659 
L 361.759924 476.901237 
L 361.979477 455.48485 
L 362.19903 365.922051 
L 362.418583 468.73536 
L 362.638136 317.96406 
L 362.857689 447.928217 
L 363.077242 479.103794 
L 363.296796 401.944885 
L 363.516349 498.572374 
L 363.735902 468.169413 
L 363.955455 289.676972 
L 364.175008 390.366738 
L 364.394561 336.939603 
L 364.614115 452.929059 
L 364.833668 440.894516 
L 365.053221 289.100696 
L 365.272774 463.704239 
L 365.492327 487.02824 
L 365.71188 445.9951 
L 365.931433 472.17316 
L 366.150987 400.388998 
L 366.37054 511.662473 
L 366.590093 547.144354 
L 366.809646 522.28444 
L 367.029199 356.561932 
L 367.248752 474.193107 
L 367.468306 484.535716 
L 367.687859 472.651695 
L 367.907412 316.306468 
L 368.126965 465.734027 
L 368.346518 363.734075 
L 368.566071 355.50932 
L 368.785624 453.651977 
L 369.005178 413.768459 
L 369.224731 247.02851 
L 369.444284 397.478792 
L 369.663837 458.137059 
L 369.88339 404.406488 
L 370.102943 421.413737 
L 370.322497 481.079541 
L 370.54205 454.943448 
L 370.761603 451.515807 
L 370.981156 420.950354 
L 371.200709 277.560194 
L 371.420262 482.507224 
L 371.639815 385.147648 
L 371.859369 488.816694 
L 372.078922 435.190971 
L 372.298475 419.860029 
L 372.518028 439.295635 
L 372.737581 418.215927 
L 372.957134 325.96223 
L 373.176687 467.410251 
L 373.396241 427.326401 
L 373.615794 362.926312 
L 373.835347 464.227537 
L 374.0549 416.888601 
L 374.274453 433.783749 
L 374.494006 401.802058 
L 374.71356 347.629996 
L 374.933113 423.466915 
L 375.372219 478.949162 
L 375.591772 399.646991 
L 375.811325 361.520343 
L 376.030878 479.861879 
L 376.250432 455.027506 
L 376.469985 497.987134 
L 376.689538 501.240233 
L 377.128644 439.549022 
L 377.348197 468.750098 
L 377.567751 385.576026 
L 377.787304 464.883125 
L 378.006857 285.425346 
L 378.22641 455.215023 
L 378.445963 486.715901 
L 378.665516 369.052296 
L 378.885069 412.067387 
L 379.104623 490.63695 
L 379.324176 448.432186 
L 379.543729 461.831023 
L 379.763282 404.382112 
L 379.982835 511.933357 
L 380.202388 500.145192 
L 380.421942 407.65349 
L 380.641495 463.586135 
L 380.861048 477.357658 
L 381.080601 478.510073 
L 381.300154 388.515808 
L 381.519707 496.705866 
L 381.73926 334.413313 
L 381.958814 432.371321 
L 382.178367 401.546326 
L 382.39792 495.430734 
L 382.617473 452.126266 
L 382.837026 440.550652 
L 383.056579 414.249508 
L 383.276133 411.779429 
L 383.495686 460.969606 
L 383.715239 474.343921 
L 383.934792 521.179288 
L 384.154345 485.133846 
L 384.373898 526.059106 
L 384.593451 452.336723 
L 384.813005 504.69171 
L 385.032558 359.698641 
L 385.252111 486.309426 
L 385.471664 510.816688 
L 385.691217 366.114012 
L 386.130324 547.081514 
L 386.349877 429.553614 
L 386.56943 488.628066 
L 386.788983 448.596133 
L 387.008536 445.628349 
L 387.228089 408.25924 
L 387.447642 437.616396 
L 387.667196 377.766623 
L 388.106302 453.722484 
L 388.325855 406.707387 
L 388.545408 461.691518 
L 388.764961 431.002361 
L 388.984515 518.632753 
L 389.204068 457.16445 
L 389.423621 357.498899 
L 389.643174 526.91998 
L 389.862727 436.296419 
L 390.08228 462.298092 
L 390.301833 369.897314 
L 390.521387 368.529832 
L 390.74094 216.915922 
L 390.960493 467.133938 
L 391.180046 442.326026 
L 391.399599 372.819777 
L 391.619152 539.433542 
L 391.838706 325.043166 
L 392.058259 395.714836 
L 392.277812 551.910196 
L 392.497365 458.414207 
L 392.936471 403.713797 
L 393.156024 452.380109 
L 393.375578 381.84896 
L 393.595131 491.58197 
L 394.034237 379.699194 
L 394.25379 505.904364 
L 394.473343 528.679421 
L 394.692897 401.722743 
L 394.91245 368.062285 
L 395.132003 488.864926 
L 395.351556 475.122472 
L 395.571109 528.952748 
L 395.790662 416.09308 
L 396.010215 396.356459 
L 396.229769 420.943167 
L 396.449322 475.593272 
L 396.668875 486.148247 
L 396.888428 482.108293 
L 397.107981 420.438897 
L 397.327534 475.550963 
L 397.547087 481.570335 
L 397.766641 422.201362 
L 397.986194 186.917622 
L 398.205747 369.420207 
L 398.4253 451.638565 
L 398.644853 250.331773 
L 398.864406 417.045172 
L 399.08396 434.125308 
L 399.303513 329.263011 
L 399.523066 372.950247 
L 399.742619 470.573379 
L 399.962172 421.557314 
L 400.181725 407.46209 
L 400.401278 460.68181 
L 400.620832 440.862946 
L 400.840385 437.423533 
L 401.059938 437.256916 
L 401.499044 308.854556 
L 402.157704 451.607846 
L 402.377257 438.631133 
L 402.59681 473.000992 
L 403.035916 366.370558 
L 403.255469 510.911599 
L 403.475023 365.366034 
L 403.694576 328.230764 
L 404.133682 466.727818 
L 404.353235 520.744448 
L 404.792342 295.655438 
L 405.011895 373.67053 
L 405.231448 562.173121 
L 405.890107 391.378847 
L 406.548767 498.670408 
L 406.76832 390.835223 
L 406.987873 472.196952 
L 407.207426 473.116222 
L 407.426979 526.913614 
L 407.646533 428.51813 
L 407.866086 506.075791 
L 408.085639 395.190044 
L 408.305192 375.353785 
L 408.524745 482.769264 
L 408.744298 302.427196 
L 408.963851 387.704583 
L 409.183405 398.734849 
L 409.402958 418.3185 
L 409.622511 463.671011 
L 409.842064 465.764792 
L 410.061617 340.586954 
L 410.28117 480.63632 
L 410.500724 427.036155 
L 410.720277 498.260427 
L 410.93983 374.257443 
L 411.159383 375.408659 
L 411.378936 430.481778 
L 411.598489 300.466349 
L 411.818042 359.178086 
L 412.037596 506.79182 
L 412.257149 452.372173 
L 412.476702 454.356402 
L 412.696255 479.847562 
L 412.915808 446.482248 
L 413.135361 440.985726 
L 413.354915 504.628168 
L 413.794021 413.907203 
L 414.013574 394.82128 
L 414.233127 533.657568 
L 414.45268 404.472676 
L 414.672233 479.272485 
L 414.891787 454.036007 
L 415.11134 486.812149 
L 415.330893 469.459206 
L 415.769999 501.057873 
L 415.989552 417.163915 
L 416.209106 440.026926 
L 416.428659 368.033091 
L 416.648212 505.045249 
L 416.867765 489.57002 
L 417.306871 416.790604 
L 417.526424 429.619163 
L 417.745978 490.112771 
L 418.404637 343.303755 
L 418.62419 393.68557 
L 418.843743 371.88471 
L 419.063297 475.525959 
L 419.28285 397.62875 
L 419.721956 530.604061 
L 419.941509 395.409021 
L 420.161062 500.456184 
L 420.380615 422.916208 
L 420.600169 289.13457 
L 420.819722 234.256216 
L 421.039275 530.988663 
L 421.478381 428.596508 
L 421.917488 510.282009 
L 422.137041 434.316773 
L 422.356594 540.568899 
L 422.576147 412.512169 
L 422.7957 491.932125 
L 423.015253 461.484682 
L 423.234806 530.444126 
L 423.45436 287.854452 
L 423.673913 440.341933 
L 423.893466 390.868834 
L 424.332572 425.946118 
L 424.552125 411.408842 
L 424.771678 496.643702 
L 425.210785 376.789725 
L 425.430338 426.687595 
L 425.649891 373.198336 
L 425.869444 387.374116 
L 426.088997 293.50393 
L 426.308551 439.982068 
L 426.528104 413.748416 
L 426.747657 505.487396 
L 426.96721 235.687655 
L 427.186763 474.517194 
L 427.406316 452.218953 
L 427.625869 247.699329 
L 427.845423 451.897466 
L 428.064976 327.129698 
L 428.284529 492.731106 
L 428.504082 371.549001 
L 428.723635 393.085891 
L 429.162742 523.074016 
L 429.382295 446.204261 
L 429.601848 469.205256 
L 429.821401 473.899501 
L 430.040954 507.754434 
L 430.260507 429.475197 
L 430.699614 489.064393 
L 430.919167 456.854223 
L 431.13872 451.654631 
L 431.577826 492.756873 
L 431.797379 395.689134 
L 432.016933 487.905166 
L 432.236486 520.959531 
L 432.456039 446.952448 
L 432.675592 463.75128 
L 432.895145 402.412451 
L 433.334251 476.134572 
L 433.553805 463.682638 
L 433.773358 463.724536 
L 433.992911 480.415201 
L 434.212464 419.65473 
L 434.432017 498.665312 
L 434.65157 424.200709 
L 434.871124 464.530198 
L 435.090677 264.486949 
L 435.31023 412.326759 
L 435.529783 461.461046 
L 435.968889 407.357801 
L 436.188442 513.732456 
L 436.407996 498.324175 
L 436.627549 394.176929 
L 436.847102 562.399619 
L 437.066655 357.181577 
L 437.286208 516.352071 
L 437.505761 335.38406 
L 437.725315 510.818942 
L 437.944868 485.329151 
L 438.164421 555.230299 
L 438.603527 452.299713 
L 438.82308 349.563352 
L 439.042633 389.899892 
L 439.262187 268.829875 
L 439.48174 464.441736 
L 439.701293 476.280339 
L 439.920846 337.638391 
L 440.140399 378.761942 
L 440.359952 522.648485 
L 440.579506 291.461912 
L 440.799059 510.587736 
L 441.018612 432.331181 
L 441.238165 477.677883 
L 441.457718 461.088729 
L 441.677271 370.685932 
L 441.896824 393.281779 
L 442.116378 399.805404 
L 442.335931 428.3396 
L 442.555484 479.003577 
L 442.775037 331.010515 
L 442.99459 464.893704 
L 443.214143 373.391807 
L 443.433697 474.12681 
L 443.65325 480.348258 
L 443.872803 436.006341 
L 444.092356 417.608784 
L 444.311909 450.66837 
L 444.531462 417.030349 
L 444.751015 562.629357 
L 444.970569 452.849855 
L 445.190122 544.170979 
L 445.409675 452.245046 
L 445.629228 515.267805 
L 445.848781 461.247956 
L 446.068334 456.565921 
L 446.287888 413.554827 
L 446.507441 437.631421 
L 446.726994 441.22727 
L 446.946547 518.227126 
L 447.1661 492.328753 
L 447.385653 342.536093 
L 447.82476 485.11424 
L 448.044313 479.229075 
L 448.263866 459.087961 
L 448.483419 326.036279 
L 448.702972 462.135485 
L 448.922525 484.533712 
L 449.142079 523.635414 
L 449.361632 350.260782 
L 449.581185 268.767627 
L 449.800738 405.257043 
L 450.020291 362.13481 
L 450.239844 445.470933 
L 450.459397 472.479397 
L 450.678951 353.10749 
L 450.898504 428.935689 
L 451.118057 451.944087 
L 451.33761 257.520062 
L 451.776716 518.174749 
L 451.996269 328.386535 
L 452.215823 445.970452 
L 452.435376 405.511546 
L 452.654929 462.623419 
L 453.094035 356.346526 
L 453.313588 383.833744 
L 453.533142 471.49723 
L 453.752695 373.713911 
L 453.972248 346.112095 
L 454.411354 461.464925 
L 454.630907 367.774137 
L 454.85046 496.196537 
L 455.070014 396.764405 
L 455.289567 498.388926 
L 455.50912 410.037923 
L 455.728673 369.889569 
L 455.948226 482.505137 
L 456.167779 378.847154 
L 456.387333 339.610813 
L 456.606886 552.919137 
L 456.826439 380.570714 
L 457.045992 494.382186 
L 457.265545 511.085817 
L 457.485098 445.944817 
L 457.704651 425.959343 
L 457.924205 381.929818 
L 458.143758 500.664532 
L 458.363311 506.830117 
L 458.582864 387.854304 
L 458.802417 395.529221 
L 459.241524 467.5611 
L 459.461077 470.553914 
L 459.68063 348.811843 
L 459.900183 341.005885 
L 460.119736 398.885536 
L 460.339289 373.88573 
L 460.558842 419.476105 
L 460.778396 380.696004 
L 460.997949 414.117124 
L 461.217502 501.195018 
L 461.437055 453.035694 
L 461.656608 482.1126 
L 461.876161 282.292181 
L 462.095715 509.824685 
L 462.315268 491.809286 
L 462.534821 440.822907 
L 462.754374 418.317967 
L 462.973927 515.440416 
L 463.19348 338.489891 
L 463.413033 440.372008 
L 463.85214 346.817478 
L 464.291246 497.349509 
L 464.510799 470.353767 
L 464.730352 415.126161 
L 464.949906 455.747972 
L 465.169459 393.827715 
L 465.389012 486.04962 
L 465.608565 404.928589 
L 465.828118 507.365376 
L 466.047671 435.740935 
L 466.267224 471.408659 
L 466.486778 429.909774 
L 466.706331 471.321265 
L 466.925884 476.186385 
L 467.145437 432.363118 
L 467.36499 488.7949 
L 467.584543 490.309962 
L 468.02365 358.740754 
L 468.462756 498.604489 
L 468.682309 545.799445 
L 468.901862 516.140728 
L 469.121415 386.58057 
L 469.340969 386.203988 
L 469.560522 422.850321 
L 469.780075 359.044976 
L 469.999628 387.561234 
L 470.438734 528.194924 
L 470.658288 404.334442 
L 470.877841 470.765004 
L 471.097394 501.21017 
L 471.316947 364.96703 
L 471.5365 407.626086 
L 471.756053 229.711232 
L 471.975606 414.899221 
L 472.19516 433.115543 
L 472.414713 464.802933 
L 472.634266 394.25555 
L 472.853819 447.255486 
L 473.073372 383.64225 
L 473.292925 545.682688 
L 473.512479 440.019874 
L 473.732032 452.265561 
L 473.951585 310.285071 
L 474.171138 500.927728 
L 474.390691 440.604861 
L 474.610244 458.492667 
L 474.829797 339.942055 
L 475.049351 330.644197 
L 475.268904 444.439706 
L 475.488457 435.116838 
L 475.70801 344.960308 
L 475.927563 505.936774 
L 476.147116 502.928149 
L 476.366669 423.777321 
L 476.586223 394.707621 
L 476.805776 340.450131 
L 477.025329 417.721426 
L 477.244882 410.006527 
L 477.464435 320.423747 
L 477.683988 400.856553 
L 477.903542 397.820278 
L 478.123095 334.656094 
L 478.342648 497.055471 
L 478.781754 436.858549 
L 479.001307 446.563328 
L 479.22086 470.891881 
L 479.440414 457.596509 
L 479.659967 488.721573 
L 479.87952 473.28692 
L 480.099073 511.13689 
L 480.318626 456.435212 
L 480.538179 455.696615 
L 480.757733 446.860032 
L 480.977286 459.192667 
L 481.196839 430.32215 
L 481.416392 487.747456 
L 481.635945 444.895964 
L 481.855498 455.198359 
L 482.075051 447.217775 
L 482.294605 558.764146 
L 482.733711 427.954137 
L 482.953264 427.284974 
L 483.172817 380.075155 
L 483.39237 479.538462 
L 483.611924 349.54128 
L 483.831477 418.985627 
L 484.05103 314.915981 
L 484.270583 420.424491 
L 484.490136 451.209993 
L 484.929242 552.767254 
L 485.148796 389.043505 
L 485.368349 377.991555 
L 485.587902 437.321206 
L 485.807455 462.656399 
L 486.027008 404.746611 
L 486.246561 465.454658 
L 486.685668 406.079956 
L 486.905221 520.729263 
L 487.124774 492.18312 
L 487.344327 449.188589 
L 487.56388 350.455389 
L 487.783433 459.840449 
L 488.002987 432.10567 
L 488.22254 538.889335 
L 488.442093 445.724968 
L 488.661646 286.825727 
L 488.881199 335.143535 
L 489.320306 553.395832 
L 489.539859 447.754402 
L 489.759412 501.555129 
L 489.978965 486.703226 
L 490.198518 452.004178 
L 490.418071 542.98342 
L 490.637624 354.931805 
L 490.857178 515.200493 
L 491.076731 469.186633 
L 491.296284 366.049599 
L 491.515837 438.104452 
L 491.73539 395.561355 
L 491.954943 313.346761 
L 492.174497 131.956182 
L 492.39405 409.616941 
L 492.613603 463.19042 
L 492.833156 381.072522 
L 493.052709 372.638944 
L 493.272262 407.994196 
L 493.491815 484.305954 
L 493.711369 446.595002 
L 493.930922 350.879794 
L 494.150475 401.489874 
L 494.370028 508.335466 
L 494.589581 489.476664 
L 494.809134 379.845083 
L 495.028688 499.438248 
L 495.248241 419.839018 
L 495.467794 503.299557 
L 495.687347 501.05954 
L 495.9069 355.272729 
L 496.126453 424.991517 
L 496.346006 406.850333 
L 496.56556 425.692719 
L 496.785113 468.640914 
L 497.004666 479.180916 
L 497.224219 422.385082 
L 497.443772 491.780113 
L 497.663325 304.356923 
L 497.882879 466.5476 
L 498.102432 439.386764 
L 498.541538 489.19137 
L 498.761091 471.009376 
L 498.980644 516.96332 
L 499.200197 381.529225 
L 499.419751 370.358064 
L 499.639304 421.924369 
L 499.858857 373.461161 
L 500.07841 539.837991 
L 500.297963 385.972163 
L 500.517516 320.791785 
L 500.73707 491.901698 
L 500.956623 549.408717 
L 501.176176 407.796216 
L 501.395729 389.250869 
L 501.615282 340.643316 
L 501.834835 400.530964 
L 502.054388 369.516249 
L 502.273942 456.669832 
L 502.493495 361.550489 
L 502.713048 417.861037 
L 502.932601 426.712717 
L 503.152154 412.506755 
L 503.371707 463.018999 
L 503.59126 427.230866 
L 503.810814 303.079551 
L 504.030367 478.48793 
L 504.469473 426.471184 
L 504.689026 477.799351 
L 505.128133 457.722651 
L 505.347686 407.73957 
L 505.567239 511.686061 
L 505.786792 476.331796 
L 506.006345 514.117148 
L 506.225898 375.820122 
L 506.445451 514.603654 
L 506.665005 392.531173 
L 506.884558 387.290527 
L 507.104111 484.415461 
L 507.323664 458.664342 
L 507.543217 511.047118 
L 507.76277 390.277653 
L 507.982324 344.5164 
L 508.201877 333.406414 
L 508.42143 396.58405 
L 508.640983 497.097263 
L 508.860536 406.84945 
L 509.080089 439.655455 
L 509.299642 448.6913 
L 509.519196 485.179814 
L 509.958302 331.559604 
L 510.177855 457.975573 
L 510.616961 376.681641 
L 510.836515 388.239177 
L 511.056068 462.669462 
L 511.495174 392.762649 
L 511.714727 425.673588 
L 511.93428 369.912009 
L 512.373387 501.170788 
L 512.59294 290.386708 
L 512.812493 497.109511 
L 513.032046 375.733244 
L 513.251599 411.761757 
L 513.471152 333.397545 
L 513.690706 486.842661 
L 513.910259 460.083269 
L 514.129812 319.852839 
L 514.349365 440.477276 
L 514.568918 407.607161 
L 514.788471 425.758653 
L 515.008024 411.673894 
L 515.227578 300.541757 
L 515.447131 397.309887 
L 515.666684 381.792716 
L 515.886237 534.010019 
L 516.10579 491.008501 
L 516.325343 315.22008 
L 516.76445 471.27258 
L 516.984003 300.924749 
L 517.423109 512.539641 
L 517.642662 350.663572 
L 517.862215 376.145359 
L 518.081769 528.301288 
L 518.520875 451.488611 
L 518.740428 294.139566 
L 518.959981 400.993403 
L 519.179534 331.022993 
L 519.399088 456.831095 
L 519.618641 469.418335 
L 519.838194 466.813314 
L 520.057747 322.878305 
L 520.2773 391.079758 
L 520.496853 301.131669 
L 520.716406 501.458836 
L 520.93596 460.776069 
L 521.155513 457.736308 
L 521.375066 496.852401 
L 521.594619 401.721246 
L 521.814172 484.379604 
L 522.033725 469.004831 
L 522.253279 326.659959 
L 522.472832 450.30926 
L 522.692385 431.687894 
L 522.911938 384.442694 
L 523.131491 435.733337 
L 523.570597 325.746665 
L 523.790151 444.972281 
L 524.009704 310.559455 
L 524.229257 407.344109 
L 524.44881 442.502849 
L 524.668363 524.916009 
L 524.887916 499.788379 
L 525.327023 416.793789 
L 525.546576 394.162971 
L 525.766129 452.913452 
L 525.985682 428.077529 
L 526.205235 261.116469 
L 526.424788 497.391347 
L 526.644342 473.680009 
L 527.083448 461.797101 
L 527.303001 494.746298 
L 527.522554 409.033438 
L 527.742107 413.437305 
L 528.181214 319.615068 
L 528.400767 400.408407 
L 528.62032 300.99231 
L 529.278979 530.342393 
L 529.498533 420.746984 
L 529.718086 407.828895 
L 529.937639 481.390465 
L 530.157192 424.72265 
L 530.376745 482.992254 
L 530.596298 353.082198 
L 531.035405 417.952744 
L 531.254958 322.958601 
L 531.474511 503.381059 
L 531.694064 484.732543 
L 531.913617 318.624331 
L 532.13317 509.06909 
L 532.352724 364.074514 
L 533.011383 475.66589 
L 533.230936 352.803777 
L 533.450489 433.033559 
L 533.670042 426.283318 
L 533.889596 502.669563 
L 534.109149 479.609248 
L 534.328702 394.583406 
L 534.548255 464.330753 
L 534.987361 434.52796 
L 535.426468 473.119339 
L 535.646021 271.219324 
L 535.865574 366.845502 
L 536.085127 399.387621 
L 536.30468 229.177061 
L 536.524233 392.436471 
L 536.743787 359.498209 
L 536.96334 369.322317 
L 537.621999 476.567507 
L 537.841552 501.546773 
L 538.061106 464.686558 
L 538.280659 401.791414 
L 538.500212 298.9442 
L 538.719765 478.322244 
L 538.939318 504.552999 
L 539.597978 365.482196 
L 539.817531 463.756655 
L 540.037084 468.50982 
L 540.256637 508.824031 
L 540.47619 439.524954 
L 540.695743 482.634068 
L 540.915297 471.989508 
L 541.13485 365.152486 
L 541.354403 393.568071 
L 541.573956 478.353628 
L 541.793509 418.488801 
L 542.013062 454.378817 
L 542.232615 399.617745 
L 542.671722 474.113537 
L 542.891275 428.664475 
L 543.110828 272.791165 
L 543.330381 506.65384 
L 543.549934 434.747376 
L 543.769488 470.422272 
L 543.989041 443.843313 
L 544.208594 434.131103 
L 544.6477 474.648444 
L 544.867253 465.938978 
L 545.086806 400.926995 
L 545.30636 517.401849 
L 545.525913 356.697463 
L 545.745466 444.554962 
L 545.745466 444.554962 
" style="fill:none;stroke:#96c69a;stroke-linecap:round;stroke-width:3;"/>
   </g>
   <g id="line2d_2"/>
   <g id="patch_3">
    <path d="M 84.914375 603.86 
L 84.914375 109.484571 
" style="fill:none;stroke:#262626;stroke-linecap:square;stroke-linejoin:miter;stroke-width:2.5;"/>
   </g>
   <g id="patch_4">
    <path d="M 84.914375 603.86 
L 567.689804 603.86 
" style="fill:none;stroke:#262626;stroke-linecap:square;stroke-linejoin:miter;stroke-width:2.5;"/>
   </g>
   <g id="legend_1">
    <g id="patch_5">
     <path d="M 514.774179 598.86 
L 560.689804 598.86 
Q 562.689804 598.86 562.689804 596.86 
L 562.689804 554.954375 
Q 562.689804 552.954375 560.689804 552.954375 
L 514.774179 552.954375 
Q 512.774179 552.954375 512.774179 554.954375 
L 512.774179 596.86 
Q 512.774179 598.86 514.774179 598.86 
z
" style="fill:#ffffff;opacity:0.8;stroke:#cccccc;stroke-linejoin:miter;stroke-width:2;"/>
    </g>
    <g id="text_14">
     <!-- $n_\tau$ -->
     <g style="fill:#262626;" transform="translate(524.651991 575.190625)scale(0.24 -0.24)">
      <defs>
       <path d="M 3566 2113 
L 3156 0 
L 2578 0 
L 2988 2091 
Q 3016 2238 3031 2350 
Q 3047 2463 3047 2528 
Q 3047 2791 2881 2937 
Q 2716 3084 2419 3084 
Q 1956 3084 1622 2776 
Q 1288 2469 1184 1941 
L 800 0 
L 225 0 
L 903 3500 
L 1478 3500 
L 1363 2950 
Q 1603 3253 1940 3418 
Q 2278 3584 2650 3584 
Q 3113 3584 3367 3334 
Q 3622 3084 3622 2631 
Q 3622 2519 3608 2391 
Q 3594 2263 3566 2113 
z
" id="DejaVuSans-Oblique-6e" transform="scale(0.015625)"/>
       <path d="M 2103 638 
Q 2188 488 2525 488 
L 2800 488 
L 2706 0 
L 2363 0 
Q 1800 0 1600 300 
Q 1403 606 1534 1269 
L 1856 2925 
L 541 2925 
L 653 3500 
L 3881 3500 
L 3769 2925 
L 2444 2925 
L 2113 1234 
Q 2025 781 2103 638 
z
" id="DejaVuSans-Oblique-3c4" transform="scale(0.015625)"/>
      </defs>
      <use xlink:href="#DejaVuSans-Oblique-6e"/>
      <use transform="translate(63.378906 -16.40625)scale(0.7)" xlink:href="#DejaVuSans-Oblique-3c4"/>
     </g>
    </g>
    <g id="line2d_3">
     <path d="M 516.774179 589.280313 
L 536.774179 589.280313 
" style="fill:none;stroke:#96c69a;stroke-linecap:round;stroke-width:3;"/>
    </g>
    <g id="line2d_4"/>
    <g id="text_15">
     <!-- 20 -->
     <g style="fill:#262626;" transform="translate(544.774179 592.780313)scale(0.1 -0.1)">
      <defs>
       <path d="M 1844 884 
L 3897 884 
L 3897 0 
L 506 0 
L 506 884 
L 2209 2388 
Q 2438 2594 2547 2791 
Q 2656 2988 2656 3200 
Q 2656 3528 2436 3728 
Q 2216 3928 1850 3928 
Q 1569 3928 1234 3808 
Q 900 3688 519 3450 
L 519 4475 
Q 925 4609 1322 4679 
Q 1719 4750 2100 4750 
Q 2938 4750 3402 4381 
Q 3866 4013 3866 3353 
Q 3866 2972 3669 2642 
Q 3472 2313 2841 1759 
L 1844 884 
z
" id="DejaVuSans-Bold-32" transform="scale(0.015625)"/>
       <path d="M 2944 2338 
Q 2944 3213 2780 3570 
Q 2616 3928 2228 3928 
Q 1841 3928 1675 3570 
Q 1509 3213 1509 2338 
Q 1509 1453 1675 1090 
Q 1841 728 2228 728 
Q 2613 728 2778 1090 
Q 2944 1453 2944 2338 
z
M 4147 2328 
Q 4147 1169 3647 539 
Q 3147 -91 2228 -91 
Q 1306 -91 806 539 
Q 306 1169 306 2328 
Q 306 3491 806 4120 
Q 1306 4750 2228 4750 
Q 3147 4750 3647 4120 
Q 4147 3491 4147 2328 
z
" id="DejaVuSans-Bold-30" transform="scale(0.015625)"/>
      </defs>
      <use xlink:href="#DejaVuSans-Bold-32"/>
      <use x="69.580078" xlink:href="#DejaVuSans-Bold-30"/>
     </g>
    </g>
   </g>
  </g>
  <g id="axes_2">
   <g id="patch_6">
    <path d="M 84.914375 92.437143 
L 567.689804 92.437143 
L 567.689804 7.2 
L 84.914375 7.2 
z
" style="fill:none;"/>
   </g>
   <g id="matplotlib.axis_3">
    <g id="xtick_7"/>
    <g id="xtick_8"/>
    <g id="xtick_9"/>
    <g id="xtick_10"/>
    <g id="xtick_11"/>
    <g id="xtick_12"/>
   </g>
   <g id="matplotlib.axis_4">
    <g id="ytick_6">
     <g id="text_16">
      <!-- 0 -->
      <g style="fill:#262626;" transform="translate(55.416875 100.795424)scale(0.22 -0.22)">
       <use xlink:href="#DejaVuSans-30"/>
      </g>
     </g>
    </g>
    <g id="ytick_7">
     <g id="text_17">
      <!-- 100 -->
      <g style="fill:#262626;" transform="translate(27.421875 48.082287)scale(0.22 -0.22)">
       <use xlink:href="#DejaVuSans-31"/>
       <use x="63.623047" xlink:href="#DejaVuSans-30"/>
       <use x="127.246094" xlink:href="#DejaVuSans-30"/>
      </g>
     </g>
    </g>
   </g>
   <g id="patch_7">
    <path clip-path="url(#pc6d6678d71)" d="M 106.858713 92.437143 
L 140.619232 92.437143 
L 140.619232 11.258912 
L 106.858713 11.258912 
z
" style="fill:#96c69a;fill-opacity:0.5;stroke:#ffffff;stroke-linejoin:miter;stroke-width:2;"/>
   </g>
   <g id="patch_8">
    <path clip-path="url(#pc6d6678d71)" d="M 140.619232 92.437143 
L 174.379752 92.437143 
L 174.379752 11.258912 
L 140.619232 11.258912 
z
" style="fill:#96c69a;fill-opacity:0.5;stroke:#ffffff;stroke-linejoin:miter;stroke-width:2;"/>
   </g>
   <g id="patch_9">
    <path clip-path="url(#pc6d6678d71)" d="M 174.379752 92.437143 
L 208.140271 92.437143 
L 208.140271 11.258912 
L 174.379752 11.258912 
z
" style="fill:#96c69a;fill-opacity:0.5;stroke:#ffffff;stroke-linejoin:miter;stroke-width:2;"/>
   </g>
   <g id="patch_10">
    <path clip-path="url(#pc6d6678d71)" d="M 208.140271 92.437143 
L 241.900791 92.437143 
L 241.900791 11.258912 
L 208.140271 11.258912 
z
" style="fill:#96c69a;fill-opacity:0.5;stroke:#ffffff;stroke-linejoin:miter;stroke-width:2;"/>
   </g>
   <g id="patch_11">
    <path clip-path="url(#pc6d6678d71)" d="M 241.900791 92.437143 
L 275.66131 92.437143 
L 275.66131 11.786043 
L 241.900791 11.786043 
z
" style="fill:#96c69a;fill-opacity:0.5;stroke:#ffffff;stroke-linejoin:miter;stroke-width:2;"/>
   </g>
   <g id="patch_12">
    <path clip-path="url(#pc6d6678d71)" d="M 275.66131 92.437143 
L 309.42183 92.437143 
L 309.42183 11.258912 
L 275.66131 11.258912 
z
" style="fill:#96c69a;fill-opacity:0.5;stroke:#ffffff;stroke-linejoin:miter;stroke-width:2;"/>
   </g>
   <g id="patch_13">
    <path clip-path="url(#pc6d6678d71)" d="M 309.42183 92.437143 
L 343.182349 92.437143 
L 343.182349 11.258912 
L 309.42183 11.258912 
z
" style="fill:#96c69a;fill-opacity:0.5;stroke:#ffffff;stroke-linejoin:miter;stroke-width:2;"/>
   </g>
   <g id="patch_14">
    <path clip-path="url(#pc6d6678d71)" d="M 343.182349 92.437143 
L 376.942869 92.437143 
L 376.942869 11.258912 
L 343.182349 11.258912 
z
" style="fill:#96c69a;fill-opacity:0.5;stroke:#ffffff;stroke-linejoin:miter;stroke-width:2;"/>
   </g>
   <g id="patch_15">
    <path clip-path="url(#pc6d6678d71)" d="M 376.942869 92.437143 
L 410.703388 92.437143 
L 410.703388 11.786043 
L 376.942869 11.786043 
z
" style="fill:#96c69a;fill-opacity:0.5;stroke:#ffffff;stroke-linejoin:miter;stroke-width:2;"/>
   </g>
   <g id="patch_16">
    <path clip-path="url(#pc6d6678d71)" d="M 410.703388 92.437143 
L 444.463907 92.437143 
L 444.463907 11.258912 
L 410.703388 11.258912 
z
" style="fill:#96c69a;fill-opacity:0.5;stroke:#ffffff;stroke-linejoin:miter;stroke-width:2;"/>
   </g>
   <g id="patch_17">
    <path clip-path="url(#pc6d6678d71)" d="M 444.463907 92.437143 
L 478.224427 92.437143 
L 478.224427 11.258912 
L 444.463907 11.258912 
z
" style="fill:#96c69a;fill-opacity:0.5;stroke:#ffffff;stroke-linejoin:miter;stroke-width:2;"/>
   </g>
   <g id="patch_18">
    <path clip-path="url(#pc6d6678d71)" d="M 478.224427 92.437143 
L 511.984946 92.437143 
L 511.984946 11.258912 
L 478.224427 11.258912 
z
" style="fill:#96c69a;fill-opacity:0.5;stroke:#ffffff;stroke-linejoin:miter;stroke-width:2;"/>
   </g>
   <g id="patch_19">
    <path clip-path="url(#pc6d6678d71)" d="M 511.984946 92.437143 
L 545.745466 92.437143 
L 545.745466 11.258912 
L 511.984946 11.258912 
z
" style="fill:#96c69a;fill-opacity:0.5;stroke:#ffffff;stroke-linejoin:miter;stroke-width:2;"/>
   </g>
   <g id="patch_20">
    <path d="M 84.914375 92.437143 
L 84.914375 7.2 
" style="fill:none;stroke:#262626;stroke-linecap:square;stroke-linejoin:miter;stroke-width:2.5;"/>
   </g>
   <g id="patch_21">
    <path d="M 84.914375 92.437143 
L 567.689804 92.437143 
" style="fill:none;stroke:#262626;stroke-linecap:square;stroke-linejoin:miter;stroke-width:2.5;"/>
   </g>
  </g>
  <g id="axes_3">
   <g id="patch_22">
    <path d="M 584.337232 603.86 
L 667.574375 603.86 
L 667.574375 109.484571 
L 584.337232 109.484571 
z
" style="fill:none;"/>
   </g>
   <g id="matplotlib.axis_5">
    <g id="xtick_13">
     <g id="text_18">
      <!-- 0 -->
      <g style="fill:#262626;" transform="translate(577.338482 636.076563)scale(0.22 -0.22)">
       <use xlink:href="#DejaVuSans-30"/>
      </g>
     </g>
    </g>
    <g id="xtick_14">
     <g id="text_19">
      <!-- 100 -->
      <g style="fill:#262626;" transform="translate(607.876639 636.076563)scale(0.22 -0.22)">
       <use xlink:href="#DejaVuSans-31"/>
       <use x="63.623047" xlink:href="#DejaVuSans-30"/>
       <use x="127.246094" xlink:href="#DejaVuSans-30"/>
      </g>
     </g>
    </g>
   </g>
   <g id="matplotlib.axis_6">
    <g id="ytick_8"/>
    <g id="ytick_9"/>
    <g id="ytick_10"/>
    <g id="ytick_11"/>
    <g id="ytick_12"/>
   </g>
   <g id="patch_23">
    <path clip-path="url(#pffb420f01d)" d="M 584.337232 581.38839 
L 585.673302 581.38839 
L 585.673302 568.169795 
L 584.337232 568.169795 
z
" style="fill:#96c69a;fill-opacity:0.5;stroke:#ffffff;stroke-linejoin:miter;stroke-width:1.321859;"/>
   </g>
   <g id="patch_24">
    <path clip-path="url(#pffb420f01d)" d="M 584.337232 568.169795 
L 589.681511 568.169795 
L 589.681511 554.951201 
L 584.337232 554.951201 
z
" style="fill:#96c69a;fill-opacity:0.5;stroke:#ffffff;stroke-linejoin:miter;stroke-width:1.321859;"/>
   </g>
   <g id="patch_25">
    <path clip-path="url(#pffb420f01d)" d="M 584.337232 554.951201 
L 597.252573 554.951201 
L 597.252573 541.732607 
L 584.337232 541.732607 
z
" style="fill:#96c69a;fill-opacity:0.5;stroke:#ffffff;stroke-linejoin:miter;stroke-width:1.321859;"/>
   </g>
   <g id="patch_26">
    <path clip-path="url(#pffb420f01d)" d="M 584.337232 541.732607 
L 603.487565 541.732607 
L 603.487565 528.514012 
L 584.337232 528.514012 
z
" style="fill:#96c69a;fill-opacity:0.5;stroke:#ffffff;stroke-linejoin:miter;stroke-width:1.321859;"/>
   </g>
   <g id="patch_27">
    <path clip-path="url(#pffb420f01d)" d="M 584.337232 528.514012 
L 612.840053 528.514012 
L 612.840053 515.295418 
L 584.337232 515.295418 
z
" style="fill:#96c69a;fill-opacity:0.5;stroke:#ffffff;stroke-linejoin:miter;stroke-width:1.321859;"/>
   </g>
   <g id="patch_28">
    <path clip-path="url(#pffb420f01d)" d="M 584.337232 515.295418 
L 627.982176 515.295418 
L 627.982176 502.076824 
L 584.337232 502.076824 
z
" style="fill:#96c69a;fill-opacity:0.5;stroke:#ffffff;stroke-linejoin:miter;stroke-width:1.321859;"/>
   </g>
   <g id="patch_29">
    <path clip-path="url(#pffb420f01d)" d="M 584.337232 502.076824 
L 638.225377 502.076824 
L 638.225377 488.858229 
L 584.337232 488.858229 
z
" style="fill:#96c69a;fill-opacity:0.5;stroke:#ffffff;stroke-linejoin:miter;stroke-width:1.321859;"/>
   </g>
   <g id="patch_30">
    <path clip-path="url(#pffb420f01d)" d="M 584.337232 488.858229 
L 654.258214 488.858229 
L 654.258214 475.639635 
L 584.337232 475.639635 
z
" style="fill:#96c69a;fill-opacity:0.5;stroke:#ffffff;stroke-linejoin:miter;stroke-width:1.321859;"/>
   </g>
   <g id="patch_31">
    <path clip-path="url(#pffb420f01d)" d="M 584.337232 475.639635 
L 662.719988 475.639635 
L 662.719988 462.42104 
L 584.337232 462.42104 
z
" style="fill:#96c69a;fill-opacity:0.5;stroke:#ffffff;stroke-linejoin:miter;stroke-width:1.321859;"/>
   </g>
   <g id="patch_32">
    <path clip-path="url(#pffb420f01d)" d="M 584.337232 462.42104 
L 663.610702 462.42104 
L 663.610702 449.202446 
L 584.337232 449.202446 
z
" style="fill:#96c69a;fill-opacity:0.5;stroke:#ffffff;stroke-linejoin:miter;stroke-width:1.321859;"/>
   </g>
   <g id="patch_33">
    <path clip-path="url(#pffb420f01d)" d="M 584.337232 449.202446 
L 652.031431 449.202446 
L 652.031431 435.983852 
L 584.337232 435.983852 
z
" style="fill:#96c69a;fill-opacity:0.5;stroke:#ffffff;stroke-linejoin:miter;stroke-width:1.321859;"/>
   </g>
   <g id="patch_34">
    <path clip-path="url(#pffb420f01d)" d="M 584.337232 435.983852 
L 653.3675 435.983852 
L 653.3675 422.765257 
L 584.337232 422.765257 
z
" style="fill:#96c69a;fill-opacity:0.5;stroke:#ffffff;stroke-linejoin:miter;stroke-width:1.321859;"/>
   </g>
   <g id="patch_35">
    <path clip-path="url(#pffb420f01d)" d="M 584.337232 422.765257 
L 652.031431 422.765257 
L 652.031431 409.546663 
L 584.337232 409.546663 
z
" style="fill:#96c69a;fill-opacity:0.5;stroke:#ffffff;stroke-linejoin:miter;stroke-width:1.321859;"/>
   </g>
   <g id="patch_36">
    <path clip-path="url(#pffb420f01d)" d="M 584.337232 409.546663 
L 645.351082 409.546663 
L 645.351082 396.328069 
L 584.337232 396.328069 
z
" style="fill:#96c69a;fill-opacity:0.5;stroke:#ffffff;stroke-linejoin:miter;stroke-width:1.321859;"/>
   </g>
   <g id="patch_37">
    <path clip-path="url(#pffb420f01d)" d="M 584.337232 396.328069 
L 633.771811 396.328069 
L 633.771811 383.109474 
L 584.337232 383.109474 
z
" style="fill:#96c69a;fill-opacity:0.5;stroke:#ffffff;stroke-linejoin:miter;stroke-width:1.321859;"/>
   </g>
   <g id="patch_38">
    <path clip-path="url(#pffb420f01d)" d="M 584.337232 383.109474 
L 627.536819 383.109474 
L 627.536819 369.89088 
L 584.337232 369.89088 
z
" style="fill:#96c69a;fill-opacity:0.5;stroke:#ffffff;stroke-linejoin:miter;stroke-width:1.321859;"/>
   </g>
   <g id="patch_39">
    <path clip-path="url(#pffb420f01d)" d="M 584.337232 369.89088 
L 616.848262 369.89088 
L 616.848262 356.672286 
L 584.337232 356.672286 
z
" style="fill:#96c69a;fill-opacity:0.5;stroke:#ffffff;stroke-linejoin:miter;stroke-width:1.321859;"/>
   </g>
   <g id="patch_40">
    <path clip-path="url(#pffb420f01d)" d="M 584.337232 356.672286 
L 609.2772 356.672286 
L 609.2772 343.453691 
L 584.337232 343.453691 
z
" style="fill:#96c69a;fill-opacity:0.5;stroke:#ffffff;stroke-linejoin:miter;stroke-width:1.321859;"/>
   </g>
   <g id="patch_41">
    <path clip-path="url(#pffb420f01d)" d="M 584.337232 343.453691 
L 603.932921 343.453691 
L 603.932921 330.235097 
L 584.337232 330.235097 
z
" style="fill:#96c69a;fill-opacity:0.5;stroke:#ffffff;stroke-linejoin:miter;stroke-width:1.321859;"/>
   </g>
   <g id="patch_42">
    <path clip-path="url(#pffb420f01d)" d="M 584.337232 330.235097 
L 601.706138 330.235097 
L 601.706138 317.016503 
L 584.337232 317.016503 
z
" style="fill:#96c69a;fill-opacity:0.5;stroke:#ffffff;stroke-linejoin:miter;stroke-width:1.321859;"/>
   </g>
   <g id="patch_43">
    <path clip-path="url(#pffb420f01d)" d="M 584.337232 317.016503 
L 595.916503 317.016503 
L 595.916503 303.797908 
L 584.337232 303.797908 
z
" style="fill:#96c69a;fill-opacity:0.5;stroke:#ffffff;stroke-linejoin:miter;stroke-width:1.321859;"/>
   </g>
   <g id="patch_44">
    <path clip-path="url(#pffb420f01d)" d="M 584.337232 303.797908 
L 592.799007 303.797908 
L 592.799007 290.579314 
L 584.337232 290.579314 
z
" style="fill:#96c69a;fill-opacity:0.5;stroke:#ffffff;stroke-linejoin:miter;stroke-width:1.321859;"/>
   </g>
   <g id="patch_45">
    <path clip-path="url(#pffb420f01d)" d="M 584.337232 290.579314 
L 591.908294 290.579314 
L 591.908294 277.36072 
L 584.337232 277.36072 
z
" style="fill:#96c69a;fill-opacity:0.5;stroke:#ffffff;stroke-linejoin:miter;stroke-width:1.321859;"/>
   </g>
   <g id="patch_46">
    <path clip-path="url(#pffb420f01d)" d="M 584.337232 277.36072 
L 589.681511 277.36072 
L 589.681511 264.142125 
L 584.337232 264.142125 
z
" style="fill:#96c69a;fill-opacity:0.5;stroke:#ffffff;stroke-linejoin:miter;stroke-width:1.321859;"/>
   </g>
   <g id="patch_47">
    <path clip-path="url(#pffb420f01d)" d="M 584.337232 264.142125 
L 587.900085 264.142125 
L 587.900085 250.923531 
L 584.337232 250.923531 
z
" style="fill:#96c69a;fill-opacity:0.5;stroke:#ffffff;stroke-linejoin:miter;stroke-width:1.321859;"/>
   </g>
   <g id="patch_48">
    <path clip-path="url(#pffb420f01d)" d="M 584.337232 250.923531 
L 587.900085 250.923531 
L 587.900085 237.704937 
L 584.337232 237.704937 
z
" style="fill:#96c69a;fill-opacity:0.5;stroke:#ffffff;stroke-linejoin:miter;stroke-width:1.321859;"/>
   </g>
   <g id="patch_49">
    <path clip-path="url(#pffb420f01d)" d="M 584.337232 237.704937 
L 586.564015 237.704937 
L 586.564015 224.486342 
L 584.337232 224.486342 
z
" style="fill:#96c69a;fill-opacity:0.5;stroke:#ffffff;stroke-linejoin:miter;stroke-width:1.321859;"/>
   </g>
   <g id="patch_50">
    <path clip-path="url(#pffb420f01d)" d="M 584.337232 224.486342 
L 585.227945 224.486342 
L 585.227945 211.267748 
L 584.337232 211.267748 
z
" style="fill:#96c69a;fill-opacity:0.5;stroke:#ffffff;stroke-linejoin:miter;stroke-width:1.321859;"/>
   </g>
   <g id="patch_51">
    <path clip-path="url(#pffb420f01d)" d="M 584.337232 211.267748 
L 584.782589 211.267748 
L 584.782589 198.049154 
L 584.337232 198.049154 
z
" style="fill:#96c69a;fill-opacity:0.5;stroke:#ffffff;stroke-linejoin:miter;stroke-width:1.321859;"/>
   </g>
   <g id="patch_52">
    <path clip-path="url(#pffb420f01d)" d="M 584.337232 198.049154 
L 585.673302 198.049154 
L 585.673302 184.830559 
L 584.337232 184.830559 
z
" style="fill:#96c69a;fill-opacity:0.5;stroke:#ffffff;stroke-linejoin:miter;stroke-width:1.321859;"/>
   </g>
   <g id="patch_53">
    <path clip-path="url(#pffb420f01d)" d="M 584.337232 184.830559 
L 584.782589 184.830559 
L 584.782589 171.611965 
L 584.337232 171.611965 
z
" style="fill:#96c69a;fill-opacity:0.5;stroke:#ffffff;stroke-linejoin:miter;stroke-width:1.321859;"/>
   </g>
   <g id="patch_54">
    <path clip-path="url(#pffb420f01d)" d="M 584.337232 171.611965 
L 584.337232 171.611965 
L 584.337232 158.393371 
L 584.337232 158.393371 
z
" style="fill:#96c69a;fill-opacity:0.5;stroke:#ffffff;stroke-linejoin:miter;stroke-width:1.321859;"/>
   </g>
   <g id="patch_55">
    <path clip-path="url(#pffb420f01d)" d="M 584.337232 158.393371 
L 584.337232 158.393371 
L 584.337232 145.174776 
L 584.337232 145.174776 
z
" style="fill:#96c69a;fill-opacity:0.5;stroke:#ffffff;stroke-linejoin:miter;stroke-width:1.321859;"/>
   </g>
   <g id="patch_56">
    <path clip-path="url(#pffb420f01d)" d="M 584.337232 145.174776 
L 584.782589 145.174776 
L 584.782589 131.956182 
L 584.337232 131.956182 
z
" style="fill:#96c69a;fill-opacity:0.5;stroke:#ffffff;stroke-linejoin:miter;stroke-width:1.321859;"/>
   </g>
   <g id="patch_57">
    <path d="M 584.337232 603.86 
L 584.337232 109.484571 
" style="fill:none;stroke:#262626;stroke-linecap:square;stroke-linejoin:miter;stroke-width:2.5;"/>
   </g>
   <g id="patch_58">
    <path d="M 584.337232 603.86 
L 667.574375 603.86 
" style="fill:none;stroke:#262626;stroke-linecap:square;stroke-linejoin:miter;stroke-width:2.5;"/>
   </g>
  </g>
 </g>
 <defs>
  <clipPath id="pc9f0e01aaa">
   <rect height="494.375429" width="482.775429" x="84.914375" y="109.484571"/>
  </clipPath>
  <clipPath id="pc6d6678d71">
   <rect height="85.237143" width="482.775429" x="84.914375" y="7.2"/>
  </clipPath>
  <clipPath id="pffb420f01d">
   <rect height="494.375429" width="83.237143" x="584.337232" y="109.484571"/>
  </clipPath>
 </defs>
</svg>
