<?xml version="1.0" encoding="utf-8" standalone="no"?>
<!DOCTYPE svg PUBLIC "-//W3C//DTD SVG 1.1//EN"
  "http://www.w3.org/Graphics/SVG/1.1/DTD/svg11.dtd">
<svg height="675.079375pt" version="1.1" viewBox="0 0 689.498016 675.079375" width="689.498016pt" xmlns="http://www.w3.org/2000/svg" xmlns:xlink="http://www.w3.org/1999/xlink">
 <metadata>
  <rdf:RDF xmlns:cc="http://creativecommons.org/ns#" xmlns:dc="http://purl.org/dc/elements/1.1/" xmlns:rdf="http://www.w3.org/1999/02/22-rdf-syntax-ns#">
   <cc:Work>
    <dc:type rdf:resource="http://purl.org/dc/dcmitype/StillImage"/>
    <dc:date>2021-07-16T21:43:52.494674</dc:date>
    <dc:format>image/svg+xml</dc:format>
    <dc:creator>
     <cc:Agent>
      <dc:title>Matplotlib v3.4.2, https://matplotlib.org/</dc:title>
     </cc:Agent>
    </dc:creator>
   </cc:Work>
  </rdf:RDF>
 </metadata>
 <defs>
  <style type="text/css">*{stroke-linecap:butt;stroke-linejoin:round;}</style>
 </defs>
 <g id="figure_1">
  <g id="patch_1">
   <path d="M 0 675.079375 
L 689.498016 675.079375 
L 689.498016 0 
L 0 0 
z
" style="fill:#ffffff;"/>
  </g>
  <g id="axes_1">
   <g id="patch_2">
    <path d="M 84.914375 603.86 
L 567.689804 603.86 
L 567.689804 109.484571 
L 84.914375 109.484571 
z
" style="fill:none;"/>
   </g>
   <g id="matplotlib.axis_1">
    <g id="xtick_1">
     <g id="text_1">
      <!-- 0 -->
      <g style="fill:#262626;" transform="translate(99.64041 636.076563)scale(0.22 -0.22)">
       <defs>
        <path d="M 2034 4250 
Q 1547 4250 1301 3770 
Q 1056 3291 1056 2328 
Q 1056 1369 1301 889 
Q 1547 409 2034 409 
Q 2525 409 2770 889 
Q 3016 1369 3016 2328 
Q 3016 3291 2770 3770 
Q 2525 4250 2034 4250 
z
M 2034 4750 
Q 2819 4750 3233 4129 
Q 3647 3509 3647 2328 
Q 3647 1150 3233 529 
Q 2819 -91 2034 -91 
Q 1250 -91 836 529 
Q 422 1150 422 2328 
Q 422 3509 836 4129 
Q 1250 4750 2034 4750 
z
" id="DejaVuSans-30" transform="scale(0.015625)"/>
       </defs>
       <use xlink:href="#DejaVuSans-30"/>
      </g>
     </g>
    </g>
    <g id="xtick_2">
     <g id="text_2">
      <!-- 20000 -->
      <g style="fill:#262626;" transform="translate(159.466671 636.076563)scale(0.22 -0.22)">
       <defs>
        <path d="M 1228 531 
L 3431 531 
L 3431 0 
L 469 0 
L 469 531 
Q 828 903 1448 1529 
Q 2069 2156 2228 2338 
Q 2531 2678 2651 2914 
Q 2772 3150 2772 3378 
Q 2772 3750 2511 3984 
Q 2250 4219 1831 4219 
Q 1534 4219 1204 4116 
Q 875 4013 500 3803 
L 500 4441 
Q 881 4594 1212 4672 
Q 1544 4750 1819 4750 
Q 2544 4750 2975 4387 
Q 3406 4025 3406 3419 
Q 3406 3131 3298 2873 
Q 3191 2616 2906 2266 
Q 2828 2175 2409 1742 
Q 1991 1309 1228 531 
z
" id="DejaVuSans-32" transform="scale(0.015625)"/>
       </defs>
       <use xlink:href="#DejaVuSans-32"/>
       <use x="63.623047" xlink:href="#DejaVuSans-30"/>
       <use x="127.246094" xlink:href="#DejaVuSans-30"/>
       <use x="190.869141" xlink:href="#DejaVuSans-30"/>
       <use x="254.492188" xlink:href="#DejaVuSans-30"/>
      </g>
     </g>
    </g>
    <g id="xtick_3">
     <g id="text_3">
      <!-- 40000 -->
      <g style="fill:#262626;" transform="translate(247.287932 636.076563)scale(0.22 -0.22)">
       <defs>
        <path d="M 2419 4116 
L 825 1625 
L 2419 1625 
L 2419 4116 
z
M 2253 4666 
L 3047 4666 
L 3047 1625 
L 3713 1625 
L 3713 1100 
L 3047 1100 
L 3047 0 
L 2419 0 
L 2419 1100 
L 313 1100 
L 313 1709 
L 2253 4666 
z
" id="DejaVuSans-34" transform="scale(0.015625)"/>
       </defs>
       <use xlink:href="#DejaVuSans-34"/>
       <use x="63.623047" xlink:href="#DejaVuSans-30"/>
       <use x="127.246094" xlink:href="#DejaVuSans-30"/>
       <use x="190.869141" xlink:href="#DejaVuSans-30"/>
       <use x="254.492188" xlink:href="#DejaVuSans-30"/>
      </g>
     </g>
    </g>
    <g id="xtick_4">
     <g id="text_4">
      <!-- 60000 -->
      <g style="fill:#262626;" transform="translate(335.109193 636.076563)scale(0.22 -0.22)">
       <defs>
        <path d="M 2113 2584 
Q 1688 2584 1439 2293 
Q 1191 2003 1191 1497 
Q 1191 994 1439 701 
Q 1688 409 2113 409 
Q 2538 409 2786 701 
Q 3034 994 3034 1497 
Q 3034 2003 2786 2293 
Q 2538 2584 2113 2584 
z
M 3366 4563 
L 3366 3988 
Q 3128 4100 2886 4159 
Q 2644 4219 2406 4219 
Q 1781 4219 1451 3797 
Q 1122 3375 1075 2522 
Q 1259 2794 1537 2939 
Q 1816 3084 2150 3084 
Q 2853 3084 3261 2657 
Q 3669 2231 3669 1497 
Q 3669 778 3244 343 
Q 2819 -91 2113 -91 
Q 1303 -91 875 529 
Q 447 1150 447 2328 
Q 447 3434 972 4092 
Q 1497 4750 2381 4750 
Q 2619 4750 2861 4703 
Q 3103 4656 3366 4563 
z
" id="DejaVuSans-36" transform="scale(0.015625)"/>
       </defs>
       <use xlink:href="#DejaVuSans-36"/>
       <use x="63.623047" xlink:href="#DejaVuSans-30"/>
       <use x="127.246094" xlink:href="#DejaVuSans-30"/>
       <use x="190.869141" xlink:href="#DejaVuSans-30"/>
       <use x="254.492188" xlink:href="#DejaVuSans-30"/>
      </g>
     </g>
    </g>
    <g id="xtick_5">
     <g id="text_5">
      <!-- 80000 -->
      <g style="fill:#262626;" transform="translate(422.930455 636.076563)scale(0.22 -0.22)">
       <defs>
        <path d="M 2034 2216 
Q 1584 2216 1326 1975 
Q 1069 1734 1069 1313 
Q 1069 891 1326 650 
Q 1584 409 2034 409 
Q 2484 409 2743 651 
Q 3003 894 3003 1313 
Q 3003 1734 2745 1975 
Q 2488 2216 2034 2216 
z
M 1403 2484 
Q 997 2584 770 2862 
Q 544 3141 544 3541 
Q 544 4100 942 4425 
Q 1341 4750 2034 4750 
Q 2731 4750 3128 4425 
Q 3525 4100 3525 3541 
Q 3525 3141 3298 2862 
Q 3072 2584 2669 2484 
Q 3125 2378 3379 2068 
Q 3634 1759 3634 1313 
Q 3634 634 3220 271 
Q 2806 -91 2034 -91 
Q 1263 -91 848 271 
Q 434 634 434 1313 
Q 434 1759 690 2068 
Q 947 2378 1403 2484 
z
M 1172 3481 
Q 1172 3119 1398 2916 
Q 1625 2713 2034 2713 
Q 2441 2713 2670 2916 
Q 2900 3119 2900 3481 
Q 2900 3844 2670 4047 
Q 2441 4250 2034 4250 
Q 1625 4250 1398 4047 
Q 1172 3844 1172 3481 
z
" id="DejaVuSans-38" transform="scale(0.015625)"/>
       </defs>
       <use xlink:href="#DejaVuSans-38"/>
       <use x="63.623047" xlink:href="#DejaVuSans-30"/>
       <use x="127.246094" xlink:href="#DejaVuSans-30"/>
       <use x="190.869141" xlink:href="#DejaVuSans-30"/>
       <use x="254.492188" xlink:href="#DejaVuSans-30"/>
      </g>
     </g>
    </g>
    <g id="xtick_6">
     <g id="text_6">
      <!-- 100000 -->
      <g style="fill:#262626;" transform="translate(503.752966 636.076563)scale(0.22 -0.22)">
       <defs>
        <path d="M 794 531 
L 1825 531 
L 1825 4091 
L 703 3866 
L 703 4441 
L 1819 4666 
L 2450 4666 
L 2450 531 
L 3481 531 
L 3481 0 
L 794 0 
L 794 531 
z
" id="DejaVuSans-31" transform="scale(0.015625)"/>
       </defs>
       <use xlink:href="#DejaVuSans-31"/>
       <use x="63.623047" xlink:href="#DejaVuSans-30"/>
       <use x="127.246094" xlink:href="#DejaVuSans-30"/>
       <use x="190.869141" xlink:href="#DejaVuSans-30"/>
       <use x="254.492188" xlink:href="#DejaVuSans-30"/>
       <use x="318.115234" xlink:href="#DejaVuSans-30"/>
      </g>
     </g>
    </g>
    <g id="text_7">
     <!-- MDTU -->
     <g style="fill:#262626;" transform="translate(290.596464 662.888125)scale(0.24 -0.24)">
      <defs>
       <path d="M 628 4666 
L 1569 4666 
L 2759 1491 
L 3956 4666 
L 4897 4666 
L 4897 0 
L 4281 0 
L 4281 4097 
L 3078 897 
L 2444 897 
L 1241 4097 
L 1241 0 
L 628 0 
L 628 4666 
z
" id="DejaVuSans-4d" transform="scale(0.015625)"/>
       <path d="M 1259 4147 
L 1259 519 
L 2022 519 
Q 2988 519 3436 956 
Q 3884 1394 3884 2338 
Q 3884 3275 3436 3711 
Q 2988 4147 2022 4147 
L 1259 4147 
z
M 628 4666 
L 1925 4666 
Q 3281 4666 3915 4102 
Q 4550 3538 4550 2338 
Q 4550 1131 3912 565 
Q 3275 0 1925 0 
L 628 0 
L 628 4666 
z
" id="DejaVuSans-44" transform="scale(0.015625)"/>
       <path d="M -19 4666 
L 3928 4666 
L 3928 4134 
L 2272 4134 
L 2272 0 
L 1638 0 
L 1638 4134 
L -19 4134 
L -19 4666 
z
" id="DejaVuSans-54" transform="scale(0.015625)"/>
       <path d="M 556 4666 
L 1191 4666 
L 1191 1831 
Q 1191 1081 1462 751 
Q 1734 422 2344 422 
Q 2950 422 3222 751 
Q 3494 1081 3494 1831 
L 3494 4666 
L 4128 4666 
L 4128 1753 
Q 4128 841 3676 375 
Q 3225 -91 2344 -91 
Q 1459 -91 1007 375 
Q 556 841 556 1753 
L 556 4666 
z
" id="DejaVuSans-55" transform="scale(0.015625)"/>
      </defs>
      <use xlink:href="#DejaVuSans-4d"/>
      <use x="86.279297" xlink:href="#DejaVuSans-44"/>
      <use x="163.28125" xlink:href="#DejaVuSans-54"/>
      <use x="224.365234" xlink:href="#DejaVuSans-55"/>
     </g>
    </g>
   </g>
   <g id="matplotlib.axis_2">
    <g id="ytick_1">
     <g id="text_8">
      <!-- 0.5 -->
      <g style="fill:#262626;" transform="translate(34.4275 522.655466)scale(0.22 -0.22)">
       <defs>
        <path d="M 684 794 
L 1344 794 
L 1344 0 
L 684 0 
L 684 794 
z
" id="DejaVuSans-2e" transform="scale(0.015625)"/>
        <path d="M 691 4666 
L 3169 4666 
L 3169 4134 
L 1269 4134 
L 1269 2991 
Q 1406 3038 1543 3061 
Q 1681 3084 1819 3084 
Q 2600 3084 3056 2656 
Q 3513 2228 3513 1497 
Q 3513 744 3044 326 
Q 2575 -91 1722 -91 
Q 1428 -91 1123 -41 
Q 819 9 494 109 
L 494 744 
Q 775 591 1075 516 
Q 1375 441 1709 441 
Q 2250 441 2565 725 
Q 2881 1009 2881 1497 
Q 2881 1984 2565 2268 
Q 2250 2553 1709 2553 
Q 1456 2553 1204 2497 
Q 953 2441 691 2322 
L 691 4666 
z
" id="DejaVuSans-35" transform="scale(0.015625)"/>
       </defs>
       <use xlink:href="#DejaVuSans-30"/>
       <use x="63.623047" xlink:href="#DejaVuSans-2e"/>
       <use x="95.410156" xlink:href="#DejaVuSans-35"/>
      </g>
     </g>
    </g>
    <g id="ytick_2">
     <g id="text_9">
      <!-- 1.0 -->
      <g style="fill:#262626;" transform="translate(34.4275 426.127053)scale(0.22 -0.22)">
       <use xlink:href="#DejaVuSans-31"/>
       <use x="63.623047" xlink:href="#DejaVuSans-2e"/>
       <use x="95.410156" xlink:href="#DejaVuSans-30"/>
      </g>
     </g>
    </g>
    <g id="ytick_3">
     <g id="text_10">
      <!-- 1.5 -->
      <g style="fill:#262626;" transform="translate(34.4275 329.59864)scale(0.22 -0.22)">
       <use xlink:href="#DejaVuSans-31"/>
       <use x="63.623047" xlink:href="#DejaVuSans-2e"/>
       <use x="95.410156" xlink:href="#DejaVuSans-35"/>
      </g>
     </g>
    </g>
    <g id="ytick_4">
     <g id="text_11">
      <!-- 2.0 -->
      <g style="fill:#262626;" transform="translate(34.4275 233.070226)scale(0.22 -0.22)">
       <use xlink:href="#DejaVuSans-32"/>
       <use x="63.623047" xlink:href="#DejaVuSans-2e"/>
       <use x="95.410156" xlink:href="#DejaVuSans-30"/>
      </g>
     </g>
    </g>
    <g id="ytick_5">
     <g id="text_12">
      <!-- 2.5 -->
      <g style="fill:#262626;" transform="translate(34.4275 136.541813)scale(0.22 -0.22)">
       <use xlink:href="#DejaVuSans-32"/>
       <use x="63.623047" xlink:href="#DejaVuSans-2e"/>
       <use x="95.410156" xlink:href="#DejaVuSans-35"/>
      </g>
     </g>
    </g>
    <g id="text_13">
     <!-- $E$ -->
     <g style="fill:#262626;" transform="translate(25.43625 364.352286)rotate(-90)scale(0.24 -0.24)">
      <defs>
       <path d="M 1081 4666 
L 4031 4666 
L 3928 4134 
L 1606 4134 
L 1338 2753 
L 3566 2753 
L 3463 2222 
L 1234 2222 
L 909 531 
L 3284 531 
L 3181 0 
L 172 0 
L 1081 4666 
z
" id="DejaVuSans-Oblique-45" transform="scale(0.015625)"/>
      </defs>
      <use transform="translate(0 0.09375)" xlink:href="#DejaVuSans-Oblique-45"/>
     </g>
    </g>
   </g>
   <g id="line2d_1">
    <path clip-path="url(#pc0a25a0d18)" d="M 106.858713 388.95165 
L 107.078266 490.966185 
L 107.297819 470.273063 
L 107.517372 519.435261 
L 107.736925 526.497732 
L 107.956478 473.943644 
L 108.176032 464.658843 
L 108.615138 523.183304 
L 109.054244 473.140434 
L 109.273797 542.479622 
L 109.493351 547.616993 
L 109.712904 375.15655 
L 110.15201 518.070325 
L 110.371563 462.526484 
L 110.591116 442.102547 
L 110.810669 513.867742 
L 111.030223 538.766394 
L 111.469329 504.888702 
L 111.688882 533.400346 
L 111.908435 463.416575 
L 112.127988 509.666891 
L 112.567095 471.051936 
L 112.786648 478.543353 
L 113.006201 452.25403 
L 113.225754 521.872243 
L 113.445307 512.248567 
L 113.66486 493.403828 
L 113.884414 496.186967 
L 114.103967 547.689995 
L 114.32352 505.558132 
L 114.543073 497.802768 
L 114.762626 452.132966 
L 114.982179 510.203295 
L 115.201732 490.991356 
L 115.421286 537.146094 
L 115.640839 517.19382 
L 115.860392 540.75957 
L 116.079945 533.912936 
L 116.299498 417.913169 
L 116.519051 528.077281 
L 116.738605 370.61274 
L 116.958158 538.320581 
L 117.177711 543.879082 
L 117.397264 505.40772 
L 117.616817 537.089105 
L 117.83637 418.985429 
L 118.055923 438.233785 
L 118.275477 505.848829 
L 118.714583 544.208672 
L 118.934136 501.686651 
L 119.153689 344.220127 
L 119.592796 536.020949 
L 119.812349 442.225545 
L 120.031902 518.353803 
L 120.251455 515.259909 
L 120.471008 548.702219 
L 120.690561 467.79962 
L 120.910114 497.600306 
L 121.129668 405.744521 
L 121.349221 565.981016 
L 121.568774 462.957208 
L 121.788327 515.85553 
L 122.00788 510.926031 
L 122.227433 379.907727 
L 122.446987 394.128853 
L 122.66654 438.612422 
L 122.886093 445.71774 
L 123.105646 381.317134 
L 123.544752 524.946172 
L 123.764305 496.41591 
L 123.983859 573.944559 
L 124.203412 539.131782 
L 124.422965 437.207478 
L 124.642518 517.665984 
L 124.862071 491.741168 
L 125.081624 485.230137 
L 125.301178 439.297509 
L 125.520731 501.919971 
L 125.740284 376.178303 
L 125.959837 536.286178 
L 126.17939 501.709394 
L 126.398943 432.8268 
L 126.83805 520.341884 
L 127.716262 415.055864 
L 127.935815 495.719741 
L 128.155369 442.587783 
L 128.594475 473.403523 
L 128.814028 410.696686 
L 129.253134 522.148663 
L 129.472687 324.602634 
L 129.692241 464.116041 
L 129.911794 520.218862 
L 130.131347 478.277123 
L 130.570453 472.189688 
L 130.790006 531.723003 
L 131.00956 505.200357 
L 131.229113 450.00039 
L 131.448666 341.001084 
L 131.668219 493.209391 
L 131.887772 493.638358 
L 132.107325 417.57965 
L 132.326878 462.9645 
L 132.546432 327.706247 
L 132.765985 497.57613 
L 132.985538 547.87759 
L 133.644197 453.651729 
L 133.863751 485.684365 
L 134.083304 449.205525 
L 134.302857 375.429047 
L 134.52241 384.833787 
L 134.741963 542.108274 
L 134.961516 521.709985 
L 135.181069 416.382245 
L 135.400623 527.878054 
L 135.620176 429.498838 
L 135.839729 421.86458 
L 136.059282 464.2275 
L 136.278835 412.678874 
L 136.717941 433.356934 
L 136.937495 514.335207 
L 137.157048 417.454749 
L 137.376601 521.346486 
L 137.596154 458.523305 
L 138.03526 490.560426 
L 138.254814 391.854575 
L 138.474367 475.486021 
L 138.69392 328.645638 
L 139.352579 563.164024 
L 139.572132 426.772231 
L 139.791686 474.295666 
L 140.011239 462.709111 
L 140.230792 549.778402 
L 140.669898 495.126584 
L 140.889451 325.202589 
L 141.109005 556.269654 
L 141.328558 515.084453 
L 141.548111 520.069827 
L 141.767664 393.576377 
L 141.987217 473.194813 
L 142.20677 480.956697 
L 142.426323 426.137149 
L 142.645877 495.68089 
L 142.86543 520.631177 
L 143.304536 464.784657 
L 143.524089 399.903932 
L 143.743642 450.956236 
L 143.963196 441.987355 
L 144.182749 497.68362 
L 144.402302 433.92017 
L 144.621855 403.744998 
L 145.060961 477.886645 
L 145.280514 563.065193 
L 145.500068 494.17089 
L 145.719621 500.211528 
L 145.939174 500.632497 
L 146.158727 471.571323 
L 146.37828 346.157374 
L 146.597833 469.398517 
L 146.817387 489.521201 
L 147.03694 497.81115 
L 147.256493 477.534343 
L 147.476046 519.111965 
L 147.695599 428.960938 
L 148.134705 570.880927 
L 148.793365 450.334816 
L 149.012918 517.054683 
L 149.232471 495.925177 
L 149.452024 438.233936 
L 149.891131 523.140239 
L 150.110684 527.636421 
L 150.330237 516.476683 
L 150.769343 430.281482 
L 150.988896 335.686038 
L 151.20845 398.738123 
L 151.428003 505.746332 
L 151.647556 421.600166 
L 151.867109 458.703906 
L 152.086662 344.411051 
L 152.306215 441.508415 
L 152.525769 475.030952 
L 152.745322 540.903631 
L 152.964875 334.867043 
L 153.184428 446.664951 
L 153.623534 498.913534 
L 153.843087 521.382311 
L 154.062641 520.524574 
L 154.282194 489.388845 
L 154.501747 479.656964 
L 154.7213 516.54176 
L 154.940853 392.555233 
L 155.160406 355.012627 
L 155.599513 509.35803 
L 155.819066 521.85052 
L 156.038619 494.724662 
L 156.258172 528.001474 
L 156.477725 500.378162 
L 156.697278 508.031065 
L 156.916832 498.711793 
L 157.136385 438.89655 
L 157.355938 502.992664 
L 157.575491 486.762532 
L 157.795044 524.323993 
L 158.014597 477.979603 
L 158.234151 399.098213 
L 158.453704 529.718544 
L 158.673257 253.105193 
L 158.89281 483.549034 
L 159.112363 376.642128 
L 159.331916 424.442636 
L 159.551469 276.944684 
L 159.771023 551.607569 
L 159.990576 524.171717 
L 160.210129 469.318909 
L 160.429682 511.884545 
L 160.649235 329.512343 
L 160.868788 483.457974 
L 161.088342 501.03519 
L 161.307895 541.998645 
L 161.527448 410.10977 
L 161.747001 385.648807 
L 161.966554 427.407538 
L 162.186107 531.195942 
L 162.40566 420.28744 
L 162.625214 425.67089 
L 162.844767 496.070163 
L 163.06432 317.230511 
L 163.503426 379.307817 
L 163.722979 461.151472 
L 163.942532 388.153057 
L 164.162086 403.9775 
L 164.601192 546.419133 
L 164.820745 470.742441 
L 165.040298 494.816814 
L 165.259851 496.069025 
L 165.479405 541.292381 
L 165.698958 413.815799 
L 165.918511 445.081495 
L 166.138064 445.087305 
L 166.357617 562.027992 
L 166.57717 472.402973 
L 167.016277 555.973345 
L 167.23583 436.01354 
L 167.455383 427.198254 
L 167.674936 541.259872 
L 167.894489 510.847179 
L 168.114042 411.087969 
L 168.333596 376.996034 
L 169.211808 512.124068 
L 169.431361 449.860573 
L 169.650914 437.881554 
L 169.870468 445.114892 
L 170.090021 441.778671 
L 170.309574 552.352162 
L 170.529127 434.398269 
L 170.74868 487.662925 
L 170.968233 437.552617 
L 171.187787 560.298232 
L 171.40734 475.868139 
L 171.846446 547.030851 
L 172.285552 439.339779 
L 172.505105 480.257002 
L 172.724659 472.489909 
L 172.944212 556.764154 
L 173.163765 504.925625 
L 173.383318 373.182031 
L 173.602871 509.912026 
L 173.822424 495.53054 
L 174.261531 410.891152 
L 174.481084 211.702809 
L 174.700637 531.91601 
L 174.92019 520.10515 
L 175.139743 540.854027 
L 175.359296 401.056962 
L 175.57885 500.553985 
L 176.017956 522.803259 
L 176.237509 471.782116 
L 176.457062 483.439444 
L 176.896169 535.186735 
L 177.115722 519.016601 
L 177.335275 424.474606 
L 177.554828 510.928773 
L 177.774381 520.707963 
L 178.213487 401.575167 
L 178.433041 450.102491 
L 178.652594 278.863015 
L 178.872147 566.866837 
L 179.0917 537.478523 
L 179.311253 442.575948 
L 179.530806 530.509952 
L 179.75036 445.738204 
L 179.969913 510.171083 
L 180.189466 532.845352 
L 180.409019 475.829031 
L 180.628572 521.037344 
L 180.848125 468.509185 
L 181.067678 538.847218 
L 181.287232 545.623026 
L 181.506785 396.645115 
L 181.726338 523.636542 
L 181.945891 453.352506 
L 182.165444 443.807638 
L 182.384997 522.085189 
L 182.604551 526.540421 
L 182.824104 536.240943 
L 183.043657 434.273635 
L 183.26321 550.963513 
L 183.482763 448.335676 
L 183.702316 499.864595 
L 183.921869 519.450448 
L 184.141423 419.803249 
L 184.360976 547.641559 
L 184.580529 356.194052 
L 184.800082 455.347248 
L 185.019635 417.551696 
L 185.239188 519.22479 
L 185.458742 474.128819 
L 185.678295 479.726572 
L 185.897848 515.135547 
L 186.117401 398.386783 
L 186.336954 386.020645 
L 186.556507 477.579008 
L 186.995614 424.122025 
L 187.215167 448.892189 
L 187.43472 524.197969 
L 187.654273 558.247487 
L 187.873826 486.556181 
L 188.093379 528.052501 
L 188.312932 457.136017 
L 188.532486 487.913632 
L 188.752039 492.897732 
L 188.971592 480.017305 
L 189.410698 541.392324 
L 189.630251 510.783856 
L 189.849805 530.987075 
L 190.288911 398.079998 
L 190.508464 442.688958 
L 190.728017 375.829131 
L 190.94757 522.602384 
L 191.386677 561.400981 
L 191.60623 524.650099 
L 191.825783 544.420943 
L 192.045336 464.245897 
L 192.264889 465.242165 
L 192.484442 523.737849 
L 192.703996 504.331132 
L 192.923549 380.407312 
L 193.362655 514.831353 
L 193.582208 514.937974 
L 193.801761 458.320038 
L 194.021314 449.60249 
L 194.460421 538.43548 
L 194.679974 433.917965 
L 194.899527 501.558713 
L 195.11908 454.864284 
L 195.338633 529.04788 
L 195.558187 499.724486 
L 195.77774 500.361518 
L 195.997293 428.006452 
L 196.216846 518.612669 
L 196.436399 518.903997 
L 196.655952 534.229447 
L 196.875505 446.341689 
L 197.095059 498.567443 
L 197.314612 479.070374 
L 197.534165 322.184632 
L 197.753718 460.170272 
L 197.973271 509.542049 
L 198.192824 436.512902 
L 198.412378 525.042901 
L 198.631931 512.803614 
L 198.851484 475.953336 
L 199.071037 549.958993 
L 199.29059 372.975628 
L 199.510143 519.618624 
L 199.729696 564.171996 
L 199.94925 507.593775 
L 200.168803 515.754403 
L 200.388356 532.139505 
L 200.607909 356.42283 
L 200.827462 413.965522 
L 201.047015 513.348628 
L 201.266569 361.143552 
L 201.486122 475.917063 
L 201.925228 420.561124 
L 202.364334 534.79405 
L 202.583887 539.861344 
L 202.803441 290.997586 
L 203.022994 430.588777 
L 203.242547 495.276146 
L 203.4621 477.021628 
L 203.681653 438.599976 
L 204.12076 540.338993 
L 204.340313 498.123917 
L 204.559866 491.586145 
L 204.779419 533.061106 
L 204.998972 483.177545 
L 205.218525 371.855764 
L 205.438078 520.834127 
L 205.657632 477.218429 
L 205.877185 494.273258 
L 206.096738 431.162464 
L 206.316291 270.896805 
L 206.535844 447.192236 
L 206.755397 520.28764 
L 206.974951 463.256445 
L 207.194504 445.168392 
L 207.414057 448.721033 
L 207.63361 412.613488 
L 207.853163 490.892284 
L 208.072716 493.987775 
L 208.292269 437.082073 
L 208.511823 444.563646 
L 208.731376 560.600273 
L 208.950929 461.771949 
L 209.170482 476.058442 
L 209.390035 538.654869 
L 209.609588 455.536069 
L 209.829142 473.68506 
L 210.048695 406.033841 
L 210.268248 474.565187 
L 210.487801 447.040798 
L 210.707354 435.797499 
L 210.926907 401.179506 
L 211.14646 534.723451 
L 211.366014 380.20635 
L 211.585567 401.634897 
L 211.80512 302.118088 
L 212.244226 533.863158 
L 212.463779 321.654028 
L 212.902886 522.587873 
L 213.122439 531.932872 
L 213.341992 481.934058 
L 213.561545 531.96282 
L 213.781098 478.161681 
L 214.000651 359.61059 
L 214.220205 518.206098 
L 214.439758 463.093994 
L 214.659311 453.73195 
L 214.878864 517.320602 
L 215.098417 454.089659 
L 215.31797 457.217529 
L 215.537523 581.38839 
L 215.97663 355.130391 
L 216.196183 382.786541 
L 216.415736 386.282934 
L 216.854842 507.411858 
L 217.074396 391.005767 
L 217.293949 478.462346 
L 217.513502 505.957564 
L 217.733055 349.709121 
L 217.952608 484.134095 
L 218.172161 532.403986 
L 218.391714 487.545179 
L 218.830821 359.266511 
L 219.050374 498.045153 
L 219.269927 481.20498 
L 219.48948 488.465382 
L 219.709033 507.464402 
L 219.928587 464.123778 
L 220.367693 526.078316 
L 220.587246 405.514598 
L 220.806799 542.813636 
L 221.026352 453.075306 
L 221.245905 505.737509 
L 221.465459 421.074801 
L 221.685012 545.336252 
L 221.904565 535.937278 
L 222.124118 492.640436 
L 222.563224 517.491734 
L 222.782778 510.013938 
L 223.002331 391.6086 
L 223.221884 440.96991 
L 223.441437 517.745152 
L 223.66099 530.655067 
L 223.880543 510.146167 
L 224.100096 419.736175 
L 224.31965 496.667538 
L 224.539203 470.689088 
L 224.758756 413.684873 
L 224.978309 499.53371 
L 225.197862 408.194878 
L 225.417415 521.70255 
L 225.636969 487.164886 
L 225.856522 481.630542 
L 226.076075 518.942903 
L 226.295628 508.758296 
L 226.515181 510.97315 
L 226.734734 468.578261 
L 226.954287 531.698861 
L 227.173841 526.067239 
L 227.393394 349.698737 
L 227.612947 551.254567 
L 227.8325 522.524162 
L 228.052053 445.156009 
L 228.271606 513.288866 
L 228.49116 456.600769 
L 228.710713 484.611712 
L 228.930266 497.323067 
L 229.149819 543.524261 
L 229.369372 509.537442 
L 229.588925 493.021735 
L 229.808478 427.906786 
L 230.028032 301.688299 
L 230.247585 495.963287 
L 230.467138 440.619644 
L 230.906244 516.545 
L 231.125797 493.564476 
L 231.345351 356.798658 
L 231.564904 497.981487 
L 231.784457 517.611675 
L 232.00401 481.157889 
L 232.223563 508.889749 
L 232.443116 504.330884 
L 232.662669 508.474606 
L 232.882223 541.940775 
L 233.101776 427.555321 
L 233.321329 515.098892 
L 233.540882 471.761258 
L 233.760435 472.960396 
L 233.979988 434.662136 
L 234.199542 474.629368 
L 234.419095 459.386457 
L 234.638648 456.573381 
L 234.858201 378.748498 
L 235.297307 510.71573 
L 235.51686 495.155764 
L 235.736414 447.495271 
L 235.955967 501.905845 
L 236.17552 439.381092 
L 236.395073 432.776193 
L 236.614626 445.046037 
L 236.834179 469.010487 
L 237.053733 509.672728 
L 237.273286 451.522397 
L 237.492839 426.962962 
L 237.712392 478.834847 
L 238.151498 436.597341 
L 238.371051 445.815789 
L 238.590605 525.246906 
L 238.810158 515.652401 
L 239.029711 390.88645 
L 239.249264 474.713371 
L 239.468817 491.42809 
L 239.68837 553.158209 
L 239.907924 420.675709 
L 240.127477 561.988555 
L 240.34703 520.676448 
L 240.566583 419.107021 
L 240.786136 466.839966 
L 241.005689 398.13486 
L 241.225242 467.436078 
L 241.444796 492.396265 
L 241.664349 467.121968 
L 241.883902 390.249782 
L 242.103455 451.933714 
L 242.323008 404.21051 
L 242.542561 539.01473 
L 242.981668 459.411311 
L 243.201221 457.818097 
L 243.420774 396.763083 
L 243.640327 523.919814 
L 243.85988 483.36878 
L 244.079433 409.136464 
L 244.298987 426.394594 
L 244.51854 514.960684 
L 244.738093 476.624321 
L 244.957646 510.951332 
L 245.177199 453.476525 
L 245.396752 447.778997 
L 245.616305 523.591924 
L 245.835859 231.743618 
L 246.274965 518.463655 
L 246.494518 496.296277 
L 246.714071 540.784725 
L 247.153178 364.61399 
L 247.372731 453.072705 
L 247.592284 406.725532 
L 247.811837 494.637637 
L 248.03139 493.415641 
L 248.250943 435.22149 
L 248.470496 417.904793 
L 248.69005 503.46908 
L 248.909603 301.724608 
L 249.348709 497.906884 
L 249.568262 500.846629 
L 249.787815 487.180443 
L 250.007369 503.218874 
L 250.226922 436.736754 
L 250.446475 532.817019 
L 250.666028 510.050637 
L 250.885581 371.545607 
L 251.105134 424.427052 
L 251.324687 574.931279 
L 251.544241 326.825126 
L 251.763794 432.932423 
L 251.983347 441.198701 
L 252.2029 444.018647 
L 252.422453 530.859437 
L 252.642006 435.278737 
L 252.86156 486.672444 
L 253.081113 459.193719 
L 253.300666 513.962646 
L 253.520219 507.076765 
L 253.739772 554.745865 
L 253.959325 495.218156 
L 254.398432 459.006015 
L 254.617985 513.24911 
L 254.837538 469.813871 
L 255.057091 535.101294 
L 255.276644 416.635002 
L 255.496197 522.457486 
L 255.715751 421.777738 
L 255.935304 442.857782 
L 256.154857 210.254042 
L 256.37441 482.133915 
L 256.593963 336.738859 
L 256.813516 507.389343 
L 257.033069 386.164962 
L 257.252623 416.442898 
L 257.472176 385.47265 
L 257.691729 525.418515 
L 257.911282 473.289229 
L 258.130835 352.207345 
L 258.350388 373.55066 
L 258.569942 343.453797 
L 259.009048 535.73698 
L 259.228601 531.891879 
L 259.448154 445.82615 
L 259.667707 522.355235 
L 259.88726 352.385009 
L 260.106814 428.386099 
L 260.326367 407.336566 
L 260.54592 485.309101 
L 260.765473 523.717246 
L 260.985026 429.266992 
L 261.204579 556.926977 
L 261.424133 360.555398 
L 261.643686 533.034417 
L 261.863239 499.150295 
L 262.082792 513.738726 
L 262.521898 523.72451 
L 262.741451 506.280831 
L 262.961005 456.855903 
L 263.180558 450.17992 
L 263.619664 523.259719 
L 263.839217 447.605403 
L 264.05877 289.244348 
L 264.278324 498.524508 
L 264.497877 496.69846 
L 264.71743 432.25143 
L 265.156536 557.97141 
L 265.376089 424.985313 
L 265.595642 537.76889 
L 266.254302 435.755124 
L 266.473855 491.12569 
L 266.693408 473.74037 
L 266.912961 556.73569 
L 267.132514 536.854908 
L 267.352068 486.42145 
L 267.571621 574.377815 
L 267.791174 451.898081 
L 268.23028 497.824341 
L 268.449833 442.610704 
L 268.669387 488.240095 
L 269.108493 387.211188 
L 269.328046 515.182762 
L 269.547599 538.79089 
L 269.986705 481.525191 
L 270.206259 465.730539 
L 270.425812 465.365202 
L 270.645365 516.022992 
L 270.864918 458.139892 
L 271.304024 552.089322 
L 271.523578 384.524835 
L 271.962684 391.725114 
L 272.182237 537.242688 
L 272.40179 538.610921 
L 272.621343 424.859421 
L 272.840896 519.251037 
L 273.280003 496.170766 
L 273.499556 501.436543 
L 273.719109 523.522009 
L 273.938662 397.277872 
L 274.158215 429.896385 
L 274.377769 487.07791 
L 274.597322 432.099451 
L 274.816875 499.867881 
L 275.036428 480.676734 
L 275.475534 539.24301 
L 275.695087 545.181756 
L 276.134194 496.817111 
L 276.353747 518.587615 
L 276.5733 506.920374 
L 277.012406 403.125758 
L 277.23196 438.023661 
L 277.451513 519.265066 
L 277.671066 545.079228 
L 277.890619 459.429376 
L 278.110172 497.988831 
L 278.329725 486.490789 
L 278.549278 487.466727 
L 278.768832 407.773472 
L 278.988385 477.581619 
L 279.207938 423.036895 
L 279.427491 491.741925 
L 279.647044 497.39471 
L 279.866597 536.435026 
L 280.086151 421.888485 
L 280.305704 461.343548 
L 280.525257 526.302065 
L 280.74481 518.952955 
L 281.403469 453.500962 
L 281.842576 494.661313 
L 282.062129 463.11215 
L 282.281682 369.588543 
L 282.501235 462.46702 
L 282.720788 372.707316 
L 282.940342 553.001166 
L 283.379448 382.760311 
L 283.599001 463.841068 
L 283.818554 480.842233 
L 284.038107 488.637961 
L 284.25766 470.316629 
L 284.477214 477.231125 
L 284.696767 537.544195 
L 284.91632 527.77626 
L 285.135873 494.891875 
L 285.355426 341.541582 
L 285.574979 523.507661 
L 285.794533 555.736867 
L 286.014086 349.125777 
L 286.233639 472.944076 
L 286.453192 501.699505 
L 286.672745 490.41708 
L 286.892298 526.313872 
L 287.111851 488.252551 
L 287.331405 492.172661 
L 287.550958 483.024952 
L 287.990064 535.871175 
L 288.209617 532.349347 
L 288.42917 386.666193 
L 288.648724 547.175556 
L 288.868277 520.331511 
L 289.08783 395.325975 
L 289.307383 549.8799 
L 289.746489 389.105317 
L 289.966042 548.224531 
L 290.624702 447.780845 
L 290.844255 538.003014 
L 291.063808 541.719689 
L 291.283361 426.844875 
L 291.502915 514.94419 
L 291.722468 503.435054 
L 291.942021 373.499427 
L 292.161574 131.956182 
L 292.381127 508.752599 
L 292.60068 433.700627 
L 292.820233 439.157099 
L 293.039787 489.9816 
L 293.25934 445.683807 
L 293.478893 497.560765 
L 293.698446 403.293808 
L 293.917999 473.952681 
L 294.137552 458.740168 
L 294.357105 513.409788 
L 294.576659 477.513555 
L 294.796212 540.008305 
L 295.015765 407.394271 
L 295.235318 500.783051 
L 295.454871 325.539626 
L 295.674424 482.698488 
L 295.893978 449.80943 
L 296.113531 381.090729 
L 296.552637 550.838982 
L 296.77219 544.334522 
L 296.991743 456.770704 
L 297.211296 477.070703 
L 297.43085 375.276449 
L 297.650403 474.642507 
L 297.869956 379.544412 
L 298.089509 405.33477 
L 298.309062 525.972664 
L 298.528615 449.87015 
L 298.967722 548.133141 
L 299.187275 454.368157 
L 299.626381 496.266829 
L 299.845934 499.110191 
L 300.065487 487.929211 
L 300.285041 391.932432 
L 300.504594 473.155913 
L 300.724147 357.366695 
L 300.9437 483.303754 
L 301.163253 458.53831 
L 301.382806 454.37605 
L 301.60236 417.364868 
L 301.821913 534.850081 
L 302.041466 483.970424 
L 302.261019 492.844357 
L 302.700125 339.417155 
L 302.919678 489.018473 
L 303.358785 443.658327 
L 303.578338 495.637735 
L 303.797891 449.951557 
L 304.017444 348.696772 
L 304.236997 325.607143 
L 304.456551 473.26963 
L 304.676104 358.227376 
L 304.895657 470.893181 
L 305.11521 478.74569 
L 305.334763 466.666899 
L 305.554316 468.429989 
L 305.773869 455.640818 
L 305.993423 370.037114 
L 306.212976 486.027532 
L 306.432529 370.493771 
L 306.871635 450.699331 
L 307.091188 528.232174 
L 307.310742 479.465864 
L 307.530295 514.947396 
L 307.749848 354.367406 
L 307.969401 491.415947 
L 308.188954 481.453182 
L 308.408507 517.199071 
L 308.62806 435.169467 
L 308.847614 440.823681 
L 309.067167 500.14219 
L 309.28672 487.959709 
L 309.506273 501.297914 
L 309.725826 433.47414 
L 309.945379 419.736806 
L 310.164933 486.828181 
L 310.384486 314.911231 
L 310.604039 492.401638 
L 310.823592 478.180112 
L 311.043145 447.078327 
L 311.482251 558.930084 
L 311.921358 415.658239 
L 312.140911 486.026415 
L 312.360464 402.053135 
L 312.580017 435.546957 
L 312.79957 374.126628 
L 313.019124 492.315242 
L 313.238677 398.695095 
L 313.45823 447.858312 
L 313.677783 458.510726 
L 313.897336 434.51939 
L 314.116889 527.261144 
L 314.336442 362.622043 
L 314.555996 516.462185 
L 314.775549 499.379544 
L 314.995102 547.783867 
L 315.214655 335.647162 
L 315.434208 463.141048 
L 315.653761 364.733592 
L 315.873315 369.43458 
L 316.092868 472.904471 
L 316.312421 523.371452 
L 316.531974 510.523029 
L 316.751527 464.603663 
L 316.97108 543.830353 
L 317.190633 484.463606 
L 317.410187 463.841989 
L 317.62974 416.493732 
L 318.068846 482.991209 
L 318.288399 510.281386 
L 318.507952 430.814837 
L 318.727506 525.433597 
L 319.166612 414.746683 
L 319.605718 448.842755 
L 319.825271 459.170984 
L 320.264378 525.083622 
L 320.483931 517.561774 
L 320.703484 463.865039 
L 320.923037 459.283543 
L 321.14259 489.755056 
L 321.362143 487.741598 
L 321.581696 362.973008 
L 321.80125 495.624282 
L 322.020803 528.623271 
L 322.459909 358.796263 
L 322.679462 508.648266 
L 322.899015 444.335017 
L 323.118569 540.654525 
L 323.777228 461.11267 
L 323.996781 478.908323 
L 324.216334 480.610424 
L 324.435887 541.635465 
L 324.655441 407.055223 
L 324.874994 420.850364 
L 325.094547 552.184291 
L 325.3141 502.361632 
L 325.753206 462.702412 
L 325.97276 508.648089 
L 326.192313 503.936606 
L 326.411866 490.422042 
L 326.631419 456.808944 
L 326.850972 465.507608 
L 327.070525 396.173678 
L 327.509632 532.206588 
L 327.948738 349.359777 
L 328.168291 539.166772 
L 328.387844 436.346317 
L 328.607397 537.670665 
L 329.046504 484.798257 
L 329.266057 468.287608 
L 329.48561 566.881271 
L 329.705163 480.466525 
L 329.924716 481.921048 
L 330.144269 520.519524 
L 330.363823 506.984914 
L 330.802929 440.508114 
L 331.022482 542.061834 
L 331.242035 413.001819 
L 331.461588 376.00089 
L 331.681142 469.960242 
L 331.900695 480.126428 
L 332.120248 553.805436 
L 332.339801 520.902937 
L 332.559354 332.388643 
L 332.778907 357.452534 
L 332.99846 510.219866 
L 333.218014 568.652654 
L 333.437567 381.070726 
L 333.65712 499.538384 
L 333.876673 498.585923 
L 334.315779 434.257232 
L 334.535333 500.544089 
L 334.754886 302.789102 
L 334.974439 495.293933 
L 335.633098 434.733601 
L 335.852651 469.803305 
L 336.072205 482.322435 
L 336.291758 413.46485 
L 336.730864 487.582312 
L 336.950417 369.500955 
L 337.16997 476.078407 
L 337.389524 333.278483 
L 337.82863 524.773651 
L 338.048183 528.69366 
L 338.267736 502.423431 
L 338.487289 441.444462 
L 338.706842 514.52838 
L 338.926396 533.021094 
L 339.145949 462.074659 
L 339.365502 347.722046 
L 339.585055 478.189089 
L 339.804608 497.254406 
L 340.024161 468.532335 
L 340.243715 533.583093 
L 340.463268 539.331888 
L 340.682821 486.793298 
L 340.902374 519.972672 
L 341.121927 527.290763 
L 341.34148 463.527084 
L 341.561033 457.349136 
L 341.780587 493.709192 
L 342.219693 528.060795 
L 342.439246 473.537401 
L 342.658799 496.493435 
L 342.878352 416.90658 
L 343.317459 491.880434 
L 343.537012 463.533285 
L 343.756565 524.913653 
L 343.976118 507.375584 
L 344.195671 434.79401 
L 344.415224 501.728786 
L 344.854331 335.850609 
L 345.073884 498.447638 
L 345.293437 435.007779 
L 345.51299 459.610417 
L 345.732543 533.023685 
L 346.17165 478.521986 
L 346.391203 380.811567 
L 346.610756 500.186239 
L 346.830309 524.826362 
L 347.049862 434.291463 
L 347.269415 487.788511 
L 347.488969 485.852616 
L 347.708522 324.755105 
L 347.928075 475.22037 
L 348.147628 459.714463 
L 348.367181 513.765333 
L 348.586734 517.636548 
L 348.806287 448.790532 
L 349.025841 477.812001 
L 349.245394 525.070247 
L 349.464947 516.895276 
L 349.6845 519.953904 
L 349.904053 474.813834 
L 350.123606 538.593373 
L 350.34316 428.174657 
L 350.562713 524.035566 
L 350.782266 426.725784 
L 351.001819 425.459966 
L 351.221372 455.603047 
L 351.440925 382.641585 
L 351.660478 498.045205 
L 351.880032 498.200794 
L 352.099585 449.239445 
L 352.319138 459.202975 
L 352.538691 397.166934 
L 352.758244 534.97872 
L 352.977797 486.556928 
L 353.197351 514.396123 
L 353.416904 429.874015 
L 353.636457 482.474317 
L 354.075563 516.548183 
L 354.295116 474.682419 
L 354.514669 505.418047 
L 354.734223 401.571342 
L 355.173329 548.27862 
L 355.392882 401.202619 
L 355.612435 477.512192 
L 355.831988 474.116535 
L 356.051542 510.692388 
L 356.271095 504.196657 
L 356.490648 467.861564 
L 356.710201 554.677984 
L 356.929754 408.33069 
L 357.149307 498.474931 
L 357.36886 508.68803 
L 357.588414 456.822191 
L 357.807967 468.250091 
L 358.02752 520.753599 
L 358.466626 464.319417 
L 358.686179 524.312403 
L 358.905733 480.204129 
L 359.125286 501.295232 
L 359.344839 467.134391 
L 359.564392 496.771979 
L 359.783945 377.517331 
L 360.003498 475.322593 
L 360.223051 484.961014 
L 360.442605 528.726422 
L 360.662158 453.294109 
L 361.101264 488.589348 
L 361.320817 413.297216 
L 361.54037 545.356928 
L 361.979477 321.691001 
L 362.19903 489.86798 
L 362.418583 463.396069 
L 362.638136 541.281092 
L 362.857689 450.236031 
L 363.077242 465.008449 
L 363.516349 374.402719 
L 363.735902 446.282229 
L 363.955455 415.021979 
L 364.394561 481.484958 
L 364.614115 351.004146 
L 364.833668 509.133656 
L 365.053221 482.948709 
L 365.272774 375.540863 
L 365.492327 426.352576 
L 365.71188 503.811085 
L 365.931433 494.473482 
L 366.150987 414.148476 
L 366.37054 426.768211 
L 366.590093 549.55877 
L 366.809646 450.442319 
L 367.029199 294.236845 
L 367.248752 470.639242 
L 367.468306 535.016348 
L 367.687859 529.372745 
L 367.907412 561.386534 
L 368.126965 446.396077 
L 368.566071 414.766813 
L 368.785624 478.621946 
L 369.224731 381.603717 
L 369.444284 493.810137 
L 369.663837 474.88047 
L 369.88339 467.914524 
L 370.102943 553.177338 
L 370.322497 366.751383 
L 370.54205 506.98772 
L 370.761603 429.472176 
L 370.981156 496.244198 
L 371.200709 393.026728 
L 371.420262 382.874857 
L 371.639815 305.908634 
L 371.859369 499.11821 
L 372.078922 507.894234 
L 372.518028 488.171974 
L 372.737581 563.462901 
L 372.957134 540.138374 
L 373.176687 534.936281 
L 373.615794 492.695474 
L 373.835347 542.701715 
L 374.0549 512.617376 
L 374.274453 523.957456 
L 374.494006 464.36398 
L 374.71356 482.851002 
L 374.933113 420.295143 
L 375.152666 447.621014 
L 375.372219 448.375879 
L 375.591772 502.488146 
L 376.030878 489.337847 
L 376.250432 550.358807 
L 376.469985 440.006496 
L 376.689538 498.859473 
L 376.909091 361.824187 
L 377.128644 363.201899 
L 377.348197 531.247611 
L 377.567751 456.901723 
L 377.787304 482.474128 
L 378.006857 530.827861 
L 378.22641 536.787096 
L 378.665516 467.111946 
L 378.885069 479.670041 
L 379.104623 466.538518 
L 379.324176 522.120883 
L 379.543729 503.087251 
L 379.763282 391.169031 
L 379.982835 497.998812 
L 380.202388 527.338456 
L 380.421942 456.358177 
L 380.641495 425.812028 
L 380.861048 489.461121 
L 381.080601 498.423357 
L 381.300154 478.085832 
L 381.519707 494.502994 
L 381.73926 459.41071 
L 381.958814 475.868513 
L 382.178367 470.599928 
L 382.39792 475.730439 
L 382.617473 426.185781 
L 382.837026 555.97883 
L 383.276133 447.768496 
L 383.495686 460.238624 
L 383.715239 498.212786 
L 383.934792 516.616274 
L 384.154345 493.666389 
L 384.373898 554.229692 
L 384.593451 533.580341 
L 384.813005 315.020378 
L 385.032558 459.519763 
L 385.252111 491.093805 
L 385.691217 524.704986 
L 385.91077 384.009153 
L 386.130324 494.756903 
L 386.349877 511.005687 
L 386.56943 470.888076 
L 386.788983 342.916819 
L 387.008536 452.533455 
L 387.447642 528.233496 
L 387.667196 486.755234 
L 387.886749 475.878185 
L 388.106302 357.15899 
L 388.325855 473.899074 
L 388.545408 388.606253 
L 388.764961 489.956256 
L 388.984515 536.274521 
L 389.204068 526.760888 
L 389.423621 455.522051 
L 389.643174 537.818519 
L 389.862727 487.362008 
L 390.08228 513.569176 
L 390.301833 500.870348 
L 390.521387 469.994463 
L 390.960493 565.695437 
L 391.180046 478.383771 
L 391.399599 486.764098 
L 391.619152 564.89434 
L 391.838706 525.911966 
L 392.058259 417.360817 
L 392.277812 533.143236 
L 392.497365 482.922628 
L 392.716918 507.52582 
L 392.936471 500.142498 
L 393.375578 437.081644 
L 393.595131 527.081567 
L 393.814684 459.071262 
L 394.25379 555.214644 
L 394.692897 491.618926 
L 394.91245 528.875093 
L 395.132003 516.457348 
L 395.351556 523.929843 
L 395.571109 239.743032 
L 395.790662 459.77533 
L 396.010215 479.752679 
L 396.229769 359.666864 
L 396.449322 514.637319 
L 396.668875 331.565177 
L 396.888428 420.082545 
L 397.107981 430.144144 
L 397.327534 456.698081 
L 397.766641 581.170109 
L 398.205747 426.428914 
L 398.4253 538.115647 
L 398.644853 488.151049 
L 398.864406 503.257188 
L 399.08396 494.59568 
L 399.523066 367.052703 
L 399.742619 479.795287 
L 399.962172 388.388695 
L 400.181725 559.119305 
L 400.401278 520.659383 
L 400.620832 517.310112 
L 400.840385 456.135322 
L 401.059938 467.709361 
L 401.279491 510.173297 
L 401.499044 370.550415 
L 401.718597 469.673893 
L 402.157704 493.779482 
L 402.377257 426.585472 
L 402.59681 413.787058 
L 402.816363 519.706485 
L 403.035916 392.029802 
L 403.255469 536.791682 
L 404.133682 448.873863 
L 404.353235 485.123169 
L 404.572788 393.394456 
L 404.792342 536.131961 
L 405.011895 528.382087 
L 405.231448 507.958038 
L 405.451001 405.03278 
L 405.890107 516.938992 
L 406.10966 445.891239 
L 406.329214 545.5622 
L 406.548767 541.636653 
L 406.76832 307.632213 
L 406.987873 510.664923 
L 407.207426 368.994503 
L 407.426979 537.782656 
L 407.866086 428.110323 
L 408.085639 511.305527 
L 408.305192 312.962125 
L 408.524745 309.15479 
L 408.744298 478.312649 
L 408.963851 273.867062 
L 409.183405 343.506304 
L 409.402958 474.88438 
L 409.622511 379.347225 
L 409.842064 485.051957 
L 410.061617 474.237292 
L 410.28117 565.826491 
L 410.500724 466.618345 
L 410.720277 507.229533 
L 410.93983 479.217875 
L 411.159383 432.230841 
L 411.378936 307.018432 
L 411.598489 468.732354 
L 411.818042 395.699243 
L 412.037596 456.535906 
L 412.257149 394.612623 
L 412.696255 542.6252 
L 412.915808 375.609649 
L 413.135361 340.169997 
L 413.354915 467.616702 
L 413.574468 472.336785 
L 413.794021 468.324565 
L 414.013574 427.661337 
L 414.233127 539.348969 
L 414.672233 316.788643 
L 414.891787 448.452963 
L 415.11134 385.274067 
L 415.330893 373.824307 
L 415.550446 521.215002 
L 415.769999 501.193288 
L 415.989552 532.893344 
L 416.209106 500.697122 
L 416.428659 433.606684 
L 416.648212 419.670466 
L 416.867765 377.07234 
L 417.087318 475.56179 
L 417.306871 431.288277 
L 417.526424 456.29437 
L 417.745978 449.628914 
L 417.965531 331.746138 
L 418.185084 470.131157 
L 418.404637 453.770054 
L 418.62419 495.113397 
L 418.843743 486.300824 
L 419.063297 532.844648 
L 419.28285 522.224361 
L 419.502403 493.409853 
L 419.721956 488.368516 
L 419.941509 519.075251 
L 420.161062 495.418238 
L 420.380615 530.391104 
L 420.600169 531.419282 
L 420.819722 415.467389 
L 421.039275 500.228777 
L 421.258828 331.91931 
L 421.697934 482.740046 
L 421.917488 442.318298 
L 422.137041 472.640767 
L 422.356594 531.287391 
L 422.576147 450.920349 
L 422.7957 471.252012 
L 423.015253 481.053928 
L 423.234806 533.278934 
L 423.45436 457.521042 
L 423.673913 534.806412 
L 423.893466 507.430534 
L 424.113019 433.640521 
L 424.332572 489.861779 
L 424.552125 510.615927 
L 424.771678 469.131166 
L 424.991232 556.405824 
L 425.210785 441.852686 
L 425.430338 497.848445 
L 425.649891 447.587126 
L 425.869444 526.57663 
L 426.308551 489.06378 
L 426.528104 493.280396 
L 426.747657 452.268467 
L 426.96721 473.222731 
L 427.406316 316.794947 
L 427.625869 497.69518 
L 427.845423 514.053348 
L 428.064976 468.524006 
L 428.284529 508.187158 
L 428.504082 493.149568 
L 428.723635 547.352931 
L 428.943188 385.170524 
L 429.162742 456.838293 
L 429.382295 437.070563 
L 429.601848 390.166228 
L 430.040954 563.86847 
L 430.260507 532.036204 
L 430.699614 452.313243 
L 430.919167 299.070866 
L 431.13872 433.303216 
L 431.358273 423.137615 
L 431.577826 478.533822 
L 431.797379 470.853481 
L 432.236486 481.916204 
L 432.456039 479.462519 
L 432.675592 475.411996 
L 433.114698 406.959894 
L 433.334251 527.104961 
L 433.553805 525.189387 
L 434.212464 375.129387 
L 434.432017 481.965819 
L 434.65157 525.662599 
L 434.871124 343.302934 
L 435.090677 510.000815 
L 435.31023 479.728626 
L 435.529783 514.341484 
L 435.749336 458.527074 
L 435.968889 337.404648 
L 436.188442 411.066735 
L 436.407996 560.582437 
L 436.847102 404.525891 
L 437.066655 492.392103 
L 437.286208 438.682195 
L 437.944868 510.675345 
L 438.164421 528.426896 
L 438.383974 416.093553 
L 438.603527 465.892765 
L 438.82308 396.130381 
L 439.042633 543.108556 
L 439.262187 435.743543 
L 439.701293 508.043074 
L 440.359952 381.970405 
L 440.799059 487.308871 
L 441.018612 486.621516 
L 441.457718 405.964381 
L 441.677271 413.099013 
L 441.896824 531.117853 
L 442.116378 450.393925 
L 442.335931 547.187396 
L 442.555484 529.718596 
L 442.775037 489.496992 
L 442.99459 411.330986 
L 443.433697 528.477706 
L 443.65325 493.882748 
L 443.872803 543.762847 
L 444.311909 559.034007 
L 444.531462 433.827923 
L 444.751015 416.766016 
L 444.970569 337.26912 
L 445.190122 303.832083 
L 445.409675 471.59532 
L 445.629228 551.294265 
L 445.848781 383.384015 
L 446.068334 449.604024 
L 446.287888 342.162789 
L 446.507441 500.19149 
L 446.726994 542.565431 
L 446.946547 517.452837 
L 447.1661 522.329573 
L 447.385653 356.518329 
L 447.605206 508.130435 
L 447.82476 416.547587 
L 448.263866 535.020022 
L 448.483419 437.538971 
L 448.702972 441.274589 
L 448.922525 419.233872 
L 449.142079 493.297215 
L 449.581185 460.601739 
L 450.020291 522.605508 
L 450.239844 448.767455 
L 450.459397 542.396718 
L 450.678951 517.863843 
L 450.898504 526.323308 
L 451.118057 503.205836 
L 451.33761 497.072623 
L 451.557163 470.018376 
L 451.776716 413.124428 
L 451.996269 505.254355 
L 452.215823 412.46208 
L 452.435376 367.734372 
L 452.654929 479.712047 
L 452.874482 499.93597 
L 453.094035 540.313014 
L 453.313588 495.878325 
L 453.533142 400.592761 
L 453.752695 502.741928 
L 453.972248 504.235216 
L 454.191801 479.676837 
L 454.630907 496.54318 
L 454.85046 478.15442 
L 455.070014 421.755447 
L 455.289567 474.630085 
L 455.50912 252.490497 
L 455.728673 513.983778 
L 455.948226 531.481637 
L 456.387333 524.164269 
L 456.606886 497.055473 
L 456.826439 313.500537 
L 457.265545 475.782647 
L 457.485098 353.645982 
L 457.704651 335.75384 
L 457.924205 452.683665 
L 458.363311 560.121643 
L 458.582864 536.903841 
L 458.802417 409.395387 
L 459.02197 353.431686 
L 459.241524 458.89905 
L 459.461077 469.060209 
L 459.68063 496.037175 
L 459.900183 485.123531 
L 460.119736 459.340766 
L 460.339289 457.595077 
L 460.558842 504.348664 
L 460.778396 497.78935 
L 460.997949 548.155828 
L 461.217502 448.746741 
L 461.437055 474.499672 
L 461.656608 472.571757 
L 461.876161 478.760242 
L 462.095715 490.462743 
L 462.315268 515.448098 
L 462.534821 441.703773 
L 462.754374 526.823318 
L 462.973927 516.101769 
L 463.632587 380.325299 
L 463.85214 510.871203 
L 464.071693 564.314343 
L 464.291246 525.294002 
L 464.510799 293.365982 
L 464.730352 490.124929 
L 464.949906 442.777044 
L 465.169459 507.755578 
L 465.389012 463.309323 
L 465.608565 491.124813 
L 465.828118 437.008177 
L 466.047671 433.689756 
L 466.267224 474.030507 
L 466.486778 491.865476 
L 466.706331 454.886914 
L 466.925884 489.452862 
L 467.145437 425.867736 
L 467.36499 443.802168 
L 467.584543 554.150379 
L 467.804097 439.711583 
L 468.02365 504.086494 
L 468.243203 437.112147 
L 468.462756 442.676826 
L 468.682309 335.902632 
L 468.901862 330.554572 
L 469.340969 515.323664 
L 469.560522 426.641234 
L 469.780075 572.788814 
L 469.999628 496.704963 
L 470.219181 478.678449 
L 470.438734 535.783919 
L 470.658288 502.284944 
L 470.877841 400.145891 
L 471.097394 523.560944 
L 471.316947 362.978263 
L 471.5365 531.167736 
L 471.756053 375.97814 
L 471.975606 542.510192 
L 472.414713 390.199065 
L 472.634266 470.161062 
L 472.853819 402.088057 
L 473.073372 398.375118 
L 473.292925 423.336937 
L 473.512479 490.231309 
L 473.732032 511.979472 
L 473.951585 492.421599 
L 474.171138 417.641825 
L 474.390691 547.82049 
L 474.829797 321.35268 
L 475.049351 555.307912 
L 475.268904 481.640325 
L 475.488457 314.020565 
L 475.70801 492.211891 
L 475.927563 487.367329 
L 476.147116 530.775405 
L 476.366669 452.811294 
L 476.586223 486.387691 
L 477.025329 326.589309 
L 477.244882 561.084662 
L 477.464435 511.147213 
L 477.683988 505.261355 
L 477.903542 509.233503 
L 478.342648 462.697869 
L 478.562201 474.377308 
L 478.781754 444.30398 
L 479.22086 522.024513 
L 479.440414 501.32292 
L 479.659967 458.100195 
L 479.87952 495.671149 
L 480.099073 478.766037 
L 480.318626 495.664376 
L 480.538179 546.014355 
L 480.757733 514.555936 
L 480.977286 462.917088 
L 481.196839 463.34052 
L 481.416392 326.022789 
L 481.635945 486.429976 
L 481.855498 492.337614 
L 482.075051 386.968673 
L 482.294605 468.765937 
L 482.514158 469.325946 
L 482.733711 517.215773 
L 482.953264 540.580338 
L 483.39237 452.939207 
L 483.611924 366.812085 
L 484.05103 525.796412 
L 484.270583 518.608765 
L 484.490136 488.492359 
L 484.929242 296.671889 
L 485.368349 514.334839 
L 485.587902 406.30834 
L 485.807455 513.910275 
L 486.027008 424.009657 
L 486.246561 500.405388 
L 486.685668 531.349739 
L 486.905221 338.304363 
L 487.124774 554.118255 
L 487.344327 495.521438 
L 487.56388 492.989875 
L 487.783433 551.619192 
L 488.002987 346.773864 
L 488.22254 470.290521 
L 488.442093 364.85433 
L 489.100752 553.942069 
L 489.320306 499.765264 
L 489.539859 414.157752 
L 489.759412 547.658183 
L 489.978965 211.820513 
L 490.198518 412.238187 
L 490.418071 479.071004 
L 490.637624 224.721588 
L 490.857178 510.578471 
L 491.076731 514.045947 
L 491.296284 525.183632 
L 491.515837 402.393525 
L 491.73539 447.290763 
L 491.954943 551.749742 
L 492.174497 500.649917 
L 492.39405 561.120237 
L 492.613603 220.879052 
L 492.833156 500.625126 
L 493.052709 271.857807 
L 493.272262 507.566619 
L 493.491815 286.20361 
L 493.711369 383.594176 
L 493.930922 533.527903 
L 494.150475 528.137249 
L 494.370028 515.750784 
L 494.589581 458.193518 
L 494.809134 512.293486 
L 495.248241 430.472642 
L 495.467794 545.643977 
L 495.687347 193.656564 
L 495.9069 514.940908 
L 496.126453 493.733027 
L 496.346006 497.162255 
L 496.56556 487.738532 
L 496.785113 365.624108 
L 497.004666 518.081822 
L 497.224219 391.825699 
L 497.882879 542.146833 
L 498.102432 430.488357 
L 498.321985 470.079645 
L 498.541538 440.786239 
L 498.761091 515.409398 
L 498.980644 426.293146 
L 499.200197 508.87767 
L 499.419751 455.025114 
L 499.639304 482.805329 
L 499.858857 311.330322 
L 500.07841 512.750314 
L 500.297963 532.713101 
L 500.73707 477.695653 
L 500.956623 536.103362 
L 501.176176 554.486216 
L 501.395729 429.22121 
L 501.615282 446.458454 
L 501.834835 435.032205 
L 502.054388 413.686984 
L 502.493495 548.862192 
L 502.713048 465.977209 
L 502.932601 459.452202 
L 503.152154 414.407494 
L 503.371707 482.600135 
L 503.59126 412.29764 
L 504.030367 481.561044 
L 504.24992 465.981614 
L 504.689026 529.397226 
L 504.908579 469.398775 
L 505.128133 449.949986 
L 505.347686 507.872453 
L 505.567239 517.530734 
L 505.786792 482.448354 
L 506.006345 489.554791 
L 506.225898 319.186868 
L 506.445451 250.598346 
L 506.665005 463.452464 
L 507.104111 432.546567 
L 507.323664 471.942632 
L 507.543217 549.326398 
L 507.76277 435.495254 
L 507.982324 501.730882 
L 508.42143 555.845915 
L 508.640983 445.049849 
L 508.860536 401.407265 
L 509.080089 407.025796 
L 509.299642 495.402616 
L 509.519196 495.272494 
L 509.738749 494.795145 
L 509.958302 419.265691 
L 510.177855 509.466272 
L 510.397408 538.036957 
L 510.836515 251.934025 
L 511.056068 441.22713 
L 511.275621 479.831821 
L 511.495174 405.775057 
L 511.714727 548.125705 
L 511.93428 508.015576 
L 512.153833 550.387051 
L 512.373387 481.795303 
L 512.59294 480.359818 
L 512.812493 457.567278 
L 513.032046 522.838135 
L 513.251599 443.469234 
L 513.471152 465.376151 
L 513.690706 529.623894 
L 514.129812 389.815706 
L 514.349365 387.666855 
L 514.568918 510.425257 
L 515.008024 396.922239 
L 515.227578 503.537869 
L 515.666684 433.345014 
L 515.886237 551.481837 
L 516.10579 505.983811 
L 516.325343 403.336137 
L 516.544897 375.021596 
L 516.76445 431.496673 
L 516.984003 523.688601 
L 517.203556 510.185687 
L 517.423109 451.151034 
L 517.642662 518.908191 
L 517.862215 386.968372 
L 518.081769 421.286828 
L 518.301322 551.69577 
L 518.520875 356.890375 
L 518.740428 503.074589 
L 518.959981 523.01787 
L 519.179534 499.749333 
L 519.399088 497.078796 
L 519.618641 472.269641 
L 519.838194 523.869636 
L 520.057747 415.423055 
L 520.2773 516.030053 
L 520.496853 506.684194 
L 520.716406 507.052718 
L 520.93596 486.749667 
L 521.155513 507.824727 
L 521.375066 336.177683 
L 521.594619 348.244579 
L 521.814172 477.453011 
L 522.253279 502.069498 
L 522.472832 507.967759 
L 522.692385 488.656492 
L 522.911938 537.500921 
L 523.131491 392.698004 
L 523.351044 436.121198 
L 523.570597 540.594912 
L 523.790151 418.797339 
L 524.009704 499.346926 
L 524.229257 446.226451 
L 524.44881 476.991119 
L 524.668363 547.491925 
L 524.887916 344.429875 
L 525.327023 522.161237 
L 525.546576 523.965995 
L 525.766129 516.457183 
L 525.985682 540.709257 
L 526.205235 520.170429 
L 526.424788 469.474684 
L 526.644342 479.193556 
L 526.863895 541.473389 
L 527.083448 510.343369 
L 527.303001 404.73403 
L 527.522554 431.795684 
L 527.742107 527.012609 
L 527.96166 468.436698 
L 528.181214 498.745646 
L 528.400767 488.922672 
L 528.62032 541.970942 
L 528.839873 390.888877 
L 529.059426 558.693255 
L 529.278979 522.447557 
L 529.498533 463.136473 
L 529.718086 498.657009 
L 529.937639 489.779553 
L 530.157192 428.970846 
L 530.376745 500.826379 
L 530.596298 509.107331 
L 530.815851 508.50451 
L 531.254958 422.831896 
L 531.474511 501.235441 
L 531.913617 299.194722 
L 532.13317 365.141608 
L 532.352724 561.730562 
L 532.572277 423.34059 
L 532.79183 552.999643 
L 533.011383 357.063674 
L 533.230936 494.774299 
L 533.450489 350.782035 
L 533.670042 448.389185 
L 533.889596 477.292209 
L 534.109149 399.10664 
L 534.328702 474.532957 
L 534.548255 487.547713 
L 534.767808 559.766987 
L 534.987361 468.881153 
L 535.206915 496.140549 
L 535.426468 430.900333 
L 535.646021 540.652164 
L 535.865574 546.914583 
L 536.30468 404.107762 
L 536.743787 525.818461 
L 536.96334 398.313559 
L 537.402446 528.034491 
L 537.621999 522.644919 
L 537.841552 529.776925 
L 538.061106 458.013803 
L 538.280659 501.088417 
L 538.500212 456.928484 
L 538.719765 436.539491 
L 538.939318 503.210358 
L 539.158871 348.397423 
L 539.378424 468.018677 
L 539.597978 512.97279 
L 539.817531 534.589119 
L 540.037084 463.442536 
L 540.256637 465.046207 
L 540.47619 532.513733 
L 540.695743 540.976301 
L 540.915297 537.708815 
L 541.13485 506.961922 
L 541.354403 425.363327 
L 541.793509 567.901244 
L 542.013062 401.748307 
L 542.232615 478.786771 
L 542.452169 451.548093 
L 542.671722 477.596936 
L 542.891275 520.04235 
L 543.330381 482.5388 
L 543.549934 503.776427 
L 543.769488 570.554884 
L 543.989041 460.562047 
L 544.208594 550.015152 
L 544.428147 461.830837 
L 544.6477 497.749291 
L 544.867253 514.404163 
L 545.086806 514.842475 
L 545.30636 457.86402 
L 545.525913 543.384762 
L 545.745466 488.867138 
L 545.745466 488.867138 
" style="fill:none;stroke:#96c69a;stroke-linecap:round;stroke-width:3;"/>
   </g>
   <g id="line2d_2"/>
   <g id="patch_3">
    <path d="M 84.914375 603.86 
L 84.914375 109.484571 
" style="fill:none;stroke:#262626;stroke-linecap:square;stroke-linejoin:miter;stroke-width:2.5;"/>
   </g>
   <g id="patch_4">
    <path d="M 84.914375 603.86 
L 567.689804 603.86 
" style="fill:none;stroke:#262626;stroke-linecap:square;stroke-linejoin:miter;stroke-width:2.5;"/>
   </g>
   <g id="legend_1">
    <g id="patch_5">
     <path d="M 514.774179 598.86 
L 560.689804 598.86 
Q 562.689804 598.86 562.689804 596.86 
L 562.689804 554.954375 
Q 562.689804 552.954375 560.689804 552.954375 
L 514.774179 552.954375 
Q 512.774179 552.954375 512.774179 554.954375 
L 512.774179 596.86 
Q 512.774179 598.86 514.774179 598.86 
z
" style="fill:#ffffff;opacity:0.8;stroke:#cccccc;stroke-linejoin:miter;stroke-width:2;"/>
    </g>
    <g id="text_14">
     <!-- $n_\tau$ -->
     <g style="fill:#262626;" transform="translate(524.651991 575.190625)scale(0.24 -0.24)">
      <defs>
       <path d="M 3566 2113 
L 3156 0 
L 2578 0 
L 2988 2091 
Q 3016 2238 3031 2350 
Q 3047 2463 3047 2528 
Q 3047 2791 2881 2937 
Q 2716 3084 2419 3084 
Q 1956 3084 1622 2776 
Q 1288 2469 1184 1941 
L 800 0 
L 225 0 
L 903 3500 
L 1478 3500 
L 1363 2950 
Q 1603 3253 1940 3418 
Q 2278 3584 2650 3584 
Q 3113 3584 3367 3334 
Q 3622 3084 3622 2631 
Q 3622 2519 3608 2391 
Q 3594 2263 3566 2113 
z
" id="DejaVuSans-Oblique-6e" transform="scale(0.015625)"/>
       <path d="M 2103 638 
Q 2188 488 2525 488 
L 2800 488 
L 2706 0 
L 2363 0 
Q 1800 0 1600 300 
Q 1403 606 1534 1269 
L 1856 2925 
L 541 2925 
L 653 3500 
L 3881 3500 
L 3769 2925 
L 2444 2925 
L 2113 1234 
Q 2025 781 2103 638 
z
" id="DejaVuSans-Oblique-3c4" transform="scale(0.015625)"/>
      </defs>
      <use xlink:href="#DejaVuSans-Oblique-6e"/>
      <use transform="translate(63.378906 -16.40625)scale(0.7)" xlink:href="#DejaVuSans-Oblique-3c4"/>
     </g>
    </g>
    <g id="line2d_3">
     <path d="M 516.774179 589.280313 
L 536.774179 589.280313 
" style="fill:none;stroke:#96c69a;stroke-linecap:round;stroke-width:3;"/>
    </g>
    <g id="line2d_4"/>
    <g id="text_15">
     <!-- 20 -->
     <g style="fill:#262626;" transform="translate(544.774179 592.780313)scale(0.1 -0.1)">
      <defs>
       <path d="M 1844 884 
L 3897 884 
L 3897 0 
L 506 0 
L 506 884 
L 2209 2388 
Q 2438 2594 2547 2791 
Q 2656 2988 2656 3200 
Q 2656 3528 2436 3728 
Q 2216 3928 1850 3928 
Q 1569 3928 1234 3808 
Q 900 3688 519 3450 
L 519 4475 
Q 925 4609 1322 4679 
Q 1719 4750 2100 4750 
Q 2938 4750 3402 4381 
Q 3866 4013 3866 3353 
Q 3866 2972 3669 2642 
Q 3472 2313 2841 1759 
L 1844 884 
z
" id="DejaVuSans-Bold-32" transform="scale(0.015625)"/>
       <path d="M 2944 2338 
Q 2944 3213 2780 3570 
Q 2616 3928 2228 3928 
Q 1841 3928 1675 3570 
Q 1509 3213 1509 2338 
Q 1509 1453 1675 1090 
Q 1841 728 2228 728 
Q 2613 728 2778 1090 
Q 2944 1453 2944 2338 
z
M 4147 2328 
Q 4147 1169 3647 539 
Q 3147 -91 2228 -91 
Q 1306 -91 806 539 
Q 306 1169 306 2328 
Q 306 3491 806 4120 
Q 1306 4750 2228 4750 
Q 3147 4750 3647 4120 
Q 4147 3491 4147 2328 
z
" id="DejaVuSans-Bold-30" transform="scale(0.015625)"/>
      </defs>
      <use xlink:href="#DejaVuSans-Bold-32"/>
      <use x="69.580078" xlink:href="#DejaVuSans-Bold-30"/>
     </g>
    </g>
   </g>
  </g>
  <g id="axes_2">
   <g id="patch_6">
    <path d="M 84.914375 92.437143 
L 567.689804 92.437143 
L 567.689804 7.2 
L 84.914375 7.2 
z
" style="fill:none;"/>
   </g>
   <g id="matplotlib.axis_3">
    <g id="xtick_7"/>
    <g id="xtick_8"/>
    <g id="xtick_9"/>
    <g id="xtick_10"/>
    <g id="xtick_11"/>
    <g id="xtick_12"/>
   </g>
   <g id="matplotlib.axis_4">
    <g id="ytick_6">
     <g id="text_16">
      <!-- 0 -->
      <g style="fill:#262626;" transform="translate(55.416875 100.795424)scale(0.22 -0.22)">
       <use xlink:href="#DejaVuSans-30"/>
      </g>
     </g>
    </g>
    <g id="ytick_7">
     <g id="text_17">
      <!-- 100 -->
      <g style="fill:#262626;" transform="translate(27.421875 48.082287)scale(0.22 -0.22)">
       <use xlink:href="#DejaVuSans-31"/>
       <use x="63.623047" xlink:href="#DejaVuSans-30"/>
       <use x="127.246094" xlink:href="#DejaVuSans-30"/>
      </g>
     </g>
    </g>
   </g>
   <g id="patch_7">
    <path clip-path="url(#pbcb817197e)" d="M 106.858713 92.437143 
L 140.619232 92.437143 
L 140.619232 11.258912 
L 106.858713 11.258912 
z
" style="fill:#96c69a;fill-opacity:0.5;stroke:#ffffff;stroke-linejoin:miter;stroke-width:2;"/>
   </g>
   <g id="patch_8">
    <path clip-path="url(#pbcb817197e)" d="M 140.619232 92.437143 
L 174.379752 92.437143 
L 174.379752 11.258912 
L 140.619232 11.258912 
z
" style="fill:#96c69a;fill-opacity:0.5;stroke:#ffffff;stroke-linejoin:miter;stroke-width:2;"/>
   </g>
   <g id="patch_9">
    <path clip-path="url(#pbcb817197e)" d="M 174.379752 92.437143 
L 208.140271 92.437143 
L 208.140271 11.258912 
L 174.379752 11.258912 
z
" style="fill:#96c69a;fill-opacity:0.5;stroke:#ffffff;stroke-linejoin:miter;stroke-width:2;"/>
   </g>
   <g id="patch_10">
    <path clip-path="url(#pbcb817197e)" d="M 208.140271 92.437143 
L 241.900791 92.437143 
L 241.900791 11.258912 
L 208.140271 11.258912 
z
" style="fill:#96c69a;fill-opacity:0.5;stroke:#ffffff;stroke-linejoin:miter;stroke-width:2;"/>
   </g>
   <g id="patch_11">
    <path clip-path="url(#pbcb817197e)" d="M 241.900791 92.437143 
L 275.66131 92.437143 
L 275.66131 11.786043 
L 241.900791 11.786043 
z
" style="fill:#96c69a;fill-opacity:0.5;stroke:#ffffff;stroke-linejoin:miter;stroke-width:2;"/>
   </g>
   <g id="patch_12">
    <path clip-path="url(#pbcb817197e)" d="M 275.66131 92.437143 
L 309.42183 92.437143 
L 309.42183 11.258912 
L 275.66131 11.258912 
z
" style="fill:#96c69a;fill-opacity:0.5;stroke:#ffffff;stroke-linejoin:miter;stroke-width:2;"/>
   </g>
   <g id="patch_13">
    <path clip-path="url(#pbcb817197e)" d="M 309.42183 92.437143 
L 343.182349 92.437143 
L 343.182349 11.258912 
L 309.42183 11.258912 
z
" style="fill:#96c69a;fill-opacity:0.5;stroke:#ffffff;stroke-linejoin:miter;stroke-width:2;"/>
   </g>
   <g id="patch_14">
    <path clip-path="url(#pbcb817197e)" d="M 343.182349 92.437143 
L 376.942869 92.437143 
L 376.942869 11.258912 
L 343.182349 11.258912 
z
" style="fill:#96c69a;fill-opacity:0.5;stroke:#ffffff;stroke-linejoin:miter;stroke-width:2;"/>
   </g>
   <g id="patch_15">
    <path clip-path="url(#pbcb817197e)" d="M 376.942869 92.437143 
L 410.703388 92.437143 
L 410.703388 11.786043 
L 376.942869 11.786043 
z
" style="fill:#96c69a;fill-opacity:0.5;stroke:#ffffff;stroke-linejoin:miter;stroke-width:2;"/>
   </g>
   <g id="patch_16">
    <path clip-path="url(#pbcb817197e)" d="M 410.703388 92.437143 
L 444.463907 92.437143 
L 444.463907 11.258912 
L 410.703388 11.258912 
z
" style="fill:#96c69a;fill-opacity:0.5;stroke:#ffffff;stroke-linejoin:miter;stroke-width:2;"/>
   </g>
   <g id="patch_17">
    <path clip-path="url(#pbcb817197e)" d="M 444.463907 92.437143 
L 478.224427 92.437143 
L 478.224427 11.258912 
L 444.463907 11.258912 
z
" style="fill:#96c69a;fill-opacity:0.5;stroke:#ffffff;stroke-linejoin:miter;stroke-width:2;"/>
   </g>
   <g id="patch_18">
    <path clip-path="url(#pbcb817197e)" d="M 478.224427 92.437143 
L 511.984946 92.437143 
L 511.984946 11.258912 
L 478.224427 11.258912 
z
" style="fill:#96c69a;fill-opacity:0.5;stroke:#ffffff;stroke-linejoin:miter;stroke-width:2;"/>
   </g>
   <g id="patch_19">
    <path clip-path="url(#pbcb817197e)" d="M 511.984946 92.437143 
L 545.745466 92.437143 
L 545.745466 11.258912 
L 511.984946 11.258912 
z
" style="fill:#96c69a;fill-opacity:0.5;stroke:#ffffff;stroke-linejoin:miter;stroke-width:2;"/>
   </g>
   <g id="patch_20">
    <path d="M 84.914375 92.437143 
L 84.914375 7.2 
" style="fill:none;stroke:#262626;stroke-linecap:square;stroke-linejoin:miter;stroke-width:2.5;"/>
   </g>
   <g id="patch_21">
    <path d="M 84.914375 92.437143 
L 567.689804 92.437143 
" style="fill:none;stroke:#262626;stroke-linecap:square;stroke-linejoin:miter;stroke-width:2.5;"/>
   </g>
  </g>
  <g id="axes_3">
   <g id="patch_22">
    <path d="M 584.337232 603.86 
L 667.574375 603.86 
L 667.574375 109.484571 
L 584.337232 109.484571 
z
" style="fill:none;"/>
   </g>
   <g id="matplotlib.axis_5">
    <g id="xtick_13">
     <g id="text_18">
      <!-- 0 -->
      <g style="fill:#262626;" transform="translate(577.338482 636.076563)scale(0.22 -0.22)">
       <use xlink:href="#DejaVuSans-30"/>
      </g>
     </g>
    </g>
    <g id="xtick_14">
     <g id="text_19">
      <!-- 200 -->
      <g style="fill:#262626;" transform="translate(640.305516 636.076563)scale(0.22 -0.22)">
       <use xlink:href="#DejaVuSans-32"/>
       <use x="63.623047" xlink:href="#DejaVuSans-30"/>
       <use x="127.246094" xlink:href="#DejaVuSans-30"/>
      </g>
     </g>
    </g>
   </g>
   <g id="matplotlib.axis_6">
    <g id="ytick_8"/>
    <g id="ytick_9"/>
    <g id="ytick_10"/>
    <g id="ytick_11"/>
    <g id="ytick_12"/>
   </g>
   <g id="patch_23">
    <path clip-path="url(#p063364abda)" d="M 584.337232 581.38839 
L 587.415813 581.38839 
L 587.415813 569.561226 
L 584.337232 569.561226 
z
" style="fill:#96c69a;fill-opacity:0.5;stroke:#ffffff;stroke-linejoin:miter;stroke-width:1.182716;"/>
   </g>
   <g id="patch_24">
    <path clip-path="url(#p063364abda)" d="M 584.337232 569.561226 
L 596.651557 569.561226 
L 596.651557 557.734063 
L 584.337232 557.734063 
z
" style="fill:#96c69a;fill-opacity:0.5;stroke:#ffffff;stroke-linejoin:miter;stroke-width:1.182716;"/>
   </g>
   <g id="patch_25">
    <path clip-path="url(#p063364abda)" d="M 584.337232 557.734063 
L 610.120351 557.734063 
L 610.120351 545.9069 
L 584.337232 545.9069 
z
" style="fill:#96c69a;fill-opacity:0.5;stroke:#ffffff;stroke-linejoin:miter;stroke-width:1.182716;"/>
   </g>
   <g id="patch_26">
    <path clip-path="url(#p063364abda)" d="M 584.337232 545.9069 
L 625.89808 545.9069 
L 625.89808 534.079736 
L 584.337232 534.079736 
z
" style="fill:#96c69a;fill-opacity:0.5;stroke:#ffffff;stroke-linejoin:miter;stroke-width:1.182716;"/>
   </g>
   <g id="patch_27">
    <path clip-path="url(#p063364abda)" d="M 584.337232 534.079736 
L 642.060632 534.079736 
L 642.060632 522.252573 
L 584.337232 522.252573 
z
" style="fill:#96c69a;fill-opacity:0.5;stroke:#ffffff;stroke-linejoin:miter;stroke-width:1.182716;"/>
   </g>
   <g id="patch_28">
    <path clip-path="url(#p063364abda)" d="M 584.337232 522.252573 
L 645.908859 522.252573 
L 645.908859 510.425409 
L 584.337232 510.425409 
z
" style="fill:#96c69a;fill-opacity:0.5;stroke:#ffffff;stroke-linejoin:miter;stroke-width:1.182716;"/>
   </g>
   <g id="patch_29">
    <path clip-path="url(#p063364abda)" d="M 584.337232 510.425409 
L 653.605312 510.425409 
L 653.605312 498.598246 
L 584.337232 498.598246 
z
" style="fill:#96c69a;fill-opacity:0.5;stroke:#ffffff;stroke-linejoin:miter;stroke-width:1.182716;"/>
   </g>
   <g id="patch_30">
    <path clip-path="url(#p063364abda)" d="M 584.337232 498.598246 
L 663.610702 498.598246 
L 663.610702 486.771083 
L 584.337232 486.771083 
z
" style="fill:#96c69a;fill-opacity:0.5;stroke:#ffffff;stroke-linejoin:miter;stroke-width:1.182716;"/>
   </g>
   <g id="patch_31">
    <path clip-path="url(#p063364abda)" d="M 584.337232 486.771083 
L 649.372263 486.771083 
L 649.372263 474.943919 
L 584.337232 474.943919 
z
" style="fill:#96c69a;fill-opacity:0.5;stroke:#ffffff;stroke-linejoin:miter;stroke-width:1.182716;"/>
   </g>
   <g id="patch_32">
    <path clip-path="url(#p063364abda)" d="M 584.337232 474.943919 
L 645.139214 474.943919 
L 645.139214 463.116756 
L 584.337232 463.116756 
z
" style="fill:#96c69a;fill-opacity:0.5;stroke:#ffffff;stroke-linejoin:miter;stroke-width:1.182716;"/>
   </g>
   <g id="patch_33">
    <path clip-path="url(#p063364abda)" d="M 584.337232 463.116756 
L 630.515952 463.116756 
L 630.515952 451.289593 
L 584.337232 451.289593 
z
" style="fill:#96c69a;fill-opacity:0.5;stroke:#ffffff;stroke-linejoin:miter;stroke-width:1.182716;"/>
   </g>
   <g id="patch_34">
    <path clip-path="url(#p063364abda)" d="M 584.337232 451.289593 
L 630.13113 451.289593 
L 630.13113 439.462429 
L 584.337232 439.462429 
z
" style="fill:#96c69a;fill-opacity:0.5;stroke:#ffffff;stroke-linejoin:miter;stroke-width:1.182716;"/>
   </g>
   <g id="patch_35">
    <path clip-path="url(#p063364abda)" d="M 584.337232 439.462429 
L 623.589144 439.462429 
L 623.589144 427.635266 
L 584.337232 427.635266 
z
" style="fill:#96c69a;fill-opacity:0.5;stroke:#ffffff;stroke-linejoin:miter;stroke-width:1.182716;"/>
   </g>
   <g id="patch_36">
    <path clip-path="url(#p063364abda)" d="M 584.337232 427.635266 
L 615.892691 427.635266 
L 615.892691 415.808103 
L 584.337232 415.808103 
z
" style="fill:#96c69a;fill-opacity:0.5;stroke:#ffffff;stroke-linejoin:miter;stroke-width:1.182716;"/>
   </g>
   <g id="patch_37">
    <path clip-path="url(#p063364abda)" d="M 584.337232 415.808103 
L 607.811415 415.808103 
L 607.811415 403.980939 
L 584.337232 403.980939 
z
" style="fill:#96c69a;fill-opacity:0.5;stroke:#ffffff;stroke-linejoin:miter;stroke-width:1.182716;"/>
   </g>
   <g id="patch_38">
    <path clip-path="url(#p063364abda)" d="M 584.337232 403.980939 
L 602.80872 403.980939 
L 602.80872 392.153776 
L 584.337232 392.153776 
z
" style="fill:#96c69a;fill-opacity:0.5;stroke:#ffffff;stroke-linejoin:miter;stroke-width:1.182716;"/>
   </g>
   <g id="patch_39">
    <path clip-path="url(#p063364abda)" d="M 584.337232 392.153776 
L 603.578365 392.153776 
L 603.578365 380.326612 
L 584.337232 380.326612 
z
" style="fill:#96c69a;fill-opacity:0.5;stroke:#ffffff;stroke-linejoin:miter;stroke-width:1.182716;"/>
   </g>
   <g id="patch_40">
    <path clip-path="url(#p063364abda)" d="M 584.337232 380.326612 
L 600.114961 380.326612 
L 600.114961 368.499449 
L 584.337232 368.499449 
z
" style="fill:#96c69a;fill-opacity:0.5;stroke:#ffffff;stroke-linejoin:miter;stroke-width:1.182716;"/>
   </g>
   <g id="patch_41">
    <path clip-path="url(#p063364abda)" d="M 584.337232 368.499449 
L 594.727444 368.499449 
L 594.727444 356.672286 
L 584.337232 356.672286 
z
" style="fill:#96c69a;fill-opacity:0.5;stroke:#ffffff;stroke-linejoin:miter;stroke-width:1.182716;"/>
   </g>
   <g id="patch_42">
    <path clip-path="url(#p063364abda)" d="M 584.337232 356.672286 
L 592.803331 356.672286 
L 592.803331 344.845122 
L 584.337232 344.845122 
z
" style="fill:#96c69a;fill-opacity:0.5;stroke:#ffffff;stroke-linejoin:miter;stroke-width:1.182716;"/>
   </g>
   <g id="patch_43">
    <path clip-path="url(#p063364abda)" d="M 584.337232 344.845122 
L 593.957799 344.845122 
L 593.957799 333.017959 
L 584.337232 333.017959 
z
" style="fill:#96c69a;fill-opacity:0.5;stroke:#ffffff;stroke-linejoin:miter;stroke-width:1.182716;"/>
   </g>
   <g id="patch_44">
    <path clip-path="url(#p063364abda)" d="M 584.337232 333.017959 
L 592.033685 333.017959 
L 592.033685 321.190796 
L 584.337232 321.190796 
z
" style="fill:#96c69a;fill-opacity:0.5;stroke:#ffffff;stroke-linejoin:miter;stroke-width:1.182716;"/>
   </g>
   <g id="patch_45">
    <path clip-path="url(#p063364abda)" d="M 584.337232 321.190796 
L 588.185459 321.190796 
L 588.185459 309.363632 
L 584.337232 309.363632 
z
" style="fill:#96c69a;fill-opacity:0.5;stroke:#ffffff;stroke-linejoin:miter;stroke-width:1.182716;"/>
   </g>
   <g id="patch_46">
    <path clip-path="url(#p063364abda)" d="M 584.337232 309.363632 
L 588.570281 309.363632 
L 588.570281 297.536469 
L 584.337232 297.536469 
z
" style="fill:#96c69a;fill-opacity:0.5;stroke:#ffffff;stroke-linejoin:miter;stroke-width:1.182716;"/>
   </g>
   <g id="patch_47">
    <path clip-path="url(#p063364abda)" d="M 584.337232 297.536469 
L 586.646168 297.536469 
L 586.646168 285.709306 
L 584.337232 285.709306 
z
" style="fill:#96c69a;fill-opacity:0.5;stroke:#ffffff;stroke-linejoin:miter;stroke-width:1.182716;"/>
   </g>
   <g id="patch_48">
    <path clip-path="url(#p063364abda)" d="M 584.337232 285.709306 
L 585.106877 285.709306 
L 585.106877 273.882142 
L 584.337232 273.882142 
z
" style="fill:#96c69a;fill-opacity:0.5;stroke:#ffffff;stroke-linejoin:miter;stroke-width:1.182716;"/>
   </g>
   <g id="patch_49">
    <path clip-path="url(#p063364abda)" d="M 584.337232 273.882142 
L 585.4917 273.882142 
L 585.4917 262.054979 
L 584.337232 262.054979 
z
" style="fill:#96c69a;fill-opacity:0.5;stroke:#ffffff;stroke-linejoin:miter;stroke-width:1.182716;"/>
   </g>
   <g id="patch_50">
    <path clip-path="url(#p063364abda)" d="M 584.337232 262.054979 
L 585.876523 262.054979 
L 585.876523 250.227815 
L 584.337232 250.227815 
z
" style="fill:#96c69a;fill-opacity:0.5;stroke:#ffffff;stroke-linejoin:miter;stroke-width:1.182716;"/>
   </g>
   <g id="patch_51">
    <path clip-path="url(#p063364abda)" d="M 584.337232 250.227815 
L 584.722055 250.227815 
L 584.722055 238.400652 
L 584.337232 238.400652 
z
" style="fill:#96c69a;fill-opacity:0.5;stroke:#ffffff;stroke-linejoin:miter;stroke-width:1.182716;"/>
   </g>
   <g id="patch_52">
    <path clip-path="url(#p063364abda)" d="M 584.337232 238.400652 
L 584.722055 238.400652 
L 584.722055 226.573489 
L 584.337232 226.573489 
z
" style="fill:#96c69a;fill-opacity:0.5;stroke:#ffffff;stroke-linejoin:miter;stroke-width:1.182716;"/>
   </g>
   <g id="patch_53">
    <path clip-path="url(#p063364abda)" d="M 584.337232 226.573489 
L 585.106877 226.573489 
L 585.106877 214.746325 
L 584.337232 214.746325 
z
" style="fill:#96c69a;fill-opacity:0.5;stroke:#ffffff;stroke-linejoin:miter;stroke-width:1.182716;"/>
   </g>
   <g id="patch_54">
    <path clip-path="url(#p063364abda)" d="M 584.337232 214.746325 
L 585.4917 214.746325 
L 585.4917 202.919162 
L 584.337232 202.919162 
z
" style="fill:#96c69a;fill-opacity:0.5;stroke:#ffffff;stroke-linejoin:miter;stroke-width:1.182716;"/>
   </g>
   <g id="patch_55">
    <path clip-path="url(#p063364abda)" d="M 584.337232 202.919162 
L 584.722055 202.919162 
L 584.722055 191.091999 
L 584.337232 191.091999 
z
" style="fill:#96c69a;fill-opacity:0.5;stroke:#ffffff;stroke-linejoin:miter;stroke-width:1.182716;"/>
   </g>
   <g id="patch_56">
    <path clip-path="url(#p063364abda)" d="M 584.337232 191.091999 
L 584.337232 191.091999 
L 584.337232 179.264835 
L 584.337232 179.264835 
z
" style="fill:#96c69a;fill-opacity:0.5;stroke:#ffffff;stroke-linejoin:miter;stroke-width:1.182716;"/>
   </g>
   <g id="patch_57">
    <path clip-path="url(#p063364abda)" d="M 584.337232 179.264835 
L 584.337232 179.264835 
L 584.337232 167.437672 
L 584.337232 167.437672 
z
" style="fill:#96c69a;fill-opacity:0.5;stroke:#ffffff;stroke-linejoin:miter;stroke-width:1.182716;"/>
   </g>
   <g id="patch_58">
    <path clip-path="url(#p063364abda)" d="M 584.337232 167.437672 
L 584.337232 167.437672 
L 584.337232 155.610509 
L 584.337232 155.610509 
z
" style="fill:#96c69a;fill-opacity:0.5;stroke:#ffffff;stroke-linejoin:miter;stroke-width:1.182716;"/>
   </g>
   <g id="patch_59">
    <path clip-path="url(#p063364abda)" d="M 584.337232 155.610509 
L 584.337232 155.610509 
L 584.337232 143.783345 
L 584.337232 143.783345 
z
" style="fill:#96c69a;fill-opacity:0.5;stroke:#ffffff;stroke-linejoin:miter;stroke-width:1.182716;"/>
   </g>
   <g id="patch_60">
    <path clip-path="url(#p063364abda)" d="M 584.337232 143.783345 
L 584.722055 143.783345 
L 584.722055 131.956182 
L 584.337232 131.956182 
z
" style="fill:#96c69a;fill-opacity:0.5;stroke:#ffffff;stroke-linejoin:miter;stroke-width:1.182716;"/>
   </g>
   <g id="patch_61">
    <path d="M 584.337232 603.86 
L 584.337232 109.484571 
" style="fill:none;stroke:#262626;stroke-linecap:square;stroke-linejoin:miter;stroke-width:2.5;"/>
   </g>
   <g id="patch_62">
    <path d="M 584.337232 603.86 
L 667.574375 603.86 
" style="fill:none;stroke:#262626;stroke-linecap:square;stroke-linejoin:miter;stroke-width:2.5;"/>
   </g>
  </g>
 </g>
 <defs>
  <clipPath id="pc0a25a0d18">
   <rect height="494.375429" width="482.775429" x="84.914375" y="109.484571"/>
  </clipPath>
  <clipPath id="pbcb817197e">
   <rect height="85.237143" width="482.775429" x="84.914375" y="7.2"/>
  </clipPath>
  <clipPath id="p063364abda">
   <rect height="494.375429" width="83.237143" x="584.337232" y="109.484571"/>
  </clipPath>
 </defs>
</svg>
