<?xml version="1.0" encoding="utf-8" standalone="no"?>
<!DOCTYPE svg PUBLIC "-//W3C//DTD SVG 1.1//EN"
  "http://www.w3.org/Graphics/SVG/1.1/DTD/svg11.dtd">
<svg height="675.079375pt" version="1.1" viewBox="0 0 674.774375 675.079375" width="674.774375pt" xmlns="http://www.w3.org/2000/svg" xmlns:xlink="http://www.w3.org/1999/xlink">
 <metadata>
  <rdf:RDF xmlns:cc="http://creativecommons.org/ns#" xmlns:dc="http://purl.org/dc/elements/1.1/" xmlns:rdf="http://www.w3.org/1999/02/22-rdf-syntax-ns#">
   <cc:Work>
    <dc:type rdf:resource="http://purl.org/dc/dcmitype/StillImage"/>
    <dc:date>2021-07-16T21:44:08.678726</dc:date>
    <dc:format>image/svg+xml</dc:format>
    <dc:creator>
     <cc:Agent>
      <dc:title>Matplotlib v3.4.2, https://matplotlib.org/</dc:title>
     </cc:Agent>
    </dc:creator>
   </cc:Work>
  </rdf:RDF>
 </metadata>
 <defs>
  <style type="text/css">*{stroke-linecap:butt;stroke-linejoin:round;}</style>
 </defs>
 <g id="figure_1">
  <g id="patch_1">
   <path d="M 0 675.079375 
L 674.774375 675.079375 
L 674.774375 0 
L 0 0 
z
" style="fill:#ffffff;"/>
  </g>
  <g id="axes_1">
   <g id="patch_2">
    <path d="M 84.914375 603.86 
L 567.689804 603.86 
L 567.689804 109.484571 
L 84.914375 109.484571 
z
" style="fill:none;"/>
   </g>
   <g id="matplotlib.axis_1">
    <g id="xtick_1">
     <g id="text_1">
      <!-- 0 -->
      <g style="fill:#262626;" transform="translate(99.64041 636.076563)scale(0.22 -0.22)">
       <defs>
        <path d="M 2034 4250 
Q 1547 4250 1301 3770 
Q 1056 3291 1056 2328 
Q 1056 1369 1301 889 
Q 1547 409 2034 409 
Q 2525 409 2770 889 
Q 3016 1369 3016 2328 
Q 3016 3291 2770 3770 
Q 2525 4250 2034 4250 
z
M 2034 4750 
Q 2819 4750 3233 4129 
Q 3647 3509 3647 2328 
Q 3647 1150 3233 529 
Q 2819 -91 2034 -91 
Q 1250 -91 836 529 
Q 422 1150 422 2328 
Q 422 3509 836 4129 
Q 1250 4750 2034 4750 
z
" id="DejaVuSans-30" transform="scale(0.015625)"/>
       </defs>
       <use xlink:href="#DejaVuSans-30"/>
      </g>
     </g>
    </g>
    <g id="xtick_2">
     <g id="text_2">
      <!-- 20000 -->
      <g style="fill:#262626;" transform="translate(159.466671 636.076563)scale(0.22 -0.22)">
       <defs>
        <path d="M 1228 531 
L 3431 531 
L 3431 0 
L 469 0 
L 469 531 
Q 828 903 1448 1529 
Q 2069 2156 2228 2338 
Q 2531 2678 2651 2914 
Q 2772 3150 2772 3378 
Q 2772 3750 2511 3984 
Q 2250 4219 1831 4219 
Q 1534 4219 1204 4116 
Q 875 4013 500 3803 
L 500 4441 
Q 881 4594 1212 4672 
Q 1544 4750 1819 4750 
Q 2544 4750 2975 4387 
Q 3406 4025 3406 3419 
Q 3406 3131 3298 2873 
Q 3191 2616 2906 2266 
Q 2828 2175 2409 1742 
Q 1991 1309 1228 531 
z
" id="DejaVuSans-32" transform="scale(0.015625)"/>
       </defs>
       <use xlink:href="#DejaVuSans-32"/>
       <use x="63.623047" xlink:href="#DejaVuSans-30"/>
       <use x="127.246094" xlink:href="#DejaVuSans-30"/>
       <use x="190.869141" xlink:href="#DejaVuSans-30"/>
       <use x="254.492188" xlink:href="#DejaVuSans-30"/>
      </g>
     </g>
    </g>
    <g id="xtick_3">
     <g id="text_3">
      <!-- 40000 -->
      <g style="fill:#262626;" transform="translate(247.287932 636.076563)scale(0.22 -0.22)">
       <defs>
        <path d="M 2419 4116 
L 825 1625 
L 2419 1625 
L 2419 4116 
z
M 2253 4666 
L 3047 4666 
L 3047 1625 
L 3713 1625 
L 3713 1100 
L 3047 1100 
L 3047 0 
L 2419 0 
L 2419 1100 
L 313 1100 
L 313 1709 
L 2253 4666 
z
" id="DejaVuSans-34" transform="scale(0.015625)"/>
       </defs>
       <use xlink:href="#DejaVuSans-34"/>
       <use x="63.623047" xlink:href="#DejaVuSans-30"/>
       <use x="127.246094" xlink:href="#DejaVuSans-30"/>
       <use x="190.869141" xlink:href="#DejaVuSans-30"/>
       <use x="254.492188" xlink:href="#DejaVuSans-30"/>
      </g>
     </g>
    </g>
    <g id="xtick_4">
     <g id="text_4">
      <!-- 60000 -->
      <g style="fill:#262626;" transform="translate(335.109193 636.076563)scale(0.22 -0.22)">
       <defs>
        <path d="M 2113 2584 
Q 1688 2584 1439 2293 
Q 1191 2003 1191 1497 
Q 1191 994 1439 701 
Q 1688 409 2113 409 
Q 2538 409 2786 701 
Q 3034 994 3034 1497 
Q 3034 2003 2786 2293 
Q 2538 2584 2113 2584 
z
M 3366 4563 
L 3366 3988 
Q 3128 4100 2886 4159 
Q 2644 4219 2406 4219 
Q 1781 4219 1451 3797 
Q 1122 3375 1075 2522 
Q 1259 2794 1537 2939 
Q 1816 3084 2150 3084 
Q 2853 3084 3261 2657 
Q 3669 2231 3669 1497 
Q 3669 778 3244 343 
Q 2819 -91 2113 -91 
Q 1303 -91 875 529 
Q 447 1150 447 2328 
Q 447 3434 972 4092 
Q 1497 4750 2381 4750 
Q 2619 4750 2861 4703 
Q 3103 4656 3366 4563 
z
" id="DejaVuSans-36" transform="scale(0.015625)"/>
       </defs>
       <use xlink:href="#DejaVuSans-36"/>
       <use x="63.623047" xlink:href="#DejaVuSans-30"/>
       <use x="127.246094" xlink:href="#DejaVuSans-30"/>
       <use x="190.869141" xlink:href="#DejaVuSans-30"/>
       <use x="254.492188" xlink:href="#DejaVuSans-30"/>
      </g>
     </g>
    </g>
    <g id="xtick_5">
     <g id="text_5">
      <!-- 80000 -->
      <g style="fill:#262626;" transform="translate(422.930455 636.076563)scale(0.22 -0.22)">
       <defs>
        <path d="M 2034 2216 
Q 1584 2216 1326 1975 
Q 1069 1734 1069 1313 
Q 1069 891 1326 650 
Q 1584 409 2034 409 
Q 2484 409 2743 651 
Q 3003 894 3003 1313 
Q 3003 1734 2745 1975 
Q 2488 2216 2034 2216 
z
M 1403 2484 
Q 997 2584 770 2862 
Q 544 3141 544 3541 
Q 544 4100 942 4425 
Q 1341 4750 2034 4750 
Q 2731 4750 3128 4425 
Q 3525 4100 3525 3541 
Q 3525 3141 3298 2862 
Q 3072 2584 2669 2484 
Q 3125 2378 3379 2068 
Q 3634 1759 3634 1313 
Q 3634 634 3220 271 
Q 2806 -91 2034 -91 
Q 1263 -91 848 271 
Q 434 634 434 1313 
Q 434 1759 690 2068 
Q 947 2378 1403 2484 
z
M 1172 3481 
Q 1172 3119 1398 2916 
Q 1625 2713 2034 2713 
Q 2441 2713 2670 2916 
Q 2900 3119 2900 3481 
Q 2900 3844 2670 4047 
Q 2441 4250 2034 4250 
Q 1625 4250 1398 4047 
Q 1172 3844 1172 3481 
z
" id="DejaVuSans-38" transform="scale(0.015625)"/>
       </defs>
       <use xlink:href="#DejaVuSans-38"/>
       <use x="63.623047" xlink:href="#DejaVuSans-30"/>
       <use x="127.246094" xlink:href="#DejaVuSans-30"/>
       <use x="190.869141" xlink:href="#DejaVuSans-30"/>
       <use x="254.492188" xlink:href="#DejaVuSans-30"/>
      </g>
     </g>
    </g>
    <g id="xtick_6">
     <g id="text_6">
      <!-- 100000 -->
      <g style="fill:#262626;" transform="translate(503.752966 636.076563)scale(0.22 -0.22)">
       <defs>
        <path d="M 794 531 
L 1825 531 
L 1825 4091 
L 703 3866 
L 703 4441 
L 1819 4666 
L 2450 4666 
L 2450 531 
L 3481 531 
L 3481 0 
L 794 0 
L 794 531 
z
" id="DejaVuSans-31" transform="scale(0.015625)"/>
       </defs>
       <use xlink:href="#DejaVuSans-31"/>
       <use x="63.623047" xlink:href="#DejaVuSans-30"/>
       <use x="127.246094" xlink:href="#DejaVuSans-30"/>
       <use x="190.869141" xlink:href="#DejaVuSans-30"/>
       <use x="254.492188" xlink:href="#DejaVuSans-30"/>
       <use x="318.115234" xlink:href="#DejaVuSans-30"/>
      </g>
     </g>
    </g>
    <g id="text_7">
     <!-- MDTU -->
     <g style="fill:#262626;" transform="translate(290.596464 662.888125)scale(0.24 -0.24)">
      <defs>
       <path d="M 628 4666 
L 1569 4666 
L 2759 1491 
L 3956 4666 
L 4897 4666 
L 4897 0 
L 4281 0 
L 4281 4097 
L 3078 897 
L 2444 897 
L 1241 4097 
L 1241 0 
L 628 0 
L 628 4666 
z
" id="DejaVuSans-4d" transform="scale(0.015625)"/>
       <path d="M 1259 4147 
L 1259 519 
L 2022 519 
Q 2988 519 3436 956 
Q 3884 1394 3884 2338 
Q 3884 3275 3436 3711 
Q 2988 4147 2022 4147 
L 1259 4147 
z
M 628 4666 
L 1925 4666 
Q 3281 4666 3915 4102 
Q 4550 3538 4550 2338 
Q 4550 1131 3912 565 
Q 3275 0 1925 0 
L 628 0 
L 628 4666 
z
" id="DejaVuSans-44" transform="scale(0.015625)"/>
       <path d="M -19 4666 
L 3928 4666 
L 3928 4134 
L 2272 4134 
L 2272 0 
L 1638 0 
L 1638 4134 
L -19 4134 
L -19 4666 
z
" id="DejaVuSans-54" transform="scale(0.015625)"/>
       <path d="M 556 4666 
L 1191 4666 
L 1191 1831 
Q 1191 1081 1462 751 
Q 1734 422 2344 422 
Q 2950 422 3222 751 
Q 3494 1081 3494 1831 
L 3494 4666 
L 4128 4666 
L 4128 1753 
Q 4128 841 3676 375 
Q 3225 -91 2344 -91 
Q 1459 -91 1007 375 
Q 556 841 556 1753 
L 556 4666 
z
" id="DejaVuSans-55" transform="scale(0.015625)"/>
      </defs>
      <use xlink:href="#DejaVuSans-4d"/>
      <use x="86.279297" xlink:href="#DejaVuSans-44"/>
      <use x="163.28125" xlink:href="#DejaVuSans-54"/>
      <use x="224.365234" xlink:href="#DejaVuSans-55"/>
     </g>
    </g>
   </g>
   <g id="matplotlib.axis_2">
    <g id="ytick_1">
     <g id="text_8">
      <!-- 0.4 -->
      <g style="fill:#262626;" transform="translate(34.4275 545.127852)scale(0.22 -0.22)">
       <defs>
        <path d="M 684 794 
L 1344 794 
L 1344 0 
L 684 0 
L 684 794 
z
" id="DejaVuSans-2e" transform="scale(0.015625)"/>
       </defs>
       <use xlink:href="#DejaVuSans-30"/>
       <use x="63.623047" xlink:href="#DejaVuSans-2e"/>
       <use x="95.410156" xlink:href="#DejaVuSans-34"/>
      </g>
     </g>
    </g>
    <g id="ytick_2">
     <g id="text_9">
      <!-- 0.6 -->
      <g style="fill:#262626;" transform="translate(34.4275 477.801927)scale(0.22 -0.22)">
       <use xlink:href="#DejaVuSans-30"/>
       <use x="63.623047" xlink:href="#DejaVuSans-2e"/>
       <use x="95.410156" xlink:href="#DejaVuSans-36"/>
      </g>
     </g>
    </g>
    <g id="ytick_3">
     <g id="text_10">
      <!-- 0.8 -->
      <g style="fill:#262626;" transform="translate(34.4275 410.476003)scale(0.22 -0.22)">
       <use xlink:href="#DejaVuSans-30"/>
       <use x="63.623047" xlink:href="#DejaVuSans-2e"/>
       <use x="95.410156" xlink:href="#DejaVuSans-38"/>
      </g>
     </g>
    </g>
    <g id="ytick_4">
     <g id="text_11">
      <!-- 1.0 -->
      <g style="fill:#262626;" transform="translate(34.4275 343.150078)scale(0.22 -0.22)">
       <use xlink:href="#DejaVuSans-31"/>
       <use x="63.623047" xlink:href="#DejaVuSans-2e"/>
       <use x="95.410156" xlink:href="#DejaVuSans-30"/>
      </g>
     </g>
    </g>
    <g id="ytick_5">
     <g id="text_12">
      <!-- 1.2 -->
      <g style="fill:#262626;" transform="translate(34.4275 275.824153)scale(0.22 -0.22)">
       <use xlink:href="#DejaVuSans-31"/>
       <use x="63.623047" xlink:href="#DejaVuSans-2e"/>
       <use x="95.410156" xlink:href="#DejaVuSans-32"/>
      </g>
     </g>
    </g>
    <g id="ytick_6">
     <g id="text_13">
      <!-- 1.4 -->
      <g style="fill:#262626;" transform="translate(34.4275 208.498228)scale(0.22 -0.22)">
       <use xlink:href="#DejaVuSans-31"/>
       <use x="63.623047" xlink:href="#DejaVuSans-2e"/>
       <use x="95.410156" xlink:href="#DejaVuSans-34"/>
      </g>
     </g>
    </g>
    <g id="ytick_7">
     <g id="text_14">
      <!-- 1.6 -->
      <g style="fill:#262626;" transform="translate(34.4275 141.172303)scale(0.22 -0.22)">
       <use xlink:href="#DejaVuSans-31"/>
       <use x="63.623047" xlink:href="#DejaVuSans-2e"/>
       <use x="95.410156" xlink:href="#DejaVuSans-36"/>
      </g>
     </g>
    </g>
    <g id="text_15">
     <!-- $E$ -->
     <g style="fill:#262626;" transform="translate(25.43625 364.352286)rotate(-90)scale(0.24 -0.24)">
      <defs>
       <path d="M 1081 4666 
L 4031 4666 
L 3928 4134 
L 1606 4134 
L 1338 2753 
L 3566 2753 
L 3463 2222 
L 1234 2222 
L 909 531 
L 3284 531 
L 3181 0 
L 172 0 
L 1081 4666 
z
" id="DejaVuSans-Oblique-45" transform="scale(0.015625)"/>
      </defs>
      <use transform="translate(0 0.09375)" xlink:href="#DejaVuSans-Oblique-45"/>
     </g>
    </g>
   </g>
   <g id="line2d_1">
    <path clip-path="url(#p087f13e991)" d="M 106.858713 454.346028 
L 107.078266 441.778785 
L 107.297819 393.70234 
L 107.517372 405.176487 
L 107.736925 526.695362 
L 108.176032 351.116452 
L 108.395585 441.511207 
L 108.615138 390.781675 
L 108.834691 405.491222 
L 109.054244 382.074343 
L 109.273797 438.390874 
L 109.493351 416.304146 
L 109.712904 497.864052 
L 109.932457 363.497382 
L 110.15201 403.77903 
L 110.371563 380.296858 
L 110.591116 436.922929 
L 110.810669 426.216743 
L 111.249776 512.847505 
L 111.469329 409.220792 
L 111.688882 442.461047 
L 111.908435 509.947849 
L 112.127988 381.093289 
L 112.347541 441.532052 
L 112.567095 448.809335 
L 112.786648 449.21868 
L 113.006201 448.548986 
L 113.225754 378.153045 
L 113.445307 375.320632 
L 113.884414 515.642329 
L 114.103967 380.761714 
L 114.32352 427.167111 
L 114.543073 346.138701 
L 114.762626 356.523478 
L 114.982179 441.61641 
L 115.201732 356.366242 
L 115.421286 402.721004 
L 115.640839 396.21103 
L 115.860392 471.92805 
L 116.079945 389.238338 
L 116.299498 409.812319 
L 116.519051 355.528256 
L 116.738605 402.685106 
L 116.958158 319.641259 
L 117.177711 431.561279 
L 117.397264 373.561315 
L 117.616817 401.795697 
L 117.83637 375.750544 
L 118.055923 380.852135 
L 118.275477 476.967936 
L 118.49503 323.540078 
L 118.714583 475.493797 
L 118.934136 476.115458 
L 119.153689 331.914862 
L 119.373242 371.088256 
L 119.592796 384.932809 
L 119.812349 359.385358 
L 120.031902 407.152901 
L 120.251455 409.611088 
L 120.471008 324.597768 
L 120.690561 373.060585 
L 120.910114 497.504211 
L 121.349221 268.021322 
L 121.568774 543.15544 
L 122.00788 386.954796 
L 122.227433 509.354716 
L 122.66654 251.652989 
L 122.886093 417.605783 
L 123.105646 310.422371 
L 123.325199 392.462684 
L 123.544752 366.820763 
L 123.764305 470.783732 
L 124.203412 413.63763 
L 124.422965 378.53541 
L 124.642518 382.420757 
L 124.862071 513.748403 
L 125.081624 412.730263 
L 125.301178 412.741393 
L 125.520731 510.12 
L 125.740284 256.135182 
L 125.959837 293.038925 
L 126.17939 453.507493 
L 126.398943 382.958037 
L 126.618496 348.885245 
L 126.83805 487.762229 
L 127.057603 395.914744 
L 127.277156 453.506922 
L 127.496709 477.937432 
L 128.155369 370.463308 
L 128.374922 260.329792 
L 128.814028 499.209743 
L 129.033581 297.827262 
L 129.253134 364.889225 
L 129.472687 385.045321 
L 129.692241 437.798707 
L 129.911794 411.533847 
L 130.131347 371.09554 
L 130.3509 435.915869 
L 130.570453 414.351371 
L 130.790006 404.87623 
L 131.00956 524.840644 
L 131.229113 328.314941 
L 131.668219 528.206504 
L 131.887772 484.64842 
L 132.107325 328.340127 
L 132.546432 488.794009 
L 132.765985 455.462181 
L 133.205091 273.301216 
L 133.424644 531.331211 
L 133.863751 408.071229 
L 134.083304 401.698131 
L 134.302857 481.890052 
L 134.52241 487.635199 
L 134.741963 399.936234 
L 134.961516 382.586857 
L 135.400623 483.204232 
L 135.620176 368.736561 
L 136.059282 452.45562 
L 136.278835 398.85341 
L 136.498388 481.175024 
L 136.717941 423.07826 
L 136.937495 473.598024 
L 137.157048 398.380016 
L 137.376601 511.965261 
L 137.596154 486.7264 
L 137.815707 410.915863 
L 138.03526 467.554876 
L 138.254814 401.694026 
L 138.474367 455.218453 
L 138.69392 440.80175 
L 138.913473 477.340256 
L 139.133026 451.973204 
L 139.352579 484.983282 
L 139.572132 467.339681 
L 139.791686 341.736704 
L 140.011239 448.852432 
L 140.230792 351.553002 
L 140.450345 361.255045 
L 140.669898 443.398374 
L 140.889451 440.774318 
L 141.328558 275.727531 
L 141.548111 410.613108 
L 141.767664 365.31892 
L 141.987217 345.183777 
L 142.20677 292.2847 
L 142.426323 477.340315 
L 142.645877 405.226644 
L 142.86543 438.423366 
L 143.084983 332.385208 
L 143.304536 477.85824 
L 143.524089 189.76122 
L 143.743642 363.313918 
L 143.963196 365.17499 
L 144.182749 464.600119 
L 144.402302 432.230772 
L 144.621855 244.418517 
L 144.841408 399.373008 
L 145.060961 444.204907 
L 145.280514 363.614042 
L 145.500068 480.202933 
L 145.719621 398.572704 
L 145.939174 379.568972 
L 146.158727 478.219783 
L 146.37828 365.206084 
L 146.597833 448.836107 
L 146.817387 452.096049 
L 147.03694 517.634473 
L 147.256493 473.435433 
L 147.476046 346.330798 
L 147.695599 368.142255 
L 147.915152 438.355807 
L 148.134705 374.645414 
L 148.354259 423.747681 
L 148.573812 430.986579 
L 148.793365 388.312424 
L 149.012918 373.976592 
L 149.452024 487.490663 
L 149.671578 317.453357 
L 149.891131 392.832202 
L 150.110684 403.096932 
L 150.330237 352.643756 
L 150.54979 420.605206 
L 150.769343 443.545622 
L 150.988896 442.156804 
L 151.20845 445.196338 
L 151.428003 254.612525 
L 151.647556 450.779786 
L 151.867109 470.774389 
L 152.086662 423.321222 
L 152.306215 440.684376 
L 152.525769 343.4981 
L 152.964875 507.364543 
L 153.184428 360.543089 
L 153.403981 530.352366 
L 153.623534 422.961322 
L 153.843087 444.797643 
L 154.062641 495.661945 
L 154.282194 440.771225 
L 154.501747 297.230758 
L 154.940853 379.226219 
L 155.160406 301.963041 
L 155.37996 469.478278 
L 155.599513 496.649309 
L 155.819066 397.310916 
L 156.038619 447.39885 
L 156.258172 394.532237 
L 156.477725 164.841298 
L 156.697278 463.907115 
L 156.916832 290.806951 
L 157.136385 444.044789 
L 157.575491 371.643894 
L 157.795044 517.43427 
L 158.014597 505.090189 
L 158.234151 452.771418 
L 158.453704 466.769857 
L 158.673257 442.453279 
L 158.89281 498.417991 
L 159.112363 385.458002 
L 159.331916 468.399062 
L 159.551469 280.287053 
L 159.771023 409.172935 
L 159.990576 395.344406 
L 160.210129 394.548242 
L 160.429682 471.158278 
L 161.088342 343.974471 
L 161.307895 470.812057 
L 161.527448 425.370097 
L 161.747001 437.757577 
L 161.966554 357.856714 
L 162.186107 485.405105 
L 162.844767 443.504819 
L 163.06432 502.868324 
L 163.283873 499.269944 
L 163.503426 309.886665 
L 163.722979 337.067976 
L 163.942532 505.233147 
L 164.162086 448.129196 
L 164.381639 474.183189 
L 164.601192 441.876571 
L 164.820745 352.413385 
L 165.040298 478.350629 
L 165.259851 336.357085 
L 165.479405 496.663365 
L 165.698958 277.901571 
L 165.918511 388.012553 
L 166.138064 361.906443 
L 166.357617 199.325961 
L 166.57717 375.948235 
L 166.796723 317.171862 
L 167.016277 495.171862 
L 167.23583 353.241516 
L 167.455383 291.614385 
L 167.674936 448.893545 
L 167.894489 431.096224 
L 168.114042 431.509977 
L 168.333596 329.18969 
L 168.553149 491.522786 
L 168.772702 368.338081 
L 168.992255 323.724151 
L 169.211808 446.073296 
L 169.650914 483.067038 
L 169.870468 287.322722 
L 170.090021 442.346881 
L 170.309574 471.524168 
L 170.529127 419.893085 
L 170.74868 425.440699 
L 170.968233 506.786586 
L 171.187787 351.230744 
L 171.40734 418.994849 
L 171.626893 218.084862 
L 171.846446 424.554866 
L 172.065999 466.534031 
L 172.285552 297.294858 
L 172.724659 453.268815 
L 172.944212 468.392749 
L 173.163765 498.684165 
L 173.383318 477.329277 
L 173.602871 395.824028 
L 173.822424 364.110962 
L 174.041978 417.905747 
L 174.261531 428.992862 
L 174.481084 146.205476 
L 174.700637 303.365475 
L 174.92019 368.790761 
L 175.139743 482.561294 
L 175.359296 485.484317 
L 175.57885 333.113947 
L 175.798403 347.518629 
L 176.017956 457.507823 
L 176.237509 418.659373 
L 176.457062 533.513494 
L 177.115722 331.837927 
L 177.554828 407.226649 
L 177.774381 415.124091 
L 177.993934 377.911436 
L 178.213487 383.448599 
L 178.433041 427.829002 
L 178.652594 409.275346 
L 178.872147 421.275096 
L 179.0917 393.624649 
L 179.311253 331.881073 
L 179.530806 504.158096 
L 179.75036 484.611061 
L 180.189466 408.925274 
L 180.409019 442.872118 
L 180.628572 359.306863 
L 180.848125 407.548277 
L 181.067678 326.876914 
L 181.287232 374.160575 
L 181.506785 447.190564 
L 181.726338 471.921616 
L 182.165444 462.257997 
L 182.384997 319.633168 
L 182.604551 496.674785 
L 182.824104 416.356918 
L 183.043657 382.930342 
L 183.26321 380.693705 
L 183.482763 382.758616 
L 183.702316 264.219874 
L 183.921869 439.854361 
L 184.141423 415.310864 
L 184.360976 403.921369 
L 184.800082 397.516199 
L 185.019635 453.999 
L 185.239188 432.138663 
L 185.458742 380.273859 
L 185.678295 442.948536 
L 186.556507 267.359014 
L 186.77606 483.498614 
L 186.995614 464.464677 
L 187.43472 482.911115 
L 187.654273 463.371431 
L 187.873826 407.424089 
L 188.093379 418.51404 
L 188.312932 362.538342 
L 188.532486 425.525025 
L 188.752039 443.974006 
L 188.971592 437.705481 
L 189.191145 445.720871 
L 189.410698 445.897849 
L 189.630251 414.857186 
L 189.849805 461.205156 
L 190.069358 388.470807 
L 190.288911 464.832758 
L 190.508464 399.558388 
L 190.728017 472.768675 
L 190.94757 420.765709 
L 191.167123 332.52883 
L 191.60623 467.274824 
L 191.825783 390.47084 
L 192.045336 503.369736 
L 192.264889 432.794874 
L 192.484442 310.02156 
L 192.923549 497.99473 
L 193.143102 404.933456 
L 193.362655 389.296193 
L 193.582208 395.817785 
L 193.801761 425.488212 
L 194.021314 510.265732 
L 194.460421 355.051067 
L 194.679974 197.855933 
L 194.899527 364.180716 
L 195.11908 434.001738 
L 195.338633 312.924 
L 195.558187 486.429138 
L 195.997293 453.347094 
L 196.216846 322.832561 
L 196.436399 473.962882 
L 196.655952 474.742615 
L 196.875505 480.580417 
L 197.095059 343.793701 
L 197.314612 425.953063 
L 197.534165 303.970222 
L 197.753718 358.344482 
L 197.973271 443.71329 
L 198.192824 334.328731 
L 198.412378 482.167027 
L 198.631931 540.837716 
L 198.851484 322.471093 
L 199.071037 460.345396 
L 199.510143 378.577478 
L 199.729696 436.865834 
L 199.94925 460.560052 
L 200.168803 455.065658 
L 200.388356 420.718098 
L 200.607909 353.355098 
L 200.827462 451.013048 
L 201.047015 458.183173 
L 201.266569 498.614712 
L 201.705675 410.34998 
L 201.925228 524.860129 
L 202.144781 360.114319 
L 202.583887 443.671504 
L 202.803441 430.982612 
L 203.022994 475.754884 
L 203.242547 464.778889 
L 203.4621 433.029609 
L 203.681653 428.020207 
L 203.901206 410.361155 
L 204.12076 324.728609 
L 204.559866 499.248158 
L 204.779419 385.918079 
L 205.218525 449.531552 
L 205.438078 431.300527 
L 205.657632 315.078079 
L 205.877185 436.669123 
L 206.096738 348.273316 
L 206.316291 503.697245 
L 206.535844 412.573231 
L 206.755397 248.659988 
L 206.974951 454.994735 
L 207.194504 478.414362 
L 207.414057 337.70416 
L 207.63361 390.683139 
L 207.853163 389.171076 
L 208.072716 362.032357 
L 208.292269 417.782642 
L 208.511823 411.943116 
L 208.731376 452.809684 
L 208.950929 467.925808 
L 209.170482 451.308367 
L 209.390035 333.242893 
L 209.609588 372.801564 
L 209.829142 469.907652 
L 210.048695 467.890708 
L 210.268248 419.271037 
L 210.487801 430.609256 
L 210.707354 410.672569 
L 210.926907 376.20838 
L 211.14646 465.167674 
L 211.366014 391.058209 
L 211.585567 438.839352 
L 211.80512 405.26526 
L 212.024673 463.617803 
L 212.244226 386.006308 
L 212.463779 482.365475 
L 212.683333 467.637043 
L 212.902886 426.902394 
L 213.122439 332.677235 
L 213.341992 552.264804 
L 213.561545 503.378852 
L 213.781098 491.581269 
L 214.000651 358.596256 
L 214.220205 475.162218 
L 214.659311 363.363125 
L 214.878864 426.991119 
L 215.098417 430.928427 
L 215.31797 386.270769 
L 215.757077 516.246569 
L 215.97663 450.746726 
L 216.196183 433.641859 
L 216.415736 450.53379 
L 216.635289 383.897019 
L 216.854842 254.768618 
L 217.074396 440.537386 
L 217.293949 456.371376 
L 217.513502 487.512386 
L 217.733055 487.848766 
L 217.952608 483.302989 
L 218.391714 238.433223 
L 218.611268 462.676701 
L 218.830821 487.173688 
L 219.050374 465.071381 
L 219.48948 384.221102 
L 219.709033 538.601156 
L 219.928587 458.497998 
L 220.14814 464.191394 
L 220.367693 356.446147 
L 220.587246 459.498634 
L 220.806799 391.694074 
L 221.026352 392.468428 
L 221.245905 470.328979 
L 221.465459 453.34858 
L 221.685012 457.092904 
L 221.904565 437.579327 
L 222.124118 443.925069 
L 222.343671 332.983282 
L 222.782778 430.437179 
L 223.002331 420.989559 
L 223.221884 453.637149 
L 223.441437 356.17875 
L 223.66099 481.584484 
L 223.880543 454.790101 
L 224.100096 314.476862 
L 224.31965 349.468905 
L 224.539203 423.779531 
L 224.758756 391.209874 
L 224.978309 481.977039 
L 225.197862 472.738427 
L 225.417415 346.641698 
L 225.636969 379.18126 
L 225.856522 456.855701 
L 226.076075 432.336469 
L 226.295628 385.684668 
L 226.515181 537.004759 
L 226.734734 431.667129 
L 226.954287 444.352668 
L 227.173841 392.312407 
L 227.393394 431.122284 
L 227.612947 376.591129 
L 227.8325 434.228444 
L 228.052053 329.66255 
L 228.271606 511.040021 
L 228.49116 266.140553 
L 228.710713 467.147623 
L 228.930266 480.254876 
L 229.149819 418.755973 
L 229.369372 437.605274 
L 229.588925 443.61003 
L 229.808478 481.11737 
L 230.028032 406.99761 
L 230.247585 499.518881 
L 230.686691 322.045742 
L 231.125797 492.603309 
L 231.345351 442.277676 
L 231.564904 441.633852 
L 231.784457 478.150234 
L 232.00401 367.206113 
L 232.223563 348.984371 
L 232.662669 486.192889 
L 232.882223 348.12935 
L 233.101776 348.176447 
L 233.321329 355.788965 
L 233.540882 481.10379 
L 233.760435 280.581837 
L 233.979988 431.384914 
L 234.199542 367.125195 
L 234.419095 519.794787 
L 235.077754 240.023476 
L 235.297307 497.740678 
L 235.51686 360.83531 
L 235.736414 525.156166 
L 235.955967 423.218086 
L 236.17552 413.144895 
L 236.395073 420.273511 
L 236.614626 449.640472 
L 236.834179 369.804217 
L 237.053733 465.767847 
L 237.273286 397.470875 
L 237.492839 425.682993 
L 237.712392 359.574112 
L 237.931945 424.719435 
L 238.151498 360.45561 
L 238.371051 462.409634 
L 238.590605 413.597997 
L 238.810158 489.408521 
L 239.249264 403.852796 
L 239.468817 407.380857 
L 239.68837 382.631078 
L 239.907924 418.16897 
L 240.127477 367.620952 
L 240.34703 391.077955 
L 240.566583 356.897708 
L 240.786136 419.23715 
L 241.005689 396.760631 
L 241.225242 420.537807 
L 241.664349 297.107151 
L 241.883902 338.75747 
L 242.103455 505.491575 
L 242.323008 393.614281 
L 242.542561 462.706362 
L 242.762114 466.384415 
L 243.201221 408.29335 
L 243.420774 405.543106 
L 243.640327 493.751134 
L 243.85988 474.384343 
L 244.079433 342.860631 
L 244.298987 350.708691 
L 244.51854 389.476454 
L 244.738093 456.799541 
L 244.957646 475.110205 
L 245.177199 380.538505 
L 245.616305 513.9602 
L 245.835859 460.392868 
L 246.055412 452.610572 
L 246.274965 450.367047 
L 246.494518 497.170353 
L 246.933624 334.871039 
L 247.153178 531.988991 
L 247.372731 318.687381 
L 247.592284 486.068037 
L 247.811837 492.342212 
L 248.03139 400.262063 
L 248.470496 409.725553 
L 248.909603 507.621221 
L 249.129156 510.672782 
L 249.348709 512.039668 
L 249.568262 526.350071 
L 249.787815 479.561054 
L 250.007369 513.09387 
L 250.446475 366.06864 
L 250.666028 361.48813 
L 250.885581 386.127086 
L 251.105134 479.621051 
L 251.763794 291.4813 
L 251.983347 281.366784 
L 252.2029 504.229354 
L 252.422453 324.227079 
L 252.642006 488.23486 
L 252.86156 430.094217 
L 253.081113 475.37291 
L 253.300666 360.543132 
L 253.520219 406.172864 
L 253.739772 481.175048 
L 253.959325 287.000353 
L 254.178878 508.80624 
L 254.398432 351.817315 
L 254.617985 424.690529 
L 254.837538 375.264709 
L 255.057091 448.655743 
L 255.276644 357.091126 
L 255.496197 422.870106 
L 255.715751 327.672426 
L 255.935304 288.380265 
L 256.154857 463.090169 
L 256.37441 327.00084 
L 256.593963 458.374943 
L 256.813516 453.144508 
L 257.033069 317.345026 
L 257.252623 389.842365 
L 257.472176 336.375568 
L 257.911282 500.905857 
L 258.130835 428.45997 
L 258.350388 482.201205 
L 258.569942 429.477888 
L 258.789495 281.65877 
L 259.009048 415.416049 
L 259.228601 422.183405 
L 259.448154 443.534272 
L 259.667707 265.592953 
L 260.106814 416.430476 
L 260.326367 321.495439 
L 260.54592 283.961964 
L 260.985026 437.30806 
L 261.204579 338.950567 
L 261.424133 468.620543 
L 261.643686 454.185885 
L 261.863239 410.483627 
L 262.082792 494.932287 
L 262.302345 392.596594 
L 262.521898 394.561142 
L 262.741451 390.830121 
L 262.961005 333.410392 
L 263.180558 474.855025 
L 263.400111 246.03277 
L 263.619664 386.218815 
L 263.839217 430.718408 
L 264.05877 393.833376 
L 264.278324 471.997796 
L 264.497877 331.926536 
L 264.71743 452.635591 
L 264.936983 345.866862 
L 265.156536 469.693921 
L 265.376089 428.265831 
L 265.595642 519.641342 
L 265.815196 417.405132 
L 266.034749 433.275517 
L 266.254302 340.385265 
L 266.693408 399.953404 
L 266.912961 388.244555 
L 267.132514 407.616849 
L 267.352068 455.558316 
L 267.791174 504.963316 
L 268.010727 498.970817 
L 268.23028 393.547366 
L 268.449833 474.079329 
L 268.669387 454.718897 
L 268.88894 463.220288 
L 269.108493 307.979956 
L 269.328046 431.897852 
L 269.547599 474.139044 
L 269.767152 477.910911 
L 269.986705 525.025392 
L 270.206259 511.10029 
L 270.425812 467.986671 
L 270.864918 429.192359 
L 271.084471 425.860803 
L 271.304024 402.352668 
L 271.523578 429.803038 
L 271.743131 353.253221 
L 271.962684 455.138504 
L 272.40179 379.636619 
L 272.621343 350.73604 
L 272.840896 242.75052 
L 273.499556 473.555255 
L 273.719109 408.820881 
L 273.938662 301.280319 
L 274.158215 419.843781 
L 274.377769 464.221133 
L 274.597322 324.653475 
L 274.816875 424.929173 
L 275.255981 393.55072 
L 275.475534 364.097918 
L 275.695087 473.273933 
L 275.914641 407.768699 
L 276.134194 438.640053 
L 276.353747 310.218242 
L 276.5733 510.411471 
L 276.792853 409.788735 
L 277.23196 468.878549 
L 277.451513 300.279115 
L 277.671066 374.132218 
L 277.890619 374.74868 
L 278.110172 424.531889 
L 278.329725 413.739849 
L 278.549278 390.826792 
L 278.768832 412.040824 
L 278.988385 458.078035 
L 279.207938 425.470731 
L 279.427491 421.022605 
L 279.647044 411.305141 
L 279.866597 364.457887 
L 280.525257 482.304953 
L 280.74481 445.732383 
L 280.964363 505.641156 
L 281.183916 422.338077 
L 281.403469 423.440483 
L 281.623023 489.670366 
L 281.842576 404.571432 
L 282.062129 415.555993 
L 282.281682 471.560884 
L 282.501235 405.845621 
L 282.720788 411.179392 
L 282.940342 374.862207 
L 283.159895 425.259869 
L 283.379448 448.900226 
L 283.599001 403.327228 
L 283.818554 479.470291 
L 284.038107 353.956553 
L 284.25766 344.956635 
L 284.477214 348.738224 
L 284.696767 494.82122 
L 284.91632 396.196607 
L 285.135873 405.620109 
L 285.355426 406.094802 
L 285.574979 473.992796 
L 285.794533 423.309968 
L 286.014086 403.987678 
L 286.233639 412.227493 
L 286.453192 470.668378 
L 286.672745 380.208256 
L 286.892298 363.071586 
L 287.111851 513.261225 
L 287.331405 455.247369 
L 287.550958 320.131613 
L 287.770511 477.501047 
L 287.990064 468.054149 
L 288.209617 479.42841 
L 288.42917 380.790249 
L 288.648724 345.520115 
L 288.868277 452.120765 
L 289.08783 388.766214 
L 289.307383 494.342702 
L 289.526936 420.192084 
L 289.746489 425.519332 
L 289.966042 457.379279 
L 290.185596 425.039657 
L 290.405149 500.992908 
L 290.624702 473.817174 
L 290.844255 346.399557 
L 291.063808 346.85 
L 291.283361 476.002406 
L 291.502915 383.902022 
L 291.722468 380.07643 
L 291.942021 470.037935 
L 292.161574 508.380033 
L 292.381127 342.459054 
L 292.60068 463.813065 
L 292.820233 471.018748 
L 293.039787 379.921975 
L 293.25934 468.427119 
L 293.478893 371.524929 
L 293.917999 348.258397 
L 294.137552 419.674628 
L 294.357105 430.091113 
L 294.576659 537.470556 
L 294.796212 519.459233 
L 295.015765 481.029653 
L 295.235318 465.287727 
L 295.454871 408.62231 
L 295.674424 424.835198 
L 296.113531 515.7454 
L 296.333084 419.957166 
L 296.552637 431.891931 
L 296.77219 329.918437 
L 296.991743 508.429368 
L 297.211296 492.921016 
L 297.650403 374.603739 
L 297.869956 411.276129 
L 298.089509 293.175957 
L 298.309062 484.774746 
L 298.528615 460.983358 
L 298.748169 467.153609 
L 298.967722 501.286491 
L 299.187275 505.566809 
L 299.406828 506.546502 
L 299.626381 531.962848 
L 299.845934 342.302214 
L 300.065487 317.345383 
L 300.285041 348.033606 
L 300.724147 533.185721 
L 300.9437 460.306121 
L 301.163253 468.742489 
L 301.382806 435.569504 
L 301.60236 364.69815 
L 301.821913 399.418619 
L 302.041466 243.753746 
L 302.261019 362.686557 
L 302.480572 338.064763 
L 302.700125 366.461694 
L 302.919678 499.866667 
L 303.139232 394.444464 
L 303.358785 444.233595 
L 303.578338 431.237655 
L 303.797891 361.723937 
L 304.017444 495.546497 
L 304.456551 379.593404 
L 304.676104 365.408016 
L 304.895657 333.453734 
L 305.11521 330.973982 
L 305.334763 448.351544 
L 305.554316 363.943275 
L 305.773869 438.855371 
L 305.993423 419.811123 
L 306.212976 527.817364 
L 306.432529 451.268383 
L 306.652082 467.137706 
L 306.871635 298.293489 
L 307.310742 468.276871 
L 307.530295 423.354126 
L 307.749848 423.731303 
L 307.969401 417.659661 
L 308.188954 347.838643 
L 308.408507 481.646883 
L 308.62806 391.008007 
L 308.847614 527.068327 
L 309.067167 423.520058 
L 309.28672 510.240571 
L 309.506273 430.602593 
L 309.725826 428.669286 
L 310.164933 471.457909 
L 310.823592 383.91768 
L 311.043145 450.854392 
L 311.262698 349.136993 
L 311.482251 340.761533 
L 311.701805 398.129857 
L 311.921358 489.292414 
L 312.580017 420.057546 
L 312.79957 385.889272 
L 313.019124 309.672663 
L 313.238677 507.117288 
L 313.45823 431.836292 
L 313.677783 434.950751 
L 313.897336 351.029383 
L 314.116889 470.36698 
L 314.336442 367.195486 
L 314.555996 384.246935 
L 314.775549 491.766611 
L 314.995102 430.773109 
L 315.214655 405.133945 
L 315.434208 504.510551 
L 315.653761 391.720267 
L 315.873315 387.959399 
L 316.092868 581.38839 
L 316.312421 342.484332 
L 316.531974 458.299854 
L 316.751527 449.029646 
L 316.97108 487.11594 
L 317.190633 440.005461 
L 317.410187 357.457766 
L 317.62974 451.461975 
L 317.849293 206.273915 
L 318.068846 467.096923 
L 318.288399 394.878826 
L 318.507952 481.350842 
L 318.727506 365.38623 
L 319.166612 467.827475 
L 319.386165 321.083939 
L 319.605718 355.158723 
L 319.825271 515.799366 
L 320.044824 440.703812 
L 320.264378 452.034218 
L 320.483931 456.588957 
L 320.703484 312.754623 
L 320.923037 474.930604 
L 321.14259 338.407151 
L 321.362143 476.43719 
L 321.581696 316.468192 
L 321.80125 357.333002 
L 322.020803 511.230416 
L 322.240356 411.122605 
L 322.459909 406.092318 
L 322.679462 405.660843 
L 322.899015 270.478463 
L 323.118569 425.184167 
L 323.338122 457.301259 
L 323.557675 384.025614 
L 323.777228 389.210139 
L 323.996781 436.401226 
L 324.216334 325.72184 
L 324.435887 335.37758 
L 324.655441 387.849568 
L 324.874994 524.291451 
L 325.3141 392.304169 
L 325.533653 484.871461 
L 325.753206 412.269045 
L 325.97276 465.609939 
L 326.192313 435.206205 
L 326.411866 491.767559 
L 326.631419 499.52312 
L 326.850972 465.826603 
L 327.070525 475.571175 
L 327.290078 421.5112 
L 327.509632 458.636144 
L 327.729185 444.782737 
L 327.948738 459.658266 
L 328.387844 536.968419 
L 328.826951 270.989981 
L 329.046504 381.489572 
L 329.266057 203.176722 
L 329.48561 428.031325 
L 329.705163 453.069475 
L 329.924716 330.057631 
L 330.144269 486.921868 
L 330.363823 265.473548 
L 330.802929 303.687755 
L 331.022482 359.972288 
L 331.242035 372.27471 
L 331.461588 504.548376 
L 331.681142 432.289462 
L 331.900695 489.775741 
L 332.339801 343.305209 
L 332.559354 418.530882 
L 332.778907 411.0077 
L 332.99846 396.515922 
L 333.218014 399.266853 
L 333.437567 481.286218 
L 333.65712 355.926625 
L 333.876673 504.218217 
L 334.096226 348.577448 
L 334.315779 487.728291 
L 334.535333 365.802495 
L 334.754886 403.834148 
L 334.974439 374.372691 
L 335.193992 324.151852 
L 335.413545 322.497631 
L 335.633098 349.601907 
L 335.852651 300.978834 
L 336.072205 491.712399 
L 336.291758 464.85885 
L 336.511311 337.267791 
L 336.730864 476.983932 
L 336.950417 477.100212 
L 337.389524 273.462875 
L 337.609077 349.672769 
L 337.82863 484.398663 
L 338.048183 435.412205 
L 338.267736 453.13521 
L 338.487289 452.529823 
L 338.706842 448.385914 
L 339.145949 324.24202 
L 339.365502 334.263553 
L 339.585055 288.437493 
L 339.804608 392.134227 
L 340.024161 351.200697 
L 340.243715 460.858622 
L 340.463268 238.047112 
L 340.682821 383.067332 
L 340.902374 391.897511 
L 341.121927 437.080659 
L 341.34148 413.61958 
L 341.561033 468.651594 
L 341.780587 272.87155 
L 342.00014 472.815852 
L 342.439246 382.399204 
L 342.658799 419.042312 
L 342.878352 396.439449 
L 343.097906 438.619536 
L 343.317459 284.52457 
L 343.537012 390.873058 
L 343.756565 239.044036 
L 343.976118 432.372891 
L 344.195671 464.692287 
L 344.415224 407.928733 
L 344.634778 466.033356 
L 344.854331 290.19992 
L 345.073884 323.882124 
L 345.293437 403.642476 
L 345.732543 492.170648 
L 345.952096 457.259319 
L 346.17165 362.835085 
L 346.391203 409.727196 
L 346.610756 482.432742 
L 346.830309 349.112228 
L 347.049862 481.659783 
L 347.269415 474.170063 
L 347.708522 508.050631 
L 347.928075 441.835731 
L 348.147628 409.435037 
L 348.367181 446.043007 
L 348.586734 294.972246 
L 349.025841 510.664589 
L 349.245394 424.643956 
L 349.464947 397.13692 
L 349.6845 457.499155 
L 350.123606 392.904584 
L 350.34316 410.79669 
L 350.562713 477.615498 
L 350.782266 373.225193 
L 351.001819 476.130244 
L 351.221372 506.023027 
L 351.440925 141.224102 
L 351.660478 393.394464 
L 351.880032 402.891155 
L 352.099585 390.804074 
L 352.319138 481.348708 
L 352.538691 516.781899 
L 352.758244 401.73788 
L 352.977797 467.240472 
L 353.197351 478.664011 
L 353.416904 465.819969 
L 353.636457 342.202758 
L 353.85601 431.578917 
L 354.075563 440.914609 
L 354.295116 484.284446 
L 354.514669 470.481169 
L 354.734223 332.350767 
L 354.953776 412.408172 
L 355.173329 448.675576 
L 355.392882 441.839031 
L 355.612435 430.399735 
L 355.831988 359.526019 
L 356.051542 444.032304 
L 356.271095 333.094296 
L 356.490648 523.623487 
L 356.710201 519.464104 
L 356.929754 424.008442 
L 357.149307 471.163808 
L 357.36886 402.286585 
L 357.588414 465.827177 
L 357.807967 374.535016 
L 358.247073 487.728768 
L 358.466626 401.697805 
L 358.686179 363.22539 
L 358.905733 484.908684 
L 359.125286 475.747141 
L 359.344839 487.294585 
L 359.564392 444.011456 
L 359.783945 462.015636 
L 360.003498 456.227321 
L 360.223051 440.898313 
L 360.442605 534.261699 
L 360.662158 527.471345 
L 360.881711 504.965331 
L 361.101264 366.843278 
L 361.320817 487.697184 
L 361.54037 340.172396 
L 361.759924 379.361529 
L 361.979477 479.263518 
L 362.19903 433.666842 
L 362.418583 536.180476 
L 362.638136 365.049749 
L 362.857689 394.092452 
L 363.077242 439.205887 
L 363.296796 397.51018 
L 363.516349 426.995708 
L 363.735902 287.134679 
L 363.955455 452.265911 
L 364.175008 393.054017 
L 364.394561 393.059687 
L 364.614115 281.035418 
L 364.833668 482.874879 
L 365.053221 471.014495 
L 365.272774 367.918831 
L 365.492327 408.494076 
L 365.71188 498.843534 
L 365.931433 421.96405 
L 366.150987 392.803014 
L 366.37054 409.046449 
L 366.590093 515.019179 
L 366.809646 354.687385 
L 367.029199 509.999639 
L 367.248752 381.447935 
L 367.468306 519.288698 
L 367.687859 462.540623 
L 367.907412 309.109942 
L 368.126965 392.421397 
L 368.346518 418.418244 
L 368.566071 465.487792 
L 368.785624 457.62355 
L 369.224731 374.156726 
L 369.444284 409.896156 
L 369.663837 481.228746 
L 369.88339 465.879107 
L 370.102943 419.691276 
L 370.761603 509.746498 
L 370.981156 494.727693 
L 371.200709 460.546179 
L 371.420262 459.060663 
L 371.639815 390.413265 
L 371.859369 516.965125 
L 372.078922 472.863894 
L 372.298475 458.729477 
L 372.518028 433.496061 
L 372.737581 256.850565 
L 372.957134 366.518107 
L 373.396241 437.307739 
L 373.615794 379.223853 
L 373.835347 441.153067 
L 374.0549 441.202306 
L 374.274453 392.764904 
L 374.494006 492.044894 
L 374.71356 415.919015 
L 374.933113 524.055174 
L 375.152666 425.13076 
L 375.372219 452.229628 
L 375.591772 352.719944 
L 375.811325 460.14406 
L 376.030878 452.160656 
L 376.250432 429.7651 
L 376.469985 505.099669 
L 376.689538 400.86139 
L 376.909091 451.366808 
L 377.128644 336.112924 
L 377.348197 395.268687 
L 377.567751 311.739621 
L 377.787304 483.051151 
L 378.006857 345.845259 
L 378.22641 444.940458 
L 378.445963 448.607026 
L 378.665516 350.698162 
L 378.885069 360.68926 
L 379.104623 445.179216 
L 379.324176 377.901687 
L 379.543729 413.797297 
L 379.763282 338.640213 
L 379.982835 377.113844 
L 380.202388 463.671838 
L 380.421942 401.212594 
L 380.641495 446.369949 
L 380.861048 437.671447 
L 381.080601 217.501915 
L 381.300154 250.514528 
L 381.73926 471.142931 
L 381.958814 385.202332 
L 382.178367 365.592536 
L 382.39792 382.156119 
L 382.617473 452.703029 
L 382.837026 288.795408 
L 383.056579 440.984273 
L 383.276133 403.141378 
L 383.495686 391.924524 
L 383.715239 456.254698 
L 384.154345 412.798697 
L 384.373898 413.526419 
L 384.593451 452.208147 
L 384.813005 457.969539 
L 385.032558 486.765966 
L 385.252111 451.564555 
L 385.471664 263.112694 
L 385.91077 499.680355 
L 386.130324 336.156989 
L 386.788983 467.107037 
L 387.008536 384.37622 
L 387.228089 509.755414 
L 387.447642 489.432769 
L 387.667196 406.173474 
L 387.886749 387.015815 
L 388.106302 470.565106 
L 388.325855 374.507573 
L 388.545408 381.792473 
L 388.764961 471.97632 
L 388.984515 344.359289 
L 389.204068 501.832107 
L 389.423621 412.612909 
L 389.643174 514.369552 
L 390.08228 450.502398 
L 390.301833 466.263889 
L 390.521387 399.733447 
L 390.74094 410.887845 
L 390.960493 398.972696 
L 391.180046 460.300504 
L 391.619152 301.246786 
L 391.838706 328.997713 
L 392.058259 421.163755 
L 392.497365 484.004211 
L 392.716918 489.415658 
L 392.936471 497.593672 
L 393.156024 456.80126 
L 393.375578 458.845325 
L 393.595131 458.956166 
L 393.814684 452.962516 
L 394.034237 436.580194 
L 394.25379 379.332915 
L 394.473343 531.26026 
L 394.692897 404.122215 
L 394.91245 516.641112 
L 395.132003 370.813502 
L 395.351556 431.471881 
L 395.571109 427.980641 
L 395.790662 367.679563 
L 396.010215 428.288683 
L 396.229769 425.731324 
L 396.449322 431.007279 
L 396.668875 345.593488 
L 396.888428 369.065389 
L 397.107981 462.718361 
L 397.327534 373.659872 
L 397.547087 408.717219 
L 397.766641 475.155577 
L 397.986194 394.323579 
L 398.205747 396.237902 
L 398.4253 447.743104 
L 398.864406 321.242608 
L 399.08396 412.314832 
L 399.303513 268.416773 
L 399.962172 435.720904 
L 400.181725 356.841853 
L 400.401278 543.636007 
L 400.620832 345.761858 
L 400.840385 289.795261 
L 401.279491 511.644388 
L 401.499044 471.340931 
L 401.718597 479.464929 
L 401.938151 458.960328 
L 402.377257 314.287604 
L 402.59681 390.817157 
L 402.816363 417.897242 
L 403.035916 375.775921 
L 403.255469 441.776218 
L 403.475023 423.258503 
L 403.694576 300.833433 
L 403.914129 420.671175 
L 404.133682 276.474149 
L 404.353235 477.013792 
L 404.572788 391.578028 
L 404.792342 391.886677 
L 405.011895 342.640055 
L 405.231448 396.415434 
L 405.451001 410.094812 
L 405.670554 464.310107 
L 406.10966 438.903727 
L 406.329214 495.6856 
L 406.548767 358.520285 
L 406.76832 441.283305 
L 406.987873 431.775104 
L 407.207426 446.719774 
L 407.426979 501.358541 
L 407.646533 367.589062 
L 407.866086 512.548344 
L 408.085639 285.640182 
L 408.524745 463.932521 
L 408.744298 474.437163 
L 408.963851 355.236518 
L 409.183405 450.160722 
L 409.402958 475.310415 
L 409.622511 345.431053 
L 409.842064 494.538767 
L 410.061617 399.425482 
L 410.28117 436.599753 
L 410.500724 369.965092 
L 410.720277 395.130205 
L 410.93983 491.278783 
L 411.159383 493.193136 
L 411.378936 285.689913 
L 411.598489 425.764052 
L 411.818042 397.442153 
L 412.037596 499.974974 
L 412.257149 333.143393 
L 412.476702 431.21384 
L 412.696255 365.146324 
L 412.915808 503.69702 
L 413.354915 280.943168 
L 413.574468 377.227264 
L 414.013574 481.068126 
L 414.233127 382.066378 
L 414.45268 490.486064 
L 414.672233 380.583869 
L 414.891787 380.818482 
L 415.11134 476.546424 
L 415.330893 453.290874 
L 415.550446 389.019407 
L 415.769999 458.014593 
L 416.209106 374.990357 
L 416.428659 499.824787 
L 416.648212 451.509525 
L 416.867765 440.161999 
L 417.087318 418.492161 
L 417.306871 481.81803 
L 417.526424 406.664577 
L 417.745978 442.30816 
L 418.185084 354.534297 
L 418.404637 403.707862 
L 418.843743 370.415683 
L 419.063297 319.225496 
L 419.28285 451.064263 
L 419.502403 426.201899 
L 419.721956 342.950509 
L 419.941509 507.700975 
L 420.161062 468.903211 
L 420.380615 350.445782 
L 420.600169 470.764324 
L 420.819722 299.646168 
L 421.039275 493.535446 
L 421.258828 322.288397 
L 421.478381 373.47074 
L 421.697934 390.233424 
L 422.137041 490.680468 
L 422.356594 350.109916 
L 422.576147 322.114741 
L 423.015253 465.509134 
L 423.234806 434.481237 
L 423.45436 447.955259 
L 423.673913 320.40154 
L 423.893466 431.718054 
L 424.113019 382.215333 
L 424.332572 444.718611 
L 424.552125 359.31191 
L 424.991232 466.285377 
L 425.210785 475.418812 
L 425.649891 450.023777 
L 425.869444 412.738022 
L 426.088997 491.703913 
L 426.308551 393.343181 
L 426.528104 374.518361 
L 426.747657 392.108973 
L 426.96721 443.161654 
L 427.186763 317.452579 
L 427.625869 447.919583 
L 427.845423 343.087184 
L 428.064976 392.20083 
L 428.284529 468.375439 
L 428.504082 445.931903 
L 428.723635 400.966642 
L 428.943188 332.471371 
L 429.162742 393.898672 
L 429.601848 422.504533 
L 429.821401 354.459984 
L 430.040954 369.571647 
L 430.260507 344.656491 
L 430.48006 287.839353 
L 430.699614 523.515769 
L 430.919167 422.703651 
L 431.13872 441.543586 
L 431.358273 270.895866 
L 431.577826 455.777411 
L 431.797379 480.110416 
L 432.016933 473.714912 
L 432.236486 459.284139 
L 432.456039 366.213642 
L 432.675592 443.731004 
L 432.895145 451.0902 
L 433.114698 443.698854 
L 433.334251 490.193396 
L 433.553805 373.412782 
L 433.773358 461.634521 
L 433.992911 398.183817 
L 434.212464 370.822393 
L 434.432017 424.39858 
L 434.65157 448.834392 
L 434.871124 418.874101 
L 435.090677 413.672475 
L 435.31023 355.340975 
L 435.529783 474.916958 
L 435.968889 437.167466 
L 436.188442 378.636754 
L 436.407996 233.061671 
L 436.627549 453.34833 
L 436.847102 462.113231 
L 437.066655 522.669634 
L 437.286208 265.097207 
L 437.505761 510.440043 
L 437.725315 356.537861 
L 437.944868 344.715875 
L 438.164421 491.53975 
L 438.383974 536.195687 
L 438.603527 352.168231 
L 438.82308 529.130832 
L 439.042633 239.943418 
L 439.701293 518.99136 
L 439.920846 340.720577 
L 440.140399 488.427931 
L 440.359952 402.780436 
L 441.018612 495.096101 
L 441.238165 430.957174 
L 441.677271 487.238452 
L 441.896824 470.664818 
L 442.116378 376.972447 
L 442.335931 396.025712 
L 442.555484 357.519813 
L 442.775037 426.625674 
L 442.99459 429.11688 
L 443.214143 539.232406 
L 443.433697 424.536772 
L 443.65325 453.666974 
L 443.872803 337.857092 
L 444.311909 470.852663 
L 444.531462 352.814366 
L 444.751015 381.181282 
L 444.970569 377.610664 
L 445.190122 433.134938 
L 445.409675 422.537146 
L 445.629228 470.250567 
L 445.848781 447.875961 
L 446.287888 529.28294 
L 446.507441 440.167677 
L 446.726994 414.875333 
L 446.946547 410.388861 
L 447.385653 493.683999 
L 447.82476 364.925337 
L 448.044313 436.696756 
L 448.263866 390.066056 
L 448.483419 488.387926 
L 448.702972 442.843141 
L 448.922525 519.228931 
L 449.142079 436.798257 
L 449.361632 472.891095 
L 449.581185 332.331465 
L 449.800738 455.746449 
L 450.020291 407.505775 
L 450.239844 314.269048 
L 450.459397 373.645626 
L 450.678951 387.194997 
L 450.898504 464.135514 
L 451.118057 418.005731 
L 451.33761 428.400835 
L 451.557163 288.973481 
L 451.776716 400.13168 
L 451.996269 437.781715 
L 452.215823 447.275044 
L 452.435376 467.824227 
L 452.654929 318.899617 
L 452.874482 468.856497 
L 453.094035 432.361678 
L 453.313588 513.55873 
L 453.533142 509.019035 
L 453.752695 461.69716 
L 453.972248 458.240336 
L 454.191801 441.57738 
L 454.411354 439.569246 
L 454.630907 484.368777 
L 454.85046 463.074207 
L 455.070014 453.991126 
L 455.289567 407.674081 
L 455.50912 426.03107 
L 455.728673 381.851764 
L 455.948226 498.502511 
L 456.167779 484.372218 
L 456.387333 364.145884 
L 456.606886 333.593587 
L 456.826439 471.534243 
L 457.045992 485.257991 
L 457.265545 421.933802 
L 457.485098 184.856442 
L 457.924205 460.688236 
L 458.143758 379.413763 
L 458.363311 382.423022 
L 458.582864 478.428197 
L 458.802417 401.066815 
L 459.02197 504.661814 
L 459.241524 500.503274 
L 459.68063 385.200969 
L 459.900183 455.784424 
L 460.119736 473.765621 
L 460.339289 388.28445 
L 460.558842 436.578079 
L 460.778396 370.520452 
L 460.997949 487.861241 
L 461.217502 473.133237 
L 461.437055 478.08139 
L 461.656608 468.336988 
L 461.876161 509.673712 
L 462.315268 241.924399 
L 462.534821 303.815729 
L 462.754374 317.298309 
L 462.973927 374.927222 
L 463.19348 461.849201 
L 463.632587 393.496476 
L 463.85214 406.662102 
L 464.071693 347.582633 
L 464.291246 482.902729 
L 464.510799 367.175603 
L 464.949906 495.274786 
L 465.169459 465.165839 
L 465.389012 460.530086 
L 465.608565 518.820207 
L 466.047671 278.531321 
L 466.267224 266.958333 
L 466.486778 413.761505 
L 466.706331 425.579397 
L 466.925884 414.694774 
L 467.145437 363.302659 
L 467.36499 379.361234 
L 467.804097 518.998924 
L 468.243203 378.441086 
L 468.462756 486.814398 
L 468.682309 423.192562 
L 468.901862 395.778741 
L 469.121415 436.005147 
L 469.340969 517.171247 
L 469.560522 378.520852 
L 469.780075 376.941735 
L 469.999628 457.653533 
L 470.219181 445.475381 
L 470.438734 374.114403 
L 470.658288 353.307274 
L 470.877841 520.304487 
L 471.316947 158.236192 
L 471.5365 431.059109 
L 471.756053 487.614301 
L 471.975606 440.668454 
L 472.19516 438.07108 
L 472.414713 507.709582 
L 472.634266 485.193271 
L 473.073372 344.308173 
L 473.292925 491.664054 
L 473.512479 339.954593 
L 473.732032 375.683222 
L 473.951585 448.057115 
L 474.171138 469.467214 
L 474.610244 415.669465 
L 474.829797 463.714977 
L 475.049351 385.758275 
L 475.70801 469.38397 
L 475.927563 404.407993 
L 476.147116 305.9871 
L 476.366669 487.532629 
L 476.586223 383.087676 
L 476.805776 430.081047 
L 477.025329 355.700201 
L 477.244882 408.346845 
L 477.464435 393.637053 
L 477.903542 468.72584 
L 478.123095 411.631543 
L 478.342648 460.765557 
L 478.562201 315.648662 
L 478.781754 415.82685 
L 479.001307 356.406765 
L 479.22086 398.384686 
L 479.440414 501.303552 
L 479.659967 415.817483 
L 479.87952 453.942713 
L 480.099073 373.606581 
L 480.538179 498.804984 
L 480.757733 437.512797 
L 480.977286 493.508763 
L 481.196839 497.684978 
L 481.416392 384.001825 
L 481.635945 464.555135 
L 481.855498 492.742464 
L 482.075051 401.771436 
L 482.294605 449.887766 
L 482.514158 397.187193 
L 482.733711 534.183583 
L 482.953264 414.596968 
L 483.172817 363.237242 
L 483.611924 452.524817 
L 483.831477 407.898821 
L 484.05103 334.740542 
L 484.270583 465.845798 
L 484.490136 355.730631 
L 484.709689 457.776789 
L 484.929242 497.493502 
L 485.148796 401.774757 
L 485.368349 429.065981 
L 485.587902 516.792138 
L 485.807455 411.882466 
L 486.027008 457.244176 
L 486.246561 438.245826 
L 486.466115 475.692242 
L 486.685668 439.650211 
L 486.905221 443.050489 
L 487.124774 392.502691 
L 487.344327 527.597365 
L 487.56388 319.541596 
L 487.783433 384.416876 
L 488.002987 407.493747 
L 488.22254 492.107218 
L 488.442093 440.837687 
L 488.661646 293.692115 
L 488.881199 352.445209 
L 489.100752 457.534188 
L 489.320306 367.062841 
L 489.539859 402.569593 
L 489.759412 497.503068 
L 490.198518 440.991219 
L 490.418071 527.535033 
L 490.637624 446.052667 
L 490.857178 209.424383 
L 491.076731 449.93004 
L 491.296284 422.64951 
L 491.515837 421.883599 
L 491.73539 190.510601 
L 491.954943 395.92306 
L 492.174497 486.821009 
L 492.39405 370.451857 
L 492.613603 386.94525 
L 492.833156 493.546754 
L 493.052709 423.045728 
L 493.272262 398.850609 
L 493.491815 464.25619 
L 493.711369 393.725342 
L 493.930922 456.431196 
L 494.150475 418.207012 
L 494.370028 307.766886 
L 494.589581 391.407116 
L 494.809134 291.337189 
L 495.028688 466.458101 
L 495.248241 487.097992 
L 495.467794 415.602368 
L 495.687347 469.378035 
L 496.126453 360.714976 
L 496.346006 385.035494 
L 496.56556 474.514809 
L 496.785113 432.894372 
L 497.004666 476.619205 
L 497.224219 391.365596 
L 497.443772 441.156563 
L 497.663325 415.39745 
L 497.882879 345.877149 
L 498.102432 354.949253 
L 498.321985 472.047643 
L 498.541538 364.594461 
L 498.761091 487.379784 
L 498.980644 342.922629 
L 499.200197 450.091142 
L 499.419751 424.191978 
L 499.639304 478.173729 
L 499.858857 421.713155 
L 500.07841 421.967918 
L 500.297963 373.749315 
L 500.517516 452.083482 
L 500.73707 326.229717 
L 500.956623 131.956182 
L 501.176176 315.582477 
L 501.395729 366.444434 
L 501.615282 450.28066 
L 502.054388 406.684701 
L 502.273942 409.562155 
L 502.493495 414.32029 
L 502.713048 443.833294 
L 502.932601 434.671548 
L 503.152154 374.697051 
L 503.371707 490.103983 
L 503.59126 406.061738 
L 503.810814 406.934503 
L 504.030367 475.025093 
L 504.24992 344.620891 
L 504.689026 466.642024 
L 504.908579 404.261016 
L 505.128133 465.751584 
L 505.347686 372.112403 
L 505.567239 386.098449 
L 505.786792 427.787818 
L 506.006345 441.244958 
L 506.225898 369.123882 
L 506.445451 425.200204 
L 506.665005 365.307505 
L 506.884558 461.19916 
L 507.104111 298.556074 
L 507.323664 397.943225 
L 507.543217 415.208442 
L 507.76277 550.738412 
L 507.982324 473.45403 
L 508.201877 467.55752 
L 508.640983 366.462038 
L 508.860536 470.816664 
L 509.080089 462.702153 
L 509.299642 359.967026 
L 509.519196 544.703406 
L 509.738749 424.808058 
L 509.958302 434.502269 
L 510.177855 485.023215 
L 510.397408 423.608136 
L 510.616961 413.404313 
L 510.836515 483.109675 
L 511.056068 283.184035 
L 511.275621 393.670033 
L 511.495174 415.562348 
L 511.714727 232.070056 
L 512.153833 447.928399 
L 512.373387 250.733898 
L 512.59294 523.926375 
L 512.812493 477.706647 
L 513.032046 288.749084 
L 513.251599 430.764627 
L 513.690706 516.647114 
L 514.129812 297.500434 
L 514.349365 394.60426 
L 514.568918 373.453982 
L 514.788471 386.257459 
L 515.008024 362.086645 
L 515.227578 388.685143 
L 515.447131 512.580586 
L 515.666684 384.847674 
L 515.886237 398.371088 
L 516.10579 474.451451 
L 516.325343 461.804827 
L 516.544897 470.463752 
L 516.76445 411.237305 
L 516.984003 436.282639 
L 517.423109 279.741471 
L 517.862215 502.482728 
L 518.081769 353.699297 
L 518.301322 394.551789 
L 518.520875 525.053556 
L 518.959981 465.954447 
L 519.179534 451.96814 
L 519.399088 420.436568 
L 519.618641 434.173481 
L 519.838194 369.396946 
L 520.057747 418.003354 
L 520.2773 389.225297 
L 520.496853 389.754397 
L 520.93596 509.761854 
L 521.155513 398.217607 
L 521.375066 458.658642 
L 521.594619 382.448213 
L 521.814172 399.69445 
L 522.033725 405.550435 
L 522.253279 434.039222 
L 522.692385 374.220407 
L 522.911938 386.784268 
L 523.131491 326.514405 
L 523.351044 459.496778 
L 523.570597 500.361952 
L 523.790151 449.632562 
L 524.009704 465.318701 
L 524.229257 401.391562 
L 524.44881 429.793609 
L 524.668363 430.690103 
L 524.887916 351.841523 
L 525.10747 504.581542 
L 525.546576 395.544273 
L 525.766129 493.808974 
L 526.205235 395.221519 
L 526.424788 325.974274 
L 526.644342 439.362677 
L 526.863895 431.253466 
L 527.083448 509.257121 
L 527.303001 160.182311 
L 527.522554 472.987096 
L 527.742107 528.705585 
L 527.96166 479.640732 
L 528.181214 459.645428 
L 528.400767 455.445219 
L 528.62032 481.944681 
L 528.839873 360.167302 
L 529.059426 483.535709 
L 529.278979 501.826707 
L 529.718086 300.587681 
L 529.937639 447.658318 
L 530.157192 402.797613 
L 530.376745 312.130342 
L 530.596298 468.318083 
L 530.815851 482.234762 
L 531.035405 460.197988 
L 531.254958 402.04193 
L 531.474511 401.135645 
L 531.694064 504.485827 
L 531.913617 467.474013 
L 532.13317 354.919679 
L 532.352724 450.627329 
L 532.572277 434.176185 
L 532.79183 455.996633 
L 533.011383 385.352508 
L 533.230936 375.241135 
L 533.450489 501.042886 
L 533.670042 464.295576 
L 533.889596 383.236669 
L 534.328702 336.162715 
L 534.548255 374.024182 
L 534.767808 387.726537 
L 535.206915 455.881704 
L 535.426468 479.268653 
L 535.646021 347.224676 
L 535.865574 457.38822 
L 536.085127 436.645732 
L 536.30468 433.595301 
L 536.524233 470.256551 
L 536.743787 361.637157 
L 536.96334 448.622768 
L 537.182893 458.886452 
L 537.402446 295.859393 
L 537.621999 509.536802 
L 537.841552 413.406444 
L 538.061106 366.747717 
L 538.280659 450.409254 
L 538.500212 166.614776 
L 538.719765 482.528093 
L 538.939318 442.606401 
L 539.158871 456.7976 
L 539.378424 457.356836 
L 539.597978 456.141919 
L 539.817531 429.307967 
L 540.037084 446.881175 
L 540.256637 445.285105 
L 540.47619 336.086731 
L 540.915297 500.285463 
L 541.13485 487.687792 
L 541.354403 344.407791 
L 541.573956 503.727538 
L 541.793509 318.652305 
L 542.013062 398.533259 
L 542.232615 429.395514 
L 542.452169 319.206899 
L 542.671722 374.041954 
L 542.891275 390.325438 
L 543.110828 440.162761 
L 543.330381 349.506773 
L 543.769488 463.511222 
L 543.989041 430.365941 
L 544.208594 426.25144 
L 544.867253 532.35938 
L 545.086806 277.761454 
L 545.30636 347.698973 
L 545.525913 296.863995 
L 545.745466 367.985792 
L 545.745466 367.985792 
" style="fill:none;stroke:#96c69a;stroke-linecap:round;stroke-width:3;"/>
   </g>
   <g id="line2d_2"/>
   <g id="patch_3">
    <path d="M 84.914375 603.86 
L 84.914375 109.484571 
" style="fill:none;stroke:#262626;stroke-linecap:square;stroke-linejoin:miter;stroke-width:2.5;"/>
   </g>
   <g id="patch_4">
    <path d="M 84.914375 603.86 
L 567.689804 603.86 
" style="fill:none;stroke:#262626;stroke-linecap:square;stroke-linejoin:miter;stroke-width:2.5;"/>
   </g>
   <g id="legend_1">
    <g id="patch_5">
     <path d="M 514.774179 598.86 
L 560.689804 598.86 
Q 562.689804 598.86 562.689804 596.86 
L 562.689804 554.954375 
Q 562.689804 552.954375 560.689804 552.954375 
L 514.774179 552.954375 
Q 512.774179 552.954375 512.774179 554.954375 
L 512.774179 596.86 
Q 512.774179 598.86 514.774179 598.86 
z
" style="fill:#ffffff;opacity:0.8;stroke:#cccccc;stroke-linejoin:miter;stroke-width:2;"/>
    </g>
    <g id="text_16">
     <!-- $n_\tau$ -->
     <g style="fill:#262626;" transform="translate(524.651991 575.190625)scale(0.24 -0.24)">
      <defs>
       <path d="M 3566 2113 
L 3156 0 
L 2578 0 
L 2988 2091 
Q 3016 2238 3031 2350 
Q 3047 2463 3047 2528 
Q 3047 2791 2881 2937 
Q 2716 3084 2419 3084 
Q 1956 3084 1622 2776 
Q 1288 2469 1184 1941 
L 800 0 
L 225 0 
L 903 3500 
L 1478 3500 
L 1363 2950 
Q 1603 3253 1940 3418 
Q 2278 3584 2650 3584 
Q 3113 3584 3367 3334 
Q 3622 3084 3622 2631 
Q 3622 2519 3608 2391 
Q 3594 2263 3566 2113 
z
" id="DejaVuSans-Oblique-6e" transform="scale(0.015625)"/>
       <path d="M 2103 638 
Q 2188 488 2525 488 
L 2800 488 
L 2706 0 
L 2363 0 
Q 1800 0 1600 300 
Q 1403 606 1534 1269 
L 1856 2925 
L 541 2925 
L 653 3500 
L 3881 3500 
L 3769 2925 
L 2444 2925 
L 2113 1234 
Q 2025 781 2103 638 
z
" id="DejaVuSans-Oblique-3c4" transform="scale(0.015625)"/>
      </defs>
      <use xlink:href="#DejaVuSans-Oblique-6e"/>
      <use transform="translate(63.378906 -16.40625)scale(0.7)" xlink:href="#DejaVuSans-Oblique-3c4"/>
     </g>
    </g>
    <g id="line2d_3">
     <path d="M 516.774179 589.280313 
L 536.774179 589.280313 
" style="fill:none;stroke:#96c69a;stroke-linecap:round;stroke-width:3;"/>
    </g>
    <g id="line2d_4"/>
    <g id="text_17">
     <!-- 50 -->
     <g style="fill:#262626;" transform="translate(544.774179 592.780313)scale(0.1 -0.1)">
      <defs>
       <path d="M 678 4666 
L 3669 4666 
L 3669 3781 
L 1638 3781 
L 1638 3059 
Q 1775 3097 1914 3117 
Q 2053 3138 2203 3138 
Q 3056 3138 3531 2711 
Q 4006 2284 4006 1522 
Q 4006 766 3489 337 
Q 2972 -91 2053 -91 
Q 1656 -91 1267 -14 
Q 878 63 494 219 
L 494 1166 
Q 875 947 1217 837 
Q 1559 728 1863 728 
Q 2300 728 2551 942 
Q 2803 1156 2803 1522 
Q 2803 1891 2551 2103 
Q 2300 2316 1863 2316 
Q 1603 2316 1309 2248 
Q 1016 2181 678 2041 
L 678 4666 
z
" id="DejaVuSans-Bold-35" transform="scale(0.015625)"/>
       <path d="M 2944 2338 
Q 2944 3213 2780 3570 
Q 2616 3928 2228 3928 
Q 1841 3928 1675 3570 
Q 1509 3213 1509 2338 
Q 1509 1453 1675 1090 
Q 1841 728 2228 728 
Q 2613 728 2778 1090 
Q 2944 1453 2944 2338 
z
M 4147 2328 
Q 4147 1169 3647 539 
Q 3147 -91 2228 -91 
Q 1306 -91 806 539 
Q 306 1169 306 2328 
Q 306 3491 806 4120 
Q 1306 4750 2228 4750 
Q 3147 4750 3647 4120 
Q 4147 3491 4147 2328 
z
" id="DejaVuSans-Bold-30" transform="scale(0.015625)"/>
      </defs>
      <use xlink:href="#DejaVuSans-Bold-35"/>
      <use x="69.580078" xlink:href="#DejaVuSans-Bold-30"/>
     </g>
    </g>
   </g>
  </g>
  <g id="axes_2">
   <g id="patch_6">
    <path d="M 84.914375 92.437143 
L 567.689804 92.437143 
L 567.689804 7.2 
L 84.914375 7.2 
z
" style="fill:none;"/>
   </g>
   <g id="matplotlib.axis_3">
    <g id="xtick_7"/>
    <g id="xtick_8"/>
    <g id="xtick_9"/>
    <g id="xtick_10"/>
    <g id="xtick_11"/>
    <g id="xtick_12"/>
   </g>
   <g id="matplotlib.axis_4">
    <g id="ytick_8">
     <g id="text_18">
      <!-- 0 -->
      <g style="fill:#262626;" transform="translate(55.416875 100.795424)scale(0.22 -0.22)">
       <use xlink:href="#DejaVuSans-30"/>
      </g>
     </g>
    </g>
    <g id="ytick_9">
     <g id="text_19">
      <!-- 100 -->
      <g style="fill:#262626;" transform="translate(27.421875 48.082287)scale(0.22 -0.22)">
       <use xlink:href="#DejaVuSans-31"/>
       <use x="63.623047" xlink:href="#DejaVuSans-30"/>
       <use x="127.246094" xlink:href="#DejaVuSans-30"/>
      </g>
     </g>
    </g>
   </g>
   <g id="patch_7">
    <path clip-path="url(#p7f0871bf4b)" d="M 106.858713 92.437143 
L 140.619232 92.437143 
L 140.619232 11.258912 
L 106.858713 11.258912 
z
" style="fill:#96c69a;fill-opacity:0.5;stroke:#ffffff;stroke-linejoin:miter;stroke-width:2;"/>
   </g>
   <g id="patch_8">
    <path clip-path="url(#p7f0871bf4b)" d="M 140.619232 92.437143 
L 174.379752 92.437143 
L 174.379752 11.258912 
L 140.619232 11.258912 
z
" style="fill:#96c69a;fill-opacity:0.5;stroke:#ffffff;stroke-linejoin:miter;stroke-width:2;"/>
   </g>
   <g id="patch_9">
    <path clip-path="url(#p7f0871bf4b)" d="M 174.379752 92.437143 
L 208.140271 92.437143 
L 208.140271 11.258912 
L 174.379752 11.258912 
z
" style="fill:#96c69a;fill-opacity:0.5;stroke:#ffffff;stroke-linejoin:miter;stroke-width:2;"/>
   </g>
   <g id="patch_10">
    <path clip-path="url(#p7f0871bf4b)" d="M 208.140271 92.437143 
L 241.900791 92.437143 
L 241.900791 11.258912 
L 208.140271 11.258912 
z
" style="fill:#96c69a;fill-opacity:0.5;stroke:#ffffff;stroke-linejoin:miter;stroke-width:2;"/>
   </g>
   <g id="patch_11">
    <path clip-path="url(#p7f0871bf4b)" d="M 241.900791 92.437143 
L 275.66131 92.437143 
L 275.66131 11.786043 
L 241.900791 11.786043 
z
" style="fill:#96c69a;fill-opacity:0.5;stroke:#ffffff;stroke-linejoin:miter;stroke-width:2;"/>
   </g>
   <g id="patch_12">
    <path clip-path="url(#p7f0871bf4b)" d="M 275.66131 92.437143 
L 309.42183 92.437143 
L 309.42183 11.258912 
L 275.66131 11.258912 
z
" style="fill:#96c69a;fill-opacity:0.5;stroke:#ffffff;stroke-linejoin:miter;stroke-width:2;"/>
   </g>
   <g id="patch_13">
    <path clip-path="url(#p7f0871bf4b)" d="M 309.42183 92.437143 
L 343.182349 92.437143 
L 343.182349 11.258912 
L 309.42183 11.258912 
z
" style="fill:#96c69a;fill-opacity:0.5;stroke:#ffffff;stroke-linejoin:miter;stroke-width:2;"/>
   </g>
   <g id="patch_14">
    <path clip-path="url(#p7f0871bf4b)" d="M 343.182349 92.437143 
L 376.942869 92.437143 
L 376.942869 11.258912 
L 343.182349 11.258912 
z
" style="fill:#96c69a;fill-opacity:0.5;stroke:#ffffff;stroke-linejoin:miter;stroke-width:2;"/>
   </g>
   <g id="patch_15">
    <path clip-path="url(#p7f0871bf4b)" d="M 376.942869 92.437143 
L 410.703388 92.437143 
L 410.703388 11.786043 
L 376.942869 11.786043 
z
" style="fill:#96c69a;fill-opacity:0.5;stroke:#ffffff;stroke-linejoin:miter;stroke-width:2;"/>
   </g>
   <g id="patch_16">
    <path clip-path="url(#p7f0871bf4b)" d="M 410.703388 92.437143 
L 444.463907 92.437143 
L 444.463907 11.258912 
L 410.703388 11.258912 
z
" style="fill:#96c69a;fill-opacity:0.5;stroke:#ffffff;stroke-linejoin:miter;stroke-width:2;"/>
   </g>
   <g id="patch_17">
    <path clip-path="url(#p7f0871bf4b)" d="M 444.463907 92.437143 
L 478.224427 92.437143 
L 478.224427 11.258912 
L 444.463907 11.258912 
z
" style="fill:#96c69a;fill-opacity:0.5;stroke:#ffffff;stroke-linejoin:miter;stroke-width:2;"/>
   </g>
   <g id="patch_18">
    <path clip-path="url(#p7f0871bf4b)" d="M 478.224427 92.437143 
L 511.984946 92.437143 
L 511.984946 11.258912 
L 478.224427 11.258912 
z
" style="fill:#96c69a;fill-opacity:0.5;stroke:#ffffff;stroke-linejoin:miter;stroke-width:2;"/>
   </g>
   <g id="patch_19">
    <path clip-path="url(#p7f0871bf4b)" d="M 511.984946 92.437143 
L 545.745466 92.437143 
L 545.745466 11.258912 
L 511.984946 11.258912 
z
" style="fill:#96c69a;fill-opacity:0.5;stroke:#ffffff;stroke-linejoin:miter;stroke-width:2;"/>
   </g>
   <g id="patch_20">
    <path d="M 84.914375 92.437143 
L 84.914375 7.2 
" style="fill:none;stroke:#262626;stroke-linecap:square;stroke-linejoin:miter;stroke-width:2.5;"/>
   </g>
   <g id="patch_21">
    <path d="M 84.914375 92.437143 
L 567.689804 92.437143 
" style="fill:none;stroke:#262626;stroke-linecap:square;stroke-linejoin:miter;stroke-width:2.5;"/>
   </g>
  </g>
  <g id="axes_3">
   <g id="patch_22">
    <path d="M 584.337232 603.86 
L 667.574375 603.86 
L 667.574375 109.484571 
L 584.337232 109.484571 
z
" style="fill:none;"/>
   </g>
   <g id="matplotlib.axis_5">
    <g id="xtick_13">
     <g id="text_20">
      <!-- 0 -->
      <g style="fill:#262626;" transform="translate(577.338482 636.076563)scale(0.22 -0.22)">
       <use xlink:href="#DejaVuSans-30"/>
      </g>
     </g>
    </g>
    <g id="xtick_14">
     <g id="text_21">
      <!-- 100 -->
      <g style="fill:#262626;" transform="translate(609.430209 636.076563)scale(0.22 -0.22)">
       <use xlink:href="#DejaVuSans-31"/>
       <use x="63.623047" xlink:href="#DejaVuSans-30"/>
       <use x="127.246094" xlink:href="#DejaVuSans-30"/>
      </g>
     </g>
    </g>
   </g>
   <g id="matplotlib.axis_6">
    <g id="ytick_10"/>
    <g id="ytick_11"/>
    <g id="ytick_12"/>
    <g id="ytick_13"/>
    <g id="ytick_14"/>
    <g id="ytick_15"/>
    <g id="ytick_16"/>
   </g>
   <g id="patch_23">
    <path clip-path="url(#p3283b134cd)" d="M 584.337232 581.38839 
L 584.798124 581.38839 
L 584.798124 567.769232 
L 584.337232 567.769232 
z
" style="fill:#96c69a;fill-opacity:0.5;stroke:#ffffff;stroke-linejoin:miter;stroke-width:1.361916;"/>
   </g>
   <g id="patch_24">
    <path clip-path="url(#p3283b134cd)" d="M 584.337232 567.769232 
L 584.337232 567.769232 
L 584.337232 554.150074 
L 584.337232 554.150074 
z
" style="fill:#96c69a;fill-opacity:0.5;stroke:#ffffff;stroke-linejoin:miter;stroke-width:1.361916;"/>
   </g>
   <g id="patch_25">
    <path clip-path="url(#p3283b134cd)" d="M 584.337232 554.150074 
L 587.102586 554.150074 
L 587.102586 540.530916 
L 584.337232 540.530916 
z
" style="fill:#96c69a;fill-opacity:0.5;stroke:#ffffff;stroke-linejoin:miter;stroke-width:1.361916;"/>
   </g>
   <g id="patch_26">
    <path clip-path="url(#p3283b134cd)" d="M 584.337232 540.530916 
L 596.320431 540.530916 
L 596.320431 526.911758 
L 584.337232 526.911758 
z
" style="fill:#96c69a;fill-opacity:0.5;stroke:#ffffff;stroke-linejoin:miter;stroke-width:1.361916;"/>
   </g>
   <g id="patch_27">
    <path clip-path="url(#p3283b134cd)" d="M 584.337232 526.911758 
L 602.772923 526.911758 
L 602.772923 513.292601 
L 584.337232 513.292601 
z
" style="fill:#96c69a;fill-opacity:0.5;stroke:#ffffff;stroke-linejoin:miter;stroke-width:1.361916;"/>
   </g>
   <g id="patch_28">
    <path clip-path="url(#p3283b134cd)" d="M 584.337232 513.292601 
L 621.208613 513.292601 
L 621.208613 499.673443 
L 584.337232 499.673443 
z
" style="fill:#96c69a;fill-opacity:0.5;stroke:#ffffff;stroke-linejoin:miter;stroke-width:1.361916;"/>
   </g>
   <g id="patch_29">
    <path clip-path="url(#p3283b134cd)" d="M 584.337232 499.673443 
L 631.348243 499.673443 
L 631.348243 486.054285 
L 584.337232 486.054285 
z
" style="fill:#96c69a;fill-opacity:0.5;stroke:#ffffff;stroke-linejoin:miter;stroke-width:1.361916;"/>
   </g>
   <g id="patch_30">
    <path clip-path="url(#p3283b134cd)" d="M 584.337232 486.054285 
L 647.479472 486.054285 
L 647.479472 472.435127 
L 584.337232 472.435127 
z
" style="fill:#96c69a;fill-opacity:0.5;stroke:#ffffff;stroke-linejoin:miter;stroke-width:1.361916;"/>
   </g>
   <g id="patch_31">
    <path clip-path="url(#p3283b134cd)" d="M 584.337232 472.435127 
L 661.767132 472.435127 
L 661.767132 458.815969 
L 584.337232 458.815969 
z
" style="fill:#96c69a;fill-opacity:0.5;stroke:#ffffff;stroke-linejoin:miter;stroke-width:1.361916;"/>
   </g>
   <g id="patch_32">
    <path clip-path="url(#p3283b134cd)" d="M 584.337232 458.815969 
L 663.610702 458.815969 
L 663.610702 445.196811 
L 584.337232 445.196811 
z
" style="fill:#96c69a;fill-opacity:0.5;stroke:#ffffff;stroke-linejoin:miter;stroke-width:1.361916;"/>
   </g>
   <g id="patch_33">
    <path clip-path="url(#p3283b134cd)" d="M 584.337232 445.196811 
L 663.149809 445.196811 
L 663.149809 431.577654 
L 584.337232 431.577654 
z
" style="fill:#96c69a;fill-opacity:0.5;stroke:#ffffff;stroke-linejoin:miter;stroke-width:1.361916;"/>
   </g>
   <g id="patch_34">
    <path clip-path="url(#p3283b134cd)" d="M 584.337232 431.577654 
L 662.228025 431.577654 
L 662.228025 417.958496 
L 584.337232 417.958496 
z
" style="fill:#96c69a;fill-opacity:0.5;stroke:#ffffff;stroke-linejoin:miter;stroke-width:1.361916;"/>
   </g>
   <g id="patch_35">
    <path clip-path="url(#p3283b134cd)" d="M 584.337232 417.958496 
L 654.853749 417.958496 
L 654.853749 404.339338 
L 584.337232 404.339338 
z
" style="fill:#96c69a;fill-opacity:0.5;stroke:#ffffff;stroke-linejoin:miter;stroke-width:1.361916;"/>
   </g>
   <g id="patch_36">
    <path clip-path="url(#p3283b134cd)" d="M 584.337232 404.339338 
L 657.15821 404.339338 
L 657.15821 390.72018 
L 584.337232 390.72018 
z
" style="fill:#96c69a;fill-opacity:0.5;stroke:#ffffff;stroke-linejoin:miter;stroke-width:1.361916;"/>
   </g>
   <g id="patch_37">
    <path clip-path="url(#p3283b134cd)" d="M 584.337232 390.72018 
L 640.566088 390.72018 
L 640.566088 377.101022 
L 584.337232 377.101022 
z
" style="fill:#96c69a;fill-opacity:0.5;stroke:#ffffff;stroke-linejoin:miter;stroke-width:1.361916;"/>
   </g>
   <g id="patch_38">
    <path clip-path="url(#p3283b134cd)" d="M 584.337232 377.101022 
L 636.87895 377.101022 
L 636.87895 363.481865 
L 584.337232 363.481865 
z
" style="fill:#96c69a;fill-opacity:0.5;stroke:#ffffff;stroke-linejoin:miter;stroke-width:1.361916;"/>
   </g>
   <g id="patch_39">
    <path clip-path="url(#p3283b134cd)" d="M 584.337232 363.481865 
L 627.661105 363.481865 
L 627.661105 349.862707 
L 584.337232 349.862707 
z
" style="fill:#96c69a;fill-opacity:0.5;stroke:#ffffff;stroke-linejoin:miter;stroke-width:1.361916;"/>
   </g>
   <g id="patch_40">
    <path clip-path="url(#p3283b134cd)" d="M 584.337232 349.862707 
L 617.982367 349.862707 
L 617.982367 336.243549 
L 584.337232 336.243549 
z
" style="fill:#96c69a;fill-opacity:0.5;stroke:#ffffff;stroke-linejoin:miter;stroke-width:1.361916;"/>
   </g>
   <g id="patch_41">
    <path clip-path="url(#p3283b134cd)" d="M 584.337232 336.243549 
L 609.225414 336.243549 
L 609.225414 322.624391 
L 584.337232 322.624391 
z
" style="fill:#96c69a;fill-opacity:0.5;stroke:#ffffff;stroke-linejoin:miter;stroke-width:1.361916;"/>
   </g>
   <g id="patch_42">
    <path clip-path="url(#p3283b134cd)" d="M 584.337232 322.624391 
L 604.616492 322.624391 
L 604.616492 309.005233 
L 584.337232 309.005233 
z
" style="fill:#96c69a;fill-opacity:0.5;stroke:#ffffff;stroke-linejoin:miter;stroke-width:1.361916;"/>
   </g>
   <g id="patch_43">
    <path clip-path="url(#p3283b134cd)" d="M 584.337232 309.005233 
L 595.398646 309.005233 
L 595.398646 295.386076 
L 584.337232 295.386076 
z
" style="fill:#96c69a;fill-opacity:0.5;stroke:#ffffff;stroke-linejoin:miter;stroke-width:1.361916;"/>
   </g>
   <g id="patch_44">
    <path clip-path="url(#p3283b134cd)" d="M 584.337232 295.386076 
L 596.320431 295.386076 
L 596.320431 281.766918 
L 584.337232 281.766918 
z
" style="fill:#96c69a;fill-opacity:0.5;stroke:#ffffff;stroke-linejoin:miter;stroke-width:1.361916;"/>
   </g>
   <g id="patch_45">
    <path clip-path="url(#p3283b134cd)" d="M 584.337232 281.766918 
L 593.094185 281.766918 
L 593.094185 268.14776 
L 584.337232 268.14776 
z
" style="fill:#96c69a;fill-opacity:0.5;stroke:#ffffff;stroke-linejoin:miter;stroke-width:1.361916;"/>
   </g>
   <g id="patch_46">
    <path clip-path="url(#p3283b134cd)" d="M 584.337232 268.14776 
L 590.789724 268.14776 
L 590.789724 254.528602 
L 584.337232 254.528602 
z
" style="fill:#96c69a;fill-opacity:0.5;stroke:#ffffff;stroke-linejoin:miter;stroke-width:1.361916;"/>
   </g>
   <g id="patch_47">
    <path clip-path="url(#p3283b134cd)" d="M 584.337232 254.528602 
L 588.485263 254.528602 
L 588.485263 240.909444 
L 584.337232 240.909444 
z
" style="fill:#96c69a;fill-opacity:0.5;stroke:#ffffff;stroke-linejoin:miter;stroke-width:1.361916;"/>
   </g>
   <g id="patch_48">
    <path clip-path="url(#p3283b134cd)" d="M 584.337232 240.909444 
L 587.563478 240.909444 
L 587.563478 227.290287 
L 584.337232 227.290287 
z
" style="fill:#96c69a;fill-opacity:0.5;stroke:#ffffff;stroke-linejoin:miter;stroke-width:1.361916;"/>
   </g>
   <g id="patch_49">
    <path clip-path="url(#p3283b134cd)" d="M 584.337232 227.290287 
L 585.259017 227.290287 
L 585.259017 213.671129 
L 584.337232 213.671129 
z
" style="fill:#96c69a;fill-opacity:0.5;stroke:#ffffff;stroke-linejoin:miter;stroke-width:1.361916;"/>
   </g>
   <g id="patch_50">
    <path clip-path="url(#p3283b134cd)" d="M 584.337232 213.671129 
L 585.719909 213.671129 
L 585.719909 200.051971 
L 584.337232 200.051971 
z
" style="fill:#96c69a;fill-opacity:0.5;stroke:#ffffff;stroke-linejoin:miter;stroke-width:1.361916;"/>
   </g>
   <g id="patch_51">
    <path clip-path="url(#p3283b134cd)" d="M 584.337232 200.051971 
L 586.180801 200.051971 
L 586.180801 186.432813 
L 584.337232 186.432813 
z
" style="fill:#96c69a;fill-opacity:0.5;stroke:#ffffff;stroke-linejoin:miter;stroke-width:1.361916;"/>
   </g>
   <g id="patch_52">
    <path clip-path="url(#p3283b134cd)" d="M 584.337232 186.432813 
L 584.798124 186.432813 
L 584.798124 172.813655 
L 584.337232 172.813655 
z
" style="fill:#96c69a;fill-opacity:0.5;stroke:#ffffff;stroke-linejoin:miter;stroke-width:1.361916;"/>
   </g>
   <g id="patch_53">
    <path clip-path="url(#p3283b134cd)" d="M 584.337232 172.813655 
L 585.719909 172.813655 
L 585.719909 159.194497 
L 584.337232 159.194497 
z
" style="fill:#96c69a;fill-opacity:0.5;stroke:#ffffff;stroke-linejoin:miter;stroke-width:1.361916;"/>
   </g>
   <g id="patch_54">
    <path clip-path="url(#p3283b134cd)" d="M 584.337232 159.194497 
L 585.259017 159.194497 
L 585.259017 145.57534 
L 584.337232 145.57534 
z
" style="fill:#96c69a;fill-opacity:0.5;stroke:#ffffff;stroke-linejoin:miter;stroke-width:1.361916;"/>
   </g>
   <g id="patch_55">
    <path clip-path="url(#p3283b134cd)" d="M 584.337232 145.57534 
L 585.259017 145.57534 
L 585.259017 131.956182 
L 584.337232 131.956182 
z
" style="fill:#96c69a;fill-opacity:0.5;stroke:#ffffff;stroke-linejoin:miter;stroke-width:1.361916;"/>
   </g>
   <g id="patch_56">
    <path d="M 584.337232 603.86 
L 584.337232 109.484571 
" style="fill:none;stroke:#262626;stroke-linecap:square;stroke-linejoin:miter;stroke-width:2.5;"/>
   </g>
   <g id="patch_57">
    <path d="M 584.337232 603.86 
L 667.574375 603.86 
" style="fill:none;stroke:#262626;stroke-linecap:square;stroke-linejoin:miter;stroke-width:2.5;"/>
   </g>
  </g>
 </g>
 <defs>
  <clipPath id="p087f13e991">
   <rect height="494.375429" width="482.775429" x="84.914375" y="109.484571"/>
  </clipPath>
  <clipPath id="p7f0871bf4b">
   <rect height="85.237143" width="482.775429" x="84.914375" y="7.2"/>
  </clipPath>
  <clipPath id="p3283b134cd">
   <rect height="494.375429" width="83.237143" x="584.337232" y="109.484571"/>
  </clipPath>
 </defs>
</svg>
