<?xml version="1.0" encoding="utf-8" standalone="no"?>
<!DOCTYPE svg PUBLIC "-//W3C//DTD SVG 1.1//EN"
  "http://www.w3.org/Graphics/SVG/1.1/DTD/svg11.dtd">
<svg height="675.079375pt" version="1.1" viewBox="0 0 693.424777 675.079375" width="693.424777pt" xmlns="http://www.w3.org/2000/svg" xmlns:xlink="http://www.w3.org/1999/xlink">
 <metadata>
  <rdf:RDF xmlns:cc="http://creativecommons.org/ns#" xmlns:dc="http://purl.org/dc/elements/1.1/" xmlns:rdf="http://www.w3.org/1999/02/22-rdf-syntax-ns#">
   <cc:Work>
    <dc:type rdf:resource="http://purl.org/dc/dcmitype/StillImage"/>
    <dc:date>2021-07-16T21:44:03.041727</dc:date>
    <dc:format>image/svg+xml</dc:format>
    <dc:creator>
     <cc:Agent>
      <dc:title>Matplotlib v3.4.2, https://matplotlib.org/</dc:title>
     </cc:Agent>
    </dc:creator>
   </cc:Work>
  </rdf:RDF>
 </metadata>
 <defs>
  <style type="text/css">*{stroke-linecap:butt;stroke-linejoin:round;}</style>
 </defs>
 <g id="figure_1">
  <g id="patch_1">
   <path d="M 0 675.079375 
L 693.424777 675.079375 
L 693.424777 0 
L 0 0 
z
" style="fill:#ffffff;"/>
  </g>
  <g id="axes_1">
   <g id="patch_2">
    <path d="M 84.914375 603.86 
L 567.689804 603.86 
L 567.689804 109.484571 
L 84.914375 109.484571 
z
" style="fill:none;"/>
   </g>
   <g id="matplotlib.axis_1">
    <g id="xtick_1">
     <g id="text_1">
      <!-- 0 -->
      <g style="fill:#262626;" transform="translate(99.64041 636.076563)scale(0.22 -0.22)">
       <defs>
        <path d="M 2034 4250 
Q 1547 4250 1301 3770 
Q 1056 3291 1056 2328 
Q 1056 1369 1301 889 
Q 1547 409 2034 409 
Q 2525 409 2770 889 
Q 3016 1369 3016 2328 
Q 3016 3291 2770 3770 
Q 2525 4250 2034 4250 
z
M 2034 4750 
Q 2819 4750 3233 4129 
Q 3647 3509 3647 2328 
Q 3647 1150 3233 529 
Q 2819 -91 2034 -91 
Q 1250 -91 836 529 
Q 422 1150 422 2328 
Q 422 3509 836 4129 
Q 1250 4750 2034 4750 
z
" id="DejaVuSans-30" transform="scale(0.015625)"/>
       </defs>
       <use xlink:href="#DejaVuSans-30"/>
      </g>
     </g>
    </g>
    <g id="xtick_2">
     <g id="text_2">
      <!-- 20000 -->
      <g style="fill:#262626;" transform="translate(159.466671 636.076563)scale(0.22 -0.22)">
       <defs>
        <path d="M 1228 531 
L 3431 531 
L 3431 0 
L 469 0 
L 469 531 
Q 828 903 1448 1529 
Q 2069 2156 2228 2338 
Q 2531 2678 2651 2914 
Q 2772 3150 2772 3378 
Q 2772 3750 2511 3984 
Q 2250 4219 1831 4219 
Q 1534 4219 1204 4116 
Q 875 4013 500 3803 
L 500 4441 
Q 881 4594 1212 4672 
Q 1544 4750 1819 4750 
Q 2544 4750 2975 4387 
Q 3406 4025 3406 3419 
Q 3406 3131 3298 2873 
Q 3191 2616 2906 2266 
Q 2828 2175 2409 1742 
Q 1991 1309 1228 531 
z
" id="DejaVuSans-32" transform="scale(0.015625)"/>
       </defs>
       <use xlink:href="#DejaVuSans-32"/>
       <use x="63.623047" xlink:href="#DejaVuSans-30"/>
       <use x="127.246094" xlink:href="#DejaVuSans-30"/>
       <use x="190.869141" xlink:href="#DejaVuSans-30"/>
       <use x="254.492188" xlink:href="#DejaVuSans-30"/>
      </g>
     </g>
    </g>
    <g id="xtick_3">
     <g id="text_3">
      <!-- 40000 -->
      <g style="fill:#262626;" transform="translate(247.287932 636.076563)scale(0.22 -0.22)">
       <defs>
        <path d="M 2419 4116 
L 825 1625 
L 2419 1625 
L 2419 4116 
z
M 2253 4666 
L 3047 4666 
L 3047 1625 
L 3713 1625 
L 3713 1100 
L 3047 1100 
L 3047 0 
L 2419 0 
L 2419 1100 
L 313 1100 
L 313 1709 
L 2253 4666 
z
" id="DejaVuSans-34" transform="scale(0.015625)"/>
       </defs>
       <use xlink:href="#DejaVuSans-34"/>
       <use x="63.623047" xlink:href="#DejaVuSans-30"/>
       <use x="127.246094" xlink:href="#DejaVuSans-30"/>
       <use x="190.869141" xlink:href="#DejaVuSans-30"/>
       <use x="254.492188" xlink:href="#DejaVuSans-30"/>
      </g>
     </g>
    </g>
    <g id="xtick_4">
     <g id="text_4">
      <!-- 60000 -->
      <g style="fill:#262626;" transform="translate(335.109193 636.076563)scale(0.22 -0.22)">
       <defs>
        <path d="M 2113 2584 
Q 1688 2584 1439 2293 
Q 1191 2003 1191 1497 
Q 1191 994 1439 701 
Q 1688 409 2113 409 
Q 2538 409 2786 701 
Q 3034 994 3034 1497 
Q 3034 2003 2786 2293 
Q 2538 2584 2113 2584 
z
M 3366 4563 
L 3366 3988 
Q 3128 4100 2886 4159 
Q 2644 4219 2406 4219 
Q 1781 4219 1451 3797 
Q 1122 3375 1075 2522 
Q 1259 2794 1537 2939 
Q 1816 3084 2150 3084 
Q 2853 3084 3261 2657 
Q 3669 2231 3669 1497 
Q 3669 778 3244 343 
Q 2819 -91 2113 -91 
Q 1303 -91 875 529 
Q 447 1150 447 2328 
Q 447 3434 972 4092 
Q 1497 4750 2381 4750 
Q 2619 4750 2861 4703 
Q 3103 4656 3366 4563 
z
" id="DejaVuSans-36" transform="scale(0.015625)"/>
       </defs>
       <use xlink:href="#DejaVuSans-36"/>
       <use x="63.623047" xlink:href="#DejaVuSans-30"/>
       <use x="127.246094" xlink:href="#DejaVuSans-30"/>
       <use x="190.869141" xlink:href="#DejaVuSans-30"/>
       <use x="254.492188" xlink:href="#DejaVuSans-30"/>
      </g>
     </g>
    </g>
    <g id="xtick_5">
     <g id="text_5">
      <!-- 80000 -->
      <g style="fill:#262626;" transform="translate(422.930455 636.076563)scale(0.22 -0.22)">
       <defs>
        <path d="M 2034 2216 
Q 1584 2216 1326 1975 
Q 1069 1734 1069 1313 
Q 1069 891 1326 650 
Q 1584 409 2034 409 
Q 2484 409 2743 651 
Q 3003 894 3003 1313 
Q 3003 1734 2745 1975 
Q 2488 2216 2034 2216 
z
M 1403 2484 
Q 997 2584 770 2862 
Q 544 3141 544 3541 
Q 544 4100 942 4425 
Q 1341 4750 2034 4750 
Q 2731 4750 3128 4425 
Q 3525 4100 3525 3541 
Q 3525 3141 3298 2862 
Q 3072 2584 2669 2484 
Q 3125 2378 3379 2068 
Q 3634 1759 3634 1313 
Q 3634 634 3220 271 
Q 2806 -91 2034 -91 
Q 1263 -91 848 271 
Q 434 634 434 1313 
Q 434 1759 690 2068 
Q 947 2378 1403 2484 
z
M 1172 3481 
Q 1172 3119 1398 2916 
Q 1625 2713 2034 2713 
Q 2441 2713 2670 2916 
Q 2900 3119 2900 3481 
Q 2900 3844 2670 4047 
Q 2441 4250 2034 4250 
Q 1625 4250 1398 4047 
Q 1172 3844 1172 3481 
z
" id="DejaVuSans-38" transform="scale(0.015625)"/>
       </defs>
       <use xlink:href="#DejaVuSans-38"/>
       <use x="63.623047" xlink:href="#DejaVuSans-30"/>
       <use x="127.246094" xlink:href="#DejaVuSans-30"/>
       <use x="190.869141" xlink:href="#DejaVuSans-30"/>
       <use x="254.492188" xlink:href="#DejaVuSans-30"/>
      </g>
     </g>
    </g>
    <g id="xtick_6">
     <g id="text_6">
      <!-- 100000 -->
      <g style="fill:#262626;" transform="translate(503.752966 636.076563)scale(0.22 -0.22)">
       <defs>
        <path d="M 794 531 
L 1825 531 
L 1825 4091 
L 703 3866 
L 703 4441 
L 1819 4666 
L 2450 4666 
L 2450 531 
L 3481 531 
L 3481 0 
L 794 0 
L 794 531 
z
" id="DejaVuSans-31" transform="scale(0.015625)"/>
       </defs>
       <use xlink:href="#DejaVuSans-31"/>
       <use x="63.623047" xlink:href="#DejaVuSans-30"/>
       <use x="127.246094" xlink:href="#DejaVuSans-30"/>
       <use x="190.869141" xlink:href="#DejaVuSans-30"/>
       <use x="254.492188" xlink:href="#DejaVuSans-30"/>
       <use x="318.115234" xlink:href="#DejaVuSans-30"/>
      </g>
     </g>
    </g>
    <g id="text_7">
     <!-- MDTU -->
     <g style="fill:#262626;" transform="translate(290.596464 662.888125)scale(0.24 -0.24)">
      <defs>
       <path d="M 628 4666 
L 1569 4666 
L 2759 1491 
L 3956 4666 
L 4897 4666 
L 4897 0 
L 4281 0 
L 4281 4097 
L 3078 897 
L 2444 897 
L 1241 4097 
L 1241 0 
L 628 0 
L 628 4666 
z
" id="DejaVuSans-4d" transform="scale(0.015625)"/>
       <path d="M 1259 4147 
L 1259 519 
L 2022 519 
Q 2988 519 3436 956 
Q 3884 1394 3884 2338 
Q 3884 3275 3436 3711 
Q 2988 4147 2022 4147 
L 1259 4147 
z
M 628 4666 
L 1925 4666 
Q 3281 4666 3915 4102 
Q 4550 3538 4550 2338 
Q 4550 1131 3912 565 
Q 3275 0 1925 0 
L 628 0 
L 628 4666 
z
" id="DejaVuSans-44" transform="scale(0.015625)"/>
       <path d="M -19 4666 
L 3928 4666 
L 3928 4134 
L 2272 4134 
L 2272 0 
L 1638 0 
L 1638 4134 
L -19 4134 
L -19 4666 
z
" id="DejaVuSans-54" transform="scale(0.015625)"/>
       <path d="M 556 4666 
L 1191 4666 
L 1191 1831 
Q 1191 1081 1462 751 
Q 1734 422 2344 422 
Q 2950 422 3222 751 
Q 3494 1081 3494 1831 
L 3494 4666 
L 4128 4666 
L 4128 1753 
Q 4128 841 3676 375 
Q 3225 -91 2344 -91 
Q 1459 -91 1007 375 
Q 556 841 556 1753 
L 556 4666 
z
" id="DejaVuSans-55" transform="scale(0.015625)"/>
      </defs>
      <use xlink:href="#DejaVuSans-4d"/>
      <use x="86.279297" xlink:href="#DejaVuSans-44"/>
      <use x="163.28125" xlink:href="#DejaVuSans-54"/>
      <use x="224.365234" xlink:href="#DejaVuSans-55"/>
     </g>
    </g>
   </g>
   <g id="matplotlib.axis_2">
    <g id="ytick_1">
     <g id="text_8">
      <!-- 0.2 -->
      <g style="fill:#262626;" transform="translate(34.4275 607.809052)scale(0.22 -0.22)">
       <defs>
        <path d="M 684 794 
L 1344 794 
L 1344 0 
L 684 0 
L 684 794 
z
" id="DejaVuSans-2e" transform="scale(0.015625)"/>
       </defs>
       <use xlink:href="#DejaVuSans-30"/>
       <use x="63.623047" xlink:href="#DejaVuSans-2e"/>
       <use x="95.410156" xlink:href="#DejaVuSans-32"/>
      </g>
     </g>
    </g>
    <g id="ytick_2">
     <g id="text_9">
      <!-- 0.4 -->
      <g style="fill:#262626;" transform="translate(34.4275 551.965632)scale(0.22 -0.22)">
       <use xlink:href="#DejaVuSans-30"/>
       <use x="63.623047" xlink:href="#DejaVuSans-2e"/>
       <use x="95.410156" xlink:href="#DejaVuSans-34"/>
      </g>
     </g>
    </g>
    <g id="ytick_3">
     <g id="text_10">
      <!-- 0.6 -->
      <g style="fill:#262626;" transform="translate(34.4275 496.122212)scale(0.22 -0.22)">
       <use xlink:href="#DejaVuSans-30"/>
       <use x="63.623047" xlink:href="#DejaVuSans-2e"/>
       <use x="95.410156" xlink:href="#DejaVuSans-36"/>
      </g>
     </g>
    </g>
    <g id="ytick_4">
     <g id="text_11">
      <!-- 0.8 -->
      <g style="fill:#262626;" transform="translate(34.4275 440.278792)scale(0.22 -0.22)">
       <use xlink:href="#DejaVuSans-30"/>
       <use x="63.623047" xlink:href="#DejaVuSans-2e"/>
       <use x="95.410156" xlink:href="#DejaVuSans-38"/>
      </g>
     </g>
    </g>
    <g id="ytick_5">
     <g id="text_12">
      <!-- 1.0 -->
      <g style="fill:#262626;" transform="translate(34.4275 384.435372)scale(0.22 -0.22)">
       <use xlink:href="#DejaVuSans-31"/>
       <use x="63.623047" xlink:href="#DejaVuSans-2e"/>
       <use x="95.410156" xlink:href="#DejaVuSans-30"/>
      </g>
     </g>
    </g>
    <g id="ytick_6">
     <g id="text_13">
      <!-- 1.2 -->
      <g style="fill:#262626;" transform="translate(34.4275 328.591952)scale(0.22 -0.22)">
       <use xlink:href="#DejaVuSans-31"/>
       <use x="63.623047" xlink:href="#DejaVuSans-2e"/>
       <use x="95.410156" xlink:href="#DejaVuSans-32"/>
      </g>
     </g>
    </g>
    <g id="ytick_7">
     <g id="text_14">
      <!-- 1.4 -->
      <g style="fill:#262626;" transform="translate(34.4275 272.748532)scale(0.22 -0.22)">
       <use xlink:href="#DejaVuSans-31"/>
       <use x="63.623047" xlink:href="#DejaVuSans-2e"/>
       <use x="95.410156" xlink:href="#DejaVuSans-34"/>
      </g>
     </g>
    </g>
    <g id="ytick_8">
     <g id="text_15">
      <!-- 1.6 -->
      <g style="fill:#262626;" transform="translate(34.4275 216.905112)scale(0.22 -0.22)">
       <use xlink:href="#DejaVuSans-31"/>
       <use x="63.623047" xlink:href="#DejaVuSans-2e"/>
       <use x="95.410156" xlink:href="#DejaVuSans-36"/>
      </g>
     </g>
    </g>
    <g id="ytick_9">
     <g id="text_16">
      <!-- 1.8 -->
      <g style="fill:#262626;" transform="translate(34.4275 161.061692)scale(0.22 -0.22)">
       <use xlink:href="#DejaVuSans-31"/>
       <use x="63.623047" xlink:href="#DejaVuSans-2e"/>
       <use x="95.410156" xlink:href="#DejaVuSans-38"/>
      </g>
     </g>
    </g>
    <g id="text_17">
     <!-- $E$ -->
     <g style="fill:#262626;" transform="translate(25.43625 364.352286)rotate(-90)scale(0.24 -0.24)">
      <defs>
       <path d="M 1081 4666 
L 4031 4666 
L 3928 4134 
L 1606 4134 
L 1338 2753 
L 3566 2753 
L 3463 2222 
L 1234 2222 
L 909 531 
L 3284 531 
L 3181 0 
L 172 0 
L 1081 4666 
z
" id="DejaVuSans-Oblique-45" transform="scale(0.015625)"/>
      </defs>
      <use transform="translate(0 0.09375)" xlink:href="#DejaVuSans-Oblique-45"/>
     </g>
    </g>
   </g>
   <g id="line2d_1">
    <path clip-path="url(#pa2c7803354)" d="M 106.858713 411.323754 
L 107.078266 209.589904 
L 107.297819 469.270003 
L 107.517372 481.454007 
L 107.956478 347.62374 
L 108.176032 427.495356 
L 108.395585 449.107242 
L 108.615138 501.27698 
L 108.834691 492.514935 
L 109.054244 378.621542 
L 109.273797 396.170762 
L 109.493351 460.121862 
L 109.712904 476.594486 
L 109.932457 237.571241 
L 110.15201 453.900809 
L 110.371563 391.468954 
L 110.591116 466.213023 
L 110.810669 398.204441 
L 111.030223 390.033586 
L 111.249776 393.43478 
L 111.469329 494.657654 
L 111.688882 355.403245 
L 111.908435 417.303596 
L 112.127988 370.781306 
L 112.347541 491.12561 
L 112.567095 532.881796 
L 112.786648 388.166657 
L 113.006201 444.575573 
L 113.225754 365.705932 
L 113.445307 445.635206 
L 113.66486 458.000541 
L 113.884414 268.836802 
L 114.103967 482.434995 
L 114.32352 441.751312 
L 114.543073 533.536011 
L 114.762626 374.690057 
L 114.982179 409.464392 
L 115.201732 471.677634 
L 115.421286 408.612249 
L 115.640839 407.874172 
L 115.860392 402.531 
L 116.079945 525.30003 
L 116.299498 416.911148 
L 116.519051 536.100754 
L 116.738605 455.943877 
L 116.958158 441.643408 
L 117.177711 394.848521 
L 117.397264 439.141312 
L 117.616817 389.65905 
L 117.83637 274.503013 
L 118.055923 450.425344 
L 118.275477 340.725505 
L 118.49503 458.230942 
L 118.714583 483.162943 
L 118.934136 486.017348 
L 119.153689 393.074271 
L 119.373242 428.303893 
L 119.592796 276.744523 
L 119.812349 488.41357 
L 120.031902 471.827846 
L 120.251455 524.721026 
L 120.471008 437.447057 
L 120.690561 463.411204 
L 120.910114 506.877347 
L 121.129668 520.751794 
L 121.349221 418.406064 
L 121.568774 483.926978 
L 121.788327 469.900491 
L 122.227433 266.385548 
L 122.446987 462.281885 
L 122.66654 403.750203 
L 122.886093 434.245257 
L 123.105646 526.032971 
L 123.325199 350.625635 
L 123.544752 463.525877 
L 123.764305 503.998998 
L 123.983859 355.126279 
L 124.203412 408.834297 
L 124.422965 335.504002 
L 124.642518 461.116314 
L 124.862071 447.031233 
L 125.081624 415.702868 
L 125.301178 482.232972 
L 125.520731 376.75439 
L 125.740284 375.182865 
L 125.959837 453.987632 
L 126.17939 386.689933 
L 126.398943 459.581474 
L 126.618496 471.357361 
L 126.83805 365.787217 
L 127.277156 435.060608 
L 127.496709 477.875169 
L 127.716262 486.148549 
L 127.935815 350.485599 
L 128.155369 527.575463 
L 128.374922 471.970954 
L 128.594475 481.600785 
L 128.814028 305.859202 
L 129.033581 283.729865 
L 129.253134 458.609124 
L 129.472687 463.42354 
L 129.692241 445.698459 
L 129.911794 450.458691 
L 130.131347 378.562095 
L 130.3509 360.010384 
L 130.570453 477.34121 
L 130.790006 494.606875 
L 131.00956 282.194387 
L 131.229113 519.711984 
L 131.448666 194.669964 
L 131.668219 443.871973 
L 131.887772 459.907055 
L 132.326878 438.00867 
L 132.546432 486.795942 
L 132.765985 484.745695 
L 132.985538 456.952058 
L 133.205091 521.151617 
L 133.424644 379.84084 
L 133.644197 450.128664 
L 133.863751 452.802529 
L 134.302857 477.742438 
L 134.52241 473.790068 
L 134.741963 478.600239 
L 134.961516 472.911317 
L 135.181069 424.60541 
L 135.400623 502.117459 
L 135.620176 237.130041 
L 136.059282 266.904756 
L 136.278835 480.978222 
L 136.498388 475.628767 
L 136.717941 386.927774 
L 136.937495 453.096562 
L 137.157048 419.905779 
L 137.376601 478.147418 
L 137.596154 436.323311 
L 137.815707 471.857221 
L 138.03526 443.704951 
L 138.254814 483.120412 
L 138.474367 484.406695 
L 138.69392 482.313345 
L 138.913473 490.917404 
L 139.133026 310.097985 
L 139.352579 325.654934 
L 139.572132 493.545164 
L 139.791686 472.106364 
L 140.011239 210.553249 
L 140.669898 364.622919 
L 140.889451 514.425983 
L 141.109005 401.800803 
L 141.328558 461.356741 
L 141.767664 298.033297 
L 141.987217 472.181347 
L 142.20677 326.305131 
L 142.426323 450.438504 
L 142.645877 454.98731 
L 142.86543 481.836864 
L 143.084983 371.300049 
L 143.304536 494.479596 
L 143.524089 386.997072 
L 143.963196 425.076057 
L 144.182749 467.800815 
L 144.402302 478.967551 
L 144.621855 359.076886 
L 144.841408 527.545047 
L 145.060961 344.587839 
L 145.280514 465.257249 
L 145.500068 500.341036 
L 145.719621 290.683495 
L 145.939174 452.056115 
L 146.158727 465.991757 
L 146.37828 348.127876 
L 146.817387 450.269542 
L 147.03694 230.467288 
L 147.256493 402.22366 
L 147.476046 441.063419 
L 147.695599 415.166747 
L 147.915152 471.059413 
L 148.134705 448.148545 
L 148.354259 509.289756 
L 148.573812 270.975066 
L 148.793365 444.742265 
L 149.012918 485.592809 
L 149.232471 284.006105 
L 149.452024 432.090383 
L 149.671578 433.212354 
L 149.891131 357.46372 
L 150.110684 451.938224 
L 150.330237 481.576562 
L 150.54979 468.183587 
L 150.769343 523.152122 
L 150.988896 347.245408 
L 151.20845 477.080312 
L 151.428003 483.426869 
L 151.647556 456.655773 
L 151.867109 462.931805 
L 152.086662 482.30468 
L 152.306215 521.02165 
L 152.525769 486.948358 
L 152.745322 426.173043 
L 152.964875 460.112269 
L 153.184428 440.973132 
L 153.403981 537.074059 
L 153.623534 452.318362 
L 153.843087 440.859251 
L 154.062641 493.869943 
L 154.282194 420.837857 
L 154.7213 492.647061 
L 154.940853 436.050729 
L 155.160406 410.051526 
L 155.37996 364.067021 
L 155.599513 392.432552 
L 155.819066 456.203241 
L 156.038619 364.260943 
L 156.258172 495.982639 
L 156.477725 456.946412 
L 156.697278 298.425828 
L 156.916832 334.258282 
L 157.136385 331.316701 
L 157.355938 404.321663 
L 157.575491 405.068026 
L 157.795044 493.807656 
L 158.014597 478.143316 
L 158.234151 523.555046 
L 158.453704 460.808688 
L 158.673257 492.633729 
L 158.89281 360.528386 
L 159.112363 473.450142 
L 159.331916 448.819941 
L 159.771023 544.062393 
L 159.990576 339.986634 
L 160.210129 334.770388 
L 160.429682 491.942486 
L 160.649235 509.07771 
L 160.868788 384.495541 
L 161.088342 415.052728 
L 161.307895 467.545837 
L 161.527448 442.291744 
L 161.747001 444.533942 
L 161.966554 439.169061 
L 162.186107 437.818772 
L 162.40566 555.584531 
L 162.844767 421.85591 
L 163.06432 430.812514 
L 163.283873 464.717194 
L 163.503426 429.832647 
L 163.722979 513.027007 
L 163.942532 495.400831 
L 164.162086 465.472733 
L 164.381639 404.542946 
L 164.601192 473.839589 
L 164.820745 340.404911 
L 165.040298 477.176922 
L 165.259851 504.96594 
L 165.479405 402.047133 
L 165.698958 463.050094 
L 165.918511 406.007836 
L 166.138064 497.931342 
L 166.357617 416.462555 
L 166.57717 447.59547 
L 166.796723 358.011399 
L 167.016277 403.573145 
L 167.23583 412.241011 
L 167.455383 460.479243 
L 167.674936 456.021896 
L 167.894489 375.438296 
L 168.114042 499.083539 
L 168.333596 433.635582 
L 168.553149 406.688759 
L 168.772702 406.049675 
L 168.992255 527.7472 
L 169.211808 527.197129 
L 169.431361 443.024581 
L 169.650914 469.626439 
L 169.870468 473.167525 
L 170.090021 454.899605 
L 170.309574 380.381176 
L 170.529127 507.125303 
L 170.968233 310.518074 
L 171.187787 543.847703 
L 171.40734 466.961335 
L 171.626893 451.858657 
L 171.846446 465.240307 
L 172.285552 290.704612 
L 172.505105 446.239034 
L 172.724659 493.274954 
L 172.944212 441.470636 
L 173.383318 510.650232 
L 173.602871 489.74694 
L 173.822424 400.834432 
L 174.041978 493.582006 
L 174.261531 435.136959 
L 174.481084 434.583792 
L 174.700637 540.843133 
L 174.92019 493.004714 
L 175.139743 518.62369 
L 175.359296 496.144895 
L 175.57885 406.002308 
L 175.798403 487.44166 
L 176.237509 364.974732 
L 176.457062 478.338255 
L 176.676615 419.911636 
L 176.896169 553.339199 
L 177.335275 412.512093 
L 177.554828 475.50524 
L 177.774381 354.125954 
L 177.993934 356.177711 
L 178.213487 538.404805 
L 178.433041 473.647832 
L 178.652594 497.440274 
L 178.872147 418.788102 
L 179.0917 443.650904 
L 179.311253 438.675327 
L 179.530806 413.135419 
L 179.75036 546.646153 
L 179.969913 497.256727 
L 180.189466 341.556268 
L 180.409019 473.008819 
L 180.628572 472.553191 
L 180.848125 471.014786 
L 181.067678 350.814192 
L 181.287232 512.475153 
L 181.506785 263.114011 
L 181.726338 509.397281 
L 182.165444 394.205942 
L 182.384997 484.729666 
L 182.824104 353.448892 
L 183.043657 456.788975 
L 183.26321 413.030704 
L 183.482763 417.032307 
L 183.702316 459.165907 
L 183.921869 425.105318 
L 184.141423 410.158206 
L 184.580529 556.153857 
L 185.019635 374.074903 
L 185.239188 407.314982 
L 185.458742 494.275972 
L 185.678295 481.57537 
L 186.117401 417.214362 
L 186.336954 407.091002 
L 186.556507 369.063744 
L 186.77606 357.73078 
L 186.995614 435.783265 
L 187.215167 561.489083 
L 187.43472 414.272741 
L 187.654273 412.794972 
L 187.873826 403.381242 
L 188.093379 488.56947 
L 188.312932 281.689131 
L 188.752039 528.896659 
L 189.191145 356.115865 
L 189.410698 382.137286 
L 189.630251 500.827449 
L 189.849805 436.222519 
L 190.069358 498.71328 
L 190.288911 472.2283 
L 190.508464 513.304908 
L 190.728017 398.512312 
L 190.94757 469.652832 
L 191.167123 443.074273 
L 191.386677 463.072743 
L 191.60623 325.593651 
L 191.825783 511.040007 
L 192.045336 489.538201 
L 192.484442 375.627376 
L 192.703996 253.140621 
L 192.923549 446.553794 
L 193.143102 461.481354 
L 193.362655 391.268369 
L 193.582208 360.224411 
L 193.801761 520.222976 
L 194.240868 345.615018 
L 194.460421 457.929503 
L 194.679974 447.855933 
L 194.899527 372.89701 
L 195.11908 412.279386 
L 195.338633 501.190082 
L 195.558187 410.112024 
L 195.77774 527.477167 
L 196.216846 451.542924 
L 196.436399 453.045636 
L 196.655952 498.5876 
L 196.875505 467.865899 
L 197.095059 541.355417 
L 197.314612 500.873455 
L 197.534165 416.93219 
L 197.753718 511.357125 
L 197.973271 435.400322 
L 198.192824 453.307928 
L 198.412378 380.093821 
L 198.631931 492.104209 
L 198.851484 515.233228 
L 199.071037 418.861537 
L 199.29059 406.926923 
L 199.510143 463.190564 
L 199.729696 410.987616 
L 199.94925 447.819653 
L 200.168803 387.790294 
L 200.388356 500.44093 
L 200.607909 534.570865 
L 200.827462 380.255741 
L 201.047015 488.87061 
L 201.266569 367.835775 
L 201.486122 455.482186 
L 201.705675 465.996921 
L 201.925228 407.567449 
L 202.364334 457.715966 
L 202.583887 439.838036 
L 202.803441 466.038931 
L 203.022994 348.707767 
L 203.242547 530.890782 
L 203.4621 443.253561 
L 203.681653 430.163105 
L 203.901206 510.574917 
L 204.12076 300.596791 
L 204.340313 343.402445 
L 204.559866 525.972345 
L 204.779419 297.396131 
L 204.998972 472.618151 
L 205.218525 449.73545 
L 205.438078 260.292237 
L 205.657632 474.343513 
L 205.877185 394.304083 
L 206.096738 429.487837 
L 206.316291 504.025544 
L 206.535844 252.285139 
L 206.974951 487.646065 
L 207.194504 517.835653 
L 207.414057 428.84196 
L 207.63361 520.967242 
L 207.853163 532.950415 
L 208.292269 277.371988 
L 208.511823 501.86153 
L 208.731376 457.30303 
L 208.950929 519.111197 
L 209.170482 501.596287 
L 209.390035 233.983787 
L 209.609588 530.354058 
L 210.268248 450.419501 
L 210.487801 320.698952 
L 210.707354 466.23137 
L 210.926907 424.428301 
L 211.14646 420.862463 
L 211.366014 236.245431 
L 211.585567 480.47871 
L 211.80512 413.461165 
L 212.024673 423.370012 
L 212.244226 438.701951 
L 212.463779 413.6168 
L 212.683333 433.929047 
L 212.902886 524.361004 
L 213.122439 521.673792 
L 213.341992 381.157398 
L 213.561545 463.823051 
L 213.781098 467.3583 
L 214.000651 437.401549 
L 214.220205 486.865501 
L 214.439758 464.590256 
L 214.659311 427.232849 
L 214.878864 463.352253 
L 215.098417 369.306006 
L 215.31797 515.846283 
L 215.537523 379.233975 
L 215.757077 451.187567 
L 215.97663 444.407511 
L 216.196183 373.450573 
L 216.415736 493.223861 
L 216.635289 391.321513 
L 216.854842 441.167136 
L 217.074396 423.288592 
L 217.293949 445.464428 
L 217.513502 427.954867 
L 217.733055 400.308992 
L 217.952608 509.411152 
L 218.172161 412.557731 
L 218.391714 429.591306 
L 218.611268 463.960198 
L 218.830821 355.882595 
L 219.050374 342.340159 
L 219.269927 448.449643 
L 219.48948 491.494094 
L 219.709033 454.74272 
L 219.928587 470.681599 
L 220.14814 417.345494 
L 220.367693 488.787298 
L 220.587246 451.629664 
L 220.806799 446.428503 
L 221.026352 516.531295 
L 221.245905 445.414352 
L 221.465459 266.572725 
L 221.685012 526.320825 
L 221.904565 467.993637 
L 222.124118 377.838779 
L 222.343671 362.191321 
L 222.563224 482.195664 
L 222.782778 440.466989 
L 223.002331 483.749634 
L 223.221884 483.697367 
L 223.441437 418.461191 
L 223.66099 398.589102 
L 223.880543 287.954963 
L 224.100096 442.67741 
L 224.31965 477.569519 
L 224.539203 341.666978 
L 224.758756 442.438123 
L 224.978309 276.453853 
L 225.417415 494.797637 
L 225.636969 482.790064 
L 225.856522 338.531265 
L 226.076075 456.278349 
L 226.295628 441.532357 
L 226.515181 503.93305 
L 226.954287 422.580869 
L 227.173841 462.441496 
L 227.393394 463.080953 
L 227.612947 462.192694 
L 227.8325 430.916851 
L 228.052053 303.074106 
L 228.271606 456.597852 
L 228.49116 492.128748 
L 228.710713 468.178139 
L 228.930266 398.288238 
L 229.149819 428.355157 
L 229.369372 400.741449 
L 229.588925 477.618152 
L 229.808478 416.326466 
L 230.028032 451.133309 
L 230.247585 416.121711 
L 230.467138 322.395334 
L 230.686691 335.64028 
L 230.906244 474.996247 
L 231.125797 319.787866 
L 231.345351 418.155099 
L 231.564904 448.022726 
L 232.00401 404.449184 
L 232.223563 438.468815 
L 232.443116 370.944774 
L 232.662669 519.03695 
L 232.882223 327.962115 
L 233.101776 538.270359 
L 233.321329 455.169229 
L 233.540882 471.447106 
L 233.760435 250.457195 
L 233.979988 465.600884 
L 234.199542 444.750917 
L 234.419095 436.88093 
L 234.638648 465.500054 
L 234.858201 463.168743 
L 235.077754 394.292485 
L 235.297307 452.964565 
L 235.51686 444.343477 
L 235.736414 546.470229 
L 235.955967 522.849702 
L 236.17552 480.466416 
L 236.395073 539.715368 
L 236.614626 229.620951 
L 236.834179 519.362815 
L 237.053733 397.56219 
L 237.273286 409.684339 
L 237.492839 463.175923 
L 237.712392 437.303494 
L 238.151498 513.179853 
L 238.371051 506.857473 
L 238.590605 401.10849 
L 238.810158 457.661328 
L 239.029711 383.617861 
L 239.68837 452.055394 
L 239.907924 528.098641 
L 240.127477 412.235864 
L 240.34703 475.843388 
L 240.566583 457.72907 
L 240.786136 479.475649 
L 241.225242 424.683836 
L 241.444796 451.694243 
L 241.664349 365.79407 
L 241.883902 390.83747 
L 242.103455 435.264488 
L 242.323008 428.357325 
L 242.542561 429.506339 
L 242.762114 400.283192 
L 242.981668 529.151938 
L 243.201221 467.020244 
L 243.420774 453.921826 
L 243.640327 421.499056 
L 243.85988 427.638824 
L 244.079433 389.211787 
L 244.298987 524.091542 
L 244.51854 497.644289 
L 244.738093 393.449466 
L 245.177199 534.210898 
L 245.616305 373.816841 
L 245.835859 336.88228 
L 246.055412 425.287753 
L 246.274965 403.094257 
L 246.494518 182.176435 
L 246.714071 462.018695 
L 246.933624 517.059448 
L 247.153178 466.213044 
L 247.372731 500.34763 
L 247.592284 446.58603 
L 247.811837 466.156872 
L 248.03139 460.294103 
L 248.250943 490.11582 
L 248.470496 451.791149 
L 248.69005 513.265633 
L 248.909603 438.88553 
L 249.129156 473.62664 
L 249.348709 319.419771 
L 249.568262 317.188638 
L 249.787815 465.504127 
L 250.007369 338.440615 
L 250.226922 450.799728 
L 250.446475 455.314235 
L 250.666028 414.504163 
L 250.885581 470.380731 
L 251.105134 259.481156 
L 251.324687 452.348157 
L 251.544241 373.80592 
L 251.763794 371.786889 
L 251.983347 460.426887 
L 252.2029 468.840409 
L 252.422453 413.240407 
L 252.642006 308.440463 
L 252.86156 417.331186 
L 253.081113 383.910739 
L 253.300666 491.953915 
L 253.520219 429.207782 
L 253.739772 451.188686 
L 254.178878 458.973632 
L 254.617985 491.062247 
L 254.837538 491.824918 
L 255.057091 495.919676 
L 255.276644 513.487624 
L 255.496197 398.563958 
L 255.715751 471.884079 
L 255.935304 303.177541 
L 256.154857 316.051382 
L 256.37441 460.820595 
L 256.593963 351.761755 
L 256.813516 527.702821 
L 257.033069 439.175854 
L 257.252623 489.916956 
L 257.472176 438.038909 
L 257.691729 425.266432 
L 257.911282 434.971543 
L 258.130835 526.157017 
L 258.350388 511.329282 
L 258.569942 315.82565 
L 258.789495 324.619634 
L 259.228601 470.930409 
L 259.448154 403.463325 
L 259.667707 401.866765 
L 259.88726 477.575815 
L 260.326367 156.039404 
L 260.54592 524.843488 
L 260.985026 380.41571 
L 261.204579 468.297021 
L 261.424133 381.424685 
L 261.643686 523.964584 
L 261.863239 198.114839 
L 262.082792 364.64262 
L 262.302345 370.163615 
L 262.521898 445.568522 
L 262.741451 383.759858 
L 262.961005 516.484192 
L 263.619664 373.031401 
L 263.839217 466.36385 
L 264.05877 232.025215 
L 264.71743 480.843829 
L 264.936983 478.68183 
L 265.156536 469.933389 
L 265.376089 467.580886 
L 265.595642 461.844439 
L 266.034749 419.30023 
L 266.254302 465.939594 
L 266.473855 435.935606 
L 266.693408 131.956182 
L 266.912961 392.17951 
L 267.132514 407.899404 
L 267.352068 441.690279 
L 267.571621 392.50814 
L 268.010727 465.579535 
L 268.23028 392.520566 
L 268.449833 406.074203 
L 268.669387 293.715567 
L 268.88894 474.481791 
L 269.108493 489.043954 
L 269.328046 486.672678 
L 269.547599 359.754661 
L 269.767152 474.977247 
L 269.986705 493.351407 
L 270.206259 456.2357 
L 270.425812 364.890141 
L 270.645365 417.044118 
L 270.864918 344.291244 
L 271.084471 469.60343 
L 271.304024 522.04525 
L 271.523578 345.747278 
L 271.743131 326.908612 
L 272.182237 494.392586 
L 272.40179 292.954919 
L 272.621343 401.628983 
L 272.840896 327.253198 
L 273.06045 460.835842 
L 273.280003 500.519688 
L 273.499556 436.148732 
L 273.719109 432.711744 
L 273.938662 455.027172 
L 274.158215 408.091945 
L 274.377769 290.672664 
L 274.597322 392.522562 
L 274.816875 386.785078 
L 275.036428 539.486669 
L 275.475534 297.733725 
L 275.695087 303.792704 
L 275.914641 504.070058 
L 276.134194 466.076301 
L 276.353747 452.643689 
L 276.5733 353.805996 
L 276.792853 484.333866 
L 277.012406 504.353921 
L 277.23196 410.859547 
L 277.671066 480.100577 
L 277.890619 531.760527 
L 278.110172 432.106836 
L 278.329725 470.833939 
L 278.549278 415.909881 
L 278.768832 401.301277 
L 278.988385 360.548819 
L 279.207938 436.613839 
L 279.427491 372.672374 
L 279.647044 411.488245 
L 279.866597 375.643677 
L 280.086151 417.352316 
L 280.305704 362.563993 
L 280.525257 372.705877 
L 280.74481 492.034006 
L 280.964363 406.130431 
L 281.183916 506.81418 
L 281.403469 428.16109 
L 281.623023 432.061211 
L 281.842576 438.301149 
L 282.062129 275.259532 
L 282.281682 327.705361 
L 282.501235 482.411824 
L 283.159895 287.215297 
L 283.379448 452.307239 
L 283.818554 442.341474 
L 284.038107 381.451277 
L 284.25766 437.481635 
L 284.477214 411.63101 
L 284.696767 465.418578 
L 284.91632 396.959 
L 285.135873 444.442219 
L 285.355426 359.236279 
L 285.574979 464.112682 
L 285.794533 444.537531 
L 286.014086 405.130607 
L 286.233639 456.344552 
L 286.453192 456.686299 
L 286.672745 488.983509 
L 286.892298 470.137292 
L 287.111851 559.530375 
L 287.331405 410.892432 
L 287.550958 471.990283 
L 287.770511 382.447221 
L 288.209617 501.489378 
L 288.648724 408.644987 
L 288.868277 422.506426 
L 289.08783 465.529201 
L 289.307383 367.650636 
L 289.746489 499.304112 
L 289.966042 527.245136 
L 290.185596 412.691679 
L 290.624702 476.089025 
L 290.844255 478.466328 
L 291.063808 484.710767 
L 291.283361 425.289391 
L 291.502915 515.311257 
L 291.722468 512.369544 
L 292.161574 374.558714 
L 292.381127 512.319043 
L 292.60068 483.133085 
L 292.820233 251.011164 
L 293.25934 482.036465 
L 293.478893 483.489082 
L 293.698446 520.123746 
L 293.917999 493.670776 
L 294.137552 409.147489 
L 294.357105 507.746108 
L 294.796212 520.494267 
L 295.015765 362.072048 
L 295.235318 473.846843 
L 295.454871 321.68671 
L 296.113531 496.626609 
L 296.333084 288.817702 
L 296.552637 404.44407 
L 296.77219 393.344617 
L 296.991743 403.290677 
L 297.43085 302.286532 
L 297.650403 414.757256 
L 297.869956 284.528175 
L 298.089509 480.951903 
L 298.309062 309.219925 
L 298.528615 347.248326 
L 298.748169 490.835594 
L 298.967722 401.690622 
L 299.187275 432.883767 
L 299.406828 365.086099 
L 299.626381 460.252575 
L 299.845934 417.762464 
L 300.065487 461.389521 
L 300.285041 330.717788 
L 300.504594 433.768555 
L 300.724147 357.442816 
L 300.9437 456.621881 
L 301.382806 229.139422 
L 301.60236 452.260703 
L 301.821913 351.548135 
L 302.041466 401.776885 
L 302.261019 500.889606 
L 302.480572 506.691507 
L 302.700125 317.315152 
L 302.919678 426.564596 
L 303.139232 393.034263 
L 303.358785 498.111448 
L 303.578338 287.914767 
L 303.797891 432.575645 
L 304.236997 444.032896 
L 304.456551 403.977079 
L 304.676104 516.178433 
L 304.895657 419.612293 
L 305.11521 493.663652 
L 305.334763 450.159959 
L 305.554316 285.517105 
L 305.773869 411.21267 
L 306.212976 525.053911 
L 306.432529 427.982166 
L 306.652082 431.178889 
L 306.871635 494.314362 
L 307.091188 459.431291 
L 307.310742 233.999407 
L 307.530295 492.075878 
L 307.749848 438.244003 
L 307.969401 293.517162 
L 308.188954 445.3158 
L 308.408507 409.748472 
L 308.847614 522.820076 
L 309.067167 434.751035 
L 309.28672 561.807705 
L 309.506273 395.475104 
L 309.725826 493.842371 
L 309.945379 346.668562 
L 310.164933 350.327416 
L 310.384486 326.334979 
L 310.604039 502.996992 
L 310.823592 455.37113 
L 311.043145 486.396767 
L 311.262698 484.448817 
L 311.482251 367.746489 
L 311.701805 376.138281 
L 312.140911 441.375675 
L 312.580017 311.757682 
L 312.79957 485.1299 
L 313.019124 345.932087 
L 313.238677 473.654003 
L 313.45823 511.875412 
L 313.677783 452.965997 
L 313.897336 446.648433 
L 314.116889 481.738984 
L 314.336442 402.573005 
L 314.555996 435.863863 
L 314.775549 440.583589 
L 314.995102 487.536715 
L 315.214655 335.176018 
L 315.434208 377.952256 
L 315.653761 471.130344 
L 315.873315 398.86434 
L 316.092868 473.118049 
L 316.312421 508.344444 
L 316.531974 468.601246 
L 316.751527 453.515421 
L 316.97108 451.229406 
L 317.190633 457.482222 
L 317.410187 367.000044 
L 317.62974 461.301731 
L 317.849293 452.062798 
L 318.288399 480.98345 
L 318.507952 484.995468 
L 318.727506 519.10487 
L 318.947059 433.396179 
L 319.166612 434.726779 
L 319.605718 578.954135 
L 319.825271 451.416339 
L 320.044824 541.60495 
L 320.264378 511.856806 
L 320.483931 339.08483 
L 320.923037 481.585404 
L 321.14259 551.876017 
L 321.362143 505.529976 
L 321.581696 501.617203 
L 321.80125 353.578599 
L 322.020803 467.519062 
L 322.240356 331.37551 
L 322.459909 520.788381 
L 322.679462 398.937362 
L 322.899015 515.102482 
L 323.118569 433.452395 
L 323.338122 484.119833 
L 323.557675 478.035829 
L 323.996781 444.014231 
L 324.216334 449.096953 
L 324.435887 463.971735 
L 324.655441 427.058888 
L 324.874994 353.193491 
L 325.3141 445.48303 
L 325.533653 371.997873 
L 325.753206 389.763302 
L 325.97276 428.42909 
L 326.192313 525.122896 
L 326.411866 424.135559 
L 326.631419 383.026991 
L 326.850972 390.612923 
L 327.070525 476.300478 
L 327.290078 379.894955 
L 327.509632 367.268955 
L 327.729185 447.67146 
L 327.948738 332.980951 
L 328.168291 483.075028 
L 328.387844 362.273676 
L 328.607397 471.945673 
L 328.826951 457.978355 
L 329.046504 397.503636 
L 329.266057 424.487351 
L 329.48561 374.198471 
L 329.705163 462.388542 
L 329.924716 449.434096 
L 330.363823 384.664334 
L 330.583376 490.746234 
L 330.802929 534.686756 
L 331.022482 329.521213 
L 331.242035 373.443085 
L 331.461588 466.221794 
L 331.681142 492.991278 
L 331.900695 462.398194 
L 332.120248 398.21291 
L 332.339801 500.357643 
L 332.559354 390.088687 
L 332.778907 430.649104 
L 332.99846 400.82231 
L 333.218014 433.992294 
L 333.437567 434.258762 
L 333.65712 501.098045 
L 333.876673 422.681493 
L 334.096226 448.56884 
L 334.315779 409.355372 
L 334.754886 506.629977 
L 334.974439 391.04318 
L 335.193992 446.401147 
L 335.413545 323.70914 
L 335.633098 403.129524 
L 335.852651 429.867216 
L 336.072205 546.737836 
L 336.730864 227.952261 
L 336.950417 464.679991 
L 337.16997 504.780846 
L 337.609077 376.024357 
L 337.82863 493.971995 
L 338.048183 392.771431 
L 338.267736 456.048647 
L 338.487289 313.518179 
L 338.706842 367.555562 
L 338.926396 528.00243 
L 339.145949 458.900818 
L 339.365502 526.949833 
L 339.585055 518.407238 
L 339.804608 425.185719 
L 340.024161 459.013837 
L 340.243715 442.931057 
L 340.463268 454.715879 
L 340.682821 455.53748 
L 340.902374 365.611764 
L 341.121927 389.729209 
L 341.34148 396.182524 
L 341.561033 411.257856 
L 341.780587 439.838818 
L 342.00014 405.872022 
L 342.219693 506.985206 
L 342.439246 434.272362 
L 342.658799 444.484539 
L 342.878352 424.174089 
L 343.097906 379.446235 
L 343.317459 545.582962 
L 343.537012 451.253159 
L 343.756565 481.80588 
L 343.976118 455.139326 
L 344.195671 450.804456 
L 344.415224 483.391961 
L 344.634778 299.217985 
L 344.854331 413.507117 
L 345.073884 347.511696 
L 345.293437 409.610275 
L 345.51299 400.853899 
L 345.732543 346.017856 
L 345.952096 510.944154 
L 346.17165 423.591807 
L 346.391203 440.655549 
L 346.610756 551.681001 
L 346.830309 543.892272 
L 347.049862 436.156537 
L 347.488969 476.369125 
L 347.708522 523.765341 
L 347.928075 503.871723 
L 348.147628 501.501244 
L 348.367181 410.307513 
L 348.586734 423.743876 
L 348.806287 516.822682 
L 349.025841 511.209225 
L 349.245394 419.557141 
L 349.464947 428.716353 
L 349.6845 402.449874 
L 350.123606 495.003277 
L 350.34316 434.79128 
L 350.562713 533.776238 
L 350.782266 353.766716 
L 351.001819 469.520538 
L 351.221372 286.325414 
L 351.440925 490.793635 
L 351.660478 317.768073 
L 351.880032 454.127602 
L 352.099585 412.397902 
L 352.319138 510.30939 
L 352.758244 346.193391 
L 352.977797 449.84295 
L 353.416904 338.388113 
L 353.636457 512.443308 
L 353.85601 512.104062 
L 354.075563 508.115247 
L 354.295116 486.943411 
L 354.514669 486.451962 
L 354.734223 405.875971 
L 354.953776 394.633742 
L 355.392882 525.893165 
L 355.831988 367.732187 
L 356.051542 440.315655 
L 356.271095 465.430859 
L 356.490648 366.657431 
L 356.710201 450.59641 
L 356.929754 307.964719 
L 357.149307 456.17868 
L 357.36886 428.002828 
L 357.588414 380.154783 
L 357.807967 466.879792 
L 358.02752 393.194406 
L 358.247073 389.306524 
L 358.466626 478.814904 
L 358.686179 444.177457 
L 359.125286 520.373482 
L 359.344839 359.258171 
L 359.564392 469.923108 
L 359.783945 519.158234 
L 360.003498 465.023436 
L 360.223051 365.695308 
L 360.442605 537.735079 
L 360.662158 527.657092 
L 360.881711 536.840875 
L 361.101264 482.228939 
L 361.320817 257.794923 
L 361.54037 512.649769 
L 361.759924 390.730402 
L 361.979477 361.072543 
L 362.19903 502.232544 
L 362.418583 445.734966 
L 362.638136 474.187741 
L 362.857689 446.621925 
L 363.077242 387.498155 
L 363.296796 378.807889 
L 363.516349 453.190159 
L 363.735902 426.371515 
L 363.955455 505.746746 
L 364.175008 393.627713 
L 364.394561 444.462626 
L 364.614115 394.365557 
L 365.053221 483.003356 
L 365.272774 373.36774 
L 365.492327 489.325711 
L 365.71188 401.206059 
L 365.931433 513.701466 
L 366.37054 457.060335 
L 366.809646 219.651755 
L 367.029199 483.591558 
L 367.248752 487.340812 
L 367.468306 369.617549 
L 367.687859 373.674738 
L 367.907412 433.225795 
L 368.126965 335.624979 
L 368.346518 541.062236 
L 368.566071 493.028235 
L 368.785624 393.971532 
L 369.005178 487.261934 
L 369.224731 320.182314 
L 369.663837 512.652964 
L 369.88339 422.180863 
L 370.102943 474.890013 
L 370.322497 487.021213 
L 370.54205 381.27067 
L 370.761603 461.580175 
L 370.981156 351.164661 
L 371.200709 517.857782 
L 371.420262 478.402871 
L 371.639815 401.850972 
L 371.859369 423.360901 
L 372.078922 407.795106 
L 372.298475 475.82135 
L 372.518028 372.258015 
L 372.737581 395.678562 
L 372.957134 438.675447 
L 373.176687 429.954785 
L 373.396241 483.667875 
L 373.615794 478.94633 
L 373.835347 405.27646 
L 374.0549 423.895583 
L 374.274453 398.07552 
L 374.494006 406.011042 
L 374.71356 433.220696 
L 374.933113 479.790234 
L 375.152666 356.084069 
L 375.372219 515.931249 
L 375.591772 408.250423 
L 375.811325 521.57244 
L 376.250432 385.822373 
L 376.469985 494.149505 
L 376.689538 500.827884 
L 376.909091 409.728642 
L 377.128644 488.961356 
L 377.348197 416.93223 
L 377.567751 486.020235 
L 377.787304 363.27478 
L 378.006857 496.116936 
L 378.22641 361.889078 
L 378.445963 343.388028 
L 378.665516 465.501207 
L 378.885069 340.336679 
L 379.104623 468.679504 
L 379.324176 361.493043 
L 379.763282 512.590595 
L 379.982835 505.363552 
L 380.202388 544.812128 
L 380.421942 524.261949 
L 380.641495 468.833984 
L 380.861048 486.669539 
L 381.080601 349.400385 
L 381.519707 464.837496 
L 381.73926 465.853404 
L 381.958814 312.837198 
L 382.39792 480.087235 
L 382.617473 371.952579 
L 383.056579 511.246483 
L 383.276133 428.055007 
L 383.495686 472.765022 
L 383.715239 409.115372 
L 383.934792 401.516261 
L 384.154345 439.915264 
L 384.373898 358.623883 
L 384.593451 402.349156 
L 384.813005 478.647807 
L 385.032558 436.767356 
L 385.252111 475.510636 
L 385.691217 426.850288 
L 385.91077 565.373943 
L 386.349877 371.35558 
L 386.56943 513.440665 
L 386.788983 381.750104 
L 387.008536 485.507874 
L 387.228089 446.186981 
L 387.447642 351.546781 
L 387.667196 391.443441 
L 387.886749 522.874149 
L 388.106302 399.426822 
L 388.325855 403.743707 
L 388.764961 510.942878 
L 388.984515 289.680334 
L 389.204068 334.999922 
L 389.643174 519.102178 
L 389.862727 354.50307 
L 390.301833 449.341583 
L 390.521387 448.322343 
L 390.74094 424.360647 
L 390.960493 435.212616 
L 391.180046 391.479913 
L 391.399599 495.746236 
L 391.619152 512.842863 
L 391.838706 356.612896 
L 392.058259 383.665217 
L 392.497365 524.209744 
L 392.716918 321.721605 
L 392.936471 510.621529 
L 393.156024 475.657526 
L 393.375578 482.716899 
L 393.595131 398.048291 
L 393.814684 426.088519 
L 394.034237 486.883091 
L 394.25379 436.56875 
L 394.473343 465.985237 
L 394.692897 462.969822 
L 394.91245 480.460233 
L 395.132003 381.526994 
L 395.351556 413.840751 
L 395.571109 492.936346 
L 395.790662 403.515336 
L 396.010215 402.402233 
L 396.449322 504.967426 
L 396.668875 451.423029 
L 396.888428 327.081228 
L 397.107981 506.952476 
L 397.327534 371.725743 
L 397.547087 511.947335 
L 397.766641 409.334823 
L 397.986194 474.846321 
L 398.205747 352.900637 
L 398.4253 439.105628 
L 398.644853 473.693752 
L 398.864406 449.936011 
L 399.08396 485.708796 
L 399.303513 369.294529 
L 399.523066 525.561051 
L 399.742619 384.845513 
L 399.962172 377.420922 
L 400.181725 407.809488 
L 400.401278 399.901793 
L 400.620832 409.751856 
L 400.840385 510.10043 
L 401.059938 493.385296 
L 401.279491 519.743002 
L 401.499044 488.452464 
L 401.718597 403.36964 
L 401.938151 448.632294 
L 402.157704 442.125526 
L 402.377257 461.868638 
L 402.816363 424.703312 
L 403.035916 414.86403 
L 403.255469 464.260991 
L 403.475023 408.288336 
L 403.694576 302.391574 
L 403.914129 324.351566 
L 404.133682 304.236549 
L 404.353235 447.380364 
L 404.572788 396.929799 
L 404.792342 317.047703 
L 405.011895 461.480193 
L 405.231448 416.979836 
L 405.451001 437.087724 
L 405.890107 390.096194 
L 406.10966 448.764729 
L 406.329214 416.597073 
L 406.548767 434.042207 
L 406.76832 560.769612 
L 406.987873 477.079742 
L 407.207426 332.497877 
L 407.426979 344.795963 
L 407.646533 505.519885 
L 408.085639 427.522865 
L 408.305192 519.380553 
L 408.524745 528.972806 
L 408.744298 516.861517 
L 408.963851 484.787462 
L 409.183405 383.614307 
L 409.402958 543.89471 
L 409.622511 385.496416 
L 409.842064 437.920526 
L 410.061617 368.976121 
L 410.28117 488.164045 
L 410.500724 395.45563 
L 410.720277 385.595458 
L 410.93983 494.65603 
L 411.159383 527.761534 
L 411.378936 500.940726 
L 411.598489 346.3768 
L 411.818042 364.789109 
L 412.037596 411.750298 
L 412.257149 513.277199 
L 412.696255 396.112659 
L 412.915808 367.911909 
L 413.135361 475.412764 
L 413.574468 547.117325 
L 414.013574 366.389486 
L 414.233127 282.012268 
L 414.45268 515.985548 
L 414.672233 542.87951 
L 414.891787 436.151313 
L 415.11134 462.312084 
L 415.330893 377.808207 
L 415.989552 500.178993 
L 416.209106 486.488019 
L 416.428659 448.903226 
L 416.648212 371.441827 
L 416.867765 356.008899 
L 417.087318 457.448758 
L 417.306871 434.441507 
L 417.526424 308.863036 
L 417.745978 318.394519 
L 417.965531 421.908174 
L 418.185084 257.275368 
L 418.404637 533.920453 
L 418.62419 476.167595 
L 418.843743 465.933399 
L 419.063297 426.895631 
L 419.28285 527.223033 
L 419.502403 348.233691 
L 419.721956 440.274706 
L 419.941509 470.432669 
L 420.161062 539.826758 
L 420.600169 353.46302 
L 420.819722 393.025956 
L 421.039275 505.541866 
L 421.258828 339.59487 
L 421.697934 491.141714 
L 421.917488 386.252793 
L 422.356594 513.514213 
L 422.576147 288.2655 
L 422.7957 462.551433 
L 423.015253 509.693853 
L 423.234806 436.827916 
L 423.45436 464.433441 
L 423.673913 418.092728 
L 423.893466 491.072425 
L 424.113019 467.371657 
L 424.332572 354.383554 
L 424.552125 475.715708 
L 424.991232 448.947628 
L 425.210785 445.673798 
L 425.430338 448.92952 
L 425.649891 464.754646 
L 425.869444 326.102854 
L 426.308551 489.137679 
L 426.528104 415.301343 
L 426.747657 427.936621 
L 426.96721 368.811464 
L 427.406316 534.507078 
L 427.625869 354.697292 
L 427.845423 405.832993 
L 428.064976 354.77485 
L 428.504082 510.638068 
L 428.723635 435.518814 
L 428.943188 460.996244 
L 429.162742 334.051502 
L 429.382295 489.725084 
L 429.601848 472.705367 
L 429.821401 315.467155 
L 430.260507 486.229636 
L 430.48006 453.509002 
L 430.699614 533.176317 
L 430.919167 421.842489 
L 431.13872 252.210853 
L 431.358273 451.356945 
L 431.577826 353.553745 
L 431.797379 350.093593 
L 432.016933 443.308081 
L 432.236486 440.021548 
L 432.456039 446.454226 
L 432.675592 458.4605 
L 432.895145 414.204319 
L 433.114698 433.3807 
L 433.334251 390.41571 
L 433.553805 486.501517 
L 433.773358 429.107709 
L 433.992911 427.276959 
L 434.212464 375.276902 
L 434.65157 471.432481 
L 434.871124 458.871845 
L 435.090677 505.403109 
L 435.31023 515.776879 
L 435.749336 398.596185 
L 435.968889 431.354093 
L 436.188442 504.78312 
L 436.407996 225.610452 
L 436.627549 516.092427 
L 436.847102 470.155496 
L 437.066655 526.301532 
L 437.286208 501.489672 
L 437.505761 416.017624 
L 437.725315 496.522247 
L 437.944868 415.367297 
L 438.164421 560.41932 
L 438.383974 461.698345 
L 438.603527 508.129809 
L 439.042633 344.111272 
L 439.48174 517.28977 
L 439.701293 366.717422 
L 439.920846 383.340598 
L 440.140399 460.153617 
L 440.359952 455.022692 
L 440.579506 339.607452 
L 440.799059 358.756476 
L 441.018612 512.013507 
L 441.457718 241.021911 
L 441.677271 249.57318 
L 441.896824 423.600987 
L 442.116378 358.407941 
L 442.335931 356.22389 
L 442.555484 425.566725 
L 442.775037 315.035042 
L 442.99459 416.945757 
L 443.214143 421.288318 
L 443.433697 413.921907 
L 443.65325 411.120538 
L 443.872803 569.645473 
L 444.092356 395.193096 
L 444.311909 544.562637 
L 444.751015 492.465551 
L 444.970569 461.42385 
L 445.409675 492.370405 
L 445.629228 437.112163 
L 445.848781 546.14483 
L 446.068334 540.389014 
L 446.287888 499.606093 
L 446.507441 484.641663 
L 446.726994 526.588488 
L 446.946547 431.750989 
L 447.1661 555.741302 
L 447.385653 417.215468 
L 447.605206 495.955157 
L 447.82476 230.417908 
L 448.044313 369.865663 
L 448.263866 310.312591 
L 448.483419 464.246522 
L 448.702972 433.426142 
L 448.922525 581.38839 
L 449.142079 397.082154 
L 449.361632 506.81919 
L 449.800738 433.200612 
L 450.020291 424.832966 
L 450.239844 427.296109 
L 450.459397 475.729786 
L 450.678951 484.055597 
L 450.898504 465.725849 
L 451.118057 391.090611 
L 451.33761 518.284762 
L 451.557163 514.732464 
L 451.776716 416.156472 
L 451.996269 434.306893 
L 452.215823 438.743502 
L 452.435376 497.900166 
L 452.654929 469.293265 
L 452.874482 350.481316 
L 453.094035 466.969186 
L 453.533142 380.70635 
L 453.752695 364.592825 
L 454.191801 387.64747 
L 454.411354 478.328709 
L 454.85046 424.131882 
L 455.070014 480.434884 
L 455.289567 422.964042 
L 455.50912 525.633135 
L 455.728673 450.215996 
L 456.167779 492.881276 
L 456.387333 424.898812 
L 456.606886 227.422288 
L 456.826439 538.202273 
L 457.265545 378.772803 
L 457.485098 421.906549 
L 457.704651 390.536849 
L 457.924205 541.43871 
L 458.143758 511.025118 
L 458.363311 502.309968 
L 458.582864 528.862775 
L 458.802417 510.121321 
L 459.02197 446.205184 
L 459.241524 471.515853 
L 459.461077 430.235808 
L 459.68063 486.828035 
L 459.900183 381.574485 
L 460.119736 433.166209 
L 460.339289 333.130819 
L 460.558842 469.139948 
L 460.778396 335.396325 
L 460.997949 510.254127 
L 461.217502 450.239233 
L 461.437055 517.797295 
L 461.656608 525.278715 
L 461.876161 499.634885 
L 462.095715 448.456489 
L 462.315268 334.748957 
L 462.534821 436.295752 
L 462.754374 479.017256 
L 462.973927 481.927618 
L 463.19348 520.854411 
L 463.413033 520.936967 
L 463.632587 403.642571 
L 464.071693 533.259464 
L 464.510799 390.402331 
L 464.730352 499.403236 
L 464.949906 389.108093 
L 465.169459 572.481258 
L 465.389012 406.767812 
L 465.608565 460.461561 
L 465.828118 326.074824 
L 466.047671 407.954305 
L 466.267224 546.916895 
L 466.706331 402.414588 
L 466.925884 535.599515 
L 467.145437 539.893166 
L 467.36499 363.356001 
L 467.584543 424.848752 
L 467.804097 399.627178 
L 468.02365 435.325124 
L 468.243203 493.326176 
L 468.462756 371.595025 
L 468.682309 455.750422 
L 468.901862 484.820901 
L 469.121415 473.708985 
L 469.340969 469.980519 
L 469.560522 483.986695 
L 469.999628 367.473607 
L 470.219181 463.178215 
L 470.438734 392.816282 
L 470.658288 498.810632 
L 471.097394 408.976006 
L 471.316947 533.104379 
L 471.5365 429.063406 
L 471.756053 451.403212 
L 471.975606 449.028865 
L 472.19516 536.796728 
L 472.414713 434.090415 
L 472.634266 418.451226 
L 472.853819 387.367906 
L 473.073372 414.710838 
L 473.292925 337.987281 
L 473.512479 493.150338 
L 473.732032 415.40904 
L 473.951585 534.961164 
L 474.171138 406.83451 
L 474.610244 488.281007 
L 474.829797 385.46632 
L 475.049351 491.191367 
L 475.268904 541.103205 
L 475.488457 377.994489 
L 475.70801 518.6745 
L 475.927563 516.107152 
L 476.147116 501.452648 
L 476.586223 286.66869 
L 476.805776 573.915884 
L 477.025329 402.55442 
L 477.464435 457.554862 
L 477.683988 417.282335 
L 477.903542 256.462721 
L 478.123095 373.752056 
L 478.342648 396.0644 
L 478.562201 461.992289 
L 478.781754 469.851804 
L 479.001307 375.155744 
L 479.22086 421.945017 
L 479.440414 419.212499 
L 479.659967 493.209629 
L 479.87952 446.864483 
L 480.099073 359.008937 
L 480.318626 549.991953 
L 480.538179 486.994061 
L 480.757733 284.6852 
L 480.977286 412.952621 
L 481.416392 317.339009 
L 481.635945 228.608124 
L 481.855498 477.238898 
L 482.075051 484.222217 
L 482.294605 484.554353 
L 482.514158 358.061834 
L 482.733711 484.19089 
L 482.953264 231.059145 
L 483.172817 495.818104 
L 483.39237 216.771308 
L 483.611924 442.381025 
L 483.831477 333.922675 
L 484.05103 480.565921 
L 484.270583 456.327241 
L 484.490136 393.098594 
L 484.709689 475.466519 
L 484.929242 459.012567 
L 485.148796 493.695596 
L 485.368349 454.768706 
L 485.587902 360.996886 
L 485.807455 471.093254 
L 486.027008 509.645341 
L 486.466115 454.913837 
L 486.685668 459.513125 
L 486.905221 416.986513 
L 487.124774 328.373818 
L 487.344327 459.78004 
L 487.56388 431.780814 
L 487.783433 419.8814 
L 488.002987 472.930399 
L 488.22254 344.351598 
L 488.442093 501.723143 
L 488.881199 447.92497 
L 489.100752 430.212386 
L 489.320306 244.023973 
L 489.539859 400.738728 
L 489.759412 423.093487 
L 489.978965 404.086134 
L 490.198518 451.945532 
L 490.418071 451.034592 
L 490.637624 486.448234 
L 491.076731 469.735386 
L 491.296284 486.252887 
L 491.515837 359.125519 
L 491.73539 388.254611 
L 491.954943 317.98897 
L 492.174497 468.733976 
L 492.39405 338.713456 
L 492.613603 347.91591 
L 492.833156 539.806371 
L 493.052709 438.256666 
L 493.272262 440.934054 
L 493.491815 360.869518 
L 493.711369 389.766775 
L 493.930922 555.137617 
L 494.150475 467.838297 
L 494.370028 499.721486 
L 494.589581 474.974683 
L 494.809134 390.625754 
L 495.028688 471.753459 
L 495.248241 510.275716 
L 495.467794 455.631674 
L 495.687347 522.179346 
L 495.9069 420.760036 
L 496.126453 445.699168 
L 496.346006 309.475301 
L 496.56556 442.972072 
L 496.785113 466.435673 
L 497.004666 329.573386 
L 497.443772 511.334503 
L 497.663325 461.464333 
L 497.882879 484.755372 
L 498.102432 418.190106 
L 498.321985 443.238949 
L 498.541538 387.71926 
L 498.761091 419.711297 
L 498.980644 390.400717 
L 499.200197 384.215351 
L 499.419751 417.549979 
L 499.639304 488.044106 
L 499.858857 211.826104 
L 500.07841 522.252199 
L 500.297963 502.101878 
L 500.517516 470.948451 
L 500.73707 562.862858 
L 500.956623 332.621528 
L 501.176176 345.34007 
L 501.395729 445.723949 
L 501.615282 487.268337 
L 501.834835 359.214561 
L 502.054388 446.541894 
L 502.273942 410.452662 
L 502.493495 464.995342 
L 502.713048 471.22787 
L 502.932601 505.892787 
L 503.152154 390.98008 
L 503.371707 482.344594 
L 503.810814 402.659805 
L 504.030367 545.403946 
L 504.24992 386.491711 
L 504.689026 499.970782 
L 504.908579 500.751877 
L 505.128133 504.5923 
L 505.347686 251.128944 
L 505.567239 466.741686 
L 505.786792 328.501221 
L 506.006345 433.146749 
L 506.225898 299.173834 
L 506.445451 515.714903 
L 506.665005 393.228309 
L 506.884558 398.027199 
L 507.104111 297.493659 
L 507.323664 356.183523 
L 507.543217 468.048032 
L 507.76277 480.900144 
L 507.982324 459.054532 
L 508.201877 411.103105 
L 508.42143 320.084 
L 508.640983 480.386181 
L 508.860536 430.7097 
L 509.080089 516.191845 
L 509.299642 435.251713 
L 509.519196 438.506409 
L 509.738749 422.305419 
L 509.958302 364.285097 
L 510.177855 470.054124 
L 510.397408 465.461592 
L 510.616961 390.034281 
L 510.836515 401.506234 
L 511.056068 456.667002 
L 511.275621 367.539724 
L 511.714727 533.746988 
L 511.93428 398.422187 
L 512.153833 439.989313 
L 512.373387 458.008041 
L 512.59294 449.339533 
L 512.812493 490.676357 
L 513.032046 325.873394 
L 513.251599 506.537978 
L 513.471152 546.263902 
L 513.690706 307.526144 
L 513.910259 453.986725 
L 514.129812 424.564792 
L 514.349365 450.891292 
L 514.568918 494.029483 
L 514.788471 430.919292 
L 515.008024 516.208673 
L 515.447131 364.967933 
L 515.666684 494.177514 
L 515.886237 412.361984 
L 516.325343 471.506965 
L 516.544897 458.822874 
L 516.76445 455.287121 
L 516.984003 347.854664 
L 517.203556 443.522812 
L 517.423109 286.749845 
L 517.642662 511.914316 
L 517.862215 392.032733 
L 518.081769 404.654481 
L 518.520875 520.466918 
L 518.740428 196.52189 
L 518.959981 478.379897 
L 519.179534 462.992575 
L 519.399088 384.047138 
L 519.618641 509.663312 
L 519.838194 436.448195 
L 520.057747 459.335927 
L 520.2773 405.673435 
L 520.496853 407.398069 
L 520.716406 437.08237 
L 520.93596 317.382075 
L 521.155513 516.420594 
L 521.375066 302.642394 
L 521.594619 400.641421 
L 521.814172 403.388256 
L 522.253279 485.938263 
L 522.472832 252.709557 
L 522.692385 403.972486 
L 522.911938 461.843403 
L 523.131491 339.449159 
L 523.351044 416.748625 
L 523.570597 357.677666 
L 523.790151 530.006198 
L 524.009704 416.092783 
L 524.229257 386.550904 
L 524.44881 387.078322 
L 524.668363 319.891947 
L 524.887916 479.506382 
L 525.327023 371.458991 
L 525.546576 487.066389 
L 525.766129 387.391059 
L 525.985682 430.261903 
L 526.205235 544.190451 
L 526.644342 451.812834 
L 526.863895 447.813097 
L 527.083448 474.618342 
L 527.303001 429.651149 
L 527.522554 480.286453 
L 527.742107 396.358898 
L 527.96166 242.972421 
L 528.181214 516.835884 
L 528.400767 376.743163 
L 528.62032 456.939544 
L 528.839873 458.693605 
L 529.059426 504.146454 
L 529.278979 496.478024 
L 529.718086 403.045131 
L 529.937639 446.978536 
L 530.376745 335.643254 
L 530.596298 413.113533 
L 530.815851 391.489405 
L 531.035405 466.977712 
L 531.254958 386.226607 
L 531.474511 383.124057 
L 531.694064 409.367567 
L 531.913617 305.042606 
L 532.13317 486.708195 
L 532.572277 422.369154 
L 533.011383 486.890435 
L 533.230936 540.54449 
L 533.450489 361.299392 
L 533.889596 453.832732 
L 534.109149 418.055099 
L 534.328702 410.400409 
L 534.548255 488.337252 
L 534.767808 393.277371 
L 535.206915 336.762618 
L 535.426468 485.325797 
L 535.646021 453.956495 
L 535.865574 293.407965 
L 536.085127 409.468329 
L 536.30468 454.917828 
L 536.524233 399.397898 
L 536.743787 491.947524 
L 536.96334 521.314764 
L 537.182893 350.863568 
L 537.402446 479.635683 
L 537.621999 498.663683 
L 537.841552 432.277225 
L 538.061106 405.888525 
L 538.280659 418.874615 
L 538.500212 416.369672 
L 538.719765 396.995802 
L 538.939318 362.459926 
L 539.158871 533.140898 
L 539.378424 359.173288 
L 539.597978 318.343753 
L 539.817531 528.832843 
L 540.037084 455.05771 
L 540.256637 468.220403 
L 540.47619 372.596045 
L 540.695743 477.6676 
L 540.915297 468.616471 
L 541.13485 385.769261 
L 541.354403 454.712874 
L 541.573956 331.367301 
L 541.793509 458.532027 
L 542.013062 474.083439 
L 542.232615 511.723012 
L 542.671722 362.143026 
L 542.891275 456.772471 
L 543.110828 341.164136 
L 543.330381 526.473252 
L 543.549934 493.121977 
L 543.769488 421.110927 
L 543.989041 447.877707 
L 544.208594 441.745015 
L 544.428147 331.331656 
L 544.6477 394.180148 
L 545.30636 489.820418 
L 545.745466 435.354804 
L 545.745466 435.354804 
" style="fill:none;stroke:#96c69a;stroke-linecap:round;stroke-width:3;"/>
   </g>
   <g id="line2d_2"/>
   <g id="patch_3">
    <path d="M 84.914375 603.86 
L 84.914375 109.484571 
" style="fill:none;stroke:#262626;stroke-linecap:square;stroke-linejoin:miter;stroke-width:2.5;"/>
   </g>
   <g id="patch_4">
    <path d="M 84.914375 603.86 
L 567.689804 603.86 
" style="fill:none;stroke:#262626;stroke-linecap:square;stroke-linejoin:miter;stroke-width:2.5;"/>
   </g>
   <g id="legend_1">
    <g id="patch_5">
     <path d="M 514.774179 598.86 
L 560.689804 598.86 
Q 562.689804 598.86 562.689804 596.86 
L 562.689804 554.954375 
Q 562.689804 552.954375 560.689804 552.954375 
L 514.774179 552.954375 
Q 512.774179 552.954375 512.774179 554.954375 
L 512.774179 596.86 
Q 512.774179 598.86 514.774179 598.86 
z
" style="fill:#ffffff;opacity:0.8;stroke:#cccccc;stroke-linejoin:miter;stroke-width:2;"/>
    </g>
    <g id="text_18">
     <!-- $n_\tau$ -->
     <g style="fill:#262626;" transform="translate(524.651991 575.190625)scale(0.24 -0.24)">
      <defs>
       <path d="M 3566 2113 
L 3156 0 
L 2578 0 
L 2988 2091 
Q 3016 2238 3031 2350 
Q 3047 2463 3047 2528 
Q 3047 2791 2881 2937 
Q 2716 3084 2419 3084 
Q 1956 3084 1622 2776 
Q 1288 2469 1184 1941 
L 800 0 
L 225 0 
L 903 3500 
L 1478 3500 
L 1363 2950 
Q 1603 3253 1940 3418 
Q 2278 3584 2650 3584 
Q 3113 3584 3367 3334 
Q 3622 3084 3622 2631 
Q 3622 2519 3608 2391 
Q 3594 2263 3566 2113 
z
" id="DejaVuSans-Oblique-6e" transform="scale(0.015625)"/>
       <path d="M 2103 638 
Q 2188 488 2525 488 
L 2800 488 
L 2706 0 
L 2363 0 
Q 1800 0 1600 300 
Q 1403 606 1534 1269 
L 1856 2925 
L 541 2925 
L 653 3500 
L 3881 3500 
L 3769 2925 
L 2444 2925 
L 2113 1234 
Q 2025 781 2103 638 
z
" id="DejaVuSans-Oblique-3c4" transform="scale(0.015625)"/>
      </defs>
      <use xlink:href="#DejaVuSans-Oblique-6e"/>
      <use transform="translate(63.378906 -16.40625)scale(0.7)" xlink:href="#DejaVuSans-Oblique-3c4"/>
     </g>
    </g>
    <g id="line2d_3">
     <path d="M 516.774179 589.280313 
L 536.774179 589.280313 
" style="fill:none;stroke:#96c69a;stroke-linecap:round;stroke-width:3;"/>
    </g>
    <g id="line2d_4"/>
    <g id="text_19">
     <!-- 80 -->
     <g style="fill:#262626;" transform="translate(544.774179 592.780313)scale(0.1 -0.1)">
      <defs>
       <path d="M 2228 2088 
Q 1891 2088 1709 1903 
Q 1528 1719 1528 1375 
Q 1528 1031 1709 848 
Q 1891 666 2228 666 
Q 2563 666 2741 848 
Q 2919 1031 2919 1375 
Q 2919 1722 2741 1905 
Q 2563 2088 2228 2088 
z
M 1350 2484 
Q 925 2613 709 2878 
Q 494 3144 494 3541 
Q 494 4131 934 4440 
Q 1375 4750 2228 4750 
Q 3075 4750 3515 4442 
Q 3956 4134 3956 3541 
Q 3956 3144 3739 2878 
Q 3522 2613 3097 2484 
Q 3572 2353 3814 2058 
Q 4056 1763 4056 1313 
Q 4056 619 3595 264 
Q 3134 -91 2228 -91 
Q 1319 -91 855 264 
Q 391 619 391 1313 
Q 391 1763 633 2058 
Q 875 2353 1350 2484 
z
M 1631 3419 
Q 1631 3141 1786 2991 
Q 1941 2841 2228 2841 
Q 2509 2841 2662 2991 
Q 2816 3141 2816 3419 
Q 2816 3697 2662 3845 
Q 2509 3994 2228 3994 
Q 1941 3994 1786 3844 
Q 1631 3694 1631 3419 
z
" id="DejaVuSans-Bold-38" transform="scale(0.015625)"/>
       <path d="M 2944 2338 
Q 2944 3213 2780 3570 
Q 2616 3928 2228 3928 
Q 1841 3928 1675 3570 
Q 1509 3213 1509 2338 
Q 1509 1453 1675 1090 
Q 1841 728 2228 728 
Q 2613 728 2778 1090 
Q 2944 1453 2944 2338 
z
M 4147 2328 
Q 4147 1169 3647 539 
Q 3147 -91 2228 -91 
Q 1306 -91 806 539 
Q 306 1169 306 2328 
Q 306 3491 806 4120 
Q 1306 4750 2228 4750 
Q 3147 4750 3647 4120 
Q 4147 3491 4147 2328 
z
" id="DejaVuSans-Bold-30" transform="scale(0.015625)"/>
      </defs>
      <use xlink:href="#DejaVuSans-Bold-38"/>
      <use x="69.580078" xlink:href="#DejaVuSans-Bold-30"/>
     </g>
    </g>
   </g>
  </g>
  <g id="axes_2">
   <g id="patch_6">
    <path d="M 84.914375 92.437143 
L 567.689804 92.437143 
L 567.689804 7.2 
L 84.914375 7.2 
z
" style="fill:none;"/>
   </g>
   <g id="matplotlib.axis_3">
    <g id="xtick_7"/>
    <g id="xtick_8"/>
    <g id="xtick_9"/>
    <g id="xtick_10"/>
    <g id="xtick_11"/>
    <g id="xtick_12"/>
   </g>
   <g id="matplotlib.axis_4">
    <g id="ytick_10">
     <g id="text_20">
      <!-- 0 -->
      <g style="fill:#262626;" transform="translate(55.416875 100.795424)scale(0.22 -0.22)">
       <use xlink:href="#DejaVuSans-30"/>
      </g>
     </g>
    </g>
    <g id="ytick_11">
     <g id="text_21">
      <!-- 100 -->
      <g style="fill:#262626;" transform="translate(27.421875 48.082287)scale(0.22 -0.22)">
       <use xlink:href="#DejaVuSans-31"/>
       <use x="63.623047" xlink:href="#DejaVuSans-30"/>
       <use x="127.246094" xlink:href="#DejaVuSans-30"/>
      </g>
     </g>
    </g>
   </g>
   <g id="patch_7">
    <path clip-path="url(#p13faabc6a2)" d="M 106.858713 92.437143 
L 140.619232 92.437143 
L 140.619232 11.258912 
L 106.858713 11.258912 
z
" style="fill:#96c69a;fill-opacity:0.5;stroke:#ffffff;stroke-linejoin:miter;stroke-width:2;"/>
   </g>
   <g id="patch_8">
    <path clip-path="url(#p13faabc6a2)" d="M 140.619232 92.437143 
L 174.379752 92.437143 
L 174.379752 11.258912 
L 140.619232 11.258912 
z
" style="fill:#96c69a;fill-opacity:0.5;stroke:#ffffff;stroke-linejoin:miter;stroke-width:2;"/>
   </g>
   <g id="patch_9">
    <path clip-path="url(#p13faabc6a2)" d="M 174.379752 92.437143 
L 208.140271 92.437143 
L 208.140271 11.258912 
L 174.379752 11.258912 
z
" style="fill:#96c69a;fill-opacity:0.5;stroke:#ffffff;stroke-linejoin:miter;stroke-width:2;"/>
   </g>
   <g id="patch_10">
    <path clip-path="url(#p13faabc6a2)" d="M 208.140271 92.437143 
L 241.900791 92.437143 
L 241.900791 11.258912 
L 208.140271 11.258912 
z
" style="fill:#96c69a;fill-opacity:0.5;stroke:#ffffff;stroke-linejoin:miter;stroke-width:2;"/>
   </g>
   <g id="patch_11">
    <path clip-path="url(#p13faabc6a2)" d="M 241.900791 92.437143 
L 275.66131 92.437143 
L 275.66131 11.786043 
L 241.900791 11.786043 
z
" style="fill:#96c69a;fill-opacity:0.5;stroke:#ffffff;stroke-linejoin:miter;stroke-width:2;"/>
   </g>
   <g id="patch_12">
    <path clip-path="url(#p13faabc6a2)" d="M 275.66131 92.437143 
L 309.42183 92.437143 
L 309.42183 11.258912 
L 275.66131 11.258912 
z
" style="fill:#96c69a;fill-opacity:0.5;stroke:#ffffff;stroke-linejoin:miter;stroke-width:2;"/>
   </g>
   <g id="patch_13">
    <path clip-path="url(#p13faabc6a2)" d="M 309.42183 92.437143 
L 343.182349 92.437143 
L 343.182349 11.258912 
L 309.42183 11.258912 
z
" style="fill:#96c69a;fill-opacity:0.5;stroke:#ffffff;stroke-linejoin:miter;stroke-width:2;"/>
   </g>
   <g id="patch_14">
    <path clip-path="url(#p13faabc6a2)" d="M 343.182349 92.437143 
L 376.942869 92.437143 
L 376.942869 11.258912 
L 343.182349 11.258912 
z
" style="fill:#96c69a;fill-opacity:0.5;stroke:#ffffff;stroke-linejoin:miter;stroke-width:2;"/>
   </g>
   <g id="patch_15">
    <path clip-path="url(#p13faabc6a2)" d="M 376.942869 92.437143 
L 410.703388 92.437143 
L 410.703388 11.786043 
L 376.942869 11.786043 
z
" style="fill:#96c69a;fill-opacity:0.5;stroke:#ffffff;stroke-linejoin:miter;stroke-width:2;"/>
   </g>
   <g id="patch_16">
    <path clip-path="url(#p13faabc6a2)" d="M 410.703388 92.437143 
L 444.463907 92.437143 
L 444.463907 11.258912 
L 410.703388 11.258912 
z
" style="fill:#96c69a;fill-opacity:0.5;stroke:#ffffff;stroke-linejoin:miter;stroke-width:2;"/>
   </g>
   <g id="patch_17">
    <path clip-path="url(#p13faabc6a2)" d="M 444.463907 92.437143 
L 478.224427 92.437143 
L 478.224427 11.258912 
L 444.463907 11.258912 
z
" style="fill:#96c69a;fill-opacity:0.5;stroke:#ffffff;stroke-linejoin:miter;stroke-width:2;"/>
   </g>
   <g id="patch_18">
    <path clip-path="url(#p13faabc6a2)" d="M 478.224427 92.437143 
L 511.984946 92.437143 
L 511.984946 11.258912 
L 478.224427 11.258912 
z
" style="fill:#96c69a;fill-opacity:0.5;stroke:#ffffff;stroke-linejoin:miter;stroke-width:2;"/>
   </g>
   <g id="patch_19">
    <path clip-path="url(#p13faabc6a2)" d="M 511.984946 92.437143 
L 545.745466 92.437143 
L 545.745466 11.258912 
L 511.984946 11.258912 
z
" style="fill:#96c69a;fill-opacity:0.5;stroke:#ffffff;stroke-linejoin:miter;stroke-width:2;"/>
   </g>
   <g id="patch_20">
    <path d="M 84.914375 92.437143 
L 84.914375 7.2 
" style="fill:none;stroke:#262626;stroke-linecap:square;stroke-linejoin:miter;stroke-width:2.5;"/>
   </g>
   <g id="patch_21">
    <path d="M 84.914375 92.437143 
L 567.689804 92.437143 
" style="fill:none;stroke:#262626;stroke-linecap:square;stroke-linejoin:miter;stroke-width:2.5;"/>
   </g>
  </g>
  <g id="axes_3">
   <g id="patch_22">
    <path d="M 584.337232 603.86 
L 667.574375 603.86 
L 667.574375 109.484571 
L 584.337232 109.484571 
z
" style="fill:none;"/>
   </g>
   <g id="matplotlib.axis_5">
    <g id="xtick_13">
     <g id="text_22">
      <!-- 0 -->
      <g style="fill:#262626;" transform="translate(577.338482 636.076563)scale(0.22 -0.22)">
       <use xlink:href="#DejaVuSans-30"/>
      </g>
     </g>
    </g>
    <g id="xtick_14">
     <g id="text_23">
      <!-- 200 -->
      <g style="fill:#262626;" transform="translate(644.232277 636.076563)scale(0.22 -0.22)">
       <use xlink:href="#DejaVuSans-32"/>
       <use x="63.623047" xlink:href="#DejaVuSans-30"/>
       <use x="127.246094" xlink:href="#DejaVuSans-30"/>
      </g>
     </g>
    </g>
   </g>
   <g id="matplotlib.axis_6">
    <g id="ytick_12"/>
    <g id="ytick_13"/>
    <g id="ytick_14"/>
    <g id="ytick_15"/>
    <g id="ytick_16"/>
    <g id="ytick_17"/>
    <g id="ytick_18"/>
    <g id="ytick_19"/>
    <g id="ytick_20"/>
   </g>
   <g id="patch_23">
    <path clip-path="url(#pc17d043327)" d="M 584.337232 581.38839 
L 586.359515 581.38839 
L 586.359515 568.169795 
L 584.337232 568.169795 
z
" style="fill:#96c69a;fill-opacity:0.5;stroke:#ffffff;stroke-linejoin:miter;stroke-width:1.321859;"/>
   </g>
   <g id="patch_24">
    <path clip-path="url(#pc17d043327)" d="M 584.337232 568.169795 
L 588.786253 568.169795 
L 588.786253 554.951201 
L 584.337232 554.951201 
z
" style="fill:#96c69a;fill-opacity:0.5;stroke:#ffffff;stroke-linejoin:miter;stroke-width:1.321859;"/>
   </g>
   <g id="patch_25">
    <path clip-path="url(#pc17d043327)" d="M 584.337232 554.951201 
L 592.830818 554.951201 
L 592.830818 541.732607 
L 584.337232 541.732607 
z
" style="fill:#96c69a;fill-opacity:0.5;stroke:#ffffff;stroke-linejoin:miter;stroke-width:1.321859;"/>
   </g>
   <g id="patch_26">
    <path clip-path="url(#pc17d043327)" d="M 584.337232 541.732607 
L 602.94223 541.732607 
L 602.94223 528.514012 
L 584.337232 528.514012 
z
" style="fill:#96c69a;fill-opacity:0.5;stroke:#ffffff;stroke-linejoin:miter;stroke-width:1.321859;"/>
   </g>
   <g id="patch_27">
    <path clip-path="url(#pc17d043327)" d="M 584.337232 528.514012 
L 622.760597 528.514012 
L 622.760597 515.295418 
L 584.337232 515.295418 
z
" style="fill:#96c69a;fill-opacity:0.5;stroke:#ffffff;stroke-linejoin:miter;stroke-width:1.321859;"/>
   </g>
   <g id="patch_28">
    <path clip-path="url(#pc17d043327)" d="M 584.337232 515.295418 
L 622.356141 515.295418 
L 622.356141 502.076824 
L 584.337232 502.076824 
z
" style="fill:#96c69a;fill-opacity:0.5;stroke:#ffffff;stroke-linejoin:miter;stroke-width:1.321859;"/>
   </g>
   <g id="patch_29">
    <path clip-path="url(#pc17d043327)" d="M 584.337232 502.076824 
L 634.894292 502.076824 
L 634.894292 488.858229 
L 584.337232 488.858229 
z
" style="fill:#96c69a;fill-opacity:0.5;stroke:#ffffff;stroke-linejoin:miter;stroke-width:1.321859;"/>
   </g>
   <g id="patch_30">
    <path clip-path="url(#pc17d043327)" d="M 584.337232 488.858229 
L 647.836899 488.858229 
L 647.836899 475.639635 
L 584.337232 475.639635 
z
" style="fill:#96c69a;fill-opacity:0.5;stroke:#ffffff;stroke-linejoin:miter;stroke-width:1.321859;"/>
   </g>
   <g id="patch_31">
    <path clip-path="url(#pc17d043327)" d="M 584.337232 475.639635 
L 655.926028 475.639635 
L 655.926028 462.42104 
L 584.337232 462.42104 
z
" style="fill:#96c69a;fill-opacity:0.5;stroke:#ffffff;stroke-linejoin:miter;stroke-width:1.321859;"/>
   </g>
   <g id="patch_32">
    <path clip-path="url(#pc17d043327)" d="M 584.337232 462.42104 
L 663.610702 462.42104 
L 663.610702 449.202446 
L 584.337232 449.202446 
z
" style="fill:#96c69a;fill-opacity:0.5;stroke:#ffffff;stroke-linejoin:miter;stroke-width:1.321859;"/>
   </g>
   <g id="patch_33">
    <path clip-path="url(#pc17d043327)" d="M 584.337232 449.202446 
L 651.477007 449.202446 
L 651.477007 435.983852 
L 584.337232 435.983852 
z
" style="fill:#96c69a;fill-opacity:0.5;stroke:#ffffff;stroke-linejoin:miter;stroke-width:1.321859;"/>
   </g>
   <g id="patch_34">
    <path clip-path="url(#pc17d043327)" d="M 584.337232 435.983852 
L 641.770052 435.983852 
L 641.770052 422.765257 
L 584.337232 422.765257 
z
" style="fill:#96c69a;fill-opacity:0.5;stroke:#ffffff;stroke-linejoin:miter;stroke-width:1.321859;"/>
   </g>
   <g id="patch_35">
    <path clip-path="url(#pc17d043327)" d="M 584.337232 422.765257 
L 638.129944 422.765257 
L 638.129944 409.546663 
L 584.337232 409.546663 
z
" style="fill:#96c69a;fill-opacity:0.5;stroke:#ffffff;stroke-linejoin:miter;stroke-width:1.321859;"/>
   </g>
   <g id="patch_36">
    <path clip-path="url(#pc17d043327)" d="M 584.337232 409.546663 
L 634.489835 409.546663 
L 634.489835 396.328069 
L 584.337232 396.328069 
z
" style="fill:#96c69a;fill-opacity:0.5;stroke:#ffffff;stroke-linejoin:miter;stroke-width:1.321859;"/>
   </g>
   <g id="patch_37">
    <path clip-path="url(#pc17d043327)" d="M 584.337232 396.328069 
L 625.996249 396.328069 
L 625.996249 383.109474 
L 584.337232 383.109474 
z
" style="fill:#96c69a;fill-opacity:0.5;stroke:#ffffff;stroke-linejoin:miter;stroke-width:1.321859;"/>
   </g>
   <g id="patch_38">
    <path clip-path="url(#pc17d043327)" d="M 584.337232 383.109474 
L 614.671468 383.109474 
L 614.671468 369.89088 
L 584.337232 369.89088 
z
" style="fill:#96c69a;fill-opacity:0.5;stroke:#ffffff;stroke-linejoin:miter;stroke-width:1.321859;"/>
   </g>
   <g id="patch_39">
    <path clip-path="url(#pc17d043327)" d="M 584.337232 369.89088 
L 614.267011 369.89088 
L 614.267011 356.672286 
L 584.337232 356.672286 
z
" style="fill:#96c69a;fill-opacity:0.5;stroke:#ffffff;stroke-linejoin:miter;stroke-width:1.321859;"/>
   </g>
   <g id="patch_40">
    <path clip-path="url(#pc17d043327)" d="M 584.337232 356.672286 
L 609.413534 356.672286 
L 609.413534 343.453691 
L 584.337232 343.453691 
z
" style="fill:#96c69a;fill-opacity:0.5;stroke:#ffffff;stroke-linejoin:miter;stroke-width:1.321859;"/>
   </g>
   <g id="patch_41">
    <path clip-path="url(#pc17d043327)" d="M 584.337232 343.453691 
L 602.133317 343.453691 
L 602.133317 330.235097 
L 584.337232 330.235097 
z
" style="fill:#96c69a;fill-opacity:0.5;stroke:#ffffff;stroke-linejoin:miter;stroke-width:1.321859;"/>
   </g>
   <g id="patch_42">
    <path clip-path="url(#pc17d043327)" d="M 584.337232 330.235097 
L 599.302122 330.235097 
L 599.302122 317.016503 
L 584.337232 317.016503 
z
" style="fill:#96c69a;fill-opacity:0.5;stroke:#ffffff;stroke-linejoin:miter;stroke-width:1.321859;"/>
   </g>
   <g id="patch_43">
    <path clip-path="url(#pc17d043327)" d="M 584.337232 317.016503 
L 592.426362 317.016503 
L 592.426362 303.797908 
L 584.337232 303.797908 
z
" style="fill:#96c69a;fill-opacity:0.5;stroke:#ffffff;stroke-linejoin:miter;stroke-width:1.321859;"/>
   </g>
   <g id="patch_44">
    <path clip-path="url(#pc17d043327)" d="M 584.337232 303.797908 
L 592.830818 303.797908 
L 592.830818 290.579314 
L 584.337232 290.579314 
z
" style="fill:#96c69a;fill-opacity:0.5;stroke:#ffffff;stroke-linejoin:miter;stroke-width:1.321859;"/>
   </g>
   <g id="patch_45">
    <path clip-path="url(#pc17d043327)" d="M 584.337232 290.579314 
L 591.617449 290.579314 
L 591.617449 277.36072 
L 584.337232 277.36072 
z
" style="fill:#96c69a;fill-opacity:0.5;stroke:#ffffff;stroke-linejoin:miter;stroke-width:1.321859;"/>
   </g>
   <g id="patch_46">
    <path clip-path="url(#pc17d043327)" d="M 584.337232 277.36072 
L 588.381797 277.36072 
L 588.381797 264.142125 
L 584.337232 264.142125 
z
" style="fill:#96c69a;fill-opacity:0.5;stroke:#ffffff;stroke-linejoin:miter;stroke-width:1.321859;"/>
   </g>
   <g id="patch_47">
    <path clip-path="url(#pc17d043327)" d="M 584.337232 264.142125 
L 589.19071 264.142125 
L 589.19071 250.923531 
L 584.337232 250.923531 
z
" style="fill:#96c69a;fill-opacity:0.5;stroke:#ffffff;stroke-linejoin:miter;stroke-width:1.321859;"/>
   </g>
   <g id="patch_48">
    <path clip-path="url(#pc17d043327)" d="M 584.337232 250.923531 
L 586.763971 250.923531 
L 586.763971 237.704937 
L 584.337232 237.704937 
z
" style="fill:#96c69a;fill-opacity:0.5;stroke:#ffffff;stroke-linejoin:miter;stroke-width:1.321859;"/>
   </g>
   <g id="patch_49">
    <path clip-path="url(#pc17d043327)" d="M 584.337232 237.704937 
L 590.404079 237.704937 
L 590.404079 224.486342 
L 584.337232 224.486342 
z
" style="fill:#96c69a;fill-opacity:0.5;stroke:#ffffff;stroke-linejoin:miter;stroke-width:1.321859;"/>
   </g>
   <g id="patch_50">
    <path clip-path="url(#pc17d043327)" d="M 584.337232 224.486342 
L 585.550602 224.486342 
L 585.550602 211.267748 
L 584.337232 211.267748 
z
" style="fill:#96c69a;fill-opacity:0.5;stroke:#ffffff;stroke-linejoin:miter;stroke-width:1.321859;"/>
   </g>
   <g id="patch_51">
    <path clip-path="url(#pc17d043327)" d="M 584.337232 211.267748 
L 585.550602 211.267748 
L 585.550602 198.049154 
L 584.337232 198.049154 
z
" style="fill:#96c69a;fill-opacity:0.5;stroke:#ffffff;stroke-linejoin:miter;stroke-width:1.321859;"/>
   </g>
   <g id="patch_52">
    <path clip-path="url(#pc17d043327)" d="M 584.337232 198.049154 
L 585.146145 198.049154 
L 585.146145 184.830559 
L 584.337232 184.830559 
z
" style="fill:#96c69a;fill-opacity:0.5;stroke:#ffffff;stroke-linejoin:miter;stroke-width:1.321859;"/>
   </g>
   <g id="patch_53">
    <path clip-path="url(#pc17d043327)" d="M 584.337232 184.830559 
L 584.741689 184.830559 
L 584.741689 171.611965 
L 584.337232 171.611965 
z
" style="fill:#96c69a;fill-opacity:0.5;stroke:#ffffff;stroke-linejoin:miter;stroke-width:1.321859;"/>
   </g>
   <g id="patch_54">
    <path clip-path="url(#pc17d043327)" d="M 584.337232 171.611965 
L 584.337232 171.611965 
L 584.337232 158.393371 
L 584.337232 158.393371 
z
" style="fill:#96c69a;fill-opacity:0.5;stroke:#ffffff;stroke-linejoin:miter;stroke-width:1.321859;"/>
   </g>
   <g id="patch_55">
    <path clip-path="url(#pc17d043327)" d="M 584.337232 158.393371 
L 584.741689 158.393371 
L 584.741689 145.174776 
L 584.337232 145.174776 
z
" style="fill:#96c69a;fill-opacity:0.5;stroke:#ffffff;stroke-linejoin:miter;stroke-width:1.321859;"/>
   </g>
   <g id="patch_56">
    <path clip-path="url(#pc17d043327)" d="M 584.337232 145.174776 
L 584.741689 145.174776 
L 584.741689 131.956182 
L 584.337232 131.956182 
z
" style="fill:#96c69a;fill-opacity:0.5;stroke:#ffffff;stroke-linejoin:miter;stroke-width:1.321859;"/>
   </g>
   <g id="patch_57">
    <path d="M 584.337232 603.86 
L 584.337232 109.484571 
" style="fill:none;stroke:#262626;stroke-linecap:square;stroke-linejoin:miter;stroke-width:2.5;"/>
   </g>
   <g id="patch_58">
    <path d="M 584.337232 603.86 
L 667.574375 603.86 
" style="fill:none;stroke:#262626;stroke-linecap:square;stroke-linejoin:miter;stroke-width:2.5;"/>
   </g>
  </g>
 </g>
 <defs>
  <clipPath id="pa2c7803354">
   <rect height="494.375429" width="482.775429" x="84.914375" y="109.484571"/>
  </clipPath>
  <clipPath id="p13faabc6a2">
   <rect height="85.237143" width="482.775429" x="84.914375" y="7.2"/>
  </clipPath>
  <clipPath id="pc17d043327">
   <rect height="494.375429" width="83.237143" x="584.337232" y="109.484571"/>
  </clipPath>
 </defs>
</svg>
