<?xml version="1.0" encoding="utf-8" standalone="no"?>
<!DOCTYPE svg PUBLIC "-//W3C//DTD SVG 1.1//EN"
  "http://www.w3.org/Graphics/SVG/1.1/DTD/svg11.dtd">
<svg height="675.079375pt" version="1.1" viewBox="0 0 688.771875 675.079375" width="688.771875pt" xmlns="http://www.w3.org/2000/svg" xmlns:xlink="http://www.w3.org/1999/xlink">
 <metadata>
  <rdf:RDF xmlns:cc="http://creativecommons.org/ns#" xmlns:dc="http://purl.org/dc/elements/1.1/" xmlns:rdf="http://www.w3.org/1999/02/22-rdf-syntax-ns#">
   <cc:Work>
    <dc:type rdf:resource="http://purl.org/dc/dcmitype/StillImage"/>
    <dc:date>2021-07-16T21:43:54.315727</dc:date>
    <dc:format>image/svg+xml</dc:format>
    <dc:creator>
     <cc:Agent>
      <dc:title>Matplotlib v3.4.2, https://matplotlib.org/</dc:title>
     </cc:Agent>
    </dc:creator>
   </cc:Work>
  </rdf:RDF>
 </metadata>
 <defs>
  <style type="text/css">*{stroke-linecap:butt;stroke-linejoin:round;}</style>
 </defs>
 <g id="figure_1">
  <g id="patch_1">
   <path d="M 0 675.079375 
L 688.771875 675.079375 
L 688.771875 0 
L 0 0 
z
" style="fill:#ffffff;"/>
  </g>
  <g id="axes_1">
   <g id="patch_2">
    <path d="M 98.911875 603.86 
L 581.687304 603.86 
L 581.687304 109.484571 
L 98.911875 109.484571 
z
" style="fill:none;"/>
   </g>
   <g id="matplotlib.axis_1">
    <g id="xtick_1">
     <g id="text_1">
      <!-- 0 -->
      <g style="fill:#262626;" transform="translate(113.63791 636.076563)scale(0.22 -0.22)">
       <defs>
        <path d="M 2034 4250 
Q 1547 4250 1301 3770 
Q 1056 3291 1056 2328 
Q 1056 1369 1301 889 
Q 1547 409 2034 409 
Q 2525 409 2770 889 
Q 3016 1369 3016 2328 
Q 3016 3291 2770 3770 
Q 2525 4250 2034 4250 
z
M 2034 4750 
Q 2819 4750 3233 4129 
Q 3647 3509 3647 2328 
Q 3647 1150 3233 529 
Q 2819 -91 2034 -91 
Q 1250 -91 836 529 
Q 422 1150 422 2328 
Q 422 3509 836 4129 
Q 1250 4750 2034 4750 
z
" id="DejaVuSans-30" transform="scale(0.015625)"/>
       </defs>
       <use xlink:href="#DejaVuSans-30"/>
      </g>
     </g>
    </g>
    <g id="xtick_2">
     <g id="text_2">
      <!-- 20000 -->
      <g style="fill:#262626;" transform="translate(173.464171 636.076563)scale(0.22 -0.22)">
       <defs>
        <path d="M 1228 531 
L 3431 531 
L 3431 0 
L 469 0 
L 469 531 
Q 828 903 1448 1529 
Q 2069 2156 2228 2338 
Q 2531 2678 2651 2914 
Q 2772 3150 2772 3378 
Q 2772 3750 2511 3984 
Q 2250 4219 1831 4219 
Q 1534 4219 1204 4116 
Q 875 4013 500 3803 
L 500 4441 
Q 881 4594 1212 4672 
Q 1544 4750 1819 4750 
Q 2544 4750 2975 4387 
Q 3406 4025 3406 3419 
Q 3406 3131 3298 2873 
Q 3191 2616 2906 2266 
Q 2828 2175 2409 1742 
Q 1991 1309 1228 531 
z
" id="DejaVuSans-32" transform="scale(0.015625)"/>
       </defs>
       <use xlink:href="#DejaVuSans-32"/>
       <use x="63.623047" xlink:href="#DejaVuSans-30"/>
       <use x="127.246094" xlink:href="#DejaVuSans-30"/>
       <use x="190.869141" xlink:href="#DejaVuSans-30"/>
       <use x="254.492188" xlink:href="#DejaVuSans-30"/>
      </g>
     </g>
    </g>
    <g id="xtick_3">
     <g id="text_3">
      <!-- 40000 -->
      <g style="fill:#262626;" transform="translate(261.285432 636.076563)scale(0.22 -0.22)">
       <defs>
        <path d="M 2419 4116 
L 825 1625 
L 2419 1625 
L 2419 4116 
z
M 2253 4666 
L 3047 4666 
L 3047 1625 
L 3713 1625 
L 3713 1100 
L 3047 1100 
L 3047 0 
L 2419 0 
L 2419 1100 
L 313 1100 
L 313 1709 
L 2253 4666 
z
" id="DejaVuSans-34" transform="scale(0.015625)"/>
       </defs>
       <use xlink:href="#DejaVuSans-34"/>
       <use x="63.623047" xlink:href="#DejaVuSans-30"/>
       <use x="127.246094" xlink:href="#DejaVuSans-30"/>
       <use x="190.869141" xlink:href="#DejaVuSans-30"/>
       <use x="254.492188" xlink:href="#DejaVuSans-30"/>
      </g>
     </g>
    </g>
    <g id="xtick_4">
     <g id="text_4">
      <!-- 60000 -->
      <g style="fill:#262626;" transform="translate(349.106693 636.076563)scale(0.22 -0.22)">
       <defs>
        <path d="M 2113 2584 
Q 1688 2584 1439 2293 
Q 1191 2003 1191 1497 
Q 1191 994 1439 701 
Q 1688 409 2113 409 
Q 2538 409 2786 701 
Q 3034 994 3034 1497 
Q 3034 2003 2786 2293 
Q 2538 2584 2113 2584 
z
M 3366 4563 
L 3366 3988 
Q 3128 4100 2886 4159 
Q 2644 4219 2406 4219 
Q 1781 4219 1451 3797 
Q 1122 3375 1075 2522 
Q 1259 2794 1537 2939 
Q 1816 3084 2150 3084 
Q 2853 3084 3261 2657 
Q 3669 2231 3669 1497 
Q 3669 778 3244 343 
Q 2819 -91 2113 -91 
Q 1303 -91 875 529 
Q 447 1150 447 2328 
Q 447 3434 972 4092 
Q 1497 4750 2381 4750 
Q 2619 4750 2861 4703 
Q 3103 4656 3366 4563 
z
" id="DejaVuSans-36" transform="scale(0.015625)"/>
       </defs>
       <use xlink:href="#DejaVuSans-36"/>
       <use x="63.623047" xlink:href="#DejaVuSans-30"/>
       <use x="127.246094" xlink:href="#DejaVuSans-30"/>
       <use x="190.869141" xlink:href="#DejaVuSans-30"/>
       <use x="254.492188" xlink:href="#DejaVuSans-30"/>
      </g>
     </g>
    </g>
    <g id="xtick_5">
     <g id="text_5">
      <!-- 80000 -->
      <g style="fill:#262626;" transform="translate(436.927955 636.076563)scale(0.22 -0.22)">
       <defs>
        <path d="M 2034 2216 
Q 1584 2216 1326 1975 
Q 1069 1734 1069 1313 
Q 1069 891 1326 650 
Q 1584 409 2034 409 
Q 2484 409 2743 651 
Q 3003 894 3003 1313 
Q 3003 1734 2745 1975 
Q 2488 2216 2034 2216 
z
M 1403 2484 
Q 997 2584 770 2862 
Q 544 3141 544 3541 
Q 544 4100 942 4425 
Q 1341 4750 2034 4750 
Q 2731 4750 3128 4425 
Q 3525 4100 3525 3541 
Q 3525 3141 3298 2862 
Q 3072 2584 2669 2484 
Q 3125 2378 3379 2068 
Q 3634 1759 3634 1313 
Q 3634 634 3220 271 
Q 2806 -91 2034 -91 
Q 1263 -91 848 271 
Q 434 634 434 1313 
Q 434 1759 690 2068 
Q 947 2378 1403 2484 
z
M 1172 3481 
Q 1172 3119 1398 2916 
Q 1625 2713 2034 2713 
Q 2441 2713 2670 2916 
Q 2900 3119 2900 3481 
Q 2900 3844 2670 4047 
Q 2441 4250 2034 4250 
Q 1625 4250 1398 4047 
Q 1172 3844 1172 3481 
z
" id="DejaVuSans-38" transform="scale(0.015625)"/>
       </defs>
       <use xlink:href="#DejaVuSans-38"/>
       <use x="63.623047" xlink:href="#DejaVuSans-30"/>
       <use x="127.246094" xlink:href="#DejaVuSans-30"/>
       <use x="190.869141" xlink:href="#DejaVuSans-30"/>
       <use x="254.492188" xlink:href="#DejaVuSans-30"/>
      </g>
     </g>
    </g>
    <g id="xtick_6">
     <g id="text_6">
      <!-- 100000 -->
      <g style="fill:#262626;" transform="translate(517.750466 636.076563)scale(0.22 -0.22)">
       <defs>
        <path d="M 794 531 
L 1825 531 
L 1825 4091 
L 703 3866 
L 703 4441 
L 1819 4666 
L 2450 4666 
L 2450 531 
L 3481 531 
L 3481 0 
L 794 0 
L 794 531 
z
" id="DejaVuSans-31" transform="scale(0.015625)"/>
       </defs>
       <use xlink:href="#DejaVuSans-31"/>
       <use x="63.623047" xlink:href="#DejaVuSans-30"/>
       <use x="127.246094" xlink:href="#DejaVuSans-30"/>
       <use x="190.869141" xlink:href="#DejaVuSans-30"/>
       <use x="254.492188" xlink:href="#DejaVuSans-30"/>
       <use x="318.115234" xlink:href="#DejaVuSans-30"/>
      </g>
     </g>
    </g>
    <g id="text_7">
     <!-- MDTU -->
     <g style="fill:#262626;" transform="translate(304.593964 662.888125)scale(0.24 -0.24)">
      <defs>
       <path d="M 628 4666 
L 1569 4666 
L 2759 1491 
L 3956 4666 
L 4897 4666 
L 4897 0 
L 4281 0 
L 4281 4097 
L 3078 897 
L 2444 897 
L 1241 4097 
L 1241 0 
L 628 0 
L 628 4666 
z
" id="DejaVuSans-4d" transform="scale(0.015625)"/>
       <path d="M 1259 4147 
L 1259 519 
L 2022 519 
Q 2988 519 3436 956 
Q 3884 1394 3884 2338 
Q 3884 3275 3436 3711 
Q 2988 4147 2022 4147 
L 1259 4147 
z
M 628 4666 
L 1925 4666 
Q 3281 4666 3915 4102 
Q 4550 3538 4550 2338 
Q 4550 1131 3912 565 
Q 3275 0 1925 0 
L 628 0 
L 628 4666 
z
" id="DejaVuSans-44" transform="scale(0.015625)"/>
       <path d="M -19 4666 
L 3928 4666 
L 3928 4134 
L 2272 4134 
L 2272 0 
L 1638 0 
L 1638 4134 
L -19 4134 
L -19 4666 
z
" id="DejaVuSans-54" transform="scale(0.015625)"/>
       <path d="M 556 4666 
L 1191 4666 
L 1191 1831 
Q 1191 1081 1462 751 
Q 1734 422 2344 422 
Q 2950 422 3222 751 
Q 3494 1081 3494 1831 
L 3494 4666 
L 4128 4666 
L 4128 1753 
Q 4128 841 3676 375 
Q 3225 -91 2344 -91 
Q 1459 -91 1007 375 
Q 556 841 556 1753 
L 556 4666 
z
" id="DejaVuSans-55" transform="scale(0.015625)"/>
      </defs>
      <use xlink:href="#DejaVuSans-4d"/>
      <use x="86.279297" xlink:href="#DejaVuSans-44"/>
      <use x="163.28125" xlink:href="#DejaVuSans-54"/>
      <use x="224.365234" xlink:href="#DejaVuSans-55"/>
     </g>
    </g>
   </g>
   <g id="matplotlib.axis_2">
    <g id="ytick_1">
     <g id="text_8">
      <!-- 0.25 -->
      <g style="fill:#262626;" transform="translate(34.4275 585.21879)scale(0.22 -0.22)">
       <defs>
        <path d="M 684 794 
L 1344 794 
L 1344 0 
L 684 0 
L 684 794 
z
" id="DejaVuSans-2e" transform="scale(0.015625)"/>
        <path d="M 691 4666 
L 3169 4666 
L 3169 4134 
L 1269 4134 
L 1269 2991 
Q 1406 3038 1543 3061 
Q 1681 3084 1819 3084 
Q 2600 3084 3056 2656 
Q 3513 2228 3513 1497 
Q 3513 744 3044 326 
Q 2575 -91 1722 -91 
Q 1428 -91 1123 -41 
Q 819 9 494 109 
L 494 744 
Q 775 591 1075 516 
Q 1375 441 1709 441 
Q 2250 441 2565 725 
Q 2881 1009 2881 1497 
Q 2881 1984 2565 2268 
Q 2250 2553 1709 2553 
Q 1456 2553 1204 2497 
Q 953 2441 691 2322 
L 691 4666 
z
" id="DejaVuSans-35" transform="scale(0.015625)"/>
       </defs>
       <use xlink:href="#DejaVuSans-30"/>
       <use x="63.623047" xlink:href="#DejaVuSans-2e"/>
       <use x="95.410156" xlink:href="#DejaVuSans-32"/>
       <use x="159.033203" xlink:href="#DejaVuSans-35"/>
      </g>
     </g>
    </g>
    <g id="ytick_2">
     <g id="text_9">
      <!-- 0.50 -->
      <g style="fill:#262626;" transform="translate(34.4275 522.959556)scale(0.22 -0.22)">
       <use xlink:href="#DejaVuSans-30"/>
       <use x="63.623047" xlink:href="#DejaVuSans-2e"/>
       <use x="95.410156" xlink:href="#DejaVuSans-35"/>
       <use x="159.033203" xlink:href="#DejaVuSans-30"/>
      </g>
     </g>
    </g>
    <g id="ytick_3">
     <g id="text_10">
      <!-- 0.75 -->
      <g style="fill:#262626;" transform="translate(34.4275 460.700322)scale(0.22 -0.22)">
       <defs>
        <path d="M 525 4666 
L 3525 4666 
L 3525 4397 
L 1831 0 
L 1172 0 
L 2766 4134 
L 525 4134 
L 525 4666 
z
" id="DejaVuSans-37" transform="scale(0.015625)"/>
       </defs>
       <use xlink:href="#DejaVuSans-30"/>
       <use x="63.623047" xlink:href="#DejaVuSans-2e"/>
       <use x="95.410156" xlink:href="#DejaVuSans-37"/>
       <use x="159.033203" xlink:href="#DejaVuSans-35"/>
      </g>
     </g>
    </g>
    <g id="ytick_4">
     <g id="text_11">
      <!-- 1.00 -->
      <g style="fill:#262626;" transform="translate(34.4275 398.441088)scale(0.22 -0.22)">
       <use xlink:href="#DejaVuSans-31"/>
       <use x="63.623047" xlink:href="#DejaVuSans-2e"/>
       <use x="95.410156" xlink:href="#DejaVuSans-30"/>
       <use x="159.033203" xlink:href="#DejaVuSans-30"/>
      </g>
     </g>
    </g>
    <g id="ytick_5">
     <g id="text_12">
      <!-- 1.25 -->
      <g style="fill:#262626;" transform="translate(34.4275 336.181854)scale(0.22 -0.22)">
       <use xlink:href="#DejaVuSans-31"/>
       <use x="63.623047" xlink:href="#DejaVuSans-2e"/>
       <use x="95.410156" xlink:href="#DejaVuSans-32"/>
       <use x="159.033203" xlink:href="#DejaVuSans-35"/>
      </g>
     </g>
    </g>
    <g id="ytick_6">
     <g id="text_13">
      <!-- 1.50 -->
      <g style="fill:#262626;" transform="translate(34.4275 273.92262)scale(0.22 -0.22)">
       <use xlink:href="#DejaVuSans-31"/>
       <use x="63.623047" xlink:href="#DejaVuSans-2e"/>
       <use x="95.410156" xlink:href="#DejaVuSans-35"/>
       <use x="159.033203" xlink:href="#DejaVuSans-30"/>
      </g>
     </g>
    </g>
    <g id="ytick_7">
     <g id="text_14">
      <!-- 1.75 -->
      <g style="fill:#262626;" transform="translate(34.4275 211.663386)scale(0.22 -0.22)">
       <use xlink:href="#DejaVuSans-31"/>
       <use x="63.623047" xlink:href="#DejaVuSans-2e"/>
       <use x="95.410156" xlink:href="#DejaVuSans-37"/>
       <use x="159.033203" xlink:href="#DejaVuSans-35"/>
      </g>
     </g>
    </g>
    <g id="ytick_8">
     <g id="text_15">
      <!-- 2.00 -->
      <g style="fill:#262626;" transform="translate(34.4275 149.404152)scale(0.22 -0.22)">
       <use xlink:href="#DejaVuSans-32"/>
       <use x="63.623047" xlink:href="#DejaVuSans-2e"/>
       <use x="95.410156" xlink:href="#DejaVuSans-30"/>
       <use x="159.033203" xlink:href="#DejaVuSans-30"/>
      </g>
     </g>
    </g>
    <g id="text_16">
     <!-- $E$ -->
     <g style="fill:#262626;" transform="translate(25.43625 364.352286)rotate(-90)scale(0.24 -0.24)">
      <defs>
       <path d="M 1081 4666 
L 4031 4666 
L 3928 4134 
L 1606 4134 
L 1338 2753 
L 3566 2753 
L 3463 2222 
L 1234 2222 
L 909 531 
L 3284 531 
L 3181 0 
L 172 0 
L 1081 4666 
z
" id="DejaVuSans-Oblique-45" transform="scale(0.015625)"/>
      </defs>
      <use transform="translate(0 0.09375)" xlink:href="#DejaVuSans-Oblique-45"/>
     </g>
    </g>
   </g>
   <g id="line2d_1">
    <path clip-path="url(#p164e0bc2e3)" d="M 120.856213 473.518041 
L 121.075766 407.273616 
L 121.295319 407.363902 
L 121.514872 514.389801 
L 121.953978 470.410958 
L 122.173532 339.341729 
L 122.393085 467.839429 
L 122.612638 515.066682 
L 122.832191 492.393605 
L 123.051744 436.028181 
L 123.271297 493.041333 
L 123.490851 453.355682 
L 123.710404 545.551205 
L 123.929957 335.240964 
L 124.14951 512.99917 
L 124.369063 523.44122 
L 124.588616 393.567709 
L 124.808169 541.572942 
L 125.027723 413.877636 
L 125.466829 506.70405 
L 125.905935 338.052861 
L 126.125488 444.920323 
L 126.345041 481.367557 
L 126.564595 541.289265 
L 127.003701 406.401233 
L 127.223254 413.768373 
L 127.442807 388.646695 
L 127.66236 523.430831 
L 127.881914 444.699839 
L 128.32102 494.9986 
L 128.540573 459.714949 
L 128.760126 344.440342 
L 128.979679 509.148862 
L 129.199232 526.792653 
L 129.418786 452.348104 
L 129.638339 473.630069 
L 129.857892 538.75245 
L 130.077445 334.021166 
L 130.296998 453.373339 
L 130.516551 496.816915 
L 130.736105 496.256259 
L 130.955658 343.001828 
L 131.394764 491.0842 
L 131.614317 427.602274 
L 131.83387 563.938229 
L 132.053423 447.989629 
L 132.272977 449.516325 
L 132.49253 390.617805 
L 132.712083 395.182832 
L 132.931636 481.986255 
L 133.151189 495.038811 
L 133.370742 355.583232 
L 133.590296 488.559479 
L 133.809849 354.398232 
L 134.029402 491.06162 
L 134.248955 297.96093 
L 134.468508 485.283898 
L 134.688061 361.15308 
L 134.907614 558.527225 
L 135.127168 507.496599 
L 135.346721 412.945979 
L 135.566274 518.473432 
L 136.00538 403.462126 
L 136.224933 536.820108 
L 136.444487 311.515353 
L 136.66404 514.253459 
L 136.883593 459.718783 
L 137.322699 497.059562 
L 137.542252 483.061796 
L 137.761805 367.095355 
L 138.200912 497.544084 
L 138.640018 476.472812 
L 138.859571 542.132698 
L 139.079124 467.707294 
L 139.298678 501.876899 
L 139.737784 391.70435 
L 139.957337 384.837449 
L 140.396443 503.456851 
L 140.615996 378.383109 
L 140.83555 562.846826 
L 141.274656 414.931006 
L 141.494209 516.539146 
L 141.713762 545.500057 
L 141.933315 499.196136 
L 142.152869 400.538729 
L 142.372422 405.588266 
L 142.591975 550.577381 
L 142.811528 481.992826 
L 143.031081 455.857892 
L 143.250634 515.055765 
L 143.470187 484.028216 
L 143.689741 514.4282 
L 143.909294 458.846692 
L 144.128847 513.410601 
L 144.3484 534.223318 
L 144.567953 442.604427 
L 144.787506 481.584931 
L 145.00706 454.492109 
L 145.226613 520.361158 
L 145.446166 416.76423 
L 145.665719 389.223876 
L 145.885272 488.123108 
L 146.104825 463.128137 
L 146.324378 389.098878 
L 146.543932 480.606996 
L 146.763485 450.389012 
L 146.983038 440.197914 
L 147.202591 485.026635 
L 147.422144 493.270873 
L 147.641697 553.010858 
L 147.861251 333.693465 
L 148.080804 510.398866 
L 148.300357 483.497502 
L 148.51991 333.388306 
L 148.739463 564.471877 
L 148.959016 452.721711 
L 149.178569 545.630742 
L 149.398123 425.122146 
L 149.617676 522.11837 
L 149.837229 480.653575 
L 150.056782 251.885336 
L 150.276335 488.185998 
L 150.495888 424.958686 
L 150.715441 291.775955 
L 150.934995 460.058781 
L 151.154548 494.566184 
L 151.374101 478.85886 
L 151.813207 347.404656 
L 152.252314 502.949835 
L 152.471867 302.706548 
L 152.69142 485.432655 
L 152.910973 399.681017 
L 153.130526 468.147995 
L 153.350079 394.516376 
L 153.569632 425.915636 
L 153.789186 375.416673 
L 154.008739 539.512259 
L 154.228292 514.781361 
L 154.447845 565.310944 
L 154.667398 581.154677 
L 154.886951 526.505836 
L 155.106505 522.652227 
L 155.326058 530.59698 
L 155.545611 519.695476 
L 155.765164 471.252166 
L 155.984717 457.508727 
L 156.20427 416.691905 
L 156.423823 327.046159 
L 156.643377 451.230695 
L 156.86293 471.247855 
L 157.082483 541.487525 
L 157.302036 440.693086 
L 157.521589 400.925929 
L 157.960696 548.029186 
L 158.180249 563.152761 
L 158.619355 327.744566 
L 158.838908 484.325919 
L 159.058461 541.413467 
L 159.497568 342.278249 
L 159.717121 498.889213 
L 159.936674 375.322394 
L 160.156227 475.91989 
L 160.37578 457.709896 
L 160.814887 505.624733 
L 161.03444 418.198964 
L 161.253993 539.529319 
L 161.473546 428.35723 
L 161.693099 400.646358 
L 161.912652 481.780219 
L 162.132205 520.134535 
L 162.351759 536.075933 
L 162.571312 453.445055 
L 163.010418 519.687965 
L 163.229971 510.606731 
L 163.449524 403.562099 
L 163.669078 449.724329 
L 163.888631 519.858549 
L 164.108184 392.694893 
L 164.327737 407.616377 
L 164.54729 326.448851 
L 164.766843 515.122182 
L 164.986396 372.284621 
L 165.20595 555.471228 
L 165.645056 429.504723 
L 165.864609 444.568416 
L 166.084162 478.06452 
L 166.303715 483.649345 
L 166.523269 238.091171 
L 166.742822 529.571483 
L 167.181928 369.533602 
L 167.401481 436.071721 
L 167.621034 451.649145 
L 167.840587 381.242007 
L 168.060141 528.125048 
L 168.279694 343.571213 
L 168.499247 435.501351 
L 168.7188 460.972428 
L 168.938353 433.040497 
L 169.157906 362.232144 
L 169.37746 505.313807 
L 169.597013 534.578395 
L 169.816566 464.373729 
L 170.036119 450.458395 
L 170.255672 514.260522 
L 170.475225 487.372792 
L 170.694778 522.055911 
L 170.914332 344.234645 
L 171.133885 483.50496 
L 171.572991 426.847124 
L 171.792544 444.048721 
L 172.012097 433.679942 
L 172.231651 470.455099 
L 172.451204 445.772709 
L 172.670757 507.907114 
L 172.89031 491.353761 
L 173.109863 501.315968 
L 173.329416 459.792601 
L 173.548969 469.237268 
L 173.768523 490.633366 
L 173.988076 490.756032 
L 174.427182 520.323545 
L 174.646735 331.88575 
L 174.866288 464.529163 
L 175.085842 501.623144 
L 175.305395 450.466269 
L 175.524948 462.640362 
L 175.744501 314.95712 
L 175.964054 503.941696 
L 176.183607 496.935445 
L 176.622714 444.4168 
L 176.842267 484.048209 
L 177.281373 454.360293 
L 177.500926 429.779492 
L 177.720479 360.513493 
L 177.940032 527.453013 
L 178.159586 457.51538 
L 178.379139 438.087964 
L 178.598692 436.029222 
L 178.818245 470.968753 
L 179.037798 422.298198 
L 179.476905 495.787925 
L 179.696458 533.497196 
L 180.135564 498.543901 
L 180.355117 369.529528 
L 180.57467 468.26702 
L 180.794223 461.578112 
L 181.013777 412.613227 
L 181.23333 492.350688 
L 181.452883 497.723815 
L 181.672436 483.306423 
L 181.891989 497.933789 
L 182.111542 410.42878 
L 182.331096 529.975328 
L 182.550649 444.248672 
L 182.770202 462.147842 
L 182.989755 397.055717 
L 183.209308 540.530252 
L 183.428861 456.81414 
L 183.648414 415.717613 
L 183.867968 450.06407 
L 184.087521 508.020881 
L 184.307074 509.601713 
L 184.526627 450.081669 
L 184.74618 552.422355 
L 184.965733 480.380522 
L 185.185287 514.240937 
L 185.40484 429.596278 
L 185.624393 398.483357 
L 185.843946 428.858826 
L 186.063499 326.828322 
L 186.283052 525.039607 
L 186.722159 341.316746 
L 186.941712 533.854568 
L 187.819924 427.50133 
L 188.039478 488.146573 
L 188.259031 320.992308 
L 188.478584 493.806668 
L 188.698137 460.87326 
L 188.91769 532.120065 
L 189.137243 531.593344 
L 189.356796 332.089027 
L 189.57635 388.298533 
L 189.795903 407.903519 
L 190.015456 491.631737 
L 190.454562 403.968713 
L 190.674115 393.327214 
L 190.893669 503.205194 
L 191.113222 506.184919 
L 191.332775 386.172934 
L 191.552328 562.439019 
L 191.771881 490.815767 
L 191.991434 472.898623 
L 192.210987 529.547455 
L 192.430541 398.208632 
L 192.650094 445.981293 
L 192.869647 523.785102 
L 193.0892 379.614538 
L 193.308753 482.236443 
L 193.528306 454.700307 
L 193.74786 491.820118 
L 193.967413 416.000532 
L 194.186966 535.321082 
L 194.406519 512.928767 
L 194.626072 522.669614 
L 194.845625 495.715153 
L 195.065178 491.243216 
L 195.284732 469.744481 
L 195.504285 317.803164 
L 195.943391 529.925509 
L 196.162944 532.825463 
L 196.382497 492.573553 
L 196.602051 395.175444 
L 196.821604 450.958013 
L 197.041157 418.164399 
L 197.480263 463.455511 
L 197.699816 425.002758 
L 197.919369 417.049513 
L 198.138923 480.328249 
L 198.358476 482.501593 
L 198.578029 422.433908 
L 199.017135 528.270072 
L 199.236688 478.614133 
L 199.456242 463.303057 
L 199.675795 521.949595 
L 199.895348 514.47538 
L 200.114901 415.949424 
L 200.334454 475.68413 
L 200.554007 466.843214 
L 200.77356 448.123834 
L 200.993114 483.002082 
L 201.212667 410.090992 
L 201.43222 507.85374 
L 201.651773 529.7509 
L 201.871326 503.463272 
L 202.090879 393.473318 
L 202.529986 471.503466 
L 202.749539 414.578628 
L 202.969092 407.352975 
L 203.188645 466.827644 
L 203.408198 445.456511 
L 203.847305 536.693295 
L 204.066858 445.211035 
L 204.286411 527.703337 
L 204.505964 539.944131 
L 204.94507 378.615021 
L 205.164623 500.435922 
L 205.384177 399.170387 
L 205.60373 509.184234 
L 205.823283 411.536767 
L 206.042836 406.295452 
L 206.262389 421.820471 
L 206.481942 408.26289 
L 206.701496 441.824233 
L 206.921049 502.025298 
L 207.140602 459.211927 
L 207.360155 484.288232 
L 207.579708 489.648451 
L 207.799261 438.131579 
L 208.018814 444.453653 
L 208.238368 501.293273 
L 208.457921 504.371808 
L 208.677474 521.919924 
L 208.897027 446.926281 
L 209.11658 517.535775 
L 209.336133 319.220777 
L 209.555687 433.621938 
L 209.994793 540.546374 
L 210.214346 443.505648 
L 210.433899 505.105404 
L 210.653452 465.111525 
L 210.873005 278.111761 
L 211.312112 472.702207 
L 211.531665 416.790117 
L 211.970771 519.395473 
L 212.190324 518.788411 
L 212.409878 409.688622 
L 212.629431 466.360218 
L 213.068537 497.847482 
L 213.28809 348.020711 
L 213.507643 527.970821 
L 213.727196 436.817706 
L 213.94675 470.871036 
L 214.166303 384.602857 
L 214.385856 520.44817 
L 214.605409 395.575392 
L 214.824962 519.246445 
L 215.044515 490.810466 
L 215.264069 538.129866 
L 215.703175 409.909995 
L 215.922728 529.982393 
L 216.142281 494.422061 
L 216.361834 543.491142 
L 216.581387 508.498255 
L 216.800941 436.248435 
L 217.020494 311.399223 
L 217.240047 462.508621 
L 217.4596 457.41006 
L 217.679153 487.345387 
L 217.898706 562.624985 
L 218.11826 459.581546 
L 218.337813 513.480462 
L 218.557366 388.324195 
L 218.776919 471.850717 
L 218.996472 489.381154 
L 219.216025 486.618455 
L 219.435578 427.09903 
L 219.655132 430.256386 
L 219.874685 452.342364 
L 220.094238 131.956182 
L 220.533344 534.396916 
L 220.752897 321.320687 
L 220.972451 480.878875 
L 221.192004 454.113125 
L 221.63111 533.43113 
L 221.850663 474.06097 
L 222.070216 328.366041 
L 222.289769 449.990094 
L 222.509323 350.281317 
L 222.728876 480.060957 
L 222.948429 474.920794 
L 223.167982 376.662506 
L 223.607088 550.477409 
L 223.826642 312.082325 
L 224.046195 389.899704 
L 224.265748 426.796732 
L 224.485301 487.097955 
L 224.704854 489.042761 
L 224.924407 371.218692 
L 225.14396 393.741299 
L 225.363514 533.274239 
L 225.583067 475.556375 
L 225.80262 482.539048 
L 226.022173 377.036688 
L 226.241726 503.966612 
L 226.461279 445.179212 
L 226.680833 431.617019 
L 226.900386 497.648465 
L 227.119939 427.209241 
L 227.339492 516.967266 
L 227.559045 533.791064 
L 227.778598 453.751448 
L 227.998151 527.607011 
L 228.217705 506.253514 
L 228.437258 444.24073 
L 228.656811 554.807441 
L 228.876364 368.831233 
L 229.095917 508.101486 
L 229.31547 468.194069 
L 229.535023 524.843135 
L 229.754577 541.272796 
L 229.97413 430.211178 
L 230.193683 450.495589 
L 230.413236 382.504804 
L 230.852342 548.168874 
L 231.071896 438.595405 
L 231.291449 551.074507 
L 231.511002 502.426584 
L 231.730555 407.532896 
L 231.950108 497.467196 
L 232.169661 436.048353 
L 232.389214 511.4615 
L 232.608768 426.492338 
L 232.828321 480.236131 
L 233.047874 425.105732 
L 233.267427 525.675177 
L 233.48698 465.575997 
L 233.706533 442.201698 
L 233.926087 465.522161 
L 234.14564 434.007191 
L 234.365193 534.748007 
L 234.584746 375.463998 
L 234.804299 528.461524 
L 235.023852 460.403798 
L 235.243405 431.726221 
L 235.462959 426.292548 
L 235.682512 478.369006 
L 235.902065 434.478058 
L 236.121618 513.419931 
L 236.341171 471.505916 
L 236.560724 459.333597 
L 236.780278 500.672908 
L 236.999831 471.070749 
L 237.219384 419.311869 
L 237.438937 482.305316 
L 237.65849 459.384788 
L 237.878043 407.321777 
L 238.097596 497.75652 
L 238.31715 467.276244 
L 238.536703 533.733471 
L 238.756256 406.147963 
L 238.975809 376.252704 
L 239.195362 484.214378 
L 239.414915 377.027069 
L 239.854022 437.911987 
L 240.073575 498.92312 
L 240.293128 498.426952 
L 240.512681 383.500015 
L 240.732234 484.332425 
L 240.951787 462.117587 
L 241.171341 334.700604 
L 241.390894 524.21672 
L 241.610447 465.395098 
L 241.83 520.866998 
L 242.049553 440.986653 
L 242.269106 482.645412 
L 242.48866 468.749129 
L 242.708213 524.410404 
L 242.927766 386.27575 
L 243.147319 524.944225 
L 243.366872 402.811349 
L 243.586425 509.376683 
L 243.805978 516.145879 
L 244.025532 510.995421 
L 244.245085 430.047677 
L 244.684191 526.374743 
L 244.903744 331.012259 
L 245.123297 469.288152 
L 245.342851 356.073823 
L 245.781957 522.375948 
L 246.221063 457.198074 
L 246.440616 446.555126 
L 246.660169 445.056357 
L 246.879723 503.990364 
L 247.099276 419.001467 
L 247.318829 452.730166 
L 247.757935 477.184748 
L 247.977488 447.673484 
L 248.197042 448.848302 
L 248.636148 528.640312 
L 248.855701 421.699978 
L 249.075254 423.219316 
L 249.294807 365.295 
L 249.51436 363.777854 
L 249.733914 483.685232 
L 249.953467 475.511205 
L 250.17302 453.100621 
L 250.392573 461.749631 
L 250.612126 438.347712 
L 250.831679 497.531841 
L 251.270786 447.486085 
L 251.490339 303.976663 
L 251.709892 464.627191 
L 251.929445 353.096205 
L 252.148998 491.352254 
L 252.368551 457.804083 
L 252.588105 471.835823 
L 252.807658 514.989379 
L 253.246764 445.952411 
L 253.466317 479.415517 
L 253.68587 391.511879 
L 253.905424 475.891676 
L 254.124977 483.196776 
L 254.34453 523.376656 
L 254.783636 458.45466 
L 255.003189 508.51214 
L 255.222742 344.053497 
L 255.442296 567.9624 
L 255.661849 416.756091 
L 255.881402 464.879582 
L 256.320508 502.012768 
L 256.540061 480.294417 
L 256.759614 440.702393 
L 257.198721 566.330191 
L 257.418274 451.331744 
L 257.637827 541.476799 
L 257.85738 383.565246 
L 258.076933 497.982267 
L 258.296487 537.919469 
L 258.51604 525.696684 
L 258.735593 557.883845 
L 258.955146 381.381538 
L 259.174699 442.627971 
L 259.394252 466.649496 
L 259.613805 341.415712 
L 259.833359 498.298155 
L 260.052912 453.544533 
L 260.272465 517.900343 
L 260.492018 415.207028 
L 260.711571 534.841579 
L 260.931124 490.288929 
L 261.150678 368.07735 
L 261.370231 480.276451 
L 262.02889 425.931483 
L 262.248443 499.111201 
L 262.467996 471.852739 
L 262.68755 484.673188 
L 262.907103 523.31178 
L 263.126656 463.515532 
L 263.346209 520.171997 
L 263.565762 513.009693 
L 263.785315 394.941494 
L 264.004869 456.324003 
L 264.224422 393.577568 
L 264.443975 374.752884 
L 264.663528 513.143608 
L 264.883081 445.230448 
L 265.102634 494.49396 
L 265.322187 508.055238 
L 265.541741 431.20229 
L 265.761294 445.498954 
L 265.980847 542.551878 
L 266.419953 359.296915 
L 266.639506 508.210302 
L 266.85906 392.431758 
L 267.078613 368.844556 
L 267.298166 185.78391 
L 267.517719 466.892447 
L 267.737272 446.041637 
L 267.956825 526.423527 
L 268.176378 362.128874 
L 268.615485 474.182064 
L 268.835038 507.336528 
L 269.054591 506.555312 
L 269.274144 429.815234 
L 269.493697 433.706643 
L 269.713251 381.452971 
L 270.152357 507.968864 
L 270.591463 403.300963 
L 270.811016 476.14217 
L 271.030569 465.297778 
L 271.250123 517.736524 
L 271.469676 506.557325 
L 271.689229 517.230521 
L 271.908782 404.869734 
L 272.128335 499.874289 
L 272.347888 457.315248 
L 273.006548 514.832338 
L 273.226101 447.410148 
L 273.445654 494.8742 
L 273.665207 514.691172 
L 273.88476 414.720593 
L 274.104314 495.98425 
L 274.323867 511.841602 
L 274.54342 472.441424 
L 274.762973 478.575736 
L 274.982526 507.003172 
L 275.202079 471.683413 
L 275.421633 407.431728 
L 275.641186 509.830555 
L 275.860739 502.877391 
L 276.519398 305.913974 
L 276.738951 402.414968 
L 276.958505 326.51034 
L 277.178058 294.939992 
L 277.397611 511.132741 
L 277.617164 437.797637 
L 277.836717 461.95095 
L 278.05627 471.419337 
L 278.275824 493.378119 
L 278.495377 460.469521 
L 278.71493 449.008655 
L 278.934483 469.764309 
L 279.154036 511.649975 
L 279.373589 500.316752 
L 279.593142 477.512973 
L 279.812696 323.870768 
L 280.251802 527.218023 
L 280.471355 375.799153 
L 280.690908 493.226617 
L 281.130014 391.407668 
L 281.349568 396.039247 
L 281.569121 415.774337 
L 281.788674 418.308162 
L 282.008227 360.122937 
L 282.22778 467.033157 
L 282.447333 474.360546 
L 282.666887 508.502165 
L 282.88644 421.650517 
L 283.105993 422.355714 
L 283.325546 413.331088 
L 283.545099 533.769536 
L 283.764652 435.312601 
L 283.984205 435.790645 
L 284.203759 452.416314 
L 284.423312 317.118746 
L 284.642865 496.819345 
L 284.862418 333.381589 
L 285.081971 428.43177 
L 285.301524 431.621034 
L 285.521078 405.193258 
L 285.740631 425.917243 
L 285.960184 495.649639 
L 286.179737 462.254743 
L 286.39929 489.056936 
L 286.618843 491.268808 
L 286.838396 505.476471 
L 287.277503 452.731281 
L 287.497056 295.37878 
L 287.716609 473.971652 
L 287.936162 436.362287 
L 288.155715 557.912295 
L 288.375269 457.019509 
L 288.594822 437.361244 
L 288.814375 453.712182 
L 289.033928 504.106258 
L 289.473034 476.804724 
L 289.692587 524.529519 
L 289.912141 434.882722 
L 290.131694 483.859629 
L 290.351247 415.22586 
L 290.5708 489.853053 
L 290.790353 476.006987 
L 291.009906 433.288963 
L 291.449013 528.678409 
L 291.668566 446.555589 
L 291.888119 507.367686 
L 292.107672 365.375455 
L 292.327225 501.362829 
L 292.546778 473.303096 
L 292.766332 480.49559 
L 292.985885 463.638746 
L 293.205438 399.100259 
L 293.424991 508.869117 
L 293.644544 494.347676 
L 293.864097 530.616344 
L 294.083651 468.609537 
L 294.303204 537.531762 
L 294.522757 379.768722 
L 294.74231 502.256747 
L 295.181416 431.426276 
L 295.620523 530.05977 
L 295.840076 505.679876 
L 296.059629 389.475859 
L 296.279182 504.867226 
L 296.498735 452.863027 
L 296.718288 502.432687 
L 296.937842 468.7447 
L 297.157395 338.828052 
L 297.376948 477.534537 
L 297.596501 490.819399 
L 297.816054 291.230742 
L 298.035607 384.432394 
L 298.25516 404.221705 
L 298.474714 405.846176 
L 298.694267 492.084768 
L 298.91382 378.951972 
L 299.133373 352.296716 
L 299.352926 526.091968 
L 299.572479 404.916092 
L 299.792033 508.107044 
L 300.231139 436.796378 
L 300.450692 434.069274 
L 300.670245 458.538796 
L 300.889798 470.038692 
L 301.109351 381.777805 
L 301.328905 483.092601 
L 301.548458 513.965521 
L 301.768011 459.146406 
L 301.987564 491.107598 
L 302.207117 480.793109 
L 302.42667 439.795974 
L 302.646224 465.007537 
L 302.865777 415.561935 
L 303.08533 485.295544 
L 303.304883 463.7167 
L 303.524436 464.392053 
L 303.743989 485.285644 
L 303.963542 420.243291 
L 304.183096 461.368359 
L 304.402649 387.005727 
L 304.622202 420.443272 
L 304.841755 521.922186 
L 305.061308 451.811305 
L 305.280861 487.706522 
L 305.500415 439.476418 
L 305.719968 447.131139 
L 305.939521 392.521296 
L 306.159074 474.127475 
L 306.378627 287.764446 
L 306.59818 497.875475 
L 306.817733 486.681503 
L 307.037287 355.460976 
L 307.25684 516.024548 
L 307.476393 443.445183 
L 307.695946 562.771586 
L 307.915499 389.866691 
L 308.135052 544.251831 
L 308.354605 470.211303 
L 308.574159 283.06568 
L 308.793712 464.968804 
L 309.013265 408.918059 
L 309.232818 447.861193 
L 309.452371 398.58886 
L 309.671924 510.948504 
L 309.891478 503.095436 
L 310.111031 416.642054 
L 310.330584 409.179468 
L 310.550137 520.816661 
L 310.76969 345.353126 
L 310.989243 346.024444 
L 311.208796 445.429583 
L 311.42835 406.152084 
L 311.647903 448.388316 
L 311.867456 438.767353 
L 312.087009 468.233212 
L 312.306562 414.386835 
L 312.526115 505.685368 
L 312.965222 417.634345 
L 313.184775 486.867634 
L 313.404328 353.337317 
L 313.623881 487.114286 
L 313.843434 189.34084 
L 314.062987 515.959095 
L 314.282541 424.676232 
L 314.502094 406.011156 
L 314.721647 476.071261 
L 314.9412 411.972246 
L 315.160753 486.379593 
L 315.380306 428.169777 
L 315.59986 461.064446 
L 315.819413 429.409713 
L 316.038966 472.768723 
L 316.258519 485.129204 
L 316.478072 420.475031 
L 316.697625 496.204657 
L 316.917178 398.602166 
L 317.136732 525.041877 
L 317.356285 521.950793 
L 317.575838 375.159411 
L 317.795391 482.771592 
L 318.014944 370.065098 
L 318.454051 494.502469 
L 318.673604 404.270928 
L 318.893157 486.705289 
L 319.11271 500.213202 
L 319.332263 426.217548 
L 319.551816 500.585995 
L 319.771369 485.849056 
L 319.990923 482.868186 
L 320.210476 551.050873 
L 320.430029 434.140861 
L 320.649582 408.051873 
L 320.869135 450.127681 
L 321.088688 521.046793 
L 321.308242 506.050631 
L 321.527795 395.862203 
L 321.747348 528.91894 
L 321.966901 397.050588 
L 322.186454 472.566668 
L 322.406007 454.552107 
L 322.845114 536.496282 
L 323.064667 501.608404 
L 323.28422 288.876694 
L 323.503773 498.280639 
L 323.723326 361.461706 
L 323.942879 389.394118 
L 324.381986 505.344113 
L 324.601539 373.911152 
L 324.821092 474.724625 
L 325.040645 405.382462 
L 325.260198 414.255997 
L 325.479751 530.450641 
L 325.699305 373.776812 
L 326.138411 469.075085 
L 326.357964 454.22863 
L 326.577517 532.048333 
L 326.79707 506.198345 
L 327.016624 401.734487 
L 327.45573 521.368299 
L 327.675283 435.838352 
L 327.894836 429.403279 
L 328.114389 427.280873 
L 328.333942 507.537641 
L 328.553496 372.429679 
L 328.773049 530.03277 
L 328.992602 382.631508 
L 329.212155 511.389998 
L 329.431708 475.939191 
L 329.651261 413.53682 
L 329.870815 253.455825 
L 330.090368 388.157499 
L 330.529474 489.222029 
L 330.749027 462.758809 
L 330.96858 465.000018 
L 331.188133 418.069145 
L 331.407687 536.722704 
L 331.62724 465.596956 
L 332.066346 405.727115 
L 332.505452 474.143202 
L 332.725006 456.546135 
L 332.944559 457.124348 
L 333.164112 478.089636 
L 333.383665 460.266013 
L 333.603218 397.771985 
L 333.822771 478.432082 
L 334.042324 415.739024 
L 334.261878 467.426141 
L 334.481431 473.488868 
L 334.700984 445.364319 
L 334.920537 492.187763 
L 335.14009 459.47377 
L 335.359643 511.857841 
L 335.579196 482.855065 
L 335.79875 549.861497 
L 336.457409 401.77066 
L 336.676962 481.79865 
L 336.896515 390.761324 
L 337.116069 518.186993 
L 337.335622 506.134871 
L 337.555175 518.189629 
L 337.774728 478.055052 
L 337.994281 508.001927 
L 338.433387 411.133599 
L 338.652941 480.19349 
L 338.872494 509.4753 
L 339.092047 321.855494 
L 339.531153 462.133692 
L 339.750706 429.777715 
L 339.97026 532.116432 
L 340.189813 419.991311 
L 340.409366 539.291214 
L 340.628919 416.2678 
L 340.848472 530.719615 
L 341.068025 522.37701 
L 341.287578 437.73753 
L 341.507132 426.553226 
L 341.726685 296.348172 
L 341.946238 489.157588 
L 342.165791 514.359416 
L 342.385344 519.22244 
L 342.604897 541.034509 
L 342.824451 345.994751 
L 343.263557 542.261324 
L 343.48311 423.756151 
L 343.922216 500.041402 
L 344.141769 477.188958 
L 344.361323 407.759691 
L 344.580876 448.971055 
L 344.800429 419.716594 
L 345.019982 517.38796 
L 345.239535 513.716909 
L 345.459088 500.844167 
L 345.678642 459.039464 
L 345.898195 446.611412 
L 346.117748 499.984061 
L 346.337301 483.231315 
L 346.556854 501.74673 
L 346.776407 456.080332 
L 346.99596 457.614377 
L 347.215514 472.561247 
L 347.435067 441.234742 
L 347.65462 294.592093 
L 347.874173 486.053385 
L 348.093726 492.026977 
L 348.313279 506.877453 
L 348.532833 456.475121 
L 348.752386 483.026785 
L 348.971939 542.560444 
L 349.191492 323.257291 
L 349.411045 413.870492 
L 349.630598 392.39718 
L 349.850151 487.116436 
L 350.289258 459.347382 
L 350.508811 481.968345 
L 350.728364 438.305202 
L 350.947917 477.935086 
L 351.16747 468.250484 
L 351.387024 503.31377 
L 351.606577 449.605931 
L 351.82613 492.481733 
L 352.265236 342.184431 
L 352.484789 533.148713 
L 352.704342 336.71818 
L 352.923896 475.408911 
L 353.143449 442.111044 
L 353.363002 514.534557 
L 353.582555 420.733331 
L 353.802108 518.432629 
L 354.021661 504.824879 
L 354.241215 378.517502 
L 354.460768 449.021126 
L 354.680321 480.52417 
L 354.899874 461.033479 
L 355.119427 527.369288 
L 355.558533 476.947784 
L 355.778087 525.566269 
L 355.99764 528.495086 
L 356.436746 460.555548 
L 356.656299 505.028708 
L 356.875852 430.100342 
L 357.095406 405.37335 
L 357.314959 472.295134 
L 357.534512 445.663178 
L 357.754065 514.169279 
L 357.973618 497.720464 
L 358.193171 450.456419 
L 358.412724 469.190814 
L 358.632278 457.262362 
L 358.851831 522.852491 
L 359.290937 485.278192 
L 359.51049 434.812475 
L 359.730043 353.616581 
L 360.16915 441.524922 
L 360.388703 456.959111 
L 360.608256 427.280814 
L 361.047362 481.042355 
L 361.266915 421.665771 
L 361.486469 461.966272 
L 361.706022 377.351756 
L 361.925575 477.634233 
L 362.145128 446.916138 
L 362.364681 485.812114 
L 362.584234 467.750934 
L 362.803787 388.619229 
L 363.242894 525.994554 
L 363.462447 444.402119 
L 363.682 483.80956 
L 363.901553 499.425178 
L 364.121106 571.782815 
L 364.34066 445.298857 
L 364.560213 440.402896 
L 364.779766 500.29777 
L 364.999319 480.796147 
L 365.218872 543.275981 
L 365.438425 554.166449 
L 365.657978 462.342913 
L 365.877532 432.776374 
L 366.097085 372.335578 
L 366.316638 463.60119 
L 366.536191 446.077377 
L 366.755744 381.684443 
L 366.975297 506.622917 
L 367.194851 527.08177 
L 367.633957 414.979311 
L 367.85351 539.778175 
L 368.073063 527.280906 
L 368.512169 430.517696 
L 368.731723 385.370294 
L 368.951276 511.279313 
L 369.170829 503.505516 
L 369.609935 509.909296 
L 370.049042 440.690916 
L 370.268595 307.412609 
L 370.488148 520.522455 
L 370.707701 322.863706 
L 370.927254 346.254835 
L 371.146807 514.16366 
L 371.36636 480.956337 
L 371.585914 251.903719 
L 371.805467 545.701196 
L 372.02502 382.891116 
L 372.244573 452.879644 
L 372.464126 361.939893 
L 372.683679 549.392537 
L 372.903233 437.089281 
L 373.122786 422.413042 
L 373.561892 348.008294 
L 373.781445 235.671954 
L 374.220551 479.567547 
L 374.440105 552.156501 
L 374.659658 542.570924 
L 374.879211 492.45841 
L 375.098764 500.895384 
L 375.318317 387.146956 
L 375.53787 402.721692 
L 375.757424 449.880839 
L 375.976977 536.905547 
L 376.19653 397.683277 
L 376.416083 473.404069 
L 376.635636 401.008731 
L 376.855189 386.912191 
L 377.513849 529.106383 
L 377.733402 379.289229 
L 377.952955 499.290353 
L 378.172508 391.612053 
L 378.392061 378.575517 
L 378.611615 322.662052 
L 378.831168 529.903844 
L 379.050721 435.12682 
L 379.489827 389.058045 
L 379.70938 560.199092 
L 379.928933 494.163021 
L 380.148487 494.719287 
L 380.36804 526.643407 
L 380.587593 473.447259 
L 380.807146 480.675295 
L 381.026699 522.428837 
L 381.246252 493.85123 
L 381.465806 425.917143 
L 381.685359 502.588006 
L 381.904912 386.076846 
L 382.124465 397.342743 
L 382.344018 539.708418 
L 382.783124 492.089549 
L 383.002678 469.246932 
L 383.222231 485.756411 
L 383.441784 489.788966 
L 383.88089 429.400819 
L 384.100443 514.135588 
L 384.319997 538.121521 
L 384.53955 393.391811 
L 384.759103 463.37994 
L 384.978656 389.625408 
L 385.198209 494.609582 
L 385.417762 482.664526 
L 385.637315 543.636958 
L 385.856869 429.72691 
L 386.076422 470.322368 
L 386.515528 351.863353 
L 386.735081 454.088532 
L 386.954634 464.309575 
L 387.174187 448.394675 
L 387.393741 499.758299 
L 387.613294 467.729485 
L 388.0524 497.791094 
L 388.491506 375.316796 
L 388.71106 245.795376 
L 388.930613 525.862947 
L 389.150166 505.289991 
L 389.369719 451.199443 
L 389.589272 436.457052 
L 389.808825 451.655728 
L 390.247932 347.206946 
L 390.467485 469.290265 
L 390.687038 519.217547 
L 390.906591 502.043788 
L 391.126144 430.40382 
L 391.345697 498.578346 
L 391.565251 515.365066 
L 391.784804 516.745986 
L 392.22391 298.216631 
L 392.443463 462.652852 
L 392.663016 469.504737 
L 392.882569 428.552433 
L 393.102123 520.649582 
L 393.321676 520.712151 
L 393.760782 450.043348 
L 393.980335 425.768372 
L 394.419442 482.716534 
L 394.858548 392.731793 
L 395.078101 400.017362 
L 395.297654 519.194445 
L 395.517207 418.78665 
L 395.73676 517.27791 
L 395.956314 542.914209 
L 396.614973 281.884813 
L 396.834526 498.672836 
L 397.054079 545.645774 
L 397.273633 547.837064 
L 397.493186 470.971113 
L 397.712739 511.842605 
L 398.151845 437.763127 
L 398.371398 423.996468 
L 398.590951 498.871131 
L 398.810505 487.369799 
L 399.030058 492.210458 
L 399.249611 316.098317 
L 399.469164 467.949335 
L 399.688717 462.445792 
L 399.90827 520.44271 
L 400.127824 511.008802 
L 400.347377 490.228588 
L 400.56693 452.892801 
L 400.786483 368.693305 
L 401.225589 478.993232 
L 401.445142 500.016071 
L 401.664696 451.358795 
L 401.884249 466.398554 
L 402.103802 501.543559 
L 402.323355 358.330347 
L 402.542908 482.619905 
L 402.982015 562.804319 
L 403.421121 318.594152 
L 403.640674 415.043163 
L 403.860227 454.799888 
L 404.07978 459.419459 
L 404.299333 234.771135 
L 404.518887 512.585014 
L 404.73844 466.776018 
L 404.957993 472.936639 
L 405.177546 402.435105 
L 405.397099 481.228993 
L 405.836206 438.621338 
L 406.055759 394.219817 
L 406.275312 461.021421 
L 406.494865 458.314465 
L 406.714418 453.361472 
L 406.933971 556.189649 
L 407.153524 460.499213 
L 407.373078 434.586062 
L 407.592631 496.6003 
L 407.812184 357.938952 
L 408.031737 488.673926 
L 408.470843 247.788494 
L 408.90995 527.85638 
L 409.129503 436.201904 
L 409.349056 458.200326 
L 409.568609 442.222123 
L 409.788162 284.283583 
L 410.007715 483.630091 
L 410.227269 420.063915 
L 410.446822 523.473078 
L 410.666375 319.292362 
L 410.885928 369.571661 
L 411.105481 540.345174 
L 411.544587 440.539615 
L 411.764141 474.582987 
L 411.983694 416.871097 
L 412.203247 392.340632 
L 412.4228 466.730164 
L 412.861906 333.36253 
L 413.301013 550.258222 
L 413.520566 459.045877 
L 413.740119 456.026962 
L 413.959672 504.53296 
L 414.179225 407.07352 
L 414.398778 562.331084 
L 414.618332 462.704519 
L 414.837885 484.386251 
L 415.057438 531.187386 
L 415.276991 487.945713 
L 415.496544 537.705209 
L 415.716097 358.184366 
L 415.935651 471.900052 
L 416.155204 336.819014 
L 416.59431 533.873563 
L 417.033416 453.420782 
L 417.252969 510.904275 
L 417.472523 469.71807 
L 417.692076 470.652353 
L 417.911629 469.316526 
L 418.131182 491.711062 
L 418.350735 526.074228 
L 418.570288 239.090754 
L 418.789842 513.854615 
L 419.009395 478.660524 
L 419.228948 520.912423 
L 419.668054 472.724269 
L 419.887607 451.555796 
L 420.10716 414.376765 
L 420.326714 520.059095 
L 420.546267 508.804868 
L 420.76582 320.129126 
L 420.985373 450.688921 
L 421.204926 512.814014 
L 421.424479 459.763956 
L 421.644033 451.635545 
L 421.863586 487.670196 
L 422.302692 449.104431 
L 422.522245 482.580514 
L 422.741798 453.791684 
L 422.961351 471.003175 
L 423.400458 404.25262 
L 423.620011 252.628496 
L 423.839564 311.047425 
L 424.059117 504.177164 
L 424.27867 463.302848 
L 424.498224 443.909813 
L 424.717777 480.495123 
L 424.93733 451.646083 
L 425.156883 495.592317 
L 425.376436 398.858061 
L 425.815542 479.637906 
L 426.035096 440.447026 
L 426.693755 498.868047 
L 426.913308 350.750984 
L 427.132861 471.165678 
L 427.352415 361.840397 
L 427.791521 558.076067 
L 428.011074 434.208407 
L 428.230627 503.938131 
L 428.45018 510.643904 
L 428.669733 390.390415 
L 428.889287 390.588372 
L 429.547946 525.831119 
L 429.767499 402.229307 
L 429.987052 523.018939 
L 430.206606 525.913049 
L 430.426159 533.889834 
L 430.645712 472.312948 
L 430.865265 506.22924 
L 431.084818 500.706734 
L 431.304371 435.142813 
L 431.523924 472.87976 
L 431.743478 407.41976 
L 431.963031 454.521329 
L 432.182584 374.187536 
L 432.402137 457.403154 
L 432.62169 418.571251 
L 432.841243 466.654375 
L 433.060797 542.768713 
L 433.499903 367.991468 
L 433.939009 386.149412 
L 434.158562 479.852422 
L 434.378115 459.396611 
L 434.597669 400.746107 
L 434.817222 495.521429 
L 435.036775 470.723869 
L 435.256328 413.005996 
L 435.475881 507.430954 
L 435.695434 371.280311 
L 435.914988 488.067593 
L 436.354094 437.225131 
L 436.573647 469.028478 
L 436.7932 396.658499 
L 437.012753 492.756103 
L 437.232306 462.75232 
L 437.45186 463.584708 
L 437.671413 534.254751 
L 437.890966 410.825129 
L 438.110519 408.862357 
L 438.330072 558.180454 
L 438.549625 315.427592 
L 438.769178 392.65063 
L 438.988732 400.424514 
L 439.208285 360.940872 
L 439.427838 370.251863 
L 439.866944 517.006382 
L 440.086497 393.007024 
L 440.306051 540.110971 
L 440.525604 516.065715 
L 440.745157 439.501212 
L 440.96471 486.538672 
L 441.184263 478.508189 
L 441.403816 380.893654 
L 441.623369 497.520037 
L 441.842923 386.408304 
L 442.282029 490.872349 
L 442.501582 454.004802 
L 442.721135 453.946602 
L 442.940688 457.264369 
L 443.160242 481.93137 
L 443.379795 542.82706 
L 443.599348 432.769994 
L 443.818901 391.583143 
L 444.038454 516.324036 
L 444.258007 516.982213 
L 444.47756 393.734627 
L 444.697114 534.518061 
L 444.916667 503.071033 
L 445.13622 506.632396 
L 445.355773 479.914501 
L 445.575326 517.650029 
L 445.794879 474.224821 
L 446.014433 473.509464 
L 446.233986 459.36573 
L 446.453539 502.242445 
L 446.673092 464.210317 
L 446.892645 403.958394 
L 447.112198 465.400912 
L 447.331751 481.835024 
L 447.770858 458.645762 
L 447.990411 541.179081 
L 448.209964 427.895884 
L 448.429517 406.643712 
L 448.64907 453.384262 
L 448.868624 435.16281 
L 449.088177 318.31627 
L 449.30773 462.665161 
L 449.527283 440.341932 
L 449.746836 404.489269 
L 449.966389 232.195881 
L 450.185942 511.279426 
L 450.405496 448.518901 
L 450.625049 490.604837 
L 450.844602 463.565155 
L 451.064155 459.129977 
L 451.283708 483.706033 
L 451.503261 387.926758 
L 451.722815 539.059382 
L 452.161921 421.387281 
L 452.381474 465.110496 
L 452.82058 410.470318 
L 453.040133 498.072216 
L 453.259687 375.322154 
L 453.698793 500.338463 
L 453.918346 415.591581 
L 454.137899 457.158609 
L 454.357452 454.546203 
L 454.577006 461.102314 
L 454.796559 460.626276 
L 455.016112 461.718962 
L 455.235665 518.432251 
L 455.455218 532.313222 
L 455.894324 444.261555 
L 456.113878 498.190954 
L 456.333431 513.227645 
L 456.552984 333.908766 
L 456.99209 484.083079 
L 457.211643 515.124417 
L 457.431197 489.461355 
L 457.65075 513.070539 
L 457.870303 454.707475 
L 458.089856 511.117101 
L 458.309409 398.994186 
L 458.748515 532.86515 
L 458.968069 502.344672 
L 459.187622 449.918581 
L 459.407175 509.113018 
L 459.626728 505.109916 
L 459.846281 490.876207 
L 460.065834 507.318109 
L 460.504941 459.375299 
L 460.724494 379.614722 
L 460.944047 468.364315 
L 461.1636 442.135802 
L 461.602706 502.327939 
L 461.82226 385.036428 
L 462.041813 564.189035 
L 462.480919 447.607669 
L 462.700472 486.854764 
L 462.920025 375.588222 
L 463.139579 417.115956 
L 463.359132 398.021501 
L 463.578685 509.898035 
L 463.798238 549.089908 
L 464.237344 435.16928 
L 464.456897 459.520265 
L 464.676451 388.865469 
L 464.896004 431.828748 
L 465.115557 505.177684 
L 465.33511 393.967105 
L 465.554663 518.202936 
L 465.774216 471.705146 
L 465.993769 509.625602 
L 466.432876 444.293138 
L 466.652429 435.773899 
L 466.871982 472.338477 
L 467.091535 465.198836 
L 467.311088 512.355861 
L 467.530642 460.245242 
L 467.750195 577.359538 
L 468.189301 480.088467 
L 468.408854 421.013635 
L 468.628407 496.461765 
L 468.84796 359.925495 
L 469.067514 468.622058 
L 469.287067 445.887175 
L 469.50662 439.424667 
L 469.726173 462.945101 
L 470.165279 411.459162 
L 470.384833 506.48537 
L 470.604386 493.821799 
L 470.823939 463.071935 
L 471.043492 402.700184 
L 471.263045 507.843033 
L 471.482598 486.198295 
L 471.702151 449.886932 
L 471.921705 448.024509 
L 472.141258 581.38839 
L 472.360811 300.394372 
L 472.580364 507.694981 
L 472.799917 484.082983 
L 473.01947 528.686622 
L 473.239024 372.325869 
L 473.458577 359.826044 
L 473.67813 390.531502 
L 473.897683 357.313448 
L 474.117236 480.763612 
L 474.336789 279.487328 
L 474.556342 478.201886 
L 474.775896 481.176261 
L 474.995449 532.731275 
L 475.215002 496.474476 
L 475.434555 409.831447 
L 475.654108 397.873202 
L 475.873661 408.983149 
L 476.093215 513.723333 
L 476.312768 479.440211 
L 476.532321 493.864768 
L 476.751874 431.757872 
L 476.971427 290.170519 
L 477.19098 304.189015 
L 477.410533 436.982508 
L 477.630087 424.360765 
L 477.84964 420.511232 
L 478.069193 498.349175 
L 478.727852 427.003208 
L 478.947406 481.713124 
L 479.166959 483.620423 
L 479.386512 442.30081 
L 479.606065 276.473317 
L 479.825618 523.424687 
L 480.045171 494.378282 
L 480.264724 270.577478 
L 480.484278 451.591662 
L 480.703831 450.606821 
L 480.923384 506.210767 
L 481.36249 342.084858 
L 481.582043 543.504645 
L 481.801597 527.176089 
L 482.02115 422.94556 
L 482.240703 493.559021 
L 482.460256 303.503454 
L 482.679809 467.745228 
L 482.899362 372.552032 
L 483.118915 350.299381 
L 483.338469 522.043261 
L 483.558022 365.008343 
L 483.777575 469.757259 
L 483.997128 439.657459 
L 484.216681 466.123646 
L 484.436234 435.168179 
L 484.655788 529.379915 
L 484.875341 438.078415 
L 485.094894 415.460626 
L 485.314447 505.2773 
L 485.534 507.117269 
L 485.753553 511.934875 
L 485.973106 493.560218 
L 486.19266 463.497778 
L 486.412213 541.364214 
L 486.631766 496.755389 
L 486.851319 507.283265 
L 487.070872 433.91526 
L 487.290425 435.783593 
L 487.509979 505.520421 
L 487.729532 445.437272 
L 487.949085 329.978185 
L 488.168638 487.275415 
L 488.388191 459.272338 
L 488.607744 297.328621 
L 488.827297 527.43712 
L 489.266404 369.621281 
L 489.485957 494.096788 
L 489.925063 388.015116 
L 490.144616 465.479706 
L 490.364169 496.64312 
L 490.583723 461.250345 
L 490.803276 251.935465 
L 491.022829 477.499517 
L 491.242382 471.365583 
L 491.681488 503.835802 
L 491.901042 485.579385 
L 492.120595 328.452252 
L 492.340148 467.201346 
L 492.559701 460.919938 
L 492.998807 511.971751 
L 493.21836 398.847673 
L 493.437914 457.231773 
L 493.657467 472.959558 
L 493.87702 511.281258 
L 494.096573 418.3819 
L 494.316126 415.145085 
L 494.535679 513.917435 
L 494.755233 332.249764 
L 494.974786 507.173568 
L 495.194339 519.827779 
L 495.413892 418.138733 
L 495.633445 491.934309 
L 495.852998 483.804794 
L 496.072551 377.786458 
L 496.292105 509.732846 
L 496.511658 427.782866 
L 496.731211 402.870521 
L 496.950764 448.803743 
L 497.170317 411.436994 
L 497.38987 455.523731 
L 497.609424 474.895456 
L 497.828977 447.308961 
L 498.04853 499.589821 
L 498.268083 427.609626 
L 498.487636 484.172966 
L 498.707189 400.431485 
L 498.926742 505.486495 
L 499.146296 348.835197 
L 499.365849 490.39777 
L 499.585402 365.882965 
L 499.804955 369.656221 
L 500.024508 275.94793 
L 500.244061 460.41012 
L 500.463615 384.339731 
L 500.902721 490.535512 
L 501.122274 458.177131 
L 501.341827 356.072383 
L 501.56138 503.235656 
L 502.000487 413.436854 
L 502.22004 515.006452 
L 502.659146 403.677461 
L 502.878699 444.319597 
L 503.098252 453.120897 
L 503.317806 375.135887 
L 503.537359 495.029366 
L 503.756912 495.097231 
L 503.976465 546.880843 
L 504.196018 521.229256 
L 504.415571 515.699686 
L 504.635124 481.446939 
L 504.854678 546.963792 
L 505.074231 514.130661 
L 505.293784 391.816892 
L 505.513337 401.033902 
L 505.73289 518.821201 
L 505.952443 416.185386 
L 506.171997 430.122203 
L 506.39155 483.039901 
L 506.611103 448.358545 
L 506.830656 531.863786 
L 507.050209 430.726546 
L 507.269762 385.897159 
L 507.489315 423.005449 
L 507.708869 521.41253 
L 508.147975 336.027405 
L 508.367528 508.066714 
L 508.587081 430.931482 
L 508.806634 310.696977 
L 509.026188 276.068 
L 509.465294 532.918702 
L 509.684847 460.95118 
L 509.9044 492.321709 
L 510.343506 332.967317 
L 510.56306 467.22108 
L 510.782613 448.552537 
L 511.002166 550.676708 
L 511.221719 354.748077 
L 511.441272 508.65704 
L 511.660825 502.065034 
L 511.880379 335.977801 
L 512.099932 375.037053 
L 512.319485 342.673324 
L 512.539038 456.829007 
L 512.758591 507.421383 
L 512.978144 445.396115 
L 513.417251 539.384336 
L 513.636804 377.153646 
L 513.856357 501.979733 
L 514.07591 481.609965 
L 514.515016 497.018577 
L 514.73457 467.694643 
L 514.954123 370.211476 
L 515.173676 406.093819 
L 515.393229 484.913286 
L 515.612782 266.704691 
L 515.832335 309.440552 
L 516.051888 558.756425 
L 516.271442 459.179216 
L 516.490995 458.207936 
L 516.710548 468.050934 
L 516.930101 436.113621 
L 517.149654 475.241757 
L 517.58876 386.512923 
L 517.808314 451.295682 
L 518.24742 473.97057 
L 518.466973 308.76878 
L 518.906079 549.377283 
L 519.125633 278.704402 
L 519.345186 556.890218 
L 519.564739 530.663182 
L 520.003845 390.205899 
L 520.442951 527.888474 
L 520.662505 444.121133 
L 520.882058 488.49438 
L 521.101611 403.771431 
L 521.321164 378.316041 
L 521.540717 514.978752 
L 521.76027 476.882947 
L 521.979824 510.500356 
L 522.199377 501.001783 
L 522.41893 430.171369 
L 522.638483 503.377208 
L 522.858036 538.331178 
L 523.077589 518.529814 
L 523.297142 464.143113 
L 523.516696 453.643968 
L 523.736249 448.700206 
L 523.955802 473.332409 
L 524.175355 470.113557 
L 524.394908 484.649775 
L 524.614461 469.10919 
L 525.053568 518.375335 
L 525.273121 375.407518 
L 525.492674 493.041606 
L 525.712227 411.478092 
L 525.93178 503.696176 
L 526.151333 522.960678 
L 526.370887 339.29701 
L 526.59044 387.68092 
L 526.809993 463.026848 
L 527.029546 468.704713 
L 527.249099 175.347091 
L 527.468652 445.69773 
L 527.907759 481.650811 
L 528.127312 490.629472 
L 528.346865 426.955192 
L 528.566418 300.741437 
L 528.785971 443.437238 
L 529.005524 364.119514 
L 529.225078 337.486886 
L 529.444631 440.990712 
L 529.664184 463.511821 
L 529.883737 504.406391 
L 530.10329 450.646346 
L 530.322843 456.655393 
L 530.542397 454.99405 
L 530.76195 518.51386 
L 530.981503 513.666564 
L 531.201056 450.088243 
L 531.420609 434.327324 
L 531.640162 357.589636 
L 531.859715 494.359758 
L 532.079269 547.421578 
L 532.298822 367.689493 
L 532.518375 539.558992 
L 532.957481 413.122129 
L 533.396588 531.626928 
L 533.616141 538.627877 
L 533.835694 390.610184 
L 534.055247 441.276015 
L 534.2748 464.459625 
L 534.494353 374.09071 
L 534.713906 396.563739 
L 534.93346 513.825966 
L 535.153013 524.356119 
L 535.592119 457.468897 
L 535.811672 428.545807 
L 536.031225 497.740193 
L 536.250779 457.87515 
L 536.470332 505.100243 
L 536.689885 483.113241 
L 536.909438 472.938514 
L 537.128991 410.571584 
L 537.348544 446.030061 
L 537.568097 407.38941 
L 537.787651 434.510244 
L 538.007204 487.134511 
L 538.226757 493.998914 
L 538.44631 417.402201 
L 538.665863 470.359366 
L 538.885416 470.749416 
L 539.10497 517.724744 
L 539.324523 352.150953 
L 539.544076 362.017851 
L 539.763629 476.447258 
L 539.983182 488.803146 
L 540.202735 413.207177 
L 540.422288 517.280226 
L 540.641842 482.917722 
L 540.861395 270.995403 
L 541.300501 455.704002 
L 541.739607 517.460119 
L 541.95916 513.991898 
L 542.178714 487.721941 
L 542.398267 564.254847 
L 542.61782 419.668075 
L 542.837373 351.599052 
L 543.056926 340.768087 
L 543.276479 482.55098 
L 543.715586 377.125958 
L 543.935139 442.382822 
L 544.154692 454.808456 
L 544.374245 518.905621 
L 544.593798 531.184479 
L 544.813351 430.1062 
L 545.032905 551.053032 
L 545.472011 431.246967 
L 545.691564 504.304002 
L 546.13067 409.388325 
L 546.350224 508.435159 
L 546.569777 516.858863 
L 546.78933 485.667477 
L 547.008883 419.735729 
L 547.228436 479.660062 
L 547.447989 502.148044 
L 547.667542 413.74296 
L 547.887096 526.802813 
L 548.106649 434.100951 
L 548.326202 521.782777 
L 548.545755 531.236699 
L 548.765308 501.53558 
L 548.984861 360.548733 
L 549.204415 535.058135 
L 549.423968 498.694074 
L 549.643521 540.076038 
L 549.863074 543.558125 
L 550.082627 431.749774 
L 550.30218 520.784619 
L 550.521733 493.45081 
L 550.741287 321.440951 
L 550.96084 508.449708 
L 551.180393 371.371006 
L 551.399946 453.67718 
L 551.619499 429.837762 
L 551.839052 472.065255 
L 552.058606 479.268339 
L 552.278159 468.022588 
L 552.497712 421.313593 
L 552.717265 496.15239 
L 553.156371 423.958147 
L 553.375924 472.373476 
L 553.595478 437.687877 
L 553.815031 503.842759 
L 554.034584 468.781656 
L 554.254137 532.034708 
L 554.47369 476.016827 
L 554.693243 491.000624 
L 554.912797 387.675861 
L 555.13235 502.644382 
L 555.351903 503.103044 
L 555.791009 461.24257 
L 556.010562 441.954872 
L 556.230115 454.095949 
L 556.449669 433.300736 
L 556.669222 533.58611 
L 557.108328 522.681268 
L 557.327881 467.425594 
L 557.547434 462.70043 
L 557.766988 507.191682 
L 557.986541 504.002462 
L 558.206094 442.062032 
L 558.6452 448.871678 
L 558.864753 519.342127 
L 559.084306 455.551672 
L 559.30386 518.477901 
L 559.523413 461.161178 
L 559.742966 476.667725 
L 559.742966 476.667725 
" style="fill:none;stroke:#96c69a;stroke-linecap:round;stroke-width:3;"/>
   </g>
   <g id="line2d_2"/>
   <g id="patch_3">
    <path d="M 98.911875 603.86 
L 98.911875 109.484571 
" style="fill:none;stroke:#262626;stroke-linecap:square;stroke-linejoin:miter;stroke-width:2.5;"/>
   </g>
   <g id="patch_4">
    <path d="M 98.911875 603.86 
L 581.687304 603.86 
" style="fill:none;stroke:#262626;stroke-linecap:square;stroke-linejoin:miter;stroke-width:2.5;"/>
   </g>
   <g id="legend_1">
    <g id="patch_5">
     <path d="M 528.771679 598.86 
L 574.687304 598.86 
Q 576.687304 598.86 576.687304 596.86 
L 576.687304 554.954375 
Q 576.687304 552.954375 574.687304 552.954375 
L 528.771679 552.954375 
Q 526.771679 552.954375 526.771679 554.954375 
L 526.771679 596.86 
Q 526.771679 598.86 528.771679 598.86 
z
" style="fill:#ffffff;opacity:0.8;stroke:#cccccc;stroke-linejoin:miter;stroke-width:2;"/>
    </g>
    <g id="text_17">
     <!-- $n_\tau$ -->
     <g style="fill:#262626;" transform="translate(538.649491 575.190625)scale(0.24 -0.24)">
      <defs>
       <path d="M 3566 2113 
L 3156 0 
L 2578 0 
L 2988 2091 
Q 3016 2238 3031 2350 
Q 3047 2463 3047 2528 
Q 3047 2791 2881 2937 
Q 2716 3084 2419 3084 
Q 1956 3084 1622 2776 
Q 1288 2469 1184 1941 
L 800 0 
L 225 0 
L 903 3500 
L 1478 3500 
L 1363 2950 
Q 1603 3253 1940 3418 
Q 2278 3584 2650 3584 
Q 3113 3584 3367 3334 
Q 3622 3084 3622 2631 
Q 3622 2519 3608 2391 
Q 3594 2263 3566 2113 
z
" id="DejaVuSans-Oblique-6e" transform="scale(0.015625)"/>
       <path d="M 2103 638 
Q 2188 488 2525 488 
L 2800 488 
L 2706 0 
L 2363 0 
Q 1800 0 1600 300 
Q 1403 606 1534 1269 
L 1856 2925 
L 541 2925 
L 653 3500 
L 3881 3500 
L 3769 2925 
L 2444 2925 
L 2113 1234 
Q 2025 781 2103 638 
z
" id="DejaVuSans-Oblique-3c4" transform="scale(0.015625)"/>
      </defs>
      <use xlink:href="#DejaVuSans-Oblique-6e"/>
      <use transform="translate(63.378906 -16.40625)scale(0.7)" xlink:href="#DejaVuSans-Oblique-3c4"/>
     </g>
    </g>
    <g id="line2d_3">
     <path d="M 530.771679 589.280313 
L 550.771679 589.280313 
" style="fill:none;stroke:#96c69a;stroke-linecap:round;stroke-width:3;"/>
    </g>
    <g id="line2d_4"/>
    <g id="text_18">
     <!-- 40 -->
     <g style="fill:#262626;" transform="translate(558.771679 592.780313)scale(0.1 -0.1)">
      <defs>
       <path d="M 2356 3675 
L 1038 1722 
L 2356 1722 
L 2356 3675 
z
M 2156 4666 
L 3494 4666 
L 3494 1722 
L 4159 1722 
L 4159 850 
L 3494 850 
L 3494 0 
L 2356 0 
L 2356 850 
L 288 850 
L 288 1881 
L 2156 4666 
z
" id="DejaVuSans-Bold-34" transform="scale(0.015625)"/>
       <path d="M 2944 2338 
Q 2944 3213 2780 3570 
Q 2616 3928 2228 3928 
Q 1841 3928 1675 3570 
Q 1509 3213 1509 2338 
Q 1509 1453 1675 1090 
Q 1841 728 2228 728 
Q 2613 728 2778 1090 
Q 2944 1453 2944 2338 
z
M 4147 2328 
Q 4147 1169 3647 539 
Q 3147 -91 2228 -91 
Q 1306 -91 806 539 
Q 306 1169 306 2328 
Q 306 3491 806 4120 
Q 1306 4750 2228 4750 
Q 3147 4750 3647 4120 
Q 4147 3491 4147 2328 
z
" id="DejaVuSans-Bold-30" transform="scale(0.015625)"/>
      </defs>
      <use xlink:href="#DejaVuSans-Bold-34"/>
      <use x="69.580078" xlink:href="#DejaVuSans-Bold-30"/>
     </g>
    </g>
   </g>
  </g>
  <g id="axes_2">
   <g id="patch_6">
    <path d="M 98.911875 92.437143 
L 581.687304 92.437143 
L 581.687304 7.2 
L 98.911875 7.2 
z
" style="fill:none;"/>
   </g>
   <g id="matplotlib.axis_3">
    <g id="xtick_7"/>
    <g id="xtick_8"/>
    <g id="xtick_9"/>
    <g id="xtick_10"/>
    <g id="xtick_11"/>
    <g id="xtick_12"/>
   </g>
   <g id="matplotlib.axis_4">
    <g id="ytick_9">
     <g id="text_19">
      <!-- 0 -->
      <g style="fill:#262626;" transform="translate(69.414375 100.795424)scale(0.22 -0.22)">
       <use xlink:href="#DejaVuSans-30"/>
      </g>
     </g>
    </g>
    <g id="ytick_10">
     <g id="text_20">
      <!-- 100 -->
      <g style="fill:#262626;" transform="translate(41.419375 48.082287)scale(0.22 -0.22)">
       <use xlink:href="#DejaVuSans-31"/>
       <use x="63.623047" xlink:href="#DejaVuSans-30"/>
       <use x="127.246094" xlink:href="#DejaVuSans-30"/>
      </g>
     </g>
    </g>
   </g>
   <g id="patch_7">
    <path clip-path="url(#p053459b92d)" d="M 120.856213 92.437143 
L 154.616732 92.437143 
L 154.616732 11.258912 
L 120.856213 11.258912 
z
" style="fill:#96c69a;fill-opacity:0.5;stroke:#ffffff;stroke-linejoin:miter;stroke-width:2;"/>
   </g>
   <g id="patch_8">
    <path clip-path="url(#p053459b92d)" d="M 154.616732 92.437143 
L 188.377252 92.437143 
L 188.377252 11.258912 
L 154.616732 11.258912 
z
" style="fill:#96c69a;fill-opacity:0.5;stroke:#ffffff;stroke-linejoin:miter;stroke-width:2;"/>
   </g>
   <g id="patch_9">
    <path clip-path="url(#p053459b92d)" d="M 188.377252 92.437143 
L 222.137771 92.437143 
L 222.137771 11.258912 
L 188.377252 11.258912 
z
" style="fill:#96c69a;fill-opacity:0.5;stroke:#ffffff;stroke-linejoin:miter;stroke-width:2;"/>
   </g>
   <g id="patch_10">
    <path clip-path="url(#p053459b92d)" d="M 222.137771 92.437143 
L 255.898291 92.437143 
L 255.898291 11.258912 
L 222.137771 11.258912 
z
" style="fill:#96c69a;fill-opacity:0.5;stroke:#ffffff;stroke-linejoin:miter;stroke-width:2;"/>
   </g>
   <g id="patch_11">
    <path clip-path="url(#p053459b92d)" d="M 255.898291 92.437143 
L 289.65881 92.437143 
L 289.65881 11.786043 
L 255.898291 11.786043 
z
" style="fill:#96c69a;fill-opacity:0.5;stroke:#ffffff;stroke-linejoin:miter;stroke-width:2;"/>
   </g>
   <g id="patch_12">
    <path clip-path="url(#p053459b92d)" d="M 289.65881 92.437143 
L 323.41933 92.437143 
L 323.41933 11.258912 
L 289.65881 11.258912 
z
" style="fill:#96c69a;fill-opacity:0.5;stroke:#ffffff;stroke-linejoin:miter;stroke-width:2;"/>
   </g>
   <g id="patch_13">
    <path clip-path="url(#p053459b92d)" d="M 323.41933 92.437143 
L 357.179849 92.437143 
L 357.179849 11.258912 
L 323.41933 11.258912 
z
" style="fill:#96c69a;fill-opacity:0.5;stroke:#ffffff;stroke-linejoin:miter;stroke-width:2;"/>
   </g>
   <g id="patch_14">
    <path clip-path="url(#p053459b92d)" d="M 357.179849 92.437143 
L 390.940369 92.437143 
L 390.940369 11.258912 
L 357.179849 11.258912 
z
" style="fill:#96c69a;fill-opacity:0.5;stroke:#ffffff;stroke-linejoin:miter;stroke-width:2;"/>
   </g>
   <g id="patch_15">
    <path clip-path="url(#p053459b92d)" d="M 390.940369 92.437143 
L 424.700888 92.437143 
L 424.700888 11.786043 
L 390.940369 11.786043 
z
" style="fill:#96c69a;fill-opacity:0.5;stroke:#ffffff;stroke-linejoin:miter;stroke-width:2;"/>
   </g>
   <g id="patch_16">
    <path clip-path="url(#p053459b92d)" d="M 424.700888 92.437143 
L 458.461407 92.437143 
L 458.461407 11.258912 
L 424.700888 11.258912 
z
" style="fill:#96c69a;fill-opacity:0.5;stroke:#ffffff;stroke-linejoin:miter;stroke-width:2;"/>
   </g>
   <g id="patch_17">
    <path clip-path="url(#p053459b92d)" d="M 458.461407 92.437143 
L 492.221927 92.437143 
L 492.221927 11.258912 
L 458.461407 11.258912 
z
" style="fill:#96c69a;fill-opacity:0.5;stroke:#ffffff;stroke-linejoin:miter;stroke-width:2;"/>
   </g>
   <g id="patch_18">
    <path clip-path="url(#p053459b92d)" d="M 492.221927 92.437143 
L 525.982446 92.437143 
L 525.982446 11.258912 
L 492.221927 11.258912 
z
" style="fill:#96c69a;fill-opacity:0.5;stroke:#ffffff;stroke-linejoin:miter;stroke-width:2;"/>
   </g>
   <g id="patch_19">
    <path clip-path="url(#p053459b92d)" d="M 525.982446 92.437143 
L 559.742966 92.437143 
L 559.742966 11.258912 
L 525.982446 11.258912 
z
" style="fill:#96c69a;fill-opacity:0.5;stroke:#ffffff;stroke-linejoin:miter;stroke-width:2;"/>
   </g>
   <g id="patch_20">
    <path d="M 98.911875 92.437143 
L 98.911875 7.2 
" style="fill:none;stroke:#262626;stroke-linecap:square;stroke-linejoin:miter;stroke-width:2.5;"/>
   </g>
   <g id="patch_21">
    <path d="M 98.911875 92.437143 
L 581.687304 92.437143 
" style="fill:none;stroke:#262626;stroke-linecap:square;stroke-linejoin:miter;stroke-width:2.5;"/>
   </g>
  </g>
  <g id="axes_3">
   <g id="patch_22">
    <path d="M 598.334732 603.86 
L 681.571875 603.86 
L 681.571875 109.484571 
L 598.334732 109.484571 
z
" style="fill:none;"/>
   </g>
   <g id="matplotlib.axis_5">
    <g id="xtick_13">
     <g id="text_21">
      <!-- 0 -->
      <g style="fill:#262626;" transform="translate(591.335982 636.076563)scale(0.22 -0.22)">
       <use xlink:href="#DejaVuSans-30"/>
      </g>
     </g>
    </g>
    <g id="xtick_14">
     <g id="text_22">
      <!-- 100 -->
      <g style="fill:#262626;" transform="translate(619.505221 636.076563)scale(0.22 -0.22)">
       <use xlink:href="#DejaVuSans-31"/>
       <use x="63.623047" xlink:href="#DejaVuSans-30"/>
       <use x="127.246094" xlink:href="#DejaVuSans-30"/>
      </g>
     </g>
    </g>
   </g>
   <g id="matplotlib.axis_6">
    <g id="ytick_11"/>
    <g id="ytick_12"/>
    <g id="ytick_13"/>
    <g id="ytick_14"/>
    <g id="ytick_15"/>
    <g id="ytick_16"/>
    <g id="ytick_17"/>
    <g id="ytick_18"/>
   </g>
   <g id="patch_23">
    <path clip-path="url(#p0c278d68ee)" d="M 598.334732 581.38839 
L 600.021402 581.38839 
L 600.021402 569.241573 
L 598.334732 569.241573 
z
" style="fill:#96c69a;fill-opacity:0.5;stroke:#ffffff;stroke-linejoin:miter;stroke-width:1.214682;"/>
   </g>
   <g id="patch_24">
    <path clip-path="url(#p0c278d68ee)" d="M 598.334732 569.241573 
L 607.189747 569.241573 
L 607.189747 557.094757 
L 598.334732 557.094757 
z
" style="fill:#96c69a;fill-opacity:0.5;stroke:#ffffff;stroke-linejoin:miter;stroke-width:1.214682;"/>
   </g>
   <g id="patch_25">
    <path clip-path="url(#p0c278d68ee)" d="M 598.334732 557.094757 
L 610.984754 557.094757 
L 610.984754 544.94794 
L 598.334732 544.94794 
z
" style="fill:#96c69a;fill-opacity:0.5;stroke:#ffffff;stroke-linejoin:miter;stroke-width:1.214682;"/>
   </g>
   <g id="patch_26">
    <path clip-path="url(#p0c278d68ee)" d="M 598.334732 544.94794 
L 629.959786 544.94794 
L 629.959786 532.801124 
L 598.334732 532.801124 
z
" style="fill:#96c69a;fill-opacity:0.5;stroke:#ffffff;stroke-linejoin:miter;stroke-width:1.214682;"/>
   </g>
   <g id="patch_27">
    <path clip-path="url(#p0c278d68ee)" d="M 598.334732 532.801124 
L 643.031476 532.801124 
L 643.031476 520.654307 
L 598.334732 520.654307 
z
" style="fill:#96c69a;fill-opacity:0.5;stroke:#ffffff;stroke-linejoin:miter;stroke-width:1.214682;"/>
   </g>
   <g id="patch_28">
    <path clip-path="url(#p0c278d68ee)" d="M 598.334732 520.654307 
L 655.681497 520.654307 
L 655.681497 508.507491 
L 598.334732 508.507491 
z
" style="fill:#96c69a;fill-opacity:0.5;stroke:#ffffff;stroke-linejoin:miter;stroke-width:1.214682;"/>
   </g>
   <g id="patch_29">
    <path clip-path="url(#p0c278d68ee)" d="M 598.334732 508.507491 
L 673.813195 508.507491 
L 673.813195 496.360675 
L 598.334732 496.360675 
z
" style="fill:#96c69a;fill-opacity:0.5;stroke:#ffffff;stroke-linejoin:miter;stroke-width:1.214682;"/>
   </g>
   <g id="patch_30">
    <path clip-path="url(#p0c278d68ee)" d="M 598.334732 496.360675 
L 663.693178 496.360675 
L 663.693178 484.213858 
L 598.334732 484.213858 
z
" style="fill:#96c69a;fill-opacity:0.5;stroke:#ffffff;stroke-linejoin:miter;stroke-width:1.214682;"/>
   </g>
   <g id="patch_31">
    <path clip-path="url(#p0c278d68ee)" d="M 598.334732 484.213858 
L 675.499865 484.213858 
L 675.499865 472.067042 
L 598.334732 472.067042 
z
" style="fill:#96c69a;fill-opacity:0.5;stroke:#ffffff;stroke-linejoin:miter;stroke-width:1.214682;"/>
   </g>
   <g id="patch_32">
    <path clip-path="url(#p0c278d68ee)" d="M 598.334732 472.067042 
L 677.608202 472.067042 
L 677.608202 459.920225 
L 598.334732 459.920225 
z
" style="fill:#96c69a;fill-opacity:0.5;stroke:#ffffff;stroke-linejoin:miter;stroke-width:1.214682;"/>
   </g>
   <g id="patch_33">
    <path clip-path="url(#p0c278d68ee)" d="M 598.334732 459.920225 
L 672.126525 459.920225 
L 672.126525 447.773409 
L 598.334732 447.773409 
z
" style="fill:#96c69a;fill-opacity:0.5;stroke:#ffffff;stroke-linejoin:miter;stroke-width:1.214682;"/>
   </g>
   <g id="patch_34">
    <path clip-path="url(#p0c278d68ee)" d="M 598.334732 447.773409 
L 655.25983 447.773409 
L 655.25983 435.626592 
L 598.334732 435.626592 
z
" style="fill:#96c69a;fill-opacity:0.5;stroke:#ffffff;stroke-linejoin:miter;stroke-width:1.214682;"/>
   </g>
   <g id="patch_35">
    <path clip-path="url(#p0c278d68ee)" d="M 598.334732 435.626592 
L 644.296478 435.626592 
L 644.296478 423.479776 
L 598.334732 423.479776 
z
" style="fill:#96c69a;fill-opacity:0.5;stroke:#ffffff;stroke-linejoin:miter;stroke-width:1.214682;"/>
   </g>
   <g id="patch_36">
    <path clip-path="url(#p0c278d68ee)" d="M 598.334732 423.479776 
L 634.17646 423.479776 
L 634.17646 411.33296 
L 598.334732 411.33296 
z
" style="fill:#96c69a;fill-opacity:0.5;stroke:#ffffff;stroke-linejoin:miter;stroke-width:1.214682;"/>
   </g>
   <g id="patch_37">
    <path clip-path="url(#p0c278d68ee)" d="M 598.334732 411.33296 
L 632.911458 411.33296 
L 632.911458 399.186143 
L 598.334732 399.186143 
z
" style="fill:#96c69a;fill-opacity:0.5;stroke:#ffffff;stroke-linejoin:miter;stroke-width:1.214682;"/>
   </g>
   <g id="patch_38">
    <path clip-path="url(#p0c278d68ee)" d="M 598.334732 399.186143 
L 632.068123 399.186143 
L 632.068123 387.039327 
L 598.334732 387.039327 
z
" style="fill:#96c69a;fill-opacity:0.5;stroke:#ffffff;stroke-linejoin:miter;stroke-width:1.214682;"/>
   </g>
   <g id="patch_39">
    <path clip-path="url(#p0c278d68ee)" d="M 598.334732 387.039327 
L 624.056443 387.039327 
L 624.056443 374.89251 
L 598.334732 374.89251 
z
" style="fill:#96c69a;fill-opacity:0.5;stroke:#ffffff;stroke-linejoin:miter;stroke-width:1.214682;"/>
   </g>
   <g id="patch_40">
    <path clip-path="url(#p0c278d68ee)" d="M 598.334732 374.89251 
L 613.514758 374.89251 
L 613.514758 362.745694 
L 598.334732 362.745694 
z
" style="fill:#96c69a;fill-opacity:0.5;stroke:#ffffff;stroke-linejoin:miter;stroke-width:1.214682;"/>
   </g>
   <g id="patch_41">
    <path clip-path="url(#p0c278d68ee)" d="M 598.334732 362.745694 
L 612.249756 362.745694 
L 612.249756 350.598878 
L 598.334732 350.598878 
z
" style="fill:#96c69a;fill-opacity:0.5;stroke:#ffffff;stroke-linejoin:miter;stroke-width:1.214682;"/>
   </g>
   <g id="patch_42">
    <path clip-path="url(#p0c278d68ee)" d="M 598.334732 350.598878 
L 609.298084 350.598878 
L 609.298084 338.452061 
L 598.334732 338.452061 
z
" style="fill:#96c69a;fill-opacity:0.5;stroke:#ffffff;stroke-linejoin:miter;stroke-width:1.214682;"/>
   </g>
   <g id="patch_43">
    <path clip-path="url(#p0c278d68ee)" d="M 598.334732 338.452061 
L 609.719752 338.452061 
L 609.719752 326.305245 
L 598.334732 326.305245 
z
" style="fill:#96c69a;fill-opacity:0.5;stroke:#ffffff;stroke-linejoin:miter;stroke-width:1.214682;"/>
   </g>
   <g id="patch_44">
    <path clip-path="url(#p0c278d68ee)" d="M 598.334732 326.305245 
L 606.346413 326.305245 
L 606.346413 314.158428 
L 598.334732 314.158428 
z
" style="fill:#96c69a;fill-opacity:0.5;stroke:#ffffff;stroke-linejoin:miter;stroke-width:1.214682;"/>
   </g>
   <g id="patch_45">
    <path clip-path="url(#p0c278d68ee)" d="M 598.334732 314.158428 
L 603.816408 314.158428 
L 603.816408 302.011612 
L 598.334732 302.011612 
z
" style="fill:#96c69a;fill-opacity:0.5;stroke:#ffffff;stroke-linejoin:miter;stroke-width:1.214682;"/>
   </g>
   <g id="patch_46">
    <path clip-path="url(#p0c278d68ee)" d="M 598.334732 302.011612 
L 603.394741 302.011612 
L 603.394741 289.864795 
L 598.334732 289.864795 
z
" style="fill:#96c69a;fill-opacity:0.5;stroke:#ffffff;stroke-linejoin:miter;stroke-width:1.214682;"/>
   </g>
   <g id="patch_47">
    <path clip-path="url(#p0c278d68ee)" d="M 598.334732 289.864795 
L 601.708071 289.864795 
L 601.708071 277.717979 
L 598.334732 277.717979 
z
" style="fill:#96c69a;fill-opacity:0.5;stroke:#ffffff;stroke-linejoin:miter;stroke-width:1.214682;"/>
   </g>
   <g id="patch_48">
    <path clip-path="url(#p0c278d68ee)" d="M 598.334732 277.717979 
L 600.864736 277.717979 
L 600.864736 265.571163 
L 598.334732 265.571163 
z
" style="fill:#96c69a;fill-opacity:0.5;stroke:#ffffff;stroke-linejoin:miter;stroke-width:1.214682;"/>
   </g>
   <g id="patch_49">
    <path clip-path="url(#p0c278d68ee)" d="M 598.334732 265.571163 
L 598.7564 265.571163 
L 598.7564 253.424346 
L 598.334732 253.424346 
z
" style="fill:#96c69a;fill-opacity:0.5;stroke:#ffffff;stroke-linejoin:miter;stroke-width:1.214682;"/>
   </g>
   <g id="patch_50">
    <path clip-path="url(#p0c278d68ee)" d="M 598.334732 253.424346 
L 600.864736 253.424346 
L 600.864736 241.27753 
L 598.334732 241.27753 
z
" style="fill:#96c69a;fill-opacity:0.5;stroke:#ffffff;stroke-linejoin:miter;stroke-width:1.214682;"/>
   </g>
   <g id="patch_51">
    <path clip-path="url(#p0c278d68ee)" d="M 598.334732 241.27753 
L 600.443069 241.27753 
L 600.443069 229.130713 
L 598.334732 229.130713 
z
" style="fill:#96c69a;fill-opacity:0.5;stroke:#ffffff;stroke-linejoin:miter;stroke-width:1.214682;"/>
   </g>
   <g id="patch_52">
    <path clip-path="url(#p0c278d68ee)" d="M 598.334732 229.130713 
L 598.334732 229.130713 
L 598.334732 216.983897 
L 598.334732 216.983897 
z
" style="fill:#96c69a;fill-opacity:0.5;stroke:#ffffff;stroke-linejoin:miter;stroke-width:1.214682;"/>
   </g>
   <g id="patch_53">
    <path clip-path="url(#p0c278d68ee)" d="M 598.334732 216.983897 
L 598.334732 216.983897 
L 598.334732 204.83708 
L 598.334732 204.83708 
z
" style="fill:#96c69a;fill-opacity:0.5;stroke:#ffffff;stroke-linejoin:miter;stroke-width:1.214682;"/>
   </g>
   <g id="patch_54">
    <path clip-path="url(#p0c278d68ee)" d="M 598.334732 204.83708 
L 598.334732 204.83708 
L 598.334732 192.690264 
L 598.334732 192.690264 
z
" style="fill:#96c69a;fill-opacity:0.5;stroke:#ffffff;stroke-linejoin:miter;stroke-width:1.214682;"/>
   </g>
   <g id="patch_55">
    <path clip-path="url(#p0c278d68ee)" d="M 598.334732 192.690264 
L 599.178067 192.690264 
L 599.178067 180.543448 
L 598.334732 180.543448 
z
" style="fill:#96c69a;fill-opacity:0.5;stroke:#ffffff;stroke-linejoin:miter;stroke-width:1.214682;"/>
   </g>
   <g id="patch_56">
    <path clip-path="url(#p0c278d68ee)" d="M 598.334732 180.543448 
L 598.7564 180.543448 
L 598.7564 168.396631 
L 598.334732 168.396631 
z
" style="fill:#96c69a;fill-opacity:0.5;stroke:#ffffff;stroke-linejoin:miter;stroke-width:1.214682;"/>
   </g>
   <g id="patch_57">
    <path clip-path="url(#p0c278d68ee)" d="M 598.334732 168.396631 
L 598.334732 168.396631 
L 598.334732 156.249815 
L 598.334732 156.249815 
z
" style="fill:#96c69a;fill-opacity:0.5;stroke:#ffffff;stroke-linejoin:miter;stroke-width:1.214682;"/>
   </g>
   <g id="patch_58">
    <path clip-path="url(#p0c278d68ee)" d="M 598.334732 156.249815 
L 598.334732 156.249815 
L 598.334732 144.102998 
L 598.334732 144.102998 
z
" style="fill:#96c69a;fill-opacity:0.5;stroke:#ffffff;stroke-linejoin:miter;stroke-width:1.214682;"/>
   </g>
   <g id="patch_59">
    <path clip-path="url(#p0c278d68ee)" d="M 598.334732 144.102998 
L 598.7564 144.102998 
L 598.7564 131.956182 
L 598.334732 131.956182 
z
" style="fill:#96c69a;fill-opacity:0.5;stroke:#ffffff;stroke-linejoin:miter;stroke-width:1.214682;"/>
   </g>
   <g id="patch_60">
    <path d="M 598.334732 603.86 
L 598.334732 109.484571 
" style="fill:none;stroke:#262626;stroke-linecap:square;stroke-linejoin:miter;stroke-width:2.5;"/>
   </g>
   <g id="patch_61">
    <path d="M 598.334732 603.86 
L 681.571875 603.86 
" style="fill:none;stroke:#262626;stroke-linecap:square;stroke-linejoin:miter;stroke-width:2.5;"/>
   </g>
  </g>
 </g>
 <defs>
  <clipPath id="p164e0bc2e3">
   <rect height="494.375429" width="482.775429" x="98.911875" y="109.484571"/>
  </clipPath>
  <clipPath id="p053459b92d">
   <rect height="85.237143" width="482.775429" x="98.911875" y="7.2"/>
  </clipPath>
  <clipPath id="p0c278d68ee">
   <rect height="494.375429" width="83.237143" x="598.334732" y="109.484571"/>
  </clipPath>
 </defs>
</svg>
