<?xml version="1.0" encoding="utf-8" standalone="no"?>
<!DOCTYPE svg PUBLIC "-//W3C//DTD SVG 1.1//EN"
  "http://www.w3.org/Graphics/SVG/1.1/DTD/svg11.dtd">
<svg height="675.079375pt" version="1.1" viewBox="0 0 688.771875 675.079375" width="688.771875pt" xmlns="http://www.w3.org/2000/svg" xmlns:xlink="http://www.w3.org/1999/xlink">
 <metadata>
  <rdf:RDF xmlns:cc="http://creativecommons.org/ns#" xmlns:dc="http://purl.org/dc/elements/1.1/" xmlns:rdf="http://www.w3.org/1999/02/22-rdf-syntax-ns#">
   <cc:Work>
    <dc:type rdf:resource="http://purl.org/dc/dcmitype/StillImage"/>
    <dc:date>2021-07-16T21:44:06.368906</dc:date>
    <dc:format>image/svg+xml</dc:format>
    <dc:creator>
     <cc:Agent>
      <dc:title>Matplotlib v3.4.2, https://matplotlib.org/</dc:title>
     </cc:Agent>
    </dc:creator>
   </cc:Work>
  </rdf:RDF>
 </metadata>
 <defs>
  <style type="text/css">*{stroke-linecap:butt;stroke-linejoin:round;}</style>
 </defs>
 <g id="figure_1">
  <g id="patch_1">
   <path d="M 0 675.079375 
L 688.771875 675.079375 
L 688.771875 0 
L 0 0 
z
" style="fill:#ffffff;"/>
  </g>
  <g id="axes_1">
   <g id="patch_2">
    <path d="M 98.911875 603.86 
L 581.687304 603.86 
L 581.687304 109.484571 
L 98.911875 109.484571 
z
" style="fill:none;"/>
   </g>
   <g id="matplotlib.axis_1">
    <g id="xtick_1">
     <g id="text_1">
      <!-- 0 -->
      <g style="fill:#262626;" transform="translate(113.63791 636.076563)scale(0.22 -0.22)">
       <defs>
        <path d="M 2034 4250 
Q 1547 4250 1301 3770 
Q 1056 3291 1056 2328 
Q 1056 1369 1301 889 
Q 1547 409 2034 409 
Q 2525 409 2770 889 
Q 3016 1369 3016 2328 
Q 3016 3291 2770 3770 
Q 2525 4250 2034 4250 
z
M 2034 4750 
Q 2819 4750 3233 4129 
Q 3647 3509 3647 2328 
Q 3647 1150 3233 529 
Q 2819 -91 2034 -91 
Q 1250 -91 836 529 
Q 422 1150 422 2328 
Q 422 3509 836 4129 
Q 1250 4750 2034 4750 
z
" id="DejaVuSans-30" transform="scale(0.015625)"/>
       </defs>
       <use xlink:href="#DejaVuSans-30"/>
      </g>
     </g>
    </g>
    <g id="xtick_2">
     <g id="text_2">
      <!-- 20000 -->
      <g style="fill:#262626;" transform="translate(173.464171 636.076563)scale(0.22 -0.22)">
       <defs>
        <path d="M 1228 531 
L 3431 531 
L 3431 0 
L 469 0 
L 469 531 
Q 828 903 1448 1529 
Q 2069 2156 2228 2338 
Q 2531 2678 2651 2914 
Q 2772 3150 2772 3378 
Q 2772 3750 2511 3984 
Q 2250 4219 1831 4219 
Q 1534 4219 1204 4116 
Q 875 4013 500 3803 
L 500 4441 
Q 881 4594 1212 4672 
Q 1544 4750 1819 4750 
Q 2544 4750 2975 4387 
Q 3406 4025 3406 3419 
Q 3406 3131 3298 2873 
Q 3191 2616 2906 2266 
Q 2828 2175 2409 1742 
Q 1991 1309 1228 531 
z
" id="DejaVuSans-32" transform="scale(0.015625)"/>
       </defs>
       <use xlink:href="#DejaVuSans-32"/>
       <use x="63.623047" xlink:href="#DejaVuSans-30"/>
       <use x="127.246094" xlink:href="#DejaVuSans-30"/>
       <use x="190.869141" xlink:href="#DejaVuSans-30"/>
       <use x="254.492188" xlink:href="#DejaVuSans-30"/>
      </g>
     </g>
    </g>
    <g id="xtick_3">
     <g id="text_3">
      <!-- 40000 -->
      <g style="fill:#262626;" transform="translate(261.285432 636.076563)scale(0.22 -0.22)">
       <defs>
        <path d="M 2419 4116 
L 825 1625 
L 2419 1625 
L 2419 4116 
z
M 2253 4666 
L 3047 4666 
L 3047 1625 
L 3713 1625 
L 3713 1100 
L 3047 1100 
L 3047 0 
L 2419 0 
L 2419 1100 
L 313 1100 
L 313 1709 
L 2253 4666 
z
" id="DejaVuSans-34" transform="scale(0.015625)"/>
       </defs>
       <use xlink:href="#DejaVuSans-34"/>
       <use x="63.623047" xlink:href="#DejaVuSans-30"/>
       <use x="127.246094" xlink:href="#DejaVuSans-30"/>
       <use x="190.869141" xlink:href="#DejaVuSans-30"/>
       <use x="254.492188" xlink:href="#DejaVuSans-30"/>
      </g>
     </g>
    </g>
    <g id="xtick_4">
     <g id="text_4">
      <!-- 60000 -->
      <g style="fill:#262626;" transform="translate(349.106693 636.076563)scale(0.22 -0.22)">
       <defs>
        <path d="M 2113 2584 
Q 1688 2584 1439 2293 
Q 1191 2003 1191 1497 
Q 1191 994 1439 701 
Q 1688 409 2113 409 
Q 2538 409 2786 701 
Q 3034 994 3034 1497 
Q 3034 2003 2786 2293 
Q 2538 2584 2113 2584 
z
M 3366 4563 
L 3366 3988 
Q 3128 4100 2886 4159 
Q 2644 4219 2406 4219 
Q 1781 4219 1451 3797 
Q 1122 3375 1075 2522 
Q 1259 2794 1537 2939 
Q 1816 3084 2150 3084 
Q 2853 3084 3261 2657 
Q 3669 2231 3669 1497 
Q 3669 778 3244 343 
Q 2819 -91 2113 -91 
Q 1303 -91 875 529 
Q 447 1150 447 2328 
Q 447 3434 972 4092 
Q 1497 4750 2381 4750 
Q 2619 4750 2861 4703 
Q 3103 4656 3366 4563 
z
" id="DejaVuSans-36" transform="scale(0.015625)"/>
       </defs>
       <use xlink:href="#DejaVuSans-36"/>
       <use x="63.623047" xlink:href="#DejaVuSans-30"/>
       <use x="127.246094" xlink:href="#DejaVuSans-30"/>
       <use x="190.869141" xlink:href="#DejaVuSans-30"/>
       <use x="254.492188" xlink:href="#DejaVuSans-30"/>
      </g>
     </g>
    </g>
    <g id="xtick_5">
     <g id="text_5">
      <!-- 80000 -->
      <g style="fill:#262626;" transform="translate(436.927955 636.076563)scale(0.22 -0.22)">
       <defs>
        <path d="M 2034 2216 
Q 1584 2216 1326 1975 
Q 1069 1734 1069 1313 
Q 1069 891 1326 650 
Q 1584 409 2034 409 
Q 2484 409 2743 651 
Q 3003 894 3003 1313 
Q 3003 1734 2745 1975 
Q 2488 2216 2034 2216 
z
M 1403 2484 
Q 997 2584 770 2862 
Q 544 3141 544 3541 
Q 544 4100 942 4425 
Q 1341 4750 2034 4750 
Q 2731 4750 3128 4425 
Q 3525 4100 3525 3541 
Q 3525 3141 3298 2862 
Q 3072 2584 2669 2484 
Q 3125 2378 3379 2068 
Q 3634 1759 3634 1313 
Q 3634 634 3220 271 
Q 2806 -91 2034 -91 
Q 1263 -91 848 271 
Q 434 634 434 1313 
Q 434 1759 690 2068 
Q 947 2378 1403 2484 
z
M 1172 3481 
Q 1172 3119 1398 2916 
Q 1625 2713 2034 2713 
Q 2441 2713 2670 2916 
Q 2900 3119 2900 3481 
Q 2900 3844 2670 4047 
Q 2441 4250 2034 4250 
Q 1625 4250 1398 4047 
Q 1172 3844 1172 3481 
z
" id="DejaVuSans-38" transform="scale(0.015625)"/>
       </defs>
       <use xlink:href="#DejaVuSans-38"/>
       <use x="63.623047" xlink:href="#DejaVuSans-30"/>
       <use x="127.246094" xlink:href="#DejaVuSans-30"/>
       <use x="190.869141" xlink:href="#DejaVuSans-30"/>
       <use x="254.492188" xlink:href="#DejaVuSans-30"/>
      </g>
     </g>
    </g>
    <g id="xtick_6">
     <g id="text_6">
      <!-- 100000 -->
      <g style="fill:#262626;" transform="translate(517.750466 636.076563)scale(0.22 -0.22)">
       <defs>
        <path d="M 794 531 
L 1825 531 
L 1825 4091 
L 703 3866 
L 703 4441 
L 1819 4666 
L 2450 4666 
L 2450 531 
L 3481 531 
L 3481 0 
L 794 0 
L 794 531 
z
" id="DejaVuSans-31" transform="scale(0.015625)"/>
       </defs>
       <use xlink:href="#DejaVuSans-31"/>
       <use x="63.623047" xlink:href="#DejaVuSans-30"/>
       <use x="127.246094" xlink:href="#DejaVuSans-30"/>
       <use x="190.869141" xlink:href="#DejaVuSans-30"/>
       <use x="254.492188" xlink:href="#DejaVuSans-30"/>
       <use x="318.115234" xlink:href="#DejaVuSans-30"/>
      </g>
     </g>
    </g>
    <g id="text_7">
     <!-- MDTU -->
     <g style="fill:#262626;" transform="translate(304.593964 662.888125)scale(0.24 -0.24)">
      <defs>
       <path d="M 628 4666 
L 1569 4666 
L 2759 1491 
L 3956 4666 
L 4897 4666 
L 4897 0 
L 4281 0 
L 4281 4097 
L 3078 897 
L 2444 897 
L 1241 4097 
L 1241 0 
L 628 0 
L 628 4666 
z
" id="DejaVuSans-4d" transform="scale(0.015625)"/>
       <path d="M 1259 4147 
L 1259 519 
L 2022 519 
Q 2988 519 3436 956 
Q 3884 1394 3884 2338 
Q 3884 3275 3436 3711 
Q 2988 4147 2022 4147 
L 1259 4147 
z
M 628 4666 
L 1925 4666 
Q 3281 4666 3915 4102 
Q 4550 3538 4550 2338 
Q 4550 1131 3912 565 
Q 3275 0 1925 0 
L 628 0 
L 628 4666 
z
" id="DejaVuSans-44" transform="scale(0.015625)"/>
       <path d="M -19 4666 
L 3928 4666 
L 3928 4134 
L 2272 4134 
L 2272 0 
L 1638 0 
L 1638 4134 
L -19 4134 
L -19 4666 
z
" id="DejaVuSans-54" transform="scale(0.015625)"/>
       <path d="M 556 4666 
L 1191 4666 
L 1191 1831 
Q 1191 1081 1462 751 
Q 1734 422 2344 422 
Q 2950 422 3222 751 
Q 3494 1081 3494 1831 
L 3494 4666 
L 4128 4666 
L 4128 1753 
Q 4128 841 3676 375 
Q 3225 -91 2344 -91 
Q 1459 -91 1007 375 
Q 556 841 556 1753 
L 556 4666 
z
" id="DejaVuSans-55" transform="scale(0.015625)"/>
      </defs>
      <use xlink:href="#DejaVuSans-4d"/>
      <use x="86.279297" xlink:href="#DejaVuSans-44"/>
      <use x="163.28125" xlink:href="#DejaVuSans-54"/>
      <use x="224.365234" xlink:href="#DejaVuSans-55"/>
     </g>
    </g>
   </g>
   <g id="matplotlib.axis_2">
    <g id="ytick_1">
     <g id="text_8">
      <!-- 0.25 -->
      <g style="fill:#262626;" transform="translate(34.4275 596.288547)scale(0.22 -0.22)">
       <defs>
        <path d="M 684 794 
L 1344 794 
L 1344 0 
L 684 0 
L 684 794 
z
" id="DejaVuSans-2e" transform="scale(0.015625)"/>
        <path d="M 691 4666 
L 3169 4666 
L 3169 4134 
L 1269 4134 
L 1269 2991 
Q 1406 3038 1543 3061 
Q 1681 3084 1819 3084 
Q 2600 3084 3056 2656 
Q 3513 2228 3513 1497 
Q 3513 744 3044 326 
Q 2575 -91 1722 -91 
Q 1428 -91 1123 -41 
Q 819 9 494 109 
L 494 744 
Q 775 591 1075 516 
Q 1375 441 1709 441 
Q 2250 441 2565 725 
Q 2881 1009 2881 1497 
Q 2881 1984 2565 2268 
Q 2250 2553 1709 2553 
Q 1456 2553 1204 2497 
Q 953 2441 691 2322 
L 691 4666 
z
" id="DejaVuSans-35" transform="scale(0.015625)"/>
       </defs>
       <use xlink:href="#DejaVuSans-30"/>
       <use x="63.623047" xlink:href="#DejaVuSans-2e"/>
       <use x="95.410156" xlink:href="#DejaVuSans-32"/>
       <use x="159.033203" xlink:href="#DejaVuSans-35"/>
      </g>
     </g>
    </g>
    <g id="ytick_2">
     <g id="text_9">
      <!-- 0.50 -->
      <g style="fill:#262626;" transform="translate(34.4275 537.63071)scale(0.22 -0.22)">
       <use xlink:href="#DejaVuSans-30"/>
       <use x="63.623047" xlink:href="#DejaVuSans-2e"/>
       <use x="95.410156" xlink:href="#DejaVuSans-35"/>
       <use x="159.033203" xlink:href="#DejaVuSans-30"/>
      </g>
     </g>
    </g>
    <g id="ytick_3">
     <g id="text_10">
      <!-- 0.75 -->
      <g style="fill:#262626;" transform="translate(34.4275 478.972873)scale(0.22 -0.22)">
       <defs>
        <path d="M 525 4666 
L 3525 4666 
L 3525 4397 
L 1831 0 
L 1172 0 
L 2766 4134 
L 525 4134 
L 525 4666 
z
" id="DejaVuSans-37" transform="scale(0.015625)"/>
       </defs>
       <use xlink:href="#DejaVuSans-30"/>
       <use x="63.623047" xlink:href="#DejaVuSans-2e"/>
       <use x="95.410156" xlink:href="#DejaVuSans-37"/>
       <use x="159.033203" xlink:href="#DejaVuSans-35"/>
      </g>
     </g>
    </g>
    <g id="ytick_4">
     <g id="text_11">
      <!-- 1.00 -->
      <g style="fill:#262626;" transform="translate(34.4275 420.315035)scale(0.22 -0.22)">
       <use xlink:href="#DejaVuSans-31"/>
       <use x="63.623047" xlink:href="#DejaVuSans-2e"/>
       <use x="95.410156" xlink:href="#DejaVuSans-30"/>
       <use x="159.033203" xlink:href="#DejaVuSans-30"/>
      </g>
     </g>
    </g>
    <g id="ytick_5">
     <g id="text_12">
      <!-- 1.25 -->
      <g style="fill:#262626;" transform="translate(34.4275 361.657198)scale(0.22 -0.22)">
       <use xlink:href="#DejaVuSans-31"/>
       <use x="63.623047" xlink:href="#DejaVuSans-2e"/>
       <use x="95.410156" xlink:href="#DejaVuSans-32"/>
       <use x="159.033203" xlink:href="#DejaVuSans-35"/>
      </g>
     </g>
    </g>
    <g id="ytick_6">
     <g id="text_13">
      <!-- 1.50 -->
      <g style="fill:#262626;" transform="translate(34.4275 302.999361)scale(0.22 -0.22)">
       <use xlink:href="#DejaVuSans-31"/>
       <use x="63.623047" xlink:href="#DejaVuSans-2e"/>
       <use x="95.410156" xlink:href="#DejaVuSans-35"/>
       <use x="159.033203" xlink:href="#DejaVuSans-30"/>
      </g>
     </g>
    </g>
    <g id="ytick_7">
     <g id="text_14">
      <!-- 1.75 -->
      <g style="fill:#262626;" transform="translate(34.4275 244.341524)scale(0.22 -0.22)">
       <use xlink:href="#DejaVuSans-31"/>
       <use x="63.623047" xlink:href="#DejaVuSans-2e"/>
       <use x="95.410156" xlink:href="#DejaVuSans-37"/>
       <use x="159.033203" xlink:href="#DejaVuSans-35"/>
      </g>
     </g>
    </g>
    <g id="ytick_8">
     <g id="text_15">
      <!-- 2.00 -->
      <g style="fill:#262626;" transform="translate(34.4275 185.683687)scale(0.22 -0.22)">
       <use xlink:href="#DejaVuSans-32"/>
       <use x="63.623047" xlink:href="#DejaVuSans-2e"/>
       <use x="95.410156" xlink:href="#DejaVuSans-30"/>
       <use x="159.033203" xlink:href="#DejaVuSans-30"/>
      </g>
     </g>
    </g>
    <g id="ytick_9">
     <g id="text_16">
      <!-- 2.25 -->
      <g style="fill:#262626;" transform="translate(34.4275 127.02585)scale(0.22 -0.22)">
       <use xlink:href="#DejaVuSans-32"/>
       <use x="63.623047" xlink:href="#DejaVuSans-2e"/>
       <use x="95.410156" xlink:href="#DejaVuSans-32"/>
       <use x="159.033203" xlink:href="#DejaVuSans-35"/>
      </g>
     </g>
    </g>
    <g id="text_17">
     <!-- $E$ -->
     <g style="fill:#262626;" transform="translate(25.43625 364.352286)rotate(-90)scale(0.24 -0.24)">
      <defs>
       <path d="M 1081 4666 
L 4031 4666 
L 3928 4134 
L 1606 4134 
L 1338 2753 
L 3566 2753 
L 3463 2222 
L 1234 2222 
L 909 531 
L 3284 531 
L 3181 0 
L 172 0 
L 1081 4666 
z
" id="DejaVuSans-Oblique-45" transform="scale(0.015625)"/>
      </defs>
      <use transform="translate(0 0.09375)" xlink:href="#DejaVuSans-Oblique-45"/>
     </g>
    </g>
   </g>
   <g id="line2d_1">
    <path clip-path="url(#p0baf7dbf94)" d="M 120.856213 390.623391 
L 121.075766 358.651504 
L 121.514872 492.703048 
L 121.734425 358.265112 
L 121.953978 476.877393 
L 122.173532 415.474391 
L 122.393085 433.025233 
L 122.612638 519.411291 
L 122.832191 547.477205 
L 123.051744 436.876917 
L 123.271297 418.871626 
L 123.490851 486.291239 
L 123.710404 501.281502 
L 123.929957 444.488194 
L 124.14951 492.122384 
L 124.369063 315.935621 
L 124.588616 416.215932 
L 124.808169 369.783263 
L 125.027723 542.060072 
L 125.466829 367.671635 
L 125.686382 406.777664 
L 125.905935 481.8347 
L 126.125488 438.959709 
L 126.345041 509.881551 
L 126.564595 539.384665 
L 126.784148 511.719279 
L 127.003701 452.573833 
L 127.442807 515.020147 
L 127.66236 505.415862 
L 127.881914 524.816944 
L 128.101467 510.428009 
L 128.32102 371.256454 
L 128.540573 402.762425 
L 128.760126 513.86789 
L 128.979679 530.991896 
L 129.199232 485.290674 
L 129.418786 487.901767 
L 129.638339 445.406511 
L 129.857892 380.856897 
L 130.077445 539.605782 
L 130.296998 473.110055 
L 130.736105 533.024303 
L 130.955658 502.202149 
L 131.175211 405.377326 
L 131.394764 506.652091 
L 131.614317 492.511758 
L 131.83387 441.803687 
L 132.053423 542.144158 
L 132.272977 529.003878 
L 132.49253 424.201046 
L 132.712083 507.805995 
L 132.931636 497.348706 
L 133.151189 476.364776 
L 133.370742 292.419689 
L 133.590296 495.483568 
L 133.809849 427.303609 
L 134.029402 461.651015 
L 134.248955 518.595037 
L 134.468508 480.052581 
L 134.688061 548.701979 
L 134.907614 483.212027 
L 135.127168 511.492798 
L 135.346721 499.81453 
L 135.566274 546.961767 
L 135.785827 468.607179 
L 136.00538 486.267955 
L 136.224933 314.08714 
L 136.444487 308.365048 
L 136.66404 439.474506 
L 136.883593 482.487841 
L 137.103146 489.82687 
L 137.322699 556.907449 
L 137.542252 390.758139 
L 137.761805 507.835967 
L 137.981359 471.671053 
L 138.640018 550.537213 
L 138.859571 384.634744 
L 139.079124 473.724793 
L 139.518231 347.551852 
L 139.737784 327.421811 
L 139.957337 479.878594 
L 140.17689 396.735297 
L 140.396443 453.016123 
L 140.615996 384.228324 
L 140.83555 433.229497 
L 141.055103 438.551038 
L 141.274656 465.658165 
L 141.494209 444.607843 
L 141.713762 479.457964 
L 141.933315 564.004222 
L 142.372422 424.378167 
L 142.591975 422.918324 
L 143.031081 539.446723 
L 143.250634 382.088348 
L 143.470187 490.505378 
L 143.689741 317.728488 
L 143.909294 475.441074 
L 144.128847 500.096945 
L 144.3484 367.778593 
L 144.567953 404.189035 
L 144.787506 514.824993 
L 145.00706 345.186457 
L 145.226613 527.428561 
L 145.446166 474.891022 
L 145.665719 478.871793 
L 145.885272 451.792812 
L 146.104825 530.414803 
L 146.324378 402.900488 
L 146.543932 431.449941 
L 146.763485 489.598013 
L 146.983038 512.615468 
L 147.202591 522.839634 
L 147.422144 362.831082 
L 147.641697 361.39239 
L 147.861251 357.772971 
L 148.51991 505.61584 
L 148.739463 513.40817 
L 148.959016 505.519735 
L 149.178569 460.95234 
L 149.398123 458.009657 
L 149.617676 437.539682 
L 149.837229 392.684293 
L 150.056782 387.761608 
L 150.495888 542.410592 
L 150.934995 487.528113 
L 151.154548 393.948691 
L 151.374101 467.398984 
L 151.593654 435.577864 
L 151.813207 461.301762 
L 152.03276 536.630616 
L 152.252314 403.519509 
L 152.471867 391.145071 
L 152.69142 463.286626 
L 152.910973 349.812555 
L 153.130526 533.2122 
L 153.350079 401.024053 
L 153.569632 399.636431 
L 154.008739 523.972582 
L 154.228292 433.293377 
L 154.447845 521.222363 
L 154.667398 535.311146 
L 154.886951 503.055479 
L 155.106505 392.066044 
L 155.326058 390.417015 
L 155.765164 509.306359 
L 155.984717 450.156948 
L 156.20427 508.068296 
L 156.423823 481.590246 
L 156.643377 502.014639 
L 156.86293 442.582583 
L 157.082483 489.737394 
L 157.302036 503.650682 
L 157.521589 462.222427 
L 157.741142 500.530769 
L 157.960696 425.165893 
L 158.180249 443.992219 
L 158.399802 387.27379 
L 158.619355 511.177328 
L 158.838908 477.821377 
L 159.058461 400.079716 
L 159.497568 484.025083 
L 159.717121 498.999144 
L 159.936674 383.953695 
L 160.156227 398.219892 
L 160.595333 542.849999 
L 160.814887 438.63264 
L 161.03444 422.460206 
L 161.253993 423.67475 
L 161.473546 470.450334 
L 161.693099 409.562452 
L 161.912652 481.512868 
L 162.132205 429.704562 
L 162.351759 518.720301 
L 162.571312 448.648485 
L 162.790865 499.632989 
L 163.010418 505.840703 
L 163.229971 444.873563 
L 163.449524 349.214803 
L 163.669078 471.439832 
L 163.888631 482.262763 
L 164.108184 567.431992 
L 164.327737 476.928241 
L 164.54729 491.10923 
L 164.766843 481.828586 
L 164.986396 464.639463 
L 165.20595 562.265323 
L 165.425503 517.970184 
L 165.645056 411.636286 
L 165.864609 513.833746 
L 166.084162 373.578654 
L 166.523269 497.236261 
L 166.742822 393.407339 
L 166.962375 523.573663 
L 167.181928 355.298701 
L 167.401481 511.105742 
L 167.621034 391.701055 
L 167.840587 540.64245 
L 168.060141 487.70103 
L 168.279694 523.779402 
L 168.499247 471.551677 
L 168.7188 474.079395 
L 169.157906 391.22506 
L 169.37746 398.031691 
L 169.597013 472.103036 
L 169.816566 469.738361 
L 170.036119 479.702842 
L 170.255672 377.156457 
L 170.475225 416.238933 
L 170.694778 434.418875 
L 171.133885 504.628122 
L 171.353438 325.019244 
L 171.572991 442.007987 
L 171.792544 440.189633 
L 172.231651 511.467901 
L 172.451204 533.279221 
L 172.670757 455.717116 
L 172.89031 463.920877 
L 173.109863 466.164225 
L 173.329416 547.750752 
L 173.548969 355.658296 
L 173.768523 484.52456 
L 173.988076 538.478018 
L 174.207629 542.411139 
L 174.427182 466.85283 
L 174.646735 517.845982 
L 174.866288 453.917863 
L 175.085842 485.65567 
L 175.305395 435.008148 
L 175.524948 494.149024 
L 175.744501 318.283245 
L 175.964054 570.423826 
L 176.183607 354.665059 
L 176.40316 496.63277 
L 176.622714 523.734904 
L 176.842267 377.666776 
L 177.06182 498.80057 
L 177.281373 478.736136 
L 177.500926 485.666413 
L 177.720479 443.41474 
L 177.940032 444.608111 
L 178.159586 517.897467 
L 178.379139 498.205027 
L 178.598692 430.899278 
L 178.818245 434.872819 
L 179.037798 304.887774 
L 179.257351 473.069798 
L 179.476905 412.847748 
L 179.696458 407.603275 
L 179.916011 566.349788 
L 180.135564 489.822737 
L 180.57467 439.019725 
L 180.794223 501.566744 
L 181.013777 509.190722 
L 181.23333 509.821096 
L 181.672436 416.840382 
L 181.891989 494.699331 
L 182.111542 466.642561 
L 182.550649 440.086849 
L 182.770202 471.58588 
L 182.989755 427.39475 
L 183.209308 492.90601 
L 183.428861 414.712859 
L 183.648414 487.816034 
L 183.867968 488.803307 
L 184.087521 496.992676 
L 184.307074 401.327816 
L 184.526627 480.614611 
L 184.74618 513.452968 
L 184.965733 403.073287 
L 185.185287 429.825344 
L 185.40484 431.431242 
L 185.624393 539.704686 
L 185.843946 495.177149 
L 186.063499 417.809159 
L 186.283052 556.865184 
L 186.502605 543.029595 
L 186.722159 488.470015 
L 186.941712 546.057623 
L 187.161265 401.965066 
L 187.380818 529.261414 
L 187.600371 488.563451 
L 187.819924 510.518637 
L 188.039478 382.448104 
L 188.259031 500.80935 
L 188.478584 455.521871 
L 189.137243 521.880706 
L 189.57635 307.023134 
L 189.795903 479.56133 
L 190.235009 506.004755 
L 190.454562 343.221656 
L 190.674115 518.518437 
L 190.893669 434.444547 
L 191.113222 521.72942 
L 191.552328 442.042066 
L 191.771881 503.241363 
L 191.991434 512.443819 
L 192.210987 510.532714 
L 192.650094 392.629222 
L 192.869647 500.52896 
L 193.0892 428.689666 
L 193.308753 455.801342 
L 193.528306 516.683926 
L 193.74786 489.914142 
L 193.967413 499.022529 
L 194.186966 297.300709 
L 194.406519 328.046905 
L 194.626072 490.346159 
L 194.845625 386.397828 
L 195.065178 486.412714 
L 195.284732 430.048604 
L 195.504285 492.059547 
L 195.723838 381.392862 
L 195.943391 386.23914 
L 196.162944 489.283324 
L 196.382497 389.718811 
L 196.821604 438.902108 
L 197.041157 448.557154 
L 197.26071 497.975802 
L 197.480263 431.340491 
L 197.699816 290.496455 
L 197.919369 432.539633 
L 198.138923 399.572244 
L 198.358476 474.66707 
L 198.578029 450.954232 
L 198.797582 460.06595 
L 199.017135 513.724763 
L 199.236688 408.711284 
L 199.456242 498.71684 
L 199.895348 524.220849 
L 200.334454 375.506392 
L 200.554007 475.674583 
L 200.77356 399.684168 
L 200.993114 542.00655 
L 201.212667 412.010774 
L 201.43222 526.428529 
L 201.651773 469.966135 
L 202.090879 520.82773 
L 202.529986 391.655709 
L 202.749539 451.057085 
L 202.969092 471.261947 
L 203.188645 279.962433 
L 203.408198 447.746748 
L 203.627751 461.862234 
L 203.847305 464.828354 
L 204.066858 477.485193 
L 204.286411 540.069176 
L 204.725517 419.923888 
L 204.94507 445.840918 
L 205.164623 548.465562 
L 205.823283 214.428352 
L 206.042836 495.642521 
L 206.262389 522.708162 
L 206.481942 485.161324 
L 206.701496 335.443111 
L 206.921049 483.951336 
L 207.140602 525.404873 
L 207.360155 486.590336 
L 207.579708 512.942007 
L 207.799261 513.723818 
L 208.018814 494.759077 
L 208.238368 459.578838 
L 208.457921 474.980778 
L 208.677474 377.210989 
L 208.897027 550.130484 
L 209.11658 475.524877 
L 209.336133 470.604188 
L 209.77524 489.949327 
L 209.994793 532.459665 
L 210.214346 525.312739 
L 210.433899 504.093941 
L 210.653452 512.769927 
L 211.092559 446.01495 
L 211.312112 536.085356 
L 211.531665 449.384985 
L 211.751218 261.50786 
L 211.970771 461.845843 
L 212.190324 413.469478 
L 212.409878 397.407937 
L 212.848984 480.149773 
L 213.068537 456.304816 
L 213.28809 510.800012 
L 213.507643 476.149165 
L 213.727196 371.494035 
L 213.94675 522.480041 
L 214.605409 333.695415 
L 214.824962 505.109584 
L 215.044515 472.079882 
L 215.264069 299.515488 
L 215.483622 537.769652 
L 215.703175 462.030145 
L 215.922728 427.73171 
L 216.142281 424.257589 
L 216.361834 496.945022 
L 216.581387 387.612314 
L 217.020494 518.746416 
L 217.240047 491.2765 
L 217.4596 414.619268 
L 217.679153 500.498717 
L 217.898706 388.262653 
L 218.11826 503.033541 
L 218.337813 408.57759 
L 218.557366 436.750782 
L 218.776919 520.654059 
L 218.996472 464.729441 
L 219.655132 510.693801 
L 220.094238 410.565221 
L 220.313791 401.581246 
L 220.533344 515.852285 
L 220.752897 503.865976 
L 220.972451 388.130932 
L 221.192004 444.121199 
L 221.63111 429.054223 
L 221.850663 502.265091 
L 222.070216 509.232482 
L 222.289769 421.909841 
L 222.509323 504.360436 
L 222.728876 517.790256 
L 222.948429 338.673458 
L 223.167982 462.002091 
L 223.387535 472.734292 
L 223.607088 502.86479 
L 223.826642 422.533348 
L 224.046195 470.143011 
L 224.485301 495.772901 
L 224.704854 381.314493 
L 224.924407 522.394925 
L 225.14396 467.988938 
L 225.363514 502.708548 
L 225.80262 454.175272 
L 226.022173 543.50793 
L 226.680833 508.460683 
L 226.900386 542.414173 
L 227.119939 506.872789 
L 227.339492 423.616894 
L 227.559045 498.9778 
L 227.778598 533.102075 
L 227.998151 451.23256 
L 228.217705 495.093198 
L 228.437258 395.929827 
L 228.656811 536.296766 
L 228.876364 459.004763 
L 229.31547 579.164622 
L 229.535023 420.895159 
L 229.754577 447.218212 
L 229.97413 488.359886 
L 230.193683 506.719075 
L 230.413236 379.000836 
L 230.632789 524.671825 
L 230.852342 399.095936 
L 231.071896 393.222942 
L 231.291449 521.231041 
L 231.511002 508.57465 
L 231.730555 510.561025 
L 231.950108 380.894711 
L 232.169661 491.20235 
L 232.389214 506.49357 
L 232.828321 298.48175 
L 233.047874 566.812993 
L 233.267427 471.478396 
L 233.48698 474.784331 
L 233.706533 387.140318 
L 233.926087 499.876206 
L 234.14564 494.497195 
L 234.365193 415.181793 
L 234.584746 410.511226 
L 234.804299 397.746694 
L 235.023852 483.663777 
L 235.243405 503.698051 
L 235.462959 467.718412 
L 235.682512 469.846035 
L 235.902065 493.821485 
L 236.121618 436.736427 
L 236.341171 484.223961 
L 236.560724 486.833041 
L 236.780278 424.437428 
L 236.999831 489.036112 
L 237.219384 391.912933 
L 237.438937 572.558484 
L 237.878043 487.345582 
L 238.536703 437.689425 
L 238.756256 475.603747 
L 238.975809 411.418097 
L 239.195362 425.663952 
L 239.414915 318.105693 
L 239.634469 508.839365 
L 239.854022 474.097042 
L 240.073575 401.071808 
L 240.293128 508.774848 
L 240.512681 467.090335 
L 240.732234 487.649492 
L 240.951787 536.545271 
L 241.171341 158.053512 
L 241.610447 425.454685 
L 241.83 464.590497 
L 242.049553 526.988847 
L 242.269106 501.14893 
L 242.48866 375.360868 
L 242.708213 482.747155 
L 242.927766 276.020989 
L 243.147319 477.238483 
L 243.366872 461.6736 
L 243.586425 479.355258 
L 243.805978 441.658395 
L 244.025532 511.065157 
L 244.245085 489.941838 
L 244.464638 521.871792 
L 244.684191 495.084197 
L 244.903744 482.74859 
L 245.123297 485.643207 
L 245.342851 357.216074 
L 245.562404 510.966283 
L 246.00151 469.154547 
L 246.221063 456.25067 
L 246.440616 512.091516 
L 246.660169 443.534151 
L 246.879723 439.298736 
L 247.099276 448.313399 
L 247.318829 473.951207 
L 247.538382 466.505794 
L 247.757935 530.911217 
L 247.977488 399.718303 
L 248.197042 514.845001 
L 248.416595 539.210133 
L 248.636148 493.642858 
L 248.855701 489.515718 
L 249.075254 476.861877 
L 249.51436 397.938842 
L 249.733914 400.878699 
L 249.953467 284.498975 
L 250.392573 464.02608 
L 250.831679 391.764617 
L 251.051233 536.117941 
L 251.270786 506.067784 
L 251.490339 519.703654 
L 251.709892 432.482594 
L 251.929445 448.171882 
L 252.148998 422.892951 
L 252.368551 440.624204 
L 252.588105 513.023424 
L 252.807658 490.633672 
L 253.027211 540.605849 
L 253.246764 490.295498 
L 253.466317 514.503733 
L 253.68587 496.475769 
L 253.905424 413.381248 
L 254.124977 497.296756 
L 254.34453 448.659503 
L 254.564083 426.76927 
L 254.783636 317.659268 
L 255.003189 493.625299 
L 255.222742 380.084091 
L 255.442296 498.909308 
L 255.661849 323.939274 
L 255.881402 534.057235 
L 256.100955 422.979346 
L 256.320508 497.362925 
L 256.540061 455.077678 
L 256.759614 511.170992 
L 257.198721 464.05679 
L 257.418274 523.152313 
L 257.637827 350.982185 
L 257.85738 405.64892 
L 258.076933 574.326029 
L 258.296487 467.270493 
L 258.735593 548.503742 
L 258.955146 502.708941 
L 259.174699 483.740735 
L 259.394252 383.140975 
L 259.613805 492.54269 
L 259.833359 391.140817 
L 260.052912 431.807208 
L 260.272465 514.939309 
L 260.492018 547.007299 
L 260.711571 461.728478 
L 260.931124 526.130458 
L 261.150678 447.029691 
L 261.370231 458.420882 
L 261.589784 520.352085 
L 262.02889 483.634494 
L 262.248443 444.405645 
L 262.467996 459.187926 
L 262.68755 453.77562 
L 262.907103 519.247454 
L 263.126656 372.430026 
L 263.565762 460.8988 
L 263.785315 392.599936 
L 264.004869 530.785108 
L 264.224422 401.727828 
L 264.443975 471.493629 
L 264.663528 370.270431 
L 264.883081 522.266769 
L 265.102634 548.482577 
L 265.322187 433.300714 
L 265.541741 492.298181 
L 265.761294 456.260967 
L 265.980847 519.644663 
L 266.2004 407.586163 
L 266.419953 514.815322 
L 266.639506 420.795217 
L 266.85906 558.867296 
L 267.078613 457.767676 
L 267.298166 469.209764 
L 267.517719 544.200614 
L 267.737272 456.736998 
L 267.956825 469.249829 
L 268.176378 393.881833 
L 268.395932 473.164815 
L 268.615485 496.664405 
L 268.835038 566.608847 
L 269.054591 497.62637 
L 269.274144 526.248368 
L 269.713251 478.615645 
L 269.932804 494.571744 
L 270.152357 431.908359 
L 270.37191 493.009445 
L 270.591463 414.102709 
L 270.811016 543.721425 
L 271.030569 283.313883 
L 271.250123 449.067931 
L 271.469676 372.630282 
L 271.908782 519.896707 
L 272.128335 455.225284 
L 272.347888 476.610387 
L 272.567442 431.589781 
L 272.786995 447.15477 
L 273.006548 423.519194 
L 273.226101 534.344644 
L 273.445654 448.008284 
L 273.665207 472.689168 
L 273.88476 475.258659 
L 274.104314 509.148073 
L 274.323867 445.521667 
L 274.54342 429.684121 
L 274.982526 471.914707 
L 275.202079 438.458712 
L 275.421633 384.705067 
L 275.641186 469.725589 
L 275.860739 475.819957 
L 276.080292 365.369862 
L 276.299845 365.365201 
L 276.519398 382.48254 
L 276.958505 505.216926 
L 277.397611 395.609903 
L 277.617164 461.678105 
L 277.836717 478.213287 
L 278.05627 391.68851 
L 278.495377 495.569867 
L 278.934483 462.576811 
L 279.154036 515.985383 
L 279.373589 391.576411 
L 279.593142 533.18968 
L 279.812696 503.274997 
L 280.251802 405.929774 
L 280.471355 540.061599 
L 280.690908 404.007325 
L 280.910461 373.365324 
L 281.130014 472.650106 
L 281.349568 400.890456 
L 281.569121 535.425636 
L 281.788674 323.597434 
L 282.008227 493.723894 
L 282.22778 508.047658 
L 282.447333 508.162127 
L 282.666887 340.120023 
L 283.105993 493.606436 
L 283.325546 518.417768 
L 283.545099 459.570934 
L 283.764652 472.095936 
L 283.984205 503.60745 
L 284.203759 411.927285 
L 284.423312 371.68346 
L 284.642865 517.850981 
L 284.862418 502.226118 
L 285.081971 432.892501 
L 285.521078 550.400682 
L 285.740631 412.675029 
L 285.960184 488.269485 
L 286.179737 428.072061 
L 286.39929 471.435409 
L 286.618843 440.4193 
L 286.838396 505.720727 
L 287.05795 467.995934 
L 287.277503 361.087805 
L 287.716609 547.286727 
L 287.936162 405.290264 
L 288.155715 490.319596 
L 288.375269 317.775235 
L 288.594822 538.036988 
L 288.814375 486.156345 
L 289.033928 508.701551 
L 289.253481 487.878704 
L 289.473034 272.19075 
L 289.692587 530.652849 
L 290.131694 444.217129 
L 290.351247 429.884499 
L 290.5708 442.118173 
L 290.790353 400.268585 
L 291.009906 530.220951 
L 291.22946 480.118439 
L 291.668566 450.865079 
L 291.888119 491.004145 
L 292.107672 496.80856 
L 292.327225 492.010092 
L 292.546778 537.378033 
L 292.766332 385.555192 
L 292.985885 475.837457 
L 293.205438 237.464656 
L 293.424991 524.798561 
L 293.644544 462.49735 
L 293.864097 467.382166 
L 294.303204 530.793071 
L 294.522757 463.84785 
L 294.74231 513.627854 
L 294.961863 490.207205 
L 295.400969 475.879034 
L 295.840076 358.509138 
L 296.059629 517.776054 
L 296.279182 466.690247 
L 296.498735 530.134513 
L 296.718288 356.966438 
L 296.937842 530.719116 
L 297.157395 531.660691 
L 297.376948 549.054849 
L 297.596501 503.166191 
L 297.816054 405.229565 
L 298.035607 469.539433 
L 298.25516 489.17153 
L 298.474714 403.235044 
L 298.91382 482.159274 
L 299.133373 429.078629 
L 299.352926 507.83963 
L 299.572479 429.395393 
L 299.792033 555.889896 
L 300.011586 205.716676 
L 300.231139 411.394132 
L 300.450692 425.596158 
L 300.670245 347.011619 
L 300.889798 436.321489 
L 301.109351 361.700173 
L 301.548458 497.614443 
L 301.768011 532.020784 
L 301.987564 415.985335 
L 302.207117 526.055714 
L 302.42667 439.539765 
L 302.646224 478.127397 
L 302.865777 243.581365 
L 303.08533 553.178528 
L 303.524436 465.705017 
L 303.743989 309.763793 
L 303.963542 484.884982 
L 304.183096 493.163354 
L 304.402649 379.892571 
L 304.622202 490.518362 
L 304.841755 444.142703 
L 305.061308 431.413324 
L 305.280861 512.731497 
L 305.500415 398.900441 
L 305.719968 494.102306 
L 305.939521 306.785244 
L 306.159074 556.557866 
L 306.378627 567.547578 
L 306.59818 549.024968 
L 306.817733 462.926985 
L 307.037287 440.471893 
L 307.25684 308.150722 
L 307.476393 450.196978 
L 307.695946 460.111024 
L 307.915499 508.074656 
L 308.135052 508.506553 
L 308.354605 422.63504 
L 308.574159 468.892751 
L 308.793712 456.339295 
L 309.013265 529.783266 
L 309.232818 564.639425 
L 309.452371 516.861094 
L 309.671924 354.182558 
L 309.891478 474.157554 
L 310.111031 360.284499 
L 310.330584 473.023741 
L 310.550137 475.115981 
L 310.76969 482.538712 
L 310.989243 537.442568 
L 311.208796 515.214203 
L 311.42835 426.971722 
L 311.647903 472.470991 
L 311.867456 547.857985 
L 312.087009 442.383493 
L 312.306562 493.652076 
L 312.526115 375.499756 
L 312.745669 420.462015 
L 312.965222 377.635488 
L 313.404328 479.187964 
L 313.843434 339.942561 
L 314.062987 341.115022 
L 314.282541 491.538631 
L 314.502094 500.96976 
L 314.721647 445.75153 
L 314.9412 497.451388 
L 315.160753 434.125515 
L 315.380306 494.876864 
L 315.59986 417.4304 
L 315.819413 434.971229 
L 316.038966 555.504662 
L 316.258519 520.407729 
L 316.478072 531.848263 
L 316.697625 374.869154 
L 316.917178 427.992454 
L 317.136732 526.313486 
L 317.575838 322.579142 
L 318.014944 395.421115 
L 318.234497 537.212523 
L 318.454051 501.516526 
L 318.673604 348.974053 
L 318.893157 493.155928 
L 319.11271 505.748282 
L 319.332263 344.744267 
L 319.551816 449.493485 
L 319.771369 441.044572 
L 319.990923 519.794662 
L 320.210476 387.00415 
L 320.430029 501.270116 
L 320.649582 479.385641 
L 320.869135 499.240044 
L 321.088688 370.833768 
L 321.308242 509.158481 
L 321.527795 443.838029 
L 321.747348 444.997617 
L 321.966901 475.123375 
L 322.186454 482.810146 
L 322.406007 479.949821 
L 322.62556 487.266322 
L 322.845114 481.443487 
L 323.064667 406.243459 
L 323.28422 375.751733 
L 323.503773 448.200671 
L 323.723326 391.54197 
L 324.162433 498.930615 
L 324.381986 516.601128 
L 324.601539 475.423291 
L 324.821092 376.859803 
L 325.040645 462.999155 
L 325.260198 460.18582 
L 325.479751 423.61585 
L 325.699305 457.143428 
L 326.138411 485.293606 
L 326.357964 471.257988 
L 326.577517 527.943322 
L 326.79707 495.758594 
L 327.016624 438.253069 
L 327.236177 576.495742 
L 327.45573 524.145247 
L 327.675283 313.641786 
L 328.114389 509.737581 
L 328.333942 448.234272 
L 328.553496 456.682396 
L 328.992602 494.572279 
L 329.212155 538.736712 
L 329.431708 515.600697 
L 329.651261 447.203126 
L 329.870815 504.726451 
L 330.090368 530.912689 
L 330.309921 517.905949 
L 330.749027 455.732755 
L 330.96858 542.81839 
L 331.407687 461.139814 
L 331.62724 443.140783 
L 331.846793 476.85255 
L 332.066346 555.669912 
L 332.285899 491.383102 
L 332.505452 394.167617 
L 332.725006 458.907347 
L 332.944559 404.735292 
L 333.164112 390.326013 
L 333.603218 514.599632 
L 333.822771 463.242262 
L 334.042324 510.1701 
L 334.261878 453.431605 
L 334.481431 356.056356 
L 334.700984 551.871685 
L 334.920537 374.413053 
L 335.14009 501.351394 
L 335.359643 438.081731 
L 335.579196 493.760937 
L 335.79875 449.698263 
L 336.018303 547.411108 
L 336.237856 574.235839 
L 336.457409 346.599701 
L 336.676962 378.691727 
L 336.896515 444.601018 
L 337.116069 193.565131 
L 337.555175 449.370053 
L 337.774728 487.295995 
L 337.994281 498.513544 
L 338.213834 404.454949 
L 338.433387 519.507037 
L 338.652941 495.354719 
L 338.872494 334.652107 
L 339.092047 315.894796 
L 339.3116 508.588608 
L 339.531153 408.976758 
L 339.97026 368.043372 
L 340.189813 447.93901 
L 340.409366 427.910316 
L 340.628919 446.934856 
L 340.848472 475.824122 
L 341.068025 417.183054 
L 341.287578 418.681733 
L 341.507132 493.020433 
L 341.726685 453.211831 
L 341.946238 517.049423 
L 342.165791 479.813566 
L 342.385344 531.884376 
L 342.604897 538.582101 
L 342.824451 524.702511 
L 343.263557 430.683856 
L 343.48311 485.168215 
L 343.702663 482.067685 
L 343.922216 402.479322 
L 344.141769 520.682761 
L 344.580876 506.520848 
L 344.800429 424.759702 
L 345.019982 493.929189 
L 345.239535 521.879052 
L 345.678642 347.505991 
L 345.898195 503.567561 
L 346.117748 508.164114 
L 346.556854 459.350762 
L 346.99596 474.916672 
L 347.215514 525.936876 
L 347.435067 472.975593 
L 347.65462 501.019681 
L 347.874173 502.80036 
L 348.093726 424.029215 
L 348.313279 496.549767 
L 348.532833 479.654782 
L 348.752386 573.316979 
L 348.971939 311.779464 
L 349.191492 502.702207 
L 349.411045 496.546904 
L 349.630598 418.439113 
L 349.850151 523.089564 
L 350.289258 455.115645 
L 350.508811 498.636548 
L 350.728364 422.224286 
L 351.16747 460.269026 
L 351.387024 560.864626 
L 351.606577 367.775946 
L 351.82613 420.878504 
L 352.045683 512.056273 
L 352.265236 468.459939 
L 352.484789 521.488112 
L 352.704342 519.93741 
L 352.923896 465.947703 
L 353.143449 466.176681 
L 353.363002 422.14088 
L 353.582555 476.199098 
L 353.802108 456.271377 
L 354.021661 464.38958 
L 354.241215 514.274613 
L 354.460768 510.176171 
L 355.119427 429.512384 
L 355.33898 534.269742 
L 355.558533 458.218362 
L 355.778087 334.249539 
L 355.99764 430.236748 
L 356.217193 248.6753 
L 356.436746 492.138537 
L 356.656299 522.71048 
L 356.875852 450.498474 
L 357.095406 443.583323 
L 357.314959 524.807318 
L 357.534512 543.534737 
L 357.754065 375.387515 
L 357.973618 504.664492 
L 358.193171 382.048761 
L 358.632278 551.213707 
L 358.851831 405.529945 
L 359.290937 506.003611 
L 359.51049 384.511445 
L 359.730043 494.412121 
L 359.949596 509.847073 
L 360.16915 437.760431 
L 360.388703 404.910098 
L 360.608256 484.220678 
L 360.827809 491.79111 
L 361.047362 294.912133 
L 361.266915 553.659165 
L 361.486469 453.463834 
L 361.706022 532.284002 
L 361.925575 455.909784 
L 362.145128 164.149404 
L 362.364681 447.439941 
L 362.584234 539.541934 
L 362.803787 434.798839 
L 363.023341 530.333246 
L 363.242894 386.76153 
L 363.462447 533.260496 
L 363.901553 243.353644 
L 364.121106 458.899237 
L 364.34066 492.587818 
L 364.560213 473.967909 
L 365.218872 342.036428 
L 365.438425 405.379244 
L 365.657978 579.161311 
L 365.877532 429.973359 
L 366.097085 404.657808 
L 366.316638 472.190466 
L 366.536191 461.89223 
L 366.755744 431.650303 
L 366.975297 547.652696 
L 367.194851 395.637957 
L 367.414404 457.818429 
L 367.633957 452.559907 
L 367.85351 439.942836 
L 368.073063 516.160771 
L 368.292616 478.695462 
L 368.731723 548.115547 
L 368.951276 475.146197 
L 369.170829 460.624303 
L 369.390382 343.001154 
L 369.609935 518.20687 
L 369.829488 536.225533 
L 370.049042 540.728461 
L 370.488148 387.795757 
L 370.707701 406.792201 
L 370.927254 380.908997 
L 371.146807 417.374949 
L 371.36636 502.90047 
L 371.585914 481.827374 
L 371.805467 522.731095 
L 372.02502 326.632271 
L 372.464126 437.498498 
L 372.683679 373.091353 
L 372.903233 367.230897 
L 373.122786 452.151615 
L 373.342339 461.792448 
L 373.561892 326.001392 
L 373.781445 498.989192 
L 374.000998 502.48434 
L 374.220551 426.423527 
L 374.440105 515.437134 
L 374.659658 525.990914 
L 375.098764 326.738268 
L 375.318317 552.087617 
L 375.53787 401.248687 
L 375.757424 542.374802 
L 375.976977 394.659966 
L 376.416083 471.634415 
L 376.635636 429.981566 
L 377.074742 462.84274 
L 377.294296 435.572425 
L 377.513849 473.106894 
L 377.733402 486.880741 
L 377.952955 397.040693 
L 378.172508 504.286065 
L 378.392061 443.172802 
L 378.831168 486.192452 
L 379.050721 409.891355 
L 379.270274 503.875013 
L 379.489827 353.19997 
L 379.70938 534.50302 
L 379.928933 489.917648 
L 380.148487 571.39198 
L 380.807146 439.913688 
L 381.026699 504.380193 
L 381.246252 349.059575 
L 381.465806 500.726643 
L 381.685359 488.441434 
L 382.124465 407.791083 
L 382.344018 392.174347 
L 382.563571 416.394988 
L 382.783124 396.591815 
L 383.002678 515.700645 
L 383.222231 503.432653 
L 383.661337 393.628558 
L 383.88089 467.01506 
L 384.100443 465.594145 
L 384.319997 498.511713 
L 384.53955 431.661312 
L 384.759103 487.434794 
L 384.978656 331.886421 
L 385.198209 464.104845 
L 385.417762 490.190043 
L 385.637315 531.273211 
L 385.856869 467.362067 
L 386.076422 440.644566 
L 386.295975 450.765399 
L 386.515528 537.202512 
L 386.735081 407.506318 
L 386.954634 445.435916 
L 387.393741 359.020489 
L 387.613294 453.315823 
L 387.832847 419.370363 
L 388.0524 438.12294 
L 388.271953 528.804939 
L 388.491506 473.389041 
L 388.71106 515.503458 
L 388.930613 444.406544 
L 389.150166 519.805544 
L 389.369719 391.332101 
L 389.589272 529.964262 
L 389.808825 387.204935 
L 390.028378 494.063126 
L 390.247932 397.183772 
L 390.467485 385.950672 
L 391.126144 459.7365 
L 391.345697 466.1267 
L 391.565251 498.3441 
L 391.784804 478.785727 
L 392.004357 518.286406 
L 392.22391 524.923047 
L 392.443463 425.20018 
L 392.663016 392.050535 
L 392.882569 414.336333 
L 393.102123 479.812008 
L 393.321676 451.12434 
L 393.541229 453.376688 
L 393.760782 481.930363 
L 393.980335 409.192423 
L 394.199888 507.739535 
L 394.419442 473.216521 
L 394.638995 479.120437 
L 394.858548 397.258996 
L 395.297654 449.932335 
L 395.517207 564.062618 
L 395.956314 338.741682 
L 396.175867 487.509633 
L 396.39542 358.832214 
L 396.614973 131.956182 
L 396.834526 543.7626 
L 397.273633 453.408555 
L 397.493186 506.775501 
L 397.712739 501.944409 
L 397.932292 405.895792 
L 398.151845 542.419587 
L 398.371398 551.350941 
L 398.590951 504.012546 
L 398.810505 503.675756 
L 399.030058 471.849934 
L 399.249611 526.173943 
L 399.469164 472.810843 
L 399.688717 485.355645 
L 399.90827 438.572249 
L 400.127824 441.88658 
L 400.347377 409.578326 
L 400.56693 531.638944 
L 400.786483 398.658087 
L 401.006036 488.69261 
L 401.225589 457.909168 
L 401.445142 501.449488 
L 401.664696 516.280988 
L 402.103802 412.343435 
L 402.323355 485.937751 
L 402.542908 457.494511 
L 402.762461 468.075043 
L 403.201568 419.758452 
L 403.421121 515.752565 
L 403.640674 450.278514 
L 403.860227 542.31291 
L 404.07978 515.564862 
L 404.299333 380.075463 
L 404.518887 487.029018 
L 404.957993 408.726686 
L 405.177546 401.769531 
L 405.397099 514.354073 
L 405.616652 414.83837 
L 405.836206 502.002684 
L 406.055759 512.010562 
L 406.275312 441.497386 
L 406.494865 543.717081 
L 406.714418 512.627947 
L 406.933971 275.896544 
L 407.153524 363.219038 
L 407.373078 390.788591 
L 407.592631 526.907306 
L 407.812184 504.98594 
L 408.031737 400.865178 
L 408.25129 438.066146 
L 408.470843 450.066156 
L 408.690397 432.375571 
L 408.90995 488.116774 
L 409.129503 393.046493 
L 409.349056 231.245685 
L 409.568609 476.391258 
L 409.788162 426.239156 
L 410.007715 469.938061 
L 410.227269 483.696809 
L 410.446822 483.61002 
L 410.666375 382.740567 
L 410.885928 479.991309 
L 411.105481 473.8156 
L 411.325034 401.746012 
L 411.764141 501.20181 
L 411.983694 488.410389 
L 412.203247 458.261268 
L 412.4228 475.417243 
L 413.08146 371.668278 
L 413.301013 519.408593 
L 413.520566 458.505651 
L 413.959672 540.091452 
L 414.179225 499.015258 
L 414.618332 213.977817 
L 414.837885 522.955378 
L 415.276991 452.278839 
L 415.496544 453.199216 
L 415.716097 428.92197 
L 415.935651 365.45836 
L 416.155204 483.359821 
L 416.374757 343.171837 
L 416.59431 472.362933 
L 416.813863 492.907049 
L 417.033416 436.047064 
L 417.252969 514.685643 
L 417.472523 537.145963 
L 417.692076 408.784148 
L 417.911629 176.402233 
L 418.131182 445.023268 
L 418.350735 447.975601 
L 418.570288 475.562912 
L 419.009395 403.572567 
L 419.228948 397.812904 
L 419.448501 443.891354 
L 419.668054 521.617782 
L 419.887607 405.94357 
L 420.10716 489.054113 
L 420.326714 530.020706 
L 420.546267 460.682723 
L 420.76582 321.637262 
L 421.204926 551.125362 
L 421.424479 408.606718 
L 421.644033 545.174841 
L 421.863586 389.332715 
L 422.083139 465.752506 
L 422.302692 462.315358 
L 422.522245 463.422674 
L 422.741798 554.70125 
L 423.180905 440.739657 
L 423.400458 430.331327 
L 423.839564 527.187464 
L 424.059117 382.685982 
L 424.27867 393.328629 
L 424.498224 451.236735 
L 424.717777 546.056826 
L 424.93733 424.827125 
L 425.156883 464.701451 
L 425.376436 355.519678 
L 425.595989 443.69215 
L 425.815542 337.562477 
L 426.035096 495.168574 
L 426.254649 492.74432 
L 426.474202 516.651842 
L 426.693755 476.439328 
L 426.913308 567.585392 
L 427.132861 440.43373 
L 427.352415 490.125308 
L 427.571968 500.856535 
L 427.791521 492.982883 
L 428.011074 430.599342 
L 428.45018 523.867391 
L 428.669733 514.141326 
L 429.10884 398.528093 
L 429.328393 487.653049 
L 429.547946 526.001317 
L 429.767499 406.830397 
L 430.206606 530.526751 
L 430.426159 475.89159 
L 430.645712 480.75483 
L 430.865265 255.468486 
L 431.084818 428.81553 
L 431.304371 303.525572 
L 431.743478 493.707787 
L 431.963031 441.642917 
L 432.182584 460.16464 
L 432.402137 444.06666 
L 432.62169 479.469178 
L 432.841243 468.871287 
L 433.060797 469.239716 
L 433.28035 498.696553 
L 433.499903 236.488456 
L 433.719456 468.748681 
L 433.939009 497.272288 
L 434.158562 510.085842 
L 434.378115 513.070911 
L 434.597669 318.032386 
L 435.036775 542.977616 
L 435.256328 401.281441 
L 435.475881 519.583061 
L 435.695434 482.402337 
L 435.914988 483.297808 
L 436.134541 473.241194 
L 436.354094 456.025874 
L 436.573647 278.740558 
L 436.7932 490.566176 
L 437.012753 428.603685 
L 437.232306 543.239594 
L 437.45186 469.031364 
L 437.671413 355.116083 
L 437.890966 329.820553 
L 438.330072 514.780872 
L 438.549625 483.03748 
L 438.988732 366.142549 
L 439.208285 491.524733 
L 439.427838 358.289208 
L 439.647391 459.841648 
L 439.866944 457.160656 
L 440.086497 481.246929 
L 440.306051 476.324152 
L 440.525604 455.695506 
L 440.745157 465.628929 
L 440.96471 417.394631 
L 441.184263 413.635287 
L 441.403816 459.969387 
L 441.623369 426.273924 
L 441.842923 478.630873 
L 442.062476 439.097105 
L 442.501582 533.748375 
L 442.721135 417.022983 
L 442.940688 500.95635 
L 443.160242 307.913858 
L 443.379795 496.045822 
L 443.599348 419.600117 
L 443.818901 471.843665 
L 444.038454 407.425192 
L 444.258007 513.06152 
L 444.47756 519.569392 
L 444.697114 399.858577 
L 444.916667 482.475155 
L 445.13622 428.410534 
L 445.355773 466.535157 
L 445.575326 440.871743 
L 445.794879 388.2198 
L 446.014433 478.70068 
L 446.233986 456.367539 
L 446.453539 546.275997 
L 446.673092 396.701909 
L 447.112198 506.88709 
L 447.331751 413.044239 
L 447.551305 500.310355 
L 447.770858 472.439609 
L 447.990411 470.557555 
L 448.429517 530.190786 
L 448.64907 398.288273 
L 448.868624 454.864849 
L 449.088177 468.957343 
L 449.30773 525.956858 
L 449.746836 480.506577 
L 449.966389 504.167559 
L 450.185942 436.587402 
L 450.405496 478.118312 
L 450.625049 468.95262 
L 450.844602 330.306167 
L 451.503261 451.151195 
L 451.722815 443.852173 
L 451.942368 447.110517 
L 452.161921 464.449885 
L 452.381474 420.861087 
L 452.601027 425.629484 
L 452.82058 364.225156 
L 453.040133 523.600858 
L 453.259687 339.85008 
L 453.698793 537.831872 
L 453.918346 511.272882 
L 454.137899 455.424967 
L 454.357452 486.625622 
L 454.577006 545.766862 
L 454.796559 502.225956 
L 455.016112 498.559698 
L 455.235665 477.103166 
L 455.455218 494.829028 
L 455.674771 446.023724 
L 456.113878 528.71525 
L 456.552984 449.630375 
L 456.772537 503.465107 
L 456.99209 476.546152 
L 457.431197 517.052684 
L 457.65075 396.580206 
L 457.870303 486.341156 
L 458.089856 416.553813 
L 458.309409 514.895845 
L 458.528962 423.196605 
L 458.748515 466.886215 
L 458.968069 388.247945 
L 459.187622 546.610398 
L 459.407175 537.654235 
L 459.626728 550.551956 
L 460.065834 478.490465 
L 460.285388 536.588083 
L 460.724494 361.921798 
L 460.944047 470.713124 
L 461.1636 523.341907 
L 461.383153 498.749476 
L 461.602706 408.071043 
L 461.82226 485.124307 
L 462.041813 479.804409 
L 462.261366 305.034949 
L 462.480919 474.847056 
L 462.700472 534.194637 
L 462.920025 555.045824 
L 463.139579 424.633473 
L 463.359132 501.574305 
L 463.578685 380.800179 
L 463.798238 545.826849 
L 464.017791 518.68441 
L 464.237344 297.834123 
L 464.456897 478.803828 
L 464.676451 390.848259 
L 464.896004 516.767934 
L 465.115557 477.768645 
L 465.33511 386.589404 
L 465.554663 477.462299 
L 465.774216 519.633447 
L 466.213323 288.804568 
L 466.652429 518.617155 
L 466.871982 534.782263 
L 467.091535 366.116619 
L 467.311088 527.918035 
L 467.750195 563.22712 
L 467.969748 534.695661 
L 468.189301 427.106267 
L 468.408854 495.632486 
L 468.628407 386.600812 
L 468.84796 551.305748 
L 469.067514 425.064401 
L 469.287067 560.403693 
L 469.50662 463.200642 
L 469.726173 485.027402 
L 469.945726 529.504271 
L 470.165279 369.006976 
L 470.384833 484.494306 
L 470.604386 489.303826 
L 470.823939 527.329809 
L 471.043492 419.72295 
L 471.263045 487.571901 
L 471.482598 429.885118 
L 471.702151 495.387774 
L 471.921705 311.528083 
L 472.141258 480.128902 
L 472.360811 495.849642 
L 472.580364 465.910746 
L 472.799917 337.696442 
L 473.01947 346.480025 
L 473.458577 531.38651 
L 473.67813 447.014492 
L 473.897683 443.544333 
L 474.117236 441.967395 
L 474.556342 505.083247 
L 474.775896 497.070809 
L 474.995449 532.004353 
L 475.215002 398.462769 
L 475.434555 522.113685 
L 475.873661 338.914176 
L 476.093215 510.771021 
L 476.312768 508.230149 
L 476.532321 423.853295 
L 476.751874 449.805445 
L 476.971427 500.903996 
L 477.19098 491.799259 
L 477.410533 561.250764 
L 477.630087 440.670319 
L 477.84964 524.418761 
L 478.069193 505.337899 
L 478.288746 508.298272 
L 478.508299 378.598733 
L 478.727852 350.321845 
L 478.947406 358.846209 
L 479.166959 417.874073 
L 479.386512 445.226114 
L 479.606065 495.924848 
L 479.825618 497.505998 
L 480.045171 495.168101 
L 480.264724 433.863766 
L 480.484278 476.096488 
L 480.703831 478.157506 
L 480.923384 264.29093 
L 481.142937 496.387707 
L 481.36249 554.408957 
L 481.582043 505.930093 
L 481.801597 505.348898 
L 482.02115 495.763403 
L 482.240703 418.467192 
L 482.679809 526.431608 
L 482.899362 426.31282 
L 483.118915 458.434094 
L 483.338469 395.250626 
L 483.558022 519.440367 
L 483.777575 379.853502 
L 483.997128 382.198627 
L 484.216681 452.085641 
L 484.436234 453.021914 
L 484.655788 450.715179 
L 484.875341 406.516441 
L 485.094894 232.030953 
L 485.314447 444.063268 
L 485.534 476.803565 
L 485.753553 411.833835 
L 486.19266 547.61623 
L 486.412213 443.496554 
L 486.631766 539.694403 
L 486.851319 389.545339 
L 487.070872 469.467916 
L 487.290425 378.440564 
L 487.509979 550.169289 
L 487.729532 444.122179 
L 487.949085 422.883363 
L 488.168638 380.376055 
L 488.388191 462.085676 
L 488.607744 486.361353 
L 488.827297 457.645413 
L 489.046851 326.44086 
L 489.266404 482.109914 
L 489.485957 514.171564 
L 489.70551 497.716521 
L 489.925063 515.103421 
L 490.144616 426.804826 
L 490.364169 454.486 
L 490.583723 444.803918 
L 490.803276 510.342509 
L 491.242382 549.707135 
L 491.461935 431.779282 
L 491.681488 457.434716 
L 491.901042 529.559423 
L 492.120595 527.704599 
L 492.559701 408.40921 
L 492.779254 508.063224 
L 492.998807 454.273616 
L 493.437914 543.885503 
L 493.657467 495.653117 
L 493.87702 538.419943 
L 494.096573 537.634346 
L 494.316126 540.319455 
L 494.535679 415.223125 
L 494.755233 381.588547 
L 494.974786 410.853447 
L 495.194339 546.20931 
L 495.413892 389.02556 
L 495.633445 479.832033 
L 495.852998 487.404314 
L 496.072551 509.901894 
L 496.292105 462.297719 
L 496.511658 470.583396 
L 496.731211 464.160032 
L 496.950764 511.929513 
L 497.170317 475.983497 
L 497.38987 385.797098 
L 497.609424 499.685791 
L 497.828977 455.845472 
L 498.04853 454.856336 
L 498.268083 499.663565 
L 498.487636 451.768933 
L 498.707189 507.501079 
L 498.926742 479.965953 
L 499.146296 486.863981 
L 499.365849 421.289322 
L 499.585402 389.583816 
L 499.804955 510.695606 
L 500.024508 484.171116 
L 500.463615 217.137009 
L 500.683168 263.040859 
L 501.122274 548.712966 
L 501.341827 498.219848 
L 501.56138 508.956202 
L 501.780933 495.136876 
L 502.000487 547.481142 
L 502.659146 478.192246 
L 503.098252 386.826479 
L 503.317806 527.625839 
L 503.537359 518.358853 
L 503.756912 355.712169 
L 503.976465 409.249282 
L 504.196018 255.730041 
L 504.415571 483.927586 
L 504.635124 538.533775 
L 505.074231 351.61517 
L 505.293784 455.09685 
L 505.513337 489.58206 
L 505.73289 343.728501 
L 505.952443 451.198597 
L 506.171997 446.305011 
L 506.39155 430.834393 
L 506.611103 581.38839 
L 506.830656 439.934285 
L 507.050209 456.509815 
L 507.269762 424.248156 
L 507.489315 491.768882 
L 507.708869 412.842266 
L 507.928422 475.989581 
L 508.147975 354.59914 
L 508.367528 508.777076 
L 508.587081 390.861932 
L 508.806634 391.350802 
L 509.026188 494.882749 
L 509.245741 425.06928 
L 509.465294 478.265605 
L 509.9044 458.548201 
L 510.123953 422.096859 
L 510.343506 513.201949 
L 510.56306 507.707054 
L 511.002166 530.006614 
L 511.221719 444.675004 
L 511.441272 512.82781 
L 511.660825 388.073396 
L 511.880379 510.379855 
L 512.099932 510.888805 
L 512.319485 347.932305 
L 512.758591 503.322468 
L 512.978144 510.863158 
L 513.197697 435.98791 
L 513.417251 496.111317 
L 513.636804 416.334959 
L 513.856357 215.868551 
L 514.07591 474.657085 
L 514.295463 442.910042 
L 514.515016 503.136569 
L 514.73457 433.717119 
L 514.954123 410.444472 
L 515.173676 544.968312 
L 515.393229 507.448474 
L 515.612782 441.090175 
L 515.832335 463.234308 
L 516.051888 426.185066 
L 516.271442 424.199932 
L 516.490995 481.70185 
L 516.710548 464.188328 
L 517.149654 448.439301 
L 517.369207 334.129026 
L 517.58876 432.121399 
L 517.808314 424.849806 
L 518.027867 527.162041 
L 518.24742 504.077115 
L 518.466973 362.658545 
L 518.686526 473.024504 
L 518.906079 440.725249 
L 519.125633 557.348247 
L 519.345186 497.639878 
L 519.784292 540.225522 
L 520.003845 534.165111 
L 520.223398 514.100273 
L 520.442951 364.107704 
L 520.662505 388.960495 
L 520.882058 487.8914 
L 521.101611 430.649018 
L 521.540717 484.558672 
L 521.76027 460.228893 
L 521.979824 528.383838 
L 522.199377 330.740907 
L 523.077589 512.902282 
L 523.297142 511.44647 
L 523.516696 419.018578 
L 523.736249 529.165847 
L 523.955802 491.377819 
L 524.175355 525.903805 
L 524.394908 521.262386 
L 524.614461 248.650706 
L 524.834015 250.009337 
L 525.053568 543.9155 
L 525.273121 233.542228 
L 525.492674 486.35272 
L 525.712227 386.064219 
L 525.93178 512.048884 
L 526.151333 529.639216 
L 526.370887 505.42755 
L 526.59044 446.853317 
L 526.809993 514.871263 
L 527.029546 524.749664 
L 527.249099 484.416448 
L 527.468652 484.922786 
L 527.688206 555.555734 
L 527.907759 506.087342 
L 528.127312 415.107517 
L 528.346865 463.353859 
L 528.566418 361.244577 
L 529.005524 434.699588 
L 529.225078 443.817007 
L 529.444631 514.568336 
L 529.664184 440.40504 
L 529.883737 514.108577 
L 530.10329 433.121354 
L 530.322843 544.487161 
L 530.542397 517.542601 
L 530.76195 407.647755 
L 530.981503 360.721241 
L 531.201056 495.00075 
L 531.420609 345.579054 
L 531.640162 380.40244 
L 531.859715 394.386101 
L 532.079269 478.54492 
L 532.298822 443.99491 
L 532.518375 446.180178 
L 532.737928 302.199577 
L 532.957481 526.956671 
L 533.177034 465.288138 
L 533.396588 495.508399 
L 533.616141 400.560321 
L 533.835694 576.964334 
L 534.2748 455.649274 
L 534.494353 513.812756 
L 534.713906 481.219382 
L 534.93346 498.938669 
L 535.153013 433.168102 
L 535.372566 402.29586 
L 535.592119 525.63941 
L 535.811672 458.341916 
L 536.250779 566.464147 
L 536.470332 534.281709 
L 536.689885 469.867908 
L 536.909438 522.413005 
L 537.128991 396.465392 
L 537.348544 473.235575 
L 537.568097 448.592965 
L 537.787651 489.129495 
L 538.007204 434.576513 
L 538.226757 484.073885 
L 538.44631 339.819183 
L 538.665863 503.885013 
L 538.885416 414.759593 
L 539.10497 495.706165 
L 539.324523 433.695477 
L 539.544076 516.272498 
L 539.763629 512.094332 
L 539.983182 503.609548 
L 540.202735 531.905247 
L 540.422288 514.400306 
L 540.641842 544.299485 
L 540.861395 459.576483 
L 541.080948 476.164416 
L 541.300501 519.376777 
L 541.739607 387.669817 
L 541.95916 482.183896 
L 542.178714 335.866293 
L 542.398267 455.606938 
L 542.61782 487.711249 
L 542.837373 458.440096 
L 543.056926 291.371816 
L 543.276479 456.248893 
L 543.496033 524.657974 
L 543.715586 428.182869 
L 543.935139 189.573654 
L 544.154692 280.720232 
L 544.374245 426.922132 
L 544.593798 452.866813 
L 544.813351 504.426206 
L 545.032905 508.503496 
L 545.252458 450.761092 
L 545.472011 511.319954 
L 545.691564 530.579681 
L 545.911117 399.218553 
L 546.13067 451.16231 
L 546.350224 376.3499 
L 546.569777 502.920816 
L 546.78933 520.44381 
L 547.008883 389.90245 
L 547.228436 515.33136 
L 547.447989 552.052949 
L 547.667542 505.331614 
L 547.887096 508.203261 
L 548.106649 463.650335 
L 548.326202 510.685332 
L 548.545755 514.082644 
L 548.765308 550.457018 
L 549.204415 428.243951 
L 549.423968 547.039246 
L 549.643521 478.971375 
L 549.863074 359.291764 
L 550.082627 517.478292 
L 550.30218 410.792629 
L 550.741287 514.730761 
L 550.96084 394.954147 
L 551.180393 522.276095 
L 551.399946 365.793661 
L 551.839052 509.651569 
L 552.058606 371.871711 
L 552.278159 460.472388 
L 552.497712 469.353602 
L 552.717265 417.039511 
L 552.936818 537.821571 
L 553.156371 500.167325 
L 553.595478 478.132545 
L 553.815031 479.837107 
L 554.034584 514.03776 
L 554.254137 346.795621 
L 554.47369 490.467401 
L 554.693243 401.062853 
L 555.13235 531.226981 
L 555.571456 366.755461 
L 555.791009 576.398285 
L 556.010562 461.115699 
L 556.449669 410.699973 
L 556.669222 488.917402 
L 556.888775 444.793116 
L 557.108328 350.712205 
L 557.327881 384.755244 
L 557.547434 351.564699 
L 557.766988 358.641357 
L 558.206094 547.47095 
L 558.425647 508.831116 
L 558.6452 507.245734 
L 558.864753 532.662538 
L 559.30386 459.201703 
L 559.523413 472.52444 
L 559.742966 410.642264 
L 559.742966 410.642264 
" style="fill:none;stroke:#96c69a;stroke-linecap:round;stroke-width:3;"/>
   </g>
   <g id="line2d_2"/>
   <g id="patch_3">
    <path d="M 98.911875 603.86 
L 98.911875 109.484571 
" style="fill:none;stroke:#262626;stroke-linecap:square;stroke-linejoin:miter;stroke-width:2.5;"/>
   </g>
   <g id="patch_4">
    <path d="M 98.911875 603.86 
L 581.687304 603.86 
" style="fill:none;stroke:#262626;stroke-linecap:square;stroke-linejoin:miter;stroke-width:2.5;"/>
   </g>
   <g id="legend_1">
    <g id="patch_5">
     <path d="M 521.813866 598.86 
L 574.687304 598.86 
Q 576.687304 598.86 576.687304 596.86 
L 576.687304 554.954375 
Q 576.687304 552.954375 574.687304 552.954375 
L 521.813866 552.954375 
Q 519.813866 552.954375 519.813866 554.954375 
L 519.813866 596.86 
Q 519.813866 598.86 521.813866 598.86 
z
" style="fill:#ffffff;opacity:0.8;stroke:#cccccc;stroke-linejoin:miter;stroke-width:2;"/>
    </g>
    <g id="text_18">
     <!-- $n_\tau$ -->
     <g style="fill:#262626;" transform="translate(535.170585 575.190625)scale(0.24 -0.24)">
      <defs>
       <path d="M 3566 2113 
L 3156 0 
L 2578 0 
L 2988 2091 
Q 3016 2238 3031 2350 
Q 3047 2463 3047 2528 
Q 3047 2791 2881 2937 
Q 2716 3084 2419 3084 
Q 1956 3084 1622 2776 
Q 1288 2469 1184 1941 
L 800 0 
L 225 0 
L 903 3500 
L 1478 3500 
L 1363 2950 
Q 1603 3253 1940 3418 
Q 2278 3584 2650 3584 
Q 3113 3584 3367 3334 
Q 3622 3084 3622 2631 
Q 3622 2519 3608 2391 
Q 3594 2263 3566 2113 
z
" id="DejaVuSans-Oblique-6e" transform="scale(0.015625)"/>
       <path d="M 2103 638 
Q 2188 488 2525 488 
L 2800 488 
L 2706 0 
L 2363 0 
Q 1800 0 1600 300 
Q 1403 606 1534 1269 
L 1856 2925 
L 541 2925 
L 653 3500 
L 3881 3500 
L 3769 2925 
L 2444 2925 
L 2113 1234 
Q 2025 781 2103 638 
z
" id="DejaVuSans-Oblique-3c4" transform="scale(0.015625)"/>
      </defs>
      <use xlink:href="#DejaVuSans-Oblique-6e"/>
      <use transform="translate(63.378906 -16.40625)scale(0.7)" xlink:href="#DejaVuSans-Oblique-3c4"/>
     </g>
    </g>
    <g id="line2d_3">
     <path d="M 523.813866 589.280313 
L 543.813866 589.280313 
" style="fill:none;stroke:#96c69a;stroke-linecap:round;stroke-width:3;"/>
    </g>
    <g id="line2d_4"/>
    <g id="text_19">
     <!-- 100 -->
     <g style="fill:#262626;" transform="translate(551.813866 592.780313)scale(0.1 -0.1)">
      <defs>
       <path d="M 750 831 
L 1813 831 
L 1813 3847 
L 722 3622 
L 722 4441 
L 1806 4666 
L 2950 4666 
L 2950 831 
L 4013 831 
L 4013 0 
L 750 0 
L 750 831 
z
" id="DejaVuSans-Bold-31" transform="scale(0.015625)"/>
       <path d="M 2944 2338 
Q 2944 3213 2780 3570 
Q 2616 3928 2228 3928 
Q 1841 3928 1675 3570 
Q 1509 3213 1509 2338 
Q 1509 1453 1675 1090 
Q 1841 728 2228 728 
Q 2613 728 2778 1090 
Q 2944 1453 2944 2338 
z
M 4147 2328 
Q 4147 1169 3647 539 
Q 3147 -91 2228 -91 
Q 1306 -91 806 539 
Q 306 1169 306 2328 
Q 306 3491 806 4120 
Q 1306 4750 2228 4750 
Q 3147 4750 3647 4120 
Q 4147 3491 4147 2328 
z
" id="DejaVuSans-Bold-30" transform="scale(0.015625)"/>
      </defs>
      <use xlink:href="#DejaVuSans-Bold-31"/>
      <use x="69.580078" xlink:href="#DejaVuSans-Bold-30"/>
      <use x="139.160156" xlink:href="#DejaVuSans-Bold-30"/>
     </g>
    </g>
   </g>
  </g>
  <g id="axes_2">
   <g id="patch_6">
    <path d="M 98.911875 92.437143 
L 581.687304 92.437143 
L 581.687304 7.2 
L 98.911875 7.2 
z
" style="fill:none;"/>
   </g>
   <g id="matplotlib.axis_3">
    <g id="xtick_7"/>
    <g id="xtick_8"/>
    <g id="xtick_9"/>
    <g id="xtick_10"/>
    <g id="xtick_11"/>
    <g id="xtick_12"/>
   </g>
   <g id="matplotlib.axis_4">
    <g id="ytick_10">
     <g id="text_20">
      <!-- 0 -->
      <g style="fill:#262626;" transform="translate(69.414375 100.795424)scale(0.22 -0.22)">
       <use xlink:href="#DejaVuSans-30"/>
      </g>
     </g>
    </g>
    <g id="ytick_11">
     <g id="text_21">
      <!-- 100 -->
      <g style="fill:#262626;" transform="translate(41.419375 48.082287)scale(0.22 -0.22)">
       <use xlink:href="#DejaVuSans-31"/>
       <use x="63.623047" xlink:href="#DejaVuSans-30"/>
       <use x="127.246094" xlink:href="#DejaVuSans-30"/>
      </g>
     </g>
    </g>
   </g>
   <g id="patch_7">
    <path clip-path="url(#p0f23eaa1fa)" d="M 120.856213 92.437143 
L 154.616732 92.437143 
L 154.616732 11.258912 
L 120.856213 11.258912 
z
" style="fill:#96c69a;fill-opacity:0.5;stroke:#ffffff;stroke-linejoin:miter;stroke-width:2;"/>
   </g>
   <g id="patch_8">
    <path clip-path="url(#p0f23eaa1fa)" d="M 154.616732 92.437143 
L 188.377252 92.437143 
L 188.377252 11.258912 
L 154.616732 11.258912 
z
" style="fill:#96c69a;fill-opacity:0.5;stroke:#ffffff;stroke-linejoin:miter;stroke-width:2;"/>
   </g>
   <g id="patch_9">
    <path clip-path="url(#p0f23eaa1fa)" d="M 188.377252 92.437143 
L 222.137771 92.437143 
L 222.137771 11.258912 
L 188.377252 11.258912 
z
" style="fill:#96c69a;fill-opacity:0.5;stroke:#ffffff;stroke-linejoin:miter;stroke-width:2;"/>
   </g>
   <g id="patch_10">
    <path clip-path="url(#p0f23eaa1fa)" d="M 222.137771 92.437143 
L 255.898291 92.437143 
L 255.898291 11.258912 
L 222.137771 11.258912 
z
" style="fill:#96c69a;fill-opacity:0.5;stroke:#ffffff;stroke-linejoin:miter;stroke-width:2;"/>
   </g>
   <g id="patch_11">
    <path clip-path="url(#p0f23eaa1fa)" d="M 255.898291 92.437143 
L 289.65881 92.437143 
L 289.65881 11.786043 
L 255.898291 11.786043 
z
" style="fill:#96c69a;fill-opacity:0.5;stroke:#ffffff;stroke-linejoin:miter;stroke-width:2;"/>
   </g>
   <g id="patch_12">
    <path clip-path="url(#p0f23eaa1fa)" d="M 289.65881 92.437143 
L 323.41933 92.437143 
L 323.41933 11.258912 
L 289.65881 11.258912 
z
" style="fill:#96c69a;fill-opacity:0.5;stroke:#ffffff;stroke-linejoin:miter;stroke-width:2;"/>
   </g>
   <g id="patch_13">
    <path clip-path="url(#p0f23eaa1fa)" d="M 323.41933 92.437143 
L 357.179849 92.437143 
L 357.179849 11.258912 
L 323.41933 11.258912 
z
" style="fill:#96c69a;fill-opacity:0.5;stroke:#ffffff;stroke-linejoin:miter;stroke-width:2;"/>
   </g>
   <g id="patch_14">
    <path clip-path="url(#p0f23eaa1fa)" d="M 357.179849 92.437143 
L 390.940369 92.437143 
L 390.940369 11.258912 
L 357.179849 11.258912 
z
" style="fill:#96c69a;fill-opacity:0.5;stroke:#ffffff;stroke-linejoin:miter;stroke-width:2;"/>
   </g>
   <g id="patch_15">
    <path clip-path="url(#p0f23eaa1fa)" d="M 390.940369 92.437143 
L 424.700888 92.437143 
L 424.700888 11.786043 
L 390.940369 11.786043 
z
" style="fill:#96c69a;fill-opacity:0.5;stroke:#ffffff;stroke-linejoin:miter;stroke-width:2;"/>
   </g>
   <g id="patch_16">
    <path clip-path="url(#p0f23eaa1fa)" d="M 424.700888 92.437143 
L 458.461407 92.437143 
L 458.461407 11.258912 
L 424.700888 11.258912 
z
" style="fill:#96c69a;fill-opacity:0.5;stroke:#ffffff;stroke-linejoin:miter;stroke-width:2;"/>
   </g>
   <g id="patch_17">
    <path clip-path="url(#p0f23eaa1fa)" d="M 458.461407 92.437143 
L 492.221927 92.437143 
L 492.221927 11.258912 
L 458.461407 11.258912 
z
" style="fill:#96c69a;fill-opacity:0.5;stroke:#ffffff;stroke-linejoin:miter;stroke-width:2;"/>
   </g>
   <g id="patch_18">
    <path clip-path="url(#p0f23eaa1fa)" d="M 492.221927 92.437143 
L 525.982446 92.437143 
L 525.982446 11.258912 
L 492.221927 11.258912 
z
" style="fill:#96c69a;fill-opacity:0.5;stroke:#ffffff;stroke-linejoin:miter;stroke-width:2;"/>
   </g>
   <g id="patch_19">
    <path clip-path="url(#p0f23eaa1fa)" d="M 525.982446 92.437143 
L 559.742966 92.437143 
L 559.742966 11.258912 
L 525.982446 11.258912 
z
" style="fill:#96c69a;fill-opacity:0.5;stroke:#ffffff;stroke-linejoin:miter;stroke-width:2;"/>
   </g>
   <g id="patch_20">
    <path d="M 98.911875 92.437143 
L 98.911875 7.2 
" style="fill:none;stroke:#262626;stroke-linecap:square;stroke-linejoin:miter;stroke-width:2.5;"/>
   </g>
   <g id="patch_21">
    <path d="M 98.911875 92.437143 
L 581.687304 92.437143 
" style="fill:none;stroke:#262626;stroke-linecap:square;stroke-linejoin:miter;stroke-width:2.5;"/>
   </g>
  </g>
  <g id="axes_3">
   <g id="patch_22">
    <path d="M 598.334732 603.86 
L 681.571875 603.86 
L 681.571875 109.484571 
L 598.334732 109.484571 
z
" style="fill:none;"/>
   </g>
   <g id="matplotlib.axis_5">
    <g id="xtick_13">
     <g id="text_22">
      <!-- 0 -->
      <g style="fill:#262626;" transform="translate(591.335982 636.076563)scale(0.22 -0.22)">
       <use xlink:href="#DejaVuSans-30"/>
      </g>
     </g>
    </g>
    <g id="xtick_14">
     <g id="text_23">
      <!-- 100 -->
      <g style="fill:#262626;" transform="translate(619.505221 636.076563)scale(0.22 -0.22)">
       <use xlink:href="#DejaVuSans-31"/>
       <use x="63.623047" xlink:href="#DejaVuSans-30"/>
       <use x="127.246094" xlink:href="#DejaVuSans-30"/>
      </g>
     </g>
    </g>
   </g>
   <g id="matplotlib.axis_6">
    <g id="ytick_12"/>
    <g id="ytick_13"/>
    <g id="ytick_14"/>
    <g id="ytick_15"/>
    <g id="ytick_16"/>
    <g id="ytick_17"/>
    <g id="ytick_18"/>
    <g id="ytick_19"/>
    <g id="ytick_20"/>
   </g>
   <g id="patch_23">
    <path clip-path="url(#pceb5e7a6e7)" d="M 598.334732 581.38839 
L 603.394741 581.38839 
L 603.394741 568.904162 
L 598.334732 568.904162 
z
" style="fill:#96c69a;fill-opacity:0.5;stroke:#ffffff;stroke-linejoin:miter;stroke-width:1.248423;"/>
   </g>
   <g id="patch_24">
    <path clip-path="url(#pceb5e7a6e7)" d="M 598.334732 568.904162 
L 606.76808 568.904162 
L 606.76808 556.419934 
L 598.334732 556.419934 
z
" style="fill:#96c69a;fill-opacity:0.5;stroke:#ffffff;stroke-linejoin:miter;stroke-width:1.248423;"/>
   </g>
   <g id="patch_25">
    <path clip-path="url(#pceb5e7a6e7)" d="M 598.334732 556.419934 
L 621.526439 556.419934 
L 621.526439 543.935706 
L 598.334732 543.935706 
z
" style="fill:#96c69a;fill-opacity:0.5;stroke:#ffffff;stroke-linejoin:miter;stroke-width:1.248423;"/>
   </g>
   <g id="patch_26">
    <path clip-path="url(#pceb5e7a6e7)" d="M 598.334732 543.935706 
L 635.86313 543.935706 
L 635.86313 531.451478 
L 598.334732 531.451478 
z
" style="fill:#96c69a;fill-opacity:0.5;stroke:#ffffff;stroke-linejoin:miter;stroke-width:1.248423;"/>
   </g>
   <g id="patch_27">
    <path clip-path="url(#pceb5e7a6e7)" d="M 598.334732 531.451478 
L 651.043156 531.451478 
L 651.043156 518.96725 
L 598.334732 518.96725 
z
" style="fill:#96c69a;fill-opacity:0.5;stroke:#ffffff;stroke-linejoin:miter;stroke-width:1.248423;"/>
   </g>
   <g id="patch_28">
    <path clip-path="url(#pceb5e7a6e7)" d="M 598.334732 518.96725 
L 670.861523 518.96725 
L 670.861523 506.483022 
L 598.334732 506.483022 
z
" style="fill:#96c69a;fill-opacity:0.5;stroke:#ffffff;stroke-linejoin:miter;stroke-width:1.248423;"/>
   </g>
   <g id="patch_29">
    <path clip-path="url(#pceb5e7a6e7)" d="M 598.334732 506.483022 
L 675.921532 506.483022 
L 675.921532 493.998794 
L 598.334732 493.998794 
z
" style="fill:#96c69a;fill-opacity:0.5;stroke:#ffffff;stroke-linejoin:miter;stroke-width:1.248423;"/>
   </g>
   <g id="patch_30">
    <path clip-path="url(#pceb5e7a6e7)" d="M 598.334732 493.998794 
L 671.283191 493.998794 
L 671.283191 481.514566 
L 598.334732 481.514566 
z
" style="fill:#96c69a;fill-opacity:0.5;stroke:#ffffff;stroke-linejoin:miter;stroke-width:1.248423;"/>
   </g>
   <g id="patch_31">
    <path clip-path="url(#pceb5e7a6e7)" d="M 598.334732 481.514566 
L 677.608202 481.514566 
L 677.608202 469.030338 
L 598.334732 469.030338 
z
" style="fill:#96c69a;fill-opacity:0.5;stroke:#ffffff;stroke-linejoin:miter;stroke-width:1.248423;"/>
   </g>
   <g id="patch_32">
    <path clip-path="url(#pceb5e7a6e7)" d="M 598.334732 469.030338 
L 656.103165 469.030338 
L 656.103165 456.54611 
L 598.334732 456.54611 
z
" style="fill:#96c69a;fill-opacity:0.5;stroke:#ffffff;stroke-linejoin:miter;stroke-width:1.248423;"/>
   </g>
   <g id="patch_33">
    <path clip-path="url(#pceb5e7a6e7)" d="M 598.334732 456.54611 
L 659.476504 456.54611 
L 659.476504 444.061882 
L 598.334732 444.061882 
z
" style="fill:#96c69a;fill-opacity:0.5;stroke:#ffffff;stroke-linejoin:miter;stroke-width:1.248423;"/>
   </g>
   <g id="patch_34">
    <path clip-path="url(#pceb5e7a6e7)" d="M 598.334732 444.061882 
L 651.886491 444.061882 
L 651.886491 431.577654 
L 598.334732 431.577654 
z
" style="fill:#96c69a;fill-opacity:0.5;stroke:#ffffff;stroke-linejoin:miter;stroke-width:1.248423;"/>
   </g>
   <g id="patch_35">
    <path clip-path="url(#pceb5e7a6e7)" d="M 598.334732 431.577654 
L 642.609808 431.577654 
L 642.609808 419.093426 
L 598.334732 419.093426 
z
" style="fill:#96c69a;fill-opacity:0.5;stroke:#ffffff;stroke-linejoin:miter;stroke-width:1.248423;"/>
   </g>
   <g id="patch_36">
    <path clip-path="url(#pceb5e7a6e7)" d="M 598.334732 419.093426 
L 633.333126 419.093426 
L 633.333126 406.609198 
L 598.334732 406.609198 
z
" style="fill:#96c69a;fill-opacity:0.5;stroke:#ffffff;stroke-linejoin:miter;stroke-width:1.248423;"/>
   </g>
   <g id="patch_37">
    <path clip-path="url(#pceb5e7a6e7)" d="M 598.334732 406.609198 
L 633.333126 406.609198 
L 633.333126 394.12497 
L 598.334732 394.12497 
z
" style="fill:#96c69a;fill-opacity:0.5;stroke:#ffffff;stroke-linejoin:miter;stroke-width:1.248423;"/>
   </g>
   <g id="patch_38">
    <path clip-path="url(#pceb5e7a6e7)" d="M 598.334732 394.12497 
L 632.911458 394.12497 
L 632.911458 381.640742 
L 598.334732 381.640742 
z
" style="fill:#96c69a;fill-opacity:0.5;stroke:#ffffff;stroke-linejoin:miter;stroke-width:1.248423;"/>
   </g>
   <g id="patch_39">
    <path clip-path="url(#pceb5e7a6e7)" d="M 598.334732 381.640742 
L 617.731432 381.640742 
L 617.731432 369.156514 
L 598.334732 369.156514 
z
" style="fill:#96c69a;fill-opacity:0.5;stroke:#ffffff;stroke-linejoin:miter;stroke-width:1.248423;"/>
   </g>
   <g id="patch_40">
    <path clip-path="url(#pceb5e7a6e7)" d="M 598.334732 369.156514 
L 614.358093 369.156514 
L 614.358093 356.672286 
L 598.334732 356.672286 
z
" style="fill:#96c69a;fill-opacity:0.5;stroke:#ffffff;stroke-linejoin:miter;stroke-width:1.248423;"/>
   </g>
   <g id="patch_41">
    <path clip-path="url(#pceb5e7a6e7)" d="M 598.334732 356.672286 
L 610.984754 356.672286 
L 610.984754 344.188058 
L 598.334732 344.188058 
z
" style="fill:#96c69a;fill-opacity:0.5;stroke:#ffffff;stroke-linejoin:miter;stroke-width:1.248423;"/>
   </g>
   <g id="patch_42">
    <path clip-path="url(#pceb5e7a6e7)" d="M 598.334732 344.188058 
L 607.611415 344.188058 
L 607.611415 331.70383 
L 598.334732 331.70383 
z
" style="fill:#96c69a;fill-opacity:0.5;stroke:#ffffff;stroke-linejoin:miter;stroke-width:1.248423;"/>
   </g>
   <g id="patch_43">
    <path clip-path="url(#pceb5e7a6e7)" d="M 598.334732 331.70383 
L 605.503078 331.70383 
L 605.503078 319.219602 
L 598.334732 319.219602 
z
" style="fill:#96c69a;fill-opacity:0.5;stroke:#ffffff;stroke-linejoin:miter;stroke-width:1.248423;"/>
   </g>
   <g id="patch_44">
    <path clip-path="url(#pceb5e7a6e7)" d="M 598.334732 319.219602 
L 606.76808 319.219602 
L 606.76808 306.735374 
L 598.334732 306.735374 
z
" style="fill:#96c69a;fill-opacity:0.5;stroke:#ffffff;stroke-linejoin:miter;stroke-width:1.248423;"/>
   </g>
   <g id="patch_45">
    <path clip-path="url(#pceb5e7a6e7)" d="M 598.334732 306.735374 
L 602.129739 306.735374 
L 602.129739 294.251146 
L 598.334732 294.251146 
z
" style="fill:#96c69a;fill-opacity:0.5;stroke:#ffffff;stroke-linejoin:miter;stroke-width:1.248423;"/>
   </g>
   <g id="patch_46">
    <path clip-path="url(#pceb5e7a6e7)" d="M 598.334732 294.251146 
L 600.864736 294.251146 
L 600.864736 281.766918 
L 598.334732 281.766918 
z
" style="fill:#96c69a;fill-opacity:0.5;stroke:#ffffff;stroke-linejoin:miter;stroke-width:1.248423;"/>
   </g>
   <g id="patch_47">
    <path clip-path="url(#pceb5e7a6e7)" d="M 598.334732 281.766918 
L 600.864736 281.766918 
L 600.864736 269.28269 
L 598.334732 269.28269 
z
" style="fill:#96c69a;fill-opacity:0.5;stroke:#ffffff;stroke-linejoin:miter;stroke-width:1.248423;"/>
   </g>
   <g id="patch_48">
    <path clip-path="url(#pceb5e7a6e7)" d="M 598.334732 269.28269 
L 599.599734 269.28269 
L 599.599734 256.798462 
L 598.334732 256.798462 
z
" style="fill:#96c69a;fill-opacity:0.5;stroke:#ffffff;stroke-linejoin:miter;stroke-width:1.248423;"/>
   </g>
   <g id="patch_49">
    <path clip-path="url(#pceb5e7a6e7)" d="M 598.334732 256.798462 
L 600.443069 256.798462 
L 600.443069 244.314234 
L 598.334732 244.314234 
z
" style="fill:#96c69a;fill-opacity:0.5;stroke:#ffffff;stroke-linejoin:miter;stroke-width:1.248423;"/>
   </g>
   <g id="patch_50">
    <path clip-path="url(#pceb5e7a6e7)" d="M 598.334732 244.314234 
L 600.864736 244.314234 
L 600.864736 231.830006 
L 598.334732 231.830006 
z
" style="fill:#96c69a;fill-opacity:0.5;stroke:#ffffff;stroke-linejoin:miter;stroke-width:1.248423;"/>
   </g>
   <g id="patch_51">
    <path clip-path="url(#pceb5e7a6e7)" d="M 598.334732 231.830006 
L 598.7564 231.830006 
L 598.7564 219.345778 
L 598.334732 219.345778 
z
" style="fill:#96c69a;fill-opacity:0.5;stroke:#ffffff;stroke-linejoin:miter;stroke-width:1.248423;"/>
   </g>
   <g id="patch_52">
    <path clip-path="url(#pceb5e7a6e7)" d="M 598.334732 219.345778 
L 600.021402 219.345778 
L 600.021402 206.86155 
L 598.334732 206.86155 
z
" style="fill:#96c69a;fill-opacity:0.5;stroke:#ffffff;stroke-linejoin:miter;stroke-width:1.248423;"/>
   </g>
   <g id="patch_53">
    <path clip-path="url(#pceb5e7a6e7)" d="M 598.334732 206.86155 
L 598.7564 206.86155 
L 598.7564 194.377322 
L 598.334732 194.377322 
z
" style="fill:#96c69a;fill-opacity:0.5;stroke:#ffffff;stroke-linejoin:miter;stroke-width:1.248423;"/>
   </g>
   <g id="patch_54">
    <path clip-path="url(#pceb5e7a6e7)" d="M 598.334732 194.377322 
L 599.178067 194.377322 
L 599.178067 181.893094 
L 598.334732 181.893094 
z
" style="fill:#96c69a;fill-opacity:0.5;stroke:#ffffff;stroke-linejoin:miter;stroke-width:1.248423;"/>
   </g>
   <g id="patch_55">
    <path clip-path="url(#pceb5e7a6e7)" d="M 598.334732 181.893094 
L 598.7564 181.893094 
L 598.7564 169.408866 
L 598.334732 169.408866 
z
" style="fill:#96c69a;fill-opacity:0.5;stroke:#ffffff;stroke-linejoin:miter;stroke-width:1.248423;"/>
   </g>
   <g id="patch_56">
    <path clip-path="url(#pceb5e7a6e7)" d="M 598.334732 169.408866 
L 599.178067 169.408866 
L 599.178067 156.924638 
L 598.334732 156.924638 
z
" style="fill:#96c69a;fill-opacity:0.5;stroke:#ffffff;stroke-linejoin:miter;stroke-width:1.248423;"/>
   </g>
   <g id="patch_57">
    <path clip-path="url(#pceb5e7a6e7)" d="M 598.334732 156.924638 
L 598.334732 156.924638 
L 598.334732 144.44041 
L 598.334732 144.44041 
z
" style="fill:#96c69a;fill-opacity:0.5;stroke:#ffffff;stroke-linejoin:miter;stroke-width:1.248423;"/>
   </g>
   <g id="patch_58">
    <path clip-path="url(#pceb5e7a6e7)" d="M 598.334732 144.44041 
L 598.7564 144.44041 
L 598.7564 131.956182 
L 598.334732 131.956182 
z
" style="fill:#96c69a;fill-opacity:0.5;stroke:#ffffff;stroke-linejoin:miter;stroke-width:1.248423;"/>
   </g>
   <g id="patch_59">
    <path d="M 598.334732 603.86 
L 598.334732 109.484571 
" style="fill:none;stroke:#262626;stroke-linecap:square;stroke-linejoin:miter;stroke-width:2.5;"/>
   </g>
   <g id="patch_60">
    <path d="M 598.334732 603.86 
L 681.571875 603.86 
" style="fill:none;stroke:#262626;stroke-linecap:square;stroke-linejoin:miter;stroke-width:2.5;"/>
   </g>
  </g>
 </g>
 <defs>
  <clipPath id="p0baf7dbf94">
   <rect height="494.375429" width="482.775429" x="98.911875" y="109.484571"/>
  </clipPath>
  <clipPath id="p0f23eaa1fa">
   <rect height="85.237143" width="482.775429" x="98.911875" y="7.2"/>
  </clipPath>
  <clipPath id="pceb5e7a6e7">
   <rect height="494.375429" width="83.237143" x="598.334732" y="109.484571"/>
  </clipPath>
 </defs>
</svg>
