<?xml version="1.0" encoding="utf-8" standalone="no"?>
<!DOCTYPE svg PUBLIC "-//W3C//DTD SVG 1.1//EN"
  "http://www.w3.org/Graphics/SVG/1.1/DTD/svg11.dtd">
<svg height="675.079375pt" version="1.1" viewBox="0 0 674.774375 675.079375" width="674.774375pt" xmlns="http://www.w3.org/2000/svg" xmlns:xlink="http://www.w3.org/1999/xlink">
 <metadata>
  <rdf:RDF xmlns:cc="http://creativecommons.org/ns#" xmlns:dc="http://purl.org/dc/elements/1.1/" xmlns:rdf="http://www.w3.org/1999/02/22-rdf-syntax-ns#">
   <cc:Work>
    <dc:type rdf:resource="http://purl.org/dc/dcmitype/StillImage"/>
    <dc:date>2021-07-16T21:43:52.204479</dc:date>
    <dc:format>image/svg+xml</dc:format>
    <dc:creator>
     <cc:Agent>
      <dc:title>Matplotlib v3.4.2, https://matplotlib.org/</dc:title>
     </cc:Agent>
    </dc:creator>
   </cc:Work>
  </rdf:RDF>
 </metadata>
 <defs>
  <style type="text/css">*{stroke-linecap:butt;stroke-linejoin:round;}</style>
 </defs>
 <g id="figure_1">
  <g id="patch_1">
   <path d="M 0 675.079375 
L 674.774375 675.079375 
L 674.774375 0 
L 0 0 
z
" style="fill:#ffffff;"/>
  </g>
  <g id="axes_1">
   <g id="patch_2">
    <path d="M 84.914375 603.86 
L 567.689804 603.86 
L 567.689804 109.484571 
L 84.914375 109.484571 
z
" style="fill:none;"/>
   </g>
   <g id="matplotlib.axis_1">
    <g id="xtick_1">
     <g id="text_1">
      <!-- 0 -->
      <g style="fill:#262626;" transform="translate(99.64041 636.076563)scale(0.22 -0.22)">
       <defs>
        <path d="M 2034 4250 
Q 1547 4250 1301 3770 
Q 1056 3291 1056 2328 
Q 1056 1369 1301 889 
Q 1547 409 2034 409 
Q 2525 409 2770 889 
Q 3016 1369 3016 2328 
Q 3016 3291 2770 3770 
Q 2525 4250 2034 4250 
z
M 2034 4750 
Q 2819 4750 3233 4129 
Q 3647 3509 3647 2328 
Q 3647 1150 3233 529 
Q 2819 -91 2034 -91 
Q 1250 -91 836 529 
Q 422 1150 422 2328 
Q 422 3509 836 4129 
Q 1250 4750 2034 4750 
z
" id="DejaVuSans-30" transform="scale(0.015625)"/>
       </defs>
       <use xlink:href="#DejaVuSans-30"/>
      </g>
     </g>
    </g>
    <g id="xtick_2">
     <g id="text_2">
      <!-- 20000 -->
      <g style="fill:#262626;" transform="translate(159.466671 636.076563)scale(0.22 -0.22)">
       <defs>
        <path d="M 1228 531 
L 3431 531 
L 3431 0 
L 469 0 
L 469 531 
Q 828 903 1448 1529 
Q 2069 2156 2228 2338 
Q 2531 2678 2651 2914 
Q 2772 3150 2772 3378 
Q 2772 3750 2511 3984 
Q 2250 4219 1831 4219 
Q 1534 4219 1204 4116 
Q 875 4013 500 3803 
L 500 4441 
Q 881 4594 1212 4672 
Q 1544 4750 1819 4750 
Q 2544 4750 2975 4387 
Q 3406 4025 3406 3419 
Q 3406 3131 3298 2873 
Q 3191 2616 2906 2266 
Q 2828 2175 2409 1742 
Q 1991 1309 1228 531 
z
" id="DejaVuSans-32" transform="scale(0.015625)"/>
       </defs>
       <use xlink:href="#DejaVuSans-32"/>
       <use x="63.623047" xlink:href="#DejaVuSans-30"/>
       <use x="127.246094" xlink:href="#DejaVuSans-30"/>
       <use x="190.869141" xlink:href="#DejaVuSans-30"/>
       <use x="254.492188" xlink:href="#DejaVuSans-30"/>
      </g>
     </g>
    </g>
    <g id="xtick_3">
     <g id="text_3">
      <!-- 40000 -->
      <g style="fill:#262626;" transform="translate(247.287932 636.076563)scale(0.22 -0.22)">
       <defs>
        <path d="M 2419 4116 
L 825 1625 
L 2419 1625 
L 2419 4116 
z
M 2253 4666 
L 3047 4666 
L 3047 1625 
L 3713 1625 
L 3713 1100 
L 3047 1100 
L 3047 0 
L 2419 0 
L 2419 1100 
L 313 1100 
L 313 1709 
L 2253 4666 
z
" id="DejaVuSans-34" transform="scale(0.015625)"/>
       </defs>
       <use xlink:href="#DejaVuSans-34"/>
       <use x="63.623047" xlink:href="#DejaVuSans-30"/>
       <use x="127.246094" xlink:href="#DejaVuSans-30"/>
       <use x="190.869141" xlink:href="#DejaVuSans-30"/>
       <use x="254.492188" xlink:href="#DejaVuSans-30"/>
      </g>
     </g>
    </g>
    <g id="xtick_4">
     <g id="text_4">
      <!-- 60000 -->
      <g style="fill:#262626;" transform="translate(335.109193 636.076563)scale(0.22 -0.22)">
       <defs>
        <path d="M 2113 2584 
Q 1688 2584 1439 2293 
Q 1191 2003 1191 1497 
Q 1191 994 1439 701 
Q 1688 409 2113 409 
Q 2538 409 2786 701 
Q 3034 994 3034 1497 
Q 3034 2003 2786 2293 
Q 2538 2584 2113 2584 
z
M 3366 4563 
L 3366 3988 
Q 3128 4100 2886 4159 
Q 2644 4219 2406 4219 
Q 1781 4219 1451 3797 
Q 1122 3375 1075 2522 
Q 1259 2794 1537 2939 
Q 1816 3084 2150 3084 
Q 2853 3084 3261 2657 
Q 3669 2231 3669 1497 
Q 3669 778 3244 343 
Q 2819 -91 2113 -91 
Q 1303 -91 875 529 
Q 447 1150 447 2328 
Q 447 3434 972 4092 
Q 1497 4750 2381 4750 
Q 2619 4750 2861 4703 
Q 3103 4656 3366 4563 
z
" id="DejaVuSans-36" transform="scale(0.015625)"/>
       </defs>
       <use xlink:href="#DejaVuSans-36"/>
       <use x="63.623047" xlink:href="#DejaVuSans-30"/>
       <use x="127.246094" xlink:href="#DejaVuSans-30"/>
       <use x="190.869141" xlink:href="#DejaVuSans-30"/>
       <use x="254.492188" xlink:href="#DejaVuSans-30"/>
      </g>
     </g>
    </g>
    <g id="xtick_5">
     <g id="text_5">
      <!-- 80000 -->
      <g style="fill:#262626;" transform="translate(422.930455 636.076563)scale(0.22 -0.22)">
       <defs>
        <path d="M 2034 2216 
Q 1584 2216 1326 1975 
Q 1069 1734 1069 1313 
Q 1069 891 1326 650 
Q 1584 409 2034 409 
Q 2484 409 2743 651 
Q 3003 894 3003 1313 
Q 3003 1734 2745 1975 
Q 2488 2216 2034 2216 
z
M 1403 2484 
Q 997 2584 770 2862 
Q 544 3141 544 3541 
Q 544 4100 942 4425 
Q 1341 4750 2034 4750 
Q 2731 4750 3128 4425 
Q 3525 4100 3525 3541 
Q 3525 3141 3298 2862 
Q 3072 2584 2669 2484 
Q 3125 2378 3379 2068 
Q 3634 1759 3634 1313 
Q 3634 634 3220 271 
Q 2806 -91 2034 -91 
Q 1263 -91 848 271 
Q 434 634 434 1313 
Q 434 1759 690 2068 
Q 947 2378 1403 2484 
z
M 1172 3481 
Q 1172 3119 1398 2916 
Q 1625 2713 2034 2713 
Q 2441 2713 2670 2916 
Q 2900 3119 2900 3481 
Q 2900 3844 2670 4047 
Q 2441 4250 2034 4250 
Q 1625 4250 1398 4047 
Q 1172 3844 1172 3481 
z
" id="DejaVuSans-38" transform="scale(0.015625)"/>
       </defs>
       <use xlink:href="#DejaVuSans-38"/>
       <use x="63.623047" xlink:href="#DejaVuSans-30"/>
       <use x="127.246094" xlink:href="#DejaVuSans-30"/>
       <use x="190.869141" xlink:href="#DejaVuSans-30"/>
       <use x="254.492188" xlink:href="#DejaVuSans-30"/>
      </g>
     </g>
    </g>
    <g id="xtick_6">
     <g id="text_6">
      <!-- 100000 -->
      <g style="fill:#262626;" transform="translate(503.752966 636.076563)scale(0.22 -0.22)">
       <defs>
        <path d="M 794 531 
L 1825 531 
L 1825 4091 
L 703 3866 
L 703 4441 
L 1819 4666 
L 2450 4666 
L 2450 531 
L 3481 531 
L 3481 0 
L 794 0 
L 794 531 
z
" id="DejaVuSans-31" transform="scale(0.015625)"/>
       </defs>
       <use xlink:href="#DejaVuSans-31"/>
       <use x="63.623047" xlink:href="#DejaVuSans-30"/>
       <use x="127.246094" xlink:href="#DejaVuSans-30"/>
       <use x="190.869141" xlink:href="#DejaVuSans-30"/>
       <use x="254.492188" xlink:href="#DejaVuSans-30"/>
       <use x="318.115234" xlink:href="#DejaVuSans-30"/>
      </g>
     </g>
    </g>
    <g id="text_7">
     <!-- MDTU -->
     <g style="fill:#262626;" transform="translate(290.596464 662.888125)scale(0.24 -0.24)">
      <defs>
       <path d="M 628 4666 
L 1569 4666 
L 2759 1491 
L 3956 4666 
L 4897 4666 
L 4897 0 
L 4281 0 
L 4281 4097 
L 3078 897 
L 2444 897 
L 1241 4097 
L 1241 0 
L 628 0 
L 628 4666 
z
" id="DejaVuSans-4d" transform="scale(0.015625)"/>
       <path d="M 1259 4147 
L 1259 519 
L 2022 519 
Q 2988 519 3436 956 
Q 3884 1394 3884 2338 
Q 3884 3275 3436 3711 
Q 2988 4147 2022 4147 
L 1259 4147 
z
M 628 4666 
L 1925 4666 
Q 3281 4666 3915 4102 
Q 4550 3538 4550 2338 
Q 4550 1131 3912 565 
Q 3275 0 1925 0 
L 628 0 
L 628 4666 
z
" id="DejaVuSans-44" transform="scale(0.015625)"/>
       <path d="M -19 4666 
L 3928 4666 
L 3928 4134 
L 2272 4134 
L 2272 0 
L 1638 0 
L 1638 4134 
L -19 4134 
L -19 4666 
z
" id="DejaVuSans-54" transform="scale(0.015625)"/>
       <path d="M 556 4666 
L 1191 4666 
L 1191 1831 
Q 1191 1081 1462 751 
Q 1734 422 2344 422 
Q 2950 422 3222 751 
Q 3494 1081 3494 1831 
L 3494 4666 
L 4128 4666 
L 4128 1753 
Q 4128 841 3676 375 
Q 3225 -91 2344 -91 
Q 1459 -91 1007 375 
Q 556 841 556 1753 
L 556 4666 
z
" id="DejaVuSans-55" transform="scale(0.015625)"/>
      </defs>
      <use xlink:href="#DejaVuSans-4d"/>
      <use x="86.279297" xlink:href="#DejaVuSans-44"/>
      <use x="163.28125" xlink:href="#DejaVuSans-54"/>
      <use x="224.365234" xlink:href="#DejaVuSans-55"/>
     </g>
    </g>
   </g>
   <g id="matplotlib.axis_2">
    <g id="ytick_1">
     <g id="text_8">
      <!-- 0.2 -->
      <g style="fill:#262626;" transform="translate(34.4275 597.605708)scale(0.22 -0.22)">
       <defs>
        <path d="M 684 794 
L 1344 794 
L 1344 0 
L 684 0 
L 684 794 
z
" id="DejaVuSans-2e" transform="scale(0.015625)"/>
       </defs>
       <use xlink:href="#DejaVuSans-30"/>
       <use x="63.623047" xlink:href="#DejaVuSans-2e"/>
       <use x="95.410156" xlink:href="#DejaVuSans-32"/>
      </g>
     </g>
    </g>
    <g id="ytick_2">
     <g id="text_9">
      <!-- 0.4 -->
      <g style="fill:#262626;" transform="translate(34.4275 539.353688)scale(0.22 -0.22)">
       <use xlink:href="#DejaVuSans-30"/>
       <use x="63.623047" xlink:href="#DejaVuSans-2e"/>
       <use x="95.410156" xlink:href="#DejaVuSans-34"/>
      </g>
     </g>
    </g>
    <g id="ytick_3">
     <g id="text_10">
      <!-- 0.6 -->
      <g style="fill:#262626;" transform="translate(34.4275 481.101669)scale(0.22 -0.22)">
       <use xlink:href="#DejaVuSans-30"/>
       <use x="63.623047" xlink:href="#DejaVuSans-2e"/>
       <use x="95.410156" xlink:href="#DejaVuSans-36"/>
      </g>
     </g>
    </g>
    <g id="ytick_4">
     <g id="text_11">
      <!-- 0.8 -->
      <g style="fill:#262626;" transform="translate(34.4275 422.849649)scale(0.22 -0.22)">
       <use xlink:href="#DejaVuSans-30"/>
       <use x="63.623047" xlink:href="#DejaVuSans-2e"/>
       <use x="95.410156" xlink:href="#DejaVuSans-38"/>
      </g>
     </g>
    </g>
    <g id="ytick_5">
     <g id="text_12">
      <!-- 1.0 -->
      <g style="fill:#262626;" transform="translate(34.4275 364.59763)scale(0.22 -0.22)">
       <use xlink:href="#DejaVuSans-31"/>
       <use x="63.623047" xlink:href="#DejaVuSans-2e"/>
       <use x="95.410156" xlink:href="#DejaVuSans-30"/>
      </g>
     </g>
    </g>
    <g id="ytick_6">
     <g id="text_13">
      <!-- 1.2 -->
      <g style="fill:#262626;" transform="translate(34.4275 306.34561)scale(0.22 -0.22)">
       <use xlink:href="#DejaVuSans-31"/>
       <use x="63.623047" xlink:href="#DejaVuSans-2e"/>
       <use x="95.410156" xlink:href="#DejaVuSans-32"/>
      </g>
     </g>
    </g>
    <g id="ytick_7">
     <g id="text_14">
      <!-- 1.4 -->
      <g style="fill:#262626;" transform="translate(34.4275 248.093591)scale(0.22 -0.22)">
       <use xlink:href="#DejaVuSans-31"/>
       <use x="63.623047" xlink:href="#DejaVuSans-2e"/>
       <use x="95.410156" xlink:href="#DejaVuSans-34"/>
      </g>
     </g>
    </g>
    <g id="ytick_8">
     <g id="text_15">
      <!-- 1.6 -->
      <g style="fill:#262626;" transform="translate(34.4275 189.841572)scale(0.22 -0.22)">
       <use xlink:href="#DejaVuSans-31"/>
       <use x="63.623047" xlink:href="#DejaVuSans-2e"/>
       <use x="95.410156" xlink:href="#DejaVuSans-36"/>
      </g>
     </g>
    </g>
    <g id="ytick_9">
     <g id="text_16">
      <!-- 1.8 -->
      <g style="fill:#262626;" transform="translate(34.4275 131.589552)scale(0.22 -0.22)">
       <use xlink:href="#DejaVuSans-31"/>
       <use x="63.623047" xlink:href="#DejaVuSans-2e"/>
       <use x="95.410156" xlink:href="#DejaVuSans-38"/>
      </g>
     </g>
    </g>
    <g id="text_17">
     <!-- $E$ -->
     <g style="fill:#262626;" transform="translate(25.43625 364.352286)rotate(-90)scale(0.24 -0.24)">
      <defs>
       <path d="M 1081 4666 
L 4031 4666 
L 3928 4134 
L 1606 4134 
L 1338 2753 
L 3566 2753 
L 3463 2222 
L 1234 2222 
L 909 531 
L 3284 531 
L 3181 0 
L 172 0 
L 1081 4666 
z
" id="DejaVuSans-Oblique-45" transform="scale(0.015625)"/>
      </defs>
      <use transform="translate(0 0.09375)" xlink:href="#DejaVuSans-Oblique-45"/>
     </g>
    </g>
   </g>
   <g id="line2d_1">
    <path clip-path="url(#p6753516329)" d="M 106.858713 302.938417 
L 107.078266 540.163878 
L 107.297819 501.496286 
L 107.517372 438.082116 
L 107.736925 476.130662 
L 107.956478 445.830635 
L 108.395585 507.631532 
L 108.615138 313.911014 
L 108.834691 421.127737 
L 109.054244 448.920951 
L 109.273797 299.718047 
L 109.493351 491.947839 
L 109.712904 491.187048 
L 109.932457 479.797325 
L 110.15201 489.492956 
L 110.371563 405.592847 
L 110.591116 380.504037 
L 110.810669 458.657731 
L 111.030223 423.448111 
L 111.249776 446.676805 
L 111.469329 567.159524 
L 111.688882 434.490088 
L 112.127988 367.976965 
L 112.347541 509.504418 
L 112.567095 318.073295 
L 112.786648 519.593186 
L 113.006201 516.530467 
L 113.225754 508.057671 
L 113.445307 407.103532 
L 113.66486 423.679404 
L 113.884414 374.791536 
L 114.103967 550.451278 
L 114.32352 452.747441 
L 114.543073 489.081389 
L 114.762626 554.844198 
L 114.982179 541.36153 
L 115.201732 375.546939 
L 115.421286 488.883499 
L 115.860392 396.012519 
L 116.519051 536.145767 
L 116.738605 437.973899 
L 116.958158 496.165345 
L 117.177711 245.12005 
L 117.397264 470.3779 
L 117.616817 378.880254 
L 117.83637 508.591754 
L 118.055923 427.390127 
L 118.275477 433.092338 
L 118.49503 453.699916 
L 118.714583 495.410677 
L 118.934136 482.740811 
L 119.153689 515.715463 
L 119.373242 518.846429 
L 119.592796 486.085947 
L 119.812349 540.293053 
L 120.031902 357.785819 
L 120.251455 529.133139 
L 120.471008 504.688357 
L 120.690561 541.413809 
L 120.910114 407.994626 
L 121.129668 446.390657 
L 121.349221 504.837664 
L 121.788327 411.941203 
L 122.00788 429.733561 
L 122.446987 511.649037 
L 122.66654 481.79096 
L 122.886093 521.434665 
L 123.105646 326.866191 
L 123.325199 404.115481 
L 123.544752 393.246964 
L 123.764305 349.562674 
L 123.983859 533.397011 
L 124.203412 452.862627 
L 124.422965 529.158852 
L 124.642518 562.943549 
L 125.081624 382.177192 
L 125.301178 416.183608 
L 125.740284 377.369335 
L 126.398943 529.276298 
L 126.618496 431.704253 
L 126.83805 385.978567 
L 127.057603 386.929753 
L 127.277156 507.072949 
L 127.496709 424.272243 
L 127.716262 537.655439 
L 127.935815 465.328868 
L 128.155369 351.598482 
L 128.374922 481.816907 
L 128.594475 534.626619 
L 128.814028 412.45699 
L 129.033581 439.850484 
L 129.253134 358.824872 
L 129.472687 462.830186 
L 129.692241 510.338276 
L 129.911794 464.609393 
L 130.131347 446.043088 
L 130.3509 441.768982 
L 130.570453 429.469487 
L 130.790006 502.796716 
L 131.00956 433.506437 
L 131.229113 528.778554 
L 131.448666 502.46574 
L 131.887772 351.216764 
L 132.107325 424.857819 
L 132.326878 561.338221 
L 132.546432 404.096082 
L 132.765985 527.227171 
L 132.985538 363.089712 
L 133.205091 434.838877 
L 133.424644 327.228806 
L 133.644197 517.419847 
L 133.863751 508.079308 
L 134.083304 467.354583 
L 134.302857 508.679498 
L 134.52241 491.734639 
L 134.961516 396.885592 
L 135.181069 448.942914 
L 135.400623 394.057738 
L 135.620176 367.373691 
L 135.839729 405.741633 
L 136.059282 229.033833 
L 136.278835 507.27054 
L 136.498388 529.870238 
L 136.717941 388.103278 
L 136.937495 482.926398 
L 137.157048 517.138032 
L 137.376601 433.005423 
L 137.596154 491.31276 
L 137.815707 490.383167 
L 138.03526 392.781709 
L 138.254814 509.758474 
L 138.474367 503.704645 
L 138.69392 488.536796 
L 139.572132 393.494377 
L 139.791686 495.344459 
L 140.011239 474.412866 
L 140.230792 385.58048 
L 140.450345 448.491794 
L 140.669898 465.055015 
L 140.889451 280.681123 
L 141.109005 452.320997 
L 141.328558 489.913952 
L 141.767664 411.952268 
L 141.987217 369.246993 
L 142.20677 533.470126 
L 142.426323 410.79321 
L 142.645877 482.369432 
L 142.86543 442.513012 
L 143.084983 457.981046 
L 143.304536 389.181608 
L 143.524089 485.115564 
L 143.743642 474.47709 
L 143.963196 513.42222 
L 144.182749 466.876324 
L 144.402302 491.108407 
L 144.841408 415.738283 
L 145.060961 537.094288 
L 145.280514 423.027957 
L 145.500068 438.427792 
L 145.719621 439.572338 
L 146.158727 549.346459 
L 146.37828 412.758046 
L 146.597833 443.128977 
L 147.03694 321.56565 
L 147.256493 550.723868 
L 147.476046 505.133825 
L 147.695599 275.72713 
L 147.915152 488.361418 
L 148.134705 552.067935 
L 148.354259 373.047589 
L 148.573812 525.438835 
L 148.793365 371.416306 
L 149.012918 497.572468 
L 149.232471 528.438717 
L 149.452024 434.799965 
L 149.671578 477.636214 
L 149.891131 481.016651 
L 150.110684 534.25506 
L 150.330237 425.054045 
L 150.54979 413.439254 
L 150.769343 455.403755 
L 150.988896 547.768064 
L 151.20845 470.073839 
L 151.428003 498.242302 
L 151.647556 402.51881 
L 151.867109 481.807652 
L 152.086662 442.266301 
L 152.306215 488.262876 
L 152.525769 454.454899 
L 152.745322 555.68269 
L 152.964875 467.118712 
L 153.184428 505.762874 
L 153.403981 469.740056 
L 153.623534 516.587074 
L 153.843087 455.627941 
L 154.062641 518.524896 
L 154.282194 493.052012 
L 154.501747 406.880339 
L 154.7213 489.736778 
L 154.940853 476.9693 
L 155.160406 498.958761 
L 155.37996 472.717715 
L 155.599513 420.211874 
L 155.819066 451.996416 
L 156.038619 530.338417 
L 156.258172 423.087843 
L 156.477725 535.076794 
L 156.697278 422.578484 
L 156.916832 478.713381 
L 157.136385 399.163399 
L 157.355938 480.048371 
L 157.575491 466.759105 
L 157.795044 379.473226 
L 158.014597 550.816718 
L 158.234151 380.877473 
L 158.453704 476.610608 
L 158.673257 444.05278 
L 158.89281 474.584999 
L 159.112363 431.600546 
L 159.551469 504.185797 
L 159.771023 500.433553 
L 159.990576 490.062565 
L 160.210129 387.795327 
L 160.429682 469.976905 
L 160.649235 431.515967 
L 160.868788 470.688892 
L 161.307895 323.391878 
L 161.747001 502.584646 
L 161.966554 447.093704 
L 162.186107 473.410695 
L 162.40566 514.802873 
L 162.625214 496.935849 
L 162.844767 380.252737 
L 163.06432 489.385356 
L 163.283873 483.964202 
L 163.503426 457.239498 
L 163.722979 450.20504 
L 163.942532 568.738428 
L 164.162086 453.151273 
L 164.381639 519.636493 
L 164.601192 379.913191 
L 164.820745 504.691336 
L 165.040298 333.006183 
L 165.259851 461.979232 
L 165.479405 334.104491 
L 165.698958 534.658639 
L 165.918511 417.467701 
L 166.138064 479.182692 
L 166.357617 504.410334 
L 166.57717 463.017439 
L 166.796723 507.803662 
L 167.016277 158.088048 
L 167.23583 401.187199 
L 167.455383 478.540424 
L 167.674936 442.414592 
L 168.333596 563.855761 
L 168.553149 467.044076 
L 168.772702 451.508544 
L 168.992255 396.830068 
L 169.211808 456.24505 
L 169.431361 480.2037 
L 169.650914 384.464426 
L 169.870468 516.925821 
L 170.090021 493.776158 
L 170.529127 381.851597 
L 170.74868 507.598687 
L 170.968233 373.711125 
L 171.187787 535.045712 
L 171.40734 384.372602 
L 171.626893 480.643586 
L 171.846446 332.956747 
L 172.065999 490.500193 
L 172.285552 337.10824 
L 172.505105 528.405212 
L 172.724659 477.01516 
L 172.944212 473.431308 
L 173.163765 481.142226 
L 173.383318 472.561114 
L 173.602871 227.484795 
L 174.041978 482.496011 
L 174.481084 407.720986 
L 174.700637 406.417989 
L 174.92019 440.801231 
L 175.139743 496.314071 
L 175.359296 515.531454 
L 175.57885 474.53229 
L 175.798403 471.718725 
L 176.017956 410.94129 
L 176.457062 470.924237 
L 176.676615 366.237847 
L 176.896169 479.71934 
L 177.115722 416.113971 
L 177.335275 494.742832 
L 177.554828 449.455432 
L 177.993934 534.685993 
L 178.213487 439.41696 
L 178.433041 459.799037 
L 178.652594 445.225152 
L 178.872147 454.012919 
L 179.0917 506.84911 
L 179.311253 396.7886 
L 179.530806 493.947755 
L 179.75036 541.463455 
L 179.969913 374.79091 
L 180.189466 559.173445 
L 180.409019 443.589383 
L 180.628572 391.704481 
L 180.848125 438.574063 
L 181.067678 438.192856 
L 181.287232 487.576398 
L 181.506785 383.94014 
L 181.726338 439.475736 
L 181.945891 371.111889 
L 182.165444 414.6504 
L 182.384997 417.144183 
L 182.604551 495.359381 
L 182.824104 465.263138 
L 183.043657 482.341354 
L 183.26321 533.549846 
L 183.482763 368.007447 
L 183.702316 522.161081 
L 183.921869 424.094515 
L 184.360976 495.125505 
L 184.580529 382.664443 
L 184.800082 449.4681 
L 185.019635 459.874826 
L 185.239188 375.982334 
L 185.458742 473.082158 
L 185.678295 292.15083 
L 185.897848 345.538518 
L 186.336954 500.360653 
L 186.556507 474.037384 
L 186.77606 475.508699 
L 186.995614 342.324955 
L 187.215167 468.62179 
L 187.654273 425.330301 
L 187.873826 519.890636 
L 188.093379 460.19881 
L 188.312932 465.545074 
L 188.532486 508.143338 
L 188.752039 374.989568 
L 188.971592 411.192384 
L 189.191145 423.977138 
L 189.630251 429.18191 
L 189.849805 457.019895 
L 190.069358 534.878401 
L 190.288911 509.722547 
L 190.508464 412.719069 
L 190.728017 398.797194 
L 191.167123 503.557318 
L 191.386677 371.963669 
L 191.60623 360.064245 
L 191.825783 471.351235 
L 192.045336 502.699774 
L 192.264889 492.529615 
L 192.484442 518.704002 
L 192.703996 432.126943 
L 192.923549 465.760093 
L 193.143102 521.017233 
L 193.362655 400.147817 
L 193.582208 513.440886 
L 193.801761 497.142842 
L 194.021314 519.420165 
L 194.240868 520.075873 
L 194.679974 508.348397 
L 194.899527 498.415704 
L 195.11908 438.680161 
L 195.338633 518.084559 
L 195.558187 457.08217 
L 195.77774 453.76482 
L 195.997293 429.072406 
L 196.216846 454.717907 
L 196.436399 332.160243 
L 196.655952 431.695045 
L 196.875505 465.665538 
L 197.095059 452.408905 
L 197.534165 529.118095 
L 197.753718 477.864258 
L 198.192824 440.714614 
L 198.412378 370.872232 
L 198.631931 506.669638 
L 198.851484 496.350728 
L 199.071037 431.608145 
L 199.29059 422.880298 
L 199.510143 381.550917 
L 199.729696 372.892391 
L 199.94925 481.93927 
L 200.168803 403.978056 
L 200.607909 341.359206 
L 200.827462 393.250588 
L 201.047015 513.142211 
L 201.266569 382.106134 
L 201.486122 510.058925 
L 201.705675 492.116253 
L 201.925228 388.708437 
L 202.144781 542.593615 
L 202.583887 457.144877 
L 202.803441 456.690191 
L 203.022994 464.117354 
L 203.242547 512.897077 
L 203.4621 475.317834 
L 203.681653 346.608471 
L 204.12076 523.422047 
L 204.340313 400.575979 
L 204.559866 529.006139 
L 204.779419 536.302817 
L 204.998972 333.843468 
L 205.438078 475.272684 
L 205.657632 448.560678 
L 205.877185 491.552901 
L 206.316291 400.972619 
L 206.535844 499.701422 
L 206.974951 481.683798 
L 207.194504 459.235641 
L 207.414057 451.860864 
L 207.63361 496.103496 
L 207.853163 471.394429 
L 208.072716 332.224616 
L 208.292269 481.707688 
L 208.511823 547.181021 
L 208.950929 373.788003 
L 209.170482 467.336138 
L 209.609588 346.675455 
L 210.048695 453.713432 
L 210.268248 508.481959 
L 210.487801 453.367474 
L 210.707354 495.412318 
L 210.926907 440.248632 
L 211.14646 487.149441 
L 211.366014 576.885809 
L 211.585567 444.243539 
L 211.80512 525.683727 
L 212.024673 360.487879 
L 212.244226 484.446494 
L 212.463779 504.713888 
L 212.683333 427.069064 
L 212.902886 544.428977 
L 213.122439 500.935634 
L 213.341992 524.107007 
L 213.561545 400.45635 
L 213.781098 555.436281 
L 214.000651 334.581456 
L 214.220205 481.321066 
L 214.439758 379.73545 
L 214.659311 568.394111 
L 214.878864 385.292858 
L 215.098417 381.533434 
L 215.31797 418.486317 
L 215.537523 543.970483 
L 215.757077 447.512398 
L 215.97663 401.884647 
L 216.196183 431.671326 
L 216.635289 578.416927 
L 216.854842 371.372569 
L 217.293949 545.800034 
L 217.513502 379.900084 
L 217.733055 379.661288 
L 217.952608 488.528645 
L 218.172161 472.012754 
L 218.391714 504.386288 
L 218.611268 506.019635 
L 218.830821 554.819612 
L 219.050374 416.342493 
L 219.269927 430.432358 
L 219.48948 513.068648 
L 219.709033 366.095718 
L 219.928587 487.519459 
L 220.14814 526.468462 
L 220.367693 484.651265 
L 220.587246 477.928186 
L 220.806799 422.800069 
L 221.026352 439.088616 
L 221.245905 353.106677 
L 221.685012 541.087414 
L 221.904565 541.012951 
L 222.343671 338.712933 
L 222.563224 423.039031 
L 223.002331 485.701227 
L 223.441437 370.523369 
L 223.66099 492.230727 
L 223.880543 535.441619 
L 224.100096 428.422924 
L 224.31965 429.702621 
L 224.539203 392.614033 
L 224.758756 495.231343 
L 224.978309 438.236907 
L 225.197862 421.99641 
L 225.417415 435.972192 
L 225.636969 546.161918 
L 225.856522 515.420621 
L 226.076075 548.271687 
L 226.295628 458.665737 
L 226.515181 512.68873 
L 226.734734 515.472923 
L 226.954287 356.046254 
L 227.173841 489.992813 
L 227.393394 475.673062 
L 227.612947 398.997728 
L 227.8325 492.668019 
L 228.052053 528.61605 
L 228.49116 443.086378 
L 228.710713 401.260923 
L 228.930266 413.622687 
L 229.149819 511.46866 
L 229.369372 300.105901 
L 229.588925 367.747891 
L 229.808478 515.6014 
L 230.028032 501.192664 
L 230.247585 458.267201 
L 230.467138 473.458075 
L 230.906244 349.290846 
L 231.125797 506.982206 
L 231.345351 495.289105 
L 231.564904 383.947043 
L 231.784457 469.173144 
L 232.00401 460.648898 
L 232.223563 392.618014 
L 232.443116 532.452468 
L 232.662669 402.932916 
L 232.882223 552.29783 
L 233.101776 473.445445 
L 233.321329 447.498468 
L 233.540882 475.794044 
L 233.760435 447.182492 
L 233.979988 503.445204 
L 234.199542 431.975877 
L 234.419095 436.726489 
L 234.638648 495.997986 
L 234.858201 463.833749 
L 235.077754 503.329369 
L 235.297307 374.674302 
L 235.736414 509.887693 
L 235.955967 512.339342 
L 236.17552 512.662002 
L 236.395073 384.305483 
L 236.614626 524.365318 
L 236.834179 527.319654 
L 237.053733 534.98269 
L 237.273286 479.580518 
L 237.492839 539.735001 
L 237.712392 516.164378 
L 237.931945 273.474714 
L 238.151498 487.872442 
L 238.371051 466.444375 
L 238.590605 520.402273 
L 238.810158 529.425848 
L 239.029711 440.107246 
L 239.249264 501.885729 
L 239.468817 464.969259 
L 239.68837 404.855949 
L 239.907924 515.564135 
L 240.127477 425.097096 
L 240.34703 493.978897 
L 240.786136 548.540063 
L 241.005689 471.568868 
L 241.225242 467.060235 
L 241.444796 448.938022 
L 241.664349 418.41544 
L 241.883902 476.354968 
L 242.323008 381.752743 
L 242.762114 510.645012 
L 242.981668 489.407527 
L 243.201221 502.701762 
L 243.420774 376.29542 
L 243.640327 423.889742 
L 243.85988 429.134711 
L 244.079433 427.49667 
L 244.298987 437.900559 
L 244.51854 428.811249 
L 244.738093 502.856872 
L 244.957646 465.292233 
L 245.177199 402.517203 
L 245.396752 179.959849 
L 245.616305 441.698068 
L 246.055412 502.925317 
L 246.494518 376.776162 
L 246.714071 482.008324 
L 246.933624 423.633617 
L 247.153178 576.786243 
L 247.372731 402.002697 
L 247.592284 545.804751 
L 247.811837 359.414287 
L 248.03139 520.129582 
L 248.470496 418.086354 
L 248.69005 399.776211 
L 248.909603 287.683415 
L 249.129156 441.871788 
L 249.348709 441.669997 
L 249.568262 390.058995 
L 249.787815 519.737454 
L 250.007369 540.049606 
L 250.226922 464.143675 
L 250.446475 443.698712 
L 250.666028 566.881071 
L 250.885581 472.835066 
L 251.105134 515.74732 
L 251.324687 154.686969 
L 251.544241 562.315991 
L 251.763794 450.215387 
L 251.983347 408.861916 
L 252.2029 508.639511 
L 252.422453 442.932984 
L 252.642006 574.701709 
L 252.86156 479.946572 
L 253.081113 492.272601 
L 253.300666 469.552878 
L 253.520219 495.006492 
L 253.739772 482.801365 
L 253.959325 537.633046 
L 254.178878 512.978353 
L 254.398432 544.366014 
L 254.617985 505.82315 
L 254.837538 414.253615 
L 255.276644 464.89137 
L 255.496197 340.392147 
L 255.715751 491.134614 
L 255.935304 531.344956 
L 256.154857 496.83848 
L 256.37441 487.336431 
L 256.593963 471.812829 
L 256.813516 382.349123 
L 257.252623 547.75858 
L 257.472176 433.332659 
L 257.691729 396.847726 
L 258.130835 483.689761 
L 258.350388 485.598791 
L 258.569942 421.624685 
L 258.789495 507.654318 
L 259.009048 443.790167 
L 259.228601 476.153478 
L 259.448154 458.312997 
L 259.667707 518.892342 
L 259.88726 530.716315 
L 260.106814 267.944006 
L 260.326367 457.571905 
L 260.54592 477.249501 
L 260.765473 379.104061 
L 260.985026 506.38656 
L 261.204579 501.717994 
L 261.424133 280.734136 
L 261.643686 413.946882 
L 261.863239 428.320765 
L 262.082792 478.585527 
L 262.302345 323.735709 
L 262.741451 497.852416 
L 262.961005 446.368305 
L 263.180558 254.499031 
L 263.400111 420.787745 
L 263.619664 456.070921 
L 263.839217 471.548005 
L 264.05877 464.916984 
L 264.278324 453.314842 
L 264.497877 495.799971 
L 264.71743 459.844229 
L 264.936983 377.387586 
L 265.156536 442.928602 
L 265.376089 413.97654 
L 265.595642 488.348403 
L 265.815196 335.830578 
L 266.034749 464.883085 
L 266.254302 439.224258 
L 266.473855 431.388313 
L 266.693408 367.815574 
L 266.912961 459.70152 
L 267.132514 417.302336 
L 267.571621 529.801795 
L 267.791174 414.239519 
L 268.010727 460.866178 
L 268.23028 476.602142 
L 268.449833 428.59182 
L 268.669387 417.397736 
L 269.108493 509.867533 
L 269.328046 487.048027 
L 269.547599 399.797258 
L 269.767152 498.609909 
L 269.986705 539.840801 
L 270.206259 384.313926 
L 270.425812 386.538994 
L 270.645365 522.305817 
L 270.864918 432.977172 
L 271.304024 478.673667 
L 271.523578 497.186838 
L 271.743131 460.362367 
L 272.182237 515.833086 
L 272.40179 446.157418 
L 272.621343 477.628997 
L 272.840896 527.587068 
L 273.06045 532.322427 
L 273.280003 492.376814 
L 273.499556 482.561828 
L 273.719109 377.719834 
L 273.938662 391.220327 
L 274.158215 396.717001 
L 274.597322 500.154194 
L 274.816875 461.116404 
L 275.036428 472.088116 
L 275.255981 541.44232 
L 275.475534 441.257989 
L 275.695087 414.642118 
L 275.914641 492.405716 
L 276.134194 492.101095 
L 276.353747 470.759728 
L 276.5733 370.604642 
L 276.792853 452.675521 
L 277.012406 417.939434 
L 277.23196 515.619148 
L 277.451513 540.821741 
L 277.671066 477.343254 
L 277.890619 309.41027 
L 278.110172 465.011354 
L 278.329725 530.268791 
L 278.549278 545.448543 
L 278.768832 337.332163 
L 278.988385 488.18544 
L 279.207938 319.71128 
L 279.427491 391.697159 
L 279.647044 514.319402 
L 280.086151 447.994148 
L 280.305704 435.324402 
L 280.525257 384.005043 
L 280.74481 539.049932 
L 280.964363 288.358762 
L 281.183916 506.181648 
L 281.403469 467.429323 
L 281.623023 402.40103 
L 281.842576 378.26498 
L 282.062129 462.044646 
L 282.281682 425.740923 
L 282.501235 433.770977 
L 282.720788 492.656965 
L 282.940342 437.789801 
L 283.159895 413.760768 
L 283.379448 425.218427 
L 283.599001 376.116655 
L 283.818554 468.052598 
L 284.038107 483.775987 
L 284.25766 395.747332 
L 284.696767 490.735086 
L 284.91632 465.455328 
L 285.135873 510.56864 
L 285.574979 427.004703 
L 285.794533 427.212089 
L 286.014086 399.690224 
L 286.453192 532.129789 
L 286.672745 480.507315 
L 286.892298 456.220809 
L 287.111851 360.748978 
L 287.331405 447.129194 
L 287.550958 439.518408 
L 287.770511 491.035545 
L 287.990064 455.640511 
L 288.209617 523.730577 
L 288.42917 513.552312 
L 288.648724 363.887656 
L 288.868277 482.033799 
L 289.08783 362.888607 
L 289.526936 390.053381 
L 289.746489 496.098654 
L 289.966042 450.207781 
L 290.405149 503.038472 
L 290.624702 463.480886 
L 290.844255 520.428442 
L 291.063808 499.339118 
L 291.283361 494.796002 
L 291.502915 456.799168 
L 291.722468 346.90237 
L 291.942021 375.727671 
L 292.161574 455.496896 
L 292.381127 456.081771 
L 292.60068 425.759622 
L 292.820233 367.626155 
L 293.039787 473.812321 
L 293.25934 297.600855 
L 293.478893 537.453094 
L 293.698446 462.533495 
L 293.917999 338.889934 
L 294.137552 466.50098 
L 294.357105 444.378324 
L 294.796212 579.55897 
L 295.015765 470.963046 
L 295.454871 404.997654 
L 295.674424 455.879342 
L 295.893978 404.364378 
L 296.113531 470.575288 
L 296.333084 424.350466 
L 296.552637 525.521293 
L 296.77219 518.174349 
L 296.991743 457.409546 
L 297.211296 461.806189 
L 297.43085 457.492682 
L 297.650403 505.196901 
L 298.089509 383.454276 
L 298.309062 451.695305 
L 298.528615 443.123578 
L 298.748169 517.563928 
L 298.967722 492.098347 
L 299.187275 345.449149 
L 299.406828 479.650339 
L 299.626381 444.765552 
L 299.845934 522.007247 
L 300.065487 432.34345 
L 300.504594 482.486784 
L 300.724147 520.419696 
L 300.9437 489.049735 
L 301.163253 474.043708 
L 301.382806 421.238565 
L 301.60236 535.123688 
L 301.821913 413.53001 
L 302.261019 528.163776 
L 302.480572 507.667673 
L 302.700125 524.703687 
L 302.919678 454.939497 
L 303.139232 445.390477 
L 303.358785 537.614295 
L 303.578338 503.373775 
L 303.797891 501.893989 
L 304.017444 385.311103 
L 304.236997 544.54617 
L 304.456551 496.38651 
L 304.676104 474.780171 
L 304.895657 322.069562 
L 305.11521 463.93205 
L 305.334763 490.671847 
L 305.554316 420.930108 
L 305.773869 556.443148 
L 305.993423 477.687985 
L 306.212976 469.198467 
L 306.432529 359.342213 
L 306.652082 496.380133 
L 306.871635 478.355965 
L 307.091188 555.716046 
L 307.310742 388.94649 
L 307.530295 446.111477 
L 307.749848 367.678664 
L 307.969401 521.890685 
L 308.188954 344.40212 
L 308.408507 523.958428 
L 308.847614 399.034761 
L 309.067167 423.549111 
L 309.28672 425.43505 
L 309.506273 480.98011 
L 309.725826 434.063586 
L 309.945379 326.388052 
L 310.164933 513.911257 
L 310.384486 445.067032 
L 310.604039 423.139198 
L 310.823592 504.353882 
L 311.043145 355.712411 
L 311.262698 358.678794 
L 311.482251 466.57482 
L 311.701805 421.515438 
L 312.140911 506.299895 
L 312.360464 489.556618 
L 312.79957 513.836108 
L 313.019124 420.93692 
L 313.238677 437.648406 
L 313.45823 414.261099 
L 313.677783 437.856762 
L 313.897336 381.564356 
L 314.116889 408.813792 
L 314.555996 523.435268 
L 314.775549 569.866392 
L 314.995102 542.907068 
L 315.214655 488.731264 
L 315.434208 516.991293 
L 315.653761 527.588499 
L 315.873315 501.978436 
L 316.312421 390.055473 
L 316.531974 373.200476 
L 316.751527 342.371355 
L 316.97108 420.304913 
L 317.190633 418.433402 
L 317.410187 454.57709 
L 317.62974 434.958289 
L 317.849293 384.3539 
L 318.068846 512.929318 
L 318.727506 443.255196 
L 318.947059 508.443871 
L 319.166612 535.259201 
L 319.386165 346.862254 
L 319.605718 424.513465 
L 319.825271 425.509926 
L 320.044824 492.381461 
L 320.264378 516.089501 
L 320.483931 515.38292 
L 320.703484 444.574516 
L 320.923037 473.401592 
L 321.14259 520.724942 
L 321.362143 433.968183 
L 321.581696 473.93186 
L 321.80125 439.727445 
L 322.020803 458.409313 
L 322.459909 378.234608 
L 322.679462 316.260906 
L 322.899015 531.280687 
L 323.118569 510.624245 
L 323.338122 424.719701 
L 323.557675 131.956182 
L 323.777228 487.409075 
L 323.996781 429.046318 
L 324.435887 510.459139 
L 324.655441 533.238253 
L 324.874994 414.968845 
L 325.094547 465.948297 
L 325.3141 410.137801 
L 325.533653 492.769681 
L 325.753206 408.348714 
L 325.97276 389.162903 
L 326.192313 505.646693 
L 326.411866 455.230843 
L 326.631419 363.708238 
L 326.850972 383.383807 
L 327.070525 331.514431 
L 327.290078 469.888262 
L 327.509632 514.479045 
L 327.729185 482.200536 
L 327.948738 425.510912 
L 328.168291 496.927639 
L 328.387844 491.185839 
L 328.607397 414.174067 
L 328.826951 411.645207 
L 329.046504 510.579154 
L 329.266057 375.060767 
L 329.48561 474.615616 
L 329.705163 432.337201 
L 329.924716 433.590022 
L 330.144269 425.410226 
L 330.363823 426.929878 
L 330.583376 510.813139 
L 330.802929 423.361158 
L 331.022482 228.041739 
L 331.242035 502.793 
L 331.461588 270.684665 
L 331.681142 467.360327 
L 331.900695 520.638841 
L 332.339801 459.440673 
L 332.559354 470.279473 
L 332.778907 381.212987 
L 332.99846 562.665066 
L 333.218014 486.814329 
L 333.437567 468.717723 
L 333.65712 546.054592 
L 333.876673 478.792484 
L 334.096226 505.298038 
L 334.535333 399.838915 
L 334.754886 530.019207 
L 334.974439 534.472067 
L 335.193992 470.175325 
L 335.413545 472.753025 
L 335.633098 460.10968 
L 335.852651 525.550164 
L 336.072205 506.603727 
L 336.511311 398.854514 
L 336.730864 454.581041 
L 337.16997 388.141048 
L 337.389524 487.618619 
L 337.609077 431.129988 
L 337.82863 493.009692 
L 338.048183 511.407448 
L 338.267736 381.207883 
L 338.706842 488.996155 
L 339.145949 441.716152 
L 339.365502 550.815365 
L 339.585055 530.309695 
L 339.804608 405.860637 
L 340.024161 446.775983 
L 340.243715 385.655288 
L 340.463268 224.773321 
L 340.682821 503.71965 
L 340.902374 361.617588 
L 341.121927 365.998499 
L 341.34148 484.121183 
L 341.561033 474.490669 
L 341.780587 409.081264 
L 342.00014 486.187558 
L 342.219693 403.995508 
L 342.439246 500.717339 
L 342.658799 534.659651 
L 342.878352 503.719195 
L 343.097906 546.201409 
L 343.317459 506.994523 
L 343.537012 500.228568 
L 343.756565 421.790316 
L 344.195671 514.194096 
L 344.415224 458.605354 
L 344.634778 517.564592 
L 344.854331 404.5336 
L 345.073884 499.912861 
L 345.293437 510.629439 
L 345.51299 506.48913 
L 345.732543 429.326471 
L 346.17165 516.386529 
L 346.391203 227.801654 
L 346.610756 501.611296 
L 346.830309 452.24299 
L 347.049862 357.510243 
L 347.269415 449.213707 
L 347.488969 473.089363 
L 347.708522 481.365613 
L 347.928075 476.835458 
L 348.367181 407.331128 
L 348.586734 529.262247 
L 348.806287 548.081609 
L 349.025841 398.455293 
L 349.245394 514.017932 
L 349.464947 510.282372 
L 349.6845 463.607274 
L 349.904053 457.594328 
L 350.123606 436.419678 
L 350.34316 494.086414 
L 350.562713 455.690325 
L 350.782266 526.101267 
L 351.001819 519.690039 
L 351.221372 502.221653 
L 351.440925 409.93117 
L 351.660478 454.126313 
L 351.880032 521.925325 
L 352.099585 491.954342 
L 352.319138 426.989865 
L 352.538691 520.739454 
L 352.758244 451.999256 
L 352.977797 557.896524 
L 353.197351 477.887883 
L 353.416904 441.615812 
L 353.636457 444.568565 
L 353.85601 518.158491 
L 354.075563 430.05375 
L 354.295116 505.448743 
L 354.734223 312.51571 
L 354.953776 448.813585 
L 355.173329 453.422871 
L 355.392882 488.265531 
L 355.612435 483.504317 
L 355.831988 501.296357 
L 356.051542 534.976658 
L 356.271095 428.280694 
L 356.490648 451.582458 
L 356.710201 390.148036 
L 356.929754 451.594615 
L 357.149307 453.65536 
L 357.36886 462.080334 
L 357.588414 509.287488 
L 357.807967 443.470841 
L 358.02752 464.300251 
L 358.247073 441.60212 
L 358.466626 511.265657 
L 358.686179 514.588304 
L 358.905733 291.830866 
L 359.125286 468.31279 
L 359.344839 440.652 
L 359.564392 438.887515 
L 359.783945 480.732727 
L 360.003498 564.771312 
L 360.223051 473.143819 
L 360.442605 467.856032 
L 360.662158 323.412315 
L 360.881711 548.567175 
L 361.101264 463.282908 
L 361.320817 426.840527 
L 361.54037 447.245137 
L 361.759924 426.762781 
L 361.979477 467.686988 
L 362.19903 462.554647 
L 362.418583 494.313708 
L 362.638136 296.652857 
L 363.077242 511.599725 
L 363.296796 422.155058 
L 363.516349 389.205567 
L 363.735902 478.154918 
L 363.955455 514.208953 
L 364.175008 446.695309 
L 364.394561 487.0221 
L 364.614115 455.565963 
L 365.272774 524.855631 
L 365.492327 467.170303 
L 365.71188 469.893982 
L 365.931433 530.208263 
L 366.150987 430.097502 
L 366.37054 524.766887 
L 366.590093 471.002891 
L 366.809646 452.517181 
L 367.029199 356.782928 
L 367.248752 467.400592 
L 367.468306 455.064214 
L 367.907412 490.974336 
L 368.126965 521.51368 
L 368.346518 487.136026 
L 368.566071 528.786173 
L 368.785624 428.470242 
L 369.224731 539.510792 
L 369.444284 429.730733 
L 369.663837 508.329384 
L 369.88339 515.070123 
L 370.102943 433.885944 
L 370.322497 465.606149 
L 370.54205 551.492307 
L 370.761603 474.490453 
L 370.981156 509.456252 
L 371.420262 369.706042 
L 371.639815 466.773439 
L 371.859369 454.054634 
L 372.078922 376.531921 
L 372.298475 485.239605 
L 372.518028 535.037019 
L 372.737581 541.136144 
L 372.957134 508.335731 
L 373.176687 428.822193 
L 373.396241 475.803107 
L 373.615794 496.11548 
L 373.835347 413.947093 
L 374.0549 490.086341 
L 374.274453 508.035622 
L 374.71356 484.535899 
L 374.933113 500.044005 
L 375.152666 561.381152 
L 375.372219 514.188766 
L 375.591772 394.806488 
L 375.811325 484.856004 
L 376.030878 499.927684 
L 376.250432 473.558979 
L 376.689538 496.535968 
L 376.909091 486.631834 
L 377.128644 378.221203 
L 377.348197 407.441545 
L 377.567751 484.124129 
L 377.787304 289.884094 
L 378.006857 349.460741 
L 378.22641 522.300132 
L 378.445963 261.093319 
L 378.665516 471.600584 
L 378.885069 476.182011 
L 379.104623 512.872418 
L 379.324176 483.538475 
L 379.543729 383.738255 
L 379.763282 485.654877 
L 380.202388 233.412854 
L 380.421942 462.930501 
L 380.641495 357.62982 
L 381.080601 508.587941 
L 381.300154 311.651427 
L 381.519707 551.53661 
L 381.958814 365.861671 
L 382.178367 442.070829 
L 382.39792 448.801071 
L 382.617473 400.826442 
L 382.837026 504.827841 
L 383.056579 434.623 
L 383.276133 418.749258 
L 383.495686 355.482837 
L 383.715239 428.270339 
L 383.934792 411.519274 
L 384.154345 383.233558 
L 384.373898 531.869962 
L 384.813005 390.090882 
L 385.032558 527.746949 
L 385.252111 347.49342 
L 385.471664 470.642177 
L 385.691217 507.696864 
L 385.91077 518.936645 
L 386.349877 461.678005 
L 386.56943 521.533009 
L 386.788983 468.068691 
L 387.008536 459.163267 
L 387.228089 476.109011 
L 387.447642 470.483783 
L 387.667196 420.95787 
L 387.886749 475.050097 
L 388.106302 453.025854 
L 388.325855 557.164767 
L 388.545408 475.153945 
L 388.764961 517.224409 
L 388.984515 478.853446 
L 389.204068 391.267233 
L 389.423621 458.457961 
L 389.643174 447.316594 
L 389.862727 521.131675 
L 390.08228 400.883291 
L 390.301833 538.869374 
L 390.521387 491.324408 
L 390.74094 489.080803 
L 390.960493 493.844809 
L 391.180046 407.661859 
L 391.619152 506.418456 
L 391.838706 407.020248 
L 392.058259 412.4193 
L 392.277812 435.165602 
L 392.497365 518.933653 
L 392.716918 528.568673 
L 392.936471 364.385769 
L 393.156024 429.902693 
L 393.375578 364.066829 
L 393.595131 378.536404 
L 393.814684 372.768426 
L 394.034237 411.314817 
L 394.25379 523.643532 
L 394.473343 467.319834 
L 394.692897 468.869427 
L 394.91245 492.290469 
L 395.132003 486.435857 
L 395.351556 471.170118 
L 395.571109 522.963041 
L 395.790662 436.519521 
L 396.010215 483.573335 
L 396.229769 422.315156 
L 396.449322 476.735041 
L 396.668875 407.800081 
L 396.888428 476.658619 
L 397.107981 491.48264 
L 397.327534 482.395733 
L 397.547087 457.757344 
L 397.766641 526.893808 
L 397.986194 450.816087 
L 398.205747 444.655417 
L 398.4253 488.970595 
L 398.644853 357.796688 
L 398.864406 473.883012 
L 399.08396 411.94032 
L 399.303513 457.424106 
L 399.523066 363.893576 
L 399.742619 363.098987 
L 399.962172 484.944312 
L 400.181725 448.762475 
L 400.401278 376.635392 
L 400.620832 464.297857 
L 400.840385 459.802149 
L 401.059938 469.093265 
L 401.279491 444.031809 
L 401.499044 489.570538 
L 401.938151 386.265719 
L 402.157704 575.386096 
L 402.377257 495.653075 
L 402.59681 206.943292 
L 402.816363 474.388099 
L 403.035916 430.99663 
L 403.255469 460.174121 
L 403.475023 386.826616 
L 403.694576 430.928189 
L 403.914129 514.484128 
L 404.133682 475.549156 
L 404.353235 479.175895 
L 404.572788 371.905597 
L 404.792342 464.14483 
L 405.011895 378.540499 
L 405.451001 480.481265 
L 405.670554 415.537394 
L 405.890107 404.428689 
L 406.10966 405.995752 
L 406.329214 396.301216 
L 406.548767 502.546778 
L 406.76832 498.341093 
L 406.987873 375.285201 
L 407.207426 442.927478 
L 407.646533 482.315826 
L 407.866086 439.57601 
L 408.085639 519.603572 
L 408.524745 456.028019 
L 408.744298 373.712246 
L 408.963851 453.395678 
L 409.183405 485.140919 
L 409.402958 471.574482 
L 409.622511 403.485465 
L 409.842064 505.53396 
L 410.061617 458.261442 
L 410.28117 441.652857 
L 410.720277 461.605626 
L 411.159383 420.909241 
L 411.378936 498.087956 
L 411.598489 489.100226 
L 411.818042 516.679745 
L 412.037596 416.81945 
L 412.257149 406.889893 
L 412.476702 432.923331 
L 412.696255 434.738535 
L 413.135361 468.826634 
L 413.354915 452.621803 
L 413.574468 518.820213 
L 413.794021 439.148573 
L 414.013574 525.493055 
L 414.233127 461.143254 
L 414.45268 455.0245 
L 414.672233 346.543776 
L 415.11134 543.968315 
L 415.330893 542.910352 
L 415.550446 540.550949 
L 415.989552 457.77704 
L 416.209106 469.011513 
L 416.428659 403.2341 
L 416.648212 410.763172 
L 416.867765 450.384409 
L 417.087318 435.551146 
L 417.306871 536.478778 
L 417.526424 517.157693 
L 417.745978 524.117303 
L 417.965531 460.427236 
L 418.185084 489.028525 
L 418.404637 368.52308 
L 418.62419 417.642949 
L 418.843743 501.293078 
L 419.063297 508.923105 
L 419.28285 538.265804 
L 419.502403 344.921069 
L 419.721956 438.452274 
L 419.941509 320.223094 
L 420.161062 484.174689 
L 420.380615 510.001878 
L 420.600169 458.409202 
L 420.819722 503.917037 
L 421.039275 447.842476 
L 421.478381 526.952379 
L 421.697934 356.327256 
L 421.917488 416.931558 
L 422.137041 561.032316 
L 422.356594 489.326842 
L 422.576147 479.690268 
L 423.015253 504.896935 
L 423.234806 454.682444 
L 423.673913 513.453483 
L 423.893466 364.866219 
L 424.113019 354.378357 
L 424.332572 539.44806 
L 424.552125 495.310294 
L 424.771678 287.474845 
L 424.991232 485.64604 
L 425.210785 450.848553 
L 425.430338 445.98645 
L 425.649891 520.64648 
L 425.869444 340.073055 
L 426.088997 475.988653 
L 426.308551 497.850393 
L 426.747657 363.528823 
L 426.96721 533.777799 
L 427.186763 461.351152 
L 427.845423 354.240293 
L 428.064976 491.577405 
L 428.284529 487.477706 
L 428.504082 238.359642 
L 428.723635 524.773786 
L 428.943188 449.270158 
L 429.162742 433.912357 
L 429.382295 499.910947 
L 429.601848 458.726707 
L 429.821401 454.590705 
L 430.040954 431.286423 
L 430.260507 265.078314 
L 430.48006 488.376935 
L 430.699614 530.566392 
L 430.919167 386.575608 
L 431.13872 426.596114 
L 431.358273 403.416705 
L 431.577826 511.46146 
L 431.797379 320.542047 
L 432.016933 504.037938 
L 432.236486 517.824052 
L 432.456039 416.275002 
L 432.675592 375.975277 
L 432.895145 530.551197 
L 433.114698 463.477205 
L 433.334251 459.750708 
L 433.773358 365.175494 
L 433.992911 472.296728 
L 434.212464 523.852713 
L 434.871124 371.637795 
L 435.090677 400.369839 
L 435.31023 489.584214 
L 435.529783 318.15681 
L 435.749336 488.348278 
L 435.968889 497.35502 
L 436.407996 433.814403 
L 436.627549 213.468829 
L 436.847102 548.950623 
L 437.066655 471.971784 
L 437.286208 352.634603 
L 437.725315 471.138411 
L 437.944868 516.852518 
L 438.164421 479.347636 
L 438.383974 495.590907 
L 438.603527 497.049769 
L 438.82308 409.102685 
L 439.042633 503.310036 
L 439.262187 365.969159 
L 439.48174 369.549264 
L 439.701293 387.706914 
L 439.920846 511.604631 
L 440.140399 461.861821 
L 440.359952 490.805443 
L 440.579506 404.129719 
L 440.799059 481.084192 
L 441.018612 414.10314 
L 441.238165 508.284335 
L 441.457718 489.517982 
L 441.677271 531.264472 
L 441.896824 423.559919 
L 442.116378 259.493768 
L 442.335931 497.952215 
L 442.555484 508.263109 
L 442.775037 482.576911 
L 442.99459 502.579948 
L 443.433697 444.579267 
L 443.65325 560.549787 
L 443.872803 471.617356 
L 444.531462 541.469754 
L 444.751015 448.710206 
L 444.970569 474.755225 
L 445.190122 387.721303 
L 445.409675 407.504807 
L 445.629228 540.62022 
L 445.848781 447.785016 
L 446.068334 526.976222 
L 446.287888 472.166761 
L 446.726994 426.745844 
L 446.946547 371.907049 
L 447.1661 465.796452 
L 447.385653 444.39953 
L 447.605206 491.039888 
L 447.82476 502.797752 
L 448.044313 476.610864 
L 448.263866 414.933134 
L 448.483419 434.965657 
L 448.702972 433.098009 
L 448.922525 452.743299 
L 449.142079 492.225068 
L 449.361632 440.45817 
L 449.581185 442.181125 
L 449.800738 511.903062 
L 450.239844 456.669934 
L 450.459397 433.362908 
L 450.678951 506.848934 
L 450.898504 491.315529 
L 451.118057 366.880287 
L 451.33761 491.85962 
L 451.557163 465.445789 
L 451.996269 496.979057 
L 452.215823 396.8264 
L 452.654929 558.744441 
L 452.874482 374.654227 
L 453.094035 523.835825 
L 453.313588 409.642612 
L 453.533142 511.859276 
L 453.752695 300.486013 
L 453.972248 436.843344 
L 454.191801 439.585735 
L 454.411354 404.68457 
L 454.630907 470.26019 
L 454.85046 489.353491 
L 455.070014 478.031985 
L 455.289567 520.383875 
L 455.50912 387.043627 
L 455.728673 496.601637 
L 455.948226 460.501231 
L 456.167779 468.506875 
L 456.606886 396.885132 
L 456.826439 417.618501 
L 457.045992 496.345588 
L 457.265545 466.702816 
L 457.485098 497.57944 
L 457.704651 502.516196 
L 457.924205 406.080389 
L 458.143758 479.825704 
L 458.363311 471.063946 
L 458.582864 467.860691 
L 458.802417 456.189663 
L 459.02197 470.897527 
L 459.241524 468.082034 
L 459.461077 423.970755 
L 459.900183 464.79444 
L 460.119736 409.679754 
L 460.339289 398.510406 
L 460.558842 456.511322 
L 460.778396 413.72783 
L 460.997949 492.080692 
L 461.217502 468.693778 
L 461.437055 412.945639 
L 461.656608 488.295365 
L 461.876161 474.47624 
L 462.095715 449.858679 
L 462.315268 485.283905 
L 462.534821 462.502121 
L 462.754374 456.689208 
L 462.973927 505.429977 
L 463.19348 489.258244 
L 463.413033 482.543881 
L 463.632587 444.720188 
L 464.071693 523.109273 
L 464.291246 445.158278 
L 464.510799 496.836676 
L 464.730352 517.774374 
L 464.949906 470.729128 
L 465.169459 523.499099 
L 465.389012 504.611507 
L 465.608565 436.151433 
L 465.828118 491.07262 
L 466.047671 466.052756 
L 466.267224 413.139476 
L 466.486778 387.961564 
L 466.706331 557.025938 
L 466.925884 430.015462 
L 467.36499 498.793092 
L 467.584543 472.620962 
L 467.804097 501.511147 
L 468.02365 501.897711 
L 468.243203 536.54432 
L 468.462756 318.489057 
L 468.682309 531.748911 
L 468.901862 478.047982 
L 469.121415 556.40997 
L 469.340969 435.309459 
L 469.560522 473.726663 
L 469.780075 485.037838 
L 469.999628 325.92798 
L 470.219181 476.534626 
L 470.438734 493.597613 
L 470.658288 475.845559 
L 470.877841 496.88983 
L 471.097394 354.23424 
L 471.316947 472.962424 
L 471.5365 423.642183 
L 471.756053 284.876006 
L 471.975606 464.708238 
L 472.19516 401.151189 
L 472.414713 472.226632 
L 472.853819 431.279551 
L 473.073372 494.406901 
L 473.292925 507.543581 
L 473.512479 510.393156 
L 473.732032 479.851661 
L 473.951585 372.192227 
L 474.171138 433.000899 
L 474.390691 409.136839 
L 474.610244 492.577406 
L 474.829797 406.708839 
L 475.049351 503.57558 
L 475.268904 365.440513 
L 475.488457 513.779001 
L 475.70801 337.396632 
L 475.927563 470.425601 
L 476.147116 470.530128 
L 476.366669 414.290795 
L 476.805776 522.435449 
L 477.025329 534.536364 
L 477.244882 520.32982 
L 477.464435 529.101144 
L 477.683988 418.102045 
L 477.903542 525.926251 
L 478.123095 380.357223 
L 478.342648 552.861846 
L 478.562201 479.717583 
L 478.781754 479.553295 
L 479.001307 523.678679 
L 479.22086 507.13587 
L 479.440414 452.597901 
L 479.659967 469.223639 
L 479.87952 399.820072 
L 480.099073 519.008061 
L 480.318626 519.066714 
L 480.538179 463.10816 
L 480.757733 512.650774 
L 480.977286 421.168818 
L 481.196839 391.249041 
L 481.635945 438.963468 
L 481.855498 555.10095 
L 482.075051 504.623808 
L 482.294605 484.905781 
L 482.514158 405.14287 
L 482.733711 467.864358 
L 482.953264 461.763637 
L 483.172817 287.145724 
L 483.39237 481.767057 
L 483.831477 389.025825 
L 484.05103 530.932714 
L 484.270583 412.818718 
L 484.709689 553.080287 
L 484.929242 439.392409 
L 485.148796 430.166256 
L 485.368349 517.989926 
L 485.587902 521.84241 
L 486.246561 306.906698 
L 486.466115 460.454789 
L 486.685668 206.565108 
L 486.905221 453.438946 
L 487.124774 374.808708 
L 487.344327 491.8093 
L 487.56388 458.518225 
L 487.783433 465.525612 
L 488.002987 433.77962 
L 488.22254 464.702476 
L 488.442093 294.217681 
L 488.661646 431.472686 
L 488.881199 494.343385 
L 489.100752 386.737974 
L 489.320306 398.482532 
L 489.539859 500.983968 
L 489.759412 476.09819 
L 489.978965 396.756749 
L 490.198518 519.132393 
L 490.418071 530.541064 
L 490.637624 418.681523 
L 490.857178 453.574106 
L 491.076731 368.9105 
L 491.296284 398.226798 
L 491.515837 479.387551 
L 491.73539 464.450629 
L 491.954943 544.485952 
L 492.174497 497.881861 
L 492.39405 416.739891 
L 492.613603 462.467764 
L 492.833156 473.230168 
L 493.052709 531.19016 
L 493.272262 353.908621 
L 493.491815 490.876786 
L 493.711369 392.391706 
L 494.150475 503.437329 
L 494.370028 425.886103 
L 494.589581 302.496108 
L 494.809134 523.321321 
L 495.248241 469.589297 
L 495.467794 486.196612 
L 495.687347 378.435198 
L 496.126453 487.354834 
L 496.346006 426.01649 
L 496.56556 499.664967 
L 496.785113 403.34002 
L 497.004666 518.246554 
L 497.224219 523.390261 
L 497.443772 460.130335 
L 497.663325 464.472799 
L 497.882879 345.233822 
L 498.102432 437.100538 
L 498.321985 361.555829 
L 498.541538 518.789479 
L 498.761091 533.17385 
L 499.200197 405.440903 
L 499.419751 455.061243 
L 499.639304 552.969057 
L 499.858857 335.297105 
L 500.07841 488.793497 
L 500.297963 523.235621 
L 500.517516 495.604471 
L 500.73707 408.064233 
L 500.956623 441.824779 
L 501.176176 232.453194 
L 501.395729 311.294783 
L 501.615282 455.841947 
L 501.834835 438.731351 
L 502.054388 450.060404 
L 502.273942 492.531656 
L 502.493495 438.999669 
L 502.713048 486.868005 
L 502.932601 453.911282 
L 503.152154 462.618925 
L 503.371707 382.003926 
L 503.810814 547.83449 
L 504.469473 408.236923 
L 504.689026 469.177622 
L 505.128133 391.955902 
L 505.347686 385.267249 
L 505.786792 503.579978 
L 506.006345 434.235338 
L 506.225898 325.273038 
L 506.445451 531.267103 
L 506.665005 500.363803 
L 506.884558 443.065534 
L 507.104111 436.76906 
L 507.323664 358.522209 
L 507.543217 488.664353 
L 507.76277 492.573779 
L 507.982324 297.047317 
L 508.201877 495.630152 
L 508.42143 398.058008 
L 508.640983 542.589511 
L 508.860536 512.827373 
L 509.080089 522.260706 
L 509.299642 503.606965 
L 509.519196 430.102185 
L 509.738749 468.007556 
L 509.958302 179.908312 
L 510.177855 475.238133 
L 510.397408 423.208162 
L 510.616961 482.205127 
L 510.836515 441.200589 
L 511.056068 525.622453 
L 511.275621 520.412326 
L 511.495174 461.930216 
L 511.714727 512.006659 
L 511.93428 353.737718 
L 512.153833 323.853162 
L 512.373387 457.358809 
L 512.59294 484.500869 
L 512.812493 484.481411 
L 513.032046 530.436089 
L 513.251599 504.667907 
L 513.471152 354.17855 
L 513.690706 474.211887 
L 513.910259 456.861924 
L 514.129812 492.066132 
L 514.349365 485.062526 
L 514.568918 468.344368 
L 514.788471 427.255011 
L 515.008024 468.009357 
L 515.227578 487.434836 
L 515.447131 385.557165 
L 515.666684 509.956028 
L 515.886237 396.324653 
L 516.10579 425.091106 
L 516.325343 476.582553 
L 516.544897 436.267815 
L 516.76445 474.855171 
L 516.984003 314.873535 
L 517.203556 554.560558 
L 517.423109 491.532853 
L 517.642662 490.723344 
L 517.862215 378.510509 
L 518.301322 489.375778 
L 518.520875 431.289014 
L 518.740428 504.532325 
L 518.959981 500.724843 
L 519.179534 291.884815 
L 519.399088 526.445324 
L 519.618641 509.294144 
L 519.838194 475.826258 
L 520.057747 477.389426 
L 520.2773 454.872941 
L 520.496853 483.713036 
L 520.716406 482.241951 
L 520.93596 472.26887 
L 521.155513 492.128983 
L 521.594619 376.903775 
L 522.033725 513.506738 
L 522.253279 387.601485 
L 522.472832 463.714495 
L 522.692385 431.970753 
L 523.131491 525.137946 
L 523.351044 435.906509 
L 523.570597 453.200884 
L 523.790151 497.08932 
L 524.009704 479.171929 
L 524.229257 471.50254 
L 524.44881 413.7995 
L 524.668363 534.130142 
L 524.887916 526.246114 
L 525.10747 332.64825 
L 525.327023 527.273313 
L 525.766129 349.406912 
L 525.985682 495.237228 
L 526.205235 528.714246 
L 526.424788 448.293812 
L 526.644342 456.368963 
L 526.863895 439.89525 
L 527.083448 399.0836 
L 527.303001 454.419393 
L 527.522554 380.112115 
L 527.742107 478.846855 
L 527.96166 456.877954 
L 528.400767 381.377489 
L 528.839873 484.782097 
L 529.059426 431.780489 
L 529.278979 413.529148 
L 529.498533 411.266268 
L 529.718086 527.642738 
L 529.937639 406.675821 
L 530.157192 515.950876 
L 530.376745 483.7135 
L 530.596298 486.752966 
L 530.815851 415.009727 
L 531.035405 464.739426 
L 531.254958 484.345076 
L 531.474511 463.77814 
L 531.694064 490.037805 
L 531.913617 430.067908 
L 532.13317 484.047735 
L 532.352724 485.312134 
L 532.572277 503.006021 
L 532.79183 539.363834 
L 533.011383 512.011621 
L 533.230936 402.835055 
L 533.450489 489.309998 
L 533.889596 395.175494 
L 534.109149 491.855727 
L 534.328702 522.649183 
L 535.206915 322.444387 
L 535.426468 530.692304 
L 535.646021 371.406458 
L 535.865574 477.335004 
L 536.085127 481.861359 
L 536.30468 495.054983 
L 536.524233 546.399357 
L 537.182893 460.680515 
L 537.402446 484.227746 
L 537.621999 271.985203 
L 537.841552 342.525374 
L 538.061106 497.074252 
L 538.500212 523.026648 
L 538.719765 484.565326 
L 538.939318 417.624266 
L 539.158871 414.802312 
L 539.597978 480.219176 
L 539.817531 468.215683 
L 540.037084 321.125781 
L 540.256637 443.948001 
L 540.47619 491.859262 
L 540.915297 513.066687 
L 541.13485 424.333883 
L 541.354403 422.271165 
L 541.573956 363.910003 
L 541.793509 394.11112 
L 542.013062 401.000734 
L 542.452169 494.949918 
L 542.891275 360.124863 
L 543.110828 236.520593 
L 543.330381 461.759825 
L 543.549934 415.247403 
L 543.769488 446.053305 
L 543.989041 516.905858 
L 544.208594 527.443547 
L 544.428147 581.38839 
L 544.6477 531.489758 
L 544.867253 408.253497 
L 545.086806 464.697055 
L 545.30636 316.214807 
L 545.525913 535.609825 
L 545.745466 503.177052 
L 545.745466 503.177052 
" style="fill:none;stroke:#96c69a;stroke-linecap:round;stroke-width:3;"/>
   </g>
   <g id="line2d_2"/>
   <g id="patch_3">
    <path d="M 84.914375 603.86 
L 84.914375 109.484571 
" style="fill:none;stroke:#262626;stroke-linecap:square;stroke-linejoin:miter;stroke-width:2.5;"/>
   </g>
   <g id="patch_4">
    <path d="M 84.914375 603.86 
L 567.689804 603.86 
" style="fill:none;stroke:#262626;stroke-linecap:square;stroke-linejoin:miter;stroke-width:2.5;"/>
   </g>
   <g id="legend_1">
    <g id="patch_5">
     <path d="M 514.774179 598.86 
L 560.689804 598.86 
Q 562.689804 598.86 562.689804 596.86 
L 562.689804 554.954375 
Q 562.689804 552.954375 560.689804 552.954375 
L 514.774179 552.954375 
Q 512.774179 552.954375 512.774179 554.954375 
L 512.774179 596.86 
Q 512.774179 598.86 514.774179 598.86 
z
" style="fill:#ffffff;opacity:0.8;stroke:#cccccc;stroke-linejoin:miter;stroke-width:2;"/>
    </g>
    <g id="text_18">
     <!-- $n_\tau$ -->
     <g style="fill:#262626;" transform="translate(524.651991 575.190625)scale(0.24 -0.24)">
      <defs>
       <path d="M 3566 2113 
L 3156 0 
L 2578 0 
L 2988 2091 
Q 3016 2238 3031 2350 
Q 3047 2463 3047 2528 
Q 3047 2791 2881 2937 
Q 2716 3084 2419 3084 
Q 1956 3084 1622 2776 
Q 1288 2469 1184 1941 
L 800 0 
L 225 0 
L 903 3500 
L 1478 3500 
L 1363 2950 
Q 1603 3253 1940 3418 
Q 2278 3584 2650 3584 
Q 3113 3584 3367 3334 
Q 3622 3084 3622 2631 
Q 3622 2519 3608 2391 
Q 3594 2263 3566 2113 
z
" id="DejaVuSans-Oblique-6e" transform="scale(0.015625)"/>
       <path d="M 2103 638 
Q 2188 488 2525 488 
L 2800 488 
L 2706 0 
L 2363 0 
Q 1800 0 1600 300 
Q 1403 606 1534 1269 
L 1856 2925 
L 541 2925 
L 653 3500 
L 3881 3500 
L 3769 2925 
L 2444 2925 
L 2113 1234 
Q 2025 781 2103 638 
z
" id="DejaVuSans-Oblique-3c4" transform="scale(0.015625)"/>
      </defs>
      <use xlink:href="#DejaVuSans-Oblique-6e"/>
      <use transform="translate(63.378906 -16.40625)scale(0.7)" xlink:href="#DejaVuSans-Oblique-3c4"/>
     </g>
    </g>
    <g id="line2d_3">
     <path d="M 516.774179 589.280313 
L 536.774179 589.280313 
" style="fill:none;stroke:#96c69a;stroke-linecap:round;stroke-width:3;"/>
    </g>
    <g id="line2d_4"/>
    <g id="text_19">
     <!-- 20 -->
     <g style="fill:#262626;" transform="translate(544.774179 592.780313)scale(0.1 -0.1)">
      <defs>
       <path d="M 1844 884 
L 3897 884 
L 3897 0 
L 506 0 
L 506 884 
L 2209 2388 
Q 2438 2594 2547 2791 
Q 2656 2988 2656 3200 
Q 2656 3528 2436 3728 
Q 2216 3928 1850 3928 
Q 1569 3928 1234 3808 
Q 900 3688 519 3450 
L 519 4475 
Q 925 4609 1322 4679 
Q 1719 4750 2100 4750 
Q 2938 4750 3402 4381 
Q 3866 4013 3866 3353 
Q 3866 2972 3669 2642 
Q 3472 2313 2841 1759 
L 1844 884 
z
" id="DejaVuSans-Bold-32" transform="scale(0.015625)"/>
       <path d="M 2944 2338 
Q 2944 3213 2780 3570 
Q 2616 3928 2228 3928 
Q 1841 3928 1675 3570 
Q 1509 3213 1509 2338 
Q 1509 1453 1675 1090 
Q 1841 728 2228 728 
Q 2613 728 2778 1090 
Q 2944 1453 2944 2338 
z
M 4147 2328 
Q 4147 1169 3647 539 
Q 3147 -91 2228 -91 
Q 1306 -91 806 539 
Q 306 1169 306 2328 
Q 306 3491 806 4120 
Q 1306 4750 2228 4750 
Q 3147 4750 3647 4120 
Q 4147 3491 4147 2328 
z
" id="DejaVuSans-Bold-30" transform="scale(0.015625)"/>
      </defs>
      <use xlink:href="#DejaVuSans-Bold-32"/>
      <use x="69.580078" xlink:href="#DejaVuSans-Bold-30"/>
     </g>
    </g>
   </g>
  </g>
  <g id="axes_2">
   <g id="patch_6">
    <path d="M 84.914375 92.437143 
L 567.689804 92.437143 
L 567.689804 7.2 
L 84.914375 7.2 
z
" style="fill:none;"/>
   </g>
   <g id="matplotlib.axis_3">
    <g id="xtick_7"/>
    <g id="xtick_8"/>
    <g id="xtick_9"/>
    <g id="xtick_10"/>
    <g id="xtick_11"/>
    <g id="xtick_12"/>
   </g>
   <g id="matplotlib.axis_4">
    <g id="ytick_10">
     <g id="text_20">
      <!-- 0 -->
      <g style="fill:#262626;" transform="translate(55.416875 100.795424)scale(0.22 -0.22)">
       <use xlink:href="#DejaVuSans-30"/>
      </g>
     </g>
    </g>
    <g id="ytick_11">
     <g id="text_21">
      <!-- 100 -->
      <g style="fill:#262626;" transform="translate(27.421875 48.082287)scale(0.22 -0.22)">
       <use xlink:href="#DejaVuSans-31"/>
       <use x="63.623047" xlink:href="#DejaVuSans-30"/>
       <use x="127.246094" xlink:href="#DejaVuSans-30"/>
      </g>
     </g>
    </g>
   </g>
   <g id="patch_7">
    <path clip-path="url(#pba0c96e069)" d="M 106.858713 92.437143 
L 140.619232 92.437143 
L 140.619232 11.258912 
L 106.858713 11.258912 
z
" style="fill:#96c69a;fill-opacity:0.5;stroke:#ffffff;stroke-linejoin:miter;stroke-width:2;"/>
   </g>
   <g id="patch_8">
    <path clip-path="url(#pba0c96e069)" d="M 140.619232 92.437143 
L 174.379752 92.437143 
L 174.379752 11.258912 
L 140.619232 11.258912 
z
" style="fill:#96c69a;fill-opacity:0.5;stroke:#ffffff;stroke-linejoin:miter;stroke-width:2;"/>
   </g>
   <g id="patch_9">
    <path clip-path="url(#pba0c96e069)" d="M 174.379752 92.437143 
L 208.140271 92.437143 
L 208.140271 11.258912 
L 174.379752 11.258912 
z
" style="fill:#96c69a;fill-opacity:0.5;stroke:#ffffff;stroke-linejoin:miter;stroke-width:2;"/>
   </g>
   <g id="patch_10">
    <path clip-path="url(#pba0c96e069)" d="M 208.140271 92.437143 
L 241.900791 92.437143 
L 241.900791 11.258912 
L 208.140271 11.258912 
z
" style="fill:#96c69a;fill-opacity:0.5;stroke:#ffffff;stroke-linejoin:miter;stroke-width:2;"/>
   </g>
   <g id="patch_11">
    <path clip-path="url(#pba0c96e069)" d="M 241.900791 92.437143 
L 275.66131 92.437143 
L 275.66131 11.786043 
L 241.900791 11.786043 
z
" style="fill:#96c69a;fill-opacity:0.5;stroke:#ffffff;stroke-linejoin:miter;stroke-width:2;"/>
   </g>
   <g id="patch_12">
    <path clip-path="url(#pba0c96e069)" d="M 275.66131 92.437143 
L 309.42183 92.437143 
L 309.42183 11.258912 
L 275.66131 11.258912 
z
" style="fill:#96c69a;fill-opacity:0.5;stroke:#ffffff;stroke-linejoin:miter;stroke-width:2;"/>
   </g>
   <g id="patch_13">
    <path clip-path="url(#pba0c96e069)" d="M 309.42183 92.437143 
L 343.182349 92.437143 
L 343.182349 11.258912 
L 309.42183 11.258912 
z
" style="fill:#96c69a;fill-opacity:0.5;stroke:#ffffff;stroke-linejoin:miter;stroke-width:2;"/>
   </g>
   <g id="patch_14">
    <path clip-path="url(#pba0c96e069)" d="M 343.182349 92.437143 
L 376.942869 92.437143 
L 376.942869 11.258912 
L 343.182349 11.258912 
z
" style="fill:#96c69a;fill-opacity:0.5;stroke:#ffffff;stroke-linejoin:miter;stroke-width:2;"/>
   </g>
   <g id="patch_15">
    <path clip-path="url(#pba0c96e069)" d="M 376.942869 92.437143 
L 410.703388 92.437143 
L 410.703388 11.786043 
L 376.942869 11.786043 
z
" style="fill:#96c69a;fill-opacity:0.5;stroke:#ffffff;stroke-linejoin:miter;stroke-width:2;"/>
   </g>
   <g id="patch_16">
    <path clip-path="url(#pba0c96e069)" d="M 410.703388 92.437143 
L 444.463907 92.437143 
L 444.463907 11.258912 
L 410.703388 11.258912 
z
" style="fill:#96c69a;fill-opacity:0.5;stroke:#ffffff;stroke-linejoin:miter;stroke-width:2;"/>
   </g>
   <g id="patch_17">
    <path clip-path="url(#pba0c96e069)" d="M 444.463907 92.437143 
L 478.224427 92.437143 
L 478.224427 11.258912 
L 444.463907 11.258912 
z
" style="fill:#96c69a;fill-opacity:0.5;stroke:#ffffff;stroke-linejoin:miter;stroke-width:2;"/>
   </g>
   <g id="patch_18">
    <path clip-path="url(#pba0c96e069)" d="M 478.224427 92.437143 
L 511.984946 92.437143 
L 511.984946 11.258912 
L 478.224427 11.258912 
z
" style="fill:#96c69a;fill-opacity:0.5;stroke:#ffffff;stroke-linejoin:miter;stroke-width:2;"/>
   </g>
   <g id="patch_19">
    <path clip-path="url(#pba0c96e069)" d="M 511.984946 92.437143 
L 545.745466 92.437143 
L 545.745466 11.258912 
L 511.984946 11.258912 
z
" style="fill:#96c69a;fill-opacity:0.5;stroke:#ffffff;stroke-linejoin:miter;stroke-width:2;"/>
   </g>
   <g id="patch_20">
    <path d="M 84.914375 92.437143 
L 84.914375 7.2 
" style="fill:none;stroke:#262626;stroke-linecap:square;stroke-linejoin:miter;stroke-width:2.5;"/>
   </g>
   <g id="patch_21">
    <path d="M 84.914375 92.437143 
L 567.689804 92.437143 
" style="fill:none;stroke:#262626;stroke-linecap:square;stroke-linejoin:miter;stroke-width:2.5;"/>
   </g>
  </g>
  <g id="axes_3">
   <g id="patch_22">
    <path d="M 584.337232 603.86 
L 667.574375 603.86 
L 667.574375 109.484571 
L 584.337232 109.484571 
z
" style="fill:none;"/>
   </g>
   <g id="matplotlib.axis_5">
    <g id="xtick_13">
     <g id="text_22">
      <!-- 0 -->
      <g style="fill:#262626;" transform="translate(577.338482 636.076563)scale(0.22 -0.22)">
       <use xlink:href="#DejaVuSans-30"/>
      </g>
     </g>
    </g>
    <g id="xtick_14">
     <g id="text_23">
      <!-- 100 -->
      <g style="fill:#262626;" transform="translate(605.961127 636.076563)scale(0.22 -0.22)">
       <use xlink:href="#DejaVuSans-31"/>
       <use x="63.623047" xlink:href="#DejaVuSans-30"/>
       <use x="127.246094" xlink:href="#DejaVuSans-30"/>
      </g>
     </g>
    </g>
   </g>
   <g id="matplotlib.axis_6">
    <g id="ytick_12"/>
    <g id="ytick_13"/>
    <g id="ytick_14"/>
    <g id="ytick_15"/>
    <g id="ytick_16"/>
    <g id="ytick_17"/>
    <g id="ytick_18"/>
    <g id="ytick_19"/>
    <g id="ytick_20"/>
   </g>
   <g id="patch_23">
    <path clip-path="url(#p7b08f1d57c)" d="M 584.337232 581.38839 
L 587.746844 581.38839 
L 587.746844 569.561226 
L 584.337232 569.561226 
z
" style="fill:#96c69a;fill-opacity:0.5;stroke:#ffffff;stroke-linejoin:miter;stroke-width:1.182716;"/>
   </g>
   <g id="patch_24">
    <path clip-path="url(#p7b08f1d57c)" d="M 584.337232 569.561226 
L 591.156455 569.561226 
L 591.156455 557.734063 
L 584.337232 557.734063 
z
" style="fill:#96c69a;fill-opacity:0.5;stroke:#ffffff;stroke-linejoin:miter;stroke-width:1.182716;"/>
   </g>
   <g id="patch_25">
    <path clip-path="url(#p7b08f1d57c)" d="M 584.337232 557.734063 
L 599.680484 557.734063 
L 599.680484 545.9069 
L 584.337232 545.9069 
z
" style="fill:#96c69a;fill-opacity:0.5;stroke:#ffffff;stroke-linejoin:miter;stroke-width:1.182716;"/>
   </g>
   <g id="patch_26">
    <path clip-path="url(#p7b08f1d57c)" d="M 584.337232 545.9069 
L 610.761722 545.9069 
L 610.761722 534.079736 
L 584.337232 534.079736 
z
" style="fill:#96c69a;fill-opacity:0.5;stroke:#ffffff;stroke-linejoin:miter;stroke-width:1.182716;"/>
   </g>
   <g id="patch_27">
    <path clip-path="url(#p7b08f1d57c)" d="M 584.337232 534.079736 
L 626.104974 534.079736 
L 626.104974 522.252573 
L 584.337232 522.252573 
z
" style="fill:#96c69a;fill-opacity:0.5;stroke:#ffffff;stroke-linejoin:miter;stroke-width:1.182716;"/>
   </g>
   <g id="patch_28">
    <path clip-path="url(#p7b08f1d57c)" d="M 584.337232 522.252573 
L 638.891018 522.252573 
L 638.891018 510.425409 
L 584.337232 510.425409 
z
" style="fill:#96c69a;fill-opacity:0.5;stroke:#ffffff;stroke-linejoin:miter;stroke-width:1.182716;"/>
   </g>
   <g id="patch_29">
    <path clip-path="url(#p7b08f1d57c)" d="M 584.337232 510.425409 
L 644.857838 510.425409 
L 644.857838 498.598246 
L 584.337232 498.598246 
z
" style="fill:#96c69a;fill-opacity:0.5;stroke:#ffffff;stroke-linejoin:miter;stroke-width:1.182716;"/>
   </g>
   <g id="patch_30">
    <path clip-path="url(#p7b08f1d57c)" d="M 584.337232 498.598246 
L 663.610702 498.598246 
L 663.610702 486.771083 
L 584.337232 486.771083 
z
" style="fill:#96c69a;fill-opacity:0.5;stroke:#ffffff;stroke-linejoin:miter;stroke-width:1.182716;"/>
   </g>
   <g id="patch_31">
    <path clip-path="url(#p7b08f1d57c)" d="M 584.337232 486.771083 
L 655.512874 486.771083 
L 655.512874 474.943919 
L 584.337232 474.943919 
z
" style="fill:#96c69a;fill-opacity:0.5;stroke:#ffffff;stroke-linejoin:miter;stroke-width:1.182716;"/>
   </g>
   <g id="patch_32">
    <path clip-path="url(#p7b08f1d57c)" d="M 584.337232 474.943919 
L 660.20109 474.943919 
L 660.20109 463.116756 
L 584.337232 463.116756 
z
" style="fill:#96c69a;fill-opacity:0.5;stroke:#ffffff;stroke-linejoin:miter;stroke-width:1.182716;"/>
   </g>
   <g id="patch_33">
    <path clip-path="url(#p7b08f1d57c)" d="M 584.337232 463.116756 
L 650.824658 463.116756 
L 650.824658 451.289593 
L 584.337232 451.289593 
z
" style="fill:#96c69a;fill-opacity:0.5;stroke:#ffffff;stroke-linejoin:miter;stroke-width:1.182716;"/>
   </g>
   <g id="patch_34">
    <path clip-path="url(#p7b08f1d57c)" d="M 584.337232 451.289593 
L 640.595823 451.289593 
L 640.595823 439.462429 
L 584.337232 439.462429 
z
" style="fill:#96c69a;fill-opacity:0.5;stroke:#ffffff;stroke-linejoin:miter;stroke-width:1.182716;"/>
   </g>
   <g id="patch_35">
    <path clip-path="url(#p7b08f1d57c)" d="M 584.337232 439.462429 
L 637.612413 439.462429 
L 637.612413 427.635266 
L 584.337232 427.635266 
z
" style="fill:#96c69a;fill-opacity:0.5;stroke:#ffffff;stroke-linejoin:miter;stroke-width:1.182716;"/>
   </g>
   <g id="patch_36">
    <path clip-path="url(#p7b08f1d57c)" d="M 584.337232 427.635266 
L 628.235981 427.635266 
L 628.235981 415.808103 
L 584.337232 415.808103 
z
" style="fill:#96c69a;fill-opacity:0.5;stroke:#ffffff;stroke-linejoin:miter;stroke-width:1.182716;"/>
   </g>
   <g id="patch_37">
    <path clip-path="url(#p7b08f1d57c)" d="M 584.337232 415.808103 
L 623.973967 415.808103 
L 623.973967 403.980939 
L 584.337232 403.980939 
z
" style="fill:#96c69a;fill-opacity:0.5;stroke:#ffffff;stroke-linejoin:miter;stroke-width:1.182716;"/>
   </g>
   <g id="patch_38">
    <path clip-path="url(#p7b08f1d57c)" d="M 584.337232 403.980939 
L 613.318931 403.980939 
L 613.318931 392.153776 
L 584.337232 392.153776 
z
" style="fill:#96c69a;fill-opacity:0.5;stroke:#ffffff;stroke-linejoin:miter;stroke-width:1.182716;"/>
   </g>
   <g id="patch_39">
    <path clip-path="url(#p7b08f1d57c)" d="M 584.337232 392.153776 
L 612.892729 392.153776 
L 612.892729 380.326612 
L 584.337232 380.326612 
z
" style="fill:#96c69a;fill-opacity:0.5;stroke:#ffffff;stroke-linejoin:miter;stroke-width:1.182716;"/>
   </g>
   <g id="patch_40">
    <path clip-path="url(#p7b08f1d57c)" d="M 584.337232 380.326612 
L 612.040326 380.326612 
L 612.040326 368.499449 
L 584.337232 368.499449 
z
" style="fill:#96c69a;fill-opacity:0.5;stroke:#ffffff;stroke-linejoin:miter;stroke-width:1.182716;"/>
   </g>
   <g id="patch_41">
    <path clip-path="url(#p7b08f1d57c)" d="M 584.337232 368.499449 
L 602.663894 368.499449 
L 602.663894 356.672286 
L 584.337232 356.672286 
z
" style="fill:#96c69a;fill-opacity:0.5;stroke:#ffffff;stroke-linejoin:miter;stroke-width:1.182716;"/>
   </g>
   <g id="patch_42">
    <path clip-path="url(#p7b08f1d57c)" d="M 584.337232 356.672286 
L 596.697074 356.672286 
L 596.697074 344.845122 
L 584.337232 344.845122 
z
" style="fill:#96c69a;fill-opacity:0.5;stroke:#ffffff;stroke-linejoin:miter;stroke-width:1.182716;"/>
   </g>
   <g id="patch_43">
    <path clip-path="url(#p7b08f1d57c)" d="M 584.337232 344.845122 
L 591.582657 344.845122 
L 591.582657 333.017959 
L 584.337232 333.017959 
z
" style="fill:#96c69a;fill-opacity:0.5;stroke:#ffffff;stroke-linejoin:miter;stroke-width:1.182716;"/>
   </g>
   <g id="patch_44">
    <path clip-path="url(#p7b08f1d57c)" d="M 584.337232 333.017959 
L 592.008858 333.017959 
L 592.008858 321.190796 
L 584.337232 321.190796 
z
" style="fill:#96c69a;fill-opacity:0.5;stroke:#ffffff;stroke-linejoin:miter;stroke-width:1.182716;"/>
   </g>
   <g id="patch_45">
    <path clip-path="url(#p7b08f1d57c)" d="M 584.337232 321.190796 
L 590.730254 321.190796 
L 590.730254 309.363632 
L 584.337232 309.363632 
z
" style="fill:#96c69a;fill-opacity:0.5;stroke:#ffffff;stroke-linejoin:miter;stroke-width:1.182716;"/>
   </g>
   <g id="patch_46">
    <path clip-path="url(#p7b08f1d57c)" d="M 584.337232 309.363632 
L 587.320642 309.363632 
L 587.320642 297.536469 
L 584.337232 297.536469 
z
" style="fill:#96c69a;fill-opacity:0.5;stroke:#ffffff;stroke-linejoin:miter;stroke-width:1.182716;"/>
   </g>
   <g id="patch_47">
    <path clip-path="url(#p7b08f1d57c)" d="M 584.337232 297.536469 
L 589.025448 297.536469 
L 589.025448 285.709306 
L 584.337232 285.709306 
z
" style="fill:#96c69a;fill-opacity:0.5;stroke:#ffffff;stroke-linejoin:miter;stroke-width:1.182716;"/>
   </g>
   <g id="patch_48">
    <path clip-path="url(#p7b08f1d57c)" d="M 584.337232 285.709306 
L 586.042038 285.709306 
L 586.042038 273.882142 
L 584.337232 273.882142 
z
" style="fill:#96c69a;fill-opacity:0.5;stroke:#ffffff;stroke-linejoin:miter;stroke-width:1.182716;"/>
   </g>
   <g id="patch_49">
    <path clip-path="url(#p7b08f1d57c)" d="M 584.337232 273.882142 
L 586.468239 273.882142 
L 586.468239 262.054979 
L 584.337232 262.054979 
z
" style="fill:#96c69a;fill-opacity:0.5;stroke:#ffffff;stroke-linejoin:miter;stroke-width:1.182716;"/>
   </g>
   <g id="patch_50">
    <path clip-path="url(#p7b08f1d57c)" d="M 584.337232 262.054979 
L 585.615836 262.054979 
L 585.615836 250.227815 
L 584.337232 250.227815 
z
" style="fill:#96c69a;fill-opacity:0.5;stroke:#ffffff;stroke-linejoin:miter;stroke-width:1.182716;"/>
   </g>
   <g id="patch_51">
    <path clip-path="url(#p7b08f1d57c)" d="M 584.337232 250.227815 
L 584.763434 250.227815 
L 584.763434 238.400652 
L 584.337232 238.400652 
z
" style="fill:#96c69a;fill-opacity:0.5;stroke:#ffffff;stroke-linejoin:miter;stroke-width:1.182716;"/>
   </g>
   <g id="patch_52">
    <path clip-path="url(#p7b08f1d57c)" d="M 584.337232 238.400652 
L 587.746844 238.400652 
L 587.746844 226.573489 
L 584.337232 226.573489 
z
" style="fill:#96c69a;fill-opacity:0.5;stroke:#ffffff;stroke-linejoin:miter;stroke-width:1.182716;"/>
   </g>
   <g id="patch_53">
    <path clip-path="url(#p7b08f1d57c)" d="M 584.337232 226.573489 
L 584.763434 226.573489 
L 584.763434 214.746325 
L 584.337232 214.746325 
z
" style="fill:#96c69a;fill-opacity:0.5;stroke:#ffffff;stroke-linejoin:miter;stroke-width:1.182716;"/>
   </g>
   <g id="patch_54">
    <path clip-path="url(#p7b08f1d57c)" d="M 584.337232 214.746325 
L 585.615836 214.746325 
L 585.615836 202.919162 
L 584.337232 202.919162 
z
" style="fill:#96c69a;fill-opacity:0.5;stroke:#ffffff;stroke-linejoin:miter;stroke-width:1.182716;"/>
   </g>
   <g id="patch_55">
    <path clip-path="url(#p7b08f1d57c)" d="M 584.337232 202.919162 
L 584.337232 202.919162 
L 584.337232 191.091999 
L 584.337232 191.091999 
z
" style="fill:#96c69a;fill-opacity:0.5;stroke:#ffffff;stroke-linejoin:miter;stroke-width:1.182716;"/>
   </g>
   <g id="patch_56">
    <path clip-path="url(#p7b08f1d57c)" d="M 584.337232 191.091999 
L 585.189635 191.091999 
L 585.189635 179.264835 
L 584.337232 179.264835 
z
" style="fill:#96c69a;fill-opacity:0.5;stroke:#ffffff;stroke-linejoin:miter;stroke-width:1.182716;"/>
   </g>
   <g id="patch_57">
    <path clip-path="url(#p7b08f1d57c)" d="M 584.337232 179.264835 
L 584.337232 179.264835 
L 584.337232 167.437672 
L 584.337232 167.437672 
z
" style="fill:#96c69a;fill-opacity:0.5;stroke:#ffffff;stroke-linejoin:miter;stroke-width:1.182716;"/>
   </g>
   <g id="patch_58">
    <path clip-path="url(#p7b08f1d57c)" d="M 584.337232 167.437672 
L 584.763434 167.437672 
L 584.763434 155.610509 
L 584.337232 155.610509 
z
" style="fill:#96c69a;fill-opacity:0.5;stroke:#ffffff;stroke-linejoin:miter;stroke-width:1.182716;"/>
   </g>
   <g id="patch_59">
    <path clip-path="url(#p7b08f1d57c)" d="M 584.337232 155.610509 
L 584.763434 155.610509 
L 584.763434 143.783345 
L 584.337232 143.783345 
z
" style="fill:#96c69a;fill-opacity:0.5;stroke:#ffffff;stroke-linejoin:miter;stroke-width:1.182716;"/>
   </g>
   <g id="patch_60">
    <path clip-path="url(#p7b08f1d57c)" d="M 584.337232 143.783345 
L 584.763434 143.783345 
L 584.763434 131.956182 
L 584.337232 131.956182 
z
" style="fill:#96c69a;fill-opacity:0.5;stroke:#ffffff;stroke-linejoin:miter;stroke-width:1.182716;"/>
   </g>
   <g id="patch_61">
    <path d="M 584.337232 603.86 
L 584.337232 109.484571 
" style="fill:none;stroke:#262626;stroke-linecap:square;stroke-linejoin:miter;stroke-width:2.5;"/>
   </g>
   <g id="patch_62">
    <path d="M 584.337232 603.86 
L 667.574375 603.86 
" style="fill:none;stroke:#262626;stroke-linecap:square;stroke-linejoin:miter;stroke-width:2.5;"/>
   </g>
  </g>
 </g>
 <defs>
  <clipPath id="p6753516329">
   <rect height="494.375429" width="482.775429" x="84.914375" y="109.484571"/>
  </clipPath>
  <clipPath id="pba0c96e069">
   <rect height="85.237143" width="482.775429" x="84.914375" y="7.2"/>
  </clipPath>
  <clipPath id="p7b08f1d57c">
   <rect height="494.375429" width="83.237143" x="584.337232" y="109.484571"/>
  </clipPath>
 </defs>
</svg>
