<?xml version="1.0" encoding="utf-8" standalone="no"?>
<!DOCTYPE svg PUBLIC "-//W3C//DTD SVG 1.1//EN"
  "http://www.w3.org/Graphics/SVG/1.1/DTD/svg11.dtd">
<svg height="675.079375pt" version="1.1" viewBox="0 0 688.771875 675.079375" width="688.771875pt" xmlns="http://www.w3.org/2000/svg" xmlns:xlink="http://www.w3.org/1999/xlink">
 <metadata>
  <rdf:RDF xmlns:cc="http://creativecommons.org/ns#" xmlns:dc="http://purl.org/dc/elements/1.1/" xmlns:rdf="http://www.w3.org/1999/02/22-rdf-syntax-ns#">
   <cc:Work>
    <dc:type rdf:resource="http://purl.org/dc/dcmitype/StillImage"/>
    <dc:date>2021-07-16T21:44:07.264655</dc:date>
    <dc:format>image/svg+xml</dc:format>
    <dc:creator>
     <cc:Agent>
      <dc:title>Matplotlib v3.4.2, https://matplotlib.org/</dc:title>
     </cc:Agent>
    </dc:creator>
   </cc:Work>
  </rdf:RDF>
 </metadata>
 <defs>
  <style type="text/css">*{stroke-linecap:butt;stroke-linejoin:round;}</style>
 </defs>
 <g id="figure_1">
  <g id="patch_1">
   <path d="M 0 675.079375 
L 688.771875 675.079375 
L 688.771875 0 
L 0 0 
z
" style="fill:#ffffff;"/>
  </g>
  <g id="axes_1">
   <g id="patch_2">
    <path d="M 98.911875 603.86 
L 581.687304 603.86 
L 581.687304 109.484571 
L 98.911875 109.484571 
z
" style="fill:none;"/>
   </g>
   <g id="matplotlib.axis_1">
    <g id="xtick_1">
     <g id="text_1">
      <!-- 0 -->
      <g style="fill:#262626;" transform="translate(113.63791 636.076563)scale(0.22 -0.22)">
       <defs>
        <path d="M 2034 4250 
Q 1547 4250 1301 3770 
Q 1056 3291 1056 2328 
Q 1056 1369 1301 889 
Q 1547 409 2034 409 
Q 2525 409 2770 889 
Q 3016 1369 3016 2328 
Q 3016 3291 2770 3770 
Q 2525 4250 2034 4250 
z
M 2034 4750 
Q 2819 4750 3233 4129 
Q 3647 3509 3647 2328 
Q 3647 1150 3233 529 
Q 2819 -91 2034 -91 
Q 1250 -91 836 529 
Q 422 1150 422 2328 
Q 422 3509 836 4129 
Q 1250 4750 2034 4750 
z
" id="DejaVuSans-30" transform="scale(0.015625)"/>
       </defs>
       <use xlink:href="#DejaVuSans-30"/>
      </g>
     </g>
    </g>
    <g id="xtick_2">
     <g id="text_2">
      <!-- 20000 -->
      <g style="fill:#262626;" transform="translate(173.464171 636.076563)scale(0.22 -0.22)">
       <defs>
        <path d="M 1228 531 
L 3431 531 
L 3431 0 
L 469 0 
L 469 531 
Q 828 903 1448 1529 
Q 2069 2156 2228 2338 
Q 2531 2678 2651 2914 
Q 2772 3150 2772 3378 
Q 2772 3750 2511 3984 
Q 2250 4219 1831 4219 
Q 1534 4219 1204 4116 
Q 875 4013 500 3803 
L 500 4441 
Q 881 4594 1212 4672 
Q 1544 4750 1819 4750 
Q 2544 4750 2975 4387 
Q 3406 4025 3406 3419 
Q 3406 3131 3298 2873 
Q 3191 2616 2906 2266 
Q 2828 2175 2409 1742 
Q 1991 1309 1228 531 
z
" id="DejaVuSans-32" transform="scale(0.015625)"/>
       </defs>
       <use xlink:href="#DejaVuSans-32"/>
       <use x="63.623047" xlink:href="#DejaVuSans-30"/>
       <use x="127.246094" xlink:href="#DejaVuSans-30"/>
       <use x="190.869141" xlink:href="#DejaVuSans-30"/>
       <use x="254.492188" xlink:href="#DejaVuSans-30"/>
      </g>
     </g>
    </g>
    <g id="xtick_3">
     <g id="text_3">
      <!-- 40000 -->
      <g style="fill:#262626;" transform="translate(261.285432 636.076563)scale(0.22 -0.22)">
       <defs>
        <path d="M 2419 4116 
L 825 1625 
L 2419 1625 
L 2419 4116 
z
M 2253 4666 
L 3047 4666 
L 3047 1625 
L 3713 1625 
L 3713 1100 
L 3047 1100 
L 3047 0 
L 2419 0 
L 2419 1100 
L 313 1100 
L 313 1709 
L 2253 4666 
z
" id="DejaVuSans-34" transform="scale(0.015625)"/>
       </defs>
       <use xlink:href="#DejaVuSans-34"/>
       <use x="63.623047" xlink:href="#DejaVuSans-30"/>
       <use x="127.246094" xlink:href="#DejaVuSans-30"/>
       <use x="190.869141" xlink:href="#DejaVuSans-30"/>
       <use x="254.492188" xlink:href="#DejaVuSans-30"/>
      </g>
     </g>
    </g>
    <g id="xtick_4">
     <g id="text_4">
      <!-- 60000 -->
      <g style="fill:#262626;" transform="translate(349.106693 636.076563)scale(0.22 -0.22)">
       <defs>
        <path d="M 2113 2584 
Q 1688 2584 1439 2293 
Q 1191 2003 1191 1497 
Q 1191 994 1439 701 
Q 1688 409 2113 409 
Q 2538 409 2786 701 
Q 3034 994 3034 1497 
Q 3034 2003 2786 2293 
Q 2538 2584 2113 2584 
z
M 3366 4563 
L 3366 3988 
Q 3128 4100 2886 4159 
Q 2644 4219 2406 4219 
Q 1781 4219 1451 3797 
Q 1122 3375 1075 2522 
Q 1259 2794 1537 2939 
Q 1816 3084 2150 3084 
Q 2853 3084 3261 2657 
Q 3669 2231 3669 1497 
Q 3669 778 3244 343 
Q 2819 -91 2113 -91 
Q 1303 -91 875 529 
Q 447 1150 447 2328 
Q 447 3434 972 4092 
Q 1497 4750 2381 4750 
Q 2619 4750 2861 4703 
Q 3103 4656 3366 4563 
z
" id="DejaVuSans-36" transform="scale(0.015625)"/>
       </defs>
       <use xlink:href="#DejaVuSans-36"/>
       <use x="63.623047" xlink:href="#DejaVuSans-30"/>
       <use x="127.246094" xlink:href="#DejaVuSans-30"/>
       <use x="190.869141" xlink:href="#DejaVuSans-30"/>
       <use x="254.492188" xlink:href="#DejaVuSans-30"/>
      </g>
     </g>
    </g>
    <g id="xtick_5">
     <g id="text_5">
      <!-- 80000 -->
      <g style="fill:#262626;" transform="translate(436.927955 636.076563)scale(0.22 -0.22)">
       <defs>
        <path d="M 2034 2216 
Q 1584 2216 1326 1975 
Q 1069 1734 1069 1313 
Q 1069 891 1326 650 
Q 1584 409 2034 409 
Q 2484 409 2743 651 
Q 3003 894 3003 1313 
Q 3003 1734 2745 1975 
Q 2488 2216 2034 2216 
z
M 1403 2484 
Q 997 2584 770 2862 
Q 544 3141 544 3541 
Q 544 4100 942 4425 
Q 1341 4750 2034 4750 
Q 2731 4750 3128 4425 
Q 3525 4100 3525 3541 
Q 3525 3141 3298 2862 
Q 3072 2584 2669 2484 
Q 3125 2378 3379 2068 
Q 3634 1759 3634 1313 
Q 3634 634 3220 271 
Q 2806 -91 2034 -91 
Q 1263 -91 848 271 
Q 434 634 434 1313 
Q 434 1759 690 2068 
Q 947 2378 1403 2484 
z
M 1172 3481 
Q 1172 3119 1398 2916 
Q 1625 2713 2034 2713 
Q 2441 2713 2670 2916 
Q 2900 3119 2900 3481 
Q 2900 3844 2670 4047 
Q 2441 4250 2034 4250 
Q 1625 4250 1398 4047 
Q 1172 3844 1172 3481 
z
" id="DejaVuSans-38" transform="scale(0.015625)"/>
       </defs>
       <use xlink:href="#DejaVuSans-38"/>
       <use x="63.623047" xlink:href="#DejaVuSans-30"/>
       <use x="127.246094" xlink:href="#DejaVuSans-30"/>
       <use x="190.869141" xlink:href="#DejaVuSans-30"/>
       <use x="254.492188" xlink:href="#DejaVuSans-30"/>
      </g>
     </g>
    </g>
    <g id="xtick_6">
     <g id="text_6">
      <!-- 100000 -->
      <g style="fill:#262626;" transform="translate(517.750466 636.076563)scale(0.22 -0.22)">
       <defs>
        <path d="M 794 531 
L 1825 531 
L 1825 4091 
L 703 3866 
L 703 4441 
L 1819 4666 
L 2450 4666 
L 2450 531 
L 3481 531 
L 3481 0 
L 794 0 
L 794 531 
z
" id="DejaVuSans-31" transform="scale(0.015625)"/>
       </defs>
       <use xlink:href="#DejaVuSans-31"/>
       <use x="63.623047" xlink:href="#DejaVuSans-30"/>
       <use x="127.246094" xlink:href="#DejaVuSans-30"/>
       <use x="190.869141" xlink:href="#DejaVuSans-30"/>
       <use x="254.492188" xlink:href="#DejaVuSans-30"/>
       <use x="318.115234" xlink:href="#DejaVuSans-30"/>
      </g>
     </g>
    </g>
    <g id="text_7">
     <!-- MDTU -->
     <g style="fill:#262626;" transform="translate(304.593964 662.888125)scale(0.24 -0.24)">
      <defs>
       <path d="M 628 4666 
L 1569 4666 
L 2759 1491 
L 3956 4666 
L 4897 4666 
L 4897 0 
L 4281 0 
L 4281 4097 
L 3078 897 
L 2444 897 
L 1241 4097 
L 1241 0 
L 628 0 
L 628 4666 
z
" id="DejaVuSans-4d" transform="scale(0.015625)"/>
       <path d="M 1259 4147 
L 1259 519 
L 2022 519 
Q 2988 519 3436 956 
Q 3884 1394 3884 2338 
Q 3884 3275 3436 3711 
Q 2988 4147 2022 4147 
L 1259 4147 
z
M 628 4666 
L 1925 4666 
Q 3281 4666 3915 4102 
Q 4550 3538 4550 2338 
Q 4550 1131 3912 565 
Q 3275 0 1925 0 
L 628 0 
L 628 4666 
z
" id="DejaVuSans-44" transform="scale(0.015625)"/>
       <path d="M -19 4666 
L 3928 4666 
L 3928 4134 
L 2272 4134 
L 2272 0 
L 1638 0 
L 1638 4134 
L -19 4134 
L -19 4666 
z
" id="DejaVuSans-54" transform="scale(0.015625)"/>
       <path d="M 556 4666 
L 1191 4666 
L 1191 1831 
Q 1191 1081 1462 751 
Q 1734 422 2344 422 
Q 2950 422 3222 751 
Q 3494 1081 3494 1831 
L 3494 4666 
L 4128 4666 
L 4128 1753 
Q 4128 841 3676 375 
Q 3225 -91 2344 -91 
Q 1459 -91 1007 375 
Q 556 841 556 1753 
L 556 4666 
z
" id="DejaVuSans-55" transform="scale(0.015625)"/>
      </defs>
      <use xlink:href="#DejaVuSans-4d"/>
      <use x="86.279297" xlink:href="#DejaVuSans-44"/>
      <use x="163.28125" xlink:href="#DejaVuSans-54"/>
      <use x="224.365234" xlink:href="#DejaVuSans-55"/>
     </g>
    </g>
   </g>
   <g id="matplotlib.axis_2">
    <g id="ytick_1">
     <g id="text_8">
      <!-- 0.25 -->
      <g style="fill:#262626;" transform="translate(34.4275 594.531982)scale(0.22 -0.22)">
       <defs>
        <path d="M 684 794 
L 1344 794 
L 1344 0 
L 684 0 
L 684 794 
z
" id="DejaVuSans-2e" transform="scale(0.015625)"/>
        <path d="M 691 4666 
L 3169 4666 
L 3169 4134 
L 1269 4134 
L 1269 2991 
Q 1406 3038 1543 3061 
Q 1681 3084 1819 3084 
Q 2600 3084 3056 2656 
Q 3513 2228 3513 1497 
Q 3513 744 3044 326 
Q 2575 -91 1722 -91 
Q 1428 -91 1123 -41 
Q 819 9 494 109 
L 494 744 
Q 775 591 1075 516 
Q 1375 441 1709 441 
Q 2250 441 2565 725 
Q 2881 1009 2881 1497 
Q 2881 1984 2565 2268 
Q 2250 2553 1709 2553 
Q 1456 2553 1204 2497 
Q 953 2441 691 2322 
L 691 4666 
z
" id="DejaVuSans-35" transform="scale(0.015625)"/>
       </defs>
       <use xlink:href="#DejaVuSans-30"/>
       <use x="63.623047" xlink:href="#DejaVuSans-2e"/>
       <use x="95.410156" xlink:href="#DejaVuSans-32"/>
       <use x="159.033203" xlink:href="#DejaVuSans-35"/>
      </g>
     </g>
    </g>
    <g id="ytick_2">
     <g id="text_9">
      <!-- 0.50 -->
      <g style="fill:#262626;" transform="translate(34.4275 531.656107)scale(0.22 -0.22)">
       <use xlink:href="#DejaVuSans-30"/>
       <use x="63.623047" xlink:href="#DejaVuSans-2e"/>
       <use x="95.410156" xlink:href="#DejaVuSans-35"/>
       <use x="159.033203" xlink:href="#DejaVuSans-30"/>
      </g>
     </g>
    </g>
    <g id="ytick_3">
     <g id="text_10">
      <!-- 0.75 -->
      <g style="fill:#262626;" transform="translate(34.4275 468.780232)scale(0.22 -0.22)">
       <defs>
        <path d="M 525 4666 
L 3525 4666 
L 3525 4397 
L 1831 0 
L 1172 0 
L 2766 4134 
L 525 4134 
L 525 4666 
z
" id="DejaVuSans-37" transform="scale(0.015625)"/>
       </defs>
       <use xlink:href="#DejaVuSans-30"/>
       <use x="63.623047" xlink:href="#DejaVuSans-2e"/>
       <use x="95.410156" xlink:href="#DejaVuSans-37"/>
       <use x="159.033203" xlink:href="#DejaVuSans-35"/>
      </g>
     </g>
    </g>
    <g id="ytick_4">
     <g id="text_11">
      <!-- 1.00 -->
      <g style="fill:#262626;" transform="translate(34.4275 405.904357)scale(0.22 -0.22)">
       <use xlink:href="#DejaVuSans-31"/>
       <use x="63.623047" xlink:href="#DejaVuSans-2e"/>
       <use x="95.410156" xlink:href="#DejaVuSans-30"/>
       <use x="159.033203" xlink:href="#DejaVuSans-30"/>
      </g>
     </g>
    </g>
    <g id="ytick_5">
     <g id="text_12">
      <!-- 1.25 -->
      <g style="fill:#262626;" transform="translate(34.4275 343.028482)scale(0.22 -0.22)">
       <use xlink:href="#DejaVuSans-31"/>
       <use x="63.623047" xlink:href="#DejaVuSans-2e"/>
       <use x="95.410156" xlink:href="#DejaVuSans-32"/>
       <use x="159.033203" xlink:href="#DejaVuSans-35"/>
      </g>
     </g>
    </g>
    <g id="ytick_6">
     <g id="text_13">
      <!-- 1.50 -->
      <g style="fill:#262626;" transform="translate(34.4275 280.152608)scale(0.22 -0.22)">
       <use xlink:href="#DejaVuSans-31"/>
       <use x="63.623047" xlink:href="#DejaVuSans-2e"/>
       <use x="95.410156" xlink:href="#DejaVuSans-35"/>
       <use x="159.033203" xlink:href="#DejaVuSans-30"/>
      </g>
     </g>
    </g>
    <g id="ytick_7">
     <g id="text_14">
      <!-- 1.75 -->
      <g style="fill:#262626;" transform="translate(34.4275 217.276733)scale(0.22 -0.22)">
       <use xlink:href="#DejaVuSans-31"/>
       <use x="63.623047" xlink:href="#DejaVuSans-2e"/>
       <use x="95.410156" xlink:href="#DejaVuSans-37"/>
       <use x="159.033203" xlink:href="#DejaVuSans-35"/>
      </g>
     </g>
    </g>
    <g id="ytick_8">
     <g id="text_15">
      <!-- 2.00 -->
      <g style="fill:#262626;" transform="translate(34.4275 154.400858)scale(0.22 -0.22)">
       <use xlink:href="#DejaVuSans-32"/>
       <use x="63.623047" xlink:href="#DejaVuSans-2e"/>
       <use x="95.410156" xlink:href="#DejaVuSans-30"/>
       <use x="159.033203" xlink:href="#DejaVuSans-30"/>
      </g>
     </g>
    </g>
    <g id="text_16">
     <!-- $E$ -->
     <g style="fill:#262626;" transform="translate(25.43625 364.352286)rotate(-90)scale(0.24 -0.24)">
      <defs>
       <path d="M 1081 4666 
L 4031 4666 
L 3928 4134 
L 1606 4134 
L 1338 2753 
L 3566 2753 
L 3463 2222 
L 1234 2222 
L 909 531 
L 3284 531 
L 3181 0 
L 172 0 
L 1081 4666 
z
" id="DejaVuSans-Oblique-45" transform="scale(0.015625)"/>
      </defs>
      <use transform="translate(0 0.09375)" xlink:href="#DejaVuSans-Oblique-45"/>
     </g>
    </g>
   </g>
   <g id="line2d_1">
    <path clip-path="url(#pd17d30d662)" d="M 120.856213 488.431333 
L 121.075766 508.939407 
L 121.295319 432.140961 
L 121.514872 526.618251 
L 121.734425 474.320979 
L 121.953978 514.318769 
L 122.173532 499.494845 
L 122.393085 441.568871 
L 122.612638 480.647626 
L 122.832191 435.398681 
L 123.051744 471.482991 
L 123.271297 413.530494 
L 123.710404 537.121111 
L 123.929957 488.257704 
L 124.14951 497.426993 
L 124.369063 357.381421 
L 124.588616 458.126841 
L 124.808169 447.525158 
L 125.027723 408.140408 
L 125.247276 487.350109 
L 125.466829 498.069522 
L 125.905935 412.650093 
L 126.125488 314.938615 
L 126.345041 432.911068 
L 126.564595 489.209176 
L 126.784148 408.939506 
L 127.003701 533.834006 
L 127.223254 404.972256 
L 127.442807 533.234251 
L 127.66236 392.247853 
L 128.101467 491.925988 
L 128.32102 393.692798 
L 128.540573 490.494946 
L 128.760126 415.127446 
L 128.979679 485.016282 
L 129.199232 483.691635 
L 129.418786 430.822206 
L 129.638339 516.629934 
L 129.857892 389.874502 
L 130.077445 443.457294 
L 130.296998 421.773515 
L 130.516551 425.592936 
L 130.736105 495.816622 
L 130.955658 446.447827 
L 131.175211 473.288926 
L 131.394764 398.478249 
L 131.614317 478.574305 
L 131.83387 509.199142 
L 132.053423 475.407625 
L 132.272977 474.772017 
L 132.49253 536.677432 
L 132.712083 508.798131 
L 132.931636 438.477501 
L 133.151189 472.101647 
L 133.370742 460.593774 
L 133.590296 262.332752 
L 133.809849 536.860243 
L 134.029402 249.813625 
L 134.248955 542.805484 
L 134.468508 338.244588 
L 134.688061 449.812202 
L 134.907614 423.992326 
L 135.127168 531.526896 
L 135.346721 411.79203 
L 135.566274 511.80573 
L 135.785827 372.107866 
L 136.00538 421.899954 
L 136.224933 419.257127 
L 136.444487 510.124343 
L 136.66404 458.038561 
L 137.103146 495.89514 
L 137.322699 495.177241 
L 137.542252 480.88568 
L 137.761805 531.226594 
L 137.981359 482.819186 
L 138.200912 471.357334 
L 138.420465 513.560059 
L 138.640018 435.915011 
L 138.859571 423.218697 
L 139.079124 465.107142 
L 139.298678 412.369301 
L 139.518231 432.02722 
L 139.737784 505.688728 
L 139.957337 459.817661 
L 140.396443 493.082303 
L 140.615996 545.434284 
L 141.055103 488.466737 
L 141.274656 429.768205 
L 141.494209 411.93303 
L 141.713762 411.376408 
L 141.933315 392.111084 
L 142.152869 527.887265 
L 142.372422 502.740077 
L 142.591975 460.799031 
L 142.811528 355.862416 
L 143.031081 471.400993 
L 143.250634 438.222223 
L 143.470187 449.714488 
L 143.689741 475.37332 
L 143.909294 326.639364 
L 144.128847 448.6865 
L 144.3484 473.536585 
L 144.567953 539.785515 
L 144.787506 401.499113 
L 145.00706 517.524182 
L 145.226613 509.344441 
L 145.446166 479.013662 
L 145.665719 337.221198 
L 145.885272 478.622482 
L 146.104825 535.540554 
L 146.324378 500.942596 
L 146.543932 332.212682 
L 146.763485 521.081054 
L 147.202591 319.708117 
L 147.641697 435.86135 
L 147.861251 525.802993 
L 148.080804 416.504431 
L 148.300357 408.212153 
L 148.51991 378.577385 
L 148.739463 488.549598 
L 148.959016 475.609019 
L 149.178569 452.105531 
L 149.398123 469.174236 
L 150.056782 300.212141 
L 150.276335 396.340198 
L 150.495888 349.751933 
L 150.715441 479.164576 
L 150.934995 485.043711 
L 151.154548 452.009126 
L 151.374101 340.297552 
L 151.813207 528.398798 
L 152.03276 532.755512 
L 152.252314 249.833514 
L 152.69142 462.339836 
L 152.910973 483.059134 
L 153.130526 437.317883 
L 153.350079 544.752864 
L 153.569632 384.940347 
L 154.008739 527.112408 
L 154.228292 483.276364 
L 154.667398 536.5766 
L 154.886951 493.544457 
L 155.326058 452.347167 
L 155.545611 426.705758 
L 155.765164 450.167925 
L 155.984717 486.251624 
L 156.20427 428.170436 
L 156.423823 403.426811 
L 156.643377 391.561906 
L 156.86293 558.633795 
L 157.082483 369.610434 
L 157.302036 452.430705 
L 157.521589 365.544494 
L 157.741142 511.417529 
L 157.960696 418.638324 
L 158.180249 466.205617 
L 158.399802 320.546788 
L 158.619355 489.696454 
L 158.838908 511.948663 
L 159.058461 418.462628 
L 159.278014 403.566896 
L 159.497568 530.842718 
L 159.717121 490.743659 
L 159.936674 502.357877 
L 160.156227 466.569247 
L 160.37578 566.134136 
L 160.595333 473.51973 
L 160.814887 513.481468 
L 161.03444 381.967638 
L 161.253993 460.692368 
L 161.473546 332.426279 
L 161.693099 542.748477 
L 161.912652 503.639618 
L 162.132205 358.289397 
L 162.351759 475.576591 
L 162.571312 295.961828 
L 162.790865 470.271791 
L 163.229971 426.985598 
L 163.449524 457.467954 
L 163.669078 294.779093 
L 163.888631 515.369922 
L 164.108184 465.631722 
L 164.327737 499.241768 
L 164.54729 447.645243 
L 164.766843 444.800797 
L 164.986396 483.545756 
L 165.20595 457.836303 
L 165.425503 504.985109 
L 165.645056 413.700881 
L 165.864609 380.029677 
L 166.084162 557.199494 
L 166.303715 548.554192 
L 166.523269 362.087866 
L 166.742822 569.419963 
L 167.181928 335.658231 
L 167.401481 411.289349 
L 167.621034 338.419635 
L 167.840587 469.257339 
L 168.060141 526.771021 
L 168.279694 447.931757 
L 168.499247 468.051323 
L 168.938353 369.777035 
L 169.157906 502.060881 
L 169.37746 541.037914 
L 169.597013 446.754038 
L 169.816566 493.347019 
L 170.036119 408.99162 
L 170.255672 499.529635 
L 170.694778 415.123401 
L 170.914332 533.90871 
L 171.133885 543.265403 
L 171.353438 423.876733 
L 171.572991 529.367495 
L 171.792544 468.13777 
L 172.012097 498.360921 
L 172.231651 359.638904 
L 172.670757 438.645604 
L 172.89031 273.167199 
L 173.109863 495.935123 
L 173.329416 451.359115 
L 173.548969 381.110999 
L 173.988076 508.943417 
L 174.207629 407.098576 
L 174.427182 501.112734 
L 174.646735 352.111882 
L 174.866288 399.549245 
L 175.085842 350.684766 
L 175.305395 576.90594 
L 175.524948 453.180011 
L 175.744501 482.820871 
L 175.964054 406.997975 
L 176.40316 498.389479 
L 176.622714 295.883565 
L 176.842267 513.638252 
L 177.06182 542.633257 
L 177.281373 458.611899 
L 177.720479 492.738519 
L 177.940032 409.077522 
L 178.159586 462.66013 
L 178.379139 426.100759 
L 178.598692 327.797092 
L 178.818245 446.104433 
L 179.037798 406.390484 
L 179.257351 528.294758 
L 179.476905 435.440628 
L 179.916011 505.140067 
L 180.135564 469.322888 
L 180.355117 505.995798 
L 180.57467 442.950157 
L 180.794223 476.540189 
L 181.013777 527.914537 
L 181.23333 437.039408 
L 181.452883 404.124012 
L 182.111542 507.194931 
L 182.550649 476.347063 
L 182.770202 533.65968 
L 183.209308 450.145764 
L 183.428861 443.276288 
L 183.648414 458.761196 
L 183.867968 412.779927 
L 184.087521 410.05591 
L 184.526627 540.939588 
L 184.74618 519.927059 
L 184.965733 514.312707 
L 185.40484 406.150386 
L 185.624393 444.584765 
L 185.843946 430.566481 
L 186.063499 443.884644 
L 186.283052 242.213439 
L 186.722159 536.646719 
L 186.941712 411.721196 
L 187.161265 454.870204 
L 187.380818 458.830518 
L 187.600371 448.069894 
L 187.819924 396.859055 
L 188.039478 531.176133 
L 188.259031 463.62947 
L 188.478584 470.445997 
L 188.91769 526.244795 
L 189.137243 425.441837 
L 189.356796 472.117312 
L 189.57635 452.88525 
L 189.795903 398.619997 
L 190.015456 467.959497 
L 190.235009 432.650237 
L 190.454562 446.838204 
L 190.674115 492.942038 
L 190.893669 511.801743 
L 191.113222 399.483236 
L 191.332775 403.371652 
L 191.552328 503.229059 
L 191.991434 265.82819 
L 192.210987 482.01418 
L 192.430541 541.028991 
L 192.650094 463.974994 
L 192.869647 460.549649 
L 193.0892 303.426403 
L 193.528306 468.605817 
L 193.74786 479.941125 
L 193.967413 381.405885 
L 194.186966 392.345255 
L 194.406519 454.111184 
L 194.626072 555.916854 
L 194.845625 313.558024 
L 195.065178 478.79774 
L 195.284732 414.682463 
L 195.504285 461.047446 
L 195.723838 331.665491 
L 195.943391 426.707765 
L 196.162944 469.099062 
L 196.382497 474.42684 
L 196.602051 415.186464 
L 196.821604 459.722868 
L 197.041157 532.387623 
L 197.26071 492.291653 
L 197.480263 381.631702 
L 197.699816 351.01472 
L 197.919369 441.661263 
L 198.138923 444.262425 
L 198.358476 430.529918 
L 198.578029 323.348629 
L 198.797582 400.975748 
L 199.017135 425.429768 
L 199.236688 419.852213 
L 199.675795 549.269976 
L 199.895348 391.529102 
L 200.114901 327.796576 
L 200.334454 470.494522 
L 200.554007 378.644439 
L 200.77356 467.441012 
L 200.993114 463.84281 
L 201.212667 465.023549 
L 201.43222 464.132008 
L 201.651773 428.769579 
L 201.871326 489.820388 
L 202.090879 428.246761 
L 202.310432 500.56082 
L 202.529986 487.414966 
L 202.749539 514.247415 
L 202.969092 482.949398 
L 203.188645 500.378623 
L 203.408198 484.063828 
L 203.627751 503.650979 
L 203.847305 505.400975 
L 204.286411 400.658021 
L 204.505964 471.569829 
L 204.94507 511.719164 
L 205.164623 507.717805 
L 205.384177 387.275605 
L 205.60373 494.631854 
L 205.823283 474.801382 
L 206.262389 467.665543 
L 206.481942 499.048717 
L 206.701496 486.849294 
L 206.921049 423.75279 
L 207.360155 518.230823 
L 207.579708 442.008691 
L 208.018814 484.937115 
L 208.457921 395.089395 
L 208.677474 436.556569 
L 208.897027 359.004341 
L 209.11658 501.180633 
L 209.336133 528.759796 
L 209.77524 352.565168 
L 209.994793 433.101271 
L 210.214346 442.293854 
L 210.433899 418.397315 
L 210.653452 447.088151 
L 210.873005 507.368246 
L 211.092559 381.254409 
L 211.312112 461.134505 
L 211.531665 491.751584 
L 211.751218 458.302522 
L 211.970771 335.924294 
L 212.190324 494.614999 
L 212.409878 482.541952 
L 212.629431 544.379219 
L 212.848984 516.385136 
L 213.28809 427.514699 
L 213.507643 425.369918 
L 213.727196 282.687504 
L 213.94675 335.069917 
L 214.385856 502.011499 
L 215.044515 301.657024 
L 215.264069 285.467087 
L 215.483622 443.479531 
L 215.703175 431.053984 
L 215.922728 402.733404 
L 216.142281 411.843096 
L 216.361834 363.037875 
L 216.581387 460.855707 
L 216.800941 467.162328 
L 217.020494 489.289484 
L 217.240047 418.062835 
L 217.4596 446.703888 
L 217.679153 380.176613 
L 217.898706 552.283245 
L 218.11826 454.0633 
L 218.337813 451.079607 
L 218.557366 458.70322 
L 218.776919 474.848683 
L 218.996472 513.815162 
L 219.216025 495.0293 
L 219.435578 542.21975 
L 219.655132 552.618021 
L 219.874685 445.35936 
L 220.094238 522.957862 
L 220.313791 551.841316 
L 220.752897 452.663684 
L 221.192004 516.572745 
L 221.63111 386.136279 
L 221.850663 410.904479 
L 222.070216 536.099729 
L 222.509323 393.675385 
L 222.728876 412.148806 
L 222.948429 510.373784 
L 223.167982 396.224196 
L 223.387535 524.694363 
L 223.607088 407.157545 
L 223.826642 523.996388 
L 224.046195 478.459291 
L 224.265748 476.161341 
L 224.485301 425.326685 
L 224.924407 542.739193 
L 225.14396 506.850355 
L 225.363514 406.156486 
L 225.583067 491.388638 
L 225.80262 396.082027 
L 226.022173 427.564777 
L 226.241726 508.307373 
L 226.461279 444.251804 
L 226.680833 508.877939 
L 226.900386 433.491114 
L 227.119939 425.458047 
L 227.339492 525.968494 
L 227.559045 438.411519 
L 227.778598 461.578701 
L 227.998151 499.967086 
L 228.217705 303.068797 
L 228.437258 490.928927 
L 228.656811 451.036038 
L 228.876364 471.173365 
L 229.095917 503.193749 
L 229.31547 494.608187 
L 229.535023 475.629031 
L 229.754577 439.789858 
L 229.97413 470.318627 
L 230.193683 467.170762 
L 230.413236 452.334247 
L 230.632789 326.830918 
L 230.852342 527.538425 
L 231.071896 422.357686 
L 231.291449 508.836206 
L 231.511002 485.148201 
L 231.950108 336.270094 
L 232.169661 362.239912 
L 232.389214 481.634558 
L 232.608768 391.426728 
L 232.828321 511.662662 
L 233.267427 435.248238 
L 233.48698 504.431101 
L 233.706533 505.990004 
L 233.926087 424.560288 
L 234.14564 496.706298 
L 234.365193 430.811861 
L 234.584746 436.500641 
L 234.804299 480.354328 
L 235.023852 472.940255 
L 235.243405 368.598928 
L 235.462959 487.798748 
L 235.682512 523.055573 
L 236.121618 368.228458 
L 236.341171 557.787506 
L 236.560724 429.508527 
L 236.780278 524.909203 
L 236.999831 504.439398 
L 237.438937 359.702945 
L 237.65849 506.449076 
L 237.878043 496.344638 
L 238.097596 439.877189 
L 238.31715 464.634509 
L 238.536703 368.088359 
L 238.756256 507.60442 
L 238.975809 440.281422 
L 239.195362 474.641261 
L 239.414915 460.562043 
L 239.634469 512.026346 
L 239.854022 454.01835 
L 240.073575 503.920391 
L 240.293128 445.012872 
L 240.512681 423.443539 
L 240.732234 429.110305 
L 240.951787 503.079749 
L 241.171341 409.482059 
L 241.83 532.418253 
L 242.049553 489.301149 
L 242.269106 482.733135 
L 242.48866 481.216715 
L 242.708213 504.714644 
L 242.927766 352.364726 
L 243.147319 408.375874 
L 243.366872 569.422774 
L 243.586425 517.0738 
L 243.805978 558.794618 
L 244.025532 431.201749 
L 244.245085 441.459891 
L 244.464638 523.64907 
L 244.684191 404.865038 
L 244.903744 357.373702 
L 245.123297 359.300598 
L 245.342851 513.836971 
L 245.562404 414.657527 
L 245.781957 480.869166 
L 246.00151 489.174624 
L 246.221063 527.693973 
L 246.440616 464.758462 
L 246.660169 481.266112 
L 246.879723 450.687189 
L 247.099276 276.979057 
L 247.318829 505.390764 
L 247.538382 538.581949 
L 247.757935 406.715077 
L 247.977488 361.712851 
L 248.197042 460.12211 
L 248.416595 506.875222 
L 248.636148 452.109189 
L 248.855701 452.417774 
L 249.075254 428.535429 
L 249.51436 540.807857 
L 249.733914 385.452855 
L 249.953467 406.579443 
L 250.392573 478.522558 
L 250.612126 365.25942 
L 250.831679 510.360433 
L 251.051233 479.391891 
L 251.270786 517.071394 
L 251.490339 500.715907 
L 251.709892 387.570449 
L 251.929445 497.770813 
L 252.148998 407.64749 
L 252.368551 436.881343 
L 252.588105 529.889178 
L 252.807658 477.266771 
L 253.027211 527.884506 
L 253.246764 450.440058 
L 253.466317 485.527945 
L 253.68587 359.783186 
L 253.905424 553.018771 
L 254.124977 415.750597 
L 254.34453 547.000013 
L 254.564083 493.653148 
L 254.783636 380.830823 
L 255.003189 513.024711 
L 255.222742 514.783128 
L 255.442296 417.530592 
L 255.661849 520.965631 
L 255.881402 536.466544 
L 256.100955 535.111476 
L 256.320508 345.943037 
L 256.759614 529.691379 
L 256.979168 468.932523 
L 257.198721 499.030862 
L 257.418274 282.625619 
L 257.85738 469.971022 
L 258.076933 424.600279 
L 258.296487 447.928768 
L 258.735593 389.228603 
L 258.955146 374.801563 
L 259.174699 499.742404 
L 259.394252 488.387924 
L 259.613805 455.797576 
L 259.833359 299.277205 
L 260.052912 287.823413 
L 260.272465 490.876888 
L 260.492018 499.910811 
L 260.711571 326.418464 
L 260.931124 517.419211 
L 261.150678 426.954206 
L 261.370231 468.578555 
L 261.589784 474.39289 
L 261.809337 378.482061 
L 262.02889 485.059478 
L 262.248443 533.139027 
L 262.467996 443.941803 
L 263.126656 527.000039 
L 263.346209 433.984988 
L 263.565762 473.381771 
L 263.785315 414.849136 
L 264.004869 397.668916 
L 264.224422 515.723413 
L 264.443975 422.226818 
L 264.663528 479.300959 
L 264.883081 282.905189 
L 265.102634 466.051791 
L 265.322187 464.882682 
L 265.541741 441.911198 
L 265.761294 368.862169 
L 265.980847 503.046725 
L 266.2004 376.736636 
L 266.419953 374.329735 
L 266.639506 320.14588 
L 266.85906 542.814512 
L 267.078613 415.026133 
L 267.298166 538.936527 
L 267.517719 419.789881 
L 267.737272 480.053766 
L 267.956825 404.115851 
L 268.176378 459.838766 
L 268.395932 426.328058 
L 268.615485 532.797431 
L 268.835038 352.062668 
L 269.054591 531.910612 
L 269.274144 532.495887 
L 269.493697 493.102391 
L 269.713251 526.895155 
L 269.932804 498.686115 
L 270.152357 543.181517 
L 270.37191 401.346554 
L 270.591463 516.460057 
L 270.811016 430.897251 
L 271.030569 401.591978 
L 271.250123 278.342152 
L 271.689229 552.342867 
L 271.908782 532.057755 
L 272.128335 427.201207 
L 272.347888 523.677311 
L 272.567442 332.455247 
L 272.786995 459.152753 
L 273.006548 423.080214 
L 273.226101 439.803837 
L 273.665207 530.37966 
L 273.88476 457.160872 
L 274.104314 311.183971 
L 274.323867 313.791001 
L 274.762973 518.941455 
L 274.982526 362.782308 
L 275.202079 501.617205 
L 275.421633 423.24499 
L 275.641186 430.168966 
L 275.860739 463.831907 
L 276.080292 356.274101 
L 276.299845 424.628179 
L 276.519398 541.470668 
L 276.738951 528.602458 
L 276.958505 485.172104 
L 277.178058 500.636247 
L 277.397611 554.283651 
L 277.617164 549.586136 
L 277.836717 382.45935 
L 278.05627 518.522522 
L 278.275824 456.324993 
L 278.495377 488.302041 
L 278.71493 454.148266 
L 278.934483 327.939215 
L 279.154036 346.04509 
L 279.373589 521.548453 
L 279.593142 502.478991 
L 279.812696 442.17565 
L 280.032249 472.496978 
L 280.251802 364.915273 
L 280.471355 506.259868 
L 280.690908 494.93894 
L 280.910461 477.055368 
L 281.130014 417.416791 
L 281.349568 518.113038 
L 281.569121 485.902402 
L 281.788674 414.147801 
L 282.008227 554.561525 
L 282.22778 515.400469 
L 282.447333 411.228496 
L 282.666887 495.636985 
L 282.88644 486.748524 
L 283.105993 530.921428 
L 283.325546 471.580334 
L 283.545099 482.204045 
L 283.764652 519.312884 
L 284.203759 547.638195 
L 284.862418 396.022348 
L 285.301524 525.015133 
L 285.521078 343.537452 
L 285.740631 445.552732 
L 285.960184 411.251436 
L 286.179737 440.599471 
L 286.39929 444.958578 
L 286.838396 509.90999 
L 287.05795 440.025604 
L 287.277503 447.924443 
L 287.497056 451.409652 
L 287.716609 484.03392 
L 287.936162 453.438825 
L 288.375269 542.206836 
L 288.594822 457.657568 
L 288.814375 515.272669 
L 289.033928 370.681934 
L 289.253481 329.939038 
L 289.473034 572.061604 
L 289.692587 363.960133 
L 289.912141 487.03309 
L 290.131694 412.474072 
L 290.5708 557.741384 
L 291.009906 485.530599 
L 291.22946 349.405304 
L 291.449013 463.138309 
L 291.668566 448.854209 
L 291.888119 478.290566 
L 292.107672 401.034926 
L 292.546778 496.073706 
L 292.766332 453.412669 
L 292.985885 454.556581 
L 293.205438 363.344464 
L 293.424991 522.056211 
L 293.644544 377.982157 
L 294.083651 467.969458 
L 294.303204 464.285465 
L 294.522757 489.47243 
L 294.74231 395.176738 
L 294.961863 380.153169 
L 295.400969 524.895939 
L 295.620523 535.136333 
L 295.840076 434.024662 
L 296.059629 419.636654 
L 296.279182 397.38977 
L 296.498735 473.426855 
L 296.718288 260.983088 
L 296.937842 479.043934 
L 297.376948 456.251783 
L 297.596501 355.055847 
L 297.816054 467.316632 
L 298.035607 460.386201 
L 298.25516 525.0713 
L 298.474714 430.716564 
L 298.694267 522.181397 
L 298.91382 490.744446 
L 299.133373 511.069619 
L 299.352926 427.991291 
L 299.572479 512.090853 
L 299.792033 411.20772 
L 300.011586 377.28345 
L 300.231139 473.725892 
L 300.450692 430.918929 
L 300.670245 466.634419 
L 300.889798 535.333746 
L 301.109351 438.228686 
L 301.328905 506.603646 
L 301.548458 424.420104 
L 301.768011 394.958738 
L 301.987564 532.112034 
L 302.207117 441.783703 
L 302.646224 506.923439 
L 302.865777 459.369422 
L 303.08533 470.311639 
L 303.304883 331.848139 
L 303.524436 551.058146 
L 304.183096 376.290803 
L 304.402649 450.593828 
L 304.622202 477.664454 
L 304.841755 488.677898 
L 305.061308 357.245444 
L 305.280861 517.70315 
L 305.500415 353.360011 
L 305.719968 542.225031 
L 305.939521 250.451927 
L 306.159074 510.673412 
L 306.378627 403.462567 
L 306.59818 413.87996 
L 306.817733 526.231027 
L 307.037287 446.010198 
L 307.25684 519.890003 
L 307.476393 350.434295 
L 307.695946 511.781072 
L 307.915499 477.740483 
L 308.135052 421.768716 
L 308.354605 423.511897 
L 308.574159 500.517967 
L 308.793712 500.142564 
L 309.232818 347.954684 
L 309.452371 466.335142 
L 309.671924 473.280764 
L 309.891478 351.439478 
L 310.76969 505.023654 
L 310.989243 521.025346 
L 311.208796 288.7223 
L 311.42835 534.548735 
L 311.647903 526.298659 
L 311.867456 544.29727 
L 312.087009 356.565049 
L 312.306562 460.895188 
L 312.526115 418.625552 
L 312.745669 503.419139 
L 312.965222 500.96412 
L 313.184775 518.654318 
L 313.404328 332.610253 
L 313.623881 421.179045 
L 313.843434 400.090519 
L 314.062987 397.163513 
L 314.282541 354.754066 
L 314.502094 381.793487 
L 314.721647 458.947475 
L 314.9412 474.992692 
L 315.160753 551.172961 
L 315.59986 450.434351 
L 315.819413 453.005702 
L 316.038966 470.399991 
L 316.258519 470.903921 
L 316.697625 395.782918 
L 316.917178 516.496888 
L 317.136732 469.43583 
L 317.356285 375.497348 
L 317.575838 551.567735 
L 317.795391 465.717188 
L 318.014944 543.025195 
L 318.234497 475.932395 
L 318.454051 549.343593 
L 318.673604 495.976696 
L 318.893157 499.451831 
L 319.11271 446.530504 
L 319.332263 502.215933 
L 319.551816 436.279224 
L 319.771369 457.930038 
L 319.990923 392.748281 
L 320.210476 411.639906 
L 320.430029 492.392026 
L 320.649582 386.117647 
L 320.869135 474.584361 
L 321.088688 410.58108 
L 321.308242 457.005778 
L 321.527795 528.234728 
L 321.747348 454.567238 
L 321.966901 504.224472 
L 322.186454 440.191628 
L 322.406007 519.296373 
L 322.62556 479.569136 
L 322.845114 410.013823 
L 323.064667 513.238515 
L 323.28422 464.487438 
L 323.723326 553.035426 
L 323.942879 504.943155 
L 324.162433 425.992049 
L 324.381986 452.161588 
L 324.601539 462.291091 
L 324.821092 513.373208 
L 325.040645 526.078371 
L 325.260198 442.704891 
L 325.479751 442.156007 
L 325.699305 475.169833 
L 325.918858 467.444257 
L 326.357964 334.738199 
L 326.577517 510.879093 
L 326.79707 408.198596 
L 327.016624 531.253088 
L 327.236177 486.932853 
L 327.45573 481.296164 
L 327.675283 499.811778 
L 327.894836 503.743289 
L 328.114389 462.186185 
L 328.333942 530.674611 
L 328.553496 464.001652 
L 328.773049 472.469095 
L 328.992602 527.95996 
L 329.212155 427.293684 
L 329.431708 449.841255 
L 329.651261 438.543047 
L 329.870815 507.255076 
L 330.090368 537.824175 
L 330.309921 392.052009 
L 330.529474 459.228124 
L 330.749027 459.295697 
L 330.96858 473.969685 
L 331.188133 452.843596 
L 331.407687 534.455214 
L 331.62724 474.591248 
L 331.846793 545.624904 
L 332.066346 472.238951 
L 332.285899 478.15671 
L 332.505452 522.992227 
L 332.725006 413.281634 
L 332.944559 478.528868 
L 333.164112 285.629996 
L 333.383665 424.365859 
L 333.603218 484.313762 
L 333.822771 400.227299 
L 334.042324 466.403379 
L 334.261878 440.407396 
L 334.481431 482.432542 
L 334.700984 419.621043 
L 335.14009 510.475154 
L 335.359643 409.514921 
L 335.579196 520.646044 
L 335.79875 378.950138 
L 336.018303 447.172226 
L 336.237856 450.738114 
L 336.457409 427.574833 
L 336.676962 390.851394 
L 336.896515 423.433015 
L 337.116069 424.306944 
L 337.335622 449.744576 
L 337.555175 407.464801 
L 337.774728 388.253247 
L 337.994281 467.974129 
L 338.213834 453.048184 
L 338.433387 399.524784 
L 338.652941 452.463201 
L 338.872494 442.442294 
L 339.092047 450.632611 
L 339.3116 493.700926 
L 339.531153 459.837105 
L 339.750706 398.777372 
L 339.97026 427.306564 
L 340.189813 530.461752 
L 340.848472 378.861262 
L 341.068025 368.340526 
L 341.287578 440.433936 
L 341.507132 449.82409 
L 341.726685 515.235135 
L 341.946238 461.601359 
L 342.165791 475.269915 
L 342.385344 431.734298 
L 342.604897 501.559677 
L 342.824451 439.686233 
L 343.044004 487.151595 
L 343.263557 467.602718 
L 343.48311 468.675294 
L 343.702663 414.138502 
L 343.922216 468.322117 
L 344.141769 471.1653 
L 344.361323 490.098543 
L 344.580876 533.910373 
L 345.019982 350.949049 
L 345.239535 522.821695 
L 345.459088 509.743985 
L 345.678642 516.09866 
L 345.898195 482.822541 
L 346.117748 407.209325 
L 346.337301 546.819874 
L 346.556854 528.59766 
L 346.776407 328.809604 
L 346.99596 499.702147 
L 347.215514 519.475335 
L 347.435067 441.610961 
L 347.65462 481.331419 
L 347.874173 319.715806 
L 348.093726 365.943027 
L 348.313279 537.791921 
L 348.532833 473.674454 
L 348.752386 347.424228 
L 348.971939 484.002146 
L 349.191492 488.17739 
L 349.411045 389.902521 
L 349.630598 520.693576 
L 349.850151 330.858357 
L 350.069705 524.082058 
L 350.508811 467.688917 
L 350.728364 434.428629 
L 350.947917 560.163473 
L 351.16747 459.229994 
L 351.387024 508.45549 
L 351.606577 424.963663 
L 351.82613 429.883841 
L 352.045683 500.527821 
L 352.265236 362.526066 
L 352.484789 496.671628 
L 352.704342 438.855537 
L 352.923896 465.652663 
L 353.143449 344.783374 
L 353.363002 461.824732 
L 353.802108 470.090347 
L 354.021661 386.384671 
L 354.241215 361.996857 
L 354.460768 390.163966 
L 354.899874 515.143041 
L 355.119427 415.283058 
L 355.33898 564.367123 
L 355.558533 493.070448 
L 355.778087 482.743402 
L 355.99764 523.974779 
L 356.217193 354.727845 
L 356.436746 498.279065 
L 356.875852 461.577357 
L 357.095406 438.515997 
L 357.314959 393.637749 
L 357.534512 408.35776 
L 357.754065 512.493098 
L 357.973618 484.900955 
L 358.193171 491.927349 
L 358.412724 477.594567 
L 358.632278 439.650497 
L 358.851831 314.983987 
L 359.071384 418.709698 
L 359.290937 359.475356 
L 359.51049 490.220367 
L 359.730043 385.749513 
L 359.949596 483.139576 
L 360.16915 411.619248 
L 360.388703 528.886417 
L 360.608256 429.073185 
L 360.827809 528.4608 
L 361.266915 446.763283 
L 361.486469 460.084548 
L 361.706022 441.003663 
L 361.925575 378.082581 
L 362.145128 400.111165 
L 362.364681 493.068898 
L 362.584234 390.70798 
L 362.803787 459.76074 
L 363.242894 490.463507 
L 363.462447 475.283252 
L 363.682 417.452608 
L 363.901553 423.504889 
L 364.121106 476.804886 
L 364.34066 490.892796 
L 364.779766 474.088884 
L 364.999319 387.557844 
L 365.218872 512.064671 
L 365.438425 451.655224 
L 365.657978 478.834478 
L 365.877532 445.906163 
L 366.097085 366.780423 
L 366.536191 492.50896 
L 366.755744 459.081511 
L 366.975297 459.148817 
L 367.194851 350.129498 
L 367.414404 551.985151 
L 367.633957 495.039026 
L 367.85351 469.12056 
L 368.073063 413.656823 
L 368.292616 491.674869 
L 368.731723 415.281068 
L 368.951276 499.63115 
L 369.170829 471.422135 
L 369.390382 512.276062 
L 369.609935 483.859662 
L 369.829488 391.082542 
L 370.049042 536.082737 
L 370.268595 464.454156 
L 370.488148 486.496522 
L 370.707701 488.252346 
L 370.927254 515.258418 
L 371.146807 510.205133 
L 371.36636 539.969607 
L 371.585914 509.717657 
L 371.805467 506.473891 
L 372.02502 454.720877 
L 372.244573 456.714334 
L 372.464126 551.221169 
L 372.683679 474.094467 
L 372.903233 516.242923 
L 373.122786 532.308812 
L 373.342339 580.116476 
L 373.561892 480.415043 
L 373.781445 518.249474 
L 374.000998 370.140531 
L 374.440105 515.526384 
L 374.659658 390.200568 
L 374.879211 491.363399 
L 375.098764 508.062009 
L 375.318317 463.588253 
L 375.53787 486.112271 
L 375.757424 434.963182 
L 375.976977 421.973723 
L 376.19653 487.409606 
L 376.635636 545.711027 
L 376.855189 434.174589 
L 377.074742 551.678051 
L 377.294296 492.802392 
L 377.513849 490.111036 
L 377.952955 467.532152 
L 378.172508 471.937825 
L 378.611615 404.790414 
L 378.831168 495.75812 
L 379.050721 326.883854 
L 379.270274 327.020417 
L 379.70938 555.198825 
L 379.928933 407.824977 
L 380.148487 474.92673 
L 380.36804 444.920642 
L 380.587593 485.076486 
L 380.807146 432.515254 
L 381.026699 408.194406 
L 381.685359 506.901945 
L 381.904912 510.867296 
L 382.124465 435.113811 
L 382.344018 409.594679 
L 382.563571 484.140251 
L 382.783124 479.634405 
L 383.222231 454.712914 
L 383.661337 541.27708 
L 383.88089 434.932609 
L 384.100443 521.219569 
L 384.319997 541.800254 
L 384.53955 434.810175 
L 384.759103 441.705367 
L 385.198209 503.987194 
L 385.417762 411.104529 
L 385.637315 470.030368 
L 385.856869 402.204945 
L 386.076422 390.840865 
L 386.295975 364.779367 
L 386.515528 544.458869 
L 386.735081 395.548867 
L 386.954634 510.447933 
L 387.174187 471.445199 
L 387.393741 368.45518 
L 387.613294 487.426508 
L 387.832847 471.734907 
L 388.0524 404.819304 
L 388.271953 443.554604 
L 388.491506 281.693963 
L 388.71106 436.672258 
L 388.930613 410.18694 
L 389.150166 303.053345 
L 389.369719 467.575853 
L 389.589272 484.817534 
L 389.808825 514.993773 
L 390.028378 441.695466 
L 390.247932 326.490136 
L 390.467485 408.089603 
L 390.687038 542.157617 
L 390.906591 451.879358 
L 391.126144 278.523171 
L 391.345697 416.129962 
L 391.565251 392.878361 
L 391.784804 426.684091 
L 392.004357 425.129159 
L 392.22391 548.488183 
L 392.443463 509.707442 
L 392.663016 525.716562 
L 392.882569 531.679125 
L 393.102123 473.960736 
L 393.321676 491.460053 
L 393.541229 518.036004 
L 393.760782 281.137802 
L 393.980335 490.697871 
L 394.199888 410.551654 
L 394.419442 490.80373 
L 394.638995 340.44889 
L 395.078101 453.209326 
L 395.297654 429.43732 
L 395.517207 426.132503 
L 395.73676 363.200606 
L 395.956314 480.130923 
L 396.175867 451.987664 
L 396.39542 358.820985 
L 396.614973 328.159435 
L 396.834526 462.515642 
L 397.054079 393.292937 
L 397.273633 509.821393 
L 397.493186 489.150084 
L 397.712739 423.628079 
L 397.932292 538.080439 
L 398.151845 412.553711 
L 398.371398 353.589212 
L 398.810505 500.35185 
L 399.030058 522.606896 
L 399.249611 377.322279 
L 399.469164 517.583083 
L 399.688717 465.952635 
L 399.90827 508.064002 
L 400.127824 416.398548 
L 400.347377 481.95441 
L 400.56693 419.952932 
L 400.786483 455.861394 
L 401.006036 443.877768 
L 401.225589 381.166253 
L 401.445142 383.719743 
L 401.664696 479.703168 
L 401.884249 506.086697 
L 402.103802 501.96663 
L 402.323355 541.436037 
L 402.542908 488.813646 
L 402.762461 490.793347 
L 402.982015 443.595857 
L 403.201568 526.085803 
L 403.421121 425.823806 
L 403.640674 471.039245 
L 403.860227 445.579 
L 404.07978 454.22204 
L 404.299333 341.386828 
L 404.518887 502.178267 
L 404.73844 374.221044 
L 404.957993 484.181538 
L 405.177546 438.648002 
L 405.397099 504.704499 
L 405.616652 478.202166 
L 405.836206 338.97068 
L 406.055759 495.494349 
L 406.275312 424.574179 
L 406.494865 476.256124 
L 406.714418 421.858968 
L 406.933971 445.561816 
L 407.153524 504.325133 
L 407.373078 462.219961 
L 407.592631 462.528787 
L 407.812184 467.915254 
L 408.031737 500.144453 
L 408.25129 483.417336 
L 408.470843 513.233491 
L 408.690397 401.131317 
L 408.90995 470.437186 
L 409.129503 409.537545 
L 409.349056 493.664537 
L 409.568609 385.109936 
L 409.788162 481.684203 
L 410.007715 503.005293 
L 410.227269 190.492253 
L 410.446822 408.221161 
L 410.666375 320.719482 
L 410.885928 515.540882 
L 411.105481 402.443538 
L 411.544587 554.451037 
L 411.983694 330.612197 
L 412.203247 476.301688 
L 412.4228 359.767468 
L 412.642353 509.505183 
L 412.861906 506.16304 
L 413.08146 508.602978 
L 413.301013 503.49614 
L 413.520566 359.942211 
L 413.959672 528.959106 
L 414.179225 489.529997 
L 414.398778 548.042907 
L 414.618332 380.679197 
L 414.837885 470.456107 
L 415.057438 503.488156 
L 415.276991 421.938742 
L 415.496544 506.434777 
L 415.716097 442.912661 
L 415.935651 456.548934 
L 416.155204 501.750594 
L 416.374757 490.430138 
L 416.813863 443.028894 
L 417.033416 336.104112 
L 417.252969 460.414157 
L 417.472523 366.513383 
L 417.692076 367.680262 
L 417.911629 505.202541 
L 418.131182 504.732351 
L 418.350735 522.632184 
L 418.789842 334.950852 
L 419.009395 465.313723 
L 419.448501 446.125992 
L 419.668054 318.680633 
L 419.887607 522.908165 
L 420.10716 423.439807 
L 420.326714 494.088623 
L 420.546267 455.040231 
L 420.76582 533.739097 
L 420.985373 521.410278 
L 421.424479 394.498169 
L 421.644033 392.275519 
L 422.083139 545.727387 
L 422.302692 454.84483 
L 422.522245 472.6647 
L 422.741798 421.780067 
L 422.961351 342.259633 
L 423.180905 525.893977 
L 423.400458 506.095185 
L 423.620011 453.263604 
L 423.839564 357.654204 
L 424.059117 457.034364 
L 424.27867 488.401576 
L 424.498224 496.502392 
L 424.717777 452.444824 
L 424.93733 457.454884 
L 425.156883 539.808591 
L 425.376436 306.617755 
L 425.595989 467.77191 
L 425.815542 505.91444 
L 426.035096 414.51705 
L 426.254649 471.957246 
L 426.474202 437.191776 
L 426.693755 451.016542 
L 426.913308 447.067985 
L 427.132861 312.231505 
L 427.571968 511.236504 
L 427.791521 459.902241 
L 428.011074 547.182865 
L 428.230627 524.44796 
L 428.45018 438.351731 
L 428.669733 492.046072 
L 428.889287 487.694445 
L 429.10884 505.48747 
L 429.328393 448.948 
L 429.547946 496.311064 
L 429.767499 455.683147 
L 429.987052 519.590214 
L 430.206606 346.4792 
L 430.645712 501.78402 
L 430.865265 438.319486 
L 431.084818 435.236049 
L 431.304371 396.151124 
L 431.523924 462.978733 
L 431.743478 465.251659 
L 431.963031 458.191425 
L 432.182584 464.458029 
L 432.402137 427.017008 
L 432.62169 435.883283 
L 432.841243 486.01406 
L 433.060797 368.609665 
L 433.28035 487.18593 
L 433.499903 373.168613 
L 433.719456 410.637474 
L 433.939009 382.000841 
L 434.158562 407.064563 
L 434.378115 530.930001 
L 434.597669 556.142561 
L 434.817222 483.307164 
L 435.036775 469.305589 
L 435.256328 229.828408 
L 435.475881 472.15072 
L 435.695434 426.934321 
L 435.914988 301.760319 
L 436.134541 451.108593 
L 436.354094 478.920726 
L 436.573647 429.448526 
L 436.7932 315.605918 
L 437.012753 469.4996 
L 437.232306 412.572866 
L 437.45186 463.910375 
L 437.671413 421.55248 
L 437.890966 518.051541 
L 438.110519 531.744782 
L 438.330072 401.035082 
L 438.549625 518.065156 
L 438.769178 421.355052 
L 438.988732 500.142746 
L 439.427838 493.722705 
L 439.647391 408.777263 
L 439.866944 500.739529 
L 440.086497 538.256911 
L 440.306051 425.693497 
L 440.525604 458.407231 
L 440.745157 459.97955 
L 440.96471 368.64928 
L 441.403816 512.271814 
L 441.623369 471.024692 
L 441.842923 520.209965 
L 442.282029 434.150116 
L 442.501582 321.533913 
L 442.721135 442.814 
L 443.160242 517.355914 
L 443.379795 442.516101 
L 443.818901 509.454792 
L 444.038454 391.818964 
L 444.258007 407.707342 
L 444.47756 528.473285 
L 444.697114 307.30651 
L 444.916667 478.254188 
L 445.13622 490.699821 
L 445.355773 463.136099 
L 445.575326 511.059298 
L 445.794879 473.004587 
L 446.014433 520.419409 
L 446.233986 401.481253 
L 446.453539 346.089748 
L 446.673092 431.657806 
L 447.112198 482.642559 
L 447.331751 381.966007 
L 447.551305 457.96451 
L 447.770858 470.240559 
L 447.990411 493.362709 
L 448.209964 315.158889 
L 448.429517 367.120831 
L 448.64907 520.42258 
L 449.088177 431.854512 
L 449.30773 377.369852 
L 449.746836 579.496989 
L 449.966389 539.760222 
L 450.185942 247.641227 
L 450.405496 501.071066 
L 450.625049 525.126975 
L 450.844602 365.99919 
L 451.064155 389.313678 
L 451.503261 518.224101 
L 451.722815 428.172339 
L 451.942368 534.43633 
L 452.161921 533.029773 
L 452.381474 442.952107 
L 452.601027 495.48716 
L 452.82058 493.763005 
L 453.040133 426.630946 
L 453.259687 484.079583 
L 453.47924 367.299694 
L 453.698793 452.524375 
L 453.918346 453.874642 
L 454.137899 504.393127 
L 454.357452 262.483895 
L 454.577006 529.987042 
L 454.796559 474.394722 
L 455.016112 342.108614 
L 455.235665 490.080937 
L 455.455218 408.150081 
L 455.674771 479.636341 
L 455.894324 386.359393 
L 456.113878 380.155009 
L 456.333431 349.243205 
L 456.552984 463.386105 
L 456.772537 458.844571 
L 456.99209 470.636782 
L 457.211643 489.913223 
L 457.431197 433.950006 
L 457.65075 495.092964 
L 457.870303 517.219569 
L 458.309409 391.748109 
L 458.748515 536.065438 
L 458.968069 391.133888 
L 459.187622 462.096467 
L 459.407175 482.963677 
L 459.846281 444.7039 
L 460.065834 403.831251 
L 460.285388 438.749862 
L 460.504941 420.029466 
L 460.944047 534.053431 
L 461.383153 424.167203 
L 461.602706 468.661038 
L 461.82226 408.051737 
L 462.041813 502.653614 
L 462.261366 549.271661 
L 462.480919 507.288682 
L 462.700472 522.154047 
L 462.920025 292.372311 
L 463.359132 527.736667 
L 463.578685 526.453676 
L 463.798238 487.500447 
L 464.017791 326.26773 
L 464.237344 459.354598 
L 464.456897 350.257611 
L 464.676451 460.042635 
L 464.896004 399.877342 
L 465.33511 458.333382 
L 465.554663 407.234307 
L 465.774216 498.775855 
L 465.993769 483.349252 
L 466.213323 503.813379 
L 466.432876 488.309394 
L 466.871982 546.921633 
L 467.091535 340.333093 
L 467.311088 528.098375 
L 467.530642 498.437914 
L 467.750195 508.331832 
L 467.969748 381.471552 
L 468.189301 472.538278 
L 468.408854 417.047285 
L 468.84796 528.110522 
L 469.067514 549.910383 
L 469.287067 499.492586 
L 469.50662 574.841957 
L 469.726173 272.654928 
L 469.945726 334.091885 
L 470.165279 514.591176 
L 470.384833 523.726802 
L 470.604386 360.055319 
L 470.823939 427.997628 
L 471.043492 406.662212 
L 471.263045 421.228883 
L 471.702151 483.111312 
L 471.921705 454.839908 
L 472.141258 444.033649 
L 472.360811 507.510125 
L 472.580364 486.043971 
L 472.799917 493.081127 
L 473.01947 380.928793 
L 473.67813 500.60389 
L 473.897683 495.299098 
L 474.117236 409.79353 
L 474.336789 549.982142 
L 474.556342 497.256065 
L 474.775896 361.17462 
L 474.995449 416.445157 
L 475.215002 500.659615 
L 475.654108 386.278888 
L 475.873661 421.160703 
L 476.093215 481.963028 
L 476.312768 482.599648 
L 476.532321 373.096171 
L 476.751874 539.999142 
L 476.971427 464.422845 
L 477.19098 468.808368 
L 477.410533 441.878916 
L 477.630087 475.399106 
L 477.84964 468.701775 
L 478.069193 520.540277 
L 478.288746 453.472487 
L 478.508299 456.566506 
L 478.727852 402.488189 
L 478.947406 516.560235 
L 479.166959 529.36935 
L 479.386512 475.999702 
L 479.606065 388.578683 
L 479.825618 568.414288 
L 480.045171 482.247295 
L 480.264724 525.187656 
L 480.484278 506.683138 
L 480.703831 449.562529 
L 480.923384 535.957257 
L 481.142937 397.639784 
L 481.36249 481.287293 
L 481.582043 498.185222 
L 481.801597 426.594363 
L 482.02115 448.176899 
L 482.460256 532.964 
L 482.679809 462.001143 
L 482.899362 440.883512 
L 483.118915 407.690554 
L 483.338469 464.875567 
L 483.558022 482.819959 
L 483.777575 491.677283 
L 483.997128 218.052955 
L 484.216681 397.356491 
L 484.436234 358.705224 
L 484.655788 458.857358 
L 484.875341 491.683072 
L 485.094894 442.208963 
L 485.534 531.388516 
L 485.973106 364.229992 
L 486.19266 471.188418 
L 486.631766 554.541569 
L 486.851319 322.692372 
L 487.070872 473.564753 
L 487.290425 481.112543 
L 487.509979 502.248034 
L 487.729532 485.338953 
L 487.949085 244.462235 
L 488.388191 419.548627 
L 488.607744 422.977141 
L 488.827297 423.586262 
L 489.046851 456.466868 
L 489.266404 458.48717 
L 489.485957 434.17235 
L 489.70551 581.38839 
L 489.925063 427.999453 
L 490.144616 475.217511 
L 490.364169 460.669869 
L 490.583723 494.78453 
L 490.803276 344.168561 
L 491.022829 520.143626 
L 491.242382 501.958468 
L 491.461935 267.921892 
L 491.681488 336.875093 
L 491.901042 477.773132 
L 492.120595 463.885613 
L 492.559701 422.857788 
L 492.779254 381.000715 
L 492.998807 401.910747 
L 493.21836 404.099097 
L 493.437914 425.671628 
L 493.657467 427.444473 
L 493.87702 372.290286 
L 494.096573 501.005459 
L 494.316126 427.064287 
L 494.535679 502.111172 
L 494.755233 200.671464 
L 494.974786 528.975838 
L 495.194339 483.214912 
L 495.633445 506.035171 
L 495.852998 356.62029 
L 496.072551 540.826998 
L 496.292105 440.151615 
L 496.511658 491.563685 
L 496.731211 501.003876 
L 496.950764 384.399884 
L 497.170317 450.841786 
L 497.609424 358.695185 
L 497.828977 542.900261 
L 498.04853 184.144178 
L 498.487636 506.174428 
L 498.707189 447.284881 
L 498.926742 445.466634 
L 499.146296 509.113614 
L 499.365849 411.226259 
L 499.585402 433.171718 
L 499.804955 437.933584 
L 500.024508 449.0836 
L 500.244061 373.829617 
L 500.463615 407.289475 
L 500.683168 501.085409 
L 500.902721 514.228354 
L 501.122274 411.620219 
L 501.341827 510.034435 
L 501.56138 433.280421 
L 501.780933 512.69894 
L 502.000487 470.372712 
L 502.439593 493.569731 
L 502.659146 511.87845 
L 502.878699 479.911356 
L 503.098252 483.238314 
L 503.317806 478.555264 
L 503.537359 477.585951 
L 504.415571 392.085001 
L 504.635124 375.50529 
L 504.854678 519.292368 
L 505.074231 494.862081 
L 505.293784 516.016108 
L 505.513337 343.581883 
L 505.73289 502.77837 
L 505.952443 494.007084 
L 506.171997 478.311173 
L 506.39155 545.969176 
L 506.611103 475.840876 
L 506.830656 529.577721 
L 507.050209 402.227426 
L 507.489315 489.120387 
L 507.708869 457.269715 
L 507.928422 500.21012 
L 508.147975 387.347639 
L 508.367528 426.819278 
L 508.587081 437.207119 
L 508.806634 468.798901 
L 509.026188 549.363378 
L 509.245741 404.939284 
L 509.465294 480.402512 
L 509.684847 429.44098 
L 509.9044 342.595275 
L 510.123953 529.259373 
L 510.56306 386.14839 
L 510.782613 508.200419 
L 511.002166 461.803194 
L 511.221719 480.28973 
L 511.441272 549.661698 
L 511.660825 527.933869 
L 511.880379 445.044415 
L 512.099932 467.498375 
L 512.319485 527.086352 
L 512.539038 356.121361 
L 512.978144 530.872415 
L 513.197697 508.362655 
L 513.417251 434.527614 
L 513.636804 436.377271 
L 513.856357 426.550628 
L 514.295463 473.903905 
L 514.515016 232.538956 
L 514.73457 479.465223 
L 514.954123 432.181857 
L 515.173676 502.247798 
L 515.393229 401.175692 
L 515.832335 492.507429 
L 516.051888 551.808074 
L 516.271442 502.289746 
L 516.490995 515.209249 
L 516.710548 503.438322 
L 516.930101 307.588904 
L 517.149654 368.126424 
L 517.369207 467.218526 
L 517.58876 452.37695 
L 517.808314 459.84235 
L 518.027867 457.583005 
L 518.24742 480.820761 
L 518.466973 471.735045 
L 518.686526 507.87554 
L 518.906079 478.684108 
L 519.125633 411.38949 
L 519.345186 507.823155 
L 519.564739 486.231954 
L 519.784292 420.341098 
L 520.003845 281.891038 
L 520.223398 410.700538 
L 520.442951 404.71697 
L 520.662505 435.449315 
L 520.882058 387.505196 
L 521.101611 385.523154 
L 521.321164 404.71962 
L 521.76027 450.580894 
L 521.979824 542.100277 
L 522.199377 522.09716 
L 522.41893 405.857908 
L 522.638483 482.706935 
L 522.858036 387.01586 
L 523.077589 507.161605 
L 523.297142 506.298972 
L 523.516696 443.467379 
L 523.736249 448.254912 
L 523.955802 385.418914 
L 524.175355 460.501322 
L 524.394908 131.956182 
L 524.614461 389.192942 
L 524.834015 472.335282 
L 525.053568 214.592681 
L 525.273121 399.851972 
L 525.492674 466.348024 
L 525.712227 497.186924 
L 525.93178 427.292755 
L 526.151333 395.531405 
L 526.370887 506.019508 
L 526.59044 443.288965 
L 526.809993 540.591091 
L 527.029546 309.016398 
L 527.249099 458.318661 
L 527.468652 353.597579 
L 527.688206 437.420591 
L 527.907759 467.333725 
L 528.127312 460.596646 
L 528.346865 487.464857 
L 528.566418 444.424292 
L 528.785971 445.758395 
L 529.005524 469.717879 
L 529.225078 516.646059 
L 529.444631 485.870533 
L 529.664184 551.363814 
L 530.10329 502.813243 
L 530.322843 431.329036 
L 530.542397 489.223262 
L 530.76195 475.517391 
L 530.981503 396.64862 
L 531.201056 417.841595 
L 531.420609 405.249105 
L 531.640162 465.767763 
L 531.859715 482.985216 
L 532.079269 526.802207 
L 532.298822 424.8481 
L 532.518375 407.319639 
L 532.737928 527.091354 
L 532.957481 473.104714 
L 533.177034 497.857869 
L 533.396588 376.613563 
L 533.616141 336.586224 
L 534.055247 518.795433 
L 534.2748 350.393689 
L 534.494353 495.981983 
L 534.713906 496.529569 
L 534.93346 445.113961 
L 535.153013 542.911248 
L 535.372566 430.706241 
L 535.592119 512.230421 
L 535.811672 435.157737 
L 536.031225 228.554954 
L 536.470332 512.110543 
L 536.689885 475.817508 
L 536.909438 409.940201 
L 537.128991 517.792107 
L 537.348544 508.554666 
L 537.787651 406.522844 
L 538.007204 529.479804 
L 538.226757 450.429053 
L 538.44631 488.0142 
L 538.665863 445.964864 
L 538.885416 450.385907 
L 539.324523 546.361055 
L 539.544076 405.916317 
L 539.763629 450.49339 
L 539.983182 444.117074 
L 540.202735 564.550549 
L 540.422288 377.127938 
L 540.641842 471.122304 
L 540.861395 464.371114 
L 541.080948 310.998875 
L 541.300501 503.330216 
L 541.520054 531.5154 
L 541.739607 393.051544 
L 541.95916 467.292039 
L 542.178714 454.423968 
L 542.398267 339.21819 
L 542.61782 390.698672 
L 542.837373 472.997167 
L 543.056926 448.116517 
L 543.276479 372.848777 
L 543.496033 407.887538 
L 543.715586 415.829899 
L 543.935139 557.967751 
L 544.154692 502.984106 
L 544.374245 404.944636 
L 544.593798 254.055211 
L 544.813351 445.289954 
L 545.032905 418.502308 
L 545.252458 449.648171 
L 545.472011 404.321485 
L 545.691564 519.065441 
L 545.911117 529.446677 
L 546.13067 558.968204 
L 546.569777 383.427889 
L 546.78933 507.597453 
L 547.008883 437.747048 
L 547.228436 329.440141 
L 547.447989 414.86999 
L 547.667542 415.711916 
L 547.887096 574.001657 
L 548.106649 439.820941 
L 548.326202 529.757797 
L 548.545755 475.636885 
L 548.765308 527.373044 
L 548.984861 540.106379 
L 549.204415 463.35325 
L 549.423968 443.64809 
L 549.643521 529.620054 
L 549.863074 537.535003 
L 550.521733 472.728593 
L 550.741287 452.386462 
L 550.96084 352.044272 
L 551.180393 534.775953 
L 551.399946 500.647025 
L 551.619499 374.802758 
L 551.839052 487.356634 
L 552.058606 531.28408 
L 552.278159 459.318173 
L 552.497712 485.667428 
L 552.717265 349.559504 
L 552.936818 473.240732 
L 553.375924 457.992226 
L 553.595478 472.179206 
L 554.034584 427.016013 
L 554.254137 461.710003 
L 554.47369 552.96661 
L 554.912797 419.802665 
L 555.13235 509.135329 
L 555.351903 530.195053 
L 555.571456 500.996951 
L 555.791009 506.710911 
L 556.010562 373.659219 
L 556.230115 482.891607 
L 556.449669 440.944163 
L 556.669222 465.273861 
L 556.888775 556.212652 
L 557.108328 351.572782 
L 557.327881 365.565298 
L 557.547434 495.080785 
L 557.766988 441.364557 
L 557.986541 462.722183 
L 558.206094 503.688034 
L 558.425647 475.907412 
L 558.864753 538.617172 
L 559.084306 534.352798 
L 559.30386 472.012876 
L 559.523413 492.123705 
L 559.742966 466.171427 
L 559.742966 466.171427 
" style="fill:none;stroke:#96c69a;stroke-linecap:round;stroke-width:3;"/>
   </g>
   <g id="line2d_2"/>
   <g id="patch_3">
    <path d="M 98.911875 603.86 
L 98.911875 109.484571 
" style="fill:none;stroke:#262626;stroke-linecap:square;stroke-linejoin:miter;stroke-width:2.5;"/>
   </g>
   <g id="patch_4">
    <path d="M 98.911875 603.86 
L 581.687304 603.86 
" style="fill:none;stroke:#262626;stroke-linecap:square;stroke-linejoin:miter;stroke-width:2.5;"/>
   </g>
   <g id="legend_1">
    <g id="patch_5">
     <path d="M 528.771679 598.86 
L 574.687304 598.86 
Q 576.687304 598.86 576.687304 596.86 
L 576.687304 554.954375 
Q 576.687304 552.954375 574.687304 552.954375 
L 528.771679 552.954375 
Q 526.771679 552.954375 526.771679 554.954375 
L 526.771679 596.86 
Q 526.771679 598.86 528.771679 598.86 
z
" style="fill:#ffffff;opacity:0.8;stroke:#cccccc;stroke-linejoin:miter;stroke-width:2;"/>
    </g>
    <g id="text_17">
     <!-- $n_\tau$ -->
     <g style="fill:#262626;" transform="translate(538.649491 575.190625)scale(0.24 -0.24)">
      <defs>
       <path d="M 3566 2113 
L 3156 0 
L 2578 0 
L 2988 2091 
Q 3016 2238 3031 2350 
Q 3047 2463 3047 2528 
Q 3047 2791 2881 2937 
Q 2716 3084 2419 3084 
Q 1956 3084 1622 2776 
Q 1288 2469 1184 1941 
L 800 0 
L 225 0 
L 903 3500 
L 1478 3500 
L 1363 2950 
Q 1603 3253 1940 3418 
Q 2278 3584 2650 3584 
Q 3113 3584 3367 3334 
Q 3622 3084 3622 2631 
Q 3622 2519 3608 2391 
Q 3594 2263 3566 2113 
z
" id="DejaVuSans-Oblique-6e" transform="scale(0.015625)"/>
       <path d="M 2103 638 
Q 2188 488 2525 488 
L 2800 488 
L 2706 0 
L 2363 0 
Q 1800 0 1600 300 
Q 1403 606 1534 1269 
L 1856 2925 
L 541 2925 
L 653 3500 
L 3881 3500 
L 3769 2925 
L 2444 2925 
L 2113 1234 
Q 2025 781 2103 638 
z
" id="DejaVuSans-Oblique-3c4" transform="scale(0.015625)"/>
      </defs>
      <use xlink:href="#DejaVuSans-Oblique-6e"/>
      <use transform="translate(63.378906 -16.40625)scale(0.7)" xlink:href="#DejaVuSans-Oblique-3c4"/>
     </g>
    </g>
    <g id="line2d_3">
     <path d="M 530.771679 589.280313 
L 550.771679 589.280313 
" style="fill:none;stroke:#96c69a;stroke-linecap:round;stroke-width:3;"/>
    </g>
    <g id="line2d_4"/>
    <g id="text_18">
     <!-- 64 -->
     <g style="fill:#262626;" transform="translate(558.771679 592.780313)scale(0.1 -0.1)">
      <defs>
       <path d="M 2316 2303 
Q 2000 2303 1842 2098 
Q 1684 1894 1684 1484 
Q 1684 1075 1842 870 
Q 2000 666 2316 666 
Q 2634 666 2792 870 
Q 2950 1075 2950 1484 
Q 2950 1894 2792 2098 
Q 2634 2303 2316 2303 
z
M 3803 4544 
L 3803 3681 
Q 3506 3822 3243 3889 
Q 2981 3956 2731 3956 
Q 2194 3956 1894 3657 
Q 1594 3359 1544 2772 
Q 1750 2925 1990 3001 
Q 2231 3078 2516 3078 
Q 3231 3078 3670 2659 
Q 4109 2241 4109 1563 
Q 4109 813 3618 361 
Q 3128 -91 2303 -91 
Q 1394 -91 895 523 
Q 397 1138 397 2266 
Q 397 3422 980 4083 
Q 1563 4744 2578 4744 
Q 2900 4744 3203 4694 
Q 3506 4644 3803 4544 
z
" id="DejaVuSans-Bold-36" transform="scale(0.015625)"/>
       <path d="M 2356 3675 
L 1038 1722 
L 2356 1722 
L 2356 3675 
z
M 2156 4666 
L 3494 4666 
L 3494 1722 
L 4159 1722 
L 4159 850 
L 3494 850 
L 3494 0 
L 2356 0 
L 2356 850 
L 288 850 
L 288 1881 
L 2156 4666 
z
" id="DejaVuSans-Bold-34" transform="scale(0.015625)"/>
      </defs>
      <use xlink:href="#DejaVuSans-Bold-36"/>
      <use x="69.580078" xlink:href="#DejaVuSans-Bold-34"/>
     </g>
    </g>
   </g>
  </g>
  <g id="axes_2">
   <g id="patch_6">
    <path d="M 98.911875 92.437143 
L 581.687304 92.437143 
L 581.687304 7.2 
L 98.911875 7.2 
z
" style="fill:none;"/>
   </g>
   <g id="matplotlib.axis_3">
    <g id="xtick_7"/>
    <g id="xtick_8"/>
    <g id="xtick_9"/>
    <g id="xtick_10"/>
    <g id="xtick_11"/>
    <g id="xtick_12"/>
   </g>
   <g id="matplotlib.axis_4">
    <g id="ytick_9">
     <g id="text_19">
      <!-- 0 -->
      <g style="fill:#262626;" transform="translate(69.414375 100.795424)scale(0.22 -0.22)">
       <use xlink:href="#DejaVuSans-30"/>
      </g>
     </g>
    </g>
    <g id="ytick_10">
     <g id="text_20">
      <!-- 100 -->
      <g style="fill:#262626;" transform="translate(41.419375 48.082287)scale(0.22 -0.22)">
       <use xlink:href="#DejaVuSans-31"/>
       <use x="63.623047" xlink:href="#DejaVuSans-30"/>
       <use x="127.246094" xlink:href="#DejaVuSans-30"/>
      </g>
     </g>
    </g>
   </g>
   <g id="patch_7">
    <path clip-path="url(#pe834ddabdc)" d="M 120.856213 92.437143 
L 154.616732 92.437143 
L 154.616732 11.258912 
L 120.856213 11.258912 
z
" style="fill:#96c69a;fill-opacity:0.5;stroke:#ffffff;stroke-linejoin:miter;stroke-width:2;"/>
   </g>
   <g id="patch_8">
    <path clip-path="url(#pe834ddabdc)" d="M 154.616732 92.437143 
L 188.377252 92.437143 
L 188.377252 11.258912 
L 154.616732 11.258912 
z
" style="fill:#96c69a;fill-opacity:0.5;stroke:#ffffff;stroke-linejoin:miter;stroke-width:2;"/>
   </g>
   <g id="patch_9">
    <path clip-path="url(#pe834ddabdc)" d="M 188.377252 92.437143 
L 222.137771 92.437143 
L 222.137771 11.258912 
L 188.377252 11.258912 
z
" style="fill:#96c69a;fill-opacity:0.5;stroke:#ffffff;stroke-linejoin:miter;stroke-width:2;"/>
   </g>
   <g id="patch_10">
    <path clip-path="url(#pe834ddabdc)" d="M 222.137771 92.437143 
L 255.898291 92.437143 
L 255.898291 11.258912 
L 222.137771 11.258912 
z
" style="fill:#96c69a;fill-opacity:0.5;stroke:#ffffff;stroke-linejoin:miter;stroke-width:2;"/>
   </g>
   <g id="patch_11">
    <path clip-path="url(#pe834ddabdc)" d="M 255.898291 92.437143 
L 289.65881 92.437143 
L 289.65881 11.786043 
L 255.898291 11.786043 
z
" style="fill:#96c69a;fill-opacity:0.5;stroke:#ffffff;stroke-linejoin:miter;stroke-width:2;"/>
   </g>
   <g id="patch_12">
    <path clip-path="url(#pe834ddabdc)" d="M 289.65881 92.437143 
L 323.41933 92.437143 
L 323.41933 11.258912 
L 289.65881 11.258912 
z
" style="fill:#96c69a;fill-opacity:0.5;stroke:#ffffff;stroke-linejoin:miter;stroke-width:2;"/>
   </g>
   <g id="patch_13">
    <path clip-path="url(#pe834ddabdc)" d="M 323.41933 92.437143 
L 357.179849 92.437143 
L 357.179849 11.258912 
L 323.41933 11.258912 
z
" style="fill:#96c69a;fill-opacity:0.5;stroke:#ffffff;stroke-linejoin:miter;stroke-width:2;"/>
   </g>
   <g id="patch_14">
    <path clip-path="url(#pe834ddabdc)" d="M 357.179849 92.437143 
L 390.940369 92.437143 
L 390.940369 11.258912 
L 357.179849 11.258912 
z
" style="fill:#96c69a;fill-opacity:0.5;stroke:#ffffff;stroke-linejoin:miter;stroke-width:2;"/>
   </g>
   <g id="patch_15">
    <path clip-path="url(#pe834ddabdc)" d="M 390.940369 92.437143 
L 424.700888 92.437143 
L 424.700888 11.786043 
L 390.940369 11.786043 
z
" style="fill:#96c69a;fill-opacity:0.5;stroke:#ffffff;stroke-linejoin:miter;stroke-width:2;"/>
   </g>
   <g id="patch_16">
    <path clip-path="url(#pe834ddabdc)" d="M 424.700888 92.437143 
L 458.461407 92.437143 
L 458.461407 11.258912 
L 424.700888 11.258912 
z
" style="fill:#96c69a;fill-opacity:0.5;stroke:#ffffff;stroke-linejoin:miter;stroke-width:2;"/>
   </g>
   <g id="patch_17">
    <path clip-path="url(#pe834ddabdc)" d="M 458.461407 92.437143 
L 492.221927 92.437143 
L 492.221927 11.258912 
L 458.461407 11.258912 
z
" style="fill:#96c69a;fill-opacity:0.5;stroke:#ffffff;stroke-linejoin:miter;stroke-width:2;"/>
   </g>
   <g id="patch_18">
    <path clip-path="url(#pe834ddabdc)" d="M 492.221927 92.437143 
L 525.982446 92.437143 
L 525.982446 11.258912 
L 492.221927 11.258912 
z
" style="fill:#96c69a;fill-opacity:0.5;stroke:#ffffff;stroke-linejoin:miter;stroke-width:2;"/>
   </g>
   <g id="patch_19">
    <path clip-path="url(#pe834ddabdc)" d="M 525.982446 92.437143 
L 559.742966 92.437143 
L 559.742966 11.258912 
L 525.982446 11.258912 
z
" style="fill:#96c69a;fill-opacity:0.5;stroke:#ffffff;stroke-linejoin:miter;stroke-width:2;"/>
   </g>
   <g id="patch_20">
    <path d="M 98.911875 92.437143 
L 98.911875 7.2 
" style="fill:none;stroke:#262626;stroke-linecap:square;stroke-linejoin:miter;stroke-width:2.5;"/>
   </g>
   <g id="patch_21">
    <path d="M 98.911875 92.437143 
L 581.687304 92.437143 
" style="fill:none;stroke:#262626;stroke-linecap:square;stroke-linejoin:miter;stroke-width:2.5;"/>
   </g>
  </g>
  <g id="axes_3">
   <g id="patch_22">
    <path d="M 598.334732 603.86 
L 681.571875 603.86 
L 681.571875 109.484571 
L 598.334732 109.484571 
z
" style="fill:none;"/>
   </g>
   <g id="matplotlib.axis_5">
    <g id="xtick_13">
     <g id="text_21">
      <!-- 0 -->
      <g style="fill:#262626;" transform="translate(591.335982 636.076563)scale(0.22 -0.22)">
       <use xlink:href="#DejaVuSans-30"/>
      </g>
     </g>
    </g>
    <g id="xtick_14">
     <g id="text_22">
      <!-- 100 -->
      <g style="fill:#262626;" transform="translate(619.730712 636.076563)scale(0.22 -0.22)">
       <use xlink:href="#DejaVuSans-31"/>
       <use x="63.623047" xlink:href="#DejaVuSans-30"/>
       <use x="127.246094" xlink:href="#DejaVuSans-30"/>
      </g>
     </g>
    </g>
   </g>
   <g id="matplotlib.axis_6">
    <g id="ytick_11"/>
    <g id="ytick_12"/>
    <g id="ytick_13"/>
    <g id="ytick_14"/>
    <g id="ytick_15"/>
    <g id="ytick_16"/>
    <g id="ytick_17"/>
    <g id="ytick_18"/>
   </g>
   <g id="patch_23">
    <path clip-path="url(#p8ca4838d78)" d="M 598.334732 581.38839 
L 602.150033 581.38839 
L 602.150033 568.547469 
L 598.334732 568.547469 
z
" style="fill:#96c69a;fill-opacity:0.5;stroke:#ffffff;stroke-linejoin:miter;stroke-width:1.284092;"/>
   </g>
   <g id="patch_24">
    <path clip-path="url(#p8ca4838d78)" d="M 598.334732 568.547469 
L 604.693567 568.547469 
L 604.693567 555.706549 
L 598.334732 555.706549 
z
" style="fill:#96c69a;fill-opacity:0.5;stroke:#ffffff;stroke-linejoin:miter;stroke-width:1.284092;"/>
   </g>
   <g id="patch_25">
    <path clip-path="url(#p8ca4838d78)" d="M 598.334732 555.706549 
L 619.954769 555.706549 
L 619.954769 542.865629 
L 598.334732 542.865629 
z
" style="fill:#96c69a;fill-opacity:0.5;stroke:#ffffff;stroke-linejoin:miter;stroke-width:1.284092;"/>
   </g>
   <g id="patch_26">
    <path clip-path="url(#p8ca4838d78)" d="M 598.334732 542.865629 
L 636.487739 542.865629 
L 636.487739 530.024709 
L 598.334732 530.024709 
z
" style="fill:#96c69a;fill-opacity:0.5;stroke:#ffffff;stroke-linejoin:miter;stroke-width:1.284092;"/>
   </g>
   <g id="patch_27">
    <path clip-path="url(#p8ca4838d78)" d="M 598.334732 530.024709 
L 647.933641 530.024709 
L 647.933641 517.183788 
L 598.334732 517.183788 
z
" style="fill:#96c69a;fill-opacity:0.5;stroke:#ffffff;stroke-linejoin:miter;stroke-width:1.284092;"/>
   </g>
   <g id="patch_28">
    <path clip-path="url(#p8ca4838d78)" d="M 598.334732 517.183788 
L 662.346999 517.183788 
L 662.346999 504.342868 
L 598.334732 504.342868 
z
" style="fill:#96c69a;fill-opacity:0.5;stroke:#ffffff;stroke-linejoin:miter;stroke-width:1.284092;"/>
   </g>
   <g id="patch_29">
    <path clip-path="url(#p8ca4838d78)" d="M 598.334732 504.342868 
L 668.705833 504.342868 
L 668.705833 491.501948 
L 598.334732 491.501948 
z
" style="fill:#96c69a;fill-opacity:0.5;stroke:#ffffff;stroke-linejoin:miter;stroke-width:1.284092;"/>
   </g>
   <g id="patch_30">
    <path clip-path="url(#p8ca4838d78)" d="M 598.334732 491.501948 
L 675.064668 491.501948 
L 675.064668 478.661028 
L 598.334732 478.661028 
z
" style="fill:#96c69a;fill-opacity:0.5;stroke:#ffffff;stroke-linejoin:miter;stroke-width:1.284092;"/>
   </g>
   <g id="patch_31">
    <path clip-path="url(#p8ca4838d78)" d="M 598.334732 478.661028 
L 677.608202 478.661028 
L 677.608202 465.820108 
L 598.334732 465.820108 
z
" style="fill:#96c69a;fill-opacity:0.5;stroke:#ffffff;stroke-linejoin:miter;stroke-width:1.284092;"/>
   </g>
   <g id="patch_32">
    <path clip-path="url(#p8ca4838d78)" d="M 598.334732 465.820108 
L 667.857989 465.820108 
L 667.857989 452.979187 
L 598.334732 452.979187 
z
" style="fill:#96c69a;fill-opacity:0.5;stroke:#ffffff;stroke-linejoin:miter;stroke-width:1.284092;"/>
   </g>
   <g id="patch_33">
    <path clip-path="url(#p8ca4838d78)" d="M 598.334732 452.979187 
L 667.857989 452.979187 
L 667.857989 440.138267 
L 598.334732 440.138267 
z
" style="fill:#96c69a;fill-opacity:0.5;stroke:#ffffff;stroke-linejoin:miter;stroke-width:1.284092;"/>
   </g>
   <g id="patch_34">
    <path clip-path="url(#p8ca4838d78)" d="M 598.334732 440.138267 
L 646.661874 440.138267 
L 646.661874 427.297347 
L 598.334732 427.297347 
z
" style="fill:#96c69a;fill-opacity:0.5;stroke:#ffffff;stroke-linejoin:miter;stroke-width:1.284092;"/>
   </g>
   <g id="patch_35">
    <path clip-path="url(#p8ca4838d78)" d="M 598.334732 427.297347 
L 650.053252 427.297347 
L 650.053252 414.456427 
L 598.334732 414.456427 
z
" style="fill:#96c69a;fill-opacity:0.5;stroke:#ffffff;stroke-linejoin:miter;stroke-width:1.284092;"/>
   </g>
   <g id="patch_36">
    <path clip-path="url(#p8ca4838d78)" d="M 598.334732 414.456427 
L 644.966185 414.456427 
L 644.966185 401.615506 
L 598.334732 401.615506 
z
" style="fill:#96c69a;fill-opacity:0.5;stroke:#ffffff;stroke-linejoin:miter;stroke-width:1.284092;"/>
   </g>
   <g id="patch_37">
    <path clip-path="url(#p8ca4838d78)" d="M 598.334732 401.615506 
L 630.128904 401.615506 
L 630.128904 388.774586 
L 598.334732 388.774586 
z
" style="fill:#96c69a;fill-opacity:0.5;stroke:#ffffff;stroke-linejoin:miter;stroke-width:1.284092;"/>
   </g>
   <g id="patch_38">
    <path clip-path="url(#p8ca4838d78)" d="M 598.334732 388.774586 
L 622.922225 388.774586 
L 622.922225 375.933666 
L 598.334732 375.933666 
z
" style="fill:#96c69a;fill-opacity:0.5;stroke:#ffffff;stroke-linejoin:miter;stroke-width:1.284092;"/>
   </g>
   <g id="patch_39">
    <path clip-path="url(#p8ca4838d78)" d="M 598.334732 375.933666 
L 617.411235 375.933666 
L 617.411235 363.092746 
L 598.334732 363.092746 
z
" style="fill:#96c69a;fill-opacity:0.5;stroke:#ffffff;stroke-linejoin:miter;stroke-width:1.284092;"/>
   </g>
   <g id="patch_40">
    <path clip-path="url(#p8ca4838d78)" d="M 598.334732 363.092746 
L 620.378692 363.092746 
L 620.378692 350.251826 
L 598.334732 350.251826 
z
" style="fill:#96c69a;fill-opacity:0.5;stroke:#ffffff;stroke-linejoin:miter;stroke-width:1.284092;"/>
   </g>
   <g id="patch_41">
    <path clip-path="url(#p8ca4838d78)" d="M 598.334732 350.251826 
L 609.780634 350.251826 
L 609.780634 337.410905 
L 598.334732 337.410905 
z
" style="fill:#96c69a;fill-opacity:0.5;stroke:#ffffff;stroke-linejoin:miter;stroke-width:1.284092;"/>
   </g>
   <g id="patch_42">
    <path clip-path="url(#p8ca4838d78)" d="M 598.334732 337.410905 
L 612.324168 337.410905 
L 612.324168 324.569985 
L 598.334732 324.569985 
z
" style="fill:#96c69a;fill-opacity:0.5;stroke:#ffffff;stroke-linejoin:miter;stroke-width:1.284092;"/>
   </g>
   <g id="patch_43">
    <path clip-path="url(#p8ca4838d78)" d="M 598.334732 324.569985 
L 605.117489 324.569985 
L 605.117489 311.729065 
L 598.334732 311.729065 
z
" style="fill:#96c69a;fill-opacity:0.5;stroke:#ffffff;stroke-linejoin:miter;stroke-width:1.284092;"/>
   </g>
   <g id="patch_44">
    <path clip-path="url(#p8ca4838d78)" d="M 598.334732 311.729065 
L 603.845722 311.729065 
L 603.845722 298.888145 
L 598.334732 298.888145 
z
" style="fill:#96c69a;fill-opacity:0.5;stroke:#ffffff;stroke-linejoin:miter;stroke-width:1.284092;"/>
   </g>
   <g id="patch_45">
    <path clip-path="url(#p8ca4838d78)" d="M 598.334732 298.888145 
L 600.878266 298.888145 
L 600.878266 286.047224 
L 598.334732 286.047224 
z
" style="fill:#96c69a;fill-opacity:0.5;stroke:#ffffff;stroke-linejoin:miter;stroke-width:1.284092;"/>
   </g>
   <g id="patch_46">
    <path clip-path="url(#p8ca4838d78)" d="M 598.334732 286.047224 
L 602.997877 286.047224 
L 602.997877 273.206304 
L 598.334732 273.206304 
z
" style="fill:#96c69a;fill-opacity:0.5;stroke:#ffffff;stroke-linejoin:miter;stroke-width:1.284092;"/>
   </g>
   <g id="patch_47">
    <path clip-path="url(#p8ca4838d78)" d="M 598.334732 273.206304 
L 601.302188 273.206304 
L 601.302188 260.365384 
L 598.334732 260.365384 
z
" style="fill:#96c69a;fill-opacity:0.5;stroke:#ffffff;stroke-linejoin:miter;stroke-width:1.284092;"/>
   </g>
   <g id="patch_48">
    <path clip-path="url(#p8ca4838d78)" d="M 598.334732 260.365384 
L 600.454344 260.365384 
L 600.454344 247.524464 
L 598.334732 247.524464 
z
" style="fill:#96c69a;fill-opacity:0.5;stroke:#ffffff;stroke-linejoin:miter;stroke-width:1.284092;"/>
   </g>
   <g id="patch_49">
    <path clip-path="url(#p8ca4838d78)" d="M 598.334732 247.524464 
L 599.182577 247.524464 
L 599.182577 234.683544 
L 598.334732 234.683544 
z
" style="fill:#96c69a;fill-opacity:0.5;stroke:#ffffff;stroke-linejoin:miter;stroke-width:1.284092;"/>
   </g>
   <g id="patch_50">
    <path clip-path="url(#p8ca4838d78)" d="M 598.334732 234.683544 
L 599.606499 234.683544 
L 599.606499 221.842623 
L 598.334732 221.842623 
z
" style="fill:#96c69a;fill-opacity:0.5;stroke:#ffffff;stroke-linejoin:miter;stroke-width:1.284092;"/>
   </g>
   <g id="patch_51">
    <path clip-path="url(#p8ca4838d78)" d="M 598.334732 221.842623 
L 599.182577 221.842623 
L 599.182577 209.001703 
L 598.334732 209.001703 
z
" style="fill:#96c69a;fill-opacity:0.5;stroke:#ffffff;stroke-linejoin:miter;stroke-width:1.284092;"/>
   </g>
   <g id="patch_52">
    <path clip-path="url(#p8ca4838d78)" d="M 598.334732 209.001703 
L 598.758654 209.001703 
L 598.758654 196.160783 
L 598.334732 196.160783 
z
" style="fill:#96c69a;fill-opacity:0.5;stroke:#ffffff;stroke-linejoin:miter;stroke-width:1.284092;"/>
   </g>
   <g id="patch_53">
    <path clip-path="url(#p8ca4838d78)" d="M 598.334732 196.160783 
L 599.182577 196.160783 
L 599.182577 183.319863 
L 598.334732 183.319863 
z
" style="fill:#96c69a;fill-opacity:0.5;stroke:#ffffff;stroke-linejoin:miter;stroke-width:1.284092;"/>
   </g>
   <g id="patch_54">
    <path clip-path="url(#p8ca4838d78)" d="M 598.334732 183.319863 
L 598.334732 183.319863 
L 598.334732 170.478942 
L 598.334732 170.478942 
z
" style="fill:#96c69a;fill-opacity:0.5;stroke:#ffffff;stroke-linejoin:miter;stroke-width:1.284092;"/>
   </g>
   <g id="patch_55">
    <path clip-path="url(#p8ca4838d78)" d="M 598.334732 170.478942 
L 598.334732 170.478942 
L 598.334732 157.638022 
L 598.334732 157.638022 
z
" style="fill:#96c69a;fill-opacity:0.5;stroke:#ffffff;stroke-linejoin:miter;stroke-width:1.284092;"/>
   </g>
   <g id="patch_56">
    <path clip-path="url(#p8ca4838d78)" d="M 598.334732 157.638022 
L 598.334732 157.638022 
L 598.334732 144.797102 
L 598.334732 144.797102 
z
" style="fill:#96c69a;fill-opacity:0.5;stroke:#ffffff;stroke-linejoin:miter;stroke-width:1.284092;"/>
   </g>
   <g id="patch_57">
    <path clip-path="url(#p8ca4838d78)" d="M 598.334732 144.797102 
L 598.758654 144.797102 
L 598.758654 131.956182 
L 598.334732 131.956182 
z
" style="fill:#96c69a;fill-opacity:0.5;stroke:#ffffff;stroke-linejoin:miter;stroke-width:1.284092;"/>
   </g>
   <g id="patch_58">
    <path d="M 598.334732 603.86 
L 598.334732 109.484571 
" style="fill:none;stroke:#262626;stroke-linecap:square;stroke-linejoin:miter;stroke-width:2.5;"/>
   </g>
   <g id="patch_59">
    <path d="M 598.334732 603.86 
L 681.571875 603.86 
" style="fill:none;stroke:#262626;stroke-linecap:square;stroke-linejoin:miter;stroke-width:2.5;"/>
   </g>
  </g>
 </g>
 <defs>
  <clipPath id="pd17d30d662">
   <rect height="494.375429" width="482.775429" x="98.911875" y="109.484571"/>
  </clipPath>
  <clipPath id="pe834ddabdc">
   <rect height="85.237143" width="482.775429" x="98.911875" y="7.2"/>
  </clipPath>
  <clipPath id="p8ca4838d78">
   <rect height="494.375429" width="83.237143" x="598.334732" y="109.484571"/>
  </clipPath>
 </defs>
</svg>
