<?xml version="1.0" encoding="utf-8" standalone="no"?>
<!DOCTYPE svg PUBLIC "-//W3C//DTD SVG 1.1//EN"
  "http://www.w3.org/Graphics/SVG/1.1/DTD/svg11.dtd">
<svg height="675.079375pt" version="1.1" viewBox="0 0 688.771875 675.079375" width="688.771875pt" xmlns="http://www.w3.org/2000/svg" xmlns:xlink="http://www.w3.org/1999/xlink">
 <metadata>
  <rdf:RDF xmlns:cc="http://creativecommons.org/ns#" xmlns:dc="http://purl.org/dc/elements/1.1/" xmlns:rdf="http://www.w3.org/1999/02/22-rdf-syntax-ns#">
   <cc:Work>
    <dc:type rdf:resource="http://purl.org/dc/dcmitype/StillImage"/>
    <dc:date>2021-07-16T21:44:03.351771</dc:date>
    <dc:format>image/svg+xml</dc:format>
    <dc:creator>
     <cc:Agent>
      <dc:title>Matplotlib v3.4.2, https://matplotlib.org/</dc:title>
     </cc:Agent>
    </dc:creator>
   </cc:Work>
  </rdf:RDF>
 </metadata>
 <defs>
  <style type="text/css">*{stroke-linecap:butt;stroke-linejoin:round;}</style>
 </defs>
 <g id="figure_1">
  <g id="patch_1">
   <path d="M 0 675.079375 
L 688.771875 675.079375 
L 688.771875 0 
L 0 0 
z
" style="fill:#ffffff;"/>
  </g>
  <g id="axes_1">
   <g id="patch_2">
    <path d="M 98.911875 603.86 
L 581.687304 603.86 
L 581.687304 109.484571 
L 98.911875 109.484571 
z
" style="fill:none;"/>
   </g>
   <g id="matplotlib.axis_1">
    <g id="xtick_1">
     <g id="text_1">
      <!-- 0 -->
      <g style="fill:#262626;" transform="translate(113.63791 636.076563)scale(0.22 -0.22)">
       <defs>
        <path d="M 2034 4250 
Q 1547 4250 1301 3770 
Q 1056 3291 1056 2328 
Q 1056 1369 1301 889 
Q 1547 409 2034 409 
Q 2525 409 2770 889 
Q 3016 1369 3016 2328 
Q 3016 3291 2770 3770 
Q 2525 4250 2034 4250 
z
M 2034 4750 
Q 2819 4750 3233 4129 
Q 3647 3509 3647 2328 
Q 3647 1150 3233 529 
Q 2819 -91 2034 -91 
Q 1250 -91 836 529 
Q 422 1150 422 2328 
Q 422 3509 836 4129 
Q 1250 4750 2034 4750 
z
" id="DejaVuSans-30" transform="scale(0.015625)"/>
       </defs>
       <use xlink:href="#DejaVuSans-30"/>
      </g>
     </g>
    </g>
    <g id="xtick_2">
     <g id="text_2">
      <!-- 20000 -->
      <g style="fill:#262626;" transform="translate(173.464171 636.076563)scale(0.22 -0.22)">
       <defs>
        <path d="M 1228 531 
L 3431 531 
L 3431 0 
L 469 0 
L 469 531 
Q 828 903 1448 1529 
Q 2069 2156 2228 2338 
Q 2531 2678 2651 2914 
Q 2772 3150 2772 3378 
Q 2772 3750 2511 3984 
Q 2250 4219 1831 4219 
Q 1534 4219 1204 4116 
Q 875 4013 500 3803 
L 500 4441 
Q 881 4594 1212 4672 
Q 1544 4750 1819 4750 
Q 2544 4750 2975 4387 
Q 3406 4025 3406 3419 
Q 3406 3131 3298 2873 
Q 3191 2616 2906 2266 
Q 2828 2175 2409 1742 
Q 1991 1309 1228 531 
z
" id="DejaVuSans-32" transform="scale(0.015625)"/>
       </defs>
       <use xlink:href="#DejaVuSans-32"/>
       <use x="63.623047" xlink:href="#DejaVuSans-30"/>
       <use x="127.246094" xlink:href="#DejaVuSans-30"/>
       <use x="190.869141" xlink:href="#DejaVuSans-30"/>
       <use x="254.492188" xlink:href="#DejaVuSans-30"/>
      </g>
     </g>
    </g>
    <g id="xtick_3">
     <g id="text_3">
      <!-- 40000 -->
      <g style="fill:#262626;" transform="translate(261.285432 636.076563)scale(0.22 -0.22)">
       <defs>
        <path d="M 2419 4116 
L 825 1625 
L 2419 1625 
L 2419 4116 
z
M 2253 4666 
L 3047 4666 
L 3047 1625 
L 3713 1625 
L 3713 1100 
L 3047 1100 
L 3047 0 
L 2419 0 
L 2419 1100 
L 313 1100 
L 313 1709 
L 2253 4666 
z
" id="DejaVuSans-34" transform="scale(0.015625)"/>
       </defs>
       <use xlink:href="#DejaVuSans-34"/>
       <use x="63.623047" xlink:href="#DejaVuSans-30"/>
       <use x="127.246094" xlink:href="#DejaVuSans-30"/>
       <use x="190.869141" xlink:href="#DejaVuSans-30"/>
       <use x="254.492188" xlink:href="#DejaVuSans-30"/>
      </g>
     </g>
    </g>
    <g id="xtick_4">
     <g id="text_4">
      <!-- 60000 -->
      <g style="fill:#262626;" transform="translate(349.106693 636.076563)scale(0.22 -0.22)">
       <defs>
        <path d="M 2113 2584 
Q 1688 2584 1439 2293 
Q 1191 2003 1191 1497 
Q 1191 994 1439 701 
Q 1688 409 2113 409 
Q 2538 409 2786 701 
Q 3034 994 3034 1497 
Q 3034 2003 2786 2293 
Q 2538 2584 2113 2584 
z
M 3366 4563 
L 3366 3988 
Q 3128 4100 2886 4159 
Q 2644 4219 2406 4219 
Q 1781 4219 1451 3797 
Q 1122 3375 1075 2522 
Q 1259 2794 1537 2939 
Q 1816 3084 2150 3084 
Q 2853 3084 3261 2657 
Q 3669 2231 3669 1497 
Q 3669 778 3244 343 
Q 2819 -91 2113 -91 
Q 1303 -91 875 529 
Q 447 1150 447 2328 
Q 447 3434 972 4092 
Q 1497 4750 2381 4750 
Q 2619 4750 2861 4703 
Q 3103 4656 3366 4563 
z
" id="DejaVuSans-36" transform="scale(0.015625)"/>
       </defs>
       <use xlink:href="#DejaVuSans-36"/>
       <use x="63.623047" xlink:href="#DejaVuSans-30"/>
       <use x="127.246094" xlink:href="#DejaVuSans-30"/>
       <use x="190.869141" xlink:href="#DejaVuSans-30"/>
       <use x="254.492188" xlink:href="#DejaVuSans-30"/>
      </g>
     </g>
    </g>
    <g id="xtick_5">
     <g id="text_5">
      <!-- 80000 -->
      <g style="fill:#262626;" transform="translate(436.927955 636.076563)scale(0.22 -0.22)">
       <defs>
        <path d="M 2034 2216 
Q 1584 2216 1326 1975 
Q 1069 1734 1069 1313 
Q 1069 891 1326 650 
Q 1584 409 2034 409 
Q 2484 409 2743 651 
Q 3003 894 3003 1313 
Q 3003 1734 2745 1975 
Q 2488 2216 2034 2216 
z
M 1403 2484 
Q 997 2584 770 2862 
Q 544 3141 544 3541 
Q 544 4100 942 4425 
Q 1341 4750 2034 4750 
Q 2731 4750 3128 4425 
Q 3525 4100 3525 3541 
Q 3525 3141 3298 2862 
Q 3072 2584 2669 2484 
Q 3125 2378 3379 2068 
Q 3634 1759 3634 1313 
Q 3634 634 3220 271 
Q 2806 -91 2034 -91 
Q 1263 -91 848 271 
Q 434 634 434 1313 
Q 434 1759 690 2068 
Q 947 2378 1403 2484 
z
M 1172 3481 
Q 1172 3119 1398 2916 
Q 1625 2713 2034 2713 
Q 2441 2713 2670 2916 
Q 2900 3119 2900 3481 
Q 2900 3844 2670 4047 
Q 2441 4250 2034 4250 
Q 1625 4250 1398 4047 
Q 1172 3844 1172 3481 
z
" id="DejaVuSans-38" transform="scale(0.015625)"/>
       </defs>
       <use xlink:href="#DejaVuSans-38"/>
       <use x="63.623047" xlink:href="#DejaVuSans-30"/>
       <use x="127.246094" xlink:href="#DejaVuSans-30"/>
       <use x="190.869141" xlink:href="#DejaVuSans-30"/>
       <use x="254.492188" xlink:href="#DejaVuSans-30"/>
      </g>
     </g>
    </g>
    <g id="xtick_6">
     <g id="text_6">
      <!-- 100000 -->
      <g style="fill:#262626;" transform="translate(517.750466 636.076563)scale(0.22 -0.22)">
       <defs>
        <path d="M 794 531 
L 1825 531 
L 1825 4091 
L 703 3866 
L 703 4441 
L 1819 4666 
L 2450 4666 
L 2450 531 
L 3481 531 
L 3481 0 
L 794 0 
L 794 531 
z
" id="DejaVuSans-31" transform="scale(0.015625)"/>
       </defs>
       <use xlink:href="#DejaVuSans-31"/>
       <use x="63.623047" xlink:href="#DejaVuSans-30"/>
       <use x="127.246094" xlink:href="#DejaVuSans-30"/>
       <use x="190.869141" xlink:href="#DejaVuSans-30"/>
       <use x="254.492188" xlink:href="#DejaVuSans-30"/>
       <use x="318.115234" xlink:href="#DejaVuSans-30"/>
      </g>
     </g>
    </g>
    <g id="text_7">
     <!-- MDTU -->
     <g style="fill:#262626;" transform="translate(304.593964 662.888125)scale(0.24 -0.24)">
      <defs>
       <path d="M 628 4666 
L 1569 4666 
L 2759 1491 
L 3956 4666 
L 4897 4666 
L 4897 0 
L 4281 0 
L 4281 4097 
L 3078 897 
L 2444 897 
L 1241 4097 
L 1241 0 
L 628 0 
L 628 4666 
z
" id="DejaVuSans-4d" transform="scale(0.015625)"/>
       <path d="M 1259 4147 
L 1259 519 
L 2022 519 
Q 2988 519 3436 956 
Q 3884 1394 3884 2338 
Q 3884 3275 3436 3711 
Q 2988 4147 2022 4147 
L 1259 4147 
z
M 628 4666 
L 1925 4666 
Q 3281 4666 3915 4102 
Q 4550 3538 4550 2338 
Q 4550 1131 3912 565 
Q 3275 0 1925 0 
L 628 0 
L 628 4666 
z
" id="DejaVuSans-44" transform="scale(0.015625)"/>
       <path d="M -19 4666 
L 3928 4666 
L 3928 4134 
L 2272 4134 
L 2272 0 
L 1638 0 
L 1638 4134 
L -19 4134 
L -19 4666 
z
" id="DejaVuSans-54" transform="scale(0.015625)"/>
       <path d="M 556 4666 
L 1191 4666 
L 1191 1831 
Q 1191 1081 1462 751 
Q 1734 422 2344 422 
Q 2950 422 3222 751 
Q 3494 1081 3494 1831 
L 3494 4666 
L 4128 4666 
L 4128 1753 
Q 4128 841 3676 375 
Q 3225 -91 2344 -91 
Q 1459 -91 1007 375 
Q 556 841 556 1753 
L 556 4666 
z
" id="DejaVuSans-55" transform="scale(0.015625)"/>
      </defs>
      <use xlink:href="#DejaVuSans-4d"/>
      <use x="86.279297" xlink:href="#DejaVuSans-44"/>
      <use x="163.28125" xlink:href="#DejaVuSans-54"/>
      <use x="224.365234" xlink:href="#DejaVuSans-55"/>
     </g>
    </g>
   </g>
   <g id="matplotlib.axis_2">
    <g id="ytick_1">
     <g id="text_8">
      <!-- 0.25 -->
      <g style="fill:#262626;" transform="translate(34.4275 603.332862)scale(0.22 -0.22)">
       <defs>
        <path d="M 684 794 
L 1344 794 
L 1344 0 
L 684 0 
L 684 794 
z
" id="DejaVuSans-2e" transform="scale(0.015625)"/>
        <path d="M 691 4666 
L 3169 4666 
L 3169 4134 
L 1269 4134 
L 1269 2991 
Q 1406 3038 1543 3061 
Q 1681 3084 1819 3084 
Q 2600 3084 3056 2656 
Q 3513 2228 3513 1497 
Q 3513 744 3044 326 
Q 2575 -91 1722 -91 
Q 1428 -91 1123 -41 
Q 819 9 494 109 
L 494 744 
Q 775 591 1075 516 
Q 1375 441 1709 441 
Q 2250 441 2565 725 
Q 2881 1009 2881 1497 
Q 2881 1984 2565 2268 
Q 2250 2553 1709 2553 
Q 1456 2553 1204 2497 
Q 953 2441 691 2322 
L 691 4666 
z
" id="DejaVuSans-35" transform="scale(0.015625)"/>
       </defs>
       <use xlink:href="#DejaVuSans-30"/>
       <use x="63.623047" xlink:href="#DejaVuSans-2e"/>
       <use x="95.410156" xlink:href="#DejaVuSans-32"/>
       <use x="159.033203" xlink:href="#DejaVuSans-35"/>
      </g>
     </g>
    </g>
    <g id="ytick_2">
     <g id="text_9">
      <!-- 0.50 -->
      <g style="fill:#262626;" transform="translate(34.4275 543.329066)scale(0.22 -0.22)">
       <use xlink:href="#DejaVuSans-30"/>
       <use x="63.623047" xlink:href="#DejaVuSans-2e"/>
       <use x="95.410156" xlink:href="#DejaVuSans-35"/>
       <use x="159.033203" xlink:href="#DejaVuSans-30"/>
      </g>
     </g>
    </g>
    <g id="ytick_3">
     <g id="text_10">
      <!-- 0.75 -->
      <g style="fill:#262626;" transform="translate(34.4275 483.325269)scale(0.22 -0.22)">
       <defs>
        <path d="M 525 4666 
L 3525 4666 
L 3525 4397 
L 1831 0 
L 1172 0 
L 2766 4134 
L 525 4134 
L 525 4666 
z
" id="DejaVuSans-37" transform="scale(0.015625)"/>
       </defs>
       <use xlink:href="#DejaVuSans-30"/>
       <use x="63.623047" xlink:href="#DejaVuSans-2e"/>
       <use x="95.410156" xlink:href="#DejaVuSans-37"/>
       <use x="159.033203" xlink:href="#DejaVuSans-35"/>
      </g>
     </g>
    </g>
    <g id="ytick_4">
     <g id="text_11">
      <!-- 1.00 -->
      <g style="fill:#262626;" transform="translate(34.4275 423.321473)scale(0.22 -0.22)">
       <use xlink:href="#DejaVuSans-31"/>
       <use x="63.623047" xlink:href="#DejaVuSans-2e"/>
       <use x="95.410156" xlink:href="#DejaVuSans-30"/>
       <use x="159.033203" xlink:href="#DejaVuSans-30"/>
      </g>
     </g>
    </g>
    <g id="ytick_5">
     <g id="text_12">
      <!-- 1.25 -->
      <g style="fill:#262626;" transform="translate(34.4275 363.317677)scale(0.22 -0.22)">
       <use xlink:href="#DejaVuSans-31"/>
       <use x="63.623047" xlink:href="#DejaVuSans-2e"/>
       <use x="95.410156" xlink:href="#DejaVuSans-32"/>
       <use x="159.033203" xlink:href="#DejaVuSans-35"/>
      </g>
     </g>
    </g>
    <g id="ytick_6">
     <g id="text_13">
      <!-- 1.50 -->
      <g style="fill:#262626;" transform="translate(34.4275 303.31388)scale(0.22 -0.22)">
       <use xlink:href="#DejaVuSans-31"/>
       <use x="63.623047" xlink:href="#DejaVuSans-2e"/>
       <use x="95.410156" xlink:href="#DejaVuSans-35"/>
       <use x="159.033203" xlink:href="#DejaVuSans-30"/>
      </g>
     </g>
    </g>
    <g id="ytick_7">
     <g id="text_14">
      <!-- 1.75 -->
      <g style="fill:#262626;" transform="translate(34.4275 243.310084)scale(0.22 -0.22)">
       <use xlink:href="#DejaVuSans-31"/>
       <use x="63.623047" xlink:href="#DejaVuSans-2e"/>
       <use x="95.410156" xlink:href="#DejaVuSans-37"/>
       <use x="159.033203" xlink:href="#DejaVuSans-35"/>
      </g>
     </g>
    </g>
    <g id="ytick_8">
     <g id="text_15">
      <!-- 2.00 -->
      <g style="fill:#262626;" transform="translate(34.4275 183.306288)scale(0.22 -0.22)">
       <use xlink:href="#DejaVuSans-32"/>
       <use x="63.623047" xlink:href="#DejaVuSans-2e"/>
       <use x="95.410156" xlink:href="#DejaVuSans-30"/>
       <use x="159.033203" xlink:href="#DejaVuSans-30"/>
      </g>
     </g>
    </g>
    <g id="ytick_9">
     <g id="text_16">
      <!-- 2.25 -->
      <g style="fill:#262626;" transform="translate(34.4275 123.302491)scale(0.22 -0.22)">
       <use xlink:href="#DejaVuSans-32"/>
       <use x="63.623047" xlink:href="#DejaVuSans-2e"/>
       <use x="95.410156" xlink:href="#DejaVuSans-32"/>
       <use x="159.033203" xlink:href="#DejaVuSans-35"/>
      </g>
     </g>
    </g>
    <g id="text_17">
     <!-- $E$ -->
     <g style="fill:#262626;" transform="translate(25.43625 364.352286)rotate(-90)scale(0.24 -0.24)">
      <defs>
       <path d="M 1081 4666 
L 4031 4666 
L 3928 4134 
L 1606 4134 
L 1338 2753 
L 3566 2753 
L 3463 2222 
L 1234 2222 
L 909 531 
L 3284 531 
L 3181 0 
L 172 0 
L 1081 4666 
z
" id="DejaVuSans-Oblique-45" transform="scale(0.015625)"/>
      </defs>
      <use transform="translate(0 0.09375)" xlink:href="#DejaVuSans-Oblique-45"/>
     </g>
    </g>
   </g>
   <g id="line2d_1">
    <path clip-path="url(#p535e2597bc)" d="M 120.856213 487.885442 
L 121.075766 463.639153 
L 121.295319 466.61861 
L 121.514872 356.017382 
L 121.734425 408.097147 
L 121.953978 524.653423 
L 122.173532 524.921605 
L 122.393085 321.776703 
L 122.612638 492.149047 
L 122.832191 522.730439 
L 123.051744 409.003536 
L 123.271297 514.924539 
L 123.490851 498.010717 
L 123.929957 537.271407 
L 124.14951 510.712061 
L 124.369063 436.64314 
L 124.588616 424.751848 
L 124.808169 528.121062 
L 125.027723 453.106091 
L 125.247276 451.614963 
L 125.466829 499.347881 
L 125.686382 514.44974 
L 126.125488 442.196871 
L 126.345041 489.475472 
L 126.564595 477.78831 
L 126.784148 416.905705 
L 127.003701 483.782178 
L 127.223254 484.65292 
L 127.66236 493.282107 
L 127.881914 490.760856 
L 128.101467 426.94067 
L 128.32102 486.238322 
L 128.540573 439.691082 
L 128.760126 422.789463 
L 128.979679 493.465703 
L 129.199232 469.003799 
L 129.418786 479.40943 
L 129.638339 505.046356 
L 129.857892 478.246418 
L 130.077445 412.919303 
L 130.296998 465.926924 
L 130.516551 426.623502 
L 130.736105 415.806329 
L 130.955658 491.230904 
L 131.175211 517.57339 
L 131.394764 407.937104 
L 131.614317 420.178937 
L 131.83387 485.197313 
L 132.272977 379.070545 
L 132.49253 544.114519 
L 132.712083 409.512656 
L 133.151189 510.844274 
L 133.370742 458.802844 
L 133.590296 454.292174 
L 133.809849 532.69052 
L 134.029402 497.397139 
L 134.248955 408.120396 
L 134.468508 378.532932 
L 134.688061 465.890906 
L 134.907614 441.752356 
L 135.127168 469.013562 
L 135.346721 512.484733 
L 135.566274 531.969719 
L 135.785827 249.673097 
L 136.00538 284.936228 
L 136.224933 512.477933 
L 136.444487 512.303732 
L 136.66404 479.155952 
L 136.883593 469.247927 
L 137.103146 532.804471 
L 137.322699 526.325171 
L 137.542252 506.910497 
L 137.981359 357.786648 
L 138.200912 404.946708 
L 138.420465 514.573567 
L 138.640018 505.177443 
L 138.859571 527.857657 
L 139.079124 509.434979 
L 139.298678 367.258355 
L 139.518231 539.046656 
L 139.737784 442.281834 
L 139.957337 532.340808 
L 140.17689 505.247511 
L 140.396443 538.51652 
L 140.615996 504.070638 
L 140.83555 521.8979 
L 141.055103 477.339973 
L 141.274656 379.254794 
L 141.494209 448.940454 
L 141.713762 438.719701 
L 141.933315 518.133438 
L 142.152869 499.189304 
L 142.372422 423.29246 
L 142.811528 507.630488 
L 143.031081 396.846532 
L 143.250634 454.591605 
L 143.470187 382.563054 
L 143.689741 441.490114 
L 143.909294 442.053175 
L 144.128847 537.073427 
L 144.3484 378.743157 
L 144.567953 508.559617 
L 144.787506 508.038478 
L 145.00706 512.323116 
L 145.226613 402.233426 
L 145.446166 408.807414 
L 145.665719 504.328111 
L 145.885272 456.831335 
L 146.104825 511.256329 
L 146.324378 474.439541 
L 146.543932 471.717544 
L 146.763485 492.219351 
L 146.983038 500.877266 
L 147.202591 457.014087 
L 147.422144 509.163959 
L 147.641697 510.015004 
L 147.861251 359.875302 
L 148.080804 545.150855 
L 148.300357 461.327159 
L 148.51991 481.034236 
L 148.739463 529.821226 
L 148.959016 472.333073 
L 149.178569 506.152602 
L 149.398123 458.874068 
L 149.837229 548.938646 
L 150.056782 472.683794 
L 150.495888 440.946507 
L 150.934995 523.694513 
L 151.154548 518.257957 
L 151.374101 551.986924 
L 151.593654 416.088081 
L 151.813207 489.143465 
L 152.03276 480.958347 
L 152.252314 499.312782 
L 152.471867 332.275611 
L 152.69142 490.211643 
L 152.910973 503.163341 
L 153.130526 476.91236 
L 153.350079 505.979734 
L 153.569632 479.504374 
L 154.008739 322.574256 
L 154.228292 447.737713 
L 154.447845 321.022661 
L 154.886951 500.254946 
L 155.106505 368.410744 
L 155.545611 532.246071 
L 155.765164 533.760401 
L 155.984717 436.475725 
L 156.20427 532.300947 
L 156.423823 394.036395 
L 156.643377 512.97804 
L 156.86293 517.300386 
L 157.082483 483.049195 
L 157.302036 470.195687 
L 157.521589 464.509532 
L 157.741142 529.190816 
L 157.960696 515.579699 
L 158.180249 485.60613 
L 158.399802 473.37445 
L 158.619355 368.931345 
L 158.838908 511.061809 
L 159.058461 409.145032 
L 159.278014 450.435394 
L 159.497568 434.205495 
L 159.717121 496.832709 
L 159.936674 481.420872 
L 160.156227 499.293152 
L 160.37578 474.138489 
L 160.595333 420.318006 
L 160.814887 475.09327 
L 161.03444 561.78831 
L 161.473546 409.304703 
L 161.912652 536.062956 
L 162.132205 494.990323 
L 162.351759 321.97913 
L 162.571312 475.541809 
L 162.790865 550.0649 
L 163.010418 510.808193 
L 163.229971 543.280667 
L 163.449524 396.369755 
L 163.669078 469.69705 
L 163.888631 476.357146 
L 164.108184 539.211397 
L 164.327737 448.577829 
L 164.54729 466.647803 
L 164.766843 501.440909 
L 164.986396 493.292365 
L 165.20595 515.952664 
L 165.425503 365.396631 
L 165.645056 466.164526 
L 165.864609 447.127411 
L 166.084162 491.571265 
L 166.303715 376.029179 
L 166.523269 469.859823 
L 166.742822 459.913039 
L 166.962375 465.980806 
L 167.181928 522.125328 
L 167.401481 495.381579 
L 167.621034 419.022951 
L 167.840587 528.858751 
L 168.060141 425.639032 
L 168.279694 410.227378 
L 168.499247 469.113899 
L 168.7188 435.308769 
L 168.938353 446.659695 
L 169.157906 531.238688 
L 169.37746 467.132631 
L 169.597013 465.842387 
L 169.816566 472.701299 
L 170.036119 445.04632 
L 170.255672 489.576445 
L 170.475225 479.639914 
L 170.694778 401.451878 
L 170.914332 427.448393 
L 171.133885 411.701238 
L 171.353438 492.57818 
L 171.572991 424.027149 
L 171.792544 421.804849 
L 172.012097 552.365869 
L 172.451204 315.204765 
L 172.670757 422.194185 
L 172.89031 460.10456 
L 173.109863 520.556798 
L 173.329416 353.646081 
L 173.548969 374.499847 
L 173.988076 494.360902 
L 174.207629 450.329103 
L 174.427182 487.40605 
L 174.646735 483.574487 
L 174.866288 513.519901 
L 175.085842 437.254395 
L 175.305395 523.7873 
L 175.524948 473.040156 
L 175.744501 459.35514 
L 175.964054 505.168825 
L 176.183607 493.976147 
L 176.40316 465.371949 
L 176.622714 494.608677 
L 176.842267 479.301184 
L 177.06182 444.334212 
L 177.281373 561.611346 
L 177.500926 409.650787 
L 177.720479 562.629596 
L 177.940032 429.785958 
L 178.159586 434.097642 
L 178.379139 521.306603 
L 178.598692 408.145176 
L 178.818245 471.435286 
L 179.037798 480.938705 
L 179.476905 538.437187 
L 179.696458 460.247888 
L 179.916011 451.804161 
L 180.135564 514.348297 
L 180.355117 511.860627 
L 180.57467 436.418795 
L 180.794223 520.414872 
L 181.013777 463.532112 
L 181.23333 501.293665 
L 181.452883 480.404663 
L 181.672436 508.85272 
L 182.111542 420.412534 
L 182.331096 485.99853 
L 182.550649 430.423671 
L 182.770202 509.859059 
L 182.989755 487.687696 
L 183.209308 435.287332 
L 183.428861 508.213511 
L 183.648414 495.3774 
L 183.867968 429.082126 
L 184.087521 541.70235 
L 184.307074 549.512464 
L 184.526627 552.798633 
L 184.965733 426.934869 
L 185.185287 527.224631 
L 185.40484 432.650949 
L 185.624393 509.556936 
L 185.843946 426.447224 
L 186.063499 492.617654 
L 186.283052 476.358578 
L 186.502605 520.171204 
L 186.722159 394.217827 
L 186.941712 526.289692 
L 187.161265 518.539582 
L 187.380818 394.720047 
L 187.600371 511.511875 
L 187.819924 456.828356 
L 188.039478 447.70903 
L 188.259031 456.500699 
L 188.478584 396.320776 
L 188.698137 481.343916 
L 188.91769 489.687724 
L 189.137243 531.288897 
L 189.356796 471.683152 
L 189.57635 460.477969 
L 189.795903 440.349982 
L 190.015456 272.788744 
L 190.235009 531.236283 
L 190.454562 451.117288 
L 190.674115 524.270325 
L 190.893669 536.932416 
L 191.113222 530.460601 
L 191.332775 441.721693 
L 191.552328 433.866368 
L 191.771881 454.771431 
L 191.991434 426.894264 
L 192.210987 484.047226 
L 192.650094 448.877614 
L 192.869647 507.119048 
L 193.0892 387.442592 
L 193.308753 532.830307 
L 193.528306 472.129882 
L 193.74786 510.827191 
L 193.967413 424.116376 
L 194.186966 462.705321 
L 194.406519 477.417034 
L 194.626072 537.37107 
L 194.845625 471.210077 
L 195.065178 530.642906 
L 195.284732 465.907445 
L 195.504285 480.096842 
L 195.723838 502.759229 
L 195.943391 473.812113 
L 196.162944 523.602607 
L 196.382497 448.107641 
L 196.602051 449.762749 
L 196.821604 495.687736 
L 197.041157 498.43804 
L 197.26071 528.917677 
L 197.480263 504.019741 
L 197.699816 429.321887 
L 197.919369 527.336224 
L 198.138923 506.557758 
L 198.358476 301.599405 
L 198.578029 477.101088 
L 198.797582 530.484761 
L 199.017135 535.977221 
L 199.236688 469.160528 
L 199.675795 533.024663 
L 199.895348 467.473448 
L 200.334454 421.388604 
L 200.554007 421.065478 
L 200.77356 455.953514 
L 200.993114 532.591809 
L 201.212667 556.760336 
L 201.43222 466.135578 
L 201.651773 471.560652 
L 201.871326 471.143395 
L 202.090879 510.592932 
L 202.310432 373.57734 
L 202.749539 485.942722 
L 203.188645 424.454849 
L 203.408198 511.618552 
L 203.627751 488.77643 
L 203.847305 482.764832 
L 204.066858 514.64052 
L 204.286411 509.090931 
L 204.505964 464.400018 
L 204.725517 379.820882 
L 205.164623 531.81154 
L 205.384177 500.447697 
L 205.60373 532.136254 
L 205.823283 501.658608 
L 206.042836 493.232534 
L 206.262389 447.590561 
L 206.481942 480.652273 
L 206.701496 312.266424 
L 206.921049 503.600854 
L 207.140602 531.349571 
L 207.360155 447.051433 
L 207.579708 512.706087 
L 208.018814 371.309877 
L 208.238368 398.954201 
L 208.457921 522.636817 
L 208.677474 445.525678 
L 208.897027 519.242083 
L 209.11658 467.287843 
L 209.336133 473.72824 
L 209.555687 468.423758 
L 209.77524 480.515129 
L 209.994793 565.804885 
L 210.214346 454.869232 
L 210.873005 532.138071 
L 211.531665 461.84253 
L 211.751218 393.265799 
L 211.970771 513.454938 
L 212.190324 535.895074 
L 212.409878 447.007904 
L 212.629431 518.728668 
L 212.848984 474.325035 
L 213.068537 519.133752 
L 213.28809 503.543544 
L 213.507643 518.036238 
L 213.727196 467.075852 
L 213.94675 488.018723 
L 214.166303 410.213136 
L 214.385856 422.486783 
L 214.605409 517.488761 
L 214.824962 438.774632 
L 215.044515 550.133786 
L 215.264069 491.98951 
L 215.483622 484.032544 
L 215.703175 518.848132 
L 215.922728 435.556745 
L 216.142281 466.948067 
L 216.581387 351.969308 
L 216.800941 518.858426 
L 217.020494 442.078744 
L 217.4596 464.601039 
L 217.679153 518.042614 
L 217.898706 532.567082 
L 218.557366 459.578433 
L 218.776919 445.637279 
L 218.996472 461.134052 
L 219.216025 554.82953 
L 219.435578 465.317807 
L 219.655132 313.664232 
L 219.874685 516.00158 
L 220.094238 541.828987 
L 220.313791 466.476339 
L 220.533344 478.964455 
L 220.752897 479.0231 
L 220.972451 455.337334 
L 221.192004 470.330322 
L 221.411557 445.852684 
L 221.63111 455.44498 
L 221.850663 353.798392 
L 222.070216 524.239551 
L 222.289769 440.900171 
L 222.509323 482.647644 
L 222.728876 491.211466 
L 222.948429 474.996987 
L 223.167982 494.807141 
L 223.387535 461.931106 
L 223.607088 487.805384 
L 223.826642 531.019106 
L 224.046195 451.293037 
L 224.265748 538.424745 
L 224.485301 379.89329 
L 224.704854 492.669235 
L 224.924407 538.958124 
L 225.14396 416.482624 
L 225.363514 411.982903 
L 225.80262 455.511124 
L 226.022173 554.394899 
L 226.241726 478.21801 
L 226.461279 544.247643 
L 226.680833 442.022366 
L 226.900386 532.762471 
L 227.119939 497.968512 
L 227.339492 529.573688 
L 227.778598 456.634398 
L 227.998151 424.023161 
L 228.437258 522.917942 
L 228.656811 475.576522 
L 228.876364 486.32247 
L 229.095917 515.414389 
L 229.31547 409.334486 
L 229.535023 493.87276 
L 229.754577 511.090045 
L 229.97413 488.728382 
L 230.193683 377.809761 
L 230.413236 505.738072 
L 230.632789 551.863721 
L 231.071896 430.159171 
L 231.291449 459.376835 
L 231.511002 422.785326 
L 231.730555 474.943481 
L 231.950108 581.38839 
L 232.389214 407.010278 
L 232.608768 477.525897 
L 232.828321 393.135396 
L 233.047874 416.447708 
L 233.267427 535.097748 
L 233.48698 497.734764 
L 233.706533 480.000166 
L 233.926087 395.115253 
L 234.14564 489.855563 
L 234.365193 423.210008 
L 234.584746 488.122194 
L 234.804299 457.928172 
L 235.023852 485.759827 
L 235.243405 340.929337 
L 235.462959 508.077741 
L 235.682512 380.685678 
L 236.121618 554.477271 
L 236.341171 428.58687 
L 236.780278 526.92331 
L 236.999831 383.4739 
L 237.219384 456.048475 
L 237.438937 364.663766 
L 237.65849 521.54835 
L 237.878043 495.485722 
L 238.097596 416.086303 
L 238.31715 462.22264 
L 238.536703 467.205559 
L 238.756256 478.639709 
L 238.975809 463.582557 
L 239.195362 438.541077 
L 239.414915 518.752163 
L 239.634469 492.253908 
L 239.854022 396.531512 
L 240.073575 419.138693 
L 240.293128 477.593323 
L 240.512681 455.011464 
L 240.732234 501.604727 
L 240.951787 388.143057 
L 241.390894 512.650318 
L 241.610447 429.863712 
L 241.83 481.230453 
L 242.049553 479.977444 
L 242.269106 421.396355 
L 242.48866 525.665106 
L 242.708213 400.359627 
L 242.927766 442.949597 
L 243.147319 524.116299 
L 243.366872 436.508663 
L 243.586425 450.375812 
L 243.805978 401.164136 
L 244.025532 534.701309 
L 244.245085 513.455775 
L 244.684191 425.193598 
L 244.903744 531.79458 
L 245.123297 550.228425 
L 245.342851 432.941194 
L 245.562404 450.560129 
L 245.781957 525.807257 
L 246.00151 514.178455 
L 246.221063 491.288269 
L 246.440616 453.486742 
L 246.660169 461.46872 
L 246.879723 504.451017 
L 247.099276 453.010712 
L 247.318829 508.641619 
L 247.538382 459.756151 
L 247.757935 460.271874 
L 247.977488 465.007447 
L 248.416595 514.231137 
L 248.636148 468.762319 
L 248.855701 456.510961 
L 249.075254 409.722715 
L 249.294807 447.457317 
L 249.51436 424.024306 
L 249.733914 466.829999 
L 249.953467 550.851074 
L 250.17302 565.572411 
L 250.392573 473.202792 
L 250.612126 490.744811 
L 250.831679 337.328219 
L 251.051233 548.528484 
L 251.270786 416.744725 
L 251.490339 536.538911 
L 251.709892 474.739067 
L 251.929445 520.503469 
L 252.148998 432.080321 
L 252.368551 462.823112 
L 252.588105 444.963237 
L 252.807658 447.789593 
L 253.027211 454.686115 
L 253.246764 492.392002 
L 253.466317 479.338831 
L 253.68587 491.699855 
L 254.124977 427.359211 
L 254.564083 478.912605 
L 255.003189 531.007713 
L 255.442296 435.993044 
L 255.881402 514.894109 
L 256.100955 395.538082 
L 256.320508 413.021892 
L 256.540061 481.788836 
L 256.759614 486.456095 
L 256.979168 465.162787 
L 257.198721 480.468103 
L 257.418274 540.112102 
L 257.637827 503.379061 
L 257.85738 546.744267 
L 258.076933 486.224858 
L 258.296487 381.907583 
L 258.51604 528.288728 
L 258.735593 529.866213 
L 259.174699 368.754155 
L 259.613805 493.210326 
L 259.833359 535.195668 
L 260.052912 531.96377 
L 260.272465 437.058 
L 260.492018 436.903114 
L 260.711571 477.999554 
L 260.931124 480.204161 
L 261.150678 497.748209 
L 261.370231 545.211563 
L 261.589784 504.541974 
L 261.809337 520.239276 
L 262.02889 419.112663 
L 262.248443 481.117938 
L 262.467996 446.443435 
L 262.68755 520.926408 
L 263.126656 391.871725 
L 263.346209 414.280969 
L 263.565762 506.225766 
L 263.785315 345.431714 
L 264.004869 426.449794 
L 264.224422 454.580434 
L 264.443975 380.821488 
L 264.663528 521.644767 
L 264.883081 401.489297 
L 265.102634 511.191853 
L 265.322187 445.655559 
L 265.541741 528.075398 
L 265.761294 495.896576 
L 265.980847 403.041027 
L 266.2004 484.841803 
L 266.419953 491.653291 
L 266.639506 451.492368 
L 267.078613 518.484579 
L 267.517719 429.826108 
L 267.737272 429.7834 
L 267.956825 544.864597 
L 268.395932 465.57837 
L 268.615485 484.833292 
L 268.835038 444.318824 
L 269.054591 496.938211 
L 269.274144 508.288955 
L 269.493697 445.811293 
L 269.713251 515.827659 
L 269.932804 456.244426 
L 270.152357 499.789827 
L 270.591463 470.760136 
L 270.811016 534.088524 
L 271.030569 496.531739 
L 271.250123 396.694138 
L 271.469676 401.53129 
L 271.689229 485.63976 
L 271.908782 476.971702 
L 272.347888 423.081395 
L 272.567442 549.19847 
L 272.786995 488.709554 
L 273.006548 521.540571 
L 273.226101 472.563674 
L 273.445654 543.157217 
L 273.665207 374.557558 
L 273.88476 510.338213 
L 274.323867 372.948734 
L 274.54342 391.218604 
L 274.762973 462.361709 
L 275.421633 519.360459 
L 275.641186 458.397252 
L 276.080292 499.516698 
L 276.299845 456.802561 
L 276.519398 477.617744 
L 276.738951 514.370418 
L 276.958505 400.931391 
L 277.178058 420.492446 
L 277.397611 386.054813 
L 277.617164 510.41561 
L 277.836717 503.361723 
L 278.05627 450.148779 
L 278.275824 484.994285 
L 278.495377 484.149857 
L 278.71493 471.908031 
L 278.934483 503.68487 
L 279.154036 471.845427 
L 279.373589 503.799585 
L 279.593142 475.503934 
L 279.812696 469.317834 
L 280.251802 535.424152 
L 280.471355 427.333406 
L 280.690908 437.211535 
L 280.910461 508.477813 
L 281.130014 439.198314 
L 281.349568 475.634386 
L 281.569121 376.10443 
L 281.788674 507.15938 
L 282.008227 452.140062 
L 282.22778 494.369037 
L 282.447333 443.642662 
L 282.88644 533.256593 
L 283.105993 448.424328 
L 283.325546 441.550011 
L 283.545099 487.933551 
L 283.764652 499.139929 
L 283.984205 423.684448 
L 284.423312 532.919072 
L 284.642865 455.570936 
L 284.862418 422.700688 
L 285.081971 491.033772 
L 285.301524 468.27723 
L 285.521078 537.927466 
L 285.740631 470.397362 
L 285.960184 452.978378 
L 286.179737 484.061585 
L 286.39929 475.295416 
L 286.618843 358.374624 
L 286.838396 430.951642 
L 287.05795 412.758482 
L 287.277503 515.673567 
L 287.497056 490.40505 
L 287.716609 517.392479 
L 287.936162 455.617492 
L 288.155715 498.1901 
L 288.375269 477.269165 
L 288.594822 490.306695 
L 288.814375 528.613531 
L 289.033928 531.669492 
L 289.253481 536.594592 
L 289.692587 454.147912 
L 289.912141 553.708518 
L 290.131694 462.066774 
L 290.351247 510.268614 
L 290.5708 500.763349 
L 290.790353 415.197528 
L 291.009906 408.864045 
L 291.22946 358.446118 
L 291.449013 492.102764 
L 291.888119 470.798189 
L 292.107672 434.930446 
L 292.327225 489.157622 
L 292.546778 304.04254 
L 292.766332 464.572927 
L 292.985885 403.392684 
L 293.205438 530.155393 
L 293.424991 424.651142 
L 293.644544 552.976999 
L 293.864097 406.046431 
L 294.083651 425.232782 
L 294.303204 472.096634 
L 294.522757 453.960235 
L 294.74231 410.75587 
L 294.961863 494.283721 
L 295.181416 516.937326 
L 295.400969 461.506748 
L 295.620523 539.902006 
L 296.279182 455.406961 
L 296.498735 455.548848 
L 296.718288 484.688715 
L 297.157395 454.132206 
L 297.376948 556.483627 
L 297.596501 504.871514 
L 297.816054 490.306562 
L 298.035607 540.334672 
L 298.25516 406.556473 
L 298.474714 527.894235 
L 298.694267 439.666639 
L 298.91382 491.892853 
L 299.133373 436.298041 
L 299.352926 427.946674 
L 299.572479 468.532159 
L 299.792033 469.126146 
L 300.011586 505.482696 
L 300.450692 533.352604 
L 300.670245 537.202137 
L 300.889798 486.886788 
L 301.109351 486.151999 
L 301.328905 511.669656 
L 301.548458 459.386271 
L 301.768011 463.978187 
L 301.987564 512.394054 
L 302.207117 528.926948 
L 302.42667 419.767845 
L 302.646224 510.928293 
L 302.865777 408.851477 
L 303.08533 374.844835 
L 303.304883 484.508329 
L 303.524436 511.523792 
L 303.743989 407.951762 
L 303.963542 385.687201 
L 304.402649 512.349133 
L 304.622202 485.558834 
L 304.841755 541.690581 
L 305.280861 374.219152 
L 305.500415 430.13097 
L 305.719968 411.698704 
L 305.939521 524.162342 
L 306.159074 490.335559 
L 306.378627 509.645282 
L 306.59818 447.183708 
L 306.817733 421.391303 
L 307.037287 490.035349 
L 307.25684 493.447841 
L 307.695946 381.840108 
L 308.135052 548.286947 
L 308.354605 490.45938 
L 308.574159 531.443572 
L 308.793712 517.367987 
L 309.013265 524.012564 
L 309.232818 455.604846 
L 309.452371 533.587913 
L 309.671924 528.646086 
L 309.891478 526.978828 
L 310.111031 355.613996 
L 310.330584 489.326003 
L 310.550137 433.234153 
L 310.76969 528.614809 
L 310.989243 483.863351 
L 311.208796 538.055155 
L 311.42835 397.09489 
L 311.647903 483.360145 
L 312.087009 388.990747 
L 312.306562 471.896963 
L 312.526115 500.939431 
L 312.745669 507.407515 
L 312.965222 471.173102 
L 313.184775 325.866329 
L 313.404328 492.712364 
L 313.623881 328.718859 
L 313.843434 488.016589 
L 314.062987 523.595581 
L 314.282541 456.550561 
L 314.721647 509.624381 
L 315.160753 448.63679 
L 315.380306 496.974752 
L 315.59986 452.946043 
L 315.819413 505.062975 
L 316.038966 405.680693 
L 316.258519 444.562141 
L 316.478072 434.00581 
L 316.697625 328.411468 
L 316.917178 479.016485 
L 317.136732 415.847679 
L 317.575838 484.293093 
L 317.795391 472.51701 
L 318.014944 367.477816 
L 318.673604 558.9897 
L 319.11271 414.789208 
L 319.332263 490.237468 
L 319.551816 440.817643 
L 319.771369 506.427212 
L 319.990923 371.522704 
L 320.210476 515.090935 
L 320.430029 440.363473 
L 320.649582 450.196937 
L 320.869135 473.314951 
L 321.088688 465.088865 
L 321.308242 426.207338 
L 321.527795 407.590456 
L 321.747348 424.414962 
L 322.186454 484.741984 
L 322.406007 504.194939 
L 322.62556 495.778644 
L 323.064667 373.218879 
L 323.28422 470.434092 
L 323.503773 422.973875 
L 323.723326 537.936845 
L 324.162433 381.100392 
L 324.381986 547.931634 
L 324.601539 273.482271 
L 324.821092 433.94219 
L 325.040645 459.647815 
L 325.260198 371.048409 
L 325.479751 465.156545 
L 325.699305 402.624685 
L 326.138411 480.114132 
L 326.357964 368.411637 
L 326.79707 452.547142 
L 327.016624 530.466488 
L 327.236177 476.099979 
L 327.45573 452.71597 
L 327.675283 344.456157 
L 327.894836 497.225631 
L 328.114389 504.699082 
L 328.333942 506.717568 
L 328.553496 477.804249 
L 328.773049 515.395313 
L 328.992602 404.958564 
L 329.212155 488.358304 
L 329.431708 445.627137 
L 329.651261 538.942826 
L 330.090368 476.454172 
L 330.309921 477.625923 
L 330.529474 458.147369 
L 330.749027 502.763549 
L 330.96858 468.739368 
L 331.188133 465.38117 
L 331.407687 456.827927 
L 331.62724 484.919191 
L 331.846793 486.779444 
L 332.066346 427.813528 
L 332.285899 505.76127 
L 332.505452 465.512673 
L 332.725006 362.109286 
L 333.164112 461.487655 
L 333.383665 408.525354 
L 333.603218 508.453886 
L 333.822771 420.733007 
L 334.042324 491.707161 
L 334.261878 495.409406 
L 334.700984 513.879194 
L 334.920537 449.761852 
L 335.14009 175.101662 
L 335.359643 413.148916 
L 335.579196 510.382472 
L 335.79875 410.602732 
L 336.018303 544.710853 
L 336.237856 507.326553 
L 336.457409 498.171269 
L 336.676962 496.722009 
L 336.896515 403.74937 
L 337.116069 502.859444 
L 337.335622 477.567982 
L 337.774728 521.835792 
L 337.994281 514.875057 
L 338.213834 333.1478 
L 338.433387 535.705164 
L 338.652941 371.896473 
L 338.872494 420.76242 
L 339.092047 429.324195 
L 339.3116 564.017559 
L 339.531153 436.665962 
L 339.750706 489.928195 
L 340.189813 418.067651 
L 340.409366 502.257424 
L 340.628919 365.755467 
L 340.848472 454.117777 
L 341.068025 459.989611 
L 341.287578 501.666659 
L 341.507132 452.268984 
L 341.726685 527.931024 
L 341.946238 440.81634 
L 342.385344 512.53795 
L 342.604897 483.489373 
L 342.824451 222.887908 
L 343.044004 438.68794 
L 343.263557 482.277384 
L 343.48311 459.229316 
L 343.702663 448.441107 
L 344.141769 535.339331 
L 344.361323 510.397747 
L 344.580876 503.159734 
L 344.800429 389.855619 
L 345.019982 513.916289 
L 345.239535 514.087527 
L 345.459088 338.099467 
L 345.678642 502.365527 
L 345.898195 437.962304 
L 346.117748 492.701843 
L 346.337301 492.242402 
L 346.556854 472.066387 
L 346.776407 430.648605 
L 346.99596 480.650502 
L 347.215514 437.403175 
L 347.435067 481.885726 
L 347.65462 479.069162 
L 347.874173 544.656883 
L 348.093726 499.682503 
L 348.313279 420.402001 
L 348.752386 508.030792 
L 348.971939 497.581087 
L 349.411045 452.2658 
L 349.630598 507.620394 
L 349.850151 468.843891 
L 350.069705 511.341078 
L 350.289258 449.327412 
L 350.508811 486.538155 
L 350.728364 568.864576 
L 351.16747 440.105756 
L 351.387024 535.399122 
L 351.606577 533.606753 
L 351.82613 358.871654 
L 352.045683 455.692176 
L 352.265236 456.527768 
L 352.484789 410.035813 
L 352.704342 392.191111 
L 352.923896 453.070542 
L 353.143449 442.252255 
L 353.582555 290.566282 
L 353.802108 405.242501 
L 354.021661 451.403471 
L 354.241215 404.410926 
L 354.460768 523.256566 
L 354.680321 463.163473 
L 354.899874 487.513231 
L 355.119427 374.930169 
L 355.33898 395.166736 
L 355.558533 345.585621 
L 355.778087 537.705651 
L 355.99764 498.598793 
L 356.217193 419.225463 
L 356.656299 503.928035 
L 356.875852 371.52595 
L 357.534512 509.317354 
L 357.754065 495.64005 
L 357.973618 436.094316 
L 358.412724 541.570618 
L 358.632278 464.784552 
L 358.851831 435.883598 
L 359.071384 383.200556 
L 359.290937 375.610462 
L 359.51049 546.495959 
L 359.730043 512.716768 
L 359.949596 443.239512 
L 360.16915 498.32927 
L 360.388703 487.167323 
L 360.608256 483.343642 
L 360.827809 374.611104 
L 361.266915 535.271068 
L 361.486469 451.305465 
L 361.706022 526.676088 
L 362.145128 452.562095 
L 362.584234 485.321944 
L 362.803787 521.107472 
L 363.023341 510.293588 
L 363.242894 459.544939 
L 363.462447 436.167002 
L 363.682 316.857246 
L 363.901553 526.264394 
L 364.121106 465.337756 
L 364.34066 510.502842 
L 364.560213 429.025477 
L 364.779766 457.817852 
L 364.999319 395.934392 
L 365.218872 551.46899 
L 365.438425 537.621532 
L 365.657978 515.831319 
L 365.877532 477.661523 
L 366.316638 512.790227 
L 366.536191 466.482716 
L 366.755744 504.196178 
L 366.975297 499.979222 
L 367.194851 458.109307 
L 367.414404 440.575015 
L 367.633957 489.084245 
L 367.85351 474.069333 
L 368.073063 442.355334 
L 368.292616 443.290267 
L 368.512169 466.694276 
L 368.731723 411.118116 
L 368.951276 460.272797 
L 369.170829 550.648592 
L 369.390382 462.766286 
L 369.829488 490.195565 
L 370.049042 488.033725 
L 370.268595 491.80435 
L 370.488148 429.91728 
L 370.707701 528.718958 
L 370.927254 513.694472 
L 371.36636 463.094716 
L 371.585914 511.057606 
L 371.805467 326.562025 
L 372.02502 477.633731 
L 372.464126 384.88352 
L 372.683679 450.936676 
L 372.903233 463.718513 
L 373.122786 342.48434 
L 373.342339 495.838012 
L 373.561892 337.469966 
L 373.781445 447.076477 
L 374.000998 482.628772 
L 374.220551 493.837675 
L 374.440105 543.436451 
L 374.659658 496.723796 
L 374.879211 498.877911 
L 375.098764 414.708471 
L 375.53787 504.775345 
L 375.757424 489.956549 
L 375.976977 527.570826 
L 376.19653 464.905577 
L 376.416083 456.406812 
L 376.635636 412.825273 
L 377.074742 502.44231 
L 377.294296 547.308243 
L 377.733402 459.532503 
L 377.952955 501.781518 
L 378.172508 420.369345 
L 378.392061 507.947589 
L 378.611615 419.059446 
L 378.831168 454.568256 
L 379.050721 462.596156 
L 379.270274 405.30673 
L 379.489827 411.08877 
L 379.928933 526.026316 
L 380.148487 494.852682 
L 380.36804 515.205241 
L 380.587593 504.047865 
L 380.807146 475.535227 
L 381.026699 382.188054 
L 381.685359 513.666277 
L 381.904912 461.251111 
L 382.124465 465.279917 
L 382.344018 511.015662 
L 382.563571 438.84076 
L 382.783124 478.293379 
L 383.002678 489.830917 
L 383.222231 460.240886 
L 383.441784 398.909262 
L 383.661337 404.445823 
L 383.88089 398.93148 
L 384.100443 486.288382 
L 384.319997 497.680967 
L 384.53955 456.176544 
L 384.759103 478.312936 
L 384.978656 441.735739 
L 385.198209 454.444192 
L 385.417762 451.644966 
L 385.637315 532.401611 
L 385.856869 513.484805 
L 386.076422 309.604979 
L 386.295975 515.778322 
L 386.515528 443.417429 
L 386.735081 505.174303 
L 386.954634 498.194591 
L 387.174187 476.468711 
L 387.393741 427.417303 
L 387.613294 435.285117 
L 387.832847 517.527955 
L 388.0524 464.5692 
L 388.491506 415.823418 
L 388.930613 550.574053 
L 389.150166 409.671491 
L 389.369719 497.457014 
L 389.589272 496.015262 
L 389.808825 498.373225 
L 390.028378 394.839679 
L 390.247932 528.256492 
L 390.467485 467.430057 
L 390.687038 489.051433 
L 390.906591 428.157675 
L 391.126144 527.579623 
L 391.345697 501.65924 
L 391.565251 490.844858 
L 391.784804 465.505213 
L 392.004357 471.05139 
L 392.22391 398.443224 
L 392.443463 487.176954 
L 392.663016 521.754045 
L 392.882569 471.226952 
L 393.102123 469.062178 
L 393.321676 396.479467 
L 393.541229 467.725541 
L 393.980335 520.932488 
L 394.419442 409.349823 
L 394.858548 504.385353 
L 395.078101 505.309481 
L 395.297654 418.653902 
L 395.517207 451.109246 
L 395.73676 431.316541 
L 395.956314 470.113871 
L 396.175867 469.061188 
L 396.39542 365.473078 
L 396.614973 529.466331 
L 396.834526 422.445421 
L 397.054079 471.081638 
L 397.273633 372.349672 
L 397.493186 491.244291 
L 397.712739 390.294912 
L 397.932292 431.891295 
L 398.151845 386.057271 
L 398.371398 518.693334 
L 398.590951 454.651294 
L 398.810505 493.581982 
L 399.030058 396.901688 
L 399.249611 475.334908 
L 399.688717 426.117439 
L 399.90827 427.026659 
L 400.127824 465.680925 
L 400.347377 460.888726 
L 400.786483 517.835637 
L 401.006036 507.409303 
L 401.445142 398.526633 
L 401.664696 489.331355 
L 401.884249 365.166134 
L 402.103802 547.979635 
L 402.323355 527.029135 
L 402.542908 373.07389 
L 403.201568 472.054402 
L 403.421121 436.958197 
L 403.640674 437.992207 
L 403.860227 461.26872 
L 404.07978 391.062549 
L 404.518887 480.335077 
L 404.957993 360.052069 
L 405.177546 470.424779 
L 405.616652 445.964083 
L 405.836206 404.817246 
L 406.055759 510.930143 
L 406.275312 502.630222 
L 406.714418 429.624127 
L 406.933971 542.317147 
L 407.153524 479.503602 
L 407.373078 505.050476 
L 407.592631 497.70275 
L 407.812184 474.868562 
L 408.031737 425.196036 
L 408.25129 503.420034 
L 408.470843 333.580874 
L 408.690397 362.054838 
L 408.90995 510.910644 
L 409.129503 506.155352 
L 409.349056 487.916905 
L 409.568609 497.165739 
L 409.788162 454.286238 
L 410.007715 513.702637 
L 410.227269 379.384665 
L 410.446822 492.006903 
L 410.666375 353.224346 
L 410.885928 385.876705 
L 411.105481 482.04203 
L 411.325034 422.217392 
L 411.544587 487.13088 
L 411.764141 475.144287 
L 411.983694 398.361885 
L 412.203247 513.952763 
L 412.4228 428.351975 
L 412.642353 387.55521 
L 412.861906 515.808548 
L 413.08146 505.580339 
L 413.301013 352.200309 
L 413.520566 511.701529 
L 413.740119 532.773961 
L 413.959672 315.797999 
L 414.179225 509.756985 
L 414.618332 326.917286 
L 414.837885 451.132072 
L 415.057438 370.431802 
L 415.276991 469.713858 
L 415.496544 455.893568 
L 415.935651 502.556178 
L 416.155204 536.753754 
L 416.374757 490.592834 
L 416.59431 522.389642 
L 417.033416 411.786092 
L 417.252969 514.680517 
L 417.472523 499.128184 
L 417.692076 474.387722 
L 418.131182 449.462893 
L 418.350735 474.257484 
L 418.570288 458.334561 
L 418.789842 430.685647 
L 419.009395 538.010197 
L 419.228948 497.292548 
L 419.448501 540.458012 
L 419.668054 384.935321 
L 419.887607 490.056685 
L 420.10716 458.269595 
L 420.326714 516.992228 
L 420.546267 497.021576 
L 420.76582 438.178837 
L 420.985373 526.600737 
L 421.424479 406.453228 
L 421.863586 470.444807 
L 422.083139 412.174754 
L 422.302692 387.42555 
L 422.522245 386.449967 
L 422.741798 429.219602 
L 422.961351 446.101723 
L 423.180905 447.572985 
L 423.620011 414.074615 
L 424.059117 516.26674 
L 424.27867 485.278365 
L 424.717777 506.07601 
L 424.93733 500.803503 
L 425.156883 468.556375 
L 425.376436 466.644451 
L 425.595989 526.487401 
L 425.815542 442.569998 
L 426.035096 417.827403 
L 426.254649 519.592025 
L 426.693755 412.676546 
L 426.913308 415.081413 
L 427.132861 376.823639 
L 427.352415 513.763282 
L 427.571968 515.246756 
L 427.791521 501.676233 
L 428.011074 400.990823 
L 428.230627 381.803439 
L 428.669733 509.319663 
L 428.889287 414.52742 
L 429.10884 482.337976 
L 429.328393 385.785032 
L 429.547946 404.045669 
L 429.767499 451.116967 
L 429.987052 458.921674 
L 430.206606 449.756678 
L 430.426159 428.69639 
L 430.645712 358.685602 
L 430.865265 342.695772 
L 431.084818 474.76743 
L 431.304371 403.970184 
L 431.523924 484.11502 
L 431.743478 461.342967 
L 431.963031 386.70255 
L 432.182584 404.13291 
L 432.402137 510.698698 
L 432.841243 412.074347 
L 433.28035 530.732506 
L 433.499903 485.468785 
L 433.719456 484.816023 
L 433.939009 524.689975 
L 434.158562 467.017941 
L 434.378115 520.005225 
L 434.597669 496.906908 
L 434.817222 521.736606 
L 435.036775 519.629467 
L 435.256328 463.855355 
L 435.475881 498.729243 
L 435.914988 389.93185 
L 436.134541 500.623386 
L 436.354094 524.531089 
L 436.7932 438.161029 
L 437.012753 490.057868 
L 437.232306 505.026478 
L 437.671413 513.574927 
L 437.890966 453.013815 
L 438.110519 491.857753 
L 438.330072 440.232672 
L 438.769178 574.079126 
L 438.988732 518.447346 
L 439.208285 564.634128 
L 439.427838 384.802616 
L 439.866944 481.318314 
L 440.086497 340.43714 
L 440.306051 532.638339 
L 440.525604 523.728047 
L 440.745157 542.554407 
L 440.96471 464.191014 
L 441.184263 518.358389 
L 441.403816 487.161314 
L 441.623369 509.798447 
L 442.062476 495.048476 
L 442.282029 438.604291 
L 442.501582 480.238001 
L 442.940688 351.284083 
L 443.160242 536.916691 
L 443.379795 411.307382 
L 443.599348 488.26005 
L 443.818901 509.007551 
L 444.038454 502.482518 
L 444.258007 512.257198 
L 444.47756 430.518387 
L 444.697114 543.653145 
L 444.916667 452.921109 
L 445.13622 441.048597 
L 445.355773 462.713432 
L 445.575326 434.477933 
L 445.794879 516.782945 
L 446.233986 388.703038 
L 446.453539 433.429216 
L 446.673092 446.893229 
L 446.892645 513.065233 
L 447.112198 483.686885 
L 447.331751 493.317164 
L 447.551305 418.339376 
L 447.770858 501.660546 
L 447.990411 510.70863 
L 448.209964 295.423028 
L 448.64907 468.23988 
L 448.868624 510.069723 
L 449.088177 513.405487 
L 449.30773 474.572512 
L 449.527283 328.547961 
L 449.746836 535.157997 
L 449.966389 471.321458 
L 450.185942 452.893317 
L 450.405496 444.279846 
L 450.625049 454.693824 
L 450.844602 458.991499 
L 451.064155 512.365979 
L 451.283708 481.093298 
L 451.503261 517.208749 
L 451.722815 522.032263 
L 451.942368 535.46322 
L 452.161921 491.193437 
L 452.381474 537.126384 
L 452.601027 555.303586 
L 452.82058 440.122705 
L 453.040133 496.287767 
L 453.259687 420.372913 
L 453.47924 471.458298 
L 453.918346 509.370217 
L 454.357452 472.738831 
L 454.577006 467.448052 
L 454.796559 487.92767 
L 455.016112 521.245595 
L 455.235665 477.506172 
L 455.455218 535.301206 
L 455.674771 532.087386 
L 455.894324 514.741967 
L 456.113878 527.777185 
L 456.333431 488.172451 
L 456.552984 520.376428 
L 456.772537 504.778023 
L 456.99209 425.912701 
L 457.211643 410.767292 
L 457.431197 448.470941 
L 457.65075 439.079589 
L 457.870303 493.663475 
L 458.309409 513.183259 
L 458.528962 438.864486 
L 458.748515 548.089623 
L 458.968069 474.731197 
L 459.187622 362.923362 
L 459.407175 509.935911 
L 459.626728 317.872439 
L 459.846281 460.719916 
L 460.065834 521.168796 
L 460.285388 416.278733 
L 460.504941 535.998499 
L 460.724494 423.004489 
L 460.944047 469.021571 
L 461.1636 467.087163 
L 461.383153 403.793699 
L 461.602706 508.154025 
L 461.82226 404.10618 
L 462.041813 487.741659 
L 462.261366 382.882099 
L 462.700472 518.38418 
L 462.920025 356.663968 
L 463.139579 516.026091 
L 463.359132 477.228433 
L 463.578685 492.302746 
L 463.798238 475.094886 
L 464.017791 478.665069 
L 464.456897 523.005037 
L 464.676451 415.247941 
L 464.896004 439.889619 
L 465.115557 525.559048 
L 465.33511 549.623454 
L 465.774216 482.289214 
L 465.993769 551.550744 
L 466.213323 471.671717 
L 466.432876 131.956182 
L 466.652429 505.267468 
L 466.871982 446.885069 
L 467.311088 500.575543 
L 467.530642 490.585628 
L 467.750195 418.591653 
L 467.969748 543.190648 
L 468.189301 460.653712 
L 468.408854 446.848496 
L 468.628407 392.619118 
L 468.84796 434.556446 
L 469.067514 443.064043 
L 469.287067 302.282953 
L 469.50662 457.025658 
L 469.726173 519.586413 
L 469.945726 473.470429 
L 470.165279 527.864523 
L 470.384833 454.511501 
L 470.604386 318.47364 
L 470.823939 415.461125 
L 471.043492 413.663123 
L 471.263045 521.491097 
L 471.702151 482.425664 
L 471.921705 399.595681 
L 472.141258 533.887212 
L 472.360811 514.153037 
L 472.799917 547.464033 
L 473.01947 394.464749 
L 473.239024 565.053518 
L 473.458577 486.155704 
L 473.67813 465.00082 
L 473.897683 533.9031 
L 474.117236 550.875319 
L 474.336789 416.012903 
L 474.556342 498.876526 
L 474.775896 503.762763 
L 474.995449 529.280125 
L 475.215002 391.846595 
L 475.654108 522.537566 
L 475.873661 501.500351 
L 476.093215 454.980894 
L 476.312768 446.214772 
L 476.532321 418.82192 
L 476.751874 453.171616 
L 476.971427 438.006966 
L 477.19098 513.085024 
L 477.410533 503.843743 
L 477.630087 481.631059 
L 477.84964 472.13702 
L 478.069193 310.241801 
L 478.288746 525.106684 
L 478.508299 392.906216 
L 478.947406 513.414183 
L 479.166959 529.497035 
L 479.386512 501.584703 
L 479.606065 444.72421 
L 479.825618 488.748632 
L 480.045171 457.178632 
L 480.264724 473.802332 
L 480.484278 545.240272 
L 480.703831 471.952195 
L 480.923384 463.891034 
L 481.142937 491.431334 
L 481.36249 494.432134 
L 481.582043 513.11688 
L 481.801597 431.002322 
L 482.02115 507.32533 
L 482.240703 492.584541 
L 482.460256 485.381445 
L 482.679809 425.595486 
L 482.899362 529.159181 
L 483.118915 553.045251 
L 483.338469 394.102576 
L 483.558022 508.652706 
L 483.997128 454.237564 
L 484.216681 532.737289 
L 484.436234 433.182109 
L 484.655788 542.227264 
L 484.875341 514.970329 
L 485.094894 444.952307 
L 485.314447 463.029518 
L 485.534 501.235985 
L 485.753553 378.579102 
L 485.973106 505.003133 
L 486.412213 415.041694 
L 486.631766 408.719664 
L 486.851319 563.753378 
L 487.070872 400.328793 
L 487.290425 486.870818 
L 487.509979 398.414458 
L 487.729532 487.979896 
L 487.949085 464.747926 
L 488.168638 399.908847 
L 488.388191 515.908189 
L 488.607744 452.535685 
L 488.827297 448.411069 
L 489.046851 414.735358 
L 489.485957 526.209279 
L 489.70551 387.074 
L 490.144616 499.832674 
L 490.364169 412.252063 
L 490.583723 382.854029 
L 490.803276 479.302773 
L 491.022829 502.922202 
L 491.242382 495.872489 
L 491.461935 458.164535 
L 491.681488 446.774944 
L 491.901042 391.561477 
L 492.120595 512.758649 
L 492.340148 433.206253 
L 492.559701 407.819049 
L 492.998807 488.491068 
L 493.21836 458.156401 
L 493.437914 460.792093 
L 493.657467 482.041099 
L 493.87702 411.927647 
L 494.096573 554.301893 
L 494.316126 396.670827 
L 494.535679 425.634999 
L 494.755233 521.217932 
L 494.974786 553.64707 
L 495.194339 504.586552 
L 495.413892 409.6322 
L 495.633445 471.311367 
L 495.852998 492.555085 
L 496.072551 492.351935 
L 496.292105 508.495353 
L 496.511658 374.019398 
L 496.731211 368.466995 
L 497.170317 531.111175 
L 497.38987 451.96017 
L 497.609424 534.953873 
L 497.828977 486.866733 
L 498.04853 334.756806 
L 498.268083 339.326477 
L 498.487636 505.532478 
L 498.707189 454.444854 
L 498.926742 451.842472 
L 499.146296 500.581872 
L 499.585402 402.548142 
L 499.804955 512.120421 
L 500.024508 519.183336 
L 500.244061 417.675954 
L 500.463615 534.465755 
L 500.683168 466.295522 
L 500.902721 475.227172 
L 501.341827 446.352046 
L 501.56138 443.189889 
L 501.780933 445.114412 
L 502.000487 488.764038 
L 502.22004 373.839278 
L 502.439593 495.400979 
L 502.659146 534.489248 
L 503.098252 453.903683 
L 503.317806 447.328748 
L 503.537359 371.391052 
L 503.756912 522.803322 
L 503.976465 450.811857 
L 504.196018 437.658236 
L 504.415571 437.802044 
L 504.635124 478.179899 
L 504.854678 441.587789 
L 505.074231 505.124434 
L 505.293784 376.935108 
L 505.513337 519.221105 
L 505.73289 488.214393 
L 505.952443 406.34083 
L 506.171997 547.252792 
L 506.611103 464.37759 
L 506.830656 550.591062 
L 507.050209 483.223359 
L 507.269762 452.399832 
L 507.489315 505.773961 
L 507.708869 466.048202 
L 507.928422 502.625014 
L 508.147975 467.299982 
L 508.367528 537.608004 
L 508.587081 416.524664 
L 508.806634 538.514956 
L 509.026188 435.117981 
L 509.245741 525.790563 
L 509.465294 493.273977 
L 509.684847 484.886357 
L 509.9044 512.598464 
L 510.123953 460.922538 
L 510.343506 479.888053 
L 510.782613 441.962954 
L 511.002166 490.196629 
L 511.221719 493.814312 
L 511.441272 530.034932 
L 511.660825 439.759273 
L 511.880379 543.745221 
L 512.099932 460.426592 
L 512.319485 509.37676 
L 512.539038 488.050599 
L 512.758591 430.397356 
L 512.978144 491.768038 
L 513.197697 482.512864 
L 513.417251 346.176075 
L 513.636804 517.871942 
L 513.856357 364.52512 
L 514.295463 465.339299 
L 514.515016 452.832553 
L 514.73457 507.153613 
L 514.954123 521.376686 
L 515.173676 452.787122 
L 515.612782 519.929625 
L 515.832335 441.862495 
L 516.051888 466.226206 
L 516.271442 504.272484 
L 516.490995 490.891522 
L 516.710548 509.235224 
L 516.930101 432.635429 
L 517.149654 486.7937 
L 517.369207 429.889247 
L 517.58876 511.646495 
L 517.808314 484.148483 
L 518.027867 365.981519 
L 518.24742 380.499495 
L 518.466973 442.172769 
L 518.686526 451.194535 
L 518.906079 480.90508 
L 519.125633 493.078985 
L 519.345186 476.554975 
L 519.564739 532.076007 
L 519.784292 398.515883 
L 520.003845 530.848723 
L 520.223398 436.993966 
L 520.662505 496.917089 
L 520.882058 373.438258 
L 521.101611 385.672636 
L 521.321164 382.446032 
L 521.540717 476.682037 
L 521.76027 444.628556 
L 521.979824 457.567671 
L 522.199377 376.393594 
L 522.41893 447.617855 
L 522.858036 531.15258 
L 523.077589 499.230616 
L 523.297142 502.335813 
L 523.516696 448.323221 
L 523.736249 493.705066 
L 523.955802 418.614855 
L 524.175355 492.427711 
L 524.394908 508.558323 
L 524.614461 448.693212 
L 524.834015 503.528032 
L 525.053568 467.224209 
L 525.273121 524.539744 
L 525.492674 484.777063 
L 525.712227 497.422691 
L 525.93178 437.580298 
L 526.151333 479.793734 
L 526.59044 341.496027 
L 526.809993 396.490982 
L 527.029546 383.545914 
L 527.249099 433.131944 
L 527.468652 453.029837 
L 527.688206 412.159041 
L 527.907759 348.414214 
L 528.127312 507.344961 
L 528.346865 406.377806 
L 528.566418 417.841174 
L 528.785971 490.339146 
L 529.005524 375.723913 
L 529.444631 510.348506 
L 529.664184 480.179 
L 529.883737 520.730754 
L 530.10329 455.073317 
L 530.542397 506.89046 
L 530.76195 421.261026 
L 530.981503 567.485411 
L 531.201056 354.751508 
L 531.420609 454.552203 
L 531.640162 396.812916 
L 531.859715 462.539143 
L 532.079269 494.023843 
L 532.298822 490.413904 
L 532.957481 395.400431 
L 533.177034 509.756257 
L 533.396588 380.1807 
L 533.616141 401.889417 
L 533.835694 517.244448 
L 534.055247 483.765396 
L 534.494353 332.707522 
L 534.713906 486.56937 
L 534.93346 480.303751 
L 535.153013 481.43549 
L 535.372566 459.696451 
L 535.592119 454.476919 
L 535.811672 481.770892 
L 536.031225 396.9201 
L 536.250779 402.958948 
L 536.689885 518.196818 
L 536.909438 497.25353 
L 537.128991 292.403817 
L 537.348544 504.478076 
L 537.568097 510.640204 
L 537.787651 490.331634 
L 538.007204 432.289602 
L 538.226757 486.962325 
L 538.44631 496.055701 
L 538.885416 449.037452 
L 539.10497 382.399576 
L 539.324523 500.410898 
L 539.544076 364.323455 
L 539.763629 458.815898 
L 539.983182 491.239273 
L 540.202735 490.007327 
L 540.422288 452.877913 
L 540.641842 523.647243 
L 540.861395 383.427624 
L 541.080948 525.232674 
L 541.300501 429.836442 
L 541.520054 428.201503 
L 541.739607 391.494265 
L 541.95916 493.509154 
L 542.178714 386.771891 
L 542.398267 501.848438 
L 542.61782 433.012152 
L 542.837373 417.932603 
L 543.056926 535.63129 
L 543.276479 458.215312 
L 543.496033 482.084052 
L 543.715586 413.63589 
L 543.935139 486.832403 
L 544.154692 364.606282 
L 544.374245 343.935607 
L 544.593798 465.722046 
L 544.813351 439.112235 
L 545.032905 526.487642 
L 545.252458 470.430121 
L 545.472011 450.712251 
L 545.691564 390.461252 
L 545.911117 503.62161 
L 546.13067 422.845133 
L 546.350224 409.919007 
L 546.569777 478.296875 
L 546.78933 422.906329 
L 547.008883 515.236372 
L 547.228436 390.167097 
L 547.447989 482.926186 
L 547.887096 445.210552 
L 548.326202 493.28434 
L 548.545755 543.253009 
L 548.765308 360.027143 
L 548.984861 507.871215 
L 549.204415 484.069274 
L 549.423968 483.510935 
L 549.863074 406.788646 
L 550.082627 476.50479 
L 550.30218 423.105623 
L 550.521733 563.574004 
L 550.741287 358.33442 
L 550.96084 498.767706 
L 551.180393 510.868684 
L 551.399946 537.38119 
L 551.619499 531.358711 
L 551.839052 502.913634 
L 552.058606 495.530379 
L 552.278159 454.191325 
L 552.497712 466.966154 
L 552.717265 488.601134 
L 553.156371 425.607283 
L 553.375924 564.785462 
L 553.815031 431.531075 
L 554.034584 492.8807 
L 554.254137 479.972722 
L 554.47369 508.450207 
L 554.912797 414.430301 
L 555.13235 529.119599 
L 555.351903 428.865229 
L 555.571456 491.915964 
L 556.010562 394.493872 
L 556.230115 517.772082 
L 556.449669 531.056125 
L 556.669222 437.97734 
L 556.888775 537.889558 
L 557.327881 444.551035 
L 557.547434 517.390552 
L 557.766988 358.352366 
L 557.986541 515.609406 
L 558.206094 559.643185 
L 558.425647 469.919033 
L 558.6452 537.002052 
L 558.864753 548.236236 
L 559.084306 500.663088 
L 559.30386 410.095778 
L 559.523413 502.560112 
L 559.742966 491.716171 
L 559.742966 491.716171 
" style="fill:none;stroke:#96c69a;stroke-linecap:round;stroke-width:3;"/>
   </g>
   <g id="line2d_2"/>
   <g id="patch_3">
    <path d="M 98.911875 603.86 
L 98.911875 109.484571 
" style="fill:none;stroke:#262626;stroke-linecap:square;stroke-linejoin:miter;stroke-width:2.5;"/>
   </g>
   <g id="patch_4">
    <path d="M 98.911875 603.86 
L 581.687304 603.86 
" style="fill:none;stroke:#262626;stroke-linecap:square;stroke-linejoin:miter;stroke-width:2.5;"/>
   </g>
   <g id="legend_1">
    <g id="patch_5">
     <path d="M 528.771679 598.86 
L 574.687304 598.86 
Q 576.687304 598.86 576.687304 596.86 
L 576.687304 554.954375 
Q 576.687304 552.954375 574.687304 552.954375 
L 528.771679 552.954375 
Q 526.771679 552.954375 526.771679 554.954375 
L 526.771679 596.86 
Q 526.771679 598.86 528.771679 598.86 
z
" style="fill:#ffffff;opacity:0.8;stroke:#cccccc;stroke-linejoin:miter;stroke-width:2;"/>
    </g>
    <g id="text_18">
     <!-- $n_\tau$ -->
     <g style="fill:#262626;" transform="translate(538.649491 575.190625)scale(0.24 -0.24)">
      <defs>
       <path d="M 3566 2113 
L 3156 0 
L 2578 0 
L 2988 2091 
Q 3016 2238 3031 2350 
Q 3047 2463 3047 2528 
Q 3047 2791 2881 2937 
Q 2716 3084 2419 3084 
Q 1956 3084 1622 2776 
Q 1288 2469 1184 1941 
L 800 0 
L 225 0 
L 903 3500 
L 1478 3500 
L 1363 2950 
Q 1603 3253 1940 3418 
Q 2278 3584 2650 3584 
Q 3113 3584 3367 3334 
Q 3622 3084 3622 2631 
Q 3622 2519 3608 2391 
Q 3594 2263 3566 2113 
z
" id="DejaVuSans-Oblique-6e" transform="scale(0.015625)"/>
       <path d="M 2103 638 
Q 2188 488 2525 488 
L 2800 488 
L 2706 0 
L 2363 0 
Q 1800 0 1600 300 
Q 1403 606 1534 1269 
L 1856 2925 
L 541 2925 
L 653 3500 
L 3881 3500 
L 3769 2925 
L 2444 2925 
L 2113 1234 
Q 2025 781 2103 638 
z
" id="DejaVuSans-Oblique-3c4" transform="scale(0.015625)"/>
      </defs>
      <use xlink:href="#DejaVuSans-Oblique-6e"/>
      <use transform="translate(63.378906 -16.40625)scale(0.7)" xlink:href="#DejaVuSans-Oblique-3c4"/>
     </g>
    </g>
    <g id="line2d_3">
     <path d="M 530.771679 589.280313 
L 550.771679 589.280313 
" style="fill:none;stroke:#96c69a;stroke-linecap:round;stroke-width:3;"/>
    </g>
    <g id="line2d_4"/>
    <g id="text_19">
     <!-- 80 -->
     <g style="fill:#262626;" transform="translate(558.771679 592.780313)scale(0.1 -0.1)">
      <defs>
       <path d="M 2228 2088 
Q 1891 2088 1709 1903 
Q 1528 1719 1528 1375 
Q 1528 1031 1709 848 
Q 1891 666 2228 666 
Q 2563 666 2741 848 
Q 2919 1031 2919 1375 
Q 2919 1722 2741 1905 
Q 2563 2088 2228 2088 
z
M 1350 2484 
Q 925 2613 709 2878 
Q 494 3144 494 3541 
Q 494 4131 934 4440 
Q 1375 4750 2228 4750 
Q 3075 4750 3515 4442 
Q 3956 4134 3956 3541 
Q 3956 3144 3739 2878 
Q 3522 2613 3097 2484 
Q 3572 2353 3814 2058 
Q 4056 1763 4056 1313 
Q 4056 619 3595 264 
Q 3134 -91 2228 -91 
Q 1319 -91 855 264 
Q 391 619 391 1313 
Q 391 1763 633 2058 
Q 875 2353 1350 2484 
z
M 1631 3419 
Q 1631 3141 1786 2991 
Q 1941 2841 2228 2841 
Q 2509 2841 2662 2991 
Q 2816 3141 2816 3419 
Q 2816 3697 2662 3845 
Q 2509 3994 2228 3994 
Q 1941 3994 1786 3844 
Q 1631 3694 1631 3419 
z
" id="DejaVuSans-Bold-38" transform="scale(0.015625)"/>
       <path d="M 2944 2338 
Q 2944 3213 2780 3570 
Q 2616 3928 2228 3928 
Q 1841 3928 1675 3570 
Q 1509 3213 1509 2338 
Q 1509 1453 1675 1090 
Q 1841 728 2228 728 
Q 2613 728 2778 1090 
Q 2944 1453 2944 2338 
z
M 4147 2328 
Q 4147 1169 3647 539 
Q 3147 -91 2228 -91 
Q 1306 -91 806 539 
Q 306 1169 306 2328 
Q 306 3491 806 4120 
Q 1306 4750 2228 4750 
Q 3147 4750 3647 4120 
Q 4147 3491 4147 2328 
z
" id="DejaVuSans-Bold-30" transform="scale(0.015625)"/>
      </defs>
      <use xlink:href="#DejaVuSans-Bold-38"/>
      <use x="69.580078" xlink:href="#DejaVuSans-Bold-30"/>
     </g>
    </g>
   </g>
  </g>
  <g id="axes_2">
   <g id="patch_6">
    <path d="M 98.911875 92.437143 
L 581.687304 92.437143 
L 581.687304 7.2 
L 98.911875 7.2 
z
" style="fill:none;"/>
   </g>
   <g id="matplotlib.axis_3">
    <g id="xtick_7"/>
    <g id="xtick_8"/>
    <g id="xtick_9"/>
    <g id="xtick_10"/>
    <g id="xtick_11"/>
    <g id="xtick_12"/>
   </g>
   <g id="matplotlib.axis_4">
    <g id="ytick_10">
     <g id="text_20">
      <!-- 0 -->
      <g style="fill:#262626;" transform="translate(69.414375 100.795424)scale(0.22 -0.22)">
       <use xlink:href="#DejaVuSans-30"/>
      </g>
     </g>
    </g>
    <g id="ytick_11">
     <g id="text_21">
      <!-- 100 -->
      <g style="fill:#262626;" transform="translate(41.419375 48.082287)scale(0.22 -0.22)">
       <use xlink:href="#DejaVuSans-31"/>
       <use x="63.623047" xlink:href="#DejaVuSans-30"/>
       <use x="127.246094" xlink:href="#DejaVuSans-30"/>
      </g>
     </g>
    </g>
   </g>
   <g id="patch_7">
    <path clip-path="url(#p9f3dd2cfe0)" d="M 120.856213 92.437143 
L 154.616732 92.437143 
L 154.616732 11.258912 
L 120.856213 11.258912 
z
" style="fill:#96c69a;fill-opacity:0.5;stroke:#ffffff;stroke-linejoin:miter;stroke-width:2;"/>
   </g>
   <g id="patch_8">
    <path clip-path="url(#p9f3dd2cfe0)" d="M 154.616732 92.437143 
L 188.377252 92.437143 
L 188.377252 11.258912 
L 154.616732 11.258912 
z
" style="fill:#96c69a;fill-opacity:0.5;stroke:#ffffff;stroke-linejoin:miter;stroke-width:2;"/>
   </g>
   <g id="patch_9">
    <path clip-path="url(#p9f3dd2cfe0)" d="M 188.377252 92.437143 
L 222.137771 92.437143 
L 222.137771 11.258912 
L 188.377252 11.258912 
z
" style="fill:#96c69a;fill-opacity:0.5;stroke:#ffffff;stroke-linejoin:miter;stroke-width:2;"/>
   </g>
   <g id="patch_10">
    <path clip-path="url(#p9f3dd2cfe0)" d="M 222.137771 92.437143 
L 255.898291 92.437143 
L 255.898291 11.258912 
L 222.137771 11.258912 
z
" style="fill:#96c69a;fill-opacity:0.5;stroke:#ffffff;stroke-linejoin:miter;stroke-width:2;"/>
   </g>
   <g id="patch_11">
    <path clip-path="url(#p9f3dd2cfe0)" d="M 255.898291 92.437143 
L 289.65881 92.437143 
L 289.65881 11.786043 
L 255.898291 11.786043 
z
" style="fill:#96c69a;fill-opacity:0.5;stroke:#ffffff;stroke-linejoin:miter;stroke-width:2;"/>
   </g>
   <g id="patch_12">
    <path clip-path="url(#p9f3dd2cfe0)" d="M 289.65881 92.437143 
L 323.41933 92.437143 
L 323.41933 11.258912 
L 289.65881 11.258912 
z
" style="fill:#96c69a;fill-opacity:0.5;stroke:#ffffff;stroke-linejoin:miter;stroke-width:2;"/>
   </g>
   <g id="patch_13">
    <path clip-path="url(#p9f3dd2cfe0)" d="M 323.41933 92.437143 
L 357.179849 92.437143 
L 357.179849 11.258912 
L 323.41933 11.258912 
z
" style="fill:#96c69a;fill-opacity:0.5;stroke:#ffffff;stroke-linejoin:miter;stroke-width:2;"/>
   </g>
   <g id="patch_14">
    <path clip-path="url(#p9f3dd2cfe0)" d="M 357.179849 92.437143 
L 390.940369 92.437143 
L 390.940369 11.258912 
L 357.179849 11.258912 
z
" style="fill:#96c69a;fill-opacity:0.5;stroke:#ffffff;stroke-linejoin:miter;stroke-width:2;"/>
   </g>
   <g id="patch_15">
    <path clip-path="url(#p9f3dd2cfe0)" d="M 390.940369 92.437143 
L 424.700888 92.437143 
L 424.700888 11.786043 
L 390.940369 11.786043 
z
" style="fill:#96c69a;fill-opacity:0.5;stroke:#ffffff;stroke-linejoin:miter;stroke-width:2;"/>
   </g>
   <g id="patch_16">
    <path clip-path="url(#p9f3dd2cfe0)" d="M 424.700888 92.437143 
L 458.461407 92.437143 
L 458.461407 11.258912 
L 424.700888 11.258912 
z
" style="fill:#96c69a;fill-opacity:0.5;stroke:#ffffff;stroke-linejoin:miter;stroke-width:2;"/>
   </g>
   <g id="patch_17">
    <path clip-path="url(#p9f3dd2cfe0)" d="M 458.461407 92.437143 
L 492.221927 92.437143 
L 492.221927 11.258912 
L 458.461407 11.258912 
z
" style="fill:#96c69a;fill-opacity:0.5;stroke:#ffffff;stroke-linejoin:miter;stroke-width:2;"/>
   </g>
   <g id="patch_18">
    <path clip-path="url(#p9f3dd2cfe0)" d="M 492.221927 92.437143 
L 525.982446 92.437143 
L 525.982446 11.258912 
L 492.221927 11.258912 
z
" style="fill:#96c69a;fill-opacity:0.5;stroke:#ffffff;stroke-linejoin:miter;stroke-width:2;"/>
   </g>
   <g id="patch_19">
    <path clip-path="url(#p9f3dd2cfe0)" d="M 525.982446 92.437143 
L 559.742966 92.437143 
L 559.742966 11.258912 
L 525.982446 11.258912 
z
" style="fill:#96c69a;fill-opacity:0.5;stroke:#ffffff;stroke-linejoin:miter;stroke-width:2;"/>
   </g>
   <g id="patch_20">
    <path d="M 98.911875 92.437143 
L 98.911875 7.2 
" style="fill:none;stroke:#262626;stroke-linecap:square;stroke-linejoin:miter;stroke-width:2.5;"/>
   </g>
   <g id="patch_21">
    <path d="M 98.911875 92.437143 
L 581.687304 92.437143 
" style="fill:none;stroke:#262626;stroke-linecap:square;stroke-linejoin:miter;stroke-width:2.5;"/>
   </g>
  </g>
  <g id="axes_3">
   <g id="patch_22">
    <path d="M 598.334732 603.86 
L 681.571875 603.86 
L 681.571875 109.484571 
L 598.334732 109.484571 
z
" style="fill:none;"/>
   </g>
   <g id="matplotlib.axis_5">
    <g id="xtick_13">
     <g id="text_22">
      <!-- 0 -->
      <g style="fill:#262626;" transform="translate(591.335982 636.076563)scale(0.22 -0.22)">
       <use xlink:href="#DejaVuSans-30"/>
      </g>
     </g>
    </g>
    <g id="xtick_14">
     <g id="text_23">
      <!-- 100 -->
      <g style="fill:#262626;" transform="translate(619.282117 636.076563)scale(0.22 -0.22)">
       <use xlink:href="#DejaVuSans-31"/>
       <use x="63.623047" xlink:href="#DejaVuSans-30"/>
       <use x="127.246094" xlink:href="#DejaVuSans-30"/>
      </g>
     </g>
    </g>
   </g>
   <g id="matplotlib.axis_6">
    <g id="ytick_12"/>
    <g id="ytick_13"/>
    <g id="ytick_14"/>
    <g id="ytick_15"/>
    <g id="ytick_16"/>
    <g id="ytick_17"/>
    <g id="ytick_18"/>
    <g id="ytick_19"/>
    <g id="ytick_20"/>
   </g>
   <g id="patch_23">
    <path clip-path="url(#p2fbfcaee29)" d="M 598.334732 581.38839 
L 599.173605 581.38839 
L 599.173605 570.687623 
L 598.334732 570.687623 
z
" style="fill:#96c69a;fill-opacity:0.5;stroke:#ffffff;stroke-linejoin:miter;stroke-width:1.070077;"/>
   </g>
   <g id="patch_24">
    <path clip-path="url(#p2fbfcaee29)" d="M 598.334732 570.687623 
L 603.787405 570.687623 
L 603.787405 559.986856 
L 598.334732 559.986856 
z
" style="fill:#96c69a;fill-opacity:0.5;stroke:#ffffff;stroke-linejoin:miter;stroke-width:1.070077;"/>
   </g>
   <g id="patch_25">
    <path clip-path="url(#p2fbfcaee29)" d="M 598.334732 559.986856 
L 610.498386 559.986856 
L 610.498386 549.286089 
L 598.334732 549.286089 
z
" style="fill:#96c69a;fill-opacity:0.5;stroke:#ffffff;stroke-linejoin:miter;stroke-width:1.070077;"/>
   </g>
   <g id="patch_26">
    <path clip-path="url(#p2fbfcaee29)" d="M 598.334732 549.286089 
L 616.370495 549.286089 
L 616.370495 538.585322 
L 598.334732 538.585322 
z
" style="fill:#96c69a;fill-opacity:0.5;stroke:#ffffff;stroke-linejoin:miter;stroke-width:1.070077;"/>
   </g>
   <g id="patch_27">
    <path clip-path="url(#p2fbfcaee29)" d="M 598.334732 538.585322 
L 647.408785 538.585322 
L 647.408785 527.884555 
L 598.334732 527.884555 
z
" style="fill:#96c69a;fill-opacity:0.5;stroke:#ffffff;stroke-linejoin:miter;stroke-width:1.070077;"/>
   </g>
   <g id="patch_28">
    <path clip-path="url(#p2fbfcaee29)" d="M 598.334732 527.884555 
L 645.731039 527.884555 
L 645.731039 517.183788 
L 598.334732 517.183788 
z
" style="fill:#96c69a;fill-opacity:0.5;stroke:#ffffff;stroke-linejoin:miter;stroke-width:1.070077;"/>
   </g>
   <g id="patch_29">
    <path clip-path="url(#p2fbfcaee29)" d="M 598.334732 517.183788 
L 666.702857 517.183788 
L 666.702857 506.483022 
L 598.334732 506.483022 
z
" style="fill:#96c69a;fill-opacity:0.5;stroke:#ffffff;stroke-linejoin:miter;stroke-width:1.070077;"/>
   </g>
   <g id="patch_30">
    <path clip-path="url(#p2fbfcaee29)" d="M 598.334732 506.483022 
L 666.702857 506.483022 
L 666.702857 495.782255 
L 598.334732 495.782255 
z
" style="fill:#96c69a;fill-opacity:0.5;stroke:#ffffff;stroke-linejoin:miter;stroke-width:1.070077;"/>
   </g>
   <g id="patch_31">
    <path clip-path="url(#p2fbfcaee29)" d="M 598.334732 495.782255 
L 677.608202 495.782255 
L 677.608202 485.081488 
L 598.334732 485.081488 
z
" style="fill:#96c69a;fill-opacity:0.5;stroke:#ffffff;stroke-linejoin:miter;stroke-width:1.070077;"/>
   </g>
   <g id="patch_32">
    <path clip-path="url(#p2fbfcaee29)" d="M 598.334732 485.081488 
L 672.155529 485.081488 
L 672.155529 474.380721 
L 598.334732 474.380721 
z
" style="fill:#96c69a;fill-opacity:0.5;stroke:#ffffff;stroke-linejoin:miter;stroke-width:1.070077;"/>
   </g>
   <g id="patch_33">
    <path clip-path="url(#p2fbfcaee29)" d="M 598.334732 474.380721 
L 661.250184 474.380721 
L 661.250184 463.679954 
L 598.334732 463.679954 
z
" style="fill:#96c69a;fill-opacity:0.5;stroke:#ffffff;stroke-linejoin:miter;stroke-width:1.070077;"/>
   </g>
   <g id="patch_34">
    <path clip-path="url(#p2fbfcaee29)" d="M 598.334732 463.679954 
L 662.089057 463.679954 
L 662.089057 452.979187 
L 598.334732 452.979187 
z
" style="fill:#96c69a;fill-opacity:0.5;stroke:#ffffff;stroke-linejoin:miter;stroke-width:1.070077;"/>
   </g>
   <g id="patch_35">
    <path clip-path="url(#p2fbfcaee29)" d="M 598.334732 452.979187 
L 654.119766 452.979187 
L 654.119766 442.278421 
L 598.334732 442.278421 
z
" style="fill:#96c69a;fill-opacity:0.5;stroke:#ffffff;stroke-linejoin:miter;stroke-width:1.070077;"/>
   </g>
   <g id="patch_36">
    <path clip-path="url(#p2fbfcaee29)" d="M 598.334732 442.278421 
L 640.697803 442.278421 
L 640.697803 431.577654 
L 598.334732 431.577654 
z
" style="fill:#96c69a;fill-opacity:0.5;stroke:#ffffff;stroke-linejoin:miter;stroke-width:1.070077;"/>
   </g>
   <g id="patch_37">
    <path clip-path="url(#p2fbfcaee29)" d="M 598.334732 431.577654 
L 636.922876 431.577654 
L 636.922876 420.876887 
L 598.334732 420.876887 
z
" style="fill:#96c69a;fill-opacity:0.5;stroke:#ffffff;stroke-linejoin:miter;stroke-width:1.070077;"/>
   </g>
   <g id="patch_38">
    <path clip-path="url(#p2fbfcaee29)" d="M 598.334732 420.876887 
L 631.88964 420.876887 
L 631.88964 410.17612 
L 598.334732 410.17612 
z
" style="fill:#96c69a;fill-opacity:0.5;stroke:#ffffff;stroke-linejoin:miter;stroke-width:1.070077;"/>
   </g>
   <g id="patch_39">
    <path clip-path="url(#p2fbfcaee29)" d="M 598.334732 410.17612 
L 626.017531 410.17612 
L 626.017531 399.475353 
L 598.334732 399.475353 
z
" style="fill:#96c69a;fill-opacity:0.5;stroke:#ffffff;stroke-linejoin:miter;stroke-width:1.070077;"/>
   </g>
   <g id="patch_40">
    <path clip-path="url(#p2fbfcaee29)" d="M 598.334732 399.475353 
L 620.145422 399.475353 
L 620.145422 388.774586 
L 598.334732 388.774586 
z
" style="fill:#96c69a;fill-opacity:0.5;stroke:#ffffff;stroke-linejoin:miter;stroke-width:1.070077;"/>
   </g>
   <g id="patch_41">
    <path clip-path="url(#p2fbfcaee29)" d="M 598.334732 388.774586 
L 617.209368 388.774586 
L 617.209368 378.073819 
L 598.334732 378.073819 
z
" style="fill:#96c69a;fill-opacity:0.5;stroke:#ffffff;stroke-linejoin:miter;stroke-width:1.070077;"/>
   </g>
   <g id="patch_42">
    <path clip-path="url(#p2fbfcaee29)" d="M 598.334732 378.073819 
L 613.434441 378.073819 
L 613.434441 367.373053 
L 598.334732 367.373053 
z
" style="fill:#96c69a;fill-opacity:0.5;stroke:#ffffff;stroke-linejoin:miter;stroke-width:1.070077;"/>
   </g>
   <g id="patch_43">
    <path clip-path="url(#p2fbfcaee29)" d="M 598.334732 367.373053 
L 607.981768 367.373053 
L 607.981768 356.672286 
L 598.334732 356.672286 
z
" style="fill:#96c69a;fill-opacity:0.5;stroke:#ffffff;stroke-linejoin:miter;stroke-width:1.070077;"/>
   </g>
   <g id="patch_44">
    <path clip-path="url(#p2fbfcaee29)" d="M 598.334732 356.672286 
L 603.367968 356.672286 
L 603.367968 345.971519 
L 598.334732 345.971519 
z
" style="fill:#96c69a;fill-opacity:0.5;stroke:#ffffff;stroke-linejoin:miter;stroke-width:1.070077;"/>
   </g>
   <g id="patch_45">
    <path clip-path="url(#p2fbfcaee29)" d="M 598.334732 345.971519 
L 603.787405 345.971519 
L 603.787405 335.270752 
L 598.334732 335.270752 
z
" style="fill:#96c69a;fill-opacity:0.5;stroke:#ffffff;stroke-linejoin:miter;stroke-width:1.070077;"/>
   </g>
   <g id="patch_46">
    <path clip-path="url(#p2fbfcaee29)" d="M 598.334732 335.270752 
L 602.948532 335.270752 
L 602.948532 324.569985 
L 598.334732 324.569985 
z
" style="fill:#96c69a;fill-opacity:0.5;stroke:#ffffff;stroke-linejoin:miter;stroke-width:1.070077;"/>
   </g>
   <g id="patch_47">
    <path clip-path="url(#p2fbfcaee29)" d="M 598.334732 324.569985 
L 602.109659 324.569985 
L 602.109659 313.869218 
L 598.334732 313.869218 
z
" style="fill:#96c69a;fill-opacity:0.5;stroke:#ffffff;stroke-linejoin:miter;stroke-width:1.070077;"/>
   </g>
   <g id="patch_48">
    <path clip-path="url(#p2fbfcaee29)" d="M 598.334732 313.869218 
L 600.431914 313.869218 
L 600.431914 303.168451 
L 598.334732 303.168451 
z
" style="fill:#96c69a;fill-opacity:0.5;stroke:#ffffff;stroke-linejoin:miter;stroke-width:1.070077;"/>
   </g>
   <g id="patch_49">
    <path clip-path="url(#p2fbfcaee29)" d="M 598.334732 303.168451 
L 599.593041 303.168451 
L 599.593041 292.467685 
L 598.334732 292.467685 
z
" style="fill:#96c69a;fill-opacity:0.5;stroke:#ffffff;stroke-linejoin:miter;stroke-width:1.070077;"/>
   </g>
   <g id="patch_50">
    <path clip-path="url(#p2fbfcaee29)" d="M 598.334732 292.467685 
L 599.593041 292.467685 
L 599.593041 281.766918 
L 598.334732 281.766918 
z
" style="fill:#96c69a;fill-opacity:0.5;stroke:#ffffff;stroke-linejoin:miter;stroke-width:1.070077;"/>
   </g>
   <g id="patch_51">
    <path clip-path="url(#p2fbfcaee29)" d="M 598.334732 281.766918 
L 599.173605 281.766918 
L 599.173605 271.066151 
L 598.334732 271.066151 
z
" style="fill:#96c69a;fill-opacity:0.5;stroke:#ffffff;stroke-linejoin:miter;stroke-width:1.070077;"/>
   </g>
   <g id="patch_52">
    <path clip-path="url(#p2fbfcaee29)" d="M 598.334732 271.066151 
L 598.334732 271.066151 
L 598.334732 260.365384 
L 598.334732 260.365384 
z
" style="fill:#96c69a;fill-opacity:0.5;stroke:#ffffff;stroke-linejoin:miter;stroke-width:1.070077;"/>
   </g>
   <g id="patch_53">
    <path clip-path="url(#p2fbfcaee29)" d="M 598.334732 260.365384 
L 598.754168 260.365384 
L 598.754168 249.664617 
L 598.334732 249.664617 
z
" style="fill:#96c69a;fill-opacity:0.5;stroke:#ffffff;stroke-linejoin:miter;stroke-width:1.070077;"/>
   </g>
   <g id="patch_54">
    <path clip-path="url(#p2fbfcaee29)" d="M 598.334732 249.664617 
L 598.334732 249.664617 
L 598.334732 238.96385 
L 598.334732 238.96385 
z
" style="fill:#96c69a;fill-opacity:0.5;stroke:#ffffff;stroke-linejoin:miter;stroke-width:1.070077;"/>
   </g>
   <g id="patch_55">
    <path clip-path="url(#p2fbfcaee29)" d="M 598.334732 238.96385 
L 598.334732 238.96385 
L 598.334732 228.263083 
L 598.334732 228.263083 
z
" style="fill:#96c69a;fill-opacity:0.5;stroke:#ffffff;stroke-linejoin:miter;stroke-width:1.070077;"/>
   </g>
   <g id="patch_56">
    <path clip-path="url(#p2fbfcaee29)" d="M 598.334732 228.263083 
L 598.754168 228.263083 
L 598.754168 217.562317 
L 598.334732 217.562317 
z
" style="fill:#96c69a;fill-opacity:0.5;stroke:#ffffff;stroke-linejoin:miter;stroke-width:1.070077;"/>
   </g>
   <g id="patch_57">
    <path clip-path="url(#p2fbfcaee29)" d="M 598.334732 217.562317 
L 598.334732 217.562317 
L 598.334732 206.86155 
L 598.334732 206.86155 
z
" style="fill:#96c69a;fill-opacity:0.5;stroke:#ffffff;stroke-linejoin:miter;stroke-width:1.070077;"/>
   </g>
   <g id="patch_58">
    <path clip-path="url(#p2fbfcaee29)" d="M 598.334732 206.86155 
L 598.334732 206.86155 
L 598.334732 196.160783 
L 598.334732 196.160783 
z
" style="fill:#96c69a;fill-opacity:0.5;stroke:#ffffff;stroke-linejoin:miter;stroke-width:1.070077;"/>
   </g>
   <g id="patch_59">
    <path clip-path="url(#p2fbfcaee29)" d="M 598.334732 196.160783 
L 598.334732 196.160783 
L 598.334732 185.460016 
L 598.334732 185.460016 
z
" style="fill:#96c69a;fill-opacity:0.5;stroke:#ffffff;stroke-linejoin:miter;stroke-width:1.070077;"/>
   </g>
   <g id="patch_60">
    <path clip-path="url(#p2fbfcaee29)" d="M 598.334732 185.460016 
L 598.754168 185.460016 
L 598.754168 174.759249 
L 598.334732 174.759249 
z
" style="fill:#96c69a;fill-opacity:0.5;stroke:#ffffff;stroke-linejoin:miter;stroke-width:1.070077;"/>
   </g>
   <g id="patch_61">
    <path clip-path="url(#p2fbfcaee29)" d="M 598.334732 174.759249 
L 598.334732 174.759249 
L 598.334732 164.058482 
L 598.334732 164.058482 
z
" style="fill:#96c69a;fill-opacity:0.5;stroke:#ffffff;stroke-linejoin:miter;stroke-width:1.070077;"/>
   </g>
   <g id="patch_62">
    <path clip-path="url(#p2fbfcaee29)" d="M 598.334732 164.058482 
L 598.334732 164.058482 
L 598.334732 153.357716 
L 598.334732 153.357716 
z
" style="fill:#96c69a;fill-opacity:0.5;stroke:#ffffff;stroke-linejoin:miter;stroke-width:1.070077;"/>
   </g>
   <g id="patch_63">
    <path clip-path="url(#p2fbfcaee29)" d="M 598.334732 153.357716 
L 598.334732 153.357716 
L 598.334732 142.656949 
L 598.334732 142.656949 
z
" style="fill:#96c69a;fill-opacity:0.5;stroke:#ffffff;stroke-linejoin:miter;stroke-width:1.070077;"/>
   </g>
   <g id="patch_64">
    <path clip-path="url(#p2fbfcaee29)" d="M 598.334732 142.656949 
L 598.754168 142.656949 
L 598.754168 131.956182 
L 598.334732 131.956182 
z
" style="fill:#96c69a;fill-opacity:0.5;stroke:#ffffff;stroke-linejoin:miter;stroke-width:1.070077;"/>
   </g>
   <g id="patch_65">
    <path d="M 598.334732 603.86 
L 598.334732 109.484571 
" style="fill:none;stroke:#262626;stroke-linecap:square;stroke-linejoin:miter;stroke-width:2.5;"/>
   </g>
   <g id="patch_66">
    <path d="M 598.334732 603.86 
L 681.571875 603.86 
" style="fill:none;stroke:#262626;stroke-linecap:square;stroke-linejoin:miter;stroke-width:2.5;"/>
   </g>
  </g>
 </g>
 <defs>
  <clipPath id="p535e2597bc">
   <rect height="494.375429" width="482.775429" x="98.911875" y="109.484571"/>
  </clipPath>
  <clipPath id="p9f3dd2cfe0">
   <rect height="85.237143" width="482.775429" x="98.911875" y="7.2"/>
  </clipPath>
  <clipPath id="p2fbfcaee29">
   <rect height="494.375429" width="83.237143" x="598.334732" y="109.484571"/>
  </clipPath>
 </defs>
</svg>
